<svg id="gd396f58a-a6e7-4efa-9505-8ffae75a32fc-dark" width="100%" xmlns="http://www.w3.org/2000/svg" xmlns:xlink="http://www.w3.org/1999/xlink" class="flowchart" style="max-width: 513.90234375px;" viewBox="28.19921875 0 513.90234375 691" role="graphics-document document" aria-roledescription="flowchart-v2"><style>#gd396f58a-a6e7-4efa-9505-8ffae75a32fc-dark{font-family:"trebuchet ms",verdana,arial,sans-serif;font-size:16px;fill:#e5e5e5;}@keyframes edge-animation-frame{from{stroke-dashoffset:0;}}@keyframes dash{to{stroke-dashoffset:0;}}#gd396f58a-a6e7-4efa-9505-8ffae75a32fc-dark .edge-animation-slow{stroke-dasharray:9,5!important;stroke-dashoffset:900;animation:dash 50s linear infinite;stroke-linecap:round;}#gd396f58a-a6e7-4efa-9505-8ffae75a32fc-dark .edge-animation-fast{stroke-dasharray:9,5!important;stroke-dashoffset:900;animation:dash 20s linear infinite;stroke-linecap:round;}#gd396f58a-a6e7-4efa-9505-8ffae75a32fc-dark .error-icon{fill:#252525;}#gd396f58a-a6e7-4efa-9505-8ffae75a32fc-dark .error-text{fill:#cccccc;stroke:#cccccc;}#gd396f58a-a6e7-4efa-9505-8ffae75a32fc-dark .edge-thickness-normal{stroke-width:1px;}#gd396f58a-a6e7-4efa-9505-8ffae75a32fc-dark .edge-thickness-thick{stroke-width:3.5px;}#gd396f58a-a6e7-4efa-9505-8ffae75a32fc-dark .edge-pattern-solid{stroke-dasharray:0;}#gd396f58a-a6e7-4efa-9505-8ffae75a32fc-dark .edge-thickness-invisible{stroke-width:0;fill:none;}#gd396f58a-a6e7-4efa-9505-8ffae75a32fc-dark .edge-pattern-dashed{stroke-dasharray:3;}#gd396f58a-a6e7-4efa-9505-8ffae75a32fc-dark .edge-pattern-dotted{stroke-dasharray:2;}#gd396f58a-a6e7-4efa-9505-8ffae75a32fc-dark .marker{fill:#cccccc;stroke:#cccccc;}#gd396f58a-a6e7-4efa-9505-8ffae75a32fc-dark .marker.cross{stroke:#cccccc;}#gd396f58a-a6e7-4efa-9505-8ffae75a32fc-dark svg{font-family:"trebuchet ms",verdana,arial,sans-serif;font-size:16px;}#gd396f58a-a6e7-4efa-9505-8ffae75a32fc-dark p{margin:0;}#gd396f58a-a6e7-4efa-9505-8ffae75a32fc-dark .label{font-family:"trebuchet ms",verdana,arial,sans-serif;color:#e5e5e5;}#gd396f58a-a6e7-4efa-9505-8ffae75a32fc-dark .cluster-label text{fill:#e5e5e5;}#gd396f58a-a6e7-4efa-9505-8ffae75a32fc-dark .cluster-label span{color:#e5e5e5;}#gd396f58a-a6e7-4efa-9505-8ffae75a32fc-dark .cluster-label span p{background-color:transparent;}#gd396f58a-a6e7-4efa-9505-8ffae75a32fc-dark .label text,#gd396f58a-a6e7-4efa-9505-8ffae75a32fc-dark span{fill:#e5e5e5;color:#e5e5e5;}#gd396f58a-a6e7-4efa-9505-8ffae75a32fc-dark .node rect,#gd396f58a-a6e7-4efa-9505-8ffae75a32fc-dark .node circle,#gd396f58a-a6e7-4efa-9505-8ffae75a32fc-dark .node ellipse,#gd396f58a-a6e7-4efa-9505-8ffae75a32fc-dark .node polygon,#gd396f58a-a6e7-4efa-9505-8ffae75a32fc-dark .node path{fill:#2d2d2d;stroke:#555555;stroke-width:1px;}#gd396f58a-a6e7-4efa-9505-8ffae75a32fc-dark .rough-node .label text,#gd396f58a-a6e7-4efa-9505-8ffae75a32fc-dark .node .label text,#gd396f58a-a6e7-4efa-9505-8ffae75a32fc-dark .image-shape .label,#gd396f58a-a6e7-4efa-9505-8ffae75a32fc-dark .icon-shape .label{text-anchor:middle;}#gd396f58a-a6e7-4efa-9505-8ffae75a32fc-dark .node .katex path{fill:#000;stroke:#000;stroke-width:1px;}#gd396f58a-a6e7-4efa-9505-8ffae75a32fc-dark .rough-node .label,#gd396f58a-a6e7-4efa-9505-8ffae75a32fc-dark .node .label,#gd396f58a-a6e7-4efa-9505-8ffae75a32fc-dark .image-shape .label,#gd396f58a-a6e7-4efa-9505-8ffae75a32fc-dark .icon-shape .label{text-align:center;}#gd396f58a-a6e7-4efa-9505-8ffae75a32fc-dark .node.clickable{cursor:pointer;}#gd396f58a-a6e7-4efa-9505-8ffae75a32fc-dark .root .anchor path{fill:#cccccc!important;stroke-width:0;stroke:#cccccc;}#gd396f58a-a6e7-4efa-9505-8ffae75a32fc-dark .arrowheadPath{fill:#cccccc;}#gd396f58a-a6e7-4efa-9505-8ffae75a32fc-dark .edgePath .path{stroke:#cccccc;stroke-width:1px;}#gd396f58a-a6e7-4efa-9505-8ffae75a32fc-dark .flowchart-link{stroke:#cccccc;fill:none;}#gd396f58a-a6e7-4efa-9505-8ffae75a32fc-dark .edgeLabel{background-color:#1e1e1e;text-align:center;}#gd396f58a-a6e7-4efa-9505-8ffae75a32fc-dark .edgeLabel p{background-color:#1e1e1e;}#gd396f58a-a6e7-4efa-9505-8ffae75a32fc-dark .edgeLabel rect{opacity:0.5;background-color:#1e1e1e;fill:#1e1e1e;}#gd396f58a-a6e7-4efa-9505-8ffae75a32fc-dark .labelBkg{background-color:rgba(30, 30, 30, 0.5);}#gd396f58a-a6e7-4efa-9505-8ffae75a32fc-dark .cluster rect{fill:#1e1e1e;stroke:#555555;stroke-width:1px;}#gd396f58a-a6e7-4efa-9505-8ffae75a32fc-dark .cluster text{fill:#e5e5e5;}#gd396f58a-a6e7-4efa-9505-8ffae75a32fc-dark .cluster span{color:#e5e5e5;}#gd396f58a-a6e7-4efa-9505-8ffae75a32fc-dark div.mermaidTooltip{position:absolute;text-align:center;max-width:200px;padding:2px;font-family:"trebuchet ms",verdana,arial,sans-serif;font-size:12px;background:#252525;border:1px solid #555555;border-radius:2px;pointer-events:none;z-index:100;}#gd396f58a-a6e7-4efa-9505-8ffae75a32fc-dark .flowchartTitleText{text-anchor:middle;font-size:18px;fill:#e5e5e5;}#gd396f58a-a6e7-4efa-9505-8ffae75a32fc-dark rect.text{fill:none;stroke-width:0;}#gd396f58a-a6e7-4efa-9505-8ffae75a32fc-dark .icon-shape,#gd396f58a-a6e7-4efa-9505-8ffae75a32fc-dark .image-shape{background-color:#1e1e1e;text-align:center;}#gd396f58a-a6e7-4efa-9505-8ffae75a32fc-dark .icon-shape p,#gd396f58a-a6e7-4efa-9505-8ffae75a32fc-dark .image-shape p{background-color:#1e1e1e;padding:2px;}#gd396f58a-a6e7-4efa-9505-8ffae75a32fc-dark .icon-shape .label rect,#gd396f58a-a6e7-4efa-9505-8ffae75a32fc-dark .image-shape .label rect{opacity:0.5;background-color:#1e1e1e;fill:#1e1e1e;}#gd396f58a-a6e7-4efa-9505-8ffae75a32fc-dark .label-icon{display:inline-block;height:1em;overflow:visible;vertical-align:-0.125em;}#gd396f58a-a6e7-4efa-9505-8ffae75a32fc-dark .node .label-icon path{fill:currentColor;stroke:revert;stroke-width:revert;}#gd396f58a-a6e7-4efa-9505-8ffae75a32fc-dark .node .neo-node{stroke:#555555;}#gd396f58a-a6e7-4efa-9505-8ffae75a32fc-dark [data-look="neo"].node rect,#gd396f58a-a6e7-4efa-9505-8ffae75a32fc-dark [data-look="neo"].cluster rect,#gd396f58a-a6e7-4efa-9505-8ffae75a32fc-dark [data-look="neo"].node polygon{stroke:url(#gd396f58a-a6e7-4efa-9505-8ffae75a32fc-dark-gradient);filter:drop-shadow( 1px 2px 2px rgba(185,185,185,1));}#gd396f58a-a6e7-4efa-9505-8ffae75a32fc-dark [data-look="neo"].node path{stroke:url(#gd396f58a-a6e7-4efa-9505-8ffae75a32fc-dark-gradient);stroke-width:1px;}#gd396f58a-a6e7-4efa-9505-8ffae75a32fc-dark [data-look="neo"].node .outer-path{filter:drop-shadow( 1px 2px 2px rgba(185,185,185,1));}#gd396f58a-a6e7-4efa-9505-8ffae75a32fc-dark [data-look="neo"].node .neo-line path{stroke:#555555;filter:none;}#gd396f58a-a6e7-4efa-9505-8ffae75a32fc-dark [data-look="neo"].node circle{stroke:url(#gd396f58a-a6e7-4efa-9505-8ffae75a32fc-dark-gradient);filter:drop-shadow( 1px 2px 2px rgba(185,185,185,1));}#gd396f58a-a6e7-4efa-9505-8ffae75a32fc-dark [data-look="neo"].node circle .state-start{fill:#000000;}#gd396f58a-a6e7-4efa-9505-8ffae75a32fc-dark [data-look="neo"].icon-shape .icon{fill:url(#gd396f58a-a6e7-4efa-9505-8ffae75a32fc-dark-gradient);filter:drop-shadow( 1px 2px 2px rgba(185,185,185,1));}#gd396f58a-a6e7-4efa-9505-8ffae75a32fc-dark [data-look="neo"].icon-shape .icon-neo path{stroke:url(#gd396f58a-a6e7-4efa-9505-8ffae75a32fc-dark-gradient);filter:drop-shadow( 1px 2px 2px rgba(185,185,185,1));}#gd396f58a-a6e7-4efa-9505-8ffae75a32fc-dark :root{--mermaid-font-family:"trebuchet ms",verdana,arial,sans-serif;}#gd396f58a-a6e7-4efa-9505-8ffae75a32fc-dark .tier rect{fill:#2E5A88!important;stroke:#1F4870!important;color:#ffffff!important;}#gd396f58a-a6e7-4efa-9505-8ffae75a32fc-dark .tier polygon{fill:#2E5A88!important;stroke:#1F4870!important;color:#ffffff!important;}#gd396f58a-a6e7-4efa-9505-8ffae75a32fc-dark .tier ellipse{fill:#2E5A88!important;stroke:#1F4870!important;color:#ffffff!important;}#gd396f58a-a6e7-4efa-9505-8ffae75a32fc-dark .tier circle{fill:#2E5A88!important;stroke:#1F4870!important;color:#ffffff!important;}#gd396f58a-a6e7-4efa-9505-8ffae75a32fc-dark .tier path{fill:#2E5A88!important;stroke:#1F4870!important;color:#ffffff!important;}#gd396f58a-a6e7-4efa-9505-8ffae75a32fc-dark .tier tspan{fill:#ffffff!important;}#gd396f58a-a6e7-4efa-9505-8ffae75a32fc-dark .hot rect{fill:#B43A3A!important;stroke:#8E2828!important;color:#ffffff!important;}#gd396f58a-a6e7-4efa-9505-8ffae75a32fc-dark .hot polygon{fill:#B43A3A!important;stroke:#8E2828!important;color:#ffffff!important;}#gd396f58a-a6e7-4efa-9505-8ffae75a32fc-dark .hot ellipse{fill:#B43A3A!important;stroke:#8E2828!important;color:#ffffff!important;}#gd396f58a-a6e7-4efa-9505-8ffae75a32fc-dark .hot circle{fill:#B43A3A!important;stroke:#8E2828!important;color:#ffffff!important;}#gd396f58a-a6e7-4efa-9505-8ffae75a32fc-dark .hot path{fill:#B43A3A!important;stroke:#8E2828!important;color:#ffffff!important;}#gd396f58a-a6e7-4efa-9505-8ffae75a32fc-dark .hot tspan{fill:#ffffff!important;}#gd396f58a-a6e7-4efa-9505-8ffae75a32fc-dark .entry rect{fill:#5A5A5A!important;stroke:#3D3D3D!important;color:#ffffff!important;}#gd396f58a-a6e7-4efa-9505-8ffae75a32fc-dark .entry polygon{fill:#5A5A5A!important;stroke:#3D3D3D!important;color:#ffffff!important;}#gd396f58a-a6e7-4efa-9505-8ffae75a32fc-dark .entry ellipse{fill:#5A5A5A!important;stroke:#3D3D3D!important;color:#ffffff!important;}#gd396f58a-a6e7-4efa-9505-8ffae75a32fc-dark .entry circle{fill:#5A5A5A!important;stroke:#3D3D3D!important;color:#ffffff!important;}#gd396f58a-a6e7-4efa-9505-8ffae75a32fc-dark .entry path{fill:#5A5A5A!important;stroke:#3D3D3D!important;color:#ffffff!important;}#gd396f58a-a6e7-4efa-9505-8ffae75a32fc-dark .entry tspan{fill:#ffffff!important;}</style><g><marker id="gd396f58a-a6e7-4efa-9505-8ffae75a32fc-dark_flowchart-v2-pointEnd" class="marker flowchart-v2" viewBox="0 0 10 10" refX="5" refY="5" markerUnits="userSpaceOnUse" markerWidth="8" markerHeight="8" orient="auto"><path d="M 0 0 L 10 5 L 0 10 z" class="arrowMarkerPath" style="stroke-width: 1; stroke-dasharray: 1, 0;"></path></marker><marker id="gd396f58a-a6e7-4efa-9505-8ffae75a32fc-dark_flowchart-v2-pointStart" class="marker flowchart-v2" viewBox="0 0 10 10" refX="4.5" refY="5" markerUnits="userSpaceOnUse" markerWidth="8" markerHeight="8" orient="auto"><path d="M 0 5 L 10 10 L 10 0 z" class="arrowMarkerPath" style="stroke-width: 1; stroke-dasharray: 1, 0;"></path></marker><marker id="gd396f58a-a6e7-4efa-9505-8ffae75a32fc-dark_flowchart-v2-pointEnd-margin" class="marker flowchart-v2" viewBox="0 0 11.5 14" refX="11.5" refY="7" markerUnits="userSpaceOnUse" markerWidth="10.5" markerHeight="14" orient="auto"><path d="M 0 0 L 11.5 7 L 0 14 z" class="arrowMarkerPath" style="stroke-width: 0; stroke-dasharray: 1, 0;"></path></marker><marker id="gd396f58a-a6e7-4efa-9505-8ffae75a32fc-dark_flowchart-v2-pointStart-margin" class="marker flowchart-v2" viewBox="0 0 11.5 14" refX="1" refY="7" markerUnits="userSpaceOnUse" markerWidth="11.5" markerHeight="14" orient="auto"><polygon points="0,7 11.5,14 11.5,0" class="arrowMarkerPath" style="stroke-width: 0; stroke-dasharray: 1, 0;"></polygon></marker><marker id="gd396f58a-a6e7-4efa-9505-8ffae75a32fc-dark_flowchart-v2-circleEnd" class="marker flowchart-v2" viewBox="0 0 10 10" refX="11" refY="5" markerUnits="userSpaceOnUse" markerWidth="11" markerHeight="11" orient="auto"><circle cx="5" cy="5" r="5" class="arrowMarkerPath" style="stroke-width: 1; stroke-dasharray: 1, 0;"></circle></marker><marker id="gd396f58a-a6e7-4efa-9505-8ffae75a32fc-dark_flowchart-v2-circleStart" class="marker flowchart-v2" viewBox="0 0 10 10" refX="-1" refY="5" markerUnits="userSpaceOnUse" markerWidth="11" markerHeight="11" orient="auto"><circle cx="5" cy="5" r="5" class="arrowMarkerPath" style="stroke-width: 1; stroke-dasharray: 1, 0;"></circle></marker><marker id="gd396f58a-a6e7-4efa-9505-8ffae75a32fc-dark_flowchart-v2-circleEnd-margin" class="marker flowchart-v2" viewBox="0 0 10 10" refY="5" refX="12.25" markerUnits="userSpaceOnUse" markerWidth="14" markerHeight="14" orient="auto"><circle cx="5" cy="5" r="5" class="arrowMarkerPath" style="stroke-width: 0; stroke-dasharray: 1, 0;"></circle></marker><marker id="gd396f58a-a6e7-4efa-9505-8ffae75a32fc-dark_flowchart-v2-circleStart-margin" class="marker flowchart-v2" viewBox="0 0 10 10" refX="-2" refY="5" markerUnits="userSpaceOnUse" markerWidth="14" markerHeight="14" orient="auto"><circle cx="5" cy="5" r="5" class="arrowMarkerPath" style="stroke-width: 0; stroke-dasharray: 1, 0;"></circle></marker><marker id="gd396f58a-a6e7-4efa-9505-8ffae75a32fc-dark_flowchart-v2-crossEnd" class="marker cross flowchart-v2" viewBox="0 0 11 11" refX="12" refY="5.2" markerUnits="userSpaceOnUse" markerWidth="11" markerHeight="11" orient="auto"><path d="M 1,1 l 9,9 M 10,1 l -9,9" class="arrowMarkerPath" style="stroke-width: 2; stroke-dasharray: 1, 0;"></path></marker><marker id="gd396f58a-a6e7-4efa-9505-8ffae75a32fc-dark_flowchart-v2-crossStart" class="marker cross flowchart-v2" viewBox="0 0 11 11" refX="-1" refY="5.2" markerUnits="userSpaceOnUse" markerWidth="11" markerHeight="11" orient="auto"><path d="M 1,1 l 9,9 M 10,1 l -9,9" class="arrowMarkerPath" style="stroke-width: 2; stroke-dasharray: 1, 0;"></path></marker><marker id="gd396f58a-a6e7-4efa-9505-8ffae75a32fc-dark_flowchart-v2-crossEnd-margin" class="marker cross flowchart-v2" viewBox="0 0 15 15" refX="17.7" refY="7.5" markerUnits="userSpaceOnUse" markerWidth="12" markerHeight="12" orient="auto"><path d="M 1,1 L 14,14 M 1,14 L 14,1" class="arrowMarkerPath" style="stroke-width: 2.5;"></path></marker><marker id="gd396f58a-a6e7-4efa-9505-8ffae75a32fc-dark_flowchart-v2-crossStart-margin" class="marker cross flowchart-v2" viewBox="0 0 15 15" refX="-3.5" refY="7.5" markerUnits="userSpaceOnUse" markerWidth="12" markerHeight="12" orient="auto"><path d="M 1,1 L 14,14 M 1,14 L 14,1" class="arrowMarkerPath" style="stroke-width: 2.5; stroke-dasharray: 1, 0;"></path></marker><g class="root"><g class="clusters"></g><g class="edgePaths"><path d="M327.02,42.5L326.936,46.583C326.853,50.667,326.686,58.833,326.603,66.417C326.52,74,326.52,81,326.52,84.5L326.52,88" id="gd396f58a-a6e7-4efa-9505-8ffae75a32fc-dark-L_start_ig_0" class="edge-thickness-normal edge-pattern-solid edge-thickness-normal edge-pattern-solid flowchart-link" style=";" data-edge="true" data-et="edge" data-id="L_start_ig_0" data-points="W3sieCI6MzI3LjAxOTUzMTI1LCJ5Ijo0Mi41fSx7IngiOjMyNi41MTk1MzEyNSwieSI6Njd9LHsieCI6MzI2LjUxOTUzMTI1LCJ5Ijo5Mn1d" data-look="classic" marker-end="url(#gd396f58a-a6e7-4efa-9505-8ffae75a32fc-dark_flowchart-v2-pointEnd)"></path><path d="M256.645,148.378L228.627,157.632C200.609,166.886,144.574,185.393,122.45,201.685C100.326,217.978,112.112,232.055,118.005,239.094L123.899,246.133" id="gd396f58a-a6e7-4efa-9505-8ffae75a32fc-dark-L_ig_sp_0" class="edge-thickness-normal edge-pattern-solid edge-thickness-normal edge-pattern-solid flowchart-link" style=";" data-edge="true" data-et="edge" data-id="L_ig_sp_0" data-points="W3sieCI6MjU2LjY0NDUzMTI1LCJ5IjoxNDguMzc4MjU4MjMxMjg0MDR9LHsieCI6ODguNTM5MDYyNSwieSI6MjAzLjg5OTk5NzcxMTE4MTY0fSx7IngiOjEyNi40NjY1NTU4ODIyMTM0MSwieSI6MjQ5LjE5OTk5Njk0ODI0MjJ9XQ==" data-look="classic" marker-end="url(#gd396f58a-a6e7-4efa-9505-8ffae75a32fc-dark_flowchart-v2-pointEnd)"></path><path d="M161.715,333.4L161.715,340.95C161.715,348.5,161.715,363.6,169.148,378.24C176.581,392.88,191.446,407.059,198.879,414.149L206.312,421.239" id="gd396f58a-a6e7-4efa-9505-8ffae75a32fc-dark-L_sp_mg_0" class="edge-thickness-normal edge-pattern-solid edge-thickness-normal edge-pattern-solid flowchart-link" style=";" data-edge="true" data-et="edge" data-id="L_sp_mg_0" data-points="W3sieCI6MTYxLjcxNDg0Mzc1LCJ5IjozMzMuMzk5OTkzODk2NDg0NH0seyJ4IjoxNjEuNzE0ODQzNzUsInkiOjM3OC42OTk5OTMxMzM1NDQ5fSx7IngiOjIwOS4yMDY3MTQzNjY5MTAyNiwieSI6NDIzLjk5OTk5MjM3MDYwNTQ3fV0=" data-look="classic" marker-end="url(#gd396f58a-a6e7-4efa-9505-8ffae75a32fc-dark_flowchart-v2-pointEnd)"></path><path d="M253.344,508.2L253.344,515.75C253.344,523.3,253.344,538.4,258.604,552.967C263.864,567.533,274.385,581.566,279.645,588.583L284.906,595.6" id="gd396f58a-a6e7-4efa-9505-8ffae75a32fc-dark-L_mg_tf_0" class="edge-thickness-normal edge-pattern-solid edge-thickness-normal edge-pattern-solid flowchart-link" style=";" data-edge="true" data-et="edge" data-id="L_mg_tf_0" data-points="W3sieCI6MjUzLjM0Mzc1LCJ5Ijo1MDguMTk5OTg5MzE4ODQ3NjZ9LHsieCI6MjUzLjM0Mzc1LCJ5Ijo1NTMuNDk5OTg4NTU1OTA4Mn0seyJ4IjoyODcuMzA0OTgyNzk3Mzc2MTcsInkiOjU5OC43OTk5ODc3OTI5Njg4fV0=" data-look="classic" marker-end="url(#gd396f58a-a6e7-4efa-9505-8ffae75a32fc-dark_flowchart-v2-pointEnd)"></path><path d="M390.703,598.8L403.586,591.25C416.469,583.7,442.234,568.6,455.117,546.483C468,524.367,468,495.233,468,466.1C468,436.967,468,407.833,468,378.7C468,349.567,468,320.433,468,291.3C468,262.167,468,233.033,454.993,211.24C441.985,189.448,415.971,174.995,402.964,167.769L389.956,160.543" id="gd396f58a-a6e7-4efa-9505-8ffae75a32fc-dark-L_tf_ig_0" class="edge-thickness-normal edge-pattern-dotted edge-thickness-normal edge-pattern-solid flowchart-link" style=";" data-edge="true" data-et="edge" data-id="L_tf_ig_0" data-points="W3sieCI6MzkwLjcwMzQ3Mjg5MDI5Mjg2LCJ5Ijo1OTguNzk5OTg3NzkyOTY4OH0seyJ4Ijo0NjgsInkiOjU1My40OTk5ODg1NTU5MDgyfSx7IngiOjQ2OCwieSI6NDY2LjA5OTk5MDg0NDcyNjU2fSx7IngiOjQ2OCwieSI6Mzc4LjY5OTk5MzEzMzU0NDl9LHsieCI6NDY4LCJ5IjoyOTEuMjk5OTk1NDIyMzYzM30seyJ4Ijo0NjgsInkiOjIwMy44OTk5OTc3MTExODE2NH0seyJ4IjozODYuNDU5NzI5NjMyODkzOCwieSI6MTU4LjU5OTk5ODQ3NDEyMTF9XQ==" data-look="classic" marker-end="url(#gd396f58a-a6e7-4efa-9505-8ffae75a32fc-dark_flowchart-v2-pointEnd)"></path><path d="M304.443,424L313.607,416.45C322.77,408.9,341.098,393.8,350.262,371.683C359.426,349.567,359.426,320.433,359.426,291.3C359.426,262.167,359.426,233.033,356.522,211.532C353.619,190.03,347.812,176.16,344.909,169.225L342.005,162.29" id="gd396f58a-a6e7-4efa-9505-8ffae75a32fc-dark-L_mg_ig_0" class="edge-thickness-normal edge-pattern-dotted edge-thickness-normal edge-pattern-solid flowchart-link" style=";" data-edge="true" data-et="edge" data-id="L_mg_ig_0" data-points="W3sieCI6MzA0LjQ0Mjc1OTk2MjM5MTUsInkiOjQyMy45OTk5OTIzNzA2MDU0N30seyJ4IjozNTkuNDI1NzgxMjUsInkiOjM3OC42OTk5OTMxMzM1NDQ5fSx7IngiOjM1OS40MjU3ODEyNSwieSI6MjkxLjI5OTk5NTQyMjM2MzN9LHsieCI6MzU5LjQyNTc4MTI1LCJ5IjoyMDMuODk5OTk3NzExMTgxNjR9LHsieCI6MzQwLjQ2MDcyODcyMDMxOTM3LCJ5IjoxNTguNTk5OTk4NDc0MTIxMX1d" data-look="classic" marker-end="url(#gd396f58a-a6e7-4efa-9505-8ffae75a32fc-dark_flowchart-v2-pointEnd)"></path><path d="M196.963,249.2L203.284,241.65C209.606,234.1,222.248,219,236.865,204.334C251.482,189.668,268.073,175.436,276.368,168.32L284.664,161.204" id="gd396f58a-a6e7-4efa-9505-8ffae75a32fc-dark-L_sp_ig_0" class="edge-thickness-normal edge-pattern-dotted edge-thickness-normal edge-pattern-solid flowchart-link" style=";" data-edge="true" data-et="edge" data-id="L_sp_ig_0" data-points="W3sieCI6MTk2Ljk2MzEzMTYxNzc4NjYsInkiOjI0OS4xOTk5OTY5NDgyNDIyfSx7IngiOjIzNC44OTA2MjUsInkiOjIwMy44OTk5OTc3MTExODE2NH0seyJ4IjoyODcuNjk5NjUxMjU2OTcwMzYsInkiOjE1OC41OTk5OTg0NzQxMjExfV0=" data-look="classic" marker-end="url(#gd396f58a-a6e7-4efa-9505-8ffae75a32fc-dark_flowchart-v2-pointEnd)"></path></g><g class="edgeLabels"><g class="edgeLabel"><g class="label" data-id="L_start_ig_0" transform="translate(0, 0)"><text y="-10.1" text-anchor="middle"><tspan class="text-outer-tspan row" x="0" y="-0.1em" dy="1.1em" text-anchor="middle"></tspan></text></g></g><g><rect class="background" style="stroke: none"></rect></g><g class="edgeLabel" transform="translate(144.54154, 185.40354)"><g class="label" data-id="L_ig_sp_0" transform="translate(0, -19.299999237060547)"><g><rect class="background" style="" x="-80.5390625" y="-1" width="161.078125" height="40.599998474121094"></rect><text y="-10.1" text-anchor="middle" style=""><tspan class="text-outer-tspan row" x="0" y="-0.1em" dy="1.1em" text-anchor="middle"><tspan font-style="normal" class="text-inner-tspan" font-weight="normal">~8</tspan><tspan font-style="normal" class="text-inner-tspan" font-weight="normal"> invocations</tspan></tspan><tspan class="text-outer-tspan row" x="0" y="1em" dy="1.1em" text-anchor="middle"><tspan font-style="normal" class="text-inner-tspan" font-weight="normal">(no</tspan><tspan font-style="normal" class="text-inner-tspan" font-weight="normal"> feedback</tspan><tspan font-style="normal" class="text-inner-tspan" font-weight="normal"> needed)</tspan></tspan></text></g></g></g><g class="edgeLabel" transform="translate(161.71484375, 378.6999931335449)"><g class="label" data-id="L_sp_mg_0" transform="translate(0, -19.299999237060547)"><g><rect class="background" style="" x="-65.609375" y="-1" width="131.21875" height="40.599998474121094"></rect><text y="-10.1" text-anchor="middle" style=""><tspan class="text-outer-tspan row" x="0" y="-0.1em" dy="1.1em" text-anchor="middle"><tspan font-style="normal" class="text-inner-tspan" font-weight="normal">~500</tspan><tspan font-style="normal" class="text-inner-tspan" font-weight="normal"> invocations</tspan></tspan><tspan class="text-outer-tspan row" x="0" y="1em" dy="1.1em" text-anchor="middle"><tspan font-style="normal" class="text-inner-tspan" font-weight="normal">+</tspan><tspan font-style="normal" class="text-inner-tspan" font-weight="normal"> stable</tspan><tspan font-style="normal" class="text-inner-tspan" font-weight="normal"> feedback</tspan></tspan></text></g></g></g><g class="edgeLabel" transform="translate(253.34375, 553.4999885559082)"><g class="label" data-id="L_mg_tf_0" transform="translate(0, -19.299999237060547)"><g><rect class="background" style="" x="-65.7734375" y="-1" width="131.546875" height="40.599998474121094"></rect><text y="-10.1" text-anchor="middle" style=""><tspan class="text-outer-tspan row" x="0" y="-0.1em" dy="1.1em" text-anchor="middle"><tspan font-style="normal" class="text-inner-tspan" font-weight="normal">~6000</tspan><tspan font-style="normal" class="text-inner-tspan" font-weight="normal"> invocations</tspan></tspan><tspan class="text-outer-tspan row" x="0" y="1em" dy="1.1em" text-anchor="middle"><tspan font-style="normal" class="text-inner-tspan" font-weight="normal">+</tspan><tspan font-style="normal" class="text-inner-tspan" font-weight="normal"> stable</tspan><tspan font-style="normal" class="text-inner-tspan" font-weight="normal"> feedback</tspan></tspan></text></g></g></g><g class="edgeLabel" transform="translate(468, 378.6999931335449)"><g class="label" data-id="L_tf_ig_0" transform="translate(0, -19.299999237060547)"><g><rect class="background" style="" x="-66.1015625" y="-1" width="132.203125" height="40.599998474121094"></rect><text y="-10.1" text-anchor="middle" style=""><tspan class="text-outer-tspan row" x="0" y="-0.1em" dy="1.1em" text-anchor="middle"><tspan font-style="normal" class="text-inner-tspan" font-weight="normal">deopt</tspan></tspan><tspan class="text-outer-tspan row" x="0" y="1em" dy="1.1em" text-anchor="middle"><tspan font-style="normal" class="text-inner-tspan" font-weight="normal">speculation</tspan><tspan font-style="normal" class="text-inner-tspan" font-weight="normal"> failed</tspan></tspan></text></g></g></g><g class="edgeLabel" transform="translate(359.42578125, 291.2999954223633)"><g class="label" data-id="L_mg_ig_0" transform="translate(0, -10.5)"><g><rect class="background" style="" x="-22.7421875" y="-1" width="45.484375" height="23"></rect><text y="-10.1" text-anchor="middle" style=""><tspan class="text-outer-tspan row" x="0" y="-0.1em" dy="1.1em" text-anchor="middle"><tspan font-style="normal" class="text-inner-tspan" font-weight="normal">deopt</tspan></tspan></text></g></g></g><g class="edgeLabel" transform="translate(234.890625, 203.89999771118164)"><g class="label" data-id="L_sp_ig_0" transform="translate(0, -10.5)"><g><rect class="background" style="" x="-45.8125" y="-1" width="91.625" height="23"></rect><text y="-10.1" text-anchor="middle" style=""><tspan class="text-outer-tspan row" x="0" y="-0.1em" dy="1.1em" text-anchor="middle"><tspan font-style="normal" class="text-inner-tspan" font-weight="normal">deopt</tspan><tspan font-style="normal" class="text-inner-tspan" font-weight="normal"> (rare)</tspan></tspan></text></g></g></g></g><g class="nodes"><g class="node default entry" id="gd396f58a-a6e7-4efa-9505-8ffae75a32fc-dark-flowchart-start-0" data-look="classic" transform="translate(326.51953125, 25)"><g class="basic label-container outer-path"><path d="M-55.4375 -17 C-30.39006487815158 -17, -5.342629756303161 -17, 55.4375 -17 C55.4375 -17, 55.4375 -17, 55.4375 -17 C55.69141508370511 -16.991857437481304, 55.94533016741022 -16.98371487496261, 56.52669373967212 -16.965071676755716 C56.81434696779357 -16.937322115792462, 57.10200019591501 -16.909572554829207, 57.6114117486366 -16.860430234995185 C58.03575666762604 -16.791825439336968, 58.46010158661548 -16.723220643678754, 58.687196687923326 -16.686505668848113 C59.101945846467686 -16.591841879901555, 59.516695005012046 -16.497178090955, 59.74962792646162 -16.4440126716635 C60.032063204271125 -16.360187363742668, 60.31449848208062 -16.27636205582183, 60.79433970640155 -16.133947699181366 C61.04828817116656 -16.040492316673966, 61.30223663593157 -15.947036934166569, 61.81703908294936 -15.757584874882369 C62.15680763812773 -15.60717941438099, 62.496576193306105 -15.456773953879612, 62.81352356499849 -15.316470754341125 C63.18884210054049 -15.120667314751858, 63.5641606360825 -14.92486387516259, 63.77969838406694 -14.812417970097622 C64.08275769347902 -14.628701635757826, 64.38581700289112 -14.444985301418031, 64.71159332057933 -14.247497783161291 C64.9362857091729 -14.090762099655144, 65.16097809776649 -13.934026416148996, 65.60537901835067 -13.624031571755262 C65.88005957343192 -13.40498113863452, 66.15474012851317 -13.18593070551378, 66.4573827202324 -12.944581292275288 C66.75584956033967 -12.67352160508971, 67.05431640044695 -12.402461917904132, 67.26410336025927 -12.21193895166137 C67.42754337283833 -12.043173719998908, 67.59098338541739 -11.874408488336446, 68.02222595028036 -11.42911513444239 C68.28560108775237 -11.11973971149789, 68.5489762252244 -10.810364288553393, 68.72863520195651 -10.59932663159847 C68.86892191095265 -10.411355221925753, 69.00920861994878 -10.223383812253033, 69.38042832814824 -9.725983222076888 C69.55945465582722 -9.45095070746181, 69.73848098350621 -9.175918192846733, 69.97492697109088 -8.812673661278927 C70.13918657847529 -8.521014095279044, 70.30344618585968 -8.229354529279162, 70.509688208341 -7.863150934094199 C70.63202697546762 -7.609111866525497, 70.75436574259423 -7.355072798956794, 70.98251459126881 -6.881316833080699 C71.09881654462585 -6.594048759743519, 71.21511849798289 -6.306780686406339, 71.39146317484592 -5.871205925162238 C71.47720487665131 -5.612965580409383, 71.5629465784567 -5.354725235656527, 71.73485350162323 -4.836968972727556 C71.81267825713859 -4.5401894504851095, 71.89050301265394 -4.243409928242662, 72.011274507091 -3.7828558772573464 C72.05353398313922 -3.5658623992932035, 72.09579345918742 -3.34886892132906, 72.21959031804565 -2.713198215567453 C72.27497330482542 -2.2836587067113205, 72.33035629160518 -1.8541191978551879, 72.35894492013637 -1.632391440430593 C72.38664993003486 -1.2008635481800467, 72.41435493993336 -0.7693356559295004, 72.4287656754117 -0.5448768187181379 C72.4287656754117 -0.18841206417987583, 72.4287656754117 0.16805269035838621, 72.4287656754117 0.5448768187181336 C72.4030097879821 0.9460455552121882, 72.3772539005525 1.3472142917062429, 72.35894492013637 1.6323914404305815 C72.30813871145529 2.0264343621402996, 72.25733250277422 2.4204772838500177, 72.21959031804565 2.7131982155674415 C72.14736030516852 3.0840840658728843, 72.07513029229139 3.4549699161783276, 72.011274507091 3.782855877257343 C71.94588471906697 4.032215479106401, 71.88049493104293 4.281575080955459, 71.73485350162323 4.836968972727545 C71.62590342296373 5.165109250812321, 71.51695334430421 5.493249528897097, 71.39146317484592 5.871205925162227 C71.27415000603854 6.160971720212298, 71.15683683723115 6.450737515262368, 70.98251459126881 6.881316833080694 C70.86308086726557 7.129323516445747, 70.74364714326232 7.3773301998108, 70.509688208341 7.863150934094196 C70.32231615314997 8.195848991563883, 70.13494409795892 8.52854704903357, 69.97492697109088 8.812673661278923 C69.79441802821928 9.089983870967782, 69.61390908534769 9.36729408065664, 69.38042832814826 9.725983222076879 C69.17501532316253 10.001217935248022, 68.96960231817681 10.276452648419163, 68.72863520195651 10.599326631598467 C68.56711150212563 10.789061560378713, 68.40558780229475 10.978796489158958, 68.02222595028037 11.42911513444238 C67.74899794614923 11.711245481144108, 67.47576994201809 11.993375827845835, 67.26410336025927 12.211938951661365 C67.03159189606173 12.423099711529344, 66.79908043186418 12.634260471397324, 66.45738272023242 12.944581292275275 C66.15228941942189 13.187885080797964, 65.84719611861136 13.431188869320652, 65.60537901835067 13.62403157175526 C65.27432489922637 13.854960594154536, 64.94327078010207 14.085889616553809, 64.71159332057934 14.247497783161286 C64.49197171168329 14.380633693113902, 64.27235010278724 14.513769603066518, 63.77969838406695 14.81241797009762 C63.58192542957556 14.915595993776153, 63.38415247508418 15.018774017454684, 62.81352356499849 15.316470754341124 C62.592468189390374 15.414325411748104, 62.37141281378226 15.512180069155084, 61.817039082949364 15.757584874882367 C61.46713089426353 15.886354322834592, 61.117222705577696 16.01512377078682, 60.79433970640156 16.133947699181363 C60.50608289799708 16.21950080682495, 60.2178260895926 16.305053914468537, 59.74962792646164 16.444012671663497 C59.48401528077955 16.504637024755937, 59.21840263509747 16.565261377848376, 58.68719668792333 16.68650566884811 C58.44095817426995 16.726315602127393, 58.19471966061658 16.76612553540668, 57.61141174863661 16.86043023499518 C57.278740655710585 16.89252261523423, 56.94606956278456 16.924614995473277, 56.52669373967212 16.965071676755716 C56.24185852735695 16.974205787616558, 55.95702331504179 16.983339898477396, 55.4375 17 C55.4375 17, 55.4375 17, 55.4375 17 C31.824814230988483 17, 8.212128461976967 17, -55.4375 17 C-55.65928395749627 16.99288782015938, -55.88106791499255 16.98577564031876, -56.52669373967211 16.965071676755716 C-56.808801171811915 16.937857112061014, -57.09090860395172 16.910642547366315, -57.611411748636606 16.86043023499518 C-57.97595843377052 16.801493154044497, -58.34050511890444 16.74255607309381, -58.687196687923326 16.68650566884811 C-58.98836584904549 16.61776577313442, -59.28953501016767 16.54902587742073, -59.74962792646162 16.4440126716635 C-60.06245051382744 16.351168569772593, -60.37527310119327 16.258324467881685, -60.794339706401544 16.13394769918137 C-61.111558398998795 16.01720828796813, -61.42877709159605 15.900468876754893, -61.817039082949364 15.757584874882369 C-62.09444959445149 15.634783470530822, -62.371860105953616 15.511982066179275, -62.81352356499848 15.316470754341127 C-63.084496247482434 15.175104479455536, -63.355468929966385 15.033738204569945, -63.77969838406693 14.812417970097624 C-64.12957653338002 14.600319779871798, -64.47945468269312 14.38822158964597, -64.71159332057931 14.247497783161299 C-64.99367387903867 14.050730596650624, -65.27575443749802 13.853963410139947, -65.60537901835067 13.624031571755264 C-65.90388338402039 13.385982283668442, -66.2023877496901 13.14793299558162, -66.4573827202324 12.94458129227529 C-66.74083867804538 12.687154091223203, -67.02429463585837 12.429726890171116, -67.26410336025926 12.211938951661377 C-67.55418353138819 11.91240735894578, -67.84426370251714 11.612875766230182, -68.02222595028036 11.429115134442386 C-68.20339170029763 11.216307535848902, -68.38455745031489 11.003499937255416, -68.72863520195651 10.599326631598473 C-68.87358449976968 10.405107777681515, -69.01853379758283 10.210888923764559, -69.38042832814824 9.72598322207689 C-69.5116467543338 9.524396482374783, -69.64286518051937 9.322809742672678, -69.97492697109088 8.812673661278936 C-70.1354719909755 8.52760972152768, -70.29601701086013 8.242545781776426, -70.509688208341 7.863150934094201 C-70.68890735979288 7.490998531428848, -70.86812651124475 7.1188461287634945, -70.98251459126881 6.881316833080701 C-71.10333550174937 6.582886848280334, -71.22415641222992 6.284456863479968, -71.39146317484592 5.87120592516224 C-71.52055331223409 5.482406999069356, -71.64964344962223 5.0936080729764734, -71.73485350162323 4.8369689727275516 C-71.81341300909712 4.5373875228237335, -71.89197251657099 4.2378060729199145, -72.011274507091 3.782855877257349 C-72.06713145711572 3.4960422442510106, -72.12298840714043 3.209228611244672, -72.21959031804565 2.713198215567455 C-72.2476707599369 2.495411853369359, -72.27575120182814 2.2776254911712623, -72.35894492013637 1.6323914404306026 C-72.38637418149527 1.2051585542644236, -72.41380344285417 0.7779256680982447, -72.4287656754117 0.54487681871814 C-72.4287656754117 0.11927886431937601, -72.4287656754117 -0.30631909007938796, -72.4287656754117 -0.5448768187181317 C-72.4096273408528 -0.8429718276586216, -72.39048900629389 -1.1410668365991117, -72.35894492013637 -1.6323914404305793 C-72.32652477964702 -1.8838356479850984, -72.29410463915767 -2.1352798555396175, -72.21959031804565 -2.713198215567447 C-72.16843765451648 -2.9758563316704203, -72.11728499098733 -3.238514447773394, -72.011274507091 -3.782855877257341 C-71.95321156276812 -4.004275048599766, -71.89514861844523 -4.22569421994219, -71.73485350162323 -4.836968972727544 C-71.66338933656634 -5.052207651610507, -71.59192517150944 -5.26744633049347, -71.39146317484594 -5.871205925162218 C-71.27294787005653 -6.1639410193296005, -71.15443256526711 -6.456676113496983, -70.98251459126881 -6.881316833080692 C-70.81237525861835 -7.234614797727932, -70.64223592596787 -7.587912762375172, -70.509688208341 -7.863150934094194 C-70.32050456020184 -8.199065658286953, -70.13132091206268 -8.534980382479711, -69.97492697109088 -8.812673661278929 C-69.78000413282008 -9.112127484973811, -69.5850812945493 -9.411581308668696, -69.38042832814826 -9.725983222076884 C-69.18579464029169 -9.98677463231095, -68.99116095243511 -10.247566042545017, -68.72863520195651 -10.599326631598467 C-68.5595528301948 -10.797940406529277, -68.39047045843309 -10.996554181460086, -68.02222595028037 -11.42911513444238 C-67.78995479922057 -11.668954167727783, -67.55768364816075 -11.908793201013186, -67.26410336025927 -12.21193895166136 C-66.98667259806015 -12.463894229474873, -66.70924183586104 -12.715849507288388, -66.45738272023242 -12.944581292275274 C-66.14326533276503 -13.195081549765778, -65.82914794529765 -13.44558180725628, -65.60537901835067 -13.624031571755259 C-65.32016194617835 -13.822986654454624, -65.034944874006 -14.021941737153988, -64.71159332057934 -14.247497783161284 C-64.43095802122184 -14.417620550827875, -64.15032272186436 -14.587743318494464, -63.77969838406695 -14.812417970097618 C-63.42367971797234 -14.998152680158334, -63.067661051877735 -15.183887390219052, -62.81352356499849 -15.316470754341124 C-62.44831044048959 -15.478139770898794, -62.083097315980694 -15.639808787456467, -61.81703908294937 -15.757584874882365 C-61.52222396508191 -15.866079563498666, -61.227408847214456 -15.974574252114966, -60.794339706401566 -16.133947699181363 C-60.48645861415131 -16.225325191260406, -60.178577521901055 -16.31670268333945, -59.74962792646164 -16.444012671663494 C-59.334848185435355 -16.53868344086198, -58.92006844440907 -16.633354210060467, -58.68719668792333 -16.68650566884811 C-58.29740361922008 -16.74952438930566, -57.907610550516814 -16.812543109763205, -57.61141174863661 -16.86043023499518 C-57.18857580936292 -16.901220709522295, -56.76573987008923 -16.942011184049413, -56.52669373967212 -16.965071676755716 C-56.138177387911355 -16.977530639955482, -55.749661036150584 -16.989989603155248, -55.43750000000001 -17 C-55.43750000000001 -17, -55.43750000000001 -17, -55.4375 -17" stroke="none" stroke-width="0" fill="#5A5A5A" style="fill:#5A5A5A !important;stroke:#3D3D3D !important"></path><path d="M-55.4375 -17 C-20.721934083116786 -17, 13.993631833766429 -17, 55.4375 -17 M-55.4375 -17 C-25.711094927147126 -17, 4.015310145705747 -17, 55.4375 -17 M55.4375 -17 C55.4375 -17, 55.4375 -17, 55.4375 -17 M55.4375 -17 C55.4375 -17, 55.4375 -17, 55.4375 -17 M55.4375 -17 C55.71093156998677 -16.99123158175279, 55.98436313997354 -16.982463163505578, 56.52669373967212 -16.965071676755716 M55.4375 -17 C55.79830514699022 -16.98842968120064, 56.159110293980426 -16.976859362401278, 56.52669373967212 -16.965071676755716 M56.52669373967212 -16.965071676755716 C56.894916481481644 -16.929549671705992, 57.26313922329117 -16.894027666656264, 57.6114117486366 -16.860430234995185 M56.52669373967212 -16.965071676755716 C56.9605543155396 -16.923217668795466, 57.39441489140708 -16.881363660835213, 57.6114117486366 -16.860430234995185 M57.6114117486366 -16.860430234995185 C57.98952498214199 -16.799299819713955, 58.36763821564738 -16.738169404432725, 58.687196687923326 -16.686505668848113 M57.6114117486366 -16.860430234995185 C58.00994062059428 -16.79599917761463, 58.40846949255195 -16.731568120234073, 58.687196687923326 -16.686505668848113 M58.687196687923326 -16.686505668848113 C58.92204833241818 -16.632902313542367, 59.156899976913024 -16.579298958236624, 59.74962792646162 -16.4440126716635 M58.687196687923326 -16.686505668848113 C58.984200380087074 -16.618716514241957, 59.28120407225082 -16.5509273596358, 59.74962792646162 -16.4440126716635 M59.74962792646162 -16.4440126716635 C59.9724005223174 -16.377894934570723, 60.19517311817319 -16.311777197477944, 60.79433970640155 -16.133947699181366 M59.74962792646162 -16.4440126716635 C60.06254288626477 -16.351141154118068, 60.375457846067924 -16.25826963657263, 60.79433970640155 -16.133947699181366 M60.79433970640155 -16.133947699181366 C61.08863306893094 -16.02564502135253, 61.38292643146032 -15.917342343523696, 61.81703908294936 -15.757584874882369 M60.79433970640155 -16.133947699181366 C61.003672270671835 -16.05691138048089, 61.21300483494211 -15.979875061780415, 61.81703908294936 -15.757584874882369 M61.81703908294936 -15.757584874882369 C62.1079717856988 -15.628797597587186, 62.39890448844825 -15.500010320292002, 62.81352356499849 -15.316470754341125 M61.81703908294936 -15.757584874882369 C62.12247990197189 -15.622375284881066, 62.427920720994436 -15.487165694879762, 62.81352356499849 -15.316470754341125 M62.81352356499849 -15.316470754341125 C63.0483779109167 -15.193947392506985, 63.28323225683491 -15.071424030672842, 63.77969838406694 -14.812417970097622 M62.81352356499849 -15.316470754341125 C63.158054087607894 -15.136729401378133, 63.50258461021729 -14.95698804841514, 63.77969838406694 -14.812417970097622 M63.77969838406694 -14.812417970097622 C64.01921118999323 -14.667223899611624, 64.25872399591952 -14.522029829125625, 64.71159332057933 -14.247497783161291 M63.77969838406694 -14.812417970097622 C63.98793969156466 -14.686180865730742, 64.19618099906239 -14.559943761363863, 64.71159332057933 -14.247497783161291 M64.71159332057933 -14.247497783161291 C65.03553275511875 -14.021531656738702, 65.35947218965816 -13.795565530316113, 65.60537901835067 -13.624031571755262 M64.71159332057933 -14.247497783161291 C64.94787412833146 -14.08267852010472, 65.18415493608359 -13.917859257048148, 65.60537901835067 -13.624031571755262 M65.60537901835067 -13.624031571755262 C65.80671656982439 -13.463470232272229, 66.00805412129812 -13.302908892789196, 66.4573827202324 -12.944581292275288 M65.60537901835067 -13.624031571755262 C65.9458571546833 -13.352509318533722, 66.28633529101592 -13.080987065312181, 66.4573827202324 -12.944581292275288 M66.4573827202324 -12.944581292275288 C66.6339058666312 -12.784267641262414, 66.81042901303 -12.62395399024954, 67.26410336025927 -12.21193895166137 M66.4573827202324 -12.944581292275288 C66.7162198755027 -12.70951223631464, 66.97505703077302 -12.474443180353994, 67.26410336025927 -12.21193895166137 M67.26410336025927 -12.21193895166137 C67.54329258742537 -11.923653152750525, 67.82248181459148 -11.63536735383968, 68.02222595028036 -11.42911513444239 M67.26410336025927 -12.21193895166137 C67.5581819335188 -11.908278680471025, 67.85226050677831 -11.604618409280679, 68.02222595028036 -11.42911513444239 M68.02222595028036 -11.42911513444239 C68.20501537392008 -11.21440027642233, 68.38780479755978 -10.999685418402272, 68.72863520195651 -10.59932663159847 M68.02222595028036 -11.42911513444239 C68.22391673346684 -11.19219766398087, 68.42560751665332 -10.955280193519352, 68.72863520195651 -10.59932663159847 M68.72863520195651 -10.59932663159847 C68.93278389539455 -10.325785980720068, 69.1369325888326 -10.052245329841666, 69.38042832814824 -9.725983222076888 M68.72863520195651 -10.59932663159847 C68.87909949493663 -10.39771818658419, 69.02956378791674 -10.196109741569908, 69.38042832814824 -9.725983222076888 M69.38042832814824 -9.725983222076888 C69.57154954837031 -9.432369704582225, 69.76267076859239 -9.138756187087564, 69.97492697109088 -8.812673661278927 M69.38042832814824 -9.725983222076888 C69.61417589437607 -9.366884190340764, 69.84792346060392 -9.007785158604642, 69.97492697109088 -8.812673661278927 M69.97492697109088 -8.812673661278927 C70.16172882252509 -8.48098805831888, 70.3485306739593 -8.149302455358834, 70.509688208341 -7.863150934094199 M69.97492697109088 -8.812673661278927 C70.09111266972411 -8.60637418827787, 70.20729836835736 -8.400074715276814, 70.509688208341 -7.863150934094199 M70.509688208341 -7.863150934094199 C70.62985602854509 -7.613619884260946, 70.75002384874918 -7.364088834427693, 70.98251459126881 -6.881316833080699 M70.509688208341 -7.863150934094199 C70.66312047812696 -7.5445455429590185, 70.8165527479129 -7.225940151823838, 70.98251459126881 -6.881316833080699 M70.98251459126881 -6.881316833080699 C71.07092593877479 -6.662939095423817, 71.15933728628076 -6.4445613577669345, 71.39146317484592 -5.871205925162238 M70.98251459126881 -6.881316833080699 C71.12710690881018 -6.524171013251245, 71.27169922635154 -6.167025193421791, 71.39146317484592 -5.871205925162238 M71.39146317484592 -5.871205925162238 C71.49742382086977 -5.552069341874677, 71.60338446689362 -5.232932758587117, 71.73485350162323 -4.836968972727556 M71.39146317484592 -5.871205925162238 C71.46054484751107 -5.6631429337646155, 71.52962652017622 -5.455079942366993, 71.73485350162323 -4.836968972727556 M71.73485350162323 -4.836968972727556 C71.8232003286091 -4.500064231673402, 71.91154715559497 -4.163159490619248, 72.011274507091 -3.7828558772573464 M71.73485350162323 -4.836968972727556 C71.84372521520548 -4.421793943539289, 71.95259692878773 -4.006618914351021, 72.011274507091 -3.7828558772573464 M72.011274507091 -3.7828558772573464 C72.05299005931535 -3.5686553331704087, 72.0947056115397 -3.3544547890834715, 72.21959031804565 -2.713198215567453 M72.011274507091 -3.7828558772573464 C72.0577652839124 -3.5441355641086005, 72.1042560607338 -3.305415250959855, 72.21959031804565 -2.713198215567453 M72.21959031804565 -2.713198215567453 C72.27456508423998 -2.2868247849596295, 72.32953985043433 -1.8604513543518058, 72.35894492013637 -1.632391440430593 M72.21959031804565 -2.713198215567453 C72.25463389396597 -2.4414071608662278, 72.28967746988629 -2.1696161061650026, 72.35894492013637 -1.632391440430593 M72.35894492013637 -1.632391440430593 C72.37995170859828 -1.3051937537616984, 72.40095849706022 -0.977996067092804, 72.4287656754117 -0.5448768187181379 M72.35894492013637 -1.632391440430593 C72.37790793817247 -1.3370271278456822, 72.39687095620857 -1.0416628152607714, 72.4287656754117 -0.5448768187181379 M72.4287656754117 -0.5448768187181379 C72.4287656754117 -0.19392316459005504, 72.4287656754117 0.15703048953802778, 72.4287656754117 0.5448768187181336 M72.4287656754117 -0.5448768187181379 C72.4287656754117 -0.31891291689560264, 72.4287656754117 -0.09294901507306741, 72.4287656754117 0.5448768187181336 M72.4287656754117 0.5448768187181336 C72.4054044927405 0.9087460956292452, 72.3820433100693 1.2726153725403568, 72.35894492013637 1.6323914404305815 M72.4287656754117 0.5448768187181336 C72.41467797684118 0.7643040953395849, 72.40059027827066 0.9837313719610361, 72.35894492013637 1.6323914404305815 M72.35894492013637 1.6323914404305815 C72.32232575511095 1.9164024530956723, 72.28570659008552 2.2004134657607635, 72.21959031804565 2.7131982155674415 M72.35894492013637 1.6323914404305815 C72.32125501473168 1.9247069040356655, 72.283565109327 2.217022367640749, 72.21959031804565 2.7131982155674415 M72.21959031804565 2.7131982155674415 C72.14328625510582 3.1050034518940377, 72.066982192166 3.496808688220634, 72.011274507091 3.782855877257343 M72.21959031804565 2.7131982155674415 C72.14085485832872 3.117488160468593, 72.06211939861178 3.5217781053697443, 72.011274507091 3.782855877257343 M72.011274507091 3.782855877257343 C71.92563710076128 4.109428423079262, 71.83999969443155 4.436000968901181, 71.73485350162323 4.836968972727545 M72.011274507091 3.782855877257343 C71.90640960127861 4.18275121185766, 71.80154469546622 4.582646546457978, 71.73485350162323 4.836968972727545 M71.73485350162323 4.836968972727545 C71.65678799164642 5.072089850727803, 71.57872248166962 5.3072107287280605, 71.39146317484592 5.871205925162227 M71.73485350162323 4.836968972727545 C71.61461695943514 5.199102280706657, 71.49438041724706 5.561235588685769, 71.39146317484592 5.871205925162227 M71.39146317484592 5.871205925162227 C71.28997561066168 6.121882170825873, 71.18848804647745 6.372558416489519, 70.98251459126881 6.881316833080694 M71.39146317484592 5.871205925162227 C71.29772140907419 6.102749898992179, 71.20397964330243 6.334293872822131, 70.98251459126881 6.881316833080694 M70.98251459126881 6.881316833080694 C70.87279953672264 7.109142491371928, 70.76308448217647 7.3369681496631625, 70.509688208341 7.863150934094196 M70.98251459126881 6.881316833080694 C70.79526552698074 7.270143521563012, 70.60801646269267 7.6589702100453305, 70.509688208341 7.863150934094196 M70.509688208341 7.863150934094196 C70.34373103893353 8.157824693362853, 70.17777386952604 8.45249845263151, 69.97492697109088 8.812673661278923 M70.509688208341 7.863150934094196 C70.2994085695707 8.236523725853237, 70.0891289308004 8.60989651761228, 69.97492697109088 8.812673661278923 M69.97492697109088 8.812673661278923 C69.77135762722067 9.125410839486369, 69.56778828335045 9.438148017693816, 69.38042832814826 9.725983222076879 M69.97492697109088 8.812673661278923 C69.83810495613548 9.022869018105785, 69.70128294118007 9.233064374932647, 69.38042832814826 9.725983222076879 M69.38042832814826 9.725983222076879 C69.19438418933554 9.975265419116196, 69.00834005052283 10.224547616155514, 68.72863520195651 10.599326631598467 M69.38042832814826 9.725983222076879 C69.16287678447169 10.017482471250123, 68.94532524079513 10.308981720423365, 68.72863520195651 10.599326631598467 M68.72863520195651 10.599326631598467 C68.46157967217484 10.91302525277014, 68.19452414239318 11.226723873941813, 68.02222595028037 11.42911513444238 M68.72863520195651 10.599326631598467 C68.46230669712419 10.912171247895742, 68.19597819229188 11.225015864193018, 68.02222595028037 11.42911513444238 M68.02222595028037 11.42911513444238 C67.80364451213 11.654818415202445, 67.58506307397965 11.88052169596251, 67.26410336025927 12.211938951661365 M68.02222595028037 11.42911513444238 C67.84908288124089 11.607899568535977, 67.67593981220142 11.786684002629574, 67.26410336025927 12.211938951661365 M67.26410336025927 12.211938951661365 C67.0790429828791 12.380005889968759, 66.89398260549895 12.548072828276153, 66.45738272023242 12.944581292275275 M67.26410336025927 12.211938951661365 C67.0339282482643 12.420977898275453, 66.80375313626935 12.630016844889541, 66.45738272023242 12.944581292275275 M66.45738272023242 12.944581292275275 C66.20637358449122 13.144754398395254, 65.95536444875002 13.344927504515232, 65.60537901835067 13.62403157175526 M66.45738272023242 12.944581292275275 C66.1957060407151 13.153261480681453, 65.93402936119776 13.361941669087628, 65.60537901835067 13.62403157175526 M65.60537901835067 13.62403157175526 C65.33500941352374 13.812629703970982, 65.06463980869678 14.001227836186706, 64.71159332057934 14.247497783161286 M65.60537901835067 13.62403157175526 C65.28777448927124 13.845578742362607, 64.9701699601918 14.067125912969953, 64.71159332057934 14.247497783161286 M64.71159332057934 14.247497783161286 C64.4447135409738 14.409281873917843, 64.17783376136823 14.571065964674398, 63.77969838406695 14.81241797009762 M64.71159332057934 14.247497783161286 C64.37565521906153 14.451145434492796, 64.03971711754373 14.654793085824306, 63.77969838406695 14.81241797009762 M63.77969838406695 14.81241797009762 C63.47048212362718 14.97373589510658, 63.1612658631874 15.135053820115541, 62.81352356499849 15.316470754341124 M63.77969838406695 14.81241797009762 C63.54469836781008 14.935017328054135, 63.3096983515532 15.05761668601065, 62.81352356499849 15.316470754341124 M62.81352356499849 15.316470754341124 C62.46477779044958 15.470850163558088, 62.116032015900664 15.625229572775055, 61.817039082949364 15.757584874882367 M62.81352356499849 15.316470754341124 C62.52344457865892 15.444880116706257, 62.23336559231934 15.573289479071388, 61.817039082949364 15.757584874882367 M61.817039082949364 15.757584874882367 C61.50998831917052 15.870582394299129, 61.20293755539167 15.98357991371589, 60.79433970640156 16.133947699181363 M61.817039082949364 15.757584874882367 C61.50974735873125 15.870671069968191, 61.20245563451314 15.983757265054015, 60.79433970640156 16.133947699181363 M60.79433970640156 16.133947699181363 C60.509086905834785 16.218609233067077, 60.22383410526801 16.303270766952792, 59.74962792646164 16.444012671663497 M60.79433970640156 16.133947699181363 C60.427750805137634 16.242749360812088, 60.06116190387371 16.35155102244281, 59.74962792646164 16.444012671663497 M59.74962792646164 16.444012671663497 C59.340596923019866 16.537371329022335, 58.93156591957809 16.630729986381176, 58.68719668792333 16.68650566884811 M59.74962792646164 16.444012671663497 C59.52570883122569 16.495120743942447, 59.30178973598974 16.5462288162214, 58.68719668792333 16.68650566884811 M58.68719668792333 16.68650566884811 C58.413255864930086 16.730794296666847, 58.13931504193684 16.775082924485584, 57.61141174863661 16.86043023499518 M58.68719668792333 16.68650566884811 C58.402655153821506 16.73250813742914, 58.11811361971968 16.77851060601017, 57.61141174863661 16.86043023499518 M57.61141174863661 16.86043023499518 C57.35432661017333 16.88523092911262, 57.09724147171005 16.910031623230058, 56.52669373967212 16.965071676755716 M57.61141174863661 16.86043023499518 C57.37167439840315 16.883557408845856, 57.13193704816969 16.90668458269653, 56.52669373967212 16.965071676755716 M56.52669373967212 16.965071676755716 C56.18362021123034 16.976073377060732, 55.840546682788556 16.98707507736575, 55.4375 17 M56.52669373967212 16.965071676755716 C56.22116073667467 16.97486952547793, 55.91562773367722 16.984667374200146, 55.4375 17 M55.4375 17 C55.4375 17, 55.4375 17, 55.4375 17 M55.4375 17 C55.4375 17, 55.4375 17, 55.4375 17 M55.4375 17 C16.0589603723498 17, -23.319579255300397 17, -55.4375 17 M55.4375 17 C31.264797402942676 17, 7.092094805885353 17, -55.4375 17 M-55.4375 17 C-55.86498816018739 16.986291286758018, -56.29247632037477 16.972582573516032, -56.52669373967211 16.965071676755716 M-55.4375 17 C-55.72055789038816 16.99092288439401, -56.003615780776315 16.981845768788023, -56.52669373967211 16.965071676755716 M-56.52669373967211 16.965071676755716 C-56.866897910928856 16.932252589509957, -57.2071020821856 16.899433502264195, -57.611411748636606 16.86043023499518 M-56.52669373967211 16.965071676755716 C-56.83623592952504 16.935210513979555, -57.145778119377965 16.90534935120339, -57.611411748636606 16.86043023499518 M-57.611411748636606 16.86043023499518 C-57.964789960792594 16.803298786142765, -58.31816817294859 16.74616733729035, -58.687196687923326 16.68650566884811 M-57.611411748636606 16.86043023499518 C-57.88265364153853 16.816577949263092, -58.153895534440466 16.772725663531006, -58.687196687923326 16.68650566884811 M-58.687196687923326 16.68650566884811 C-59.012697643887016 16.61221219974164, -59.3381985998507 16.537918730635177, -59.74962792646162 16.4440126716635 M-58.687196687923326 16.68650566884811 C-59.034409489495594 16.607256612664518, -59.38162229106786 16.528007556480926, -59.74962792646162 16.4440126716635 M-59.74962792646162 16.4440126716635 C-60.15999745775409 16.322217148849525, -60.570366989046555 16.200421626035546, -60.794339706401544 16.13394769918137 M-59.74962792646162 16.4440126716635 C-60.12159696536141 16.33361421342337, -60.493566004261204 16.223215755183244, -60.794339706401544 16.13394769918137 M-60.794339706401544 16.13394769918137 C-61.08735911956994 16.026113846493637, -61.380378532738334 15.918279993805905, -61.817039082949364 15.757584874882369 M-60.794339706401544 16.13394769918137 C-61.09208837677992 16.02437343612359, -61.389837047158295 15.914799173065811, -61.817039082949364 15.757584874882369 M-61.817039082949364 15.757584874882369 C-62.160434822396525 15.605573767501795, -62.50383056184369 15.453562660121221, -62.81352356499848 15.316470754341127 M-61.817039082949364 15.757584874882369 C-62.12085579570938 15.623094228546083, -62.42467250846939 15.488603582209798, -62.81352356499848 15.316470754341127 M-62.81352356499848 15.316470754341127 C-63.08510232820331 15.174788287531667, -63.35668109140814 15.033105820722206, -63.77969838406693 14.812417970097624 M-62.81352356499848 15.316470754341127 C-63.15894791750243 15.136263090894674, -63.504372270006385 14.95605542744822, -63.77969838406693 14.812417970097624 M-63.77969838406693 14.812417970097624 C-64.12999402790248 14.600066692238812, -64.48028967173803 14.387715414379999, -64.71159332057931 14.247497783161299 M-63.77969838406693 14.812417970097624 C-64.15142969457939 14.587072265129311, -64.52316100509185 14.361726560161, -64.71159332057931 14.247497783161299 M-64.71159332057931 14.247497783161299 C-65.06875947661702 13.998354134183094, -65.42592563265474 13.749210485204888, -65.60537901835067 13.624031571755264 M-64.71159332057931 14.247497783161299 C-64.98457209399777 14.057079607885225, -65.25755086741624 13.86666143260915, -65.60537901835067 13.624031571755264 M-65.60537901835067 13.624031571755264 C-65.84725530950836 13.431141666155444, -66.08913160066604 13.238251760555624, -66.4573827202324 12.94458129227529 M-65.60537901835067 13.624031571755264 C-65.84309865122196 13.434456490525521, -66.08081828409324 13.244881409295779, -66.4573827202324 12.94458129227529 M-66.4573827202324 12.94458129227529 C-66.68390253435823 12.738861990472069, -66.91042234848405 12.53314268866885, -67.26410336025926 12.211938951661377 M-66.4573827202324 12.94458129227529 C-66.69606807052624 12.72781357240673, -66.93475342082007 12.511045852538171, -67.26410336025926 12.211938951661377 M-67.26410336025926 12.211938951661377 C-67.55752455644377 11.908957476272638, -67.85094575262829 11.6059760008839, -68.02222595028036 11.429115134442386 M-67.26410336025926 12.211938951661377 C-67.55904545111912 11.907387027652566, -67.85398754197898 11.602835103643754, -68.02222595028036 11.429115134442386 M-68.02222595028036 11.429115134442386 C-68.28371115805275 11.121959730463107, -68.54519636582515 10.81480432648383, -68.72863520195651 10.599326631598473 M-68.02222595028036 11.429115134442386 C-68.18293002618812 11.240342982560168, -68.34363410209588 11.051570830677951, -68.72863520195651 10.599326631598473 M-68.72863520195651 10.599326631598473 C-68.87168085879759 10.407658483158842, -69.01472651563867 10.215990334719214, -69.38042832814824 9.72598322207689 M-68.72863520195651 10.599326631598473 C-68.87403495929308 10.404504202957852, -69.01943471662966 10.20968177431723, -69.38042832814824 9.72598322207689 M-69.38042832814824 9.72598322207689 C-69.4997525352507 9.542669196931438, -69.61907674235319 9.359355171785989, -69.97492697109088 8.812673661278936 M-69.38042832814824 9.72598322207689 C-69.61310461656633 9.368529960734907, -69.84578090498444 9.011076699392925, -69.97492697109088 8.812673661278936 M-69.97492697109088 8.812673661278936 C-70.18087103748853 8.446999117291842, -70.38681510388619 8.081324573304746, -70.509688208341 7.863150934094201 M-69.97492697109088 8.812673661278936 C-70.17506820106422 8.457302640964102, -70.37520943103758 8.10193162064927, -70.509688208341 7.863150934094201 M-70.509688208341 7.863150934094201 C-70.60721026568653 7.66064429537847, -70.70473232303205 7.458137656662738, -70.98251459126881 6.881316833080701 M-70.509688208341 7.863150934094201 C-70.69430751640786 7.479784990672998, -70.87892682447472 7.096419047251795, -70.98251459126881 6.881316833080701 M-70.98251459126881 6.881316833080701 C-71.10456671760718 6.5798457213075885, -71.22661884394556 6.278374609534476, -71.39146317484592 5.87120592516224 M-70.98251459126881 6.881316833080701 C-71.12356023025964 6.532931377841416, -71.26460586925049 6.1845459226021315, -71.39146317484592 5.87120592516224 M-71.39146317484592 5.87120592516224 C-71.49009175721017 5.574152349411708, -71.58872033957441 5.2770987736611765, -71.73485350162323 4.8369689727275516 M-71.39146317484592 5.87120592516224 C-71.46417226700468 5.652217724200678, -71.53688135916344 5.433229523239118, -71.73485350162323 4.8369689727275516 M-71.73485350162323 4.8369689727275516 C-71.81476210031326 4.532242853316763, -71.89467069900327 4.227516733905974, -72.011274507091 3.782855877257349 M-71.73485350162323 4.8369689727275516 C-71.79578453438187 4.604612537142229, -71.85671556714051 4.372256101556906, -72.011274507091 3.782855877257349 M-72.011274507091 3.782855877257349 C-72.08627738313312 3.3977319606445247, -72.16128025917524 3.0126080440317002, -72.21959031804565 2.713198215567455 M-72.011274507091 3.782855877257349 C-72.0592930662879 3.5362907245073494, -72.1073116254848 3.2897255717573497, -72.21959031804565 2.713198215567455 M-72.21959031804565 2.713198215567455 C-72.24956734047024 2.4807023492749676, -72.27954436289482 2.2482064829824795, -72.35894492013637 1.6323914404306026 M-72.21959031804565 2.713198215567455 C-72.25118187391948 2.4681803466683334, -72.28277342979331 2.223162477769211, -72.35894492013637 1.6323914404306026 M-72.35894492013637 1.6323914404306026 C-72.38629763414586 1.20635084101948, -72.41365034815534 0.7803102416083576, -72.4287656754117 0.54487681871814 M-72.35894492013637 1.6323914404306026 C-72.3803543703496 1.2989219719623433, -72.40176382056283 0.965452503494084, -72.4287656754117 0.54487681871814 M-72.4287656754117 0.54487681871814 C-72.4287656754117 0.1765644654468569, -72.4287656754117 -0.1917478878244262, -72.4287656754117 -0.5448768187181317 M-72.4287656754117 0.54487681871814 C-72.4287656754117 0.3189498106628428, -72.4287656754117 0.09302280260754564, -72.4287656754117 -0.5448768187181317 M-72.4287656754117 -0.5448768187181317 C-72.41045947031223 -0.8300107396449787, -72.39215326521278 -1.1151446605718258, -72.35894492013637 -1.6323914404305793 M-72.4287656754117 -0.5448768187181317 C-72.4068453694705 -0.8863032775047436, -72.3849250635293 -1.2277297362913555, -72.35894492013637 -1.6323914404305793 M-72.35894492013637 -1.6323914404305793 C-72.3088501795896 -2.020916355785933, -72.25875543904282 -2.409441271141286, -72.21959031804565 -2.713198215567447 M-72.35894492013637 -1.6323914404305793 C-72.31777483403006 -1.9516984983180712, -72.27660474792374 -2.271005556205563, -72.21959031804565 -2.713198215567447 M-72.21959031804565 -2.713198215567447 C-72.14077653142543 -3.1178903525625383, -72.06196274480523 -3.5225824895576303, -72.011274507091 -3.782855877257341 M-72.21959031804565 -2.713198215567447 C-72.16126447921694 -3.0126890707824785, -72.10293864038823 -3.3121799259975098, -72.011274507091 -3.782855877257341 M-72.011274507091 -3.782855877257341 C-71.935769437839 -4.07078943041924, -71.860264368587 -4.358722983581139, -71.73485350162323 -4.836968972727544 M-72.011274507091 -3.782855877257341 C-71.94885174533238 -4.020900922039058, -71.88642898357375 -4.258945966820775, -71.73485350162323 -4.836968972727544 M-71.73485350162323 -4.836968972727544 C-71.6661186344189 -5.043987441333158, -71.59738376721455 -5.251005909938773, -71.39146317484594 -5.871205925162218 M-71.73485350162323 -4.836968972727544 C-71.64193123297095 -5.116836040755287, -71.54900896431867 -5.396703108783032, -71.39146317484594 -5.871205925162218 M-71.39146317484594 -5.871205925162218 C-71.2704003044108 -6.170233555728387, -71.14933743397565 -6.469261186294558, -70.98251459126881 -6.881316833080692 M-71.39146317484594 -5.871205925162218 C-71.25367638551467 -6.211541958736799, -71.1158895961834 -6.55187799231138, -70.98251459126881 -6.881316833080692 M-70.98251459126881 -6.881316833080692 C-70.84049302958539 -7.1762276446909326, -70.69847146790197 -7.471138456301172, -70.509688208341 -7.863150934094194 M-70.98251459126881 -6.881316833080692 C-70.81481091386259 -7.229557107498574, -70.64710723645636 -7.577797381916457, -70.509688208341 -7.863150934094194 M-70.509688208341 -7.863150934094194 C-70.30808532741572 -8.221117263682395, -70.10648244649045 -8.579083593270596, -69.97492697109088 -8.812673661278929 M-70.509688208341 -7.863150934094194 C-70.39268028138422 -8.070910356743353, -70.27567235442744 -8.27866977939251, -69.97492697109088 -8.812673661278929 M-69.97492697109088 -8.812673661278929 C-69.81258961890315 -9.062067427922054, -69.6502522667154 -9.311461194565178, -69.38042832814826 -9.725983222076884 M-69.97492697109088 -8.812673661278929 C-69.81462846494905 -9.058935212888702, -69.65432995880724 -9.305196764498476, -69.38042832814826 -9.725983222076884 M-69.38042832814826 -9.725983222076884 C-69.19403571733696 -9.975732339847852, -69.00764310652566 -10.225481457618818, -68.72863520195651 -10.599326631598467 M-69.38042832814826 -9.725983222076884 C-69.22257746677343 -9.937488995809849, -69.06472660539859 -10.148994769542815, -68.72863520195651 -10.599326631598467 M-68.72863520195651 -10.599326631598467 C-68.45105801937468 -10.925384584848212, -68.17348083679286 -11.251442538097955, -68.02222595028037 -11.42911513444238 M-68.72863520195651 -10.599326631598467 C-68.49467094732576 -10.874154358030982, -68.260706692695 -11.148982084463494, -68.02222595028037 -11.42911513444238 M-68.02222595028037 -11.42911513444238 C-67.77068703401177 -11.688849717218806, -67.51914811774316 -11.948584299995233, -67.26410336025927 -12.21193895166136 M-68.02222595028037 -11.42911513444238 C-67.83033217057503 -11.627261216760445, -67.63843839086971 -11.82540729907851, -67.26410336025927 -12.21193895166136 M-67.26410336025927 -12.21193895166136 C-67.0734110931793 -12.385120623182486, -66.88271882609932 -12.558302294703614, -66.45738272023242 -12.944581292275274 M-67.26410336025927 -12.21193895166136 C-66.99865347394424 -12.453013514993547, -66.73320358762922 -12.694088078325736, -66.45738272023242 -12.944581292275274 M-66.45738272023242 -12.944581292275274 C-66.11920509046142 -13.214268952732967, -65.78102746069042 -13.48395661319066, -65.60537901835067 -13.624031571755259 M-66.45738272023242 -12.944581292275274 C-66.17981055546745 -13.165937707169816, -65.9022383907025 -13.387294122064356, -65.60537901835067 -13.624031571755259 M-65.60537901835067 -13.624031571755259 C-65.36754119960382 -13.78993693827983, -65.12970338085697 -13.955842304804401, -64.71159332057934 -14.247497783161284 M-65.60537901835067 -13.624031571755259 C-65.4078796749225 -13.761798564121971, -65.21038033149433 -13.899565556488684, -64.71159332057934 -14.247497783161284 M-64.71159332057934 -14.247497783161284 C-64.48534638308399 -14.384650006245552, -64.25909944558863 -14.521802229329818, -63.77969838406695 -14.812417970097618 M-64.71159332057934 -14.247497783161284 C-64.45235040864924 -14.404652359853763, -64.19310749671915 -14.561806936546242, -63.77969838406695 -14.812417970097618 M-63.77969838406695 -14.812417970097618 C-63.46080055647619 -14.978786762487909, -63.14190272888543 -15.145155554878201, -62.81352356499849 -15.316470754341124 M-63.77969838406695 -14.812417970097618 C-63.417735399115415 -15.001253827498475, -63.05577241416388 -15.190089684899332, -62.81352356499849 -15.316470754341124 M-62.81352356499849 -15.316470754341124 C-62.487058787986435 -15.460987026890832, -62.16059401097438 -15.605503299440542, -61.81703908294937 -15.757584874882365 M-62.81352356499849 -15.316470754341124 C-62.52617226022358 -15.443672652991376, -62.23882095544868 -15.570874551641626, -61.81703908294937 -15.757584874882365 M-61.81703908294937 -15.757584874882365 C-61.44116245793874 -15.895910947451712, -61.0652858329281 -16.03423702002106, -60.794339706401566 -16.133947699181363 M-61.81703908294937 -15.757584874882365 C-61.41416251046971 -15.905847177705093, -61.01128593799004 -16.05410948052782, -60.794339706401566 -16.133947699181363 M-60.794339706401566 -16.133947699181363 C-60.43469202091612 -16.24068924440422, -60.07504433543067 -16.347430789627076, -59.74962792646164 -16.444012671663494 M-60.794339706401566 -16.133947699181363 C-60.48920811085911 -16.224509155069935, -60.184076515316654 -16.315070610958504, -59.74962792646164 -16.444012671663494 M-59.74962792646164 -16.444012671663494 C-59.472256814735964 -16.50732081789922, -59.194885703010286 -16.57062896413495, -58.68719668792333 -16.68650566884811 M-59.74962792646164 -16.444012671663494 C-59.36998608839931 -16.530663443806706, -58.990344250336975 -16.617314215949914, -58.68719668792333 -16.68650566884811 M-58.68719668792333 -16.68650566884811 C-58.35993474106176 -16.739414842462388, -58.032672794200174 -16.792324016076666, -57.61141174863661 -16.86043023499518 M-58.68719668792333 -16.68650566884811 C-58.44316673343961 -16.725958539408477, -58.19913677895589 -16.76541140996884, -57.61141174863661 -16.86043023499518 M-57.61141174863661 -16.86043023499518 C-57.21581304640281 -16.89859316602263, -56.820214344168996 -16.936756097050075, -56.52669373967212 -16.965071676755716 M-57.61141174863661 -16.86043023499518 C-57.259175952337124 -16.894409998638668, -56.90694015603764 -16.92838976228216, -56.52669373967212 -16.965071676755716 M-56.52669373967212 -16.965071676755716 C-56.16482784037246 -16.976676011817013, -55.802961941072795 -16.98828034687831, -55.43750000000001 -17 M-56.52669373967212 -16.965071676755716 C-56.11864474448557 -16.97815701381216, -55.710595749299024 -16.99124235086861, -55.43750000000001 -17 M-55.43750000000001 -17 C-55.43750000000001 -17, -55.4375 -17, -55.4375 -17 M-55.43750000000001 -17 C-55.43750000000001 -17, -55.4375 -17, -55.4375 -17" stroke="#3D3D3D" stroke-width="1.3" fill="none" stroke-dasharray="0 0" style="fill:#5A5A5A !important;stroke:#3D3D3D !important"></path></g><g class="label" style="color:#ffffff !important" transform="translate(0, -9.5)"><rect></rect><g><rect class="background" style="stroke: none"></rect><text y="-10.1" style="fill:#404040 !important"><tspan class="text-outer-tspan row" x="0" y="-0.1em" dy="1.1em"><tspan font-style="normal" class="text-inner-tspan" font-weight="normal">Function</tspan><tspan font-style="normal" class="text-inner-tspan" font-weight="normal"> defined</tspan></tspan></text></g></g></g><g class="node default tier" id="gd396f58a-a6e7-4efa-9505-8ffae75a32fc-dark-flowchart-ig-1" data-look="classic" transform="translate(326.51953125, 125.29999923706055)"><rect class="basic label-container" style="fill:#2E5A88 !important;stroke:#1F4870 !important" x="-69.875" y="-33.29999923706055" width="139.75" height="66.5999984741211"></rect><g class="label" style="color:#ffffff !important" transform="translate(0, -18.299999237060547)"><rect></rect><g><rect class="background" style="stroke: none"></rect><text y="-10.1" style="fill:#404040 !important"><tspan class="text-outer-tspan row" x="0" y="-0.1em" dy="1.1em"><tspan font-style="normal" class="text-inner-tspan" font-weight="normal">Ignition</tspan></tspan><tspan class="text-outer-tspan row" x="0" y="1em" dy="1.1em"><tspan font-style="normal" class="text-inner-tspan" font-weight="normal">interpreter</tspan></tspan></text></g></g></g><g class="node default tier" id="gd396f58a-a6e7-4efa-9505-8ffae75a32fc-dark-flowchart-sp-2" data-look="classic" transform="translate(161.71484375, 291.2999954223633)"><rect class="basic label-container" style="fill:#2E5A88 !important;stroke:#1F4870 !important" x="-125.515625" y="-42.099998474121094" width="251.03125" height="84.19999694824219"></rect><g class="label" style="color:#ffffff !important" transform="translate(0, -27.099998474121094)"><rect></rect><g><rect class="background" style="stroke: none"></rect><text y="-10.1" style="fill:#404040 !important"><tspan class="text-outer-tspan row" x="0" y="-0.1em" dy="1.1em"><tspan font-style="normal" class="text-inner-tspan" font-weight="normal">Sparkplug</tspan></tspan><tspan class="text-outer-tspan row" x="0" y="1em" dy="1.1em"><tspan font-style="normal" class="text-inner-tspan" font-weight="normal">baseline</tspan><tspan font-style="normal" class="text-inner-tspan" font-weight="normal"> JIT</tspan></tspan><tspan class="text-outer-tspan row" x="0" y="2.1em" dy="1.1em"><tspan font-style="normal" class="text-inner-tspan" font-weight="normal">bytecode</tspan><tspan font-style="normal" class="text-inner-tspan" font-weight="normal"> →</tspan><tspan font-style="normal" class="text-inner-tspan" font-weight="normal"> machine</tspan><tspan font-style="normal" class="text-inner-tspan" font-weight="normal"> code</tspan></tspan></text></g></g></g><g class="node default hot" id="gd396f58a-a6e7-4efa-9505-8ffae75a32fc-dark-flowchart-mg-3" data-look="classic" transform="translate(253.34375, 466.09999084472656)"><rect class="basic label-container" style="fill:#B43A3A !important;stroke:#8E2828 !important" x="-96.046875" y="-42.099998474121094" width="192.09375" height="84.19999694824219"></rect><g class="label" style="color:#ffffff !important" transform="translate(0, -27.099998474121094)"><rect></rect><g><rect class="background" style="stroke: none"></rect><text y="-10.1" style="fill:#404040 !important"><tspan class="text-outer-tspan row" x="0" y="-0.1em" dy="1.1em"><tspan font-style="normal" class="text-inner-tspan" font-weight="normal">Maglev</tspan></tspan><tspan class="text-outer-tspan row" x="0" y="1em" dy="1.1em"><tspan font-style="normal" class="text-inner-tspan" font-weight="normal">mid-tier</tspan><tspan font-style="normal" class="text-inner-tspan" font-weight="normal"> optimizer</tspan></tspan><tspan class="text-outer-tspan row" x="0" y="2.1em" dy="1.1em"><tspan font-style="normal" class="text-inner-tspan" font-weight="normal">SSA-based</tspan><tspan font-style="normal" class="text-inner-tspan" font-weight="normal"> CFG</tspan></tspan></text></g></g></g><g class="node default hot" id="gd396f58a-a6e7-4efa-9505-8ffae75a32fc-dark-flowchart-tf-4" data-look="classic" transform="translate(318.8671875, 640.8999862670898)"><rect class="basic label-container" style="fill:#B43A3A !important;stroke:#8E2828 !important" x="-107.4921875" y="-42.099998474121094" width="214.984375" height="84.19999694824219"></rect><g class="label" style="color:#ffffff !important" transform="translate(0, -27.099998474121094)"><rect></rect><g><rect class="background" style="stroke: none"></rect><text y="-10.1" style="fill:#404040 !important"><tspan class="text-outer-tspan row" x="0" y="-0.1em" dy="1.1em"><tspan font-style="normal" class="text-inner-tspan" font-weight="normal">TurboFan</tspan></tspan><tspan class="text-outer-tspan row" x="0" y="1em" dy="1.1em"><tspan font-style="normal" class="text-inner-tspan" font-weight="normal">speculative</tspan><tspan font-style="normal" class="text-inner-tspan" font-weight="normal"> optimizer</tspan></tspan><tspan class="text-outer-tspan row" x="0" y="2.1em" dy="1.1em"><tspan font-style="normal" class="text-inner-tspan" font-weight="normal">peak</tspan><tspan font-style="normal" class="text-inner-tspan" font-weight="normal"> throughput</tspan></tspan></text></g></g></g></g></g></g><defs><filter id="gd396f58a-a6e7-4efa-9505-8ffae75a32fc-dark-drop-shadow" height="130%" width="130%"><feDropShadow dx="4" dy="4" stdDeviation="0" flood-opacity="0.06" flood-color="#000000"></feDropShadow></filter></defs><defs><filter id="gd396f58a-a6e7-4efa-9505-8ffae75a32fc-dark-drop-shadow-small" height="150%" width="150%"><feDropShadow dx="2" dy="2" stdDeviation="0" flood-opacity="0.06" flood-color="#000000"></feDropShadow></filter></defs><linearGradient id="gd396f58a-a6e7-4efa-9505-8ffae75a32fc-dark-gradient" gradientUnits="objectBoundingBox" x1="0%" y1="0%" x2="100%" y2="0%"><stop offset="0%" stop-color="#555555" stop-opacity="1"></stop><stop offset="100%" stop-color="#555555" stop-opacity="1"></stop></linearGradient></svg>