<svg id="g422192eb-d3d6-4f36-ae2f-5e45d1c09dd3-light" width="100%" xmlns="http://www.w3.org/2000/svg" xmlns:xlink="http://www.w3.org/1999/xlink" class="flowchart" style="max-width: 856.1038818359375px;" viewBox="0 0 856.1038818359375 1121.4593505859375" role="graphics-document document" aria-roledescription="flowchart-v2"><style>#g422192eb-d3d6-4f36-ae2f-5e45d1c09dd3-light{font-family:"trebuchet ms",verdana,arial,sans-serif;font-size:16px;fill:#333;}@keyframes edge-animation-frame{from{stroke-dashoffset:0;}}@keyframes dash{to{stroke-dashoffset:0;}}#g422192eb-d3d6-4f36-ae2f-5e45d1c09dd3-light .edge-animation-slow{stroke-dasharray:9,5!important;stroke-dashoffset:900;animation:dash 50s linear infinite;stroke-linecap:round;}#g422192eb-d3d6-4f36-ae2f-5e45d1c09dd3-light .edge-animation-fast{stroke-dasharray:9,5!important;stroke-dashoffset:900;animation:dash 20s linear infinite;stroke-linecap:round;}#g422192eb-d3d6-4f36-ae2f-5e45d1c09dd3-light .error-icon{fill:#552222;}#g422192eb-d3d6-4f36-ae2f-5e45d1c09dd3-light .error-text{fill:#552222;stroke:#552222;}#g422192eb-d3d6-4f36-ae2f-5e45d1c09dd3-light .edge-thickness-normal{stroke-width:1px;}#g422192eb-d3d6-4f36-ae2f-5e45d1c09dd3-light .edge-thickness-thick{stroke-width:3.5px;}#g422192eb-d3d6-4f36-ae2f-5e45d1c09dd3-light .edge-pattern-solid{stroke-dasharray:0;}#g422192eb-d3d6-4f36-ae2f-5e45d1c09dd3-light .edge-thickness-invisible{stroke-width:0;fill:none;}#g422192eb-d3d6-4f36-ae2f-5e45d1c09dd3-light .edge-pattern-dashed{stroke-dasharray:3;}#g422192eb-d3d6-4f36-ae2f-5e45d1c09dd3-light .edge-pattern-dotted{stroke-dasharray:2;}#g422192eb-d3d6-4f36-ae2f-5e45d1c09dd3-light .marker{fill:#333333;stroke:#333333;}#g422192eb-d3d6-4f36-ae2f-5e45d1c09dd3-light .marker.cross{stroke:#333333;}#g422192eb-d3d6-4f36-ae2f-5e45d1c09dd3-light svg{font-family:"trebuchet ms",verdana,arial,sans-serif;font-size:16px;}#g422192eb-d3d6-4f36-ae2f-5e45d1c09dd3-light p{margin:0;}#g422192eb-d3d6-4f36-ae2f-5e45d1c09dd3-light .label{font-family:"trebuchet ms",verdana,arial,sans-serif;color:#333;}#g422192eb-d3d6-4f36-ae2f-5e45d1c09dd3-light .cluster-label text{fill:#333;}#g422192eb-d3d6-4f36-ae2f-5e45d1c09dd3-light .cluster-label span{color:#333;}#g422192eb-d3d6-4f36-ae2f-5e45d1c09dd3-light .cluster-label span p{background-color:transparent;}#g422192eb-d3d6-4f36-ae2f-5e45d1c09dd3-light .label text,#g422192eb-d3d6-4f36-ae2f-5e45d1c09dd3-light span{fill:#333;color:#333;}#g422192eb-d3d6-4f36-ae2f-5e45d1c09dd3-light .node rect,#g422192eb-d3d6-4f36-ae2f-5e45d1c09dd3-light .node circle,#g422192eb-d3d6-4f36-ae2f-5e45d1c09dd3-light .node ellipse,#g422192eb-d3d6-4f36-ae2f-5e45d1c09dd3-light .node polygon,#g422192eb-d3d6-4f36-ae2f-5e45d1c09dd3-light .node path{fill:#ECECFF;stroke:#9370DB;stroke-width:1px;}#g422192eb-d3d6-4f36-ae2f-5e45d1c09dd3-light .rough-node .label text,#g422192eb-d3d6-4f36-ae2f-5e45d1c09dd3-light .node .label text,#g422192eb-d3d6-4f36-ae2f-5e45d1c09dd3-light .image-shape .label,#g422192eb-d3d6-4f36-ae2f-5e45d1c09dd3-light .icon-shape .label{text-anchor:middle;}#g422192eb-d3d6-4f36-ae2f-5e45d1c09dd3-light .node .katex path{fill:#000;stroke:#000;stroke-width:1px;}#g422192eb-d3d6-4f36-ae2f-5e45d1c09dd3-light .rough-node .label,#g422192eb-d3d6-4f36-ae2f-5e45d1c09dd3-light .node .label,#g422192eb-d3d6-4f36-ae2f-5e45d1c09dd3-light .image-shape .label,#g422192eb-d3d6-4f36-ae2f-5e45d1c09dd3-light .icon-shape .label{text-align:center;}#g422192eb-d3d6-4f36-ae2f-5e45d1c09dd3-light .node.clickable{cursor:pointer;}#g422192eb-d3d6-4f36-ae2f-5e45d1c09dd3-light .root .anchor path{fill:#333333!important;stroke-width:0;stroke:#333333;}#g422192eb-d3d6-4f36-ae2f-5e45d1c09dd3-light .arrowheadPath{fill:#333333;}#g422192eb-d3d6-4f36-ae2f-5e45d1c09dd3-light .edgePath .path{stroke:#333333;stroke-width:1px;}#g422192eb-d3d6-4f36-ae2f-5e45d1c09dd3-light .flowchart-link{stroke:#333333;fill:none;}#g422192eb-d3d6-4f36-ae2f-5e45d1c09dd3-light .edgeLabel{background-color:rgba(232,232,232, 0.8);text-align:center;}#g422192eb-d3d6-4f36-ae2f-5e45d1c09dd3-light .edgeLabel p{background-color:rgba(232,232,232, 0.8);}#g422192eb-d3d6-4f36-ae2f-5e45d1c09dd3-light .edgeLabel rect{opacity:0.5;background-color:rgba(232,232,232, 0.8);fill:rgba(232,232,232, 0.8);}#g422192eb-d3d6-4f36-ae2f-5e45d1c09dd3-light .labelBkg{background-color:rgba(232, 232, 232, 0.5);}#g422192eb-d3d6-4f36-ae2f-5e45d1c09dd3-light .cluster rect{fill:#ffffde;stroke:#aaaa33;stroke-width:1px;}#g422192eb-d3d6-4f36-ae2f-5e45d1c09dd3-light .cluster text{fill:#333;}#g422192eb-d3d6-4f36-ae2f-5e45d1c09dd3-light .cluster span{color:#333;}#g422192eb-d3d6-4f36-ae2f-5e45d1c09dd3-light div.mermaidTooltip{position:absolute;text-align:center;max-width:200px;padding:2px;font-family:"trebuchet ms",verdana,arial,sans-serif;font-size:12px;background:hsl(80, 100%, 96.2745098039%);border:1px solid #aaaa33;border-radius:2px;pointer-events:none;z-index:100;}#g422192eb-d3d6-4f36-ae2f-5e45d1c09dd3-light .flowchartTitleText{text-anchor:middle;font-size:18px;fill:#333;}#g422192eb-d3d6-4f36-ae2f-5e45d1c09dd3-light rect.text{fill:none;stroke-width:0;}#g422192eb-d3d6-4f36-ae2f-5e45d1c09dd3-light .icon-shape,#g422192eb-d3d6-4f36-ae2f-5e45d1c09dd3-light .image-shape{background-color:rgba(232,232,232, 0.8);text-align:center;}#g422192eb-d3d6-4f36-ae2f-5e45d1c09dd3-light .icon-shape p,#g422192eb-d3d6-4f36-ae2f-5e45d1c09dd3-light .image-shape p{background-color:rgba(232,232,232, 0.8);padding:2px;}#g422192eb-d3d6-4f36-ae2f-5e45d1c09dd3-light .icon-shape .label rect,#g422192eb-d3d6-4f36-ae2f-5e45d1c09dd3-light .image-shape .label rect{opacity:0.5;background-color:rgba(232,232,232, 0.8);fill:rgba(232,232,232, 0.8);}#g422192eb-d3d6-4f36-ae2f-5e45d1c09dd3-light .label-icon{display:inline-block;height:1em;overflow:visible;vertical-align:-0.125em;}#g422192eb-d3d6-4f36-ae2f-5e45d1c09dd3-light .node .label-icon path{fill:currentColor;stroke:revert;stroke-width:revert;}#g422192eb-d3d6-4f36-ae2f-5e45d1c09dd3-light .node .neo-node{stroke:#9370DB;}#g422192eb-d3d6-4f36-ae2f-5e45d1c09dd3-light [data-look="neo"].node rect,#g422192eb-d3d6-4f36-ae2f-5e45d1c09dd3-light [data-look="neo"].cluster rect,#g422192eb-d3d6-4f36-ae2f-5e45d1c09dd3-light [data-look="neo"].node polygon{stroke:#9370DB;filter:drop-shadow(1px 2px 2px rgba(185, 185, 185, 1));}#g422192eb-d3d6-4f36-ae2f-5e45d1c09dd3-light [data-look="neo"].node path{stroke:#9370DB;stroke-width:1px;}#g422192eb-d3d6-4f36-ae2f-5e45d1c09dd3-light [data-look="neo"].node .outer-path{filter:drop-shadow(1px 2px 2px rgba(185, 185, 185, 1));}#g422192eb-d3d6-4f36-ae2f-5e45d1c09dd3-light [data-look="neo"].node .neo-line path{stroke:#9370DB;filter:none;}#g422192eb-d3d6-4f36-ae2f-5e45d1c09dd3-light [data-look="neo"].node circle{stroke:#9370DB;filter:drop-shadow(1px 2px 2px rgba(185, 185, 185, 1));}#g422192eb-d3d6-4f36-ae2f-5e45d1c09dd3-light [data-look="neo"].node circle .state-start{fill:#000000;}#g422192eb-d3d6-4f36-ae2f-5e45d1c09dd3-light [data-look="neo"].icon-shape .icon{fill:#9370DB;filter:drop-shadow(1px 2px 2px rgba(185, 185, 185, 1));}#g422192eb-d3d6-4f36-ae2f-5e45d1c09dd3-light [data-look="neo"].icon-shape .icon-neo path{stroke:#9370DB;filter:drop-shadow(1px 2px 2px rgba(185, 185, 185, 1));}#g422192eb-d3d6-4f36-ae2f-5e45d1c09dd3-light :root{--mermaid-font-family:"trebuchet ms",verdana,arial,sans-serif;}</style><g><marker id="g422192eb-d3d6-4f36-ae2f-5e45d1c09dd3-light_flowchart-v2-pointEnd" class="marker flowchart-v2" viewBox="0 0 10 10" refX="5" refY="5" markerUnits="userSpaceOnUse" markerWidth="8" markerHeight="8" orient="auto"><path d="M 0 0 L 10 5 L 0 10 z" class="arrowMarkerPath" style="stroke-width: 1; stroke-dasharray: 1, 0;"></path></marker><marker id="g422192eb-d3d6-4f36-ae2f-5e45d1c09dd3-light_flowchart-v2-pointStart" class="marker flowchart-v2" viewBox="0 0 10 10" refX="4.5" refY="5" markerUnits="userSpaceOnUse" markerWidth="8" markerHeight="8" orient="auto"><path d="M 0 5 L 10 10 L 10 0 z" class="arrowMarkerPath" style="stroke-width: 1; stroke-dasharray: 1, 0;"></path></marker><marker id="g422192eb-d3d6-4f36-ae2f-5e45d1c09dd3-light_flowchart-v2-pointEnd-margin" class="marker flowchart-v2" viewBox="0 0 11.5 14" refX="11.5" refY="7" markerUnits="userSpaceOnUse" markerWidth="10.5" markerHeight="14" orient="auto"><path d="M 0 0 L 11.5 7 L 0 14 z" class="arrowMarkerPath" style="stroke-width: 0; stroke-dasharray: 1, 0;"></path></marker><marker id="g422192eb-d3d6-4f36-ae2f-5e45d1c09dd3-light_flowchart-v2-pointStart-margin" class="marker flowchart-v2" viewBox="0 0 11.5 14" refX="1" refY="7" markerUnits="userSpaceOnUse" markerWidth="11.5" markerHeight="14" orient="auto"><polygon points="0,7 11.5,14 11.5,0" class="arrowMarkerPath" style="stroke-width: 0; stroke-dasharray: 1, 0;"></polygon></marker><marker id="g422192eb-d3d6-4f36-ae2f-5e45d1c09dd3-light_flowchart-v2-circleEnd" class="marker flowchart-v2" viewBox="0 0 10 10" refX="11" refY="5" markerUnits="userSpaceOnUse" markerWidth="11" markerHeight="11" orient="auto"><circle cx="5" cy="5" r="5" class="arrowMarkerPath" style="stroke-width: 1; stroke-dasharray: 1, 0;"></circle></marker><marker id="g422192eb-d3d6-4f36-ae2f-5e45d1c09dd3-light_flowchart-v2-circleStart" class="marker flowchart-v2" viewBox="0 0 10 10" refX="-1" refY="5" markerUnits="userSpaceOnUse" markerWidth="11" markerHeight="11" orient="auto"><circle cx="5" cy="5" r="5" class="arrowMarkerPath" style="stroke-width: 1; stroke-dasharray: 1, 0;"></circle></marker><marker id="g422192eb-d3d6-4f36-ae2f-5e45d1c09dd3-light_flowchart-v2-circleEnd-margin" class="marker flowchart-v2" viewBox="0 0 10 10" refY="5" refX="12.25" markerUnits="userSpaceOnUse" markerWidth="14" markerHeight="14" orient="auto"><circle cx="5" cy="5" r="5" class="arrowMarkerPath" style="stroke-width: 0; stroke-dasharray: 1, 0;"></circle></marker><marker id="g422192eb-d3d6-4f36-ae2f-5e45d1c09dd3-light_flowchart-v2-circleStart-margin" class="marker flowchart-v2" viewBox="0 0 10 10" refX="-2" refY="5" markerUnits="userSpaceOnUse" markerWidth="14" markerHeight="14" orient="auto"><circle cx="5" cy="5" r="5" class="arrowMarkerPath" style="stroke-width: 0; stroke-dasharray: 1, 0;"></circle></marker><marker id="g422192eb-d3d6-4f36-ae2f-5e45d1c09dd3-light_flowchart-v2-crossEnd" class="marker cross flowchart-v2" viewBox="0 0 11 11" refX="12" refY="5.2" markerUnits="userSpaceOnUse" markerWidth="11" markerHeight="11" orient="auto"><path d="M 1,1 l 9,9 M 10,1 l -9,9" class="arrowMarkerPath" style="stroke-width: 2; stroke-dasharray: 1, 0;"></path></marker><marker id="g422192eb-d3d6-4f36-ae2f-5e45d1c09dd3-light_flowchart-v2-crossStart" class="marker cross flowchart-v2" viewBox="0 0 11 11" refX="-1" refY="5.2" markerUnits="userSpaceOnUse" markerWidth="11" markerHeight="11" orient="auto"><path d="M 1,1 l 9,9 M 10,1 l -9,9" class="arrowMarkerPath" style="stroke-width: 2; stroke-dasharray: 1, 0;"></path></marker><marker id="g422192eb-d3d6-4f36-ae2f-5e45d1c09dd3-light_flowchart-v2-crossEnd-margin" class="marker cross flowchart-v2" viewBox="0 0 15 15" refX="17.7" refY="7.5" markerUnits="userSpaceOnUse" markerWidth="12" markerHeight="12" orient="auto"><path d="M 1,1 L 14,14 M 1,14 L 14,1" class="arrowMarkerPath" style="stroke-width: 2.5;"></path></marker><marker id="g422192eb-d3d6-4f36-ae2f-5e45d1c09dd3-light_flowchart-v2-crossStart-margin" class="marker cross flowchart-v2" viewBox="0 0 15 15" refX="-3.5" refY="7.5" markerUnits="userSpaceOnUse" markerWidth="12" markerHeight="12" orient="auto"><path d="M 1,1 L 14,14 M 1,14 L 14,1" class="arrowMarkerPath" style="stroke-width: 2.5; stroke-dasharray: 1, 0;"></path></marker><g class="root"><g class="clusters"></g><g class="edgePaths"><path d="M174.24,60.1L174.157,64.183C174.073,68.267,173.907,76.433,173.823,84.017C173.74,91.6,173.74,98.6,173.74,102.1L173.74,105.6" id="g422192eb-d3d6-4f36-ae2f-5e45d1c09dd3-light-L_START_Q1_0" class="edge-thickness-normal edge-pattern-solid edge-thickness-normal edge-pattern-solid flowchart-link" style=";" data-edge="true" data-et="edge" data-id="L_START_Q1_0" data-points="W3sieCI6MTc0LjIzOTg0NTI3NTg3ODksInkiOjYwLjA5OTk5ODQ3NDEyMTExfSx7IngiOjE3My43Mzk4NDUyNzU4Nzg5LCJ5Ijo4NC41OTk5OTg0NzQxMjExfSx7IngiOjE3My43Mzk4NDUyNzU4Nzg5MywieSI6MTA5LjU5OTk5ODQ3NDEyMTA3fV0=" data-look="classic" marker-end="url(#g422192eb-d3d6-4f36-ae2f-5e45d1c09dd3-light_flowchart-v2-pointEnd)"></path><path d="M143.967,320.496L140.336,331.542C136.705,342.587,129.442,364.678,125.811,400.302C122.18,435.926,122.18,485.083,122.18,534.241C122.18,583.398,122.18,632.555,122.18,676.838C122.18,721.12,122.18,760.528,122.18,780.232L122.18,799.936" id="g422192eb-d3d6-4f36-ae2f-5e45d1c09dd3-light-L_Q1_BND_0" class="edge-thickness-normal edge-pattern-solid edge-thickness-normal edge-pattern-solid flowchart-link" style=";" data-edge="true" data-et="edge" data-id="L_Q1_BND_0" data-points="W3sieCI6MTQzLjk2NzE4NjQzOTkxMzMyLCJ5IjozMjAuNDk2MDg2NTg2Mzk3Njd9LHsieCI6MTIyLjE3OTY4NzUsInkiOjM4Ni43Njg3NDU0MjIzNjMzfSx7IngiOjEyMi4xNzk2ODc1LCJ5Ijo1MzQuMjQwNjIzNDc0MTIxMX0seyJ4IjoxMjIuMTc5Njg3NSwieSI6NjgxLjcxMjUwMTUyNTg3ODl9LHsieCI6MTIyLjE3OTY4NzUsInkiOjgwMy45MzU5NDM2MDM1MTU2fV0=" data-look="classic" marker-end="url(#g422192eb-d3d6-4f36-ae2f-5e45d1c09dd3-light_flowchart-v2-pointEnd)"></path><path d="M246.569,277.439L274.505,295.661C302.441,313.882,358.312,350.326,386.247,373.964C414.183,397.602,414.183,408.435,414.183,413.852L414.183,419.269" id="g422192eb-d3d6-4f36-ae2f-5e45d1c09dd3-light-L_Q1_Q2_0" class="edge-thickness-normal edge-pattern-solid edge-thickness-normal edge-pattern-solid flowchart-link" style=";" data-edge="true" data-et="edge" data-id="L_Q1_Q2_0" data-points="W3sieCI6MjQ2LjU2OTQ1NTcyMjA1NjMsInkiOjI3Ny40MzkxMzQ5NzYxODU4N30seyJ4Ijo0MTQuMTgyODE1NTUxNzU3OCwieSI6Mzg2Ljc2ODc0NTQyMjM2MzN9LHsieCI6NDE0LjE4MjgxNTU1MTc1NzgsInkiOjQyMy4yNjg3NDU0MjIzNjMyfV0=" data-look="classic" marker-end="url(#g422192eb-d3d6-4f36-ae2f-5e45d1c09dd3-light_flowchart-v2-pointEnd)"></path><path d="M414.183,645.213L414.183,651.296C414.183,657.379,414.183,669.546,414.183,681.046C414.183,692.546,414.183,703.379,414.183,708.796L414.183,714.213" id="g422192eb-d3d6-4f36-ae2f-5e45d1c09dd3-light-L_Q2_Q3_0" class="edge-thickness-normal edge-pattern-solid edge-thickness-normal edge-pattern-solid flowchart-link" style=";" data-edge="true" data-et="edge" data-id="L_Q2_Q3_0" data-points="W3sieCI6NDE0LjE4MjgxNTU1MTc1NzgsInkiOjY0NS4yMTI1MDE1MjU4Nzg5fSx7IngiOjQxNC4xODI4MTU1NTE3NTc4LCJ5Ijo2ODEuNzEyNTAxNTI1ODc4OX0seyJ4Ijo0MTQuMTgyODE1NTUxNzU3ODcsInkiOjcxOC4yMTI1MDE1MjU4Nzg5fV0=" data-look="classic" marker-end="url(#g422192eb-d3d6-4f36-ae2f-5e45d1c09dd3-light_flowchart-v2-pointEnd)"></path><path d="M490.23,569.165L531.074,587.923C571.919,606.681,653.607,644.197,694.452,670.957C735.296,697.718,735.296,713.723,735.296,721.726L735.296,729.728" id="g422192eb-d3d6-4f36-ae2f-5e45d1c09dd3-light-L_Q2_Q4_0" class="edge-thickness-normal edge-pattern-solid edge-thickness-normal edge-pattern-solid flowchart-link" style=";" data-edge="true" data-et="edge" data-id="L_Q2_Q4_0" data-points="W3sieCI6NDkwLjIyOTkxODU4MTU5NzksInkiOjU2OS4xNjUzOTg0OTYwMzg3fSx7IngiOjczNS4yOTYwOTY4MDE3NTc4LCJ5Ijo2ODEuNzEyNTAxNTI1ODc4OX0seyJ4Ijo3MzUuMjk2MDk2ODAxNzU3OSwieSI6NzMzLjcyODEyNjUyNTg3ODh9XQ==" data-look="classic" marker-end="url(#g422192eb-d3d6-4f36-ae2f-5e45d1c09dd3-light_flowchart-v2-pointEnd)"></path><path d="M361.074,920.751L350.458,935.685C339.842,950.62,318.61,980.49,300.299,1001.112C281.989,1021.734,266.599,1033.108,258.904,1038.795L251.209,1044.482" id="g422192eb-d3d6-4f36-ae2f-5e45d1c09dd3-light-L_Q3_RES_0" class="edge-thickness-normal edge-pattern-solid edge-thickness-normal edge-pattern-solid flowchart-link" style=";" data-edge="true" data-et="edge" data-id="L_Q3_RES_0" data-points="W3sieCI6MzYxLjA3NDAxNzMyNDA4OTU0LCJ5Ijo5MjAuNzUwNTg0NDAxNzI2M30seyJ4IjoyOTcuMzc4MTI4MDUxNzU3OCwieSI6MTAxMC4zNTkzODI2MjkzOTQ1fSx7IngiOjI0Ny45OTI1NzgzOTg0MTcwNywieSI6MTA0Ni44NTkzODI2MjkzOTQ1fV0=" data-look="classic" marker-end="url(#g422192eb-d3d6-4f36-ae2f-5e45d1c09dd3-light_flowchart-v2-pointEnd)"></path><path d="M441.531,946.511L444.427,957.153C447.324,967.794,453.117,989.077,457.759,1005.167C462.401,1021.256,465.892,1032.153,467.638,1037.602L469.383,1043.05" id="g422192eb-d3d6-4f36-ae2f-5e45d1c09dd3-light-L_Q3_TUPLE_0" class="edge-thickness-normal edge-pattern-solid edge-thickness-normal edge-pattern-solid flowchart-link" style=";" data-edge="true" data-et="edge" data-id="L_Q3_TUPLE_0" data-points="W3sieCI6NDQxLjUzMDgzMjg2NTA0OTksInkiOjk0Ni41MTEzNjUzMTYxMDI2fSx7IngiOjQ1OC45MDkzNzgwNTE3NTc4LCJ5IjoxMDEwLjM1OTM4MjYyOTM5NDV9LHsieCI6NDcwLjYwMzY0NDE2Mjc0NjYsInkiOjEwNDYuODU5MzgyNjI5Mzk0NX1d" data-look="classic" marker-end="url(#g422192eb-d3d6-4f36-ae2f-5e45d1c09dd3-light_flowchart-v2-pointEnd)"></path><path d="M721.843,944.89L720.358,955.802C718.873,966.713,715.903,988.536,716.163,1004.896C716.424,1021.256,719.915,1032.153,721.661,1037.602L723.407,1043.05" id="g422192eb-d3d6-4f36-ae2f-5e45d1c09dd3-light-L_Q4_THROW_0" class="edge-thickness-normal edge-pattern-solid edge-thickness-normal edge-pattern-solid flowchart-link" style=";" data-edge="true" data-et="edge" data-id="L_Q4_THROW_0" data-points="W3sieCI6NzIxLjg0MjY5NjE0NDY3MTQsInkiOjk0NC44OTAzNTY5NzIzMDh9LHsieCI6NzEyLjkzMjgxNTU1MTc1NzgsInkiOjEwMTAuMzU5MzgyNjI5Mzk0NX0seyJ4Ijo3MjQuNjI3MDgxNjYyNzQ2NiwieSI6MTA0Ni44NTkzODI2MjkzOTQ1fV0=" data-look="classic" marker-end="url(#g422192eb-d3d6-4f36-ae2f-5e45d1c09dd3-light_flowchart-v2-pointEnd)"></path><path d="M748.749,944.89L750.234,955.802C751.719,966.713,754.689,988.536,685.24,1008.373C615.791,1028.211,473.922,1046.062,402.988,1054.987L332.054,1063.913" id="g422192eb-d3d6-4f36-ae2f-5e45d1c09dd3-light-L_Q4_RES_0" class="edge-thickness-normal edge-pattern-solid edge-thickness-normal edge-pattern-solid flowchart-link" style=";" data-edge="true" data-et="edge" data-id="L_Q4_RES_0" data-points="W3sieCI6NzQ4Ljc0OTQ5NzQ1ODg0NDMsInkiOjk0NC44OTAzNTY5NzIzMDgzfSx7IngiOjc1Ny42NTkzNzgwNTE3NTc4LCJ5IjoxMDEwLjM1OTM4MjYyOTM5NDV9LHsieCI6MzI4LjA4NTE1OTMwMTc1NzgsInkiOjEwNjQuNDEyMTIzNzY2MjE1Mn1d" data-look="classic" marker-end="url(#g422192eb-d3d6-4f36-ae2f-5e45d1c09dd3-light_flowchart-v2-pointEnd)"></path><path d="M122.18,888.136L122.18,908.507C122.18,928.877,122.18,969.618,128.714,995.636C135.247,1021.654,148.315,1032.949,154.849,1038.596L161.383,1044.244" id="g422192eb-d3d6-4f36-ae2f-5e45d1c09dd3-light-L_BND_RES_0" class="edge-thickness-normal edge-pattern-solid edge-thickness-normal edge-pattern-solid flowchart-link" style=";" data-edge="true" data-et="edge" data-id="L_BND_RES_0" data-points="W3sieCI6MTIyLjE3OTY4NzUsInkiOjg4OC4xMzU5NDA1NTE3NTc4fSx7IngiOjEyMi4xNzk2ODc1LCJ5IjoxMDEwLjM1OTM4MjYyOTM5NDV9LHsieCI6MTY0LjQwOTM2OTIyMjUzMzY4LCJ5IjoxMDQ2Ljg1OTM4MjYyOTM5NDV9XQ==" data-look="classic" marker-end="url(#g422192eb-d3d6-4f36-ae2f-5e45d1c09dd3-light_flowchart-v2-pointEnd)"></path></g><g class="edgeLabels"><g class="edgeLabel"><g class="label" data-id="L_START_Q1_0" transform="translate(0, 0)"><text y="-10.1" text-anchor="middle"><tspan class="text-outer-tspan row" x="0" y="-0.1em" dy="1.1em" text-anchor="middle"></tspan></text></g></g><g><rect class="background" style="stroke: none"></rect></g><g class="edgeLabel" transform="translate(122.1796875, 534.2406234741211)"><g class="label" data-id="L_Q1_BND_0" transform="translate(0, -10.5)"><g><rect class="background" style="" x="-13.328125" y="-1" width="26.65625" height="23"></rect><text y="-10.1" text-anchor="middle" style=""><tspan class="text-outer-tspan row" x="0" y="-0.1em" dy="1.1em" text-anchor="middle"><tspan font-style="normal" class="text-inner-tspan" font-weight="normal">Yes</tspan></tspan></text></g></g></g><g class="edgeLabel" transform="translate(414.1828155517578, 386.7687454223633)"><g class="label" data-id="L_Q1_Q2_0" transform="translate(0, -10.5)"><g><rect class="background" style="" x="-11.3984375" y="-1" width="22.796875" height="23"></rect><text y="-10.1" text-anchor="middle" style=""><tspan class="text-outer-tspan row" x="0" y="-0.1em" dy="1.1em" text-anchor="middle"><tspan font-style="normal" class="text-inner-tspan" font-weight="normal">No</tspan></tspan></text></g></g></g><g class="edgeLabel" transform="translate(414.1828155517578, 681.7125015258789)"><g class="label" data-id="L_Q2_Q3_0" transform="translate(0, -10.5)"><g><rect class="background" style="" x="-13.328125" y="-1" width="26.65625" height="23"></rect><text y="-10.1" text-anchor="middle" style=""><tspan class="text-outer-tspan row" x="0" y="-0.1em" dy="1.1em" text-anchor="middle"><tspan font-style="normal" class="text-inner-tspan" font-weight="normal">Yes</tspan></tspan></text></g></g></g><g class="edgeLabel" transform="translate(735.2960968017578, 681.7125015258789)"><g class="label" data-id="L_Q2_Q4_0" transform="translate(0, -10.5)"><g><rect class="background" style="" x="-11.3984375" y="-1" width="22.796875" height="23"></rect><text y="-10.1" text-anchor="middle" style=""><tspan class="text-outer-tspan row" x="0" y="-0.1em" dy="1.1em" text-anchor="middle"><tspan font-style="normal" class="text-inner-tspan" font-weight="normal">No</tspan></tspan></text></g></g></g><g class="edgeLabel" transform="translate(311.43662, 990.58159)"><g class="label" data-id="L_Q3_RES_0" transform="translate(0, -10.5)"><g><rect class="background" style="" x="-13.328125" y="-1" width="26.65625" height="23"></rect><text y="-10.1" text-anchor="middle" style=""><tspan class="text-outer-tspan row" x="0" y="-0.1em" dy="1.1em" text-anchor="middle"><tspan font-style="normal" class="text-inner-tspan" font-weight="normal">Yes</tspan></tspan></text></g></g></g><g class="edgeLabel" transform="translate(455.25312, 996.92646)"><g class="label" data-id="L_Q3_TUPLE_0" transform="translate(0, -10.5)"><g><rect class="background" style="" x="-11.3984375" y="-1" width="22.796875" height="23"></rect><text y="-10.1" text-anchor="middle" style=""><tspan class="text-outer-tspan row" x="0" y="-0.1em" dy="1.1em" text-anchor="middle"><tspan font-style="normal" class="text-inner-tspan" font-weight="normal">No</tspan></tspan></text></g></g></g><g class="edgeLabel" transform="translate(714.80352, 996.61363)"><g class="label" data-id="L_Q4_THROW_0" transform="translate(0, -10.5)"><g><rect class="background" style="" x="-13.328125" y="-1" width="26.65625" height="23"></rect><text y="-10.1" text-anchor="middle" style=""><tspan class="text-outer-tspan row" x="0" y="-0.1em" dy="1.1em" text-anchor="middle"><tspan font-style="normal" class="text-inner-tspan" font-weight="normal">Yes</tspan></tspan></text></g></g></g><g class="edgeLabel" transform="translate(575.65007, 1033.26137)"><g class="label" data-id="L_Q4_RES_0" transform="translate(0, -10.5)"><g><rect class="background" style="" x="-11.3984375" y="-1" width="22.796875" height="23"></rect><text y="-10.1" text-anchor="middle" style=""><tspan class="text-outer-tspan row" x="0" y="-0.1em" dy="1.1em" text-anchor="middle"><tspan font-style="normal" class="text-inner-tspan" font-weight="normal">No</tspan></tspan></text></g></g></g><g class="edgeLabel"><g class="label" data-id="L_BND_RES_0" transform="translate(0, 0)"><text y="-10.1" text-anchor="middle"><tspan class="text-outer-tspan row" x="0" y="-0.1em" dy="1.1em" text-anchor="middle"></tspan></text></g></g><g><rect class="background" style="stroke: none"></rect></g></g><g class="nodes"><g class="node default" id="g422192eb-d3d6-4f36-ae2f-5e45d1c09dd3-light-flowchart-START-0" data-look="classic" transform="translate(173.7398452758789, 33.79999923706055)"><g class="basic label-container outer-path"><path d="M-41.67343807220459 -25.799999237060547 C-12.636038917324047 -25.799999237060547, 16.401360237556496 -25.799999237060547, 41.67343807220459 -25.799999237060547 C41.67343807220459 -25.799999237060547, 41.67343807220459 -25.799999237060547, 41.67343807220459 -25.799999237060547 C42.204520055284675 -25.782968471551538, 42.73560203836476 -25.765937706042532, 43.326449698825286 -25.746990371586765 C43.92571652404472 -25.68917982168165, 44.52498334926415 -25.631369271776535, 44.97266874610231 -25.58818159996402 C45.42359430588624 -25.515279452438097, 45.87451986567018 -25.442377304912174, 46.60533054685753 -25.32422550149928 C47.02299660052983 -25.228895950274293, 47.44066265420212 -25.133566399049304, 48.217726143546784 -24.956206728419545 C48.751645981877445 -24.797742123005428, 49.285565820208106 -24.63927751759131, 49.803229856805515 -24.48563754880318 C50.314927996737005 -24.297327903222637, 50.8266261366685 -24.10901825764209, 51.35532651178644 -23.914451632345997 C51.810816563628 -23.712819698028056, 52.26630661546956 -23.511187763710115, 52.86763821041056 -23.24499610449772 C53.355785243245705 -22.990330110140725, 53.84393227608084 -22.735664115783727, 54.3339505395184 -22.480021901620034 C54.68114579755168 -22.269550095854445, 55.02834105558497 -22.05907829008886, 55.74823810722664 -21.62267246679901 C56.228280975169135 -21.287815342843157, 56.70832384311162 -20.9529582188873, 57.10468930255584 -20.67647083276321 C57.562697200256686 -20.31122172244881, 58.02070509795753 -19.945972612134412, 58.397730176586506 -19.64530514498651 C58.816300335011 -19.265170801864897, 59.234870493435494 -18.88503645874329, 59.62204734701088 -18.533412684464313 C60.047562789771725 -18.094033054346173, 60.47307823253258 -17.654653424228034, 60.77260983196044 -17.345362455817106 C61.04980706514534 -17.019750812748725, 61.32700429833024 -16.694139169680344, 61.84468972338968 -16.086036412270357 C62.11718752267368 -15.720914186290003, 62.389685321957685 -15.355791960309649, 62.83388161506427 -14.76060939466161 C63.01805726320714 -14.477666141027855, 63.20223291135001 -14.1947228873941, 63.73612070532037 -13.374527866909407 C63.97576041824076 -12.949023290466982, 64.21540013116116 -12.52351871402456, 64.5476995002064 -11.93348753532484 C64.7827791802093 -11.445339549899462, 65.01785886021219 -10.957191564474082, 65.26528304837109 -10.443409943732584 C65.42281464225972 -10.054303861161467, 65.58034623614837 -9.665197778590349, 65.88592264509381 -8.910418140577123 C66.0911191807969 -8.292398868667547, 66.29631571649996 -7.674379596757972, 66.4070679491449 -7.340811518003323 C66.5156893573907 -6.926591011545959, 66.62431076563651 -6.512370505088596, 66.82657746268467 -5.741039926302914 C66.94478148677563 -5.134087245025237, 67.06298551086657 -4.527134563747558, 67.14272733113748 -4.117677170096137 C67.21951612782044 -3.522118426686059, 67.29630492450342 -2.926559683275981, 67.35421842687991 -2.4773939951584394 C67.38304586665697 -2.0283833515400334, 67.41187330643405 -1.5793727079216278, 67.46018168763487 -0.8269306768952902 C67.46018168763487 -0.45132295943860956, 67.46018168763487 -0.07571524198192892, 67.46018168763487 0.826930676895284 C67.42068109154862 1.4421843452459875, 67.38118049546236 2.0574380135966908, 67.35421842687991 2.4773939951584216 C67.27564915481457 3.0867617540394825, 67.19707988274925 3.696129512920543, 67.14272733113748 4.117677170096119 C67.06381690196217 4.522865546186205, 66.98490647278686 4.928053922276292, 66.82657746268467 5.741039926302909 C66.70022071466325 6.222892969869578, 66.57386396664184 6.704746013436249, 66.4070679491449 7.340811518003306 C66.21736445125023 7.912168228514346, 66.02766095335555 8.483524939025386, 65.88592264509383 8.910418140577105 C65.72334624124937 9.311985001273857, 65.5607698374049 9.713551861970608, 65.26528304837109 10.443409943732577 C65.01756348522834 10.957804916948044, 64.7698439220856 11.472199890163509, 64.5476995002064 11.933487535324835 C64.35095028472199 12.282835690435874, 64.15420106923756 12.632183845546912, 63.736120705320374 13.374527866909402 C63.42390814411391 13.854170201734036, 63.111695582907444 14.333812536558668, 62.833881615064286 14.760609394661596 C62.456138555709 15.266750681097019, 62.07839549635373 15.772891967532441, 61.84468972338968 16.086036412270353 C61.57907884661807 16.39803806181333, 61.31346796984646 16.710039711356306, 60.77260983196045 17.345362455817092 C60.532474755119246 17.593321638112098, 60.29233967827805 17.841280820407107, 59.62204734701088 18.533412684464306 C59.164838755758936 18.948637429962897, 58.707630164506995 19.363862175461488, 58.397730176586535 19.64530514498649 C58.083122062507044 19.896196743891366, 57.76851394842755 20.14708834279624, 57.10468930255585 20.676470832763208 C56.669811585824526 20.979822702402036, 56.234933869093204 21.283174572040863, 55.748238107226655 21.622672466799003 C55.35845888863088 21.8589589197087, 54.96867967003511 22.0952453726184, 54.333950539518405 22.48002190162003 C53.98033462873471 22.664503095774084, 53.626718717951015 22.848984289928136, 52.86763821041057 23.244996104497716 C52.34743108443006 23.475276367773173, 51.827223958449565 23.705556631048626, 51.35532651178645 23.914451632345994 C50.84975417907552 24.100506924243028, 50.34418184636459 24.286562216140062, 49.80322985680553 24.485637548803172 C49.43175593890135 24.595889057730748, 49.060282020997164 24.706140566658327, 48.21772614354681 24.95620672841954 C47.736128313154346 25.066128290487075, 47.254530482761886 25.17604985255461, 46.605330546857545 25.324225501499278 C46.08661473782312 25.408087450802785, 45.56789892878869 25.491949400106293, 44.97266874610233 25.588181599964017 C44.41468619961139 25.642009505151805, 43.856703653120455 25.695837410339593, 43.326449698825286 25.746990371586765 C42.79315454844731 25.76409210906335, 42.259859398069345 25.78119384653993, 41.6734380722046 25.799999237060547 C41.6734380722046 25.799999237060547, 41.67343807220459 25.799999237060547, 41.67343807220459 25.799999237060547 C24.207530819661468 25.799999237060547, 6.741623567118346 25.799999237060547, -41.67343807220458 25.799999237060547 C-42.30317941079118 25.77980465804923, -42.93292074937778 25.759610079037913, -43.32644969882527 25.746990371586765 C-43.92199405957937 25.6895389233517, -44.517538420333466 25.632087475116638, -44.972668746102315 25.588181599964017 C-45.45264098014285 25.51058341140461, -45.9326132141834 25.4329852228452, -46.60533054685753 25.324225501499278 C-47.15844509092018 25.197980716226695, -47.711559634982834 25.071735930954112, -48.217726143546784 24.956206728419545 C-48.784987109708354 24.787846651276364, -49.35224807586992 24.619486574133187, -49.8032298568055 24.485637548803183 C-50.176289837852956 24.348348027249056, -50.54934981890042 24.211058505694933, -51.355326511786444 23.914451632345997 C-51.69098473184619 23.765865695272876, -52.02664295190594 23.61727975819975, -52.86763821041056 23.244996104497723 C-53.33816381465876 22.999523198147468, -53.80868941890697 22.754050291797213, -54.3339505395184 22.480021901620038 C-54.797837560450674 22.19881086342816, -55.26172458138295 21.917599825236284, -55.748238107226626 21.622672466799017 C-56.100899125741364 21.376671406732576, -56.45356014425611 21.130670346666133, -57.10468930255584 20.67647083276321 C-57.60301486101755 20.27906946089004, -58.10134041947925 19.881668089016866, -58.397730176586506 19.645305144986512 C-58.83549285624493 19.247740661886525, -59.27325553590337 18.85017617878654, -59.62204734701086 18.533412684464324 C-59.94103971868105 18.204026870954085, -60.260032090351224 17.874641057443846, -60.77260983196044 17.3453624558171 C-61.19853230833596 16.845049679390936, -61.62445478471149 16.344736902964776, -61.84468972338967 16.08603641227036 C-62.069863404716216 15.78432419303717, -62.295037086042754 15.482611973803978, -62.83388161506427 14.760609394661614 C-63.11916629124063 14.32233552239281, -63.40445096741699 13.884061650124007, -63.73612070532036 13.374527866909418 C-63.940715107087705 13.011249789141791, -64.14530950885505 12.647971711374165, -64.54769950020639 11.933487535324842 C-64.79335722554193 11.42337401243233, -65.03901495087746 10.913260489539816, -65.26528304837109 10.443409943732586 C-65.49649934893274 9.872301211082215, -65.72771564949441 9.301192478431846, -65.88592264509381 8.910418140577127 C-66.02775059703181 8.483254946555263, -66.16957854896981 8.0560917525334, -66.4070679491449 7.340811518003316 C-66.49183581061929 7.017554923577923, -66.57660367209368 6.694298329152529, -66.82657746268467 5.741039926302918 C-66.93895402443482 5.164010032510605, -67.05133058618499 4.586980138718293, -67.14272733113748 4.117677170096139 C-67.18953898318395 3.754615240829936, -67.23635063523042 3.3915533115637317, -67.35421842687991 2.477393995158454 C-67.3818181660406 2.0475057796222655, -67.40941790520128 1.6176175640860766, -67.46018168763487 0.8269306768952934 C-67.46018168763487 0.3932617249129249, -67.46018168763487 -0.04040722706944366, -67.46018168763487 -0.8269306768952809 C-67.43264474558602 -1.255840776725727, -67.40510780353716 -1.6847508765561727, -67.35421842687991 -2.4773939951584185 C-67.29039008592926 -2.9724340032401364, -67.2265617449786 -3.467474011321854, -67.14272733113748 -4.117677170096128 C-67.06877987364463 -4.497381735521217, -66.99483241615178 -4.8770863009463055, -66.82657746268467 -5.741039926302906 C-66.70272521667987 -6.213342218222185, -66.57887297067506 -6.685644510141464, -66.4070679491449 -7.340811518003303 C-66.22666322024436 -7.884161817861637, -66.04625849134382 -8.42751211771997, -65.88592264509383 -8.910418140577093 C-65.68181646954575 -9.414564340305308, -65.47771029399767 -9.918710540033521, -65.26528304837109 -10.443409943732574 C-64.98362254957051 -11.028283996061216, -64.70196205076992 -11.61315804838986, -64.5476995002064 -11.933487535324831 C-64.30519801703878 -12.364073474626892, -64.06269653387113 -12.794659413928953, -63.73612070532037 -13.374527866909409 C-63.478444348783704 -13.770387946339776, -63.22076799224704 -14.166248025770143, -62.83388161506428 -14.760609394661605 C-62.463304249036995 -15.257149304845608, -62.09272688300971 -15.753689215029612, -61.84468972338968 -16.086036412270353 C-61.5771146888598 -16.40034527327993, -61.309539654329924 -16.71465413428951, -60.77260983196045 -17.345362455817092 C-60.36554815812314 -17.76568705443907, -59.958486484285835 -18.186011653061048, -59.62204734701089 -18.5334126844643 C-59.1480937999234 -18.963844755805482, -58.674140252835905 -19.394276827146665, -58.397730176586535 -19.645305144986487 C-58.06316330048505 -19.912113325478938, -57.72859642438357 -20.17892150597139, -57.10468930255585 -20.676470832763204 C-56.712252632444596 -20.95021766552317, -56.319815962333344 -21.22396449828313, -55.74823810722666 -21.622672466799 C-55.206906718845154 -21.950830735652215, -54.665575330463646 -22.278989004505434, -54.333950539518405 -22.480021901620027 C-54.01206635405647 -22.647948674998858, -53.69018216859454 -22.81587544837769, -52.867638210410576 -23.244996104497716 C-52.273493867885605 -23.508006180267802, -51.679349525360635 -23.77101625603789, -51.35532651178645 -23.91445163234599 C-50.762398336602054 -24.13265468178182, -50.16947016141765 -24.350857731217648, -49.80322985680553 -24.485637548803172 C-49.39042014703312 -24.60815730378124, -48.97761043726071 -24.73067705875931, -48.21772614354682 -24.956206728419538 C-47.65279607591726 -25.08514832984277, -47.087866008287705 -25.214089931266003, -46.605330546857545 -25.324225501499278 C-46.01209401386796 -25.42013538353501, -45.41885748087838 -25.516045265570742, -44.97266874610233 -25.588181599964017 C-44.39162091262246 -25.64423458564756, -43.81057307914258 -25.700287571331106, -43.326449698825286 -25.746990371586765 C-42.95961940394265 -25.7587539051518, -42.592789109060014 -25.77051743871683, -41.6734380722046 -25.799999237060547 C-41.6734380722046 -25.799999237060547, -41.67343807220459 -25.799999237060547, -41.67343807220459 -25.799999237060547" stroke="none" stroke-width="0" fill="#ECECFF" style=""></path><path d="M-41.67343807220459 -25.799999237060547 C-19.894912699412206 -25.799999237060547, 1.8836126733801777 -25.799999237060547, 41.67343807220459 -25.799999237060547 M-41.67343807220459 -25.799999237060547 C-10.514131458946416 -25.799999237060547, 20.645175154311758 -25.799999237060547, 41.67343807220459 -25.799999237060547 M41.67343807220459 -25.799999237060547 C41.67343807220459 -25.799999237060547, 41.67343807220459 -25.799999237060547, 41.67343807220459 -25.799999237060547 M41.67343807220459 -25.799999237060547 C41.67343807220459 -25.799999237060547, 41.67343807220459 -25.799999237060547, 41.67343807220459 -25.799999237060547 M41.67343807220459 -25.799999237060547 C42.24852578269663 -25.78155729352539, 42.823613493188674 -25.763115349990233, 43.326449698825286 -25.746990371586765 M41.67343807220459 -25.799999237060547 C42.1839714212249 -25.783627426250344, 42.694504770245224 -25.767255615440146, 43.326449698825286 -25.746990371586765 M43.326449698825286 -25.746990371586765 C43.95170167002379 -25.68667306590076, 44.576953641222296 -25.626355760214754, 44.97266874610231 -25.58818159996402 M43.326449698825286 -25.746990371586765 C43.70919387343662 -25.71006750137923, 44.09193804804795 -25.673144631171688, 44.97266874610231 -25.58818159996402 M44.97266874610231 -25.58818159996402 C45.407332134625335 -25.51790859417254, 45.84199552314836 -25.447635588381058, 46.60533054685753 -25.32422550149928 M44.97266874610231 -25.58818159996402 C45.395521815285306 -25.519817995013042, 45.8183748844683 -25.45145439006206, 46.60533054685753 -25.32422550149928 M46.60533054685753 -25.32422550149928 C47.220507058875675 -25.183815477033043, 47.83568357089382 -25.04340545256681, 48.217726143546784 -24.956206728419545 M46.60533054685753 -25.32422550149928 C46.95278196990024 -25.24492198152221, 47.30023339294294 -25.165618461545144, 48.217726143546784 -24.956206728419545 M48.217726143546784 -24.956206728419545 C48.75315346856701 -24.797294708868925, 49.288580793587236 -24.638382689318306, 49.803229856805515 -24.48563754880318 M48.217726143546784 -24.956206728419545 C48.584181828469 -24.847444604699774, 48.950637513391214 -24.738682480980007, 49.803229856805515 -24.48563754880318 M49.803229856805515 -24.48563754880318 C50.15390144340289 -24.356587163362736, 50.50457303000025 -24.227536777922293, 51.35532651178644 -23.914451632345997 M49.803229856805515 -24.48563754880318 C50.34717588481683 -24.28546038231305, 50.89112191282814 -24.085283215822923, 51.35532651178644 -23.914451632345997 M51.35532651178644 -23.914451632345997 C51.8438837878659 -23.698181818762293, 52.33244106394536 -23.48191200517859, 52.86763821041056 -23.24499610449772 M51.35532651178644 -23.914451632345997 C51.75383565887532 -23.738043454283584, 52.152344805964205 -23.56163527622117, 52.86763821041056 -23.24499610449772 M52.86763821041056 -23.24499610449772 C53.237636910994986 -23.051968019398306, 53.60763561157941 -22.85893993429889, 54.3339505395184 -22.480021901620034 M52.86763821041056 -23.24499610449772 C53.258165431953955 -23.041258303163154, 53.64869265349735 -22.837520501828593, 54.3339505395184 -22.480021901620034 M54.3339505395184 -22.480021901620034 C54.798312328908516 -22.198523055998965, 55.262674118298634 -21.917024210377896, 55.74823810722664 -21.62267246679901 M54.3339505395184 -22.480021901620034 C54.898549045005176 -22.137758969644842, 55.46314755049196 -21.79549603766965, 55.74823810722664 -21.62267246679901 M55.74823810722664 -21.62267246679901 C56.24365509756804 -21.277091020592714, 56.73907208790943 -20.931509574386418, 57.10468930255584 -20.67647083276321 M55.74823810722664 -21.62267246679901 C56.12599988486555 -21.359162203761894, 56.503761662504466 -21.095651940724782, 57.10468930255584 -20.67647083276321 M57.10468930255584 -20.67647083276321 C57.617244451244126 -20.26772174134964, 58.12979959993242 -19.858972649936064, 58.397730176586506 -19.64530514498651 M57.10468930255584 -20.67647083276321 C57.519846142577926 -20.34539430063309, 57.93500298260001 -20.014317768502966, 58.397730176586506 -19.64530514498651 M58.397730176586506 -19.64530514498651 C58.86480263835666 -19.221122293267, 59.3318751001268 -18.79693944154749, 59.62204734701088 -18.533412684464313 M58.397730176586506 -19.64530514498651 C58.70067140677412 -19.370181935115838, 59.00361263696174 -19.09505872524517, 59.62204734701088 -18.533412684464313 M59.62204734701088 -18.533412684464313 C60.054300104518234 -18.08707622372658, 60.48655286202558 -17.64073976298885, 60.77260983196044 -17.345362455817106 M59.62204734701088 -18.533412684464313 C59.93053569095856 -18.21487314197427, 60.23902403490624 -17.896333599484226, 60.77260983196044 -17.345362455817106 M60.77260983196044 -17.345362455817106 C61.11834119266883 -16.9392467268573, 61.46407255337723 -16.533130997897494, 61.84468972338968 -16.086036412270357 M60.77260983196044 -17.345362455817106 C61.12099609216923 -16.936128130836074, 61.46938235237802 -16.526893805855043, 61.84468972338968 -16.086036412270357 M61.84468972338968 -16.086036412270357 C62.130292603615906 -15.703354571724853, 62.41589548384214 -15.32067273117935, 62.83388161506427 -14.76060939466161 M61.84468972338968 -16.086036412270357 C62.13560711230765 -15.696233614239615, 62.426524501225636 -15.306430816208872, 62.83388161506427 -14.76060939466161 M62.83388161506427 -14.76060939466161 C63.01642206422304 -14.480178245779832, 63.19896251338182 -14.199747096898056, 63.73612070532037 -13.374527866909407 M62.83388161506427 -14.76060939466161 C63.01710406588682 -14.47913050808119, 63.20032651670937 -14.197651621500766, 63.73612070532037 -13.374527866909407 M63.73612070532037 -13.374527866909407 C63.925189165974736 -13.0388176697599, 64.1142576266291 -12.703107472610393, 64.5476995002064 -11.93348753532484 M63.73612070532037 -13.374527866909407 C63.984990608968936 -12.932634152170952, 64.2338605126175 -12.490740437432496, 64.5476995002064 -11.93348753532484 M64.5476995002064 -11.93348753532484 C64.71527134259802 -11.585521019135602, 64.88284318498964 -11.237554502946365, 65.26528304837109 -10.443409943732584 M64.5476995002064 -11.93348753532484 C64.7395427874458 -11.535120844583478, 64.93138607468518 -11.136754153842116, 65.26528304837109 -10.443409943732584 M65.26528304837109 -10.443409943732584 C65.43431993036238 -10.025885577108303, 65.60335681235367 -9.608361210484023, 65.88592264509381 -8.910418140577123 M65.26528304837109 -10.443409943732584 C65.39140290252561 -10.131891465609407, 65.51752275668014 -9.820372987486229, 65.88592264509381 -8.910418140577123 M65.88592264509381 -8.910418140577123 C66.0419272804264 -8.440557034918495, 66.197931915759 -7.9706959292598665, 66.4070679491449 -7.340811518003323 M65.88592264509381 -8.910418140577123 C65.99689837206184 -8.576176932530318, 66.10787409902987 -8.241935724483511, 66.4070679491449 -7.340811518003323 M66.4070679491449 -7.340811518003323 C66.54798737746698 -6.803424662944661, 66.68890680578906 -6.266037807885999, 66.82657746268467 -5.741039926302914 M66.4070679491449 -7.340811518003323 C66.56632129313155 -6.733509496546357, 66.7255746371182 -6.126207475089391, 66.82657746268467 -5.741039926302914 M66.82657746268467 -5.741039926302914 C66.91237217188036 -5.300502227301242, 66.99816688107606 -4.85996452829957, 67.14272733113748 -4.117677170096137 M66.82657746268467 -5.741039926302914 C66.91702825806917 -5.27659420878593, 67.00747905345365 -4.812148491268946, 67.14272733113748 -4.117677170096137 M67.14272733113748 -4.117677170096137 C67.19114497636458 -3.7421594748601597, 67.2395626215917 -3.3666417796241825, 67.35421842687991 -2.4773939951584394 M67.14272733113748 -4.117677170096137 C67.21386901967882 -3.565916282284876, 67.28501070822016 -3.0141553944736152, 67.35421842687991 -2.4773939951584394 M67.35421842687991 -2.4773939951584394 C67.39090022232881 -1.9060454220295602, 67.4275820177777 -1.334696848900681, 67.46018168763487 -0.8269306768952902 M67.35421842687991 -2.4773939951584394 C67.39074565517163 -1.9084529302670452, 67.42727288346333 -1.3395118653756508, 67.46018168763487 -0.8269306768952902 M67.46018168763487 -0.8269306768952902 C67.46018168763487 -0.4846819040587891, 67.46018168763487 -0.14243313122228796, 67.46018168763487 0.826930676895284 M67.46018168763487 -0.8269306768952902 C67.46018168763487 -0.17154243208810505, 67.46018168763487 0.4838458127190801, 67.46018168763487 0.826930676895284 M67.46018168763487 0.826930676895284 C67.43635834822331 1.1979984180839445, 67.41253500881173 1.5690661592726047, 67.35421842687991 2.4773939951584216 M67.46018168763487 0.826930676895284 C67.43110048535736 1.2798938762915648, 67.40201928307984 1.7328570756878456, 67.35421842687991 2.4773939951584216 M67.35421842687991 2.4773939951584216 C67.30359110827996 2.8700494807247505, 67.25296378968002 3.2627049662910794, 67.14272733113748 4.117677170096119 M67.35421842687991 2.4773939951584216 C67.30449503246533 2.863038823243073, 67.25477163805076 3.248683651327724, 67.14272733113748 4.117677170096119 M67.14272733113748 4.117677170096119 C67.02381380454096 4.728272996786497, 66.90490027794444 5.338868823476875, 66.82657746268467 5.741039926302909 M67.14272733113748 4.117677170096119 C67.0166776686477 4.764915546375532, 66.89062800615791 5.412153922654944, 66.82657746268467 5.741039926302909 M66.82657746268467 5.741039926302909 C66.71803705821601 6.154951530250735, 66.60949665374737 6.568863134198562, 66.4070679491449 7.340811518003306 M66.82657746268467 5.741039926302909 C66.72516810162399 6.127757771122368, 66.62375874056332 6.514475615941826, 66.4070679491449 7.340811518003306 M66.4070679491449 7.340811518003306 C66.20011238350135 7.964128707830257, 65.9931568178578 8.58744589765721, 65.88592264509383 8.910418140577105 M66.4070679491449 7.340811518003306 C66.21450864778251 7.920769453548609, 66.02194934642013 8.500727389093912, 65.88592264509383 8.910418140577105 M65.88592264509383 8.910418140577105 C65.69291856946153 9.387141938868854, 65.49991449382922 9.863865737160602, 65.26528304837109 10.443409943732577 M65.88592264509383 8.910418140577105 C65.66090317283545 9.466220587510833, 65.43588370057708 10.02202303444456, 65.26528304837109 10.443409943732577 M65.26528304837109 10.443409943732577 C65.0415072018269 10.908085277117655, 64.81773135528273 11.372760610502734, 64.5476995002064 11.933487535324835 M65.26528304837109 10.443409943732577 C65.10806585493643 10.7698748098087, 64.95084866150177 11.096339675884824, 64.5476995002064 11.933487535324835 M64.5476995002064 11.933487535324835 C64.37283827629723 12.243971344994534, 64.19797705238805 12.554455154664234, 63.736120705320374 13.374527866909402 M64.5476995002064 11.933487535324835 C64.24703612613891 12.467345801449689, 63.94637275207142 13.001204067574543, 63.736120705320374 13.374527866909402 M63.736120705320374 13.374527866909402 C63.51665912061042 13.711679794710875, 63.29719753590047 14.048831722512348, 62.833881615064286 14.760609394661596 M63.736120705320374 13.374527866909402 C63.54955098422421 13.661149059498022, 63.36298126312805 13.947770252086643, 62.833881615064286 14.760609394661596 M62.833881615064286 14.760609394661596 C62.51317505029468 15.19032697448377, 62.19246848552507 15.620044554305943, 61.84468972338968 16.086036412270353 M62.833881615064286 14.760609394661596 C62.61977603979644 15.047491360101336, 62.4056704645286 15.334373325541074, 61.84468972338968 16.086036412270353 M61.84468972338968 16.086036412270353 C61.42713439543829 16.576520660053298, 61.0095790674869 17.067004907836246, 60.77260983196045 17.345362455817092 M61.84468972338968 16.086036412270353 C61.4928111391809 16.499373019740634, 61.140932554972125 16.91270962721092, 60.77260983196045 17.345362455817092 M60.77260983196045 17.345362455817092 C60.414945689034916 17.71468004815995, 60.05728154610939 18.083997640502805, 59.62204734701088 18.533412684464306 M60.77260983196045 17.345362455817092 C60.43315108900676 17.695881477997883, 60.093692346053075 18.046400500178674, 59.62204734701088 18.533412684464306 M59.62204734701088 18.533412684464306 C59.30521617325851 18.82115037357272, 58.98838499950614 19.10888806268114, 58.397730176586535 19.64530514498649 M59.62204734701088 18.533412684464306 C59.30467558981634 18.82164131715184, 58.98730383262181 19.109869949839375, 58.397730176586535 19.64530514498649 M58.397730176586535 19.64530514498649 C58.083578621113254 19.89583265055245, 57.76942706563997 20.146360156118405, 57.10468930255585 20.676470832763208 M58.397730176586535 19.64530514498649 C58.11455562678644 19.871129312860823, 57.83138107698635 20.096953480735152, 57.10468930255585 20.676470832763208 M57.10468930255585 20.676470832763208 C56.81459609099389 20.8788272992161, 56.524502879431935 21.08118376566899, 55.748238107226655 21.622672466799003 M57.10468930255585 20.676470832763208 C56.64025055569776 21.000443197342097, 56.17581180883967 21.32441556192099, 55.748238107226655 21.622672466799003 M55.748238107226655 21.622672466799003 C55.34848255393721 21.865006632427455, 54.94872700064777 22.107340798055905, 54.333950539518405 22.48002190162003 M55.748238107226655 21.622672466799003 C55.31938484442681 21.882645834929786, 54.89053158162695 22.142619203060566, 54.333950539518405 22.48002190162003 M54.333950539518405 22.48002190162003 C54.00170484356745 22.65335426838412, 53.66945914761649 22.826686635148207, 52.86763821041057 23.244996104497716 M54.333950539518405 22.48002190162003 C53.97679545322018 22.666349481373064, 53.61964036692194 22.8526770611261, 52.86763821041057 23.244996104497716 M52.86763821041057 23.244996104497716 C52.26819738276671 23.51035077711529, 51.66875655512285 23.77570544973286, 51.35532651178645 23.914451632345994 M52.86763821041057 23.244996104497716 C52.38184904890961 23.46004055587072, 51.89605988740865 23.675085007243723, 51.35532651178645 23.914451632345994 M51.35532651178645 23.914451632345994 C50.91847120501667 24.07521842348346, 50.48161589824689 24.23598521462093, 49.80322985680553 24.485637548803172 M51.35532651178645 23.914451632345994 C50.79711806882087 24.11987749937961, 50.23890962585529 24.325303366413223, 49.80322985680553 24.485637548803172 M49.80322985680553 24.485637548803172 C49.294769054709285 24.636546045900126, 48.78630825261305 24.787454542997075, 48.21772614354681 24.95620672841954 M49.80322985680553 24.485637548803172 C49.437798091617154 24.594095778520604, 49.072366326428785 24.702554008238035, 48.21772614354681 24.95620672841954 M48.21772614354681 24.95620672841954 C47.79371441766732 25.052984637916442, 47.369702691787815 25.149762547413342, 46.605330546857545 25.324225501499278 M48.21772614354681 24.95620672841954 C47.645470667350665 25.08682030654534, 47.07321519115451 25.217433884671138, 46.605330546857545 25.324225501499278 M46.605330546857545 25.324225501499278 C46.19781308680564 25.390109764095367, 45.79029562675373 25.455994026691457, 44.97266874610233 25.588181599964017 M46.605330546857545 25.324225501499278 C45.99710423538576 25.42255881467254, 45.38887792391399 25.52089212784581, 44.97266874610233 25.588181599964017 M44.97266874610233 25.588181599964017 C44.40234028036682 25.643200501133187, 43.83201181463131 25.69821940230236, 43.326449698825286 25.746990371586765 M44.97266874610233 25.588181599964017 C44.54081205245282 25.629842295816722, 44.108955358803314 25.671502991669428, 43.326449698825286 25.746990371586765 M43.326449698825286 25.746990371586765 C42.73765351000765 25.76587191933989, 42.148857321190015 25.784753467093015, 41.6734380722046 25.799999237060547 M43.326449698825286 25.746990371586765 C42.86599680577355 25.76175619964975, 42.40554391272182 25.77652202771273, 41.6734380722046 25.799999237060547 M41.6734380722046 25.799999237060547 C41.6734380722046 25.799999237060547, 41.67343807220459 25.799999237060547, 41.67343807220459 25.799999237060547 M41.6734380722046 25.799999237060547 C41.6734380722046 25.799999237060547, 41.67343807220459 25.799999237060547, 41.67343807220459 25.799999237060547 M41.67343807220459 25.799999237060547 C23.31476194290542 25.799999237060547, 4.956085813606251 25.799999237060547, -41.67343807220458 25.799999237060547 M41.67343807220459 25.799999237060547 C24.3938149061011 25.799999237060547, 7.114191739997608 25.799999237060547, -41.67343807220458 25.799999237060547 M-41.67343807220458 25.799999237060547 C-42.00887738460976 25.789242351204727, -42.344316697014946 25.778485465348904, -43.32644969882527 25.746990371586765 M-41.67343807220458 25.799999237060547 C-42.22034949480085 25.78246085223639, -42.76726091739712 25.764922467412234, -43.32644969882527 25.746990371586765 M-43.32644969882527 25.746990371586765 C-43.737432948638464 25.70734331175696, -44.148416198451656 25.667696251927154, -44.972668746102315 25.588181599964017 M-43.32644969882527 25.746990371586765 C-43.76143064780201 25.70502828258011, -44.196411596778745 25.663066193573453, -44.972668746102315 25.588181599964017 M-44.972668746102315 25.588181599964017 C-45.36166424395981 25.525291824575557, -45.750659741817294 25.462402049187098, -46.60533054685753 25.324225501499278 M-44.972668746102315 25.588181599964017 C-45.31381598087197 25.533027560682775, -45.65496321564164 25.477873521401538, -46.60533054685753 25.324225501499278 M-46.60533054685753 25.324225501499278 C-46.95119755947268 25.245283612863055, -47.297064572087834 25.166341724226832, -48.217726143546784 24.956206728419545 M-46.60533054685753 25.324225501499278 C-47.05439283345467 25.22172996498876, -47.50345512005182 25.119234428478244, -48.217726143546784 24.956206728419545 M-48.217726143546784 24.956206728419545 C-48.666666748840676 24.822963513305645, -49.11560735413456 24.689720298191745, -49.8032298568055 24.485637548803183 M-48.217726143546784 24.956206728419545 C-48.700678324199714 24.812869056269484, -49.18363050485265 24.66953138411942, -49.8032298568055 24.485637548803183 M-49.8032298568055 24.485637548803183 C-50.18841152987037 24.343887132534956, -50.57359320293524 24.20213671626673, -51.355326511786444 23.914451632345997 M-49.8032298568055 24.485637548803183 C-50.269389014221346 24.31408666974614, -50.7355481716372 24.14253579068909, -51.355326511786444 23.914451632345997 M-51.355326511786444 23.914451632345997 C-51.84137066579639 23.69929430335335, -52.32741481980634 23.484136974360702, -52.86763821041056 23.244996104497723 M-51.355326511786444 23.914451632345997 C-51.764558247782404 23.73329688224872, -52.17378998377837 23.55214213215144, -52.86763821041056 23.244996104497723 M-52.86763821041056 23.244996104497723 C-53.17927492119614 23.08241543209373, -53.49091163198171 22.919834759689735, -54.3339505395184 22.480021901620038 M-52.86763821041056 23.244996104497723 C-53.343196908434884 22.99689743634832, -53.8187556064592 22.748798768198917, -54.3339505395184 22.480021901620038 M-54.3339505395184 22.480021901620038 C-54.89664134740477 22.13891542714109, -55.45933215529113 21.79780895266214, -55.748238107226626 21.622672466799017 M-54.3339505395184 22.480021901620038 C-54.743262269872034 22.23189472529694, -55.15257400022567 21.98376754897384, -55.748238107226626 21.622672466799017 M-55.748238107226626 21.622672466799017 C-56.231962505262395 21.285247266820964, -56.71568690329816 20.94782206684291, -57.10468930255584 20.67647083276321 M-55.748238107226626 21.622672466799017 C-56.038786435628516 21.419998530540283, -56.3293347640304 21.21732459428155, -57.10468930255584 20.67647083276321 M-57.10468930255584 20.67647083276321 C-57.52681579400666 20.33983618908889, -57.94894228545748 20.00320154541457, -58.397730176586506 19.645305144986512 M-57.10468930255584 20.67647083276321 C-57.40974263012533 20.433198921836514, -57.714795957694825 20.18992701090982, -58.397730176586506 19.645305144986512 M-58.397730176586506 19.645305144986512 C-58.87216911060844 19.214432258074105, -59.34660804463037 18.7835593711617, -59.62204734701086 18.533412684464324 M-58.397730176586506 19.645305144986512 C-58.83128667129641 19.251560607767225, -59.26484316600631 18.857816070547933, -59.62204734701086 18.533412684464324 M-59.62204734701086 18.533412684464324 C-59.916171008212594 18.22970585627186, -60.210294669414324 17.9259990280794, -60.77260983196044 17.3453624558171 M-59.62204734701086 18.533412684464324 C-60.04604372323486 18.095601615263167, -60.470040099458856 17.65779054606201, -60.77260983196044 17.3453624558171 M-60.77260983196044 17.3453624558171 C-61.012133935187 17.0640038148596, -61.251658038413574 16.7826451739021, -61.84468972338967 16.08603641227036 M-60.77260983196044 17.3453624558171 C-61.139599417101 16.91427560681203, -61.50658900224156 16.48318875780696, -61.84468972338967 16.08603641227036 M-61.84468972338967 16.08603641227036 C-62.20299575105875 15.605938977544433, -62.561301778727824 15.125841542818506, -62.83388161506427 14.760609394661614 M-61.84468972338967 16.08603641227036 C-62.155196466461135 15.66998566430083, -62.46570320953259 15.2539349163313, -62.83388161506427 14.760609394661614 M-62.83388161506427 14.760609394661614 C-63.101231605153146 14.349888016360728, -63.36858159524201 13.939166638059843, -63.73612070532036 13.374527866909418 M-62.83388161506427 14.760609394661614 C-63.120425486720855 14.32040105999386, -63.40696935837743 13.880192725326104, -63.73612070532036 13.374527866909418 M-63.73612070532036 13.374527866909418 C-64.05567018737281 12.807135403631456, -64.37521966942526 12.239742940353494, -64.54769950020639 11.933487535324842 M-63.73612070532036 13.374527866909418 C-64.04396762745444 12.827914483779214, -64.35181454958852 12.281301100649008, -64.54769950020639 11.933487535324842 M-64.54769950020639 11.933487535324842 C-64.74985684293156 11.513703487681838, -64.95201418565672 11.093919440038835, -65.26528304837109 10.443409943732586 M-64.54769950020639 11.933487535324842 C-64.76731416273724 11.47745298957853, -64.9869288252681 11.021418443832218, -65.26528304837109 10.443409943732586 M-65.26528304837109 10.443409943732586 C-65.40576139178152 10.096425719544794, -65.54623973519196 9.749441495356999, -65.88592264509381 8.910418140577127 M-65.26528304837109 10.443409943732586 C-65.47171274595627 9.933524599650486, -65.67814244354145 9.423639255568386, -65.88592264509381 8.910418140577127 M-65.88592264509381 8.910418140577127 C-66.05252004000938 8.408653330781616, -66.21911743492495 7.906888520986107, -66.4070679491449 7.340811518003316 M-65.88592264509381 8.910418140577127 C-66.0245953280646 8.49275811396064, -66.1632680110354 8.075098087344154, -66.4070679491449 7.340811518003316 M-66.4070679491449 7.340811518003316 C-66.491790837024 7.017726427388429, -66.57651372490311 6.694641336773543, -66.82657746268467 5.741039926302918 M-66.4070679491449 7.340811518003316 C-66.53602776866187 6.849031834645794, -66.66498758817883 6.357252151288273, -66.82657746268467 5.741039926302918 M-66.82657746268467 5.741039926302918 C-66.91573398723312 5.283240015984763, -67.00489051178157 4.825440105666607, -67.14272733113748 4.117677170096139 M-66.82657746268467 5.741039926302918 C-66.94406929792396 5.137744184257324, -67.06156113316325 4.534448442211731, -67.14272733113748 4.117677170096139 M-67.14272733113748 4.117677170096139 C-67.2188104639713 3.5275914161510062, -67.29489359680511 2.937505662205873, -67.35421842687991 2.477393995158454 M-67.14272733113748 4.117677170096139 C-67.19612606432361 3.703527140277086, -67.24952479750974 3.289377110458033, -67.35421842687991 2.477393995158454 M-67.35421842687991 2.477393995158454 C-67.37599074882563 2.1382725065519983, -67.39776307077133 1.7991510179455426, -67.46018168763487 0.8269306768952934 M-67.35421842687991 2.477393995158454 C-67.39163062867597 1.8946687535991513, -67.42904283047201 1.3119435120398488, -67.46018168763487 0.8269306768952934 M-67.46018168763487 0.8269306768952934 C-67.46018168763487 0.20439825735844042, -67.46018168763487 -0.4181341621784126, -67.46018168763487 -0.8269306768952809 M-67.46018168763487 0.8269306768952934 C-67.46018168763487 0.28941740566653973, -67.46018168763487 -0.24809586556221397, -67.46018168763487 -0.8269306768952809 M-67.46018168763487 -0.8269306768952809 C-67.42026309759501 -1.448694938471938, -67.38034450755517 -2.0704592000485955, -67.35421842687991 -2.4773939951584185 M-67.46018168763487 -0.8269306768952809 C-67.42350007514804 -1.3982764002423607, -67.38681846266121 -1.9696221235894404, -67.35421842687991 -2.4773939951584185 M-67.35421842687991 -2.4773939951584185 C-67.29941099565752 -2.902469608767838, -67.24460356443512 -3.327545222377257, -67.14272733113748 -4.117677170096128 M-67.35421842687991 -2.4773939951584185 C-67.28147504179294 -3.041577325086779, -67.20873165670598 -3.60576065501514, -67.14272733113748 -4.117677170096128 M-67.14272733113748 -4.117677170096128 C-67.0739143645187 -4.471017210057926, -67.0051013978999 -4.824357250019724, -66.82657746268467 -5.741039926302906 M-67.14272733113748 -4.117677170096128 C-67.03126420577004 -4.690016761117998, -66.9198010804026 -5.262356352139868, -66.82657746268467 -5.741039926302906 M-66.82657746268467 -5.741039926302906 C-66.73082943883682 -6.106168638690779, -66.63508141498897 -6.471297351078651, -66.4070679491449 -7.340811518003303 M-66.82657746268467 -5.741039926302906 C-66.71064103055262 -6.1831557891899, -66.59470459842059 -6.625271652076894, -66.4070679491449 -7.340811518003303 M-66.4070679491449 -7.340811518003303 C-66.2493425142783 -7.815855397686208, -66.09161707941169 -8.290899277369114, -65.88592264509383 -8.910418140577093 M-66.4070679491449 -7.340811518003303 C-66.2386786423027 -7.847973281019436, -66.07028933546052 -8.355135044035569, -65.88592264509383 -8.910418140577093 M-65.88592264509383 -8.910418140577093 C-65.64225756694209 -9.512275594555689, -65.39859248879036 -10.114133048534285, -65.26528304837109 -10.443409943732574 M-65.88592264509383 -8.910418140577093 C-65.75625290208619 -9.23070491279991, -65.62658315907854 -9.550991685022728, -65.26528304837109 -10.443409943732574 M-65.26528304837109 -10.443409943732574 C-65.11518500868259 -10.755091734729321, -64.96508696899407 -11.06677352572607, -64.5476995002064 -11.933487535324831 M-65.26528304837109 -10.443409943732574 C-65.03925373350509 -10.912764652304398, -64.8132244186391 -11.38211936087622, -64.5476995002064 -11.933487535324831 M-64.5476995002064 -11.933487535324831 C-64.26798363254838 -12.430151382654634, -63.98826776489036 -12.926815229984435, -63.73612070532037 -13.374527866909409 M-64.5476995002064 -11.933487535324831 C-64.24734579996166 -12.466795944219506, -63.94699209971693 -13.00010435311418, -63.73612070532037 -13.374527866909409 M-63.73612070532037 -13.374527866909409 C-63.50568071985869 -13.728545566378914, -63.27524073439701 -14.082563265848417, -62.83388161506428 -14.760609394661605 M-63.73612070532037 -13.374527866909409 C-63.46718488154323 -13.787685511611441, -63.19824905776609 -14.200843156313475, -62.83388161506428 -14.760609394661605 M-62.83388161506428 -14.760609394661605 C-62.59415653313377 -15.081819165044248, -62.354431451203254 -15.40302893542689, -61.84468972338968 -16.086036412270353 M-62.83388161506428 -14.760609394661605 C-62.47505432708312 -15.241405270717923, -62.11622703910197 -15.722201146774239, -61.84468972338968 -16.086036412270353 M-61.84468972338968 -16.086036412270353 C-61.427026380172045 -16.576647540931273, -61.009363036954404 -17.067258669592196, -60.77260983196045 -17.345362455817092 M-61.84468972338968 -16.086036412270353 C-61.622719398182106 -16.34677538672848, -61.400749072974534 -16.607514361186606, -60.77260983196045 -17.345362455817092 M-60.77260983196045 -17.345362455817092 C-60.39859175273423 -17.731566830073554, -60.024573673508 -18.11777120433002, -59.62204734701089 -18.5334126844643 M-60.77260983196045 -17.345362455817092 C-60.44399385496081 -17.68468543194269, -60.11537787796117 -18.024008408068287, -59.62204734701089 -18.5334126844643 M-59.62204734701089 -18.5334126844643 C-59.269428376712725 -18.853651903502396, -58.916809406414565 -19.17389112254049, -58.397730176586535 -19.645305144986487 M-59.62204734701089 -18.5334126844643 C-59.132908932006764 -18.977635251077782, -58.643770517002636 -19.421857817691265, -58.397730176586535 -19.645305144986487 M-58.397730176586535 -19.645305144986487 C-57.98475875521842 -19.974638863896498, -57.57178733385031 -20.303972582806512, -57.10468930255585 -20.676470832763204 M-58.397730176586535 -19.645305144986487 C-57.910876863834396 -20.033557706195563, -57.42402355108225 -20.421810267404638, -57.10468930255585 -20.676470832763204 M-57.10468930255585 -20.676470832763204 C-56.71283915077501 -20.949808535725843, -56.32098899899417 -21.22314623868848, -55.74823810722666 -21.622672466799 M-57.10468930255585 -20.676470832763204 C-56.65118400959029 -20.992816493208256, -56.197678716624736 -21.309162153653308, -55.74823810722666 -21.622672466799 M-55.74823810722666 -21.622672466799 C-55.39760988503972 -21.83522535560887, -55.04698166285278 -22.04777824441874, -54.333950539518405 -22.480021901620027 M-55.74823810722666 -21.622672466799 C-55.288145968730504 -21.901583024956892, -54.828053830234346 -22.180493583114785, -54.333950539518405 -22.480021901620027 M-54.333950539518405 -22.480021901620027 C-53.98986702217002 -22.65953005222467, -53.64578350482162 -22.839038202829318, -52.867638210410576 -23.244996104497716 M-54.333950539518405 -22.480021901620027 C-53.97128452817927 -22.66922452743699, -53.608618516840124 -22.858427153253956, -52.867638210410576 -23.244996104497716 M-52.867638210410576 -23.244996104497716 C-52.39945268142697 -23.45224794994849, -51.93126715244337 -23.659499795399263, -51.35532651178645 -23.91445163234599 M-52.867638210410576 -23.244996104497716 C-52.52395405082101 -23.397134886919652, -52.18026989123145 -23.549273669341588, -51.35532651178645 -23.91445163234599 M-51.35532651178645 -23.91445163234599 C-51.02568616374815 -24.035762327586063, -50.69604581570984 -24.157073022826133, -49.80322985680553 -24.485637548803172 M-51.35532651178645 -23.91445163234599 C-50.937577963072336 -24.06818695989804, -50.51982941435822 -24.221922287450088, -49.80322985680553 -24.485637548803172 M-49.80322985680553 -24.485637548803172 C-49.17761527155333 -24.671316673788056, -48.55200068630112 -24.856995798772942, -48.21772614354682 -24.956206728419538 M-49.80322985680553 -24.485637548803172 C-49.192484192698934 -24.6669036560406, -48.58173852859233 -24.84816976327803, -48.21772614354682 -24.956206728419538 M-48.21772614354682 -24.956206728419538 C-47.88568145799806 -25.031993761101972, -47.553636772449295 -25.107780793784407, -46.605330546857545 -25.324225501499278 M-48.21772614354682 -24.956206728419538 C-47.72611841226376 -25.06841298504464, -47.234510680980705 -25.18061924166975, -46.605330546857545 -25.324225501499278 M-46.605330546857545 -25.324225501499278 C-45.957863459000016 -25.428902959081825, -45.31039637114248 -25.533580416664375, -44.97266874610233 -25.588181599964017 M-46.605330546857545 -25.324225501499278 C-46.05094757380226 -25.41385384127869, -45.49656460074698 -25.5034821810581, -44.97266874610233 -25.588181599964017 M-44.97266874610233 -25.588181599964017 C-44.58806276604 -25.625284076304265, -44.203456785977664 -25.662386552644513, -43.326449698825286 -25.746990371586765 M-44.97266874610233 -25.588181599964017 C-44.47710529018176 -25.63598801055442, -43.981541834261186 -25.683794421144825, -43.326449698825286 -25.746990371586765 M-43.326449698825286 -25.746990371586765 C-42.84661901425531 -25.762377607707155, -42.366788329685335 -25.777764843827544, -41.6734380722046 -25.799999237060547 M-43.326449698825286 -25.746990371586765 C-42.855556727152525 -25.762090992650744, -42.384663755479764 -25.777191613714724, -41.6734380722046 -25.799999237060547 M-41.6734380722046 -25.799999237060547 C-41.6734380722046 -25.799999237060547, -41.6734380722046 -25.799999237060547, -41.67343807220459 -25.799999237060547 M-41.6734380722046 -25.799999237060547 C-41.6734380722046 -25.799999237060547, -41.67343807220459 -25.799999237060547, -41.67343807220459 -25.799999237060547" stroke="#9370DB" stroke-width="1.3" fill="none" stroke-dasharray="0 0" style=""></path></g><g class="label" style="" transform="translate(0, -18.299999237060547)"><rect></rect><g><rect class="background" style="stroke: none"></rect><text y="-10.1" style=""><tspan class="text-outer-tspan row" x="0" y="-0.1em" dy="1.1em"><tspan font-style="normal" class="text-inner-tspan" font-weight="normal">New</tspan><tspan font-style="normal" class="text-inner-tspan" font-weight="normal"> code</tspan><tspan font-style="normal" class="text-inner-tspan" font-weight="normal"> path</tspan></tspan><tspan class="text-outer-tspan row" x="0" y="1em" dy="1.1em"><tspan font-style="normal" class="text-inner-tspan" font-weight="normal">that</tspan><tspan font-style="normal" class="text-inner-tspan" font-weight="normal"> can</tspan><tspan font-style="normal" class="text-inner-tspan" font-weight="normal"> fail</tspan></tspan></text></g></g></g><g class="node default" id="g422192eb-d3d6-4f36-ae2f-5e45d1c09dd3-light-flowchart-Q1-1" data-look="classic" transform="translate(173.7398452758789, 229.9343719482422)"><polygon points="120.3343734741211,0 240.6687469482422,-120.3343734741211 120.3343734741211,-240.6687469482422 0,-120.3343734741211" class="label-container" transform="translate(-119.8343734741211, 120.3343734741211)"></polygon><g class="label" style="" transform="translate(0, -27.099998474121094)"><rect></rect><g><rect class="background" style="stroke: none"></rect><text y="-10.1" style=""><tspan class="text-outer-tspan row" x="0" y="-0.1em" dy="1.1em"><tspan font-style="normal" class="text-inner-tspan" font-weight="normal">Boundary</tspan><tspan font-style="normal" class="text-inner-tspan" font-weight="normal"> with</tspan></tspan><tspan class="text-outer-tspan row" x="0" y="1em" dy="1.1em"><tspan font-style="normal" class="text-inner-tspan" font-weight="normal">throwing</tspan><tspan font-style="normal" class="text-inner-tspan" font-weight="normal"> API?</tspan></tspan><tspan class="text-outer-tspan row" x="0" y="2.1em" dy="1.1em"><tspan font-style="normal" class="text-inner-tspan" font-weight="normal">(parse,</tspan><tspan font-style="normal" class="text-inner-tspan" font-weight="normal"> fetch,</tspan><tspan font-style="normal" class="text-inner-tspan" font-weight="normal"> library)</tspan></tspan></text></g></g></g><g class="node default" id="g422192eb-d3d6-4f36-ae2f-5e45d1c09dd3-light-flowchart-BND-3" data-look="classic" transform="translate(122.1796875, 846.0359420776367)"><rect class="basic label-container" style="" x="-114.1796875" y="-42.099998474121094" width="228.359375" height="84.19999694824219"></rect><g class="label" style="" transform="translate(0, -27.099998474121094)"><rect></rect><g><rect class="background" style="stroke: none"></rect><text y="-10.1" style=""><tspan class="text-outer-tspan row" x="0" y="-0.1em" dy="1.1em"><tspan font-style="normal" class="text-inner-tspan" font-weight="normal">try</tspan><tspan font-style="normal" class="text-inner-tspan" font-weight="normal"> /</tspan><tspan font-style="normal" class="text-inner-tspan" font-weight="normal"> catch</tspan><tspan font-style="normal" class="text-inner-tspan" font-weight="normal"> at</tspan><tspan font-style="normal" class="text-inner-tspan" font-weight="normal"> the</tspan><tspan font-style="normal" class="text-inner-tspan" font-weight="normal"> seam</tspan></tspan><tspan class="text-outer-tspan row" x="0" y="1em" dy="1.1em"><tspan font-style="normal" class="text-inner-tspan" font-weight="normal">convert</tspan><tspan font-style="normal" class="text-inner-tspan" font-weight="normal"> immediately</tspan><tspan font-style="normal" class="text-inner-tspan" font-weight="normal"> to</tspan></tspan><tspan class="text-outer-tspan row" x="0" y="2.1em" dy="1.1em"><tspan font-style="normal" class="text-inner-tspan" font-weight="normal">Result</tspan></tspan></text></g></g></g><g class="node default" id="g422192eb-d3d6-4f36-ae2f-5e45d1c09dd3-light-flowchart-Q2-5" data-look="classic" transform="translate(414.1828155517578, 534.2406234741211)"><polygon points="110.97187423706055,0 221.9437484741211,-110.97187423706055 110.97187423706055,-221.9437484741211 0,-110.97187423706055" class="label-container" transform="translate(-110.47187423706055, 110.97187423706055)"></polygon><g class="label" style="" transform="translate(0, -18.299999237060547)"><rect></rect><g><rect class="background" style="stroke: none"></rect><text y="-10.1" style=""><tspan class="text-outer-tspan row" x="0" y="-0.1em" dy="1.1em"><tspan font-style="normal" class="text-inner-tspan" font-weight="normal">Multiple</tspan><tspan font-style="normal" class="text-inner-tspan" font-weight="normal"> fallible</tspan><tspan font-style="normal" class="text-inner-tspan" font-weight="normal"> steps</tspan></tspan><tspan class="text-outer-tspan row" x="0" y="1em" dy="1.1em"><tspan font-style="normal" class="text-inner-tspan" font-weight="normal">chained</tspan><tspan font-style="normal" class="text-inner-tspan" font-weight="normal"> together?</tspan></tspan></text></g></g></g><g class="node default" id="g422192eb-d3d6-4f36-ae2f-5e45d1c09dd3-light-flowchart-Q3-7" data-look="classic" transform="translate(414.1828155517578, 846.0359420776367)"><polygon points="127.82343673706055,0 255.6468734741211,-127.82343673706055 127.82343673706055,-255.6468734741211 0,-127.82343673706055" class="label-container" transform="translate(-127.32343673706055, 127.82343673706055)"></polygon><g class="label" style="" transform="translate(0, -18.299999237060547)"><rect></rect><g><rect class="background" style="stroke: none"></rect><text y="-10.1" style=""><tspan class="text-outer-tspan row" x="0" y="-0.1em" dy="1.1em"><tspan font-style="normal" class="text-inner-tspan" font-weight="normal">Type</tspan><tspan font-style="normal" class="text-inner-tspan" font-weight="normal"> safety</tspan><tspan font-style="normal" class="text-inner-tspan" font-weight="normal"> +</tspan><tspan font-style="normal" class="text-inner-tspan" font-weight="normal"> lint</tspan></tspan><tspan class="text-outer-tspan row" x="0" y="1em" dy="1.1em"><tspan font-style="normal" class="text-inner-tspan" font-weight="normal">enforcement</tspan><tspan font-style="normal" class="text-inner-tspan" font-weight="normal"> worth</tspan><tspan font-style="normal" class="text-inner-tspan" font-weight="normal"> a</tspan><tspan font-style="normal" class="text-inner-tspan" font-weight="normal"> dep?</tspan></tspan></text></g></g></g><g class="node default" id="g422192eb-d3d6-4f36-ae2f-5e45d1c09dd3-light-flowchart-Q4-9" data-look="classic" transform="translate(735.2960968017578, 846.0359420776367)"><polygon points="112.30781173706055,0 224.6156234741211,-112.30781173706055 112.30781173706055,-224.6156234741211 0,-112.30781173706055" class="label-container" transform="translate(-111.80781173706055, 112.30781173706055)"></polygon><g class="label" style="" transform="translate(0, -18.299999237060547)"><rect></rect><g><rect class="background" style="stroke: none"></rect><text y="-10.1" style=""><tspan class="text-outer-tspan row" x="0" y="-0.1em" dy="1.1em"><tspan font-style="normal" class="text-inner-tspan" font-weight="normal">Single</tspan><tspan font-style="normal" class="text-inner-tspan" font-weight="normal"> call,</tspan><tspan font-style="normal" class="text-inner-tspan" font-weight="normal"> no</tspan></tspan><tspan class="text-outer-tspan row" x="0" y="1em" dy="1.1em"><tspan font-style="normal" class="text-inner-tspan" font-weight="normal">downstream</tspan><tspan font-style="normal" class="text-inner-tspan" font-weight="normal"> chaining?</tspan></tspan></text></g></g></g><g class="node default" id="g422192eb-d3d6-4f36-ae2f-5e45d1c09dd3-light-flowchart-RES-11" data-look="classic" transform="translate(202.9367218017578, 1080.159381866455)"><rect class="basic label-container" style="" x="-125.1484375" y="-33.29999923706055" width="250.296875" height="66.5999984741211"></rect><g class="label" style="" transform="translate(0, -18.299999237060547)"><rect></rect><g><rect class="background" style="stroke: none"></rect><text y="-10.1" style=""><tspan class="text-outer-tspan row" x="0" y="-0.1em" dy="1.1em"><tspan font-style="normal" class="text-inner-tspan" font-weight="normal">Result&lt;T,</tspan><tspan font-style="normal" class="text-inner-tspan" font-weight="normal"> E&gt;</tspan><tspan font-style="normal" class="text-inner-tspan" font-weight="normal"> (neverthrow)</tspan></tspan><tspan class="text-outer-tspan row" x="0" y="1em" dy="1.1em"><tspan font-style="normal" class="text-inner-tspan" font-weight="normal">+</tspan><tspan font-style="normal" class="text-inner-tspan" font-weight="normal"> eslint-plugin-neverthrow</tspan></tspan></text></g></g></g><g class="node default" id="g422192eb-d3d6-4f36-ae2f-5e45d1c09dd3-light-flowchart-TUPLE-13" data-look="classic" transform="translate(481.2726593017578, 1080.159381866455)"><rect class="basic label-container" style="" x="-103.1875" y="-33.29999923706055" width="206.375" height="66.5999984741211"></rect><g class="label" style="" transform="translate(0, -18.299999237060547)"><rect></rect><g><rect class="background" style="stroke: none"></rect><text y="-10.1" style=""><tspan class="text-outer-tspan row" x="0" y="-0.1em" dy="1.1em"><tspan font-style="normal" class="text-inner-tspan" font-weight="normal">[data,</tspan><tspan font-style="normal" class="text-inner-tspan" font-weight="normal"> error]</tspan><tspan font-style="normal" class="text-inner-tspan" font-weight="normal"> helper</tspan></tspan><tspan class="text-outer-tspan row" x="0" y="1em" dy="1.1em"><tspan font-style="normal" class="text-inner-tspan" font-weight="normal">(scripts,</tspan><tspan font-style="normal" class="text-inner-tspan" font-weight="normal"> prototypes)</tspan></tspan></text></g></g></g><g class="node default" id="g422192eb-d3d6-4f36-ae2f-5e45d1c09dd3-light-flowchart-THROW-15" data-look="classic" transform="translate(735.2960968017578, 1080.159381866455)"><rect class="basic label-container" style="" x="-100.8359375" y="-33.29999923706055" width="201.671875" height="66.5999984741211"></rect><g class="label" style="" transform="translate(0, -18.299999237060547)"><rect></rect><g><rect class="background" style="stroke: none"></rect><text y="-10.1" style=""><tspan class="text-outer-tspan row" x="0" y="-0.1em" dy="1.1em"><tspan font-style="normal" class="text-inner-tspan" font-weight="normal">Let</tspan><tspan font-style="normal" class="text-inner-tspan" font-weight="normal"> it</tspan><tspan font-style="normal" class="text-inner-tspan" font-weight="normal"> throw</tspan><tspan font-style="normal" class="text-inner-tspan" font-weight="normal"> to</tspan><tspan font-style="normal" class="text-inner-tspan" font-weight="normal"> a</tspan></tspan><tspan class="text-outer-tspan row" x="0" y="1em" dy="1.1em"><tspan font-style="normal" class="text-inner-tspan" font-weight="normal">top-level</tspan><tspan font-style="normal" class="text-inner-tspan" font-weight="normal"> safety</tspan><tspan font-style="normal" class="text-inner-tspan" font-weight="normal"> net</tspan></tspan></text></g></g></g></g></g></g><defs><filter id="g422192eb-d3d6-4f36-ae2f-5e45d1c09dd3-light-drop-shadow" height="130%" width="130%"><feDropShadow dx="4" dy="4" stdDeviation="0" flood-opacity="0.06" flood-color="#000000"></feDropShadow></filter></defs><defs><filter id="g422192eb-d3d6-4f36-ae2f-5e45d1c09dd3-light-drop-shadow-small" height="150%" width="150%"><feDropShadow dx="2" dy="2" stdDeviation="0" flood-opacity="0.06" flood-color="#000000"></feDropShadow></filter></defs></svg>