<svg id="gd64d76f1-45ac-4fb5-b168-d31c7504a9df-dark" width="100%" xmlns="http://www.w3.org/2000/svg" xmlns:xlink="http://www.w3.org/1999/xlink" class="flowchart" style="max-width: 1688.3336181640625px;" viewBox="0 0 1688.3336181640625 1446.153076171875" role="graphics-document document" aria-roledescription="flowchart-v2"><style>#gd64d76f1-45ac-4fb5-b168-d31c7504a9df-dark{font-family:"trebuchet ms",verdana,arial,sans-serif;font-size:16px;fill:#e5e5e5;}@keyframes edge-animation-frame{from{stroke-dashoffset:0;}}@keyframes dash{to{stroke-dashoffset:0;}}#gd64d76f1-45ac-4fb5-b168-d31c7504a9df-dark .edge-animation-slow{stroke-dasharray:9,5!important;stroke-dashoffset:900;animation:dash 50s linear infinite;stroke-linecap:round;}#gd64d76f1-45ac-4fb5-b168-d31c7504a9df-dark .edge-animation-fast{stroke-dasharray:9,5!important;stroke-dashoffset:900;animation:dash 20s linear infinite;stroke-linecap:round;}#gd64d76f1-45ac-4fb5-b168-d31c7504a9df-dark .error-icon{fill:#252525;}#gd64d76f1-45ac-4fb5-b168-d31c7504a9df-dark .error-text{fill:#cccccc;stroke:#cccccc;}#gd64d76f1-45ac-4fb5-b168-d31c7504a9df-dark .edge-thickness-normal{stroke-width:1px;}#gd64d76f1-45ac-4fb5-b168-d31c7504a9df-dark .edge-thickness-thick{stroke-width:3.5px;}#gd64d76f1-45ac-4fb5-b168-d31c7504a9df-dark .edge-pattern-solid{stroke-dasharray:0;}#gd64d76f1-45ac-4fb5-b168-d31c7504a9df-dark .edge-thickness-invisible{stroke-width:0;fill:none;}#gd64d76f1-45ac-4fb5-b168-d31c7504a9df-dark .edge-pattern-dashed{stroke-dasharray:3;}#gd64d76f1-45ac-4fb5-b168-d31c7504a9df-dark .edge-pattern-dotted{stroke-dasharray:2;}#gd64d76f1-45ac-4fb5-b168-d31c7504a9df-dark .marker{fill:#cccccc;stroke:#cccccc;}#gd64d76f1-45ac-4fb5-b168-d31c7504a9df-dark .marker.cross{stroke:#cccccc;}#gd64d76f1-45ac-4fb5-b168-d31c7504a9df-dark svg{font-family:"trebuchet ms",verdana,arial,sans-serif;font-size:16px;}#gd64d76f1-45ac-4fb5-b168-d31c7504a9df-dark p{margin:0;}#gd64d76f1-45ac-4fb5-b168-d31c7504a9df-dark .label{font-family:"trebuchet ms",verdana,arial,sans-serif;color:#e5e5e5;}#gd64d76f1-45ac-4fb5-b168-d31c7504a9df-dark .cluster-label text{fill:#e5e5e5;}#gd64d76f1-45ac-4fb5-b168-d31c7504a9df-dark .cluster-label span{color:#e5e5e5;}#gd64d76f1-45ac-4fb5-b168-d31c7504a9df-dark .cluster-label span p{background-color:transparent;}#gd64d76f1-45ac-4fb5-b168-d31c7504a9df-dark .label text,#gd64d76f1-45ac-4fb5-b168-d31c7504a9df-dark span{fill:#e5e5e5;color:#e5e5e5;}#gd64d76f1-45ac-4fb5-b168-d31c7504a9df-dark .node rect,#gd64d76f1-45ac-4fb5-b168-d31c7504a9df-dark .node circle,#gd64d76f1-45ac-4fb5-b168-d31c7504a9df-dark .node ellipse,#gd64d76f1-45ac-4fb5-b168-d31c7504a9df-dark .node polygon,#gd64d76f1-45ac-4fb5-b168-d31c7504a9df-dark .node path{fill:#2d2d2d;stroke:#555555;stroke-width:1px;}#gd64d76f1-45ac-4fb5-b168-d31c7504a9df-dark .rough-node .label text,#gd64d76f1-45ac-4fb5-b168-d31c7504a9df-dark .node .label text,#gd64d76f1-45ac-4fb5-b168-d31c7504a9df-dark .image-shape .label,#gd64d76f1-45ac-4fb5-b168-d31c7504a9df-dark .icon-shape .label{text-anchor:middle;}#gd64d76f1-45ac-4fb5-b168-d31c7504a9df-dark .node .katex path{fill:#000;stroke:#000;stroke-width:1px;}#gd64d76f1-45ac-4fb5-b168-d31c7504a9df-dark .rough-node .label,#gd64d76f1-45ac-4fb5-b168-d31c7504a9df-dark .node .label,#gd64d76f1-45ac-4fb5-b168-d31c7504a9df-dark .image-shape .label,#gd64d76f1-45ac-4fb5-b168-d31c7504a9df-dark .icon-shape .label{text-align:center;}#gd64d76f1-45ac-4fb5-b168-d31c7504a9df-dark .node.clickable{cursor:pointer;}#gd64d76f1-45ac-4fb5-b168-d31c7504a9df-dark .root .anchor path{fill:#cccccc!important;stroke-width:0;stroke:#cccccc;}#gd64d76f1-45ac-4fb5-b168-d31c7504a9df-dark .arrowheadPath{fill:#cccccc;}#gd64d76f1-45ac-4fb5-b168-d31c7504a9df-dark .edgePath .path{stroke:#cccccc;stroke-width:1px;}#gd64d76f1-45ac-4fb5-b168-d31c7504a9df-dark .flowchart-link{stroke:#cccccc;fill:none;}#gd64d76f1-45ac-4fb5-b168-d31c7504a9df-dark .edgeLabel{background-color:#1e1e1e;text-align:center;}#gd64d76f1-45ac-4fb5-b168-d31c7504a9df-dark .edgeLabel p{background-color:#1e1e1e;}#gd64d76f1-45ac-4fb5-b168-d31c7504a9df-dark .edgeLabel rect{opacity:0.5;background-color:#1e1e1e;fill:#1e1e1e;}#gd64d76f1-45ac-4fb5-b168-d31c7504a9df-dark .labelBkg{background-color:rgba(30, 30, 30, 0.5);}#gd64d76f1-45ac-4fb5-b168-d31c7504a9df-dark .cluster rect{fill:#1e1e1e;stroke:#555555;stroke-width:1px;}#gd64d76f1-45ac-4fb5-b168-d31c7504a9df-dark .cluster text{fill:#e5e5e5;}#gd64d76f1-45ac-4fb5-b168-d31c7504a9df-dark .cluster span{color:#e5e5e5;}#gd64d76f1-45ac-4fb5-b168-d31c7504a9df-dark div.mermaidTooltip{position:absolute;text-align:center;max-width:200px;padding:2px;font-family:"trebuchet ms",verdana,arial,sans-serif;font-size:12px;background:#252525;border:1px solid #555555;border-radius:2px;pointer-events:none;z-index:100;}#gd64d76f1-45ac-4fb5-b168-d31c7504a9df-dark .flowchartTitleText{text-anchor:middle;font-size:18px;fill:#e5e5e5;}#gd64d76f1-45ac-4fb5-b168-d31c7504a9df-dark rect.text{fill:none;stroke-width:0;}#gd64d76f1-45ac-4fb5-b168-d31c7504a9df-dark .icon-shape,#gd64d76f1-45ac-4fb5-b168-d31c7504a9df-dark .image-shape{background-color:#1e1e1e;text-align:center;}#gd64d76f1-45ac-4fb5-b168-d31c7504a9df-dark .icon-shape p,#gd64d76f1-45ac-4fb5-b168-d31c7504a9df-dark .image-shape p{background-color:#1e1e1e;padding:2px;}#gd64d76f1-45ac-4fb5-b168-d31c7504a9df-dark .icon-shape .label rect,#gd64d76f1-45ac-4fb5-b168-d31c7504a9df-dark .image-shape .label rect{opacity:0.5;background-color:#1e1e1e;fill:#1e1e1e;}#gd64d76f1-45ac-4fb5-b168-d31c7504a9df-dark .label-icon{display:inline-block;height:1em;overflow:visible;vertical-align:-0.125em;}#gd64d76f1-45ac-4fb5-b168-d31c7504a9df-dark .node .label-icon path{fill:currentColor;stroke:revert;stroke-width:revert;}#gd64d76f1-45ac-4fb5-b168-d31c7504a9df-dark .node .neo-node{stroke:#555555;}#gd64d76f1-45ac-4fb5-b168-d31c7504a9df-dark [data-look="neo"].node rect,#gd64d76f1-45ac-4fb5-b168-d31c7504a9df-dark [data-look="neo"].cluster rect,#gd64d76f1-45ac-4fb5-b168-d31c7504a9df-dark [data-look="neo"].node polygon{stroke:url(#gd64d76f1-45ac-4fb5-b168-d31c7504a9df-dark-gradient);filter:drop-shadow( 1px 2px 2px rgba(185,185,185,1));}#gd64d76f1-45ac-4fb5-b168-d31c7504a9df-dark [data-look="neo"].node path{stroke:url(#gd64d76f1-45ac-4fb5-b168-d31c7504a9df-dark-gradient);stroke-width:1px;}#gd64d76f1-45ac-4fb5-b168-d31c7504a9df-dark [data-look="neo"].node .outer-path{filter:drop-shadow( 1px 2px 2px rgba(185,185,185,1));}#gd64d76f1-45ac-4fb5-b168-d31c7504a9df-dark [data-look="neo"].node .neo-line path{stroke:#555555;filter:none;}#gd64d76f1-45ac-4fb5-b168-d31c7504a9df-dark [data-look="neo"].node circle{stroke:url(#gd64d76f1-45ac-4fb5-b168-d31c7504a9df-dark-gradient);filter:drop-shadow( 1px 2px 2px rgba(185,185,185,1));}#gd64d76f1-45ac-4fb5-b168-d31c7504a9df-dark [data-look="neo"].node circle .state-start{fill:#000000;}#gd64d76f1-45ac-4fb5-b168-d31c7504a9df-dark [data-look="neo"].icon-shape .icon{fill:url(#gd64d76f1-45ac-4fb5-b168-d31c7504a9df-dark-gradient);filter:drop-shadow( 1px 2px 2px rgba(185,185,185,1));}#gd64d76f1-45ac-4fb5-b168-d31c7504a9df-dark [data-look="neo"].icon-shape .icon-neo path{stroke:url(#gd64d76f1-45ac-4fb5-b168-d31c7504a9df-dark-gradient);filter:drop-shadow( 1px 2px 2px rgba(185,185,185,1));}#gd64d76f1-45ac-4fb5-b168-d31c7504a9df-dark :root{--mermaid-font-family:"trebuchet ms",verdana,arial,sans-serif;}</style><g><marker id="gd64d76f1-45ac-4fb5-b168-d31c7504a9df-dark_flowchart-v2-pointEnd" class="marker flowchart-v2" viewBox="0 0 10 10" refX="5" refY="5" markerUnits="userSpaceOnUse" markerWidth="8" markerHeight="8" orient="auto"><path d="M 0 0 L 10 5 L 0 10 z" class="arrowMarkerPath" style="stroke-width: 1; stroke-dasharray: 1, 0;"></path></marker><marker id="gd64d76f1-45ac-4fb5-b168-d31c7504a9df-dark_flowchart-v2-pointStart" class="marker flowchart-v2" viewBox="0 0 10 10" refX="4.5" refY="5" markerUnits="userSpaceOnUse" markerWidth="8" markerHeight="8" orient="auto"><path d="M 0 5 L 10 10 L 10 0 z" class="arrowMarkerPath" style="stroke-width: 1; stroke-dasharray: 1, 0;"></path></marker><marker id="gd64d76f1-45ac-4fb5-b168-d31c7504a9df-dark_flowchart-v2-pointEnd-margin" class="marker flowchart-v2" viewBox="0 0 11.5 14" refX="11.5" refY="7" markerUnits="userSpaceOnUse" markerWidth="10.5" markerHeight="14" orient="auto"><path d="M 0 0 L 11.5 7 L 0 14 z" class="arrowMarkerPath" style="stroke-width: 0; stroke-dasharray: 1, 0;"></path></marker><marker id="gd64d76f1-45ac-4fb5-b168-d31c7504a9df-dark_flowchart-v2-pointStart-margin" class="marker flowchart-v2" viewBox="0 0 11.5 14" refX="1" refY="7" markerUnits="userSpaceOnUse" markerWidth="11.5" markerHeight="14" orient="auto"><polygon points="0,7 11.5,14 11.5,0" class="arrowMarkerPath" style="stroke-width: 0; stroke-dasharray: 1, 0;"></polygon></marker><marker id="gd64d76f1-45ac-4fb5-b168-d31c7504a9df-dark_flowchart-v2-circleEnd" class="marker flowchart-v2" viewBox="0 0 10 10" refX="11" refY="5" markerUnits="userSpaceOnUse" markerWidth="11" markerHeight="11" orient="auto"><circle cx="5" cy="5" r="5" class="arrowMarkerPath" style="stroke-width: 1; stroke-dasharray: 1, 0;"></circle></marker><marker id="gd64d76f1-45ac-4fb5-b168-d31c7504a9df-dark_flowchart-v2-circleStart" class="marker flowchart-v2" viewBox="0 0 10 10" refX="-1" refY="5" markerUnits="userSpaceOnUse" markerWidth="11" markerHeight="11" orient="auto"><circle cx="5" cy="5" r="5" class="arrowMarkerPath" style="stroke-width: 1; stroke-dasharray: 1, 0;"></circle></marker><marker id="gd64d76f1-45ac-4fb5-b168-d31c7504a9df-dark_flowchart-v2-circleEnd-margin" class="marker flowchart-v2" viewBox="0 0 10 10" refY="5" refX="12.25" markerUnits="userSpaceOnUse" markerWidth="14" markerHeight="14" orient="auto"><circle cx="5" cy="5" r="5" class="arrowMarkerPath" style="stroke-width: 0; stroke-dasharray: 1, 0;"></circle></marker><marker id="gd64d76f1-45ac-4fb5-b168-d31c7504a9df-dark_flowchart-v2-circleStart-margin" class="marker flowchart-v2" viewBox="0 0 10 10" refX="-2" refY="5" markerUnits="userSpaceOnUse" markerWidth="14" markerHeight="14" orient="auto"><circle cx="5" cy="5" r="5" class="arrowMarkerPath" style="stroke-width: 0; stroke-dasharray: 1, 0;"></circle></marker><marker id="gd64d76f1-45ac-4fb5-b168-d31c7504a9df-dark_flowchart-v2-crossEnd" class="marker cross flowchart-v2" viewBox="0 0 11 11" refX="12" refY="5.2" markerUnits="userSpaceOnUse" markerWidth="11" markerHeight="11" orient="auto"><path d="M 1,1 l 9,9 M 10,1 l -9,9" class="arrowMarkerPath" style="stroke-width: 2; stroke-dasharray: 1, 0;"></path></marker><marker id="gd64d76f1-45ac-4fb5-b168-d31c7504a9df-dark_flowchart-v2-crossStart" class="marker cross flowchart-v2" viewBox="0 0 11 11" refX="-1" refY="5.2" markerUnits="userSpaceOnUse" markerWidth="11" markerHeight="11" orient="auto"><path d="M 1,1 l 9,9 M 10,1 l -9,9" class="arrowMarkerPath" style="stroke-width: 2; stroke-dasharray: 1, 0;"></path></marker><marker id="gd64d76f1-45ac-4fb5-b168-d31c7504a9df-dark_flowchart-v2-crossEnd-margin" class="marker cross flowchart-v2" viewBox="0 0 15 15" refX="17.7" refY="7.5" markerUnits="userSpaceOnUse" markerWidth="12" markerHeight="12" orient="auto"><path d="M 1,1 L 14,14 M 1,14 L 14,1" class="arrowMarkerPath" style="stroke-width: 2.5;"></path></marker><marker id="gd64d76f1-45ac-4fb5-b168-d31c7504a9df-dark_flowchart-v2-crossStart-margin" class="marker cross flowchart-v2" viewBox="0 0 15 15" refX="-3.5" refY="7.5" markerUnits="userSpaceOnUse" markerWidth="12" markerHeight="12" orient="auto"><path d="M 1,1 L 14,14 M 1,14 L 14,1" class="arrowMarkerPath" style="stroke-width: 2.5; stroke-dasharray: 1, 0;"></path></marker><g class="root"><g class="clusters"></g><g class="edgePaths"><path d="M986.445,60.1L986.362,64.183C986.279,68.267,986.112,76.433,986.029,84.017C985.945,91.6,985.945,98.6,985.945,102.1L985.945,105.6" id="gd64d76f1-45ac-4fb5-b168-d31c7504a9df-dark-L_Start_CD_0" class="edge-thickness-normal edge-pattern-solid edge-thickness-normal edge-pattern-solid flowchart-link" style=";" data-edge="true" data-et="edge" data-id="L_Start_CD_0" data-points="W3sieCI6OTg2LjQ0NTMwODY4NTMwMjcsInkiOjYwLjA5OTk5ODQ3NDEyMTA4fSx7IngiOjk4NS45NDUzMDg2ODUzMDI3LCJ5Ijo4NC41OTk5OTg0NzQxMjExfSx7IngiOjk4NS45NDUzMDg2ODUzMDI3LCJ5IjoxMDkuNTk5OTk4NDc0MTIxMTR9XQ==" data-look="classic" marker-end="url(#gd64d76f1-45ac-4fb5-b168-d31c7504a9df-dark_flowchart-v2-pointEnd)"></path><path d="M937.919,236.746L920.816,250.833C903.714,264.921,869.508,293.096,852.406,324.602C835.303,356.108,835.303,390.945,835.303,408.363L835.303,425.781" id="gd64d76f1-45ac-4fb5-b168-d31c7504a9df-dark-L_CD_NotDNSSEC_0" class="edge-thickness-normal edge-pattern-solid edge-thickness-normal edge-pattern-solid flowchart-link" style=";" data-edge="true" data-et="edge" data-id="L_CD_NotDNSSEC_0" data-points="W3sieCI6OTM3LjkxOTE0NzI1ODk3NzMsInkiOjIzNi43NDU3MTIwNDc3OTU1Nn0seyJ4Ijo4MzUuMzAzMTE5NjU5NDIzOCwieSI6MzIxLjI3MTg3MzQ3NDEyMTF9LHsieCI6ODM1LjMwMzExOTY1OTQyMzgsInkiOjQyOS43ODEyNX1d" data-look="classic" marker-end="url(#gd64d76f1-45ac-4fb5-b168-d31c7504a9df-dark_flowchart-v2-pointEnd)"></path><path d="M1033.971,236.746L1051.074,250.833C1068.177,264.921,1102.382,293.096,1119.485,312.601C1136.587,332.105,1136.587,342.939,1136.587,348.355L1136.587,353.772" id="gd64d76f1-45ac-4fb5-b168-d31c7504a9df-dark-L_CD_EDE_0" class="edge-thickness-normal edge-pattern-solid edge-thickness-normal edge-pattern-solid flowchart-link" style=";" data-edge="true" data-et="edge" data-id="L_CD_EDE_0" data-points="W3sieCI6MTAzMy45NzE0NzAxMTE2MjgsInkiOjIzNi43NDU3MTIwNDc3OTU2NX0seyJ4IjoxMTM2LjU4NzQ5NzcxMTE4MTYsInkiOjMyMS4yNzE4NzM0NzQxMjExfSx7IngiOjExMzYuNTg3NDk3NzExMTgxMiwieSI6MzU3Ljc3MTg3MzQ3NDEyMX1d" data-look="classic" marker-end="url(#gd64d76f1-45ac-4fb5-b168-d31c7504a9df-dark_flowchart-v2-pointEnd)"></path><path d="M1227.214,512.964L1286.695,534.152C1346.176,555.339,1465.138,597.715,1524.618,639.701C1584.099,681.687,1584.099,723.283,1584.099,764.88C1584.099,806.476,1584.099,848.072,1584.099,883.437C1584.099,918.802,1584.099,947.935,1584.099,975.152C1584.099,1002.369,1584.099,1027.669,1584.099,1055.184C1584.099,1082.699,1584.099,1112.43,1584.099,1127.296L1584.099,1142.161" id="gd64d76f1-45ac-4fb5-b168-d31c7504a9df-dark-L_EDE_DELV_0" class="edge-thickness-normal edge-pattern-solid edge-thickness-normal edge-pattern-solid flowchart-link" style=";" data-edge="true" data-et="edge" data-id="L_EDE_DELV_0" data-points="W3sieCI6MTIyNy4yMTQ0MTMzMjIyNTk4LCJ5Ijo1MTIuOTYzNzEzOTY2NTU5fSx7IngiOjE1ODQuMDk5MjE2NDYxMTgxNiwieSI6NjQwLjA5MDYyOTU3NzYzNjd9LHsieCI6MTU4NC4wOTkyMTY0NjExODE2LCJ5Ijo3NjQuODc5NjkyMDc3NjM2N30seyJ4IjoxNTg0LjA5OTIxNjQ2MTE4MTYsInkiOjg4OS42Njg3NTQ1Nzc2MzY3fSx7IngiOjE1ODQuMDk5MjE2NDYxMTgxNiwieSI6OTc3LjA2ODc1NjEwMzUxNTZ9LHsieCI6MTU4NC4wOTkyMTY0NjExODE2LCJ5IjoxMDUyLjk2ODc1NzYyOTM5NDV9LHsieCI6MTU4NC4wOTkyMTY0NjExODE2LCJ5IjoxMTQ2LjE2MDk0MjA3NzYzNjd9XQ==" data-look="classic" marker-end="url(#gd64d76f1-45ac-4fb5-b168-d31c7504a9df-dark_flowchart-v2-pointEnd)"></path><path d="M1584.099,1230.361L1584.099,1247.81C1584.099,1265.258,1584.099,1300.156,1582.793,1323.04C1581.487,1345.923,1578.875,1356.794,1577.569,1362.229L1576.263,1367.664" id="gd64d76f1-45ac-4fb5-b168-d31c7504a9df-dark-L_DELV_Probe_0" class="edge-thickness-normal edge-pattern-solid edge-thickness-normal edge-pattern-solid flowchart-link" style=";" data-edge="true" data-et="edge" data-id="L_DELV_Probe_0" data-points="W3sieCI6MTU4NC4wOTkyMTY0NjExODE2LCJ5IjoxMjMwLjM2MDkzOTAyNTg3OX0seyJ4IjoxNTg0LjA5OTIxNjQ2MTE4MTYsInkiOjEzMzUuMDUzMTIzNDc0MTIxfSx7IngiOjE1NzUuMzI4MDA2MjExMjk3NiwieSI6MTM3MS41NTMxMjM0NzQxMjF9XQ==" data-look="classic" marker-end="url(#gd64d76f1-45ac-4fb5-b168-d31c7504a9df-dark_flowchart-v2-pointEnd)"></path><path d="M1048.061,515.064L994.409,535.902C940.757,556.739,833.453,598.415,779.8,624.67C726.148,650.924,726.148,661.757,726.148,667.174L726.148,672.591" id="gd64d76f1-45ac-4fb5-b168-d31c7504a9df-dark-L_EDE_Code_0" class="edge-thickness-normal edge-pattern-solid edge-thickness-normal edge-pattern-solid flowchart-link" style=";" data-edge="true" data-et="edge" data-id="L_EDE_Code_0" data-points="W3sieCI6MTA0OC4wNjA3ODM4ODQ0NjYsInkiOjUxNS4wNjM5MTU3NTA5MjA1fSx7IngiOjcyNi4xNDg0Mzc1LCJ5Ijo2NDAuMDkwNjI5NTc3NjM2N30seyJ4Ijo3MjYuMTQ4NDM3NSwieSI6Njc2LjU5MDYyOTU3NzYzNjd9XQ==" data-look="classic" marker-end="url(#gd64d76f1-45ac-4fb5-b168-d31c7504a9df-dark_flowchart-v2-pointEnd)"></path><path d="M798.596,780.721L881.64,798.879C964.684,817.037,1130.772,853.353,1213.816,878.394C1296.859,903.435,1296.859,917.202,1296.859,924.085L1296.859,930.969" id="gd64d76f1-45ac-4fb5-b168-d31c7504a9df-dark-L_Code_E6_0" class="edge-thickness-normal edge-pattern-solid edge-thickness-normal edge-pattern-solid flowchart-link" style=";" data-edge="true" data-et="edge" data-id="L_Code_E6_0" data-points="W3sieCI6Nzk4LjU5NjM2NTA3NzgxNjIsInkiOjc4MC43MjA4MjY5OTk4MjA2fSx7IngiOjEyOTYuODU5Mzc1LCJ5Ijo4ODkuNjY4NzU0NTc3NjM2N30seyJ4IjoxMjk2Ljg1OTM3NSwieSI6OTM0Ljk2ODc1NzYyOTM5NDV9XQ==" data-look="classic" marker-end="url(#gd64d76f1-45ac-4fb5-b168-d31c7504a9df-dark_flowchart-v2-pointEnd)"></path><path d="M1296.859,1019.169L1296.859,1024.802C1296.859,1030.435,1296.859,1041.702,1296.859,1050.835C1296.859,1059.969,1296.859,1066.969,1296.859,1070.469L1296.859,1073.969" id="gd64d76f1-45ac-4fb5-b168-d31c7504a9df-dark-L_E6_DS_0" class="edge-thickness-normal edge-pattern-solid edge-thickness-normal edge-pattern-solid flowchart-link" style=";" data-edge="true" data-et="edge" data-id="L_E6_DS_0" data-points="W3sieCI6MTI5Ni44NTkzNzUsInkiOjEwMTkuMTY4NzU0NTc3NjM2N30seyJ4IjoxMjk2Ljg1OTM3NSwieSI6MTA1Mi45Njg3NTc2MjkzOTQ1fSx7IngiOjEyOTYuODU5Mzc1LCJ5IjoxMDc3Ljk2ODc1NzYyOTM5NH1d" data-look="classic" marker-end="url(#gd64d76f1-45ac-4fb5-b168-d31c7504a9df-dark_flowchart-v2-pointEnd)"></path><path d="M653.245,780.265L566.843,798.499C480.442,816.733,307.639,853.201,221.237,878.318C134.836,903.435,134.836,917.202,134.836,924.085L134.836,930.969" id="gd64d76f1-45ac-4fb5-b168-d31c7504a9df-dark-L_Code_E7_0" class="edge-thickness-normal edge-pattern-solid edge-thickness-normal edge-pattern-solid flowchart-link" style=";" data-edge="true" data-et="edge" data-id="L_Code_E7_0" data-points="W3sieCI6NjUzLjI0NDc3NTUwMDg5NDUsInkiOjc4MC4yNjUwOTI1Nzg1MzE0fSx7IngiOjEzNC44MzU5Mzc1LCJ5Ijo4ODkuNjY4NzU0NTc3NjM2N30seyJ4IjoxMzQuODM1OTM3NSwieSI6OTM0Ljk2ODc1NzYyOTM5NDV9XQ==" data-look="classic" marker-end="url(#gd64d76f1-45ac-4fb5-b168-d31c7504a9df-dark_flowchart-v2-pointEnd)"></path><path d="M664.329,791.349L626.058,807.736C587.787,824.122,511.245,856.896,472.974,878.699C434.703,900.502,434.703,911.335,434.703,916.752L434.703,922.169" id="gd64d76f1-45ac-4fb5-b168-d31c7504a9df-dark-L_Code_E8_0" class="edge-thickness-normal edge-pattern-solid edge-thickness-normal edge-pattern-solid flowchart-link" style=";" data-edge="true" data-et="edge" data-id="L_Code_E8_0" data-points="W3sieCI6NjY0LjMyODg1OTUwMjI4MDUsInkiOjc5MS4zNDkxNzY1Nzk5MTcyfSx7IngiOjQzNC43MDMxMjUsInkiOjg4OS42Njg3NTQ1Nzc2MzY3fSx7IngiOjQzNC43MDMxMjUsInkiOjkyNi4xNjg3NTQ1Nzc2MzY3fV0=" data-look="classic" marker-end="url(#gd64d76f1-45ac-4fb5-b168-d31c7504a9df-dark_flowchart-v2-pointEnd)"></path><path d="M726.148,853.169L726.148,859.252C726.148,865.335,726.148,877.502,726.148,890.469C726.148,903.435,726.148,917.202,726.148,924.085L726.148,930.969" id="gd64d76f1-45ac-4fb5-b168-d31c7504a9df-dark-L_Code_E9_0" class="edge-thickness-normal edge-pattern-solid edge-thickness-normal edge-pattern-solid flowchart-link" style=";" data-edge="true" data-et="edge" data-id="L_Code_E9_0" data-points="W3sieCI6NzI2LjE0ODQzNzUsInkiOjg1My4xNjg3NTQ1Nzc2MzY3fSx7IngiOjcyNi4xNDg0Mzc1LCJ5Ijo4ODkuNjY4NzU0NTc3NjM2N30seyJ4Ijo3MjYuMTQ4NDM3NSwieSI6OTM0Ljk2ODc1NzYyOTM5NDV9XQ==" data-look="classic" marker-end="url(#gd64d76f1-45ac-4fb5-b168-d31c7504a9df-dark_flowchart-v2-pointEnd)"></path><path d="M787.74,791.578L825.455,807.926C863.17,824.275,938.601,856.972,976.316,880.204C1014.031,903.435,1014.031,917.202,1014.031,924.085L1014.031,930.969" id="gd64d76f1-45ac-4fb5-b168-d31c7504a9df-dark-L_Code_E10_0" class="edge-thickness-normal edge-pattern-solid edge-thickness-normal edge-pattern-solid flowchart-link" style=";" data-edge="true" data-et="edge" data-id="L_Code_E10_0" data-points="W3sieCI6Nzg3LjczOTUxMDYxNDY1ODcsInkiOjc5MS41Nzc2ODE0NjI5Nzh9LHsieCI6MTAxNC4wMzEyNSwieSI6ODg5LjY2ODc1NDU3NzYzNjd9LHsieCI6MTAxNC4wMzEyNSwieSI6OTM0Ljk2ODc1NzYyOTM5NDV9XQ==" data-look="classic" marker-end="url(#gd64d76f1-45ac-4fb5-b168-d31c7504a9df-dark_flowchart-v2-pointEnd)"></path><path d="M1282.424,1284.118L1281.146,1292.607C1279.867,1301.096,1277.311,1318.075,1276.032,1331.981C1274.754,1345.886,1274.754,1356.72,1274.754,1362.136L1274.754,1367.553" id="gd64d76f1-45ac-4fb5-b168-d31c7504a9df-dark-L_DS_FixDS_0" class="edge-thickness-normal edge-pattern-solid edge-thickness-normal edge-pattern-solid flowchart-link" style=";" data-edge="true" data-et="edge" data-id="L_DS_FixDS_0" data-points="W3sieCI6MTI4Mi40MjQyNDAwMDA2NzQ3LCJ5IjoxMjg0LjExNzk4ODQ3NDc5NjJ9LHsieCI6MTI3NC43NTM5MDYyNSwieSI6MTMzNS4wNTMxMjM0NzQxMjF9LHsieCI6MTI3NC43NTM5MDYyNSwieSI6MTM3MS41NTMxMjM0NzQxMjF9XQ==" data-look="classic" marker-end="url(#gd64d76f1-45ac-4fb5-b168-d31c7504a9df-dark_flowchart-v2-pointEnd)"></path><path d="M1351.739,1243.673L1366.823,1258.903C1381.907,1274.133,1412.075,1304.593,1437.478,1325.582C1462.881,1346.57,1483.52,1358.087,1493.839,1363.845L1504.158,1369.604" id="gd64d76f1-45ac-4fb5-b168-d31c7504a9df-dark-L_DS_Probe_0" class="edge-thickness-normal edge-pattern-solid edge-thickness-normal edge-pattern-solid flowchart-link" style=";" data-edge="true" data-et="edge" data-id="L_DS_Probe_0" data-points="W3sieCI6MTM1MS43Mzk0NTcxNDY3OTEyLCJ5IjoxMjQzLjY3MzA0MTMyNzMzfSx7IngiOjE0NDIuMjQyMTg3NSwieSI6MTMzNS4wNTMxMjM0NzQxMjF9LHsieCI6MTUwNy42NTEyMjk1OTUwNzU0LCJ5IjoxMzcxLjU1MzEyMzQ3NDEyMX1d" data-look="classic" marker-end="url(#gd64d76f1-45ac-4fb5-b168-d31c7504a9df-dark_flowchart-v2-pointEnd)"></path></g><g class="edgeLabels"><g class="edgeLabel"><g class="label" data-id="L_Start_CD_0" transform="translate(0, 0)"><text y="-10.1" text-anchor="middle"><tspan class="text-outer-tspan row" x="0" y="-0.1em" dy="1.1em" text-anchor="middle"></tspan></text></g></g><g><rect class="background" style="stroke: none"></rect></g><g class="edgeLabel" transform="translate(835.3031196594238, 321.2718734741211)"><g class="label" data-id="L_CD_NotDNSSEC_0" transform="translate(0, -10.5)"><g><rect class="background" style="" x="-10.6640625" y="-1" width="21.328125" height="23"></rect><text y="-10.1" text-anchor="middle" style=""><tspan class="text-outer-tspan row" x="0" y="-0.1em" dy="1.1em" text-anchor="middle"><tspan font-style="normal" class="text-inner-tspan" font-weight="normal">no</tspan></tspan></text></g></g></g><g class="edgeLabel" transform="translate(1136.5874977111816, 321.2718734741211)"><g class="label" data-id="L_CD_EDE_0" transform="translate(0, -10.5)"><g><rect class="background" style="" x="-13.546875" y="-1" width="27.09375" height="23"></rect><text y="-10.1" text-anchor="middle" style=""><tspan class="text-outer-tspan row" x="0" y="-0.1em" dy="1.1em" text-anchor="middle"><tspan font-style="normal" class="text-inner-tspan" font-weight="normal">yes</tspan></tspan></text></g></g></g><g class="edgeLabel" transform="translate(1584.0992164611816, 889.6687545776367)"><g class="label" data-id="L_EDE_DELV_0" transform="translate(0, -10.5)"><g><rect class="background" style="" x="-10.6640625" y="-1" width="21.328125" height="23"></rect><text y="-10.1" text-anchor="middle" style=""><tspan class="text-outer-tspan row" x="0" y="-0.1em" dy="1.1em" text-anchor="middle"><tspan font-style="normal" class="text-inner-tspan" font-weight="normal">no</tspan></tspan></text></g></g></g><g class="edgeLabel"><g class="label" data-id="L_DELV_Probe_0" transform="translate(0, 0)"><text y="-10.1" text-anchor="middle"><tspan class="text-outer-tspan row" x="0" y="-0.1em" dy="1.1em" text-anchor="middle"></tspan></text></g></g><g><rect class="background" style="stroke: none"></rect></g><g class="edgeLabel" transform="translate(726.1484375, 640.0906295776367)"><g class="label" data-id="L_EDE_Code_0" transform="translate(0, -10.5)"><g><rect class="background" style="" x="-13.546875" y="-1" width="27.09375" height="23"></rect><text y="-10.1" text-anchor="middle" style=""><tspan class="text-outer-tspan row" x="0" y="-0.1em" dy="1.1em" text-anchor="middle"><tspan font-style="normal" class="text-inner-tspan" font-weight="normal">yes</tspan></tspan></text></g></g></g><g class="edgeLabel" transform="translate(1296.859375, 889.6687545776367)"><g class="label" data-id="L_Code_E6_0" transform="translate(0, -10.5)"><g><rect class="background" style="" x="-6.1953125" y="-1" width="12.390625" height="23"></rect><text y="-10.1" text-anchor="middle" style=""><tspan class="text-outer-tspan row" x="0" y="-0.1em" dy="1.1em" text-anchor="middle"><tspan font-style="normal" class="text-inner-tspan" font-weight="normal">6</tspan></tspan></text></g></g></g><g class="edgeLabel"><g class="label" data-id="L_E6_DS_0" transform="translate(0, 0)"><text y="-10.1" text-anchor="middle"><tspan class="text-outer-tspan row" x="0" y="-0.1em" dy="1.1em" text-anchor="middle"></tspan></text></g></g><g><rect class="background" style="stroke: none"></rect></g><g class="edgeLabel" transform="translate(134.8359375, 889.6687545776367)"><g class="label" data-id="L_Code_E7_0" transform="translate(0, -10.5)"><g><rect class="background" style="" x="-6.1953125" y="-1" width="12.390625" height="23"></rect><text y="-10.1" text-anchor="middle" style=""><tspan class="text-outer-tspan row" x="0" y="-0.1em" dy="1.1em" text-anchor="middle"><tspan font-style="normal" class="text-inner-tspan" font-weight="normal">7</tspan></tspan></text></g></g></g><g class="edgeLabel" transform="translate(434.703125, 889.6687545776367)"><g class="label" data-id="L_Code_E8_0" transform="translate(0, -10.5)"><g><rect class="background" style="" x="-6.1953125" y="-1" width="12.390625" height="23"></rect><text y="-10.1" text-anchor="middle" style=""><tspan class="text-outer-tspan row" x="0" y="-0.1em" dy="1.1em" text-anchor="middle"><tspan font-style="normal" class="text-inner-tspan" font-weight="normal">8</tspan></tspan></text></g></g></g><g class="edgeLabel" transform="translate(726.1484375, 889.6687545776367)"><g class="label" data-id="L_Code_E9_0" transform="translate(0, -10.5)"><g><rect class="background" style="" x="-6.1953125" y="-1" width="12.390625" height="23"></rect><text y="-10.1" text-anchor="middle" style=""><tspan class="text-outer-tspan row" x="0" y="-0.1em" dy="1.1em" text-anchor="middle"><tspan font-style="normal" class="text-inner-tspan" font-weight="normal">9</tspan></tspan></text></g></g></g><g class="edgeLabel" transform="translate(1014.03125, 889.6687545776367)"><g class="label" data-id="L_Code_E10_0" transform="translate(0, -10.5)"><g><rect class="background" style="" x="-10.390625" y="-1" width="20.78125" height="23"></rect><text y="-10.1" text-anchor="middle" style=""><tspan class="text-outer-tspan row" x="0" y="-0.1em" dy="1.1em" text-anchor="middle"><tspan font-style="normal" class="text-inner-tspan" font-weight="normal">10</tspan></tspan></text></g></g></g><g class="edgeLabel" transform="translate(1274.75390625, 1335.053123474121)"><g class="label" data-id="L_DS_FixDS_0" transform="translate(0, -10.5)"><g><rect class="background" style="" x="-10.6640625" y="-1" width="21.328125" height="23"></rect><text y="-10.1" text-anchor="middle" style=""><tspan class="text-outer-tspan row" x="0" y="-0.1em" dy="1.1em" text-anchor="middle"><tspan font-style="normal" class="text-inner-tspan" font-weight="normal">no</tspan></tspan></text></g></g></g><g class="edgeLabel" transform="translate(1423.3453, 1315.97304)"><g class="label" data-id="L_DS_Probe_0" transform="translate(0, -10.5)"><g><rect class="background" style="" x="-13.546875" y="-1" width="27.09375" height="23"></rect><text y="-10.1" text-anchor="middle" style=""><tspan class="text-outer-tspan row" x="0" y="-0.1em" dy="1.1em" text-anchor="middle"><tspan font-style="normal" class="text-inner-tspan" font-weight="normal">yes</tspan></tspan></text></g></g></g></g><g class="nodes"><g class="node default" id="gd64d76f1-45ac-4fb5-b168-d31c7504a9df-dark-flowchart-Start-0" data-look="classic" transform="translate(985.9453086853027, 33.79999923706055)"><g class="basic label-container outer-path"><path d="M-63.72031307220459 -25.799999237060547 C-37.09576633144701 -25.799999237060547, -10.47121959068943 -25.799999237060547, 63.72031307220459 -25.799999237060547 C63.72031307220459 -25.799999237060547, 63.72031307220459 -25.799999237060547, 63.72031307220459 -25.799999237060547 C64.30527142853373 -25.78124076112544, 64.89022978486287 -25.762482285190334, 65.37332469882529 -25.746990371586765 C65.92069968574681 -25.694185764913183, 66.46807467266832 -25.6413811582396, 67.01954374610231 -25.58818159996402 C67.35707170673135 -25.533612696857947, 67.69459966736036 -25.479043793751874, 68.65220554685753 -25.32422550149928 C69.23893152690238 -25.19030912529888, 69.82565750694721 -25.056392749098478, 70.26460114354678 -24.956206728419545 C70.6804520985245 -24.832784347828365, 71.09630305350221 -24.70936196723719, 71.85010485680552 -24.48563754880318 C72.17888703161829 -24.364642669242972, 72.50766920643106 -24.243647789682765, 73.40220151178644 -23.914451632345997 C73.88816344674787 -23.69933069928719, 74.37412538170929 -23.484209766228382, 74.91451321041056 -23.24499610449772 C75.37907748583714 -23.002633219575294, 75.84364176126371 -22.76027033465287, 76.3808255395184 -22.480021901620034 C76.78891315547689 -22.23263679063697, 77.19700077143538 -21.985251679653903, 77.79511310722664 -21.62267246679901 C78.129719164026 -21.389265766438523, 78.46432522082536 -21.155859066078037, 79.15156430255584 -20.67647083276321 C79.53130563141465 -20.37363722833947, 79.91104696027345 -20.070803623915726, 80.4446051765865 -19.64530514498651 C80.8710068088055 -19.258058464574177, 81.2974084410245 -18.870811784161845, 81.66892234701088 -18.533412684464313 C82.03039820326224 -18.16015918516506, 82.39187405951358 -17.786905685865808, 82.81948483196044 -17.345362455817106 C83.20502096264968 -16.892489779082208, 83.59055709333894 -16.439617102347313, 83.89156472338968 -16.086036412270357 C84.17461632841422 -15.706773048069168, 84.45766793343876 -15.327509683867978, 84.88075661506427 -14.76060939466161 C85.09542359931426 -14.430823260697133, 85.31009058356425 -14.101037126732656, 85.78299570532036 -13.374527866909407 C86.02589906351938 -12.94322835779487, 86.26880242171839 -12.511928848680332, 86.5945745002064 -11.93348753532484 C86.80544369815458 -11.495613133907417, 87.01631289610275 -11.057738732489993, 87.31215804837109 -10.443409943732584 C87.48698679300009 -10.01157956441513, 87.66181553762908 -9.579749185097677, 87.93279764509381 -8.910418140577123 C88.1247957836212 -8.332150338081735, 88.31679392214856 -7.7538825355863485, 88.4539429491449 -7.340811518003323 C88.5778784555153 -6.868191718224765, 88.70181396188569 -6.395571918446208, 88.87345246268467 -5.741039926302914 C88.9666977971314 -5.2622448413273375, 89.05994313157815 -4.783449756351762, 89.18960233113748 -4.117677170096137 C89.2436782332455 -3.6982751518409533, 89.29775413535353 -3.27887313358577, 89.40109342687991 -2.4773939951584394 C89.44114865791232 -1.8535014398279723, 89.48120388894475 -1.2296088844975055, 89.50705668763487 -0.8269306768952902 C89.50705668763487 -0.1689916012606857, 89.50705668763487 0.48894747437391883, 89.50705668763487 0.826930676895284 C89.48192182955685 1.2184263799527182, 89.45678697147883 1.6099220830101522, 89.40109342687991 2.4773939951584216 C89.35482192006452 2.836266664676009, 89.30855041324915 3.1951393341935965, 89.18960233113748 4.117677170096119 C89.10367225591958 4.558909945012222, 89.01774218070167 5.000142719928325, 88.87345246268467 5.741039926302909 C88.72850309903676 6.2937946713439565, 88.58355373538886 6.846549416385004, 88.4539429491449 7.340811518003306 C88.27182154644231 7.889332165838602, 88.08970014373972 8.4378528136739, 87.93279764509383 8.910418140577105 C87.73173321949287 9.407051159127704, 87.5306687938919 9.9036841776783, 87.31215804837109 10.443409943732577 C87.13253237315345 10.816406501695738, 86.95290669793583 11.189403059658897, 86.5945745002064 11.933487535324835 C86.40844564447238 12.26397816627101, 86.22231678873835 12.594468797217184, 85.78299570532037 13.374527866909402 C85.46401885278671 13.864561969679166, 85.14504200025304 14.354596072448931, 84.88075661506429 14.760609394661596 C84.66180059036728 15.053990520451373, 84.44284456567028 15.34737164624115, 83.89156472338968 16.086036412270353 C83.63410963565242 16.388457807936028, 83.37665454791517 16.690879203601703, 82.81948483196045 17.345362455817092 C82.40824176570476 17.770004685409756, 81.99699869944905 18.19464691500242, 81.66892234701088 18.533412684464306 C81.35159848963639 18.821597815802633, 81.03427463226191 19.10978294714096, 80.44460517658653 19.64530514498649 C79.93443333957663 20.052153608759145, 79.42426150256671 20.459002072531796, 79.15156430255584 20.676470832763208 C78.782689505277 20.933781923012315, 78.41381470799817 21.191093013261426, 77.79511310722665 21.622672466799003 C77.3513296482762 21.891696607575852, 76.90754618932576 22.160720748352702, 76.38082553951841 22.48002190162003 C76.06314467066716 22.645755807415423, 75.7454638018159 22.81148971321081, 74.91451321041058 23.244996104497716 C74.50574329976442 23.425946418212195, 74.09697338911826 23.60689673192668, 73.40220151178644 23.914451632345994 C73.04407460220463 24.046245645560965, 72.6859476926228 24.178039658775937, 71.85010485680553 24.485637548803172 C71.51409918648415 24.585362268024806, 71.17809351616275 24.68508698724644, 70.26460114354681 24.95620672841954 C69.7265685071575 25.07900916668433, 69.18853587076818 25.20181160494912, 68.65220554685754 25.324225501499278 C68.12228919329216 25.40989826798103, 67.59237283972679 25.49557103446278, 67.01954374610233 25.588181599964017 C66.4798771947033 25.640242583133496, 65.94021064330427 25.69230356630297, 65.37332469882529 25.746990371586765 C64.85401476485947 25.76364363039358, 64.33470483089366 25.7802968892004, 63.7203130722046 25.799999237060547 C63.7203130722046 25.799999237060547, 63.7203130722046 25.799999237060547, 63.72031307220459 25.799999237060547 C15.936975545158127 25.799999237060547, -31.846361981888336 25.799999237060547, -63.72031307220458 25.799999237060547 C-64.08592126905727 25.788274893800665, -64.45152946590994 25.776550550540783, -65.37332469882527 25.746990371586765 C-66.02856719606716 25.683779915922237, -66.68380969330904 25.620569460257713, -67.01954374610231 25.588181599964017 C-67.57677351373904 25.4980930125139, -68.13400328137575 25.408004425063783, -68.65220554685753 25.324225501499278 C-69.06832124482762 25.229249808846305, -69.4844369427977 25.134274116193332, -70.26460114354678 24.956206728419545 C-70.75424829484231 24.81088202412538, -71.24389544613783 24.665557319831215, -71.8501048568055 24.485637548803183 C-72.24412902635397 24.34063301208985, -72.63815319590245 24.195628475376516, -73.40220151178644 23.914451632345997 C-73.93985190531853 23.676449751961602, -74.47750229885064 23.438447871577203, -74.91451321041056 23.244996104497723 C-75.24157915810652 23.07436600908048, -75.56864510580247 22.90373591366324, -76.3808255395184 22.480021901620038 C-76.71844001615821 22.275358021838088, -77.05605449279804 22.070694142056134, -77.79511310722663 21.622672466799017 C-78.3054885125108 21.266656677867985, -78.81586391779497 20.910640888936953, -79.15156430255584 20.67647083276321 C-79.41259097301764 20.468309009281352, -79.67361764347943 20.260147185799493, -80.4446051765865 19.645305144986512 C-80.71945535798662 19.395693482376227, -80.99430553938673 19.146081819765943, -81.66892234701086 18.533412684464324 C-82.0490668822708 18.14088224136167, -82.42921141753071 17.748351798259016, -82.81948483196044 17.3453624558171 C-83.20330476189223 16.89450572614651, -83.58712469182402 16.443648996475922, -83.89156472338968 16.08603641227036 C-84.28413608972113 15.560026545373415, -84.67670745605258 15.03401667847647, -84.88075661506427 14.760609394661614 C-85.09834032970151 14.426342379570539, -85.31592404433876 14.092075364479461, -85.78299570532036 13.374527866909418 C-85.96001732032948 13.060208064078429, -86.13703893533861 12.74588826124744, -86.59457450020639 11.933487535324842 C-86.79740211465756 11.512311654101286, -87.00022972910872 11.091135772877728, -87.31215804837109 10.443409943732586 C-87.46004017936457 10.078138221072177, -87.60792231035805 9.712866498411767, -87.93279764509381 8.910418140577127 C-88.10696422822315 8.385856141868109, -88.28113081135248 7.861294143159093, -88.4539429491449 7.340811518003316 C-88.55034595639391 6.973185070035193, -88.64674896364293 6.605558622067069, -88.87345246268467 5.741039926302918 C-88.97462570313037 5.2215367195862115, -89.07579894357606 4.702033512869505, -89.18960233113748 4.117677170096139 C-89.26000307886947 3.5716628728868973, -89.33040382660145 3.025648575677655, -89.40109342687991 2.477393995158454 C-89.44227290343593 1.8359904083231027, -89.48345237999196 1.1945868214877515, -89.50705668763487 0.8269306768952934 C-89.50705668763487 0.4214734318842605, -89.50705668763487 0.01601618687322759, -89.50705668763487 -0.8269306768952809 C-89.46794359789239 -1.4361486211523014, -89.4288305081499 -2.0453665654093216, -89.40109342687991 -2.4773939951584185 C-89.35006088937315 -2.8731922785464548, -89.2990283518664 -3.2689905619344914, -89.18960233113748 -4.117677170096128 C-89.11753733937316 -4.487715671864473, -89.04547234760885 -4.857754173632818, -88.87345246268467 -5.741039926302906 C-88.71185414767183 -6.357284338599613, -88.55025583265899 -6.973528750896319, -88.4539429491449 -7.340811518003303 C-88.33785160793765 -7.690460141076231, -88.2217602667304 -8.04010876414916, -87.93279764509383 -8.910418140577093 C-87.78350439267628 -9.279175360437137, -87.63421114025871 -9.64793258029718, -87.31215804837109 -10.443409943732574 C-87.08025980689588 -10.92495160398335, -86.84836156542066 -11.406493264234125, -86.5945745002064 -11.933487535324831 C-86.2799310458766 -12.492168849592055, -85.96528759154678 -13.050850163859279, -85.78299570532036 -13.374527866909409 C-85.58728393457042 -13.675193702750294, -85.39157216382048 -13.975859538591179, -84.88075661506429 -14.760609394661605 C-84.61665514218473 -15.114481308181073, -84.35255366930517 -15.46835322170054, -83.89156472338968 -16.086036412270353 C-83.55348413160024 -16.483165112716875, -83.2154035398108 -16.880293813163394, -82.81948483196045 -17.345362455817092 C-82.40142172051624 -17.77704694200303, -81.98335860907201 -18.20873142818897, -81.66892234701089 -18.5334126844643 C-81.23094530643283 -18.931171844479817, -80.79296826585477 -19.328931004495338, -80.44460517658653 -19.645305144986487 C-80.0657873338049 -19.947402293838678, -79.68696949102326 -20.249499442690873, -79.15156430255585 -20.676470832763204 C-78.80396196875522 -20.91894317336002, -78.45635963495458 -21.161415513956836, -77.79511310722665 -21.622672466799 C-77.43090096954883 -21.843460005007394, -77.066688831871 -22.064247543215792, -76.38082553951841 -22.480021901620027 C-75.86374982498702 -22.74977997068825, -75.34667411045562 -23.01953803975648, -74.91451321041058 -23.244996104497716 C-74.53149218929478 -23.41454814863078, -74.14847116817897 -23.58410019276384, -73.40220151178646 -23.91445163234599 C-72.92804304964332 -24.08894632948744, -72.45388458750018 -24.263441026628893, -71.85010485680553 -24.485637548803172 C-71.31646052724793 -24.644020384659623, -70.78281619769032 -24.802403220516073, -70.26460114354681 -24.956206728419538 C-69.75023897296033 -25.073606537329056, -69.23587680237385 -25.191006346238574, -68.65220554685754 -25.324225501499278 C-68.20279371708567 -25.396882920896005, -67.7533818873138 -25.469540340292728, -67.01954374610233 -25.588181599964017 C-66.47379047524622 -25.640829761639168, -65.92803720439011 -25.69347792331432, -65.37332469882529 -25.746990371586765 C-64.95005173299377 -25.760563911750133, -64.52677876716224 -25.774137451913504, -63.7203130722046 -25.799999237060547 C-63.7203130722046 -25.799999237060547, -63.72031307220459 -25.799999237060547, -63.72031307220459 -25.799999237060547" stroke="none" stroke-width="0" fill="#2d2d2d" style=""></path><path d="M-63.72031307220459 -25.799999237060547 C-29.740052951739003 -25.799999237060547, 4.2402071687265845 -25.799999237060547, 63.72031307220459 -25.799999237060547 M-63.72031307220459 -25.799999237060547 C-36.163318131581505 -25.799999237060547, -8.606323190958427 -25.799999237060547, 63.72031307220459 -25.799999237060547 M63.72031307220459 -25.799999237060547 C63.72031307220459 -25.799999237060547, 63.72031307220459 -25.799999237060547, 63.72031307220459 -25.799999237060547 M63.72031307220459 -25.799999237060547 C63.72031307220459 -25.799999237060547, 63.72031307220459 -25.799999237060547, 63.72031307220459 -25.799999237060547 M63.72031307220459 -25.799999237060547 C64.18559489969046 -25.785078554469212, 64.65087672717631 -25.770157871877878, 65.37332469882529 -25.746990371586765 M63.72031307220459 -25.799999237060547 C64.31222787117049 -25.781017681549972, 64.90414267013641 -25.7620361260394, 65.37332469882529 -25.746990371586765 M65.37332469882529 -25.746990371586765 C65.95926296930082 -25.690465611327863, 66.54520123977635 -25.633940851068957, 67.01954374610231 -25.58818159996402 M65.37332469882529 -25.746990371586765 C65.73180203448021 -25.712408494148207, 66.09027937013515 -25.67782661670965, 67.01954374610231 -25.58818159996402 M67.01954374610231 -25.58818159996402 C67.6134541237203 -25.49216277595451, 68.20736450133829 -25.396143951945003, 68.65220554685753 -25.32422550149928 M67.01954374610231 -25.58818159996402 C67.62025642301693 -25.491063032956852, 68.22096909993155 -25.39394446594968, 68.65220554685753 -25.32422550149928 M68.65220554685753 -25.32422550149928 C69.12943072968551 -25.21530196770415, 69.60665591251347 -25.10637843390902, 70.26460114354678 -24.956206728419545 M68.65220554685753 -25.32422550149928 C69.10454954117266 -25.220980936617277, 69.55689353548779 -25.117736371735273, 70.26460114354678 -24.956206728419545 M70.26460114354678 -24.956206728419545 C70.7173512214767 -24.8218328818236, 71.17010129940662 -24.687459035227658, 71.85010485680552 -24.48563754880318 M70.26460114354678 -24.956206728419545 C70.79853549593805 -24.797737815308427, 71.33246984832932 -24.63926890219731, 71.85010485680552 -24.48563754880318 M71.85010485680552 -24.48563754880318 C72.3355948639209 -24.306972738364284, 72.8210848710363 -24.12830792792539, 73.40220151178644 -23.914451632345997 M71.85010485680552 -24.48563754880318 C72.45106066494908 -24.264480256231757, 73.05201647309264 -24.04332296366033, 73.40220151178644 -23.914451632345997 M73.40220151178644 -23.914451632345997 C73.85591042960276 -23.713608153225568, 74.30961934741909 -23.51276467410514, 74.91451321041056 -23.24499610449772 M73.40220151178644 -23.914451632345997 C73.9153428773193 -23.687299171622378, 74.42848424285216 -23.460146710898755, 74.91451321041056 -23.24499610449772 M74.91451321041056 -23.24499610449772 C75.48673158493395 -22.946470145032233, 76.05894995945732 -22.647944185566747, 76.3808255395184 -22.480021901620034 M74.91451321041056 -23.24499610449772 C75.33812705829772 -23.023997031392607, 75.76174090618488 -22.802997958287495, 76.3808255395184 -22.480021901620034 M76.3808255395184 -22.480021901620034 C76.71082076767713 -22.27997685504299, 77.04081599583587 -22.079931808465947, 77.79511310722664 -21.62267246679901 M76.3808255395184 -22.480021901620034 C76.93909345355196 -22.14159661138647, 77.49736136758553 -21.8031713211529, 77.79511310722664 -21.62267246679901 M77.79511310722664 -21.62267246679901 C78.10323068516308 -21.40774298262552, 78.41134826309954 -21.19281349845203, 79.15156430255584 -20.67647083276321 M77.79511310722664 -21.62267246679901 C78.09848288000906 -21.4110548459718, 78.40185265279146 -21.199437225144592, 79.15156430255584 -20.67647083276321 M79.15156430255584 -20.67647083276321 C79.60884020354321 -20.31180547034856, 80.06611610453058 -19.947140107933908, 80.4446051765865 -19.64530514498651 M79.15156430255584 -20.67647083276321 C79.54615308730668 -20.361796777372973, 79.94074187205752 -20.04712272198273, 80.4446051765865 -19.64530514498651 M80.4446051765865 -19.64530514498651 C80.77780881510407 -19.342698416570023, 81.11101245362164 -19.04009168815354, 81.66892234701088 -18.533412684464313 M80.4446051765865 -19.64530514498651 C80.81272963635702 -19.310984250662393, 81.18085409612755 -18.97666335633828, 81.66892234701088 -18.533412684464313 M81.66892234701088 -18.533412684464313 C81.92749209201537 -18.26641819377631, 82.18606183701985 -17.999423703088308, 82.81948483196044 -17.345362455817106 M81.66892234701088 -18.533412684464313 C81.92767126859937 -18.26623317924265, 82.18642019018786 -17.999053674020992, 82.81948483196044 -17.345362455817106 M82.81948483196044 -17.345362455817106 C83.17380879014804 -16.929153372925562, 83.52813274833566 -16.512944290034017, 83.89156472338968 -16.086036412270357 M82.81948483196044 -17.345362455817106 C83.12873890621002 -16.98209502314823, 83.43799298045958 -16.618827590479356, 83.89156472338968 -16.086036412270357 M83.89156472338968 -16.086036412270357 C84.16664205047064 -15.717457854041896, 84.4417193775516 -15.348879295813438, 84.88075661506427 -14.76060939466161 M83.89156472338968 -16.086036412270357 C84.13058986092622 -15.765764503609391, 84.36961499846275 -15.445492594948426, 84.88075661506427 -14.76060939466161 M84.88075661506427 -14.76060939466161 C85.10151832165234 -14.421460130523743, 85.3222800282404 -14.082310866385876, 85.78299570532036 -13.374527866909407 M84.88075661506427 -14.76060939466161 C85.12946718308231 -14.378523174047174, 85.37817775110034 -13.996436953432736, 85.78299570532036 -13.374527866909407 M85.78299570532036 -13.374527866909407 C85.95639996741781 -13.066631040469801, 86.12980422951527 -12.758734214030195, 86.5945745002064 -11.93348753532484 M85.78299570532036 -13.374527866909407 C86.08672626666473 -12.835223499188073, 86.3904568280091 -12.29591913146674, 86.5945745002064 -11.93348753532484 M86.5945745002064 -11.93348753532484 C86.7845956330455 -11.538904587183543, 86.9746167658846 -11.144321639042246, 87.31215804837109 -10.443409943732584 M86.5945745002064 -11.93348753532484 C86.82836137446019 -11.44802408869909, 87.06214824871398 -10.962560642073338, 87.31215804837109 -10.443409943732584 M87.31215804837109 -10.443409943732584 C87.52284856858837 -9.92300028537177, 87.73353908880567 -9.402590627010959, 87.93279764509381 -8.910418140577123 M87.31215804837109 -10.443409943732584 C87.51349688342154 -9.946099128536412, 87.71483571847197 -9.448788313340238, 87.93279764509381 -8.910418140577123 M87.93279764509381 -8.910418140577123 C88.09785695383788 -8.413285801269444, 88.26291626258194 -7.916153461961764, 88.4539429491449 -7.340811518003323 M87.93279764509381 -8.910418140577123 C88.12500290900842 -8.331526509416355, 88.31720817292303 -7.752634878255586, 88.4539429491449 -7.340811518003323 M88.4539429491449 -7.340811518003323 C88.5454468652061 -6.991867428013884, 88.6369507812673 -6.642923338024444, 88.87345246268467 -5.741039926302914 M88.4539429491449 -7.340811518003323 C88.59916268008851 -6.787025745285846, 88.7443824110321 -6.23323997256837, 88.87345246268467 -5.741039926302914 M88.87345246268467 -5.741039926302914 C88.97851057371912 -5.201588730180671, 89.08356868475356 -4.662137534058427, 89.18960233113748 -4.117677170096137 M88.87345246268467 -5.741039926302914 C88.998791118495 -5.097452419051103, 89.12412977430536 -4.453864911799291, 89.18960233113748 -4.117677170096137 M89.18960233113748 -4.117677170096137 C89.24076961251451 -3.720833839858389, 89.29193689389156 -3.323990509620641, 89.40109342687991 -2.4773939951584394 M89.18960233113748 -4.117677170096137 C89.24693873287781 -3.67298736055135, 89.30427513461812 -3.2282975510065635, 89.40109342687991 -2.4773939951584394 M89.40109342687991 -2.4773939951584394 C89.4222863410009 -2.147297251111594, 89.4434792551219 -1.8172005070647492, 89.50705668763487 -0.8269306768952902 M89.40109342687991 -2.4773939951584394 C89.42303346357384 -2.135660213971441, 89.44497350026779 -1.7939264327844433, 89.50705668763487 -0.8269306768952902 M89.50705668763487 -0.8269306768952902 C89.50705668763487 -0.4723953346212115, 89.50705668763487 -0.11785999234713285, 89.50705668763487 0.826930676895284 M89.50705668763487 -0.8269306768952902 C89.50705668763487 -0.2641779132039922, 89.50705668763487 0.2985748504873058, 89.50705668763487 0.826930676895284 M89.50705668763487 0.826930676895284 C89.4731162258641 1.3555807652225966, 89.43917576409333 1.884230853549909, 89.40109342687991 2.4773939951584216 M89.50705668763487 0.826930676895284 C89.48135903358668 1.2271923814688646, 89.45566137953848 1.6274540860424453, 89.40109342687991 2.4773939951584216 M89.40109342687991 2.4773939951584216 C89.35353643705464 2.8462366170533464, 89.30597944722938 3.215079238948271, 89.18960233113748 4.117677170096119 M89.40109342687991 2.4773939951584216 C89.35596414425062 2.827407799446346, 89.31083486162133 3.1774216037342704, 89.18960233113748 4.117677170096119 M89.18960233113748 4.117677170096119 C89.10417008612394 4.556353692129263, 89.0187378411104 4.995030214162407, 88.87345246268467 5.741039926302909 M89.18960233113748 4.117677170096119 C89.07428273290314 4.7098189342236845, 88.95896313466882 5.30196069835125, 88.87345246268467 5.741039926302909 M88.87345246268467 5.741039926302909 C88.72373359983284 6.311982838922564, 88.574014736981 6.882925751542219, 88.4539429491449 7.340811518003306 M88.87345246268467 5.741039926302909 C88.70635295876421 6.3782627561347, 88.53925345484376 7.015485585966491, 88.4539429491449 7.340811518003306 M88.4539429491449 7.340811518003306 C88.25398782084748 7.943044505911913, 88.05403269255007 8.54527749382052, 87.93279764509383 8.910418140577105 M88.4539429491449 7.340811518003306 C88.31817810784622 7.749713588805049, 88.18241326654754 8.158615659606793, 87.93279764509383 8.910418140577105 M87.93279764509383 8.910418140577105 C87.72747152292509 9.417577632044427, 87.52214540075633 9.924737123511747, 87.31215804837109 10.443409943732577 M87.93279764509383 8.910418140577105 C87.71105591992345 9.458124488832542, 87.48931419475308 10.00583083708798, 87.31215804837109 10.443409943732577 M87.31215804837109 10.443409943732577 C87.1320862972619 10.817332787829034, 86.95201454615272 11.191255631925493, 86.5945745002064 11.933487535324835 M87.31215804837109 10.443409943732577 C87.04706898237458 10.9938730612717, 86.78197991637808 11.54433617881082, 86.5945745002064 11.933487535324835 M86.5945745002064 11.933487535324835 C86.3386167410971 12.38796645515702, 86.0826589819878 12.842445374989206, 85.78299570532037 13.374527866909402 M86.5945745002064 11.933487535324835 C86.27191786851006 12.506397057428536, 85.94926123681373 13.079306579532236, 85.78299570532037 13.374527866909402 M85.78299570532037 13.374527866909402 C85.54448549174431 13.74094360392227, 85.30597527816826 14.107359340935139, 84.88075661506429 14.760609394661596 M85.78299570532037 13.374527866909402 C85.58871312630573 13.672998080453137, 85.39443054729111 13.971468293996873, 84.88075661506429 14.760609394661596 M84.88075661506429 14.760609394661596 C84.59106563906379 15.148768911111436, 84.30137466306327 15.536928427561275, 83.89156472338968 16.086036412270353 M84.88075661506429 14.760609394661596 C84.54291127166414 15.213291376473839, 84.20506592826399 15.665973358286081, 83.89156472338968 16.086036412270353 M83.89156472338968 16.086036412270353 C83.54936917236061 16.487998777987546, 83.20717362133156 16.88996114370474, 82.81948483196045 17.345362455817092 M83.89156472338968 16.086036412270353 C83.47299929473901 16.577707181811018, 83.05443386608836 17.069377951351687, 82.81948483196045 17.345362455817092 M82.81948483196045 17.345362455817092 C82.43842326984192 17.738839804440563, 82.05736170772337 18.132317153064033, 81.66892234701088 18.533412684464306 M82.81948483196045 17.345362455817092 C82.53227293308765 17.641932321938693, 82.24506103421486 17.938502188060294, 81.66892234701088 18.533412684464306 M81.66892234701088 18.533412684464306 C81.23251970162364 18.929742020423728, 80.79611705623641 19.326071356383153, 80.44460517658653 19.64530514498649 M81.66892234701088 18.533412684464306 C81.33665400851974 18.83516999814347, 81.00438567002861 19.136927311822635, 80.44460517658653 19.64530514498649 M80.44460517658653 19.64530514498649 C80.03783312832297 19.969695028817874, 79.6310610800594 20.294084912649254, 79.15156430255584 20.676470832763208 M80.44460517658653 19.64530514498649 C79.93056105555246 20.055241652222605, 79.4165169345184 20.465178159458716, 79.15156430255584 20.676470832763208 M79.15156430255584 20.676470832763208 C78.7949395682882 20.92523680935239, 78.43831483402055 21.17400278594157, 77.79511310722665 21.622672466799003 M79.15156430255584 20.676470832763208 C78.82994309431965 20.900819864871067, 78.50832188608345 21.12516889697893, 77.79511310722665 21.622672466799003 M77.79511310722665 21.622672466799003 C77.41140897336442 21.85527616764207, 77.02770483950219 22.08787986848514, 76.38082553951841 22.48002190162003 M77.79511310722665 21.622672466799003 C77.38212789339532 21.873026530394068, 76.96914267956397 22.123380593989133, 76.38082553951841 22.48002190162003 M76.38082553951841 22.48002190162003 C75.85562188358492 22.754020312511535, 75.33041822765144 23.028018723403036, 74.91451321041058 23.244996104497716 M76.38082553951841 22.48002190162003 C75.86428998463299 22.74949816974694, 75.34775442974758 23.018974437873847, 74.91451321041058 23.244996104497716 M74.91451321041058 23.244996104497716 C74.58105471541732 23.392608288536426, 74.24759622042407 23.540220472575136, 73.40220151178644 23.914451632345994 M74.91451321041058 23.244996104497716 C74.58015450105853 23.393006786729153, 74.24579579170648 23.54101746896059, 73.40220151178644 23.914451632345994 M73.40220151178644 23.914451632345994 C73.03574587721373 24.049310693347508, 72.66929024264101 24.184169754349018, 71.85010485680553 24.485637548803172 M73.40220151178644 23.914451632345994 C73.04602062467364 24.045529491303533, 72.68983973756085 24.176607350261072, 71.85010485680553 24.485637548803172 M71.85010485680553 24.485637548803172 C71.46941357054179 24.59862472427691, 71.08872228427806 24.71161189975065, 70.26460114354681 24.95620672841954 M71.85010485680553 24.485637548803172 C71.27362451649927 24.656733887799017, 70.697144176193 24.827830226794863, 70.26460114354681 24.95620672841954 M70.26460114354681 24.95620672841954 C69.76009597922301 25.07135673997258, 69.25559081489921 25.18650675152562, 68.65220554685754 25.324225501499278 M70.26460114354681 24.95620672841954 C69.90317887920212 25.038699001755532, 69.54175661485742 25.12119127509152, 68.65220554685754 25.324225501499278 M68.65220554685754 25.324225501499278 C68.16643901503703 25.4027604671883, 67.68067248321651 25.481295432877324, 67.01954374610233 25.588181599964017 M68.65220554685754 25.324225501499278 C68.01393433892855 25.427416240530093, 67.37566313099957 25.530606979560908, 67.01954374610233 25.588181599964017 M67.01954374610233 25.588181599964017 C66.55304162839458 25.6331844982084, 66.08653951068683 25.67818739645279, 65.37332469882529 25.746990371586765 M67.01954374610233 25.588181599964017 C66.67216505415315 25.621692804592353, 66.32478636220398 25.65520400922069, 65.37332469882529 25.746990371586765 M65.37332469882529 25.746990371586765 C64.71238124905788 25.768185541572425, 64.05143779929048 25.789380711558085, 63.7203130722046 25.799999237060547 M65.37332469882529 25.746990371586765 C64.91109785087124 25.761813086930673, 64.44887100291722 25.776635802274576, 63.7203130722046 25.799999237060547 M63.7203130722046 25.799999237060547 C63.7203130722046 25.799999237060547, 63.72031307220459 25.799999237060547, 63.72031307220459 25.799999237060547 M63.7203130722046 25.799999237060547 C63.7203130722046 25.799999237060547, 63.72031307220459 25.799999237060547, 63.72031307220459 25.799999237060547 M63.72031307220459 25.799999237060547 C14.495892698539599 25.799999237060547, -34.72852767512539 25.799999237060547, -63.72031307220458 25.799999237060547 M63.72031307220459 25.799999237060547 C32.45055437451062 25.799999237060547, 1.1807956768166505 25.799999237060547, -63.72031307220458 25.799999237060547 M-63.72031307220458 25.799999237060547 C-64.17447204936501 25.785435242629834, -64.62863102652543 25.77087124819912, -65.37332469882527 25.746990371586765 M-63.72031307220458 25.799999237060547 C-64.09869717096208 25.787865195493364, -64.47708126971959 25.775731153926177, -65.37332469882527 25.746990371586765 M-65.37332469882527 25.746990371586765 C-65.8380755585982 25.702156415089156, -66.30282641837114 25.657322458591544, -67.01954374610231 25.588181599964017 M-65.37332469882527 25.746990371586765 C-65.70727950604136 25.714774152974044, -66.04123431325746 25.682557934361327, -67.01954374610231 25.588181599964017 M-67.01954374610231 25.588181599964017 C-67.35810994096548 25.533444843198595, -67.69667613582862 25.478708086433176, -68.65220554685753 25.324225501499278 M-67.01954374610231 25.588181599964017 C-67.53212336532278 25.505311702242768, -68.04470298454325 25.42244180452152, -68.65220554685753 25.324225501499278 M-68.65220554685753 25.324225501499278 C-69.09835196183953 25.22239549365708, -69.54449837682151 25.12056548581488, -70.26460114354678 24.956206728419545 M-68.65220554685753 25.324225501499278 C-69.00370278906058 25.243998549700297, -69.35520003126365 25.163771597901313, -70.26460114354678 24.956206728419545 M-70.26460114354678 24.956206728419545 C-70.6176217119979 24.851432076746033, -70.97064228044901 24.74665742507252, -71.8501048568055 24.485637548803183 M-70.26460114354678 24.956206728419545 C-70.58315015321267 24.86166305444858, -70.90169916287857 24.76711938047762, -71.8501048568055 24.485637548803183 M-71.8501048568055 24.485637548803183 C-72.39439135499458 24.285335086140368, -72.93867785318366 24.08503262347755, -73.40220151178644 23.914451632345997 M-71.8501048568055 24.485637548803183 C-72.23851575191799 24.342698748970832, -72.62692664703047 24.199759949138482, -73.40220151178644 23.914451632345997 M-73.40220151178644 23.914451632345997 C-73.80589577466782 23.735748157333244, -74.20959003754919 23.557044682320488, -74.91451321041056 23.244996104497723 M-73.40220151178644 23.914451632345997 C-73.71044121667262 23.778003058598863, -74.01868092155878 23.641554484851728, -74.91451321041056 23.244996104497723 M-74.91451321041056 23.244996104497723 C-75.43491887595117 22.973500802120924, -75.95532454149178 22.70200549974413, -76.3808255395184 22.480021901620038 M-74.91451321041056 23.244996104497723 C-75.31221401431752 23.037515849838986, -75.70991481822448 22.83003559518025, -76.3808255395184 22.480021901620038 M-76.3808255395184 22.480021901620038 C-76.7199518667184 22.274441529143882, -77.05907819391841 22.068861156667726, -77.79511310722663 21.622672466799017 M-76.3808255395184 22.480021901620038 C-76.7938338776184 22.22965381995742, -77.20684221571838 21.979285738294802, -77.79511310722663 21.622672466799017 M-77.79511310722663 21.622672466799017 C-78.28397274942039 21.28166514279748, -78.77283239161416 20.940657818795945, -79.15156430255584 20.67647083276321 M-77.79511310722663 21.622672466799017 C-78.08801130114387 21.418359366080807, -78.38090949506112 21.214046265362597, -79.15156430255584 20.67647083276321 M-79.15156430255584 20.67647083276321 C-79.61668998812715 20.305545476034407, -80.08181567369846 19.934620119305603, -80.4446051765865 19.645305144986512 M-79.15156430255584 20.67647083276321 C-79.62993256786076 20.2949848710967, -80.10830083316569 19.913498909430185, -80.4446051765865 19.645305144986512 M-80.4446051765865 19.645305144986512 C-80.7351277662639 19.381460215848, -81.0256503559413 19.117615286709487, -81.66892234701086 18.533412684464324 M-80.4446051765865 19.645305144986512 C-80.73391707612535 19.38255973259873, -81.0232289756642 19.119814320210946, -81.66892234701086 18.533412684464324 M-81.66892234701086 18.533412684464324 C-82.04128412811446 18.148918574004085, -82.41364590921805 17.764424463543847, -82.81948483196044 17.3453624558171 M-81.66892234701086 18.533412684464324 C-82.07245908697297 18.11672786947095, -82.47599582693508 17.70004305447757, -82.81948483196044 17.3453624558171 M-82.81948483196044 17.3453624558171 C-83.0993961641971 17.01656267756591, -83.37930749643377 16.68776289931472, -83.89156472338968 16.08603641227036 M-82.81948483196044 17.3453624558171 C-83.040319223759 17.08595781337765, -83.26115361555755 16.8265531709382, -83.89156472338968 16.08603641227036 M-83.89156472338968 16.08603641227036 C-84.27636816016334 15.570434863307906, -84.66117159693702 15.05483331434545, -84.88075661506427 14.760609394661614 M-83.89156472338968 16.08603641227036 C-84.0941654703215 15.814569868689464, -84.29676621725332 15.543103325108566, -84.88075661506427 14.760609394661614 M-84.88075661506427 14.760609394661614 C-85.22297056010528 14.234876877767537, -85.5651845051463 13.70914436087346, -85.78299570532036 13.374527866909418 M-84.88075661506427 14.760609394661614 C-85.08454973040602 14.44752844338284, -85.28834284574778 14.134447492104066, -85.78299570532036 13.374527866909418 M-85.78299570532036 13.374527866909418 C-86.10527873335872 12.802281715931928, -86.42756176139709 12.230035564954438, -86.59457450020639 11.933487535324842 M-85.78299570532036 13.374527866909418 C-86.02522426678935 12.944426527719612, -86.26745282825834 12.514325188529806, -86.59457450020639 11.933487535324842 M-86.59457450020639 11.933487535324842 C-86.87571819587527 11.349686635757003, -87.15686189154415 10.765885736189164, -87.31215804837109 10.443409943732586 M-86.59457450020639 11.933487535324842 C-86.75971469229096 11.590570393027182, -86.92485488437552 11.247653250729524, -87.31215804837109 10.443409943732586 M-87.31215804837109 10.443409943732586 C-87.47925927507647 10.030666683087857, -87.64636050178184 9.617923422443127, -87.93279764509381 8.910418140577127 M-87.31215804837109 10.443409943732586 C-87.49939580862862 9.980929055900644, -87.68663356888615 9.518448168068701, -87.93279764509381 8.910418140577127 M-87.93279764509381 8.910418140577127 C-88.0631119684512 8.517932161392487, -88.19342629180858 8.125446182207849, -88.4539429491449 7.340811518003316 M-87.93279764509381 8.910418140577127 C-88.1355311581436 8.29981710046987, -88.3382646711934 7.689216060362613, -88.4539429491449 7.340811518003316 M-88.4539429491449 7.340811518003316 C-88.61358879835561 6.732012704014181, -88.77323464756631 6.1232138900250455, -88.87345246268467 5.741039926302918 M-88.4539429491449 7.340811518003316 C-88.61384959841774 6.731018160345794, -88.77375624769059 6.121224802688271, -88.87345246268467 5.741039926302918 M-88.87345246268467 5.741039926302918 C-88.96953868618358 5.247657476466552, -89.06562490968248 4.754275026630185, -89.18960233113748 4.117677170096139 M-88.87345246268467 5.741039926302918 C-88.98428656496273 5.171930235900906, -89.09512066724079 4.602820545498893, -89.18960233113748 4.117677170096139 M-89.18960233113748 4.117677170096139 C-89.2583241690251 3.584684166101542, -89.32704600691272 3.0516911621069447, -89.40109342687991 2.477393995158454 M-89.18960233113748 4.117677170096139 C-89.24808366127425 3.664107522000225, -89.30656499141101 3.2105378739043102, -89.40109342687991 2.477393995158454 M-89.40109342687991 2.477393995158454 C-89.43874993777304 1.890863442209509, -89.47640644866617 1.304332889260564, -89.50705668763487 0.8269306768952934 M-89.40109342687991 2.477393995158454 C-89.44183299795263 1.8428422913109617, -89.48257256902535 1.208290587463469, -89.50705668763487 0.8269306768952934 M-89.50705668763487 0.8269306768952934 C-89.50705668763487 0.26714738629572266, -89.50705668763487 -0.2926359043038481, -89.50705668763487 -0.8269306768952809 M-89.50705668763487 0.8269306768952934 C-89.50705668763487 0.3460962894168859, -89.50705668763487 -0.1347380980615216, -89.50705668763487 -0.8269306768952809 M-89.50705668763487 -0.8269306768952809 C-89.48063246419275 -1.2385092862554687, -89.45420824075065 -1.6500878956156566, -89.40109342687991 -2.4773939951584185 M-89.50705668763487 -0.8269306768952809 C-89.4678533775915 -1.437553875163278, -89.4286500675481 -2.048177073431275, -89.40109342687991 -2.4773939951584185 M-89.40109342687991 -2.4773939951584185 C-89.354749959227 -2.836824778721656, -89.30840649157408 -3.196255562284893, -89.18960233113748 -4.117677170096128 M-89.40109342687991 -2.4773939951584185 C-89.34321491781593 -2.9262882820543594, -89.28533640875193 -3.3751825689503008, -89.18960233113748 -4.117677170096128 M-89.18960233113748 -4.117677170096128 C-89.095691027208 -4.599891867612875, -89.00177972327852 -5.0821065651296236, -88.87345246268467 -5.741039926302906 M-89.18960233113748 -4.117677170096128 C-89.10562654364942 -4.548875090558289, -89.02165075616138 -4.980073011020449, -88.87345246268467 -5.741039926302906 M-88.87345246268467 -5.741039926302906 C-88.73938323643466 -6.252303991964407, -88.60531401018464 -6.763568057625908, -88.4539429491449 -7.340811518003303 M-88.87345246268467 -5.741039926302906 C-88.7596921456729 -6.174857319102071, -88.64593182866112 -6.608674711901237, -88.4539429491449 -7.340811518003303 M-88.4539429491449 -7.340811518003303 C-88.29979720875744 -7.805073928261884, -88.14565146836999 -8.269336338520466, -87.93279764509383 -8.910418140577093 M-88.4539429491449 -7.340811518003303 C-88.33096475895492 -7.711202232941816, -88.20798656876495 -8.08159294788033, -87.93279764509383 -8.910418140577093 M-87.93279764509383 -8.910418140577093 C-87.76413147768754 -9.327026835009141, -87.59546531028124 -9.743635529441189, -87.31215804837109 -10.443409943732574 M-87.93279764509383 -8.910418140577093 C-87.77917588993296 -9.289866845899022, -87.62555413477209 -9.669315551220953, -87.31215804837109 -10.443409943732574 M-87.31215804837109 -10.443409943732574 C-87.0887081338576 -10.907408472282096, -86.86525821934411 -11.371407000831617, -86.5945745002064 -11.933487535324831 M-87.31215804837109 -10.443409943732574 C-87.16170375062721 -10.755831512203997, -87.01124945288333 -11.06825308067542, -86.5945745002064 -11.933487535324831 M-86.5945745002064 -11.933487535324831 C-86.3118442247828 -12.435503768884308, -86.0291139493592 -12.937520002443783, -85.78299570532036 -13.374527866909409 M-86.5945745002064 -11.933487535324831 C-86.35747646314306 -12.354479108910473, -86.12037842607971 -12.775470682496115, -85.78299570532036 -13.374527866909409 M-85.78299570532036 -13.374527866909409 C-85.46990014783489 -13.855526721136293, -85.15680459034944 -14.336525575363176, -84.88075661506429 -14.760609394661605 M-85.78299570532036 -13.374527866909409 C-85.45668066155149 -13.875835401996712, -85.13036561778262 -14.377142937084015, -84.88075661506429 -14.760609394661605 M-84.88075661506429 -14.760609394661605 C-84.59700914719406 -15.140805151681601, -84.31326167932383 -15.521000908701597, -83.89156472338968 -16.086036412270353 M-84.88075661506429 -14.760609394661605 C-84.57264623734937 -15.173449231366725, -84.26453585963448 -15.586289068071844, -83.89156472338968 -16.086036412270353 M-83.89156472338968 -16.086036412270353 C-83.48614021011231 -16.562271114874275, -83.08071569683496 -17.038505817478196, -82.81948483196045 -17.345362455817092 M-83.89156472338968 -16.086036412270353 C-83.50620641407454 -16.538700209900895, -83.1208481047594 -16.991364007531438, -82.81948483196045 -17.345362455817092 M-82.81948483196045 -17.345362455817092 C-82.55787319582848 -17.615497948838133, -82.2962615596965 -17.885633441859177, -81.66892234701089 -18.5334126844643 M-82.81948483196045 -17.345362455817092 C-82.5185942339429 -17.656056701847724, -82.21770363592537 -17.966750947878353, -81.66892234701089 -18.5334126844643 M-81.66892234701089 -18.5334126844643 C-81.33954944097154 -18.832540442999697, -81.01017653493219 -19.131668201535096, -80.44460517658653 -19.645305144986487 M-81.66892234701089 -18.5334126844643 C-81.34540733809858 -18.82722045582038, -81.02189232918627 -19.121028227176467, -80.44460517658653 -19.645305144986487 M-80.44460517658653 -19.645305144986487 C-79.94597019649598 -20.04295327237462, -79.4473352164054 -20.440601399762755, -79.15156430255585 -20.676470832763204 M-80.44460517658653 -19.645305144986487 C-80.05190498829262 -19.95847309496, -79.65920479999869 -20.27164104493351, -79.15156430255585 -20.676470832763204 M-79.15156430255585 -20.676470832763204 C-78.73663695036231 -20.965906191737833, -78.32170959816878 -21.255341550712462, -77.79511310722665 -21.622672466799 M-79.15156430255585 -20.676470832763204 C-78.76247603129936 -20.94788196743194, -78.37338776004286 -21.21929310210067, -77.79511310722665 -21.622672466799 M-77.79511310722665 -21.622672466799 C-77.37198968827471 -21.87917236991688, -76.94886626932276 -22.135672273034764, -76.38082553951841 -22.480021901620027 M-77.79511310722665 -21.622672466799 C-77.46426662167063 -21.823233550612823, -77.13342013611461 -22.023794634426647, -76.38082553951841 -22.480021901620027 M-76.38082553951841 -22.480021901620027 C-75.90334922348788 -22.72912098985498, -75.42587290745735 -22.978220078089933, -74.91451321041058 -23.244996104497716 M-76.38082553951841 -22.480021901620027 C-76.01791738675064 -22.669350852465207, -75.65500923398287 -22.858679803310388, -74.91451321041058 -23.244996104497716 M-74.91451321041058 -23.244996104497716 C-74.33679581615777 -23.500734457555822, -73.75907842190497 -23.75647281061393, -73.40220151178646 -23.91445163234599 M-74.91451321041058 -23.244996104497716 C-74.34312247161283 -23.497933834859435, -73.77173173281508 -23.75087156522115, -73.40220151178646 -23.91445163234599 M-73.40220151178646 -23.91445163234599 C-72.79445516700662 -24.138107905170596, -72.18670882222678 -24.361764177995205, -71.85010485680553 -24.485637548803172 M-73.40220151178646 -23.91445163234599 C-72.9762328119358 -24.071212051502528, -72.55026411208516 -24.22797247065906, -71.85010485680553 -24.485637548803172 M-71.85010485680553 -24.485637548803172 C-71.34825828502775 -24.634582977060404, -70.84641171324998 -24.783528405317636, -70.26460114354681 -24.956206728419538 M-71.85010485680553 -24.485637548803172 C-71.46736380948217 -24.599233082599994, -71.08462276215879 -24.712828616396813, -70.26460114354681 -24.956206728419538 M-70.26460114354681 -24.956206728419538 C-69.9341877852164 -25.03162142130979, -69.60377442688598 -25.107036114200046, -68.65220554685754 -25.324225501499278 M-70.26460114354681 -24.956206728419538 C-69.73845175615429 -25.076296892646255, -69.21230236876177 -25.196387056872975, -68.65220554685754 -25.324225501499278 M-68.65220554685754 -25.324225501499278 C-68.2566571261794 -25.388174702630703, -67.86110870550127 -25.45212390376213, -67.01954374610233 -25.588181599964017 M-68.65220554685754 -25.324225501499278 C-68.20138731132185 -25.397110297673056, -67.75056907578616 -25.469995093846833, -67.01954374610233 -25.588181599964017 M-67.01954374610233 -25.588181599964017 C-66.45342646850816 -25.642794252877888, -65.88730919091398 -25.69740690579176, -65.37332469882529 -25.746990371586765 M-67.01954374610233 -25.588181599964017 C-66.55728216454706 -25.632775418785766, -66.09502058299178 -25.67736923760751, -65.37332469882529 -25.746990371586765 M-65.37332469882529 -25.746990371586765 C-64.81389157358689 -25.76493030304264, -64.25445844834847 -25.782870234498514, -63.7203130722046 -25.799999237060547 M-65.37332469882529 -25.746990371586765 C-64.74680405398297 -25.767081669218403, -64.12028340914065 -25.78717296685004, -63.7203130722046 -25.799999237060547 M-63.7203130722046 -25.799999237060547 C-63.7203130722046 -25.799999237060547, -63.72031307220459 -25.799999237060547, -63.72031307220459 -25.799999237060547 M-63.7203130722046 -25.799999237060547 C-63.7203130722046 -25.799999237060547, -63.72031307220459 -25.799999237060547, -63.72031307220459 -25.799999237060547" stroke="#555555" stroke-width="1.3" fill="none" stroke-dasharray="0 0" style=""></path></g><g class="label" style="" transform="translate(0, -18.299999237060547)"><rect></rect><g><rect class="background" style="stroke: none"></rect><text y="-10.1" style=""><tspan class="text-outer-tspan row" x="0" y="-0.1em" dy="1.1em"><tspan font-style="normal" class="text-inner-tspan" font-weight="normal">SERVFAIL</tspan><tspan font-style="normal" class="text-inner-tspan" font-weight="normal"> observed</tspan><tspan font-style="normal" class="text-inner-tspan" font-weight="normal"> at</tspan></tspan><tspan class="text-outer-tspan row" x="0" y="1em" dy="1.1em"><tspan font-style="normal" class="text-inner-tspan" font-weight="normal">resolver</tspan></tspan></text></g></g></g><g class="node default" id="gd64d76f1-45ac-4fb5-b168-d31c7504a9df-dark-flowchart-CD-1" data-look="classic" transform="translate(985.9453086853027, 197.1859359741211)"><polygon points="87.5859375,0 175.171875,-87.5859375 87.5859375,-175.171875 0,-87.5859375" class="label-container" transform="translate(-87.0859375, 87.5859375)"></polygon><g class="label" style="" transform="translate(0, -9.5)"><rect></rect><g><rect class="background" style="stroke: none"></rect><text y="-10.1" style=""><tspan class="text-outer-tspan row" x="0" y="-0.1em" dy="1.1em"><tspan font-style="normal" class="text-inner-tspan" font-weight="normal">dig</tspan><tspan font-style="normal" class="text-inner-tspan" font-weight="normal"> +cd</tspan><tspan font-style="normal" class="text-inner-tspan" font-weight="normal"> succeeds?</tspan></tspan></text></g></g></g><g class="node default" id="gd64d76f1-45ac-4fb5-b168-d31c7504a9df-dark-flowchart-NotDNSSEC-2" data-look="classic" transform="translate(835.3031196594238, 480.6812515258789)"><rect class="basic label-container" style="" x="-128.375" y="-50.900001525878906" width="256.75" height="101.80000305175781"></rect><g class="label" style="" transform="translate(0, -35.900001525878906)"><rect></rect><g><rect class="background" style="stroke: none"></rect><text y="-10.1" style=""><tspan class="text-outer-tspan row" x="0" y="-0.1em" dy="1.1em"><tspan font-style="normal" class="text-inner-tspan" font-weight="normal">Not</tspan><tspan font-style="normal" class="text-inner-tspan" font-weight="normal"> DNSSEC.</tspan></tspan><tspan class="text-outer-tspan row" x="0" y="1em" dy="1.1em"><tspan font-style="normal" class="text-inner-tspan" font-weight="normal">Suspect</tspan><tspan font-style="normal" class="text-inner-tspan" font-weight="normal"> authoritative,</tspan></tspan><tspan class="text-outer-tspan row" x="0" y="2.1em" dy="1.1em"><tspan font-style="normal" class="text-inner-tspan" font-weight="normal">network,</tspan><tspan font-style="normal" class="text-inner-tspan" font-weight="normal"> or</tspan><tspan font-style="normal" class="text-inner-tspan" font-weight="normal"> RRL.</tspan></tspan><tspan class="text-outer-tspan row" x="0" y="3.2em" dy="1.1em"><tspan font-style="normal" class="text-inner-tspan" font-weight="normal">Use</tspan><tspan font-style="normal" class="text-inner-tspan" font-weight="normal"> +trace</tspan><tspan font-style="normal" class="text-inner-tspan" font-weight="normal"> and</tspan><tspan font-style="normal" class="text-inner-tspan" font-weight="normal"> +norecurse.</tspan></tspan></text></g></g></g><g class="node default" id="gd64d76f1-45ac-4fb5-b168-d31c7504a9df-dark-flowchart-EDE-3" data-look="classic" transform="translate(1136.5874977111816, 480.6812515258789)"><polygon points="122.90937423706055,0 245.8187484741211,-122.90937423706055 122.90937423706055,-245.8187484741211 0,-122.90937423706055" class="label-container" transform="translate(-122.40937423706055, 122.90937423706055)"></polygon><g class="label" style="" transform="translate(0, -18.299999237060547)"><rect></rect><g><rect class="background" style="stroke: none"></rect><text y="-10.1" style=""><tspan class="text-outer-tspan row" x="0" y="-0.1em" dy="1.1em"><tspan font-style="normal" class="text-inner-tspan" font-weight="normal">EDE</tspan><tspan font-style="normal" class="text-inner-tspan" font-weight="normal"> present</tspan><tspan font-style="normal" class="text-inner-tspan" font-weight="normal"> in</tspan><tspan font-style="normal" class="text-inner-tspan" font-weight="normal"> response?</tspan></tspan><tspan class="text-outer-tspan row" x="0" y="1em" dy="1.1em"><tspan font-style="normal" class="text-inner-tspan" font-weight="normal">(dig</tspan><tspan font-style="normal" class="text-inner-tspan" font-weight="normal"> OPT</tspan><tspan font-style="normal" class="text-inner-tspan" font-weight="normal"> pseudo-section)</tspan></tspan></text></g></g></g><g class="node default" id="gd64d76f1-45ac-4fb5-b168-d31c7504a9df-dark-flowchart-DELV-4" data-look="classic" transform="translate(1584.0992164611816, 1188.2609405517578)"><rect class="basic label-container" style="" x="-89.875" y="-42.099998474121094" width="179.75" height="84.19999694824219"></rect><g class="label" style="" transform="translate(0, -27.099998474121094)"><rect></rect><g><rect class="background" style="stroke: none"></rect><text y="-10.1" style=""><tspan class="text-outer-tspan row" x="0" y="-0.1em" dy="1.1em"><tspan font-style="normal" class="text-inner-tspan" font-weight="normal">Run</tspan><tspan font-style="normal" class="text-inner-tspan" font-weight="normal"> delv</tspan><tspan font-style="normal" class="text-inner-tspan" font-weight="normal"> +rtrace</tspan></tspan><tspan class="text-outer-tspan row" x="0" y="1em" dy="1.1em"><tspan font-style="normal" class="text-inner-tspan" font-weight="normal">and</tspan><tspan font-style="normal" class="text-inner-tspan" font-weight="normal"> delv</tspan><tspan font-style="normal" class="text-inner-tspan" font-weight="normal"> +vtrace</tspan></tspan><tspan class="text-outer-tspan row" x="0" y="2.1em" dy="1.1em"><tspan font-style="normal" class="text-inner-tspan" font-weight="normal">for</tspan><tspan font-style="normal" class="text-inner-tspan" font-weight="normal"> chain</tspan><tspan font-style="normal" class="text-inner-tspan" font-weight="normal"> detail.</tspan></tspan></text></g></g></g><g class="node default" id="gd64d76f1-45ac-4fb5-b168-d31c7504a9df-dark-flowchart-Code-5" data-look="classic" transform="translate(726.1484375, 764.8796920776367)"><polygon points="88.2890625,0 176.578125,-88.2890625 88.2890625,-176.578125 0,-88.2890625" class="label-container" transform="translate(-87.7890625, 88.2890625)"></polygon><g class="label" style="" transform="translate(0, -9.5)"><rect></rect><g><rect class="background" style="stroke: none"></rect><text y="-10.1" style=""><tspan class="text-outer-tspan row" x="0" y="-0.1em" dy="1.1em"><tspan font-style="normal" class="text-inner-tspan" font-weight="normal">INFO-CODE</tspan><tspan font-style="normal" class="text-inner-tspan" font-weight="normal"> value?</tspan></tspan></text></g></g></g><g class="node default" id="gd64d76f1-45ac-4fb5-b168-d31c7504a9df-dark-flowchart-E7-6" data-look="classic" transform="translate(134.8359375, 977.0687561035156)"><rect class="basic label-container" style="" x="-126.8359375" y="-42.099998474121094" width="253.671875" height="84.19999694824219"></rect><g class="label" style="" transform="translate(0, -27.099998474121094)"><rect></rect><g><rect class="background" style="stroke: none"></rect><text y="-10.1" style=""><tspan class="text-outer-tspan row" x="0" y="-0.1em" dy="1.1em"><tspan font-style="normal" class="text-inner-tspan" font-weight="normal">EDE</tspan><tspan font-style="normal" class="text-inner-tspan" font-weight="normal"> 7</tspan><tspan font-style="normal" class="text-inner-tspan" font-weight="normal"> —</tspan><tspan font-style="normal" class="text-inner-tspan" font-weight="normal"> Signature</tspan><tspan font-style="normal" class="text-inner-tspan" font-weight="normal"> Expired.</tspan></tspan><tspan class="text-outer-tspan row" x="0" y="1em" dy="1.1em"><tspan font-style="normal" class="text-inner-tspan" font-weight="normal">Re-sign</tspan><tspan font-style="normal" class="text-inner-tspan" font-weight="normal"> zone;</tspan><tspan font-style="normal" class="text-inner-tspan" font-weight="normal"> check</tspan></tspan><tspan class="text-outer-tspan row" x="0" y="2.1em" dy="1.1em"><tspan font-style="normal" class="text-inner-tspan" font-weight="normal">auto-resigner</tspan><tspan font-style="normal" class="text-inner-tspan" font-weight="normal"> /</tspan><tspan font-style="normal" class="text-inner-tspan" font-weight="normal"> scheduler.</tspan></tspan></text></g></g></g><g class="node default" id="gd64d76f1-45ac-4fb5-b168-d31c7504a9df-dark-flowchart-E8-7" data-look="classic" transform="translate(434.703125, 977.0687561035156)"><rect class="basic label-container" style="" x="-123.03125" y="-50.900001525878906" width="246.0625" height="101.80000305175781"></rect><g class="label" style="" transform="translate(0, -35.900001525878906)"><rect></rect><g><rect class="background" style="stroke: none"></rect><text y="-10.1" style=""><tspan class="text-outer-tspan row" x="0" y="-0.1em" dy="1.1em"><tspan font-style="normal" class="text-inner-tspan" font-weight="normal">EDE</tspan><tspan font-style="normal" class="text-inner-tspan" font-weight="normal"> 8</tspan><tspan font-style="normal" class="text-inner-tspan" font-weight="normal"> —</tspan><tspan font-style="normal" class="text-inner-tspan" font-weight="normal"> Signature</tspan><tspan font-style="normal" class="text-inner-tspan" font-weight="normal"> Not</tspan><tspan font-style="normal" class="text-inner-tspan" font-weight="normal"> Yet</tspan></tspan><tspan class="text-outer-tspan row" x="0" y="1em" dy="1.1em"><tspan font-style="normal" class="text-inner-tspan" font-weight="normal">Valid.</tspan></tspan><tspan class="text-outer-tspan row" x="0" y="2.1em" dy="1.1em"><tspan font-style="normal" class="text-inner-tspan" font-weight="normal">Check</tspan><tspan font-style="normal" class="text-inner-tspan" font-weight="normal"> inception</tspan><tspan font-style="normal" class="text-inner-tspan" font-weight="normal"> time,</tspan></tspan><tspan class="text-outer-tspan row" x="0" y="3.2em" dy="1.1em"><tspan font-style="normal" class="text-inner-tspan" font-weight="normal">signer</tspan><tspan font-style="normal" class="text-inner-tspan" font-weight="normal"> clock</tspan><tspan font-style="normal" class="text-inner-tspan" font-weight="normal"> skew.</tspan></tspan></text></g></g></g><g class="node default" id="gd64d76f1-45ac-4fb5-b168-d31c7504a9df-dark-flowchart-E9-8" data-look="classic" transform="translate(726.1484375, 977.0687561035156)"><rect class="basic label-container" style="" x="-118.4140625" y="-42.099998474121094" width="236.828125" height="84.19999694824219"></rect><g class="label" style="" transform="translate(0, -27.099998474121094)"><rect></rect><g><rect class="background" style="stroke: none"></rect><text y="-10.1" style=""><tspan class="text-outer-tspan row" x="0" y="-0.1em" dy="1.1em"><tspan font-style="normal" class="text-inner-tspan" font-weight="normal">EDE</tspan><tspan font-style="normal" class="text-inner-tspan" font-weight="normal"> 9</tspan><tspan font-style="normal" class="text-inner-tspan" font-weight="normal"> —</tspan><tspan font-style="normal" class="text-inner-tspan" font-weight="normal"> DNSKEY</tspan><tspan font-style="normal" class="text-inner-tspan" font-weight="normal"> Missing.</tspan></tspan><tspan class="text-outer-tspan row" x="0" y="1em" dy="1.1em"><tspan font-style="normal" class="text-inner-tspan" font-weight="normal">DNSKEY</tspan><tspan font-style="normal" class="text-inner-tspan" font-weight="normal"> RRset</tspan><tspan font-style="normal" class="text-inner-tspan" font-weight="normal"> removed</tspan></tspan><tspan class="text-outer-tspan row" x="0" y="2.1em" dy="1.1em"><tspan font-style="normal" class="text-inner-tspan" font-weight="normal">before</tspan><tspan font-style="normal" class="text-inner-tspan" font-weight="normal"> RRSIGs</tspan><tspan font-style="normal" class="text-inner-tspan" font-weight="normal"> rotated.</tspan></tspan></text></g></g></g><g class="node default" id="gd64d76f1-45ac-4fb5-b168-d31c7504a9df-dark-flowchart-E10-9" data-look="classic" transform="translate(1014.03125, 977.0687561035156)"><rect class="basic label-container" style="" x="-119.46875" y="-42.099998474121094" width="238.9375" height="84.19999694824219"></rect><g class="label" style="" transform="translate(0, -27.099998474121094)"><rect></rect><g><rect class="background" style="stroke: none"></rect><text y="-10.1" style=""><tspan class="text-outer-tspan row" x="0" y="-0.1em" dy="1.1em"><tspan font-style="normal" class="text-inner-tspan" font-weight="normal">EDE</tspan><tspan font-style="normal" class="text-inner-tspan" font-weight="normal"> 10</tspan><tspan font-style="normal" class="text-inner-tspan" font-weight="normal"> —</tspan><tspan font-style="normal" class="text-inner-tspan" font-weight="normal"> RRSIGs</tspan><tspan font-style="normal" class="text-inner-tspan" font-weight="normal"> Missing.</tspan></tspan><tspan class="text-outer-tspan row" x="0" y="1em" dy="1.1em"><tspan font-style="normal" class="text-inner-tspan" font-weight="normal">Zone</tspan><tspan font-style="normal" class="text-inner-tspan" font-weight="normal"> served</tspan><tspan font-style="normal" class="text-inner-tspan" font-weight="normal"> unsigned</tspan></tspan><tspan class="text-outer-tspan row" x="0" y="2.1em" dy="1.1em"><tspan font-style="normal" class="text-inner-tspan" font-weight="normal">or</tspan><tspan font-style="normal" class="text-inner-tspan" font-weight="normal"> partial</tspan><tspan font-style="normal" class="text-inner-tspan" font-weight="normal"> sign.</tspan></tspan></text></g></g></g><g class="node default" id="gd64d76f1-45ac-4fb5-b168-d31c7504a9df-dark-flowchart-E6-10" data-look="classic" transform="translate(1296.859375, 977.0687561035156)"><rect class="basic label-container" style="" x="-113.359375" y="-42.099998474121094" width="226.71875" height="84.19999694824219"></rect><g class="label" style="" transform="translate(0, -27.099998474121094)"><rect></rect><g><rect class="background" style="stroke: none"></rect><text y="-10.1" style=""><tspan class="text-outer-tspan row" x="0" y="-0.1em" dy="1.1em"><tspan font-style="normal" class="text-inner-tspan" font-weight="normal">EDE</tspan><tspan font-style="normal" class="text-inner-tspan" font-weight="normal"> 6</tspan><tspan font-style="normal" class="text-inner-tspan" font-weight="normal"> —</tspan><tspan font-style="normal" class="text-inner-tspan" font-weight="normal"> DNSSEC</tspan><tspan font-style="normal" class="text-inner-tspan" font-weight="normal"> Bogus.</tspan></tspan><tspan class="text-outer-tspan row" x="0" y="1em" dy="1.1em"><tspan font-style="normal" class="text-inner-tspan" font-weight="normal">Compare</tspan><tspan font-style="normal" class="text-inner-tspan" font-weight="normal"> DS</tspan><tspan font-style="normal" class="text-inner-tspan" font-weight="normal"> at</tspan><tspan font-style="normal" class="text-inner-tspan" font-weight="normal"> parent</tspan></tspan><tspan class="text-outer-tspan row" x="0" y="2.1em" dy="1.1em"><tspan font-style="normal" class="text-inner-tspan" font-weight="normal">vs</tspan><tspan font-style="normal" class="text-inner-tspan" font-weight="normal"> DNSKEY</tspan><tspan font-style="normal" class="text-inner-tspan" font-weight="normal"> at</tspan><tspan font-style="normal" class="text-inner-tspan" font-weight="normal"> child.</tspan></tspan></text></g></g></g><g class="node default" id="gd64d76f1-45ac-4fb5-b168-d31c7504a9df-dark-flowchart-DS-11" data-look="classic" transform="translate(1296.859375, 1188.2609405517578)"><polygon points="110.29218673706055,0 220.5843734741211,-110.29218673706055 110.29218673706055,-220.5843734741211 0,-110.29218673706055" class="label-container" transform="translate(-109.79218673706055, 110.29218673706055)"></polygon><g class="label" style="" transform="translate(0, -18.299999237060547)"><rect></rect><g><rect class="background" style="stroke: none"></rect><text y="-10.1" style=""><tspan class="text-outer-tspan row" x="0" y="-0.1em" dy="1.1em"><tspan font-style="normal" class="text-inner-tspan" font-weight="normal">DS</tspan><tspan font-style="normal" class="text-inner-tspan" font-weight="normal"> at</tspan><tspan font-style="normal" class="text-inner-tspan" font-weight="normal"> parent</tspan><tspan font-style="normal" class="text-inner-tspan" font-weight="normal"> matches</tspan></tspan><tspan class="text-outer-tspan row" x="0" y="1em" dy="1.1em"><tspan font-style="normal" class="text-inner-tspan" font-weight="normal">active</tspan><tspan font-style="normal" class="text-inner-tspan" font-weight="normal"> KSK</tspan><tspan font-style="normal" class="text-inner-tspan" font-weight="normal"> at</tspan><tspan font-style="normal" class="text-inner-tspan" font-weight="normal"> child?</tspan></tspan></text></g></g></g><g class="node default" id="gd64d76f1-45ac-4fb5-b168-d31c7504a9df-dark-flowchart-FixDS-12" data-look="classic" transform="translate(1274.75390625, 1404.8531227111816)"><rect class="basic label-container" style="" x="-127.7578125" y="-33.29999923706055" width="255.515625" height="66.5999984741211"></rect><g class="label" style="" transform="translate(0, -18.299999237060547)"><rect></rect><g><rect class="background" style="stroke: none"></rect><text y="-10.1" style=""><tspan class="text-outer-tspan row" x="0" y="-0.1em" dy="1.1em"><tspan font-style="normal" class="text-inner-tspan" font-weight="normal">Update</tspan><tspan font-style="normal" class="text-inner-tspan" font-weight="normal"> DS</tspan><tspan font-style="normal" class="text-inner-tspan" font-weight="normal"> at</tspan><tspan font-style="normal" class="text-inner-tspan" font-weight="normal"> registrar.</tspan></tspan><tspan class="text-outer-tspan row" x="0" y="1em" dy="1.1em"><tspan font-style="normal" class="text-inner-tspan" font-weight="normal">RFC</tspan><tspan font-style="normal" class="text-inner-tspan" font-weight="normal"> 6781</tspan><tspan font-style="normal" class="text-inner-tspan" font-weight="normal"> §4.1</tspan><tspan font-style="normal" class="text-inner-tspan" font-weight="normal"> KSK</tspan><tspan font-style="normal" class="text-inner-tspan" font-weight="normal"> rollover.</tspan></tspan></text></g></g></g><g class="node default" id="gd64d76f1-45ac-4fb5-b168-d31c7504a9df-dark-flowchart-Probe-13" data-look="classic" transform="translate(1567.3257789611816, 1404.8531227111816)"><rect class="basic label-container" style="" x="-113.0078125" y="-33.29999923706055" width="226.015625" height="66.5999984741211"></rect><g class="label" style="" transform="translate(0, -18.299999237060547)"><rect></rect><g><rect class="background" style="stroke: none"></rect><text y="-10.1" style=""><tspan class="text-outer-tspan row" x="0" y="-0.1em" dy="1.1em"><tspan font-style="normal" class="text-inner-tspan" font-weight="normal">Run</tspan><tspan font-style="normal" class="text-inner-tspan" font-weight="normal"> dnsviz</tspan><tspan font-style="normal" class="text-inner-tspan" font-weight="normal"> probe</tspan></tspan><tspan class="text-outer-tspan row" x="0" y="1em" dy="1.1em"><tspan font-style="normal" class="text-inner-tspan" font-weight="normal">to</tspan><tspan font-style="normal" class="text-inner-tspan" font-weight="normal"> localize</tspan><tspan font-style="normal" class="text-inner-tspan" font-weight="normal"> broken</tspan><tspan font-style="normal" class="text-inner-tspan" font-weight="normal"> hop.</tspan></tspan></text></g></g></g></g></g></g><defs><filter id="gd64d76f1-45ac-4fb5-b168-d31c7504a9df-dark-drop-shadow" height="130%" width="130%"><feDropShadow dx="4" dy="4" stdDeviation="0" flood-opacity="0.06" flood-color="#000000"></feDropShadow></filter></defs><defs><filter id="gd64d76f1-45ac-4fb5-b168-d31c7504a9df-dark-drop-shadow-small" height="150%" width="150%"><feDropShadow dx="2" dy="2" stdDeviation="0" flood-opacity="0.06" flood-color="#000000"></feDropShadow></filter></defs><linearGradient id="gd64d76f1-45ac-4fb5-b168-d31c7504a9df-dark-gradient" gradientUnits="objectBoundingBox" x1="0%" y1="0%" x2="100%" y2="0%"><stop offset="0%" stop-color="#555555" stop-opacity="1"></stop><stop offset="100%" stop-color="#555555" stop-opacity="1"></stop></linearGradient></svg>