<svg id="gce3d36b8-e044-4260-8730-f7d4c11502db-dark" width="100%" xmlns="http://www.w3.org/2000/svg" xmlns:xlink="http://www.w3.org/1999/xlink" class="flowchart" style="max-width: 595.703125px;" viewBox="0 0 595.703125 986.58984375" role="graphics-document document" aria-roledescription="flowchart-v2"><style>#gce3d36b8-e044-4260-8730-f7d4c11502db-dark{font-family:"trebuchet ms",verdana,arial,sans-serif;font-size:16px;fill:#e5e5e5;}@keyframes edge-animation-frame{from{stroke-dashoffset:0;}}@keyframes dash{to{stroke-dashoffset:0;}}#gce3d36b8-e044-4260-8730-f7d4c11502db-dark .edge-animation-slow{stroke-dasharray:9,5!important;stroke-dashoffset:900;animation:dash 50s linear infinite;stroke-linecap:round;}#gce3d36b8-e044-4260-8730-f7d4c11502db-dark .edge-animation-fast{stroke-dasharray:9,5!important;stroke-dashoffset:900;animation:dash 20s linear infinite;stroke-linecap:round;}#gce3d36b8-e044-4260-8730-f7d4c11502db-dark .error-icon{fill:#252525;}#gce3d36b8-e044-4260-8730-f7d4c11502db-dark .error-text{fill:#cccccc;stroke:#cccccc;}#gce3d36b8-e044-4260-8730-f7d4c11502db-dark .edge-thickness-normal{stroke-width:1px;}#gce3d36b8-e044-4260-8730-f7d4c11502db-dark .edge-thickness-thick{stroke-width:3.5px;}#gce3d36b8-e044-4260-8730-f7d4c11502db-dark .edge-pattern-solid{stroke-dasharray:0;}#gce3d36b8-e044-4260-8730-f7d4c11502db-dark .edge-thickness-invisible{stroke-width:0;fill:none;}#gce3d36b8-e044-4260-8730-f7d4c11502db-dark .edge-pattern-dashed{stroke-dasharray:3;}#gce3d36b8-e044-4260-8730-f7d4c11502db-dark .edge-pattern-dotted{stroke-dasharray:2;}#gce3d36b8-e044-4260-8730-f7d4c11502db-dark .marker{fill:#cccccc;stroke:#cccccc;}#gce3d36b8-e044-4260-8730-f7d4c11502db-dark .marker.cross{stroke:#cccccc;}#gce3d36b8-e044-4260-8730-f7d4c11502db-dark svg{font-family:"trebuchet ms",verdana,arial,sans-serif;font-size:16px;}#gce3d36b8-e044-4260-8730-f7d4c11502db-dark p{margin:0;}#gce3d36b8-e044-4260-8730-f7d4c11502db-dark .label{font-family:"trebuchet ms",verdana,arial,sans-serif;color:#e5e5e5;}#gce3d36b8-e044-4260-8730-f7d4c11502db-dark .cluster-label text{fill:#e5e5e5;}#gce3d36b8-e044-4260-8730-f7d4c11502db-dark .cluster-label span{color:#e5e5e5;}#gce3d36b8-e044-4260-8730-f7d4c11502db-dark .cluster-label span p{background-color:transparent;}#gce3d36b8-e044-4260-8730-f7d4c11502db-dark .label text,#gce3d36b8-e044-4260-8730-f7d4c11502db-dark span{fill:#e5e5e5;color:#e5e5e5;}#gce3d36b8-e044-4260-8730-f7d4c11502db-dark .node rect,#gce3d36b8-e044-4260-8730-f7d4c11502db-dark .node circle,#gce3d36b8-e044-4260-8730-f7d4c11502db-dark .node ellipse,#gce3d36b8-e044-4260-8730-f7d4c11502db-dark .node polygon,#gce3d36b8-e044-4260-8730-f7d4c11502db-dark .node path{fill:#2d2d2d;stroke:#555555;stroke-width:1px;}#gce3d36b8-e044-4260-8730-f7d4c11502db-dark .rough-node .label text,#gce3d36b8-e044-4260-8730-f7d4c11502db-dark .node .label text,#gce3d36b8-e044-4260-8730-f7d4c11502db-dark .image-shape .label,#gce3d36b8-e044-4260-8730-f7d4c11502db-dark .icon-shape .label{text-anchor:middle;}#gce3d36b8-e044-4260-8730-f7d4c11502db-dark .node .katex path{fill:#000;stroke:#000;stroke-width:1px;}#gce3d36b8-e044-4260-8730-f7d4c11502db-dark .rough-node .label,#gce3d36b8-e044-4260-8730-f7d4c11502db-dark .node .label,#gce3d36b8-e044-4260-8730-f7d4c11502db-dark .image-shape .label,#gce3d36b8-e044-4260-8730-f7d4c11502db-dark .icon-shape .label{text-align:center;}#gce3d36b8-e044-4260-8730-f7d4c11502db-dark .node.clickable{cursor:pointer;}#gce3d36b8-e044-4260-8730-f7d4c11502db-dark .root .anchor path{fill:#cccccc!important;stroke-width:0;stroke:#cccccc;}#gce3d36b8-e044-4260-8730-f7d4c11502db-dark .arrowheadPath{fill:#cccccc;}#gce3d36b8-e044-4260-8730-f7d4c11502db-dark .edgePath .path{stroke:#cccccc;stroke-width:1px;}#gce3d36b8-e044-4260-8730-f7d4c11502db-dark .flowchart-link{stroke:#cccccc;fill:none;}#gce3d36b8-e044-4260-8730-f7d4c11502db-dark .edgeLabel{background-color:#1e1e1e;text-align:center;}#gce3d36b8-e044-4260-8730-f7d4c11502db-dark .edgeLabel p{background-color:#1e1e1e;}#gce3d36b8-e044-4260-8730-f7d4c11502db-dark .edgeLabel rect{opacity:0.5;background-color:#1e1e1e;fill:#1e1e1e;}#gce3d36b8-e044-4260-8730-f7d4c11502db-dark .labelBkg{background-color:rgba(30, 30, 30, 0.5);}#gce3d36b8-e044-4260-8730-f7d4c11502db-dark .cluster rect{fill:#1e1e1e;stroke:#555555;stroke-width:1px;}#gce3d36b8-e044-4260-8730-f7d4c11502db-dark .cluster text{fill:#e5e5e5;}#gce3d36b8-e044-4260-8730-f7d4c11502db-dark .cluster span{color:#e5e5e5;}#gce3d36b8-e044-4260-8730-f7d4c11502db-dark div.mermaidTooltip{position:absolute;text-align:center;max-width:200px;padding:2px;font-family:"trebuchet ms",verdana,arial,sans-serif;font-size:12px;background:#252525;border:1px solid #555555;border-radius:2px;pointer-events:none;z-index:100;}#gce3d36b8-e044-4260-8730-f7d4c11502db-dark .flowchartTitleText{text-anchor:middle;font-size:18px;fill:#e5e5e5;}#gce3d36b8-e044-4260-8730-f7d4c11502db-dark rect.text{fill:none;stroke-width:0;}#gce3d36b8-e044-4260-8730-f7d4c11502db-dark .icon-shape,#gce3d36b8-e044-4260-8730-f7d4c11502db-dark .image-shape{background-color:#1e1e1e;text-align:center;}#gce3d36b8-e044-4260-8730-f7d4c11502db-dark .icon-shape p,#gce3d36b8-e044-4260-8730-f7d4c11502db-dark .image-shape p{background-color:#1e1e1e;padding:2px;}#gce3d36b8-e044-4260-8730-f7d4c11502db-dark .icon-shape .label rect,#gce3d36b8-e044-4260-8730-f7d4c11502db-dark .image-shape .label rect{opacity:0.5;background-color:#1e1e1e;fill:#1e1e1e;}#gce3d36b8-e044-4260-8730-f7d4c11502db-dark .label-icon{display:inline-block;height:1em;overflow:visible;vertical-align:-0.125em;}#gce3d36b8-e044-4260-8730-f7d4c11502db-dark .node .label-icon path{fill:currentColor;stroke:revert;stroke-width:revert;}#gce3d36b8-e044-4260-8730-f7d4c11502db-dark .node .neo-node{stroke:#555555;}#gce3d36b8-e044-4260-8730-f7d4c11502db-dark [data-look="neo"].node rect,#gce3d36b8-e044-4260-8730-f7d4c11502db-dark [data-look="neo"].cluster rect,#gce3d36b8-e044-4260-8730-f7d4c11502db-dark [data-look="neo"].node polygon{stroke:url(#gce3d36b8-e044-4260-8730-f7d4c11502db-dark-gradient);filter:drop-shadow( 1px 2px 2px rgba(185,185,185,1));}#gce3d36b8-e044-4260-8730-f7d4c11502db-dark [data-look="neo"].node path{stroke:url(#gce3d36b8-e044-4260-8730-f7d4c11502db-dark-gradient);stroke-width:1px;}#gce3d36b8-e044-4260-8730-f7d4c11502db-dark [data-look="neo"].node .outer-path{filter:drop-shadow( 1px 2px 2px rgba(185,185,185,1));}#gce3d36b8-e044-4260-8730-f7d4c11502db-dark [data-look="neo"].node .neo-line path{stroke:#555555;filter:none;}#gce3d36b8-e044-4260-8730-f7d4c11502db-dark [data-look="neo"].node circle{stroke:url(#gce3d36b8-e044-4260-8730-f7d4c11502db-dark-gradient);filter:drop-shadow( 1px 2px 2px rgba(185,185,185,1));}#gce3d36b8-e044-4260-8730-f7d4c11502db-dark [data-look="neo"].node circle .state-start{fill:#000000;}#gce3d36b8-e044-4260-8730-f7d4c11502db-dark [data-look="neo"].icon-shape .icon{fill:url(#gce3d36b8-e044-4260-8730-f7d4c11502db-dark-gradient);filter:drop-shadow( 1px 2px 2px rgba(185,185,185,1));}#gce3d36b8-e044-4260-8730-f7d4c11502db-dark [data-look="neo"].icon-shape .icon-neo path{stroke:url(#gce3d36b8-e044-4260-8730-f7d4c11502db-dark-gradient);filter:drop-shadow( 1px 2px 2px rgba(185,185,185,1));}#gce3d36b8-e044-4260-8730-f7d4c11502db-dark :root{--mermaid-font-family:"trebuchet ms",verdana,arial,sans-serif;}#gce3d36b8-e044-4260-8730-f7d4c11502db-dark .primary rect{fill:#2E5A88!important;stroke:#1F4870!important;color:#ffffff!important;}#gce3d36b8-e044-4260-8730-f7d4c11502db-dark .primary polygon{fill:#2E5A88!important;stroke:#1F4870!important;color:#ffffff!important;}#gce3d36b8-e044-4260-8730-f7d4c11502db-dark .primary ellipse{fill:#2E5A88!important;stroke:#1F4870!important;color:#ffffff!important;}#gce3d36b8-e044-4260-8730-f7d4c11502db-dark .primary circle{fill:#2E5A88!important;stroke:#1F4870!important;color:#ffffff!important;}#gce3d36b8-e044-4260-8730-f7d4c11502db-dark .primary path{fill:#2E5A88!important;stroke:#1F4870!important;color:#ffffff!important;}#gce3d36b8-e044-4260-8730-f7d4c11502db-dark .primary tspan{fill:#ffffff!important;}#gce3d36b8-e044-4260-8730-f7d4c11502db-dark .storage rect{fill:#8B5E15!important;stroke:#6E4810!important;color:#ffffff!important;}#gce3d36b8-e044-4260-8730-f7d4c11502db-dark .storage polygon{fill:#8B5E15!important;stroke:#6E4810!important;color:#ffffff!important;}#gce3d36b8-e044-4260-8730-f7d4c11502db-dark .storage ellipse{fill:#8B5E15!important;stroke:#6E4810!important;color:#ffffff!important;}#gce3d36b8-e044-4260-8730-f7d4c11502db-dark .storage circle{fill:#8B5E15!important;stroke:#6E4810!important;color:#ffffff!important;}#gce3d36b8-e044-4260-8730-f7d4c11502db-dark .storage path{fill:#8B5E15!important;stroke:#6E4810!important;color:#ffffff!important;}#gce3d36b8-e044-4260-8730-f7d4c11502db-dark .storage tspan{fill:#ffffff!important;}#gce3d36b8-e044-4260-8730-f7d4c11502db-dark .alert rect{fill:#B43A3A!important;stroke:#8E2828!important;color:#ffffff!important;}#gce3d36b8-e044-4260-8730-f7d4c11502db-dark .alert polygon{fill:#B43A3A!important;stroke:#8E2828!important;color:#ffffff!important;}#gce3d36b8-e044-4260-8730-f7d4c11502db-dark .alert ellipse{fill:#B43A3A!important;stroke:#8E2828!important;color:#ffffff!important;}#gce3d36b8-e044-4260-8730-f7d4c11502db-dark .alert circle{fill:#B43A3A!important;stroke:#8E2828!important;color:#ffffff!important;}#gce3d36b8-e044-4260-8730-f7d4c11502db-dark .alert path{fill:#B43A3A!important;stroke:#8E2828!important;color:#ffffff!important;}#gce3d36b8-e044-4260-8730-f7d4c11502db-dark .alert tspan{fill:#ffffff!important;}#gce3d36b8-e044-4260-8730-f7d4c11502db-dark .neutral rect{fill:#5A5A5A!important;stroke:#3D3D3D!important;color:#ffffff!important;}#gce3d36b8-e044-4260-8730-f7d4c11502db-dark .neutral polygon{fill:#5A5A5A!important;stroke:#3D3D3D!important;color:#ffffff!important;}#gce3d36b8-e044-4260-8730-f7d4c11502db-dark .neutral ellipse{fill:#5A5A5A!important;stroke:#3D3D3D!important;color:#ffffff!important;}#gce3d36b8-e044-4260-8730-f7d4c11502db-dark .neutral circle{fill:#5A5A5A!important;stroke:#3D3D3D!important;color:#ffffff!important;}#gce3d36b8-e044-4260-8730-f7d4c11502db-dark .neutral path{fill:#5A5A5A!important;stroke:#3D3D3D!important;color:#ffffff!important;}#gce3d36b8-e044-4260-8730-f7d4c11502db-dark .neutral tspan{fill:#ffffff!important;}</style><g><marker id="gce3d36b8-e044-4260-8730-f7d4c11502db-dark_flowchart-v2-pointEnd" class="marker flowchart-v2" viewBox="0 0 10 10" refX="5" refY="5" markerUnits="userSpaceOnUse" markerWidth="8" markerHeight="8" orient="auto"><path d="M 0 0 L 10 5 L 0 10 z" class="arrowMarkerPath" style="stroke-width: 1; stroke-dasharray: 1, 0;"></path></marker><marker id="gce3d36b8-e044-4260-8730-f7d4c11502db-dark_flowchart-v2-pointStart" class="marker flowchart-v2" viewBox="0 0 10 10" refX="4.5" refY="5" markerUnits="userSpaceOnUse" markerWidth="8" markerHeight="8" orient="auto"><path d="M 0 5 L 10 10 L 10 0 z" class="arrowMarkerPath" style="stroke-width: 1; stroke-dasharray: 1, 0;"></path></marker><marker id="gce3d36b8-e044-4260-8730-f7d4c11502db-dark_flowchart-v2-pointEnd-margin" class="marker flowchart-v2" viewBox="0 0 11.5 14" refX="11.5" refY="7" markerUnits="userSpaceOnUse" markerWidth="10.5" markerHeight="14" orient="auto"><path d="M 0 0 L 11.5 7 L 0 14 z" class="arrowMarkerPath" style="stroke-width: 0; stroke-dasharray: 1, 0;"></path></marker><marker id="gce3d36b8-e044-4260-8730-f7d4c11502db-dark_flowchart-v2-pointStart-margin" class="marker flowchart-v2" viewBox="0 0 11.5 14" refX="1" refY="7" markerUnits="userSpaceOnUse" markerWidth="11.5" markerHeight="14" orient="auto"><polygon points="0,7 11.5,14 11.5,0" class="arrowMarkerPath" style="stroke-width: 0; stroke-dasharray: 1, 0;"></polygon></marker><marker id="gce3d36b8-e044-4260-8730-f7d4c11502db-dark_flowchart-v2-circleEnd" class="marker flowchart-v2" viewBox="0 0 10 10" refX="11" refY="5" markerUnits="userSpaceOnUse" markerWidth="11" markerHeight="11" orient="auto"><circle cx="5" cy="5" r="5" class="arrowMarkerPath" style="stroke-width: 1; stroke-dasharray: 1, 0;"></circle></marker><marker id="gce3d36b8-e044-4260-8730-f7d4c11502db-dark_flowchart-v2-circleStart" class="marker flowchart-v2" viewBox="0 0 10 10" refX="-1" refY="5" markerUnits="userSpaceOnUse" markerWidth="11" markerHeight="11" orient="auto"><circle cx="5" cy="5" r="5" class="arrowMarkerPath" style="stroke-width: 1; stroke-dasharray: 1, 0;"></circle></marker><marker id="gce3d36b8-e044-4260-8730-f7d4c11502db-dark_flowchart-v2-circleEnd-margin" class="marker flowchart-v2" viewBox="0 0 10 10" refY="5" refX="12.25" markerUnits="userSpaceOnUse" markerWidth="14" markerHeight="14" orient="auto"><circle cx="5" cy="5" r="5" class="arrowMarkerPath" style="stroke-width: 0; stroke-dasharray: 1, 0;"></circle></marker><marker id="gce3d36b8-e044-4260-8730-f7d4c11502db-dark_flowchart-v2-circleStart-margin" class="marker flowchart-v2" viewBox="0 0 10 10" refX="-2" refY="5" markerUnits="userSpaceOnUse" markerWidth="14" markerHeight="14" orient="auto"><circle cx="5" cy="5" r="5" class="arrowMarkerPath" style="stroke-width: 0; stroke-dasharray: 1, 0;"></circle></marker><marker id="gce3d36b8-e044-4260-8730-f7d4c11502db-dark_flowchart-v2-crossEnd" class="marker cross flowchart-v2" viewBox="0 0 11 11" refX="12" refY="5.2" markerUnits="userSpaceOnUse" markerWidth="11" markerHeight="11" orient="auto"><path d="M 1,1 l 9,9 M 10,1 l -9,9" class="arrowMarkerPath" style="stroke-width: 2; stroke-dasharray: 1, 0;"></path></marker><marker id="gce3d36b8-e044-4260-8730-f7d4c11502db-dark_flowchart-v2-crossStart" class="marker cross flowchart-v2" viewBox="0 0 11 11" refX="-1" refY="5.2" markerUnits="userSpaceOnUse" markerWidth="11" markerHeight="11" orient="auto"><path d="M 1,1 l 9,9 M 10,1 l -9,9" class="arrowMarkerPath" style="stroke-width: 2; stroke-dasharray: 1, 0;"></path></marker><marker id="gce3d36b8-e044-4260-8730-f7d4c11502db-dark_flowchart-v2-crossEnd-margin" class="marker cross flowchart-v2" viewBox="0 0 15 15" refX="17.7" refY="7.5" markerUnits="userSpaceOnUse" markerWidth="12" markerHeight="12" orient="auto"><path d="M 1,1 L 14,14 M 1,14 L 14,1" class="arrowMarkerPath" style="stroke-width: 2.5;"></path></marker><marker id="gce3d36b8-e044-4260-8730-f7d4c11502db-dark_flowchart-v2-crossStart-margin" class="marker cross flowchart-v2" viewBox="0 0 15 15" refX="-3.5" refY="7.5" markerUnits="userSpaceOnUse" markerWidth="12" markerHeight="12" orient="auto"><path d="M 1,1 L 14,14 M 1,14 L 14,1" class="arrowMarkerPath" style="stroke-width: 2.5; stroke-dasharray: 1, 0;"></path></marker><g class="root"><g class="clusters"></g><g class="edgePaths"><path d="M293.531,42.5L293.448,46.583C293.365,50.667,293.198,58.833,293.115,66.417C293.031,74,293.031,81,293.031,84.5L293.031,88" id="gce3d36b8-e044-4260-8730-f7d4c11502db-dark-L_Client_Decision_0" class="edge-thickness-normal edge-pattern-solid edge-thickness-normal edge-pattern-solid flowchart-link" style=";" data-edge="true" data-et="edge" data-id="L_Client_Decision_0" data-points="W3sieCI6MjkzLjUzMTI1LCJ5Ijo0Mi41fSx7IngiOjI5My4wMzEyNSwieSI6Njd9LHsieCI6MjkzLjAzMTI1LCJ5Ijo5Mi4wMDAwMDAwMDAwMDAwMX1d" data-look="classic" marker-end="url(#gce3d36b8-e044-4260-8730-f7d4c11502db-dark_flowchart-v2-pointEnd)"></path><path d="M293.031,214.147L293.031,218.314C293.031,222.48,293.031,230.814,293.031,238.48C293.031,246.147,293.031,253.147,293.031,256.647L293.031,260.147" id="gce3d36b8-e044-4260-8730-f7d4c11502db-dark-L_Decision_Algo_0" class="edge-thickness-normal edge-pattern-solid edge-thickness-normal edge-pattern-solid flowchart-link" style=";" data-edge="true" data-et="edge" data-id="L_Decision_Algo_0" data-points="W3sieCI6MjkzLjAzMTI1LCJ5IjoyMTQuMTQ2ODczNDc0MTIxMX0seyJ4IjoyOTMuMDMxMjUsInkiOjIzOS4xNDY4NzM0NzQxMjExfSx7IngiOjI5My4wMzEyNSwieSI6MjY0LjE0Njg3MzQ3NDEyMTF9XQ==" data-look="classic" marker-end="url(#gce3d36b8-e044-4260-8730-f7d4c11502db-dark_flowchart-v2-pointEnd)"></path><path d="M293.031,330.747L293.031,334.914C293.031,339.08,293.031,347.414,293.031,355.08C293.031,362.747,293.031,369.747,293.031,373.247L293.031,376.747" id="gce3d36b8-e044-4260-8730-f7d4c11502db-dark-L_Algo_Coord_0" class="edge-thickness-normal edge-pattern-solid edge-thickness-normal edge-pattern-solid flowchart-link" style=";" data-edge="true" data-et="edge" data-id="L_Algo_Coord_0" data-points="W3sieCI6MjkzLjAzMTI1LCJ5IjozMzAuNzQ2ODcxOTQ4MjQyMn0seyJ4IjoyOTMuMDMxMjUsInkiOjM1NS43NDY4NzE5NDgyNDIyfSx7IngiOjI5My4wMzEyNSwieSI6MzgwLjc0Njg3MTk0ODI0MjI0fV0=" data-look="classic" marker-end="url(#gce3d36b8-e044-4260-8730-f7d4c11502db-dark_flowchart-v2-pointEnd)"></path><path d="M249.386,467.452L222.309,480.81C195.232,494.167,141.077,520.882,113.999,541.86C86.922,562.837,86.922,578.078,86.922,585.698L86.922,593.318" id="gce3d36b8-e044-4260-8730-f7d4c11502db-dark-L_Coord_Local_0" class="edge-thickness-normal edge-pattern-solid edge-thickness-normal edge-pattern-solid flowchart-link" style=";" data-edge="true" data-et="edge" data-id="L_Coord_Local_0" data-points="W3sieCI6MjQ5LjM4NjQ4MTU3NDMwOSwieSI6NDY3LjQ1MjA5NDM2NzI3Nzd9LHsieCI6ODYuOTIxODc1LCJ5Ijo1NDcuNTk2ODYyNzkyOTY4OH0seyJ4Ijo4Ni45MjE4NzUsInkiOjU5Ny4zMTgzMzY0ODY4MTY0fV0=" data-look="classic" marker-end="url(#gce3d36b8-e044-4260-8730-f7d4c11502db-dark_flowchart-v2-pointEnd)"></path><path d="M293.031,511.097L293.031,517.18C293.031,523.264,293.031,535.43,293.031,546.93C293.031,558.43,293.031,569.264,293.031,574.68L293.031,580.097" id="gce3d36b8-e044-4260-8730-f7d4c11502db-dark-L_Coord_Shared_0" class="edge-thickness-normal edge-pattern-solid edge-thickness-normal edge-pattern-solid flowchart-link" style=";" data-edge="true" data-et="edge" data-id="L_Coord_Shared_0" data-points="W3sieCI6MjkzLjAzMTI1LCJ5Ijo1MTEuMDk2ODYyNzkyOTY4OH0seyJ4IjoyOTMuMDMxMjUsInkiOjU0Ny41OTY4NjI3OTI5Njg4fSx7IngiOjI5My4wMzEyNSwieSI6NTg0LjA5Njg2Mjc5Mjk2ODh9XQ==" data-look="classic" marker-end="url(#gce3d36b8-e044-4260-8730-f7d4c11502db-dark_flowchart-v2-pointEnd)"></path><path d="M337.008,467.12L364.833,480.533C392.659,493.946,448.31,520.771,476.135,541.804C503.961,562.837,503.961,578.078,503.961,585.698L503.961,593.318" id="gce3d36b8-e044-4260-8730-f7d4c11502db-dark-L_Coord_Hybrid_0" class="edge-thickness-normal edge-pattern-solid edge-thickness-normal edge-pattern-solid flowchart-link" style=";" data-edge="true" data-et="edge" data-id="L_Coord_Hybrid_0" data-points="W3sieCI6MzM3LjAwODAxMDk2NDQ3NzUsInkiOjQ2Ny4xMjAxMDE4Mjg0OTE0NH0seyJ4Ijo1MDMuOTYwOTM3NSwieSI6NTQ3LjU5Njg2Mjc5Mjk2ODh9LHsieCI6NTAzLjk2MDkzNzUsInkiOjU5Ny4zMTgzMzY0ODY4MTY0fV0=" data-look="classic" marker-end="url(#gce3d36b8-e044-4260-8730-f7d4c11502db-dark_flowchart-v2-pointEnd)"></path><path d="M86.922,663.918L86.922,670.289C86.922,676.659,86.922,689.399,114.826,705.534C142.73,721.669,198.538,741.198,226.443,750.963L254.347,760.728" id="gce3d36b8-e044-4260-8730-f7d4c11502db-dark-L_Local_Verdict_0" class="edge-thickness-normal edge-pattern-solid edge-thickness-normal edge-pattern-solid flowchart-link" style=";" data-edge="true" data-et="edge" data-id="L_Local_Verdict_0" data-points="W3sieCI6ODYuOTIxODc1LCJ5Ijo2NjMuOTE4MzM0OTYwOTM3NX0seyJ4Ijo4Ni45MjE4NzUsInkiOjcwMi4xMzk4MDg2NTQ3ODUyfSx7IngiOjI1OC4xMjIxNzYzMjExMDk3LCJ5Ijo3NjIuMDQ4ODgyMzMzNjc1NX1d" data-look="classic" marker-end="url(#gce3d36b8-e044-4260-8730-f7d4c11502db-dark_flowchart-v2-pointEnd)"></path><path d="M293.031,677.14L293.031,681.306C293.031,685.473,293.031,693.806,293.031,701.473C293.031,709.14,293.031,716.14,293.031,719.64L293.031,723.14" id="gce3d36b8-e044-4260-8730-f7d4c11502db-dark-L_Shared_Verdict_0" class="edge-thickness-normal edge-pattern-solid edge-thickness-normal edge-pattern-solid flowchart-link" style=";" data-edge="true" data-et="edge" data-id="L_Shared_Verdict_0" data-points="W3sieCI6MjkzLjAzMTI1LCJ5Ijo2NzcuMTM5ODA4NjU0Nzg1Mn0seyJ4IjoyOTMuMDMxMjUsInkiOjcwMi4xMzk4MDg2NTQ3ODUyfSx7IngiOjI5My4wMzEyNSwieSI6NzI3LjEzOTgwODY1NDc4NTJ9XQ==" data-look="classic" marker-end="url(#gce3d36b8-e044-4260-8730-f7d4c11502db-dark_flowchart-v2-pointEnd)"></path><path d="M503.961,663.918L503.961,670.289C503.961,676.659,503.961,689.399,475.29,705.573C446.618,721.747,389.276,741.355,360.604,751.159L331.933,760.963" id="gce3d36b8-e044-4260-8730-f7d4c11502db-dark-L_Hybrid_Verdict_0" class="edge-thickness-normal edge-pattern-solid edge-thickness-normal edge-pattern-solid flowchart-link" style=";" data-edge="true" data-et="edge" data-id="L_Hybrid_Verdict_0" data-points="W3sieCI6NTAzLjk2MDkzNzUsInkiOjY2My45MTgzMzQ5NjA5Mzc1fSx7IngiOjUwMy45NjA5Mzc1LCJ5Ijo3MDIuMTM5ODA4NjU0Nzg1Mn0seyJ4IjozMjguMTQ4MzU2MjA3MzkxNSwieSI6NzYyLjI1NjkxNDg2MjE3NjZ9XQ==" data-look="classic" marker-end="url(#gce3d36b8-e044-4260-8730-f7d4c11502db-dark_flowchart-v2-pointEnd)"></path><path d="M265.053,793.412L249.35,804.158C233.647,814.904,202.242,836.397,186.539,855.493C170.836,874.59,170.836,891.29,170.836,899.64L170.836,907.99" id="gce3d36b8-e044-4260-8730-f7d4c11502db-dark-L_Verdict_Backend_0" class="edge-thickness-normal edge-pattern-solid edge-thickness-normal edge-pattern-solid flowchart-link" style=";" data-edge="true" data-et="edge" data-id="L_Verdict_Backend_0" data-points="W3sieCI6MjY1LjA1MzE4NDkwMjI1ODQ3LCJ5Ijo3OTMuNDExNzQzNTU3MDQzN30seyJ4IjoxNzAuODM1OTM3NSwieSI6ODU3Ljg4OTgwODY1NDc4NTJ9LHsieCI6MTcwLjgzNTkzNzUsInkiOjkxMS45ODk4MDcxMjg5MDYyfV0=" data-look="classic" marker-end="url(#gce3d36b8-e044-4260-8730-f7d4c11502db-dark_flowchart-v2-pointEnd)"></path><path d="M321.447,792.974L337.881,803.793C354.314,814.612,387.18,836.251,403.614,852.487C420.047,868.723,420.047,879.556,420.047,884.973L420.047,890.39" id="gce3d36b8-e044-4260-8730-f7d4c11502db-dark-L_Verdict_Reject_0" class="edge-thickness-normal edge-pattern-solid edge-thickness-normal edge-pattern-solid flowchart-link" style=";" data-edge="true" data-et="edge" data-id="L_Verdict_Reject_0" data-points="W3sieCI6MzIxLjQ0NzQ3NDY4NjU5NTk3LCJ5Ijo3OTIuOTczNTgzOTY4MTg5Mn0seyJ4Ijo0MjAuMDQ2ODc1LCJ5Ijo4NTcuODg5ODA4NjU0Nzg1Mn0seyJ4Ijo0MjAuMDQ2ODc1LCJ5Ijo4OTQuMzg5ODA4NjU0Nzg1Mn1d" data-look="classic" marker-end="url(#gce3d36b8-e044-4260-8730-f7d4c11502db-dark_flowchart-v2-pointEnd)"></path></g><g class="edgeLabels"><g class="edgeLabel"><g class="label" data-id="L_Client_Decision_0" transform="translate(0, 0)"><text y="-10.1" text-anchor="middle"><tspan class="text-outer-tspan row" x="0" y="-0.1em" dy="1.1em" text-anchor="middle"></tspan></text></g></g><g><rect class="background" style="stroke: none"></rect></g><g class="edgeLabel"><g class="label" data-id="L_Decision_Algo_0" transform="translate(0, 0)"><text y="-10.1" text-anchor="middle"><tspan class="text-outer-tspan row" x="0" y="-0.1em" dy="1.1em" text-anchor="middle"></tspan></text></g></g><g><rect class="background" style="stroke: none"></rect></g><g class="edgeLabel"><g class="label" data-id="L_Algo_Coord_0" transform="translate(0, 0)"><text y="-10.1" text-anchor="middle"><tspan class="text-outer-tspan row" x="0" y="-0.1em" dy="1.1em" text-anchor="middle"></tspan></text></g></g><g><rect class="background" style="stroke: none"></rect></g><g class="edgeLabel" transform="translate(86.921875, 547.5968627929688)"><g class="label" data-id="L_Coord_Local_0" transform="translate(0, -10.5)"><g><rect class="background" style="" x="-55.6171875" y="-1" width="111.234375" height="23"></rect><text y="-10.1" text-anchor="middle" style=""><tspan class="text-outer-tspan row" x="0" y="-0.1em" dy="1.1em" text-anchor="middle"><tspan font-style="normal" class="text-inner-tspan" font-weight="normal">Single</tspan><tspan font-style="normal" class="text-inner-tspan" font-weight="normal"> instance</tspan></tspan></text></g></g></g><g class="edgeLabel" transform="translate(293.03125, 547.5968627929688)"><g class="label" data-id="L_Coord_Shared_0" transform="translate(0, -10.5)"><g><rect class="background" style="" x="-41.8125" y="-1" width="83.625" height="23"></rect><text y="-10.1" text-anchor="middle" style=""><tspan class="text-outer-tspan row" x="0" y="-0.1em" dy="1.1em" text-anchor="middle"><tspan font-style="normal" class="text-inner-tspan" font-weight="normal">Distributed</tspan></tspan></text></g></g></g><g class="edgeLabel" transform="translate(503.9609375, 547.5968627929688)"><g class="label" data-id="L_Coord_Hybrid_0" transform="translate(0, -10.5)"><g><rect class="background" style="" x="-64.234375" y="-1" width="128.46875" height="23"></rect><text y="-10.1" text-anchor="middle" style=""><tspan class="text-outer-tspan row" x="0" y="-0.1em" dy="1.1em" text-anchor="middle"><tspan font-style="normal" class="text-inner-tspan" font-weight="normal">Latency-sensitive</tspan></tspan></text></g></g></g><g class="edgeLabel"><g class="label" data-id="L_Local_Verdict_0" transform="translate(0, 0)"><text y="-10.1" text-anchor="middle"><tspan class="text-outer-tspan row" x="0" y="-0.1em" dy="1.1em" text-anchor="middle"></tspan></text></g></g><g><rect class="background" style="stroke: none"></rect></g><g class="edgeLabel"><g class="label" data-id="L_Shared_Verdict_0" transform="translate(0, 0)"><text y="-10.1" text-anchor="middle"><tspan class="text-outer-tspan row" x="0" y="-0.1em" dy="1.1em" text-anchor="middle"></tspan></text></g></g><g><rect class="background" style="stroke: none"></rect></g><g class="edgeLabel"><g class="label" data-id="L_Hybrid_Verdict_0" transform="translate(0, 0)"><text y="-10.1" text-anchor="middle"><tspan class="text-outer-tspan row" x="0" y="-0.1em" dy="1.1em" text-anchor="middle"></tspan></text></g></g><g><rect class="background" style="stroke: none"></rect></g><g class="edgeLabel" transform="translate(170.8359375, 857.8898086547852)"><g class="label" data-id="L_Verdict_Backend_0" transform="translate(0, -10.5)"><g><rect class="background" style="" x="-13.328125" y="-1" width="26.65625" height="23"></rect><text y="-10.1" text-anchor="middle" style=""><tspan class="text-outer-tspan row" x="0" y="-0.1em" dy="1.1em" text-anchor="middle"><tspan font-style="normal" class="text-inner-tspan" font-weight="normal">Yes</tspan></tspan></text></g></g></g><g class="edgeLabel" transform="translate(420.046875, 857.8898086547852)"><g class="label" data-id="L_Verdict_Reject_0" transform="translate(0, -10.5)"><g><rect class="background" style="" x="-11.3984375" y="-1" width="22.796875" height="23"></rect><text y="-10.1" text-anchor="middle" style=""><tspan class="text-outer-tspan row" x="0" y="-0.1em" dy="1.1em" text-anchor="middle"><tspan font-style="normal" class="text-inner-tspan" font-weight="normal">No</tspan></tspan></text></g></g></g></g><g class="nodes"><g class="node default" id="gce3d36b8-e044-4260-8730-f7d4c11502db-dark-flowchart-Client-0" data-look="classic" transform="translate(293.03125, 25)"><g class="basic label-container outer-path"><path d="M-45.5703125 -17 C-18.01607779551883 -17, 9.538156908962343 -17, 45.5703125 -17 C45.5703125 -17, 45.5703125 -17, 45.5703125 -17 C45.81018132070872 -16.992307873796207, 46.050050141417444 -16.984615747592414, 46.65950623967212 -16.965071676755716 C46.88238013011024 -16.94357130059022, 47.105254020548365 -16.922070924424727, 47.7442242486366 -16.860430234995185 C47.965239032006906 -16.824698278815116, 48.18625381537721 -16.78896632263505, 48.820009187923326 -16.686505668848113 C49.201649898587156 -16.599398667077473, 49.58329060925099 -16.512291665306833, 49.88244042646162 -16.4440126716635 C50.254720141892776 -16.333522006259635, 50.62699985732393 -16.223031340855773, 50.92715220640155 -16.133947699181366 C51.14928572458626 -16.05220051110966, 51.37141924277096 -15.970453323037956, 51.94985158294936 -15.757584874882369 C52.32876404931064 -15.589851566063183, 52.707676515671935 -15.422118257243998, 52.94633606499849 -15.316470754341125 C53.27006268302072 -15.147582785075725, 53.593789301042946 -14.978694815810323, 53.91251088406694 -14.812417970097622 C54.137428903105864 -14.676071345191232, 54.36234692214479 -14.539724720284843, 54.844405820579325 -14.247497783161291 C55.08051838640872 -14.082795878386946, 55.31663095223811 -13.918093973612603, 55.738191518350675 -13.624031571755262 C55.954575787934616 -13.451470874989312, 56.17096005751856 -13.278910178223361, 56.5901952202324 -12.944581292275288 C56.87683064099981 -12.684266587091974, 57.16346606176722 -12.423951881908659, 57.39691586025927 -12.21193895166137 C57.557181079842245 -12.046451954422716, 57.71744629942522 -11.88096495718406, 58.15503845028036 -11.42911513444239 C58.30125236438156 -11.257363951131712, 58.44746627848277 -11.085612767821036, 58.86144770195651 -10.59932663159847 C59.01760657983899 -10.390087961602386, 59.173765457721466 -10.180849291606304, 59.51324082814825 -9.725983222076888 C59.66352592567101 -9.495104955082697, 59.81381102319377 -9.264226688088506, 60.10773947109088 -8.812673661278927 C60.28133386042754 -8.504439244673646, 60.454928249764194 -8.196204828068366, 60.642500708341004 -7.863150934094199 C60.780578038996715 -7.576430402606014, 60.918655369652434 -7.289709871117827, 61.11532709126881 -6.881316833080699 C61.22673910995276 -6.606126992926502, 61.3381511286367 -6.330937152772305, 61.524275674845924 -5.871205925162238 C61.652667554183836 -5.484510041064383, 61.78105943352175 -5.097814156966529, 61.867666001623235 -4.836968972727556 C61.94444477982802 -4.544178215299737, 62.02122355803281 -4.251387457871917, 62.144087007091 -3.7828558772573464 C62.204046017521996 -3.474979031035536, 62.26400502795298 -3.167102184813726, 62.35240281804565 -2.713198215567453 C62.40357398865866 -2.3163247211835474, 62.45474515927166 -1.9194512267996418, 62.491757420136366 -1.632391440430593 C62.514122856236305 -1.2840317201189722, 62.536488292336244 -0.935671999807351, 62.5615781754117 -0.5448768187181379 C62.5615781754117 -0.11089725162541098, 62.5615781754117 0.3230823154673159, 62.5615781754117 0.5448768187181336 C62.54696396911097 0.772504878226965, 62.53234976281024 1.0001329377357964, 62.491757420136366 1.6323914404305815 C62.459944231204254 1.8791282515633307, 62.42813104227214 2.12586506269608, 62.352402818045654 2.7131982155674415 C62.30956891985428 2.9331412298325668, 62.2667350216629 3.153084244097692, 62.144087007091 3.782855877257343 C62.083534874726475 4.013767401423468, 62.02298274236195 4.244678925589594, 61.867666001623235 4.836968972727545 C61.77829596516708 5.106137283351891, 61.68892592871092 5.375305593976236, 61.524275674845924 5.871205925162227 C61.36294069468091 6.269706445369466, 61.20160571451589 6.668206965576705, 61.11532709126881 6.881316833080694 C60.94507927355363 7.234840069286013, 60.77483145583845 7.588363305491332, 60.642500708341004 7.863150934094196 C60.48375468783274 8.145020568284275, 60.32500866732449 8.426890202474356, 60.10773947109089 8.812673661278923 C59.976163252536736 9.014810066139896, 59.84458703398258 9.216946471000869, 59.513240828148255 9.725983222076879 C59.37959890947447 9.905051218070504, 59.24595699080067 10.08411921406413, 58.86144770195651 10.599326631598467 C58.64753560199133 10.85059995616087, 58.43362350202615 11.101873280723275, 58.15503845028037 11.42911513444238 C57.950188858723976 11.640639156188604, 57.74533926716759 11.852163177934825, 57.39691586025927 12.211938951661365 C57.167390165233805 12.42038811496639, 56.93786447020834 12.628837278271414, 56.59019522023242 12.944581292275275 C56.31923957042905 13.160661212560802, 56.04828392062568 13.37674113284633, 55.738191518350675 13.62403157175526 C55.54924349291512 13.755833534870916, 55.36029546747955 13.88763549798657, 54.84440582057934 14.247497783161286 C54.553738238339726 14.423702179667254, 54.26307065610012 14.599906576173222, 53.91251088406695 14.81241797009762 C53.54563794474156 15.003815347550342, 53.17876500541617 15.195212725003062, 52.94633606499849 15.316470754341124 C52.61851053391674 15.46158939235215, 52.290685002834984 15.606708030363178, 51.949851582949364 15.757584874882367 C51.590923769161954 15.889673628248472, 51.23199595537455 16.02176238161458, 50.92715220640156 16.133947699181363 C50.539184654269725 16.249094432170853, 50.151217102137885 16.364241165160347, 49.88244042646164 16.444012671663497 C49.62264014202154 16.503310391231658, 49.36283985758143 16.562608110799815, 48.82000918792333 16.68650566884811 C48.58431279543537 16.72461123373274, 48.348616402947414 16.762716798617372, 47.74422424863661 16.86043023499518 C47.4657723125721 16.887292158379875, 47.187320376507586 16.914154081764572, 46.65950623967212 16.965071676755716 C46.2606226643458 16.977863096636653, 45.86173908901948 16.990654516517587, 45.5703125 17 C45.5703125 17, 45.5703125 17, 45.5703125 17 C9.62782725085934 17, -26.31465799828132 17, -45.5703125 17 C-45.97041329993449 16.987169546095064, -46.370514099868984 16.974339092190128, -46.65950623967211 16.965071676755716 C-46.96093325007805 16.935993375580875, -47.262360260483995 16.90691507440603, -47.744224248636606 16.86043023499518 C-48.156533578182895 16.793771260100744, -48.568842907729184 16.727112285206303, -48.820009187923326 16.68650566884811 C-49.12814265631239 16.6161762154471, -49.436276124701465 16.545846762046093, -49.88244042646162 16.4440126716635 C-50.09339565215679 16.38140226800375, -50.30435087785195 16.318791864344004, -50.927152206401544 16.13394769918137 C-51.27221169293786 16.006962618441076, -51.61727117947418 15.879977537700785, -51.949851582949364 15.757584874882369 C-52.20254825130556 15.645723555781418, -52.455244919661745 15.533862236680465, -52.94633606499848 15.316470754341127 C-53.16143658755062 15.204252949504138, -53.37653711010275 15.092035144667149, -53.91251088406693 14.812417970097624 C-54.176141238692594 14.652603699859622, -54.43977159331825 14.492789429621618, -54.84440582057932 14.247497783161299 C-55.16388795496203 14.024640876374612, -55.483370089344746 13.801783969587925, -55.73819151835067 13.624031571755264 C-55.926070844151816 13.47420280910768, -56.113950169952965 13.324374046460099, -56.5901952202324 12.94458129227529 C-56.79194963243255 12.761353273244344, -56.99370404463269 12.5781252542134, -57.39691586025926 12.211938951661377 C-57.573293844022366 12.029814202524198, -57.74967182778547 11.84768945338702, -58.155038450280365 11.429115134442386 C-58.30420575439483 11.253894731169483, -58.45337305850929 11.07867432789658, -58.86144770195651 10.599326631598473 C-59.07894328289264 10.3079023673991, -59.29643886382877 10.016478103199729, -59.51324082814825 9.72598322207689 C-59.68793889065947 9.45760008506143, -59.86263695317069 9.189216948045969, -60.10773947109088 8.812673661278936 C-60.22395123067251 8.60632791442504, -60.34016299025415 8.399982167571148, -60.642500708341004 7.863150934094201 C-60.76630914570485 7.606060064831976, -60.89011758306871 7.348969195569749, -61.11532709126881 6.881316833080701 C-61.19858820930625 6.67566026178401, -61.28184932734369 6.47000369048732, -61.524275674845924 5.87120592516224 C-61.659352906312485 5.464374825619103, -61.794430137779045 5.057543726075966, -61.867666001623235 4.8369689727275516 C-61.95296809387337 4.5116751248171285, -62.03827018612351 4.1863812769067055, -62.144087007091 3.782855877257349 C-62.19151824607778 3.5393064896561794, -62.238949485064545 3.2957571020550094, -62.35240281804565 2.713198215567455 C-62.406802506331644 2.2912849756547633, -62.46120219461764 1.8693717357420714, -62.491757420136366 1.6323914404306026 C-62.51705953749501 1.238290539068302, -62.54236165485364 0.8441896377060015, -62.5615781754117 0.54487681871814 C-62.5615781754117 0.22741721263623976, -62.5615781754117 -0.09004239344566045, -62.5615781754117 -0.5448768187181317 C-62.535658314758095 -0.9485995705329198, -62.509738454104486 -1.352322322347708, -62.491757420136366 -1.6323914404305793 C-62.43672821100032 -2.0591871197432945, -62.381699001864284 -2.48598279905601, -62.352402818045654 -2.713198215567447 C-62.284880330791616 -3.059911916734197, -62.21735784353758 -3.4066256179009473, -62.144087007091 -3.782855877257341 C-62.064583221716994 -4.086038268046989, -61.985079436342986 -4.389220658836637, -61.867666001623235 -4.836968972727544 C-61.75749849658856 -5.168775945083768, -61.647330991553886 -5.500582917439993, -61.52427567484593 -5.871205925162218 C-61.4352677831979 -6.091057138383368, -61.34625989154987 -6.310908351604518, -61.11532709126881 -6.881316833080692 C-60.948481055521356 -7.227776196243554, -60.7816350197739 -7.574235559406416, -60.642500708341004 -7.863150934094194 C-60.46657508758196 -8.175524688152702, -60.29064946682292 -8.487898442211211, -60.10773947109088 -8.812673661278929 C-59.97809938150613 -9.01183565211948, -59.84845929192137 -9.21099764296003, -59.51324082814825 -9.725983222076884 C-59.31331913827371 -9.993860073268138, -59.11339744839917 -10.26173692445939, -58.86144770195651 -10.599326631598467 C-58.708484906319434 -10.779005435183416, -58.55552211068236 -10.958684238768365, -58.15503845028037 -11.42911513444238 C-57.91171875289726 -11.680362698909121, -57.668399055514136 -11.931610263375863, -57.39691586025928 -12.21193895166136 C-57.23417957367207 -12.359731741373663, -57.07144328708487 -12.507524531085968, -56.59019522023242 -12.944581292275274 C-56.32698011452706 -13.154488334627164, -56.063765008821704 -13.364395376979054, -55.738191518350675 -13.624031571755259 C-55.4743899915553 -13.808048097063674, -55.21058846475992 -13.99206462237209, -54.84440582057934 -14.247497783161284 C-54.484912381558956 -14.465424818513387, -54.125418942538566 -14.68335185386549, -53.91251088406695 -14.812417970097618 C-53.640176579792616 -14.95449460219909, -53.367842275518285 -15.09657123430056, -52.94633606499849 -15.316470754341124 C-52.71698422116354 -15.417998012126137, -52.48763237732859 -15.519525269911151, -51.94985158294937 -15.757584874882365 C-51.687054195019904 -15.854296742912833, -51.42425680709044 -15.951008610943301, -50.927152206401566 -16.133947699181363 C-50.712730070595214 -16.19758706356393, -50.49830793478886 -16.261226427946497, -49.88244042646164 -16.444012671663494 C-49.639684338020594 -16.499420164718643, -49.396928249579545 -16.55482765777379, -48.82000918792333 -16.68650566884811 C-48.48646051528138 -16.74043123153227, -48.152911842639426 -16.794356794216434, -47.74422424863661 -16.86043023499518 C-47.507317290393345 -16.883284364334607, -47.27041033215008 -16.90613849367403, -46.65950623967212 -16.965071676755716 C-46.33472303331396 -16.97548684203146, -46.00993982695581 -16.985902007307207, -45.57031250000001 -17 C-45.57031250000001 -17, -45.5703125 -17, -45.5703125 -17" stroke="none" stroke-width="0" fill="#2d2d2d" style=""></path><path d="M-45.5703125 -17 C-10.374101630916684 -17, 24.822109238166632 -17, 45.5703125 -17 M-45.5703125 -17 C-14.015557673438831 -17, 17.539197153122338 -17, 45.5703125 -17 M45.5703125 -17 C45.5703125 -17, 45.5703125 -17, 45.5703125 -17 M45.5703125 -17 C45.5703125 -17, 45.5703125 -17, 45.5703125 -17 M45.5703125 -17 C45.7994789397724 -16.992651078321913, 46.0286453795448 -16.98530215664383, 46.65950623967212 -16.965071676755716 M45.5703125 -17 C45.899569543549546 -16.989441367473322, 46.22882658709909 -16.978882734946644, 46.65950623967212 -16.965071676755716 M46.65950623967212 -16.965071676755716 C47.040600691758996 -16.92830795329603, 47.42169514384587 -16.891544229836345, 47.7442242486366 -16.860430234995185 M46.65950623967212 -16.965071676755716 C47.08181704033674 -16.92433186171865, 47.50412784100135 -16.88359204668158, 47.7442242486366 -16.860430234995185 M47.7442242486366 -16.860430234995185 C48.142204203397704 -16.796087922290056, 48.54018415815881 -16.731745609584923, 48.820009187923326 -16.686505668848113 M47.7442242486366 -16.860430234995185 C48.02480286114174 -16.81506846084499, 48.305381473646875 -16.7697066866948, 48.820009187923326 -16.686505668848113 M48.820009187923326 -16.686505668848113 C49.13682606968658 -16.614194283009013, 49.45364295144984 -16.541882897169916, 49.88244042646162 -16.4440126716635 M48.820009187923326 -16.686505668848113 C49.23037497930762 -16.592842354851697, 49.640740770691906 -16.499179040855285, 49.88244042646162 -16.4440126716635 M49.88244042646162 -16.4440126716635 C50.250630434460064 -16.334735809958353, 50.6188204424585 -16.22545894825321, 50.92715220640155 -16.133947699181366 M49.88244042646162 -16.4440126716635 C50.22958664744725 -16.340981495482666, 50.57673286843288 -16.23795031930183, 50.92715220640155 -16.133947699181366 M50.92715220640155 -16.133947699181366 C51.30170879844526 -15.996107410946099, 51.67626539048897 -15.85826712271083, 51.94985158294936 -15.757584874882369 M50.92715220640155 -16.133947699181366 C51.145872332686906 -16.05345667088167, 51.36459245897227 -15.972965642581975, 51.94985158294936 -15.757584874882369 M51.94985158294936 -15.757584874882369 C52.16640597522698 -15.661722669278875, 52.382960367504595 -15.56586046367538, 52.94633606499849 -15.316470754341125 M51.94985158294936 -15.757584874882369 C52.20873465345424 -15.642985019063293, 52.46761772395912 -15.528385163244215, 52.94633606499849 -15.316470754341125 M52.94633606499849 -15.316470754341125 C53.29229563257595 -15.135983869533645, 53.63825520015341 -14.955496984726162, 53.91251088406694 -14.812417970097622 M52.94633606499849 -15.316470754341125 C53.226412079382506 -15.170355277034234, 53.506488093766514 -15.024239799727344, 53.91251088406694 -14.812417970097622 M53.91251088406694 -14.812417970097622 C54.21516831989067 -14.628945253888757, 54.51782575571441 -14.44547253767989, 54.844405820579325 -14.247497783161291 M53.91251088406694 -14.812417970097622 C54.19868231567798 -14.63893916652501, 54.48485374728901 -14.465460362952399, 54.844405820579325 -14.247497783161291 M54.844405820579325 -14.247497783161291 C55.15248270091428 -14.032596687872836, 55.46055958124922 -13.817695592584382, 55.738191518350675 -13.624031571755262 M54.844405820579325 -14.247497783161291 C55.09571071219751 -14.072198369581868, 55.3470156038157 -13.896898956002445, 55.738191518350675 -13.624031571755262 M55.738191518350675 -13.624031571755262 C56.01130864988511 -13.406227927308656, 56.28442578141954 -13.188424282862051, 56.5901952202324 -12.944581292275288 M55.738191518350675 -13.624031571755262 C55.98579425682079 -13.426574976810937, 56.2333969952909 -13.229118381866611, 56.5901952202324 -12.944581292275288 M56.5901952202324 -12.944581292275288 C56.82850346328095 -12.728156051229183, 57.06681170632951 -12.511730810183078, 57.39691586025927 -12.21193895166137 M56.5901952202324 -12.944581292275288 C56.85763017620387 -12.701703941203185, 57.12506513217534 -12.458826590131084, 57.39691586025927 -12.21193895166137 M57.39691586025927 -12.21193895166137 C57.582015825804085 -12.02080804024655, 57.7671157913489 -11.82967712883173, 58.15503845028036 -11.42911513444239 M57.39691586025927 -12.21193895166137 C57.61195691158327 -11.989891410970683, 57.82699796290727 -11.767843870279997, 58.15503845028036 -11.42911513444239 M58.15503845028036 -11.42911513444239 C58.390844046176746 -11.15212446378398, 58.62664964207313 -10.875133793125572, 58.86144770195651 -10.59932663159847 M58.15503845028036 -11.42911513444239 C58.36098816585476 -11.187194879657905, 58.566937881429155 -10.945274624873422, 58.86144770195651 -10.59932663159847 M58.86144770195651 -10.59932663159847 C59.04291903775179 -10.35617157401159, 59.22439037354707 -10.113016516424711, 59.51324082814825 -9.725983222076888 M58.86144770195651 -10.59932663159847 C59.03121284008896 -10.371856812423232, 59.20097797822141 -10.144386993247995, 59.51324082814825 -9.725983222076888 M59.51324082814825 -9.725983222076888 C59.64967386154507 -9.516385445380184, 59.78610689494189 -9.306787668683482, 60.10773947109088 -8.812673661278927 M59.51324082814825 -9.725983222076888 C59.748492368011476 -9.36457368296334, 59.9837439078747 -9.00316414384979, 60.10773947109088 -8.812673661278927 M60.10773947109088 -8.812673661278927 C60.31344079213543 -8.447430136246897, 60.51914211317999 -8.082186611214867, 60.642500708341004 -7.863150934094199 M60.10773947109088 -8.812673661278927 C60.28669217940684 -8.494925006737265, 60.465644887722796 -8.177176352195602, 60.642500708341004 -7.863150934094199 M60.642500708341004 -7.863150934094199 C60.74596833222948 -7.648298199237275, 60.84943595611796 -7.433445464380352, 61.11532709126881 -6.881316833080699 M60.642500708341004 -7.863150934094199 C60.80867291757842 -7.518090786097008, 60.974845126815836 -7.173030638099817, 61.11532709126881 -6.881316833080699 M61.11532709126881 -6.881316833080699 C61.227803453619075 -6.603498043493023, 61.34027981596933 -6.3256792539053475, 61.524275674845924 -5.871205925162238 M61.11532709126881 -6.881316833080699 C61.27504151725896 -6.4868191130166695, 61.43475594324911 -6.09232139295264, 61.524275674845924 -5.871205925162238 M61.524275674845924 -5.871205925162238 C61.60167986876031 -5.638076825775616, 61.67908406267468 -5.404947726388993, 61.867666001623235 -4.836968972727556 M61.524275674845924 -5.871205925162238 C61.592969263082885 -5.66431178222947, 61.66166285131984 -5.457417639296702, 61.867666001623235 -4.836968972727556 M61.867666001623235 -4.836968972727556 C61.950377804165434 -4.521553022112174, 62.03308960670763 -4.206137071496792, 62.144087007091 -3.7828558772573464 M61.867666001623235 -4.836968972727556 C61.92577762979675 -4.61536414876299, 61.983889257970255 -4.393759324798425, 62.144087007091 -3.7828558772573464 M62.144087007091 -3.7828558772573464 C62.22502422366761 -3.3672603762232476, 62.30596144024421 -2.9516648751891488, 62.35240281804565 -2.713198215567453 M62.144087007091 -3.7828558772573464 C62.18799514801671 -3.5573968535926923, 62.23190328894242 -3.331937829928038, 62.35240281804565 -2.713198215567453 M62.35240281804565 -2.713198215567453 C62.396427299343614 -2.3717530322375895, 62.440451780641574 -2.030307848907726, 62.491757420136366 -1.632391440430593 M62.35240281804565 -2.713198215567453 C62.3849583959638 -2.4607035820602836, 62.41751397388195 -2.2082089485531147, 62.491757420136366 -1.632391440430593 M62.491757420136366 -1.632391440430593 C62.51325688548023 -1.297519913643889, 62.53475635082409 -0.962648386857185, 62.5615781754117 -0.5448768187181379 M62.491757420136366 -1.632391440430593 C62.505721907079895 -1.414883284354164, 62.519686394023424 -1.1973751282777352, 62.5615781754117 -0.5448768187181379 M62.5615781754117 -0.5448768187181379 C62.5615781754117 -0.30988633071615823, 62.5615781754117 -0.07489584271417854, 62.5615781754117 0.5448768187181336 M62.5615781754117 -0.5448768187181379 C62.5615781754117 -0.3222977106574682, 62.5615781754117 -0.09971860259679854, 62.5615781754117 0.5448768187181336 M62.5615781754117 0.5448768187181336 C62.54731562032296 0.7670276267524077, 62.53305306523423 0.9891784347866817, 62.491757420136366 1.6323914404305815 M62.5615781754117 0.5448768187181336 C62.53860207540515 0.9027481222941685, 62.515625975398606 1.2606194258702033, 62.491757420136366 1.6323914404305815 M62.491757420136366 1.6323914404305815 C62.44375668554747 2.0046756590849064, 62.39575595095857 2.376959877739231, 62.352402818045654 2.7131982155674415 M62.491757420136366 1.6323914404305815 C62.452844019622326 1.9341960904973816, 62.41393061910829 2.2360007405641817, 62.352402818045654 2.7131982155674415 M62.352402818045654 2.7131982155674415 C62.277845785611284 3.096032819483553, 62.20328875317691 3.4788674233996644, 62.144087007091 3.782855877257343 M62.352402818045654 2.7131982155674415 C62.2830890536758 3.0691097461373564, 62.21377528930594 3.4250212767072714, 62.144087007091 3.782855877257343 M62.144087007091 3.782855877257343 C62.04935543751284 4.144108408980855, 61.95462386793467 4.5053609407043655, 61.867666001623235 4.836968972727545 M62.144087007091 3.782855877257343 C62.04638346467489 4.155441829473128, 61.948679922258776 4.5280277816889125, 61.867666001623235 4.836968972727545 M61.867666001623235 4.836968972727545 C61.743148136000784 5.21199694475469, 61.61863027037834 5.587024916781834, 61.524275674845924 5.871205925162227 M61.867666001623235 4.836968972727545 C61.75010300639091 5.191049983247757, 61.63254001115858 5.545130993767968, 61.524275674845924 5.871205925162227 M61.524275674845924 5.871205925162227 C61.42054100481722 6.127432565706547, 61.3168063347885 6.383659206250868, 61.11532709126881 6.881316833080694 M61.524275674845924 5.871205925162227 C61.41904765300806 6.1311211735471565, 61.31381963117019 6.391036421932086, 61.11532709126881 6.881316833080694 M61.11532709126881 6.881316833080694 C60.979394155813516 7.163584482052499, 60.84346122035822 7.445852131024305, 60.642500708341004 7.863150934094196 M61.11532709126881 6.881316833080694 C60.9698263140504 7.183452310192622, 60.824325536832 7.48558778730455, 60.642500708341004 7.863150934094196 M60.642500708341004 7.863150934094196 C60.47092392118653 8.167802893720635, 60.29934713403206 8.472454853347076, 60.10773947109089 8.812673661278923 M60.642500708341004 7.863150934094196 C60.433841092396364 8.233647211281179, 60.22518147645172 8.60414348846816, 60.10773947109089 8.812673661278923 M60.10773947109089 8.812673661278923 C59.930668938742706 9.084701549061311, 59.753598406394524 9.356729436843699, 59.513240828148255 9.725983222076879 M60.10773947109089 8.812673661278923 C59.96796987505482 9.027397294182025, 59.82820027901876 9.242120927085127, 59.513240828148255 9.725983222076879 M59.513240828148255 9.725983222076879 C59.29216049710594 10.022210724841083, 59.07108016606363 10.318438227605286, 58.86144770195651 10.599326631598467 M59.513240828148255 9.725983222076879 C59.369263623462224 9.918899559762975, 59.2252864187762 10.111815897449071, 58.86144770195651 10.599326631598467 M58.86144770195651 10.599326631598467 C58.6673063454992 10.827376115849356, 58.473164989041884 11.055425600100245, 58.15503845028037 11.42911513444238 M58.86144770195651 10.599326631598467 C58.60056184223224 10.905778007256547, 58.33967598250797 11.212229382914629, 58.15503845028037 11.42911513444238 M58.15503845028037 11.42911513444238 C57.98978807396508 11.599749715296133, 57.82453769764979 11.770384296149883, 57.39691586025927 12.211938951661365 M58.15503845028037 11.42911513444238 C57.9989038864982 11.590336890433559, 57.84276932271602 11.751558646424735, 57.39691586025927 12.211938951661365 M57.39691586025927 12.211938951661365 C57.20247028232614 12.388529280792167, 57.00802470439301 12.56511960992297, 56.59019522023242 12.944581292275275 M57.39691586025927 12.211938951661365 C57.14988992626193 12.436281368969697, 56.902863992264585 12.660623786278029, 56.59019522023242 12.944581292275275 M56.59019522023242 12.944581292275275 C56.25240446303046 13.213960432154273, 55.9146137058285 13.483339572033271, 55.738191518350675 13.62403157175526 M56.59019522023242 12.944581292275275 C56.35415443699944 13.132817535594533, 56.118113653766464 13.321053778913793, 55.738191518350675 13.62403157175526 M55.738191518350675 13.62403157175526 C55.44044414142288 13.831727252623883, 55.142696764495085 14.039422933492506, 54.84440582057934 14.247497783161286 M55.738191518350675 13.62403157175526 C55.51704665449534 13.77829265557388, 55.29590179064 13.932553739392501, 54.84440582057934 14.247497783161286 M54.84440582057934 14.247497783161286 C54.571891494256214 14.412697569250309, 54.29937716793308 14.577897355339331, 53.91251088406695 14.81241797009762 M54.84440582057934 14.247497783161286 C54.57179523970992 14.412755919321926, 54.2991846588405 14.578014055482564, 53.91251088406695 14.81241797009762 M53.91251088406695 14.81241797009762 C53.56422715202227 14.994117370018952, 53.215943419977584 15.175816769940283, 52.94633606499849 15.316470754341124 M53.91251088406695 14.81241797009762 C53.55677798120549 14.99800359766264, 53.201045078344045 15.18358922522766, 52.94633606499849 15.316470754341124 M52.94633606499849 15.316470754341124 C52.627791098075214 15.457481161897348, 52.30924613115194 15.598491569453573, 51.949851582949364 15.757584874882367 M52.94633606499849 15.316470754341124 C52.69597117674004 15.427299863562604, 52.44560628848159 15.538128972784083, 51.949851582949364 15.757584874882367 M51.949851582949364 15.757584874882367 C51.70271033632201 15.848535138189872, 51.45556908969466 15.939485401497377, 50.92715220640156 16.133947699181363 M51.949851582949364 15.757584874882367 C51.544352663899474 15.906812225483643, 51.138853744849584 16.05603957608492, 50.92715220640156 16.133947699181363 M50.92715220640156 16.133947699181363 C50.52165418709841 16.254297382807998, 50.116156167795275 16.374647066434637, 49.88244042646164 16.444012671663497 M50.92715220640156 16.133947699181363 C50.51501292783382 16.256268473697048, 50.10287364926609 16.378589248212734, 49.88244042646164 16.444012671663497 M49.88244042646164 16.444012671663497 C49.57396132014954 16.514421014664936, 49.26548221383745 16.58482935766638, 48.82000918792333 16.68650566884811 M49.88244042646164 16.444012671663497 C49.53778822933627 16.522677286591588, 49.19313603221091 16.60134190151968, 48.82000918792333 16.68650566884811 M48.82000918792333 16.68650566884811 C48.596870377697 16.722581021218186, 48.37373156747067 16.75865637358826, 47.74422424863661 16.86043023499518 M48.82000918792333 16.68650566884811 C48.56506934176272 16.727722366087324, 48.31012949560211 16.768939063326535, 47.74422424863661 16.86043023499518 M47.74422424863661 16.86043023499518 C47.425421117050874 16.891184789682395, 47.106617985465135 16.921939344369612, 46.65950623967212 16.965071676755716 M47.74422424863661 16.86043023499518 C47.485630736358864 16.885376440120417, 47.22703722408111 16.91032264524565, 46.65950623967212 16.965071676755716 M46.65950623967212 16.965071676755716 C46.43536624150249 16.972259410234976, 46.21122624333287 16.979447143714236, 45.5703125 17 M46.65950623967212 16.965071676755716 C46.2856532368 16.9770604148971, 45.91180023392788 16.989049153038483, 45.5703125 17 M45.5703125 17 C45.5703125 17, 45.5703125 17, 45.5703125 17 M45.5703125 17 C45.5703125 17, 45.5703125 17, 45.5703125 17 M45.5703125 17 C17.627037941332322 17, -10.316236617335356 17, -45.5703125 17 M45.5703125 17 C22.1147228057313 17, -1.3408668885373984 17, -45.5703125 17 M-45.5703125 17 C-45.87823912092197 16.99012539260984, -46.18616574184393 16.98025078521968, -46.65950623967211 16.965071676755716 M-45.5703125 17 C-45.86667295699053 16.99049629697495, -46.16303341398105 16.980992593949896, -46.65950623967211 16.965071676755716 M-46.65950623967211 16.965071676755716 C-46.90357384380621 16.94152676851914, -47.1476414479403 16.917981860282563, -47.744224248636606 16.86043023499518 M-46.65950623967211 16.965071676755716 C-46.93439946120601 16.93855305828181, -47.20929268273992 16.9120344398079, -47.744224248636606 16.86043023499518 M-47.744224248636606 16.86043023499518 C-48.01778629686537 16.816202844542925, -48.29134834509412 16.77197545409067, -48.820009187923326 16.68650566884811 M-47.744224248636606 16.86043023499518 C-48.087476814739624 16.80493582207105, -48.43072938084264 16.749441409146925, -48.820009187923326 16.68650566884811 M-48.820009187923326 16.68650566884811 C-49.06089800451395 16.631524368407735, -49.30178682110457 16.57654306796736, -49.88244042646162 16.4440126716635 M-48.820009187923326 16.68650566884811 C-49.03917828598917 16.636481752426604, -49.25834738405502 16.586457836005103, -49.88244042646162 16.4440126716635 M-49.88244042646162 16.4440126716635 C-50.15987004480241 16.361673017197738, -50.4372996631432 16.279333362731975, -50.927152206401544 16.13394769918137 M-49.88244042646162 16.4440126716635 C-50.26832646823371 16.32948372002271, -50.6542125100058 16.214954768381926, -50.927152206401544 16.13394769918137 M-50.927152206401544 16.13394769918137 C-51.285298704666694 16.002146477149857, -51.643445202931844 15.870345255118343, -51.949851582949364 15.757584874882369 M-50.927152206401544 16.13394769918137 C-51.28587096706081 16.001935879298887, -51.64458972772007 15.869924059416407, -51.949851582949364 15.757584874882369 M-51.949851582949364 15.757584874882369 C-52.27715074831511 15.612699243359733, -52.60444991368085 15.467813611837098, -52.94633606499848 15.316470754341127 M-51.949851582949364 15.757584874882369 C-52.17297412922011 15.658815142343483, -52.396096675490845 15.560045409804598, -52.94633606499848 15.316470754341127 M-52.94633606499848 15.316470754341127 C-53.220790223659094 15.173288195564163, -53.49524438231971 15.0301056367872, -53.91251088406693 14.812417970097624 M-52.94633606499848 15.316470754341127 C-53.20914567666598 15.179363148271781, -53.47195528833349 15.042255542202435, -53.91251088406693 14.812417970097624 M-53.91251088406693 14.812417970097624 C-54.12441377018395 14.683961195253906, -54.33631665630097 14.555504420410188, -54.84440582057932 14.247497783161299 M-53.91251088406693 14.812417970097624 C-54.23896197425471 14.614521400786249, -54.56541306444248 14.416624831474872, -54.84440582057932 14.247497783161299 M-54.84440582057932 14.247497783161299 C-55.02844639019767 14.119119048783386, -55.21248695981603 13.990740314405475, -55.73819151835067 13.624031571755264 M-54.84440582057932 14.247497783161299 C-55.04169517607925 14.109877269283094, -55.238984531579185 13.97225675540489, -55.73819151835067 13.624031571755264 M-55.73819151835067 13.624031571755264 C-55.997785297159524 13.41701244123578, -56.25737907596837 13.209993310716296, -56.5901952202324 12.94458129227529 M-55.73819151835067 13.624031571755264 C-55.98170334759358 13.42983736805597, -56.225215176836485 13.235643164356675, -56.5901952202324 12.94458129227529 M-56.5901952202324 12.94458129227529 C-56.824107746619234 12.73214812479707, -57.05802027300607 12.519714957318849, -57.39691586025926 12.211938951661377 M-56.5901952202324 12.94458129227529 C-56.85270243153563 12.706179188529902, -57.11520964283886 12.467777084784514, -57.39691586025926 12.211938951661377 M-57.39691586025926 12.211938951661377 C-57.66687649578224 11.933182431303527, -57.936837131305225 11.654425910945674, -58.155038450280365 11.429115134442386 M-57.39691586025926 12.211938951661377 C-57.62081936867895 11.980740196398136, -57.84472287709864 11.749541441134893, -58.155038450280365 11.429115134442386 M-58.155038450280365 11.429115134442386 C-58.30098588601935 11.257676971779022, -58.44693332175833 11.086238809115658, -58.86144770195651 10.599326631598473 M-58.155038450280365 11.429115134442386 C-58.402071079918095 11.138936551115078, -58.649103709555824 10.84875796778777, -58.86144770195651 10.599326631598473 M-58.86144770195651 10.599326631598473 C-59.02124548892846 10.385212154933935, -59.18104327590041 10.1710976782694, -59.51324082814825 9.72598322207689 M-58.86144770195651 10.599326631598473 C-59.020079454287966 10.386774535124248, -59.17871120661943 10.174222438650025, -59.51324082814825 9.72598322207689 M-59.51324082814825 9.72598322207689 C-59.69470276133612 9.447208963348508, -59.876164694523986 9.168434704620125, -60.10773947109088 8.812673661278936 M-59.51324082814825 9.72598322207689 C-59.72146172787808 9.406100004951437, -59.9296826276079 9.086216787825984, -60.10773947109088 8.812673661278936 M-60.10773947109088 8.812673661278936 C-60.23116455315562 8.593519929928178, -60.354589635220364 8.374366198577421, -60.642500708341004 7.863150934094201 M-60.10773947109088 8.812673661278936 C-60.3018334139559 8.468040211579162, -60.495927356820914 8.123406761879389, -60.642500708341004 7.863150934094201 M-60.642500708341004 7.863150934094201 C-60.77562240090894 7.586720891128959, -60.90874409347688 7.310290848163716, -61.11532709126881 6.881316833080701 M-60.642500708341004 7.863150934094201 C-60.75042923913631 7.639035030597129, -60.858357769931615 7.414919127100057, -61.11532709126881 6.881316833080701 M-61.11532709126881 6.881316833080701 C-61.27435545130891 6.488513709177488, -61.433383811349 6.095710585274274, -61.524275674845924 5.87120592516224 M-61.11532709126881 6.881316833080701 C-61.2259894862 6.607978578088808, -61.33665188113119 6.334640323096915, -61.524275674845924 5.87120592516224 M-61.524275674845924 5.87120592516224 C-61.61365408671444 5.602012389130303, -61.70303249858296 5.332818853098366, -61.867666001623235 4.8369689727275516 M-61.524275674845924 5.87120592516224 C-61.65413117572398 5.480101846181879, -61.78398667660205 5.088997767201517, -61.867666001623235 4.8369689727275516 M-61.867666001623235 4.8369689727275516 C-61.96758133410491 4.455948506395893, -62.067496666586585 4.074928040064233, -62.144087007091 3.782855877257349 M-61.867666001623235 4.8369689727275516 C-61.97116366587039 4.442287522781697, -62.07466133011756 4.047606072835844, -62.144087007091 3.782855877257349 M-62.144087007091 3.782855877257349 C-62.196244389991044 3.5150387395324088, -62.248401772891086 3.2472216018074684, -62.35240281804565 2.713198215567455 M-62.144087007091 3.782855877257349 C-62.18951900686886 3.5495721604545873, -62.234951006646725 3.3162884436518256, -62.35240281804565 2.713198215567455 M-62.35240281804565 2.713198215567455 C-62.40206549795346 2.328024277207891, -62.45172817786126 1.9428503388483267, -62.491757420136366 1.6323914404306026 M-62.35240281804565 2.713198215567455 C-62.39057096530385 2.4171736025860167, -62.428739112562056 2.1211489896045777, -62.491757420136366 1.6323914404306026 M-62.491757420136366 1.6323914404306026 C-62.519250546208546 1.2041638098045107, -62.546743672280726 0.7759361791784188, -62.5615781754117 0.54487681871814 M-62.491757420136366 1.6323914404306026 C-62.51524108310931 1.2666144339555234, -62.538724746082245 0.9008374274804444, -62.5615781754117 0.54487681871814 M-62.5615781754117 0.54487681871814 C-62.5615781754117 0.2330275870099338, -62.5615781754117 -0.07882164469827235, -62.5615781754117 -0.5448768187181317 M-62.5615781754117 0.54487681871814 C-62.5615781754117 0.11310466044819695, -62.5615781754117 -0.3186674978217461, -62.5615781754117 -0.5448768187181317 M-62.5615781754117 -0.5448768187181317 C-62.53555914346614 -0.9501442434546924, -62.509540111520586 -1.3554116681912531, -62.491757420136366 -1.6323914404305793 M-62.5615781754117 -0.5448768187181317 C-62.54740158220386 -0.7656887010702257, -62.533224988996025 -0.9865005834223197, -62.491757420136366 -1.6323914404305793 M-62.491757420136366 -1.6323914404305793 C-62.462847611257274 -1.8566102092093482, -62.43393780237818 -2.080828977988117, -62.352402818045654 -2.713198215567447 M-62.491757420136366 -1.6323914404305793 C-62.44831271719042 -1.9693399773523792, -62.40486801424448 -2.306288514274179, -62.352402818045654 -2.713198215567447 M-62.352402818045654 -2.713198215567447 C-62.27615127319119 -3.1047337826253956, -62.19989972833673 -3.496269349683345, -62.144087007091 -3.782855877257341 M-62.352402818045654 -2.713198215567447 C-62.297554846130915 -2.99483095922667, -62.242706874216175 -3.2764637028858927, -62.144087007091 -3.782855877257341 M-62.144087007091 -3.782855877257341 C-62.05831110970652 -4.109956549493452, -61.97253521232204 -4.437057221729564, -61.867666001623235 -4.836968972727544 M-62.144087007091 -3.782855877257341 C-62.05744772911931 -4.113248993864, -61.97080845114762 -4.443642110470657, -61.867666001623235 -4.836968972727544 M-61.867666001623235 -4.836968972727544 C-61.79865227668953 -5.044827316384057, -61.729638551755826 -5.252685660040572, -61.52427567484593 -5.871205925162218 M-61.867666001623235 -4.836968972727544 C-61.789282627247744 -5.073047207651819, -61.71089925287225 -5.309125442576094, -61.52427567484593 -5.871205925162218 M-61.52427567484593 -5.871205925162218 C-61.383740528574144 -6.218330453515746, -61.24320538230236 -6.565454981869274, -61.11532709126881 -6.881316833080692 M-61.52427567484593 -5.871205925162218 C-61.40936169857469 -6.155045668262766, -61.29444772230345 -6.438885411363316, -61.11532709126881 -6.881316833080692 M-61.11532709126881 -6.881316833080692 C-61.011029017520386 -7.097894014840583, -60.906730943771954 -7.314471196600475, -60.642500708341004 -7.863150934094194 M-61.11532709126881 -6.881316833080692 C-60.98899827915055 -7.143641314447822, -60.8626694670323 -7.405965795814952, -60.642500708341004 -7.863150934094194 M-60.642500708341004 -7.863150934094194 C-60.45759192171954 -8.191475208785619, -60.27268313509807 -8.51979948347704, -60.10773947109088 -8.812673661278929 M-60.642500708341004 -7.863150934094194 C-60.50873082658061 -8.100672904829139, -60.374960944820224 -8.338194875564083, -60.10773947109088 -8.812673661278929 M-60.10773947109088 -8.812673661278929 C-59.90522334253538 -9.123792817935067, -59.70270721397987 -9.434911974591204, -59.51324082814825 -9.725983222076884 M-60.10773947109088 -8.812673661278929 C-59.88080411696684 -9.161307305888533, -59.653868762842805 -9.50994095049814, -59.51324082814825 -9.725983222076884 M-59.51324082814825 -9.725983222076884 C-59.25912091648492 -10.066480752905543, -59.00500100482158 -10.4069782837342, -58.86144770195651 -10.599326631598467 M-59.51324082814825 -9.725983222076884 C-59.34375743039757 -9.953075534807626, -59.174274032646885 -10.180167847538367, -58.86144770195651 -10.599326631598467 M-58.86144770195651 -10.599326631598467 C-58.61639309046283 -10.887181722261358, -58.37133847896914 -11.175036812924247, -58.15503845028037 -11.42911513444238 M-58.86144770195651 -10.599326631598467 C-58.70332470538804 -10.785066900821176, -58.54520170881958 -10.970807170043885, -58.15503845028037 -11.42911513444238 M-58.15503845028037 -11.42911513444238 C-57.992064545860906 -11.597399071161876, -57.82909064144143 -11.76568300788137, -57.39691586025928 -12.21193895166136 M-58.15503845028037 -11.42911513444238 C-57.94979229144019 -11.641048644467892, -57.744546132600014 -11.852982154493402, -57.39691586025928 -12.21193895166136 M-57.39691586025928 -12.21193895166136 C-57.12922245182846 -12.455051022418763, -56.86152904339765 -12.698163093176165, -56.59019522023242 -12.944581292275274 M-57.39691586025928 -12.21193895166136 C-57.080737376955696 -12.499083884573428, -56.76455889365211 -12.786228817485497, -56.59019522023242 -12.944581292275274 M-56.59019522023242 -12.944581292275274 C-56.37594019019172 -13.115443977166926, -56.16168516015103 -13.28630666205858, -55.738191518350675 -13.624031571755259 M-56.59019522023242 -12.944581292275274 C-56.33216918749229 -13.150350187024422, -56.074143154752164 -13.356119081773572, -55.738191518350675 -13.624031571755259 M-55.738191518350675 -13.624031571755259 C-55.50600588289458 -13.785994219895272, -55.27382024743847 -13.947956868035286, -54.84440582057934 -14.247497783161284 M-55.738191518350675 -13.624031571755259 C-55.521128676827395 -13.775445213502934, -55.304065835304115 -13.926858855250611, -54.84440582057934 -14.247497783161284 M-54.84440582057934 -14.247497783161284 C-54.61057480074526 -14.389247521528304, -54.37674378091118 -14.530997259895324, -53.91251088406695 -14.812417970097618 M-54.84440582057934 -14.247497783161284 C-54.576483657618354 -14.409913772833628, -54.308561494657376 -14.572329762505971, -53.91251088406695 -14.812417970097618 M-53.91251088406695 -14.812417970097618 C-53.56831358433258 -14.991985480900146, -53.22411628459821 -15.171552991702672, -52.94633606499849 -15.316470754341124 M-53.91251088406695 -14.812417970097618 C-53.68181845010069 -14.932770065132257, -53.45112601613444 -15.053122160166893, -52.94633606499849 -15.316470754341124 M-52.94633606499849 -15.316470754341124 C-52.71707631006488 -15.417957247101233, -52.487816555131275 -15.519443739861343, -51.94985158294937 -15.757584874882365 M-52.94633606499849 -15.316470754341124 C-52.630415972898376 -15.45631920767728, -52.31449588079826 -15.596167661013437, -51.94985158294937 -15.757584874882365 M-51.94985158294937 -15.757584874882365 C-51.72540902209026 -15.840181812002808, -51.50096646123115 -15.92277874912325, -50.927152206401566 -16.133947699181363 M-51.94985158294937 -15.757584874882365 C-51.720749118000796 -15.841896699783412, -51.49164665305222 -15.926208524684457, -50.927152206401566 -16.133947699181363 M-50.927152206401566 -16.133947699181363 C-50.55902017858553 -16.243207352672716, -50.19088815076949 -16.35246700616407, -49.88244042646164 -16.444012671663494 M-50.927152206401566 -16.133947699181363 C-50.67356348478054 -16.20921150064412, -50.419974763159516 -16.284475302106877, -49.88244042646164 -16.444012671663494 M-49.88244042646164 -16.444012671663494 C-49.480325345251956 -16.53579281490347, -49.07821026404227 -16.627572958143446, -48.82000918792333 -16.68650566884811 M-49.88244042646164 -16.444012671663494 C-49.500711960185605 -16.531139703079962, -49.11898349390957 -16.618266734496427, -48.82000918792333 -16.68650566884811 M-48.82000918792333 -16.68650566884811 C-48.40810125564586 -16.753099748945008, -47.99619332336838 -16.819693829041906, -47.74422424863661 -16.86043023499518 M-48.82000918792333 -16.68650566884811 C-48.51478103459238 -16.735852589598977, -48.20955288126144 -16.78519951034984, -47.74422424863661 -16.86043023499518 M-47.74422424863661 -16.86043023499518 C-47.459825613262744 -16.887865829310297, -47.175426977888876 -16.915301423625415, -46.65950623967212 -16.965071676755716 M-47.74422424863661 -16.86043023499518 C-47.362360236918875 -16.897268196946925, -46.98049622520114 -16.93410615889867, -46.65950623967212 -16.965071676755716 M-46.65950623967212 -16.965071676755716 C-46.229862887722106 -16.978849502802703, -45.8002195357721 -16.992627328849686, -45.57031250000001 -17 M-46.65950623967212 -16.965071676755716 C-46.44116064019155 -16.97207359514713, -46.22281504071097 -16.979075513538547, -45.57031250000001 -17 M-45.57031250000001 -17 C-45.57031250000001 -17, -45.5703125 -17, -45.5703125 -17 M-45.57031250000001 -17 C-45.57031250000001 -17, -45.5703125 -17, -45.5703125 -17" stroke="#555555" stroke-width="1.3" fill="none" stroke-dasharray="0 0" style=""></path></g><g class="label" style="" transform="translate(0, -9.5)"><rect></rect><g><rect class="background" style="stroke: none"></rect><text y="-10.1" style=""><tspan class="text-outer-tspan row" x="0" y="-0.1em" dy="1.1em"><tspan font-style="normal" class="text-inner-tspan" font-weight="normal">Client</tspan><tspan font-style="normal" class="text-inner-tspan" font-weight="normal"> request</tspan></tspan></text></g></g></g><g class="node default neutral" id="gce3d36b8-e044-4260-8730-f7d4c11502db-dark-flowchart-Decision-1" data-look="classic" transform="translate(293.03125, 153.07343673706055)"><polygon points="61.07343673706055,0 122.1468734741211,-61.07343673706055 61.07343673706055,-122.1468734741211 0,-61.07343673706055" class="label-container" transform="translate(-60.57343673706055, 61.07343673706055)" style="fill:#5A5A5A !important;stroke:#3D3D3D !important"></polygon><g class="label" style="color:#ffffff !important" transform="translate(0, -18.299999237060547)"><rect></rect><g><rect class="background" style="stroke: none"></rect><text y="-10.1" style="fill:#404040 !important"><tspan class="text-outer-tspan row" x="0" y="-0.1em" dy="1.1em"><tspan font-style="normal" class="text-inner-tspan" font-weight="normal">Identify</tspan></tspan><tspan class="text-outer-tspan row" x="0" y="1em" dy="1.1em"><tspan font-style="normal" class="text-inner-tspan" font-weight="normal">key</tspan></tspan></text></g></g></g><g class="node default primary" id="gce3d36b8-e044-4260-8730-f7d4c11502db-dark-flowchart-Algo-3" data-look="classic" transform="translate(293.03125, 297.44687271118164)"><rect class="basic label-container" style="fill:#2E5A88 !important;stroke:#1F4870 !important" x="-124.71875" y="-33.29999923706055" width="249.4375" height="66.5999984741211"></rect><g class="label" style="color:#ffffff !important" transform="translate(0, -18.299999237060547)"><rect></rect><g><rect class="background" style="stroke: none"></rect><text y="-10.1" style="fill:#404040 !important"><tspan class="text-outer-tspan row" x="0" y="-0.1em" dy="1.1em"><tspan font-style="normal" class="text-inner-tspan" font-weight="normal">Algorithm</tspan></tspan><tspan class="text-outer-tspan row" x="0" y="1em" dy="1.1em"><tspan font-style="normal" class="text-inner-tspan" font-weight="normal">TB</tspan><tspan font-style="normal" class="text-inner-tspan" font-weight="normal"> /</tspan><tspan font-style="normal" class="text-inner-tspan" font-weight="normal"> LB</tspan><tspan font-style="normal" class="text-inner-tspan" font-weight="normal"> /</tspan><tspan font-style="normal" class="text-inner-tspan" font-weight="normal"> FW</tspan><tspan font-style="normal" class="text-inner-tspan" font-weight="normal"> /</tspan><tspan font-style="normal" class="text-inner-tspan" font-weight="normal"> SWL</tspan><tspan font-style="normal" class="text-inner-tspan" font-weight="normal"> /</tspan><tspan font-style="normal" class="text-inner-tspan" font-weight="normal"> SWC</tspan></tspan></text></g></g></g><g class="node default neutral" id="gce3d36b8-e044-4260-8730-f7d4c11502db-dark-flowchart-Coord-5" data-look="classic" transform="translate(293.03125, 445.92186737060547)"><polygon points="65.17499923706055,0 130.3499984741211,-65.17499923706055 65.17499923706055,-130.3499984741211 0,-65.17499923706055" class="label-container" transform="translate(-64.67499923706055, 65.17499923706055)" style="fill:#5A5A5A !important;stroke:#3D3D3D !important"></polygon><g class="label" style="color:#ffffff !important" transform="translate(0, -18.299999237060547)"><rect></rect><g><rect class="background" style="stroke: none"></rect><text y="-10.1" style="fill:#404040 !important"><tspan class="text-outer-tspan row" x="0" y="-0.1em" dy="1.1em"><tspan font-style="normal" class="text-inner-tspan" font-weight="normal">State</tspan></tspan><tspan class="text-outer-tspan row" x="0" y="1em" dy="1.1em"><tspan font-style="normal" class="text-inner-tspan" font-weight="normal">location?</tspan></tspan></text></g></g></g><g class="node default primary" id="gce3d36b8-e044-4260-8730-f7d4c11502db-dark-flowchart-Local-7" data-look="classic" transform="translate(86.921875, 630.618335723877)"><rect class="basic label-container" style="fill:#2E5A88 !important;stroke:#1F4870 !important" x="-78.921875" y="-33.29999923706055" width="157.84375" height="66.5999984741211"></rect><g class="label" style="color:#ffffff !important" transform="translate(0, -18.299999237060547)"><rect></rect><g><rect class="background" style="stroke: none"></rect><text y="-10.1" style="fill:#404040 !important"><tspan class="text-outer-tspan row" x="0" y="-0.1em" dy="1.1em"><tspan font-style="normal" class="text-inner-tspan" font-weight="normal">Local</tspan><tspan font-style="normal" class="text-inner-tspan" font-weight="normal"> counter</tspan></tspan><tspan class="text-outer-tspan row" x="0" y="1em" dy="1.1em"><tspan font-style="normal" class="text-inner-tspan" font-weight="normal">O(1)</tspan><tspan font-style="normal" class="text-inner-tspan" font-weight="normal"> memory</tspan></tspan></text></g></g></g><g class="node default storage" id="gce3d36b8-e044-4260-8730-f7d4c11502db-dark-flowchart-Shared-9" data-look="classic" transform="translate(293.03125, 630.618335723877)"><path d="M0,13.814317673378076 a77.1875,13.814317673378076 0,0,0 154.375,0 a77.1875,13.814317673378076 0,0,0 -154.375,0 l0,65.41431614749916 a77.1875,13.814317673378076 0,0,0 154.375,0 l0,-65.41431614749916" class="basic label-container outer-path" style="fill:#8B5E15 !important;stroke:#6E4810 !important" transform="translate(-77.1875, -46.52147574712766)"></path><g class="label" style="color:#ffffff !important" transform="translate(0, -9.299999237060547)"><rect></rect><g><rect class="background" style="stroke: none"></rect><text y="-10.1" style="fill:#404040 !important"><tspan class="text-outer-tspan row" x="0" y="-0.1em" dy="1.1em"><tspan font-style="normal" class="text-inner-tspan" font-weight="normal">Redis</tspan><tspan font-style="normal" class="text-inner-tspan" font-weight="normal"> /</tspan><tspan font-style="normal" class="text-inner-tspan" font-weight="normal"> Memcached</tspan></tspan><tspan class="text-outer-tspan row" x="0" y="1em" dy="1.1em"><tspan font-style="normal" class="text-inner-tspan" font-weight="normal">+</tspan><tspan font-style="normal" class="text-inner-tspan" font-weight="normal"> Lua</tspan><tspan font-style="normal" class="text-inner-tspan" font-weight="normal"> atomic</tspan><tspan font-style="normal" class="text-inner-tspan" font-weight="normal"> ops</tspan></tspan></text></g></g></g><g class="node default primary" id="gce3d36b8-e044-4260-8730-f7d4c11502db-dark-flowchart-Hybrid-11" data-look="classic" transform="translate(503.9609375, 630.618335723877)"><rect class="basic label-container" style="fill:#2E5A88 !important;stroke:#1F4870 !important" x="-83.7421875" y="-33.29999923706055" width="167.484375" height="66.5999984741211"></rect><g class="label" style="color:#ffffff !important" transform="translate(0, -18.299999237060547)"><rect></rect><g><rect class="background" style="stroke: none"></rect><text y="-10.1" style="fill:#404040 !important"><tspan class="text-outer-tspan row" x="0" y="-0.1em" dy="1.1em"><tspan font-style="normal" class="text-inner-tspan" font-weight="normal">Local</tspan><tspan font-style="normal" class="text-inner-tspan" font-weight="normal"> approx</tspan></tspan><tspan class="text-outer-tspan row" x="0" y="1em" dy="1.1em"><tspan font-style="normal" class="text-inner-tspan" font-weight="normal">+</tspan><tspan font-style="normal" class="text-inner-tspan" font-weight="normal"> periodic</tspan><tspan font-style="normal" class="text-inner-tspan" font-weight="normal"> sync</tspan></tspan></text></g></g></g><g class="node default neutral" id="gce3d36b8-e044-4260-8730-f7d4c11502db-dark-flowchart-Verdict-13" data-look="classic" transform="translate(293.03125, 774.2648086547852)"><polygon points="47.125,0 94.25,-47.125 47.125,-94.25 0,-47.125" class="label-container" transform="translate(-46.625, 47.125)" style="fill:#5A5A5A !important;stroke:#3D3D3D !important"></polygon><g class="label" style="color:#ffffff !important" transform="translate(0, -9.5)"><rect></rect><g><rect class="background" style="stroke: none"></rect><text y="-10.1" style="fill:#404040 !important"><tspan class="text-outer-tspan row" x="0" y="-0.1em" dy="1.1em"><tspan font-style="normal" class="text-inner-tspan" font-weight="normal">Allow?</tspan></tspan></text></g></g></g><g class="node default primary" id="gce3d36b8-e044-4260-8730-f7d4c11502db-dark-flowchart-Backend-19" data-look="classic" transform="translate(170.8359375, 936.4898071289062)"><rect class="basic label-container" style="fill:#2E5A88 !important;stroke:#1F4870 !important" x="-87.5703125" y="-24.5" width="175.140625" height="49"></rect><g class="label" style="color:#ffffff !important" transform="translate(0, -9.5)"><rect></rect><g><rect class="background" style="stroke: none"></rect><text y="-10.1" style="fill:#404040 !important"><tspan class="text-outer-tspan row" x="0" y="-0.1em" dy="1.1em"><tspan font-style="normal" class="text-inner-tspan" font-weight="normal">Backend</tspan><tspan font-style="normal" class="text-inner-tspan" font-weight="normal"> service</tspan></tspan></text></g></g></g><g class="node default alert" id="gce3d36b8-e044-4260-8730-f7d4c11502db-dark-flowchart-Reject-21" data-look="classic" transform="translate(420.046875, 936.4898071289062)"><rect class="basic label-container" style="fill:#B43A3A !important;stroke:#8E2828 !important" x="-111.640625" y="-42.099998474121094" width="223.28125" height="84.19999694824219"></rect><g class="label" style="color:#ffffff !important" transform="translate(0, -27.099998474121094)"><rect></rect><g><rect class="background" style="stroke: none"></rect><text y="-10.1" style="fill:#404040 !important"><tspan class="text-outer-tspan row" x="0" y="-0.1em" dy="1.1em"><tspan font-style="normal" class="text-inner-tspan" font-weight="normal">429</tspan><tspan font-style="normal" class="text-inner-tspan" font-weight="normal"> Too</tspan><tspan font-style="normal" class="text-inner-tspan" font-weight="normal"> Many</tspan><tspan font-style="normal" class="text-inner-tspan" font-weight="normal"> Requests</tspan></tspan><tspan class="text-outer-tspan row" x="0" y="1em" dy="1.1em"><tspan font-style="normal" class="text-inner-tspan" font-weight="normal">+</tspan><tspan font-style="normal" class="text-inner-tspan" font-weight="normal"> Retry-After</tspan></tspan><tspan class="text-outer-tspan row" x="0" y="2.1em" dy="1.1em"><tspan font-style="normal" class="text-inner-tspan" font-weight="normal">+</tspan><tspan font-style="normal" class="text-inner-tspan" font-weight="normal"> RateLimit</tspan><tspan font-style="normal" class="text-inner-tspan" font-weight="normal"> headers</tspan></tspan></text></g></g></g></g></g></g><defs><filter id="gce3d36b8-e044-4260-8730-f7d4c11502db-dark-drop-shadow" height="130%" width="130%"><feDropShadow dx="4" dy="4" stdDeviation="0" flood-opacity="0.06" flood-color="#000000"></feDropShadow></filter></defs><defs><filter id="gce3d36b8-e044-4260-8730-f7d4c11502db-dark-drop-shadow-small" height="150%" width="150%"><feDropShadow dx="2" dy="2" stdDeviation="0" flood-opacity="0.06" flood-color="#000000"></feDropShadow></filter></defs><linearGradient id="gce3d36b8-e044-4260-8730-f7d4c11502db-dark-gradient" gradientUnits="objectBoundingBox" x1="0%" y1="0%" x2="100%" y2="0%"><stop offset="0%" stop-color="#555555" stop-opacity="1"></stop><stop offset="100%" stop-color="#555555" stop-opacity="1"></stop></linearGradient></svg>