<svg id="g3bf6d418-9c47-41e0-ac92-25241efcac4e-dark" width="100%" xmlns="http://www.w3.org/2000/svg" xmlns:xlink="http://www.w3.org/1999/xlink" class="flowchart" style="max-width: 673.43359375px;" viewBox="0 0 673.43359375 1237.5062255859375" role="graphics-document document" aria-roledescription="flowchart-v2"><style>#g3bf6d418-9c47-41e0-ac92-25241efcac4e-dark{font-family:"trebuchet ms",verdana,arial,sans-serif;font-size:16px;fill:#e5e5e5;}@keyframes edge-animation-frame{from{stroke-dashoffset:0;}}@keyframes dash{to{stroke-dashoffset:0;}}#g3bf6d418-9c47-41e0-ac92-25241efcac4e-dark .edge-animation-slow{stroke-dasharray:9,5!important;stroke-dashoffset:900;animation:dash 50s linear infinite;stroke-linecap:round;}#g3bf6d418-9c47-41e0-ac92-25241efcac4e-dark .edge-animation-fast{stroke-dasharray:9,5!important;stroke-dashoffset:900;animation:dash 20s linear infinite;stroke-linecap:round;}#g3bf6d418-9c47-41e0-ac92-25241efcac4e-dark .error-icon{fill:#252525;}#g3bf6d418-9c47-41e0-ac92-25241efcac4e-dark .error-text{fill:#cccccc;stroke:#cccccc;}#g3bf6d418-9c47-41e0-ac92-25241efcac4e-dark .edge-thickness-normal{stroke-width:1px;}#g3bf6d418-9c47-41e0-ac92-25241efcac4e-dark .edge-thickness-thick{stroke-width:3.5px;}#g3bf6d418-9c47-41e0-ac92-25241efcac4e-dark .edge-pattern-solid{stroke-dasharray:0;}#g3bf6d418-9c47-41e0-ac92-25241efcac4e-dark .edge-thickness-invisible{stroke-width:0;fill:none;}#g3bf6d418-9c47-41e0-ac92-25241efcac4e-dark .edge-pattern-dashed{stroke-dasharray:3;}#g3bf6d418-9c47-41e0-ac92-25241efcac4e-dark .edge-pattern-dotted{stroke-dasharray:2;}#g3bf6d418-9c47-41e0-ac92-25241efcac4e-dark .marker{fill:#cccccc;stroke:#cccccc;}#g3bf6d418-9c47-41e0-ac92-25241efcac4e-dark .marker.cross{stroke:#cccccc;}#g3bf6d418-9c47-41e0-ac92-25241efcac4e-dark svg{font-family:"trebuchet ms",verdana,arial,sans-serif;font-size:16px;}#g3bf6d418-9c47-41e0-ac92-25241efcac4e-dark p{margin:0;}#g3bf6d418-9c47-41e0-ac92-25241efcac4e-dark .label{font-family:"trebuchet ms",verdana,arial,sans-serif;color:#e5e5e5;}#g3bf6d418-9c47-41e0-ac92-25241efcac4e-dark .cluster-label text{fill:#e5e5e5;}#g3bf6d418-9c47-41e0-ac92-25241efcac4e-dark .cluster-label span{color:#e5e5e5;}#g3bf6d418-9c47-41e0-ac92-25241efcac4e-dark .cluster-label span p{background-color:transparent;}#g3bf6d418-9c47-41e0-ac92-25241efcac4e-dark .label text,#g3bf6d418-9c47-41e0-ac92-25241efcac4e-dark span{fill:#e5e5e5;color:#e5e5e5;}#g3bf6d418-9c47-41e0-ac92-25241efcac4e-dark .node rect,#g3bf6d418-9c47-41e0-ac92-25241efcac4e-dark .node circle,#g3bf6d418-9c47-41e0-ac92-25241efcac4e-dark .node ellipse,#g3bf6d418-9c47-41e0-ac92-25241efcac4e-dark .node polygon,#g3bf6d418-9c47-41e0-ac92-25241efcac4e-dark .node path{fill:#2d2d2d;stroke:#555555;stroke-width:1px;}#g3bf6d418-9c47-41e0-ac92-25241efcac4e-dark .rough-node .label text,#g3bf6d418-9c47-41e0-ac92-25241efcac4e-dark .node .label text,#g3bf6d418-9c47-41e0-ac92-25241efcac4e-dark .image-shape .label,#g3bf6d418-9c47-41e0-ac92-25241efcac4e-dark .icon-shape .label{text-anchor:middle;}#g3bf6d418-9c47-41e0-ac92-25241efcac4e-dark .node .katex path{fill:#000;stroke:#000;stroke-width:1px;}#g3bf6d418-9c47-41e0-ac92-25241efcac4e-dark .rough-node .label,#g3bf6d418-9c47-41e0-ac92-25241efcac4e-dark .node .label,#g3bf6d418-9c47-41e0-ac92-25241efcac4e-dark .image-shape .label,#g3bf6d418-9c47-41e0-ac92-25241efcac4e-dark .icon-shape .label{text-align:center;}#g3bf6d418-9c47-41e0-ac92-25241efcac4e-dark .node.clickable{cursor:pointer;}#g3bf6d418-9c47-41e0-ac92-25241efcac4e-dark .root .anchor path{fill:#cccccc!important;stroke-width:0;stroke:#cccccc;}#g3bf6d418-9c47-41e0-ac92-25241efcac4e-dark .arrowheadPath{fill:#cccccc;}#g3bf6d418-9c47-41e0-ac92-25241efcac4e-dark .edgePath .path{stroke:#cccccc;stroke-width:1px;}#g3bf6d418-9c47-41e0-ac92-25241efcac4e-dark .flowchart-link{stroke:#cccccc;fill:none;}#g3bf6d418-9c47-41e0-ac92-25241efcac4e-dark .edgeLabel{background-color:#1e1e1e;text-align:center;}#g3bf6d418-9c47-41e0-ac92-25241efcac4e-dark .edgeLabel p{background-color:#1e1e1e;}#g3bf6d418-9c47-41e0-ac92-25241efcac4e-dark .edgeLabel rect{opacity:0.5;background-color:#1e1e1e;fill:#1e1e1e;}#g3bf6d418-9c47-41e0-ac92-25241efcac4e-dark .labelBkg{background-color:rgba(30, 30, 30, 0.5);}#g3bf6d418-9c47-41e0-ac92-25241efcac4e-dark .cluster rect{fill:#1e1e1e;stroke:#555555;stroke-width:1px;}#g3bf6d418-9c47-41e0-ac92-25241efcac4e-dark .cluster text{fill:#e5e5e5;}#g3bf6d418-9c47-41e0-ac92-25241efcac4e-dark .cluster span{color:#e5e5e5;}#g3bf6d418-9c47-41e0-ac92-25241efcac4e-dark div.mermaidTooltip{position:absolute;text-align:center;max-width:200px;padding:2px;font-family:"trebuchet ms",verdana,arial,sans-serif;font-size:12px;background:#252525;border:1px solid #555555;border-radius:2px;pointer-events:none;z-index:100;}#g3bf6d418-9c47-41e0-ac92-25241efcac4e-dark .flowchartTitleText{text-anchor:middle;font-size:18px;fill:#e5e5e5;}#g3bf6d418-9c47-41e0-ac92-25241efcac4e-dark rect.text{fill:none;stroke-width:0;}#g3bf6d418-9c47-41e0-ac92-25241efcac4e-dark .icon-shape,#g3bf6d418-9c47-41e0-ac92-25241efcac4e-dark .image-shape{background-color:#1e1e1e;text-align:center;}#g3bf6d418-9c47-41e0-ac92-25241efcac4e-dark .icon-shape p,#g3bf6d418-9c47-41e0-ac92-25241efcac4e-dark .image-shape p{background-color:#1e1e1e;padding:2px;}#g3bf6d418-9c47-41e0-ac92-25241efcac4e-dark .icon-shape .label rect,#g3bf6d418-9c47-41e0-ac92-25241efcac4e-dark .image-shape .label rect{opacity:0.5;background-color:#1e1e1e;fill:#1e1e1e;}#g3bf6d418-9c47-41e0-ac92-25241efcac4e-dark .label-icon{display:inline-block;height:1em;overflow:visible;vertical-align:-0.125em;}#g3bf6d418-9c47-41e0-ac92-25241efcac4e-dark .node .label-icon path{fill:currentColor;stroke:revert;stroke-width:revert;}#g3bf6d418-9c47-41e0-ac92-25241efcac4e-dark .node .neo-node{stroke:#555555;}#g3bf6d418-9c47-41e0-ac92-25241efcac4e-dark [data-look="neo"].node rect,#g3bf6d418-9c47-41e0-ac92-25241efcac4e-dark [data-look="neo"].cluster rect,#g3bf6d418-9c47-41e0-ac92-25241efcac4e-dark [data-look="neo"].node polygon{stroke:url(#g3bf6d418-9c47-41e0-ac92-25241efcac4e-dark-gradient);filter:drop-shadow( 1px 2px 2px rgba(185,185,185,1));}#g3bf6d418-9c47-41e0-ac92-25241efcac4e-dark [data-look="neo"].node path{stroke:url(#g3bf6d418-9c47-41e0-ac92-25241efcac4e-dark-gradient);stroke-width:1px;}#g3bf6d418-9c47-41e0-ac92-25241efcac4e-dark [data-look="neo"].node .outer-path{filter:drop-shadow( 1px 2px 2px rgba(185,185,185,1));}#g3bf6d418-9c47-41e0-ac92-25241efcac4e-dark [data-look="neo"].node .neo-line path{stroke:#555555;filter:none;}#g3bf6d418-9c47-41e0-ac92-25241efcac4e-dark [data-look="neo"].node circle{stroke:url(#g3bf6d418-9c47-41e0-ac92-25241efcac4e-dark-gradient);filter:drop-shadow( 1px 2px 2px rgba(185,185,185,1));}#g3bf6d418-9c47-41e0-ac92-25241efcac4e-dark [data-look="neo"].node circle .state-start{fill:#000000;}#g3bf6d418-9c47-41e0-ac92-25241efcac4e-dark [data-look="neo"].icon-shape .icon{fill:url(#g3bf6d418-9c47-41e0-ac92-25241efcac4e-dark-gradient);filter:drop-shadow( 1px 2px 2px rgba(185,185,185,1));}#g3bf6d418-9c47-41e0-ac92-25241efcac4e-dark [data-look="neo"].icon-shape .icon-neo path{stroke:url(#g3bf6d418-9c47-41e0-ac92-25241efcac4e-dark-gradient);filter:drop-shadow( 1px 2px 2px rgba(185,185,185,1));}#g3bf6d418-9c47-41e0-ac92-25241efcac4e-dark :root{--mermaid-font-family:"trebuchet ms",verdana,arial,sans-serif;}</style><g><marker id="g3bf6d418-9c47-41e0-ac92-25241efcac4e-dark_flowchart-v2-pointEnd" class="marker flowchart-v2" viewBox="0 0 10 10" refX="5" refY="5" markerUnits="userSpaceOnUse" markerWidth="8" markerHeight="8" orient="auto"><path d="M 0 0 L 10 5 L 0 10 z" class="arrowMarkerPath" style="stroke-width: 1; stroke-dasharray: 1, 0;"></path></marker><marker id="g3bf6d418-9c47-41e0-ac92-25241efcac4e-dark_flowchart-v2-pointStart" class="marker flowchart-v2" viewBox="0 0 10 10" refX="4.5" refY="5" markerUnits="userSpaceOnUse" markerWidth="8" markerHeight="8" orient="auto"><path d="M 0 5 L 10 10 L 10 0 z" class="arrowMarkerPath" style="stroke-width: 1; stroke-dasharray: 1, 0;"></path></marker><marker id="g3bf6d418-9c47-41e0-ac92-25241efcac4e-dark_flowchart-v2-pointEnd-margin" class="marker flowchart-v2" viewBox="0 0 11.5 14" refX="11.5" refY="7" markerUnits="userSpaceOnUse" markerWidth="10.5" markerHeight="14" orient="auto"><path d="M 0 0 L 11.5 7 L 0 14 z" class="arrowMarkerPath" style="stroke-width: 0; stroke-dasharray: 1, 0;"></path></marker><marker id="g3bf6d418-9c47-41e0-ac92-25241efcac4e-dark_flowchart-v2-pointStart-margin" class="marker flowchart-v2" viewBox="0 0 11.5 14" refX="1" refY="7" markerUnits="userSpaceOnUse" markerWidth="11.5" markerHeight="14" orient="auto"><polygon points="0,7 11.5,14 11.5,0" class="arrowMarkerPath" style="stroke-width: 0; stroke-dasharray: 1, 0;"></polygon></marker><marker id="g3bf6d418-9c47-41e0-ac92-25241efcac4e-dark_flowchart-v2-circleEnd" class="marker flowchart-v2" viewBox="0 0 10 10" refX="11" refY="5" markerUnits="userSpaceOnUse" markerWidth="11" markerHeight="11" orient="auto"><circle cx="5" cy="5" r="5" class="arrowMarkerPath" style="stroke-width: 1; stroke-dasharray: 1, 0;"></circle></marker><marker id="g3bf6d418-9c47-41e0-ac92-25241efcac4e-dark_flowchart-v2-circleStart" class="marker flowchart-v2" viewBox="0 0 10 10" refX="-1" refY="5" markerUnits="userSpaceOnUse" markerWidth="11" markerHeight="11" orient="auto"><circle cx="5" cy="5" r="5" class="arrowMarkerPath" style="stroke-width: 1; stroke-dasharray: 1, 0;"></circle></marker><marker id="g3bf6d418-9c47-41e0-ac92-25241efcac4e-dark_flowchart-v2-circleEnd-margin" class="marker flowchart-v2" viewBox="0 0 10 10" refY="5" refX="12.25" markerUnits="userSpaceOnUse" markerWidth="14" markerHeight="14" orient="auto"><circle cx="5" cy="5" r="5" class="arrowMarkerPath" style="stroke-width: 0; stroke-dasharray: 1, 0;"></circle></marker><marker id="g3bf6d418-9c47-41e0-ac92-25241efcac4e-dark_flowchart-v2-circleStart-margin" class="marker flowchart-v2" viewBox="0 0 10 10" refX="-2" refY="5" markerUnits="userSpaceOnUse" markerWidth="14" markerHeight="14" orient="auto"><circle cx="5" cy="5" r="5" class="arrowMarkerPath" style="stroke-width: 0; stroke-dasharray: 1, 0;"></circle></marker><marker id="g3bf6d418-9c47-41e0-ac92-25241efcac4e-dark_flowchart-v2-crossEnd" class="marker cross flowchart-v2" viewBox="0 0 11 11" refX="12" refY="5.2" markerUnits="userSpaceOnUse" markerWidth="11" markerHeight="11" orient="auto"><path d="M 1,1 l 9,9 M 10,1 l -9,9" class="arrowMarkerPath" style="stroke-width: 2; stroke-dasharray: 1, 0;"></path></marker><marker id="g3bf6d418-9c47-41e0-ac92-25241efcac4e-dark_flowchart-v2-crossStart" class="marker cross flowchart-v2" viewBox="0 0 11 11" refX="-1" refY="5.2" markerUnits="userSpaceOnUse" markerWidth="11" markerHeight="11" orient="auto"><path d="M 1,1 l 9,9 M 10,1 l -9,9" class="arrowMarkerPath" style="stroke-width: 2; stroke-dasharray: 1, 0;"></path></marker><marker id="g3bf6d418-9c47-41e0-ac92-25241efcac4e-dark_flowchart-v2-crossEnd-margin" class="marker cross flowchart-v2" viewBox="0 0 15 15" refX="17.7" refY="7.5" markerUnits="userSpaceOnUse" markerWidth="12" markerHeight="12" orient="auto"><path d="M 1,1 L 14,14 M 1,14 L 14,1" class="arrowMarkerPath" style="stroke-width: 2.5;"></path></marker><marker id="g3bf6d418-9c47-41e0-ac92-25241efcac4e-dark_flowchart-v2-crossStart-margin" class="marker cross flowchart-v2" viewBox="0 0 15 15" refX="-3.5" refY="7.5" markerUnits="userSpaceOnUse" markerWidth="12" markerHeight="12" orient="auto"><path d="M 1,1 L 14,14 M 1,14 L 14,1" class="arrowMarkerPath" style="stroke-width: 2.5; stroke-dasharray: 1, 0;"></path></marker><g class="root"><g class="clusters"></g><g class="edgePaths"><path d="M261.883,42.5L261.799,46.583C261.716,50.667,261.549,58.833,261.466,66.417C261.383,74,261.383,81,261.383,84.5L261.383,88" id="g3bf6d418-9c47-41e0-ac92-25241efcac4e-dark-L_Start_Q1_0" class="edge-thickness-normal edge-pattern-solid edge-thickness-normal edge-pattern-solid flowchart-link" style=";" data-edge="true" data-et="edge" data-id="L_Start_Q1_0" data-points="W3sieCI6MjYxLjg4MjgxMjUsInkiOjQyLjV9LHsieCI6MjYxLjM4MjgxMjUsInkiOjY3fSx7IngiOjI2MS4zODI4MTI1LCJ5Ijo5MS45OTk5OTk5OTk5OTk5OX1d" data-look="classic" marker-end="url(#g3bf6d418-9c47-41e0-ac92-25241efcac4e-dark_flowchart-v2-pointEnd)"></path><path d="M206.095,231.671L186.048,246.969C166.002,262.267,125.909,292.863,105.863,333.351C85.816,373.838,85.816,424.217,85.816,474.595C85.816,524.974,85.816,575.353,88.599,606.031C91.382,636.709,96.947,647.686,99.73,653.175L102.512,658.664" id="g3bf6d418-9c47-41e0-ac92-25241efcac4e-dark-L_Q1_NotIOS_0" class="edge-thickness-normal edge-pattern-solid edge-thickness-normal edge-pattern-solid flowchart-link" style=";" data-edge="true" data-et="edge" data-id="L_Q1_NotIOS_0" data-points="W3sieCI6MjA2LjA5NDg5NTM1NDk5ODUsInkiOjIzMS42NzE0NjM5NTg1MTQxNX0seyJ4Ijo4NS44MTY0MDYyNSwieSI6MzIzLjQ1OTM4MTEwMzUxNTZ9LHsieCI6ODUuODE2NDA2MjUsInkiOjQ3NC41OTUzMjE2NTUyNzM0NH0seyJ4Ijo4NS44MTY0MDYyNSwieSI6NjI1LjczMTI2MjIwNzAzMTJ9LHsieCI6MTA0LjMyMDkyMjcwNDA1MTk1LCJ5Ijo2NjIuMjMxMjYyMjA3MDMxMn1d" data-look="classic" marker-end="url(#g3bf6d418-9c47-41e0-ac92-25241efcac4e-dark_flowchart-v2-pointEnd)"></path><path d="M302.568,245.774L312.04,258.722C321.513,271.669,340.458,297.564,349.93,315.929C359.402,334.293,359.402,345.126,359.402,350.543L359.402,355.959" id="g3bf6d418-9c47-41e0-ac92-25241efcac4e-dark-L_Q1_Q2_0" class="edge-thickness-normal edge-pattern-solid edge-thickness-normal edge-pattern-solid flowchart-link" style=";" data-edge="true" data-et="edge" data-id="L_Q1_Q2_0" data-points="W3sieCI6MzAyLjU2NzkyMjk1MDI1MzksInkiOjI0NS43NzQyNzA2NTMyNjE2OH0seyJ4IjozNTkuNDAyMzQzNzUsInkiOjMyMy40NTkzODExMDM1MTU2fSx7IngiOjM1OS40MDIzNDM3NSwieSI6MzU5Ljk1OTM4MTEwMzUxNTZ9XQ==" data-look="classic" marker-end="url(#g3bf6d418-9c47-41e0-ac92-25241efcac4e-dark_flowchart-v2-pointEnd)"></path><path d="M304.24,534.069L290.071,549.346C275.901,564.623,247.562,595.177,225.393,616.151C203.223,637.125,187.224,648.518,179.224,654.214L171.224,659.911" id="g3bf6d418-9c47-41e0-ac92-25241efcac4e-dark-L_Q2_NotIOS_0" class="edge-thickness-normal edge-pattern-solid edge-thickness-normal edge-pattern-solid flowchart-link" style=";" data-edge="true" data-et="edge" data-id="L_Q2_NotIOS_0" data-points="W3sieCI6MzA0LjI0MDA3NzIwNjcyMDM0LCJ5Ijo1MzQuMDY4OTk1NjYzNzUxNX0seyJ4IjoyMTkuMjIyNjU2MjUsInkiOjYyNS43MzEyNjIyMDcwMzEyfSx7IngiOjE2Ny45NjYwMjQwMTg5MDEwNCwieSI6NjYyLjIzMTI2MjIwNzAzMTJ9XQ==" data-look="classic" marker-end="url(#g3bf6d418-9c47-41e0-ac92-25241efcac4e-dark_flowchart-v2-pointEnd)"></path><path d="M384.406,564.228L387.265,574.478C390.125,584.729,395.844,605.23,398.703,620.897C401.563,636.565,401.563,647.398,401.563,652.815L401.563,658.231" id="g3bf6d418-9c47-41e0-ac92-25241efcac4e-dark-L_Q2_Walk_0" class="edge-thickness-normal edge-pattern-solid edge-thickness-normal edge-pattern-solid flowchart-link" style=";" data-edge="true" data-et="edge" data-id="L_Q2_Walk_0" data-points="W3sieCI6Mzg0LjQwNTc5MzA5Nzg5MTIsInkiOjU2NC4yMjc4MTI4NTkxNDAyfSx7IngiOjQwMS41NjI1LCJ5Ijo2MjUuNzMxMjYyMjA3MDMxMn0seyJ4Ijo0MDEuNTYyNSwieSI6NjYyLjIzMTI2MjIwNzAzMTJ9XQ==" data-look="classic" marker-end="url(#g3bf6d418-9c47-41e0-ac92-25241efcac4e-dark_flowchart-v2-pointEnd)"></path><path d="M401.563,728.831L401.563,732.998C401.563,737.165,401.563,745.498,401.563,753.165C401.563,760.831,401.563,767.831,401.563,771.331L401.563,774.831" id="g3bf6d418-9c47-41e0-ac92-25241efcac4e-dark-L_Walk_VM_0" class="edge-thickness-normal edge-pattern-solid edge-thickness-normal edge-pattern-solid flowchart-link" style=";" data-edge="true" data-et="edge" data-id="L_Walk_VM_0" data-points="W3sieCI6NDAxLjU2MjUsInkiOjcyOC44MzEyNjA2ODExNTIzfSx7IngiOjQwMS41NjI1LCJ5Ijo3NTMuODMxMjYwNjgxMTUyM30seyJ4Ijo0MDEuNTYyNSwieSI6Nzc4LjgzMTI2MDY4MTE1MjJ9XQ==" data-look="classic" marker-end="url(#g3bf6d418-9c47-41e0-ac92-25241efcac4e-dark_flowchart-v2-pointEnd)"></path><path d="M347.888,937.232L332.483,952.261C317.078,967.29,286.267,997.348,270.862,1017.794C255.457,1038.24,255.457,1049.073,255.457,1054.49L255.457,1059.906" id="g3bf6d418-9c47-41e0-ac92-25241efcac4e-dark-L_VM_ReturnFromIdx_0" class="edge-thickness-normal edge-pattern-solid edge-thickness-normal edge-pattern-solid flowchart-link" style=";" data-edge="true" data-et="edge" data-id="L_VM_ReturnFromIdx_0" data-points="W3sieCI6MzQ3Ljg4ODM3NTk4MjI0OTk1LCJ5Ijo5MzcuMjMyMTMzNjExNjQ0NH0seyJ4IjoyNTUuNDU3MDMxMjUsInkiOjEwMjcuNDA2MjU3NjI5Mzk0NX0seyJ4IjoyNTUuNDU3MDMxMjUsInkiOjEwNjMuOTA2MjU3NjI5Mzk0NX1d" data-look="classic" marker-end="url(#g3bf6d418-9c47-41e0-ac92-25241efcac4e-dark_flowchart-v2-pointEnd)"></path><path d="M455.237,937.232L470.642,952.261C486.047,967.29,516.858,997.348,532.263,1017.794C547.668,1038.24,547.668,1049.073,547.668,1054.49L547.668,1059.906" id="g3bf6d418-9c47-41e0-ac92-25241efcac4e-dark-L_VM_HeapVisit_0" class="edge-thickness-normal edge-pattern-solid edge-thickness-normal edge-pattern-solid flowchart-link" style=";" data-edge="true" data-et="edge" data-id="L_VM_HeapVisit_0" data-points="W3sieCI6NDU1LjIzNjYyNDAxNzc1MDE2LCJ5Ijo5MzcuMjMyMTMzNjExNjQ0M30seyJ4Ijo1NDcuNjY3OTY4NzUsInkiOjEwMjcuNDA2MjU3NjI5Mzk0NX0seyJ4Ijo1NDcuNjY3OTY4NzUsInkiOjEwNjMuOTA2MjU3NjI5Mzk0NX1d" data-look="classic" marker-end="url(#g3bf6d418-9c47-41e0-ac92-25241efcac4e-dark_flowchart-v2-pointEnd)"></path><path d="M547.668,1130.506L547.668,1134.673C547.668,1138.84,547.668,1147.173,547.668,1154.84C547.668,1162.506,547.668,1169.506,547.668,1173.006L547.668,1176.506" id="g3bf6d418-9c47-41e0-ac92-25241efcac4e-dark-L_HeapVisit_ReturnFromHeap_0" class="edge-thickness-normal edge-pattern-solid edge-thickness-normal edge-pattern-solid flowchart-link" style=";" data-edge="true" data-et="edge" data-id="L_HeapVisit_ReturnFromHeap_0" data-points="W3sieCI6NTQ3LjY2Nzk2ODc1LCJ5IjoxMTMwLjUwNjI1NjEwMzUxNTZ9LHsieCI6NTQ3LjY2Nzk2ODc1LCJ5IjoxMTU1LjUwNjI1NjEwMzUxNTZ9LHsieCI6NTQ3LjY2Nzk2ODc1LCJ5IjoxMTgwLjUwNjI1NjEwMzUxNTZ9XQ==" data-look="classic" marker-end="url(#g3bf6d418-9c47-41e0-ac92-25241efcac4e-dark_flowchart-v2-pointEnd)"></path></g><g class="edgeLabels"><g class="edgeLabel"><g class="label" data-id="L_Start_Q1_0" transform="translate(0, 0)"><text y="-10.1" text-anchor="middle"><tspan class="text-outer-tspan row" x="0" y="-0.1em" dy="1.1em" text-anchor="middle"></tspan></text></g></g><g><rect class="background" style="stroke: none"></rect></g><g class="edgeLabel" transform="translate(85.81640625, 474.59532165527344)"><g class="label" data-id="L_Q1_NotIOS_0" transform="translate(0, -10.5)"><g><rect class="background" style="" x="-10.6640625" y="-1" width="21.328125" height="23"></rect><text y="-10.1" text-anchor="middle" style=""><tspan class="text-outer-tspan row" x="0" y="-0.1em" dy="1.1em" text-anchor="middle"><tspan font-style="normal" class="text-inner-tspan" font-weight="normal">no</tspan></tspan></text></g></g></g><g class="edgeLabel" transform="translate(359.40234375, 323.4593811035156)"><g class="label" data-id="L_Q1_Q2_0" transform="translate(0, -10.5)"><g><rect class="background" style="" x="-13.546875" y="-1" width="27.09375" height="23"></rect><text y="-10.1" text-anchor="middle" style=""><tspan class="text-outer-tspan row" x="0" y="-0.1em" dy="1.1em" text-anchor="middle"><tspan font-style="normal" class="text-inner-tspan" font-weight="normal">yes</tspan></tspan></text></g></g></g><g class="edgeLabel" transform="translate(240.33603, 602.9677)"><g class="label" data-id="L_Q2_NotIOS_0" transform="translate(0, -10.5)"><g><rect class="background" style="" x="-50.7734375" y="-1" width="101.546875" height="23"></rect><text y="-10.1" text-anchor="middle" style=""><tspan class="text-outer-tspan row" x="0" y="-0.1em" dy="1.1em" text-anchor="middle"><tspan font-style="normal" class="text-inner-tspan" font-weight="normal">no</tspan><tspan font-style="normal" class="text-inner-tspan" font-weight="normal"> —</tspan><tspan font-style="normal" class="text-inner-tspan" font-weight="normal"> e.g.</tspan><tspan font-style="normal" class="text-inner-tspan" font-weight="normal"> GIN</tspan></tspan></text></g></g></g><g class="edgeLabel" transform="translate(401.5625, 625.7312622070312)"><g class="label" data-id="L_Q2_Walk_0" transform="translate(0, -10.5)"><g><rect class="background" style="" x="-13.546875" y="-1" width="27.09375" height="23"></rect><text y="-10.1" text-anchor="middle" style=""><tspan class="text-outer-tspan row" x="0" y="-0.1em" dy="1.1em" text-anchor="middle"><tspan font-style="normal" class="text-inner-tspan" font-weight="normal">yes</tspan></tspan></text></g></g></g><g class="edgeLabel"><g class="label" data-id="L_Walk_VM_0" transform="translate(0, 0)"><text y="-10.1" text-anchor="middle"><tspan class="text-outer-tspan row" x="0" y="-0.1em" dy="1.1em" text-anchor="middle"></tspan></text></g></g><g><rect class="background" style="stroke: none"></rect></g><g class="edgeLabel" transform="translate(255.45703125, 1027.4062576293945)"><g class="label" data-id="L_VM_ReturnFromIdx_0" transform="translate(0, -10.5)"><g><rect class="background" style="" x="-12.7734375" y="-1" width="25.546875" height="23"></rect><text y="-10.1" text-anchor="middle" style=""><tspan class="text-outer-tspan row" x="0" y="-0.1em" dy="1.1em" text-anchor="middle"><tspan font-style="normal" class="text-inner-tspan" font-weight="normal">set</tspan></tspan></text></g></g></g><g class="edgeLabel" transform="translate(547.66796875, 1027.4062576293945)"><g class="label" data-id="L_VM_HeapVisit_0" transform="translate(0, -10.5)"><g><rect class="background" style="" x="-21.515625" y="-1" width="43.03125" height="23"></rect><text y="-10.1" text-anchor="middle" style=""><tspan class="text-outer-tspan row" x="0" y="-0.1em" dy="1.1em" text-anchor="middle"><tspan font-style="normal" class="text-inner-tspan" font-weight="normal">unset</tspan></tspan></text></g></g></g><g class="edgeLabel"><g class="label" data-id="L_HeapVisit_ReturnFromHeap_0" transform="translate(0, 0)"><text y="-10.1" text-anchor="middle"><tspan class="text-outer-tspan row" x="0" y="-0.1em" dy="1.1em" text-anchor="middle"></tspan></text></g></g><g><rect class="background" style="stroke: none"></rect></g></g><g class="nodes"><g class="node default" id="g3bf6d418-9c47-41e0-ac92-25241efcac4e-dark-flowchart-Start-0" data-look="classic" transform="translate(261.3828125, 25)"><g class="basic label-container outer-path"><path d="M-89.859375 -17 C-32.38003647379944 -17, 25.099302052401114 -17, 89.859375 -17 C89.859375 -17, 89.859375 -17, 89.859375 -17 C90.29407809097088 -16.9860599179708, 90.72878118194177 -16.9721198359416, 90.94856873967211 -16.965071676755716 C91.33143438861532 -16.928137088065476, 91.71430003755853 -16.891202499375236, 92.0332867486366 -16.860430234995185 C92.37803688556626 -16.80469370643364, 92.72278702249591 -16.748957177872096, 93.10907168792333 -16.686505668848113 C93.32202278789308 -16.637900969915815, 93.53497388786282 -16.589296270983514, 94.17150292646163 -16.4440126716635 C94.56713761220948 -16.32659037366238, 94.96277229795734 -16.20916807566126, 95.21621470640156 -16.133947699181366 C95.44427744330403 -16.050018503812428, 95.6723401802065 -15.966089308443488, 96.23891408294936 -15.757584874882369 C96.58165767795865 -15.605862452499267, 96.92440127296793 -15.454140030116166, 97.23539856499849 -15.316470754341125 C97.47022348529822 -15.193962743833298, 97.70504840559794 -15.07145473332547, 98.20157338406693 -14.812417970097622 C98.53046102643978 -14.613044348532881, 98.85934866881263 -14.41367072696814, 99.13346832057933 -14.247497783161291 C99.41342228489574 -14.052214016665946, 99.69337624921218 -13.8569302501706, 100.02725401835067 -13.624031571755262 C100.23348461773499 -13.459568156773003, 100.43971521711931 -13.295104741790741, 100.8792577202324 -12.944581292275288 C101.16985711216539 -12.68066661336032, 101.46045650409839 -12.416751934445351, 101.68597836025927 -12.21193895166137 C101.91211340682513 -11.978435950049514, 102.13824845339099 -11.744932948437658, 102.44410095028036 -11.42911513444239 C102.62798549876018 -11.213113880470774, 102.81187004723999 -10.99711262649916, 103.15051020195651 -10.59932663159847 C103.39963521468358 -10.265521810299745, 103.64876022741065 -9.931716989001021, 103.80230332814824 -9.725983222076888 C103.97565134823093 -9.45967411276882, 104.1489993683136 -9.193365003460752, 104.39680197109088 -8.812673661278927 C104.5144993334706 -8.603690076223444, 104.63219669585031 -8.39470649116796, 104.931563208341 -7.863150934094199 C105.05816091464166 -7.600268088203903, 105.18475862094232 -7.337385242313605, 105.40438959126881 -6.881316833080699 C105.52994445424123 -6.571193894100679, 105.65549931721365 -6.261070955120659, 105.81333817484592 -5.871205925162238 C105.9452402047021 -5.473938026969883, 106.0771422345583 -5.076670128777526, 106.15672850162323 -4.836968972727556 C106.2630169527578 -4.431645042845372, 106.36930540389234 -4.026321112963189, 106.433149507091 -3.7828558772573464 C106.49804320852137 -3.449640435701058, 106.56293690995173 -3.1164249941447695, 106.64146531804565 -2.713198215567453 C106.6810743772466 -2.4059981740982477, 106.72068343644756 -2.0987981326290424, 106.78081992013637 -1.632391440430593 C106.79787115375846 -1.366804713258336, 106.81492238738056 -1.1012179860860791, 106.8506406754117 -0.5448768187181379 C106.8506406754117 -0.27244772329773054, 106.8506406754117 -0.000018627877323207365, 106.8506406754117 0.5448768187181336 C106.8264404779906 0.9218144275993159, 106.80224028056952 1.298752036480498, 106.78081992013637 1.6323914404305815 C106.73916979717418 1.9554215693782424, 106.69751967421199 2.2784516983259033, 106.64146531804565 2.7131982155674415 C106.55944861964724 3.1343366276079196, 106.47743192124884 3.5554750396483974, 106.433149507091 3.782855877257343 C106.33933730730783 4.140602453495141, 106.24552510752467 4.49834902973294, 106.15672850162323 4.836968972727545 C106.06599932321615 5.11023080235823, 105.97527014480906 5.383492631988916, 105.81333817484592 5.871205925162227 C105.67335454801895 6.216968189824173, 105.53337092119197 6.562730454486118, 105.40438959126881 6.881316833080694 C105.29415183347115 7.110227895857689, 105.1839140756735 7.339138958634685, 104.931563208341 7.863150934094196 C104.79866340482263 8.099127992805464, 104.66576360130425 8.335105051516733, 104.39680197109088 8.812673661278923 C104.20562861480057 9.106367273774886, 104.01445525851028 9.40006088627085, 103.80230332814826 9.725983222076879 C103.64642549384236 9.93484531928394, 103.49054765953646 10.143707416491003, 103.15051020195651 10.599326631598467 C102.8917999257164 10.903222443101845, 102.6330896494763 11.20711825460522, 102.44410095028037 11.42911513444238 C102.16051849649979 11.721937300523274, 101.87693604271922 12.01475946660417, 101.68597836025927 12.211938951661365 C101.42347417976656 12.450338302904838, 101.16096999927383 12.688737654148312, 100.87925772023242 12.944581292275275 C100.69871069167674 13.088562742990225, 100.51816366312104 13.232544193705175, 100.02725401835067 13.62403157175526 C99.8116406569792 13.774434118896025, 99.59602729560771 13.924836666036787, 99.13346832057934 14.247497783161286 C98.85890323693998 14.413940750386992, 98.58433815330064 14.5803837176127, 98.20157338406695 14.81241797009762 C97.87816072721363 14.981142146022304, 97.5547480703603 15.14986632194699, 97.23539856499849 15.316470754341124 C96.93869236519392 15.447813787517905, 96.64198616538935 15.579156820694687, 96.23891408294936 15.757584874882367 C95.8365946531188 15.905642144060057, 95.43427522328824 16.053699413237744, 95.21621470640156 16.133947699181363 C94.80593180777028 16.25571750987625, 94.395648909139 16.37748732057113, 94.17150292646164 16.444012671663497 C93.76050578079621 16.537820088154607, 93.34950863513079 16.63162750464572, 93.10907168792333 16.68650566884811 C92.86418460093853 16.72609711394409, 92.61929751395373 16.765688559040072, 92.03328674863661 16.86043023499518 C91.80975580126825 16.88199399665251, 91.58622485389989 16.90355775830984, 90.94856873967211 16.965071676755716 C90.54453271488093 16.978028325662358, 90.14049669008976 16.990984974568995, 89.859375 17 C89.859375 17, 89.859375 17, 89.859375 17 C47.082461725100295 17, 4.30554845020059 17, -89.859375 17 C-90.23487145817766 16.987958559445758, -90.61036791635533 16.97591711889152, -90.94856873967211 16.965071676755716 C-91.37308041229538 16.92411954624773, -91.79759208491865 16.883167415739745, -92.0332867486366 16.86043023499518 C-92.35867772913056 16.80782354471366, -92.68406870962454 16.75521685443214, -93.10907168792333 16.68650566884811 C-93.51800770788537 16.593168690848692, -93.92694372784742 16.49983171284928, -94.17150292646161 16.4440126716635 C-94.55701019701443 16.329596137332384, -94.94251746756724 16.215179603001264, -95.21621470640154 16.13394769918137 C-95.56292988809442 16.006353307318385, -95.90964506978729 15.878758915455403, -96.23891408294936 15.757584874882369 C-96.50605729161315 15.639328500928642, -96.77320050027691 15.521072126974916, -97.23539856499849 15.316470754341127 C-97.46705591024734 15.195615265708412, -97.69871325549619 15.074759777075696, -98.20157338406693 14.812417970097624 C-98.40704583921483 14.687859360296793, -98.61251829436273 14.563300750495962, -99.13346832057931 14.247497783161299 C-99.34940316252853 14.096870985086174, -99.56533800447775 13.946244187011049, -100.02725401835067 13.624031571755264 C-100.26645847064154 13.433272386551113, -100.50566292293239 13.242513201346963, -100.8792577202324 12.94458129227529 C-101.05221040795173 12.787510237365945, -101.22516309567106 12.6304391824566, -101.68597836025926 12.211938951661377 C-101.98716439761525 11.90093964025777, -102.28835043497125 11.589940328854164, -102.44410095028036 11.429115134442386 C-102.64347103345885 11.194923690261831, -102.84284111663733 10.960732246081275, -103.15051020195651 10.599326631598473 C-103.28094167039589 10.424560346440911, -103.41137313883529 10.24979406128335, -103.80230332814824 9.72598322207689 C-104.01939507895808 9.392471995535487, -104.23648682976793 9.058960768994085, -104.39680197109088 8.812673661278936 C-104.52108859922659 8.591990167638171, -104.64537522736231 8.371306673997408, -104.931563208341 7.863150934094201 C-105.09213018825926 7.529730164710925, -105.25269716817753 7.196309395327647, -105.40438959126881 6.881316833080701 C-105.493372248648 6.661527948991464, -105.58235490602719 6.441739064902225, -105.81333817484592 5.87120592516224 C-105.88933425873056 5.642317828833335, -105.9653303426152 5.4134297325044285, -106.15672850162323 4.8369689727275516 C-106.21916210354216 4.59888258971643, -106.2815957054611 4.360796206705308, -106.433149507091 3.782855877257349 C-106.50810588934773 3.397970696406057, -106.58306227160445 3.013085515554765, -106.64146531804565 2.713198215567455 C-106.69610792758773 2.289400926362796, -106.75075053712982 1.8656036371581362, -106.78081992013637 1.6323914404306026 C-106.80794569124507 1.209885659884364, -106.83507146235375 0.7873798793381255, -106.8506406754117 0.54487681871814 C-106.8506406754117 0.21145059508374547, -106.8506406754117 -0.12197562855064903, -106.8506406754117 -0.5448768187181317 C-106.8340972277532 -0.802554369629759, -106.81755378009471 -1.0602319205413866, -106.78081992013637 -1.6323914404305793 C-106.73679945234822 -1.9738054957708546, -106.69277898456008 -2.31521955111113, -106.64146531804565 -2.713198215567447 C-106.58682041589499 -2.9937882389069173, -106.53217551374433 -3.2743782622463873, -106.433149507091 -3.782855877257341 C-106.35569921512193 -4.078207407704298, -106.27824892315286 -4.3735589381512545, -106.15672850162323 -4.836968972727544 C-106.02672730649822 -5.22851185956653, -105.8967261113732 -5.620054746405517, -105.81333817484594 -5.871205925162218 C-105.71551625488095 -6.112827958733896, -105.61769433491597 -6.354449992305574, -105.40438959126881 -6.881316833080692 C-105.26292147599875 -7.175078401371729, -105.1214533607287 -7.468839969662765, -104.931563208341 -7.863150934094194 C-104.73225017430043 -8.217051408666446, -104.53293714025988 -8.570951883238699, -104.39680197109088 -8.812673661278929 C-104.24475060575313 -9.046265389946269, -104.09269924041537 -9.27985711861361, -103.80230332814826 -9.725983222076884 C-103.5457243600006 -10.069775664569864, -103.28914539185295 -10.413568107062842, -103.15051020195651 -10.599326631598467 C-102.9070502310735 -10.885308566662436, -102.6635902601905 -11.171290501726405, -102.44410095028037 -11.42911513444238 C-102.21773343553248 -11.662858178538166, -101.9913659207846 -11.896601222633953, -101.68597836025927 -12.21193895166136 C-101.39648166313874 -12.47485219232335, -101.10698496601823 -12.73776543298534, -100.87925772023242 -12.944581292275274 C-100.61382981844672 -13.156252980616259, -100.34840191666102 -13.367924668957246, -100.02725401835067 -13.624031571755259 C-99.84534604386103 -13.750922700089944, -99.66343806937137 -13.877813828424628, -99.13346832057934 -14.247497783161284 C-98.90211367476077 -14.387746329047312, -98.6707590289422 -14.527994874933341, -98.20157338406695 -14.812417970097618 C-97.97268521394159 -14.931828781842146, -97.74379704381623 -15.051239593586674, -97.23539856499849 -15.316470754341124 C-96.93889854801391 -15.447722516499692, -96.64239853102933 -15.57897427865826, -96.23891408294936 -15.757584874882365 C-95.93512417808792 -15.869382368074472, -95.63133427322649 -15.98117986126658, -95.21621470640156 -16.133947699181363 C-94.79880681683109 -16.257832169787157, -94.3813989272606 -16.381716640392952, -94.17150292646164 -16.444012671663494 C-93.79870759762437 -16.529100772753733, -93.4259122687871 -16.61418887384397, -93.10907168792333 -16.68650566884811 C-92.87080602264894 -16.725026613831844, -92.63254035737454 -16.763547558815578, -92.03328674863661 -16.86043023499518 C-91.80498122645966 -16.88245459414203, -91.57667570428272 -16.904478953288876, -90.94856873967213 -16.965071676755716 C-90.69840729006731 -16.97309386753482, -90.44824584046248 -16.981116058313926, -89.859375 -17 C-89.859375 -17, -89.859375 -17, -89.859375 -17" stroke="none" stroke-width="0" fill="#2d2d2d" style=""></path><path d="M-89.859375 -17 C-45.33376678271921 -17, -0.8081585654384185 -17, 89.859375 -17 M-89.859375 -17 C-27.196864331039677 -17, 35.465646337920646 -17, 89.859375 -17 M89.859375 -17 C89.859375 -17, 89.859375 -17, 89.859375 -17 M89.859375 -17 C89.859375 -17, 89.859375 -17, 89.859375 -17 M89.859375 -17 C90.18872287027632 -16.98943845483698, 90.51807074055263 -16.978876909673957, 90.94856873967211 -16.965071676755716 M89.859375 -17 C90.23338785967825 -16.988006135561985, 90.60740071935649 -16.976012271123974, 90.94856873967211 -16.965071676755716 M90.94856873967211 -16.965071676755716 C91.24132417551671 -16.93682991194971, 91.5340796113613 -16.90858814714371, 92.0332867486366 -16.860430234995185 M90.94856873967211 -16.965071676755716 C91.19759598317164 -16.941048318074397, 91.44662322667116 -16.917024959393075, 92.0332867486366 -16.860430234995185 M92.0332867486366 -16.860430234995185 C92.42527688269246 -16.797056310049925, 92.81726701674832 -16.733682385104665, 93.10907168792333 -16.686505668848113 M92.0332867486366 -16.860430234995185 C92.27680026163738 -16.821060858688718, 92.52031377463817 -16.78169148238225, 93.10907168792333 -16.686505668848113 M93.10907168792333 -16.686505668848113 C93.50449649103943 -16.59625253792485, 93.89992129415555 -16.50599940700159, 94.17150292646163 -16.4440126716635 M93.10907168792333 -16.686505668848113 C93.4489797817122 -16.60892386454841, 93.78888787550108 -16.531342060248704, 94.17150292646163 -16.4440126716635 M94.17150292646163 -16.4440126716635 C94.58708662237544 -16.320669612159616, 95.00267031828926 -16.19732655265573, 95.21621470640156 -16.133947699181366 M94.17150292646163 -16.4440126716635 C94.4228295045799 -16.36942026251813, 94.67415608269816 -16.29482785337276, 95.21621470640156 -16.133947699181366 M95.21621470640156 -16.133947699181366 C95.51844911796906 -16.022722641900252, 95.82068352953655 -15.911497584619141, 96.23891408294936 -15.757584874882369 M95.21621470640156 -16.133947699181366 C95.44293235324865 -16.050513509386683, 95.66965000009573 -15.967079319592, 96.23891408294936 -15.757584874882369 M96.23891408294936 -15.757584874882369 C96.5993756151841 -15.598019247273491, 96.95983714741884 -15.438453619664612, 97.23539856499849 -15.316470754341125 M96.23891408294936 -15.757584874882369 C96.4785825188535 -15.65149076781916, 96.71825095475762 -15.54539666075595, 97.23539856499849 -15.316470754341125 M97.23539856499849 -15.316470754341125 C97.56849541115203 -15.142694343061535, 97.90159225730557 -14.968917931781945, 98.20157338406693 -14.812417970097622 M97.23539856499849 -15.316470754341125 C97.49275783579313 -15.18220658761404, 97.75011710658778 -15.047942420886953, 98.20157338406693 -14.812417970097622 M98.20157338406693 -14.812417970097622 C98.44397128257113 -14.665474939536214, 98.68636918107532 -14.518531908974808, 99.13346832057933 -14.247497783161291 M98.20157338406693 -14.812417970097622 C98.48180929654337 -14.642537313105386, 98.7620452090198 -14.472656656113152, 99.13346832057933 -14.247497783161291 M99.13346832057933 -14.247497783161291 C99.42475766105974 -14.044306948954468, 99.71604700154016 -13.841116114747644, 100.02725401835067 -13.624031571755262 M99.13346832057933 -14.247497783161291 C99.31613881998237 -14.120074750456192, 99.49880931938543 -13.992651717751095, 100.02725401835067 -13.624031571755262 M100.02725401835067 -13.624031571755262 C100.35621397672634 -13.36169475894281, 100.68517393510199 -13.09935794613036, 100.8792577202324 -12.944581292275288 M100.02725401835067 -13.624031571755262 C100.36188537765408 -13.357171967625248, 100.69651673695749 -13.090312363495235, 100.8792577202324 -12.944581292275288 M100.8792577202324 -12.944581292275288 C101.19374162015838 -12.658975335150542, 101.50822552008435 -12.373369378025798, 101.68597836025927 -12.21193895166137 M100.8792577202324 -12.944581292275288 C101.1821751762427 -12.669479673483437, 101.48509263225297 -12.394378054691586, 101.68597836025927 -12.21193895166137 M101.68597836025927 -12.21193895166137 C101.87819945749182 -12.013454887123189, 102.07042055472435 -11.814970822585007, 102.44410095028036 -11.42911513444239 M101.68597836025927 -12.21193895166137 C101.93847919096922 -11.951211113249606, 102.19098002167917 -11.690483274837844, 102.44410095028036 -11.42911513444239 M102.44410095028036 -11.42911513444239 C102.66740473963647 -11.166809797119138, 102.89070852899258 -10.904504459795886, 103.15051020195651 -10.59932663159847 M102.44410095028036 -11.42911513444239 C102.67242178496765 -11.160916490195163, 102.90074261965493 -10.892717845947937, 103.15051020195651 -10.59932663159847 M103.15051020195651 -10.59932663159847 C103.32416673504471 -10.366642697695896, 103.49782326813292 -10.13395876379332, 103.80230332814824 -9.725983222076888 M103.15051020195651 -10.59932663159847 C103.35960084311469 -10.319164220995786, 103.56869148427286 -10.039001810393101, 103.80230332814824 -9.725983222076888 M103.80230332814824 -9.725983222076888 C104.02457572028457 -9.384513139261026, 104.24684811242089 -9.043043056445164, 104.39680197109088 -8.812673661278927 M103.80230332814824 -9.725983222076888 C103.93416691359946 -9.523405344493208, 104.06603049905068 -9.320827466909526, 104.39680197109088 -8.812673661278927 M104.39680197109088 -8.812673661278927 C104.56238192757415 -8.518669681754167, 104.72796188405742 -8.224665702229409, 104.931563208341 -7.863150934094199 M104.39680197109088 -8.812673661278927 C104.54851334531058 -8.543294753909374, 104.70022471953027 -8.27391584653982, 104.931563208341 -7.863150934094199 M104.931563208341 -7.863150934094199 C105.07789684301008 -7.559286010665663, 105.22423047767916 -7.255421087237128, 105.40438959126881 -6.881316833080699 M104.931563208341 -7.863150934094199 C105.0445789805804 -7.628471264888957, 105.15759475281979 -7.393791595683716, 105.40438959126881 -6.881316833080699 M105.40438959126881 -6.881316833080699 C105.53047046108024 -6.569894647038668, 105.65655133089167 -6.258472460996638, 105.81333817484592 -5.871205925162238 M105.40438959126881 -6.881316833080699 C105.5609298861878 -6.4946592781301025, 105.71747018110678 -6.108001723179505, 105.81333817484592 -5.871205925162238 M105.81333817484592 -5.871205925162238 C105.91257062590975 -5.572333593101971, 106.01180307697356 -5.273461261041703, 106.15672850162323 -4.836968972727556 M105.81333817484592 -5.871205925162238 C105.89600409658668 -5.622229339905077, 105.97867001832742 -5.3732527546479165, 106.15672850162323 -4.836968972727556 M106.15672850162323 -4.836968972727556 C106.2399723924996 -4.5195239386854835, 106.32321628337594 -4.202078904643411, 106.433149507091 -3.7828558772573464 M106.15672850162323 -4.836968972727556 C106.2441381242422 -4.503638198111372, 106.33154774686116 -4.170307423495189, 106.433149507091 -3.7828558772573464 M106.433149507091 -3.7828558772573464 C106.51413403129786 -3.3670174615403603, 106.59511855550473 -2.951179045823374, 106.64146531804565 -2.713198215567453 M106.433149507091 -3.7828558772573464 C106.47621179823403 -3.5617401134563638, 106.51927408937705 -3.340624349655381, 106.64146531804565 -2.713198215567453 M106.64146531804565 -2.713198215567453 C106.67392582513098 -2.461440932665732, 106.70638633221633 -2.20968364976401, 106.78081992013637 -1.632391440430593 M106.64146531804565 -2.713198215567453 C106.67145912496065 -2.48057217208181, 106.70145293187565 -2.247946128596167, 106.78081992013637 -1.632391440430593 M106.78081992013637 -1.632391440430593 C106.80726813772353 -1.2204391028936832, 106.83371635531068 -0.8084867653567734, 106.8506406754117 -0.5448768187181379 M106.78081992013637 -1.632391440430593 C106.80034359844592 -1.3282943915297316, 106.81986727675549 -1.0241973426288702, 106.8506406754117 -0.5448768187181379 M106.8506406754117 -0.5448768187181379 C106.8506406754117 -0.19490241620082405, 106.8506406754117 0.15507198631648977, 106.8506406754117 0.5448768187181336 M106.8506406754117 -0.5448768187181379 C106.8506406754117 -0.2912465737991314, 106.8506406754117 -0.037616328880124894, 106.8506406754117 0.5448768187181336 M106.8506406754117 0.5448768187181336 C106.83547016582826 0.7811697508950513, 106.82029965624483 1.0174626830719689, 106.78081992013637 1.6323914404305815 M106.8506406754117 0.5448768187181336 C106.83508376652782 0.7871882318952826, 106.81952685764395 1.0294996450724316, 106.78081992013637 1.6323914404305815 M106.78081992013637 1.6323914404305815 C106.73156497171976 2.014403093860004, 106.68231002330317 2.3964147472894264, 106.64146531804565 2.7131982155674415 M106.78081992013637 1.6323914404305815 C106.74414731586822 1.916816917309538, 106.70747471160007 2.201242394188495, 106.64146531804565 2.7131982155674415 M106.64146531804565 2.7131982155674415 C106.59543866580367 2.949535347093632, 106.54941201356168 3.1858724786198227, 106.433149507091 3.782855877257343 M106.64146531804565 2.7131982155674415 C106.56371809062297 3.112413796500571, 106.4859708632003 3.5116293774337, 106.433149507091 3.782855877257343 M106.433149507091 3.782855877257343 C106.37711341413294 3.9965457859027507, 106.32107732117488 4.2102356945481585, 106.15672850162323 4.836968972727545 M106.433149507091 3.782855877257343 C106.3367590399364 4.150434504410584, 106.24036857278179 4.5180131315638254, 106.15672850162323 4.836968972727545 M106.15672850162323 4.836968972727545 C106.04539068949775 5.172300723578161, 105.93405287737228 5.507632474428776, 105.81333817484592 5.871205925162227 M106.15672850162323 4.836968972727545 C106.06417687716335 5.115719719501911, 105.97162525270348 5.394470466276276, 105.81333817484592 5.871205925162227 M105.81333817484592 5.871205925162227 C105.69698167352207 6.15860873303206, 105.58062517219821 6.4460115409018925, 105.40438959126881 6.881316833080694 M105.81333817484592 5.871205925162227 C105.66229397187996 6.24428802672915, 105.51124976891401 6.617370128296073, 105.40438959126881 6.881316833080694 M105.40438959126881 6.881316833080694 C105.30921775668097 7.0789431839534025, 105.21404592209312 7.276569534826112, 104.931563208341 7.863150934094196 M105.40438959126881 6.881316833080694 C105.21576020939186 7.273009780570402, 105.02713082751491 7.66470272806011, 104.931563208341 7.863150934094196 M104.931563208341 7.863150934094196 C104.72862604635019 8.223486414824862, 104.52568888435937 8.583821895555527, 104.39680197109088 8.812673661278923 M104.931563208341 7.863150934094196 C104.7304090359761 8.220320536196798, 104.52925486361117 8.5774901382994, 104.39680197109088 8.812673661278923 M104.39680197109088 8.812673661278923 C104.26236864664534 9.019199348029428, 104.12793532219979 9.225725034779932, 103.80230332814826 9.725983222076879 M104.39680197109088 8.812673661278923 C104.20492994730374 9.107440614668521, 104.0130579235166 9.402207568058119, 103.80230332814826 9.725983222076879 M103.80230332814826 9.725983222076879 C103.63056784549846 9.95609312340328, 103.45883236284865 10.186203024729682, 103.15051020195651 10.599326631598467 M103.80230332814826 9.725983222076879 C103.65152648910806 9.928010450338125, 103.50074965006786 10.130037678599372, 103.15051020195651 10.599326631598467 M103.15051020195651 10.599326631598467 C102.99740860033003 10.779168484596852, 102.84430699870356 10.959010337595235, 102.44410095028037 11.42911513444238 M103.15051020195651 10.599326631598467 C102.92633586156965 10.8626545676982, 102.70216152118279 11.125982503797932, 102.44410095028037 11.42911513444238 M102.44410095028037 11.42911513444238 C102.1944163796825 11.686934953069171, 101.94473180908462 11.944754771695964, 101.68597836025927 12.211938951661365 M102.44410095028037 11.42911513444238 C102.15774651982109 11.724799594027562, 101.87139208936179 12.020484053612744, 101.68597836025927 12.211938951661365 M101.68597836025927 12.211938951661365 C101.36707809662798 12.501555733452697, 101.04817783299669 12.79117251524403, 100.87925772023242 12.944581292275275 M101.68597836025927 12.211938951661365 C101.40618884960534 12.466036382412478, 101.1263993389514 12.72013381316359, 100.87925772023242 12.944581292275275 M100.87925772023242 12.944581292275275 C100.54571372006168 13.210573756432819, 100.21216971989097 13.476566220590362, 100.02725401835067 13.62403157175526 M100.87925772023242 12.944581292275275 C100.69999699044521 13.087536953952213, 100.520736260658 13.23049261562915, 100.02725401835067 13.62403157175526 M100.02725401835067 13.62403157175526 C99.84517311621579 13.75104332692934, 99.6630922140809 13.878055082103419, 99.13346832057934 14.247497783161286 M100.02725401835067 13.62403157175526 C99.68614688548814 13.861973141350372, 99.34503975262561 14.099914710945482, 99.13346832057934 14.247497783161286 M99.13346832057934 14.247497783161286 C98.85326092272439 14.417361154422405, 98.57305352486944 14.587224525683526, 98.20157338406695 14.81241797009762 M99.13346832057934 14.247497783161286 C98.85367253643938 14.417111631769473, 98.57387675229941 14.586725480377657, 98.20157338406695 14.81241797009762 M98.20157338406695 14.81241797009762 C97.94772982660248 14.944847991432269, 97.69388626913803 15.077278012766916, 97.23539856499849 15.316470754341124 M98.20157338406695 14.81241797009762 C97.88258697623883 14.978832974741007, 97.56360056841069 15.145247979384392, 97.23539856499849 15.316470754341124 M97.23539856499849 15.316470754341124 C96.99702472293204 15.421991783115157, 96.75865088086557 15.527512811889189, 96.23891408294936 15.757584874882367 M97.23539856499849 15.316470754341124 C96.83753886084294 15.492591443281993, 96.43967915668738 15.668712132222861, 96.23891408294936 15.757584874882367 M96.23891408294936 15.757584874882367 C95.96832823308702 15.857162968899884, 95.69774238322469 15.9567410629174, 95.21621470640156 16.133947699181363 M96.23891408294936 15.757584874882367 C95.93955638711628 15.867751274181146, 95.6401986912832 15.977917673479922, 95.21621470640156 16.133947699181363 M95.21621470640156 16.133947699181363 C94.97166290256199 16.206529390882334, 94.7271110987224 16.27911108258331, 94.17150292646164 16.444012671663497 M95.21621470640156 16.133947699181363 C94.87730972330313 16.23453291921642, 94.5384047402047 16.335118139251477, 94.17150292646164 16.444012671663497 M94.17150292646164 16.444012671663497 C93.86546036375665 16.51386488948655, 93.55941780105168 16.583717107309596, 93.10907168792333 16.68650566884811 M94.17150292646164 16.444012671663497 C93.7926462774437 16.53048422953116, 93.41378962842575 16.61695578739883, 93.10907168792333 16.68650566884811 M93.10907168792333 16.68650566884811 C92.86258100469597 16.726356370948512, 92.61609032146862 16.766207073048914, 92.03328674863661 16.86043023499518 M93.10907168792333 16.68650566884811 C92.8357398946121 16.730695833470953, 92.56240810130087 16.774885998093797, 92.03328674863661 16.86043023499518 M92.03328674863661 16.86043023499518 C91.7852439509893 16.88435862536911, 91.53720115334198 16.908287015743035, 90.94856873967211 16.965071676755716 M92.03328674863661 16.86043023499518 C91.69207071579243 16.893346935311342, 91.35085468294824 16.9262636356275, 90.94856873967211 16.965071676755716 M90.94856873967211 16.965071676755716 C90.61705427805076 16.97570270028616, 90.28553981642942 16.986333723816603, 89.859375 17 M90.94856873967211 16.965071676755716 C90.63356442044288 16.975173252154686, 90.31856010121366 16.985274827553656, 89.859375 17 M89.859375 17 C89.859375 17, 89.859375 17, 89.859375 17 M89.859375 17 C89.859375 17, 89.859375 17, 89.859375 17 M89.859375 17 C34.582778225834936 17, -20.69381854833013 17, -89.859375 17 M89.859375 17 C32.05553055399093 17, -25.748313892018146 17, -89.859375 17 M-89.859375 17 C-90.16796084110238 16.990104252701748, -90.47654668220477 16.980208505403496, -90.94856873967211 16.965071676755716 M-89.859375 17 C-90.18893006735509 16.989431810429945, -90.51848513471019 16.978863620859894, -90.94856873967211 16.965071676755716 M-90.94856873967211 16.965071676755716 C-91.28582658070917 16.932536818442767, -91.62308442174621 16.90000196012982, -92.0332867486366 16.86043023499518 M-90.94856873967211 16.965071676755716 C-91.22698517422913 16.93821317815875, -91.50540160878616 16.91135467956179, -92.0332867486366 16.86043023499518 M-92.0332867486366 16.86043023499518 C-92.26478581204837 16.823003261724818, -92.49628487546015 16.78557628845445, -93.10907168792333 16.68650566884811 M-92.0332867486366 16.86043023499518 C-92.34880320639893 16.80941998097084, -92.66431966416127 16.758409726946503, -93.10907168792333 16.68650566884811 M-93.10907168792333 16.68650566884811 C-93.4055409741859 16.618838488901574, -93.70201026044847 16.551171308955034, -94.17150292646161 16.4440126716635 M-93.10907168792333 16.68650566884811 C-93.34068920495115 16.633640482032064, -93.57230672197895 16.580775295216014, -94.17150292646161 16.4440126716635 M-94.17150292646161 16.4440126716635 C-94.53836408173866 16.335130206470776, -94.9052252370157 16.22624774127805, -95.21621470640154 16.13394769918137 M-94.17150292646161 16.4440126716635 C-94.49754684631465 16.347244547690583, -94.82359076616767 16.25047642371766, -95.21621470640154 16.13394769918137 M-95.21621470640154 16.13394769918137 C-95.61847518009725 15.985912126406294, -96.02073565379295 15.837876553631217, -96.23891408294936 15.757584874882369 M-95.21621470640154 16.13394769918137 C-95.56387942621109 16.006003868514014, -95.91154414602065 15.87806003784666, -96.23891408294936 15.757584874882369 M-96.23891408294936 15.757584874882369 C-96.48794239770142 15.647347427104126, -96.73697071245347 15.537109979325884, -97.23539856499849 15.316470754341127 M-96.23891408294936 15.757584874882369 C-96.48434995085468 15.648937696757029, -96.72978581875999 15.540290518631691, -97.23539856499849 15.316470754341127 M-97.23539856499849 15.316470754341127 C-97.46080127163802 15.198878306664605, -97.68620397827756 15.081285858988085, -98.20157338406693 14.812417970097624 M-97.23539856499849 15.316470754341127 C-97.54948630049988 15.152611383912848, -97.86357403600127 14.988752013484568, -98.20157338406693 14.812417970097624 M-98.20157338406693 14.812417970097624 C-98.47984972827618 14.643725214904661, -98.75812607248542 14.4750324597117, -99.13346832057931 14.247497783161299 M-98.20157338406693 14.812417970097624 C-98.4837394913411 14.641367217675924, -98.76590559861525 14.470316465254225, -99.13346832057931 14.247497783161299 M-99.13346832057931 14.247497783161299 C-99.36921634880181 14.083050164040944, -99.60496437702432 13.918602544920592, -100.02725401835067 13.624031571755264 M-99.13346832057931 14.247497783161299 C-99.41370669896568 14.052015621722848, -99.69394507735205 13.856533460284398, -100.02725401835067 13.624031571755264 M-100.02725401835067 13.624031571755264 C-100.240612342678 13.453883985807675, -100.45397066700534 13.283736399860086, -100.8792577202324 12.94458129227529 M-100.02725401835067 13.624031571755264 C-100.21278996749231 13.476071589633767, -100.39832591663395 13.328111607512268, -100.8792577202324 12.94458129227529 M-100.8792577202324 12.94458129227529 C-101.09782744857505 12.746082048032614, -101.31639717691768 12.547582803789936, -101.68597836025926 12.211938951661377 M-100.8792577202324 12.94458129227529 C-101.18800451673125 12.664185620687624, -101.49675131323009 12.383789949099958, -101.68597836025926 12.211938951661377 M-101.68597836025926 12.211938951661377 C-101.94802039910661 11.941359032499987, -102.21006243795397 11.670779113338597, -102.44410095028036 11.429115134442386 M-101.68597836025926 12.211938951661377 C-101.9505669806579 11.93872947797005, -102.21515560105654 11.66552000427872, -102.44410095028036 11.429115134442386 M-102.44410095028036 11.429115134442386 C-102.59275100805479 11.254502318152639, -102.74140106582921 11.079889501862894, -103.15051020195651 10.599326631598473 M-102.44410095028036 11.429115134442386 C-102.69913121092029 11.129542078661807, -102.95416147156021 10.829969022881228, -103.15051020195651 10.599326631598473 M-103.15051020195651 10.599326631598473 C-103.28453109263184 10.419750847647844, -103.41855198330717 10.240175063697214, -103.80230332814824 9.72598322207689 M-103.15051020195651 10.599326631598473 C-103.32621394761277 10.363899619359598, -103.50191769326904 10.128472607120726, -103.80230332814824 9.72598322207689 M-103.80230332814824 9.72598322207689 C-103.99582540046977 9.428681351038415, -104.18934747279128 9.131379479999943, -104.39680197109088 8.812673661278936 M-103.80230332814824 9.72598322207689 C-104.00058193868561 9.42137403102953, -104.19886054922297 9.11676483998217, -104.39680197109088 8.812673661278936 M-104.39680197109088 8.812673661278936 C-104.52193922807987 8.590479789973646, -104.64707648506888 8.368285918668358, -104.931563208341 7.863150934094201 M-104.39680197109088 8.812673661278936 C-104.51575729296954 8.601456441750864, -104.6347126148482 8.390239222222792, -104.931563208341 7.863150934094201 M-104.931563208341 7.863150934094201 C-105.06562606863135 7.584766536215605, -105.1996889289217 7.3063821383370104, -105.40438959126881 6.881316833080701 M-104.931563208341 7.863150934094201 C-105.05812673718442 7.600339058425126, -105.18469026602786 7.337527182756052, -105.40438959126881 6.881316833080701 M-105.40438959126881 6.881316833080701 C-105.51428496227153 6.609873142021505, -105.62418033327427 6.338429450962309, -105.81333817484592 5.87120592516224 M-105.40438959126881 6.881316833080701 C-105.49713413865784 6.652236007935956, -105.58987868604687 6.423155182791211, -105.81333817484592 5.87120592516224 M-105.81333817484592 5.87120592516224 C-105.88678263647446 5.650002908522926, -105.96022709810299 5.428799891883612, -106.15672850162323 4.8369689727275516 M-105.81333817484592 5.87120592516224 C-105.90919094409192 5.582512656258087, -106.00504371333793 5.293819387353934, -106.15672850162323 4.8369689727275516 M-106.15672850162323 4.8369689727275516 C-106.2614075832131 4.437782266424469, -106.36608666480295 4.0385955601213865, -106.433149507091 3.782855877257349 M-106.15672850162323 4.8369689727275516 C-106.26557005121136 4.421908971922059, -106.37441160079948 4.006848971116566, -106.433149507091 3.782855877257349 M-106.433149507091 3.782855877257349 C-106.50549752351871 3.411364103659702, -106.57784553994644 3.039872330062055, -106.64146531804565 2.713198215567455 M-106.433149507091 3.782855877257349 C-106.49471981731133 3.4667053471655804, -106.55629012753168 3.150554817073812, -106.64146531804565 2.713198215567455 M-106.64146531804565 2.713198215567455 C-106.68139131460022 2.403540070569954, -106.7213173111548 2.093881925572453, -106.78081992013637 1.6323914404306026 M-106.64146531804565 2.713198215567455 C-106.69651958108824 2.2862082231029857, -106.75157384413085 1.8592182306385163, -106.78081992013637 1.6323914404306026 M-106.78081992013637 1.6323914404306026 C-106.80720844079275 1.2213689307769031, -106.83359696144915 0.8103464211232034, -106.8506406754117 0.54487681871814 M-106.78081992013637 1.6323914404306026 C-106.80417686289286 1.2685882036134466, -106.82753380564935 0.9047849667962905, -106.8506406754117 0.54487681871814 M-106.8506406754117 0.54487681871814 C-106.8506406754117 0.16905383226613196, -106.8506406754117 -0.20676915418587605, -106.8506406754117 -0.5448768187181317 M-106.8506406754117 0.54487681871814 C-106.8506406754117 0.3233000895275619, -106.8506406754117 0.10172336033698381, -106.8506406754117 -0.5448768187181317 M-106.8506406754117 -0.5448768187181317 C-106.83553864261414 -0.7801031696814245, -106.8204366098166 -1.0153295206447173, -106.78081992013637 -1.6323914404305793 M-106.8506406754117 -0.5448768187181317 C-106.83616203778021 -0.7703932867744437, -106.82168340014873 -0.9959097548307558, -106.78081992013637 -1.6323914404305793 M-106.78081992013637 -1.6323914404305793 C-106.74730481482864 -1.8923279788911878, -106.71378970952091 -2.1522645173517962, -106.64146531804565 -2.713198215567447 M-106.78081992013637 -1.6323914404305793 C-106.7514192109012 -1.860417535431764, -106.72201850166604 -2.088443630432949, -106.64146531804565 -2.713198215567447 M-106.64146531804565 -2.713198215567447 C-106.59422305507918 -2.9557772512444185, -106.54698079211272 -3.19835628692139, -106.433149507091 -3.782855877257341 M-106.64146531804565 -2.713198215567447 C-106.59127195882427 -2.97093050679901, -106.54107859960288 -3.2286627980305735, -106.433149507091 -3.782855877257341 M-106.433149507091 -3.782855877257341 C-106.33848815319914 -4.143840646137326, -106.24382679930727 -4.50482541501731, -106.15672850162323 -4.836968972727544 M-106.433149507091 -3.782855877257341 C-106.32956311154918 -4.177875698086121, -106.22597671600737 -4.572895518914899, -106.15672850162323 -4.836968972727544 M-106.15672850162323 -4.836968972727544 C-106.0805961945269 -5.066267351665843, -106.00446388743057 -5.295565730604142, -105.81333817484594 -5.871205925162218 M-106.15672850162323 -4.836968972727544 C-106.0689787848591 -5.101257138602441, -105.98122906809495 -5.3655453044773385, -105.81333817484594 -5.871205925162218 M-105.81333817484594 -5.871205925162218 C-105.67611215355011 -6.21015685084753, -105.53888613225429 -6.549107776532842, -105.40438959126881 -6.881316833080692 M-105.81333817484594 -5.871205925162218 C-105.70549848596437 -6.137572041638217, -105.59765879708281 -6.403938158114216, -105.40438959126881 -6.881316833080692 M-105.40438959126881 -6.881316833080692 C-105.27839656271402 -7.142944052693668, -105.15240353415923 -7.404571272306645, -104.931563208341 -7.863150934094194 M-105.40438959126881 -6.881316833080692 C-105.23931374678796 -7.2241003562024355, -105.0742379023071 -7.566883879324179, -104.931563208341 -7.863150934094194 M-104.931563208341 -7.863150934094194 C-104.75634754304771 -8.174264090332485, -104.58113187775442 -8.485377246570776, -104.39680197109088 -8.812673661278929 M-104.931563208341 -7.863150934094194 C-104.75126876494294 -8.183281975139558, -104.57097432154487 -8.50341301618492, -104.39680197109088 -8.812673661278929 M-104.39680197109088 -8.812673661278929 C-104.20866644992003 -9.101700343258468, -104.02053092874918 -9.390727025238006, -103.80230332814826 -9.725983222076884 M-104.39680197109088 -8.812673661278929 C-104.22628875105086 -9.07462775647107, -104.05577553101085 -9.336581851663212, -103.80230332814826 -9.725983222076884 M-103.80230332814826 -9.725983222076884 C-103.61314311475293 -9.979440675176656, -103.42398290135762 -10.232898128276428, -103.15051020195651 -10.599326631598467 M-103.80230332814826 -9.725983222076884 C-103.61673572987047 -9.974626898213138, -103.43116813159267 -10.22327057434939, -103.15051020195651 -10.599326631598467 M-103.15051020195651 -10.599326631598467 C-102.95126754380922 -10.833368395086682, -102.75202488566195 -11.067410158574894, -102.44410095028037 -11.42911513444238 M-103.15051020195651 -10.599326631598467 C-102.91882849611902 -10.87147314633771, -102.68714679028152 -11.143619661076954, -102.44410095028037 -11.42911513444238 M-102.44410095028037 -11.42911513444238 C-102.28951881327566 -11.58873388232922, -102.13493667627094 -11.748352630216061, -101.68597836025927 -12.21193895166136 M-102.44410095028037 -11.42911513444238 C-102.21581306344855 -11.664841120380306, -101.98752517661674 -11.900567106318231, -101.68597836025927 -12.21193895166136 M-101.68597836025927 -12.21193895166136 C-101.52411009309822 -12.358943429097375, -101.36224182593716 -12.50594790653339, -100.87925772023242 -12.944581292275274 M-101.68597836025927 -12.21193895166136 C-101.40294834409931 -12.468979323773967, -101.11991832793936 -12.726019695886574, -100.87925772023242 -12.944581292275274 M-100.87925772023242 -12.944581292275274 C-100.61803929126026 -13.15289603806624, -100.35682086228809 -13.361210783857207, -100.02725401835067 -13.624031571755259 M-100.87925772023242 -12.944581292275274 C-100.62301117652864 -13.148931091872132, -100.36676463282485 -13.353280891468993, -100.02725401835067 -13.624031571755259 M-100.02725401835067 -13.624031571755259 C-99.80196100856078 -13.781186222607483, -99.57666799877089 -13.938340873459705, -99.13346832057934 -14.247497783161284 M-100.02725401835067 -13.624031571755259 C-99.80157380958028 -13.78145631585471, -99.57589360080988 -13.938881059954161, -99.13346832057934 -14.247497783161284 M-99.13346832057934 -14.247497783161284 C-98.9068952431907 -14.384847714165476, -98.68032216580205 -14.522197645169665, -98.20157338406695 -14.812417970097618 M-99.13346832057934 -14.247497783161284 C-98.8251519303224 -14.434400990803262, -98.51683554006547 -14.62130419844524, -98.20157338406695 -14.812417970097618 M-98.20157338406695 -14.812417970097618 C-97.99850134026846 -14.918360525273439, -97.79542929646996 -15.024303080449258, -97.23539856499849 -15.316470754341124 M-98.20157338406695 -14.812417970097618 C-97.96217928505715 -14.937309718211795, -97.72278518604733 -15.062201466325972, -97.23539856499849 -15.316470754341124 M-97.23539856499849 -15.316470754341124 C-97.02208405106418 -15.410898761909609, -96.80876953712989 -15.505326769478094, -96.23891408294936 -15.757584874882365 M-97.23539856499849 -15.316470754341124 C-97.00713135766998 -15.417517875719334, -96.77886415034148 -15.518564997097544, -96.23891408294936 -15.757584874882365 M-96.23891408294936 -15.757584874882365 C-95.85939397481951 -15.897251782919575, -95.47987386668964 -16.036918690956785, -95.21621470640156 -16.133947699181363 M-96.23891408294936 -15.757584874882365 C-95.97417792068336 -15.855010229790512, -95.70944175841736 -15.952435584698659, -95.21621470640156 -16.133947699181363 M-95.21621470640156 -16.133947699181363 C-94.89241302186986 -16.23005033948065, -94.56861133733814 -16.32615297977993, -94.17150292646164 -16.444012671663494 M-95.21621470640156 -16.133947699181363 C-94.82800195703359 -16.24916720542347, -94.43978920766563 -16.364386711665578, -94.17150292646164 -16.444012671663494 M-94.17150292646164 -16.444012671663494 C-93.82501724476587 -16.523095767480175, -93.47853156307012 -16.602178863296857, -93.10907168792333 -16.68650566884811 M-94.17150292646164 -16.444012671663494 C-93.92097931913428 -16.501193050216646, -93.67045571180691 -16.5583734287698, -93.10907168792333 -16.68650566884811 M-93.10907168792333 -16.68650566884811 C-92.83645530024476 -16.73058017223632, -92.5638389125662 -16.77465467562453, -92.03328674863661 -16.86043023499518 M-93.10907168792333 -16.68650566884811 C-92.68033910624516 -16.755819827783007, -92.251606524567 -16.825133986717905, -92.03328674863661 -16.86043023499518 M-92.03328674863661 -16.86043023499518 C-91.69277803409678 -16.893278701165197, -91.35226931955694 -16.92612716733521, -90.94856873967213 -16.965071676755716 M-92.03328674863661 -16.86043023499518 C-91.67589438283125 -16.894907446697218, -91.31850201702589 -16.929384658399258, -90.94856873967213 -16.965071676755716 M-90.94856873967213 -16.965071676755716 C-90.51593763096102 -16.978945314346714, -90.08330652224993 -16.99281895193771, -89.859375 -17 M-90.94856873967213 -16.965071676755716 C-90.68373196714717 -16.973564476577085, -90.41889519462222 -16.982057276398457, -89.859375 -17 M-89.859375 -17 C-89.859375 -17, -89.859375 -17, -89.859375 -17 M-89.859375 -17 C-89.859375 -17, -89.859375 -17, -89.859375 -17" stroke="#555555" stroke-width="1.3" fill="none" stroke-dasharray="0 0" style=""></path></g><g class="label" style="" transform="translate(0, -9.5)"><rect></rect><g><rect class="background" style="stroke: none"></rect><text y="-10.1" style=""><tspan class="text-outer-tspan row" x="0" y="-0.1em" dy="1.1em"><tspan font-style="normal" class="text-inner-tspan" font-weight="normal">Index-Only</tspan><tspan font-style="normal" class="text-inner-tspan" font-weight="normal"> Scan</tspan><tspan font-style="normal" class="text-inner-tspan" font-weight="normal"> candidate</tspan></tspan></text></g></g></g><g class="node default" id="g3bf6d418-9c47-41e0-ac92-25241efcac4e-dark-flowchart-Q1-1" data-look="classic" transform="translate(261.3828125, 189.4796905517578)"><polygon points="97.47968673706055,0 194.9593734741211,-97.47968673706055 97.47968673706055,-194.9593734741211 0,-97.47968673706055" class="label-container" transform="translate(-96.97968673706055, 97.47968673706055)"></polygon><g class="label" style="" transform="translate(0, -18.299999237060547)"><rect></rect><g><rect class="background" style="stroke: none"></rect><text y="-10.1" style=""><tspan class="text-outer-tspan row" x="0" y="-0.1em" dy="1.1em"><tspan font-style="normal" class="text-inner-tspan" font-weight="normal">Query</tspan><tspan font-style="normal" class="text-inner-tspan" font-weight="normal"> columns</tspan><tspan font-style="normal" class="text-inner-tspan" font-weight="normal"> all</tspan></tspan><tspan class="text-outer-tspan row" x="0" y="1em" dy="1.1em"><tspan font-style="normal" class="text-inner-tspan" font-weight="normal">covered</tspan><tspan font-style="normal" class="text-inner-tspan" font-weight="normal"> by</tspan><tspan font-style="normal" class="text-inner-tspan" font-weight="normal"> index?</tspan></tspan></text></g></g></g><g class="node default" id="g3bf6d418-9c47-41e0-ac92-25241efcac4e-dark-flowchart-Q2-2" data-look="classic" transform="translate(359.40234375, 474.59532165527344)"><polygon points="114.63593673706055,0 229.2718734741211,-114.63593673706055 114.63593673706055,-229.2718734741211 0,-114.63593673706055" class="label-container" transform="translate(-114.13593673706055, 114.63593673706055)"></polygon><g class="label" style="" transform="translate(0, -18.299999237060547)"><rect></rect><g><rect class="background" style="stroke: none"></rect><text y="-10.1" style=""><tspan class="text-outer-tspan row" x="0" y="-0.1em" dy="1.1em"><tspan font-style="normal" class="text-inner-tspan" font-weight="normal">AM</tspan><tspan font-style="normal" class="text-inner-tspan" font-weight="normal"> supports</tspan><tspan font-style="normal" class="text-inner-tspan" font-weight="normal"> IOS?</tspan></tspan><tspan class="text-outer-tspan row" x="0" y="1em" dy="1.1em"><tspan font-style="normal" class="text-inner-tspan" font-weight="normal">(B-tree,</tspan><tspan font-style="normal" class="text-inner-tspan" font-weight="normal"> GiST,</tspan><tspan font-style="normal" class="text-inner-tspan" font-weight="normal"> SP-GiST)</tspan></tspan></text></g></g></g><g class="node default" id="g3bf6d418-9c47-41e0-ac92-25241efcac4e-dark-flowchart-Walk-3" data-look="classic" transform="translate(401.5625, 695.5312614440918)"><rect class="basic label-container" style="" x="-117.15625" y="-33.29999923706055" width="234.3125" height="66.5999984741211"></rect><g class="label" style="" transform="translate(0, -18.299999237060547)"><rect></rect><g><rect class="background" style="stroke: none"></rect><text y="-10.1" style=""><tspan class="text-outer-tspan row" x="0" y="-0.1em" dy="1.1em"><tspan font-style="normal" class="text-inner-tspan" font-weight="normal">Walk</tspan><tspan font-style="normal" class="text-inner-tspan" font-weight="normal"> B-tree</tspan><tspan font-style="normal" class="text-inner-tspan" font-weight="normal"> to</tspan><tspan font-style="normal" class="text-inner-tspan" font-weight="normal"> matching</tspan></tspan><tspan class="text-outer-tspan row" x="0" y="1em" dy="1.1em"><tspan font-style="normal" class="text-inner-tspan" font-weight="normal">index</tspan><tspan font-style="normal" class="text-inner-tspan" font-weight="normal"> tuples</tspan></tspan></text></g></g></g><g class="node default" id="g3bf6d418-9c47-41e0-ac92-25241efcac4e-dark-flowchart-VM-4" data-look="classic" transform="translate(401.5625, 884.8687591552734)"><polygon points="106.0374984741211,0 212.0749969482422,-106.0374984741211 106.0374984741211,-212.0749969482422 0,-106.0374984741211" class="label-container" transform="translate(-105.5374984741211, 106.0374984741211)"></polygon><g class="label" style="" transform="translate(0, -27.099998474121094)"><rect></rect><g><rect class="background" style="stroke: none"></rect><text y="-10.1" style=""><tspan class="text-outer-tspan row" x="0" y="-0.1em" dy="1.1em"><tspan font-style="normal" class="text-inner-tspan" font-weight="normal">Visibility-map</tspan><tspan font-style="normal" class="text-inner-tspan" font-weight="normal"> bit</tspan></tspan><tspan class="text-outer-tspan row" x="0" y="1em" dy="1.1em"><tspan font-style="normal" class="text-inner-tspan" font-weight="normal">for</tspan><tspan font-style="normal" class="text-inner-tspan" font-weight="normal"> the</tspan><tspan font-style="normal" class="text-inner-tspan" font-weight="normal"> heap</tspan><tspan font-style="normal" class="text-inner-tspan" font-weight="normal"> page</tspan></tspan><tspan class="text-outer-tspan row" x="0" y="2.1em" dy="1.1em"><tspan font-style="normal" class="text-inner-tspan" font-weight="normal">=</tspan><tspan font-style="normal" class="text-inner-tspan" font-weight="normal"> all-visible?</tspan></tspan></text></g></g></g><g class="node default" id="g3bf6d418-9c47-41e0-ac92-25241efcac4e-dark-flowchart-ReturnFromIdx-5" data-look="classic" transform="translate(255.45703125, 1097.206256866455)"><rect class="basic label-container" style="" x="-124.4453125" y="-33.29999923706055" width="248.890625" height="66.5999984741211"></rect><g class="label" style="" transform="translate(0, -18.299999237060547)"><rect></rect><g><rect class="background" style="stroke: none"></rect><text y="-10.1" style=""><tspan class="text-outer-tspan row" x="0" y="-0.1em" dy="1.1em"><tspan font-style="normal" class="text-inner-tspan" font-weight="normal">Return</tspan><tspan font-style="normal" class="text-inner-tspan" font-weight="normal"> tuple</tspan><tspan font-style="normal" class="text-inner-tspan" font-weight="normal"> from</tspan><tspan font-style="normal" class="text-inner-tspan" font-weight="normal"> index</tspan><tspan font-style="normal" class="text-inner-tspan" font-weight="normal"> —</tspan></tspan><tspan class="text-outer-tspan row" x="0" y="1em" dy="1.1em"><tspan font-style="normal" class="text-inner-tspan" font-weight="normal">no</tspan><tspan font-style="normal" class="text-inner-tspan" font-weight="normal"> heap</tspan><tspan font-style="normal" class="text-inner-tspan" font-weight="normal"> touch</tspan></tspan></text></g></g></g><g class="node default" id="g3bf6d418-9c47-41e0-ac92-25241efcac4e-dark-flowchart-HeapVisit-6" data-look="classic" transform="translate(547.66796875, 1097.206256866455)"><rect class="basic label-container" style="" x="-117.765625" y="-33.29999923706055" width="235.53125" height="66.5999984741211"></rect><g class="label" style="" transform="translate(0, -18.299999237060547)"><rect></rect><g><rect class="background" style="stroke: none"></rect><text y="-10.1" style=""><tspan class="text-outer-tspan row" x="0" y="-0.1em" dy="1.1em"><tspan font-style="normal" class="text-inner-tspan" font-weight="normal">Visit</tspan><tspan font-style="normal" class="text-inner-tspan" font-weight="normal"> heap</tspan><tspan font-style="normal" class="text-inner-tspan" font-weight="normal"> page</tspan><tspan font-style="normal" class="text-inner-tspan" font-weight="normal"> to</tspan><tspan font-style="normal" class="text-inner-tspan" font-weight="normal"> check</tspan></tspan><tspan class="text-outer-tspan row" x="0" y="1em" dy="1.1em"><tspan font-style="normal" class="text-inner-tspan" font-weight="normal">tuple</tspan><tspan font-style="normal" class="text-inner-tspan" font-weight="normal"> visibility</tspan></tspan></text></g></g></g><g class="node default" id="g3bf6d418-9c47-41e0-ac92-25241efcac4e-dark-flowchart-ReturnFromHeap-7" data-look="classic" transform="translate(547.66796875, 1205.0062561035156)"><rect class="basic label-container" style="" x="-107.8125" y="-24.5" width="215.625" height="49"></rect><g class="label" style="" transform="translate(0, -9.5)"><rect></rect><g><rect class="background" style="stroke: none"></rect><text y="-10.1" style=""><tspan class="text-outer-tspan row" x="0" y="-0.1em" dy="1.1em"><tspan font-style="normal" class="text-inner-tspan" font-weight="normal">Return</tspan><tspan font-style="normal" class="text-inner-tspan" font-weight="normal"> tuple</tspan><tspan font-style="normal" class="text-inner-tspan" font-weight="normal"> if</tspan><tspan font-style="normal" class="text-inner-tspan" font-weight="normal"> visible</tspan></tspan></text></g></g></g><g class="node default" id="g3bf6d418-9c47-41e0-ac92-25241efcac4e-dark-flowchart-NotIOS-8" data-look="classic" transform="translate(121.203125, 695.5312614440918)"><rect class="basic label-container" style="" x="-113.203125" y="-33.29999923706055" width="226.40625" height="66.5999984741211"></rect><g class="label" style="" transform="translate(0, -18.299999237060547)"><rect></rect><g><rect class="background" style="stroke: none"></rect><text y="-10.1" style=""><tspan class="text-outer-tspan row" x="0" y="-0.1em" dy="1.1em"><tspan font-style="normal" class="text-inner-tspan" font-weight="normal">Plain</tspan><tspan font-style="normal" class="text-inner-tspan" font-weight="normal"> Index</tspan><tspan font-style="normal" class="text-inner-tspan" font-weight="normal"> Scan</tspan><tspan font-style="normal" class="text-inner-tspan" font-weight="normal"> or</tspan><tspan font-style="normal" class="text-inner-tspan" font-weight="normal"> Seq</tspan></tspan><tspan class="text-outer-tspan row" x="0" y="1em" dy="1.1em"><tspan font-style="normal" class="text-inner-tspan" font-weight="normal">Scan</tspan></tspan></text></g></g></g></g></g></g><defs><filter id="g3bf6d418-9c47-41e0-ac92-25241efcac4e-dark-drop-shadow" height="130%" width="130%"><feDropShadow dx="4" dy="4" stdDeviation="0" flood-opacity="0.06" flood-color="#000000"></feDropShadow></filter></defs><defs><filter id="g3bf6d418-9c47-41e0-ac92-25241efcac4e-dark-drop-shadow-small" height="150%" width="150%"><feDropShadow dx="2" dy="2" stdDeviation="0" flood-opacity="0.06" flood-color="#000000"></feDropShadow></filter></defs><linearGradient id="g3bf6d418-9c47-41e0-ac92-25241efcac4e-dark-gradient" gradientUnits="objectBoundingBox" x1="0%" y1="0%" x2="100%" y2="0%"><stop offset="0%" stop-color="#555555" stop-opacity="1"></stop><stop offset="100%" stop-color="#555555" stop-opacity="1"></stop></linearGradient></svg>