<svg id="g3bf6d418-9c47-41e0-ac92-25241efcac4e-light" width="100%" xmlns="http://www.w3.org/2000/svg" xmlns:xlink="http://www.w3.org/1999/xlink" class="flowchart" style="max-width: 673.43359375px;" viewBox="0 0 673.43359375 1237.5062255859375" role="graphics-document document" aria-roledescription="flowchart-v2"><style>#g3bf6d418-9c47-41e0-ac92-25241efcac4e-light{font-family:"trebuchet ms",verdana,arial,sans-serif;font-size:16px;fill:#333;}@keyframes edge-animation-frame{from{stroke-dashoffset:0;}}@keyframes dash{to{stroke-dashoffset:0;}}#g3bf6d418-9c47-41e0-ac92-25241efcac4e-light .edge-animation-slow{stroke-dasharray:9,5!important;stroke-dashoffset:900;animation:dash 50s linear infinite;stroke-linecap:round;}#g3bf6d418-9c47-41e0-ac92-25241efcac4e-light .edge-animation-fast{stroke-dasharray:9,5!important;stroke-dashoffset:900;animation:dash 20s linear infinite;stroke-linecap:round;}#g3bf6d418-9c47-41e0-ac92-25241efcac4e-light .error-icon{fill:#552222;}#g3bf6d418-9c47-41e0-ac92-25241efcac4e-light .error-text{fill:#552222;stroke:#552222;}#g3bf6d418-9c47-41e0-ac92-25241efcac4e-light .edge-thickness-normal{stroke-width:1px;}#g3bf6d418-9c47-41e0-ac92-25241efcac4e-light .edge-thickness-thick{stroke-width:3.5px;}#g3bf6d418-9c47-41e0-ac92-25241efcac4e-light .edge-pattern-solid{stroke-dasharray:0;}#g3bf6d418-9c47-41e0-ac92-25241efcac4e-light .edge-thickness-invisible{stroke-width:0;fill:none;}#g3bf6d418-9c47-41e0-ac92-25241efcac4e-light .edge-pattern-dashed{stroke-dasharray:3;}#g3bf6d418-9c47-41e0-ac92-25241efcac4e-light .edge-pattern-dotted{stroke-dasharray:2;}#g3bf6d418-9c47-41e0-ac92-25241efcac4e-light .marker{fill:#333333;stroke:#333333;}#g3bf6d418-9c47-41e0-ac92-25241efcac4e-light .marker.cross{stroke:#333333;}#g3bf6d418-9c47-41e0-ac92-25241efcac4e-light svg{font-family:"trebuchet ms",verdana,arial,sans-serif;font-size:16px;}#g3bf6d418-9c47-41e0-ac92-25241efcac4e-light p{margin:0;}#g3bf6d418-9c47-41e0-ac92-25241efcac4e-light .label{font-family:"trebuchet ms",verdana,arial,sans-serif;color:#333;}#g3bf6d418-9c47-41e0-ac92-25241efcac4e-light .cluster-label text{fill:#333;}#g3bf6d418-9c47-41e0-ac92-25241efcac4e-light .cluster-label span{color:#333;}#g3bf6d418-9c47-41e0-ac92-25241efcac4e-light .cluster-label span p{background-color:transparent;}#g3bf6d418-9c47-41e0-ac92-25241efcac4e-light .label text,#g3bf6d418-9c47-41e0-ac92-25241efcac4e-light span{fill:#333;color:#333;}#g3bf6d418-9c47-41e0-ac92-25241efcac4e-light .node rect,#g3bf6d418-9c47-41e0-ac92-25241efcac4e-light .node circle,#g3bf6d418-9c47-41e0-ac92-25241efcac4e-light .node ellipse,#g3bf6d418-9c47-41e0-ac92-25241efcac4e-light .node polygon,#g3bf6d418-9c47-41e0-ac92-25241efcac4e-light .node path{fill:#ECECFF;stroke:#9370DB;stroke-width:1px;}#g3bf6d418-9c47-41e0-ac92-25241efcac4e-light .rough-node .label text,#g3bf6d418-9c47-41e0-ac92-25241efcac4e-light .node .label text,#g3bf6d418-9c47-41e0-ac92-25241efcac4e-light .image-shape .label,#g3bf6d418-9c47-41e0-ac92-25241efcac4e-light .icon-shape .label{text-anchor:middle;}#g3bf6d418-9c47-41e0-ac92-25241efcac4e-light .node .katex path{fill:#000;stroke:#000;stroke-width:1px;}#g3bf6d418-9c47-41e0-ac92-25241efcac4e-light .rough-node .label,#g3bf6d418-9c47-41e0-ac92-25241efcac4e-light .node .label,#g3bf6d418-9c47-41e0-ac92-25241efcac4e-light .image-shape .label,#g3bf6d418-9c47-41e0-ac92-25241efcac4e-light .icon-shape .label{text-align:center;}#g3bf6d418-9c47-41e0-ac92-25241efcac4e-light .node.clickable{cursor:pointer;}#g3bf6d418-9c47-41e0-ac92-25241efcac4e-light .root .anchor path{fill:#333333!important;stroke-width:0;stroke:#333333;}#g3bf6d418-9c47-41e0-ac92-25241efcac4e-light .arrowheadPath{fill:#333333;}#g3bf6d418-9c47-41e0-ac92-25241efcac4e-light .edgePath .path{stroke:#333333;stroke-width:1px;}#g3bf6d418-9c47-41e0-ac92-25241efcac4e-light .flowchart-link{stroke:#333333;fill:none;}#g3bf6d418-9c47-41e0-ac92-25241efcac4e-light .edgeLabel{background-color:rgba(232,232,232, 0.8);text-align:center;}#g3bf6d418-9c47-41e0-ac92-25241efcac4e-light .edgeLabel p{background-color:rgba(232,232,232, 0.8);}#g3bf6d418-9c47-41e0-ac92-25241efcac4e-light .edgeLabel rect{opacity:0.5;background-color:rgba(232,232,232, 0.8);fill:rgba(232,232,232, 0.8);}#g3bf6d418-9c47-41e0-ac92-25241efcac4e-light .labelBkg{background-color:rgba(232, 232, 232, 0.5);}#g3bf6d418-9c47-41e0-ac92-25241efcac4e-light .cluster rect{fill:#ffffde;stroke:#aaaa33;stroke-width:1px;}#g3bf6d418-9c47-41e0-ac92-25241efcac4e-light .cluster text{fill:#333;}#g3bf6d418-9c47-41e0-ac92-25241efcac4e-light .cluster span{color:#333;}#g3bf6d418-9c47-41e0-ac92-25241efcac4e-light div.mermaidTooltip{position:absolute;text-align:center;max-width:200px;padding:2px;font-family:"trebuchet ms",verdana,arial,sans-serif;font-size:12px;background:hsl(80, 100%, 96.2745098039%);border:1px solid #aaaa33;border-radius:2px;pointer-events:none;z-index:100;}#g3bf6d418-9c47-41e0-ac92-25241efcac4e-light .flowchartTitleText{text-anchor:middle;font-size:18px;fill:#333;}#g3bf6d418-9c47-41e0-ac92-25241efcac4e-light rect.text{fill:none;stroke-width:0;}#g3bf6d418-9c47-41e0-ac92-25241efcac4e-light .icon-shape,#g3bf6d418-9c47-41e0-ac92-25241efcac4e-light .image-shape{background-color:rgba(232,232,232, 0.8);text-align:center;}#g3bf6d418-9c47-41e0-ac92-25241efcac4e-light .icon-shape p,#g3bf6d418-9c47-41e0-ac92-25241efcac4e-light .image-shape p{background-color:rgba(232,232,232, 0.8);padding:2px;}#g3bf6d418-9c47-41e0-ac92-25241efcac4e-light .icon-shape .label rect,#g3bf6d418-9c47-41e0-ac92-25241efcac4e-light .image-shape .label rect{opacity:0.5;background-color:rgba(232,232,232, 0.8);fill:rgba(232,232,232, 0.8);}#g3bf6d418-9c47-41e0-ac92-25241efcac4e-light .label-icon{display:inline-block;height:1em;overflow:visible;vertical-align:-0.125em;}#g3bf6d418-9c47-41e0-ac92-25241efcac4e-light .node .label-icon path{fill:currentColor;stroke:revert;stroke-width:revert;}#g3bf6d418-9c47-41e0-ac92-25241efcac4e-light .node .neo-node{stroke:#9370DB;}#g3bf6d418-9c47-41e0-ac92-25241efcac4e-light [data-look="neo"].node rect,#g3bf6d418-9c47-41e0-ac92-25241efcac4e-light [data-look="neo"].cluster rect,#g3bf6d418-9c47-41e0-ac92-25241efcac4e-light [data-look="neo"].node polygon{stroke:#9370DB;filter:drop-shadow(1px 2px 2px rgba(185, 185, 185, 1));}#g3bf6d418-9c47-41e0-ac92-25241efcac4e-light [data-look="neo"].node path{stroke:#9370DB;stroke-width:1px;}#g3bf6d418-9c47-41e0-ac92-25241efcac4e-light [data-look="neo"].node .outer-path{filter:drop-shadow(1px 2px 2px rgba(185, 185, 185, 1));}#g3bf6d418-9c47-41e0-ac92-25241efcac4e-light [data-look="neo"].node .neo-line path{stroke:#9370DB;filter:none;}#g3bf6d418-9c47-41e0-ac92-25241efcac4e-light [data-look="neo"].node circle{stroke:#9370DB;filter:drop-shadow(1px 2px 2px rgba(185, 185, 185, 1));}#g3bf6d418-9c47-41e0-ac92-25241efcac4e-light [data-look="neo"].node circle .state-start{fill:#000000;}#g3bf6d418-9c47-41e0-ac92-25241efcac4e-light [data-look="neo"].icon-shape .icon{fill:#9370DB;filter:drop-shadow(1px 2px 2px rgba(185, 185, 185, 1));}#g3bf6d418-9c47-41e0-ac92-25241efcac4e-light [data-look="neo"].icon-shape .icon-neo path{stroke:#9370DB;filter:drop-shadow(1px 2px 2px rgba(185, 185, 185, 1));}#g3bf6d418-9c47-41e0-ac92-25241efcac4e-light :root{--mermaid-font-family:"trebuchet ms",verdana,arial,sans-serif;}</style><g><marker id="g3bf6d418-9c47-41e0-ac92-25241efcac4e-light_flowchart-v2-pointEnd" class="marker flowchart-v2" viewBox="0 0 10 10" refX="5" refY="5" markerUnits="userSpaceOnUse" markerWidth="8" markerHeight="8" orient="auto"><path d="M 0 0 L 10 5 L 0 10 z" class="arrowMarkerPath" style="stroke-width: 1; stroke-dasharray: 1, 0;"></path></marker><marker id="g3bf6d418-9c47-41e0-ac92-25241efcac4e-light_flowchart-v2-pointStart" class="marker flowchart-v2" viewBox="0 0 10 10" refX="4.5" refY="5" markerUnits="userSpaceOnUse" markerWidth="8" markerHeight="8" orient="auto"><path d="M 0 5 L 10 10 L 10 0 z" class="arrowMarkerPath" style="stroke-width: 1; stroke-dasharray: 1, 0;"></path></marker><marker id="g3bf6d418-9c47-41e0-ac92-25241efcac4e-light_flowchart-v2-pointEnd-margin" class="marker flowchart-v2" viewBox="0 0 11.5 14" refX="11.5" refY="7" markerUnits="userSpaceOnUse" markerWidth="10.5" markerHeight="14" orient="auto"><path d="M 0 0 L 11.5 7 L 0 14 z" class="arrowMarkerPath" style="stroke-width: 0; stroke-dasharray: 1, 0;"></path></marker><marker id="g3bf6d418-9c47-41e0-ac92-25241efcac4e-light_flowchart-v2-pointStart-margin" class="marker flowchart-v2" viewBox="0 0 11.5 14" refX="1" refY="7" markerUnits="userSpaceOnUse" markerWidth="11.5" markerHeight="14" orient="auto"><polygon points="0,7 11.5,14 11.5,0" class="arrowMarkerPath" style="stroke-width: 0; stroke-dasharray: 1, 0;"></polygon></marker><marker id="g3bf6d418-9c47-41e0-ac92-25241efcac4e-light_flowchart-v2-circleEnd" class="marker flowchart-v2" viewBox="0 0 10 10" refX="11" refY="5" markerUnits="userSpaceOnUse" markerWidth="11" markerHeight="11" orient="auto"><circle cx="5" cy="5" r="5" class="arrowMarkerPath" style="stroke-width: 1; stroke-dasharray: 1, 0;"></circle></marker><marker id="g3bf6d418-9c47-41e0-ac92-25241efcac4e-light_flowchart-v2-circleStart" class="marker flowchart-v2" viewBox="0 0 10 10" refX="-1" refY="5" markerUnits="userSpaceOnUse" markerWidth="11" markerHeight="11" orient="auto"><circle cx="5" cy="5" r="5" class="arrowMarkerPath" style="stroke-width: 1; stroke-dasharray: 1, 0;"></circle></marker><marker id="g3bf6d418-9c47-41e0-ac92-25241efcac4e-light_flowchart-v2-circleEnd-margin" class="marker flowchart-v2" viewBox="0 0 10 10" refY="5" refX="12.25" markerUnits="userSpaceOnUse" markerWidth="14" markerHeight="14" orient="auto"><circle cx="5" cy="5" r="5" class="arrowMarkerPath" style="stroke-width: 0; stroke-dasharray: 1, 0;"></circle></marker><marker id="g3bf6d418-9c47-41e0-ac92-25241efcac4e-light_flowchart-v2-circleStart-margin" class="marker flowchart-v2" viewBox="0 0 10 10" refX="-2" refY="5" markerUnits="userSpaceOnUse" markerWidth="14" markerHeight="14" orient="auto"><circle cx="5" cy="5" r="5" class="arrowMarkerPath" style="stroke-width: 0; stroke-dasharray: 1, 0;"></circle></marker><marker id="g3bf6d418-9c47-41e0-ac92-25241efcac4e-light_flowchart-v2-crossEnd" class="marker cross flowchart-v2" viewBox="0 0 11 11" refX="12" refY="5.2" markerUnits="userSpaceOnUse" markerWidth="11" markerHeight="11" orient="auto"><path d="M 1,1 l 9,9 M 10,1 l -9,9" class="arrowMarkerPath" style="stroke-width: 2; stroke-dasharray: 1, 0;"></path></marker><marker id="g3bf6d418-9c47-41e0-ac92-25241efcac4e-light_flowchart-v2-crossStart" class="marker cross flowchart-v2" viewBox="0 0 11 11" refX="-1" refY="5.2" markerUnits="userSpaceOnUse" markerWidth="11" markerHeight="11" orient="auto"><path d="M 1,1 l 9,9 M 10,1 l -9,9" class="arrowMarkerPath" style="stroke-width: 2; stroke-dasharray: 1, 0;"></path></marker><marker id="g3bf6d418-9c47-41e0-ac92-25241efcac4e-light_flowchart-v2-crossEnd-margin" class="marker cross flowchart-v2" viewBox="0 0 15 15" refX="17.7" refY="7.5" markerUnits="userSpaceOnUse" markerWidth="12" markerHeight="12" orient="auto"><path d="M 1,1 L 14,14 M 1,14 L 14,1" class="arrowMarkerPath" style="stroke-width: 2.5;"></path></marker><marker id="g3bf6d418-9c47-41e0-ac92-25241efcac4e-light_flowchart-v2-crossStart-margin" class="marker cross flowchart-v2" viewBox="0 0 15 15" refX="-3.5" refY="7.5" markerUnits="userSpaceOnUse" markerWidth="12" markerHeight="12" orient="auto"><path d="M 1,1 L 14,14 M 1,14 L 14,1" class="arrowMarkerPath" style="stroke-width: 2.5; stroke-dasharray: 1, 0;"></path></marker><g class="root"><g class="clusters"></g><g class="edgePaths"><path d="M261.883,42.5L261.799,46.583C261.716,50.667,261.549,58.833,261.466,66.417C261.383,74,261.383,81,261.383,84.5L261.383,88" id="g3bf6d418-9c47-41e0-ac92-25241efcac4e-light-L_Start_Q1_0" class="edge-thickness-normal edge-pattern-solid edge-thickness-normal edge-pattern-solid flowchart-link" style=";" data-edge="true" data-et="edge" data-id="L_Start_Q1_0" data-points="W3sieCI6MjYxLjg4MjgxMjUsInkiOjQyLjV9LHsieCI6MjYxLjM4MjgxMjUsInkiOjY3fSx7IngiOjI2MS4zODI4MTI1LCJ5Ijo5MS45OTk5OTk5OTk5OTk5OX1d" data-look="classic" marker-end="url(#g3bf6d418-9c47-41e0-ac92-25241efcac4e-light_flowchart-v2-pointEnd)"></path><path d="M206.095,231.671L186.048,246.969C166.002,262.267,125.909,292.863,105.863,333.351C85.816,373.838,85.816,424.217,85.816,474.595C85.816,524.974,85.816,575.353,88.599,606.031C91.382,636.709,96.947,647.686,99.73,653.175L102.512,658.664" id="g3bf6d418-9c47-41e0-ac92-25241efcac4e-light-L_Q1_NotIOS_0" class="edge-thickness-normal edge-pattern-solid edge-thickness-normal edge-pattern-solid flowchart-link" style=";" data-edge="true" data-et="edge" data-id="L_Q1_NotIOS_0" data-points="W3sieCI6MjA2LjA5NDg5NTM1NDk5ODUsInkiOjIzMS42NzE0NjM5NTg1MTQxNX0seyJ4Ijo4NS44MTY0MDYyNSwieSI6MzIzLjQ1OTM4MTEwMzUxNTZ9LHsieCI6ODUuODE2NDA2MjUsInkiOjQ3NC41OTUzMjE2NTUyNzM0NH0seyJ4Ijo4NS44MTY0MDYyNSwieSI6NjI1LjczMTI2MjIwNzAzMTJ9LHsieCI6MTA0LjMyMDkyMjcwNDA1MTk1LCJ5Ijo2NjIuMjMxMjYyMjA3MDMxMn1d" data-look="classic" marker-end="url(#g3bf6d418-9c47-41e0-ac92-25241efcac4e-light_flowchart-v2-pointEnd)"></path><path d="M302.568,245.774L312.04,258.722C321.513,271.669,340.458,297.564,349.93,315.929C359.402,334.293,359.402,345.126,359.402,350.543L359.402,355.959" id="g3bf6d418-9c47-41e0-ac92-25241efcac4e-light-L_Q1_Q2_0" class="edge-thickness-normal edge-pattern-solid edge-thickness-normal edge-pattern-solid flowchart-link" style=";" data-edge="true" data-et="edge" data-id="L_Q1_Q2_0" data-points="W3sieCI6MzAyLjU2NzkyMjk1MDI1MzksInkiOjI0NS43NzQyNzA2NTMyNjE2OH0seyJ4IjozNTkuNDAyMzQzNzUsInkiOjMyMy40NTkzODExMDM1MTU2fSx7IngiOjM1OS40MDIzNDM3NSwieSI6MzU5Ljk1OTM4MTEwMzUxNTZ9XQ==" data-look="classic" marker-end="url(#g3bf6d418-9c47-41e0-ac92-25241efcac4e-light_flowchart-v2-pointEnd)"></path><path d="M304.24,534.069L290.071,549.346C275.901,564.623,247.562,595.177,225.393,616.151C203.223,637.125,187.224,648.518,179.224,654.214L171.224,659.911" id="g3bf6d418-9c47-41e0-ac92-25241efcac4e-light-L_Q2_NotIOS_0" class="edge-thickness-normal edge-pattern-solid edge-thickness-normal edge-pattern-solid flowchart-link" style=";" data-edge="true" data-et="edge" data-id="L_Q2_NotIOS_0" data-points="W3sieCI6MzA0LjI0MDA3NzIwNjcyMDM0LCJ5Ijo1MzQuMDY4OTk1NjYzNzUxNX0seyJ4IjoyMTkuMjIyNjU2MjUsInkiOjYyNS43MzEyNjIyMDcwMzEyfSx7IngiOjE2Ny45NjYwMjQwMTg5MDEwNCwieSI6NjYyLjIzMTI2MjIwNzAzMTJ9XQ==" data-look="classic" marker-end="url(#g3bf6d418-9c47-41e0-ac92-25241efcac4e-light_flowchart-v2-pointEnd)"></path><path d="M384.406,564.228L387.265,574.478C390.125,584.729,395.844,605.23,398.703,620.897C401.563,636.565,401.563,647.398,401.563,652.815L401.563,658.231" id="g3bf6d418-9c47-41e0-ac92-25241efcac4e-light-L_Q2_Walk_0" class="edge-thickness-normal edge-pattern-solid edge-thickness-normal edge-pattern-solid flowchart-link" style=";" data-edge="true" data-et="edge" data-id="L_Q2_Walk_0" data-points="W3sieCI6Mzg0LjQwNTc5MzA5Nzg5MTIsInkiOjU2NC4yMjc4MTI4NTkxNDAyfSx7IngiOjQwMS41NjI1LCJ5Ijo2MjUuNzMxMjYyMjA3MDMxMn0seyJ4Ijo0MDEuNTYyNSwieSI6NjYyLjIzMTI2MjIwNzAzMTJ9XQ==" data-look="classic" marker-end="url(#g3bf6d418-9c47-41e0-ac92-25241efcac4e-light_flowchart-v2-pointEnd)"></path><path d="M401.563,728.831L401.563,732.998C401.563,737.165,401.563,745.498,401.563,753.165C401.563,760.831,401.563,767.831,401.563,771.331L401.563,774.831" id="g3bf6d418-9c47-41e0-ac92-25241efcac4e-light-L_Walk_VM_0" class="edge-thickness-normal edge-pattern-solid edge-thickness-normal edge-pattern-solid flowchart-link" style=";" data-edge="true" data-et="edge" data-id="L_Walk_VM_0" data-points="W3sieCI6NDAxLjU2MjUsInkiOjcyOC44MzEyNjA2ODExNTIzfSx7IngiOjQwMS41NjI1LCJ5Ijo3NTMuODMxMjYwNjgxMTUyM30seyJ4Ijo0MDEuNTYyNSwieSI6Nzc4LjgzMTI2MDY4MTE1MjJ9XQ==" data-look="classic" marker-end="url(#g3bf6d418-9c47-41e0-ac92-25241efcac4e-light_flowchart-v2-pointEnd)"></path><path d="M347.888,937.232L332.483,952.261C317.078,967.29,286.267,997.348,270.862,1017.794C255.457,1038.24,255.457,1049.073,255.457,1054.49L255.457,1059.906" id="g3bf6d418-9c47-41e0-ac92-25241efcac4e-light-L_VM_ReturnFromIdx_0" class="edge-thickness-normal edge-pattern-solid edge-thickness-normal edge-pattern-solid flowchart-link" style=";" data-edge="true" data-et="edge" data-id="L_VM_ReturnFromIdx_0" data-points="W3sieCI6MzQ3Ljg4ODM3NTk4MjI0OTk1LCJ5Ijo5MzcuMjMyMTMzNjExNjQ0NH0seyJ4IjoyNTUuNDU3MDMxMjUsInkiOjEwMjcuNDA2MjU3NjI5Mzk0NX0seyJ4IjoyNTUuNDU3MDMxMjUsInkiOjEwNjMuOTA2MjU3NjI5Mzk0NX1d" data-look="classic" marker-end="url(#g3bf6d418-9c47-41e0-ac92-25241efcac4e-light_flowchart-v2-pointEnd)"></path><path d="M455.237,937.232L470.642,952.261C486.047,967.29,516.858,997.348,532.263,1017.794C547.668,1038.24,547.668,1049.073,547.668,1054.49L547.668,1059.906" id="g3bf6d418-9c47-41e0-ac92-25241efcac4e-light-L_VM_HeapVisit_0" class="edge-thickness-normal edge-pattern-solid edge-thickness-normal edge-pattern-solid flowchart-link" style=";" data-edge="true" data-et="edge" data-id="L_VM_HeapVisit_0" data-points="W3sieCI6NDU1LjIzNjYyNDAxNzc1MDE2LCJ5Ijo5MzcuMjMyMTMzNjExNjQ0M30seyJ4Ijo1NDcuNjY3OTY4NzUsInkiOjEwMjcuNDA2MjU3NjI5Mzk0NX0seyJ4Ijo1NDcuNjY3OTY4NzUsInkiOjEwNjMuOTA2MjU3NjI5Mzk0NX1d" data-look="classic" marker-end="url(#g3bf6d418-9c47-41e0-ac92-25241efcac4e-light_flowchart-v2-pointEnd)"></path><path d="M547.668,1130.506L547.668,1134.673C547.668,1138.84,547.668,1147.173,547.668,1154.84C547.668,1162.506,547.668,1169.506,547.668,1173.006L547.668,1176.506" id="g3bf6d418-9c47-41e0-ac92-25241efcac4e-light-L_HeapVisit_ReturnFromHeap_0" class="edge-thickness-normal edge-pattern-solid edge-thickness-normal edge-pattern-solid flowchart-link" style=";" data-edge="true" data-et="edge" data-id="L_HeapVisit_ReturnFromHeap_0" data-points="W3sieCI6NTQ3LjY2Nzk2ODc1LCJ5IjoxMTMwLjUwNjI1NjEwMzUxNTZ9LHsieCI6NTQ3LjY2Nzk2ODc1LCJ5IjoxMTU1LjUwNjI1NjEwMzUxNTZ9LHsieCI6NTQ3LjY2Nzk2ODc1LCJ5IjoxMTgwLjUwNjI1NjEwMzUxNTZ9XQ==" data-look="classic" marker-end="url(#g3bf6d418-9c47-41e0-ac92-25241efcac4e-light_flowchart-v2-pointEnd)"></path></g><g class="edgeLabels"><g class="edgeLabel"><g class="label" data-id="L_Start_Q1_0" transform="translate(0, 0)"><text y="-10.1" text-anchor="middle"><tspan class="text-outer-tspan row" x="0" y="-0.1em" dy="1.1em" text-anchor="middle"></tspan></text></g></g><g><rect class="background" style="stroke: none"></rect></g><g class="edgeLabel" transform="translate(85.81640625, 474.59532165527344)"><g class="label" data-id="L_Q1_NotIOS_0" transform="translate(0, -10.5)"><g><rect class="background" style="" x="-10.6640625" y="-1" width="21.328125" height="23"></rect><text y="-10.1" text-anchor="middle" style=""><tspan class="text-outer-tspan row" x="0" y="-0.1em" dy="1.1em" text-anchor="middle"><tspan font-style="normal" class="text-inner-tspan" font-weight="normal">no</tspan></tspan></text></g></g></g><g class="edgeLabel" transform="translate(359.40234375, 323.4593811035156)"><g class="label" data-id="L_Q1_Q2_0" transform="translate(0, -10.5)"><g><rect class="background" style="" x="-13.546875" y="-1" width="27.09375" height="23"></rect><text y="-10.1" text-anchor="middle" style=""><tspan class="text-outer-tspan row" x="0" y="-0.1em" dy="1.1em" text-anchor="middle"><tspan font-style="normal" class="text-inner-tspan" font-weight="normal">yes</tspan></tspan></text></g></g></g><g class="edgeLabel" transform="translate(240.33603, 602.9677)"><g class="label" data-id="L_Q2_NotIOS_0" transform="translate(0, -10.5)"><g><rect class="background" style="" x="-50.7734375" y="-1" width="101.546875" height="23"></rect><text y="-10.1" text-anchor="middle" style=""><tspan class="text-outer-tspan row" x="0" y="-0.1em" dy="1.1em" text-anchor="middle"><tspan font-style="normal" class="text-inner-tspan" font-weight="normal">no</tspan><tspan font-style="normal" class="text-inner-tspan" font-weight="normal"> —</tspan><tspan font-style="normal" class="text-inner-tspan" font-weight="normal"> e.g.</tspan><tspan font-style="normal" class="text-inner-tspan" font-weight="normal"> GIN</tspan></tspan></text></g></g></g><g class="edgeLabel" transform="translate(401.5625, 625.7312622070312)"><g class="label" data-id="L_Q2_Walk_0" transform="translate(0, -10.5)"><g><rect class="background" style="" x="-13.546875" y="-1" width="27.09375" height="23"></rect><text y="-10.1" text-anchor="middle" style=""><tspan class="text-outer-tspan row" x="0" y="-0.1em" dy="1.1em" text-anchor="middle"><tspan font-style="normal" class="text-inner-tspan" font-weight="normal">yes</tspan></tspan></text></g></g></g><g class="edgeLabel"><g class="label" data-id="L_Walk_VM_0" transform="translate(0, 0)"><text y="-10.1" text-anchor="middle"><tspan class="text-outer-tspan row" x="0" y="-0.1em" dy="1.1em" text-anchor="middle"></tspan></text></g></g><g><rect class="background" style="stroke: none"></rect></g><g class="edgeLabel" transform="translate(255.45703125, 1027.4062576293945)"><g class="label" data-id="L_VM_ReturnFromIdx_0" transform="translate(0, -10.5)"><g><rect class="background" style="" x="-12.7734375" y="-1" width="25.546875" height="23"></rect><text y="-10.1" text-anchor="middle" style=""><tspan class="text-outer-tspan row" x="0" y="-0.1em" dy="1.1em" text-anchor="middle"><tspan font-style="normal" class="text-inner-tspan" font-weight="normal">set</tspan></tspan></text></g></g></g><g class="edgeLabel" transform="translate(547.66796875, 1027.4062576293945)"><g class="label" data-id="L_VM_HeapVisit_0" transform="translate(0, -10.5)"><g><rect class="background" style="" x="-21.515625" y="-1" width="43.03125" height="23"></rect><text y="-10.1" text-anchor="middle" style=""><tspan class="text-outer-tspan row" x="0" y="-0.1em" dy="1.1em" text-anchor="middle"><tspan font-style="normal" class="text-inner-tspan" font-weight="normal">unset</tspan></tspan></text></g></g></g><g class="edgeLabel"><g class="label" data-id="L_HeapVisit_ReturnFromHeap_0" transform="translate(0, 0)"><text y="-10.1" text-anchor="middle"><tspan class="text-outer-tspan row" x="0" y="-0.1em" dy="1.1em" text-anchor="middle"></tspan></text></g></g><g><rect class="background" style="stroke: none"></rect></g></g><g class="nodes"><g class="node default" id="g3bf6d418-9c47-41e0-ac92-25241efcac4e-light-flowchart-Start-0" data-look="classic" transform="translate(261.3828125, 25)"><g class="basic label-container outer-path"><path d="M-89.859375 -17 C-27.794629480953155 -17, 34.27011603809369 -17, 89.859375 -17 C89.859375 -17, 89.859375 -17, 89.859375 -17 C90.1071907940926 -16.99205302982763, 90.35500658818522 -16.98410605965526, 90.94856873967211 -16.965071676755716 C91.29670564662689 -16.931487328037676, 91.64484255358167 -16.89790297931964, 92.0332867486366 -16.860430234995185 C92.42912616019 -16.796433988715716, 92.82496557174339 -16.73243774243625, 93.10907168792333 -16.686505668848113 C93.44978527772635 -16.60874001533953, 93.79049886752935 -16.530974361830953, 94.17150292646163 -16.4440126716635 C94.57831266215527 -16.323273677497507, 94.98512239784891 -16.20253468333151, 95.21621470640156 -16.133947699181366 C95.59540629348663 -15.994401689925454, 95.97459788057171 -15.854855680669539, 96.23891408294936 -15.757584874882369 C96.62188225754633 -15.58805622433556, 97.00485043214329 -15.41852757378875, 97.23539856499849 -15.316470754341125 C97.51027271785203 -15.17306908486273, 97.78514687070557 -15.029667415384335, 98.20157338406693 -14.812417970097622 C98.47542704189743 -14.646406273378044, 98.74928069972793 -14.480394576658467, 99.13346832057933 -14.247497783161291 C99.48795149210078 -14.000225668037096, 99.84243466362224 -13.752953552912903, 100.02725401835067 -13.624031571755262 C100.30930724323613 -13.399101630660649, 100.59136046812158 -13.174171689566034, 100.8792577202324 -12.944581292275288 C101.14087654661448 -12.70698599620992, 101.40249537299654 -12.469390700144551, 101.68597836025927 -12.21193895166137 C101.84610519638437 -12.046594846704464, 102.00623203250947 -11.881250741747557, 102.44410095028036 -11.42911513444239 C102.61653372781319 -11.226565782249326, 102.78896650534602 -11.02401643005626, 103.15051020195651 -10.59932663159847 C103.38894486768082 -10.279845901372802, 103.62737953340512 -9.960365171147133, 103.80230332814824 -9.725983222076888 C104.00123473844526 -9.420371155297405, 104.2001661487423 -9.114759088517921, 104.39680197109088 -8.812673661278927 C104.56351572625852 -8.516656507380496, 104.73022948142616 -8.220639353482063, 104.931563208341 -7.863150934094199 C105.10074917907454 -7.511832645866153, 105.26993514980808 -7.160514357638106, 105.40438959126881 -6.881316833080699 C105.5288761110868 -6.573832722347129, 105.6533626309048 -6.266348611613559, 105.81333817484592 -5.871205925162238 C105.90716938734376 -5.588601263092252, 106.00100059984157 -5.305996601022265, 106.15672850162323 -4.836968972727556 C106.21417347334777 -4.617906398733652, 106.2716184450723 -4.398843824739748, 106.433149507091 -3.7828558772573464 C106.48630240572828 -3.509926976624032, 106.53945530436556 -3.2369980759907175, 106.64146531804565 -2.713198215567453 C106.67014803993682 -2.4907406886235512, 106.698830761828 -2.2682831616796495, 106.78081992013637 -1.632391440430593 C106.803004020995 -1.2868561628734783, 106.82518812185363 -0.9413208853163634, 106.8506406754117 -0.5448768187181379 C106.8506406754117 -0.16010607248809222, 106.8506406754117 0.22466467374195342, 106.8506406754117 0.5448768187181336 C106.82322178846208 0.9719481150854952, 106.79580290151247 1.3990194114528567, 106.78081992013637 1.6323914404305815 C106.75216879974147 1.8546038724097513, 106.72351767934657 2.076816304388921, 106.64146531804565 2.7131982155674415 C106.58021174142401 3.0277223855715527, 106.51895816480237 3.342246555575664, 106.433149507091 3.782855877257343 C106.36887149217763 4.027975806389887, 106.30459347726428 4.27309573552243, 106.15672850162323 4.836968972727545 C106.06904896229244 5.101045775354422, 105.98136942296166 5.365122577981297, 105.81333817484592 5.871205925162227 C105.67788087791591 6.205788067468029, 105.5424235809859 6.5403702097738305, 105.40438959126881 6.881316833080694 C105.30728207648865 7.082962665289663, 105.21017456170848 7.284608497498631, 104.931563208341 7.863150934094196 C104.74059608832215 8.202232393205449, 104.54962896830331 8.541313852316703, 104.39680197109088 8.812673661278923 C104.27459058169677 9.000423173741332, 104.15237919230266 9.188172686203743, 103.80230332814826 9.725983222076879 C103.6518690016015 9.927551514800445, 103.50143467505475 10.129119807524011, 103.15051020195651 10.599326631598467 C102.94472109974947 10.841058220782497, 102.73893199754242 11.082789809966526, 102.44410095028037 11.42911513444238 C102.21145785501737 11.669338230654771, 101.97881475975436 11.909561326867163, 101.68597836025927 12.211938951661365 C101.39666262406112 12.47468784840162, 101.10734688786297 12.737436745141876, 100.87925772023242 12.944581292275275 C100.62985954671404 13.14346969889205, 100.38046137319569 13.342358105508824, 100.02725401835067 13.62403157175526 C99.67914879055284 13.866854709434595, 99.331043562755 14.109677847113929, 99.13346832057934 14.247497783161286 C98.86066194736284 14.412874609793324, 98.58785557414636 14.57825143642536, 98.20157338406695 14.81241797009762 C97.8596303179158 14.990809448683683, 97.51768725176466 15.169200927269747, 97.23539856499849 15.316470754341124 C96.87537110245104 15.475844232175657, 96.51534363990359 15.63521771001019, 96.23891408294936 15.757584874882367 C96.02702243553097 15.835562959837254, 95.81513078811257 15.913541044792142, 95.21621470640156 16.133947699181363 C94.99065275065716 16.200893303647433, 94.76509079491277 16.267838908113504, 94.17150292646164 16.444012671663497 C93.92056761100734 16.501287019909977, 93.66963229555303 16.558561368156454, 93.10907168792333 16.68650566884811 C92.83878471638245 16.73020357030007, 92.56849774484155 16.773901471752033, 92.03328674863661 16.86043023499518 C91.76434525370226 16.88637469756203, 91.49540375876789 16.912319160128877, 90.94856873967211 16.965071676755716 C90.6964484937988 16.973156682318585, 90.44432824792547 16.981241687881454, 89.859375 17 C89.859375 17, 89.859375 17, 89.859375 17 C39.695438514370565 17, -10.46849797125887 17, -89.859375 17 C-90.15068991800308 16.99065809758973, -90.44200483600616 16.98131619517946, -90.94856873967211 16.965071676755716 C-91.21611000128223 16.93926229301363, -91.48365126289234 16.913452909271548, -92.0332867486366 16.86043023499518 C-92.39740338385805 16.80156268117926, -92.7615200190795 16.742695127363334, -93.10907168792333 16.68650566884811 C-93.44652084467978 16.609485100879994, -93.78397000143622 16.532464532911874, -94.17150292646161 16.4440126716635 C-94.41823310084095 16.37078445102083, -94.66496327522027 16.297556230378156, -95.21621470640154 16.13394769918137 C-95.47801589486608 16.037602441762765, -95.7398170833306 15.94125718434416, -96.23891408294936 15.757584874882369 C-96.5613155359082 15.614867315356797, -96.88371698886704 15.472149755831225, -97.23539856499849 15.316470754341127 C-97.43858193413693 15.21047012080676, -97.64176530327538 15.10446948727239, -98.20157338406693 14.812417970097624 C-98.52997060908721 14.613341642414023, -98.8583678341075 14.414265314730422, -99.13346832057931 14.247497783161299 C-99.3170284861879 14.119454157824249, -99.50058865179648 13.991410532487201, -100.02725401835067 13.624031571755264 C-100.25099169119298 13.445606731573054, -100.47472936403527 13.267181891390843, -100.8792577202324 12.94458129227529 C-101.0826182845873 12.759894608353852, -101.28597884894221 12.575207924432414, -101.68597836025926 12.211938951661377 C-101.98100320677872 11.907301575639666, -102.27602805329818 11.602664199617957, -102.44410095028036 11.429115134442386 C-102.6078883671679 11.236721114798236, -102.77167578405545 11.044327095154088, -103.15051020195651 10.599326631598473 C-103.29445364994125 10.4064555248168, -103.43839709792599 10.213584418035124, -103.80230332814824 9.72598322207689 C-104.02122955684682 9.38965374487211, -104.2401557855454 9.053324267667332, -104.39680197109088 8.812673661278936 C-104.52878296722123 8.57832803812445, -104.66076396335157 8.343982414969965, -104.931563208341 7.863150934094201 C-105.05080325051718 7.615546435187191, -105.17004329269335 7.367941936280181, -105.40438959126881 6.881316833080701 C-105.50218212247191 6.63976739031909, -105.599974653675 6.398217947557479, -105.81333817484592 5.87120592516224 C-105.91892005124457 5.553210135637046, -106.0245019276432 5.235214346111851, -106.15672850162323 4.8369689727275516 C-106.24861031976172 4.486583778333604, -106.34049213790021 4.136198583939656, -106.433149507091 3.782855877257349 C-106.4833644246972 3.525012888276085, -106.53357934230341 3.2671698992948213, -106.64146531804565 2.713198215567455 C-106.69002233520983 2.3365995791095746, -106.73857935237403 1.9600009426516942, -106.78081992013637 1.6323914404306026 C-106.80825729178736 1.2050322299186549, -106.83569466343835 0.7776730194067072, -106.8506406754117 0.54487681871814 C-106.8506406754117 0.16981472500232742, -106.8506406754117 -0.20524736871348515, -106.8506406754117 -0.5448768187181317 C-106.83441463392374 -0.7976105123179789, -106.81818859243579 -1.0503442059178258, -106.78081992013637 -1.6323914404305793 C-106.74737159385343 -1.8918100539619194, -106.7139232675705 -2.1512286674932595, -106.64146531804565 -2.713198215567447 C-106.56718502003756 -3.0946118466924695, -106.49290472202946 -3.476025477817492, -106.433149507091 -3.782855877257341 C-106.35885108567163 -4.066187959268955, -106.28455266425226 -4.349520041280568, -106.15672850162323 -4.836968972727544 C-106.0416645341897 -5.183523309683783, -105.92660056675618 -5.530077646640022, -105.81333817484594 -5.871205925162218 C-105.70431045229135 -6.140506507779662, -105.59528272973677 -6.409807090397106, -105.40438959126881 -6.881316833080692 C-105.28841859423848 -7.122133089796006, -105.17244759720815 -7.36294934651132, -104.931563208341 -7.863150934094194 C-104.81413186202094 -8.071662180698707, -104.6967005157009 -8.28017342730322, -104.39680197109088 -8.812673661278929 C-104.17290080006079 -9.156645985863985, -103.94899962903071 -9.500618310449042, -103.80230332814826 -9.725983222076884 C-103.62366618434494 -9.965340720594728, -103.44502904054163 -10.204698219112574, -103.15051020195651 -10.599326631598467 C-102.93899053528622 -10.847789667879386, -102.72747086861592 -11.096252704160307, -102.44410095028037 -11.42911513444238 C-102.17656255992588 -11.705370487793735, -101.9090241695714 -11.98162584114509, -101.68597836025927 -12.21193895166136 C-101.37030606519097 -12.498624177811152, -101.05463377012268 -12.785309403960945, -100.87925772023242 -12.944581292275274 C-100.62693298669203 -13.14580355263058, -100.37460825315164 -13.347025812985889, -100.02725401835067 -13.624031571755259 C-99.75196433884432 -13.816061735080739, -99.47667465933796 -14.008091898406219, -99.13346832057934 -14.247497783161284 C-98.83582865062372 -14.427928700213227, -98.53818898066811 -14.608359617265169, -98.20157338406695 -14.812417970097618 C-97.89504959817177 -14.972331232861276, -97.5885258122766 -15.132244495624933, -97.23539856499849 -15.316470754341124 C-96.89762845584947 -15.4659915620671, -96.55985834670047 -15.615512369793075, -96.23891408294936 -15.757584874882365 C-95.8522437815289 -15.899883120146182, -95.46557348010843 -16.042181365409995, -95.21621470640156 -16.133947699181363 C-94.87146182497355 -16.236268544744394, -94.52670894354554 -16.338589390307423, -94.17150292646164 -16.444012671663494 C-93.90303270847376 -16.505289246987328, -93.63456249048589 -16.566565822311162, -93.10907168792333 -16.68650566884811 C-92.71142505992928 -16.75079409186653, -92.31377843193523 -16.815082514884953, -92.03328674863661 -16.86043023499518 C-91.7802029898617 -16.884844920826446, -91.52711923108681 -16.909259606657706, -90.94856873967213 -16.965071676755716 C-90.71364433201889 -16.972605245256535, -90.47871992436565 -16.980138813757357, -89.859375 -17 C-89.859375 -17, -89.859375 -17, -89.859375 -17" stroke="none" stroke-width="0" fill="#ECECFF" style=""></path><path d="M-89.859375 -17 C-44.76831657651608 -17, 0.322741846967844 -17, 89.859375 -17 M-89.859375 -17 C-30.050897576000906 -17, 29.757579847998187 -17, 89.859375 -17 M89.859375 -17 C89.859375 -17, 89.859375 -17, 89.859375 -17 M89.859375 -17 C89.859375 -17, 89.859375 -17, 89.859375 -17 M89.859375 -17 C90.14901341264776 -16.990711859853356, 90.43865182529551 -16.98142371970671, 90.94856873967211 -16.965071676755716 M89.859375 -17 C90.20564190309764 -16.988895894385298, 90.5519088061953 -16.977791788770595, 90.94856873967211 -16.965071676755716 M90.94856873967211 -16.965071676755716 C91.22381841797277 -16.938518671326225, 91.49906809627342 -16.91196566589673, 92.0332867486366 -16.860430234995185 M90.94856873967211 -16.965071676755716 C91.17246223906052 -16.943472940141046, 91.39635573844895 -16.921874203526375, 92.0332867486366 -16.860430234995185 M92.0332867486366 -16.860430234995185 C92.33106265701271 -16.812288135415596, 92.62883856538883 -16.764146035836003, 93.10907168792333 -16.686505668848113 M92.0332867486366 -16.860430234995185 C92.44903123196507 -16.79321589107726, 92.86477571529353 -16.726001547159335, 93.10907168792333 -16.686505668848113 M93.10907168792333 -16.686505668848113 C93.33466708213459 -16.63501499226692, 93.56026247634584 -16.58352431568573, 94.17150292646163 -16.4440126716635 M93.10907168792333 -16.686505668848113 C93.48658092206887 -16.60034164963237, 93.86409015621442 -16.514177630416626, 94.17150292646163 -16.4440126716635 M94.17150292646163 -16.4440126716635 C94.42776070709836 -16.367956707495058, 94.6840184877351 -16.291900743326615, 95.21621470640156 -16.133947699181366 M94.17150292646163 -16.4440126716635 C94.387588635239 -16.379879567555406, 94.60367434401638 -16.31574646344731, 95.21621470640156 -16.133947699181366 M95.21621470640156 -16.133947699181366 C95.55128379085517 -16.010639178757778, 95.88635287530876 -15.887330658334188, 96.23891408294936 -15.757584874882369 M95.21621470640156 -16.133947699181366 C95.48590110997583 -16.03470060971225, 95.75558751355008 -15.935453520243133, 96.23891408294936 -15.757584874882369 M96.23891408294936 -15.757584874882369 C96.57544611397093 -15.608612127617134, 96.91197814499247 -15.4596393803519, 97.23539856499849 -15.316470754341125 M96.23891408294936 -15.757584874882369 C96.6152209362131 -15.591004993688697, 96.99152778947686 -15.424425112495028, 97.23539856499849 -15.316470754341125 M97.23539856499849 -15.316470754341125 C97.48065954906635 -15.18851825605008, 97.7259205331342 -15.060565757759038, 98.20157338406693 -14.812417970097622 M97.23539856499849 -15.316470754341125 C97.47210655490744 -15.192980347624328, 97.70881454481639 -15.06948994090753, 98.20157338406693 -14.812417970097622 M98.20157338406693 -14.812417970097622 C98.50511823571898 -14.628407297198597, 98.80866308737104 -14.444396624299573, 99.13346832057933 -14.247497783161291 M98.20157338406693 -14.812417970097622 C98.43153953294853 -14.673011139214495, 98.66150568183015 -14.533604308331366, 99.13346832057933 -14.247497783161291 M99.13346832057933 -14.247497783161291 C99.42120240488936 -14.046786941754373, 99.70893648919939 -13.846076100347455, 100.02725401835067 -13.624031571755262 M99.13346832057933 -14.247497783161291 C99.43761480103133 -14.035338364686911, 99.74176128148333 -13.823178946212531, 100.02725401835067 -13.624031571755262 M100.02725401835067 -13.624031571755262 C100.20221802251766 -13.484502434419781, 100.37718202668465 -13.3449732970843, 100.8792577202324 -12.944581292275288 M100.02725401835067 -13.624031571755262 C100.28904155912731 -13.415262974444923, 100.55082909990395 -13.206494377134586, 100.8792577202324 -12.944581292275288 M100.8792577202324 -12.944581292275288 C101.17242196046178 -12.678337285999715, 101.46558620069115 -12.412093279724145, 101.68597836025927 -12.21193895166137 M100.8792577202324 -12.944581292275288 C101.09305261416152 -12.750418426311777, 101.30684750809064 -12.556255560348266, 101.68597836025927 -12.21193895166137 M101.68597836025927 -12.21193895166137 C101.91126563461098 -11.979311344464012, 102.1365529089627 -11.746683737266656, 102.44410095028036 -11.42911513444239 M101.68597836025927 -12.21193895166137 C101.85245877652042 -12.040034253575365, 102.01893919278156 -11.868129555489359, 102.44410095028036 -11.42911513444239 M102.44410095028036 -11.42911513444239 C102.68601887962323 -11.144944569116115, 102.9279368089661 -10.860774003789839, 103.15051020195651 -10.59932663159847 M102.44410095028036 -11.42911513444239 C102.69967313749396 -11.128905500871873, 102.95524532470756 -10.828695867301356, 103.15051020195651 -10.59932663159847 M103.15051020195651 -10.59932663159847 C103.28702676340482 -10.416406876172319, 103.42354332485314 -10.233487120746169, 103.80230332814824 -9.725983222076888 M103.15051020195651 -10.59932663159847 C103.31965585665122 -10.372686863793696, 103.48880151134594 -10.14604709598892, 103.80230332814824 -9.725983222076888 M103.80230332814824 -9.725983222076888 C103.97763421698289 -9.456627893890985, 104.15296510581754 -9.187272565705081, 104.39680197109088 -8.812673661278927 M103.80230332814824 -9.725983222076888 C103.95627226417703 -9.489445589888293, 104.11024120020582 -9.2529079576997, 104.39680197109088 -8.812673661278927 M104.39680197109088 -8.812673661278927 C104.57923676800563 -8.488742205830402, 104.76167156492038 -8.164810750381879, 104.931563208341 -7.863150934094199 M104.39680197109088 -8.812673661278927 C104.55522197074593 -8.531382910126919, 104.71364197040097 -8.25009215897491, 104.931563208341 -7.863150934094199 M104.931563208341 -7.863150934094199 C105.07800279405215 -7.559066001059795, 105.22444237976332 -7.254981068025391, 105.40438959126881 -6.881316833080699 M104.931563208341 -7.863150934094199 C105.11348109984246 -7.4853945399720985, 105.29539899134392 -7.107638145849998, 105.40438959126881 -6.881316833080699 M105.40438959126881 -6.881316833080699 C105.52420129160483 -6.585379616849098, 105.64401299194084 -6.289442400617496, 105.81333817484592 -5.871205925162238 M105.40438959126881 -6.881316833080699 C105.49426481753405 -6.659323286586263, 105.5841400437993 -6.437329740091827, 105.81333817484592 -5.871205925162238 M105.81333817484592 -5.871205925162238 C105.9102856526899 -5.579215568379138, 106.00723313053386 -5.287225211596038, 106.15672850162323 -4.836968972727556 M105.81333817484592 -5.871205925162238 C105.92933301236641 -5.521847955818064, 106.04532784988692 -5.172489986473891, 106.15672850162323 -4.836968972727556 M106.15672850162323 -4.836968972727556 C106.22821016316863 -4.564378416906892, 106.29969182471402 -4.2917878610862275, 106.433149507091 -3.7828558772573464 M106.15672850162323 -4.836968972727556 C106.26659910057901 -4.417984760690378, 106.37646969953478 -3.9990005486532, 106.433149507091 -3.7828558772573464 M106.433149507091 -3.7828558772573464 C106.48778481004202 -3.5023151437792315, 106.54242011299304 -3.2217744103011166, 106.64146531804565 -2.713198215567453 M106.433149507091 -3.7828558772573464 C106.51469376843991 -3.364143329616388, 106.59623802978884 -2.9454307819754293, 106.64146531804565 -2.713198215567453 M106.64146531804565 -2.713198215567453 C106.67637728980051 -2.442427856785309, 106.71128926155538 -2.171657498003164, 106.78081992013637 -1.632391440430593 M106.64146531804565 -2.713198215567453 C106.67428186638166 -2.4586795470337846, 106.70709841471768 -2.2041608785001165, 106.78081992013637 -1.632391440430593 M106.78081992013637 -1.632391440430593 C106.80121002805816 -1.3147990509496397, 106.82160013597998 -0.9972066614686864, 106.8506406754117 -0.5448768187181379 M106.78081992013637 -1.632391440430593 C106.79909839819402 -1.3476893905608116, 106.81737687625166 -1.0629873406910302, 106.8506406754117 -0.5448768187181379 M106.8506406754117 -0.5448768187181379 C106.8506406754117 -0.21977334950871708, 106.8506406754117 0.10533011970070372, 106.8506406754117 0.5448768187181336 M106.8506406754117 -0.5448768187181379 C106.8506406754117 -0.16574628880577058, 106.8506406754117 0.2133842411065967, 106.8506406754117 0.5448768187181336 M106.8506406754117 0.5448768187181336 C106.8287935130157 0.8851640077477883, 106.80694635061971 1.2254511967774429, 106.78081992013637 1.6323914404305815 M106.8506406754117 0.5448768187181336 C106.83390574232696 0.8055369097077534, 106.81717080924223 1.066197000697373, 106.78081992013637 1.6323914404305815 M106.78081992013637 1.6323914404305815 C106.72735725510786 2.047037312994277, 106.67389459007937 2.4616831855579733, 106.64146531804565 2.7131982155674415 M106.78081992013637 1.6323914404305815 C106.72886306158823 2.0353585752877463, 106.67690620304009 2.4383257101449107, 106.64146531804565 2.7131982155674415 M106.64146531804565 2.7131982155674415 C106.56469803373872 3.107381995712238, 106.4879307494318 3.5015657758570353, 106.433149507091 3.782855877257343 M106.64146531804565 2.7131982155674415 C106.582676542655 3.0150661521863737, 106.52388776726434 3.316934088805306, 106.433149507091 3.782855877257343 M106.433149507091 3.782855877257343 C106.32978221460364 4.177040163179633, 106.22641492211626 4.571224449101924, 106.15672850162323 4.836968972727545 M106.433149507091 3.782855877257343 C106.34787016026732 4.1080629869987355, 106.26259081344365 4.433270096740127, 106.15672850162323 4.836968972727545 M106.15672850162323 4.836968972727545 C106.03379896456359 5.207213152189308, 105.91086942750395 5.577457331651069, 105.81333817484592 5.871205925162227 M106.15672850162323 4.836968972727545 C106.0846173404777 5.054156300744633, 106.01250617933218 5.27134362876172, 105.81333817484592 5.871205925162227 M105.81333817484592 5.871205925162227 C105.700592162808 6.149690754691761, 105.58784615077008 6.428175584221295, 105.40438959126881 6.881316833080694 M105.81333817484592 5.871205925162227 C105.6826481529227 6.194012806032278, 105.55195813099947 6.516819686902329, 105.40438959126881 6.881316833080694 M105.40438959126881 6.881316833080694 C105.27211253646047 7.155992967665802, 105.13983548165211 7.43066910225091, 104.931563208341 7.863150934094196 M105.40438959126881 6.881316833080694 C105.22228458192151 7.259461781413351, 105.04017957257423 7.6376067297460075, 104.931563208341 7.863150934094196 M104.931563208341 7.863150934094196 C104.76415605851784 8.160399280417336, 104.59674890869466 8.457647626740476, 104.39680197109088 8.812673661278923 M104.931563208341 7.863150934094196 C104.75553868124429 8.175700306370603, 104.57951415414756 8.48824967864701, 104.39680197109088 8.812673661278923 M104.39680197109088 8.812673661278923 C104.16101442874053 9.174906644149512, 103.92522688639019 9.5371396270201, 103.80230332814826 9.725983222076879 M104.39680197109088 8.812673661278923 C104.17281688060707 9.156774908680418, 103.94883179012326 9.500876156081915, 103.80230332814826 9.725983222076879 M103.80230332814826 9.725983222076879 C103.55613830086314 10.055821932543607, 103.30997327357801 10.385660643010333, 103.15051020195651 10.599326631598467 M103.80230332814826 9.725983222076879 C103.66081681180324 9.915562264292385, 103.51933029545823 10.105141306507889, 103.15051020195651 10.599326631598467 M103.15051020195651 10.599326631598467 C102.89605761602263 10.8982211177987, 102.64160503008877 11.197115603998931, 102.44410095028037 11.42911513444238 M103.15051020195651 10.599326631598467 C102.89577034949905 10.898558557403236, 102.64103049704158 11.197790483208005, 102.44410095028037 11.42911513444238 M102.44410095028037 11.42911513444238 C102.16805583578916 11.714154378879941, 101.89201072129795 11.999193623317504, 101.68597836025927 12.211938951661365 M102.44410095028037 11.42911513444238 C102.2578717401002 11.621412083655917, 102.07164252992001 11.813709032869454, 101.68597836025927 12.211938951661365 M101.68597836025927 12.211938951661365 C101.42451623062492 12.449391939886425, 101.16305410099056 12.686844928111485, 100.87925772023242 12.944581292275275 M101.68597836025927 12.211938951661365 C101.4059824093896 12.466223865954314, 101.1259864585199 12.720508780247263, 100.87925772023242 12.944581292275275 M100.87925772023242 12.944581292275275 C100.61855582136808 13.1524841190507, 100.35785392250374 13.360386945826122, 100.02725401835067 13.62403157175526 M100.87925772023242 12.944581292275275 C100.62102881761278 13.150511970354735, 100.36279991499316 13.356442648434196, 100.02725401835067 13.62403157175526 M100.02725401835067 13.62403157175526 C99.70731294137939 13.847208617024439, 99.38737186440808 14.070385662293617, 99.13346832057934 14.247497783161286 M100.02725401835067 13.62403157175526 C99.7841546399756 13.79360717450724, 99.5410552616005 13.963182777259222, 99.13346832057934 14.247497783161286 M99.13346832057934 14.247497783161286 C98.86680231034521 14.40915228566864, 98.60013630011107 14.570806788175995, 98.20157338406695 14.81241797009762 M99.13346832057934 14.247497783161286 C98.7909963706068 14.455106291823206, 98.44852442063427 14.662714800485128, 98.20157338406695 14.81241797009762 M98.20157338406695 14.81241797009762 C97.839341488838 15.001394117817958, 97.47710959360906 15.190370265538293, 97.23539856499849 15.316470754341124 M98.20157338406695 14.81241797009762 C97.84521624850942 14.998329259460347, 97.48885911295187 15.184240548823071, 97.23539856499849 15.316470754341124 M97.23539856499849 15.316470754341124 C96.90344456520864 15.463416942982553, 96.57149056541878 15.610363131623984, 96.23891408294936 15.757584874882367 M97.23539856499849 15.316470754341124 C96.97005299860028 15.433931365389048, 96.70470743220207 15.551391976436973, 96.23891408294936 15.757584874882367 M96.23891408294936 15.757584874882367 C95.88381269168515 15.888265469388877, 95.52871130042094 16.018946063895385, 95.21621470640156 16.133947699181363 M96.23891408294936 15.757584874882367 C95.89854433315926 15.882844089148602, 95.55817458336917 16.008103303414835, 95.21621470640156 16.133947699181363 M95.21621470640156 16.133947699181363 C94.8913964300689 16.230352058590974, 94.56657815373623 16.326756418000585, 94.17150292646164 16.444012671663497 M95.21621470640156 16.133947699181363 C94.80437386199141 16.256179900005588, 94.39253301758127 16.378412100829816, 94.17150292646164 16.444012671663497 M94.17150292646164 16.444012671663497 C93.78793637040938 16.53155923507673, 93.40436981435711 16.61910579848996, 93.10907168792333 16.68650566884811 M94.17150292646164 16.444012671663497 C93.80026795642021 16.528744631040876, 93.42903298637879 16.61347659041825, 93.10907168792333 16.68650566884811 M93.10907168792333 16.68650566884811 C92.8876198572507 16.722308283446665, 92.66616802657805 16.75811089804522, 92.03328674863661 16.86043023499518 M93.10907168792333 16.68650566884811 C92.82639100112482 16.732207290068224, 92.54371031432632 16.777908911288343, 92.03328674863661 16.86043023499518 M92.03328674863661 16.86043023499518 C91.66793318626947 16.895675453754794, 91.30257962390232 16.930920672514407, 90.94856873967211 16.965071676755716 M92.03328674863661 16.86043023499518 C91.7613508622611 16.886663562903074, 91.4894149758856 16.912896890810966, 90.94856873967211 16.965071676755716 M90.94856873967211 16.965071676755716 C90.61415285618297 16.975795743238184, 90.27973697269383 16.98651980972065, 89.859375 17 M90.94856873967211 16.965071676755716 C90.56251593474475 16.977451638803537, 90.17646312981739 16.98983160085136, 89.859375 17 M89.859375 17 C89.859375 17, 89.859375 17, 89.859375 17 M89.859375 17 C89.859375 17, 89.859375 17, 89.859375 17 M89.859375 17 C31.452655140402968 17, -26.954064719194065 17, -89.859375 17 M89.859375 17 C40.09340393661865 17, -9.6725671267627 17, -89.859375 17 M-89.859375 17 C-90.19249620316484 16.98931745139559, -90.52561740632969 16.978634902791182, -90.94856873967211 16.965071676755716 M-89.859375 17 C-90.24783445735545 16.987542861293075, -90.63629391471089 16.97508572258615, -90.94856873967211 16.965071676755716 M-90.94856873967211 16.965071676755716 C-91.30114221557325 16.931059337567177, -91.65371569147439 16.897046998378634, -92.0332867486366 16.86043023499518 M-90.94856873967211 16.965071676755716 C-91.25858345921702 16.93516492960847, -91.56859817876192 16.90525818246122, -92.0332867486366 16.86043023499518 M-92.0332867486366 16.86043023499518 C-92.3576580190725 16.807988403527876, -92.68202928950842 16.75554657206057, -93.10907168792333 16.68650566884811 M-92.0332867486366 16.86043023499518 C-92.3000303820558 16.817305192971737, -92.56677401547499 16.774180150948297, -93.10907168792333 16.68650566884811 M-93.10907168792333 16.68650566884811 C-93.3774462440692 16.625250927715463, -93.64582080021506 16.563996186582816, -94.17150292646161 16.4440126716635 M-93.10907168792333 16.68650566884811 C-93.49739194080652 16.597874105153988, -93.8857121936897 16.50924254145987, -94.17150292646161 16.4440126716635 M-94.17150292646161 16.4440126716635 C-94.51417454573689 16.342309533782633, -94.85684616501219 16.240606395901764, -95.21621470640154 16.13394769918137 M-94.17150292646161 16.4440126716635 C-94.55830788384571 16.329210990692555, -94.9451128412298 16.214409309721614, -95.21621470640154 16.13394769918137 M-95.21621470640154 16.13394769918137 C-95.4858961443872 16.03470243709476, -95.75557758237287 15.935457175008155, -96.23891408294936 15.757584874882369 M-95.21621470640154 16.13394769918137 C-95.47351273484243 16.03925964627822, -95.73081076328332 15.944571593375073, -96.23891408294936 15.757584874882369 M-96.23891408294936 15.757584874882369 C-96.45572168209056 15.661610582111484, -96.67252928123175 15.565636289340599, -97.23539856499849 15.316470754341127 M-96.23891408294936 15.757584874882369 C-96.6350151051047 15.58224270229355, -97.03111612726003 15.406900529704732, -97.23539856499849 15.316470754341127 M-97.23539856499849 15.316470754341127 C-97.4981488219182 15.179394113605683, -97.76089907883792 15.04231747287024, -98.20157338406693 14.812417970097624 M-97.23539856499849 15.316470754341127 C-97.61549361640719 15.118175409483708, -97.99558866781588 14.91988006462629, -98.20157338406693 14.812417970097624 M-98.20157338406693 14.812417970097624 C-98.39068374544459 14.697778157694652, -98.57979410682223 14.58313834529168, -99.13346832057931 14.247497783161299 M-98.20157338406693 14.812417970097624 C-98.44599719155522 14.664246821604493, -98.69042099904351 14.516075673111363, -99.13346832057931 14.247497783161299 M-99.13346832057931 14.247497783161299 C-99.33224879154557 14.10883713168314, -99.53102926251182 13.970176480204982, -100.02725401835067 13.624031571755264 M-99.13346832057931 14.247497783161299 C-99.33851702407169 14.104464684020328, -99.54356572756407 13.961431584879357, -100.02725401835067 13.624031571755264 M-100.02725401835067 13.624031571755264 C-100.36775848429116 13.352488321372117, -100.70826295023163 13.080945070988973, -100.8792577202324 12.94458129227529 M-100.02725401835067 13.624031571755264 C-100.27005282537444 13.43040598430142, -100.5128516323982 13.236780396847577, -100.8792577202324 12.94458129227529 M-100.8792577202324 12.94458129227529 C-101.17084685285205 12.679767757055796, -101.46243598547171 12.414954221836304, -101.68597836025926 12.211938951661377 M-100.8792577202324 12.94458129227529 C-101.15520066463066 12.69397721122302, -101.43114360902891 12.44337313017075, -101.68597836025926 12.211938951661377 M-101.68597836025926 12.211938951661377 C-101.87141277225878 12.020462696823511, -102.0568471842583 11.828986441985645, -102.44410095028036 11.429115134442386 M-101.68597836025926 12.211938951661377 C-101.9425636717517 11.946993551499585, -102.19914898324413 11.682048151337792, -102.44410095028036 11.429115134442386 M-102.44410095028036 11.429115134442386 C-102.64152018381589 11.197215269258939, -102.83893941735141 10.965315404075493, -103.15051020195651 10.599326631598473 M-102.44410095028036 11.429115134442386 C-102.69420286662475 11.135331192302068, -102.94430478296916 10.841547250161751, -103.15051020195651 10.599326631598473 M-103.15051020195651 10.599326631598473 C-103.31077224070326 10.384590099849907, -103.47103427945001 10.169853568101342, -103.80230332814824 9.72598322207689 M-103.15051020195651 10.599326631598473 C-103.36708390283165 10.309137602695817, -103.5836576037068 10.01894857379316, -103.80230332814824 9.72598322207689 M-103.80230332814824 9.72598322207689 C-104.01377178526008 9.401110884721415, -104.22524024237191 9.07623854736594, -104.39680197109088 8.812673661278936 M-103.80230332814824 9.72598322207689 C-104.02856121506531 9.378390349022618, -104.25481910198238 9.030797475968347, -104.39680197109088 8.812673661278936 M-104.39680197109088 8.812673661278936 C-104.55043836314321 8.539876689818332, -104.70407475519556 8.267079718357728, -104.931563208341 7.863150934094201 M-104.39680197109088 8.812673661278936 C-104.57663805910438 8.49335647663238, -104.7564741471179 8.174039291985824, -104.931563208341 7.863150934094201 M-104.931563208341 7.863150934094201 C-105.10731324053975 7.498202231785219, -105.2830632727385 7.133253529476235, -105.40438959126881 6.881316833080701 M-104.931563208341 7.863150934094201 C-105.09880774741428 7.515864070248667, -105.26605228648755 7.168577206403134, -105.40438959126881 6.881316833080701 M-105.40438959126881 6.881316833080701 C-105.52342957945619 6.587285760776272, -105.64246956764357 6.293254688471843, -105.81333817484592 5.87120592516224 M-105.40438959126881 6.881316833080701 C-105.55951635180577 6.498150735382539, -105.71464311234273 6.114984637684375, -105.81333817484592 5.87120592516224 M-105.81333817484592 5.87120592516224 C-105.90227419025375 5.6033448167836095, -105.99121020566157 5.335483708404979, -106.15672850162323 4.8369689727275516 M-105.81333817484592 5.87120592516224 C-105.91183537498574 5.5745480517387405, -106.01033257512556 5.277890178315241, -106.15672850162323 4.8369689727275516 M-106.15672850162323 4.8369689727275516 C-106.22357191034622 4.582066085150198, -106.29041531906921 4.327163197572845, -106.433149507091 3.782855877257349 M-106.15672850162323 4.8369689727275516 C-106.26604858375237 4.420084119945878, -106.3753686658815 4.003199267164206, -106.433149507091 3.782855877257349 M-106.433149507091 3.782855877257349 C-106.50551316866775 3.411283769126019, -106.5778768302445 3.0397116609946893, -106.64146531804565 2.713198215567455 M-106.433149507091 3.782855877257349 C-106.49492961151655 3.465628098261861, -106.55670971594209 3.1484003192663725, -106.64146531804565 2.713198215567455 M-106.64146531804565 2.713198215567455 C-106.69474939594538 2.2999374295084767, -106.7480334738451 1.8866766434494981, -106.78081992013637 1.6323914404306026 M-106.64146531804565 2.713198215567455 C-106.69129391684164 2.32673744307546, -106.74112251563766 1.9402766705834646, -106.78081992013637 1.6323914404306026 M-106.78081992013637 1.6323914404306026 C-106.8073496076585 1.2191701428952597, -106.83387929518061 0.8059488453599171, -106.8506406754117 0.54487681871814 M-106.78081992013637 1.6323914404306026 C-106.80192576126571 1.3036509285128144, -106.82303160239505 0.9749104165950262, -106.8506406754117 0.54487681871814 M-106.8506406754117 0.54487681871814 C-106.8506406754117 0.17607556624999254, -106.8506406754117 -0.1927256862181549, -106.8506406754117 -0.5448768187181317 M-106.8506406754117 0.54487681871814 C-106.8506406754117 0.16330327594413285, -106.8506406754117 -0.21827026682987427, -106.8506406754117 -0.5448768187181317 M-106.8506406754117 -0.5448768187181317 C-106.82302802336004 -0.9749661629542703, -106.79541537130838 -1.405055507190409, -106.78081992013637 -1.6323914404305793 M-106.8506406754117 -0.5448768187181317 C-106.82829068254314 -0.8929959982353937, -106.80594068967459 -1.2411151777526557, -106.78081992013637 -1.6323914404305793 M-106.78081992013637 -1.6323914404305793 C-106.73113280297535 -2.017754909300377, -106.68144568581432 -2.403118378170175, -106.64146531804565 -2.713198215567447 M-106.78081992013637 -1.6323914404305793 C-106.72692140183486 -2.050417704910737, -106.67302288353336 -2.4684439693908944, -106.64146531804565 -2.713198215567447 M-106.64146531804565 -2.713198215567447 C-106.58806038012098 -2.9874212846729726, -106.53465544219632 -3.2616443537784985, -106.433149507091 -3.782855877257341 M-106.64146531804565 -2.713198215567447 C-106.58729719201342 -2.9913400943054294, -106.5331290659812 -3.269481973043412, -106.433149507091 -3.782855877257341 M-106.433149507091 -3.782855877257341 C-106.33532951338744 -4.155885908702506, -106.23750951968387 -4.528915940147671, -106.15672850162323 -4.836968972727544 M-106.433149507091 -3.782855877257341 C-106.34251611225827 -4.128480292516388, -106.25188271742552 -4.474104707775434, -106.15672850162323 -4.836968972727544 M-106.15672850162323 -4.836968972727544 C-106.04689370748525 -5.167773872873202, -105.93705891334729 -5.49857877301886, -105.81333817484594 -5.871205925162218 M-106.15672850162323 -4.836968972727544 C-106.05458376799238 -5.144612635870507, -105.95243903436153 -5.452256299013469, -105.81333817484594 -5.871205925162218 M-105.81333817484594 -5.871205925162218 C-105.67975519532648 -6.201158467226482, -105.54617221580702 -6.531111009290746, -105.40438959126881 -6.881316833080692 M-105.81333817484594 -5.871205925162218 C-105.68527500364151 -6.1875244339701485, -105.55721183243706 -6.503842942778078, -105.40438959126881 -6.881316833080692 M-105.40438959126881 -6.881316833080692 C-105.21764007552996 -7.269106198311936, -105.03089055979112 -7.656895563543179, -104.931563208341 -7.863150934094194 M-105.40438959126881 -6.881316833080692 C-105.22492045272446 -7.253988339292453, -105.0454513141801 -7.626659845504214, -104.931563208341 -7.863150934094194 M-104.931563208341 -7.863150934094194 C-104.78818820349647 -8.117727773489213, -104.64481319865193 -8.372304612884232, -104.39680197109088 -8.812673661278929 M-104.931563208341 -7.863150934094194 C-104.74861795012691 -8.187988765269498, -104.56567269191284 -8.512826596444802, -104.39680197109088 -8.812673661278929 M-104.39680197109088 -8.812673661278929 C-104.27045502407445 -9.006776500801934, -104.14410807705802 -9.20087934032494, -103.80230332814826 -9.725983222076884 M-104.39680197109088 -8.812673661278929 C-104.27481518729596 -9.000078119225943, -104.15282840350103 -9.187482577172958, -103.80230332814826 -9.725983222076884 M-103.80230332814826 -9.725983222076884 C-103.65411053126452 -9.92454806925955, -103.50591773438079 -10.123112916442219, -103.15051020195651 -10.599326631598467 M-103.80230332814826 -9.725983222076884 C-103.5532669627497 -10.059669264031328, -103.30423059735115 -10.393355305985772, -103.15051020195651 -10.599326631598467 M-103.15051020195651 -10.599326631598467 C-103.00050094914403 -10.775536035720297, -102.85049169633156 -10.951745439842124, -102.44410095028037 -11.42911513444238 M-103.15051020195651 -10.599326631598467 C-102.99592626674709 -10.780909717970538, -102.84134233153769 -10.962492804342608, -102.44410095028037 -11.42911513444238 M-102.44410095028037 -11.42911513444238 C-102.14151263386229 -11.741562414106843, -101.8389243174442 -12.054009693771306, -101.68597836025927 -12.21193895166136 M-102.44410095028037 -11.42911513444238 C-102.25838297468647 -11.620884191972452, -102.07266499909255 -11.812653249502523, -101.68597836025927 -12.21193895166136 M-101.68597836025927 -12.21193895166136 C-101.45362364413633 -12.422957357075322, -101.22126892801337 -12.633975762489285, -100.87925772023242 -12.944581292275274 M-101.68597836025927 -12.21193895166136 C-101.5158282083546 -12.366464817694851, -101.34567805644996 -12.520990683728343, -100.87925772023242 -12.944581292275274 M-100.87925772023242 -12.944581292275274 C-100.64413488969404 -13.13208549274833, -100.40901205915569 -13.319589693221385, -100.02725401835067 -13.624031571755259 M-100.87925772023242 -12.944581292275274 C-100.65612565925476 -13.122523173111446, -100.4329935982771 -13.300465053947619, -100.02725401835067 -13.624031571755259 M-100.02725401835067 -13.624031571755259 C-99.73491571825447 -13.82795411478133, -99.44257741815825 -14.031876657807402, -99.13346832057934 -14.247497783161284 M-100.02725401835067 -13.624031571755259 C-99.80226725463152 -13.780972598605713, -99.57728049091237 -13.937913625456167, -99.13346832057934 -14.247497783161284 M-99.13346832057934 -14.247497783161284 C-98.89467169247818 -14.392257702440954, -98.65587506437704 -14.537017621720626, -98.20157338406695 -14.812417970097618 M-99.13346832057934 -14.247497783161284 C-98.77411727654467 -14.465338497836239, -98.41476623251 -14.683179212511195, -98.20157338406695 -14.812417970097618 M-98.20157338406695 -14.812417970097618 C-97.94149123827295 -14.948102658967784, -97.68140909247894 -15.08378734783795, -97.23539856499849 -15.316470754341124 M-98.20157338406695 -14.812417970097618 C-97.8650631830919 -14.987975126401226, -97.52855298211686 -15.163532282704834, -97.23539856499849 -15.316470754341124 M-97.23539856499849 -15.316470754341124 C-96.93414373384353 -15.449827331686373, -96.63288890268855 -15.583183909031622, -96.23891408294936 -15.757584874882365 M-97.23539856499849 -15.316470754341124 C-96.84524156036977 -15.489181686693925, -96.45508455574105 -15.661892619046728, -96.23891408294936 -15.757584874882365 M-96.23891408294936 -15.757584874882365 C-95.94056779037568 -15.867379068432378, -95.642221497802 -15.97717326198239, -95.21621470640156 -16.133947699181363 M-96.23891408294936 -15.757584874882365 C-96.02707499906326 -15.835543615971476, -95.81523591517717 -15.913502357060585, -95.21621470640156 -16.133947699181363 M-95.21621470640156 -16.133947699181363 C-95.00002709410099 -16.19811104772024, -94.78383948180043 -16.262274396259112, -94.17150292646164 -16.444012671663494 M-95.21621470640156 -16.133947699181363 C-95.0053164553386 -16.19654119306934, -94.79441820427563 -16.259134686957317, -94.17150292646164 -16.444012671663494 M-94.17150292646164 -16.444012671663494 C-93.93467919665737 -16.498066142572053, -93.69785546685311 -16.552119613480613, -93.10907168792333 -16.68650566884811 M-94.17150292646164 -16.444012671663494 C-93.83486207038727 -16.520848750275583, -93.49822121431292 -16.59768482888767, -93.10907168792333 -16.68650566884811 M-93.10907168792333 -16.68650566884811 C-92.81218978962681 -16.734503231811182, -92.51530789133031 -16.782500794774258, -92.03328674863661 -16.86043023499518 M-93.10907168792333 -16.68650566884811 C-92.69413134894393 -16.753590004943913, -92.2791910099645 -16.820674341039716, -92.03328674863661 -16.86043023499518 M-92.03328674863661 -16.86043023499518 C-91.65850569528877 -16.896584912471486, -91.2837246419409 -16.932739589947793, -90.94856873967213 -16.965071676755716 M-92.03328674863661 -16.86043023499518 C-91.64707049536572 -16.897688052455223, -91.26085424209484 -16.934945869915264, -90.94856873967213 -16.965071676755716 M-90.94856873967213 -16.965071676755716 C-90.52635305303747 -16.978611312033113, -90.10413736640281 -16.992150947310506, -89.859375 -17 M-90.94856873967213 -16.965071676755716 C-90.70473057153798 -16.972891092205575, -90.46089240340383 -16.980710507655438, -89.859375 -17 M-89.859375 -17 C-89.859375 -17, -89.859375 -17, -89.859375 -17 M-89.859375 -17 C-89.859375 -17, -89.859375 -17, -89.859375 -17" stroke="#9370DB" stroke-width="1.3" fill="none" stroke-dasharray="0 0" style=""></path></g><g class="label" style="" transform="translate(0, -9.5)"><rect></rect><g><rect class="background" style="stroke: none"></rect><text y="-10.1" style=""><tspan class="text-outer-tspan row" x="0" y="-0.1em" dy="1.1em"><tspan font-style="normal" class="text-inner-tspan" font-weight="normal">Index-Only</tspan><tspan font-style="normal" class="text-inner-tspan" font-weight="normal"> Scan</tspan><tspan font-style="normal" class="text-inner-tspan" font-weight="normal"> candidate</tspan></tspan></text></g></g></g><g class="node default" id="g3bf6d418-9c47-41e0-ac92-25241efcac4e-light-flowchart-Q1-1" data-look="classic" transform="translate(261.3828125, 189.4796905517578)"><polygon points="97.47968673706055,0 194.9593734741211,-97.47968673706055 97.47968673706055,-194.9593734741211 0,-97.47968673706055" class="label-container" transform="translate(-96.97968673706055, 97.47968673706055)"></polygon><g class="label" style="" transform="translate(0, -18.299999237060547)"><rect></rect><g><rect class="background" style="stroke: none"></rect><text y="-10.1" style=""><tspan class="text-outer-tspan row" x="0" y="-0.1em" dy="1.1em"><tspan font-style="normal" class="text-inner-tspan" font-weight="normal">Query</tspan><tspan font-style="normal" class="text-inner-tspan" font-weight="normal"> columns</tspan><tspan font-style="normal" class="text-inner-tspan" font-weight="normal"> all</tspan></tspan><tspan class="text-outer-tspan row" x="0" y="1em" dy="1.1em"><tspan font-style="normal" class="text-inner-tspan" font-weight="normal">covered</tspan><tspan font-style="normal" class="text-inner-tspan" font-weight="normal"> by</tspan><tspan font-style="normal" class="text-inner-tspan" font-weight="normal"> index?</tspan></tspan></text></g></g></g><g class="node default" id="g3bf6d418-9c47-41e0-ac92-25241efcac4e-light-flowchart-Q2-2" data-look="classic" transform="translate(359.40234375, 474.59532165527344)"><polygon points="114.63593673706055,0 229.2718734741211,-114.63593673706055 114.63593673706055,-229.2718734741211 0,-114.63593673706055" class="label-container" transform="translate(-114.13593673706055, 114.63593673706055)"></polygon><g class="label" style="" transform="translate(0, -18.299999237060547)"><rect></rect><g><rect class="background" style="stroke: none"></rect><text y="-10.1" style=""><tspan class="text-outer-tspan row" x="0" y="-0.1em" dy="1.1em"><tspan font-style="normal" class="text-inner-tspan" font-weight="normal">AM</tspan><tspan font-style="normal" class="text-inner-tspan" font-weight="normal"> supports</tspan><tspan font-style="normal" class="text-inner-tspan" font-weight="normal"> IOS?</tspan></tspan><tspan class="text-outer-tspan row" x="0" y="1em" dy="1.1em"><tspan font-style="normal" class="text-inner-tspan" font-weight="normal">(B-tree,</tspan><tspan font-style="normal" class="text-inner-tspan" font-weight="normal"> GiST,</tspan><tspan font-style="normal" class="text-inner-tspan" font-weight="normal"> SP-GiST)</tspan></tspan></text></g></g></g><g class="node default" id="g3bf6d418-9c47-41e0-ac92-25241efcac4e-light-flowchart-Walk-3" data-look="classic" transform="translate(401.5625, 695.5312614440918)"><rect class="basic label-container" style="" x="-117.15625" y="-33.29999923706055" width="234.3125" height="66.5999984741211"></rect><g class="label" style="" transform="translate(0, -18.299999237060547)"><rect></rect><g><rect class="background" style="stroke: none"></rect><text y="-10.1" style=""><tspan class="text-outer-tspan row" x="0" y="-0.1em" dy="1.1em"><tspan font-style="normal" class="text-inner-tspan" font-weight="normal">Walk</tspan><tspan font-style="normal" class="text-inner-tspan" font-weight="normal"> B-tree</tspan><tspan font-style="normal" class="text-inner-tspan" font-weight="normal"> to</tspan><tspan font-style="normal" class="text-inner-tspan" font-weight="normal"> matching</tspan></tspan><tspan class="text-outer-tspan row" x="0" y="1em" dy="1.1em"><tspan font-style="normal" class="text-inner-tspan" font-weight="normal">index</tspan><tspan font-style="normal" class="text-inner-tspan" font-weight="normal"> tuples</tspan></tspan></text></g></g></g><g class="node default" id="g3bf6d418-9c47-41e0-ac92-25241efcac4e-light-flowchart-VM-4" data-look="classic" transform="translate(401.5625, 884.8687591552734)"><polygon points="106.0374984741211,0 212.0749969482422,-106.0374984741211 106.0374984741211,-212.0749969482422 0,-106.0374984741211" class="label-container" transform="translate(-105.5374984741211, 106.0374984741211)"></polygon><g class="label" style="" transform="translate(0, -27.099998474121094)"><rect></rect><g><rect class="background" style="stroke: none"></rect><text y="-10.1" style=""><tspan class="text-outer-tspan row" x="0" y="-0.1em" dy="1.1em"><tspan font-style="normal" class="text-inner-tspan" font-weight="normal">Visibility-map</tspan><tspan font-style="normal" class="text-inner-tspan" font-weight="normal"> bit</tspan></tspan><tspan class="text-outer-tspan row" x="0" y="1em" dy="1.1em"><tspan font-style="normal" class="text-inner-tspan" font-weight="normal">for</tspan><tspan font-style="normal" class="text-inner-tspan" font-weight="normal"> the</tspan><tspan font-style="normal" class="text-inner-tspan" font-weight="normal"> heap</tspan><tspan font-style="normal" class="text-inner-tspan" font-weight="normal"> page</tspan></tspan><tspan class="text-outer-tspan row" x="0" y="2.1em" dy="1.1em"><tspan font-style="normal" class="text-inner-tspan" font-weight="normal">=</tspan><tspan font-style="normal" class="text-inner-tspan" font-weight="normal"> all-visible?</tspan></tspan></text></g></g></g><g class="node default" id="g3bf6d418-9c47-41e0-ac92-25241efcac4e-light-flowchart-ReturnFromIdx-5" data-look="classic" transform="translate(255.45703125, 1097.206256866455)"><rect class="basic label-container" style="" x="-124.4453125" y="-33.29999923706055" width="248.890625" height="66.5999984741211"></rect><g class="label" style="" transform="translate(0, -18.299999237060547)"><rect></rect><g><rect class="background" style="stroke: none"></rect><text y="-10.1" style=""><tspan class="text-outer-tspan row" x="0" y="-0.1em" dy="1.1em"><tspan font-style="normal" class="text-inner-tspan" font-weight="normal">Return</tspan><tspan font-style="normal" class="text-inner-tspan" font-weight="normal"> tuple</tspan><tspan font-style="normal" class="text-inner-tspan" font-weight="normal"> from</tspan><tspan font-style="normal" class="text-inner-tspan" font-weight="normal"> index</tspan><tspan font-style="normal" class="text-inner-tspan" font-weight="normal"> —</tspan></tspan><tspan class="text-outer-tspan row" x="0" y="1em" dy="1.1em"><tspan font-style="normal" class="text-inner-tspan" font-weight="normal">no</tspan><tspan font-style="normal" class="text-inner-tspan" font-weight="normal"> heap</tspan><tspan font-style="normal" class="text-inner-tspan" font-weight="normal"> touch</tspan></tspan></text></g></g></g><g class="node default" id="g3bf6d418-9c47-41e0-ac92-25241efcac4e-light-flowchart-HeapVisit-6" data-look="classic" transform="translate(547.66796875, 1097.206256866455)"><rect class="basic label-container" style="" x="-117.765625" y="-33.29999923706055" width="235.53125" height="66.5999984741211"></rect><g class="label" style="" transform="translate(0, -18.299999237060547)"><rect></rect><g><rect class="background" style="stroke: none"></rect><text y="-10.1" style=""><tspan class="text-outer-tspan row" x="0" y="-0.1em" dy="1.1em"><tspan font-style="normal" class="text-inner-tspan" font-weight="normal">Visit</tspan><tspan font-style="normal" class="text-inner-tspan" font-weight="normal"> heap</tspan><tspan font-style="normal" class="text-inner-tspan" font-weight="normal"> page</tspan><tspan font-style="normal" class="text-inner-tspan" font-weight="normal"> to</tspan><tspan font-style="normal" class="text-inner-tspan" font-weight="normal"> check</tspan></tspan><tspan class="text-outer-tspan row" x="0" y="1em" dy="1.1em"><tspan font-style="normal" class="text-inner-tspan" font-weight="normal">tuple</tspan><tspan font-style="normal" class="text-inner-tspan" font-weight="normal"> visibility</tspan></tspan></text></g></g></g><g class="node default" id="g3bf6d418-9c47-41e0-ac92-25241efcac4e-light-flowchart-ReturnFromHeap-7" data-look="classic" transform="translate(547.66796875, 1205.0062561035156)"><rect class="basic label-container" style="" x="-107.8125" y="-24.5" width="215.625" height="49"></rect><g class="label" style="" transform="translate(0, -9.5)"><rect></rect><g><rect class="background" style="stroke: none"></rect><text y="-10.1" style=""><tspan class="text-outer-tspan row" x="0" y="-0.1em" dy="1.1em"><tspan font-style="normal" class="text-inner-tspan" font-weight="normal">Return</tspan><tspan font-style="normal" class="text-inner-tspan" font-weight="normal"> tuple</tspan><tspan font-style="normal" class="text-inner-tspan" font-weight="normal"> if</tspan><tspan font-style="normal" class="text-inner-tspan" font-weight="normal"> visible</tspan></tspan></text></g></g></g><g class="node default" id="g3bf6d418-9c47-41e0-ac92-25241efcac4e-light-flowchart-NotIOS-8" data-look="classic" transform="translate(121.203125, 695.5312614440918)"><rect class="basic label-container" style="" x="-113.203125" y="-33.29999923706055" width="226.40625" height="66.5999984741211"></rect><g class="label" style="" transform="translate(0, -18.299999237060547)"><rect></rect><g><rect class="background" style="stroke: none"></rect><text y="-10.1" style=""><tspan class="text-outer-tspan row" x="0" y="-0.1em" dy="1.1em"><tspan font-style="normal" class="text-inner-tspan" font-weight="normal">Plain</tspan><tspan font-style="normal" class="text-inner-tspan" font-weight="normal"> Index</tspan><tspan font-style="normal" class="text-inner-tspan" font-weight="normal"> Scan</tspan><tspan font-style="normal" class="text-inner-tspan" font-weight="normal"> or</tspan><tspan font-style="normal" class="text-inner-tspan" font-weight="normal"> Seq</tspan></tspan><tspan class="text-outer-tspan row" x="0" y="1em" dy="1.1em"><tspan font-style="normal" class="text-inner-tspan" font-weight="normal">Scan</tspan></tspan></text></g></g></g></g></g></g><defs><filter id="g3bf6d418-9c47-41e0-ac92-25241efcac4e-light-drop-shadow" height="130%" width="130%"><feDropShadow dx="4" dy="4" stdDeviation="0" flood-opacity="0.06" flood-color="#000000"></feDropShadow></filter></defs><defs><filter id="g3bf6d418-9c47-41e0-ac92-25241efcac4e-light-drop-shadow-small" height="150%" width="150%"><feDropShadow dx="2" dy="2" stdDeviation="0" flood-opacity="0.06" flood-color="#000000"></feDropShadow></filter></defs></svg>