<svg id="g6ff065f8-b5ee-4bec-a05e-328913cdfaa9-dark" width="100%" xmlns="http://www.w3.org/2000/svg" xmlns:xlink="http://www.w3.org/1999/xlink" class="flowchart" style="max-width: 1091.257080078125px;" viewBox="0 0 1091.257080078125 1270.8280029296875" role="graphics-document document" aria-roledescription="flowchart-v2"><style>#g6ff065f8-b5ee-4bec-a05e-328913cdfaa9-dark{font-family:"trebuchet ms",verdana,arial,sans-serif;font-size:16px;fill:#e5e5e5;}@keyframes edge-animation-frame{from{stroke-dashoffset:0;}}@keyframes dash{to{stroke-dashoffset:0;}}#g6ff065f8-b5ee-4bec-a05e-328913cdfaa9-dark .edge-animation-slow{stroke-dasharray:9,5!important;stroke-dashoffset:900;animation:dash 50s linear infinite;stroke-linecap:round;}#g6ff065f8-b5ee-4bec-a05e-328913cdfaa9-dark .edge-animation-fast{stroke-dasharray:9,5!important;stroke-dashoffset:900;animation:dash 20s linear infinite;stroke-linecap:round;}#g6ff065f8-b5ee-4bec-a05e-328913cdfaa9-dark .error-icon{fill:#252525;}#g6ff065f8-b5ee-4bec-a05e-328913cdfaa9-dark .error-text{fill:#cccccc;stroke:#cccccc;}#g6ff065f8-b5ee-4bec-a05e-328913cdfaa9-dark .edge-thickness-normal{stroke-width:1px;}#g6ff065f8-b5ee-4bec-a05e-328913cdfaa9-dark .edge-thickness-thick{stroke-width:3.5px;}#g6ff065f8-b5ee-4bec-a05e-328913cdfaa9-dark .edge-pattern-solid{stroke-dasharray:0;}#g6ff065f8-b5ee-4bec-a05e-328913cdfaa9-dark .edge-thickness-invisible{stroke-width:0;fill:none;}#g6ff065f8-b5ee-4bec-a05e-328913cdfaa9-dark .edge-pattern-dashed{stroke-dasharray:3;}#g6ff065f8-b5ee-4bec-a05e-328913cdfaa9-dark .edge-pattern-dotted{stroke-dasharray:2;}#g6ff065f8-b5ee-4bec-a05e-328913cdfaa9-dark .marker{fill:#cccccc;stroke:#cccccc;}#g6ff065f8-b5ee-4bec-a05e-328913cdfaa9-dark .marker.cross{stroke:#cccccc;}#g6ff065f8-b5ee-4bec-a05e-328913cdfaa9-dark svg{font-family:"trebuchet ms",verdana,arial,sans-serif;font-size:16px;}#g6ff065f8-b5ee-4bec-a05e-328913cdfaa9-dark p{margin:0;}#g6ff065f8-b5ee-4bec-a05e-328913cdfaa9-dark .label{font-family:"trebuchet ms",verdana,arial,sans-serif;color:#e5e5e5;}#g6ff065f8-b5ee-4bec-a05e-328913cdfaa9-dark .cluster-label text{fill:#e5e5e5;}#g6ff065f8-b5ee-4bec-a05e-328913cdfaa9-dark .cluster-label span{color:#e5e5e5;}#g6ff065f8-b5ee-4bec-a05e-328913cdfaa9-dark .cluster-label span p{background-color:transparent;}#g6ff065f8-b5ee-4bec-a05e-328913cdfaa9-dark .label text,#g6ff065f8-b5ee-4bec-a05e-328913cdfaa9-dark span{fill:#e5e5e5;color:#e5e5e5;}#g6ff065f8-b5ee-4bec-a05e-328913cdfaa9-dark .node rect,#g6ff065f8-b5ee-4bec-a05e-328913cdfaa9-dark .node circle,#g6ff065f8-b5ee-4bec-a05e-328913cdfaa9-dark .node ellipse,#g6ff065f8-b5ee-4bec-a05e-328913cdfaa9-dark .node polygon,#g6ff065f8-b5ee-4bec-a05e-328913cdfaa9-dark .node path{fill:#2d2d2d;stroke:#555555;stroke-width:1px;}#g6ff065f8-b5ee-4bec-a05e-328913cdfaa9-dark .rough-node .label text,#g6ff065f8-b5ee-4bec-a05e-328913cdfaa9-dark .node .label text,#g6ff065f8-b5ee-4bec-a05e-328913cdfaa9-dark .image-shape .label,#g6ff065f8-b5ee-4bec-a05e-328913cdfaa9-dark .icon-shape .label{text-anchor:middle;}#g6ff065f8-b5ee-4bec-a05e-328913cdfaa9-dark .node .katex path{fill:#000;stroke:#000;stroke-width:1px;}#g6ff065f8-b5ee-4bec-a05e-328913cdfaa9-dark .rough-node .label,#g6ff065f8-b5ee-4bec-a05e-328913cdfaa9-dark .node .label,#g6ff065f8-b5ee-4bec-a05e-328913cdfaa9-dark .image-shape .label,#g6ff065f8-b5ee-4bec-a05e-328913cdfaa9-dark .icon-shape .label{text-align:center;}#g6ff065f8-b5ee-4bec-a05e-328913cdfaa9-dark .node.clickable{cursor:pointer;}#g6ff065f8-b5ee-4bec-a05e-328913cdfaa9-dark .root .anchor path{fill:#cccccc!important;stroke-width:0;stroke:#cccccc;}#g6ff065f8-b5ee-4bec-a05e-328913cdfaa9-dark .arrowheadPath{fill:#cccccc;}#g6ff065f8-b5ee-4bec-a05e-328913cdfaa9-dark .edgePath .path{stroke:#cccccc;stroke-width:1px;}#g6ff065f8-b5ee-4bec-a05e-328913cdfaa9-dark .flowchart-link{stroke:#cccccc;fill:none;}#g6ff065f8-b5ee-4bec-a05e-328913cdfaa9-dark .edgeLabel{background-color:#1e1e1e;text-align:center;}#g6ff065f8-b5ee-4bec-a05e-328913cdfaa9-dark .edgeLabel p{background-color:#1e1e1e;}#g6ff065f8-b5ee-4bec-a05e-328913cdfaa9-dark .edgeLabel rect{opacity:0.5;background-color:#1e1e1e;fill:#1e1e1e;}#g6ff065f8-b5ee-4bec-a05e-328913cdfaa9-dark .labelBkg{background-color:rgba(30, 30, 30, 0.5);}#g6ff065f8-b5ee-4bec-a05e-328913cdfaa9-dark .cluster rect{fill:#1e1e1e;stroke:#555555;stroke-width:1px;}#g6ff065f8-b5ee-4bec-a05e-328913cdfaa9-dark .cluster text{fill:#e5e5e5;}#g6ff065f8-b5ee-4bec-a05e-328913cdfaa9-dark .cluster span{color:#e5e5e5;}#g6ff065f8-b5ee-4bec-a05e-328913cdfaa9-dark div.mermaidTooltip{position:absolute;text-align:center;max-width:200px;padding:2px;font-family:"trebuchet ms",verdana,arial,sans-serif;font-size:12px;background:#252525;border:1px solid #555555;border-radius:2px;pointer-events:none;z-index:100;}#g6ff065f8-b5ee-4bec-a05e-328913cdfaa9-dark .flowchartTitleText{text-anchor:middle;font-size:18px;fill:#e5e5e5;}#g6ff065f8-b5ee-4bec-a05e-328913cdfaa9-dark rect.text{fill:none;stroke-width:0;}#g6ff065f8-b5ee-4bec-a05e-328913cdfaa9-dark .icon-shape,#g6ff065f8-b5ee-4bec-a05e-328913cdfaa9-dark .image-shape{background-color:#1e1e1e;text-align:center;}#g6ff065f8-b5ee-4bec-a05e-328913cdfaa9-dark .icon-shape p,#g6ff065f8-b5ee-4bec-a05e-328913cdfaa9-dark .image-shape p{background-color:#1e1e1e;padding:2px;}#g6ff065f8-b5ee-4bec-a05e-328913cdfaa9-dark .icon-shape .label rect,#g6ff065f8-b5ee-4bec-a05e-328913cdfaa9-dark .image-shape .label rect{opacity:0.5;background-color:#1e1e1e;fill:#1e1e1e;}#g6ff065f8-b5ee-4bec-a05e-328913cdfaa9-dark .label-icon{display:inline-block;height:1em;overflow:visible;vertical-align:-0.125em;}#g6ff065f8-b5ee-4bec-a05e-328913cdfaa9-dark .node .label-icon path{fill:currentColor;stroke:revert;stroke-width:revert;}#g6ff065f8-b5ee-4bec-a05e-328913cdfaa9-dark .node .neo-node{stroke:#555555;}#g6ff065f8-b5ee-4bec-a05e-328913cdfaa9-dark [data-look="neo"].node rect,#g6ff065f8-b5ee-4bec-a05e-328913cdfaa9-dark [data-look="neo"].cluster rect,#g6ff065f8-b5ee-4bec-a05e-328913cdfaa9-dark [data-look="neo"].node polygon{stroke:url(#g6ff065f8-b5ee-4bec-a05e-328913cdfaa9-dark-gradient);filter:drop-shadow( 1px 2px 2px rgba(185,185,185,1));}#g6ff065f8-b5ee-4bec-a05e-328913cdfaa9-dark [data-look="neo"].node path{stroke:url(#g6ff065f8-b5ee-4bec-a05e-328913cdfaa9-dark-gradient);stroke-width:1px;}#g6ff065f8-b5ee-4bec-a05e-328913cdfaa9-dark [data-look="neo"].node .outer-path{filter:drop-shadow( 1px 2px 2px rgba(185,185,185,1));}#g6ff065f8-b5ee-4bec-a05e-328913cdfaa9-dark [data-look="neo"].node .neo-line path{stroke:#555555;filter:none;}#g6ff065f8-b5ee-4bec-a05e-328913cdfaa9-dark [data-look="neo"].node circle{stroke:url(#g6ff065f8-b5ee-4bec-a05e-328913cdfaa9-dark-gradient);filter:drop-shadow( 1px 2px 2px rgba(185,185,185,1));}#g6ff065f8-b5ee-4bec-a05e-328913cdfaa9-dark [data-look="neo"].node circle .state-start{fill:#000000;}#g6ff065f8-b5ee-4bec-a05e-328913cdfaa9-dark [data-look="neo"].icon-shape .icon{fill:url(#g6ff065f8-b5ee-4bec-a05e-328913cdfaa9-dark-gradient);filter:drop-shadow( 1px 2px 2px rgba(185,185,185,1));}#g6ff065f8-b5ee-4bec-a05e-328913cdfaa9-dark [data-look="neo"].icon-shape .icon-neo path{stroke:url(#g6ff065f8-b5ee-4bec-a05e-328913cdfaa9-dark-gradient);filter:drop-shadow( 1px 2px 2px rgba(185,185,185,1));}#g6ff065f8-b5ee-4bec-a05e-328913cdfaa9-dark :root{--mermaid-font-family:"trebuchet ms",verdana,arial,sans-serif;}</style><g><marker id="g6ff065f8-b5ee-4bec-a05e-328913cdfaa9-dark_flowchart-v2-pointEnd" class="marker flowchart-v2" viewBox="0 0 10 10" refX="5" refY="5" markerUnits="userSpaceOnUse" markerWidth="8" markerHeight="8" orient="auto"><path d="M 0 0 L 10 5 L 0 10 z" class="arrowMarkerPath" style="stroke-width: 1; stroke-dasharray: 1, 0;"></path></marker><marker id="g6ff065f8-b5ee-4bec-a05e-328913cdfaa9-dark_flowchart-v2-pointStart" class="marker flowchart-v2" viewBox="0 0 10 10" refX="4.5" refY="5" markerUnits="userSpaceOnUse" markerWidth="8" markerHeight="8" orient="auto"><path d="M 0 5 L 10 10 L 10 0 z" class="arrowMarkerPath" style="stroke-width: 1; stroke-dasharray: 1, 0;"></path></marker><marker id="g6ff065f8-b5ee-4bec-a05e-328913cdfaa9-dark_flowchart-v2-pointEnd-margin" class="marker flowchart-v2" viewBox="0 0 11.5 14" refX="11.5" refY="7" markerUnits="userSpaceOnUse" markerWidth="10.5" markerHeight="14" orient="auto"><path d="M 0 0 L 11.5 7 L 0 14 z" class="arrowMarkerPath" style="stroke-width: 0; stroke-dasharray: 1, 0;"></path></marker><marker id="g6ff065f8-b5ee-4bec-a05e-328913cdfaa9-dark_flowchart-v2-pointStart-margin" class="marker flowchart-v2" viewBox="0 0 11.5 14" refX="1" refY="7" markerUnits="userSpaceOnUse" markerWidth="11.5" markerHeight="14" orient="auto"><polygon points="0,7 11.5,14 11.5,0" class="arrowMarkerPath" style="stroke-width: 0; stroke-dasharray: 1, 0;"></polygon></marker><marker id="g6ff065f8-b5ee-4bec-a05e-328913cdfaa9-dark_flowchart-v2-circleEnd" class="marker flowchart-v2" viewBox="0 0 10 10" refX="11" refY="5" markerUnits="userSpaceOnUse" markerWidth="11" markerHeight="11" orient="auto"><circle cx="5" cy="5" r="5" class="arrowMarkerPath" style="stroke-width: 1; stroke-dasharray: 1, 0;"></circle></marker><marker id="g6ff065f8-b5ee-4bec-a05e-328913cdfaa9-dark_flowchart-v2-circleStart" class="marker flowchart-v2" viewBox="0 0 10 10" refX="-1" refY="5" markerUnits="userSpaceOnUse" markerWidth="11" markerHeight="11" orient="auto"><circle cx="5" cy="5" r="5" class="arrowMarkerPath" style="stroke-width: 1; stroke-dasharray: 1, 0;"></circle></marker><marker id="g6ff065f8-b5ee-4bec-a05e-328913cdfaa9-dark_flowchart-v2-circleEnd-margin" class="marker flowchart-v2" viewBox="0 0 10 10" refY="5" refX="12.25" markerUnits="userSpaceOnUse" markerWidth="14" markerHeight="14" orient="auto"><circle cx="5" cy="5" r="5" class="arrowMarkerPath" style="stroke-width: 0; stroke-dasharray: 1, 0;"></circle></marker><marker id="g6ff065f8-b5ee-4bec-a05e-328913cdfaa9-dark_flowchart-v2-circleStart-margin" class="marker flowchart-v2" viewBox="0 0 10 10" refX="-2" refY="5" markerUnits="userSpaceOnUse" markerWidth="14" markerHeight="14" orient="auto"><circle cx="5" cy="5" r="5" class="arrowMarkerPath" style="stroke-width: 0; stroke-dasharray: 1, 0;"></circle></marker><marker id="g6ff065f8-b5ee-4bec-a05e-328913cdfaa9-dark_flowchart-v2-crossEnd" class="marker cross flowchart-v2" viewBox="0 0 11 11" refX="12" refY="5.2" markerUnits="userSpaceOnUse" markerWidth="11" markerHeight="11" orient="auto"><path d="M 1,1 l 9,9 M 10,1 l -9,9" class="arrowMarkerPath" style="stroke-width: 2; stroke-dasharray: 1, 0;"></path></marker><marker id="g6ff065f8-b5ee-4bec-a05e-328913cdfaa9-dark_flowchart-v2-crossStart" class="marker cross flowchart-v2" viewBox="0 0 11 11" refX="-1" refY="5.2" markerUnits="userSpaceOnUse" markerWidth="11" markerHeight="11" orient="auto"><path d="M 1,1 l 9,9 M 10,1 l -9,9" class="arrowMarkerPath" style="stroke-width: 2; stroke-dasharray: 1, 0;"></path></marker><marker id="g6ff065f8-b5ee-4bec-a05e-328913cdfaa9-dark_flowchart-v2-crossEnd-margin" class="marker cross flowchart-v2" viewBox="0 0 15 15" refX="17.7" refY="7.5" markerUnits="userSpaceOnUse" markerWidth="12" markerHeight="12" orient="auto"><path d="M 1,1 L 14,14 M 1,14 L 14,1" class="arrowMarkerPath" style="stroke-width: 2.5;"></path></marker><marker id="g6ff065f8-b5ee-4bec-a05e-328913cdfaa9-dark_flowchart-v2-crossStart-margin" class="marker cross flowchart-v2" viewBox="0 0 15 15" refX="-3.5" refY="7.5" markerUnits="userSpaceOnUse" markerWidth="12" markerHeight="12" orient="auto"><path d="M 1,1 L 14,14 M 1,14 L 14,1" class="arrowMarkerPath" style="stroke-width: 2.5; stroke-dasharray: 1, 0;"></path></marker><g class="root"><g class="clusters"></g><g class="edgePaths"><path d="M894.466,60.1L894.383,64.183C894.3,68.267,894.133,76.433,894.05,84.017C893.966,91.6,893.966,98.6,893.966,102.1L893.966,105.6" id="g6ff065f8-b5ee-4bec-a05e-328913cdfaa9-dark-L_Start_Q1_0" class="edge-thickness-normal edge-pattern-solid edge-thickness-normal edge-pattern-solid flowchart-link" style=";" data-edge="true" data-et="edge" data-id="L_Start_Q1_0" data-points="W3sieCI6ODk0LjQ2NjQwNzc3NTg3ODksInkiOjYwLjA5OTk5ODQ3NDEyMTA5fSx7IngiOjg5My45NjY0MDc3NzU4Nzg5LCJ5Ijo4NC41OTk5OTg0NzQxMjExfSx7IngiOjg5My45NjY0MDc3NzU4NzksInkiOjEwOS41OTk5OTg0NzQxMjEwNH1d" data-look="classic" marker-end="url(#g6ff065f8-b5ee-4bec-a05e-328913cdfaa9-dark_flowchart-v2-pointEnd)"></path><path d="M941.125,293.37L950.751,307.313C960.377,321.256,979.63,349.142,989.256,375.528C998.882,401.914,998.882,426.799,998.882,439.242L998.882,451.684" id="g6ff065f8-b5ee-4bec-a05e-328913cdfaa9-dark-L_Q1_Stale_0" class="edge-thickness-normal edge-pattern-solid edge-thickness-normal edge-pattern-solid flowchart-link" style=";" data-edge="true" data-et="edge" data-id="L_Q1_Stale_0" data-points="W3sieCI6OTQxLjEyNDYxMTIxNTgyNDgsInkiOjI5My4zNjk5MjYxMzc2OTA5fSx7IngiOjk5OC44ODIwMzQzMDE3NTc4LCJ5IjozNzcuMDI4MTI5NTc3NjM2N30seyJ4Ijo5OTguODgyMDM0MzAxNzU3OCwieSI6NDU1LjY4NDM4MzM5MjMzNH1d" data-look="classic" marker-end="url(#g6ff065f8-b5ee-4bec-a05e-328913cdfaa9-dark_flowchart-v2-pointEnd)"></path><path d="M846.808,293.37L837.182,307.313C827.556,321.256,808.303,349.142,798.677,368.502C789.051,387.861,789.051,398.695,789.051,404.111L789.051,409.528" id="g6ff065f8-b5ee-4bec-a05e-328913cdfaa9-dark-L_Q1_Q2_0" class="edge-thickness-normal edge-pattern-solid edge-thickness-normal edge-pattern-solid flowchart-link" style=";" data-edge="true" data-et="edge" data-id="L_Q1_Q2_0" data-points="W3sieCI6ODQ2LjgwODIwNDMzNTkzMywieSI6MjkzLjM2OTkyNjEzNzY5MDg3fSx7IngiOjc4OS4wNTA3ODEyNSwieSI6Mzc3LjAyODEyOTU3NzYzNjd9LHsieCI6Nzg5LjA1MDc4MTI1LCJ5Ijo0MTMuNTI4MTI5NTc3NjM2NjZ9XQ==" data-look="classic" marker-end="url(#g6ff065f8-b5ee-4bec-a05e-328913cdfaa9-dark_flowchart-v2-pointEnd)"></path><path d="M805.5,547.992L807.96,556.816C810.42,565.641,815.34,583.291,817.8,609.102C820.26,634.914,820.26,668.886,820.26,685.873L820.26,702.859" id="g6ff065f8-b5ee-4bec-a05e-328913cdfaa9-dark-L_Q2_Seq_0" class="edge-thickness-normal edge-pattern-solid edge-thickness-normal edge-pattern-solid flowchart-link" style=";" data-edge="true" data-et="edge" data-id="L_Q2_Seq_0" data-points="W3sieCI6ODA1LjQ5OTg1ODAyNjI5MTgsInkiOjU0Ny45OTE1NTg5MDQ4NjA1fSx7IngiOjgyMC4yNjAxNTQ3MjQxMjExLCJ5Ijo2MDAuOTQwNjM1NjgxMTUyM30seyJ4Ijo4MjAuMjYwMTU0NzI0MTIxMSwieSI6NzA2Ljg1OTM4NjQ0NDA5MTh9XQ==" data-look="classic" marker-end="url(#g6ff065f8-b5ee-4bec-a05e-328913cdfaa9-dark_flowchart-v2-pointEnd)"></path><path d="M737.526,512.916L705.94,527.587C674.354,542.258,611.182,571.599,579.596,591.687C548.01,611.774,548.01,622.607,548.01,628.024L548.01,633.441" id="g6ff065f8-b5ee-4bec-a05e-328913cdfaa9-dark-L_Q2_Q3_0" class="edge-thickness-normal edge-pattern-solid edge-thickness-normal edge-pattern-solid flowchart-link" style=";" data-edge="true" data-et="edge" data-id="L_Q2_Q3_0" data-points="W3sieCI6NzM3LjUyNjE4MjY5NjQ1NzUsInkiOjUxMi45MTYwMzcxMjc2MDk3fSx7IngiOjU0OC4wMTAxNTQ3MjQxMjExLCJ5Ijo2MDAuOTQwNjM1NjgxMTUyM30seyJ4Ijo1NDguMDEwMTU0NzI0MTIxMSwieSI6NjM3LjQ0MDYzNTY4MTE1MjN9XQ==" data-look="classic" marker-end="url(#g6ff065f8-b5ee-4bec-a05e-328913cdfaa9-dark_flowchart-v2-pointEnd)"></path><path d="M474.519,769.387L428.425,787.719C382.33,806.051,290.142,842.714,244.047,868.135C197.953,893.555,197.953,907.732,197.953,914.821L197.953,921.909" id="g6ff065f8-b5ee-4bec-a05e-328913cdfaa9-dark-L_Q3_Q4_0" class="edge-thickness-normal edge-pattern-solid edge-thickness-normal edge-pattern-solid flowchart-link" style=";" data-edge="true" data-et="edge" data-id="L_Q3_Q4_0" data-points="W3sieCI6NDc0LjUxOTA0Mzk1OTg2MjEzLCJ5Ijo3NjkuMzg3MDI0OTE2ODkzNH0seyJ4IjoxOTcuOTUzMTI1LCJ5Ijo4NzkuMzc4MTM1NjgxMTUyM30seyJ4IjoxOTcuOTUzMTI1LCJ5Ijo5MjUuOTA5Mzg1NjgxMTUyM31d" data-look="classic" marker-end="url(#g6ff065f8-b5ee-4bec-a05e-328913cdfaa9-dark_flowchart-v2-pointEnd)"></path><path d="M622.147,768.741L669.977,787.181C717.806,805.62,813.465,842.499,861.295,878.084C909.124,913.67,909.124,947.961,909.124,965.107L909.124,982.253" id="g6ff065f8-b5ee-4bec-a05e-328913cdfaa9-dark-L_Q3_Bmp_0" class="edge-thickness-normal edge-pattern-solid edge-thickness-normal edge-pattern-solid flowchart-link" style=";" data-edge="true" data-et="edge" data-id="L_Q3_Bmp_0" data-points="W3sieCI6NjIyLjE0NzE3NzMwODg1NzMsInkiOjc2OC43NDExMTMwOTY0MTU2fSx7IngiOjkwOS4xMjQyMTQxNzIzNjMzLCJ5Ijo4NzkuMzc4MTM1NjgxMTUyM30seyJ4Ijo5MDkuMTI0MjE0MTcyMzYzMywieSI6OTg2LjI1MzEzMTg2NjQ1NTF9XQ==" data-look="classic" marker-end="url(#g6ff065f8-b5ee-4bec-a05e-328913cdfaa9-dark_flowchart-v2-pointEnd)"></path><path d="M592.153,798.735L602.282,812.176C612.411,825.616,632.668,852.497,642.797,871.354C652.926,890.211,652.926,901.045,652.926,906.461L652.926,911.878" id="g6ff065f8-b5ee-4bec-a05e-328913cdfaa9-dark-L_Q3_Q5_0" class="edge-thickness-normal edge-pattern-solid edge-thickness-normal edge-pattern-solid flowchart-link" style=";" data-edge="true" data-et="edge" data-id="L_Q3_Q5_0" data-points="W3sieCI6NTkyLjE1MzA2NTU0ODczNywieSI6Nzk4LjczNTIyNDg1NjUzNn0seyJ4Ijo2NTIuOTI1NzgxMjUsInkiOjg3OS4zNzgxMzU2ODExNTIzfSx7IngiOjY1Mi45MjU3ODEyNSwieSI6OTE1Ljg3ODEzNTY4MTE1MjV9XQ==" data-look="classic" marker-end="url(#g6ff065f8-b5ee-4bec-a05e-328913cdfaa9-dark_flowchart-v2-pointEnd)"></path><path d="M158.35,1073.594L147.829,1087.949C137.309,1102.305,116.268,1131.017,105.747,1152.256C95.227,1173.495,95.227,1187.261,95.227,1194.145L95.227,1201.028" id="g6ff065f8-b5ee-4bec-a05e-328913cdfaa9-dark-L_Q4_IOS_0" class="edge-thickness-normal edge-pattern-solid edge-thickness-normal edge-pattern-solid flowchart-link" style=";" data-edge="true" data-et="edge" data-id="L_Q4_IOS_0" data-points="W3sieCI6MTU4LjM0OTgzODE4MjMwNDIsInkiOjEwNzMuNTkzNTg5NzA4MTgzMX0seyJ4Ijo5NS4yMjY1NjI1LCJ5IjoxMTU5LjcyODEyNjUyNTg3OX0seyJ4Ijo5NS4yMjY1NjI1LCJ5IjoxMjA1LjAyODEyNTc2MjkzOTV9XQ==" data-look="classic" marker-end="url(#g6ff065f8-b5ee-4bec-a05e-328913cdfaa9-dark_flowchart-v2-pointEnd)"></path><path d="M237.556,1073.594L248.077,1087.949C258.598,1102.305,279.639,1131.017,290.159,1152.256C300.68,1173.495,300.68,1187.261,300.68,1194.145L300.68,1201.028" id="g6ff065f8-b5ee-4bec-a05e-328913cdfaa9-dark-L_Q4_Idx_0" class="edge-thickness-normal edge-pattern-solid edge-thickness-normal edge-pattern-solid flowchart-link" style=";" data-edge="true" data-et="edge" data-id="L_Q4_Idx_0" data-points="W3sieCI6MjM3LjU1NjQxMTgxNzY5NTc2LCJ5IjoxMDczLjU5MzU4OTcwODE4MzF9LHsieCI6MzAwLjY3OTY4NzUsInkiOjExNTkuNzI4MTI2NTI1ODc5fSx7IngiOjMwMC42Nzk2ODc1LCJ5IjoxMjA1LjAyODEyNTc2MjkzOTV9XQ==" data-look="classic" marker-end="url(#g6ff065f8-b5ee-4bec-a05e-328913cdfaa9-dark_flowchart-v2-pointEnd)"></path><path d="M602.187,1072.489L588.251,1087.029C574.315,1101.569,546.443,1130.649,532.506,1150.605C518.57,1170.561,518.57,1181.395,518.57,1186.811L518.57,1192.228" id="g6ff065f8-b5ee-4bec-a05e-328913cdfaa9-dark-L_Q5_SeqCorr_0" class="edge-thickness-normal edge-pattern-solid edge-thickness-normal edge-pattern-solid flowchart-link" style=";" data-edge="true" data-et="edge" data-id="L_Q5_SeqCorr_0" data-points="W3sieCI6NjAyLjE4NzE0MDQ1OTczNzIsInkiOjEwNzIuNDg5NDg1NzM1NjE1N30seyJ4Ijo1MTguNTcwMzEyNSwieSI6MTE1OS43MjgxMjY1MjU4Nzl9LHsieCI6NTE4LjU3MDMxMjUsInkiOjExOTYuMjI4MTI2NTI1ODc5fV0=" data-look="classic" marker-end="url(#g6ff065f8-b5ee-4bec-a05e-328913cdfaa9-dark_flowchart-v2-pointEnd)"></path><path d="M703.664,1072.489L717.601,1087.029C731.537,1101.569,759.409,1130.649,773.345,1150.605C787.281,1170.561,787.281,1181.395,787.281,1186.811L787.281,1192.228" id="g6ff065f8-b5ee-4bec-a05e-328913cdfaa9-dark-L_Q5_SeqHigh_0" class="edge-thickness-normal edge-pattern-solid edge-thickness-normal edge-pattern-solid flowchart-link" style=";" data-edge="true" data-et="edge" data-id="L_Q5_SeqHigh_0" data-points="W3sieCI6NzAzLjY2NDQyMjA0MDI2MjgsInkiOjEwNzIuNDg5NDg1NzM1NjE1N30seyJ4Ijo3ODcuMjgxMjUsInkiOjExNTkuNzI4MTI2NTI1ODc5fSx7IngiOjc4Ny4yODEyNSwieSI6MTE5Ni4yMjgxMjY1MjU4Nzl9XQ==" data-look="classic" marker-end="url(#g6ff065f8-b5ee-4bec-a05e-328913cdfaa9-dark_flowchart-v2-pointEnd)"></path></g><g class="edgeLabels"><g class="edgeLabel"><g class="label" data-id="L_Start_Q1_0" transform="translate(0, 0)"><text y="-10.1" text-anchor="middle"><tspan class="text-outer-tspan row" x="0" y="-0.1em" dy="1.1em" text-anchor="middle"></tspan></text></g></g><g><rect class="background" style="stroke: none"></rect></g><g class="edgeLabel" transform="translate(998.8820343017578, 377.0281295776367)"><g class="label" data-id="L_Q1_Stale_0" transform="translate(0, -10.5)"><g><rect class="background" style="" x="-10.6640625" y="-1" width="21.328125" height="23"></rect><text y="-10.1" text-anchor="middle" style=""><tspan class="text-outer-tspan row" x="0" y="-0.1em" dy="1.1em" text-anchor="middle"><tspan font-style="normal" class="text-inner-tspan" font-weight="normal">no</tspan></tspan></text></g></g></g><g class="edgeLabel" transform="translate(789.05078125, 377.0281295776367)"><g class="label" data-id="L_Q1_Q2_0" transform="translate(0, -10.5)"><g><rect class="background" style="" x="-13.546875" y="-1" width="27.09375" height="23"></rect><text y="-10.1" text-anchor="middle" style=""><tspan class="text-outer-tspan row" x="0" y="-0.1em" dy="1.1em" text-anchor="middle"><tspan font-style="normal" class="text-inner-tspan" font-weight="normal">yes</tspan></tspan></text></g></g></g><g class="edgeLabel" transform="translate(820.2601547241211, 600.9406356811523)"><g class="label" data-id="L_Q2_Seq_0" transform="translate(0, -10.5)"><g><rect class="background" style="" x="-13.546875" y="-1" width="27.09375" height="23"></rect><text y="-10.1" text-anchor="middle" style=""><tspan class="text-outer-tspan row" x="0" y="-0.1em" dy="1.1em" text-anchor="middle"><tspan font-style="normal" class="text-inner-tspan" font-weight="normal">yes</tspan></tspan></text></g></g></g><g class="edgeLabel" transform="translate(548.0101547241211, 600.9406356811523)"><g class="label" data-id="L_Q2_Q3_0" transform="translate(0, -10.5)"><g><rect class="background" style="" x="-10.6640625" y="-1" width="21.328125" height="23"></rect><text y="-10.1" text-anchor="middle" style=""><tspan class="text-outer-tspan row" x="0" y="-0.1em" dy="1.1em" text-anchor="middle"><tspan font-style="normal" class="text-inner-tspan" font-weight="normal">no</tspan></tspan></text></g></g></g><g class="edgeLabel" transform="translate(197.953125, 879.3781356811523)"><g class="label" data-id="L_Q3_Q4_0" transform="translate(0, -10.5)"><g><rect class="background" style="" x="-21.796875" y="-1" width="43.59375" height="23"></rect><text y="-10.1" text-anchor="middle" style=""><tspan class="text-outer-tspan row" x="0" y="-0.1em" dy="1.1em" text-anchor="middle"><tspan font-style="normal" class="text-inner-tspan" font-weight="normal">&lt;</tspan><tspan font-style="normal" class="text-inner-tspan" font-weight="normal"> ~1%</tspan></tspan></text></g></g></g><g class="edgeLabel" transform="translate(909.1242141723633, 879.3781356811523)"><g class="label" data-id="L_Q3_Bmp_0" transform="translate(0, -10.5)"><g><rect class="background" style="" x="-26.5234375" y="-1" width="53.046875" height="23"></rect><text y="-10.1" text-anchor="middle" style=""><tspan class="text-outer-tspan row" x="0" y="-0.1em" dy="1.1em" text-anchor="middle"><tspan font-style="normal" class="text-inner-tspan" font-weight="normal">~1–10%</tspan></tspan></text></g></g></g><g class="edgeLabel" transform="translate(652.92578125, 879.3781356811523)"><g class="label" data-id="L_Q3_Q5_0" transform="translate(0, -10.5)"><g><rect class="background" style="" x="-19.390625" y="-1" width="38.78125" height="23"></rect><text y="-10.1" text-anchor="middle" style=""><tspan class="text-outer-tspan row" x="0" y="-0.1em" dy="1.1em" text-anchor="middle"><tspan font-style="normal" class="text-inner-tspan" font-weight="normal">~10%</tspan></tspan></text></g></g></g><g class="edgeLabel" transform="translate(95.2265625, 1159.728126525879)"><g class="label" data-id="L_Q4_IOS_0" transform="translate(0, -10.5)"><g><rect class="background" style="" x="-13.546875" y="-1" width="27.09375" height="23"></rect><text y="-10.1" text-anchor="middle" style=""><tspan class="text-outer-tspan row" x="0" y="-0.1em" dy="1.1em" text-anchor="middle"><tspan font-style="normal" class="text-inner-tspan" font-weight="normal">yes</tspan></tspan></text></g></g></g><g class="edgeLabel" transform="translate(300.6796875, 1159.728126525879)"><g class="label" data-id="L_Q4_Idx_0" transform="translate(0, -10.5)"><g><rect class="background" style="" x="-10.6640625" y="-1" width="21.328125" height="23"></rect><text y="-10.1" text-anchor="middle" style=""><tspan class="text-outer-tspan row" x="0" y="-0.1em" dy="1.1em" text-anchor="middle"><tspan font-style="normal" class="text-inner-tspan" font-weight="normal">no</tspan></tspan></text></g></g></g><g class="edgeLabel" transform="translate(518.5703125, 1159.728126525879)"><g class="label" data-id="L_Q5_SeqCorr_0" transform="translate(0, -10.5)"><g><rect class="background" style="" x="-13.546875" y="-1" width="27.09375" height="23"></rect><text y="-10.1" text-anchor="middle" style=""><tspan class="text-outer-tspan row" x="0" y="-0.1em" dy="1.1em" text-anchor="middle"><tspan font-style="normal" class="text-inner-tspan" font-weight="normal">yes</tspan></tspan></text></g></g></g><g class="edgeLabel" transform="translate(787.28125, 1159.728126525879)"><g class="label" data-id="L_Q5_SeqHigh_0" transform="translate(0, -10.5)"><g><rect class="background" style="" x="-10.6640625" y="-1" width="21.328125" height="23"></rect><text y="-10.1" text-anchor="middle" style=""><tspan class="text-outer-tspan row" x="0" y="-0.1em" dy="1.1em" text-anchor="middle"><tspan font-style="normal" class="text-inner-tspan" font-weight="normal">no</tspan></tspan></text></g></g></g></g><g class="nodes"><g class="node default" id="g6ff065f8-b5ee-4bec-a05e-328913cdfaa9-dark-flowchart-Start-0" data-look="classic" transform="translate(893.9664077758789, 33.79999923706055)"><g class="basic label-container outer-path"><path d="M-55.22031307220459 -25.799999237060547 C-23.510207331766964 -25.799999237060547, 8.199898408670663 -25.799999237060547, 55.22031307220459 -25.799999237060547 C55.22031307220459 -25.799999237060547, 55.22031307220459 -25.799999237060547, 55.22031307220459 -25.799999237060547 C55.708949146556584 -25.7843296292285, 56.19758522090857 -25.768660021396453, 56.873324698825286 -25.746990371586765 C57.49711091338509 -25.686814465680865, 58.1208971279449 -25.62663855977496, 58.51954374610231 -25.58818159996402 C59.051525608336846 -25.502174898058897, 59.583507470571384 -25.416168196153777, 60.15220554685753 -25.32422550149928 C60.657207223627445 -25.208962164220463, 61.16220890039737 -25.093698826941644, 61.764601143546784 -24.956206728419545 C62.30883113626331 -24.79468212330281, 62.853061128979824 -24.633157518186074, 63.350104856805515 -24.48563754880318 C63.74010491099219 -24.342113923741504, 64.13010496517886 -24.198590298679825, 64.90220151178644 -23.914451632345997 C65.47602849493882 -23.660435448877106, 66.04985547809119 -23.406419265408214, 66.41451321041056 -23.24499610449772 C66.77048870620501 -23.05928391635494, 67.12646420199947 -22.87357172821216, 67.8808255395184 -22.480021901620034 C68.33711904803422 -22.20341409527945, 68.79341255655004 -21.92680628893886, 69.29511310722664 -21.62267246679901 C69.71263165420034 -21.33142960251676, 70.13015020117402 -21.04018673823451, 70.65156430255584 -20.67647083276321 C70.93529130881286 -20.450206095565967, 71.21901831506987 -20.22394135836872, 71.9446051765865 -19.64530514498651 C72.39382729982343 -19.2373334984288, 72.84304942306035 -18.829361851871095, 73.16892234701088 -18.533412684464313 C73.52264078795565 -18.168169353364746, 73.87635922890043 -17.802926022265176, 74.31948483196044 -17.345362455817106 C74.56501424609041 -17.05694963496059, 74.81054366022039 -16.76853681410407, 75.39156472338968 -16.086036412270357 C75.61910034357282 -15.781159410146376, 75.84663596375596 -15.476282408022398, 76.38075661506427 -14.76060939466161 C76.72152323150175 -14.23710036316472, 77.06228984793921 -13.71359133166783, 77.28299570532036 -13.374527866909407 C77.45652654771335 -13.06640628433744, 77.63005739010633 -12.758284701765472, 78.0945745002064 -11.93348753532484 C78.31507785732747 -11.475607596246935, 78.53558121444851 -11.017727657169031, 78.81215804837109 -10.443409943732584 C79.01745498459772 -9.936322542106558, 79.22275192082435 -9.429235140480532, 79.43279764509381 -8.910418140577123 C79.6380309834216 -8.292288025025604, 79.8432643217494 -7.674157909474085, 79.9539429491449 -7.340811518003323 C80.11952088304828 -6.709391094099233, 80.28509881695166 -6.0779706701951435, 80.37345246268467 -5.741039926302914 C80.47954166908353 -5.196294273406491, 80.5856308754824 -4.651548620510068, 80.68960233113748 -4.117677170096137 C80.76753501166118 -3.5132466895027763, 80.84546769218487 -2.9088162089094154, 80.90109342687991 -2.4773939951584394 C80.92975572087335 -2.0309556304233194, 80.9584180148668 -1.584517265688199, 81.00705668763487 -0.8269306768952902 C81.00705668763487 -0.3280829766140041, 81.00705668763487 0.17076472366728201, 81.00705668763487 0.826930676895284 C80.97959153088844 1.254722662696467, 80.95212637414201 1.6825146484976499, 80.90109342687991 2.4773939951584216 C80.82136362104752 3.0957626247634007, 80.74163381521515 3.7141312543683793, 80.68960233113748 4.117677170096119 C80.60126660226605 4.571262468087951, 80.51293087339464 5.024847766079782, 80.37345246268467 5.741039926302909 C80.24848894743751 6.217579969470442, 80.12352543219035 6.694120012637975, 79.9539429491449 7.340811518003306 C79.81464049340813 7.760368319850267, 79.67533803767135 8.179925121697229, 79.43279764509383 8.910418140577105 C79.22717761104403 9.418303600073045, 79.02155757699421 9.926189059568983, 78.81215804837109 10.443409943732577 C78.53838336650556 11.011908928466152, 78.26460868464001 11.580407913199725, 78.0945745002064 11.933487535324835 C77.82317101442705 12.415391906909143, 77.55176752864767 12.897296278493453, 77.28299570532037 13.374527866909402 C77.0647846932203 13.709758579356334, 76.84657368112023 14.044989291803265, 76.38075661506429 14.760609394661596 C76.17277858485534 15.039281007953246, 75.9648005546464 15.317952621244896, 75.39156472338968 16.086036412270353 C75.10642109985125 16.420982337610415, 74.82127747631282 16.755928262950476, 74.31948483196045 17.345362455817092 C74.08270542374157 17.58985663475404, 73.84592601552268 17.834350813690985, 73.16892234701088 18.533412684464306 C72.84147408854824 18.83079252899392, 72.5140258300856 19.128172373523537, 71.94460517658653 19.64530514498649 C71.51421102058173 19.988533031130824, 71.08381686457692 20.331760917275158, 70.65156430255584 20.676470832763208 C70.25783888937632 20.951116636898814, 69.86411347619678 21.22576244103442, 69.29511310722665 21.622672466799003 C68.77205588669018 21.939752827713633, 68.2489986661537 22.256833188628267, 67.88082553951841 22.48002190162003 C67.48266288564217 22.687743103111913, 67.08450023176593 22.895464304603795, 66.41451321041058 23.244996104497716 C65.87001433507967 23.48602960462145, 65.32551545974876 23.727063104745188, 64.90220151178644 23.914451632345994 C64.44826233810241 24.08150544442944, 63.99432316441838 24.248559256512888, 63.35010485680553 24.485637548803172 C62.83689146248702 24.637956590324826, 62.32367806816851 24.790275631846484, 61.76460114354681 24.95620672841954 C61.346561933447866 25.05162145016384, 60.92852272334891 25.147036171908137, 60.152205546857545 25.324225501499278 C59.78613894595932 25.383408310643613, 59.4200723450611 25.44259111978795, 58.51954374610233 25.588181599964017 C58.02869425752467 25.635533259794226, 57.53784476894701 25.682884919624435, 56.873324698825286 25.746990371586765 C56.33734023835272 25.764178350003657, 55.80135577788016 25.78136632842055, 55.2203130722046 25.799999237060547 C55.2203130722046 25.799999237060547, 55.22031307220459 25.799999237060547, 55.22031307220459 25.799999237060547 C31.983540876802145 25.799999237060547, 8.7467686813997 25.799999237060547, -55.22031307220458 25.799999237060547 C-55.74186962332607 25.78327393361432, -56.263426174447545 25.7665486301681, -56.87332469882527 25.746990371586765 C-57.50727921624299 25.685833541733334, -58.14123373366071 25.6246767118799, -58.519543746102315 25.588181599964017 C-59.13033590491482 25.489433460491146, -59.74112806372733 25.390685321018275, -60.15220554685753 25.324225501499278 C-60.674923120928135 25.20491862626861, -61.19764069499874 25.08561175103795, -61.764601143546784 24.956206728419545 C-62.24473687649242 24.813704963165172, -62.72487260943805 24.671203197910803, -63.3501048568055 24.485637548803183 C-63.77962527883579 24.327570063052782, -64.20914570086607 24.16950257730238, -64.90220151178644 23.914451632345997 C-65.31981288539879 23.729587465249065, -65.73742425901112 23.544723298152135, -66.41451321041056 23.244996104497723 C-66.77219016454772 23.058396266627387, -67.12986711868488 22.871796428757055, -67.8808255395184 22.480021901620038 C-68.38616499225712 22.173682155665567, -68.89150444499583 21.8673424097111, -69.29511310722663 21.622672466799017 C-69.7962293134047 21.27311549434014, -70.29734551958275 20.92355852188126, -70.65156430255584 20.67647083276321 C-71.0338810952059 20.371583364501916, -71.41619788785596 20.066695896240624, -71.9446051765865 19.645305144986512 C-72.23929136188725 19.377678948465576, -72.533977547188 19.110052751944643, -73.16892234701086 18.533412684464324 C-73.4852489717308 18.206779473542106, -73.80157559645073 17.880146262619885, -74.31948483196044 17.3453624558171 C-74.53811553169176 17.08854639547346, -74.75674623142307 16.831730335129826, -75.39156472338968 16.08603641227036 C-75.59127533574704 15.81844238572257, -75.79098594810439 15.550848359174779, -76.38075661506427 14.760609394661614 C-76.59961799040325 14.424379549632748, -76.81847936574222 14.08814970460388, -77.28299570532036 13.374527866909418 C-77.56116767818602 12.880605361119734, -77.8393396510517 12.386682855330053, -78.09457450020639 11.933487535324842 C-78.31624073627317 11.473192853234535, -78.53790697233994 11.012898171144226, -78.81215804837109 10.443409943732586 C-79.03210708029042 9.900131582466596, -79.25205611220974 9.356853221200605, -79.43279764509381 8.910418140577127 C-79.61726316435285 8.35483738715809, -79.80172868361188 7.799256633739055, -79.9539429491449 7.340811518003316 C-80.11995126880971 6.707749846660539, -80.28595958847453 6.074688175317762, -80.37345246268467 5.741039926302918 C-80.46706328734084 5.260368126348327, -80.560674111997 4.779696326393736, -80.68960233113748 4.117677170096139 C-80.74998871910049 3.6493322696961568, -80.81037510706348 3.180987369296174, -80.90109342687991 2.477393995158454 C-80.93752999591273 1.9098650214032462, -80.97396656494553 1.3423360476480382, -81.00705668763487 0.8269306768952934 C-81.00705668763487 0.32017593195467275, -81.00705668763487 -0.18657881298594792, -81.00705668763487 -0.8269306768952809 C-80.96571262087672 -1.4708978889836344, -80.92436855411856 -2.114865101071988, -80.90109342687991 -2.4773939951584185 C-80.82835721267907 -3.0415217091101248, -80.75562099847821 -3.6056494230618306, -80.68960233113748 -4.117677170096128 C-80.57835848688765 -4.688890798924152, -80.46711464263782 -5.260104427752177, -80.37345246268467 -5.741039926302906 C-80.2283679691539 -6.294309980152976, -80.08328347562313 -6.847580034003046, -79.9539429491449 -7.340811518003303 C-79.81874386787436 -7.748009609741927, -79.6835447866038 -8.15520770148055, -79.43279764509383 -8.910418140577093 C-79.24623211654624 -9.371238603088768, -79.05966658799863 -9.832059065600442, -78.81215804837109 -10.443409943732574 C-78.64062257896295 -10.799607016229665, -78.4690871095548 -11.155804088726754, -78.0945745002064 -11.933487535324831 C-77.77238879583665 -12.505560878273613, -77.45020309146689 -13.077634221222395, -77.28299570532036 -13.374527866909409 C-76.98974487158618 -13.825039896399861, -76.69649403785199 -14.275551925890312, -76.38075661506429 -14.760609394661605 C-76.11900861479131 -15.111327869294007, -75.85726061451834 -15.462046343926408, -75.39156472338968 -16.086036412270353 C-75.03030174811565 -16.51039645947286, -74.66903877284162 -16.93475650667537, -74.31948483196045 -17.345362455817092 C-73.97900023228209 -17.69694075929051, -73.63851563260374 -18.048519062763926, -73.16892234701089 -18.5334126844643 C-72.91402420846609 -18.764904429655516, -72.65912606992129 -18.996396174846737, -71.94460517658653 -19.645305144986487 C-71.52138460508915 -19.982812288383254, -71.09816403359177 -20.320319431780018, -70.65156430255585 -20.676470832763204 C-70.21991916893667 -20.977567792359274, -69.78827403531749 -21.27866475195534, -69.29511310722665 -21.622672466799 C-69.00228598939891 -21.800185986469334, -68.70945887157117 -21.97769950613967, -67.88082553951841 -22.480021901620027 C-67.50718858242665 -22.67494806280891, -67.13355162533489 -22.86987422399779, -66.41451321041058 -23.244996104497716 C-65.98119472071149 -23.436813345951208, -65.5478762310124 -23.628630587404697, -64.90220151178646 -23.91445163234599 C-64.29787669292622 -24.136848752003946, -63.69355187406598 -24.3592458716619, -63.35010485680553 -24.485637548803172 C-62.73516629659585 -24.668148085595035, -62.12022773638617 -24.8506586223869, -61.76460114354682 -24.956206728419538 C-61.26662368031332 -25.069866834795945, -60.76864621707982 -25.183526941172353, -60.152205546857545 -25.324225501499278 C-59.51756404177662 -25.426829418322384, -58.882922536695695 -25.52943333514549, -58.51954374610233 -25.588181599964017 C-58.128287898717154 -25.625925581007262, -57.73703205133197 -25.66366956205051, -56.873324698825286 -25.746990371586765 C-56.32447751188442 -25.764590832605716, -55.77563032494354 -25.78219129362467, -55.2203130722046 -25.799999237060547 C-55.2203130722046 -25.799999237060547, -55.22031307220459 -25.799999237060547, -55.22031307220459 -25.799999237060547" stroke="none" stroke-width="0" fill="#2d2d2d" style=""></path><path d="M-55.22031307220459 -25.799999237060547 C-22.07882859873208 -25.799999237060547, 11.062655874740429 -25.799999237060547, 55.22031307220459 -25.799999237060547 M-55.22031307220459 -25.799999237060547 C-28.808277039194397 -25.799999237060547, -2.396241006184205 -25.799999237060547, 55.22031307220459 -25.799999237060547 M55.22031307220459 -25.799999237060547 C55.22031307220459 -25.799999237060547, 55.22031307220459 -25.799999237060547, 55.22031307220459 -25.799999237060547 M55.22031307220459 -25.799999237060547 C55.22031307220459 -25.799999237060547, 55.22031307220459 -25.799999237060547, 55.22031307220459 -25.799999237060547 M55.22031307220459 -25.799999237060547 C55.55975419553677 -25.78911402091735, 55.89919531886894 -25.77822880477415, 56.873324698825286 -25.746990371586765 M55.22031307220459 -25.799999237060547 C55.72006606576496 -25.783973131267256, 56.219819059325324 -25.76794702547397, 56.873324698825286 -25.746990371586765 M56.873324698825286 -25.746990371586765 C57.3993637028561 -25.696244021522375, 57.92540270688691 -25.645497671457985, 58.51954374610231 -25.58818159996402 M56.873324698825286 -25.746990371586765 C57.38010436122138 -25.69810194704713, 57.88688402361747 -25.649213522507495, 58.51954374610231 -25.58818159996402 M58.51954374610231 -25.58818159996402 C59.11452639835998 -25.491989418906382, 59.70950905061764 -25.395797237848743, 60.15220554685753 -25.32422550149928 M58.51954374610231 -25.58818159996402 C59.06021254718306 -25.50077046115446, 59.60088134826381 -25.413359322344895, 60.15220554685753 -25.32422550149928 M60.15220554685753 -25.32422550149928 C60.52286792402758 -25.239624232708277, 60.893530301197636 -25.155022963917272, 61.764601143546784 -24.956206728419545 M60.15220554685753 -25.32422550149928 C60.71826692275571 -25.19502568634621, 61.2843282986539 -25.06582587119314, 61.764601143546784 -24.956206728419545 M61.764601143546784 -24.956206728419545 C62.283573901350024 -24.802178338047142, 62.80254665915326 -24.648149947674735, 63.350104856805515 -24.48563754880318 M61.764601143546784 -24.956206728419545 C62.25835443264243 -24.809663343979864, 62.75210772173807 -24.66311995954018, 63.350104856805515 -24.48563754880318 M63.350104856805515 -24.48563754880318 C63.761460655602576 -24.33425481231454, 64.17281645439964 -24.182872075825905, 64.90220151178644 -23.914451632345997 M63.350104856805515 -24.48563754880318 C63.78958475417995 -24.32390488406175, 64.22906465155438 -24.162172219320322, 64.90220151178644 -23.914451632345997 M64.90220151178644 -23.914451632345997 C65.43301185295732 -23.679477640238968, 65.9638221941282 -23.444503648131935, 66.41451321041056 -23.24499610449772 M64.90220151178644 -23.914451632345997 C65.30605766630941 -23.735676492705856, 65.70991382083237 -23.556901353065715, 66.41451321041056 -23.24499610449772 M66.41451321041056 -23.24499610449772 C66.97154112937072 -22.95439499596961, 67.5285690483309 -22.663793887441503, 67.8808255395184 -22.480021901620034 M66.41451321041056 -23.24499610449772 C66.97083452562356 -22.954763630691907, 67.52715584083656 -22.664531156886095, 67.8808255395184 -22.480021901620034 M67.8808255395184 -22.480021901620034 C68.36277648680348 -22.18786040511767, 68.84472743408857 -21.89569890861531, 69.29511310722664 -21.62267246679901 M67.8808255395184 -22.480021901620034 C68.19034628408353 -22.29238860731886, 68.49986702864865 -22.10475531301768, 69.29511310722664 -21.62267246679901 M69.29511310722664 -21.62267246679901 C69.60924903787043 -21.403544840307173, 69.9233849685142 -21.18441721381534, 70.65156430255584 -20.67647083276321 M69.29511310722664 -21.62267246679901 C69.74656359174897 -21.30776015177273, 70.1980140762713 -20.99284783674645, 70.65156430255584 -20.67647083276321 M70.65156430255584 -20.67647083276321 C71.04316026961523 -20.364183469839684, 71.4347562366746 -20.051896106916157, 71.9446051765865 -19.64530514498651 M70.65156430255584 -20.67647083276321 C71.06853398328705 -20.343948608409278, 71.48550366401827 -20.011426384055344, 71.9446051765865 -19.64530514498651 M71.9446051765865 -19.64530514498651 C72.23388797141442 -19.382586164727122, 72.52317076624234 -19.119867184467733, 73.16892234701088 -18.533412684464313 M71.9446051765865 -19.64530514498651 C72.38942101981135 -19.241335165351995, 72.83423686303618 -18.837365185717477, 73.16892234701088 -18.533412684464313 M73.16892234701088 -18.533412684464313 C73.43535905150921 -18.25829491220953, 73.70179575600754 -17.983177139954748, 74.31948483196044 -17.345362455817106 M73.16892234701088 -18.533412684464313 C73.42149388178517 -18.272611838301202, 73.67406541655946 -18.011810992138095, 74.31948483196044 -17.345362455817106 M74.31948483196044 -17.345362455817106 C74.63738756899117 -16.971935811722627, 74.95529030602191 -16.598509167628148, 75.39156472338968 -16.086036412270357 M74.31948483196044 -17.345362455817106 C74.70978032760154 -16.886899158194232, 75.10007582324263 -16.428435860571355, 75.39156472338968 -16.086036412270357 M75.39156472338968 -16.086036412270357 C75.74443931355567 -15.613216608984416, 76.09731390372167 -15.140396805698474, 76.38075661506427 -14.76060939466161 M75.39156472338968 -16.086036412270357 C75.69446895792606 -15.680172333135053, 75.99737319246245 -15.274308253999749, 76.38075661506427 -14.76060939466161 M76.38075661506427 -14.76060939466161 C76.65529857326139 -14.3388392220326, 76.92984053145852 -13.91706904940359, 77.28299570532036 -13.374527866909407 M76.38075661506427 -14.76060939466161 C76.65045520408958 -14.346279937707228, 76.92015379311489 -13.931950480752848, 77.28299570532036 -13.374527866909407 M77.28299570532036 -13.374527866909407 C77.60496476416397 -12.802839200030057, 77.92693382300756 -12.231150533150709, 78.0945745002064 -11.93348753532484 M77.28299570532036 -13.374527866909407 C77.45220377034214 -13.074081813288695, 77.62141183536392 -12.773635759667982, 78.0945745002064 -11.93348753532484 M78.0945745002064 -11.93348753532484 C78.33251524231659 -11.439398493216753, 78.57045598442677 -10.945309451108665, 78.81215804837109 -10.443409943732584 M78.0945745002064 -11.93348753532484 C78.26098867226573 -11.587924946350796, 78.42740284432504 -11.242362357376752, 78.81215804837109 -10.443409943732584 M78.81215804837109 -10.443409943732584 C78.96647519883773 -10.062243598560833, 79.12079234930437 -9.681077253389084, 79.43279764509381 -8.910418140577123 M78.81215804837109 -10.443409943732584 C78.97928421593937 -10.030605078674295, 79.14641038350764 -9.617800213616004, 79.43279764509381 -8.910418140577123 M79.43279764509381 -8.910418140577123 C79.60924705097138 -8.378980643468854, 79.78569645684894 -7.847543146360584, 79.9539429491449 -7.340811518003323 M79.43279764509381 -8.910418140577123 C79.58702628410462 -8.445906052873132, 79.74125492311542 -7.981393965169142, 79.9539429491449 -7.340811518003323 M79.9539429491449 -7.340811518003323 C80.05483433182741 -6.95606894923307, 80.15572571450991 -6.571326380462816, 80.37345246268467 -5.741039926302914 M79.9539429491449 -7.340811518003323 C80.08961937201306 -6.823418515073373, 80.22529579488123 -6.306025512143421, 80.37345246268467 -5.741039926302914 M80.37345246268467 -5.741039926302914 C80.44594133997674 -5.368824861937736, 80.51843021726883 -4.996609797572558, 80.68960233113748 -4.117677170096137 M80.37345246268467 -5.741039926302914 C80.46704864601189 -5.260443306477967, 80.56064482933913 -4.77984668665302, 80.68960233113748 -4.117677170096137 M80.68960233113748 -4.117677170096137 C80.76807450618989 -3.509062476473317, 80.8465466812423 -2.9004477828504975, 80.90109342687991 -2.4773939951584394 M80.68960233113748 -4.117677170096137 C80.75396643932996 -3.618481857086051, 80.81833054752244 -3.1192865440759654, 80.90109342687991 -2.4773939951584394 M80.90109342687991 -2.4773939951584394 C80.93979634116604 -1.8745648647218807, 80.97849925545216 -1.2717357342853222, 81.00705668763487 -0.8269306768952902 M80.90109342687991 -2.4773939951584394 C80.92569780256919 -2.0941609835032926, 80.95030217825847 -1.7109279718481454, 81.00705668763487 -0.8269306768952902 M81.00705668763487 -0.8269306768952902 C81.00705668763487 -0.33154341107885144, 81.00705668763487 0.16384385473758734, 81.00705668763487 0.826930676895284 M81.00705668763487 -0.8269306768952902 C81.00705668763487 -0.3138501697256636, 81.00705668763487 0.199230337443963, 81.00705668763487 0.826930676895284 M81.00705668763487 0.826930676895284 C80.97761735810366 1.2854719973430337, 80.94817802857244 1.7440133177907837, 80.90109342687991 2.4773939951584216 M81.00705668763487 0.826930676895284 C80.97566815950404 1.3158323388968851, 80.9442796313732 1.8047340008984862, 80.90109342687991 2.4773939951584216 M80.90109342687991 2.4773939951584216 C80.84968680248258 2.876093622597965, 80.79828017808525 3.2747932500375088, 80.68960233113748 4.117677170096119 M80.90109342687991 2.4773939951584216 C80.84551264223172 2.9084675852223993, 80.78993185758354 3.339541175286377, 80.68960233113748 4.117677170096119 M80.68960233113748 4.117677170096119 C80.58287464057287 4.665701304239976, 80.47614695000827 5.2137254383838325, 80.37345246268467 5.741039926302909 M80.68960233113748 4.117677170096119 C80.58339703029066 4.663018943446257, 80.47719172944383 5.2083607167963955, 80.37345246268467 5.741039926302909 M80.37345246268467 5.741039926302909 C80.24126325399774 6.245134670191623, 80.1090740453108 6.749229414080338, 79.9539429491449 7.340811518003306 M80.37345246268467 5.741039926302909 C80.23667207177644 6.262642837832404, 80.09989168086821 6.784245749361899, 79.9539429491449 7.340811518003306 M79.9539429491449 7.340811518003306 C79.76521926759791 7.909217177787642, 79.57649558605092 8.47762283757198, 79.43279764509383 8.910418140577105 M79.9539429491449 7.340811518003306 C79.7945778669442 7.820793754214225, 79.63521278474349 8.300775990425144, 79.43279764509383 8.910418140577105 M79.43279764509383 8.910418140577105 C79.18618211621065 9.519563264905464, 78.93956658732746 10.128708389233823, 78.81215804837109 10.443409943732577 M79.43279764509383 8.910418140577105 C79.24753975484073 9.368008711219892, 79.06228186458765 9.825599281862678, 78.81215804837109 10.443409943732577 M78.81215804837109 10.443409943732577 C78.62863670942707 10.824495930777424, 78.44511537048307 11.20558191782227, 78.0945745002064 11.933487535324835 M78.81215804837109 10.443409943732577 C78.63463634884113 10.812037551162414, 78.45711464931118 11.18066515859225, 78.0945745002064 11.933487535324835 M78.0945745002064 11.933487535324835 C77.92684326934237 12.231311320352813, 77.75911203847832 12.52913510538079, 77.28299570532037 13.374527866909402 M78.0945745002064 11.933487535324835 C77.84307929818424 12.380042733165904, 77.59158409616208 12.826597931006976, 77.28299570532037 13.374527866909402 M77.28299570532037 13.374527866909402 C76.9907759356369 13.823455905138491, 76.69855616595342 14.272383943367581, 76.38075661506429 14.760609394661596 M77.28299570532037 13.374527866909402 C77.02988630167228 13.763371880304364, 76.77677689802418 14.152215893699324, 76.38075661506429 14.760609394661596 M76.38075661506429 14.760609394661596 C76.08045725060909 15.162983185196659, 75.78015788615389 15.56535697573172, 75.39156472338968 16.086036412270353 M76.38075661506429 14.760609394661596 C76.01700981396269 15.247996970122445, 75.65326301286109 15.735384545583294, 75.39156472338968 16.086036412270353 M75.39156472338968 16.086036412270353 C75.15610537096629 16.362620365643576, 74.9206460185429 16.639204319016795, 74.31948483196045 17.345362455817092 M75.39156472338968 16.086036412270353 C75.09679093966274 16.43229447173948, 74.80201715593579 16.778552531208604, 74.31948483196045 17.345362455817092 M74.31948483196045 17.345362455817092 C74.05490231248336 17.61856562980602, 73.79031979300628 17.89176880379495, 73.16892234701088 18.533412684464306 M74.31948483196045 17.345362455817092 C74.06618075303784 17.606919713956337, 73.81287667411522 17.86847697209558, 73.16892234701088 18.533412684464306 M73.16892234701088 18.533412684464306 C72.86803180043425 18.806673517737586, 72.56714125385764 19.07993435101087, 71.94460517658653 19.64530514498649 M73.16892234701088 18.533412684464306 C72.73562094355654 18.92692555455464, 72.3023195401022 19.320438424644973, 71.94460517658653 19.64530514498649 M71.94460517658653 19.64530514498649 C71.47596877766124 20.01903020219109, 71.00733237873595 20.392755259395685, 70.65156430255584 20.676470832763208 M71.94460517658653 19.64530514498649 C71.63032068606583 19.895938662715217, 71.31603619554512 20.146572180443947, 70.65156430255584 20.676470832763208 M70.65156430255584 20.676470832763208 C70.36461537416555 20.87663398338937, 70.07766644577525 21.076797134015536, 69.29511310722665 21.622672466799003 M70.65156430255584 20.676470832763208 C70.20352739498786 20.989001984277497, 69.75549048741989 21.301533135791786, 69.29511310722665 21.622672466799003 M69.29511310722665 21.622672466799003 C68.9315148213275 21.843087884451776, 68.56791653542834 22.06350330210455, 67.88082553951841 22.48002190162003 M69.29511310722665 21.622672466799003 C68.95287396513734 21.830139845953987, 68.61063482304803 22.03760722510897, 67.88082553951841 22.48002190162003 M67.88082553951841 22.48002190162003 C67.58103681465448 22.6364214873577, 67.28124808979055 22.79282107309537, 66.41451321041058 23.244996104497716 M67.88082553951841 22.48002190162003 C67.5176093259304 22.669511567597812, 67.15439311234238 22.859001233575594, 66.41451321041058 23.244996104497716 M66.41451321041058 23.244996104497716 C65.82210754871477 23.507236517840866, 65.22970188701896 23.769476931184016, 64.90220151178644 23.914451632345994 M66.41451321041058 23.244996104497716 C66.04429364729916 23.408881322914, 65.67407408418774 23.572766541330278, 64.90220151178644 23.914451632345994 M64.90220151178644 23.914451632345994 C64.47320113192106 24.072327737772493, 64.04420075205569 24.230203843198993, 63.35010485680553 24.485637548803172 M64.90220151178644 23.914451632345994 C64.38357588445051 24.105310657328364, 63.86495025711458 24.29616968231073, 63.35010485680553 24.485637548803172 M63.35010485680553 24.485637548803172 C63.02689891820359 24.581563374837636, 62.70369297960165 24.677489200872103, 61.76460114354681 24.95620672841954 M63.35010485680553 24.485637548803172 C62.72928747151001 24.669892890021927, 62.108470086214496 24.854148231240686, 61.76460114354681 24.95620672841954 M61.76460114354681 24.95620672841954 C61.28303716199395 25.06612056471032, 60.80147318044109 25.176034401001097, 60.152205546857545 25.324225501499278 M61.76460114354681 24.95620672841954 C61.265935144713566 25.070023988553476, 60.76726914588031 25.18384124868741, 60.152205546857545 25.324225501499278 M60.152205546857545 25.324225501499278 C59.629660195125524 25.408706581567586, 59.107114843393504 25.493187661635893, 58.51954374610233 25.588181599964017 M60.152205546857545 25.324225501499278 C59.54567087160955 25.422285324046715, 58.93913619636156 25.520345146594156, 58.51954374610233 25.588181599964017 M58.51954374610233 25.588181599964017 C58.11833435907105 25.626885787006042, 57.71712497203978 25.665589974048064, 56.873324698825286 25.746990371586765 M58.51954374610233 25.588181599964017 C57.88646195600545 25.649254238862415, 57.253380165908574 25.710326877760814, 56.873324698825286 25.746990371586765 M56.873324698825286 25.746990371586765 C56.283357161206474 25.765909482216053, 55.69338962358767 25.784828592845336, 55.2203130722046 25.799999237060547 M56.873324698825286 25.746990371586765 C56.28674670022023 25.76580078629722, 55.70016870161516 25.78461120100767, 55.2203130722046 25.799999237060547 M55.2203130722046 25.799999237060547 C55.2203130722046 25.799999237060547, 55.22031307220459 25.799999237060547, 55.22031307220459 25.799999237060547 M55.2203130722046 25.799999237060547 C55.2203130722046 25.799999237060547, 55.22031307220459 25.799999237060547, 55.22031307220459 25.799999237060547 M55.22031307220459 25.799999237060547 C30.58858394230777 25.799999237060547, 5.956854812410953 25.799999237060547, -55.22031307220458 25.799999237060547 M55.22031307220459 25.799999237060547 C17.096621536682143 25.799999237060547, -21.027069998840304 25.799999237060547, -55.22031307220458 25.799999237060547 M-55.22031307220458 25.799999237060547 C-55.64963107032355 25.786231844477662, -56.07894906844252 25.772464451894777, -56.87332469882527 25.746990371586765 M-55.22031307220458 25.799999237060547 C-55.77666249456801 25.78215819395381, -56.33301191693143 25.76431715084707, -56.87332469882527 25.746990371586765 M-56.87332469882527 25.746990371586765 C-57.51417771916898 25.685168051452727, -58.15503073951268 25.62334573131869, -58.519543746102315 25.588181599964017 M-56.87332469882527 25.746990371586765 C-57.51268856162371 25.685311708690143, -58.15205242442215 25.623633045793525, -58.519543746102315 25.588181599964017 M-58.519543746102315 25.588181599964017 C-58.905262485234864 25.525821585514564, -59.29098122436741 25.46346157106511, -60.15220554685753 25.324225501499278 M-58.519543746102315 25.588181599964017 C-59.11944232704998 25.491194649679375, -59.71934090799765 25.394207699394734, -60.15220554685753 25.324225501499278 M-60.15220554685753 25.324225501499278 C-60.7827984434867 25.18029678784689, -61.41339134011587 25.0363680741945, -61.764601143546784 24.956206728419545 M-60.15220554685753 25.324225501499278 C-60.743832304821225 25.189190554719463, -61.33545906278493 25.05415560793965, -61.764601143546784 24.956206728419545 M-61.764601143546784 24.956206728419545 C-62.30116962262238 24.79695602033533, -62.83773810169798 24.637705312251114, -63.3501048568055 24.485637548803183 M-61.764601143546784 24.956206728419545 C-62.15699165598233 24.839747284028505, -62.54938216841788 24.723287839637468, -63.3501048568055 24.485637548803183 M-63.3501048568055 24.485637548803183 C-63.85008420644842 24.301640526376143, -64.35006355609134 24.117643503949107, -64.90220151178644 23.914451632345997 M-63.3501048568055 24.485637548803183 C-63.740569614960556 24.341942908385466, -64.13103437311561 24.19824826796775, -64.90220151178644 23.914451632345997 M-64.90220151178644 23.914451632345997 C-65.46885126712921 23.66361259472352, -66.03550102247198 23.412773557101044, -66.41451321041056 23.244996104497723 M-64.90220151178644 23.914451632345997 C-65.4069079693864 23.69103305515162, -65.91161442698636 23.467614477957245, -66.41451321041056 23.244996104497723 M-66.41451321041056 23.244996104497723 C-67.00043154297762 22.939322885696093, -67.58634987554467 22.633649666894463, -67.8808255395184 22.480021901620038 M-66.41451321041056 23.244996104497723 C-66.90814192764249 22.987470318902112, -67.40177064487442 22.7299445333065, -67.8808255395184 22.480021901620038 M-67.8808255395184 22.480021901620038 C-68.43925246070121 22.14150022031816, -68.99767938188403 21.802978539016287, -69.29511310722663 21.622672466799017 M-67.8808255395184 22.480021901620038 C-68.30530108978732 22.2227023285518, -68.72977664005623 21.96538275548356, -69.29511310722663 21.622672466799017 M-69.29511310722663 21.622672466799017 C-69.68969008865264 21.34743264551846, -70.08426707007865 21.072192824237902, -70.65156430255584 20.67647083276321 M-69.29511310722663 21.622672466799017 C-69.74518488937488 21.308721874865828, -70.19525667152314 20.99477128293264, -70.65156430255584 20.67647083276321 M-70.65156430255584 20.67647083276321 C-71.05056803814489 20.358275971566275, -71.44957177373394 20.040081110369343, -71.9446051765865 19.645305144986512 M-70.65156430255584 20.67647083276321 C-71.12528875365271 20.29868818935053, -71.5990132047496 19.92090554593785, -71.9446051765865 19.645305144986512 M-71.9446051765865 19.645305144986512 C-72.29946414796632 19.323031616233244, -72.65432311934613 19.00075808747998, -73.16892234701086 18.533412684464324 M-71.9446051765865 19.645305144986512 C-72.29965921263421 19.32285446366299, -72.65471324868193 19.000403782339465, -73.16892234701086 18.533412684464324 M-73.16892234701086 18.533412684464324 C-73.61337805896513 18.07447567137896, -74.0578337709194 17.61553865829359, -74.31948483196044 17.3453624558171 M-73.16892234701086 18.533412684464324 C-73.52325701610994 18.16753304720217, -73.87759168520901 17.80165340994002, -74.31948483196044 17.3453624558171 M-74.31948483196044 17.3453624558171 C-74.61400574217224 16.999401435967773, -74.90852665238404 16.65344041611845, -75.39156472338968 16.08603641227036 M-74.31948483196044 17.3453624558171 C-74.5630463375528 17.059261252306037, -74.80660784314516 16.77316004879497, -75.39156472338968 16.08603641227036 M-75.39156472338968 16.08603641227036 C-75.669226041171 15.71399554190981, -75.94688735895232 15.341954671549262, -76.38075661506427 14.760609394661614 M-75.39156472338968 16.08603641227036 C-75.67232947935628 15.70983721747058, -75.95309423532287 15.3336380226708, -76.38075661506427 14.760609394661614 M-76.38075661506427 14.760609394661614 C-76.71165411477887 14.252261976679975, -77.04255161449346 13.743914558698336, -77.28299570532036 13.374527866909418 M-76.38075661506427 14.760609394661614 C-76.70202119059384 14.267060735030501, -77.02328576612341 13.77351207539939, -77.28299570532036 13.374527866909418 M-77.28299570532036 13.374527866909418 C-77.48572689439598 13.014558111946704, -77.68845808347159 12.65458835698399, -78.09457450020639 11.933487535324842 M-77.28299570532036 13.374527866909418 C-77.47406325797063 13.035268079491166, -77.6651308106209 12.696008292072916, -78.09457450020639 11.933487535324842 M-78.09457450020639 11.933487535324842 C-78.28869588062666 11.530390335349994, -78.48281726104695 11.127293135375146, -78.81215804837109 10.443409943732586 M-78.09457450020639 11.933487535324842 C-78.33756313529322 11.428916435443151, -78.58055177038004 10.92434533556146, -78.81215804837109 10.443409943732586 M-78.81215804837109 10.443409943732586 C-78.98241000583793 10.022884317191783, -79.1526619633048 9.60235869065098, -79.43279764509381 8.910418140577127 M-78.81215804837109 10.443409943732586 C-78.93727693949874 10.134363863638079, -79.0623958306264 9.825317783543571, -79.43279764509381 8.910418140577127 M-79.43279764509381 8.910418140577127 C-79.63789089385725 8.292709952473222, -79.84298414262068 7.675001764369317, -79.9539429491449 7.340811518003316 M-79.43279764509381 8.910418140577127 C-79.60706648297652 8.385548166843046, -79.78133532085923 7.860678193108965, -79.9539429491449 7.340811518003316 M-79.9539429491449 7.340811518003316 C-80.11245624623909 6.7363316160856295, -80.27096954333328 6.131851714167943, -80.37345246268467 5.741039926302918 M-79.9539429491449 7.340811518003316 C-80.07819036557669 6.867002269977986, -80.20243778200849 6.393193021952655, -80.37345246268467 5.741039926302918 M-80.37345246268467 5.741039926302918 C-80.46804113451026 5.255347087801383, -80.56262980633585 4.769654249299848, -80.68960233113748 4.117677170096139 M-80.37345246268467 5.741039926302918 C-80.46620289084872 5.264786080490483, -80.55895331901276 4.788532234678047, -80.68960233113748 4.117677170096139 M-80.68960233113748 4.117677170096139 C-80.74089166748595 3.719887205602435, -80.79218100383441 3.3220972411087306, -80.90109342687991 2.477393995158454 M-80.68960233113748 4.117677170096139 C-80.75333583053049 3.6233727344069755, -80.81706932992348 3.1290682987178116, -80.90109342687991 2.477393995158454 M-80.90109342687991 2.477393995158454 C-80.93383876058382 1.967358991162441, -80.96658409428773 1.4573239871664276, -81.00705668763487 0.8269306768952934 M-80.90109342687991 2.477393995158454 C-80.92467416878878 2.1101049058955126, -80.94825491069766 1.7428158166325707, -81.00705668763487 0.8269306768952934 M-81.00705668763487 0.8269306768952934 C-81.00705668763487 0.18769328953659237, -81.00705668763487 -0.4515440978221087, -81.00705668763487 -0.8269306768952809 M-81.00705668763487 0.8269306768952934 C-81.00705668763487 0.3213105534345463, -81.00705668763487 -0.18430957002620085, -81.00705668763487 -0.8269306768952809 M-81.00705668763487 -0.8269306768952809 C-80.97653077137103 -1.3023964627806688, -80.94600485510719 -1.777862248666057, -80.90109342687991 -2.4773939951584185 M-81.00705668763487 -0.8269306768952809 C-80.97806899454828 -1.278437395163714, -80.94908130146169 -1.7299441134321474, -80.90109342687991 -2.4773939951584185 M-80.90109342687991 -2.4773939951584185 C-80.8502980079294 -2.8713532338485606, -80.7995025889789 -3.2653124725387026, -80.68960233113748 -4.117677170096128 M-80.90109342687991 -2.4773939951584185 C-80.8184856024011 -3.118083969056045, -80.7358777779223 -3.7587739429536717, -80.68960233113748 -4.117677170096128 M-80.68960233113748 -4.117677170096128 C-80.59057596958675 -4.626156607430194, -80.49154960803601 -5.134636044764259, -80.37345246268467 -5.741039926302906 M-80.68960233113748 -4.117677170096128 C-80.61078441602791 -4.522390506011465, -80.53196650091836 -4.927103841926803, -80.37345246268467 -5.741039926302906 M-80.37345246268467 -5.741039926302906 C-80.22018957322807 -6.325497748357373, -80.06692668377147 -6.90995557041184, -79.9539429491449 -7.340811518003303 M-80.37345246268467 -5.741039926302906 C-80.24391588735159 -6.2350190295547865, -80.11437931201853 -6.728998132806667, -79.9539429491449 -7.340811518003303 M-79.9539429491449 -7.340811518003303 C-79.83973666225033 -7.684782657829045, -79.72553037535576 -8.028753797654787, -79.43279764509383 -8.910418140577093 M-79.9539429491449 -7.340811518003303 C-79.80302917903016 -7.795339748744989, -79.65211540891542 -8.249867979486675, -79.43279764509383 -8.910418140577093 M-79.43279764509383 -8.910418140577093 C-79.20560904453211 -9.471578376357312, -78.97842044397039 -10.032738612137534, -78.81215804837109 -10.443409943732574 M-79.43279764509383 -8.910418140577093 C-79.29968745775432 -9.239202876816075, -79.16657727041482 -9.567987613055058, -78.81215804837109 -10.443409943732574 M-78.81215804837109 -10.443409943732574 C-78.65712641393252 -10.765336449789858, -78.50209477949393 -11.087262955847143, -78.0945745002064 -11.933487535324831 M-78.81215804837109 -10.443409943732574 C-78.54194043524514 -11.004522599119317, -78.27172282211919 -11.56563525450606, -78.0945745002064 -11.933487535324831 M-78.0945745002064 -11.933487535324831 C-77.86312177266238 -12.344455290209346, -77.63166904511836 -12.755423045093863, -77.28299570532036 -13.374527866909409 M-78.0945745002064 -11.933487535324831 C-77.83317600970523 -12.397627024677096, -77.57177751920403 -12.861766514029362, -77.28299570532036 -13.374527866909409 M-77.28299570532036 -13.374527866909409 C-77.02079546497879 -13.77733784669702, -76.75859522463722 -14.18014782648463, -76.38075661506429 -14.760609394661605 M-77.28299570532036 -13.374527866909409 C-77.08983228996607 -13.671278744533348, -76.89666887461176 -13.968029622157287, -76.38075661506429 -14.760609394661605 M-76.38075661506429 -14.760609394661605 C-76.11152171680827 -15.121359630520853, -75.84228681855224 -15.482109866380103, -75.39156472338968 -16.086036412270353 M-76.38075661506429 -14.760609394661605 C-76.16697273681058 -15.0470603154096, -75.95318885855687 -15.333511236157598, -75.39156472338968 -16.086036412270353 M-75.39156472338968 -16.086036412270353 C-75.07220342578626 -16.461176364607965, -74.75284212818283 -16.836316316945574, -74.31948483196045 -17.345362455817092 M-75.39156472338968 -16.086036412270353 C-75.08278428740243 -16.448747482485516, -74.77400385141519 -16.81145855270068, -74.31948483196045 -17.345362455817092 M-74.31948483196045 -17.345362455817092 C-73.90576000404087 -17.772567308084135, -73.4920351761213 -18.199772160351177, -73.16892234701089 -18.5334126844643 M-74.31948483196045 -17.345362455817092 C-74.04906037152612 -17.624597913476645, -73.7786359110918 -17.9038333711362, -73.16892234701089 -18.5334126844643 M-73.16892234701089 -18.5334126844643 C-72.86836620118606 -18.806369823822557, -72.56781005536124 -19.07932696318082, -71.94460517658653 -19.645305144986487 M-73.16892234701089 -18.5334126844643 C-72.83299018987347 -18.838497381298684, -72.49705803273606 -19.143582078133072, -71.94460517658653 -19.645305144986487 M-71.94460517658653 -19.645305144986487 C-71.52495490331754 -19.979965070555746, -71.10530463004852 -20.31462499612501, -70.65156430255585 -20.676470832763204 M-71.94460517658653 -19.645305144986487 C-71.5381105920423 -19.969473758885318, -71.13161600749808 -20.29364237278415, -70.65156430255585 -20.676470832763204 M-70.65156430255585 -20.676470832763204 C-70.20122379443866 -20.99060887629936, -69.75088328632148 -21.304746919835512, -69.29511310722665 -21.622672466799 M-70.65156430255585 -20.676470832763204 C-70.26220654967071 -20.948069946150415, -69.87284879678556 -21.219669059537626, -69.29511310722665 -21.622672466799 M-69.29511310722665 -21.622672466799 C-68.74890906389571 -21.95378456771747, -68.20270502056475 -22.28489666863594, -67.88082553951841 -22.480021901620027 M-69.29511310722665 -21.622672466799 C-68.88499755666979 -21.87128692365307, -68.4748820061129 -22.11990138050714, -67.88082553951841 -22.480021901620027 M-67.88082553951841 -22.480021901620027 C-67.34771398797982 -22.758145856583468, -66.81460243644122 -23.03626981154691, -66.41451321041058 -23.244996104497716 M-67.88082553951841 -22.480021901620027 C-67.4564464843425 -22.701420182877545, -67.03206742916657 -22.922818464135062, -66.41451321041058 -23.244996104497716 M-66.41451321041058 -23.244996104497716 C-66.09687364686157 -23.385605716837986, -65.77923408331257 -23.526215329178257, -64.90220151178646 -23.91445163234599 M-66.41451321041058 -23.244996104497716 C-66.08849975687698 -23.389312589531542, -65.7624863033434 -23.53362907456537, -64.90220151178646 -23.91445163234599 M-64.90220151178646 -23.91445163234599 C-64.30512496613488 -24.134181320460854, -63.70804842048331 -24.353911008575718, -63.35010485680553 -24.485637548803172 M-64.90220151178646 -23.91445163234599 C-64.58284714270877 -24.031976992246005, -64.2634927736311 -24.149502352146015, -63.35010485680553 -24.485637548803172 M-63.35010485680553 -24.485637548803172 C-62.98604530737224 -24.593688512087404, -62.62198575793894 -24.701739475371635, -61.76460114354682 -24.956206728419538 M-63.35010485680553 -24.485637548803172 C-62.94252720805878 -24.606604455532473, -62.534949559312025 -24.727571362261774, -61.76460114354682 -24.956206728419538 M-61.76460114354682 -24.956206728419538 C-61.4205766296592 -25.03472807874463, -61.07655211577158 -25.113249429069725, -60.152205546857545 -25.324225501499278 M-61.76460114354682 -24.956206728419538 C-61.169975699333484 -25.091926105767577, -60.57535025512015 -25.227645483115616, -60.152205546857545 -25.324225501499278 M-60.152205546857545 -25.324225501499278 C-59.742373613866086 -25.39048395013123, -59.33254168087463 -25.45674239876318, -58.51954374610233 -25.588181599964017 M-60.152205546857545 -25.324225501499278 C-59.55119513834169 -25.421392203442792, -58.95018472982584 -25.518558905386307, -58.51954374610233 -25.588181599964017 M-58.51954374610233 -25.588181599964017 C-57.88801497783024 -25.64910442071476, -57.25648620955814 -25.710027241465504, -56.873324698825286 -25.746990371586765 M-58.51954374610233 -25.588181599964017 C-58.11960155904778 -25.626763541748318, -57.719659371993224 -25.66534548353262, -56.873324698825286 -25.746990371586765 M-56.873324698825286 -25.746990371586765 C-56.41889345416243 -25.761563097106343, -55.96446220949957 -25.776135822625925, -55.2203130722046 -25.799999237060547 M-56.873324698825286 -25.746990371586765 C-56.533157455579136 -25.7578988729823, -56.19299021233299 -25.76880737437783, -55.2203130722046 -25.799999237060547 M-55.2203130722046 -25.799999237060547 C-55.2203130722046 -25.799999237060547, -55.22031307220459 -25.799999237060547, -55.22031307220459 -25.799999237060547 M-55.2203130722046 -25.799999237060547 C-55.2203130722046 -25.799999237060547, -55.22031307220459 -25.799999237060547, -55.22031307220459 -25.799999237060547" stroke="#555555" stroke-width="1.3" fill="none" stroke-dasharray="0 0" style=""></path></g><g class="label" style="" transform="translate(0, -18.299999237060547)"><rect></rect><g><rect class="background" style="stroke: none"></rect><text y="-10.1" style=""><tspan class="text-outer-tspan row" x="0" y="-0.1em" dy="1.1em"><tspan font-style="normal" class="text-inner-tspan" font-weight="normal">Query</tspan><tspan font-style="normal" class="text-inner-tspan" font-weight="normal"> with</tspan><tspan font-style="normal" class="text-inner-tspan" font-weight="normal"> WHERE</tspan></tspan><tspan class="text-outer-tspan row" x="0" y="1em" dy="1.1em"><tspan font-style="normal" class="text-inner-tspan" font-weight="normal">predicate</tspan></tspan></text></g></g></g><g class="node default" id="g6ff065f8-b5ee-4bec-a05e-328913cdfaa9-dark-flowchart-Q1-1" data-look="classic" transform="translate(893.9664077758789, 225.0640640258789)"><polygon points="115.46406173706055,0 230.9281234741211,-115.46406173706055 115.46406173706055,-230.9281234741211 0,-115.46406173706055" class="label-container" transform="translate(-114.96406173706055, 115.46406173706055)"></polygon><g class="label" style="" transform="translate(0, -18.299999237060547)"><rect></rect><g><rect class="background" style="stroke: none"></rect><text y="-10.1" style=""><tspan class="text-outer-tspan row" x="0" y="-0.1em" dy="1.1em"><tspan font-style="normal" class="text-inner-tspan" font-weight="normal">Stats</tspan><tspan font-style="normal" class="text-inner-tspan" font-weight="normal"> fresh?</tspan></tspan><tspan class="text-outer-tspan row" x="0" y="1em" dy="1.1em"><tspan font-style="normal" class="text-inner-tspan" font-weight="normal">(autovacuum</tspan><tspan font-style="normal" class="text-inner-tspan" font-weight="normal"> ANALYZE)</tspan></tspan></text></g></g></g><g class="node default" id="g6ff065f8-b5ee-4bec-a05e-328913cdfaa9-dark-flowchart-Q2-2" data-look="classic" transform="translate(789.05078125, 488.98438262939453)"><polygon points="75.45624923706055,0 150.9124984741211,-75.45624923706055 75.45624923706055,-150.9124984741211 0,-75.45624923706055" class="label-container" transform="translate(-74.95624923706055, 75.45624923706055)"></polygon><g class="label" style="" transform="translate(0, -18.299999237060547)"><rect></rect><g><rect class="background" style="stroke: none"></rect><text y="-10.1" style=""><tspan class="text-outer-tspan row" x="0" y="-0.1em" dy="1.1em"><tspan font-style="normal" class="text-inner-tspan" font-weight="normal">Table</tspan><tspan font-style="normal" class="text-inner-tspan" font-weight="normal"> fits</tspan><tspan font-style="normal" class="text-inner-tspan" font-weight="normal"> in</tspan></tspan><tspan class="text-outer-tspan row" x="0" y="1em" dy="1.1em"><tspan font-style="normal" class="text-inner-tspan" font-weight="normal">~1–2</tspan><tspan font-style="normal" class="text-inner-tspan" font-weight="normal"> pages?</tspan></tspan></text></g></g></g><g class="node default" id="g6ff065f8-b5ee-4bec-a05e-328913cdfaa9-dark-flowchart-Q3-3" data-look="classic" transform="translate(548.0101547241211, 740.1593856811523)"><polygon points="102.71875,0 205.4375,-102.71875 102.71875,-205.4375 0,-102.71875" class="label-container" transform="translate(-102.21875, 102.71875)"></polygon><g class="label" style="" transform="translate(0, -9.5)"><rect></rect><g><rect class="background" style="stroke: none"></rect><text y="-10.1" style=""><tspan class="text-outer-tspan row" x="0" y="-0.1em" dy="1.1em"><tspan font-style="normal" class="text-inner-tspan" font-weight="normal">Estimated</tspan><tspan font-style="normal" class="text-inner-tspan" font-weight="normal"> selectivity?</tspan></tspan></text></g></g></g><g class="node default" id="g6ff065f8-b5ee-4bec-a05e-328913cdfaa9-dark-flowchart-Q4-4" data-look="classic" transform="translate(197.953125, 1019.5531311035156)"><polygon points="93.64374923706055,0 187.2874984741211,-93.64374923706055 93.64374923706055,-187.2874984741211 0,-93.64374923706055" class="label-container" transform="translate(-93.14374923706055, 93.64374923706055)"></polygon><g class="label" style="" transform="translate(0, -18.299999237060547)"><rect></rect><g><rect class="background" style="stroke: none"></rect><text y="-10.1" style=""><tspan class="text-outer-tspan row" x="0" y="-0.1em" dy="1.1em"><tspan font-style="normal" class="text-inner-tspan" font-weight="normal">Index</tspan><tspan font-style="normal" class="text-inner-tspan" font-weight="normal"> covers</tspan><tspan font-style="normal" class="text-inner-tspan" font-weight="normal"> all</tspan></tspan><tspan class="text-outer-tspan row" x="0" y="1em" dy="1.1em"><tspan font-style="normal" class="text-inner-tspan" font-weight="normal">SELECT</tspan><tspan font-style="normal" class="text-inner-tspan" font-weight="normal"> columns?</tspan></tspan></text></g></g></g><g class="node default" id="g6ff065f8-b5ee-4bec-a05e-328913cdfaa9-dark-flowchart-Q5-5" data-look="classic" transform="translate(652.92578125, 1019.5531311035156)"><polygon points="103.67499923706055,0 207.3499984741211,-103.67499923706055 103.67499923706055,-207.3499984741211 0,-103.67499923706055" class="label-container" transform="translate(-103.17499923706055, 103.67499923706055)"></polygon><g class="label" style="" transform="translate(0, -18.299999237060547)"><rect></rect><g><rect class="background" style="stroke: none"></rect><text y="-10.1" style=""><tspan class="text-outer-tspan row" x="0" y="-0.1em" dy="1.1em"><tspan font-style="normal" class="text-inner-tspan" font-weight="normal">Physical</tspan><tspan font-style="normal" class="text-inner-tspan" font-weight="normal"> correlation</tspan></tspan><tspan class="text-outer-tspan row" x="0" y="1em" dy="1.1em"><tspan font-style="normal" class="text-inner-tspan" font-weight="normal">≈</tspan><tspan font-style="normal" class="text-inner-tspan" font-weight="normal"> ±1?</tspan></tspan></text></g></g></g><g class="node default" id="g6ff065f8-b5ee-4bec-a05e-328913cdfaa9-dark-flowchart-Stale-6" data-look="classic" transform="translate(998.8820343017578, 488.98438262939453)"><rect class="basic label-container" style="" x="-84.375" y="-33.29999923706055" width="168.75" height="66.5999984741211"></rect><g class="label" style="" transform="translate(0, -18.299999237060547)"><rect></rect><g><rect class="background" style="stroke: none"></rect><text y="-10.1" style=""><tspan class="text-outer-tspan row" x="0" y="-0.1em" dy="1.1em"><tspan font-style="normal" class="text-inner-tspan" font-weight="normal">Likely</tspan><tspan font-style="normal" class="text-inner-tspan" font-weight="normal"> bad</tspan><tspan font-style="normal" class="text-inner-tspan" font-weight="normal"> plan</tspan></tspan><tspan class="text-outer-tspan row" x="0" y="1em" dy="1.1em"><tspan font-style="normal" class="text-inner-tspan" font-weight="normal">(run</tspan><tspan font-style="normal" class="text-inner-tspan" font-weight="normal"> ANALYZE)</tspan></tspan></text></g></g></g><g class="node default" id="g6ff065f8-b5ee-4bec-a05e-328913cdfaa9-dark-flowchart-Seq-7" data-look="classic" transform="translate(820.2601547241211, 740.1593856811523)"><rect class="basic label-container" style="" x="-119.53125" y="-33.29999923706055" width="239.0625" height="66.5999984741211"></rect><g class="label" style="" transform="translate(0, -18.299999237060547)"><rect></rect><g><rect class="background" style="stroke: none"></rect><text y="-10.1" style=""><tspan class="text-outer-tspan row" x="0" y="-0.1em" dy="1.1em"><tspan font-style="normal" class="text-inner-tspan" font-weight="normal">Seq</tspan><tspan font-style="normal" class="text-inner-tspan" font-weight="normal"> Scan</tspan><tspan font-style="normal" class="text-inner-tspan" font-weight="normal"> —</tspan><tspan font-style="normal" class="text-inner-tspan" font-weight="normal"> cheaper</tspan><tspan font-style="normal" class="text-inner-tspan" font-weight="normal"> than</tspan></tspan><tspan class="text-outer-tspan row" x="0" y="1em" dy="1.1em"><tspan font-style="normal" class="text-inner-tspan" font-weight="normal">any</tspan><tspan font-style="normal" class="text-inner-tspan" font-weight="normal"> index</tspan><tspan font-style="normal" class="text-inner-tspan" font-weight="normal"> walk</tspan></tspan></text></g></g></g><g class="node default" id="g6ff065f8-b5ee-4bec-a05e-328913cdfaa9-dark-flowchart-IOS-8" data-look="classic" transform="translate(95.2265625, 1229.5281257629395)"><rect class="basic label-container" style="" x="-87.2265625" y="-24.5" width="174.453125" height="49"></rect><g class="label" style="" transform="translate(0, -9.5)"><rect></rect><g><rect class="background" style="stroke: none"></rect><text y="-10.1" style=""><tspan class="text-outer-tspan row" x="0" y="-0.1em" dy="1.1em"><tspan font-style="normal" class="text-inner-tspan" font-weight="normal">Index-Only</tspan><tspan font-style="normal" class="text-inner-tspan" font-weight="normal"> Scan</tspan></tspan></text></g></g></g><g class="node default" id="g6ff065f8-b5ee-4bec-a05e-328913cdfaa9-dark-flowchart-Idx-9" data-look="classic" transform="translate(300.6796875, 1229.5281257629395)"><rect class="basic label-container" style="" x="-68.2265625" y="-24.5" width="136.453125" height="49"></rect><g class="label" style="" transform="translate(0, -9.5)"><rect></rect><g><rect class="background" style="stroke: none"></rect><text y="-10.1" style=""><tspan class="text-outer-tspan row" x="0" y="-0.1em" dy="1.1em"><tspan font-style="normal" class="text-inner-tspan" font-weight="normal">Index</tspan><tspan font-style="normal" class="text-inner-tspan" font-weight="normal"> Scan</tspan></tspan></text></g></g></g><g class="node default" id="g6ff065f8-b5ee-4bec-a05e-328913cdfaa9-dark-flowchart-Bmp-10" data-look="classic" transform="translate(909.1242141723633, 1019.5531311035156)"><rect class="basic label-container" style="" x="-102.5234375" y="-33.29999923706055" width="205.046875" height="66.5999984741211"></rect><g class="label" style="" transform="translate(0, -18.299999237060547)"><rect></rect><g><rect class="background" style="stroke: none"></rect><text y="-10.1" style=""><tspan class="text-outer-tspan row" x="0" y="-0.1em" dy="1.1em"><tspan font-style="normal" class="text-inner-tspan" font-weight="normal">Bitmap</tspan><tspan font-style="normal" class="text-inner-tspan" font-weight="normal"> Index</tspan><tspan font-style="normal" class="text-inner-tspan" font-weight="normal"> Scan</tspan><tspan font-style="normal" class="text-inner-tspan" font-weight="normal"> +</tspan></tspan><tspan class="text-outer-tspan row" x="0" y="1em" dy="1.1em"><tspan font-style="normal" class="text-inner-tspan" font-weight="normal">Bitmap</tspan><tspan font-style="normal" class="text-inner-tspan" font-weight="normal"> Heap</tspan><tspan font-style="normal" class="text-inner-tspan" font-weight="normal"> Scan</tspan></tspan></text></g></g></g><g class="node default" id="g6ff065f8-b5ee-4bec-a05e-328913cdfaa9-dark-flowchart-SeqHigh-11" data-look="classic" transform="translate(787.28125, 1229.5281257629395)"><rect class="basic label-container" style="" x="-119.046875" y="-33.29999923706055" width="238.09375" height="66.5999984741211"></rect><g class="label" style="" transform="translate(0, -18.299999237060547)"><rect></rect><g><rect class="background" style="stroke: none"></rect><text y="-10.1" style=""><tspan class="text-outer-tspan row" x="0" y="-0.1em" dy="1.1em"><tspan font-style="normal" class="text-inner-tspan" font-weight="normal">Seq</tspan><tspan font-style="normal" class="text-inner-tspan" font-weight="normal"> Scan</tspan><tspan font-style="normal" class="text-inner-tspan" font-weight="normal"> —</tspan><tspan font-style="normal" class="text-inner-tspan" font-weight="normal"> random</tspan><tspan font-style="normal" class="text-inner-tspan" font-weight="normal"> heap</tspan></tspan><tspan class="text-outer-tspan row" x="0" y="1em" dy="1.1em"><tspan font-style="normal" class="text-inner-tspan" font-weight="normal">fetches</tspan><tspan font-style="normal" class="text-inner-tspan" font-weight="normal"> dominate</tspan></tspan></text></g></g></g><g class="node default" id="g6ff065f8-b5ee-4bec-a05e-328913cdfaa9-dark-flowchart-SeqCorr-12" data-look="classic" transform="translate(518.5703125, 1229.5281257629395)"><rect class="basic label-container" style="" x="-99.6640625" y="-33.29999923706055" width="199.328125" height="66.5999984741211"></rect><g class="label" style="" transform="translate(0, -18.299999237060547)"><rect></rect><g><rect class="background" style="stroke: none"></rect><text y="-10.1" style=""><tspan class="text-outer-tspan row" x="0" y="-0.1em" dy="1.1em"><tspan font-style="normal" class="text-inner-tspan" font-weight="normal">Seq</tspan><tspan font-style="normal" class="text-inner-tspan" font-weight="normal"> Scan</tspan><tspan font-style="normal" class="text-inner-tspan" font-weight="normal"> +</tspan><tspan font-style="normal" class="text-inner-tspan" font-weight="normal"> filter</tspan><tspan font-style="normal" class="text-inner-tspan" font-weight="normal"> —</tspan></tspan><tspan class="text-outer-tspan row" x="0" y="1em" dy="1.1em"><tspan font-style="normal" class="text-inner-tspan" font-weight="normal">sequential</tspan><tspan font-style="normal" class="text-inner-tspan" font-weight="normal"> I/O</tspan><tspan font-style="normal" class="text-inner-tspan" font-weight="normal"> wins</tspan></tspan></text></g></g></g></g></g></g><defs><filter id="g6ff065f8-b5ee-4bec-a05e-328913cdfaa9-dark-drop-shadow" height="130%" width="130%"><feDropShadow dx="4" dy="4" stdDeviation="0" flood-opacity="0.06" flood-color="#000000"></feDropShadow></filter></defs><defs><filter id="g6ff065f8-b5ee-4bec-a05e-328913cdfaa9-dark-drop-shadow-small" height="150%" width="150%"><feDropShadow dx="2" dy="2" stdDeviation="0" flood-opacity="0.06" flood-color="#000000"></feDropShadow></filter></defs><linearGradient id="g6ff065f8-b5ee-4bec-a05e-328913cdfaa9-dark-gradient" gradientUnits="objectBoundingBox" x1="0%" y1="0%" x2="100%" y2="0%"><stop offset="0%" stop-color="#555555" stop-opacity="1"></stop><stop offset="100%" stop-color="#555555" stop-opacity="1"></stop></linearGradient></svg>