<svg id="g502dad87-cfa7-477a-8d6c-f3f4b4fb742b-light" width="100%" xmlns="http://www.w3.org/2000/svg" xmlns:xlink="http://www.w3.org/1999/xlink" class="flowchart" style="max-width: 999.8828125px;" viewBox="0 0 999.8828125 1269.293701171875" role="graphics-document document" aria-roledescription="flowchart-v2"><style>#g502dad87-cfa7-477a-8d6c-f3f4b4fb742b-light{font-family:"trebuchet ms",verdana,arial,sans-serif;font-size:16px;fill:#333;}@keyframes edge-animation-frame{from{stroke-dashoffset:0;}}@keyframes dash{to{stroke-dashoffset:0;}}#g502dad87-cfa7-477a-8d6c-f3f4b4fb742b-light .edge-animation-slow{stroke-dasharray:9,5!important;stroke-dashoffset:900;animation:dash 50s linear infinite;stroke-linecap:round;}#g502dad87-cfa7-477a-8d6c-f3f4b4fb742b-light .edge-animation-fast{stroke-dasharray:9,5!important;stroke-dashoffset:900;animation:dash 20s linear infinite;stroke-linecap:round;}#g502dad87-cfa7-477a-8d6c-f3f4b4fb742b-light .error-icon{fill:#552222;}#g502dad87-cfa7-477a-8d6c-f3f4b4fb742b-light .error-text{fill:#552222;stroke:#552222;}#g502dad87-cfa7-477a-8d6c-f3f4b4fb742b-light .edge-thickness-normal{stroke-width:1px;}#g502dad87-cfa7-477a-8d6c-f3f4b4fb742b-light .edge-thickness-thick{stroke-width:3.5px;}#g502dad87-cfa7-477a-8d6c-f3f4b4fb742b-light .edge-pattern-solid{stroke-dasharray:0;}#g502dad87-cfa7-477a-8d6c-f3f4b4fb742b-light .edge-thickness-invisible{stroke-width:0;fill:none;}#g502dad87-cfa7-477a-8d6c-f3f4b4fb742b-light .edge-pattern-dashed{stroke-dasharray:3;}#g502dad87-cfa7-477a-8d6c-f3f4b4fb742b-light .edge-pattern-dotted{stroke-dasharray:2;}#g502dad87-cfa7-477a-8d6c-f3f4b4fb742b-light .marker{fill:#333333;stroke:#333333;}#g502dad87-cfa7-477a-8d6c-f3f4b4fb742b-light .marker.cross{stroke:#333333;}#g502dad87-cfa7-477a-8d6c-f3f4b4fb742b-light svg{font-family:"trebuchet ms",verdana,arial,sans-serif;font-size:16px;}#g502dad87-cfa7-477a-8d6c-f3f4b4fb742b-light p{margin:0;}#g502dad87-cfa7-477a-8d6c-f3f4b4fb742b-light .label{font-family:"trebuchet ms",verdana,arial,sans-serif;color:#333;}#g502dad87-cfa7-477a-8d6c-f3f4b4fb742b-light .cluster-label text{fill:#333;}#g502dad87-cfa7-477a-8d6c-f3f4b4fb742b-light .cluster-label span{color:#333;}#g502dad87-cfa7-477a-8d6c-f3f4b4fb742b-light .cluster-label span p{background-color:transparent;}#g502dad87-cfa7-477a-8d6c-f3f4b4fb742b-light .label text,#g502dad87-cfa7-477a-8d6c-f3f4b4fb742b-light span{fill:#333;color:#333;}#g502dad87-cfa7-477a-8d6c-f3f4b4fb742b-light .node rect,#g502dad87-cfa7-477a-8d6c-f3f4b4fb742b-light .node circle,#g502dad87-cfa7-477a-8d6c-f3f4b4fb742b-light .node ellipse,#g502dad87-cfa7-477a-8d6c-f3f4b4fb742b-light .node polygon,#g502dad87-cfa7-477a-8d6c-f3f4b4fb742b-light .node path{fill:#ECECFF;stroke:#9370DB;stroke-width:1px;}#g502dad87-cfa7-477a-8d6c-f3f4b4fb742b-light .rough-node .label text,#g502dad87-cfa7-477a-8d6c-f3f4b4fb742b-light .node .label text,#g502dad87-cfa7-477a-8d6c-f3f4b4fb742b-light .image-shape .label,#g502dad87-cfa7-477a-8d6c-f3f4b4fb742b-light .icon-shape .label{text-anchor:middle;}#g502dad87-cfa7-477a-8d6c-f3f4b4fb742b-light .node .katex path{fill:#000;stroke:#000;stroke-width:1px;}#g502dad87-cfa7-477a-8d6c-f3f4b4fb742b-light .rough-node .label,#g502dad87-cfa7-477a-8d6c-f3f4b4fb742b-light .node .label,#g502dad87-cfa7-477a-8d6c-f3f4b4fb742b-light .image-shape .label,#g502dad87-cfa7-477a-8d6c-f3f4b4fb742b-light .icon-shape .label{text-align:center;}#g502dad87-cfa7-477a-8d6c-f3f4b4fb742b-light .node.clickable{cursor:pointer;}#g502dad87-cfa7-477a-8d6c-f3f4b4fb742b-light .root .anchor path{fill:#333333!important;stroke-width:0;stroke:#333333;}#g502dad87-cfa7-477a-8d6c-f3f4b4fb742b-light .arrowheadPath{fill:#333333;}#g502dad87-cfa7-477a-8d6c-f3f4b4fb742b-light .edgePath .path{stroke:#333333;stroke-width:1px;}#g502dad87-cfa7-477a-8d6c-f3f4b4fb742b-light .flowchart-link{stroke:#333333;fill:none;}#g502dad87-cfa7-477a-8d6c-f3f4b4fb742b-light .edgeLabel{background-color:rgba(232,232,232, 0.8);text-align:center;}#g502dad87-cfa7-477a-8d6c-f3f4b4fb742b-light .edgeLabel p{background-color:rgba(232,232,232, 0.8);}#g502dad87-cfa7-477a-8d6c-f3f4b4fb742b-light .edgeLabel rect{opacity:0.5;background-color:rgba(232,232,232, 0.8);fill:rgba(232,232,232, 0.8);}#g502dad87-cfa7-477a-8d6c-f3f4b4fb742b-light .labelBkg{background-color:rgba(232, 232, 232, 0.5);}#g502dad87-cfa7-477a-8d6c-f3f4b4fb742b-light .cluster rect{fill:#ffffde;stroke:#aaaa33;stroke-width:1px;}#g502dad87-cfa7-477a-8d6c-f3f4b4fb742b-light .cluster text{fill:#333;}#g502dad87-cfa7-477a-8d6c-f3f4b4fb742b-light .cluster span{color:#333;}#g502dad87-cfa7-477a-8d6c-f3f4b4fb742b-light div.mermaidTooltip{position:absolute;text-align:center;max-width:200px;padding:2px;font-family:"trebuchet ms",verdana,arial,sans-serif;font-size:12px;background:hsl(80, 100%, 96.2745098039%);border:1px solid #aaaa33;border-radius:2px;pointer-events:none;z-index:100;}#g502dad87-cfa7-477a-8d6c-f3f4b4fb742b-light .flowchartTitleText{text-anchor:middle;font-size:18px;fill:#333;}#g502dad87-cfa7-477a-8d6c-f3f4b4fb742b-light rect.text{fill:none;stroke-width:0;}#g502dad87-cfa7-477a-8d6c-f3f4b4fb742b-light .icon-shape,#g502dad87-cfa7-477a-8d6c-f3f4b4fb742b-light .image-shape{background-color:rgba(232,232,232, 0.8);text-align:center;}#g502dad87-cfa7-477a-8d6c-f3f4b4fb742b-light .icon-shape p,#g502dad87-cfa7-477a-8d6c-f3f4b4fb742b-light .image-shape p{background-color:rgba(232,232,232, 0.8);padding:2px;}#g502dad87-cfa7-477a-8d6c-f3f4b4fb742b-light .icon-shape .label rect,#g502dad87-cfa7-477a-8d6c-f3f4b4fb742b-light .image-shape .label rect{opacity:0.5;background-color:rgba(232,232,232, 0.8);fill:rgba(232,232,232, 0.8);}#g502dad87-cfa7-477a-8d6c-f3f4b4fb742b-light .label-icon{display:inline-block;height:1em;overflow:visible;vertical-align:-0.125em;}#g502dad87-cfa7-477a-8d6c-f3f4b4fb742b-light .node .label-icon path{fill:currentColor;stroke:revert;stroke-width:revert;}#g502dad87-cfa7-477a-8d6c-f3f4b4fb742b-light .node .neo-node{stroke:#9370DB;}#g502dad87-cfa7-477a-8d6c-f3f4b4fb742b-light [data-look="neo"].node rect,#g502dad87-cfa7-477a-8d6c-f3f4b4fb742b-light [data-look="neo"].cluster rect,#g502dad87-cfa7-477a-8d6c-f3f4b4fb742b-light [data-look="neo"].node polygon{stroke:#9370DB;filter:drop-shadow(1px 2px 2px rgba(185, 185, 185, 1));}#g502dad87-cfa7-477a-8d6c-f3f4b4fb742b-light [data-look="neo"].node path{stroke:#9370DB;stroke-width:1px;}#g502dad87-cfa7-477a-8d6c-f3f4b4fb742b-light [data-look="neo"].node .outer-path{filter:drop-shadow(1px 2px 2px rgba(185, 185, 185, 1));}#g502dad87-cfa7-477a-8d6c-f3f4b4fb742b-light [data-look="neo"].node .neo-line path{stroke:#9370DB;filter:none;}#g502dad87-cfa7-477a-8d6c-f3f4b4fb742b-light [data-look="neo"].node circle{stroke:#9370DB;filter:drop-shadow(1px 2px 2px rgba(185, 185, 185, 1));}#g502dad87-cfa7-477a-8d6c-f3f4b4fb742b-light [data-look="neo"].node circle .state-start{fill:#000000;}#g502dad87-cfa7-477a-8d6c-f3f4b4fb742b-light [data-look="neo"].icon-shape .icon{fill:#9370DB;filter:drop-shadow(1px 2px 2px rgba(185, 185, 185, 1));}#g502dad87-cfa7-477a-8d6c-f3f4b4fb742b-light [data-look="neo"].icon-shape .icon-neo path{stroke:#9370DB;filter:drop-shadow(1px 2px 2px rgba(185, 185, 185, 1));}#g502dad87-cfa7-477a-8d6c-f3f4b4fb742b-light :root{--mermaid-font-family:"trebuchet ms",verdana,arial,sans-serif;}</style><g><marker id="g502dad87-cfa7-477a-8d6c-f3f4b4fb742b-light_flowchart-v2-pointEnd" class="marker flowchart-v2" viewBox="0 0 10 10" refX="5" refY="5" markerUnits="userSpaceOnUse" markerWidth="8" markerHeight="8" orient="auto"><path d="M 0 0 L 10 5 L 0 10 z" class="arrowMarkerPath" style="stroke-width: 1; stroke-dasharray: 1, 0;"></path></marker><marker id="g502dad87-cfa7-477a-8d6c-f3f4b4fb742b-light_flowchart-v2-pointStart" class="marker flowchart-v2" viewBox="0 0 10 10" refX="4.5" refY="5" markerUnits="userSpaceOnUse" markerWidth="8" markerHeight="8" orient="auto"><path d="M 0 5 L 10 10 L 10 0 z" class="arrowMarkerPath" style="stroke-width: 1; stroke-dasharray: 1, 0;"></path></marker><marker id="g502dad87-cfa7-477a-8d6c-f3f4b4fb742b-light_flowchart-v2-pointEnd-margin" class="marker flowchart-v2" viewBox="0 0 11.5 14" refX="11.5" refY="7" markerUnits="userSpaceOnUse" markerWidth="10.5" markerHeight="14" orient="auto"><path d="M 0 0 L 11.5 7 L 0 14 z" class="arrowMarkerPath" style="stroke-width: 0; stroke-dasharray: 1, 0;"></path></marker><marker id="g502dad87-cfa7-477a-8d6c-f3f4b4fb742b-light_flowchart-v2-pointStart-margin" class="marker flowchart-v2" viewBox="0 0 11.5 14" refX="1" refY="7" markerUnits="userSpaceOnUse" markerWidth="11.5" markerHeight="14" orient="auto"><polygon points="0,7 11.5,14 11.5,0" class="arrowMarkerPath" style="stroke-width: 0; stroke-dasharray: 1, 0;"></polygon></marker><marker id="g502dad87-cfa7-477a-8d6c-f3f4b4fb742b-light_flowchart-v2-circleEnd" class="marker flowchart-v2" viewBox="0 0 10 10" refX="11" refY="5" markerUnits="userSpaceOnUse" markerWidth="11" markerHeight="11" orient="auto"><circle cx="5" cy="5" r="5" class="arrowMarkerPath" style="stroke-width: 1; stroke-dasharray: 1, 0;"></circle></marker><marker id="g502dad87-cfa7-477a-8d6c-f3f4b4fb742b-light_flowchart-v2-circleStart" class="marker flowchart-v2" viewBox="0 0 10 10" refX="-1" refY="5" markerUnits="userSpaceOnUse" markerWidth="11" markerHeight="11" orient="auto"><circle cx="5" cy="5" r="5" class="arrowMarkerPath" style="stroke-width: 1; stroke-dasharray: 1, 0;"></circle></marker><marker id="g502dad87-cfa7-477a-8d6c-f3f4b4fb742b-light_flowchart-v2-circleEnd-margin" class="marker flowchart-v2" viewBox="0 0 10 10" refY="5" refX="12.25" markerUnits="userSpaceOnUse" markerWidth="14" markerHeight="14" orient="auto"><circle cx="5" cy="5" r="5" class="arrowMarkerPath" style="stroke-width: 0; stroke-dasharray: 1, 0;"></circle></marker><marker id="g502dad87-cfa7-477a-8d6c-f3f4b4fb742b-light_flowchart-v2-circleStart-margin" class="marker flowchart-v2" viewBox="0 0 10 10" refX="-2" refY="5" markerUnits="userSpaceOnUse" markerWidth="14" markerHeight="14" orient="auto"><circle cx="5" cy="5" r="5" class="arrowMarkerPath" style="stroke-width: 0; stroke-dasharray: 1, 0;"></circle></marker><marker id="g502dad87-cfa7-477a-8d6c-f3f4b4fb742b-light_flowchart-v2-crossEnd" class="marker cross flowchart-v2" viewBox="0 0 11 11" refX="12" refY="5.2" markerUnits="userSpaceOnUse" markerWidth="11" markerHeight="11" orient="auto"><path d="M 1,1 l 9,9 M 10,1 l -9,9" class="arrowMarkerPath" style="stroke-width: 2; stroke-dasharray: 1, 0;"></path></marker><marker id="g502dad87-cfa7-477a-8d6c-f3f4b4fb742b-light_flowchart-v2-crossStart" class="marker cross flowchart-v2" viewBox="0 0 11 11" refX="-1" refY="5.2" markerUnits="userSpaceOnUse" markerWidth="11" markerHeight="11" orient="auto"><path d="M 1,1 l 9,9 M 10,1 l -9,9" class="arrowMarkerPath" style="stroke-width: 2; stroke-dasharray: 1, 0;"></path></marker><marker id="g502dad87-cfa7-477a-8d6c-f3f4b4fb742b-light_flowchart-v2-crossEnd-margin" class="marker cross flowchart-v2" viewBox="0 0 15 15" refX="17.7" refY="7.5" markerUnits="userSpaceOnUse" markerWidth="12" markerHeight="12" orient="auto"><path d="M 1,1 L 14,14 M 1,14 L 14,1" class="arrowMarkerPath" style="stroke-width: 2.5;"></path></marker><marker id="g502dad87-cfa7-477a-8d6c-f3f4b4fb742b-light_flowchart-v2-crossStart-margin" class="marker cross flowchart-v2" viewBox="0 0 15 15" refX="-3.5" refY="7.5" markerUnits="userSpaceOnUse" markerWidth="12" markerHeight="12" orient="auto"><path d="M 1,1 L 14,14 M 1,14 L 14,1" class="arrowMarkerPath" style="stroke-width: 2.5; stroke-dasharray: 1, 0;"></path></marker><g class="root"><g class="clusters"></g><g class="edgePaths"><path d="M749.238,42.5L749.155,46.583C749.072,50.667,748.905,58.833,748.822,66.417C748.738,74,748.738,81,748.738,84.5L748.738,88" id="g502dad87-cfa7-477a-8d6c-f3f4b4fb742b-light-L_Start_Q1_0" class="edge-thickness-normal edge-pattern-solid edge-thickness-normal edge-pattern-solid flowchart-link" style=";" data-edge="true" data-et="edge" data-id="L_Start_Q1_0" data-points="W3sieCI6NzQ5LjIzODI4MTI1LCJ5Ijo0Mi40OTk5OTk5OTk5OTk5OH0seyJ4Ijo3NDguNzM4MjgxMjUsInkiOjY3fSx7IngiOjc0OC43MzgyODEyNSwieSI6OTJ9XQ==" data-look="classic" marker-end="url(#g502dad87-cfa7-477a-8d6c-f3f4b4fb742b-light_flowchart-v2-pointEnd)"></path><path d="M784.507,185.466L799.44,197.511C814.374,209.555,844.242,233.645,859.176,257.918C874.109,282.191,874.109,306.647,874.109,318.875L874.109,331.103" id="g502dad87-cfa7-477a-8d6c-f3f4b4fb742b-light-L_Q1_NoIdx_0" class="edge-thickness-normal edge-pattern-solid edge-thickness-normal edge-pattern-solid flowchart-link" style=";" data-edge="true" data-et="edge" data-id="L_Q1_NoIdx_0" data-points="W3sieCI6Nzg0LjUwNjY5OTA1NjA0ODUsInkiOjE4NS40NjU5NTcxOTM5NTE0NX0seyJ4Ijo4NzQuMTA5Mzc1LCJ5IjoyNTcuNzM0Mzc1fSx7IngiOjg3NC4xMDkzNzUsInkiOjMzNS4xMDMxMjY1MjU4Nzg5fV0=" data-look="classic" marker-end="url(#g502dad87-cfa7-477a-8d6c-f3f4b4fb742b-light_flowchart-v2-pointEnd)"></path><path d="M712.97,185.466L698.036,197.511C683.102,209.555,653.235,233.645,638.301,251.106C623.367,268.568,623.367,279.401,623.367,284.818L623.367,290.234" id="g502dad87-cfa7-477a-8d6c-f3f4b4fb742b-light-L_Q1_Q2_0" class="edge-thickness-normal edge-pattern-solid edge-thickness-normal edge-pattern-solid flowchart-link" style=";" data-edge="true" data-et="edge" data-id="L_Q1_Q2_0" data-points="W3sieCI6NzEyLjk2OTg2MzQ0Mzk1MTUsInkiOjE4NS40NjU5NTcxOTM5NTE0NX0seyJ4Ijo2MjMuMzY3MTg3NSwieSI6MjU3LjczNDM3NX0seyJ4Ijo2MjMuMzY3MTg3NSwieSI6Mjk0LjIzNDM3NX1d" data-look="classic" marker-end="url(#g502dad87-cfa7-477a-8d6c-f3f4b4fb742b-light_flowchart-v2-pointEnd)"></path><path d="M664.915,418.625L677.962,431.632C691.009,444.64,717.104,470.656,730.152,492.875C743.199,515.094,743.199,533.517,743.199,542.728L743.199,551.939" id="g502dad87-cfa7-477a-8d6c-f3f4b4fb742b-light-L_Q2_EqA_0" class="edge-thickness-normal edge-pattern-solid edge-thickness-normal edge-pattern-solid flowchart-link" style=";" data-edge="true" data-et="edge" data-id="L_Q2_EqA_0" data-points="W3sieCI6NjY0LjkxNDUzOTcxMDIxNTMsInkiOjQxOC42MjQ1MjI3ODk3ODQ3fSx7IngiOjc0My4xOTkyMTg3NSwieSI6NDk2LjY3MTg3NX0seyJ4Ijo3NDMuMTk5MjE4NzUsInkiOjU1NS45MzkwNjQwMjU4Nzg5fV0=" data-look="classic" marker-end="url(#g502dad87-cfa7-477a-8d6c-f3f4b4fb742b-light_flowchart-v2-pointEnd)"></path><path d="M581.82,418.625L568.772,431.632C555.725,444.64,529.63,470.656,516.583,489.081C503.535,507.505,503.535,518.339,503.535,523.755L503.535,529.172" id="g502dad87-cfa7-477a-8d6c-f3f4b4fb742b-light-L_Q2_Q3_0" class="edge-thickness-normal edge-pattern-solid edge-thickness-normal edge-pattern-solid flowchart-link" style=";" data-edge="true" data-et="edge" data-id="L_Q2_Q3_0" data-points="W3sieCI6NTgxLjgxOTgzNTI4OTc4NDcsInkiOjQxOC42MjQ1MjI3ODk3ODQ3fSx7IngiOjUwMy41MzUxNTYyNSwieSI6NDk2LjY3MTg3NX0seyJ4Ijo1MDMuNTM1MTU2MjUsInkiOjUzMy4xNzE4NzV9XQ==" data-look="classic" marker-end="url(#g502dad87-cfa7-477a-8d6c-f3f4b4fb742b-light_flowchart-v2-pointEnd)"></path><path d="M539.834,626.608L555.249,638.741C570.665,650.874,601.497,675.14,616.912,699.543C632.328,723.946,632.328,748.485,632.328,760.755L632.328,773.025" id="g502dad87-cfa7-477a-8d6c-f3f4b4fb742b-light-L_Q3_OnlyA_0" class="edge-thickness-normal edge-pattern-solid edge-thickness-normal edge-pattern-solid flowchart-link" style=";" data-edge="true" data-et="edge" data-id="L_Q3_OnlyA_0" data-points="W3sieCI6NTM5LjgzMzUyMjUyMTE1MTIsInkiOjYyNi42MDc4ODM3Mjg4NDg4fSx7IngiOjYzMi4zMjgxMjUsInkiOjY5OS40MDYyNX0seyJ4Ijo2MzIuMzI4MTI1LCJ5Ijo3NzcuMDI1MDAxNTI1ODc4OX1d" data-look="classic" marker-end="url(#g502dad87-cfa7-477a-8d6c-f3f4b4fb742b-light_flowchart-v2-pointEnd)"></path><path d="M467.237,626.608L451.821,638.741C436.405,650.874,405.574,675.14,390.158,692.69C374.742,710.24,374.742,721.073,374.742,726.49L374.742,731.906" id="g502dad87-cfa7-477a-8d6c-f3f4b4fb742b-light-L_Q3_Q4_0" class="edge-thickness-normal edge-pattern-solid edge-thickness-normal edge-pattern-solid flowchart-link" style=";" data-edge="true" data-et="edge" data-id="L_Q3_Q4_0" data-points="W3sieCI6NDY3LjIzNjc4OTk3ODg0ODgsInkiOjYyNi42MDc4ODM3Mjg4NDg4fSx7IngiOjM3NC43NDIxODc1LCJ5Ijo2OTkuNDA2MjV9LHsieCI6Mzc0Ljc0MjE4NzUsInkiOjczNS45MDYyNX1d" data-look="classic" marker-end="url(#g502dad87-cfa7-477a-8d6c-f3f4b4fb742b-light_flowchart-v2-pointEnd)"></path><path d="M416.568,860.518L429.758,873.573C442.949,886.627,469.33,912.735,482.52,934.919C495.711,957.102,495.711,975.36,495.711,984.49L495.711,993.619" id="g502dad87-cfa7-477a-8d6c-f3f4b4fb742b-light-L_Q4_RangeB_0" class="edge-thickness-normal edge-pattern-solid edge-thickness-normal edge-pattern-solid flowchart-link" style=";" data-edge="true" data-et="edge" data-id="L_Q4_RangeB_0" data-points="W3sieCI6NDE2LjU2NzY1ODk2ODQ0OTczLCJ5Ijo4NjAuNTE4Mjc4NTMxNTUwMn0seyJ4Ijo0OTUuNzEwOTM3NSwieSI6OTM4Ljg0Mzc1fSx7IngiOjQ5NS43MTA5Mzc1LCJ5Ijo5OTcuNjE4NzUxNTI1ODc4OX1d" data-look="classic" marker-end="url(#g502dad87-cfa7-477a-8d6c-f3f4b4fb742b-light_flowchart-v2-pointEnd)"></path><path d="M332.917,860.518L319.726,873.573C306.536,886.627,280.155,912.735,266.964,931.206C253.773,949.677,253.773,960.51,253.773,965.927L253.773,971.344" id="g502dad87-cfa7-477a-8d6c-f3f4b4fb742b-light-L_Q4_Q5_0" class="edge-thickness-normal edge-pattern-solid edge-thickness-normal edge-pattern-solid flowchart-link" style=";" data-edge="true" data-et="edge" data-id="L_Q4_Q5_0" data-points="W3sieCI6MzMyLjkxNjcxNjAzMTU1MDI3LCJ5Ijo4NjAuNTE4Mjc4NTMxNTUwMn0seyJ4IjoyNTMuNzczNDM3NSwieSI6OTM4Ljg0Mzc1fSx7IngiOjI1My43NzM0Mzc1LCJ5Ijo5NzUuMzQzNzV9XQ==" data-look="classic" marker-end="url(#g502dad87-cfa7-477a-8d6c-f3f4b4fb742b-light_flowchart-v2-pointEnd)"></path><path d="M216.32,1066.641L199.173,1078.966C182.026,1091.292,147.732,1115.943,130.585,1135.152C113.438,1154.36,113.438,1168.127,113.438,1175.01L113.438,1181.894" id="g502dad87-cfa7-477a-8d6c-f3f4b4fb742b-light-L_Q5_FullScan_0" class="edge-thickness-normal edge-pattern-solid edge-thickness-normal edge-pattern-solid flowchart-link" style=";" data-edge="true" data-et="edge" data-id="L_Q5_FullScan_0" data-points="W3sieCI6MjE2LjMyMDIxODg3NjUxODIzLCJ5IjoxMDY2LjY0MDUzMTM3NjUxODN9LHsieCI6MTEzLjQzNzUsInkiOjExNDAuNTkzNzV9LHsieCI6MTEzLjQzNzUsInkiOjExODUuODkzNzQ5MjM3MDYwNX1d" data-look="classic" marker-end="url(#g502dad87-cfa7-477a-8d6c-f3f4b4fb742b-light_flowchart-v2-pointEnd)"></path><path d="M291.227,1066.641L308.374,1078.966C325.521,1091.292,359.815,1115.943,376.962,1133.685C394.109,1151.427,394.109,1162.26,394.109,1167.677L394.109,1173.094" id="g502dad87-cfa7-477a-8d6c-f3f4b4fb742b-light-L_Q5_BothEq_0" class="edge-thickness-normal edge-pattern-solid edge-thickness-normal edge-pattern-solid flowchart-link" style=";" data-edge="true" data-et="edge" data-id="L_Q5_BothEq_0" data-points="W3sieCI6MjkxLjIyNjY1NjEyMzQ4MTgsInkiOjEwNjYuNjQwNTMxMzc2NTE4M30seyJ4IjozOTQuMTA5Mzc1LCJ5IjoxMTQwLjU5Mzc1fSx7IngiOjM5NC4xMDkzNzUsInkiOjExNzcuMDkzNzV9XQ==" data-look="classic" marker-end="url(#g502dad87-cfa7-477a-8d6c-f3f4b4fb742b-light_flowchart-v2-pointEnd)"></path></g><g class="edgeLabels"><g class="edgeLabel"><g class="label" data-id="L_Start_Q1_0" transform="translate(0, 0)"><text y="-10.1" text-anchor="middle"><tspan class="text-outer-tspan row" x="0" y="-0.1em" dy="1.1em" text-anchor="middle"></tspan></text></g></g><g><rect class="background" style="stroke: none"></rect></g><g class="edgeLabel" transform="translate(874.109375, 257.734375)"><g class="label" data-id="L_Q1_NoIdx_0" transform="translate(0, -10.5)"><g><rect class="background" style="" x="-10.6640625" y="-1" width="21.328125" height="23"></rect><text y="-10.1" text-anchor="middle" style=""><tspan class="text-outer-tspan row" x="0" y="-0.1em" dy="1.1em" text-anchor="middle"><tspan font-style="normal" class="text-inner-tspan" font-weight="normal">no</tspan></tspan></text></g></g></g><g class="edgeLabel" transform="translate(623.3671875, 257.734375)"><g class="label" data-id="L_Q1_Q2_0" transform="translate(0, -10.5)"><g><rect class="background" style="" x="-13.546875" y="-1" width="27.09375" height="23"></rect><text y="-10.1" text-anchor="middle" style=""><tspan class="text-outer-tspan row" x="0" y="-0.1em" dy="1.1em" text-anchor="middle"><tspan font-style="normal" class="text-inner-tspan" font-weight="normal">yes</tspan></tspan></text></g></g></g><g class="edgeLabel" transform="translate(743.19921875, 496.671875)"><g class="label" data-id="L_Q2_EqA_0" transform="translate(0, -10.5)"><g><rect class="background" style="" x="-22.0625" y="-1" width="44.125" height="23"></rect><text y="-10.1" text-anchor="middle" style=""><tspan class="text-outer-tspan row" x="0" y="-0.1em" dy="1.1em" text-anchor="middle"><tspan font-style="normal" class="text-inner-tspan" font-weight="normal">range</tspan></tspan></text></g></g></g><g class="edgeLabel" transform="translate(503.53515625, 496.671875)"><g class="label" data-id="L_Q2_Q3_0" transform="translate(0, -10.5)"><g><rect class="background" style="" x="-31.15625" y="-1" width="62.3125" height="23"></rect><text y="-10.1" text-anchor="middle" style=""><tspan class="text-outer-tspan row" x="0" y="-0.1em" dy="1.1em" text-anchor="middle"><tspan font-style="normal" class="text-inner-tspan" font-weight="normal">equality</tspan></tspan></text></g></g></g><g class="edgeLabel" transform="translate(632.328125, 699.40625)"><g class="label" data-id="L_Q3_OnlyA_0" transform="translate(0, -10.5)"><g><rect class="background" style="" x="-10.6640625" y="-1" width="21.328125" height="23"></rect><text y="-10.1" text-anchor="middle" style=""><tspan class="text-outer-tspan row" x="0" y="-0.1em" dy="1.1em" text-anchor="middle"><tspan font-style="normal" class="text-inner-tspan" font-weight="normal">no</tspan></tspan></text></g></g></g><g class="edgeLabel" transform="translate(374.7421875, 699.40625)"><g class="label" data-id="L_Q3_Q4_0" transform="translate(0, -10.5)"><g><rect class="background" style="" x="-13.546875" y="-1" width="27.09375" height="23"></rect><text y="-10.1" text-anchor="middle" style=""><tspan class="text-outer-tspan row" x="0" y="-0.1em" dy="1.1em" text-anchor="middle"><tspan font-style="normal" class="text-inner-tspan" font-weight="normal">yes</tspan></tspan></text></g></g></g><g class="edgeLabel" transform="translate(495.7109375, 938.84375)"><g class="label" data-id="L_Q4_RangeB_0" transform="translate(0, -10.5)"><g><rect class="background" style="" x="-22.0625" y="-1" width="44.125" height="23"></rect><text y="-10.1" text-anchor="middle" style=""><tspan class="text-outer-tspan row" x="0" y="-0.1em" dy="1.1em" text-anchor="middle"><tspan font-style="normal" class="text-inner-tspan" font-weight="normal">range</tspan></tspan></text></g></g></g><g class="edgeLabel" transform="translate(253.7734375, 938.84375)"><g class="label" data-id="L_Q4_Q5_0" transform="translate(0, -10.5)"><g><rect class="background" style="" x="-31.15625" y="-1" width="62.3125" height="23"></rect><text y="-10.1" text-anchor="middle" style=""><tspan class="text-outer-tspan row" x="0" y="-0.1em" dy="1.1em" text-anchor="middle"><tspan font-style="normal" class="text-inner-tspan" font-weight="normal">equality</tspan></tspan></text></g></g></g><g class="edgeLabel" transform="translate(113.4375, 1140.59375)"><g class="label" data-id="L_Q5_FullScan_0" transform="translate(0, -10.5)"><g><rect class="background" style="" x="-31.15625" y="-1" width="62.3125" height="23"></rect><text y="-10.1" text-anchor="middle" style=""><tspan class="text-outer-tspan row" x="0" y="-0.1em" dy="1.1em" text-anchor="middle"><tspan font-style="normal" class="text-inner-tspan" font-weight="normal">equality</tspan></tspan></text></g></g></g><g class="edgeLabel" transform="translate(394.109375, 1140.59375)"><g class="label" data-id="L_Q5_BothEq_0" transform="translate(0, -10.5)"><g><rect class="background" style="" x="-10.6640625" y="-1" width="21.328125" height="23"></rect><text y="-10.1" text-anchor="middle" style=""><tspan class="text-outer-tspan row" x="0" y="-0.1em" dy="1.1em" text-anchor="middle"><tspan font-style="normal" class="text-inner-tspan" font-weight="normal">no</tspan></tspan></text></g></g></g></g><g class="nodes"><g class="node default" id="g502dad87-cfa7-477a-8d6c-f3f4b4fb742b-light-flowchart-Start-0" data-look="classic" transform="translate(748.73828125, 25)"><g class="basic label-container outer-path"><path d="M-91.46875 -17 C-25.21648659305326 -17, 41.03577681389348 -17, 91.46875 -17 C91.46875 -17, 91.46875 -17, 91.46875 -17 C91.81252816504923 -16.988975703370475, 92.15630633009846 -16.977951406740953, 92.55794373967211 -16.965071676755716 C92.91558895790874 -16.930570072683736, 93.27323417614538 -16.89606846861175, 93.6426617486366 -16.860430234995185 C93.89791809357567 -16.819162368687955, 94.15317443851474 -16.777894502380725, 94.71844668792333 -16.686505668848113 C95.03764990507283 -16.6136496175294, 95.3568531222223 -16.540793566210688, 95.78087792646163 -16.4440126716635 C95.99055535784466 -16.381781510648317, 96.20023278922768 -16.31955034963313, 96.82558970640156 -16.133947699181366 C97.17220603396997 -16.006389686549984, 97.51882236153837 -15.8788316739186, 97.84828908294936 -15.757584874882369 C98.11363272205001 -15.640125116991902, 98.37897636115068 -15.522665359101433, 98.84477356499849 -15.316470754341125 C99.12818474138916 -15.168615325151631, 99.41159591777983 -15.020759895962138, 99.81094838406693 -14.812417970097622 C100.03295869452637 -14.67783401521971, 100.25496900498581 -14.543250060341798, 100.74284332057933 -14.247497783161291 C101.0493351150478 -14.033702375156032, 101.35582690951625 -13.819906967150775, 101.63662901835067 -13.624031571755262 C101.91625445121834 -13.401037730188579, 102.195879884086 -13.178043888621895, 102.4886327202324 -12.944581292275288 C102.69901807486072 -12.753514879693306, 102.90940342948902 -12.562448467111324, 103.29535336025927 -12.21193895166137 C103.47405017714166 -12.027419816948786, 103.65274699402406 -11.8429006822362, 104.05347595028036 -11.42911513444239 C104.30692440719025 -11.131400155330283, 104.56037286410015 -10.833685176218175, 104.75988520195651 -10.59932663159847 C105.01487834913371 -10.257659044734625, 105.2698714963109 -9.915991457870781, 105.41167832814824 -9.725983222076888 C105.54917014385107 -9.514758871435289, 105.68666195955392 -9.303534520793692, 106.00617697109088 -8.812673661278927 C106.21548511563269 -8.441025855897035, 106.4247932601745 -8.069378050515141, 106.540938208341 -7.863150934094199 C106.69508640087871 -7.54305891404671, 106.84923459341641 -7.22296689399922, 107.01376459126881 -6.881316833080699 C107.10241862771629 -6.662339649046227, 107.19107266416377 -6.443362465011755, 107.42271317484592 -5.871205925162238 C107.50353058051975 -5.627796775777604, 107.58434798619358 -5.38438762639297, 107.76610350162323 -4.836968972727556 C107.85679763745317 -4.491112925720875, 107.94749177328312 -4.145256878714195, 108.042524507091 -3.7828558772573464 C108.12286860865842 -3.37030589644052, 108.20321271022584 -2.9577559156236934, 108.25084031804565 -2.713198215567453 C108.28470296610651 -2.450566204143625, 108.31856561416737 -2.187934192719797, 108.39019492013637 -1.632391440430593 C108.4106382859596 -1.3139695161458427, 108.43108165178283 -0.9955475918610924, 108.4600156754117 -0.5448768187181379 C108.4600156754117 -0.1500574847029657, 108.4600156754117 0.24476184931220646, 108.4600156754117 0.5448768187181336 C108.44137784609495 0.835176054511509, 108.4227400167782 1.1254752903048844, 108.39019492013637 1.6323914404305815 C108.35470881077772 1.907614697091358, 108.31922270141906 2.1828379537521343, 108.25084031804565 2.7131982155674415 C108.19052594077034 3.022899795428025, 108.13021156349502 3.3326013752886086, 108.042524507091 3.782855877257343 C107.98259000149638 4.011412122868697, 107.92265549590175 4.239968368480052, 107.76610350162323 4.836968972727545 C107.65755556017011 5.163898077618549, 107.54900761871698 5.490827182509552, 107.42271317484592 5.871205925162227 C107.32444974952467 6.1139184854998145, 107.22618632420341 6.3566310458374025, 107.01376459126881 6.881316833080694 C106.82993614371117 7.263040537732814, 106.64610769615352 7.644764242384935, 106.540938208341 7.863150934094196 C106.42656235248842 8.066236847971764, 106.31218649663582 8.269322761849333, 106.00617697109088 8.812673661278923 C105.78810793249316 9.147686264301017, 105.57003889389546 9.48269886732311, 105.41167832814826 9.725983222076879 C105.15203112542032 10.073886819385528, 104.89238392269239 10.421790416694176, 104.75988520195651 10.599326631598467 C104.59500320713187 10.793006404770777, 104.43012121230723 10.986686177943087, 104.05347595028037 11.42911513444238 C103.78134484071894 11.710112847444162, 103.50921373115752 11.991110560445943, 103.29535336025927 12.211938951661365 C103.03233965110486 12.45080104335399, 102.76932594195047 12.689663135046617, 102.48863272023242 12.944581292275275 C102.21940477360876 13.159283415251096, 101.9501768269851 13.373985538226918, 101.63662901835067 13.62403157175526 C101.43911962694628 13.761805573155218, 101.24161023554187 13.899579574555176, 100.74284332057934 14.247497783161286 C100.54928910919217 14.364831483554989, 100.35573489780501 14.482165183948691, 99.81094838406695 14.81241797009762 C99.60325907137306 14.920769351498668, 99.39556975867917 15.029120732899715, 98.84477356499849 15.316470754341124 C98.48879908695832 15.474050096161795, 98.13282460891817 15.631629437982467, 97.84828908294936 15.757584874882367 C97.44281488727005 15.906803127054731, 97.03734069159074 16.056021379227094, 96.82558970640156 16.133947699181363 C96.50512406589013 16.229060219126684, 96.18465842537869 16.324172739072008, 95.78087792646164 16.444012671663497 C95.3816045301503 16.535144218869153, 94.98233113383897 16.626275766074805, 94.71844668792333 16.68650566884811 C94.29691354086299 16.754655879026448, 93.87538039380263 16.822806089204786, 93.64266174863661 16.86043023499518 C93.3931595181142 16.884499415103345, 93.14365728759178 16.90856859521151, 92.55794373967211 16.965071676755716 C92.2460565671549 16.97507329132679, 91.93416939463769 16.985074905897864, 91.46875 17 C91.46875 17, 91.46875 17, 91.46875 17 C20.275728794946346 17, -50.91729241010731 17, -91.46875 17 C-91.72428930386657 16.99180535190208, -91.97982860773315 16.98361070380416, -92.55794373967211 16.965071676755716 C-92.98486688371048 16.923886914500535, -93.41179002774885 16.882702152245354, -93.6426617486366 16.86043023499518 C-93.92422667791811 16.814909000797584, -94.20579160719961 16.76938776659999, -94.71844668792333 16.68650566884811 C-94.95378281417172 16.63279173374366, -95.18911894042012 16.579077798639204, -95.78087792646161 16.4440126716635 C-96.0970888384854 16.350162932799787, -96.41329975050921 16.256313193936073, -96.82558970640154 16.13394769918137 C-97.13943235424935 16.018450703643744, -97.45327500209716 15.902953708106114, -97.84828908294936 15.757584874882369 C-98.15857376319401 15.620231051206074, -98.46885844343866 15.48287722752978, -98.84477356499849 15.316470754341127 C-99.11998825330073 15.172891427737266, -99.39520294160297 15.029312101133405, -99.81094838406693 14.812417970097624 C-100.12937673247438 14.619384834000343, -100.44780508088184 14.426351697903062, -100.74284332057931 14.247497783161299 C-100.92947091573662 14.117314451757945, -101.11609851089393 13.98713112035459, -101.63662901835067 13.624031571755264 C-101.9305451624129 13.389641268302714, -102.22446130647512 13.155250964850165, -102.4886327202324 12.94458129227529 C-102.78701649444035 12.673597043341667, -103.08540026864831 12.402612794408045, -103.29535336025926 12.211938951661377 C-103.45298454565221 12.049171810982141, -103.61061573104517 11.886404670302905, -104.05347595028036 11.429115134442386 C-104.31121886504438 11.126355640773253, -104.56896177980839 10.823596147104121, -104.75988520195651 10.599326631598473 C-104.92542618108996 10.377516800653094, -105.09096716022341 10.155706969707715, -105.41167832814824 9.72598322207689 C-105.58002257772883 9.467361247960568, -105.7483668273094 9.208739273844245, -106.00617697109088 8.812673661278936 C-106.13938850500786 8.576143093678816, -106.27260003892485 8.339612526078696, -106.540938208341 7.863150934094201 C-106.707289997577 7.517717884387535, -106.87364178681302 7.172284834680868, -107.01376459126881 6.881316833080701 C-107.13663363118953 6.577827928965247, -107.25950267111024 6.274339024849793, -107.42271317484592 5.87120592516224 C-107.50461123054332 5.624542030084835, -107.5865092862407 5.377878135007429, -107.76610350162323 4.8369689727275516 C-107.86784629834344 4.448979593226363, -107.96958909506365 4.060990213725175, -108.042524507091 3.782855877257349 C-108.11593879778871 3.405889010640445, -108.18935308848641 3.028922144023541, -108.25084031804565 2.713198215567455 C-108.2835885336073 2.4592095225379285, -108.31633674916894 2.2052208295084013, -108.39019492013637 1.6323914404306026 C-108.41709494723897 1.2134018049965702, -108.44399497434156 0.7944121695625378, -108.4600156754117 0.54487681871814 C-108.4600156754117 0.2516347603711054, -108.4600156754117 -0.041607297975929214, -108.4600156754117 -0.5448768187181317 C-108.44134490021743 -0.8356892131472936, -108.42267412502316 -1.1265016075764556, -108.39019492013637 -1.6323914404305793 C-108.33789916694366 -2.0379869752286592, -108.28560341375096 -2.443582510026739, -108.25084031804565 -2.713198215567447 C-108.17976351901767 -3.0781625564893313, -108.10868671998969 -3.443126897411216, -108.042524507091 -3.782855877257341 C-107.93744973551033 -4.183551520988521, -107.83237496392965 -4.5842471647197005, -107.76610350162323 -4.836968972727544 C-107.69103091515099 -5.063075641989668, -107.61595832867874 -5.2891823112517935, -107.42271317484594 -5.871205925162218 C-107.27443665987462 -6.237451783872767, -107.1261601449033 -6.603697642583315, -107.01376459126881 -6.881316833080692 C-106.86086574038366 -7.198814568455026, -106.70796688949852 -7.516312303829359, -106.540938208341 -7.863150934094194 C-106.34476752990334 -8.211471838095477, -106.14859685146568 -8.55979274209676, -106.00617697109088 -8.812673661278929 C-105.84178734938659 -9.065220265010991, -105.67739772768232 -9.317766868743055, -105.41167832814826 -9.725983222076884 C-105.23210814381896 -9.966590909897805, -105.05253795948967 -10.207198597718726, -104.75988520195651 -10.599326631598467 C-104.55797309482445 -10.83650408176015, -104.3560609876924 -11.073681531921833, -104.05347595028037 -11.42911513444238 C-103.81973453989248 -11.670472331194556, -103.5859931295046 -11.911829527946733, -103.29535336025927 -12.21193895166136 C-103.08623653463607 -12.401853319764337, -102.87711970901289 -12.591767687867312, -102.48863272023242 -12.944581292275274 C-102.21478665959845 -13.162966238281145, -101.94094059896447 -13.381351184287016, -101.63662901835067 -13.624031571755259 C-101.32694709367041 -13.840052276497754, -101.01726516899016 -14.056072981240249, -100.74284332057934 -14.247497783161284 C-100.45341265967349 -14.422952350685772, -100.16398199876762 -14.59840691821026, -99.81094838406695 -14.812417970097618 C-99.60450282070632 -14.920120488268164, -99.39805725734568 -15.02782300643871, -98.84477356499849 -15.316470754341124 C-98.58336326320479 -15.432189340484108, -98.32195296141109 -15.547907926627092, -97.84828908294936 -15.757584874882365 C-97.59525495201756 -15.850703774087137, -97.34222082108575 -15.943822673291908, -96.82558970640156 -16.133947699181363 C-96.50600210780782 -16.22879962089445, -96.18641450921406 -16.323651542607536, -95.78087792646164 -16.444012671663494 C-95.49159313292618 -16.510040038028265, -95.20230833939071 -16.576067404393036, -94.71844668792333 -16.68650566884811 C-94.31396304792773 -16.751899446945124, -93.90947940793211 -16.817293225042135, -93.64266174863661 -16.86043023499518 C-93.33522320176186 -16.89008846186324, -93.02778465488711 -16.919746688731298, -92.55794373967213 -16.965071676755716 C-92.21961218332858 -16.97592131124523, -91.88128062698503 -16.986770945734744, -91.46875 -17 C-91.46875 -17, -91.46875 -17, -91.46875 -17" stroke="none" stroke-width="0" fill="#ECECFF" style=""></path><path d="M-91.46875 -17 C-34.69452866491781 -17, 22.079692670164377 -17, 91.46875 -17 M-91.46875 -17 C-50.19990390594966 -17, -8.931057811899322 -17, 91.46875 -17 M91.46875 -17 C91.46875 -17, 91.46875 -17, 91.46875 -17 M91.46875 -17 C91.46875 -17, 91.46875 -17, 91.46875 -17 M91.46875 -17 C91.70568378957006 -16.99240199453213, 91.9426175791401 -16.984803989064265, 92.55794373967211 -16.965071676755716 M91.46875 -17 C91.85346328191142 -16.987662993848076, 92.23817656382283 -16.975325987696152, 92.55794373967211 -16.965071676755716 M92.55794373967211 -16.965071676755716 C92.78858151339682 -16.942822328107, 93.01921928712152 -16.920572979458285, 93.6426617486366 -16.860430234995185 M92.55794373967211 -16.965071676755716 C92.82357338997082 -16.939446703857794, 93.08920304026954 -16.91382173095987, 93.6426617486366 -16.860430234995185 M93.6426617486366 -16.860430234995185 C94.05316167648914 -16.794063790134473, 94.4636616043417 -16.727697345273757, 94.71844668792333 -16.686505668848113 M93.6426617486366 -16.860430234995185 C93.95559244036693 -16.809838027569985, 94.26852313209724 -16.759245820144788, 94.71844668792333 -16.686505668848113 M94.71844668792333 -16.686505668848113 C94.95056171668088 -16.63352692822632, 95.18267674543844 -16.580548187604524, 95.78087792646163 -16.4440126716635 M94.71844668792333 -16.686505668848113 C95.0497812958832 -16.610880706741657, 95.38111590384305 -16.5352557446352, 95.78087792646163 -16.4440126716635 M95.78087792646163 -16.4440126716635 C96.18461171972312 -16.324186601065417, 96.58834551298462 -16.20436053046733, 96.82558970640156 -16.133947699181366 M95.78087792646163 -16.4440126716635 C96.11603348569268 -16.344540260951156, 96.45118904492374 -16.245067850238808, 96.82558970640156 -16.133947699181366 M96.82558970640156 -16.133947699181366 C97.19847015201559 -15.996724248326348, 97.57135059762962 -15.859500797471329, 97.84828908294936 -15.757584874882369 M96.82558970640156 -16.133947699181366 C97.20475895633007 -15.994409910205547, 97.58392820625859 -15.85487212122973, 97.84828908294936 -15.757584874882369 M97.84828908294936 -15.757584874882369 C98.19335374065587 -15.604834986895083, 98.53841839836238 -15.4520850989078, 98.84477356499849 -15.316470754341125 M97.84828908294936 -15.757584874882369 C98.23809387230447 -15.585029857783098, 98.62789866165959 -15.412474840683828, 98.84477356499849 -15.316470754341125 M98.84477356499849 -15.316470754341125 C99.04698765067818 -15.210975795366336, 99.24920173635786 -15.105480836391546, 99.81094838406693 -14.812417970097622 M98.84477356499849 -15.316470754341125 C99.06489303564786 -15.201634567496601, 99.28501250629722 -15.086798380652077, 99.81094838406693 -14.812417970097622 M99.81094838406693 -14.812417970097622 C100.02812367926344 -14.680765029885803, 100.24529897445994 -14.549112089673985, 100.74284332057933 -14.247497783161291 M99.81094838406693 -14.812417970097622 C100.16896565199673 -14.595385798335585, 100.52698291992651 -14.378353626573546, 100.74284332057933 -14.247497783161291 M100.74284332057933 -14.247497783161291 C101.10034327835567 -13.998121288540256, 101.45784323613202 -13.748744793919222, 101.63662901835067 -13.624031571755262 M100.74284332057933 -14.247497783161291 C101.01542332370737 -14.05735777277733, 101.2880033268354 -13.867217762393368, 101.63662901835067 -13.624031571755262 M101.63662901835067 -13.624031571755262 C101.86876580967869 -13.438908658090616, 102.10090260100672 -13.253785744425972, 102.4886327202324 -12.944581292275288 M101.63662901835067 -13.624031571755262 C101.83699697920277 -13.464243454991086, 102.03736494005486 -13.30445533822691, 102.4886327202324 -12.944581292275288 M102.4886327202324 -12.944581292275288 C102.69179708003504 -12.76007279613692, 102.8949614398377 -12.575564299998552, 103.29535336025927 -12.21193895166137 M102.4886327202324 -12.944581292275288 C102.72999825119895 -12.72537950323346, 102.97136378216551 -12.506177714191633, 103.29535336025927 -12.21193895166137 M103.29535336025927 -12.21193895166137 C103.4849441836041 -12.016170860861761, 103.67453500694891 -11.82040277006215, 104.05347595028036 -11.42911513444239 M103.29535336025927 -12.21193895166137 C103.51178359209746 -11.988456968035942, 103.72821382393565 -11.764974984410514, 104.05347595028036 -11.42911513444239 M104.05347595028036 -11.42911513444239 C104.27364987227156 -11.170486317420451, 104.49382379426277 -10.911857500398513, 104.75988520195651 -10.59932663159847 M104.05347595028036 -11.42911513444239 C104.21159667749333 -11.243377530933774, 104.3697174047063 -11.057639927425159, 104.75988520195651 -10.59932663159847 M104.75988520195651 -10.59932663159847 C104.8982657115869 -10.41390935541752, 105.03664622121728 -10.228492079236569, 105.41167832814824 -9.725983222076888 M104.75988520195651 -10.59932663159847 C104.98031867143928 -10.303965864393742, 105.20075214092206 -10.008605097189015, 105.41167832814824 -9.725983222076888 M105.41167832814824 -9.725983222076888 C105.6265238972895 -9.395922733762664, 105.84136946643076 -9.065862245448438, 106.00617697109088 -8.812673661278927 M105.41167832814824 -9.725983222076888 C105.5460450919778 -9.51955979030656, 105.68041185580736 -9.313136358536232, 106.00617697109088 -8.812673661278927 M106.00617697109088 -8.812673661278927 C106.17651229576315 -8.510226044001348, 106.34684762043543 -8.207778426723769, 106.540938208341 -7.863150934094199 M106.00617697109088 -8.812673661278927 C106.19723744831639 -8.473426436993813, 106.38829792554189 -8.134179212708698, 106.540938208341 -7.863150934094199 M106.540938208341 -7.863150934094199 C106.68059963501815 -7.573140993323264, 106.82026106169532 -7.28313105255233, 107.01376459126881 -6.881316833080699 M106.540938208341 -7.863150934094199 C106.71225302740282 -7.507412046762395, 106.88356784646466 -7.151673159430591, 107.01376459126881 -6.881316833080699 M107.01376459126881 -6.881316833080699 C107.15908871900179 -6.522363427929372, 107.30441284673476 -6.163410022778046, 107.42271317484592 -5.871205925162238 M107.01376459126881 -6.881316833080699 C107.14446729210673 -6.558478635046227, 107.27516999294465 -6.235640437011756, 107.42271317484592 -5.871205925162238 M107.42271317484592 -5.871205925162238 C107.51224239682662 -5.601558173100731, 107.60177161880732 -5.331910421039223, 107.76610350162323 -4.836968972727556 M107.42271317484592 -5.871205925162238 C107.51988014809172 -5.5785544832007, 107.61704712133749 -5.2859030412391625, 107.76610350162323 -4.836968972727556 M107.76610350162323 -4.836968972727556 C107.8287821024084 -4.597948302856287, 107.89146070319357 -4.358927632985019, 108.042524507091 -3.7828558772573464 M107.76610350162323 -4.836968972727556 C107.87064411625414 -4.438310300950918, 107.97518473088505 -4.039651629174279, 108.042524507091 -3.7828558772573464 M108.042524507091 -3.7828558772573464 C108.08681013360825 -3.555458544861739, 108.1310957601255 -3.3280612124661313, 108.25084031804565 -2.713198215567453 M108.042524507091 -3.7828558772573464 C108.12262972899562 -3.371532493021765, 108.20273495090024 -2.960209108786184, 108.25084031804565 -2.713198215567453 M108.25084031804565 -2.713198215567453 C108.2948976477265 -2.3714982666665447, 108.33895497740735 -2.029798317765637, 108.39019492013637 -1.632391440430593 M108.25084031804565 -2.713198215567453 C108.29547355350316 -2.3670316551882786, 108.34010678896067 -2.020865094809104, 108.39019492013637 -1.632391440430593 M108.39019492013637 -1.632391440430593 C108.41387203471547 -1.263601269038276, 108.43754914929457 -0.8948110976459589, 108.4600156754117 -0.5448768187181379 M108.39019492013637 -1.632391440430593 C108.41057170399581 -1.315006583975748, 108.43094848785528 -0.9976217275209034, 108.4600156754117 -0.5448768187181379 M108.4600156754117 -0.5448768187181379 C108.4600156754117 -0.1287416285266274, 108.4600156754117 0.28739356166488306, 108.4600156754117 0.5448768187181336 M108.4600156754117 -0.5448768187181379 C108.4600156754117 -0.2317339327242139, 108.4600156754117 0.0814089532697101, 108.4600156754117 0.5448768187181336 M108.4600156754117 0.5448768187181336 C108.44245663573216 0.8183730351286841, 108.42489759605262 1.0918692515392345, 108.39019492013637 1.6323914404305815 M108.4600156754117 0.5448768187181336 C108.44026377504007 0.8525286104531679, 108.42051187466845 1.160180402188202, 108.39019492013637 1.6323914404305815 M108.39019492013637 1.6323914404305815 C108.36227425544321 1.848938602231859, 108.33435359075004 2.0654857640331366, 108.25084031804565 2.7131982155674415 M108.39019492013637 1.6323914404305815 C108.361037634487 1.8585295901697227, 108.33188034883764 2.084667739908864, 108.25084031804565 2.7131982155674415 M108.25084031804565 2.7131982155674415 C108.17746188316195 3.0899809701575096, 108.10408344827826 3.4667637247475778, 108.042524507091 3.782855877257343 M108.25084031804565 2.7131982155674415 C108.18993429417961 3.025937775626871, 108.12902827031357 3.3386773356863, 108.042524507091 3.782855877257343 M108.042524507091 3.782855877257343 C107.98715043517761 3.99402121273771, 107.9317763632642 4.2051865482180775, 107.76610350162323 4.836968972727545 M108.042524507091 3.782855877257343 C107.96944217050556 4.061550500742688, 107.89635983392012 4.340245124228033, 107.76610350162323 4.836968972727545 M107.76610350162323 4.836968972727545 C107.67126943281522 5.122594078220367, 107.5764353640072 5.4082191837131885, 107.42271317484592 5.871205925162227 M107.76610350162323 4.836968972727545 C107.6701872425676 5.1258534628226045, 107.57427098351195 5.4147379529176645, 107.42271317484592 5.871205925162227 M107.42271317484592 5.871205925162227 C107.30802904387305 6.15447794593206, 107.19334491290017 6.437749966701893, 107.01376459126881 6.881316833080694 M107.42271317484592 5.871205925162227 C107.2649109551069 6.260980458815987, 107.10710873536787 6.650754992469747, 107.01376459126881 6.881316833080694 M107.01376459126881 6.881316833080694 C106.8711732330461 7.177410839396464, 106.72858187482339 7.473504845712235, 106.540938208341 7.863150934094196 M107.01376459126881 6.881316833080694 C106.88666537054637 7.145241084398531, 106.75956614982391 7.409165335716368, 106.540938208341 7.863150934094196 M106.540938208341 7.863150934094196 C106.34346451253073 8.213785477385361, 106.14599081672046 8.564420020676527, 106.00617697109088 8.812673661278923 M106.540938208341 7.863150934094196 C106.41529597967704 8.08624143374231, 106.28965375101308 8.309331933390425, 106.00617697109088 8.812673661278923 M106.00617697109088 8.812673661278923 C105.79482105366097 9.137373107461825, 105.58346513623107 9.462072553644727, 105.41167832814826 9.725983222076879 M106.00617697109088 8.812673661278923 C105.83877232295504 9.069852155257822, 105.6713676748192 9.327030649236722, 105.41167832814826 9.725983222076879 M105.41167832814826 9.725983222076879 C105.26282768960156 9.925429517157301, 105.11397705105487 10.124875812237724, 104.75988520195651 10.599326631598467 M105.41167832814826 9.725983222076879 C105.15572811543345 10.068933189570645, 104.89977790271865 10.41188315706441, 104.75988520195651 10.599326631598467 M104.75988520195651 10.599326631598467 C104.50284629963087 10.90125915219803, 104.24580739730526 11.20319167279759, 104.05347595028037 11.42911513444238 M104.75988520195651 10.599326631598467 C104.5789932956569 10.811812557779051, 104.39810138935728 11.024298483959635, 104.05347595028037 11.42911513444238 M104.05347595028037 11.42911513444238 C103.76932533878663 11.722523970008742, 103.48517472729287 12.015932805575103, 103.29535336025927 12.211938951661365 M104.05347595028037 11.42911513444238 C103.7622721714555 11.729806944353928, 103.47106839263064 12.030498754265475, 103.29535336025927 12.211938951661365 M103.29535336025927 12.211938951661365 C103.0289501984978 12.453879254531728, 102.76254703673632 12.695819557402091, 102.48863272023242 12.944581292275275 M103.29535336025927 12.211938951661365 C103.08338417473095 12.40444375756086, 102.87141498920265 12.596948563460357, 102.48863272023242 12.944581292275275 M102.48863272023242 12.944581292275275 C102.27041112740318 13.118607205436124, 102.05218953457394 13.292633118596974, 101.63662901835067 13.62403157175526 M102.48863272023242 12.944581292275275 C102.27721648325338 13.113180115243706, 102.06580024627436 13.281778938212135, 101.63662901835067 13.62403157175526 M101.63662901835067 13.62403157175526 C101.45257221312372 13.752421631390908, 101.26851540789676 13.880811691026556, 100.74284332057934 14.247497783161286 M101.63662901835067 13.62403157175526 C101.35314738832342 13.821776085140291, 101.06966575829618 14.019520598525322, 100.74284332057934 14.247497783161286 M100.74284332057934 14.247497783161286 C100.37217550742167 14.472198789783318, 100.001507694264 14.696899796405352, 99.81094838406695 14.81241797009762 M100.74284332057934 14.247497783161286 C100.4191240751784 14.44373829210878, 100.09540482977748 14.639978801056273, 99.81094838406695 14.81241797009762 M99.81094838406695 14.81241797009762 C99.49490168611342 14.9772993299824, 99.1788549881599 15.142180689867182, 98.84477356499849 15.316470754341124 M99.81094838406695 14.81241797009762 C99.56487783747153 14.940792816640743, 99.31880729087611 15.069167663183865, 98.84477356499849 15.316470754341124 M98.84477356499849 15.316470754341124 C98.45029501629193 15.491094706063137, 98.05581646758536 15.66571865778515, 97.84828908294936 15.757584874882367 M98.84477356499849 15.316470754341124 C98.5328569440993 15.454546989735384, 98.22094032320011 15.592623225129646, 97.84828908294936 15.757584874882367 M97.84828908294936 15.757584874882367 C97.5397242452991 15.871139587479753, 97.23115940764885 15.984694300077141, 96.82558970640156 16.133947699181363 M97.84828908294936 15.757584874882367 C97.46966627839339 15.896921566909803, 97.09104347383742 16.036258258937238, 96.82558970640156 16.133947699181363 M96.82558970640156 16.133947699181363 C96.56342411954357 16.21175706922557, 96.30125853268557 16.289566439269777, 95.78087792646164 16.444012671663497 M96.82558970640156 16.133947699181363 C96.41955201197975 16.25445755555041, 96.01351431755793 16.374967411919453, 95.78087792646164 16.444012671663497 M95.78087792646164 16.444012671663497 C95.50444105457179 16.507107583753182, 95.22800418268193 16.570202495842867, 94.71844668792333 16.68650566884811 M95.78087792646164 16.444012671663497 C95.48936905701211 16.510547668842204, 95.19786018756258 16.577082666020907, 94.71844668792333 16.68650566884811 M94.71844668792333 16.68650566884811 C94.36700303928387 16.743324352473937, 94.01555939064441 16.800143036099765, 93.64266174863661 16.86043023499518 M94.71844668792333 16.68650566884811 C94.36528485254843 16.743602135580584, 94.01212301717354 16.800698602313062, 93.64266174863661 16.86043023499518 M93.64266174863661 16.86043023499518 C93.31060906154464 16.89246295836716, 92.97855637445267 16.92449568173914, 92.55794373967211 16.965071676755716 M93.64266174863661 16.86043023499518 C93.29375550043832 16.894088801137716, 92.94484925224002 16.927747367280247, 92.55794373967211 16.965071676755716 M92.55794373967211 16.965071676755716 C92.28828564164837 16.973719087101692, 92.01862754362462 16.982366497447668, 91.46875 17 M92.55794373967211 16.965071676755716 C92.29744231734864 16.97342545033437, 92.03694089502518 16.981779223913026, 91.46875 17 M91.46875 17 C91.46875 17, 91.46875 17, 91.46875 17 M91.46875 17 C91.46875 17, 91.46875 17, 91.46875 17 M91.46875 17 C28.881760509247407 17, -33.705228981505186 17, -91.46875 17 M91.46875 17 C47.16471463833401 17, 2.860679276668023 17, -91.46875 17 M-91.46875 17 C-91.87469371025101 16.986982175333747, -92.28063742050202 16.973964350667497, -92.55794373967211 16.965071676755716 M-91.46875 17 C-91.83244283888074 16.98833707854226, -92.19613567776148 16.97667415708452, -92.55794373967211 16.965071676755716 M-92.55794373967211 16.965071676755716 C-92.9550492195207 16.926763388703936, -93.3521546993693 16.888455100652155, -93.6426617486366 16.86043023499518 M-92.55794373967211 16.965071676755716 C-92.92090420881419 16.930057316821408, -93.28386467795629 16.8950429568871, -93.6426617486366 16.86043023499518 M-93.6426617486366 16.86043023499518 C-94.04221781307011 16.795833109101128, -94.44177387750364 16.731235983207075, -94.71844668792333 16.68650566884811 M-93.6426617486366 16.86043023499518 C-94.02825999537835 16.79808970082104, -94.4138582421201 16.7357491666469, -94.71844668792333 16.68650566884811 M-94.71844668792333 16.68650566884811 C-95.07168280906352 16.60588182927897, -95.42491893020372 16.525257989709836, -95.78087792646161 16.4440126716635 M-94.71844668792333 16.68650566884811 C-94.96836166741859 16.62946420562597, -95.21827664691385 16.572422742403827, -95.78087792646161 16.4440126716635 M-95.78087792646161 16.4440126716635 C-96.04816327650401 16.36468378278035, -96.3154486265464 16.285354893897203, -96.82558970640154 16.13394769918137 M-95.78087792646161 16.4440126716635 C-96.04567156157187 16.365423310692933, -96.31046519668212 16.286833949722364, -96.82558970640154 16.13394769918137 M-96.82558970640154 16.13394769918137 C-97.18252396955329 16.00259259087737, -97.53945823270503 15.871237482573369, -97.84828908294936 15.757584874882369 M-96.82558970640154 16.13394769918137 C-97.19260997126548 15.998880849013304, -97.55963023612941 15.86381399884524, -97.84828908294936 15.757584874882369 M-97.84828908294936 15.757584874882369 C-98.05562482695129 15.665803491409042, -98.2629605709532 15.574022107935713, -98.84477356499849 15.316470754341127 M-97.84828908294936 15.757584874882369 C-98.09823350313818 15.646941894402577, -98.34817792332699 15.536298913922783, -98.84477356499849 15.316470754341127 M-98.84477356499849 15.316470754341127 C-99.2263317426708 15.117412097449161, -99.6078899203431 14.918353440557198, -99.81094838406693 14.812417970097624 M-98.84477356499849 15.316470754341127 C-99.20632124624233 15.127851560618558, -99.56786892748616 14.93923236689599, -99.81094838406693 14.812417970097624 M-99.81094838406693 14.812417970097624 C-100.10967778075643 14.631326454295655, -100.40840717744592 14.450234938493688, -100.74284332057931 14.247497783161299 M-99.81094838406693 14.812417970097624 C-100.03955343750354 14.673836243271936, -100.26815849094015 14.53525451644625, -100.74284332057931 14.247497783161299 M-100.74284332057931 14.247497783161299 C-100.98809333636255 14.076421988852983, -101.2333433521458 13.905346194544668, -101.63662901835067 13.624031571755264 M-100.74284332057931 14.247497783161299 C-101.03048708655913 14.046849943911715, -101.31813085253896 13.846202104662131, -101.63662901835067 13.624031571755264 M-101.63662901835067 13.624031571755264 C-101.96792085393615 13.359835148921842, -102.29921268952162 13.095638726088422, -102.4886327202324 12.94458129227529 M-101.63662901835067 13.624031571755264 C-101.93045995472832 13.389709219163697, -102.22429089110595 13.155386866572128, -102.4886327202324 12.94458129227529 M-102.4886327202324 12.94458129227529 C-102.75846994634553 12.699522263021116, -103.02830717245865 12.454463233766942, -103.29535336025926 12.211938951661377 M-102.4886327202324 12.94458129227529 C-102.79440954876884 12.66688286701004, -103.10018637730526 12.38918444174479, -103.29535336025926 12.211938951661377 M-103.29535336025926 12.211938951661377 C-103.55149716088917 11.947449447713854, -103.80764096151908 11.682959943766331, -104.05347595028036 11.429115134442386 M-103.29535336025926 12.211938951661377 C-103.5857971106388 11.912031933519124, -103.87624086101833 11.612124915376873, -104.05347595028036 11.429115134442386 M-104.05347595028036 11.429115134442386 C-104.25755482396067 11.189392477000604, -104.461633697641 10.949669819558821, -104.75988520195651 10.599326631598473 M-104.05347595028036 11.429115134442386 C-104.32859428660238 11.10594548192173, -104.6037126229244 10.782775829401073, -104.75988520195651 10.599326631598473 M-104.75988520195651 10.599326631598473 C-104.89098254389688 10.423668136611912, -105.02207988583726 10.248009641625352, -105.41167832814824 9.72598322207689 M-104.75988520195651 10.599326631598473 C-104.9790666086556 10.305643514458621, -105.19824801535468 10.01196039731877, -105.41167832814824 9.72598322207689 M-105.41167832814824 9.72598322207689 C-105.61475294624212 9.414006075514363, -105.81782756433601 9.102028928951835, -106.00617697109088 8.812673661278936 M-105.41167832814824 9.72598322207689 C-105.55639512773152 9.503659356015106, -105.7011119273148 9.281335489953321, -106.00617697109088 8.812673661278936 M-106.00617697109088 8.812673661278936 C-106.19021405628148 8.485897180747374, -106.37425114147206 8.159120700215812, -106.540938208341 7.863150934094201 M-106.00617697109088 8.812673661278936 C-106.14285248761854 8.56999244178727, -106.27952800414621 8.327311222295606, -106.540938208341 7.863150934094201 M-106.540938208341 7.863150934094201 C-106.69798637186818 7.537037062237609, -106.85503453539538 7.210923190381016, -107.01376459126881 6.881316833080701 M-106.540938208341 7.863150934094201 C-106.64386578509844 7.649419618660033, -106.74679336185588 7.435688303225865, -107.01376459126881 6.881316833080701 M-107.01376459126881 6.881316833080701 C-107.16687758657035 6.503124774447526, -107.31999058187188 6.124932715814351, -107.42271317484592 5.87120592516224 M-107.01376459126881 6.881316833080701 C-107.13133755082505 6.590909349858265, -107.24891051038128 6.300501866635829, -107.42271317484592 5.87120592516224 M-107.42271317484592 5.87120592516224 C-107.55992532316255 5.457944796219538, -107.69713747147915 5.044683667276835, -107.76610350162323 4.8369689727275516 M-107.42271317484592 5.87120592516224 C-107.52829571387662 5.553208139894886, -107.63387825290731 5.235210354627531, -107.76610350162323 4.8369689727275516 M-107.76610350162323 4.8369689727275516 C-107.85491971280474 4.498274266303034, -107.94373592398625 4.159579559878516, -108.042524507091 3.782855877257349 M-107.76610350162323 4.8369689727275516 C-107.86069656788011 4.476244614195806, -107.955289634137 4.115520255664061, -108.042524507091 3.782855877257349 M-108.042524507091 3.782855877257349 C-108.08922443171446 3.5430616343484953, -108.1359243563379 3.303267391439641, -108.25084031804565 2.713198215567455 M-108.042524507091 3.782855877257349 C-108.09743616904571 3.500896098703803, -108.15234783100041 3.218936320150257, -108.25084031804565 2.713198215567455 M-108.25084031804565 2.713198215567455 C-108.29746358651776 2.351597352103437, -108.34408685498988 1.9899964886394188, -108.39019492013637 1.6323914404306026 M-108.25084031804565 2.713198215567455 C-108.29044121243888 2.406061498734695, -108.3300421068321 2.0989247819019354, -108.39019492013637 1.6323914404306026 M-108.39019492013637 1.6323914404306026 C-108.40867011901548 1.3446253049761991, -108.42714531789461 1.056859169521796, -108.4600156754117 0.54487681871814 M-108.39019492013637 1.6323914404306026 C-108.41399147749223 1.2617408513775616, -108.43778803484811 0.8910902623245206, -108.4600156754117 0.54487681871814 M-108.4600156754117 0.54487681871814 C-108.4600156754117 0.24623179726494115, -108.4600156754117 -0.05241322418825767, -108.4600156754117 -0.5448768187181317 M-108.4600156754117 0.54487681871814 C-108.4600156754117 0.2274208224085671, -108.4600156754117 -0.0900351739010058, -108.4600156754117 -0.5448768187181317 M-108.4600156754117 -0.5448768187181317 C-108.43859498694702 -0.8785213320238578, -108.41717429848235 -1.212165845329584, -108.39019492013637 -1.6323914404305793 M-108.4600156754117 -0.5448768187181317 C-108.44131993320185 -0.8360780945679598, -108.422624190992 -1.127279370417788, -108.39019492013637 -1.6323914404305793 M-108.39019492013637 -1.6323914404305793 C-108.34955407007996 -1.947593848024503, -108.30891322002356 -2.2627962556184267, -108.25084031804565 -2.713198215567447 M-108.39019492013637 -1.6323914404305793 C-108.34390693812814 -1.9913918882904398, -108.29761895611992 -2.3503923361503003, -108.25084031804565 -2.713198215567447 M-108.25084031804565 -2.713198215567447 C-108.20800277801945 -2.9331599298846562, -108.16516523799326 -3.1531216442018657, -108.042524507091 -3.782855877257341 M-108.25084031804565 -2.713198215567447 C-108.1913390156058 -3.018724827991299, -108.13183771316596 -3.324251440415151, -108.042524507091 -3.782855877257341 M-108.042524507091 -3.782855877257341 C-107.97825480658804 -4.027944099939542, -107.91398510608508 -4.273032322621742, -107.76610350162323 -4.836968972727544 M-108.042524507091 -3.782855877257341 C-107.96896919849917 -4.063354147990406, -107.89541388990733 -4.34385241872347, -107.76610350162323 -4.836968972727544 M-107.76610350162323 -4.836968972727544 C-107.66084762124375 -5.153982914183455, -107.55559174086427 -5.470996855639367, -107.42271317484594 -5.871205925162218 M-107.76610350162323 -4.836968972727544 C-107.65630659895133 -5.167659749814595, -107.54650969627941 -5.498350526901646, -107.42271317484594 -5.871205925162218 M-107.42271317484594 -5.871205925162218 C-107.33119905595362 -6.09724756813136, -107.2396849370613 -6.323289211100503, -107.01376459126881 -6.881316833080692 M-107.42271317484594 -5.871205925162218 C-107.26256194397914 -6.266782561716621, -107.10241071311233 -6.662359198271025, -107.01376459126881 -6.881316833080692 M-107.01376459126881 -6.881316833080692 C-106.87550155700163 -7.168422982091506, -106.73723852273446 -7.4555291311023195, -106.540938208341 -7.863150934094194 M-107.01376459126881 -6.881316833080692 C-106.85694425021993 -7.206957626686479, -106.70012390917104 -7.532598420292265, -106.540938208341 -7.863150934094194 M-106.540938208341 -7.863150934094194 C-106.40886878931337 -8.097653561056593, -106.27679937028574 -8.332156188018992, -106.00617697109088 -8.812673661278929 M-106.540938208341 -7.863150934094194 C-106.38217126516734 -8.145057718595341, -106.22340432199368 -8.426964503096489, -106.00617697109088 -8.812673661278929 M-106.00617697109088 -8.812673661278929 C-105.78653274807844 -9.15010617055827, -105.56688852506602 -9.487538679837614, -105.41167832814826 -9.725983222076884 M-106.00617697109088 -8.812673661278929 C-105.78760233150904 -9.148463003185512, -105.5690276919272 -9.484252345092095, -105.41167832814826 -9.725983222076884 M-105.41167832814826 -9.725983222076884 C-105.1762630600588 -10.04141823454462, -104.94084779196935 -10.356853247012356, -104.75988520195651 -10.599326631598467 M-105.41167832814826 -9.725983222076884 C-105.26080758718433 -9.928136270361287, -105.1099368462204 -10.13028931864569, -104.75988520195651 -10.599326631598467 M-104.75988520195651 -10.599326631598467 C-104.53836010895758 -10.8595426109699, -104.31683501595863 -11.119758590341332, -104.05347595028037 -11.42911513444238 M-104.75988520195651 -10.599326631598467 C-104.6138292359492 -10.770892280090564, -104.46777326994187 -10.94245792858266, -104.05347595028037 -11.42911513444238 M-104.05347595028037 -11.42911513444238 C-103.8873982831213 -11.60060396101418, -103.72132061596221 -11.77209278758598, -103.29535336025927 -12.21193895166136 M-104.05347595028037 -11.42911513444238 C-103.78305138962219 -11.708350695591285, -103.512626828964 -11.98758625674019, -103.29535336025927 -12.21193895166136 M-103.29535336025927 -12.21193895166136 C-102.99012269355404 -12.489141367202153, -102.68489202684883 -12.766343782742949, -102.48863272023242 -12.944581292275274 M-103.29535336025927 -12.21193895166136 C-103.0638069765836 -12.422223250933998, -102.83226059290796 -12.632507550206636, -102.48863272023242 -12.944581292275274 M-102.48863272023242 -12.944581292275274 C-102.28330077791578 -13.10832805216033, -102.07796883559914 -13.272074812045384, -101.63662901835067 -13.624031571755259 M-102.48863272023242 -12.944581292275274 C-102.2254669762828 -13.154448969940532, -101.96230123233319 -13.36431664760579, -101.63662901835067 -13.624031571755259 M-101.63662901835067 -13.624031571755259 C-101.42367164688125 -13.772581415316301, -101.21071427541182 -13.921131258877343, -100.74284332057934 -14.247497783161284 M-101.63662901835067 -13.624031571755259 C-101.44708326145876 -13.756250486459493, -101.25753750456684 -13.888469401163727, -100.74284332057934 -14.247497783161284 M-100.74284332057934 -14.247497783161284 C-100.45625053336806 -14.421232014974924, -100.16965774615679 -14.594966246788564, -99.81094838406695 -14.812417970097618 M-100.74284332057934 -14.247497783161284 C-100.39133831795031 -14.460582181427682, -100.03983331532129 -14.67366657969408, -99.81094838406695 -14.812417970097618 M-99.81094838406695 -14.812417970097618 C-99.55848372494074 -14.944128621052425, -99.30601906581454 -15.075839272007233, -98.84477356499849 -15.316470754341124 M-99.81094838406695 -14.812417970097618 C-99.59276480081301 -14.926244205727938, -99.37458121755908 -15.040070441358258, -98.84477356499849 -15.316470754341124 M-98.84477356499849 -15.316470754341124 C-98.55332300827425 -15.445487270229355, -98.26187245155002 -15.574503786117589, -97.84828908294936 -15.757584874882365 M-98.84477356499849 -15.316470754341124 C-98.61392711014072 -15.418659632089877, -98.38308065528295 -15.520848509838629, -97.84828908294936 -15.757584874882365 M-97.84828908294936 -15.757584874882365 C-97.52781429860465 -15.87552255795765, -97.20733951425994 -15.993460241032935, -96.82558970640156 -16.133947699181363 M-97.84828908294936 -15.757584874882365 C-97.45764511290781 -15.901345466930934, -97.06700114286625 -16.0451060589795, -96.82558970640156 -16.133947699181363 M-96.82558970640156 -16.133947699181363 C-96.56076153122167 -16.212547311463293, -96.2959333560418 -16.291146923745224, -95.78087792646164 -16.444012671663494 M-96.82558970640156 -16.133947699181363 C-96.46190132535807 -16.2418885016358, -96.0982129443146 -16.34982930409024, -95.78087792646164 -16.444012671663494 M-95.78087792646164 -16.444012671663494 C-95.41212756429246 -16.528177535507613, -95.0433772021233 -16.612342399351732, -94.71844668792333 -16.68650566884811 M-95.78087792646164 -16.444012671663494 C-95.3590546862115 -16.540291073596702, -94.93723144596133 -16.636569475529907, -94.71844668792333 -16.68650566884811 M-94.71844668792333 -16.68650566884811 C-94.37090536193176 -16.742693455211192, -94.02336403594018 -16.798881241574275, -93.64266174863661 -16.86043023499518 M-94.71844668792333 -16.68650566884811 C-94.45888172642813 -16.728470118866316, -94.19931676493292 -16.770434568884518, -93.64266174863661 -16.86043023499518 M-93.64266174863661 -16.86043023499518 C-93.39847500689203 -16.88398663629376, -93.15428826514746 -16.907543037592333, -92.55794373967213 -16.965071676755716 M-93.64266174863661 -16.86043023499518 C-93.34671170665922 -16.88898017961274, -93.05076166468184 -16.9175301242303, -92.55794373967213 -16.965071676755716 M-92.55794373967213 -16.965071676755716 C-92.27877217569724 -16.974024165437907, -91.99960061172234 -16.982976654120097, -91.46875 -17 M-92.55794373967213 -16.965071676755716 C-92.24306957957043 -16.975169078204807, -91.92819541946872 -16.985266479653895, -91.46875 -17 M-91.46875 -17 C-91.46875 -17, -91.46875 -17, -91.46875 -17 M-91.46875 -17 C-91.46875 -17, -91.46875 -17, -91.46875 -17" stroke="#9370DB" stroke-width="1.3" fill="none" stroke-dasharray="0 0" style=""></path></g><g class="label" style="" transform="translate(0, -9.5)"><rect></rect><g><rect class="background" style="stroke: none"></rect><text y="-10.1" style=""><tspan class="text-outer-tspan row" x="0" y="-0.1em" dy="1.1em"><tspan font-style="normal" class="text-inner-tspan" font-weight="normal">Query</tspan><tspan font-style="normal" class="text-inner-tspan" font-weight="normal"> against</tspan><tspan font-style="normal" class="text-inner-tspan" font-weight="normal"> index</tspan><tspan font-style="normal" class="text-inner-tspan" font-weight="normal"> a,</tspan><tspan font-style="normal" class="text-inner-tspan" font-weight="normal"> b,</tspan><tspan font-style="normal" class="text-inner-tspan" font-weight="normal"> c</tspan></tspan></text></g></g></g><g class="node default" id="g502dad87-cfa7-477a-8d6c-f3f4b4fb742b-light-flowchart-Q1-1" data-look="classic" transform="translate(748.73828125, 156.6171875)"><polygon points="64.6171875,0 129.234375,-64.6171875 64.6171875,-129.234375 0,-64.6171875" class="label-container" transform="translate(-64.1171875, 64.6171875)"></polygon><g class="label" style="" transform="translate(0, -9.5)"><rect></rect><g><rect class="background" style="stroke: none"></rect><text y="-10.1" style=""><tspan class="text-outer-tspan row" x="0" y="-0.1em" dy="1.1em"><tspan font-style="normal" class="text-inner-tspan" font-weight="normal">Filter</tspan><tspan font-style="normal" class="text-inner-tspan" font-weight="normal"> on</tspan><tspan font-style="normal" class="text-inner-tspan" font-weight="normal"> a?</tspan></tspan></text></g></g></g><g class="node default" id="g502dad87-cfa7-477a-8d6c-f3f4b4fb742b-light-flowchart-Q2-2" data-look="classic" transform="translate(623.3671875, 377.203125)"><polygon points="82.96875,0 165.9375,-82.96875 82.96875,-165.9375 0,-82.96875" class="label-container" transform="translate(-82.46875, 82.96875)"></polygon><g class="label" style="" transform="translate(0, -9.5)"><rect></rect><g><rect class="background" style="stroke: none"></rect><text y="-10.1" style=""><tspan class="text-outer-tspan row" x="0" y="-0.1em" dy="1.1em"><tspan font-style="normal" class="text-inner-tspan" font-weight="normal">Filter</tspan><tspan font-style="normal" class="text-inner-tspan" font-weight="normal"> type</tspan><tspan font-style="normal" class="text-inner-tspan" font-weight="normal"> on</tspan><tspan font-style="normal" class="text-inner-tspan" font-weight="normal"> a?</tspan></tspan></text></g></g></g><g class="node default" id="g502dad87-cfa7-477a-8d6c-f3f4b4fb742b-light-flowchart-Q3-3" data-look="classic" transform="translate(503.53515625, 598.0390625)"><polygon points="64.8671875,0 129.734375,-64.8671875 64.8671875,-129.734375 0,-64.8671875" class="label-container" transform="translate(-64.3671875, 64.8671875)"></polygon><g class="label" style="" transform="translate(0, -9.5)"><rect></rect><g><rect class="background" style="stroke: none"></rect><text y="-10.1" style=""><tspan class="text-outer-tspan row" x="0" y="-0.1em" dy="1.1em"><tspan font-style="normal" class="text-inner-tspan" font-weight="normal">Filter</tspan><tspan font-style="normal" class="text-inner-tspan" font-weight="normal"> on</tspan><tspan font-style="normal" class="text-inner-tspan" font-weight="normal"> b?</tspan></tspan></text></g></g></g><g class="node default" id="g502dad87-cfa7-477a-8d6c-f3f4b4fb742b-light-flowchart-Q4-4" data-look="classic" transform="translate(374.7421875, 819.125)"><polygon points="83.21875,0 166.4375,-83.21875 83.21875,-166.4375 0,-83.21875" class="label-container" transform="translate(-82.71875, 83.21875)"></polygon><g class="label" style="" transform="translate(0, -9.5)"><rect></rect><g><rect class="background" style="stroke: none"></rect><text y="-10.1" style=""><tspan class="text-outer-tspan row" x="0" y="-0.1em" dy="1.1em"><tspan font-style="normal" class="text-inner-tspan" font-weight="normal">Filter</tspan><tspan font-style="normal" class="text-inner-tspan" font-weight="normal"> type</tspan><tspan font-style="normal" class="text-inner-tspan" font-weight="normal"> on</tspan><tspan font-style="normal" class="text-inner-tspan" font-weight="normal"> b?</tspan></tspan></text></g></g></g><g class="node default" id="g502dad87-cfa7-477a-8d6c-f3f4b4fb742b-light-flowchart-Q5-5" data-look="classic" transform="translate(253.7734375, 1039.71875)"><polygon points="64.375,0 128.75,-64.375 64.375,-128.75 0,-64.375" class="label-container" transform="translate(-63.875, 64.375)"></polygon><g class="label" style="" transform="translate(0, -9.5)"><rect></rect><g><rect class="background" style="stroke: none"></rect><text y="-10.1" style=""><tspan class="text-outer-tspan row" x="0" y="-0.1em" dy="1.1em"><tspan font-style="normal" class="text-inner-tspan" font-weight="normal">Filter</tspan><tspan font-style="normal" class="text-inner-tspan" font-weight="normal"> on</tspan><tspan font-style="normal" class="text-inner-tspan" font-weight="normal"> c?</tspan></tspan></text></g></g></g><g class="node default" id="g502dad87-cfa7-477a-8d6c-f3f4b4fb742b-light-flowchart-NoIdx-6" data-look="classic" transform="translate(874.109375, 377.203125)"><rect class="basic label-container" style="" x="-117.7734375" y="-42.099998474121094" width="235.546875" height="84.19999694824219"></rect><g class="label" style="" transform="translate(0, -27.099998474121094)"><rect></rect><g><rect class="background" style="stroke: none"></rect><text y="-10.1" style=""><tspan class="text-outer-tspan row" x="0" y="-0.1em" dy="1.1em"><tspan font-style="normal" class="text-inner-tspan" font-weight="normal">Cannot</tspan><tspan font-style="normal" class="text-inner-tspan" font-weight="normal"> drive</tspan><tspan font-style="normal" class="text-inner-tspan" font-weight="normal"> index</tspan><tspan font-style="normal" class="text-inner-tspan" font-weight="normal"> walk</tspan></tspan><tspan class="text-outer-tspan row" x="0" y="1em" dy="1.1em"><tspan font-style="normal" class="text-inner-tspan" font-weight="normal">Falls</tspan><tspan font-style="normal" class="text-inner-tspan" font-weight="normal"> back</tspan><tspan font-style="normal" class="text-inner-tspan" font-weight="normal"> to</tspan><tspan font-style="normal" class="text-inner-tspan" font-weight="normal"> seq</tspan><tspan font-style="normal" class="text-inner-tspan" font-weight="normal"> scan</tspan><tspan font-style="normal" class="text-inner-tspan" font-weight="normal"> or</tspan></tspan><tspan class="text-outer-tspan row" x="0" y="2.1em" dy="1.1em"><tspan font-style="normal" class="text-inner-tspan" font-weight="normal">other</tspan><tspan font-style="normal" class="text-inner-tspan" font-weight="normal"> index</tspan></tspan></text></g></g></g><g class="node default" id="g502dad87-cfa7-477a-8d6c-f3f4b4fb742b-light-flowchart-EqA-7" data-look="classic" transform="translate(743.19921875, 598.0390625)"><rect class="basic label-container" style="" x="-124.796875" y="-42.099998474121094" width="249.59375" height="84.19999694824219"></rect><g class="label" style="" transform="translate(0, -27.099998474121094)"><rect></rect><g><rect class="background" style="stroke: none"></rect><text y="-10.1" style=""><tspan class="text-outer-tspan row" x="0" y="-0.1em" dy="1.1em"><tspan font-style="normal" class="text-inner-tspan" font-weight="normal">Range</tspan><tspan font-style="normal" class="text-inner-tspan" font-weight="normal"> on</tspan><tspan font-style="normal" class="text-inner-tspan" font-weight="normal"> first</tspan><tspan font-style="normal" class="text-inner-tspan" font-weight="normal"> key</tspan><tspan font-style="normal" class="text-inner-tspan" font-weight="normal"> —</tspan><tspan font-style="normal" class="text-inner-tspan" font-weight="normal"> index</tspan></tspan><tspan class="text-outer-tspan row" x="0" y="1em" dy="1.1em"><tspan font-style="normal" class="text-inner-tspan" font-weight="normal">walks</tspan></tspan><tspan class="text-outer-tspan row" x="0" y="2.1em" dy="1.1em"><tspan font-style="normal" class="text-inner-tspan" font-weight="normal">bounded</tspan><tspan font-style="normal" class="text-inner-tspan" font-weight="normal"> by</tspan><tspan font-style="normal" class="text-inner-tspan" font-weight="normal"> a</tspan></tspan></text></g></g></g><g class="node default" id="g502dad87-cfa7-477a-8d6c-f3f4b4fb742b-light-flowchart-BothEq-8" data-look="classic" transform="translate(394.109375, 1219.193748474121)"><rect class="basic label-container" style="" x="-125.234375" y="-42.099998474121094" width="250.46875" height="84.19999694824219"></rect><g class="label" style="" transform="translate(0, -27.099998474121094)"><rect></rect><g><rect class="background" style="stroke: none"></rect><text y="-10.1" style=""><tspan class="text-outer-tspan row" x="0" y="-0.1em" dy="1.1em"><tspan font-style="normal" class="text-inner-tspan" font-weight="normal">Equality</tspan><tspan font-style="normal" class="text-inner-tspan" font-weight="normal"> on</tspan><tspan font-style="normal" class="text-inner-tspan" font-weight="normal"> a</tspan><tspan font-style="normal" class="text-inner-tspan" font-weight="normal"> then</tspan><tspan font-style="normal" class="text-inner-tspan" font-weight="normal"> b</tspan></tspan><tspan class="text-outer-tspan row" x="0" y="1em" dy="1.1em"><tspan font-style="normal" class="text-inner-tspan" font-weight="normal">index</tspan><tspan font-style="normal" class="text-inner-tspan" font-weight="normal"> walks</tspan><tspan font-style="normal" class="text-inner-tspan" font-weight="normal"> bounded</tspan><tspan font-style="normal" class="text-inner-tspan" font-weight="normal"> by</tspan><tspan font-style="normal" class="text-inner-tspan" font-weight="normal"> a,</tspan></tspan><tspan class="text-outer-tspan row" x="0" y="2.1em" dy="1.1em"><tspan font-style="normal" class="text-inner-tspan" font-weight="normal">b</tspan></tspan></text></g></g></g><g class="node default" id="g502dad87-cfa7-477a-8d6c-f3f4b4fb742b-light-flowchart-RangeB-9" data-look="classic" transform="translate(495.7109375, 1039.71875)"><rect class="basic label-container" style="" x="-127.5625" y="-42.099998474121094" width="255.125" height="84.19999694824219"></rect><g class="label" style="" transform="translate(0, -27.099998474121094)"><rect></rect><g><rect class="background" style="stroke: none"></rect><text y="-10.1" style=""><tspan class="text-outer-tspan row" x="0" y="-0.1em" dy="1.1em"><tspan font-style="normal" class="text-inner-tspan" font-weight="normal">Range</tspan><tspan font-style="normal" class="text-inner-tspan" font-weight="normal"> on</tspan><tspan font-style="normal" class="text-inner-tspan" font-weight="normal"> b</tspan><tspan font-style="normal" class="text-inner-tspan" font-weight="normal"> —</tspan><tspan font-style="normal" class="text-inner-tspan" font-weight="normal"> index</tspan><tspan font-style="normal" class="text-inner-tspan" font-weight="normal"> walk</tspan></tspan><tspan class="text-outer-tspan row" x="0" y="1em" dy="1.1em"><tspan font-style="normal" class="text-inner-tspan" font-weight="normal">stops</tspan><tspan font-style="normal" class="text-inner-tspan" font-weight="normal"> at</tspan><tspan font-style="normal" class="text-inner-tspan" font-weight="normal"> b</tspan></tspan><tspan class="text-outer-tspan row" x="0" y="2.1em" dy="1.1em"><tspan font-style="normal" class="text-inner-tspan" font-weight="normal">c</tspan><tspan font-style="normal" class="text-inner-tspan" font-weight="normal"> applied</tspan><tspan font-style="normal" class="text-inner-tspan" font-weight="normal"> as</tspan><tspan font-style="normal" class="text-inner-tspan" font-weight="normal"> filter</tspan><tspan font-style="normal" class="text-inner-tspan" font-weight="normal"> on</tspan><tspan font-style="normal" class="text-inner-tspan" font-weight="normal"> result</tspan></tspan></text></g></g></g><g class="node default" id="g502dad87-cfa7-477a-8d6c-f3f4b4fb742b-light-flowchart-FullScan-10" data-look="classic" transform="translate(113.4375, 1219.193748474121)"><rect class="basic label-container" style="" x="-105.4375" y="-33.29999923706055" width="210.875" height="66.5999984741211"></rect><g class="label" style="" transform="translate(0, -18.299999237060547)"><rect></rect><g><rect class="background" style="stroke: none"></rect><text y="-10.1" style=""><tspan class="text-outer-tspan row" x="0" y="-0.1em" dy="1.1em"><tspan font-style="normal" class="text-inner-tspan" font-weight="normal">Equality</tspan><tspan font-style="normal" class="text-inner-tspan" font-weight="normal"> on</tspan><tspan font-style="normal" class="text-inner-tspan" font-weight="normal"> a,</tspan><tspan font-style="normal" class="text-inner-tspan" font-weight="normal"> b,</tspan><tspan font-style="normal" class="text-inner-tspan" font-weight="normal"> c</tspan></tspan><tspan class="text-outer-tspan row" x="0" y="1em" dy="1.1em"><tspan font-style="normal" class="text-inner-tspan" font-weight="normal">full-key</tspan><tspan font-style="normal" class="text-inner-tspan" font-weight="normal"> index</tspan><tspan font-style="normal" class="text-inner-tspan" font-weight="normal"> lookup</tspan></tspan></text></g></g></g><g class="node default" id="g502dad87-cfa7-477a-8d6c-f3f4b4fb742b-light-flowchart-OnlyA-11" data-look="classic" transform="translate(632.328125, 819.125)"><rect class="basic label-container" style="" x="-124.3671875" y="-42.099998474121094" width="248.734375" height="84.19999694824219"></rect><g class="label" style="" transform="translate(0, -27.099998474121094)"><rect></rect><g><rect class="background" style="stroke: none"></rect><text y="-10.1" style=""><tspan class="text-outer-tspan row" x="0" y="-0.1em" dy="1.1em"><tspan font-style="normal" class="text-inner-tspan" font-weight="normal">Only</tspan><tspan font-style="normal" class="text-inner-tspan" font-weight="normal"> a</tspan><tspan font-style="normal" class="text-inner-tspan" font-weight="normal"> —</tspan><tspan font-style="normal" class="text-inner-tspan" font-weight="normal"> index</tspan><tspan font-style="normal" class="text-inner-tspan" font-weight="normal"> narrows</tspan><tspan font-style="normal" class="text-inner-tspan" font-weight="normal"> by</tspan></tspan><tspan class="text-outer-tspan row" x="0" y="1em" dy="1.1em"><tspan font-style="normal" class="text-inner-tspan" font-weight="normal">a</tspan></tspan><tspan class="text-outer-tspan row" x="0" y="2.1em" dy="1.1em"><tspan font-style="normal" class="text-inner-tspan" font-weight="normal">b,</tspan><tspan font-style="normal" class="text-inner-tspan" font-weight="normal"> c</tspan><tspan font-style="normal" class="text-inner-tspan" font-weight="normal"> applied</tspan><tspan font-style="normal" class="text-inner-tspan" font-weight="normal"> as</tspan><tspan font-style="normal" class="text-inner-tspan" font-weight="normal"> filters</tspan></tspan></text></g></g></g></g></g></g><defs><filter id="g502dad87-cfa7-477a-8d6c-f3f4b4fb742b-light-drop-shadow" height="130%" width="130%"><feDropShadow dx="4" dy="4" stdDeviation="0" flood-opacity="0.06" flood-color="#000000"></feDropShadow></filter></defs><defs><filter id="g502dad87-cfa7-477a-8d6c-f3f4b4fb742b-light-drop-shadow-small" height="150%" width="150%"><feDropShadow dx="2" dy="2" stdDeviation="0" flood-opacity="0.06" flood-color="#000000"></feDropShadow></filter></defs></svg>