<svg id="g6856fda7-dc98-4938-b974-978689327b63-dark" width="100%" xmlns="http://www.w3.org/2000/svg" xmlns:xlink="http://www.w3.org/1999/xlink" class="flowchart" style="max-width: 331.57421875px;" viewBox="0 0 331.57421875 703.3999633789062" role="graphics-document document" aria-roledescription="flowchart-v2"><style>#g6856fda7-dc98-4938-b974-978689327b63-dark{font-family:"trebuchet ms",verdana,arial,sans-serif;font-size:16px;fill:#e5e5e5;}@keyframes edge-animation-frame{from{stroke-dashoffset:0;}}@keyframes dash{to{stroke-dashoffset:0;}}#g6856fda7-dc98-4938-b974-978689327b63-dark .edge-animation-slow{stroke-dasharray:9,5!important;stroke-dashoffset:900;animation:dash 50s linear infinite;stroke-linecap:round;}#g6856fda7-dc98-4938-b974-978689327b63-dark .edge-animation-fast{stroke-dasharray:9,5!important;stroke-dashoffset:900;animation:dash 20s linear infinite;stroke-linecap:round;}#g6856fda7-dc98-4938-b974-978689327b63-dark .error-icon{fill:#252525;}#g6856fda7-dc98-4938-b974-978689327b63-dark .error-text{fill:#cccccc;stroke:#cccccc;}#g6856fda7-dc98-4938-b974-978689327b63-dark .edge-thickness-normal{stroke-width:1px;}#g6856fda7-dc98-4938-b974-978689327b63-dark .edge-thickness-thick{stroke-width:3.5px;}#g6856fda7-dc98-4938-b974-978689327b63-dark .edge-pattern-solid{stroke-dasharray:0;}#g6856fda7-dc98-4938-b974-978689327b63-dark .edge-thickness-invisible{stroke-width:0;fill:none;}#g6856fda7-dc98-4938-b974-978689327b63-dark .edge-pattern-dashed{stroke-dasharray:3;}#g6856fda7-dc98-4938-b974-978689327b63-dark .edge-pattern-dotted{stroke-dasharray:2;}#g6856fda7-dc98-4938-b974-978689327b63-dark .marker{fill:#cccccc;stroke:#cccccc;}#g6856fda7-dc98-4938-b974-978689327b63-dark .marker.cross{stroke:#cccccc;}#g6856fda7-dc98-4938-b974-978689327b63-dark svg{font-family:"trebuchet ms",verdana,arial,sans-serif;font-size:16px;}#g6856fda7-dc98-4938-b974-978689327b63-dark p{margin:0;}#g6856fda7-dc98-4938-b974-978689327b63-dark .label{font-family:"trebuchet ms",verdana,arial,sans-serif;color:#e5e5e5;}#g6856fda7-dc98-4938-b974-978689327b63-dark .cluster-label text{fill:#e5e5e5;}#g6856fda7-dc98-4938-b974-978689327b63-dark .cluster-label span{color:#e5e5e5;}#g6856fda7-dc98-4938-b974-978689327b63-dark .cluster-label span p{background-color:transparent;}#g6856fda7-dc98-4938-b974-978689327b63-dark .label text,#g6856fda7-dc98-4938-b974-978689327b63-dark span{fill:#e5e5e5;color:#e5e5e5;}#g6856fda7-dc98-4938-b974-978689327b63-dark .node rect,#g6856fda7-dc98-4938-b974-978689327b63-dark .node circle,#g6856fda7-dc98-4938-b974-978689327b63-dark .node ellipse,#g6856fda7-dc98-4938-b974-978689327b63-dark .node polygon,#g6856fda7-dc98-4938-b974-978689327b63-dark .node path{fill:#2d2d2d;stroke:#555555;stroke-width:1px;}#g6856fda7-dc98-4938-b974-978689327b63-dark .rough-node .label text,#g6856fda7-dc98-4938-b974-978689327b63-dark .node .label text,#g6856fda7-dc98-4938-b974-978689327b63-dark .image-shape .label,#g6856fda7-dc98-4938-b974-978689327b63-dark .icon-shape .label{text-anchor:middle;}#g6856fda7-dc98-4938-b974-978689327b63-dark .node .katex path{fill:#000;stroke:#000;stroke-width:1px;}#g6856fda7-dc98-4938-b974-978689327b63-dark .rough-node .label,#g6856fda7-dc98-4938-b974-978689327b63-dark .node .label,#g6856fda7-dc98-4938-b974-978689327b63-dark .image-shape .label,#g6856fda7-dc98-4938-b974-978689327b63-dark .icon-shape .label{text-align:center;}#g6856fda7-dc98-4938-b974-978689327b63-dark .node.clickable{cursor:pointer;}#g6856fda7-dc98-4938-b974-978689327b63-dark .root .anchor path{fill:#cccccc!important;stroke-width:0;stroke:#cccccc;}#g6856fda7-dc98-4938-b974-978689327b63-dark .arrowheadPath{fill:#cccccc;}#g6856fda7-dc98-4938-b974-978689327b63-dark .edgePath .path{stroke:#cccccc;stroke-width:1px;}#g6856fda7-dc98-4938-b974-978689327b63-dark .flowchart-link{stroke:#cccccc;fill:none;}#g6856fda7-dc98-4938-b974-978689327b63-dark .edgeLabel{background-color:#1e1e1e;text-align:center;}#g6856fda7-dc98-4938-b974-978689327b63-dark .edgeLabel p{background-color:#1e1e1e;}#g6856fda7-dc98-4938-b974-978689327b63-dark .edgeLabel rect{opacity:0.5;background-color:#1e1e1e;fill:#1e1e1e;}#g6856fda7-dc98-4938-b974-978689327b63-dark .labelBkg{background-color:rgba(30, 30, 30, 0.5);}#g6856fda7-dc98-4938-b974-978689327b63-dark .cluster rect{fill:#1e1e1e;stroke:#555555;stroke-width:1px;}#g6856fda7-dc98-4938-b974-978689327b63-dark .cluster text{fill:#e5e5e5;}#g6856fda7-dc98-4938-b974-978689327b63-dark .cluster span{color:#e5e5e5;}#g6856fda7-dc98-4938-b974-978689327b63-dark div.mermaidTooltip{position:absolute;text-align:center;max-width:200px;padding:2px;font-family:"trebuchet ms",verdana,arial,sans-serif;font-size:12px;background:#252525;border:1px solid #555555;border-radius:2px;pointer-events:none;z-index:100;}#g6856fda7-dc98-4938-b974-978689327b63-dark .flowchartTitleText{text-anchor:middle;font-size:18px;fill:#e5e5e5;}#g6856fda7-dc98-4938-b974-978689327b63-dark rect.text{fill:none;stroke-width:0;}#g6856fda7-dc98-4938-b974-978689327b63-dark .icon-shape,#g6856fda7-dc98-4938-b974-978689327b63-dark .image-shape{background-color:#1e1e1e;text-align:center;}#g6856fda7-dc98-4938-b974-978689327b63-dark .icon-shape p,#g6856fda7-dc98-4938-b974-978689327b63-dark .image-shape p{background-color:#1e1e1e;padding:2px;}#g6856fda7-dc98-4938-b974-978689327b63-dark .icon-shape .label rect,#g6856fda7-dc98-4938-b974-978689327b63-dark .image-shape .label rect{opacity:0.5;background-color:#1e1e1e;fill:#1e1e1e;}#g6856fda7-dc98-4938-b974-978689327b63-dark .label-icon{display:inline-block;height:1em;overflow:visible;vertical-align:-0.125em;}#g6856fda7-dc98-4938-b974-978689327b63-dark .node .label-icon path{fill:currentColor;stroke:revert;stroke-width:revert;}#g6856fda7-dc98-4938-b974-978689327b63-dark .node .neo-node{stroke:#555555;}#g6856fda7-dc98-4938-b974-978689327b63-dark [data-look="neo"].node rect,#g6856fda7-dc98-4938-b974-978689327b63-dark [data-look="neo"].cluster rect,#g6856fda7-dc98-4938-b974-978689327b63-dark [data-look="neo"].node polygon{stroke:url(#g6856fda7-dc98-4938-b974-978689327b63-dark-gradient);filter:drop-shadow( 1px 2px 2px rgba(185,185,185,1));}#g6856fda7-dc98-4938-b974-978689327b63-dark [data-look="neo"].node path{stroke:url(#g6856fda7-dc98-4938-b974-978689327b63-dark-gradient);stroke-width:1px;}#g6856fda7-dc98-4938-b974-978689327b63-dark [data-look="neo"].node .outer-path{filter:drop-shadow( 1px 2px 2px rgba(185,185,185,1));}#g6856fda7-dc98-4938-b974-978689327b63-dark [data-look="neo"].node .neo-line path{stroke:#555555;filter:none;}#g6856fda7-dc98-4938-b974-978689327b63-dark [data-look="neo"].node circle{stroke:url(#g6856fda7-dc98-4938-b974-978689327b63-dark-gradient);filter:drop-shadow( 1px 2px 2px rgba(185,185,185,1));}#g6856fda7-dc98-4938-b974-978689327b63-dark [data-look="neo"].node circle .state-start{fill:#000000;}#g6856fda7-dc98-4938-b974-978689327b63-dark [data-look="neo"].icon-shape .icon{fill:url(#g6856fda7-dc98-4938-b974-978689327b63-dark-gradient);filter:drop-shadow( 1px 2px 2px rgba(185,185,185,1));}#g6856fda7-dc98-4938-b974-978689327b63-dark [data-look="neo"].icon-shape .icon-neo path{stroke:url(#g6856fda7-dc98-4938-b974-978689327b63-dark-gradient);filter:drop-shadow( 1px 2px 2px rgba(185,185,185,1));}#g6856fda7-dc98-4938-b974-978689327b63-dark :root{--mermaid-font-family:"trebuchet ms",verdana,arial,sans-serif;}</style><g><marker id="g6856fda7-dc98-4938-b974-978689327b63-dark_flowchart-v2-pointEnd" class="marker flowchart-v2" viewBox="0 0 10 10" refX="5" refY="5" markerUnits="userSpaceOnUse" markerWidth="8" markerHeight="8" orient="auto"><path d="M 0 0 L 10 5 L 0 10 z" class="arrowMarkerPath" style="stroke-width: 1; stroke-dasharray: 1, 0;"></path></marker><marker id="g6856fda7-dc98-4938-b974-978689327b63-dark_flowchart-v2-pointStart" class="marker flowchart-v2" viewBox="0 0 10 10" refX="4.5" refY="5" markerUnits="userSpaceOnUse" markerWidth="8" markerHeight="8" orient="auto"><path d="M 0 5 L 10 10 L 10 0 z" class="arrowMarkerPath" style="stroke-width: 1; stroke-dasharray: 1, 0;"></path></marker><marker id="g6856fda7-dc98-4938-b974-978689327b63-dark_flowchart-v2-pointEnd-margin" class="marker flowchart-v2" viewBox="0 0 11.5 14" refX="11.5" refY="7" markerUnits="userSpaceOnUse" markerWidth="10.5" markerHeight="14" orient="auto"><path d="M 0 0 L 11.5 7 L 0 14 z" class="arrowMarkerPath" style="stroke-width: 0; stroke-dasharray: 1, 0;"></path></marker><marker id="g6856fda7-dc98-4938-b974-978689327b63-dark_flowchart-v2-pointStart-margin" class="marker flowchart-v2" viewBox="0 0 11.5 14" refX="1" refY="7" markerUnits="userSpaceOnUse" markerWidth="11.5" markerHeight="14" orient="auto"><polygon points="0,7 11.5,14 11.5,0" class="arrowMarkerPath" style="stroke-width: 0; stroke-dasharray: 1, 0;"></polygon></marker><marker id="g6856fda7-dc98-4938-b974-978689327b63-dark_flowchart-v2-circleEnd" class="marker flowchart-v2" viewBox="0 0 10 10" refX="11" refY="5" markerUnits="userSpaceOnUse" markerWidth="11" markerHeight="11" orient="auto"><circle cx="5" cy="5" r="5" class="arrowMarkerPath" style="stroke-width: 1; stroke-dasharray: 1, 0;"></circle></marker><marker id="g6856fda7-dc98-4938-b974-978689327b63-dark_flowchart-v2-circleStart" class="marker flowchart-v2" viewBox="0 0 10 10" refX="-1" refY="5" markerUnits="userSpaceOnUse" markerWidth="11" markerHeight="11" orient="auto"><circle cx="5" cy="5" r="5" class="arrowMarkerPath" style="stroke-width: 1; stroke-dasharray: 1, 0;"></circle></marker><marker id="g6856fda7-dc98-4938-b974-978689327b63-dark_flowchart-v2-circleEnd-margin" class="marker flowchart-v2" viewBox="0 0 10 10" refY="5" refX="12.25" markerUnits="userSpaceOnUse" markerWidth="14" markerHeight="14" orient="auto"><circle cx="5" cy="5" r="5" class="arrowMarkerPath" style="stroke-width: 0; stroke-dasharray: 1, 0;"></circle></marker><marker id="g6856fda7-dc98-4938-b974-978689327b63-dark_flowchart-v2-circleStart-margin" class="marker flowchart-v2" viewBox="0 0 10 10" refX="-2" refY="5" markerUnits="userSpaceOnUse" markerWidth="14" markerHeight="14" orient="auto"><circle cx="5" cy="5" r="5" class="arrowMarkerPath" style="stroke-width: 0; stroke-dasharray: 1, 0;"></circle></marker><marker id="g6856fda7-dc98-4938-b974-978689327b63-dark_flowchart-v2-crossEnd" class="marker cross flowchart-v2" viewBox="0 0 11 11" refX="12" refY="5.2" markerUnits="userSpaceOnUse" markerWidth="11" markerHeight="11" orient="auto"><path d="M 1,1 l 9,9 M 10,1 l -9,9" class="arrowMarkerPath" style="stroke-width: 2; stroke-dasharray: 1, 0;"></path></marker><marker id="g6856fda7-dc98-4938-b974-978689327b63-dark_flowchart-v2-crossStart" class="marker cross flowchart-v2" viewBox="0 0 11 11" refX="-1" refY="5.2" markerUnits="userSpaceOnUse" markerWidth="11" markerHeight="11" orient="auto"><path d="M 1,1 l 9,9 M 10,1 l -9,9" class="arrowMarkerPath" style="stroke-width: 2; stroke-dasharray: 1, 0;"></path></marker><marker id="g6856fda7-dc98-4938-b974-978689327b63-dark_flowchart-v2-crossEnd-margin" class="marker cross flowchart-v2" viewBox="0 0 15 15" refX="17.7" refY="7.5" markerUnits="userSpaceOnUse" markerWidth="12" markerHeight="12" orient="auto"><path d="M 1,1 L 14,14 M 1,14 L 14,1" class="arrowMarkerPath" style="stroke-width: 2.5;"></path></marker><marker id="g6856fda7-dc98-4938-b974-978689327b63-dark_flowchart-v2-crossStart-margin" class="marker cross flowchart-v2" viewBox="0 0 15 15" refX="-3.5" refY="7.5" markerUnits="userSpaceOnUse" markerWidth="12" markerHeight="12" orient="auto"><path d="M 1,1 L 14,14 M 1,14 L 14,1" class="arrowMarkerPath" style="stroke-width: 2.5; stroke-dasharray: 1, 0;"></path></marker><g class="root"><g class="clusters"></g><g class="edgePaths"><path d="M130.758,42.5L130.674,46.583C130.591,50.667,130.424,58.833,130.341,66.417C130.258,74,130.258,81,130.258,84.5L130.258,88" id="g6856fda7-dc98-4938-b974-978689327b63-dark-L_Attacker_Edge_0" class="edge-thickness-normal edge-pattern-solid edge-thickness-normal edge-pattern-solid flowchart-link" style=";" data-edge="true" data-et="edge" data-id="L_Attacker_Edge_0" data-points="W3sieCI6MTMwLjc1NzgxMjUsInkiOjQyLjV9LHsieCI6MTMwLjI1NzgxMjUsInkiOjY3fSx7IngiOjEzMC4yNTc4MTI1LCJ5Ijo5Mn1d" data-look="classic" marker-end="url(#g6856fda7-dc98-4938-b974-978689327b63-dark_flowchart-v2-pointEnd)"></path><path d="M130.258,158.6L130.258,162.767C130.258,166.933,130.258,175.267,130.258,182.933C130.258,190.6,130.258,197.6,130.258,201.1L130.258,204.6" id="g6856fda7-dc98-4938-b974-978689327b63-dark-L_Edge_Browser_0" class="edge-thickness-normal edge-pattern-solid edge-thickness-normal edge-pattern-solid flowchart-link" style=";" data-edge="true" data-et="edge" data-id="L_Edge_Browser_0" data-points="W3sieCI6MTMwLjI1NzgxMjUsInkiOjE1OC41OTk5OTg0NzQxMjExfSx7IngiOjEzMC4yNTc4MTI1LCJ5IjoxODMuNTk5OTk4NDc0MTIxMX0seyJ4IjoxMzAuMjU3ODEyNSwieSI6MjA4LjU5OTk5ODQ3NDEyMTF9XQ==" data-look="classic" marker-end="url(#g6856fda7-dc98-4938-b974-978689327b63-dark_flowchart-v2-pointEnd)"></path><path d="M130.258,310.4L130.258,314.567C130.258,318.733,130.258,327.067,130.258,334.733C130.258,342.4,130.258,349.4,130.258,352.9L130.258,356.4" id="g6856fda7-dc98-4938-b974-978689327b63-dark-L_Browser_App_0" class="edge-thickness-normal edge-pattern-solid edge-thickness-normal edge-pattern-solid flowchart-link" style=";" data-edge="true" data-et="edge" data-id="L_Browser_App_0" data-points="W3sieCI6MTMwLjI1NzgxMjUsInkiOjMxMC40MDAwMDE1MjU4Nzg5fSx7IngiOjEzMC4yNTc4MTI1LCJ5IjozMzUuNDAwMDAxNTI1ODc4OX0seyJ4IjoxMzAuMjU3ODEyNSwieSI6MzYwLjQwMDAwMTUyNTg3ODl9XQ==" data-look="classic" marker-end="url(#g6856fda7-dc98-4938-b974-978689327b63-dark_flowchart-v2-pointEnd)"></path><path d="M181.296,462.2L185.474,466.367C189.651,470.533,198.007,478.867,202.185,486.533C206.363,494.2,206.363,501.2,206.363,504.7L206.363,508.2" id="g6856fda7-dc98-4938-b974-978689327b63-dark-L_App_Data_0" class="edge-thickness-normal edge-pattern-solid edge-thickness-normal edge-pattern-solid flowchart-link" style=";" data-edge="true" data-et="edge" data-id="L_App_Data_0" data-points="W3sieCI6MTgxLjI5NTYwNDMwMDA2OTA0LCJ5Ijo0NjIuMjAwMDA0NTc3NjM2N30seyJ4IjoyMDYuMzYzMjgxMjUsInkiOjQ4Ny4yMDAwMDQ1Nzc2MzY3fSx7IngiOjIwNi4zNjMyODEyNSwieSI6NTEyLjIwMDAwNDU3NzYzNjd9XQ==" data-look="classic" marker-end="url(#g6856fda7-dc98-4938-b974-978689327b63-dark_flowchart-v2-pointEnd)"></path><path d="M79.22,462.2L75.042,466.367C70.864,470.533,62.508,478.867,58.33,492.75C54.152,506.633,54.152,526.067,54.152,545.5C54.152,564.933,54.152,584.367,59.062,597.845C63.972,611.323,73.792,618.845,78.702,622.606L83.612,626.368" id="g6856fda7-dc98-4938-b974-978689327b63-dark-L_App_Ops_0" class="edge-thickness-normal edge-pattern-dotted edge-thickness-normal edge-pattern-solid flowchart-link" style=";" data-edge="true" data-et="edge" data-id="L_App_Ops_0" data-points="W3sieCI6NzkuMjIwMDIwNjk5OTMwOTcsInkiOjQ2Mi4yMDAwMDQ1Nzc2MzY3fSx7IngiOjU0LjE1MjM0Mzc1LCJ5Ijo0ODcuMjAwMDA0NTc3NjM2N30seyJ4Ijo1NC4xNTIzNDM3NSwieSI6NTQ1LjUwMDAwMzgxNDY5NzN9LHsieCI6NTQuMTUyMzQzNzUsInkiOjYwMy44MDAwMDMwNTE3NTc4fSx7IngiOjg2Ljc4NzYyMjM3MTc2MjMsInkiOjYyOC44MDAwMDMwNTE3NTc4fV0=" data-look="classic" marker-end="url(#g6856fda7-dc98-4938-b974-978689327b63-dark_flowchart-v2-pointEnd)"></path><path d="M206.363,578.8L206.363,582.967C206.363,587.133,206.363,595.467,201.453,603.395C196.543,611.323,186.723,618.845,181.813,622.606L176.903,626.368" id="g6856fda7-dc98-4938-b974-978689327b63-dark-L_Data_Ops_0" class="edge-thickness-normal edge-pattern-dotted edge-thickness-normal edge-pattern-solid flowchart-link" style=";" data-edge="true" data-et="edge" data-id="L_Data_Ops_0" data-points="W3sieCI6MjA2LjM2MzI4MTI1LCJ5Ijo1NzguODAwMDAzMDUxNzU3OH0seyJ4IjoyMDYuMzYzMjgxMjUsInkiOjYwMy44MDAwMDMwNTE3NTc4fSx7IngiOjE3My43MjgwMDI2MjgyMzc3LCJ5Ijo2MjguODAwMDAzMDUxNzU3OH1d" data-look="classic" marker-end="url(#g6856fda7-dc98-4938-b974-978689327b63-dark_flowchart-v2-pointEnd)"></path></g><g class="edgeLabels"><g class="edgeLabel"><g class="label" data-id="L_Attacker_Edge_0" transform="translate(0, 0)"><text y="-10.1" text-anchor="middle"><tspan class="text-outer-tspan row" x="0" y="-0.1em" dy="1.1em" text-anchor="middle"></tspan></text></g></g><g><rect class="background" style="stroke: none"></rect></g><g class="edgeLabel"><g class="label" data-id="L_Edge_Browser_0" transform="translate(0, 0)"><text y="-10.1" text-anchor="middle"><tspan class="text-outer-tspan row" x="0" y="-0.1em" dy="1.1em" text-anchor="middle"></tspan></text></g></g><g><rect class="background" style="stroke: none"></rect></g><g class="edgeLabel"><g class="label" data-id="L_Browser_App_0" transform="translate(0, 0)"><text y="-10.1" text-anchor="middle"><tspan class="text-outer-tspan row" x="0" y="-0.1em" dy="1.1em" text-anchor="middle"></tspan></text></g></g><g><rect class="background" style="stroke: none"></rect></g><g class="edgeLabel"><g class="label" data-id="L_App_Data_0" transform="translate(0, 0)"><text y="-10.1" text-anchor="middle"><tspan class="text-outer-tspan row" x="0" y="-0.1em" dy="1.1em" text-anchor="middle"></tspan></text></g></g><g><rect class="background" style="stroke: none"></rect></g><g class="edgeLabel"><g class="label" data-id="L_App_Ops_0" transform="translate(0, 0)"><text y="-10.1" text-anchor="middle"><tspan class="text-outer-tspan row" x="0" y="-0.1em" dy="1.1em" text-anchor="middle"></tspan></text></g></g><g><rect class="background" style="stroke: none"></rect></g><g class="edgeLabel"><g class="label" data-id="L_Data_Ops_0" transform="translate(0, 0)"><text y="-10.1" text-anchor="middle"><tspan class="text-outer-tspan row" x="0" y="-0.1em" dy="1.1em" text-anchor="middle"></tspan></text></g></g><g><rect class="background" style="stroke: none"></rect></g></g><g class="nodes"><g class="node default" id="g6856fda7-dc98-4938-b974-978689327b63-dark-flowchart-Attacker-0" data-look="classic" transform="translate(130.2578125, 25)"><g class="basic label-container outer-path"><path d="M-25.484375 -17 C-15.177522245082962 -17, -4.870669490165923 -17, 25.484375 -17 C25.484375 -17, 25.484375 -17, 25.484375 -17 C25.919311944957997 -16.9860524187286, 26.35424888991599 -16.972104837457206, 26.57356873967212 -16.965071676755716 C26.81133810770397 -16.942134351781185, 27.049107475735823 -16.919197026806657, 27.6582867486366 -16.860430234995185 C27.88275035183078 -16.82414070037199, 28.10721395502496 -16.787851165748798, 28.734071687923326 -16.686505668848113 C28.990659416643293 -16.62794119415919, 29.24724714536326 -16.569376719470267, 29.79650292646162 -16.4440126716635 C30.110038066868896 -16.35095708777016, 30.423573207276174 -16.257901503876813, 30.84121470640155 -16.133947699181366 C31.098529105645937 -16.0392536216712, 31.355843504890327 -15.944559544161033, 31.86391408294936 -15.757584874882369 C32.24929840010463 -15.58698666969732, 32.6346827172599 -15.416388464512272, 32.86039856499849 -15.316470754341125 C33.114597330895926 -15.183855420994512, 33.36879609679337 -15.051240087647898, 33.82657338406694 -14.812417970097622 C34.054914652726765 -14.673996151153792, 34.2832559213866 -14.535574332209963, 34.758468320579325 -14.247497783161291 C35.09701603991833 -14.01134154964497, 35.435563759257334 -13.775185316128645, 35.652254018350675 -13.624031571755262 C35.852167277510596 -13.464606067490472, 36.05208053667052 -13.305180563225683, 36.5042577202324 -12.944581292275288 C36.73488102491025 -12.735135308925132, 36.96550432958809 -12.525689325574977, 37.31097836025927 -12.21193895166137 C37.56543768787606 -11.949188804397707, 37.81989701549285 -11.686438657134044, 38.06910095028036 -11.42911513444239 C38.32134630744496 -11.13281338474942, 38.57359166460956 -10.83651163505645, 38.77551020195651 -10.59932663159847 C38.94020376152074 -10.378652265674328, 39.104897321084984 -10.157977899750184, 39.42730332814825 -9.725983222076888 C39.56171106933453 -9.519496838082677, 39.696118810520815 -9.313010454088468, 40.02180197109088 -8.812673661278927 C40.18981227370377 -8.514354356101789, 40.357822576316664 -8.216035050924651, 40.556563208341004 -7.863150934094199 C40.712283544621236 -7.539794323926849, 40.868003880901476 -7.216437713759499, 41.02938959126881 -6.881316833080699 C41.16676452036014 -6.54199810226155, 41.30413944945146 -6.202679371442402, 41.438338174845924 -5.871205925162238 C41.55600675598773 -5.516806906705497, 41.673675337129545 -5.162407888248757, 41.781728501623235 -4.836968972727556 C41.88437246664034 -4.445543047941476, 41.98701643165745 -4.054117123155397, 42.058149507091 -3.7828558772573464 C42.13476057289999 -3.3894742460826497, 42.21137163870899 -2.9960926149079525, 42.26646531804565 -2.713198215567453 C42.322057011181926 -2.2820400214239416, 42.37764870431821 -1.8508818272804302, 42.405819920136366 -1.632391440430593 C42.42648164771401 -1.3105683555624439, 42.44714337529166 -0.9887452706942949, 42.4756406754117 -0.5448768187181379 C42.4756406754117 -0.23741925978752948, 42.4756406754117 0.07003829914307891, 42.4756406754117 0.5448768187181336 C42.45748506198604 0.827665152770059, 42.439329448560386 1.1104534868219844, 42.405819920136366 1.6323914404305815 C42.37217214924088 1.8933569069920875, 42.33852437834539 2.154322373553593, 42.266465318045654 2.7131982155674415 C42.18585229173981 3.127129068078804, 42.105239265433966 3.5410599205901665, 42.058149507091 3.782855877257343 C41.97248438994314 4.10953409643878, 41.88681927279527 4.436212315620216, 41.781728501623235 4.836968972727545 C41.6534012059307 5.223470341175538, 41.52507391023816 5.60997170962353, 41.438338174845924 5.871205925162227 C41.33590047420967 6.124229026231977, 41.23346277357342 6.377252127301728, 41.02938959126881 6.881316833080694 C40.864456770563805 7.223803364271673, 40.69952394985879 7.566289895462651, 40.556563208341004 7.863150934094196 C40.35169901310515 8.226908057484717, 40.14683481786928 8.590665180875238, 40.02180197109089 8.812673661278923 C39.833931907235836 9.101292529536117, 39.646061843380785 9.38991139779331, 39.427303328148255 9.725983222076879 C39.24947605188223 9.964255571875208, 39.07164877561621 10.202527921673536, 38.77551020195651 10.599326631598467 C38.58402338180871 10.8242579464528, 38.392536561660926 11.049189261307133, 38.06910095028037 11.42911513444238 C37.82725927856492 11.678836516059093, 37.58541760684947 11.928557897675807, 37.31097836025927 12.211938951661365 C37.00225419555693 12.492314069650249, 36.69353003085459 12.772689187639132, 36.50425772023242 12.944581292275275 C36.29987901084647 13.107567874264701, 36.09550030146052 13.270554456254127, 35.652254018350675 13.62403157175526 C35.3912979116706 13.806063255167494, 35.13034180499052 13.988094938579728, 34.75846832057934 14.247497783161286 C34.49609152869362 14.40655213629959, 34.23371473680789 14.565606489437894, 33.82657338406695 14.81241797009762 C33.46339124638299 15.001889858698076, 33.10020910869904 15.191361747298533, 32.86039856499849 15.316470754341124 C32.65573061589761 15.407071184149085, 32.45106266679673 15.497671613957047, 31.863914082949368 15.757584874882367 C31.645119314691005 15.83810337211811, 31.426324546432642 15.918621869353855, 30.841214706401562 16.133947699181363 C30.495511639007425 16.236550554951513, 30.14980857161329 16.339153410721664, 29.796502926461642 16.444012671663497 C29.470918344592185 16.518325227837245, 29.14533376272273 16.592637784010993, 28.734071687923333 16.68650566884811 C28.422793871168885 16.736830652265446, 28.11151605441444 16.787155635682783, 27.658286748636613 16.86043023499518 C27.364901653987765 16.888732742228758, 27.07151655933892 16.91703524946233, 26.57356873967212 16.965071676755716 C26.280497675543533 16.9744698953541, 25.98742661141495 16.983868113952482, 25.484375000000004 17 C25.484375000000004 17, 25.484375 17, 25.484375 17 C13.438427063431782 17, 1.392479126863563 17, -25.484374999999996 17 C-25.783601082016254 16.990404401957974, -26.082827164032512 16.98080880391595, -26.573568739672112 16.965071676755716 C-26.870475154180713 16.936429472030277, -27.167381568689315 16.90778726730484, -27.658286748636606 16.86043023499518 C-27.919837797732598 16.81814468973602, -28.18138884682859 16.77585914447686, -28.73407168792333 16.68650566884811 C-29.091802819921796 16.604855872383258, -29.44953395192026 16.52320607591841, -29.79650292646162 16.4440126716635 C-30.208572853155474 16.32171248041995, -30.62064277984933 16.199412289176397, -30.841214706401544 16.13394769918137 C-31.155660892538688 16.018228595974218, -31.47010707867583 15.90250949276707, -31.86391408294936 15.757584874882369 C-32.195043448243275 15.611003727470376, -32.526172813537194 15.464422580058383, -32.86039856499848 15.316470754341127 C-33.16219643762944 15.159022997500319, -33.463994310260404 15.00157524065951, -33.82657338406693 14.812417970097624 C-34.164782703277936 14.607393493253342, -34.50299202248894 14.402369016409061, -34.75846832057932 14.247497783161299 C-35.09971061007531 14.00946193414952, -35.4409528995713 13.771426085137742, -35.65225401835067 13.624031571755264 C-35.95028438086098 13.386360288574314, -36.248314743371296 13.148689005393365, -36.5042577202324 12.94458129227529 C-36.81092759802916 12.666071823300603, -37.117597475825924 12.387562354325915, -37.31097836025926 12.211938951661377 C-37.564326541426794 11.950336154333398, -37.81767472259432 11.688733357005416, -38.069100950280365 11.429115134442386 C-38.319515500479035 11.134963954787468, -38.569930050677705 10.840812775132548, -38.77551020195651 10.599326631598473 C-39.0116750163521 10.282887295365573, -39.2478398307477 9.966447959132672, -39.42730332814825 9.72598322207689 C-39.58479091428836 9.484039998427452, -39.742278500428476 9.242096774778013, -40.02180197109088 8.812673661278936 C-40.202823212667965 8.491252116470438, -40.38384445424504 8.16983057166194, -40.556563208341004 7.863150934094201 C-40.71297637377252 7.538355649370055, -40.86938953920403 7.213560364645907, -41.02938959126881 6.881316833080701 C-41.1628162046661 6.551750518361306, -41.2962428180634 6.222184203641912, -41.438338174845924 5.87120592516224 C-41.526860157876165 5.604591816337779, -41.61538214090641 5.337977707513317, -41.781728501623235 4.8369689727275516 C-41.88187115338697 4.455081639452603, -41.98201380515071 4.073194306177654, -42.058149507091 3.782855877257349 C-42.13529574596376 3.386726245509087, -42.212441984836516 2.9905966137608253, -42.26646531804565 2.713198215567455 C-42.30877814038698 2.385028321099947, -42.35109096272831 2.0568584266324383, -42.405819920136366 1.6323914404306026 C-42.42349386407594 1.3571054974210135, -42.441167808015514 1.0818195544114242, -42.4756406754117 0.54487681871814 C-42.4756406754117 0.15020770055060723, -42.4756406754117 -0.24446141761692552, -42.4756406754117 -0.5448768187181317 C-42.45586172298566 -0.8529499680367048, -42.436082770559615 -1.1610231173552776, -42.405819920136366 -1.6323914404305793 C-42.36475637659511 -1.950872175222719, -42.323692833053855 -2.2693529100148586, -42.266465318045654 -2.713198215567447 C-42.21786920016507 -2.9627290100911017, -42.169273082284484 -3.2122598046147566, -42.058149507091 -3.782855877257341 C-41.96367767187369 -4.143117929293337, -41.86920583665638 -4.503379981329332, -41.781728501623235 -4.836968972727544 C-41.668792989679545 -5.177112740871728, -41.55585747773585 -5.517256509015912, -41.43833817484593 -5.871205925162218 C-41.32175179069536 -6.159176548058518, -41.20516540654479 -6.4471471709548185, -41.02938959126881 -6.881316833080692 C-40.884205239942766 -7.182795245056695, -40.73902088861673 -7.484273657032698, -40.556563208341004 -7.863150934094194 C-40.40163109722694 -8.138248585954674, -40.246698986112875 -8.413346237815153, -40.02180197109088 -8.812673661278929 C-39.85555912108147 -9.068067321349144, -39.68931627107206 -9.323460981419357, -39.42730332814825 -9.725983222076884 C-39.236396146930815 -9.981781452906244, -39.04548896571339 -10.237579683735605, -38.77551020195651 -10.599326631598467 C-38.541339923721004 -10.874396365080193, -38.3071696454855 -11.149466098561916, -38.06910095028037 -11.42911513444238 C-37.83401578212452 -11.671859871414554, -37.598930613968655 -11.914604608386728, -37.31097836025928 -12.21193895166136 C-37.0679670152597 -12.432635425462127, -36.824955670260124 -12.653331899262893, -36.50425772023242 -12.944581292275274 C-36.218864916619275 -13.172174458535295, -35.93347211300613 -13.399767624795318, -35.652254018350675 -13.624031571755259 C-35.38998299237877 -13.806980485943535, -35.12771196640686 -13.989929400131812, -34.75846832057934 -14.247497783161284 C-34.4107820399389 -14.458267249716897, -34.06309575929846 -14.669036716272512, -33.82657338406695 -14.812417970097618 C-33.60996683087867 -14.925421470152823, -33.39336027769039 -15.038424970208029, -32.86039856499849 -15.316470754341124 C-32.636809493509354 -15.415447003755213, -32.41322042202022 -15.514423253169303, -31.863914082949368 -15.757584874882365 C-31.478754952322156 -15.899326995325154, -31.093595821694947 -16.041069115767943, -30.841214706401566 -16.133947699181363 C-30.451611479579718 -16.249579891833015, -30.062008252757867 -16.36521208448467, -29.796502926461642 -16.444012671663494 C-29.526315455974597 -16.505681198664146, -29.25612798548755 -16.567349725664794, -28.734071687923336 -16.68650566884811 C-28.360998118533168 -16.74682131031837, -27.987924549143 -16.80713695178863, -27.658286748636613 -16.86043023499518 C-27.286086893874 -16.896335907348313, -26.913887039111387 -16.932241579701447, -26.57356873967212 -16.965071676755716 C-26.34794792464991 -16.972306897149203, -26.122327109627708 -16.979542117542692, -25.484375000000004 -17 C-25.484375000000004 -17, -25.484375000000004 -17, -25.484375 -17" stroke="none" stroke-width="0" fill="#2d2d2d" style=""></path><path d="M-25.484375 -17 C-7.52529706223244 -17, 10.43378087553512 -17, 25.484375 -17 M-25.484375 -17 C-9.796646935991836 -17, 5.891081128016328 -17, 25.484375 -17 M25.484375 -17 C25.484375 -17, 25.484375 -17, 25.484375 -17 M25.484375 -17 C25.484375 -17, 25.484375 -17, 25.484375 -17 M25.484375 -17 C25.845055813184867 -16.988433668343774, 26.205736626369738 -16.976867336687548, 26.57356873967212 -16.965071676755716 M25.484375 -17 C25.835735621871542 -16.98873254873854, 26.18709624374309 -16.977465097477083, 26.57356873967212 -16.965071676755716 M26.57356873967212 -16.965071676755716 C26.826949299354826 -16.940628358897833, 27.080329859037537 -16.91618504103995, 27.6582867486366 -16.860430234995185 M26.57356873967212 -16.965071676755716 C26.88908406259621 -16.93463429301592, 27.2045993855203 -16.90419690927613, 27.6582867486366 -16.860430234995185 M27.6582867486366 -16.860430234995185 C27.986815419507117 -16.807316267266735, 28.31534409037764 -16.75420229953828, 28.734071687923326 -16.686505668848113 M27.6582867486366 -16.860430234995185 C27.8984285997011 -16.821605962842945, 28.138570450765595 -16.782781690690708, 28.734071687923326 -16.686505668848113 M28.734071687923326 -16.686505668848113 C29.05172251997747 -16.614003939297152, 29.369373352031616 -16.54150220974619, 29.79650292646162 -16.4440126716635 M28.734071687923326 -16.686505668848113 C29.063078500213514 -16.61141201091297, 29.392085312503703 -16.53631835297783, 29.79650292646162 -16.4440126716635 M29.79650292646162 -16.4440126716635 C30.18050065546673 -16.330044161339995, 30.56449838447184 -16.216075651016492, 30.84121470640155 -16.133947699181366 M29.79650292646162 -16.4440126716635 C30.120437368954008 -16.347870629498345, 30.444371811446395 -16.251728587333194, 30.84121470640155 -16.133947699181366 M30.84121470640155 -16.133947699181366 C31.059819563652024 -16.053499090952045, 31.278424420902496 -15.973050482722721, 31.86391408294936 -15.757584874882369 M30.84121470640155 -16.133947699181366 C31.052966305685707 -16.05602115323447, 31.264717904969864 -15.978094607287575, 31.86391408294936 -15.757584874882369 M31.86391408294936 -15.757584874882369 C32.080386341891696 -15.661759027270005, 32.29685860083403 -15.565933179657643, 32.86039856499849 -15.316470754341125 M31.86391408294936 -15.757584874882369 C32.2455472266704 -15.588647202902045, 32.62718037039144 -15.419709530921724, 32.86039856499849 -15.316470754341125 M32.86039856499849 -15.316470754341125 C33.145713145238595 -15.167622320582574, 33.4310277254787 -15.018773886824022, 33.82657338406694 -14.812417970097622 M32.86039856499849 -15.316470754341125 C33.10393970092298 -15.189415499724863, 33.34748083684747 -15.0623602451086, 33.82657338406694 -14.812417970097622 M33.82657338406694 -14.812417970097622 C34.07393182408957 -14.662467830116356, 34.32129026411221 -14.51251769013509, 34.758468320579325 -14.247497783161291 M33.82657338406694 -14.812417970097622 C34.09502511549496 -14.649680952908467, 34.36347684692299 -14.486943935719314, 34.758468320579325 -14.247497783161291 M34.758468320579325 -14.247497783161291 C35.06234748829925 -14.035524830477025, 35.36622665601918 -13.823551877792758, 35.652254018350675 -13.624031571755262 M34.758468320579325 -14.247497783161291 C35.017750254263305 -14.066633930357359, 35.27703218794728 -13.885770077553424, 35.652254018350675 -13.624031571755262 M35.652254018350675 -13.624031571755262 C35.87699687518375 -13.444805124089475, 36.10173973201683 -13.265578676423688, 36.5042577202324 -12.944581292275288 M35.652254018350675 -13.624031571755262 C35.84749999546964 -13.468328100716546, 36.042745972588605 -13.312624629677828, 36.5042577202324 -12.944581292275288 M36.5042577202324 -12.944581292275288 C36.72543412430913 -12.743714734099772, 36.94661052838587 -12.542848175924256, 37.31097836025927 -12.21193895166137 M36.5042577202324 -12.944581292275288 C36.788742777154816 -12.686219490640486, 37.07322783407724 -12.427857689005682, 37.31097836025927 -12.21193895166137 M37.31097836025927 -12.21193895166137 C37.54293444799654 -11.97242524712367, 37.7748905357338 -11.732911542585969, 38.06910095028036 -11.42911513444239 M37.31097836025927 -12.21193895166137 C37.54167755577659 -11.973723091533536, 37.772376751293905 -11.735507231405702, 38.06910095028036 -11.42911513444239 M38.06910095028036 -11.42911513444239 C38.21532987554141 -11.257346318169201, 38.361558800802456 -11.085577501896015, 38.77551020195651 -10.59932663159847 M38.06910095028036 -11.42911513444239 C38.27579271101781 -11.186323231185817, 38.482484471755264 -10.943531327929245, 38.77551020195651 -10.59932663159847 M38.77551020195651 -10.59932663159847 C39.024332525893065 -10.265927385703522, 39.27315484982962 -9.932528139808575, 39.42730332814825 -9.725983222076888 M38.77551020195651 -10.59932663159847 C38.93806238742202 -10.381521511883427, 39.10061457288753 -10.163716392168384, 39.42730332814825 -9.725983222076888 M39.42730332814825 -9.725983222076888 C39.61710759478181 -9.434392898945735, 39.806911861415365 -9.142802575814583, 40.02180197109088 -8.812673661278927 M39.42730332814825 -9.725983222076888 C39.56569908199757 -9.513370179700901, 39.704094835846895 -9.300757137324913, 40.02180197109088 -8.812673661278927 M40.02180197109088 -8.812673661278927 C40.13643646985404 -8.609128500723214, 40.2510709686172 -8.405583340167501, 40.556563208341004 -7.863150934094199 M40.02180197109088 -8.812673661278927 C40.220164414878816 -8.460461055957927, 40.41852685866675 -8.108248450636928, 40.556563208341004 -7.863150934094199 M40.556563208341004 -7.863150934094199 C40.68723277576472 -7.591812781458002, 40.817902343188436 -7.320474628821804, 41.02938959126881 -6.881316833080699 M40.556563208341004 -7.863150934094199 C40.68713182193033 -7.592022414255182, 40.81770043551965 -7.320893894416164, 41.02938959126881 -6.881316833080699 M41.02938959126881 -6.881316833080699 C41.13221979639851 -6.627324238323569, 41.235050001528215 -6.373331643566438, 41.438338174845924 -5.871205925162238 M41.02938959126881 -6.881316833080699 C41.178265136044516 -6.5135913591718655, 41.327140680820214 -6.145865885263032, 41.438338174845924 -5.871205925162238 M41.438338174845924 -5.871205925162238 C41.55384817379315 -5.52330821235223, 41.66935817274037 -5.175410499542222, 41.781728501623235 -4.836968972727556 M41.438338174845924 -5.871205925162238 C41.5396478064101 -5.566077456388663, 41.640957437974286 -5.260948987615087, 41.781728501623235 -4.836968972727556 M41.781728501623235 -4.836968972727556 C41.86584339340779 -4.516202434728329, 41.94995828519235 -4.195435896729101, 42.058149507091 -3.7828558772573464 M41.781728501623235 -4.836968972727556 C41.87847443743613 -4.468034789519157, 41.97522037324903 -4.099100606310757, 42.058149507091 -3.7828558772573464 M42.058149507091 -3.7828558772573464 C42.11409914178064 -3.4955663280855243, 42.17004877647028 -3.2082767789137017, 42.26646531804565 -2.713198215567453 M42.058149507091 -3.7828558772573464 C42.10835873533922 -3.525042101926868, 42.158567963587444 -3.2672283265963893, 42.26646531804565 -2.713198215567453 M42.26646531804565 -2.713198215567453 C42.30114293446812 -2.4442454704646592, 42.335820550890595 -2.1752927253618655, 42.405819920136366 -1.632391440430593 M42.26646531804565 -2.713198215567453 C42.31504550366383 -2.336419889155519, 42.36362568928202 -1.9596415627435846, 42.405819920136366 -1.632391440430593 M42.405819920136366 -1.632391440430593 C42.432327266222295 -1.219518128797663, 42.45883461230822 -0.8066448171647334, 42.4756406754117 -0.5448768187181379 M42.405819920136366 -1.632391440430593 C42.42092865330958 -1.3970607257078407, 42.4360373864828 -1.1617300109850885, 42.4756406754117 -0.5448768187181379 M42.4756406754117 -0.5448768187181379 C42.4756406754117 -0.23031171336899375, 42.4756406754117 0.08425339198015036, 42.4756406754117 0.5448768187181336 M42.4756406754117 -0.5448768187181379 C42.4756406754117 -0.26500669947454597, 42.4756406754117 0.014863419769045927, 42.4756406754117 0.5448768187181336 M42.4756406754117 0.5448768187181336 C42.4542134477734 0.8786231849314556, 42.4327862201351 1.2123695511447776, 42.405819920136366 1.6323914404305815 M42.4756406754117 0.5448768187181336 C42.457356564433994 0.8296666058646182, 42.43907245345628 1.1144563930111027, 42.405819920136366 1.6323914404305815 M42.405819920136366 1.6323914404305815 C42.37444425449305 1.8757349073342082, 42.343068588849725 2.119078374237835, 42.266465318045654 2.7131982155674415 M42.405819920136366 1.6323914404305815 C42.361536061550474 1.9758483027857707, 42.31725220296459 2.31930516514096, 42.266465318045654 2.7131982155674415 M42.266465318045654 2.7131982155674415 C42.194693593197414 3.0817308537037222, 42.12292186834918 3.4502634918400035, 42.058149507091 3.782855877257343 M42.266465318045654 2.7131982155674415 C42.21505493503126 2.977179666758048, 42.16364455201687 3.2411611179486544, 42.058149507091 3.782855877257343 M42.058149507091 3.782855877257343 C41.96214968094898 4.1489448209246955, 41.86614985480697 4.515033764592049, 41.781728501623235 4.836968972727545 M42.058149507091 3.782855877257343 C41.99868603987005 4.00961584940055, 41.9392225726491 4.236375821543756, 41.781728501623235 4.836968972727545 M41.781728501623235 4.836968972727545 C41.66650494538627 5.184003965732704, 41.55128138914931 5.531038958737863, 41.438338174845924 5.871205925162227 M41.781728501623235 4.836968972727545 C41.649599907116524 5.2349192475491195, 41.51747131260981 5.632869522370693, 41.438338174845924 5.871205925162227 M41.438338174845924 5.871205925162227 C41.353308668802185 6.0812304490239235, 41.268279162758446 6.29125497288562, 41.02938959126881 6.881316833080694 M41.438338174845924 5.871205925162227 C41.32946410190772 6.1401269902566025, 41.22059002896951 6.409048055350978, 41.02938959126881 6.881316833080694 M41.02938959126881 6.881316833080694 C40.87877824861302 7.1940645086719455, 40.72816690595722 7.506812184263198, 40.556563208341004 7.863150934094196 M41.02938959126881 6.881316833080694 C40.841710501283444 7.271036479124539, 40.65403141129807 7.660756125168383, 40.556563208341004 7.863150934094196 M40.556563208341004 7.863150934094196 C40.44797632576478 8.055957939722475, 40.339389443188544 8.248764945350754, 40.02180197109089 8.812673661278923 M40.556563208341004 7.863150934094196 C40.38865964686654 8.161280709571347, 40.220756085392075 8.4594104850485, 40.02180197109089 8.812673661278923 M40.02180197109089 8.812673661278923 C39.81656437054361 9.127973729731984, 39.611326769996325 9.443273798185043, 39.427303328148255 9.725983222076879 M40.02180197109089 8.812673661278923 C39.848993892207076 9.078153275911015, 39.676185813323265 9.343632890543107, 39.427303328148255 9.725983222076879 M39.427303328148255 9.725983222076879 C39.20290569395178 10.026655608855133, 38.97850805975529 10.32732799563339, 38.77551020195651 10.599326631598467 M39.427303328148255 9.725983222076879 C39.173631091750316 10.065880908833964, 38.91995885535237 10.40577859559105, 38.77551020195651 10.599326631598467 M38.77551020195651 10.599326631598467 C38.55559060433834 10.857656704740373, 38.33567100672017 11.115986777882279, 38.06910095028037 11.42911513444238 M38.77551020195651 10.599326631598467 C38.528498220643044 10.88948096022917, 38.28148623932958 11.179635288859872, 38.06910095028037 11.42911513444238 M38.06910095028037 11.42911513444238 C37.77263580516941 11.73523973701053, 37.47617066005844 12.041364339578681, 37.31097836025927 12.211938951661365 M38.06910095028037 11.42911513444238 C37.888087171380306 11.616026722664335, 37.70707339248023 11.802938310886288, 37.31097836025927 12.211938951661365 M37.31097836025927 12.211938951661365 C37.04312899019302 12.455192662649553, 36.775279620126774 12.698446373637742, 36.50425772023242 12.944581292275275 M37.31097836025927 12.211938951661365 C37.10748431648307 12.396746858061562, 36.90399027270686 12.581554764461757, 36.50425772023242 12.944581292275275 M36.50425772023242 12.944581292275275 C36.215692860676796 13.174704088737471, 35.927128001121176 13.404826885199668, 35.652254018350675 13.62403157175526 M36.50425772023242 12.944581292275275 C36.20305837875382 13.184779751853357, 35.90185903727523 13.424978211431437, 35.652254018350675 13.62403157175526 M35.652254018350675 13.62403157175526 C35.337830718614796 13.843359654485738, 35.02340741887892 14.062687737216216, 34.75846832057934 14.247497783161286 M35.652254018350675 13.62403157175526 C35.33097286610351 13.848143395525963, 35.00969171385634 14.072255219296666, 34.75846832057934 14.247497783161286 M34.75846832057934 14.247497783161286 C34.46720826949586 14.424061337762137, 34.175948218412394 14.600624892362987, 33.82657338406695 14.81241797009762 M34.75846832057934 14.247497783161286 C34.48954313096479 14.41052181348546, 34.22061794135024 14.573545843809631, 33.82657338406695 14.81241797009762 M33.82657338406695 14.81241797009762 C33.523752226573414 14.970399573995786, 33.22093106907988 15.128381177893953, 32.86039856499849 15.316470754341124 M33.82657338406695 14.81241797009762 C33.49721647251818 14.98424325988944, 33.16785956096941 15.156068549681262, 32.86039856499849 15.316470754341124 M32.86039856499849 15.316470754341124 C32.534467343822705 15.460750837549487, 32.20853612264692 15.605030920757851, 31.863914082949368 15.757584874882367 M32.86039856499849 15.316470754341124 C32.55448758100525 15.451888472428012, 32.248576597012004 15.5873061905149, 31.863914082949368 15.757584874882367 M31.863914082949368 15.757584874882367 C31.516631454616004 15.88538809235447, 31.16934882628264 16.013191309826574, 30.841214706401562 16.133947699181363 M31.863914082949368 15.757584874882367 C31.51690647878764 15.885286880917013, 31.16989887462591 16.012988886951657, 30.841214706401562 16.133947699181363 M30.841214706401562 16.133947699181363 C30.51064163575046 16.232060051337154, 30.18006856509936 16.330172403492945, 29.796502926461642 16.444012671663497 M30.841214706401562 16.133947699181363 C30.449366025429306 16.25024633083823, 30.057517344457054 16.366544962495098, 29.796502926461642 16.444012671663497 M29.796502926461642 16.444012671663497 C29.375447314382104 16.540115867476, 28.954391702302562 16.636219063288507, 28.734071687923333 16.68650566884811 M29.796502926461642 16.444012671663497 C29.581625732583852 16.49305698896137, 29.36674853870606 16.54210130625924, 28.734071687923333 16.68650566884811 M28.734071687923333 16.68650566884811 C28.35244211017121 16.748204579397495, 27.97081253241909 16.809903489946883, 27.658286748636613 16.86043023499518 M28.734071687923333 16.68650566884811 C28.50763632097422 16.723113982943946, 28.281200954025113 16.75972229703978, 27.658286748636613 16.86043023499518 M27.658286748636613 16.86043023499518 C27.335449841092903 16.891573923197736, 27.012612933549196 16.92271761140029, 26.57356873967212 16.965071676755716 M27.658286748636613 16.86043023499518 C27.397241784559668 16.885612928727184, 27.136196820482724 16.910795622459183, 26.57356873967212 16.965071676755716 M26.57356873967212 16.965071676755716 C26.280139580716547 16.974481378758213, 25.98671042176098 16.983891080760706, 25.484375000000004 17 M26.57356873967212 16.965071676755716 C26.21878429529468 16.97644892334087, 25.86399985091724 16.98782616992603, 25.484375000000004 17 M25.484375000000004 17 C25.484375000000004 17, 25.484375 17, 25.484375 17 M25.484375000000004 17 C25.484375000000004 17, 25.484375 17, 25.484375 17 M25.484375 17 C14.414849521620486 17, 3.3453240432409714 17, -25.484374999999996 17 M25.484375 17 C8.443164473414758 17, -8.598046053170485 17, -25.484374999999996 17 M-25.484374999999996 17 C-25.828313725593283 16.98897055450634, -26.17225245118657 16.97794110901268, -26.573568739672112 16.965071676755716 M-25.484374999999996 17 C-25.788296038939663 16.99025384382762, -26.092217077879333 16.98050768765524, -26.573568739672112 16.965071676755716 M-26.573568739672112 16.965071676755716 C-26.897776514686413 16.933795742616983, -27.221984289700714 16.90251980847825, -27.658286748636606 16.86043023499518 M-26.573568739672112 16.965071676755716 C-26.850200955813442 16.93838529956348, -27.126833171954768 16.91169892237124, -27.658286748636606 16.86043023499518 M-27.658286748636606 16.86043023499518 C-27.951564972157453 16.813015286222925, -28.244843195678303 16.765600337450664, -28.73407168792333 16.68650566884811 M-27.658286748636606 16.86043023499518 C-27.986524045524998 16.807363374352523, -28.314761342413394 16.75429651370986, -28.73407168792333 16.68650566884811 M-28.73407168792333 16.68650566884811 C-28.97492359552528 16.631532792643547, -29.21577550312723 16.57655991643898, -29.79650292646162 16.4440126716635 M-28.73407168792333 16.68650566884811 C-28.966895621709668 16.633365125279532, -29.199719555496007 16.580224581710958, -29.79650292646162 16.4440126716635 M-29.79650292646162 16.4440126716635 C-30.13578749340661 16.343314793135264, -30.475072060351604 16.242616914607023, -30.841214706401544 16.13394769918137 M-29.79650292646162 16.4440126716635 C-30.150095250431537 16.339068325953214, -30.503687574401454 16.234123980242927, -30.841214706401544 16.13394769918137 M-30.841214706401544 16.13394769918137 C-31.054333179226166 16.055518131136342, -31.267451652050784 15.977088563091314, -31.86391408294936 15.757584874882369 M-30.841214706401544 16.13394769918137 C-31.1732803060195 16.011744488941208, -31.50534590563745 15.889541278701047, -31.86391408294936 15.757584874882369 M-31.86391408294936 15.757584874882369 C-32.13677012278029 15.636799600036058, -32.40962616261122 15.516014325189749, -32.86039856499848 15.316470754341127 M-31.86391408294936 15.757584874882369 C-32.17612384764284 15.619378873426179, -32.48833361233632 15.481172871969987, -32.86039856499848 15.316470754341127 M-32.86039856499848 15.316470754341127 C-33.18250572021212 15.148427657785652, -33.50461287542576 14.980384561230176, -33.82657338406693 14.812417970097624 M-32.86039856499848 15.316470754341127 C-33.16778051697283 15.156109786883645, -33.47516246894718 14.995748819426165, -33.82657338406693 14.812417970097624 M-33.82657338406693 14.812417970097624 C-34.15407866848985 14.61388234204577, -34.48158395291277 14.415346713993916, -34.75846832057932 14.247497783161299 M-33.82657338406693 14.812417970097624 C-34.16386720032049 14.60794847652624, -34.501161016574045 14.403478982954853, -34.75846832057932 14.247497783161299 M-34.75846832057932 14.247497783161299 C-35.102433137968184 14.007562816547788, -35.44639795535704 13.767627849934275, -35.65225401835067 13.624031571755264 M-34.75846832057932 14.247497783161299 C-34.97505532993756 14.09641606133351, -35.191642339295804 13.945334339505722, -35.65225401835067 13.624031571755264 M-35.65225401835067 13.624031571755264 C-35.991434748018314 13.353543965823604, -36.33061547768595 13.083056359891943, -36.5042577202324 12.94458129227529 M-35.65225401835067 13.624031571755264 C-35.938098923859634 13.39607786626426, -36.2239438293686 13.168124160773257, -36.5042577202324 12.94458129227529 M-36.5042577202324 12.94458129227529 C-36.754180615319825 12.717607931554337, -37.00410351040725 12.490634570833384, -37.31097836025926 12.211938951661377 M-36.5042577202324 12.94458129227529 C-36.713965062388425 12.75413063268141, -36.923672404544455 12.563679973087527, -37.31097836025926 12.211938951661377 M-37.31097836025926 12.211938951661377 C-37.534972681730174 11.980646424466856, -37.758967003201086 11.749353897272334, -38.069100950280365 11.429115134442386 M-37.31097836025926 12.211938951661377 C-37.52831787630623 11.987518057436759, -37.74565739235321 11.76309716321214, -38.069100950280365 11.429115134442386 M-38.069100950280365 11.429115134442386 C-38.342445388706366 11.108029203328039, -38.61578982713237 10.786943272213692, -38.77551020195651 10.599326631598473 M-38.069100950280365 11.429115134442386 C-38.316200732926305 11.13885766937052, -38.563300515572244 10.848600204298654, -38.77551020195651 10.599326631598473 M-38.77551020195651 10.599326631598473 C-39.01589019379081 10.277239341608269, -39.25627018562511 9.955152051618064, -39.42730332814825 9.72598322207689 M-38.77551020195651 10.599326631598473 C-38.94841412619191 10.367651124994575, -39.12131805042732 10.135975618390678, -39.42730332814825 9.72598322207689 M-39.42730332814825 9.72598322207689 C-39.57218040896296 9.503413121002096, -39.71705748977766 9.280843019927302, -40.02180197109088 8.812673661278936 M-39.42730332814825 9.72598322207689 C-39.64265230080841 9.395149370774856, -39.858001273468574 9.064315519472824, -40.02180197109088 8.812673661278936 M-40.02180197109088 8.812673661278936 C-40.22940747850123 8.444049060534658, -40.43701298591157 8.07542445979038, -40.556563208341004 7.863150934094201 M-40.02180197109088 8.812673661278936 C-40.1320592515234 8.616900695110687, -40.24231653195592 8.421127728942436, -40.556563208341004 7.863150934094201 M-40.556563208341004 7.863150934094201 C-40.7226668219279 7.518233226433027, -40.88877043551479 7.1733155187718545, -41.02938959126881 6.881316833080701 M-40.556563208341004 7.863150934094201 C-40.7096411789021 7.545281252880203, -40.8627191494632 7.227411571666205, -41.02938959126881 6.881316833080701 M-41.02938959126881 6.881316833080701 C-41.12132648304429 6.654230932916376, -41.213263374819775 6.42714503275205, -41.438338174845924 5.87120592516224 M-41.02938959126881 6.881316833080701 C-41.118566620725055 6.661047846203199, -41.20774365018131 6.440778859325696, -41.438338174845924 5.87120592516224 M-41.438338174845924 5.87120592516224 C-41.561608326588 5.499935868546563, -41.68487847833008 5.128665811930888, -41.781728501623235 4.8369689727275516 M-41.438338174845924 5.87120592516224 C-41.519487072906564 5.626798373524661, -41.600635970967204 5.382390821887082, -41.781728501623235 4.8369689727275516 M-41.781728501623235 4.8369689727275516 C-41.847446299963906 4.586358525380613, -41.91316409830457 4.335748078033675, -42.058149507091 3.782855877257349 M-41.781728501623235 4.8369689727275516 C-41.88228140839218 4.453517159312096, -41.98283431516112 4.070065345896641, -42.058149507091 3.782855877257349 M-42.058149507091 3.782855877257349 C-42.138579039265785 3.36986722832748, -42.21900857144057 2.9568785793976113, -42.26646531804565 2.713198215567455 M-42.058149507091 3.782855877257349 C-42.12677159238309 3.430495972565324, -42.19539367767518 3.078136067873299, -42.26646531804565 2.713198215567455 M-42.26646531804565 2.713198215567455 C-42.30953719912527 2.3791412114188315, -42.3526090802049 2.0450842072702082, -42.405819920136366 1.6323914404306026 M-42.26646531804565 2.713198215567455 C-42.31750142292827 2.317372264316696, -42.368537527810886 1.921546313065937, -42.405819920136366 1.6323914404306026 M-42.405819920136366 1.6323914404306026 C-42.42037748153778 1.4056456709516194, -42.43493504293918 1.178899901472636, -42.4756406754117 0.54487681871814 M-42.405819920136366 1.6323914404306026 C-42.423146156303936 1.3625213266346592, -42.4404723924715 1.0926512128387156, -42.4756406754117 0.54487681871814 M-42.4756406754117 0.54487681871814 C-42.4756406754117 0.2762486699935377, -42.4756406754117 0.007620521268935421, -42.4756406754117 -0.5448768187181317 M-42.4756406754117 0.54487681871814 C-42.4756406754117 0.12710178840538144, -42.4756406754117 -0.2906732419073771, -42.4756406754117 -0.5448768187181317 M-42.4756406754117 -0.5448768187181317 C-42.45833954259903 -0.8143559274984437, -42.441038409786366 -1.0838350362787557, -42.405819920136366 -1.6323914404305793 M-42.4756406754117 -0.5448768187181317 C-42.45743641241856 -0.8284229090527951, -42.43923214942543 -1.1119689993874586, -42.405819920136366 -1.6323914404305793 M-42.405819920136366 -1.6323914404305793 C-42.374116289321826 -1.8782785404381275, -42.34241265850729 -2.1241656404456757, -42.266465318045654 -2.713198215567447 M-42.405819920136366 -1.6323914404305793 C-42.36706683695423 -1.9329527009293963, -42.32831375377209 -2.2335139614282133, -42.266465318045654 -2.713198215567447 M-42.266465318045654 -2.713198215567447 C-42.185467890115184 -3.129102889177952, -42.104470462184715 -3.545007562788457, -42.058149507091 -3.782855877257341 M-42.266465318045654 -2.713198215567447 C-42.21812909349566 -2.961394512766992, -42.16979286894566 -3.209590809966537, -42.058149507091 -3.782855877257341 M-42.058149507091 -3.782855877257341 C-41.97413501544774 -4.103239546004098, -41.890120523804484 -4.423623214750856, -41.781728501623235 -4.836968972727544 M-42.058149507091 -3.782855877257341 C-41.990716048255145 -4.040008881644404, -41.92328258941929 -4.297161886031468, -41.781728501623235 -4.836968972727544 M-41.781728501623235 -4.836968972727544 C-41.71140555726344 -5.048770476699655, -41.641082612903645 -5.260571980671766, -41.43833817484593 -5.871205925162218 M-41.781728501623235 -4.836968972727544 C-41.64562076539472 -5.246903788425052, -41.50951302916621 -5.6568386041225605, -41.43833817484593 -5.871205925162218 M-41.43833817484593 -5.871205925162218 C-41.32873581492564 -6.141925873182798, -41.219133455005355 -6.412645821203377, -41.02938959126881 -6.881316833080692 M-41.43833817484593 -5.871205925162218 C-41.292060639961555 -6.232514264410367, -41.14578310507718 -6.5938226036585155, -41.02938959126881 -6.881316833080692 M-41.02938959126881 -6.881316833080692 C-40.92975074548616 -7.088219028278142, -40.8301118997035 -7.295121223475592, -40.556563208341004 -7.863150934094194 M-41.02938959126881 -6.881316833080692 C-40.92654274011969 -7.094880520061926, -40.823695888970576 -7.308444207043159, -40.556563208341004 -7.863150934094194 M-40.556563208341004 -7.863150934094194 C-40.385435177926574 -8.167006080687147, -40.21430714751214 -8.470861227280098, -40.02180197109088 -8.812673661278929 M-40.556563208341004 -7.863150934094194 C-40.42997134957896 -8.087927598141926, -40.303379490816916 -8.312704262189657, -40.02180197109088 -8.812673661278929 M-40.02180197109088 -8.812673661278929 C-39.793308591964475 -9.16370085068046, -39.56481521283807 -9.514728040081993, -39.42730332814825 -9.725983222076884 M-40.02180197109088 -8.812673661278929 C-39.85687776417928 -9.066041531445661, -39.691953557267674 -9.319409401612393, -39.42730332814825 -9.725983222076884 M-39.42730332814825 -9.725983222076884 C-39.27988853859653 -9.923505610312576, -39.13247374904482 -10.12102799854827, -38.77551020195651 -10.599326631598467 M-39.42730332814825 -9.725983222076884 C-39.26221394473271 -9.947187955901475, -39.09712456131717 -10.168392689726065, -38.77551020195651 -10.599326631598467 M-38.77551020195651 -10.599326631598467 C-38.50581006311964 -10.916131761048899, -38.23610992428277 -11.232936890499328, -38.06910095028037 -11.42911513444238 M-38.77551020195651 -10.599326631598467 C-38.512595357221194 -10.908161368503038, -38.24968051248588 -11.21699610540761, -38.06910095028037 -11.42911513444238 M-38.06910095028037 -11.42911513444238 C-37.79061406038525 -11.716675712457963, -37.51212717049014 -12.004236290473548, -37.31097836025928 -12.21193895166136 M-38.06910095028037 -11.42911513444238 C-37.86040394870066 -11.644611922915917, -37.65170694712094 -11.860108711389456, -37.31097836025928 -12.21193895166136 M-37.31097836025928 -12.21193895166136 C-37.123548465454135 -12.382157823000123, -36.936118570649 -12.552376694338886, -36.50425772023242 -12.944581292275274 M-37.31097836025928 -12.21193895166136 C-37.07866082570653 -12.422923589757033, -36.84634329115379 -12.633908227852707, -36.50425772023242 -12.944581292275274 M-36.50425772023242 -12.944581292275274 C-36.22256383517867 -13.169224669416538, -35.94086995012491 -13.393868046557804, -35.652254018350675 -13.624031571755259 M-36.50425772023242 -12.944581292275274 C-36.28438064036353 -13.119927412295882, -36.06450356049464 -13.295273532316491, -35.652254018350675 -13.624031571755259 M-35.652254018350675 -13.624031571755259 C-35.352824313988066 -13.832900771415623, -35.053394609625464 -14.04176997107599, -34.75846832057934 -14.247497783161284 M-35.652254018350675 -13.624031571755259 C-35.449989692914386 -13.765122409298087, -35.2477253674781 -13.906213246840915, -34.75846832057934 -14.247497783161284 M-34.75846832057934 -14.247497783161284 C-34.47864753348238 -14.41712678870893, -34.19882674638543 -14.586755794256579, -33.82657338406695 -14.812417970097618 M-34.75846832057934 -14.247497783161284 C-34.57111133865362 -14.361074686636494, -34.3837543567279 -14.474651590111705, -33.82657338406695 -14.812417970097618 M-33.82657338406695 -14.812417970097618 C-33.46301998100094 -15.002083547610086, -33.09946657793493 -15.191749125122554, -32.86039856499849 -15.316470754341124 M-33.82657338406695 -14.812417970097618 C-33.47186288569638 -14.997470209894624, -33.11715238732582 -15.18252244969163, -32.86039856499849 -15.316470754341124 M-32.86039856499849 -15.316470754341124 C-32.5092756909681 -15.471902434984386, -32.15815281693772 -15.627334115627649, -31.863914082949368 -15.757584874882365 M-32.86039856499849 -15.316470754341124 C-32.491096517268915 -15.47994981591499, -32.121794469539346 -15.643428877488857, -31.863914082949368 -15.757584874882365 M-31.863914082949368 -15.757584874882365 C-31.614940007730585 -15.849209636054, -31.3659659325118 -15.940834397225636, -30.841214706401566 -16.133947699181363 M-31.863914082949368 -15.757584874882365 C-31.46424114936898 -15.904668208976046, -31.064568215788597 -16.051751543069727, -30.841214706401566 -16.133947699181363 M-30.841214706401566 -16.133947699181363 C-30.46839901424069 -16.24459743966521, -30.09558332207981 -16.355247180149053, -29.796502926461642 -16.444012671663494 M-30.841214706401566 -16.133947699181363 C-30.43594139331486 -16.254230691182464, -30.030668080228153 -16.37451368318357, -29.796502926461642 -16.444012671663494 M-29.796502926461642 -16.444012671663494 C-29.56439866963787 -16.496988953661695, -29.3322944128141 -16.549965235659897, -28.734071687923336 -16.68650566884811 M-29.796502926461642 -16.444012671663494 C-29.55331704358043 -16.499518262494938, -29.31013116069922 -16.555023853326382, -28.734071687923336 -16.68650566884811 M-28.734071687923336 -16.68650566884811 C-28.489945552094262 -16.725974089262497, -28.24581941626519 -16.76544250967688, -27.658286748636613 -16.86043023499518 M-28.734071687923336 -16.68650566884811 C-28.513467535540173 -16.722171237394665, -28.29286338315701 -16.757836805941224, -27.658286748636613 -16.86043023499518 M-27.658286748636613 -16.86043023499518 C-27.246738568163668 -16.900131793006306, -26.83519038769072 -16.939833351017427, -26.57356873967212 -16.965071676755716 M-27.658286748636613 -16.86043023499518 C-27.318315184427465 -16.89322688291881, -26.978343620218318 -16.926023530842443, -26.57356873967212 -16.965071676755716 M-26.57356873967212 -16.965071676755716 C-26.202470477468264 -16.976972075725648, -25.831372215264413 -16.988872474695576, -25.484375000000004 -17 M-26.57356873967212 -16.965071676755716 C-26.259071358492868 -16.97515699563812, -25.944573977313617 -16.98524231452052, -25.484375000000004 -17 M-25.484375000000004 -17 C-25.484375000000004 -17, -25.484375 -17, -25.484375 -17 M-25.484375000000004 -17 C-25.484375000000004 -17, -25.484375 -17, -25.484375 -17" stroke="#555555" stroke-width="1.3" fill="none" stroke-dasharray="0 0" style=""></path></g><g class="label" style="" transform="translate(0, -9.5)"><rect></rect><g><rect class="background" style="stroke: none"></rect><text y="-10.1" style=""><tspan class="text-outer-tspan row" x="0" y="-0.1em" dy="1.1em"><tspan font-style="normal" class="text-inner-tspan" font-weight="normal">Attacker</tspan></tspan></text></g></g></g><g class="node default" id="g6856fda7-dc98-4938-b974-978689327b63-dark-flowchart-Edge-1" data-look="classic" transform="translate(130.2578125, 125.29999923706055)"><rect class="basic label-container" style="" x="-106.7890625" y="-33.29999923706055" width="213.578125" height="66.5999984741211"></rect><g class="label" style="" transform="translate(0, -18.299999237060547)"><rect></rect><g><rect class="background" style="stroke: none"></rect><text y="-10.1" style=""><tspan class="text-outer-tspan row" x="0" y="-0.1em" dy="1.1em"><tspan font-style="normal" class="text-inner-tspan" font-weight="normal">Edge</tspan></tspan><tspan class="text-outer-tspan row" x="0" y="1em" dy="1.1em"><tspan font-style="normal" class="text-inner-tspan" font-weight="normal">WAF</tspan><tspan font-style="normal" class="text-inner-tspan" font-weight="normal"> +</tspan><tspan font-style="normal" class="text-inner-tspan" font-weight="normal"> TLS</tspan><tspan font-style="normal" class="text-inner-tspan" font-weight="normal"> 1.3</tspan><tspan font-style="normal" class="text-inner-tspan" font-weight="normal"> +</tspan><tspan font-style="normal" class="text-inner-tspan" font-weight="normal"> HSTS</tspan></tspan></text></g></g></g><g class="node default" id="g6856fda7-dc98-4938-b974-978689327b63-dark-flowchart-Browser-3" data-look="classic" transform="translate(130.2578125, 259.5)"><rect class="basic label-container" style="" x="-122.2578125" y="-50.900001525878906" width="244.515625" height="101.80000305175781"></rect><g class="label" style="" transform="translate(0, -35.900001525878906)"><rect></rect><g><rect class="background" style="stroke: none"></rect><text y="-10.1" style=""><tspan class="text-outer-tspan row" x="0" y="-0.1em" dy="1.1em"><tspan font-style="normal" class="text-inner-tspan" font-weight="normal">Browser</tspan><tspan font-style="normal" class="text-inner-tspan" font-weight="normal"> policy</tspan></tspan><tspan class="text-outer-tspan row" x="0" y="1em" dy="1.1em"><tspan font-style="normal" class="text-inner-tspan" font-weight="normal">Strict</tspan><tspan font-style="normal" class="text-inner-tspan" font-weight="normal"> CSP</tspan><tspan font-style="normal" class="text-inner-tspan" font-weight="normal"> +</tspan><tspan font-style="normal" class="text-inner-tspan" font-weight="normal"> Trusted</tspan><tspan font-style="normal" class="text-inner-tspan" font-weight="normal"> Types</tspan></tspan><tspan class="text-outer-tspan row" x="0" y="2.1em" dy="1.1em"><tspan font-style="normal" class="text-inner-tspan" font-weight="normal">COOP/COEP,</tspan></tspan><tspan class="text-outer-tspan row" x="0" y="3.2em" dy="1.1em"><tspan font-style="normal" class="text-inner-tspan" font-weight="normal">Permissions-Policy</tspan></tspan></text></g></g></g><g class="node default" id="g6856fda7-dc98-4938-b974-978689327b63-dark-flowchart-App-5" data-look="classic" transform="translate(130.2578125, 411.3000030517578)"><rect class="basic label-container" style="" x="-106.828125" y="-50.900001525878906" width="213.65625" height="101.80000305175781"></rect><g class="label" style="" transform="translate(0, -35.900001525878906)"><rect></rect><g><rect class="background" style="stroke: none"></rect><text y="-10.1" style=""><tspan class="text-outer-tspan row" x="0" y="-0.1em" dy="1.1em"><tspan font-style="normal" class="text-inner-tspan" font-weight="normal">Application</tspan></tspan><tspan class="text-outer-tspan row" x="0" y="1em" dy="1.1em"><tspan font-style="normal" class="text-inner-tspan" font-weight="normal">Passkeys</tspan><tspan font-style="normal" class="text-inner-tspan" font-weight="normal"> +</tspan><tspan font-style="normal" class="text-inner-tspan" font-weight="normal"> AuthZ</tspan></tspan><tspan class="text-outer-tspan row" x="0" y="2.1em" dy="1.1em"><tspan font-style="normal" class="text-inner-tspan" font-weight="normal">middleware</tspan></tspan><tspan class="text-outer-tspan row" x="0" y="3.2em" dy="1.1em"><tspan font-style="normal" class="text-inner-tspan" font-weight="normal">Validation</tspan><tspan font-style="normal" class="text-inner-tspan" font-weight="normal"> +</tspan><tspan font-style="normal" class="text-inner-tspan" font-weight="normal"> encoding</tspan></tspan></text></g></g></g><g class="node default" id="g6856fda7-dc98-4938-b974-978689327b63-dark-flowchart-Data-7" data-look="classic" transform="translate(206.36328125, 545.5000038146973)"><rect class="basic label-container" style="" x="-117.2109375" y="-33.29999923706055" width="234.421875" height="66.5999984741211"></rect><g class="label" style="" transform="translate(0, -18.299999237060547)"><rect></rect><g><rect class="background" style="stroke: none"></rect><text y="-10.1" style=""><tspan class="text-outer-tspan row" x="0" y="-0.1em" dy="1.1em"><tspan font-style="normal" class="text-inner-tspan" font-weight="normal">Data</tspan></tspan><tspan class="text-outer-tspan row" x="0" y="1em" dy="1.1em"><tspan font-style="normal" class="text-inner-tspan" font-weight="normal">Argon2id</tspan><tspan font-style="normal" class="text-inner-tspan" font-weight="normal"> +</tspan><tspan font-style="normal" class="text-inner-tspan" font-weight="normal"> AES-256-GCM</tspan></tspan></text></g></g></g><g class="node default" id="g6856fda7-dc98-4938-b974-978689327b63-dark-flowchart-Ops-9" data-look="classic" transform="translate(130.2578125, 662.1000022888184)"><rect class="basic label-container" style="" x="-92.703125" y="-33.29999923706055" width="185.40625" height="66.5999984741211"></rect><g class="label" style="" transform="translate(0, -18.299999237060547)"><rect></rect><g><rect class="background" style="stroke: none"></rect><text y="-10.1" style=""><tspan class="text-outer-tspan row" x="0" y="-0.1em" dy="1.1em"><tspan font-style="normal" class="text-inner-tspan" font-weight="normal">Detect</tspan><tspan font-style="normal" class="text-inner-tspan" font-weight="normal"> &amp;</tspan><tspan font-style="normal" class="text-inner-tspan" font-weight="normal"> respond</tspan></tspan><tspan class="text-outer-tspan row" x="0" y="1em" dy="1.1em"><tspan font-style="normal" class="text-inner-tspan" font-weight="normal">Audit</tspan><tspan font-style="normal" class="text-inner-tspan" font-weight="normal"> log</tspan><tspan font-style="normal" class="text-inner-tspan" font-weight="normal"> +</tspan><tspan font-style="normal" class="text-inner-tspan" font-weight="normal"> alerts</tspan></tspan></text></g></g></g></g></g></g><defs><filter id="g6856fda7-dc98-4938-b974-978689327b63-dark-drop-shadow" height="130%" width="130%"><feDropShadow dx="4" dy="4" stdDeviation="0" flood-opacity="0.06" flood-color="#000000"></feDropShadow></filter></defs><defs><filter id="g6856fda7-dc98-4938-b974-978689327b63-dark-drop-shadow-small" height="150%" width="150%"><feDropShadow dx="2" dy="2" stdDeviation="0" flood-opacity="0.06" flood-color="#000000"></feDropShadow></filter></defs><linearGradient id="g6856fda7-dc98-4938-b974-978689327b63-dark-gradient" gradientUnits="objectBoundingBox" x1="0%" y1="0%" x2="100%" y2="0%"><stop offset="0%" stop-color="#555555" stop-opacity="1"></stop><stop offset="100%" stop-color="#555555" stop-opacity="1"></stop></linearGradient></svg>