<svg id="gfc665807-f988-4ab3-9414-a04047815cf9-light" width="100%" xmlns="http://www.w3.org/2000/svg" xmlns:xlink="http://www.w3.org/1999/xlink" class="flowchart" style="max-width: 1150.1875px;" viewBox="0 0 1150.1875 1052.7249755859375" role="graphics-document document" aria-roledescription="flowchart-v2"><style>#gfc665807-f988-4ab3-9414-a04047815cf9-light{font-family:"trebuchet ms",verdana,arial,sans-serif;font-size:16px;fill:#333;}@keyframes edge-animation-frame{from{stroke-dashoffset:0;}}@keyframes dash{to{stroke-dashoffset:0;}}#gfc665807-f988-4ab3-9414-a04047815cf9-light .edge-animation-slow{stroke-dasharray:9,5!important;stroke-dashoffset:900;animation:dash 50s linear infinite;stroke-linecap:round;}#gfc665807-f988-4ab3-9414-a04047815cf9-light .edge-animation-fast{stroke-dasharray:9,5!important;stroke-dashoffset:900;animation:dash 20s linear infinite;stroke-linecap:round;}#gfc665807-f988-4ab3-9414-a04047815cf9-light .error-icon{fill:#552222;}#gfc665807-f988-4ab3-9414-a04047815cf9-light .error-text{fill:#552222;stroke:#552222;}#gfc665807-f988-4ab3-9414-a04047815cf9-light .edge-thickness-normal{stroke-width:1px;}#gfc665807-f988-4ab3-9414-a04047815cf9-light .edge-thickness-thick{stroke-width:3.5px;}#gfc665807-f988-4ab3-9414-a04047815cf9-light .edge-pattern-solid{stroke-dasharray:0;}#gfc665807-f988-4ab3-9414-a04047815cf9-light .edge-thickness-invisible{stroke-width:0;fill:none;}#gfc665807-f988-4ab3-9414-a04047815cf9-light .edge-pattern-dashed{stroke-dasharray:3;}#gfc665807-f988-4ab3-9414-a04047815cf9-light .edge-pattern-dotted{stroke-dasharray:2;}#gfc665807-f988-4ab3-9414-a04047815cf9-light .marker{fill:#333333;stroke:#333333;}#gfc665807-f988-4ab3-9414-a04047815cf9-light .marker.cross{stroke:#333333;}#gfc665807-f988-4ab3-9414-a04047815cf9-light svg{font-family:"trebuchet ms",verdana,arial,sans-serif;font-size:16px;}#gfc665807-f988-4ab3-9414-a04047815cf9-light p{margin:0;}#gfc665807-f988-4ab3-9414-a04047815cf9-light .label{font-family:"trebuchet ms",verdana,arial,sans-serif;color:#333;}#gfc665807-f988-4ab3-9414-a04047815cf9-light .cluster-label text{fill:#333;}#gfc665807-f988-4ab3-9414-a04047815cf9-light .cluster-label span{color:#333;}#gfc665807-f988-4ab3-9414-a04047815cf9-light .cluster-label span p{background-color:transparent;}#gfc665807-f988-4ab3-9414-a04047815cf9-light .label text,#gfc665807-f988-4ab3-9414-a04047815cf9-light span{fill:#333;color:#333;}#gfc665807-f988-4ab3-9414-a04047815cf9-light .node rect,#gfc665807-f988-4ab3-9414-a04047815cf9-light .node circle,#gfc665807-f988-4ab3-9414-a04047815cf9-light .node ellipse,#gfc665807-f988-4ab3-9414-a04047815cf9-light .node polygon,#gfc665807-f988-4ab3-9414-a04047815cf9-light .node path{fill:#ECECFF;stroke:#9370DB;stroke-width:1px;}#gfc665807-f988-4ab3-9414-a04047815cf9-light .rough-node .label text,#gfc665807-f988-4ab3-9414-a04047815cf9-light .node .label text,#gfc665807-f988-4ab3-9414-a04047815cf9-light .image-shape .label,#gfc665807-f988-4ab3-9414-a04047815cf9-light .icon-shape .label{text-anchor:middle;}#gfc665807-f988-4ab3-9414-a04047815cf9-light .node .katex path{fill:#000;stroke:#000;stroke-width:1px;}#gfc665807-f988-4ab3-9414-a04047815cf9-light .rough-node .label,#gfc665807-f988-4ab3-9414-a04047815cf9-light .node .label,#gfc665807-f988-4ab3-9414-a04047815cf9-light .image-shape .label,#gfc665807-f988-4ab3-9414-a04047815cf9-light .icon-shape .label{text-align:center;}#gfc665807-f988-4ab3-9414-a04047815cf9-light .node.clickable{cursor:pointer;}#gfc665807-f988-4ab3-9414-a04047815cf9-light .root .anchor path{fill:#333333!important;stroke-width:0;stroke:#333333;}#gfc665807-f988-4ab3-9414-a04047815cf9-light .arrowheadPath{fill:#333333;}#gfc665807-f988-4ab3-9414-a04047815cf9-light .edgePath .path{stroke:#333333;stroke-width:1px;}#gfc665807-f988-4ab3-9414-a04047815cf9-light .flowchart-link{stroke:#333333;fill:none;}#gfc665807-f988-4ab3-9414-a04047815cf9-light .edgeLabel{background-color:rgba(232,232,232, 0.8);text-align:center;}#gfc665807-f988-4ab3-9414-a04047815cf9-light .edgeLabel p{background-color:rgba(232,232,232, 0.8);}#gfc665807-f988-4ab3-9414-a04047815cf9-light .edgeLabel rect{opacity:0.5;background-color:rgba(232,232,232, 0.8);fill:rgba(232,232,232, 0.8);}#gfc665807-f988-4ab3-9414-a04047815cf9-light .labelBkg{background-color:rgba(232, 232, 232, 0.5);}#gfc665807-f988-4ab3-9414-a04047815cf9-light .cluster rect{fill:#ffffde;stroke:#aaaa33;stroke-width:1px;}#gfc665807-f988-4ab3-9414-a04047815cf9-light .cluster text{fill:#333;}#gfc665807-f988-4ab3-9414-a04047815cf9-light .cluster span{color:#333;}#gfc665807-f988-4ab3-9414-a04047815cf9-light div.mermaidTooltip{position:absolute;text-align:center;max-width:200px;padding:2px;font-family:"trebuchet ms",verdana,arial,sans-serif;font-size:12px;background:hsl(80, 100%, 96.2745098039%);border:1px solid #aaaa33;border-radius:2px;pointer-events:none;z-index:100;}#gfc665807-f988-4ab3-9414-a04047815cf9-light .flowchartTitleText{text-anchor:middle;font-size:18px;fill:#333;}#gfc665807-f988-4ab3-9414-a04047815cf9-light rect.text{fill:none;stroke-width:0;}#gfc665807-f988-4ab3-9414-a04047815cf9-light .icon-shape,#gfc665807-f988-4ab3-9414-a04047815cf9-light .image-shape{background-color:rgba(232,232,232, 0.8);text-align:center;}#gfc665807-f988-4ab3-9414-a04047815cf9-light .icon-shape p,#gfc665807-f988-4ab3-9414-a04047815cf9-light .image-shape p{background-color:rgba(232,232,232, 0.8);padding:2px;}#gfc665807-f988-4ab3-9414-a04047815cf9-light .icon-shape .label rect,#gfc665807-f988-4ab3-9414-a04047815cf9-light .image-shape .label rect{opacity:0.5;background-color:rgba(232,232,232, 0.8);fill:rgba(232,232,232, 0.8);}#gfc665807-f988-4ab3-9414-a04047815cf9-light .label-icon{display:inline-block;height:1em;overflow:visible;vertical-align:-0.125em;}#gfc665807-f988-4ab3-9414-a04047815cf9-light .node .label-icon path{fill:currentColor;stroke:revert;stroke-width:revert;}#gfc665807-f988-4ab3-9414-a04047815cf9-light .node .neo-node{stroke:#9370DB;}#gfc665807-f988-4ab3-9414-a04047815cf9-light [data-look="neo"].node rect,#gfc665807-f988-4ab3-9414-a04047815cf9-light [data-look="neo"].cluster rect,#gfc665807-f988-4ab3-9414-a04047815cf9-light [data-look="neo"].node polygon{stroke:#9370DB;filter:drop-shadow(1px 2px 2px rgba(185, 185, 185, 1));}#gfc665807-f988-4ab3-9414-a04047815cf9-light [data-look="neo"].node path{stroke:#9370DB;stroke-width:1px;}#gfc665807-f988-4ab3-9414-a04047815cf9-light [data-look="neo"].node .outer-path{filter:drop-shadow(1px 2px 2px rgba(185, 185, 185, 1));}#gfc665807-f988-4ab3-9414-a04047815cf9-light [data-look="neo"].node .neo-line path{stroke:#9370DB;filter:none;}#gfc665807-f988-4ab3-9414-a04047815cf9-light [data-look="neo"].node circle{stroke:#9370DB;filter:drop-shadow(1px 2px 2px rgba(185, 185, 185, 1));}#gfc665807-f988-4ab3-9414-a04047815cf9-light [data-look="neo"].node circle .state-start{fill:#000000;}#gfc665807-f988-4ab3-9414-a04047815cf9-light [data-look="neo"].icon-shape .icon{fill:#9370DB;filter:drop-shadow(1px 2px 2px rgba(185, 185, 185, 1));}#gfc665807-f988-4ab3-9414-a04047815cf9-light [data-look="neo"].icon-shape .icon-neo path{stroke:#9370DB;filter:drop-shadow(1px 2px 2px rgba(185, 185, 185, 1));}#gfc665807-f988-4ab3-9414-a04047815cf9-light :root{--mermaid-font-family:"trebuchet ms",verdana,arial,sans-serif;}#gfc665807-f988-4ab3-9414-a04047815cf9-light .preferred rect{fill:#f4fcf4!important;stroke:#2f9e44!important;color:#1f5f2c!important;}#gfc665807-f988-4ab3-9414-a04047815cf9-light .preferred polygon{fill:#f4fcf4!important;stroke:#2f9e44!important;color:#1f5f2c!important;}#gfc665807-f988-4ab3-9414-a04047815cf9-light .preferred ellipse{fill:#f4fcf4!important;stroke:#2f9e44!important;color:#1f5f2c!important;}#gfc665807-f988-4ab3-9414-a04047815cf9-light .preferred circle{fill:#f4fcf4!important;stroke:#2f9e44!important;color:#1f5f2c!important;}#gfc665807-f988-4ab3-9414-a04047815cf9-light .preferred path{fill:#f4fcf4!important;stroke:#2f9e44!important;color:#1f5f2c!important;}#gfc665807-f988-4ab3-9414-a04047815cf9-light .preferred tspan{fill:#1f5f2c!important;}#gfc665807-f988-4ab3-9414-a04047815cf9-light .caution rect{fill:#fff8e6!important;stroke:#e67700!important;color:#704700!important;}#gfc665807-f988-4ab3-9414-a04047815cf9-light .caution polygon{fill:#fff8e6!important;stroke:#e67700!important;color:#704700!important;}#gfc665807-f988-4ab3-9414-a04047815cf9-light .caution ellipse{fill:#fff8e6!important;stroke:#e67700!important;color:#704700!important;}#gfc665807-f988-4ab3-9414-a04047815cf9-light .caution circle{fill:#fff8e6!important;stroke:#e67700!important;color:#704700!important;}#gfc665807-f988-4ab3-9414-a04047815cf9-light .caution path{fill:#fff8e6!important;stroke:#e67700!important;color:#704700!important;}#gfc665807-f988-4ab3-9414-a04047815cf9-light .caution tspan{fill:#704700!important;}#gfc665807-f988-4ab3-9414-a04047815cf9-light .bad rect{fill:#fff5f5!important;stroke:#c92a2a!important;color:#7a1f1f!important;}#gfc665807-f988-4ab3-9414-a04047815cf9-light .bad polygon{fill:#fff5f5!important;stroke:#c92a2a!important;color:#7a1f1f!important;}#gfc665807-f988-4ab3-9414-a04047815cf9-light .bad ellipse{fill:#fff5f5!important;stroke:#c92a2a!important;color:#7a1f1f!important;}#gfc665807-f988-4ab3-9414-a04047815cf9-light .bad circle{fill:#fff5f5!important;stroke:#c92a2a!important;color:#7a1f1f!important;}#gfc665807-f988-4ab3-9414-a04047815cf9-light .bad path{fill:#fff5f5!important;stroke:#c92a2a!important;color:#7a1f1f!important;}#gfc665807-f988-4ab3-9414-a04047815cf9-light .bad tspan{fill:#7a1f1f!important;}</style><g><marker id="gfc665807-f988-4ab3-9414-a04047815cf9-light_flowchart-v2-pointEnd" class="marker flowchart-v2" viewBox="0 0 10 10" refX="5" refY="5" markerUnits="userSpaceOnUse" markerWidth="8" markerHeight="8" orient="auto"><path d="M 0 0 L 10 5 L 0 10 z" class="arrowMarkerPath" style="stroke-width: 1; stroke-dasharray: 1, 0;"></path></marker><marker id="gfc665807-f988-4ab3-9414-a04047815cf9-light_flowchart-v2-pointStart" class="marker flowchart-v2" viewBox="0 0 10 10" refX="4.5" refY="5" markerUnits="userSpaceOnUse" markerWidth="8" markerHeight="8" orient="auto"><path d="M 0 5 L 10 10 L 10 0 z" class="arrowMarkerPath" style="stroke-width: 1; stroke-dasharray: 1, 0;"></path></marker><marker id="gfc665807-f988-4ab3-9414-a04047815cf9-light_flowchart-v2-pointEnd-margin" class="marker flowchart-v2" viewBox="0 0 11.5 14" refX="11.5" refY="7" markerUnits="userSpaceOnUse" markerWidth="10.5" markerHeight="14" orient="auto"><path d="M 0 0 L 11.5 7 L 0 14 z" class="arrowMarkerPath" style="stroke-width: 0; stroke-dasharray: 1, 0;"></path></marker><marker id="gfc665807-f988-4ab3-9414-a04047815cf9-light_flowchart-v2-pointStart-margin" class="marker flowchart-v2" viewBox="0 0 11.5 14" refX="1" refY="7" markerUnits="userSpaceOnUse" markerWidth="11.5" markerHeight="14" orient="auto"><polygon points="0,7 11.5,14 11.5,0" class="arrowMarkerPath" style="stroke-width: 0; stroke-dasharray: 1, 0;"></polygon></marker><marker id="gfc665807-f988-4ab3-9414-a04047815cf9-light_flowchart-v2-circleEnd" class="marker flowchart-v2" viewBox="0 0 10 10" refX="11" refY="5" markerUnits="userSpaceOnUse" markerWidth="11" markerHeight="11" orient="auto"><circle cx="5" cy="5" r="5" class="arrowMarkerPath" style="stroke-width: 1; stroke-dasharray: 1, 0;"></circle></marker><marker id="gfc665807-f988-4ab3-9414-a04047815cf9-light_flowchart-v2-circleStart" class="marker flowchart-v2" viewBox="0 0 10 10" refX="-1" refY="5" markerUnits="userSpaceOnUse" markerWidth="11" markerHeight="11" orient="auto"><circle cx="5" cy="5" r="5" class="arrowMarkerPath" style="stroke-width: 1; stroke-dasharray: 1, 0;"></circle></marker><marker id="gfc665807-f988-4ab3-9414-a04047815cf9-light_flowchart-v2-circleEnd-margin" class="marker flowchart-v2" viewBox="0 0 10 10" refY="5" refX="12.25" markerUnits="userSpaceOnUse" markerWidth="14" markerHeight="14" orient="auto"><circle cx="5" cy="5" r="5" class="arrowMarkerPath" style="stroke-width: 0; stroke-dasharray: 1, 0;"></circle></marker><marker id="gfc665807-f988-4ab3-9414-a04047815cf9-light_flowchart-v2-circleStart-margin" class="marker flowchart-v2" viewBox="0 0 10 10" refX="-2" refY="5" markerUnits="userSpaceOnUse" markerWidth="14" markerHeight="14" orient="auto"><circle cx="5" cy="5" r="5" class="arrowMarkerPath" style="stroke-width: 0; stroke-dasharray: 1, 0;"></circle></marker><marker id="gfc665807-f988-4ab3-9414-a04047815cf9-light_flowchart-v2-crossEnd" class="marker cross flowchart-v2" viewBox="0 0 11 11" refX="12" refY="5.2" markerUnits="userSpaceOnUse" markerWidth="11" markerHeight="11" orient="auto"><path d="M 1,1 l 9,9 M 10,1 l -9,9" class="arrowMarkerPath" style="stroke-width: 2; stroke-dasharray: 1, 0;"></path></marker><marker id="gfc665807-f988-4ab3-9414-a04047815cf9-light_flowchart-v2-crossStart" class="marker cross flowchart-v2" viewBox="0 0 11 11" refX="-1" refY="5.2" markerUnits="userSpaceOnUse" markerWidth="11" markerHeight="11" orient="auto"><path d="M 1,1 l 9,9 M 10,1 l -9,9" class="arrowMarkerPath" style="stroke-width: 2; stroke-dasharray: 1, 0;"></path></marker><marker id="gfc665807-f988-4ab3-9414-a04047815cf9-light_flowchart-v2-crossEnd-margin" class="marker cross flowchart-v2" viewBox="0 0 15 15" refX="17.7" refY="7.5" markerUnits="userSpaceOnUse" markerWidth="12" markerHeight="12" orient="auto"><path d="M 1,1 L 14,14 M 1,14 L 14,1" class="arrowMarkerPath" style="stroke-width: 2.5;"></path></marker><marker id="gfc665807-f988-4ab3-9414-a04047815cf9-light_flowchart-v2-crossStart-margin" class="marker cross flowchart-v2" viewBox="0 0 15 15" refX="-3.5" refY="7.5" markerUnits="userSpaceOnUse" markerWidth="12" markerHeight="12" orient="auto"><path d="M 1,1 L 14,14 M 1,14 L 14,1" class="arrowMarkerPath" style="stroke-width: 2.5; stroke-dasharray: 1, 0;"></path></marker><g class="root"><g class="clusters"></g><g class="edgePaths"><path d="M669.84,60.1L669.757,64.183C669.673,68.267,669.507,76.433,669.423,84.017C669.34,91.6,669.34,98.6,669.34,102.1L669.34,105.6" id="gfc665807-f988-4ab3-9414-a04047815cf9-light-L_Start_Q1_0" class="edge-thickness-normal edge-pattern-solid edge-thickness-normal edge-pattern-solid flowchart-link" style=";" data-edge="true" data-et="edge" data-id="L_Start_Q1_0" data-points="W3sieCI6NjY5LjgzOTg0Mzc1LCJ5Ijo2MC4wOTk5OTg0NzQxMjEwOTR9LHsieCI6NjY5LjMzOTg0Mzc1LCJ5Ijo4NC41OTk5OTg0NzQxMjExfSx7IngiOjY2OS4zMzk4NDM3NDk5OTk5LCJ5IjoxMDkuNTk5OTk4NDc0MTIxMDV9XQ==" data-look="classic" marker-end="url(#gfc665807-f988-4ab3-9414-a04047815cf9-light_flowchart-v2-pointEnd)"></path><path d="M581.594,279.71L537.473,300.418C493.352,321.126,405.109,362.541,360.988,397.859C316.867,433.178,316.867,462.399,316.867,477.01L316.867,491.62" id="gfc665807-f988-4ab3-9414-a04047815cf9-light-L_Q1_LB_0" class="edge-thickness-normal edge-pattern-solid edge-thickness-normal edge-pattern-solid flowchart-link" style=";" data-edge="true" data-et="edge" data-id="L_Q1_LB_0" data-points="W3sieCI6NTgxLjU5NDAwMTQwODk5NDEsInkiOjI3OS43MTA0MTgzNDAxNDY0fSx7IngiOjMxNi44NjcxODc1LCJ5Ijo0MDMuOTU2MjYwNjgxMTUyMzR9LHsieCI6MzE2Ljg2NzE4NzUsInkiOjQ5NS42MjAzMjY5OTU4NDk2fV0=" data-look="classic" marker-end="url(#gfc665807-f988-4ab3-9414-a04047815cf9-light_flowchart-v2-pointEnd)"></path><path d="M725.88,310.916L737.992,326.423C750.104,341.929,774.328,372.943,786.44,393.866C798.552,414.79,798.552,425.623,798.552,431.04L798.552,436.456" id="gfc665807-f988-4ab3-9414-a04047815cf9-light-L_Q1_Q2_0" class="edge-thickness-normal edge-pattern-solid edge-thickness-normal edge-pattern-solid flowchart-link" style=";" data-edge="true" data-et="edge" data-id="L_Q1_Q2_0" data-points="W3sieCI6NzI1Ljg4MDMzNTc2NjU3NzksInkiOjMxMC45MTU3Njg2NjQ1NzQ0NH0seyJ4Ijo3OTguNTUyMzQ1Mjc1ODc4OSwieSI6NDAzLjk1NjI2MDY4MTE1MjM0fSx7IngiOjc5OC41NTIzNDUyNzU4NzksInkiOjQ0MC40NTYyNjA2ODExNTIzNH1d" data-look="classic" marker-end="url(#gfc665807-f988-4ab3-9414-a04047815cf9-light_flowchart-v2-pointEnd)"></path><path d="M741.592,560.424L713.428,576C685.263,591.577,628.935,622.731,600.771,654.603C572.607,686.474,572.607,719.065,572.607,735.36L572.607,751.655" id="gfc665807-f988-4ab3-9414-a04047815cf9-light-L_Q2_TR_0" class="edge-thickness-normal edge-pattern-solid edge-thickness-normal edge-pattern-solid flowchart-link" style=";" data-edge="true" data-et="edge" data-id="L_Q2_TR_0" data-points="W3sieCI6NzQxLjU5MTY1MzQ2NjgyNjYsInkiOjU2MC40MjM2OTk5NzU2MTU3fSx7IngiOjU3Mi42MDcwMzI3NzU4Nzg5LCJ5Ijo2NTMuODg0MzkxNzg0NjY4fSx7IngiOjU3Mi42MDcwMzI3NzU4Nzg5LCJ5Ijo3NTUuNjU0NzA1MDQ3NjA3NH1d" data-look="classic" marker-end="url(#gfc665807-f988-4ab3-9414-a04047815cf9-light_flowchart-v2-pointEnd)"></path><path d="M842.252,573.685L855.3,587.052C868.349,600.418,894.445,627.151,907.494,647.447C920.542,667.743,920.542,681.601,920.542,688.53L920.542,695.459" id="gfc665807-f988-4ab3-9414-a04047815cf9-light-L_Q2_Q3_0" class="edge-thickness-normal edge-pattern-solid edge-thickness-normal edge-pattern-solid flowchart-link" style=";" data-edge="true" data-et="edge" data-id="L_Q2_Q3_0" data-points="W3sieCI6ODQyLjI1MTY2NDAzOTMxNSwieSI6NTczLjY4NTA3MzAyMTIzMTJ9LHsieCI6OTIwLjU0MjE5MDU1MTc1NzgsInkiOjY1My44ODQzOTE3ODQ2Njh9LHsieCI6OTIwLjU0MjE5MDU1MTc1NzgsInkiOjY5OS40NTkzODg3MzI5MX1d" data-look="classic" marker-end="url(#gfc665807-f988-4ab3-9414-a04047815cf9-light_flowchart-v2-pointEnd)"></path><path d="M867.558,825.466L843.72,841.892C819.882,858.319,772.207,891.172,748.369,913.015C724.531,934.858,724.531,945.692,724.531,951.108L724.531,956.525" id="gfc665807-f988-4ab3-9414-a04047815cf9-light-L_Q3_PL_0" class="edge-thickness-normal edge-pattern-solid edge-thickness-normal edge-pattern-solid flowchart-link" style=";" data-edge="true" data-et="edge" data-id="L_Q3_PL_0" data-points="W3sieCI6ODY3LjU1ODAzMzg5OTYzMiwieSI6ODI1LjQ2NTg2MzE4NDN9LHsieCI6NzI0LjUzMTI1LCJ5Ijo5MjQuMDI1MDE2Nzg0NjY4fSx7IngiOjcyNC41MzEyNSwieSI6OTYwLjUyNTAxNjc4NDY2OH1d" data-look="classic" marker-end="url(#gfc665807-f988-4ab3-9414-a04047815cf9-light_flowchart-v2-pointEnd)"></path><path d="M958.89,840.102L969.377,854.089C979.864,868.076,1000.838,896.051,1011.325,915.454C1021.813,934.858,1021.813,945.692,1021.813,951.108L1021.813,956.525" id="gfc665807-f988-4ab3-9414-a04047815cf9-light-L_Q3_AP_0" class="edge-thickness-normal edge-pattern-solid edge-thickness-normal edge-pattern-solid flowchart-link" style=";" data-edge="true" data-et="edge" data-id="L_Q3_AP_0" data-points="W3sieCI6OTU4Ljg5MDMwOTU3MzI5MiwieSI6ODQwLjEwMTkwMDgxNDg5MTd9LHsieCI6MTAyMS44MTI1LCJ5Ijo5MjQuMDI1MDE2Nzg0NjY4fSx7IngiOjEwMjEuODEyNSwieSI6OTYwLjUyNTAxNjc4NDY2OH1d" data-look="classic" marker-end="url(#gfc665807-f988-4ab3-9414-a04047815cf9-light_flowchart-v2-pointEnd)"></path><path d="M316.867,562.22L316.867,577.498C316.867,592.775,316.867,623.33,316.867,644.024C316.867,664.718,316.867,675.551,316.867,680.968L316.867,686.384" id="gfc665807-f988-4ab3-9414-a04047815cf9-light-L_LB_Q4_0" class="edge-thickness-normal edge-pattern-solid edge-thickness-normal edge-pattern-solid flowchart-link" style=";" data-edge="true" data-et="edge" data-id="L_LB_Q4_0" data-points="W3sieCI6MzE2Ljg2NzE4NzUsInkiOjU2Mi4yMjAzMjU0Njk5NzA3fSx7IngiOjMxNi44NjcxODc1LCJ5Ijo2NTMuODg0MzkxNzg0NjY4fSx7IngiOjMxNi44NjcxODc1LCJ5Ijo2OTAuMzg0MzkxNzg0NjY4fV0=" data-look="classic" marker-end="url(#gfc665807-f988-4ab3-9414-a04047815cf9-light_flowchart-v2-pointEnd)"></path><path d="M256.858,827.516L231.827,843.601C206.796,859.686,156.734,891.855,131.703,914.824C106.672,937.792,106.672,951.558,106.672,958.442L106.672,965.325" id="gfc665807-f988-4ab3-9414-a04047815cf9-light-L_Q4_DZ_0" class="edge-thickness-normal edge-pattern-solid edge-thickness-normal edge-pattern-solid flowchart-link" style=";" data-edge="true" data-et="edge" data-id="L_Q4_DZ_0" data-points="W3sieCI6MjU2Ljg1ODI2NjQyODk4MzYsInkiOjgyNy41MTYwOTU3MTM2NTE2fSx7IngiOjEwNi42NzE4NzUsInkiOjkyNC4wMjUwMTY3ODQ2Njh9LHsieCI6MTA2LjY3MTg3NSwieSI6OTY5LjMyNTAxNjAyMTcyODV9XQ==" data-look="classic" marker-end="url(#gfc665807-f988-4ab3-9414-a04047815cf9-light_flowchart-v2-pointEnd)"></path><path d="M316.867,887.525L316.867,893.608C316.867,899.692,316.867,911.858,316.867,926.292C316.867,940.725,316.867,957.425,316.867,965.775L316.867,974.125" id="gfc665807-f988-4ab3-9414-a04047815cf9-light-L_Q4_DMS_0" class="edge-thickness-normal edge-pattern-solid edge-thickness-normal edge-pattern-solid flowchart-link" style=";" data-edge="true" data-et="edge" data-id="L_Q4_DMS_0" data-points="W3sieCI6MzE2Ljg2NzE4NzUsInkiOjg4Ny41MjUwMTY3ODQ2Njh9LHsieCI6MzE2Ljg2NzE4NzUsInkiOjkyNC4wMjUwMTY3ODQ2Njh9LHsieCI6MzE2Ljg2NzE4NzUsInkiOjk3OC4xMjUwMTUyNTg3ODkxfV0=" data-look="classic" marker-end="url(#gfc665807-f988-4ab3-9414-a04047815cf9-light_flowchart-v2-pointEnd)"></path><path d="M371.958,832.434L391.3,847.699C410.641,862.965,449.325,893.495,468.666,917.11C488.008,940.725,488.008,957.425,488.008,965.775L488.008,974.125" id="gfc665807-f988-4ab3-9414-a04047815cf9-light-L_Q4_FT_0" class="edge-thickness-normal edge-pattern-solid edge-thickness-normal edge-pattern-solid flowchart-link" style=";" data-edge="true" data-et="edge" data-id="L_Q4_FT_0" data-points="W3sieCI6MzcxLjk1NzkyMDEzNDkwMjQsInkiOjgzMi40MzQyODQxNDk3NjU2fSx7IngiOjQ4OC4wMDc4MTI1LCJ5Ijo5MjQuMDI1MDE2Nzg0NjY4fSx7IngiOjQ4OC4wMDc4MTI1LCJ5Ijo5NzguMTI1MDE1MjU4Nzg5MX1d" data-look="classic" marker-end="url(#gfc665807-f988-4ab3-9414-a04047815cf9-light_flowchart-v2-pointEnd)"></path></g><g class="edgeLabels"><g class="edgeLabel"><g class="label" data-id="L_Start_Q1_0" transform="translate(0, 0)"><text y="-10.1" text-anchor="middle"><tspan class="text-outer-tspan row" x="0" y="-0.1em" dy="1.1em" text-anchor="middle"></tspan></text></g></g><g><rect class="background" style="stroke: none"></rect></g><g class="edgeLabel" transform="translate(316.8671875, 403.95626068115234)"><g class="label" data-id="L_Q1_LB_0" transform="translate(0, -10.5)"><g><rect class="background" style="" x="-13.328125" y="-1" width="26.65625" height="23"></rect><text y="-10.1" text-anchor="middle" style=""><tspan class="text-outer-tspan row" x="0" y="-0.1em" dy="1.1em" text-anchor="middle"><tspan font-style="normal" class="text-inner-tspan" font-weight="normal">Yes</tspan></tspan></text></g></g></g><g class="edgeLabel" transform="translate(798.5523452758789, 403.95626068115234)"><g class="label" data-id="L_Q1_Q2_0" transform="translate(0, -10.5)"><g><rect class="background" style="" x="-11.3984375" y="-1" width="22.796875" height="23"></rect><text y="-10.1" text-anchor="middle" style=""><tspan class="text-outer-tspan row" x="0" y="-0.1em" dy="1.1em" text-anchor="middle"><tspan font-style="normal" class="text-inner-tspan" font-weight="normal">No</tspan></tspan></text></g></g></g><g class="edgeLabel" transform="translate(572.6070327758789, 653.884391784668)"><g class="label" data-id="L_Q2_TR_0" transform="translate(0, -10.5)"><g><rect class="background" style="" x="-13.328125" y="-1" width="26.65625" height="23"></rect><text y="-10.1" text-anchor="middle" style=""><tspan class="text-outer-tspan row" x="0" y="-0.1em" dy="1.1em" text-anchor="middle"><tspan font-style="normal" class="text-inner-tspan" font-weight="normal">Yes</tspan></tspan></text></g></g></g><g class="edgeLabel" transform="translate(920.5421905517578, 653.884391784668)"><g class="label" data-id="L_Q2_Q3_0" transform="translate(0, -10.5)"><g><rect class="background" style="" x="-11.3984375" y="-1" width="22.796875" height="23"></rect><text y="-10.1" text-anchor="middle" style=""><tspan class="text-outer-tspan row" x="0" y="-0.1em" dy="1.1em" text-anchor="middle"><tspan font-style="normal" class="text-inner-tspan" font-weight="normal">No</tspan></tspan></text></g></g></g><g class="edgeLabel" transform="translate(724.53125, 924.025016784668)"><g class="label" data-id="L_Q3_PL_0" transform="translate(0, -10.5)"><g><rect class="background" style="" x="-11.3984375" y="-1" width="22.796875" height="23"></rect><text y="-10.1" text-anchor="middle" style=""><tspan class="text-outer-tspan row" x="0" y="-0.1em" dy="1.1em" text-anchor="middle"><tspan font-style="normal" class="text-inner-tspan" font-weight="normal">No</tspan></tspan></text></g></g></g><g class="edgeLabel" transform="translate(1021.8125, 924.025016784668)"><g class="label" data-id="L_Q3_AP_0" transform="translate(0, -10.5)"><g><rect class="background" style="" x="-13.328125" y="-1" width="26.65625" height="23"></rect><text y="-10.1" text-anchor="middle" style=""><tspan class="text-outer-tspan row" x="0" y="-0.1em" dy="1.1em" text-anchor="middle"><tspan font-style="normal" class="text-inner-tspan" font-weight="normal">Yes</tspan></tspan></text></g></g></g><g class="edgeLabel"><g class="label" data-id="L_LB_Q4_0" transform="translate(0, 0)"><text y="-10.1" text-anchor="middle"><tspan class="text-outer-tspan row" x="0" y="-0.1em" dy="1.1em" text-anchor="middle"></tspan></text></g></g><g><rect class="background" style="stroke: none"></rect></g><g class="edgeLabel" transform="translate(106.671875, 924.025016784668)"><g class="label" data-id="L_Q4_DZ_0" transform="translate(0, -10.5)"><g><rect class="background" style="" x="-13.328125" y="-1" width="26.65625" height="23"></rect><text y="-10.1" text-anchor="middle" style=""><tspan class="text-outer-tspan row" x="0" y="-0.1em" dy="1.1em" text-anchor="middle"><tspan font-style="normal" class="text-inner-tspan" font-weight="normal">Yes</tspan></tspan></text></g></g></g><g class="edgeLabel" transform="translate(316.8671875, 924.025016784668)"><g class="label" data-id="L_Q4_DMS_0" transform="translate(0, -10.5)"><g><rect class="background" style="" x="-75.8125" y="-1" width="151.625" height="23"></rect><text y="-10.1" text-anchor="middle" style=""><tspan class="text-outer-tspan row" x="0" y="-0.1em" dy="1.1em" text-anchor="middle"><tspan font-style="normal" class="text-inner-tspan" font-weight="normal">No,</tspan><tspan font-style="normal" class="text-inner-tspan" font-weight="normal"> AWS-native</tspan><tspan font-style="normal" class="text-inner-tspan" font-weight="normal"> sinks</tspan></tspan></text></g></g></g><g class="edgeLabel" transform="translate(488.0078125, 924.025016784668)"><g class="label" data-id="L_Q4_FT_0" transform="translate(0, -10.5)"><g><rect class="background" style="" x="-65.203125" y="-1" width="130.40625" height="23"></rect><text y="-10.1" text-anchor="middle" style=""><tspan class="text-outer-tspan row" x="0" y="-0.1em" dy="1.1em" text-anchor="middle"><tspan font-style="normal" class="text-inner-tspan" font-weight="normal">No,</tspan><tspan font-style="normal" class="text-inner-tspan" font-weight="normal"> SaaS,</tspan><tspan font-style="normal" class="text-inner-tspan" font-weight="normal"> low</tspan><tspan font-style="normal" class="text-inner-tspan" font-weight="normal"> ops</tspan></tspan></text></g></g></g></g><g class="nodes"><g class="node default" id="gfc665807-f988-4ab3-9414-a04047815cf9-light-flowchart-Start-0" data-look="classic" transform="translate(669.33984375, 33.79999923706055)"><g class="basic label-container outer-path"><path d="M-66.84531307220459 -25.799999237060547 C-33.40967815260486 -25.799999237060547, 0.025956766994866598 -25.799999237060547, 66.84531307220459 -25.799999237060547 C66.84531307220459 -25.799999237060547, 66.84531307220459 -25.799999237060547, 66.84531307220459 -25.799999237060547 C67.31348424056526 -25.78498589893112, 67.78165540892593 -25.76997256080169, 68.49832469882529 -25.746990371586765 C68.85063313450527 -25.7130036005096, 69.20294157018526 -25.679016829432438, 70.14454374610231 -25.58818159996402 C70.68527367304287 -25.500760578799483, 71.22600359998343 -25.413339557634945, 71.77720554685753 -25.32422550149928 C72.14205837099176 -25.240950225277825, 72.506911195126 -25.15767494905637, 73.38960114354678 -24.956206728419545 C73.94881539286537 -24.790234874597285, 74.50802964218396 -24.624263020775025, 74.97510485680552 -24.48563754880318 C75.35953105156958 -24.344165155533215, 75.74395724633365 -24.202692762263247, 76.52720151178644 -23.914451632345997 C76.92422152617839 -23.738702649154966, 77.32124154057034 -23.56295366596393, 78.03951321041056 -23.24499610449772 C78.60563240704052 -22.949652082232525, 79.17175160367047 -22.65430805996733, 79.5058255395184 -22.480021901620034 C79.80685746435559 -22.29753457972378, 80.10788938919276 -22.115047257827527, 80.92011310722664 -21.62267246679901 C81.25762391026475 -21.3872395412068, 81.59513471330288 -21.15180661561459, 82.27656430255584 -20.67647083276321 C82.57933064450171 -20.435022732012108, 82.88209698644758 -20.193574631261004, 83.5696051765865 -19.64530514498651 C83.91513566278996 -19.331503499652214, 84.26066614899342 -19.017701854317924, 84.79392234701088 -18.533412684464313 C85.08695062026129 -18.230836934264612, 85.37997889351169 -17.92826118406491, 85.94448483196044 -17.345362455817106 C86.29089298747586 -16.938451725166246, 86.63730114299129 -16.53154099451539, 87.01656472338968 -16.086036412270357 C87.21459220171693 -15.820697631986254, 87.41261968004417 -15.55535885170215, 88.00575661506427 -14.76060939466161 C88.26746338904762 -14.358557511714498, 88.52917016303098 -13.956505628767385, 88.90799570532036 -13.374527866909407 C89.1553442960212 -12.935335397359294, 89.40269288672204 -12.49614292780918, 89.7195745002064 -11.93348753532484 C89.88094434144745 -11.59839960722634, 90.04231418268849 -11.263311679127838, 90.43715804837109 -10.443409943732584 C90.61098268949154 -10.014059719494275, 90.78480733061197 -9.584709495255966, 91.05779764509381 -8.910418140577123 C91.26322940276346 -8.291690417581789, 91.46866116043309 -7.672962694586452, 91.5789429491449 -7.340811518003323 C91.67012099061581 -6.993110129061614, 91.76129903208671 -6.645408740119905, 91.99845246268467 -5.741039926302914 C92.11592302210843 -5.137853431073429, 92.2333935815322 -4.534666935843943, 92.31460233113748 -4.117677170096137 C92.38005913660295 -3.610007112814179, 92.44551594206843 -3.1023370555322214, 92.52609342687991 -2.4773939951584394 C92.55433477821363 -2.03751215212716, 92.58257612954736 -1.597630309095881, 92.63205668763487 -0.8269306768952902 C92.63205668763487 -0.23195417207520708, 92.63205668763487 0.36302233274487605, 92.63205668763487 0.826930676895284 C92.60617946093251 1.229989370505995, 92.58030223423015 1.6330480641167058, 92.52609342687991 2.4773939951584216 C92.4582498497719 3.0035753819785196, 92.3904062726639 3.5297567687986175, 92.31460233113748 4.117677170096119 C92.2051174454339 4.6798589185452215, 92.0956325597303 5.242040666994324, 91.99845246268467 5.741039926302909 C91.85681064541897 6.281181563488929, 91.71516882815328 6.821323200674951, 91.5789429491449 7.340811518003306 C91.44062820233454 7.7573934979339745, 91.30231345552417 8.173975477864643, 91.05779764509383 8.910418140577105 C90.88328622059014 9.341464733050096, 90.70877479608644 9.772511325523087, 90.43715804837109 10.443409943732577 C90.1691677250216 10.999897584242145, 89.9011774016721 11.556385224751713, 89.7195745002064 11.933487535324835 C89.45392697906938 12.405171608832045, 89.18827945793235 12.876855682339258, 88.90799570532037 13.374527866909402 C88.69851341419448 13.696348919950236, 88.48903112306857 14.01816997299107, 88.00575661506429 14.760609394661596 C87.75938165509757 15.090729395796393, 87.51300669513087 15.420849396931187, 87.01656472338968 16.086036412270353 C86.7415723360999 16.40905811789104, 86.46657994881012 16.73207982351172, 85.94448483196045 17.345362455817092 C85.48877849994125 17.815916657812583, 85.03307216792206 18.28647085980807, 84.79392234701088 18.533412684464306 C84.33676186470154 18.948593738694107, 83.87960138239222 19.363774792923913, 83.56960517658653 19.64530514498649 C83.22125180293482 19.92310769040115, 82.87289842928308 20.200910235815808, 82.27656430255584 20.676470832763208 C81.82457075847331 20.99176196263001, 81.37257721439079 21.307053092496815, 80.92011310722665 21.622672466799003 C80.46553030454878 21.898243233207406, 80.0109475018709 22.17381399961581, 79.50582553951841 22.48002190162003 C78.97713195176966 22.755841007704145, 78.44843836402092 23.031660113788263, 78.03951321041058 23.244996104497716 C77.72970531394829 23.38213887013685, 77.41989741748598 23.519281635775986, 76.52720151178644 23.914451632345994 C76.19921597848379 24.035153340466405, 75.87123044518114 24.155855048586815, 74.97510485680553 24.485637548803172 C74.49371250758881 24.628512271170692, 74.01232015837209 24.771386993538208, 73.38960114354681 24.95620672841954 C73.04199280570853 25.03554606317474, 72.69438446787024 25.114885397929932, 71.77720554685754 25.324225501499278 C71.1728903098168 25.42192650248937, 70.56857507277606 25.51962750347946, 70.14454374610233 25.588181599964017 C69.51889035210165 25.64853763042497, 68.89323695810096 25.70889366088592, 68.49832469882529 25.746990371586765 C67.85143470152866 25.767734874705074, 67.20454470423203 25.788479377823382, 66.84531307220459 25.799999237060547 C66.84531307220459 25.799999237060547, 66.84531307220459 25.799999237060547, 66.84531307220459 25.799999237060547 C16.455637466728582 25.799999237060547, -33.934038138747425 25.799999237060547, -66.84531307220459 25.799999237060547 C-67.41924841204602 25.781594247809203, -67.99318375188744 25.763189258557855, -68.49832469882527 25.746990371586765 C-69.08945232650521 25.689965000279468, -69.68057995418515 25.632939628972167, -70.14454374610231 25.588181599964017 C-70.49666498387019 25.53125336898269, -70.84878622163806 25.474325138001362, -71.77720554685753 25.324225501499278 C-72.12386804670204 25.245102048093994, -72.47053054654654 25.16597859468871, -73.38960114354678 24.956206728419545 C-73.99700612506676 24.775932118238227, -74.60441110658674 24.59565750805691, -74.9751048568055 24.485637548803183 C-75.57438670096414 24.265096290452163, -76.1736685451228 24.04455503210114, -76.52720151178644 23.914451632345997 C-76.84586472330874 23.773388881413393, -77.16452793483101 23.632326130480788, -78.03951321041056 23.244996104497723 C-78.61728766076521 22.943571543829897, -79.19506211111988 22.642146983162068, -79.5058255395184 22.480021901620038 C-80.03460197994633 22.159474515997335, -80.56337842037428 21.838927130374636, -80.92011310722663 21.622672466799017 C-81.22342458511287 21.41109550996783, -81.52673606299912 21.199518553136645, -82.27656430255584 20.67647083276321 C-82.58425720516688 20.43109393098292, -82.89195010777792 20.185717029202632, -83.5696051765865 19.645305144986512 C-83.84908182758294 19.391491845098532, -84.12855847857936 19.13767854521055, -84.79392234701086 18.533412684464324 C-85.14380804374923 18.172126976432015, -85.49369374048761 17.81084126839971, -85.94448483196044 17.3453624558171 C-86.2157735486385 17.026691292441765, -86.48706226531657 16.70802012906643, -87.01656472338968 16.08603641227036 C-87.33415816852 15.660490129153791, -87.65175161365032 15.234943846037224, -88.00575661506427 14.760609394661614 C-88.19764935107342 14.46581062173701, -88.38954208708256 14.171011848812405, -88.90799570532036 13.374527866909418 C-89.0855794005618 13.059210033709158, -89.26316309580324 12.743892200508899, -89.71957450020639 11.933487535324842 C-89.96848868280249 11.416611909253742, -90.21740286539858 10.899736283182644, -90.43715804837109 10.443409943732586 C-90.64114654573355 9.939554411398, -90.84513504309601 9.435698879063413, -91.05779764509381 8.910418140577127 C-91.24912193055351 8.334179876157693, -91.4404462160132 7.757941611738261, -91.5789429491449 7.340811518003316 C-91.72682472447818 6.776874216290702, -91.87470649981144 6.212936914578089, -91.99845246268467 5.741039926302918 C-92.09762839427769 5.231792478413295, -92.19680432587073 4.722545030523673, -92.31460233113748 4.117677170096139 C-92.37096540504407 3.6805362990243844, -92.42732847895068 3.2433954279526294, -92.52609342687991 2.477393995158454 C-92.55962730754158 1.955076735791808, -92.59316118820323 1.4327594764251617, -92.63205668763487 0.8269306768952934 C-92.63205668763487 0.20913925144180956, -92.63205668763487 -0.4086521740116743, -92.63205668763487 -0.8269306768952809 C-92.60095257555038 -1.3114023293987191, -92.56984846346587 -1.7958739819021576, -92.52609342687991 -2.4773939951584185 C-92.4805735186352 -2.8304374145818434, -92.43505361039048 -3.183480834005268, -92.31460233113748 -4.117677170096128 C-92.22671841821055 -4.568942488704326, -92.13883450528363 -5.0202078073125245, -91.99845246268467 -5.741039926302906 C-91.88310144811696 -6.180923338295551, -91.76775043354924 -6.620806750288194, -91.5789429491449 -7.340811518003303 C-91.40079875506996 -7.877353447134268, -91.22265456099501 -8.413895376265232, -91.05779764509383 -8.910418140577093 C-90.89957437579528 -9.301232674783295, -90.74135110649675 -9.692047208989496, -90.43715804837109 -10.443409943732574 C-90.28113487212764 -10.767395407563262, -90.1251116958842 -11.091380871393952, -89.7195745002064 -11.933487535324831 C-89.401720271888 -12.497869903934939, -89.08386604356959 -13.062252272545045, -88.90799570532036 -13.374527866909409 C-88.6926282711698 -13.705390080018308, -88.47726083701923 -14.036252293127207, -88.00575661506429 -14.760609394661605 C-87.68300945061462 -15.193061192152593, -87.36026228616497 -15.62551298964358, -87.01656472338968 -16.086036412270353 C-86.77299905192888 -16.372142509247524, -86.52943338046809 -16.6582486062247, -85.94448483196045 -17.345362455817092 C-85.71115870581158 -17.58629083749701, -85.47783257966273 -17.82721921917693, -84.79392234701089 -18.5334126844643 C-84.36550164945085 -18.922493026597834, -83.9370809518908 -19.311573368731366, -83.56960517658653 -19.645305144986487 C-83.30250612150945 -19.8583095336061, -83.03540706643237 -20.071313922225713, -82.27656430255585 -20.676470832763204 C-81.86977301173445 -20.96023082752905, -81.46298172091306 -21.24399082229489, -80.92011310722665 -21.622672466799 C-80.60470846200927 -21.81387261625321, -80.28930381679189 -22.005072765707425, -79.50582553951841 -22.480021901620027 C-79.05636454267143 -22.71450541578159, -78.60690354582444 -22.948988929943155, -78.03951321041058 -23.244996104497716 C-77.6634872128637 -23.411451659196818, -77.28746121531682 -23.57790721389592, -76.52720151178646 -23.91445163234599 C-76.0435413052028 -24.092443059274718, -75.55988109861913 -24.270434486203445, -74.97510485680553 -24.485637548803172 C-74.34556897256383 -24.67248049474482, -73.71603308832213 -24.859323440686467, -73.38960114354681 -24.956206728419538 C-72.81139498432678 -25.088178511113703, -72.23318882510675 -25.22015029380787, -71.77720554685754 -25.324225501499278 C-71.16745636732479 -25.422805020170625, -70.55770718779203 -25.521384538841968, -70.14454374610233 -25.588181599964017 C-69.77832294943444 -25.62351047977362, -69.41210215276656 -25.658839359583226, -68.49832469882529 -25.746990371586765 C-67.91576988072563 -25.765671770729057, -67.333215062626 -25.784353169871345, -66.8453130722046 -25.799999237060547 C-66.8453130722046 -25.799999237060547, -66.84531307220459 -25.799999237060547, -66.84531307220459 -25.799999237060547" stroke="none" stroke-width="0" fill="#ECECFF" style=""></path><path d="M-66.84531307220459 -25.799999237060547 C-14.7996833603652 -25.799999237060547, 37.24594635147419 -25.799999237060547, 66.84531307220459 -25.799999237060547 M-66.84531307220459 -25.799999237060547 C-19.41483889649281 -25.799999237060547, 28.01563527921897 -25.799999237060547, 66.84531307220459 -25.799999237060547 M66.84531307220459 -25.799999237060547 C66.84531307220459 -25.799999237060547, 66.84531307220459 -25.799999237060547, 66.84531307220459 -25.799999237060547 M66.84531307220459 -25.799999237060547 C66.84531307220459 -25.799999237060547, 66.84531307220459 -25.799999237060547, 66.84531307220459 -25.799999237060547 M66.84531307220459 -25.799999237060547 C67.48425401331292 -25.779509644702298, 68.12319495442125 -25.75902005234405, 68.49832469882529 -25.746990371586765 M66.84531307220459 -25.799999237060547 C67.30129679005246 -25.78537672674763, 67.75728050790033 -25.770754216434714, 68.49832469882529 -25.746990371586765 M68.49832469882529 -25.746990371586765 C69.05660330880501 -25.693133905510283, 69.61488191878473 -25.6392774394338, 70.14454374610231 -25.58818159996402 M68.49832469882529 -25.746990371586765 C69.06615055672123 -25.692212893986053, 69.63397641461715 -25.63743541638534, 70.14454374610231 -25.58818159996402 M70.14454374610231 -25.58818159996402 C70.55590927423735 -25.521675211562464, 70.9672748023724 -25.455168823160907, 71.77720554685753 -25.32422550149928 M70.14454374610231 -25.58818159996402 C70.60816456746154 -25.51322698099983, 71.07178538882077 -25.438272362035637, 71.77720554685753 -25.32422550149928 M71.77720554685753 -25.32422550149928 C72.2491795697596 -25.216500510690217, 72.72115359266166 -25.108775519881153, 73.38960114354678 -24.956206728419545 M71.77720554685753 -25.32422550149928 C72.21971560979664 -25.223225467281456, 72.66222567273574 -25.12222543306363, 73.38960114354678 -24.956206728419545 M73.38960114354678 -24.956206728419545 C73.93745030292827 -24.793607973634042, 74.48529946230975 -24.63100921884854, 74.97510485680552 -24.48563754880318 M73.38960114354678 -24.956206728419545 C73.82487376647633 -24.827020098726678, 74.26014638940589 -24.69783346903381, 74.97510485680552 -24.48563754880318 M74.97510485680552 -24.48563754880318 C75.38047270278909 -24.33645843430193, 75.78584054877267 -24.187279319800687, 76.52720151178644 -23.914451632345997 M74.97510485680552 -24.48563754880318 C75.39702033888312 -24.33036875125466, 75.81893582096072 -24.17509995370614, 76.52720151178644 -23.914451632345997 M76.52720151178644 -23.914451632345997 C76.98558869485805 -23.711537223972858, 77.44397587792966 -23.50862281559972, 78.03951321041056 -23.24499610449772 M76.52720151178644 -23.914451632345997 C77.11925720206182 -23.652366140969132, 77.7113128923372 -23.39028064959227, 78.03951321041056 -23.24499610449772 M78.03951321041056 -23.24499610449772 C78.37202091412979 -23.071527048448747, 78.70452861784901 -22.898057992399778, 79.5058255395184 -22.480021901620034 M78.03951321041056 -23.24499610449772 C78.59146765364511 -22.957041825005952, 79.14342209687966 -22.66908754551418, 79.5058255395184 -22.480021901620034 M79.5058255395184 -22.480021901620034 C79.98702831219974 -22.188313952959223, 80.46823108488108 -21.896606004298416, 80.92011310722664 -21.62267246679901 M79.5058255395184 -22.480021901620034 C80.0634924365758 -22.14196095140938, 80.62115933363322 -21.803900001198727, 80.92011310722664 -21.62267246679901 M80.92011310722664 -21.62267246679901 C81.25096393698705 -21.391885250259737, 81.58181476674746 -21.161098033720464, 82.27656430255584 -20.67647083276321 M80.92011310722664 -21.62267246679901 C81.38604069692745 -21.297661549904007, 81.85196828662825 -20.972650633009007, 82.27656430255584 -20.67647083276321 M82.27656430255584 -20.67647083276321 C82.76747972174125 -20.2849788497708, 83.25839514092665 -19.893486866778385, 83.5696051765865 -19.64530514498651 M82.27656430255584 -20.67647083276321 C82.66414366856579 -20.367386602290367, 83.05172303457573 -20.058302371817522, 83.5696051765865 -19.64530514498651 M83.5696051765865 -19.64530514498651 C83.89183850796366 -19.352661359256533, 84.2140718393408 -19.060017573526554, 84.79392234701088 -18.533412684464313 M83.5696051765865 -19.64530514498651 C83.97990774995174 -19.272679203867412, 84.39021032331696 -18.900053262748315, 84.79392234701088 -18.533412684464313 M84.79392234701088 -18.533412684464313 C85.07281363834855 -18.245434528757315, 85.35170492968622 -17.957456373050317, 85.94448483196044 -17.345362455817106 M84.79392234701088 -18.533412684464313 C85.11931263319764 -18.19742049893716, 85.44470291938438 -17.86142831341001, 85.94448483196044 -17.345362455817106 M85.94448483196044 -17.345362455817106 C86.18439430844435 -17.063551133503164, 86.42430378492827 -16.781739811189226, 87.01656472338968 -16.086036412270357 M85.94448483196044 -17.345362455817106 C86.33102889370366 -16.891305805913305, 86.7175729554469 -16.437249156009504, 87.01656472338968 -16.086036412270357 M87.01656472338968 -16.086036412270357 C87.3112845553799 -15.691138686932499, 87.60600438737012 -15.296240961594641, 88.00575661506427 -14.76060939466161 M87.01656472338968 -16.086036412270357 C87.21681706865265 -15.817716512981942, 87.4170694139156 -15.549396613693526, 88.00575661506427 -14.76060939466161 M88.00575661506427 -14.76060939466161 C88.21298368222865 -14.442252971238087, 88.42021074939305 -14.123896547814565, 88.90799570532036 -13.374527866909407 M88.00575661506427 -14.76060939466161 C88.33816567803332 -14.249939809609565, 88.67057474100235 -13.739270224557519, 88.90799570532036 -13.374527866909407 M88.90799570532036 -13.374527866909407 C89.1378831862261 -12.966339365929572, 89.36777066713185 -12.558150864949738, 89.7195745002064 -11.93348753532484 M88.90799570532036 -13.374527866909407 C89.12421348441734 -12.990611305698442, 89.34043126351432 -12.606694744487479, 89.7195745002064 -11.93348753532484 M89.7195745002064 -11.93348753532484 C89.90778384892607 -11.542666795673508, 90.09599319764574 -11.151846056022174, 90.43715804837109 -10.443409943732584 M89.7195745002064 -11.93348753532484 C89.86595007760017 -11.629535516931053, 90.01232565499394 -11.325583498537265, 90.43715804837109 -10.443409943732584 M90.43715804837109 -10.443409943732584 C90.65691240907081 -9.900612424142718, 90.87666676977054 -9.357814904552852, 91.05779764509381 -8.910418140577123 M90.43715804837109 -10.443409943732584 C90.66412181636709 -9.882805048736511, 90.8910855843631 -9.322200153740438, 91.05779764509381 -8.910418140577123 M91.05779764509381 -8.910418140577123 C91.19238522926915 -8.505061780660473, 91.32697281344447 -8.099705420743822, 91.5789429491449 -7.340811518003323 M91.05779764509381 -8.910418140577123 C91.18164751928079 -8.537402052323644, 91.30549739346776 -8.164385964070167, 91.5789429491449 -7.340811518003323 M91.5789429491449 -7.340811518003323 C91.67862725039323 -6.960672073893969, 91.77831155164158 -6.580532629784614, 91.99845246268467 -5.741039926302914 M91.5789429491449 -7.340811518003323 C91.69869275111564 -6.8841536231964024, 91.81844255308638 -6.427495728389482, 91.99845246268467 -5.741039926302914 M91.99845246268467 -5.741039926302914 C92.12233270818682 -5.104941047748561, 92.24621295368897 -4.4688421691942075, 92.31460233113748 -4.117677170096137 M91.99845246268467 -5.741039926302914 C92.08323481185599 -5.305700482064016, 92.16801716102732 -4.870361037825117, 92.31460233113748 -4.117677170096137 M92.31460233113748 -4.117677170096137 C92.36870486977304 -3.6980685641934254, 92.42280740840859 -3.2784599582907146, 92.52609342687991 -2.4773939951584394 M92.31460233113748 -4.117677170096137 C92.380871859584 -3.6037037938634655, 92.44714138803052 -3.0897304176307943, 92.52609342687991 -2.4773939951584394 M92.52609342687991 -2.4773939951584394 C92.55699517264459 -1.9960743614333172, 92.58789691840927 -1.5147547277081947, 92.63205668763487 -0.8269306768952902 M92.52609342687991 -2.4773939951584394 C92.5503335592715 -2.0998343668769266, 92.57457369166306 -1.7222747385954138, 92.63205668763487 -0.8269306768952902 M92.63205668763487 -0.8269306768952902 C92.63205668763487 -0.30411246703804895, 92.63205668763487 0.2187057428191923, 92.63205668763487 0.826930676895284 M92.63205668763487 -0.8269306768952902 C92.63205668763487 -0.3633369448932784, 92.63205668763487 0.10025678710873343, 92.63205668763487 0.826930676895284 M92.63205668763487 0.826930676895284 C92.59120263215758 1.4632655677543105, 92.55034857668026 2.0996004586133368, 92.52609342687991 2.4773939951584216 M92.63205668763487 0.826930676895284 C92.59888627666099 1.3435866024873429, 92.56571586568711 1.860242528079402, 92.52609342687991 2.4773939951584216 M92.52609342687991 2.4773939951584216 C92.48238220271404 2.8164096180314826, 92.43867097854815 3.1554252409045436, 92.31460233113748 4.117677170096119 M92.52609342687991 2.4773939951584216 C92.46299186180636 2.9667972730554584, 92.3998902967328 3.456200550952495, 92.31460233113748 4.117677170096119 M92.31460233113748 4.117677170096119 C92.20198477684058 4.6959445096821515, 92.08936722254369 5.274211849268185, 91.99845246268467 5.741039926302909 M92.31460233113748 4.117677170096119 C92.2094797659033 4.6574593249116045, 92.10435720066911 5.197241479727089, 91.99845246268467 5.741039926302909 M91.99845246268467 5.741039926302909 C91.90933418370595 6.080886548155189, 91.82021590472723 6.420733170007471, 91.5789429491449 7.340811518003306 M91.99845246268467 5.741039926302909 C91.87303740941724 6.219301879639531, 91.7476223561498 6.697563832976152, 91.5789429491449 7.340811518003306 M91.5789429491449 7.340811518003306 C91.41074423404595 7.847399249055468, 91.242545518947 8.35398698010763, 91.05779764509383 8.910418140577105 M91.5789429491449 7.340811518003306 C91.42479457417713 7.805081863198025, 91.27064619920937 8.269352208392744, 91.05779764509383 8.910418140577105 M91.05779764509383 8.910418140577105 C90.86565432963052 9.385015844609763, 90.67351101416722 9.859613548642422, 90.43715804837109 10.443409943732577 M91.05779764509383 8.910418140577105 C90.81226496941964 9.516888596543689, 90.56673229374546 10.12335905251027, 90.43715804837109 10.443409943732577 M90.43715804837109 10.443409943732577 C90.24029664304365 10.852196864054294, 90.04343523771622 11.26098378437601, 89.7195745002064 11.933487535324835 M90.43715804837109 10.443409943732577 C90.25145523997413 10.82902579877243, 90.06575243157718 11.214641653812283, 89.7195745002064 11.933487535324835 M89.7195745002064 11.933487535324835 C89.4382922146224 12.432932716299257, 89.15700992903837 12.932377897273682, 88.90799570532037 13.374527866909402 M89.7195745002064 11.933487535324835 C89.43374122357419 12.441013461743157, 89.14790794694197 12.948539388161478, 88.90799570532037 13.374527866909402 M88.90799570532037 13.374527866909402 C88.71273505306783 13.674500663595994, 88.5174744008153 13.974473460282585, 88.00575661506429 14.760609394661596 M88.90799570532037 13.374527866909402 C88.55579241974434 13.915606693378788, 88.20358913416831 14.456685519848174, 88.00575661506429 14.760609394661596 M88.00575661506429 14.760609394661596 C87.72442181152111 15.137572401281588, 87.44308700797794 15.514535407901581, 87.01656472338968 16.086036412270353 M88.00575661506429 14.760609394661596 C87.78732904626821 15.053282437687455, 87.56890147747214 15.345955480713315, 87.01656472338968 16.086036412270353 M87.01656472338968 16.086036412270353 C86.63386323946303 16.535579351621937, 86.25116175553637 16.98512229097352, 85.94448483196045 17.345362455817092 M87.01656472338968 16.086036412270353 C86.70114698216403 16.45654403889192, 86.38572924093837 16.827051665513487, 85.94448483196045 17.345362455817092 M85.94448483196045 17.345362455817092 C85.64930070640811 17.6501643005173, 85.35411658085577 17.954966145217508, 84.79392234701088 18.533412684464306 M85.94448483196045 17.345362455817092 C85.67521803145625 17.62340253455314, 85.40595123095204 17.901442613289188, 84.79392234701088 18.533412684464306 M84.79392234701088 18.533412684464306 C84.46630000448536 18.83095062753382, 84.13867766195983 19.12848857060333, 83.56960517658653 19.64530514498649 M84.79392234701088 18.533412684464306 C84.34350303000885 18.942471590723486, 83.8930837130068 19.35153049698266, 83.56960517658653 19.64530514498649 M83.56960517658653 19.64530514498649 C83.21957082689403 19.924448224061017, 82.86953647720154 20.203591303135546, 82.27656430255584 20.676470832763208 M83.56960517658653 19.64530514498649 C83.21851631460612 19.925289169548872, 82.86742745262572 20.205273194111257, 82.27656430255584 20.676470832763208 M82.27656430255584 20.676470832763208 C81.97166026694246 20.88915868892413, 81.66675623132909 21.10184654508505, 80.92011310722665 21.622672466799003 M82.27656430255584 20.676470832763208 C81.93949435552014 20.911596236292482, 81.60242440848444 21.146721639821752, 80.92011310722665 21.622672466799003 M80.92011310722665 21.622672466799003 C80.48884935023078 21.884107090677052, 80.0575855932349 22.1455417145551, 79.50582553951841 22.48002190162003 M80.92011310722665 21.622672466799003 C80.51640299816307 21.867403907377287, 80.11269288909949 22.112135347955576, 79.50582553951841 22.48002190162003 M79.50582553951841 22.48002190162003 C79.02098557708742 22.732962599465463, 78.53614561465642 22.985903297310898, 78.03951321041058 23.244996104497716 M79.50582553951841 22.48002190162003 C79.15757949842866 22.66170163819432, 78.80933345733891 22.84338137476861, 78.03951321041058 23.244996104497716 M78.03951321041058 23.244996104497716 C77.5667104289906 23.454291870636137, 77.09390764757065 23.66358763677456, 76.52720151178644 23.914451632345994 M78.03951321041058 23.244996104497716 C77.70604229539165 23.39261378651336, 77.37257138037275 23.540231468529004, 76.52720151178644 23.914451632345994 M76.52720151178644 23.914451632345994 C75.97181156985899 24.118840264943643, 75.41642162793154 24.323228897541288, 74.97510485680553 24.485637548803172 M76.52720151178644 23.914451632345994 C76.10170628050469 24.071037810692484, 75.67621104922293 24.22762398903897, 74.97510485680553 24.485637548803172 M74.97510485680553 24.485637548803172 C74.60076904699834 24.596738452225182, 74.22643323719116 24.707839355647195, 73.38960114354681 24.95620672841954 M74.97510485680553 24.485637548803172 C74.5972079462464 24.59779536823576, 74.21931103568727 24.709953187668347, 73.38960114354681 24.95620672841954 M73.38960114354681 24.95620672841954 C73.06319539998717 25.030706709390493, 72.73678965642753 25.105206690361445, 71.77720554685754 25.324225501499278 M73.38960114354681 24.95620672841954 C73.06534096957122 25.030216997134083, 72.74108079559564 25.10422726584863, 71.77720554685754 25.324225501499278 M71.77720554685754 25.324225501499278 C71.36398394243358 25.391031965921144, 70.95076233800961 25.457838430343006, 70.14454374610233 25.588181599964017 M71.77720554685754 25.324225501499278 C71.25428141479227 25.40876781983438, 70.731357282727 25.49331013816948, 70.14454374610233 25.588181599964017 M70.14454374610233 25.588181599964017 C69.69993593559305 25.631072380724724, 69.25532812508375 25.673963161485432, 68.49832469882529 25.746990371586765 M70.14454374610233 25.588181599964017 C69.53119194317586 25.647350910728868, 68.91784014024938 25.70652022149372, 68.49832469882529 25.746990371586765 M68.49832469882529 25.746990371586765 C68.12148957913992 25.75907474041001, 67.74465445945455 25.771159109233256, 66.84531307220459 25.799999237060547 M68.49832469882529 25.746990371586765 C67.87003937460463 25.767138259051325, 67.24175405038399 25.787286146515886, 66.84531307220459 25.799999237060547 M66.84531307220459 25.799999237060547 C66.84531307220459 25.799999237060547, 66.84531307220459 25.799999237060547, 66.84531307220459 25.799999237060547 M66.84531307220459 25.799999237060547 C66.84531307220459 25.799999237060547, 66.84531307220459 25.799999237060547, 66.84531307220459 25.799999237060547 M66.84531307220459 25.799999237060547 C24.036329064606278 25.799999237060547, -18.772654942992034 25.799999237060547, -66.84531307220459 25.799999237060547 M66.84531307220459 25.799999237060547 C23.643951845548273 25.799999237060547, -19.557409381108044 25.799999237060547, -66.84531307220459 25.799999237060547 M-66.84531307220459 25.799999237060547 C-67.32448849910804 25.78463301377814, -67.80366392601151 25.769266790495735, -68.49832469882527 25.746990371586765 M-66.84531307220459 25.799999237060547 C-67.30083685611419 25.785391475933825, -67.75636064002377 25.7707837148071, -68.49832469882527 25.746990371586765 M-68.49832469882527 25.746990371586765 C-68.87504687352042 25.710648436468627, -69.25176904821556 25.67430650135049, -70.14454374610231 25.588181599964017 M-68.49832469882527 25.746990371586765 C-68.93489191487267 25.704875257303566, -69.37145913092006 25.66276014302037, -70.14454374610231 25.588181599964017 M-70.14454374610231 25.588181599964017 C-70.75726922901534 25.489120895643726, -71.36999471192836 25.39006019132344, -71.77720554685753 25.324225501499278 M-70.14454374610231 25.588181599964017 C-70.62001972295681 25.511310331397453, -71.0954956998113 25.43443906283089, -71.77720554685753 25.324225501499278 M-71.77720554685753 25.324225501499278 C-72.28446294824022 25.208447309797574, -72.7917203496229 25.09266911809587, -73.38960114354678 24.956206728419545 M-71.77720554685753 25.324225501499278 C-72.31993467691879 25.200351119201354, -72.86266380698004 25.07647673690343, -73.38960114354678 24.956206728419545 M-73.38960114354678 24.956206728419545 C-73.83187958444708 24.82494080872725, -74.27415802534738 24.693674889034952, -74.9751048568055 24.485637548803183 M-73.38960114354678 24.956206728419545 C-74.01711527627472 24.769963827714793, -74.64462940900266 24.583720927010038, -74.9751048568055 24.485637548803183 M-74.9751048568055 24.485637548803183 C-75.5778526951257 24.26382077256141, -76.18060053344591 24.042003996319636, -76.52720151178644 23.914451632345997 M-74.9751048568055 24.485637548803183 C-75.35908846571822 24.344328031217735, -75.74307207463093 24.203018513632287, -76.52720151178644 23.914451632345997 M-76.52720151178644 23.914451632345997 C-77.11003061445936 23.65645047760375, -77.69285971713227 23.398449322861502, -78.03951321041056 23.244996104497723 M-76.52720151178644 23.914451632345997 C-76.99565122600218 23.707082839929733, -77.46410094021793 23.499714047513468, -78.03951321041056 23.244996104497723 M-78.03951321041056 23.244996104497723 C-78.54651729818005 22.98049239666, -79.05352138594954 22.715988688822275, -79.5058255395184 22.480021901620038 M-78.03951321041056 23.244996104497723 C-78.53316878399956 22.98745630795783, -79.02682435758855 22.729916511417937, -79.5058255395184 22.480021901620038 M-79.5058255395184 22.480021901620038 C-80.06283695091474 22.142358310669177, -80.61984836231109 21.80469471971832, -80.92011310722663 21.622672466799017 M-79.5058255395184 22.480021901620038 C-79.88382006546645 22.25087939864793, -80.2618145914145 22.021736895675815, -80.92011310722663 21.622672466799017 M-80.92011310722663 21.622672466799017 C-81.44477665730145 21.25668988658585, -81.96944020737627 20.890707306372686, -82.27656430255584 20.67647083276321 M-80.92011310722663 21.622672466799017 C-81.19984905091093 21.42754078205868, -81.47958499459523 21.232409097318342, -82.27656430255584 20.67647083276321 M-82.27656430255584 20.67647083276321 C-82.7076161320666 20.3327184694993, -83.13866796157737 19.988966106235388, -83.5696051765865 19.645305144986512 M-82.27656430255584 20.67647083276321 C-82.67892083117844 20.355602208343583, -83.08127735980105 20.034733583923956, -83.5696051765865 19.645305144986512 M-83.5696051765865 19.645305144986512 C-84.035659239198 19.22204717643753, -84.50171330180949 18.798789207888547, -84.79392234701086 18.533412684464324 M-83.5696051765865 19.645305144986512 C-84.05646177412554 19.203154864621247, -84.54331837166457 18.761004584255982, -84.79392234701086 18.533412684464324 M-84.79392234701086 18.533412684464324 C-85.20015536365375 18.1139437424296, -85.60638838029665 17.694474800394882, -85.94448483196044 17.3453624558171 M-84.79392234701086 18.533412684464324 C-85.06733282235167 18.251093921257443, -85.34074329769248 17.968775158050562, -85.94448483196044 17.3453624558171 M-85.94448483196044 17.3453624558171 C-86.27923034497492 16.95215132867101, -86.61397585798939 16.558940201524926, -87.01656472338968 16.08603641227036 M-85.94448483196044 17.3453624558171 C-86.27542428831563 16.956622139393765, -86.60636374467083 16.567881822970428, -87.01656472338968 16.08603641227036 M-87.01656472338968 16.08603641227036 C-87.28170538921566 15.730772074875105, -87.54684605504166 15.375507737479849, -88.00575661506427 14.760609394661614 M-87.01656472338968 16.08603641227036 C-87.23148435065431 15.798063691316578, -87.44640397791895 15.510090970362796, -88.00575661506427 14.760609394661614 M-88.00575661506427 14.760609394661614 C-88.20938527844005 14.447781085764108, -88.41301394181583 14.134952776866603, -88.90799570532036 13.374527866909418 M-88.00575661506427 14.760609394661614 C-88.31168400436425 14.290622771690302, -88.61761139366425 13.82063614871899, -88.90799570532036 13.374527866909418 M-88.90799570532036 13.374527866909418 C-89.07049513526567 13.08599367418992, -89.23299456521099 12.797459481470423, -89.71957450020639 11.933487535324842 M-88.90799570532036 13.374527866909418 C-89.191107157491 12.871834815437236, -89.47421860966165 12.369141763965054, -89.71957450020639 11.933487535324842 M-89.71957450020639 11.933487535324842 C-89.92701241931923 11.502738257826602, -90.13445033843206 11.071988980328362, -90.43715804837109 10.443409943732586 M-89.71957450020639 11.933487535324842 C-89.9389284278016 11.477994411251236, -90.15828235539679 11.022501287177633, -90.43715804837109 10.443409943732586 M-90.43715804837109 10.443409943732586 C-90.6705895708067 9.866829570225168, -90.90402109324229 9.290249196717749, -91.05779764509381 8.910418140577127 M-90.43715804837109 10.443409943732586 C-90.63583574425954 9.952672193716158, -90.834513440148 9.461934443699729, -91.05779764509381 8.910418140577127 M-91.05779764509381 8.910418140577127 C-91.19089273601469 8.50955693254637, -91.32398782693558 8.108695724515616, -91.5789429491449 7.340811518003316 M-91.05779764509381 8.910418140577127 C-91.2082427982426 8.45730130947294, -91.35868795139137 8.004184478368755, -91.5789429491449 7.340811518003316 M-91.5789429491449 7.340811518003316 C-91.71857538943804 6.808332506083123, -91.85820782973119 6.27585349416293, -91.99845246268467 5.741039926302918 M-91.5789429491449 7.340811518003316 C-91.72784232986797 6.772993645906437, -91.87674171059103 6.205175773809557, -91.99845246268467 5.741039926302918 M-91.99845246268467 5.741039926302918 C-92.08038450594394 5.320336200510059, -92.16231654920321 4.899632474717201, -92.31460233113748 4.117677170096139 M-91.99845246268467 5.741039926302918 C-92.0880807223286 5.280817755970764, -92.17770898197251 4.82059558563861, -92.31460233113748 4.117677170096139 M-92.31460233113748 4.117677170096139 C-92.36705855501269 3.7108370563730566, -92.4195147788879 3.303996942649974, -92.52609342687991 2.477393995158454 M-92.31460233113748 4.117677170096139 C-92.37565328693167 3.6441780128312304, -92.43670424272585 3.170678855566321, -92.52609342687991 2.477393995158454 M-92.52609342687991 2.477393995158454 C-92.56661305594046 1.8462680656844703, -92.607132685001 1.2151421362104866, -92.63205668763487 0.8269306768952934 M-92.52609342687991 2.477393995158454 C-92.5594834518248 1.9573174046986046, -92.59287347676971 1.4372408142387554, -92.63205668763487 0.8269306768952934 M-92.63205668763487 0.8269306768952934 C-92.63205668763487 0.33479293286833645, -92.63205668763487 -0.15734481115862053, -92.63205668763487 -0.8269306768952809 M-92.63205668763487 0.8269306768952934 C-92.63205668763487 0.47145922267943474, -92.63205668763487 0.11598776846357606, -92.63205668763487 -0.8269306768952809 M-92.63205668763487 -0.8269306768952809 C-92.59774018176175 -1.361437955654214, -92.56342367588861 -1.8959452344131469, -92.52609342687991 -2.4773939951584185 M-92.63205668763487 -0.8269306768952809 C-92.60652923730238 -1.2245413212108052, -92.58100178696989 -1.6221519655263297, -92.52609342687991 -2.4773939951584185 M-92.52609342687991 -2.4773939951584185 C-92.44552590693777 -3.1022597699733385, -92.36495838699562 -3.727125544788258, -92.31460233113748 -4.117677170096128 M-92.52609342687991 -2.4773939951584185 C-92.46178360378835 -2.976168283645578, -92.3974737806968 -3.4749425721327376, -92.31460233113748 -4.117677170096128 M-92.31460233113748 -4.117677170096128 C-92.19207030114306 -4.746853246963712, -92.06953827114866 -5.376029323831297, -91.99845246268467 -5.741039926302906 M-92.31460233113748 -4.117677170096128 C-92.22435268845538 -4.581090010999948, -92.13410304577329 -5.0445028519037685, -91.99845246268467 -5.741039926302906 M-91.99845246268467 -5.741039926302906 C-91.83169035929055 -6.376976101697478, -91.66492825589643 -7.01291227709205, -91.5789429491449 -7.340811518003303 M-91.99845246268467 -5.741039926302906 C-91.86232686300986 -6.260145835071062, -91.72620126333504 -6.779251743839217, -91.5789429491449 -7.340811518003303 M-91.5789429491449 -7.340811518003303 C-91.43055719840802 -7.787725757164055, -91.28217144767115 -8.234639996324807, -91.05779764509383 -8.910418140577093 M-91.5789429491449 -7.340811518003303 C-91.43064066568411 -7.78747436702718, -91.28233838222333 -8.234137216051057, -91.05779764509383 -8.910418140577093 M-91.05779764509383 -8.910418140577093 C-90.88115004673539 -9.34674112377142, -90.70450244837694 -9.783064106965746, -90.43715804837109 -10.443409943732574 M-91.05779764509383 -8.910418140577093 C-90.88772293258405 -9.330505968647126, -90.71764822007427 -9.750593796717157, -90.43715804837109 -10.443409943732574 M-90.43715804837109 -10.443409943732574 C-90.19870393532631 -10.938565011570741, -89.96024982228153 -11.433720079408909, -89.7195745002064 -11.933487535324831 M-90.43715804837109 -10.443409943732574 C-90.19036263336976 -10.955885903558789, -89.94356721836843 -11.468361863385004, -89.7195745002064 -11.933487535324831 M-89.7195745002064 -11.933487535324831 C-89.51828694041447 -12.290893980311038, -89.31699938062255 -12.648300425297245, -88.90799570532036 -13.374527866909409 M-89.7195745002064 -11.933487535324831 C-89.48735190946766 -12.34582226026867, -89.25512931872892 -12.75815698521251, -88.90799570532036 -13.374527866909409 M-88.90799570532036 -13.374527866909409 C-88.58346945995781 -13.873087327284976, -88.25894321459526 -14.371646787660541, -88.00575661506429 -14.760609394661605 M-88.90799570532036 -13.374527866909409 C-88.59335361791098 -13.85790260640086, -88.2787115305016 -14.341277345892308, -88.00575661506429 -14.760609394661605 M-88.00575661506429 -14.760609394661605 C-87.69862945435962 -15.172131810145924, -87.39150229365494 -15.58365422563024, -87.01656472338968 -16.086036412270353 M-88.00575661506429 -14.760609394661605 C-87.73716058195426 -15.120503609427043, -87.46856454884421 -15.480397824192483, -87.01656472338968 -16.086036412270353 M-87.01656472338968 -16.086036412270353 C-86.63068458349211 -16.53931318179601, -86.24480444359456 -16.99258995132167, -85.94448483196045 -17.345362455817092 M-87.01656472338968 -16.086036412270353 C-86.79382164555635 -16.347683105933566, -86.57107856772302 -16.60932979959678, -85.94448483196045 -17.345362455817092 M-85.94448483196045 -17.345362455817092 C-85.53871793463324 -17.764350091389264, -85.13295103730603 -18.183337726961437, -84.79392234701089 -18.5334126844643 M-85.94448483196045 -17.345362455817092 C-85.48822391502891 -17.816489312266842, -85.03196299809737 -18.287616168716593, -84.79392234701089 -18.5334126844643 M-84.79392234701089 -18.5334126844643 C-84.53879282551722 -18.765114565527615, -84.28366330402356 -18.996816446590934, -83.56960517658653 -19.645305144986487 M-84.79392234701089 -18.5334126844643 C-84.52518235412327 -18.77747523553427, -84.25644236123564 -19.021537786604235, -83.56960517658653 -19.645305144986487 M-83.56960517658653 -19.645305144986487 C-83.19563455703967 -19.943536762298983, -82.82166393749279 -20.241768379611482, -82.27656430255585 -20.676470832763204 M-83.56960517658653 -19.645305144986487 C-83.3090611673457 -19.853082058988782, -83.04851715810487 -20.060858972991074, -82.27656430255585 -20.676470832763204 M-82.27656430255585 -20.676470832763204 C-81.75239145592617 -21.042111119495253, -81.22821860929649 -21.4077514062273, -80.92011310722665 -21.622672466799 M-82.27656430255585 -20.676470832763204 C-81.84803213012808 -20.97539632539007, -81.41949995770028 -21.274321818016933, -80.92011310722665 -21.622672466799 M-80.92011310722665 -21.622672466799 C-80.49589967115229 -21.879833144702147, -80.07168623507792 -22.13699382260529, -79.50582553951841 -22.480021901620027 M-80.92011310722665 -21.622672466799 C-80.4321699528702 -21.918466474442145, -79.94422679851374 -22.21426048208529, -79.50582553951841 -22.480021901620027 M-79.50582553951841 -22.480021901620027 C-79.21094023281071 -22.63386337724638, -78.91605492610302 -22.787704852872736, -78.03951321041058 -23.244996104497716 M-79.50582553951841 -22.480021901620027 C-79.20276654131101 -22.63812758686628, -78.89970754310359 -22.796233272112534, -78.03951321041058 -23.244996104497716 M-78.03951321041058 -23.244996104497716 C-77.54648294817741 -23.46324597636524, -77.05345268594425 -23.681495848232768, -76.52720151178646 -23.91445163234599 M-78.03951321041058 -23.244996104497716 C-77.53172389728601 -23.469779370383172, -77.02393458416147 -23.694562636268632, -76.52720151178646 -23.91445163234599 M-76.52720151178646 -23.91445163234599 C-76.08025070631591 -24.078933660327106, -75.63329990084537 -24.24341568830822, -74.97510485680553 -24.485637548803172 M-76.52720151178646 -23.91445163234599 C-76.11890590915206 -24.064708188358626, -75.71061030651767 -24.214964744371258, -74.97510485680553 -24.485637548803172 M-74.97510485680553 -24.485637548803172 C-74.65199703489088 -24.581534254319873, -74.32888921297624 -24.677430959836574, -73.38960114354681 -24.956206728419538 M-74.97510485680553 -24.485637548803172 C-74.59876488689301 -24.597333276424397, -74.22242491698047 -24.70902900404562, -73.38960114354681 -24.956206728419538 M-73.38960114354681 -24.956206728419538 C-72.92308061624955 -25.06268699444419, -72.4565600889523 -25.16916726046884, -71.77720554685754 -25.324225501499278 M-73.38960114354681 -24.956206728419538 C-72.95120214176359 -25.056268439755716, -72.51280313998038 -25.15633015109189, -71.77720554685754 -25.324225501499278 M-71.77720554685754 -25.324225501499278 C-71.44778588422626 -25.377483517865866, -71.11836622159498 -25.430741534232453, -70.14454374610233 -25.588181599964017 M-71.77720554685754 -25.324225501499278 C-71.26344261746786 -25.40728670763198, -70.74967968807819 -25.49034791376468, -70.14454374610233 -25.588181599964017 M-70.14454374610233 -25.588181599964017 C-69.50652058090247 -25.649730927375725, -68.86849741570263 -25.711280254787436, -68.49832469882529 -25.746990371586765 M-70.14454374610233 -25.588181599964017 C-69.49450336219778 -25.650890214011348, -68.84446297829324 -25.71359882805868, -68.49832469882529 -25.746990371586765 M-68.49832469882529 -25.746990371586765 C-67.98140528121898 -25.76356697118679, -67.46448586361267 -25.780143570786816, -66.8453130722046 -25.799999237060547 M-68.49832469882529 -25.746990371586765 C-68.12230623517269 -25.759048551840564, -67.7462877715201 -25.771106732094363, -66.8453130722046 -25.799999237060547 M-66.8453130722046 -25.799999237060547 C-66.8453130722046 -25.799999237060547, -66.8453130722046 -25.799999237060547, -66.84531307220459 -25.799999237060547 M-66.8453130722046 -25.799999237060547 C-66.8453130722046 -25.799999237060547, -66.84531307220459 -25.799999237060547, -66.84531307220459 -25.799999237060547" stroke="#9370DB" stroke-width="1.3" fill="none" stroke-dasharray="0 0" style=""></path></g><g class="label" style="" transform="translate(0, -18.299999237060547)"><rect></rect><g><rect class="background" style="stroke: none"></rect><text y="-10.1" style=""><tspan class="text-outer-tspan row" x="0" y="-0.1em" dy="1.1em"><tspan font-style="normal" class="text-inner-tspan" font-weight="normal">Need</tspan><tspan font-style="normal" class="text-inner-tspan" font-weight="normal"> to</tspan><tspan font-style="normal" class="text-inner-tspan" font-weight="normal"> propagate</tspan><tspan font-style="normal" class="text-inner-tspan" font-weight="normal"> DB</tspan></tspan><tspan class="text-outer-tspan row" x="0" y="1em" dy="1.1em"><tspan font-style="normal" class="text-inner-tspan" font-weight="normal">changes</tspan></tspan></text></g></g></g><g class="node default" id="gfc665807-f988-4ab3-9414-a04047815cf9-light-flowchart-Q1-1" data-look="classic" transform="translate(669.33984375, 238.52812957763672)"><polygon points="128.9281234741211,0 257.8562469482422,-128.9281234741211 128.9281234741211,-257.8562469482422 0,-128.9281234741211" class="label-container" transform="translate(-128.4281234741211, 128.9281234741211)"></polygon><g class="label" style="" transform="translate(0, -27.099998474121094)"><rect></rect><g><rect class="background" style="stroke: none"></rect><text y="-10.1" style=""><tspan class="text-outer-tspan row" x="0" y="-0.1em" dy="1.1em"><tspan font-style="normal" class="text-inner-tspan" font-weight="normal">DBA</tspan><tspan font-style="normal" class="text-inner-tspan" font-weight="normal"> can</tspan><tspan font-style="normal" class="text-inner-tspan" font-weight="normal"> grant</tspan></tspan><tspan class="text-outer-tspan row" x="0" y="1em" dy="1.1em"><tspan font-style="normal" class="text-inner-tspan" font-weight="normal">logical</tspan><tspan font-style="normal" class="text-inner-tspan" font-weight="normal"> replication</tspan><tspan font-style="normal" class="text-inner-tspan" font-weight="normal"> slot</tspan><tspan font-style="normal" class="text-inner-tspan" font-weight="normal"> /</tspan></tspan><tspan class="text-outer-tspan row" x="0" y="2.1em" dy="1.1em"><tspan font-style="normal" class="text-inner-tspan" font-weight="normal">binlog</tspan><tspan font-style="normal" class="text-inner-tspan" font-weight="normal"> reader?</tspan></tspan></text></g></g></g><g class="node default preferred" id="gfc665807-f988-4ab3-9414-a04047815cf9-light-flowchart-LB-3" data-look="classic" transform="translate(316.8671875, 528.9203262329102)"><rect class="basic label-container" style="fill:#f4fcf4 !important;stroke:#2f9e44 !important" x="-119.9609375" y="-33.29999923706055" width="239.921875" height="66.5999984741211"></rect><g class="label" style="color:#1f5f2c !important" transform="translate(0, -18.299999237060547)"><rect></rect><g><rect class="background" style="stroke: none"></rect><text y="-10.1" style="fill:#1f5f2c !important"><tspan class="text-outer-tspan row" x="0" y="-0.1em" dy="1.1em"><tspan font-style="normal" class="text-inner-tspan" font-weight="normal">Log-based</tspan><tspan font-style="normal" class="text-inner-tspan" font-weight="normal"> CDC</tspan></tspan><tspan class="text-outer-tspan row" x="0" y="1em" dy="1.1em"><tspan font-style="normal" class="text-inner-tspan" font-weight="normal">Debezium</tspan><tspan font-style="normal" class="text-inner-tspan" font-weight="normal"> /</tspan><tspan font-style="normal" class="text-inner-tspan" font-weight="normal"> DMS</tspan><tspan font-style="normal" class="text-inner-tspan" font-weight="normal"> /</tspan><tspan font-style="normal" class="text-inner-tspan" font-weight="normal"> native</tspan></tspan></text></g></g></g><g class="node default" id="gfc665807-f988-4ab3-9414-a04047815cf9-light-flowchart-Q2-5" data-look="classic" transform="translate(798.5523452758789, 528.9203262329102)"><polygon points="88.46406173706055,0 176.9281234741211,-88.46406173706055 88.46406173706055,-176.9281234741211 0,-88.46406173706055" class="label-container" transform="translate(-87.96406173706055, 88.46406173706055)"></polygon><g class="label" style="" transform="translate(0, -18.299999237060547)"><rect></rect><g><rect class="background" style="stroke: none"></rect><text y="-10.1" style=""><tspan class="text-outer-tspan row" x="0" y="-0.1em" dy="1.1em"><tspan font-style="normal" class="text-inner-tspan" font-weight="normal">Can</tspan><tspan font-style="normal" class="text-inner-tspan" font-weight="normal"> install</tspan></tspan><tspan class="text-outer-tspan row" x="0" y="1em" dy="1.1em"><tspan font-style="normal" class="text-inner-tspan" font-weight="normal">AFTER</tspan><tspan font-style="normal" class="text-inner-tspan" font-weight="normal"> triggers?</tspan></tspan></text></g></g></g><g class="node default caution" id="gfc665807-f988-4ab3-9414-a04047815cf9-light-flowchart-TR-7" data-look="classic" transform="translate(572.6070327758789, 788.954704284668)"><rect class="basic label-container" style="fill:#fff8e6 !important;stroke:#e67700 !important" x="-104.484375" y="-33.29999923706055" width="208.96875" height="66.5999984741211"></rect><g class="label" style="color:#704700 !important" transform="translate(0, -18.299999237060547)"><rect></rect><g><rect class="background" style="stroke: none"></rect><text y="-10.1" style="fill:#704700 !important"><tspan class="text-outer-tspan row" x="0" y="-0.1em" dy="1.1em"><tspan font-style="normal" class="text-inner-tspan" font-weight="normal">Trigger-based</tspan><tspan font-style="normal" class="text-inner-tspan" font-weight="normal"> CDC</tspan></tspan><tspan class="text-outer-tspan row" x="0" y="1em" dy="1.1em"><tspan font-style="normal" class="text-inner-tspan" font-weight="normal">shadow</tspan><tspan font-style="normal" class="text-inner-tspan" font-weight="normal"> table</tspan><tspan font-style="normal" class="text-inner-tspan" font-weight="normal"> +</tspan><tspan font-style="normal" class="text-inner-tspan" font-weight="normal"> relay</tspan></tspan></text></g></g></g><g class="node default" id="gfc665807-f988-4ab3-9414-a04047815cf9-light-flowchart-Q3-9" data-look="classic" transform="translate(920.5421905517578, 788.954704284668)"><polygon points="89.49531173706055,0 178.9906234741211,-89.49531173706055 89.49531173706055,-178.9906234741211 0,-89.49531173706055" class="label-container" transform="translate(-88.99531173706055, 89.49531173706055)"></polygon><g class="label" style="" transform="translate(0, -18.299999237060547)"><rect></rect><g><rect class="background" style="stroke: none"></rect><text y="-10.1" style=""><tspan class="text-outer-tspan row" x="0" y="-0.1em" dy="1.1em"><tspan font-style="normal" class="text-inner-tspan" font-weight="normal">Hard</tspan><tspan font-style="normal" class="text-inner-tspan" font-weight="normal"> deletes</tspan></tspan><tspan class="text-outer-tspan row" x="0" y="1em" dy="1.1em"><tspan font-style="normal" class="text-inner-tspan" font-weight="normal">used</tspan><tspan font-style="normal" class="text-inner-tspan" font-weight="normal"> on</tspan><tspan font-style="normal" class="text-inner-tspan" font-weight="normal"> source?</tspan></tspan></text></g></g></g><g class="node default caution" id="gfc665807-f988-4ab3-9414-a04047815cf9-light-flowchart-PL-11" data-look="classic" transform="translate(724.53125, 1002.6250152587891)"><rect class="basic label-container" style="fill:#fff8e6 !important;stroke:#e67700 !important" x="-126.90625" y="-42.099998474121094" width="253.8125" height="84.19999694824219"></rect><g class="label" style="color:#704700 !important" transform="translate(0, -27.099998474121094)"><rect></rect><g><rect class="background" style="stroke: none"></rect><text y="-10.1" style="fill:#704700 !important"><tspan class="text-outer-tspan row" x="0" y="-0.1em" dy="1.1em"><tspan font-style="normal" class="text-inner-tspan" font-weight="normal">Polling-based</tspan><tspan font-style="normal" class="text-inner-tspan" font-weight="normal"> CDC</tspan></tspan><tspan class="text-outer-tspan row" x="0" y="1em" dy="1.1em"><tspan font-style="normal" class="text-inner-tspan" font-weight="normal">SELECT</tspan><tspan font-style="normal" class="text-inner-tspan" font-weight="normal"> WHERE</tspan><tspan font-style="normal" class="text-inner-tspan" font-weight="normal"> updated_at</tspan></tspan><tspan class="text-outer-tspan row" x="0" y="2.1em" dy="1.1em"><tspan font-style="normal" class="text-inner-tspan" font-weight="normal">&gt;</tspan><tspan font-style="normal" class="text-inner-tspan" font-weight="normal"> hwm</tspan></tspan></text></g></g></g><g class="node default bad" id="gfc665807-f988-4ab3-9414-a04047815cf9-light-flowchart-AP-13" data-look="classic" transform="translate(1021.8125, 1002.6250152587891)"><rect class="basic label-container" style="fill:#fff5f5 !important;stroke:#c92a2a !important" x="-120.375" y="-42.099998474121094" width="240.75" height="84.19999694824219"></rect><g class="label" style="color:#7a1f1f !important" transform="translate(0, -27.099998474121094)"><rect></rect><g><rect class="background" style="stroke: none"></rect><text y="-10.1" style="fill:#7a1f1f !important"><tspan class="text-outer-tspan row" x="0" y="-0.1em" dy="1.1em"><tspan font-style="normal" class="text-inner-tspan" font-weight="normal">Application-level</tspan><tspan font-style="normal" class="text-inner-tspan" font-weight="normal"> events</tspan></tspan><tspan class="text-outer-tspan row" x="0" y="1em" dy="1.1em"><tspan font-style="normal" class="text-inner-tspan" font-weight="normal">or</tspan><tspan font-style="normal" class="text-inner-tspan" font-weight="normal"> transactional</tspan><tspan font-style="normal" class="text-inner-tspan" font-weight="normal"> outbox</tspan><tspan font-style="normal" class="text-inner-tspan" font-weight="normal"> +</tspan></tspan><tspan class="text-outer-tspan row" x="0" y="2.1em" dy="1.1em"><tspan font-style="normal" class="text-inner-tspan" font-weight="normal">log-based</tspan><tspan font-style="normal" class="text-inner-tspan" font-weight="normal"> CDC</tspan></tspan></text></g></g></g><g class="node default" id="gfc665807-f988-4ab3-9414-a04047815cf9-light-flowchart-Q4-15" data-look="classic" transform="translate(316.8671875, 788.954704284668)"><polygon points="98.5703125,0 197.140625,-98.5703125 98.5703125,-197.140625 0,-98.5703125" class="label-container" transform="translate(-98.0703125, 98.5703125)"></polygon><g class="label" style="" transform="translate(0, -9.5)"><rect></rect><g><rect class="background" style="stroke: none"></rect><text y="-10.1" style=""><tspan class="text-outer-tspan row" x="0" y="-0.1em" dy="1.1em"><tspan font-style="normal" class="text-inner-tspan" font-weight="normal">Self-managed</tspan><tspan font-style="normal" class="text-inner-tspan" font-weight="normal"> Kafka?</tspan></tspan></text></g></g></g><g class="node default preferred" id="gfc665807-f988-4ab3-9414-a04047815cf9-light-flowchart-DZ-17" data-look="classic" transform="translate(106.671875, 1002.6250152587891)"><rect class="basic label-container" style="fill:#f4fcf4 !important;stroke:#2f9e44 !important" x="-98.671875" y="-33.29999923706055" width="197.34375" height="66.5999984741211"></rect><g class="label" style="color:#1f5f2c !important" transform="translate(0, -18.299999237060547)"><rect></rect><g><rect class="background" style="stroke: none"></rect><text y="-10.1" style="fill:#1f5f2c !important"><tspan class="text-outer-tspan row" x="0" y="-0.1em" dy="1.1em"><tspan font-style="normal" class="text-inner-tspan" font-weight="normal">Debezium</tspan><tspan font-style="normal" class="text-inner-tspan" font-weight="normal"> on</tspan><tspan font-style="normal" class="text-inner-tspan" font-weight="normal"> Kafka</tspan></tspan><tspan class="text-outer-tspan row" x="0" y="1em" dy="1.1em"><tspan font-style="normal" class="text-inner-tspan" font-weight="normal">Connect</tspan></tspan></text></g></g></g><g class="node default preferred" id="gfc665807-f988-4ab3-9414-a04047815cf9-light-flowchart-DMS-19" data-look="classic" transform="translate(316.8671875, 1002.6250152587891)"><rect class="basic label-container" style="fill:#f4fcf4 !important;stroke:#2f9e44 !important" x="-61.5234375" y="-24.5" width="123.046875" height="49"></rect><g class="label" style="color:#1f5f2c !important" transform="translate(0, -9.5)"><rect></rect><g><rect class="background" style="stroke: none"></rect><text y="-10.1" style="fill:#1f5f2c !important"><tspan class="text-outer-tspan row" x="0" y="-0.1em" dy="1.1em"><tspan font-style="normal" class="text-inner-tspan" font-weight="normal">AWS</tspan><tspan font-style="normal" class="text-inner-tspan" font-weight="normal"> DMS</tspan></tspan></text></g></g></g><g class="node default preferred" id="gfc665807-f988-4ab3-9414-a04047815cf9-light-flowchart-FT-21" data-look="classic" transform="translate(488.0078125, 1002.6250152587891)"><rect class="basic label-container" style="fill:#f4fcf4 !important;stroke:#2f9e44 !important" x="-59.6171875" y="-24.5" width="119.234375" height="49"></rect><g class="label" style="color:#1f5f2c !important" transform="translate(0, -9.5)"><rect></rect><g><rect class="background" style="stroke: none"></rect><text y="-10.1" style="fill:#1f5f2c !important"><tspan class="text-outer-tspan row" x="0" y="-0.1em" dy="1.1em"><tspan font-style="normal" class="text-inner-tspan" font-weight="normal">Fivetran</tspan></tspan></text></g></g></g></g></g></g><defs><filter id="gfc665807-f988-4ab3-9414-a04047815cf9-light-drop-shadow" height="130%" width="130%"><feDropShadow dx="4" dy="4" stdDeviation="0" flood-opacity="0.06" flood-color="#000000"></feDropShadow></filter></defs><defs><filter id="gfc665807-f988-4ab3-9414-a04047815cf9-light-drop-shadow-small" height="150%" width="150%"><feDropShadow dx="2" dy="2" stdDeviation="0" flood-opacity="0.06" flood-color="#000000"></feDropShadow></filter></defs></svg>