<svg id="gd64d76f1-45ac-4fb5-b168-d31c7504a9df-light" width="100%" xmlns="http://www.w3.org/2000/svg" xmlns:xlink="http://www.w3.org/1999/xlink" class="flowchart" style="max-width: 1688.3336181640625px;" viewBox="0 0 1688.3336181640625 1446.153076171875" role="graphics-document document" aria-roledescription="flowchart-v2"><style>#gd64d76f1-45ac-4fb5-b168-d31c7504a9df-light{font-family:"trebuchet ms",verdana,arial,sans-serif;font-size:16px;fill:#333;}@keyframes edge-animation-frame{from{stroke-dashoffset:0;}}@keyframes dash{to{stroke-dashoffset:0;}}#gd64d76f1-45ac-4fb5-b168-d31c7504a9df-light .edge-animation-slow{stroke-dasharray:9,5!important;stroke-dashoffset:900;animation:dash 50s linear infinite;stroke-linecap:round;}#gd64d76f1-45ac-4fb5-b168-d31c7504a9df-light .edge-animation-fast{stroke-dasharray:9,5!important;stroke-dashoffset:900;animation:dash 20s linear infinite;stroke-linecap:round;}#gd64d76f1-45ac-4fb5-b168-d31c7504a9df-light .error-icon{fill:#552222;}#gd64d76f1-45ac-4fb5-b168-d31c7504a9df-light .error-text{fill:#552222;stroke:#552222;}#gd64d76f1-45ac-4fb5-b168-d31c7504a9df-light .edge-thickness-normal{stroke-width:1px;}#gd64d76f1-45ac-4fb5-b168-d31c7504a9df-light .edge-thickness-thick{stroke-width:3.5px;}#gd64d76f1-45ac-4fb5-b168-d31c7504a9df-light .edge-pattern-solid{stroke-dasharray:0;}#gd64d76f1-45ac-4fb5-b168-d31c7504a9df-light .edge-thickness-invisible{stroke-width:0;fill:none;}#gd64d76f1-45ac-4fb5-b168-d31c7504a9df-light .edge-pattern-dashed{stroke-dasharray:3;}#gd64d76f1-45ac-4fb5-b168-d31c7504a9df-light .edge-pattern-dotted{stroke-dasharray:2;}#gd64d76f1-45ac-4fb5-b168-d31c7504a9df-light .marker{fill:#333333;stroke:#333333;}#gd64d76f1-45ac-4fb5-b168-d31c7504a9df-light .marker.cross{stroke:#333333;}#gd64d76f1-45ac-4fb5-b168-d31c7504a9df-light svg{font-family:"trebuchet ms",verdana,arial,sans-serif;font-size:16px;}#gd64d76f1-45ac-4fb5-b168-d31c7504a9df-light p{margin:0;}#gd64d76f1-45ac-4fb5-b168-d31c7504a9df-light .label{font-family:"trebuchet ms",verdana,arial,sans-serif;color:#333;}#gd64d76f1-45ac-4fb5-b168-d31c7504a9df-light .cluster-label text{fill:#333;}#gd64d76f1-45ac-4fb5-b168-d31c7504a9df-light .cluster-label span{color:#333;}#gd64d76f1-45ac-4fb5-b168-d31c7504a9df-light .cluster-label span p{background-color:transparent;}#gd64d76f1-45ac-4fb5-b168-d31c7504a9df-light .label text,#gd64d76f1-45ac-4fb5-b168-d31c7504a9df-light span{fill:#333;color:#333;}#gd64d76f1-45ac-4fb5-b168-d31c7504a9df-light .node rect,#gd64d76f1-45ac-4fb5-b168-d31c7504a9df-light .node circle,#gd64d76f1-45ac-4fb5-b168-d31c7504a9df-light .node ellipse,#gd64d76f1-45ac-4fb5-b168-d31c7504a9df-light .node polygon,#gd64d76f1-45ac-4fb5-b168-d31c7504a9df-light .node path{fill:#ECECFF;stroke:#9370DB;stroke-width:1px;}#gd64d76f1-45ac-4fb5-b168-d31c7504a9df-light .rough-node .label text,#gd64d76f1-45ac-4fb5-b168-d31c7504a9df-light .node .label text,#gd64d76f1-45ac-4fb5-b168-d31c7504a9df-light .image-shape .label,#gd64d76f1-45ac-4fb5-b168-d31c7504a9df-light .icon-shape .label{text-anchor:middle;}#gd64d76f1-45ac-4fb5-b168-d31c7504a9df-light .node .katex path{fill:#000;stroke:#000;stroke-width:1px;}#gd64d76f1-45ac-4fb5-b168-d31c7504a9df-light .rough-node .label,#gd64d76f1-45ac-4fb5-b168-d31c7504a9df-light .node .label,#gd64d76f1-45ac-4fb5-b168-d31c7504a9df-light .image-shape .label,#gd64d76f1-45ac-4fb5-b168-d31c7504a9df-light .icon-shape .label{text-align:center;}#gd64d76f1-45ac-4fb5-b168-d31c7504a9df-light .node.clickable{cursor:pointer;}#gd64d76f1-45ac-4fb5-b168-d31c7504a9df-light .root .anchor path{fill:#333333!important;stroke-width:0;stroke:#333333;}#gd64d76f1-45ac-4fb5-b168-d31c7504a9df-light .arrowheadPath{fill:#333333;}#gd64d76f1-45ac-4fb5-b168-d31c7504a9df-light .edgePath .path{stroke:#333333;stroke-width:1px;}#gd64d76f1-45ac-4fb5-b168-d31c7504a9df-light .flowchart-link{stroke:#333333;fill:none;}#gd64d76f1-45ac-4fb5-b168-d31c7504a9df-light .edgeLabel{background-color:rgba(232,232,232, 0.8);text-align:center;}#gd64d76f1-45ac-4fb5-b168-d31c7504a9df-light .edgeLabel p{background-color:rgba(232,232,232, 0.8);}#gd64d76f1-45ac-4fb5-b168-d31c7504a9df-light .edgeLabel rect{opacity:0.5;background-color:rgba(232,232,232, 0.8);fill:rgba(232,232,232, 0.8);}#gd64d76f1-45ac-4fb5-b168-d31c7504a9df-light .labelBkg{background-color:rgba(232, 232, 232, 0.5);}#gd64d76f1-45ac-4fb5-b168-d31c7504a9df-light .cluster rect{fill:#ffffde;stroke:#aaaa33;stroke-width:1px;}#gd64d76f1-45ac-4fb5-b168-d31c7504a9df-light .cluster text{fill:#333;}#gd64d76f1-45ac-4fb5-b168-d31c7504a9df-light .cluster span{color:#333;}#gd64d76f1-45ac-4fb5-b168-d31c7504a9df-light div.mermaidTooltip{position:absolute;text-align:center;max-width:200px;padding:2px;font-family:"trebuchet ms",verdana,arial,sans-serif;font-size:12px;background:hsl(80, 100%, 96.2745098039%);border:1px solid #aaaa33;border-radius:2px;pointer-events:none;z-index:100;}#gd64d76f1-45ac-4fb5-b168-d31c7504a9df-light .flowchartTitleText{text-anchor:middle;font-size:18px;fill:#333;}#gd64d76f1-45ac-4fb5-b168-d31c7504a9df-light rect.text{fill:none;stroke-width:0;}#gd64d76f1-45ac-4fb5-b168-d31c7504a9df-light .icon-shape,#gd64d76f1-45ac-4fb5-b168-d31c7504a9df-light .image-shape{background-color:rgba(232,232,232, 0.8);text-align:center;}#gd64d76f1-45ac-4fb5-b168-d31c7504a9df-light .icon-shape p,#gd64d76f1-45ac-4fb5-b168-d31c7504a9df-light .image-shape p{background-color:rgba(232,232,232, 0.8);padding:2px;}#gd64d76f1-45ac-4fb5-b168-d31c7504a9df-light .icon-shape .label rect,#gd64d76f1-45ac-4fb5-b168-d31c7504a9df-light .image-shape .label rect{opacity:0.5;background-color:rgba(232,232,232, 0.8);fill:rgba(232,232,232, 0.8);}#gd64d76f1-45ac-4fb5-b168-d31c7504a9df-light .label-icon{display:inline-block;height:1em;overflow:visible;vertical-align:-0.125em;}#gd64d76f1-45ac-4fb5-b168-d31c7504a9df-light .node .label-icon path{fill:currentColor;stroke:revert;stroke-width:revert;}#gd64d76f1-45ac-4fb5-b168-d31c7504a9df-light .node .neo-node{stroke:#9370DB;}#gd64d76f1-45ac-4fb5-b168-d31c7504a9df-light [data-look="neo"].node rect,#gd64d76f1-45ac-4fb5-b168-d31c7504a9df-light [data-look="neo"].cluster rect,#gd64d76f1-45ac-4fb5-b168-d31c7504a9df-light [data-look="neo"].node polygon{stroke:#9370DB;filter:drop-shadow(1px 2px 2px rgba(185, 185, 185, 1));}#gd64d76f1-45ac-4fb5-b168-d31c7504a9df-light [data-look="neo"].node path{stroke:#9370DB;stroke-width:1px;}#gd64d76f1-45ac-4fb5-b168-d31c7504a9df-light [data-look="neo"].node .outer-path{filter:drop-shadow(1px 2px 2px rgba(185, 185, 185, 1));}#gd64d76f1-45ac-4fb5-b168-d31c7504a9df-light [data-look="neo"].node .neo-line path{stroke:#9370DB;filter:none;}#gd64d76f1-45ac-4fb5-b168-d31c7504a9df-light [data-look="neo"].node circle{stroke:#9370DB;filter:drop-shadow(1px 2px 2px rgba(185, 185, 185, 1));}#gd64d76f1-45ac-4fb5-b168-d31c7504a9df-light [data-look="neo"].node circle .state-start{fill:#000000;}#gd64d76f1-45ac-4fb5-b168-d31c7504a9df-light [data-look="neo"].icon-shape .icon{fill:#9370DB;filter:drop-shadow(1px 2px 2px rgba(185, 185, 185, 1));}#gd64d76f1-45ac-4fb5-b168-d31c7504a9df-light [data-look="neo"].icon-shape .icon-neo path{stroke:#9370DB;filter:drop-shadow(1px 2px 2px rgba(185, 185, 185, 1));}#gd64d76f1-45ac-4fb5-b168-d31c7504a9df-light :root{--mermaid-font-family:"trebuchet ms",verdana,arial,sans-serif;}</style><g><marker id="gd64d76f1-45ac-4fb5-b168-d31c7504a9df-light_flowchart-v2-pointEnd" class="marker flowchart-v2" viewBox="0 0 10 10" refX="5" refY="5" markerUnits="userSpaceOnUse" markerWidth="8" markerHeight="8" orient="auto"><path d="M 0 0 L 10 5 L 0 10 z" class="arrowMarkerPath" style="stroke-width: 1; stroke-dasharray: 1, 0;"></path></marker><marker id="gd64d76f1-45ac-4fb5-b168-d31c7504a9df-light_flowchart-v2-pointStart" class="marker flowchart-v2" viewBox="0 0 10 10" refX="4.5" refY="5" markerUnits="userSpaceOnUse" markerWidth="8" markerHeight="8" orient="auto"><path d="M 0 5 L 10 10 L 10 0 z" class="arrowMarkerPath" style="stroke-width: 1; stroke-dasharray: 1, 0;"></path></marker><marker id="gd64d76f1-45ac-4fb5-b168-d31c7504a9df-light_flowchart-v2-pointEnd-margin" class="marker flowchart-v2" viewBox="0 0 11.5 14" refX="11.5" refY="7" markerUnits="userSpaceOnUse" markerWidth="10.5" markerHeight="14" orient="auto"><path d="M 0 0 L 11.5 7 L 0 14 z" class="arrowMarkerPath" style="stroke-width: 0; stroke-dasharray: 1, 0;"></path></marker><marker id="gd64d76f1-45ac-4fb5-b168-d31c7504a9df-light_flowchart-v2-pointStart-margin" class="marker flowchart-v2" viewBox="0 0 11.5 14" refX="1" refY="7" markerUnits="userSpaceOnUse" markerWidth="11.5" markerHeight="14" orient="auto"><polygon points="0,7 11.5,14 11.5,0" class="arrowMarkerPath" style="stroke-width: 0; stroke-dasharray: 1, 0;"></polygon></marker><marker id="gd64d76f1-45ac-4fb5-b168-d31c7504a9df-light_flowchart-v2-circleEnd" class="marker flowchart-v2" viewBox="0 0 10 10" refX="11" refY="5" markerUnits="userSpaceOnUse" markerWidth="11" markerHeight="11" orient="auto"><circle cx="5" cy="5" r="5" class="arrowMarkerPath" style="stroke-width: 1; stroke-dasharray: 1, 0;"></circle></marker><marker id="gd64d76f1-45ac-4fb5-b168-d31c7504a9df-light_flowchart-v2-circleStart" class="marker flowchart-v2" viewBox="0 0 10 10" refX="-1" refY="5" markerUnits="userSpaceOnUse" markerWidth="11" markerHeight="11" orient="auto"><circle cx="5" cy="5" r="5" class="arrowMarkerPath" style="stroke-width: 1; stroke-dasharray: 1, 0;"></circle></marker><marker id="gd64d76f1-45ac-4fb5-b168-d31c7504a9df-light_flowchart-v2-circleEnd-margin" class="marker flowchart-v2" viewBox="0 0 10 10" refY="5" refX="12.25" markerUnits="userSpaceOnUse" markerWidth="14" markerHeight="14" orient="auto"><circle cx="5" cy="5" r="5" class="arrowMarkerPath" style="stroke-width: 0; stroke-dasharray: 1, 0;"></circle></marker><marker id="gd64d76f1-45ac-4fb5-b168-d31c7504a9df-light_flowchart-v2-circleStart-margin" class="marker flowchart-v2" viewBox="0 0 10 10" refX="-2" refY="5" markerUnits="userSpaceOnUse" markerWidth="14" markerHeight="14" orient="auto"><circle cx="5" cy="5" r="5" class="arrowMarkerPath" style="stroke-width: 0; stroke-dasharray: 1, 0;"></circle></marker><marker id="gd64d76f1-45ac-4fb5-b168-d31c7504a9df-light_flowchart-v2-crossEnd" class="marker cross flowchart-v2" viewBox="0 0 11 11" refX="12" refY="5.2" markerUnits="userSpaceOnUse" markerWidth="11" markerHeight="11" orient="auto"><path d="M 1,1 l 9,9 M 10,1 l -9,9" class="arrowMarkerPath" style="stroke-width: 2; stroke-dasharray: 1, 0;"></path></marker><marker id="gd64d76f1-45ac-4fb5-b168-d31c7504a9df-light_flowchart-v2-crossStart" class="marker cross flowchart-v2" viewBox="0 0 11 11" refX="-1" refY="5.2" markerUnits="userSpaceOnUse" markerWidth="11" markerHeight="11" orient="auto"><path d="M 1,1 l 9,9 M 10,1 l -9,9" class="arrowMarkerPath" style="stroke-width: 2; stroke-dasharray: 1, 0;"></path></marker><marker id="gd64d76f1-45ac-4fb5-b168-d31c7504a9df-light_flowchart-v2-crossEnd-margin" class="marker cross flowchart-v2" viewBox="0 0 15 15" refX="17.7" refY="7.5" markerUnits="userSpaceOnUse" markerWidth="12" markerHeight="12" orient="auto"><path d="M 1,1 L 14,14 M 1,14 L 14,1" class="arrowMarkerPath" style="stroke-width: 2.5;"></path></marker><marker id="gd64d76f1-45ac-4fb5-b168-d31c7504a9df-light_flowchart-v2-crossStart-margin" class="marker cross flowchart-v2" viewBox="0 0 15 15" refX="-3.5" refY="7.5" markerUnits="userSpaceOnUse" markerWidth="12" markerHeight="12" orient="auto"><path d="M 1,1 L 14,14 M 1,14 L 14,1" class="arrowMarkerPath" style="stroke-width: 2.5; stroke-dasharray: 1, 0;"></path></marker><g class="root"><g class="clusters"></g><g class="edgePaths"><path d="M986.445,60.1L986.362,64.183C986.279,68.267,986.112,76.433,986.029,84.017C985.945,91.6,985.945,98.6,985.945,102.1L985.945,105.6" id="gd64d76f1-45ac-4fb5-b168-d31c7504a9df-light-L_Start_CD_0" class="edge-thickness-normal edge-pattern-solid edge-thickness-normal edge-pattern-solid flowchart-link" style=";" data-edge="true" data-et="edge" data-id="L_Start_CD_0" data-points="W3sieCI6OTg2LjQ0NTMwODY4NTMwMjcsInkiOjYwLjA5OTk5ODQ3NDEyMTA4fSx7IngiOjk4NS45NDUzMDg2ODUzMDI3LCJ5Ijo4NC41OTk5OTg0NzQxMjExfSx7IngiOjk4NS45NDUzMDg2ODUzMDI3LCJ5IjoxMDkuNTk5OTk4NDc0MTIxMTR9XQ==" data-look="classic" marker-end="url(#gd64d76f1-45ac-4fb5-b168-d31c7504a9df-light_flowchart-v2-pointEnd)"></path><path d="M937.919,236.746L920.816,250.833C903.714,264.921,869.508,293.096,852.406,324.602C835.303,356.108,835.303,390.945,835.303,408.363L835.303,425.781" id="gd64d76f1-45ac-4fb5-b168-d31c7504a9df-light-L_CD_NotDNSSEC_0" class="edge-thickness-normal edge-pattern-solid edge-thickness-normal edge-pattern-solid flowchart-link" style=";" data-edge="true" data-et="edge" data-id="L_CD_NotDNSSEC_0" data-points="W3sieCI6OTM3LjkxOTE0NzI1ODk3NzMsInkiOjIzNi43NDU3MTIwNDc3OTU1Nn0seyJ4Ijo4MzUuMzAzMTE5NjU5NDIzOCwieSI6MzIxLjI3MTg3MzQ3NDEyMTF9LHsieCI6ODM1LjMwMzExOTY1OTQyMzgsInkiOjQyOS43ODEyNX1d" data-look="classic" marker-end="url(#gd64d76f1-45ac-4fb5-b168-d31c7504a9df-light_flowchart-v2-pointEnd)"></path><path d="M1033.971,236.746L1051.074,250.833C1068.177,264.921,1102.382,293.096,1119.485,312.601C1136.587,332.105,1136.587,342.939,1136.587,348.355L1136.587,353.772" id="gd64d76f1-45ac-4fb5-b168-d31c7504a9df-light-L_CD_EDE_0" class="edge-thickness-normal edge-pattern-solid edge-thickness-normal edge-pattern-solid flowchart-link" style=";" data-edge="true" data-et="edge" data-id="L_CD_EDE_0" data-points="W3sieCI6MTAzMy45NzE0NzAxMTE2MjgsInkiOjIzNi43NDU3MTIwNDc3OTU2NX0seyJ4IjoxMTM2LjU4NzQ5NzcxMTE4MTYsInkiOjMyMS4yNzE4NzM0NzQxMjExfSx7IngiOjExMzYuNTg3NDk3NzExMTgxMiwieSI6MzU3Ljc3MTg3MzQ3NDEyMX1d" data-look="classic" marker-end="url(#gd64d76f1-45ac-4fb5-b168-d31c7504a9df-light_flowchart-v2-pointEnd)"></path><path d="M1227.214,512.964L1286.695,534.152C1346.176,555.339,1465.138,597.715,1524.618,639.701C1584.099,681.687,1584.099,723.283,1584.099,764.88C1584.099,806.476,1584.099,848.072,1584.099,883.437C1584.099,918.802,1584.099,947.935,1584.099,975.152C1584.099,1002.369,1584.099,1027.669,1584.099,1055.184C1584.099,1082.699,1584.099,1112.43,1584.099,1127.296L1584.099,1142.161" id="gd64d76f1-45ac-4fb5-b168-d31c7504a9df-light-L_EDE_DELV_0" class="edge-thickness-normal edge-pattern-solid edge-thickness-normal edge-pattern-solid flowchart-link" style=";" data-edge="true" data-et="edge" data-id="L_EDE_DELV_0" data-points="W3sieCI6MTIyNy4yMTQ0MTMzMjIyNTk4LCJ5Ijo1MTIuOTYzNzEzOTY2NTU5fSx7IngiOjE1ODQuMDk5MjE2NDYxMTgxNiwieSI6NjQwLjA5MDYyOTU3NzYzNjd9LHsieCI6MTU4NC4wOTkyMTY0NjExODE2LCJ5Ijo3NjQuODc5NjkyMDc3NjM2N30seyJ4IjoxNTg0LjA5OTIxNjQ2MTE4MTYsInkiOjg4OS42Njg3NTQ1Nzc2MzY3fSx7IngiOjE1ODQuMDk5MjE2NDYxMTgxNiwieSI6OTc3LjA2ODc1NjEwMzUxNTZ9LHsieCI6MTU4NC4wOTkyMTY0NjExODE2LCJ5IjoxMDUyLjk2ODc1NzYyOTM5NDV9LHsieCI6MTU4NC4wOTkyMTY0NjExODE2LCJ5IjoxMTQ2LjE2MDk0MjA3NzYzNjd9XQ==" data-look="classic" marker-end="url(#gd64d76f1-45ac-4fb5-b168-d31c7504a9df-light_flowchart-v2-pointEnd)"></path><path d="M1584.099,1230.361L1584.099,1247.81C1584.099,1265.258,1584.099,1300.156,1582.793,1323.04C1581.487,1345.923,1578.875,1356.794,1577.569,1362.229L1576.263,1367.664" id="gd64d76f1-45ac-4fb5-b168-d31c7504a9df-light-L_DELV_Probe_0" class="edge-thickness-normal edge-pattern-solid edge-thickness-normal edge-pattern-solid flowchart-link" style=";" data-edge="true" data-et="edge" data-id="L_DELV_Probe_0" data-points="W3sieCI6MTU4NC4wOTkyMTY0NjExODE2LCJ5IjoxMjMwLjM2MDkzOTAyNTg3OX0seyJ4IjoxNTg0LjA5OTIxNjQ2MTE4MTYsInkiOjEzMzUuMDUzMTIzNDc0MTIxfSx7IngiOjE1NzUuMzI4MDA2MjExMjk3NiwieSI6MTM3MS41NTMxMjM0NzQxMjF9XQ==" data-look="classic" marker-end="url(#gd64d76f1-45ac-4fb5-b168-d31c7504a9df-light_flowchart-v2-pointEnd)"></path><path d="M1048.061,515.064L994.409,535.902C940.757,556.739,833.453,598.415,779.8,624.67C726.148,650.924,726.148,661.757,726.148,667.174L726.148,672.591" id="gd64d76f1-45ac-4fb5-b168-d31c7504a9df-light-L_EDE_Code_0" class="edge-thickness-normal edge-pattern-solid edge-thickness-normal edge-pattern-solid flowchart-link" style=";" data-edge="true" data-et="edge" data-id="L_EDE_Code_0" data-points="W3sieCI6MTA0OC4wNjA3ODM4ODQ0NjYsInkiOjUxNS4wNjM5MTU3NTA5MjA1fSx7IngiOjcyNi4xNDg0Mzc1LCJ5Ijo2NDAuMDkwNjI5NTc3NjM2N30seyJ4Ijo3MjYuMTQ4NDM3NSwieSI6Njc2LjU5MDYyOTU3NzYzNjd9XQ==" data-look="classic" marker-end="url(#gd64d76f1-45ac-4fb5-b168-d31c7504a9df-light_flowchart-v2-pointEnd)"></path><path d="M798.596,780.721L881.64,798.879C964.684,817.037,1130.772,853.353,1213.816,878.394C1296.859,903.435,1296.859,917.202,1296.859,924.085L1296.859,930.969" id="gd64d76f1-45ac-4fb5-b168-d31c7504a9df-light-L_Code_E6_0" class="edge-thickness-normal edge-pattern-solid edge-thickness-normal edge-pattern-solid flowchart-link" style=";" data-edge="true" data-et="edge" data-id="L_Code_E6_0" data-points="W3sieCI6Nzk4LjU5NjM2NTA3NzgxNjIsInkiOjc4MC43MjA4MjY5OTk4MjA2fSx7IngiOjEyOTYuODU5Mzc1LCJ5Ijo4ODkuNjY4NzU0NTc3NjM2N30seyJ4IjoxMjk2Ljg1OTM3NSwieSI6OTM0Ljk2ODc1NzYyOTM5NDV9XQ==" data-look="classic" marker-end="url(#gd64d76f1-45ac-4fb5-b168-d31c7504a9df-light_flowchart-v2-pointEnd)"></path><path d="M1296.859,1019.169L1296.859,1024.802C1296.859,1030.435,1296.859,1041.702,1296.859,1050.835C1296.859,1059.969,1296.859,1066.969,1296.859,1070.469L1296.859,1073.969" id="gd64d76f1-45ac-4fb5-b168-d31c7504a9df-light-L_E6_DS_0" class="edge-thickness-normal edge-pattern-solid edge-thickness-normal edge-pattern-solid flowchart-link" style=";" data-edge="true" data-et="edge" data-id="L_E6_DS_0" data-points="W3sieCI6MTI5Ni44NTkzNzUsInkiOjEwMTkuMTY4NzU0NTc3NjM2N30seyJ4IjoxMjk2Ljg1OTM3NSwieSI6MTA1Mi45Njg3NTc2MjkzOTQ1fSx7IngiOjEyOTYuODU5Mzc1LCJ5IjoxMDc3Ljk2ODc1NzYyOTM5NH1d" data-look="classic" marker-end="url(#gd64d76f1-45ac-4fb5-b168-d31c7504a9df-light_flowchart-v2-pointEnd)"></path><path d="M653.245,780.265L566.843,798.499C480.442,816.733,307.639,853.201,221.237,878.318C134.836,903.435,134.836,917.202,134.836,924.085L134.836,930.969" id="gd64d76f1-45ac-4fb5-b168-d31c7504a9df-light-L_Code_E7_0" class="edge-thickness-normal edge-pattern-solid edge-thickness-normal edge-pattern-solid flowchart-link" style=";" data-edge="true" data-et="edge" data-id="L_Code_E7_0" data-points="W3sieCI6NjUzLjI0NDc3NTUwMDg5NDUsInkiOjc4MC4yNjUwOTI1Nzg1MzE0fSx7IngiOjEzNC44MzU5Mzc1LCJ5Ijo4ODkuNjY4NzU0NTc3NjM2N30seyJ4IjoxMzQuODM1OTM3NSwieSI6OTM0Ljk2ODc1NzYyOTM5NDV9XQ==" data-look="classic" marker-end="url(#gd64d76f1-45ac-4fb5-b168-d31c7504a9df-light_flowchart-v2-pointEnd)"></path><path d="M664.329,791.349L626.058,807.736C587.787,824.122,511.245,856.896,472.974,878.699C434.703,900.502,434.703,911.335,434.703,916.752L434.703,922.169" id="gd64d76f1-45ac-4fb5-b168-d31c7504a9df-light-L_Code_E8_0" class="edge-thickness-normal edge-pattern-solid edge-thickness-normal edge-pattern-solid flowchart-link" style=";" data-edge="true" data-et="edge" data-id="L_Code_E8_0" data-points="W3sieCI6NjY0LjMyODg1OTUwMjI4MDUsInkiOjc5MS4zNDkxNzY1Nzk5MTcyfSx7IngiOjQzNC43MDMxMjUsInkiOjg4OS42Njg3NTQ1Nzc2MzY3fSx7IngiOjQzNC43MDMxMjUsInkiOjkyNi4xNjg3NTQ1Nzc2MzY3fV0=" data-look="classic" marker-end="url(#gd64d76f1-45ac-4fb5-b168-d31c7504a9df-light_flowchart-v2-pointEnd)"></path><path d="M726.148,853.169L726.148,859.252C726.148,865.335,726.148,877.502,726.148,890.469C726.148,903.435,726.148,917.202,726.148,924.085L726.148,930.969" id="gd64d76f1-45ac-4fb5-b168-d31c7504a9df-light-L_Code_E9_0" class="edge-thickness-normal edge-pattern-solid edge-thickness-normal edge-pattern-solid flowchart-link" style=";" data-edge="true" data-et="edge" data-id="L_Code_E9_0" data-points="W3sieCI6NzI2LjE0ODQzNzUsInkiOjg1My4xNjg3NTQ1Nzc2MzY3fSx7IngiOjcyNi4xNDg0Mzc1LCJ5Ijo4ODkuNjY4NzU0NTc3NjM2N30seyJ4Ijo3MjYuMTQ4NDM3NSwieSI6OTM0Ljk2ODc1NzYyOTM5NDV9XQ==" data-look="classic" marker-end="url(#gd64d76f1-45ac-4fb5-b168-d31c7504a9df-light_flowchart-v2-pointEnd)"></path><path d="M787.74,791.578L825.455,807.926C863.17,824.275,938.601,856.972,976.316,880.204C1014.031,903.435,1014.031,917.202,1014.031,924.085L1014.031,930.969" id="gd64d76f1-45ac-4fb5-b168-d31c7504a9df-light-L_Code_E10_0" class="edge-thickness-normal edge-pattern-solid edge-thickness-normal edge-pattern-solid flowchart-link" style=";" data-edge="true" data-et="edge" data-id="L_Code_E10_0" data-points="W3sieCI6Nzg3LjczOTUxMDYxNDY1ODcsInkiOjc5MS41Nzc2ODE0NjI5Nzh9LHsieCI6MTAxNC4wMzEyNSwieSI6ODg5LjY2ODc1NDU3NzYzNjd9LHsieCI6MTAxNC4wMzEyNSwieSI6OTM0Ljk2ODc1NzYyOTM5NDV9XQ==" data-look="classic" marker-end="url(#gd64d76f1-45ac-4fb5-b168-d31c7504a9df-light_flowchart-v2-pointEnd)"></path><path d="M1282.424,1284.118L1281.146,1292.607C1279.867,1301.096,1277.311,1318.075,1276.032,1331.981C1274.754,1345.886,1274.754,1356.72,1274.754,1362.136L1274.754,1367.553" id="gd64d76f1-45ac-4fb5-b168-d31c7504a9df-light-L_DS_FixDS_0" class="edge-thickness-normal edge-pattern-solid edge-thickness-normal edge-pattern-solid flowchart-link" style=";" data-edge="true" data-et="edge" data-id="L_DS_FixDS_0" data-points="W3sieCI6MTI4Mi40MjQyNDAwMDA2NzQ3LCJ5IjoxMjg0LjExNzk4ODQ3NDc5NjJ9LHsieCI6MTI3NC43NTM5MDYyNSwieSI6MTMzNS4wNTMxMjM0NzQxMjF9LHsieCI6MTI3NC43NTM5MDYyNSwieSI6MTM3MS41NTMxMjM0NzQxMjF9XQ==" data-look="classic" marker-end="url(#gd64d76f1-45ac-4fb5-b168-d31c7504a9df-light_flowchart-v2-pointEnd)"></path><path d="M1351.739,1243.673L1366.823,1258.903C1381.907,1274.133,1412.075,1304.593,1437.478,1325.582C1462.881,1346.57,1483.52,1358.087,1493.839,1363.845L1504.158,1369.604" id="gd64d76f1-45ac-4fb5-b168-d31c7504a9df-light-L_DS_Probe_0" class="edge-thickness-normal edge-pattern-solid edge-thickness-normal edge-pattern-solid flowchart-link" style=";" data-edge="true" data-et="edge" data-id="L_DS_Probe_0" data-points="W3sieCI6MTM1MS43Mzk0NTcxNDY3OTEyLCJ5IjoxMjQzLjY3MzA0MTMyNzMzfSx7IngiOjE0NDIuMjQyMTg3NSwieSI6MTMzNS4wNTMxMjM0NzQxMjF9LHsieCI6MTUwNy42NTEyMjk1OTUwNzU0LCJ5IjoxMzcxLjU1MzEyMzQ3NDEyMX1d" data-look="classic" marker-end="url(#gd64d76f1-45ac-4fb5-b168-d31c7504a9df-light_flowchart-v2-pointEnd)"></path></g><g class="edgeLabels"><g class="edgeLabel"><g class="label" data-id="L_Start_CD_0" transform="translate(0, 0)"><text y="-10.1" text-anchor="middle"><tspan class="text-outer-tspan row" x="0" y="-0.1em" dy="1.1em" text-anchor="middle"></tspan></text></g></g><g><rect class="background" style="stroke: none"></rect></g><g class="edgeLabel" transform="translate(835.3031196594238, 321.2718734741211)"><g class="label" data-id="L_CD_NotDNSSEC_0" transform="translate(0, -10.5)"><g><rect class="background" style="" x="-10.6640625" y="-1" width="21.328125" height="23"></rect><text y="-10.1" text-anchor="middle" style=""><tspan class="text-outer-tspan row" x="0" y="-0.1em" dy="1.1em" text-anchor="middle"><tspan font-style="normal" class="text-inner-tspan" font-weight="normal">no</tspan></tspan></text></g></g></g><g class="edgeLabel" transform="translate(1136.5874977111816, 321.2718734741211)"><g class="label" data-id="L_CD_EDE_0" transform="translate(0, -10.5)"><g><rect class="background" style="" x="-13.546875" y="-1" width="27.09375" height="23"></rect><text y="-10.1" text-anchor="middle" style=""><tspan class="text-outer-tspan row" x="0" y="-0.1em" dy="1.1em" text-anchor="middle"><tspan font-style="normal" class="text-inner-tspan" font-weight="normal">yes</tspan></tspan></text></g></g></g><g class="edgeLabel" transform="translate(1584.0992164611816, 889.6687545776367)"><g class="label" data-id="L_EDE_DELV_0" transform="translate(0, -10.5)"><g><rect class="background" style="" x="-10.6640625" y="-1" width="21.328125" height="23"></rect><text y="-10.1" text-anchor="middle" style=""><tspan class="text-outer-tspan row" x="0" y="-0.1em" dy="1.1em" text-anchor="middle"><tspan font-style="normal" class="text-inner-tspan" font-weight="normal">no</tspan></tspan></text></g></g></g><g class="edgeLabel"><g class="label" data-id="L_DELV_Probe_0" transform="translate(0, 0)"><text y="-10.1" text-anchor="middle"><tspan class="text-outer-tspan row" x="0" y="-0.1em" dy="1.1em" text-anchor="middle"></tspan></text></g></g><g><rect class="background" style="stroke: none"></rect></g><g class="edgeLabel" transform="translate(726.1484375, 640.0906295776367)"><g class="label" data-id="L_EDE_Code_0" transform="translate(0, -10.5)"><g><rect class="background" style="" x="-13.546875" y="-1" width="27.09375" height="23"></rect><text y="-10.1" text-anchor="middle" style=""><tspan class="text-outer-tspan row" x="0" y="-0.1em" dy="1.1em" text-anchor="middle"><tspan font-style="normal" class="text-inner-tspan" font-weight="normal">yes</tspan></tspan></text></g></g></g><g class="edgeLabel" transform="translate(1296.859375, 889.6687545776367)"><g class="label" data-id="L_Code_E6_0" transform="translate(0, -10.5)"><g><rect class="background" style="" x="-6.1953125" y="-1" width="12.390625" height="23"></rect><text y="-10.1" text-anchor="middle" style=""><tspan class="text-outer-tspan row" x="0" y="-0.1em" dy="1.1em" text-anchor="middle"><tspan font-style="normal" class="text-inner-tspan" font-weight="normal">6</tspan></tspan></text></g></g></g><g class="edgeLabel"><g class="label" data-id="L_E6_DS_0" transform="translate(0, 0)"><text y="-10.1" text-anchor="middle"><tspan class="text-outer-tspan row" x="0" y="-0.1em" dy="1.1em" text-anchor="middle"></tspan></text></g></g><g><rect class="background" style="stroke: none"></rect></g><g class="edgeLabel" transform="translate(134.8359375, 889.6687545776367)"><g class="label" data-id="L_Code_E7_0" transform="translate(0, -10.5)"><g><rect class="background" style="" x="-6.1953125" y="-1" width="12.390625" height="23"></rect><text y="-10.1" text-anchor="middle" style=""><tspan class="text-outer-tspan row" x="0" y="-0.1em" dy="1.1em" text-anchor="middle"><tspan font-style="normal" class="text-inner-tspan" font-weight="normal">7</tspan></tspan></text></g></g></g><g class="edgeLabel" transform="translate(434.703125, 889.6687545776367)"><g class="label" data-id="L_Code_E8_0" transform="translate(0, -10.5)"><g><rect class="background" style="" x="-6.1953125" y="-1" width="12.390625" height="23"></rect><text y="-10.1" text-anchor="middle" style=""><tspan class="text-outer-tspan row" x="0" y="-0.1em" dy="1.1em" text-anchor="middle"><tspan font-style="normal" class="text-inner-tspan" font-weight="normal">8</tspan></tspan></text></g></g></g><g class="edgeLabel" transform="translate(726.1484375, 889.6687545776367)"><g class="label" data-id="L_Code_E9_0" transform="translate(0, -10.5)"><g><rect class="background" style="" x="-6.1953125" y="-1" width="12.390625" height="23"></rect><text y="-10.1" text-anchor="middle" style=""><tspan class="text-outer-tspan row" x="0" y="-0.1em" dy="1.1em" text-anchor="middle"><tspan font-style="normal" class="text-inner-tspan" font-weight="normal">9</tspan></tspan></text></g></g></g><g class="edgeLabel" transform="translate(1014.03125, 889.6687545776367)"><g class="label" data-id="L_Code_E10_0" transform="translate(0, -10.5)"><g><rect class="background" style="" x="-10.390625" y="-1" width="20.78125" height="23"></rect><text y="-10.1" text-anchor="middle" style=""><tspan class="text-outer-tspan row" x="0" y="-0.1em" dy="1.1em" text-anchor="middle"><tspan font-style="normal" class="text-inner-tspan" font-weight="normal">10</tspan></tspan></text></g></g></g><g class="edgeLabel" transform="translate(1274.75390625, 1335.053123474121)"><g class="label" data-id="L_DS_FixDS_0" transform="translate(0, -10.5)"><g><rect class="background" style="" x="-10.6640625" y="-1" width="21.328125" height="23"></rect><text y="-10.1" text-anchor="middle" style=""><tspan class="text-outer-tspan row" x="0" y="-0.1em" dy="1.1em" text-anchor="middle"><tspan font-style="normal" class="text-inner-tspan" font-weight="normal">no</tspan></tspan></text></g></g></g><g class="edgeLabel" transform="translate(1423.3453, 1315.97304)"><g class="label" data-id="L_DS_Probe_0" transform="translate(0, -10.5)"><g><rect class="background" style="" x="-13.546875" y="-1" width="27.09375" height="23"></rect><text y="-10.1" text-anchor="middle" style=""><tspan class="text-outer-tspan row" x="0" y="-0.1em" dy="1.1em" text-anchor="middle"><tspan font-style="normal" class="text-inner-tspan" font-weight="normal">yes</tspan></tspan></text></g></g></g></g><g class="nodes"><g class="node default" id="gd64d76f1-45ac-4fb5-b168-d31c7504a9df-light-flowchart-Start-0" data-look="classic" transform="translate(985.9453086853027, 33.79999923706055)"><g class="basic label-container outer-path"><path d="M-63.72031307220459 -25.799999237060547 C-13.787530035756532 -25.799999237060547, 36.145253000691525 -25.799999237060547, 63.72031307220459 -25.799999237060547 C63.72031307220459 -25.799999237060547, 63.72031307220459 -25.799999237060547, 63.72031307220459 -25.799999237060547 C64.15512009586283 -25.786055822112356, 64.58992711952106 -25.772112407164165, 65.37332469882529 -25.746990371586765 C65.93194050145893 -25.693101376940493, 66.49055630409256 -25.63921238229422, 67.01954374610231 -25.58818159996402 C67.37047570764865 -25.531445641939218, 67.72140766919499 -25.474709683914412, 68.65220554685753 -25.32422550149928 C69.01981960624273 -25.240319991350535, 69.38743366562794 -25.15641448120179, 70.26460114354678 -24.956206728419545 C70.63938062331262 -24.84497414608268, 71.01416010307845 -24.733741563745813, 71.85010485680552 -24.48563754880318 C72.42123643695344 -24.27545584782629, 72.99236801710137 -24.065274146849404, 73.40220151178644 -23.914451632345997 C73.72766527055799 -23.77037848087721, 74.05312902932954 -23.626305329408424, 74.91451321041056 -23.24499610449772 C75.47636365639124 -22.95187908671198, 76.03821410237194 -22.658762068926244, 76.3808255395184 -22.480021901620034 C76.81673153240371 -22.215773127065006, 77.25263752528902 -21.951524352509974, 77.79511310722664 -21.62267246679901 C78.25888102186367 -21.29916804573767, 78.7226489365007 -20.975663624676326, 79.15156430255584 -20.67647083276321 C79.61541312299875 -20.306563741995504, 80.07926194344164 -19.9366566512278, 80.4446051765865 -19.64530514498651 C80.75856144675885 -19.360178367243698, 81.07251771693119 -19.075051589500887, 81.66892234701088 -18.533412684464313 C81.96351687139418 -18.229219651378287, 82.25811139577749 -17.92502661829226, 82.81948483196044 -17.345362455817106 C83.21367856968975 -16.882320061221154, 83.60787230741907 -16.4192776666252, 83.89156472338968 -16.086036412270357 C84.13270335404677 -15.762932615371028, 84.37384198470387 -15.439828818471698, 84.88075661506427 -14.76060939466161 C85.06387702504898 -14.47928727020991, 85.24699743503369 -14.19796514575821, 85.78299570532036 -13.374527866909407 C85.95437926985355 -13.070218993612976, 86.12576283438673 -12.765910120316542, 86.5945745002064 -11.93348753532484 C86.87991057127023 -11.340981078546918, 87.16524664233407 -10.748474621768993, 87.31215804837109 -10.443409943732584 C87.55827267285568 -9.835502062953092, 87.80438729734026 -9.227594182173597, 87.93279764509381 -8.910418140577123 C88.11083295856162 -8.374204142487136, 88.2888682720294 -7.837990144397149, 88.4539429491449 -7.340811518003323 C88.56430819067589 -6.9199410194474265, 88.67467343220687 -6.4990705208915305, 88.87345246268467 -5.741039926302914 C88.95905612630628 -5.301483205946696, 89.04465978992788 -4.8619264855904785, 89.18960233113748 -4.117677170096137 C89.26303724456784 -3.5481304828940896, 89.3364721579982 -2.9785837956920425, 89.40109342687991 -2.4773939951584394 C89.43290957042451 -1.9818318779223019, 89.46472571396913 -1.4862697606861643, 89.50705668763487 -0.8269306768952902 C89.50705668763487 -0.28226854166806326, 89.50705668763487 0.2623935935591637, 89.50705668763487 0.826930676895284 C89.47548376727514 1.3187043967007084, 89.44391084691541 1.8104781165061326, 89.40109342687991 2.4773939951584216 C89.35191421728156 2.858818233269858, 89.30273500768321 3.2402424713812943, 89.18960233113748 4.117677170096119 C89.07226996480448 4.7201540730117, 88.95493759847146 5.3226309759272805, 88.87345246268467 5.741039926302909 C88.77638288329037 6.111208302755182, 88.67931330389608 6.481376679207456, 88.4539429491449 7.340811518003306 C88.28700215898897 7.843610579550215, 88.12006136883303 8.346409641097123, 87.93279764509383 8.910418140577105 C87.7487493983778 9.365020868296483, 87.56470115166177 9.81962359601586, 87.31215804837109 10.443409943732577 C87.04251797445939 11.003323326583562, 86.7728779005477 11.563236709434548, 86.5945745002064 11.933487535324835 C86.3529914660464 12.36244267541079, 86.11140843188642 12.791397815496744, 85.78299570532037 13.374527866909402 C85.60042089231844 13.655011807882262, 85.4178460793165 13.935495748855125, 84.88075661506429 14.760609394661596 C84.60496122753906 15.130150088468719, 84.32916584001383 15.49969078227584, 83.89156472338968 16.086036412270353 C83.5841803004873 16.44710764608064, 83.27679587758493 16.80817887989092, 82.81948483196045 17.345362455817092 C82.54448335652185 17.629324057248475, 82.26948188108325 17.913285658679854, 81.66892234701088 18.533412684464306 C81.29703023780067 18.871155258323007, 80.92513812859048 19.208897832181705, 80.44460517658653 19.64530514498649 C79.94257011466163 20.045664747157527, 79.44053505273673 20.446024349328564, 79.15156430255584 20.676470832763208 C78.66829045251802 21.013581749961805, 78.1850166024802 21.350692667160406, 77.79511310722665 21.622672466799003 C77.34234119112317 21.897145463124055, 76.8895692750197 22.171618459449107, 76.38082553951841 22.48002190162003 C75.87619588017294 22.743286871669838, 75.37156622082748 23.00655184171964, 74.91451321041058 23.244996104497716 C74.5527476936661 23.405138967367723, 74.19098217692164 23.565281830237733, 73.40220151178644 23.914451632345994 C73.02704884984196 24.052511279814755, 72.65189618789748 24.19057092728352, 71.85010485680553 24.485637548803172 C71.43593421858296 24.60856122020159, 71.02176358036039 24.731484891600005, 70.26460114354681 24.95620672841954 C69.6936862068777 25.08651433714613, 69.1227712702086 25.21682194587272, 68.65220554685754 25.324225501499278 C68.06342866357382 25.41941438195567, 67.47465178029009 25.51460326241206, 67.01954374610233 25.588181599964017 C66.50508969789983 25.637810363272596, 65.99063564969734 25.687439126581175, 65.37332469882529 25.746990371586765 C64.98724113938887 25.759371319871832, 64.60115757995246 25.7717522681569, 63.7203130722046 25.799999237060547 C63.7203130722046 25.799999237060547, 63.72031307220459 25.799999237060547, 63.72031307220459 25.799999237060547 C13.888405078717732 25.799999237060547, -35.94350291476913 25.799999237060547, -63.72031307220458 25.799999237060547 C-64.31454907662864 25.78094324500888, -64.90878508105268 25.76188725295722, -65.37332469882527 25.746990371586765 C-65.81820700298115 25.7040731107541, -66.26308930713704 25.661155849921432, -67.01954374610231 25.588181599964017 C-67.41797597843552 25.523766166528493, -67.81640821076874 25.45935073309297, -68.65220554685753 25.324225501499278 C-69.02205939594795 25.23980877396631, -69.39191324503837 25.155392046433345, -70.26460114354678 24.956206728419545 C-70.69935054746617 24.82717538738246, -71.13409995138555 24.69814404634538, -71.8501048568055 24.485637548803183 C-72.29679905702686 24.3212499539258, -72.74349325724823 24.156862359048414, -73.40220151178644 23.914451632345997 C-73.76719503048412 23.75287982876658, -74.13218854918179 23.591308025187164, -74.91451321041056 23.244996104497723 C-75.48901547611791 22.94527864046446, -76.06351774182528 22.645561176431194, -76.3808255395184 22.480021901620038 C-76.88084628914939 22.17690638474564, -77.38086703878038 21.873790867871243, -77.79511310722663 21.622672466799017 C-78.25876479511317 21.299249120487445, -78.72241648299972 20.97582577417587, -79.15156430255584 20.67647083276321 C-79.65489179064836 20.275080555116404, -80.15821927874089 19.873690277469592, -80.4446051765865 19.645305144986512 C-80.8112014379953 19.312372119980612, -81.17779769940407 18.979439094974712, -81.66892234701086 18.533412684464324 C-81.9579666161769 18.234950745574547, -82.24701088534296 17.936488806684768, -82.81948483196044 17.3453624558171 C-83.1229317639083 16.98891642293157, -83.42637869585617 16.63247039004604, -83.89156472338968 16.08603641227036 C-84.25464067740985 15.599547710783197, -84.61771663143001 15.113059009296036, -84.88075661506427 14.760609394661614 C-85.18523245047034 14.292852748268169, -85.48970828587639 13.825096101874724, -85.78299570532036 13.374527866909418 C-86.02455108800467 12.945621824818556, -86.26610647068898 12.516715782727694, -86.59457450020639 11.933487535324842 C-86.85993866857925 11.382453161814986, -87.12530283695212 10.83141878830513, -87.31215804837109 10.443409943732586 C-87.54258408570439 9.874253176534946, -87.77301012303771 9.305096409337306, -87.93279764509381 8.910418140577127 C-88.09042469946623 8.435670567267943, -88.24805175383862 7.960922993958761, -88.4539429491449 7.340811518003316 C-88.5454837918385 6.991726610760438, -88.6370246345321 6.64264170351756, -88.87345246268467 5.741039926302918 C-88.97263053410542 5.231781490850222, -89.07180860552616 4.722523055397525, -89.18960233113748 4.117677170096139 C-89.25870680468815 3.5817165194589804, -89.32781127823881 3.0457558688218214, -89.40109342687991 2.477393995158454 C-89.44255800983397 1.8315496460400151, -89.48402259278804 1.1857052969215762, -89.50705668763487 0.8269306768952934 C-89.50705668763487 0.18139318674207794, -89.50705668763487 -0.46414430341113755, -89.50705668763487 -0.8269306768952809 C-89.47277789037301 -1.3608506135959044, -89.43849909311115 -1.8947705502965282, -89.40109342687991 -2.4773939951584185 C-89.33981676433676 -2.9526436893973975, -89.27854010179362 -3.427893383636377, -89.18960233113748 -4.117677170096128 C-89.10439880065545 -4.5551792913488125, -89.01919527017341 -4.992681412601497, -88.87345246268467 -5.741039926302906 C-88.72998416549771 -6.288146723030072, -88.58651586831077 -6.835253519757238, -88.4539429491449 -7.340811518003303 C-88.25703711903503 -7.9338605056106974, -88.06013128892516 -8.526909493218092, -87.93279764509383 -8.910418140577093 C-87.70616052872302 -9.470216199743541, -87.47952341235222 -10.03001425890999, -87.31215804837109 -10.443409943732574 C-87.03949254260662 -11.009605700559709, -86.76682703684216 -11.575801457386842, -86.5945745002064 -11.933487535324831 C-86.31750499831737 -12.425452492258183, -86.04043549642836 -12.917417449191536, -85.78299570532036 -13.374527866909409 C-85.47089992857069 -13.853990789447389, -85.15880415182103 -14.333453711985369, -84.88075661506429 -14.760609394661605 C-84.54093593935704 -15.215938141808888, -84.20111526364978 -15.671266888956168, -83.89156472338968 -16.086036412270353 C-83.6078809742263 -16.41926748610027, -83.32419722506292 -16.75249855993019, -82.81948483196045 -17.345362455817092 C-82.57539508619774 -17.597405158457903, -82.33130534043505 -17.849447861098717, -81.66892234701089 -18.5334126844643 C-81.3436128766317 -18.82885013824576, -81.0183034062525 -19.12428759202722, -80.44460517658653 -19.645305144986487 C-80.16761760955468 -19.86619535874567, -79.89063004252283 -20.087085572504854, -79.15156430255585 -20.676470832763204 C-78.78677809908713 -20.930929896962752, -78.42199189561839 -21.1853889611623, -77.79511310722665 -21.622672466799 C-77.47534234040644 -21.81651938482703, -77.15557157358622 -22.010366302855054, -76.38082553951841 -22.480021901620027 C-75.81117493464824 -22.77720825730217, -75.24152432977807 -23.074394612984314, -74.91451321041058 -23.244996104497716 C-74.58729717710736 -23.389844935922298, -74.26008114380413 -23.534693767346877, -73.40220151178646 -23.91445163234599 C-72.85556065641471 -24.11562052021547, -72.30891980104296 -24.316789408084947, -71.85010485680553 -24.485637548803172 C-71.50966982504126 -24.58667687925086, -71.16923479327698 -24.68771620969855, -70.26460114354681 -24.956206728419538 C-69.78045537297504 -25.066709841206134, -69.29630960240328 -25.177212953992733, -68.65220554685754 -25.324225501499278 C-67.99922291979844 -25.42979466868629, -67.34624029273935 -25.5353638358733, -67.01954374610233 -25.588181599964017 C-66.41226867890927 -25.64676469534101, -65.80499361171621 -25.705347790718, -65.37332469882529 -25.746990371586765 C-64.840657998443 -25.76407195589519, -64.30799129806071 -25.781153540203615, -63.7203130722046 -25.799999237060547 C-63.7203130722046 -25.799999237060547, -63.72031307220459 -25.799999237060547, -63.72031307220459 -25.799999237060547" stroke="none" stroke-width="0" fill="#ECECFF" style=""></path><path d="M-63.72031307220459 -25.799999237060547 C-18.788185543839447 -25.799999237060547, 26.143941984525696 -25.799999237060547, 63.72031307220459 -25.799999237060547 M-63.72031307220459 -25.799999237060547 C-22.634134912374797 -25.799999237060547, 18.452043247454995 -25.799999237060547, 63.72031307220459 -25.799999237060547 M63.72031307220459 -25.799999237060547 C63.72031307220459 -25.799999237060547, 63.72031307220459 -25.799999237060547, 63.72031307220459 -25.799999237060547 M63.72031307220459 -25.799999237060547 C63.72031307220459 -25.799999237060547, 63.72031307220459 -25.799999237060547, 63.72031307220459 -25.799999237060547 M63.72031307220459 -25.799999237060547 C64.23409015091535 -25.78352340615271, 64.74786722962611 -25.767047575244874, 65.37332469882529 -25.746990371586765 M63.72031307220459 -25.799999237060547 C64.08930870210455 -25.788166265416077, 64.4583043320045 -25.77633329377161, 65.37332469882529 -25.746990371586765 M65.37332469882529 -25.746990371586765 C65.7992243240285 -25.70590434696265, 66.22512394923172 -25.664818322338537, 67.01954374610231 -25.58818159996402 M65.37332469882529 -25.746990371586765 C65.9237816670648 -25.69388844988206, 66.47423863530433 -25.640786528177355, 67.01954374610231 -25.58818159996402 M67.01954374610231 -25.58818159996402 C67.49549412939221 -25.511233633044057, 67.9714445126821 -25.434285666124097, 68.65220554685753 -25.32422550149928 M67.01954374610231 -25.58818159996402 C67.42330066118065 -25.522905313115796, 67.827057576259 -25.45762902626757, 68.65220554685753 -25.32422550149928 M68.65220554685753 -25.32422550149928 C69.07087746832384 -25.22866636751421, 69.48954938979016 -25.133107233529138, 70.26460114354678 -24.956206728419545 M68.65220554685753 -25.32422550149928 C69.01897565428297 -25.24051261787805, 69.3857457617084 -25.15679973425682, 70.26460114354678 -24.956206728419545 M70.26460114354678 -24.956206728419545 C70.84646500551563 -24.783512588452933, 71.42832886748447 -24.61081844848632, 71.85010485680552 -24.48563754880318 M70.26460114354678 -24.956206728419545 C70.71784191181025 -24.82168724750829, 71.17108268007372 -24.687167766597035, 71.85010485680552 -24.48563754880318 M71.85010485680552 -24.48563754880318 C72.42740309446042 -24.273186460859765, 73.00470133211532 -24.06073537291635, 73.40220151178644 -23.914451632345997 M71.85010485680552 -24.48563754880318 C72.4193624304437 -24.276145499545, 72.9886200040819 -24.06665345028682, 73.40220151178644 -23.914451632345997 M73.40220151178644 -23.914451632345997 C73.78780458983047 -23.743756588204803, 74.17340766787451 -23.573061544063606, 74.91451321041056 -23.24499610449772 M73.40220151178644 -23.914451632345997 C73.82674207981319 -23.726520116429057, 74.25128264783994 -23.538588600512117, 74.91451321041056 -23.24499610449772 M74.91451321041056 -23.24499610449772 C75.39243583813541 -22.995664175737716, 75.87035846586028 -22.746332246977712, 76.3808255395184 -22.480021901620034 M74.91451321041056 -23.24499610449772 C75.24088281479717 -23.074729290938933, 75.56725241918379 -22.904462477380143, 76.3808255395184 -22.480021901620034 M76.3808255395184 -22.480021901620034 C76.83497551380513 -22.20471351832592, 77.28912548809188 -21.929405135031807, 77.79511310722664 -21.62267246679901 M76.3808255395184 -22.480021901620034 C76.71176834243 -22.27940242965923, 77.04271114534163 -22.078782957698426, 77.79511310722664 -21.62267246679901 M77.79511310722664 -21.62267246679901 C78.07299521756963 -21.428833935946425, 78.3508773279126 -21.23499540509384, 79.15156430255584 -20.67647083276321 M77.79511310722664 -21.62267246679901 C78.19190675667669 -21.345886393862898, 78.58870040612675 -21.069100320926783, 79.15156430255584 -20.67647083276321 M79.15156430255584 -20.67647083276321 C79.48251293139279 -20.412548108178626, 79.81346156022974 -20.148625383594037, 80.4446051765865 -19.64530514498651 M79.15156430255584 -20.67647083276321 C79.63579223264465 -20.290311944363776, 80.12002016273347 -19.904153055964336, 80.4446051765865 -19.64530514498651 M80.4446051765865 -19.64530514498651 C80.84281027193843 -19.283665813317366, 81.24101536729036 -18.92202648164822, 81.66892234701088 -18.533412684464313 M80.4446051765865 -19.64530514498651 C80.74682060931997 -19.370841085160155, 81.04903604205342 -19.096377025333805, 81.66892234701088 -18.533412684464313 M81.66892234701088 -18.533412684464313 C82.07483910589013 -18.114270304535786, 82.48075586476939 -17.69512792460726, 82.81948483196044 -17.345362455817106 M81.66892234701088 -18.533412684464313 C81.96248743591956 -18.230282628024057, 82.25605252482825 -17.927152571583804, 82.81948483196044 -17.345362455817106 M82.81948483196044 -17.345362455817106 C83.14950920376258 -16.957697049779572, 83.47953357556472 -16.570031643742034, 83.89156472338968 -16.086036412270357 M82.81948483196044 -17.345362455817106 C83.13094507554702 -16.979503531110396, 83.44240531913358 -16.613644606403682, 83.89156472338968 -16.086036412270357 M83.89156472338968 -16.086036412270357 C84.2461096652216 -15.610978489924246, 84.60065460705353 -15.135920567578134, 84.88075661506427 -14.76060939466161 M83.89156472338968 -16.086036412270357 C84.09810095898169 -15.809296672415202, 84.3046371945737 -15.532556932560048, 84.88075661506427 -14.76060939466161 M84.88075661506427 -14.76060939466161 C85.13224589172044 -14.37425433139125, 85.38373516837662 -13.98789926812089, 85.78299570532036 -13.374527866909407 M84.88075661506427 -14.76060939466161 C85.17663733798524 -14.306057149156134, 85.47251806090621 -13.851504903650659, 85.78299570532036 -13.374527866909407 M85.78299570532036 -13.374527866909407 C86.00571933384646 -12.979059511248359, 86.22844296237255 -12.58359115558731, 86.5945745002064 -11.93348753532484 M85.78299570532036 -13.374527866909407 C86.07291960561724 -12.859738623953916, 86.36284350591413 -12.344949380998424, 86.5945745002064 -11.93348753532484 M86.5945745002064 -11.93348753532484 C86.80804953724208 -11.490202053286172, 87.02152457427778 -11.046916571247504, 87.31215804837109 -10.443409943732584 M86.5945745002064 -11.93348753532484 C86.83682301286483 -11.430453315501795, 87.07907152552326 -10.927419095678749, 87.31215804837109 -10.443409943732584 M87.31215804837109 -10.443409943732584 C87.4934748561906 -9.995553922896361, 87.67479166401013 -9.547697902060138, 87.93279764509381 -8.910418140577123 M87.31215804837109 -10.443409943732584 C87.506632390195 -9.963054559521918, 87.7011067320189 -9.482699175311252, 87.93279764509381 -8.910418140577123 M87.93279764509381 -8.910418140577123 C88.1060910607289 -8.388485983240443, 88.27938447636399 -7.866553825903762, 88.4539429491449 -7.340811518003323 M87.93279764509381 -8.910418140577123 C88.09720253748391 -8.415256799060487, 88.26160742987402 -7.920095457543848, 88.4539429491449 -7.340811518003323 M88.4539429491449 -7.340811518003323 C88.55283553097823 -6.963691243156742, 88.65172811281157 -6.586570968310159, 88.87345246268467 -5.741039926302914 M88.4539429491449 -7.340811518003323 C88.5424782458465 -7.003188060239836, 88.63101354254809 -6.665564602476349, 88.87345246268467 -5.741039926302914 M88.87345246268467 -5.741039926302914 C88.96956139434502 -5.247540874856901, 89.06567032600537 -4.754041823410887, 89.18960233113748 -4.117677170096137 M88.87345246268467 -5.741039926302914 C88.97475627914264 -5.220866239360457, 89.0760600956006 -4.700692552417999, 89.18960233113748 -4.117677170096137 M89.18960233113748 -4.117677170096137 C89.25878783910831 -3.581088032498225, 89.32797334707914 -3.0444988949003133, 89.40109342687991 -2.4773939951584394 M89.18960233113748 -4.117677170096137 C89.27415977951298 -3.4618662982524957, 89.35871722788849 -2.8060554264088546, 89.40109342687991 -2.4773939951584394 M89.40109342687991 -2.4773939951584394 C89.43897517538731 -1.8873551845586116, 89.47685692389472 -1.2973163739587839, 89.50705668763487 -0.8269306768952902 M89.40109342687991 -2.4773939951584394 C89.44012454333473 -1.8694528510245307, 89.47915565978954 -1.2615117068906219, 89.50705668763487 -0.8269306768952902 M89.50705668763487 -0.8269306768952902 C89.50705668763487 -0.4029998316053803, 89.50705668763487 0.020931013684529653, 89.50705668763487 0.826930676895284 M89.50705668763487 -0.8269306768952902 C89.50705668763487 -0.27554439774516115, 89.50705668763487 0.2758418814049679, 89.50705668763487 0.826930676895284 M89.50705668763487 0.826930676895284 C89.46545215969067 1.4749547821968356, 89.42384763174645 2.1229788874983875, 89.40109342687991 2.4773939951584216 M89.50705668763487 0.826930676895284 C89.48243768199337 1.2103915618651813, 89.45781867635189 1.5938524468350785, 89.40109342687991 2.4773939951584216 M89.40109342687991 2.4773939951584216 C89.33318422395573 3.0040843628494964, 89.26527502103154 3.5307747305405712, 89.18960233113748 4.117677170096119 M89.40109342687991 2.4773939951584216 C89.33560159229907 2.9853357313418902, 89.27010975771823 3.493277467525359, 89.18960233113748 4.117677170096119 M89.18960233113748 4.117677170096119 C89.10902367165252 4.531431556245685, 89.02844501216755 4.94518594239525, 88.87345246268467 5.741039926302909 M89.18960233113748 4.117677170096119 C89.06974026139609 4.733143565360707, 88.9498781916547 5.348609960625294, 88.87345246268467 5.741039926302909 M88.87345246268467 5.741039926302909 C88.75476209643836 6.193657733530247, 88.63607173019203 6.6462755407575855, 88.4539429491449 7.340811518003306 M88.87345246268467 5.741039926302909 C88.75013707713286 6.2112949366381205, 88.62682169158106 6.681549946973333, 88.4539429491449 7.340811518003306 M88.4539429491449 7.340811518003306 C88.3091631314066 7.776865261499717, 88.16438331366832 8.21291900499613, 87.93279764509383 8.910418140577105 M88.4539429491449 7.340811518003306 C88.29432033665344 7.8215693944180815, 88.13469772416198 8.302327270832858, 87.93279764509383 8.910418140577105 M87.93279764509383 8.910418140577105 C87.79214898685642 9.257823045680341, 87.651500328619 9.605227950783576, 87.31215804837109 10.443409943732577 M87.93279764509383 8.910418140577105 C87.69944693914081 9.48679889581005, 87.46609623318778 10.063179651042995, 87.31215804837109 10.443409943732577 M87.31215804837109 10.443409943732577 C87.11480150453283 10.853225029766284, 86.91744496069458 11.263040115799988, 86.5945745002064 11.933487535324835 M87.31215804837109 10.443409943732577 C87.1239058467126 10.834319668428265, 86.93565364505413 11.225229393123952, 86.5945745002064 11.933487535324835 M86.5945745002064 11.933487535324835 C86.30705036749893 12.444015747922519, 86.01952623479146 12.954543960520205, 85.78299570532037 13.374527866909402 M86.5945745002064 11.933487535324835 C86.34635705117 12.374222750831212, 86.09813960213359 12.81495796633759, 85.78299570532037 13.374527866909402 M85.78299570532037 13.374527866909402 C85.53359127396662 13.757680047935892, 85.28418684261287 14.140832228962385, 84.88075661506429 14.760609394661596 M85.78299570532037 13.374527866909402 C85.47820221197043 13.842772521207765, 85.17340871862046 14.311017175506127, 84.88075661506429 14.760609394661596 M84.88075661506429 14.760609394661596 C84.5871540770311 15.1540100478846, 84.2935515389979 15.547410701107605, 83.89156472338968 16.086036412270353 M84.88075661506429 14.760609394661596 C84.56952667859389 15.177629155901434, 84.25829674212348 15.594648917141273, 83.89156472338968 16.086036412270353 M83.89156472338968 16.086036412270353 C83.65172434105102 16.36776657266971, 83.41188395871237 16.649496733069064, 82.81948483196045 17.345362455817092 M83.89156472338968 16.086036412270353 C83.66852348217762 16.348033345604193, 83.44548224096556 16.61003027893803, 82.81948483196045 17.345362455817092 M82.81948483196045 17.345362455817092 C82.37290084572867 17.806497086828553, 81.9263168594969 18.267631717840015, 81.66892234701088 18.533412684464306 M82.81948483196045 17.345362455817092 C82.5323689322232 17.641833194949562, 82.24525303248595 17.93830393408203, 81.66892234701088 18.533412684464306 M81.66892234701088 18.533412684464306 C81.29183424939319 18.875874117516357, 80.91474615177552 19.21833555056841, 80.44460517658653 19.64530514498649 M81.66892234701088 18.533412684464306 C81.36122100940887 18.812858897943197, 81.05351967180685 19.092305111422085, 80.44460517658653 19.64530514498649 M80.44460517658653 19.64530514498649 C80.17491939836928 19.860372376474793, 79.90523362015202 20.075439607963094, 79.15156430255584 20.676470832763208 M80.44460517658653 19.64530514498649 C80.06471658204643 19.948256189872158, 79.68482798750634 20.25120723475782, 79.15156430255584 20.676470832763208 M79.15156430255584 20.676470832763208 C78.66629273668346 21.01497527004827, 78.18102117081108 21.353479707333335, 77.79511310722665 21.622672466799003 M79.15156430255584 20.676470832763208 C78.85423258784478 20.88387656566316, 78.55690087313373 21.091282298563115, 77.79511310722665 21.622672466799003 M77.79511310722665 21.622672466799003 C77.42643987987405 21.84616434378452, 77.05776665252147 22.06965622077003, 76.38082553951841 22.48002190162003 M77.79511310722665 21.622672466799003 C77.38024637424749 21.87416711835851, 76.96537964126834 22.125661769918015, 76.38082553951841 22.48002190162003 M76.38082553951841 22.48002190162003 C75.85737492541821 22.753105751709988, 75.333924311318 23.026189601799942, 74.91451321041058 23.244996104497716 M76.38082553951841 22.48002190162003 C75.95403273805746 22.70267943276837, 75.52723993659652 22.92533696391671, 74.91451321041058 23.244996104497716 M74.91451321041058 23.244996104497716 C74.3641570174855 23.48862246536924, 73.81380082456042 23.73224882624076, 73.40220151178644 23.914451632345994 M74.91451321041058 23.244996104497716 C74.55853778370779 23.40257586626319, 74.202562357005 23.560155628028667, 73.40220151178644 23.914451632345994 M73.40220151178644 23.914451632345994 C72.98876023475167 24.06660184410406, 72.5753189577169 24.21875205586213, 71.85010485680553 24.485637548803172 M73.40220151178644 23.914451632345994 C72.95520324729607 24.078951125685112, 72.5082049828057 24.243450619024234, 71.85010485680553 24.485637548803172 M71.85010485680553 24.485637548803172 C71.35102542293968 24.63376170505315, 70.85194598907383 24.781885861303127, 70.26460114354681 24.95620672841954 M71.85010485680553 24.485637548803172 C71.47919044426364 24.595722999476127, 71.10827603172174 24.70580845014908, 70.26460114354681 24.95620672841954 M70.26460114354681 24.95620672841954 C69.70538563526355 25.083844018962964, 69.14617012698031 25.211481309506386, 68.65220554685754 25.324225501499278 M70.26460114354681 24.95620672841954 C69.75090202348167 25.07345520037437, 69.23720290341655 25.1907036723292, 68.65220554685754 25.324225501499278 M68.65220554685754 25.324225501499278 C68.1801463440732 25.40054437253166, 67.70808714128886 25.47686324356404, 67.01954374610233 25.588181599964017 M68.65220554685754 25.324225501499278 C68.14468680219076 25.406277196270356, 67.63716805752397 25.488328891041437, 67.01954374610233 25.588181599964017 M67.01954374610233 25.588181599964017 C66.44821323905974 25.64329716685295, 65.87688273201717 25.698412733741886, 65.37332469882529 25.746990371586765 M67.01954374610233 25.588181599964017 C66.58074739810459 25.63051175592554, 66.14195105010687 25.672841911887065, 65.37332469882529 25.746990371586765 M65.37332469882529 25.746990371586765 C64.8477689568698 25.763843921299085, 64.3222132149143 25.7806974710114, 63.7203130722046 25.799999237060547 M65.37332469882529 25.746990371586765 C65.0304332146073 25.757986234087852, 64.68754173038931 25.768982096588935, 63.7203130722046 25.799999237060547 M63.7203130722046 25.799999237060547 C63.7203130722046 25.799999237060547, 63.72031307220459 25.799999237060547, 63.72031307220459 25.799999237060547 M63.7203130722046 25.799999237060547 C63.7203130722046 25.799999237060547, 63.72031307220459 25.799999237060547, 63.72031307220459 25.799999237060547 M63.72031307220459 25.799999237060547 C14.837512303065523 25.799999237060547, -34.04528846607354 25.799999237060547, -63.72031307220458 25.799999237060547 M63.72031307220459 25.799999237060547 C30.151422321356264 25.799999237060547, -3.417468429492061 25.799999237060547, -63.72031307220458 25.799999237060547 M-63.72031307220458 25.799999237060547 C-64.26550149597918 25.782516105454988, -64.81068991975378 25.765032973849426, -65.37332469882527 25.746990371586765 M-63.72031307220458 25.799999237060547 C-64.11609598057919 25.78730724953367, -64.5118788889538 25.774615262006794, -65.37332469882527 25.746990371586765 M-65.37332469882527 25.746990371586765 C-65.72825147665746 25.712751012191195, -66.08317825448965 25.678511652795628, -67.01954374610231 25.588181599964017 M-65.37332469882527 25.746990371586765 C-65.79228258982108 25.70657400771298, -66.2112404808169 25.6661576438392, -67.01954374610231 25.588181599964017 M-67.01954374610231 25.588181599964017 C-67.59326971927281 25.495426033933185, -68.1669956924433 25.40267046790235, -68.65220554685753 25.324225501499278 M-67.01954374610231 25.588181599964017 C-67.38325762102639 25.529379161309517, -67.74697149595048 25.47057672265502, -68.65220554685753 25.324225501499278 M-68.65220554685753 25.324225501499278 C-69.26620959022635 25.184083085351176, -69.88021363359518 25.043940669203078, -70.26460114354678 24.956206728419545 M-68.65220554685753 25.324225501499278 C-69.0843192695624 25.225598364097454, -69.51643299226728 25.126971226695634, -70.26460114354678 24.956206728419545 M-70.26460114354678 24.956206728419545 C-70.60907270529438 24.853969377060984, -70.95354426704199 24.75173202570242, -71.8501048568055 24.485637548803183 M-70.26460114354678 24.956206728419545 C-70.76501256900117 24.80768724405786, -71.26542399445555 24.659167759696174, -71.8501048568055 24.485637548803183 M-71.8501048568055 24.485637548803183 C-72.43151073879787 24.271674809772936, -73.01291662079024 24.057712070742685, -73.40220151178644 23.914451632345997 M-71.8501048568055 24.485637548803183 C-72.37696592933645 24.29174780386143, -72.9038270018674 24.097858058919677, -73.40220151178644 23.914451632345997 M-73.40220151178644 23.914451632345997 C-73.78927017255211 23.7431078182089, -74.17633883331779 23.57176400407181, -74.91451321041056 23.244996104497723 M-73.40220151178644 23.914451632345997 C-73.9274133219707 23.681955943832218, -74.45262513215498 23.449460255318442, -74.91451321041056 23.244996104497723 M-74.91451321041056 23.244996104497723 C-75.48251643557057 22.94866918575518, -76.05051966073057 22.65234226701263, -76.3808255395184 22.480021901620038 M-74.91451321041056 23.244996104497723 C-75.24700416749127 23.07153578515934, -75.57949512457198 22.89807546582096, -76.3808255395184 22.480021901620038 M-76.3808255395184 22.480021901620038 C-76.68113086403324 22.297975049109166, -76.98143618854807 22.115928196598297, -77.79511310722663 21.622672466799017 M-76.3808255395184 22.480021901620038 C-76.79622643572276 22.22820343717432, -77.21162733192712 21.976384972728603, -77.79511310722663 21.622672466799017 M-77.79511310722663 21.622672466799017 C-78.12311592347103 21.393871901199986, -78.45111873971544 21.165071335600956, -79.15156430255584 20.67647083276321 M-77.79511310722663 21.622672466799017 C-78.18109582822461 21.35342762955351, -78.5670785492226 21.084182792308006, -79.15156430255584 20.67647083276321 M-79.15156430255584 20.67647083276321 C-79.60838364535951 20.312169563350544, -80.06520298816316 19.947868293937873, -80.4446051765865 19.645305144986512 M-79.15156430255584 20.67647083276321 C-79.52567651598339 20.378126298098845, -79.89978872941094 20.07978176343448, -80.4446051765865 19.645305144986512 M-80.4446051765865 19.645305144986512 C-80.90121840654946 19.23062109085818, -81.35783163651243 18.81593703672985, -81.66892234701086 18.533412684464324 M-80.4446051765865 19.645305144986512 C-80.75164385293425 19.366460742925693, -81.058682529282 19.087616340864876, -81.66892234701086 18.533412684464324 M-81.66892234701086 18.533412684464324 C-82.09065409333763 18.097940031561624, -82.5123858396644 17.662467378658928, -82.81948483196044 17.3453624558171 M-81.66892234701086 18.533412684464324 C-81.9364940048526 18.257122979701066, -82.20406566269435 17.98083327493781, -82.81948483196044 17.3453624558171 M-82.81948483196044 17.3453624558171 C-83.07018369691639 17.05087730387032, -83.32088256187232 16.756392151923535, -83.89156472338968 16.08603641227036 M-82.81948483196044 17.3453624558171 C-83.06948515423335 17.05169785185401, -83.31948547650627 16.758033247890918, -83.89156472338968 16.08603641227036 M-83.89156472338968 16.08603641227036 C-84.24835100343897 15.607975300903092, -84.60513728348825 15.129914189535825, -84.88075661506427 14.760609394661614 M-83.89156472338968 16.08603641227036 C-84.22759693063443 15.635783867726238, -84.56362913787919 15.185531323182115, -84.88075661506427 14.760609394661614 M-84.88075661506427 14.760609394661614 C-85.09170818395553 14.436531136416873, -85.30265975284678 14.112452878172132, -85.78299570532036 13.374527866909418 M-84.88075661506427 14.760609394661614 C-85.08139085558722 14.452381323381193, -85.28202509611015 14.144153252100773, -85.78299570532036 13.374527866909418 M-85.78299570532036 13.374527866909418 C-85.95626469143762 13.0668712366708, -86.1295336775549 12.75921460643218, -86.59457450020639 11.933487535324842 M-85.78299570532036 13.374527866909418 C-86.09069227328729 12.828181452828003, -86.39838884125422 12.281835038746587, -86.59457450020639 11.933487535324842 M-86.59457450020639 11.933487535324842 C-86.7838833773798 11.54038360131321, -86.97319225455318 11.147279667301575, -87.31215804837109 10.443409943732586 M-86.59457450020639 11.933487535324842 C-86.81509956727103 11.475562515084576, -87.03562463433568 11.01763749484431, -87.31215804837109 10.443409943732586 M-87.31215804837109 10.443409943732586 C-87.49666212259885 9.987681313246414, -87.68116619682661 9.531952682760242, -87.93279764509381 8.910418140577127 M-87.31215804837109 10.443409943732586 C-87.44029050824699 10.12692029056652, -87.56842296812289 9.810430637400456, -87.93279764509381 8.910418140577127 M-87.93279764509381 8.910418140577127 C-88.1167967491056 8.356242155569632, -88.30079585311738 7.802066170562136, -88.4539429491449 7.340811518003316 M-87.93279764509381 8.910418140577127 C-88.07150998716155 8.492638667079493, -88.21022232922927 8.074859193581858, -88.4539429491449 7.340811518003316 M-88.4539429491449 7.340811518003316 C-88.60711355294386 6.7567056211582965, -88.76028415674281 6.172599724313278, -88.87345246268467 5.741039926302918 M-88.4539429491449 7.340811518003316 C-88.57577782955043 6.876202315445849, -88.69761270995596 6.411593112888381, -88.87345246268467 5.741039926302918 M-88.87345246268467 5.741039926302918 C-88.97494901773548 5.219876567421531, -89.07644557278628 4.698713208540144, -89.18960233113748 4.117677170096139 M-88.87345246268467 5.741039926302918 C-88.95591133136783 5.317631063302988, -89.03837020005098 4.894222200303058, -89.18960233113748 4.117677170096139 M-89.18960233113748 4.117677170096139 C-89.27035002571604 3.4914139963806665, -89.3510977202946 2.8651508226651936, -89.40109342687991 2.477393995158454 M-89.18960233113748 4.117677170096139 C-89.25657264644015 3.5982686293932176, -89.32354296174282 3.0788600886902957, -89.40109342687991 2.477393995158454 M-89.40109342687991 2.477393995158454 C-89.43686375520284 1.920242258239647, -89.47263408352575 1.3630905213208402, -89.50705668763487 0.8269306768952934 M-89.40109342687991 2.477393995158454 C-89.4299762939442 2.027520026801475, -89.45885916100849 1.577646058444496, -89.50705668763487 0.8269306768952934 M-89.50705668763487 0.8269306768952934 C-89.50705668763487 0.3820260317472542, -89.50705668763487 -0.06287861340078504, -89.50705668763487 -0.8269306768952809 M-89.50705668763487 0.8269306768952934 C-89.50705668763487 0.44874277196561746, -89.50705668763487 0.0705548670359415, -89.50705668763487 -0.8269306768952809 M-89.50705668763487 -0.8269306768952809 C-89.47718982613448 -1.2921311528605852, -89.44732296463408 -1.7573316288258893, -89.40109342687991 -2.4773939951584185 M-89.50705668763487 -0.8269306768952809 C-89.46873750268763 -1.4237829131378665, -89.4304183177404 -2.0206351493804524, -89.40109342687991 -2.4773939951584185 M-89.40109342687991 -2.4773939951584185 C-89.35693078642967 -2.8199107135907355, -89.31276814597943 -3.1624274320230525, -89.18960233113748 -4.117677170096128 M-89.40109342687991 -2.4773939951584185 C-89.32433247666647 -3.072736766849723, -89.24757152645304 -3.668079538541028, -89.18960233113748 -4.117677170096128 M-89.18960233113748 -4.117677170096128 C-89.11484461069851 -4.501542264500405, -89.04008689025954 -4.885407358904683, -88.87345246268467 -5.741039926302906 M-89.18960233113748 -4.117677170096128 C-89.09460899554344 -4.605447871522911, -88.9996156599494 -5.093218572949692, -88.87345246268467 -5.741039926302906 M-88.87345246268467 -5.741039926302906 C-88.72347082328258 -6.312984919796756, -88.5734891838805 -6.884929913290605, -88.4539429491449 -7.340811518003303 M-88.87345246268467 -5.741039926302906 C-88.71961556542884 -6.327686688872418, -88.565778668173 -6.914333451441928, -88.4539429491449 -7.340811518003303 M-88.4539429491449 -7.340811518003303 C-88.27995916039566 -7.864822969163818, -88.10597537164642 -8.388834420324333, -87.93279764509383 -8.910418140577093 M-88.4539429491449 -7.340811518003303 C-88.31636277380909 -7.755181085690683, -88.17878259847328 -8.169550653378064, -87.93279764509383 -8.910418140577093 M-87.93279764509383 -8.910418140577093 C-87.73219876843464 -9.405901244240729, -87.53159989177546 -9.901384347904365, -87.31215804837109 -10.443409943732574 M-87.93279764509383 -8.910418140577093 C-87.69176355794868 -9.505776995902663, -87.45072947080354 -10.101135851228234, -87.31215804837109 -10.443409943732574 M-87.31215804837109 -10.443409943732574 C-87.02707602024824 -11.035388874907882, -86.74199399212542 -11.627367806083189, -86.5945745002064 -11.933487535324831 M-87.31215804837109 -10.443409943732574 C-87.15800655975973 -10.763508808147543, -87.00385507114837 -11.083607672562513, -86.5945745002064 -11.933487535324831 M-86.5945745002064 -11.933487535324831 C-86.35261640890775 -12.363108627339116, -86.11065831760911 -12.792729719353401, -85.78299570532036 -13.374527866909409 M-86.5945745002064 -11.933487535324831 C-86.39750823821811 -12.28339863860793, -86.20044197622983 -12.633309741891027, -85.78299570532036 -13.374527866909409 M-85.78299570532036 -13.374527866909409 C-85.44329658173194 -13.896396942728195, -85.10359745814351 -14.418266018546984, -84.88075661506429 -14.760609394661605 M-85.78299570532036 -13.374527866909409 C-85.4994937425381 -13.810063012679306, -85.21599177975584 -14.245598158449203, -84.88075661506429 -14.760609394661605 M-84.88075661506429 -14.760609394661605 C-84.67582046757981 -15.035205162223688, -84.47088432009534 -15.309800929785771, -83.89156472338968 -16.086036412270353 M-84.88075661506429 -14.760609394661605 C-84.64638551224537 -15.074645320792234, -84.41201440942646 -15.388681246922863, -83.89156472338968 -16.086036412270353 M-83.89156472338968 -16.086036412270353 C-83.65525764154955 -16.363616156853638, -83.41895055970943 -16.641195901436923, -82.81948483196045 -17.345362455817092 M-83.89156472338968 -16.086036412270353 C-83.51013237251348 -16.534088555725155, -83.12870002163727 -16.98214069917996, -82.81948483196045 -17.345362455817092 M-82.81948483196045 -17.345362455817092 C-82.58189199857158 -17.590696563025503, -82.3442991651827 -17.836030670233914, -81.66892234701089 -18.5334126844643 M-82.81948483196045 -17.345362455817092 C-82.46745127480091 -17.70886600607688, -82.11541771764135 -18.072369556336675, -81.66892234701089 -18.5334126844643 M-81.66892234701089 -18.5334126844643 C-81.42108029854462 -18.758496275340107, -81.17323825007834 -18.983579866215916, -80.44460517658653 -19.645305144986487 M-81.66892234701089 -18.5334126844643 C-81.3014793489961 -18.867114693252354, -80.9340363509813 -19.200816702040413, -80.44460517658653 -19.645305144986487 M-80.44460517658653 -19.645305144986487 C-80.04805551698662 -19.96154294588779, -79.65150585738672 -20.27778074678909, -79.15156430255585 -20.676470832763204 M-80.44460517658653 -19.645305144986487 C-80.06855807999061 -19.94519269748823, -79.69251098339468 -20.245080249989975, -79.15156430255585 -20.676470832763204 M-79.15156430255585 -20.676470832763204 C-78.84144332045186 -20.89279780495801, -78.53132233834785 -21.109124777152815, -77.79511310722665 -21.622672466799 M-79.15156430255585 -20.676470832763204 C-78.71934492449266 -20.97796836042477, -78.28712554642946 -21.27946588808634, -77.79511310722665 -21.622672466799 M-77.79511310722665 -21.622672466799 C-77.41035885213284 -21.855912757303845, -77.02560459703903 -22.089153047808693, -76.38082553951841 -22.480021901620027 M-77.79511310722665 -21.622672466799 C-77.42406579024502 -21.847603530869332, -77.05301847326339 -22.072534594939665, -76.38082553951841 -22.480021901620027 M-76.38082553951841 -22.480021901620027 C-75.79766585162761 -22.784255937261054, -75.2145061637368 -23.088489972902078, -74.91451321041058 -23.244996104497716 M-76.38082553951841 -22.480021901620027 C-75.9714596295287 -22.693587834650288, -75.56209371953896 -22.907153767680548, -74.91451321041058 -23.244996104497716 M-74.91451321041058 -23.244996104497716 C-74.4277820943347 -23.46045753121894, -73.94105097825884 -23.675918957940162, -73.40220151178646 -23.91445163234599 M-74.91451321041058 -23.244996104497716 C-74.48947611621008 -23.433147417822845, -74.06443902200961 -23.621298731147974, -73.40220151178646 -23.91445163234599 M-73.40220151178646 -23.91445163234599 C-72.99395768529948 -24.064689134257765, -72.5857138588125 -24.214926636169537, -71.85010485680553 -24.485637548803172 M-73.40220151178646 -23.91445163234599 C-72.78140241464767 -24.14291143869701, -72.16060331750889 -24.371371245048028, -71.85010485680553 -24.485637548803172 M-71.85010485680553 -24.485637548803172 C-71.45285465062368 -24.60353932478906, -71.05560444444183 -24.721441100774953, -70.26460114354681 -24.956206728419538 M-71.85010485680553 -24.485637548803172 C-71.39793616917665 -24.61983884180955, -70.94576748154776 -24.75404013481593, -70.26460114354681 -24.956206728419538 M-70.26460114354681 -24.956206728419538 C-69.82682776528821 -25.056125645268793, -69.38905438702963 -25.156044562118048, -68.65220554685754 -25.324225501499278 M-70.26460114354681 -24.956206728419538 C-69.94127403891757 -25.030004030144624, -69.61794693428834 -25.103801331869708, -68.65220554685754 -25.324225501499278 M-68.65220554685754 -25.324225501499278 C-68.23979038301123 -25.390901586862586, -67.8273752191649 -25.4575776722259, -67.01954374610233 -25.588181599964017 M-68.65220554685754 -25.324225501499278 C-68.00517826955571 -25.428831853921963, -67.35815099225388 -25.533438206344645, -67.01954374610233 -25.588181599964017 M-67.01954374610233 -25.588181599964017 C-66.63540741184629 -25.625238770138164, -66.25127107759025 -25.662295940312312, -65.37332469882529 -25.746990371586765 M-67.01954374610233 -25.588181599964017 C-66.4722263043432 -25.64098065532499, -65.92490886258405 -25.69377971068597, -65.37332469882529 -25.746990371586765 M-65.37332469882529 -25.746990371586765 C-64.95599347629823 -25.760373371607262, -64.53866225377116 -25.77375637162776, -63.7203130722046 -25.799999237060547 M-65.37332469882529 -25.746990371586765 C-64.74661615100501 -25.767087694901175, -64.11990760318476 -25.787185018215585, -63.7203130722046 -25.799999237060547 M-63.7203130722046 -25.799999237060547 C-63.7203130722046 -25.799999237060547, -63.72031307220459 -25.799999237060547, -63.72031307220459 -25.799999237060547 M-63.7203130722046 -25.799999237060547 C-63.7203130722046 -25.799999237060547, -63.72031307220459 -25.799999237060547, -63.72031307220459 -25.799999237060547" stroke="#9370DB" stroke-width="1.3" fill="none" stroke-dasharray="0 0" style=""></path></g><g class="label" style="" transform="translate(0, -18.299999237060547)"><rect></rect><g><rect class="background" style="stroke: none"></rect><text y="-10.1" style=""><tspan class="text-outer-tspan row" x="0" y="-0.1em" dy="1.1em"><tspan font-style="normal" class="text-inner-tspan" font-weight="normal">SERVFAIL</tspan><tspan font-style="normal" class="text-inner-tspan" font-weight="normal"> observed</tspan><tspan font-style="normal" class="text-inner-tspan" font-weight="normal"> at</tspan></tspan><tspan class="text-outer-tspan row" x="0" y="1em" dy="1.1em"><tspan font-style="normal" class="text-inner-tspan" font-weight="normal">resolver</tspan></tspan></text></g></g></g><g class="node default" id="gd64d76f1-45ac-4fb5-b168-d31c7504a9df-light-flowchart-CD-1" data-look="classic" transform="translate(985.9453086853027, 197.1859359741211)"><polygon points="87.5859375,0 175.171875,-87.5859375 87.5859375,-175.171875 0,-87.5859375" class="label-container" transform="translate(-87.0859375, 87.5859375)"></polygon><g class="label" style="" transform="translate(0, -9.5)"><rect></rect><g><rect class="background" style="stroke: none"></rect><text y="-10.1" style=""><tspan class="text-outer-tspan row" x="0" y="-0.1em" dy="1.1em"><tspan font-style="normal" class="text-inner-tspan" font-weight="normal">dig</tspan><tspan font-style="normal" class="text-inner-tspan" font-weight="normal"> +cd</tspan><tspan font-style="normal" class="text-inner-tspan" font-weight="normal"> succeeds?</tspan></tspan></text></g></g></g><g class="node default" id="gd64d76f1-45ac-4fb5-b168-d31c7504a9df-light-flowchart-NotDNSSEC-2" data-look="classic" transform="translate(835.3031196594238, 480.6812515258789)"><rect class="basic label-container" style="" x="-128.375" y="-50.900001525878906" width="256.75" height="101.80000305175781"></rect><g class="label" style="" transform="translate(0, -35.900001525878906)"><rect></rect><g><rect class="background" style="stroke: none"></rect><text y="-10.1" style=""><tspan class="text-outer-tspan row" x="0" y="-0.1em" dy="1.1em"><tspan font-style="normal" class="text-inner-tspan" font-weight="normal">Not</tspan><tspan font-style="normal" class="text-inner-tspan" font-weight="normal"> DNSSEC.</tspan></tspan><tspan class="text-outer-tspan row" x="0" y="1em" dy="1.1em"><tspan font-style="normal" class="text-inner-tspan" font-weight="normal">Suspect</tspan><tspan font-style="normal" class="text-inner-tspan" font-weight="normal"> authoritative,</tspan></tspan><tspan class="text-outer-tspan row" x="0" y="2.1em" dy="1.1em"><tspan font-style="normal" class="text-inner-tspan" font-weight="normal">network,</tspan><tspan font-style="normal" class="text-inner-tspan" font-weight="normal"> or</tspan><tspan font-style="normal" class="text-inner-tspan" font-weight="normal"> RRL.</tspan></tspan><tspan class="text-outer-tspan row" x="0" y="3.2em" dy="1.1em"><tspan font-style="normal" class="text-inner-tspan" font-weight="normal">Use</tspan><tspan font-style="normal" class="text-inner-tspan" font-weight="normal"> +trace</tspan><tspan font-style="normal" class="text-inner-tspan" font-weight="normal"> and</tspan><tspan font-style="normal" class="text-inner-tspan" font-weight="normal"> +norecurse.</tspan></tspan></text></g></g></g><g class="node default" id="gd64d76f1-45ac-4fb5-b168-d31c7504a9df-light-flowchart-EDE-3" data-look="classic" transform="translate(1136.5874977111816, 480.6812515258789)"><polygon points="122.90937423706055,0 245.8187484741211,-122.90937423706055 122.90937423706055,-245.8187484741211 0,-122.90937423706055" class="label-container" transform="translate(-122.40937423706055, 122.90937423706055)"></polygon><g class="label" style="" transform="translate(0, -18.299999237060547)"><rect></rect><g><rect class="background" style="stroke: none"></rect><text y="-10.1" style=""><tspan class="text-outer-tspan row" x="0" y="-0.1em" dy="1.1em"><tspan font-style="normal" class="text-inner-tspan" font-weight="normal">EDE</tspan><tspan font-style="normal" class="text-inner-tspan" font-weight="normal"> present</tspan><tspan font-style="normal" class="text-inner-tspan" font-weight="normal"> in</tspan><tspan font-style="normal" class="text-inner-tspan" font-weight="normal"> response?</tspan></tspan><tspan class="text-outer-tspan row" x="0" y="1em" dy="1.1em"><tspan font-style="normal" class="text-inner-tspan" font-weight="normal">(dig</tspan><tspan font-style="normal" class="text-inner-tspan" font-weight="normal"> OPT</tspan><tspan font-style="normal" class="text-inner-tspan" font-weight="normal"> pseudo-section)</tspan></tspan></text></g></g></g><g class="node default" id="gd64d76f1-45ac-4fb5-b168-d31c7504a9df-light-flowchart-DELV-4" data-look="classic" transform="translate(1584.0992164611816, 1188.2609405517578)"><rect class="basic label-container" style="" x="-89.875" y="-42.099998474121094" width="179.75" height="84.19999694824219"></rect><g class="label" style="" transform="translate(0, -27.099998474121094)"><rect></rect><g><rect class="background" style="stroke: none"></rect><text y="-10.1" style=""><tspan class="text-outer-tspan row" x="0" y="-0.1em" dy="1.1em"><tspan font-style="normal" class="text-inner-tspan" font-weight="normal">Run</tspan><tspan font-style="normal" class="text-inner-tspan" font-weight="normal"> delv</tspan><tspan font-style="normal" class="text-inner-tspan" font-weight="normal"> +rtrace</tspan></tspan><tspan class="text-outer-tspan row" x="0" y="1em" dy="1.1em"><tspan font-style="normal" class="text-inner-tspan" font-weight="normal">and</tspan><tspan font-style="normal" class="text-inner-tspan" font-weight="normal"> delv</tspan><tspan font-style="normal" class="text-inner-tspan" font-weight="normal"> +vtrace</tspan></tspan><tspan class="text-outer-tspan row" x="0" y="2.1em" dy="1.1em"><tspan font-style="normal" class="text-inner-tspan" font-weight="normal">for</tspan><tspan font-style="normal" class="text-inner-tspan" font-weight="normal"> chain</tspan><tspan font-style="normal" class="text-inner-tspan" font-weight="normal"> detail.</tspan></tspan></text></g></g></g><g class="node default" id="gd64d76f1-45ac-4fb5-b168-d31c7504a9df-light-flowchart-Code-5" data-look="classic" transform="translate(726.1484375, 764.8796920776367)"><polygon points="88.2890625,0 176.578125,-88.2890625 88.2890625,-176.578125 0,-88.2890625" class="label-container" transform="translate(-87.7890625, 88.2890625)"></polygon><g class="label" style="" transform="translate(0, -9.5)"><rect></rect><g><rect class="background" style="stroke: none"></rect><text y="-10.1" style=""><tspan class="text-outer-tspan row" x="0" y="-0.1em" dy="1.1em"><tspan font-style="normal" class="text-inner-tspan" font-weight="normal">INFO-CODE</tspan><tspan font-style="normal" class="text-inner-tspan" font-weight="normal"> value?</tspan></tspan></text></g></g></g><g class="node default" id="gd64d76f1-45ac-4fb5-b168-d31c7504a9df-light-flowchart-E7-6" data-look="classic" transform="translate(134.8359375, 977.0687561035156)"><rect class="basic label-container" style="" x="-126.8359375" y="-42.099998474121094" width="253.671875" height="84.19999694824219"></rect><g class="label" style="" transform="translate(0, -27.099998474121094)"><rect></rect><g><rect class="background" style="stroke: none"></rect><text y="-10.1" style=""><tspan class="text-outer-tspan row" x="0" y="-0.1em" dy="1.1em"><tspan font-style="normal" class="text-inner-tspan" font-weight="normal">EDE</tspan><tspan font-style="normal" class="text-inner-tspan" font-weight="normal"> 7</tspan><tspan font-style="normal" class="text-inner-tspan" font-weight="normal"> —</tspan><tspan font-style="normal" class="text-inner-tspan" font-weight="normal"> Signature</tspan><tspan font-style="normal" class="text-inner-tspan" font-weight="normal"> Expired.</tspan></tspan><tspan class="text-outer-tspan row" x="0" y="1em" dy="1.1em"><tspan font-style="normal" class="text-inner-tspan" font-weight="normal">Re-sign</tspan><tspan font-style="normal" class="text-inner-tspan" font-weight="normal"> zone;</tspan><tspan font-style="normal" class="text-inner-tspan" font-weight="normal"> check</tspan></tspan><tspan class="text-outer-tspan row" x="0" y="2.1em" dy="1.1em"><tspan font-style="normal" class="text-inner-tspan" font-weight="normal">auto-resigner</tspan><tspan font-style="normal" class="text-inner-tspan" font-weight="normal"> /</tspan><tspan font-style="normal" class="text-inner-tspan" font-weight="normal"> scheduler.</tspan></tspan></text></g></g></g><g class="node default" id="gd64d76f1-45ac-4fb5-b168-d31c7504a9df-light-flowchart-E8-7" data-look="classic" transform="translate(434.703125, 977.0687561035156)"><rect class="basic label-container" style="" x="-123.03125" y="-50.900001525878906" width="246.0625" height="101.80000305175781"></rect><g class="label" style="" transform="translate(0, -35.900001525878906)"><rect></rect><g><rect class="background" style="stroke: none"></rect><text y="-10.1" style=""><tspan class="text-outer-tspan row" x="0" y="-0.1em" dy="1.1em"><tspan font-style="normal" class="text-inner-tspan" font-weight="normal">EDE</tspan><tspan font-style="normal" class="text-inner-tspan" font-weight="normal"> 8</tspan><tspan font-style="normal" class="text-inner-tspan" font-weight="normal"> —</tspan><tspan font-style="normal" class="text-inner-tspan" font-weight="normal"> Signature</tspan><tspan font-style="normal" class="text-inner-tspan" font-weight="normal"> Not</tspan><tspan font-style="normal" class="text-inner-tspan" font-weight="normal"> Yet</tspan></tspan><tspan class="text-outer-tspan row" x="0" y="1em" dy="1.1em"><tspan font-style="normal" class="text-inner-tspan" font-weight="normal">Valid.</tspan></tspan><tspan class="text-outer-tspan row" x="0" y="2.1em" dy="1.1em"><tspan font-style="normal" class="text-inner-tspan" font-weight="normal">Check</tspan><tspan font-style="normal" class="text-inner-tspan" font-weight="normal"> inception</tspan><tspan font-style="normal" class="text-inner-tspan" font-weight="normal"> time,</tspan></tspan><tspan class="text-outer-tspan row" x="0" y="3.2em" dy="1.1em"><tspan font-style="normal" class="text-inner-tspan" font-weight="normal">signer</tspan><tspan font-style="normal" class="text-inner-tspan" font-weight="normal"> clock</tspan><tspan font-style="normal" class="text-inner-tspan" font-weight="normal"> skew.</tspan></tspan></text></g></g></g><g class="node default" id="gd64d76f1-45ac-4fb5-b168-d31c7504a9df-light-flowchart-E9-8" data-look="classic" transform="translate(726.1484375, 977.0687561035156)"><rect class="basic label-container" style="" x="-118.4140625" y="-42.099998474121094" width="236.828125" height="84.19999694824219"></rect><g class="label" style="" transform="translate(0, -27.099998474121094)"><rect></rect><g><rect class="background" style="stroke: none"></rect><text y="-10.1" style=""><tspan class="text-outer-tspan row" x="0" y="-0.1em" dy="1.1em"><tspan font-style="normal" class="text-inner-tspan" font-weight="normal">EDE</tspan><tspan font-style="normal" class="text-inner-tspan" font-weight="normal"> 9</tspan><tspan font-style="normal" class="text-inner-tspan" font-weight="normal"> —</tspan><tspan font-style="normal" class="text-inner-tspan" font-weight="normal"> DNSKEY</tspan><tspan font-style="normal" class="text-inner-tspan" font-weight="normal"> Missing.</tspan></tspan><tspan class="text-outer-tspan row" x="0" y="1em" dy="1.1em"><tspan font-style="normal" class="text-inner-tspan" font-weight="normal">DNSKEY</tspan><tspan font-style="normal" class="text-inner-tspan" font-weight="normal"> RRset</tspan><tspan font-style="normal" class="text-inner-tspan" font-weight="normal"> removed</tspan></tspan><tspan class="text-outer-tspan row" x="0" y="2.1em" dy="1.1em"><tspan font-style="normal" class="text-inner-tspan" font-weight="normal">before</tspan><tspan font-style="normal" class="text-inner-tspan" font-weight="normal"> RRSIGs</tspan><tspan font-style="normal" class="text-inner-tspan" font-weight="normal"> rotated.</tspan></tspan></text></g></g></g><g class="node default" id="gd64d76f1-45ac-4fb5-b168-d31c7504a9df-light-flowchart-E10-9" data-look="classic" transform="translate(1014.03125, 977.0687561035156)"><rect class="basic label-container" style="" x="-119.46875" y="-42.099998474121094" width="238.9375" height="84.19999694824219"></rect><g class="label" style="" transform="translate(0, -27.099998474121094)"><rect></rect><g><rect class="background" style="stroke: none"></rect><text y="-10.1" style=""><tspan class="text-outer-tspan row" x="0" y="-0.1em" dy="1.1em"><tspan font-style="normal" class="text-inner-tspan" font-weight="normal">EDE</tspan><tspan font-style="normal" class="text-inner-tspan" font-weight="normal"> 10</tspan><tspan font-style="normal" class="text-inner-tspan" font-weight="normal"> —</tspan><tspan font-style="normal" class="text-inner-tspan" font-weight="normal"> RRSIGs</tspan><tspan font-style="normal" class="text-inner-tspan" font-weight="normal"> Missing.</tspan></tspan><tspan class="text-outer-tspan row" x="0" y="1em" dy="1.1em"><tspan font-style="normal" class="text-inner-tspan" font-weight="normal">Zone</tspan><tspan font-style="normal" class="text-inner-tspan" font-weight="normal"> served</tspan><tspan font-style="normal" class="text-inner-tspan" font-weight="normal"> unsigned</tspan></tspan><tspan class="text-outer-tspan row" x="0" y="2.1em" dy="1.1em"><tspan font-style="normal" class="text-inner-tspan" font-weight="normal">or</tspan><tspan font-style="normal" class="text-inner-tspan" font-weight="normal"> partial</tspan><tspan font-style="normal" class="text-inner-tspan" font-weight="normal"> sign.</tspan></tspan></text></g></g></g><g class="node default" id="gd64d76f1-45ac-4fb5-b168-d31c7504a9df-light-flowchart-E6-10" data-look="classic" transform="translate(1296.859375, 977.0687561035156)"><rect class="basic label-container" style="" x="-113.359375" y="-42.099998474121094" width="226.71875" height="84.19999694824219"></rect><g class="label" style="" transform="translate(0, -27.099998474121094)"><rect></rect><g><rect class="background" style="stroke: none"></rect><text y="-10.1" style=""><tspan class="text-outer-tspan row" x="0" y="-0.1em" dy="1.1em"><tspan font-style="normal" class="text-inner-tspan" font-weight="normal">EDE</tspan><tspan font-style="normal" class="text-inner-tspan" font-weight="normal"> 6</tspan><tspan font-style="normal" class="text-inner-tspan" font-weight="normal"> —</tspan><tspan font-style="normal" class="text-inner-tspan" font-weight="normal"> DNSSEC</tspan><tspan font-style="normal" class="text-inner-tspan" font-weight="normal"> Bogus.</tspan></tspan><tspan class="text-outer-tspan row" x="0" y="1em" dy="1.1em"><tspan font-style="normal" class="text-inner-tspan" font-weight="normal">Compare</tspan><tspan font-style="normal" class="text-inner-tspan" font-weight="normal"> DS</tspan><tspan font-style="normal" class="text-inner-tspan" font-weight="normal"> at</tspan><tspan font-style="normal" class="text-inner-tspan" font-weight="normal"> parent</tspan></tspan><tspan class="text-outer-tspan row" x="0" y="2.1em" dy="1.1em"><tspan font-style="normal" class="text-inner-tspan" font-weight="normal">vs</tspan><tspan font-style="normal" class="text-inner-tspan" font-weight="normal"> DNSKEY</tspan><tspan font-style="normal" class="text-inner-tspan" font-weight="normal"> at</tspan><tspan font-style="normal" class="text-inner-tspan" font-weight="normal"> child.</tspan></tspan></text></g></g></g><g class="node default" id="gd64d76f1-45ac-4fb5-b168-d31c7504a9df-light-flowchart-DS-11" data-look="classic" transform="translate(1296.859375, 1188.2609405517578)"><polygon points="110.29218673706055,0 220.5843734741211,-110.29218673706055 110.29218673706055,-220.5843734741211 0,-110.29218673706055" class="label-container" transform="translate(-109.79218673706055, 110.29218673706055)"></polygon><g class="label" style="" transform="translate(0, -18.299999237060547)"><rect></rect><g><rect class="background" style="stroke: none"></rect><text y="-10.1" style=""><tspan class="text-outer-tspan row" x="0" y="-0.1em" dy="1.1em"><tspan font-style="normal" class="text-inner-tspan" font-weight="normal">DS</tspan><tspan font-style="normal" class="text-inner-tspan" font-weight="normal"> at</tspan><tspan font-style="normal" class="text-inner-tspan" font-weight="normal"> parent</tspan><tspan font-style="normal" class="text-inner-tspan" font-weight="normal"> matches</tspan></tspan><tspan class="text-outer-tspan row" x="0" y="1em" dy="1.1em"><tspan font-style="normal" class="text-inner-tspan" font-weight="normal">active</tspan><tspan font-style="normal" class="text-inner-tspan" font-weight="normal"> KSK</tspan><tspan font-style="normal" class="text-inner-tspan" font-weight="normal"> at</tspan><tspan font-style="normal" class="text-inner-tspan" font-weight="normal"> child?</tspan></tspan></text></g></g></g><g class="node default" id="gd64d76f1-45ac-4fb5-b168-d31c7504a9df-light-flowchart-FixDS-12" data-look="classic" transform="translate(1274.75390625, 1404.8531227111816)"><rect class="basic label-container" style="" x="-127.7578125" y="-33.29999923706055" width="255.515625" height="66.5999984741211"></rect><g class="label" style="" transform="translate(0, -18.299999237060547)"><rect></rect><g><rect class="background" style="stroke: none"></rect><text y="-10.1" style=""><tspan class="text-outer-tspan row" x="0" y="-0.1em" dy="1.1em"><tspan font-style="normal" class="text-inner-tspan" font-weight="normal">Update</tspan><tspan font-style="normal" class="text-inner-tspan" font-weight="normal"> DS</tspan><tspan font-style="normal" class="text-inner-tspan" font-weight="normal"> at</tspan><tspan font-style="normal" class="text-inner-tspan" font-weight="normal"> registrar.</tspan></tspan><tspan class="text-outer-tspan row" x="0" y="1em" dy="1.1em"><tspan font-style="normal" class="text-inner-tspan" font-weight="normal">RFC</tspan><tspan font-style="normal" class="text-inner-tspan" font-weight="normal"> 6781</tspan><tspan font-style="normal" class="text-inner-tspan" font-weight="normal"> §4.1</tspan><tspan font-style="normal" class="text-inner-tspan" font-weight="normal"> KSK</tspan><tspan font-style="normal" class="text-inner-tspan" font-weight="normal"> rollover.</tspan></tspan></text></g></g></g><g class="node default" id="gd64d76f1-45ac-4fb5-b168-d31c7504a9df-light-flowchart-Probe-13" data-look="classic" transform="translate(1567.3257789611816, 1404.8531227111816)"><rect class="basic label-container" style="" x="-113.0078125" y="-33.29999923706055" width="226.015625" height="66.5999984741211"></rect><g class="label" style="" transform="translate(0, -18.299999237060547)"><rect></rect><g><rect class="background" style="stroke: none"></rect><text y="-10.1" style=""><tspan class="text-outer-tspan row" x="0" y="-0.1em" dy="1.1em"><tspan font-style="normal" class="text-inner-tspan" font-weight="normal">Run</tspan><tspan font-style="normal" class="text-inner-tspan" font-weight="normal"> dnsviz</tspan><tspan font-style="normal" class="text-inner-tspan" font-weight="normal"> probe</tspan></tspan><tspan class="text-outer-tspan row" x="0" y="1em" dy="1.1em"><tspan font-style="normal" class="text-inner-tspan" font-weight="normal">to</tspan><tspan font-style="normal" class="text-inner-tspan" font-weight="normal"> localize</tspan><tspan font-style="normal" class="text-inner-tspan" font-weight="normal"> broken</tspan><tspan font-style="normal" class="text-inner-tspan" font-weight="normal"> hop.</tspan></tspan></text></g></g></g></g></g></g><defs><filter id="gd64d76f1-45ac-4fb5-b168-d31c7504a9df-light-drop-shadow" height="130%" width="130%"><feDropShadow dx="4" dy="4" stdDeviation="0" flood-opacity="0.06" flood-color="#000000"></feDropShadow></filter></defs><defs><filter id="gd64d76f1-45ac-4fb5-b168-d31c7504a9df-light-drop-shadow-small" height="150%" width="150%"><feDropShadow dx="2" dy="2" stdDeviation="0" flood-opacity="0.06" flood-color="#000000"></feDropShadow></filter></defs></svg>