<svg id="gbb4601e8-7838-420b-b6b8-4387bc280f61-dark" width="100%" xmlns="http://www.w3.org/2000/svg" xmlns:xlink="http://www.w3.org/1999/xlink" class="flowchart" style="max-width: 995.1515502929688px;" viewBox="0 0 995.1515502929688 1623.5687255859375" role="graphics-document document" aria-roledescription="flowchart-v2"><style>#gbb4601e8-7838-420b-b6b8-4387bc280f61-dark{font-family:"trebuchet ms",verdana,arial,sans-serif;font-size:16px;fill:#e5e5e5;}@keyframes edge-animation-frame{from{stroke-dashoffset:0;}}@keyframes dash{to{stroke-dashoffset:0;}}#gbb4601e8-7838-420b-b6b8-4387bc280f61-dark .edge-animation-slow{stroke-dasharray:9,5!important;stroke-dashoffset:900;animation:dash 50s linear infinite;stroke-linecap:round;}#gbb4601e8-7838-420b-b6b8-4387bc280f61-dark .edge-animation-fast{stroke-dasharray:9,5!important;stroke-dashoffset:900;animation:dash 20s linear infinite;stroke-linecap:round;}#gbb4601e8-7838-420b-b6b8-4387bc280f61-dark .error-icon{fill:#252525;}#gbb4601e8-7838-420b-b6b8-4387bc280f61-dark .error-text{fill:#cccccc;stroke:#cccccc;}#gbb4601e8-7838-420b-b6b8-4387bc280f61-dark .edge-thickness-normal{stroke-width:1px;}#gbb4601e8-7838-420b-b6b8-4387bc280f61-dark .edge-thickness-thick{stroke-width:3.5px;}#gbb4601e8-7838-420b-b6b8-4387bc280f61-dark .edge-pattern-solid{stroke-dasharray:0;}#gbb4601e8-7838-420b-b6b8-4387bc280f61-dark .edge-thickness-invisible{stroke-width:0;fill:none;}#gbb4601e8-7838-420b-b6b8-4387bc280f61-dark .edge-pattern-dashed{stroke-dasharray:3;}#gbb4601e8-7838-420b-b6b8-4387bc280f61-dark .edge-pattern-dotted{stroke-dasharray:2;}#gbb4601e8-7838-420b-b6b8-4387bc280f61-dark .marker{fill:#cccccc;stroke:#cccccc;}#gbb4601e8-7838-420b-b6b8-4387bc280f61-dark .marker.cross{stroke:#cccccc;}#gbb4601e8-7838-420b-b6b8-4387bc280f61-dark svg{font-family:"trebuchet ms",verdana,arial,sans-serif;font-size:16px;}#gbb4601e8-7838-420b-b6b8-4387bc280f61-dark p{margin:0;}#gbb4601e8-7838-420b-b6b8-4387bc280f61-dark .label{font-family:"trebuchet ms",verdana,arial,sans-serif;color:#e5e5e5;}#gbb4601e8-7838-420b-b6b8-4387bc280f61-dark .cluster-label text{fill:#e5e5e5;}#gbb4601e8-7838-420b-b6b8-4387bc280f61-dark .cluster-label span{color:#e5e5e5;}#gbb4601e8-7838-420b-b6b8-4387bc280f61-dark .cluster-label span p{background-color:transparent;}#gbb4601e8-7838-420b-b6b8-4387bc280f61-dark .label text,#gbb4601e8-7838-420b-b6b8-4387bc280f61-dark span{fill:#e5e5e5;color:#e5e5e5;}#gbb4601e8-7838-420b-b6b8-4387bc280f61-dark .node rect,#gbb4601e8-7838-420b-b6b8-4387bc280f61-dark .node circle,#gbb4601e8-7838-420b-b6b8-4387bc280f61-dark .node ellipse,#gbb4601e8-7838-420b-b6b8-4387bc280f61-dark .node polygon,#gbb4601e8-7838-420b-b6b8-4387bc280f61-dark .node path{fill:#2d2d2d;stroke:#555555;stroke-width:1px;}#gbb4601e8-7838-420b-b6b8-4387bc280f61-dark .rough-node .label text,#gbb4601e8-7838-420b-b6b8-4387bc280f61-dark .node .label text,#gbb4601e8-7838-420b-b6b8-4387bc280f61-dark .image-shape .label,#gbb4601e8-7838-420b-b6b8-4387bc280f61-dark .icon-shape .label{text-anchor:middle;}#gbb4601e8-7838-420b-b6b8-4387bc280f61-dark .node .katex path{fill:#000;stroke:#000;stroke-width:1px;}#gbb4601e8-7838-420b-b6b8-4387bc280f61-dark .rough-node .label,#gbb4601e8-7838-420b-b6b8-4387bc280f61-dark .node .label,#gbb4601e8-7838-420b-b6b8-4387bc280f61-dark .image-shape .label,#gbb4601e8-7838-420b-b6b8-4387bc280f61-dark .icon-shape .label{text-align:center;}#gbb4601e8-7838-420b-b6b8-4387bc280f61-dark .node.clickable{cursor:pointer;}#gbb4601e8-7838-420b-b6b8-4387bc280f61-dark .root .anchor path{fill:#cccccc!important;stroke-width:0;stroke:#cccccc;}#gbb4601e8-7838-420b-b6b8-4387bc280f61-dark .arrowheadPath{fill:#cccccc;}#gbb4601e8-7838-420b-b6b8-4387bc280f61-dark .edgePath .path{stroke:#cccccc;stroke-width:1px;}#gbb4601e8-7838-420b-b6b8-4387bc280f61-dark .flowchart-link{stroke:#cccccc;fill:none;}#gbb4601e8-7838-420b-b6b8-4387bc280f61-dark .edgeLabel{background-color:#1e1e1e;text-align:center;}#gbb4601e8-7838-420b-b6b8-4387bc280f61-dark .edgeLabel p{background-color:#1e1e1e;}#gbb4601e8-7838-420b-b6b8-4387bc280f61-dark .edgeLabel rect{opacity:0.5;background-color:#1e1e1e;fill:#1e1e1e;}#gbb4601e8-7838-420b-b6b8-4387bc280f61-dark .labelBkg{background-color:rgba(30, 30, 30, 0.5);}#gbb4601e8-7838-420b-b6b8-4387bc280f61-dark .cluster rect{fill:#1e1e1e;stroke:#555555;stroke-width:1px;}#gbb4601e8-7838-420b-b6b8-4387bc280f61-dark .cluster text{fill:#e5e5e5;}#gbb4601e8-7838-420b-b6b8-4387bc280f61-dark .cluster span{color:#e5e5e5;}#gbb4601e8-7838-420b-b6b8-4387bc280f61-dark div.mermaidTooltip{position:absolute;text-align:center;max-width:200px;padding:2px;font-family:"trebuchet ms",verdana,arial,sans-serif;font-size:12px;background:#252525;border:1px solid #555555;border-radius:2px;pointer-events:none;z-index:100;}#gbb4601e8-7838-420b-b6b8-4387bc280f61-dark .flowchartTitleText{text-anchor:middle;font-size:18px;fill:#e5e5e5;}#gbb4601e8-7838-420b-b6b8-4387bc280f61-dark rect.text{fill:none;stroke-width:0;}#gbb4601e8-7838-420b-b6b8-4387bc280f61-dark .icon-shape,#gbb4601e8-7838-420b-b6b8-4387bc280f61-dark .image-shape{background-color:#1e1e1e;text-align:center;}#gbb4601e8-7838-420b-b6b8-4387bc280f61-dark .icon-shape p,#gbb4601e8-7838-420b-b6b8-4387bc280f61-dark .image-shape p{background-color:#1e1e1e;padding:2px;}#gbb4601e8-7838-420b-b6b8-4387bc280f61-dark .icon-shape .label rect,#gbb4601e8-7838-420b-b6b8-4387bc280f61-dark .image-shape .label rect{opacity:0.5;background-color:#1e1e1e;fill:#1e1e1e;}#gbb4601e8-7838-420b-b6b8-4387bc280f61-dark .label-icon{display:inline-block;height:1em;overflow:visible;vertical-align:-0.125em;}#gbb4601e8-7838-420b-b6b8-4387bc280f61-dark .node .label-icon path{fill:currentColor;stroke:revert;stroke-width:revert;}#gbb4601e8-7838-420b-b6b8-4387bc280f61-dark .node .neo-node{stroke:#555555;}#gbb4601e8-7838-420b-b6b8-4387bc280f61-dark [data-look="neo"].node rect,#gbb4601e8-7838-420b-b6b8-4387bc280f61-dark [data-look="neo"].cluster rect,#gbb4601e8-7838-420b-b6b8-4387bc280f61-dark [data-look="neo"].node polygon{stroke:url(#gbb4601e8-7838-420b-b6b8-4387bc280f61-dark-gradient);filter:drop-shadow( 1px 2px 2px rgba(185,185,185,1));}#gbb4601e8-7838-420b-b6b8-4387bc280f61-dark [data-look="neo"].node path{stroke:url(#gbb4601e8-7838-420b-b6b8-4387bc280f61-dark-gradient);stroke-width:1px;}#gbb4601e8-7838-420b-b6b8-4387bc280f61-dark [data-look="neo"].node .outer-path{filter:drop-shadow( 1px 2px 2px rgba(185,185,185,1));}#gbb4601e8-7838-420b-b6b8-4387bc280f61-dark [data-look="neo"].node .neo-line path{stroke:#555555;filter:none;}#gbb4601e8-7838-420b-b6b8-4387bc280f61-dark [data-look="neo"].node circle{stroke:url(#gbb4601e8-7838-420b-b6b8-4387bc280f61-dark-gradient);filter:drop-shadow( 1px 2px 2px rgba(185,185,185,1));}#gbb4601e8-7838-420b-b6b8-4387bc280f61-dark [data-look="neo"].node circle .state-start{fill:#000000;}#gbb4601e8-7838-420b-b6b8-4387bc280f61-dark [data-look="neo"].icon-shape .icon{fill:url(#gbb4601e8-7838-420b-b6b8-4387bc280f61-dark-gradient);filter:drop-shadow( 1px 2px 2px rgba(185,185,185,1));}#gbb4601e8-7838-420b-b6b8-4387bc280f61-dark [data-look="neo"].icon-shape .icon-neo path{stroke:url(#gbb4601e8-7838-420b-b6b8-4387bc280f61-dark-gradient);filter:drop-shadow( 1px 2px 2px rgba(185,185,185,1));}#gbb4601e8-7838-420b-b6b8-4387bc280f61-dark :root{--mermaid-font-family:"trebuchet ms",verdana,arial,sans-serif;}#gbb4601e8-7838-420b-b6b8-4387bc280f61-dark .pick rect{fill:#0d47a1!important;stroke:#0d47a1!important;color:#ffffff!important;}#gbb4601e8-7838-420b-b6b8-4387bc280f61-dark .pick polygon{fill:#0d47a1!important;stroke:#0d47a1!important;color:#ffffff!important;}#gbb4601e8-7838-420b-b6b8-4387bc280f61-dark .pick ellipse{fill:#0d47a1!important;stroke:#0d47a1!important;color:#ffffff!important;}#gbb4601e8-7838-420b-b6b8-4387bc280f61-dark .pick circle{fill:#0d47a1!important;stroke:#0d47a1!important;color:#ffffff!important;}#gbb4601e8-7838-420b-b6b8-4387bc280f61-dark .pick path{fill:#0d47a1!important;stroke:#0d47a1!important;color:#ffffff!important;}#gbb4601e8-7838-420b-b6b8-4387bc280f61-dark .pick tspan{fill:#ffffff!important;}</style><g><marker id="gbb4601e8-7838-420b-b6b8-4387bc280f61-dark_flowchart-v2-pointEnd" class="marker flowchart-v2" viewBox="0 0 10 10" refX="5" refY="5" markerUnits="userSpaceOnUse" markerWidth="8" markerHeight="8" orient="auto"><path d="M 0 0 L 10 5 L 0 10 z" class="arrowMarkerPath" style="stroke-width: 1; stroke-dasharray: 1, 0;"></path></marker><marker id="gbb4601e8-7838-420b-b6b8-4387bc280f61-dark_flowchart-v2-pointStart" class="marker flowchart-v2" viewBox="0 0 10 10" refX="4.5" refY="5" markerUnits="userSpaceOnUse" markerWidth="8" markerHeight="8" orient="auto"><path d="M 0 5 L 10 10 L 10 0 z" class="arrowMarkerPath" style="stroke-width: 1; stroke-dasharray: 1, 0;"></path></marker><marker id="gbb4601e8-7838-420b-b6b8-4387bc280f61-dark_flowchart-v2-pointEnd-margin" class="marker flowchart-v2" viewBox="0 0 11.5 14" refX="11.5" refY="7" markerUnits="userSpaceOnUse" markerWidth="10.5" markerHeight="14" orient="auto"><path d="M 0 0 L 11.5 7 L 0 14 z" class="arrowMarkerPath" style="stroke-width: 0; stroke-dasharray: 1, 0;"></path></marker><marker id="gbb4601e8-7838-420b-b6b8-4387bc280f61-dark_flowchart-v2-pointStart-margin" class="marker flowchart-v2" viewBox="0 0 11.5 14" refX="1" refY="7" markerUnits="userSpaceOnUse" markerWidth="11.5" markerHeight="14" orient="auto"><polygon points="0,7 11.5,14 11.5,0" class="arrowMarkerPath" style="stroke-width: 0; stroke-dasharray: 1, 0;"></polygon></marker><marker id="gbb4601e8-7838-420b-b6b8-4387bc280f61-dark_flowchart-v2-circleEnd" class="marker flowchart-v2" viewBox="0 0 10 10" refX="11" refY="5" markerUnits="userSpaceOnUse" markerWidth="11" markerHeight="11" orient="auto"><circle cx="5" cy="5" r="5" class="arrowMarkerPath" style="stroke-width: 1; stroke-dasharray: 1, 0;"></circle></marker><marker id="gbb4601e8-7838-420b-b6b8-4387bc280f61-dark_flowchart-v2-circleStart" class="marker flowchart-v2" viewBox="0 0 10 10" refX="-1" refY="5" markerUnits="userSpaceOnUse" markerWidth="11" markerHeight="11" orient="auto"><circle cx="5" cy="5" r="5" class="arrowMarkerPath" style="stroke-width: 1; stroke-dasharray: 1, 0;"></circle></marker><marker id="gbb4601e8-7838-420b-b6b8-4387bc280f61-dark_flowchart-v2-circleEnd-margin" class="marker flowchart-v2" viewBox="0 0 10 10" refY="5" refX="12.25" markerUnits="userSpaceOnUse" markerWidth="14" markerHeight="14" orient="auto"><circle cx="5" cy="5" r="5" class="arrowMarkerPath" style="stroke-width: 0; stroke-dasharray: 1, 0;"></circle></marker><marker id="gbb4601e8-7838-420b-b6b8-4387bc280f61-dark_flowchart-v2-circleStart-margin" class="marker flowchart-v2" viewBox="0 0 10 10" refX="-2" refY="5" markerUnits="userSpaceOnUse" markerWidth="14" markerHeight="14" orient="auto"><circle cx="5" cy="5" r="5" class="arrowMarkerPath" style="stroke-width: 0; stroke-dasharray: 1, 0;"></circle></marker><marker id="gbb4601e8-7838-420b-b6b8-4387bc280f61-dark_flowchart-v2-crossEnd" class="marker cross flowchart-v2" viewBox="0 0 11 11" refX="12" refY="5.2" markerUnits="userSpaceOnUse" markerWidth="11" markerHeight="11" orient="auto"><path d="M 1,1 l 9,9 M 10,1 l -9,9" class="arrowMarkerPath" style="stroke-width: 2; stroke-dasharray: 1, 0;"></path></marker><marker id="gbb4601e8-7838-420b-b6b8-4387bc280f61-dark_flowchart-v2-crossStart" class="marker cross flowchart-v2" viewBox="0 0 11 11" refX="-1" refY="5.2" markerUnits="userSpaceOnUse" markerWidth="11" markerHeight="11" orient="auto"><path d="M 1,1 l 9,9 M 10,1 l -9,9" class="arrowMarkerPath" style="stroke-width: 2; stroke-dasharray: 1, 0;"></path></marker><marker id="gbb4601e8-7838-420b-b6b8-4387bc280f61-dark_flowchart-v2-crossEnd-margin" class="marker cross flowchart-v2" viewBox="0 0 15 15" refX="17.7" refY="7.5" markerUnits="userSpaceOnUse" markerWidth="12" markerHeight="12" orient="auto"><path d="M 1,1 L 14,14 M 1,14 L 14,1" class="arrowMarkerPath" style="stroke-width: 2.5;"></path></marker><marker id="gbb4601e8-7838-420b-b6b8-4387bc280f61-dark_flowchart-v2-crossStart-margin" class="marker cross flowchart-v2" viewBox="0 0 15 15" refX="-3.5" refY="7.5" markerUnits="userSpaceOnUse" markerWidth="12" markerHeight="12" orient="auto"><path d="M 1,1 L 14,14 M 1,14 L 14,1" class="arrowMarkerPath" style="stroke-width: 2.5; stroke-dasharray: 1, 0;"></path></marker><g class="root"><g class="clusters"></g><g class="edgePaths"><path d="M271.757,60.1L271.674,64.183C271.59,68.267,271.424,76.433,271.34,84.017C271.257,91.6,271.257,98.6,271.257,102.1L271.257,105.6" id="gbb4601e8-7838-420b-b6b8-4387bc280f61-dark-L_Start_Q1_0" class="edge-thickness-normal edge-pattern-solid edge-thickness-normal edge-pattern-solid flowchart-link" style=";" data-edge="true" data-et="edge" data-id="L_Start_Q1_0" data-points="W3sieCI6MjcxLjc1NzAzMDQ4NzA2MDU1LCJ5Ijo2MC4wOTk5OTg0NzQxMjEwN30seyJ4IjoyNzEuMjU3MDMwNDg3MDYwNTUsInkiOjg0LjU5OTk5ODQ3NDEyMTF9LHsieCI6MjcxLjI1NzAzMDQ4NzA2MDU1LCJ5IjoxMDkuNTk5OTk4NDc0MTIxMDV9XQ==" data-look="classic" marker-end="url(#gbb4601e8-7838-420b-b6b8-4387bc280f61-dark_flowchart-v2-pointEnd)"></path><path d="M208.723,326.694L195.367,343.2C182.011,359.705,155.298,392.717,141.942,425.282C128.586,457.847,128.586,489.966,128.586,506.025L128.586,522.084" id="gbb4601e8-7838-420b-b6b8-4387bc280f61-dark-L_Q1_Rtree_0" class="edge-thickness-normal edge-pattern-solid edge-thickness-normal edge-pattern-solid flowchart-link" style=";" data-edge="true" data-et="edge" data-id="L_Q1_Rtree_0" data-points="W3sieCI6MjA4LjcyMzAwNDk5MjgxNzQsInkiOjMyNi42OTQxMTYyOTA0MjQ4fSx7IngiOjEyOC41ODU5Mzc1LCJ5Ijo0MjUuNzI4MTQxNzg0NjY3OTd9LHsieCI6MTI4LjU4NTkzNzUsInkiOjUyNi4wODQzODg3MzI5MTAyfV0=" data-look="classic" marker-end="url(#gbb4601e8-7838-420b-b6b8-4387bc280f61-dark_flowchart-v2-pointEnd)"></path><path d="M333.791,326.694L347.147,343.2C360.503,359.705,387.216,392.717,400.572,414.639C413.928,436.561,413.928,447.395,413.928,452.811L413.928,458.228" id="gbb4601e8-7838-420b-b6b8-4387bc280f61-dark-L_Q1_Q2_0" class="edge-thickness-normal edge-pattern-solid edge-thickness-normal edge-pattern-solid flowchart-link" style=";" data-edge="true" data-et="edge" data-id="L_Q1_Q2_0" data-points="W3sieCI6MzMzLjc5MTA1NTk4MTMwMzY2LCJ5IjozMjYuNjk0MTE2MjkwNDI0OH0seyJ4Ijo0MTMuOTI4MTIzNDc0MTIxMSwieSI6NDI1LjcyODE0MTc4NDY2Nzk3fSx7IngiOjQxMy45MjgxMjM0NzQxMjEwNCwieSI6NDYyLjIyODE0MTc4NDY2Nzl9XQ==" data-look="classic" marker-end="url(#gbb4601e8-7838-420b-b6b8-4387bc280f61-dark_flowchart-v2-pointEnd)"></path><path d="M357.099,634.911L341.839,650.466C326.579,666.021,296.058,697.131,280.798,731.836C265.538,766.542,265.538,804.843,265.538,823.993L265.538,843.144" id="gbb4601e8-7838-420b-b6b8-4387bc280f61-dark-L_Q2_Quad_0" class="edge-thickness-normal edge-pattern-solid edge-thickness-normal edge-pattern-solid flowchart-link" style=";" data-edge="true" data-et="edge" data-id="L_Q2_Quad_0" data-points="W3sieCI6MzU3LjA5ODg3NTkwODExNzI0LCJ5Ijo2MzQuOTExMzkxMTY2OTA2NH0seyJ4IjoyNjUuNTM4Mjc2NjcyMzYzMywieSI6NzI4LjI0MDYzODczMjkxMDJ9LHsieCI6MjY1LjUzODI3NjY3MjM2MzMsInkiOjg0Ny4xNDM3NjgzMTA1NDY5fV0=" data-look="classic" marker-end="url(#gbb4601e8-7838-420b-b6b8-4387bc280f61-dark_flowchart-v2-pointEnd)"></path><path d="M470.757,634.911L486.017,650.466C501.278,666.021,531.798,697.131,547.058,718.102C562.318,739.074,562.318,749.907,562.318,755.324L562.318,760.741" id="gbb4601e8-7838-420b-b6b8-4387bc280f61-dark-L_Q2_Q3_0" class="edge-thickness-normal edge-pattern-solid edge-thickness-normal edge-pattern-solid flowchart-link" style=";" data-edge="true" data-et="edge" data-id="L_Q2_Q3_0" data-points="W3sieCI6NDcwLjc1NzM3MTA0MDEyNDg0LCJ5Ijo2MzQuOTExMzkxMTY2OTA2NH0seyJ4Ijo1NjIuMzE3OTcwMjc1ODc4OSwieSI6NzI4LjI0MDYzODczMjkxMDJ9LHsieCI6NTYyLjMxNzk3MDI3NTg3ODksInkiOjc2NC43NDA2Mzg3MzI5MDk3fV0=" data-look="classic" marker-end="url(#gbb4601e8-7838-420b-b6b8-4387bc280f61-dark_flowchart-v2-pointEnd)"></path><path d="M480.05,949.079L448.141,968.873C416.232,988.668,352.413,1028.257,320.504,1057.349C288.595,1086.441,288.595,1105.034,288.595,1114.331L288.595,1123.628" id="gbb4601e8-7838-420b-b6b8-4387bc280f61-dark-L_Q3_Q3a_0" class="edge-thickness-normal edge-pattern-solid edge-thickness-normal edge-pattern-solid flowchart-link" style=";" data-edge="true" data-et="edge" data-id="L_Q3_Q3a_0" data-points="W3sieCI6NDgwLjA0OTcyNzU0MzQzNzI2LCJ5Ijo5NDkuMDc4NjU4MjA3NDk5OH0seyJ4IjoyODguNTk1MzE0MDI1ODc4OSwieSI6MTA2Ny44NDY5MDA5Mzk5NDE0fSx7IngiOjI4OC41OTUzMTQwMjU4Nzg5LCJ5IjoxMTI3LjYyODE0MzMxMDU0Njl9XQ==" data-look="classic" marker-end="url(#gbb4601e8-7838-420b-b6b8-4387bc280f61-dark_flowchart-v2-pointEnd)"></path><path d="M275.142,1368.834L273.7,1381.04C272.258,1393.246,269.374,1417.657,267.932,1436.746C266.49,1455.835,266.49,1469.602,266.49,1476.485L266.49,1483.369" id="gbb4601e8-7838-420b-b6b8-4387bc280f61-dark-L_Q3a_Geohash_0" class="edge-thickness-normal edge-pattern-solid edge-thickness-normal edge-pattern-solid flowchart-link" style=";" data-edge="true" data-et="edge" data-id="L_Q3a_Geohash_0" data-points="W3sieCI6Mjc1LjE0MTg2MzYyODQwNDk2LCJ5IjoxMzY4LjgzNDA3MDk2NDgzMDV9LHsieCI6MjY2LjQ4OTg0NTI3NTg3ODksInkiOjE0NDIuMDY4NzYzNzMyOTEwMn0seyJ4IjoyNjYuNDg5ODQ1Mjc1ODc4OSwieSI6MTQ4Ny4zNjg3NjI5Njk5NzA3fV0=" data-look="classic" marker-end="url(#gbb4601e8-7838-420b-b6b8-4387bc280f61-dark_flowchart-v2-pointEnd)"></path><path d="M343.714,1327.169L358.331,1346.319C372.948,1365.469,402.182,1403.769,423.289,1428.565C444.397,1453.36,457.379,1464.652,463.87,1470.298L470.36,1475.944" id="gbb4601e8-7838-420b-b6b8-4387bc280f61-dark-L_Q3a_S2_0" class="edge-thickness-normal edge-pattern-solid edge-thickness-normal edge-pattern-solid flowchart-link" style=";" data-edge="true" data-et="edge" data-id="L_Q3a_S2_0" data-points="W3sieCI6MzQzLjcxMzY2NDYzMjYxNzgsInkiOjEzMjcuMTY5MTcwNzU1NTY1OH0seyJ4Ijo0MzEuNDE1NjI2NTI1ODc4OSwieSI6MTQ0Mi4wNjg3NjM3MzI5MTAyfSx7IngiOjQ3My4zNzg0MDU1NDM3MzYwNSwieSI6MTQ3OC41Njg3NjM3MzI5MTAyfV0=" data-look="classic" marker-end="url(#gbb4601e8-7838-420b-b6b8-4387bc280f61-dark_flowchart-v2-pointEnd)"></path><path d="M644.586,949.079L676.495,968.873C708.404,988.668,772.222,1028.257,804.132,1053.469C836.041,1078.68,836.041,1089.514,836.041,1094.93L836.041,1100.347" id="gbb4601e8-7838-420b-b6b8-4387bc280f61-dark-L_Q3_Q4_0" class="edge-thickness-normal edge-pattern-solid edge-thickness-normal edge-pattern-solid flowchart-link" style=";" data-edge="true" data-et="edge" data-id="L_Q3_Q4_0" data-points="W3sieCI6NjQ0LjU4NjIxMzAwODMyMDMsInkiOjk0OS4wNzg2NTgyMDc0OTk4fSx7IngiOjgzNi4wNDA2MjY1MjU4Nzg5LCJ5IjoxMDY3Ljg0NjkwMDkzOTk0MTR9LHsieCI6ODM2LjA0MDYyNjUyNTg3ODksInkiOjExMDQuMzQ2OTAwOTM5OTQxNH1d" data-look="classic" marker-end="url(#gbb4601e8-7838-420b-b6b8-4387bc280f61-dark_flowchart-v2-pointEnd)"></path><path d="M851.954,1389.655L852.986,1398.391C854.018,1407.127,856.082,1424.598,857.114,1441.683C858.146,1458.769,858.146,1475.469,858.146,1483.819L858.146,1492.169" id="gbb4601e8-7838-420b-b6b8-4387bc280f61-dark-L_Q4_H3_0" class="edge-thickness-normal edge-pattern-solid edge-thickness-normal edge-pattern-solid flowchart-link" style=";" data-edge="true" data-et="edge" data-id="L_Q4_H3_0" data-points="W3sieCI6ODUxLjk1MzkzNTU5Mjc3MDEsInkiOjEzODkuNjU1NDU0NjY2MDE5fSx7IngiOjg1OC4xNDYwOTUyNzU4Nzg5LCJ5IjoxNDQyLjA2ODc2MzczMjkxMDJ9LHsieCI6ODU4LjE0NjA5NTI3NTg3ODksInkiOjE0OTYuMTY4NzYyMjA3MDMxMn1d" data-look="classic" marker-end="url(#gbb4601e8-7838-420b-b6b8-4387bc280f61-dark_flowchart-v2-pointEnd)"></path><path d="M768.286,1337.814L754.077,1355.19C739.868,1372.566,711.451,1407.317,690.178,1430.359C668.905,1453.401,654.777,1464.734,647.713,1470.4L640.649,1476.066" id="gbb4601e8-7838-420b-b6b8-4387bc280f61-dark-L_Q4_S2_0" class="edge-thickness-normal edge-pattern-solid edge-thickness-normal edge-pattern-solid flowchart-link" style=";" data-edge="true" data-et="edge" data-id="L_Q4_S2_0" data-points="W3sieCI6NzY4LjI4NTkwOTc4MzI1NDIsInkiOjEzMzcuODE0MDQ2OTkwMjg1M30seyJ4Ijo2ODMuMDMyODE0MDI1ODc4OSwieSI6MTQ0Mi4wNjg3NjM3MzI5MTAyfSx7IngiOjYzNy41Mjg2NjU5NjA0MDI3LCJ5IjoxNDc4LjU2ODc2MzczMjkxMDJ9XQ==" data-look="classic" marker-end="url(#gbb4601e8-7838-420b-b6b8-4387bc280f61-dark_flowchart-v2-pointEnd)"></path></g><g class="edgeLabels"><g class="edgeLabel"><g class="label" data-id="L_Start_Q1_0" transform="translate(0, 0)"><text y="-10.1" text-anchor="middle"><tspan class="text-outer-tspan row" x="0" y="-0.1em" dy="1.1em" text-anchor="middle"></tspan></text></g></g><g><rect class="background" style="stroke: none"></rect></g><g class="edgeLabel" transform="translate(128.5859375, 425.72814178466797)"><g class="label" data-id="L_Q1_Rtree_0" transform="translate(0, -10.5)"><g><rect class="background" style="" x="-13.546875" y="-1" width="27.09375" height="23"></rect><text y="-10.1" text-anchor="middle" style=""><tspan class="text-outer-tspan row" x="0" y="-0.1em" dy="1.1em" text-anchor="middle"><tspan font-style="normal" class="text-inner-tspan" font-weight="normal">yes</tspan></tspan></text></g></g></g><g class="edgeLabel" transform="translate(413.9281234741211, 425.72814178466797)"><g class="label" data-id="L_Q1_Q2_0" transform="translate(0, -10.5)"><g><rect class="background" style="" x="-10.6640625" y="-1" width="21.328125" height="23"></rect><text y="-10.1" text-anchor="middle" style=""><tspan class="text-outer-tspan row" x="0" y="-0.1em" dy="1.1em" text-anchor="middle"><tspan font-style="normal" class="text-inner-tspan" font-weight="normal">no</tspan></tspan></text></g></g></g><g class="edgeLabel" transform="translate(265.5382766723633, 728.2406387329102)"><g class="label" data-id="L_Q2_Quad_0" transform="translate(0, -10.5)"><g><rect class="background" style="" x="-13.546875" y="-1" width="27.09375" height="23"></rect><text y="-10.1" text-anchor="middle" style=""><tspan class="text-outer-tspan row" x="0" y="-0.1em" dy="1.1em" text-anchor="middle"><tspan font-style="normal" class="text-inner-tspan" font-weight="normal">yes</tspan></tspan></text></g></g></g><g class="edgeLabel" transform="translate(562.3179702758789, 728.2406387329102)"><g class="label" data-id="L_Q2_Q3_0" transform="translate(0, -10.5)"><g><rect class="background" style="" x="-10.6640625" y="-1" width="21.328125" height="23"></rect><text y="-10.1" text-anchor="middle" style=""><tspan class="text-outer-tspan row" x="0" y="-0.1em" dy="1.1em" text-anchor="middle"><tspan font-style="normal" class="text-inner-tspan" font-weight="normal">no</tspan></tspan></text></g></g></g><g class="edgeLabel" transform="translate(288.5953140258789, 1067.8469009399414)"><g class="label" data-id="L_Q3_Q3a_0" transform="translate(0, -10.5)"><g><rect class="background" style="" x="-13.546875" y="-1" width="27.09375" height="23"></rect><text y="-10.1" text-anchor="middle" style=""><tspan class="text-outer-tspan row" x="0" y="-0.1em" dy="1.1em" text-anchor="middle"><tspan font-style="normal" class="text-inner-tspan" font-weight="normal">yes</tspan></tspan></text></g></g></g><g class="edgeLabel" transform="translate(266.4898452758789, 1442.0687637329102)"><g class="label" data-id="L_Q3a_Geohash_0" transform="translate(0, -10.5)"><g><rect class="background" style="" x="-13.546875" y="-1" width="27.09375" height="23"></rect><text y="-10.1" text-anchor="middle" style=""><tspan class="text-outer-tspan row" x="0" y="-0.1em" dy="1.1em" text-anchor="middle"><tspan font-style="normal" class="text-inner-tspan" font-weight="normal">yes</tspan></tspan></text></g></g></g><g class="edgeLabel" transform="translate(404.43685, 1406.72349)"><g class="label" data-id="L_Q3a_S2_0" transform="translate(0, -10.5)"><g><rect class="background" style="" x="-10.6640625" y="-1" width="21.328125" height="23"></rect><text y="-10.1" text-anchor="middle" style=""><tspan class="text-outer-tspan row" x="0" y="-0.1em" dy="1.1em" text-anchor="middle"><tspan font-style="normal" class="text-inner-tspan" font-weight="normal">no</tspan></tspan></text></g></g></g><g class="edgeLabel" transform="translate(836.0406265258789, 1067.8469009399414)"><g class="label" data-id="L_Q3_Q4_0" transform="translate(0, -10.5)"><g><rect class="background" style="" x="-10.6640625" y="-1" width="21.328125" height="23"></rect><text y="-10.1" text-anchor="middle" style=""><tspan class="text-outer-tspan row" x="0" y="-0.1em" dy="1.1em" text-anchor="middle"><tspan font-style="normal" class="text-inner-tspan" font-weight="normal">no</tspan></tspan></text></g></g></g><g class="edgeLabel" transform="translate(858.1460952758789, 1442.0687637329102)"><g class="label" data-id="L_Q4_H3_0" transform="translate(0, -10.5)"><g><rect class="background" style="" x="-13.546875" y="-1" width="27.09375" height="23"></rect><text y="-10.1" text-anchor="middle" style=""><tspan class="text-outer-tspan row" x="0" y="-0.1em" dy="1.1em" text-anchor="middle"><tspan font-style="normal" class="text-inner-tspan" font-weight="normal">yes</tspan></tspan></text></g></g></g><g class="edgeLabel" transform="translate(707.19565, 1412.5204)"><g class="label" data-id="L_Q4_S2_0" transform="translate(0, -10.5)"><g><rect class="background" style="" x="-10.6640625" y="-1" width="21.328125" height="23"></rect><text y="-10.1" text-anchor="middle" style=""><tspan class="text-outer-tspan row" x="0" y="-0.1em" dy="1.1em" text-anchor="middle"><tspan font-style="normal" class="text-inner-tspan" font-weight="normal">no</tspan></tspan></text></g></g></g></g><g class="nodes"><g class="node default" id="gbb4601e8-7838-420b-b6b8-4387bc280f61-dark-flowchart-Start-0" data-look="classic" transform="translate(271.25703048706055, 33.79999923706055)"><g class="basic label-container outer-path"><path d="M-65.16562557220459 -25.799999237060547 C-15.63831248771477 -25.799999237060547, 33.88900059677505 -25.799999237060547, 65.16562557220459 -25.799999237060547 C65.16562557220459 -25.799999237060547, 65.16562557220459 -25.799999237060547, 65.16562557220459 -25.799999237060547 C65.60892879325107 -25.78578336559896, 66.05223201429754 -25.771567494137376, 66.81863719882529 -25.746990371586765 C67.37403819134126 -25.69341150580617, 67.92943918385723 -25.639832640025578, 68.46485624610231 -25.58818159996402 C69.04584234274157 -25.494252273473858, 69.62682843938082 -25.400322946983692, 70.09751804685753 -25.32422550149928 C70.47165234836343 -25.23883178863504, 70.84578664986935 -25.1534380757708, 71.70991364354678 -24.956206728419545 C72.13077456880679 -24.831297414946455, 72.55163549406677 -24.70638810147337, 73.29541735680552 -24.48563754880318 C73.77397427551004 -24.30952417898825, 74.25253119421455 -24.133410809173323, 74.84751401178644 -23.914451632345997 C75.20420599155855 -23.756554673792525, 75.56089797133066 -23.59865771523905, 76.35982571041056 -23.24499610449772 C76.89342317052717 -22.96661865134037, 77.42702063064378 -22.688241198183018, 77.8261380395184 -22.480021901620034 C78.32049338777003 -22.180340784355405, 78.81484873602164 -21.880659667090775, 79.24042560722664 -21.62267246679901 C79.64132909572214 -21.34301954805685, 80.04223258421766 -21.063366629314697, 80.59687680255584 -20.67647083276321 C81.06760943988061 -20.30107408121827, 81.53834207720539 -19.925677329673327, 81.8899176765865 -19.64530514498651 C82.20698452505815 -19.35735342233367, 82.52405137352979 -19.06940169968083, 83.11423484701088 -18.533412684464313 C83.43010574308988 -18.207250050779876, 83.74597663916889 -17.881087417095443, 84.26479733196044 -17.345362455817106 C84.62644525385404 -16.920550228411166, 84.98809317574764 -16.495738001005225, 85.33687722338968 -16.086036412270357 C85.72395729048156 -15.567384386086777, 86.11103735757345 -15.048732359903196, 86.32606911506427 -14.76060939466161 C86.56700206647237 -14.39047168174252, 86.80793501788048 -14.02033396882343, 87.22830820532036 -13.374527866909407 C87.51350244611146 -12.86813661333641, 87.79869668690255 -12.361745359763416, 88.0398870002064 -11.93348753532484 C88.27621652124796 -11.442744228240356, 88.51254604228951 -10.952000921155872, 88.75747054837109 -10.443409943732584 C88.9929981496623 -9.861652214926895, 89.22852575095351 -9.279894486121206, 89.37811014509381 -8.910418140577123 C89.51174670967679 -8.507926100148255, 89.64538327425976 -8.105434059719387, 89.8992554491449 -7.340811518003323 C90.01735221671754 -6.890457359786007, 90.13544898429018 -6.44010320156869, 90.31876496268467 -5.741039926302914 C90.42314737631438 -5.2050582935452905, 90.5275297899441 -4.669076660787667, 90.63491483113748 -4.117677170096137 C90.69857518786425 -3.6239400144825704, 90.76223554459104 -3.1302028588690036, 90.84640592687991 -2.4773939951584394 C90.88115484479961 -1.9361515497373387, 90.91590376271932 -1.394909104316238, 90.95236918763487 -0.8269306768952902 C90.95236918763487 -0.268184241844013, 90.95236918763487 0.2905621932072642, 90.95236918763487 0.826930676895284 C90.92360297544785 1.2749876513766867, 90.89483676326083 1.7230446258580892, 90.84640592687991 2.4773939951584216 C90.79910281946403 2.844267555220951, 90.75179971204814 3.21114111528348, 90.63491483113748 4.117677170096119 C90.5543714677976 4.5312503180005645, 90.47382810445771 4.94482346590501, 90.31876496268467 5.741039926302909 C90.17874125092861 6.275011025889292, 90.03871753917257 6.8089821254756755, 89.8992554491449 7.340811518003306 C89.74330293381877 7.8105156465066905, 89.58735041849263 8.280219775010076, 89.37811014509383 8.910418140577105 C89.24983811269922 9.22725254056282, 89.12156608030462 9.544086940548535, 88.75747054837109 10.443409943732577 C88.52729569431153 10.921372953140153, 88.29712084025198 11.39933596254773, 88.0398870002064 11.933487535324835 C87.77026167515824 12.412234602472592, 87.50063635011009 12.890981669620352, 87.22830820532037 13.374527866909402 C86.97301199181692 13.766731407482858, 86.71771577831348 14.158934948056316, 86.32606911506429 14.760609394661596 C86.06171034617854 15.114826061389204, 85.7973515772928 15.469042728116811, 85.33687722338968 16.086036412270353 C85.11205847245961 16.350121309662136, 84.88723972152954 16.614206207053922, 84.26479733196045 17.345362455817092 C84.01852493416409 17.59965892588172, 83.77225253636773 17.853955395946347, 83.11423484701088 18.533412684464306 C82.82118471210606 18.79955306330318, 82.52813457720124 19.065693442142052, 81.88991767658653 19.64530514498649 C81.40101745504934 20.03519006148111, 80.91211723351216 20.425074977975726, 80.59687680255584 20.676470832763208 C80.2622943421704 20.909861073286816, 79.92771188178497 21.143251313810424, 79.24042560722665 21.622672466799003 C78.72393326921713 21.935773157346265, 78.2074409312076 22.24887384789353, 77.82613803951841 22.48002190162003 C77.3153400442278 22.74650488858141, 76.8045420489372 23.01298787554279, 76.35982571041058 23.244996104497716 C75.905298488137 23.446201822727232, 75.45077126586342 23.647407540956745, 74.84751401178644 23.914451632345994 C74.49877784722099 24.042789764587845, 74.15004168265556 24.171127896829695, 73.29541735680553 24.485637548803172 C72.69609075706869 24.66351453767555, 72.09676415733183 24.84139152654793, 71.70991364354681 24.95620672841954 C71.19513508129873 25.07370157600861, 70.68035651905065 25.191196423597678, 70.09751804685754 25.324225501499278 C69.59487676373911 25.4054886461125, 69.09223548062067 25.48675179072572, 68.46485624610233 25.588181599964017 C67.98951901386563 25.63403681108123, 67.51418178162892 25.679892022198445, 66.81863719882529 25.746990371586765 C66.41685436387402 25.759874765080806, 66.01507152892276 25.772759158574846, 65.16562557220459 25.799999237060547 C65.16562557220459 25.799999237060547, 65.16562557220459 25.799999237060547, 65.16562557220459 25.799999237060547 C29.349423562183148 25.799999237060547, -6.466778447838294 25.799999237060547, -65.16562557220459 25.799999237060547 C-65.59226622741531 25.786317701653598, -66.01890688262603 25.772636166246645, -66.81863719882527 25.746990371586765 C-67.32482533141398 25.69815901121623, -67.8310134640027 25.64932765084569, -68.46485624610231 25.588181599964017 C-68.99786795592539 25.502008400287366, -69.53087966574846 25.415835200610715, -70.09751804685753 25.324225501499278 C-70.51768150618025 25.228325933731675, -70.93784496550298 25.132426365964076, -71.70991364354678 24.956206728419545 C-72.06652966466251 24.85036496526809, -72.42314568577825 24.744523202116635, -73.2954173568055 24.485637548803183 C-73.77929286254758 24.307566889793954, -74.26316836828967 24.129496230784724, -74.84751401178644 23.914451632345997 C-75.16082550863369 23.775757926747055, -75.47413700548096 23.637064221148112, -76.35982571041056 23.244996104497723 C-76.88926810228033 22.968786347783304, -77.41871049415009 22.692576591068885, -77.8261380395184 22.480021901620038 C-78.16867986164209 22.272371036049467, -78.51122168376578 22.0647201704789, -79.24042560722663 21.622672466799017 C-79.66577002880642 21.3259706111682, -80.09111445038623 21.02926875553738, -80.59687680255584 20.67647083276321 C-81.11144458929297 20.266116716064236, -81.6260123760301 19.85576259936526, -81.8899176765865 19.645305144986512 C-82.21413835385381 19.350856504301383, -82.53835903112112 19.05640786361625, -83.11423484701086 18.533412684464324 C-83.56932416456675 18.063495600560028, -84.02441348212264 17.593578516655732, -84.26479733196044 17.3453624558171 C-84.69197605055828 16.843574025794396, -85.11915476915613 16.341785595771693, -85.33687722338968 16.08603641227036 C-85.73103184613615 15.557905126014925, -86.12518646888262 15.029773839759487, -86.32606911506427 14.760609394661614 C-86.66740473071569 14.236226227574432, -87.00874034636709 13.71184306048725, -87.22830820532036 13.374527866909418 C-87.39182303310841 13.084190732499957, -87.55533786089647 12.793853598090497, -88.03988700020639 11.933487535324842 C-88.26135788393906 11.4735985065362, -88.4828287676717 11.01370947774756, -88.75747054837109 10.443409943732586 C-88.96229636915764 9.937486206351933, -89.16712218994421 9.43156246897128, -89.37811014509381 8.910418140577127 C-89.5037635649922 8.531970059996848, -89.6294169848906 8.15352197941657, -89.8992554491449 7.340811518003316 C-90.05379192171522 6.751496971561848, -90.20832839428552 6.16218242512038, -90.31876496268467 5.741039926302918 C-90.41211801023034 5.261691757329482, -90.50547105777602 4.782343588356046, -90.63491483113748 4.117677170096139 C-90.69422812171022 3.6576550011478837, -90.75354141228298 3.197632832199628, -90.84640592687991 2.477393995158454 C-90.87551942293051 2.023927794179421, -90.9046329189811 1.5704615932003878, -90.95236918763487 0.8269306768952934 C-90.95236918763487 0.49292943219040164, -90.95236918763487 0.15892818748550985, -90.95236918763487 -0.8269306768952809 C-90.9207438321374 -1.319521116295855, -90.88911847663994 -1.8121115556964287, -90.84640592687991 -2.4773939951584185 C-90.76569223638876 -3.1033934398867906, -90.68497854589762 -3.729392884615163, -90.63491483113748 -4.117677170096128 C-90.53650766754842 -4.622977156764556, -90.43810050395936 -5.1282771434329835, -90.31876496268467 -5.741039926302906 C-90.22506394563152 -6.098362514604229, -90.13136292857837 -6.4556851029055515, -89.8992554491449 -7.340811518003303 C-89.73136570028764 -7.846468691962567, -89.56347595143038 -8.352125865921831, -89.37811014509383 -8.910418140577093 C-89.21569421873016 -9.311588618793667, -89.0532782923665 -9.712759097010244, -88.75747054837109 -10.443409943732574 C-88.56044753743446 -10.852532441559596, -88.36342452649782 -11.261654939386618, -88.0398870002064 -11.933487535324831 C-87.7681727801031 -12.415943647166545, -87.49645855999981 -12.898399759008257, -87.22830820532036 -13.374527866909409 C-86.88493304082084 -13.902044328722832, -86.54155787632133 -14.429560790536256, -86.32606911506429 -14.760609394661605 C-85.95797976856333 -15.253815585343565, -85.58989042206237 -15.747021776025527, -85.33687722338968 -16.086036412270353 C-85.0930836527552 -16.372410212584775, -84.8492900821207 -16.658784012899194, -84.26479733196045 -17.345362455817092 C-83.9764789294348 -17.643074877805894, -83.68816052690916 -17.940787299794696, -83.11423484701089 -18.5334126844643 C-82.86025155862292 -18.764073586948683, -82.60626827023496 -18.994734489433068, -81.88991767658653 -19.645305144986487 C-81.46908636291202 -19.980906918850337, -81.04825504923751 -20.316508692714184, -80.59687680255585 -20.676470832763204 C-80.12256306410515 -21.007331563995603, -79.64824932565445 -21.338192295228, -79.24042560722665 -21.622672466799 C-78.8896417067957 -21.83531972867526, -78.53885780636475 -22.047966990551522, -77.82613803951841 -22.480021901620027 C-77.41539227015656 -22.69430770640089, -77.00464650079469 -22.908593511181746, -76.35982571041058 -23.244996104497716 C-76.04163789665726 -23.38584841094017, -75.72345008290395 -23.526700717382624, -74.84751401178646 -23.91445163234599 C-74.33633503486622 -24.1025702211393, -73.825156057946 -24.290688809932604, -73.29541735680553 -24.485637548803172 C-72.78464584860075 -24.637231851343994, -72.27387434039595 -24.78882615388482, -71.70991364354681 -24.956206728419538 C-71.06654167205483 -25.103052182518113, -70.42316970056284 -25.249897636616684, -70.09751804685754 -25.324225501499278 C-69.54437808495652 -25.413652880874963, -68.9912381230555 -25.503080260250652, -68.46485624610233 -25.588181599964017 C-67.847486703625 -25.6477384972313, -67.23011716114767 -25.707295394498583, -66.81863719882529 -25.746990371586765 C-66.4294654455044 -25.7594703522389, -66.04029369218354 -25.771950332891038, -65.1656255722046 -25.799999237060547 C-65.1656255722046 -25.799999237060547, -65.16562557220459 -25.799999237060547, -65.16562557220459 -25.799999237060547" stroke="none" stroke-width="0" fill="#2d2d2d" style=""></path><path d="M-65.16562557220459 -25.799999237060547 C-16.336185823772702 -25.799999237060547, 32.493253924659186 -25.799999237060547, 65.16562557220459 -25.799999237060547 M-65.16562557220459 -25.799999237060547 C-35.997896507410424 -25.799999237060547, -6.830167442616258 -25.799999237060547, 65.16562557220459 -25.799999237060547 M65.16562557220459 -25.799999237060547 C65.16562557220459 -25.799999237060547, 65.16562557220459 -25.799999237060547, 65.16562557220459 -25.799999237060547 M65.16562557220459 -25.799999237060547 C65.16562557220459 -25.799999237060547, 65.16562557220459 -25.799999237060547, 65.16562557220459 -25.799999237060547 M65.16562557220459 -25.799999237060547 C65.57096178210773 -25.787000893748022, 65.97629799201088 -25.7740025504355, 66.81863719882529 -25.746990371586765 M65.16562557220459 -25.799999237060547 C65.64146623234446 -25.78473995325752, 66.11730689248431 -25.76948066945449, 66.81863719882529 -25.746990371586765 M66.81863719882529 -25.746990371586765 C67.41047950696021 -25.689896055915504, 68.00232181509514 -25.632801740244243, 68.46485624610231 -25.58818159996402 M66.81863719882529 -25.746990371586765 C67.29945008007608 -25.700606931194592, 67.78026296132688 -25.654223490802423, 68.46485624610231 -25.58818159996402 M68.46485624610231 -25.58818159996402 C68.97724278712086 -25.505342917629115, 69.48962932813939 -25.42250423529421, 70.09751804685753 -25.32422550149928 M68.46485624610231 -25.58818159996402 C68.99361975440713 -25.50269521656355, 69.52238326271194 -25.417208833163077, 70.09751804685753 -25.32422550149928 M70.09751804685753 -25.32422550149928 C70.65460962412396 -25.197072984350502, 71.2117012013904 -25.06992046720172, 71.70991364354678 -24.956206728419545 M70.09751804685753 -25.32422550149928 C70.49737370753668 -25.232961056251302, 70.89722936821583 -25.141696611003322, 71.70991364354678 -24.956206728419545 M71.70991364354678 -24.956206728419545 C72.02782432946083 -24.861852505587503, 72.34573501537486 -24.767498282755458, 73.29541735680552 -24.48563754880318 M71.70991364354678 -24.956206728419545 C72.13182549616947 -24.83098550522164, 72.55373734879215 -24.705764282023736, 73.29541735680552 -24.48563754880318 M73.29541735680552 -24.48563754880318 C73.82951794374803 -24.289083595636633, 74.36361853069053 -24.092529642470083, 74.84751401178644 -23.914451632345997 M73.29541735680552 -24.48563754880318 C73.69325924961618 -24.339228054638717, 74.09110114242682 -24.19281856047425, 74.84751401178644 -23.914451632345997 M74.84751401178644 -23.914451632345997 C75.43076296764927 -23.65626462105108, 76.01401192351209 -23.39807760975616, 76.35982571041056 -23.24499610449772 M74.84751401178644 -23.914451632345997 C75.27060402489082 -23.72716223406401, 75.69369403799517 -23.539872835782027, 76.35982571041056 -23.24499610449772 M76.35982571041056 -23.24499610449772 C76.89661966591743 -22.964951041742726, 77.4334136214243 -22.68490597898773, 77.8261380395184 -22.480021901620034 M76.35982571041056 -23.24499610449772 C76.66548917385637 -23.085531671404837, 76.97115263730217 -22.92606723831195, 77.8261380395184 -22.480021901620034 M77.8261380395184 -22.480021901620034 C78.37769372743865 -22.145665602301776, 78.9292494153589 -21.81130930298352, 79.24042560722664 -21.62267246679901 M77.8261380395184 -22.480021901620034 C78.31775862823247 -22.1819986116583, 78.80937921694654 -21.883975321696568, 79.24042560722664 -21.62267246679901 M79.24042560722664 -21.62267246679901 C79.55329637456303 -21.404427363462368, 79.86616714189944 -21.186182260125722, 80.59687680255584 -20.67647083276321 M79.24042560722664 -21.62267246679901 C79.6676782858288 -21.324639493676507, 80.09493096443096 -21.026606520554004, 80.59687680255584 -20.67647083276321 M80.59687680255584 -20.67647083276321 C81.00483667605054 -20.351133689919354, 81.41279654954525 -20.025796547075498, 81.8899176765865 -19.64530514498651 M80.59687680255584 -20.67647083276321 C81.10843245908565 -20.268518809748418, 81.61998811561547 -19.860566786733624, 81.8899176765865 -19.64530514498651 M81.8899176765865 -19.64530514498651 C82.18038602255866 -19.38150947854588, 82.47085436853084 -19.11771381210525, 83.11423484701088 -18.533412684464313 M81.8899176765865 -19.64530514498651 C82.23207111327699 -19.334570446668067, 82.57422454996747 -19.02383574834963, 83.11423484701088 -18.533412684464313 M83.11423484701088 -18.533412684464313 C83.43489456388608 -18.20230520013831, 83.75555428076127 -17.871197715812304, 84.26479733196044 -17.345362455817106 M83.11423484701088 -18.533412684464313 C83.34748753767741 -18.29256013094907, 83.58074022834393 -18.051707577433827, 84.26479733196044 -17.345362455817106 M84.26479733196044 -17.345362455817106 C84.57313580397151 -16.983170541636813, 84.88147427598258 -16.62097862745652, 85.33687722338968 -16.086036412270357 M84.26479733196044 -17.345362455817106 C84.53550535253561 -17.027373411126778, 84.80621337311077 -16.709384366436446, 85.33687722338968 -16.086036412270357 M85.33687722338968 -16.086036412270357 C85.6255609232859 -15.699226554035503, 85.91424462318214 -15.312416695800648, 86.32606911506427 -14.76060939466161 M85.33687722338968 -16.086036412270357 C85.59788880493291 -15.736304671646684, 85.85890038647612 -15.38657293102301, 86.32606911506427 -14.76060939466161 M86.32606911506427 -14.76060939466161 C86.55991493104952 -14.401359424914357, 86.79376074703477 -14.042109455167104, 87.22830820532036 -13.374527866909407 M86.32606911506427 -14.76060939466161 C86.58496339706294 -14.362878254662823, 86.84385767906161 -13.965147114664035, 87.22830820532036 -13.374527866909407 M87.22830820532036 -13.374527866909407 C87.47509951650915 -12.936324903563595, 87.72189082769795 -12.498121940217782, 88.0398870002064 -11.93348753532484 M87.22830820532036 -13.374527866909407 C87.45426048302974 -12.97332671768725, 87.68021276073912 -12.572125568465093, 88.0398870002064 -11.93348753532484 M88.0398870002064 -11.93348753532484 C88.2131172877781 -11.57377113664783, 88.3863475753498 -11.214054737970818, 88.75747054837109 -10.443409943732584 M88.0398870002064 -11.93348753532484 C88.18973554261255 -11.622323830773288, 88.33958408501871 -11.311160126221738, 88.75747054837109 -10.443409943732584 M88.75747054837109 -10.443409943732584 C88.94177523508209 -9.988173804267685, 89.12607992179309 -9.532937664802784, 89.37811014509381 -8.910418140577123 M88.75747054837109 -10.443409943732584 C88.95541883502109 -9.954473848637285, 89.15336712167111 -9.465537753541984, 89.37811014509381 -8.910418140577123 M89.37811014509381 -8.910418140577123 C89.53962211320473 -8.423969826064491, 89.70113408131564 -7.937521511551859, 89.8992554491449 -7.340811518003323 M89.37811014509381 -8.910418140577123 C89.50122209429456 -8.53962456480978, 89.62433404349531 -8.168830989042435, 89.8992554491449 -7.340811518003323 M89.8992554491449 -7.340811518003323 C90.0655350528722 -6.706715322955015, 90.2318146565995 -6.072619127906707, 90.31876496268467 -5.741039926302914 M89.8992554491449 -7.340811518003323 C90.05625443670428 -6.7421063346478025, 90.21325342426364 -6.143401151292283, 90.31876496268467 -5.741039926302914 M90.31876496268467 -5.741039926302914 C90.41113535871992 -5.266737465152072, 90.50350575475515 -4.792435004001231, 90.63491483113748 -4.117677170096137 M90.31876496268467 -5.741039926302914 C90.43416771571302 -5.148471179882831, 90.54957046874138 -4.555902433462749, 90.63491483113748 -4.117677170096137 M90.63491483113748 -4.117677170096137 C90.69274041386836 -3.6691933693882812, 90.75056599659925 -3.2207095686804257, 90.84640592687991 -2.4773939951584394 M90.63491483113748 -4.117677170096137 C90.71894583964509 -3.4659492619106627, 90.80297684815268 -2.8142213537251886, 90.84640592687991 -2.4773939951584394 M90.84640592687991 -2.4773939951584394 C90.86776996647698 -2.144631833691594, 90.88913400607406 -1.8118696722247483, 90.95236918763487 -0.8269306768952902 M90.84640592687991 -2.4773939951584394 C90.87140650777013 -2.0879897676876555, 90.89640708866034 -1.6985855402168717, 90.95236918763487 -0.8269306768952902 M90.95236918763487 -0.8269306768952902 C90.95236918763487 -0.1696492361449713, 90.95236918763487 0.4876322046053476, 90.95236918763487 0.826930676895284 M90.95236918763487 -0.8269306768952902 C90.95236918763487 -0.45567633679763947, 90.95236918763487 -0.08442199669998873, 90.95236918763487 0.826930676895284 M90.95236918763487 0.826930676895284 C90.92821993120009 1.203074838795887, 90.90407067476532 1.5792190006964897, 90.84640592687991 2.4773939951584216 M90.95236918763487 0.826930676895284 C90.91371085168412 1.4290654637753546, 90.87505251573337 2.031200250655425, 90.84640592687991 2.4773939951584216 M90.84640592687991 2.4773939951584216 C90.77431838130622 3.0364907633320346, 90.70223083573252 3.595587531505647, 90.63491483113748 4.117677170096119 M90.84640592687991 2.4773939951584216 C90.79878350642899 2.8467440840651226, 90.75116108597808 3.2160941729718235, 90.63491483113748 4.117677170096119 M90.63491483113748 4.117677170096119 C90.51464241917549 4.7352505859376794, 90.3943700072135 5.35282400177924, 90.31876496268467 5.741039926302909 M90.63491483113748 4.117677170096119 C90.54132407566595 4.598245919029191, 90.44773332019444 5.078814667962262, 90.31876496268467 5.741039926302909 M90.31876496268467 5.741039926302909 C90.1938082552872 6.217554008189061, 90.06885154788971 6.694068090075214, 89.8992554491449 7.340811518003306 M90.31876496268467 5.741039926302909 C90.23054539648258 6.0774593668332875, 90.14232583028051 6.413878807363666, 89.8992554491449 7.340811518003306 M89.8992554491449 7.340811518003306 C89.75039420509418 7.789157867265771, 89.60153296104347 8.237504216528235, 89.37811014509383 8.910418140577105 M89.8992554491449 7.340811518003306 C89.71331902998928 7.900822387554795, 89.52738261083367 8.460833257106286, 89.37811014509383 8.910418140577105 M89.37811014509383 8.910418140577105 C89.25029621705673 9.226121013942949, 89.12248228901962 9.541823887308793, 88.75747054837109 10.443409943732577 M89.37811014509383 8.910418140577105 C89.23175718109361 9.271912791199693, 89.08540421709341 9.63340744182228, 88.75747054837109 10.443409943732577 M88.75747054837109 10.443409943732577 C88.50776483431048 10.96192920182581, 88.25805912024987 11.480448459919046, 88.0398870002064 11.933487535324835 M88.75747054837109 10.443409943732577 C88.49444841469165 10.989581032090044, 88.2314262810122 11.535752120447512, 88.0398870002064 11.933487535324835 M88.0398870002064 11.933487535324835 C87.81400150200437 12.334570110769548, 87.58811600380234 12.735652686214262, 87.22830820532037 13.374527866909402 M88.0398870002064 11.933487535324835 C87.74984540581923 12.44848575605546, 87.45980381143205 12.963483976786083, 87.22830820532037 13.374527866909402 M87.22830820532037 13.374527866909402 C87.04245181695937 13.660053188860154, 86.85659542859837 13.945578510810908, 86.32606911506429 14.760609394661596 M87.22830820532037 13.374527866909402 C86.96358450692877 13.781214555905226, 86.69886080853715 14.18790124490105, 86.32606911506429 14.760609394661596 M86.32606911506429 14.760609394661596 C86.03215087652065 15.154433057807703, 85.73823263797699 15.54825672095381, 85.33687722338968 16.086036412270353 M86.32606911506429 14.760609394661596 C85.945050111719 15.271140147598986, 85.56403110837373 15.781670900536376, 85.33687722338968 16.086036412270353 M85.33687722338968 16.086036412270353 C85.03989910571737 16.434883807821862, 84.74292098804506 16.783731203373375, 84.26479733196045 17.345362455817092 M85.33687722338968 16.086036412270353 C85.11994704428011 16.340854944329323, 84.90301686517054 16.595673476388292, 84.26479733196045 17.345362455817092 M84.26479733196045 17.345362455817092 C83.99737908285535 17.621493753464673, 83.72996083375025 17.897625051112254, 83.11423484701088 18.533412684464306 M84.26479733196045 17.345362455817092 C83.88412532270692 17.738437559124563, 83.50345331345339 18.131512662432034, 83.11423484701088 18.533412684464306 M83.11423484701088 18.533412684464306 C82.83094829719595 18.790686033654854, 82.54766174738101 19.0479593828454, 81.88991767658653 19.64530514498649 M83.11423484701088 18.533412684464306 C82.84178403263799 18.78084530542424, 82.5693332182651 19.028277926384174, 81.88991767658653 19.64530514498649 M81.88991767658653 19.64530514498649 C81.41759699522889 20.021968319388012, 80.94527631387125 20.398631493789537, 80.59687680255584 20.676470832763208 M81.88991767658653 19.64530514498649 C81.63082541037811 19.85192433255295, 81.37173314416967 20.058543520119407, 80.59687680255584 20.676470832763208 M80.59687680255584 20.676470832763208 C80.30103415301733 20.88283785825939, 80.00519150347881 21.08920488375557, 79.24042560722665 21.622672466799003 M80.59687680255584 20.676470832763208 C80.16887586036015 20.97502576217675, 79.74087491816447 21.273580691590293, 79.24042560722665 21.622672466799003 M79.24042560722665 21.622672466799003 C78.94189251608009 21.803644981027226, 78.64335942493352 21.984617495255453, 77.82613803951841 22.48002190162003 M79.24042560722665 21.622672466799003 C78.85128406404259 21.85857235712673, 78.46214252085852 22.094472247454455, 77.82613803951841 22.48002190162003 M77.82613803951841 22.48002190162003 C77.40816754337027 22.698076841737635, 76.99019704722214 22.916131781855235, 76.35982571041058 23.244996104497716 M77.82613803951841 22.48002190162003 C77.5278209861545 22.635653717278792, 77.22950393279058 22.791285532937554, 76.35982571041058 23.244996104497716 M76.35982571041058 23.244996104497716 C75.83135607515761 23.478933935529454, 75.30288643990467 23.712871766561193, 74.84751401178644 23.914451632345994 M76.35982571041058 23.244996104497716 C76.00496790566365 23.40208112817641, 75.6501101009167 23.559166151855106, 74.84751401178644 23.914451632345994 M74.84751401178644 23.914451632345994 C74.43297856305246 24.067004509403787, 74.01844311431846 24.219557386461577, 73.29541735680553 24.485637548803172 M74.84751401178644 23.914451632345994 C74.30918799984936 24.112560580969948, 73.77086198791226 24.310669529593905, 73.29541735680553 24.485637548803172 M73.29541735680553 24.485637548803172 C72.91707318515574 24.597928112979748, 72.53872901350594 24.710218677156323, 71.70991364354681 24.95620672841954 M73.29541735680553 24.485637548803172 C72.91099904906486 24.59973088468773, 72.52658074132418 24.71382422057229, 71.70991364354681 24.95620672841954 M71.70991364354681 24.95620672841954 C71.21842923396575 25.068384837670916, 70.72694482438467 25.18056294692229, 70.09751804685754 25.324225501499278 M71.70991364354681 24.95620672841954 C71.11197943517449 25.092681309595164, 70.51404522680217 25.229155890770787, 70.09751804685754 25.324225501499278 M70.09751804685754 25.324225501499278 C69.47575845155308 25.42474677105043, 68.8539988562486 25.52526804060158, 68.46485624610233 25.588181599964017 M70.09751804685754 25.324225501499278 C69.6067365479851 25.40357124816961, 69.11595504911263 25.48291699483994, 68.46485624610233 25.588181599964017 M68.46485624610233 25.588181599964017 C67.88888762556087 25.64374460008404, 67.3129190050194 25.69930760020406, 66.81863719882529 25.746990371586765 M68.46485624610233 25.588181599964017 C67.90562799145168 25.64212967711979, 67.34639973680102 25.69607775427556, 66.81863719882529 25.746990371586765 M66.81863719882529 25.746990371586765 C66.30869301151876 25.76334328912754, 65.79874882421223 25.779696206668312, 65.16562557220459 25.799999237060547 M66.81863719882529 25.746990371586765 C66.47990507178072 25.757852851598997, 66.14117294473614 25.76871533161123, 65.16562557220459 25.799999237060547 M65.16562557220459 25.799999237060547 C65.16562557220459 25.799999237060547, 65.16562557220459 25.799999237060547, 65.16562557220459 25.799999237060547 M65.16562557220459 25.799999237060547 C65.16562557220459 25.799999237060547, 65.16562557220459 25.799999237060547, 65.16562557220459 25.799999237060547 M65.16562557220459 25.799999237060547 C37.918374010816294 25.799999237060547, 10.671122449427997 25.799999237060547, -65.16562557220459 25.799999237060547 M65.16562557220459 25.799999237060547 C35.22682765277835 25.799999237060547, 5.288029733352104 25.799999237060547, -65.16562557220459 25.799999237060547 M-65.16562557220459 25.799999237060547 C-65.56192525585745 25.78729067755634, -65.9582249395103 25.77458211805213, -66.81863719882527 25.746990371586765 M-65.16562557220459 25.799999237060547 C-65.67822731104872 25.783561097014573, -66.19082904989284 25.7671229569686, -66.81863719882527 25.746990371586765 M-66.81863719882527 25.746990371586765 C-67.36028234797486 25.6947385154719, -67.90192749712445 25.64248665935704, -68.46485624610231 25.588181599964017 M-66.81863719882527 25.746990371586765 C-67.30051983403666 25.70050373331658, -67.78240246924807 25.6540170950464, -68.46485624610231 25.588181599964017 M-68.46485624610231 25.588181599964017 C-69.06729767575783 25.490783541620377, -69.66973910541333 25.393385483276738, -70.09751804685753 25.324225501499278 M-68.46485624610231 25.588181599964017 C-68.8552139492043 25.525071593795687, -69.2455716523063 25.461961587627357, -70.09751804685753 25.324225501499278 M-70.09751804685753 25.324225501499278 C-70.72231839640486 25.18161889891842, -71.34711874595217 25.039012296337557, -71.70991364354678 24.956206728419545 M-70.09751804685753 25.324225501499278 C-70.46624854782621 25.240065170844566, -70.83497904879489 25.15590484018985, -71.70991364354678 24.956206728419545 M-71.70991364354678 24.956206728419545 C-72.15863358463376 24.823029005283967, -72.60735352572073 24.68985128214839, -73.2954173568055 24.485637548803183 M-71.70991364354678 24.956206728419545 C-72.05512120981784 24.85375093478179, -72.40032877608888 24.751295141144034, -73.2954173568055 24.485637548803183 M-73.2954173568055 24.485637548803183 C-73.74477362095335 24.320270289793, -74.19412988510122 24.15490303078282, -74.84751401178644 23.914451632345997 M-73.2954173568055 24.485637548803183 C-73.664888807262 24.34966863967854, -74.0343602577185 24.213699730553902, -74.84751401178644 23.914451632345997 M-74.84751401178644 23.914451632345997 C-75.34828520392257 23.69277508043696, -75.84905639605869 23.471098528527918, -76.35982571041056 23.244996104497723 M-74.84751401178644 23.914451632345997 C-75.30712410577522 23.710995877586196, -75.76673419976399 23.507540122826395, -76.35982571041056 23.244996104497723 M-76.35982571041056 23.244996104497723 C-76.75144903307188 23.04068646791202, -77.14307235573321 22.836376831326323, -77.8261380395184 22.480021901620038 M-76.35982571041056 23.244996104497723 C-76.68667368894056 23.074479723454743, -77.01352166747057 22.903963342411764, -77.8261380395184 22.480021901620038 M-77.8261380395184 22.480021901620038 C-78.34128925473237 22.167734207592744, -78.85644046994636 21.855446513565454, -79.24042560722663 21.622672466799017 M-77.8261380395184 22.480021901620038 C-78.14985537392748 22.28378255112703, -78.47357270833658 22.087543200634023, -79.24042560722663 21.622672466799017 M-79.24042560722663 21.622672466799017 C-79.62226233234487 21.356319696801954, -80.00409905746311 21.089966926804895, -80.59687680255584 20.67647083276321 M-79.24042560722663 21.622672466799017 C-79.59521069269519 21.375189749574965, -79.94999577816375 21.127707032350912, -80.59687680255584 20.67647083276321 M-80.59687680255584 20.67647083276321 C-80.98389729214279 20.36783229136539, -81.37091778172972 20.059193749967566, -81.8899176765865 19.645305144986512 M-80.59687680255584 20.67647083276321 C-81.0276827002567 20.33291459357318, -81.45848859795757 19.989358354383146, -81.8899176765865 19.645305144986512 M-81.8899176765865 19.645305144986512 C-82.30793764903923 19.265670466207332, -82.72595762149197 18.88603578742815, -83.11423484701086 18.533412684464324 M-81.8899176765865 19.645305144986512 C-82.30743594175334 19.266126103489935, -82.72495420692019 18.886947061993354, -83.11423484701086 18.533412684464324 M-83.11423484701086 18.533412684464324 C-83.35632409589276 18.28343565909679, -83.59841334477466 18.033458633729254, -84.26479733196044 17.3453624558171 M-83.11423484701086 18.533412684464324 C-83.3553579933111 18.284433239330845, -83.59648113961136 18.035453794197362, -84.26479733196044 17.3453624558171 M-84.26479733196044 17.3453624558171 C-84.56341888386667 16.994584588900363, -84.86204043577293 16.643806721983626, -85.33687722338968 16.08603641227036 M-84.26479733196044 17.3453624558171 C-84.57715192250325 16.97845298028581, -84.88950651304607 16.611543504754522, -85.33687722338968 16.08603641227036 M-85.33687722338968 16.08603641227036 C-85.64265839358838 15.676317501441776, -85.94843956378709 15.266598590613194, -86.32606911506427 14.760609394661614 M-85.33687722338968 16.08603641227036 C-85.66157917815066 15.650965373847251, -85.98628113291166 15.21589433542414, -86.32606911506427 14.760609394661614 M-86.32606911506427 14.760609394661614 C-86.57134874927598 14.383794009708422, -86.81662838348768 14.00697862475523, -87.22830820532036 13.374527866909418 M-86.32606911506427 14.760609394661614 C-86.55054352304084 14.415756424191096, -86.7750179310174 14.07090345372058, -87.22830820532036 13.374527866909418 M-87.22830820532036 13.374527866909418 C-87.54147645612034 12.81846592588996, -87.85464470692031 12.2624039848705, -88.03988700020639 11.933487535324842 M-87.22830820532036 13.374527866909418 C-87.54397806144328 12.81402407232407, -87.85964791756619 12.253520277738724, -88.03988700020639 11.933487535324842 M-88.03988700020639 11.933487535324842 C-88.3083402593595 11.376038598713867, -88.57679351851259 10.818589662102891, -88.75747054837109 10.443409943732586 M-88.03988700020639 11.933487535324842 C-88.31403948672228 11.364204031151116, -88.58819197323815 10.794920526977391, -88.75747054837109 10.443409943732586 M-88.75747054837109 10.443409943732586 C-89.00284012604219 9.837342342986885, -89.2482097037133 9.231274742241183, -89.37811014509381 8.910418140577127 M-88.75747054837109 10.443409943732586 C-88.98828722762823 9.873288283430508, -89.21910390688538 9.30316662312843, -89.37811014509381 8.910418140577127 M-89.37811014509381 8.910418140577127 C-89.49408093800058 8.561132589778527, -89.61005173090733 8.211847038979927, -89.8992554491449 7.340811518003316 M-89.37811014509381 8.910418140577127 C-89.555802006008 8.375238566856897, -89.73349386692217 7.840058993136667, -89.8992554491449 7.340811518003316 M-89.8992554491449 7.340811518003316 C-89.98680829789343 7.006934560080486, -90.07436114664196 6.673057602157655, -90.31876496268467 5.741039926302918 M-89.8992554491449 7.340811518003316 C-90.01725623888929 6.890823364842186, -90.13525702863367 6.440835211681056, -90.31876496268467 5.741039926302918 M-90.31876496268467 5.741039926302918 C-90.38790869251591 5.386001487152004, -90.45705242234715 5.030963048001092, -90.63491483113748 4.117677170096139 M-90.31876496268467 5.741039926302918 C-90.39599107984472 5.344500136431686, -90.47321719700477 4.947960346560455, -90.63491483113748 4.117677170096139 M-90.63491483113748 4.117677170096139 C-90.70897078360103 3.5433138267907105, -90.78302673606458 2.9689504834852816, -90.84640592687991 2.477393995158454 M-90.63491483113748 4.117677170096139 C-90.69170691406076 3.677208989808374, -90.74849899698405 3.2367408095206085, -90.84640592687991 2.477393995158454 M-90.84640592687991 2.477393995158454 C-90.86802384137162 2.140677527283574, -90.88964175586332 1.8039610594086937, -90.95236918763487 0.8269306768952934 M-90.84640592687991 2.477393995158454 C-90.86774068105971 2.1450879777043372, -90.88907543523952 1.8127819602502206, -90.95236918763487 0.8269306768952934 M-90.95236918763487 0.8269306768952934 C-90.95236918763487 0.21430235417412324, -90.95236918763487 -0.39832596854704694, -90.95236918763487 -0.8269306768952809 M-90.95236918763487 0.8269306768952934 C-90.95236918763487 0.42162166599537665, -90.95236918763487 0.01631265509545987, -90.95236918763487 -0.8269306768952809 M-90.95236918763487 -0.8269306768952809 C-90.91218814846715 -1.4527827954835835, -90.87200710929943 -2.078634914071886, -90.84640592687991 -2.4773939951584185 M-90.95236918763487 -0.8269306768952809 C-90.91272895612413 -1.444359279694012, -90.8730887246134 -2.0617878824927427, -90.84640592687991 -2.4773939951584185 M-90.84640592687991 -2.4773939951584185 C-90.7618151461873 -3.133463385871236, -90.67722436549471 -3.7895327765840534, -90.63491483113748 -4.117677170096128 M-90.84640592687991 -2.4773939951584185 C-90.7827752957958 -2.9709006045574644, -90.71914466471169 -3.46440721395651, -90.63491483113748 -4.117677170096128 M-90.63491483113748 -4.117677170096128 C-90.52669369130236 -4.673369850603435, -90.41847255146725 -5.229062531110742, -90.31876496268467 -5.741039926302906 M-90.63491483113748 -4.117677170096128 C-90.5402579948807 -4.603720018545246, -90.44560115862392 -5.089762866994365, -90.31876496268467 -5.741039926302906 M-90.31876496268467 -5.741039926302906 C-90.17598331861727 -6.285528217087874, -90.03320167454987 -6.830016507872843, -89.8992554491449 -7.340811518003303 M-90.31876496268467 -5.741039926302906 C-90.22951218073945 -6.0813994662604, -90.14025939879424 -6.421759006217894, -89.8992554491449 -7.340811518003303 M-89.8992554491449 -7.340811518003303 C-89.79389247454799 -7.6581480101789605, -89.68852949995109 -7.975484502354618, -89.37811014509383 -8.910418140577093 M-89.8992554491449 -7.340811518003303 C-89.77899682751222 -7.703011325751683, -89.65873820587952 -8.065211133500062, -89.37811014509383 -8.910418140577093 M-89.37811014509383 -8.910418140577093 C-89.20985385426363 -9.326014431941761, -89.04159756343344 -9.741610723306428, -88.75747054837109 -10.443409943732574 M-89.37811014509383 -8.910418140577093 C-89.22803677816262 -9.281102258368362, -89.0779634112314 -9.65178637615963, -88.75747054837109 -10.443409943732574 M-88.75747054837109 -10.443409943732574 C-88.49863311180391 -10.980891418998244, -88.23979567523673 -11.518372894263916, -88.0398870002064 -11.933487535324831 M-88.75747054837109 -10.443409943732574 C-88.6132551845248 -10.74287623247385, -88.46903982067852 -11.042342521215126, -88.0398870002064 -11.933487535324831 M-88.0398870002064 -11.933487535324831 C-87.81570433490992 -12.331546558515198, -87.59152166961344 -12.729605581705567, -87.22830820532036 -13.374527866909409 M-88.0398870002064 -11.933487535324831 C-87.81284309486055 -12.33662697995482, -87.58579918951472 -12.73976642458481, -87.22830820532036 -13.374527866909409 M-87.22830820532036 -13.374527866909409 C-86.98117423423663 -13.754192011257196, -86.7340402631529 -14.133856155604985, -86.32606911506429 -14.760609394661605 M-87.22830820532036 -13.374527866909409 C-86.92526637180012 -13.840081501322816, -86.62222453827988 -14.305635135736221, -86.32606911506429 -14.760609394661605 M-86.32606911506429 -14.760609394661605 C-86.11654933084759 -15.041346817866957, -85.90702954663091 -15.322084241072309, -85.33687722338968 -16.086036412270353 M-86.32606911506429 -14.760609394661605 C-85.93559640968529 -15.2838072470742, -85.54512370430628 -15.807005099486798, -85.33687722338968 -16.086036412270353 M-85.33687722338968 -16.086036412270353 C-84.91018065540386 -16.58725848074902, -84.48348408741806 -17.08848054922769, -84.26479733196045 -17.345362455817092 M-85.33687722338968 -16.086036412270353 C-85.10822367111555 -16.35462588552724, -84.87957011884143 -16.623215358784133, -84.26479733196045 -17.345362455817092 M-84.26479733196045 -17.345362455817092 C-83.89079946020297 -17.73154596420301, -83.51680158844549 -18.117729472588934, -83.11423484701089 -18.5334126844643 M-84.26479733196045 -17.345362455817092 C-83.93136929836291 -17.689654275457215, -83.59794126476537 -18.03394609509734, -83.11423484701089 -18.5334126844643 M-83.11423484701089 -18.5334126844643 C-82.66936800126614 -18.93742898323795, -82.22450115552138 -19.341445282011602, -81.88991767658653 -19.645305144986487 M-83.11423484701089 -18.5334126844643 C-82.66018442435225 -18.945769264807012, -82.20613400169361 -19.358125845149726, -81.88991767658653 -19.645305144986487 M-81.88991767658653 -19.645305144986487 C-81.5567967718529 -19.91096020179199, -81.22367586711927 -20.17661525859749, -80.59687680255585 -20.676470832763204 M-81.88991767658653 -19.645305144986487 C-81.39554140008798 -20.03955706958886, -80.90116512358942 -20.433808994191228, -80.59687680255585 -20.676470832763204 M-80.59687680255585 -20.676470832763204 C-80.2238673270111 -20.936666095583266, -79.85085785146637 -21.196861358403332, -79.24042560722665 -21.622672466799 M-80.59687680255585 -20.676470832763204 C-80.21273251290867 -20.9444332598828, -79.82858822326148 -21.21239568700239, -79.24042560722665 -21.622672466799 M-79.24042560722665 -21.622672466799 C-78.91654495934213 -21.819010818880557, -78.5926643114576 -22.01534917096211, -77.82613803951841 -22.480021901620027 M-79.24042560722665 -21.622672466799 C-78.80984409470642 -21.883693510066603, -78.37926258218619 -22.144714553334204, -77.82613803951841 -22.480021901620027 M-77.82613803951841 -22.480021901620027 C-77.5165141380384 -22.641552492698573, -77.20689023655841 -22.803083083777114, -76.35982571041058 -23.244996104497716 M-77.82613803951841 -22.480021901620027 C-77.47680366603726 -22.662269420505805, -77.12746929255609 -22.84451693939158, -76.35982571041058 -23.244996104497716 M-76.35982571041058 -23.244996104497716 C-75.87794115991096 -23.45831210040659, -75.39605660941135 -23.671628096315466, -74.84751401178646 -23.91445163234599 M-76.35982571041058 -23.244996104497716 C-75.76894640504997 -23.506560845169023, -75.17806709968937 -23.768125585840334, -74.84751401178646 -23.91445163234599 M-74.84751401178646 -23.91445163234599 C-74.37662513058893 -24.087743093475783, -73.9057362493914 -24.261034554605573, -73.29541735680553 -24.485637548803172 M-74.84751401178646 -23.91445163234599 C-74.30333545747432 -24.11471437066427, -73.7591569031622 -24.314977108982546, -73.29541735680553 -24.485637548803172 M-73.29541735680553 -24.485637548803172 C-72.93574152194134 -24.59238744861388, -72.57606568707716 -24.699137348424586, -71.70991364354681 -24.956206728419538 M-73.29541735680553 -24.485637548803172 C-72.8790008822654 -24.609227772632003, -72.46258440772526 -24.732817996460838, -71.70991364354681 -24.956206728419538 M-71.70991364354681 -24.956206728419538 C-71.2939482173967 -25.051148122510217, -70.8779827912466 -25.1460895166009, -70.09751804685754 -25.324225501499278 M-71.70991364354681 -24.956206728419538 C-71.33671453774274 -25.041386988967556, -70.96351543193867 -25.126567249515574, -70.09751804685754 -25.324225501499278 M-70.09751804685754 -25.324225501499278 C-69.76912721189973 -25.377317184986296, -69.44073637694191 -25.430408868473314, -68.46485624610233 -25.588181599964017 M-70.09751804685754 -25.324225501499278 C-69.71191859581369 -25.386566230375646, -69.32631914476983 -25.448906959252014, -68.46485624610233 -25.588181599964017 M-68.46485624610233 -25.588181599964017 C-68.0349603109094 -25.629653143806575, -67.60506437571645 -25.671124687649133, -66.81863719882529 -25.746990371586765 M-68.46485624610233 -25.588181599964017 C-67.82356207042872 -25.650046477822162, -67.18226789475511 -25.71191135568031, -66.81863719882529 -25.746990371586765 M-66.81863719882529 -25.746990371586765 C-66.1981864174459 -25.76688702051142, -65.57773563606652 -25.786783669436073, -65.1656255722046 -25.799999237060547 M-66.81863719882529 -25.746990371586765 C-66.33990222214143 -25.762342470487912, -65.8611672454576 -25.777694569389062, -65.1656255722046 -25.799999237060547 M-65.1656255722046 -25.799999237060547 C-65.1656255722046 -25.799999237060547, -65.16562557220459 -25.799999237060547, -65.16562557220459 -25.799999237060547 M-65.1656255722046 -25.799999237060547 C-65.1656255722046 -25.799999237060547, -65.16562557220459 -25.799999237060547, -65.16562557220459 -25.799999237060547" stroke="#555555" stroke-width="1.3" fill="none" stroke-dasharray="0 0" style=""></path></g><g class="label" style="" transform="translate(0, -18.299999237060547)"><rect></rect><g><rect class="background" style="stroke: none"></rect><text y="-10.1" style=""><tspan class="text-outer-tspan row" x="0" y="-0.1em" dy="1.1em"><tspan font-style="normal" class="text-inner-tspan" font-weight="normal">What</tspan><tspan font-style="normal" class="text-inner-tspan" font-weight="normal"> is</tspan><tspan font-style="normal" class="text-inner-tspan" font-weight="normal"> the</tspan><tspan font-style="normal" class="text-inner-tspan" font-weight="normal"> dominant</tspan></tspan><tspan class="text-outer-tspan row" x="0" y="1em" dy="1.1em"><tspan font-style="normal" class="text-inner-tspan" font-weight="normal">query?</tspan></tspan></text></g></g></g><g class="node default" id="gbb4601e8-7838-420b-b6b8-4387bc280f61-dark-flowchart-Q1-1" data-look="classic" transform="translate(271.25703048706055, 249.41407012939453)"><polygon points="139.8140640258789,0 279.6281280517578,-139.8140640258789 139.8140640258789,-279.6281280517578 0,-139.8140640258789" class="label-container" transform="translate(-139.3140640258789, 139.8140640258789)"></polygon><g class="label" style="" transform="translate(0, -35.900001525878906)"><rect></rect><g><rect class="background" style="stroke: none"></rect><text y="-10.1" style=""><tspan class="text-outer-tspan row" x="0" y="-0.1em" dy="1.1em"><tspan font-style="normal" class="text-inner-tspan" font-weight="normal">Range</tspan><tspan font-style="normal" class="text-inner-tspan" font-weight="normal"> /</tspan><tspan font-style="normal" class="text-inner-tspan" font-weight="normal"> window</tspan><tspan font-style="normal" class="text-inner-tspan" font-weight="normal"> query</tspan></tspan><tspan class="text-outer-tspan row" x="0" y="1em" dy="1.1em"><tspan font-style="normal" class="text-inner-tspan" font-weight="normal">over</tspan><tspan font-style="normal" class="text-inner-tspan" font-weight="normal"> heterogeneous</tspan></tspan><tspan class="text-outer-tspan row" x="0" y="2.1em" dy="1.1em"><tspan font-style="normal" class="text-inner-tspan" font-weight="normal">geometries</tspan></tspan><tspan class="text-outer-tspan row" x="0" y="3.2em" dy="1.1em"><tspan font-style="normal" class="text-inner-tspan" font-weight="normal">(polygons,</tspan><tspan font-style="normal" class="text-inner-tspan" font-weight="normal"> lines,</tspan><tspan font-style="normal" class="text-inner-tspan" font-weight="normal"> points)?</tspan></tspan></text></g></g></g><g class="node default pick" id="gbb4601e8-7838-420b-b6b8-4387bc280f61-dark-flowchart-Rtree-3" data-look="classic" transform="translate(128.5859375, 576.9843902587891)"><rect class="basic label-container" style="fill:#0d47a1 !important;stroke:#0d47a1 !important" x="-120.5859375" y="-50.900001525878906" width="241.171875" height="101.80000305175781"></rect><g class="label" style="color:#ffffff !important" transform="translate(0, -35.900001525878906)"><rect></rect><g><rect class="background" style="stroke: none"></rect><text y="-10.1" style="fill:#404040 !important"><tspan class="text-outer-tspan row" x="0" y="-0.1em" dy="1.1em"><tspan font-style="normal" class="text-inner-tspan" font-weight="normal">R-tree</tspan></tspan><tspan class="text-outer-tspan row" x="0" y="1em" dy="1.1em"><tspan font-style="normal" class="text-inner-tspan" font-weight="normal">(PostGIS</tspan><tspan font-style="normal" class="text-inner-tspan" font-weight="normal"> GIST)</tspan></tspan><tspan class="text-outer-tspan row" x="0" y="2.1em" dy="1.1em"><tspan font-style="normal" class="text-inner-tspan" font-weight="normal">bounding-box</tspan><tspan font-style="normal" class="text-inner-tspan" font-weight="normal"> index;</tspan></tspan><tspan class="text-outer-tspan row" x="0" y="3.2em" dy="1.1em"><tspan font-style="normal" class="text-inner-tspan" font-weight="normal">handles</tspan><tspan font-style="normal" class="text-inner-tspan" font-weight="normal"> arbitrary</tspan><tspan font-style="normal" class="text-inner-tspan" font-weight="normal"> shapes.</tspan></tspan></text></g></g></g><g class="node default" id="gbb4601e8-7838-420b-b6b8-4387bc280f61-dark-flowchart-Q2-5" data-look="classic" transform="translate(413.9281234741211, 576.9843902587891)"><polygon points="114.7562484741211,0 229.5124969482422,-114.7562484741211 114.7562484741211,-229.5124969482422 0,-114.7562484741211" class="label-container" transform="translate(-114.2562484741211, 114.7562484741211)"></polygon><g class="label" style="" transform="translate(0, -27.099998474121094)"><rect></rect><g><rect class="background" style="stroke: none"></rect><text y="-10.1" style=""><tspan class="text-outer-tspan row" x="0" y="-0.1em" dy="1.1em"><tspan font-style="normal" class="text-inner-tspan" font-weight="normal">Tile-aligned</tspan><tspan font-style="normal" class="text-inner-tspan" font-weight="normal"> lookup</tspan></tspan><tspan class="text-outer-tspan row" x="0" y="1em" dy="1.1em"><tspan font-style="normal" class="text-inner-tspan" font-weight="normal">or</tspan><tspan font-style="normal" class="text-inner-tspan" font-weight="normal"> 4-way</tspan><tspan font-style="normal" class="text-inner-tspan" font-weight="normal"> subdivision</tspan></tspan><tspan class="text-outer-tspan row" x="0" y="2.1em" dy="1.1em"><tspan font-style="normal" class="text-inner-tspan" font-weight="normal">tied</tspan><tspan font-style="normal" class="text-inner-tspan" font-weight="normal"> to</tspan><tspan font-style="normal" class="text-inner-tspan" font-weight="normal"> map</tspan><tspan font-style="normal" class="text-inner-tspan" font-weight="normal"> tiles?</tspan></tspan></text></g></g></g><g class="node default pick" id="gbb4601e8-7838-420b-b6b8-4387bc280f61-dark-flowchart-Quad-7" data-look="classic" transform="translate(265.5382766723633, 898.0437698364258)"><rect class="basic label-container" style="fill:#0d47a1 !important;stroke:#0d47a1 !important" x="-113.4765625" y="-50.900001525878906" width="226.953125" height="101.80000305175781"></rect><g class="label" style="color:#ffffff !important" transform="translate(0, -35.900001525878906)"><rect></rect><g><rect class="background" style="stroke: none"></rect><text y="-10.1" style="fill:#404040 !important"><tspan class="text-outer-tspan row" x="0" y="-0.1em" dy="1.1em"><tspan font-style="normal" class="text-inner-tspan" font-weight="normal">Quadtree</tspan></tspan><tspan class="text-outer-tspan row" x="0" y="1em" dy="1.1em"><tspan font-style="normal" class="text-inner-tspan" font-weight="normal">same</tspan><tspan font-style="normal" class="text-inner-tspan" font-weight="normal"> scheme</tspan><tspan font-style="normal" class="text-inner-tspan" font-weight="normal"> as</tspan><tspan font-style="normal" class="text-inner-tspan" font-weight="normal"> the</tspan></tspan><tspan class="text-outer-tspan row" x="0" y="2.1em" dy="1.1em"><tspan font-style="normal" class="text-inner-tspan" font-weight="normal">rendering</tspan><tspan font-style="normal" class="text-inner-tspan" font-weight="normal"> tile</tspan><tspan font-style="normal" class="text-inner-tspan" font-weight="normal"> pyramid;</tspan></tspan><tspan class="text-outer-tspan row" x="0" y="3.2em" dy="1.1em"><tspan font-style="normal" class="text-inner-tspan" font-weight="normal">cheap</tspan><tspan font-style="normal" class="text-inner-tspan" font-weight="normal"> (x,</tspan><tspan font-style="normal" class="text-inner-tspan" font-weight="normal"> y,</tspan><tspan font-style="normal" class="text-inner-tspan" font-weight="normal"> z)</tspan><tspan font-style="normal" class="text-inner-tspan" font-weight="normal"> keys.</tspan></tspan></text></g></g></g><g class="node default" id="gbb4601e8-7838-420b-b6b8-4387bc280f61-dark-flowchart-Q3-9" data-look="classic" transform="translate(562.3179702758789, 898.0437698364258)"><polygon points="133.3031234741211,0 266.6062469482422,-133.3031234741211 133.3031234741211,-266.6062469482422 0,-133.3031234741211" class="label-container" transform="translate(-132.8031234741211, 133.3031234741211)"></polygon><g class="label" style="" transform="translate(0, -27.099998474121094)"><rect></rect><g><rect class="background" style="stroke: none"></rect><text y="-10.1" style=""><tspan class="text-outer-tspan row" x="0" y="-0.1em" dy="1.1em"><tspan font-style="normal" class="text-inner-tspan" font-weight="normal">Need</tspan><tspan font-style="normal" class="text-inner-tspan" font-weight="normal"> a</tspan><tspan font-style="normal" class="text-inner-tspan" font-weight="normal"> strict</tspan><tspan font-style="normal" class="text-inner-tspan" font-weight="normal"> hierarchy</tspan></tspan><tspan class="text-outer-tspan row" x="0" y="1em" dy="1.1em"><tspan font-style="normal" class="text-inner-tspan" font-weight="normal">(child</tspan><tspan font-style="normal" class="text-inner-tspan" font-weight="normal"> fully</tspan><tspan font-style="normal" class="text-inner-tspan" font-weight="normal"> inside</tspan><tspan font-style="normal" class="text-inner-tspan" font-weight="normal"> parent)</tspan></tspan><tspan class="text-outer-tspan row" x="0" y="2.1em" dy="1.1em"><tspan font-style="normal" class="text-inner-tspan" font-weight="normal">and</tspan><tspan font-style="normal" class="text-inner-tspan" font-weight="normal"> locality</tspan><tspan font-style="normal" class="text-inner-tspan" font-weight="normal"> on</tspan><tspan font-style="normal" class="text-inner-tspan" font-weight="normal"> a</tspan><tspan font-style="normal" class="text-inner-tspan" font-weight="normal"> B-tree?</tspan></tspan></text></g></g></g><g class="node default" id="gbb4601e8-7838-420b-b6b8-4387bc280f61-dark-flowchart-Q3a-11" data-look="classic" transform="translate(288.5953140258789, 1254.9578323364258)"><polygon points="127.3296890258789,0 254.6593780517578,-127.3296890258789 127.3296890258789,-254.6593780517578 0,-127.3296890258789" class="label-container" transform="translate(-126.8296890258789, 127.3296890258789)"></polygon><g class="label" style="" transform="translate(0, -35.900001525878906)"><rect></rect><g><rect class="background" style="stroke: none"></rect><text y="-10.1" style=""><tspan class="text-outer-tspan row" x="0" y="-0.1em" dy="1.1em"><tspan font-style="normal" class="text-inner-tspan" font-weight="normal">Plain</tspan><tspan font-style="normal" class="text-inner-tspan" font-weight="normal"> key/value</tspan><tspan font-style="normal" class="text-inner-tspan" font-weight="normal"> store</tspan></tspan><tspan class="text-outer-tspan row" x="0" y="1em" dy="1.1em"><tspan font-style="normal" class="text-inner-tspan" font-weight="normal">only</tspan><tspan font-style="normal" class="text-inner-tspan" font-weight="normal"> (Redis,</tspan><tspan font-style="normal" class="text-inner-tspan" font-weight="normal"> ES,</tspan><tspan font-style="normal" class="text-inner-tspan" font-weight="normal"> etc.)</tspan></tspan><tspan class="text-outer-tspan row" x="0" y="2.1em" dy="1.1em"><tspan font-style="normal" class="text-inner-tspan" font-weight="normal">and</tspan><tspan font-style="normal" class="text-inner-tspan" font-weight="normal"> accept</tspan><tspan font-style="normal" class="text-inner-tspan" font-weight="normal"> latitude</tspan></tspan><tspan class="text-outer-tspan row" x="0" y="3.2em" dy="1.1em"><tspan font-style="normal" class="text-inner-tspan" font-weight="normal">area</tspan><tspan font-style="normal" class="text-inner-tspan" font-weight="normal"> distortion?</tspan></tspan></text></g></g></g><g class="node default pick" id="gbb4601e8-7838-420b-b6b8-4387bc280f61-dark-flowchart-Geohash-13" data-look="classic" transform="translate(266.4898452758789, 1547.0687637329102)"><rect class="basic label-container" style="fill:#0d47a1 !important;stroke:#0d47a1 !important" x="-106.71875" y="-59.70000076293945" width="213.4375" height="119.4000015258789"></rect><g class="label" style="color:#ffffff !important" transform="translate(0, -44.70000076293945)"><rect></rect><g><rect class="background" style="stroke: none"></rect><text y="-10.1" style="fill:#404040 !important"><tspan class="text-outer-tspan row" x="0" y="-0.1em" dy="1.1em"><tspan font-style="normal" class="text-inner-tspan" font-weight="normal">Geohash</tspan></tspan><tspan class="text-outer-tspan row" x="0" y="1em" dy="1.1em"><tspan font-style="normal" class="text-inner-tspan" font-weight="normal">base-32</tspan><tspan font-style="normal" class="text-inner-tspan" font-weight="normal"> prefix</tspan><tspan font-style="normal" class="text-inner-tspan" font-weight="normal"> string,</tspan></tspan><tspan class="text-outer-tspan row" x="0" y="2.1em" dy="1.1em"><tspan font-style="normal" class="text-inner-tspan" font-weight="normal">Z-order</tspan><tspan font-style="normal" class="text-inner-tspan" font-weight="normal"> curve;</tspan></tspan><tspan class="text-outer-tspan row" x="0" y="3.2em" dy="1.1em"><tspan font-style="normal" class="text-inner-tspan" font-weight="normal">supported</tspan><tspan font-style="normal" class="text-inner-tspan" font-weight="normal"> almost</tspan></tspan><tspan class="text-outer-tspan row" x="0" y="4.300000000000001em" dy="1.1em"><tspan font-style="normal" class="text-inner-tspan" font-weight="normal">everywhere.</tspan></tspan></text></g></g></g><g class="node default pick" id="gbb4601e8-7838-420b-b6b8-4387bc280f61-dark-flowchart-S2-15" data-look="classic" transform="translate(552.1304702758789, 1547.0687637329102)"><rect class="basic label-container" style="fill:#0d47a1 !important;stroke:#0d47a1 !important" x="-128.921875" y="-68.5" width="257.84375" height="137"></rect><g class="label" style="color:#ffffff !important" transform="translate(0, -53.5)"><rect></rect><g><rect class="background" style="stroke: none"></rect><text y="-10.1" style="fill:#404040 !important"><tspan class="text-outer-tspan row" x="0" y="-0.1em" dy="1.1em"><tspan font-style="normal" class="text-inner-tspan" font-weight="normal">S2</tspan></tspan><tspan class="text-outer-tspan row" x="0" y="1em" dy="1.1em"><tspan font-style="normal" class="text-inner-tspan" font-weight="normal">quadrilateral</tspan><tspan font-style="normal" class="text-inner-tspan" font-weight="normal"> cells</tspan><tspan font-style="normal" class="text-inner-tspan" font-weight="normal"> on</tspan><tspan font-style="normal" class="text-inner-tspan" font-weight="normal"> cube,</tspan></tspan><tspan class="text-outer-tspan row" x="0" y="2.1em" dy="1.1em"><tspan font-style="normal" class="text-inner-tspan" font-weight="normal">Hilbert</tspan><tspan font-style="normal" class="text-inner-tspan" font-weight="normal"> curve,</tspan><tspan font-style="normal" class="text-inner-tspan" font-weight="normal"> 64-bit</tspan><tspan font-style="normal" class="text-inner-tspan" font-weight="normal"> ID;</tspan></tspan><tspan class="text-outer-tspan row" x="0" y="3.2em" dy="1.1em"><tspan font-style="normal" class="text-inner-tspan" font-weight="normal">used</tspan><tspan font-style="normal" class="text-inner-tspan" font-weight="normal"> by</tspan><tspan font-style="normal" class="text-inner-tspan" font-weight="normal"> Google</tspan><tspan font-style="normal" class="text-inner-tspan" font-weight="normal"> Maps,</tspan></tspan><tspan class="text-outer-tspan row" x="0" y="4.300000000000001em" dy="1.1em"><tspan font-style="normal" class="text-inner-tspan" font-weight="normal">MongoDB</tspan><tspan font-style="normal" class="text-inner-tspan" font-weight="normal"> 2dsphere,</tspan></tspan><tspan class="text-outer-tspan row" x="0" y="5.4em" dy="1.1em"><tspan font-style="normal" class="text-inner-tspan" font-weight="normal">CockroachDB.</tspan></tspan></text></g></g></g><g class="node default" id="gbb4601e8-7838-420b-b6b8-4387bc280f61-dark-flowchart-Q4-17" data-look="classic" transform="translate(836.0406265258789, 1254.9578323364258)"><polygon points="150.6109390258789,0 301.2218780517578,-150.6109390258789 150.6109390258789,-301.2218780517578 0,-150.6109390258789" class="label-container" transform="translate(-150.1109390258789, 150.6109390258789)"></polygon><g class="label" style="" transform="translate(0, -35.900001525878906)"><rect></rect><g><rect class="background" style="stroke: none"></rect><text y="-10.1" style=""><tspan class="text-outer-tspan row" x="0" y="-0.1em" dy="1.1em"><tspan font-style="normal" class="text-inner-tspan" font-weight="normal">Aggregations</tspan><tspan font-style="normal" class="text-inner-tspan" font-weight="normal"> /</tspan><tspan font-style="normal" class="text-inner-tspan" font-weight="normal"> heatmaps</tspan></tspan><tspan class="text-outer-tspan row" x="0" y="1em" dy="1.1em"><tspan font-style="normal" class="text-inner-tspan" font-weight="normal">where</tspan><tspan font-style="normal" class="text-inner-tspan" font-weight="normal"> uniform</tspan><tspan font-style="normal" class="text-inner-tspan" font-weight="normal"> neighbor</tspan></tspan><tspan class="text-outer-tspan row" x="0" y="2.1em" dy="1.1em"><tspan font-style="normal" class="text-inner-tspan" font-weight="normal">distance</tspan><tspan font-style="normal" class="text-inner-tspan" font-weight="normal"> matters</tspan><tspan font-style="normal" class="text-inner-tspan" font-weight="normal"> more</tspan><tspan font-style="normal" class="text-inner-tspan" font-weight="normal"> than</tspan></tspan><tspan class="text-outer-tspan row" x="0" y="3.2em" dy="1.1em"><tspan font-style="normal" class="text-inner-tspan" font-weight="normal">strict</tspan><tspan font-style="normal" class="text-inner-tspan" font-weight="normal"> containment?</tspan></tspan></text></g></g></g><g class="node default pick" id="gbb4601e8-7838-420b-b6b8-4387bc280f61-dark-flowchart-H3-19" data-look="classic" transform="translate(858.1460952758789, 1547.0687637329102)"><rect class="basic label-container" style="fill:#0d47a1 !important;stroke:#0d47a1 !important" x="-127.09375" y="-50.900001525878906" width="254.1875" height="101.80000305175781"></rect><g class="label" style="color:#ffffff !important" transform="translate(0, -35.900001525878906)"><rect></rect><g><rect class="background" style="stroke: none"></rect><text y="-10.1" style="fill:#404040 !important"><tspan class="text-outer-tspan row" x="0" y="-0.1em" dy="1.1em"><tspan font-style="normal" class="text-inner-tspan" font-weight="normal">H3</tspan></tspan><tspan class="text-outer-tspan row" x="0" y="1em" dy="1.1em"><tspan font-style="normal" class="text-inner-tspan" font-weight="normal">hexagons</tspan><tspan font-style="normal" class="text-inner-tspan" font-weight="normal"> on</tspan><tspan font-style="normal" class="text-inner-tspan" font-weight="normal"> icosahedron,</tspan></tspan><tspan class="text-outer-tspan row" x="0" y="2.1em" dy="1.1em"><tspan font-style="normal" class="text-inner-tspan" font-weight="normal">uniform</tspan><tspan font-style="normal" class="text-inner-tspan" font-weight="normal"> neighbor</tspan><tspan font-style="normal" class="text-inner-tspan" font-weight="normal"> distance;</tspan></tspan><tspan class="text-outer-tspan row" x="0" y="3.2em" dy="1.1em"><tspan font-style="normal" class="text-inner-tspan" font-weight="normal">Uber</tspan><tspan font-style="normal" class="text-inner-tspan" font-weight="normal"> default.</tspan></tspan></text></g></g></g></g></g></g><defs><filter id="gbb4601e8-7838-420b-b6b8-4387bc280f61-dark-drop-shadow" height="130%" width="130%"><feDropShadow dx="4" dy="4" stdDeviation="0" flood-opacity="0.06" flood-color="#000000"></feDropShadow></filter></defs><defs><filter id="gbb4601e8-7838-420b-b6b8-4387bc280f61-dark-drop-shadow-small" height="150%" width="150%"><feDropShadow dx="2" dy="2" stdDeviation="0" flood-opacity="0.06" flood-color="#000000"></feDropShadow></filter></defs><linearGradient id="gbb4601e8-7838-420b-b6b8-4387bc280f61-dark-gradient" gradientUnits="objectBoundingBox" x1="0%" y1="0%" x2="100%" y2="0%"><stop offset="0%" stop-color="#555555" stop-opacity="1"></stop><stop offset="100%" stop-color="#555555" stop-opacity="1"></stop></linearGradient></svg>