<svg id="gc208f853-0b0d-45e0-ac57-f2c185eb4dcf-light" width="100%" xmlns="http://www.w3.org/2000/svg" xmlns:xlink="http://www.w3.org/1999/xlink" class="flowchart" style="max-width: 1137.7906494140625px;" viewBox="0 0 1137.7906494140625 590.5999755859375" role="graphics-document document" aria-roledescription="flowchart-v2"><style>#gc208f853-0b0d-45e0-ac57-f2c185eb4dcf-light{font-family:"trebuchet ms",verdana,arial,sans-serif;font-size:16px;fill:#333;}@keyframes edge-animation-frame{from{stroke-dashoffset:0;}}@keyframes dash{to{stroke-dashoffset:0;}}#gc208f853-0b0d-45e0-ac57-f2c185eb4dcf-light .edge-animation-slow{stroke-dasharray:9,5!important;stroke-dashoffset:900;animation:dash 50s linear infinite;stroke-linecap:round;}#gc208f853-0b0d-45e0-ac57-f2c185eb4dcf-light .edge-animation-fast{stroke-dasharray:9,5!important;stroke-dashoffset:900;animation:dash 20s linear infinite;stroke-linecap:round;}#gc208f853-0b0d-45e0-ac57-f2c185eb4dcf-light .error-icon{fill:#552222;}#gc208f853-0b0d-45e0-ac57-f2c185eb4dcf-light .error-text{fill:#552222;stroke:#552222;}#gc208f853-0b0d-45e0-ac57-f2c185eb4dcf-light .edge-thickness-normal{stroke-width:1px;}#gc208f853-0b0d-45e0-ac57-f2c185eb4dcf-light .edge-thickness-thick{stroke-width:3.5px;}#gc208f853-0b0d-45e0-ac57-f2c185eb4dcf-light .edge-pattern-solid{stroke-dasharray:0;}#gc208f853-0b0d-45e0-ac57-f2c185eb4dcf-light .edge-thickness-invisible{stroke-width:0;fill:none;}#gc208f853-0b0d-45e0-ac57-f2c185eb4dcf-light .edge-pattern-dashed{stroke-dasharray:3;}#gc208f853-0b0d-45e0-ac57-f2c185eb4dcf-light .edge-pattern-dotted{stroke-dasharray:2;}#gc208f853-0b0d-45e0-ac57-f2c185eb4dcf-light .marker{fill:#333333;stroke:#333333;}#gc208f853-0b0d-45e0-ac57-f2c185eb4dcf-light .marker.cross{stroke:#333333;}#gc208f853-0b0d-45e0-ac57-f2c185eb4dcf-light svg{font-family:"trebuchet ms",verdana,arial,sans-serif;font-size:16px;}#gc208f853-0b0d-45e0-ac57-f2c185eb4dcf-light p{margin:0;}#gc208f853-0b0d-45e0-ac57-f2c185eb4dcf-light .label{font-family:"trebuchet ms",verdana,arial,sans-serif;color:#333;}#gc208f853-0b0d-45e0-ac57-f2c185eb4dcf-light .cluster-label text{fill:#333;}#gc208f853-0b0d-45e0-ac57-f2c185eb4dcf-light .cluster-label span{color:#333;}#gc208f853-0b0d-45e0-ac57-f2c185eb4dcf-light .cluster-label span p{background-color:transparent;}#gc208f853-0b0d-45e0-ac57-f2c185eb4dcf-light .label text,#gc208f853-0b0d-45e0-ac57-f2c185eb4dcf-light span{fill:#333;color:#333;}#gc208f853-0b0d-45e0-ac57-f2c185eb4dcf-light .node rect,#gc208f853-0b0d-45e0-ac57-f2c185eb4dcf-light .node circle,#gc208f853-0b0d-45e0-ac57-f2c185eb4dcf-light .node ellipse,#gc208f853-0b0d-45e0-ac57-f2c185eb4dcf-light .node polygon,#gc208f853-0b0d-45e0-ac57-f2c185eb4dcf-light .node path{fill:#ECECFF;stroke:#9370DB;stroke-width:1px;}#gc208f853-0b0d-45e0-ac57-f2c185eb4dcf-light .rough-node .label text,#gc208f853-0b0d-45e0-ac57-f2c185eb4dcf-light .node .label text,#gc208f853-0b0d-45e0-ac57-f2c185eb4dcf-light .image-shape .label,#gc208f853-0b0d-45e0-ac57-f2c185eb4dcf-light .icon-shape .label{text-anchor:middle;}#gc208f853-0b0d-45e0-ac57-f2c185eb4dcf-light .node .katex path{fill:#000;stroke:#000;stroke-width:1px;}#gc208f853-0b0d-45e0-ac57-f2c185eb4dcf-light .rough-node .label,#gc208f853-0b0d-45e0-ac57-f2c185eb4dcf-light .node .label,#gc208f853-0b0d-45e0-ac57-f2c185eb4dcf-light .image-shape .label,#gc208f853-0b0d-45e0-ac57-f2c185eb4dcf-light .icon-shape .label{text-align:center;}#gc208f853-0b0d-45e0-ac57-f2c185eb4dcf-light .node.clickable{cursor:pointer;}#gc208f853-0b0d-45e0-ac57-f2c185eb4dcf-light .root .anchor path{fill:#333333!important;stroke-width:0;stroke:#333333;}#gc208f853-0b0d-45e0-ac57-f2c185eb4dcf-light .arrowheadPath{fill:#333333;}#gc208f853-0b0d-45e0-ac57-f2c185eb4dcf-light .edgePath .path{stroke:#333333;stroke-width:1px;}#gc208f853-0b0d-45e0-ac57-f2c185eb4dcf-light .flowchart-link{stroke:#333333;fill:none;}#gc208f853-0b0d-45e0-ac57-f2c185eb4dcf-light .edgeLabel{background-color:rgba(232,232,232, 0.8);text-align:center;}#gc208f853-0b0d-45e0-ac57-f2c185eb4dcf-light .edgeLabel p{background-color:rgba(232,232,232, 0.8);}#gc208f853-0b0d-45e0-ac57-f2c185eb4dcf-light .edgeLabel rect{opacity:0.5;background-color:rgba(232,232,232, 0.8);fill:rgba(232,232,232, 0.8);}#gc208f853-0b0d-45e0-ac57-f2c185eb4dcf-light .labelBkg{background-color:rgba(232, 232, 232, 0.5);}#gc208f853-0b0d-45e0-ac57-f2c185eb4dcf-light .cluster rect{fill:#ffffde;stroke:#aaaa33;stroke-width:1px;}#gc208f853-0b0d-45e0-ac57-f2c185eb4dcf-light .cluster text{fill:#333;}#gc208f853-0b0d-45e0-ac57-f2c185eb4dcf-light .cluster span{color:#333;}#gc208f853-0b0d-45e0-ac57-f2c185eb4dcf-light div.mermaidTooltip{position:absolute;text-align:center;max-width:200px;padding:2px;font-family:"trebuchet ms",verdana,arial,sans-serif;font-size:12px;background:hsl(80, 100%, 96.2745098039%);border:1px solid #aaaa33;border-radius:2px;pointer-events:none;z-index:100;}#gc208f853-0b0d-45e0-ac57-f2c185eb4dcf-light .flowchartTitleText{text-anchor:middle;font-size:18px;fill:#333;}#gc208f853-0b0d-45e0-ac57-f2c185eb4dcf-light rect.text{fill:none;stroke-width:0;}#gc208f853-0b0d-45e0-ac57-f2c185eb4dcf-light .icon-shape,#gc208f853-0b0d-45e0-ac57-f2c185eb4dcf-light .image-shape{background-color:rgba(232,232,232, 0.8);text-align:center;}#gc208f853-0b0d-45e0-ac57-f2c185eb4dcf-light .icon-shape p,#gc208f853-0b0d-45e0-ac57-f2c185eb4dcf-light .image-shape p{background-color:rgba(232,232,232, 0.8);padding:2px;}#gc208f853-0b0d-45e0-ac57-f2c185eb4dcf-light .icon-shape .label rect,#gc208f853-0b0d-45e0-ac57-f2c185eb4dcf-light .image-shape .label rect{opacity:0.5;background-color:rgba(232,232,232, 0.8);fill:rgba(232,232,232, 0.8);}#gc208f853-0b0d-45e0-ac57-f2c185eb4dcf-light .label-icon{display:inline-block;height:1em;overflow:visible;vertical-align:-0.125em;}#gc208f853-0b0d-45e0-ac57-f2c185eb4dcf-light .node .label-icon path{fill:currentColor;stroke:revert;stroke-width:revert;}#gc208f853-0b0d-45e0-ac57-f2c185eb4dcf-light .node .neo-node{stroke:#9370DB;}#gc208f853-0b0d-45e0-ac57-f2c185eb4dcf-light [data-look="neo"].node rect,#gc208f853-0b0d-45e0-ac57-f2c185eb4dcf-light [data-look="neo"].cluster rect,#gc208f853-0b0d-45e0-ac57-f2c185eb4dcf-light [data-look="neo"].node polygon{stroke:#9370DB;filter:drop-shadow(1px 2px 2px rgba(185, 185, 185, 1));}#gc208f853-0b0d-45e0-ac57-f2c185eb4dcf-light [data-look="neo"].node path{stroke:#9370DB;stroke-width:1px;}#gc208f853-0b0d-45e0-ac57-f2c185eb4dcf-light [data-look="neo"].node .outer-path{filter:drop-shadow(1px 2px 2px rgba(185, 185, 185, 1));}#gc208f853-0b0d-45e0-ac57-f2c185eb4dcf-light [data-look="neo"].node .neo-line path{stroke:#9370DB;filter:none;}#gc208f853-0b0d-45e0-ac57-f2c185eb4dcf-light [data-look="neo"].node circle{stroke:#9370DB;filter:drop-shadow(1px 2px 2px rgba(185, 185, 185, 1));}#gc208f853-0b0d-45e0-ac57-f2c185eb4dcf-light [data-look="neo"].node circle .state-start{fill:#000000;}#gc208f853-0b0d-45e0-ac57-f2c185eb4dcf-light [data-look="neo"].icon-shape .icon{fill:#9370DB;filter:drop-shadow(1px 2px 2px rgba(185, 185, 185, 1));}#gc208f853-0b0d-45e0-ac57-f2c185eb4dcf-light [data-look="neo"].icon-shape .icon-neo path{stroke:#9370DB;filter:drop-shadow(1px 2px 2px rgba(185, 185, 185, 1));}#gc208f853-0b0d-45e0-ac57-f2c185eb4dcf-light :root{--mermaid-font-family:"trebuchet ms",verdana,arial,sans-serif;}</style><g><marker id="gc208f853-0b0d-45e0-ac57-f2c185eb4dcf-light_flowchart-v2-pointEnd" class="marker flowchart-v2" viewBox="0 0 10 10" refX="5" refY="5" markerUnits="userSpaceOnUse" markerWidth="8" markerHeight="8" orient="auto"><path d="M 0 0 L 10 5 L 0 10 z" class="arrowMarkerPath" style="stroke-width: 1; stroke-dasharray: 1, 0;"></path></marker><marker id="gc208f853-0b0d-45e0-ac57-f2c185eb4dcf-light_flowchart-v2-pointStart" class="marker flowchart-v2" viewBox="0 0 10 10" refX="4.5" refY="5" markerUnits="userSpaceOnUse" markerWidth="8" markerHeight="8" orient="auto"><path d="M 0 5 L 10 10 L 10 0 z" class="arrowMarkerPath" style="stroke-width: 1; stroke-dasharray: 1, 0;"></path></marker><marker id="gc208f853-0b0d-45e0-ac57-f2c185eb4dcf-light_flowchart-v2-pointEnd-margin" class="marker flowchart-v2" viewBox="0 0 11.5 14" refX="11.5" refY="7" markerUnits="userSpaceOnUse" markerWidth="10.5" markerHeight="14" orient="auto"><path d="M 0 0 L 11.5 7 L 0 14 z" class="arrowMarkerPath" style="stroke-width: 0; stroke-dasharray: 1, 0;"></path></marker><marker id="gc208f853-0b0d-45e0-ac57-f2c185eb4dcf-light_flowchart-v2-pointStart-margin" class="marker flowchart-v2" viewBox="0 0 11.5 14" refX="1" refY="7" markerUnits="userSpaceOnUse" markerWidth="11.5" markerHeight="14" orient="auto"><polygon points="0,7 11.5,14 11.5,0" class="arrowMarkerPath" style="stroke-width: 0; stroke-dasharray: 1, 0;"></polygon></marker><marker id="gc208f853-0b0d-45e0-ac57-f2c185eb4dcf-light_flowchart-v2-circleEnd" class="marker flowchart-v2" viewBox="0 0 10 10" refX="11" refY="5" markerUnits="userSpaceOnUse" markerWidth="11" markerHeight="11" orient="auto"><circle cx="5" cy="5" r="5" class="arrowMarkerPath" style="stroke-width: 1; stroke-dasharray: 1, 0;"></circle></marker><marker id="gc208f853-0b0d-45e0-ac57-f2c185eb4dcf-light_flowchart-v2-circleStart" class="marker flowchart-v2" viewBox="0 0 10 10" refX="-1" refY="5" markerUnits="userSpaceOnUse" markerWidth="11" markerHeight="11" orient="auto"><circle cx="5" cy="5" r="5" class="arrowMarkerPath" style="stroke-width: 1; stroke-dasharray: 1, 0;"></circle></marker><marker id="gc208f853-0b0d-45e0-ac57-f2c185eb4dcf-light_flowchart-v2-circleEnd-margin" class="marker flowchart-v2" viewBox="0 0 10 10" refY="5" refX="12.25" markerUnits="userSpaceOnUse" markerWidth="14" markerHeight="14" orient="auto"><circle cx="5" cy="5" r="5" class="arrowMarkerPath" style="stroke-width: 0; stroke-dasharray: 1, 0;"></circle></marker><marker id="gc208f853-0b0d-45e0-ac57-f2c185eb4dcf-light_flowchart-v2-circleStart-margin" class="marker flowchart-v2" viewBox="0 0 10 10" refX="-2" refY="5" markerUnits="userSpaceOnUse" markerWidth="14" markerHeight="14" orient="auto"><circle cx="5" cy="5" r="5" class="arrowMarkerPath" style="stroke-width: 0; stroke-dasharray: 1, 0;"></circle></marker><marker id="gc208f853-0b0d-45e0-ac57-f2c185eb4dcf-light_flowchart-v2-crossEnd" class="marker cross flowchart-v2" viewBox="0 0 11 11" refX="12" refY="5.2" markerUnits="userSpaceOnUse" markerWidth="11" markerHeight="11" orient="auto"><path d="M 1,1 l 9,9 M 10,1 l -9,9" class="arrowMarkerPath" style="stroke-width: 2; stroke-dasharray: 1, 0;"></path></marker><marker id="gc208f853-0b0d-45e0-ac57-f2c185eb4dcf-light_flowchart-v2-crossStart" class="marker cross flowchart-v2" viewBox="0 0 11 11" refX="-1" refY="5.2" markerUnits="userSpaceOnUse" markerWidth="11" markerHeight="11" orient="auto"><path d="M 1,1 l 9,9 M 10,1 l -9,9" class="arrowMarkerPath" style="stroke-width: 2; stroke-dasharray: 1, 0;"></path></marker><marker id="gc208f853-0b0d-45e0-ac57-f2c185eb4dcf-light_flowchart-v2-crossEnd-margin" class="marker cross flowchart-v2" viewBox="0 0 15 15" refX="17.7" refY="7.5" markerUnits="userSpaceOnUse" markerWidth="12" markerHeight="12" orient="auto"><path d="M 1,1 L 14,14 M 1,14 L 14,1" class="arrowMarkerPath" style="stroke-width: 2.5;"></path></marker><marker id="gc208f853-0b0d-45e0-ac57-f2c185eb4dcf-light_flowchart-v2-crossStart-margin" class="marker cross flowchart-v2" viewBox="0 0 15 15" refX="-3.5" refY="7.5" markerUnits="userSpaceOnUse" markerWidth="12" markerHeight="12" orient="auto"><path d="M 1,1 L 14,14 M 1,14 L 14,1" class="arrowMarkerPath" style="stroke-width: 2.5; stroke-dasharray: 1, 0;"></path></marker><g class="root"><g class="clusters"></g><g class="edgePaths"><path d="M519.247,42.5L519.164,46.583C519.08,50.667,518.914,58.833,518.9,66.5C518.887,74.167,519.028,81.334,519.098,84.917L519.168,88.501" id="gc208f853-0b0d-45e0-ac57-f2c185eb4dcf-light-L_Img_Q1_0" class="edge-thickness-normal edge-pattern-solid edge-thickness-normal edge-pattern-solid flowchart-link" style=";" data-edge="true" data-et="edge" data-id="L_Img_Q1_0" data-points="W3sieCI6NTE5LjI0Njg3NTc2MjkzOTUsInkiOjQyLjV9LHsieCI6NTE4Ljc0Njg3NTc2MjkzOTUsInkiOjY3fSx7IngiOjUxOS4yNDY4NzU3NjI5Mzk1LCJ5Ijo5Mi41fV0=" data-look="classic" marker-end="url(#gc208f853-0b0d-45e0-ac57-f2c185eb4dcf-light_flowchart-v2-pointEnd)"></path><path d="M416.378,143.519L391.086,149.616C365.794,155.713,315.209,167.906,289.992,179.503C264.774,191.1,264.922,202.1,264.997,207.6L265.071,213.1" id="gc208f853-0b0d-45e0-ac57-f2c185eb4dcf-light-L_Q1_Q2_0" class="edge-thickness-normal edge-pattern-solid edge-thickness-normal edge-pattern-solid flowchart-link" style=";" data-edge="true" data-et="edge" data-id="L_Q1_Q2_0" data-points="W3sieCI6NDE2LjM3ODI3Njg3NTk4MjQ2LCJ5IjoxNDMuNTE5MDU0NTE0OTA0Mjd9LHsieCI6MjY0LjYyNSwieSI6MTgwLjA5OTk5ODQ3NDEyMTF9LHsieCI6MjY1LjEyNSwieSI6MjE3LjA5OTk5ODQ3NDEyMTEyfV0=" data-look="classic" marker-end="url(#gc208f853-0b0d-45e0-ac57-f2c185eb4dcf-light_flowchart-v2-pointEnd)"></path><path d="M206.229,268.7L192.258,274.7C178.288,280.7,150.347,292.7,136.377,305.583C122.406,318.467,122.406,332.233,122.406,339.117L122.406,346" id="gc208f853-0b0d-45e0-ac57-f2c185eb4dcf-light-L_Q2_Eager_0" class="edge-thickness-normal edge-pattern-solid edge-thickness-normal edge-pattern-solid flowchart-link" style=";" data-edge="true" data-et="edge" data-id="L_Q2_Eager_0" data-points="W3sieCI6MjA2LjIyODYzMjY0MTU3MTk1LCJ5IjoyNjguNjk5OTk2OTQ4MjQyMn0seyJ4IjoxMjIuNDA2MjUsInkiOjMwNC42OTk5OTY5NDgyNDIyfSx7IngiOjEyMi40MDYyNSwieSI6MzUwfV0=" data-look="classic" marker-end="url(#gc208f853-0b0d-45e0-ac57-f2c185eb4dcf-light_flowchart-v2-pointEnd)"></path><path d="M324.021,268.7L337.825,274.7C351.629,280.7,379.236,292.7,393.04,304.117C406.844,315.533,406.844,326.367,406.844,331.783L406.844,337.2" id="gc208f853-0b0d-45e0-ac57-f2c185eb4dcf-light-L_Q2_Preload_0" class="edge-thickness-normal edge-pattern-solid edge-thickness-normal edge-pattern-solid flowchart-link" style=";" data-edge="true" data-et="edge" data-id="L_Q2_Preload_0" data-points="W3sieCI6MzI0LjAyMTM2NzM1ODQyODA1LCJ5IjoyNjguNjk5OTk2OTQ4MjQyMn0seyJ4Ijo0MDYuODQzNzUsInkiOjMwNC42OTk5OTY5NDgyNDIyfSx7IngiOjQwNi44NDM3NSwieSI6MzQxLjE5OTk5Njk0ODI0MjJ9XQ==" data-look="classic" marker-end="url(#gc208f853-0b0d-45e0-ac57-f2c185eb4dcf-light_flowchart-v2-pointEnd)"></path><path d="M622.979,141.792L651.455,148.177C679.931,154.562,736.884,167.331,765.436,180.682C793.989,194.033,794.141,207.967,794.217,214.934L794.293,221.9" id="gc208f853-0b0d-45e0-ac57-f2c185eb4dcf-light-L_Q1_Q3_0" class="edge-thickness-normal edge-pattern-solid edge-thickness-normal edge-pattern-solid flowchart-link" style=";" data-edge="true" data-et="edge" data-id="L_Q1_Q3_0" data-points="W3sieCI6NjIyLjk3ODgzNDI5NDk3NzQsInkiOjE0MS43OTIzMjc1OTUzNDcyfSx7IngiOjc5My44MzY3MTk1MTI5Mzk1LCJ5IjoxODAuMDk5OTk4NDc0MTIxMX0seyJ4Ijo3OTQuMzM2NzE5NTEyOTM5MiwieSI6MjI1Ljg5OTk5NzcxMTE4MTY0fV0=" data-look="classic" marker-end="url(#gc208f853-0b0d-45e0-ac57-f2c185eb4dcf-light_flowchart-v2-pointEnd)"></path><path d="M761.251,259.9L746.473,267.367C731.696,274.833,702.141,289.767,687.363,305.583C672.586,321.4,672.586,338.1,672.586,346.45L672.586,354.8" id="gc208f853-0b0d-45e0-ac57-f2c185eb4dcf-light-L_Q3_Default_0" class="edge-thickness-normal edge-pattern-solid edge-thickness-normal edge-pattern-solid flowchart-link" style=";" data-edge="true" data-et="edge" data-id="L_Q3_Default_0" data-points="W3sieCI6NzYxLjI1MDYzMDkxODAzMzMsInkiOjI1OS44OTk5OTc3MTExODE2NH0seyJ4Ijo2NzIuNTg1OTM3NSwieSI6MzA0LjY5OTk5Njk0ODI0MjJ9LHsieCI6NjcyLjU4NTkzNzUsInkiOjM1OC43OTk5OTkyMzcwNjA1NX1d" data-look="classic" marker-end="url(#gc208f853-0b0d-45e0-ac57-f2c185eb4dcf-light_flowchart-v2-pointEnd)"></path><path d="M827.423,259.9L842.034,267.367C856.644,274.833,885.866,289.767,900.555,306.917C915.243,324.067,915.399,343.433,915.477,353.117L915.555,362.8" id="gc208f853-0b0d-45e0-ac57-f2c185eb4dcf-light-L_Q3_Q4_0" class="edge-thickness-normal edge-pattern-solid edge-thickness-normal edge-pattern-solid flowchart-link" style=";" data-edge="true" data-et="edge" data-id="L_Q3_Q4_0" data-points="W3sieCI6ODI3LjQyMjgwODEwNzg0NTUsInkiOjI1OS44OTk5OTc3MTExODE2NH0seyJ4Ijo5MTUuMDg3NTAxNTI1ODc4OSwieSI6MzA0LjY5OTk5Njk0ODI0MjJ9LHsieCI6OTE1LjU4NzUwMTUyNTg3ODksInkiOjM2Ni43OTk5OTkyMzcwNjA1NX1d" data-look="classic" marker-end="url(#gc208f853-0b0d-45e0-ac57-f2c185eb4dcf-light_flowchart-v2-pointEnd)"></path><path d="M880.462,418.4L866.401,428.583C852.34,438.767,824.217,459.133,810.156,474.733C796.095,490.333,796.095,501.167,796.095,506.583L796.095,512" id="gc208f853-0b0d-45e0-ac57-f2c185eb4dcf-light-L_Q4_LowLazy_0" class="edge-thickness-normal edge-pattern-solid edge-thickness-normal edge-pattern-solid flowchart-link" style=";" data-edge="true" data-et="edge" data-id="L_Q4_LowLazy_0" data-points="W3sieCI6ODgwLjQ2MTY2MjkzMTg0NjgsInkiOjQxOC4zOTk5OTc3MTExODE2NH0seyJ4Ijo3OTYuMDk1MzE0MDI1ODc4OSwieSI6NDc5LjV9LHsieCI6Nzk2LjA5NTMxNDAyNTg3ODksInkiOjUxNn1d" data-look="classic" marker-end="url(#gc208f853-0b0d-45e0-ac57-f2c185eb4dcf-light_flowchart-v2-pointEnd)"></path><path d="M950.713,418.4L964.608,428.583C978.502,438.767,1006.291,459.133,1020.185,474.733C1034.08,490.333,1034.08,501.167,1034.08,506.583L1034.08,512" id="gc208f853-0b0d-45e0-ac57-f2c185eb4dcf-light-L_Q4_Lazy_0" class="edge-thickness-normal edge-pattern-solid edge-thickness-normal edge-pattern-solid flowchart-link" style=";" data-edge="true" data-et="edge" data-id="L_Q4_Lazy_0" data-points="W3sieCI6OTUwLjcxMzM0MDExOTkxMDgsInkiOjQxOC4zOTk5OTc3MTExODE2NH0seyJ4IjoxMDM0LjA3OTY4OTAyNTg3OSwieSI6NDc5LjV9LHsieCI6MTAzNC4wNzk2ODkwMjU4NzksInkiOjUxNn1d" data-look="classic" marker-end="url(#gc208f853-0b0d-45e0-ac57-f2c185eb4dcf-light_flowchart-v2-pointEnd)"></path></g><g class="edgeLabels"><g class="edgeLabel"><g class="label" data-id="L_Img_Q1_0" transform="translate(0, 0)"><text y="-10.1" text-anchor="middle"><tspan class="text-outer-tspan row" x="0" y="-0.1em" dy="1.1em" text-anchor="middle"></tspan></text></g></g><g><rect class="background" style="stroke: none"></rect></g><g class="edgeLabel" transform="translate(264.625, 180.0999984741211)"><g class="label" data-id="L_Q1_Q2_0" transform="translate(0, -10.5)"><g><rect class="background" style="" x="-13.328125" y="-1" width="26.65625" height="23"></rect><text y="-10.1" text-anchor="middle" style=""><tspan class="text-outer-tspan row" x="0" y="-0.1em" dy="1.1em" text-anchor="middle"><tspan font-style="normal" class="text-inner-tspan" font-weight="normal">Yes</tspan></tspan></text></g></g></g><g class="edgeLabel" transform="translate(122.40625, 304.6999969482422)"><g class="label" data-id="L_Q2_Eager_0" transform="translate(0, -10.5)"><g><rect class="background" style="" x="-13.328125" y="-1" width="26.65625" height="23"></rect><text y="-10.1" text-anchor="middle" style=""><tspan class="text-outer-tspan row" x="0" y="-0.1em" dy="1.1em" text-anchor="middle"><tspan font-style="normal" class="text-inner-tspan" font-weight="normal">Yes</tspan></tspan></text></g></g></g><g class="edgeLabel" transform="translate(406.84375, 304.6999969482422)"><g class="label" data-id="L_Q2_Preload_0" transform="translate(0, -10.5)"><g><rect class="background" style="" x="-58.171875" y="-1" width="116.34375" height="23"></rect><text y="-10.1" text-anchor="middle" style=""><tspan class="text-outer-tspan row" x="0" y="-0.1em" dy="1.1em" text-anchor="middle"><tspan font-style="normal" class="text-inner-tspan" font-weight="normal">No,</tspan><tspan font-style="normal" class="text-inner-tspan" font-weight="normal"> in</tspan><tspan font-style="normal" class="text-inner-tspan" font-weight="normal"> CSS</tspan><tspan font-style="normal" class="text-inner-tspan" font-weight="normal"> or</tspan><tspan font-style="normal" class="text-inner-tspan" font-weight="normal"> JS</tspan></tspan></text></g></g></g><g class="edgeLabel" transform="translate(793.8367195129395, 180.0999984741211)"><g class="label" data-id="L_Q1_Q3_0" transform="translate(0, -10.5)"><g><rect class="background" style="" x="-11.3984375" y="-1" width="22.796875" height="23"></rect><text y="-10.1" text-anchor="middle" style=""><tspan class="text-outer-tspan row" x="0" y="-0.1em" dy="1.1em" text-anchor="middle"><tspan font-style="normal" class="text-inner-tspan" font-weight="normal">No</tspan></tspan></text></g></g></g><g class="edgeLabel" transform="translate(672.5859375, 304.6999969482422)"><g class="label" data-id="L_Q3_Default_0" transform="translate(0, -10.5)"><g><rect class="background" style="" x="-13.328125" y="-1" width="26.65625" height="23"></rect><text y="-10.1" text-anchor="middle" style=""><tspan class="text-outer-tspan row" x="0" y="-0.1em" dy="1.1em" text-anchor="middle"><tspan font-style="normal" class="text-inner-tspan" font-weight="normal">Yes</tspan></tspan></text></g></g></g><g class="edgeLabel" transform="translate(915.0875015258789, 304.6999969482422)"><g class="label" data-id="L_Q3_Q4_0" transform="translate(0, -10.5)"><g><rect class="background" style="" x="-11.3984375" y="-1" width="22.796875" height="23"></rect><text y="-10.1" text-anchor="middle" style=""><tspan class="text-outer-tspan row" x="0" y="-0.1em" dy="1.1em" text-anchor="middle"><tspan font-style="normal" class="text-inner-tspan" font-weight="normal">No</tspan></tspan></text></g></g></g><g class="edgeLabel" transform="translate(796.0953140258789, 479.5)"><g class="label" data-id="L_Q4_LowLazy_0" transform="translate(0, -10.5)"><g><rect class="background" style="" x="-13.328125" y="-1" width="26.65625" height="23"></rect><text y="-10.1" text-anchor="middle" style=""><tspan class="text-outer-tspan row" x="0" y="-0.1em" dy="1.1em" text-anchor="middle"><tspan font-style="normal" class="text-inner-tspan" font-weight="normal">Yes</tspan></tspan></text></g></g></g><g class="edgeLabel" transform="translate(1034.079689025879, 479.5)"><g class="label" data-id="L_Q4_Lazy_0" transform="translate(0, -10.5)"><g><rect class="background" style="" x="-68.3671875" y="-1" width="136.734375" height="23"></rect><text y="-10.1" text-anchor="middle" style=""><tspan class="text-outer-tspan row" x="0" y="-0.1em" dy="1.1em" text-anchor="middle"><tspan font-style="normal" class="text-inner-tspan" font-weight="normal">No,</tspan><tspan font-style="normal" class="text-inner-tspan" font-weight="normal"> content</tspan><tspan font-style="normal" class="text-inner-tspan" font-weight="normal"> image</tspan></tspan></text></g></g></g></g><g class="nodes"><g class="node default" id="gc208f853-0b0d-45e0-ac57-f2c185eb4dcf-light-flowchart-Img-0" data-look="classic" transform="translate(518.7468757629395, 25)"><g class="basic label-container outer-path"><path d="M-53.34375 -17 C-16.989160101542403 -17, 19.365429796915194 -17, 53.34375 -17 C53.34375 -17, 53.34375 -17, 53.34375 -17 C53.69028407739021 -16.988887326625758, 54.03681815478041 -16.97777465325152, 54.43294373967212 -16.965071676755716 C54.85147939535302 -16.92469604541495, 55.270015051033916 -16.884320414074185, 55.5176617486366 -16.860430234995185 C55.83531070330806 -16.80907521540834, 56.15295965797952 -16.75772019582149, 56.593446687923326 -16.686505668848113 C56.889702335537756 -16.61888725052889, 57.18595798315219 -16.55126883220967, 57.65587792646162 -16.4440126716635 C57.95836680421484 -16.354235560542865, 58.26085568196807 -16.26445844942223, 58.70058970640155 -16.133947699181366 C59.06375785491979 -16.000298463437087, 59.426926003438034 -15.866649227692811, 59.72328908294936 -15.757584874882369 C60.09714880689313 -15.592088265247138, 60.47100853083691 -15.426591655611906, 60.71977356499849 -15.316470754341125 C61.06550374068132 -15.136103543138137, 61.41123391636416 -14.95573633193515, 61.68594838406694 -14.812417970097622 C61.94942273258069 -14.652698271681448, 62.21289708109445 -14.492978573265273, 62.617843320579325 -14.247497783161291 C62.93268205759864 -14.02787990936588, 63.247520794617955 -13.808262035570472, 63.511629018350675 -13.624031571755262 C63.69111721149566 -13.48089451410355, 63.87060540464065 -13.33775745645184, 64.3636327202324 -12.944581292275288 C64.62602996661323 -12.70627905576291, 64.88842721299407 -12.46797681925053, 65.17035336025927 -12.21193895166137 C65.33350023236694 -12.043476411602889, 65.49664710447462 -11.875013871544406, 65.92847595028036 -11.42911513444239 C66.13144021954247 -11.190701754773025, 66.33440448880458 -10.952288375103663, 66.63488520195651 -10.59932663159847 C66.77177787329195 -10.415902923187886, 66.9086705446274 -10.232479214777301, 67.28667832814824 -9.725983222076888 C67.40879470219522 -9.538379678702857, 67.5309110762422 -9.350776135328827, 67.88117697109088 -8.812673661278927 C68.0891143082998 -8.443459863125879, 68.29705164550872 -8.074246064972831, 68.415938208341 -7.863150934094199 C68.53043436257191 -7.625397220008472, 68.64493051680282 -7.387643505922746, 68.88876459126881 -6.881316833080699 C69.00030591169299 -6.605807615128264, 69.11184723211716 -6.330298397175831, 69.29771317484592 -5.871205925162238 C69.40520342458734 -5.5474624191865844, 69.51269367432877 -5.223718913210931, 69.64110350162323 -4.836968972727556 C69.70953104122638 -4.576025107537472, 69.77795858082953 -4.315081242347388, 69.917524507091 -3.7828558772573464 C69.96563257417884 -3.535831120404893, 70.01374064126666 -3.2888063635524394, 70.12584031804565 -2.713198215567453 C70.1632905824193 -2.422741360476651, 70.20074084679294 -2.1322845053858495, 70.26519492013637 -1.632391440430593 C70.2902672105746 -1.241870278866611, 70.31533950101283 -0.8513491173026287, 70.3350156754117 -0.5448768187181379 C70.3350156754117 -0.14749556969097444, 70.3350156754117 0.249885679336189, 70.3350156754117 0.5448768187181336 C70.31908480039324 0.7930130563014683, 70.30315392537479 1.041149293884803, 70.26519492013637 1.6323914404305815 C70.22211101759707 1.9665416806464306, 70.17902711505779 2.3006919208622794, 70.12584031804565 2.7131982155674415 C70.0603103499506 3.049680751971865, 69.99478038185555 3.386163288376289, 69.917524507091 3.782855877257343 C69.86056826706448 4.0000547054690365, 69.80361202703797 4.217253533680729, 69.64110350162323 4.836968972727545 C69.5349104855167 5.156805417681, 69.42871746941019 5.476641862634454, 69.29771317484592 5.871205925162227 C69.19480938590728 6.1253802733501175, 69.09190559696862 6.379554621538009, 68.88876459126881 6.881316833080694 C68.70552063424812 7.261826830626757, 68.52227667722741 7.642336828172819, 68.415938208341 7.863150934094196 C68.25582314227334 8.14745144730588, 68.0957080762057 8.431751960517563, 67.88117697109088 8.812673661278923 C67.74713741730395 9.018594410555567, 67.61309786351703 9.22451515983221, 67.28667832814826 9.725983222076879 C67.10398145297194 9.970780390785423, 66.9212845777956 10.215577559493967, 66.63488520195651 10.599326631598467 C66.39290423923453 10.883571239518545, 66.15092327651256 11.167815847438622, 65.92847595028037 11.42911513444238 C65.72270254018432 11.641593074677717, 65.51692913008826 11.854071014913055, 65.17035336025927 12.211938951661365 C64.9068766331092 12.451221544046865, 64.64339990595914 12.690504136432363, 64.36363272023242 12.944581292275275 C64.05926623018837 13.187305468552944, 63.754899740144324 13.430029644830613, 63.511629018350675 13.62403157175526 C63.272065337181765 13.79114082519408, 63.032501656012855 13.958250078632899, 62.61784332057934 14.247497783161286 C62.28872692259225 14.4470100777237, 61.95961052460515 14.646522372286116, 61.68594838406695 14.81241797009762 C61.475431840078826 14.92224431625394, 61.26491529609071 15.032070662410257, 60.71977356499849 15.316470754341124 C60.49513184408232 15.415912980430823, 60.27049012316616 15.515355206520521, 59.723289082949364 15.757584874882367 C59.353560878424936 15.893648271877414, 58.98383267390051 16.02971166887246, 58.70058970640156 16.133947699181363 C58.42237728922472 16.216519684232672, 58.144164872047874 16.299091669283982, 57.65587792646164 16.444012671663497 C57.261704742086046 16.53398012877681, 56.86753155771046 16.623947585890125, 56.59344668792333 16.68650566884811 C56.34670099396938 16.726397599105148, 56.099955300015424 16.76628952936219, 55.51766174863661 16.86043023499518 C55.167862207209154 16.89417497606119, 54.818062665781696 16.9279197171272, 54.43294373967212 16.965071676755716 C54.080045489204004 16.976388436773455, 53.72714723873589 16.987705196791193, 53.34375 17 C53.34375 17, 53.34375 17, 53.34375 17 C17.97777070542569 17, -17.38820858914862 17, -53.34375 17 C-53.570893630647106 16.992715945873403, -53.79803726129421 16.985431891746806, -54.43294373967211 16.965071676755716 C-54.65050281135075 16.94408401476394, -54.86806188302939 16.92309635277217, -55.517661748636606 16.86043023499518 C-55.7619699121501 16.820932385756425, -56.0062780756636 16.781434536517665, -56.593446687923326 16.68650566884811 C-56.96363715833492 16.602012109695245, -57.33382762874651 16.517518550542377, -57.65587792646162 16.4440126716635 C-58.016112692042626 16.33709688414993, -58.37634745762363 16.23018109663636, -58.700589706401544 16.13394769918137 C-59.09195511331514 15.989921611695003, -59.48332052022874 15.845895524208636, -59.723289082949364 15.757584874882369 C-59.92275644299164 15.669286591580656, -60.12222380303392 15.580988308278945, -60.71977356499848 15.316470754341127 C-61.08469020878847 15.126093975016156, -61.44960685257846 14.935717195691183, -61.68594838406693 14.812417970097624 C-61.89644726056884 14.684812314133461, -62.10694613707075 14.557206658169301, -62.61784332057932 14.247497783161299 C-62.94924622468015 14.016325463461055, -63.280649128780986 13.78515314376081, -63.51162901835067 13.624031571755264 C-63.835489559807506 13.36576140823439, -64.15935010126435 13.107491244713515, -64.3636327202324 12.94458129227529 C-64.66094623607864 12.674569023668289, -64.95825975192488 12.404556755061288, -65.17035336025926 12.211938951661377 C-65.33761000679215 12.039232732090104, -65.50486665332504 11.866526512518831, -65.92847595028036 11.429115134442386 C-66.18317114011633 11.129935671894199, -66.4378663299523 10.83075620934601, -66.63488520195651 10.599326631598473 C-66.81549911000913 10.357320449073477, -66.99611301806175 10.115314266548479, -67.28667832814824 9.72598322207689 C-67.48773493278803 9.417106286092352, -67.6887915374278 9.108229350107814, -67.88117697109088 8.812673661278936 C-68.01872561950836 8.568442107702706, -68.15627426792585 8.324210554126475, -68.415938208341 7.863150934094201 C-68.52897623266561 7.628425057957871, -68.64201425699024 7.393699181821542, -68.88876459126881 6.881316833080701 C-68.98890270443884 6.633973757512015, -69.08904081760888 6.386630681943328, -69.29771317484592 5.87120592516224 C-69.3845075419446 5.609795120265425, -69.47130190904329 5.348384315368611, -69.64110350162323 4.8369689727275516 C-69.71052033127542 4.572252515819516, -69.77993716092759 4.30753605891148, -69.917524507091 3.782855877257349 C-69.993960801605 3.3903716597445417, -70.070397096119 2.9978874422317348, -70.12584031804565 2.713198215567455 C-70.1803077658199 2.290759446444475, -70.23477521359415 1.868320677321495, -70.26519492013637 1.6323914404306026 C-70.27952532493693 1.4091838183674263, -70.29385572973747 1.1859761963042499, -70.3350156754117 0.54487681871814 C-70.3350156754117 0.307537099438712, -70.3350156754117 0.07019738015928406, -70.3350156754117 -0.5448768187181317 C-70.32065407960722 -0.7685702658443709, -70.30629248380274 -0.9922637129706102, -70.26519492013637 -1.6323914404305793 C-70.2325343324292 -1.8857005091248986, -70.19987374472201 -2.139009577819218, -70.12584031804565 -2.713198215567447 C-70.05737174211008 -3.0647698821579485, -69.98890316617451 -3.4163415487484508, -69.917524507091 -3.782855877257341 C-69.8365697024865 -4.091571633248552, -69.75561489788201 -4.400287389239763, -69.64110350162323 -4.836968972727544 C-69.5504599654882 -5.109972861480058, -69.45981642935317 -5.382976750232571, -69.29771317484594 -5.871205925162218 C-69.18053391199307 -6.160640969915738, -69.0633546491402 -6.450076014669259, -68.88876459126881 -6.881316833080692 C-68.75956803879372 -7.149596238658611, -68.63037148631862 -7.417875644236529, -68.415938208341 -7.863150934094194 C-68.26563309273625 -8.130032886893803, -68.11532797713149 -8.39691483969341, -67.88117697109088 -8.812673661278929 C-67.69341128673024 -9.10113217460289, -67.5056456023696 -9.389590687926852, -67.28667832814826 -9.725983222076884 C-67.15015655783633 -9.908909956905731, -67.0136347875244 -10.09183669173458, -66.63488520195651 -10.599326631598467 C-66.459057808577 -10.80586349272415, -66.28323041519748 -11.012400353849834, -65.92847595028037 -11.42911513444238 C-65.7260816434439 -11.638103873132646, -65.52368733660745 -11.847092611822912, -65.17035336025927 -12.21193895166136 C-64.96617142990175 -12.39737157845423, -64.76198949954421 -12.582804205247102, -64.36363272023242 -12.944581292275274 C-64.0357263467835 -13.20607789914572, -63.70781997333459 -13.467574506016167, -63.511629018350675 -13.624031571755259 C-63.21816211949725 -13.828741376418108, -62.924695220643834 -14.033451181080958, -62.61784332057934 -14.247497783161284 C-62.281985501973715 -14.451096766519639, -61.94612768336808 -14.654695749877991, -61.68594838406695 -14.812417970097618 C-61.33116019640199 -14.997510740349746, -60.97637200873704 -15.182603510601872, -60.71977356499849 -15.316470754341124 C-60.38766994802978 -15.463483174069397, -60.05556633106107 -15.610495593797673, -59.72328908294937 -15.757584874882365 C-59.41474903717492 -15.87113046384028, -59.10620899140047 -15.984676052798196, -58.700589706401566 -16.133947699181363 C-58.31920053057121 -16.247142004615174, -57.93781135474085 -16.36033631004899, -57.65587792646164 -16.444012671663494 C-57.233360104834425 -16.540449607263447, -56.810842283207215 -16.6368865428634, -56.59344668792333 -16.68650566884811 C-56.20389076768134 -16.749486048981556, -55.81433484743934 -16.812466429115, -55.51766174863661 -16.86043023499518 C-55.22368165009724 -16.88879014153848, -54.92970155155786 -16.917150048081776, -54.43294373967212 -16.965071676755716 C-53.99822580582888 -16.97901223476694, -53.56350787198565 -16.99295279277817, -53.34375000000001 -17 C-53.34375000000001 -17, -53.34375 -17, -53.34375 -17" stroke="none" stroke-width="0" fill="#ECECFF" style=""></path><path d="M-53.34375 -17 C-23.8337637772616 -17, 5.676222445476803 -17, 53.34375 -17 M-53.34375 -17 C-26.454707275945257 -17, 0.4343354481094863 -17, 53.34375 -17 M53.34375 -17 C53.34375 -17, 53.34375 -17, 53.34375 -17 M53.34375 -17 C53.34375 -17, 53.34375 -17, 53.34375 -17 M53.34375 -17 C53.61237036718683 -16.991385867662146, 53.88099073437366 -16.982771735324288, 54.43294373967212 -16.965071676755716 M53.34375 -17 C53.56464465573173 -16.992916338336048, 53.78553931146347 -16.985832676672093, 54.43294373967212 -16.965071676755716 M54.43294373967212 -16.965071676755716 C54.744137549606286 -16.935051184176682, 55.055331359540446 -16.905030691597645, 55.5176617486366 -16.860430234995185 M54.43294373967212 -16.965071676755716 C54.85432436767452 -16.924421594356676, 55.27570499567692 -16.883771511957637, 55.5176617486366 -16.860430234995185 M55.5176617486366 -16.860430234995185 C55.88145557731952 -16.801614870037007, 56.245249406002436 -16.742799505078832, 56.593446687923326 -16.686505668848113 M55.5176617486366 -16.860430234995185 C55.91848885277594 -16.795627617258553, 56.319315956915275 -16.730824999521925, 56.593446687923326 -16.686505668848113 M56.593446687923326 -16.686505668848113 C56.95327371676977 -16.604377497604716, 57.31310074561622 -16.522249326361315, 57.65587792646162 -16.4440126716635 M56.593446687923326 -16.686505668848113 C56.93292279590449 -16.609022462490046, 57.27239890388565 -16.53153925613198, 57.65587792646162 -16.4440126716635 M57.65587792646162 -16.4440126716635 C57.95895934820798 -16.35405969659603, 58.26204076995435 -16.264106721528552, 58.70058970640155 -16.133947699181366 M57.65587792646162 -16.4440126716635 C58.004271087694804 -16.340611410162513, 58.35266424892799 -16.237210148661525, 58.70058970640155 -16.133947699181366 M58.70058970640155 -16.133947699181366 C59.06441585341798 -16.000056313907287, 59.428242000434395 -15.866164928633207, 59.72328908294936 -15.757584874882369 M58.70058970640155 -16.133947699181366 C58.92428362745154 -16.051626268431033, 59.14797754850153 -15.969304837680697, 59.72328908294936 -15.757584874882369 M59.72328908294936 -15.757584874882369 C59.9691484130887 -15.648750242587584, 60.21500774322805 -15.539915610292796, 60.71977356499849 -15.316470754341125 M59.72328908294936 -15.757584874882369 C59.99126290368927 -15.638960813601772, 60.25923672442917 -15.520336752321173, 60.71977356499849 -15.316470754341125 M60.71977356499849 -15.316470754341125 C61.05996796181124 -15.138991555428827, 61.40016235862398 -14.961512356516527, 61.68594838406694 -14.812417970097622 M60.71977356499849 -15.316470754341125 C60.952320924154854 -15.195150946022943, 61.18486828331122 -15.073831137704762, 61.68594838406694 -14.812417970097622 M61.68594838406694 -14.812417970097622 C62.05819625002599 -14.586759126181965, 62.43044411598505 -14.361100282266309, 62.617843320579325 -14.247497783161291 M61.68594838406694 -14.812417970097622 C61.888498024470614 -14.689631187771106, 62.09104766487428 -14.56684440544459, 62.617843320579325 -14.247497783161291 M62.617843320579325 -14.247497783161291 C62.93480628137768 -14.026398142813784, 63.251769242176046 -13.805298502466277, 63.511629018350675 -13.624031571755262 M62.617843320579325 -14.247497783161291 C62.9073246012683 -14.045568173195333, 63.196805881957275 -13.843638563229375, 63.511629018350675 -13.624031571755262 M63.511629018350675 -13.624031571755262 C63.745108072854926 -13.437838238926696, 63.978587127359184 -13.25164490609813, 64.3636327202324 -12.944581292275288 M63.511629018350675 -13.624031571755262 C63.75638655683832 -13.428843948083003, 64.00114409532597 -13.233656324410743, 64.3636327202324 -12.944581292275288 M64.3636327202324 -12.944581292275288 C64.66076440935456 -12.674734153888231, 64.95789609847672 -12.404887015501176, 65.17035336025927 -12.21193895166137 M64.3636327202324 -12.944581292275288 C64.54344058093892 -12.781284550636919, 64.72324844164545 -12.61798780899855, 65.17035336025927 -12.21193895166137 M65.17035336025927 -12.21193895166137 C65.38476680190279 -11.990539469493495, 65.5991802435463 -11.769139987325621, 65.92847595028036 -11.42911513444239 M65.17035336025927 -12.21193895166137 C65.41260040961551 -11.961798984348412, 65.65484745897176 -11.711659017035455, 65.92847595028036 -11.42911513444239 M65.92847595028036 -11.42911513444239 C66.20483928717077 -11.104483033411553, 66.4812026240612 -10.779850932380716, 66.63488520195651 -10.59932663159847 M65.92847595028036 -11.42911513444239 C66.09347114618443 -11.235302388840866, 66.25846634208848 -11.041489643239343, 66.63488520195651 -10.59932663159847 M66.63488520195651 -10.59932663159847 C66.83958016089177 -10.325054034719594, 67.04427511982705 -10.050781437840715, 67.28667832814824 -9.725983222076888 M66.63488520195651 -10.59932663159847 C66.86758209200629 -10.28753399805456, 67.10027898205605 -9.975741364510649, 67.28667832814824 -9.725983222076888 M67.28667832814824 -9.725983222076888 C67.4278375733046 -9.509124714951986, 67.56899681846095 -9.292266207827083, 67.88117697109088 -8.812673661278927 M67.28667832814824 -9.725983222076888 C67.50074472020019 -9.397119759010183, 67.71481111225215 -9.068256295943478, 67.88117697109088 -8.812673661278927 M67.88117697109088 -8.812673661278927 C67.99981930400436 -8.602012185352109, 68.11846163691783 -8.391350709425291, 68.415938208341 -7.863150934094199 M67.88117697109088 -8.812673661278927 C68.09438242918678 -8.434105781035958, 68.30758788728268 -8.05553790079299, 68.415938208341 -7.863150934094199 M68.415938208341 -7.863150934094199 C68.59475813383878 -7.491827532664606, 68.77357805933654 -7.1205041312350135, 68.88876459126881 -6.881316833080699 M68.415938208341 -7.863150934094199 C68.60398553968345 -7.472666626993288, 68.79203287102588 -7.082182319892376, 68.88876459126881 -6.881316833080699 M68.88876459126881 -6.881316833080699 C68.97557455909053 -6.6668945342045, 69.06238452691225 -6.452472235328303, 69.29771317484592 -5.871205925162238 M68.88876459126881 -6.881316833080699 C68.99559982876659 -6.617431730942392, 69.10243506626436 -6.353546628804085, 69.29771317484592 -5.871205925162238 M69.29771317484592 -5.871205925162238 C69.43294333413525 -5.463914231382702, 69.56817349342455 -5.056622537603167, 69.64110350162323 -4.836968972727556 M69.29771317484592 -5.871205925162238 C69.42716782352935 -5.481309149125023, 69.55662247221275 -5.091412373087808, 69.64110350162323 -4.836968972727556 M69.64110350162323 -4.836968972727556 C69.71218389447303 -4.565908628354168, 69.78326428732282 -4.29484828398078, 69.917524507091 -3.7828558772573464 M69.64110350162323 -4.836968972727556 C69.71121262397189 -4.569612503726323, 69.78132174632053 -4.30225603472509, 69.917524507091 -3.7828558772573464 M69.917524507091 -3.7828558772573464 C69.96891004761636 -3.519001986997475, 70.0202955881417 -3.2551480967376034, 70.12584031804565 -2.713198215567453 M69.917524507091 -3.7828558772573464 C69.97753734068176 -3.4747026604856734, 70.03755017427251 -3.1665494437140005, 70.12584031804565 -2.713198215567453 M70.12584031804565 -2.713198215567453 C70.17842969579327 -2.30532538670417, 70.23101907354089 -1.8974525578408865, 70.26519492013637 -1.632391440430593 M70.12584031804565 -2.713198215567453 C70.16384078623864 -2.418474088303844, 70.20184125443163 -2.123749961040235, 70.26519492013637 -1.632391440430593 M70.26519492013637 -1.632391440430593 C70.29270619420582 -1.203881140098186, 70.32021746827527 -0.7753708397657788, 70.3350156754117 -0.5448768187181379 M70.26519492013637 -1.632391440430593 C70.28996413785407 -1.2465908811245858, 70.31473335557179 -0.8607903218185786, 70.3350156754117 -0.5448768187181379 M70.3350156754117 -0.5448768187181379 C70.3350156754117 -0.11624072933716945, 70.3350156754117 0.312395360043799, 70.3350156754117 0.5448768187181336 M70.3350156754117 -0.5448768187181379 C70.3350156754117 -0.2754651683119234, 70.3350156754117 -0.0060535179057089605, 70.3350156754117 0.5448768187181336 M70.3350156754117 0.5448768187181336 C70.31926258299808 0.7902439487275884, 70.30350949058446 1.0356110787370432, 70.26519492013637 1.6323914404305815 M70.3350156754117 0.5448768187181336 C70.30912135493163 0.9482017617143775, 70.28322703445157 1.3515267047106214, 70.26519492013637 1.6323914404305815 M70.26519492013637 1.6323914404305815 C70.22214057616637 1.966312430220067, 70.17908623219635 2.3002334200095524, 70.12584031804565 2.7131982155674415 M70.26519492013637 1.6323914404305815 C70.23593232281242 1.8593463667216723, 70.20666972548847 2.086301293012763, 70.12584031804565 2.7131982155674415 M70.12584031804565 2.7131982155674415 C70.07955295693289 2.950874032044219, 70.03326559582014 3.1885498485209967, 69.917524507091 3.782855877257343 M70.12584031804565 2.7131982155674415 C70.05305988184176 3.0869103733237866, 69.98027944563786 3.4606225310801313, 69.917524507091 3.782855877257343 M69.917524507091 3.782855877257343 C69.82219424773388 4.146391472581824, 69.72686398837675 4.509927067906306, 69.64110350162323 4.836968972727545 M69.917524507091 3.782855877257343 C69.84402881020374 4.063126822725022, 69.77053311331646 4.343397768192702, 69.64110350162323 4.836968972727545 M69.64110350162323 4.836968972727545 C69.51082762339422 5.2293391613109605, 69.38055174516519 5.621709349894376, 69.29771317484592 5.871205925162227 M69.64110350162323 4.836968972727545 C69.55660485148994 5.091465443897439, 69.47210620135665 5.345961915067334, 69.29771317484592 5.871205925162227 M69.29771317484592 5.871205925162227 C69.18710863890252 6.144401267335688, 69.07650410295909 6.41759660950915, 68.88876459126881 6.881316833080694 M69.29771317484592 5.871205925162227 C69.18318531018662 6.154091965116332, 69.06865744552732 6.436978005070437, 68.88876459126881 6.881316833080694 M68.88876459126881 6.881316833080694 C68.75034257232913 7.168753117165692, 68.61192055338944 7.45618940125069, 68.415938208341 7.863150934094196 M68.88876459126881 6.881316833080694 C68.70397737882543 7.265031433532349, 68.51919016638203 7.648746033984004, 68.415938208341 7.863150934094196 M68.415938208341 7.863150934094196 C68.28971686179588 8.087269716182346, 68.16349551525076 8.311388498270498, 67.88117697109088 8.812673661278923 M68.415938208341 7.863150934094196 C68.2550698155039 8.148789055267645, 68.09420142266679 8.434427176441096, 67.88117697109088 8.812673661278923 M67.88117697109088 8.812673661278923 C67.66685050184668 9.141936672753424, 67.4525240326025 9.471199684227923, 67.28667832814826 9.725983222076879 M67.88117697109088 8.812673661278923 C67.71740877890257 9.064265582397272, 67.55364058671425 9.31585750351562, 67.28667832814826 9.725983222076879 M67.28667832814826 9.725983222076879 C67.02980987398918 10.070163549452454, 66.7729414198301 10.414343876828031, 66.63488520195651 10.599326631598467 M67.28667832814826 9.725983222076879 C67.11333727257805 9.95824444484592, 66.93999621700785 10.190505667614962, 66.63488520195651 10.599326631598467 M66.63488520195651 10.599326631598467 C66.47686921350241 10.784941203001104, 66.31885322504833 10.970555774403739, 65.92847595028037 11.42911513444238 M66.63488520195651 10.599326631598467 C66.3645572534883 10.916869221965243, 66.09422930502011 11.234411812332018, 65.92847595028037 11.42911513444238 M65.92847595028037 11.42911513444238 C65.70421332284891 11.66068470956949, 65.47995069541746 11.892254284696598, 65.17035336025927 12.211938951661365 M65.92847595028037 11.42911513444238 C65.68585314387009 11.679643101763853, 65.44323033745981 11.930171069085326, 65.17035336025927 12.211938951661365 M65.17035336025927 12.211938951661365 C64.95047728448377 12.411624586078505, 64.73060120870826 12.611310220495644, 64.36363272023242 12.944581292275275 M65.17035336025927 12.211938951661365 C64.96179101154439 12.401349758506864, 64.75322866282951 12.590760565352362, 64.36363272023242 12.944581292275275 M64.36363272023242 12.944581292275275 C64.02481033550546 13.214783127652693, 63.68598795077852 13.48498496303011, 63.511629018350675 13.62403157175526 M64.36363272023242 12.944581292275275 C64.15541740345616 13.110627466562063, 63.947202086679894 13.27667364084885, 63.511629018350675 13.62403157175526 M63.511629018350675 13.62403157175526 C63.27165681162153 13.791425794940109, 63.03168460489239 13.958820018124959, 62.61784332057934 14.247497783161286 M63.511629018350675 13.62403157175526 C63.302476979805114 13.76992697979882, 63.09332494125956 13.915822387842377, 62.61784332057934 14.247497783161286 M62.61784332057934 14.247497783161286 C62.369602638730356 14.397982743322315, 62.121361956881366 14.548467703483343, 61.68594838406695 14.81241797009762 M62.61784332057934 14.247497783161286 C62.39943883579109 14.379895865327144, 62.18103435100283 14.512293947493003, 61.68594838406695 14.81241797009762 M61.68594838406695 14.81241797009762 C61.39138560424346 14.966091183655069, 61.09682282441997 15.119764397212517, 60.71977356499849 15.316470754341124 M61.68594838406695 14.81241797009762 C61.334984828835374 14.995515432059046, 60.984021273603794 15.178612894020473, 60.71977356499849 15.316470754341124 M60.71977356499849 15.316470754341124 C60.32217600454931 15.492475400039396, 59.924578444100135 15.66848004573767, 59.723289082949364 15.757584874882367 M60.71977356499849 15.316470754341124 C60.514789775458695 15.40721099734232, 60.3098059859189 15.497951240343516, 59.723289082949364 15.757584874882367 M59.723289082949364 15.757584874882367 C59.34963835704478 15.8950917960047, 58.9759876311402 16.032598717127033, 58.70058970640156 16.133947699181363 M59.723289082949364 15.757584874882367 C59.50216842923866 15.838959319464822, 59.28104777552796 15.920333764047276, 58.70058970640156 16.133947699181363 M58.70058970640156 16.133947699181363 C58.41915913051879 16.21747481684413, 58.13772855463603 16.3010019345069, 57.65587792646164 16.444012671663497 M58.70058970640156 16.133947699181363 C58.363271521420195 16.234061965864548, 58.02595333643883 16.334176232547733, 57.65587792646164 16.444012671663497 M57.65587792646164 16.444012671663497 C57.393211303047735 16.503964614397816, 57.13054467963382 16.563916557132135, 56.59344668792333 16.68650566884811 M57.65587792646164 16.444012671663497 C57.25310947339059 16.53594194276718, 56.85034102031953 16.627871213870865, 56.59344668792333 16.68650566884811 M56.59344668792333 16.68650566884811 C56.3161054102057 16.731344055815764, 56.03876413248807 16.77618244278342, 55.51766174863661 16.86043023499518 M56.59344668792333 16.68650566884811 C56.291780154788604 16.735276774466428, 55.99011362165388 16.784047880084746, 55.51766174863661 16.86043023499518 M55.51766174863661 16.86043023499518 C55.25002430257309 16.886248897535808, 54.98238685650957 16.912067560076434, 54.43294373967212 16.965071676755716 M55.51766174863661 16.86043023499518 C55.25354383537258 16.8859093724395, 54.98942592210855 16.911388509883814, 54.43294373967212 16.965071676755716 M54.43294373967212 16.965071676755716 C54.06219666877267 16.976960813704068, 53.69144959787322 16.988849950652416, 53.34375 17 M54.43294373967212 16.965071676755716 C54.01790072131284 16.978381298522272, 53.602857702953564 16.99169092028883, 53.34375 17 M53.34375 17 C53.34375 17, 53.34375 17, 53.34375 17 M53.34375 17 C53.34375 17, 53.34375 17, 53.34375 17 M53.34375 17 C10.739260366768569 17, -31.865229266462862 17, -53.34375 17 M53.34375 17 C31.25092624213124 17, 9.158102484262479 17, -53.34375 17 M-53.34375 17 C-53.6718470907193 16.98947856490288, -53.999944181438586 16.978957129805753, -54.43294373967211 16.965071676755716 M-53.34375 17 C-53.61694056700298 16.991239310249394, -53.890131134005955 16.98247862049879, -54.43294373967211 16.965071676755716 M-54.43294373967211 16.965071676755716 C-54.745529998189355 16.934916856336535, -55.05811625670659 16.904762035917354, -55.517661748636606 16.86043023499518 M-54.43294373967211 16.965071676755716 C-54.80799721906164 16.92889071866681, -55.183050698451176 16.892709760577905, -55.517661748636606 16.86043023499518 M-55.517661748636606 16.86043023499518 C-55.87931301029869 16.801961263657077, -56.24096427196076 16.743492292318976, -56.593446687923326 16.68650566884811 M-55.517661748636606 16.86043023499518 C-55.87130026071187 16.803256702870474, -56.224938772787134 16.746083170745766, -56.593446687923326 16.68650566884811 M-56.593446687923326 16.68650566884811 C-56.90856320107296 16.61458238104913, -57.22367971422259 16.542659093250148, -57.65587792646162 16.4440126716635 M-56.593446687923326 16.68650566884811 C-56.823712487165665 16.633949002795813, -57.05397828640801 16.581392336743516, -57.65587792646162 16.4440126716635 M-57.65587792646162 16.4440126716635 C-57.887965508646765 16.37513029552353, -58.12005309083192 16.306247919383555, -58.700589706401544 16.13394769918137 M-57.65587792646162 16.4440126716635 C-57.959999997858574 16.353750837242213, -58.26412206925553 16.26348900282093, -58.700589706401544 16.13394769918137 M-58.700589706401544 16.13394769918137 C-58.94051207428648 16.045654049981657, -59.18043444217142 15.957360400781942, -59.723289082949364 15.757584874882369 M-58.700589706401544 16.13394769918137 C-58.973610844690135 16.033473396511432, -59.24663198297873 15.932999093841493, -59.723289082949364 15.757584874882369 M-59.723289082949364 15.757584874882369 C-59.93093846825882 15.665664651706031, -60.13858785356829 15.573744428529693, -60.71977356499848 15.316470754341127 M-59.723289082949364 15.757584874882369 C-60.11105130327816 15.585934042500392, -60.49881352360695 15.414283210118414, -60.71977356499848 15.316470754341127 M-60.71977356499848 15.316470754341127 C-60.9518058576469 15.195419655890223, -61.18383815029532 15.07436855743932, -61.68594838406693 14.812417970097624 M-60.71977356499848 15.316470754341127 C-60.966545949934755 15.187729759185132, -61.21331833487102 15.058988764029136, -61.68594838406693 14.812417970097624 M-61.68594838406693 14.812417970097624 C-61.98939240127195 14.628468423632963, -62.292836418476966 14.444518877168303, -62.61784332057932 14.247497783161299 M-61.68594838406693 14.812417970097624 C-61.920370496177235 14.670309908119117, -62.15479260828753 14.528201846140611, -62.61784332057932 14.247497783161299 M-62.61784332057932 14.247497783161299 C-62.921121276890865 14.035944209529495, -63.22439923320241 13.824390635897691, -63.51162901835067 13.624031571755264 M-62.61784332057932 14.247497783161299 C-62.89738470609015 14.052501813780484, -63.17692609160098 13.857505844399672, -63.51162901835067 13.624031571755264 M-63.51162901835067 13.624031571755264 C-63.72266337900767 13.455737284991496, -63.933697739664666 13.287442998227728, -64.3636327202324 12.94458129227529 M-63.51162901835067 13.624031571755264 C-63.774628326063144 13.414296622560073, -64.03762763377561 13.204561673364882, -64.3636327202324 12.94458129227529 M-64.3636327202324 12.94458129227529 C-64.66802172642137 12.66814325054624, -64.97241073261034 12.391705208817193, -65.17035336025926 12.211938951661377 M-64.3636327202324 12.94458129227529 C-64.6310744905807 12.701697752566446, -64.898516260929 12.4588142128576, -65.17035336025926 12.211938951661377 M-65.17035336025926 12.211938951661377 C-65.3882809890649 11.986910782728485, -65.60620861787052 11.76188261379559, -65.92847595028036 11.429115134442386 M-65.17035336025926 12.211938951661377 C-65.385718596925 11.989556662989232, -65.60108383359074 11.767174374317088, -65.92847595028036 11.429115134442386 M-65.92847595028036 11.429115134442386 C-66.19772574601245 11.112839003628078, -66.46697554174455 10.79656287281377, -66.63488520195651 10.599326631598473 M-65.92847595028036 11.429115134442386 C-66.17180437741553 11.143287718149681, -66.4151328045507 10.857460301856975, -66.63488520195651 10.599326631598473 M-66.63488520195651 10.599326631598473 C-66.7736765079501 10.413358925715155, -66.91246781394368 10.227391219831837, -67.28667832814824 9.72598322207689 M-66.63488520195651 10.599326631598473 C-66.80591112251977 10.370167478825579, -66.97693704308305 10.141008326052685, -67.28667832814824 9.72598322207689 M-67.28667832814824 9.72598322207689 C-67.4656848684525 9.450981106183047, -67.64469140875676 9.175978990289204, -67.88117697109088 8.812673661278936 M-67.28667832814824 9.72598322207689 C-67.40757331946595 9.540256050562219, -67.52846831078365 9.354528879047548, -67.88117697109088 8.812673661278936 M-67.88117697109088 8.812673661278936 C-68.03147352383924 8.54580691269794, -68.18177007658761 8.278940164116941, -68.415938208341 7.863150934094201 M-67.88117697109088 8.812673661278936 C-68.02410272416375 8.558894513896176, -68.16702847723663 8.305115366513416, -68.415938208341 7.863150934094201 M-68.415938208341 7.863150934094201 C-68.57300956209315 7.536988907239295, -68.73008091584529 7.2108268803843885, -68.88876459126881 6.881316833080701 M-68.415938208341 7.863150934094201 C-68.5791357552457 7.5242677360784915, -68.74233330215039 7.185384538062781, -68.88876459126881 6.881316833080701 M-68.88876459126881 6.881316833080701 C-68.98325824117649 6.647915690898316, -69.07775189108415 6.41451454871593, -69.29771317484592 5.87120592516224 M-68.88876459126881 6.881316833080701 C-69.0112990453092 6.5786543625584475, -69.13383349934958 6.275991892036194, -69.29771317484592 5.87120592516224 M-69.29771317484592 5.87120592516224 C-69.43183528951477 5.467251485236634, -69.5659574041836 5.063297045311029, -69.64110350162323 4.8369689727275516 M-69.29771317484592 5.87120592516224 C-69.40513399245457 5.547671537708014, -69.51255481006321 5.224137150253788, -69.64110350162323 4.8369689727275516 M-69.64110350162323 4.8369689727275516 C-69.70365686760418 4.598425877441882, -69.76621023358513 4.3598827821562125, -69.917524507091 3.782855877257349 M-69.64110350162323 4.8369689727275516 C-69.71646372380373 4.549587784226421, -69.79182394598422 4.26220659572529, -69.917524507091 3.782855877257349 M-69.917524507091 3.782855877257349 C-69.99885489591577 3.365241519825933, -70.08018528474054 2.947627162394517, -70.12584031804565 2.713198215567455 M-69.917524507091 3.782855877257349 C-69.9926415332736 3.3971458237988044, -70.0677585594562 3.011435770340259, -70.12584031804565 2.713198215567455 M-70.12584031804565 2.713198215567455 C-70.16806292286736 2.3857280303666117, -70.21028552768908 2.0582578451657687, -70.26519492013637 1.6323914404306026 M-70.12584031804565 2.713198215567455 C-70.15830446426274 2.461412708278422, -70.19076861047985 2.209627200989389, -70.26519492013637 1.6323914404306026 M-70.26519492013637 1.6323914404306026 C-70.29099626204939 1.2305147136669659, -70.31679760396241 0.8286379869033289, -70.3350156754117 0.54487681871814 M-70.26519492013637 1.6323914404306026 C-70.2899839062827 1.2462829718919175, -70.31477289242905 0.8601745033532325, -70.3350156754117 0.54487681871814 M-70.3350156754117 0.54487681871814 C-70.3350156754117 0.17066523968363073, -70.3350156754117 -0.2035463393508785, -70.3350156754117 -0.5448768187181317 M-70.3350156754117 0.54487681871814 C-70.3350156754117 0.23921959139476906, -70.3350156754117 -0.06643763592860186, -70.3350156754117 -0.5448768187181317 M-70.3350156754117 -0.5448768187181317 C-70.31416401324746 -0.8696582880846859, -70.29331235108324 -1.1944397574512402, -70.26519492013637 -1.6323914404305793 M-70.3350156754117 -0.5448768187181317 C-70.3134070374669 -0.8814487968867792, -70.29179839952212 -1.2180207750554266, -70.26519492013637 -1.6323914404305793 M-70.26519492013637 -1.6323914404305793 C-70.21904621506208 -1.990311683894176, -70.17289750998779 -2.3482319273577725, -70.12584031804565 -2.713198215567447 M-70.26519492013637 -1.6323914404305793 C-70.23163885572986 -1.8926456495730157, -70.19808279132336 -2.152899858715452, -70.12584031804565 -2.713198215567447 M-70.12584031804565 -2.713198215567447 C-70.07793935073408 -2.959159558839322, -70.03003838342251 -3.2051209021111973, -69.917524507091 -3.782855877257341 M-70.12584031804565 -2.713198215567447 C-70.04987321282954 -3.1032732451988134, -69.97390610761343 -3.49334827483018, -69.917524507091 -3.782855877257341 M-69.917524507091 -3.782855877257341 C-69.83839267011479 -4.084619867602774, -69.75926083313855 -4.386383857948206, -69.64110350162323 -4.836968972727544 M-69.917524507091 -3.782855877257341 C-69.85093943400832 -4.03677361907482, -69.78435436092565 -4.290691360892299, -69.64110350162323 -4.836968972727544 M-69.64110350162323 -4.836968972727544 C-69.54702415515823 -5.120320974771898, -69.45294480869323 -5.403672976816253, -69.29771317484594 -5.871205925162218 M-69.64110350162323 -4.836968972727544 C-69.55426136399119 -5.098523654859654, -69.46741922635914 -5.360078336991765, -69.29771317484594 -5.871205925162218 M-69.29771317484594 -5.871205925162218 C-69.21416181699688 -6.07757939440501, -69.13061045914782 -6.283952863647802, -68.88876459126881 -6.881316833080692 M-69.29771317484594 -5.871205925162218 C-69.17841881947028 -6.16586528933955, -69.05912446409462 -6.460524653516883, -68.88876459126881 -6.881316833080692 M-68.88876459126881 -6.881316833080692 C-68.77099795232753 -7.125861778644658, -68.65323131338626 -7.370406724208623, -68.415938208341 -7.863150934094194 M-68.88876459126881 -6.881316833080692 C-68.76228316430804 -7.143958222433716, -68.6358017373473 -7.406599611786739, -68.415938208341 -7.863150934094194 M-68.415938208341 -7.863150934094194 C-68.28294643959086 -8.099291286386956, -68.14995467084071 -8.335431638679717, -67.88117697109088 -8.812673661278929 M-68.415938208341 -7.863150934094194 C-68.30666589486299 -8.057174991695998, -68.19739358138497 -8.251199049297803, -67.88117697109088 -8.812673661278929 M-67.88117697109088 -8.812673661278929 C-67.75828962714034 -9.00146162145922, -67.63540228318982 -9.190249581639511, -67.28667832814826 -9.725983222076884 M-67.88117697109088 -8.812673661278929 C-67.74369409572215 -9.023884277166543, -67.6062112203534 -9.235094893054157, -67.28667832814826 -9.725983222076884 M-67.28667832814826 -9.725983222076884 C-67.09867712890608 -9.977887701799819, -66.91067592966388 -10.229792181522756, -66.63488520195651 -10.599326631598467 M-67.28667832814826 -9.725983222076884 C-67.08899842246436 -9.990856286683425, -66.89131851678044 -10.255729351289963, -66.63488520195651 -10.599326631598467 M-66.63488520195651 -10.599326631598467 C-66.4764840575576 -10.785393629089882, -66.31808291315869 -10.971460626581296, -65.92847595028037 -11.42911513444238 M-66.63488520195651 -10.599326631598467 C-66.40333101272607 -10.871323358075157, -66.17177682349565 -11.143320084551847, -65.92847595028037 -11.42911513444238 M-65.92847595028037 -11.42911513444238 C-65.68539431688623 -11.680116878295092, -65.44231268349208 -11.931118622147801, -65.17035336025927 -12.21193895166136 M-65.92847595028037 -11.42911513444238 C-65.76534162543803 -11.597564718419253, -65.60220730059568 -11.766014302396128, -65.17035336025927 -12.21193895166136 M-65.17035336025927 -12.21193895166136 C-64.88093278563932 -12.474783059882425, -64.59151221101936 -12.73762716810349, -64.36363272023242 -12.944581292275274 M-65.17035336025927 -12.21193895166136 C-65.00099970965415 -12.365741456288882, -64.83164605904902 -12.519543960916405, -64.36363272023242 -12.944581292275274 M-64.36363272023242 -12.944581292275274 C-64.03084142192965 -13.209973496723359, -63.69805012362688 -13.475365701171443, -63.511629018350675 -13.624031571755259 M-64.36363272023242 -12.944581292275274 C-64.04983511848651 -13.194826529162755, -63.736037516740595 -13.445071766050237, -63.511629018350675 -13.624031571755259 M-63.511629018350675 -13.624031571755259 C-63.33126333816764 -13.749846862346493, -63.1508976579846 -13.875662152937725, -62.61784332057934 -14.247497783161284 M-63.511629018350675 -13.624031571755259 C-63.26692828839655 -13.794724208047384, -63.02222755844243 -13.96541684433951, -62.61784332057934 -14.247497783161284 M-62.61784332057934 -14.247497783161284 C-62.38516850027204 -14.38854662658059, -62.152493679964735 -14.529595469999894, -61.68594838406695 -14.812417970097618 M-62.61784332057934 -14.247497783161284 C-62.35841930806023 -14.404762144095088, -62.09899529554112 -14.562026505028893, -61.68594838406695 -14.812417970097618 M-61.68594838406695 -14.812417970097618 C-61.43026776322117 -14.945806386221607, -61.17458714237539 -15.079194802345596, -60.71977356499849 -15.316470754341124 M-61.68594838406695 -14.812417970097618 C-61.4650357867486 -14.927667930617327, -61.244123189430255 -15.042917891137037, -60.71977356499849 -15.316470754341124 M-60.71977356499849 -15.316470754341124 C-60.36061005768053 -15.475461784823883, -60.00144655036258 -15.634452815306641, -59.72328908294937 -15.757584874882365 M-60.71977356499849 -15.316470754341124 C-60.46393798611596 -15.429721576019613, -60.20810240723343 -15.542972397698101, -59.72328908294937 -15.757584874882365 M-59.72328908294937 -15.757584874882365 C-59.5177173480233 -15.833237173619446, -59.31214561309723 -15.908889472356528, -58.700589706401566 -16.133947699181363 M-59.72328908294937 -15.757584874882365 C-59.35135558326063 -15.894459840883407, -58.979422083571876 -16.03133480688445, -58.700589706401566 -16.133947699181363 M-58.700589706401566 -16.133947699181363 C-58.29657805323337 -16.25385623714124, -57.89256640006517 -16.37376477510112, -57.65587792646164 -16.444012671663494 M-58.700589706401566 -16.133947699181363 C-58.41193821698369 -16.219617946078, -58.12328672756581 -16.30528819297464, -57.65587792646164 -16.444012671663494 M-57.65587792646164 -16.444012671663494 C-57.43341240386225 -16.4947889754736, -57.210946881262856 -16.545565279283707, -56.59344668792333 -16.68650566884811 M-57.65587792646164 -16.444012671663494 C-57.293190445115314 -16.52679372252379, -56.93050296376899 -16.609574773384093, -56.59344668792333 -16.68650566884811 M-56.59344668792333 -16.68650566884811 C-56.348278028867966 -16.726142636332835, -56.10310936981261 -16.765779603817556, -55.51766174863661 -16.86043023499518 M-56.59344668792333 -16.68650566884811 C-56.263860552299136 -16.739790599277175, -55.93427441667494 -16.79307552970624, -55.51766174863661 -16.86043023499518 M-55.51766174863661 -16.86043023499518 C-55.19102966046352 -16.89194003970868, -54.864397572290436 -16.92344984442218, -54.43294373967212 -16.965071676755716 M-55.51766174863661 -16.86043023499518 C-55.15816451998969 -16.895110500284076, -54.798667291342774 -16.92979076557297, -54.43294373967212 -16.965071676755716 M-54.43294373967212 -16.965071676755716 C-54.09301796702914 -16.975972434659, -53.75309219438616 -16.986873192562282, -53.34375000000001 -17 M-54.43294373967212 -16.965071676755716 C-54.044011440584164 -16.977543978576673, -53.6550791414962 -16.99001628039763, -53.34375000000001 -17 M-53.34375000000001 -17 C-53.34375000000001 -17, -53.34375 -17, -53.34375 -17 M-53.34375000000001 -17 C-53.34375000000001 -17, -53.34375 -17, -53.34375 -17" stroke="#9370DB" stroke-width="1.3" fill="none" stroke-dasharray="0 0" style=""></path></g><g class="label" style="" transform="translate(0, -9.5)"><rect></rect><g><rect class="background" style="stroke: none"></rect><text y="-10.1" style=""><tspan class="text-outer-tspan row" x="0" y="-0.1em" dy="1.1em"><tspan font-style="normal" class="text-inner-tspan" font-weight="normal">Image</tspan><tspan font-style="normal" class="text-inner-tspan" font-weight="normal"> to</tspan><tspan font-style="normal" class="text-inner-tspan" font-weight="normal"> deliver</tspan></tspan></text></g></g></g><g class="node default" id="gc208f853-0b0d-45e0-ac57-f2c185eb4dcf-light-flowchart-Q1-1" data-look="classic" transform="translate(518.7468757629395, 117.79999923706055)"><polygon points="12.899999618530273,0 218.05624961853027,0 230.95624923706055,-25.799999237060547 218.05624961853027,-51.599998474121094 12.899999618530273,-51.599998474121094 0,-25.799999237060547" class="label-container" transform="translate(-115.47812461853027,25.799999237060547)"></polygon><g class="label" style="" transform="translate(0, -18.299999237060547)"><rect></rect><g><rect class="background" style="stroke: none"></rect><text y="-10.1" style=""><tspan class="text-outer-tspan row" x="0" y="-0.1em" dy="1.1em"><tspan font-style="normal" class="text-inner-tspan" font-weight="normal">LCP</tspan><tspan font-style="normal" class="text-inner-tspan" font-weight="normal"> candidate</tspan></tspan><tspan class="text-outer-tspan row" x="0" y="1em" dy="1.1em"><tspan font-style="normal" class="text-inner-tspan" font-weight="normal">(hero,</tspan><tspan font-style="normal" class="text-inner-tspan" font-weight="normal"> first</tspan><tspan font-style="normal" class="text-inner-tspan" font-weight="normal"> product,</tspan><tspan font-style="normal" class="text-inner-tspan" font-weight="normal"> etc.)?</tspan></tspan></text></g></g></g><g class="node default" id="gc208f853-0b0d-45e0-ac57-f2c185eb4dcf-light-flowchart-Q2-3" data-look="classic" transform="translate(264.625, 242.39999771118164)"><polygon points="12.899999618530273,0 180.96249961853027,0 193.86249923706055,-25.799999237060547 180.96249961853027,-51.599998474121094 12.899999618530273,-51.599998474121094 0,-25.799999237060547" class="label-container" transform="translate(-96.93124961853027,25.799999237060547)"></polygon><g class="label" style="" transform="translate(0, -18.299999237060547)"><rect></rect><g><rect class="background" style="stroke: none"></rect><text y="-10.1" style=""><tspan class="text-outer-tspan row" x="0" y="-0.1em" dy="1.1em"><tspan font-style="normal" class="text-inner-tspan" font-weight="normal">Discoverable</tspan><tspan font-style="normal" class="text-inner-tspan" font-weight="normal"> in</tspan><tspan font-style="normal" class="text-inner-tspan" font-weight="normal"> HTML</tspan></tspan><tspan class="text-outer-tspan row" x="0" y="1em" dy="1.1em"><tspan font-style="normal" class="text-inner-tspan" font-weight="normal">before</tspan><tspan font-style="normal" class="text-inner-tspan" font-weight="normal"> CSS</tspan><tspan font-style="normal" class="text-inner-tspan" font-weight="normal"> /</tspan><tspan font-style="normal" class="text-inner-tspan" font-weight="normal"> JS</tspan><tspan font-style="normal" class="text-inner-tspan" font-weight="normal"> runs?</tspan></tspan></text></g></g></g><g class="node default" id="gc208f853-0b0d-45e0-ac57-f2c185eb4dcf-light-flowchart-Eager-5" data-look="classic" transform="translate(122.40625, 392.0999984741211)"><rect class="basic label-container" style="" x="-114.40625" y="-42.099998474121094" width="228.8125" height="84.19999694824219"></rect><g class="label" style="" transform="translate(0, -27.099998474121094)"><rect></rect><g><rect class="background" style="stroke: none"></rect><text y="-10.1" style=""><tspan class="text-outer-tspan row" x="0" y="-0.1em" dy="1.1em"><tspan font-style="normal" class="text-inner-tspan" font-weight="normal">loading=eager</tspan><tspan font-style="normal" class="text-inner-tspan" font-weight="normal"> (default)</tspan></tspan><tspan class="text-outer-tspan row" x="0" y="1em" dy="1.1em"><tspan font-style="normal" class="text-inner-tspan" font-weight="normal">fetchpriority=high</tspan></tspan><tspan class="text-outer-tspan row" x="0" y="2.1em" dy="1.1em"><tspan font-style="normal" class="text-inner-tspan" font-weight="normal">Never</tspan><tspan font-style="normal" class="text-inner-tspan" font-weight="normal"> loading=lazy</tspan></tspan></text></g></g></g><g class="node default" id="gc208f853-0b0d-45e0-ac57-f2c185eb4dcf-light-flowchart-Preload-7" data-look="classic" transform="translate(406.84375, 392.0999984741211)"><rect class="basic label-container" style="" x="-120.03125" y="-50.900001525878906" width="240.0625" height="101.80000305175781"></rect><g class="label" style="" transform="translate(0, -35.900001525878906)"><rect></rect><g><rect class="background" style="stroke: none"></rect><text y="-10.1" style=""><tspan class="text-outer-tspan row" x="0" y="-0.1em" dy="1.1em"><tspan font-style="normal" class="text-inner-tspan" font-weight="normal">link</tspan><tspan font-style="normal" class="text-inner-tspan" font-weight="normal"> rel=preload</tspan></tspan><tspan class="text-outer-tspan row" x="0" y="1em" dy="1.1em"><tspan font-style="normal" class="text-inner-tspan" font-weight="normal">as=image</tspan></tspan><tspan class="text-outer-tspan row" x="0" y="2.1em" dy="1.1em"><tspan font-style="normal" class="text-inner-tspan" font-weight="normal">fetchpriority=high</tspan></tspan><tspan class="text-outer-tspan row" x="0" y="3.2em" dy="1.1em"><tspan font-style="normal" class="text-inner-tspan" font-weight="normal">imagesrcset</tspan><tspan font-style="normal" class="text-inner-tspan" font-weight="normal"> /</tspan><tspan font-style="normal" class="text-inner-tspan" font-weight="normal"> imagesizes</tspan></tspan></text></g></g></g><g class="node default" id="gc208f853-0b0d-45e0-ac57-f2c185eb4dcf-light-flowchart-Q3-9" data-look="classic" transform="translate(793.8367195129395, 242.39999771118164)"><polygon points="8.5,0 134.46875,0 142.96875,-17 134.46875,-34 8.5,-34 0,-17" class="label-container" transform="translate(-71.484375,17)"></polygon><g class="label" style="" transform="translate(0, -9.5)"><rect></rect><g><rect class="background" style="stroke: none"></rect><text y="-10.1" style=""><tspan class="text-outer-tspan row" x="0" y="-0.1em" dy="1.1em"><tspan font-style="normal" class="text-inner-tspan" font-weight="normal">Above</tspan><tspan font-style="normal" class="text-inner-tspan" font-weight="normal"> the</tspan><tspan font-style="normal" class="text-inner-tspan" font-weight="normal"> fold?</tspan></tspan></text></g></g></g><g class="node default" id="gc208f853-0b0d-45e0-ac57-f2c185eb4dcf-light-flowchart-Default-11" data-look="classic" transform="translate(672.5859375, 392.0999984741211)"><rect class="basic label-container" style="" x="-95.7109375" y="-33.29999923706055" width="191.421875" height="66.5999984741211"></rect><g class="label" style="" transform="translate(0, -18.299999237060547)"><rect></rect><g><rect class="background" style="stroke: none"></rect><text y="-10.1" style=""><tspan class="text-outer-tspan row" x="0" y="-0.1em" dy="1.1em"><tspan font-style="normal" class="text-inner-tspan" font-weight="normal">loading=eager</tspan></tspan><tspan class="text-outer-tspan row" x="0" y="1em" dy="1.1em"><tspan font-style="normal" class="text-inner-tspan" font-weight="normal">fetchpriority=auto</tspan></tspan></text></g></g></g><g class="node default" id="gc208f853-0b0d-45e0-ac57-f2c185eb4dcf-light-flowchart-Q4-13" data-look="classic" transform="translate(915.0875015258789, 392.0999984741211)"><polygon points="12.899999618530273,0 180.68124961853027,0 193.58124923706055,-25.799999237060547 180.68124961853027,-51.599998474121094 12.899999618530273,-51.599998474121094 0,-25.799999237060547" class="label-container" transform="translate(-96.79062461853027,25.799999237060547)"></polygon><g class="label" style="" transform="translate(0, -18.299999237060547)"><rect></rect><g><rect class="background" style="stroke: none"></rect><text y="-10.1" style=""><tspan class="text-outer-tspan row" x="0" y="-0.1em" dy="1.1em"><tspan font-style="normal" class="text-inner-tspan" font-weight="normal">Decorative</tspan><tspan font-style="normal" class="text-inner-tspan" font-weight="normal"> /</tspan><tspan font-style="normal" class="text-inner-tspan" font-weight="normal"> footer</tspan><tspan font-style="normal" class="text-inner-tspan" font-weight="normal"> /</tspan></tspan><tspan class="text-outer-tspan row" x="0" y="1em" dy="1.1em"><tspan font-style="normal" class="text-inner-tspan" font-weight="normal">chrome?</tspan></tspan></text></g></g></g><g class="node default" id="gc208f853-0b0d-45e0-ac57-f2c185eb4dcf-light-flowchart-LowLazy-15" data-look="classic" transform="translate(796.0953140258789, 549.2999992370605)"><rect class="basic label-container" style="" x="-92.2734375" y="-33.29999923706055" width="184.546875" height="66.5999984741211"></rect><g class="label" style="" transform="translate(0, -18.299999237060547)"><rect></rect><g><rect class="background" style="stroke: none"></rect><text y="-10.1" style=""><tspan class="text-outer-tspan row" x="0" y="-0.1em" dy="1.1em"><tspan font-style="normal" class="text-inner-tspan" font-weight="normal">loading=lazy</tspan></tspan><tspan class="text-outer-tspan row" x="0" y="1em" dy="1.1em"><tspan font-style="normal" class="text-inner-tspan" font-weight="normal">fetchpriority=low</tspan></tspan></text></g></g></g><g class="node default" id="gc208f853-0b0d-45e0-ac57-f2c185eb4dcf-light-flowchart-Lazy-17" data-look="classic" transform="translate(1034.079689025879, 549.2999992370605)"><rect class="basic label-container" style="" x="-95.7109375" y="-33.29999923706055" width="191.421875" height="66.5999984741211"></rect><g class="label" style="" transform="translate(0, -18.299999237060547)"><rect></rect><g><rect class="background" style="stroke: none"></rect><text y="-10.1" style=""><tspan class="text-outer-tspan row" x="0" y="-0.1em" dy="1.1em"><tspan font-style="normal" class="text-inner-tspan" font-weight="normal">loading=lazy</tspan></tspan><tspan class="text-outer-tspan row" x="0" y="1em" dy="1.1em"><tspan font-style="normal" class="text-inner-tspan" font-weight="normal">fetchpriority=auto</tspan></tspan></text></g></g></g></g></g></g><defs><filter id="gc208f853-0b0d-45e0-ac57-f2c185eb4dcf-light-drop-shadow" height="130%" width="130%"><feDropShadow dx="4" dy="4" stdDeviation="0" flood-opacity="0.06" flood-color="#000000"></feDropShadow></filter></defs><defs><filter id="gc208f853-0b0d-45e0-ac57-f2c185eb4dcf-light-drop-shadow-small" height="150%" width="150%"><feDropShadow dx="2" dy="2" stdDeviation="0" flood-opacity="0.06" flood-color="#000000"></feDropShadow></filter></defs></svg>