<svg id="ga880a294-9f64-4a35-85c6-2f9a5f234d10-light" width="100%" xmlns="http://www.w3.org/2000/svg" xmlns:xlink="http://www.w3.org/1999/xlink" class="flowchart" style="max-width: 778.83984375px;" viewBox="0 0 778.83984375 1145.059326171875" role="graphics-document document" aria-roledescription="flowchart-v2"><style>#ga880a294-9f64-4a35-85c6-2f9a5f234d10-light{font-family:"trebuchet ms",verdana,arial,sans-serif;font-size:16px;fill:#333;}@keyframes edge-animation-frame{from{stroke-dashoffset:0;}}@keyframes dash{to{stroke-dashoffset:0;}}#ga880a294-9f64-4a35-85c6-2f9a5f234d10-light .edge-animation-slow{stroke-dasharray:9,5!important;stroke-dashoffset:900;animation:dash 50s linear infinite;stroke-linecap:round;}#ga880a294-9f64-4a35-85c6-2f9a5f234d10-light .edge-animation-fast{stroke-dasharray:9,5!important;stroke-dashoffset:900;animation:dash 20s linear infinite;stroke-linecap:round;}#ga880a294-9f64-4a35-85c6-2f9a5f234d10-light .error-icon{fill:#552222;}#ga880a294-9f64-4a35-85c6-2f9a5f234d10-light .error-text{fill:#552222;stroke:#552222;}#ga880a294-9f64-4a35-85c6-2f9a5f234d10-light .edge-thickness-normal{stroke-width:1px;}#ga880a294-9f64-4a35-85c6-2f9a5f234d10-light .edge-thickness-thick{stroke-width:3.5px;}#ga880a294-9f64-4a35-85c6-2f9a5f234d10-light .edge-pattern-solid{stroke-dasharray:0;}#ga880a294-9f64-4a35-85c6-2f9a5f234d10-light .edge-thickness-invisible{stroke-width:0;fill:none;}#ga880a294-9f64-4a35-85c6-2f9a5f234d10-light .edge-pattern-dashed{stroke-dasharray:3;}#ga880a294-9f64-4a35-85c6-2f9a5f234d10-light .edge-pattern-dotted{stroke-dasharray:2;}#ga880a294-9f64-4a35-85c6-2f9a5f234d10-light .marker{fill:#333333;stroke:#333333;}#ga880a294-9f64-4a35-85c6-2f9a5f234d10-light .marker.cross{stroke:#333333;}#ga880a294-9f64-4a35-85c6-2f9a5f234d10-light svg{font-family:"trebuchet ms",verdana,arial,sans-serif;font-size:16px;}#ga880a294-9f64-4a35-85c6-2f9a5f234d10-light p{margin:0;}#ga880a294-9f64-4a35-85c6-2f9a5f234d10-light .label{font-family:"trebuchet ms",verdana,arial,sans-serif;color:#333;}#ga880a294-9f64-4a35-85c6-2f9a5f234d10-light .cluster-label text{fill:#333;}#ga880a294-9f64-4a35-85c6-2f9a5f234d10-light .cluster-label span{color:#333;}#ga880a294-9f64-4a35-85c6-2f9a5f234d10-light .cluster-label span p{background-color:transparent;}#ga880a294-9f64-4a35-85c6-2f9a5f234d10-light .label text,#ga880a294-9f64-4a35-85c6-2f9a5f234d10-light span{fill:#333;color:#333;}#ga880a294-9f64-4a35-85c6-2f9a5f234d10-light .node rect,#ga880a294-9f64-4a35-85c6-2f9a5f234d10-light .node circle,#ga880a294-9f64-4a35-85c6-2f9a5f234d10-light .node ellipse,#ga880a294-9f64-4a35-85c6-2f9a5f234d10-light .node polygon,#ga880a294-9f64-4a35-85c6-2f9a5f234d10-light .node path{fill:#ECECFF;stroke:#9370DB;stroke-width:1px;}#ga880a294-9f64-4a35-85c6-2f9a5f234d10-light .rough-node .label text,#ga880a294-9f64-4a35-85c6-2f9a5f234d10-light .node .label text,#ga880a294-9f64-4a35-85c6-2f9a5f234d10-light .image-shape .label,#ga880a294-9f64-4a35-85c6-2f9a5f234d10-light .icon-shape .label{text-anchor:middle;}#ga880a294-9f64-4a35-85c6-2f9a5f234d10-light .node .katex path{fill:#000;stroke:#000;stroke-width:1px;}#ga880a294-9f64-4a35-85c6-2f9a5f234d10-light .rough-node .label,#ga880a294-9f64-4a35-85c6-2f9a5f234d10-light .node .label,#ga880a294-9f64-4a35-85c6-2f9a5f234d10-light .image-shape .label,#ga880a294-9f64-4a35-85c6-2f9a5f234d10-light .icon-shape .label{text-align:center;}#ga880a294-9f64-4a35-85c6-2f9a5f234d10-light .node.clickable{cursor:pointer;}#ga880a294-9f64-4a35-85c6-2f9a5f234d10-light .root .anchor path{fill:#333333!important;stroke-width:0;stroke:#333333;}#ga880a294-9f64-4a35-85c6-2f9a5f234d10-light .arrowheadPath{fill:#333333;}#ga880a294-9f64-4a35-85c6-2f9a5f234d10-light .edgePath .path{stroke:#333333;stroke-width:1px;}#ga880a294-9f64-4a35-85c6-2f9a5f234d10-light .flowchart-link{stroke:#333333;fill:none;}#ga880a294-9f64-4a35-85c6-2f9a5f234d10-light .edgeLabel{background-color:rgba(232,232,232, 0.8);text-align:center;}#ga880a294-9f64-4a35-85c6-2f9a5f234d10-light .edgeLabel p{background-color:rgba(232,232,232, 0.8);}#ga880a294-9f64-4a35-85c6-2f9a5f234d10-light .edgeLabel rect{opacity:0.5;background-color:rgba(232,232,232, 0.8);fill:rgba(232,232,232, 0.8);}#ga880a294-9f64-4a35-85c6-2f9a5f234d10-light .labelBkg{background-color:rgba(232, 232, 232, 0.5);}#ga880a294-9f64-4a35-85c6-2f9a5f234d10-light .cluster rect{fill:#ffffde;stroke:#aaaa33;stroke-width:1px;}#ga880a294-9f64-4a35-85c6-2f9a5f234d10-light .cluster text{fill:#333;}#ga880a294-9f64-4a35-85c6-2f9a5f234d10-light .cluster span{color:#333;}#ga880a294-9f64-4a35-85c6-2f9a5f234d10-light div.mermaidTooltip{position:absolute;text-align:center;max-width:200px;padding:2px;font-family:"trebuchet ms",verdana,arial,sans-serif;font-size:12px;background:hsl(80, 100%, 96.2745098039%);border:1px solid #aaaa33;border-radius:2px;pointer-events:none;z-index:100;}#ga880a294-9f64-4a35-85c6-2f9a5f234d10-light .flowchartTitleText{text-anchor:middle;font-size:18px;fill:#333;}#ga880a294-9f64-4a35-85c6-2f9a5f234d10-light rect.text{fill:none;stroke-width:0;}#ga880a294-9f64-4a35-85c6-2f9a5f234d10-light .icon-shape,#ga880a294-9f64-4a35-85c6-2f9a5f234d10-light .image-shape{background-color:rgba(232,232,232, 0.8);text-align:center;}#ga880a294-9f64-4a35-85c6-2f9a5f234d10-light .icon-shape p,#ga880a294-9f64-4a35-85c6-2f9a5f234d10-light .image-shape p{background-color:rgba(232,232,232, 0.8);padding:2px;}#ga880a294-9f64-4a35-85c6-2f9a5f234d10-light .icon-shape .label rect,#ga880a294-9f64-4a35-85c6-2f9a5f234d10-light .image-shape .label rect{opacity:0.5;background-color:rgba(232,232,232, 0.8);fill:rgba(232,232,232, 0.8);}#ga880a294-9f64-4a35-85c6-2f9a5f234d10-light .label-icon{display:inline-block;height:1em;overflow:visible;vertical-align:-0.125em;}#ga880a294-9f64-4a35-85c6-2f9a5f234d10-light .node .label-icon path{fill:currentColor;stroke:revert;stroke-width:revert;}#ga880a294-9f64-4a35-85c6-2f9a5f234d10-light .node .neo-node{stroke:#9370DB;}#ga880a294-9f64-4a35-85c6-2f9a5f234d10-light [data-look="neo"].node rect,#ga880a294-9f64-4a35-85c6-2f9a5f234d10-light [data-look="neo"].cluster rect,#ga880a294-9f64-4a35-85c6-2f9a5f234d10-light [data-look="neo"].node polygon{stroke:#9370DB;filter:drop-shadow(1px 2px 2px rgba(185, 185, 185, 1));}#ga880a294-9f64-4a35-85c6-2f9a5f234d10-light [data-look="neo"].node path{stroke:#9370DB;stroke-width:1px;}#ga880a294-9f64-4a35-85c6-2f9a5f234d10-light [data-look="neo"].node .outer-path{filter:drop-shadow(1px 2px 2px rgba(185, 185, 185, 1));}#ga880a294-9f64-4a35-85c6-2f9a5f234d10-light [data-look="neo"].node .neo-line path{stroke:#9370DB;filter:none;}#ga880a294-9f64-4a35-85c6-2f9a5f234d10-light [data-look="neo"].node circle{stroke:#9370DB;filter:drop-shadow(1px 2px 2px rgba(185, 185, 185, 1));}#ga880a294-9f64-4a35-85c6-2f9a5f234d10-light [data-look="neo"].node circle .state-start{fill:#000000;}#ga880a294-9f64-4a35-85c6-2f9a5f234d10-light [data-look="neo"].icon-shape .icon{fill:#9370DB;filter:drop-shadow(1px 2px 2px rgba(185, 185, 185, 1));}#ga880a294-9f64-4a35-85c6-2f9a5f234d10-light [data-look="neo"].icon-shape .icon-neo path{stroke:#9370DB;filter:drop-shadow(1px 2px 2px rgba(185, 185, 185, 1));}#ga880a294-9f64-4a35-85c6-2f9a5f234d10-light :root{--mermaid-font-family:"trebuchet ms",verdana,arial,sans-serif;}</style><g><marker id="ga880a294-9f64-4a35-85c6-2f9a5f234d10-light_flowchart-v2-pointEnd" class="marker flowchart-v2" viewBox="0 0 10 10" refX="5" refY="5" markerUnits="userSpaceOnUse" markerWidth="8" markerHeight="8" orient="auto"><path d="M 0 0 L 10 5 L 0 10 z" class="arrowMarkerPath" style="stroke-width: 1; stroke-dasharray: 1, 0;"></path></marker><marker id="ga880a294-9f64-4a35-85c6-2f9a5f234d10-light_flowchart-v2-pointStart" class="marker flowchart-v2" viewBox="0 0 10 10" refX="4.5" refY="5" markerUnits="userSpaceOnUse" markerWidth="8" markerHeight="8" orient="auto"><path d="M 0 5 L 10 10 L 10 0 z" class="arrowMarkerPath" style="stroke-width: 1; stroke-dasharray: 1, 0;"></path></marker><marker id="ga880a294-9f64-4a35-85c6-2f9a5f234d10-light_flowchart-v2-pointEnd-margin" class="marker flowchart-v2" viewBox="0 0 11.5 14" refX="11.5" refY="7" markerUnits="userSpaceOnUse" markerWidth="10.5" markerHeight="14" orient="auto"><path d="M 0 0 L 11.5 7 L 0 14 z" class="arrowMarkerPath" style="stroke-width: 0; stroke-dasharray: 1, 0;"></path></marker><marker id="ga880a294-9f64-4a35-85c6-2f9a5f234d10-light_flowchart-v2-pointStart-margin" class="marker flowchart-v2" viewBox="0 0 11.5 14" refX="1" refY="7" markerUnits="userSpaceOnUse" markerWidth="11.5" markerHeight="14" orient="auto"><polygon points="0,7 11.5,14 11.5,0" class="arrowMarkerPath" style="stroke-width: 0; stroke-dasharray: 1, 0;"></polygon></marker><marker id="ga880a294-9f64-4a35-85c6-2f9a5f234d10-light_flowchart-v2-circleEnd" class="marker flowchart-v2" viewBox="0 0 10 10" refX="11" refY="5" markerUnits="userSpaceOnUse" markerWidth="11" markerHeight="11" orient="auto"><circle cx="5" cy="5" r="5" class="arrowMarkerPath" style="stroke-width: 1; stroke-dasharray: 1, 0;"></circle></marker><marker id="ga880a294-9f64-4a35-85c6-2f9a5f234d10-light_flowchart-v2-circleStart" class="marker flowchart-v2" viewBox="0 0 10 10" refX="-1" refY="5" markerUnits="userSpaceOnUse" markerWidth="11" markerHeight="11" orient="auto"><circle cx="5" cy="5" r="5" class="arrowMarkerPath" style="stroke-width: 1; stroke-dasharray: 1, 0;"></circle></marker><marker id="ga880a294-9f64-4a35-85c6-2f9a5f234d10-light_flowchart-v2-circleEnd-margin" class="marker flowchart-v2" viewBox="0 0 10 10" refY="5" refX="12.25" markerUnits="userSpaceOnUse" markerWidth="14" markerHeight="14" orient="auto"><circle cx="5" cy="5" r="5" class="arrowMarkerPath" style="stroke-width: 0; stroke-dasharray: 1, 0;"></circle></marker><marker id="ga880a294-9f64-4a35-85c6-2f9a5f234d10-light_flowchart-v2-circleStart-margin" class="marker flowchart-v2" viewBox="0 0 10 10" refX="-2" refY="5" markerUnits="userSpaceOnUse" markerWidth="14" markerHeight="14" orient="auto"><circle cx="5" cy="5" r="5" class="arrowMarkerPath" style="stroke-width: 0; stroke-dasharray: 1, 0;"></circle></marker><marker id="ga880a294-9f64-4a35-85c6-2f9a5f234d10-light_flowchart-v2-crossEnd" class="marker cross flowchart-v2" viewBox="0 0 11 11" refX="12" refY="5.2" markerUnits="userSpaceOnUse" markerWidth="11" markerHeight="11" orient="auto"><path d="M 1,1 l 9,9 M 10,1 l -9,9" class="arrowMarkerPath" style="stroke-width: 2; stroke-dasharray: 1, 0;"></path></marker><marker id="ga880a294-9f64-4a35-85c6-2f9a5f234d10-light_flowchart-v2-crossStart" class="marker cross flowchart-v2" viewBox="0 0 11 11" refX="-1" refY="5.2" markerUnits="userSpaceOnUse" markerWidth="11" markerHeight="11" orient="auto"><path d="M 1,1 l 9,9 M 10,1 l -9,9" class="arrowMarkerPath" style="stroke-width: 2; stroke-dasharray: 1, 0;"></path></marker><marker id="ga880a294-9f64-4a35-85c6-2f9a5f234d10-light_flowchart-v2-crossEnd-margin" class="marker cross flowchart-v2" viewBox="0 0 15 15" refX="17.7" refY="7.5" markerUnits="userSpaceOnUse" markerWidth="12" markerHeight="12" orient="auto"><path d="M 1,1 L 14,14 M 1,14 L 14,1" class="arrowMarkerPath" style="stroke-width: 2.5;"></path></marker><marker id="ga880a294-9f64-4a35-85c6-2f9a5f234d10-light_flowchart-v2-crossStart-margin" class="marker cross flowchart-v2" viewBox="0 0 15 15" refX="-3.5" refY="7.5" markerUnits="userSpaceOnUse" markerWidth="12" markerHeight="12" orient="auto"><path d="M 1,1 L 14,14 M 1,14 L 14,1" class="arrowMarkerPath" style="stroke-width: 2.5; stroke-dasharray: 1, 0;"></path></marker><g class="root"><g class="clusters"></g><g class="edgePaths"><path d="M372.531,60.1L372.448,64.183C372.365,68.267,372.198,76.433,372.115,84.017C372.031,91.6,372.031,98.6,372.031,102.1L372.031,105.6" id="ga880a294-9f64-4a35-85c6-2f9a5f234d10-light-L_Start_Cmp_0" class="edge-thickness-normal edge-pattern-solid edge-thickness-normal edge-pattern-solid flowchart-link" style=";" data-edge="true" data-et="edge" data-id="L_Start_Cmp_0" data-points="W3sieCI6MzcyLjUzMTI1MDAwMDAwMDA2LCJ5Ijo2MC4wOTk5OTg0NzQxMjEwOTR9LHsieCI6MzcyLjAzMTI1LCJ5Ijo4NC41OTk5OTg0NzQxMjExfSx7IngiOjM3Mi4wMzEyNSwieSI6MTA5LjU5OTk5ODQ3NDEyMTF9XQ==" data-look="classic" marker-end="url(#ga880a294-9f64-4a35-85c6-2f9a5f234d10-light_flowchart-v2-pointEnd)"></path><path d="M372.031,246.6L372.031,250.767C372.031,254.933,372.031,263.267,372.031,270.933C372.031,278.6,372.031,285.6,372.031,289.1L372.031,292.6" id="ga880a294-9f64-4a35-85c6-2f9a5f234d10-light-L_Cmp_Q1_0" class="edge-thickness-normal edge-pattern-solid edge-thickness-normal edge-pattern-solid flowchart-link" style=";" data-edge="true" data-et="edge" data-id="L_Cmp_Q1_0" data-points="W3sieCI6MzcyLjAzMTI1LCJ5IjoyNDYuNTk5OTk4NDc0MTIxMX0seyJ4IjozNzIuMDMxMjUsInkiOjI3MS41OTk5OTg0NzQxMjExfSx7IngiOjM3Mi4wMzEyNSwieSI6Mjk2LjU5OTk5ODQ3NDEyMTF9XQ==" data-look="classic" marker-end="url(#ga880a294-9f64-4a35-85c6-2f9a5f234d10-light_flowchart-v2-pointEnd)"></path><path d="M290.932,476.21L258.661,495.81C226.39,515.41,161.847,554.61,129.576,599.705C97.305,644.801,97.305,695.793,97.305,746.784C97.305,797.776,97.305,848.768,97.305,879.68C97.305,910.593,97.305,921.426,97.305,926.843L97.305,932.259" id="ga880a294-9f64-4a35-85c6-2f9a5f234d10-light-L_Q1_Chunk_0" class="edge-thickness-normal edge-pattern-solid edge-thickness-normal edge-pattern-solid flowchart-link" style=";" data-edge="true" data-et="edge" data-id="L_Q1_Chunk_0" data-points="W3sieCI6MjkwLjkzMjAyODA3MDc2MTc2LCJ5Ijo0NzYuMjEwMTU3NjQ4Mzk4NH0seyJ4Ijo5Ny4zMDQ2ODc1LCJ5Ijo1OTMuODA5Mzc5NTc3NjM2N30seyJ4Ijo5Ny4zMDQ2ODc1LCJ5Ijo3NDYuNzg0Mzc4MDUxNzU3OH0seyJ4Ijo5Ny4zMDQ2ODc1LCJ5Ijo4OTkuNzU5Mzc2NTI1ODc4OX0seyJ4Ijo5Ny4zMDQ2ODc1LCJ5Ijo5MzYuMjU5Mzc2NTI1ODc4OX1d" data-look="classic" marker-end="url(#ga880a294-9f64-4a35-85c6-2f9a5f234d10-light_flowchart-v2-pointEnd)"></path><path d="M428.091,501.249L439.732,516.676C451.372,532.103,474.653,562.956,486.293,583.799C497.934,604.643,497.934,615.476,497.934,620.893L497.934,626.309" id="ga880a294-9f64-4a35-85c6-2f9a5f234d10-light-L_Q1_Q2_0" class="edge-thickness-normal edge-pattern-solid edge-thickness-normal edge-pattern-solid flowchart-link" style=";" data-edge="true" data-et="edge" data-id="L_Q1_Q2_0" data-points="W3sieCI6NDI4LjA5MTI1NTg2MjU5NDQ0LCJ5Ijo1MDEuMjQ5MzczNzE1MDQyM30seyJ4Ijo0OTcuOTMzNTkzNzUsInkiOjU5My44MDkzNzk1Nzc2MzY3fSx7IngiOjQ5Ny45MzM1OTM3NSwieSI6NjMwLjMwOTM3OTU3NzYzNjd9XQ==" data-look="classic" marker-end="url(#ga880a294-9f64-4a35-85c6-2f9a5f234d10-light_flowchart-v2-pointEnd)"></path><path d="M440.497,805.823L425.266,821.479C410.034,837.135,379.572,868.447,364.341,889.52C349.109,910.593,349.109,921.426,349.109,926.843L349.109,932.259" id="ga880a294-9f64-4a35-85c6-2f9a5f234d10-light-L_Q2_Item_0" class="edge-thickness-normal edge-pattern-solid edge-thickness-normal edge-pattern-solid flowchart-link" style=";" data-edge="true" data-et="edge" data-id="L_Q2_Item_0" data-points="W3sieCI6NDQwLjQ5NzA2MDkwNzg4Mjc3LCJ5Ijo4MDUuODIyODQzNjgzNzYxNn0seyJ4IjozNDkuMTA5Mzc1LCJ5Ijo4OTkuNzU5Mzc2NTI1ODc4OX0seyJ4IjozNDkuMTA5Mzc1LCJ5Ijo5MzYuMjU5Mzc2NTI1ODc4OX1d" data-look="classic" marker-end="url(#ga880a294-9f64-4a35-85c6-2f9a5f234d10-light_flowchart-v2-pointEnd)"></path><path d="M554.545,806.648L569.22,822.167C583.896,837.685,613.247,868.722,627.922,889.657C642.598,910.593,642.598,921.426,642.598,926.843L642.598,932.259" id="ga880a294-9f64-4a35-85c6-2f9a5f234d10-light-L_Q2_Reuse_0" class="edge-thickness-normal edge-pattern-solid edge-thickness-normal edge-pattern-solid flowchart-link" style=";" data-edge="true" data-et="edge" data-id="L_Q2_Reuse_0" data-points="W3sieCI6NTU0LjU0NDkzNTAyOTYwNywieSI6ODA2LjY0ODAzNTI0NjI3MjV9LHsieCI6NjQyLjU5NzY1NjI1LCJ5Ijo4OTkuNzU5Mzc2NTI1ODc4OX0seyJ4Ijo2NDIuNTk3NjU2MjUsInkiOjkzNi4yNTkzNzY1MjU4Nzg5fV0=" data-look="classic" marker-end="url(#ga880a294-9f64-4a35-85c6-2f9a5f234d10-light_flowchart-v2-pointEnd)"></path><path d="M97.305,1002.859L97.305,1007.026C97.305,1011.193,97.305,1019.526,107.286,1029.012C117.268,1038.499,137.232,1049.139,147.213,1054.458L157.195,1059.778" id="ga880a294-9f64-4a35-85c6-2f9a5f234d10-light-L_Chunk_Paint_0" class="edge-thickness-normal edge-pattern-solid edge-thickness-normal edge-pattern-solid flowchart-link" style=";" data-edge="true" data-et="edge" data-id="L_Chunk_Paint_0" data-points="W3sieCI6OTcuMzA0Njg3NSwieSI6MTAwMi44NTkzNzV9LHsieCI6OTcuMzA0Njg3NSwieSI6MTAyNy44NTkzNzV9LHsieCI6MTYwLjcyNDk0NDEyMzkzMDk1LCJ5IjoxMDYxLjY1OTM3NDIzNzA2MDV9XQ==" data-look="classic" marker-end="url(#ga880a294-9f64-4a35-85c6-2f9a5f234d10-light_flowchart-v2-pointEnd)"></path><path d="M349.109,1002.859L349.109,1007.026C349.109,1011.193,349.109,1019.526,339.128,1029.012C329.146,1038.499,309.183,1049.139,299.201,1054.458L289.219,1059.778" id="ga880a294-9f64-4a35-85c6-2f9a5f234d10-light-L_Item_Paint_0" class="edge-thickness-normal edge-pattern-solid edge-thickness-normal edge-pattern-solid flowchart-link" style=";" data-edge="true" data-et="edge" data-id="L_Item_Paint_0" data-points="W3sieCI6MzQ5LjEwOTM3NSwieSI6MTAwMi44NTkzNzV9LHsieCI6MzQ5LjEwOTM3NSwieSI6MTAyNy44NTkzNzV9LHsieCI6Mjg1LjY4OTExODM3NjA2OTEsInkiOjEwNjEuNjU5Mzc0MjM3MDYwNX1d" data-look="classic" marker-end="url(#ga880a294-9f64-4a35-85c6-2f9a5f234d10-light_flowchart-v2-pointEnd)"></path><path d="M642.598,1002.859L642.598,1007.026C642.598,1011.193,642.598,1019.526,642.598,1027.193C642.598,1034.859,642.598,1041.859,642.598,1045.359L642.598,1048.859" id="ga880a294-9f64-4a35-85c6-2f9a5f234d10-light-L_Reuse_Skip_0" class="edge-thickness-normal edge-pattern-solid edge-thickness-normal edge-pattern-solid flowchart-link" style=";" data-edge="true" data-et="edge" data-id="L_Reuse_Skip_0" data-points="W3sieCI6NjQyLjU5NzY1NjI1LCJ5IjoxMDAyLjg1OTM3NX0seyJ4Ijo2NDIuNTk3NjU2MjUsInkiOjEwMjcuODU5Mzc1fSx7IngiOjY0Mi41OTc2NTYyNSwieSI6MTA1Mi44NTkzNzV9XQ==" data-look="classic" marker-end="url(#ga880a294-9f64-4a35-85c6-2f9a5f234d10-light_flowchart-v2-pointEnd)"></path></g><g class="edgeLabels"><g class="edgeLabel"><g class="label" data-id="L_Start_Cmp_0" transform="translate(0, 0)"><text y="-10.1" text-anchor="middle"><tspan class="text-outer-tspan row" x="0" y="-0.1em" dy="1.1em" text-anchor="middle"></tspan></text></g></g><g><rect class="background" style="stroke: none"></rect></g><g class="edgeLabel"><g class="label" data-id="L_Cmp_Q1_0" transform="translate(0, 0)"><text y="-10.1" text-anchor="middle"><tspan class="text-outer-tspan row" x="0" y="-0.1em" dy="1.1em" text-anchor="middle"></tspan></text></g></g><g><rect class="background" style="stroke: none"></rect></g><g class="edgeLabel" transform="translate(97.3046875, 746.7843780517578)"><g class="label" data-id="L_Q1_Chunk_0" transform="translate(0, -10.5)"><g><rect class="background" style="" x="-13.546875" y="-1" width="27.09375" height="23"></rect><text y="-10.1" text-anchor="middle" style=""><tspan class="text-outer-tspan row" x="0" y="-0.1em" dy="1.1em" text-anchor="middle"><tspan font-style="normal" class="text-inner-tspan" font-weight="normal">yes</tspan></tspan></text></g></g></g><g class="edgeLabel" transform="translate(497.93359375, 593.8093795776367)"><g class="label" data-id="L_Q1_Q2_0" transform="translate(0, -10.5)"><g><rect class="background" style="" x="-10.6640625" y="-1" width="21.328125" height="23"></rect><text y="-10.1" text-anchor="middle" style=""><tspan class="text-outer-tspan row" x="0" y="-0.1em" dy="1.1em" text-anchor="middle"><tspan font-style="normal" class="text-inner-tspan" font-weight="normal">no</tspan></tspan></text></g></g></g><g class="edgeLabel" transform="translate(349.109375, 899.7593765258789)"><g class="label" data-id="L_Q2_Item_0" transform="translate(0, -10.5)"><g><rect class="background" style="" x="-13.546875" y="-1" width="27.09375" height="23"></rect><text y="-10.1" text-anchor="middle" style=""><tspan class="text-outer-tspan row" x="0" y="-0.1em" dy="1.1em" text-anchor="middle"><tspan font-style="normal" class="text-inner-tspan" font-weight="normal">yes</tspan></tspan></text></g></g></g><g class="edgeLabel" transform="translate(642.59765625, 899.7593765258789)"><g class="label" data-id="L_Q2_Reuse_0" transform="translate(0, -10.5)"><g><rect class="background" style="" x="-10.6640625" y="-1" width="21.328125" height="23"></rect><text y="-10.1" text-anchor="middle" style=""><tspan class="text-outer-tspan row" x="0" y="-0.1em" dy="1.1em" text-anchor="middle"><tspan font-style="normal" class="text-inner-tspan" font-weight="normal">no</tspan></tspan></text></g></g></g><g class="edgeLabel"><g class="label" data-id="L_Chunk_Paint_0" transform="translate(0, 0)"><text y="-10.1" text-anchor="middle"><tspan class="text-outer-tspan row" x="0" y="-0.1em" dy="1.1em" text-anchor="middle"></tspan></text></g></g><g><rect class="background" style="stroke: none"></rect></g><g class="edgeLabel"><g class="label" data-id="L_Item_Paint_0" transform="translate(0, 0)"><text y="-10.1" text-anchor="middle"><tspan class="text-outer-tspan row" x="0" y="-0.1em" dy="1.1em" text-anchor="middle"></tspan></text></g></g><g><rect class="background" style="stroke: none"></rect></g><g class="edgeLabel"><g class="label" data-id="L_Reuse_Skip_0" transform="translate(0, 0)"><text y="-10.1" text-anchor="middle"><tspan class="text-outer-tspan row" x="0" y="-0.1em" dy="1.1em" text-anchor="middle"></tspan></text></g></g><g><rect class="background" style="stroke: none"></rect></g></g><g class="nodes"><g class="node default" id="ga880a294-9f64-4a35-85c6-2f9a5f234d10-light-flowchart-Start-0" data-look="classic" transform="translate(372.03125, 33.79999923706055)"><g class="basic label-container outer-path"><path d="M-65.40000057220459 -25.799999237060547 C-30.24231019486293 -25.799999237060547, 4.915380182478728 -25.799999237060547, 65.40000057220459 -25.799999237060547 C65.40000057220459 -25.799999237060547, 65.40000057220459 -25.799999237060547, 65.40000057220459 -25.799999237060547 C66.00838076166576 -25.78048966852473, 66.61676095112692 -25.76098009998891, 67.05301219882529 -25.746990371586765 C67.46797529001438 -25.706959381245888, 67.88293838120346 -25.66692839090501, 68.69923124610231 -25.58818159996402 C69.1532234304973 -25.51478366435301, 69.60721561489231 -25.441385728742, 70.33189304685753 -25.32422550149928 C70.9593213586822 -25.181019083677672, 71.58674967050688 -25.03781266585606, 71.94428864354678 -24.956206728419545 C72.44643324765859 -24.807172845729976, 72.94857785177038 -24.65813896304041, 73.52979235680552 -24.48563754880318 C74.0319945692431 -24.30082249231979, 74.53419678168066 -24.1160074358364, 75.08188901178644 -23.914451632345997 C75.54476789059667 -23.70954888351079, 76.0076467694069 -23.504646134675586, 76.59420071041056 -23.24499610449772 C76.98723128592795 -23.0399523049984, 77.38026186144533 -22.83490850549908, 78.0605130395184 -22.480021901620034 C78.53450300966342 -22.192686396243875, 79.00849297980844 -21.905350890867712, 79.47480060722664 -21.62267246679901 C79.7969819357263 -21.39793271904258, 80.11916326422595 -21.17319297128615, 80.83125180255584 -20.67647083276321 C81.25444401273383 -20.33898630676394, 81.6776362229118 -20.00150178076467, 82.1242926765865 -19.64530514498651 C82.48521032440975 -19.317529286591117, 82.84612797223299 -18.989753428195723, 83.34860984701088 -18.533412684464313 C83.59383391636624 -18.280198699584385, 83.83905798572158 -18.02698471470446, 84.49917233196044 -17.345362455817106 C84.81179508727746 -16.97813797868302, 85.12441784259448 -16.610913501548936, 85.57125222338968 -16.086036412270357 C85.82034717113432 -15.752271875309109, 86.06944211887897 -15.418507338347862, 86.56044411506427 -14.76060939466161 C86.74686757492191 -14.474212898612, 86.93329103477956 -14.18781640256239, 87.46268320532036 -13.374527866909407 C87.67456447117434 -12.998311224080972, 87.88644573702831 -12.622094581252536, 88.2742620002064 -11.93348753532484 C88.48411687378636 -11.49771940016107, 88.69397174736633 -11.061951264997301, 88.99184554837109 -10.443409943732584 C89.14981275307605 -10.053227894023186, 89.30777995778101 -9.663045844313787, 89.61248514509381 -8.910418140577123 C89.80031588680797 -8.344701873298645, 89.98814662852213 -7.778985606020166, 90.1336304491449 -7.340811518003323 C90.24862803444256 -6.902275884994633, 90.3636256197402 -6.463740251985942, 90.55313996268467 -5.741039926302914 C90.64289989670151 -5.280141635895194, 90.73265983071836 -4.8192433454874735, 90.86928983113748 -4.117677170096137 C90.93015604340086 -3.6456108471744746, 90.99102225566423 -3.1735445242528124, 91.08078092687991 -2.4773939951584394 C91.11374262527501 -1.9639889364507477, 91.14670432367011 -1.4505838777430557, 91.18674418763487 -0.8269306768952902 C91.18674418763487 -0.17477704494077817, 91.18674418763487 0.47737658701373387, 91.18674418763487 0.826930676895284 C91.15661169166152 1.2962686241931993, 91.12647919568818 1.7656065714911144, 91.08078092687991 2.4773939951584216 C91.02415513647448 2.916572443515885, 90.96752934606904 3.355750891873348, 90.86928983113748 4.117677170096119 C90.79818215221343 4.482800072757881, 90.72707447328936 4.8479229754196425, 90.55313996268467 5.741039926302909 C90.43656125992618 6.185605045450384, 90.3199825571677 6.6301701645978595, 90.1336304491449 7.340811518003306 C89.97883740117793 7.807023515556938, 89.82404435321095 8.27323551311057, 89.61248514509383 8.910418140577105 C89.45079386381329 9.3097987314283, 89.28910258253275 9.709179322279494, 88.99184554837109 10.443409943732577 C88.72608085615555 10.995276013571617, 88.46031616393999 11.547142083410657, 88.2742620002064 11.933487535324835 C88.09326824826239 12.254860269506196, 87.91227449631837 12.576233003687557, 87.46268320532037 13.374527866909402 C87.27129963198779 13.668544429233497, 87.07991605865519 13.962560991557593, 86.56044411506429 14.760609394661596 C86.32676628084808 15.073716404022672, 86.09308844663187 15.386823413383748, 85.57125222338968 16.086036412270353 C85.22288803521867 16.495244810179873, 84.87452384704767 16.90445320808939, 84.49917233196045 17.345362455817092 C84.23755977442322 17.615498900264704, 83.975947216886 17.885635344712313, 83.34860984701088 18.533412684464306 C82.96060699213305 18.885786611271364, 82.57260413725524 19.238160538078425, 82.12429267658653 19.64530514498649 C81.79099251900344 19.911103151169325, 81.45769236142033 20.176901157352155, 80.83125180255584 20.676470832763208 C80.45204231537569 20.940990955305956, 80.07283282819553 21.20551107784871, 79.47480060722665 21.622672466799003 C79.1760037322812 21.803804888316275, 78.87720685733576 21.984937309833548, 78.06051303951841 22.48002190162003 C77.49332110764632 22.775925569173925, 76.92612917577425 23.07182923672782, 76.59420071041058 23.244996104497716 C76.03862299039349 23.49093388052177, 75.48304527037642 23.736871656545823, 75.08188901178644 23.914451632345994 C74.62126171916378 24.08396673402315, 74.16063442654112 24.253481835700306, 73.52979235680553 24.485637548803172 C73.04526493337008 24.62944274474247, 72.56073750993463 24.77324794068177, 71.94428864354681 24.95620672841954 C71.49026193383872 25.059835362109244, 71.03623522413064 25.163463995798946, 70.33189304685754 25.324225501499278 C69.70382440388498 25.425766768950012, 69.07575576091241 25.527308036400743, 68.69923124610233 25.588181599964017 C68.17780664927038 25.63848280371557, 67.65638205243843 25.68878400746712, 67.05301219882529 25.746990371586765 C66.66211228601082 25.7595257709502, 66.27121237319636 25.772061170313638, 65.40000057220459 25.799999237060547 C65.40000057220459 25.799999237060547, 65.40000057220459 25.799999237060547, 65.40000057220459 25.799999237060547 C22.796336170734264 25.799999237060547, -19.80732823073606 25.799999237060547, -65.40000057220459 25.799999237060547 C-65.9780511286159 25.78146228082359, -66.55610168502722 25.76292532458663, -67.05301219882527 25.746990371586765 C-67.39925748355121 25.713588505390135, -67.74550276827713 25.6801866391935, -68.69923124610231 25.588181599964017 C-69.08020479972569 25.52658875030822, -69.46117835334907 25.46499590065243, -70.33189304685753 25.324225501499278 C-70.87677686154414 25.19985932649625, -71.42166067623074 25.07549315149322, -71.94428864354678 24.956206728419545 C-72.3655530193948 24.831177672929687, -72.78681739524282 24.70614861743983, -73.5297923568055 24.485637548803183 C-74.06038942267006 24.29037292377952, -74.59098648853461 24.09510829875585, -75.08188901178644 23.914451632345997 C-75.66630259604635 23.655749074607165, -76.25071618030626 23.397046516868336, -76.59420071041056 23.244996104497723 C-76.95181351950706 23.05842973105402, -77.30942632860355 22.87186335761032, -78.0605130395184 22.480021901620038 C-78.47440161013735 22.229120217831607, -78.8882901807563 21.978218534043176, -79.47480060722663 21.622672466799017 C-79.94220237377033 21.296633227954494, -80.40960414031404 20.97059398910997, -80.83125180255584 20.67647083276321 C-81.23565450096353 20.353970442390835, -81.64005719937124 20.031470052018463, -82.1242926765865 19.645305144986512 C-82.39104313891433 19.403049432930864, -82.65779360124213 19.16079372087522, -83.34860984701086 18.533412684464324 C-83.71170407741847 18.15848808097775, -84.07479830782607 17.78356347749118, -84.49917233196044 17.3453624558171 C-84.76735790784547 17.03033641819098, -85.03554348373049 16.715310380564862, -85.57125222338968 16.08603641227036 C-85.8832525271203 15.667984429083726, -86.19525283085092 15.249932445897091, -86.56044411506427 14.760609394661614 C-86.75979764441884 14.454348839654905, -86.95915117377342 14.148088284648198, -87.46268320532036 13.374527866909418 C-87.71234452478319 12.9312289132532, -87.96200584424601 12.48792995959698, -88.27426200020639 11.933487535324842 C-88.42929393819608 11.611560398937192, -88.58432587618576 11.28963326254954, -88.99184554837109 10.443409943732586 C-89.21389212082411 9.894950616795189, -89.43593869327712 9.34649128985779, -89.61248514509381 8.910418140577127 C-89.73335701376806 8.546371330447267, -89.85422888244229 8.182324520317408, -90.1336304491449 7.340811518003316 C-90.27240472765853 6.811605048878098, -90.41117900617215 6.28239857975288, -90.55313996268467 5.741039926302918 C-90.65213719126912 5.232710080593414, -90.75113441985359 4.72438023488391, -90.86928983113748 4.117677170096139 C-90.91567439321715 3.7579276662741017, -90.9620589552968 3.398178162452064, -91.08078092687991 2.477393995158454 C-91.10689190466532 2.070694439748748, -91.13300288245074 1.6639948843390422, -91.18674418763487 0.8269306768952934 C-91.18674418763487 0.38517376602415526, -91.18674418763487 -0.0565831448469829, -91.18674418763487 -0.8269306768952809 C-91.15003142188986 -1.398761637384819, -91.11331865614487 -1.9705925978743575, -91.08078092687991 -2.4773939951584185 C-90.99938220836253 -3.108706381984163, -90.91798348984516 -3.7400187688099074, -90.86928983113748 -4.117677170096128 C-90.743813376838 -4.761972243465881, -90.61833692253853 -5.406267316835635, -90.55313996268467 -5.741039926302906 C-90.45479842099286 -6.1160588462675465, -90.35645687930105 -6.491077766232188, -90.1336304491449 -7.340811518003303 C-89.98493044106549 -7.788672250209658, -89.83623043298608 -8.236532982416014, -89.61248514509383 -8.910418140577093 C-89.42171958870863 -9.381612753049676, -89.23095403232342 -9.852807365522258, -88.99184554837109 -10.443409943732574 C-88.79806174506108 -10.845806157614977, -88.60427794175106 -11.24820237149738, -88.2742620002064 -11.933487535324831 C-88.11014511424182 -12.224893684991713, -87.94602822827724 -12.516299834658593, -87.46268320532036 -13.374527866909409 C-87.14297483365216 -13.865685779510207, -86.82326646198398 -14.356843692111005, -86.56044411506429 -14.760609394661605 C-86.29672068295865 -15.113974767984242, -86.032997250853 -15.46734014130688, -85.57125222338968 -16.086036412270353 C-85.27184412414468 -16.43773820244701, -84.97243602489968 -16.78943999262367, -84.49917233196045 -17.345362455817092 C-84.09347460533021 -17.764278666965613, -83.68777687869999 -18.183194878114136, -83.34860984701089 -18.5334126844643 C-82.98846168025497 -18.860489720513705, -82.62831351349905 -19.187566756563108, -82.12429267658653 -19.645305144986487 C-81.69070225604715 -19.99108196704098, -81.25711183550776 -20.336858789095473, -80.83125180255585 -20.676470832763204 C-80.53847774641325 -20.880697340343662, -80.24570369027064 -21.08492384792412, -79.47480060722665 -21.622672466799 C-79.12400508348671 -21.835326774793476, -78.77320955974677 -22.04798108278795, -78.06051303951841 -22.480021901620027 C-77.58624324207193 -22.727448151163554, -77.11197344462545 -22.97487440070708, -76.59420071041058 -23.244996104497716 C-76.24245396919584 -23.400703952637134, -75.89070722798108 -23.556411800776548, -75.08188901178646 -23.91445163234599 C-74.59078824639799 -24.095181253694655, -74.09968748100952 -24.275910875043323, -73.52979235680553 -24.485637548803172 C-72.92159969007372 -24.666145939820723, -72.3134070233419 -24.84665433083827, -71.94428864354681 -24.956206728419538 C-71.55503064442571 -25.045052326573096, -71.16577264530463 -25.133897924726654, -70.33189304685754 -25.324225501499278 C-69.9413333623316 -25.387368162457843, -69.55077367780567 -25.45051082341641, -68.69923124610233 -25.588181599964017 C-68.30117487392025 -25.626581619455592, -67.90311850173818 -25.66498163894717, -67.05301219882529 -25.746990371586765 C-66.53830027582322 -25.763496181131462, -66.02358835282115 -25.780001990676155, -65.4000005722046 -25.799999237060547 C-65.4000005722046 -25.799999237060547, -65.40000057220459 -25.799999237060547, -65.40000057220459 -25.799999237060547" stroke="none" stroke-width="0" fill="#ECECFF" style=""></path><path d="M-65.40000057220459 -25.799999237060547 C-14.481205556112556 -25.799999237060547, 36.43758945997948 -25.799999237060547, 65.40000057220459 -25.799999237060547 M-65.40000057220459 -25.799999237060547 C-16.86307404588075 -25.799999237060547, 31.673852480443088 -25.799999237060547, 65.40000057220459 -25.799999237060547 M65.40000057220459 -25.799999237060547 C65.40000057220459 -25.799999237060547, 65.40000057220459 -25.799999237060547, 65.40000057220459 -25.799999237060547 M65.40000057220459 -25.799999237060547 C65.40000057220459 -25.799999237060547, 65.40000057220459 -25.799999237060547, 65.40000057220459 -25.799999237060547 M65.40000057220459 -25.799999237060547 C65.7882314197117 -25.787549429426495, 66.17646226721882 -25.775099621792446, 67.05301219882529 -25.746990371586765 M65.40000057220459 -25.799999237060547 C65.94844396545972 -25.78241172491916, 66.49688735871484 -25.76482421277777, 67.05301219882529 -25.746990371586765 M67.05301219882529 -25.746990371586765 C67.53236713478564 -25.700747577423325, 68.01172207074602 -25.654504783259885, 68.69923124610231 -25.58818159996402 M67.05301219882529 -25.746990371586765 C67.52350602926406 -25.701602397615954, 67.99399985970283 -25.656214423645146, 68.69923124610231 -25.58818159996402 M68.69923124610231 -25.58818159996402 C69.03215513330194 -25.53435704774489, 69.36507902050158 -25.480532495525757, 70.33189304685753 -25.32422550149928 M68.69923124610231 -25.58818159996402 C69.03846560981539 -25.533336818840674, 69.37769997352846 -25.478492037717324, 70.33189304685753 -25.32422550149928 M70.33189304685753 -25.32422550149928 C70.96060704122539 -25.180725635027052, 71.58932103559326 -25.03722576855482, 71.94428864354678 -24.956206728419545 M70.33189304685753 -25.32422550149928 C70.71773538727142 -25.236159505156387, 71.1035777276853 -25.148093508813496, 71.94428864354678 -24.956206728419545 M71.94428864354678 -24.956206728419545 C72.54418697116532 -24.77816005371295, 73.14408529878384 -24.60011337900635, 73.52979235680552 -24.48563754880318 M71.94428864354678 -24.956206728419545 C72.30041021631598 -24.85051171494193, 72.65653178908518 -24.744816701464313, 73.52979235680552 -24.48563754880318 M73.52979235680552 -24.48563754880318 C74.08119785331994 -24.28271522894934, 74.63260334983434 -24.079792909095502, 75.08188901178644 -23.914451632345997 M73.52979235680552 -24.48563754880318 C73.87044526180051 -24.36027413080409, 74.2110981667955 -24.234910712804997, 75.08188901178644 -23.914451632345997 M75.08188901178644 -23.914451632345997 C75.66520943007643 -23.65623298675443, 76.24852984836643 -23.398014341162856, 76.59420071041056 -23.24499610449772 M75.08188901178644 -23.914451632345997 C75.44972649946553 -23.751620888061854, 75.81756398714461 -23.588790143777707, 76.59420071041056 -23.24499610449772 M76.59420071041056 -23.24499610449772 C77.0606656273377 -23.00164165612187, 77.52713054426484 -22.758287207746022, 78.0605130395184 -22.480021901620034 M76.59420071041056 -23.24499610449772 C77.1703759340861 -22.94440585936404, 77.74655115776163 -22.64381561423036, 78.0605130395184 -22.480021901620034 M78.0605130395184 -22.480021901620034 C78.44544923021316 -22.246671320684722, 78.83038542090792 -22.013320739749407, 79.47480060722664 -21.62267246679901 M78.0605130395184 -22.480021901620034 C78.61023110180183 -22.1467795817619, 79.15994916408526 -21.813537261903768, 79.47480060722664 -21.62267246679901 M79.47480060722664 -21.62267246679901 C79.90438271693526 -21.323014583376093, 80.33396482664386 -21.023356699953176, 80.83125180255584 -20.67647083276321 M79.47480060722664 -21.62267246679901 C79.79387407787034 -21.40010062614589, 80.11294754851406 -21.177528785492765, 80.83125180255584 -20.67647083276321 M80.83125180255584 -20.67647083276321 C81.2064017016704 -20.377298771377436, 81.58155160078495 -20.07812670999166, 82.1242926765865 -19.64530514498651 M80.83125180255584 -20.67647083276321 C81.16770814899668 -20.40815584995604, 81.50416449543752 -20.139840867148866, 82.1242926765865 -19.64530514498651 M82.1242926765865 -19.64530514498651 C82.45778299840308 -19.34243805838309, 82.79127332021966 -19.039570971779675, 83.34860984701088 -18.533412684464313 M82.1242926765865 -19.64530514498651 C82.58932322175136 -19.22297670790178, 83.05435376691621 -18.80064827081705, 83.34860984701088 -18.533412684464313 M83.34860984701088 -18.533412684464313 C83.71504277255721 -18.15504060413503, 84.08147569810356 -17.77666852380575, 84.49917233196044 -17.345362455817106 M83.34860984701088 -18.533412684464313 C83.64367840227612 -18.22873017557403, 83.93874695754135 -17.924047666683744, 84.49917233196044 -17.345362455817106 M84.49917233196044 -17.345362455817106 C84.75328486175913 -17.046867418902995, 85.00739739155783 -16.748372381988887, 85.57125222338968 -16.086036412270357 M84.49917233196044 -17.345362455817106 C84.79468358597055 -16.998238121790138, 85.09019483998064 -16.65111378776317, 85.57125222338968 -16.086036412270357 M85.57125222338968 -16.086036412270357 C85.86313482113279 -15.694940322346266, 86.1550174188759 -15.303844232422176, 86.56044411506427 -14.76060939466161 M85.57125222338968 -16.086036412270357 C85.8612680024717 -15.697441689281444, 86.15128378155373 -15.30884696629253, 86.56044411506427 -14.76060939466161 M86.56044411506427 -14.76060939466161 C86.77414656993219 -14.432305036840393, 86.98784902480011 -14.104000679019178, 87.46268320532036 -13.374527866909407 M86.56044411506427 -14.76060939466161 C86.85388299934351 -14.30980846903531, 87.14732188362275 -13.859007543409012, 87.46268320532036 -13.374527866909407 M87.46268320532036 -13.374527866909407 C87.66243936407297 -13.019840579539691, 87.86219552282557 -12.665153292169974, 88.2742620002064 -11.93348753532484 M87.46268320532036 -13.374527866909407 C87.7568747652486 -12.852160962131054, 88.05106632517683 -12.3297940573527, 88.2742620002064 -11.93348753532484 M88.2742620002064 -11.93348753532484 C88.43120956701634 -11.607582554704047, 88.58815713382627 -11.281677574083252, 88.99184554837109 -10.443409943732584 M88.2742620002064 -11.93348753532484 C88.54319589689513 -11.375040544587138, 88.81212979358385 -10.816593553849437, 88.99184554837109 -10.443409943732584 M88.99184554837109 -10.443409943732584 C89.2075801524179 -9.910541300792126, 89.42331475646472 -9.377672657851665, 89.61248514509381 -8.910418140577123 M88.99184554837109 -10.443409943732584 C89.22947535726206 -9.856459721512048, 89.46710516615305 -9.269509499291512, 89.61248514509381 -8.910418140577123 M89.61248514509381 -8.910418140577123 C89.73147935599677 -8.552026536490244, 89.85047356689971 -8.193634932403365, 90.1336304491449 -7.340811518003323 M89.61248514509381 -8.910418140577123 C89.81260426760876 -8.307691228214276, 90.0127233901237 -7.70496431585143, 90.1336304491449 -7.340811518003323 M90.1336304491449 -7.340811518003323 C90.23372058835433 -6.959124437857031, 90.33381072756376 -6.577437357710738, 90.55313996268467 -5.741039926302914 M90.1336304491449 -7.340811518003323 C90.2188339044483 -7.015893815520332, 90.3040373597517 -6.690976113037342, 90.55313996268467 -5.741039926302914 M90.55313996268467 -5.741039926302914 C90.67633230626264 -5.108473278741124, 90.79952464984059 -4.475906631179333, 90.86928983113748 -4.117677170096137 M90.55313996268467 -5.741039926302914 C90.61681276657644 -5.4140935355704904, 90.68048557046824 -5.087147144838068, 90.86928983113748 -4.117677170096137 M90.86928983113748 -4.117677170096137 C90.93404610688076 -3.61544028300431, 90.99880238262402 -3.1132033959124836, 91.08078092687991 -2.4773939951584394 M90.86928983113748 -4.117677170096137 C90.95256571146955 -3.471805886923251, 91.0358415918016 -2.8259346037503654, 91.08078092687991 -2.4773939951584394 M91.08078092687991 -2.4773939951584394 C91.11796092716068 -1.8982854796294182, 91.15514092744145 -1.319176964100397, 91.18674418763487 -0.8269306768952902 M91.08078092687991 -2.4773939951584394 C91.10488543231388 -2.1019468662178222, 91.12898993774785 -1.726499737277205, 91.18674418763487 -0.8269306768952902 M91.18674418763487 -0.8269306768952902 C91.18674418763487 -0.30554814860176716, 91.18674418763487 0.2158343796917559, 91.18674418763487 0.826930676895284 M91.18674418763487 -0.8269306768952902 C91.18674418763487 -0.47944970651200036, 91.18674418763487 -0.13196873612871052, 91.18674418763487 0.826930676895284 M91.18674418763487 0.826930676895284 C91.16474945885837 1.169516331414919, 91.14275473008186 1.512101985934554, 91.08078092687991 2.4773939951584216 M91.18674418763487 0.826930676895284 C91.14614875430922 1.459237318986305, 91.10555332098357 2.091543961077326, 91.08078092687991 2.4773939951584216 M91.08078092687991 2.4773939951584216 C90.9989635454432 3.1119534489120824, 90.91714616400651 3.746512902665743, 90.86928983113748 4.117677170096119 M91.08078092687991 2.4773939951584216 C91.01233711580048 3.0082306781312633, 90.94389330472104 3.539067361104105, 90.86928983113748 4.117677170096119 M90.86928983113748 4.117677170096119 C90.75434901563972 4.707873964927168, 90.63940820014194 5.298070759758216, 90.55313996268467 5.741039926302909 M90.86928983113748 4.117677170096119 C90.75349284592407 4.712270215465464, 90.63769586071066 5.30686326083481, 90.55313996268467 5.741039926302909 M90.55313996268467 5.741039926302909 C90.38863377816634 6.3683733053026685, 90.224127593648 6.995706684302428, 90.1336304491449 7.340811518003306 M90.55313996268467 5.741039926302909 C90.4677962453726 6.066492508614911, 90.38245252806051 6.391945090926914, 90.1336304491449 7.340811518003306 M90.1336304491449 7.340811518003306 C89.94117921363967 7.920443976404809, 89.74872797813444 8.500076434806312, 89.61248514509383 8.910418140577105 M90.1336304491449 7.340811518003306 C89.93761107590962 7.9311906387421764, 89.74159170267434 8.521569759481048, 89.61248514509383 8.910418140577105 M89.61248514509383 8.910418140577105 C89.4028340132816 9.428260489482193, 89.19318288146938 9.946102838387281, 88.99184554837109 10.443409943732577 M89.61248514509383 8.910418140577105 C89.40974457447419 9.411191269729894, 89.20700400385455 9.91196439888268, 88.99184554837109 10.443409943732577 M88.99184554837109 10.443409943732577 C88.80376247830381 10.833968463060291, 88.61567940823653 11.224526982388007, 88.2742620002064 11.933487535324835 M88.99184554837109 10.443409943732577 C88.83506136576989 10.768975653548075, 88.67827718316869 11.094541363363575, 88.2742620002064 11.933487535324835 M88.2742620002064 11.933487535324835 C88.07874354967004 12.280650342642128, 87.88322509913368 12.62781314995942, 87.46268320532037 13.374527866909402 M88.2742620002064 11.933487535324835 C88.10059965761403 12.241842609816661, 87.92693731502166 12.55019768430849, 87.46268320532037 13.374527866909402 M87.46268320532037 13.374527866909402 C87.20464835539404 13.770938688455248, 86.94661350546772 14.167349510001094, 86.56044411506429 14.760609394661596 M87.46268320532037 13.374527866909402 C87.15910802921972 13.84090085874884, 86.85553285311909 14.307273850588281, 86.56044411506429 14.760609394661596 M86.56044411506429 14.760609394661596 C86.23187476461531 15.200862390979603, 85.90330541416634 15.641115387297612, 85.57125222338968 16.086036412270353 M86.56044411506429 14.760609394661596 C86.16742603613764 15.287217815739744, 85.77440795721098 15.81382623681789, 85.57125222338968 16.086036412270353 M85.57125222338968 16.086036412270353 C85.35180429714748 16.34381243337518, 85.13235637090528 16.60158845448001, 84.49917233196045 17.345362455817092 M85.57125222338968 16.086036412270353 C85.2457937058553 16.468338506080496, 84.92033518832095 16.850640599890635, 84.49917233196045 17.345362455817092 M84.49917233196045 17.345362455817092 C84.06229635450066 17.796472770729135, 83.62542037704087 18.247583085641175, 83.34860984701088 18.533412684464306 M84.49917233196045 17.345362455817092 C84.13021384926707 17.726342381252792, 83.76125536657368 18.107322306688495, 83.34860984701088 18.533412684464306 M83.34860984701088 18.533412684464306 C82.93712529802688 18.907112064567006, 82.5256407490429 19.280811444669702, 82.12429267658653 19.64530514498649 M83.34860984701088 18.533412684464306 C83.04647726224587 18.807801503957748, 82.74434467748087 19.082190323451194, 82.12429267658653 19.64530514498649 M82.12429267658653 19.64530514498649 C81.79136944341478 19.91080256398166, 81.45844621024301 20.17629998297683, 80.83125180255584 20.676470832763208 M82.12429267658653 19.64530514498649 C81.85376251688449 19.861045748238986, 81.58323235718242 20.076786351491478, 80.83125180255584 20.676470832763208 M80.83125180255584 20.676470832763208 C80.51229202787523 20.898963364034287, 80.19333225319464 21.121455895305367, 79.47480060722665 21.622672466799003 M80.83125180255584 20.676470832763208 C80.51742136886173 20.8953853578077, 80.20359093516764 21.114299882852194, 79.47480060722665 21.622672466799003 M79.47480060722665 21.622672466799003 C78.96602182774883 21.931097152834443, 78.45724304827102 22.23952183886988, 78.06051303951841 22.48002190162003 M79.47480060722665 21.622672466799003 C79.02331442650062 21.896366042782432, 78.57182824577457 22.170059618765862, 78.06051303951841 22.48002190162003 M78.06051303951841 22.48002190162003 C77.54723322257092 22.747799653350118, 77.03395340562345 23.015577405080208, 76.59420071041058 23.244996104497716 M78.06051303951841 22.48002190162003 C77.56724907692822 22.737357394952685, 77.07398511433803 22.99469288828534, 76.59420071041058 23.244996104497716 M76.59420071041058 23.244996104497716 C76.00226970776124 23.50702640036125, 75.41033870511191 23.76905669622479, 75.08188901178644 23.914451632345994 M76.59420071041058 23.244996104497716 C76.17597091107048 23.430134030319376, 75.75774111173038 23.615271956141036, 75.08188901178644 23.914451632345994 M75.08188901178644 23.914451632345994 C74.74215516033402 24.03947683014578, 74.4024213088816 24.164502027945566, 73.52979235680553 24.485637548803172 M75.08188901178644 23.914451632345994 C74.74478076659624 24.03851058277045, 74.40767252140603 24.162569533194908, 73.52979235680553 24.485637548803172 M73.52979235680553 24.485637548803172 C72.95998011420032 24.654754831402904, 72.3901678715951 24.823872114002636, 71.94428864354681 24.95620672841954 M73.52979235680553 24.485637548803172 C73.1766062381488 24.59046133490872, 72.82342011949207 24.695285121014273, 71.94428864354681 24.95620672841954 M71.94428864354681 24.95620672841954 C71.37488470290498 25.086169462163074, 70.80548076226314 25.21613219590661, 70.33189304685754 25.324225501499278 M71.94428864354681 24.95620672841954 C71.56258881335415 25.043327223836844, 71.18088898316148 25.13044771925415, 70.33189304685754 25.324225501499278 M70.33189304685754 25.324225501499278 C69.87663208356426 25.39782856344304, 69.42137112027096 25.471431625386796, 68.69923124610233 25.588181599964017 M70.33189304685754 25.324225501499278 C69.70669210169095 25.425303141808072, 69.08149115652434 25.526380782116867, 68.69923124610233 25.588181599964017 M68.69923124610233 25.588181599964017 C68.16758749510691 25.639468633227388, 67.63594374411149 25.69075566649076, 67.05301219882529 25.746990371586765 M68.69923124610233 25.588181599964017 C68.19149166712344 25.637162626501926, 67.68375208814457 25.686143653039835, 67.05301219882529 25.746990371586765 M67.05301219882529 25.746990371586765 C66.4303003126122 25.76695952974246, 65.80758842639912 25.786928687898158, 65.40000057220459 25.799999237060547 M67.05301219882529 25.746990371586765 C66.69976577598234 25.75831829681489, 66.3465193531394 25.76964622204301, 65.40000057220459 25.799999237060547 M65.40000057220459 25.799999237060547 C65.40000057220459 25.799999237060547, 65.40000057220459 25.799999237060547, 65.40000057220459 25.799999237060547 M65.40000057220459 25.799999237060547 C65.40000057220459 25.799999237060547, 65.40000057220459 25.799999237060547, 65.40000057220459 25.799999237060547 M65.40000057220459 25.799999237060547 C13.33074920796502 25.799999237060547, -38.73850215627455 25.799999237060547, -65.40000057220459 25.799999237060547 M65.40000057220459 25.799999237060547 C21.48912361169471 25.799999237060547, -22.421753348815173 25.799999237060547, -65.40000057220459 25.799999237060547 M-65.40000057220459 25.799999237060547 C-65.93089843670774 25.782974375875934, -66.4617963012109 25.765949514691325, -67.05301219882527 25.746990371586765 M-65.40000057220459 25.799999237060547 C-66.02395717116698 25.779990163389666, -66.64791377012936 25.759981089718785, -67.05301219882527 25.746990371586765 M-67.05301219882527 25.746990371586765 C-67.62963567200507 25.6913641986203, -68.20625914518486 25.63573802565383, -68.69923124610231 25.588181599964017 M-67.05301219882527 25.746990371586765 C-67.62181621344168 25.69211853238363, -68.19062022805808 25.6372466931805, -68.69923124610231 25.588181599964017 M-68.69923124610231 25.588181599964017 C-69.03489356952186 25.53391431861374, -69.3705558929414 25.479647037263465, -70.33189304685753 25.324225501499278 M-68.69923124610231 25.588181599964017 C-69.3345163506289 25.485473630973722, -69.9698014551555 25.38276566198343, -70.33189304685753 25.324225501499278 M-70.33189304685753 25.324225501499278 C-70.78123660255373 25.221665767152352, -71.23058015824995 25.119106032805426, -71.94428864354678 24.956206728419545 M-70.33189304685753 25.324225501499278 C-70.6824521191089 25.244212680869637, -71.03301119136027 25.164199860239997, -71.94428864354678 24.956206728419545 M-71.94428864354678 24.956206728419545 C-72.45860461736383 24.803560447090284, -72.97292059118088 24.650914165761023, -73.5297923568055 24.485637548803183 M-71.94428864354678 24.956206728419545 C-72.30654638706076 24.848690531674297, -72.66880413057474 24.741174334929045, -73.5297923568055 24.485637548803183 M-73.5297923568055 24.485637548803183 C-73.89575595593867 24.350959561391754, -74.26171955507183 24.21628157398032, -75.08188901178644 23.914451632345997 M-73.5297923568055 24.485637548803183 C-73.9364758703436 24.33597425647997, -74.3431593838817 24.186310964156764, -75.08188901178644 23.914451632345997 M-75.08188901178644 23.914451632345997 C-75.39523851884907 23.775741100752242, -75.7085880259117 23.637030569158487, -76.59420071041056 23.244996104497723 M-75.08188901178644 23.914451632345997 C-75.57338405505939 23.696881356371506, -76.06487909833234 23.479311080397014, -76.59420071041056 23.244996104497723 M-76.59420071041056 23.244996104497723 C-77.16080898521959 22.949396930459773, -77.72741726002862 22.653797756421827, -78.0605130395184 22.480021901620038 M-76.59420071041056 23.244996104497723 C-76.90408873175139 23.083327722256964, -77.21397675309223 22.921659340016205, -78.0605130395184 22.480021901620038 M-78.0605130395184 22.480021901620038 C-78.4181298545492 22.26323248675868, -78.77574666958002 22.046443071897325, -79.47480060722663 21.622672466799017 M-78.0605130395184 22.480021901620038 C-78.43688923197854 22.251860441918677, -78.8132654244387 22.023698982217315, -79.47480060722663 21.622672466799017 M-79.47480060722663 21.622672466799017 C-79.79787414667365 21.39731035130889, -80.12094768612067 21.171948235818757, -80.83125180255584 20.67647083276321 M-79.47480060722663 21.622672466799017 C-79.90773520611272 21.32067603205281, -80.34066980499881 21.018679597306598, -80.83125180255584 20.67647083276321 M-80.83125180255584 20.67647083276321 C-81.13554965770093 20.433801390991004, -81.43984751284603 20.1911319492188, -82.1242926765865 19.645305144986512 M-80.83125180255584 20.67647083276321 C-81.30597844014656 20.29788897229099, -81.78070507773728 19.91930711181877, -82.1242926765865 19.645305144986512 M-82.1242926765865 19.645305144986512 C-82.39581171660186 19.398718736844703, -82.6673307566172 19.152132328702894, -83.34860984701086 18.533412684464324 M-82.1242926765865 19.645305144986512 C-82.37083493392892 19.4214019900188, -82.61737719127134 19.197498835051086, -83.34860984701086 18.533412684464324 M-83.34860984701086 18.533412684464324 C-83.78888710792704 18.07879026513299, -84.22916436884323 17.62416784580166, -84.49917233196044 17.3453624558171 M-83.34860984701086 18.533412684464324 C-83.75155262705252 18.117341181853824, -84.15449540709417 17.701269679243325, -84.49917233196044 17.3453624558171 M-84.49917233196044 17.3453624558171 C-84.86080461848732 16.920568594602585, -85.2224369050142 16.495774733388075, -85.57125222338968 16.08603641227036 M-84.49917233196044 17.3453624558171 C-84.77766605336951 17.018227883908327, -85.0561597747786 16.691093311999555, -85.57125222338968 16.08603641227036 M-85.57125222338968 16.08603641227036 C-85.93014920785441 15.605147149275517, -86.28904619231915 15.124257886280674, -86.56044411506427 14.760609394661614 M-85.57125222338968 16.08603641227036 C-85.81990823744448 15.752860006465827, -86.06856425149927 15.419683600661296, -86.56044411506427 14.760609394661614 M-86.56044411506427 14.760609394661614 C-86.8335508854428 14.341044055923843, -87.10665765582135 13.921478717186073, -87.46268320532036 13.374527866909418 M-86.56044411506427 14.760609394661614 C-86.8782339417217 14.272398882398818, -87.19602376837915 13.784188370136022, -87.46268320532036 13.374527866909418 M-87.46268320532036 13.374527866909418 C-87.68221021678569 12.984735428532314, -87.90173722825104 12.59494299015521, -88.27426200020639 11.933487535324842 M-87.46268320532036 13.374527866909418 C-87.74137955483918 12.87967427727317, -88.02007590435801 12.384820687636921, -88.27426200020639 11.933487535324842 M-88.27426200020639 11.933487535324842 C-88.45725472135751 11.553499234437547, -88.64024744250864 11.173510933550254, -88.99184554837109 10.443409943732586 M-88.27426200020639 11.933487535324842 C-88.45719650187155 11.55362012844586, -88.6401310035367 11.173752721566881, -88.99184554837109 10.443409943732586 M-88.99184554837109 10.443409943732586 C-89.21494405615482 9.892352316190541, -89.43804256393855 9.341294688648498, -89.61248514509381 8.910418140577127 M-88.99184554837109 10.443409943732586 C-89.16656877093705 10.011840205950959, -89.341291993503 9.580270468169331, -89.61248514509381 8.910418140577127 M-89.61248514509381 8.910418140577127 C-89.76426957055105 8.453267634663941, -89.91605399600829 7.9961171287507575, -90.1336304491449 7.340811518003316 M-89.61248514509381 8.910418140577127 C-89.79799264485852 8.351699107892022, -89.98350014462325 7.792980075206918, -90.1336304491449 7.340811518003316 M-90.1336304491449 7.340811518003316 C-90.26590225315353 6.836401802355934, -90.39817405716215 6.331992086708552, -90.55313996268467 5.741039926302918 M-90.1336304491449 7.340811518003316 C-90.22194517656676 7.004029186498761, -90.31025990398864 6.667246854994207, -90.55313996268467 5.741039926302918 M-90.55313996268467 5.741039926302918 C-90.65919112173637 5.196489638492837, -90.76524228078807 4.651939350682757, -90.86928983113748 4.117677170096139 M-90.55313996268467 5.741039926302918 C-90.62170781367001 5.3889585033136305, -90.69027566465536 5.036877080324343, -90.86928983113748 4.117677170096139 M-90.86928983113748 4.117677170096139 C-90.91174869187238 3.78837463068671, -90.95420755260726 3.4590720912772808, -91.08078092687991 2.477393995158454 M-90.86928983113748 4.117677170096139 C-90.92312843912684 3.7001155581663223, -90.9769670471162 3.282553946236505, -91.08078092687991 2.477393995158454 M-91.08078092687991 2.477393995158454 C-91.11978264333578 1.8699107797393282, -91.15878435979165 1.262427564320202, -91.18674418763487 0.8269306768952934 M-91.08078092687991 2.477393995158454 C-91.10694493831772 2.0698683978046324, -91.13310894975554 1.6623428004508107, -91.18674418763487 0.8269306768952934 M-91.18674418763487 0.8269306768952934 C-91.18674418763487 0.27658910282712956, -91.18674418763487 -0.2737524712410343, -91.18674418763487 -0.8269306768952809 M-91.18674418763487 0.8269306768952934 C-91.18674418763487 0.28266284105892225, -91.18674418763487 -0.2616049947774489, -91.18674418763487 -0.8269306768952809 M-91.18674418763487 -0.8269306768952809 C-91.16324844040167 -1.1928959054782626, -91.13975269316846 -1.5588611340612442, -91.08078092687991 -2.4773939951584185 M-91.18674418763487 -0.8269306768952809 C-91.16188425952808 -1.214144123731349, -91.13702433142129 -1.6013575705674172, -91.08078092687991 -2.4773939951584185 M-91.08078092687991 -2.4773939951584185 C-91.0049981922593 -3.0651499198822862, -90.92921545763869 -3.6529058446061544, -90.86928983113748 -4.117677170096128 M-91.08078092687991 -2.4773939951584185 C-91.03490326780651 -2.833212059363263, -90.9890256087331 -3.1890301235681067, -90.86928983113748 -4.117677170096128 M-90.86928983113748 -4.117677170096128 C-90.76086153920313 -4.674433532851381, -90.65243324726877 -5.231189895606636, -90.55313996268467 -5.741039926302906 M-90.86928983113748 -4.117677170096128 C-90.78690773820375 -4.540691805849334, -90.70452564527001 -4.963706441602539, -90.55313996268467 -5.741039926302906 M-90.55313996268467 -5.741039926302906 C-90.38849078605776 -6.368918596185857, -90.22384160943085 -6.996797266068807, -90.1336304491449 -7.340811518003303 M-90.55313996268467 -5.741039926302906 C-90.41567195366135 -6.265265023720842, -90.27820394463801 -6.789490121138778, -90.1336304491449 -7.340811518003303 M-90.1336304491449 -7.340811518003303 C-89.94204815246079 -7.9178268711222195, -89.75046585577665 -8.494842224241136, -89.61248514509383 -8.910418140577093 M-90.1336304491449 -7.340811518003303 C-90.02369136712807 -7.6719305166240845, -89.91375228511123 -8.003049515244866, -89.61248514509383 -8.910418140577093 M-89.61248514509383 -8.910418140577093 C-89.48453461198427 -9.226458431112967, -89.35658407887472 -9.54249872164884, -88.99184554837109 -10.443409943732574 M-89.61248514509383 -8.910418140577093 C-89.45360211808823 -9.302862289075275, -89.29471909108264 -9.695306437573457, -88.99184554837109 -10.443409943732574 M-88.99184554837109 -10.443409943732574 C-88.73159830062536 -10.983818922075638, -88.47135105287964 -11.524227900418701, -88.2742620002064 -11.933487535324831 M-88.99184554837109 -10.443409943732574 C-88.77799847801082 -10.887467960930003, -88.56415140765053 -11.331525978127432, -88.2742620002064 -11.933487535324831 M-88.2742620002064 -11.933487535324831 C-87.98155482184148 -12.453218770327581, -87.68884764347656 -12.972950005330333, -87.46268320532036 -13.374527866909409 M-88.2742620002064 -11.933487535324831 C-88.01618259331711 -12.391733655630516, -87.75810318642783 -12.849979775936198, -87.46268320532036 -13.374527866909409 M-87.46268320532036 -13.374527866909409 C-87.28080079524774 -13.653948091046626, -87.09891838517511 -13.933368315183843, -86.56044411506429 -14.760609394661605 M-87.46268320532036 -13.374527866909409 C-87.15656625179976 -13.844805711428714, -86.85044929827916 -14.315083555948018, -86.56044411506429 -14.760609394661605 M-86.56044411506429 -14.760609394661605 C-86.34951171348325 -15.04323959644309, -86.13857931190222 -15.325869798224575, -85.57125222338968 -16.086036412270353 M-86.56044411506429 -14.760609394661605 C-86.16563452035574 -15.289618283677045, -85.77082492564719 -15.818627172692485, -85.57125222338968 -16.086036412270353 M-85.57125222338968 -16.086036412270353 C-85.34913497678275 -16.34694796896423, -85.12701773017582 -16.607859525658107, -84.49917233196045 -17.345362455817092 M-85.57125222338968 -16.086036412270353 C-85.30590653913205 -16.397726551596513, -85.04056085487444 -16.70941669092267, -84.49917233196045 -17.345362455817092 M-84.49917233196045 -17.345362455817092 C-84.22073059698738 -17.632876407668373, -83.94228886201432 -17.92039035951965, -83.34860984701089 -18.5334126844643 M-84.49917233196045 -17.345362455817092 C-84.21593706730309 -17.637826120623515, -83.93270180264572 -17.930289785429938, -83.34860984701089 -18.5334126844643 M-83.34860984701089 -18.5334126844643 C-82.89432132316055 -18.945985502009503, -82.44003279931022 -19.358558319554707, -82.12429267658653 -19.645305144986487 M-83.34860984701089 -18.5334126844643 C-83.02323970570592 -18.828905237975277, -82.69786956440096 -19.12439779148626, -82.12429267658653 -19.645305144986487 M-82.12429267658653 -19.645305144986487 C-81.70391140733963 -19.980548020395503, -81.28353013809273 -20.31579089580452, -80.83125180255585 -20.676470832763204 M-82.12429267658653 -19.645305144986487 C-81.67088433109315 -20.00688623481466, -81.21747598559976 -20.368467324642836, -80.83125180255585 -20.676470832763204 M-80.83125180255585 -20.676470832763204 C-80.42730107883719 -20.958249370884346, -80.02335035511854 -21.24002790900549, -79.47480060722665 -21.622672466799 M-80.83125180255585 -20.676470832763204 C-80.41898973586643 -20.964047003948515, -80.006727669177 -21.251623175133826, -79.47480060722665 -21.622672466799 M-79.47480060722665 -21.622672466799 C-79.0916282340457 -21.8549538111921, -78.70845586086475 -22.087235155585205, -78.06051303951841 -22.480021901620027 M-79.47480060722665 -21.622672466799 C-78.99060834013869 -21.91619266453732, -78.50641607305074 -22.209712862275644, -78.06051303951841 -22.480021901620027 M-78.06051303951841 -22.480021901620027 C-77.56315609052027 -22.73949270334003, -77.06579914152213 -22.99896350506003, -76.59420071041058 -23.244996104497716 M-78.06051303951841 -22.480021901620027 C-77.6175734593916 -22.71110319685585, -77.17463387926476 -22.942184492091673, -76.59420071041058 -23.244996104497716 M-76.59420071041058 -23.244996104497716 C-76.1938331161717 -23.422226961984553, -75.79346552193283 -23.59945781947139, -75.08188901178646 -23.91445163234599 M-76.59420071041058 -23.244996104497716 C-76.2065718848147 -23.416587886988445, -75.81894305921881 -23.588179669479178, -75.08188901178646 -23.91445163234599 M-75.08188901178646 -23.91445163234599 C-74.5321714268128 -24.11675278514995, -73.98245384183915 -24.319053937953903, -73.52979235680553 -24.485637548803172 M-75.08188901178646 -23.91445163234599 C-74.64614664649078 -24.07480885073307, -74.2104042811951 -24.23516606912015, -73.52979235680553 -24.485637548803172 M-73.52979235680553 -24.485637548803172 C-72.90673265068548 -24.670558399072466, -72.28367294456545 -24.855479249341755, -71.94428864354681 -24.956206728419538 M-73.52979235680553 -24.485637548803172 C-72.99444253328983 -24.644526566314067, -72.45909270977413 -24.80341558382496, -71.94428864354681 -24.956206728419538 M-71.94428864354681 -24.956206728419538 C-71.6167443510857 -25.030966575747527, -71.28920005862457 -25.105726423075517, -70.33189304685754 -25.324225501499278 M-71.94428864354681 -24.956206728419538 C-71.6127913300456 -25.031868827004057, -71.28129401654438 -25.107530925588577, -70.33189304685754 -25.324225501499278 M-70.33189304685754 -25.324225501499278 C-69.94228752794085 -25.387213900361804, -69.55268200902414 -25.450202299224333, -68.69923124610233 -25.588181599964017 M-70.33189304685754 -25.324225501499278 C-69.85911261963716 -25.4006609745053, -69.38633219241676 -25.477096447511318, -68.69923124610233 -25.588181599964017 M-68.69923124610233 -25.588181599964017 C-68.2539587415666 -25.631136502958043, -67.80868623703088 -25.67409140595207, -67.05301219882529 -25.746990371586765 M-68.69923124610233 -25.588181599964017 C-68.11673700807285 -25.644374118554907, -67.53424277004335 -25.700566637145798, -67.05301219882529 -25.746990371586765 M-67.05301219882529 -25.746990371586765 C-66.60956224100772 -25.761210948610994, -66.16611228319017 -25.775431525635224, -65.4000005722046 -25.799999237060547 M-67.05301219882529 -25.746990371586765 C-66.66447496001899 -25.759450004593425, -66.27593772121271 -25.771909637600086, -65.4000005722046 -25.799999237060547 M-65.4000005722046 -25.799999237060547 C-65.4000005722046 -25.799999237060547, -65.40000057220459 -25.799999237060547, -65.40000057220459 -25.799999237060547 M-65.4000005722046 -25.799999237060547 C-65.4000005722046 -25.799999237060547, -65.40000057220459 -25.799999237060547, -65.40000057220459 -25.799999237060547" stroke="#9370DB" stroke-width="1.3" fill="none" stroke-dasharray="0 0" style=""></path></g><g class="label" style="" transform="translate(0, -18.299999237060547)"><rect></rect><g><rect class="background" style="stroke: none"></rect><text y="-10.1" style=""><tspan class="text-outer-tspan row" x="0" y="-0.1em" dy="1.1em"><tspan font-style="normal" class="text-inner-tspan" font-weight="normal">PaintInvalidator</tspan><tspan font-style="normal" class="text-inner-tspan" font-weight="normal"> visits</tspan></tspan><tspan class="text-outer-tspan row" x="0" y="1em" dy="1.1em"><tspan font-style="normal" class="text-inner-tspan" font-weight="normal">LayoutObject</tspan></tspan></text></g></g></g><g class="node default" id="ga880a294-9f64-4a35-85c6-2f9a5f234d10-light-flowchart-Cmp-2" data-look="classic" transform="translate(372.03125, 178.0999984741211)"><rect class="basic label-container" style="" x="-109.046875" y="-68.5" width="218.09375" height="137"></rect><g class="label" style="" transform="translate(0, -53.5)"><rect></rect><g><rect class="background" style="stroke: none"></rect><text y="-10.1" style=""><tspan class="text-outer-tspan row" x="0" y="-0.1em" dy="1.1em"><tspan font-style="normal" class="text-inner-tspan" font-weight="normal">Compare</tspan><tspan font-style="normal" class="text-inner-tspan" font-weight="normal"> current</tspan><tspan font-style="normal" class="text-inner-tspan" font-weight="normal"> vs</tspan></tspan><tspan class="text-outer-tspan row" x="0" y="1em" dy="1.1em"><tspan font-style="normal" class="text-inner-tspan" font-weight="normal">cached:</tspan></tspan><tspan class="text-outer-tspan row" x="0" y="2.1em" dy="1.1em"><tspan font-style="normal" class="text-inner-tspan" font-weight="normal">computed</tspan><tspan font-style="normal" class="text-inner-tspan" font-weight="normal"> style,</tspan><tspan font-style="normal" class="text-inner-tspan" font-weight="normal"> paint</tspan></tspan><tspan class="text-outer-tspan row" x="0" y="3.2em" dy="1.1em"><tspan font-style="normal" class="text-inner-tspan" font-weight="normal">offset,</tspan></tspan><tspan class="text-outer-tspan row" x="0" y="4.300000000000001em" dy="1.1em"><tspan font-style="normal" class="text-inner-tspan" font-weight="normal">visual</tspan><tspan font-style="normal" class="text-inner-tspan" font-weight="normal"> rect,</tspan></tspan><tspan class="text-outer-tspan row" x="0" y="5.4em" dy="1.1em"><tspan font-style="normal" class="text-inner-tspan" font-weight="normal">PropertyTreeState</tspan></tspan></text></g></g></g><g class="node default" id="ga880a294-9f64-4a35-85c6-2f9a5f234d10-light-flowchart-Q1-4" data-look="classic" transform="translate(372.03125, 426.9546890258789)"><polygon points="130.35468673706055,0 260.7093734741211,-130.35468673706055 130.35468673706055,-260.7093734741211 0,-130.35468673706055" class="label-container" transform="translate(-129.85468673706055, 130.35468673706055)"></polygon><g class="label" style="" transform="translate(0, -18.299999237060547)"><rect></rect><g><rect class="background" style="stroke: none"></rect><text y="-10.1" style=""><tspan class="text-outer-tspan row" x="0" y="-0.1em" dy="1.1em"><tspan font-style="normal" class="text-inner-tspan" font-weight="normal">PropertyTreeState</tspan><tspan font-style="normal" class="text-inner-tspan" font-weight="normal"> changed</tspan></tspan><tspan class="text-outer-tspan row" x="0" y="1em" dy="1.1em"><tspan font-style="normal" class="text-inner-tspan" font-weight="normal">OR</tspan><tspan font-style="normal" class="text-inner-tspan" font-weight="normal"> chunk</tspan><tspan font-style="normal" class="text-inner-tspan" font-weight="normal"> order</tspan><tspan font-style="normal" class="text-inner-tspan" font-weight="normal"> changed?</tspan></tspan></text></g></g></g><g class="node default" id="ga880a294-9f64-4a35-85c6-2f9a5f234d10-light-flowchart-Chunk-6" data-look="classic" transform="translate(97.3046875, 969.5593757629395)"><rect class="basic label-container" style="fill:#ffebee !important;stroke:#c62828 !important" x="-89.3046875" y="-33.29999923706055" width="178.609375" height="66.5999984741211"></rect><g class="label" style="" transform="translate(0, -18.299999237060547)"><rect></rect><g><rect class="background" style="stroke: none"></rect><text y="-10.1" style=""><tspan class="text-outer-tspan row" x="0" y="-0.1em" dy="1.1em"><tspan font-style="normal" class="text-inner-tspan" font-weight="normal">Invalidate</tspan><tspan font-style="normal" class="text-inner-tspan" font-weight="normal"> whole</tspan></tspan><tspan class="text-outer-tspan row" x="0" y="1em" dy="1.1em"><tspan font-style="normal" class="text-inner-tspan" font-weight="normal">PaintChunk</tspan></tspan></text></g></g></g><g class="node default" id="ga880a294-9f64-4a35-85c6-2f9a5f234d10-light-flowchart-Q2-8" data-look="classic" transform="translate(497.93359375, 746.7843780517578)"><polygon points="116.4749984741211,0 232.9499969482422,-116.4749984741211 116.4749984741211,-232.9499969482422 0,-116.4749984741211" class="label-container" transform="translate(-115.9749984741211, 116.4749984741211)"></polygon><g class="label" style="" transform="translate(0, -27.099998474121094)"><rect></rect><g><rect class="background" style="stroke: none"></rect><text y="-10.1" style=""><tspan class="text-outer-tspan row" x="0" y="-0.1em" dy="1.1em"><tspan font-style="normal" class="text-inner-tspan" font-weight="normal">Display</tspan><tspan font-style="normal" class="text-inner-tspan" font-weight="normal"> item</tspan><tspan font-style="normal" class="text-inner-tspan" font-weight="normal"> content</tspan></tspan><tspan class="text-outer-tspan row" x="0" y="1em" dy="1.1em"><tspan font-style="normal" class="text-inner-tspan" font-weight="normal">(geometry</tspan><tspan font-style="normal" class="text-inner-tspan" font-weight="normal"> /</tspan><tspan font-style="normal" class="text-inner-tspan" font-weight="normal"> style)</tspan></tspan><tspan class="text-outer-tspan row" x="0" y="2.1em" dy="1.1em"><tspan font-style="normal" class="text-inner-tspan" font-weight="normal">changed?</tspan></tspan></text></g></g></g><g class="node default" id="ga880a294-9f64-4a35-85c6-2f9a5f234d10-light-flowchart-Item-10" data-look="classic" transform="translate(349.109375, 969.5593757629395)"><rect class="basic label-container" style="fill:#fff9c4 !important;stroke:#f9a825 !important" x="-112.5" y="-33.29999923706055" width="225" height="66.5999984741211"></rect><g class="label" style="" transform="translate(0, -18.299999237060547)"><rect></rect><g><rect class="background" style="stroke: none"></rect><text y="-10.1" style=""><tspan class="text-outer-tspan row" x="0" y="-0.1em" dy="1.1em"><tspan font-style="normal" class="text-inner-tspan" font-weight="normal">Mark</tspan><tspan font-style="normal" class="text-inner-tspan" font-weight="normal"> single</tspan></tspan><tspan class="text-outer-tspan row" x="0" y="1em" dy="1.1em"><tspan font-style="normal" class="text-inner-tspan" font-weight="normal">DisplayItemClient</tspan><tspan font-style="normal" class="text-inner-tspan" font-weight="normal"> dirty</tspan></tspan></text></g></g></g><g class="node default" id="ga880a294-9f64-4a35-85c6-2f9a5f234d10-light-flowchart-Reuse-12" data-look="classic" transform="translate(642.59765625, 969.5593757629395)"><rect class="basic label-container" style="fill:#e8f5e9 !important;stroke:#2e7d32 !important" x="-126.828125" y="-33.29999923706055" width="253.65625" height="66.5999984741211"></rect><g class="label" style="" transform="translate(0, -18.299999237060547)"><rect></rect><g><rect class="background" style="stroke: none"></rect><text y="-10.1" style=""><tspan class="text-outer-tspan row" x="0" y="-0.1em" dy="1.1em"><tspan font-style="normal" class="text-inner-tspan" font-weight="normal">Reuse</tspan><tspan font-style="normal" class="text-inner-tspan" font-weight="normal"> from</tspan><tspan font-style="normal" class="text-inner-tspan" font-weight="normal"> PaintController</tspan></tspan><tspan class="text-outer-tspan row" x="0" y="1em" dy="1.1em"><tspan font-style="normal" class="text-inner-tspan" font-weight="normal">cache</tspan></tspan></text></g></g></g><g class="node default" id="ga880a294-9f64-4a35-85c6-2f9a5f234d10-light-flowchart-Paint-14" data-look="classic" transform="translate(223.20703125, 1094.959373474121)"><rect class="basic label-container" style="" x="-119.40625" y="-33.29999923706055" width="238.8125" height="66.5999984741211"></rect><g class="label" style="" transform="translate(0, -18.299999237060547)"><rect></rect><g><rect class="background" style="stroke: none"></rect><text y="-10.1" style=""><tspan class="text-outer-tspan row" x="0" y="-0.1em" dy="1.1em"><tspan font-style="normal" class="text-inner-tspan" font-weight="normal">Paint</tspan><tspan font-style="normal" class="text-inner-tspan" font-weight="normal"> stage</tspan><tspan font-style="normal" class="text-inner-tspan" font-weight="normal"> re-records</tspan></tspan><tspan class="text-outer-tspan row" x="0" y="1em" dy="1.1em"><tspan font-style="normal" class="text-inner-tspan" font-weight="normal">the</tspan><tspan font-style="normal" class="text-inner-tspan" font-weight="normal"> chunk's</tspan><tspan font-style="normal" class="text-inner-tspan" font-weight="normal"> display</tspan><tspan font-style="normal" class="text-inner-tspan" font-weight="normal"> items</tspan></tspan></text></g></g></g><g class="node default" id="ga880a294-9f64-4a35-85c6-2f9a5f234d10-light-flowchart-Skip-18" data-look="classic" transform="translate(642.59765625, 1094.959373474121)"><rect class="basic label-container" style="" x="-128.2421875" y="-42.099998474121094" width="256.484375" height="84.19999694824219"></rect><g class="label" style="" transform="translate(0, -27.099998474121094)"><rect></rect><g><rect class="background" style="stroke: none"></rect><text y="-10.1" style=""><tspan class="text-outer-tspan row" x="0" y="-0.1em" dy="1.1em"><tspan font-style="normal" class="text-inner-tspan" font-weight="normal">Paint</tspan><tspan font-style="normal" class="text-inner-tspan" font-weight="normal"> stage</tspan><tspan font-style="normal" class="text-inner-tspan" font-weight="normal"> skips</tspan><tspan font-style="normal" class="text-inner-tspan" font-weight="normal"> re-record;</tspan></tspan><tspan class="text-outer-tspan row" x="0" y="1em" dy="1.1em"><tspan font-style="normal" class="text-inner-tspan" font-weight="normal">cached</tspan><tspan font-style="normal" class="text-inner-tspan" font-weight="normal"> display</tspan><tspan font-style="normal" class="text-inner-tspan" font-weight="normal"> items</tspan></tspan><tspan class="text-outer-tspan row" x="0" y="2.1em" dy="1.1em"><tspan font-style="normal" class="text-inner-tspan" font-weight="normal">reused</tspan></tspan></text></g></g></g></g></g></g><defs><filter id="ga880a294-9f64-4a35-85c6-2f9a5f234d10-light-drop-shadow" height="130%" width="130%"><feDropShadow dx="4" dy="4" stdDeviation="0" flood-opacity="0.06" flood-color="#000000"></feDropShadow></filter></defs><defs><filter id="ga880a294-9f64-4a35-85c6-2f9a5f234d10-light-drop-shadow-small" height="150%" width="150%"><feDropShadow dx="2" dy="2" stdDeviation="0" flood-opacity="0.06" flood-color="#000000"></feDropShadow></filter></defs></svg>