<svg id="ga880a294-9f64-4a35-85c6-2f9a5f234d10-dark" width="100%" xmlns="http://www.w3.org/2000/svg" xmlns:xlink="http://www.w3.org/1999/xlink" class="flowchart" style="max-width: 778.83984375px;" viewBox="0 0 778.83984375 1145.059326171875" role="graphics-document document" aria-roledescription="flowchart-v2"><style>#ga880a294-9f64-4a35-85c6-2f9a5f234d10-dark{font-family:"trebuchet ms",verdana,arial,sans-serif;font-size:16px;fill:#e5e5e5;}@keyframes edge-animation-frame{from{stroke-dashoffset:0;}}@keyframes dash{to{stroke-dashoffset:0;}}#ga880a294-9f64-4a35-85c6-2f9a5f234d10-dark .edge-animation-slow{stroke-dasharray:9,5!important;stroke-dashoffset:900;animation:dash 50s linear infinite;stroke-linecap:round;}#ga880a294-9f64-4a35-85c6-2f9a5f234d10-dark .edge-animation-fast{stroke-dasharray:9,5!important;stroke-dashoffset:900;animation:dash 20s linear infinite;stroke-linecap:round;}#ga880a294-9f64-4a35-85c6-2f9a5f234d10-dark .error-icon{fill:#252525;}#ga880a294-9f64-4a35-85c6-2f9a5f234d10-dark .error-text{fill:#cccccc;stroke:#cccccc;}#ga880a294-9f64-4a35-85c6-2f9a5f234d10-dark .edge-thickness-normal{stroke-width:1px;}#ga880a294-9f64-4a35-85c6-2f9a5f234d10-dark .edge-thickness-thick{stroke-width:3.5px;}#ga880a294-9f64-4a35-85c6-2f9a5f234d10-dark .edge-pattern-solid{stroke-dasharray:0;}#ga880a294-9f64-4a35-85c6-2f9a5f234d10-dark .edge-thickness-invisible{stroke-width:0;fill:none;}#ga880a294-9f64-4a35-85c6-2f9a5f234d10-dark .edge-pattern-dashed{stroke-dasharray:3;}#ga880a294-9f64-4a35-85c6-2f9a5f234d10-dark .edge-pattern-dotted{stroke-dasharray:2;}#ga880a294-9f64-4a35-85c6-2f9a5f234d10-dark .marker{fill:#cccccc;stroke:#cccccc;}#ga880a294-9f64-4a35-85c6-2f9a5f234d10-dark .marker.cross{stroke:#cccccc;}#ga880a294-9f64-4a35-85c6-2f9a5f234d10-dark svg{font-family:"trebuchet ms",verdana,arial,sans-serif;font-size:16px;}#ga880a294-9f64-4a35-85c6-2f9a5f234d10-dark p{margin:0;}#ga880a294-9f64-4a35-85c6-2f9a5f234d10-dark .label{font-family:"trebuchet ms",verdana,arial,sans-serif;color:#e5e5e5;}#ga880a294-9f64-4a35-85c6-2f9a5f234d10-dark .cluster-label text{fill:#e5e5e5;}#ga880a294-9f64-4a35-85c6-2f9a5f234d10-dark .cluster-label span{color:#e5e5e5;}#ga880a294-9f64-4a35-85c6-2f9a5f234d10-dark .cluster-label span p{background-color:transparent;}#ga880a294-9f64-4a35-85c6-2f9a5f234d10-dark .label text,#ga880a294-9f64-4a35-85c6-2f9a5f234d10-dark span{fill:#e5e5e5;color:#e5e5e5;}#ga880a294-9f64-4a35-85c6-2f9a5f234d10-dark .node rect,#ga880a294-9f64-4a35-85c6-2f9a5f234d10-dark .node circle,#ga880a294-9f64-4a35-85c6-2f9a5f234d10-dark .node ellipse,#ga880a294-9f64-4a35-85c6-2f9a5f234d10-dark .node polygon,#ga880a294-9f64-4a35-85c6-2f9a5f234d10-dark .node path{fill:#2d2d2d;stroke:#555555;stroke-width:1px;}#ga880a294-9f64-4a35-85c6-2f9a5f234d10-dark .rough-node .label text,#ga880a294-9f64-4a35-85c6-2f9a5f234d10-dark .node .label text,#ga880a294-9f64-4a35-85c6-2f9a5f234d10-dark .image-shape .label,#ga880a294-9f64-4a35-85c6-2f9a5f234d10-dark .icon-shape .label{text-anchor:middle;}#ga880a294-9f64-4a35-85c6-2f9a5f234d10-dark .node .katex path{fill:#000;stroke:#000;stroke-width:1px;}#ga880a294-9f64-4a35-85c6-2f9a5f234d10-dark .rough-node .label,#ga880a294-9f64-4a35-85c6-2f9a5f234d10-dark .node .label,#ga880a294-9f64-4a35-85c6-2f9a5f234d10-dark .image-shape .label,#ga880a294-9f64-4a35-85c6-2f9a5f234d10-dark .icon-shape .label{text-align:center;}#ga880a294-9f64-4a35-85c6-2f9a5f234d10-dark .node.clickable{cursor:pointer;}#ga880a294-9f64-4a35-85c6-2f9a5f234d10-dark .root .anchor path{fill:#cccccc!important;stroke-width:0;stroke:#cccccc;}#ga880a294-9f64-4a35-85c6-2f9a5f234d10-dark .arrowheadPath{fill:#cccccc;}#ga880a294-9f64-4a35-85c6-2f9a5f234d10-dark .edgePath .path{stroke:#cccccc;stroke-width:1px;}#ga880a294-9f64-4a35-85c6-2f9a5f234d10-dark .flowchart-link{stroke:#cccccc;fill:none;}#ga880a294-9f64-4a35-85c6-2f9a5f234d10-dark .edgeLabel{background-color:#1e1e1e;text-align:center;}#ga880a294-9f64-4a35-85c6-2f9a5f234d10-dark .edgeLabel p{background-color:#1e1e1e;}#ga880a294-9f64-4a35-85c6-2f9a5f234d10-dark .edgeLabel rect{opacity:0.5;background-color:#1e1e1e;fill:#1e1e1e;}#ga880a294-9f64-4a35-85c6-2f9a5f234d10-dark .labelBkg{background-color:rgba(30, 30, 30, 0.5);}#ga880a294-9f64-4a35-85c6-2f9a5f234d10-dark .cluster rect{fill:#1e1e1e;stroke:#555555;stroke-width:1px;}#ga880a294-9f64-4a35-85c6-2f9a5f234d10-dark .cluster text{fill:#e5e5e5;}#ga880a294-9f64-4a35-85c6-2f9a5f234d10-dark .cluster span{color:#e5e5e5;}#ga880a294-9f64-4a35-85c6-2f9a5f234d10-dark div.mermaidTooltip{position:absolute;text-align:center;max-width:200px;padding:2px;font-family:"trebuchet ms",verdana,arial,sans-serif;font-size:12px;background:#252525;border:1px solid #555555;border-radius:2px;pointer-events:none;z-index:100;}#ga880a294-9f64-4a35-85c6-2f9a5f234d10-dark .flowchartTitleText{text-anchor:middle;font-size:18px;fill:#e5e5e5;}#ga880a294-9f64-4a35-85c6-2f9a5f234d10-dark rect.text{fill:none;stroke-width:0;}#ga880a294-9f64-4a35-85c6-2f9a5f234d10-dark .icon-shape,#ga880a294-9f64-4a35-85c6-2f9a5f234d10-dark .image-shape{background-color:#1e1e1e;text-align:center;}#ga880a294-9f64-4a35-85c6-2f9a5f234d10-dark .icon-shape p,#ga880a294-9f64-4a35-85c6-2f9a5f234d10-dark .image-shape p{background-color:#1e1e1e;padding:2px;}#ga880a294-9f64-4a35-85c6-2f9a5f234d10-dark .icon-shape .label rect,#ga880a294-9f64-4a35-85c6-2f9a5f234d10-dark .image-shape .label rect{opacity:0.5;background-color:#1e1e1e;fill:#1e1e1e;}#ga880a294-9f64-4a35-85c6-2f9a5f234d10-dark .label-icon{display:inline-block;height:1em;overflow:visible;vertical-align:-0.125em;}#ga880a294-9f64-4a35-85c6-2f9a5f234d10-dark .node .label-icon path{fill:currentColor;stroke:revert;stroke-width:revert;}#ga880a294-9f64-4a35-85c6-2f9a5f234d10-dark .node .neo-node{stroke:#555555;}#ga880a294-9f64-4a35-85c6-2f9a5f234d10-dark [data-look="neo"].node rect,#ga880a294-9f64-4a35-85c6-2f9a5f234d10-dark [data-look="neo"].cluster rect,#ga880a294-9f64-4a35-85c6-2f9a5f234d10-dark [data-look="neo"].node polygon{stroke:url(#ga880a294-9f64-4a35-85c6-2f9a5f234d10-dark-gradient);filter:drop-shadow( 1px 2px 2px rgba(185,185,185,1));}#ga880a294-9f64-4a35-85c6-2f9a5f234d10-dark [data-look="neo"].node path{stroke:url(#ga880a294-9f64-4a35-85c6-2f9a5f234d10-dark-gradient);stroke-width:1px;}#ga880a294-9f64-4a35-85c6-2f9a5f234d10-dark [data-look="neo"].node .outer-path{filter:drop-shadow( 1px 2px 2px rgba(185,185,185,1));}#ga880a294-9f64-4a35-85c6-2f9a5f234d10-dark [data-look="neo"].node .neo-line path{stroke:#555555;filter:none;}#ga880a294-9f64-4a35-85c6-2f9a5f234d10-dark [data-look="neo"].node circle{stroke:url(#ga880a294-9f64-4a35-85c6-2f9a5f234d10-dark-gradient);filter:drop-shadow( 1px 2px 2px rgba(185,185,185,1));}#ga880a294-9f64-4a35-85c6-2f9a5f234d10-dark [data-look="neo"].node circle .state-start{fill:#000000;}#ga880a294-9f64-4a35-85c6-2f9a5f234d10-dark [data-look="neo"].icon-shape .icon{fill:url(#ga880a294-9f64-4a35-85c6-2f9a5f234d10-dark-gradient);filter:drop-shadow( 1px 2px 2px rgba(185,185,185,1));}#ga880a294-9f64-4a35-85c6-2f9a5f234d10-dark [data-look="neo"].icon-shape .icon-neo path{stroke:url(#ga880a294-9f64-4a35-85c6-2f9a5f234d10-dark-gradient);filter:drop-shadow( 1px 2px 2px rgba(185,185,185,1));}#ga880a294-9f64-4a35-85c6-2f9a5f234d10-dark :root{--mermaid-font-family:"trebuchet ms",verdana,arial,sans-serif;}</style><g><marker id="ga880a294-9f64-4a35-85c6-2f9a5f234d10-dark_flowchart-v2-pointEnd" class="marker flowchart-v2" viewBox="0 0 10 10" refX="5" refY="5" markerUnits="userSpaceOnUse" markerWidth="8" markerHeight="8" orient="auto"><path d="M 0 0 L 10 5 L 0 10 z" class="arrowMarkerPath" style="stroke-width: 1; stroke-dasharray: 1, 0;"></path></marker><marker id="ga880a294-9f64-4a35-85c6-2f9a5f234d10-dark_flowchart-v2-pointStart" class="marker flowchart-v2" viewBox="0 0 10 10" refX="4.5" refY="5" markerUnits="userSpaceOnUse" markerWidth="8" markerHeight="8" orient="auto"><path d="M 0 5 L 10 10 L 10 0 z" class="arrowMarkerPath" style="stroke-width: 1; stroke-dasharray: 1, 0;"></path></marker><marker id="ga880a294-9f64-4a35-85c6-2f9a5f234d10-dark_flowchart-v2-pointEnd-margin" class="marker flowchart-v2" viewBox="0 0 11.5 14" refX="11.5" refY="7" markerUnits="userSpaceOnUse" markerWidth="10.5" markerHeight="14" orient="auto"><path d="M 0 0 L 11.5 7 L 0 14 z" class="arrowMarkerPath" style="stroke-width: 0; stroke-dasharray: 1, 0;"></path></marker><marker id="ga880a294-9f64-4a35-85c6-2f9a5f234d10-dark_flowchart-v2-pointStart-margin" class="marker flowchart-v2" viewBox="0 0 11.5 14" refX="1" refY="7" markerUnits="userSpaceOnUse" markerWidth="11.5" markerHeight="14" orient="auto"><polygon points="0,7 11.5,14 11.5,0" class="arrowMarkerPath" style="stroke-width: 0; stroke-dasharray: 1, 0;"></polygon></marker><marker id="ga880a294-9f64-4a35-85c6-2f9a5f234d10-dark_flowchart-v2-circleEnd" class="marker flowchart-v2" viewBox="0 0 10 10" refX="11" refY="5" markerUnits="userSpaceOnUse" markerWidth="11" markerHeight="11" orient="auto"><circle cx="5" cy="5" r="5" class="arrowMarkerPath" style="stroke-width: 1; stroke-dasharray: 1, 0;"></circle></marker><marker id="ga880a294-9f64-4a35-85c6-2f9a5f234d10-dark_flowchart-v2-circleStart" class="marker flowchart-v2" viewBox="0 0 10 10" refX="-1" refY="5" markerUnits="userSpaceOnUse" markerWidth="11" markerHeight="11" orient="auto"><circle cx="5" cy="5" r="5" class="arrowMarkerPath" style="stroke-width: 1; stroke-dasharray: 1, 0;"></circle></marker><marker id="ga880a294-9f64-4a35-85c6-2f9a5f234d10-dark_flowchart-v2-circleEnd-margin" class="marker flowchart-v2" viewBox="0 0 10 10" refY="5" refX="12.25" markerUnits="userSpaceOnUse" markerWidth="14" markerHeight="14" orient="auto"><circle cx="5" cy="5" r="5" class="arrowMarkerPath" style="stroke-width: 0; stroke-dasharray: 1, 0;"></circle></marker><marker id="ga880a294-9f64-4a35-85c6-2f9a5f234d10-dark_flowchart-v2-circleStart-margin" class="marker flowchart-v2" viewBox="0 0 10 10" refX="-2" refY="5" markerUnits="userSpaceOnUse" markerWidth="14" markerHeight="14" orient="auto"><circle cx="5" cy="5" r="5" class="arrowMarkerPath" style="stroke-width: 0; stroke-dasharray: 1, 0;"></circle></marker><marker id="ga880a294-9f64-4a35-85c6-2f9a5f234d10-dark_flowchart-v2-crossEnd" class="marker cross flowchart-v2" viewBox="0 0 11 11" refX="12" refY="5.2" markerUnits="userSpaceOnUse" markerWidth="11" markerHeight="11" orient="auto"><path d="M 1,1 l 9,9 M 10,1 l -9,9" class="arrowMarkerPath" style="stroke-width: 2; stroke-dasharray: 1, 0;"></path></marker><marker id="ga880a294-9f64-4a35-85c6-2f9a5f234d10-dark_flowchart-v2-crossStart" class="marker cross flowchart-v2" viewBox="0 0 11 11" refX="-1" refY="5.2" markerUnits="userSpaceOnUse" markerWidth="11" markerHeight="11" orient="auto"><path d="M 1,1 l 9,9 M 10,1 l -9,9" class="arrowMarkerPath" style="stroke-width: 2; stroke-dasharray: 1, 0;"></path></marker><marker id="ga880a294-9f64-4a35-85c6-2f9a5f234d10-dark_flowchart-v2-crossEnd-margin" class="marker cross flowchart-v2" viewBox="0 0 15 15" refX="17.7" refY="7.5" markerUnits="userSpaceOnUse" markerWidth="12" markerHeight="12" orient="auto"><path d="M 1,1 L 14,14 M 1,14 L 14,1" class="arrowMarkerPath" style="stroke-width: 2.5;"></path></marker><marker id="ga880a294-9f64-4a35-85c6-2f9a5f234d10-dark_flowchart-v2-crossStart-margin" class="marker cross flowchart-v2" viewBox="0 0 15 15" refX="-3.5" refY="7.5" markerUnits="userSpaceOnUse" markerWidth="12" markerHeight="12" orient="auto"><path d="M 1,1 L 14,14 M 1,14 L 14,1" class="arrowMarkerPath" style="stroke-width: 2.5; stroke-dasharray: 1, 0;"></path></marker><g class="root"><g class="clusters"></g><g class="edgePaths"><path d="M372.531,60.1L372.448,64.183C372.365,68.267,372.198,76.433,372.115,84.017C372.031,91.6,372.031,98.6,372.031,102.1L372.031,105.6" id="ga880a294-9f64-4a35-85c6-2f9a5f234d10-dark-L_Start_Cmp_0" class="edge-thickness-normal edge-pattern-solid edge-thickness-normal edge-pattern-solid flowchart-link" style=";" data-edge="true" data-et="edge" data-id="L_Start_Cmp_0" data-points="W3sieCI6MzcyLjUzMTI1MDAwMDAwMDA2LCJ5Ijo2MC4wOTk5OTg0NzQxMjEwOTR9LHsieCI6MzcyLjAzMTI1LCJ5Ijo4NC41OTk5OTg0NzQxMjExfSx7IngiOjM3Mi4wMzEyNSwieSI6MTA5LjU5OTk5ODQ3NDEyMTF9XQ==" data-look="classic" marker-end="url(#ga880a294-9f64-4a35-85c6-2f9a5f234d10-dark_flowchart-v2-pointEnd)"></path><path d="M372.031,246.6L372.031,250.767C372.031,254.933,372.031,263.267,372.031,270.933C372.031,278.6,372.031,285.6,372.031,289.1L372.031,292.6" id="ga880a294-9f64-4a35-85c6-2f9a5f234d10-dark-L_Cmp_Q1_0" class="edge-thickness-normal edge-pattern-solid edge-thickness-normal edge-pattern-solid flowchart-link" style=";" data-edge="true" data-et="edge" data-id="L_Cmp_Q1_0" data-points="W3sieCI6MzcyLjAzMTI1LCJ5IjoyNDYuNTk5OTk4NDc0MTIxMX0seyJ4IjozNzIuMDMxMjUsInkiOjI3MS41OTk5OTg0NzQxMjExfSx7IngiOjM3Mi4wMzEyNSwieSI6Mjk2LjU5OTk5ODQ3NDEyMTF9XQ==" data-look="classic" marker-end="url(#ga880a294-9f64-4a35-85c6-2f9a5f234d10-dark_flowchart-v2-pointEnd)"></path><path d="M290.932,476.21L258.661,495.81C226.39,515.41,161.847,554.61,129.576,599.705C97.305,644.801,97.305,695.793,97.305,746.784C97.305,797.776,97.305,848.768,97.305,879.68C97.305,910.593,97.305,921.426,97.305,926.843L97.305,932.259" id="ga880a294-9f64-4a35-85c6-2f9a5f234d10-dark-L_Q1_Chunk_0" class="edge-thickness-normal edge-pattern-solid edge-thickness-normal edge-pattern-solid flowchart-link" style=";" data-edge="true" data-et="edge" data-id="L_Q1_Chunk_0" data-points="W3sieCI6MjkwLjkzMjAyODA3MDc2MTc2LCJ5Ijo0NzYuMjEwMTU3NjQ4Mzk4NH0seyJ4Ijo5Ny4zMDQ2ODc1LCJ5Ijo1OTMuODA5Mzc5NTc3NjM2N30seyJ4Ijo5Ny4zMDQ2ODc1LCJ5Ijo3NDYuNzg0Mzc4MDUxNzU3OH0seyJ4Ijo5Ny4zMDQ2ODc1LCJ5Ijo4OTkuNzU5Mzc2NTI1ODc4OX0seyJ4Ijo5Ny4zMDQ2ODc1LCJ5Ijo5MzYuMjU5Mzc2NTI1ODc4OX1d" data-look="classic" marker-end="url(#ga880a294-9f64-4a35-85c6-2f9a5f234d10-dark_flowchart-v2-pointEnd)"></path><path d="M428.091,501.249L439.732,516.676C451.372,532.103,474.653,562.956,486.293,583.799C497.934,604.643,497.934,615.476,497.934,620.893L497.934,626.309" id="ga880a294-9f64-4a35-85c6-2f9a5f234d10-dark-L_Q1_Q2_0" class="edge-thickness-normal edge-pattern-solid edge-thickness-normal edge-pattern-solid flowchart-link" style=";" data-edge="true" data-et="edge" data-id="L_Q1_Q2_0" data-points="W3sieCI6NDI4LjA5MTI1NTg2MjU5NDQ0LCJ5Ijo1MDEuMjQ5MzczNzE1MDQyM30seyJ4Ijo0OTcuOTMzNTkzNzUsInkiOjU5My44MDkzNzk1Nzc2MzY3fSx7IngiOjQ5Ny45MzM1OTM3NSwieSI6NjMwLjMwOTM3OTU3NzYzNjd9XQ==" data-look="classic" marker-end="url(#ga880a294-9f64-4a35-85c6-2f9a5f234d10-dark_flowchart-v2-pointEnd)"></path><path d="M440.497,805.823L425.266,821.479C410.034,837.135,379.572,868.447,364.341,889.52C349.109,910.593,349.109,921.426,349.109,926.843L349.109,932.259" id="ga880a294-9f64-4a35-85c6-2f9a5f234d10-dark-L_Q2_Item_0" class="edge-thickness-normal edge-pattern-solid edge-thickness-normal edge-pattern-solid flowchart-link" style=";" data-edge="true" data-et="edge" data-id="L_Q2_Item_0" data-points="W3sieCI6NDQwLjQ5NzA2MDkwNzg4Mjc3LCJ5Ijo4MDUuODIyODQzNjgzNzYxNn0seyJ4IjozNDkuMTA5Mzc1LCJ5Ijo4OTkuNzU5Mzc2NTI1ODc4OX0seyJ4IjozNDkuMTA5Mzc1LCJ5Ijo5MzYuMjU5Mzc2NTI1ODc4OX1d" data-look="classic" marker-end="url(#ga880a294-9f64-4a35-85c6-2f9a5f234d10-dark_flowchart-v2-pointEnd)"></path><path d="M554.545,806.648L569.22,822.167C583.896,837.685,613.247,868.722,627.922,889.657C642.598,910.593,642.598,921.426,642.598,926.843L642.598,932.259" id="ga880a294-9f64-4a35-85c6-2f9a5f234d10-dark-L_Q2_Reuse_0" class="edge-thickness-normal edge-pattern-solid edge-thickness-normal edge-pattern-solid flowchart-link" style=";" data-edge="true" data-et="edge" data-id="L_Q2_Reuse_0" data-points="W3sieCI6NTU0LjU0NDkzNTAyOTYwNywieSI6ODA2LjY0ODAzNTI0NjI3MjV9LHsieCI6NjQyLjU5NzY1NjI1LCJ5Ijo4OTkuNzU5Mzc2NTI1ODc4OX0seyJ4Ijo2NDIuNTk3NjU2MjUsInkiOjkzNi4yNTkzNzY1MjU4Nzg5fV0=" data-look="classic" marker-end="url(#ga880a294-9f64-4a35-85c6-2f9a5f234d10-dark_flowchart-v2-pointEnd)"></path><path d="M97.305,1002.859L97.305,1007.026C97.305,1011.193,97.305,1019.526,107.286,1029.012C117.268,1038.499,137.232,1049.139,147.213,1054.458L157.195,1059.778" id="ga880a294-9f64-4a35-85c6-2f9a5f234d10-dark-L_Chunk_Paint_0" class="edge-thickness-normal edge-pattern-solid edge-thickness-normal edge-pattern-solid flowchart-link" style=";" data-edge="true" data-et="edge" data-id="L_Chunk_Paint_0" data-points="W3sieCI6OTcuMzA0Njg3NSwieSI6MTAwMi44NTkzNzV9LHsieCI6OTcuMzA0Njg3NSwieSI6MTAyNy44NTkzNzV9LHsieCI6MTYwLjcyNDk0NDEyMzkzMDk1LCJ5IjoxMDYxLjY1OTM3NDIzNzA2MDV9XQ==" data-look="classic" marker-end="url(#ga880a294-9f64-4a35-85c6-2f9a5f234d10-dark_flowchart-v2-pointEnd)"></path><path d="M349.109,1002.859L349.109,1007.026C349.109,1011.193,349.109,1019.526,339.128,1029.012C329.146,1038.499,309.183,1049.139,299.201,1054.458L289.219,1059.778" id="ga880a294-9f64-4a35-85c6-2f9a5f234d10-dark-L_Item_Paint_0" class="edge-thickness-normal edge-pattern-solid edge-thickness-normal edge-pattern-solid flowchart-link" style=";" data-edge="true" data-et="edge" data-id="L_Item_Paint_0" data-points="W3sieCI6MzQ5LjEwOTM3NSwieSI6MTAwMi44NTkzNzV9LHsieCI6MzQ5LjEwOTM3NSwieSI6MTAyNy44NTkzNzV9LHsieCI6Mjg1LjY4OTExODM3NjA2OTEsInkiOjEwNjEuNjU5Mzc0MjM3MDYwNX1d" data-look="classic" marker-end="url(#ga880a294-9f64-4a35-85c6-2f9a5f234d10-dark_flowchart-v2-pointEnd)"></path><path d="M642.598,1002.859L642.598,1007.026C642.598,1011.193,642.598,1019.526,642.598,1027.193C642.598,1034.859,642.598,1041.859,642.598,1045.359L642.598,1048.859" id="ga880a294-9f64-4a35-85c6-2f9a5f234d10-dark-L_Reuse_Skip_0" class="edge-thickness-normal edge-pattern-solid edge-thickness-normal edge-pattern-solid flowchart-link" style=";" data-edge="true" data-et="edge" data-id="L_Reuse_Skip_0" data-points="W3sieCI6NjQyLjU5NzY1NjI1LCJ5IjoxMDAyLjg1OTM3NX0seyJ4Ijo2NDIuNTk3NjU2MjUsInkiOjEwMjcuODU5Mzc1fSx7IngiOjY0Mi41OTc2NTYyNSwieSI6MTA1Mi44NTkzNzV9XQ==" data-look="classic" marker-end="url(#ga880a294-9f64-4a35-85c6-2f9a5f234d10-dark_flowchart-v2-pointEnd)"></path></g><g class="edgeLabels"><g class="edgeLabel"><g class="label" data-id="L_Start_Cmp_0" transform="translate(0, 0)"><text y="-10.1" text-anchor="middle"><tspan class="text-outer-tspan row" x="0" y="-0.1em" dy="1.1em" text-anchor="middle"></tspan></text></g></g><g><rect class="background" style="stroke: none"></rect></g><g class="edgeLabel"><g class="label" data-id="L_Cmp_Q1_0" transform="translate(0, 0)"><text y="-10.1" text-anchor="middle"><tspan class="text-outer-tspan row" x="0" y="-0.1em" dy="1.1em" text-anchor="middle"></tspan></text></g></g><g><rect class="background" style="stroke: none"></rect></g><g class="edgeLabel" transform="translate(97.3046875, 746.7843780517578)"><g class="label" data-id="L_Q1_Chunk_0" transform="translate(0, -10.5)"><g><rect class="background" style="" x="-13.546875" y="-1" width="27.09375" height="23"></rect><text y="-10.1" text-anchor="middle" style=""><tspan class="text-outer-tspan row" x="0" y="-0.1em" dy="1.1em" text-anchor="middle"><tspan font-style="normal" class="text-inner-tspan" font-weight="normal">yes</tspan></tspan></text></g></g></g><g class="edgeLabel" transform="translate(497.93359375, 593.8093795776367)"><g class="label" data-id="L_Q1_Q2_0" transform="translate(0, -10.5)"><g><rect class="background" style="" x="-10.6640625" y="-1" width="21.328125" height="23"></rect><text y="-10.1" text-anchor="middle" style=""><tspan class="text-outer-tspan row" x="0" y="-0.1em" dy="1.1em" text-anchor="middle"><tspan font-style="normal" class="text-inner-tspan" font-weight="normal">no</tspan></tspan></text></g></g></g><g class="edgeLabel" transform="translate(349.109375, 899.7593765258789)"><g class="label" data-id="L_Q2_Item_0" transform="translate(0, -10.5)"><g><rect class="background" style="" x="-13.546875" y="-1" width="27.09375" height="23"></rect><text y="-10.1" text-anchor="middle" style=""><tspan class="text-outer-tspan row" x="0" y="-0.1em" dy="1.1em" text-anchor="middle"><tspan font-style="normal" class="text-inner-tspan" font-weight="normal">yes</tspan></tspan></text></g></g></g><g class="edgeLabel" transform="translate(642.59765625, 899.7593765258789)"><g class="label" data-id="L_Q2_Reuse_0" transform="translate(0, -10.5)"><g><rect class="background" style="" x="-10.6640625" y="-1" width="21.328125" height="23"></rect><text y="-10.1" text-anchor="middle" style=""><tspan class="text-outer-tspan row" x="0" y="-0.1em" dy="1.1em" text-anchor="middle"><tspan font-style="normal" class="text-inner-tspan" font-weight="normal">no</tspan></tspan></text></g></g></g><g class="edgeLabel"><g class="label" data-id="L_Chunk_Paint_0" transform="translate(0, 0)"><text y="-10.1" text-anchor="middle"><tspan class="text-outer-tspan row" x="0" y="-0.1em" dy="1.1em" text-anchor="middle"></tspan></text></g></g><g><rect class="background" style="stroke: none"></rect></g><g class="edgeLabel"><g class="label" data-id="L_Item_Paint_0" transform="translate(0, 0)"><text y="-10.1" text-anchor="middle"><tspan class="text-outer-tspan row" x="0" y="-0.1em" dy="1.1em" text-anchor="middle"></tspan></text></g></g><g><rect class="background" style="stroke: none"></rect></g><g class="edgeLabel"><g class="label" data-id="L_Reuse_Skip_0" transform="translate(0, 0)"><text y="-10.1" text-anchor="middle"><tspan class="text-outer-tspan row" x="0" y="-0.1em" dy="1.1em" text-anchor="middle"></tspan></text></g></g><g><rect class="background" style="stroke: none"></rect></g></g><g class="nodes"><g class="node default" id="ga880a294-9f64-4a35-85c6-2f9a5f234d10-dark-flowchart-Start-0" data-look="classic" transform="translate(372.03125, 33.79999923706055)"><g class="basic label-container outer-path"><path d="M-65.40000057220459 -25.799999237060547 C-19.017461503005094 -25.799999237060547, 27.3650775661944 -25.799999237060547, 65.40000057220459 -25.799999237060547 C65.40000057220459 -25.799999237060547, 65.40000057220459 -25.799999237060547, 65.40000057220459 -25.799999237060547 C65.76067869193878 -25.78843299177804, 66.12135681167295 -25.77686674649554, 67.05301219882529 -25.746990371586765 C67.54377474811176 -25.699647098685418, 68.03453729739824 -25.65230382578407, 68.69923124610231 -25.58818159996402 C69.11666867265883 -25.520693554113954, 69.53410609921535 -25.45320550826389, 70.33189304685753 -25.32422550149928 C70.78832003237848 -25.22004902051856, 71.24474701789941 -25.115872539537836, 71.94428864354678 -24.956206728419545 C72.511451384907 -24.787875803881814, 73.07861412626723 -24.61954487934408, 73.52979235680552 -24.48563754880318 C73.97318196372186 -24.322466074809373, 74.41657157063818 -24.159294600815564, 75.08188901178644 -23.914451632345997 C75.51063939728809 -23.72465655511272, 75.93938978278973 -23.534861477879442, 76.59420071041056 -23.24499610449772 C77.1115192038659 -22.97511137782038, 77.62883769732123 -22.70522665114304, 78.0605130395184 -22.480021901620034 C78.48809558840713 -22.220818847729717, 78.91567813729586 -21.9616157938394, 79.47480060722664 -21.62267246679901 C79.8392983425011 -21.368414625524206, 80.20379607777554 -21.114156784249403, 80.83125180255584 -20.67647083276321 C81.13153669376426 -20.437001622941043, 81.4318215849727 -20.197532413118875, 82.1242926765865 -19.64530514498651 C82.40093999077096 -19.394061373931006, 82.67758730495544 -19.142817602875503, 83.34860984701088 -18.533412684464313 C83.78175560276306 -18.086154129722278, 84.21490135851523 -17.638895574980243, 84.49917233196044 -17.345362455817106 C84.88033248348248 -16.89763005321229, 85.26149263500452 -16.449897650607472, 85.57125222338968 -16.086036412270357 C85.86880463724674 -15.68734328528445, 86.1663570511038 -15.288650158298546, 86.56044411506427 -14.76060939466161 C86.86274525884019 -14.296193658598527, 87.16504640261611 -13.831777922535446, 87.46268320532036 -13.374527866909407 C87.62829481526772 -13.08046768345389, 87.79390642521508 -12.78640749999837, 88.2742620002064 -11.93348753532484 C88.46645221698874 -11.534400437964441, 88.65864243377108 -11.135313340604041, 88.99184554837109 -10.443409943732584 C89.17831249795205 -9.982832973174373, 89.36477944753302 -9.52225600261616, 89.61248514509381 -8.910418140577123 C89.75727201989115 -8.474343142343292, 89.90205889468847 -8.038268144109463, 90.1336304491449 -7.340811518003323 C90.25984359285547 -6.859506099912385, 90.38605673656606 -6.378200681821446, 90.55313996268467 -5.741039926302914 C90.63386888979448 -5.326513947658809, 90.7145978169043 -4.911987969014704, 90.86928983113748 -4.117677170096137 C90.95076894420846 -3.485741258988303, 91.03224805727946 -2.853805347880469, 91.08078092687991 -2.4773939951584394 C91.12194534931078 -1.8362248884739882, 91.16310977174165 -1.195055781789537, 91.18674418763487 -0.8269306768952902 C91.18674418763487 -0.4759036144615656, 91.18674418763487 -0.12487655202784098, 91.18674418763487 0.826930676895284 C91.15903558770965 1.258514486709821, 91.13132698778443 1.6900982965243583, 91.08078092687991 2.4773939951584216 C90.99789827753312 3.120215456461765, 90.91501562818634 3.763036917765108, 90.86928983113748 4.117677170096119 C90.74553459972793 4.753134127706721, 90.62177936831839 5.388591085317323, 90.55313996268467 5.741039926302909 C90.40875292751802 6.291650269130236, 90.26436589235136 6.842260611957563, 90.1336304491449 7.340811518003306 C89.92751667473406 7.9615933667585175, 89.72140290032324 8.58237521551373, 89.61248514509383 8.910418140577105 C89.47921929292679 9.23958737194969, 89.34595344075973 9.568756603322276, 88.99184554837109 10.443409943732577 C88.75865394346604 10.927637300818951, 88.525462338561 11.411864657905323, 88.2742620002064 11.933487535324835 C87.974464206475 12.465808875913446, 87.6746664127436 12.998130216502055, 87.46268320532037 13.374527866909402 C87.10739003597503 13.920353584598416, 86.75209686662969 14.466179302287431, 86.56044411506429 14.760609394661596 C86.22609423311788 15.208607776568918, 85.89174435117147 15.65660615847624, 85.57125222338968 16.086036412270353 C85.21978799658092 16.498886291960964, 84.86832376977218 16.91173617165158, 84.49917233196045 17.345362455817092 C84.04162550673531 17.817817118155016, 83.58407868151016 18.290271780492944, 83.34860984701088 18.533412684464306 C82.88007001871986 18.95892815963368, 82.41153019042885 19.38444363480305, 82.12429267658653 19.64530514498649 C81.64134692046956 20.030441533763472, 81.15840116435257 20.415577922540454, 80.83125180255584 20.676470832763208 C80.36479901872258 21.001848102349722, 79.89834623488933 21.327225371936237, 79.47480060722665 21.622672466799003 C79.09149215361113 21.85503630395124, 78.7081836999956 22.087400141103483, 78.06051303951841 22.48002190162003 C77.61826116382477 22.710744421893555, 77.17600928813114 22.94146694216708, 76.59420071041058 23.244996104497716 C76.10134733941076 23.46316767186353, 75.60849396841094 23.681339239229345, 75.08188901178644 23.914451632345994 C74.7054410684775 24.052987955330327, 74.32899312516855 24.191524278314663, 73.52979235680553 24.485637548803172 C72.91235038669673 24.668891084512428, 72.29490841658793 24.85214462022168, 71.94428864354681 24.95620672841954 C71.5219100583223 25.05261188421918, 71.0995314730978 25.149017040018816, 70.33189304685754 25.324225501499278 C70.00229584231562 25.377512221465118, 69.6726986377737 25.43079894143096, 68.69923124610233 25.588181599964017 C68.042064346161 25.651577700442527, 67.38489744621968 25.714973800921037, 67.05301219882529 25.746990371586765 C66.47874649888293 25.76540595484354, 65.90448079894055 25.783821538100316, 65.40000057220459 25.799999237060547 C65.40000057220459 25.799999237060547, 65.40000057220459 25.799999237060547, 65.40000057220459 25.799999237060547 C36.96617898704052 25.799999237060547, 8.532357401876453 25.799999237060547, -65.40000057220459 25.799999237060547 C-66.02191715491533 25.780055582740207, -66.64383373762607 25.760111928419864, -67.05301219882527 25.746990371586765 C-67.49238137284905 25.70460495578743, -67.93175054687283 25.6622195399881, -68.69923124610231 25.588181599964017 C-69.26758088818224 25.496295237449836, -69.83593053026216 25.404408874935655, -70.33189304685753 25.324225501499278 C-70.69145121067623 25.242158696943957, -71.05100937449492 25.160091892388632, -71.94428864354678 24.956206728419545 C-72.46042795513686 24.80301929001014, -72.97656726672696 24.649831851600737, -73.5297923568055 24.485637548803183 C-74.10547016319518 24.273782794544477, -74.68114796958484 24.06192804028577, -75.08188901178644 23.914451632345997 C-75.62923461689414 23.672157969395315, -76.17658022200185 23.42986430644463, -76.59420071041056 23.244996104497723 C-76.91936953736318 23.075355735757118, -77.24453836431579 22.905715367016512, -78.0605130395184 22.480021901620038 C-78.49897848833034 22.214221569841254, -78.93744393714226 21.94842123806247, -79.47480060722663 21.622672466799017 C-79.91338405827499 21.31673563731928, -80.35196750932334 21.010798807839542, -80.83125180255584 20.67647083276321 C-81.09107499056677 20.46926875450991, -81.3508981785777 20.262066676256605, -82.1242926765865 19.645305144986512 C-82.47630263338333 19.325619015896727, -82.82831259018015 19.00593288680694, -83.34860984701086 18.533412684464324 C-83.67590214006013 18.195456520693952, -84.00319443310941 17.85750035692358, -84.49917233196044 17.3453624558171 C-84.78640555801492 17.00796196445993, -85.07363878406942 16.670561473102765, -85.57125222338968 16.08603641227036 C-85.89109857552798 15.657471439007145, -86.21094492766629 15.22890646574393, -86.56044411506427 14.760609394661614 C-86.76542657465976 14.445701291225461, -86.97040903425523 14.130793187789306, -87.46268320532036 13.374527866909418 C-87.73261324065462 12.895239755793439, -88.00254327598887 12.415951644677458, -88.27426200020639 11.933487535324842 C-88.4342310824633 11.601308313228344, -88.5942001647202 11.269129091131846, -88.99184554837109 10.443409943732586 C-89.12737294837224 10.108654645485705, -89.26290034837339 9.773899347238824, -89.61248514509381 8.910418140577127 C-89.76797642070751 8.442103192599056, -89.9234676963212 7.973788244620987, -90.1336304491449 7.340811518003316 C-90.22078802124831 7.00844192124233, -90.30794559335172 6.676072324481344, -90.55313996268467 5.741039926302918 C-90.6739956661218 5.120471432015262, -90.79485136955891 4.499902937727606, -90.86928983113748 4.117677170096139 C-90.91599772704882 3.7554199529250774, -90.96270562296016 3.3931627357540153, -91.08078092687991 2.477393995158454 C-91.10681250654895 2.0719311295001814, -91.132844086218 1.6664682638419093, -91.18674418763487 0.8269306768952934 C-91.18674418763487 0.17697888315935517, -91.18674418763487 -0.4729729105765831, -91.18674418763487 -0.8269306768952809 C-91.16512618238924 -1.163648558335667, -91.14350817714362 -1.500366439776053, -91.08078092687991 -2.4773939951584185 C-90.99893928225777 -3.1121416293870823, -90.91709763763562 -3.7468892636157465, -90.86928983113748 -4.117677170096128 C-90.75728795498152 -4.692783132552075, -90.64528607882555 -5.267889095008021, -90.55313996268467 -5.741039926302906 C-90.40315875223251 -6.312983284024752, -90.25317754178036 -6.884926641746598, -90.1336304491449 -7.340811518003303 C-89.96226227226437 -7.856945162956416, -89.79089409538383 -8.373078807909529, -89.61248514509383 -8.910418140577093 C-89.4009826867087 -9.432833301910225, -89.18948022832356 -9.955248463243358, -88.99184554837109 -10.443409943732574 C-88.75668884666464 -10.93171786637337, -88.52153214495821 -11.420025789014167, -88.2742620002064 -11.933487535324831 C-88.05169588331519 -12.328676213128366, -87.82912976642399 -12.7238648909319, -87.46268320532036 -13.374527866909409 C-87.12634635003951 -13.891231595712313, -86.79000949475865 -14.407935324515217, -86.56044411506429 -14.760609394661605 C-86.28815968718845 -15.12544572239354, -86.01587525931262 -15.490282050125474, -85.57125222338968 -16.086036412270353 C-85.24751452823077 -16.466317130200707, -84.92377683307187 -16.846597848131065, -84.49917233196045 -17.345362455817092 C-84.16822369481376 -17.68709409505947, -83.83727505766709 -18.02882573430185, -83.34860984701089 -18.5334126844643 C-82.9627385761333 -18.883850763080964, -82.57686730525572 -19.234288841697627, -82.12429267658653 -19.645305144986487 C-81.6775151080169 -20.00159836667035, -81.23073753944728 -20.357891588354214, -80.83125180255585 -20.676470832763204 C-80.41186354064888 -20.96901792924426, -79.9924752787419 -21.261565025725314, -79.47480060722665 -21.622672466799 C-79.15273019732712 -21.817913441975918, -78.83065978742758 -22.013154417152833, -78.06051303951841 -22.480021901620027 C-77.73262393016446 -22.65108143994699, -77.4047348208105 -22.822140978273946, -76.59420071041058 -23.244996104497716 C-76.18686848807428 -23.42530999624493, -75.77953626573799 -23.605623887992145, -75.08188901178646 -23.91445163234599 C-74.58120226166785 -24.098708984687217, -74.08051551154927 -24.28296633702844, -73.52979235680553 -24.485637548803172 C-73.13526966899956 -24.60272981165214, -72.74074698119358 -24.719822074501103, -71.94428864354681 -24.956206728419538 C-71.53090388293825 -25.05055910244078, -71.11751912232968 -25.14491147646202, -70.33189304685754 -25.324225501499278 C-69.98979271093418 -25.379533630783637, -69.64769237501083 -25.434841760068, -68.69923124610233 -25.588181599964017 C-68.20782460571014 -25.6355870075597, -67.71641796531796 -25.682992415155383, -67.05301219882529 -25.746990371586765 C-66.40032784195336 -25.767920688538617, -65.74764348508144 -25.788851005490468, -65.4000005722046 -25.799999237060547 C-65.4000005722046 -25.799999237060547, -65.4000005722046 -25.799999237060547, -65.40000057220459 -25.799999237060547" stroke="none" stroke-width="0" fill="#2d2d2d" style=""></path><path d="M-65.40000057220459 -25.799999237060547 C-21.46384282393697 -25.799999237060547, 22.472314924330647 -25.799999237060547, 65.40000057220459 -25.799999237060547 M-65.40000057220459 -25.799999237060547 C-21.934385718480982 -25.799999237060547, 21.531229135242626 -25.799999237060547, 65.40000057220459 -25.799999237060547 M65.40000057220459 -25.799999237060547 C65.40000057220459 -25.799999237060547, 65.40000057220459 -25.799999237060547, 65.40000057220459 -25.799999237060547 M65.40000057220459 -25.799999237060547 C65.40000057220459 -25.799999237060547, 65.40000057220459 -25.799999237060547, 65.40000057220459 -25.799999237060547 M65.40000057220459 -25.799999237060547 C65.93042648713416 -25.782989510380165, 66.46085240206374 -25.765979783699787, 67.05301219882529 -25.746990371586765 M65.40000057220459 -25.799999237060547 C66.01504050965521 -25.78027610336912, 66.63008044710584 -25.760552969677693, 67.05301219882529 -25.746990371586765 M67.05301219882529 -25.746990371586765 C67.6799974554324 -25.68650585794197, 68.30698271203953 -25.626021344297175, 68.69923124610231 -25.58818159996402 M67.05301219882529 -25.746990371586765 C67.67532270404735 -25.686956825585877, 68.2976332092694 -25.626923279584986, 68.69923124610231 -25.58818159996402 M68.69923124610231 -25.58818159996402 C69.31582394413054 -25.488495674294604, 69.93241664215876 -25.388809748625192, 70.33189304685753 -25.32422550149928 M68.69923124610231 -25.58818159996402 C69.19952390544552 -25.50729816262893, 69.69981656478872 -25.42641472529384, 70.33189304685753 -25.32422550149928 M70.33189304685753 -25.32422550149928 C70.81889425733162 -25.213070653188463, 71.30589546780573 -25.10191580487765, 71.94428864354678 -24.956206728419545 M70.33189304685753 -25.32422550149928 C70.67670445879646 -25.245524546828964, 71.0215158707354 -25.16682359215865, 71.94428864354678 -24.956206728419545 M71.94428864354678 -24.956206728419545 C72.31311580811438 -24.846740761989178, 72.68194297268197 -24.73727479555881, 73.52979235680552 -24.48563754880318 M71.94428864354678 -24.956206728419545 C72.41062320906279 -24.81780107721448, 72.87695777457881 -24.679395426009414, 73.52979235680552 -24.48563754880318 M73.52979235680552 -24.48563754880318 C74.09968534744252 -24.27591166021571, 74.6695783380795 -24.066185771628238, 75.08188901178644 -23.914451632345997 M73.52979235680552 -24.48563754880318 C74.09289428323294 -24.278410834620743, 74.65599620966034 -24.071184120438307, 75.08188901178644 -23.914451632345997 M75.08188901178644 -23.914451632345997 C75.45654437496702 -23.74860281682243, 75.8311997381476 -23.582754001298863, 76.59420071041056 -23.24499610449772 M75.08188901178644 -23.914451632345997 C75.66415647650915 -23.656699098063907, 76.24642394123187 -23.398946563781813, 76.59420071041056 -23.24499610449772 M76.59420071041056 -23.24499610449772 C77.00583667816139 -23.030245883787536, 77.41747264591221 -22.815495663077353, 78.0605130395184 -22.480021901620034 M76.59420071041056 -23.24499610449772 C77.15636213792729 -22.951716847843823, 77.71852356544402 -22.658437591189927, 78.0605130395184 -22.480021901620034 M78.0605130395184 -22.480021901620034 C78.47783879615328 -22.2270365754696, 78.89516455278817 -21.974051249319164, 79.47480060722664 -21.62267246679901 M78.0605130395184 -22.480021901620034 C78.62475980232905 -22.137972198122185, 79.18900656513969 -21.79592249462433, 79.47480060722664 -21.62267246679901 M79.47480060722664 -21.62267246679901 C79.95930060192691 -21.284706244162837, 80.44380059662718 -20.946740021526665, 80.83125180255584 -20.67647083276321 M79.47480060722664 -21.62267246679901 C79.88367437758359 -21.337459824458257, 80.29254814794052 -21.0522471821175, 80.83125180255584 -20.67647083276321 M80.83125180255584 -20.67647083276321 C81.30137335449075 -20.301561405555027, 81.77149490642564 -19.926651978346847, 82.1242926765865 -19.64530514498651 M80.83125180255584 -20.67647083276321 C81.23720317262732 -20.35273541795085, 81.64315454269881 -20.02900000313849, 82.1242926765865 -19.64530514498651 M82.1242926765865 -19.64530514498651 C82.58586721300358 -19.226115363605526, 83.04744174942066 -18.806925582224544, 83.34860984701088 -18.533412684464313 M82.1242926765865 -19.64530514498651 C82.519988343585 -19.285944809752113, 82.9156840105835 -18.926584474517718, 83.34860984701088 -18.533412684464313 M83.34860984701088 -18.533412684464313 C83.72230546071069 -18.14754128233879, 84.0960010744105 -17.761669880213265, 84.49917233196044 -17.345362455817106 M83.34860984701088 -18.533412684464313 C83.67783531283277 -18.193460361089777, 84.00706077865466 -17.85350803771524, 84.49917233196044 -17.345362455817106 M84.49917233196044 -17.345362455817106 C84.86480848659504 -16.915865423296726, 85.23044464122962 -16.48636839077634, 85.57125222338968 -16.086036412270357 M84.49917233196044 -17.345362455817106 C84.78912014023031 -17.004773261725642, 85.07906794850018 -16.66418406763418, 85.57125222338968 -16.086036412270357 M85.57125222338968 -16.086036412270357 C85.86778504048507 -15.688709452057896, 86.16431785758049 -15.291382491845438, 86.56044411506427 -14.76060939466161 M85.57125222338968 -16.086036412270357 C85.90663006665534 -15.636660655844443, 86.24200790992099 -15.18728489941853, 86.56044411506427 -14.76060939466161 M86.56044411506427 -14.76060939466161 C86.78638229099084 -14.41350768354315, 87.01232046691742 -14.066405972424688, 87.46268320532036 -13.374527866909407 M86.56044411506427 -14.76060939466161 C86.79731191183481 -14.396716850912687, 87.03417970860534 -14.032824307163764, 87.46268320532036 -13.374527866909407 M87.46268320532036 -13.374527866909407 C87.65527052767774 -13.032569574482801, 87.84785785003514 -12.690611282056194, 88.2742620002064 -11.93348753532484 M87.46268320532036 -13.374527866909407 C87.72241535286574 -12.913347138210693, 87.98214750041113 -12.452166409511978, 88.2742620002064 -11.93348753532484 M88.2742620002064 -11.93348753532484 C88.4271327050034 -11.616048245904796, 88.58000340980038 -11.298608956484752, 88.99184554837109 -10.443409943732584 M88.2742620002064 -11.93348753532484 C88.42884914819113 -11.612484014899469, 88.58343629617585 -11.291480494474097, 88.99184554837109 -10.443409943732584 M88.99184554837109 -10.443409943732584 C89.196548511735 -9.937789666561164, 89.4012514750989 -9.432169389389744, 89.61248514509381 -8.910418140577123 M88.99184554837109 -10.443409943732584 C89.17421170447719 -9.992962012340739, 89.35657786058329 -9.54251408094889, 89.61248514509381 -8.910418140577123 M89.61248514509381 -8.910418140577123 C89.7392644978208 -8.52857892971016, 89.86604385054778 -8.146739718843198, 90.1336304491449 -7.340811518003323 M89.61248514509381 -8.910418140577123 C89.72101989613039 -8.583528763119157, 89.82955464716696 -8.25663938566119, 90.1336304491449 -7.340811518003323 M90.1336304491449 -7.340811518003323 C90.24164505357878 -6.92890501747128, 90.34965965801264 -6.516998516939236, 90.55313996268467 -5.741039926302914 M90.1336304491449 -7.340811518003323 C90.29141919805299 -6.739094632340388, 90.4492079469611 -6.137377746677452, 90.55313996268467 -5.741039926302914 M90.55313996268467 -5.741039926302914 C90.64866252493944 -5.250551757825376, 90.74418508719421 -4.76006358934784, 90.86928983113748 -4.117677170096137 M90.55313996268467 -5.741039926302914 C90.66791432076123 -5.15169785514895, 90.7826886788378 -4.562355783994986, 90.86928983113748 -4.117677170096137 M90.86928983113748 -4.117677170096137 C90.91708280144508 -3.7470043301799283, 90.96487577175266 -3.37633149026372, 91.08078092687991 -2.4773939951584394 M90.86928983113748 -4.117677170096137 C90.91645040307604 -3.751909087048928, 90.9636109750146 -3.3861410040017192, 91.08078092687991 -2.4773939951584394 M91.08078092687991 -2.4773939951584394 C91.10511160397364 -2.0984240600545467, 91.12944228106737 -1.7194541249506539, 91.18674418763487 -0.8269306768952902 M91.08078092687991 -2.4773939951584394 C91.11899898133305 -1.882116947992428, 91.15721703578619 -1.2868399008264166, 91.18674418763487 -0.8269306768952902 M91.18674418763487 -0.8269306768952902 C91.18674418763487 -0.27010468527097, 91.18674418763487 0.28672130635335025, 91.18674418763487 0.826930676895284 M91.18674418763487 -0.8269306768952902 C91.18674418763487 -0.23901053196875055, 91.18674418763487 0.3489096129577891, 91.18674418763487 0.826930676895284 M91.18674418763487 0.826930676895284 C91.14525863840848 1.4731015926290647, 91.10377308918207 2.119272508362845, 91.08078092687991 2.4773939951584216 M91.18674418763487 0.826930676895284 C91.1644708156119 1.173856424895191, 91.14219744358896 1.520782172895098, 91.08078092687991 2.4773939951584216 M91.08078092687991 2.4773939951584216 C91.01201984058332 3.010691402062441, 90.94325875428675 3.5439888089664606, 90.86928983113748 4.117677170096119 M91.08078092687991 2.4773939951584216 C91.02224410014102 2.9313940639413127, 90.96370727340215 3.3853941327242043, 90.86928983113748 4.117677170096119 M90.86928983113748 4.117677170096119 C90.80486390342445 4.448490692477887, 90.74043797571142 4.779304214859654, 90.55313996268467 5.741039926302909 M90.86928983113748 4.117677170096119 C90.80102487357281 4.4682032993867535, 90.73275991600816 4.818729428677388, 90.55313996268467 5.741039926302909 M90.55313996268467 5.741039926302909 C90.41885267219874 6.253135565405619, 90.28456538171281 6.7652312045083285, 90.1336304491449 7.340811518003306 M90.55313996268467 5.741039926302909 C90.40805605666228 6.294307739728896, 90.2629721506399 6.847575553154883, 90.1336304491449 7.340811518003306 M90.1336304491449 7.340811518003306 C90.01402815947957 7.701034558438296, 89.89442586981424 8.061257598873288, 89.61248514509383 8.910418140577105 M90.1336304491449 7.340811518003306 C89.95060434363374 7.89205698655321, 89.76757823812257 8.443302455103115, 89.61248514509383 8.910418140577105 M89.61248514509383 8.910418140577105 C89.37549226407833 9.495795138631015, 89.13849938306285 10.081172136684923, 88.99184554837109 10.443409943732577 M89.61248514509383 8.910418140577105 C89.45609036792787 9.29671626386433, 89.29969559076191 9.683014387151555, 88.99184554837109 10.443409943732577 M88.99184554837109 10.443409943732577 C88.84626307327166 10.745715068242513, 88.70068059817221 11.048020192752448, 88.2742620002064 11.933487535324835 M88.99184554837109 10.443409943732577 C88.83943469475747 10.759894342331119, 88.68702384114384 11.07637874092966, 88.2742620002064 11.933487535324835 M88.2742620002064 11.933487535324835 C88.11155554311999 12.222389325697113, 87.94884908603359 12.511291116069392, 87.46268320532037 13.374527866909402 M88.2742620002064 11.933487535324835 C88.10204165955665 12.239282189349023, 87.92982131890687 12.545076843373211, 87.46268320532037 13.374527866909402 M87.46268320532037 13.374527866909402 C87.19241260226387 13.78973609102297, 86.92214199920735 14.204944315136538, 86.56044411506429 14.760609394661596 M87.46268320532037 13.374527866909402 C87.27381986548355 13.664672673806555, 87.08495652564672 13.954817480703706, 86.56044411506429 14.760609394661596 M86.56044411506429 14.760609394661596 C86.21690113551864 15.220925689843483, 85.87335815597298 15.68124198502537, 85.57125222338968 16.086036412270353 M86.56044411506429 14.760609394661596 C86.22601822228324 15.208709624162596, 85.8915923295022 15.656809853663598, 85.57125222338968 16.086036412270353 M85.57125222338968 16.086036412270353 C85.21038486671348 16.509931743356503, 84.8495175100373 16.933827074442654, 84.49917233196045 17.345362455817092 M85.57125222338968 16.086036412270353 C85.24397972075127 16.470469316202376, 84.91670721811286 16.854902220134402, 84.49917233196045 17.345362455817092 M84.49917233196045 17.345362455817092 C84.10249856868887 17.754960683916625, 83.70582480541731 18.16455891201616, 83.34860984701088 18.533412684464306 M84.49917233196045 17.345362455817092 C84.16122576858004 17.694320028436223, 83.82327920519963 18.043277601055355, 83.34860984701088 18.533412684464306 M83.34860984701088 18.533412684464306 C82.87256360019185 18.965745290331867, 82.39651735337283 19.398077896199425, 82.12429267658653 19.64530514498649 M83.34860984701088 18.533412684464306 C82.87605715707728 18.962572534402966, 82.4035044671437 19.391732384341626, 82.12429267658653 19.64530514498649 M82.12429267658653 19.64530514498649 C81.77693255985423 19.92231559443959, 81.42957244312193 20.19932604389269, 80.83125180255584 20.676470832763208 M82.12429267658653 19.64530514498649 C81.66003002523081 20.015542254894665, 81.19576737387509 20.38577936480284, 80.83125180255584 20.676470832763208 M80.83125180255584 20.676470832763208 C80.45790160182945 20.93690377072024, 80.08455140110304 21.197336708677273, 79.47480060722665 21.622672466799003 M80.83125180255584 20.676470832763208 C80.42578994355048 20.959303473444358, 80.02032808454514 21.242136114125508, 79.47480060722665 21.622672466799003 M79.47480060722665 21.622672466799003 C78.96413103772227 21.932243360860063, 78.45346146821788 22.241814254921124, 78.06051303951841 22.48002190162003 M79.47480060722665 21.622672466799003 C79.13608445862145 21.828004186600513, 78.79736831001624 22.033335906402023, 78.06051303951841 22.48002190162003 M78.06051303951841 22.48002190162003 C77.75708375522483 22.638320764880262, 77.45365447093123 22.796619628140498, 76.59420071041058 23.244996104497716 M78.06051303951841 22.48002190162003 C77.72539214018555 22.654854260146802, 77.39027124085268 22.829686618673577, 76.59420071041058 23.244996104497716 M76.59420071041058 23.244996104497716 C76.11807161691748 23.455764330319376, 75.64194252342438 23.666532556141032, 75.08188901178644 23.914451632345994 M76.59420071041058 23.244996104497716 C76.13286067146767 23.449217654571722, 75.67152063252476 23.653439204645725, 75.08188901178644 23.914451632345994 M75.08188901178644 23.914451632345994 C74.7530398195797 24.035471174926688, 74.42419062737295 24.156490717507378, 73.52979235680553 24.485637548803172 M75.08188901178644 23.914451632345994 C74.7628668300261 24.031854744242523, 74.44384464826575 24.149257856139048, 73.52979235680553 24.485637548803172 M73.52979235680553 24.485637548803172 C72.98633109685996 24.646933998068654, 72.44286983691438 24.808230447334136, 71.94428864354681 24.95620672841954 M73.52979235680553 24.485637548803172 C73.03895233103205 24.63131629198087, 72.54811230525858 24.776995035158567, 71.94428864354681 24.95620672841954 M71.94428864354681 24.95620672841954 C71.3181447568027 25.099119984598172, 70.69200087005858 25.2420332407768, 70.33189304685754 25.324225501499278 M71.94428864354681 24.95620672841954 C71.58592661998281 25.038000521767273, 71.22756459641882 25.119794315115005, 70.33189304685754 25.324225501499278 M70.33189304685754 25.324225501499278 C69.84410179455847 25.403087808293332, 69.3563105422594 25.48195011508739, 68.69923124610233 25.588181599964017 M70.33189304685754 25.324225501499278 C69.71620505929732 25.42376516059636, 69.10051707173709 25.523304819693443, 68.69923124610233 25.588181599964017 M68.69923124610233 25.588181599964017 C68.13149694732675 25.642950244966507, 67.56376264855118 25.697718889968996, 67.05301219882529 25.746990371586765 M68.69923124610233 25.588181599964017 C68.23638370039582 25.63283194604271, 67.77353615468931 25.6774822921214, 67.05301219882529 25.746990371586765 M67.05301219882529 25.746990371586765 C66.5691931505409 25.762505506768598, 66.0853741022565 25.77802064195043, 65.40000057220459 25.799999237060547 M67.05301219882529 25.746990371586765 C66.49316563978579 25.76494356105994, 65.93331908074629 25.782896750533116, 65.40000057220459 25.799999237060547 M65.40000057220459 25.799999237060547 C65.40000057220459 25.799999237060547, 65.40000057220459 25.799999237060547, 65.40000057220459 25.799999237060547 M65.40000057220459 25.799999237060547 C65.40000057220459 25.799999237060547, 65.40000057220459 25.799999237060547, 65.40000057220459 25.799999237060547 M65.40000057220459 25.799999237060547 C33.32742988920449 25.799999237060547, 1.2548592062043866 25.799999237060547, -65.40000057220459 25.799999237060547 M65.40000057220459 25.799999237060547 C28.917700305994373 25.799999237060547, -7.564599960215844 25.799999237060547, -65.40000057220459 25.799999237060547 M-65.40000057220459 25.799999237060547 C-65.84606573915185 25.785694795369725, -66.29213090609912 25.771390353678903, -67.05301219882527 25.746990371586765 M-65.40000057220459 25.799999237060547 C-66.0506089489817 25.779135492749685, -66.70121732575882 25.758271748438826, -67.05301219882527 25.746990371586765 M-67.05301219882527 25.746990371586765 C-67.69438528100892 25.685117881712493, -68.33575836319257 25.62324539183822, -68.69923124610231 25.588181599964017 M-67.05301219882527 25.746990371586765 C-67.62028488288685 25.69226625800056, -68.18755756694843 25.63754214441436, -68.69923124610231 25.588181599964017 M-68.69923124610231 25.588181599964017 C-69.08568383522994 25.52570294233845, -69.47213642435757 25.463224284712883, -70.33189304685753 25.324225501499278 M-68.69923124610231 25.588181599964017 C-69.09860143045003 25.523614525720713, -69.49797161479775 25.45904745147741, -70.33189304685753 25.324225501499278 M-70.33189304685753 25.324225501499278 C-70.96930438601242 25.178740522834886, -71.60671572516733 25.033255544170494, -71.94428864354678 24.956206728419545 M-70.33189304685753 25.324225501499278 C-70.77288431562967 25.223572122139004, -71.21387558440182 25.12291874277873, -71.94428864354678 24.956206728419545 M-71.94428864354678 24.956206728419545 C-72.30370984308527 24.849532403036896, -72.66313104262377 24.742858077654247, -73.5297923568055 24.485637548803183 M-71.94428864354678 24.956206728419545 C-72.3156267851229 24.845995517193437, -72.686964926699 24.73578430596733, -73.5297923568055 24.485637548803183 M-73.5297923568055 24.485637548803183 C-73.86781475164693 24.36124218285677, -74.20583714648838 24.236846816910358, -75.08188901178644 23.914451632345997 M-73.5297923568055 24.485637548803183 C-74.12336350182447 24.267197880524684, -74.71693464684346 24.048758212246184, -75.08188901178644 23.914451632345997 M-75.08188901178644 23.914451632345997 C-75.60153495303219 23.684419788905668, -76.12118089427793 23.454387945465335, -76.59420071041056 23.244996104497723 M-75.08188901178644 23.914451632345997 C-75.49799458458024 23.730254038603444, -75.91410015737402 23.54605644486089, -76.59420071041056 23.244996104497723 M-76.59420071041056 23.244996104497723 C-77.09523395128035 22.983607383663063, -77.59626719215012 22.722218662828407, -78.0605130395184 22.480021901620038 M-76.59420071041056 23.244996104497723 C-77.1517648305422 22.95411526016191, -77.70932895067385 22.663234415826096, -78.0605130395184 22.480021901620038 M-78.0605130395184 22.480021901620038 C-78.58042875939122 22.164845936869217, -79.10034447926407 21.84966997211839, -79.47480060722663 21.622672466799017 M-78.0605130395184 22.480021901620038 C-78.37220804962763 22.291070554768627, -78.68390305973685 22.102119207917212, -79.47480060722663 21.622672466799017 M-79.47480060722663 21.622672466799017 C-79.86982296899868 21.34712196746927, -80.26484533077073 21.071571468139524, -80.83125180255584 20.67647083276321 M-79.47480060722663 21.622672466799017 C-79.7842325276773 21.406826154184575, -80.09366444812797 21.190979841570133, -80.83125180255584 20.67647083276321 M-80.83125180255584 20.67647083276321 C-81.22161979596457 20.365162746148325, -81.61198778937332 20.053854659533435, -82.1242926765865 19.645305144986512 M-80.83125180255584 20.67647083276321 C-81.31929979294773 20.287265547928143, -81.80734778333962 19.89806026309308, -82.1242926765865 19.645305144986512 M-82.1242926765865 19.645305144986512 C-82.60873165410435 19.205350483157776, -83.09317063162219 18.76539582132904, -83.34860984701086 18.533412684464324 M-82.1242926765865 19.645305144986512 C-82.38520031453199 19.408355731442242, -82.64610795247746 19.171406317897972, -83.34860984701086 18.533412684464324 M-83.34860984701086 18.533412684464324 C-83.59848395901662 18.27539714877225, -83.84835807102239 18.017381613080175, -84.49917233196044 17.3453624558171 M-83.34860984701086 18.533412684464324 C-83.76208319176452 18.106467509213243, -84.17555653651819 17.679522333962158, -84.49917233196044 17.3453624558171 M-84.49917233196044 17.3453624558171 C-84.924237177955 16.84605710083697, -85.34930202394956 16.346751745856835, -85.57125222338968 16.08603641227036 M-84.49917233196044 17.3453624558171 C-84.73250299893344 17.071278977499546, -84.96583366590644 16.797195499181996, -85.57125222338968 16.08603641227036 M-85.57125222338968 16.08603641227036 C-85.80376043808792 15.774496586508821, -86.03626865278618 15.46295676074728, -86.56044411506427 14.760609394661614 M-85.57125222338968 16.08603641227036 C-85.84673546022208 15.716913971954119, -86.12221869705446 15.347791531637878, -86.56044411506427 14.760609394661614 M-86.56044411506427 14.760609394661614 C-86.80110108576075 14.390895662226775, -87.04175805645723 14.021181929791934, -87.46268320532036 13.374527866909418 M-86.56044411506427 14.760609394661614 C-86.79359218224484 14.402431354450142, -87.0267402494254 14.044253314238668, -87.46268320532036 13.374527866909418 M-87.46268320532036 13.374527866909418 C-87.66757211796555 13.010726855255733, -87.87246103061072 12.646925843602048, -88.27426200020639 11.933487535324842 M-87.46268320532036 13.374527866909418 C-87.78513495904295 12.801982126394254, -88.10758671276554 12.22943638587909, -88.27426200020639 11.933487535324842 M-88.27426200020639 11.933487535324842 C-88.45245649089173 11.563462862665414, -88.63065098157709 11.193438190005986, -88.99184554837109 10.443409943732586 M-88.27426200020639 11.933487535324842 C-88.49657570276655 11.47184837520748, -88.71888940532669 11.01020921509012, -88.99184554837109 10.443409943732586 M-88.99184554837109 10.443409943732586 C-89.2211507189672 9.877021739046313, -89.4504558895633 9.310633534360038, -89.61248514509381 8.910418140577127 M-88.99184554837109 10.443409943732586 C-89.16995117635089 10.003485599184398, -89.3480568043307 9.563561254636207, -89.61248514509381 8.910418140577127 M-89.61248514509381 8.910418140577127 C-89.77142348905883 8.431721171940636, -89.93036183302384 7.953024203304146, -90.1336304491449 7.340811518003316 M-89.61248514509381 8.910418140577127 C-89.73315043452727 8.546993514206536, -89.85381572396075 8.183568887835946, -90.1336304491449 7.340811518003316 M-90.1336304491449 7.340811518003316 C-90.22610959470622 6.988148455262791, -90.31858874026754 6.6354853925222645, -90.55313996268467 5.741039926302918 M-90.1336304491449 7.340811518003316 C-90.23983045922613 6.935824852188092, -90.34603046930735 6.530838186372867, -90.55313996268467 5.741039926302918 M-90.55313996268467 5.741039926302918 C-90.62091697566245 5.393019289338736, -90.68869398864025 5.044998652374553, -90.86928983113748 4.117677170096139 M-90.55313996268467 5.741039926302918 C-90.64093836492152 5.290213687015562, -90.72873676715838 4.839387447728207, -90.86928983113748 4.117677170096139 M-90.86928983113748 4.117677170096139 C-90.93642049862459 3.597024969515805, -91.0035511661117 3.076372768935471, -91.08078092687991 2.477393995158454 M-90.86928983113748 4.117677170096139 C-90.93393473066608 3.616304094931558, -90.9985796301947 3.1149310197669773, -91.08078092687991 2.477393995158454 M-91.08078092687991 2.477393995158454 C-91.12000484812424 1.8664497607986084, -91.15922876936857 1.255505526438763, -91.18674418763487 0.8269306768952934 M-91.08078092687991 2.477393995158454 C-91.10873117045121 2.042046390504897, -91.13668141402252 1.60669878585134, -91.18674418763487 0.8269306768952934 M-91.18674418763487 0.8269306768952934 C-91.18674418763487 0.32930725419035956, -91.18674418763487 -0.16831616851457432, -91.18674418763487 -0.8269306768952809 M-91.18674418763487 0.8269306768952934 C-91.18674418763487 0.3807292810200028, -91.18674418763487 -0.06547211485528781, -91.18674418763487 -0.8269306768952809 M-91.18674418763487 -0.8269306768952809 C-91.14544295631976 -1.4702306923820476, -91.10414172500465 -2.113530707868814, -91.08078092687991 -2.4773939951584185 M-91.18674418763487 -0.8269306768952809 C-91.16077917026067 -1.2313567810832446, -91.13481415288648 -1.6357828852712086, -91.08078092687991 -2.4773939951584185 M-91.08078092687991 -2.4773939951584185 C-91.03453107813542 -2.8360986889550692, -90.98828122939092 -3.1948033827517195, -90.86928983113748 -4.117677170096128 M-91.08078092687991 -2.4773939951584185 C-91.02566263878191 -2.9048805533094595, -90.97054435068391 -3.3323671114605005, -90.86928983113748 -4.117677170096128 M-90.86928983113748 -4.117677170096128 C-90.75325665743686 -4.713482993428813, -90.63722348373625 -5.309288816761498, -90.55313996268467 -5.741039926302906 M-90.86928983113748 -4.117677170096128 C-90.78443332661857 -4.553397386372163, -90.69957682209964 -4.989117602648198, -90.55313996268467 -5.741039926302906 M-90.55313996268467 -5.741039926302906 C-90.41927517834216 -6.2515243663654365, -90.28541039399964 -6.762008806427966, -90.1336304491449 -7.340811518003303 M-90.55313996268467 -5.741039926302906 C-90.4166546986755 -6.261517391057487, -90.28016943466632 -6.781994855812069, -90.1336304491449 -7.340811518003303 M-90.1336304491449 -7.340811518003303 C-90.02089152246165 -7.68036320266463, -89.90815259577842 -8.019914887325957, -89.61248514509383 -8.910418140577093 M-90.1336304491449 -7.340811518003303 C-89.93266087142244 -7.9460998659495665, -89.73169129369998 -8.55138821389583, -89.61248514509383 -8.910418140577093 M-89.61248514509383 -8.910418140577093 C-89.3797566734539 -9.48526196502662, -89.14702820181397 -10.060105789476149, -88.99184554837109 -10.443409943732574 M-89.61248514509383 -8.910418140577093 C-89.40228245537531 -9.429622848174379, -89.19207976565679 -9.948827555771665, -88.99184554837109 -10.443409943732574 M-88.99184554837109 -10.443409943732574 C-88.76781778666329 -10.908608384345044, -88.54379002495547 -11.373806824957512, -88.2742620002064 -11.933487535324831 M-88.99184554837109 -10.443409943732574 C-88.82873501310696 -10.782112460214895, -88.66562447784284 -11.120814976697217, -88.2742620002064 -11.933487535324831 M-88.2742620002064 -11.933487535324831 C-88.07232666189317 -12.292044176670295, -87.87039132357995 -12.650600818015757, -87.46268320532036 -13.374527866909409 M-88.2742620002064 -11.933487535324831 C-88.05743272705845 -12.318489866143775, -87.84060345391052 -12.70349219696272, -87.46268320532036 -13.374527866909409 M-87.46268320532036 -13.374527866909409 C-87.14180339210404 -13.867485428304237, -86.82092357888772 -14.360442989699063, -86.56044411506429 -14.760609394661605 M-87.46268320532036 -13.374527866909409 C-87.1289799929268 -13.887185613005292, -86.79527678053324 -14.399843359101173, -86.56044411506429 -14.760609394661605 M-86.56044411506429 -14.760609394661605 C-86.238427047627 -15.192082928669214, -85.91640998018971 -15.623556462676822, -85.57125222338968 -16.086036412270353 M-86.56044411506429 -14.760609394661605 C-86.19006130780427 -15.256888613822127, -85.81967850054426 -15.753167832982648, -85.57125222338968 -16.086036412270353 M-85.57125222338968 -16.086036412270353 C-85.32667494390796 -16.373330801591024, -85.08209766442626 -16.66062519091169, -84.49917233196045 -17.345362455817092 M-85.57125222338968 -16.086036412270353 C-85.2009894593358 -16.52096812347616, -84.83072669528192 -16.95589983468196, -84.49917233196045 -17.345362455817092 M-84.49917233196045 -17.345362455817092 C-84.05658509140297 -17.80237011878092, -83.6139978508455 -18.259377781744746, -83.34860984701089 -18.5334126844643 M-84.49917233196045 -17.345362455817092 C-84.26307441610876 -17.58915293793334, -84.02697650025709 -17.832943420049585, -83.34860984701089 -18.5334126844643 M-83.34860984701089 -18.5334126844643 C-82.94850728812789 -18.896775242308237, -82.54840472924488 -19.26013780015218, -82.12429267658653 -19.645305144986487 M-83.34860984701089 -18.5334126844643 C-83.082778784351 -18.77483342206751, -82.81694772169114 -19.01625415967072, -82.12429267658653 -19.645305144986487 M-82.12429267658653 -19.645305144986487 C-81.7905924959262 -19.91142215892835, -81.45689231526588 -20.177539172870215, -80.83125180255585 -20.676470832763204 M-82.12429267658653 -19.645305144986487 C-81.84635116202803 -19.86695610651257, -81.56840964746952 -20.088607068038655, -80.83125180255585 -20.676470832763204 M-80.83125180255585 -20.676470832763204 C-80.50108558503925 -20.906780493437584, -80.17091936752266 -21.137090154111966, -79.47480060722665 -21.622672466799 M-80.83125180255585 -20.676470832763204 C-80.53479629414717 -20.883265362076983, -80.23834078573847 -21.090059891390762, -79.47480060722665 -21.622672466799 M-79.47480060722665 -21.622672466799 C-78.91181294053285 -21.963958898831546, -78.34882527383905 -22.305245330864096, -78.06051303951841 -22.480021901620027 M-79.47480060722665 -21.622672466799 C-79.05257188731998 -21.878629998097797, -78.63034316741333 -22.134587529396597, -78.06051303951841 -22.480021901620027 M-78.06051303951841 -22.480021901620027 C-77.58594625976056 -22.727603086645168, -77.11137948000273 -22.975184271670305, -76.59420071041058 -23.244996104497716 M-78.06051303951841 -22.480021901620027 C-77.50692616091224 -22.768827821599544, -76.95333928230609 -23.05763374157906, -76.59420071041058 -23.244996104497716 M-76.59420071041058 -23.244996104497716 C-76.28144593956767 -23.383443364009224, -75.96869116872476 -23.521890623520733, -75.08188901178646 -23.91445163234599 M-76.59420071041058 -23.244996104497716 C-76.23944644962666 -23.40203529233551, -75.88469218884273 -23.559074480173297, -75.08188901178646 -23.91445163234599 M-75.08188901178646 -23.91445163234599 C-74.6386970226341 -24.077550381175893, -74.19550503348175 -24.2406491300058, -73.52979235680553 -24.485637548803172 M-75.08188901178646 -23.91445163234599 C-74.46848851771149 -24.140188684377588, -73.85508802363653 -24.365925736409185, -73.52979235680553 -24.485637548803172 M-73.52979235680553 -24.485637548803172 C-72.91624231518604 -24.66773598056595, -72.30269227356654 -24.84983441232873, -71.94428864354681 -24.956206728419538 M-73.52979235680553 -24.485637548803172 C-73.14287338703117 -24.600473068053084, -72.75595441725683 -24.715308587302992, -71.94428864354681 -24.956206728419538 M-71.94428864354681 -24.956206728419538 C-71.61360075987669 -25.031684079927132, -71.28291287620658 -25.107161431434726, -70.33189304685754 -25.324225501499278 M-71.94428864354681 -24.956206728419538 C-71.52352376527735 -25.05224356613711, -71.10275888700787 -25.148280403854685, -70.33189304685754 -25.324225501499278 M-70.33189304685754 -25.324225501499278 C-69.86960575833999 -25.39896452521533, -69.40731846982241 -25.473703548931386, -68.69923124610233 -25.588181599964017 M-70.33189304685754 -25.324225501499278 C-69.89550827088968 -25.39477680786328, -69.45912349492183 -25.465328114227283, -68.69923124610233 -25.588181599964017 M-68.69923124610233 -25.588181599964017 C-68.17600890944146 -25.638656229514766, -67.65278657278058 -25.689130859065514, -67.05301219882529 -25.746990371586765 M-68.69923124610233 -25.588181599964017 C-68.11067004882969 -25.644959390816506, -67.52210885155705 -25.701737181669, -67.05301219882529 -25.746990371586765 M-67.05301219882529 -25.746990371586765 C-66.52265004871906 -25.76399805345337, -65.99228789861284 -25.78100573531998, -65.4000005722046 -25.799999237060547 M-67.05301219882529 -25.746990371586765 C-66.44716836396972 -25.766418604167097, -65.84132452911415 -25.785846836747428, -65.4000005722046 -25.799999237060547 M-65.4000005722046 -25.799999237060547 C-65.4000005722046 -25.799999237060547, -65.40000057220459 -25.799999237060547, -65.40000057220459 -25.799999237060547 M-65.4000005722046 -25.799999237060547 C-65.4000005722046 -25.799999237060547, -65.40000057220459 -25.799999237060547, -65.40000057220459 -25.799999237060547" stroke="#555555" stroke-width="1.3" fill="none" stroke-dasharray="0 0" style=""></path></g><g class="label" style="" transform="translate(0, -18.299999237060547)"><rect></rect><g><rect class="background" style="stroke: none"></rect><text y="-10.1" style=""><tspan class="text-outer-tspan row" x="0" y="-0.1em" dy="1.1em"><tspan font-style="normal" class="text-inner-tspan" font-weight="normal">PaintInvalidator</tspan><tspan font-style="normal" class="text-inner-tspan" font-weight="normal"> visits</tspan></tspan><tspan class="text-outer-tspan row" x="0" y="1em" dy="1.1em"><tspan font-style="normal" class="text-inner-tspan" font-weight="normal">LayoutObject</tspan></tspan></text></g></g></g><g class="node default" id="ga880a294-9f64-4a35-85c6-2f9a5f234d10-dark-flowchart-Cmp-2" data-look="classic" transform="translate(372.03125, 178.0999984741211)"><rect class="basic label-container" style="" x="-109.046875" y="-68.5" width="218.09375" height="137"></rect><g class="label" style="" transform="translate(0, -53.5)"><rect></rect><g><rect class="background" style="stroke: none"></rect><text y="-10.1" style=""><tspan class="text-outer-tspan row" x="0" y="-0.1em" dy="1.1em"><tspan font-style="normal" class="text-inner-tspan" font-weight="normal">Compare</tspan><tspan font-style="normal" class="text-inner-tspan" font-weight="normal"> current</tspan><tspan font-style="normal" class="text-inner-tspan" font-weight="normal"> vs</tspan></tspan><tspan class="text-outer-tspan row" x="0" y="1em" dy="1.1em"><tspan font-style="normal" class="text-inner-tspan" font-weight="normal">cached:</tspan></tspan><tspan class="text-outer-tspan row" x="0" y="2.1em" dy="1.1em"><tspan font-style="normal" class="text-inner-tspan" font-weight="normal">computed</tspan><tspan font-style="normal" class="text-inner-tspan" font-weight="normal"> style,</tspan><tspan font-style="normal" class="text-inner-tspan" font-weight="normal"> paint</tspan></tspan><tspan class="text-outer-tspan row" x="0" y="3.2em" dy="1.1em"><tspan font-style="normal" class="text-inner-tspan" font-weight="normal">offset,</tspan></tspan><tspan class="text-outer-tspan row" x="0" y="4.300000000000001em" dy="1.1em"><tspan font-style="normal" class="text-inner-tspan" font-weight="normal">visual</tspan><tspan font-style="normal" class="text-inner-tspan" font-weight="normal"> rect,</tspan></tspan><tspan class="text-outer-tspan row" x="0" y="5.4em" dy="1.1em"><tspan font-style="normal" class="text-inner-tspan" font-weight="normal">PropertyTreeState</tspan></tspan></text></g></g></g><g class="node default" id="ga880a294-9f64-4a35-85c6-2f9a5f234d10-dark-flowchart-Q1-4" data-look="classic" transform="translate(372.03125, 426.9546890258789)"><polygon points="130.35468673706055,0 260.7093734741211,-130.35468673706055 130.35468673706055,-260.7093734741211 0,-130.35468673706055" class="label-container" transform="translate(-129.85468673706055, 130.35468673706055)"></polygon><g class="label" style="" transform="translate(0, -18.299999237060547)"><rect></rect><g><rect class="background" style="stroke: none"></rect><text y="-10.1" style=""><tspan class="text-outer-tspan row" x="0" y="-0.1em" dy="1.1em"><tspan font-style="normal" class="text-inner-tspan" font-weight="normal">PropertyTreeState</tspan><tspan font-style="normal" class="text-inner-tspan" font-weight="normal"> changed</tspan></tspan><tspan class="text-outer-tspan row" x="0" y="1em" dy="1.1em"><tspan font-style="normal" class="text-inner-tspan" font-weight="normal">OR</tspan><tspan font-style="normal" class="text-inner-tspan" font-weight="normal"> chunk</tspan><tspan font-style="normal" class="text-inner-tspan" font-weight="normal"> order</tspan><tspan font-style="normal" class="text-inner-tspan" font-weight="normal"> changed?</tspan></tspan></text></g></g></g><g class="node default" id="ga880a294-9f64-4a35-85c6-2f9a5f234d10-dark-flowchart-Chunk-6" data-look="classic" transform="translate(97.3046875, 969.5593757629395)"><rect class="basic label-container" style="fill:#661925 !important;stroke:#c62828 !important" x="-89.3046875" y="-33.29999923706055" width="178.609375" height="66.5999984741211"></rect><g class="label" style="" transform="translate(0, -18.299999237060547)"><rect></rect><g><rect class="background" style="stroke: none"></rect><text y="-10.1" style=""><tspan class="text-outer-tspan row" x="0" y="-0.1em" dy="1.1em"><tspan font-style="normal" class="text-inner-tspan" font-weight="normal">Invalidate</tspan><tspan font-style="normal" class="text-inner-tspan" font-weight="normal"> whole</tspan></tspan><tspan class="text-outer-tspan row" x="0" y="1em" dy="1.1em"><tspan font-style="normal" class="text-inner-tspan" font-weight="normal">PaintChunk</tspan></tspan></text></g></g></g><g class="node default" id="ga880a294-9f64-4a35-85c6-2f9a5f234d10-dark-flowchart-Q2-8" data-look="classic" transform="translate(497.93359375, 746.7843780517578)"><polygon points="116.4749984741211,0 232.9499969482422,-116.4749984741211 116.4749984741211,-232.9499969482422 0,-116.4749984741211" class="label-container" transform="translate(-115.9749984741211, 116.4749984741211)"></polygon><g class="label" style="" transform="translate(0, -27.099998474121094)"><rect></rect><g><rect class="background" style="stroke: none"></rect><text y="-10.1" style=""><tspan class="text-outer-tspan row" x="0" y="-0.1em" dy="1.1em"><tspan font-style="normal" class="text-inner-tspan" font-weight="normal">Display</tspan><tspan font-style="normal" class="text-inner-tspan" font-weight="normal"> item</tspan><tspan font-style="normal" class="text-inner-tspan" font-weight="normal"> content</tspan></tspan><tspan class="text-outer-tspan row" x="0" y="1em" dy="1.1em"><tspan font-style="normal" class="text-inner-tspan" font-weight="normal">(geometry</tspan><tspan font-style="normal" class="text-inner-tspan" font-weight="normal"> /</tspan><tspan font-style="normal" class="text-inner-tspan" font-weight="normal"> style)</tspan></tspan><tspan class="text-outer-tspan row" x="0" y="2.1em" dy="1.1em"><tspan font-style="normal" class="text-inner-tspan" font-weight="normal">changed?</tspan></tspan></text></g></g></g><g class="node default" id="ga880a294-9f64-4a35-85c6-2f9a5f234d10-dark-flowchart-Item-10" data-look="classic" transform="translate(349.109375, 969.5593757629395)"><rect class="basic label-container" style="fill:#665e19 !important;stroke:#f9a825 !important" x="-112.5" y="-33.29999923706055" width="225" height="66.5999984741211"></rect><g class="label" style="" transform="translate(0, -18.299999237060547)"><rect></rect><g><rect class="background" style="stroke: none"></rect><text y="-10.1" style=""><tspan class="text-outer-tspan row" x="0" y="-0.1em" dy="1.1em"><tspan font-style="normal" class="text-inner-tspan" font-weight="normal">Mark</tspan><tspan font-style="normal" class="text-inner-tspan" font-weight="normal"> single</tspan></tspan><tspan class="text-outer-tspan row" x="0" y="1em" dy="1.1em"><tspan font-style="normal" class="text-inner-tspan" font-weight="normal">DisplayItemClient</tspan><tspan font-style="normal" class="text-inner-tspan" font-weight="normal"> dirty</tspan></tspan></text></g></g></g><g class="node default" id="ga880a294-9f64-4a35-85c6-2f9a5f234d10-dark-flowchart-Reuse-12" data-look="classic" transform="translate(642.59765625, 969.5593757629395)"><rect class="basic label-container" style="fill:#27592a !important;stroke:#2e7d32 !important" x="-126.828125" y="-33.29999923706055" width="253.65625" height="66.5999984741211"></rect><g class="label" style="" transform="translate(0, -18.299999237060547)"><rect></rect><g><rect class="background" style="stroke: none"></rect><text y="-10.1" style=""><tspan class="text-outer-tspan row" x="0" y="-0.1em" dy="1.1em"><tspan font-style="normal" class="text-inner-tspan" font-weight="normal">Reuse</tspan><tspan font-style="normal" class="text-inner-tspan" font-weight="normal"> from</tspan><tspan font-style="normal" class="text-inner-tspan" font-weight="normal"> PaintController</tspan></tspan><tspan class="text-outer-tspan row" x="0" y="1em" dy="1.1em"><tspan font-style="normal" class="text-inner-tspan" font-weight="normal">cache</tspan></tspan></text></g></g></g><g class="node default" id="ga880a294-9f64-4a35-85c6-2f9a5f234d10-dark-flowchart-Paint-14" data-look="classic" transform="translate(223.20703125, 1094.959373474121)"><rect class="basic label-container" style="" x="-119.40625" y="-33.29999923706055" width="238.8125" height="66.5999984741211"></rect><g class="label" style="" transform="translate(0, -18.299999237060547)"><rect></rect><g><rect class="background" style="stroke: none"></rect><text y="-10.1" style=""><tspan class="text-outer-tspan row" x="0" y="-0.1em" dy="1.1em"><tspan font-style="normal" class="text-inner-tspan" font-weight="normal">Paint</tspan><tspan font-style="normal" class="text-inner-tspan" font-weight="normal"> stage</tspan><tspan font-style="normal" class="text-inner-tspan" font-weight="normal"> re-records</tspan></tspan><tspan class="text-outer-tspan row" x="0" y="1em" dy="1.1em"><tspan font-style="normal" class="text-inner-tspan" font-weight="normal">the</tspan><tspan font-style="normal" class="text-inner-tspan" font-weight="normal"> chunk's</tspan><tspan font-style="normal" class="text-inner-tspan" font-weight="normal"> display</tspan><tspan font-style="normal" class="text-inner-tspan" font-weight="normal"> items</tspan></tspan></text></g></g></g><g class="node default" id="ga880a294-9f64-4a35-85c6-2f9a5f234d10-dark-flowchart-Skip-18" data-look="classic" transform="translate(642.59765625, 1094.959373474121)"><rect class="basic label-container" style="" x="-128.2421875" y="-42.099998474121094" width="256.484375" height="84.19999694824219"></rect><g class="label" style="" transform="translate(0, -27.099998474121094)"><rect></rect><g><rect class="background" style="stroke: none"></rect><text y="-10.1" style=""><tspan class="text-outer-tspan row" x="0" y="-0.1em" dy="1.1em"><tspan font-style="normal" class="text-inner-tspan" font-weight="normal">Paint</tspan><tspan font-style="normal" class="text-inner-tspan" font-weight="normal"> stage</tspan><tspan font-style="normal" class="text-inner-tspan" font-weight="normal"> skips</tspan><tspan font-style="normal" class="text-inner-tspan" font-weight="normal"> re-record;</tspan></tspan><tspan class="text-outer-tspan row" x="0" y="1em" dy="1.1em"><tspan font-style="normal" class="text-inner-tspan" font-weight="normal">cached</tspan><tspan font-style="normal" class="text-inner-tspan" font-weight="normal"> display</tspan><tspan font-style="normal" class="text-inner-tspan" font-weight="normal"> items</tspan></tspan><tspan class="text-outer-tspan row" x="0" y="2.1em" dy="1.1em"><tspan font-style="normal" class="text-inner-tspan" font-weight="normal">reused</tspan></tspan></text></g></g></g></g></g></g><defs><filter id="ga880a294-9f64-4a35-85c6-2f9a5f234d10-dark-drop-shadow" height="130%" width="130%"><feDropShadow dx="4" dy="4" stdDeviation="0" flood-opacity="0.06" flood-color="#000000"></feDropShadow></filter></defs><defs><filter id="ga880a294-9f64-4a35-85c6-2f9a5f234d10-dark-drop-shadow-small" height="150%" width="150%"><feDropShadow dx="2" dy="2" stdDeviation="0" flood-opacity="0.06" flood-color="#000000"></feDropShadow></filter></defs><linearGradient id="ga880a294-9f64-4a35-85c6-2f9a5f234d10-dark-gradient" gradientUnits="objectBoundingBox" x1="0%" y1="0%" x2="100%" y2="0%"><stop offset="0%" stop-color="#555555" stop-opacity="1"></stop><stop offset="100%" stop-color="#555555" stop-opacity="1"></stop></linearGradient></svg>