<svg id="g31f748ba-6d59-452b-adf0-78598a8b868a-light" width="100%" xmlns="http://www.w3.org/2000/svg" xmlns:xlink="http://www.w3.org/1999/xlink" class="flowchart" style="max-width: 1180.468017578125px;" viewBox="0 0 1180.468017578125 996.6187744140625" role="graphics-document document" aria-roledescription="flowchart-v2"><style>#g31f748ba-6d59-452b-adf0-78598a8b868a-light{font-family:"trebuchet ms",verdana,arial,sans-serif;font-size:16px;fill:#333;}@keyframes edge-animation-frame{from{stroke-dashoffset:0;}}@keyframes dash{to{stroke-dashoffset:0;}}#g31f748ba-6d59-452b-adf0-78598a8b868a-light .edge-animation-slow{stroke-dasharray:9,5!important;stroke-dashoffset:900;animation:dash 50s linear infinite;stroke-linecap:round;}#g31f748ba-6d59-452b-adf0-78598a8b868a-light .edge-animation-fast{stroke-dasharray:9,5!important;stroke-dashoffset:900;animation:dash 20s linear infinite;stroke-linecap:round;}#g31f748ba-6d59-452b-adf0-78598a8b868a-light .error-icon{fill:#552222;}#g31f748ba-6d59-452b-adf0-78598a8b868a-light .error-text{fill:#552222;stroke:#552222;}#g31f748ba-6d59-452b-adf0-78598a8b868a-light .edge-thickness-normal{stroke-width:1px;}#g31f748ba-6d59-452b-adf0-78598a8b868a-light .edge-thickness-thick{stroke-width:3.5px;}#g31f748ba-6d59-452b-adf0-78598a8b868a-light .edge-pattern-solid{stroke-dasharray:0;}#g31f748ba-6d59-452b-adf0-78598a8b868a-light .edge-thickness-invisible{stroke-width:0;fill:none;}#g31f748ba-6d59-452b-adf0-78598a8b868a-light .edge-pattern-dashed{stroke-dasharray:3;}#g31f748ba-6d59-452b-adf0-78598a8b868a-light .edge-pattern-dotted{stroke-dasharray:2;}#g31f748ba-6d59-452b-adf0-78598a8b868a-light .marker{fill:#333333;stroke:#333333;}#g31f748ba-6d59-452b-adf0-78598a8b868a-light .marker.cross{stroke:#333333;}#g31f748ba-6d59-452b-adf0-78598a8b868a-light svg{font-family:"trebuchet ms",verdana,arial,sans-serif;font-size:16px;}#g31f748ba-6d59-452b-adf0-78598a8b868a-light p{margin:0;}#g31f748ba-6d59-452b-adf0-78598a8b868a-light .label{font-family:"trebuchet ms",verdana,arial,sans-serif;color:#333;}#g31f748ba-6d59-452b-adf0-78598a8b868a-light .cluster-label text{fill:#333;}#g31f748ba-6d59-452b-adf0-78598a8b868a-light .cluster-label span{color:#333;}#g31f748ba-6d59-452b-adf0-78598a8b868a-light .cluster-label span p{background-color:transparent;}#g31f748ba-6d59-452b-adf0-78598a8b868a-light .label text,#g31f748ba-6d59-452b-adf0-78598a8b868a-light span{fill:#333;color:#333;}#g31f748ba-6d59-452b-adf0-78598a8b868a-light .node rect,#g31f748ba-6d59-452b-adf0-78598a8b868a-light .node circle,#g31f748ba-6d59-452b-adf0-78598a8b868a-light .node ellipse,#g31f748ba-6d59-452b-adf0-78598a8b868a-light .node polygon,#g31f748ba-6d59-452b-adf0-78598a8b868a-light .node path{fill:#ECECFF;stroke:#9370DB;stroke-width:1px;}#g31f748ba-6d59-452b-adf0-78598a8b868a-light .rough-node .label text,#g31f748ba-6d59-452b-adf0-78598a8b868a-light .node .label text,#g31f748ba-6d59-452b-adf0-78598a8b868a-light .image-shape .label,#g31f748ba-6d59-452b-adf0-78598a8b868a-light .icon-shape .label{text-anchor:middle;}#g31f748ba-6d59-452b-adf0-78598a8b868a-light .node .katex path{fill:#000;stroke:#000;stroke-width:1px;}#g31f748ba-6d59-452b-adf0-78598a8b868a-light .rough-node .label,#g31f748ba-6d59-452b-adf0-78598a8b868a-light .node .label,#g31f748ba-6d59-452b-adf0-78598a8b868a-light .image-shape .label,#g31f748ba-6d59-452b-adf0-78598a8b868a-light .icon-shape .label{text-align:center;}#g31f748ba-6d59-452b-adf0-78598a8b868a-light .node.clickable{cursor:pointer;}#g31f748ba-6d59-452b-adf0-78598a8b868a-light .root .anchor path{fill:#333333!important;stroke-width:0;stroke:#333333;}#g31f748ba-6d59-452b-adf0-78598a8b868a-light .arrowheadPath{fill:#333333;}#g31f748ba-6d59-452b-adf0-78598a8b868a-light .edgePath .path{stroke:#333333;stroke-width:1px;}#g31f748ba-6d59-452b-adf0-78598a8b868a-light .flowchart-link{stroke:#333333;fill:none;}#g31f748ba-6d59-452b-adf0-78598a8b868a-light .edgeLabel{background-color:rgba(232,232,232, 0.8);text-align:center;}#g31f748ba-6d59-452b-adf0-78598a8b868a-light .edgeLabel p{background-color:rgba(232,232,232, 0.8);}#g31f748ba-6d59-452b-adf0-78598a8b868a-light .edgeLabel rect{opacity:0.5;background-color:rgba(232,232,232, 0.8);fill:rgba(232,232,232, 0.8);}#g31f748ba-6d59-452b-adf0-78598a8b868a-light .labelBkg{background-color:rgba(232, 232, 232, 0.5);}#g31f748ba-6d59-452b-adf0-78598a8b868a-light .cluster rect{fill:#ffffde;stroke:#aaaa33;stroke-width:1px;}#g31f748ba-6d59-452b-adf0-78598a8b868a-light .cluster text{fill:#333;}#g31f748ba-6d59-452b-adf0-78598a8b868a-light .cluster span{color:#333;}#g31f748ba-6d59-452b-adf0-78598a8b868a-light div.mermaidTooltip{position:absolute;text-align:center;max-width:200px;padding:2px;font-family:"trebuchet ms",verdana,arial,sans-serif;font-size:12px;background:hsl(80, 100%, 96.2745098039%);border:1px solid #aaaa33;border-radius:2px;pointer-events:none;z-index:100;}#g31f748ba-6d59-452b-adf0-78598a8b868a-light .flowchartTitleText{text-anchor:middle;font-size:18px;fill:#333;}#g31f748ba-6d59-452b-adf0-78598a8b868a-light rect.text{fill:none;stroke-width:0;}#g31f748ba-6d59-452b-adf0-78598a8b868a-light .icon-shape,#g31f748ba-6d59-452b-adf0-78598a8b868a-light .image-shape{background-color:rgba(232,232,232, 0.8);text-align:center;}#g31f748ba-6d59-452b-adf0-78598a8b868a-light .icon-shape p,#g31f748ba-6d59-452b-adf0-78598a8b868a-light .image-shape p{background-color:rgba(232,232,232, 0.8);padding:2px;}#g31f748ba-6d59-452b-adf0-78598a8b868a-light .icon-shape .label rect,#g31f748ba-6d59-452b-adf0-78598a8b868a-light .image-shape .label rect{opacity:0.5;background-color:rgba(232,232,232, 0.8);fill:rgba(232,232,232, 0.8);}#g31f748ba-6d59-452b-adf0-78598a8b868a-light .label-icon{display:inline-block;height:1em;overflow:visible;vertical-align:-0.125em;}#g31f748ba-6d59-452b-adf0-78598a8b868a-light .node .label-icon path{fill:currentColor;stroke:revert;stroke-width:revert;}#g31f748ba-6d59-452b-adf0-78598a8b868a-light .node .neo-node{stroke:#9370DB;}#g31f748ba-6d59-452b-adf0-78598a8b868a-light [data-look="neo"].node rect,#g31f748ba-6d59-452b-adf0-78598a8b868a-light [data-look="neo"].cluster rect,#g31f748ba-6d59-452b-adf0-78598a8b868a-light [data-look="neo"].node polygon{stroke:#9370DB;filter:drop-shadow(1px 2px 2px rgba(185, 185, 185, 1));}#g31f748ba-6d59-452b-adf0-78598a8b868a-light [data-look="neo"].node path{stroke:#9370DB;stroke-width:1px;}#g31f748ba-6d59-452b-adf0-78598a8b868a-light [data-look="neo"].node .outer-path{filter:drop-shadow(1px 2px 2px rgba(185, 185, 185, 1));}#g31f748ba-6d59-452b-adf0-78598a8b868a-light [data-look="neo"].node .neo-line path{stroke:#9370DB;filter:none;}#g31f748ba-6d59-452b-adf0-78598a8b868a-light [data-look="neo"].node circle{stroke:#9370DB;filter:drop-shadow(1px 2px 2px rgba(185, 185, 185, 1));}#g31f748ba-6d59-452b-adf0-78598a8b868a-light [data-look="neo"].node circle .state-start{fill:#000000;}#g31f748ba-6d59-452b-adf0-78598a8b868a-light [data-look="neo"].icon-shape .icon{fill:#9370DB;filter:drop-shadow(1px 2px 2px rgba(185, 185, 185, 1));}#g31f748ba-6d59-452b-adf0-78598a8b868a-light [data-look="neo"].icon-shape .icon-neo path{stroke:#9370DB;filter:drop-shadow(1px 2px 2px rgba(185, 185, 185, 1));}#g31f748ba-6d59-452b-adf0-78598a8b868a-light :root{--mermaid-font-family:"trebuchet ms",verdana,arial,sans-serif;}</style><g><marker id="g31f748ba-6d59-452b-adf0-78598a8b868a-light_flowchart-v2-pointEnd" class="marker flowchart-v2" viewBox="0 0 10 10" refX="5" refY="5" markerUnits="userSpaceOnUse" markerWidth="8" markerHeight="8" orient="auto"><path d="M 0 0 L 10 5 L 0 10 z" class="arrowMarkerPath" style="stroke-width: 1; stroke-dasharray: 1, 0;"></path></marker><marker id="g31f748ba-6d59-452b-adf0-78598a8b868a-light_flowchart-v2-pointStart" class="marker flowchart-v2" viewBox="0 0 10 10" refX="4.5" refY="5" markerUnits="userSpaceOnUse" markerWidth="8" markerHeight="8" orient="auto"><path d="M 0 5 L 10 10 L 10 0 z" class="arrowMarkerPath" style="stroke-width: 1; stroke-dasharray: 1, 0;"></path></marker><marker id="g31f748ba-6d59-452b-adf0-78598a8b868a-light_flowchart-v2-pointEnd-margin" class="marker flowchart-v2" viewBox="0 0 11.5 14" refX="11.5" refY="7" markerUnits="userSpaceOnUse" markerWidth="10.5" markerHeight="14" orient="auto"><path d="M 0 0 L 11.5 7 L 0 14 z" class="arrowMarkerPath" style="stroke-width: 0; stroke-dasharray: 1, 0;"></path></marker><marker id="g31f748ba-6d59-452b-adf0-78598a8b868a-light_flowchart-v2-pointStart-margin" class="marker flowchart-v2" viewBox="0 0 11.5 14" refX="1" refY="7" markerUnits="userSpaceOnUse" markerWidth="11.5" markerHeight="14" orient="auto"><polygon points="0,7 11.5,14 11.5,0" class="arrowMarkerPath" style="stroke-width: 0; stroke-dasharray: 1, 0;"></polygon></marker><marker id="g31f748ba-6d59-452b-adf0-78598a8b868a-light_flowchart-v2-circleEnd" class="marker flowchart-v2" viewBox="0 0 10 10" refX="11" refY="5" markerUnits="userSpaceOnUse" markerWidth="11" markerHeight="11" orient="auto"><circle cx="5" cy="5" r="5" class="arrowMarkerPath" style="stroke-width: 1; stroke-dasharray: 1, 0;"></circle></marker><marker id="g31f748ba-6d59-452b-adf0-78598a8b868a-light_flowchart-v2-circleStart" class="marker flowchart-v2" viewBox="0 0 10 10" refX="-1" refY="5" markerUnits="userSpaceOnUse" markerWidth="11" markerHeight="11" orient="auto"><circle cx="5" cy="5" r="5" class="arrowMarkerPath" style="stroke-width: 1; stroke-dasharray: 1, 0;"></circle></marker><marker id="g31f748ba-6d59-452b-adf0-78598a8b868a-light_flowchart-v2-circleEnd-margin" class="marker flowchart-v2" viewBox="0 0 10 10" refY="5" refX="12.25" markerUnits="userSpaceOnUse" markerWidth="14" markerHeight="14" orient="auto"><circle cx="5" cy="5" r="5" class="arrowMarkerPath" style="stroke-width: 0; stroke-dasharray: 1, 0;"></circle></marker><marker id="g31f748ba-6d59-452b-adf0-78598a8b868a-light_flowchart-v2-circleStart-margin" class="marker flowchart-v2" viewBox="0 0 10 10" refX="-2" refY="5" markerUnits="userSpaceOnUse" markerWidth="14" markerHeight="14" orient="auto"><circle cx="5" cy="5" r="5" class="arrowMarkerPath" style="stroke-width: 0; stroke-dasharray: 1, 0;"></circle></marker><marker id="g31f748ba-6d59-452b-adf0-78598a8b868a-light_flowchart-v2-crossEnd" class="marker cross flowchart-v2" viewBox="0 0 11 11" refX="12" refY="5.2" markerUnits="userSpaceOnUse" markerWidth="11" markerHeight="11" orient="auto"><path d="M 1,1 l 9,9 M 10,1 l -9,9" class="arrowMarkerPath" style="stroke-width: 2; stroke-dasharray: 1, 0;"></path></marker><marker id="g31f748ba-6d59-452b-adf0-78598a8b868a-light_flowchart-v2-crossStart" class="marker cross flowchart-v2" viewBox="0 0 11 11" refX="-1" refY="5.2" markerUnits="userSpaceOnUse" markerWidth="11" markerHeight="11" orient="auto"><path d="M 1,1 l 9,9 M 10,1 l -9,9" class="arrowMarkerPath" style="stroke-width: 2; stroke-dasharray: 1, 0;"></path></marker><marker id="g31f748ba-6d59-452b-adf0-78598a8b868a-light_flowchart-v2-crossEnd-margin" class="marker cross flowchart-v2" viewBox="0 0 15 15" refX="17.7" refY="7.5" markerUnits="userSpaceOnUse" markerWidth="12" markerHeight="12" orient="auto"><path d="M 1,1 L 14,14 M 1,14 L 14,1" class="arrowMarkerPath" style="stroke-width: 2.5;"></path></marker><marker id="g31f748ba-6d59-452b-adf0-78598a8b868a-light_flowchart-v2-crossStart-margin" class="marker cross flowchart-v2" viewBox="0 0 15 15" refX="-3.5" refY="7.5" markerUnits="userSpaceOnUse" markerWidth="12" markerHeight="12" orient="auto"><path d="M 1,1 L 14,14 M 1,14 L 14,1" class="arrowMarkerPath" style="stroke-width: 2.5; stroke-dasharray: 1, 0;"></path></marker><g class="root"><g class="clusters"></g><g class="edgePaths"><path d="M419.57,42.5L419.487,46.583C419.404,50.667,419.237,58.833,419.154,66.417C419.07,74,419.07,81,419.07,84.5L419.07,88" id="g31f748ba-6d59-452b-adf0-78598a8b868a-light-L_Start_Q1_0" class="edge-thickness-normal edge-pattern-solid edge-thickness-normal edge-pattern-solid flowchart-link" style=";" data-edge="true" data-et="edge" data-id="L_Start_Q1_0" data-points="W3sieCI6NDE5LjU3MDMxMjUsInkiOjQyLjV9LHsieCI6NDE5LjA3MDMxMjUsInkiOjY3fSx7IngiOjQxOS4wNzAzMTI1LCJ5Ijo5Mn1d" data-look="classic" marker-end="url(#g31f748ba-6d59-452b-adf0-78598a8b868a-light_flowchart-v2-pointEnd)"></path><path d="M358.93,206.125L319.776,223.699C280.623,241.272,202.315,276.419,163.162,312.833C124.008,349.246,124.008,386.927,124.008,405.767L124.008,424.608" id="g31f748ba-6d59-452b-adf0-78598a8b868a-light-L_Q1_SSR_0" class="edge-thickness-normal edge-pattern-solid edge-thickness-normal edge-pattern-solid flowchart-link" style=";" data-edge="true" data-et="edge" data-id="L_Q1_SSR_0" data-points="W3sieCI6MzU4LjkzMDE3ODEzNDk4MzksInkiOjIwNi4xMjU0OTA2MzQ5ODM5Mn0seyJ4IjoxMjQuMDA3ODEyNSwieSI6MzExLjU2NTYyNDIzNzA2MDU1fSx7IngiOjEyNC4wMDc4MTI1LCJ5Ijo0MjguNjA3ODE0Nzg4ODE4MzZ9XQ==" data-look="classic" marker-end="url(#g31f748ba-6d59-452b-adf0-78598a8b868a-light_flowchart-v2-pointEnd)"></path><path d="M419.07,266.266L419.07,273.816C419.07,281.366,419.07,296.466,419.07,322.856C419.07,349.246,419.07,386.927,419.07,405.767L419.07,424.608" id="g31f748ba-6d59-452b-adf0-78598a8b868a-light-L_Q1_PPR_0" class="edge-thickness-normal edge-pattern-solid edge-thickness-normal edge-pattern-solid flowchart-link" style=";" data-edge="true" data-et="edge" data-id="L_Q1_PPR_0" data-points="W3sieCI6NDE5LjA3MDMxMjUsInkiOjI2Ni4yNjU2MjUwMDAwMDAwNn0seyJ4Ijo0MTkuMDcwMzEyNSwieSI6MzExLjU2NTYyNDIzNzA2MDU1fSx7IngiOjQxOS4wNzAzMTI1LCJ5Ijo0MjguNjA3ODE0Nzg4ODE4MzZ9XQ==" data-look="classic" marker-end="url(#g31f748ba-6d59-452b-adf0-78598a8b868a-light_flowchart-v2-pointEnd)"></path><path d="M478.5,206.836L515.944,224.291C553.389,241.746,628.278,276.656,665.723,300.994C703.167,325.332,703.167,339.099,703.167,345.982L703.167,352.866" id="g31f748ba-6d59-452b-adf0-78598a8b868a-light-L_Q1_Q2_0" class="edge-thickness-normal edge-pattern-solid edge-thickness-normal edge-pattern-solid flowchart-link" style=";" data-edge="true" data-et="edge" data-id="L_Q1_Q2_0" data-points="W3sieCI6NDc4LjQ5OTgzMzY0NTcwNjUzLCJ5IjoyMDYuODM2MTAzODU0MjkzNH0seyJ4Ijo3MDMuMTY3MTkwNTUxNzU3OCwieSI6MzExLjU2NTYyNDIzNzA2MDU1fSx7IngiOjcwMy4xNjcxOTA1NTE3NTc4LCJ5IjozNTYuODY1NjIzNDc0MTIxMX1d" data-look="classic" marker-end="url(#g31f748ba-6d59-452b-adf0-78598a8b868a-light_flowchart-v2-pointEnd)"></path><path d="M635.919,499.702L605.152,516.993C574.385,534.285,512.85,568.867,482.083,592.708C451.316,616.549,451.316,629.648,451.316,636.197L451.316,642.747" id="g31f748ba-6d59-452b-adf0-78598a8b868a-light-L_Q2_Q3_0" class="edge-thickness-normal edge-pattern-solid edge-thickness-normal edge-pattern-solid flowchart-link" style=";" data-edge="true" data-et="edge" data-id="L_Q2_Q3_0" data-points="W3sieCI6NjM1LjkxODk0NDcwNzMzOTcsInkiOjQ5OS43MDE3NTg3MzMyMTg1fSx7IngiOjQ1MS4zMTU2MjgwNTE3NTc4LCJ5Ijo2MDMuNDUwMDA0NTc3NjM2N30seyJ4Ijo0NTEuMzE1NjI4MDUxNzU3OCwieSI6NjQ2Ljc0Njg3OTU3NzYzNjh9XQ==" data-look="classic" marker-end="url(#g31f748ba-6d59-452b-adf0-78598a8b868a-light_flowchart-v2-pointEnd)"></path><path d="M769.41,500.707L798.646,517.831C827.883,534.955,886.355,569.202,915.591,591.743C944.827,614.283,944.827,625.117,944.827,630.533L944.827,635.95" id="g31f748ba-6d59-452b-adf0-78598a8b868a-light-L_Q2_Q4_0" class="edge-thickness-normal edge-pattern-solid edge-thickness-normal edge-pattern-solid flowchart-link" style=";" data-edge="true" data-et="edge" data-id="L_Q2_Q4_0" data-points="W3sieCI6NzY5LjQxMDI5MjY0NTA1NTMsInkiOjUwMC43MDY5MDI0ODQzMzkxfSx7IngiOjk0NC44MjczNDY4MDE3NTc4LCJ5Ijo2MDMuNDUwMDA0NTc3NjM2N30seyJ4Ijo5NDQuODI3MzQ2ODAxNzU3OSwieSI6NjM5Ljk1MDAwNDU3NzYzNjd9XQ==" data-look="classic" marker-end="url(#g31f748ba-6d59-452b-adf0-78598a8b868a-light_flowchart-v2-pointEnd)"></path><path d="M406.63,797.536L394.279,812.2C381.928,826.864,357.225,856.191,344.874,876.272C332.523,896.352,332.523,907.185,332.523,912.602L332.523,918.019" id="g31f748ba-6d59-452b-adf0-78598a8b868a-light-L_Q3_ISR_0" class="edge-thickness-normal edge-pattern-solid edge-thickness-normal edge-pattern-solid flowchart-link" style=";" data-edge="true" data-et="edge" data-id="L_Q3_ISR_0" data-points="W3sieCI6NDA2LjYzMDA3NzA5Mzk5NDEsInkiOjc5Ny41MzYzMzQ3MjMzODg2fSx7IngiOjMzMi41MjI2NTkzMDE3NTc4LCJ5Ijo4ODUuNTE4NzYwNjgxMTUyM30seyJ4IjozMzIuNTIyNjU5MzAxNzU3OCwieSI6OTIyLjAxODc2MDY4MTE1MjN9XQ==" data-look="classic" marker-end="url(#g31f748ba-6d59-452b-adf0-78598a8b868a-light_flowchart-v2-pointEnd)"></path><path d="M496.001,797.536L508.352,812.2C520.704,826.864,545.406,856.191,557.757,876.272C570.109,896.352,570.109,907.185,570.109,912.602L570.109,918.019" id="g31f748ba-6d59-452b-adf0-78598a8b868a-light-L_Q3_SSRC_0" class="edge-thickness-normal edge-pattern-solid edge-thickness-normal edge-pattern-solid flowchart-link" style=";" data-edge="true" data-et="edge" data-id="L_Q3_SSRC_0" data-points="W3sieCI6NDk2LjAwMTE3OTAwOTUyMTU0LCJ5Ijo3OTcuNTM2MzM0NzIzMzg4NH0seyJ4Ijo1NzAuMTA4NTk2ODAxNzU3OCwieSI6ODg1LjUxODc2MDY4MTE1MjN9LHsieCI6NTcwLjEwODU5NjgwMTc1NzgsInkiOjkyMi4wMTg3NjA2ODExNTIzfV0=" data-look="classic" marker-end="url(#g31f748ba-6d59-452b-adf0-78598a8b868a-light_flowchart-v2-pointEnd)"></path><path d="M894.893,799.084L881.718,813.49C868.543,827.896,842.193,856.707,829.018,876.53C815.843,896.352,815.843,907.185,815.843,912.602L815.843,918.019" id="g31f748ba-6d59-452b-adf0-78598a8b868a-light-L_Q4_SSG_0" class="edge-thickness-normal edge-pattern-solid edge-thickness-normal edge-pattern-solid flowchart-link" style=";" data-edge="true" data-et="edge" data-id="L_Q4_SSG_0" data-points="W3sieCI6ODk0Ljg5MjY2MTY0ODg1MjMsInkiOjc5OS4wODQwNzU1MjgyNDY4fSx7IngiOjgxNS44NDI5NzE4MDE3NTc4LCJ5Ijo4ODUuNTE4NzYwNjgxMTUyM30seyJ4Ijo4MTUuODQyOTcxODAxNzU3OCwieSI6OTIyLjAxODc2MDY4MTE1MjN9XQ==" data-look="classic" marker-end="url(#g31f748ba-6d59-452b-adf0-78598a8b868a-light_flowchart-v2-pointEnd)"></path><path d="M994.762,799.084L1007.937,813.49C1021.112,827.896,1047.462,856.707,1060.637,876.53C1073.812,896.352,1073.812,907.185,1073.812,912.602L1073.812,918.019" id="g31f748ba-6d59-452b-adf0-78598a8b868a-light-L_Q4_ISRB_0" class="edge-thickness-normal edge-pattern-solid edge-thickness-normal edge-pattern-solid flowchart-link" style=";" data-edge="true" data-et="edge" data-id="L_Q4_ISRB_0" data-points="W3sieCI6OTk0Ljc2MjAzMTk1NDY2MzUsInkiOjc5OS4wODQwNzU1MjgyNDY4fSx7IngiOjEwNzMuODExNzIxODAxNzU3OCwieSI6ODg1LjUxODc2MDY4MTE1MjN9LHsieCI6MTA3My44MTE3MjE4MDE3NTc4LCJ5Ijo5MjIuMDE4NzYwNjgxMTUyM31d" data-look="classic" marker-end="url(#g31f748ba-6d59-452b-adf0-78598a8b868a-light_flowchart-v2-pointEnd)"></path></g><g class="edgeLabels"><g class="edgeLabel"><g class="label" data-id="L_Start_Q1_0" transform="translate(0, 0)"><text y="-10.1" text-anchor="middle"><tspan class="text-outer-tspan row" x="0" y="-0.1em" dy="1.1em" text-anchor="middle"></tspan></text></g></g><g><rect class="background" style="stroke: none"></rect></g><g class="edgeLabel" transform="translate(124.0078125, 311.56562423706055)"><g class="label" data-id="L_Q1_SSR_0" transform="translate(0, -10.5)"><g><rect class="background" style="" x="-43.65625" y="-1" width="87.3125" height="23"></rect><text y="-10.1" text-anchor="middle" style=""><tspan class="text-outer-tspan row" x="0" y="-0.1em" dy="1.1em" text-anchor="middle"><tspan font-style="normal" class="text-inner-tspan" font-weight="normal">Whole</tspan><tspan font-style="normal" class="text-inner-tspan" font-weight="normal"> page</tspan></tspan></text></g></g></g><g class="edgeLabel" transform="translate(419.0703125, 311.56562423706055)"><g class="label" data-id="L_Q1_PPR_0" transform="translate(0, -19.299999237060547)"><g><rect class="background" style="" x="-39.015625" y="-1" width="78.03125" height="40.599998474121094"></rect><text y="-10.1" text-anchor="middle" style=""><tspan class="text-outer-tspan row" x="0" y="-0.1em" dy="1.1em" text-anchor="middle"><tspan font-style="normal" class="text-inner-tspan" font-weight="normal">Only</tspan><tspan font-style="normal" class="text-inner-tspan" font-weight="normal"> some</tspan></tspan><tspan class="text-outer-tspan row" x="0" y="1em" dy="1.1em" text-anchor="middle"><tspan font-style="normal" class="text-inner-tspan" font-weight="normal">regions</tspan></tspan></text></g></g></g><g class="edgeLabel" transform="translate(703.1671905517578, 311.56562423706055)"><g class="label" data-id="L_Q1_Q2_0" transform="translate(0, -10.5)"><g><rect class="background" style="" x="-11.3984375" y="-1" width="22.796875" height="23"></rect><text y="-10.1" text-anchor="middle" style=""><tspan class="text-outer-tspan row" x="0" y="-0.1em" dy="1.1em" text-anchor="middle"><tspan font-style="normal" class="text-inner-tspan" font-weight="normal">No</tspan></tspan></text></g></g></g><g class="edgeLabel" transform="translate(451.3156280517578, 603.4500045776367)"><g class="label" data-id="L_Q2_Q3_0" transform="translate(0, -10.5)"><g><rect class="background" style="" x="-13.328125" y="-1" width="26.65625" height="23"></rect><text y="-10.1" text-anchor="middle" style=""><tspan class="text-outer-tspan row" x="0" y="-0.1em" dy="1.1em" text-anchor="middle"><tspan font-style="normal" class="text-inner-tspan" font-weight="normal">Yes</tspan></tspan></text></g></g></g><g class="edgeLabel" transform="translate(944.8273468017578, 603.4500045776367)"><g class="label" data-id="L_Q2_Q4_0" transform="translate(0, -10.5)"><g><rect class="background" style="" x="-11.3984375" y="-1" width="22.796875" height="23"></rect><text y="-10.1" text-anchor="middle" style=""><tspan class="text-outer-tspan row" x="0" y="-0.1em" dy="1.1em" text-anchor="middle"><tspan font-style="normal" class="text-inner-tspan" font-weight="normal">No</tspan></tspan></text></g></g></g><g class="edgeLabel" transform="translate(332.5226593017578, 885.5187606811523)"><g class="label" data-id="L_Q3_ISR_0" transform="translate(0, -10.5)"><g><rect class="background" style="" x="-13.328125" y="-1" width="26.65625" height="23"></rect><text y="-10.1" text-anchor="middle" style=""><tspan class="text-outer-tspan row" x="0" y="-0.1em" dy="1.1em" text-anchor="middle"><tspan font-style="normal" class="text-inner-tspan" font-weight="normal">Yes</tspan></tspan></text></g></g></g><g class="edgeLabel" transform="translate(570.1085968017578, 885.5187606811523)"><g class="label" data-id="L_Q3_SSRC_0" transform="translate(0, -10.5)"><g><rect class="background" style="" x="-11.3984375" y="-1" width="22.796875" height="23"></rect><text y="-10.1" text-anchor="middle" style=""><tspan class="text-outer-tspan row" x="0" y="-0.1em" dy="1.1em" text-anchor="middle"><tspan font-style="normal" class="text-inner-tspan" font-weight="normal">No</tspan></tspan></text></g></g></g><g class="edgeLabel" transform="translate(815.8429718017578, 885.5187606811523)"><g class="label" data-id="L_Q4_SSG_0" transform="translate(0, -10.5)"><g><rect class="background" style="" x="-13.328125" y="-1" width="26.65625" height="23"></rect><text y="-10.1" text-anchor="middle" style=""><tspan class="text-outer-tspan row" x="0" y="-0.1em" dy="1.1em" text-anchor="middle"><tspan font-style="normal" class="text-inner-tspan" font-weight="normal">Yes</tspan></tspan></text></g></g></g><g class="edgeLabel" transform="translate(1073.8117218017578, 885.5187606811523)"><g class="label" data-id="L_Q4_ISRB_0" transform="translate(0, -10.5)"><g><rect class="background" style="" x="-11.3984375" y="-1" width="22.796875" height="23"></rect><text y="-10.1" text-anchor="middle" style=""><tspan class="text-outer-tspan row" x="0" y="-0.1em" dy="1.1em" text-anchor="middle"><tspan font-style="normal" class="text-inner-tspan" font-weight="normal">No</tspan></tspan></text></g></g></g></g><g class="nodes"><g class="node default" id="g31f748ba-6d59-452b-adf0-78598a8b868a-light-flowchart-Start-0" data-look="classic" transform="translate(419.0703125, 25)"><g class="basic label-container outer-path"><path d="M-40.90625 -17 C-17.500001472629652 -17, 5.906247054740696 -17, 40.90625 -17 C40.90625 -17, 40.90625 -17, 40.90625 -17 C41.25137828943911 -16.98893240750915, 41.59650657887822 -16.9778648150183, 41.99544373967212 -16.965071676755716 C42.40527240955552 -16.925535997863154, 42.815101079438925 -16.88600031897059, 43.0801617486366 -16.860430234995185 C43.50791999535221 -16.791273598980954, 43.93567824206783 -16.72211696296672, 44.155946687923326 -16.686505668848113 C44.543656293716204 -16.598013481367513, 44.931365899509075 -16.50952129388691, 45.21837792646162 -16.4440126716635 C45.57865241573151 -16.33708509436758, 45.9389269050014 -16.230157517071664, 46.26308970640155 -16.133947699181366 C46.65069513605298 -15.991305318084326, 47.038300565704404 -15.848662936987287, 47.28578908294936 -15.757584874882369 C47.58935127524385 -15.62320689720609, 47.89291346753834 -15.48882891952981, 48.28227356499849 -15.316470754341125 C48.48175025087262 -15.212403895091505, 48.681226936746754 -15.108337035841886, 49.24844838406694 -14.812417970097622 C49.457447587827424 -14.685721424562363, 49.66644679158791 -14.559024879027106, 50.180343320579325 -14.247497783161291 C50.369363880963036 -14.115645222805792, 50.55838444134675 -13.983792662450295, 51.074129018350675 -13.624031571755262 C51.25253431525814 -13.481758095035898, 51.430939612165595 -13.339484618316533, 51.9261327202324 -12.944581292275288 C52.14558588177004 -12.745279737379283, 52.36503904330767 -12.545978182483276, 52.73285336025927 -12.21193895166137 C52.97132134099068 -11.965701182970863, 53.209789321722084 -11.719463414280353, 53.49097595028036 -11.42911513444239 C53.754135915640994 -11.119992464903556, 54.01729588100163 -10.810869795364724, 54.19738520195651 -10.59932663159847 C54.368358877427724 -10.370237482489307, 54.53933255289894 -10.141148333380142, 54.84917832814825 -9.725983222076888 C55.01838034216337 -9.466043491447108, 55.18758235617848 -9.206103760817328, 55.44367697109088 -8.812673661278927 C55.640319837270454 -8.463514340127688, 55.83696270345003 -8.114355018976447, 55.978438208341004 -7.863150934094199 C56.11419395067122 -7.581251230437934, 56.24994969300145 -7.299351526781668, 56.45126459126881 -6.881316833080699 C56.555731484109515 -6.623281588034187, 56.66019837695022 -6.3652463429876756, 56.860213174845924 -5.871205925162238 C56.94427078445433 -5.6180377977830425, 57.02832839406273 -5.364869670403846, 57.203603501623235 -4.836968972727556 C57.311242600205766 -4.42649443875194, 57.41888169878829 -4.016019904776323, 57.480024507091 -3.7828558772573464 C57.53067418400484 -3.5227804911177922, 57.58132386091868 -3.262705104978238, 57.68834031804565 -2.713198215567453 C57.72817681604114 -2.4042342037207143, 57.76801331403663 -2.0952701918739756, 57.827694920136366 -1.632391440430593 C57.84449079755696 -1.3707820922166905, 57.86128667497755 -1.1091727440027879, 57.8975156754117 -0.5448768187181379 C57.8975156754117 -0.31001149995466415, 57.8975156754117 -0.07514618119119043, 57.8975156754117 0.5448768187181336 C57.87014647612369 0.97117418964875, 57.8427772768357 1.3974715605793664, 57.827694920136366 1.6323914404305815 C57.77219998801918 2.0627991752176102, 57.716705055902004 2.493206910004639, 57.688340318045654 2.7131982155674415 C57.64488769987424 2.9363182261635616, 57.601435081702824 3.1594382367596823, 57.480024507091 3.782855877257343 C57.37870692546024 4.169223727333079, 57.27738934382948 4.555591577408816, 57.203603501623235 4.836968972727545 C57.10314223754808 5.139542293793194, 57.00268097347291 5.442115614858841, 56.860213174845924 5.871205925162227 C56.76828211130605 6.098277429471923, 56.67635104776617 6.325348933781621, 56.45126459126881 6.881316833080694 C56.27003673740459 7.2576403492846335, 56.08880888354037 7.633963865488572, 55.978438208341004 7.863150934094196 C55.81960679635363 8.145172189502263, 55.66077538436626 8.42719344491033, 55.44367697109089 8.812673661278923 C55.27337906823655 9.074296971453101, 55.103081165382214 9.335920281627281, 54.849178328148255 9.725983222076879 C54.71209995594773 9.909655752728977, 54.575021583747194 10.093328283381073, 54.19738520195651 10.599326631598467 C53.958289129245514 10.880182483556752, 53.71919305653452 11.161038335515036, 53.49097595028037 11.42911513444238 C53.240024094364074 11.6882435292065, 52.989072238447775 11.94737192397062, 52.73285336025927 12.211938951661365 C52.45828602582086 12.461293740144752, 52.18371869138245 12.710648528628138, 51.92613272023242 12.944581292275275 C51.6356276014248 13.176251393858468, 51.34512248261719 13.40792149544166, 51.074129018350675 13.62403157175526 C50.763224220345194 13.840905299992096, 50.45231942233972 14.057779028228932, 50.18034332057934 14.247497783161286 C49.960909843020985 14.380519646791413, 49.741476365462624 14.51354151042154, 49.24844838406695 14.81241797009762 C48.96493233885458 14.960328109284218, 48.681416293642215 15.108238248470814, 48.28227356499849 15.316470754341124 C48.028739546547826 15.428702743489792, 47.77520552809715 15.54093473263846, 47.285789082949364 15.757584874882367 C47.04350873353774 15.846746283080842, 46.80122838412612 15.935907691279318, 46.26308970640156 16.133947699181363 C45.87277442386873 16.249791226230382, 45.482459141335895 16.3656347532794, 45.21837792646164 16.444012671663497 C45.00404607211062 16.492932518773056, 44.789714217759595 16.54185236588262, 44.15594668792333 16.68650566884811 C43.85363954586979 16.735380343148424, 43.55133240381625 16.784255017448743, 43.08016174863661 16.86043023499518 C42.84709151574317 16.882914240054447, 42.614021282849734 16.905398245113712, 41.99544373967212 16.965071676755716 C41.73819032962547 16.973321292902526, 41.48093691957882 16.981570909049335, 40.90625 17 C40.90625 17, 40.90625 17, 40.90625 17 C15.01746080378079 17, -10.871328392438421 17, -40.90625 17 C-41.294361594258255 16.987554016585527, -41.68247318851651 16.975108033171054, -41.99544373967211 16.965071676755716 C-42.316062319244054 16.934141987984667, -42.63668089881599 16.90321229921362, -43.080161748636606 16.86043023499518 C-43.46153494619181 16.798772774007773, -43.842908143747024 16.737115313020368, -44.155946687923326 16.68650566884811 C-44.555109124748334 16.59539944742113, -44.95427156157335 16.50429322599415, -45.21837792646162 16.4440126716635 C-45.55265066626922 16.34480227712202, -45.88692340607683 16.24559188258054, -46.263089706401544 16.13394769918137 C-46.62143207544978 16.00207439489107, -46.97977444449803 15.87020109060077, -47.285789082949364 15.757584874882369 C-47.65478301862728 15.594242205373952, -48.0237769543052 15.430899535865533, -48.28227356499848 15.316470754341127 C-48.63734218178427 15.131231684396285, -48.992410798570056 14.945992614451445, -49.24844838406693 14.812417970097624 C-49.52605289823225 14.644132482225404, -49.80365741239757 14.475846994353182, -50.18034332057932 14.247497783161299 C-50.52735026644188 14.005440759416155, -50.87435721230444 13.76338373567101, -51.07412901835067 13.624031571755264 C-51.381979296437386 13.378529167221062, -51.6898295745241 13.13302676268686, -51.9261327202324 12.94458129227529 C-52.19401167849848 12.701300710066883, -52.46189063676455 12.458020127858477, -52.73285336025926 12.211938951661377 C-52.95114568649104 11.986534202693779, -53.169438012722814 11.761129453726182, -53.490975950280365 11.429115134442386 C-53.70376823417692 11.179157209553532, -53.91656051807347 10.929199284664678, -54.19738520195651 10.599326631598473 C-54.362555821514476 10.378013048743785, -54.52772644107245 10.156699465889096, -54.84917832814825 9.72598322207689 C-54.99421571344071 9.503166850276484, -55.13925309873317 9.280350478476077, -55.44367697109088 8.812673661278936 C-55.6395293718552 8.464917891515785, -55.83538177261951 8.117162121752635, -55.978438208341004 7.863150934094201 C-56.15833023040791 7.4896013011996, -56.33822225247482 7.116051668304999, -56.45126459126881 6.881316833080701 C-56.55800329002619 6.617670183497614, -56.664741988783575 6.354023533914527, -56.860213174845924 5.87120592516224 C-56.970147073320675 5.540102538544345, -57.08008097179543 5.208999151926451, -57.203603501623235 4.8369689727275516 C-57.30601726209165 4.446420917656909, -57.40843102256007 4.055872862586267, -57.480024507091 3.782855877257349 C-57.56022795199379 3.3710281386856096, -57.640431396896574 2.95920040011387, -57.68834031804565 2.713198215567455 C-57.73260323556636 2.3699037679785, -57.77686615308708 2.0266093203895457, -57.827694920136366 1.6323914404306026 C-57.85246238218293 1.2466182271198774, -57.87722984422949 0.8608450138091522, -57.8975156754117 0.54487681871814 C-57.8975156754117 0.2150822274929804, -57.8975156754117 -0.11471236373217919, -57.8975156754117 -0.5448768187181317 C-57.87347073622941 -0.9193961552078489, -57.84942579704712 -1.293915491697566, -57.827694920136366 -1.6323914404305793 C-57.788982111883946 -1.9326403365277094, -57.750269303631526 -2.2328892326248395, -57.688340318045654 -2.713198215567447 C-57.62260542056602 -3.050733021049891, -57.556870523086374 -3.3882678265323345, -57.480024507091 -3.782855877257341 C-57.369806206485144 -4.2031660263811235, -57.25958790587929 -4.623476175504906, -57.203603501623235 -4.836968972727544 C-57.090700799325916 -5.177013923444347, -56.977798097028604 -5.517058874161152, -56.86021317484593 -5.871205925162218 C-56.760810711598964 -6.1167319311981085, -56.661408248352004 -6.3622579372339985, -56.45126459126881 -6.881316833080692 C-56.3037323244704 -7.187670741772407, -56.156200057671995 -7.49402465046412, -55.978438208341004 -7.863150934094194 C-55.78125141776507 -8.213276048089487, -55.58406462718914 -8.563401162084778, -55.44367697109088 -8.812673661278929 C-55.23165584441086 -9.138395047503698, -55.01963471773084 -9.464116433728467, -54.84917832814825 -9.725983222076884 C-54.625678019272804 -10.025453274672966, -54.40217771039736 -10.32492332726905, -54.19738520195651 -10.599326631598467 C-54.04501585690107 -10.778308334361933, -53.892646511845626 -10.957290037125398, -53.49097595028037 -11.42911513444238 C-53.26871768216709 -11.658615044012516, -53.04645941405381 -11.888114953582651, -52.73285336025928 -12.21193895166136 C-52.44324550437478 -12.47495314377169, -52.15363764849028 -12.737967335882022, -51.92613272023242 -12.944581292275274 C-51.686873990263926 -13.135383762482943, -51.44761526029544 -13.326186232690613, -51.074129018350675 -13.624031571755259 C-50.824355113844575 -13.798263035000657, -50.574581209338476 -13.972494498246053, -50.18034332057934 -14.247497783161284 C-49.964000887280115 -14.378645837596531, -49.7476584539809 -14.509793892031777, -49.24844838406695 -14.812417970097618 C-48.98581747544873 -14.949432346900618, -48.723186566830506 -15.086446723703618, -48.28227356499849 -15.316470754341124 C-48.02746368159493 -15.429267531057247, -47.77265379819137 -15.542064307773373, -47.28578908294937 -15.757584874882365 C-47.01797450293656 -15.85614311597792, -46.75015992292375 -15.954701357073473, -46.263089706401566 -16.133947699181363 C-45.99369854003561 -16.21390158329569, -45.724307373669646 -16.29385546741002, -45.21837792646164 -16.444012671663494 C-44.89269733809904 -16.518347140692804, -44.567016749736446 -16.59268160972211, -44.15594668792333 -16.68650566884811 C-43.886373182312944 -16.73008822266144, -43.61679967670255 -16.773670776474766, -43.08016174863661 -16.86043023499518 C-42.71876484673049 -16.8952937594787, -42.35736794482436 -16.93015728396222, -41.99544373967212 -16.965071676755716 C-41.68627849452547 -16.974986004413925, -41.377113249378816 -16.984900332072137, -40.90625000000001 -17 C-40.90625000000001 -17, -40.90625 -17, -40.90625 -17" stroke="none" stroke-width="0" fill="#ECECFF" style=""></path><path d="M-40.90625 -17 C-17.65281741842607 -17, 5.600615163147857 -17, 40.90625 -17 M-40.90625 -17 C-13.206913308738152 -17, 14.492423382523697 -17, 40.90625 -17 M40.90625 -17 C40.90625 -17, 40.90625 -17, 40.90625 -17 M40.90625 -17 C40.90625 -17, 40.90625 -17, 40.90625 -17 M40.90625 -17 C41.174742956258775 -16.991389953482617, 41.443235912517544 -16.982779906965234, 41.99544373967212 -16.965071676755716 M40.90625 -17 C41.14596159427571 -16.99231291574189, 41.38567318855143 -16.984625831483783, 41.99544373967212 -16.965071676755716 M41.99544373967212 -16.965071676755716 C42.3304811732237 -16.932751018482463, 42.66551860677529 -16.900430360209207, 43.0801617486366 -16.860430234995185 M41.99544373967212 -16.965071676755716 C42.40985724539408 -16.92509370426388, 42.82427075111604 -16.885115731772043, 43.0801617486366 -16.860430234995185 M43.0801617486366 -16.860430234995185 C43.46537501939411 -16.798151940752643, 43.85058829015161 -16.7358736465101, 44.155946687923326 -16.686505668848113 M43.0801617486366 -16.860430234995185 C43.41593356255112 -16.80614525207079, 43.75170537646564 -16.751860269146402, 44.155946687923326 -16.686505668848113 M44.155946687923326 -16.686505668848113 C44.40186575126845 -16.630376247411448, 44.64778481461359 -16.574246825974786, 45.21837792646162 -16.4440126716635 M44.155946687923326 -16.686505668848113 C44.56167745566309 -16.593900268752208, 44.96740822340284 -16.501294868656302, 45.21837792646162 -16.4440126716635 M45.21837792646162 -16.4440126716635 C45.48542404681121 -16.364754784897432, 45.752470167160794 -16.285496898131367, 46.26308970640155 -16.133947699181366 M45.21837792646162 -16.4440126716635 C45.4926308553999 -16.362615841937618, 45.766883784338184 -16.281219012211736, 46.26308970640155 -16.133947699181366 M46.26308970640155 -16.133947699181366 C46.63859483173585 -15.995758341927015, 47.01409995707016 -15.857568984672664, 47.28578908294936 -15.757584874882369 M46.26308970640155 -16.133947699181366 C46.50891513609904 -16.043481668667326, 46.75474056579654 -15.953015638153287, 47.28578908294936 -15.757584874882369 M47.28578908294936 -15.757584874882369 C47.645635191187125 -15.598291677221049, 48.005481299424886 -15.438998479559729, 48.28227356499849 -15.316470754341125 M47.28578908294936 -15.757584874882369 C47.66847537769071 -15.58818100418597, 48.05116167243207 -15.418777133489568, 48.28227356499849 -15.316470754341125 M48.28227356499849 -15.316470754341125 C48.55976653460876 -15.171702849838177, 48.837259504219034 -15.026934945335228, 49.24844838406694 -14.812417970097622 M48.28227356499849 -15.316470754341125 C48.62671450133781 -15.136776138477853, 48.97115543767712 -14.957081522614581, 49.24844838406694 -14.812417970097622 M49.24844838406694 -14.812417970097622 C49.471676564365104 -14.677095735366473, 49.694904744663276 -14.541773500635326, 50.180343320579325 -14.247497783161291 M49.24844838406694 -14.812417970097622 C49.60909130528248 -14.593794111883705, 49.96973422649803 -14.375170253669788, 50.180343320579325 -14.247497783161291 M50.180343320579325 -14.247497783161291 C50.40734954929681 -14.089148064949233, 50.634355778014296 -13.930798346737173, 51.074129018350675 -13.624031571755262 M50.180343320579325 -14.247497783161291 C50.371947540901985 -14.11384297347722, 50.563551761224645 -13.98018816379315, 51.074129018350675 -13.624031571755262 M51.074129018350675 -13.624031571755262 C51.29998911830035 -13.443914152435076, 51.52584921825002 -13.26379673311489, 51.9261327202324 -12.944581292275288 M51.074129018350675 -13.624031571755262 C51.34042580390057 -13.411666971734297, 51.60672258945046 -13.199302371713332, 51.9261327202324 -12.944581292275288 M51.9261327202324 -12.944581292275288 C52.11579663957111 -12.77233353896419, 52.305460558909814 -12.600085785653095, 52.73285336025927 -12.21193895166137 M51.9261327202324 -12.944581292275288 C52.20558620356193 -12.690789032649404, 52.48503968689146 -12.43699677302352, 52.73285336025927 -12.21193895166137 M52.73285336025927 -12.21193895166137 C52.96488329096924 -11.97234899819173, 53.19691322167921 -11.73275904472209, 53.49097595028036 -11.42911513444239 M52.73285336025927 -12.21193895166137 C53.025914909938386 -11.90932884081698, 53.3189764596175 -11.606718729972592, 53.49097595028036 -11.42911513444239 M53.49097595028036 -11.42911513444239 C53.65291715828876 -11.23888977679995, 53.81485836629715 -11.048664419157511, 54.19738520195651 -10.59932663159847 M53.49097595028036 -11.42911513444239 C53.74286125661945 -11.133236320936538, 53.99474656295854 -10.837357507430688, 54.19738520195651 -10.59932663159847 M54.19738520195651 -10.59932663159847 C54.42986235871949 -10.28782842064075, 54.66233951548247 -9.976330209683029, 54.84917832814825 -9.725983222076888 M54.19738520195651 -10.59932663159847 C54.38081043530222 -10.353553529297733, 54.56423566864794 -10.107780426996996, 54.84917832814825 -9.725983222076888 M54.84917832814825 -9.725983222076888 C55.06015505657539 -9.401866312028742, 55.27113178500253 -9.077749401980597, 55.44367697109088 -8.812673661278927 M54.84917832814825 -9.725983222076888 C55.05461817438293 -9.4103724499374, 55.26005802061762 -9.094761677797914, 55.44367697109088 -8.812673661278927 M55.44367697109088 -8.812673661278927 C55.58992045854233 -8.553003540549966, 55.73616394599379 -8.293333419821003, 55.978438208341004 -7.863150934094199 M55.44367697109088 -8.812673661278927 C55.61201613454673 -8.51377043037435, 55.780355298002576 -8.214867199469772, 55.978438208341004 -7.863150934094199 M55.978438208341004 -7.863150934094199 C56.14241390272357 -7.52265189619099, 56.30638959710614 -7.182152858287781, 56.45126459126881 -6.881316833080699 M55.978438208341004 -7.863150934094199 C56.13777387380507 -7.532287015520973, 56.29710953926914 -7.201423096947747, 56.45126459126881 -6.881316833080699 M56.45126459126881 -6.881316833080699 C56.540599530654404 -6.6606578056247265, 56.62993447004 -6.439998778168754, 56.860213174845924 -5.871205925162238 M56.45126459126881 -6.881316833080699 C56.588284529488554 -6.542874936577636, 56.725304467708305 -6.204433040074575, 56.860213174845924 -5.871205925162238 M56.860213174845924 -5.871205925162238 C56.9574502907048 -5.578343224825783, 57.05468740656367 -5.285480524489327, 57.203603501623235 -4.836968972727556 M56.860213174845924 -5.871205925162238 C56.94903723895804 -5.603681996249255, 57.03786130307016 -5.336158067336272, 57.203603501623235 -4.836968972727556 M57.203603501623235 -4.836968972727556 C57.26485244670743 -4.603400199660801, 57.326101391791624 -4.369831426594047, 57.480024507091 -3.7828558772573464 M57.203603501623235 -4.836968972727556 C57.27766348598745 -4.554546154546528, 57.35172347035167 -4.2721233363655, 57.480024507091 -3.7828558772573464 M57.480024507091 -3.7828558772573464 C57.54233635860567 -3.4628976893440306, 57.604648210120324 -3.142939501430715, 57.68834031804565 -2.713198215567453 M57.480024507091 -3.7828558772573464 C57.5311284745412 -3.5204478052279167, 57.5822324419914 -3.258039733198487, 57.68834031804565 -2.713198215567453 M57.68834031804565 -2.713198215567453 C57.729281302182436 -2.3956680273142905, 57.770222286319225 -2.078137839061128, 57.827694920136366 -1.632391440430593 M57.68834031804565 -2.713198215567453 C57.743344275646216 -2.2865983821774214, 57.798348233246784 -1.8599985487873893, 57.827694920136366 -1.632391440430593 M57.827694920136366 -1.632391440430593 C57.84784917835084 -1.3184726005157468, 57.86800343656532 -1.0045537606009005, 57.8975156754117 -0.5448768187181379 M57.827694920136366 -1.632391440430593 C57.848493956876354 -1.30842965452505, 57.86929299361634 -0.9844678686195072, 57.8975156754117 -0.5448768187181379 M57.8975156754117 -0.5448768187181379 C57.8975156754117 -0.1246110819996799, 57.8975156754117 0.29565465471877805, 57.8975156754117 0.5448768187181336 M57.8975156754117 -0.5448768187181379 C57.8975156754117 -0.18869063886207948, 57.8975156754117 0.1674955409939789, 57.8975156754117 0.5448768187181336 M57.8975156754117 0.5448768187181336 C57.87648412330829 0.8724602190920238, 57.85545257120488 1.2000436194659139, 57.827694920136366 1.6323914404305815 M57.8975156754117 0.5448768187181336 C57.87432664306911 0.9060647153039223, 57.85113761072652 1.267252611889711, 57.827694920136366 1.6323914404305815 M57.827694920136366 1.6323914404305815 C57.788175336207416 1.9388975293589756, 57.748655752278474 2.24540361828737, 57.688340318045654 2.7131982155674415 M57.827694920136366 1.6323914404305815 C57.7974877736761 1.8666721033006277, 57.76728062721584 2.100952766170674, 57.688340318045654 2.7131982155674415 M57.688340318045654 2.7131982155674415 C57.60979082889294 3.1165332409262323, 57.53124133974022 3.5198682662850236, 57.480024507091 3.782855877257343 M57.688340318045654 2.7131982155674415 C57.61715612379734 3.0787140082477347, 57.54597192954903 3.444229800928028, 57.480024507091 3.782855877257343 M57.480024507091 3.782855877257343 C57.41747064199787 4.0214008758740745, 57.354916776904744 4.259945874490806, 57.203603501623235 4.836968972727545 M57.480024507091 3.782855877257343 C57.37580024737713 4.180308150626251, 57.271575987663255 4.5777604239951595, 57.203603501623235 4.836968972727545 M57.203603501623235 4.836968972727545 C57.07184866301742 5.2337935543255245, 56.940093824411605 5.630618135923504, 56.860213174845924 5.871205925162227 M57.203603501623235 4.836968972727545 C57.08107961356706 5.20599140202225, 56.958555725510884 5.575013831316955, 56.860213174845924 5.871205925162227 M56.860213174845924 5.871205925162227 C56.73059367217519 6.1913686027815515, 56.60097416950445 6.5115312804008765, 56.45126459126881 6.881316833080694 M56.860213174845924 5.871205925162227 C56.7751304130785 6.0813619916910655, 56.69004765131107 6.291518058219905, 56.45126459126881 6.881316833080694 M56.45126459126881 6.881316833080694 C56.29398062252021 7.207920359524988, 56.1366966537716 7.534523885969282, 55.978438208341004 7.863150934094196 M56.45126459126881 6.881316833080694 C56.32196038034865 7.149819793723312, 56.19265616942849 7.4183227543659305, 55.978438208341004 7.863150934094196 M55.978438208341004 7.863150934094196 C55.87081092342705 8.054254076903305, 55.7631836385131 8.245357219712416, 55.44367697109089 8.812673661278923 M55.978438208341004 7.863150934094196 C55.841162327913885 8.106898160482778, 55.70388644748677 8.35064538687136, 55.44367697109089 8.812673661278923 M55.44367697109089 8.812673661278923 C55.26892589522495 9.081138241043304, 55.09417481935902 9.349602820807684, 54.849178328148255 9.725983222076879 M55.44367697109089 8.812673661278923 C55.266263520143504 9.085228364116215, 55.08885006919613 9.357783066953509, 54.849178328148255 9.725983222076879 M54.849178328148255 9.725983222076879 C54.61975601396996 10.033388222272999, 54.39033369979167 10.34079322246912, 54.19738520195651 10.599326631598467 M54.849178328148255 9.725983222076879 C54.71094524841953 9.911202955620741, 54.5727121686908 10.096422689164603, 54.19738520195651 10.599326631598467 M54.19738520195651 10.599326631598467 C53.99211634549031 10.840447110532486, 53.786847489024105 11.081567589466502, 53.49097595028037 11.42911513444238 M54.19738520195651 10.599326631598467 C54.04330084134088 10.780322889226083, 53.88921648072525 10.961319146853697, 53.49097595028037 11.42911513444238 M53.49097595028037 11.42911513444238 C53.248799242960345 11.67918246782775, 53.006622535640325 11.92924980121312, 52.73285336025927 12.211938951661365 M53.49097595028037 11.42911513444238 C53.233091802696656 11.695401689504841, 52.97520765511294 11.961688244567302, 52.73285336025927 12.211938951661365 M52.73285336025927 12.211938951661365 C52.487569542411826 12.434699225176228, 52.24228572456438 12.657459498691091, 51.92613272023242 12.944581292275275 M52.73285336025927 12.211938951661365 C52.568853309917976 12.360879458177777, 52.40485325957668 12.50981996469419, 51.92613272023242 12.944581292275275 M51.92613272023242 12.944581292275275 C51.655125503388476 13.1607023359034, 51.384118286544535 13.376823379531526, 51.074129018350675 13.62403157175526 M51.92613272023242 12.944581292275275 C51.587582845448075 13.21456580822526, 51.24903297066373 13.484550324175244, 51.074129018350675 13.62403157175526 M51.074129018350675 13.62403157175526 C50.87817316204284 13.760721894323305, 50.68221730573501 13.89741221689135, 50.18034332057934 14.247497783161286 M51.074129018350675 13.62403157175526 C50.752995415730815 13.848040471293274, 50.431861813110956 14.072049370831287, 50.18034332057934 14.247497783161286 M50.18034332057934 14.247497783161286 C49.920733023939796 14.404875070623627, 49.661122727300246 14.562252358085965, 49.24844838406695 14.81241797009762 M50.18034332057934 14.247497783161286 C49.9168601298298 14.407222841792757, 49.65337693908025 14.56694790042423, 49.24844838406695 14.81241797009762 M49.24844838406695 14.81241797009762 C48.92278631442211 14.98231566323482, 48.59712424477727 15.15221335637202, 48.28227356499849 15.316470754341124 M49.24844838406695 14.81241797009762 C48.90095741603467 14.993703785541468, 48.5534664480024 15.174989600985315, 48.28227356499849 15.316470754341124 M48.28227356499849 15.316470754341124 C48.0225240909683 15.431454141299907, 47.76277461693811 15.546437528258693, 47.285789082949364 15.757584874882367 M48.28227356499849 15.316470754341124 C47.98860559217321 15.446468854559976, 47.69493761934793 15.576466954778827, 47.285789082949364 15.757584874882367 M47.285789082949364 15.757584874882367 C47.07833353570569 15.833930433966096, 46.87087798846201 15.910275993049826, 46.26308970640156 16.133947699181363 M47.285789082949364 15.757584874882367 C46.952188790539346 15.880352866256551, 46.618588498129334 16.003120857630734, 46.26308970640156 16.133947699181363 M46.26308970640156 16.133947699181363 C45.925797138819505 16.2340543627549, 45.58850457123744 16.33416102632844, 45.21837792646164 16.444012671663497 M46.26308970640156 16.133947699181363 C45.96437033999788 16.222606039120024, 45.665650973594204 16.311264379058684, 45.21837792646164 16.444012671663497 M45.21837792646164 16.444012671663497 C44.990136129571766 16.496107372386692, 44.7618943326819 16.548202073109888, 44.15594668792333 16.68650566884811 M45.21837792646164 16.444012671663497 C44.89929297520552 16.516841729563804, 44.5802080239494 16.58967078746411, 44.15594668792333 16.68650566884811 M44.15594668792333 16.68650566884811 C43.88789878826233 16.72984157452279, 43.619850888601334 16.773177480197475, 43.08016174863661 16.86043023499518 M44.15594668792333 16.68650566884811 C43.932069024185125 16.72270047332409, 43.708191360446925 16.75889527780007, 43.08016174863661 16.86043023499518 M43.08016174863661 16.86043023499518 C42.718378560579325 16.895331024039127, 42.356595372522044 16.93023181308307, 41.99544373967212 16.965071676755716 M43.08016174863661 16.86043023499518 C42.810574091125844 16.88643703208865, 42.540986433615075 16.91244382918212, 41.99544373967212 16.965071676755716 M41.99544373967212 16.965071676755716 C41.586945466985256 16.97817142126713, 41.17844719429839 16.99127116577855, 40.90625 17 M41.99544373967212 16.965071676755716 C41.76253643617418 16.97254056065233, 41.52962913267624 16.980009444548944, 40.90625 17 M40.90625 17 C40.90625 17, 40.90625 17, 40.90625 17 M40.90625 17 C40.90625 17, 40.90625 17, 40.90625 17 M40.90625 17 C13.07990989865186 17, -14.746430202696281 17, -40.90625 17 M40.90625 17 C21.239219510385556 17, 1.5721890207711127 17, -40.90625 17 M-40.90625 17 C-41.322644547039374 16.986647037339264, -41.73903909407874 16.97329407467853, -41.99544373967211 16.965071676755716 M-40.90625 17 C-41.29447723826409 16.98755030810735, -41.682704476528194 16.975100616214696, -41.99544373967211 16.965071676755716 M-41.99544373967211 16.965071676755716 C-42.317764550932864 16.933977775740882, -42.640085362193616 16.902883874726047, -43.080161748636606 16.86043023499518 M-41.99544373967211 16.965071676755716 C-42.40985770687909 16.925093659744974, -42.82427167408607 16.88511564273423, -43.080161748636606 16.86043023499518 M-43.080161748636606 16.86043023499518 C-43.3633705934374 16.81464322528518, -43.646579438238206 16.768856215575184, -44.155946687923326 16.68650566884811 M-43.080161748636606 16.86043023499518 C-43.30096303762868 16.82473279493051, -43.52176432662075 16.789035354865845, -44.155946687923326 16.68650566884811 M-44.155946687923326 16.68650566884811 C-44.57451919940291 16.590969224543798, -44.99309171088249 16.49543278023949, -45.21837792646162 16.4440126716635 M-44.155946687923326 16.68650566884811 C-44.41168286515868 16.628135555228656, -44.66741904239404 16.569765441609206, -45.21837792646162 16.4440126716635 M-45.21837792646162 16.4440126716635 C-45.50226149136514 16.35975751973538, -45.78614505626866 16.275502367807253, -46.263089706401544 16.13394769918137 M-45.21837792646162 16.4440126716635 C-45.448439996954804 16.375731456761574, -45.678502067447994 16.307450241859648, -46.263089706401544 16.13394769918137 M-46.263089706401544 16.13394769918137 C-46.487211801994015 16.0514686962414, -46.71133389758648 15.968989693301433, -47.285789082949364 15.757584874882369 M-46.263089706401544 16.13394769918137 C-46.51604072076666 16.04085938764146, -46.76899173513178 15.947771076101557, -47.285789082949364 15.757584874882369 M-47.285789082949364 15.757584874882369 C-47.55052796530494 15.640392824863476, -47.81526684766052 15.523200774844582, -48.28227356499848 15.316470754341127 M-47.285789082949364 15.757584874882369 C-47.6533224433538 15.594888758721094, -48.02085580375824 15.432192642559821, -48.28227356499848 15.316470754341127 M-48.28227356499848 15.316470754341127 C-48.56231286023615 15.170374433389368, -48.84235215547381 15.024278112437607, -49.24844838406693 14.812417970097624 M-48.28227356499848 15.316470754341127 C-48.6507923824979 15.12421472329925, -49.01931119999731 14.931958692257375, -49.24844838406693 14.812417970097624 M-49.24844838406693 14.812417970097624 C-49.60987259269181 14.593320490864818, -49.97129680131669 14.374223011632012, -50.18034332057932 14.247497783161299 M-49.24844838406693 14.812417970097624 C-49.57866565683857 14.612238318771366, -49.90888292961019 14.412058667445109, -50.18034332057932 14.247497783161299 M-50.18034332057932 14.247497783161299 C-50.52669709033188 14.005896386794953, -50.87305086008444 13.764294990428606, -51.07412901835067 13.624031571755264 M-50.18034332057932 14.247497783161299 C-50.43156706946553 14.072254971239087, -50.68279081835174 13.897012159316875, -51.07412901835067 13.624031571755264 M-51.07412901835067 13.624031571755264 C-51.342074378615244 13.410352277269755, -51.61001973887983 13.196672982784246, -51.9261327202324 12.94458129227529 M-51.07412901835067 13.624031571755264 C-51.40745516705483 13.358212838345041, -51.74078131575899 13.092394104934817, -51.9261327202324 12.94458129227529 M-51.9261327202324 12.94458129227529 C-52.23057590397942 12.668094047921484, -52.53501908772643 12.39160680356768, -52.73285336025926 12.211938951661377 M-51.9261327202324 12.94458129227529 C-52.13975487700252 12.75057530162921, -52.35337703377264 12.55656931098313, -52.73285336025926 12.211938951661377 M-52.73285336025926 12.211938951661377 C-52.99724966935487 11.938928055179483, -53.26164597845048 11.665917158697589, -53.490975950280365 11.429115134442386 M-52.73285336025926 12.211938951661377 C-52.91255958658362 12.02637751882591, -53.092265812907975 11.840816085990443, -53.490975950280365 11.429115134442386 M-53.490975950280365 11.429115134442386 C-53.65237749723235 11.239523693384395, -53.81377904418433 11.049932252326403, -54.19738520195651 10.599326631598473 M-53.490975950280365 11.429115134442386 C-53.77046412391216 11.100812422366873, -54.04995229754396 10.772509710291363, -54.19738520195651 10.599326631598473 M-54.19738520195651 10.599326631598473 C-54.36162187798343 10.379264447991387, -54.52585855401035 10.159202264384302, -54.84917832814825 9.72598322207689 M-54.19738520195651 10.599326631598473 C-54.35150474133036 10.392820489416387, -54.50562428070422 10.186314347234301, -54.84917832814825 9.72598322207689 M-54.84917832814825 9.72598322207689 C-54.97406909216931 9.534117470674657, -55.09895985619037 9.342251719272424, -55.44367697109088 8.812673661278936 M-54.84917832814825 9.72598322207689 C-55.0458744005191 9.4238052346243, -55.242570472889945 9.121627247171709, -55.44367697109088 8.812673661278936 M-55.44367697109088 8.812673661278936 C-55.56000798949712 8.606116158305683, -55.676339007903366 8.399558655332429, -55.978438208341004 7.863150934094201 M-55.44367697109088 8.812673661278936 C-55.641893317053224 8.46072046744128, -55.84010966301557 8.108767273603625, -55.978438208341004 7.863150934094201 M-55.978438208341004 7.863150934094201 C-56.103978277598905 7.602464294152993, -56.22951834685681 7.341777654211785, -56.45126459126881 6.881316833080701 M-55.978438208341004 7.863150934094201 C-56.10014281579452 7.610428712655534, -56.221847423248036 7.357706491216868, -56.45126459126881 6.881316833080701 M-56.45126459126881 6.881316833080701 C-56.53650667145046 6.670767246988524, -56.621748751632104 6.4602176608963475, -56.860213174845924 5.87120592516224 M-56.45126459126881 6.881316833080701 C-56.551460874798124 6.63383007559994, -56.65165715832744 6.386343318119179, -56.860213174845924 5.87120592516224 M-56.860213174845924 5.87120592516224 C-56.969682774648454 5.541500932169123, -57.07915237445099 5.211795939176007, -57.203603501623235 4.8369689727275516 M-56.860213174845924 5.87120592516224 C-56.93227836982256 5.6541570399221435, -57.0043435647992 5.437108154682046, -57.203603501623235 4.8369689727275516 M-57.203603501623235 4.8369689727275516 C-57.293088550495554 4.495723698311883, -57.38257359936787 4.154478423896214, -57.480024507091 3.782855877257349 M-57.203603501623235 4.8369689727275516 C-57.28444255822908 4.528694614020694, -57.36528161483493 4.220420255313835, -57.480024507091 3.782855877257349 M-57.480024507091 3.782855877257349 C-57.539952400111886 3.4751388123597877, -57.59988029313276 3.167421747462227, -57.68834031804565 2.713198215567455 M-57.480024507091 3.782855877257349 C-57.556486900917506 3.390237645290893, -57.63294929474401 2.9976194133244376, -57.68834031804565 2.713198215567455 M-57.68834031804565 2.713198215567455 C-57.7434723085007 2.2856053846410007, -57.79860429895575 1.8580125537145462, -57.827694920136366 1.6323914404306026 M-57.68834031804565 2.713198215567455 C-57.72404272701304 2.4362973818544287, -57.75974513598044 2.1593965481414017, -57.827694920136366 1.6323914404306026 M-57.827694920136366 1.6323914404306026 C-57.85255998713827 1.2450979511550935, -57.87742505414018 0.8578044618795844, -57.8975156754117 0.54487681871814 M-57.827694920136366 1.6323914404306026 C-57.85414032504981 1.220482912557099, -57.88058572996326 0.8085743846835954, -57.8975156754117 0.54487681871814 M-57.8975156754117 0.54487681871814 C-57.8975156754117 0.17282554640023123, -57.8975156754117 -0.1992257259176775, -57.8975156754117 -0.5448768187181317 M-57.8975156754117 0.54487681871814 C-57.8975156754117 0.11686063013503556, -57.8975156754117 -0.31115555844806886, -57.8975156754117 -0.5448768187181317 M-57.8975156754117 -0.5448768187181317 C-57.88085442434002 -0.8043892528792549, -57.86419317326835 -1.0639016870403784, -57.827694920136366 -1.6323914404305793 M-57.8975156754117 -0.5448768187181317 C-57.875597289596826 -0.8862733699873561, -57.85367890378195 -1.2276699212565805, -57.827694920136366 -1.6323914404305793 M-57.827694920136366 -1.6323914404305793 C-57.7854250025001 -1.9602285744781367, -57.74315508486383 -2.288065708525694, -57.688340318045654 -2.713198215567447 M-57.827694920136366 -1.6323914404305793 C-57.79598602870035 -1.878319340779489, -57.76427713726433 -2.1242472411283986, -57.688340318045654 -2.713198215567447 M-57.688340318045654 -2.713198215567447 C-57.64161738662069 -2.9531105935395825, -57.59489445519573 -3.193022971511718, -57.480024507091 -3.782855877257341 M-57.688340318045654 -2.713198215567447 C-57.628217973466896 -3.0219137481173264, -57.568095628888145 -3.330629280667206, -57.480024507091 -3.782855877257341 M-57.480024507091 -3.782855877257341 C-57.40264844990587 -4.077924318299577, -57.325272392720734 -4.372992759341813, -57.203603501623235 -4.836968972727544 M-57.480024507091 -3.782855877257341 C-57.37143157063806 -4.196967808428786, -57.262838634185115 -4.611079739600231, -57.203603501623235 -4.836968972727544 M-57.203603501623235 -4.836968972727544 C-57.078011934102854 -5.215230763800088, -56.95242036658248 -5.593492554872633, -56.86021317484593 -5.871205925162218 M-57.203603501623235 -4.836968972727544 C-57.13377502779461 -5.047281210242946, -57.06394655396599 -5.257593447758348, -56.86021317484593 -5.871205925162218 M-56.86021317484593 -5.871205925162218 C-56.735682479015196 -6.178799151501339, -56.61115178318447 -6.486392377840461, -56.45126459126881 -6.881316833080692 M-56.86021317484593 -5.871205925162218 C-56.7533306478898 -6.135207833176953, -56.64644812093366 -6.399209741191688, -56.45126459126881 -6.881316833080692 M-56.45126459126881 -6.881316833080692 C-56.34288529417908 -7.106368762432996, -56.23450599708934 -7.3314206917853, -55.978438208341004 -7.863150934094194 M-56.45126459126881 -6.881316833080692 C-56.325378897740734 -7.142721169214086, -56.199493204212665 -7.40412550534748, -55.978438208341004 -7.863150934094194 M-55.978438208341004 -7.863150934094194 C-55.8376243272556 -8.113180238912978, -55.69681044617019 -8.363209543731763, -55.44367697109088 -8.812673661278929 M-55.978438208341004 -7.863150934094194 C-55.8148033711196 -8.153701157404827, -55.65116853389821 -8.444251380715459, -55.44367697109088 -8.812673661278929 M-55.44367697109088 -8.812673661278929 C-55.29391464030866 -9.04274881817712, -55.14415230952644 -9.27282397507531, -54.84917832814825 -9.725983222076884 M-55.44367697109088 -8.812673661278929 C-55.248106604534414 -9.113122262306291, -55.052536237977954 -9.413570863333653, -54.84917832814825 -9.725983222076884 M-54.84917832814825 -9.725983222076884 C-54.71293961815964 -9.908530681859814, -54.57670090817103 -10.091078141642742, -54.19738520195651 -10.599326631598467 M-54.84917832814825 -9.725983222076884 C-54.68949617476893 -9.939942760261738, -54.5298140213896 -10.153902298446594, -54.19738520195651 -10.599326631598467 M-54.19738520195651 -10.599326631598467 C-53.92692715766783 -10.91702203991863, -53.65646911337916 -11.234717448238793, -53.49097595028037 -11.42911513444238 M-54.19738520195651 -10.599326631598467 C-53.986407296935894 -10.84715328381856, -53.77542939191529 -11.094979936038653, -53.49097595028037 -11.42911513444238 M-53.49097595028037 -11.42911513444238 C-53.29380100478533 -11.6327144540301, -53.09662605929028 -11.836313773617821, -52.73285336025928 -12.21193895166136 M-53.49097595028037 -11.42911513444238 C-53.24294852230281 -11.685223817259756, -52.99492109432525 -11.94133250007713, -52.73285336025928 -12.21193895166136 M-52.73285336025928 -12.21193895166136 C-52.437016166363506 -12.480610463734278, -52.141178972467735 -12.749281975807198, -51.92613272023242 -12.944581292275274 M-52.73285336025928 -12.21193895166136 C-52.43283957471903 -12.484403533759227, -52.132825789178796 -12.756868115857095, -51.92613272023242 -12.944581292275274 M-51.92613272023242 -12.944581292275274 C-51.61793104607509 -13.190363925824748, -51.30972937191776 -13.436146559374222, -51.074129018350675 -13.624031571755259 M-51.92613272023242 -12.944581292275274 C-51.67032071114022 -13.148584562082842, -51.41450870204803 -13.35258783189041, -51.074129018350675 -13.624031571755259 M-51.074129018350675 -13.624031571755259 C-50.76043312000682 -13.842852250763357, -50.44673722166297 -14.061672929771458, -50.18034332057934 -14.247497783161284 M-51.074129018350675 -13.624031571755259 C-50.85689725242263 -13.775563047855083, -50.63966548649457 -13.927094523954908, -50.18034332057934 -14.247497783161284 M-50.18034332057934 -14.247497783161284 C-49.83723392473577 -14.455492715256275, -49.4941245288922 -14.663487647351268, -49.24844838406695 -14.812417970097618 M-50.18034332057934 -14.247497783161284 C-49.954205124903226 -14.384584086315693, -49.72806692922711 -14.5216703894701, -49.24844838406695 -14.812417970097618 M-49.24844838406695 -14.812417970097618 C-48.88092277774964 -15.00415584350197, -48.51339717143234 -15.195893716906323, -48.28227356499849 -15.316470754341124 M-49.24844838406695 -14.812417970097618 C-48.93009050379695 -14.978505072316525, -48.61173262352694 -15.144592174535429, -48.28227356499849 -15.316470754341124 M-48.28227356499849 -15.316470754341124 C-48.04777159383629 -15.420277820720813, -47.813269622674085 -15.524084887100502, -47.28578908294937 -15.757584874882365 M-48.28227356499849 -15.316470754341124 C-47.97332862614335 -15.4532315142463, -47.66438368728821 -15.589992274151475, -47.28578908294937 -15.757584874882365 M-47.28578908294937 -15.757584874882365 C-46.97064237341897 -15.873561777173801, -46.655495663888566 -15.989538679465237, -46.263089706401566 -16.133947699181363 M-47.28578908294937 -15.757584874882365 C-46.90424719170853 -15.897995817793575, -46.522705300467685 -16.038406760704785, -46.263089706401566 -16.133947699181363 M-46.263089706401566 -16.133947699181363 C-45.95785945181974 -16.224538436554944, -45.65262919723792 -16.31512917392853, -45.21837792646164 -16.444012671663494 M-46.263089706401566 -16.133947699181363 C-45.92573514321589 -16.234072762724633, -45.588380580030204 -16.334197826267907, -45.21837792646164 -16.444012671663494 M-45.21837792646164 -16.444012671663494 C-44.9448673530114 -16.50643967523022, -44.67135677956116 -16.568866678796947, -44.15594668792333 -16.68650566884811 M-45.21837792646164 -16.444012671663494 C-44.8489006105756 -16.52834345794967, -44.47942329468955 -16.61267424423585, -44.15594668792333 -16.68650566884811 M-44.15594668792333 -16.68650566884811 C-43.75218054984083 -16.751783446800122, -43.348414411758334 -16.817061224752134, -43.08016174863661 -16.86043023499518 M-44.15594668792333 -16.68650566884811 C-43.907692206716106 -16.726641528127438, -43.65943772550889 -16.766777387406766, -43.08016174863661 -16.86043023499518 M-43.08016174863661 -16.86043023499518 C-42.77896723046719 -16.88948610792358, -42.477772712297764 -16.91854198085198, -41.99544373967212 -16.965071676755716 M-43.08016174863661 -16.86043023499518 C-42.824497264335974 -16.885093880314134, -42.56883278003534 -16.90975752563309, -41.99544373967212 -16.965071676755716 M-41.99544373967212 -16.965071676755716 C-41.70002208710579 -16.974545274150156, -41.40460043453946 -16.984018871544595, -40.90625000000001 -17 M-41.99544373967212 -16.965071676755716 C-41.66717473789036 -16.97559862470601, -41.33890573610861 -16.9861255726563, -40.90625000000001 -17 M-40.90625000000001 -17 C-40.90625000000001 -17, -40.90625 -17, -40.90625 -17 M-40.90625000000001 -17 C-40.90625000000001 -17, -40.90625 -17, -40.90625 -17" stroke="#9370DB" stroke-width="1.3" fill="none" stroke-dasharray="0 0" style=""></path></g><g class="label" style="" transform="translate(0, -9.5)"><rect></rect><g><rect class="background" style="stroke: none"></rect><text y="-10.1" style=""><tspan class="text-outer-tspan row" x="0" y="-0.1em" dy="1.1em"><tspan font-style="normal" class="text-inner-tspan" font-weight="normal">Page</tspan><tspan font-style="normal" class="text-inner-tspan" font-weight="normal"> request</tspan></tspan></text></g></g></g><g class="node default" id="g31f748ba-6d59-452b-adf0-78598a8b868a-light-flowchart-Q1-1" data-look="classic" transform="translate(419.0703125, 179.1328125)"><polygon points="87.1328125,0 174.265625,-87.1328125 87.1328125,-174.265625 0,-87.1328125" class="label-container" transform="translate(-86.6328125, 87.1328125)"></polygon><g class="label" style="" transform="translate(0, -9.5)"><rect></rect><g><rect class="background" style="stroke: none"></rect><text y="-10.1" style=""><tspan class="text-outer-tspan row" x="0" y="-0.1em" dy="1.1em"><tspan font-style="normal" class="text-inner-tspan" font-weight="normal">Per-user</tspan><tspan font-style="normal" class="text-inner-tspan" font-weight="normal"> content?</tspan></tspan></text></g></g></g><g class="node default" id="g31f748ba-6d59-452b-adf0-78598a8b868a-light-flowchart-SSR-3" data-look="classic" transform="translate(124.0078125, 461.9078140258789)"><rect class="basic label-container" style="" x="-116.0078125" y="-33.29999923706055" width="232.015625" height="66.5999984741211"></rect><g class="label" style="" transform="translate(0, -18.299999237060547)"><rect></rect><g><rect class="background" style="stroke: none"></rect><text y="-10.1" style=""><tspan class="text-outer-tspan row" x="0" y="-0.1em" dy="1.1em"><tspan font-style="normal" class="text-inner-tspan" font-weight="normal">SSR</tspan><tspan font-style="normal" class="text-inner-tspan" font-weight="normal"> no-cache</tspan></tspan><tspan class="text-outer-tspan row" x="0" y="1em" dy="1.1em"><tspan font-style="normal" class="text-inner-tspan" font-weight="normal">account,</tspan><tspan font-style="normal" class="text-inner-tspan" font-weight="normal"> cart,</tspan><tspan font-style="normal" class="text-inner-tspan" font-weight="normal"> checkout</tspan></tspan></text></g></g></g><g class="node default" id="g31f748ba-6d59-452b-adf0-78598a8b868a-light-flowchart-PPR-5" data-look="classic" transform="translate(419.0703125, 461.9078140258789)"><rect class="basic label-container" style="" x="-129.0546875" y="-33.29999923706055" width="258.109375" height="66.5999984741211"></rect><g class="label" style="" transform="translate(0, -18.299999237060547)"><rect></rect><g><rect class="background" style="stroke: none"></rect><text y="-10.1" style=""><tspan class="text-outer-tspan row" x="0" y="-0.1em" dy="1.1em"><tspan font-style="normal" class="text-inner-tspan" font-weight="normal">PPR</tspan><tspan font-style="normal" class="text-inner-tspan" font-weight="normal"> /</tspan><tspan font-style="normal" class="text-inner-tspan" font-weight="normal"> Cache</tspan><tspan font-style="normal" class="text-inner-tspan" font-weight="normal"> Components</tspan></tspan><tspan class="text-outer-tspan row" x="0" y="1em" dy="1.1em"><tspan font-style="normal" class="text-inner-tspan" font-weight="normal">static</tspan><tspan font-style="normal" class="text-inner-tspan" font-weight="normal"> shell</tspan><tspan font-style="normal" class="text-inner-tspan" font-weight="normal"> +</tspan><tspan font-style="normal" class="text-inner-tspan" font-weight="normal"> dynamic</tspan><tspan font-style="normal" class="text-inner-tspan" font-weight="normal"> holes</tspan></tspan></text></g></g></g><g class="node default" id="g31f748ba-6d59-452b-adf0-78598a8b868a-light-flowchart-Q2-7" data-look="classic" transform="translate(703.1671905517578, 461.9078140258789)"><polygon points="105.04218673706055,0 210.0843734741211,-105.04218673706055 105.04218673706055,-210.0843734741211 0,-105.04218673706055" class="label-container" transform="translate(-104.54218673706055, 105.04218673706055)"></polygon><g class="label" style="" transform="translate(0, -18.299999237060547)"><rect></rect><g><rect class="background" style="stroke: none"></rect><text y="-10.1" style=""><tspan class="text-outer-tspan row" x="0" y="-0.1em" dy="1.1em"><tspan font-style="normal" class="text-inner-tspan" font-weight="normal">Changes</tspan><tspan font-style="normal" class="text-inner-tspan" font-weight="normal"> more</tspan><tspan font-style="normal" class="text-inner-tspan" font-weight="normal"> often</tspan></tspan><tspan class="text-outer-tspan row" x="0" y="1em" dy="1.1em"><tspan font-style="normal" class="text-inner-tspan" font-weight="normal">than</tspan><tspan font-style="normal" class="text-inner-tspan" font-weight="normal"> once</tspan><tspan font-style="normal" class="text-inner-tspan" font-weight="normal"> an</tspan><tspan font-style="normal" class="text-inner-tspan" font-weight="normal"> hour?</tspan></tspan></text></g></g></g><g class="node default" id="g31f748ba-6d59-452b-adf0-78598a8b868a-light-flowchart-Q3-9" data-look="classic" transform="translate(451.3156280517578, 744.4843826293945)"><polygon points="97.73749923706055,0 195.4749984741211,-97.73749923706055 97.73749923706055,-195.4749984741211 0,-97.73749923706055" class="label-container" transform="translate(-97.23749923706055, 97.73749923706055)"></polygon><g class="label" style="" transform="translate(0, -18.299999237060547)"><rect></rect><g><rect class="background" style="stroke: none"></rect><text y="-10.1" style=""><tspan class="text-outer-tspan row" x="0" y="-0.1em" dy="1.1em"><tspan font-style="normal" class="text-inner-tspan" font-weight="normal">Tolerable</tspan><tspan font-style="normal" class="text-inner-tspan" font-weight="normal"> to</tspan><tspan font-style="normal" class="text-inner-tspan" font-weight="normal"> serve</tspan></tspan><tspan class="text-outer-tspan row" x="0" y="1em" dy="1.1em"><tspan font-style="normal" class="text-inner-tspan" font-weight="normal">stale</tspan><tspan font-style="normal" class="text-inner-tspan" font-weight="normal"> for</tspan><tspan font-style="normal" class="text-inner-tspan" font-weight="normal"> seconds?</tspan></tspan></text></g></g></g><g class="node default" id="g31f748ba-6d59-452b-adf0-78598a8b868a-light-flowchart-Q4-11" data-look="classic" transform="translate(944.8273468017578, 744.4843826293945)"><polygon points="104.53437423706055,0 209.0687484741211,-104.53437423706055 104.53437423706055,-209.0687484741211 0,-104.53437423706055" class="label-container" transform="translate(-104.03437423706055, 104.53437423706055)"></polygon><g class="label" style="" transform="translate(0, -18.299999237060547)"><rect></rect><g><rect class="background" style="stroke: none"></rect><text y="-10.1" style=""><tspan class="text-outer-tspan row" x="0" y="-0.1em" dy="1.1em"><tspan font-style="normal" class="text-inner-tspan" font-weight="normal">Total</tspan><tspan font-style="normal" class="text-inner-tspan" font-weight="normal"> page</tspan><tspan font-style="normal" class="text-inner-tspan" font-weight="normal"> count</tspan></tspan><tspan class="text-outer-tspan row" x="0" y="1em" dy="1.1em"><tspan font-style="normal" class="text-inner-tspan" font-weight="normal">fits</tspan><tspan font-style="normal" class="text-inner-tspan" font-weight="normal"> in</tspan><tspan font-style="normal" class="text-inner-tspan" font-weight="normal"> build</tspan><tspan font-style="normal" class="text-inner-tspan" font-weight="normal"> budget?</tspan></tspan></text></g></g></g><g class="node default" id="g31f748ba-6d59-452b-adf0-78598a8b868a-light-flowchart-ISR-13" data-look="classic" transform="translate(332.5226593017578, 955.3187599182129)"><rect class="basic label-container" style="" x="-101.1640625" y="-33.29999923706055" width="202.328125" height="66.5999984741211"></rect><g class="label" style="" transform="translate(0, -18.299999237060547)"><rect></rect><g><rect class="background" style="stroke: none"></rect><text y="-10.1" style=""><tspan class="text-outer-tspan row" x="0" y="-0.1em" dy="1.1em"><tspan font-style="normal" class="text-inner-tspan" font-weight="normal">ISR</tspan><tspan font-style="normal" class="text-inner-tspan" font-weight="normal"> /</tspan><tspan font-style="normal" class="text-inner-tspan" font-weight="normal"> SWR</tspan></tspan><tspan class="text-outer-tspan row" x="0" y="1em" dy="1.1em"><tspan font-style="normal" class="text-inner-tspan" font-weight="normal">PDP,</tspan><tspan font-style="normal" class="text-inner-tspan" font-weight="normal"> search,</tspan><tspan font-style="normal" class="text-inner-tspan" font-weight="normal"> listings</tspan></tspan></text></g></g></g><g class="node default" id="g31f748ba-6d59-452b-adf0-78598a8b868a-light-flowchart-SSRC-15" data-look="classic" transform="translate(570.1085968017578, 955.3187599182129)"><rect class="basic label-container" style="" x="-86.421875" y="-33.29999923706055" width="172.84375" height="66.5999984741211"></rect><g class="label" style="" transform="translate(0, -18.299999237060547)"><rect></rect><g><rect class="background" style="stroke: none"></rect><text y="-10.1" style=""><tspan class="text-outer-tspan row" x="0" y="-0.1em" dy="1.1em"><tspan font-style="normal" class="text-inner-tspan" font-weight="normal">SSR</tspan><tspan font-style="normal" class="text-inner-tspan" font-weight="normal"> +</tspan><tspan font-style="normal" class="text-inner-tspan" font-weight="normal"> tag-based</tspan></tspan><tspan class="text-outer-tspan row" x="0" y="1em" dy="1.1em"><tspan font-style="normal" class="text-inner-tspan" font-weight="normal">invalidation</tspan></tspan></text></g></g></g><g class="node default" id="g31f748ba-6d59-452b-adf0-78598a8b868a-light-flowchart-SSG-17" data-look="classic" transform="translate(815.8429718017578, 955.3187599182129)"><rect class="basic label-container" style="" x="-109.3125" y="-33.29999923706055" width="218.625" height="66.5999984741211"></rect><g class="label" style="" transform="translate(0, -18.299999237060547)"><rect></rect><g><rect class="background" style="stroke: none"></rect><text y="-10.1" style=""><tspan class="text-outer-tspan row" x="0" y="-0.1em" dy="1.1em"><tspan font-style="normal" class="text-inner-tspan" font-weight="normal">SSG</tspan></tspan><tspan class="text-outer-tspan row" x="0" y="1em" dy="1.1em"><tspan font-style="normal" class="text-inner-tspan" font-weight="normal">blog,</tspan><tspan font-style="normal" class="text-inner-tspan" font-weight="normal"> marketing,</tspan><tspan font-style="normal" class="text-inner-tspan" font-weight="normal"> legal</tspan></tspan></text></g></g></g><g class="node default" id="g31f748ba-6d59-452b-adf0-78598a8b868a-light-flowchart-ISRB-19" data-look="classic" transform="translate(1073.8117218017578, 955.3187599182129)"><rect class="basic label-container" style="" x="-98.65625" y="-33.29999923706055" width="197.3125" height="66.5999984741211"></rect><g class="label" style="" transform="translate(0, -18.299999237060547)"><rect></rect><g><rect class="background" style="stroke: none"></rect><text y="-10.1" style=""><tspan class="text-outer-tspan row" x="0" y="-0.1em" dy="1.1em"><tspan font-style="normal" class="text-inner-tspan" font-weight="normal">ISR</tspan><tspan font-style="normal" class="text-inner-tspan" font-weight="normal"> with</tspan><tspan font-style="normal" class="text-inner-tspan" font-weight="normal"> build-time</tspan></tspan><tspan class="text-outer-tspan row" x="0" y="1em" dy="1.1em"><tspan font-style="normal" class="text-inner-tspan" font-weight="normal">fallback</tspan><tspan font-style="normal" class="text-inner-tspan" font-weight="normal"> blocking</tspan></tspan></text></g></g></g></g></g></g><defs><filter id="g31f748ba-6d59-452b-adf0-78598a8b868a-light-drop-shadow" height="130%" width="130%"><feDropShadow dx="4" dy="4" stdDeviation="0" flood-opacity="0.06" flood-color="#000000"></feDropShadow></filter></defs><defs><filter id="g31f748ba-6d59-452b-adf0-78598a8b868a-light-drop-shadow-small" height="150%" width="150%"><feDropShadow dx="2" dy="2" stdDeviation="0" flood-opacity="0.06" flood-color="#000000"></feDropShadow></filter></defs></svg>