<svg id="g7ee639b8-e0f1-4833-9355-3751af4b16c5-light" width="100%" xmlns="http://www.w3.org/2000/svg" xmlns:xlink="http://www.w3.org/1999/xlink" class="flowchart" style="max-width: 445.1656188964844px;" viewBox="0 0 445.1656188964844 776.6187133789062" role="graphics-document document" aria-roledescription="flowchart-v2"><style>#g7ee639b8-e0f1-4833-9355-3751af4b16c5-light{font-family:"trebuchet ms",verdana,arial,sans-serif;font-size:16px;fill:#333;}@keyframes edge-animation-frame{from{stroke-dashoffset:0;}}@keyframes dash{to{stroke-dashoffset:0;}}#g7ee639b8-e0f1-4833-9355-3751af4b16c5-light .edge-animation-slow{stroke-dasharray:9,5!important;stroke-dashoffset:900;animation:dash 50s linear infinite;stroke-linecap:round;}#g7ee639b8-e0f1-4833-9355-3751af4b16c5-light .edge-animation-fast{stroke-dasharray:9,5!important;stroke-dashoffset:900;animation:dash 20s linear infinite;stroke-linecap:round;}#g7ee639b8-e0f1-4833-9355-3751af4b16c5-light .error-icon{fill:#552222;}#g7ee639b8-e0f1-4833-9355-3751af4b16c5-light .error-text{fill:#552222;stroke:#552222;}#g7ee639b8-e0f1-4833-9355-3751af4b16c5-light .edge-thickness-normal{stroke-width:1px;}#g7ee639b8-e0f1-4833-9355-3751af4b16c5-light .edge-thickness-thick{stroke-width:3.5px;}#g7ee639b8-e0f1-4833-9355-3751af4b16c5-light .edge-pattern-solid{stroke-dasharray:0;}#g7ee639b8-e0f1-4833-9355-3751af4b16c5-light .edge-thickness-invisible{stroke-width:0;fill:none;}#g7ee639b8-e0f1-4833-9355-3751af4b16c5-light .edge-pattern-dashed{stroke-dasharray:3;}#g7ee639b8-e0f1-4833-9355-3751af4b16c5-light .edge-pattern-dotted{stroke-dasharray:2;}#g7ee639b8-e0f1-4833-9355-3751af4b16c5-light .marker{fill:#333333;stroke:#333333;}#g7ee639b8-e0f1-4833-9355-3751af4b16c5-light .marker.cross{stroke:#333333;}#g7ee639b8-e0f1-4833-9355-3751af4b16c5-light svg{font-family:"trebuchet ms",verdana,arial,sans-serif;font-size:16px;}#g7ee639b8-e0f1-4833-9355-3751af4b16c5-light p{margin:0;}#g7ee639b8-e0f1-4833-9355-3751af4b16c5-light .label{font-family:"trebuchet ms",verdana,arial,sans-serif;color:#333;}#g7ee639b8-e0f1-4833-9355-3751af4b16c5-light .cluster-label text{fill:#333;}#g7ee639b8-e0f1-4833-9355-3751af4b16c5-light .cluster-label span{color:#333;}#g7ee639b8-e0f1-4833-9355-3751af4b16c5-light .cluster-label span p{background-color:transparent;}#g7ee639b8-e0f1-4833-9355-3751af4b16c5-light .label text,#g7ee639b8-e0f1-4833-9355-3751af4b16c5-light span{fill:#333;color:#333;}#g7ee639b8-e0f1-4833-9355-3751af4b16c5-light .node rect,#g7ee639b8-e0f1-4833-9355-3751af4b16c5-light .node circle,#g7ee639b8-e0f1-4833-9355-3751af4b16c5-light .node ellipse,#g7ee639b8-e0f1-4833-9355-3751af4b16c5-light .node polygon,#g7ee639b8-e0f1-4833-9355-3751af4b16c5-light .node path{fill:#ECECFF;stroke:#9370DB;stroke-width:1px;}#g7ee639b8-e0f1-4833-9355-3751af4b16c5-light .rough-node .label text,#g7ee639b8-e0f1-4833-9355-3751af4b16c5-light .node .label text,#g7ee639b8-e0f1-4833-9355-3751af4b16c5-light .image-shape .label,#g7ee639b8-e0f1-4833-9355-3751af4b16c5-light .icon-shape .label{text-anchor:middle;}#g7ee639b8-e0f1-4833-9355-3751af4b16c5-light .node .katex path{fill:#000;stroke:#000;stroke-width:1px;}#g7ee639b8-e0f1-4833-9355-3751af4b16c5-light .rough-node .label,#g7ee639b8-e0f1-4833-9355-3751af4b16c5-light .node .label,#g7ee639b8-e0f1-4833-9355-3751af4b16c5-light .image-shape .label,#g7ee639b8-e0f1-4833-9355-3751af4b16c5-light .icon-shape .label{text-align:center;}#g7ee639b8-e0f1-4833-9355-3751af4b16c5-light .node.clickable{cursor:pointer;}#g7ee639b8-e0f1-4833-9355-3751af4b16c5-light .root .anchor path{fill:#333333!important;stroke-width:0;stroke:#333333;}#g7ee639b8-e0f1-4833-9355-3751af4b16c5-light .arrowheadPath{fill:#333333;}#g7ee639b8-e0f1-4833-9355-3751af4b16c5-light .edgePath .path{stroke:#333333;stroke-width:1px;}#g7ee639b8-e0f1-4833-9355-3751af4b16c5-light .flowchart-link{stroke:#333333;fill:none;}#g7ee639b8-e0f1-4833-9355-3751af4b16c5-light .edgeLabel{background-color:rgba(232,232,232, 0.8);text-align:center;}#g7ee639b8-e0f1-4833-9355-3751af4b16c5-light .edgeLabel p{background-color:rgba(232,232,232, 0.8);}#g7ee639b8-e0f1-4833-9355-3751af4b16c5-light .edgeLabel rect{opacity:0.5;background-color:rgba(232,232,232, 0.8);fill:rgba(232,232,232, 0.8);}#g7ee639b8-e0f1-4833-9355-3751af4b16c5-light .labelBkg{background-color:rgba(232, 232, 232, 0.5);}#g7ee639b8-e0f1-4833-9355-3751af4b16c5-light .cluster rect{fill:#ffffde;stroke:#aaaa33;stroke-width:1px;}#g7ee639b8-e0f1-4833-9355-3751af4b16c5-light .cluster text{fill:#333;}#g7ee639b8-e0f1-4833-9355-3751af4b16c5-light .cluster span{color:#333;}#g7ee639b8-e0f1-4833-9355-3751af4b16c5-light div.mermaidTooltip{position:absolute;text-align:center;max-width:200px;padding:2px;font-family:"trebuchet ms",verdana,arial,sans-serif;font-size:12px;background:hsl(80, 100%, 96.2745098039%);border:1px solid #aaaa33;border-radius:2px;pointer-events:none;z-index:100;}#g7ee639b8-e0f1-4833-9355-3751af4b16c5-light .flowchartTitleText{text-anchor:middle;font-size:18px;fill:#333;}#g7ee639b8-e0f1-4833-9355-3751af4b16c5-light rect.text{fill:none;stroke-width:0;}#g7ee639b8-e0f1-4833-9355-3751af4b16c5-light .icon-shape,#g7ee639b8-e0f1-4833-9355-3751af4b16c5-light .image-shape{background-color:rgba(232,232,232, 0.8);text-align:center;}#g7ee639b8-e0f1-4833-9355-3751af4b16c5-light .icon-shape p,#g7ee639b8-e0f1-4833-9355-3751af4b16c5-light .image-shape p{background-color:rgba(232,232,232, 0.8);padding:2px;}#g7ee639b8-e0f1-4833-9355-3751af4b16c5-light .icon-shape .label rect,#g7ee639b8-e0f1-4833-9355-3751af4b16c5-light .image-shape .label rect{opacity:0.5;background-color:rgba(232,232,232, 0.8);fill:rgba(232,232,232, 0.8);}#g7ee639b8-e0f1-4833-9355-3751af4b16c5-light .label-icon{display:inline-block;height:1em;overflow:visible;vertical-align:-0.125em;}#g7ee639b8-e0f1-4833-9355-3751af4b16c5-light .node .label-icon path{fill:currentColor;stroke:revert;stroke-width:revert;}#g7ee639b8-e0f1-4833-9355-3751af4b16c5-light .node .neo-node{stroke:#9370DB;}#g7ee639b8-e0f1-4833-9355-3751af4b16c5-light [data-look="neo"].node rect,#g7ee639b8-e0f1-4833-9355-3751af4b16c5-light [data-look="neo"].cluster rect,#g7ee639b8-e0f1-4833-9355-3751af4b16c5-light [data-look="neo"].node polygon{stroke:#9370DB;filter:drop-shadow(1px 2px 2px rgba(185, 185, 185, 1));}#g7ee639b8-e0f1-4833-9355-3751af4b16c5-light [data-look="neo"].node path{stroke:#9370DB;stroke-width:1px;}#g7ee639b8-e0f1-4833-9355-3751af4b16c5-light [data-look="neo"].node .outer-path{filter:drop-shadow(1px 2px 2px rgba(185, 185, 185, 1));}#g7ee639b8-e0f1-4833-9355-3751af4b16c5-light [data-look="neo"].node .neo-line path{stroke:#9370DB;filter:none;}#g7ee639b8-e0f1-4833-9355-3751af4b16c5-light [data-look="neo"].node circle{stroke:#9370DB;filter:drop-shadow(1px 2px 2px rgba(185, 185, 185, 1));}#g7ee639b8-e0f1-4833-9355-3751af4b16c5-light [data-look="neo"].node circle .state-start{fill:#000000;}#g7ee639b8-e0f1-4833-9355-3751af4b16c5-light [data-look="neo"].icon-shape .icon{fill:#9370DB;filter:drop-shadow(1px 2px 2px rgba(185, 185, 185, 1));}#g7ee639b8-e0f1-4833-9355-3751af4b16c5-light [data-look="neo"].icon-shape .icon-neo path{stroke:#9370DB;filter:drop-shadow(1px 2px 2px rgba(185, 185, 185, 1));}#g7ee639b8-e0f1-4833-9355-3751af4b16c5-light :root{--mermaid-font-family:"trebuchet ms",verdana,arial,sans-serif;}#g7ee639b8-e0f1-4833-9355-3751af4b16c5-light .sseBox rect{fill:#1F6E68!important;stroke:#155752!important;color:#ffffff!important;}#g7ee639b8-e0f1-4833-9355-3751af4b16c5-light .sseBox polygon{fill:#1F6E68!important;stroke:#155752!important;color:#ffffff!important;}#g7ee639b8-e0f1-4833-9355-3751af4b16c5-light .sseBox ellipse{fill:#1F6E68!important;stroke:#155752!important;color:#ffffff!important;}#g7ee639b8-e0f1-4833-9355-3751af4b16c5-light .sseBox circle{fill:#1F6E68!important;stroke:#155752!important;color:#ffffff!important;}#g7ee639b8-e0f1-4833-9355-3751af4b16c5-light .sseBox path{fill:#1F6E68!important;stroke:#155752!important;color:#ffffff!important;}#g7ee639b8-e0f1-4833-9355-3751af4b16c5-light .sseBox tspan{fill:#ffffff!important;}#g7ee639b8-e0f1-4833-9355-3751af4b16c5-light .fetchBox rect{fill:#2E5A88!important;stroke:#1F4870!important;color:#ffffff!important;}#g7ee639b8-e0f1-4833-9355-3751af4b16c5-light .fetchBox polygon{fill:#2E5A88!important;stroke:#1F4870!important;color:#ffffff!important;}#g7ee639b8-e0f1-4833-9355-3751af4b16c5-light .fetchBox ellipse{fill:#2E5A88!important;stroke:#1F4870!important;color:#ffffff!important;}#g7ee639b8-e0f1-4833-9355-3751af4b16c5-light .fetchBox circle{fill:#2E5A88!important;stroke:#1F4870!important;color:#ffffff!important;}#g7ee639b8-e0f1-4833-9355-3751af4b16c5-light .fetchBox path{fill:#2E5A88!important;stroke:#1F4870!important;color:#ffffff!important;}#g7ee639b8-e0f1-4833-9355-3751af4b16c5-light .fetchBox tspan{fill:#ffffff!important;}#g7ee639b8-e0f1-4833-9355-3751af4b16c5-light .qBox rect{fill:#5A5A5A!important;stroke:#3D3D3D!important;color:#ffffff!important;}#g7ee639b8-e0f1-4833-9355-3751af4b16c5-light .qBox polygon{fill:#5A5A5A!important;stroke:#3D3D3D!important;color:#ffffff!important;}#g7ee639b8-e0f1-4833-9355-3751af4b16c5-light .qBox ellipse{fill:#5A5A5A!important;stroke:#3D3D3D!important;color:#ffffff!important;}#g7ee639b8-e0f1-4833-9355-3751af4b16c5-light .qBox circle{fill:#5A5A5A!important;stroke:#3D3D3D!important;color:#ffffff!important;}#g7ee639b8-e0f1-4833-9355-3751af4b16c5-light .qBox path{fill:#5A5A5A!important;stroke:#3D3D3D!important;color:#ffffff!important;}#g7ee639b8-e0f1-4833-9355-3751af4b16c5-light .qBox tspan{fill:#ffffff!important;}</style><g><marker id="g7ee639b8-e0f1-4833-9355-3751af4b16c5-light_flowchart-v2-pointEnd" class="marker flowchart-v2" viewBox="0 0 10 10" refX="5" refY="5" markerUnits="userSpaceOnUse" markerWidth="8" markerHeight="8" orient="auto"><path d="M 0 0 L 10 5 L 0 10 z" class="arrowMarkerPath" style="stroke-width: 1; stroke-dasharray: 1, 0;"></path></marker><marker id="g7ee639b8-e0f1-4833-9355-3751af4b16c5-light_flowchart-v2-pointStart" class="marker flowchart-v2" viewBox="0 0 10 10" refX="4.5" refY="5" markerUnits="userSpaceOnUse" markerWidth="8" markerHeight="8" orient="auto"><path d="M 0 5 L 10 10 L 10 0 z" class="arrowMarkerPath" style="stroke-width: 1; stroke-dasharray: 1, 0;"></path></marker><marker id="g7ee639b8-e0f1-4833-9355-3751af4b16c5-light_flowchart-v2-pointEnd-margin" class="marker flowchart-v2" viewBox="0 0 11.5 14" refX="11.5" refY="7" markerUnits="userSpaceOnUse" markerWidth="10.5" markerHeight="14" orient="auto"><path d="M 0 0 L 11.5 7 L 0 14 z" class="arrowMarkerPath" style="stroke-width: 0; stroke-dasharray: 1, 0;"></path></marker><marker id="g7ee639b8-e0f1-4833-9355-3751af4b16c5-light_flowchart-v2-pointStart-margin" class="marker flowchart-v2" viewBox="0 0 11.5 14" refX="1" refY="7" markerUnits="userSpaceOnUse" markerWidth="11.5" markerHeight="14" orient="auto"><polygon points="0,7 11.5,14 11.5,0" class="arrowMarkerPath" style="stroke-width: 0; stroke-dasharray: 1, 0;"></polygon></marker><marker id="g7ee639b8-e0f1-4833-9355-3751af4b16c5-light_flowchart-v2-circleEnd" class="marker flowchart-v2" viewBox="0 0 10 10" refX="11" refY="5" markerUnits="userSpaceOnUse" markerWidth="11" markerHeight="11" orient="auto"><circle cx="5" cy="5" r="5" class="arrowMarkerPath" style="stroke-width: 1; stroke-dasharray: 1, 0;"></circle></marker><marker id="g7ee639b8-e0f1-4833-9355-3751af4b16c5-light_flowchart-v2-circleStart" class="marker flowchart-v2" viewBox="0 0 10 10" refX="-1" refY="5" markerUnits="userSpaceOnUse" markerWidth="11" markerHeight="11" orient="auto"><circle cx="5" cy="5" r="5" class="arrowMarkerPath" style="stroke-width: 1; stroke-dasharray: 1, 0;"></circle></marker><marker id="g7ee639b8-e0f1-4833-9355-3751af4b16c5-light_flowchart-v2-circleEnd-margin" class="marker flowchart-v2" viewBox="0 0 10 10" refY="5" refX="12.25" markerUnits="userSpaceOnUse" markerWidth="14" markerHeight="14" orient="auto"><circle cx="5" cy="5" r="5" class="arrowMarkerPath" style="stroke-width: 0; stroke-dasharray: 1, 0;"></circle></marker><marker id="g7ee639b8-e0f1-4833-9355-3751af4b16c5-light_flowchart-v2-circleStart-margin" class="marker flowchart-v2" viewBox="0 0 10 10" refX="-2" refY="5" markerUnits="userSpaceOnUse" markerWidth="14" markerHeight="14" orient="auto"><circle cx="5" cy="5" r="5" class="arrowMarkerPath" style="stroke-width: 0; stroke-dasharray: 1, 0;"></circle></marker><marker id="g7ee639b8-e0f1-4833-9355-3751af4b16c5-light_flowchart-v2-crossEnd" class="marker cross flowchart-v2" viewBox="0 0 11 11" refX="12" refY="5.2" markerUnits="userSpaceOnUse" markerWidth="11" markerHeight="11" orient="auto"><path d="M 1,1 l 9,9 M 10,1 l -9,9" class="arrowMarkerPath" style="stroke-width: 2; stroke-dasharray: 1, 0;"></path></marker><marker id="g7ee639b8-e0f1-4833-9355-3751af4b16c5-light_flowchart-v2-crossStart" class="marker cross flowchart-v2" viewBox="0 0 11 11" refX="-1" refY="5.2" markerUnits="userSpaceOnUse" markerWidth="11" markerHeight="11" orient="auto"><path d="M 1,1 l 9,9 M 10,1 l -9,9" class="arrowMarkerPath" style="stroke-width: 2; stroke-dasharray: 1, 0;"></path></marker><marker id="g7ee639b8-e0f1-4833-9355-3751af4b16c5-light_flowchart-v2-crossEnd-margin" class="marker cross flowchart-v2" viewBox="0 0 15 15" refX="17.7" refY="7.5" markerUnits="userSpaceOnUse" markerWidth="12" markerHeight="12" orient="auto"><path d="M 1,1 L 14,14 M 1,14 L 14,1" class="arrowMarkerPath" style="stroke-width: 2.5;"></path></marker><marker id="g7ee639b8-e0f1-4833-9355-3751af4b16c5-light_flowchart-v2-crossStart-margin" class="marker cross flowchart-v2" viewBox="0 0 15 15" refX="-3.5" refY="7.5" markerUnits="userSpaceOnUse" markerWidth="12" markerHeight="12" orient="auto"><path d="M 1,1 L 14,14 M 1,14 L 14,1" class="arrowMarkerPath" style="stroke-width: 2.5; stroke-dasharray: 1, 0;"></path></marker><g class="root"><g class="clusters"></g><g class="edgePaths"><path d="M222.68,60.1L222.596,64.183C222.513,68.267,222.346,76.433,222.263,84.017C222.18,91.6,222.18,98.6,222.18,102.1L222.18,105.6" id="g7ee639b8-e0f1-4833-9355-3751af4b16c5-light-L_Start_Q1_0" class="edge-thickness-normal edge-pattern-solid edge-thickness-normal edge-pattern-solid flowchart-link" style=";" data-edge="true" data-et="edge" data-id="L_Start_Q1_0" data-points="W3sieCI6MjIyLjY3OTY4NzUsInkiOjYwLjA5OTk5ODQ3NDEyMTA4fSx7IngiOjIyMi4xNzk2ODc1LCJ5Ijo4NC41OTk5OTg0NzQxMjExfSx7IngiOjIyMi4xNzk2ODc1LCJ5IjoxMDkuNTk5OTk4NDc0MTIxMX1d" data-look="classic" marker-end="url(#g7ee639b8-e0f1-4833-9355-3751af4b16c5-light_flowchart-v2-pointEnd)"></path><path d="M168.008,285.012L154.503,300.124C140.999,315.236,113.99,345.46,100.485,384.725C86.98,423.99,86.98,472.296,86.98,520.602C86.98,568.907,86.98,617.213,88.202,646.799C89.424,676.385,91.868,687.25,93.09,692.683L94.312,698.116" id="g7ee639b8-e0f1-4833-9355-3751af4b16c5-light-L_Q1_Fetch_0" class="edge-thickness-normal edge-pattern-solid edge-thickness-normal edge-pattern-solid flowchart-link" style=";" data-edge="true" data-et="edge" data-id="L_Q1_Fetch_0" data-points="W3sieCI6MTY4LjAwNzY4MzE3NzY1MjcsInkiOjI4NS4wMTIzNTk5OTY1MDAzfSx7IngiOjg2Ljk4MDQ2ODc1LCJ5IjozNzUuNjg0MzY0MzE4ODQ3NjZ9LHsieCI6ODYuOTgwNDY4NzUsInkiOjUyMC42MDE1NTQ4NzA2MDU1fSx7IngiOjg2Ljk4MDQ2ODc1LCJ5Ijo2NjUuNTE4NzQ1NDIyMzYzM30seyJ4Ijo5NS4xODk5NDU2OTMyNDI2LCJ5Ijo3MDIuMDE4NzQ1NDIyMzYzM31d" data-look="classic" marker-end="url(#g7ee639b8-e0f1-4833-9355-3751af4b16c5-light_flowchart-v2-pointEnd)"></path><path d="M261.352,300.012L267.886,312.624C274.419,325.236,287.486,350.46,294.019,368.489C300.552,386.518,300.552,397.351,300.552,402.768L300.552,408.184" id="g7ee639b8-e0f1-4833-9355-3751af4b16c5-light-L_Q1_Q2_0" class="edge-thickness-normal edge-pattern-solid edge-thickness-normal edge-pattern-solid flowchart-link" style=";" data-edge="true" data-et="edge" data-id="L_Q1_Q2_0" data-points="W3sieCI6MjYxLjM1MjI4NTQ0ODI0NzEzLCJ5IjozMDAuMDExNzY2MzcwNjAwNn0seyJ4IjozMDAuNTUyMzQ1Mjc1ODc4OSwieSI6Mzc1LjY4NDM2NDMxODg0NzY2fSx7IngiOjMwMC41NTIzNDUyNzU4Nzg5LCJ5Ijo0MTIuMTg0MzY0MzE4ODQ3NjZ9XQ==" data-look="classic" marker-end="url(#g7ee639b8-e0f1-4833-9355-3751af4b16c5-light_flowchart-v2-pointEnd)"></path><path d="M251.555,580.021L239.804,594.271C228.054,608.52,204.553,637.019,186.47,656.909C168.387,676.799,155.722,688.079,149.389,693.718L143.057,699.358" id="g7ee639b8-e0f1-4833-9355-3751af4b16c5-light-L_Q2_Fetch_0" class="edge-thickness-normal edge-pattern-solid edge-thickness-normal edge-pattern-solid flowchart-link" style=";" data-edge="true" data-et="edge" data-id="L_Q2_Fetch_0" data-points="W3sieCI6MjUxLjU1NDU2OTI4NDQ2MTE0LCJ5Ijo1ODAuMDIwOTY5NDMwOTQ1Nn0seyJ4IjoxODEuMDUyMzQ1Mjc1ODc4OSwieSI6NjY1LjUxODc0NTQyMjM2MzN9LHsieCI6MTQwLjA2OTUwODAyNTM0ODc3LCJ5Ijo3MDIuMDE4NzQ1NDIyMzYzM31d" data-look="classic" marker-end="url(#g7ee639b8-e0f1-4833-9355-3751af4b16c5-light_flowchart-v2-pointEnd)"></path><path d="M325.045,604.526L328.012,614.691C330.978,624.857,336.912,645.188,339.879,662.237C342.845,679.285,342.845,693.052,342.845,699.935L342.845,706.819" id="g7ee639b8-e0f1-4833-9355-3751af4b16c5-light-L_Q2_SSE_0" class="edge-thickness-normal edge-pattern-solid edge-thickness-normal edge-pattern-solid flowchart-link" style=";" data-edge="true" data-et="edge" data-id="L_Q2_SSE_0" data-points="W3sieCI6MzI1LjA0NTA1OTA3NDQ3OSwieSI6NjA0LjUyNjAzMTYyMzc2MzJ9LHsieCI6MzQyLjg0NTMxNDAyNTg3ODksInkiOjY2NS41MTg3NDU0MjIzNjMzfSx7IngiOjM0Mi44NDUzMTQwMjU4Nzg5LCJ5Ijo3MTAuODE4NzQ0NjU5NDIzOH1d" data-look="classic" marker-end="url(#g7ee639b8-e0f1-4833-9355-3751af4b16c5-light_flowchart-v2-pointEnd)"></path></g><g class="edgeLabels"><g class="edgeLabel"><g class="label" data-id="L_Start_Q1_0" transform="translate(0, 0)"><text y="-10.1" text-anchor="middle"><tspan class="text-outer-tspan row" x="0" y="-0.1em" dy="1.1em" text-anchor="middle"></tspan></text></g></g><g><rect class="background" style="stroke: none"></rect></g><g class="edgeLabel" transform="translate(86.98046875, 520.6015548706055)"><g class="label" data-id="L_Q1_Fetch_0" transform="translate(0, -10.5)"><g><rect class="background" style="" x="-13.328125" y="-1" width="26.65625" height="23"></rect><text y="-10.1" text-anchor="middle" style=""><tspan class="text-outer-tspan row" x="0" y="-0.1em" dy="1.1em" text-anchor="middle"><tspan font-style="normal" class="text-inner-tspan" font-weight="normal">Yes</tspan></tspan></text></g></g></g><g class="edgeLabel" transform="translate(300.5523452758789, 375.68436431884766)"><g class="label" data-id="L_Q1_Q2_0" transform="translate(0, -10.5)"><g><rect class="background" style="" x="-11.3984375" y="-1" width="22.796875" height="23"></rect><text y="-10.1" text-anchor="middle" style=""><tspan class="text-outer-tspan row" x="0" y="-0.1em" dy="1.1em" text-anchor="middle"><tspan font-style="normal" class="text-inner-tspan" font-weight="normal">No</tspan></tspan></text></g></g></g><g class="edgeLabel" transform="translate(198.84595, 643.9405)"><g class="label" data-id="L_Q2_Fetch_0" transform="translate(0, -10.5)"><g><rect class="background" style="" x="-11.3984375" y="-1" width="22.796875" height="23"></rect><text y="-10.1" text-anchor="middle" style=""><tspan class="text-outer-tspan row" x="0" y="-0.1em" dy="1.1em" text-anchor="middle"><tspan font-style="normal" class="text-inner-tspan" font-weight="normal">No</tspan></tspan></text></g></g></g><g class="edgeLabel" transform="translate(342.8453140258789, 665.5187454223633)"><g class="label" data-id="L_Q2_SSE_0" transform="translate(0, -10.5)"><g><rect class="background" style="" x="-53.1875" y="-1" width="106.375" height="23"></rect><text y="-10.1" text-anchor="middle" style=""><tspan class="text-outer-tspan row" x="0" y="-0.1em" dy="1.1em" text-anchor="middle"><tspan font-style="normal" class="text-inner-tspan" font-weight="normal">Yes</tspan><tspan font-style="normal" class="text-inner-tspan" font-weight="normal"> (HTTP/2+)</tspan></tspan></text></g></g></g></g><g class="nodes"><g class="node default" id="g7ee639b8-e0f1-4833-9355-3751af4b16c5-light-flowchart-Start-0" data-look="classic" transform="translate(222.1796875, 33.79999923706055)"><g class="basic label-container outer-path"><path d="M-65.63437557220459 -25.799999237060547 C-29.29955052618753 -25.799999237060547, 7.035274519829528 -25.799999237060547, 65.63437557220459 -25.799999237060547 C65.63437557220459 -25.799999237060547, 65.63437557220459 -25.799999237060547, 65.63437557220459 -25.799999237060547 C66.23126947942042 -25.780858011239644, 66.82816338663625 -25.76171678541874, 67.28738719882529 -25.746990371586765 C67.73639483462028 -25.703675144972312, 68.18540247041528 -25.660359918357855, 68.93360624610231 -25.58818159996402 C69.4109597764176 -25.51100678311456, 69.88831330673288 -25.433831966265103, 70.56626804685753 -25.32422550149928 C70.88992345002204 -25.250353267775868, 71.21357885318655 -25.176481034052458, 72.17866364354678 -24.956206728419545 C72.69930662067401 -24.801682625718943, 73.21994959780123 -24.647158523018337, 73.76416735680552 -24.48563754880318 C74.3615119041029 -24.265809233605278, 74.95885645140028 -24.045980918407377, 75.31626401178644 -23.914451632345997 C75.76205909606742 -23.717111372576134, 76.20785418034839 -23.519771112806268, 76.82857571041056 -23.24499610449772 C77.32254509976715 -22.98729259047288, 77.81651448912375 -22.72958907644804, 78.2948880395184 -22.480021901620034 C78.61509575005246 -22.285910105744904, 78.93530346058652 -22.091798309869773, 79.70917560722664 -21.62267246679901 C80.18303990745565 -21.292125244214194, 80.65690420768466 -20.96157802162938, 81.06562680255584 -20.67647083276321 C81.38244375924594 -20.42381774065614, 81.69926071593606 -20.17116464854907, 82.3586676765865 -19.64530514498651 C82.63466978419063 -19.39464733347604, 82.91067189179475 -19.143989521965572, 83.58298484701088 -18.533412684464313 C84.04216237935114 -18.059274183146478, 84.5013399116914 -17.58513568182864, 84.73354733196044 -17.345362455817106 C85.03811793143025 -16.9875964991218, 85.34268853090006 -16.629830542426493, 85.80562722338968 -16.086036412270357 C86.11825858457831 -15.667138869580503, 86.43088994576695 -15.24824132689065, 86.79481911506427 -14.76060939466161 C87.08828870131386 -14.309761302564237, 87.38175828756344 -13.858913210466861, 87.69705820532036 -13.374527866909407 C87.92478461880152 -12.970176559973716, 88.15251103228269 -12.565825253038025, 88.5086370002064 -11.93348753532484 C88.70327125687618 -11.529325336844114, 88.89790551354595 -11.125163138363387, 89.22622054837109 -10.443409943732584 C89.35560394526021 -10.123830451958634, 89.48498734214934 -9.804250960184685, 89.84686014509381 -8.910418140577123 C89.98169172010564 -8.504326919135602, 90.11652329511747 -8.098235697694081, 90.3680054491449 -7.340811518003323 C90.47734706021144 -6.923844566052586, 90.586688671278 -6.50687761410185, 90.78751496268467 -5.741039926302914 C90.90559031937967 -5.134747924909588, 91.02366567607467 -4.528455923516263, 91.10366483113748 -4.117677170096137 C91.16424268551256 -3.6478472940133964, 91.22482053988765 -3.178017417930656, 91.31515592687991 -2.4773939951584394 C91.3481999456532 -1.9627067301123975, 91.38124396442652 -1.4480194650663554, 91.42111918763487 -0.8269306768952902 C91.42111918763487 -0.21865467412624695, 91.42111918763487 0.3896213286427963, 91.42111918763487 0.826930676895284 C91.39874058463343 1.1754954823260688, 91.37636198163197 1.5240602877568539, 91.31515592687991 2.4773939951584216 C91.26845480001178 2.8395987129670495, 91.22175367314365 3.2018034307756773, 91.10366483113748 4.117677170096119 C91.00033462747668 4.648255927048085, 90.89700442381586 5.1788346840000505, 90.78751496268467 5.741039926302909 C90.65534031203244 6.2450791540958175, 90.5231656613802 6.749118381888726, 90.3680054491449 7.340811518003306 C90.16154492955684 7.962637707985994, 89.95508440996878 8.584463897968684, 89.84686014509383 8.910418140577105 C89.60257925087144 9.513796672156191, 89.35829835664906 10.117175203735275, 89.22622054837109 10.443409943732577 C88.94958340152921 11.017852898236452, 88.67294625468735 11.592295852740328, 88.5086370002064 11.933487535324835 C88.32769274818001 12.25477237739005, 88.14674849615362 12.576057219455267, 87.69705820532037 13.374527866909402 C87.51566328357639 13.653199178064892, 87.33426836183239 13.931870489220383, 86.79481911506429 14.760609394661596 C86.4367006891889 15.240455460074848, 86.07858226331352 15.720301525488102, 85.80562722338968 16.086036412270353 C85.44619820916309 16.508242184471197, 85.08676919493651 16.930447956672037, 84.73354733196045 17.345362455817092 C84.35214846071476 17.739188103807948, 83.97074958946907 18.133013751798803, 83.58298484701088 18.533412684464306 C83.15225338046022 18.924591605855525, 82.72152191390956 19.31577052724674, 82.35866767658653 19.64530514498649 C81.97258092522178 19.95319905499994, 81.58649417385702 20.261092965013386, 81.06562680255584 20.676470832763208 C80.76346976571236 20.887242501497912, 80.46131272886888 21.098014170232616, 79.70917560722665 21.622672466799003 C79.19857264037263 21.932202985942013, 78.68796967351861 22.241733505085023, 78.29488803951841 22.48002190162003 C77.7574743983314 22.760390253997432, 77.22006075714438 23.04075860637483, 76.82857571041058 23.244996104497716 C76.52040541989665 23.381413950561367, 76.2122351293827 23.517831796625014, 75.31626401178644 23.914451632345994 C74.80405821347404 24.102948100903454, 74.29185241516164 24.291444569460914, 73.76416735680553 24.485637548803172 C73.32946054760228 24.61465624795209, 72.89475373839903 24.743674947101013, 72.17866364354681 24.95620672841954 C71.58307606696152 25.092145706202974, 70.98748849037625 25.22808468398641, 70.56626804685754 25.324225501499278 C70.23827323725361 25.377253158678304, 69.91027842764967 25.43028081585733, 68.93360624610233 25.588181599964017 C68.29510429682384 25.64977711509997, 67.65660234754534 25.711372630235925, 67.28738719882529 25.746990371586765 C66.76078368517354 25.763877521298017, 66.2341801715218 25.780764671009273, 65.63437557220459 25.799999237060547 C65.63437557220459 25.799999237060547, 65.63437557220459 25.799999237060547, 65.63437557220459 25.799999237060547 C15.64418500161458 25.799999237060547, -34.34600556897543 25.799999237060547, -65.63437557220459 25.799999237060547 C-66.11154409241325 25.784697371369635, -66.5887126126219 25.769395505678723, -67.28738719882527 25.746990371586765 C-67.93757057964754 25.68426796279876, -68.58775396046983 25.621545554010755, -68.93360624610231 25.588181599964017 C-69.33314207573103 25.523587745476277, -69.73267790535976 25.45899389098854, -70.56626804685753 25.324225501499278 C-70.90604843231941 25.246672845791835, -71.24582881778129 25.16912019008439, -72.17866364354678 24.956206728419545 C-72.56173810184204 24.842512239996378, -72.94481256013731 24.72881775157321, -73.7641673568055 24.485637548803183 C-74.23804835280026 24.3112449617692, -74.71192934879504 24.136852374735223, -75.31626401178644 23.914451632345997 C-75.8758307817945 23.6667480222219, -76.43539755180257 23.4190444120978, -76.82857571041056 23.244996104497723 C-77.23006481889026 23.035539493769914, -77.63155392736995 22.8260828830421, -78.2948880395184 22.480021901620038 C-78.64919953183032 22.265236192815106, -79.00351102414223 22.050450484010174, -79.70917560722663 21.622672466799017 C-80.21029470728482 21.27311347569464, -80.71141380734299 20.923554484590262, -81.06562680255584 20.67647083276321 C-81.45466055551628 20.366226767400203, -81.84369430847674 20.05598270203719, -82.3586676765865 19.645305144986512 C-82.78737636006755 19.255963261659215, -83.2160850435486 18.866621378331917, -83.58298484701086 18.533412684464324 C-83.98489833170314 18.118404013808778, -84.38681181639542 17.703395343153236, -84.73354733196044 17.3453624558171 C-85.03386937231336 16.99258709841035, -85.3341914126663 16.639811741003598, -85.80562722338968 16.08603641227036 C-86.05709418675559 15.749093590471674, -86.30856115012152 15.412150768672987, -86.79481911506427 14.760609394661614 C-87.01755056572219 14.418434074682107, -87.24028201638012 14.0762587547026, -87.69705820532036 13.374527866909418 C-87.86683427360309 13.073073265982316, -88.03661034188582 12.771618665055215, -88.50863700020639 11.933487535324842 C-88.66463038259505 11.609563939071117, -88.82062376498371 11.285640342817391, -89.22622054837109 10.443409943732586 C-89.43087500262 9.937909485013058, -89.63552945686892 9.43240902629353, -89.84686014509381 8.910418140577127 C-90.00633893189224 8.43009344423424, -90.16581771869069 7.949768747891355, -90.3680054491449 7.340811518003316 C-90.53522942152293 6.703114035997832, -90.70245339390095 6.065416553992348, -90.78751496268467 5.741039926302918 C-90.86166576808424 5.360291212354387, -90.93581657348382 4.979542498405855, -91.10366483113748 4.117677170096139 C-91.18040684459922 3.522481268111566, -91.25714885806094 2.927285366126992, -91.31515592687991 2.477393995158454 C-91.33666154170625 2.1424266852183904, -91.35816715653259 1.8074593752783272, -91.42111918763487 0.8269306768952934 C-91.42111918763487 0.18740188510662015, -91.42111918763487 -0.45212690668205313, -91.42111918763487 -0.8269306768952809 C-91.39763245172726 -1.1927555468082223, -91.37414571581967 -1.5585804167211634, -91.31515592687991 -2.4773939951584185 C-91.25991970680107 -2.9057952104645315, -91.20468348672223 -3.334196425770644, -91.10366483113748 -4.117677170096128 C-91.00407819766981 -4.629033485310124, -90.90449156420215 -5.140389800524121, -90.78751496268467 -5.741039926302906 C-90.67699375436169 -6.162505193833136, -90.5664725460387 -6.583970461363366, -90.3680054491449 -7.340811518003303 C-90.21997649809752 -7.786651133347621, -90.07194754705013 -8.232490748691939, -89.84686014509383 -8.910418140577093 C-89.70225110341566 -9.267605269347783, -89.5576420617375 -9.624792398118474, -89.22622054837109 -10.443409943732574 C-89.02616983244184 -10.85881953575928, -88.82611911651259 -11.274229127785985, -88.5086370002064 -11.933487535324831 C-88.26446406198176 -12.367041312333795, -88.0202911237571 -12.800595089342757, -87.69705820532036 -13.374527866909409 C-87.45041997716278 -13.75343041699702, -87.2037817490052 -14.13233296708463, -86.79481911506429 -14.760609394661605 C-86.59347031235653 -15.03039844703671, -86.39212150964877 -15.300187499411814, -85.80562722338968 -16.086036412270353 C-85.57927784301683 -16.351919274100922, -85.35292846264396 -16.617802135931488, -84.73354733196045 -17.345362455817092 C-84.33420778763752 -17.75771332171685, -83.9348682433146 -18.170064187616607, -83.58298484701089 -18.5334126844643 C-83.17253571485436 -18.906171726399922, -82.76208658269783 -19.27893076833555, -82.35866767658653 -19.645305144986487 C-81.91131102806152 -20.002060167524814, -81.46395437953649 -20.35881519006314, -81.06562680255585 -20.676470832763204 C-80.75417255955834 -20.893727830041396, -80.44271831656081 -21.110984827319584, -79.70917560722665 -21.622672466799 C-79.38392321933891 -21.819842375731746, -79.05867083145117 -22.01701228466449, -78.29488803951841 -22.480021901620027 C-77.74534025976172 -22.76672062631694, -77.19579248000504 -23.05341935101385, -76.82857571041058 -23.244996104497716 C-76.4925539982034 -23.39374294876189, -76.15653228599625 -23.54248979302606, -75.31626401178646 -23.91445163234599 C-74.79146308997579 -24.107583222778857, -74.26666216816513 -24.300714813211727, -73.76416735680553 -24.485637548803172 C-73.16223801516729 -24.664287017809812, -72.56030867352905 -24.842936486816452, -72.17866364354681 -24.956206728419538 C-71.66259527730293 -25.07399596535389, -71.14652691105904 -25.191785202288244, -70.56626804685754 -25.324225501499278 C-70.1225054639434 -25.395969594474607, -69.67874288102927 -25.467713687449937, -68.93360624610233 -25.588181599964017 C-68.44617899031412 -25.635203121112863, -67.95875173452592 -25.682224642261712, -67.28738719882529 -25.746990371586765 C-66.87032904212933 -25.76036461491755, -66.45327088543337 -25.773738858248333, -65.6343755722046 -25.799999237060547 C-65.6343755722046 -25.799999237060547, -65.63437557220459 -25.799999237060547, -65.63437557220459 -25.799999237060547" stroke="none" stroke-width="0" fill="#ECECFF" style=""></path><path d="M-65.63437557220459 -25.799999237060547 C-20.394241015864786 -25.799999237060547, 24.845893540475018 -25.799999237060547, 65.63437557220459 -25.799999237060547 M-65.63437557220459 -25.799999237060547 C-37.621897825778674 -25.799999237060547, -9.609420079352759 -25.799999237060547, 65.63437557220459 -25.799999237060547 M65.63437557220459 -25.799999237060547 C65.63437557220459 -25.799999237060547, 65.63437557220459 -25.799999237060547, 65.63437557220459 -25.799999237060547 M65.63437557220459 -25.799999237060547 C65.63437557220459 -25.799999237060547, 65.63437557220459 -25.799999237060547, 65.63437557220459 -25.799999237060547 M65.63437557220459 -25.799999237060547 C66.05918194263693 -25.78637652359622, 66.48398831306925 -25.772753810131896, 67.28738719882529 -25.746990371586765 M65.63437557220459 -25.799999237060547 C66.01329237986099 -25.78784811255583, 66.39220918751738 -25.775696988051113, 67.28738719882529 -25.746990371586765 M67.28738719882529 -25.746990371586765 C67.70084724946382 -25.70710437776013, 68.11430730010234 -25.66721838393349, 68.93360624610231 -25.58818159996402 M67.28738719882529 -25.746990371586765 C67.8769021693474 -25.690120571375978, 68.46641713986952 -25.633250771165194, 68.93360624610231 -25.58818159996402 M68.93360624610231 -25.58818159996402 C69.38684890402 -25.5149048419812, 69.84009156193768 -25.441628083998374, 70.56626804685753 -25.32422550149928 M68.93360624610231 -25.58818159996402 C69.52509828383614 -25.49255375439248, 70.11659032156996 -25.396925908820933, 70.56626804685753 -25.32422550149928 M70.56626804685753 -25.32422550149928 C70.92816663704923 -25.24162450989703, 71.29006522724093 -25.159023518294777, 72.17866364354678 -24.956206728419545 M70.56626804685753 -25.32422550149928 C71.02274215192398 -25.220038265789782, 71.47921625699041 -25.115851030080282, 72.17866364354678 -24.956206728419545 M72.17866364354678 -24.956206728419545 C72.58790534151848 -24.834745940615058, 72.99714703949017 -24.713285152810567, 73.76416735680552 -24.48563754880318 M72.17866364354678 -24.956206728419545 C72.79521610269961 -24.77321719489289, 73.41176856185243 -24.59022766136623, 73.76416735680552 -24.48563754880318 M73.76416735680552 -24.48563754880318 C74.2054379334431 -24.323245897540055, 74.64670851008067 -24.160854246276934, 75.31626401178644 -23.914451632345997 M73.76416735680552 -24.48563754880318 C74.16297883975798 -24.338871236503735, 74.56179032271045 -24.19210492420429, 75.31626401178644 -23.914451632345997 M75.31626401178644 -23.914451632345997 C75.86602311910038 -23.671089583562612, 76.41578222641432 -23.427727534779223, 76.82857571041056 -23.24499610449772 M75.31626401178644 -23.914451632345997 C75.80376794774932 -23.69864810118568, 76.29127188371221 -23.48284457002536, 76.82857571041056 -23.24499610449772 M76.82857571041056 -23.24499610449772 C77.12599571181461 -23.089832280271832, 77.42341571321865 -22.934668456045948, 78.2948880395184 -22.480021901620034 M76.82857571041056 -23.24499610449772 C77.13288178387415 -23.08623982088911, 77.43718785733773 -22.927483537280498, 78.2948880395184 -22.480021901620034 M78.2948880395184 -22.480021901620034 C78.73456218471571 -22.213488850989343, 79.17423632991304 -21.94695580035865, 79.70917560722664 -21.62267246679901 M78.2948880395184 -22.480021901620034 C78.6611253793708 -22.258006673952, 79.0273627192232 -22.035991446283965, 79.70917560722664 -21.62267246679901 M79.70917560722664 -21.62267246679901 C80.20728157387448 -21.27521530712524, 80.70538754052234 -20.92775814745147, 81.06562680255584 -20.67647083276321 M79.70917560722664 -21.62267246679901 C80.24367546737162 -21.249828502487897, 80.7781753275166 -20.876984538176785, 81.06562680255584 -20.67647083276321 M81.06562680255584 -20.67647083276321 C81.48563721029376 -20.34152370953857, 81.90564761803168 -20.00657658631393, 82.3586676765865 -19.64530514498651 M81.06562680255584 -20.67647083276321 C81.50572205394342 -20.325506581208103, 81.945817305331 -19.974542329652994, 82.3586676765865 -19.64530514498651 M82.3586676765865 -19.64530514498651 C82.76379362107339 -19.27738048124863, 83.16891956556027 -18.90945581751075, 83.58298484701088 -18.533412684464313 M82.3586676765865 -19.64530514498651 C82.60510186490178 -19.4215001354499, 82.85153605321705 -19.197695125913295, 83.58298484701088 -18.533412684464313 M83.58298484701088 -18.533412684464313 C83.90151743018559 -18.204501640324978, 84.22005001336032 -17.87559059618564, 84.73354733196044 -17.345362455817106 M83.58298484701088 -18.533412684464313 C83.93559138748103 -18.169317481893522, 84.28819792795117 -17.805222279322734, 84.73354733196044 -17.345362455817106 M84.73354733196044 -17.345362455817106 C84.9890546052918 -17.04522907378637, 85.24456187862316 -16.745095691755633, 85.80562722338968 -16.086036412270357 M84.73354733196044 -17.345362455817106 C84.95961588269127 -17.079809472463726, 85.1856844334221 -16.814256489110342, 85.80562722338968 -16.086036412270357 M85.80562722338968 -16.086036412270357 C86.10788787892821 -15.68103467036091, 86.41014853446676 -15.276032928451466, 86.79481911506427 -14.76060939466161 M85.80562722338968 -16.086036412270357 C86.13977773757645 -15.638305164998169, 86.47392825176321 -15.190573917725981, 86.79481911506427 -14.76060939466161 M86.79481911506427 -14.76060939466161 C86.99213231636567 -14.45748333144937, 87.18944551766707 -14.15435726823713, 87.69705820532036 -13.374527866909407 M86.79481911506427 -14.76060939466161 C87.12719771376997 -14.249986610898851, 87.45957631247569 -13.739363827136092, 87.69705820532036 -13.374527866909407 M87.69705820532036 -13.374527866909407 C87.9013636461809 -13.0117628684923, 88.10566908704142 -12.648997870075192, 88.5086370002064 -11.93348753532484 M87.69705820532036 -13.374527866909407 C87.92738622388484 -12.965557146707226, 88.1577142424493 -12.556586426505046, 88.5086370002064 -11.93348753532484 M88.5086370002064 -11.93348753532484 C88.76841325662703 -11.394056580545945, 89.02818951304766 -10.85462562576705, 89.22622054837109 -10.443409943732584 M88.5086370002064 -11.93348753532484 C88.76347081792294 -11.404319660266239, 89.01830463563948 -10.875151785207638, 89.22622054837109 -10.443409943732584 M89.22622054837109 -10.443409943732584 C89.47398692996312 -9.831422190963137, 89.72175331155516 -9.219434438193689, 89.84686014509381 -8.910418140577123 M89.22622054837109 -10.443409943732584 C89.39116030247834 -10.036005562194473, 89.55610005658558 -9.62860118065636, 89.84686014509381 -8.910418140577123 M89.84686014509381 -8.910418140577123 C89.9798616158935 -8.509838901435057, 90.1128630866932 -8.10925966229299, 90.3680054491449 -7.340811518003323 M89.84686014509381 -8.910418140577123 C89.95394499181754 -8.587895643898593, 90.06102983854124 -8.265373147220062, 90.3680054491449 -7.340811518003323 M90.3680054491449 -7.340811518003323 C90.50911170976431 -6.802712190421321, 90.65021797038372 -6.26461286283932, 90.78751496268467 -5.741039926302914 M90.3680054491449 -7.340811518003323 C90.49359326628208 -6.861890741155021, 90.61918108341925 -6.382969964306717, 90.78751496268467 -5.741039926302914 M90.78751496268467 -5.741039926302914 C90.87555132387813 -5.2889918180660045, 90.9635876850716 -4.836943709829095, 91.10366483113748 -4.117677170096137 M90.78751496268467 -5.741039926302914 C90.87873245330235 -5.272657390804645, 90.96994994392001 -4.804274855306376, 91.10366483113748 -4.117677170096137 M91.10366483113748 -4.117677170096137 C91.18138347202759 -3.51490673863399, 91.25910211291769 -2.912136307171843, 91.31515592687991 -2.4773939951584394 M91.10366483113748 -4.117677170096137 C91.17882728711137 -3.534732004068298, 91.25398974308527 -2.9517868380404595, 91.31515592687991 -2.4773939951584394 M91.31515592687991 -2.4773939951584394 C91.34751164226664 -1.973427610946863, 91.37986735765335 -1.4694612267352867, 91.42111918763487 -0.8269306768952902 M91.31515592687991 -2.4773939951584394 C91.341971941237 -2.05971292604939, 91.36878795559412 -1.6420318569403398, 91.42111918763487 -0.8269306768952902 M91.42111918763487 -0.8269306768952902 C91.42111918763487 -0.2550638641284376, 91.42111918763487 0.31680294863841496, 91.42111918763487 0.826930676895284 M91.42111918763487 -0.8269306768952902 C91.42111918763487 -0.390084830914652, 91.42111918763487 0.04676101506598618, 91.42111918763487 0.826930676895284 M91.42111918763487 0.826930676895284 C91.394303833217 1.2446014669183365, 91.3674884787991 1.662272256941389, 91.31515592687991 2.4773939951584216 M91.42111918763487 0.826930676895284 C91.39171844941363 1.284870906539918, 91.36231771119239 1.7428111361845517, 91.31515592687991 2.4773939951584216 M91.31515592687991 2.4773939951584216 C91.26476080628129 2.8682485988791995, 91.21436568568267 3.2591032025999773, 91.10366483113748 4.117677170096119 M91.31515592687991 2.4773939951584216 C91.26322392621286 2.880168337198588, 91.21129192554581 3.282942679238754, 91.10366483113748 4.117677170096119 M91.10366483113748 4.117677170096119 C90.98258811551922 4.739380515222947, 90.86151139990096 5.361083860349774, 90.78751496268467 5.741039926302909 M91.10366483113748 4.117677170096119 C91.03987670132778 4.44521573504291, 90.97608857151808 4.7727542999897015, 90.78751496268467 5.741039926302909 M90.78751496268467 5.741039926302909 C90.6459610114809 6.280846492113366, 90.50440706027715 6.820653057923824, 90.3680054491449 7.340811518003306 M90.78751496268467 5.741039926302909 C90.65899125881063 6.231156511700251, 90.53046755493658 6.721273097097594, 90.3680054491449 7.340811518003306 M90.3680054491449 7.340811518003306 C90.17218869254003 7.930580389733959, 89.97637193593516 8.520349261464611, 89.84686014509383 8.910418140577105 M90.3680054491449 7.340811518003306 C90.21603135989916 7.798533261028639, 90.06405727065344 8.256255004053973, 89.84686014509383 8.910418140577105 M89.84686014509383 8.910418140577105 C89.70259990558836 9.266743721237612, 89.55833966608289 9.623069301898118, 89.22622054837109 10.443409943732577 M89.84686014509383 8.910418140577105 C89.6440996048832 9.411240595005726, 89.44133906467256 9.912063049434348, 89.22622054837109 10.443409943732577 M89.22622054837109 10.443409943732577 C88.96078165236133 10.994599490779365, 88.69534275635158 11.545789037826152, 88.5086370002064 11.933487535324835 M89.22622054837109 10.443409943732577 C89.01141813914882 10.889451742517906, 88.79661572992656 11.335493541303233, 88.5086370002064 11.933487535324835 M88.5086370002064 11.933487535324835 C88.31712290277237 12.27354020822422, 88.12560880533835 12.613592881123608, 87.69705820532037 13.374527866909402 M88.5086370002064 11.933487535324835 C88.25826337667255 12.378051256987783, 88.00788975313868 12.822614978650734, 87.69705820532037 13.374527866909402 M87.69705820532037 13.374527866909402 C87.48338848764486 13.702781931611923, 87.26971876996933 14.031035996314447, 86.79481911506429 14.760609394661596 M87.69705820532037 13.374527866909402 C87.37892344597763 13.863268288404221, 87.0607886866349 14.35200870989904, 86.79481911506429 14.760609394661596 M86.79481911506429 14.760609394661596 C86.41312370289258 15.272046473804286, 86.03142829072087 15.783483552946976, 85.80562722338968 16.086036412270353 M86.79481911506429 14.760609394661596 C86.47523967585649 15.188816728914206, 86.15566023664867 15.617024063166816, 85.80562722338968 16.086036412270353 M85.80562722338968 16.086036412270353 C85.41084963637189 16.549764629462505, 85.01607204935412 17.013492846654657, 84.73354733196045 17.345362455817092 M85.80562722338968 16.086036412270353 C85.4790468078209 16.469656351349528, 85.15246639225211 16.853276290428703, 84.73354733196045 17.345362455817092 M84.73354733196045 17.345362455817092 C84.34747198114749 17.74401695290727, 83.96139663033452 18.142671449997447, 83.58298484701088 18.533412684464306 M84.73354733196045 17.345362455817092 C84.50060786645174 17.58589157864062, 84.26766840094304 17.826420701464148, 83.58298484701088 18.533412684464306 M83.58298484701088 18.533412684464306 C83.09885609441672 18.973085608225457, 82.61472734182257 19.412758531986608, 82.35866767658653 19.64530514498649 M83.58298484701088 18.533412684464306 C83.13398633091104 18.941181256936435, 82.68498781481122 19.34894982940856, 82.35866767658653 19.64530514498649 M82.35866767658653 19.64530514498649 C81.93433717164513 19.983697430768295, 81.51000666670372 20.3220897165501, 81.06562680255584 20.676470832763208 M82.35866767658653 19.64530514498649 C81.87952502738169 20.02740865720597, 81.40038237817684 20.409512169425454, 81.06562680255584 20.676470832763208 M81.06562680255584 20.676470832763208 C80.67564663805541 20.94850411354948, 80.28566647355497 21.22053739433575, 79.70917560722665 21.622672466799003 M81.06562680255584 20.676470832763208 C80.68474783133348 20.942155515103007, 80.30386886011111 21.207840197442806, 79.70917560722665 21.622672466799003 M79.70917560722665 21.622672466799003 C79.16911838523671 21.950058328497818, 78.62906116324679 22.277444190196633, 78.29488803951841 22.48002190162003 M79.70917560722665 21.622672466799003 C79.33526112392026 21.84934162394475, 78.96134664061387 22.076010781090496, 78.29488803951841 22.48002190162003 M78.29488803951841 22.48002190162003 C77.7321087051793 22.773623519867378, 77.16932937084019 23.067225138114722, 76.82857571041058 23.244996104497716 M78.29488803951841 22.48002190162003 C77.73732111120262 22.77090421098372, 77.17975418288682 23.061786520347408, 76.82857571041058 23.244996104497716 M76.82857571041058 23.244996104497716 C76.38248698499497 23.442466350487326, 75.93639825957935 23.639936596476936, 75.31626401178644 23.914451632345994 M76.82857571041058 23.244996104497716 C76.43765121976175 23.41804678014496, 76.0467267291129 23.591097455792198, 75.31626401178644 23.914451632345994 M75.31626401178644 23.914451632345994 C74.98881437452019 24.034956125771245, 74.66136473725392 24.155460619196493, 73.76416735680553 24.485637548803172 M75.31626401178644 23.914451632345994 C74.73854058647605 24.127059193277024, 74.16081716116564 24.33966675420805, 73.76416735680553 24.485637548803172 M73.76416735680553 24.485637548803172 C73.16396922911257 24.663773202598183, 72.56377110141962 24.84190885639319, 72.17866364354681 24.95620672841954 M73.76416735680553 24.485637548803172 C73.34940799576891 24.60873595004253, 72.9346486347323 24.731834351281886, 72.17866364354681 24.95620672841954 M72.17866364354681 24.95620672841954 C71.54653251800994 25.10048653278223, 70.91440139247307 25.244766337144924, 70.56626804685754 25.324225501499278 M72.17866364354681 24.95620672841954 C71.8229282219243 25.037401017014307, 71.4671928003018 25.118595305609073, 70.56626804685754 25.324225501499278 M70.56626804685754 25.324225501499278 C70.22852957402321 25.378828438586158, 69.89079110118888 25.433431375673038, 68.93360624610233 25.588181599964017 M70.56626804685754 25.324225501499278 C70.19410676730367 25.38439365102372, 69.82194548774977 25.44456180054817, 68.93360624610233 25.588181599964017 M68.93360624610233 25.588181599964017 C68.59952073562687 25.620410427362973, 68.2654352251514 25.65263925476193, 67.28738719882529 25.746990371586765 M68.93360624610233 25.588181599964017 C68.33048123382291 25.64636434453466, 67.7273562215435 25.704547089105304, 67.28738719882529 25.746990371586765 M67.28738719882529 25.746990371586765 C66.80023761511048 25.76261231055736, 66.31308803139567 25.778234249527948, 65.63437557220459 25.799999237060547 M67.28738719882529 25.746990371586765 C66.84130500483036 25.761295359301865, 66.39522281083543 25.775600347016965, 65.63437557220459 25.799999237060547 M65.63437557220459 25.799999237060547 C65.63437557220459 25.799999237060547, 65.63437557220459 25.799999237060547, 65.63437557220459 25.799999237060547 M65.63437557220459 25.799999237060547 C65.63437557220459 25.799999237060547, 65.63437557220459 25.799999237060547, 65.63437557220459 25.799999237060547 M65.63437557220459 25.799999237060547 C20.140546274168315 25.799999237060547, -25.35328302386796 25.799999237060547, -65.63437557220459 25.799999237060547 M65.63437557220459 25.799999237060547 C22.31231593851588 25.799999237060547, -21.00974369517283 25.799999237060547, -65.63437557220459 25.799999237060547 M-65.63437557220459 25.799999237060547 C-66.28713658600151 25.779066461870315, -66.93989759979844 25.758133686680083, -67.28738719882527 25.746990371586765 M-65.63437557220459 25.799999237060547 C-66.14477713979055 25.783631652224447, -66.6551787073765 25.76726406738835, -67.28738719882527 25.746990371586765 M-67.28738719882527 25.746990371586765 C-67.78796773117014 25.698699969667626, -68.28854826351501 25.650409567748486, -68.93360624610231 25.588181599964017 M-67.28738719882527 25.746990371586765 C-67.76496294362767 25.700919213854544, -68.24253868843006 25.654848056122322, -68.93360624610231 25.588181599964017 M-68.93360624610231 25.588181599964017 C-69.31706235181981 25.526187390538126, -69.7005184575373 25.464193181112233, -70.56626804685753 25.324225501499278 M-68.93360624610231 25.588181599964017 C-69.34631297092982 25.521458377282357, -69.75901969575732 25.4547351546007, -70.56626804685753 25.324225501499278 M-70.56626804685753 25.324225501499278 C-70.9692979662666 25.23223655241017, -71.37232788567566 25.140247603321065, -72.17866364354678 24.956206728419545 M-70.56626804685753 25.324225501499278 C-71.08155320841733 25.206615025923178, -71.59683836997715 25.089004550347077, -72.17866364354678 24.956206728419545 M-72.17866364354678 24.956206728419545 C-72.74535716330162 24.788015066391296, -73.31205068305646 24.619823404363046, -73.7641673568055 24.485637548803183 M-72.17866364354678 24.956206728419545 C-72.50468257907951 24.859446019661746, -72.83070151461224 24.762685310903947, -73.7641673568055 24.485637548803183 M-73.7641673568055 24.485637548803183 C-74.22011610000149 24.317844196563083, -74.67606484319747 24.150050844322983, -75.31626401178644 23.914451632345997 M-73.7641673568055 24.485637548803183 C-74.10712902397758 24.359424484980963, -74.45009069114965 24.233211421158742, -75.31626401178644 23.914451632345997 M-75.31626401178644 23.914451632345997 C-75.63840199713232 23.77185070211719, -75.9605399824782 23.62924977188839, -76.82857571041056 23.244996104497723 M-75.31626401178644 23.914451632345997 C-75.73465591900022 23.729241946177417, -76.15304782621399 23.54403226000884, -76.82857571041056 23.244996104497723 M-76.82857571041056 23.244996104497723 C-77.25581045377147 23.022108012543246, -77.6830451971324 22.79921992058877, -78.2948880395184 22.480021901620038 M-76.82857571041056 23.244996104497723 C-77.24701858414964 23.0266947252935, -77.66546145788872 22.80839334608927, -78.2948880395184 22.480021901620038 M-78.2948880395184 22.480021901620038 C-78.8005693097039 22.17347494392059, -79.3062505798894 21.866927986221135, -79.70917560722663 21.622672466799017 M-78.2948880395184 22.480021901620038 C-78.64150310957108 22.269901809217856, -78.98811817962375 22.05978171681567, -79.70917560722663 21.622672466799017 M-79.70917560722663 21.622672466799017 C-80.1712417663118 21.30035511674285, -80.63330792539695 20.978037766686686, -81.06562680255584 20.67647083276321 M-79.70917560722663 21.622672466799017 C-80.0984842703894 21.35110759627707, -80.48779293355219 21.079542725755125, -81.06562680255584 20.67647083276321 M-81.06562680255584 20.67647083276321 C-81.53018997384972 20.305994066201524, -81.9947531451436 19.935517299639837, -82.3586676765865 19.645305144986512 M-81.06562680255584 20.67647083276321 C-81.52943678997303 20.306594710300125, -81.99324677739021 19.936718587837035, -82.3586676765865 19.645305144986512 M-82.3586676765865 19.645305144986512 C-82.70463022767267 19.331111109757558, -83.05059277875883 19.016917074528603, -83.58298484701086 18.533412684464324 M-82.3586676765865 19.645305144986512 C-82.7216679689003 19.31563788396855, -83.0846682612141 18.985970622950585, -83.58298484701086 18.533412684464324 M-83.58298484701086 18.533412684464324 C-83.93372937613516 18.171240161482096, -84.28447390525946 17.809067638499865, -84.73354733196044 17.3453624558171 M-83.58298484701086 18.533412684464324 C-83.9709236109297 18.13283406035327, -84.35886237484853 17.73225543624222, -84.73354733196044 17.3453624558171 M-84.73354733196044 17.3453624558171 C-85.05662892725353 16.96585243012228, -85.3797105225466 16.586342404427462, -85.80562722338968 16.08603641227036 M-84.73354733196044 17.3453624558171 C-85.06449420698198 16.956613425006136, -85.39544108200353 16.567864394195173, -85.80562722338968 16.08603641227036 M-85.80562722338968 16.08603641227036 C-86.1082477692116 15.68055245016786, -86.41086831503353 15.275068488065362, -86.79481911506427 14.760609394661614 M-85.80562722338968 16.08603641227036 C-86.18361091369331 15.57957270228606, -86.56159460399697 15.073108992301758, -86.79481911506427 14.760609394661614 M-86.79481911506427 14.760609394661614 C-87.06073853724327 14.352085752831563, -87.32665795942226 13.943562111001514, -87.69705820532036 13.374527866909418 M-86.79481911506427 14.760609394661614 C-87.12284092367877 14.25667981044092, -87.45086273229325 13.752750226220224, -87.69705820532036 13.374527866909418 M-87.69705820532036 13.374527866909418 C-87.87528099388321 13.05807525880178, -88.05350378244606 12.741622650694143, -88.50863700020639 11.933487535324842 M-87.69705820532036 13.374527866909418 C-87.92387636179481 12.971789262260144, -88.15069451826925 12.56905065761087, -88.50863700020639 11.933487535324842 M-88.50863700020639 11.933487535324842 C-88.78414344367278 11.361392510573374, -89.05964988713914 10.789297485821905, -89.22622054837109 10.443409943732586 M-88.50863700020639 11.933487535324842 C-88.70899853679612 11.51743251754617, -88.90936007338584 11.1013774997675, -89.22622054837109 10.443409943732586 M-89.22622054837109 10.443409943732586 C-89.4512446236376 9.88759612727976, -89.67626869890411 9.331782310826934, -89.84686014509381 8.910418140577127 M-89.22622054837109 10.443409943732586 C-89.46300381894783 9.85855068751492, -89.69978708952458 9.273691431297253, -89.84686014509381 8.910418140577127 M-89.84686014509381 8.910418140577127 C-90.0118649819736 8.413449861845711, -90.17686981885339 7.916481583114295, -90.3680054491449 7.340811518003316 M-89.84686014509381 8.910418140577127 C-89.9739860300587 8.527535229822037, -90.10111191502357 8.144652319066948, -90.3680054491449 7.340811518003316 M-90.3680054491449 7.340811518003316 C-90.50358604391224 6.823783949154015, -90.63916663867957 6.306756380304714, -90.78751496268467 5.741039926302918 M-90.3680054491449 7.340811518003316 C-90.48333879286189 6.90099549262312, -90.59867213657886 6.461179467242924, -90.78751496268467 5.741039926302918 M-90.78751496268467 5.741039926302918 C-90.86571489695378 5.339499791393025, -90.94391483122288 4.937959656483132, -91.10366483113748 4.117677170096139 M-90.78751496268467 5.741039926302918 C-90.87353179067611 5.299361694229901, -90.95954861866755 4.857683462156885, -91.10366483113748 4.117677170096139 M-91.10366483113748 4.117677170096139 C-91.18173699330902 3.5121648973859196, -91.25980915548055 2.9066526246757, -91.31515592687991 2.477393995158454 M-91.10366483113748 4.117677170096139 C-91.16131217246101 3.670575774545946, -91.21895951378454 3.2234743789957525, -91.31515592687991 2.477393995158454 M-91.31515592687991 2.477393995158454 C-91.34688462747982 1.9831938723686133, -91.37861332807974 1.4889937495787724, -91.42111918763487 0.8269306768952934 M-91.31515592687991 2.477393995158454 C-91.3398652983606 2.092525589300978, -91.3645746698413 1.707657183443502, -91.42111918763487 0.8269306768952934 M-91.42111918763487 0.8269306768952934 C-91.42111918763487 0.3804884547875179, -91.42111918763487 -0.0659537673202576, -91.42111918763487 -0.8269306768952809 M-91.42111918763487 0.8269306768952934 C-91.42111918763487 0.3293632976100386, -91.42111918763487 -0.16820408167521628, -91.42111918763487 -0.8269306768952809 M-91.42111918763487 -0.8269306768952809 C-91.39472541169094 -1.2380350418945603, -91.368331635747 -1.6491394068938394, -91.31515592687991 -2.4773939951584185 M-91.42111918763487 -0.8269306768952809 C-91.3811377751069 -1.4496734494338972, -91.34115636257891 -2.0724162219725137, -91.31515592687991 -2.4773939951584185 M-91.31515592687991 -2.4773939951584185 C-91.25799397931883 -2.920730772538919, -91.20083203175774 -3.364067549919419, -91.10366483113748 -4.117677170096128 M-91.31515592687991 -2.4773939951584185 C-91.26078617084397 -2.8990750864504466, -91.20641641480803 -3.3207561777424743, -91.10366483113748 -4.117677170096128 M-91.10366483113748 -4.117677170096128 C-91.0203766343807 -4.54534445747555, -90.93708843762393 -4.973011744854971, -90.78751496268467 -5.741039926302906 M-91.10366483113748 -4.117677170096128 C-91.0047633008334 -4.625515625361728, -90.90586177052933 -5.133354080627328, -90.78751496268467 -5.741039926302906 M-90.78751496268467 -5.741039926302906 C-90.6477468473372 -6.2740363260071375, -90.50797873198975 -6.807032725711368, -90.3680054491449 -7.340811518003303 M-90.78751496268467 -5.741039926302906 C-90.68010016922749 -6.150659087621102, -90.5726853757703 -6.560278248939297, -90.3680054491449 -7.340811518003303 M-90.3680054491449 -7.340811518003303 C-90.17626462281237 -7.918304337164967, -89.98452379647983 -8.495797156326631, -89.84686014509383 -8.910418140577093 M-90.3680054491449 -7.340811518003303 C-90.21000615560943 -7.816680216363379, -90.05200686207397 -8.292548914723454, -89.84686014509383 -8.910418140577093 M-89.84686014509383 -8.910418140577093 C-89.65884534187572 -9.374818339544774, -89.4708305386576 -9.839218538512455, -89.22622054837109 -10.443409943732574 M-89.84686014509383 -8.910418140577093 C-89.61420104641242 -9.485090612477853, -89.38154194773101 -10.059763084378613, -89.22622054837109 -10.443409943732574 M-89.22622054837109 -10.443409943732574 C-89.05118814091236 -10.80686848291419, -88.87615573345363 -11.170327022095806, -88.5086370002064 -11.933487535324831 M-89.22622054837109 -10.443409943732574 C-89.03211801155935 -10.84646801455113, -88.8380154747476 -11.249526085369684, -88.5086370002064 -11.933487535324831 M-88.5086370002064 -11.933487535324831 C-88.31976287409285 -12.26885267181862, -88.1308887479793 -12.60421780831241, -87.69705820532036 -13.374527866909409 M-88.5086370002064 -11.933487535324831 C-88.29187308497816 -12.318373816539125, -88.07510916974994 -12.703260097753418, -87.69705820532036 -13.374527866909409 M-87.69705820532036 -13.374527866909409 C-87.38656055225978 -13.851535642304663, -87.07606289919919 -14.328543417699917, -86.79481911506429 -14.760609394661605 M-87.69705820532036 -13.374527866909409 C-87.37576208482871 -13.868124988073289, -87.05446596433707 -14.361722109237167, -86.79481911506429 -14.760609394661605 M-86.79481911506429 -14.760609394661605 C-86.53061400442418 -15.114620173338613, -86.26640889378406 -15.468630952015621, -85.80562722338968 -16.086036412270353 M-86.79481911506429 -14.760609394661605 C-86.58079363587899 -15.047384038647635, -86.3667681566937 -15.334158682633666, -85.80562722338968 -16.086036412270353 M-85.80562722338968 -16.086036412270353 C-85.51613474213275 -16.426090753343583, -85.2266422608758 -16.76614509441681, -84.73354733196045 -17.345362455817092 M-85.80562722338968 -16.086036412270353 C-85.40341553123451 -16.558497152369434, -85.00120383907937 -17.030957892468514, -84.73354733196045 -17.345362455817092 M-84.73354733196045 -17.345362455817092 C-84.30229426348888 -17.79066665554939, -83.8710411950173 -18.23597085528169, -83.58298484701089 -18.5334126844643 M-84.73354733196045 -17.345362455817092 C-84.38371856181644 -17.706589382466962, -84.03388979167242 -18.067816309116832, -83.58298484701089 -18.5334126844643 M-83.58298484701089 -18.5334126844643 C-83.27988215611569 -18.80868252867759, -82.97677946522047 -19.083952372890877, -82.35866767658653 -19.645305144986487 M-83.58298484701089 -18.5334126844643 C-83.31105452126373 -18.780372611425715, -83.03912419551658 -19.02733253838713, -82.35866767658653 -19.645305144986487 M-82.35866767658653 -19.645305144986487 C-81.96934509237771 -19.955779545583958, -81.58002250816888 -20.266253946181426, -81.06562680255585 -20.676470832763204 M-82.35866767658653 -19.645305144986487 C-81.97224550333979 -19.95346654502487, -81.58582333009306 -20.26162794506325, -81.06562680255585 -20.676470832763204 M-81.06562680255585 -20.676470832763204 C-80.77251844468603 -20.88093053475688, -80.47941008681622 -21.08539023675056, -79.70917560722665 -21.622672466799 M-81.06562680255585 -20.676470832763204 C-80.73933664060898 -20.904076724863884, -80.41304647866211 -21.131682616964564, -79.70917560722665 -21.622672466799 M-79.70917560722665 -21.622672466799 C-79.24522813135464 -21.90392015313062, -78.78128065548262 -22.185167839462242, -78.29488803951841 -22.480021901620027 M-79.70917560722665 -21.622672466799 C-79.40988017042783 -21.804107119441667, -79.110584733629 -21.985541772084332, -78.29488803951841 -22.480021901620027 M-78.29488803951841 -22.480021901620027 C-77.75803011890548 -22.760100334929884, -77.22117219829255 -23.04017876823974, -76.82857571041058 -23.244996104497716 M-78.29488803951841 -22.480021901620027 C-77.90970296349728 -22.680972709057432, -77.52451788747616 -22.88192351649484, -76.82857571041058 -23.244996104497716 M-76.82857571041058 -23.244996104497716 C-76.48379772614012 -23.397619090658722, -76.13901974186969 -23.55024207681973, -75.31626401178646 -23.91445163234599 M-76.82857571041058 -23.244996104497716 C-76.42182451216551 -23.42505279411521, -76.01507331392045 -23.6051094837327, -75.31626401178646 -23.91445163234599 M-75.31626401178646 -23.91445163234599 C-74.70355388358858 -24.139934623353145, -74.09084375539072 -24.365417614360297, -73.76416735680553 -24.485637548803172 M-75.31626401178646 -23.91445163234599 C-74.92667780819063 -24.057822956564642, -74.53709160459479 -24.201194280783298, -73.76416735680553 -24.485637548803172 M-73.76416735680553 -24.485637548803172 C-73.34872952233883 -24.608937317395196, -72.93329168787214 -24.73223708598722, -72.17866364354681 -24.956206728419538 M-73.76416735680553 -24.485637548803172 C-73.20709247883315 -24.65097444843967, -72.65001760086078 -24.816311348076166, -72.17866364354681 -24.956206728419538 M-72.17866364354681 -24.956206728419538 C-71.61812084128168 -25.084146965152925, -71.05757803901653 -25.212087201886312, -70.56626804685754 -25.324225501499278 M-72.17866364354681 -24.956206728419538 C-71.68757856223942 -25.068293693598307, -71.19649348093203 -25.180380658777075, -70.56626804685754 -25.324225501499278 M-70.56626804685754 -25.324225501499278 C-70.08177892639186 -25.402553945226924, -69.5972898059262 -25.480882388954573, -68.93360624610233 -25.588181599964017 M-70.56626804685754 -25.324225501499278 C-69.98262613046901 -25.418584200330315, -69.39898421408049 -25.512942899161352, -68.93360624610233 -25.588181599964017 M-68.93360624610233 -25.588181599964017 C-68.34344979407612 -25.64511328312401, -67.7532933420499 -25.702044966284003, -67.28738719882529 -25.746990371586765 M-68.93360624610233 -25.588181599964017 C-68.27912484485063 -25.651318633613723, -67.62464344359894 -25.71445566726343, -67.28738719882529 -25.746990371586765 M-67.28738719882529 -25.746990371586765 C-66.7392727606035 -25.764567334780505, -66.1911583223817 -25.782144297974245, -65.6343755722046 -25.799999237060547 M-67.28738719882529 -25.746990371586765 C-66.63013555961263 -25.76806715239361, -65.97288392039997 -25.78914393320045, -65.6343755722046 -25.799999237060547 M-65.6343755722046 -25.799999237060547 C-65.6343755722046 -25.799999237060547, -65.63437557220459 -25.799999237060547, -65.63437557220459 -25.799999237060547 M-65.6343755722046 -25.799999237060547 C-65.6343755722046 -25.799999237060547, -65.63437557220459 -25.799999237060547, -65.63437557220459 -25.799999237060547" stroke="#9370DB" stroke-width="1.3" fill="none" stroke-dasharray="0 0" style=""></path></g><g class="label" style="" transform="translate(0, -18.299999237060547)"><rect></rect><g><rect class="background" style="stroke: none"></rect><text y="-10.1" style=""><tspan class="text-outer-tspan row" x="0" y="-0.1em" dy="1.1em"><tspan font-style="normal" class="text-inner-tspan" font-weight="normal">Server</tspan><tspan font-style="normal" class="text-inner-tspan" font-weight="normal"> pushes</tspan><tspan font-style="normal" class="text-inner-tspan" font-weight="normal"> data</tspan><tspan font-style="normal" class="text-inner-tspan" font-weight="normal"> to</tspan></tspan><tspan class="text-outer-tspan row" x="0" y="1em" dy="1.1em"><tspan font-style="normal" class="text-inner-tspan" font-weight="normal">browser</tspan></tspan></text></g></g></g><g class="node default qBox" id="g7ee639b8-e0f1-4833-9355-3751af4b16c5-light-flowchart-Q1-1" data-look="classic" transform="translate(222.1796875, 224.39218139648438)"><polygon points="114.79218673706055,0 229.5843734741211,-114.79218673706055 114.79218673706055,-229.5843734741211 0,-114.79218673706055" class="label-container" transform="translate(-114.29218673706055, 114.79218673706055)" style="fill:#5A5A5A !important;stroke:#3D3D3D !important"></polygon><g class="label" style="color:#ffffff !important" transform="translate(0, -18.299999237060547)"><rect></rect><g><rect class="background" style="stroke: none"></rect><text y="-10.1" style="fill:#ffffff !important"><tspan class="text-outer-tspan row" x="0" y="-0.1em" dy="1.1em"><tspan font-style="normal" class="text-inner-tspan" font-weight="normal">POST,</tspan><tspan font-style="normal" class="text-inner-tspan" font-weight="normal"> custom</tspan><tspan font-style="normal" class="text-inner-tspan" font-weight="normal"> headers,</tspan></tspan><tspan class="text-outer-tspan row" x="0" y="1em" dy="1.1em"><tspan font-style="normal" class="text-inner-tspan" font-weight="normal">or</tspan><tspan font-style="normal" class="text-inner-tspan" font-weight="normal"> auth</tspan><tspan font-style="normal" class="text-inner-tspan" font-weight="normal"> tokens?</tspan></tspan></text></g></g></g><g class="node default fetchBox" id="g7ee639b8-e0f1-4833-9355-3751af4b16c5-light-flowchart-Fetch-3" data-look="classic" transform="translate(102.6796875, 735.3187446594238)"><rect class="basic label-container" style="fill:#2E5A88 !important;stroke:#1F4870 !important" x="-94.6796875" y="-33.29999923706055" width="189.359375" height="66.5999984741211"></rect><g class="label" style="color:#ffffff !important" transform="translate(0, -18.299999237060547)"><rect></rect><g><rect class="background" style="stroke: none"></rect><text y="-10.1" style="fill:#ffffff !important"><tspan class="text-outer-tspan row" x="0" y="-0.1em" dy="1.1em"><tspan font-style="normal" class="text-inner-tspan" font-weight="normal">Streaming</tspan><tspan font-style="normal" class="text-inner-tspan" font-weight="normal"> fetch</tspan></tspan><tspan class="text-outer-tspan row" x="0" y="1em" dy="1.1em"><tspan font-style="normal" class="text-inner-tspan" font-weight="normal">+</tspan><tspan font-style="normal" class="text-inner-tspan" font-weight="normal"> ReadableStream</tspan></tspan></text></g></g></g><g class="node default qBox" id="g7ee639b8-e0f1-4833-9355-3751af4b16c5-light-flowchart-Q2-5" data-look="classic" transform="translate(300.5523452758789, 520.6015548706055)"><polygon points="108.41718673706055,0 216.8343734741211,-108.41718673706055 108.41718673706055,-216.8343734741211 0,-108.41718673706055" class="label-container" transform="translate(-107.91718673706055, 108.41718673706055)" style="fill:#5A5A5A !important;stroke:#3D3D3D !important"></polygon><g class="label" style="color:#ffffff !important" transform="translate(0, -18.299999237060547)"><rect></rect><g><rect class="background" style="stroke: none"></rect><text y="-10.1" style="fill:#ffffff !important"><tspan class="text-outer-tspan row" x="0" y="-0.1em" dy="1.1em"><tspan font-style="normal" class="text-inner-tspan" font-weight="normal">Need</tspan><tspan font-style="normal" class="text-inner-tspan" font-weight="normal"> auto</tspan><tspan font-style="normal" class="text-inner-tspan" font-weight="normal"> reconnect</tspan></tspan><tspan class="text-outer-tspan row" x="0" y="1em" dy="1.1em"><tspan font-style="normal" class="text-inner-tspan" font-weight="normal">with</tspan><tspan font-style="normal" class="text-inner-tspan" font-weight="normal"> Last-Event-ID?</tspan></tspan></text></g></g></g><g class="node default sseBox" id="g7ee639b8-e0f1-4833-9355-3751af4b16c5-light-flowchart-SSE-9" data-look="classic" transform="translate(342.8453140258789, 735.3187446594238)"><rect class="basic label-container" style="fill:#1F6E68 !important;stroke:#155752 !important" x="-94.3203125" y="-24.5" width="188.640625" height="49"></rect><g class="label" style="color:#ffffff !important" transform="translate(0, -9.5)"><rect></rect><g><rect class="background" style="stroke: none"></rect><text y="-10.1" style="fill:#ffffff !important"><tspan class="text-outer-tspan row" x="0" y="-0.1em" dy="1.1em"><tspan font-style="normal" class="text-inner-tspan" font-weight="normal">EventSource</tspan><tspan font-style="normal" class="text-inner-tspan" font-weight="normal"> (SSE)</tspan></tspan></text></g></g></g></g></g></g><defs><filter id="g7ee639b8-e0f1-4833-9355-3751af4b16c5-light-drop-shadow" height="130%" width="130%"><feDropShadow dx="4" dy="4" stdDeviation="0" flood-opacity="0.06" flood-color="#000000"></feDropShadow></filter></defs><defs><filter id="g7ee639b8-e0f1-4833-9355-3751af4b16c5-light-drop-shadow-small" height="150%" width="150%"><feDropShadow dx="2" dy="2" stdDeviation="0" flood-opacity="0.06" flood-color="#000000"></feDropShadow></filter></defs></svg>