<svg id="gdfdca054-db2f-4ee6-8532-f5d671ca5aff-dark" width="100%" xmlns="http://www.w3.org/2000/svg" xmlns:xlink="http://www.w3.org/1999/xlink" class="flowchart" style="max-width: 848.2734375px;" viewBox="0 0 848.2734375 665.2281494140625" role="graphics-document document" aria-roledescription="flowchart-v2"><style>#gdfdca054-db2f-4ee6-8532-f5d671ca5aff-dark{font-family:"trebuchet ms",verdana,arial,sans-serif;font-size:16px;fill:#e5e5e5;}@keyframes edge-animation-frame{from{stroke-dashoffset:0;}}@keyframes dash{to{stroke-dashoffset:0;}}#gdfdca054-db2f-4ee6-8532-f5d671ca5aff-dark .edge-animation-slow{stroke-dasharray:9,5!important;stroke-dashoffset:900;animation:dash 50s linear infinite;stroke-linecap:round;}#gdfdca054-db2f-4ee6-8532-f5d671ca5aff-dark .edge-animation-fast{stroke-dasharray:9,5!important;stroke-dashoffset:900;animation:dash 20s linear infinite;stroke-linecap:round;}#gdfdca054-db2f-4ee6-8532-f5d671ca5aff-dark .error-icon{fill:#252525;}#gdfdca054-db2f-4ee6-8532-f5d671ca5aff-dark .error-text{fill:#cccccc;stroke:#cccccc;}#gdfdca054-db2f-4ee6-8532-f5d671ca5aff-dark .edge-thickness-normal{stroke-width:1px;}#gdfdca054-db2f-4ee6-8532-f5d671ca5aff-dark .edge-thickness-thick{stroke-width:3.5px;}#gdfdca054-db2f-4ee6-8532-f5d671ca5aff-dark .edge-pattern-solid{stroke-dasharray:0;}#gdfdca054-db2f-4ee6-8532-f5d671ca5aff-dark .edge-thickness-invisible{stroke-width:0;fill:none;}#gdfdca054-db2f-4ee6-8532-f5d671ca5aff-dark .edge-pattern-dashed{stroke-dasharray:3;}#gdfdca054-db2f-4ee6-8532-f5d671ca5aff-dark .edge-pattern-dotted{stroke-dasharray:2;}#gdfdca054-db2f-4ee6-8532-f5d671ca5aff-dark .marker{fill:#cccccc;stroke:#cccccc;}#gdfdca054-db2f-4ee6-8532-f5d671ca5aff-dark .marker.cross{stroke:#cccccc;}#gdfdca054-db2f-4ee6-8532-f5d671ca5aff-dark svg{font-family:"trebuchet ms",verdana,arial,sans-serif;font-size:16px;}#gdfdca054-db2f-4ee6-8532-f5d671ca5aff-dark p{margin:0;}#gdfdca054-db2f-4ee6-8532-f5d671ca5aff-dark .label{font-family:"trebuchet ms",verdana,arial,sans-serif;color:#e5e5e5;}#gdfdca054-db2f-4ee6-8532-f5d671ca5aff-dark .cluster-label text{fill:#e5e5e5;}#gdfdca054-db2f-4ee6-8532-f5d671ca5aff-dark .cluster-label span{color:#e5e5e5;}#gdfdca054-db2f-4ee6-8532-f5d671ca5aff-dark .cluster-label span p{background-color:transparent;}#gdfdca054-db2f-4ee6-8532-f5d671ca5aff-dark .label text,#gdfdca054-db2f-4ee6-8532-f5d671ca5aff-dark span{fill:#e5e5e5;color:#e5e5e5;}#gdfdca054-db2f-4ee6-8532-f5d671ca5aff-dark .node rect,#gdfdca054-db2f-4ee6-8532-f5d671ca5aff-dark .node circle,#gdfdca054-db2f-4ee6-8532-f5d671ca5aff-dark .node ellipse,#gdfdca054-db2f-4ee6-8532-f5d671ca5aff-dark .node polygon,#gdfdca054-db2f-4ee6-8532-f5d671ca5aff-dark .node path{fill:#2d2d2d;stroke:#555555;stroke-width:1px;}#gdfdca054-db2f-4ee6-8532-f5d671ca5aff-dark .rough-node .label text,#gdfdca054-db2f-4ee6-8532-f5d671ca5aff-dark .node .label text,#gdfdca054-db2f-4ee6-8532-f5d671ca5aff-dark .image-shape .label,#gdfdca054-db2f-4ee6-8532-f5d671ca5aff-dark .icon-shape .label{text-anchor:middle;}#gdfdca054-db2f-4ee6-8532-f5d671ca5aff-dark .node .katex path{fill:#000;stroke:#000;stroke-width:1px;}#gdfdca054-db2f-4ee6-8532-f5d671ca5aff-dark .rough-node .label,#gdfdca054-db2f-4ee6-8532-f5d671ca5aff-dark .node .label,#gdfdca054-db2f-4ee6-8532-f5d671ca5aff-dark .image-shape .label,#gdfdca054-db2f-4ee6-8532-f5d671ca5aff-dark .icon-shape .label{text-align:center;}#gdfdca054-db2f-4ee6-8532-f5d671ca5aff-dark .node.clickable{cursor:pointer;}#gdfdca054-db2f-4ee6-8532-f5d671ca5aff-dark .root .anchor path{fill:#cccccc!important;stroke-width:0;stroke:#cccccc;}#gdfdca054-db2f-4ee6-8532-f5d671ca5aff-dark .arrowheadPath{fill:#cccccc;}#gdfdca054-db2f-4ee6-8532-f5d671ca5aff-dark .edgePath .path{stroke:#cccccc;stroke-width:1px;}#gdfdca054-db2f-4ee6-8532-f5d671ca5aff-dark .flowchart-link{stroke:#cccccc;fill:none;}#gdfdca054-db2f-4ee6-8532-f5d671ca5aff-dark .edgeLabel{background-color:#1e1e1e;text-align:center;}#gdfdca054-db2f-4ee6-8532-f5d671ca5aff-dark .edgeLabel p{background-color:#1e1e1e;}#gdfdca054-db2f-4ee6-8532-f5d671ca5aff-dark .edgeLabel rect{opacity:0.5;background-color:#1e1e1e;fill:#1e1e1e;}#gdfdca054-db2f-4ee6-8532-f5d671ca5aff-dark .labelBkg{background-color:rgba(30, 30, 30, 0.5);}#gdfdca054-db2f-4ee6-8532-f5d671ca5aff-dark .cluster rect{fill:#1e1e1e;stroke:#555555;stroke-width:1px;}#gdfdca054-db2f-4ee6-8532-f5d671ca5aff-dark .cluster text{fill:#e5e5e5;}#gdfdca054-db2f-4ee6-8532-f5d671ca5aff-dark .cluster span{color:#e5e5e5;}#gdfdca054-db2f-4ee6-8532-f5d671ca5aff-dark div.mermaidTooltip{position:absolute;text-align:center;max-width:200px;padding:2px;font-family:"trebuchet ms",verdana,arial,sans-serif;font-size:12px;background:#252525;border:1px solid #555555;border-radius:2px;pointer-events:none;z-index:100;}#gdfdca054-db2f-4ee6-8532-f5d671ca5aff-dark .flowchartTitleText{text-anchor:middle;font-size:18px;fill:#e5e5e5;}#gdfdca054-db2f-4ee6-8532-f5d671ca5aff-dark rect.text{fill:none;stroke-width:0;}#gdfdca054-db2f-4ee6-8532-f5d671ca5aff-dark .icon-shape,#gdfdca054-db2f-4ee6-8532-f5d671ca5aff-dark .image-shape{background-color:#1e1e1e;text-align:center;}#gdfdca054-db2f-4ee6-8532-f5d671ca5aff-dark .icon-shape p,#gdfdca054-db2f-4ee6-8532-f5d671ca5aff-dark .image-shape p{background-color:#1e1e1e;padding:2px;}#gdfdca054-db2f-4ee6-8532-f5d671ca5aff-dark .icon-shape .label rect,#gdfdca054-db2f-4ee6-8532-f5d671ca5aff-dark .image-shape .label rect{opacity:0.5;background-color:#1e1e1e;fill:#1e1e1e;}#gdfdca054-db2f-4ee6-8532-f5d671ca5aff-dark .label-icon{display:inline-block;height:1em;overflow:visible;vertical-align:-0.125em;}#gdfdca054-db2f-4ee6-8532-f5d671ca5aff-dark .node .label-icon path{fill:currentColor;stroke:revert;stroke-width:revert;}#gdfdca054-db2f-4ee6-8532-f5d671ca5aff-dark .node .neo-node{stroke:#555555;}#gdfdca054-db2f-4ee6-8532-f5d671ca5aff-dark [data-look="neo"].node rect,#gdfdca054-db2f-4ee6-8532-f5d671ca5aff-dark [data-look="neo"].cluster rect,#gdfdca054-db2f-4ee6-8532-f5d671ca5aff-dark [data-look="neo"].node polygon{stroke:url(#gdfdca054-db2f-4ee6-8532-f5d671ca5aff-dark-gradient);filter:drop-shadow( 1px 2px 2px rgba(185,185,185,1));}#gdfdca054-db2f-4ee6-8532-f5d671ca5aff-dark [data-look="neo"].node path{stroke:url(#gdfdca054-db2f-4ee6-8532-f5d671ca5aff-dark-gradient);stroke-width:1px;}#gdfdca054-db2f-4ee6-8532-f5d671ca5aff-dark [data-look="neo"].node .outer-path{filter:drop-shadow( 1px 2px 2px rgba(185,185,185,1));}#gdfdca054-db2f-4ee6-8532-f5d671ca5aff-dark [data-look="neo"].node .neo-line path{stroke:#555555;filter:none;}#gdfdca054-db2f-4ee6-8532-f5d671ca5aff-dark [data-look="neo"].node circle{stroke:url(#gdfdca054-db2f-4ee6-8532-f5d671ca5aff-dark-gradient);filter:drop-shadow( 1px 2px 2px rgba(185,185,185,1));}#gdfdca054-db2f-4ee6-8532-f5d671ca5aff-dark [data-look="neo"].node circle .state-start{fill:#000000;}#gdfdca054-db2f-4ee6-8532-f5d671ca5aff-dark [data-look="neo"].icon-shape .icon{fill:url(#gdfdca054-db2f-4ee6-8532-f5d671ca5aff-dark-gradient);filter:drop-shadow( 1px 2px 2px rgba(185,185,185,1));}#gdfdca054-db2f-4ee6-8532-f5d671ca5aff-dark [data-look="neo"].icon-shape .icon-neo path{stroke:url(#gdfdca054-db2f-4ee6-8532-f5d671ca5aff-dark-gradient);filter:drop-shadow( 1px 2px 2px rgba(185,185,185,1));}#gdfdca054-db2f-4ee6-8532-f5d671ca5aff-dark :root{--mermaid-font-family:"trebuchet ms",verdana,arial,sans-serif;}#gdfdca054-db2f-4ee6-8532-f5d671ca5aff-dark .ok rect{fill:#2D7A2D!important;stroke:#1E5A1E!important;color:#ffffff!important;}#gdfdca054-db2f-4ee6-8532-f5d671ca5aff-dark .ok polygon{fill:#2D7A2D!important;stroke:#1E5A1E!important;color:#ffffff!important;}#gdfdca054-db2f-4ee6-8532-f5d671ca5aff-dark .ok ellipse{fill:#2D7A2D!important;stroke:#1E5A1E!important;color:#ffffff!important;}#gdfdca054-db2f-4ee6-8532-f5d671ca5aff-dark .ok circle{fill:#2D7A2D!important;stroke:#1E5A1E!important;color:#ffffff!important;}#gdfdca054-db2f-4ee6-8532-f5d671ca5aff-dark .ok path{fill:#2D7A2D!important;stroke:#1E5A1E!important;color:#ffffff!important;}#gdfdca054-db2f-4ee6-8532-f5d671ca5aff-dark .ok tspan{fill:#ffffff!important;}#gdfdca054-db2f-4ee6-8532-f5d671ca5aff-dark .err rect{fill:#B43A3A!important;stroke:#8E2828!important;color:#ffffff!important;}#gdfdca054-db2f-4ee6-8532-f5d671ca5aff-dark .err polygon{fill:#B43A3A!important;stroke:#8E2828!important;color:#ffffff!important;}#gdfdca054-db2f-4ee6-8532-f5d671ca5aff-dark .err ellipse{fill:#B43A3A!important;stroke:#8E2828!important;color:#ffffff!important;}#gdfdca054-db2f-4ee6-8532-f5d671ca5aff-dark .err circle{fill:#B43A3A!important;stroke:#8E2828!important;color:#ffffff!important;}#gdfdca054-db2f-4ee6-8532-f5d671ca5aff-dark .err path{fill:#B43A3A!important;stroke:#8E2828!important;color:#ffffff!important;}#gdfdca054-db2f-4ee6-8532-f5d671ca5aff-dark .err tspan{fill:#ffffff!important;}#gdfdca054-db2f-4ee6-8532-f5d671ca5aff-dark .neutral rect{fill:#5A5A5A!important;stroke:#3D3D3D!important;color:#ffffff!important;}#gdfdca054-db2f-4ee6-8532-f5d671ca5aff-dark .neutral polygon{fill:#5A5A5A!important;stroke:#3D3D3D!important;color:#ffffff!important;}#gdfdca054-db2f-4ee6-8532-f5d671ca5aff-dark .neutral ellipse{fill:#5A5A5A!important;stroke:#3D3D3D!important;color:#ffffff!important;}#gdfdca054-db2f-4ee6-8532-f5d671ca5aff-dark .neutral circle{fill:#5A5A5A!important;stroke:#3D3D3D!important;color:#ffffff!important;}#gdfdca054-db2f-4ee6-8532-f5d671ca5aff-dark .neutral path{fill:#5A5A5A!important;stroke:#3D3D3D!important;color:#ffffff!important;}#gdfdca054-db2f-4ee6-8532-f5d671ca5aff-dark .neutral tspan{fill:#ffffff!important;}#gdfdca054-db2f-4ee6-8532-f5d671ca5aff-dark .api rect{fill:#2E5A88!important;stroke:#1F4870!important;color:#ffffff!important;}#gdfdca054-db2f-4ee6-8532-f5d671ca5aff-dark .api polygon{fill:#2E5A88!important;stroke:#1F4870!important;color:#ffffff!important;}#gdfdca054-db2f-4ee6-8532-f5d671ca5aff-dark .api ellipse{fill:#2E5A88!important;stroke:#1F4870!important;color:#ffffff!important;}#gdfdca054-db2f-4ee6-8532-f5d671ca5aff-dark .api circle{fill:#2E5A88!important;stroke:#1F4870!important;color:#ffffff!important;}#gdfdca054-db2f-4ee6-8532-f5d671ca5aff-dark .api path{fill:#2E5A88!important;stroke:#1F4870!important;color:#ffffff!important;}#gdfdca054-db2f-4ee6-8532-f5d671ca5aff-dark .api tspan{fill:#ffffff!important;}</style><g><marker id="gdfdca054-db2f-4ee6-8532-f5d671ca5aff-dark_flowchart-v2-pointEnd" class="marker flowchart-v2" viewBox="0 0 10 10" refX="5" refY="5" markerUnits="userSpaceOnUse" markerWidth="8" markerHeight="8" orient="auto"><path d="M 0 0 L 10 5 L 0 10 z" class="arrowMarkerPath" style="stroke-width: 1; stroke-dasharray: 1, 0;"></path></marker><marker id="gdfdca054-db2f-4ee6-8532-f5d671ca5aff-dark_flowchart-v2-pointStart" class="marker flowchart-v2" viewBox="0 0 10 10" refX="4.5" refY="5" markerUnits="userSpaceOnUse" markerWidth="8" markerHeight="8" orient="auto"><path d="M 0 5 L 10 10 L 10 0 z" class="arrowMarkerPath" style="stroke-width: 1; stroke-dasharray: 1, 0;"></path></marker><marker id="gdfdca054-db2f-4ee6-8532-f5d671ca5aff-dark_flowchart-v2-pointEnd-margin" class="marker flowchart-v2" viewBox="0 0 11.5 14" refX="11.5" refY="7" markerUnits="userSpaceOnUse" markerWidth="10.5" markerHeight="14" orient="auto"><path d="M 0 0 L 11.5 7 L 0 14 z" class="arrowMarkerPath" style="stroke-width: 0; stroke-dasharray: 1, 0;"></path></marker><marker id="gdfdca054-db2f-4ee6-8532-f5d671ca5aff-dark_flowchart-v2-pointStart-margin" class="marker flowchart-v2" viewBox="0 0 11.5 14" refX="1" refY="7" markerUnits="userSpaceOnUse" markerWidth="11.5" markerHeight="14" orient="auto"><polygon points="0,7 11.5,14 11.5,0" class="arrowMarkerPath" style="stroke-width: 0; stroke-dasharray: 1, 0;"></polygon></marker><marker id="gdfdca054-db2f-4ee6-8532-f5d671ca5aff-dark_flowchart-v2-circleEnd" class="marker flowchart-v2" viewBox="0 0 10 10" refX="11" refY="5" markerUnits="userSpaceOnUse" markerWidth="11" markerHeight="11" orient="auto"><circle cx="5" cy="5" r="5" class="arrowMarkerPath" style="stroke-width: 1; stroke-dasharray: 1, 0;"></circle></marker><marker id="gdfdca054-db2f-4ee6-8532-f5d671ca5aff-dark_flowchart-v2-circleStart" class="marker flowchart-v2" viewBox="0 0 10 10" refX="-1" refY="5" markerUnits="userSpaceOnUse" markerWidth="11" markerHeight="11" orient="auto"><circle cx="5" cy="5" r="5" class="arrowMarkerPath" style="stroke-width: 1; stroke-dasharray: 1, 0;"></circle></marker><marker id="gdfdca054-db2f-4ee6-8532-f5d671ca5aff-dark_flowchart-v2-circleEnd-margin" class="marker flowchart-v2" viewBox="0 0 10 10" refY="5" refX="12.25" markerUnits="userSpaceOnUse" markerWidth="14" markerHeight="14" orient="auto"><circle cx="5" cy="5" r="5" class="arrowMarkerPath" style="stroke-width: 0; stroke-dasharray: 1, 0;"></circle></marker><marker id="gdfdca054-db2f-4ee6-8532-f5d671ca5aff-dark_flowchart-v2-circleStart-margin" class="marker flowchart-v2" viewBox="0 0 10 10" refX="-2" refY="5" markerUnits="userSpaceOnUse" markerWidth="14" markerHeight="14" orient="auto"><circle cx="5" cy="5" r="5" class="arrowMarkerPath" style="stroke-width: 0; stroke-dasharray: 1, 0;"></circle></marker><marker id="gdfdca054-db2f-4ee6-8532-f5d671ca5aff-dark_flowchart-v2-crossEnd" class="marker cross flowchart-v2" viewBox="0 0 11 11" refX="12" refY="5.2" markerUnits="userSpaceOnUse" markerWidth="11" markerHeight="11" orient="auto"><path d="M 1,1 l 9,9 M 10,1 l -9,9" class="arrowMarkerPath" style="stroke-width: 2; stroke-dasharray: 1, 0;"></path></marker><marker id="gdfdca054-db2f-4ee6-8532-f5d671ca5aff-dark_flowchart-v2-crossStart" class="marker cross flowchart-v2" viewBox="0 0 11 11" refX="-1" refY="5.2" markerUnits="userSpaceOnUse" markerWidth="11" markerHeight="11" orient="auto"><path d="M 1,1 l 9,9 M 10,1 l -9,9" class="arrowMarkerPath" style="stroke-width: 2; stroke-dasharray: 1, 0;"></path></marker><marker id="gdfdca054-db2f-4ee6-8532-f5d671ca5aff-dark_flowchart-v2-crossEnd-margin" class="marker cross flowchart-v2" viewBox="0 0 15 15" refX="17.7" refY="7.5" markerUnits="userSpaceOnUse" markerWidth="12" markerHeight="12" orient="auto"><path d="M 1,1 L 14,14 M 1,14 L 14,1" class="arrowMarkerPath" style="stroke-width: 2.5;"></path></marker><marker id="gdfdca054-db2f-4ee6-8532-f5d671ca5aff-dark_flowchart-v2-crossStart-margin" class="marker cross flowchart-v2" viewBox="0 0 15 15" refX="-3.5" refY="7.5" markerUnits="userSpaceOnUse" markerWidth="12" markerHeight="12" orient="auto"><path d="M 1,1 L 14,14 M 1,14 L 14,1" class="arrowMarkerPath" style="stroke-width: 2.5; stroke-dasharray: 1, 0;"></path></marker><g class="root"><g class="clusters"></g><g class="edgePaths"><path d="M362.359,60.1L362.276,64.183C362.193,68.267,362.026,76.433,361.943,84.017C361.859,91.6,361.859,98.6,361.859,102.1L361.859,105.6" id="gdfdca054-db2f-4ee6-8532-f5d671ca5aff-dark-L_R_Q_0" class="edge-thickness-normal edge-pattern-solid edge-thickness-normal edge-pattern-solid flowchart-link" style=";" data-edge="true" data-et="edge" data-id="L_R_Q_0" data-points="W3sieCI6MzYyLjM1OTM3NSwieSI6NjAuMDk5OTk4NDc0MTIxMDl9LHsieCI6MzYxLjg1OTM3NSwieSI6ODQuNTk5OTk4NDc0MTIxMX0seyJ4IjozNjEuODU5Mzc1LCJ5IjoxMDkuNTk5OTk4NDc0MTIxMX1d" data-look="classic" marker-end="url(#gdfdca054-db2f-4ee6-8532-f5d671ca5aff-dark_flowchart-v2-pointEnd)"></path><path d="M303.914,223.702L271.43,239.443C238.945,255.183,173.977,286.665,141.492,312.921C109.008,339.177,109.008,360.207,109.008,370.722L109.008,381.237" id="gdfdca054-db2f-4ee6-8532-f5d671ca5aff-dark-L_Q_S_0" class="edge-thickness-normal edge-pattern-solid edge-thickness-normal edge-pattern-solid flowchart-link" style=";" data-edge="true" data-et="edge" data-id="L_Q_S_0" data-points="W3sieCI6MzAzLjkxNDIyNTI2MDQxNjcsInkiOjIyMy43MDE3MjM3MzQ1Mzc3NX0seyJ4IjoxMDkuMDA3ODEyNSwieSI6MzE4LjE0Njg3MzQ3NDEyMTF9LHsieCI6MTA5LjAwNzgxMjUsInkiOjM4NS4yMzc0OTkyMzcwNjA1NX1d" data-look="classic" marker-end="url(#gdfdca054-db2f-4ee6-8532-f5d671ca5aff-dark_flowchart-v2-pointEnd)"></path><path d="M361.859,281.647L361.859,287.73C361.859,293.814,361.859,305.98,361.859,322.579C361.859,339.177,361.859,360.207,361.859,370.722L361.859,381.237" id="gdfdca054-db2f-4ee6-8532-f5d671ca5aff-dark-L_Q_C_0" class="edge-thickness-normal edge-pattern-solid edge-thickness-normal edge-pattern-solid flowchart-link" style=";" data-edge="true" data-et="edge" data-id="L_Q_C_0" data-points="W3sieCI6MzYxLjg1OTM3NSwieSI6MjgxLjY0Njg3MzQ3NDEyMTE1fSx7IngiOjM2MS44NTkzNzUsInkiOjMxOC4xNDY4NzM0NzQxMjExfSx7IngiOjM2MS44NTkzNzUsInkiOjM4NS4yMzc0OTkyMzcwNjA1NX1d" data-look="classic" marker-end="url(#gdfdca054-db2f-4ee6-8532-f5d671ca5aff-dark_flowchart-v2-pointEnd)"></path><path d="M416.723,226.783L443.535,242.01C470.347,257.237,523.97,287.692,550.782,308.336C577.594,328.98,577.594,339.814,577.594,345.23L577.594,350.647" id="gdfdca054-db2f-4ee6-8532-f5d671ca5aff-dark-L_Q_V_0" class="edge-thickness-normal edge-pattern-solid edge-thickness-normal edge-pattern-solid flowchart-link" style=";" data-edge="true" data-et="edge" data-id="L_Q_V_0" data-points="W3sieCI6NDE2LjcyMzQ4MTEzMDMzMjM1LCJ5IjoyMjYuNzgyNzY3MzQzNzg4NzV9LHsieCI6NTc3LjU5Mzc1LCJ5IjozMTguMTQ2ODczNDc0MTIxMX0seyJ4Ijo1NzcuNTkzNzUsInkiOjM1NC42NDY4NzM0NzQxMjExfV0=" data-look="classic" marker-end="url(#gdfdca054-db2f-4ee6-8532-f5d671ca5aff-dark_flowchart-v2-pointEnd)"></path><path d="M541.605,446.44L524.131,459.988C506.656,473.536,471.707,500.632,454.232,522.53C436.758,544.428,436.758,561.128,436.758,569.478L436.758,577.828" id="gdfdca054-db2f-4ee6-8532-f5d671ca5aff-dark-L_V_V1_0" class="edge-thickness-normal edge-pattern-solid edge-thickness-normal edge-pattern-solid flowchart-link" style=";" data-edge="true" data-et="edge" data-id="L_V_V1_0" data-points="W3sieCI6NTQxLjYwNTE4OTM5NzM5MTksInkiOjQ0Ni40Mzk1NjI4NzE1MTN9LHsieCI6NDM2Ljc1NzgxMjUsInkiOjUyNy43MjgxMjI3MTExODE2fSx7IngiOjQzNi43NTc4MTI1LCJ5Ijo1ODEuODI4MTIxMTg1MzAyN31d" data-look="classic" marker-end="url(#gdfdca054-db2f-4ee6-8532-f5d671ca5aff-dark_flowchart-v2-pointEnd)"></path><path d="M613.582,446.44L631.057,459.988C648.531,473.536,683.481,500.632,700.955,521.063C718.43,541.495,718.43,555.261,718.43,562.145L718.43,569.028" id="gdfdca054-db2f-4ee6-8532-f5d671ca5aff-dark-L_V_V2_0" class="edge-thickness-normal edge-pattern-solid edge-thickness-normal edge-pattern-solid flowchart-link" style=";" data-edge="true" data-et="edge" data-id="L_V_V2_0" data-points="W3sieCI6NjEzLjU4MjMxMDYwMjYwOCwieSI6NDQ2LjQzOTU2Mjg3MTUxM30seyJ4Ijo3MTguNDI5Njg3NSwieSI6NTI3LjcyODEyMjcxMTE4MTZ9LHsieCI6NzE4LjQyOTY4NzUsInkiOjU3My4wMjgxMjE5NDgyNDIyfV0=" data-look="classic" marker-end="url(#gdfdca054-db2f-4ee6-8532-f5d671ca5aff-dark_flowchart-v2-pointEnd)"></path></g><g class="edgeLabels"><g class="edgeLabel"><g class="label" data-id="L_R_Q_0" transform="translate(0, 0)"><text y="-10.1" text-anchor="middle"><tspan class="text-outer-tspan row" x="0" y="-0.1em" dy="1.1em" text-anchor="middle"></tspan></text></g></g><g><rect class="background" style="stroke: none"></rect></g><g class="edgeLabel" transform="translate(109.0078125, 318.1468734741211)"><g class="label" data-id="L_Q_S_0" transform="translate(0, -10.5)"><g><rect class="background" style="" x="-42.9921875" y="-1" width="85.984375" height="23"></rect><text y="-10.1" text-anchor="middle" style=""><tspan class="text-outer-tspan row" x="0" y="-0.1em" dy="1.1em" text-anchor="middle"><tspan font-style="normal" class="text-inner-tspan" font-weight="normal">2xx</tspan><tspan font-style="normal" class="text-inner-tspan" font-weight="normal"> success</tspan></tspan></text></g></g></g><g class="edgeLabel" transform="translate(361.859375, 318.1468734741211)"><g class="label" data-id="L_Q_C_0" transform="translate(0, -10.5)"><g><rect class="background" style="" x="-57.53125" y="-1" width="115.0625" height="23"></rect><text y="-10.1" text-anchor="middle" style=""><tspan class="text-outer-tspan row" x="0" y="-0.1em" dy="1.1em" text-anchor="middle"><tspan font-style="normal" class="text-inner-tspan" font-weight="normal">4xx</tspan><tspan font-style="normal" class="text-inner-tspan" font-weight="normal"> client</tspan><tspan font-style="normal" class="text-inner-tspan" font-weight="normal"> error</tspan></tspan></text></g></g></g><g class="edgeLabel" transform="translate(577.59375, 318.1468734741211)"><g class="label" data-id="L_Q_V_0" transform="translate(0, -10.5)"><g><rect class="background" style="" x="-73.0703125" y="-1" width="146.140625" height="23"></rect><text y="-10.1" text-anchor="middle" style=""><tspan class="text-outer-tspan row" x="0" y="-0.1em" dy="1.1em" text-anchor="middle"><tspan font-style="normal" class="text-inner-tspan" font-weight="normal">5xx</tspan><tspan font-style="normal" class="text-inner-tspan" font-weight="normal"> /</tspan><tspan font-style="normal" class="text-inner-tspan" font-weight="normal"> partial</tspan><tspan font-style="normal" class="text-inner-tspan" font-weight="normal"> failure</tspan></tspan></text></g></g></g><g class="edgeLabel" transform="translate(436.7578125, 527.7281227111816)"><g class="label" data-id="L_V_V1_0" transform="translate(0, -19.299999237060547)"><g><rect class="background" style="" x="-54.71875" y="-1" width="109.4375" height="40.599998474121094"></rect><text y="-10.1" text-anchor="middle" style=""><tspan class="text-outer-tspan row" x="0" y="-0.1em" dy="1.1em" text-anchor="middle"><tspan font-style="normal" class="text-inner-tspan" font-weight="normal">v1</tspan></tspan><tspan class="text-outer-tspan row" x="0" y="1em" dy="1.1em" text-anchor="middle"><tspan font-style="normal" class="text-inner-tspan" font-weight="normal">POST</tspan><tspan font-style="normal" class="text-inner-tspan" font-weight="normal"> only,</tspan><tspan font-style="normal" class="text-inner-tspan" font-weight="normal"> 24h</tspan></tspan></text></g></g></g><g class="edgeLabel" transform="translate(718.4296875, 527.7281227111816)"><g class="label" data-id="L_V_V2_0" transform="translate(0, -19.299999237060547)"><g><rect class="background" style="" x="-73.875" y="-1" width="147.75" height="40.599998474121094"></rect><text y="-10.1" text-anchor="middle" style=""><tspan class="text-outer-tspan row" x="0" y="-0.1em" dy="1.1em" text-anchor="middle"><tspan font-style="normal" class="text-inner-tspan" font-weight="normal">v2</tspan></tspan><tspan class="text-outer-tspan row" x="0" y="1em" dy="1.1em" text-anchor="middle"><tspan font-style="normal" class="text-inner-tspan" font-weight="normal">POST</tspan><tspan font-style="normal" class="text-inner-tspan" font-weight="normal"> +</tspan><tspan font-style="normal" class="text-inner-tspan" font-weight="normal"> DELETE,</tspan><tspan font-style="normal" class="text-inner-tspan" font-weight="normal"> 30d</tspan></tspan></text></g></g></g></g><g class="nodes"><g class="node default api" id="gdfdca054-db2f-4ee6-8532-f5d671ca5aff-dark-flowchart-R-0" data-look="classic" transform="translate(361.859375, 33.79999923706055)"><g class="basic label-container outer-path"><path d="M-50.00156307220459 -25.799999237060547 C-16.783784480541946 -25.799999237060547, 16.433994111120697 -25.799999237060547, 50.00156307220459 -25.799999237060547 C50.00156307220459 -25.799999237060547, 50.00156307220459 -25.799999237060547, 50.00156307220459 -25.799999237060547 C50.60628019781398 -25.780607135852733, 51.21099732342336 -25.76121503464492, 51.654574698825286 -25.746990371586765 C52.21178132316144 -25.69323731867607, 52.7689879474976 -25.63948426576537, 53.30079374610231 -25.58818159996402 C53.76372730133487 -25.51333809285736, 54.22666085656743 -25.4384945857507, 54.93345554685753 -25.32422550149928 C55.26102802913088 -25.249459220030605, 55.58860051140422 -25.174692938561932, 56.545851143546784 -24.956206728419545 C57.048403029238685 -24.807051966694868, 57.550954914930585 -24.657897204970194, 58.131354856805515 -24.48563754880318 C58.74276708351286 -24.26063219754221, 59.354179310220196 -24.03562684628124, 59.68345151178644 -23.914451632345997 C60.01065737431683 -23.76960730322084, 60.33786323684722 -23.624762974095688, 61.19576321041056 -23.24499610449772 C61.542019607312106 -23.06435436402199, 61.88827600421365 -22.883712623546263, 62.6620755395184 -22.480021901620034 C63.05308317307727 -22.24299077634074, 63.44409080663613 -22.005959651061442, 64.07636310722664 -21.62267246679901 C64.58475399154675 -21.26804099378398, 65.09314487586686 -20.91340952076895, 65.43281430255584 -20.67647083276321 C65.81774495242605 -20.369498882926504, 66.20267560229628 -20.062526933089792, 66.7258551765865 -19.64530514498651 C67.05092061356831 -19.350089315879792, 67.37598605055011 -19.054873486773076, 67.95017234701088 -18.533412684464313 C68.39713798606465 -18.07188396557987, 68.84410362511841 -17.610355246695427, 69.10073483196044 -17.345362455817106 C69.50552881242669 -16.869868412931456, 69.91032279289293 -16.39437437004581, 70.17281472338968 -16.086036412270357 C70.43888366915121 -15.729528264329504, 70.70495261491276 -15.373020116388652, 71.16200661506427 -14.76060939466161 C71.39802396867528 -14.398023359981687, 71.63404132228628 -14.035437325301766, 72.06424570532036 -13.374527866909407 C72.23642990588009 -13.068797383274676, 72.4086141064398 -12.763066899639947, 72.8758245002064 -11.93348753532484 C73.03609469281913 -11.60068305113173, 73.19636488543188 -11.267878566938622, 73.59340804837109 -10.443409943732584 C73.74856219057288 -10.060176212792886, 73.90371633277466 -9.676942481853185, 74.21404764509381 -8.910418140577123 C74.40478164556494 -8.335957720494108, 74.59551564603608 -7.761497300411092, 74.7351929491449 -7.340811518003323 C74.83168948007726 -6.972828423697185, 74.92818601100961 -6.604845329391047, 75.15470246268467 -5.741039926302914 C75.24310700018684 -5.287101310534875, 75.33151153768902 -4.833162694766835, 75.47085233113748 -4.117677170096137 C75.52896793072216 -3.6669440559405233, 75.58708353030684 -3.2162109417849094, 75.68234342687991 -2.4773939951584394 C75.72406773017433 -1.827504292096501, 75.76579203346874 -1.1776145890345628, 75.78830668763487 -0.8269306768952902 C75.78830668763487 -0.28962647483289794, 75.78830668763487 0.24767772722949433, 75.78830668763487 0.826930676895284 C75.7482032867467 1.4515735166110764, 75.70809988585853 2.0762163563268685, 75.68234342687991 2.4773939951584216 C75.60248469020712 3.0967625869013045, 75.52262595353434 3.716131178644187, 75.47085233113748 4.117677170096119 C75.34666124590511 4.755372144969179, 75.22247016067273 5.393067119842239, 75.15470246268467 5.741039926302909 C75.04945363213291 6.142399332328451, 74.94420480158117 6.543758738353994, 74.7351929491449 7.340811518003306 C74.54993608510244 7.898775675826355, 74.36467922105999 8.456739833649404, 74.21404764509383 8.910418140577105 C73.99923134206486 9.441018562249337, 73.78441503903589 9.971618983921568, 73.59340804837109 10.443409943732577 C73.41792715962666 10.807799763899931, 73.24244627088221 11.172189584067285, 72.8758245002064 11.933487535324835 C72.57800754507647 12.462291696394873, 72.28019058994654 12.991095857464911, 72.06424570532037 13.374527866909402 C71.71433796447138 13.912080120237976, 71.3644302236224 14.449632373566548, 71.16200661506429 14.760609394661596 C70.80264829964362 15.242116799109269, 70.44328998422294 15.723624203556941, 70.17281472338968 16.086036412270353 C69.94890421360166 16.349054437936296, 69.72499370381365 16.612072463602235, 69.10073483196045 17.345362455817092 C68.64767252094455 17.81318648904852, 68.19461020992864 18.281010522279942, 67.95017234701088 18.533412684464306 C67.66083213137765 18.796183812779812, 67.37149191574441 19.058954941095323, 66.72585517658653 19.64530514498649 C66.44690976324371 19.867756689078195, 66.16796434990088 20.090208233169896, 65.43281430255584 20.676470832763208 C65.11289230950614 20.899634565914816, 64.79297031645642 21.122798299066424, 64.07636310722665 21.622672466799003 C63.72186007690978 21.837574287068144, 63.3673570465929 22.052476107337284, 62.662075539518405 22.48002190162003 C62.325364705530205 22.655683728038092, 61.988653871542 22.831345554456156, 61.19576321041057 23.244996104497716 C60.872650501466694 23.388028515949205, 60.54953779252282 23.5310609274007, 59.68345151178645 23.914451632345994 C59.22224791785084 24.084178818233585, 58.76104432391523 24.253906004121177, 58.13135485680553 24.485637548803172 C57.608534540273354 24.64080787441008, 57.08571422374118 24.795978200016986, 56.54585114354681 24.95620672841954 C56.07546178674924 25.063570029531167, 55.60507242995167 25.170933330642793, 54.933455546857545 25.324225501499278 C54.48393831668075 25.39689996121608, 54.034421086503954 25.46957442093288, 53.30079374610233 25.588181599964017 C52.75810612494856 25.640534022099366, 52.215418503794794 25.692886444234716, 51.654574698825286 25.746990371586765 C51.10783649873965 25.764523201502165, 50.56109829865402 25.78205603141756, 50.0015630722046 25.799999237060547 C50.0015630722046 25.799999237060547, 50.00156307220459 25.799999237060547, 50.00156307220459 25.799999237060547 C18.278735175228196 25.799999237060547, -13.444092721748198 25.799999237060547, -50.00156307220458 25.799999237060547 C-50.37783703319471 25.787932863504427, -50.75411099418484 25.77586648994831, -51.65457469882527 25.746990371586765 C-52.137938937428466 25.70036080481926, -52.62130317603166 25.653731238051762, -53.300793746102315 25.588181599964017 C-53.898486123858376 25.49155133150203, -54.496178501614445 25.394921063040048, -54.93345554685753 25.324225501499278 C-55.50907200455783 25.192844801277612, -56.084688462258136 25.061464101055943, -56.545851143546784 24.956206728419545 C-57.15020866075406 24.776836589649772, -57.75456617796134 24.597466450879995, -58.1313548568055 24.485637548803183 C-58.580119920808876 24.320487856911164, -59.02888498481225 24.155338165019145, -59.683451511786444 23.914451632345997 C-60.03710578029899 23.75789937845663, -60.390760048811536 23.601347124567265, -61.19576321041056 23.244996104497723 C-61.76388613869695 22.948606736710822, -62.332009066983325 22.652217368923917, -62.6620755395184 22.480021901620038 C-63.03118610020174 22.256264910599374, -63.40029666088507 22.03250791957871, -64.07636310722663 21.622672466799017 C-64.3684375892542 21.418933951837133, -64.66051207128176 21.21519543687525, -65.43281430255584 20.67647083276321 C-65.71519049392731 20.451283334490494, -65.99756668529879 20.226095836217777, -66.7258551765865 19.645305144986512 C-67.08559277034882 19.318600980466723, -67.44533036411116 18.991896815946934, -67.95017234701086 18.533412684464324 C-68.20508005180574 18.270199550951837, -68.45998775660061 18.006986417439347, -69.10073483196044 17.3453624558171 C-69.44829644389957 16.937096809617426, -69.7958580558387 16.528831163417756, -70.17281472338968 16.08603641227036 C-70.49428745088788 15.655292244190719, -70.8157601783861 15.224548076111077, -71.16200661506427 14.760609394661614 C-71.47559756830212 14.278849479526686, -71.78918852153997 13.797089564391756, -72.06424570532036 13.374527866909418 C-72.3350085329503 12.893761048743098, -72.60577136058022 12.412994230576778, -72.87582450020639 11.933487535324842 C-73.11939294374189 11.427712450793589, -73.36296138727737 10.921937366262334, -73.59340804837109 10.443409943732586 C-73.80253779133612 9.926855435360416, -74.01166753430117 9.410300926988246, -74.21404764509381 8.910418140577127 C-74.3511867162299 8.497377108458883, -74.48832578736601 8.084336076340639, -74.7351929491449 7.340811518003316 C-74.82679714970692 6.991484999748689, -74.91840135026894 6.642158481494062, -75.15470246268467 5.741039926302918 C-75.24862439280675 5.258770665533046, -75.34254632292881 4.776501404763174, -75.47085233113748 4.117677170096139 C-75.55472701789355 3.4671616625462613, -75.63860170464964 2.8166461549963837, -75.68234342687991 2.477393995158454 C-75.71127585588371 2.026748059587952, -75.7402082848875 1.5761021240174502, -75.78830668763487 0.8269306768952934 C-75.78830668763487 0.2569094387489592, -75.78830668763487 -0.313111799397375, -75.78830668763487 -0.8269306768952809 C-75.76173088731973 -1.2408702184035685, -75.73515508700459 -1.6548097599118563, -75.68234342687991 -2.4773939951584185 C-75.63301308452169 -2.859990389110816, -75.58368274216349 -3.242586783063213, -75.47085233113748 -4.117677170096128 C-75.36603733964034 -4.655879998777613, -75.2612223481432 -5.194082827459098, -75.15470246268467 -5.741039926302906 C-74.98989188403897 -6.369534092035596, -74.82508130539325 -6.998028257768286, -74.7351929491449 -7.340811518003303 C-74.53375667998009 -7.9475054662167635, -74.33232041081527 -8.554199414430224, -74.21404764509383 -8.910418140577093 C-74.01351082930188 -9.405747952698796, -73.81297401350992 -9.901077764820501, -73.59340804837109 -10.443409943732574 C-73.33216892073726 -10.985878581886116, -73.07092979310343 -11.528347220039656, -72.8758245002064 -11.933487535324831 C-72.62057934150054 -12.386701160982081, -72.3653341827947 -12.83991478663933, -72.06424570532036 -13.374527866909409 C-71.84611200125117 -13.709639813460793, -71.62797829718198 -14.044751760012177, -71.16200661506429 -14.760609394661605 C-70.85022482429238 -15.178368590390498, -70.53844303352047 -15.59612778611939, -70.17281472338968 -16.086036412270353 C-69.78172443346233 -16.545433320486936, -69.39063414353498 -17.00483022870352, -69.10073483196045 -17.345362455817092 C-68.80735214863836 -17.648304163513416, -68.51396946531626 -17.95124587120974, -67.95017234701089 -18.5334126844643 C-67.49979460043721 -18.942433837560333, -67.04941685386353 -19.351454990656364, -66.72585517658653 -19.645305144986487 C-66.32122271532569 -19.96798876512, -65.91659025406486 -20.290672385253515, -65.43281430255585 -20.676470832763204 C-64.95847902749682 -21.007346587001273, -64.48414375243779 -21.338222341239337, -64.07636310722665 -21.622672466799 C-63.58472765551072 -21.92070476679981, -63.09309220379478 -22.218737066800614, -62.662075539518405 -22.480021901620027 C-62.35052524366936 -22.642557491406986, -62.038974947820314 -22.805093081193945, -61.195763210410576 -23.244996104497716 C-60.67177927467814 -23.47694824941527, -60.1477953389457 -23.708900394332822, -59.68345151178645 -23.91445163234599 C-59.17747257294627 -24.100656559057214, -58.67149363410609 -24.28686148576844, -58.13135485680553 -24.485637548803172 C-57.55605765741806 -24.656382737784753, -56.98076045803059 -24.82712792676633, -56.54585114354682 -24.956206728419538 C-56.13576608391879 -25.049805967224533, -55.72568102429076 -25.143405206029524, -54.933455546857545 -25.324225501499278 C-54.318131991374756 -25.423706242044293, -53.70280843589197 -25.52318698258931, -53.30079374610233 -25.588181599964017 C-52.878214466841435 -25.628947314808375, -52.45563518758054 -25.669713029652737, -51.654574698825286 -25.746990371586765 C-51.19056420163714 -25.761870285089948, -50.72655370444898 -25.776750198593128, -50.0015630722046 -25.799999237060547 C-50.0015630722046 -25.799999237060547, -50.00156307220459 -25.799999237060547, -50.00156307220459 -25.799999237060547" stroke="none" stroke-width="0" fill="#2E5A88" style="fill:#2E5A88 !important;stroke:#1F4870 !important"></path><path d="M-50.00156307220459 -25.799999237060547 C-29.49974078264068 -25.799999237060547, -8.997918493076767 -25.799999237060547, 50.00156307220459 -25.799999237060547 M-50.00156307220459 -25.799999237060547 C-29.72118710001355 -25.799999237060547, -9.440811127822514 -25.799999237060547, 50.00156307220459 -25.799999237060547 M50.00156307220459 -25.799999237060547 C50.00156307220459 -25.799999237060547, 50.00156307220459 -25.799999237060547, 50.00156307220459 -25.799999237060547 M50.00156307220459 -25.799999237060547 C50.00156307220459 -25.799999237060547, 50.00156307220459 -25.799999237060547, 50.00156307220459 -25.799999237060547 M50.00156307220459 -25.799999237060547 C50.54684842871132 -25.782512997010937, 51.092133785218046 -25.765026756961323, 51.654574698825286 -25.746990371586765 M50.00156307220459 -25.799999237060547 C50.36292983607056 -25.788410908301103, 50.72429659993654 -25.776822579541655, 51.654574698825286 -25.746990371586765 M51.654574698825286 -25.746990371586765 C52.10447203981546 -25.703589316182157, 52.55436938080563 -25.660188260777552, 53.30079374610231 -25.58818159996402 M51.654574698825286 -25.746990371586765 C51.993947108112415 -25.71425152341787, 52.33331951739954 -25.68151267524898, 53.30079374610231 -25.58818159996402 M53.30079374610231 -25.58818159996402 C53.8093519667176 -25.505961850782843, 54.317910187332885 -25.42374210160167, 54.93345554685753 -25.32422550149928 M53.30079374610231 -25.58818159996402 C53.63564974894437 -25.534044678271602, 53.970505751786426 -25.479907756579184, 54.93345554685753 -25.32422550149928 M54.93345554685753 -25.32422550149928 C55.53320768448828 -25.187335989833517, 56.132959822119034 -25.050446478167757, 56.545851143546784 -24.956206728419545 M54.93345554685753 -25.32422550149928 C55.30248235227572 -25.239997541287536, 55.67150915769391 -25.15576958107579, 56.545851143546784 -24.956206728419545 M56.545851143546784 -24.956206728419545 C57.04335252399371 -24.808550930140935, 57.54085390444063 -24.660895131862326, 58.131354856805515 -24.48563754880318 M56.545851143546784 -24.956206728419545 C57.07366862898188 -24.79955326931293, 57.60148611441697 -24.642899810206313, 58.131354856805515 -24.48563754880318 M58.131354856805515 -24.48563754880318 C58.559608821696024 -24.32803613098722, 58.987862786586525 -24.170434713171254, 59.68345151178644 -23.914451632345997 M58.131354856805515 -24.48563754880318 C58.61268087720295 -24.308505123967965, 59.09400689760039 -24.13137269913275, 59.68345151178644 -23.914451632345997 M59.68345151178644 -23.914451632345997 C60.26846012767518 -23.65548567175606, 60.85346874356394 -23.39651971116613, 61.19576321041056 -23.24499610449772 M59.68345151178644 -23.914451632345997 C60.24136928542741 -23.66747798399787, 60.799287059068384 -23.420504335649746, 61.19576321041056 -23.24499610449772 M61.19576321041056 -23.24499610449772 C61.7727843540782 -22.943964543445997, 62.349805497745834 -22.64293298239427, 62.6620755395184 -22.480021901620034 M61.19576321041056 -23.24499610449772 C61.614250726509674 -23.02667143540286, 62.03273824260879 -22.808346766308002, 62.6620755395184 -22.480021901620034 M62.6620755395184 -22.480021901620034 C63.1308337142116 -22.19585794139221, 63.5995918889048 -21.911693981164387, 64.07636310722664 -21.62267246679901 M62.6620755395184 -22.480021901620034 C63.02977732010464 -22.257118921373138, 63.397479100690894 -22.034215941126238, 64.07636310722664 -21.62267246679901 M64.07636310722664 -21.62267246679901 C64.37157089823218 -21.41674829113286, 64.6667786892377 -21.210824115466707, 65.43281430255584 -20.67647083276321 M64.07636310722664 -21.62267246679901 C64.59588225451006 -21.260278399275517, 65.11540140179346 -20.897884331752024, 65.43281430255584 -20.67647083276321 M65.43281430255584 -20.67647083276321 C65.74208328063827 -20.429837052735618, 66.0513522587207 -20.18320327270802, 66.7258551765865 -19.64530514498651 M65.43281430255584 -20.67647083276321 C65.79577155933346 -20.3870220791813, 66.15872881611108 -20.097573325599388, 66.7258551765865 -19.64530514498651 M66.7258551765865 -19.64530514498651 C67.15097885168211 -19.259219071420752, 67.5761025267777 -18.873132997854995, 67.95017234701088 -18.533412684464313 M66.7258551765865 -19.64530514498651 C67.16487346072941 -19.246600355115206, 67.6038917448723 -18.847895565243903, 67.95017234701088 -18.533412684464313 M67.95017234701088 -18.533412684464313 C68.29087819192752 -18.181605927117797, 68.63158403684416 -17.829799169771277, 69.10073483196044 -17.345362455817106 M67.95017234701088 -18.533412684464313 C68.24076310117994 -18.233353872840144, 68.531353855349 -17.93329506121598, 69.10073483196044 -17.345362455817106 M69.10073483196044 -17.345362455817106 C69.4692168737815 -16.91252248227193, 69.83769891560257 -16.479682508726746, 70.17281472338968 -16.086036412270357 M69.10073483196044 -17.345362455817106 C69.39469478711986 -17.000060365691546, 69.6886547422793 -16.654758275565985, 70.17281472338968 -16.086036412270357 M70.17281472338968 -16.086036412270357 C70.41745229797253 -15.75824434927087, 70.66208987255537 -15.430452286271384, 71.16200661506427 -14.76060939466161 M70.17281472338968 -16.086036412270357 C70.41583578792994 -15.760410325460846, 70.6588568524702 -15.434784238651336, 71.16200661506427 -14.76060939466161 M71.16200661506427 -14.76060939466161 C71.51067617324512 -14.224959322409891, 71.85934573142598 -13.689309250158171, 72.06424570532036 -13.374527866909407 M71.16200661506427 -14.76060939466161 C71.4758003679035 -14.278537924879645, 71.78959412074273 -13.796466455097681, 72.06424570532036 -13.374527866909407 M72.06424570532036 -13.374527866909407 C72.375211306981 -12.822376952479251, 72.68617690864166 -12.270226038049097, 72.8758245002064 -11.93348753532484 M72.06424570532036 -13.374527866909407 C72.27335033803652 -13.003241417381762, 72.48245497075268 -12.631954967854119, 72.8758245002064 -11.93348753532484 M72.8758245002064 -11.93348753532484 C73.05397289968799 -11.56355857203621, 73.23212129916958 -11.193629608747582, 73.59340804837109 -10.443409943732584 M72.8758245002064 -11.93348753532484 C73.0338760834722 -11.605290040911285, 73.191927666738 -11.27709254649773, 73.59340804837109 -10.443409943732584 M73.59340804837109 -10.443409943732584 C73.75625735645178 -10.041169004296075, 73.91910666453248 -9.638928064859567, 74.21404764509381 -8.910418140577123 M73.59340804837109 -10.443409943732584 C73.71822521876395 -10.135109119686405, 73.84304238915679 -9.826808295640225, 74.21404764509381 -8.910418140577123 M74.21404764509381 -8.910418140577123 C74.36186253267427 -8.465223250288853, 74.5096774202547 -8.020028360000582, 74.7351929491449 -7.340811518003323 M74.21404764509381 -8.910418140577123 C74.32059895104506 -8.589502583697103, 74.4271502569963 -8.26858702681708, 74.7351929491449 -7.340811518003323 M74.7351929491449 -7.340811518003323 C74.83261277327976 -6.9693075065582155, 74.93003259741464 -6.597803495113108, 75.15470246268467 -5.741039926302914 M74.7351929491449 -7.340811518003323 C74.8660493980778 -6.8417991646784495, 74.99690584701071 -6.342786811353577, 75.15470246268467 -5.741039926302914 M75.15470246268467 -5.741039926302914 C75.26630262651635 -5.16799667173024, 75.37790279034803 -4.594953417157566, 75.47085233113748 -4.117677170096137 M75.15470246268467 -5.741039926302914 C75.27250421215341 -5.136152840189541, 75.39030596162213 -4.531265754076168, 75.47085233113748 -4.117677170096137 M75.47085233113748 -4.117677170096137 C75.54776450700533 -3.5211615220921466, 75.62467668287316 -2.9246458740881565, 75.68234342687991 -2.4773939951584394 M75.47085233113748 -4.117677170096137 C75.54444239692165 -3.546927151876267, 75.61803246270583 -2.976177133656397, 75.68234342687991 -2.4773939951584394 M75.68234342687991 -2.4773939951584394 C75.7069261994233 -2.094497469938484, 75.73150897196666 -1.711600944718529, 75.78830668763487 -0.8269306768952902 M75.68234342687991 -2.4773939951584394 C75.72062657133357 -1.8811031186947056, 75.75890971578723 -1.284812242230972, 75.78830668763487 -0.8269306768952902 M75.78830668763487 -0.8269306768952902 C75.78830668763487 -0.1850161310742009, 75.78830668763487 0.4568984147468884, 75.78830668763487 0.826930676895284 M75.78830668763487 -0.8269306768952902 C75.78830668763487 -0.25021648144460484, 75.78830668763487 0.3264977140060805, 75.78830668763487 0.826930676895284 M75.78830668763487 0.826930676895284 C75.76519999847606 1.1868360119275851, 75.74209330931724 1.5467413469598865, 75.68234342687991 2.4773939951584216 M75.78830668763487 0.826930676895284 C75.76217262829006 1.233989746223823, 75.73603856894523 1.641048815552362, 75.68234342687991 2.4773939951584216 M75.68234342687991 2.4773939951584216 C75.63452039054451 2.8483000212491065, 75.58669735420911 3.219206047339791, 75.47085233113748 4.117677170096119 M75.68234342687991 2.4773939951584216 C75.62695657006572 2.9069635192373404, 75.57156971325152 3.3365330433162597, 75.47085233113748 4.117677170096119 M75.47085233113748 4.117677170096119 C75.34577646941199 4.759915285263755, 75.2207006076865 5.402153400431391, 75.15470246268467 5.741039926302909 M75.47085233113748 4.117677170096119 C75.35979178833799 4.687949584717439, 75.24873124553851 5.258221999338758, 75.15470246268467 5.741039926302909 M75.15470246268467 5.741039926302909 C75.05200946136307 6.132652847770457, 74.94931646004147 6.524265769238005, 74.7351929491449 7.340811518003306 M75.15470246268467 5.741039926302909 C75.00860724611634 6.298164305145343, 74.862512029548 6.8552886839877765, 74.7351929491449 7.340811518003306 M74.7351929491449 7.340811518003306 C74.62496590637231 7.672797808540099, 74.51473886359972 8.004784099076893, 74.21404764509383 8.910418140577105 M74.7351929491449 7.340811518003306 C74.60671354703501 7.7277710067455025, 74.47823414492512 8.114730495487699, 74.21404764509383 8.910418140577105 M74.21404764509383 8.910418140577105 C74.00106923765401 9.43647892461086, 73.78809083021417 9.962539708644613, 73.59340804837109 10.443409943732577 M74.21404764509383 8.910418140577105 C74.03786172157054 9.345600778002725, 73.86167579804726 9.780783415428344, 73.59340804837109 10.443409943732577 M73.59340804837109 10.443409943732577 C73.37748017978696 10.891788782963797, 73.16155231120281 11.340167622195017, 72.8758245002064 11.933487535324835 M73.59340804837109 10.443409943732577 C73.41194087461272 10.820230412817331, 73.23047370085436 11.197050881902086, 72.8758245002064 11.933487535324835 M72.8758245002064 11.933487535324835 C72.66349580632132 12.310498631929516, 72.45116711243622 12.687509728534197, 72.06424570532037 13.374527866909402 M72.8758245002064 11.933487535324835 C72.56676552934627 12.482253033701394, 72.25770655848612 13.031018532077953, 72.06424570532037 13.374527866909402 M72.06424570532037 13.374527866909402 C71.83818155826701 13.72182310350659, 71.61211741121365 14.069118340103778, 71.16200661506429 14.760609394661596 M72.06424570532037 13.374527866909402 C71.80510692478767 13.772634622313522, 71.54596814425496 14.170741377717642, 71.16200661506429 14.760609394661596 M71.16200661506429 14.760609394661596 C70.96069094698092 15.030354049658644, 70.75937527889756 15.300098704655692, 70.17281472338968 16.086036412270353 M71.16200661506429 14.760609394661596 C70.78855376431213 15.261002192414873, 70.41510091355998 15.76139499016815, 70.17281472338968 16.086036412270353 M70.17281472338968 16.086036412270353 C69.86472627126169 16.44793463886944, 69.5566378191337 16.809832865468533, 69.10073483196045 17.345362455817092 M70.17281472338968 16.086036412270353 C69.76319804125269 16.567195474957956, 69.35358135911571 17.04835453764556, 69.10073483196045 17.345362455817092 M69.10073483196045 17.345362455817092 C68.86519029016726 17.588581533785085, 68.62964574837409 17.831800611753074, 67.95017234701088 18.533412684464306 M69.10073483196045 17.345362455817092 C68.82217341440428 17.632999989761554, 68.5436119968481 17.92063752370602, 67.95017234701088 18.533412684464306 M67.95017234701088 18.533412684464306 C67.5392413441895 18.90660934858814, 67.12831034136815 19.27980601271198, 66.72585517658653 19.64530514498649 M67.95017234701088 18.533412684464306 C67.67389506205804 18.784320404762088, 67.3976177771052 19.035228125059874, 66.72585517658653 19.64530514498649 M66.72585517658653 19.64530514498649 C66.25117850271342 20.023847160723516, 65.77650182884028 20.402389176460545, 65.43281430255584 20.676470832763208 M66.72585517658653 19.64530514498649 C66.3332077544246 19.958431015373904, 65.94056033226268 20.271556885761317, 65.43281430255584 20.676470832763208 M65.43281430255584 20.676470832763208 C64.93641656989122 21.022736402358532, 64.44001883722662 21.369001971953857, 64.07636310722665 21.622672466799003 M65.43281430255584 20.676470832763208 C65.0688903688503 20.930328414903013, 64.70496643514477 21.184185997042817, 64.07636310722665 21.622672466799003 M64.07636310722665 21.622672466799003 C63.766934580963444 21.81024985782362, 63.45750605470024 21.997827248848235, 62.662075539518405 22.48002190162003 M64.07636310722665 21.622672466799003 C63.6955511996542 21.8535228830686, 63.31473929208173 22.084373299338196, 62.662075539518405 22.48002190162003 M62.662075539518405 22.48002190162003 C62.17757145819063 22.732787370509055, 61.69306737686285 22.985552839398082, 61.19576321041057 23.244996104497716 M62.662075539518405 22.48002190162003 C62.3573872833854 22.638977569682478, 62.052699027252395 22.79793323774492, 61.19576321041057 23.244996104497716 M61.19576321041057 23.244996104497716 C60.77520619837591 23.43116421834495, 60.354649186341256 23.61733233219218, 59.68345151178645 23.914451632345994 M61.19576321041057 23.244996104497716 C60.59961309810175 23.50889407505207, 60.003462985792936 23.77279204560642, 59.68345151178645 23.914451632345994 M59.68345151178645 23.914451632345994 C59.090878585206475 24.132523947011514, 58.49830565862649 24.35059626167703, 58.13135485680553 24.485637548803172 M59.68345151178645 23.914451632345994 C59.229408514605325 24.081543652436103, 58.7753655174242 24.248635672526216, 58.13135485680553 24.485637548803172 M58.13135485680553 24.485637548803172 C57.4976487875254 24.67371818377448, 56.86394271824527 24.861798818745786, 56.54585114354681 24.95620672841954 M58.13135485680553 24.485637548803172 C57.50706091428268 24.67092471395818, 56.882766971759835 24.856211879113186, 56.54585114354681 24.95620672841954 M56.54585114354681 24.95620672841954 C55.95975330196822 25.089979736114007, 55.373655460389635 25.223752743808472, 54.933455546857545 25.324225501499278 M56.54585114354681 24.95620672841954 C55.98377172952329 25.084497686759452, 55.42169231549976 25.21278864509936, 54.933455546857545 25.324225501499278 M54.933455546857545 25.324225501499278 C54.48897951438542 25.39608493946626, 54.0445034819133 25.467944377433238, 53.30079374610233 25.588181599964017 M54.933455546857545 25.324225501499278 C54.31568780273529 25.424101399508558, 53.69792005861303 25.523977297517835, 53.30079374610233 25.588181599964017 M53.30079374610233 25.588181599964017 C52.935913846148914 25.62338112508024, 52.57103394619549 25.658580650196463, 51.654574698825286 25.746990371586765 M53.30079374610233 25.588181599964017 C52.94612949012774 25.62239563419171, 52.591465234153155 25.656609668419406, 51.654574698825286 25.746990371586765 M51.654574698825286 25.746990371586765 C51.17496087061771 25.762370653545698, 50.695347042410134 25.77775093550463, 50.0015630722046 25.799999237060547 M51.654574698825286 25.746990371586765 C51.0790255323203 25.76544711311809, 50.50347636581532 25.783903854649413, 50.0015630722046 25.799999237060547 M50.0015630722046 25.799999237060547 C50.0015630722046 25.799999237060547, 50.00156307220459 25.799999237060547, 50.00156307220459 25.799999237060547 M50.0015630722046 25.799999237060547 C50.0015630722046 25.799999237060547, 50.0015630722046 25.799999237060547, 50.00156307220459 25.799999237060547 M50.00156307220459 25.799999237060547 C17.964184176300506 25.799999237060547, -14.073194719603578 25.799999237060547, -50.00156307220458 25.799999237060547 M50.00156307220459 25.799999237060547 C23.46393127020929 25.799999237060547, -3.0737005317860095 25.799999237060547, -50.00156307220458 25.799999237060547 M-50.00156307220458 25.799999237060547 C-50.62978627087114 25.779853341841587, -51.258009469537704 25.759707446622624, -51.65457469882527 25.746990371586765 M-50.00156307220458 25.799999237060547 C-50.608565339847075 25.78053385579549, -51.21556760748956 25.761068474530436, -51.65457469882527 25.746990371586765 M-51.65457469882527 25.746990371586765 C-52.01681313529037 25.712045665276435, -52.37905157175546 25.677100958966108, -53.300793746102315 25.588181599964017 M-51.65457469882527 25.746990371586765 C-52.129095898280355 25.70121388217057, -52.60361709773544 25.655437392754376, -53.300793746102315 25.588181599964017 M-53.300793746102315 25.588181599964017 C-53.69415441136932 25.524586098161166, -54.08751507663632 25.460990596358318, -54.93345554685753 25.324225501499278 M-53.300793746102315 25.588181599964017 C-53.650484152127355 25.53164636700749, -54.00017455815239 25.475111134050962, -54.93345554685753 25.324225501499278 M-54.93345554685753 25.324225501499278 C-55.45119264000375 25.20605538853893, -55.96892973314996 25.087885275578582, -56.545851143546784 24.956206728419545 M-54.93345554685753 25.324225501499278 C-55.372976675456975 25.22390767203986, -55.81249780405642 25.123589842580444, -56.545851143546784 24.956206728419545 M-56.545851143546784 24.956206728419545 C-56.96693752796499 24.83123049985176, -57.38802391238319 24.706254271283974, -58.1313548568055 24.485637548803183 M-56.545851143546784 24.956206728419545 C-56.978126350132996 24.82790971616362, -57.41040155671921 24.699612703907697, -58.1313548568055 24.485637548803183 M-58.1313548568055 24.485637548803183 C-58.71272627424859 24.271687493045658, -59.29409769169167 24.057737437288132, -59.683451511786444 23.914451632345997 M-58.1313548568055 24.485637548803183 C-58.59100426581248 24.316482317336057, -59.050653674819465 24.147327085868927, -59.683451511786444 23.914451632345997 M-59.683451511786444 23.914451632345997 C-60.1189010925092 23.7216910201129, -60.554350673231944 23.528930407879805, -61.19576321041056 23.244996104497723 M-59.683451511786444 23.914451632345997 C-60.285498894516365 23.647943115112536, -60.88754627724629 23.381434597879075, -61.19576321041056 23.244996104497723 M-61.19576321041056 23.244996104497723 C-61.51680137123327 23.07751070163127, -61.83783953205599 22.91002529876482, -62.6620755395184 22.480021901620038 M-61.19576321041056 23.244996104497723 C-61.63001731662836 23.01844601543693, -62.06427142284616 22.79189592637613, -62.6620755395184 22.480021901620038 M-62.6620755395184 22.480021901620038 C-63.04183691671254 22.249808323039375, -63.42159829390669 22.01959474445871, -64.07636310722663 21.622672466799017 M-62.6620755395184 22.480021901620038 C-63.17254736473692 22.17057088130714, -63.68301918995545 21.861119860994243, -64.07636310722663 21.622672466799017 M-64.07636310722663 21.622672466799017 C-64.5976245331207 21.25906306113876, -65.11888595901476 20.8954536554785, -65.43281430255584 20.67647083276321 M-64.07636310722663 21.622672466799017 C-64.53063783105416 21.305790084692774, -64.9849125548817 20.98890770258653, -65.43281430255584 20.67647083276321 M-65.43281430255584 20.67647083276321 C-65.6963624655653 20.466298186074322, -65.95991062857478 20.25612553938543, -66.7258551765865 19.645305144986512 M-65.43281430255584 20.67647083276321 C-65.70498287246193 20.459423640972922, -65.97715144236803 20.242376449182636, -66.7258551765865 19.645305144986512 M-66.7258551765865 19.645305144986512 C-66.99312091340511 19.402581474271756, -67.2603866502237 19.159857803557, -67.95017234701086 18.533412684464324 M-66.7258551765865 19.645305144986512 C-67.01019481212377 19.38707541120606, -67.29453444766105 19.12884567742561, -67.95017234701086 18.533412684464324 M-67.95017234701086 18.533412684464324 C-68.33775658188836 18.133200140695827, -68.72534081676586 17.73298759692733, -69.10073483196044 17.3453624558171 M-67.95017234701086 18.533412684464324 C-68.21438584109376 18.26059055949245, -68.47859933517665 17.98776843452057, -69.10073483196044 17.3453624558171 M-69.10073483196044 17.3453624558171 C-69.39653893073955 16.997894129661116, -69.69234302951865 16.65042580350513, -70.17281472338968 16.08603641227036 M-69.10073483196044 17.3453624558171 C-69.45385550201729 16.930566823632976, -69.80697617207416 16.515771191448852, -70.17281472338968 16.08603641227036 M-70.17281472338968 16.08603641227036 C-70.52612239139658 15.61263632413181, -70.87943005940349 15.139236235993259, -71.16200661506427 14.760609394661614 M-70.17281472338968 16.08603641227036 C-70.38404724812094 15.803004072809356, -70.5952797728522 15.519971733348354, -71.16200661506427 14.760609394661614 M-71.16200661506427 14.760609394661614 C-71.48267013931782 14.267984111195334, -71.80333366357138 13.775358827729052, -72.06424570532036 13.374527866909418 M-71.16200661506427 14.760609394661614 C-71.41634090307964 14.36988362995101, -71.67067519109501 13.979157865240406, -72.06424570532036 13.374527866909418 M-72.06424570532036 13.374527866909418 C-72.26278040383376 13.022009405880674, -72.46131510234716 12.669490944851928, -72.87582450020639 11.933487535324842 M-72.06424570532036 13.374527866909418 C-72.28626791497302 12.980304951484506, -72.50829012462567 12.586082036059596, -72.87582450020639 11.933487535324842 M-72.87582450020639 11.933487535324842 C-73.15321973557515 11.357470393774395, -73.43061497094392 10.78145325222395, -73.59340804837109 10.443409943732586 M-72.87582450020639 11.933487535324842 C-73.15615519360388 11.351374852369, -73.43648588700138 10.76926216941316, -73.59340804837109 10.443409943732586 M-73.59340804837109 10.443409943732586 C-73.73884507323501 10.084177680485093, -73.88428209809894 9.7249454172376, -74.21404764509381 8.910418140577127 M-73.59340804837109 10.443409943732586 C-73.82697626218052 9.866491939889068, -74.06054447598996 9.28957393604555, -74.21404764509381 8.910418140577127 M-74.21404764509381 8.910418140577127 C-74.32575472910149 8.573974201652792, -74.43746181310918 8.237530262728455, -74.7351929491449 7.340811518003316 M-74.21404764509381 8.910418140577127 C-74.32332848329361 8.581281667456382, -74.4326093214934 8.25214519433564, -74.7351929491449 7.340811518003316 M-74.7351929491449 7.340811518003316 C-74.84775043662135 6.911581035531939, -74.96030792409782 6.482350553060563, -75.15470246268467 5.741039926302918 M-74.7351929491449 7.340811518003316 C-74.89195467891007 6.7430111014452745, -75.04871640867525 6.145210684887232, -75.15470246268467 5.741039926302918 M-75.15470246268467 5.741039926302918 C-75.25921218359667 5.204404597557085, -75.3637219045087 4.667769268811251, -75.47085233113748 4.117677170096139 M-75.15470246268467 5.741039926302918 C-75.21848636494936 5.413523068906243, -75.28227026721406 5.086006211509568, -75.47085233113748 4.117677170096139 M-75.47085233113748 4.117677170096139 C-75.5516103962652 3.491333564449235, -75.63236846139293 2.864989958802331, -75.68234342687991 2.477393995158454 M-75.47085233113748 4.117677170096139 C-75.52012592120808 3.735520935679488, -75.56939951127868 3.3533647012628363, -75.68234342687991 2.477393995158454 M-75.68234342687991 2.477393995158454 C-75.70842877618628 2.071093623996684, -75.73451412549267 1.6647932528349143, -75.78830668763487 0.8269306768952934 M-75.68234342687991 2.477393995158454 C-75.71272625443923 2.0041569313449203, -75.74310908199857 1.5309198675313869, -75.78830668763487 0.8269306768952934 M-75.78830668763487 0.8269306768952934 C-75.78830668763487 0.20979448164934733, -75.78830668763487 -0.40734171359659876, -75.78830668763487 -0.8269306768952809 M-75.78830668763487 0.8269306768952934 C-75.78830668763487 0.18016181205694448, -75.78830668763487 -0.46660705278140446, -75.78830668763487 -0.8269306768952809 M-75.78830668763487 -0.8269306768952809 C-75.76045304829937 -1.2607735925986732, -75.73259940896388 -1.6946165083020652, -75.68234342687991 -2.4773939951584185 M-75.78830668763487 -0.8269306768952809 C-75.76183594001034 -1.2392339379502277, -75.73536519238581 -1.6515371990051744, -75.68234342687991 -2.4773939951584185 M-75.68234342687991 -2.4773939951584185 C-75.6110973453411 -3.029964534443388, -75.53985126380228 -3.582535073728357, -75.47085233113748 -4.117677170096128 M-75.68234342687991 -2.4773939951584185 C-75.61591181900133 -2.992624427459951, -75.54948021112274 -3.5078548597614834, -75.47085233113748 -4.117677170096128 M-75.47085233113748 -4.117677170096128 C-75.36770917003845 -4.647295503024804, -75.26456600893943 -5.17691383595348, -75.15470246268467 -5.741039926302906 M-75.47085233113748 -4.117677170096128 C-75.39395542446776 -4.512526533678102, -75.31705851779806 -4.907375897260076, -75.15470246268467 -5.741039926302906 M-75.15470246268467 -5.741039926302906 C-74.99986346617281 -6.331508127648193, -74.84502446966096 -6.9219763289934795, -74.7351929491449 -7.340811518003303 M-75.15470246268467 -5.741039926302906 C-75.06114964250628 -6.0977973756918455, -74.96759682232789 -6.454554825080786, -74.7351929491449 -7.340811518003303 M-74.7351929491449 -7.340811518003303 C-74.54122744016328 -7.9250047268489645, -74.34726193118166 -8.509197935694626, -74.21404764509383 -8.910418140577093 M-74.7351929491449 -7.340811518003303 C-74.54672250550063 -7.908454465572636, -74.35825206185636 -8.47609741314197, -74.21404764509383 -8.910418140577093 M-74.21404764509383 -8.910418140577093 C-74.01494760607069 -9.402199086301641, -73.81584756704754 -9.893980032026189, -73.59340804837109 -10.443409943732574 M-74.21404764509383 -8.910418140577093 C-74.03130085084442 -9.361806255542044, -73.848554056595 -9.813194370506995, -73.59340804837109 -10.443409943732574 M-73.59340804837109 -10.443409943732574 C-73.42328707359817 -10.79666978785427, -73.25316609882526 -11.149929631975967, -72.8758245002064 -11.933487535324831 M-73.59340804837109 -10.443409943732574 C-73.35410160555142 -10.940334892585232, -73.11479516273175 -11.437259841437893, -72.8758245002064 -11.933487535324831 M-72.8758245002064 -11.933487535324831 C-72.66275672403289 -12.311810947372804, -72.44968894785937 -12.690134359420776, -72.06424570532036 -13.374527866909409 M-72.8758245002064 -11.933487535324831 C-72.56909095489459 -12.478124005165455, -72.26235740958279 -13.022760475006079, -72.06424570532036 -13.374527866909409 M-72.06424570532036 -13.374527866909409 C-71.80829867831618 -13.7677312317879, -71.55235165131198 -14.160934596666392, -71.16200661506429 -14.760609394661605 M-72.06424570532036 -13.374527866909409 C-71.75344622642223 -13.85199932784273, -71.44264674752408 -14.32947078877605, -71.16200661506429 -14.760609394661605 M-71.16200661506429 -14.760609394661605 C-70.90026522052307 -15.111319018215244, -70.63852382598186 -15.462028641768882, -70.17281472338968 -16.086036412270353 M-71.16200661506429 -14.760609394661605 C-70.9628781464623 -15.027423401611573, -70.76374967786032 -15.294237408561543, -70.17281472338968 -16.086036412270353 M-70.17281472338968 -16.086036412270353 C-69.78691049321203 -16.539341479609767, -69.4010062630344 -16.99264654694918, -69.10073483196045 -17.345362455817092 M-70.17281472338968 -16.086036412270353 C-69.87557922369538 -16.435186143390336, -69.57834372400109 -16.78433587451032, -69.10073483196045 -17.345362455817092 M-69.10073483196045 -17.345362455817092 C-68.69480862583205 -17.764514590805987, -68.28888241970365 -18.183666725794883, -67.95017234701089 -18.5334126844643 M-69.10073483196045 -17.345362455817092 C-68.78409809418113 -17.67231588393388, -68.46746135640181 -17.999269312050668, -67.95017234701089 -18.5334126844643 M-67.95017234701089 -18.5334126844643 C-67.53216639337572 -18.913034631724294, -67.11416043974053 -19.292656578984293, -66.72585517658653 -19.645305144986487 M-67.95017234701089 -18.5334126844643 C-67.52494131851985 -18.91959625354338, -67.09971029002882 -19.305779822622462, -66.72585517658653 -19.645305144986487 M-66.72585517658653 -19.645305144986487 C-66.26509316827764 -20.01275058522084, -65.80433115996875 -20.380196025455195, -65.43281430255585 -20.676470832763204 M-66.72585517658653 -19.645305144986487 C-66.25725758356633 -20.018999255514444, -65.78865999054614 -20.3926933660424, -65.43281430255585 -20.676470832763204 M-65.43281430255585 -20.676470832763204 C-65.06492398980502 -20.933095189223224, -64.69703367705418 -21.189719545683243, -64.07636310722665 -21.622672466799 M-65.43281430255585 -20.676470832763204 C-65.15201128655912 -20.87234686095588, -64.87120827056239 -21.06822288914855, -64.07636310722665 -21.622672466799 M-64.07636310722665 -21.622672466799 C-63.677967954675246 -21.864181949505454, -63.27957280212384 -22.105691432211906, -62.662075539518405 -22.480021901620027 M-64.07636310722665 -21.622672466799 C-63.51338890127058 -21.963950738853235, -62.95041469531451 -22.305229010907468, -62.662075539518405 -22.480021901620027 M-62.662075539518405 -22.480021901620027 C-62.34006024875754 -22.648017072549337, -62.01804495799667 -22.816012243478642, -61.195763210410576 -23.244996104497716 M-62.662075539518405 -22.480021901620027 C-62.10616022066545 -22.77004256738486, -61.5502449018125 -23.06006323314969, -61.195763210410576 -23.244996104497716 M-61.195763210410576 -23.244996104497716 C-60.65009925702093 -23.48654535011724, -60.1044353036313 -23.728094595736763, -59.68345151178645 -23.91445163234599 M-61.195763210410576 -23.244996104497716 C-60.76347085554552 -23.436359106499385, -60.33117850068047 -23.627722108501057, -59.68345151178645 -23.91445163234599 M-59.68345151178645 -23.91445163234599 C-59.24973167458342 -24.07406454169893, -58.816011837380394 -24.23367745105187, -58.13135485680553 -24.485637548803172 M-59.68345151178645 -23.91445163234599 C-59.10833802462519 -24.12609871191213, -58.53322453746393 -24.337745791478273, -58.13135485680553 -24.485637548803172 M-58.13135485680553 -24.485637548803172 C-57.55471323192419 -24.6567817562143, -56.97807160704285 -24.827925963625425, -56.54585114354682 -24.956206728419538 M-58.13135485680553 -24.485637548803172 C-57.76694626104727 -24.59379210720447, -57.40253766528902 -24.701946665605767, -56.54585114354682 -24.956206728419538 M-56.54585114354682 -24.956206728419538 C-56.05093863326072 -25.069167279286386, -55.55602612297463 -25.182127830153238, -54.933455546857545 -25.324225501499278 M-56.54585114354682 -24.956206728419538 C-56.02498400833309 -25.075091253056364, -55.50411687311936 -25.19397577769319, -54.933455546857545 -25.324225501499278 M-54.933455546857545 -25.324225501499278 C-54.495418024275025 -25.395044011118696, -54.057380501692506 -25.465862520738117, -53.30079374610233 -25.588181599964017 M-54.933455546857545 -25.324225501499278 C-54.51386707343715 -25.392061311924678, -54.09427860001675 -25.45989712235008, -53.30079374610233 -25.588181599964017 M-53.30079374610233 -25.588181599964017 C-52.89193453876756 -25.627623755970465, -52.48307533143278 -25.667065911976913, -51.654574698825286 -25.746990371586765 M-53.30079374610233 -25.588181599964017 C-52.96503470519577 -25.620571870830947, -52.62927566428922 -25.652962141697877, -51.654574698825286 -25.746990371586765 M-51.654574698825286 -25.746990371586765 C-51.2762121655676 -25.759123721590345, -50.897849632309914 -25.771257071593926, -50.0015630722046 -25.799999237060547 M-51.654574698825286 -25.746990371586765 C-51.26383123362713 -25.759520753979654, -50.873087768428974 -25.772051136372543, -50.0015630722046 -25.799999237060547 M-50.0015630722046 -25.799999237060547 C-50.0015630722046 -25.799999237060547, -50.00156307220459 -25.799999237060547, -50.00156307220459 -25.799999237060547 M-50.0015630722046 -25.799999237060547 C-50.0015630722046 -25.799999237060547, -50.00156307220459 -25.799999237060547, -50.00156307220459 -25.799999237060547" stroke="#1F4870" stroke-width="1.3" fill="none" stroke-dasharray="0 0" style="fill:#2E5A88 !important;stroke:#1F4870 !important"></path></g><g class="label" style="color:#ffffff !important" transform="translate(0, -18.299999237060547)"><rect></rect><g><rect class="background" style="stroke: none"></rect><text y="-10.1" style="fill:#404040 !important"><tspan class="text-outer-tspan row" x="0" y="-0.1em" dy="1.1em"><tspan font-style="normal" class="text-inner-tspan" font-weight="normal">Retry</tspan><tspan font-style="normal" class="text-inner-tspan" font-weight="normal"> with</tspan><tspan font-style="normal" class="text-inner-tspan" font-weight="normal"> same</tspan></tspan><tspan class="text-outer-tspan row" x="0" y="1em" dy="1.1em"><tspan font-style="normal" class="text-inner-tspan" font-weight="normal">Idempotency-Key</tspan></tspan></text></g></g></g><g class="node default neutral" id="gdfdca054-db2f-4ee6-8532-f5d671ca5aff-dark-flowchart-Q-1" data-look="classic" transform="translate(361.859375, 195.6234359741211)"><polygon points="86.0234375,0 172.046875,-86.0234375 86.0234375,-172.046875 0,-86.0234375" class="label-container" transform="translate(-85.5234375, 86.0234375)" style="fill:#5A5A5A !important;stroke:#3D3D3D !important"></polygon><g class="label" style="color:#ffffff !important" transform="translate(0, -9.5)"><rect></rect><g><rect class="background" style="stroke: none"></rect><text y="-10.1" style="fill:#404040 !important"><tspan class="text-outer-tspan row" x="0" y="-0.1em" dy="1.1em"><tspan font-style="normal" class="text-inner-tspan" font-weight="normal">Original</tspan><tspan font-style="normal" class="text-inner-tspan" font-weight="normal"> outcome</tspan></tspan></text></g></g></g><g class="node default ok" id="gdfdca054-db2f-4ee6-8532-f5d671ca5aff-dark-flowchart-S-3" data-look="classic" transform="translate(109.0078125, 418.5374984741211)"><rect class="basic label-container" style="fill:#2D7A2D !important;stroke:#1E5A1E !important" x="-101.0078125" y="-33.29999923706055" width="202.015625" height="66.5999984741211"></rect><g class="label" style="color:#ffffff !important" transform="translate(0, -18.299999237060547)"><rect></rect><g><rect class="background" style="stroke: none"></rect><text y="-10.1" style="fill:#404040 !important"><tspan class="text-outer-tspan row" x="0" y="-0.1em" dy="1.1em"><tspan font-style="normal" class="text-inner-tspan" font-weight="normal">Return</tspan><tspan font-style="normal" class="text-inner-tspan" font-weight="normal"> cached</tspan><tspan font-style="normal" class="text-inner-tspan" font-weight="normal"> body</tspan></tspan><tspan class="text-outer-tspan row" x="0" y="1em" dy="1.1em"><tspan font-style="normal" class="text-inner-tspan" font-weight="normal">v1</tspan><tspan font-style="normal" class="text-inner-tspan" font-weight="normal"> +</tspan><tspan font-style="normal" class="text-inner-tspan" font-weight="normal"> v2</tspan><tspan font-style="normal" class="text-inner-tspan" font-weight="normal"> identical</tspan></tspan></text></g></g></g><g class="node default err" id="gdfdca054-db2f-4ee6-8532-f5d671ca5aff-dark-flowchart-C-5" data-look="classic" transform="translate(361.859375, 418.5374984741211)"><rect class="basic label-container" style="fill:#B43A3A !important;stroke:#8E2828 !important" x="-101.84375" y="-33.29999923706055" width="203.6875" height="66.5999984741211"></rect><g class="label" style="color:#ffffff !important" transform="translate(0, -18.299999237060547)"><rect></rect><g><rect class="background" style="stroke: none"></rect><text y="-10.1" style="fill:#404040 !important"><tspan class="text-outer-tspan row" x="0" y="-0.1em" dy="1.1em"><tspan font-style="normal" class="text-inner-tspan" font-weight="normal">Return</tspan><tspan font-style="normal" class="text-inner-tspan" font-weight="normal"> cached</tspan><tspan font-style="normal" class="text-inner-tspan" font-weight="normal"> error</tspan></tspan><tspan class="text-outer-tspan row" x="0" y="1em" dy="1.1em"><tspan font-style="normal" class="text-inner-tspan" font-weight="normal">v1</tspan><tspan font-style="normal" class="text-inner-tspan" font-weight="normal"> +</tspan><tspan font-style="normal" class="text-inner-tspan" font-weight="normal"> v2</tspan><tspan font-style="normal" class="text-inner-tspan" font-weight="normal"> identical</tspan></tspan></text></g></g></g><g class="node default neutral" id="gdfdca054-db2f-4ee6-8532-f5d671ca5aff-dark-flowchart-V-7" data-look="classic" transform="translate(577.59375, 418.5374984741211)"><polygon points="63.890625,0 127.78125,-63.890625 63.890625,-127.78125 0,-63.890625" class="label-container" transform="translate(-63.390625, 63.890625)" style="fill:#5A5A5A !important;stroke:#3D3D3D !important"></polygon><g class="label" style="color:#ffffff !important" transform="translate(0, -9.5)"><rect></rect><g><rect class="background" style="stroke: none"></rect><text y="-10.1" style="fill:#404040 !important"><tspan class="text-outer-tspan row" x="0" y="-0.1em" dy="1.1em"><tspan font-style="normal" class="text-inner-tspan" font-weight="normal">API</tspan><tspan font-style="normal" class="text-inner-tspan" font-weight="normal"> version</tspan></tspan></text></g></g></g><g class="node default err" id="gdfdca054-db2f-4ee6-8532-f5d671ca5aff-dark-flowchart-V1-9" data-look="classic" transform="translate(436.7578125, 615.1281204223633)"><rect class="basic label-container" style="fill:#B43A3A !important;stroke:#8E2828 !important" x="-109.828125" y="-33.29999923706055" width="219.65625" height="66.5999984741211"></rect><g class="label" style="color:#ffffff !important" transform="translate(0, -18.299999237060547)"><rect></rect><g><rect class="background" style="stroke: none"></rect><text y="-10.1" style="fill:#404040 !important"><tspan class="text-outer-tspan row" x="0" y="-0.1em" dy="1.1em"><tspan font-style="normal" class="text-inner-tspan" font-weight="normal">Return</tspan><tspan font-style="normal" class="text-inner-tspan" font-weight="normal"> cached</tspan><tspan font-style="normal" class="text-inner-tspan" font-weight="normal"> 5xx</tspan></tspan><tspan class="text-outer-tspan row" x="0" y="1em" dy="1.1em"><tspan font-style="normal" class="text-inner-tspan" font-weight="normal">client</tspan><tspan font-style="normal" class="text-inner-tspan" font-weight="normal"> must</tspan><tspan font-style="normal" class="text-inner-tspan" font-weight="normal"> rotate</tspan><tspan font-style="normal" class="text-inner-tspan" font-weight="normal"> key</tspan></tspan></text></g></g></g><g class="node default ok" id="gdfdca054-db2f-4ee6-8532-f5d671ca5aff-dark-flowchart-V2-11" data-look="classic" transform="translate(718.4296875, 615.1281204223633)"><rect class="basic label-container" style="fill:#2D7A2D !important;stroke:#1E5A1E !important" x="-121.84375" y="-42.099998474121094" width="243.6875" height="84.19999694824219"></rect><g class="label" style="color:#ffffff !important" transform="translate(0, -27.099998474121094)"><rect></rect><g><rect class="background" style="stroke: none"></rect><text y="-10.1" style="fill:#404040 !important"><tspan class="text-outer-tspan row" x="0" y="-0.1em" dy="1.1em"><tspan font-style="normal" class="text-inner-tspan" font-weight="normal">Re-execute</tspan><tspan font-style="normal" class="text-inner-tspan" font-weight="normal"> the</tspan><tspan font-style="normal" class="text-inner-tspan" font-weight="normal"> request</tspan></tspan><tspan class="text-outer-tspan row" x="0" y="1em" dy="1.1em"><tspan font-style="normal" class="text-inner-tspan" font-weight="normal">idempotently,</tspan><tspan font-style="normal" class="text-inner-tspan" font-weight="normal"> return</tspan><tspan font-style="normal" class="text-inner-tspan" font-weight="normal"> new</tspan></tspan><tspan class="text-outer-tspan row" x="0" y="2.1em" dy="1.1em"><tspan font-style="normal" class="text-inner-tspan" font-weight="normal">result</tspan></tspan></text></g></g></g></g></g></g><defs><filter id="gdfdca054-db2f-4ee6-8532-f5d671ca5aff-dark-drop-shadow" height="130%" width="130%"><feDropShadow dx="4" dy="4" stdDeviation="0" flood-opacity="0.06" flood-color="#000000"></feDropShadow></filter></defs><defs><filter id="gdfdca054-db2f-4ee6-8532-f5d671ca5aff-dark-drop-shadow-small" height="150%" width="150%"><feDropShadow dx="2" dy="2" stdDeviation="0" flood-opacity="0.06" flood-color="#000000"></feDropShadow></filter></defs><linearGradient id="gdfdca054-db2f-4ee6-8532-f5d671ca5aff-dark-gradient" gradientUnits="objectBoundingBox" x1="0%" y1="0%" x2="100%" y2="0%"><stop offset="0%" stop-color="#555555" stop-opacity="1"></stop><stop offset="100%" stop-color="#555555" stop-opacity="1"></stop></linearGradient></svg>