<svg id="g1e693881-b162-4a91-ab96-7071e856fb87-dark" width="100%" xmlns="http://www.w3.org/2000/svg" xmlns:xlink="http://www.w3.org/1999/xlink" class="flowchart" style="max-width: 855.3234252929688px;" viewBox="0.5 0 855.3234252929688 817.2188110351562" role="graphics-document document" aria-roledescription="flowchart-v2"><style>#g1e693881-b162-4a91-ab96-7071e856fb87-dark{font-family:"trebuchet ms",verdana,arial,sans-serif;font-size:16px;fill:#e5e5e5;}@keyframes edge-animation-frame{from{stroke-dashoffset:0;}}@keyframes dash{to{stroke-dashoffset:0;}}#g1e693881-b162-4a91-ab96-7071e856fb87-dark .edge-animation-slow{stroke-dasharray:9,5!important;stroke-dashoffset:900;animation:dash 50s linear infinite;stroke-linecap:round;}#g1e693881-b162-4a91-ab96-7071e856fb87-dark .edge-animation-fast{stroke-dasharray:9,5!important;stroke-dashoffset:900;animation:dash 20s linear infinite;stroke-linecap:round;}#g1e693881-b162-4a91-ab96-7071e856fb87-dark .error-icon{fill:#252525;}#g1e693881-b162-4a91-ab96-7071e856fb87-dark .error-text{fill:#cccccc;stroke:#cccccc;}#g1e693881-b162-4a91-ab96-7071e856fb87-dark .edge-thickness-normal{stroke-width:1px;}#g1e693881-b162-4a91-ab96-7071e856fb87-dark .edge-thickness-thick{stroke-width:3.5px;}#g1e693881-b162-4a91-ab96-7071e856fb87-dark .edge-pattern-solid{stroke-dasharray:0;}#g1e693881-b162-4a91-ab96-7071e856fb87-dark .edge-thickness-invisible{stroke-width:0;fill:none;}#g1e693881-b162-4a91-ab96-7071e856fb87-dark .edge-pattern-dashed{stroke-dasharray:3;}#g1e693881-b162-4a91-ab96-7071e856fb87-dark .edge-pattern-dotted{stroke-dasharray:2;}#g1e693881-b162-4a91-ab96-7071e856fb87-dark .marker{fill:#cccccc;stroke:#cccccc;}#g1e693881-b162-4a91-ab96-7071e856fb87-dark .marker.cross{stroke:#cccccc;}#g1e693881-b162-4a91-ab96-7071e856fb87-dark svg{font-family:"trebuchet ms",verdana,arial,sans-serif;font-size:16px;}#g1e693881-b162-4a91-ab96-7071e856fb87-dark p{margin:0;}#g1e693881-b162-4a91-ab96-7071e856fb87-dark .label{font-family:"trebuchet ms",verdana,arial,sans-serif;color:#e5e5e5;}#g1e693881-b162-4a91-ab96-7071e856fb87-dark .cluster-label text{fill:#e5e5e5;}#g1e693881-b162-4a91-ab96-7071e856fb87-dark .cluster-label span{color:#e5e5e5;}#g1e693881-b162-4a91-ab96-7071e856fb87-dark .cluster-label span p{background-color:transparent;}#g1e693881-b162-4a91-ab96-7071e856fb87-dark .label text,#g1e693881-b162-4a91-ab96-7071e856fb87-dark span{fill:#e5e5e5;color:#e5e5e5;}#g1e693881-b162-4a91-ab96-7071e856fb87-dark .node rect,#g1e693881-b162-4a91-ab96-7071e856fb87-dark .node circle,#g1e693881-b162-4a91-ab96-7071e856fb87-dark .node ellipse,#g1e693881-b162-4a91-ab96-7071e856fb87-dark .node polygon,#g1e693881-b162-4a91-ab96-7071e856fb87-dark .node path{fill:#2d2d2d;stroke:#555555;stroke-width:1px;}#g1e693881-b162-4a91-ab96-7071e856fb87-dark .rough-node .label text,#g1e693881-b162-4a91-ab96-7071e856fb87-dark .node .label text,#g1e693881-b162-4a91-ab96-7071e856fb87-dark .image-shape .label,#g1e693881-b162-4a91-ab96-7071e856fb87-dark .icon-shape .label{text-anchor:middle;}#g1e693881-b162-4a91-ab96-7071e856fb87-dark .node .katex path{fill:#000;stroke:#000;stroke-width:1px;}#g1e693881-b162-4a91-ab96-7071e856fb87-dark .rough-node .label,#g1e693881-b162-4a91-ab96-7071e856fb87-dark .node .label,#g1e693881-b162-4a91-ab96-7071e856fb87-dark .image-shape .label,#g1e693881-b162-4a91-ab96-7071e856fb87-dark .icon-shape .label{text-align:center;}#g1e693881-b162-4a91-ab96-7071e856fb87-dark .node.clickable{cursor:pointer;}#g1e693881-b162-4a91-ab96-7071e856fb87-dark .root .anchor path{fill:#cccccc!important;stroke-width:0;stroke:#cccccc;}#g1e693881-b162-4a91-ab96-7071e856fb87-dark .arrowheadPath{fill:#cccccc;}#g1e693881-b162-4a91-ab96-7071e856fb87-dark .edgePath .path{stroke:#cccccc;stroke-width:1px;}#g1e693881-b162-4a91-ab96-7071e856fb87-dark .flowchart-link{stroke:#cccccc;fill:none;}#g1e693881-b162-4a91-ab96-7071e856fb87-dark .edgeLabel{background-color:#1e1e1e;text-align:center;}#g1e693881-b162-4a91-ab96-7071e856fb87-dark .edgeLabel p{background-color:#1e1e1e;}#g1e693881-b162-4a91-ab96-7071e856fb87-dark .edgeLabel rect{opacity:0.5;background-color:#1e1e1e;fill:#1e1e1e;}#g1e693881-b162-4a91-ab96-7071e856fb87-dark .labelBkg{background-color:rgba(30, 30, 30, 0.5);}#g1e693881-b162-4a91-ab96-7071e856fb87-dark .cluster rect{fill:#1e1e1e;stroke:#555555;stroke-width:1px;}#g1e693881-b162-4a91-ab96-7071e856fb87-dark .cluster text{fill:#e5e5e5;}#g1e693881-b162-4a91-ab96-7071e856fb87-dark .cluster span{color:#e5e5e5;}#g1e693881-b162-4a91-ab96-7071e856fb87-dark div.mermaidTooltip{position:absolute;text-align:center;max-width:200px;padding:2px;font-family:"trebuchet ms",verdana,arial,sans-serif;font-size:12px;background:#252525;border:1px solid #555555;border-radius:2px;pointer-events:none;z-index:100;}#g1e693881-b162-4a91-ab96-7071e856fb87-dark .flowchartTitleText{text-anchor:middle;font-size:18px;fill:#e5e5e5;}#g1e693881-b162-4a91-ab96-7071e856fb87-dark rect.text{fill:none;stroke-width:0;}#g1e693881-b162-4a91-ab96-7071e856fb87-dark .icon-shape,#g1e693881-b162-4a91-ab96-7071e856fb87-dark .image-shape{background-color:#1e1e1e;text-align:center;}#g1e693881-b162-4a91-ab96-7071e856fb87-dark .icon-shape p,#g1e693881-b162-4a91-ab96-7071e856fb87-dark .image-shape p{background-color:#1e1e1e;padding:2px;}#g1e693881-b162-4a91-ab96-7071e856fb87-dark .icon-shape .label rect,#g1e693881-b162-4a91-ab96-7071e856fb87-dark .image-shape .label rect{opacity:0.5;background-color:#1e1e1e;fill:#1e1e1e;}#g1e693881-b162-4a91-ab96-7071e856fb87-dark .label-icon{display:inline-block;height:1em;overflow:visible;vertical-align:-0.125em;}#g1e693881-b162-4a91-ab96-7071e856fb87-dark .node .label-icon path{fill:currentColor;stroke:revert;stroke-width:revert;}#g1e693881-b162-4a91-ab96-7071e856fb87-dark .node .neo-node{stroke:#555555;}#g1e693881-b162-4a91-ab96-7071e856fb87-dark [data-look="neo"].node rect,#g1e693881-b162-4a91-ab96-7071e856fb87-dark [data-look="neo"].cluster rect,#g1e693881-b162-4a91-ab96-7071e856fb87-dark [data-look="neo"].node polygon{stroke:url(#g1e693881-b162-4a91-ab96-7071e856fb87-dark-gradient);filter:drop-shadow( 1px 2px 2px rgba(185,185,185,1));}#g1e693881-b162-4a91-ab96-7071e856fb87-dark [data-look="neo"].node path{stroke:url(#g1e693881-b162-4a91-ab96-7071e856fb87-dark-gradient);stroke-width:1px;}#g1e693881-b162-4a91-ab96-7071e856fb87-dark [data-look="neo"].node .outer-path{filter:drop-shadow( 1px 2px 2px rgba(185,185,185,1));}#g1e693881-b162-4a91-ab96-7071e856fb87-dark [data-look="neo"].node .neo-line path{stroke:#555555;filter:none;}#g1e693881-b162-4a91-ab96-7071e856fb87-dark [data-look="neo"].node circle{stroke:url(#g1e693881-b162-4a91-ab96-7071e856fb87-dark-gradient);filter:drop-shadow( 1px 2px 2px rgba(185,185,185,1));}#g1e693881-b162-4a91-ab96-7071e856fb87-dark [data-look="neo"].node circle .state-start{fill:#000000;}#g1e693881-b162-4a91-ab96-7071e856fb87-dark [data-look="neo"].icon-shape .icon{fill:url(#g1e693881-b162-4a91-ab96-7071e856fb87-dark-gradient);filter:drop-shadow( 1px 2px 2px rgba(185,185,185,1));}#g1e693881-b162-4a91-ab96-7071e856fb87-dark [data-look="neo"].icon-shape .icon-neo path{stroke:url(#g1e693881-b162-4a91-ab96-7071e856fb87-dark-gradient);filter:drop-shadow( 1px 2px 2px rgba(185,185,185,1));}#g1e693881-b162-4a91-ab96-7071e856fb87-dark :root{--mermaid-font-family:"trebuchet ms",verdana,arial,sans-serif;}</style><g><marker id="g1e693881-b162-4a91-ab96-7071e856fb87-dark_flowchart-v2-pointEnd" class="marker flowchart-v2" viewBox="0 0 10 10" refX="5" refY="5" markerUnits="userSpaceOnUse" markerWidth="8" markerHeight="8" orient="auto"><path d="M 0 0 L 10 5 L 0 10 z" class="arrowMarkerPath" style="stroke-width: 1; stroke-dasharray: 1, 0;"></path></marker><marker id="g1e693881-b162-4a91-ab96-7071e856fb87-dark_flowchart-v2-pointStart" class="marker flowchart-v2" viewBox="0 0 10 10" refX="4.5" refY="5" markerUnits="userSpaceOnUse" markerWidth="8" markerHeight="8" orient="auto"><path d="M 0 5 L 10 10 L 10 0 z" class="arrowMarkerPath" style="stroke-width: 1; stroke-dasharray: 1, 0;"></path></marker><marker id="g1e693881-b162-4a91-ab96-7071e856fb87-dark_flowchart-v2-pointEnd-margin" class="marker flowchart-v2" viewBox="0 0 11.5 14" refX="11.5" refY="7" markerUnits="userSpaceOnUse" markerWidth="10.5" markerHeight="14" orient="auto"><path d="M 0 0 L 11.5 7 L 0 14 z" class="arrowMarkerPath" style="stroke-width: 0; stroke-dasharray: 1, 0;"></path></marker><marker id="g1e693881-b162-4a91-ab96-7071e856fb87-dark_flowchart-v2-pointStart-margin" class="marker flowchart-v2" viewBox="0 0 11.5 14" refX="1" refY="7" markerUnits="userSpaceOnUse" markerWidth="11.5" markerHeight="14" orient="auto"><polygon points="0,7 11.5,14 11.5,0" class="arrowMarkerPath" style="stroke-width: 0; stroke-dasharray: 1, 0;"></polygon></marker><marker id="g1e693881-b162-4a91-ab96-7071e856fb87-dark_flowchart-v2-circleEnd" class="marker flowchart-v2" viewBox="0 0 10 10" refX="11" refY="5" markerUnits="userSpaceOnUse" markerWidth="11" markerHeight="11" orient="auto"><circle cx="5" cy="5" r="5" class="arrowMarkerPath" style="stroke-width: 1; stroke-dasharray: 1, 0;"></circle></marker><marker id="g1e693881-b162-4a91-ab96-7071e856fb87-dark_flowchart-v2-circleStart" class="marker flowchart-v2" viewBox="0 0 10 10" refX="-1" refY="5" markerUnits="userSpaceOnUse" markerWidth="11" markerHeight="11" orient="auto"><circle cx="5" cy="5" r="5" class="arrowMarkerPath" style="stroke-width: 1; stroke-dasharray: 1, 0;"></circle></marker><marker id="g1e693881-b162-4a91-ab96-7071e856fb87-dark_flowchart-v2-circleEnd-margin" class="marker flowchart-v2" viewBox="0 0 10 10" refY="5" refX="12.25" markerUnits="userSpaceOnUse" markerWidth="14" markerHeight="14" orient="auto"><circle cx="5" cy="5" r="5" class="arrowMarkerPath" style="stroke-width: 0; stroke-dasharray: 1, 0;"></circle></marker><marker id="g1e693881-b162-4a91-ab96-7071e856fb87-dark_flowchart-v2-circleStart-margin" class="marker flowchart-v2" viewBox="0 0 10 10" refX="-2" refY="5" markerUnits="userSpaceOnUse" markerWidth="14" markerHeight="14" orient="auto"><circle cx="5" cy="5" r="5" class="arrowMarkerPath" style="stroke-width: 0; stroke-dasharray: 1, 0;"></circle></marker><marker id="g1e693881-b162-4a91-ab96-7071e856fb87-dark_flowchart-v2-crossEnd" class="marker cross flowchart-v2" viewBox="0 0 11 11" refX="12" refY="5.2" markerUnits="userSpaceOnUse" markerWidth="11" markerHeight="11" orient="auto"><path d="M 1,1 l 9,9 M 10,1 l -9,9" class="arrowMarkerPath" style="stroke-width: 2; stroke-dasharray: 1, 0;"></path></marker><marker id="g1e693881-b162-4a91-ab96-7071e856fb87-dark_flowchart-v2-crossStart" class="marker cross flowchart-v2" viewBox="0 0 11 11" refX="-1" refY="5.2" markerUnits="userSpaceOnUse" markerWidth="11" markerHeight="11" orient="auto"><path d="M 1,1 l 9,9 M 10,1 l -9,9" class="arrowMarkerPath" style="stroke-width: 2; stroke-dasharray: 1, 0;"></path></marker><marker id="g1e693881-b162-4a91-ab96-7071e856fb87-dark_flowchart-v2-crossEnd-margin" class="marker cross flowchart-v2" viewBox="0 0 15 15" refX="17.7" refY="7.5" markerUnits="userSpaceOnUse" markerWidth="12" markerHeight="12" orient="auto"><path d="M 1,1 L 14,14 M 1,14 L 14,1" class="arrowMarkerPath" style="stroke-width: 2.5;"></path></marker><marker id="g1e693881-b162-4a91-ab96-7071e856fb87-dark_flowchart-v2-crossStart-margin" class="marker cross flowchart-v2" viewBox="0 0 15 15" refX="-3.5" refY="7.5" markerUnits="userSpaceOnUse" markerWidth="12" markerHeight="12" orient="auto"><path d="M 1,1 L 14,14 M 1,14 L 14,1" class="arrowMarkerPath" style="stroke-width: 2.5; stroke-dasharray: 1, 0;"></path></marker><g class="root"><g class="clusters"></g><g class="edgePaths"><path d="M347.641,36.3L310.936,41.417C274.23,46.534,200.82,56.767,164.115,65.383C127.409,74,127.409,81,127.409,84.5L127.409,88" id="g1e693881-b162-4a91-ab96-7071e856fb87-dark-L_Start_Resource_0" class="edge-thickness-normal edge-pattern-solid edge-thickness-normal edge-pattern-solid flowchart-link" style=";" data-edge="true" data-et="edge" data-id="L_Start_Resource_0" data-points="W3sieCI6MzQ3LjY0MTAyNjAxMTQ3NjcsInkiOjM2LjMwMDQ1MDU5ODcxNTF9LHsieCI6MTI3LjQwOTM3ODA1MTc1NzgxLCJ5Ijo2N30seyJ4IjoxMjcuNDA5Mzc4MDUxNzU3ODEsInkiOjkyfV0=" data-look="classic" marker-end="url(#g1e693881-b162-4a91-ab96-7071e856fb87-dark_flowchart-v2-pointEnd)"></path><path d="M423.706,42.5L423.623,46.583C423.54,50.667,423.373,58.833,423.29,66.918C423.206,75.003,423.206,83.005,423.206,87.007L423.206,91.008" id="g1e693881-b162-4a91-ab96-7071e856fb87-dark-L_Start_Service_0" class="edge-thickness-normal edge-pattern-solid edge-thickness-normal edge-pattern-solid flowchart-link" style=";" data-edge="true" data-et="edge" data-id="L_Start_Service_0" data-points="W3sieCI6NDIzLjcwNjI1MzA1MTc1NzgsInkiOjQyLjV9LHsieCI6NDIzLjIwNjI1MzA1MTc1NzgsInkiOjY3fSx7IngiOjQyMy4yMDYyNTMwNTE3NTc4LCJ5Ijo5NS4wMDc4MTI0OTk5OTk5NH1d" data-look="classic" marker-end="url(#g1e693881-b162-4a91-ab96-7071e856fb87-dark_flowchart-v2-pointEnd)"></path><path d="M499.925,36.12L537.378,41.266C574.831,46.413,649.738,56.707,687.191,68.154C724.644,79.602,724.644,92.203,724.644,98.504L724.644,104.805" id="g1e693881-b162-4a91-ab96-7071e856fb87-dark-L_Start_UserFacing_0" class="edge-thickness-normal edge-pattern-solid edge-thickness-normal edge-pattern-solid flowchart-link" style=";" data-edge="true" data-et="edge" data-id="L_Start_UserFacing_0" data-points="W3sieCI6NDk5LjkyNTI5MDg1NjUwNjcsInkiOjM2LjExOTc3ODg1MjMzMDc2fSx7IngiOjcyNC42NDM3NTMwNTE3NTc4LCJ5Ijo2N30seyJ4Ijo3MjQuNjQzNzUzMDUxNzU3OCwieSI6MTA4LjgwNDY4NzQ5OTk5OTk3fV0=" data-look="classic" marker-end="url(#g1e693881-b162-4a91-ab96-7071e856fb87-dark_flowchart-v2-pointEnd)"></path><path d="M127.409,330.819L127.409,336.902C127.409,342.985,127.409,355.152,127.409,368.119C127.409,381.085,127.409,394.852,127.409,401.735L127.409,408.619" id="g1e693881-b162-4a91-ab96-7071e856fb87-dark-L_Resource_USE_0" class="edge-thickness-normal edge-pattern-solid edge-thickness-normal edge-pattern-solid flowchart-link" style=";" data-edge="true" data-et="edge" data-id="L_Resource_USE_0" data-points="W3sieCI6MTI3LjQwOTM3ODA1MTc1NzgsInkiOjMzMC44MTg3NTYxMDM1MTU3fSx7IngiOjEyNy40MDkzNzgwNTE3NTc4MSwieSI6MzY3LjMxODc1NjEwMzUxNTZ9LHsieCI6MTI3LjQwOTM3ODA1MTc1NzgxLCJ5Ijo0MTIuNjE4NzU1MzQwNTc2Mn1d" data-look="classic" marker-end="url(#g1e693881-b162-4a91-ab96-7071e856fb87-dark_flowchart-v2-pointEnd)"></path><path d="M423.206,327.811L423.206,334.396C423.206,340.98,423.206,354.149,423.206,370.551C423.206,386.952,423.206,406.585,423.206,416.402L423.206,426.219" id="g1e693881-b162-4a91-ab96-7071e856fb87-dark-L_Service_RED_0" class="edge-thickness-normal edge-pattern-solid edge-thickness-normal edge-pattern-solid flowchart-link" style=";" data-edge="true" data-et="edge" data-id="L_Service_RED_0" data-points="W3sieCI6NDIzLjIwNjI1MzA1MTc1NzgsInkiOjMyNy44MTA5NDM2MDM1MTU2fSx7IngiOjQyMy4yMDYyNTMwNTE3NTc4LCJ5IjozNjcuMzE4NzU2MTAzNTE1Nn0seyJ4Ijo0MjMuMjA2MjUzMDUxNzU3OCwieSI6NDMwLjIxODc1NzYyOTM5NDUzfV0=" data-look="classic" marker-end="url(#g1e693881-b162-4a91-ab96-7071e856fb87-dark_flowchart-v2-pointEnd)"></path><path d="M724.644,314.014L724.644,322.898C724.644,331.782,724.644,349.551,724.644,363.851C724.644,378.152,724.644,388.985,724.644,394.402L724.644,399.819" id="g1e693881-b162-4a91-ab96-7071e856fb87-dark-L_UserFacing_Golden_0" class="edge-thickness-normal edge-pattern-solid edge-thickness-normal edge-pattern-solid flowchart-link" style=";" data-edge="true" data-et="edge" data-id="L_UserFacing_Golden_0" data-points="W3sieCI6NzI0LjY0Mzc1MzA1MTc1NzgsInkiOjMxNC4wMTQwNjg2MDM1MTU2fSx7IngiOjcyNC42NDM3NTMwNTE3NTc4LCJ5IjozNjcuMzE4NzU2MTAzNTE1Nn0seyJ4Ijo3MjQuNjQzNzUzMDUxNzU3OCwieSI6NDAzLjgxODc1NjEwMzUxNTZ9XQ==" data-look="classic" marker-end="url(#g1e693881-b162-4a91-ab96-7071e856fb87-dark_flowchart-v2-pointEnd)"></path><path d="M423.206,514.419L423.206,522.985C423.206,531.552,423.206,548.685,431.956,561.148C440.706,573.61,458.206,581.401,466.957,585.296L475.707,589.192" id="g1e693881-b162-4a91-ab96-7071e856fb87-dark-L_RED_Slo_0" class="edge-thickness-normal edge-pattern-solid edge-thickness-normal edge-pattern-solid flowchart-link" style=";" data-edge="true" data-et="edge" data-id="L_RED_Slo_0" data-points="W3sieCI6NDIzLjIwNjI1MzA1MTc1NzgsInkiOjUxNC40MTg3NTQ1Nzc2MzY3fSx7IngiOjQyMy4yMDYyNTMwNTE3NTc4LCJ5Ijo1NjUuODE4NzU2MTAzNTE1Nn0seyJ4Ijo0NzkuMzYwNzgxMTU0MzY2LCJ5Ijo1OTAuODE4NzU2MTAzNTE1Nn1d" data-look="classic" marker-end="url(#g1e693881-b162-4a91-ab96-7071e856fb87-dark_flowchart-v2-pointEnd)"></path><path d="M724.644,540.819L724.644,544.985C724.644,549.152,724.644,557.485,715.894,565.548C707.144,573.61,689.644,581.401,680.893,585.296L672.143,589.192" id="g1e693881-b162-4a91-ab96-7071e856fb87-dark-L_Golden_Slo_0" class="edge-thickness-normal edge-pattern-solid edge-thickness-normal edge-pattern-solid flowchart-link" style=";" data-edge="true" data-et="edge" data-id="L_Golden_Slo_0" data-points="W3sieCI6NzI0LjY0Mzc1MzA1MTc1NzgsInkiOjU0MC44MTg3NTYxMDM1MTU2fSx7IngiOjcyNC42NDM3NTMwNTE3NTc4LCJ5Ijo1NjUuODE4NzU2MTAzNTE1Nn0seyJ4Ijo2NjguNDg5MjI0OTQ5MTQ5NiwieSI6NTkwLjgxODc1NjEwMzUxNTZ9XQ==" data-look="classic" marker-end="url(#g1e693881-b162-4a91-ab96-7071e856fb87-dark_flowchart-v2-pointEnd)"></path><path d="M573.925,675.019L573.925,679.185C573.925,683.352,573.925,691.685,573.925,699.352C573.925,707.019,573.925,714.019,573.925,717.519L573.925,721.019" id="g1e693881-b162-4a91-ab96-7071e856fb87-dark-L_Slo_Alert_0" class="edge-thickness-normal edge-pattern-solid edge-thickness-normal edge-pattern-solid flowchart-link" style=";" data-edge="true" data-et="edge" data-id="L_Slo_Alert_0" data-points="W3sieCI6NTczLjkyNTAwMzA1MTc1NzgsInkiOjY3NS4wMTg3NTMwNTE3NTc4fSx7IngiOjU3My45MjUwMDMwNTE3NTc4LCJ5Ijo3MDAuMDE4NzUzMDUxNzU3OH0seyJ4Ijo1NzMuOTI1MDAzMDUxNzU3OCwieSI6NzI1LjAxODc1MzA1MTc1Nzh9XQ==" data-look="classic" marker-end="url(#g1e693881-b162-4a91-ab96-7071e856fb87-dark_flowchart-v2-pointEnd)"></path></g><g class="edgeLabels"><g class="edgeLabel"><g class="label" data-id="L_Start_Resource_0" transform="translate(0, 0)"><text y="-10.1" text-anchor="middle"><tspan class="text-outer-tspan row" x="0" y="-0.1em" dy="1.1em" text-anchor="middle"></tspan></text></g></g><g><rect class="background" style="stroke: none"></rect></g><g class="edgeLabel"><g class="label" data-id="L_Start_Service_0" transform="translate(0, 0)"><text y="-10.1" text-anchor="middle"><tspan class="text-outer-tspan row" x="0" y="-0.1em" dy="1.1em" text-anchor="middle"></tspan></text></g></g><g><rect class="background" style="stroke: none"></rect></g><g class="edgeLabel"><g class="label" data-id="L_Start_UserFacing_0" transform="translate(0, 0)"><text y="-10.1" text-anchor="middle"><tspan class="text-outer-tspan row" x="0" y="-0.1em" dy="1.1em" text-anchor="middle"></tspan></text></g></g><g><rect class="background" style="stroke: none"></rect></g><g class="edgeLabel" transform="translate(127.40937805175781, 367.3187561035156)"><g class="label" data-id="L_Resource_USE_0" transform="translate(0, -10.5)"><g><rect class="background" style="" x="-13.546875" y="-1" width="27.09375" height="23"></rect><text y="-10.1" text-anchor="middle" style=""><tspan class="text-outer-tspan row" x="0" y="-0.1em" dy="1.1em" text-anchor="middle"><tspan font-style="normal" class="text-inner-tspan" font-weight="normal">yes</tspan></tspan></text></g></g></g><g class="edgeLabel" transform="translate(423.2062530517578, 367.3187561035156)"><g class="label" data-id="L_Service_RED_0" transform="translate(0, -10.5)"><g><rect class="background" style="" x="-13.546875" y="-1" width="27.09375" height="23"></rect><text y="-10.1" text-anchor="middle" style=""><tspan class="text-outer-tspan row" x="0" y="-0.1em" dy="1.1em" text-anchor="middle"><tspan font-style="normal" class="text-inner-tspan" font-weight="normal">yes</tspan></tspan></text></g></g></g><g class="edgeLabel" transform="translate(724.6437530517578, 367.3187561035156)"><g class="label" data-id="L_UserFacing_Golden_0" transform="translate(0, -10.5)"><g><rect class="background" style="" x="-13.546875" y="-1" width="27.09375" height="23"></rect><text y="-10.1" text-anchor="middle" style=""><tspan class="text-outer-tspan row" x="0" y="-0.1em" dy="1.1em" text-anchor="middle"><tspan font-style="normal" class="text-inner-tspan" font-weight="normal">yes</tspan></tspan></text></g></g></g><g class="edgeLabel"><g class="label" data-id="L_RED_Slo_0" transform="translate(0, 0)"><text y="-10.1" text-anchor="middle"><tspan class="text-outer-tspan row" x="0" y="-0.1em" dy="1.1em" text-anchor="middle"></tspan></text></g></g><g><rect class="background" style="stroke: none"></rect></g><g class="edgeLabel"><g class="label" data-id="L_Golden_Slo_0" transform="translate(0, 0)"><text y="-10.1" text-anchor="middle"><tspan class="text-outer-tspan row" x="0" y="-0.1em" dy="1.1em" text-anchor="middle"></tspan></text></g></g><g><rect class="background" style="stroke: none"></rect></g><g class="edgeLabel"><g class="label" data-id="L_Slo_Alert_0" transform="translate(0, 0)"><text y="-10.1" text-anchor="middle"><tspan class="text-outer-tspan row" x="0" y="-0.1em" dy="1.1em" text-anchor="middle"></tspan></text></g></g><g><rect class="background" style="stroke: none"></rect></g></g><g class="nodes"><g class="node default" id="g1e693881-b162-4a91-ab96-7071e856fb87-dark-flowchart-Start-0" data-look="classic" transform="translate(423.2062530517578, 25)"><g class="basic label-container outer-path"><path d="M-62.9453125 -17 C-20.18410158619205 -17, 22.5771093276159 -17, 62.9453125 -17 C62.9453125 -17, 62.9453125 -17, 62.9453125 -17 C63.18023294706865 -16.99246655850742, 63.415153394137306 -16.984933117014837, 64.03450623967211 -16.965071676755716 C64.31080201098268 -16.938417755991665, 64.58709778229327 -16.911763835227617, 65.1192242486366 -16.860430234995185 C65.35182272375708 -16.82282551736582, 65.58442119887758 -16.785220799736454, 66.19500918792333 -16.686505668848113 C66.60346955267005 -16.593277256047653, 67.01192991741678 -16.500048843247193, 67.25744042646163 -16.4440126716635 C67.59249488395095 -16.344570267417406, 67.92754934144028 -16.245127863171312, 68.30215220640156 -16.133947699181366 C68.621193034627 -16.016537725213315, 68.94023386285245 -15.899127751245265, 69.32485158294936 -15.757584874882369 C69.57017637993427 -15.64898686455869, 69.81550117691918 -15.54038885423501, 70.32133606499849 -15.316470754341125 C70.65427764714718 -15.142775344193412, 70.98721922929587 -14.969079934045698, 71.28751088406693 -14.812417970097622 C71.56387126601594 -14.644886682486261, 71.84023164796494 -14.4773553948749, 72.21940582057933 -14.247497783161291 C72.53929066076559 -14.024359966238904, 72.85917550095185 -13.80122214931652, 73.11319151835067 -13.624031571755262 C73.34026977593581 -13.44294270413733, 73.56734803352096 -13.2618538365194, 73.9651952202324 -12.944581292275288 C74.27012140335943 -12.66765540066403, 74.57504758648643 -12.390729509052772, 74.77191586025927 -12.21193895166137 C74.95629441414978 -12.021552957008614, 75.14067296804029 -11.831166962355859, 75.53003845028036 -11.42911513444239 C75.7317747822677 -11.192144159767578, 75.93351111425504 -10.955173185092766, 76.23644770195651 -10.59932663159847 C76.4496144393291 -10.313702623408483, 76.66278117670167 -10.028078615218497, 76.88824082814824 -9.725983222076888 C77.10438286177632 -9.393931016161464, 77.32052489540438 -9.061878810246041, 77.48273947109088 -8.812673661278927 C77.64752137745383 -8.520086700554138, 77.81230328381677 -8.227499739829351, 78.017500708341 -7.863150934094199 C78.15503679493361 -7.577554307483822, 78.29257288152623 -7.291957680873443, 78.49032709126881 -6.881316833080699 C78.58221651077089 -6.6543481903494826, 78.67410593027297 -6.4273795476182665, 78.89927567484592 -5.871205925162238 C78.96889387693459 -5.661526992625333, 79.03851207902326 -5.4518480600884285, 79.24266600162323 -4.836968972727556 C79.34542348125353 -4.445110167523809, 79.44818096088385 -4.053251362320062, 79.519087007091 -3.7828558772573464 C79.56253578829629 -3.5597555686713855, 79.60598456950156 -3.336655260085425, 79.72740281804565 -2.713198215567453 C79.76547335452896 -2.4179306524806035, 79.80354389101228 -2.122663089393754, 79.86675742013637 -1.632391440430593 C79.89320498075976 -1.2204493356345552, 79.91965254138316 -0.8085072308385172, 79.9365781754117 -0.5448768187181379 C79.9365781754117 -0.11285478454079095, 79.9365781754117 0.31916724963655596, 79.9365781754117 0.5448768187181336 C79.9123704425751 0.9219317977784571, 79.8881627097385 1.2989867768387806, 79.86675742013637 1.6323914404305815 C79.8350888529455 1.878006593897006, 79.80342028575464 2.1236217473634307, 79.72740281804565 2.7131982155674415 C79.64586224620052 3.1318918183862055, 79.5643216743554 3.55058542120497, 79.519087007091 3.782855877257343 C79.45431773232198 4.029849193132862, 79.38954845755296 4.276842509008381, 79.24266600162323 4.836968972727545 C79.16051215986462 5.084403254667363, 79.07835831810603 5.33183753660718, 78.89927567484592 5.871205925162227 C78.80780423639288 6.097142146621179, 78.71633279793986 6.3230783680801315, 78.49032709126881 6.881316833080694 C78.31694963140696 7.241338838167195, 78.1435721715451 7.601360843253696, 78.017500708341 7.863150934094196 C77.84582744667463 8.167974193985614, 77.67415418500826 8.472797453877034, 77.48273947109088 8.812673661278923 C77.33803134691274 9.034984199588749, 77.19332322273459 9.257294737898576, 76.88824082814826 9.725983222076879 C76.63405444716409 10.06656981573997, 76.37986806617992 10.407156409403058, 76.23644770195651 10.599326631598467 C76.02149462109966 10.851822751549715, 75.80654154024282 11.104318871500963, 75.53003845028037 11.42911513444238 C75.37497444443513 11.589231451469244, 75.21991043858988 11.749347768496108, 74.77191586025927 12.211938951661365 C74.50959312598776 12.450173518247539, 74.24727039171626 12.688408084833712, 73.96519522023242 12.944581292275275 C73.69932910391024 13.156602445047723, 73.43346298758807 13.36862359782017, 73.11319151835067 13.62403157175526 C72.85204949454479 13.806192942906238, 72.5909074707389 13.988354314057215, 72.21940582057934 14.247497783161286 C71.9946842805266 14.383725301351612, 71.76996274047386 14.519952819541937, 71.28751088406695 14.81241797009762 C70.90465252393874 15.012154931344021, 70.52179416381054 15.211891892590423, 70.32133606499849 15.316470754341124 C70.0840130371926 15.421526618813301, 69.8466900093867 15.526582483285479, 69.32485158294936 15.757584874882367 C69.08320384958088 15.846513474529129, 68.8415561162124 15.93544207417589, 68.30215220640156 16.133947699181363 C67.98282604227008 16.228722028518348, 67.6634998781386 16.323496357855333, 67.25744042646164 16.444012671663497 C66.99788033908987 16.50325556781824, 66.73832025171812 16.56249846397298, 66.19500918792333 16.68650566884811 C65.96109190086838 16.7243236017635, 65.72717461381343 16.762141534678893, 65.11922424863661 16.86043023499518 C64.68679223101162 16.902146431659872, 64.25436021338662 16.943862628324567, 64.03450623967211 16.965071676755716 C63.59944444521339 16.979023261707596, 63.164382650754675 16.99297484665948, 62.9453125 17 C62.9453125 17, 62.9453125 17, 62.9453125 17 C15.035033398348219 17, -32.87524570330356 17, -62.9453125 17 C-63.231844882723564 16.990811464187505, -63.518377265447135 16.981622928375007, -64.03450623967211 16.965071676755716 C-64.36634064770284 16.933060010502256, -64.69817505573359 16.901048344248796, -65.1192242486366 16.86043023499518 C-65.46668331192231 16.804255748228428, -65.81414237520802 16.748081261461675, -66.19500918792333 16.68650566884811 C-66.50743009545118 16.61519763544183, -66.81985100297902 16.54388960203555, -67.25744042646161 16.4440126716635 C-67.53527644129441 16.361552400852126, -67.81311245612721 16.279092130040755, -68.30215220640154 16.13394769918137 C-68.5385856174197 16.046938018360198, -68.77501902843785 15.959928337539024, -69.32485158294936 15.757584874882369 C-69.70662434843207 15.58858539648989, -70.08839711391478 15.419585918097411, -70.32133606499849 15.316470754341127 C-70.61579525414788 15.162851583972, -70.91025444329728 15.009232413602872, -71.28751088406693 14.812417970097624 C-71.55221973141872 14.651949911231117, -71.8169285787705 14.49148185236461, -72.21940582057931 14.247497783161299 C-72.51457940301229 14.041597469914498, -72.80975298544526 13.835697156667697, -73.11319151835067 13.624031571755264 C-73.41548126380594 13.38296354402265, -73.71777100926123 13.141895516290033, -73.9651952202324 12.94458129227529 C-74.2521237056539 12.684000433527192, -74.5390521910754 12.423419574779096, -74.77191586025926 12.211938951661377 C-75.03841387128281 11.936757875385938, -75.30491188230637 11.661576799110497, -75.53003845028036 11.429115134442386 C-75.70407884262282 11.22467738641806, -75.87811923496528 11.020239638393734, -76.23644770195651 10.599326631598473 C-76.49144409395053 10.257654696975683, -76.74644048594456 9.915982762352892, -76.88824082814824 9.72598322207689 C-77.11512481309636 9.37742849431606, -77.34200879804447 9.028873766555233, -77.48273947109088 8.812673661278936 C-77.64558666182626 8.523521984062096, -77.80843385256163 8.234370306845257, -78.017500708341 7.863150934094201 C-78.11779742271239 7.654882660696132, -78.21809413708375 7.446614387298062, -78.49032709126881 6.881316833080701 C-78.59910580419361 6.612631309063093, -78.70788451711842 6.343945785045484, -78.89927567484592 5.87120592516224 C-78.99793400106572 5.574062765657829, -79.0965923272855 5.276919606153419, -79.24266600162323 4.8369689727275516 C-79.34791879717396 4.435594446442495, -79.45317159272469 4.034219920157437, -79.519087007091 3.782855877257349 C-79.5870824749907 3.4337135204396345, -79.65507794289039 3.0845711636219195, -79.72740281804565 2.713198215567455 C-79.7679332896566 2.398851881399846, -79.80846376126755 2.0845055472322374, -79.86675742013637 1.6323914404306026 C-79.88606956231438 1.331589237527442, -79.9053817044924 1.0307870346242813, -79.9365781754117 0.54487681871814 C-79.9365781754117 0.30241663189456847, -79.9365781754117 0.0599564450709969, -79.9365781754117 -0.5448768187181317 C-79.92125440613295 -0.7835568943585383, -79.90593063685421 -1.0222369699989449, -79.86675742013637 -1.6323914404305793 C-79.83005903595792 -1.9170168612029972, -79.79336065177947 -2.201642281975415, -79.72740281804565 -2.713198215567447 C-79.67426869563248 -2.9860307042583516, -79.6211345732193 -3.258863192949256, -79.519087007091 -3.782855877257341 C-79.41324836554388 -4.186464488233926, -79.30740972399676 -4.590073099210511, -79.24266600162323 -4.836968972727544 C-79.13773620562849 -5.153000799971121, -79.03280640963375 -5.469032627214698, -78.89927567484594 -5.871205925162218 C-78.81584039222992 -6.077292686335231, -78.7324051096139 -6.283379447508246, -78.49032709126881 -6.881316833080692 C-78.32830253588722 -7.217764289100694, -78.16627798050563 -7.554211745120696, -78.017500708341 -7.863150934094194 C-77.86710413369175 -8.130195281688518, -77.71670755904252 -8.397239629282842, -77.48273947109088 -8.812673661278929 C-77.29138014637047 -9.106652971223044, -77.10002082165008 -9.400632281167159, -76.88824082814826 -9.725983222076884 C-76.63322389038409 -10.067682686159902, -76.3782069526199 -10.40938215024292, -76.23644770195651 -10.599326631598467 C-76.00867939674743 -10.866876243280773, -75.78091109153834 -11.13442585496308, -75.53003845028037 -11.42911513444238 C-75.33050640226668 -11.635148355902315, -75.130974354253 -11.84118157736225, -74.77191586025927 -12.21193895166136 C-74.54590308910367 -12.417197770454635, -74.3198903179481 -12.62245658924791, -73.96519522023242 -12.944581292275274 C-73.77484622261119 -13.096379552478648, -73.58449722498995 -13.248177812682023, -73.11319151835067 -13.624031571755259 C-72.90031788566819 -13.772523002763528, -72.6874442529857 -13.921014433771797, -72.21940582057934 -14.247497783161284 C-71.88512555668156 -14.450140443585004, -71.55084529278376 -14.652783104008725, -71.28751088406695 -14.812417970097618 C-70.9314869305 -14.998155438629269, -70.57546297693305 -15.18389290716092, -70.32133606499849 -15.316470754341124 C-69.92527256351508 -15.491796317641493, -69.52920906203167 -15.66712188094186, -69.32485158294936 -15.757584874882365 C-68.98769055237067 -15.881663250817727, -68.65052952179197 -16.00574162675309, -68.30215220640156 -16.133947699181363 C-67.97234425992 -16.23183296649985, -67.64253631343844 -16.32971823381834, -67.25744042646164 -16.444012671663494 C-66.98519470540904 -16.506150980924392, -66.71294898435643 -16.56828929018529, -66.19500918792333 -16.68650566884811 C-65.79141436766193 -16.7517557494634, -65.38781954740051 -16.817005830078685, -65.11922424863661 -16.86043023499518 C-64.79354164644516 -16.891848443937956, -64.46785904425373 -16.923266652880727, -64.03450623967213 -16.965071676755716 C-63.76530187035542 -16.973704536905185, -63.49609750103871 -16.982337397054657, -62.94531250000001 -17 C-62.94531250000001 -17, -62.9453125 -17, -62.9453125 -17" stroke="none" stroke-width="0" fill="#2d2d2d" style=""></path><path d="M-62.9453125 -17 C-20.242245845408732 -17, 22.460820809182536 -17, 62.9453125 -17 M-62.9453125 -17 C-34.76939546074921 -17, -6.593478421498418 -17, 62.9453125 -17 M62.9453125 -17 C62.9453125 -17, 62.9453125 -17, 62.9453125 -17 M62.9453125 -17 C62.9453125 -17, 62.9453125 -17, 62.9453125 -17 M62.9453125 -17 C63.275148724821555 -16.989422794257237, 63.60498494964311 -16.978845588514474, 64.03450623967211 -16.965071676755716 M62.9453125 -17 C63.34630379185918 -16.987140989752277, 63.74729508371835 -16.974281979504553, 64.03450623967211 -16.965071676755716 M64.03450623967211 -16.965071676755716 C64.2694468720443 -16.942407236508224, 64.50438750441647 -16.919742796260728, 65.1192242486366 -16.860430234995185 M64.03450623967211 -16.965071676755716 C64.42644408145661 -16.927261904532987, 64.81838192324112 -16.889452132310254, 65.1192242486366 -16.860430234995185 M65.1192242486366 -16.860430234995185 C65.35037250036102 -16.823059978237847, 65.58152075208544 -16.785689721480505, 66.19500918792333 -16.686505668848113 M65.1192242486366 -16.860430234995185 C65.42833819176624 -16.810455089884414, 65.7374521348959 -16.760479944773646, 66.19500918792333 -16.686505668848113 M66.19500918792333 -16.686505668848113 C66.5866988652485 -16.597105056012662, 66.97838854257365 -16.507704443177207, 67.25744042646163 -16.4440126716635 M66.19500918792333 -16.686505668848113 C66.43446831682255 -16.631850685293717, 66.67392744572176 -16.577195701739324, 67.25744042646163 -16.4440126716635 M67.25744042646163 -16.4440126716635 C67.53823936203806 -16.360673021528108, 67.81903829761448 -16.277333371392714, 68.30215220640156 -16.133947699181366 M67.25744042646163 -16.4440126716635 C67.47626284672569 -16.37906732595145, 67.69508526698974 -16.314121980239403, 68.30215220640156 -16.133947699181366 M68.30215220640156 -16.133947699181366 C68.5229571386293 -16.05268944302314, 68.74376207085702 -15.971431186864919, 69.32485158294936 -15.757584874882369 M68.30215220640156 -16.133947699181366 C68.62648631820656 -16.01458974792546, 68.95082043001156 -15.895231796669554, 69.32485158294936 -15.757584874882369 M69.32485158294936 -15.757584874882369 C69.56001506751589 -15.653484976141684, 69.79517855208242 -15.549385077400999, 70.32133606499849 -15.316470754341125 M69.32485158294936 -15.757584874882369 C69.58429015246257 -15.642739116130599, 69.84372872197578 -15.52789335737883, 70.32133606499849 -15.316470754341125 M70.32133606499849 -15.316470754341125 C70.55587729883554 -15.194110742879168, 70.79041853267258 -15.07175073141721, 71.28751088406693 -14.812417970097622 M70.32133606499849 -15.316470754341125 C70.51776447229832 -15.213994180071198, 70.71419287959817 -15.111517605801271, 71.28751088406693 -14.812417970097622 M71.28751088406693 -14.812417970097622 C71.54301581485376 -14.657529379541005, 71.7985207456406 -14.50264078898439, 72.21940582057933 -14.247497783161291 M71.28751088406693 -14.812417970097622 C71.65576757756104 -14.589178598384954, 72.02402427105514 -14.365939226672287, 72.21940582057933 -14.247497783161291 M72.21940582057933 -14.247497783161291 C72.47735605697363 -14.067562864738385, 72.73530629336794 -13.887627946315478, 73.11319151835067 -13.624031571755262 M72.21940582057933 -14.247497783161291 C72.42484674391822 -14.10419108843431, 72.63028766725712 -13.96088439370733, 73.11319151835067 -13.624031571755262 M73.11319151835067 -13.624031571755262 C73.33652448321655 -13.445929475414514, 73.55985744808244 -13.267827379073767, 73.9651952202324 -12.944581292275288 M73.11319151835067 -13.624031571755262 C73.4455372053097 -13.358994730495592, 73.77788289226874 -13.09395788923592, 73.9651952202324 -12.944581292275288 M73.9651952202324 -12.944581292275288 C74.12899987649287 -12.795818237493233, 74.29280453275335 -12.647055182711178, 74.77191586025927 -12.21193895166137 M73.9651952202324 -12.944581292275288 C74.1849057048198 -12.745046043393877, 74.40461618940721 -12.545510794512467, 74.77191586025927 -12.21193895166137 M74.77191586025927 -12.21193895166137 C75.00693041072519 -11.96926713325187, 75.24194496119112 -11.726595314842369, 75.53003845028036 -11.42911513444239 M74.77191586025927 -12.21193895166137 C74.95043872747708 -12.027599434258999, 75.12896159469489 -11.843259916856628, 75.53003845028036 -11.42911513444239 M75.53003845028036 -11.42911513444239 C75.71725494258267 -11.209199989663897, 75.90447143488498 -10.989284844885404, 76.23644770195651 -10.59932663159847 M75.53003845028036 -11.42911513444239 C75.75314458176258 -11.167041977304857, 75.9762507132448 -10.904968820167324, 76.23644770195651 -10.59932663159847 M76.23644770195651 -10.59932663159847 C76.45531352522012 -10.306066367511912, 76.67417934848373 -10.012806103425355, 76.88824082814824 -9.725983222076888 M76.23644770195651 -10.59932663159847 C76.3958350383624 -10.38576212129963, 76.55522237476829 -10.17219761100079, 76.88824082814824 -9.725983222076888 M76.88824082814824 -9.725983222076888 C77.12114841621614 -9.368174622360149, 77.35405600428405 -9.01036602264341, 77.48273947109088 -8.812673661278927 M76.88824082814824 -9.725983222076888 C77.01969217389414 -9.524038655382432, 77.15114351964004 -9.322094088687976, 77.48273947109088 -8.812673661278927 M77.48273947109088 -8.812673661278927 C77.6014231615354 -8.601938750867859, 77.72010685197989 -8.391203840456791, 78.017500708341 -7.863150934094199 M77.48273947109088 -8.812673661278927 C77.63457989289323 -8.54306561685889, 77.78642031469558 -8.273457572438852, 78.017500708341 -7.863150934094199 M78.017500708341 -7.863150934094199 C78.1462186391917 -7.595865396560192, 78.27493657004241 -7.328579859026183, 78.49032709126881 -6.881316833080699 M78.017500708341 -7.863150934094199 C78.17760292904539 -7.530695247162779, 78.3377051497498 -7.198239560231358, 78.49032709126881 -6.881316833080699 M78.49032709126881 -6.881316833080699 C78.57868996889108 -6.663058816973656, 78.66705284651337 -6.444800800866613, 78.89927567484592 -5.871205925162238 M78.49032709126881 -6.881316833080699 C78.61807184216413 -6.5657848285925375, 78.74581659305943 -6.250252824104376, 78.89927567484592 -5.871205925162238 M78.89927567484592 -5.871205925162238 C78.99211122350876 -5.591600043925745, 79.0849467721716 -5.311994162689253, 79.24266600162323 -4.836968972727556 M78.89927567484592 -5.871205925162238 C79.02069068563274 -5.5055232575272255, 79.14210569641956 -5.139840589892214, 79.24266600162323 -4.836968972727556 M79.24266600162323 -4.836968972727556 C79.33426316696881 -4.487669282802268, 79.4258603323144 -4.13836959287698, 79.519087007091 -3.7828558772573464 M79.24266600162323 -4.836968972727556 C79.30459814412693 -4.600794871800622, 79.36653028663062 -4.364620770873688, 79.519087007091 -3.7828558772573464 M79.519087007091 -3.7828558772573464 C79.59364143687333 -3.40003463740944, 79.66819586665564 -3.0172133975615343, 79.72740281804565 -2.713198215567453 M79.519087007091 -3.7828558772573464 C79.5843598781477 -3.447693479807401, 79.64963274920439 -3.1125310823574552, 79.72740281804565 -2.713198215567453 M79.72740281804565 -2.713198215567453 C79.76175812891456 -2.446745208691646, 79.79611343978347 -2.1802922018158393, 79.86675742013637 -1.632391440430593 M79.72740281804565 -2.713198215567453 C79.77835867780296 -2.317994629662355, 79.82931453756028 -1.9227910437572566, 79.86675742013637 -1.632391440430593 M79.86675742013637 -1.632391440430593 C79.88374711115807 -1.3677632889358209, 79.90073680217978 -1.1031351374410487, 79.9365781754117 -0.5448768187181379 M79.86675742013637 -1.632391440430593 C79.89306386271194 -1.2226473631378152, 79.91937030528752 -0.8129032858450376, 79.9365781754117 -0.5448768187181379 M79.9365781754117 -0.5448768187181379 C79.9365781754117 -0.25874630729432146, 79.9365781754117 0.027384204129494938, 79.9365781754117 0.5448768187181336 M79.9365781754117 -0.5448768187181379 C79.9365781754117 -0.2089904100791259, 79.9365781754117 0.1268959985598861, 79.9365781754117 0.5448768187181336 M79.9365781754117 0.5448768187181336 C79.91792015369046 0.835490567510508, 79.89926213196921 1.1261043163028823, 79.86675742013637 1.6323914404305815 M79.9365781754117 0.5448768187181336 C79.9143393538968 0.8912644146662387, 79.8921005323819 1.2376520106143438, 79.86675742013637 1.6323914404305815 M79.86675742013637 1.6323914404305815 C79.83574779228587 1.872895990495339, 79.80473816443539 2.1134005405600966, 79.72740281804565 2.7131982155674415 M79.86675742013637 1.6323914404305815 C79.81941385939928 1.9995787484639433, 79.77207029866219 2.366766056497305, 79.72740281804565 2.7131982155674415 M79.72740281804565 2.7131982155674415 C79.65261218730505 3.0972322974150224, 79.57782155656444 3.4812663792626033, 79.519087007091 3.782855877257343 M79.72740281804565 2.7131982155674415 C79.65184551248684 3.101169010569692, 79.57628820692806 3.4891398055719423, 79.519087007091 3.782855877257343 M79.519087007091 3.782855877257343 C79.42732343451556 4.13279015007147, 79.3355598619401 4.482724422885597, 79.24266600162323 4.836968972727545 M79.519087007091 3.782855877257343 C79.42535391778651 4.140300770953268, 79.33162082848202 4.497745664649194, 79.24266600162323 4.836968972727545 M79.24266600162323 4.836968972727545 C79.15595319169195 5.0981341404305365, 79.06924038176066 5.359299308133528, 78.89927567484592 5.871205925162227 M79.24266600162323 4.836968972727545 C79.11713835358842 5.215038248493773, 78.9916107055536 5.5931075242600015, 78.89927567484592 5.871205925162227 M78.89927567484592 5.871205925162227 C78.76593343847283 6.200563827000521, 78.63259120209975 6.529921728838816, 78.49032709126881 6.881316833080694 M78.89927567484592 5.871205925162227 C78.78742223419778 6.1474860861023135, 78.67556879354963 6.4237662470423995, 78.49032709126881 6.881316833080694 M78.49032709126881 6.881316833080694 C78.30864806253285 7.258577223559405, 78.12696903379688 7.635837614038116, 78.017500708341 7.863150934094196 M78.49032709126881 6.881316833080694 C78.35868156049101 7.154681594503924, 78.2270360297132 7.428046355927155, 78.017500708341 7.863150934094196 M78.017500708341 7.863150934094196 C77.85214639129913 8.156754267942292, 77.68679207425726 8.450357601790389, 77.48273947109088 8.812673661278923 M78.017500708341 7.863150934094196 C77.8262329692941 8.20276617273074, 77.63496523024719 8.542381411367286, 77.48273947109088 8.812673661278923 M77.48273947109088 8.812673661278923 C77.24985327042671 9.17044940420021, 77.01696706976254 9.5282251471215, 76.88824082814826 9.725983222076879 M77.48273947109088 8.812673661278923 C77.34525432801567 9.023887760972649, 77.20776918494045 9.235101860666374, 76.88824082814826 9.725983222076879 M76.88824082814826 9.725983222076879 C76.7058265276609 9.970401766445292, 76.52341222717354 10.214820310813707, 76.23644770195651 10.599326631598467 M76.88824082814826 9.725983222076879 C76.71085358024865 9.963665973951612, 76.53346633234905 10.201348725826344, 76.23644770195651 10.599326631598467 M76.23644770195651 10.599326631598467 C76.0226729805129 10.850438583532377, 75.8088982590693 11.101550535466288, 75.53003845028037 11.42911513444238 M76.23644770195651 10.599326631598467 C76.04505616140355 10.824146025619147, 75.8536646208506 11.048965419639826, 75.53003845028037 11.42911513444238 M75.53003845028037 11.42911513444238 C75.255485525178 11.71261357082493, 74.98093260007565 11.996112007207477, 74.77191586025927 12.211938951661365 M75.53003845028037 11.42911513444238 C75.23009445416331 11.738831936293309, 74.93015045804624 12.048548738144238, 74.77191586025927 12.211938951661365 M74.77191586025927 12.211938951661365 C74.5258584344632 12.435401795446625, 74.27980100866714 12.658864639231883, 73.96519522023242 12.944581292275275 M74.77191586025927 12.211938951661365 C74.5034199074962 12.455779871947167, 74.23492395473312 12.699620792232968, 73.96519522023242 12.944581292275275 M73.96519522023242 12.944581292275275 C73.76970264935763 13.100481415272123, 73.57421007848285 13.25638153826897, 73.11319151835067 13.62403157175526 M73.96519522023242 12.944581292275275 C73.68208804053091 13.17035173428877, 73.39898086082941 13.396122176302267, 73.11319151835067 13.62403157175526 M73.11319151835067 13.62403157175526 C72.9166079066645 13.761159789300143, 72.72002429497833 13.898288006845023, 72.21940582057934 14.247497783161286 M73.11319151835067 13.62403157175526 C72.88022969933805 13.786535651943867, 72.64726788032542 13.949039732132473, 72.21940582057934 14.247497783161286 M72.21940582057934 14.247497783161286 C71.85270586445907 14.469793451529533, 71.48600590833881 14.692089119897778, 71.28751088406695 14.81241797009762 M72.21940582057934 14.247497783161286 C71.84808256427549 14.472596123270346, 71.47675930797165 14.697694463379408, 71.28751088406695 14.81241797009762 M71.28751088406695 14.81241797009762 C71.05858486449124 14.931848527876154, 70.82965884491553 15.051279085654688, 70.32133606499849 15.316470754341124 M71.28751088406695 14.81241797009762 C71.07116937018743 14.925283199315208, 70.85482785630792 15.038148428532795, 70.32133606499849 15.316470754341124 M70.32133606499849 15.316470754341124 C70.0487635354164 15.437130527610304, 69.77619100583432 15.557790300879484, 69.32485158294936 15.757584874882367 M70.32133606499849 15.316470754341124 C70.02985127269096 15.445502425306513, 69.73836648038345 15.574534096271902, 69.32485158294936 15.757584874882367 M69.32485158294936 15.757584874882367 C68.99283436042496 15.879770281904904, 68.66081713790058 16.001955688927442, 68.30215220640156 16.133947699181363 M69.32485158294936 15.757584874882367 C69.08763668399766 15.844882150487084, 68.85042178504594 15.932179426091801, 68.30215220640156 16.133947699181363 M68.30215220640156 16.133947699181363 C68.0828683365189 16.199030000718015, 67.86358446663624 16.26411230225467, 67.25744042646164 16.444012671663497 M68.30215220640156 16.133947699181363 C67.88943423996515 16.256440225218878, 67.47671627352874 16.37893275125639, 67.25744042646164 16.444012671663497 M67.25744042646164 16.444012671663497 C67.01513688200174 16.499316874508075, 66.77283333754184 16.55462107735265, 66.19500918792333 16.68650566884811 M67.25744042646164 16.444012671663497 C66.86385645110542 16.53384564566309, 66.4702724757492 16.62367861966268, 66.19500918792333 16.68650566884811 M66.19500918792333 16.68650566884811 C65.89344712426461 16.73525988465172, 65.59188506060588 16.784014100455334, 65.11922424863661 16.86043023499518 M66.19500918792333 16.68650566884811 C65.91755629310752 16.731362101202595, 65.64010339829171 16.77621853355708, 65.11922424863661 16.86043023499518 M65.11922424863661 16.86043023499518 C64.82219349149008 16.889084434905357, 64.52516273434355 16.91773863481553, 64.03450623967211 16.965071676755716 M65.11922424863661 16.86043023499518 C64.86102981849777 16.885337941146442, 64.60283538835893 16.910245647297703, 64.03450623967211 16.965071676755716 M64.03450623967211 16.965071676755716 C63.734439712654904 16.974694226233094, 63.434373185637696 16.984316775710475, 62.9453125 17 M64.03450623967211 16.965071676755716 C63.73413460399442 16.974704010473978, 63.43376296831673 16.984336344192243, 62.9453125 17 M62.9453125 17 C62.9453125 17, 62.9453125 17, 62.9453125 17 M62.9453125 17 C62.9453125 17, 62.9453125 17, 62.9453125 17 M62.9453125 17 C14.295300185636748 17, -34.354712128726504 17, -62.9453125 17 M62.9453125 17 C17.989892753429373 17, -26.965526993141253 17, -62.9453125 17 M-62.9453125 17 C-63.234214576939266 16.990735472706337, -63.52311665387853 16.981470945412674, -64.03450623967211 16.965071676755716 M-62.9453125 17 C-63.296111662279586 16.98875055365484, -63.646910824559164 16.97750110730968, -64.03450623967211 16.965071676755716 M-64.03450623967211 16.965071676755716 C-64.44656400317444 16.92532095988261, -64.85862176667679 16.885570243009507, -65.1192242486366 16.86043023499518 M-64.03450623967211 16.965071676755716 C-64.35075547237744 16.934563493621983, -64.66700470508277 16.904055310488246, -65.1192242486366 16.86043023499518 M-65.1192242486366 16.86043023499518 C-65.34971623601126 16.823166077968505, -65.58020822338592 16.78590192094183, -66.19500918792333 16.68650566884811 M-65.1192242486366 16.86043023499518 C-65.39837016574167 16.815300087926552, -65.67751608284674 16.770169940857926, -66.19500918792333 16.68650566884811 M-66.19500918792333 16.68650566884811 C-66.44457630290651 16.62954360343082, -66.69414341788969 16.572581538013534, -67.25744042646161 16.4440126716635 M-66.19500918792333 16.68650566884811 C-66.48291234665353 16.620793651611628, -66.77081550538374 16.55508163437515, -67.25744042646161 16.4440126716635 M-67.25744042646161 16.4440126716635 C-67.58664472796909 16.346306563004724, -67.91584902947656 16.248600454345947, -68.30215220640154 16.13394769918137 M-67.25744042646161 16.4440126716635 C-67.6118031593285 16.338839672636553, -67.96616589219538 16.233666673609605, -68.30215220640154 16.13394769918137 M-68.30215220640154 16.13394769918137 C-68.62562966851092 16.014905002932238, -68.94910713062029 15.895862306683108, -69.32485158294936 15.757584874882369 M-68.30215220640154 16.13394769918137 C-68.64241735690685 16.00872697841885, -68.98268250741215 15.883506257656327, -69.32485158294936 15.757584874882369 M-69.32485158294936 15.757584874882369 C-69.6132497589458 15.629919557396677, -69.90164793494223 15.502254239910986, -70.32133606499849 15.316470754341127 M-69.32485158294936 15.757584874882369 C-69.56475303594084 15.6513876180668, -69.80465448893231 15.545190361251228, -70.32133606499849 15.316470754341127 M-70.32133606499849 15.316470754341127 C-70.64188797785575 15.149239026726795, -70.962439890713 14.982007299112462, -71.28751088406693 14.812417970097624 M-70.32133606499849 15.316470754341127 C-70.69993069457148 15.118958178594333, -71.07852532414447 14.92144560284754, -71.28751088406693 14.812417970097624 M-71.28751088406693 14.812417970097624 C-71.48961851266843 14.689899137923135, -71.69172614126992 14.567380305748646, -72.21940582057931 14.247497783161299 M-71.28751088406693 14.812417970097624 C-71.61507351717876 14.613847576933534, -71.94263615029058 14.415277183769446, -72.21940582057931 14.247497783161299 M-72.21940582057931 14.247497783161299 C-72.42535698647649 14.103835165313713, -72.63130815237365 13.96017254746613, -73.11319151835067 13.624031571755264 M-72.21940582057931 14.247497783161299 C-72.5554887865939 14.013060854866636, -72.8915717526085 13.778623926571973, -73.11319151835067 13.624031571755264 M-73.11319151835067 13.624031571755264 C-73.30636140542371 13.469983727281093, -73.49953129249675 13.315935882806922, -73.9651952202324 12.94458129227529 M-73.11319151835067 13.624031571755264 C-73.38385332560719 13.408185983081374, -73.65451513286371 13.192340394407482, -73.9651952202324 12.94458129227529 M-73.9651952202324 12.94458129227529 C-74.15496649571008 12.772236040959255, -74.34473777118778 12.599890789643222, -74.77191586025926 12.211938951661377 M-73.9651952202324 12.94458129227529 C-74.1807062085847 12.748859914762027, -74.39621719693697 12.553138537248763, -74.77191586025926 12.211938951661377 M-74.77191586025926 12.211938951661377 C-75.031244940429 11.944160385072658, -75.29057402059877 11.67638181848394, -75.53003845028036 11.429115134442386 M-74.77191586025926 12.211938951661377 C-75.03952771234049 11.935607743045844, -75.3071395644217 11.659276534430312, -75.53003845028036 11.429115134442386 M-75.53003845028036 11.429115134442386 C-75.69608636587478 11.23406580439113, -75.86213428146918 11.039016474339878, -76.23644770195651 10.599326631598473 M-75.53003845028036 11.429115134442386 C-75.78904430821905 11.124872115856776, -76.04805016615775 10.82062909727117, -76.23644770195651 10.599326631598473 M-76.23644770195651 10.599326631598473 C-76.392217835268 10.39060884391215, -76.54798796857949 10.181891056225828, -76.88824082814824 9.72598322207689 M-76.23644770195651 10.599326631598473 C-76.48575744671616 10.26527428620551, -76.73506719147584 9.931221940812549, -76.88824082814824 9.72598322207689 M-76.88824082814824 9.72598322207689 C-77.12156309105785 9.367537570447494, -77.35488535396748 9.009091918818099, -77.48273947109088 8.812673661278936 M-76.88824082814824 9.72598322207689 C-77.04984220680917 9.477720108407519, -77.2114435854701 9.229456994738149, -77.48273947109088 8.812673661278936 M-77.48273947109088 8.812673661278936 C-77.62141682219833 8.566437981783134, -77.76009417330577 8.320202302287331, -78.017500708341 7.863150934094201 M-77.48273947109088 8.812673661278936 C-77.61530456998186 8.577290904526139, -77.74786966887282 8.341908147773344, -78.017500708341 7.863150934094201 M-78.017500708341 7.863150934094201 C-78.18340235372241 7.518652617733149, -78.34930399910382 7.174154301372097, -78.49032709126881 6.881316833080701 M-78.017500708341 7.863150934094201 C-78.20245319354811 7.47909314121241, -78.38740567875521 7.0950353483306206, -78.49032709126881 6.881316833080701 M-78.49032709126881 6.881316833080701 C-78.59755662830513 6.616457803458943, -78.70478616534143 6.351598773837185, -78.89927567484592 5.87120592516224 M-78.49032709126881 6.881316833080701 C-78.63376472687254 6.527023099961461, -78.77720236247627 6.17272936684222, -78.89927567484592 5.87120592516224 M-78.89927567484592 5.87120592516224 C-79.02567739347957 5.4905040880165865, -79.15207911211321 5.109802250870934, -79.24266600162323 4.8369689727275516 M-78.89927567484592 5.87120592516224 C-79.01070531668901 5.535597597833273, -79.12213495853209 5.1999892705043065, -79.24266600162323 4.8369689727275516 M-79.24266600162323 4.8369689727275516 C-79.35006372439572 4.4274149093285535, -79.45746144716821 4.0178608459295555, -79.519087007091 3.782855877257349 M-79.24266600162323 4.8369689727275516 C-79.31154257531506 4.574312745944746, -79.38041914900688 4.31165651916194, -79.519087007091 3.782855877257349 M-79.519087007091 3.782855877257349 C-79.56939767114604 3.5245212504973678, -79.61970833520107 3.2661866237373864, -79.72740281804565 2.713198215567455 M-79.519087007091 3.782855877257349 C-79.58016508640755 3.4692328488235544, -79.64124316572408 3.15560982038976, -79.72740281804565 2.713198215567455 M-79.72740281804565 2.713198215567455 C-79.77717668987852 2.327161894594487, -79.82695056171137 1.9411255736215192, -79.86675742013637 1.6323914404306026 M-79.72740281804565 2.713198215567455 C-79.77991254440249 2.305943147162055, -79.83242227075934 1.8986880787566545, -79.86675742013637 1.6323914404306026 M-79.86675742013637 1.6323914404306026 C-79.89426652215818 1.2039149714935604, -79.92177562417997 0.7754385025565185, -79.9365781754117 0.54487681871814 M-79.86675742013637 1.6323914404306026 C-79.88090051463729 1.4121013274783571, -79.89504360913821 1.191811214526112, -79.9365781754117 0.54487681871814 M-79.9365781754117 0.54487681871814 C-79.9365781754117 0.2172757351066898, -79.9365781754117 -0.11032534850476039, -79.9365781754117 -0.5448768187181317 M-79.9365781754117 0.54487681871814 C-79.9365781754117 0.23685836995511828, -79.9365781754117 -0.07116007880790343, -79.9365781754117 -0.5448768187181317 M-79.9365781754117 -0.5448768187181317 C-79.9205581439455 -0.7944017399407259, -79.90453811247932 -1.04392666116332, -79.86675742013637 -1.6323914404305793 M-79.9365781754117 -0.5448768187181317 C-79.91832610899215 -0.8291674860054775, -79.9000740425726 -1.1134581532928234, -79.86675742013637 -1.6323914404305793 M-79.86675742013637 -1.6323914404305793 C-79.83013425806847 -1.9164334533677971, -79.79351109600059 -2.200475466305015, -79.72740281804565 -2.713198215567447 M-79.86675742013637 -1.6323914404305793 C-79.81937220948718 -1.9999017769574672, -79.77198699883799 -2.367412113484355, -79.72740281804565 -2.713198215567447 M-79.72740281804565 -2.713198215567447 C-79.65998571447668 -3.0593707937842542, -79.5925686109077 -3.4055433720010617, -79.519087007091 -3.782855877257341 M-79.72740281804565 -2.713198215567447 C-79.65375049403728 -3.091387332926238, -79.5800981700289 -3.469576450285029, -79.519087007091 -3.782855877257341 M-79.519087007091 -3.782855877257341 C-79.43043503258833 -4.120924278044812, -79.34178305808567 -4.458992678832282, -79.24266600162323 -4.836968972727544 M-79.519087007091 -3.782855877257341 C-79.43117631013082 -4.118097465503574, -79.34326561317064 -4.453339053749808, -79.24266600162323 -4.836968972727544 M-79.24266600162323 -4.836968972727544 C-79.13768046203916 -5.153168690780645, -79.03269492245508 -5.469368408833747, -78.89927567484594 -5.871205925162218 M-79.24266600162323 -4.836968972727544 C-79.14936202111913 -5.117985696035439, -79.05605804061504 -5.3990024193433355, -78.89927567484594 -5.871205925162218 M-78.89927567484594 -5.871205925162218 C-78.75390831113558 -6.230266124013573, -78.60854094742523 -6.5893263228649275, -78.49032709126881 -6.881316833080692 M-78.89927567484594 -5.871205925162218 C-78.76752237794385 -6.196639115787069, -78.63576908104177 -6.5220723064119195, -78.49032709126881 -6.881316833080692 M-78.49032709126881 -6.881316833080692 C-78.36572366187568 -7.140058520301833, -78.24112023248253 -7.398800207522974, -78.017500708341 -7.863150934094194 M-78.49032709126881 -6.881316833080692 C-78.31057228070414 -7.254581543355048, -78.13081747013946 -7.627846253629404, -78.017500708341 -7.863150934094194 M-78.017500708341 -7.863150934094194 C-77.83410695682852 -8.188785110535672, -77.65071320531604 -8.514419286977152, -77.48273947109088 -8.812673661278929 M-78.017500708341 -7.863150934094194 C-77.8776000711663 -8.111558681873563, -77.73769943399158 -8.359966429652932, -77.48273947109088 -8.812673661278929 M-77.48273947109088 -8.812673661278929 C-77.3101913108478 -9.077753971080927, -77.13764315060473 -9.342834280882926, -76.88824082814826 -9.725983222076884 M-77.48273947109088 -8.812673661278929 C-77.25236879392874 -9.166584884588472, -77.02199811676658 -9.520496107898015, -76.88824082814826 -9.725983222076884 M-76.88824082814826 -9.725983222076884 C-76.73688819929346 -9.928781956234163, -76.58553557043867 -10.131580690391443, -76.23644770195651 -10.599326631598467 M-76.88824082814826 -9.725983222076884 C-76.73889949754233 -9.926086999813709, -76.58955816693641 -10.126190777550534, -76.23644770195651 -10.599326631598467 M-76.23644770195651 -10.599326631598467 C-76.0327209215213 -10.838635700279857, -75.82899414108611 -11.077944768961245, -75.53003845028037 -11.42911513444238 M-76.23644770195651 -10.599326631598467 C-75.99415884435706 -10.883932910361343, -75.7518699867576 -11.168539189124218, -75.53003845028037 -11.42911513444238 M-75.53003845028037 -11.42911513444238 C-75.32105696181199 -11.644905678985278, -75.1120754733436 -11.860696223528178, -74.77191586025927 -12.21193895166136 M-75.53003845028037 -11.42911513444238 C-75.2506653860543 -11.717590760210946, -74.97129232182822 -12.006066385979512, -74.77191586025927 -12.21193895166136 M-74.77191586025927 -12.21193895166136 C-74.53669569516738 -12.425559682013292, -74.30147553007549 -12.639180412365224, -73.96519522023242 -12.944581292275274 M-74.77191586025927 -12.21193895166136 C-74.57982811987787 -12.386387955112646, -74.38774037949646 -12.560836958563932, -73.96519522023242 -12.944581292275274 M-73.96519522023242 -12.944581292275274 C-73.74032058113721 -13.123912832788237, -73.515445942042 -13.3032443733012, -73.11319151835067 -13.624031571755259 M-73.96519522023242 -12.944581292275274 C-73.7934843466419 -13.081516144545454, -73.6217734730514 -13.218450996815633, -73.11319151835067 -13.624031571755259 M-73.11319151835067 -13.624031571755259 C-72.86157381742396 -13.799549187567022, -72.60995611649723 -13.975066803378786, -72.21940582057934 -14.247497783161284 M-73.11319151835067 -13.624031571755259 C-72.77903923398104 -13.857121740112264, -72.4448869496114 -14.090211908469271, -72.21940582057934 -14.247497783161284 M-72.21940582057934 -14.247497783161284 C-72.0020071483175 -14.379286135862818, -71.78460847605567 -14.511074488564352, -71.28751088406695 -14.812417970097618 M-72.21940582057934 -14.247497783161284 C-72.01440245484302 -14.371772028204138, -71.80939908910672 -14.496046273246991, -71.28751088406695 -14.812417970097618 M-71.28751088406695 -14.812417970097618 C-70.90672691485497 -15.01107272293173, -70.52594294564301 -15.209727475765842, -70.32133606499849 -15.316470754341124 M-71.28751088406695 -14.812417970097618 C-71.04173306642252 -14.940640100134507, -70.7959552487781 -15.068862230171396, -70.32133606499849 -15.316470754341124 M-70.32133606499849 -15.316470754341124 C-69.94876386638482 -15.481397414705796, -69.57619166777117 -15.646324075070469, -69.32485158294936 -15.757584874882365 M-70.32133606499849 -15.316470754341124 C-70.0134340297066 -15.452769851775482, -69.70553199441471 -15.589068949209839, -69.32485158294936 -15.757584874882365 M-69.32485158294936 -15.757584874882365 C-69.09179951754453 -15.843350189261024, -68.85874745213968 -15.929115503639682, -68.30215220640156 -16.133947699181363 M-69.32485158294936 -15.757584874882365 C-68.98254111425543 -15.883558291645022, -68.64023064556147 -16.00953170840768, -68.30215220640156 -16.133947699181363 M-68.30215220640156 -16.133947699181363 C-68.05731607818119 -16.206613776866106, -67.81247994996082 -16.27927985455085, -67.25744042646164 -16.444012671663494 M-68.30215220640156 -16.133947699181363 C-67.92066177335555 -16.247172057225274, -67.53917134030954 -16.360396415269182, -67.25744042646164 -16.444012671663494 M-67.25744042646164 -16.444012671663494 C-66.87232697456984 -16.531912303957665, -66.48721352267803 -16.619811936251832, -66.19500918792333 -16.68650566884811 M-67.25744042646164 -16.444012671663494 C-67.03787774479149 -16.494126420974307, -66.81831506312133 -16.544240170285125, -66.19500918792333 -16.68650566884811 M-66.19500918792333 -16.68650566884811 C-65.84992628199512 -16.742295996920678, -65.5048433760669 -16.79808632499325, -65.11922424863661 -16.86043023499518 M-66.19500918792333 -16.68650566884811 C-65.7960355525091 -16.751008632135132, -65.39706191709486 -16.81551159542215, -65.11922424863661 -16.86043023499518 M-65.11922424863661 -16.86043023499518 C-64.86773668634055 -16.884690937671838, -64.61624912404449 -16.908951640348494, -64.03450623967213 -16.965071676755716 M-65.11922424863661 -16.86043023499518 C-64.71315402286237 -16.899603341304726, -64.30708379708813 -16.93877644761427, -64.03450623967213 -16.965071676755716 M-64.03450623967213 -16.965071676755716 C-63.61605443978613 -16.97849061151104, -63.19760263990013 -16.99190954626637, -62.94531250000001 -17 M-64.03450623967213 -16.965071676755716 C-63.65016738527033 -16.977396675746185, -63.26582853086854 -16.989721674736654, -62.94531250000001 -17 M-62.94531250000001 -17 C-62.94531250000001 -17, -62.9453125 -17, -62.9453125 -17 M-62.94531250000001 -17 C-62.94531250000001 -17, -62.9453125 -17, -62.9453125 -17" stroke="#555555" stroke-width="1.3" fill="none" stroke-dasharray="0 0" style=""></path></g><g class="label" style="" transform="translate(0, -9.5)"><rect></rect><g><rect class="background" style="stroke: none"></rect><text y="-10.1" style=""><tspan class="text-outer-tspan row" x="0" y="-0.1em" dy="1.1em"><tspan font-style="normal" class="text-inner-tspan" font-weight="normal">What</tspan><tspan font-style="normal" class="text-inner-tspan" font-weight="normal"> is</tspan><tspan font-style="normal" class="text-inner-tspan" font-weight="normal"> the</tspan><tspan font-style="normal" class="text-inner-tspan" font-weight="normal"> target?</tspan></tspan></text></g></g></g><g class="node default" id="g1e693881-b162-4a91-ab96-7071e856fb87-dark-flowchart-Resource-1" data-look="classic" transform="translate(127.40937805175781, 211.4093780517578)"><polygon points="119.40937423706055,0 238.8187484741211,-119.40937423706055 119.40937423706055,-238.8187484741211 0,-119.40937423706055" class="label-container" transform="translate(-118.90937423706055, 119.40937423706055)"></polygon><g class="label" style="" transform="translate(0, -18.299999237060547)"><rect></rect><g><rect class="background" style="stroke: none"></rect><text y="-10.1" style=""><tspan class="text-outer-tspan row" x="0" y="-0.1em" dy="1.1em"><tspan font-style="normal" class="text-inner-tspan" font-weight="normal">Hardware</tspan><tspan font-style="normal" class="text-inner-tspan" font-weight="normal"> /</tspan><tspan font-style="normal" class="text-inner-tspan" font-weight="normal"> OS</tspan><tspan font-style="normal" class="text-inner-tspan" font-weight="normal"> resource</tspan></tspan><tspan class="text-outer-tspan row" x="0" y="1em" dy="1.1em"><tspan font-style="normal" class="text-inner-tspan" font-weight="normal">CPU,</tspan><tspan font-style="normal" class="text-inner-tspan" font-weight="normal"> disk,</tspan><tspan font-style="normal" class="text-inner-tspan" font-weight="normal"> NIC,</tspan><tspan font-style="normal" class="text-inner-tspan" font-weight="normal"> queue?</tspan></tspan></text></g></g></g><g class="node default" id="g1e693881-b162-4a91-ab96-7071e856fb87-dark-flowchart-Service-2" data-look="classic" transform="translate(423.2062530517578, 211.4093780517578)"><polygon points="116.40156173706055,0 232.8031234741211,-116.40156173706055 116.40156173706055,-232.8031234741211 0,-116.40156173706055" class="label-container" transform="translate(-115.90156173706055, 116.40156173706055)"></polygon><g class="label" style="" transform="translate(0, -18.299999237060547)"><rect></rect><g><rect class="background" style="stroke: none"></rect><text y="-10.1" style=""><tspan class="text-outer-tspan row" x="0" y="-0.1em" dy="1.1em"><tspan font-style="normal" class="text-inner-tspan" font-weight="normal">Internal</tspan><tspan font-style="normal" class="text-inner-tspan" font-weight="normal"> request-driven</tspan></tspan><tspan class="text-outer-tspan row" x="0" y="1em" dy="1.1em"><tspan font-style="normal" class="text-inner-tspan" font-weight="normal">microservice?</tspan></tspan></text></g></g></g><g class="node default" id="g1e693881-b162-4a91-ab96-7071e856fb87-dark-flowchart-UserFacing-3" data-look="classic" transform="translate(724.6437530517578, 211.4093780517578)"><polygon points="102.60468673706055,0 205.2093734741211,-102.60468673706055 102.60468673706055,-205.2093734741211 0,-102.60468673706055" class="label-container" transform="translate(-102.10468673706055, 102.60468673706055)"></polygon><g class="label" style="" transform="translate(0, -18.299999237060547)"><rect></rect><g><rect class="background" style="stroke: none"></rect><text y="-10.1" style=""><tspan class="text-outer-tspan row" x="0" y="-0.1em" dy="1.1em"><tspan font-style="normal" class="text-inner-tspan" font-weight="normal">User-facing</tspan></tspan><tspan class="text-outer-tspan row" x="0" y="1em" dy="1.1em"><tspan font-style="normal" class="text-inner-tspan" font-weight="normal">distributed</tspan><tspan font-style="normal" class="text-inner-tspan" font-weight="normal"> system?</tspan></tspan></text></g></g></g><g class="node default" id="g1e693881-b162-4a91-ab96-7071e856fb87-dark-flowchart-USE-4" data-look="classic" transform="translate(127.40937805175781, 472.3187561035156)"><rect class="basic label-container" style="" x="-117.5390625" y="-59.70000076293945" width="235.078125" height="119.4000015258789"></rect><g class="label" style="" transform="translate(0, -44.70000076293945)"><rect></rect><g><rect class="background" style="stroke: none"></rect><text y="-10.1" style=""><tspan class="text-outer-tspan row" x="0" y="-0.1em" dy="1.1em"><tspan font-style="normal" class="text-inner-tspan" font-weight="normal">USE</tspan><tspan font-style="normal" class="text-inner-tspan" font-weight="normal"> method</tspan><tspan font-style="normal" class="text-inner-tspan" font-weight="normal"> (Brendan</tspan></tspan><tspan class="text-outer-tspan row" x="0" y="1em" dy="1.1em"><tspan font-style="normal" class="text-inner-tspan" font-weight="normal">Gregg)</tspan></tspan><tspan class="text-outer-tspan row" x="0" y="2.1em" dy="1.1em"><tspan font-style="normal" class="text-inner-tspan" font-weight="normal">Utilization</tspan><tspan font-style="normal" class="text-inner-tspan" font-weight="normal"> ·</tspan><tspan font-style="normal" class="text-inner-tspan" font-weight="normal"> Saturation</tspan><tspan font-style="normal" class="text-inner-tspan" font-weight="normal"> ·</tspan></tspan><tspan class="text-outer-tspan row" x="0" y="3.2em" dy="1.1em"><tspan font-style="normal" class="text-inner-tspan" font-weight="normal">Errors</tspan></tspan><tspan class="text-outer-tspan row" x="0" y="4.300000000000001em" dy="1.1em"><tspan font-style="normal" class="text-inner-tspan" font-weight="normal">Check</tspan><tspan font-style="normal" class="text-inner-tspan" font-weight="normal"> per</tspan><tspan font-style="normal" class="text-inner-tspan" font-weight="normal"> resource.</tspan></tspan></text></g></g></g><g class="node default" id="g1e693881-b162-4a91-ab96-7071e856fb87-dark-flowchart-RED-5" data-look="classic" transform="translate(423.2062530517578, 472.3187561035156)"><rect class="basic label-container" style="" x="-128.2578125" y="-42.099998474121094" width="256.515625" height="84.19999694824219"></rect><g class="label" style="" transform="translate(0, -27.099998474121094)"><rect></rect><g><rect class="background" style="stroke: none"></rect><text y="-10.1" style=""><tspan class="text-outer-tspan row" x="0" y="-0.1em" dy="1.1em"><tspan font-style="normal" class="text-inner-tspan" font-weight="normal">RED</tspan><tspan font-style="normal" class="text-inner-tspan" font-weight="normal"> method</tspan><tspan font-style="normal" class="text-inner-tspan" font-weight="normal"> (Tom</tspan><tspan font-style="normal" class="text-inner-tspan" font-weight="normal"> Wilkie)</tspan></tspan><tspan class="text-outer-tspan row" x="0" y="1em" dy="1.1em"><tspan font-style="normal" class="text-inner-tspan" font-weight="normal">Rate</tspan><tspan font-style="normal" class="text-inner-tspan" font-weight="normal"> ·</tspan><tspan font-style="normal" class="text-inner-tspan" font-weight="normal"> Errors</tspan><tspan font-style="normal" class="text-inner-tspan" font-weight="normal"> ·</tspan><tspan font-style="normal" class="text-inner-tspan" font-weight="normal"> Duration</tspan></tspan><tspan class="text-outer-tspan row" x="0" y="2.1em" dy="1.1em"><tspan font-style="normal" class="text-inner-tspan" font-weight="normal">One</tspan><tspan font-style="normal" class="text-inner-tspan" font-weight="normal"> dashboard</tspan><tspan font-style="normal" class="text-inner-tspan" font-weight="normal"> per</tspan><tspan font-style="normal" class="text-inner-tspan" font-weight="normal"> service.</tspan></tspan></text></g></g></g><g class="node default" id="g1e693881-b162-4a91-ab96-7071e856fb87-dark-flowchart-Golden-6" data-look="classic" transform="translate(724.6437530517578, 472.3187561035156)"><rect class="basic label-container" style="" x="-123.1796875" y="-68.5" width="246.359375" height="137"></rect><g class="label" style="" transform="translate(0, -53.5)"><rect></rect><g><rect class="background" style="stroke: none"></rect><text y="-10.1" style=""><tspan class="text-outer-tspan row" x="0" y="-0.1em" dy="1.1em"><tspan font-style="normal" class="text-inner-tspan" font-weight="normal">Four</tspan><tspan font-style="normal" class="text-inner-tspan" font-weight="normal"> Golden</tspan><tspan font-style="normal" class="text-inner-tspan" font-weight="normal"> Signals</tspan></tspan><tspan class="text-outer-tspan row" x="0" y="1em" dy="1.1em"><tspan font-style="normal" class="text-inner-tspan" font-weight="normal">(Google</tspan><tspan font-style="normal" class="text-inner-tspan" font-weight="normal"> SRE)</tspan></tspan><tspan class="text-outer-tspan row" x="0" y="2.1em" dy="1.1em"><tspan font-style="normal" class="text-inner-tspan" font-weight="normal">Latency</tspan><tspan font-style="normal" class="text-inner-tspan" font-weight="normal"> ·</tspan><tspan font-style="normal" class="text-inner-tspan" font-weight="normal"> Traffic</tspan><tspan font-style="normal" class="text-inner-tspan" font-weight="normal"> ·</tspan><tspan font-style="normal" class="text-inner-tspan" font-weight="normal"> Errors</tspan><tspan font-style="normal" class="text-inner-tspan" font-weight="normal"> ·</tspan></tspan><tspan class="text-outer-tspan row" x="0" y="3.2em" dy="1.1em"><tspan font-style="normal" class="text-inner-tspan" font-weight="normal">Saturation</tspan></tspan><tspan class="text-outer-tspan row" x="0" y="4.300000000000001em" dy="1.1em"><tspan font-style="normal" class="text-inner-tspan" font-weight="normal">Latency:</tspan><tspan font-style="normal" class="text-inner-tspan" font-weight="normal"> split</tspan><tspan font-style="normal" class="text-inner-tspan" font-weight="normal"> success</tspan><tspan font-style="normal" class="text-inner-tspan" font-weight="normal"> vs</tspan></tspan><tspan class="text-outer-tspan row" x="0" y="5.4em" dy="1.1em"><tspan font-style="normal" class="text-inner-tspan" font-weight="normal">failure;</tspan><tspan font-style="normal" class="text-inner-tspan" font-weight="normal"> track</tspan><tspan font-style="normal" class="text-inner-tspan" font-weight="normal"> p99.</tspan></tspan></text></g></g></g><g class="node default" id="g1e693881-b162-4a91-ab96-7071e856fb87-dark-flowchart-Slo-7" data-look="classic" transform="translate(573.9250030517578, 632.9187545776367)"><rect class="basic label-container" style="" x="-124.03125" y="-42.099998474121094" width="248.0625" height="84.19999694824219"></rect><g class="label" style="" transform="translate(0, -27.099998474121094)"><rect></rect><g><rect class="background" style="stroke: none"></rect><text y="-10.1" style=""><tspan class="text-outer-tspan row" x="0" y="-0.1em" dy="1.1em"><tspan font-style="normal" class="text-inner-tspan" font-weight="normal">SLO</tspan><tspan font-style="normal" class="text-inner-tspan" font-weight="normal"> +</tspan><tspan font-style="normal" class="text-inner-tspan" font-weight="normal"> error</tspan><tspan font-style="normal" class="text-inner-tspan" font-weight="normal"> budget</tspan></tspan><tspan class="text-outer-tspan row" x="0" y="1em" dy="1.1em"><tspan font-style="normal" class="text-inner-tspan" font-weight="normal">1</tspan><tspan font-style="normal" class="text-inner-tspan" font-weight="normal"> minus</tspan><tspan font-style="normal" class="text-inner-tspan" font-weight="normal"> availability</tspan><tspan font-style="normal" class="text-inner-tspan" font-weight="normal"> target</tspan></tspan><tspan class="text-outer-tspan row" x="0" y="2.1em" dy="1.1em"><tspan font-style="normal" class="text-inner-tspan" font-weight="normal">over</tspan><tspan font-style="normal" class="text-inner-tspan" font-weight="normal"> rolling</tspan><tspan font-style="normal" class="text-inner-tspan" font-weight="normal"> 28</tspan><tspan font-style="normal" class="text-inner-tspan" font-weight="normal"> to</tspan><tspan font-style="normal" class="text-inner-tspan" font-weight="normal"> 30</tspan><tspan font-style="normal" class="text-inner-tspan" font-weight="normal"> days.</tspan></tspan></text></g></g></g><g class="node default" id="g1e693881-b162-4a91-ab96-7071e856fb87-dark-flowchart-Alert-8" data-look="classic" transform="translate(573.9250030517578, 767.1187515258789)"><rect class="basic label-container" style="" x="-105.4765625" y="-42.099998474121094" width="210.953125" height="84.19999694824219"></rect><g class="label" style="" transform="translate(0, -27.099998474121094)"><rect></rect><g><rect class="background" style="stroke: none"></rect><text y="-10.1" style=""><tspan class="text-outer-tspan row" x="0" y="-0.1em" dy="1.1em"><tspan font-style="normal" class="text-inner-tspan" font-weight="normal">Multi-window</tspan></tspan><tspan class="text-outer-tspan row" x="0" y="1em" dy="1.1em"><tspan font-style="normal" class="text-inner-tspan" font-weight="normal">multi-burn-rate</tspan><tspan font-style="normal" class="text-inner-tspan" font-weight="normal"> alert</tspan></tspan><tspan class="text-outer-tspan row" x="0" y="2.1em" dy="1.1em"><tspan font-style="normal" class="text-inner-tspan" font-weight="normal">(see</tspan><tspan font-style="normal" class="text-inner-tspan" font-weight="normal"> SLO</tspan><tspan font-style="normal" class="text-inner-tspan" font-weight="normal"> section).</tspan></tspan></text></g></g></g></g></g></g><defs><filter id="g1e693881-b162-4a91-ab96-7071e856fb87-dark-drop-shadow" height="130%" width="130%"><feDropShadow dx="4" dy="4" stdDeviation="0" flood-opacity="0.06" flood-color="#000000"></feDropShadow></filter></defs><defs><filter id="g1e693881-b162-4a91-ab96-7071e856fb87-dark-drop-shadow-small" height="150%" width="150%"><feDropShadow dx="2" dy="2" stdDeviation="0" flood-opacity="0.06" flood-color="#000000"></feDropShadow></filter></defs><linearGradient id="g1e693881-b162-4a91-ab96-7071e856fb87-dark-gradient" gradientUnits="objectBoundingBox" x1="0%" y1="0%" x2="100%" y2="0%"><stop offset="0%" stop-color="#555555" stop-opacity="1"></stop><stop offset="100%" stop-color="#555555" stop-opacity="1"></stop></linearGradient></svg>