<svg id="g08629a55-59a6-425f-9162-5feccaf1417c-dark" width="100%" xmlns="http://www.w3.org/2000/svg" xmlns:xlink="http://www.w3.org/1999/xlink" class="flowchart" style="max-width: 1570.2734375px;" viewBox="0 0 1570.2734375 666.1375122070312" role="graphics-document document" aria-roledescription="flowchart-v2"><style>#g08629a55-59a6-425f-9162-5feccaf1417c-dark{font-family:"trebuchet ms",verdana,arial,sans-serif;font-size:16px;fill:#e5e5e5;}@keyframes edge-animation-frame{from{stroke-dashoffset:0;}}@keyframes dash{to{stroke-dashoffset:0;}}#g08629a55-59a6-425f-9162-5feccaf1417c-dark .edge-animation-slow{stroke-dasharray:9,5!important;stroke-dashoffset:900;animation:dash 50s linear infinite;stroke-linecap:round;}#g08629a55-59a6-425f-9162-5feccaf1417c-dark .edge-animation-fast{stroke-dasharray:9,5!important;stroke-dashoffset:900;animation:dash 20s linear infinite;stroke-linecap:round;}#g08629a55-59a6-425f-9162-5feccaf1417c-dark .error-icon{fill:#252525;}#g08629a55-59a6-425f-9162-5feccaf1417c-dark .error-text{fill:#cccccc;stroke:#cccccc;}#g08629a55-59a6-425f-9162-5feccaf1417c-dark .edge-thickness-normal{stroke-width:1px;}#g08629a55-59a6-425f-9162-5feccaf1417c-dark .edge-thickness-thick{stroke-width:3.5px;}#g08629a55-59a6-425f-9162-5feccaf1417c-dark .edge-pattern-solid{stroke-dasharray:0;}#g08629a55-59a6-425f-9162-5feccaf1417c-dark .edge-thickness-invisible{stroke-width:0;fill:none;}#g08629a55-59a6-425f-9162-5feccaf1417c-dark .edge-pattern-dashed{stroke-dasharray:3;}#g08629a55-59a6-425f-9162-5feccaf1417c-dark .edge-pattern-dotted{stroke-dasharray:2;}#g08629a55-59a6-425f-9162-5feccaf1417c-dark .marker{fill:#cccccc;stroke:#cccccc;}#g08629a55-59a6-425f-9162-5feccaf1417c-dark .marker.cross{stroke:#cccccc;}#g08629a55-59a6-425f-9162-5feccaf1417c-dark svg{font-family:"trebuchet ms",verdana,arial,sans-serif;font-size:16px;}#g08629a55-59a6-425f-9162-5feccaf1417c-dark p{margin:0;}#g08629a55-59a6-425f-9162-5feccaf1417c-dark .label{font-family:"trebuchet ms",verdana,arial,sans-serif;color:#e5e5e5;}#g08629a55-59a6-425f-9162-5feccaf1417c-dark .cluster-label text{fill:#e5e5e5;}#g08629a55-59a6-425f-9162-5feccaf1417c-dark .cluster-label span{color:#e5e5e5;}#g08629a55-59a6-425f-9162-5feccaf1417c-dark .cluster-label span p{background-color:transparent;}#g08629a55-59a6-425f-9162-5feccaf1417c-dark .label text,#g08629a55-59a6-425f-9162-5feccaf1417c-dark span{fill:#e5e5e5;color:#e5e5e5;}#g08629a55-59a6-425f-9162-5feccaf1417c-dark .node rect,#g08629a55-59a6-425f-9162-5feccaf1417c-dark .node circle,#g08629a55-59a6-425f-9162-5feccaf1417c-dark .node ellipse,#g08629a55-59a6-425f-9162-5feccaf1417c-dark .node polygon,#g08629a55-59a6-425f-9162-5feccaf1417c-dark .node path{fill:#2d2d2d;stroke:#555555;stroke-width:1px;}#g08629a55-59a6-425f-9162-5feccaf1417c-dark .rough-node .label text,#g08629a55-59a6-425f-9162-5feccaf1417c-dark .node .label text,#g08629a55-59a6-425f-9162-5feccaf1417c-dark .image-shape .label,#g08629a55-59a6-425f-9162-5feccaf1417c-dark .icon-shape .label{text-anchor:middle;}#g08629a55-59a6-425f-9162-5feccaf1417c-dark .node .katex path{fill:#000;stroke:#000;stroke-width:1px;}#g08629a55-59a6-425f-9162-5feccaf1417c-dark .rough-node .label,#g08629a55-59a6-425f-9162-5feccaf1417c-dark .node .label,#g08629a55-59a6-425f-9162-5feccaf1417c-dark .image-shape .label,#g08629a55-59a6-425f-9162-5feccaf1417c-dark .icon-shape .label{text-align:center;}#g08629a55-59a6-425f-9162-5feccaf1417c-dark .node.clickable{cursor:pointer;}#g08629a55-59a6-425f-9162-5feccaf1417c-dark .root .anchor path{fill:#cccccc!important;stroke-width:0;stroke:#cccccc;}#g08629a55-59a6-425f-9162-5feccaf1417c-dark .arrowheadPath{fill:#cccccc;}#g08629a55-59a6-425f-9162-5feccaf1417c-dark .edgePath .path{stroke:#cccccc;stroke-width:1px;}#g08629a55-59a6-425f-9162-5feccaf1417c-dark .flowchart-link{stroke:#cccccc;fill:none;}#g08629a55-59a6-425f-9162-5feccaf1417c-dark .edgeLabel{background-color:#1e1e1e;text-align:center;}#g08629a55-59a6-425f-9162-5feccaf1417c-dark .edgeLabel p{background-color:#1e1e1e;}#g08629a55-59a6-425f-9162-5feccaf1417c-dark .edgeLabel rect{opacity:0.5;background-color:#1e1e1e;fill:#1e1e1e;}#g08629a55-59a6-425f-9162-5feccaf1417c-dark .labelBkg{background-color:rgba(30, 30, 30, 0.5);}#g08629a55-59a6-425f-9162-5feccaf1417c-dark .cluster rect{fill:#1e1e1e;stroke:#555555;stroke-width:1px;}#g08629a55-59a6-425f-9162-5feccaf1417c-dark .cluster text{fill:#e5e5e5;}#g08629a55-59a6-425f-9162-5feccaf1417c-dark .cluster span{color:#e5e5e5;}#g08629a55-59a6-425f-9162-5feccaf1417c-dark div.mermaidTooltip{position:absolute;text-align:center;max-width:200px;padding:2px;font-family:"trebuchet ms",verdana,arial,sans-serif;font-size:12px;background:#252525;border:1px solid #555555;border-radius:2px;pointer-events:none;z-index:100;}#g08629a55-59a6-425f-9162-5feccaf1417c-dark .flowchartTitleText{text-anchor:middle;font-size:18px;fill:#e5e5e5;}#g08629a55-59a6-425f-9162-5feccaf1417c-dark rect.text{fill:none;stroke-width:0;}#g08629a55-59a6-425f-9162-5feccaf1417c-dark .icon-shape,#g08629a55-59a6-425f-9162-5feccaf1417c-dark .image-shape{background-color:#1e1e1e;text-align:center;}#g08629a55-59a6-425f-9162-5feccaf1417c-dark .icon-shape p,#g08629a55-59a6-425f-9162-5feccaf1417c-dark .image-shape p{background-color:#1e1e1e;padding:2px;}#g08629a55-59a6-425f-9162-5feccaf1417c-dark .icon-shape .label rect,#g08629a55-59a6-425f-9162-5feccaf1417c-dark .image-shape .label rect{opacity:0.5;background-color:#1e1e1e;fill:#1e1e1e;}#g08629a55-59a6-425f-9162-5feccaf1417c-dark .label-icon{display:inline-block;height:1em;overflow:visible;vertical-align:-0.125em;}#g08629a55-59a6-425f-9162-5feccaf1417c-dark .node .label-icon path{fill:currentColor;stroke:revert;stroke-width:revert;}#g08629a55-59a6-425f-9162-5feccaf1417c-dark .node .neo-node{stroke:#555555;}#g08629a55-59a6-425f-9162-5feccaf1417c-dark [data-look="neo"].node rect,#g08629a55-59a6-425f-9162-5feccaf1417c-dark [data-look="neo"].cluster rect,#g08629a55-59a6-425f-9162-5feccaf1417c-dark [data-look="neo"].node polygon{stroke:url(#g08629a55-59a6-425f-9162-5feccaf1417c-dark-gradient);filter:drop-shadow( 1px 2px 2px rgba(185,185,185,1));}#g08629a55-59a6-425f-9162-5feccaf1417c-dark [data-look="neo"].node path{stroke:url(#g08629a55-59a6-425f-9162-5feccaf1417c-dark-gradient);stroke-width:1px;}#g08629a55-59a6-425f-9162-5feccaf1417c-dark [data-look="neo"].node .outer-path{filter:drop-shadow( 1px 2px 2px rgba(185,185,185,1));}#g08629a55-59a6-425f-9162-5feccaf1417c-dark [data-look="neo"].node .neo-line path{stroke:#555555;filter:none;}#g08629a55-59a6-425f-9162-5feccaf1417c-dark [data-look="neo"].node circle{stroke:url(#g08629a55-59a6-425f-9162-5feccaf1417c-dark-gradient);filter:drop-shadow( 1px 2px 2px rgba(185,185,185,1));}#g08629a55-59a6-425f-9162-5feccaf1417c-dark [data-look="neo"].node circle .state-start{fill:#000000;}#g08629a55-59a6-425f-9162-5feccaf1417c-dark [data-look="neo"].icon-shape .icon{fill:url(#g08629a55-59a6-425f-9162-5feccaf1417c-dark-gradient);filter:drop-shadow( 1px 2px 2px rgba(185,185,185,1));}#g08629a55-59a6-425f-9162-5feccaf1417c-dark [data-look="neo"].icon-shape .icon-neo path{stroke:url(#g08629a55-59a6-425f-9162-5feccaf1417c-dark-gradient);filter:drop-shadow( 1px 2px 2px rgba(185,185,185,1));}#g08629a55-59a6-425f-9162-5feccaf1417c-dark :root{--mermaid-font-family:"trebuchet ms",verdana,arial,sans-serif;}#g08629a55-59a6-425f-9162-5feccaf1417c-dark .start rect{fill:#5A5A5A!important;stroke:#3D3D3D!important;color:#fff!important;}#g08629a55-59a6-425f-9162-5feccaf1417c-dark .start polygon{fill:#5A5A5A!important;stroke:#3D3D3D!important;color:#fff!important;}#g08629a55-59a6-425f-9162-5feccaf1417c-dark .start ellipse{fill:#5A5A5A!important;stroke:#3D3D3D!important;color:#fff!important;}#g08629a55-59a6-425f-9162-5feccaf1417c-dark .start circle{fill:#5A5A5A!important;stroke:#3D3D3D!important;color:#fff!important;}#g08629a55-59a6-425f-9162-5feccaf1417c-dark .start path{fill:#5A5A5A!important;stroke:#3D3D3D!important;color:#fff!important;}#g08629a55-59a6-425f-9162-5feccaf1417c-dark .start tspan{fill:#fff!important;}#g08629a55-59a6-425f-9162-5feccaf1417c-dark .decision rect{fill:#2E5A88!important;stroke:#1F4870!important;color:#fff!important;}#g08629a55-59a6-425f-9162-5feccaf1417c-dark .decision polygon{fill:#2E5A88!important;stroke:#1F4870!important;color:#fff!important;}#g08629a55-59a6-425f-9162-5feccaf1417c-dark .decision ellipse{fill:#2E5A88!important;stroke:#1F4870!important;color:#fff!important;}#g08629a55-59a6-425f-9162-5feccaf1417c-dark .decision circle{fill:#2E5A88!important;stroke:#1F4870!important;color:#fff!important;}#g08629a55-59a6-425f-9162-5feccaf1417c-dark .decision path{fill:#2E5A88!important;stroke:#1F4870!important;color:#fff!important;}#g08629a55-59a6-425f-9162-5feccaf1417c-dark .decision tspan{fill:#fff!important;}#g08629a55-59a6-425f-9162-5feccaf1417c-dark .leaf rect{fill:#8B5E15!important;stroke:#6E4810!important;color:#fff!important;}#g08629a55-59a6-425f-9162-5feccaf1417c-dark .leaf polygon{fill:#8B5E15!important;stroke:#6E4810!important;color:#fff!important;}#g08629a55-59a6-425f-9162-5feccaf1417c-dark .leaf ellipse{fill:#8B5E15!important;stroke:#6E4810!important;color:#fff!important;}#g08629a55-59a6-425f-9162-5feccaf1417c-dark .leaf circle{fill:#8B5E15!important;stroke:#6E4810!important;color:#fff!important;}#g08629a55-59a6-425f-9162-5feccaf1417c-dark .leaf path{fill:#8B5E15!important;stroke:#6E4810!important;color:#fff!important;}#g08629a55-59a6-425f-9162-5feccaf1417c-dark .leaf tspan{fill:#fff!important;}#g08629a55-59a6-425f-9162-5feccaf1417c-dark .option rect{fill:#1F6E68!important;stroke:#155752!important;color:#fff!important;}#g08629a55-59a6-425f-9162-5feccaf1417c-dark .option polygon{fill:#1F6E68!important;stroke:#155752!important;color:#fff!important;}#g08629a55-59a6-425f-9162-5feccaf1417c-dark .option ellipse{fill:#1F6E68!important;stroke:#155752!important;color:#fff!important;}#g08629a55-59a6-425f-9162-5feccaf1417c-dark .option circle{fill:#1F6E68!important;stroke:#155752!important;color:#fff!important;}#g08629a55-59a6-425f-9162-5feccaf1417c-dark .option path{fill:#1F6E68!important;stroke:#155752!important;color:#fff!important;}#g08629a55-59a6-425f-9162-5feccaf1417c-dark .option tspan{fill:#fff!important;}</style><g><marker id="g08629a55-59a6-425f-9162-5feccaf1417c-dark_flowchart-v2-pointEnd" class="marker flowchart-v2" viewBox="0 0 10 10" refX="5" refY="5" markerUnits="userSpaceOnUse" markerWidth="8" markerHeight="8" orient="auto"><path d="M 0 0 L 10 5 L 0 10 z" class="arrowMarkerPath" style="stroke-width: 1; stroke-dasharray: 1, 0;"></path></marker><marker id="g08629a55-59a6-425f-9162-5feccaf1417c-dark_flowchart-v2-pointStart" class="marker flowchart-v2" viewBox="0 0 10 10" refX="4.5" refY="5" markerUnits="userSpaceOnUse" markerWidth="8" markerHeight="8" orient="auto"><path d="M 0 5 L 10 10 L 10 0 z" class="arrowMarkerPath" style="stroke-width: 1; stroke-dasharray: 1, 0;"></path></marker><marker id="g08629a55-59a6-425f-9162-5feccaf1417c-dark_flowchart-v2-pointEnd-margin" class="marker flowchart-v2" viewBox="0 0 11.5 14" refX="11.5" refY="7" markerUnits="userSpaceOnUse" markerWidth="10.5" markerHeight="14" orient="auto"><path d="M 0 0 L 11.5 7 L 0 14 z" class="arrowMarkerPath" style="stroke-width: 0; stroke-dasharray: 1, 0;"></path></marker><marker id="g08629a55-59a6-425f-9162-5feccaf1417c-dark_flowchart-v2-pointStart-margin" class="marker flowchart-v2" viewBox="0 0 11.5 14" refX="1" refY="7" markerUnits="userSpaceOnUse" markerWidth="11.5" markerHeight="14" orient="auto"><polygon points="0,7 11.5,14 11.5,0" class="arrowMarkerPath" style="stroke-width: 0; stroke-dasharray: 1, 0;"></polygon></marker><marker id="g08629a55-59a6-425f-9162-5feccaf1417c-dark_flowchart-v2-circleEnd" class="marker flowchart-v2" viewBox="0 0 10 10" refX="11" refY="5" markerUnits="userSpaceOnUse" markerWidth="11" markerHeight="11" orient="auto"><circle cx="5" cy="5" r="5" class="arrowMarkerPath" style="stroke-width: 1; stroke-dasharray: 1, 0;"></circle></marker><marker id="g08629a55-59a6-425f-9162-5feccaf1417c-dark_flowchart-v2-circleStart" class="marker flowchart-v2" viewBox="0 0 10 10" refX="-1" refY="5" markerUnits="userSpaceOnUse" markerWidth="11" markerHeight="11" orient="auto"><circle cx="5" cy="5" r="5" class="arrowMarkerPath" style="stroke-width: 1; stroke-dasharray: 1, 0;"></circle></marker><marker id="g08629a55-59a6-425f-9162-5feccaf1417c-dark_flowchart-v2-circleEnd-margin" class="marker flowchart-v2" viewBox="0 0 10 10" refY="5" refX="12.25" markerUnits="userSpaceOnUse" markerWidth="14" markerHeight="14" orient="auto"><circle cx="5" cy="5" r="5" class="arrowMarkerPath" style="stroke-width: 0; stroke-dasharray: 1, 0;"></circle></marker><marker id="g08629a55-59a6-425f-9162-5feccaf1417c-dark_flowchart-v2-circleStart-margin" class="marker flowchart-v2" viewBox="0 0 10 10" refX="-2" refY="5" markerUnits="userSpaceOnUse" markerWidth="14" markerHeight="14" orient="auto"><circle cx="5" cy="5" r="5" class="arrowMarkerPath" style="stroke-width: 0; stroke-dasharray: 1, 0;"></circle></marker><marker id="g08629a55-59a6-425f-9162-5feccaf1417c-dark_flowchart-v2-crossEnd" class="marker cross flowchart-v2" viewBox="0 0 11 11" refX="12" refY="5.2" markerUnits="userSpaceOnUse" markerWidth="11" markerHeight="11" orient="auto"><path d="M 1,1 l 9,9 M 10,1 l -9,9" class="arrowMarkerPath" style="stroke-width: 2; stroke-dasharray: 1, 0;"></path></marker><marker id="g08629a55-59a6-425f-9162-5feccaf1417c-dark_flowchart-v2-crossStart" class="marker cross flowchart-v2" viewBox="0 0 11 11" refX="-1" refY="5.2" markerUnits="userSpaceOnUse" markerWidth="11" markerHeight="11" orient="auto"><path d="M 1,1 l 9,9 M 10,1 l -9,9" class="arrowMarkerPath" style="stroke-width: 2; stroke-dasharray: 1, 0;"></path></marker><marker id="g08629a55-59a6-425f-9162-5feccaf1417c-dark_flowchart-v2-crossEnd-margin" class="marker cross flowchart-v2" viewBox="0 0 15 15" refX="17.7" refY="7.5" markerUnits="userSpaceOnUse" markerWidth="12" markerHeight="12" orient="auto"><path d="M 1,1 L 14,14 M 1,14 L 14,1" class="arrowMarkerPath" style="stroke-width: 2.5;"></path></marker><marker id="g08629a55-59a6-425f-9162-5feccaf1417c-dark_flowchart-v2-crossStart-margin" class="marker cross flowchart-v2" viewBox="0 0 15 15" refX="-3.5" refY="7.5" markerUnits="userSpaceOnUse" markerWidth="12" markerHeight="12" orient="auto"><path d="M 1,1 L 14,14 M 1,14 L 14,1" class="arrowMarkerPath" style="stroke-width: 2.5; stroke-dasharray: 1, 0;"></path></marker><g class="root"><g class="clusters"></g><g class="edgePaths"><path d="M851.484,29.714L740.669,35.928C629.854,42.142,408.223,54.571,297.407,64.286C186.592,74,186.592,81,186.592,84.5L186.592,88" id="g08629a55-59a6-425f-9162-5feccaf1417c-dark-L_start_work_0" class="edge-thickness-normal edge-pattern-solid edge-thickness-normal edge-pattern-solid flowchart-link" style=";" data-edge="true" data-et="edge" data-id="L_start_work_0" data-points="W3sieCI6ODUxLjQ4NDQ3NjcwMTgyNTgsInkiOjI5LjcxMzUzNTA0MjIzNDU4Nn0seyJ4IjoxODYuNTkxNzk2ODc1LCJ5Ijo2N30seyJ4IjoxODYuNTkxNzk2ODc0OTk5OTcsInkiOjkxLjk5OTk5OTk5OTk5OTk5fV0=" data-look="classic" marker-end="url(#g08629a55-59a6-425f-9162-5feccaf1417c-dark_flowchart-v2-pointEnd)"></path><path d="M854.989,36.492L821.722,41.577C788.456,46.662,721.923,56.831,688.657,65.8C655.391,74.769,655.391,82.539,655.391,86.423L655.391,90.308" id="g08629a55-59a6-425f-9162-5feccaf1417c-dark-L_start_bcast_0" class="edge-thickness-normal edge-pattern-solid edge-thickness-normal edge-pattern-solid flowchart-link" style=";" data-edge="true" data-et="edge" data-id="L_start_bcast_0" data-points="W3sieCI6ODU0Ljk4ODc5NjM4NjY4OTQsInkiOjM2LjQ5MjM4NzY4ODY2ODgwNn0seyJ4Ijo2NTUuMzkwNjI1LCJ5Ijo2N30seyJ4Ijo2NTUuMzkwNjI1LCJ5Ijo5NC4zMDc4MTU1NTE3NTc4MX1d" data-look="classic" marker-end="url(#g08629a55-59a6-425f-9162-5feccaf1417c-dark_flowchart-v2-pointEnd)"></path><path d="M925.57,42.5L925.487,46.583C925.404,50.667,925.237,58.833,925.154,76.715C925.07,94.596,925.07,122.193,925.07,135.991L925.07,149.789" id="g08629a55-59a6-425f-9162-5feccaf1417c-dark-L_start_src_0" class="edge-thickness-normal edge-pattern-solid edge-thickness-normal edge-pattern-solid flowchart-link" style=";" data-edge="true" data-et="edge" data-id="L_start_src_0" data-points="W3sieCI6OTI1LjU3MDMxMjUsInkiOjQyLjV9LHsieCI6OTI1LjA3MDMxMjUsInkiOjY3fSx7IngiOjkyNS4wNzAzMTI1LCJ5IjoxNTMuNzg5MDY2MzE0Njk3Mjd9XQ==" data-look="classic" marker-end="url(#g08629a55-59a6-425f-9162-5feccaf1417c-dark_flowchart-v2-pointEnd)"></path><path d="M996.195,36.441L1029.525,41.535C1062.854,46.628,1129.513,56.814,1162.842,75.705C1196.172,94.596,1196.172,122.193,1196.172,135.991L1196.172,149.789" id="g08629a55-59a6-425f-9162-5feccaf1417c-dark-L_start_rt_0" class="edge-thickness-normal edge-pattern-solid edge-thickness-normal edge-pattern-solid flowchart-link" style=";" data-edge="true" data-et="edge" data-id="L_start_rt_0" data-points="W3sieCI6OTk2LjE5NTE5MjcyMDM3MjMsInkiOjM2LjQ0MTQ1Mjg3MDY1ODUzfSx7IngiOjExOTYuMTcxODc1LCJ5Ijo2N30seyJ4IjoxMTk2LjE3MTg3NSwieSI6MTUzLjc4OTA2NjMxNDY5NzI3fV0=" data-look="classic" marker-end="url(#g08629a55-59a6-425f-9162-5feccaf1417c-dark_flowchart-v2-pointEnd)"></path><path d="M999.15,31.37L1074.545,37.308C1149.941,43.247,1300.732,55.123,1376.128,76.327C1451.523,97.53,1451.523,128.059,1451.523,143.324L1451.523,158.589" id="g08629a55-59a6-425f-9162-5feccaf1417c-dark-L_start_mt_0" class="edge-thickness-normal edge-pattern-solid edge-thickness-normal edge-pattern-solid flowchart-link" style=";" data-edge="true" data-et="edge" data-id="L_start_mt_0" data-points="W3sieCI6OTk5LjE0OTY0NDU0MjA5MjIsInkiOjMxLjM3MDA5ODk2ODAwOTUxfSx7IngiOjE0NTEuNTIzNDM3NSwieSI6Njd9LHsieCI6MTQ1MS41MjM0Mzc1LCJ5IjoxNjIuNTg5MDY1NTUxNzU3OH1d" data-look="classic" marker-end="url(#g08629a55-59a6-425f-9162-5feccaf1417c-dark_flowchart-v2-pointEnd)"></path><path d="M186.592,282.178L186.592,286.345C186.592,290.511,186.592,298.845,186.592,307.647C186.592,316.449,186.592,325.72,186.592,330.355L186.592,334.991" id="g08629a55-59a6-425f-9162-5feccaf1417c-dark-L_work_routing_0" class="edge-thickness-normal edge-pattern-solid edge-thickness-normal edge-pattern-solid flowchart-link" style=";" data-edge="true" data-et="edge" data-id="L_work_routing_0" data-points="W3sieCI6MTg2LjU5MTc5Njg3NDk5OTk3LCJ5IjoyODIuMTc4MTMxMTAzNTE1N30seyJ4IjoxODYuNTkxNzk2ODc1LCJ5IjozMDcuMTc4MTMxMTAzNTE1Nn0seyJ4IjoxODYuNTkxNzk2ODc1LCJ5IjozMzguOTkwNjMxMTAzNTE1Nn1d" data-look="classic" marker-end="url(#g08629a55-59a6-425f-9162-5feccaf1417c-dark_flowchart-v2-pointEnd)"></path><path d="M146.234,471.367L134.001,485.312C121.769,499.257,97.304,527.147,85.072,547.976C72.84,568.804,72.84,582.571,72.84,589.454L72.84,596.338" id="g08629a55-59a6-425f-9162-5feccaf1417c-dark-L_routing_rmq_0" class="edge-thickness-normal edge-pattern-solid edge-thickness-normal edge-pattern-solid flowchart-link" style=";" data-edge="true" data-et="edge" data-id="L_routing_rmq_0" data-points="W3sieCI6MTQ2LjIzMzcwNjA0MTcyMDE4LCJ5Ijo0NzEuMzY2OTE1MjcwMjM1OH0seyJ4Ijo3Mi44Mzk4NDM3NSwieSI6NTU1LjAzNzUwNjEwMzUxNTZ9LHsieCI6NzIuODM5ODQzNzUsInkiOjYwMC4zMzc1MDUzNDA1NzYyfV0=" data-look="classic" marker-end="url(#g08629a55-59a6-425f-9162-5feccaf1417c-dark_flowchart-v2-pointEnd)"></path><path d="M226.95,471.367L239.182,485.312C251.415,499.257,275.879,527.147,288.111,546.509C300.344,565.871,300.344,576.704,300.344,582.121L300.344,587.538" id="g08629a55-59a6-425f-9162-5feccaf1417c-dark-L_routing_sqs_0" class="edge-thickness-normal edge-pattern-solid edge-thickness-normal edge-pattern-solid flowchart-link" style=";" data-edge="true" data-et="edge" data-id="L_routing_sqs_0" data-points="W3sieCI6MjI2Ljk0OTg4NzcwODI3OTg1LCJ5Ijo0NzEuMzY2OTE1MjcwMjM1OH0seyJ4IjozMDAuMzQzNzUsInkiOjU1NS4wMzc1MDYxMDM1MTU2fSx7IngiOjMwMC4zNDM3NSwieSI6NTkxLjUzNzUwNjEwMzUxNTZ9XQ==" data-look="classic" marker-end="url(#g08629a55-59a6-425f-9162-5feccaf1417c-dark_flowchart-v2-pointEnd)"></path><path d="M655.391,279.87L655.391,284.422C655.391,288.973,655.391,298.076,655.391,306.127C655.391,314.178,655.391,321.178,655.391,324.678L655.391,328.178" id="g08629a55-59a6-425f-9162-5feccaf1417c-dark-L_bcast_replay_0" class="edge-thickness-normal edge-pattern-solid edge-thickness-normal edge-pattern-solid flowchart-link" style=";" data-edge="true" data-et="edge" data-id="L_bcast_replay_0" data-points="W3sieCI6NjU1LjM5MDYyNSwieSI6Mjc5Ljg3MDMxNTU1MTc1Nzg3fSx7IngiOjY1NS4zOTA2MjUsInkiOjMwNy4xNzgxMzExMDM1MTU2fSx7IngiOjY1NS4zOTA2MjUsInkiOjMzMi4xNzgxMzExMDM1MTU2fV0=" data-look="classic" marker-end="url(#g08629a55-59a6-425f-9162-5feccaf1417c-dark_flowchart-v2-pointEnd)"></path><path d="M612.964,476.111L601.967,489.265C590.971,502.42,568.977,528.729,557.981,548.766C546.984,568.804,546.984,582.571,546.984,589.454L546.984,596.338" id="g08629a55-59a6-425f-9162-5feccaf1417c-dark-L_replay_kp_0" class="edge-thickness-normal edge-pattern-solid edge-thickness-normal edge-pattern-solid flowchart-link" style=";" data-edge="true" data-et="edge" data-id="L_replay_kp_0" data-points="W3sieCI6NjEyLjk2MzY3MzYwNTQxNDMsInkiOjQ3Ni4xMTA1NTQ3MDg5Mjk5fSx7IngiOjU0Ni45ODQzNzUsInkiOjU1NS4wMzc1MDYxMDM1MTU2fSx7IngiOjU0Ni45ODQzNzUsInkiOjYwMC4zMzc1MDUzNDA1NzYyfV0=" data-look="classic" marker-end="url(#g08629a55-59a6-425f-9162-5feccaf1417c-dark_flowchart-v2-pointEnd)"></path><path d="M697.818,476.111L708.814,489.265C719.811,502.42,741.804,528.729,752.8,547.3C763.797,565.871,763.797,576.704,763.797,582.121L763.797,587.538" id="g08629a55-59a6-425f-9162-5feccaf1417c-dark-L_replay_sns_0" class="edge-thickness-normal edge-pattern-solid edge-thickness-normal edge-pattern-solid flowchart-link" style=";" data-edge="true" data-et="edge" data-id="L_replay_sns_0" data-points="W3sieCI6Njk3LjgxNzU3NjM5NDU4NTcsInkiOjQ3Ni4xMTA1NTQ3MDg5Mjk5fSx7IngiOjc2My43OTY4NzUsInkiOjU1NS4wMzc1MDYxMDM1MTU2fSx7IngiOjc2My43OTY4NzUsInkiOjU5MS41Mzc1MDYxMDM1MTU2fV0=" data-look="classic" marker-end="url(#g08629a55-59a6-425f-9162-5feccaf1417c-dark_flowchart-v2-pointEnd)"></path><path d="M925.07,220.389L925.07,234.854C925.07,249.319,925.07,278.248,925.07,306.193C925.07,334.138,925.07,361.098,925.07,374.578L925.07,388.058" id="g08629a55-59a6-425f-9162-5feccaf1417c-dark-L_src_kafka_0" class="edge-thickness-normal edge-pattern-solid edge-thickness-normal edge-pattern-solid flowchart-link" style=";" data-edge="true" data-et="edge" data-id="L_src_kafka_0" data-points="W3sieCI6OTI1LjA3MDMxMjUsInkiOjIyMC4zODkwNjQ3ODg4MTgzNn0seyJ4Ijo5MjUuMDcwMzEyNSwieSI6MzA3LjE3ODEzMTEwMzUxNTZ9LHsieCI6OTI1LjA3MDMxMjUsInkiOjM5Mi4wNTc4MTkzNjY0NTUxfV0=" data-look="classic" marker-end="url(#g08629a55-59a6-425f-9162-5feccaf1417c-dark_flowchart-v2-pointEnd)"></path><path d="M1196.172,220.389L1196.172,234.854C1196.172,249.319,1196.172,278.248,1196.172,307.66C1196.172,337.071,1196.172,366.965,1196.172,381.911L1196.172,396.858" id="g08629a55-59a6-425f-9162-5feccaf1417c-dark-L_rt_nats_0" class="edge-thickness-normal edge-pattern-solid edge-thickness-normal edge-pattern-solid flowchart-link" style=";" data-edge="true" data-et="edge" data-id="L_rt_nats_0" data-points="W3sieCI6MTE5Ni4xNzE4NzUsInkiOjIyMC4zODkwNjQ3ODg4MTgzNn0seyJ4IjoxMTk2LjE3MTg3NSwieSI6MzA3LjE3ODEzMTEwMzUxNTZ9LHsieCI6MTE5Ni4xNzE4NzUsInkiOjQwMC44NTc4MTg2MDM1MTU2fV0=" data-look="classic" marker-end="url(#g08629a55-59a6-425f-9162-5feccaf1417c-dark_flowchart-v2-pointEnd)"></path><path d="M1451.523,211.589L1451.523,227.521C1451.523,243.452,1451.523,275.315,1451.523,304.727C1451.523,334.138,1451.523,361.098,1451.523,374.578L1451.523,388.058" id="g08629a55-59a6-425f-9162-5feccaf1417c-dark-L_mt_pulsar_0" class="edge-thickness-normal edge-pattern-solid edge-thickness-normal edge-pattern-solid flowchart-link" style=";" data-edge="true" data-et="edge" data-id="L_mt_pulsar_0" data-points="W3sieCI6MTQ1MS41MjM0Mzc1LCJ5IjoyMTEuNTg5MDY1NTUxNzU3OH0seyJ4IjoxNDUxLjUyMzQzNzUsInkiOjMwNy4xNzgxMzExMDM1MTU2fSx7IngiOjE0NTEuNTIzNDM3NSwieSI6MzkyLjA1NzgxOTM2NjQ1NTF9XQ==" data-look="classic" marker-end="url(#g08629a55-59a6-425f-9162-5feccaf1417c-dark_flowchart-v2-pointEnd)"></path></g><g class="edgeLabels"><g class="edgeLabel"><g class="label" data-id="L_start_work_0" transform="translate(0, 0)"><text y="-10.1" text-anchor="middle"><tspan class="text-outer-tspan row" x="0" y="-0.1em" dy="1.1em" text-anchor="middle"></tspan></text></g></g><g><rect class="background" style="stroke: none"></rect></g><g class="edgeLabel"><g class="label" data-id="L_start_bcast_0" transform="translate(0, 0)"><text y="-10.1" text-anchor="middle"><tspan class="text-outer-tspan row" x="0" y="-0.1em" dy="1.1em" text-anchor="middle"></tspan></text></g></g><g><rect class="background" style="stroke: none"></rect></g><g class="edgeLabel"><g class="label" data-id="L_start_src_0" transform="translate(0, 0)"><text y="-10.1" text-anchor="middle"><tspan class="text-outer-tspan row" x="0" y="-0.1em" dy="1.1em" text-anchor="middle"></tspan></text></g></g><g><rect class="background" style="stroke: none"></rect></g><g class="edgeLabel"><g class="label" data-id="L_start_rt_0" transform="translate(0, 0)"><text y="-10.1" text-anchor="middle"><tspan class="text-outer-tspan row" x="0" y="-0.1em" dy="1.1em" text-anchor="middle"></tspan></text></g></g><g><rect class="background" style="stroke: none"></rect></g><g class="edgeLabel"><g class="label" data-id="L_start_mt_0" transform="translate(0, 0)"><text y="-10.1" text-anchor="middle"><tspan class="text-outer-tspan row" x="0" y="-0.1em" dy="1.1em" text-anchor="middle"></tspan></text></g></g><g><rect class="background" style="stroke: none"></rect></g><g class="edgeLabel"><g class="label" data-id="L_work_routing_0" transform="translate(0, 0)"><text y="-10.1" text-anchor="middle"><tspan class="text-outer-tspan row" x="0" y="-0.1em" dy="1.1em" text-anchor="middle"></tspan></text></g></g><g><rect class="background" style="stroke: none"></rect></g><g class="edgeLabel" transform="translate(72.83984375, 555.0375061035156)"><g class="label" data-id="L_routing_rmq_0" transform="translate(0, -10.5)"><g><rect class="background" style="" x="-13.546875" y="-1" width="27.09375" height="23"></rect><text y="-10.1" text-anchor="middle" style=""><tspan class="text-outer-tspan row" x="0" y="-0.1em" dy="1.1em" text-anchor="middle"><tspan font-style="normal" class="text-inner-tspan" font-weight="normal">yes</tspan></tspan></text></g></g></g><g class="edgeLabel" transform="translate(300.34375, 555.0375061035156)"><g class="label" data-id="L_routing_sqs_0" transform="translate(0, -10.5)"><g><rect class="background" style="" x="-10.6640625" y="-1" width="21.328125" height="23"></rect><text y="-10.1" text-anchor="middle" style=""><tspan class="text-outer-tspan row" x="0" y="-0.1em" dy="1.1em" text-anchor="middle"><tspan font-style="normal" class="text-inner-tspan" font-weight="normal">no</tspan></tspan></text></g></g></g><g class="edgeLabel"><g class="label" data-id="L_bcast_replay_0" transform="translate(0, 0)"><text y="-10.1" text-anchor="middle"><tspan class="text-outer-tspan row" x="0" y="-0.1em" dy="1.1em" text-anchor="middle"></tspan></text></g></g><g><rect class="background" style="stroke: none"></rect></g><g class="edgeLabel" transform="translate(546.984375, 555.0375061035156)"><g class="label" data-id="L_replay_kp_0" transform="translate(0, -10.5)"><g><rect class="background" style="" x="-13.546875" y="-1" width="27.09375" height="23"></rect><text y="-10.1" text-anchor="middle" style=""><tspan class="text-outer-tspan row" x="0" y="-0.1em" dy="1.1em" text-anchor="middle"><tspan font-style="normal" class="text-inner-tspan" font-weight="normal">yes</tspan></tspan></text></g></g></g><g class="edgeLabel" transform="translate(763.796875, 555.0375061035156)"><g class="label" data-id="L_replay_sns_0" transform="translate(0, -10.5)"><g><rect class="background" style="" x="-10.6640625" y="-1" width="21.328125" height="23"></rect><text y="-10.1" text-anchor="middle" style=""><tspan class="text-outer-tspan row" x="0" y="-0.1em" dy="1.1em" text-anchor="middle"><tspan font-style="normal" class="text-inner-tspan" font-weight="normal">no</tspan></tspan></text></g></g></g><g class="edgeLabel"><g class="label" data-id="L_src_kafka_0" transform="translate(0, 0)"><text y="-10.1" text-anchor="middle"><tspan class="text-outer-tspan row" x="0" y="-0.1em" dy="1.1em" text-anchor="middle"></tspan></text></g></g><g><rect class="background" style="stroke: none"></rect></g><g class="edgeLabel"><g class="label" data-id="L_rt_nats_0" transform="translate(0, 0)"><text y="-10.1" text-anchor="middle"><tspan class="text-outer-tspan row" x="0" y="-0.1em" dy="1.1em" text-anchor="middle"></tspan></text></g></g><g><rect class="background" style="stroke: none"></rect></g><g class="edgeLabel"><g class="label" data-id="L_mt_pulsar_0" transform="translate(0, 0)"><text y="-10.1" text-anchor="middle"><tspan class="text-outer-tspan row" x="0" y="-0.1em" dy="1.1em" text-anchor="middle"></tspan></text></g></g><g><rect class="background" style="stroke: none"></rect></g></g><g class="nodes"><g class="node default start" id="g08629a55-59a6-425f-9162-5feccaf1417c-dark-flowchart-start-0" data-look="classic" transform="translate(925.0703125, 25)"><g class="basic label-container outer-path"><path d="M-57.625 -17 C-14.286523823814534 -17, 29.051952352370932 -17, 57.625 -17 C57.625 -17, 57.625 -17, 57.625 -17 C58.034147971692654 -16.986879420906032, 58.44329594338531 -16.97375884181206, 58.71419373967212 -16.965071676755716 C59.028640076802496 -16.934737416789797, 59.34308641393288 -16.904403156823882, 59.7989117486366 -16.860430234995185 C60.20842711322088 -16.794222966688285, 60.61794247780515 -16.72801569838138, 60.874696687923326 -16.686505668848113 C61.167984090543726 -16.61956473307917, 61.461271493164126 -16.552623797310225, 61.93712792646162 -16.4440126716635 C62.226786578051446 -16.35804350432093, 62.51644522964128 -16.272074336978356, 62.98183970640155 -16.133947699181366 C63.2054423461329 -16.05165986080009, 63.429044985864245 -15.96937202241881, 64.00453908294936 -15.757584874882369 C64.20564459901996 -15.668561428501093, 64.40675011509056 -15.579537982119817, 65.00102356499849 -15.316470754341125 C65.38538372400542 -15.115950305581638, 65.76974388301235 -14.91542985682215, 65.96719838406693 -14.812417970097622 C66.15687189111902 -14.697436775477398, 66.3465453981711 -14.582455580857172, 66.89909332057933 -14.247497783161291 C67.15526442332674 -14.068803911353001, 67.41143552607416 -13.890110039544712, 67.79287901835067 -13.624031571755262 C68.00676366340618 -13.453464259032947, 68.22064830846166 -13.28289694631063, 68.6448827202324 -12.944581292275288 C68.91338031920576 -12.700738876944866, 69.18187791817911 -12.456896461614445, 69.45160336025927 -12.21193895166137 C69.72017204300032 -11.934619736832314, 69.98874072574137 -11.657300522003258, 70.20972595028036 -11.42911513444239 C70.40799933583212 -11.196211933698056, 70.60627272138386 -10.963308732953722, 70.91613520195651 -10.59932663159847 C71.06150101859158 -10.404549680405795, 71.20686683522666 -10.20977272921312, 71.56792832814824 -9.725983222076888 C71.69455596270934 -9.531449171110097, 71.82118359727046 -9.336915120143304, 72.16242697109088 -8.812673661278927 C72.37107611720589 -8.44219597433465, 72.5797252633209 -8.071718287390375, 72.697188208341 -7.863150934094199 C72.862853418448 -7.519143580639374, 73.02851862855499 -7.175136227184548, 73.17001459126881 -6.881316833080699 C73.31600273595468 -6.520723293217841, 73.46199088064054 -6.160129753354985, 73.57896317484592 -5.871205925162238 C73.68214924440339 -5.560425924122687, 73.78533531396086 -5.249645923083137, 73.92235350162323 -4.836968972727556 C74.02673321273707 -4.438923895797511, 74.13111292385092 -4.040878818867466, 74.198774507091 -3.7828558772573464 C74.2554673092529 -3.4917503201839803, 74.3121601114148 -3.2006447631106143, 74.40709031804565 -2.713198215567453 C74.45758772749716 -2.321550279702922, 74.50808513694867 -1.9299023438383909, 74.54644492013637 -1.632391440430593 C74.56710724031124 -1.3105591253821964, 74.58776956048612 -0.9887268103337999, 74.6162656754117 -0.5448768187181379 C74.6162656754117 -0.12405425504411288, 74.6162656754117 0.2967683086299121, 74.6162656754117 0.5448768187181336 C74.59783167736309 0.8320012179806715, 74.57939767931447 1.1191256172432094, 74.54644492013637 1.6323914404305815 C74.49255194761818 2.0503746929104993, 74.43865897509998 2.4683579453904168, 74.40709031804565 2.7131982155674415 C74.33043895212043 3.1067867793214785, 74.25378758619523 3.500375343075516, 74.198774507091 3.782855877257343 C74.1301002365014 4.044740634632627, 74.06142596591181 4.306625392007912, 73.92235350162323 4.836968972727545 C73.82440749461519 5.131966740258847, 73.72646148760714 5.4269645077901485, 73.57896317484592 5.871205925162227 C73.41914259076454 6.2659658577640425, 73.25932200668315 6.660725790365858, 73.17001459126881 6.881316833080694 C73.07401393774369 7.08066424421054, 72.97801328421856 7.280011655340387, 72.697188208341 7.863150934094196 C72.57332819144376 8.083076936281973, 72.44946817454654 8.303002938469751, 72.16242697109088 8.812673661278923 C71.97489901271086 9.100766963658277, 71.78737105433086 9.388860266037629, 71.56792832814826 9.725983222076879 C71.3923110244245 9.961294410001209, 71.21669372070075 10.196605597925538, 70.91613520195651 10.599326631598467 C70.71869713031366 10.831248625094691, 70.52125905867082 11.063170618590913, 70.20972595028037 11.42911513444238 C69.95291433940136 11.69429420730033, 69.69610272852235 11.959473280158281, 69.45160336025927 12.211938951661365 C69.12935186157078 12.504599236462818, 68.80710036288231 12.797259521264273, 68.64488272023242 12.944581292275275 C68.40607358005884 13.135025226585583, 68.16726443988529 13.32546916089589, 67.79287901835067 13.62403157175526 C67.43963186044041 13.870441497290454, 67.08638470253015 14.116851422825649, 66.89909332057934 14.247497783161286 C66.58451287548257 14.438198297658845, 66.2699324303858 14.628898812156402, 65.96719838406695 14.81241797009762 C65.71232028967236 14.945387708686066, 65.45744219527776 15.078357447274513, 65.00102356499849 15.316470754341124 C64.69076355662257 15.453813656512997, 64.38050354824665 15.591156558684869, 64.00453908294936 15.757584874882367 C63.62620206119885 15.896816396195646, 63.247865039448335 16.036047917508927, 62.98183970640156 16.133947699181363 C62.72501258632492 16.210172640307047, 62.468185466248286 16.28639758143273, 61.93712792646164 16.444012671663497 C61.67700828410807 16.5033832825914, 61.41688864175449 16.562753893519304, 60.87469668792333 16.68650566884811 C60.60359631736516 16.73033507434518, 60.332495946806986 16.774164479842256, 59.79891174863661 16.86043023499518 C59.48071971415195 16.891125837880008, 59.1625276796673 16.92182144076483, 58.71419373967212 16.965071676755716 C58.398452978500714 16.975196868414375, 58.0827122173293 16.985322060073035, 57.625 17 C57.625 17, 57.625 17, 57.625 17 C24.6701022656382 17, -8.284795468723601 17, -57.625 17 C-58.044144854950986 16.986558840317688, -58.463289709901964 16.97311768063538, -58.71419373967211 16.965071676755716 C-59.04971625430983 16.932704223293477, -59.38523876894754 16.900336769831238, -59.798911748636606 16.86043023499518 C-60.10518054185196 16.810915071658087, -60.41144933506731 16.761399908320996, -60.874696687923326 16.68650566884811 C-61.13682142701438 16.626677407674357, -61.39894616610543 16.566849146500605, -61.93712792646162 16.4440126716635 C-62.33693858576925 16.325350966629973, -62.73674924507688 16.206689261596445, -62.981839706401544 16.13394769918137 C-63.24221329169371 16.038127812926813, -63.50258687698588 15.942307926672258, -64.00453908294936 15.757584874882369 C-64.38549838571397 15.58894549230468, -64.76645768847858 15.420306109726988, -65.00102356499849 15.316470754341127 C-65.35183961308675 15.133450246761885, -65.702655661175 14.950429739182644, -65.96719838406693 14.812417970097624 C-66.23404423672793 14.650654446054238, -66.50089008938892 14.488890922010851, -66.89909332057931 14.247497783161299 C-67.21155022052372 14.029541375801282, -67.52400712046813 13.811584968441263, -67.79287901835067 13.624031571755264 C-68.08427969528617 13.391647286396893, -68.37568037222165 13.15926300103852, -68.6448827202324 12.94458129227529 C-68.93636397091386 12.679865732577667, -69.22784522159532 12.415150172880045, -69.45160336025926 12.211938951661377 C-69.71349603120605 11.941513267120646, -69.97538870215286 11.671087582579913, -70.20972595028036 11.429115134442386 C-70.47097588623643 11.122236094125915, -70.73222582219249 10.815357053809446, -70.91613520195651 10.599326631598473 C-71.16133507219368 10.270781143648378, -71.40653494243085 9.942235655698282, -71.56792832814824 9.72598322207689 C-71.73600205401394 9.467776845032423, -71.90407577987962 9.209570467987957, -72.16242697109088 8.812673661278936 C-72.32445769593403 8.52497170192989, -72.48648842077716 8.23726974258084, -72.697188208341 7.863150934094201 C-72.82497414290792 7.597800706785019, -72.95276007747482 7.3324504794758365, -73.17001459126881 6.881316833080701 C-73.26091951566919 6.656779912284614, -73.35182444006956 6.432242991488526, -73.57896317484592 5.87120592516224 C-73.69575059496725 5.519460823305258, -73.81253801508858 5.1677157214482765, -73.92235350162323 4.8369689727275516 C-74.00674008805262 4.515166345294391, -74.09112667448201 4.1933637178612315, -74.198774507091 3.782855877257349 C-74.25998328207285 3.468561754204746, -74.32119205705469 3.1542676311521434, -74.40709031804565 2.713198215567455 C-74.44700650481282 2.403616153343914, -74.48692269157999 2.0940340911203723, -74.54644492013637 1.6323914404306026 C-74.56959542678304 1.2718036126559982, -74.59274593342973 0.9112157848813938, -74.6162656754117 0.54487681871814 C-74.6162656754117 0.23362052822085705, -74.6162656754117 -0.07763576227642588, -74.6162656754117 -0.5448768187181317 C-74.59846542816338 -0.8221300377116162, -74.58066518091506 -1.0993832567051007, -74.54644492013637 -1.6323914404305793 C-74.5019024205807 -1.9778542710729017, -74.45735992102503 -2.323317101715224, -74.40709031804565 -2.713198215567447 C-74.32682916482342 -3.125322274162847, -74.2465680116012 -3.5374463327582464, -74.198774507091 -3.782855877257341 C-74.12843694590345 -4.051083482557335, -74.0580993847159 -4.3193110878573275, -73.92235350162323 -4.836968972727544 C-73.84173283201282 -5.0797855844347986, -73.76111216240243 -5.322602196142053, -73.57896317484594 -5.871205925162218 C-73.45931592882373 -6.16673693605919, -73.33966868280153 -6.462267946956162, -73.17001459126881 -6.881316833080692 C-73.06103450036909 -7.107616323634373, -72.95205440946935 -7.333915814188052, -72.697188208341 -7.863150934094194 C-72.53914811043433 -8.143767131222743, -72.38110801252766 -8.424383328351292, -72.16242697109088 -8.812673661278929 C-71.95285452723337 -9.134633213124912, -71.74328208337587 -9.456592764970898, -71.56792832814826 -9.725983222076884 C-71.3149793522148 -10.064911805701927, -71.06203037628137 -10.40384038932697, -70.91613520195651 -10.599326631598467 C-70.77395563576889 -10.766338840288945, -70.63177606958128 -10.933351048979423, -70.20972595028037 -11.42911513444238 C-70.01330226364595 -11.631938717577, -69.81687857701154 -11.83476230071162, -69.45160336025927 -12.21193895166136 C-69.19586981317913 -12.444189392780675, -68.94013626609899 -12.67643983389999, -68.64488272023242 -12.944581292275274 C-68.45816356844492 -13.093484847020504, -68.2714444166574 -13.242388401765735, -67.79287901835067 -13.624031571755259 C-67.51726834637465 -13.81628564553204, -67.24165767439862 -14.008539719308825, -66.89909332057934 -14.247497783161284 C-66.55304189298516 -14.457276192192788, -66.206990465391 -14.667054601224294, -65.96719838406695 -14.812417970097618 C-65.75394713822479 -14.923671008459529, -65.54069589238263 -15.03492404682144, -65.00102356499849 -15.316470754341124 C-64.72900044834725 -15.436887318803572, -64.45697733169601 -15.557303883266021, -64.00453908294936 -15.757584874882365 C-63.68645760874971 -15.874641797700754, -63.368376134550054 -15.991698720519144, -62.981839706401566 -16.133947699181363 C-62.72110709590372 -16.21133176936372, -62.46037448540587 -16.288715839546082, -61.93712792646164 -16.444012671663494 C-61.605958422880434 -16.519599949772932, -61.27478891929922 -16.595187227882366, -60.87469668792333 -16.68650566884811 C-60.58756644468922 -16.73292665984591, -60.30043620145511 -16.779347650843707, -59.79891174863661 -16.86043023499518 C-59.50854770721213 -16.88844130485755, -59.21818366578765 -16.916452374719917, -58.71419373967212 -16.965071676755716 C-58.28592278162877 -16.978805492801317, -57.857651823585414 -16.99253930884692, -57.62500000000001 -17 C-57.62500000000001 -17, -57.625 -17, -57.625 -17" stroke="none" stroke-width="0" fill="#5A5A5A" style="fill:#5A5A5A !important;stroke:#3D3D3D !important"></path><path d="M-57.625 -17 C-30.159404035995273 -17, -2.6938080719905457 -17, 57.625 -17 M-57.625 -17 C-21.465351139149405 -17, 14.69429772170119 -17, 57.625 -17 M57.625 -17 C57.625 -17, 57.625 -17, 57.625 -17 M57.625 -17 C57.625 -17, 57.625 -17, 57.625 -17 M57.625 -17 C58.02716392391926 -16.9871033857245, 58.429327847838515 -16.974206771448998, 58.71419373967212 -16.965071676755716 M57.625 -17 C57.99156991668845 -16.98824481625686, 58.3581398333769 -16.97648963251372, 58.71419373967212 -16.965071676755716 M58.71419373967212 -16.965071676755716 C59.03806190222133 -16.933828504623047, 59.36193006477055 -16.90258533249038, 59.7989117486366 -16.860430234995185 M58.71419373967212 -16.965071676755716 C58.97950271123769 -16.93947763934951, 59.24481168280327 -16.913883601943297, 59.7989117486366 -16.860430234995185 M59.7989117486366 -16.860430234995185 C60.13978975301591 -16.80531972279554, 60.48066775739523 -16.7502092105959, 60.874696687923326 -16.686505668848113 M59.7989117486366 -16.860430234995185 C60.1268181673982 -16.807416868162065, 60.454724586159806 -16.754403501328948, 60.874696687923326 -16.686505668848113 M60.874696687923326 -16.686505668848113 C61.15040973856446 -16.623575964235073, 61.42612278920559 -16.560646259622033, 61.93712792646162 -16.4440126716635 M60.874696687923326 -16.686505668848113 C61.11946433457615 -16.63063905075777, 61.364231981228976 -16.57477243266743, 61.93712792646162 -16.4440126716635 M61.93712792646162 -16.4440126716635 C62.35346881192984 -16.320444882274437, 62.76980969739806 -16.196877092885373, 62.98183970640155 -16.133947699181366 M61.93712792646162 -16.4440126716635 C62.25715149442922 -16.3490313565287, 62.577175062396826 -16.254050041393906, 62.98183970640155 -16.133947699181366 M62.98183970640155 -16.133947699181366 C63.30877917729957 -16.013630951695557, 63.63571864819759 -15.893314204209748, 64.00453908294936 -15.757584874882369 M62.98183970640155 -16.133947699181366 C63.32592171208559 -16.007322340430445, 63.67000371776963 -15.880696981679527, 64.00453908294936 -15.757584874882369 M64.00453908294936 -15.757584874882369 C64.22702210519844 -15.659098240657068, 64.44950512744752 -15.560611606431767, 65.00102356499849 -15.316470754341125 M64.00453908294936 -15.757584874882369 C64.32899678699083 -15.613957073999039, 64.65345449103228 -15.47032927311571, 65.00102356499849 -15.316470754341125 M65.00102356499849 -15.316470754341125 C65.34364520359073 -15.137725264947186, 65.68626684218297 -14.958979775553248, 65.96719838406693 -14.812417970097622 M65.00102356499849 -15.316470754341125 C65.30877671915012 -15.155916130945522, 65.61652987330174 -14.995361507549918, 65.96719838406693 -14.812417970097622 M65.96719838406693 -14.812417970097622 C66.32210394342508 -14.597272134358143, 66.67700950278322 -14.382126298618664, 66.89909332057933 -14.247497783161291 M65.96719838406693 -14.812417970097622 C66.3229501853567 -14.59675913752612, 66.67870198664649 -14.38110030495462, 66.89909332057933 -14.247497783161291 M66.89909332057933 -14.247497783161291 C67.17762360723356 -14.053207112573084, 67.45615389388777 -13.858916441984876, 67.79287901835067 -13.624031571755262 M66.89909332057933 -14.247497783161291 C67.22345629431557 -14.021236214129717, 67.5478192680518 -13.794974645098144, 67.79287901835067 -13.624031571755262 M67.79287901835067 -13.624031571755262 C68.11001179246823 -13.371126623654064, 68.42714456658577 -13.118221675552864, 68.6448827202324 -12.944581292275288 M67.79287901835067 -13.624031571755262 C68.07242379103229 -13.401102054540488, 68.35196856371392 -13.178172537325711, 68.6448827202324 -12.944581292275288 M68.6448827202324 -12.944581292275288 C68.86175399795981 -12.747624535942826, 69.07862527568722 -12.550667779610363, 69.45160336025927 -12.21193895166137 M68.6448827202324 -12.944581292275288 C68.91156777941094 -12.702384977629334, 69.1782528385895 -12.46018866298338, 69.45160336025927 -12.21193895166137 M69.45160336025927 -12.21193895166137 C69.73204137599207 -11.922363676027965, 70.01247939172487 -11.632788400394562, 70.20972595028036 -11.42911513444239 M69.45160336025927 -12.21193895166137 C69.74961214938536 -11.904220409912067, 70.04762093851146 -11.596501868162763, 70.20972595028036 -11.42911513444239 M70.20972595028036 -11.42911513444239 C70.49156444332405 -11.098051603448702, 70.77340293636775 -10.766988072455014, 70.91613520195651 -10.59932663159847 M70.20972595028036 -11.42911513444239 C70.387411994997 -11.220394995695855, 70.56509803971365 -11.011674856949323, 70.91613520195651 -10.59932663159847 M70.91613520195651 -10.59932663159847 C71.15528231743097 -10.278891283613094, 71.39442943290544 -9.958455935627716, 71.56792832814824 -9.725983222076888 M70.91613520195651 -10.59932663159847 C71.11578906787564 -10.331808640108196, 71.31544293379477 -10.06429064861792, 71.56792832814824 -9.725983222076888 M71.56792832814824 -9.725983222076888 C71.7047992493921 -9.5157127320578, 71.84167017063594 -9.305442242038712, 72.16242697109088 -8.812673661278927 M71.56792832814824 -9.725983222076888 C71.71255946036956 -9.503790964087976, 71.85719059259088 -9.281598706099063, 72.16242697109088 -8.812673661278927 M72.16242697109088 -8.812673661278927 C72.33834714223988 -8.500309583554884, 72.51426731338888 -8.18794550583084, 72.697188208341 -7.863150934094199 M72.16242697109088 -8.812673661278927 C72.37326532255602 -8.438308818554399, 72.58410367402116 -8.06394397582987, 72.697188208341 -7.863150934094199 M72.697188208341 -7.863150934094199 C72.87153102337638 -7.501124348334593, 73.04587383841175 -7.139097762574986, 73.17001459126881 -6.881316833080699 M72.697188208341 -7.863150934094199 C72.86231846721371 -7.520254418323492, 73.02744872608642 -7.177357902552784, 73.17001459126881 -6.881316833080699 M73.17001459126881 -6.881316833080699 C73.31529980698949 -6.522459541352061, 73.46058502271018 -6.163602249623424, 73.57896317484592 -5.871205925162238 M73.17001459126881 -6.881316833080699 C73.29080699213449 -6.582957267580266, 73.41159939300017 -6.284597702079832, 73.57896317484592 -5.871205925162238 M73.57896317484592 -5.871205925162238 C73.67122309936059 -5.593333732146794, 73.76348302387525 -5.315461539131351, 73.92235350162323 -4.836968972727556 M73.57896317484592 -5.871205925162238 C73.70992206929431 -5.476778600549965, 73.84088096374269 -5.082351275937692, 73.92235350162323 -4.836968972727556 M73.92235350162323 -4.836968972727556 C73.98232029748903 -4.608289590317575, 74.04228709335482 -4.379610207907595, 74.198774507091 -3.7828558772573464 M73.92235350162323 -4.836968972727556 C74.00584476978777 -4.518580581871656, 74.08933603795231 -4.200192191015756, 74.198774507091 -3.7828558772573464 M74.198774507091 -3.7828558772573464 C74.24507629166823 -3.5451059993389644, 74.29137807624544 -3.307356121420583, 74.40709031804565 -2.713198215567453 M74.198774507091 -3.7828558772573464 C74.28018705772345 -3.36481963630839, 74.3615996083559 -2.946783395359434, 74.40709031804565 -2.713198215567453 M74.40709031804565 -2.713198215567453 C74.4496342105985 -2.3832361861693583, 74.49217810315135 -2.053274156771263, 74.54644492013637 -1.632391440430593 M74.40709031804565 -2.713198215567453 C74.43951877458568 -2.4616895103660315, 74.47194723112571 -2.21018080516461, 74.54644492013637 -1.632391440430593 M74.54644492013637 -1.632391440430593 C74.56596307551858 -1.3283804155810983, 74.58548123090081 -1.0243693907316036, 74.6162656754117 -0.5448768187181379 M74.54644492013637 -1.632391440430593 C74.56414399068699 -1.356714130171995, 74.58184306123762 -1.0810368199133968, 74.6162656754117 -0.5448768187181379 M74.6162656754117 -0.5448768187181379 C74.6162656754117 -0.3255350677276876, 74.6162656754117 -0.10619331673723731, 74.6162656754117 0.5448768187181336 M74.6162656754117 -0.5448768187181379 C74.6162656754117 -0.1115268000224483, 74.6162656754117 0.32182321867324126, 74.6162656754117 0.5448768187181336 M74.6162656754117 0.5448768187181336 C74.58839786798744 0.9789404138401148, 74.5605300605632 1.4130040089620959, 74.54644492013637 1.6323914404305815 M74.6162656754117 0.5448768187181336 C74.5902606653104 0.949925841912303, 74.56425565520908 1.3549748651064724, 74.54644492013637 1.6323914404305815 M74.54644492013637 1.6323914404305815 C74.51069582154871 1.9096543896184202, 74.47494672296106 2.186917338806259, 74.40709031804565 2.7131982155674415 M74.54644492013637 1.6323914404305815 C74.51522860511031 1.8744990154140635, 74.48401229008425 2.1166065903975455, 74.40709031804565 2.7131982155674415 M74.40709031804565 2.7131982155674415 C74.34615812153632 3.0260721666185377, 74.28522592502699 3.3389461176696336, 74.198774507091 3.782855877257343 M74.40709031804565 2.7131982155674415 C74.3302941867278 3.1075301190165043, 74.25349805540995 3.501862022465567, 74.198774507091 3.782855877257343 M74.198774507091 3.782855877257343 C74.13622388119784 4.021388523400754, 74.07367325530466 4.259921169544165, 73.92235350162323 4.836968972727545 M74.198774507091 3.782855877257343 C74.10353572406534 4.146042633683859, 74.00829694103967 4.5092293901103755, 73.92235350162323 4.836968972727545 M73.92235350162323 4.836968972727545 C73.80234889632017 5.1984037237631044, 73.68234429101709 5.5598384747986636, 73.57896317484592 5.871205925162227 M73.92235350162323 4.836968972727545 C73.81341179105688 5.1650840474490245, 73.70447008049052 5.493199122170503, 73.57896317484592 5.871205925162227 M73.57896317484592 5.871205925162227 C73.43239074683734 6.233242656128539, 73.28581831882876 6.595279387094851, 73.17001459126881 6.881316833080694 M73.57896317484592 5.871205925162227 C73.43877749127952 6.217467273877034, 73.29859180771314 6.563728622591842, 73.17001459126881 6.881316833080694 M73.17001459126881 6.881316833080694 C73.03121179849902 7.169543802171157, 72.89240900572923 7.457770771261619, 72.697188208341 7.863150934094196 M73.17001459126881 6.881316833080694 C73.07444606708991 7.079766918377037, 72.978877542911 7.27821700367338, 72.697188208341 7.863150934094196 M72.697188208341 7.863150934094196 C72.55476852169451 8.116031509292135, 72.41234883504802 8.368912084490075, 72.16242697109088 8.812673661278923 M72.697188208341 7.863150934094196 C72.58051192902346 8.070321482776928, 72.46383564970591 8.277492031459659, 72.16242697109088 8.812673661278923 M72.16242697109088 8.812673661278923 C72.00626120892079 9.05258620835097, 71.8500954467507 9.292498755423017, 71.56792832814826 9.725983222076879 M72.16242697109088 8.812673661278923 C71.99824585643148 9.064899942198066, 71.83406474177208 9.31712622311721, 71.56792832814826 9.725983222076879 M71.56792832814826 9.725983222076879 C71.37233240216305 9.988063943741613, 71.17673647617785 10.250144665406346, 70.91613520195651 10.599326631598467 M71.56792832814826 9.725983222076879 C71.3967983164924 9.955281847430953, 71.22566830483652 10.18458047278503, 70.91613520195651 10.599326631598467 M70.91613520195651 10.599326631598467 C70.7686549583226 10.772565317634456, 70.62117471468868 10.945804003670442, 70.20972595028037 11.42911513444238 M70.91613520195651 10.599326631598467 C70.7526943929421 10.79131350591228, 70.5892535839277 10.983300380226094, 70.20972595028037 11.42911513444238 M70.20972595028037 11.42911513444238 C69.9074386219355 11.74125161920967, 69.60515129359062 12.053388103976962, 69.45160336025927 12.211938951661365 M70.20972595028037 11.42911513444238 C69.9466543871532 11.700758121948196, 69.68358282402603 11.97240110945401, 69.45160336025927 12.211938951661365 M69.45160336025927 12.211938951661365 C69.26234594212143 12.383817531337275, 69.07308852398357 12.555696111013187, 68.64488272023242 12.944581292275275 M69.45160336025927 12.211938951661365 C69.21446299242365 12.427303559339375, 68.97732262458803 12.642668167017383, 68.64488272023242 12.944581292275275 M68.64488272023242 12.944581292275275 C68.42082910845303 13.123258085352326, 68.19677549667364 13.301934878429376, 67.79287901835067 13.62403157175526 M68.64488272023242 12.944581292275275 C68.32472793274546 13.199896215619427, 68.00457314525849 13.455211138963579, 67.79287901835067 13.62403157175526 M67.79287901835067 13.62403157175526 C67.4701093870213 13.849181694098498, 67.1473397556919 14.074331816441735, 66.89909332057934 14.247497783161286 M67.79287901835067 13.62403157175526 C67.50737745242347 13.823185104982484, 67.22187588649626 14.022338638209707, 66.89909332057934 14.247497783161286 M66.89909332057934 14.247497783161286 C66.67679345143323 14.382257270216693, 66.45449358228713 14.517016757272101, 65.96719838406695 14.81241797009762 M66.89909332057934 14.247497783161286 C66.6020727292616 14.427553411104846, 66.30505213794385 14.607609039048405, 65.96719838406695 14.81241797009762 M65.96719838406695 14.81241797009762 C65.58811628988909 15.010184855816536, 65.20903419571124 15.207951741535453, 65.00102356499849 15.316470754341124 M65.96719838406695 14.81241797009762 C65.74319156359564 14.929282184854282, 65.51918474312434 15.046146399610945, 65.00102356499849 15.316470754341124 M65.00102356499849 15.316470754341124 C64.71912420543335 15.441259238573226, 64.43722484586819 15.566047722805328, 64.00453908294936 15.757584874882367 M65.00102356499849 15.316470754341124 C64.73971136289134 15.432145914662895, 64.47839916078419 15.547821074984665, 64.00453908294936 15.757584874882367 M64.00453908294936 15.757584874882367 C63.69762673851611 15.870531454700417, 63.39071439408285 15.983478034518468, 62.98183970640156 16.133947699181363 M64.00453908294936 15.757584874882367 C63.7501261591944 15.85121118259148, 63.49571323543944 15.944837490300593, 62.98183970640156 16.133947699181363 M62.98183970640156 16.133947699181363 C62.59929571934576 16.24748474652516, 62.216751732289964 16.361021793868957, 61.93712792646164 16.444012671663497 M62.98183970640156 16.133947699181363 C62.73289873811213 16.207832071851858, 62.483957769822695 16.281716444522356, 61.93712792646164 16.444012671663497 M61.93712792646164 16.444012671663497 C61.52215831186899 16.538726778264465, 61.107188697276335 16.633440884865433, 60.87469668792333 16.68650566884811 M61.93712792646164 16.444012671663497 C61.565464768079934 16.528842362235356, 61.19380160969823 16.61367205280721, 60.87469668792333 16.68650566884811 M60.87469668792333 16.68650566884811 C60.50149281973547 16.7468423760175, 60.1282889515476 16.80717908318689, 59.79891174863661 16.86043023499518 M60.87469668792333 16.68650566884811 C60.64264600110079 16.724021824313624, 60.410595314278254 16.76153797977914, 59.79891174863661 16.86043023499518 M59.79891174863661 16.86043023499518 C59.44211621782828 16.894849870742856, 59.085320687019944 16.929269506490527, 58.71419373967212 16.965071676755716 M59.79891174863661 16.86043023499518 C59.494930055379754 16.889754983352198, 59.19094836212289 16.919079731709214, 58.71419373967212 16.965071676755716 M58.71419373967212 16.965071676755716 C58.30696867984287 16.97813059180895, 57.89974362001361 16.991189506862177, 57.625 17 M58.71419373967212 16.965071676755716 C58.44349899663969 16.973752330289415, 58.17280425360726 16.98243298382311, 57.625 17 M57.625 17 C57.625 17, 57.625 17, 57.625 17 M57.625 17 C57.625 17, 57.625 17, 57.625 17 M57.625 17 C30.437265084183295 17, 3.24953016836659 17, -57.625 17 M57.625 17 C19.01072659852352 17, -19.603546802952962 17, -57.625 17 M-57.625 17 C-57.87803234090398 16.991885745324783, -58.13106468180795 16.983771490649566, -58.71419373967211 16.965071676755716 M-57.625 17 C-57.87093376794324 16.9921133827431, -58.11686753588648 16.9842267654862, -58.71419373967211 16.965071676755716 M-58.71419373967211 16.965071676755716 C-59.055970629049 16.932100871284376, -59.397747518425895 16.899130065813033, -59.798911748636606 16.86043023499518 M-58.71419373967211 16.965071676755716 C-59.037170672776654 16.933914480455712, -59.36014760588119 16.90275728415571, -59.798911748636606 16.86043023499518 M-59.798911748636606 16.86043023499518 C-60.01614605560886 16.82530947692112, -60.23338036258111 16.790188718847055, -60.874696687923326 16.68650566884811 M-59.798911748636606 16.86043023499518 C-60.08324761946554 16.81446101645717, -60.36758349029447 16.76849179791916, -60.874696687923326 16.68650566884811 M-60.874696687923326 16.68650566884811 C-61.12055713416697 16.63038962638235, -61.36641758041061 16.574273583916586, -61.93712792646162 16.4440126716635 M-60.874696687923326 16.68650566884811 C-61.17883270049783 16.61708860865094, -61.482968713072324 16.54767154845377, -61.93712792646162 16.4440126716635 M-61.93712792646162 16.4440126716635 C-62.289579240669084 16.33940697166143, -62.64203055487654 16.234801271659354, -62.981839706401544 16.13394769918137 M-61.93712792646162 16.4440126716635 C-62.317686763682204 16.331064806370534, -62.69824560090278 16.218116941077565, -62.981839706401544 16.13394769918137 M-62.981839706401544 16.13394769918137 C-63.20965676973388 16.05010891395722, -63.43747383306622 15.966270128733074, -64.00453908294936 15.757584874882369 M-62.981839706401544 16.13394769918137 C-63.28319091340528 16.023047669343974, -63.58454212040902 15.912147639506578, -64.00453908294936 15.757584874882369 M-64.00453908294936 15.757584874882369 C-64.38382772042922 15.589685046267713, -64.76311635790907 15.421785217653058, -65.00102356499849 15.316470754341127 M-64.00453908294936 15.757584874882369 C-64.27572650102813 15.637538249387838, -64.54691391910688 15.517491623893306, -65.00102356499849 15.316470754341127 M-65.00102356499849 15.316470754341127 C-65.21021107259698 15.207337765617986, -65.41939858019548 15.098204776894846, -65.96719838406693 14.812417970097624 M-65.00102356499849 15.316470754341127 C-65.2046589265249 15.21023431666747, -65.40829428805131 15.103997878993814, -65.96719838406693 14.812417970097624 M-65.96719838406693 14.812417970097624 C-66.2706502379885 14.628463672969334, -66.57410209191006 14.444509375841044, -66.89909332057931 14.247497783161299 M-65.96719838406693 14.812417970097624 C-66.24272446771859 14.645392439016995, -66.51825055137026 14.478366907936364, -66.89909332057931 14.247497783161299 M-66.89909332057931 14.247497783161299 C-67.19782041291776 14.039118695233398, -67.49654750525623 13.830739607305498, -67.79287901835067 13.624031571755264 M-66.89909332057931 14.247497783161299 C-67.24033118616562 14.009465020077409, -67.58156905175194 13.771432256993519, -67.79287901835067 13.624031571755264 M-67.79287901835067 13.624031571755264 C-67.97597055285914 13.478020945255125, -68.15906208736759 13.332010318754985, -68.6448827202324 12.94458129227529 M-67.79287901835067 13.624031571755264 C-68.04636121121266 13.421886268392273, -68.29984340407465 13.219740965029281, -68.6448827202324 12.94458129227529 M-68.6448827202324 12.94458129227529 C-68.90670420818672 12.706801944332131, -69.16852569614105 12.469022596388973, -69.45160336025926 12.211938951661377 M-68.6448827202324 12.94458129227529 C-68.84956850045933 12.758691082362171, -69.05425428068625 12.572800872449053, -69.45160336025926 12.211938951661377 M-69.45160336025926 12.211938951661377 C-69.72501326917457 11.929620773335335, -69.99842317808988 11.647302595009291, -70.20972595028036 11.429115134442386 M-69.45160336025926 12.211938951661377 C-69.72360915394259 11.931070637592347, -69.99561494762594 11.650202323523317, -70.20972595028036 11.429115134442386 M-70.20972595028036 11.429115134442386 C-70.45697679707523 11.138680220825403, -70.70422764387008 10.84824530720842, -70.91613520195651 10.599326631598473 M-70.20972595028036 11.429115134442386 C-70.41424429624577 11.18887624784785, -70.6187626422112 10.948637361253313, -70.91613520195651 10.599326631598473 M-70.91613520195651 10.599326631598473 C-71.13223880140265 10.309767495783563, -71.34834240084878 10.020208359968652, -71.56792832814824 9.72598322207689 M-70.91613520195651 10.599326631598473 C-71.06836753283167 10.3953491768764, -71.22059986370684 10.191371722154326, -71.56792832814824 9.72598322207689 M-71.56792832814824 9.72598322207689 C-71.75415316367422 9.439891866338819, -71.9403779992002 9.153800510600748, -72.16242697109088 8.812673661278936 M-71.56792832814824 9.72598322207689 C-71.7241647060557 9.485962190269252, -71.88040108396318 9.245941158461616, -72.16242697109088 8.812673661278936 M-72.16242697109088 8.812673661278936 C-72.35680406280433 8.467537452126852, -72.55118115451776 8.12240124297477, -72.697188208341 7.863150934094201 M-72.16242697109088 8.812673661278936 C-72.37323906116256 8.438355448317756, -72.58405115123423 8.064037235356574, -72.697188208341 7.863150934094201 M-72.697188208341 7.863150934094201 C-72.8299598065044 7.5874478696507905, -72.9627314046678 7.311744805207379, -73.17001459126881 6.881316833080701 M-72.697188208341 7.863150934094201 C-72.82304098861556 7.601814943035956, -72.94889376889013 7.340478951977711, -73.17001459126881 6.881316833080701 M-73.17001459126881 6.881316833080701 C-73.30529729146679 6.547165948078625, -73.44057999166476 6.213015063076548, -73.57896317484592 5.87120592516224 M-73.17001459126881 6.881316833080701 C-73.30454256970694 6.549030125416983, -73.43907054814508 6.216743417753264, -73.57896317484592 5.87120592516224 M-73.57896317484592 5.87120592516224 C-73.71243025781477 5.469224336351871, -73.84589734078364 5.067242747541504, -73.92235350162323 4.8369689727275516 M-73.57896317484592 5.87120592516224 C-73.68796236822375 5.5429177213712455, -73.79696156160158 5.214629517580251, -73.92235350162323 4.8369689727275516 M-73.92235350162323 4.8369689727275516 C-73.98137234555577 4.611904541884058, -74.04039118948829 4.386840111040563, -74.198774507091 3.782855877257349 M-73.92235350162323 4.8369689727275516 C-73.99154090751944 4.573127408033959, -74.06072831341562 4.309285843340367, -74.198774507091 3.782855877257349 M-74.198774507091 3.782855877257349 C-74.26668465061005 3.4341516431009875, -74.33459479412907 3.0854474089446255, -74.40709031804565 2.713198215567455 M-74.198774507091 3.782855877257349 C-74.27622907532223 3.385143039418721, -74.35368364355348 2.987430201580093, -74.40709031804565 2.713198215567455 M-74.40709031804565 2.713198215567455 C-74.44834465806136 2.3932377009964414, -74.48959899807708 2.073277186425428, -74.54644492013637 1.6323914404306026 M-74.40709031804565 2.713198215567455 C-74.45680399079984 2.32762878676096, -74.50651766355405 1.9420593579544647, -74.54644492013637 1.6323914404306026 M-74.54644492013637 1.6323914404306026 C-74.56804039325606 1.2960245150393288, -74.58963586637574 0.959657589648055, -74.6162656754117 0.54487681871814 M-74.54644492013637 1.6323914404306026 C-74.57252868698178 1.2261157173755992, -74.5986124538272 0.8198399943205957, -74.6162656754117 0.54487681871814 M-74.6162656754117 0.54487681871814 C-74.6162656754117 0.2205987343797119, -74.6162656754117 -0.1036793499587162, -74.6162656754117 -0.5448768187181317 M-74.6162656754117 0.54487681871814 C-74.6162656754117 0.2332838116964311, -74.6162656754117 -0.0783091953252778, -74.6162656754117 -0.5448768187181317 M-74.6162656754117 -0.5448768187181317 C-74.59398294876742 -0.8919482724958854, -74.57170022212316 -1.2390197262736393, -74.54644492013637 -1.6323914404305793 M-74.6162656754117 -0.5448768187181317 C-74.59338410549437 -0.9012757398512355, -74.57050253557705 -1.2576746609843394, -74.54644492013637 -1.6323914404305793 M-74.54644492013637 -1.6323914404305793 C-74.5043465468111 -1.9588981106771906, -74.46224817348585 -2.285404780923802, -74.40709031804565 -2.713198215567447 M-74.54644492013637 -1.6323914404305793 C-74.51427659389383 -1.8818826264132553, -74.48210826765127 -2.1313738123959314, -74.40709031804565 -2.713198215567447 M-74.40709031804565 -2.713198215567447 C-74.34370420398108 -3.0386725146290385, -74.28031808991652 -3.3641468136906303, -74.198774507091 -3.782855877257341 M-74.40709031804565 -2.713198215567447 C-74.34743711614468 -3.019504799620253, -74.2877839142437 -3.32581138367306, -74.198774507091 -3.782855877257341 M-74.198774507091 -3.782855877257341 C-74.12094421463308 -4.079656514261517, -74.04311392217517 -4.376457151265694, -73.92235350162323 -4.836968972727544 M-74.198774507091 -3.782855877257341 C-74.09274467055376 -4.187193597595708, -73.98671483401651 -4.591531317934074, -73.92235350162323 -4.836968972727544 M-73.92235350162323 -4.836968972727544 C-73.80441791475295 -5.192172169896895, -73.68648232788266 -5.547375367066246, -73.57896317484594 -5.871205925162218 M-73.92235350162323 -4.836968972727544 C-73.79150177899906 -5.231073512880819, -73.66065005637489 -5.6251780530340945, -73.57896317484594 -5.871205925162218 M-73.57896317484594 -5.871205925162218 C-73.42599243976152 -6.249046598308712, -73.27302170467708 -6.626887271455207, -73.17001459126881 -6.881316833080692 M-73.57896317484594 -5.871205925162218 C-73.48623739903198 -6.100240384153611, -73.39351162321802 -6.329274843145004, -73.17001459126881 -6.881316833080692 M-73.17001459126881 -6.881316833080692 C-73.05568030217385 -7.118734430748262, -72.9413460130789 -7.356152028415832, -72.697188208341 -7.863150934094194 M-73.17001459126881 -6.881316833080692 C-73.00858006663574 -7.216539077626737, -72.84714554200268 -7.551761322172782, -72.697188208341 -7.863150934094194 M-72.697188208341 -7.863150934094194 C-72.5648281181488 -8.098169677142954, -72.43246802795659 -8.333188420191714, -72.16242697109088 -8.812673661278929 M-72.697188208341 -7.863150934094194 C-72.51535465546388 -8.186014819871358, -72.33352110258674 -8.508878705648524, -72.16242697109088 -8.812673661278929 M-72.16242697109088 -8.812673661278929 C-71.98294559242343 -9.088405256410596, -71.80346421375597 -9.364136851542263, -71.56792832814826 -9.725983222076884 M-72.16242697109088 -8.812673661278929 C-72.03408337375086 -9.00984389187465, -71.90573977641084 -9.207014122470373, -71.56792832814826 -9.725983222076884 M-71.56792832814826 -9.725983222076884 C-71.33802661522385 -10.034030572918669, -71.10812490229944 -10.342077923760453, -70.91613520195651 -10.599326631598467 M-71.56792832814826 -9.725983222076884 C-71.35553873146961 -10.010565932535968, -71.14314913479096 -10.29514864299505, -70.91613520195651 -10.599326631598467 M-70.91613520195651 -10.599326631598467 C-70.73128174819695 -10.816466016843933, -70.5464282944374 -11.033605402089396, -70.20972595028037 -11.42911513444238 M-70.91613520195651 -10.599326631598467 C-70.65191609876405 -10.909693424701207, -70.3876969955716 -11.220060217803946, -70.20972595028037 -11.42911513444238 M-70.20972595028037 -11.42911513444238 C-69.95514674767476 -11.691989062473912, -69.70056754506916 -11.954862990505443, -69.45160336025927 -12.21193895166136 M-70.20972595028037 -11.42911513444238 C-69.99316082724955 -11.652736404298969, -69.77659570421874 -11.876357674155559, -69.45160336025927 -12.21193895166136 M-69.45160336025927 -12.21193895166136 C-69.20560780379377 -12.435345607357576, -68.95961224732825 -12.658752263053792, -68.64488272023242 -12.944581292275274 M-69.45160336025927 -12.21193895166136 C-69.26326693521278 -12.382981109779836, -69.07493051016631 -12.554023267898314, -68.64488272023242 -12.944581292275274 M-68.64488272023242 -12.944581292275274 C-68.36408481738887 -13.168510147446987, -68.08328691454533 -13.392439002618703, -67.79287901835067 -13.624031571755259 M-68.64488272023242 -12.944581292275274 C-68.46560952113659 -13.087546897894015, -68.28633632204075 -13.230512503512754, -67.79287901835067 -13.624031571755259 M-67.79287901835067 -13.624031571755259 C-67.49691120449351 -13.830485906461847, -67.20094339063637 -14.036940241168436, -66.89909332057934 -14.247497783161284 M-67.79287901835067 -13.624031571755259 C-67.5510007268325 -13.792755397175855, -67.30912243531434 -13.961479222596449, -66.89909332057934 -14.247497783161284 M-66.89909332057934 -14.247497783161284 C-66.56304961224296 -14.451209453966827, -66.22700590390659 -14.654921124772368, -65.96719838406695 -14.812417970097618 M-66.89909332057934 -14.247497783161284 C-66.5513021205011 -14.458330852496667, -66.20351092042287 -14.669163921832048, -65.96719838406695 -14.812417970097618 M-65.96719838406695 -14.812417970097618 C-65.70656914269004 -14.948388078382953, -65.44593990131314 -15.08435818666829, -65.00102356499849 -15.316470754341124 M-65.96719838406695 -14.812417970097618 C-65.66106552778153 -14.972127285134269, -65.3549326714961 -15.13183660017092, -65.00102356499849 -15.316470754341124 M-65.00102356499849 -15.316470754341124 C-64.62088273757722 -15.484747822163529, -64.24074191015595 -15.653024889985936, -64.00453908294936 -15.757584874882365 M-65.00102356499849 -15.316470754341124 C-64.64845127928427 -15.472544046541548, -64.29587899357006 -15.628617338741973, -64.00453908294936 -15.757584874882365 M-64.00453908294936 -15.757584874882365 C-63.709665322561925 -15.866101144488105, -63.414791562174486 -15.974617414093844, -62.981839706401566 -16.133947699181363 M-64.00453908294936 -15.757584874882365 C-63.61651000901491 -15.900383160991685, -63.228480935080455 -16.043181447101006, -62.981839706401566 -16.133947699181363 M-62.981839706401566 -16.133947699181363 C-62.7253555882487 -16.21007083913652, -62.46887147009584 -16.28619397909168, -61.93712792646164 -16.444012671663494 M-62.981839706401566 -16.133947699181363 C-62.569135650103725 -16.256436096762762, -62.15643159380589 -16.37892449434416, -61.93712792646164 -16.444012671663494 M-61.93712792646164 -16.444012671663494 C-61.582562900008035 -16.5249398251985, -61.22799787355443 -16.60586697873351, -60.87469668792333 -16.68650566884811 M-61.93712792646164 -16.444012671663494 C-61.5971448601349 -16.52161158795573, -61.25716179380815 -16.59921050424796, -60.87469668792333 -16.68650566884811 M-60.87469668792333 -16.68650566884811 C-60.59574202800029 -16.73160489493877, -60.31678736807725 -16.77670412102943, -59.79891174863661 -16.86043023499518 M-60.87469668792333 -16.68650566884811 C-60.494902859455884 -16.7479077896896, -60.115109030988435 -16.809309910531088, -59.79891174863661 -16.86043023499518 M-59.79891174863661 -16.86043023499518 C-59.423615189337895 -16.89663464271058, -59.04831863003917 -16.93283905042598, -58.71419373967212 -16.965071676755716 M-59.79891174863661 -16.86043023499518 C-59.53430511898395 -16.88595651832174, -59.2696984893313 -16.9114828016483, -58.71419373967212 -16.965071676755716 M-58.71419373967212 -16.965071676755716 C-58.38737488484845 -16.9755521213156, -58.06055603002477 -16.986032565875487, -57.62500000000001 -17 M-58.71419373967212 -16.965071676755716 C-58.446101251620824 -16.97366888103715, -58.17800876356953 -16.982266085318585, -57.62500000000001 -17 M-57.62500000000001 -17 C-57.62500000000001 -17, -57.625 -17, -57.625 -17 M-57.62500000000001 -17 C-57.62500000000001 -17, -57.625 -17, -57.625 -17" stroke="#3D3D3D" stroke-width="1.3" fill="none" stroke-dasharray="0 0" style="fill:#5A5A5A !important;stroke:#3D3D3D !important"></path></g><g class="label" style="color:#fff !important" transform="translate(0, -9.5)"><rect></rect><g><rect class="background" style="stroke: none"></rect><text y="-10.1" style="fill:#404040 !important"><tspan class="text-outer-tspan row" x="0" y="-0.1em" dy="1.1em"><tspan font-style="normal" class="text-inner-tspan" font-weight="normal">Primary</tspan><tspan font-style="normal" class="text-inner-tspan" font-weight="normal"> use</tspan><tspan font-style="normal" class="text-inner-tspan" font-weight="normal"> case?</tspan></tspan></text></g></g></g><g class="node default decision" id="g08629a55-59a6-425f-9162-5feccaf1417c-dark-flowchart-work-1" data-look="classic" transform="translate(186.591796875, 187.0890655517578)"><polygon points="95.08906173706055,0 190.1781234741211,-95.08906173706055 95.08906173706055,-190.1781234741211 0,-95.08906173706055" class="label-container" transform="translate(-94.58906173706055, 95.08906173706055)" style="fill:#2E5A88 !important;stroke:#1F4870 !important"></polygon><g class="label" style="color:#fff !important" transform="translate(0, -18.299999237060547)"><rect></rect><g><rect class="background" style="stroke: none"></rect><text y="-10.1" style="fill:#404040 !important"><tspan class="text-outer-tspan row" x="0" y="-0.1em" dy="1.1em"><tspan font-style="normal" class="text-inner-tspan" font-weight="normal">Work</tspan><tspan font-style="normal" class="text-inner-tspan" font-weight="normal"> distribution</tspan></tspan><tspan class="text-outer-tspan row" x="0" y="1em" dy="1.1em"><tspan font-style="normal" class="text-inner-tspan" font-weight="normal">(task</tspan><tspan font-style="normal" class="text-inner-tspan" font-weight="normal"> queue)</tspan></tspan></text></g></g></g><g class="node default decision" id="g08629a55-59a6-425f-9162-5feccaf1417c-dark-flowchart-bcast-2" data-look="classic" transform="translate(655.390625, 187.0890655517578)"><polygon points="92.78125,0 185.5625,-92.78125 92.78125,-185.5625 0,-92.78125" class="label-container" transform="translate(-92.28125, 92.78125)" style="fill:#2E5A88 !important;stroke:#1F4870 !important"></polygon><g class="label" style="color:#fff !important" transform="translate(0, -9.5)"><rect></rect><g><rect class="background" style="stroke: none"></rect><text y="-10.1" style="fill:#404040 !important"><tspan class="text-outer-tspan row" x="0" y="-0.1em" dy="1.1em"><tspan font-style="normal" class="text-inner-tspan" font-weight="normal">Event</tspan><tspan font-style="normal" class="text-inner-tspan" font-weight="normal"> broadcasting</tspan></tspan></text></g></g></g><g class="node default leaf" id="g08629a55-59a6-425f-9162-5feccaf1417c-dark-flowchart-src-3" data-look="classic" transform="translate(925.0703125, 187.0890655517578)"><rect class="basic label-container" style="fill:#8B5E15 !important;stroke:#6E4810 !important" x="-88.7734375" y="-33.29999923706055" width="177.546875" height="66.5999984741211"></rect><g class="label" style="color:#fff !important" transform="translate(0, -18.299999237060547)"><rect></rect><g><rect class="background" style="stroke: none"></rect><text y="-10.1" style="fill:#404040 !important"><tspan class="text-outer-tspan row" x="0" y="-0.1em" dy="1.1em"><tspan font-style="normal" class="text-inner-tspan" font-weight="normal">Event</tspan><tspan font-style="normal" class="text-inner-tspan" font-weight="normal"> sourcing</tspan><tspan font-style="normal" class="text-inner-tspan" font-weight="normal"> /</tspan></tspan><tspan class="text-outer-tspan row" x="0" y="1em" dy="1.1em"><tspan font-style="normal" class="text-inner-tspan" font-weight="normal">audit</tspan><tspan font-style="normal" class="text-inner-tspan" font-weight="normal"> log</tspan></tspan></text></g></g></g><g class="node default leaf" id="g08629a55-59a6-425f-9162-5feccaf1417c-dark-flowchart-rt-4" data-look="classic" transform="translate(1196.171875, 187.0890655517578)"><rect class="basic label-container" style="fill:#8B5E15 !important;stroke:#6E4810 !important" x="-89.546875" y="-33.29999923706055" width="179.09375" height="66.5999984741211"></rect><g class="label" style="color:#fff !important" transform="translate(0, -18.299999237060547)"><rect></rect><g><rect class="background" style="stroke: none"></rect><text y="-10.1" style="fill:#404040 !important"><tspan class="text-outer-tspan row" x="0" y="-0.1em" dy="1.1em"><tspan font-style="normal" class="text-inner-tspan" font-weight="normal">Real-time</tspan></tspan><tspan class="text-outer-tspan row" x="0" y="1em" dy="1.1em"><tspan font-style="normal" class="text-inner-tspan" font-weight="normal">(sub-ms</tspan><tspan font-style="normal" class="text-inner-tspan" font-weight="normal"> latency)</tspan></tspan></text></g></g></g><g class="node default leaf" id="g08629a55-59a6-425f-9162-5feccaf1417c-dark-flowchart-mt-5" data-look="classic" transform="translate(1451.5234375, 187.0890655517578)"><rect class="basic label-container" style="fill:#8B5E15 !important;stroke:#6E4810 !important" x="-108.0546875" y="-24.5" width="216.109375" height="49"></rect><g class="label" style="color:#fff !important" transform="translate(0, -9.5)"><rect></rect><g><rect class="background" style="stroke: none"></rect><text y="-10.1" style="fill:#404040 !important"><tspan class="text-outer-tspan row" x="0" y="-0.1em" dy="1.1em"><tspan font-style="normal" class="text-inner-tspan" font-weight="normal">Multi-tenant</tspan><tspan font-style="normal" class="text-inner-tspan" font-weight="normal"> platform</tspan></tspan></text></g></g></g><g class="node default decision" id="g08629a55-59a6-425f-9162-5feccaf1417c-dark-flowchart-routing-6" data-look="classic" transform="translate(186.591796875, 425.3578186035156)"><polygon points="86.3671875,0 172.734375,-86.3671875 86.3671875,-172.734375 0,-86.3671875" class="label-container" transform="translate(-85.8671875, 86.3671875)" style="fill:#2E5A88 !important;stroke:#1F4870 !important"></polygon><g class="label" style="color:#fff !important" transform="translate(0, -9.5)"><rect></rect><g><rect class="background" style="stroke: none"></rect><text y="-10.1" style="fill:#404040 !important"><tspan class="text-outer-tspan row" x="0" y="-0.1em" dy="1.1em"><tspan font-style="normal" class="text-inner-tspan" font-weight="normal">Complex</tspan><tspan font-style="normal" class="text-inner-tspan" font-weight="normal"> routing?</tspan></tspan></text></g></g></g><g class="node default decision" id="g08629a55-59a6-425f-9162-5feccaf1417c-dark-flowchart-replay-7" data-look="classic" transform="translate(655.390625, 425.3578186035156)"><polygon points="93.1796875,0 186.359375,-93.1796875 93.1796875,-186.359375 0,-93.1796875" class="label-container" transform="translate(-92.6796875, 93.1796875)" style="fill:#2E5A88 !important;stroke:#1F4870 !important"></polygon><g class="label" style="color:#fff !important" transform="translate(0, -9.5)"><rect></rect><g><rect class="background" style="stroke: none"></rect><text y="-10.1" style="fill:#404040 !important"><tspan class="text-outer-tspan row" x="0" y="-0.1em" dy="1.1em"><tspan font-style="normal" class="text-inner-tspan" font-weight="normal">Need</tspan><tspan font-style="normal" class="text-inner-tspan" font-weight="normal"> event</tspan><tspan font-style="normal" class="text-inner-tspan" font-weight="normal"> replay?</tspan></tspan></text></g></g></g><g class="node default option" id="g08629a55-59a6-425f-9162-5feccaf1417c-dark-flowchart-rmq-8" data-look="classic" transform="translate(72.83984375, 624.8375053405762)"><rect class="basic label-container" style="fill:#1F6E68 !important;stroke:#155752 !important" x="-64.83984375" y="-24.5" width="129.6796875" height="49"></rect><g class="label" style="color:#fff !important" transform="translate(0, -9.5)"><rect></rect><g><rect class="background" style="stroke: none"></rect><text y="-10.1" style="fill:#404040 !important"><tspan class="text-outer-tspan row" x="0" y="-0.1em" dy="1.1em"><tspan font-style="normal" class="text-inner-tspan" font-weight="normal">RabbitMQ</tspan></tspan></text></g></g></g><g class="node default option" id="g08629a55-59a6-425f-9162-5feccaf1417c-dark-flowchart-sqs-9" data-look="classic" transform="translate(300.34375, 624.8375053405762)"><rect class="basic label-container" style="fill:#1F6E68 !important;stroke:#155752 !important" x="-112.6640625" y="-33.29999923706055" width="225.328125" height="66.5999984741211"></rect><g class="label" style="color:#fff !important" transform="translate(0, -18.299999237060547)"><rect></rect><g><rect class="background" style="stroke: none"></rect><text y="-10.1" style="fill:#404040 !important"><tspan class="text-outer-tspan row" x="0" y="-0.1em" dy="1.1em"><tspan font-style="normal" class="text-inner-tspan" font-weight="normal">SQS</tspan><tspan font-style="normal" class="text-inner-tspan" font-weight="normal"> or</tspan></tspan><tspan class="text-outer-tspan row" x="0" y="1em" dy="1.1em"><tspan font-style="normal" class="text-inner-tspan" font-weight="normal">Kafka</tspan><tspan font-style="normal" class="text-inner-tspan" font-weight="normal"> consumer</tspan><tspan font-style="normal" class="text-inner-tspan" font-weight="normal"> groups</tspan></tspan></text></g></g></g><g class="node default option" id="g08629a55-59a6-425f-9162-5feccaf1417c-dark-flowchart-kp-10" data-look="classic" transform="translate(546.984375, 624.8375053405762)"><rect class="basic label-container" style="fill:#1F6E68 !important;stroke:#155752 !important" x="-83.9765625" y="-24.5" width="167.953125" height="49"></rect><g class="label" style="color:#fff !important" transform="translate(0, -9.5)"><rect></rect><g><rect class="background" style="stroke: none"></rect><text y="-10.1" style="fill:#404040 !important"><tspan class="text-outer-tspan row" x="0" y="-0.1em" dy="1.1em"><tspan font-style="normal" class="text-inner-tspan" font-weight="normal">Kafka</tspan><tspan font-style="normal" class="text-inner-tspan" font-weight="normal"> or</tspan><tspan font-style="normal" class="text-inner-tspan" font-weight="normal"> Pulsar</tspan></tspan></text></g></g></g><g class="node default option" id="g08629a55-59a6-425f-9162-5feccaf1417c-dark-flowchart-sns-11" data-look="classic" transform="translate(763.796875, 624.8375053405762)"><rect class="basic label-container" style="fill:#1F6E68 !important;stroke:#155752 !important" x="-82.8359375" y="-33.29999923706055" width="165.671875" height="66.5999984741211"></rect><g class="label" style="color:#fff !important" transform="translate(0, -18.299999237060547)"><rect></rect><g><rect class="background" style="stroke: none"></rect><text y="-10.1" style="fill:#404040 !important"><tspan class="text-outer-tspan row" x="0" y="-0.1em" dy="1.1em"><tspan font-style="normal" class="text-inner-tspan" font-weight="normal">SNS</tspan><tspan font-style="normal" class="text-inner-tspan" font-weight="normal"> or</tspan></tspan><tspan class="text-outer-tspan row" x="0" y="1em" dy="1.1em"><tspan font-style="normal" class="text-inner-tspan" font-weight="normal">Cloud</tspan><tspan font-style="normal" class="text-inner-tspan" font-weight="normal"> Pub/Sub</tspan></tspan></text></g></g></g><g class="node default option" id="g08629a55-59a6-425f-9162-5feccaf1417c-dark-flowchart-kafka-12" data-look="classic" transform="translate(925.0703125, 425.3578186035156)"><rect class="basic label-container" style="fill:#1F6E68 !important;stroke:#155752 !important" x="-126.5" y="-33.29999923706055" width="253" height="66.5999984741211"></rect><g class="label" style="color:#fff !important" transform="translate(0, -18.299999237060547)"><rect></rect><g><rect class="background" style="stroke: none"></rect><text y="-10.1" style="fill:#404040 !important"><tspan class="text-outer-tspan row" x="0" y="-0.1em" dy="1.1em"><tspan font-style="normal" class="text-inner-tspan" font-weight="normal">Kafka</tspan></tspan><tspan class="text-outer-tspan row" x="0" y="1em" dy="1.1em"><tspan font-style="normal" class="text-inner-tspan" font-weight="normal">(log-based,</tspan><tspan font-style="normal" class="text-inner-tspan" font-weight="normal"> long</tspan><tspan font-style="normal" class="text-inner-tspan" font-weight="normal"> retention)</tspan></tspan></text></g></g></g><g class="node default option" id="g08629a55-59a6-425f-9162-5feccaf1417c-dark-flowchart-nats-13" data-look="classic" transform="translate(1196.171875, 425.3578186035156)"><rect class="basic label-container" style="fill:#1F6E68 !important;stroke:#155752 !important" x="-94.6015625" y="-24.5" width="189.203125" height="49"></rect><g class="label" style="color:#fff !important" transform="translate(0, -9.5)"><rect></rect><g><rect class="background" style="stroke: none"></rect><text y="-10.1" style="fill:#404040 !important"><tspan class="text-outer-tspan row" x="0" y="-0.1em" dy="1.1em"><tspan font-style="normal" class="text-inner-tspan" font-weight="normal">NATS</tspan><tspan font-style="normal" class="text-inner-tspan" font-weight="normal"> or</tspan><tspan font-style="normal" class="text-inner-tspan" font-weight="normal"> RabbitMQ</tspan></tspan></text></g></g></g><g class="node default option" id="g08629a55-59a6-425f-9162-5feccaf1417c-dark-flowchart-pulsar-14" data-look="classic" transform="translate(1451.5234375, 425.3578186035156)"><rect class="basic label-container" style="fill:#1F6E68 !important;stroke:#155752 !important" x="-110.75" y="-33.29999923706055" width="221.5" height="66.5999984741211"></rect><g class="label" style="color:#fff !important" transform="translate(0, -18.299999237060547)"><rect></rect><g><rect class="background" style="stroke: none"></rect><text y="-10.1" style="fill:#404040 !important"><tspan class="text-outer-tspan row" x="0" y="-0.1em" dy="1.1em"><tspan font-style="normal" class="text-inner-tspan" font-weight="normal">Pulsar</tspan></tspan><tspan class="text-outer-tspan row" x="0" y="1em" dy="1.1em"><tspan font-style="normal" class="text-inner-tspan" font-weight="normal">(native</tspan><tspan font-style="normal" class="text-inner-tspan" font-weight="normal"> multi-tenancy)</tspan></tspan></text></g></g></g></g></g></g><defs><filter id="g08629a55-59a6-425f-9162-5feccaf1417c-dark-drop-shadow" height="130%" width="130%"><feDropShadow dx="4" dy="4" stdDeviation="0" flood-opacity="0.06" flood-color="#000000"></feDropShadow></filter></defs><defs><filter id="g08629a55-59a6-425f-9162-5feccaf1417c-dark-drop-shadow-small" height="150%" width="150%"><feDropShadow dx="2" dy="2" stdDeviation="0" flood-opacity="0.06" flood-color="#000000"></feDropShadow></filter></defs><linearGradient id="g08629a55-59a6-425f-9162-5feccaf1417c-dark-gradient" gradientUnits="objectBoundingBox" x1="0%" y1="0%" x2="100%" y2="0%"><stop offset="0%" stop-color="#555555" stop-opacity="1"></stop><stop offset="100%" stop-color="#555555" stop-opacity="1"></stop></linearGradient></svg>