<svg id="gd836d08e-00be-4445-a494-6f03ed0e3267-light" width="100%" xmlns="http://www.w3.org/2000/svg" xmlns:xlink="http://www.w3.org/1999/xlink" class="flowchart" style="max-width: 927.9710693359375px;" viewBox="0 0 927.9710693359375 1318.481201171875" role="graphics-document document" aria-roledescription="flowchart-v2"><style>#gd836d08e-00be-4445-a494-6f03ed0e3267-light{font-family:"trebuchet ms",verdana,arial,sans-serif;font-size:16px;fill:#333;}@keyframes edge-animation-frame{from{stroke-dashoffset:0;}}@keyframes dash{to{stroke-dashoffset:0;}}#gd836d08e-00be-4445-a494-6f03ed0e3267-light .edge-animation-slow{stroke-dasharray:9,5!important;stroke-dashoffset:900;animation:dash 50s linear infinite;stroke-linecap:round;}#gd836d08e-00be-4445-a494-6f03ed0e3267-light .edge-animation-fast{stroke-dasharray:9,5!important;stroke-dashoffset:900;animation:dash 20s linear infinite;stroke-linecap:round;}#gd836d08e-00be-4445-a494-6f03ed0e3267-light .error-icon{fill:#552222;}#gd836d08e-00be-4445-a494-6f03ed0e3267-light .error-text{fill:#552222;stroke:#552222;}#gd836d08e-00be-4445-a494-6f03ed0e3267-light .edge-thickness-normal{stroke-width:1px;}#gd836d08e-00be-4445-a494-6f03ed0e3267-light .edge-thickness-thick{stroke-width:3.5px;}#gd836d08e-00be-4445-a494-6f03ed0e3267-light .edge-pattern-solid{stroke-dasharray:0;}#gd836d08e-00be-4445-a494-6f03ed0e3267-light .edge-thickness-invisible{stroke-width:0;fill:none;}#gd836d08e-00be-4445-a494-6f03ed0e3267-light .edge-pattern-dashed{stroke-dasharray:3;}#gd836d08e-00be-4445-a494-6f03ed0e3267-light .edge-pattern-dotted{stroke-dasharray:2;}#gd836d08e-00be-4445-a494-6f03ed0e3267-light .marker{fill:#333333;stroke:#333333;}#gd836d08e-00be-4445-a494-6f03ed0e3267-light .marker.cross{stroke:#333333;}#gd836d08e-00be-4445-a494-6f03ed0e3267-light svg{font-family:"trebuchet ms",verdana,arial,sans-serif;font-size:16px;}#gd836d08e-00be-4445-a494-6f03ed0e3267-light p{margin:0;}#gd836d08e-00be-4445-a494-6f03ed0e3267-light .label{font-family:"trebuchet ms",verdana,arial,sans-serif;color:#333;}#gd836d08e-00be-4445-a494-6f03ed0e3267-light .cluster-label text{fill:#333;}#gd836d08e-00be-4445-a494-6f03ed0e3267-light .cluster-label span{color:#333;}#gd836d08e-00be-4445-a494-6f03ed0e3267-light .cluster-label span p{background-color:transparent;}#gd836d08e-00be-4445-a494-6f03ed0e3267-light .label text,#gd836d08e-00be-4445-a494-6f03ed0e3267-light span{fill:#333;color:#333;}#gd836d08e-00be-4445-a494-6f03ed0e3267-light .node rect,#gd836d08e-00be-4445-a494-6f03ed0e3267-light .node circle,#gd836d08e-00be-4445-a494-6f03ed0e3267-light .node ellipse,#gd836d08e-00be-4445-a494-6f03ed0e3267-light .node polygon,#gd836d08e-00be-4445-a494-6f03ed0e3267-light .node path{fill:#ECECFF;stroke:#9370DB;stroke-width:1px;}#gd836d08e-00be-4445-a494-6f03ed0e3267-light .rough-node .label text,#gd836d08e-00be-4445-a494-6f03ed0e3267-light .node .label text,#gd836d08e-00be-4445-a494-6f03ed0e3267-light .image-shape .label,#gd836d08e-00be-4445-a494-6f03ed0e3267-light .icon-shape .label{text-anchor:middle;}#gd836d08e-00be-4445-a494-6f03ed0e3267-light .node .katex path{fill:#000;stroke:#000;stroke-width:1px;}#gd836d08e-00be-4445-a494-6f03ed0e3267-light .rough-node .label,#gd836d08e-00be-4445-a494-6f03ed0e3267-light .node .label,#gd836d08e-00be-4445-a494-6f03ed0e3267-light .image-shape .label,#gd836d08e-00be-4445-a494-6f03ed0e3267-light .icon-shape .label{text-align:center;}#gd836d08e-00be-4445-a494-6f03ed0e3267-light .node.clickable{cursor:pointer;}#gd836d08e-00be-4445-a494-6f03ed0e3267-light .root .anchor path{fill:#333333!important;stroke-width:0;stroke:#333333;}#gd836d08e-00be-4445-a494-6f03ed0e3267-light .arrowheadPath{fill:#333333;}#gd836d08e-00be-4445-a494-6f03ed0e3267-light .edgePath .path{stroke:#333333;stroke-width:1px;}#gd836d08e-00be-4445-a494-6f03ed0e3267-light .flowchart-link{stroke:#333333;fill:none;}#gd836d08e-00be-4445-a494-6f03ed0e3267-light .edgeLabel{background-color:rgba(232,232,232, 0.8);text-align:center;}#gd836d08e-00be-4445-a494-6f03ed0e3267-light .edgeLabel p{background-color:rgba(232,232,232, 0.8);}#gd836d08e-00be-4445-a494-6f03ed0e3267-light .edgeLabel rect{opacity:0.5;background-color:rgba(232,232,232, 0.8);fill:rgba(232,232,232, 0.8);}#gd836d08e-00be-4445-a494-6f03ed0e3267-light .labelBkg{background-color:rgba(232, 232, 232, 0.5);}#gd836d08e-00be-4445-a494-6f03ed0e3267-light .cluster rect{fill:#ffffde;stroke:#aaaa33;stroke-width:1px;}#gd836d08e-00be-4445-a494-6f03ed0e3267-light .cluster text{fill:#333;}#gd836d08e-00be-4445-a494-6f03ed0e3267-light .cluster span{color:#333;}#gd836d08e-00be-4445-a494-6f03ed0e3267-light div.mermaidTooltip{position:absolute;text-align:center;max-width:200px;padding:2px;font-family:"trebuchet ms",verdana,arial,sans-serif;font-size:12px;background:hsl(80, 100%, 96.2745098039%);border:1px solid #aaaa33;border-radius:2px;pointer-events:none;z-index:100;}#gd836d08e-00be-4445-a494-6f03ed0e3267-light .flowchartTitleText{text-anchor:middle;font-size:18px;fill:#333;}#gd836d08e-00be-4445-a494-6f03ed0e3267-light rect.text{fill:none;stroke-width:0;}#gd836d08e-00be-4445-a494-6f03ed0e3267-light .icon-shape,#gd836d08e-00be-4445-a494-6f03ed0e3267-light .image-shape{background-color:rgba(232,232,232, 0.8);text-align:center;}#gd836d08e-00be-4445-a494-6f03ed0e3267-light .icon-shape p,#gd836d08e-00be-4445-a494-6f03ed0e3267-light .image-shape p{background-color:rgba(232,232,232, 0.8);padding:2px;}#gd836d08e-00be-4445-a494-6f03ed0e3267-light .icon-shape .label rect,#gd836d08e-00be-4445-a494-6f03ed0e3267-light .image-shape .label rect{opacity:0.5;background-color:rgba(232,232,232, 0.8);fill:rgba(232,232,232, 0.8);}#gd836d08e-00be-4445-a494-6f03ed0e3267-light .label-icon{display:inline-block;height:1em;overflow:visible;vertical-align:-0.125em;}#gd836d08e-00be-4445-a494-6f03ed0e3267-light .node .label-icon path{fill:currentColor;stroke:revert;stroke-width:revert;}#gd836d08e-00be-4445-a494-6f03ed0e3267-light .node .neo-node{stroke:#9370DB;}#gd836d08e-00be-4445-a494-6f03ed0e3267-light [data-look="neo"].node rect,#gd836d08e-00be-4445-a494-6f03ed0e3267-light [data-look="neo"].cluster rect,#gd836d08e-00be-4445-a494-6f03ed0e3267-light [data-look="neo"].node polygon{stroke:#9370DB;filter:drop-shadow(1px 2px 2px rgba(185, 185, 185, 1));}#gd836d08e-00be-4445-a494-6f03ed0e3267-light [data-look="neo"].node path{stroke:#9370DB;stroke-width:1px;}#gd836d08e-00be-4445-a494-6f03ed0e3267-light [data-look="neo"].node .outer-path{filter:drop-shadow(1px 2px 2px rgba(185, 185, 185, 1));}#gd836d08e-00be-4445-a494-6f03ed0e3267-light [data-look="neo"].node .neo-line path{stroke:#9370DB;filter:none;}#gd836d08e-00be-4445-a494-6f03ed0e3267-light [data-look="neo"].node circle{stroke:#9370DB;filter:drop-shadow(1px 2px 2px rgba(185, 185, 185, 1));}#gd836d08e-00be-4445-a494-6f03ed0e3267-light [data-look="neo"].node circle .state-start{fill:#000000;}#gd836d08e-00be-4445-a494-6f03ed0e3267-light [data-look="neo"].icon-shape .icon{fill:#9370DB;filter:drop-shadow(1px 2px 2px rgba(185, 185, 185, 1));}#gd836d08e-00be-4445-a494-6f03ed0e3267-light [data-look="neo"].icon-shape .icon-neo path{stroke:#9370DB;filter:drop-shadow(1px 2px 2px rgba(185, 185, 185, 1));}#gd836d08e-00be-4445-a494-6f03ed0e3267-light :root{--mermaid-font-family:"trebuchet ms",verdana,arial,sans-serif;}</style><g><marker id="gd836d08e-00be-4445-a494-6f03ed0e3267-light_flowchart-v2-pointEnd" class="marker flowchart-v2" viewBox="0 0 10 10" refX="5" refY="5" markerUnits="userSpaceOnUse" markerWidth="8" markerHeight="8" orient="auto"><path d="M 0 0 L 10 5 L 0 10 z" class="arrowMarkerPath" style="stroke-width: 1; stroke-dasharray: 1, 0;"></path></marker><marker id="gd836d08e-00be-4445-a494-6f03ed0e3267-light_flowchart-v2-pointStart" class="marker flowchart-v2" viewBox="0 0 10 10" refX="4.5" refY="5" markerUnits="userSpaceOnUse" markerWidth="8" markerHeight="8" orient="auto"><path d="M 0 5 L 10 10 L 10 0 z" class="arrowMarkerPath" style="stroke-width: 1; stroke-dasharray: 1, 0;"></path></marker><marker id="gd836d08e-00be-4445-a494-6f03ed0e3267-light_flowchart-v2-pointEnd-margin" class="marker flowchart-v2" viewBox="0 0 11.5 14" refX="11.5" refY="7" markerUnits="userSpaceOnUse" markerWidth="10.5" markerHeight="14" orient="auto"><path d="M 0 0 L 11.5 7 L 0 14 z" class="arrowMarkerPath" style="stroke-width: 0; stroke-dasharray: 1, 0;"></path></marker><marker id="gd836d08e-00be-4445-a494-6f03ed0e3267-light_flowchart-v2-pointStart-margin" class="marker flowchart-v2" viewBox="0 0 11.5 14" refX="1" refY="7" markerUnits="userSpaceOnUse" markerWidth="11.5" markerHeight="14" orient="auto"><polygon points="0,7 11.5,14 11.5,0" class="arrowMarkerPath" style="stroke-width: 0; stroke-dasharray: 1, 0;"></polygon></marker><marker id="gd836d08e-00be-4445-a494-6f03ed0e3267-light_flowchart-v2-circleEnd" class="marker flowchart-v2" viewBox="0 0 10 10" refX="11" refY="5" markerUnits="userSpaceOnUse" markerWidth="11" markerHeight="11" orient="auto"><circle cx="5" cy="5" r="5" class="arrowMarkerPath" style="stroke-width: 1; stroke-dasharray: 1, 0;"></circle></marker><marker id="gd836d08e-00be-4445-a494-6f03ed0e3267-light_flowchart-v2-circleStart" class="marker flowchart-v2" viewBox="0 0 10 10" refX="-1" refY="5" markerUnits="userSpaceOnUse" markerWidth="11" markerHeight="11" orient="auto"><circle cx="5" cy="5" r="5" class="arrowMarkerPath" style="stroke-width: 1; stroke-dasharray: 1, 0;"></circle></marker><marker id="gd836d08e-00be-4445-a494-6f03ed0e3267-light_flowchart-v2-circleEnd-margin" class="marker flowchart-v2" viewBox="0 0 10 10" refY="5" refX="12.25" markerUnits="userSpaceOnUse" markerWidth="14" markerHeight="14" orient="auto"><circle cx="5" cy="5" r="5" class="arrowMarkerPath" style="stroke-width: 0; stroke-dasharray: 1, 0;"></circle></marker><marker id="gd836d08e-00be-4445-a494-6f03ed0e3267-light_flowchart-v2-circleStart-margin" class="marker flowchart-v2" viewBox="0 0 10 10" refX="-2" refY="5" markerUnits="userSpaceOnUse" markerWidth="14" markerHeight="14" orient="auto"><circle cx="5" cy="5" r="5" class="arrowMarkerPath" style="stroke-width: 0; stroke-dasharray: 1, 0;"></circle></marker><marker id="gd836d08e-00be-4445-a494-6f03ed0e3267-light_flowchart-v2-crossEnd" class="marker cross flowchart-v2" viewBox="0 0 11 11" refX="12" refY="5.2" markerUnits="userSpaceOnUse" markerWidth="11" markerHeight="11" orient="auto"><path d="M 1,1 l 9,9 M 10,1 l -9,9" class="arrowMarkerPath" style="stroke-width: 2; stroke-dasharray: 1, 0;"></path></marker><marker id="gd836d08e-00be-4445-a494-6f03ed0e3267-light_flowchart-v2-crossStart" class="marker cross flowchart-v2" viewBox="0 0 11 11" refX="-1" refY="5.2" markerUnits="userSpaceOnUse" markerWidth="11" markerHeight="11" orient="auto"><path d="M 1,1 l 9,9 M 10,1 l -9,9" class="arrowMarkerPath" style="stroke-width: 2; stroke-dasharray: 1, 0;"></path></marker><marker id="gd836d08e-00be-4445-a494-6f03ed0e3267-light_flowchart-v2-crossEnd-margin" class="marker cross flowchart-v2" viewBox="0 0 15 15" refX="17.7" refY="7.5" markerUnits="userSpaceOnUse" markerWidth="12" markerHeight="12" orient="auto"><path d="M 1,1 L 14,14 M 1,14 L 14,1" class="arrowMarkerPath" style="stroke-width: 2.5;"></path></marker><marker id="gd836d08e-00be-4445-a494-6f03ed0e3267-light_flowchart-v2-crossStart-margin" class="marker cross flowchart-v2" viewBox="0 0 15 15" refX="-3.5" refY="7.5" markerUnits="userSpaceOnUse" markerWidth="12" markerHeight="12" orient="auto"><path d="M 1,1 L 14,14 M 1,14 L 14,1" class="arrowMarkerPath" style="stroke-width: 2.5; stroke-dasharray: 1, 0;"></path></marker><g class="root"><g class="clusters"></g><g class="edgePaths"><path d="M276.584,60.1L276.5,64.183C276.417,68.267,276.25,76.433,276.167,84.017C276.084,91.6,276.084,98.6,276.084,102.1L276.084,105.6" id="gd836d08e-00be-4445-a494-6f03ed0e3267-light-L_Start_Mut_0" class="edge-thickness-normal edge-pattern-solid edge-thickness-normal edge-pattern-solid flowchart-link" style=";" data-edge="true" data-et="edge" data-id="L_Start_Mut_0" data-points="W3sieCI6Mjc2LjU4MzU5NTI3NTg3ODksInkiOjYwLjA5OTk5ODQ3NDEyMTA3fSx7IngiOjI3Ni4wODM1OTUyNzU4Nzg5LCJ5Ijo4NC41OTk5OTg0NzQxMjExfSx7IngiOjI3Ni4wODM1OTUyNzU4Nzg5LCJ5IjoxMDkuNTk5OTk4NDc0MTIxMDh9XQ==" data-look="classic" marker-end="url(#gd836d08e-00be-4445-a494-6f03ed0e3267-light_flowchart-v2-pointEnd)"></path><path d="M224.064,265.024L209.22,279.777C194.376,294.531,164.688,324.037,149.844,354.718C135,385.399,135,417.255,135,433.183L135,449.111" id="gd836d08e-00be-4445-a494-6f03ed0e3267-light-L_Mut_NetOnly_0" class="edge-thickness-normal edge-pattern-solid edge-thickness-normal edge-pattern-solid flowchart-link" style=";" data-edge="true" data-et="edge" data-id="L_Mut_NetOnly_0" data-points="W3sieCI6MjI0LjA2Mzc5NDEyNjI1MTY1LCJ5IjoyNjUuMDIzOTM4MTY5MjIwNH0seyJ4IjoxMzUsInkiOjM1My41NDM3MzkzMTg4NDc2Nn0seyJ4IjoxMzUsInkiOjQ1My4xMTA5MzEzOTY0ODQ0fV0=" data-look="classic" marker-end="url(#gd836d08e-00be-4445-a494-6f03ed0e3267-light_flowchart-v2-pointEnd)"></path><path d="M328.103,265.024L342.947,279.777C357.791,294.531,387.479,324.037,402.323,344.207C417.167,364.377,417.167,375.21,417.167,380.627L417.167,386.044" id="gd836d08e-00be-4445-a494-6f03ed0e3267-light-L_Mut_Vers_0" class="edge-thickness-normal edge-pattern-solid edge-thickness-normal edge-pattern-solid flowchart-link" style=";" data-edge="true" data-et="edge" data-id="L_Mut_Vers_0" data-points="W3sieCI6MzI4LjEwMzM5NjQyNTUwNjIsInkiOjI2NS4wMjM5MzgxNjkyMjAzNH0seyJ4Ijo0MTcuMTY3MTkwNTUxNzU3OCwieSI6MzUzLjU0MzczOTMxODg0NzY2fSx7IngiOjQxNy4xNjcxOTA1NTE3NTc4LCJ5IjozOTAuMDQzNzM5MzE4ODQ3Nn1d" data-look="classic" marker-end="url(#gd836d08e-00be-4445-a494-6f03ed0e3267-light_flowchart-v2-pointEnd)"></path><path d="M370.88,554.091L360.033,567.889C349.186,581.687,327.492,609.282,316.645,637.665C305.798,666.047,305.798,695.217,305.798,709.801L305.798,724.386" id="gd836d08e-00be-4445-a494-6f03ed0e3267-light-L_Vers_CacheFirst_0" class="edge-thickness-normal edge-pattern-solid edge-thickness-normal edge-pattern-solid flowchart-link" style=";" data-edge="true" data-et="edge" data-id="L_Vers_CacheFirst_0" data-points="W3sieCI6MzcwLjg3OTkzNzM3NzEwODQzLCJ5Ijo1NTQuMDkwODY3MjQ3NzE0fSx7IngiOjMwNS43OTg0MzkwMjU4Nzg5LCJ5Ijo2MzYuODc4MTIwNDIyMzYzM30seyJ4IjozMDUuNzk4NDM5MDI1ODc4OSwieSI6NzI4LjM4NTkzNjczNzA2MDV9XQ==" data-look="classic" marker-end="url(#gd836d08e-00be-4445-a494-6f03ed0e3267-light_flowchart-v2-pointEnd)"></path><path d="M463.454,554.091L474.301,567.889C485.148,581.687,506.842,609.282,517.689,628.497C528.536,647.711,528.536,658.545,528.536,663.961L528.536,669.378" id="gd836d08e-00be-4445-a494-6f03ed0e3267-light-L_Vers_Stale_0" class="edge-thickness-normal edge-pattern-solid edge-thickness-normal edge-pattern-solid flowchart-link" style=";" data-edge="true" data-et="edge" data-id="L_Vers_Stale_0" data-points="W3sieCI6NDYzLjQ1NDQ0MzcyNjQwNzIsInkiOjU1NC4wOTA4NjcyNDc3MTR9LHsieCI6NTI4LjUzNTk0MjA3NzYzNjcsInkiOjYzNi44NzgxMjA0MjIzNjMzfSx7IngiOjUyOC41MzU5NDIwNzc2MzY3LCJ5Ijo2NzMuMzc4MTIwNDIyMzYzM31d" data-look="classic" marker-end="url(#gd836d08e-00be-4445-a494-6f03ed0e3267-light_flowchart-v2-pointEnd)"></path><path d="M481.964,803.422L466.515,817.267C451.066,831.113,420.167,858.803,404.718,890.239C389.269,921.675,389.269,956.856,389.269,974.447L389.269,992.037" id="gd836d08e-00be-4445-a494-6f03ed0e3267-light-L_Stale_SWR_0" class="edge-thickness-normal edge-pattern-solid edge-thickness-normal edge-pattern-solid flowchart-link" style=";" data-edge="true" data-et="edge" data-id="L_Stale_SWR_0" data-points="W3sieCI6NDgxLjk2NDM5NjYxMzI0MTEsInkiOjgwMy40MjIyMDYwNjE0ODMzfSx7IngiOjM4OS4yNjg3NTY4NjY0NTUxLCJ5Ijo4ODYuNDkzNzUxNTI1ODc4OX0seyJ4IjozODkuMjY4NzU2ODY2NDU1MSwieSI6OTk2LjAzNzQ5ODQ3NDEyMTF9XQ==" data-look="classic" marker-end="url(#gd836d08e-00be-4445-a494-6f03ed0e3267-light_flowchart-v2-pointEnd)"></path><path d="M575.107,803.422L590.557,817.267C606.006,831.113,636.905,858.803,652.354,878.065C667.803,897.327,667.803,908.16,667.803,913.577L667.803,918.994" id="gd836d08e-00be-4445-a494-6f03ed0e3267-light-L_Stale_Fresh_0" class="edge-thickness-normal edge-pattern-solid edge-thickness-normal edge-pattern-solid flowchart-link" style=";" data-edge="true" data-et="edge" data-id="L_Stale_Fresh_0" data-points="W3sieCI6NTc1LjEwNzQ4NzU0MjAzMjEsInkiOjgwMy40MjIyMDYwNjE0ODI5fSx7IngiOjY2Ny44MDMxMjcyODg4MTg0LCJ5Ijo4ODYuNDkzNzUxNTI1ODc4OX0seyJ4Ijo2NjcuODAzMTI3Mjg4ODE3OCwieSI6OTIyLjk5Mzc1MTUyNTg3OTR9XQ==" data-look="classic" marker-end="url(#gd836d08e-00be-4445-a494-6f03ed0e3267-light_flowchart-v2-pointEnd)"></path><path d="M612.566,1098.044L598.468,1113.334C584.37,1128.623,556.175,1159.202,542.077,1179.908C527.979,1200.615,527.979,1211.448,527.979,1216.865L527.979,1222.281" id="gd836d08e-00be-4445-a494-6f03ed0e3267-light-L_Fresh_NetFirst_0" class="edge-thickness-normal edge-pattern-solid edge-thickness-normal edge-pattern-solid flowchart-link" style=";" data-edge="true" data-et="edge" data-id="L_Fresh_NetFirst_0" data-points="W3sieCI6NjEyLjU2NTg5MjkyMTIzNjgsInkiOjEwOTguMDQ0MDA4MDAzMDIzfSx7IngiOjUyNy45Nzg5MDg1Mzg4MTg0LCJ5IjoxMTg5Ljc4MTI0MjM3MDYwNTV9LHsieCI6NTI3Ljk3ODkwODUzODgxODQsInkiOjEyMjYuMjgxMjQyMzcwNjA1NX1d" data-look="classic" marker-end="url(#gd836d08e-00be-4445-a494-6f03ed0e3267-light_flowchart-v2-pointEnd)"></path><path d="M723.04,1098.044L737.138,1113.334C751.236,1128.623,779.432,1159.202,793.53,1181.375C807.627,1203.548,807.627,1217.315,807.627,1224.198L807.627,1231.081" id="gd836d08e-00be-4445-a494-6f03ed0e3267-light-L_Fresh_CacheOnly_0" class="edge-thickness-normal edge-pattern-solid edge-thickness-normal edge-pattern-solid flowchart-link" style=";" data-edge="true" data-et="edge" data-id="L_Fresh_CacheOnly_0" data-points="W3sieCI6NzIzLjA0MDM2MTY1NjQwMDksInkiOjEwOTguMDQ0MDA4MDAzMDIzN30seyJ4Ijo4MDcuNjI3MzQ2MDM4ODE4NCwieSI6MTE4OS43ODEyNDIzNzA2MDU1fSx7IngiOjgwNy42MjczNDYwMzg4MTg0LCJ5IjoxMjM1LjA4MTI0MTYwNzY2Nn1d" data-look="classic" marker-end="url(#gd836d08e-00be-4445-a494-6f03ed0e3267-light_flowchart-v2-pointEnd)"></path></g><g class="edgeLabels"><g class="edgeLabel"><g class="label" data-id="L_Start_Mut_0" transform="translate(0, 0)"><text y="-10.1" text-anchor="middle"><tspan class="text-outer-tspan row" x="0" y="-0.1em" dy="1.1em" text-anchor="middle"></tspan></text></g></g><g><rect class="background" style="stroke: none"></rect></g><g class="edgeLabel" transform="translate(135, 353.54373931884766)"><g class="label" data-id="L_Mut_NetOnly_0" transform="translate(0, -10.5)"><g><rect class="background" style="" x="-13.546875" y="-1" width="27.09375" height="23"></rect><text y="-10.1" text-anchor="middle" style=""><tspan class="text-outer-tspan row" x="0" y="-0.1em" dy="1.1em" text-anchor="middle"><tspan font-style="normal" class="text-inner-tspan" font-weight="normal">yes</tspan></tspan></text></g></g></g><g class="edgeLabel" transform="translate(417.1671905517578, 353.54373931884766)"><g class="label" data-id="L_Mut_Vers_0" transform="translate(0, -10.5)"><g><rect class="background" style="" x="-10.6640625" y="-1" width="21.328125" height="23"></rect><text y="-10.1" text-anchor="middle" style=""><tspan class="text-outer-tspan row" x="0" y="-0.1em" dy="1.1em" text-anchor="middle"><tspan font-style="normal" class="text-inner-tspan" font-weight="normal">no</tspan></tspan></text></g></g></g><g class="edgeLabel" transform="translate(305.7984390258789, 636.8781204223633)"><g class="label" data-id="L_Vers_CacheFirst_0" transform="translate(0, -10.5)"><g><rect class="background" style="" x="-13.546875" y="-1" width="27.09375" height="23"></rect><text y="-10.1" text-anchor="middle" style=""><tspan class="text-outer-tspan row" x="0" y="-0.1em" dy="1.1em" text-anchor="middle"><tspan font-style="normal" class="text-inner-tspan" font-weight="normal">yes</tspan></tspan></text></g></g></g><g class="edgeLabel" transform="translate(528.5359420776367, 636.8781204223633)"><g class="label" data-id="L_Vers_Stale_0" transform="translate(0, -10.5)"><g><rect class="background" style="" x="-10.6640625" y="-1" width="21.328125" height="23"></rect><text y="-10.1" text-anchor="middle" style=""><tspan class="text-outer-tspan row" x="0" y="-0.1em" dy="1.1em" text-anchor="middle"><tspan font-style="normal" class="text-inner-tspan" font-weight="normal">no</tspan></tspan></text></g></g></g><g class="edgeLabel" transform="translate(389.2687568664551, 886.4937515258789)"><g class="label" data-id="L_Stale_SWR_0" transform="translate(0, -10.5)"><g><rect class="background" style="" x="-13.546875" y="-1" width="27.09375" height="23"></rect><text y="-10.1" text-anchor="middle" style=""><tspan class="text-outer-tspan row" x="0" y="-0.1em" dy="1.1em" text-anchor="middle"><tspan font-style="normal" class="text-inner-tspan" font-weight="normal">yes</tspan></tspan></text></g></g></g><g class="edgeLabel" transform="translate(667.8031272888184, 886.4937515258789)"><g class="label" data-id="L_Stale_Fresh_0" transform="translate(0, -10.5)"><g><rect class="background" style="" x="-10.6640625" y="-1" width="21.328125" height="23"></rect><text y="-10.1" text-anchor="middle" style=""><tspan class="text-outer-tspan row" x="0" y="-0.1em" dy="1.1em" text-anchor="middle"><tspan font-style="normal" class="text-inner-tspan" font-weight="normal">no</tspan></tspan></text></g></g></g><g class="edgeLabel" transform="translate(527.9789085388184, 1189.7812423706055)"><g class="label" data-id="L_Fresh_NetFirst_0" transform="translate(0, -10.5)"><g><rect class="background" style="" x="-13.546875" y="-1" width="27.09375" height="23"></rect><text y="-10.1" text-anchor="middle" style=""><tspan class="text-outer-tspan row" x="0" y="-0.1em" dy="1.1em" text-anchor="middle"><tspan font-style="normal" class="text-inner-tspan" font-weight="normal">yes</tspan></tspan></text></g></g></g><g class="edgeLabel" transform="translate(807.6273460388184, 1189.7812423706055)"><g class="label" data-id="L_Fresh_CacheOnly_0" transform="translate(0, -10.5)"><g><rect class="background" style="" x="-10.6640625" y="-1" width="21.328125" height="23"></rect><text y="-10.1" text-anchor="middle" style=""><tspan class="text-outer-tspan row" x="0" y="-0.1em" dy="1.1em" text-anchor="middle"><tspan font-style="normal" class="text-inner-tspan" font-weight="normal">no</tspan></tspan></text></g></g></g></g><g class="nodes"><g class="node default" id="gd836d08e-00be-4445-a494-6f03ed0e3267-light-flowchart-Start-0" data-look="classic" transform="translate(276.0835952758789, 33.79999923706055)"><g class="basic label-container outer-path"><path d="M-68.29062557220459 -25.799999237060547 C-40.07905384585581 -25.799999237060547, -11.867482119507038 -25.799999237060547, 68.29062557220459 -25.799999237060547 C68.29062557220459 -25.799999237060547, 68.29062557220459 -25.799999237060547, 68.29062557220459 -25.799999237060547 C68.62250810700351 -25.78935641013971, 68.95439064180242 -25.778713583218874, 69.94363719882529 -25.746990371586765 C70.37902088844153 -25.70498943067498, 70.81440457805778 -25.662988489763197, 71.58985624610231 -25.58818159996402 C72.21443189628769 -25.487205052498556, 72.83900754647308 -25.38622850503309, 73.22251804685753 -25.32422550149928 C73.6639929076122 -25.22346174542473, 74.10546776836686 -25.122697989350176, 74.83491364354678 -24.956206728419545 C75.43371572543319 -24.77848541369193, 76.03251780731959 -24.600764098964316, 76.42041735680552 -24.48563754880318 C76.97179697411468 -24.282724752736097, 77.52317659142385 -24.079811956669012, 77.97251401178644 -23.914451632345997 C78.48658907958189 -23.686885849328025, 79.00066414737734 -23.459320066310053, 79.48482571041056 -23.24499610449772 C80.02758706285522 -22.961837854582576, 80.57034841529989 -22.678679604667437, 80.9511380395184 -22.480021901620034 C81.37434555444338 -22.22347101902909, 81.79755306936836 -21.96692013643815, 82.36542560722664 -21.62267246679901 C82.66412098610192 -21.414315500810165, 82.9628163649772 -21.205958534821324, 83.72187680255584 -20.67647083276321 C84.19590574855211 -20.298445362771215, 84.66993469454837 -19.920419892779222, 85.0149176765865 -19.64530514498651 C85.44372168077015 -19.255876693919156, 85.87252568495381 -18.8664482428518, 86.23923484701088 -18.533412684464313 C86.53557133900532 -18.2274209268016, 86.83190783099974 -17.921429169138886, 87.38979733196044 -17.345362455817106 C87.71305354354507 -16.96564731589029, 88.0363097551297 -16.58593217596347, 88.46187722338968 -16.086036412270357 C88.70152429220566 -15.764931172354032, 88.94117136102166 -15.443825932437708, 89.45106911506427 -14.76060939466161 C89.80414164247183 -14.21819517931488, 90.1572141698794 -13.675780963968151, 90.35330820532036 -13.374527866909407 C90.66710922781498 -12.817342375671045, 90.98091025030959 -12.26015688443268, 91.1648870002064 -11.93348753532484 C91.31484667430708 -11.622093063431794, 91.46480634840773 -11.310698591538749, 91.88247054837109 -10.443409943732584 C92.01295016984284 -10.121122756045501, 92.14342979131457 -9.79883556835842, 92.50311014509381 -8.910418140577123 C92.68309974682421 -8.368318137613734, 92.86308934855461 -7.826218134650345, 93.0242554491449 -7.340811518003323 C93.15112790850941 -6.85699184357474, 93.27800036787391 -6.373172169146157, 93.44376496268467 -5.741039926302914 C93.54928357978538 -5.199224128858363, 93.65480219688611 -4.657408331413812, 93.75991483113748 -4.117677170096137 C93.80857119510262 -3.7403080194683955, 93.85722755906774 -3.3629388688406543, 93.97140592687991 -2.4773939951584394 C94.00083742929915 -2.0189745882975894, 94.0302689317184 -1.5605551814367389, 94.07736918763487 -0.8269306768952902 C94.07736918763487 -0.17531989304722995, 94.07736918763487 0.4762908908008303, 94.07736918763487 0.826930676895284 C94.04635641635053 1.3099796227071858, 94.01534364506621 1.7930285685190874, 93.97140592687991 2.4773939951584216 C93.90650092969649 2.980784336371671, 93.84159593251306 3.48417467758492, 93.75991483113748 4.117677170096119 C93.68693352774649 4.4924207384049115, 93.6139522243555 4.867164306713704, 93.44376496268467 5.741039926302909 C93.3062656857773 6.265384261714264, 93.16876640886994 6.7897285971256185, 93.0242554491449 7.340811518003306 C92.89913293205946 7.717660603898884, 92.77401041497401 8.094509689794462, 92.50311014509383 8.910418140577105 C92.2796394626253 9.462395046786089, 92.05616878015678 10.01437195299507, 91.88247054837109 10.443409943732577 C91.70854860238512 10.80456258590593, 91.53462665639915 11.165715228079284, 91.1648870002064 11.933487535324835 C90.91046200802234 12.385244872271779, 90.65603701583828 12.83700220921872, 90.35330820532037 13.374527866909402 C90.16874965826517 13.658059356095258, 89.98419111120997 13.941590845281112, 89.45106911506429 14.760609394661596 C89.24157827958561 15.041308029195285, 89.03208744410695 15.322006663728972, 88.46187722338968 16.086036412270353 C88.10020871430443 16.51087282256304, 87.7385402052192 16.935709232855725, 87.38979733196045 17.345362455817092 C87.0298585429146 17.717028807031102, 86.66991975386873 18.088695158245116, 86.23923484701088 18.533412684464306 C85.79249363089582 18.939131236815154, 85.34575241478075 19.344849789166, 85.01491767658653 19.64530514498649 C84.60755707235879 19.970164386537174, 84.20019646813104 20.295023628087858, 83.72187680255584 20.676470832763208 C83.33442213561322 20.94674243578017, 82.9469674686706 21.217014038797135, 82.36542560722665 21.622672466799003 C81.96125611167867 21.867682390163786, 81.55708661613069 22.11269231352857, 80.95113803951841 22.48002190162003 C80.62435687795428 22.650503424294712, 80.29757571639016 22.820984946969396, 79.48482571041058 23.244996104497716 C79.01029119333691 23.45505845863992, 78.53575667626323 23.665120812782124, 77.97251401178644 23.914451632345994 C77.48566132031381 24.09361792322487, 76.99880862884118 24.272784214103744, 76.42041735680553 24.485637548803172 C75.91012056750743 24.63709095726434, 75.39982377820935 24.788544365725507, 74.83491364354681 24.95620672841954 C74.34065217035943 25.069018684317022, 73.84639069717205 25.181830640214503, 73.22251804685754 25.324225501499278 C72.73012023102304 25.40383256176131, 72.23772241518851 25.48343962202334, 71.58985624610233 25.588181599964017 C71.2114821505461 25.6246828939009, 70.83310805498988 25.66118418783778, 69.94363719882529 25.746990371586765 C69.31518240378554 25.767143693650638, 68.68672760874578 25.787297015714515, 68.29062557220459 25.799999237060547 C68.29062557220459 25.799999237060547, 68.29062557220459 25.799999237060547, 68.29062557220459 25.799999237060547 C38.38437787079512 25.799999237060547, 8.47813016938565 25.799999237060547, -68.29062557220459 25.799999237060547 C-68.66512051785172 25.787989913063836, -69.03961546349885 25.775980589067125, -69.94363719882527 25.746990371586765 C-70.295662393638 25.71303092441542, -70.64768758845072 25.679071477244072, -71.58985624610231 25.588181599964017 C-71.9760861882501 25.5257389381755, -72.36231613039787 25.463296276386984, -73.22251804685753 25.324225501499278 C-73.60184166969086 25.23764735990554, -73.9811652925242 25.1510692183118, -74.83491364354678 24.956206728419545 C-75.42252378137621 24.781807123940325, -76.01013391920566 24.607407519461105, -76.4204173568055 24.485637548803183 C-76.98094071595986 24.279359771213247, -77.54146407511422 24.07308199362331, -77.97251401178644 23.914451632345997 C-78.54903845114693 23.65924136503097, -79.12556289050742 23.40403109771594, -79.48482571041056 23.244996104497723 C-79.86709726872441 23.045565277382007, -80.24936882703827 22.84613445026629, -80.9511380395184 22.480021901620038 C-81.37621703002003 22.22233651953652, -81.80129602052166 21.964651137453004, -82.36542560722663 21.622672466799017 C-82.79039444278327 21.32623260371909, -83.21536327833992 21.029792740639166, -83.72187680255584 20.67647083276321 C-83.99456807570644 20.45900679904515, -84.26725934885702 20.24154276532709, -85.0149176765865 19.645305144986512 C-85.42430503858456 19.273510374615913, -85.83369240058262 18.901715604245314, -86.23923484701086 18.533412684464324 C-86.6944450251776 18.063370802056486, -87.14965520334434 17.593328919648652, -87.38979733196044 17.3453624558171 C-87.77866466351388 16.888576760996436, -88.1675319950673 16.431791066175773, -88.46187722338968 16.08603641227036 C-88.76112008232703 15.685078242879577, -89.06036294126439 15.284120073488793, -89.45106911506427 14.760609394661614 C-89.75959715683965 14.286627471115128, -90.06812519861504 13.812645547568644, -90.35330820532036 13.374527866909418 C-90.61344331694372 12.91263163468571, -90.87357842856707 12.450735402462001, -91.16488700020639 11.933487535324842 C-91.39742128482537 11.45062511787689, -91.62995556944436 10.967762700428937, -91.88247054837109 10.443409943732586 C-92.11486621510466 9.869388153836098, -92.34726188183824 9.29536636393961, -92.50311014509381 8.910418140577127 C-92.61013866330568 8.588065296401586, -92.71716718151754 8.265712452226046, -93.0242554491449 7.340811518003316 C-93.13160321024242 6.931447980124512, -93.23895097133995 6.522084442245706, -93.44376496268467 5.741039926302918 C-93.52101446058644 5.34438008126451, -93.5982639584882 4.947720236226102, -93.75991483113748 4.117677170096139 C-93.81827474321116 3.6650492165207806, -93.87663465528485 3.2124212629454223, -93.97140592687991 2.477393995158454 C-94.00594111988575 1.9394804877865823, -94.04047631289157 1.4015669804147106, -94.07736918763487 0.8269306768952934 C-94.07736918763487 0.25317169338656575, -94.07736918763487 -0.3205872901221619, -94.07736918763487 -0.8269306768952809 C-94.03722670910994 -1.452182182346578, -93.997084230585 -2.0774336877978747, -93.97140592687991 -2.4773939951584185 C-93.90348092596534 -3.0042068889432225, -93.83555592505078 -3.531019782728026, -93.75991483113748 -4.117677170096128 C-93.65889595851372 -4.636387730672794, -93.55787708588997 -5.155098291249461, -93.44376496268467 -5.741039926302906 C-93.35449559684392 -6.081462707841582, -93.26522623100317 -6.421885489380258, -93.0242554491449 -7.340811518003303 C-92.91771144624283 -7.661705079262795, -92.81116744334076 -7.982598640522287, -92.50311014509383 -8.910418140577093 C-92.26508228684112 -9.49835155241684, -92.02705442858843 -10.086284964256588, -91.88247054837109 -10.443409943732574 C-91.60797014448136 -11.013415905777348, -91.33346974059162 -11.583421867822125, -91.1648870002064 -11.933487535324831 C-90.99596830362395 -12.233419785979793, -90.8270496070415 -12.533352036634755, -90.35330820532036 -13.374527866909409 C-90.04206836711982 -13.852675837984252, -89.73082852891928 -14.330823809059094, -89.45106911506429 -14.760609394661605 C-89.24523529782205 -15.036407957919694, -89.0394014805798 -15.312206521177782, -88.46187722338968 -16.086036412270353 C-88.15612878281742 -16.44518592814566, -87.85038034224515 -16.804335444020964, -87.38979733196045 -17.345362455817092 C-87.07213137752004 -17.67337863463672, -86.75446542307962 -18.001394813456347, -86.23923484701089 -18.5334126844643 C-85.90102341932534 -18.8405673545043, -85.5628119916398 -19.147722024544304, -85.01491767658653 -19.645305144986487 C-84.51333387484004 -20.045304879173788, -84.01175007309354 -20.44530461336109, -83.72187680255585 -20.676470832763204 C-83.33989683575884 -20.94292352195455, -82.9579168689618 -21.209376211145898, -82.36542560722665 -21.622672466799 C-81.87895366964469 -21.917574614187625, -81.3924817320627 -22.212476761576248, -80.95113803951841 -22.480021901620027 C-80.56517772860299 -22.681377148605225, -80.17921741768757 -22.882732395590423, -79.48482571041058 -23.244996104497716 C-79.03244228710685 -23.445252826516814, -78.58005886380313 -23.645509548535916, -77.97251401178646 -23.91445163234599 C-77.4847222554444 -24.093963507777435, -76.99693049910233 -24.273475383208883, -76.42041735680553 -24.485637548803172 C-75.9746877612549 -24.61792775308021, -75.52895816570425 -24.750217957357247, -74.83491364354681 -24.956206728419538 C-74.25794385271458 -25.087896318097247, -73.68097406188232 -25.219585907774956, -73.22251804685754 -25.324225501499278 C-72.74960841114039 -25.40068186393303, -72.27669877542323 -25.47713822636678, -71.58985624610233 -25.588181599964017 C-70.99651564805217 -25.645420453861444, -70.403175050002 -25.70265930775887, -69.94363719882529 -25.746990371586765 C-69.40781385740414 -25.76417318322928, -68.87199051598299 -25.781355994871788, -68.2906255722046 -25.799999237060547 C-68.2906255722046 -25.799999237060547, -68.29062557220459 -25.799999237060547, -68.29062557220459 -25.799999237060547" stroke="none" stroke-width="0" fill="#ECECFF" style=""></path><path d="M-68.29062557220459 -25.799999237060547 C-21.117578011741188 -25.799999237060547, 26.055469548722215 -25.799999237060547, 68.29062557220459 -25.799999237060547 M-68.29062557220459 -25.799999237060547 C-40.347203363493634 -25.799999237060547, -12.403781154782678 -25.799999237060547, 68.29062557220459 -25.799999237060547 M68.29062557220459 -25.799999237060547 C68.29062557220459 -25.799999237060547, 68.29062557220459 -25.799999237060547, 68.29062557220459 -25.799999237060547 M68.29062557220459 -25.799999237060547 C68.29062557220459 -25.799999237060547, 68.29062557220459 -25.799999237060547, 68.29062557220459 -25.799999237060547 M68.29062557220459 -25.799999237060547 C68.84136121229065 -25.78233821702488, 69.39209685237672 -25.76467719698921, 69.94363719882529 -25.746990371586765 M68.29062557220459 -25.799999237060547 C68.78779156830547 -25.784056091240497, 69.28495756440634 -25.768112945420448, 69.94363719882529 -25.746990371586765 M69.94363719882529 -25.746990371586765 C70.43182003382613 -25.699895960619994, 70.92000286882697 -25.65280154965322, 71.58985624610231 -25.58818159996402 M69.94363719882529 -25.746990371586765 C70.34163871485217 -25.708595644002507, 70.73964023087903 -25.67020091641825, 71.58985624610231 -25.58818159996402 M71.58985624610231 -25.58818159996402 C72.11477006265963 -25.503317604870478, 72.63968387921695 -25.418453609776936, 73.22251804685753 -25.32422550149928 M71.58985624610231 -25.58818159996402 C71.98170467761712 -25.52483058438668, 72.3735531091319 -25.461479568809338, 73.22251804685753 -25.32422550149928 M73.22251804685753 -25.32422550149928 C73.76566368170356 -25.20025605470218, 74.30880931654958 -25.07628660790508, 74.83491364354678 -24.956206728419545 M73.22251804685753 -25.32422550149928 C73.70076945927057 -25.21506773749813, 74.17902087168362 -25.10590997349698, 74.83491364354678 -24.956206728419545 M74.83491364354678 -24.956206728419545 C75.35875478568673 -24.800733427130677, 75.88259592782669 -24.64526012584181, 76.42041735680552 -24.48563754880318 M74.83491364354678 -24.956206728419545 C75.38852805643494 -24.7918968766557, 75.94214246932307 -24.627587024891852, 76.42041735680552 -24.48563754880318 M76.42041735680552 -24.48563754880318 C76.92497543092858 -24.299955513442182, 77.42953350505165 -24.11427347808118, 77.97251401178644 -23.914451632345997 M76.42041735680552 -24.48563754880318 C76.84643255595284 -24.328860017475634, 77.27244775510016 -24.172082486148085, 77.97251401178644 -23.914451632345997 M77.97251401178644 -23.914451632345997 C78.41616755171394 -23.718059370734764, 78.85982109164144 -23.52166710912353, 79.48482571041056 -23.24499610449772 M77.97251401178644 -23.914451632345997 C78.32343312898932 -23.75911014880604, 78.67435224619219 -23.603768665266085, 79.48482571041056 -23.24499610449772 M79.48482571041056 -23.24499610449772 C79.91260441757932 -23.021824226973116, 80.34038312474809 -22.798652349448513, 80.9511380395184 -22.480021901620034 M79.48482571041056 -23.24499610449772 C79.9585631711953 -22.997847574649654, 80.43230063198001 -22.750699044801586, 80.9511380395184 -22.480021901620034 M80.9511380395184 -22.480021901620034 C81.43194964311442 -22.188551081957513, 81.91276124671043 -21.89708026229499, 82.36542560722664 -21.62267246679901 M80.9511380395184 -22.480021901620034 C81.46284204253524 -22.16982392788472, 81.97454604555207 -21.859625954149404, 82.36542560722664 -21.62267246679901 M82.36542560722664 -21.62267246679901 C82.823065441524 -21.30344272930231, 83.28070527582133 -20.984212991805613, 83.72187680255584 -20.67647083276321 M82.36542560722664 -21.62267246679901 C82.83678503138268 -21.293872537328365, 83.30814445553871 -20.965072607857724, 83.72187680255584 -20.67647083276321 M83.72187680255584 -20.67647083276321 C84.09663250763347 -20.377613130631932, 84.47138821271112 -20.078755428500656, 85.0149176765865 -19.64530514498651 M83.72187680255584 -20.67647083276321 C84.04582567084202 -20.418130230946414, 84.36977453912819 -20.15978962912962, 85.0149176765865 -19.64530514498651 M85.0149176765865 -19.64530514498651 C85.45354281544493 -19.24695739926051, 85.89216795430335 -18.848609653534513, 86.23923484701088 -18.533412684464313 M85.0149176765865 -19.64530514498651 C85.35215607371478 -19.339034155553644, 85.68939447084306 -19.032763166120777, 86.23923484701088 -18.533412684464313 M86.23923484701088 -18.533412684464313 C86.54818062402046 -18.214400804781896, 86.85712640103006 -17.89538892509948, 87.38979733196044 -17.345362455817106 M86.23923484701088 -18.533412684464313 C86.53190850125925 -18.23120310749897, 86.82458215550764 -17.928993530533624, 87.38979733196044 -17.345362455817106 M87.38979733196044 -17.345362455817106 C87.65925862408729 -17.028837889303038, 87.92871991621412 -16.71231332278897, 88.46187722338968 -16.086036412270357 M87.38979733196044 -17.345362455817106 C87.60881950099507 -17.088086553354565, 87.82784167002968 -16.830810650892023, 88.46187722338968 -16.086036412270357 M88.46187722338968 -16.086036412270357 C88.71978356165957 -15.740465414739468, 88.97768989992946 -15.394894417208578, 89.45106911506427 -14.76060939466161 M88.46187722338968 -16.086036412270357 C88.83799441964598 -15.582073634268378, 89.2141116159023 -15.078110856266399, 89.45106911506427 -14.76060939466161 M89.45106911506427 -14.76060939466161 C89.66627578626995 -14.429994156606964, 89.88148245747561 -14.099378918552317, 90.35330820532036 -13.374527866909407 M89.45106911506427 -14.76060939466161 C89.80438560275263 -14.217820390811054, 90.157702090441 -13.675031386960498, 90.35330820532036 -13.374527866909407 M90.35330820532036 -13.374527866909407 C90.54368912549444 -13.036487264981712, 90.73407004566852 -12.698446663054016, 91.1648870002064 -11.93348753532484 M90.35330820532036 -13.374527866909407 C90.54886925070717 -13.027289428121957, 90.74443029609398 -12.680050989334507, 91.1648870002064 -11.93348753532484 M91.1648870002064 -11.93348753532484 C91.41450172992445 -11.415157208165683, 91.66411645964251 -10.896826881006525, 91.88247054837109 -10.443409943732584 M91.1648870002064 -11.93348753532484 C91.42837811155776 -11.386342604797116, 91.69186922290913 -10.839197674269393, 91.88247054837109 -10.443409943732584 M91.88247054837109 -10.443409943732584 C92.06356889270297 -9.99609353193453, 92.24466723703485 -9.548777120136478, 92.50311014509381 -8.910418140577123 M91.88247054837109 -10.443409943732584 C92.12540733599955 -9.843351381427016, 92.368344123628 -9.243292819121447, 92.50311014509381 -8.910418140577123 M92.50311014509381 -8.910418140577123 C92.68726089686315 -8.355785416685654, 92.8714116486325 -7.801152692794185, 93.0242554491449 -7.340811518003323 M92.50311014509381 -8.910418140577123 C92.69453745707534 -8.333869576688995, 92.88596476905686 -7.757321012800867, 93.0242554491449 -7.340811518003323 M93.0242554491449 -7.340811518003323 C93.17539009708811 -6.764469603225087, 93.32652474503134 -6.188127688446851, 93.44376496268467 -5.741039926302914 M93.0242554491449 -7.340811518003323 C93.17584443752978 -6.762737006208644, 93.32743342591465 -6.184662494413964, 93.44376496268467 -5.741039926302914 M93.44376496268467 -5.741039926302914 C93.55851979217819 -5.151798130295492, 93.67327462167171 -4.562556334288069, 93.75991483113748 -4.117677170096137 M93.44376496268467 -5.741039926302914 C93.53174360279803 -5.289288203612948, 93.61972224291141 -4.837536480922982, 93.75991483113748 -4.117677170096137 M93.75991483113748 -4.117677170096137 C93.84255722075652 -3.4767191157965978, 93.92519961037554 -2.8357610614970588, 93.97140592687991 -2.4773939951584394 M93.75991483113748 -4.117677170096137 C93.82603007194288 -3.6049004183404687, 93.89214531274828 -3.0921236665848006, 93.97140592687991 -2.4773939951584394 M93.97140592687991 -2.4773939951584394 C94.00564336985688 -1.9441181848255247, 94.03988081283386 -1.4108423744926102, 94.07736918763487 -0.8269306768952902 M93.97140592687991 -2.4773939951584394 C94.00052572535054 -2.0238296289000974, 94.02964552382117 -1.5702652626417555, 94.07736918763487 -0.8269306768952902 M94.07736918763487 -0.8269306768952902 C94.07736918763487 -0.2895868310916394, 94.07736918763487 0.2477570147120114, 94.07736918763487 0.826930676895284 M94.07736918763487 -0.8269306768952902 C94.07736918763487 -0.39975043071033883, 94.07736918763487 0.02742981547461254, 94.07736918763487 0.826930676895284 M94.07736918763487 0.826930676895284 C94.03873380866565 1.428707890257452, 94.00009842969644 2.03048510361962, 93.97140592687991 2.4773939951584216 M94.07736918763487 0.826930676895284 C94.05172961206804 1.2262877622415418, 94.02609003650122 1.6256448475877994, 93.97140592687991 2.4773939951584216 M93.97140592687991 2.4773939951584216 C93.89972332070269 3.0333501333372657, 93.82804071452547 3.5893062715161097, 93.75991483113748 4.117677170096119 M93.97140592687991 2.4773939951584216 C93.90437918741495 2.9972401505219235, 93.83735244794998 3.5170863058854254, 93.75991483113748 4.117677170096119 M93.75991483113748 4.117677170096119 C93.67724066878498 4.542191520585806, 93.59456650643247 4.966705871075493, 93.44376496268467 5.741039926302909 M93.75991483113748 4.117677170096119 C93.63357495751977 4.76640571918131, 93.50723508390206 5.4151342682665, 93.44376496268467 5.741039926302909 M93.44376496268467 5.741039926302909 C93.3247510524512 6.194891546978073, 93.20573714221774 6.648743167653237, 93.0242554491449 7.340811518003306 M93.44376496268467 5.741039926302909 C93.29280251346947 6.316725172699802, 93.14184006425428 6.892410419096695, 93.0242554491449 7.340811518003306 M93.0242554491449 7.340811518003306 C92.84016279229017 7.895269269268159, 92.65607013543543 8.449727020533013, 92.50311014509383 8.910418140577105 M93.0242554491449 7.340811518003306 C92.91927685701927 7.656990311418519, 92.81429826489362 7.973169104833731, 92.50311014509383 8.910418140577105 M92.50311014509383 8.910418140577105 C92.29929906022912 9.4138354606122, 92.0954879753644 9.917252780647294, 91.88247054837109 10.443409943732577 M92.50311014509383 8.910418140577105 C92.3320587456676 9.332918404213737, 92.16100734624136 9.755418667850368, 91.88247054837109 10.443409943732577 M91.88247054837109 10.443409943732577 C91.64632348355576 10.93377437655936, 91.41017641874043 11.424138809386143, 91.1648870002064 11.933487535324835 M91.88247054837109 10.443409943732577 C91.72315383294855 10.774234512139092, 91.56383711752602 11.105059080545608, 91.1648870002064 11.933487535324835 M91.1648870002064 11.933487535324835 C90.88048057060865 12.438479950349524, 90.5960741410109 12.943472365374216, 90.35330820532037 13.374527866909402 M91.1648870002064 11.933487535324835 C90.86430754111575 12.467196801911003, 90.5637280820251 13.000906068497171, 90.35330820532037 13.374527866909402 M90.35330820532037 13.374527866909402 C90.0694736495316 13.810573964851024, 89.78563909374283 14.246620062792646, 89.45106911506429 14.760609394661596 M90.35330820532037 13.374527866909402 C90.15456425732525 13.679851941252483, 89.95582030933012 13.985176015595567, 89.45106911506429 14.760609394661596 M89.45106911506429 14.760609394661596 C89.24829356415125 15.032310159652344, 89.04551801323822 15.30401092464309, 88.46187722338968 16.086036412270353 M89.45106911506429 14.760609394661596 C89.08070309582007 15.256866119410372, 88.71033707657585 15.753122844159149, 88.46187722338968 16.086036412270353 M88.46187722338968 16.086036412270353 C88.11017289128691 16.499168333301704, 87.75846855918412 16.91230025433305, 87.38979733196045 17.345362455817092 M88.46187722338968 16.086036412270353 C88.22596692986386 16.363150066721758, 87.99005663633804 16.64026372117316, 87.38979733196045 17.345362455817092 M87.38979733196045 17.345362455817092 C86.98542528040672 17.762909798609186, 86.58105322885298 18.180457141401277, 86.23923484701088 18.533412684464306 M87.38979733196045 17.345362455817092 C87.1024939340672 17.642026802189516, 86.81519053617394 17.938691148561944, 86.23923484701088 18.533412684464306 M86.23923484701088 18.533412684464306 C85.94129113471236 18.803997280815185, 85.64334742241383 19.07458187716606, 85.01491767658653 19.64530514498649 M86.23923484701088 18.533412684464306 C85.74964090129953 18.978048952013406, 85.26004695558818 19.422685219562506, 85.01491767658653 19.64530514498649 M85.01491767658653 19.64530514498649 C84.60769387026336 19.970055293848628, 84.20047006394017 20.294805442710764, 83.72187680255584 20.676470832763208 M85.01491767658653 19.64530514498649 C84.66924378175301 19.920970877347557, 84.3235698869195 20.196636609708623, 83.72187680255584 20.676470832763208 M83.72187680255584 20.676470832763208 C83.35408406171238 20.93302712728446, 82.98629132086893 21.189583421805715, 82.36542560722665 21.622672466799003 M83.72187680255584 20.676470832763208 C83.29397079820508 20.97495953764592, 82.86606479385432 21.273448242528634, 82.36542560722665 21.622672466799003 M82.36542560722665 21.622672466799003 C81.99536782667668 21.847003668069306, 81.6253100461267 22.07133486933961, 80.95113803951841 22.48002190162003 M82.36542560722665 21.622672466799003 C81.82628299733943 21.9495038852663, 81.2871403874522 22.276335303733596, 80.95113803951841 22.48002190162003 M80.95113803951841 22.48002190162003 C80.44202495566445 22.745625871364147, 79.93291187181049 23.011229841108268, 79.48482571041058 23.244996104497716 M80.95113803951841 22.48002190162003 C80.51495911022512 22.7075761696464, 80.07878018093184 22.93513043767277, 79.48482571041058 23.244996104497716 M79.48482571041058 23.244996104497716 C78.89747318010636 23.504999646469628, 78.31012064980214 23.765003188441536, 77.97251401178644 23.914451632345994 M79.48482571041058 23.244996104497716 C78.88135298565 23.51213557836688, 78.2778802608894 23.779275052236045, 77.97251401178644 23.914451632345994 M77.97251401178644 23.914451632345994 C77.54994721146869 24.06996012102761, 77.12738041115094 24.225468609709228, 76.42041735680553 24.485637548803172 M77.97251401178644 23.914451632345994 C77.61378919445421 24.046465681140113, 77.255064377122 24.17847972993423, 76.42041735680553 24.485637548803172 M76.42041735680553 24.485637548803172 C75.85754186554503 24.65269604001554, 75.29466637428455 24.81975453122791, 74.83491364354681 24.95620672841954 M76.42041735680553 24.485637548803172 C75.8967734617345 24.64105230819736, 75.37312956666347 24.796467067591546, 74.83491364354681 24.95620672841954 M74.83491364354681 24.95620672841954 C74.42269566503903 25.050292792040242, 74.01047768653125 25.144378855660943, 73.22251804685754 25.324225501499278 M74.83491364354681 24.95620672841954 C74.31506191060353 25.074859494114257, 73.79521017766024 25.193512259808973, 73.22251804685754 25.324225501499278 M73.22251804685754 25.324225501499278 C72.70756026565314 25.407479882007166, 72.19260248444874 25.49073426251506, 71.58985624610233 25.588181599964017 M73.22251804685754 25.324225501499278 C72.60644626834396 25.423827208941358, 71.99037448983039 25.523428916383434, 71.58985624610233 25.588181599964017 M71.58985624610233 25.588181599964017 C71.07049766133535 25.638283498016403, 70.55113907656838 25.688385396068792, 69.94363719882529 25.746990371586765 M71.58985624610233 25.588181599964017 C71.24408004614645 25.621538214117038, 70.89830384619057 25.65489482827006, 69.94363719882529 25.746990371586765 M69.94363719882529 25.746990371586765 C69.55469412244163 25.759463019014618, 69.16575104605796 25.77193566644247, 68.29062557220459 25.799999237060547 M69.94363719882529 25.746990371586765 C69.3504768204286 25.76601187040531, 68.75731644203192 25.785033369223857, 68.29062557220459 25.799999237060547 M68.29062557220459 25.799999237060547 C68.29062557220459 25.799999237060547, 68.29062557220459 25.799999237060547, 68.29062557220459 25.799999237060547 M68.29062557220459 25.799999237060547 C68.29062557220459 25.799999237060547, 68.29062557220459 25.799999237060547, 68.29062557220459 25.799999237060547 M68.29062557220459 25.799999237060547 C33.23138982986282 25.799999237060547, -1.8278459124789492 25.799999237060547, -68.29062557220459 25.799999237060547 M68.29062557220459 25.799999237060547 C23.919095060729873 25.799999237060547, -20.452435450744844 25.799999237060547, -68.29062557220459 25.799999237060547 M-68.29062557220459 25.799999237060547 C-68.95092804562104 25.778824621938877, -69.6112305190375 25.757650006817208, -69.94363719882527 25.746990371586765 M-68.29062557220459 25.799999237060547 C-68.63652109188219 25.788907040989272, -68.98241661155977 25.777814844917998, -69.94363719882527 25.746990371586765 M-69.94363719882527 25.746990371586765 C-70.48809182315921 25.694467488779758, -71.03254644749316 25.641944605972746, -71.58985624610231 25.588181599964017 M-69.94363719882527 25.746990371586765 C-70.44104464117126 25.69900607384362, -70.93845208351723 25.651021776100475, -71.58985624610231 25.588181599964017 M-71.58985624610231 25.588181599964017 C-72.0453566606365 25.5145398254006, -72.50085707517069 25.440898050837188, -73.22251804685753 25.324225501499278 M-71.58985624610231 25.588181599964017 C-71.96243543383821 25.527945886285632, -72.3350146215741 25.467710172607248, -73.22251804685753 25.324225501499278 M-73.22251804685753 25.324225501499278 C-73.55912821954088 25.247396426170962, -73.89573839222425 25.170567350842642, -74.83491364354678 24.956206728419545 M-73.22251804685753 25.324225501499278 C-73.82939001894708 25.18571093407956, -74.43626199103663 25.047196366659836, -74.83491364354678 24.956206728419545 M-74.83491364354678 24.956206728419545 C-75.22856821120548 24.839372119073435, -75.62222277886418 24.722537509727324, -76.4204173568055 24.485637548803183 M-74.83491364354678 24.956206728419545 C-75.36269400814602 24.79956428658216, -75.89047437274525 24.642921844744777, -76.4204173568055 24.485637548803183 M-76.4204173568055 24.485637548803183 C-76.88009279270128 24.31647273920039, -77.33976822859705 24.147307929597595, -77.97251401178644 23.914451632345997 M-76.4204173568055 24.485637548803183 C-76.77226076819036 24.35615592100871, -77.12410417957524 24.226674293214238, -77.97251401178644 23.914451632345997 M-77.97251401178644 23.914451632345997 C-78.40795848730387 23.721693280035854, -78.8434029628213 23.528934927725714, -79.48482571041056 23.244996104497723 M-77.97251401178644 23.914451632345997 C-78.55868097906877 23.6549729039554, -79.14484794635109 23.3954941755648, -79.48482571041056 23.244996104497723 M-79.48482571041056 23.244996104497723 C-79.84523878583609 23.056968833903817, -80.20565186126163 22.868941563309907, -80.9511380395184 22.480021901620038 M-79.48482571041056 23.244996104497723 C-79.89439697977882 23.031323035611223, -80.30396824914708 22.817649966724723, -80.9511380395184 22.480021901620038 M-80.9511380395184 22.480021901620038 C-81.45640281922711 22.173727422895187, -81.96166759893582 21.867432944170332, -82.36542560722663 21.622672466799017 M-80.9511380395184 22.480021901620038 C-81.46054212898025 22.17121814899755, -81.96994621844209 21.862414396375062, -82.36542560722663 21.622672466799017 M-82.36542560722663 21.622672466799017 C-82.7824664914293 21.331762799388137, -83.19950737563198 21.04085313197726, -83.72187680255584 20.67647083276321 M-82.36542560722663 21.622672466799017 C-82.75170496346954 21.353220709647786, -83.13798431971246 21.083768952496552, -83.72187680255584 20.67647083276321 M-83.72187680255584 20.67647083276321 C-84.02931360891866 20.43129816092587, -84.33675041528149 20.18612548908853, -85.0149176765865 19.645305144986512 M-83.72187680255584 20.67647083276321 C-84.1654237972412 20.32275390778287, -84.60897079192657 19.96903698280253, -85.0149176765865 19.645305144986512 M-85.0149176765865 19.645305144986512 C-85.37942573596351 19.31426856981507, -85.74393379534052 18.983231994643628, -86.23923484701086 18.533412684464324 M-85.0149176765865 19.645305144986512 C-85.33779210909844 19.35207912816853, -85.66066654161037 19.058853111350544, -86.23923484701086 18.533412684464324 M-86.23923484701086 18.533412684464324 C-86.60334907942438 18.157434845162935, -86.96746331183788 17.781457005861547, -87.38979733196044 17.3453624558171 M-86.23923484701086 18.533412684464324 C-86.68859391053604 18.06941255830934, -87.13795297406122 17.605412432154356, -87.38979733196044 17.3453624558171 M-87.38979733196044 17.3453624558171 C-87.76661341092087 16.902732848027878, -88.1434294898813 16.460103240238656, -88.46187722338968 16.08603641227036 M-87.38979733196044 17.3453624558171 C-87.60617403101145 17.091194072928825, -87.82255073006245 16.837025690040555, -88.46187722338968 16.08603641227036 M-88.46187722338968 16.08603641227036 C-88.82983825138243 15.593002156699336, -89.19779927937518 15.099967901128313, -89.45106911506427 14.760609394661614 M-88.46187722338968 16.08603641227036 C-88.67052132878804 15.806472318905582, -88.8791654341864 15.526908225540804, -89.45106911506427 14.760609394661614 M-89.45106911506427 14.760609394661614 C-89.7732627424241 14.265633461933875, -90.09545636978393 13.770657529206137, -90.35330820532036 13.374527866909418 M-89.45106911506427 14.760609394661614 C-89.65235596043948 14.451378747079177, -89.85364280581467 14.142148099496742, -90.35330820532036 13.374527866909418 M-90.35330820532036 13.374527866909418 C-90.58055616053129 12.971026111081676, -90.80780411574221 12.567524355253934, -91.16488700020639 11.933487535324842 M-90.35330820532036 13.374527866909418 C-90.66925785408425 12.813527272157934, -90.98520750284816 12.252526677406449, -91.16488700020639 11.933487535324842 M-91.16488700020639 11.933487535324842 C-91.41727400587031 11.409400517846892, -91.66966101153425 10.885313500368941, -91.88247054837109 10.443409943732586 M-91.16488700020639 11.933487535324842 C-91.35346462504522 11.541902062432237, -91.54204224988405 11.150316589539633, -91.88247054837109 10.443409943732586 M-91.88247054837109 10.443409943732586 C-92.07249025102566 9.974057604394785, -92.26250995368021 9.504705265056984, -92.50311014509381 8.910418140577127 M-91.88247054837109 10.443409943732586 C-92.11930210736888 9.858431414181336, -92.35613366636667 9.273452884630085, -92.50311014509381 8.910418140577127 M-92.50311014509381 8.910418140577127 C-92.6843202718739 8.364642110628335, -92.86553039865399 7.818866080679542, -93.0242554491449 7.340811518003316 M-92.50311014509381 8.910418140577127 C-92.65800083226915 8.443912069284616, -92.81289151944448 7.977405997992106, -93.0242554491449 7.340811518003316 M-93.0242554491449 7.340811518003316 C-93.1705447250948 6.782947106633086, -93.31683400104471 6.2250826952628575, -93.44376496268467 5.741039926302918 M-93.0242554491449 7.340811518003316 C-93.11370809885763 6.999689795625055, -93.20316074857035 6.658568073246794, -93.44376496268467 5.741039926302918 M-93.44376496268467 5.741039926302918 C-93.56608655348106 5.112944410240832, -93.68840814427745 4.4848488941787465, -93.75991483113748 4.117677170096139 M-93.44376496268467 5.741039926302918 C-93.55476966389158 5.171054246457386, -93.66577436509847 4.601068566611853, -93.75991483113748 4.117677170096139 M-93.75991483113748 4.117677170096139 C-93.8280458822184 3.589266191910253, -93.89617693329933 3.0608552137243663, -93.97140592687991 2.477393995158454 M-93.75991483113748 4.117677170096139 C-93.82998080986656 3.574259275165931, -93.90004678859562 3.0308413802357226, -93.97140592687991 2.477393995158454 M-93.97140592687991 2.477393995158454 C-94.007377130583 1.917113462049934, -94.04334833428607 1.3568329289414138, -94.07736918763487 0.8269306768952934 M-93.97140592687991 2.477393995158454 C-94.00842741492704 1.9007544356169892, -94.04544890297419 1.3241148760755246, -94.07736918763487 0.8269306768952934 M-94.07736918763487 0.8269306768952934 C-94.07736918763487 0.4333325505194511, -94.07736918763487 0.039734424143608726, -94.07736918763487 -0.8269306768952809 M-94.07736918763487 0.8269306768952934 C-94.07736918763487 0.28375798086941517, -94.07736918763487 -0.2594147151564631, -94.07736918763487 -0.8269306768952809 M-94.07736918763487 -0.8269306768952809 C-94.05130979717171 -1.232826718120379, -94.02525040670855 -1.6387227593454767, -93.97140592687991 -2.4773939951584185 M-94.07736918763487 -0.8269306768952809 C-94.04360498976705 -1.352835312656704, -94.00984079189921 -1.8787399484181273, -93.97140592687991 -2.4773939951584185 M-93.97140592687991 -2.4773939951584185 C-93.9001957939262 -3.0296857243161104, -93.82898566097249 -3.5819774534738023, -93.75991483113748 -4.117677170096128 M-93.97140592687991 -2.4773939951584185 C-93.90436595002875 -2.9973428170752, -93.8373259731776 -3.5172916389919817, -93.75991483113748 -4.117677170096128 M-93.75991483113748 -4.117677170096128 C-93.68419242683908 -4.506495712232573, -93.60847002254069 -4.895314254369017, -93.44376496268467 -5.741039926302906 M-93.75991483113748 -4.117677170096128 C-93.65212195597955 -4.67117080199983, -93.54432908082163 -5.2246644339035315, -93.44376496268467 -5.741039926302906 M-93.44376496268467 -5.741039926302906 C-93.32057440505521 -6.210818913669451, -93.19738384742574 -6.680597901035995, -93.0242554491449 -7.340811518003303 M-93.44376496268467 -5.741039926302906 C-93.30367789928317 -6.275252613170152, -93.16359083588168 -6.809465300037397, -93.0242554491449 -7.340811518003303 M-93.0242554491449 -7.340811518003303 C-92.86747262334724 -7.813016409354916, -92.71068979754958 -8.28522130070653, -92.50311014509383 -8.910418140577093 M-93.0242554491449 -7.340811518003303 C-92.89120226394743 -7.741546512671931, -92.75814907874997 -8.14228150734056, -92.50311014509383 -8.910418140577093 M-92.50311014509383 -8.910418140577093 C-92.30424208188022 -9.401626101567166, -92.1053740186666 -9.892834062557236, -91.88247054837109 -10.443409943732574 M-92.50311014509383 -8.910418140577093 C-92.33756736171523 -9.319312016074235, -92.17202457833662 -9.728205891571378, -91.88247054837109 -10.443409943732574 M-91.88247054837109 -10.443409943732574 C-91.60606095943807 -11.017380369369768, -91.32965137050503 -11.591350795006962, -91.1648870002064 -11.933487535324831 M-91.88247054837109 -10.443409943732574 C-91.70917352351721 -10.803264923803997, -91.53587649866331 -11.163119903875419, -91.1648870002064 -11.933487535324831 M-91.1648870002064 -11.933487535324831 C-90.90577570382409 -12.393565879915515, -90.64666440744179 -12.8536442245062, -90.35330820532036 -13.374527866909409 M-91.1648870002064 -11.933487535324831 C-90.97057056476702 -12.278516043120222, -90.77625412932763 -12.62354455091561, -90.35330820532036 -13.374527866909409 M-90.35330820532036 -13.374527866909409 C-90.1586079793315 -13.673639698359466, -89.96390775334265 -13.972751529809525, -89.45106911506429 -14.760609394661605 M-90.35330820532036 -13.374527866909409 C-89.99569161042422 -13.923922990171576, -89.63807501552807 -14.473318113433743, -89.45106911506429 -14.760609394661605 M-89.45106911506429 -14.760609394661605 C-89.23382744840386 -15.051693436863596, -89.01658578174344 -15.342777479065587, -88.46187722338968 -16.086036412270353 M-89.45106911506429 -14.760609394661605 C-89.07187279772843 -15.268697914396475, -88.69267648039256 -15.776786434131344, -88.46187722338968 -16.086036412270353 M-88.46187722338968 -16.086036412270353 C-88.20481250161006 -16.38799926186973, -87.94774777983046 -16.689962111469107, -87.38979733196045 -17.345362455817092 M-88.46187722338968 -16.086036412270353 C-88.11934849217549 -16.48839015039149, -87.77681976096129 -16.890743888512628, -87.38979733196045 -17.345362455817092 M-87.38979733196045 -17.345362455817092 C-86.9412800088853 -17.808493415849238, -86.49276268581016 -18.271624375881384, -86.23923484701089 -18.5334126844643 M-87.38979733196045 -17.345362455817092 C-87.05559319530586 -17.690455665582867, -86.72138905865127 -18.035548875348642, -86.23923484701089 -18.5334126844643 M-86.23923484701089 -18.5334126844643 C-85.82206408251962 -18.91227613504169, -85.40489331802836 -19.291139585619078, -85.01491767658653 -19.645305144986487 M-86.23923484701089 -18.5334126844643 C-85.80578094494646 -18.927064049757423, -85.37232704288203 -19.32071541505055, -85.01491767658653 -19.645305144986487 M-85.01491767658653 -19.645305144986487 C-84.53452004686785 -20.028409470769322, -84.05412241714916 -20.411513796552157, -83.72187680255585 -20.676470832763204 M-85.01491767658653 -19.645305144986487 C-84.61336797312934 -19.965530347807224, -84.21181826967214 -20.28575555062796, -83.72187680255585 -20.676470832763204 M-83.72187680255585 -20.676470832763204 C-83.35758318288468 -20.93058629182919, -82.9932895632135 -21.184701750895176, -82.36542560722665 -21.622672466799 M-83.72187680255585 -20.676470832763204 C-83.27480944633635 -20.988325667228, -82.82774209011683 -21.3001805016928, -82.36542560722665 -21.622672466799 M-82.36542560722665 -21.622672466799 C-82.0617431504152 -21.806766556754315, -81.75806069360374 -21.990860646709628, -80.95113803951841 -22.480021901620027 M-82.36542560722665 -21.622672466799 C-82.02893151629515 -21.826657162180453, -81.69243742536364 -22.030641857561907, -80.95113803951841 -22.480021901620027 M-80.95113803951841 -22.480021901620027 C-80.60713352734115 -22.6594888352775, -80.26312901516388 -22.83895576893497, -79.48482571041058 -23.244996104497716 M-80.95113803951841 -22.480021901620027 C-80.5626973250555 -22.682671173547178, -80.17425661059258 -22.88532044547433, -79.48482571041058 -23.244996104497716 M-79.48482571041058 -23.244996104497716 C-78.9006754883629 -23.50358207959756, -78.31652526631521 -23.762168054697405, -77.97251401178646 -23.91445163234599 M-79.48482571041058 -23.244996104497716 C-79.04026969051833 -23.441787867218224, -78.5957136706261 -23.638579629938732, -77.97251401178646 -23.91445163234599 M-77.97251401178646 -23.91445163234599 C-77.4748911338929 -24.097581451386276, -76.97726825599935 -24.280711270426565, -76.42041735680553 -24.485637548803172 M-77.97251401178646 -23.91445163234599 C-77.55773634953995 -24.067093646215387, -77.14295868729344 -24.21973566008478, -76.42041735680553 -24.485637548803172 M-76.42041735680553 -24.485637548803172 C-75.79450865087576 -24.671403967261288, -75.16859994494598 -24.857170385719403, -74.83491364354681 -24.956206728419538 M-76.42041735680553 -24.485637548803172 C-76.02287100247499 -24.60362722000508, -75.62532464814443 -24.721616891206992, -74.83491364354681 -24.956206728419538 M-74.83491364354681 -24.956206728419538 C-74.20575559649866 -25.09980794701833, -73.57659754945053 -25.24340916561712, -73.22251804685754 -25.324225501499278 M-74.83491364354681 -24.956206728419538 C-74.33115084363926 -25.07118730013895, -73.82738804373172 -25.18616787185836, -73.22251804685754 -25.324225501499278 M-73.22251804685754 -25.324225501499278 C-72.76822726285366 -25.39767171237938, -72.31393647884977 -25.47111792325948, -71.58985624610233 -25.588181599964017 M-73.22251804685754 -25.324225501499278 C-72.7951806370819 -25.393314099860696, -72.36784322730625 -25.462402698222114, -71.58985624610233 -25.588181599964017 M-71.58985624610233 -25.588181599964017 C-70.99924668057692 -25.645156994438327, -70.40863711505152 -25.70213238891264, -69.94363719882529 -25.746990371586765 M-71.58985624610233 -25.588181599964017 C-71.09765901589833 -25.63566327480802, -70.60546178569432 -25.68314494965203, -69.94363719882529 -25.746990371586765 M-69.94363719882529 -25.746990371586765 C-69.29281886295061 -25.767860848877223, -68.64200052707594 -25.78873132616768, -68.2906255722046 -25.799999237060547 M-69.94363719882529 -25.746990371586765 C-69.29003320513337 -25.76795017950147, -68.63642921144145 -25.788909987416172, -68.2906255722046 -25.799999237060547 M-68.2906255722046 -25.799999237060547 C-68.2906255722046 -25.799999237060547, -68.2906255722046 -25.799999237060547, -68.29062557220459 -25.799999237060547 M-68.2906255722046 -25.799999237060547 C-68.2906255722046 -25.799999237060547, -68.2906255722046 -25.799999237060547, -68.29062557220459 -25.799999237060547" stroke="#9370DB" stroke-width="1.3" fill="none" stroke-dasharray="0 0" style=""></path></g><g class="label" style="" transform="translate(0, -18.299999237060547)"><rect></rect><g><rect class="background" style="stroke: none"></rect><text y="-10.1" style=""><tspan class="text-outer-tspan row" x="0" y="-0.1em" dy="1.1em"><tspan font-style="normal" class="text-inner-tspan" font-weight="normal">Request</tspan><tspan font-style="normal" class="text-inner-tspan" font-weight="normal"> entered</tspan><tspan font-style="normal" class="text-inner-tspan" font-weight="normal"> fetch</tspan></tspan><tspan class="text-outer-tspan row" x="0" y="1em" dy="1.1em"><tspan font-style="normal" class="text-inner-tspan" font-weight="normal">handler</tspan></tspan></text></g></g></g><g class="node default" id="gd836d08e-00be-4445-a494-6f03ed0e3267-light-flowchart-Mut-1" data-look="classic" transform="translate(276.0835952758789, 213.32186889648438)"><polygon points="103.72187423706055,0 207.4437484741211,-103.72187423706055 103.72187423706055,-207.4437484741211 0,-103.72187423706055" class="label-container" transform="translate(-103.22187423706055, 103.72187423706055)"></polygon><g class="label" style="" transform="translate(0, -18.299999237060547)"><rect></rect><g><rect class="background" style="stroke: none"></rect><text y="-10.1" style=""><tspan class="text-outer-tspan row" x="0" y="-0.1em" dy="1.1em"><tspan font-style="normal" class="text-inner-tspan" font-weight="normal">Mutating</tspan><tspan font-style="normal" class="text-inner-tspan" font-weight="normal"> method</tspan></tspan><tspan class="text-outer-tspan row" x="0" y="1em" dy="1.1em"><tspan font-style="normal" class="text-inner-tspan" font-weight="normal">POST/PUT/DELETE?</tspan></tspan></text></g></g></g><g class="node default" id="gd836d08e-00be-4445-a494-6f03ed0e3267-light-flowchart-NetOnly-3" data-look="classic" transform="translate(135, 495.21092987060547)"><rect class="basic label-container" style="" x="-127" y="-42.099998474121094" width="254" height="84.19999694824219"></rect><g class="label" style="" transform="translate(0, -27.099998474121094)"><rect></rect><g><rect class="background" style="stroke: none"></rect><text y="-10.1" style=""><tspan class="text-outer-tspan row" x="0" y="-0.1em" dy="1.1em"><tspan font-style="normal" class="text-inner-tspan" font-weight="normal">Network-only</tspan></tspan><tspan class="text-outer-tspan row" x="0" y="1em" dy="1.1em"><tspan font-style="normal" class="text-inner-tspan" font-weight="normal">queue</tspan><tspan font-style="normal" class="text-inner-tspan" font-weight="normal"> for</tspan><tspan font-style="normal" class="text-inner-tspan" font-weight="normal"> Background</tspan><tspan font-style="normal" class="text-inner-tspan" font-weight="normal"> Sync</tspan></tspan><tspan class="text-outer-tspan row" x="0" y="2.1em" dy="1.1em"><tspan font-style="normal" class="text-inner-tspan" font-weight="normal">if</tspan><tspan font-style="normal" class="text-inner-tspan" font-weight="normal"> a</tspan><tspan font-style="normal" class="text-inner-tspan" font-weight="normal"> write</tspan><tspan font-style="normal" class="text-inner-tspan" font-weight="normal"> may</tspan><tspan font-style="normal" class="text-inner-tspan" font-weight="normal"> retry</tspan></tspan></text></g></g></g><g class="node default" id="gd836d08e-00be-4445-a494-6f03ed0e3267-light-flowchart-Vers-5" data-look="classic" transform="translate(417.1671905517578, 495.21092987060547)"><polygon points="105.16718673706055,0 210.3343734741211,-105.16718673706055 105.16718673706055,-210.3343734741211 0,-105.16718673706055" class="label-container" transform="translate(-104.66718673706055, 105.16718673706055)"></polygon><g class="label" style="" transform="translate(0, -18.299999237060547)"><rect></rect><g><rect class="background" style="stroke: none"></rect><text y="-10.1" style=""><tspan class="text-outer-tspan row" x="0" y="-0.1em" dy="1.1em"><tspan font-style="normal" class="text-inner-tspan" font-weight="normal">Versioned</tspan><tspan font-style="normal" class="text-inner-tspan" font-weight="normal"> URL</tspan></tspan><tspan class="text-outer-tspan row" x="0" y="1em" dy="1.1em"><tspan font-style="normal" class="text-inner-tspan" font-weight="normal">or</tspan><tspan font-style="normal" class="text-inner-tspan" font-weight="normal"> immutable</tspan><tspan font-style="normal" class="text-inner-tspan" font-weight="normal"> asset?</tspan></tspan></text></g></g></g><g class="node default" id="gd836d08e-00be-4445-a494-6f03ed0e3267-light-flowchart-CacheFirst-7" data-look="classic" transform="translate(305.7984390258789, 761.6859359741211)"><rect class="basic label-container" style="" x="-84.4296875" y="-33.29999923706055" width="168.859375" height="66.5999984741211"></rect><g class="label" style="" transform="translate(0, -18.299999237060547)"><rect></rect><g><rect class="background" style="stroke: none"></rect><text y="-10.1" style=""><tspan class="text-outer-tspan row" x="0" y="-0.1em" dy="1.1em"><tspan font-style="normal" class="text-inner-tspan" font-weight="normal">Cache-first</tspan></tspan><tspan class="text-outer-tspan row" x="0" y="1em" dy="1.1em"><tspan font-style="normal" class="text-inner-tspan" font-weight="normal">+</tspan><tspan font-style="normal" class="text-inner-tspan" font-weight="normal"> long</tspan><tspan font-style="normal" class="text-inner-tspan" font-weight="normal"> max-age</tspan></tspan></text></g></g></g><g class="node default" id="gd836d08e-00be-4445-a494-6f03ed0e3267-light-flowchart-Stale-9" data-look="classic" transform="translate(528.5359420776367, 761.6859359741211)"><polygon points="88.30781173706055,0 176.6156234741211,-88.30781173706055 88.30781173706055,-176.6156234741211 0,-88.30781173706055" class="label-container" transform="translate(-87.80781173706055, 88.30781173706055)"></polygon><g class="label" style="" transform="translate(0, -18.299999237060547)"><rect></rect><g><rect class="background" style="stroke: none"></rect><text y="-10.1" style=""><tspan class="text-outer-tspan row" x="0" y="-0.1em" dy="1.1em"><tspan font-style="normal" class="text-inner-tspan" font-weight="normal">Slight</tspan><tspan font-style="normal" class="text-inner-tspan" font-weight="normal"> staleness</tspan></tspan><tspan class="text-outer-tspan row" x="0" y="1em" dy="1.1em"><tspan font-style="normal" class="text-inner-tspan" font-weight="normal">acceptable?</tspan></tspan></text></g></g></g><g class="node default" id="gd836d08e-00be-4445-a494-6f03ed0e3267-light-flowchart-SWR-11" data-look="classic" transform="translate(389.2687568664551, 1038.1374969482422)"><rect class="basic label-container" style="" x="-113.390625" y="-42.099998474121094" width="226.78125" height="84.19999694824219"></rect><g class="label" style="" transform="translate(0, -27.099998474121094)"><rect></rect><g><rect class="background" style="stroke: none"></rect><text y="-10.1" style=""><tspan class="text-outer-tspan row" x="0" y="-0.1em" dy="1.1em"><tspan font-style="normal" class="text-inner-tspan" font-weight="normal">Stale-while-revalidate</tspan></tspan><tspan class="text-outer-tspan row" x="0" y="1em" dy="1.1em"><tspan font-style="normal" class="text-inner-tspan" font-weight="normal">cache</tspan><tspan font-style="normal" class="text-inner-tspan" font-weight="normal"> hit</tspan><tspan font-style="normal" class="text-inner-tspan" font-weight="normal"> +</tspan><tspan font-style="normal" class="text-inner-tspan" font-weight="normal"> background</tspan></tspan><tspan class="text-outer-tspan row" x="0" y="2.1em" dy="1.1em"><tspan font-style="normal" class="text-inner-tspan" font-weight="normal">revalidate</tspan></tspan></text></g></g></g><g class="node default" id="gd836d08e-00be-4445-a494-6f03ed0e3267-light-flowchart-Fresh-13" data-look="classic" transform="translate(667.8031272888184, 1038.1374969482422)"><polygon points="115.14374923706055,0 230.2874984741211,-115.14374923706055 115.14374923706055,-230.2874984741211 0,-115.14374923706055" class="label-container" transform="translate(-114.64374923706055, 115.14374923706055)"></polygon><g class="label" style="" transform="translate(0, -18.299999237060547)"><rect></rect><g><rect class="background" style="stroke: none"></rect><text y="-10.1" style=""><tspan class="text-outer-tspan row" x="0" y="-0.1em" dy="1.1em"><tspan font-style="normal" class="text-inner-tspan" font-weight="normal">Freshness</tspan><tspan font-style="normal" class="text-inner-tspan" font-weight="normal"> critical?</tspan></tspan><tspan class="text-outer-tspan row" x="0" y="1em" dy="1.1em"><tspan font-style="normal" class="text-inner-tspan" font-weight="normal">HTML</tspan><tspan font-style="normal" class="text-inner-tspan" font-weight="normal"> /</tspan><tspan font-style="normal" class="text-inner-tspan" font-weight="normal"> API</tspan><tspan font-style="normal" class="text-inner-tspan" font-weight="normal"> /</tspan><tspan font-style="normal" class="text-inner-tspan" font-weight="normal"> user</tspan><tspan font-style="normal" class="text-inner-tspan" font-weight="normal"> data</tspan></tspan></text></g></g></g><g class="node default" id="gd836d08e-00be-4445-a494-6f03ed0e3267-light-flowchart-NetFirst-15" data-look="classic" transform="translate(527.9789085388184, 1268.3812408447266)"><rect class="basic label-container" style="" x="-117.3046875" y="-42.099998474121094" width="234.609375" height="84.19999694824219"></rect><g class="label" style="" transform="translate(0, -27.099998474121094)"><rect></rect><g><rect class="background" style="stroke: none"></rect><text y="-10.1" style=""><tspan class="text-outer-tspan row" x="0" y="-0.1em" dy="1.1em"><tspan font-style="normal" class="text-inner-tspan" font-weight="normal">Network-first</tspan></tspan><tspan class="text-outer-tspan row" x="0" y="1em" dy="1.1em"><tspan font-style="normal" class="text-inner-tspan" font-weight="normal">with</tspan><tspan font-style="normal" class="text-inner-tspan" font-weight="normal"> timeout</tspan><tspan font-style="normal" class="text-inner-tspan" font-weight="normal"> fallback</tspan><tspan font-style="normal" class="text-inner-tspan" font-weight="normal"> to</tspan></tspan><tspan class="text-outer-tspan row" x="0" y="2.1em" dy="1.1em"><tspan font-style="normal" class="text-inner-tspan" font-weight="normal">cache</tspan></tspan></text></g></g></g><g class="node default" id="gd836d08e-00be-4445-a494-6f03ed0e3267-light-flowchart-CacheOnly-17" data-look="classic" transform="translate(807.6273460388184, 1268.3812408447266)"><rect class="basic label-container" style="" x="-112.34375" y="-33.29999923706055" width="224.6875" height="66.5999984741211"></rect><g class="label" style="" transform="translate(0, -18.299999237060547)"><rect></rect><g><rect class="background" style="stroke: none"></rect><text y="-10.1" style=""><tspan class="text-outer-tspan row" x="0" y="-0.1em" dy="1.1em"><tspan font-style="normal" class="text-inner-tspan" font-weight="normal">Cache-only</tspan></tspan><tspan class="text-outer-tspan row" x="0" y="1em" dy="1.1em"><tspan font-style="normal" class="text-inner-tspan" font-weight="normal">precached</tspan><tspan font-style="normal" class="text-inner-tspan" font-weight="normal"> offline</tspan><tspan font-style="normal" class="text-inner-tspan" font-weight="normal"> shell</tspan></tspan></text></g></g></g></g></g></g><defs><filter id="gd836d08e-00be-4445-a494-6f03ed0e3267-light-drop-shadow" height="130%" width="130%"><feDropShadow dx="4" dy="4" stdDeviation="0" flood-opacity="0.06" flood-color="#000000"></feDropShadow></filter></defs><defs><filter id="gd836d08e-00be-4445-a494-6f03ed0e3267-light-drop-shadow-small" height="150%" width="150%"><feDropShadow dx="2" dy="2" stdDeviation="0" flood-opacity="0.06" flood-color="#000000"></feDropShadow></filter></defs></svg>