<svg id="gdeb64264-5105-4e74-83e4-aa94b718c22c-dark" width="100%" xmlns="http://www.w3.org/2000/svg" xmlns:xlink="http://www.w3.org/1999/xlink" class="flowchart" style="max-width: 844.5726318359375px;" viewBox="0 0 844.5726318359375 1126.090576171875" role="graphics-document document" aria-roledescription="flowchart-v2"><style>#gdeb64264-5105-4e74-83e4-aa94b718c22c-dark{font-family:"trebuchet ms",verdana,arial,sans-serif;font-size:16px;fill:#e5e5e5;}@keyframes edge-animation-frame{from{stroke-dashoffset:0;}}@keyframes dash{to{stroke-dashoffset:0;}}#gdeb64264-5105-4e74-83e4-aa94b718c22c-dark .edge-animation-slow{stroke-dasharray:9,5!important;stroke-dashoffset:900;animation:dash 50s linear infinite;stroke-linecap:round;}#gdeb64264-5105-4e74-83e4-aa94b718c22c-dark .edge-animation-fast{stroke-dasharray:9,5!important;stroke-dashoffset:900;animation:dash 20s linear infinite;stroke-linecap:round;}#gdeb64264-5105-4e74-83e4-aa94b718c22c-dark .error-icon{fill:#252525;}#gdeb64264-5105-4e74-83e4-aa94b718c22c-dark .error-text{fill:#cccccc;stroke:#cccccc;}#gdeb64264-5105-4e74-83e4-aa94b718c22c-dark .edge-thickness-normal{stroke-width:1px;}#gdeb64264-5105-4e74-83e4-aa94b718c22c-dark .edge-thickness-thick{stroke-width:3.5px;}#gdeb64264-5105-4e74-83e4-aa94b718c22c-dark .edge-pattern-solid{stroke-dasharray:0;}#gdeb64264-5105-4e74-83e4-aa94b718c22c-dark .edge-thickness-invisible{stroke-width:0;fill:none;}#gdeb64264-5105-4e74-83e4-aa94b718c22c-dark .edge-pattern-dashed{stroke-dasharray:3;}#gdeb64264-5105-4e74-83e4-aa94b718c22c-dark .edge-pattern-dotted{stroke-dasharray:2;}#gdeb64264-5105-4e74-83e4-aa94b718c22c-dark .marker{fill:#cccccc;stroke:#cccccc;}#gdeb64264-5105-4e74-83e4-aa94b718c22c-dark .marker.cross{stroke:#cccccc;}#gdeb64264-5105-4e74-83e4-aa94b718c22c-dark svg{font-family:"trebuchet ms",verdana,arial,sans-serif;font-size:16px;}#gdeb64264-5105-4e74-83e4-aa94b718c22c-dark p{margin:0;}#gdeb64264-5105-4e74-83e4-aa94b718c22c-dark .label{font-family:"trebuchet ms",verdana,arial,sans-serif;color:#e5e5e5;}#gdeb64264-5105-4e74-83e4-aa94b718c22c-dark .cluster-label text{fill:#e5e5e5;}#gdeb64264-5105-4e74-83e4-aa94b718c22c-dark .cluster-label span{color:#e5e5e5;}#gdeb64264-5105-4e74-83e4-aa94b718c22c-dark .cluster-label span p{background-color:transparent;}#gdeb64264-5105-4e74-83e4-aa94b718c22c-dark .label text,#gdeb64264-5105-4e74-83e4-aa94b718c22c-dark span{fill:#e5e5e5;color:#e5e5e5;}#gdeb64264-5105-4e74-83e4-aa94b718c22c-dark .node rect,#gdeb64264-5105-4e74-83e4-aa94b718c22c-dark .node circle,#gdeb64264-5105-4e74-83e4-aa94b718c22c-dark .node ellipse,#gdeb64264-5105-4e74-83e4-aa94b718c22c-dark .node polygon,#gdeb64264-5105-4e74-83e4-aa94b718c22c-dark .node path{fill:#2d2d2d;stroke:#555555;stroke-width:1px;}#gdeb64264-5105-4e74-83e4-aa94b718c22c-dark .rough-node .label text,#gdeb64264-5105-4e74-83e4-aa94b718c22c-dark .node .label text,#gdeb64264-5105-4e74-83e4-aa94b718c22c-dark .image-shape .label,#gdeb64264-5105-4e74-83e4-aa94b718c22c-dark .icon-shape .label{text-anchor:middle;}#gdeb64264-5105-4e74-83e4-aa94b718c22c-dark .node .katex path{fill:#000;stroke:#000;stroke-width:1px;}#gdeb64264-5105-4e74-83e4-aa94b718c22c-dark .rough-node .label,#gdeb64264-5105-4e74-83e4-aa94b718c22c-dark .node .label,#gdeb64264-5105-4e74-83e4-aa94b718c22c-dark .image-shape .label,#gdeb64264-5105-4e74-83e4-aa94b718c22c-dark .icon-shape .label{text-align:center;}#gdeb64264-5105-4e74-83e4-aa94b718c22c-dark .node.clickable{cursor:pointer;}#gdeb64264-5105-4e74-83e4-aa94b718c22c-dark .root .anchor path{fill:#cccccc!important;stroke-width:0;stroke:#cccccc;}#gdeb64264-5105-4e74-83e4-aa94b718c22c-dark .arrowheadPath{fill:#cccccc;}#gdeb64264-5105-4e74-83e4-aa94b718c22c-dark .edgePath .path{stroke:#cccccc;stroke-width:1px;}#gdeb64264-5105-4e74-83e4-aa94b718c22c-dark .flowchart-link{stroke:#cccccc;fill:none;}#gdeb64264-5105-4e74-83e4-aa94b718c22c-dark .edgeLabel{background-color:#1e1e1e;text-align:center;}#gdeb64264-5105-4e74-83e4-aa94b718c22c-dark .edgeLabel p{background-color:#1e1e1e;}#gdeb64264-5105-4e74-83e4-aa94b718c22c-dark .edgeLabel rect{opacity:0.5;background-color:#1e1e1e;fill:#1e1e1e;}#gdeb64264-5105-4e74-83e4-aa94b718c22c-dark .labelBkg{background-color:rgba(30, 30, 30, 0.5);}#gdeb64264-5105-4e74-83e4-aa94b718c22c-dark .cluster rect{fill:#1e1e1e;stroke:#555555;stroke-width:1px;}#gdeb64264-5105-4e74-83e4-aa94b718c22c-dark .cluster text{fill:#e5e5e5;}#gdeb64264-5105-4e74-83e4-aa94b718c22c-dark .cluster span{color:#e5e5e5;}#gdeb64264-5105-4e74-83e4-aa94b718c22c-dark div.mermaidTooltip{position:absolute;text-align:center;max-width:200px;padding:2px;font-family:"trebuchet ms",verdana,arial,sans-serif;font-size:12px;background:#252525;border:1px solid #555555;border-radius:2px;pointer-events:none;z-index:100;}#gdeb64264-5105-4e74-83e4-aa94b718c22c-dark .flowchartTitleText{text-anchor:middle;font-size:18px;fill:#e5e5e5;}#gdeb64264-5105-4e74-83e4-aa94b718c22c-dark rect.text{fill:none;stroke-width:0;}#gdeb64264-5105-4e74-83e4-aa94b718c22c-dark .icon-shape,#gdeb64264-5105-4e74-83e4-aa94b718c22c-dark .image-shape{background-color:#1e1e1e;text-align:center;}#gdeb64264-5105-4e74-83e4-aa94b718c22c-dark .icon-shape p,#gdeb64264-5105-4e74-83e4-aa94b718c22c-dark .image-shape p{background-color:#1e1e1e;padding:2px;}#gdeb64264-5105-4e74-83e4-aa94b718c22c-dark .icon-shape .label rect,#gdeb64264-5105-4e74-83e4-aa94b718c22c-dark .image-shape .label rect{opacity:0.5;background-color:#1e1e1e;fill:#1e1e1e;}#gdeb64264-5105-4e74-83e4-aa94b718c22c-dark .label-icon{display:inline-block;height:1em;overflow:visible;vertical-align:-0.125em;}#gdeb64264-5105-4e74-83e4-aa94b718c22c-dark .node .label-icon path{fill:currentColor;stroke:revert;stroke-width:revert;}#gdeb64264-5105-4e74-83e4-aa94b718c22c-dark .node .neo-node{stroke:#555555;}#gdeb64264-5105-4e74-83e4-aa94b718c22c-dark [data-look="neo"].node rect,#gdeb64264-5105-4e74-83e4-aa94b718c22c-dark [data-look="neo"].cluster rect,#gdeb64264-5105-4e74-83e4-aa94b718c22c-dark [data-look="neo"].node polygon{stroke:url(#gdeb64264-5105-4e74-83e4-aa94b718c22c-dark-gradient);filter:drop-shadow( 1px 2px 2px rgba(185,185,185,1));}#gdeb64264-5105-4e74-83e4-aa94b718c22c-dark [data-look="neo"].node path{stroke:url(#gdeb64264-5105-4e74-83e4-aa94b718c22c-dark-gradient);stroke-width:1px;}#gdeb64264-5105-4e74-83e4-aa94b718c22c-dark [data-look="neo"].node .outer-path{filter:drop-shadow( 1px 2px 2px rgba(185,185,185,1));}#gdeb64264-5105-4e74-83e4-aa94b718c22c-dark [data-look="neo"].node .neo-line path{stroke:#555555;filter:none;}#gdeb64264-5105-4e74-83e4-aa94b718c22c-dark [data-look="neo"].node circle{stroke:url(#gdeb64264-5105-4e74-83e4-aa94b718c22c-dark-gradient);filter:drop-shadow( 1px 2px 2px rgba(185,185,185,1));}#gdeb64264-5105-4e74-83e4-aa94b718c22c-dark [data-look="neo"].node circle .state-start{fill:#000000;}#gdeb64264-5105-4e74-83e4-aa94b718c22c-dark [data-look="neo"].icon-shape .icon{fill:url(#gdeb64264-5105-4e74-83e4-aa94b718c22c-dark-gradient);filter:drop-shadow( 1px 2px 2px rgba(185,185,185,1));}#gdeb64264-5105-4e74-83e4-aa94b718c22c-dark [data-look="neo"].icon-shape .icon-neo path{stroke:url(#gdeb64264-5105-4e74-83e4-aa94b718c22c-dark-gradient);filter:drop-shadow( 1px 2px 2px rgba(185,185,185,1));}#gdeb64264-5105-4e74-83e4-aa94b718c22c-dark :root{--mermaid-font-family:"trebuchet ms",verdana,arial,sans-serif;}#gdeb64264-5105-4e74-83e4-aa94b718c22c-dark .question rect{fill:#5A5A5A!important;stroke:#3D3D3D!important;color:#ffffff!important;}#gdeb64264-5105-4e74-83e4-aa94b718c22c-dark .question polygon{fill:#5A5A5A!important;stroke:#3D3D3D!important;color:#ffffff!important;}#gdeb64264-5105-4e74-83e4-aa94b718c22c-dark .question ellipse{fill:#5A5A5A!important;stroke:#3D3D3D!important;color:#ffffff!important;}#gdeb64264-5105-4e74-83e4-aa94b718c22c-dark .question circle{fill:#5A5A5A!important;stroke:#3D3D3D!important;color:#ffffff!important;}#gdeb64264-5105-4e74-83e4-aa94b718c22c-dark .question path{fill:#5A5A5A!important;stroke:#3D3D3D!important;color:#ffffff!important;}#gdeb64264-5105-4e74-83e4-aa94b718c22c-dark .question tspan{fill:#ffffff!important;}#gdeb64264-5105-4e74-83e4-aa94b718c22c-dark .result rect{fill:#2D7A2D!important;stroke:#1E5A1E!important;color:#ffffff!important;}#gdeb64264-5105-4e74-83e4-aa94b718c22c-dark .result polygon{fill:#2D7A2D!important;stroke:#1E5A1E!important;color:#ffffff!important;}#gdeb64264-5105-4e74-83e4-aa94b718c22c-dark .result ellipse{fill:#2D7A2D!important;stroke:#1E5A1E!important;color:#ffffff!important;}#gdeb64264-5105-4e74-83e4-aa94b718c22c-dark .result circle{fill:#2D7A2D!important;stroke:#1E5A1E!important;color:#ffffff!important;}#gdeb64264-5105-4e74-83e4-aa94b718c22c-dark .result path{fill:#2D7A2D!important;stroke:#1E5A1E!important;color:#ffffff!important;}#gdeb64264-5105-4e74-83e4-aa94b718c22c-dark .result tspan{fill:#ffffff!important;}#gdeb64264-5105-4e74-83e4-aa94b718c22c-dark .start rect{fill:#2E5A88!important;stroke:#1F4870!important;color:#ffffff!important;}#gdeb64264-5105-4e74-83e4-aa94b718c22c-dark .start polygon{fill:#2E5A88!important;stroke:#1F4870!important;color:#ffffff!important;}#gdeb64264-5105-4e74-83e4-aa94b718c22c-dark .start ellipse{fill:#2E5A88!important;stroke:#1F4870!important;color:#ffffff!important;}#gdeb64264-5105-4e74-83e4-aa94b718c22c-dark .start circle{fill:#2E5A88!important;stroke:#1F4870!important;color:#ffffff!important;}#gdeb64264-5105-4e74-83e4-aa94b718c22c-dark .start path{fill:#2E5A88!important;stroke:#1F4870!important;color:#ffffff!important;}#gdeb64264-5105-4e74-83e4-aa94b718c22c-dark .start tspan{fill:#ffffff!important;}</style><g><marker id="gdeb64264-5105-4e74-83e4-aa94b718c22c-dark_flowchart-v2-pointEnd" class="marker flowchart-v2" viewBox="0 0 10 10" refX="5" refY="5" markerUnits="userSpaceOnUse" markerWidth="8" markerHeight="8" orient="auto"><path d="M 0 0 L 10 5 L 0 10 z" class="arrowMarkerPath" style="stroke-width: 1; stroke-dasharray: 1, 0;"></path></marker><marker id="gdeb64264-5105-4e74-83e4-aa94b718c22c-dark_flowchart-v2-pointStart" class="marker flowchart-v2" viewBox="0 0 10 10" refX="4.5" refY="5" markerUnits="userSpaceOnUse" markerWidth="8" markerHeight="8" orient="auto"><path d="M 0 5 L 10 10 L 10 0 z" class="arrowMarkerPath" style="stroke-width: 1; stroke-dasharray: 1, 0;"></path></marker><marker id="gdeb64264-5105-4e74-83e4-aa94b718c22c-dark_flowchart-v2-pointEnd-margin" class="marker flowchart-v2" viewBox="0 0 11.5 14" refX="11.5" refY="7" markerUnits="userSpaceOnUse" markerWidth="10.5" markerHeight="14" orient="auto"><path d="M 0 0 L 11.5 7 L 0 14 z" class="arrowMarkerPath" style="stroke-width: 0; stroke-dasharray: 1, 0;"></path></marker><marker id="gdeb64264-5105-4e74-83e4-aa94b718c22c-dark_flowchart-v2-pointStart-margin" class="marker flowchart-v2" viewBox="0 0 11.5 14" refX="1" refY="7" markerUnits="userSpaceOnUse" markerWidth="11.5" markerHeight="14" orient="auto"><polygon points="0,7 11.5,14 11.5,0" class="arrowMarkerPath" style="stroke-width: 0; stroke-dasharray: 1, 0;"></polygon></marker><marker id="gdeb64264-5105-4e74-83e4-aa94b718c22c-dark_flowchart-v2-circleEnd" class="marker flowchart-v2" viewBox="0 0 10 10" refX="11" refY="5" markerUnits="userSpaceOnUse" markerWidth="11" markerHeight="11" orient="auto"><circle cx="5" cy="5" r="5" class="arrowMarkerPath" style="stroke-width: 1; stroke-dasharray: 1, 0;"></circle></marker><marker id="gdeb64264-5105-4e74-83e4-aa94b718c22c-dark_flowchart-v2-circleStart" class="marker flowchart-v2" viewBox="0 0 10 10" refX="-1" refY="5" markerUnits="userSpaceOnUse" markerWidth="11" markerHeight="11" orient="auto"><circle cx="5" cy="5" r="5" class="arrowMarkerPath" style="stroke-width: 1; stroke-dasharray: 1, 0;"></circle></marker><marker id="gdeb64264-5105-4e74-83e4-aa94b718c22c-dark_flowchart-v2-circleEnd-margin" class="marker flowchart-v2" viewBox="0 0 10 10" refY="5" refX="12.25" markerUnits="userSpaceOnUse" markerWidth="14" markerHeight="14" orient="auto"><circle cx="5" cy="5" r="5" class="arrowMarkerPath" style="stroke-width: 0; stroke-dasharray: 1, 0;"></circle></marker><marker id="gdeb64264-5105-4e74-83e4-aa94b718c22c-dark_flowchart-v2-circleStart-margin" class="marker flowchart-v2" viewBox="0 0 10 10" refX="-2" refY="5" markerUnits="userSpaceOnUse" markerWidth="14" markerHeight="14" orient="auto"><circle cx="5" cy="5" r="5" class="arrowMarkerPath" style="stroke-width: 0; stroke-dasharray: 1, 0;"></circle></marker><marker id="gdeb64264-5105-4e74-83e4-aa94b718c22c-dark_flowchart-v2-crossEnd" class="marker cross flowchart-v2" viewBox="0 0 11 11" refX="12" refY="5.2" markerUnits="userSpaceOnUse" markerWidth="11" markerHeight="11" orient="auto"><path d="M 1,1 l 9,9 M 10,1 l -9,9" class="arrowMarkerPath" style="stroke-width: 2; stroke-dasharray: 1, 0;"></path></marker><marker id="gdeb64264-5105-4e74-83e4-aa94b718c22c-dark_flowchart-v2-crossStart" class="marker cross flowchart-v2" viewBox="0 0 11 11" refX="-1" refY="5.2" markerUnits="userSpaceOnUse" markerWidth="11" markerHeight="11" orient="auto"><path d="M 1,1 l 9,9 M 10,1 l -9,9" class="arrowMarkerPath" style="stroke-width: 2; stroke-dasharray: 1, 0;"></path></marker><marker id="gdeb64264-5105-4e74-83e4-aa94b718c22c-dark_flowchart-v2-crossEnd-margin" class="marker cross flowchart-v2" viewBox="0 0 15 15" refX="17.7" refY="7.5" markerUnits="userSpaceOnUse" markerWidth="12" markerHeight="12" orient="auto"><path d="M 1,1 L 14,14 M 1,14 L 14,1" class="arrowMarkerPath" style="stroke-width: 2.5;"></path></marker><marker id="gdeb64264-5105-4e74-83e4-aa94b718c22c-dark_flowchart-v2-crossStart-margin" class="marker cross flowchart-v2" viewBox="0 0 15 15" refX="-3.5" refY="7.5" markerUnits="userSpaceOnUse" markerWidth="12" markerHeight="12" orient="auto"><path d="M 1,1 L 14,14 M 1,14 L 14,1" class="arrowMarkerPath" style="stroke-width: 2.5; stroke-dasharray: 1, 0;"></path></marker><g class="root"><g class="clusters"></g><g class="edgePaths"><path d="M226.935,60.1L226.852,64.183C226.768,68.267,226.602,76.433,226.518,84.017C226.435,91.6,226.435,98.6,226.435,102.1L226.435,105.6" id="gdeb64264-5105-4e74-83e4-aa94b718c22c-dark-L_Start_Origin_0" class="edge-thickness-normal edge-pattern-solid edge-thickness-normal edge-pattern-solid flowchart-link" style=";" data-edge="true" data-et="edge" data-id="L_Start_Origin_0" data-points="W3sieCI6MjI2LjkzNTE1Mzk2MTE4MTY0LCJ5Ijo2MC4wOTk5OTg0NzQxMjEwN30seyJ4IjoyMjYuNDM1MTUzOTYxMTgxNjQsInkiOjg0LjU5OTk5ODQ3NDEyMTF9LHsieCI6MjI2LjQzNTE1Mzk2MTE4MTY3LCJ5IjoxMDkuNTk5OTk4NDc0MTIxMDd9XQ==" data-look="classic" marker-end="url(#gdeb64264-5105-4e74-83e4-aa94b718c22c-dark_flowchart-v2-pointEnd)"></path><path d="M177.413,288.747L166.674,303.001C155.934,317.254,134.456,345.761,123.716,371.872C112.977,397.982,112.977,421.696,112.977,433.553L112.977,445.409" id="gdeb64264-5105-4e74-83e4-aa94b718c22c-dark-L_Origin_OriginWin_0" class="edge-thickness-normal edge-pattern-solid edge-thickness-normal edge-pattern-solid flowchart-link" style=";" data-edge="true" data-et="edge" data-id="L_Origin_OriginWin_0" data-points="W3sieCI6MTc3LjQxMzM4ODQxMTQ4NTAyLCJ5IjoyODguNzQ2OTc5ODcyNjY2N30seyJ4IjoxMTIuOTc2NTYyNSwieSI6Mzc0LjI2ODc0NTQyMjM2MzN9LHsieCI6MTEyLjk3NjU2MjUsInkiOjQ0OS40MDkzNjY2MDc2NjZ9XQ==" data-look="classic" marker-end="url(#gdeb64264-5105-4e74-83e4-aa94b718c22c-dark_flowchart-v2-pointEnd)"></path><path d="M275.457,288.747L286.196,303.001C296.936,317.254,318.415,345.761,329.154,365.432C339.894,385.102,339.894,395.935,339.894,401.352L339.894,406.769" id="gdeb64264-5105-4e74-83e4-aa94b718c22c-dark-L_Origin_Important_0" class="edge-thickness-normal edge-pattern-solid edge-thickness-normal edge-pattern-solid flowchart-link" style=";" data-edge="true" data-et="edge" data-id="L_Origin_Important_0" data-points="W3sieCI6Mjc1LjQ1NjkxOTUxMDg3ODI3LCJ5IjoyODguNzQ2OTc5ODcyNjY2N30seyJ4IjozMzkuODkzNzQ1NDIyMzYzMywieSI6Mzc0LjI2ODc0NTQyMjM2MzN9LHsieCI6MzM5Ljg5Mzc0NTQyMjM2MzMsInkiOjQxMC43Njg3NDU0MjIzNjMyfV0=" data-look="classic" marker-end="url(#gdeb64264-5105-4e74-83e4-aa94b718c22c-dark_flowchart-v2-pointEnd)"></path><path d="M303.833,518.589L291.678,530.682C279.523,542.776,255.213,566.963,243.059,589.887C230.904,612.811,230.904,634.473,230.904,645.304L230.904,656.134" id="gdeb64264-5105-4e74-83e4-aa94b718c22c-dark-L_Important_ImportantOrder_0" class="edge-thickness-normal edge-pattern-solid edge-thickness-normal edge-pattern-solid flowchart-link" style=";" data-edge="true" data-et="edge" data-id="L_Important_ImportantOrder_0" data-points="W3sieCI6MzAzLjgzMjU3NDk1MjUwOTA1LCJ5Ijo1MTguNTg4ODE1Nzk3MjM1Nn0seyJ4IjoyMzAuOTAzOTAwMTQ2NDg0MzgsInkiOjU5MS4xNDk5ODYyNjcwODk4fSx7IngiOjIzMC45MDM5MDAxNDY0ODQzOCwieSI6NjYwLjEzNDM2NTA4MTc4NzF9XQ==" data-look="classic" marker-end="url(#gdeb64264-5105-4e74-83e4-aa94b718c22c-dark_flowchart-v2-pointEnd)"></path><path d="M375.955,518.589L388.11,530.682C400.264,542.776,424.574,566.963,436.729,584.473C448.884,601.983,448.884,612.817,448.884,618.233L448.884,623.65" id="gdeb64264-5105-4e74-83e4-aa94b718c22c-dark-L_Important_Layer_0" class="edge-thickness-normal edge-pattern-solid edge-thickness-normal edge-pattern-solid flowchart-link" style=";" data-edge="true" data-et="edge" data-id="L_Important_Layer_0" data-points="W3sieCI6Mzc1Ljk1NDkxNTg5MjIxNzU3LCJ5Ijo1MTguNTg4ODE1Nzk3MjM1Nn0seyJ4Ijo0NDguODgzNTkwNjk4MjQyMiwieSI6NTkxLjE0OTk4NjI2NzA4OTh9LHsieCI6NDQ4Ljg4MzU5MDY5ODI0MjEzLCJ5Ijo2MjcuNjQ5OTg2MjY3MDg5OH1d" data-look="classic" marker-end="url(#gdeb64264-5105-4e74-83e4-aa94b718c22c-dark_flowchart-v2-pointEnd)"></path><path d="M413.04,723.376L398.606,735.433C384.172,747.49,355.305,771.604,340.871,795.718C326.437,819.831,326.437,843.943,326.437,855.999L326.437,868.055" id="gdeb64264-5105-4e74-83e4-aa94b718c22c-dark-L_Layer_LayerOrder_0" class="edge-thickness-normal edge-pattern-solid edge-thickness-normal edge-pattern-solid flowchart-link" style=";" data-edge="true" data-et="edge" data-id="L_Layer_LayerOrder_0" data-points="W3sieCI6NDEzLjA0MDM3MTUwODM5NjIsInkiOjcyMy4zNzU1MjMxODA3NTk0fSx7IngiOjMyNi40MzY3MTQxNzIzNjMzLCJ5Ijo3OTUuNzE4NzQyMzcwNjA1NX0seyJ4IjozMjYuNDM2NzE0MTcyMzYzMywieSI6ODcyLjA1NDY4MzY4NTMwMjd9XQ==" data-look="classic" marker-end="url(#gdeb64264-5105-4e74-83e4-aa94b718c22c-dark_flowchart-v2-pointEnd)"></path><path d="M484.727,723.376L499.161,735.433C513.595,747.49,542.463,771.604,556.897,789.078C571.33,806.552,571.33,817.385,571.33,822.802L571.33,828.219" id="gdeb64264-5105-4e74-83e4-aa94b718c22c-dark-L_Layer_Specificity_0" class="edge-thickness-normal edge-pattern-solid edge-thickness-normal edge-pattern-solid flowchart-link" style=";" data-edge="true" data-et="edge" data-id="L_Layer_Specificity_0" data-points="W3sieCI6NDg0LjcyNjgwOTg4ODA4ODI3LCJ5Ijo3MjMuMzc1NTIzMTgwNzU5NH0seyJ4Ijo1NzEuMzMwNDY3MjI0MTIxMSwieSI6Nzk1LjcxODc0MjM3MDYwNTV9LHsieCI6NTcxLjMzMDQ2NzIyNDEyMTEsInkiOjgzMi4yMTg3NDIzNzA2MDU0fV0=" data-look="classic" marker-end="url(#gdeb64264-5105-4e74-83e4-aa94b718c22c-dark_flowchart-v2-pointEnd)"></path><path d="M529.389,936.549L511.812,949.623C494.234,962.696,459.079,988.844,441.502,1007.334C423.924,1025.824,423.924,1036.657,423.924,1042.074L423.924,1047.491" id="gdeb64264-5105-4e74-83e4-aa94b718c22c-dark-L_Specificity_SpecWin_0" class="edge-thickness-normal edge-pattern-solid edge-thickness-normal edge-pattern-solid flowchart-link" style=";" data-edge="true" data-et="edge" data-id="L_Specificity_SpecWin_0" data-points="W3sieCI6NTI5LjM4OTEyNDAwMDIwODcsInkiOjkzNi41NDkyODAyNTAyMDg1fSx7IngiOjQyMy45MjQyMTcyMjQxMjExLCJ5IjoxMDE0Ljk5MDYyMzQ3NDEyMTF9LHsieCI6NDIzLjkyNDIxNzIyNDEyMTEsInkiOjEwNTEuNDkwNjIzNDc0MTIxfV0=" data-look="classic" marker-end="url(#gdeb64264-5105-4e74-83e4-aa94b718c22c-dark_flowchart-v2-pointEnd)"></path><path d="M613.272,936.549L630.849,949.623C648.427,962.696,683.582,988.844,701.159,1007.334C718.737,1025.824,718.737,1036.657,718.737,1042.074L718.737,1047.491" id="gdeb64264-5105-4e74-83e4-aa94b718c22c-dark-L_Specificity_SourceOrder_0" class="edge-thickness-normal edge-pattern-solid edge-thickness-normal edge-pattern-solid flowchart-link" style=";" data-edge="true" data-et="edge" data-id="L_Specificity_SourceOrder_0" data-points="W3sieCI6NjEzLjI3MTgxMDQ0ODAzMzQsInkiOjkzNi41NDkyODAyNTAyMDk2fSx7IngiOjcxOC43MzY3MTcyMjQxMjExLCJ5IjoxMDE0Ljk5MDYyMzQ3NDEyMTF9LHsieCI6NzE4LjczNjcxNzIyNDEyMTEsInkiOjEwNTEuNDkwNjIzNDc0MTIxfV0=" data-look="classic" marker-end="url(#gdeb64264-5105-4e74-83e4-aa94b718c22c-dark_flowchart-v2-pointEnd)"></path></g><g class="edgeLabels"><g class="edgeLabel"><g class="label" data-id="L_Start_Origin_0" transform="translate(0, 0)"><text y="-10.1" text-anchor="middle"><tspan class="text-outer-tspan row" x="0" y="-0.1em" dy="1.1em" text-anchor="middle"></tspan></text></g></g><g><rect class="background" style="stroke: none"></rect></g><g class="edgeLabel" transform="translate(112.9765625, 374.2687454223633)"><g class="label" data-id="L_Origin_OriginWin_0" transform="translate(0, -10.5)"><g><rect class="background" style="" x="-13.546875" y="-1" width="27.09375" height="23"></rect><text y="-10.1" text-anchor="middle" style=""><tspan class="text-outer-tspan row" x="0" y="-0.1em" dy="1.1em" text-anchor="middle"><tspan font-style="normal" class="text-inner-tspan" font-weight="normal">yes</tspan></tspan></text></g></g></g><g class="edgeLabel" transform="translate(339.8937454223633, 374.2687454223633)"><g class="label" data-id="L_Origin_Important_0" transform="translate(0, -10.5)"><g><rect class="background" style="" x="-10.6640625" y="-1" width="21.328125" height="23"></rect><text y="-10.1" text-anchor="middle" style=""><tspan class="text-outer-tspan row" x="0" y="-0.1em" dy="1.1em" text-anchor="middle"><tspan font-style="normal" class="text-inner-tspan" font-weight="normal">no</tspan></tspan></text></g></g></g><g class="edgeLabel" transform="translate(230.90390014648438, 591.1499862670898)"><g class="label" data-id="L_Important_ImportantOrder_0" transform="translate(0, -10.5)"><g><rect class="background" style="" x="-13.546875" y="-1" width="27.09375" height="23"></rect><text y="-10.1" text-anchor="middle" style=""><tspan class="text-outer-tspan row" x="0" y="-0.1em" dy="1.1em" text-anchor="middle"><tspan font-style="normal" class="text-inner-tspan" font-weight="normal">yes</tspan></tspan></text></g></g></g><g class="edgeLabel" transform="translate(448.8835906982422, 591.1499862670898)"><g class="label" data-id="L_Important_Layer_0" transform="translate(0, -10.5)"><g><rect class="background" style="" x="-10.6640625" y="-1" width="21.328125" height="23"></rect><text y="-10.1" text-anchor="middle" style=""><tspan class="text-outer-tspan row" x="0" y="-0.1em" dy="1.1em" text-anchor="middle"><tspan font-style="normal" class="text-inner-tspan" font-weight="normal">no</tspan></tspan></text></g></g></g><g class="edgeLabel" transform="translate(326.4367141723633, 795.7187423706055)"><g class="label" data-id="L_Layer_LayerOrder_0" transform="translate(0, -10.5)"><g><rect class="background" style="" x="-13.546875" y="-1" width="27.09375" height="23"></rect><text y="-10.1" text-anchor="middle" style=""><tspan class="text-outer-tspan row" x="0" y="-0.1em" dy="1.1em" text-anchor="middle"><tspan font-style="normal" class="text-inner-tspan" font-weight="normal">yes</tspan></tspan></text></g></g></g><g class="edgeLabel" transform="translate(571.3304672241211, 795.7187423706055)"><g class="label" data-id="L_Layer_Specificity_0" transform="translate(0, -10.5)"><g><rect class="background" style="" x="-10.6640625" y="-1" width="21.328125" height="23"></rect><text y="-10.1" text-anchor="middle" style=""><tspan class="text-outer-tspan row" x="0" y="-0.1em" dy="1.1em" text-anchor="middle"><tspan font-style="normal" class="text-inner-tspan" font-weight="normal">no</tspan></tspan></text></g></g></g><g class="edgeLabel" transform="translate(423.9242172241211, 1014.9906234741211)"><g class="label" data-id="L_Specificity_SpecWin_0" transform="translate(0, -10.5)"><g><rect class="background" style="" x="-13.546875" y="-1" width="27.09375" height="23"></rect><text y="-10.1" text-anchor="middle" style=""><tspan class="text-outer-tspan row" x="0" y="-0.1em" dy="1.1em" text-anchor="middle"><tspan font-style="normal" class="text-inner-tspan" font-weight="normal">yes</tspan></tspan></text></g></g></g><g class="edgeLabel" transform="translate(718.7367172241211, 1014.9906234741211)"><g class="label" data-id="L_Specificity_SourceOrder_0" transform="translate(0, -10.5)"><g><rect class="background" style="" x="-10.6640625" y="-1" width="21.328125" height="23"></rect><text y="-10.1" text-anchor="middle" style=""><tspan class="text-outer-tspan row" x="0" y="-0.1em" dy="1.1em" text-anchor="middle"><tspan font-style="normal" class="text-inner-tspan" font-weight="normal">no</tspan></tspan></text></g></g></g></g><g class="nodes"><g class="node default start" id="gdeb64264-5105-4e74-83e4-aa94b718c22c-dark-flowchart-Start-0" data-look="classic" transform="translate(226.43515396118164, 33.79999923706055)"><g class="basic label-container outer-path"><path d="M-52.96250057220459 -25.799999237060547 C-12.51000306657788 -25.799999237060547, 27.94249443904883 -25.799999237060547, 52.96250057220459 -25.799999237060547 C52.96250057220459 -25.799999237060547, 52.96250057220459 -25.799999237060547, 52.96250057220459 -25.799999237060547 C53.41802084927857 -25.785391588391217, 53.87354112635254 -25.770783939721884, 54.615512198825286 -25.746990371586765 C55.115329589017804 -25.69877358907325, 55.61514697921032 -25.650556806559738, 56.26173124610231 -25.58818159996402 C56.81655696746538 -25.49848168007177, 57.371382688828454 -25.40878176017952, 57.89439304685753 -25.32422550149928 C58.32468589640593 -25.226013966513115, 58.75497874595433 -25.12780243152695, 59.506788643546784 -24.956206728419545 C60.02974901674858 -24.800994834728268, 60.55270938995038 -24.645782941036995, 61.092292356805515 -24.48563754880318 C61.5556726548388 -24.31510931568641, 62.01905295287209 -24.14458108256964, 62.64438901178644 -23.914451632345997 C62.964184253185095 -23.772887765367596, 63.283979494583754 -23.631323898389194, 64.15670071041056 -23.24499610449772 C64.73593683442226 -22.942808989619262, 65.31517295843395 -22.640621874740805, 65.6230130395184 -22.480021901620034 C66.09283146625184 -22.195215210374688, 66.56264989298526 -21.91040851912934, 67.03730060722664 -21.62267246679901 C67.50633739217399 -21.295492709894912, 67.97537417712134 -20.968312952990818, 68.39375180255584 -20.67647083276321 C68.6766911690951 -20.450834217280914, 68.95963053563435 -20.225197601798612, 69.6867926765865 -19.64530514498651 C70.09283045119511 -19.27655238125778, 70.49886822580373 -18.90779961752905, 70.91110984701088 -18.533412684464313 C71.34431820730903 -18.086089485388634, 71.77752656760718 -17.63876628631295, 72.06167233196044 -17.345362455817106 C72.41971993127649 -16.924779372174907, 72.77776753059256 -16.504196288532707, 73.13375222338968 -16.086036412270357 C73.35428278984133 -15.790545543973053, 73.57481335629298 -15.495054675675748, 74.12294411506427 -14.76060939466161 C74.4033934114809 -14.329763964185005, 74.68384270789755 -13.898918533708398, 75.02518320532036 -13.374527866909407 C75.27752226556913 -12.926474313337092, 75.5298613258179 -12.478420759764777, 75.8367620002064 -11.93348753532484 C75.99042265784712 -11.614407891922509, 76.14408331548785 -11.295328248520178, 76.55434554837109 -10.443409943732584 C76.79595133127013 -9.846638988841887, 77.03755711416919 -9.24986803395119, 77.17498514509381 -8.910418140577123 C77.3385996778247 -8.417637236427334, 77.50221421055558 -7.9248563322775425, 77.6961304491449 -7.340811518003323 C77.81749927115278 -6.87797959810706, 77.93886809316068 -6.415147678210796, 78.11563996268467 -5.741039926302914 C78.20686165801922 -5.272635800472124, 78.29808335335377 -4.8042316746413345, 78.43178983113748 -4.117677170096137 C78.47952555749009 -3.7474483029906507, 78.5272612838427 -3.3772194358851646, 78.64328092687991 -2.4773939951584394 C78.6712098671808 -2.0423782061370255, 78.69913880748172 -1.6073624171156111, 78.74924418763487 -0.8269306768952902 C78.74924418763487 -0.24804418162057496, 78.74924418763487 0.3308423136541403, 78.74924418763487 0.826930676895284 C78.72552804981234 1.196328666803147, 78.70181191198981 1.5657266567110097, 78.64328092687991 2.4773939951584216 C78.59023658758423 2.8887954159461775, 78.53719224828855 3.3001968367339334, 78.43178983113748 4.117677170096119 C78.33565004320533 4.611334661976266, 78.2395102552732 5.104992153856413, 78.11563996268467 5.741039926302909 C78.00836197465101 6.150137389249351, 77.90108398661737 6.559234852195793, 77.6961304491449 7.340811518003306 C77.5004653642319 7.930123578763627, 77.30480027931891 8.519435639523948, 77.17498514509383 8.910418140577105 C76.92985251580792 9.51590047423027, 76.68471988652202 10.121382807883435, 76.55434554837109 10.443409943732577 C76.30314578482302 10.965031627554048, 76.05194602127496 11.48665331137552, 75.8367620002064 11.933487535324835 C75.56621532219467 12.413870557956523, 75.29566864418294 12.894253580588213, 75.02518320532037 13.374527866909402 C74.8338134957189 13.668523130819556, 74.64244378611744 13.962518394729711, 74.12294411506429 14.760609394661596 C73.7436687305876 15.26880385716202, 73.3643933461109 15.776998319662443, 73.13375222338968 16.086036412270353 C72.87428863238945 16.390817110155798, 72.61482504138921 16.695597808041242, 72.06167233196045 17.345362455817092 C71.63808046777628 17.782755833126075, 71.2144886035921 18.220149210435057, 70.91110984701088 18.533412684464306 C70.5143118307273 18.89377414415286, 70.1175138144437 19.25413560384142, 69.68679267658653 19.64530514498649 C69.20242887181338 20.031572389830913, 68.71806506704021 20.417839634675335, 68.39375180255584 20.676470832763208 C67.86720005361059 21.043770538769586, 67.34064830466532 21.411070244775964, 67.03730060722665 21.622672466799003 C66.59728414499646 21.889413032026702, 66.15726768276627 22.1561535972544, 65.62301303951841 22.48002190162003 C65.15517122566378 22.724094676241005, 64.68732941180916 22.968167450861984, 64.15670071041058 23.244996104497716 C63.653018280752065 23.467961374899126, 63.14933585109355 23.690926645300536, 62.64438901178645 23.914451632345994 C62.164933678617864 24.090895626988548, 61.685478345449276 24.267339621631102, 61.09229235680553 24.485637548803172 C60.47551773377591 24.6686930194023, 59.858743110746296 24.851748490001434, 59.50678864354681 24.95620672841954 C59.0593070351033 25.05834148545638, 58.61182542665979 25.16047624249322, 57.894393046857545 25.324225501499278 C57.45022278119427 25.39603550545986, 57.006052515530996 25.467845509420442, 56.26173124610233 25.588181599964017 C55.61623968645379 25.650451394406133, 54.97074812680525 25.71272118884825, 54.615512198825286 25.746990371586765 C54.17302068367589 25.761180213220122, 53.73052916852649 25.77537005485348, 52.9625005722046 25.799999237060547 C52.9625005722046 25.799999237060547, 52.96250057220459 25.799999237060547, 52.96250057220459 25.799999237060547 C31.078254201944485 25.799999237060547, 9.194007831684381 25.799999237060547, -52.96250057220458 25.799999237060547 C-53.604976516961656 25.77939628401575, -54.24745246171873 25.758793330970953, -54.61551219882527 25.746990371586765 C-55.18373437112681 25.69217466201198, -55.751956543428356 25.637358952437197, -56.261731246102315 25.588181599964017 C-56.82787151013759 25.496652432558115, -57.39401177417287 25.40512326515221, -57.89439304685753 25.324225501499278 C-58.22691078043236 25.24833049869182, -58.559428514007195 25.17243549588436, -59.506788643546784 24.956206728419545 C-60.05281157205409 24.794149989371416, -60.5988345005614 24.632093250323287, -61.0922923568055 24.485637548803183 C-61.497923390325745 24.336361578855566, -61.90355442384598 24.187085608907946, -62.644389011786444 23.914451632345997 C-63.124921887199754 23.70173398290181, -63.60545476261307 23.489016333457624, -64.15670071041056 23.244996104497723 C-64.53578431139529 23.047228432678626, -64.91486791238002 22.849460760859532, -65.6230130395184 22.480021901620038 C-65.91084413216316 22.30553700177553, -66.19867522480793 22.131052101931022, -67.03730060722663 21.622672466799017 C-67.36288695323763 21.395557526227496, -67.68847329924864 21.168442585655974, -68.39375180255584 20.67647083276321 C-68.89041388203067 20.280396041115033, -69.38707596150552 19.884321249466854, -69.6867926765865 19.645305144986512 C-70.08785316465506 19.28107262120168, -70.4889136527236 18.916840097416852, -70.91110984701086 18.533412684464324 C-71.26946917660993 18.16337725480516, -71.62782850620899 17.79334182514599, -72.06167233196044 17.3453624558171 C-72.34914010616778 17.007686450853427, -72.63660788037511 16.670010445889755, -73.13375222338968 16.08603641227036 C-73.37634336806046 15.760986378919446, -73.61893451273123 15.435936345568532, -74.12294411506427 14.760609394661614 C-74.43142844663768 14.286694621723178, -74.7399127782111 13.812779848784743, -75.02518320532036 13.374527866909418 C-75.26057384987301 12.95656794161874, -75.49596449442566 12.538608016328062, -75.83676200020639 11.933487535324842 C-76.06643651061626 11.456563500211479, -76.29611102102614 10.979639465098115, -76.55434554837109 10.443409943732586 C-76.73104713410675 10.006953610672744, -76.90774871984242 9.570497277612901, -77.17498514509381 8.910418140577127 C-77.28490629505869 8.579353150439797, -77.39482744502355 8.248288160302467, -77.6961304491449 7.340811518003316 C-77.84654664832098 6.767209359751836, -77.99696284749706 6.193607201500354, -78.11563996268467 5.741039926302918 C-78.2318303351114 5.144426920735565, -78.34802070753814 4.547813915168212, -78.43178983113748 4.117677170096139 C-78.47780559033772 3.760788028578523, -78.52382134953795 3.4038988870609064, -78.64328092687991 2.477393995158454 C-78.66653410169852 2.1152070277336827, -78.68978727651714 1.753020060308911, -78.74924418763487 0.8269306768952934 C-78.74924418763487 0.23641483872955493, -78.74924418763487 -0.35410099943618356, -78.74924418763487 -0.8269306768952809 C-78.72331170663197 -1.230850000837411, -78.69737922562906 -1.634769324779541, -78.64328092687991 -2.4773939951584185 C-78.60090497945886 -2.806053475278783, -78.55852903203781 -3.134712955399147, -78.43178983113748 -4.117677170096128 C-78.3154113511777 -4.715256068089125, -78.19903287121792 -5.3128349660821215, -78.11563996268467 -5.741039926302906 C-78.01388169010772 -6.129088321953081, -77.9121234175308 -6.5171367176032575, -77.6961304491449 -7.340811518003303 C-77.5678200581902 -7.727261972074374, -77.43950966723548 -8.113712426145446, -77.17498514509383 -8.910418140577093 C-77.03207950422352 -9.263397836419376, -76.88917386335321 -9.616377532261659, -76.55434554837109 -10.443409943732574 C-76.32710273970191 -10.915284498151303, -76.09985993103274 -11.387159052570032, -75.8367620002064 -11.933487535324831 C-75.58350396592068 -12.38317282035596, -75.33024593163496 -12.832858105387087, -75.02518320532036 -13.374527866909409 C-74.77595429797992 -13.757410395916654, -74.52672539063948 -14.1402929249239, -74.12294411506429 -14.760609394661605 C-73.76178583531026 -15.24452858733585, -73.40062755555623 -15.728447780010097, -73.13375222338968 -16.086036412270353 C-72.848693792501 -16.420882265476422, -72.56363536161231 -16.755728118682487, -72.06167233196045 -17.345362455817092 C-71.64260395984104 -17.7780849561836, -71.22353558772163 -18.210807456550107, -70.91110984701089 -18.5334126844643 C-70.42437839520834 -18.975449310782867, -69.93764694340578 -19.417485937101436, -69.68679267658653 -19.645305144986487 C-69.39512209175855 -19.877904674706578, -69.10345150693055 -20.110504204426668, -68.39375180255585 -20.676470832763204 C-68.06864484800016 -20.903251370608018, -67.74353789344447 -21.13003190845283, -67.03730060722665 -21.622672466799 C-66.70661573145017 -21.82313558181474, -66.37593085567369 -22.02359869683048, -65.62301303951841 -22.480021901620027 C-65.0825952118053 -22.761957536183818, -64.54217738409218 -23.043893170747612, -64.15670071041058 -23.244996104497716 C-63.79012063046454 -23.407270231678112, -63.42354055051851 -23.56954435885851, -62.64438901178645 -23.91445163234599 C-62.07015097249071 -24.12577653900507, -61.495912933194965 -24.33710144566415, -61.09229235680553 -24.485637548803172 C-60.52496092765434 -24.654018538991803, -59.95762949850315 -24.822399529180437, -59.50678864354682 -24.956206728419538 C-59.13153462692104 -25.041856008953065, -58.756280610295256 -25.127505289486592, -57.894393046857545 -25.324225501499278 C-57.55109182313364 -25.379727781010207, -57.207790599409726 -25.435230060521135, -56.26173124610233 -25.588181599964017 C-55.60891882754186 -25.651157628860744, -54.9561064089814 -25.714133657757472, -54.615512198825286 -25.746990371586765 C-54.01833730602774 -25.76614060806837, -53.421162413230185 -25.78529084454997, -52.9625005722046 -25.799999237060547 C-52.9625005722046 -25.799999237060547, -52.96250057220459 -25.799999237060547, -52.96250057220459 -25.799999237060547" stroke="none" stroke-width="0" fill="#2E5A88" style="fill:#2E5A88 !important;stroke:#1F4870 !important"></path><path d="M-52.96250057220459 -25.799999237060547 C-16.509717416508742 -25.799999237060547, 19.943065739187105 -25.799999237060547, 52.96250057220459 -25.799999237060547 M-52.96250057220459 -25.799999237060547 C-24.521177487229817 -25.799999237060547, 3.9201455977449555 -25.799999237060547, 52.96250057220459 -25.799999237060547 M52.96250057220459 -25.799999237060547 C52.96250057220459 -25.799999237060547, 52.96250057220459 -25.799999237060547, 52.96250057220459 -25.799999237060547 M52.96250057220459 -25.799999237060547 C52.96250057220459 -25.799999237060547, 52.96250057220459 -25.799999237060547, 52.96250057220459 -25.799999237060547 M52.96250057220459 -25.799999237060547 C53.33965587419718 -25.787904600613906, 53.71681117618976 -25.775809964167266, 54.615512198825286 -25.746990371586765 M52.96250057220459 -25.799999237060547 C53.51560337937772 -25.78226230658381, 54.068706186550855 -25.76452537610707, 54.615512198825286 -25.746990371586765 M54.615512198825286 -25.746990371586765 C55.118935336021615 -25.69842574699634, 55.62235847321794 -25.649861122405913, 56.26173124610231 -25.58818159996402 M54.615512198825286 -25.746990371586765 C55.25593456332025 -25.685209596304517, 55.89635692781522 -25.623428821022266, 56.26173124610231 -25.58818159996402 M56.26173124610231 -25.58818159996402 C56.762452460524095 -25.507228877167318, 57.263173674945875 -25.42627615437062, 57.89439304685753 -25.32422550149928 M56.26173124610231 -25.58818159996402 C56.75387428663178 -25.508615729797498, 57.24601732716125 -25.42904985963097, 57.89439304685753 -25.32422550149928 M57.89439304685753 -25.32422550149928 C58.32716463047827 -25.225448211636355, 58.75993621409902 -25.126670921773428, 59.506788643546784 -24.956206728419545 M57.89439304685753 -25.32422550149928 C58.40244225431385 -25.208266585228287, 58.910491461770164 -25.092307668957297, 59.506788643546784 -24.956206728419545 M59.506788643546784 -24.956206728419545 C59.97048790936875 -24.8185832203307, 60.434187175190715 -24.680959712241858, 61.092292356805515 -24.48563754880318 M59.506788643546784 -24.956206728419545 C60.05175525514024 -24.794463498686724, 60.5967218667337 -24.632720268953907, 61.092292356805515 -24.48563754880318 M61.092292356805515 -24.48563754880318 C61.4511015182305 -24.353592460603256, 61.80991067965548 -24.221547372403332, 62.64438901178644 -23.914451632345997 M61.092292356805515 -24.48563754880318 C61.52767458156191 -24.325412865463658, 61.963056806318306 -24.165188182124137, 62.64438901178644 -23.914451632345997 M62.64438901178644 -23.914451632345997 C63.11595486531704 -23.705703417492032, 63.58752071884765 -23.496955202638066, 64.15670071041056 -23.24499610449772 M62.64438901178644 -23.914451632345997 C63.14652610792563 -23.6921704352529, 63.648663204064825 -23.4698892381598, 64.15670071041056 -23.24499610449772 M64.15670071041056 -23.24499610449772 C64.69321029080007 -22.965099400059305, 65.22971987118956 -22.68520269562089, 65.6230130395184 -22.480021901620034 M64.15670071041056 -23.24499610449772 C64.59698498604183 -23.015300079916425, 65.0372692616731 -22.78560405533513, 65.6230130395184 -22.480021901620034 M65.6230130395184 -22.480021901620034 C66.00587856409928 -22.247926570651536, 66.38874408868017 -22.01583123968304, 67.03730060722664 -21.62267246679901 M65.6230130395184 -22.480021901620034 C65.98231658308269 -22.262209982009363, 66.34162012664699 -22.044398062398695, 67.03730060722664 -21.62267246679901 M67.03730060722664 -21.62267246679901 C67.31414898901599 -21.42955502023605, 67.59099737080534 -21.23643757367309, 68.39375180255584 -20.67647083276321 M67.03730060722664 -21.62267246679901 C67.41155748320008 -21.36160707143898, 67.78581435917353 -21.100541676078947, 68.39375180255584 -20.67647083276321 M68.39375180255584 -20.67647083276321 C68.70154252830581 -20.431015919632813, 69.00933325405578 -20.185561006502414, 69.6867926765865 -19.64530514498651 M68.39375180255584 -20.67647083276321 C68.6987962299797 -20.43320601946581, 69.00384065740356 -20.189941206168413, 69.6867926765865 -19.64530514498651 M69.6867926765865 -19.64530514498651 C69.98173525749947 -19.37744609675441, 70.27667783841244 -19.109587048522318, 70.91110984701088 -18.533412684464313 M69.6867926765865 -19.64530514498651 C69.96334550781673 -19.394147180850165, 70.23989833904695 -19.142989216713826, 70.91110984701088 -18.533412684464313 M70.91110984701088 -18.533412684464313 C71.3377850845992 -18.092835470965884, 71.76446032218752 -17.652258257467455, 72.06167233196044 -17.345362455817106 M70.91110984701088 -18.533412684464313 C71.34248457702772 -18.087982859197925, 71.77385930704457 -17.642553033931538, 72.06167233196044 -17.345362455817106 M72.06167233196044 -17.345362455817106 C72.45939180245658 -16.878178534893358, 72.85711127295272 -16.41099461396961, 73.13375222338968 -16.086036412270357 M72.06167233196044 -17.345362455817106 C72.30636358426773 -17.05793418753028, 72.55105483657502 -16.770505919243448, 73.13375222338968 -16.086036412270357 M73.13375222338968 -16.086036412270357 C73.5235422236357 -15.56375332254023, 73.91333222388172 -15.041470232810104, 74.12294411506427 -14.76060939466161 M73.13375222338968 -16.086036412270357 C73.43564036275582 -15.681533808094997, 73.73752850212198 -15.277031203919636, 74.12294411506427 -14.76060939466161 M74.12294411506427 -14.76060939466161 C74.45532337167566 -14.249985600179048, 74.78770262828705 -13.739361805696488, 75.02518320532036 -13.374527866909407 M74.12294411506427 -14.76060939466161 C74.4753836218262 -14.21916766901642, 74.82782312858812 -13.677725943371229, 75.02518320532036 -13.374527866909407 M75.02518320532036 -13.374527866909407 C75.29137829403685 -12.90187153171763, 75.55757338275335 -12.42921519652585, 75.8367620002064 -11.93348753532484 M75.02518320532036 -13.374527866909407 C75.29306174923558 -12.898882386543976, 75.5609402931508 -12.423236906178547, 75.8367620002064 -11.93348753532484 M75.8367620002064 -11.93348753532484 C76.02343179068743 -11.54586372129734, 76.21010158116843 -11.15823990726984, 76.55434554837109 -10.443409943732584 M75.8367620002064 -11.93348753532484 C76.03287539145204 -11.526253882248914, 76.22898878269768 -11.119020229172987, 76.55434554837109 -10.443409943732584 M76.55434554837109 -10.443409943732584 C76.78370387062344 -9.87689045342776, 77.0130621928758 -9.310370963122937, 77.17498514509381 -8.910418140577123 M76.55434554837109 -10.443409943732584 C76.78263742875075 -9.87952458547159, 77.01092930913039 -9.315639227210593, 77.17498514509381 -8.910418140577123 M77.17498514509381 -8.910418140577123 C77.28791370212818 -8.57029531951171, 77.40084225916256 -8.230172498446295, 77.6961304491449 -7.340811518003323 M77.17498514509381 -8.910418140577123 C77.34486140487273 -8.398777912229393, 77.51473766465163 -7.887137683881662, 77.6961304491449 -7.340811518003323 M77.6961304491449 -7.340811518003323 C77.8089326059343 -6.910648005401347, 77.9217347627237 -6.48048449279937, 78.11563996268467 -5.741039926302914 M77.6961304491449 -7.340811518003323 C77.84860288850467 -6.759368024751264, 78.00107532786446 -6.177924531499205, 78.11563996268467 -5.741039926302914 M78.11563996268467 -5.741039926302914 C78.21877173947678 -5.211480049384214, 78.32190351626888 -4.681920172465513, 78.43178983113748 -4.117677170096137 M78.11563996268467 -5.741039926302914 C78.22753461223346 -5.1664845498125, 78.33942926178223 -4.591929173322085, 78.43178983113748 -4.117677170096137 M78.43178983113748 -4.117677170096137 C78.4947478574156 -3.6293871507514925, 78.55770588369373 -3.141097131406848, 78.64328092687991 -2.4773939951584394 M78.43178983113748 -4.117677170096137 C78.48025075549491 -3.741823810471795, 78.52871167985235 -3.3659704508474535, 78.64328092687991 -2.4773939951584394 M78.64328092687991 -2.4773939951584394 C78.66489759339602 -2.140696965510781, 78.68651425991214 -1.8039999358631227, 78.74924418763487 -0.8269306768952902 M78.64328092687991 -2.4773939951584394 C78.67931940268367 -1.916065644780641, 78.71535787848745 -1.3547372944028424, 78.74924418763487 -0.8269306768952902 M78.74924418763487 -0.8269306768952902 C78.74924418763487 -0.3763489512994886, 78.74924418763487 0.07423277429631303, 78.74924418763487 0.826930676895284 M78.74924418763487 -0.8269306768952902 C78.74924418763487 -0.3284568045124165, 78.74924418763487 0.17001706787045723, 78.74924418763487 0.826930676895284 M78.74924418763487 0.826930676895284 C78.72110600581685 1.2652055714426083, 78.69296782399881 1.7034804659899327, 78.64328092687991 2.4773939951584216 M78.74924418763487 0.826930676895284 C78.71503090976056 1.359830096248543, 78.68081763188624 1.8927295156018022, 78.64328092687991 2.4773939951584216 M78.64328092687991 2.4773939951584216 C78.56814514848433 3.060132255156881, 78.49300937008876 3.64287051515534, 78.43178983113748 4.117677170096119 M78.64328092687991 2.4773939951584216 C78.57260513979112 3.025541443306291, 78.50192935270235 3.57368889145416, 78.43178983113748 4.117677170096119 M78.43178983113748 4.117677170096119 C78.3486693901282 4.544483067167376, 78.26554894911891 4.971288964238633, 78.11563996268467 5.741039926302909 M78.43178983113748 4.117677170096119 C78.35712009566834 4.5010904802759875, 78.28245036019919 4.884503790455855, 78.11563996268467 5.741039926302909 M78.11563996268467 5.741039926302909 C78.00557635008714 6.160760183008744, 77.8955127374896 6.580480439714579, 77.6961304491449 7.340811518003306 M78.11563996268467 5.741039926302909 C77.99609513689899 6.196916158078968, 77.87655031111329 6.652792389855026, 77.6961304491449 7.340811518003306 M77.6961304491449 7.340811518003306 C77.52337412822352 7.861126031636754, 77.35061780730213 8.381440545270202, 77.17498514509383 8.910418140577105 M77.6961304491449 7.340811518003306 C77.54391144350919 7.799270910173144, 77.39169243787347 8.257730302342983, 77.17498514509383 8.910418140577105 M77.17498514509383 8.910418140577105 C76.95176434254762 9.461777838546876, 76.7285435400014 10.013137536516645, 76.55434554837109 10.443409943732577 M77.17498514509383 8.910418140577105 C77.01739925647881 9.299658332172083, 76.8598133678638 9.688898523767062, 76.55434554837109 10.443409943732577 M76.55434554837109 10.443409943732577 C76.31362366804528 10.943274078852244, 76.07290178771947 11.44313821397191, 75.8367620002064 11.933487535324835 M76.55434554837109 10.443409943732577 C76.30625815978915 10.958568714342709, 76.05817077120723 11.473727484952843, 75.8367620002064 11.933487535324835 M75.8367620002064 11.933487535324835 C75.60324860670256 12.348114211286063, 75.36973521319872 12.76274088724729, 75.02518320532037 13.374527866909402 M75.8367620002064 11.933487535324835 C75.6701758974739 12.229278029398479, 75.50358979474139 12.525068523472124, 75.02518320532037 13.374527866909402 M75.02518320532037 13.374527866909402 C74.78121786219255 13.749324147821183, 74.53725251906472 14.124120428732962, 74.12294411506429 14.760609394661596 M75.02518320532037 13.374527866909402 C74.804841090907 13.713032524790657, 74.58449897649363 14.051537182671913, 74.12294411506429 14.760609394661596 M74.12294411506429 14.760609394661596 C73.76747777268108 15.236901909805106, 73.41201143029788 15.713194424948615, 73.13375222338968 16.086036412270353 M74.12294411506429 14.760609394661596 C73.91985255801234 15.032733579089744, 73.71676100096037 15.30485776351789, 73.13375222338968 16.086036412270353 M73.13375222338968 16.086036412270353 C72.78596077113905 16.4945720419782, 72.43816931888843 16.90310767168604, 72.06167233196045 17.345362455817092 M73.13375222338968 16.086036412270353 C72.88022694660417 16.38384162837954, 72.62670166981864 16.68164684448873, 72.06167233196045 17.345362455817092 M72.06167233196045 17.345362455817092 C71.65751082830226 17.762692390620728, 71.25334932464406 18.180022325424368, 70.91110984701088 18.533412684464306 M72.06167233196045 17.345362455817092 C71.6979455009878 17.720940271324544, 71.33421867001515 18.096518086831995, 70.91110984701088 18.533412684464306 M70.91110984701088 18.533412684464306 C70.54312526841014 18.867606542411085, 70.1751406898094 19.201800400357865, 69.68679267658653 19.64530514498649 M70.91110984701088 18.533412684464306 C70.52353749599823 18.88539563905152, 70.13596514498559 19.23737859363873, 69.68679267658653 19.64530514498649 M69.68679267658653 19.64530514498649 C69.34978271593924 19.91406162039101, 69.01277275529196 20.182818095795525, 68.39375180255584 20.676470832763208 M69.68679267658653 19.64530514498649 C69.35310864205354 19.91140928282147, 69.01942460752055 20.17751342065645, 68.39375180255584 20.676470832763208 M68.39375180255584 20.676470832763208 C68.0473513985619 20.918104759157576, 67.70095099456796 21.159738685551947, 67.03730060722665 21.622672466799003 M68.39375180255584 20.676470832763208 C67.94074520575502 20.992468624351947, 67.4877386089542 21.30846641594069, 67.03730060722665 21.622672466799003 M67.03730060722665 21.622672466799003 C66.65098169237777 21.85686126324234, 66.26466277752887 22.091050059685678, 65.62301303951841 22.48002190162003 M67.03730060722665 21.622672466799003 C66.50343496269817 21.946304957854945, 65.96956931816966 22.269937448910888, 65.62301303951841 22.48002190162003 M65.62301303951841 22.48002190162003 C65.28798736217874 22.654804582893952, 64.95296168483905 22.829587264167873, 64.15670071041058 23.244996104497716 M65.62301303951841 22.48002190162003 C65.26097149612298 22.668898742910752, 64.89892995272754 22.857775584201473, 64.15670071041058 23.244996104497716 M64.15670071041058 23.244996104497716 C63.820715580033045 23.39372675507107, 63.48473044965551 23.542457405644427, 62.64438901178645 23.914451632345994 M64.15670071041058 23.244996104497716 C63.67122731118948 23.459900777276175, 63.18575391196839 23.674805450054635, 62.64438901178645 23.914451632345994 M62.64438901178645 23.914451632345994 C62.275690352962705 24.05013614700617, 61.906991694138966 24.18582066166635, 61.09229235680553 24.485637548803172 M62.64438901178645 23.914451632345994 C62.28278109794464 24.047526687306693, 61.921173184102834 24.180601742267392, 61.09229235680553 24.485637548803172 M61.09229235680553 24.485637548803172 C60.49521646306183 24.66284653995098, 59.89814056931813 24.84005553109879, 59.50678864354681 24.95620672841954 M61.09229235680553 24.485637548803172 C60.542990568261686 24.64866743629906, 59.993688779717836 24.81169732379495, 59.50678864354681 24.95620672841954 M59.50678864354681 24.95620672841954 C59.13993789581841 25.039938017663697, 58.773087148090006 25.12366930690785, 57.894393046857545 25.324225501499278 M59.50678864354681 24.95620672841954 C59.09688287621785 25.049765044927263, 58.68697710888889 25.143323361434987, 57.894393046857545 25.324225501499278 M57.894393046857545 25.324225501499278 C57.43807543347653 25.397999394434777, 56.98175782009552 25.471773287370276, 56.26173124610233 25.588181599964017 M57.894393046857545 25.324225501499278 C57.51568761745615 25.385451658420426, 57.13698218805476 25.446677815341577, 56.26173124610233 25.588181599964017 M56.26173124610233 25.588181599964017 C55.869178654131005 25.626050676397927, 55.47662606215968 25.663919752831834, 54.615512198825286 25.746990371586765 M56.26173124610233 25.588181599964017 C55.80295843321691 25.632438861468042, 55.34418562033148 25.676696122972068, 54.615512198825286 25.746990371586765 M54.615512198825286 25.746990371586765 C54.07627232559092 25.764282744754652, 53.537032452356556 25.781575117922536, 52.9625005722046 25.799999237060547 M54.615512198825286 25.746990371586765 C53.96309422151735 25.767912146264475, 53.31067624420942 25.788833920942185, 52.9625005722046 25.799999237060547 M52.9625005722046 25.799999237060547 C52.9625005722046 25.799999237060547, 52.96250057220459 25.799999237060547, 52.96250057220459 25.799999237060547 M52.9625005722046 25.799999237060547 C52.9625005722046 25.799999237060547, 52.9625005722046 25.799999237060547, 52.96250057220459 25.799999237060547 M52.96250057220459 25.799999237060547 C31.530034995810176 25.799999237060547, 10.097569419415763 25.799999237060547, -52.96250057220458 25.799999237060547 M52.96250057220459 25.799999237060547 C19.671889362398595 25.799999237060547, -13.6187218474074 25.799999237060547, -52.96250057220458 25.799999237060547 M-52.96250057220458 25.799999237060547 C-53.53809052423494 25.78154118761681, -54.1136804762653 25.763083138173073, -54.61551219882527 25.746990371586765 M-52.96250057220458 25.799999237060547 C-53.46707016787283 25.783818672212604, -53.971639763541084 25.76763810736466, -54.61551219882527 25.746990371586765 M-54.61551219882527 25.746990371586765 C-55.01729640826219 25.708230732118594, -55.4190806176991 25.669471092650422, -56.261731246102315 25.588181599964017 M-54.61551219882527 25.746990371586765 C-55.14700344998396 25.695718049799236, -55.67849470114265 25.644445728011707, -56.261731246102315 25.588181599964017 M-56.261731246102315 25.588181599964017 C-56.85055691479006 25.492984832261843, -57.43938258347781 25.397788064559666, -57.89439304685753 25.324225501499278 M-56.261731246102315 25.588181599964017 C-56.84862272009195 25.493297537860727, -57.4355141940816 25.39841347575744, -57.89439304685753 25.324225501499278 M-57.89439304685753 25.324225501499278 C-58.313227501418446 25.22862927039599, -58.732061955979354 25.133033039292705, -59.506788643546784 24.956206728419545 M-57.89439304685753 25.324225501499278 C-58.39131076650318 25.210807274681326, -58.88822848614883 25.09738904786337, -59.506788643546784 24.956206728419545 M-59.506788643546784 24.956206728419545 C-60.09640552958556 24.78121153160543, -60.686022415624336 24.606216334791313, -61.0922923568055 24.485637548803183 M-59.506788643546784 24.956206728419545 C-60.02424060425713 24.802629702641486, -60.54169256496748 24.649052676863423, -61.0922923568055 24.485637548803183 M-61.0922923568055 24.485637548803183 C-61.455181127247 24.35209112677369, -61.8180698976885 24.218544704744197, -62.644389011786444 23.914451632345997 M-61.0922923568055 24.485637548803183 C-61.567692822483174 24.310685782880068, -62.04309328816085 24.135734016956953, -62.644389011786444 23.914451632345997 M-62.644389011786444 23.914451632345997 C-63.08456139895417 23.719600373796787, -63.52473378612189 23.524749115247577, -64.15670071041056 23.244996104497723 M-62.644389011786444 23.914451632345997 C-63.01486490724421 23.750452943203815, -63.38534080270198 23.586454254061632, -64.15670071041056 23.244996104497723 M-64.15670071041056 23.244996104497723 C-64.68801587548504 22.967809323201973, -65.21933104055952 22.690622541906222, -65.6230130395184 22.480021901620038 M-64.15670071041056 23.244996104497723 C-64.49961108472827 23.06609998186075, -64.84252145904598 22.887203859223774, -65.6230130395184 22.480021901620038 M-65.6230130395184 22.480021901620038 C-66.02448565237327 22.236646844392457, -66.42595826522816 21.993271787164872, -67.03730060722663 21.622672466799017 M-65.6230130395184 22.480021901620038 C-65.9493097966183 22.282218889933493, -66.27560655371818 22.08441587824695, -67.03730060722663 21.622672466799017 M-67.03730060722663 21.622672466799017 C-67.47729277160326 21.315752979883698, -67.91728493597988 21.008833492968375, -68.39375180255584 20.67647083276321 M-67.03730060722663 21.622672466799017 C-67.40516938063249 21.366063135253626, -67.77303815403836 21.10945380370823, -68.39375180255584 20.67647083276321 M-68.39375180255584 20.67647083276321 C-68.6825004008667 20.44620150953321, -68.97124899917755 20.21593218630321, -69.6867926765865 19.645305144986512 M-68.39375180255584 20.67647083276321 C-68.6903483636907 20.43994296802413, -68.98694492482555 20.20341510328505, -69.6867926765865 19.645305144986512 M-69.6867926765865 19.645305144986512 C-69.99220735791796 19.36793561223093, -70.29762203924943 19.090566079475348, -70.91110984701086 18.533412684464324 M-69.6867926765865 19.645305144986512 C-69.95447611352387 19.40220213007564, -70.22215955046121 19.159099115164764, -70.91110984701086 18.533412684464324 M-70.91110984701086 18.533412684464324 C-71.26704915822557 18.1658761224742, -71.6229884694403 17.798339560484077, -72.06167233196044 17.3453624558171 M-70.91110984701086 18.533412684464324 C-71.29751549712287 18.134417126229806, -71.68392114723488 17.73542156799529, -72.06167233196044 17.3453624558171 M-72.06167233196044 17.3453624558171 C-72.32236670448326 17.03913601192177, -72.58306107700608 16.73290956802644, -73.13375222338968 16.08603641227036 M-72.06167233196044 17.3453624558171 C-72.34198083894327 17.01609613350918, -72.62228934592609 16.68682981120126, -73.13375222338968 16.08603641227036 M-73.13375222338968 16.08603641227036 C-73.34660269197785 15.800836175438807, -73.55945316056602 15.515635938607254, -74.12294411506427 14.760609394661614 M-73.13375222338968 16.08603641227036 C-73.36747362807809 15.772871022445885, -73.6011950327665 15.459705632621409, -74.12294411506427 14.760609394661614 M-74.12294411506427 14.760609394661614 C-74.4054236358472 14.32664499436682, -74.68790315663013 13.892680594072024, -75.02518320532036 13.374527866909418 M-74.12294411506427 14.760609394661614 C-74.34675614445648 14.416774015570239, -74.57056817384867 14.072938636478865, -75.02518320532036 13.374527866909418 M-75.02518320532036 13.374527866909418 C-75.22486625659546 13.019970389268943, -75.42454930787055 12.66541291162847, -75.83676200020639 11.933487535324842 M-75.02518320532036 13.374527866909418 C-75.3287063253988 12.835591832161432, -75.63222944547725 12.296655797413448, -75.83676200020639 11.933487535324842 M-75.83676200020639 11.933487535324842 C-75.98424349016659 11.627239065824119, -76.1317249801268 11.320990596323394, -76.55434554837109 10.443409943732586 M-75.83676200020639 11.933487535324842 C-76.00462734629832 11.58491155242193, -76.17249269239025 11.23633556951902, -76.55434554837109 10.443409943732586 M-76.55434554837109 10.443409943732586 C-76.70242884486505 10.077641338396717, -76.85051214135902 9.711872733060847, -77.17498514509381 8.910418140577127 M-76.55434554837109 10.443409943732586 C-76.69530615121572 10.095234529418507, -76.83626675406033 9.747059115104427, -77.17498514509381 8.910418140577127 M-77.17498514509381 8.910418140577127 C-77.3195495647359 8.475013141827485, -77.46411398437797 8.039608143077846, -77.6961304491449 7.340811518003316 M-77.17498514509381 8.910418140577127 C-77.2858410330031 8.57653786868152, -77.39669692091236 8.24265759678591, -77.6961304491449 7.340811518003316 M-77.6961304491449 7.340811518003316 C-77.8374968359423 6.8017202165652515, -77.97886322273969 6.262628915127186, -78.11563996268467 5.741039926302918 M-77.6961304491449 7.340811518003316 C-77.827011069778 6.841706987509557, -77.95789169041107 6.342602457015798, -78.11563996268467 5.741039926302918 M-78.11563996268467 5.741039926302918 C-78.23846698733655 5.11034911421637, -78.36129401198843 4.479658302129823, -78.43178983113748 4.117677170096139 M-78.11563996268467 5.741039926302918 C-78.21715520699493 5.2197806020242306, -78.3186704513052 4.698521277745543, -78.43178983113748 4.117677170096139 M-78.43178983113748 4.117677170096139 C-78.49535130471907 3.624706932630023, -78.55891277830064 3.1317366951639065, -78.64328092687991 2.477393995158454 M-78.43178983113748 4.117677170096139 C-78.47855356673503 3.754986871345568, -78.5253173023326 3.3922965725949967, -78.64328092687991 2.477393995158454 M-78.64328092687991 2.477393995158454 C-78.66500136910108 2.1390805751384754, -78.68672181132223 1.8007671551184967, -78.74924418763487 0.8269306768952934 M-78.64328092687991 2.477393995158454 C-78.67899064988104 1.9211862350460827, -78.71470037288219 1.3649784749337115, -78.74924418763487 0.8269306768952934 M-78.74924418763487 0.8269306768952934 C-78.74924418763487 0.4668495613937867, -78.74924418763487 0.10676844589227996, -78.74924418763487 -0.8269306768952809 M-78.74924418763487 0.8269306768952934 C-78.74924418763487 0.16898400305312267, -78.74924418763487 -0.4889626707890481, -78.74924418763487 -0.8269306768952809 M-78.74924418763487 -0.8269306768952809 C-78.71660725502514 -1.3352772463496174, -78.68397032241542 -1.843623815803954, -78.64328092687991 -2.4773939951584185 M-78.74924418763487 -0.8269306768952809 C-78.70847689605247 -1.4619141500565076, -78.66770960447009 -2.0968976232177345, -78.64328092687991 -2.4773939951584185 M-78.64328092687991 -2.4773939951584185 C-78.59364126111534 -2.862389440367702, -78.54400159535076 -3.247384885576986, -78.43178983113748 -4.117677170096128 M-78.64328092687991 -2.4773939951584185 C-78.56100706795621 -3.1154937981595854, -78.47873320903251 -3.7535936011607527, -78.43178983113748 -4.117677170096128 M-78.43178983113748 -4.117677170096128 C-78.34499019579141 -4.563374952488747, -78.25819056044534 -5.009072734881366, -78.11563996268467 -5.741039926302906 M-78.43178983113748 -4.117677170096128 C-78.33954664407472 -4.591326440058879, -78.24730345701197 -5.0649757100216295, -78.11563996268467 -5.741039926302906 M-78.11563996268467 -5.741039926302906 C-77.96361313319997 -6.320784115972734, -77.81158630371527 -6.900528305642562, -77.6961304491449 -7.340811518003303 M-78.11563996268467 -5.741039926302906 C-77.9833709317295 -6.245439067095593, -77.85110190077434 -6.7498382078882795, -77.6961304491449 -7.340811518003303 M-77.6961304491449 -7.340811518003303 C-77.58411268044985 -7.678191189705103, -77.47209491175481 -8.015570861406903, -77.17498514509383 -8.910418140577093 M-77.6961304491449 -7.340811518003303 C-77.5134290754151 -7.8910789461666955, -77.33072770168532 -8.441346374330088, -77.17498514509383 -8.910418140577093 M-77.17498514509383 -8.910418140577093 C-77.01705022457084 -9.300520447732845, -76.85911530404785 -9.690622754888599, -76.55434554837109 -10.443409943732574 M-77.17498514509383 -8.910418140577093 C-76.94876816902813 -9.469178445067062, -76.72255119296244 -10.027938749557032, -76.55434554837109 -10.443409943732574 M-76.55434554837109 -10.443409943732574 C-76.3886032815956 -10.78757730700825, -76.22286101482014 -11.131744670283927, -75.8367620002064 -11.933487535324831 M-76.55434554837109 -10.443409943732574 C-76.26964320033268 -11.0346004610887, -75.98494085229429 -11.625790978444828, -75.8367620002064 -11.933487535324831 M-75.8367620002064 -11.933487535324831 C-75.62844347385527 -12.303378173399466, -75.42012494750415 -12.673268811474099, -75.02518320532036 -13.374527866909409 M-75.8367620002064 -11.933487535324831 C-75.65032657358853 -12.264522513918934, -75.46389114697067 -12.595557492513038, -75.02518320532036 -13.374527866909409 M-75.02518320532036 -13.374527866909409 C-74.78079477921044 -13.749974116895373, -74.53640635310052 -14.125420366881338, -74.12294411506429 -14.760609394661605 M-75.02518320532036 -13.374527866909409 C-74.82386558279983 -13.683805796451892, -74.6225479602793 -13.993083725994374, -74.12294411506429 -14.760609394661605 M-74.12294411506429 -14.760609394661605 C-73.91122938869363 -15.044287840389927, -73.69951466232297 -15.327966286118247, -73.13375222338968 -16.086036412270353 M-74.12294411506429 -14.760609394661605 C-73.8852589789903 -15.079085823439403, -73.6475738429163 -15.397562252217199, -73.13375222338968 -16.086036412270353 M-73.13375222338968 -16.086036412270353 C-72.871086604065 -16.394578394826272, -72.6084209847403 -16.703120377382188, -72.06167233196045 -17.345362455817092 M-73.13375222338968 -16.086036412270353 C-72.793524264087 -16.4856875327866, -72.45329630478432 -16.885338653302842, -72.06167233196045 -17.345362455817092 M-72.06167233196045 -17.345362455817092 C-71.64105937884067 -17.779679862878943, -71.2204464257209 -18.213997269940794, -70.91110984701089 -18.5334126844643 M-72.06167233196045 -17.345362455817092 C-71.65062294589426 -17.769804694712658, -71.23957355982806 -18.194246933608223, -70.91110984701089 -18.5334126844643 M-70.91110984701089 -18.5334126844643 C-70.53516913494795 -18.874832092313685, -70.15922842288502 -19.216251500163075, -69.68679267658653 -19.645305144986487 M-70.91110984701089 -18.5334126844643 C-70.42833641025052 -18.971854746244894, -69.94556297349015 -19.41029680802549, -69.68679267658653 -19.645305144986487 M-69.68679267658653 -19.645305144986487 C-69.33164022832084 -19.928529771474818, -68.97648778005514 -20.211754397963148, -68.39375180255585 -20.676470832763204 M-69.68679267658653 -19.645305144986487 C-69.30590227407428 -19.94905510507072, -68.92501187156202 -20.252805065154952, -68.39375180255585 -20.676470832763204 M-68.39375180255585 -20.676470832763204 C-68.01245260646438 -20.942448645780452, -67.63115341037289 -21.2084264587977, -67.03730060722665 -21.622672466799 M-68.39375180255585 -20.676470832763204 C-68.06909050176058 -20.90294050183679, -67.7444292009653 -21.12941017091038, -67.03730060722665 -21.622672466799 M-67.03730060722665 -21.622672466799 C-66.60134665995292 -21.886950311586098, -66.1653927126792 -22.1512281563732, -65.62301303951841 -22.480021901620027 M-67.03730060722665 -21.622672466799 C-66.53445936263888 -21.92749778429127, -66.0316181180511 -22.232323101783535, -65.62301303951841 -22.480021901620027 M-65.62301303951841 -22.480021901620027 C-65.23844128169088 -22.68065274134868, -64.85386952386335 -22.881283581077337, -64.15670071041058 -23.244996104497716 M-65.62301303951841 -22.480021901620027 C-65.15983276938901 -22.721662751865413, -64.69665249925961 -22.9633036021108, -64.15670071041058 -23.244996104497716 M-64.15670071041058 -23.244996104497716 C-63.84606624743308 -23.382504766613906, -63.53543178445558 -23.520013428730095, -62.64438901178645 -23.91445163234599 M-64.15670071041058 -23.244996104497716 C-63.64101887444695 -23.473273156120655, -63.12533703848333 -23.701550207743594, -62.64438901178645 -23.91445163234599 M-62.64438901178645 -23.91445163234599 C-62.08686020910695 -24.1196273854718, -61.52933140642745 -24.324803138597616, -61.09229235680553 -24.485637548803172 M-62.64438901178645 -23.91445163234599 C-62.296884992740054 -24.042336323647003, -61.94938097369366 -24.170221014948016, -61.09229235680553 -24.485637548803172 M-61.09229235680553 -24.485637548803172 C-60.57951364138465 -24.637827579909686, -60.06673492596377 -24.7900176110162, -59.50678864354682 -24.956206728419538 M-61.09229235680553 -24.485637548803172 C-60.573110075493155 -24.639728124653278, -60.05392779418078 -24.793818700503387, -59.50678864354682 -24.956206728419538 M-59.50678864354682 -24.956206728419538 C-59.15001567237154 -25.037637830929082, -58.793242701196256 -25.119068933438626, -57.894393046857545 -25.324225501499278 M-59.50678864354682 -24.956206728419538 C-59.15176508642053 -25.037238538588394, -58.796741529294245 -25.118270348757246, -57.894393046857545 -25.324225501499278 M-57.894393046857545 -25.324225501499278 C-57.412890765280956 -25.40207105627862, -56.93138848370436 -25.47991661105796, -56.26173124610233 -25.588181599964017 M-57.894393046857545 -25.324225501499278 C-57.460732950526804 -25.394336302789757, -57.02707285419606 -25.464447104080236, -56.26173124610233 -25.588181599964017 M-56.26173124610233 -25.588181599964017 C-55.66764316910566 -25.64549256225644, -55.07355509210898 -25.702803524548862, -54.615512198825286 -25.746990371586765 M-56.26173124610233 -25.588181599964017 C-55.916712265433645 -25.62146516608309, -55.571693284764955 -25.65474873220217, -54.615512198825286 -25.746990371586765 M-54.615512198825286 -25.746990371586765 C-54.27663797356432 -25.757857408412217, -53.93776374830336 -25.768724445237673, -52.9625005722046 -25.799999237060547 M-54.615512198825286 -25.746990371586765 C-54.12344442071069 -25.762770027479075, -53.631376642596095 -25.77854968337138, -52.9625005722046 -25.799999237060547 M-52.9625005722046 -25.799999237060547 C-52.9625005722046 -25.799999237060547, -52.96250057220459 -25.799999237060547, -52.96250057220459 -25.799999237060547 M-52.9625005722046 -25.799999237060547 C-52.9625005722046 -25.799999237060547, -52.96250057220459 -25.799999237060547, -52.96250057220459 -25.799999237060547" stroke="#1F4870" stroke-width="1.3" fill="none" stroke-dasharray="0 0" style="fill:#2E5A88 !important;stroke:#1F4870 !important"></path></g><g class="label" style="color:#ffffff !important" transform="translate(0, -18.299999237060547)"><rect></rect><g><rect class="background" style="stroke: none"></rect><text y="-10.1" style="fill:#404040 !important"><tspan class="text-outer-tspan row" x="0" y="-0.1em" dy="1.1em"><tspan font-style="normal" class="text-inner-tspan" font-weight="normal">Two</tspan><tspan font-style="normal" class="text-inner-tspan" font-weight="normal"> rules</tspan><tspan font-style="normal" class="text-inner-tspan" font-weight="normal"> match</tspan></tspan><tspan class="text-outer-tspan row" x="0" y="1em" dy="1.1em"><tspan font-style="normal" class="text-inner-tspan" font-weight="normal">the</tspan><tspan font-style="normal" class="text-inner-tspan" font-weight="normal"> same</tspan><tspan font-style="normal" class="text-inner-tspan" font-weight="normal"> element</tspan></tspan></text></g></g></g><g class="node default question" id="gdeb64264-5105-4e74-83e4-aa94b718c22c-dark-flowchart-Origin-1" data-look="classic" transform="translate(226.43515396118164, 223.6843719482422)"><polygon points="114.0843734741211,0 228.1687469482422,-114.0843734741211 114.0843734741211,-228.1687469482422 0,-114.0843734741211" class="label-container" transform="translate(-113.5843734741211, 114.0843734741211)" style="fill:#5A5A5A !important;stroke:#3D3D3D !important"></polygon><g class="label" style="color:#ffffff !important" transform="translate(0, -27.099998474121094)"><rect></rect><g><rect class="background" style="stroke: none"></rect><text y="-10.1" style="fill:#404040 !important"><tspan class="text-outer-tspan row" x="0" y="-0.1em" dy="1.1em"><tspan font-style="normal" class="text-inner-tspan" font-weight="normal">Different</tspan></tspan><tspan class="text-outer-tspan row" x="0" y="1em" dy="1.1em"><tspan font-style="normal" class="text-inner-tspan" font-weight="normal">origin?</tspan></tspan><tspan class="text-outer-tspan row" x="0" y="2.1em" dy="1.1em"><tspan font-style="normal" class="text-inner-tspan" font-weight="normal">(UA</tspan><tspan font-style="normal" class="text-inner-tspan" font-weight="normal"> /</tspan><tspan font-style="normal" class="text-inner-tspan" font-weight="normal"> user</tspan><tspan font-style="normal" class="text-inner-tspan" font-weight="normal"> /</tspan><tspan font-style="normal" class="text-inner-tspan" font-weight="normal"> author)</tspan></tspan></text></g></g></g><g class="node default result" id="gdeb64264-5105-4e74-83e4-aa94b718c22c-dark-flowchart-OriginWin-3" data-look="classic" transform="translate(112.9765625, 482.70936584472656)"><rect class="basic label-container" style="fill:#2D7A2D !important;stroke:#1E5A1E !important" x="-104.9765625" y="-33.29999923706055" width="209.953125" height="66.5999984741211"></rect><g class="label" style="color:#ffffff !important" transform="translate(0, -18.299999237060547)"><rect></rect><g><rect class="background" style="stroke: none"></rect><text y="-10.1" style="fill:#404040 !important"><tspan class="text-outer-tspan row" x="0" y="-0.1em" dy="1.1em"><tspan font-style="normal" class="text-inner-tspan" font-weight="normal">Higher</tspan><tspan font-style="normal" class="text-inner-tspan" font-weight="normal"> origin</tspan><tspan font-style="normal" class="text-inner-tspan" font-weight="normal"> wins</tspan></tspan><tspan class="text-outer-tspan row" x="0" y="1em" dy="1.1em"><tspan font-style="normal" class="text-inner-tspan" font-weight="normal">(per</tspan><tspan font-style="normal" class="text-inner-tspan" font-weight="normal"> CSS</tspan><tspan font-style="normal" class="text-inner-tspan" font-weight="normal"> Cascade</tspan><tspan font-style="normal" class="text-inner-tspan" font-weight="normal"> L5)</tspan></tspan></text></g></g></g><g class="node default question" id="gdeb64264-5105-4e74-83e4-aa94b718c22c-dark-flowchart-Important-5" data-look="classic" transform="translate(339.8937454223633, 482.70936584472656)"><polygon points="71.94062423706055,0 143.8812484741211,-71.94062423706055 71.94062423706055,-143.8812484741211 0,-71.94062423706055" class="label-container" transform="translate(-71.44062423706055, 71.94062423706055)" style="fill:#5A5A5A !important;stroke:#3D3D3D !important"></polygon><g class="label" style="color:#ffffff !important" transform="translate(0, -18.299999237060547)"><rect></rect><g><rect class="background" style="stroke: none"></rect><text y="-10.1" style="fill:#404040 !important"><tspan class="text-outer-tspan row" x="0" y="-0.1em" dy="1.1em"><tspan font-style="normal" class="text-inner-tspan" font-weight="normal">!important</tspan></tspan><tspan class="text-outer-tspan row" x="0" y="1em" dy="1.1em"><tspan font-style="normal" class="text-inner-tspan" font-weight="normal">flag?</tspan></tspan></text></g></g></g><g class="node default result" id="gdeb64264-5105-4e74-83e4-aa94b718c22c-dark-flowchart-ImportantOrder-7" data-look="classic" transform="translate(230.90390014648438, 693.4343643188477)"><rect class="basic label-container" style="fill:#2D7A2D !important;stroke:#1E5A1E !important" x="-102.1953125" y="-33.29999923706055" width="204.390625" height="66.5999984741211"></rect><g class="label" style="color:#ffffff !important" transform="translate(0, -18.299999237060547)"><rect></rect><g><rect class="background" style="stroke: none"></rect><text y="-10.1" style="fill:#404040 !important"><tspan class="text-outer-tspan row" x="0" y="-0.1em" dy="1.1em"><tspan font-style="normal" class="text-inner-tspan" font-weight="normal">Reverse</tspan><tspan font-style="normal" class="text-inner-tspan" font-weight="normal"> origin</tspan><tspan font-style="normal" class="text-inner-tspan" font-weight="normal"> order</tspan></tspan><tspan class="text-outer-tspan row" x="0" y="1em" dy="1.1em"><tspan font-style="normal" class="text-inner-tspan" font-weight="normal">for</tspan><tspan font-style="normal" class="text-inner-tspan" font-weight="normal"> important</tspan><tspan font-style="normal" class="text-inner-tspan" font-weight="normal"> rules</tspan></tspan></text></g></g></g><g class="node default question" id="gdeb64264-5105-4e74-83e4-aa94b718c22c-dark-flowchart-Layer-9" data-look="classic" transform="translate(448.8835906982422, 693.4343643188477)"><polygon points="65.78437423706055,0 131.5687484741211,-65.78437423706055 65.78437423706055,-131.5687484741211 0,-65.78437423706055" class="label-container" transform="translate(-65.28437423706055, 65.78437423706055)" style="fill:#5A5A5A !important;stroke:#3D3D3D !important"></polygon><g class="label" style="color:#ffffff !important" transform="translate(0, -18.299999237060547)"><rect></rect><g><rect class="background" style="stroke: none"></rect><text y="-10.1" style="fill:#404040 !important"><tspan class="text-outer-tspan row" x="0" y="-0.1em" dy="1.1em"><tspan font-style="normal" class="text-inner-tspan" font-weight="normal">Different</tspan></tspan><tspan class="text-outer-tspan row" x="0" y="1em" dy="1.1em"><tspan font-style="normal" class="text-inner-tspan" font-weight="normal">@layer?</tspan></tspan></text></g></g></g><g class="node default result" id="gdeb64264-5105-4e74-83e4-aa94b718c22c-dark-flowchart-LayerOrder-11" data-look="classic" transform="translate(326.4367141723633, 905.3546829223633)"><rect class="basic label-container" style="fill:#2D7A2D !important;stroke:#1E5A1E !important" x="-121.7578125" y="-33.29999923706055" width="243.515625" height="66.5999984741211"></rect><g class="label" style="color:#ffffff !important" transform="translate(0, -18.299999237060547)"><rect></rect><g><rect class="background" style="stroke: none"></rect><text y="-10.1" style="fill:#404040 !important"><tspan class="text-outer-tspan row" x="0" y="-0.1em" dy="1.1em"><tspan font-style="normal" class="text-inner-tspan" font-weight="normal">Later-declared</tspan><tspan font-style="normal" class="text-inner-tspan" font-weight="normal"> layer</tspan><tspan font-style="normal" class="text-inner-tspan" font-weight="normal"> wins</tspan></tspan><tspan class="text-outer-tspan row" x="0" y="1em" dy="1.1em"><tspan font-style="normal" class="text-inner-tspan" font-weight="normal">(unlayered</tspan><tspan font-style="normal" class="text-inner-tspan" font-weight="normal"> =</tspan><tspan font-style="normal" class="text-inner-tspan" font-weight="normal"> highest)</tspan></tspan></text></g></g></g><g class="node default question" id="gdeb64264-5105-4e74-83e4-aa94b718c22c-dark-flowchart-Specificity-13" data-look="classic" transform="translate(571.3304672241211, 905.3546829223633)"><polygon points="73.13593673706055,0 146.2718734741211,-73.13593673706055 73.13593673706055,-146.2718734741211 0,-73.13593673706055" class="label-container" transform="translate(-72.63593673706055, 73.13593673706055)" style="fill:#5A5A5A !important;stroke:#3D3D3D !important"></polygon><g class="label" style="color:#ffffff !important" transform="translate(0, -18.299999237060547)"><rect></rect><g><rect class="background" style="stroke: none"></rect><text y="-10.1" style="fill:#404040 !important"><tspan class="text-outer-tspan row" x="0" y="-0.1em" dy="1.1em"><tspan font-style="normal" class="text-inner-tspan" font-weight="normal">Different</tspan></tspan><tspan class="text-outer-tspan row" x="0" y="1em" dy="1.1em"><tspan font-style="normal" class="text-inner-tspan" font-weight="normal">specificity?</tspan></tspan></text></g></g></g><g class="node default result" id="gdeb64264-5105-4e74-83e4-aa94b718c22c-dark-flowchart-SpecWin-15" data-look="classic" transform="translate(423.9242172241211, 1084.7906227111816)"><rect class="basic label-container" style="fill:#2D7A2D !important;stroke:#1E5A1E !important" x="-126.9765625" y="-33.29999923706055" width="253.953125" height="66.5999984741211"></rect><g class="label" style="color:#ffffff !important" transform="translate(0, -18.299999237060547)"><rect></rect><g><rect class="background" style="stroke: none"></rect><text y="-10.1" style="fill:#404040 !important"><tspan class="text-outer-tspan row" x="0" y="-0.1em" dy="1.1em"><tspan font-style="normal" class="text-inner-tspan" font-weight="normal">Higher</tspan><tspan font-style="normal" class="text-inner-tspan" font-weight="normal"> specificity</tspan><tspan font-style="normal" class="text-inner-tspan" font-weight="normal"> wins</tspan></tspan><tspan class="text-outer-tspan row" x="0" y="1em" dy="1.1em"><tspan font-style="normal" class="text-inner-tspan" font-weight="normal">(0,0,1)</tspan><tspan font-style="normal" class="text-inner-tspan" font-weight="normal"> vs</tspan><tspan font-style="normal" class="text-inner-tspan" font-weight="normal"> (0,1,0)</tspan><tspan font-style="normal" class="text-inner-tspan" font-weight="normal"> vs</tspan><tspan font-style="normal" class="text-inner-tspan" font-weight="normal"> (1,0,0)</tspan></tspan></text></g></g></g><g class="node default result" id="gdeb64264-5105-4e74-83e4-aa94b718c22c-dark-flowchart-SourceOrder-17" data-look="classic" transform="translate(718.7367172241211, 1084.7906227111816)"><rect class="basic label-container" style="fill:#2D7A2D !important;stroke:#1E5A1E !important" x="-117.8359375" y="-33.29999923706055" width="235.671875" height="66.5999984741211"></rect><g class="label" style="color:#ffffff !important" transform="translate(0, -18.299999237060547)"><rect></rect><g><rect class="background" style="stroke: none"></rect><text y="-10.1" style="fill:#404040 !important"><tspan class="text-outer-tspan row" x="0" y="-0.1em" dy="1.1em"><tspan font-style="normal" class="text-inner-tspan" font-weight="normal">Last</tspan><tspan font-style="normal" class="text-inner-tspan" font-weight="normal"> rule</tspan><tspan font-style="normal" class="text-inner-tspan" font-weight="normal"> in</tspan><tspan font-style="normal" class="text-inner-tspan" font-weight="normal"> source</tspan><tspan font-style="normal" class="text-inner-tspan" font-weight="normal"> order</tspan></tspan><tspan class="text-outer-tspan row" x="0" y="1em" dy="1.1em"><tspan font-style="normal" class="text-inner-tspan" font-weight="normal">wins</tspan></tspan></text></g></g></g></g></g></g><defs><filter id="gdeb64264-5105-4e74-83e4-aa94b718c22c-dark-drop-shadow" height="130%" width="130%"><feDropShadow dx="4" dy="4" stdDeviation="0" flood-opacity="0.06" flood-color="#000000"></feDropShadow></filter></defs><defs><filter id="gdeb64264-5105-4e74-83e4-aa94b718c22c-dark-drop-shadow-small" height="150%" width="150%"><feDropShadow dx="2" dy="2" stdDeviation="0" flood-opacity="0.06" flood-color="#000000"></feDropShadow></filter></defs><linearGradient id="gdeb64264-5105-4e74-83e4-aa94b718c22c-dark-gradient" gradientUnits="objectBoundingBox" x1="0%" y1="0%" x2="100%" y2="0%"><stop offset="0%" stop-color="#555555" stop-opacity="1"></stop><stop offset="100%" stop-color="#555555" stop-opacity="1"></stop></linearGradient></svg>