<svg id="g96e33473-1173-4ccd-82d9-5430a53011e3-dark" width="100%" xmlns="http://www.w3.org/2000/svg" xmlns:xlink="http://www.w3.org/1999/xlink" class="flowchart" style="max-width: 808.8125px;" viewBox="0 0 808.8125 1216.7750244140625" role="graphics-document document" aria-roledescription="flowchart-v2"><style>#g96e33473-1173-4ccd-82d9-5430a53011e3-dark{font-family:"trebuchet ms",verdana,arial,sans-serif;font-size:16px;fill:#e5e5e5;}@keyframes edge-animation-frame{from{stroke-dashoffset:0;}}@keyframes dash{to{stroke-dashoffset:0;}}#g96e33473-1173-4ccd-82d9-5430a53011e3-dark .edge-animation-slow{stroke-dasharray:9,5!important;stroke-dashoffset:900;animation:dash 50s linear infinite;stroke-linecap:round;}#g96e33473-1173-4ccd-82d9-5430a53011e3-dark .edge-animation-fast{stroke-dasharray:9,5!important;stroke-dashoffset:900;animation:dash 20s linear infinite;stroke-linecap:round;}#g96e33473-1173-4ccd-82d9-5430a53011e3-dark .error-icon{fill:#252525;}#g96e33473-1173-4ccd-82d9-5430a53011e3-dark .error-text{fill:#cccccc;stroke:#cccccc;}#g96e33473-1173-4ccd-82d9-5430a53011e3-dark .edge-thickness-normal{stroke-width:1px;}#g96e33473-1173-4ccd-82d9-5430a53011e3-dark .edge-thickness-thick{stroke-width:3.5px;}#g96e33473-1173-4ccd-82d9-5430a53011e3-dark .edge-pattern-solid{stroke-dasharray:0;}#g96e33473-1173-4ccd-82d9-5430a53011e3-dark .edge-thickness-invisible{stroke-width:0;fill:none;}#g96e33473-1173-4ccd-82d9-5430a53011e3-dark .edge-pattern-dashed{stroke-dasharray:3;}#g96e33473-1173-4ccd-82d9-5430a53011e3-dark .edge-pattern-dotted{stroke-dasharray:2;}#g96e33473-1173-4ccd-82d9-5430a53011e3-dark .marker{fill:#cccccc;stroke:#cccccc;}#g96e33473-1173-4ccd-82d9-5430a53011e3-dark .marker.cross{stroke:#cccccc;}#g96e33473-1173-4ccd-82d9-5430a53011e3-dark svg{font-family:"trebuchet ms",verdana,arial,sans-serif;font-size:16px;}#g96e33473-1173-4ccd-82d9-5430a53011e3-dark p{margin:0;}#g96e33473-1173-4ccd-82d9-5430a53011e3-dark .label{font-family:"trebuchet ms",verdana,arial,sans-serif;color:#e5e5e5;}#g96e33473-1173-4ccd-82d9-5430a53011e3-dark .cluster-label text{fill:#e5e5e5;}#g96e33473-1173-4ccd-82d9-5430a53011e3-dark .cluster-label span{color:#e5e5e5;}#g96e33473-1173-4ccd-82d9-5430a53011e3-dark .cluster-label span p{background-color:transparent;}#g96e33473-1173-4ccd-82d9-5430a53011e3-dark .label text,#g96e33473-1173-4ccd-82d9-5430a53011e3-dark span{fill:#e5e5e5;color:#e5e5e5;}#g96e33473-1173-4ccd-82d9-5430a53011e3-dark .node rect,#g96e33473-1173-4ccd-82d9-5430a53011e3-dark .node circle,#g96e33473-1173-4ccd-82d9-5430a53011e3-dark .node ellipse,#g96e33473-1173-4ccd-82d9-5430a53011e3-dark .node polygon,#g96e33473-1173-4ccd-82d9-5430a53011e3-dark .node path{fill:#2d2d2d;stroke:#555555;stroke-width:1px;}#g96e33473-1173-4ccd-82d9-5430a53011e3-dark .rough-node .label text,#g96e33473-1173-4ccd-82d9-5430a53011e3-dark .node .label text,#g96e33473-1173-4ccd-82d9-5430a53011e3-dark .image-shape .label,#g96e33473-1173-4ccd-82d9-5430a53011e3-dark .icon-shape .label{text-anchor:middle;}#g96e33473-1173-4ccd-82d9-5430a53011e3-dark .node .katex path{fill:#000;stroke:#000;stroke-width:1px;}#g96e33473-1173-4ccd-82d9-5430a53011e3-dark .rough-node .label,#g96e33473-1173-4ccd-82d9-5430a53011e3-dark .node .label,#g96e33473-1173-4ccd-82d9-5430a53011e3-dark .image-shape .label,#g96e33473-1173-4ccd-82d9-5430a53011e3-dark .icon-shape .label{text-align:center;}#g96e33473-1173-4ccd-82d9-5430a53011e3-dark .node.clickable{cursor:pointer;}#g96e33473-1173-4ccd-82d9-5430a53011e3-dark .root .anchor path{fill:#cccccc!important;stroke-width:0;stroke:#cccccc;}#g96e33473-1173-4ccd-82d9-5430a53011e3-dark .arrowheadPath{fill:#cccccc;}#g96e33473-1173-4ccd-82d9-5430a53011e3-dark .edgePath .path{stroke:#cccccc;stroke-width:1px;}#g96e33473-1173-4ccd-82d9-5430a53011e3-dark .flowchart-link{stroke:#cccccc;fill:none;}#g96e33473-1173-4ccd-82d9-5430a53011e3-dark .edgeLabel{background-color:#1e1e1e;text-align:center;}#g96e33473-1173-4ccd-82d9-5430a53011e3-dark .edgeLabel p{background-color:#1e1e1e;}#g96e33473-1173-4ccd-82d9-5430a53011e3-dark .edgeLabel rect{opacity:0.5;background-color:#1e1e1e;fill:#1e1e1e;}#g96e33473-1173-4ccd-82d9-5430a53011e3-dark .labelBkg{background-color:rgba(30, 30, 30, 0.5);}#g96e33473-1173-4ccd-82d9-5430a53011e3-dark .cluster rect{fill:#1e1e1e;stroke:#555555;stroke-width:1px;}#g96e33473-1173-4ccd-82d9-5430a53011e3-dark .cluster text{fill:#e5e5e5;}#g96e33473-1173-4ccd-82d9-5430a53011e3-dark .cluster span{color:#e5e5e5;}#g96e33473-1173-4ccd-82d9-5430a53011e3-dark div.mermaidTooltip{position:absolute;text-align:center;max-width:200px;padding:2px;font-family:"trebuchet ms",verdana,arial,sans-serif;font-size:12px;background:#252525;border:1px solid #555555;border-radius:2px;pointer-events:none;z-index:100;}#g96e33473-1173-4ccd-82d9-5430a53011e3-dark .flowchartTitleText{text-anchor:middle;font-size:18px;fill:#e5e5e5;}#g96e33473-1173-4ccd-82d9-5430a53011e3-dark rect.text{fill:none;stroke-width:0;}#g96e33473-1173-4ccd-82d9-5430a53011e3-dark .icon-shape,#g96e33473-1173-4ccd-82d9-5430a53011e3-dark .image-shape{background-color:#1e1e1e;text-align:center;}#g96e33473-1173-4ccd-82d9-5430a53011e3-dark .icon-shape p,#g96e33473-1173-4ccd-82d9-5430a53011e3-dark .image-shape p{background-color:#1e1e1e;padding:2px;}#g96e33473-1173-4ccd-82d9-5430a53011e3-dark .icon-shape .label rect,#g96e33473-1173-4ccd-82d9-5430a53011e3-dark .image-shape .label rect{opacity:0.5;background-color:#1e1e1e;fill:#1e1e1e;}#g96e33473-1173-4ccd-82d9-5430a53011e3-dark .label-icon{display:inline-block;height:1em;overflow:visible;vertical-align:-0.125em;}#g96e33473-1173-4ccd-82d9-5430a53011e3-dark .node .label-icon path{fill:currentColor;stroke:revert;stroke-width:revert;}#g96e33473-1173-4ccd-82d9-5430a53011e3-dark .node .neo-node{stroke:#555555;}#g96e33473-1173-4ccd-82d9-5430a53011e3-dark [data-look="neo"].node rect,#g96e33473-1173-4ccd-82d9-5430a53011e3-dark [data-look="neo"].cluster rect,#g96e33473-1173-4ccd-82d9-5430a53011e3-dark [data-look="neo"].node polygon{stroke:url(#g96e33473-1173-4ccd-82d9-5430a53011e3-dark-gradient);filter:drop-shadow( 1px 2px 2px rgba(185,185,185,1));}#g96e33473-1173-4ccd-82d9-5430a53011e3-dark [data-look="neo"].node path{stroke:url(#g96e33473-1173-4ccd-82d9-5430a53011e3-dark-gradient);stroke-width:1px;}#g96e33473-1173-4ccd-82d9-5430a53011e3-dark [data-look="neo"].node .outer-path{filter:drop-shadow( 1px 2px 2px rgba(185,185,185,1));}#g96e33473-1173-4ccd-82d9-5430a53011e3-dark [data-look="neo"].node .neo-line path{stroke:#555555;filter:none;}#g96e33473-1173-4ccd-82d9-5430a53011e3-dark [data-look="neo"].node circle{stroke:url(#g96e33473-1173-4ccd-82d9-5430a53011e3-dark-gradient);filter:drop-shadow( 1px 2px 2px rgba(185,185,185,1));}#g96e33473-1173-4ccd-82d9-5430a53011e3-dark [data-look="neo"].node circle .state-start{fill:#000000;}#g96e33473-1173-4ccd-82d9-5430a53011e3-dark [data-look="neo"].icon-shape .icon{fill:url(#g96e33473-1173-4ccd-82d9-5430a53011e3-dark-gradient);filter:drop-shadow( 1px 2px 2px rgba(185,185,185,1));}#g96e33473-1173-4ccd-82d9-5430a53011e3-dark [data-look="neo"].icon-shape .icon-neo path{stroke:url(#g96e33473-1173-4ccd-82d9-5430a53011e3-dark-gradient);filter:drop-shadow( 1px 2px 2px rgba(185,185,185,1));}#g96e33473-1173-4ccd-82d9-5430a53011e3-dark :root{--mermaid-font-family:"trebuchet ms",verdana,arial,sans-serif;}#g96e33473-1173-4ccd-82d9-5430a53011e3-dark .start rect{fill:#5A5A5A!important;stroke:#3D3D3D!important;color:#ffffff!important;}#g96e33473-1173-4ccd-82d9-5430a53011e3-dark .start polygon{fill:#5A5A5A!important;stroke:#3D3D3D!important;color:#ffffff!important;}#g96e33473-1173-4ccd-82d9-5430a53011e3-dark .start ellipse{fill:#5A5A5A!important;stroke:#3D3D3D!important;color:#ffffff!important;}#g96e33473-1173-4ccd-82d9-5430a53011e3-dark .start circle{fill:#5A5A5A!important;stroke:#3D3D3D!important;color:#ffffff!important;}#g96e33473-1173-4ccd-82d9-5430a53011e3-dark .start path{fill:#5A5A5A!important;stroke:#3D3D3D!important;color:#ffffff!important;}#g96e33473-1173-4ccd-82d9-5430a53011e3-dark .start tspan{fill:#ffffff!important;}#g96e33473-1173-4ccd-82d9-5430a53011e3-dark .decision rect{fill:#8B5E15!important;stroke:#6E4810!important;color:#ffffff!important;}#g96e33473-1173-4ccd-82d9-5430a53011e3-dark .decision polygon{fill:#8B5E15!important;stroke:#6E4810!important;color:#ffffff!important;}#g96e33473-1173-4ccd-82d9-5430a53011e3-dark .decision ellipse{fill:#8B5E15!important;stroke:#6E4810!important;color:#ffffff!important;}#g96e33473-1173-4ccd-82d9-5430a53011e3-dark .decision circle{fill:#8B5E15!important;stroke:#6E4810!important;color:#ffffff!important;}#g96e33473-1173-4ccd-82d9-5430a53011e3-dark .decision path{fill:#8B5E15!important;stroke:#6E4810!important;color:#ffffff!important;}#g96e33473-1173-4ccd-82d9-5430a53011e3-dark .decision tspan{fill:#ffffff!important;}#g96e33473-1173-4ccd-82d9-5430a53011e3-dark .result rect{fill:#1F6E68!important;stroke:#155752!important;color:#ffffff!important;}#g96e33473-1173-4ccd-82d9-5430a53011e3-dark .result polygon{fill:#1F6E68!important;stroke:#155752!important;color:#ffffff!important;}#g96e33473-1173-4ccd-82d9-5430a53011e3-dark .result ellipse{fill:#1F6E68!important;stroke:#155752!important;color:#ffffff!important;}#g96e33473-1173-4ccd-82d9-5430a53011e3-dark .result circle{fill:#1F6E68!important;stroke:#155752!important;color:#ffffff!important;}#g96e33473-1173-4ccd-82d9-5430a53011e3-dark .result path{fill:#1F6E68!important;stroke:#155752!important;color:#ffffff!important;}#g96e33473-1173-4ccd-82d9-5430a53011e3-dark .result tspan{fill:#ffffff!important;}#g96e33473-1173-4ccd-82d9-5430a53011e3-dark .warn rect{fill:#B43A3A!important;stroke:#8E2828!important;color:#ffffff!important;}#g96e33473-1173-4ccd-82d9-5430a53011e3-dark .warn polygon{fill:#B43A3A!important;stroke:#8E2828!important;color:#ffffff!important;}#g96e33473-1173-4ccd-82d9-5430a53011e3-dark .warn ellipse{fill:#B43A3A!important;stroke:#8E2828!important;color:#ffffff!important;}#g96e33473-1173-4ccd-82d9-5430a53011e3-dark .warn circle{fill:#B43A3A!important;stroke:#8E2828!important;color:#ffffff!important;}#g96e33473-1173-4ccd-82d9-5430a53011e3-dark .warn path{fill:#B43A3A!important;stroke:#8E2828!important;color:#ffffff!important;}#g96e33473-1173-4ccd-82d9-5430a53011e3-dark .warn tspan{fill:#ffffff!important;}</style><g><marker id="g96e33473-1173-4ccd-82d9-5430a53011e3-dark_flowchart-v2-pointEnd" class="marker flowchart-v2" viewBox="0 0 10 10" refX="5" refY="5" markerUnits="userSpaceOnUse" markerWidth="8" markerHeight="8" orient="auto"><path d="M 0 0 L 10 5 L 0 10 z" class="arrowMarkerPath" style="stroke-width: 1; stroke-dasharray: 1, 0;"></path></marker><marker id="g96e33473-1173-4ccd-82d9-5430a53011e3-dark_flowchart-v2-pointStart" class="marker flowchart-v2" viewBox="0 0 10 10" refX="4.5" refY="5" markerUnits="userSpaceOnUse" markerWidth="8" markerHeight="8" orient="auto"><path d="M 0 5 L 10 10 L 10 0 z" class="arrowMarkerPath" style="stroke-width: 1; stroke-dasharray: 1, 0;"></path></marker><marker id="g96e33473-1173-4ccd-82d9-5430a53011e3-dark_flowchart-v2-pointEnd-margin" class="marker flowchart-v2" viewBox="0 0 11.5 14" refX="11.5" refY="7" markerUnits="userSpaceOnUse" markerWidth="10.5" markerHeight="14" orient="auto"><path d="M 0 0 L 11.5 7 L 0 14 z" class="arrowMarkerPath" style="stroke-width: 0; stroke-dasharray: 1, 0;"></path></marker><marker id="g96e33473-1173-4ccd-82d9-5430a53011e3-dark_flowchart-v2-pointStart-margin" class="marker flowchart-v2" viewBox="0 0 11.5 14" refX="1" refY="7" markerUnits="userSpaceOnUse" markerWidth="11.5" markerHeight="14" orient="auto"><polygon points="0,7 11.5,14 11.5,0" class="arrowMarkerPath" style="stroke-width: 0; stroke-dasharray: 1, 0;"></polygon></marker><marker id="g96e33473-1173-4ccd-82d9-5430a53011e3-dark_flowchart-v2-circleEnd" class="marker flowchart-v2" viewBox="0 0 10 10" refX="11" refY="5" markerUnits="userSpaceOnUse" markerWidth="11" markerHeight="11" orient="auto"><circle cx="5" cy="5" r="5" class="arrowMarkerPath" style="stroke-width: 1; stroke-dasharray: 1, 0;"></circle></marker><marker id="g96e33473-1173-4ccd-82d9-5430a53011e3-dark_flowchart-v2-circleStart" class="marker flowchart-v2" viewBox="0 0 10 10" refX="-1" refY="5" markerUnits="userSpaceOnUse" markerWidth="11" markerHeight="11" orient="auto"><circle cx="5" cy="5" r="5" class="arrowMarkerPath" style="stroke-width: 1; stroke-dasharray: 1, 0;"></circle></marker><marker id="g96e33473-1173-4ccd-82d9-5430a53011e3-dark_flowchart-v2-circleEnd-margin" class="marker flowchart-v2" viewBox="0 0 10 10" refY="5" refX="12.25" markerUnits="userSpaceOnUse" markerWidth="14" markerHeight="14" orient="auto"><circle cx="5" cy="5" r="5" class="arrowMarkerPath" style="stroke-width: 0; stroke-dasharray: 1, 0;"></circle></marker><marker id="g96e33473-1173-4ccd-82d9-5430a53011e3-dark_flowchart-v2-circleStart-margin" class="marker flowchart-v2" viewBox="0 0 10 10" refX="-2" refY="5" markerUnits="userSpaceOnUse" markerWidth="14" markerHeight="14" orient="auto"><circle cx="5" cy="5" r="5" class="arrowMarkerPath" style="stroke-width: 0; stroke-dasharray: 1, 0;"></circle></marker><marker id="g96e33473-1173-4ccd-82d9-5430a53011e3-dark_flowchart-v2-crossEnd" class="marker cross flowchart-v2" viewBox="0 0 11 11" refX="12" refY="5.2" markerUnits="userSpaceOnUse" markerWidth="11" markerHeight="11" orient="auto"><path d="M 1,1 l 9,9 M 10,1 l -9,9" class="arrowMarkerPath" style="stroke-width: 2; stroke-dasharray: 1, 0;"></path></marker><marker id="g96e33473-1173-4ccd-82d9-5430a53011e3-dark_flowchart-v2-crossStart" class="marker cross flowchart-v2" viewBox="0 0 11 11" refX="-1" refY="5.2" markerUnits="userSpaceOnUse" markerWidth="11" markerHeight="11" orient="auto"><path d="M 1,1 l 9,9 M 10,1 l -9,9" class="arrowMarkerPath" style="stroke-width: 2; stroke-dasharray: 1, 0;"></path></marker><marker id="g96e33473-1173-4ccd-82d9-5430a53011e3-dark_flowchart-v2-crossEnd-margin" class="marker cross flowchart-v2" viewBox="0 0 15 15" refX="17.7" refY="7.5" markerUnits="userSpaceOnUse" markerWidth="12" markerHeight="12" orient="auto"><path d="M 1,1 L 14,14 M 1,14 L 14,1" class="arrowMarkerPath" style="stroke-width: 2.5;"></path></marker><marker id="g96e33473-1173-4ccd-82d9-5430a53011e3-dark_flowchart-v2-crossStart-margin" class="marker cross flowchart-v2" viewBox="0 0 15 15" refX="-3.5" refY="7.5" markerUnits="userSpaceOnUse" markerWidth="12" markerHeight="12" orient="auto"><path d="M 1,1 L 14,14 M 1,14 L 14,1" class="arrowMarkerPath" style="stroke-width: 2.5; stroke-dasharray: 1, 0;"></path></marker><g class="root"><g class="clusters"></g><g class="edgePaths"><path d="M594.044,42.5L593.96,46.583C593.877,50.667,593.71,58.833,593.627,66.417C593.544,74,593.544,81,593.544,84.5L593.544,88" id="g96e33473-1173-4ccd-82d9-5430a53011e3-dark-L_start_q1_0" class="edge-thickness-normal edge-pattern-solid edge-thickness-normal edge-pattern-solid flowchart-link" style=";" data-edge="true" data-et="edge" data-id="L_start_q1_0" data-points="W3sieCI6NTk0LjA0Mzc0Njk0ODI0MjIsInkiOjQyLjV9LHsieCI6NTkzLjU0Mzc0Njk0ODI0MjIsInkiOjY3fSx7IngiOjU5My41NDM3NDY5NDgyNDIzLCJ5Ijo5Mi4wMDAwMDAwMDAwMDAwM31d" data-look="classic" marker-end="url(#g96e33473-1173-4ccd-82d9-5430a53011e3-dark_flowchart-v2-pointEnd)"></path><path d="M634.384,218.479L646.678,231.369C658.972,244.259,683.56,270.039,695.854,297.22C708.148,324.401,708.148,352.982,708.148,367.273L708.148,381.564" id="g96e33473-1173-4ccd-82d9-5430a53011e3-dark-L_q1_mod_0" class="edge-thickness-normal edge-pattern-solid edge-thickness-normal edge-pattern-solid flowchart-link" style=";" data-edge="true" data-et="edge" data-id="L_q1_mod_0" data-points="W3sieCI6NjM0LjM4MzcxMjIxMzI5OSwieSI6MjE4LjQ3ODc3NTU3OTY2OTg3fSx7IngiOjcwOC4xNDg0MzM2ODUzMDI3LCJ5IjoyOTUuODE4NzQwODQ0NzI2NTZ9LHsieCI6NzA4LjE0ODQzMzY4NTMwMjcsInkiOjM4NS41NjQwNTI1ODE3ODcxfV0=" data-look="classic" marker-end="url(#g96e33473-1173-4ccd-82d9-5430a53011e3-dark_flowchart-v2-pointEnd)"></path><path d="M552.704,218.479L540.41,231.369C528.116,244.259,503.527,270.039,491.233,288.345C478.939,306.652,478.939,317.485,478.939,322.902L478.939,328.319" id="g96e33473-1173-4ccd-82d9-5430a53011e3-dark-L_q1_q3_0" class="edge-thickness-normal edge-pattern-solid edge-thickness-normal edge-pattern-solid flowchart-link" style=";" data-edge="true" data-et="edge" data-id="L_q1_q3_0" data-points="W3sieCI6NTUyLjcwMzc4MTY4MzE4NTUsInkiOjIxOC40Nzg3NzU1Nzk2Njk4NH0seyJ4Ijo0NzguOTM5MDYwMjExMTgxNjQsInkiOjI5NS44MTg3NDA4NDQ3MjY1Nn0seyJ4Ijo0NzguOTM5MDYwMjExMTgxNjQsInkiOjMzMi4zMTg3NDA4NDQ3MjY1Nn1d" data-look="classic" marker-end="url(#g96e33473-1173-4ccd-82d9-5430a53011e3-dark_flowchart-v2-pointEnd)"></path><path d="M521.028,463.32L533.429,476.418C545.83,489.517,570.631,515.713,583.032,542.43C595.433,569.148,595.433,596.386,595.433,610.006L595.433,623.625" id="g96e33473-1173-4ccd-82d9-5430a53011e3-dark-L_q3_iframe_0" class="edge-thickness-normal edge-pattern-solid edge-thickness-normal edge-pattern-solid flowchart-link" style=";" data-edge="true" data-et="edge" data-id="L_q3_iframe_0" data-points="W3sieCI6NTIxLjAyODE3Nzg1ODc5ODEsInkiOjQ2My4zMjAyNDUxNDUzNTIzfSx7IngiOjU5NS40MzI4MDc5MjIzNjMzLCJ5Ijo1NDEuOTA5MzYyNzkyOTY4OH0seyJ4Ijo1OTUuNDMyODA3OTIyMzYzMywieSI6NjI3LjYyNDk4NDc0MTIxMDl9XQ==" data-look="classic" marker-end="url(#g96e33473-1173-4ccd-82d9-5430a53011e3-dark_flowchart-v2-pointEnd)"></path><path d="M436.85,463.32L424.449,476.418C412.048,489.517,387.247,515.713,374.846,534.228C362.445,552.743,362.445,563.576,362.445,568.993L362.445,574.409" id="g96e33473-1173-4ccd-82d9-5430a53011e3-dark-L_q3_q2_0" class="edge-thickness-normal edge-pattern-solid edge-thickness-normal edge-pattern-solid flowchart-link" style=";" data-edge="true" data-et="edge" data-id="L_q3_q2_0" data-points="W3sieCI6NDM2Ljg0OTk0MjU2MzU2NTE1LCJ5Ijo0NjMuMzIwMjQ1MTQ1MzUyM30seyJ4IjozNjIuNDQ1MzEyNSwieSI6NTQxLjkwOTM2Mjc5Mjk2ODh9LHsieCI6MzYyLjQ0NTMxMjUsInkiOjU3OC40MDkzNjI3OTI5Njg4fV0=" data-look="classic" marker-end="url(#g96e33473-1173-4ccd-82d9-5430a53011e3-dark_flowchart-v2-pointEnd)"></path><path d="M303.515,702.11L274.573,718.015C245.631,733.92,187.747,765.73,158.805,787.052C129.863,808.374,129.863,819.207,129.863,824.624L129.863,830.041" id="g96e33473-1173-4ccd-82d9-5430a53011e3-dark-L_q2_q4_0" class="edge-thickness-normal edge-pattern-solid edge-thickness-normal edge-pattern-solid flowchart-link" style=";" data-edge="true" data-et="edge" data-id="L_q2_q4_0" data-points="W3sieCI6MzAzLjUxNDkyNzE3NjYzNzg1LCJ5Ijo3MDIuMTEwMjE4MzE0MzMzMX0seyJ4IjoxMjkuODYzMjgxMjUsInkiOjc5Ny41NDA2MDM2Mzc2OTUzfSx7IngiOjEyOS44NjMyODEyNSwieSI6ODM0LjA0MDYwMzYzNzY5NTN9XQ==" data-look="classic" marker-end="url(#g96e33473-1173-4ccd-82d9-5430a53011e3-dark_flowchart-v2-pointEnd)"></path><path d="M115.928,1020.039L114.566,1028.445C113.204,1036.851,110.481,1053.663,109.119,1068.952C107.758,1084.242,107.758,1098.008,107.758,1104.892L107.758,1111.775" id="g96e33473-1173-4ccd-82d9-5430a53011e3-dark-L_q4_edge_0" class="edge-thickness-normal edge-pattern-solid edge-thickness-normal edge-pattern-solid flowchart-link" style=";" data-edge="true" data-et="edge" data-id="L_q4_edge_0" data-points="W3sieCI6MTE1LjkyNzU3NzcxMTMyMjgsInkiOjEwMjAuMDM5MjcyMDQ3MjYwM30seyJ4IjoxMDcuNzU3ODEyNSwieSI6MTA3MC40NzQ5NzU1ODU5Mzc1fSx7IngiOjEwNy43NTc4MTI1LCJ5IjoxMTE1Ljc3NDk3ODYzNzY5NTN9XQ==" data-look="classic" marker-end="url(#g96e33473-1173-4ccd-82d9-5430a53011e3-dark_flowchart-v2-pointEnd)"></path><path d="M178.003,985.835L191.106,999.942C204.209,1014.048,230.415,1042.262,253.803,1064.958C277.191,1087.654,297.76,1104.832,308.045,1113.422L318.33,1122.011" id="g96e33473-1173-4ccd-82d9-5430a53011e3-dark-L_q4_server_0" class="edge-thickness-normal edge-pattern-solid edge-thickness-normal edge-pattern-solid flowchart-link" style=";" data-edge="true" data-et="edge" data-id="L_q4_server_0" data-points="W3sieCI6MTc4LjAwMzE2ODc1ODA4NTg1LCJ5Ijo5ODUuODM1MDg4MDc3ODUxN30seyJ4IjoyNTYuNjIxMDkzNzUsInkiOjEwNzAuNDc0OTc1NTg1OTM3NX0seyJ4IjozMjEuNDAwMTc3NzAzNzc3NywieSI6MTEyNC41NzQ5Nzc4NzQ3NTU5fV0=" data-look="classic" marker-end="url(#g96e33473-1173-4ccd-82d9-5430a53011e3-dark_flowchart-v2-pointEnd)"></path><path d="M421.376,702.11L450.318,718.015C479.26,733.92,537.143,765.73,566.085,787.618C595.027,809.505,595.027,821.47,595.027,827.452L595.027,833.434" id="g96e33473-1173-4ccd-82d9-5430a53011e3-dark-L_q2_q5_0" class="edge-thickness-normal edge-pattern-solid edge-thickness-normal edge-pattern-solid flowchart-link" style=";" data-edge="true" data-et="edge" data-id="L_q2_q5_0" data-points="W3sieCI6NDIxLjM3NTY5NzgyMzM2MjIsInkiOjcwMi4xMTAyMTgzMTQzMzMxfSx7IngiOjU5NS4wMjczNDM3NSwieSI6Nzk3LjU0MDYwMzYzNzY5NTN9LHsieCI6NTk1LjAyNzM0Mzc1LCJ5Ijo4MzcuNDM0MzQ5MDYwMDU4Nn1d" data-look="classic" marker-end="url(#g96e33473-1173-4ccd-82d9-5430a53011e3-dark_flowchart-v2-pointEnd)"></path><path d="M608.49,1017.119L609.93,1026.011C611.371,1034.904,614.252,1052.69,615.692,1066.999C617.133,1081.308,617.133,1092.142,617.133,1097.558L617.133,1102.975" id="g96e33473-1173-4ccd-82d9-5430a53011e3-dark-L_q5_client_0" class="edge-thickness-normal edge-pattern-solid edge-thickness-normal edge-pattern-solid flowchart-link" style=";" data-edge="true" data-et="edge" data-id="L_q5_client_0" data-points="W3sieCI6NjA4LjQ4OTk0OTc0NTQwODksInkiOjEwMTcuMTE4NjI0MTY4MTY1M30seyJ4Ijo2MTcuMTMyODEyNSwieSI6MTA3MC40NzQ5NzU1ODU5Mzc1fSx7IngiOjYxNy4xMzI4MTI1LCJ5IjoxMTA2Ljk3NDk3NTU4NTkzNzV9XQ==" data-look="classic" marker-end="url(#g96e33473-1173-4ccd-82d9-5430a53011e3-dark_flowchart-v2-pointEnd)"></path><path d="M548.3,983.854L534.766,998.291C521.232,1012.727,494.165,1041.601,470.228,1064.63C446.291,1087.659,425.484,1104.844,415.081,1113.436L404.677,1122.028" id="g96e33473-1173-4ccd-82d9-5430a53011e3-dark-L_q5_server_0" class="edge-thickness-normal edge-pattern-solid edge-thickness-normal edge-pattern-solid flowchart-link" style=";" data-edge="true" data-et="edge" data-id="L_q5_server_0" data-points="W3sieCI6NTQ4LjI5OTgyNDIxMzc0NywieSI6OTgzLjg1MzcxMDYyNzMyMTJ9LHsieCI6NDY3LjA5NzY1NjI1LCJ5IjoxMDcwLjQ3NDk3NTU4NTkzNzV9LHsieCI6NDAxLjU5MzE4OTY5ODEwNjEsInkiOjExMjQuNTc0OTc3ODc0NzU1OX1d" data-look="classic" marker-end="url(#g96e33473-1173-4ccd-82d9-5430a53011e3-dark_flowchart-v2-pointEnd)"></path></g><g class="edgeLabels"><g class="edgeLabel"><g class="label" data-id="L_start_q1_0" transform="translate(0, 0)"><text y="-10.1" text-anchor="middle"><tspan class="text-outer-tspan row" x="0" y="-0.1em" dy="1.1em" text-anchor="middle"></tspan></text></g></g><g><rect class="background" style="stroke: none"></rect></g><g class="edgeLabel" transform="translate(708.1484336853027, 295.81874084472656)"><g class="label" data-id="L_q1_mod_0" transform="translate(0, -10.5)"><g><rect class="background" style="" x="-13.546875" y="-1" width="27.09375" height="23"></rect><text y="-10.1" text-anchor="middle" style=""><tspan class="text-outer-tspan row" x="0" y="-0.1em" dy="1.1em" text-anchor="middle"><tspan font-style="normal" class="text-inner-tspan" font-weight="normal">yes</tspan></tspan></text></g></g></g><g class="edgeLabel" transform="translate(478.93906021118164, 295.81874084472656)"><g class="label" data-id="L_q1_q3_0" transform="translate(0, -10.5)"><g><rect class="background" style="" x="-10.6640625" y="-1" width="21.328125" height="23"></rect><text y="-10.1" text-anchor="middle" style=""><tspan class="text-outer-tspan row" x="0" y="-0.1em" dy="1.1em" text-anchor="middle"><tspan font-style="normal" class="text-inner-tspan" font-weight="normal">no</tspan></tspan></text></g></g></g><g class="edgeLabel" transform="translate(595.4328079223633, 541.9093627929688)"><g class="label" data-id="L_q3_iframe_0" transform="translate(0, -10.5)"><g><rect class="background" style="" x="-13.546875" y="-1" width="27.09375" height="23"></rect><text y="-10.1" text-anchor="middle" style=""><tspan class="text-outer-tspan row" x="0" y="-0.1em" dy="1.1em" text-anchor="middle"><tspan font-style="normal" class="text-inner-tspan" font-weight="normal">yes</tspan></tspan></text></g></g></g><g class="edgeLabel" transform="translate(362.4453125, 541.9093627929688)"><g class="label" data-id="L_q3_q2_0" transform="translate(0, -10.5)"><g><rect class="background" style="" x="-10.6640625" y="-1" width="21.328125" height="23"></rect><text y="-10.1" text-anchor="middle" style=""><tspan class="text-outer-tspan row" x="0" y="-0.1em" dy="1.1em" text-anchor="middle"><tspan font-style="normal" class="text-inner-tspan" font-weight="normal">no</tspan></tspan></text></g></g></g><g class="edgeLabel" transform="translate(129.86328125, 797.5406036376953)"><g class="label" data-id="L_q2_q4_0" transform="translate(0, -10.5)"><g><rect class="background" style="" x="-13.546875" y="-1" width="27.09375" height="23"></rect><text y="-10.1" text-anchor="middle" style=""><tspan class="text-outer-tspan row" x="0" y="-0.1em" dy="1.1em" text-anchor="middle"><tspan font-style="normal" class="text-inner-tspan" font-weight="normal">yes</tspan></tspan></text></g></g></g><g class="edgeLabel" transform="translate(107.7578125, 1070.4749755859375)"><g class="label" data-id="L_q4_edge_0" transform="translate(0, -10.5)"><g><rect class="background" style="" x="-13.546875" y="-1" width="27.09375" height="23"></rect><text y="-10.1" text-anchor="middle" style=""><tspan class="text-outer-tspan row" x="0" y="-0.1em" dy="1.1em" text-anchor="middle"><tspan font-style="normal" class="text-inner-tspan" font-weight="normal">yes</tspan></tspan></text></g></g></g><g class="edgeLabel" transform="translate(246.03138, 1059.07411)"><g class="label" data-id="L_q4_server_0" transform="translate(0, -10.5)"><g><rect class="background" style="" x="-10.6640625" y="-1" width="21.328125" height="23"></rect><text y="-10.1" text-anchor="middle" style=""><tspan class="text-outer-tspan row" x="0" y="-0.1em" dy="1.1em" text-anchor="middle"><tspan font-style="normal" class="text-inner-tspan" font-weight="normal">no</tspan></tspan></text></g></g></g><g class="edgeLabel" transform="translate(595.02734375, 797.5406036376953)"><g class="label" data-id="L_q2_q5_0" transform="translate(0, -10.5)"><g><rect class="background" style="" x="-10.6640625" y="-1" width="21.328125" height="23"></rect><text y="-10.1" text-anchor="middle" style=""><tspan class="text-outer-tspan row" x="0" y="-0.1em" dy="1.1em" text-anchor="middle"><tspan font-style="normal" class="text-inner-tspan" font-weight="normal">no</tspan></tspan></text></g></g></g><g class="edgeLabel" transform="translate(617.1328125, 1070.4749755859375)"><g class="label" data-id="L_q5_client_0" transform="translate(0, -10.5)"><g><rect class="background" style="" x="-13.546875" y="-1" width="27.09375" height="23"></rect><text y="-10.1" text-anchor="middle" style=""><tspan class="text-outer-tspan row" x="0" y="-0.1em" dy="1.1em" text-anchor="middle"><tspan font-style="normal" class="text-inner-tspan" font-weight="normal">yes</tspan></tspan></text></g></g></g><g class="edgeLabel" transform="translate(478.64704, 1058.15483)"><g class="label" data-id="L_q5_server_0" transform="translate(0, -10.5)"><g><rect class="background" style="" x="-10.6640625" y="-1" width="21.328125" height="23"></rect><text y="-10.1" text-anchor="middle" style=""><tspan class="text-outer-tspan row" x="0" y="-0.1em" dy="1.1em" text-anchor="middle"><tspan font-style="normal" class="text-inner-tspan" font-weight="normal">no</tspan></tspan></text></g></g></g></g><g class="nodes"><g class="node default start" id="g96e33473-1173-4ccd-82d9-5430a53011e3-dark-flowchart-start-0" data-look="classic" transform="translate(593.5437469482422, 25)"><g class="basic label-container outer-path"><path d="M-80.9609375 -17 C-30.702043867261935 -17, 19.55684976547613 -17, 80.9609375 -17 C80.9609375 -17, 80.9609375 -17, 80.9609375 -17 C81.21554283315862 -16.99183530252482, 81.47014816631726 -16.98367060504964, 82.05013123967211 -16.965071676755716 C82.47794531445865 -16.923800967482762, 82.90575938924519 -16.88253025820981, 83.1348492486366 -16.860430234995185 C83.37271637648169 -16.82197372245232, 83.61058350432677 -16.78351720990945, 84.21063418792333 -16.686505668848113 C84.54615552105807 -16.609925114041427, 84.8816768541928 -16.533344559234738, 85.27306542646163 -16.4440126716635 C85.63870790046074 -16.335491904677074, 86.00435037445986 -16.22697113769065, 86.31777720640156 -16.133947699181366 C86.6527482070712 -16.010675274496954, 86.98771920774084 -15.887402849812538, 87.34047658294936 -15.757584874882369 C87.71657321099576 -15.591098054156307, 88.09266983904217 -15.424611233430245, 88.33696106499849 -15.316470754341125 C88.56697855590228 -15.196470776669852, 88.79699604680607 -15.07647079899858, 89.30313588406693 -14.812417970097622 C89.51604505819404 -14.683351177548582, 89.72895423232114 -14.554284384999542, 90.23503082057933 -14.247497783161291 C90.41607684333346 -14.121207915044016, 90.5971228660876 -13.99491804692674, 91.12881651835067 -13.624031571755262 C91.30135597477692 -13.486435946723095, 91.47389543120318 -13.348840321690927, 91.9808202202324 -12.944581292275288 C92.15323630527853 -12.787997565716026, 92.32565239032465 -12.631413839156764, 92.78754086025927 -12.21193895166137 C93.07091804106605 -11.919328746779144, 93.35429522187283 -11.626718541896917, 93.54566345028036 -11.42911513444239 C93.81515733074299 -11.112552287814776, 94.08465121120562 -10.795989441187162, 94.25207270195651 -10.59932663159847 C94.46391577971201 -10.315476206707496, 94.67575885746751 -10.031625781816523, 94.90386582814824 -9.725983222076888 C95.14087474268659 -9.361873883541186, 95.37788365722493 -8.997764545005483, 95.49836447109088 -8.812673661278927 C95.6307268561459 -8.577650843468883, 95.7630892412009 -8.342628025658836, 96.033125708341 -7.863150934094199 C96.12862236900641 -7.6648500749212705, 96.22411902967183 -7.466549215748342, 96.50595209126881 -6.881316833080699 C96.60579452528725 -6.634704090732989, 96.7056369593057 -6.388091348385279, 96.91490067484592 -5.871205925162238 C96.99985151217973 -5.615347538190651, 97.08480234951354 -5.359489151219064, 97.25829100162323 -4.836968972727556 C97.32634850358983 -4.577436221420998, 97.39440600555642 -4.31790347011444, 97.534712007091 -3.7828558772573464 C97.5906268640896 -3.4957449041787543, 97.6465417210882 -3.2086339311001626, 97.74302781804565 -2.713198215567453 C97.79576318844472 -2.304193096528992, 97.8484985588438 -1.895187977490531, 97.88238242013637 -1.632391440430593 C97.90020730439777 -1.354754480071721, 97.91803218865917 -1.077117519712849, 97.9522031754117 -0.5448768187181379 C97.9522031754117 -0.23688367757847262, 97.9522031754117 0.07110946356119263, 97.9522031754117 0.5448768187181336 C97.92506415891135 0.9675889069308379, 97.897925142411 1.390300995143542, 97.88238242013637 1.6323914404305815 C97.83669567381517 1.9867288230292612, 97.79100892749398 2.341066205627941, 97.74302781804565 2.7131982155674415 C97.6661924992064 3.10773133865656, 97.58935718036717 3.5022644617456784, 97.534712007091 3.782855877257343 C97.46980501573097 4.030374366181156, 97.40489802437094 4.277892855104969, 97.25829100162323 4.836968972727545 C97.18917263084184 5.045142493004261, 97.12005426006044 5.253316013280976, 96.91490067484592 5.871205925162227 C96.79017037667192 6.179292173148278, 96.66544007849792 6.487378421134329, 96.50595209126881 6.881316833080694 C96.4022046268451 7.096750662796649, 96.2984571624214 7.312184492512603, 96.033125708341 7.863150934094196 C95.86957348961869 8.15355445989368, 95.70602127089636 8.443957985693165, 95.49836447109088 8.812673661278923 C95.34801892266272 9.043644797097162, 95.19767337423454 9.2746159329154, 94.90386582814826 9.725983222076879 C94.71643484196572 9.97712366824736, 94.52900385578319 10.22826411441784, 94.25207270195651 10.599326631598467 C94.00588724681883 10.888510075552416, 93.75970179168117 11.177693519506365, 93.54566345028037 11.42911513444238 C93.37743168324066 11.602828245995823, 93.20919991620096 11.776541357549265, 92.78754086025927 12.211938951661365 C92.5482745376301 12.42923429523319, 92.30900821500093 12.646529638805017, 91.98082022023242 12.944581292275275 C91.64991699881139 13.208467805654006, 91.31901377739035 13.472354319032739, 91.12881651835067 13.62403157175526 C90.88009516771876 13.79752881898235, 90.63137381708684 13.97102606620944, 90.23503082057934 14.247497783161286 C89.90912056494686 14.445066495386952, 89.58321030931437 14.642635207612617, 89.30313588406695 14.81241797009762 C89.08984874332998 14.923689734803162, 88.87656160259301 15.034961499508702, 88.33696106499849 15.316470754341124 C88.12671830613147 15.409538987061701, 87.91647554726444 15.502607219782279, 87.34047658294936 15.757584874882367 C87.01520557923926 15.87728761101988, 86.68993457552916 15.996990347157395, 86.31777720640156 16.133947699181363 C85.93636429596405 16.247149048921994, 85.55495138552654 16.360350398662625, 85.27306542646164 16.444012671663497 C84.9938900421982 16.50773263133199, 84.71471465793476 16.57145259100048, 84.21063418792333 16.68650566884811 C83.8475357456475 16.74520860912479, 83.48443730337166 16.803911549401473, 83.13484924863661 16.86043023499518 C82.84599384896745 16.88829576800182, 82.5571384492983 16.91616130100846, 82.05013123967211 16.965071676755716 C81.73453190287314 16.975192333210018, 81.41893256607416 16.985312989664315, 80.9609375 17 C80.9609375 17, 80.9609375 17, 80.9609375 17 C33.634947615897644 17, -13.691042268204711 17, -80.9609375 17 C-81.3064554096033 16.988919913148834, -81.65197331920662 16.977839826297668, -82.05013123967211 16.965071676755716 C-82.28380440067926 16.94252950794645, -82.51747756168639 16.919987339137183, -83.1348492486366 16.86043023499518 C-83.52674753549684 16.797071159192225, -83.91864582235708 16.733712083389268, -84.21063418792333 16.68650566884811 C-84.56933471723742 16.604634613771875, -84.92803524655152 16.52276355869564, -85.27306542646161 16.4440126716635 C-85.54140430294449 16.36437110166289, -85.80974317942736 16.284729531662283, -86.31777720640154 16.13394769918137 C-86.71398472231742 15.988139670822198, -87.1101922382333 15.842331642463026, -87.34047658294936 15.757584874882369 C-87.654563173183 15.618548058433598, -87.96864976341666 15.479511241984827, -88.33696106499849 15.316470754341127 C-88.68449755971832 15.135161187653537, -89.03203405443816 14.953851620965947, -89.30313588406693 14.812417970097624 C-89.56194066176215 14.655528992953089, -89.82074543945737 14.498640015808554, -90.23503082057931 14.247497783161299 C-90.58817750520026 14.001157943443314, -90.94132418982122 13.754818103725327, -91.12881651835067 13.624031571755264 C-91.36628688084592 13.434655277017052, -91.60375724334115 13.24527898227884, -91.9808202202324 12.94458129227529 C-92.19874146053044 12.746670987716664, -92.41666270082848 12.548760683158038, -92.78754086025926 12.211938951661377 C-93.00600501003626 11.986356780776356, -93.22446915981327 11.760774609891333, -93.54566345028036 11.429115134442386 C-93.70290722934776 11.244407644125323, -93.86015100841516 11.059700153808258, -94.25207270195651 10.599326631598473 C-94.38689842201941 10.41867244958995, -94.52172414208233 10.238018267581428, -94.90386582814824 9.72598322207689 C-95.03876657203294 9.518739453548154, -95.17366731591764 9.311495685019418, -95.49836447109088 8.812673661278936 C-95.69701675271975 8.459946419522096, -95.89566903434861 8.107219177765254, -96.033125708341 7.863150934094201 C-96.15881706538424 7.602150141829713, -96.28450842242746 7.341149349565225, -96.50595209126881 6.881316833080701 C-96.6135818576246 6.615469229301941, -96.72121162398038 6.349621625523182, -96.91490067484592 5.87120592516224 C-97.02046658401888 5.553258226376775, -97.12603249319183 5.23531052759131, -97.25829100162323 4.8369689727275516 C-97.34828419941313 4.493785906256014, -97.43827739720304 4.150602839784478, -97.534712007091 3.782855877257349 C-97.57806729334247 3.5602356454990476, -97.62142257959394 3.337615413740746, -97.74302781804565 2.713198215567455 C-97.79510396499967 2.3093059033904044, -97.8471801119537 1.9054135912133536, -97.88238242013637 1.6323914404306026 C-97.90797337012106 1.2337917377761156, -97.93356432010575 0.8351920351216288, -97.9522031754117 0.54487681871814 C-97.9522031754117 0.14897721467856628, -97.9522031754117 -0.2469223893610074, -97.9522031754117 -0.5448768187181317 C-97.92578145855657 -0.9564163859627656, -97.89935974170143 -1.3679559532073995, -97.88238242013637 -1.6323914404305793 C-97.84674796316459 -1.9087652518841862, -97.81111350619283 -2.185139063337793, -97.74302781804565 -2.713198215567447 C-97.68697237965772 -3.001031044368337, -97.6309169412698 -3.2888638731692272, -97.534712007091 -3.782855877257341 C-97.47349007424216 -4.016321640963493, -97.41226814139333 -4.249787404669646, -97.25829100162323 -4.836968972727544 C-97.1233166205792 -5.243490303185034, -96.98834223953517 -5.650011633642525, -96.91490067484594 -5.871205925162218 C-96.77751287588417 -6.210556444810154, -96.64012507692242 -6.54990696445809, -96.50595209126881 -6.881316833080692 C-96.32468619475594 -7.25771934565854, -96.14342029824307 -7.634121858236387, -96.033125708341 -7.863150934094194 C-95.90931143867029 -8.08299570744889, -95.78549716899956 -8.302840480803585, -95.49836447109088 -8.812673661278929 C-95.32892346715201 -9.072980544609367, -95.15948246321315 -9.333287427939805, -94.90386582814826 -9.725983222076884 C-94.69672725456739 -10.003530039962978, -94.48958868098653 -10.281076857849072, -94.25207270195651 -10.599326631598467 C-94.10502518900495 -10.77205700755189, -93.95797767605339 -10.944787383505313, -93.54566345028037 -11.42911513444238 C-93.32741228345179 -11.65447738294692, -93.10916111662323 -11.87983963145146, -92.78754086025927 -12.21193895166136 C-92.59227099528479 -12.389277876473674, -92.39700113031031 -12.566616801285988, -91.98082022023242 -12.944581292275274 C-91.78115225854769 -13.103811178331233, -91.58148429686297 -13.263041064387194, -91.12881651835067 -13.624031571755259 C-90.89040123854237 -13.790339750118417, -90.65198595873406 -13.956647928481576, -90.23503082057934 -14.247497783161284 C-89.90698819893176 -14.446359148196477, -89.57894557728417 -14.645220513231667, -89.30313588406695 -14.812417970097618 C-88.99204735842365 -14.974712654664016, -88.68095883278035 -15.137007339230415, -88.33696106499849 -15.316470754341124 C-88.04159778774172 -15.447219315542373, -87.74623451048497 -15.577967876743624, -87.34047658294936 -15.757584874882365 C-86.93817756608301 -15.905634631900531, -86.53587854921665 -16.053684388918697, -86.31777720640156 -16.133947699181363 C-86.01908100039714 -16.222599165235096, -85.72038479439271 -16.31125063128883, -85.27306542646164 -16.444012671663494 C-84.91117136035267 -16.526612630673387, -84.54927729424368 -16.60921258968328, -84.21063418792333 -16.68650566884811 C-83.80924427963785 -16.751399276394476, -83.40785437135239 -16.816292883940843, -83.13484924863661 -16.86043023499518 C-82.72692980414688 -16.899781733210197, -82.31901035965714 -16.939133231425213, -82.05013123967213 -16.965071676755716 C-81.80266846025368 -16.973007326434587, -81.55520568083526 -16.980942976113457, -80.9609375 -17 C-80.9609375 -17, -80.9609375 -17, -80.9609375 -17" stroke="none" stroke-width="0" fill="#5A5A5A" style="fill:#5A5A5A !important;stroke:#3D3D3D !important"></path><path d="M-80.9609375 -17 C-38.43648955412822 -17, 4.087958391743555 -17, 80.9609375 -17 M-80.9609375 -17 C-25.064068604101593 -17, 30.832800291796815 -17, 80.9609375 -17 M80.9609375 -17 C80.9609375 -17, 80.9609375 -17, 80.9609375 -17 M80.9609375 -17 C80.9609375 -17, 80.9609375 -17, 80.9609375 -17 M80.9609375 -17 C81.23607920883792 -16.991176740928417, 81.51122091767584 -16.98235348185683, 82.05013123967211 -16.965071676755716 M80.9609375 -17 C81.29902734655343 -16.989158116672996, 81.63711719310687 -16.978316233345993, 82.05013123967211 -16.965071676755716 M82.05013123967211 -16.965071676755716 C82.33431671117775 -16.937656646102603, 82.61850218268339 -16.910241615449486, 83.1348492486366 -16.860430234995185 M82.05013123967211 -16.965071676755716 C82.45162402167938 -16.926340150941193, 82.85311680368663 -16.88760862512667, 83.1348492486366 -16.860430234995185 M83.1348492486366 -16.860430234995185 C83.40942886683054 -16.816038331722332, 83.68400848502448 -16.77164642844948, 84.21063418792333 -16.686505668848113 M83.1348492486366 -16.860430234995185 C83.38848086640404 -16.81942504197712, 83.64211248417148 -16.77841984895905, 84.21063418792333 -16.686505668848113 M84.21063418792333 -16.686505668848113 C84.51141929591726 -16.61785343075476, 84.81220440391121 -16.549201192661407, 85.27306542646163 -16.4440126716635 M84.21063418792333 -16.686505668848113 C84.60763626773212 -16.59589253481244, 85.00463834754092 -16.505279400776764, 85.27306542646163 -16.4440126716635 M85.27306542646163 -16.4440126716635 C85.68771384990085 -16.32094719612073, 86.10236227334006 -16.19788172057796, 86.31777720640156 -16.133947699181366 M85.27306542646163 -16.4440126716635 C85.51597308119541 -16.371918954786814, 85.7588807359292 -16.299825237910124, 86.31777720640156 -16.133947699181366 M86.31777720640156 -16.133947699181366 C86.63494911635834 -16.017225504412274, 86.95212102631513 -15.900503309643183, 87.34047658294936 -15.757584874882369 M86.31777720640156 -16.133947699181366 C86.59741523324475 -16.03103832035749, 86.87705326008793 -15.928128941533611, 87.34047658294936 -15.757584874882369 M87.34047658294936 -15.757584874882369 C87.64211853306027 -15.624056931458805, 87.94376048317116 -15.49052898803524, 88.33696106499849 -15.316470754341125 M87.34047658294936 -15.757584874882369 C87.54507210827741 -15.667016504930269, 87.74966763360544 -15.57644813497817, 88.33696106499849 -15.316470754341125 M88.33696106499849 -15.316470754341125 C88.55311400502174 -15.20370390398356, 88.76926694504499 -15.090937053625996, 89.30313588406693 -14.812417970097622 M88.33696106499849 -15.316470754341125 C88.55244493680443 -15.20405295644397, 88.76792880861038 -15.091635158546815, 89.30313588406693 -14.812417970097622 M89.30313588406693 -14.812417970097622 C89.62756199343438 -14.615748956059635, 89.95198810280182 -14.419079942021648, 90.23503082057933 -14.247497783161291 M89.30313588406693 -14.812417970097622 C89.66131055006714 -14.595290382700323, 90.01948521606734 -14.378162795303027, 90.23503082057933 -14.247497783161291 M90.23503082057933 -14.247497783161291 C90.4998003224671 -14.062806040331395, 90.76456982435485 -13.878114297501499, 91.12881651835067 -13.624031571755262 M90.23503082057933 -14.247497783161291 C90.4846034135766 -14.073406746109821, 90.73417600657386 -13.899315709058353, 91.12881651835067 -13.624031571755262 M91.12881651835067 -13.624031571755262 C91.45434118645845 -13.36443431151454, 91.77986585456621 -13.104837051273817, 91.9808202202324 -12.944581292275288 M91.12881651835067 -13.624031571755262 C91.41923754921264 -13.392428528071056, 91.70965858007459 -13.16082548438685, 91.9808202202324 -12.944581292275288 M91.9808202202324 -12.944581292275288 C92.30330748853875 -12.651706887745009, 92.62579475684511 -12.358832483214732, 92.78754086025927 -12.21193895166137 M91.9808202202324 -12.944581292275288 C92.30286398658468 -12.652109664485277, 92.62490775293696 -12.359638036695266, 92.78754086025927 -12.21193895166137 M92.78754086025927 -12.21193895166137 C93.08039297838229 -11.909545096093298, 93.37324509650531 -11.607151240525226, 93.54566345028036 -11.42911513444239 M92.78754086025927 -12.21193895166137 C93.07411127922593 -11.916031466209331, 93.3606816981926 -11.620123980757294, 93.54566345028036 -11.42911513444239 M93.54566345028036 -11.42911513444239 C93.8142883959361 -11.11357298808273, 94.08291334159186 -10.798030841723072, 94.25207270195651 -10.59932663159847 M93.54566345028036 -11.42911513444239 C93.73151834463228 -11.210799400093542, 93.91737323898421 -10.992483665744693, 94.25207270195651 -10.59932663159847 M94.25207270195651 -10.59932663159847 C94.4848258671869 -10.287458594439315, 94.71757903241728 -9.975590557280158, 94.90386582814824 -9.725983222076888 M94.25207270195651 -10.59932663159847 C94.4559205756208 -10.326189051811646, 94.6597684492851 -10.053051472024821, 94.90386582814824 -9.725983222076888 M94.90386582814824 -9.725983222076888 C95.09184339966541 -9.437199193180847, 95.27982097118256 -9.148415164284804, 95.49836447109088 -8.812673661278927 M94.90386582814824 -9.725983222076888 C95.06423808534417 -9.479608369043078, 95.2246103425401 -9.23323351600927, 95.49836447109088 -8.812673661278927 M95.49836447109088 -8.812673661278927 C95.70701558376318 -8.442192482513033, 95.9156666964355 -8.071711303747138, 96.033125708341 -7.863150934094199 M95.49836447109088 -8.812673661278927 C95.61760307100612 -8.600953452911915, 95.73684167092134 -8.3892332445449, 96.033125708341 -7.863150934094199 M96.033125708341 -7.863150934094199 C96.13180826421677 -7.658234495349721, 96.23049082009254 -7.453318056605242, 96.50595209126881 -6.881316833080699 M96.033125708341 -7.863150934094199 C96.18801343891603 -7.541523247488631, 96.34290116949104 -7.219895560883064, 96.50595209126881 -6.881316833080699 M96.50595209126881 -6.881316833080699 C96.63269081441057 -6.568269736594058, 96.75942953755231 -6.255222640107417, 96.91490067484592 -5.871205925162238 M96.50595209126881 -6.881316833080699 C96.60488804014552 -6.636943126558778, 96.70382398902223 -6.392569420036858, 96.91490067484592 -5.871205925162238 M96.91490067484592 -5.871205925162238 C97.00456996309833 -5.6011363158068725, 97.09423925135074 -5.331066706451508, 97.25829100162323 -4.836968972727556 M96.91490067484592 -5.871205925162238 C96.99116700239486 -5.641503897973949, 97.0674333299438 -5.411801870785659, 97.25829100162323 -4.836968972727556 M97.25829100162323 -4.836968972727556 C97.33028345481327 -4.562430546987366, 97.4022759080033 -4.287892121247174, 97.534712007091 -3.7828558772573464 M97.25829100162323 -4.836968972727556 C97.3141113967852 -4.624101613262725, 97.36993179194714 -4.411234253797892, 97.534712007091 -3.7828558772573464 M97.534712007091 -3.7828558772573464 C97.61038854122376 -3.39427286872679, 97.68606507535651 -3.005689860196234, 97.74302781804565 -2.713198215567453 M97.534712007091 -3.7828558772573464 C97.61399385959615 -3.3757603208688907, 97.69327571210128 -2.968664764480435, 97.74302781804565 -2.713198215567453 M97.74302781804565 -2.713198215567453 C97.79542828673085 -2.306790528087946, 97.84782875541606 -1.9003828406084393, 97.88238242013637 -1.632391440430593 M97.74302781804565 -2.713198215567453 C97.79080007414126 -2.3426860309888524, 97.83857233023687 -1.9721738464102514, 97.88238242013637 -1.632391440430593 M97.88238242013637 -1.632391440430593 C97.9094637702542 -1.2105775526728957, 97.93654512037205 -0.7887636649151981, 97.9522031754117 -0.5448768187181379 M97.88238242013637 -1.632391440430593 C97.90632191333475 -1.2595145102547287, 97.93026140653313 -0.8866375800788644, 97.9522031754117 -0.5448768187181379 M97.9522031754117 -0.5448768187181379 C97.9522031754117 -0.1755883724877847, 97.9522031754117 0.19370007374256848, 97.9522031754117 0.5448768187181336 M97.9522031754117 -0.5448768187181379 C97.9522031754117 -0.209615411954797, 97.9522031754117 0.12564599480854388, 97.9522031754117 0.5448768187181336 M97.9522031754117 0.5448768187181336 C97.93473587604757 0.8169441056645954, 97.91726857668345 1.0890113926110572, 97.88238242013637 1.6323914404305815 M97.9522031754117 0.5448768187181336 C97.93113982020596 0.8729555780818353, 97.91007646500022 1.201034337445537, 97.88238242013637 1.6323914404305815 M97.88238242013637 1.6323914404305815 C97.83796301554905 1.976899570806253, 97.79354361096173 2.3214077011819243, 97.74302781804565 2.7131982155674415 M97.88238242013637 1.6323914404305815 C97.83450203644864 2.003742241261429, 97.7866216527609 2.375093042092277, 97.74302781804565 2.7131982155674415 M97.74302781804565 2.7131982155674415 C97.68984381266658 2.986286842745411, 97.63665980728753 3.2593754699233806, 97.534712007091 3.782855877257343 M97.74302781804565 2.7131982155674415 C97.68649970254899 3.003458141421369, 97.62997158705232 3.293718067275297, 97.534712007091 3.782855877257343 M97.534712007091 3.782855877257343 C97.43476547633482 4.163995316131121, 97.33481894557863 4.5451347550048995, 97.25829100162323 4.836968972727545 M97.534712007091 3.782855877257343 C97.47111679847588 4.025371970044586, 97.40752158986075 4.26788806283183, 97.25829100162323 4.836968972727545 M97.25829100162323 4.836968972727545 C97.13509710578633 5.208009358706563, 97.01190320994942 5.579049744685581, 96.91490067484592 5.871205925162227 M97.25829100162323 4.836968972727545 C97.13085291435529 5.220792187076781, 97.00341482708735 5.604615401426018, 96.91490067484592 5.871205925162227 M96.91490067484592 5.871205925162227 C96.78655509735258 6.188221982963716, 96.65820951985924 6.505238040765207, 96.50595209126881 6.881316833080694 M96.91490067484592 5.871205925162227 C96.8061038586138 6.1399361646989155, 96.69730704238168 6.408666404235605, 96.50595209126881 6.881316833080694 M96.50595209126881 6.881316833080694 C96.34306711202733 7.21955097765588, 96.18018213278584 7.557785122231066, 96.033125708341 7.863150934094196 M96.50595209126881 6.881316833080694 C96.39087508421936 7.120276700472395, 96.2757980771699 7.359236567864097, 96.033125708341 7.863150934094196 M96.033125708341 7.863150934094196 C95.83404978259559 8.216630398878596, 95.63497385685015 8.570109863662998, 95.49836447109088 8.812673661278923 M96.033125708341 7.863150934094196 C95.90160200014945 8.09668459620793, 95.77007829195789 8.330218258321667, 95.49836447109088 8.812673661278923 M95.49836447109088 8.812673661278923 C95.37016124927732 9.009628237369903, 95.24195802746375 9.206582813460882, 94.90386582814826 9.725983222076879 M95.49836447109088 8.812673661278923 C95.37667949747632 8.99961445774153, 95.25499452386174 9.186555254204135, 94.90386582814826 9.725983222076879 M94.90386582814826 9.725983222076879 C94.66385637477704 10.047574024283298, 94.42384692140581 10.369164826489715, 94.25207270195651 10.599326631598467 M94.90386582814826 9.725983222076879 C94.76053336699792 9.918035662162492, 94.61720090584758 10.110088102248106, 94.25207270195651 10.599326631598467 M94.25207270195651 10.599326631598467 C94.00417260177599 10.890524195185812, 93.75627250159546 11.181721758773156, 93.54566345028037 11.42911513444238 M94.25207270195651 10.599326631598467 C94.05901723844403 10.826100564207294, 93.86596177493155 11.052874496816122, 93.54566345028037 11.42911513444238 M93.54566345028037 11.42911513444238 C93.37852411885365 11.601700216534786, 93.21138478742692 11.774285298627191, 92.78754086025927 12.211938951661365 M93.54566345028037 11.42911513444238 C93.32676470273819 11.655146063201085, 93.10786595519602 11.881176991959789, 92.78754086025927 12.211938951661365 M92.78754086025927 12.211938951661365 C92.47172090158293 12.498758281993023, 92.15590094290657 12.785577612324683, 91.98082022023242 12.944581292275275 M92.78754086025927 12.211938951661365 C92.50573562107058 12.46786701373448, 92.22393038188191 12.723795075807597, 91.98082022023242 12.944581292275275 M91.98082022023242 12.944581292275275 C91.7972778440463 13.090951453015943, 91.6137354678602 13.23732161375661, 91.12881651835067 13.62403157175526 M91.98082022023242 12.944581292275275 C91.68830579798743 13.177853759879971, 91.39579137574242 13.411126227484669, 91.12881651835067 13.62403157175526 M91.12881651835067 13.62403157175526 C90.79293615307992 13.858327174541468, 90.45705578780918 14.092622777327676, 90.23503082057934 14.247497783161286 M91.12881651835067 13.62403157175526 C90.8425884900509 13.823691853685542, 90.55636046175113 14.023352135615825, 90.23503082057934 14.247497783161286 M90.23503082057934 14.247497783161286 C89.99624361553573 14.3922519901281, 89.75745641049211 14.537006197094914, 89.30313588406695 14.81241797009762 M90.23503082057934 14.247497783161286 C89.93692702419766 14.428210056380225, 89.63882322781598 14.608922329599162, 89.30313588406695 14.81241797009762 M89.30313588406695 14.81241797009762 C89.08428322304835 14.926593263169202, 88.86543056202976 15.040768556240783, 88.33696106499849 15.316470754341124 M89.30313588406695 14.81241797009762 C89.01961458304072 14.960330851238943, 88.73609328201448 15.108243732380268, 88.33696106499849 15.316470754341124 M88.33696106499849 15.316470754341124 C88.08679470170114 15.427211982451361, 87.83662833840378 15.537953210561597, 87.34047658294936 15.757584874882367 M88.33696106499849 15.316470754341124 C88.05556462633108 15.441036610410414, 87.77416818766368 15.565602466479703, 87.34047658294936 15.757584874882367 M87.34047658294936 15.757584874882367 C87.03583342101484 15.86969637456479, 86.73119025908032 15.981807874247213, 86.31777720640156 16.133947699181363 M87.34047658294936 15.757584874882367 C87.0105454598494 15.879002578033024, 86.68061433674943 16.00042028118368, 86.31777720640156 16.133947699181363 M86.31777720640156 16.133947699181363 C85.96533211940734 16.238551550979235, 85.61288703241311 16.343155402777107, 85.27306542646164 16.444012671663497 M86.31777720640156 16.133947699181363 C86.01940304316868 16.22250358463094, 85.72102887993582 16.31105947008051, 85.27306542646164 16.444012671663497 M85.27306542646164 16.444012671663497 C84.874668306967 16.534944214403986, 84.47627118747234 16.62587575714447, 84.21063418792333 16.68650566884811 M85.27306542646164 16.444012671663497 C84.97482101752291 16.512085011777106, 84.6765766085842 16.58015735189072, 84.21063418792333 16.68650566884811 M84.21063418792333 16.68650566884811 C83.92807250012005 16.73218805123353, 83.64551081231677 16.777870433618947, 83.13484924863661 16.86043023499518 M84.21063418792333 16.68650566884811 C83.83660149091642 16.7469763746333, 83.46256879390951 16.807447080418488, 83.13484924863661 16.86043023499518 M83.13484924863661 16.86043023499518 C82.73999922919326 16.898520941494258, 82.34514920974989 16.93661164799333, 82.05013123967211 16.965071676755716 M83.13484924863661 16.86043023499518 C82.89386210481453 16.883677974930254, 82.65287496099246 16.906925714865324, 82.05013123967211 16.965071676755716 M82.05013123967211 16.965071676755716 C81.76018542274542 16.97436967475926, 81.47023960581872 16.983667672762802, 80.9609375 17 M82.05013123967211 16.965071676755716 C81.72297049092518 16.975563085188266, 81.39580974217824 16.986054493620813, 80.9609375 17 M80.9609375 17 C80.9609375 17, 80.9609375 17, 80.9609375 17 M80.9609375 17 C80.9609375 17, 80.9609375 17, 80.9609375 17 M80.9609375 17 C36.85485148754431 17, -7.251234524911382 17, -80.9609375 17 M80.9609375 17 C26.29796600171135 17, -28.365005496577297 17, -80.9609375 17 M-80.9609375 17 C-81.29188177370803 16.989387261286133, -81.62282604741605 16.97877452257227, -82.05013123967211 16.965071676755716 M-80.9609375 17 C-81.37093117222777 16.986852300935926, -81.78092484445553 16.97370460187185, -82.05013123967211 16.965071676755716 M-82.05013123967211 16.965071676755716 C-82.35430640118993 16.935728264748246, -82.65848156270775 16.906384852740775, -83.1348492486366 16.86043023499518 M-82.05013123967211 16.965071676755716 C-82.36985517217796 16.93422829351116, -82.68957910468383 16.90338491026661, -83.1348492486366 16.86043023499518 M-83.1348492486366 16.86043023499518 C-83.37665969879814 16.821336196681113, -83.61847014895969 16.78224215836704, -84.21063418792333 16.68650566884811 M-83.1348492486366 16.86043023499518 C-83.35357398377612 16.82506851605348, -83.57229871891563 16.789706797111776, -84.21063418792333 16.68650566884811 M-84.21063418792333 16.68650566884811 C-84.42845965492225 16.63678842744962, -84.64628512192118 16.587071186051126, -85.27306542646161 16.4440126716635 M-84.21063418792333 16.68650566884811 C-84.61188603797538 16.594922552486754, -85.01313788802743 16.5033394361254, -85.27306542646161 16.4440126716635 M-85.27306542646161 16.4440126716635 C-85.57180326639909 16.35534884887698, -85.87054110633657 16.266685026090457, -86.31777720640154 16.13394769918137 M-85.27306542646161 16.4440126716635 C-85.49520577402431 16.37808258254537, -85.71734612158701 16.312152493427238, -86.31777720640154 16.13394769918137 M-86.31777720640154 16.13394769918137 C-86.67778460950903 16.00146164696586, -87.03779201261652 15.868975594750353, -87.34047658294936 15.757584874882369 M-86.31777720640154 16.13394769918137 C-86.72073252848898 15.985656415775027, -87.12368785057642 15.837365132368685, -87.34047658294936 15.757584874882369 M-87.34047658294936 15.757584874882369 C-87.65939965624221 15.61640709085246, -87.97832272953507 15.475229306822554, -88.33696106499849 15.316470754341127 M-87.34047658294936 15.757584874882369 C-87.62578124947498 15.631288962273711, -87.9110859160006 15.504993049665051, -88.33696106499849 15.316470754341127 M-88.33696106499849 15.316470754341127 C-88.56080587334965 15.199691061203765, -88.78465068170082 15.082911368066403, -89.30313588406693 14.812417970097624 M-88.33696106499849 15.316470754341127 C-88.69575404819302 15.129288684826413, -89.05454703138756 14.9421066153117, -89.30313588406693 14.812417970097624 M-89.30313588406693 14.812417970097624 C-89.50920929127183 14.687495059628253, -89.71528269847673 14.562572149158882, -90.23503082057931 14.247497783161299 M-89.30313588406693 14.812417970097624 C-89.66690891348848 14.59189662189467, -90.03068194291004 14.371375273691717, -90.23503082057931 14.247497783161299 M-90.23503082057931 14.247497783161299 C-90.48376862409631 14.073989059113806, -90.73250642761332 13.900480335066316, -91.12881651835067 13.624031571755264 M-90.23503082057931 14.247497783161299 C-90.45179217147006 14.096294448227555, -90.66855352236082 13.945091113293811, -91.12881651835067 13.624031571755264 M-91.12881651835067 13.624031571755264 C-91.34993198299419 13.447697872831693, -91.57104744763771 13.271364173908122, -91.9808202202324 12.94458129227529 M-91.12881651835067 13.624031571755264 C-91.3488441195822 13.448565414953496, -91.56887172081372 13.27309925815173, -91.9808202202324 12.94458129227529 M-91.9808202202324 12.94458129227529 C-92.19127552729685 12.753451350741638, -92.40173083436132 12.562321409207986, -92.78754086025926 12.211938951661377 M-91.9808202202324 12.94458129227529 C-92.2443235210826 12.705274566358419, -92.50782682193282 12.465967840441548, -92.78754086025926 12.211938951661377 M-92.78754086025926 12.211938951661377 C-93.07458854041893 11.915538654843683, -93.3616362205786 11.619138358025989, -93.54566345028036 11.429115134442386 M-92.78754086025926 12.211938951661377 C-92.98167972441314 12.01147463532532, -93.17581858856703 11.811010318989261, -93.54566345028036 11.429115134442386 M-93.54566345028036 11.429115134442386 C-93.78538837976751 11.147520591531864, -94.02511330925466 10.865926048621343, -94.25207270195651 10.599326631598473 M-93.54566345028036 11.429115134442386 C-93.79640427616363 11.134580692802729, -94.0471451020469 10.840046251163074, -94.25207270195651 10.599326631598473 M-94.25207270195651 10.599326631598473 C-94.4856764119442 10.286318941950748, -94.71928012193189 9.973311252303022, -94.90386582814824 9.72598322207689 M-94.25207270195651 10.599326631598473 C-94.44663495718541 10.338630934577827, -94.64119721241431 10.077935237557183, -94.90386582814824 9.72598322207689 M-94.90386582814824 9.72598322207689 C-95.07641293752143 9.460904526693254, -95.24896004689461 9.19582583130962, -95.49836447109088 8.812673661278936 M-94.90386582814824 9.72598322207689 C-95.06199794089254 9.4830498324838, -95.22013005363684 9.24011644289071, -95.49836447109088 8.812673661278936 M-95.49836447109088 8.812673661278936 C-95.70460610564001 8.446470754906853, -95.91084774018914 8.08026784853477, -96.033125708341 7.863150934094201 M-95.49836447109088 8.812673661278936 C-95.66334703340698 8.51973041559071, -95.82832959572306 8.226787169902483, -96.033125708341 7.863150934094201 M-96.033125708341 7.863150934094201 C-96.20610344027148 7.503958972610032, -96.37908117220194 7.144767011125864, -96.50595209126881 6.881316833080701 M-96.033125708341 7.863150934094201 C-96.18187662926351 7.554266464038778, -96.33062755018601 7.245381993983356, -96.50595209126881 6.881316833080701 M-96.50595209126881 6.881316833080701 C-96.59373265991356 6.664497131406329, -96.68151322855832 6.447677429731956, -96.91490067484592 5.87120592516224 M-96.50595209126881 6.881316833080701 C-96.59730080818024 6.655683736202173, -96.68864952509168 6.430050639323644, -96.91490067484592 5.87120592516224 M-96.91490067484592 5.87120592516224 C-97.04808846512415 5.4700655214367995, -97.18127625540237 5.068925117711359, -97.25829100162323 4.8369689727275516 M-96.91490067484592 5.87120592516224 C-96.988267779755 5.650235894636806, -97.06163488466407 5.429265864111373, -97.25829100162323 4.8369689727275516 M-97.25829100162323 4.8369689727275516 C-97.31599166126 4.616931349908489, -97.37369232089677 4.3968937270894255, -97.534712007091 3.782855877257349 M-97.25829100162323 4.8369689727275516 C-97.36068583076022 4.446493111028552, -97.4630806598972 4.056017249329552, -97.534712007091 3.782855877257349 M-97.534712007091 3.782855877257349 C-97.60526688449774 3.420571493552385, -97.67582176190447 3.058287109847421, -97.74302781804565 2.713198215567455 M-97.534712007091 3.782855877257349 C-97.58217702551939 3.539133039362822, -97.62964204394775 3.295410201468295, -97.74302781804565 2.713198215567455 M-97.74302781804565 2.713198215567455 C-97.78394499678488 2.3958526572767607, -97.82486217552413 2.078507098986066, -97.88238242013637 1.6323914404306026 M-97.74302781804565 2.713198215567455 C-97.79272413080905 2.327763427421418, -97.84242044357246 1.9423286392753805, -97.88238242013637 1.6323914404306026 M-97.88238242013637 1.6323914404306026 C-97.90232785918856 1.321725127524052, -97.92227329824075 1.0110588146175017, -97.9522031754117 0.54487681871814 M-97.88238242013637 1.6323914404306026 C-97.90172433784524 1.3311254596000834, -97.9210662555541 1.0298594787695643, -97.9522031754117 0.54487681871814 M-97.9522031754117 0.54487681871814 C-97.9522031754117 0.13101652038072426, -97.9522031754117 -0.28284377795669147, -97.9522031754117 -0.5448768187181317 M-97.9522031754117 0.54487681871814 C-97.9522031754117 0.11000552372203698, -97.9522031754117 -0.324865771274066, -97.9522031754117 -0.5448768187181317 M-97.9522031754117 -0.5448768187181317 C-97.93120704085648 -0.871908562190465, -97.91021090630124 -1.1989403056627985, -97.88238242013637 -1.6323914404305793 M-97.9522031754117 -0.5448768187181317 C-97.92639863013501 -0.9468034404564529, -97.90059408485834 -1.3487300621947744, -97.88238242013637 -1.6323914404305793 M-97.88238242013637 -1.6323914404305793 C-97.83497535421571 -2.0000712821271733, -97.78756828829505 -2.3677511238237674, -97.74302781804565 -2.713198215567447 M-97.88238242013637 -1.6323914404305793 C-97.84435778536476 -1.9273029989056996, -97.80633315059316 -2.22221455738082, -97.74302781804565 -2.713198215567447 M-97.74302781804565 -2.713198215567447 C-97.66911865410802 -3.0927061516798844, -97.59520949017038 -3.4722140877923224, -97.534712007091 -3.782855877257341 M-97.74302781804565 -2.713198215567447 C-97.6625065955925 -3.126657674697922, -97.58198537313937 -3.540117133828397, -97.534712007091 -3.782855877257341 M-97.534712007091 -3.782855877257341 C-97.45658575182867 -4.080785148705845, -97.37845949656634 -4.378714420154347, -97.25829100162323 -4.836968972727544 M-97.534712007091 -3.782855877257341 C-97.46783739171691 -4.037877769320404, -97.40096277634282 -4.2928996613834665, -97.25829100162323 -4.836968972727544 M-97.25829100162323 -4.836968972727544 C-97.15508833219087 -5.1477989699454865, -97.0518856627585 -5.458628967163429, -96.91490067484594 -5.871205925162218 M-97.25829100162323 -4.836968972727544 C-97.17702267490581 -5.081736224450979, -97.0957543481884 -5.326503476174414, -96.91490067484594 -5.871205925162218 M-96.91490067484594 -5.871205925162218 C-96.80519503508702 -6.142180976380994, -96.6954893953281 -6.4131560275997685, -96.50595209126881 -6.881316833080692 M-96.91490067484594 -5.871205925162218 C-96.76885320842105 -6.231945990867359, -96.62280574199616 -6.5926860565725, -96.50595209126881 -6.881316833080692 M-96.50595209126881 -6.881316833080692 C-96.33413625539012 -7.238096092552749, -96.16232041951143 -7.594875352024806, -96.033125708341 -7.863150934094194 M-96.50595209126881 -6.881316833080692 C-96.38526430228931 -7.131927609201623, -96.26457651330982 -7.382538385322553, -96.033125708341 -7.863150934094194 M-96.033125708341 -7.863150934094194 C-95.82464381017788 -8.233331655364218, -95.61616191201476 -8.60351237663424, -95.49836447109088 -8.812673661278929 M-96.033125708341 -7.863150934094194 C-95.86811009441982 -8.156152866254105, -95.70309448049862 -8.449154798414018, -95.49836447109088 -8.812673661278929 M-95.49836447109088 -8.812673661278929 C-95.29788635843033 -9.120661878236525, -95.09740824576978 -9.428650095194124, -94.90386582814826 -9.725983222076884 M-95.49836447109088 -8.812673661278929 C-95.34422856571382 -9.049467803224024, -95.19009266033675 -9.286261945169118, -94.90386582814826 -9.725983222076884 M-94.90386582814826 -9.725983222076884 C-94.65434753657495 -10.060315001201111, -94.40482924500165 -10.39464678032534, -94.25207270195651 -10.599326631598467 M-94.90386582814826 -9.725983222076884 C-94.69460815391032 -10.006369441789412, -94.48535047967239 -10.28675566150194, -94.25207270195651 -10.599326631598467 M-94.25207270195651 -10.599326631598467 C-94.04223374583046 -10.845815409638973, -93.83239478970442 -11.09230418767948, -93.54566345028037 -11.42911513444238 M-94.25207270195651 -10.599326631598467 C-94.0688015456402 -10.814607360231832, -93.88553038932388 -11.029888088865196, -93.54566345028037 -11.42911513444238 M-93.54566345028037 -11.42911513444238 C-93.36793694602677 -11.612632341701586, -93.19021044177317 -11.796149548960791, -92.78754086025927 -12.21193895166136 M-93.54566345028037 -11.42911513444238 C-93.35675535534854 -11.624178252102528, -93.1678472604167 -11.819241369762675, -92.78754086025927 -12.21193895166136 M-92.78754086025927 -12.21193895166136 C-92.54907863130197 -12.428504038635545, -92.31061640234468 -12.645069125609728, -91.98082022023242 -12.944581292275274 M-92.78754086025927 -12.21193895166136 C-92.62586114090514 -12.358772194967818, -92.46418142155103 -12.505605438274275, -91.98082022023242 -12.944581292275274 M-91.98082022023242 -12.944581292275274 C-91.76030238003267 -13.120438401608398, -91.53978453983291 -13.296295510941523, -91.12881651835067 -13.624031571755259 M-91.98082022023242 -12.944581292275274 C-91.67418656909143 -13.189113469196059, -91.36755291795045 -13.433645646116844, -91.12881651835067 -13.624031571755259 M-91.12881651835067 -13.624031571755259 C-90.94239096464354 -13.754073967789205, -90.75596541093641 -13.884116363823152, -90.23503082057934 -14.247497783161284 M-91.12881651835067 -13.624031571755259 C-90.8601377380742 -13.811450257959185, -90.59145895779773 -13.998868944163112, -90.23503082057934 -14.247497783161284 M-90.23503082057934 -14.247497783161284 C-90.023002552973 -14.376030565000653, -89.81097428536667 -14.50456334684002, -89.30313588406695 -14.812417970097618 M-90.23503082057934 -14.247497783161284 C-89.95313507832157 -14.418384638721205, -89.6712393360638 -14.589271494281125, -89.30313588406695 -14.812417970097618 M-89.30313588406695 -14.812417970097618 C-89.06378976357121 -14.937284687851742, -88.82444364307545 -15.062151405605865, -88.33696106499849 -15.316470754341124 M-89.30313588406695 -14.812417970097618 C-88.98040352394307 -14.980787235654299, -88.6576711638192 -15.149156501210982, -88.33696106499849 -15.316470754341124 M-88.33696106499849 -15.316470754341124 C-88.05240599719103 -15.442434841833311, -87.76785092938356 -15.568398929325499, -87.34047658294936 -15.757584874882365 M-88.33696106499849 -15.316470754341124 C-88.04053351879072 -15.447690435836568, -87.74410597258294 -15.578910117332013, -87.34047658294936 -15.757584874882365 M-87.34047658294936 -15.757584874882365 C-87.11417497039746 -15.840865960210644, -86.88787335784554 -15.924147045538923, -86.31777720640156 -16.133947699181363 M-87.34047658294936 -15.757584874882365 C-87.00139543631855 -15.882369871274268, -86.66231428968773 -16.00715486766617, -86.31777720640156 -16.133947699181363 M-86.31777720640156 -16.133947699181363 C-85.90366807417661 -16.256853115922535, -85.48955894195166 -16.379758532663708, -85.27306542646164 -16.444012671663494 M-86.31777720640156 -16.133947699181363 C-86.06416028210373 -16.209219871050557, -85.8105433578059 -16.284492042919748, -85.27306542646164 -16.444012671663494 M-85.27306542646164 -16.444012671663494 C-85.00134840774803 -16.506030308065625, -84.7296313890344 -16.568047944467754, -84.21063418792333 -16.68650566884811 M-85.27306542646164 -16.444012671663494 C-84.88486979580411 -16.532615791147844, -84.49667416514657 -16.621218910632194, -84.21063418792333 -16.68650566884811 M-84.21063418792333 -16.68650566884811 C-83.97394280932524 -16.724772095370795, -83.73725143072714 -16.763038521893478, -83.13484924863661 -16.86043023499518 M-84.21063418792333 -16.68650566884811 C-83.98360291961939 -16.72321032365371, -83.75657165131544 -16.75991497845931, -83.13484924863661 -16.86043023499518 M-83.13484924863661 -16.86043023499518 C-82.87656613819932 -16.88534649602818, -82.61828302776203 -16.91026275706118, -82.05013123967213 -16.965071676755716 M-83.13484924863661 -16.86043023499518 C-82.89955472390713 -16.883128814812768, -82.66426019917766 -16.90582739463035, -82.05013123967213 -16.965071676755716 M-82.05013123967213 -16.965071676755716 C-81.73585144434018 -16.9751500180835, -81.42157164900823 -16.985228359411284, -80.9609375 -17 M-82.05013123967213 -16.965071676755716 C-81.76819816512153 -16.974112721707115, -81.48626509057094 -16.983153766658514, -80.9609375 -17 M-80.9609375 -17 C-80.9609375 -17, -80.9609375 -17, -80.9609375 -17 M-80.9609375 -17 C-80.9609375 -17, -80.9609375 -17, -80.9609375 -17" stroke="#3D3D3D" stroke-width="1.3" fill="none" stroke-dasharray="0 0" style="fill:#5A5A5A !important;stroke:#3D3D3D !important"></path></g><g class="label" style="color:#ffffff !important" transform="translate(0, -9.5)"><rect></rect><g><rect class="background" style="stroke: none"></rect><text y="-10.1" style="fill:#404040 !important"><tspan class="text-outer-tspan row" x="0" y="-0.1em" dy="1.1em"><tspan font-style="normal" class="text-inner-tspan" font-weight="normal">Need</tspan><tspan font-style="normal" class="text-inner-tspan" font-weight="normal"> to</tspan><tspan font-style="normal" class="text-inner-tspan" font-weight="normal"> split</tspan><tspan font-style="normal" class="text-inner-tspan" font-weight="normal"> a</tspan><tspan font-style="normal" class="text-inner-tspan" font-weight="normal"> frontend</tspan></tspan></text></g></g></g><g class="node default decision" id="g96e33473-1173-4ccd-82d9-5430a53011e3-dark-flowchart-q1-1" data-look="classic" transform="translate(593.5437469482422, 175.65937042236328)"><polygon points="83.65937423706055,0 167.3187484741211,-83.65937423706055 83.65937423706055,-167.3187484741211 0,-83.65937423706055" class="label-container" transform="translate(-83.15937423706055, 83.65937423706055)" style="fill:#8B5E15 !important;stroke:#6E4810 !important"></polygon><g class="label" style="color:#ffffff !important" transform="translate(0, -18.299999237060547)"><rect></rect><g><rect class="background" style="stroke: none"></rect><text y="-10.1" style="fill:#404040 !important"><tspan class="text-outer-tspan row" x="0" y="-0.1em" dy="1.1em"><tspan font-style="normal" class="text-inner-tspan" font-weight="normal">One</tspan><tspan font-style="normal" class="text-inner-tspan" font-weight="normal"> team</tspan><tspan font-style="normal" class="text-inner-tspan" font-weight="normal"> and</tspan></tspan><tspan class="text-outer-tspan row" x="0" y="1em" dy="1.1em"><tspan font-style="normal" class="text-inner-tspan" font-weight="normal">one</tspan><tspan font-style="normal" class="text-inner-tspan" font-weight="normal"> product?</tspan></tspan></text></g></g></g><g class="node default decision" id="g96e33473-1173-4ccd-82d9-5430a53011e3-dark-flowchart-q2-2" data-look="classic" transform="translate(362.4453125, 669.724983215332)"><polygon points="91.31562423706055,0 182.6312484741211,-91.31562423706055 91.31562423706055,-182.6312484741211 0,-91.31562423706055" class="label-container" transform="translate(-90.81562423706055, 91.31562423706055)" style="fill:#8B5E15 !important;stroke:#6E4810 !important"></polygon><g class="label" style="color:#ffffff !important" transform="translate(0, -18.299999237060547)"><rect></rect><g><rect class="background" style="stroke: none"></rect><text y="-10.1" style="fill:#404040 !important"><tspan class="text-outer-tspan row" x="0" y="-0.1em" dy="1.1em"><tspan font-style="normal" class="text-inner-tspan" font-weight="normal">SEO</tspan><tspan font-style="normal" class="text-inner-tspan" font-weight="normal"> and</tspan><tspan font-style="normal" class="text-inner-tspan" font-weight="normal"> TTFB</tspan></tspan><tspan class="text-outer-tspan row" x="0" y="1em" dy="1.1em"><tspan font-style="normal" class="text-inner-tspan" font-weight="normal">are</tspan><tspan font-style="normal" class="text-inner-tspan" font-weight="normal"> top</tspan><tspan font-style="normal" class="text-inner-tspan" font-weight="normal"> priority?</tspan></tspan></text></g></g></g><g class="node default decision" id="g96e33473-1173-4ccd-82d9-5430a53011e3-dark-flowchart-q3-3" data-look="classic" transform="translate(478.93906021118164, 418.86405181884766)"><polygon points="86.5453109741211,0 173.0906219482422,-86.5453109741211 86.5453109741211,-173.0906219482422 0,-86.5453109741211" class="label-container" transform="translate(-86.0453109741211, 86.5453109741211)" style="fill:#8B5E15 !important;stroke:#6E4810 !important"></polygon><g class="label" style="color:#ffffff !important" transform="translate(0, -27.099998474121094)"><rect></rect><g><rect class="background" style="stroke: none"></rect><text y="-10.1" style="fill:#404040 !important"><tspan class="text-outer-tspan row" x="0" y="-0.1em" dy="1.1em"><tspan font-style="normal" class="text-inner-tspan" font-weight="normal">Need</tspan><tspan font-style="normal" class="text-inner-tspan" font-weight="normal"> legacy</tspan></tspan><tspan class="text-outer-tspan row" x="0" y="1em" dy="1.1em"><tspan font-style="normal" class="text-inner-tspan" font-weight="normal">or</tspan><tspan font-style="normal" class="text-inner-tspan" font-weight="normal"> untrusted</tspan></tspan><tspan class="text-outer-tspan row" x="0" y="2.1em" dy="1.1em"><tspan font-style="normal" class="text-inner-tspan" font-weight="normal">isolation?</tspan></tspan></text></g></g></g><g class="node default decision" id="g96e33473-1173-4ccd-82d9-5430a53011e3-dark-flowchart-q4-4" data-look="classic" transform="translate(129.86328125, 934.0077896118164)"><polygon points="99.9671859741211,0 199.9343719482422,-99.9671859741211 99.9671859741211,-199.9343719482422 0,-99.9671859741211" class="label-container" transform="translate(-99.4671859741211, 99.9671859741211)" style="fill:#8B5E15 !important;stroke:#6E4810 !important"></polygon><g class="label" style="color:#ffffff !important" transform="translate(0, -27.099998474121094)"><rect></rect><g><rect class="background" style="stroke: none"></rect><text y="-10.1" style="fill:#404040 !important"><tspan class="text-outer-tspan row" x="0" y="-0.1em" dy="1.1em"><tspan font-style="normal" class="text-inner-tspan" font-weight="normal">Global</tspan><tspan font-style="normal" class="text-inner-tspan" font-weight="normal"> audience</tspan></tspan><tspan class="text-outer-tspan row" x="0" y="1em" dy="1.1em"><tspan font-style="normal" class="text-inner-tspan" font-weight="normal">and</tspan><tspan font-style="normal" class="text-inner-tspan" font-weight="normal"> cacheable</tspan></tspan><tspan class="text-outer-tspan row" x="0" y="2.1em" dy="1.1em"><tspan font-style="normal" class="text-inner-tspan" font-weight="normal">fragments?</tspan></tspan></text></g></g></g><g class="node default decision" id="g96e33473-1173-4ccd-82d9-5430a53011e3-dark-flowchart-q5-5" data-look="classic" transform="translate(595.02734375, 934.0077896118164)"><polygon points="96.57343673706055,0 193.1468734741211,-96.57343673706055 96.57343673706055,-193.1468734741211 0,-96.57343673706055" class="label-container" transform="translate(-96.07343673706055, 96.57343673706055)" style="fill:#8B5E15 !important;stroke:#6E4810 !important"></polygon><g class="label" style="color:#ffffff !important" transform="translate(0, -18.299999237060547)"><rect></rect><g><rect class="background" style="stroke: none"></rect><text y="-10.1" style="fill:#404040 !important"><tspan class="text-outer-tspan row" x="0" y="-0.1em" dy="1.1em"><tspan font-style="normal" class="text-inner-tspan" font-weight="normal">Heavy</tspan><tspan font-style="normal" class="text-inner-tspan" font-weight="normal"> interactive</tspan></tspan><tspan class="text-outer-tspan row" x="0" y="1em" dy="1.1em"><tspan font-style="normal" class="text-inner-tspan" font-weight="normal">shared</tspan><tspan font-style="normal" class="text-inner-tspan" font-weight="normal"> state?</tspan></tspan></text></g></g></g><g class="node default warn" id="g96e33473-1173-4ccd-82d9-5430a53011e3-dark-flowchart-mod-6" data-look="classic" transform="translate(708.1484336853027, 418.86405181884766)"><rect class="basic label-container" style="fill:#B43A3A !important;stroke:#8E2828 !important" x="-92.6640625" y="-33.29999923706055" width="185.328125" height="66.5999984741211"></rect><g class="label" style="color:#ffffff !important" transform="translate(0, -18.299999237060547)"><rect></rect><g><rect class="background" style="stroke: none"></rect><text y="-10.1" style="fill:#404040 !important"><tspan class="text-outer-tspan row" x="0" y="-0.1em" dy="1.1em"><tspan font-style="normal" class="text-inner-tspan" font-weight="normal">Modular</tspan><tspan font-style="normal" class="text-inner-tspan" font-weight="normal"> monolith</tspan></tspan><tspan class="text-outer-tspan row" x="0" y="1em" dy="1.1em"><tspan font-style="normal" class="text-inner-tspan" font-weight="normal">No</tspan><tspan font-style="normal" class="text-inner-tspan" font-weight="normal"> MFE</tspan></tspan></text></g></g></g><g class="node default result" id="g96e33473-1173-4ccd-82d9-5430a53011e3-dark-flowchart-iframe-7" data-look="classic" transform="translate(595.4328079223633, 669.724983215332)"><rect class="basic label-container" style="fill:#1F6E68 !important;stroke:#155752 !important" x="-91.671875" y="-42.099998474121094" width="183.34375" height="84.19999694824219"></rect><g class="label" style="color:#ffffff !important" transform="translate(0, -27.099998474121094)"><rect></rect><g><rect class="background" style="stroke: none"></rect><text y="-10.1" style="fill:#404040 !important"><tspan class="text-outer-tspan row" x="0" y="-0.1em" dy="1.1em"><tspan font-style="normal" class="text-inner-tspan" font-weight="normal">Iframes</tspan></tspan><tspan class="text-outer-tspan row" x="0" y="1em" dy="1.1em"><tspan font-style="normal" class="text-inner-tspan" font-weight="normal">or</tspan><tspan font-style="normal" class="text-inner-tspan" font-weight="normal"> sandboxed</tspan></tspan><tspan class="text-outer-tspan row" x="0" y="2.1em" dy="1.1em"><tspan font-style="normal" class="text-inner-tspan" font-weight="normal">Web</tspan><tspan font-style="normal" class="text-inner-tspan" font-weight="normal"> Components</tspan></tspan></text></g></g></g><g class="node default result" id="g96e33473-1173-4ccd-82d9-5430a53011e3-dark-flowchart-edge-8" data-look="classic" transform="translate(107.7578125, 1157.8749771118164)"><rect class="basic label-container" style="fill:#1F6E68 !important;stroke:#155752 !important" x="-99.7578125" y="-42.099998474121094" width="199.515625" height="84.19999694824219"></rect><g class="label" style="color:#ffffff !important" transform="translate(0, -27.099998474121094)"><rect></rect><g><rect class="background" style="stroke: none"></rect><text y="-10.1" style="fill:#404040 !important"><tspan class="text-outer-tspan row" x="0" y="-0.1em" dy="1.1em"><tspan font-style="normal" class="text-inner-tspan" font-weight="normal">Edge</tspan><tspan font-style="normal" class="text-inner-tspan" font-weight="normal"> composition</tspan></tspan><tspan class="text-outer-tspan row" x="0" y="1em" dy="1.1em"><tspan font-style="normal" class="text-inner-tspan" font-weight="normal">Workers</tspan><tspan font-style="normal" class="text-inner-tspan" font-weight="normal"> ·</tspan><tspan font-style="normal" class="text-inner-tspan" font-weight="normal"> ESI</tspan><tspan font-style="normal" class="text-inner-tspan" font-weight="normal"> ·</tspan><tspan font-style="normal" class="text-inner-tspan" font-weight="normal"> Web</tspan></tspan><tspan class="text-outer-tspan row" x="0" y="2.1em" dy="1.1em"><tspan font-style="normal" class="text-inner-tspan" font-weight="normal">Fragments</tspan></tspan></text></g></g></g><g class="node default result" id="g96e33473-1173-4ccd-82d9-5430a53011e3-dark-flowchart-server-9" data-look="classic" transform="translate(361.2734375, 1157.8749771118164)"><rect class="basic label-container" style="fill:#1F6E68 !important;stroke:#155752 !important" x="-103.7578125" y="-33.29999923706055" width="207.515625" height="66.5999984741211"></rect><g class="label" style="color:#ffffff !important" transform="translate(0, -18.299999237060547)"><rect></rect><g><rect class="background" style="stroke: none"></rect><text y="-10.1" style="fill:#404040 !important"><tspan class="text-outer-tspan row" x="0" y="-0.1em" dy="1.1em"><tspan font-style="normal" class="text-inner-tspan" font-weight="normal">Server</tspan><tspan font-style="normal" class="text-inner-tspan" font-weight="normal"> composition</tspan></tspan><tspan class="text-outer-tspan row" x="0" y="1em" dy="1.1em"><tspan font-style="normal" class="text-inner-tspan" font-weight="normal">SSR</tspan><tspan font-style="normal" class="text-inner-tspan" font-weight="normal"> ·</tspan><tspan font-style="normal" class="text-inner-tspan" font-weight="normal"> Tailor</tspan><tspan font-style="normal" class="text-inner-tspan" font-weight="normal"> ·</tspan><tspan font-style="normal" class="text-inner-tspan" font-weight="normal"> Podium</tspan></tspan></text></g></g></g><g class="node default result" id="g96e33473-1173-4ccd-82d9-5430a53011e3-dark-flowchart-client-10" data-look="classic" transform="translate(617.1328125, 1157.8749771118164)"><rect class="basic label-container" style="fill:#1F6E68 !important;stroke:#155752 !important" x="-102.1015625" y="-50.900001525878906" width="204.203125" height="101.80000305175781"></rect><g class="label" style="color:#ffffff !important" transform="translate(0, -35.900001525878906)"><rect></rect><g><rect class="background" style="stroke: none"></rect><text y="-10.1" style="fill:#404040 !important"><tspan class="text-outer-tspan row" x="0" y="-0.1em" dy="1.1em"><tspan font-style="normal" class="text-inner-tspan" font-weight="normal">Client</tspan><tspan font-style="normal" class="text-inner-tspan" font-weight="normal"> composition</tspan></tspan><tspan class="text-outer-tspan row" x="0" y="1em" dy="1.1em"><tspan font-style="normal" class="text-inner-tspan" font-weight="normal">Module</tspan><tspan font-style="normal" class="text-inner-tspan" font-weight="normal"> Federation</tspan><tspan font-style="normal" class="text-inner-tspan" font-weight="normal"> ·</tspan></tspan><tspan class="text-outer-tspan row" x="0" y="2.1em" dy="1.1em"><tspan font-style="normal" class="text-inner-tspan" font-weight="normal">Native</tspan><tspan font-style="normal" class="text-inner-tspan" font-weight="normal"> Federation</tspan><tspan font-style="normal" class="text-inner-tspan" font-weight="normal"> ·</tspan></tspan><tspan class="text-outer-tspan row" x="0" y="3.2em" dy="1.1em"><tspan font-style="normal" class="text-inner-tspan" font-weight="normal">single-spa</tspan></tspan></text></g></g></g></g></g></g><defs><filter id="g96e33473-1173-4ccd-82d9-5430a53011e3-dark-drop-shadow" height="130%" width="130%"><feDropShadow dx="4" dy="4" stdDeviation="0" flood-opacity="0.06" flood-color="#000000"></feDropShadow></filter></defs><defs><filter id="g96e33473-1173-4ccd-82d9-5430a53011e3-dark-drop-shadow-small" height="150%" width="150%"><feDropShadow dx="2" dy="2" stdDeviation="0" flood-opacity="0.06" flood-color="#000000"></feDropShadow></filter></defs><linearGradient id="g96e33473-1173-4ccd-82d9-5430a53011e3-dark-gradient" gradientUnits="objectBoundingBox" x1="0%" y1="0%" x2="100%" y2="0%"><stop offset="0%" stop-color="#555555" stop-opacity="1"></stop><stop offset="100%" stop-color="#555555" stop-opacity="1"></stop></linearGradient></svg>