<svg id="ga52c0dc9-8524-4e8e-b8f7-978952a5444e-light" width="100%" xmlns="http://www.w3.org/2000/svg" xmlns:xlink="http://www.w3.org/1999/xlink" class="flowchart" style="max-width: 760.5546875px;" viewBox="0 0 760.5546875 748.765625" role="graphics-document document" aria-roledescription="flowchart-v2"><style>#ga52c0dc9-8524-4e8e-b8f7-978952a5444e-light{font-family:"trebuchet ms",verdana,arial,sans-serif;font-size:16px;fill:#333;}@keyframes edge-animation-frame{from{stroke-dashoffset:0;}}@keyframes dash{to{stroke-dashoffset:0;}}#ga52c0dc9-8524-4e8e-b8f7-978952a5444e-light .edge-animation-slow{stroke-dasharray:9,5!important;stroke-dashoffset:900;animation:dash 50s linear infinite;stroke-linecap:round;}#ga52c0dc9-8524-4e8e-b8f7-978952a5444e-light .edge-animation-fast{stroke-dasharray:9,5!important;stroke-dashoffset:900;animation:dash 20s linear infinite;stroke-linecap:round;}#ga52c0dc9-8524-4e8e-b8f7-978952a5444e-light .error-icon{fill:#552222;}#ga52c0dc9-8524-4e8e-b8f7-978952a5444e-light .error-text{fill:#552222;stroke:#552222;}#ga52c0dc9-8524-4e8e-b8f7-978952a5444e-light .edge-thickness-normal{stroke-width:1px;}#ga52c0dc9-8524-4e8e-b8f7-978952a5444e-light .edge-thickness-thick{stroke-width:3.5px;}#ga52c0dc9-8524-4e8e-b8f7-978952a5444e-light .edge-pattern-solid{stroke-dasharray:0;}#ga52c0dc9-8524-4e8e-b8f7-978952a5444e-light .edge-thickness-invisible{stroke-width:0;fill:none;}#ga52c0dc9-8524-4e8e-b8f7-978952a5444e-light .edge-pattern-dashed{stroke-dasharray:3;}#ga52c0dc9-8524-4e8e-b8f7-978952a5444e-light .edge-pattern-dotted{stroke-dasharray:2;}#ga52c0dc9-8524-4e8e-b8f7-978952a5444e-light .marker{fill:#333333;stroke:#333333;}#ga52c0dc9-8524-4e8e-b8f7-978952a5444e-light .marker.cross{stroke:#333333;}#ga52c0dc9-8524-4e8e-b8f7-978952a5444e-light svg{font-family:"trebuchet ms",verdana,arial,sans-serif;font-size:16px;}#ga52c0dc9-8524-4e8e-b8f7-978952a5444e-light p{margin:0;}#ga52c0dc9-8524-4e8e-b8f7-978952a5444e-light .label{font-family:"trebuchet ms",verdana,arial,sans-serif;color:#333;}#ga52c0dc9-8524-4e8e-b8f7-978952a5444e-light .cluster-label text{fill:#333;}#ga52c0dc9-8524-4e8e-b8f7-978952a5444e-light .cluster-label span{color:#333;}#ga52c0dc9-8524-4e8e-b8f7-978952a5444e-light .cluster-label span p{background-color:transparent;}#ga52c0dc9-8524-4e8e-b8f7-978952a5444e-light .label text,#ga52c0dc9-8524-4e8e-b8f7-978952a5444e-light span{fill:#333;color:#333;}#ga52c0dc9-8524-4e8e-b8f7-978952a5444e-light .node rect,#ga52c0dc9-8524-4e8e-b8f7-978952a5444e-light .node circle,#ga52c0dc9-8524-4e8e-b8f7-978952a5444e-light .node ellipse,#ga52c0dc9-8524-4e8e-b8f7-978952a5444e-light .node polygon,#ga52c0dc9-8524-4e8e-b8f7-978952a5444e-light .node path{fill:#ECECFF;stroke:#9370DB;stroke-width:1px;}#ga52c0dc9-8524-4e8e-b8f7-978952a5444e-light .rough-node .label text,#ga52c0dc9-8524-4e8e-b8f7-978952a5444e-light .node .label text,#ga52c0dc9-8524-4e8e-b8f7-978952a5444e-light .image-shape .label,#ga52c0dc9-8524-4e8e-b8f7-978952a5444e-light .icon-shape .label{text-anchor:middle;}#ga52c0dc9-8524-4e8e-b8f7-978952a5444e-light .node .katex path{fill:#000;stroke:#000;stroke-width:1px;}#ga52c0dc9-8524-4e8e-b8f7-978952a5444e-light .rough-node .label,#ga52c0dc9-8524-4e8e-b8f7-978952a5444e-light .node .label,#ga52c0dc9-8524-4e8e-b8f7-978952a5444e-light .image-shape .label,#ga52c0dc9-8524-4e8e-b8f7-978952a5444e-light .icon-shape .label{text-align:center;}#ga52c0dc9-8524-4e8e-b8f7-978952a5444e-light .node.clickable{cursor:pointer;}#ga52c0dc9-8524-4e8e-b8f7-978952a5444e-light .root .anchor path{fill:#333333!important;stroke-width:0;stroke:#333333;}#ga52c0dc9-8524-4e8e-b8f7-978952a5444e-light .arrowheadPath{fill:#333333;}#ga52c0dc9-8524-4e8e-b8f7-978952a5444e-light .edgePath .path{stroke:#333333;stroke-width:1px;}#ga52c0dc9-8524-4e8e-b8f7-978952a5444e-light .flowchart-link{stroke:#333333;fill:none;}#ga52c0dc9-8524-4e8e-b8f7-978952a5444e-light .edgeLabel{background-color:rgba(232,232,232, 0.8);text-align:center;}#ga52c0dc9-8524-4e8e-b8f7-978952a5444e-light .edgeLabel p{background-color:rgba(232,232,232, 0.8);}#ga52c0dc9-8524-4e8e-b8f7-978952a5444e-light .edgeLabel rect{opacity:0.5;background-color:rgba(232,232,232, 0.8);fill:rgba(232,232,232, 0.8);}#ga52c0dc9-8524-4e8e-b8f7-978952a5444e-light .labelBkg{background-color:rgba(232, 232, 232, 0.5);}#ga52c0dc9-8524-4e8e-b8f7-978952a5444e-light .cluster rect{fill:#ffffde;stroke:#aaaa33;stroke-width:1px;}#ga52c0dc9-8524-4e8e-b8f7-978952a5444e-light .cluster text{fill:#333;}#ga52c0dc9-8524-4e8e-b8f7-978952a5444e-light .cluster span{color:#333;}#ga52c0dc9-8524-4e8e-b8f7-978952a5444e-light div.mermaidTooltip{position:absolute;text-align:center;max-width:200px;padding:2px;font-family:"trebuchet ms",verdana,arial,sans-serif;font-size:12px;background:hsl(80, 100%, 96.2745098039%);border:1px solid #aaaa33;border-radius:2px;pointer-events:none;z-index:100;}#ga52c0dc9-8524-4e8e-b8f7-978952a5444e-light .flowchartTitleText{text-anchor:middle;font-size:18px;fill:#333;}#ga52c0dc9-8524-4e8e-b8f7-978952a5444e-light rect.text{fill:none;stroke-width:0;}#ga52c0dc9-8524-4e8e-b8f7-978952a5444e-light .icon-shape,#ga52c0dc9-8524-4e8e-b8f7-978952a5444e-light .image-shape{background-color:rgba(232,232,232, 0.8);text-align:center;}#ga52c0dc9-8524-4e8e-b8f7-978952a5444e-light .icon-shape p,#ga52c0dc9-8524-4e8e-b8f7-978952a5444e-light .image-shape p{background-color:rgba(232,232,232, 0.8);padding:2px;}#ga52c0dc9-8524-4e8e-b8f7-978952a5444e-light .icon-shape .label rect,#ga52c0dc9-8524-4e8e-b8f7-978952a5444e-light .image-shape .label rect{opacity:0.5;background-color:rgba(232,232,232, 0.8);fill:rgba(232,232,232, 0.8);}#ga52c0dc9-8524-4e8e-b8f7-978952a5444e-light .label-icon{display:inline-block;height:1em;overflow:visible;vertical-align:-0.125em;}#ga52c0dc9-8524-4e8e-b8f7-978952a5444e-light .node .label-icon path{fill:currentColor;stroke:revert;stroke-width:revert;}#ga52c0dc9-8524-4e8e-b8f7-978952a5444e-light .node .neo-node{stroke:#9370DB;}#ga52c0dc9-8524-4e8e-b8f7-978952a5444e-light [data-look="neo"].node rect,#ga52c0dc9-8524-4e8e-b8f7-978952a5444e-light [data-look="neo"].cluster rect,#ga52c0dc9-8524-4e8e-b8f7-978952a5444e-light [data-look="neo"].node polygon{stroke:#9370DB;filter:drop-shadow(1px 2px 2px rgba(185, 185, 185, 1));}#ga52c0dc9-8524-4e8e-b8f7-978952a5444e-light [data-look="neo"].node path{stroke:#9370DB;stroke-width:1px;}#ga52c0dc9-8524-4e8e-b8f7-978952a5444e-light [data-look="neo"].node .outer-path{filter:drop-shadow(1px 2px 2px rgba(185, 185, 185, 1));}#ga52c0dc9-8524-4e8e-b8f7-978952a5444e-light [data-look="neo"].node .neo-line path{stroke:#9370DB;filter:none;}#ga52c0dc9-8524-4e8e-b8f7-978952a5444e-light [data-look="neo"].node circle{stroke:#9370DB;filter:drop-shadow(1px 2px 2px rgba(185, 185, 185, 1));}#ga52c0dc9-8524-4e8e-b8f7-978952a5444e-light [data-look="neo"].node circle .state-start{fill:#000000;}#ga52c0dc9-8524-4e8e-b8f7-978952a5444e-light [data-look="neo"].icon-shape .icon{fill:#9370DB;filter:drop-shadow(1px 2px 2px rgba(185, 185, 185, 1));}#ga52c0dc9-8524-4e8e-b8f7-978952a5444e-light [data-look="neo"].icon-shape .icon-neo path{stroke:#9370DB;filter:drop-shadow(1px 2px 2px rgba(185, 185, 185, 1));}#ga52c0dc9-8524-4e8e-b8f7-978952a5444e-light :root{--mermaid-font-family:"trebuchet ms",verdana,arial,sans-serif;}#ga52c0dc9-8524-4e8e-b8f7-978952a5444e-light .primaryC rect{fill:#2E5A88!important;stroke:#1F4870!important;color:#ffffff!important;}#ga52c0dc9-8524-4e8e-b8f7-978952a5444e-light .primaryC polygon{fill:#2E5A88!important;stroke:#1F4870!important;color:#ffffff!important;}#ga52c0dc9-8524-4e8e-b8f7-978952a5444e-light .primaryC ellipse{fill:#2E5A88!important;stroke:#1F4870!important;color:#ffffff!important;}#ga52c0dc9-8524-4e8e-b8f7-978952a5444e-light .primaryC circle{fill:#2E5A88!important;stroke:#1F4870!important;color:#ffffff!important;}#ga52c0dc9-8524-4e8e-b8f7-978952a5444e-light .primaryC path{fill:#2E5A88!important;stroke:#1F4870!important;color:#ffffff!important;}#ga52c0dc9-8524-4e8e-b8f7-978952a5444e-light .primaryC tspan{fill:#ffffff!important;}#ga52c0dc9-8524-4e8e-b8f7-978952a5444e-light .storageC rect{fill:#8B5E15!important;stroke:#6E4810!important;color:#ffffff!important;}#ga52c0dc9-8524-4e8e-b8f7-978952a5444e-light .storageC polygon{fill:#8B5E15!important;stroke:#6E4810!important;color:#ffffff!important;}#ga52c0dc9-8524-4e8e-b8f7-978952a5444e-light .storageC ellipse{fill:#8B5E15!important;stroke:#6E4810!important;color:#ffffff!important;}#ga52c0dc9-8524-4e8e-b8f7-978952a5444e-light .storageC circle{fill:#8B5E15!important;stroke:#6E4810!important;color:#ffffff!important;}#ga52c0dc9-8524-4e8e-b8f7-978952a5444e-light .storageC path{fill:#8B5E15!important;stroke:#6E4810!important;color:#ffffff!important;}#ga52c0dc9-8524-4e8e-b8f7-978952a5444e-light .storageC tspan{fill:#ffffff!important;}#ga52c0dc9-8524-4e8e-b8f7-978952a5444e-light .neutralC rect{fill:#5A5A5A!important;stroke:#3D3D3D!important;color:#ffffff!important;}#ga52c0dc9-8524-4e8e-b8f7-978952a5444e-light .neutralC polygon{fill:#5A5A5A!important;stroke:#3D3D3D!important;color:#ffffff!important;}#ga52c0dc9-8524-4e8e-b8f7-978952a5444e-light .neutralC ellipse{fill:#5A5A5A!important;stroke:#3D3D3D!important;color:#ffffff!important;}#ga52c0dc9-8524-4e8e-b8f7-978952a5444e-light .neutralC circle{fill:#5A5A5A!important;stroke:#3D3D3D!important;color:#ffffff!important;}#ga52c0dc9-8524-4e8e-b8f7-978952a5444e-light .neutralC path{fill:#5A5A5A!important;stroke:#3D3D3D!important;color:#ffffff!important;}#ga52c0dc9-8524-4e8e-b8f7-978952a5444e-light .neutralC tspan{fill:#ffffff!important;}#ga52c0dc9-8524-4e8e-b8f7-978952a5444e-light .alertC rect{fill:#B43A3A!important;stroke:#8E2828!important;color:#ffffff!important;}#ga52c0dc9-8524-4e8e-b8f7-978952a5444e-light .alertC polygon{fill:#B43A3A!important;stroke:#8E2828!important;color:#ffffff!important;}#ga52c0dc9-8524-4e8e-b8f7-978952a5444e-light .alertC ellipse{fill:#B43A3A!important;stroke:#8E2828!important;color:#ffffff!important;}#ga52c0dc9-8524-4e8e-b8f7-978952a5444e-light .alertC circle{fill:#B43A3A!important;stroke:#8E2828!important;color:#ffffff!important;}#ga52c0dc9-8524-4e8e-b8f7-978952a5444e-light .alertC path{fill:#B43A3A!important;stroke:#8E2828!important;color:#ffffff!important;}#ga52c0dc9-8524-4e8e-b8f7-978952a5444e-light .alertC tspan{fill:#ffffff!important;}#ga52c0dc9-8524-4e8e-b8f7-978952a5444e-light .successC rect{fill:#2D7A2D!important;stroke:#1E5A1E!important;color:#ffffff!important;}#ga52c0dc9-8524-4e8e-b8f7-978952a5444e-light .successC polygon{fill:#2D7A2D!important;stroke:#1E5A1E!important;color:#ffffff!important;}#ga52c0dc9-8524-4e8e-b8f7-978952a5444e-light .successC ellipse{fill:#2D7A2D!important;stroke:#1E5A1E!important;color:#ffffff!important;}#ga52c0dc9-8524-4e8e-b8f7-978952a5444e-light .successC circle{fill:#2D7A2D!important;stroke:#1E5A1E!important;color:#ffffff!important;}#ga52c0dc9-8524-4e8e-b8f7-978952a5444e-light .successC path{fill:#2D7A2D!important;stroke:#1E5A1E!important;color:#ffffff!important;}#ga52c0dc9-8524-4e8e-b8f7-978952a5444e-light .successC tspan{fill:#ffffff!important;}</style><g><marker id="ga52c0dc9-8524-4e8e-b8f7-978952a5444e-light_flowchart-v2-pointEnd" class="marker flowchart-v2" viewBox="0 0 10 10" refX="5" refY="5" markerUnits="userSpaceOnUse" markerWidth="8" markerHeight="8" orient="auto"><path d="M 0 0 L 10 5 L 0 10 z" class="arrowMarkerPath" style="stroke-width: 1; stroke-dasharray: 1, 0;"></path></marker><marker id="ga52c0dc9-8524-4e8e-b8f7-978952a5444e-light_flowchart-v2-pointStart" class="marker flowchart-v2" viewBox="0 0 10 10" refX="4.5" refY="5" markerUnits="userSpaceOnUse" markerWidth="8" markerHeight="8" orient="auto"><path d="M 0 5 L 10 10 L 10 0 z" class="arrowMarkerPath" style="stroke-width: 1; stroke-dasharray: 1, 0;"></path></marker><marker id="ga52c0dc9-8524-4e8e-b8f7-978952a5444e-light_flowchart-v2-pointEnd-margin" class="marker flowchart-v2" viewBox="0 0 11.5 14" refX="11.5" refY="7" markerUnits="userSpaceOnUse" markerWidth="10.5" markerHeight="14" orient="auto"><path d="M 0 0 L 11.5 7 L 0 14 z" class="arrowMarkerPath" style="stroke-width: 0; stroke-dasharray: 1, 0;"></path></marker><marker id="ga52c0dc9-8524-4e8e-b8f7-978952a5444e-light_flowchart-v2-pointStart-margin" class="marker flowchart-v2" viewBox="0 0 11.5 14" refX="1" refY="7" markerUnits="userSpaceOnUse" markerWidth="11.5" markerHeight="14" orient="auto"><polygon points="0,7 11.5,14 11.5,0" class="arrowMarkerPath" style="stroke-width: 0; stroke-dasharray: 1, 0;"></polygon></marker><marker id="ga52c0dc9-8524-4e8e-b8f7-978952a5444e-light_flowchart-v2-circleEnd" class="marker flowchart-v2" viewBox="0 0 10 10" refX="11" refY="5" markerUnits="userSpaceOnUse" markerWidth="11" markerHeight="11" orient="auto"><circle cx="5" cy="5" r="5" class="arrowMarkerPath" style="stroke-width: 1; stroke-dasharray: 1, 0;"></circle></marker><marker id="ga52c0dc9-8524-4e8e-b8f7-978952a5444e-light_flowchart-v2-circleStart" class="marker flowchart-v2" viewBox="0 0 10 10" refX="-1" refY="5" markerUnits="userSpaceOnUse" markerWidth="11" markerHeight="11" orient="auto"><circle cx="5" cy="5" r="5" class="arrowMarkerPath" style="stroke-width: 1; stroke-dasharray: 1, 0;"></circle></marker><marker id="ga52c0dc9-8524-4e8e-b8f7-978952a5444e-light_flowchart-v2-circleEnd-margin" class="marker flowchart-v2" viewBox="0 0 10 10" refY="5" refX="12.25" markerUnits="userSpaceOnUse" markerWidth="14" markerHeight="14" orient="auto"><circle cx="5" cy="5" r="5" class="arrowMarkerPath" style="stroke-width: 0; stroke-dasharray: 1, 0;"></circle></marker><marker id="ga52c0dc9-8524-4e8e-b8f7-978952a5444e-light_flowchart-v2-circleStart-margin" class="marker flowchart-v2" viewBox="0 0 10 10" refX="-2" refY="5" markerUnits="userSpaceOnUse" markerWidth="14" markerHeight="14" orient="auto"><circle cx="5" cy="5" r="5" class="arrowMarkerPath" style="stroke-width: 0; stroke-dasharray: 1, 0;"></circle></marker><marker id="ga52c0dc9-8524-4e8e-b8f7-978952a5444e-light_flowchart-v2-crossEnd" class="marker cross flowchart-v2" viewBox="0 0 11 11" refX="12" refY="5.2" markerUnits="userSpaceOnUse" markerWidth="11" markerHeight="11" orient="auto"><path d="M 1,1 l 9,9 M 10,1 l -9,9" class="arrowMarkerPath" style="stroke-width: 2; stroke-dasharray: 1, 0;"></path></marker><marker id="ga52c0dc9-8524-4e8e-b8f7-978952a5444e-light_flowchart-v2-crossStart" class="marker cross flowchart-v2" viewBox="0 0 11 11" refX="-1" refY="5.2" markerUnits="userSpaceOnUse" markerWidth="11" markerHeight="11" orient="auto"><path d="M 1,1 l 9,9 M 10,1 l -9,9" class="arrowMarkerPath" style="stroke-width: 2; stroke-dasharray: 1, 0;"></path></marker><marker id="ga52c0dc9-8524-4e8e-b8f7-978952a5444e-light_flowchart-v2-crossEnd-margin" class="marker cross flowchart-v2" viewBox="0 0 15 15" refX="17.7" refY="7.5" markerUnits="userSpaceOnUse" markerWidth="12" markerHeight="12" orient="auto"><path d="M 1,1 L 14,14 M 1,14 L 14,1" class="arrowMarkerPath" style="stroke-width: 2.5;"></path></marker><marker id="ga52c0dc9-8524-4e8e-b8f7-978952a5444e-light_flowchart-v2-crossStart-margin" class="marker cross flowchart-v2" viewBox="0 0 15 15" refX="-3.5" refY="7.5" markerUnits="userSpaceOnUse" markerWidth="12" markerHeight="12" orient="auto"><path d="M 1,1 L 14,14 M 1,14 L 14,1" class="arrowMarkerPath" style="stroke-width: 2.5; stroke-dasharray: 1, 0;"></path></marker><g class="root"><g class="clusters"></g><g class="edgePaths"><path d="M315.242,42.5L315.159,46.583C315.076,50.667,314.909,58.833,314.826,66.417C314.742,74,314.742,81,314.742,84.5L314.742,88" id="ga52c0dc9-8524-4e8e-b8f7-978952a5444e-light-L_viewer_policy_0" class="edge-thickness-normal edge-pattern-solid edge-thickness-normal edge-pattern-solid flowchart-link" style=";" data-edge="true" data-et="edge" data-id="L_viewer_policy_0" data-points="W3sieCI6MzE1LjI0MjE4NzUsInkiOjQyLjV9LHsieCI6MzE0Ljc0MjE4NzUsInkiOjY3fSx7IngiOjMxNC43NDIxODc1LCJ5Ijo5Mn1d" data-look="classic" marker-end="url(#ga52c0dc9-8524-4e8e-b8f7-978952a5444e-light_flowchart-v2-pointEnd)"></path><path d="M263.537,276.161L251.148,292.245C238.759,308.329,213.981,340.497,201.592,363.465C189.203,386.432,189.203,400.199,189.203,407.082L189.203,413.966" id="ga52c0dc9-8524-4e8e-b8f7-978952a5444e-light-L_policy_prim_0" class="edge-thickness-normal edge-pattern-solid edge-thickness-normal edge-pattern-solid flowchart-link" style=";" data-edge="true" data-et="edge" data-id="L_policy_prim_0" data-points="W3sieCI6MjYzLjUzNzA5MTgwNDgxNiwieSI6Mjc2LjE2MDUzNTQwODMzMTZ9LHsieCI6MTg5LjIwMzEyNSwieSI6MzcyLjY2NTYzMDM0MDU3NjJ9LHsieCI6MTg5LjIwMzEyNSwieSI6NDE3Ljk2NTYyOTU3NzYzNjd9XQ==" data-look="classic" marker-end="url(#ga52c0dc9-8524-4e8e-b8f7-978952a5444e-light_flowchart-v2-pointEnd)"></path><path d="M365.947,276.161L378.336,292.245C390.725,308.329,415.503,340.497,427.892,363.465C440.281,386.432,440.281,400.199,440.281,407.082L440.281,413.966" id="ga52c0dc9-8524-4e8e-b8f7-978952a5444e-light-L_policy_stg_0" class="edge-thickness-normal edge-pattern-solid edge-thickness-normal edge-pattern-solid flowchart-link" style=";" data-edge="true" data-et="edge" data-id="L_policy_stg_0" data-points="W3sieCI6MzY1Ljk0NzI4MzE5NTE4NDA3LCJ5IjoyNzYuMTYwNTM1NDA4MzMxNTV9LHsieCI6NDQwLjI4MTI1LCJ5IjozNzIuNjY1NjMwMzQwNTc2Mn0seyJ4Ijo0NDAuMjgxMjUsInkiOjQxNy45NjU2Mjk1Nzc2MzY3fV0=" data-look="classic" marker-end="url(#ga52c0dc9-8524-4e8e-b8f7-978952a5444e-light_flowchart-v2-pointEnd)"></path><path d="M127.457,484.566L119.731,488.732C112.005,492.899,96.553,501.232,88.828,508.899C81.102,516.566,81.102,523.566,81.102,527.066L81.102,530.566" id="ga52c0dc9-8524-4e8e-b8f7-978952a5444e-light-L_prim_s3prod_0" class="edge-thickness-normal edge-pattern-solid edge-thickness-normal edge-pattern-solid flowchart-link" style=";" data-edge="true" data-et="edge" data-id="L_prim_s3prod_0" data-points="W3sieCI6MTI3LjQ1NzI5MzE2NjY2NTc5LCJ5Ijo0ODQuNTY1NjI4MDUxNzU3OH0seyJ4Ijo4MS4xMDE1NjI1LCJ5Ijo1MDkuNTY1NjI4MDUxNzU3OH0seyJ4Ijo4MS4xMDE1NjI1LCJ5Ijo1MzQuNTY1NjI4MDUxNzU3OH1d" data-look="classic" marker-end="url(#ga52c0dc9-8524-4e8e-b8f7-978952a5444e-light_flowchart-v2-pointEnd)"></path><path d="M362.864,484.566L353.177,488.732C343.49,492.899,324.116,501.232,314.429,508.899C304.742,516.566,304.742,523.566,304.742,527.066L304.742,530.566" id="ga52c0dc9-8524-4e8e-b8f7-978952a5444e-light-L_stg_s3new_0" class="edge-thickness-normal edge-pattern-solid edge-thickness-normal edge-pattern-solid flowchart-link" style=";" data-edge="true" data-et="edge" data-id="L_stg_s3new_0" data-points="W3sieCI6MzYyLjg2MzU3MDEyMTY2NTUsInkiOjQ4NC41NjU2MjgwNTE3NTc4fSx7IngiOjMwNC43NDIxODc1LCJ5Ijo1MDkuNTY1NjI4MDUxNzU3OH0seyJ4IjozMDQuNzQyMTg3NSwieSI6NTM0LjU2NTYyODA1MTc1Nzh9XQ==" data-look="classic" marker-end="url(#ga52c0dc9-8524-4e8e-b8f7-978952a5444e-light_flowchart-v2-pointEnd)"></path><path d="M290.477,475.545L314.127,481.215C337.777,486.885,385.078,498.226,417.096,507.781C449.114,517.337,465.849,525.109,474.217,528.995L482.584,532.881" id="ga52c0dc9-8524-4e8e-b8f7-978952a5444e-light-L_prim_metrics_0" class="edge-thickness-normal edge-pattern-solid edge-thickness-normal edge-pattern-solid flowchart-link" style=";" data-edge="true" data-et="edge" data-id="L_prim_metrics_0" data-points="W3sieCI6MjkwLjQ3NjU2MjUsInkiOjQ3NS41NDUzNTQ3NzUyMTM3NX0seyJ4Ijo0MzIuMzc4OTA2MjUsInkiOjUwOS41NjU2MjgwNTE3NTc4fSx7IngiOjQ4Ni4yMTIxMjQxNTAwMjU1LCJ5Ijo1MzQuNTY1NjI4MDUxNzU3OH1d" data-look="classic" marker-end="url(#ga52c0dc9-8524-4e8e-b8f7-978952a5444e-light_flowchart-v2-pointEnd)"></path><path d="M513.185,484.566L522.307,488.732C531.429,492.899,549.674,501.232,558.194,508.909C566.714,516.585,565.51,523.604,564.908,527.114L564.306,530.623" id="ga52c0dc9-8524-4e8e-b8f7-978952a5444e-light-L_stg_metrics_0" class="edge-thickness-normal edge-pattern-solid edge-thickness-normal edge-pattern-solid flowchart-link" style=";" data-edge="true" data-et="edge" data-id="L_stg_metrics_0" data-points="W3sieCI6NTEzLjE4NTI0MTI5NzAzNjgsInkiOjQ4NC41NjU2MjgwNTE3NTc4fSx7IngiOjU2Ny45MTc5Njg3NSwieSI6NTA5LjU2NTYyODA1MTc1Nzh9LHsieCI6NTYzLjYyOTgwNDAyODM2LCJ5Ijo1MzQuNTY1NjI4MDUxNzU3OH1d" data-look="classic" marker-end="url(#ga52c0dc9-8524-4e8e-b8f7-978952a5444e-light_flowchart-v2-pointEnd)"></path><path d="M505.072,601.166L495.418,607.249C485.764,613.332,466.456,625.499,456.802,636.999C447.148,648.499,447.148,659.332,447.148,664.749L447.148,670.166" id="ga52c0dc9-8524-4e8e-b8f7-978952a5444e-light-L_metrics_promote_0" class="edge-thickness-normal edge-pattern-solid edge-thickness-normal edge-pattern-solid flowchart-link" style=";" data-edge="true" data-et="edge" data-id="L_metrics_promote_0" data-points="W3sieCI6NTA1LjA3MjMzMzQxNDI4OTc0LCJ5Ijo2MDEuMTY1NjI2NTI1ODc4OX0seyJ4Ijo0NDcuMTQ4NDM3NSwieSI6NjM3LjY2NTYyNjUyNTg3ODl9LHsieCI6NDQ3LjE0ODQzNzUsInkiOjY3NC4xNjU2MjY1MjU4Nzg5fV0=" data-look="classic" marker-end="url(#ga52c0dc9-8524-4e8e-b8f7-978952a5444e-light_flowchart-v2-pointEnd)"></path><path d="M610.764,601.166L620.418,607.249C630.072,613.332,649.38,625.499,659.034,636.999C668.688,648.499,668.688,659.332,668.688,664.749L668.688,670.166" id="ga52c0dc9-8524-4e8e-b8f7-978952a5444e-light-L_metrics_rollback_0" class="edge-thickness-normal edge-pattern-solid edge-thickness-normal edge-pattern-solid flowchart-link" style=";" data-edge="true" data-et="edge" data-id="L_metrics_rollback_0" data-points="W3sieCI6NjEwLjc2MzYwNDA4NTcxMDIsInkiOjYwMS4xNjU2MjY1MjU4Nzg5fSx7IngiOjY2OC42ODc1LCJ5Ijo2MzcuNjY1NjI2NTI1ODc4OX0seyJ4Ijo2NjguNjg3NSwieSI6Njc0LjE2NTYyNjUyNTg3ODl9XQ==" data-look="classic" marker-end="url(#ga52c0dc9-8524-4e8e-b8f7-978952a5444e-light_flowchart-v2-pointEnd)"></path></g><g class="edgeLabels"><g class="edgeLabel"><g class="label" data-id="L_viewer_policy_0" transform="translate(0, 0)"><text y="-10.1" text-anchor="middle"><tspan class="text-outer-tspan row" x="0" y="-0.1em" dy="1.1em" text-anchor="middle"></tspan></text></g></g><g><rect class="background" style="stroke: none"></rect></g><g class="edgeLabel" transform="translate(189.203125, 372.6656303405762)"><g class="label" data-id="L_policy_prim_0" transform="translate(0, -10.5)"><g><rect class="background" style="" x="-95.0234375" y="-1" width="190.046875" height="23"></rect><text y="-10.1" text-anchor="middle" style=""><tspan class="text-outer-tspan row" x="0" y="-0.1em" dy="1.1em" text-anchor="middle"><tspan font-style="normal" class="text-inner-tspan" font-weight="normal">weight</tspan><tspan font-style="normal" class="text-inner-tspan" font-weight="normal"> 95%</tspan><tspan font-style="normal" class="text-inner-tspan" font-weight="normal"> or</tspan><tspan font-style="normal" class="text-inner-tspan" font-weight="normal"> cookie</tspan><tspan font-style="normal" class="text-inner-tspan" font-weight="normal"> miss</tspan></tspan></text></g></g></g><g class="edgeLabel" transform="translate(440.28125, 372.6656303405762)"><g class="label" data-id="L_policy_stg_0" transform="translate(0, -19.299999237060547)"><g><rect class="background" style="" x="-98.3828125" y="-1" width="196.765625" height="40.599998474121094"></rect><text y="-10.1" text-anchor="middle" style=""><tspan class="text-outer-tspan row" x="0" y="-0.1em" dy="1.1em" text-anchor="middle"><tspan font-style="normal" class="text-inner-tspan" font-weight="normal">weight</tspan><tspan font-style="normal" class="text-inner-tspan" font-weight="normal"> 5%</tspan><tspan font-style="normal" class="text-inner-tspan" font-weight="normal"> or</tspan><tspan font-style="normal" class="text-inner-tspan" font-weight="normal"> session-sticky</tspan></tspan><tspan class="text-outer-tspan row" x="0" y="1em" dy="1.1em" text-anchor="middle"><tspan font-style="normal" class="text-inner-tspan" font-weight="normal">header</tspan></tspan></text></g></g></g><g class="edgeLabel"><g class="label" data-id="L_prim_s3prod_0" transform="translate(0, 0)"><text y="-10.1" text-anchor="middle"><tspan class="text-outer-tspan row" x="0" y="-0.1em" dy="1.1em" text-anchor="middle"></tspan></text></g></g><g><rect class="background" style="stroke: none"></rect></g><g class="edgeLabel"><g class="label" data-id="L_stg_s3new_0" transform="translate(0, 0)"><text y="-10.1" text-anchor="middle"><tspan class="text-outer-tspan row" x="0" y="-0.1em" dy="1.1em" text-anchor="middle"></tspan></text></g></g><g><rect class="background" style="stroke: none"></rect></g><g class="edgeLabel"><g class="label" data-id="L_prim_metrics_0" transform="translate(0, 0)"><text y="-10.1" text-anchor="middle"><tspan class="text-outer-tspan row" x="0" y="-0.1em" dy="1.1em" text-anchor="middle"></tspan></text></g></g><g><rect class="background" style="stroke: none"></rect></g><g class="edgeLabel"><g class="label" data-id="L_stg_metrics_0" transform="translate(0, 0)"><text y="-10.1" text-anchor="middle"><tspan class="text-outer-tspan row" x="0" y="-0.1em" dy="1.1em" text-anchor="middle"></tspan></text></g></g><g><rect class="background" style="stroke: none"></rect></g><g class="edgeLabel" transform="translate(447.1484375, 637.6656265258789)"><g class="label" data-id="L_metrics_promote_0" transform="translate(0, -10.5)"><g><rect class="background" style="" x="-28.7890625" y="-1" width="57.578125" height="23"></rect><text y="-10.1" text-anchor="middle" style=""><tspan class="text-outer-tspan row" x="0" y="-0.1em" dy="1.1em" text-anchor="middle"><tspan font-style="normal" class="text-inner-tspan" font-weight="normal">healthy</tspan></tspan></text></g></g></g><g class="edgeLabel" transform="translate(668.6875, 637.6656265258789)"><g class="label" data-id="L_metrics_rollback_0" transform="translate(0, -10.5)"><g><rect class="background" style="" x="-38.3828125" y="-1" width="76.765625" height="23"></rect><text y="-10.1" text-anchor="middle" style=""><tspan class="text-outer-tspan row" x="0" y="-0.1em" dy="1.1em" text-anchor="middle"><tspan font-style="normal" class="text-inner-tspan" font-weight="normal">regression</tspan></tspan></text></g></g></g></g><g class="nodes"><g class="node default neutralC" id="ga52c0dc9-8524-4e8e-b8f7-978952a5444e-light-flowchart-viewer-0" data-look="classic" transform="translate(314.7421875, 25)"><g class="basic label-container outer-path"><path d="M-48.859375 -17 C-17.304580727057502 -17, 14.250213545884996 -17, 48.859375 -17 C48.859375 -17, 48.859375 -17, 48.859375 -17 C49.27036566630526 -16.98682032927639, 49.68135633261052 -16.973640658552785, 49.94856873967212 -16.965071676755716 C50.23498610019957 -16.937441338452906, 50.52140346072703 -16.909811000150096, 51.0332867486366 -16.860430234995185 C51.39698299611296 -16.80163064620973, 51.76067924358933 -16.742831057424276, 52.109071687923326 -16.686505668848113 C52.43774437338225 -16.611488273181827, 52.76641705884118 -16.53647087751554, 53.17150292646162 -16.4440126716635 C53.51072610159737 -16.343333013901994, 53.84994927673312 -16.242653356140483, 54.21621470640155 -16.133947699181366 C54.45018729406231 -16.047843624103315, 54.68415988172307 -15.961739549025266, 55.23891408294936 -15.757584874882369 C55.49552229734308 -15.643992030382494, 55.7521305117368 -15.530399185882619, 56.23539856499849 -15.316470754341125 C56.455904878872666 -15.201432751634004, 56.67641119274684 -15.086394748926882, 57.20157338406694 -14.812417970097622 C57.40501188061329 -14.68909235795392, 57.60845037715963 -14.565766745810215, 58.133468320579325 -14.247497783161291 C58.3919722014925 -14.067176666288908, 58.650476082405675 -13.886855549416527, 59.027254018350675 -13.624031571755262 C59.30350198937294 -13.403731166132248, 59.579749960395205 -13.183430760509232, 59.8792577202324 -12.944581292275288 C60.15468507501268 -12.694445456072309, 60.430112429792956 -12.44430961986933, 60.68597836025927 -12.21193895166137 C60.91970689644656 -11.97059504857829, 61.15343543263386 -11.729251145495208, 61.44410095028036 -11.42911513444239 C61.65198817815108 -11.184918967467075, 61.85987540602179 -10.940722800491761, 62.15051020195651 -10.59932663159847 C62.35215855399988 -10.32913621040314, 62.553806906043256 -10.05894578920781, 62.80230332814825 -9.725983222076888 C62.94296560494647 -9.509888191804755, 63.083627881744704 -9.293793161532625, 63.39680197109088 -8.812673661278927 C63.60522956985071 -8.442589354097874, 63.81365716861053 -8.07250504691682, 63.931563208341004 -7.863150934094199 C64.09988489645194 -7.513627347224667, 64.26820658456288 -7.164103760355134, 64.40438959126881 -6.881316833080699 C64.53441565735886 -6.5601499359552875, 64.66444172344893 -6.238983038829876, 64.81333817484592 -5.871205925162238 C64.9080472928368 -5.5859571516224396, 65.00275641082767 -5.300708378082641, 65.15672850162323 -4.836968972727556 C65.22574104432486 -4.573794237181035, 65.29475358702649 -4.310619501634515, 65.433149507091 -3.7828558772573464 C65.4980885282252 -3.4494077286002094, 65.5630275493594 -3.115959579943073, 65.64146531804565 -2.713198215567453 C65.67528772249189 -2.4508783256716367, 65.70911012693813 -2.1885584357758203, 65.78081992013637 -1.632391440430593 C65.79742598471847 -1.3737385803902555, 65.81403204930058 -1.115085720349918, 65.8506406754117 -0.5448768187181379 C65.8506406754117 -0.2753041910629723, 65.8506406754117 -0.005731563407806783, 65.8506406754117 0.5448768187181336 C65.82974333887573 0.870369703292236, 65.80884600233976 1.1958625878663383, 65.78081992013637 1.6323914404305815 C65.74009338242351 1.9482584245670174, 65.69936684471064 2.2641254087034532, 65.64146531804565 2.7131982155674415 C65.59071338803929 2.973798649725852, 65.53996145803295 3.234399083884263, 65.433149507091 3.782855877257343 C65.37741899576393 3.9953804707038363, 65.32168848443688 4.20790506415033, 65.15672850162323 4.836968972727545 C65.0788063000047 5.071658228785748, 65.00088409838617 5.3063474848439505, 64.81333817484592 5.871205925162227 C64.72431386303116 6.091097696512676, 64.63528955121639 6.310989467863126, 64.40438959126881 6.881316833080694 C64.28148569655255 7.136529400181081, 64.15858180183629 7.391741967281467, 63.931563208341004 7.863150934094196 C63.78423683821926 8.124743822658026, 63.63691046809751 8.386336711221857, 63.39680197109089 8.812673661278923 C63.23689531364757 9.05833322806168, 63.07698865620426 9.303992794844438, 62.802303328148255 9.725983222076879 C62.61687692612403 9.974437708096605, 62.431450524099795 10.222892194116332, 62.15051020195651 10.599326631598467 C61.889661490087285 10.90573437127224, 61.62881277821806 11.212142110946012, 61.44410095028037 11.42911513444238 C61.235633588234954 11.644374801243005, 61.02716622618953 11.859634468043629, 60.68597836025927 12.211938951661365 C60.41738628359231 12.455867169133382, 60.148794206925345 12.699795386605398, 59.87925772023242 12.944581292275275 C59.57653424284934 13.185995209678222, 59.273810765466266 13.427409127081168, 59.027254018350675 13.62403157175526 C58.830609517305334 13.761202263081238, 58.63396501626 13.898372954407217, 58.13346832057934 14.247497783161286 C57.90921732629537 14.383440053741351, 57.68496633201139 14.519382324321418, 57.20157338406695 14.81241797009762 C56.85963236248284 14.99080838203437, 56.517691340898736 15.16919879397112, 56.23539856499849 15.316470754341124 C55.94974804177439 15.442919767450725, 55.66409751855029 15.569368780560326, 55.238914082949364 15.757584874882367 C54.96162571439671 15.859629557735323, 54.68433734584406 15.96167424058828, 54.21621470640156 16.133947699181363 C53.85443239575174 16.24132278994813, 53.492650085101936 16.34869788071489, 53.17150292646164 16.444012671663497 C52.86418006868578 16.51415710848177, 52.55685721090993 16.58430154530004, 52.10907168792333 16.68650566884811 C51.7917233514053 16.73781208682324, 51.47437501488728 16.789118504798367, 51.03328674863661 16.86043023499518 C50.60527267097992 16.90172023830448, 50.17725859332324 16.94301024161378, 49.94856873967212 16.965071676755716 C49.638092335460506 16.975028050733123, 49.3276159312489 16.98498442471053, 48.859375 17 C48.859375 17, 48.859375 17, 48.859375 17 C13.62918925177106 17, -21.60099649645788 17, -48.859375 17 C-49.09505399192907 16.992442233450163, -49.33073298385815 16.984884466900326, -49.94856873967211 16.965071676755716 C-50.249034234414886 16.936086131840508, -50.54949972915766 16.9071005869253, -51.033286748636606 16.86043023499518 C-51.29668401761006 16.81784620722388, -51.56008128658352 16.775262179452582, -52.109071687923326 16.68650566884811 C-52.44297522149024 16.61029436623565, -52.77687875505715 16.534083063623193, -53.17150292646162 16.4440126716635 C-53.534336657888616 16.33632552472909, -53.89717038931562 16.228638377794677, -54.216214706401544 16.13394769918137 C-54.56996021566962 16.003766081783077, -54.92370572493769 15.873584464384786, -55.238914082949364 15.757584874882369 C-55.45111892424851 15.663648086472197, -55.66332376554766 15.569711298062026, -56.23539856499848 15.316470754341127 C-56.53803295585186 15.1585865864795, -56.84066734670523 15.000702418617871, -57.20157338406693 14.812417970097624 C-57.49289663153859 14.635816105474875, -57.784219879010244 14.459214240852127, -58.13346832057932 14.247497783161299 C-58.334559632640506 14.107225188970013, -58.53565094470169 13.966952594778727, -59.02725401835067 13.624031571755264 C-59.351458218590246 13.365487349500302, -59.67566241882982 13.10694312724534, -59.8792577202324 12.94458129227529 C-60.05191287006729 12.787780453400181, -60.22456801990217 12.63097961452507, -60.68597836025926 12.211938951661377 C-60.92737173521558 11.962680473254316, -61.1687651101719 11.713421994847257, -61.444100950280365 11.429115134442386 C-61.611620347006834 11.232337318923769, -61.7791397437333 11.035559503405151, -62.15051020195651 10.599326631598473 C-62.333336897250774 10.354355515758739, -62.51616359254504 10.109384399919005, -62.80230332814825 9.72598322207689 C-62.967324044041064 9.472467088198728, -63.13234475993387 9.218950954320569, -63.39680197109088 8.812673661278936 C-63.581463881699904 8.484787739946512, -63.76612579230893 8.156901818614088, -63.931563208341004 7.863150934094201 C-64.08891935534868 7.536397527950589, -64.24627550235634 7.209644121806978, -64.40438959126881 6.881316833080701 C-64.50666022151458 6.628706399105542, -64.60893085176033 6.376095965130381, -64.81333817484592 5.87120592516224 C-64.9351070164581 5.50445757545654, -65.05687585807027 5.13770922575084, -65.15672850162323 4.8369689727275516 C-65.25537422663538 4.460790069928571, -65.35401995164753 4.08461116712959, -65.433149507091 3.782855877257349 C-65.4913742714151 3.4838840182613766, -65.5495990357392 3.184912159265404, -65.64146531804565 2.713198215567455 C-65.69302626805832 2.3133016691303694, -65.744587218071 1.9134051226932833, -65.78081992013637 1.6323914404306026 C-65.80687603527252 1.2265464150674754, -65.83293215040867 0.8207013897043485, -65.8506406754117 0.54487681871814 C-65.8506406754117 0.20068730009115987, -65.8506406754117 -0.14350221853582024, -65.8506406754117 -0.5448768187181317 C-65.83575729996926 -0.7766974048785404, -65.82087392452682 -1.0085179910389492, -65.78081992013637 -1.6323914404305793 C-65.74482407757552 -1.91156808714942, -65.70882823501466 -2.190744733868261, -65.64146531804565 -2.713198215567447 C-65.57388487366994 -3.060209514304742, -65.50630442929423 -3.4072208130420365, -65.433149507091 -3.782855877257341 C-65.36531408481675 -4.041541742447066, -65.29747866254249 -4.30022760763679, -65.15672850162323 -4.836968972727544 C-65.05133859378995 -5.1543865835199405, -64.94594868595667 -5.4718041943123366, -64.81333817484594 -5.871205925162218 C-64.72163157789184 -6.097722992665268, -64.62992498093774 -6.324240060168319, -64.40438959126881 -6.881316833080692 C-64.30833198536926 -7.0807825070346135, -64.21227437946972 -7.2802481809885355, -63.931563208341004 -7.863150934094194 C-63.72057253750438 -8.237786235286789, -63.509581866667766 -8.612421536479383, -63.39680197109088 -8.812673661278929 C-63.17278158967454 -9.156829125029736, -62.948761208258205 -9.500984588780543, -62.80230332814825 -9.725983222076884 C-62.59412574542098 -10.00492221756348, -62.385948162693715 -10.283861213050075, -62.15051020195651 -10.599326631598467 C-61.910986699167054 -10.88068456724837, -61.6714631963776 -11.16204250289827, -61.44410095028037 -11.42911513444238 C-61.26610819571775 -11.612907267005207, -61.08811544115513 -11.796699399568036, -60.68597836025928 -12.21193895166136 C-60.39040871777987 -12.480367480616962, -60.094839075300456 -12.748796009572565, -59.87925772023242 -12.944581292275274 C-59.627599964219826 -13.145271655801178, -59.37594220820723 -13.345962019327082, -59.027254018350675 -13.624031571755259 C-58.71989017656945 -13.83843528221558, -58.412526334788225 -14.0528389926759, -58.13346832057934 -14.247497783161284 C-57.79669838487345 -14.451649697266012, -57.459928449167556 -14.65580161137074, -57.20157338406695 -14.812417970097618 C-56.99033865455466 -14.922618993181874, -56.77910392504238 -15.032820016266133, -56.23539856499849 -15.316470754341124 C-55.898807961915495 -15.46546942972048, -55.5622173588325 -15.614468105099835, -55.23891408294937 -15.757584874882365 C-54.980715654676544 -15.852604283246874, -54.72251722640371 -15.947623691611383, -54.216214706401566 -16.133947699181363 C-53.981341458485865 -16.203656846287906, -53.746468210570164 -16.27336599339445, -53.17150292646164 -16.444012671663494 C-52.926452608376785 -16.499943807663595, -52.68140229029193 -16.555874943663692, -52.10907168792333 -16.68650566884811 C-51.842917729599556 -16.729535376775125, -51.57676377127577 -16.77256508470214, -51.03328674863661 -16.86043023499518 C-50.726622551682574 -16.89001376125768, -50.419958354728536 -16.91959728752018, -49.94856873967212 -16.965071676755716 C-49.51573959734732 -16.978951664899256, -49.08291045502252 -16.992831653042796, -48.85937500000001 -17 C-48.85937500000001 -17, -48.859375 -17, -48.859375 -17" stroke="none" stroke-width="0" fill="#5A5A5A" style="fill:#5A5A5A !important;stroke:#3D3D3D !important"></path><path d="M-48.859375 -17 C-19.819028267580286 -17, 9.221318464839428 -17, 48.859375 -17 M-48.859375 -17 C-9.915366525792294 -17, 29.028641948415412 -17, 48.859375 -17 M48.859375 -17 C48.859375 -17, 48.859375 -17, 48.859375 -17 M48.859375 -17 C48.859375 -17, 48.859375 -17, 48.859375 -17 M48.859375 -17 C49.1085671413847 -16.992008893048872, 49.357759282769386 -16.98401778609774, 49.94856873967212 -16.965071676755716 M48.859375 -17 C49.1820799452719 -16.9896514805122, 49.5047848905438 -16.979302961024402, 49.94856873967212 -16.965071676755716 M49.94856873967212 -16.965071676755716 C50.26062722724896 -16.93496776976442, 50.572685714825795 -16.904863862773123, 51.0332867486366 -16.860430234995185 M49.94856873967212 -16.965071676755716 C50.33844179488358 -16.927461092010418, 50.72831485009504 -16.88985050726512, 51.0332867486366 -16.860430234995185 M51.0332867486366 -16.860430234995185 C51.40341081437316 -16.800591446401896, 51.77353488010972 -16.74075265780861, 52.109071687923326 -16.686505668848113 M51.0332867486366 -16.860430234995185 C51.31985818434134 -16.81409958766512, 51.606429620046086 -16.76776894033505, 52.109071687923326 -16.686505668848113 M52.109071687923326 -16.686505668848113 C52.4379526022522 -16.61144074630108, 52.76683351658107 -16.53637582375405, 53.17150292646162 -16.4440126716635 M52.109071687923326 -16.686505668848113 C52.42105961417898 -16.615296460591743, 52.73304754043463 -16.544087252335377, 53.17150292646162 -16.4440126716635 M53.17150292646162 -16.4440126716635 C53.42349064324762 -16.369224040031934, 53.67547836003361 -16.294435408400368, 54.21621470640155 -16.133947699181366 M53.17150292646162 -16.4440126716635 C53.50228368642235 -16.345838678410797, 53.833064446383084 -16.247664685158092, 54.21621470640155 -16.133947699181366 M54.21621470640155 -16.133947699181366 C54.59079918766295 -15.996097147456183, 54.96538366892436 -15.858246595730998, 55.23891408294936 -15.757584874882369 M54.21621470640155 -16.133947699181366 C54.480574117699895 -16.036660992111965, 54.744933528998246 -15.939374285042563, 55.23891408294936 -15.757584874882369 M55.23891408294936 -15.757584874882369 C55.47601630143179 -15.652626756147612, 55.713118519914225 -15.547668637412853, 56.23539856499849 -15.316470754341125 M55.23891408294936 -15.757584874882369 C55.503681506273864 -15.640380190623171, 55.768448929598364 -15.523175506363971, 56.23539856499849 -15.316470754341125 M56.23539856499849 -15.316470754341125 C56.46604001871868 -15.196145255668204, 56.69668147243887 -15.075819756995283, 57.20157338406694 -14.812417970097622 M56.23539856499849 -15.316470754341125 C56.44897672992192 -15.205047162503917, 56.66255489484535 -15.093623570666708, 57.20157338406694 -14.812417970097622 M57.20157338406694 -14.812417970097622 C57.537391257243144 -14.608843201893329, 57.87320913041935 -14.405268433689036, 58.133468320579325 -14.247497783161291 M57.20157338406694 -14.812417970097622 C57.41322441580781 -14.684113870856782, 57.62487544754869 -14.555809771615941, 58.133468320579325 -14.247497783161291 M58.133468320579325 -14.247497783161291 C58.429214365187185 -14.041198145082781, 58.72496040979504 -13.834898507004269, 59.027254018350675 -13.624031571755262 M58.133468320579325 -14.247497783161291 C58.4574541129568 -14.021499319517673, 58.781439905334274 -13.795500855874053, 59.027254018350675 -13.624031571755262 M59.027254018350675 -13.624031571755262 C59.229906475878074 -13.46242162968554, 59.432558933405474 -13.300811687615818, 59.8792577202324 -12.944581292275288 M59.027254018350675 -13.624031571755262 C59.31851508107765 -13.391758625012892, 59.60977614380462 -13.159485678270524, 59.8792577202324 -12.944581292275288 M59.8792577202324 -12.944581292275288 C60.1622203264953 -12.687602140047622, 60.4451829327582 -12.430622987819955, 60.68597836025927 -12.21193895166137 M59.8792577202324 -12.944581292275288 C60.13826415057527 -12.709358505172514, 60.39727058091814 -12.47413571806974, 60.68597836025927 -12.21193895166137 M60.68597836025927 -12.21193895166137 C60.98397699715356 -11.904230892924913, 61.28197563404786 -11.596522834188455, 61.44410095028036 -11.42911513444239 M60.68597836025927 -12.21193895166137 C60.93061425124755 -11.959332309235794, 61.17525014223582 -11.70672566681022, 61.44410095028036 -11.42911513444239 M61.44410095028036 -11.42911513444239 C61.715513200939576 -11.110298861023505, 61.9869254515988 -10.791482587604621, 62.15051020195651 -10.59932663159847 M61.44410095028036 -11.42911513444239 C61.721878218275506 -11.10282214948098, 61.99965548627065 -10.776529164519571, 62.15051020195651 -10.59932663159847 M62.15051020195651 -10.59932663159847 C62.395784015559315 -10.270682066274805, 62.64105782916212 -9.942037500951137, 62.80230332814825 -9.725983222076888 M62.15051020195651 -10.59932663159847 C62.30149336268769 -10.397022951067601, 62.45247652341886 -10.194719270536732, 62.80230332814825 -9.725983222076888 M62.80230332814825 -9.725983222076888 C62.99224442580655 -9.434182689747457, 63.182185523464845 -9.142382157418028, 63.39680197109088 -8.812673661278927 M62.80230332814825 -9.725983222076888 C63.01119680080582 -9.405066752323302, 63.22009027346339 -9.084150282569716, 63.39680197109088 -8.812673661278927 M63.39680197109088 -8.812673661278927 C63.58282946619531 -8.482363006394497, 63.76885696129973 -8.152052351510065, 63.931563208341004 -7.863150934094199 M63.39680197109088 -8.812673661278927 C63.52106142891392 -8.592038411279606, 63.64532088673696 -8.371403161280284, 63.931563208341004 -7.863150934094199 M63.931563208341004 -7.863150934094199 C64.10960211189604 -7.493449341439877, 64.28764101545109 -7.123747748785555, 64.40438959126881 -6.881316833080699 M63.931563208341004 -7.863150934094199 C64.04147701865809 -7.6349125551919865, 64.15139082897517 -7.4066741762897745, 64.40438959126881 -6.881316833080699 M64.40438959126881 -6.881316833080699 C64.54802928543253 -6.526524011411747, 64.69166897959624 -6.171731189742795, 64.81333817484592 -5.871205925162238 M64.40438959126881 -6.881316833080699 C64.48723637768921 -6.676683668888649, 64.57008316410962 -6.4720505046966, 64.81333817484592 -5.871205925162238 M64.81333817484592 -5.871205925162238 C64.92379894430654 -5.538515687080406, 65.03425971376717 -5.205825448998574, 65.15672850162323 -4.836968972727556 M64.81333817484592 -5.871205925162238 C64.8955172072803 -5.6236957729205885, 64.97769623971467 -5.376185620678939, 65.15672850162323 -4.836968972727556 M65.15672850162323 -4.836968972727556 C65.2601756851781 -4.442480027539889, 65.36362286873296 -4.047991082352223, 65.433149507091 -3.7828558772573464 M65.15672850162323 -4.836968972727556 C65.2139406266649 -4.618794344051866, 65.27115275170655 -4.400619715376176, 65.433149507091 -3.7828558772573464 M65.433149507091 -3.7828558772573464 C65.50480236430936 -3.4149335992778362, 65.57645522152771 -3.047011321298326, 65.64146531804565 -2.713198215567453 M65.433149507091 -3.7828558772573464 C65.5020554014205 -3.4290386731412386, 65.57096129575002 -3.0752214690251307, 65.64146531804565 -2.713198215567453 M65.64146531804565 -2.713198215567453 C65.69554960940872 -2.2937311319067812, 65.7496339007718 -1.8742640482461097, 65.78081992013637 -1.632391440430593 M65.64146531804565 -2.713198215567453 C65.67424253127709 -2.458984622337276, 65.70701974450853 -2.204771029107099, 65.78081992013637 -1.632391440430593 M65.78081992013637 -1.632391440430593 C65.80432788573015 -1.2662359010192683, 65.82783585132391 -0.9000803616079435, 65.8506406754117 -0.5448768187181379 M65.78081992013637 -1.632391440430593 C65.79722548886998 -1.376861465067807, 65.8136310576036 -1.121331489705021, 65.8506406754117 -0.5448768187181379 M65.8506406754117 -0.5448768187181379 C65.8506406754117 -0.24218326590261147, 65.8506406754117 0.060510286912914935, 65.8506406754117 0.5448768187181336 M65.8506406754117 -0.5448768187181379 C65.8506406754117 -0.2926166383732132, 65.8506406754117 -0.04035645802828858, 65.8506406754117 0.5448768187181336 M65.8506406754117 0.5448768187181336 C65.83112594126199 0.8488345551097027, 65.81161120711228 1.1527922915012718, 65.78081992013637 1.6323914404305815 M65.8506406754117 0.5448768187181336 C65.8325942518558 0.8259644324121327, 65.8145478282999 1.1070520461061317, 65.78081992013637 1.6323914404305815 M65.78081992013637 1.6323914404305815 C65.7289994963473 2.0343004142384276, 65.67717907255825 2.4362093880462736, 65.64146531804565 2.7131982155674415 M65.78081992013637 1.6323914404305815 C65.75205631730798 1.8554762639517426, 65.72329271447958 2.0785610874729032, 65.64146531804565 2.7131982155674415 M65.64146531804565 2.7131982155674415 C65.57056317168102 3.0772657519758946, 65.49966102531639 3.4413332883843477, 65.433149507091 3.782855877257343 M65.64146531804565 2.7131982155674415 C65.57987807329455 3.0294357008955606, 65.51829082854344 3.3456731862236797, 65.433149507091 3.782855877257343 M65.433149507091 3.782855877257343 C65.3634464654658 4.048663784463574, 65.2937434238406 4.314471691669805, 65.15672850162323 4.836968972727545 M65.433149507091 3.782855877257343 C65.3540008348061 4.084684067931237, 65.2748521625212 4.386512258605131, 65.15672850162323 4.836968972727545 M65.15672850162323 4.836968972727545 C65.05329406104455 5.14849702771047, 64.94985962046586 5.460025082693395, 64.81333817484592 5.871205925162227 M65.15672850162323 4.836968972727545 C65.07931813264129 5.070116670433821, 65.00190776365933 5.3032643681400975, 64.81333817484592 5.871205925162227 M64.81333817484592 5.871205925162227 C64.65859580087958 6.253422580599382, 64.50385342691322 6.635639236036537, 64.40438959126881 6.881316833080694 M64.81333817484592 5.871205925162227 C64.72771989174122 6.082684739747734, 64.64210160863652 6.294163554333241, 64.40438959126881 6.881316833080694 M64.40438959126881 6.881316833080694 C64.23242724508343 7.238400324339424, 64.06046489889805 7.595483815598153, 63.931563208341004 7.863150934094196 M64.40438959126881 6.881316833080694 C64.24276301274985 7.216937881630097, 64.08113643423088 7.552558930179499, 63.931563208341004 7.863150934094196 M63.931563208341004 7.863150934094196 C63.80305646739137 8.091327665368834, 63.67454972644175 8.319504396643472, 63.39680197109089 8.812673661278923 M63.931563208341004 7.863150934094196 C63.815693800640744 8.068888800515824, 63.699824392940485 8.27462666693745, 63.39680197109089 8.812673661278923 M63.39680197109089 8.812673661278923 C63.27786100465075 8.995398925852497, 63.15892003821062 9.178124190426072, 62.802303328148255 9.725983222076879 M63.39680197109089 8.812673661278923 C63.24888736367234 9.039910218907321, 63.10097275625379 9.26714677653572, 62.802303328148255 9.725983222076879 M62.802303328148255 9.725983222076879 C62.5689758147497 10.038620833457182, 62.33564830135114 10.351258444837487, 62.15051020195651 10.599326631598467 M62.802303328148255 9.725983222076879 C62.622017888993994 9.967549286202201, 62.44173244983973 10.209115350327526, 62.15051020195651 10.599326631598467 M62.15051020195651 10.599326631598467 C62.008781070209636 10.765809734364401, 61.867051938462765 10.932292837130335, 61.44410095028037 11.42911513444238 M62.15051020195651 10.599326631598467 C62.00603208528783 10.769038848475232, 61.86155396861915 10.938751065351996, 61.44410095028037 11.42911513444238 M61.44410095028037 11.42911513444238 C61.182208503623414 11.699540587385439, 60.92031605696645 11.969966040328497, 60.68597836025927 12.211938951661365 M61.44410095028037 11.42911513444238 C61.2807131368621 11.597826466185701, 61.11732532344383 11.766537797929022, 60.68597836025927 12.211938951661365 M60.68597836025927 12.211938951661365 C60.480303766325 12.398727176020921, 60.274629172390725 12.585515400380476, 59.87925772023242 12.944581292275275 M60.68597836025927 12.211938951661365 C60.36779595021572 12.500903797817674, 60.049613540172174 12.789868643973982, 59.87925772023242 12.944581292275275 M59.87925772023242 12.944581292275275 C59.67615949378208 13.106546723198631, 59.473061267331744 13.268512154121987, 59.027254018350675 13.62403157175526 M59.87925772023242 12.944581292275275 C59.610560501342135 13.158860174006987, 59.34186328245185 13.373139055738699, 59.027254018350675 13.62403157175526 M59.027254018350675 13.62403157175526 C58.798702408281585 13.783459281099722, 58.57015079821249 13.942886990444183, 58.13346832057934 14.247497783161286 M59.027254018350675 13.62403157175526 C58.80366426239106 13.77999810646815, 58.580074506431444 13.935964641181043, 58.13346832057934 14.247497783161286 M58.13346832057934 14.247497783161286 C57.80300438690699 14.447826961775101, 57.472540453234636 14.648156140388917, 57.20157338406695 14.81241797009762 M58.13346832057934 14.247497783161286 C57.82094811545081 14.436949368082784, 57.508427910322276 14.626400953004282, 57.20157338406695 14.81241797009762 M57.20157338406695 14.81241797009762 C56.979574277699605 14.928234761692247, 56.75757517133227 15.044051553286872, 56.23539856499849 15.316470754341124 M57.20157338406695 14.81241797009762 C56.963982782991344 14.936368834494717, 56.72639218191575 15.060319698891814, 56.23539856499849 15.316470754341124 M56.23539856499849 15.316470754341124 C55.965907719207266 15.43576635761099, 55.69641687341604 15.555061960880858, 55.238914082949364 15.757584874882367 M56.23539856499849 15.316470754341124 C56.00616293416711 15.417946568076793, 55.776927303335725 15.519422381812463, 55.238914082949364 15.757584874882367 M55.238914082949364 15.757584874882367 C54.93031304650386 15.87115290897102, 54.62171201005836 15.984720943059674, 54.21621470640156 16.133947699181363 M55.238914082949364 15.757584874882367 C54.876319326666895 15.891023096983501, 54.51372457038442 16.024461319084633, 54.21621470640156 16.133947699181363 M54.21621470640156 16.133947699181363 C53.90010467329825 16.227767497711003, 53.583994640194945 16.32158729624064, 53.17150292646164 16.444012671663497 M54.21621470640156 16.133947699181363 C53.98243281306471 16.20333293797754, 53.74865091972787 16.272718176773715, 53.17150292646164 16.444012671663497 M53.17150292646164 16.444012671663497 C52.78493531078035 16.532244207353312, 52.398367695099054 16.620475743043126, 52.10907168792333 16.68650566884811 M53.17150292646164 16.444012671663497 C52.757593011154455 16.538484908817743, 52.34368309584726 16.632957145971986, 52.10907168792333 16.68650566884811 M52.10907168792333 16.68650566884811 C51.81527348094598 16.734004684513085, 51.52147527396864 16.781503700178057, 51.03328674863661 16.86043023499518 M52.10907168792333 16.68650566884811 C51.80876748714237 16.735056523136517, 51.5084632863614 16.783607377424925, 51.03328674863661 16.86043023499518 M51.03328674863661 16.86043023499518 C50.65070824592269 16.897337123034028, 50.26812974320876 16.934244011072874, 49.94856873967212 16.965071676755716 M51.03328674863661 16.86043023499518 C50.74801214478681 16.887950332935663, 50.46273754093701 16.915470430876148, 49.94856873967212 16.965071676755716 M49.94856873967212 16.965071676755716 C49.59654950069618 16.97636024858579, 49.244530261720236 16.98764882041587, 48.859375 17 M49.94856873967212 16.965071676755716 C49.675177916637146 16.973838788327495, 49.40178709360217 16.98260589989927, 48.859375 17 M48.859375 17 C48.859375 17, 48.859375 17, 48.859375 17 M48.859375 17 C48.859375 17, 48.859375 17, 48.859375 17 M48.859375 17 C23.76752244680934 17, -1.3243301063813178 17, -48.859375 17 M48.859375 17 C13.924549116873266 17, -21.01027676625347 17, -48.859375 17 M-48.859375 17 C-49.2004134754062 16.989063559884844, -49.5414519508124 16.97812711976969, -49.94856873967211 16.965071676755716 M-48.859375 17 C-49.22799639245524 16.988179029421975, -49.59661778491047 16.976358058843946, -49.94856873967211 16.965071676755716 M-49.94856873967211 16.965071676755716 C-50.36507337478622 16.924891975526368, -50.78157800990033 16.884712274297023, -51.033286748636606 16.86043023499518 M-49.94856873967211 16.965071676755716 C-50.28451056021368 16.932663773357223, -50.62045238075525 16.900255869958727, -51.033286748636606 16.86043023499518 M-51.033286748636606 16.86043023499518 C-51.462083904522856 16.7911056362031, -51.890881060409114 16.72178103741102, -52.109071687923326 16.68650566884811 M-51.033286748636606 16.86043023499518 C-51.261849099154354 16.823478046690973, -51.490411449672095 16.786525858386767, -52.109071687923326 16.68650566884811 M-52.109071687923326 16.68650566884811 C-52.526474844775485 16.591236122106757, -52.94387800162764 16.495966575365404, -53.17150292646162 16.4440126716635 M-52.109071687923326 16.68650566884811 C-52.431739897022425 16.612858755728084, -52.75440810612153 16.539211842608058, -53.17150292646162 16.4440126716635 M-53.17150292646162 16.4440126716635 C-53.5523392266573 16.330982456815956, -53.93317552685299 16.21795224196841, -54.216214706401544 16.13394769918137 M-53.17150292646162 16.4440126716635 C-53.4977686820982 16.347178707994463, -53.82403443773478 16.250344744325428, -54.216214706401544 16.13394769918137 M-54.216214706401544 16.13394769918137 C-54.56678690627308 16.004933888974755, -54.917359106144616 15.87592007876814, -55.238914082949364 15.757584874882369 M-54.216214706401544 16.13394769918137 C-54.62453676815354 15.983681405968873, -55.032858829905535 15.833415112756377, -55.238914082949364 15.757584874882369 M-55.238914082949364 15.757584874882369 C-55.48246037496216 15.649774155952368, -55.72600666697495 15.541963437022368, -56.23539856499848 15.316470754341127 M-55.238914082949364 15.757584874882369 C-55.54892898855102 15.620350472437947, -55.858943894152674 15.483116069993526, -56.23539856499848 15.316470754341127 M-56.23539856499848 15.316470754341127 C-56.47762438809161 15.190101697586487, -56.71985021118474 15.063732640831844, -57.20157338406693 14.812417970097624 M-56.23539856499848 15.316470754341127 C-56.52350176277772 15.166167500598606, -56.81160496055695 15.015864246856085, -57.20157338406693 14.812417970097624 M-57.20157338406693 14.812417970097624 C-57.51090681283606 14.624898227732773, -57.82024024160519 14.437378485367923, -58.13346832057932 14.247497783161299 M-57.20157338406693 14.812417970097624 C-57.43378382561336 14.671650635812156, -57.66599426715978 14.530883301526691, -58.13346832057932 14.247497783161299 M-58.13346832057932 14.247497783161299 C-58.440879237090925 14.033061235406898, -58.748290153602525 13.818624687652495, -59.02725401835067 13.624031571755264 M-58.13346832057932 14.247497783161299 C-58.479480392702236 14.00613474026954, -58.82549246482515 13.76477169737778, -59.02725401835067 13.624031571755264 M-59.02725401835067 13.624031571755264 C-59.249773337740486 13.446578336029662, -59.4722926571303 13.269125100304057, -59.8792577202324 12.94458129227529 M-59.02725401835067 13.624031571755264 C-59.35128062338441 13.365628976950946, -59.675307228418156 13.10722638214663, -59.8792577202324 12.94458129227529 M-59.8792577202324 12.94458129227529 C-60.12209086640539 12.72404665393395, -60.36492401257838 12.503512015592612, -60.68597836025926 12.211938951661377 M-59.8792577202324 12.94458129227529 C-60.09735731527769 12.746509010654227, -60.31545691032297 12.548436729033163, -60.68597836025926 12.211938951661377 M-60.68597836025926 12.211938951661377 C-60.96521216284613 11.923607124968889, -61.244445965432995 11.635275298276401, -61.444100950280365 11.429115134442386 M-60.68597836025926 12.211938951661377 C-60.855480392740056 12.03691418674928, -61.024982425220855 11.861889421837184, -61.444100950280365 11.429115134442386 M-61.444100950280365 11.429115134442386 C-61.668967158160676 11.164974491416473, -61.89383336604098 10.900833848390562, -62.15051020195651 10.599326631598473 M-61.444100950280365 11.429115134442386 C-61.635573920059514 11.204200089019169, -61.82704688983867 10.979285043595953, -62.15051020195651 10.599326631598473 M-62.15051020195651 10.599326631598473 C-62.33580161491031 10.351053018635357, -62.52109302786412 10.10277940567224, -62.80230332814825 9.72598322207689 M-62.15051020195651 10.599326631598473 C-62.3125444830756 10.382215456525575, -62.47457876419469 10.165104281452678, -62.80230332814825 9.72598322207689 M-62.80230332814825 9.72598322207689 C-62.95238577195925 9.495416285604104, -63.10246821577026 9.264849349131318, -63.39680197109088 8.812673661278936 M-62.80230332814825 9.72598322207689 C-62.98434909118927 9.446312043913792, -63.1663948542303 9.166640865750697, -63.39680197109088 8.812673661278936 M-63.39680197109088 8.812673661278936 C-63.5505874584908 8.539611955931154, -63.704372945890725 8.266550250583373, -63.931563208341004 7.863150934094201 M-63.39680197109088 8.812673661278936 C-63.572197597695265 8.501240965509753, -63.74759322429965 8.189808269740569, -63.931563208341004 7.863150934094201 M-63.931563208341004 7.863150934094201 C-64.09605142021344 7.521587642657148, -64.2605396320859 7.180024351220095, -64.40438959126881 6.881316833080701 M-63.931563208341004 7.863150934094201 C-64.03069806915525 7.657295274467212, -64.12983292996948 7.451439614840223, -64.40438959126881 6.881316833080701 M-64.40438959126881 6.881316833080701 C-64.49097578793398 6.6674472532874995, -64.57756198459916 6.453577673494297, -64.81333817484592 5.87120592516224 M-64.40438959126881 6.881316833080701 C-64.4978882800997 6.650373263994226, -64.59138696893059 6.419429694907751, -64.81333817484592 5.87120592516224 M-64.81333817484592 5.87120592516224 C-64.93697327152731 5.498836712535433, -65.0606083682087 5.126467499908627, -65.15672850162323 4.8369689727275516 M-64.81333817484592 5.87120592516224 C-64.8873065893183 5.648424846037822, -64.96127500379067 5.425643766913405, -65.15672850162323 4.8369689727275516 M-65.15672850162323 4.8369689727275516 C-65.22808699674833 4.564848103848137, -65.29944549187343 4.292727234968721, -65.433149507091 3.782855877257349 M-65.15672850162323 4.8369689727275516 C-65.23033084984723 4.5562913194899295, -65.30393319807123 4.2756136662523065, -65.433149507091 3.782855877257349 M-65.433149507091 3.782855877257349 C-65.4827204343036 3.528319642839786, -65.53229136151622 3.273783408422223, -65.64146531804565 2.713198215567455 M-65.433149507091 3.782855877257349 C-65.488848245993 3.4968546249282397, -65.54454698489499 3.21085337259913, -65.64146531804565 2.713198215567455 M-65.64146531804565 2.713198215567455 C-65.6808153157947 2.408007403561725, -65.72016531354376 2.1028165915559947, -65.78081992013637 1.6323914404306026 M-65.64146531804565 2.713198215567455 C-65.68720075986158 2.358483160327598, -65.73293620167752 2.003768105087741, -65.78081992013637 1.6323914404306026 M-65.78081992013637 1.6323914404306026 C-65.79884333468223 1.3516622106403915, -65.8168667492281 1.0709329808501806, -65.8506406754117 0.54487681871814 M-65.78081992013637 1.6323914404306026 C-65.79643885510569 1.3891139209059802, -65.81205779007502 1.145836401381358, -65.8506406754117 0.54487681871814 M-65.8506406754117 0.54487681871814 C-65.8506406754117 0.2788675779460525, -65.8506406754117 0.012858337173965007, -65.8506406754117 -0.5448768187181317 M-65.8506406754117 0.54487681871814 C-65.8506406754117 0.1797945691125717, -65.8506406754117 -0.1852876804929966, -65.8506406754117 -0.5448768187181317 M-65.8506406754117 -0.5448768187181317 C-65.82762197729133 -0.9034116223015287, -65.80460327917096 -1.261946425884926, -65.78081992013637 -1.6323914404305793 M-65.8506406754117 -0.5448768187181317 C-65.82989722199599 -0.8679728494819505, -65.80915376858029 -1.1910688802457696, -65.78081992013637 -1.6323914404305793 M-65.78081992013637 -1.6323914404305793 C-65.73575597412015 -1.9818985068496753, -65.69069202810394 -2.3314055732687713, -65.64146531804565 -2.713198215567447 M-65.78081992013637 -1.6323914404305793 C-65.7500054419457 -1.8713824482703392, -65.71919096375505 -2.110373456110099, -65.64146531804565 -2.713198215567447 M-65.64146531804565 -2.713198215567447 C-65.57523329090441 -3.053285676793853, -65.50900126376315 -3.3933731380202596, -65.433149507091 -3.782855877257341 M-65.64146531804565 -2.713198215567447 C-65.5741893883975 -3.058645895537932, -65.50691345874935 -3.4040935755084174, -65.433149507091 -3.782855877257341 M-65.433149507091 -3.782855877257341 C-65.36324446977498 -4.049434081578131, -65.29333943245898 -4.316012285898919, -65.15672850162323 -4.836968972727544 M-65.433149507091 -3.782855877257341 C-65.356985274777 -4.073303104857714, -65.280821042463 -4.363750332458086, -65.15672850162323 -4.836968972727544 M-65.15672850162323 -4.836968972727544 C-65.07923555570638 -5.070365379004945, -65.0017426097895 -5.303761785282346, -64.81333817484594 -5.871205925162218 M-65.15672850162323 -4.836968972727544 C-65.04080283418885 -5.186118612793103, -64.92487716675447 -5.535268252858663, -64.81333817484594 -5.871205925162218 M-64.81333817484594 -5.871205925162218 C-64.69473756402645 -6.164151726873149, -64.57613695320698 -6.457097528584079, -64.40438959126881 -6.881316833080692 M-64.81333817484594 -5.871205925162218 C-64.66679861752483 -6.233161464894935, -64.52025906020373 -6.595117004627652, -64.40438959126881 -6.881316833080692 M-64.40438959126881 -6.881316833080692 C-64.26872272246277 -7.1630319889624, -64.13305585365674 -7.444747144844108, -63.931563208341004 -7.863150934094194 M-64.40438959126881 -6.881316833080692 C-64.2339501211928 -7.235238039513981, -64.06351065111679 -7.58915924594727, -63.931563208341004 -7.863150934094194 M-63.931563208341004 -7.863150934094194 C-63.74157723212179 -8.200490273037612, -63.55159125590258 -8.53782961198103, -63.39680197109088 -8.812673661278929 M-63.931563208341004 -7.863150934094194 C-63.82351886338392 -8.054994609241795, -63.71547451842683 -8.246838284389398, -63.39680197109088 -8.812673661278929 M-63.39680197109088 -8.812673661278929 C-63.215697301267866 -9.090899067540247, -63.03459263144485 -9.369124473801568, -62.80230332814825 -9.725983222076884 M-63.39680197109088 -8.812673661278929 C-63.245871003052784 -9.04454415882519, -63.09494003501469 -9.27641465637145, -62.80230332814825 -9.725983222076884 M-62.80230332814825 -9.725983222076884 C-62.5513432349969 -10.062246883964875, -62.30038314184554 -10.398510545852865, -62.15051020195651 -10.599326631598467 M-62.80230332814825 -9.725983222076884 C-62.65925987630534 -9.917648416019833, -62.516216424462435 -10.109313609962783, -62.15051020195651 -10.599326631598467 M-62.15051020195651 -10.599326631598467 C-61.94796014988969 -10.837253448180617, -61.74541009782287 -11.075180264762766, -61.44410095028037 -11.42911513444238 M-62.15051020195651 -10.599326631598467 C-61.97887958906769 -10.800933715556209, -61.80724897617887 -11.002540799513952, -61.44410095028037 -11.42911513444238 M-61.44410095028037 -11.42911513444238 C-61.21899624957589 -11.661554219359392, -60.99389154887141 -11.893993304276403, -60.68597836025928 -12.21193895166136 M-61.44410095028037 -11.42911513444238 C-61.184261014276174 -11.697421201622205, -60.92442107827197 -11.96572726880203, -60.68597836025928 -12.21193895166136 M-60.68597836025928 -12.21193895166136 C-60.42175752432918 -12.451897323952844, -60.157536688399084 -12.69185569624433, -59.87925772023242 -12.944581292275274 M-60.68597836025928 -12.21193895166136 C-60.419828060901466 -12.453649611587094, -60.15367776154365 -12.695360271512827, -59.87925772023242 -12.944581292275274 M-59.87925772023242 -12.944581292275274 C-59.592830262758234 -13.172999567456179, -59.30640280528406 -13.401417842637082, -59.027254018350675 -13.624031571755259 M-59.87925772023242 -12.944581292275274 C-59.705025434828954 -13.083526903368698, -59.53079314942549 -13.22247251446212, -59.027254018350675 -13.624031571755259 M-59.027254018350675 -13.624031571755259 C-58.67620316729789 -13.868909448703269, -58.32515231624511 -14.113787325651279, -58.13346832057934 -14.247497783161284 M-59.027254018350675 -13.624031571755259 C-58.81556512961478 -13.771696576673122, -58.60387624087888 -13.919361581590985, -58.13346832057934 -14.247497783161284 M-58.13346832057934 -14.247497783161284 C-57.81488706448129 -14.440623612799191, -57.49630580838325 -14.633749442437098, -57.20157338406695 -14.812417970097618 M-58.13346832057934 -14.247497783161284 C-57.835897083202504 -14.42788721598182, -57.53832584582567 -14.608276648802352, -57.20157338406695 -14.812417970097618 M-57.20157338406695 -14.812417970097618 C-56.878326845351395 -14.981055482296231, -56.555080306635844 -15.149692994494844, -56.23539856499849 -15.316470754341124 M-57.20157338406695 -14.812417970097618 C-56.948011103114 -14.94470124965638, -56.69444882216104 -15.076984529215142, -56.23539856499849 -15.316470754341124 M-56.23539856499849 -15.316470754341124 C-55.86252552508963 -15.481530588223041, -55.48965248518076 -15.64659042210496, -55.23891408294937 -15.757584874882365 M-56.23539856499849 -15.316470754341124 C-55.941838106445715 -15.446421261180834, -55.64827764789295 -15.576371768020545, -55.23891408294937 -15.757584874882365 M-55.23891408294937 -15.757584874882365 C-54.85817134681199 -15.897701721328193, -54.477428610674615 -16.037818567774018, -54.216214706401566 -16.133947699181363 M-55.23891408294937 -15.757584874882365 C-54.96933080754115 -15.856794012233072, -54.699747532132925 -15.956003149583779, -54.216214706401566 -16.133947699181363 M-54.216214706401566 -16.133947699181363 C-53.89218292467432 -16.230118631120476, -53.56815114294707 -16.326289563059593, -53.17150292646164 -16.444012671663494 M-54.216214706401566 -16.133947699181363 C-53.894319071421286 -16.229484633978842, -53.572423436441014 -16.325021568776318, -53.17150292646164 -16.444012671663494 M-53.17150292646164 -16.444012671663494 C-52.944607191231526 -16.495800142596725, -52.71771145600141 -16.547587613529952, -52.10907168792333 -16.68650566884811 M-53.17150292646164 -16.444012671663494 C-52.9580016506928 -16.492742944631704, -52.74450037492396 -16.541473217599915, -52.10907168792333 -16.68650566884811 M-52.10907168792333 -16.68650566884811 C-51.69200492340362 -16.753933788934592, -51.27493815888391 -16.821361909021075, -51.03328674863661 -16.86043023499518 M-52.10907168792333 -16.68650566884811 C-51.73916723074087 -16.746308952833463, -51.3692627735584 -16.806112236818816, -51.03328674863661 -16.86043023499518 M-51.03328674863661 -16.86043023499518 C-50.72785678392862 -16.889894696357285, -50.42242681922063 -16.91935915771939, -49.94856873967212 -16.965071676755716 M-51.03328674863661 -16.86043023499518 C-50.738997724099974 -16.888819943257896, -50.444708699563336 -16.91720965152061, -49.94856873967212 -16.965071676755716 M-49.94856873967212 -16.965071676755716 C-49.61877639785005 -16.9756474752561, -49.28898405602798 -16.986223273756483, -48.85937500000001 -17 M-49.94856873967212 -16.965071676755716 C-49.687693647715015 -16.97343743319222, -49.426818555757905 -16.98180318962872, -48.85937500000001 -17 M-48.85937500000001 -17 C-48.85937500000001 -17, -48.859375 -17, -48.859375 -17 M-48.85937500000001 -17 C-48.85937500000001 -17, -48.859375 -17, -48.859375 -17" stroke="#3D3D3D" stroke-width="1.3" fill="none" stroke-dasharray="0 0" style="fill:#5A5A5A !important;stroke:#3D3D3D !important"></path></g><g class="label" style="color:#ffffff !important" transform="translate(0, -9.5)"><rect></rect><g><rect class="background" style="stroke: none"></rect><text y="-10.1" style="fill:#ffffff !important"><tspan class="text-outer-tspan row" x="0" y="-0.1em" dy="1.1em"><tspan font-style="normal" class="text-inner-tspan" font-weight="normal">Viewer</tspan><tspan font-style="normal" class="text-inner-tspan" font-weight="normal"> request</tspan></tspan></text></g></g></g><g class="node default primaryC" id="ga52c0dc9-8524-4e8e-b8f7-978952a5444e-light-flowchart-prim-1" data-look="classic" transform="translate(189.203125, 451.26562881469727)"><rect class="basic label-container" style="fill:#2E5A88 !important;stroke:#1F4870 !important" x="-101.2734375" y="-33.29999923706055" width="202.546875" height="66.5999984741211"></rect><g class="label" style="color:#ffffff !important" transform="translate(0, -18.299999237060547)"><rect></rect><g><rect class="background" style="stroke: none"></rect><text y="-10.1" style="fill:#ffffff !important"><tspan class="text-outer-tspan row" x="0" y="-0.1em" dy="1.1em"><tspan font-style="normal" class="text-inner-tspan" font-weight="normal">Primary</tspan><tspan font-style="normal" class="text-inner-tspan" font-weight="normal"> distribution</tspan></tspan><tspan class="text-outer-tspan row" x="0" y="1em" dy="1.1em"><tspan font-style="normal" class="text-inner-tspan" font-weight="normal">production</tspan><tspan font-style="normal" class="text-inner-tspan" font-weight="normal"> config</tspan></tspan></text></g></g></g><g class="node default" id="ga52c0dc9-8524-4e8e-b8f7-978952a5444e-light-flowchart-policy-2" data-look="classic" transform="translate(314.7421875, 209.6828155517578)"><polygon points="117.68281173706055,0 235.3656234741211,-117.68281173706055 117.68281173706055,-235.3656234741211 0,-117.68281173706055" class="label-container" transform="translate(-117.18281173706055, 117.68281173706055)"></polygon><g class="label" style="" transform="translate(0, -18.299999237060547)"><rect></rect><g><rect class="background" style="stroke: none"></rect><text y="-10.1" style=""><tspan class="text-outer-tspan row" x="0" y="-0.1em" dy="1.1em"><tspan font-style="normal" class="text-inner-tspan" font-weight="normal">Continuous</tspan><tspan font-style="normal" class="text-inner-tspan" font-weight="normal"> deployment</tspan></tspan><tspan class="text-outer-tspan row" x="0" y="1em" dy="1.1em"><tspan font-style="normal" class="text-inner-tspan" font-weight="normal">policy</tspan></tspan></text></g></g></g><g class="node default primaryC" id="ga52c0dc9-8524-4e8e-b8f7-978952a5444e-light-flowchart-stg-3" data-look="classic" transform="translate(440.28125, 451.26562881469727)"><rect class="basic label-container" style="fill:#2E5A88 !important;stroke:#1F4870 !important" x="-99.8046875" y="-33.29999923706055" width="199.609375" height="66.5999984741211"></rect><g class="label" style="color:#ffffff !important" transform="translate(0, -18.299999237060547)"><rect></rect><g><rect class="background" style="stroke: none"></rect><text y="-10.1" style="fill:#ffffff !important"><tspan class="text-outer-tspan row" x="0" y="-0.1em" dy="1.1em"><tspan font-style="normal" class="text-inner-tspan" font-weight="normal">Staging</tspan><tspan font-style="normal" class="text-inner-tspan" font-weight="normal"> distribution</tspan></tspan><tspan class="text-outer-tspan row" x="0" y="1em" dy="1.1em"><tspan font-style="normal" class="text-inner-tspan" font-weight="normal">candidate</tspan><tspan font-style="normal" class="text-inner-tspan" font-weight="normal"> config</tspan></tspan></text></g></g></g><g class="node default storageC" id="ga52c0dc9-8524-4e8e-b8f7-978952a5444e-light-flowchart-s3prod-4" data-look="classic" transform="translate(81.1015625, 567.8656272888184)"><rect class="basic label-container" style="fill:#8B5E15 !important;stroke:#6E4810 !important" x="-73.1015625" y="-33.29999923706055" width="146.203125" height="66.5999984741211"></rect><g class="label" style="color:#ffffff !important" transform="translate(0, -18.299999237060547)"><rect></rect><g><rect class="background" style="stroke: none"></rect><text y="-10.1" style="fill:#ffffff !important"><tspan class="text-outer-tspan row" x="0" y="-0.1em" dy="1.1em"><tspan font-style="normal" class="text-inner-tspan" font-weight="normal">S3</tspan><tspan font-style="normal" class="text-inner-tspan" font-weight="normal"> origin</tspan></tspan><tspan class="text-outer-tspan row" x="0" y="1em" dy="1.1em"><tspan font-style="normal" class="text-inner-tspan" font-weight="normal">/build_001/</tspan></tspan></text></g></g></g><g class="node default storageC" id="ga52c0dc9-8524-4e8e-b8f7-978952a5444e-light-flowchart-s3new-5" data-look="classic" transform="translate(304.7421875, 567.8656272888184)"><rect class="basic label-container" style="fill:#8B5E15 !important;stroke:#6E4810 !important" x="-73.1015625" y="-33.29999923706055" width="146.203125" height="66.5999984741211"></rect><g class="label" style="color:#ffffff !important" transform="translate(0, -18.299999237060547)"><rect></rect><g><rect class="background" style="stroke: none"></rect><text y="-10.1" style="fill:#ffffff !important"><tspan class="text-outer-tspan row" x="0" y="-0.1em" dy="1.1em"><tspan font-style="normal" class="text-inner-tspan" font-weight="normal">S3</tspan><tspan font-style="normal" class="text-inner-tspan" font-weight="normal"> origin</tspan></tspan><tspan class="text-outer-tspan row" x="0" y="1em" dy="1.1em"><tspan font-style="normal" class="text-inner-tspan" font-weight="normal">/build_002/</tspan></tspan></text></g></g></g><g class="node default neutralC" id="ga52c0dc9-8524-4e8e-b8f7-978952a5444e-light-flowchart-metrics-6" data-look="classic" transform="translate(557.91796875, 567.8656272888184)"><rect class="basic label-container" style="fill:#5A5A5A !important;stroke:#3D3D3D !important" x="-112.171875" y="-33.29999923706055" width="224.34375" height="66.5999984741211"></rect><g class="label" style="color:#ffffff !important" transform="translate(0, -18.299999237060547)"><rect></rect><g><rect class="background" style="stroke: none"></rect><text y="-10.1" style="fill:#ffffff !important"><tspan class="text-outer-tspan row" x="0" y="-0.1em" dy="1.1em"><tspan font-style="normal" class="text-inner-tspan" font-weight="normal">Monitor</tspan></tspan><tspan class="text-outer-tspan row" x="0" y="1em" dy="1.1em"><tspan font-style="normal" class="text-inner-tspan" font-weight="normal">4xx,</tspan><tspan font-style="normal" class="text-inner-tspan" font-weight="normal"> 5xx,</tspan><tspan font-style="normal" class="text-inner-tspan" font-weight="normal"> latency,</tspan><tspan font-style="normal" class="text-inner-tspan" font-weight="normal"> CWV</tspan></tspan></text></g></g></g><g class="node default successC" id="ga52c0dc9-8524-4e8e-b8f7-978952a5444e-light-flowchart-promote-7" data-look="classic" transform="translate(447.1484375, 707.4656257629395)"><rect class="basic label-container" style="fill:#2D7A2D !important;stroke:#1E5A1E !important" x="-87.671875" y="-33.29999923706055" width="175.34375" height="66.5999984741211"></rect><g class="label" style="color:#ffffff !important" transform="translate(0, -18.299999237060547)"><rect></rect><g><rect class="background" style="stroke: none"></rect><text y="-10.1" style="fill:#ffffff !important"><tspan class="text-outer-tspan row" x="0" y="-0.1em" dy="1.1em"><tspan font-style="normal" class="text-inner-tspan" font-weight="normal">Promote</tspan><tspan font-style="normal" class="text-inner-tspan" font-weight="normal"> staging</tspan></tspan><tspan class="text-outer-tspan row" x="0" y="1em" dy="1.1em"><tspan font-style="normal" class="text-inner-tspan" font-weight="normal">to</tspan><tspan font-style="normal" class="text-inner-tspan" font-weight="normal"> primary</tspan></tspan></text></g></g></g><g class="node default alertC" id="ga52c0dc9-8524-4e8e-b8f7-978952a5444e-light-flowchart-rollback-8" data-look="classic" transform="translate(668.6875, 707.4656257629395)"><rect class="basic label-container" style="fill:#B43A3A !important;stroke:#8E2828 !important" x="-83.8671875" y="-33.29999923706055" width="167.734375" height="66.5999984741211"></rect><g class="label" style="color:#ffffff !important" transform="translate(0, -18.299999237060547)"><rect></rect><g><rect class="background" style="stroke: none"></rect><text y="-10.1" style="fill:#ffffff !important"><tspan class="text-outer-tspan row" x="0" y="-0.1em" dy="1.1em"><tspan font-style="normal" class="text-inner-tspan" font-weight="normal">Discard</tspan><tspan font-style="normal" class="text-inner-tspan" font-weight="normal"> staging</tspan></tspan><tspan class="text-outer-tspan row" x="0" y="1em" dy="1.1em"><tspan font-style="normal" class="text-inner-tspan" font-weight="normal">keep</tspan><tspan font-style="normal" class="text-inner-tspan" font-weight="normal"> primary</tspan></tspan></text></g></g></g></g></g></g><defs><filter id="ga52c0dc9-8524-4e8e-b8f7-978952a5444e-light-drop-shadow" height="130%" width="130%"><feDropShadow dx="4" dy="4" stdDeviation="0" flood-opacity="0.06" flood-color="#000000"></feDropShadow></filter></defs><defs><filter id="ga52c0dc9-8524-4e8e-b8f7-978952a5444e-light-drop-shadow-small" height="150%" width="150%"><feDropShadow dx="2" dy="2" stdDeviation="0" flood-opacity="0.06" flood-color="#000000"></feDropShadow></filter></defs></svg>