<svg id="g2979287a-6211-4528-9590-1133263b277d-dark" width="100%" xmlns="http://www.w3.org/2000/svg" xmlns:xlink="http://www.w3.org/1999/xlink" class="flowchart" style="max-width: 1080.1875px;" viewBox="0 0 1080.1875 623.543701171875" role="graphics-document document" aria-roledescription="flowchart-v2"><style>#g2979287a-6211-4528-9590-1133263b277d-dark{font-family:"trebuchet ms",verdana,arial,sans-serif;font-size:16px;fill:#e5e5e5;}@keyframes edge-animation-frame{from{stroke-dashoffset:0;}}@keyframes dash{to{stroke-dashoffset:0;}}#g2979287a-6211-4528-9590-1133263b277d-dark .edge-animation-slow{stroke-dasharray:9,5!important;stroke-dashoffset:900;animation:dash 50s linear infinite;stroke-linecap:round;}#g2979287a-6211-4528-9590-1133263b277d-dark .edge-animation-fast{stroke-dasharray:9,5!important;stroke-dashoffset:900;animation:dash 20s linear infinite;stroke-linecap:round;}#g2979287a-6211-4528-9590-1133263b277d-dark .error-icon{fill:#252525;}#g2979287a-6211-4528-9590-1133263b277d-dark .error-text{fill:#cccccc;stroke:#cccccc;}#g2979287a-6211-4528-9590-1133263b277d-dark .edge-thickness-normal{stroke-width:1px;}#g2979287a-6211-4528-9590-1133263b277d-dark .edge-thickness-thick{stroke-width:3.5px;}#g2979287a-6211-4528-9590-1133263b277d-dark .edge-pattern-solid{stroke-dasharray:0;}#g2979287a-6211-4528-9590-1133263b277d-dark .edge-thickness-invisible{stroke-width:0;fill:none;}#g2979287a-6211-4528-9590-1133263b277d-dark .edge-pattern-dashed{stroke-dasharray:3;}#g2979287a-6211-4528-9590-1133263b277d-dark .edge-pattern-dotted{stroke-dasharray:2;}#g2979287a-6211-4528-9590-1133263b277d-dark .marker{fill:#cccccc;stroke:#cccccc;}#g2979287a-6211-4528-9590-1133263b277d-dark .marker.cross{stroke:#cccccc;}#g2979287a-6211-4528-9590-1133263b277d-dark svg{font-family:"trebuchet ms",verdana,arial,sans-serif;font-size:16px;}#g2979287a-6211-4528-9590-1133263b277d-dark p{margin:0;}#g2979287a-6211-4528-9590-1133263b277d-dark .label{font-family:"trebuchet ms",verdana,arial,sans-serif;color:#e5e5e5;}#g2979287a-6211-4528-9590-1133263b277d-dark .cluster-label text{fill:#e5e5e5;}#g2979287a-6211-4528-9590-1133263b277d-dark .cluster-label span{color:#e5e5e5;}#g2979287a-6211-4528-9590-1133263b277d-dark .cluster-label span p{background-color:transparent;}#g2979287a-6211-4528-9590-1133263b277d-dark .label text,#g2979287a-6211-4528-9590-1133263b277d-dark span{fill:#e5e5e5;color:#e5e5e5;}#g2979287a-6211-4528-9590-1133263b277d-dark .node rect,#g2979287a-6211-4528-9590-1133263b277d-dark .node circle,#g2979287a-6211-4528-9590-1133263b277d-dark .node ellipse,#g2979287a-6211-4528-9590-1133263b277d-dark .node polygon,#g2979287a-6211-4528-9590-1133263b277d-dark .node path{fill:#2d2d2d;stroke:#555555;stroke-width:1px;}#g2979287a-6211-4528-9590-1133263b277d-dark .rough-node .label text,#g2979287a-6211-4528-9590-1133263b277d-dark .node .label text,#g2979287a-6211-4528-9590-1133263b277d-dark .image-shape .label,#g2979287a-6211-4528-9590-1133263b277d-dark .icon-shape .label{text-anchor:middle;}#g2979287a-6211-4528-9590-1133263b277d-dark .node .katex path{fill:#000;stroke:#000;stroke-width:1px;}#g2979287a-6211-4528-9590-1133263b277d-dark .rough-node .label,#g2979287a-6211-4528-9590-1133263b277d-dark .node .label,#g2979287a-6211-4528-9590-1133263b277d-dark .image-shape .label,#g2979287a-6211-4528-9590-1133263b277d-dark .icon-shape .label{text-align:center;}#g2979287a-6211-4528-9590-1133263b277d-dark .node.clickable{cursor:pointer;}#g2979287a-6211-4528-9590-1133263b277d-dark .root .anchor path{fill:#cccccc!important;stroke-width:0;stroke:#cccccc;}#g2979287a-6211-4528-9590-1133263b277d-dark .arrowheadPath{fill:#cccccc;}#g2979287a-6211-4528-9590-1133263b277d-dark .edgePath .path{stroke:#cccccc;stroke-width:1px;}#g2979287a-6211-4528-9590-1133263b277d-dark .flowchart-link{stroke:#cccccc;fill:none;}#g2979287a-6211-4528-9590-1133263b277d-dark .edgeLabel{background-color:#1e1e1e;text-align:center;}#g2979287a-6211-4528-9590-1133263b277d-dark .edgeLabel p{background-color:#1e1e1e;}#g2979287a-6211-4528-9590-1133263b277d-dark .edgeLabel rect{opacity:0.5;background-color:#1e1e1e;fill:#1e1e1e;}#g2979287a-6211-4528-9590-1133263b277d-dark .labelBkg{background-color:rgba(30, 30, 30, 0.5);}#g2979287a-6211-4528-9590-1133263b277d-dark .cluster rect{fill:#1e1e1e;stroke:#555555;stroke-width:1px;}#g2979287a-6211-4528-9590-1133263b277d-dark .cluster text{fill:#e5e5e5;}#g2979287a-6211-4528-9590-1133263b277d-dark .cluster span{color:#e5e5e5;}#g2979287a-6211-4528-9590-1133263b277d-dark div.mermaidTooltip{position:absolute;text-align:center;max-width:200px;padding:2px;font-family:"trebuchet ms",verdana,arial,sans-serif;font-size:12px;background:#252525;border:1px solid #555555;border-radius:2px;pointer-events:none;z-index:100;}#g2979287a-6211-4528-9590-1133263b277d-dark .flowchartTitleText{text-anchor:middle;font-size:18px;fill:#e5e5e5;}#g2979287a-6211-4528-9590-1133263b277d-dark rect.text{fill:none;stroke-width:0;}#g2979287a-6211-4528-9590-1133263b277d-dark .icon-shape,#g2979287a-6211-4528-9590-1133263b277d-dark .image-shape{background-color:#1e1e1e;text-align:center;}#g2979287a-6211-4528-9590-1133263b277d-dark .icon-shape p,#g2979287a-6211-4528-9590-1133263b277d-dark .image-shape p{background-color:#1e1e1e;padding:2px;}#g2979287a-6211-4528-9590-1133263b277d-dark .icon-shape .label rect,#g2979287a-6211-4528-9590-1133263b277d-dark .image-shape .label rect{opacity:0.5;background-color:#1e1e1e;fill:#1e1e1e;}#g2979287a-6211-4528-9590-1133263b277d-dark .label-icon{display:inline-block;height:1em;overflow:visible;vertical-align:-0.125em;}#g2979287a-6211-4528-9590-1133263b277d-dark .node .label-icon path{fill:currentColor;stroke:revert;stroke-width:revert;}#g2979287a-6211-4528-9590-1133263b277d-dark .node .neo-node{stroke:#555555;}#g2979287a-6211-4528-9590-1133263b277d-dark [data-look="neo"].node rect,#g2979287a-6211-4528-9590-1133263b277d-dark [data-look="neo"].cluster rect,#g2979287a-6211-4528-9590-1133263b277d-dark [data-look="neo"].node polygon{stroke:url(#g2979287a-6211-4528-9590-1133263b277d-dark-gradient);filter:drop-shadow( 1px 2px 2px rgba(185,185,185,1));}#g2979287a-6211-4528-9590-1133263b277d-dark [data-look="neo"].node path{stroke:url(#g2979287a-6211-4528-9590-1133263b277d-dark-gradient);stroke-width:1px;}#g2979287a-6211-4528-9590-1133263b277d-dark [data-look="neo"].node .outer-path{filter:drop-shadow( 1px 2px 2px rgba(185,185,185,1));}#g2979287a-6211-4528-9590-1133263b277d-dark [data-look="neo"].node .neo-line path{stroke:#555555;filter:none;}#g2979287a-6211-4528-9590-1133263b277d-dark [data-look="neo"].node circle{stroke:url(#g2979287a-6211-4528-9590-1133263b277d-dark-gradient);filter:drop-shadow( 1px 2px 2px rgba(185,185,185,1));}#g2979287a-6211-4528-9590-1133263b277d-dark [data-look="neo"].node circle .state-start{fill:#000000;}#g2979287a-6211-4528-9590-1133263b277d-dark [data-look="neo"].icon-shape .icon{fill:url(#g2979287a-6211-4528-9590-1133263b277d-dark-gradient);filter:drop-shadow( 1px 2px 2px rgba(185,185,185,1));}#g2979287a-6211-4528-9590-1133263b277d-dark [data-look="neo"].icon-shape .icon-neo path{stroke:url(#g2979287a-6211-4528-9590-1133263b277d-dark-gradient);filter:drop-shadow( 1px 2px 2px rgba(185,185,185,1));}#g2979287a-6211-4528-9590-1133263b277d-dark :root{--mermaid-font-family:"trebuchet ms",verdana,arial,sans-serif;}#g2979287a-6211-4528-9590-1133263b277d-dark .pick rect{fill:#d5e8d4!important;stroke:#82b366!important;color:#000!important;}#g2979287a-6211-4528-9590-1133263b277d-dark .pick polygon{fill:#d5e8d4!important;stroke:#82b366!important;color:#000!important;}#g2979287a-6211-4528-9590-1133263b277d-dark .pick ellipse{fill:#d5e8d4!important;stroke:#82b366!important;color:#000!important;}#g2979287a-6211-4528-9590-1133263b277d-dark .pick circle{fill:#d5e8d4!important;stroke:#82b366!important;color:#000!important;}#g2979287a-6211-4528-9590-1133263b277d-dark .pick path{fill:#d5e8d4!important;stroke:#82b366!important;color:#000!important;}#g2979287a-6211-4528-9590-1133263b277d-dark .pick tspan{fill:#000!important;}</style><g><marker id="g2979287a-6211-4528-9590-1133263b277d-dark_flowchart-v2-pointEnd" class="marker flowchart-v2" viewBox="0 0 10 10" refX="5" refY="5" markerUnits="userSpaceOnUse" markerWidth="8" markerHeight="8" orient="auto"><path d="M 0 0 L 10 5 L 0 10 z" class="arrowMarkerPath" style="stroke-width: 1; stroke-dasharray: 1, 0;"></path></marker><marker id="g2979287a-6211-4528-9590-1133263b277d-dark_flowchart-v2-pointStart" class="marker flowchart-v2" viewBox="0 0 10 10" refX="4.5" refY="5" markerUnits="userSpaceOnUse" markerWidth="8" markerHeight="8" orient="auto"><path d="M 0 5 L 10 10 L 10 0 z" class="arrowMarkerPath" style="stroke-width: 1; stroke-dasharray: 1, 0;"></path></marker><marker id="g2979287a-6211-4528-9590-1133263b277d-dark_flowchart-v2-pointEnd-margin" class="marker flowchart-v2" viewBox="0 0 11.5 14" refX="11.5" refY="7" markerUnits="userSpaceOnUse" markerWidth="10.5" markerHeight="14" orient="auto"><path d="M 0 0 L 11.5 7 L 0 14 z" class="arrowMarkerPath" style="stroke-width: 0; stroke-dasharray: 1, 0;"></path></marker><marker id="g2979287a-6211-4528-9590-1133263b277d-dark_flowchart-v2-pointStart-margin" class="marker flowchart-v2" viewBox="0 0 11.5 14" refX="1" refY="7" markerUnits="userSpaceOnUse" markerWidth="11.5" markerHeight="14" orient="auto"><polygon points="0,7 11.5,14 11.5,0" class="arrowMarkerPath" style="stroke-width: 0; stroke-dasharray: 1, 0;"></polygon></marker><marker id="g2979287a-6211-4528-9590-1133263b277d-dark_flowchart-v2-circleEnd" class="marker flowchart-v2" viewBox="0 0 10 10" refX="11" refY="5" markerUnits="userSpaceOnUse" markerWidth="11" markerHeight="11" orient="auto"><circle cx="5" cy="5" r="5" class="arrowMarkerPath" style="stroke-width: 1; stroke-dasharray: 1, 0;"></circle></marker><marker id="g2979287a-6211-4528-9590-1133263b277d-dark_flowchart-v2-circleStart" class="marker flowchart-v2" viewBox="0 0 10 10" refX="-1" refY="5" markerUnits="userSpaceOnUse" markerWidth="11" markerHeight="11" orient="auto"><circle cx="5" cy="5" r="5" class="arrowMarkerPath" style="stroke-width: 1; stroke-dasharray: 1, 0;"></circle></marker><marker id="g2979287a-6211-4528-9590-1133263b277d-dark_flowchart-v2-circleEnd-margin" class="marker flowchart-v2" viewBox="0 0 10 10" refY="5" refX="12.25" markerUnits="userSpaceOnUse" markerWidth="14" markerHeight="14" orient="auto"><circle cx="5" cy="5" r="5" class="arrowMarkerPath" style="stroke-width: 0; stroke-dasharray: 1, 0;"></circle></marker><marker id="g2979287a-6211-4528-9590-1133263b277d-dark_flowchart-v2-circleStart-margin" class="marker flowchart-v2" viewBox="0 0 10 10" refX="-2" refY="5" markerUnits="userSpaceOnUse" markerWidth="14" markerHeight="14" orient="auto"><circle cx="5" cy="5" r="5" class="arrowMarkerPath" style="stroke-width: 0; stroke-dasharray: 1, 0;"></circle></marker><marker id="g2979287a-6211-4528-9590-1133263b277d-dark_flowchart-v2-crossEnd" class="marker cross flowchart-v2" viewBox="0 0 11 11" refX="12" refY="5.2" markerUnits="userSpaceOnUse" markerWidth="11" markerHeight="11" orient="auto"><path d="M 1,1 l 9,9 M 10,1 l -9,9" class="arrowMarkerPath" style="stroke-width: 2; stroke-dasharray: 1, 0;"></path></marker><marker id="g2979287a-6211-4528-9590-1133263b277d-dark_flowchart-v2-crossStart" class="marker cross flowchart-v2" viewBox="0 0 11 11" refX="-1" refY="5.2" markerUnits="userSpaceOnUse" markerWidth="11" markerHeight="11" orient="auto"><path d="M 1,1 l 9,9 M 10,1 l -9,9" class="arrowMarkerPath" style="stroke-width: 2; stroke-dasharray: 1, 0;"></path></marker><marker id="g2979287a-6211-4528-9590-1133263b277d-dark_flowchart-v2-crossEnd-margin" class="marker cross flowchart-v2" viewBox="0 0 15 15" refX="17.7" refY="7.5" markerUnits="userSpaceOnUse" markerWidth="12" markerHeight="12" orient="auto"><path d="M 1,1 L 14,14 M 1,14 L 14,1" class="arrowMarkerPath" style="stroke-width: 2.5;"></path></marker><marker id="g2979287a-6211-4528-9590-1133263b277d-dark_flowchart-v2-crossStart-margin" class="marker cross flowchart-v2" viewBox="0 0 15 15" refX="-3.5" refY="7.5" markerUnits="userSpaceOnUse" markerWidth="12" markerHeight="12" orient="auto"><path d="M 1,1 L 14,14 M 1,14 L 14,1" class="arrowMarkerPath" style="stroke-width: 2.5; stroke-dasharray: 1, 0;"></path></marker><g class="root"><g class="clusters"></g><g class="edgePaths"><path d="M554.418,42.5L554.335,46.583C554.251,50.667,554.085,58.833,554.001,66.417C553.918,74,553.918,81,553.918,84.5L553.918,88" id="g2979287a-6211-4528-9590-1133263b277d-dark-L_START_Q1_0" class="edge-thickness-normal edge-pattern-solid edge-thickness-normal edge-pattern-solid flowchart-link" style=";" data-edge="true" data-et="edge" data-id="L_START_Q1_0" data-points="W3sieCI6NTU0LjQxNzk2ODc1LCJ5Ijo0Mi41fSx7IngiOjU1My45MTc5Njg3NSwieSI6Njd9LHsieCI6NTUzLjkxNzk2ODc1LCJ5Ijo5Mn1d" data-look="classic" marker-end="url(#g2979287a-6211-4528-9590-1133263b277d-dark_flowchart-v2-pointEnd)"></path><path d="M501.109,176.425L451.382,191.31C401.656,206.195,302.203,235.965,252.476,257.917C202.75,279.87,202.75,294.005,202.75,301.073L202.75,308.141" id="g2979287a-6211-4528-9590-1133263b277d-dark-L_Q1_Q2_0" class="edge-thickness-normal edge-pattern-solid edge-thickness-normal edge-pattern-solid flowchart-link" style=";" data-edge="true" data-et="edge" data-id="L_Q1_Q2_0" data-points="W3sieCI6NTAxLjEwODU0MDIwMzcxOTMsInkiOjE3Ni40MjQ5NDY0NTM3MTkzMX0seyJ4IjoyMDIuNzUsInkiOjI2NS43MzQzNzV9LHsieCI6MjAyLjc1LCJ5IjozMTIuMTQwNjI1fV0=" data-look="classic" marker-end="url(#g2979287a-6211-4528-9590-1133263b277d-dark_flowchart-v2-pointEnd)"></path><path d="M553.918,229.234L553.918,235.318C553.918,241.401,553.918,253.568,553.918,265.724C553.918,277.881,553.918,290.028,553.918,296.102L553.918,302.175" id="g2979287a-6211-4528-9590-1133263b277d-dark-L_Q1_Q3_0" class="edge-thickness-normal edge-pattern-solid edge-thickness-normal edge-pattern-solid flowchart-link" style=";" data-edge="true" data-et="edge" data-id="L_Q1_Q3_0" data-points="W3sieCI6NTUzLjkxNzk2ODc1LCJ5IjoyMjkuMjM0Mzc1fSx7IngiOjU1My45MTc5Njg3NSwieSI6MjY1LjczNDM3NX0seyJ4Ijo1NTMuOTE3OTY4NzUsInkiOjMwNi4xNzQ5OTU0MjIzNjMxN31d" data-look="classic" marker-end="url(#g2979287a-6211-4528-9590-1133263b277d-dark_flowchart-v2-pointEnd)"></path><path d="M608.736,174.416L669.2,189.636C729.664,204.855,850.592,235.295,911.056,255.931C971.52,276.568,971.52,287.401,971.52,292.818L971.52,298.234" id="g2979287a-6211-4528-9590-1133263b277d-dark-L_Q1_Q4_0" class="edge-thickness-normal edge-pattern-solid edge-thickness-normal edge-pattern-solid flowchart-link" style=";" data-edge="true" data-et="edge" data-id="L_Q1_Q4_0" data-points="W3sieCI6NjA4LjczNjQ0MzcyMjE2MzIsInkiOjE3NC40MTU5MDAwMjc4MzY3M30seyJ4Ijo5NzEuNTE5NTMxMjUsInkiOjI2NS43MzQzNzV9LHsieCI6OTcxLjUxOTUzMTI1LCJ5IjozMDIuMjM0Mzc1fV0=" data-look="classic" marker-end="url(#g2979287a-6211-4528-9590-1133263b277d-dark_flowchart-v2-pointEnd)"></path><path d="M167.052,430.34L155.21,444.024C143.368,457.708,119.684,485.076,107.842,504.176C96,523.277,96,534.11,96,539.527L96,544.944" id="g2979287a-6211-4528-9590-1133263b277d-dark-L_Q2_LEADER_0" class="edge-thickness-normal edge-pattern-solid edge-thickness-normal edge-pattern-solid flowchart-link" style=";" data-edge="true" data-et="edge" data-id="L_Q2_LEADER_0" data-points="W3sieCI6MTY3LjA1MjEzODAwODkyNjM2LCJ5Ijo0MzAuMzM5NjI4ODUzNjUzfSx7IngiOjk2LCJ5Ijo1MTIuNDQzNzQwODQ0NzI2Nn0seyJ4Ijo5NiwieSI6NTQ4Ljk0Mzc0MDg0NDcyNjZ9XQ==" data-look="classic" marker-end="url(#g2979287a-6211-4528-9590-1133263b277d-dark_flowchart-v2-pointEnd)"></path><path d="M238.448,430.34L250.29,444.024C262.132,457.708,285.816,485.076,297.658,504.176C309.5,523.277,309.5,534.11,309.5,539.527L309.5,544.944" id="g2979287a-6211-4528-9590-1133263b277d-dark-L_Q2_LOCKS_0" class="edge-thickness-normal edge-pattern-solid edge-thickness-normal edge-pattern-solid flowchart-link" style=";" data-edge="true" data-et="edge" data-id="L_Q2_LOCKS_0" data-points="W3sieCI6MjM4LjQ0Nzg2MTk5MTA3MzY3LCJ5Ijo0MzAuMzM5NjI4ODUzNjUzfSx7IngiOjMwOS41LCJ5Ijo1MTIuNDQzNzQwODQ0NzI2Nn0seyJ4IjozMDkuNSwieSI6NTQ4Ljk0Mzc0MDg0NDcyNjZ9XQ==" data-look="classic" marker-end="url(#g2979287a-6211-4528-9590-1133263b277d-dark_flowchart-v2-pointEnd)"></path><path d="M541.193,459.278L539.587,468.139C537.98,477,534.768,494.722,533.161,510.466C531.555,526.21,531.555,539.977,531.555,546.86L531.555,553.744" id="g2979287a-6211-4528-9590-1133263b277d-dark-L_Q3_HASH_0" class="edge-thickness-normal edge-pattern-solid edge-thickness-normal edge-pattern-solid flowchart-link" style=";" data-edge="true" data-et="edge" data-id="L_Q3_HASH_0" data-points="W3sieCI6NTQxLjE5MzE3ODcwOTE5MDIsInkiOjQ1OS4yNzgzMzAzODE1NTMzNn0seyJ4Ijo1MzEuNTU0Njg3NSwieSI6NTEyLjQ0Mzc0MDg0NDcyNjZ9LHsieCI6NTMxLjU1NDY4NzUsInkiOjU1Ny43NDM3NDAwODE3ODcxfV0=" data-look="classic" marker-end="url(#g2979287a-6211-4528-9590-1133263b277d-dark_flowchart-v2-pointEnd)"></path><path d="M594.828,431.093L608.034,444.651C621.24,458.21,647.651,485.327,668.836,504.581C690.021,523.836,705.98,535.228,713.96,540.924L721.939,546.62" id="g2979287a-6211-4528-9590-1133263b277d-dark-L_Q3_BROKER_0" class="edge-thickness-normal edge-pattern-solid edge-thickness-normal edge-pattern-solid flowchart-link" style=";" data-edge="true" data-et="edge" data-id="L_Q3_BROKER_0" data-points="W3sieCI6NTk0LjgyODQ1NDY3MDY4MjQsInkiOjQzMS4wOTI2MzQ1MDE2ODA4M30seyJ4Ijo2NzQuMDYyNSwieSI6NTEyLjQ0Mzc0MDg0NDcyNjZ9LHsieCI6NzI1LjE5NDUyOTU3MDM1MzEsInkiOjU0OC45NDM3NDA4NDQ3MjY2fV0=" data-look="classic" marker-end="url(#g2979287a-6211-4528-9590-1133263b277d-dark_flowchart-v2-pointEnd)"></path><path d="M984.849,462.614L986.355,470.919C987.86,479.224,990.872,495.834,992.377,511.022C993.883,526.21,993.883,539.977,993.883,546.86L993.883,553.744" id="g2979287a-6211-4528-9590-1133263b277d-dark-L_Q4_STEAL_0" class="edge-thickness-normal edge-pattern-solid edge-thickness-normal edge-pattern-solid flowchart-link" style=";" data-edge="true" data-et="edge" data-id="L_Q4_STEAL_0" data-points="W3sieCI6OTg0Ljg0OTA4NjgyNzQ3NzQsInkiOjQ2Mi42MTQxODUyNjcyNDkyfSx7IngiOjk5My44ODI4MTI1LCJ5Ijo1MTIuNDQzNzQwODQ0NzI2Nn0seyJ4Ijo5OTMuODgyODEyNSwieSI6NTU3Ljc0Mzc0MDA4MTc4NzF9XQ==" data-look="classic" marker-end="url(#g2979287a-6211-4528-9590-1133263b277d-dark_flowchart-v2-pointEnd)"></path><path d="M930.378,434.802L918.731,447.742C907.085,460.683,883.793,486.563,864.943,505.174C846.094,523.786,831.688,535.127,824.485,540.798L817.282,546.469" id="g2979287a-6211-4528-9590-1133263b277d-dark-L_Q4_BROKER_0" class="edge-thickness-normal edge-pattern-solid edge-thickness-normal edge-pattern-solid flowchart-link" style=";" data-edge="true" data-et="edge" data-id="L_Q4_BROKER_0" data-points="W3sieCI6OTMwLjM3Nzc3NzU4NDk5NjUsInkiOjQzNC44MDE5ODcxNzk3MjN9LHsieCI6ODYwLjUsInkiOjUxMi40NDM3NDA4NDQ3MjY2fSx7IngiOjgxNC4xMzk2Mzk1MzYyNDQzLCJ5Ijo1NDguOTQzNzQwODQ0NzI2Nn1d" data-look="classic" marker-end="url(#g2979287a-6211-4528-9590-1133263b277d-dark_flowchart-v2-pointEnd)"></path></g><g class="edgeLabels"><g class="edgeLabel"><g class="label" data-id="L_START_Q1_0" transform="translate(0, 0)"><text y="-10.1" text-anchor="middle"><tspan class="text-outer-tspan row" x="0" y="-0.1em" dy="1.1em" text-anchor="middle"></tspan></text></g></g><g><rect class="background" style="stroke: none"></rect></g><g class="edgeLabel" transform="translate(202.75, 265.734375)"><g class="label" data-id="L_Q1_Q2_0" transform="translate(0, -10.5)"><g><rect class="background" style="" x="-29.0390625" y="-1" width="58.078125" height="23"></rect><text y="-10.1" text-anchor="middle" style=""><tspan class="text-outer-tspan row" x="0" y="-0.1em" dy="1.1em" text-anchor="middle"><tspan font-style="normal" class="text-inner-tspan" font-weight="normal">&lt;</tspan><tspan font-style="normal" class="text-inner-tspan" font-weight="normal"> 10K/s</tspan></tspan></text></g></g></g><g class="edgeLabel" transform="translate(553.91796875, 265.734375)"><g class="label" data-id="L_Q1_Q3_0" transform="translate(0, -10.5)"><g><rect class="background" style="" x="-42.5625" y="-1" width="85.125" height="23"></rect><text y="-10.1" text-anchor="middle" style=""><tspan class="text-outer-tspan row" x="0" y="-0.1em" dy="1.1em" text-anchor="middle"><tspan font-style="normal" class="text-inner-tspan" font-weight="normal">10K-100K/s</tspan></tspan></text></g></g></g><g class="edgeLabel" transform="translate(971.51953125, 265.734375)"><g class="label" data-id="L_Q1_Q4_0" transform="translate(0, -10.5)"><g><rect class="background" style="" x="-26.625" y="-1" width="53.25" height="23"></rect><text y="-10.1" text-anchor="middle" style=""><tspan class="text-outer-tspan row" x="0" y="-0.1em" dy="1.1em" text-anchor="middle"><tspan font-style="normal" class="text-inner-tspan" font-weight="normal">100K/s</tspan></tspan></text></g></g></g><g class="edgeLabel" transform="translate(96, 512.4437408447266)"><g class="label" data-id="L_Q2_LEADER_0" transform="translate(0, -10.5)"><g><rect class="background" style="" x="-13.328125" y="-1" width="26.65625" height="23"></rect><text y="-10.1" text-anchor="middle" style=""><tspan class="text-outer-tspan row" x="0" y="-0.1em" dy="1.1em" text-anchor="middle"><tspan font-style="normal" class="text-inner-tspan" font-weight="normal">Yes</tspan></tspan></text></g></g></g><g class="edgeLabel" transform="translate(309.5, 512.4437408447266)"><g class="label" data-id="L_Q2_LOCKS_0" transform="translate(0, -10.5)"><g><rect class="background" style="" x="-11.3984375" y="-1" width="22.796875" height="23"></rect><text y="-10.1" text-anchor="middle" style=""><tspan class="text-outer-tspan row" x="0" y="-0.1em" dy="1.1em" text-anchor="middle"><tspan font-style="normal" class="text-inner-tspan" font-weight="normal">No</tspan></tspan></text></g></g></g><g class="edgeLabel" transform="translate(531.5546875, 512.4437408447266)"><g class="label" data-id="L_Q3_HASH_0" transform="translate(0, -10.5)"><g><rect class="background" style="" x="-13.328125" y="-1" width="26.65625" height="23"></rect><text y="-10.1" text-anchor="middle" style=""><tspan class="text-outer-tspan row" x="0" y="-0.1em" dy="1.1em" text-anchor="middle"><tspan font-style="normal" class="text-inner-tspan" font-weight="normal">Yes</tspan></tspan></text></g></g></g><g class="edgeLabel" transform="translate(656.36205, 494.27035)"><g class="label" data-id="L_Q3_BROKER_0" transform="translate(0, -10.5)"><g><rect class="background" style="" x="-11.3984375" y="-1" width="22.796875" height="23"></rect><text y="-10.1" text-anchor="middle" style=""><tspan class="text-outer-tspan row" x="0" y="-0.1em" dy="1.1em" text-anchor="middle"><tspan font-style="normal" class="text-inner-tspan" font-weight="normal">No</tspan></tspan></text></g></g></g><g class="edgeLabel" transform="translate(993.8828125, 512.4437408447266)"><g class="label" data-id="L_Q4_STEAL_0" transform="translate(0, -10.5)"><g><rect class="background" style="" x="-13.328125" y="-1" width="26.65625" height="23"></rect><text y="-10.1" text-anchor="middle" style=""><tspan class="text-outer-tspan row" x="0" y="-0.1em" dy="1.1em" text-anchor="middle"><tspan font-style="normal" class="text-inner-tspan" font-weight="normal">Yes</tspan></tspan></text></g></g></g><g class="edgeLabel" transform="translate(875.70289, 495.55169)"><g class="label" data-id="L_Q4_BROKER_0" transform="translate(0, -10.5)"><g><rect class="background" style="" x="-11.3984375" y="-1" width="22.796875" height="23"></rect><text y="-10.1" text-anchor="middle" style=""><tspan class="text-outer-tspan row" x="0" y="-0.1em" dy="1.1em" text-anchor="middle"><tspan font-style="normal" class="text-inner-tspan" font-weight="normal">No</tspan></tspan></text></g></g></g></g><g class="nodes"><g class="node default" id="g2979287a-6211-4528-9590-1133263b277d-dark-flowchart-START-0" data-look="classic" transform="translate(553.91796875, 25)"><g class="basic label-container outer-path"><path d="M-56.6171875 -17 C-28.167030817507985 -17, 0.28312586498402936 -17, 56.6171875 -17 C56.6171875 -17, 56.6171875 -17, 56.6171875 -17 C56.96445521491098 -16.988863800298407, 57.311722929821954 -16.97772760059681, 57.70638123967212 -16.965071676755716 C58.05851151499229 -16.931102092594195, 58.41064179031246 -16.897132508432676, 58.7910992486366 -16.860430234995185 C59.02711712817781 -16.822272694576956, 59.263135007719015 -16.784115154158723, 59.866884187923326 -16.686505668848113 C60.273874000899504 -16.59361289989303, 60.680863813875675 -16.500720130937953, 60.92931542646162 -16.4440126716635 C61.14366138401 -16.380395916588032, 61.35800734155839 -16.31677916151256, 61.97402720640155 -16.133947699181366 C62.20891096036308 -16.047508306481905, 62.4437947143246 -15.961068913782443, 62.99672658294936 -15.757584874882369 C63.205404779412994 -15.665209227526677, 63.414082975876624 -15.572833580170988, 63.99321106499849 -15.316470754341125 C64.36334946997506 -15.123369785549809, 64.73348787495163 -14.93026881675849, 64.95938588406693 -14.812417970097622 C65.33063061386443 -14.587367233218183, 65.70187534366194 -14.362316496338744, 65.89128082057933 -14.247497783161291 C66.18072620738269 -14.045593211216111, 66.47017159418606 -13.843688639270932, 66.78506651835067 -13.624031571755262 C67.04794893210702 -13.414389842379405, 67.31083134586336 -13.204748113003548, 67.6370702202324 -12.944581292275288 C67.91443959801848 -12.692681762161563, 68.19180897580453 -12.44078223204784, 68.44379086025927 -12.21193895166137 C68.65353867645192 -11.995357110826498, 68.86328649264455 -11.778775269991627, 69.20191345028036 -11.42911513444239 C69.3909518279705 -11.20705989941915, 69.57999020566062 -10.98500466439591, 69.90832270195651 -10.59932663159847 C70.13152122865581 -10.300260939625488, 70.35471975535512 -10.001195247652507, 70.56011582814824 -9.725983222076888 C70.68140642153986 -9.539648299542655, 70.80269701493148 -9.353313377008423, 71.15461447109088 -8.812673661278927 C71.30090756117879 -8.552915466046128, 71.4472006512667 -8.29315727081333, 71.689375708341 -7.863150934094199 C71.79415586594773 -7.645572694887604, 71.89893602355446 -7.427994455681008, 72.16220209126881 -6.881316833080699 C72.30063952968328 -6.539373683691169, 72.43907696809775 -6.197430534301638, 72.57115067484592 -5.871205925162238 C72.64626950565962 -5.644959975311713, 72.72138833647332 -5.418714025461188, 72.91454100162323 -4.836968972727556 C73.00656703588402 -4.486033819755627, 73.0985930701448 -4.135098666783699, 73.190962007091 -3.7828558772573464 C73.24604127068818 -3.500035499692337, 73.30112053428535 -3.2172151221273273, 73.39927781804565 -2.713198215567453 C73.44699976762644 -2.343076198383739, 73.49472171720721 -1.9729541812000253, 73.53863242013637 -1.632391440430593 C73.55517383473212 -1.3747455561122686, 73.57171524932787 -1.1170996717939443, 73.6084531754117 -0.5448768187181379 C73.6084531754117 -0.2536871100839254, 73.6084531754117 0.037502598550287036, 73.6084531754117 0.5448768187181336 C73.59180767857221 0.8041438679964298, 73.57516218173271 1.063410917274726, 73.53863242013637 1.6323914404305815 C73.49192384444832 1.994653929815538, 73.44521526876028 2.3569164192004943, 73.39927781804565 2.7131982155674415 C73.32469328314892 3.0961740388151298, 73.25010874825219 3.479149862062818, 73.190962007091 3.782855877257343 C73.09971895212367 4.13080519083799, 73.00847589715632 4.478754504418638, 72.91454100162323 4.836968972727545 C72.82639706949809 5.1024444524601105, 72.73825313737292 5.367919932192676, 72.57115067484592 5.871205925162227 C72.45495157329651 6.158219952546056, 72.33875247174711 6.445233979929887, 72.16220209126881 6.881316833080694 C72.0188305388142 7.179030929412473, 71.8754589863596 7.476745025744252, 71.689375708341 7.863150934094196 C71.52760614867468 8.150389168225951, 71.36583658900837 8.437627402357705, 71.15461447109088 8.812673661278923 C70.97696164250037 9.085596112457972, 70.79930881390985 9.358518563637022, 70.56011582814826 9.725983222076879 C70.41379139528196 9.922044631687648, 70.26746696241567 10.118106041298416, 69.90832270195651 10.599326631598467 C69.68956581833591 10.856290914718521, 69.47080893471532 11.113255197838576, 69.20191345028037 11.42911513444238 C68.95601830893096 11.683022056252199, 68.71012316758156 11.936928978062017, 68.44379086025927 12.211938951661365 C68.13191568971878 12.495175729781412, 67.82004051917829 12.778412507901457, 67.63707022023242 12.944581292275275 C67.3764846275212 13.152391367988619, 67.11589903480998 13.360201443701962, 66.78506651835067 13.62403157175526 C66.49184940344891 13.828567137946408, 66.19863228854715 14.033102704137555, 65.89128082057934 14.247497783161286 C65.68100334498051 14.37496922459691, 65.47072586938167 14.502440666032536, 64.95938588406695 14.81241797009762 C64.60869211566623 14.995374684442192, 64.25799834726551 15.178331398786765, 63.99321106499849 15.316470754341124 C63.63058030759193 15.476996633585788, 63.26794955018537 15.637522512830452, 62.996726582949364 15.757584874882367 C62.59960351991702 15.903729833043624, 62.202480456884665 16.049874791204882, 61.97402720640156 16.133947699181363 C61.64285340414435 16.232238345324543, 61.31167960188714 16.330528991467723, 60.92931542646164 16.444012671663497 C60.57352772631711 16.525218892489764, 60.21774002617258 16.606425113316032, 59.86688418792333 16.68650566884811 C59.58440332977297 16.73217498332209, 59.30192247162261 16.777844297796065, 58.79109924863661 16.86043023499518 C58.400486967414935 16.898112131984636, 58.009874686193264 16.935794028974094, 57.70638123967212 16.965071676755716 C57.354841804545565 16.976344862210226, 57.00330236941901 16.987618047664732, 56.6171875 17 C56.6171875 17, 56.6171875 17, 56.6171875 17 C21.22019611313906 17, -14.17679527372188 17, -56.6171875 17 C-56.892604851266135 16.991167901612247, -57.16802220253227 16.982335803224494, -57.70638123967211 16.965071676755716 C-58.09761304591041 16.927330014932995, -58.4888448521487 16.889588353110273, -58.791099248636606 16.86043023499518 C-59.16592444650217 16.7998314038171, -59.54074964436773 16.73923257263902, -59.866884187923326 16.68650566884811 C-60.17588199573336 16.61597893561461, -60.48487980354339 16.545452202381107, -60.92931542646162 16.4440126716635 C-61.20296976846555 16.36279349939769, -61.47662411046947 16.281574327131878, -61.974027206401544 16.13394769918137 C-62.18681611500351 16.05563941381674, -62.399605023605474 15.977331128452107, -62.996726582949364 15.757584874882369 C-63.24606206002756 15.64721145545399, -63.49539753710575 15.53683803602561, -63.99321106499848 15.316470754341127 C-64.20729877798108 15.204781331607832, -64.42138649096368 15.093091908874534, -64.95938588406693 14.812417970097624 C-65.27722641957372 14.619741169635095, -65.59506695508051 14.427064369172568, -65.89128082057931 14.247497783161299 C-66.22163777395093 14.017055073411282, -66.55199472732255 13.786612363661263, -66.78506651835067 13.624031571755264 C-67.0241528261044 13.433366603675521, -67.26323913385812 13.242701635595779, -67.6370702202324 12.94458129227529 C-67.91115486652282 12.695664868396685, -68.18523951281323 12.446748444518079, -68.44379086025926 12.211938951661377 C-68.69656703336275 11.95092679962224, -68.94934320646627 11.689914647583102, -69.20191345028036 11.429115134442386 C-69.40019637441927 11.196200729130814, -69.59847929855819 10.963286323819244, -69.90832270195651 10.599326631598473 C-70.06410795211545 10.390588588713747, -70.21989320227438 10.181850545829022, -70.56011582814824 9.72598322207689 C-70.76204239735566 9.415769786898261, -70.96396896656309 9.105556351719635, -71.15461447109088 8.812673661278936 C-71.30596043359341 8.543943579415167, -71.45730639609593 8.275213497551396, -71.689375708341 7.863150934094201 C-71.81415832156688 7.604037167810471, -71.93894093479274 7.344923401526741, -72.16220209126881 6.881316833080701 C-72.25458766578555 6.653122677870792, -72.34697324030228 6.424928522660884, -72.57115067484592 5.87120592516224 C-72.65786022864025 5.610050564424997, -72.74456978243457 5.3488952036877535, -72.91454100162323 4.8369689727275516 C-73.01175051101639 4.4662669825435675, -73.10896002040954 4.095564992359583, -73.190962007091 3.782855877257349 C-73.24213716512728 3.520082256614573, -73.29331232316355 3.257308635971797, -73.39927781804565 2.713198215567455 C-73.42816624064571 2.489145314545611, -73.45705466324578 2.265092413523767, -73.53863242013637 1.6323914404306026 C-73.55507141110044 1.376340886850453, -73.57151040206452 1.1202903332703034, -73.6084531754117 0.54487681871814 C-73.6084531754117 0.1668321875240552, -73.6084531754117 -0.21121244367002956, -73.6084531754117 -0.5448768187181317 C-73.58540938684399 -0.9038024262713802, -73.5623655982763 -1.262728033824629, -73.53863242013637 -1.6323914404305793 C-73.48587150780669 -2.0415946576389876, -73.433110595477 -2.4507978748473955, -73.39927781804565 -2.713198215567447 C-73.32546863453081 -3.0921927733397143, -73.25165945101597 -3.471187331111982, -73.190962007091 -3.782855877257341 C-73.10404155600567 -4.114321228807513, -73.01712110492034 -4.445786580357685, -72.91454100162323 -4.836968972727544 C-72.80006837233043 -5.181742293420869, -72.68559574303762 -5.526515614114194, -72.57115067484594 -5.871205925162218 C-72.43812888221022 -6.199772324773817, -72.30510708957452 -6.528338724385416, -72.16220209126881 -6.881316833080692 C-72.05419086635122 -7.10560445269206, -71.94617964143363 -7.329892072303428, -71.689375708341 -7.863150934094194 C-71.58218142202415 -8.053485244048293, -71.4749871357073 -8.24381955400239, -71.15461447109088 -8.812673661278929 C-70.96327200965305 -9.10662706469259, -70.77192954821521 -9.400580468106252, -70.56011582814826 -9.725983222076884 C-70.42558552697997 -9.90624156967982, -70.29105522581169 -10.086499917282753, -69.90832270195651 -10.599326631598467 C-69.66968526263531 -10.87964374668012, -69.4310478233141 -11.159960861761775, -69.20191345028037 -11.42911513444238 C-69.02298406933423 -11.613874410644646, -68.8440546883881 -11.798633686846912, -68.44379086025927 -12.21193895166136 C-68.22575789530953 -12.409950721592585, -68.0077249303598 -12.60796249152381, -67.63707022023242 -12.944581292275274 C-67.30654792894352 -13.208164024010607, -66.97602563765463 -13.47174675574594, -66.78506651835067 -13.624031571755259 C-66.54024867679163 -13.794805900033294, -66.2954308352326 -13.965580228311328, -65.89128082057934 -14.247497783161284 C-65.53486174783613 -14.463561119609176, -65.17844267509294 -14.679624456057068, -64.95938588406695 -14.812417970097618 C-64.70844750551444 -14.943332361454761, -64.45750912696192 -15.074246752811902, -63.99321106499849 -15.316470754341124 C-63.74197938491895 -15.427683566589335, -63.49074770483941 -15.538896378837547, -62.99672658294937 -15.757584874882365 C-62.62736261275182 -15.893514230278178, -62.25799864255426 -16.02944358567399, -61.974027206401566 -16.133947699181363 C-61.57336725429917 -16.25286146985835, -61.17270730219677 -16.371775240535335, -60.92931542646164 -16.444012671663494 C-60.58020642902339 -16.523694522179664, -60.23109743158514 -16.60337637269583, -59.86688418792333 -16.68650566884811 C-59.44845475620654 -16.754154094399375, -59.03002532448975 -16.821802519950637, -58.79109924863661 -16.86043023499518 C-58.486435106908196 -16.889820818335483, -58.18177096517978 -16.919211401675785, -57.70638123967212 -16.965071676755716 C-57.27402074972537 -16.978936636129667, -56.84166025977862 -16.99280159550362, -56.61718750000001 -17 C-56.61718750000001 -17, -56.61718750000001 -17, -56.6171875 -17" stroke="none" stroke-width="0" fill="#2d2d2d" style=""></path><path d="M-56.6171875 -17 C-21.837851398244446 -17, 12.941484703511108 -17, 56.6171875 -17 M-56.6171875 -17 C-17.83968485502899 -17, 20.937817789942017 -17, 56.6171875 -17 M56.6171875 -17 C56.6171875 -17, 56.6171875 -17, 56.6171875 -17 M56.6171875 -17 C56.6171875 -17, 56.6171875 -17, 56.6171875 -17 M56.6171875 -17 C56.96876166846462 -16.988725700714944, 57.320335836929246 -16.97745140142989, 57.70638123967212 -16.965071676755716 M56.6171875 -17 C56.985167223142504 -16.988199606507898, 57.35314694628501 -16.9763992130158, 57.70638123967212 -16.965071676755716 M57.70638123967212 -16.965071676755716 C58.13596107091192 -16.923630627081348, 58.565540902151724 -16.88218957740698, 58.7910992486366 -16.860430234995185 M57.70638123967212 -16.965071676755716 C58.10636507081816 -16.926485717615996, 58.50634890196419 -16.887899758476276, 58.7910992486366 -16.860430234995185 M58.7910992486366 -16.860430234995185 C59.118364018032715 -16.807520605055412, 59.445628787428824 -16.754610975115643, 59.866884187923326 -16.686505668848113 M58.7910992486366 -16.860430234995185 C59.14197616242191 -16.803703176665483, 59.49285307620723 -16.746976118335777, 59.866884187923326 -16.686505668848113 M59.866884187923326 -16.686505668848113 C60.22266543328012 -16.60530092128502, 60.578446678636915 -16.524096173721933, 60.92931542646162 -16.4440126716635 M59.866884187923326 -16.686505668848113 C60.13229422898152 -16.625927558938958, 60.39770427003971 -16.565349449029803, 60.92931542646162 -16.4440126716635 M60.92931542646162 -16.4440126716635 C61.33108595244802 -16.324769288487264, 61.73285647843442 -16.205525905311028, 61.97402720640155 -16.133947699181366 M60.92931542646162 -16.4440126716635 C61.26768426417174 -16.34358657676541, 61.60605310188186 -16.24316048186732, 61.97402720640155 -16.133947699181366 M61.97402720640155 -16.133947699181366 C62.24253545806834 -16.03513418050492, 62.511043709735134 -15.93632066182847, 62.99672658294936 -15.757584874882369 M61.97402720640155 -16.133947699181366 C62.30522491477862 -16.012063880940552, 62.63642262315568 -15.890180062699734, 62.99672658294936 -15.757584874882369 M62.99672658294936 -15.757584874882369 C63.383204293585365 -15.586502656837764, 63.769682004221366 -15.41542043879316, 63.99321106499849 -15.316470754341125 M62.99672658294936 -15.757584874882369 C63.2469197180771 -15.646831795676977, 63.49711285320484 -15.536078716471588, 63.99321106499849 -15.316470754341125 M63.99321106499849 -15.316470754341125 C64.315115908687 -15.14853320357872, 64.6370207523755 -14.980595652816318, 64.95938588406693 -14.812417970097622 M63.99321106499849 -15.316470754341125 C64.26423080261766 -15.175079930821628, 64.53525054023683 -15.03368910730213, 64.95938588406693 -14.812417970097622 M64.95938588406693 -14.812417970097622 C65.19908053260531 -14.66711366555155, 65.43877518114368 -14.52180936100548, 65.89128082057933 -14.247497783161291 M64.95938588406693 -14.812417970097622 C65.25064752717095 -14.635853450404557, 65.54190917027499 -14.459288930711493, 65.89128082057933 -14.247497783161291 M65.89128082057933 -14.247497783161291 C66.146753135501 -14.0692913554902, 66.40222545042268 -13.891084927819108, 66.78506651835067 -13.624031571755262 M65.89128082057933 -14.247497783161291 C66.23798309289548 -14.005653286493024, 66.58468536521161 -13.763808789824756, 66.78506651835067 -13.624031571755262 M66.78506651835067 -13.624031571755262 C67.07576144641409 -13.392210102341608, 67.3664563744775 -13.160388632927951, 67.6370702202324 -12.944581292275288 M66.78506651835067 -13.624031571755262 C67.05217875060583 -13.411016674686795, 67.31929098286099 -13.198001777618327, 67.6370702202324 -12.944581292275288 M67.6370702202324 -12.944581292275288 C67.88552203305882 -12.718943929541073, 68.13397384588525 -12.493306566806858, 68.44379086025927 -12.21193895166137 M67.6370702202324 -12.944581292275288 C67.9378985720794 -12.671376942609864, 68.23872692392641 -12.39817259294444, 68.44379086025927 -12.21193895166137 M68.44379086025927 -12.21193895166137 C68.63329017465237 -12.016265351367435, 68.82278948904548 -11.8205917510735, 69.20191345028036 -11.42911513444239 M68.44379086025927 -12.21193895166137 C68.64917002238072 -11.999868104828181, 68.85454918450215 -11.787797257994992, 69.20191345028036 -11.42911513444239 M69.20191345028036 -11.42911513444239 C69.47598396335928 -11.107176314725903, 69.75005447643821 -10.785237495009415, 69.90832270195651 -10.59932663159847 M69.20191345028036 -11.42911513444239 C69.34999384155911 -11.2551714808334, 69.49807423283787 -11.081227827224412, 69.90832270195651 -10.59932663159847 M69.90832270195651 -10.59932663159847 C70.1029149802066 -10.338590706464585, 70.29750725845669 -10.077854781330698, 70.56011582814824 -9.725983222076888 M69.90832270195651 -10.59932663159847 C70.163267138936 -10.257724311961956, 70.41821157591549 -9.916121992325442, 70.56011582814824 -9.725983222076888 M70.56011582814824 -9.725983222076888 C70.74358532496232 -9.444124806512326, 70.92705482177641 -9.162266390947764, 71.15461447109088 -8.812673661278927 M70.56011582814824 -9.725983222076888 C70.75233027656904 -9.430690212496115, 70.94454472498983 -9.135397202915343, 71.15461447109088 -8.812673661278927 M71.15461447109088 -8.812673661278927 C71.29552583032292 -8.56247127414007, 71.43643718955495 -8.31226888700121, 71.689375708341 -7.863150934094199 M71.15461447109088 -8.812673661278927 C71.35972785199708 -8.448474083497938, 71.56484123290328 -8.08427450571695, 71.689375708341 -7.863150934094199 M71.689375708341 -7.863150934094199 C71.83090367720163 -7.569265078541689, 71.97243164606225 -7.275379222989179, 72.16220209126881 -6.881316833080699 M71.689375708341 -7.863150934094199 C71.81413586829862 -7.604083792502426, 71.93889602825624 -7.345016650910651, 72.16220209126881 -6.881316833080699 M72.16220209126881 -6.881316833080699 C72.29544202817597 -6.552211612901082, 72.42868196508313 -6.223106392721466, 72.57115067484592 -5.871205925162238 M72.16220209126881 -6.881316833080699 C72.26748484167344 -6.621266404077757, 72.37276759207808 -6.361215975074816, 72.57115067484592 -5.871205925162238 M72.57115067484592 -5.871205925162238 C72.6939520768849 -5.501347667967172, 72.81675347892389 -5.131489410772105, 72.91454100162323 -4.836968972727556 M72.57115067484592 -5.871205925162238 C72.66457071025232 -5.58983966297946, 72.75799074565872 -5.308473400796682, 72.91454100162323 -4.836968972727556 M72.91454100162323 -4.836968972727556 C72.9968955153845 -4.522915519083834, 73.07925002914575 -4.208862065440112, 73.190962007091 -3.7828558772573464 M72.91454100162323 -4.836968972727556 C73.0013673011852 -4.5058626617415385, 73.08819360074715 -4.17475635075552, 73.190962007091 -3.7828558772573464 M73.190962007091 -3.7828558772573464 C73.26707578921466 -3.3920276927059367, 73.3431895713383 -3.001199508154527, 73.39927781804565 -2.713198215567453 M73.190962007091 -3.7828558772573464 C73.27213494495788 -3.3660499972173916, 73.35330788282477 -2.949244117177437, 73.39927781804565 -2.713198215567453 M73.39927781804565 -2.713198215567453 C73.43511824716207 -2.4352269248337195, 73.4709586762785 -2.157255634099986, 73.53863242013637 -1.632391440430593 M73.39927781804565 -2.713198215567453 C73.44406691715999 -2.365822807444605, 73.48885601627434 -2.0184473993217567, 73.53863242013637 -1.632391440430593 M73.53863242013637 -1.632391440430593 C73.56590462835966 -1.2076047836225379, 73.59317683658296 -0.7828181268144829, 73.6084531754117 -0.5448768187181379 M73.53863242013637 -1.632391440430593 C73.5613410706947 -1.278685877891898, 73.58404972125301 -0.9249803153532027, 73.6084531754117 -0.5448768187181379 M73.6084531754117 -0.5448768187181379 C73.6084531754117 -0.1817312976419097, 73.6084531754117 0.18141422343431846, 73.6084531754117 0.5448768187181336 M73.6084531754117 -0.5448768187181379 C73.6084531754117 -0.15665328796516725, 73.6084531754117 0.23157024278780336, 73.6084531754117 0.5448768187181336 M73.6084531754117 0.5448768187181336 C73.5829845807208 0.9415707389084305, 73.5575159860299 1.3382646590987273, 73.53863242013637 1.6323914404305815 M73.6084531754117 0.5448768187181336 C73.59047424238081 0.8249132130078308, 73.5724953093499 1.104949607297528, 73.53863242013637 1.6323914404305815 M73.53863242013637 1.6323914404305815 C73.4965214587581 1.9589957411305992, 73.45441049737981 2.285600041830617, 73.39927781804565 2.7131982155674415 M73.53863242013637 1.6323914404305815 C73.48760979190193 2.0281128694593367, 73.43658716366748 2.4238342984880914, 73.39927781804565 2.7131982155674415 M73.39927781804565 2.7131982155674415 C73.33702368695428 3.032860021306332, 73.27476955586292 3.3525218270452233, 73.190962007091 3.782855877257343 M73.39927781804565 2.7131982155674415 C73.3541117264487 2.9451165500608947, 73.30894563485177 3.177034884554348, 73.190962007091 3.782855877257343 M73.190962007091 3.782855877257343 C73.11549822140873 4.07063199827545, 73.04003443572645 4.358408119293559, 72.91454100162323 4.836968972727545 M73.190962007091 3.782855877257343 C73.09637797501826 4.14354578452953, 73.00179394294551 4.504235691801717, 72.91454100162323 4.836968972727545 M72.91454100162323 4.836968972727545 C72.80214472420256 5.175488652403746, 72.68974844678189 5.514008332079947, 72.57115067484592 5.871205925162227 M72.91454100162323 4.836968972727545 C72.82677887201307 5.10129452411694, 72.7390167424029 5.365620075506334, 72.57115067484592 5.871205925162227 M72.57115067484592 5.871205925162227 C72.47284516902813 6.114022425139821, 72.37453966321034 6.356838925117416, 72.16220209126881 6.881316833080694 M72.57115067484592 5.871205925162227 C72.44880203499442 6.173409431045474, 72.32645339514292 6.475612936928723, 72.16220209126881 6.881316833080694 M72.16220209126881 6.881316833080694 C71.98498307468694 7.2493159128924525, 71.80776405810508 7.61731499270421, 71.689375708341 7.863150934094196 M72.16220209126881 6.881316833080694 C71.97335623613284 7.273459291924545, 71.78451038099686 7.665601750768396, 71.689375708341 7.863150934094196 M71.689375708341 7.863150934094196 C71.5339526468879 8.139120317995763, 71.37852958543478 8.415089701897331, 71.15461447109088 8.812673661278923 M71.689375708341 7.863150934094196 C71.5164171601081 8.170256350433858, 71.3434586118752 8.477361766773521, 71.15461447109088 8.812673661278923 M71.15461447109088 8.812673661278923 C70.97305059643993 9.091604529469707, 70.79148672178898 9.37053539766049, 70.56011582814826 9.725983222076879 M71.15461447109088 8.812673661278923 C70.98318656482462 9.07603296014221, 70.81175865855838 9.339392259005498, 70.56011582814826 9.725983222076879 M70.56011582814826 9.725983222076879 C70.37428529508047 9.974979206877872, 70.18845476201268 10.223975191678868, 69.90832270195651 10.599326631598467 M70.56011582814826 9.725983222076879 C70.3579263606806 9.99689868864413, 70.15573689321293 10.267814155211383, 69.90832270195651 10.599326631598467 M69.90832270195651 10.599326631598467 C69.64867072984599 10.904328612655236, 69.38901875773549 11.209330593712005, 69.20191345028037 11.42911513444238 M69.90832270195651 10.599326631598467 C69.64865067858396 10.904352166008566, 69.38897865521142 11.209377700418665, 69.20191345028037 11.42911513444238 M69.20191345028037 11.42911513444238 C68.92567653839271 11.714352425438634, 68.64943962650506 11.999589716434885, 68.44379086025927 12.211938951661365 M69.20191345028037 11.42911513444238 C68.92676925437004 11.713224106478393, 68.65162505845971 11.997333078514405, 68.44379086025927 12.211938951661365 M68.44379086025927 12.211938951661365 C68.25596639889244 12.382516157911796, 68.06814193752561 12.553093364162226, 67.63707022023242 12.944581292275275 M68.44379086025927 12.211938951661365 C68.19872034141007 12.43450551266961, 67.95364982256086 12.657072073677854, 67.63707022023242 12.944581292275275 M67.63707022023242 12.944581292275275 C67.31441855872566 13.201887406205604, 66.99176689721891 13.459193520135932, 66.78506651835067 13.62403157175526 M67.63707022023242 12.944581292275275 C67.43086580144097 13.109023828931413, 67.22466138264953 13.273466365587552, 66.78506651835067 13.62403157175526 M66.78506651835067 13.62403157175526 C66.57229165898222 13.772454102775484, 66.35951679961377 13.920876633795707, 65.89128082057934 14.247497783161286 M66.78506651835067 13.62403157175526 C66.53972971209758 13.795167907338248, 66.29439290584449 13.966304242921238, 65.89128082057934 14.247497783161286 M65.89128082057934 14.247497783161286 C65.65920445531681 14.388183839615538, 65.42712809005428 14.528869896069788, 64.95938588406695 14.81241797009762 M65.89128082057934 14.247497783161286 C65.58103405563644 14.435571195282035, 65.27078729069355 14.623644607402783, 64.95938588406695 14.81241797009762 M64.95938588406695 14.81241797009762 C64.71649454084132 14.939134228279098, 64.47360319761569 15.065850486460578, 63.99321106499849 15.316470754341124 M64.95938588406695 14.81241797009762 C64.73398213041541 14.93001096399963, 64.50857837676388 15.047603957901638, 63.99321106499849 15.316470754341124 M63.99321106499849 15.316470754341124 C63.787458216283426 15.40755143702588, 63.58170536756836 15.498632119710638, 62.996726582949364 15.757584874882367 M63.99321106499849 15.316470754341124 C63.79318807816542 15.405014997141036, 63.593165091332345 15.493559239940948, 62.996726582949364 15.757584874882367 M62.996726582949364 15.757584874882367 C62.75646063652144 15.846004964161905, 62.51619469009352 15.93442505344144, 61.97402720640156 16.133947699181363 M62.996726582949364 15.757584874882367 C62.677879008224444 15.874923729775809, 62.359031433499524 15.99226258466925, 61.97402720640156 16.133947699181363 M61.97402720640156 16.133947699181363 C61.731815858852194 16.205834755740707, 61.48960451130282 16.277721812300054, 60.92931542646164 16.444012671663497 M61.97402720640156 16.133947699181363 C61.58090159605268 16.25062531677447, 61.18777598570381 16.36730293436758, 60.92931542646164 16.444012671663497 M60.92931542646164 16.444012671663497 C60.526809610547936 16.535881997549883, 60.12430379463423 16.627751323436268, 59.86688418792333 16.68650566884811 M60.92931542646164 16.444012671663497 C60.70462334782514 16.495297172359436, 60.47993126918864 16.546581673055375, 59.86688418792333 16.68650566884811 M59.86688418792333 16.68650566884811 C59.644881056785415 16.722397413430492, 59.4228779256475 16.758289158012875, 58.79109924863661 16.86043023499518 M59.86688418792333 16.68650566884811 C59.52614266657806 16.74159411552925, 59.18540114523279 16.79668256221039, 58.79109924863661 16.86043023499518 M58.79109924863661 16.86043023499518 C58.44664256253575 16.89365955723356, 58.10218587643488 16.92688887947193, 57.70638123967212 16.965071676755716 M58.79109924863661 16.86043023499518 C58.55003400383086 16.88368550923822, 58.3089687590251 16.906940783481257, 57.70638123967212 16.965071676755716 M57.70638123967212 16.965071676755716 C57.285353253054915 16.97857322480527, 56.86432526643772 16.992074772854824, 56.6171875 17 M57.70638123967212 16.965071676755716 C57.28602530452643 16.978551673422647, 56.86566936938075 16.992031670089577, 56.6171875 17 M56.6171875 17 C56.6171875 17, 56.6171875 17, 56.6171875 17 M56.6171875 17 C56.6171875 17, 56.6171875 17, 56.6171875 17 M56.6171875 17 C22.494752462174326 17, -11.627682575651349 17, -56.6171875 17 M56.6171875 17 C12.87087517218579 17, -30.87543715562842 17, -56.6171875 17 M-56.6171875 17 C-56.98471531510049 16.988214098319222, -57.35224313020098 16.97642819663844, -57.70638123967211 16.965071676755716 M-56.6171875 17 C-56.861413871271196 16.992168135631125, -57.10564024254239 16.98433627126225, -57.70638123967211 16.965071676755716 M-57.70638123967211 16.965071676755716 C-57.96665255272394 16.939963616207656, -58.226923865775774 16.914855555659596, -58.791099248636606 16.86043023499518 M-57.70638123967211 16.965071676755716 C-58.09844372379689 16.92724988043632, -58.49050620792167 16.88942808411693, -58.791099248636606 16.86043023499518 M-58.791099248636606 16.86043023499518 C-59.16146582150997 16.800552239728685, -59.53183239438333 16.74067424446219, -59.866884187923326 16.68650566884811 M-58.791099248636606 16.86043023499518 C-59.13299471547449 16.805155227355776, -59.47489018231237 16.749880219716374, -59.866884187923326 16.68650566884811 M-59.866884187923326 16.68650566884811 C-60.17573566916989 16.61601233369785, -60.48458715041646 16.54551899854759, -60.92931542646162 16.4440126716635 M-59.866884187923326 16.68650566884811 C-60.20191002388347 16.6100382080381, -60.53693585984361 16.533570747228097, -60.92931542646162 16.4440126716635 M-60.92931542646162 16.4440126716635 C-61.33664300592851 16.323119984183826, -61.743970585395395 16.202227296704148, -61.974027206401544 16.13394769918137 M-60.92931542646162 16.4440126716635 C-61.21817458826418 16.358280788693182, -61.50703375006674 16.272548905722864, -61.974027206401544 16.13394769918137 M-61.974027206401544 16.13394769918137 C-62.26920408084198 16.025319880802172, -62.56438095528242 15.916692062422976, -62.996726582949364 15.757584874882369 M-61.974027206401544 16.13394769918137 C-62.29314041441661 16.016511088781666, -62.61225362243167 15.899074478381966, -62.996726582949364 15.757584874882369 M-62.996726582949364 15.757584874882369 C-63.39294743128065 15.582189658799972, -63.78916827961194 15.406794442717574, -63.99321106499848 15.316470754341127 M-62.996726582949364 15.757584874882369 C-63.2929341932973 15.626462552467908, -63.589141803645234 15.495340230053447, -63.99321106499848 15.316470754341127 M-63.99321106499848 15.316470754341127 C-64.21919808406723 15.198573471244556, -64.44518510313598 15.080676188147983, -64.95938588406693 14.812417970097624 M-63.99321106499848 15.316470754341127 C-64.34439925374387 15.133256101219425, -64.69558744248927 14.950041448097723, -64.95938588406693 14.812417970097624 M-64.95938588406693 14.812417970097624 C-65.1549065178656 14.693892212882092, -65.35042715166426 14.57536645566656, -65.89128082057931 14.247497783161299 M-64.95938588406693 14.812417970097624 C-65.32365530171933 14.59159570843203, -65.68792471937172 14.370773446766437, -65.89128082057931 14.247497783161299 M-65.89128082057931 14.247497783161299 C-66.1239891448293 14.08517052994551, -66.35669746907928 13.92284327672972, -66.78506651835067 13.624031571755264 M-65.89128082057931 14.247497783161299 C-66.21564532058959 14.021235149467028, -66.54000982059986 13.794972515772757, -66.78506651835067 13.624031571755264 M-66.78506651835067 13.624031571755264 C-66.99749668040589 13.454624170520253, -67.2099268424611 13.285216769285244, -67.6370702202324 12.94458129227529 M-66.78506651835067 13.624031571755264 C-66.97722895568073 13.470787141641766, -67.16939139301078 13.317542711528267, -67.6370702202324 12.94458129227529 M-67.6370702202324 12.94458129227529 C-67.91907368737894 12.688473204815669, -68.20107715452548 12.432365117356047, -68.44379086025926 12.211938951661377 M-67.6370702202324 12.94458129227529 C-67.95750232039806 12.653573337073613, -68.27793442056372 12.362565381871935, -68.44379086025926 12.211938951661377 M-68.44379086025926 12.211938951661377 C-68.72852821599939 11.917924254488023, -69.01326557173952 11.623909557314668, -69.20191345028036 11.429115134442386 M-68.44379086025926 12.211938951661377 C-68.6650178740071 11.983503896891108, -68.88624488775496 11.755068842120837, -69.20191345028036 11.429115134442386 M-69.20191345028036 11.429115134442386 C-69.39287298810639 11.204803195406418, -69.58383252593241 10.98049125637045, -69.90832270195651 10.599326631598473 M-69.20191345028036 11.429115134442386 C-69.35432146176386 11.250088011892336, -69.50672947324736 11.071060889342286, -69.90832270195651 10.599326631598473 M-69.90832270195651 10.599326631598473 C-70.13121757695218 10.300667805245114, -70.35411245194786 10.002008978891755, -70.56011582814824 9.72598322207689 M-69.90832270195651 10.599326631598473 C-70.06020849432721 10.395813506902066, -70.21209428669792 10.192300382205659, -70.56011582814824 9.72598322207689 M-70.56011582814824 9.72598322207689 C-70.77974539057384 9.388573235395867, -70.99937495299942 9.051163248714847, -71.15461447109088 8.812673661278936 M-70.56011582814824 9.72598322207689 C-70.6994949815945 9.511859413840247, -70.83887413504075 9.297735605603604, -71.15461447109088 8.812673661278936 M-71.15461447109088 8.812673661278936 C-71.34838753416446 8.468609966141468, -71.54216059723804 8.124546271004002, -71.689375708341 7.863150934094201 M-71.15461447109088 8.812673661278936 C-71.29509049315398 8.5632442593662, -71.43556651521708 8.313814857453465, -71.689375708341 7.863150934094201 M-71.689375708341 7.863150934094201 C-71.8503430335122 7.528898839227182, -72.0113103586834 7.194646744360162, -72.16220209126881 6.881316833080701 M-71.689375708341 7.863150934094201 C-71.80229911573736 7.628663062461812, -71.91522252313372 7.394175190829423, -72.16220209126881 6.881316833080701 M-72.16220209126881 6.881316833080701 C-72.30221910860824 6.5354720932074235, -72.44223612594769 6.189627353334146, -72.57115067484592 5.87120592516224 M-72.16220209126881 6.881316833080701 C-72.2670955753598 6.622227899398394, -72.3719890594508 6.363138965716086, -72.57115067484592 5.87120592516224 M-72.57115067484592 5.87120592516224 C-72.6480175589518 5.639695117310121, -72.72488444305769 5.408184309458002, -72.91454100162323 4.8369689727275516 M-72.57115067484592 5.87120592516224 C-72.69521345520677 5.497548597435051, -72.81927623556761 5.123891269707862, -72.91454100162323 4.8369689727275516 M-72.91454100162323 4.8369689727275516 C-72.98082026488169 4.58421741630869, -73.04709952814012 4.331465859889829, -73.190962007091 3.782855877257349 M-72.91454100162323 4.8369689727275516 C-72.99315945472503 4.537162737597294, -73.07177790782683 4.237356502467036, -73.190962007091 3.782855877257349 M-73.190962007091 3.782855877257349 C-73.24920754538965 3.4837773482926475, -73.3074530836883 3.184698819327946, -73.39927781804565 2.713198215567455 M-73.190962007091 3.782855877257349 C-73.23782255121641 3.5422368871529133, -73.2846830953418 3.3016178970484775, -73.39927781804565 2.713198215567455 M-73.39927781804565 2.713198215567455 C-73.44895604781863 2.3279036755243165, -73.4986342775916 1.9426091354811779, -73.53863242013637 1.6323914404306026 M-73.39927781804565 2.713198215567455 C-73.4543003936071 2.286453984949366, -73.50932296916855 1.8597097543312762, -73.53863242013637 1.6323914404306026 M-73.53863242013637 1.6323914404306026 C-73.55690756088434 1.3477413718527824, -73.57518270163231 1.063091303274962, -73.6084531754117 0.54487681871814 M-73.53863242013637 1.6323914404306026 C-73.55296789272806 1.409104883429762, -73.56730336531976 1.1858183264289215, -73.6084531754117 0.54487681871814 M-73.6084531754117 0.54487681871814 C-73.6084531754117 0.20246001060067964, -73.6084531754117 -0.1399567975167807, -73.6084531754117 -0.5448768187181317 M-73.6084531754117 0.54487681871814 C-73.6084531754117 0.21748843179642846, -73.6084531754117 -0.10989995512528306, -73.6084531754117 -0.5448768187181317 M-73.6084531754117 -0.5448768187181317 C-73.5806913773472 -0.9772892324929019, -73.55292957928268 -1.4097016462676721, -73.53863242013637 -1.6323914404305793 M-73.6084531754117 -0.5448768187181317 C-73.5918704156939 -0.8031666866854918, -73.57528765597611 -1.0614565546528518, -73.53863242013637 -1.6323914404305793 M-73.53863242013637 -1.6323914404305793 C-73.49905219653212 -1.9393678387059388, -73.45947197292787 -2.2463442369812983, -73.39927781804565 -2.713198215567447 M-73.53863242013637 -1.6323914404305793 C-73.50847589334393 -1.8662795071529548, -73.47831936655149 -2.1001675738753303, -73.39927781804565 -2.713198215567447 M-73.39927781804565 -2.713198215567447 C-73.3230628604239 -3.104545914918094, -73.24684790280217 -3.495893614268741, -73.190962007091 -3.782855877257341 M-73.39927781804565 -2.713198215567447 C-73.32611822475891 -3.0888572648092776, -73.2529586314722 -3.4645163140511084, -73.190962007091 -3.782855877257341 M-73.190962007091 -3.782855877257341 C-73.08892775111732 -4.171956717211267, -72.98689349514363 -4.561057557165194, -72.91454100162323 -4.836968972727544 M-73.190962007091 -3.782855877257341 C-73.12490813780897 -4.03474790875776, -73.05885426852694 -4.286639940258179, -72.91454100162323 -4.836968972727544 M-72.91454100162323 -4.836968972727544 C-72.8353722773247 -5.075412556491512, -72.75620355302617 -5.31385614025548, -72.57115067484594 -5.871205925162218 M-72.91454100162323 -4.836968972727544 C-72.82099098561679 -5.118726715768091, -72.72744096961033 -5.400484458808638, -72.57115067484594 -5.871205925162218 M-72.57115067484594 -5.871205925162218 C-72.45932907635614 -6.147407435355542, -72.34750747786634 -6.4236089455488665, -72.16220209126881 -6.881316833080692 M-72.57115067484594 -5.871205925162218 C-72.47949078810758 -6.097607617529293, -72.38783090136924 -6.324009309896368, -72.16220209126881 -6.881316833080692 M-72.16220209126881 -6.881316833080692 C-72.02617008819766 -7.163790198076541, -71.8901380851265 -7.446263563072388, -71.689375708341 -7.863150934094194 M-72.16220209126881 -6.881316833080692 C-72.06369179703783 -7.08587556683394, -71.96518150280687 -7.290434300587188, -71.689375708341 -7.863150934094194 M-71.689375708341 -7.863150934094194 C-71.55041195344778 -8.109895152513173, -71.41144819855455 -8.356639370932152, -71.15461447109088 -8.812673661278929 M-71.689375708341 -7.863150934094194 C-71.48221365534611 -8.230988136619207, -71.27505160235121 -8.598825339144218, -71.15461447109088 -8.812673661278929 M-71.15461447109088 -8.812673661278929 C-70.99071028634341 -9.064474503487242, -70.82680610159595 -9.316275345695553, -70.56011582814826 -9.725983222076884 M-71.15461447109088 -8.812673661278929 C-70.95362044113546 -9.121454465744652, -70.75262641118002 -9.430235270210375, -70.56011582814826 -9.725983222076884 M-70.56011582814826 -9.725983222076884 C-70.38934440844515 -9.954801366882656, -70.21857298874205 -10.183619511688427, -69.90832270195651 -10.599326631598467 M-70.56011582814826 -9.725983222076884 C-70.30206575983688 -10.071746804769283, -70.0440156915255 -10.417510387461682, -69.90832270195651 -10.599326631598467 M-69.90832270195651 -10.599326631598467 C-69.74994993576468 -10.785360294433074, -69.59157716957286 -10.97139395726768, -69.20191345028037 -11.42911513444238 M-69.90832270195651 -10.599326631598467 C-69.68915584452449 -10.856772493285582, -69.46998898709249 -11.114218354972698, -69.20191345028037 -11.42911513444238 M-69.20191345028037 -11.42911513444238 C-69.01743692094209 -11.61960229678889, -68.83296039160379 -11.810089459135401, -68.44379086025927 -12.21193895166136 M-69.20191345028037 -11.42911513444238 C-68.92043378683982 -11.719765996854905, -68.63895412339926 -12.010416859267428, -68.44379086025927 -12.21193895166136 M-68.44379086025927 -12.21193895166136 C-68.18491043540782 -12.447047303910756, -67.92603001055637 -12.682155656160152, -67.63707022023242 -12.944581292275274 M-68.44379086025927 -12.21193895166136 C-68.17088731493887 -12.459782730889222, -67.89798376961846 -12.707626510117086, -67.63707022023242 -12.944581292275274 M-67.63707022023242 -12.944581292275274 C-67.36618867651327 -13.160602114930672, -67.09530713279413 -13.37662293758607, -66.78506651835067 -13.624031571755259 M-67.63707022023242 -12.944581292275274 C-67.40126036234778 -13.132633378774406, -67.16545050446317 -13.320685465273536, -66.78506651835067 -13.624031571755259 M-66.78506651835067 -13.624031571755259 C-66.45774837358258 -13.852354540171367, -66.13043022881449 -14.080677508587474, -65.89128082057934 -14.247497783161284 M-66.78506651835067 -13.624031571755259 C-66.45380713179252 -13.855103779830506, -66.12254774523437 -14.08617598790575, -65.89128082057934 -14.247497783161284 M-65.89128082057934 -14.247497783161284 C-65.68140519074989 -14.374725623329999, -65.47152956092044 -14.501953463498714, -64.95938588406695 -14.812417970097618 M-65.89128082057934 -14.247497783161284 C-65.66320949629831 -14.38575596023632, -65.43513817201728 -14.524014137311354, -64.95938588406695 -14.812417970097618 M-64.95938588406695 -14.812417970097618 C-64.74279005656781 -14.925415874567667, -64.52619422906868 -15.038413779037718, -63.99321106499849 -15.316470754341124 M-64.95938588406695 -14.812417970097618 C-64.65514641636486 -14.971139505523116, -64.35090694866278 -15.129861040948612, -63.99321106499849 -15.316470754341124 M-63.99321106499849 -15.316470754341124 C-63.748292214608824 -15.424889064149067, -63.50337336421916 -15.533307373957012, -62.99672658294937 -15.757584874882365 M-63.99321106499849 -15.316470754341124 C-63.65635293683368 -15.46558785513835, -63.319494808668864 -15.614704955935578, -62.99672658294937 -15.757584874882365 M-62.99672658294937 -15.757584874882365 C-62.609455334883634 -15.90010427406673, -62.2221840868179 -16.042623673251097, -61.974027206401566 -16.133947699181363 M-62.99672658294937 -15.757584874882365 C-62.5965032969204 -15.904870743764526, -62.19628001089144 -16.052156612646687, -61.974027206401566 -16.133947699181363 M-61.974027206401566 -16.133947699181363 C-61.58728493831791 -16.248730774297, -61.20054267023424 -16.36351384941264, -60.92931542646164 -16.444012671663494 M-61.974027206401566 -16.133947699181363 C-61.74965898091007 -16.20053901077439, -61.52529075541858 -16.267130322367414, -60.92931542646164 -16.444012671663494 M-60.92931542646164 -16.444012671663494 C-60.552027554465724 -16.53012616641311, -60.174739682469806 -16.616239661162723, -59.86688418792333 -16.68650566884811 M-60.92931542646164 -16.444012671663494 C-60.6395468858307 -16.510150450146064, -60.34977834519975 -16.576288228628634, -59.86688418792333 -16.68650566884811 M-59.86688418792333 -16.68650566884811 C-59.61804782617435 -16.72673560206088, -59.36921146442536 -16.76696553527365, -58.79109924863661 -16.86043023499518 M-59.86688418792333 -16.68650566884811 C-59.52801512284793 -16.74129139132065, -59.18914605777253 -16.796077113793192, -58.79109924863661 -16.86043023499518 M-58.79109924863661 -16.86043023499518 C-58.54815294911167 -16.88386697232468, -58.30520664958672 -16.907303709654176, -57.70638123967212 -16.965071676755716 M-58.79109924863661 -16.86043023499518 C-58.558844971920806 -16.88283552574332, -58.326590695205 -16.90524081649146, -57.70638123967212 -16.965071676755716 M-57.70638123967212 -16.965071676755716 C-57.41230800590997 -16.974502032983644, -57.118234772147815 -16.98393238921157, -56.61718750000001 -17 M-57.70638123967212 -16.965071676755716 C-57.31618034163835 -16.977584660075685, -56.92597944360458 -16.990097643395657, -56.61718750000001 -17 M-56.61718750000001 -17 C-56.61718750000001 -17, -56.6171875 -17, -56.6171875 -17 M-56.61718750000001 -17 C-56.61718750000001 -17, -56.6171875 -17, -56.6171875 -17" stroke="#555555" stroke-width="1.3" fill="none" stroke-dasharray="0 0" style=""></path></g><g class="label" style="" transform="translate(0, -9.5)"><rect></rect><g><rect class="background" style="stroke: none"></rect><text y="-10.1" style=""><tspan class="text-outer-tspan row" x="0" y="-0.1em" dy="1.1em"><tspan font-style="normal" class="text-inner-tspan" font-weight="normal">Pick</tspan><tspan font-style="normal" class="text-inner-tspan" font-weight="normal"> coordination</tspan></tspan></text></g></g></g><g class="node default" id="g2979287a-6211-4528-9590-1133263b277d-dark-flowchart-Q1-1" data-look="classic" transform="translate(553.91796875, 160.6171875)"><polygon points="68.6171875,0 137.234375,-68.6171875 68.6171875,-137.234375 0,-68.6171875" class="label-container" transform="translate(-68.1171875, 68.6171875)"></polygon><g class="label" style="" transform="translate(0, -9.5)"><rect></rect><g><rect class="background" style="stroke: none"></rect><text y="-10.1" style=""><tspan class="text-outer-tspan row" x="0" y="-0.1em" dy="1.1em"><tspan font-style="normal" class="text-inner-tspan" font-weight="normal">Throughput?</tspan></tspan></text></g></g></g><g class="node default" id="g2979287a-6211-4528-9590-1133263b277d-dark-flowchart-Q2-3" data-look="classic" transform="translate(202.75, 389.0890579223633)"><polygon points="76.94843673706055,0 153.8968734741211,-76.94843673706055 76.94843673706055,-153.8968734741211 0,-76.94843673706055" class="label-container" transform="translate(-76.44843673706055, 76.94843673706055)"></polygon><g class="label" style="" transform="translate(0, -18.299999237060547)"><rect></rect><g><rect class="background" style="stroke: none"></rect><text y="-10.1" style=""><tspan class="text-outer-tspan row" x="0" y="-0.1em" dy="1.1em"><tspan font-style="normal" class="text-inner-tspan" font-weight="normal">Strict</tspan><tspan font-style="normal" class="text-inner-tspan" font-weight="normal"> global</tspan></tspan><tspan class="text-outer-tspan row" x="0" y="1em" dy="1.1em"><tspan font-style="normal" class="text-inner-tspan" font-weight="normal">ordering?</tspan></tspan></text></g></g></g><g class="node default" id="g2979287a-6211-4528-9590-1133263b277d-dark-flowchart-Q3-5" data-look="classic" transform="translate(553.91796875, 389.0890579223633)"><polygon points="82.9140625,0 165.828125,-82.9140625 82.9140625,-165.828125 0,-82.9140625" class="label-container" transform="translate(-82.4140625, 82.9140625)"></polygon><g class="label" style="" transform="translate(0, -9.5)"><rect></rect><g><rect class="background" style="stroke: none"></rect><text y="-10.1" style=""><tspan class="text-outer-tspan row" x="0" y="-0.1em" dy="1.1em"><tspan font-style="normal" class="text-inner-tspan" font-weight="normal">Affinity</tspan><tspan font-style="normal" class="text-inner-tspan" font-weight="normal"> needed?</tspan></tspan></text></g></g></g><g class="node default" id="g2979287a-6211-4528-9590-1133263b277d-dark-flowchart-Q4-7" data-look="classic" transform="translate(971.51953125, 389.0890579223633)"><polygon points="86.85468673706055,0 173.7093734741211,-86.85468673706055 86.85468673706055,-173.7093734741211 0,-86.85468673706055" class="label-container" transform="translate(-86.35468673706055, 86.85468673706055)"></polygon><g class="label" style="" transform="translate(0, -18.299999237060547)"><rect></rect><g><rect class="background" style="stroke: none"></rect><text y="-10.1" style=""><tspan class="text-outer-tspan row" x="0" y="-0.1em" dy="1.1em"><tspan font-style="normal" class="text-inner-tspan" font-weight="normal">Heterogeneous</tspan></tspan><tspan class="text-outer-tspan row" x="0" y="1em" dy="1.1em"><tspan font-style="normal" class="text-inner-tspan" font-weight="normal">workers?</tspan></tspan></text></g></g></g><g class="node default pick" id="g2979287a-6211-4528-9590-1133263b277d-dark-flowchart-LEADER-9" data-look="classic" transform="translate(96, 582.2437400817871)"><rect class="basic label-container" style="fill:#2e532c !important;stroke:#82b366 !important" x="-88" y="-33.29999923706055" width="176" height="66.5999984741211"></rect><g class="label" style="color:#000 !important" transform="translate(0, -18.299999237060547)"><rect></rect><g><rect class="background" style="stroke: none"></rect><text y="-10.1" style="fill:#000 !important"><tspan class="text-outer-tspan row" x="0" y="-0.1em" dy="1.1em"><tspan font-style="normal" class="text-inner-tspan" font-weight="normal">Leader</tspan><tspan font-style="normal" class="text-inner-tspan" font-weight="normal"> election</tspan></tspan><tspan class="text-outer-tspan row" x="0" y="1em" dy="1.1em"><tspan font-style="normal" class="text-inner-tspan" font-weight="normal">Raft</tspan><tspan font-style="normal" class="text-inner-tspan" font-weight="normal"> /</tspan><tspan font-style="normal" class="text-inner-tspan" font-weight="normal"> etcd</tspan><tspan font-style="normal" class="text-inner-tspan" font-weight="normal"> /</tspan><tspan font-style="normal" class="text-inner-tspan" font-weight="normal"> ZK</tspan></tspan></text></g></g></g><g class="node default pick" id="g2979287a-6211-4528-9590-1133263b277d-dark-flowchart-LOCKS-11" data-look="classic" transform="translate(309.5, 582.2437400817871)"><rect class="basic label-container" style="fill:#2e532c !important;stroke:#82b366 !important" x="-75.5" y="-33.29999923706055" width="151" height="66.5999984741211"></rect><g class="label" style="color:#000 !important" transform="translate(0, -18.299999237060547)"><rect></rect><g><rect class="background" style="stroke: none"></rect><text y="-10.1" style="fill:#000 !important"><tspan class="text-outer-tspan row" x="0" y="-0.1em" dy="1.1em"><tspan font-style="normal" class="text-inner-tspan" font-weight="normal">DB</tspan><tspan font-style="normal" class="text-inner-tspan" font-weight="normal"> row</tspan><tspan font-style="normal" class="text-inner-tspan" font-weight="normal"> locks</tspan></tspan><tspan class="text-outer-tspan row" x="0" y="1em" dy="1.1em"><tspan font-style="normal" class="text-inner-tspan" font-weight="normal">SKIP</tspan><tspan font-style="normal" class="text-inner-tspan" font-weight="normal"> LOCKED</tspan></tspan></text></g></g></g><g class="node default pick" id="g2979287a-6211-4528-9590-1133263b277d-dark-flowchart-HASH-13" data-look="classic" transform="translate(531.5546875, 582.2437400817871)"><rect class="basic label-container" style="fill:#2e532c !important;stroke:#82b366 !important" x="-96.5546875" y="-24.5" width="193.109375" height="49"></rect><g class="label" style="color:#000 !important" transform="translate(0, -9.5)"><rect></rect><g><rect class="background" style="stroke: none"></rect><text y="-10.1" style="fill:#000 !important"><tspan class="text-outer-tspan row" x="0" y="-0.1em" dy="1.1em"><tspan font-style="normal" class="text-inner-tspan" font-weight="normal">Consistent</tspan><tspan font-style="normal" class="text-inner-tspan" font-weight="normal"> hashing</tspan></tspan></text></g></g></g><g class="node default pick" id="g2979287a-6211-4528-9590-1133263b277d-dark-flowchart-BROKER-15" data-look="classic" transform="translate(771.84375, 582.2437400817871)"><rect class="basic label-container" style="fill:#2e532c !important;stroke:#82b366 !important" x="-93.734375" y="-33.29999923706055" width="187.46875" height="66.5999984741211"></rect><g class="label" style="color:#000 !important" transform="translate(0, -18.299999237060547)"><rect></rect><g><rect class="background" style="stroke: none"></rect><text y="-10.1" style="fill:#000 !important"><tspan class="text-outer-tspan row" x="0" y="-0.1em" dy="1.1em"><tspan font-style="normal" class="text-inner-tspan" font-weight="normal">Broker</tspan><tspan font-style="normal" class="text-inner-tspan" font-weight="normal"> pull</tspan><tspan font-style="normal" class="text-inner-tspan" font-weight="normal"> queue</tspan></tspan><tspan class="text-outer-tspan row" x="0" y="1em" dy="1.1em"><tspan font-style="normal" class="text-inner-tspan" font-weight="normal">Kafka</tspan><tspan font-style="normal" class="text-inner-tspan" font-weight="normal"> /</tspan><tspan font-style="normal" class="text-inner-tspan" font-weight="normal"> NATS</tspan></tspan></text></g></g></g><g class="node default pick" id="g2979287a-6211-4528-9590-1133263b277d-dark-flowchart-STEAL-17" data-look="classic" transform="translate(993.8828125, 582.2437400817871)"><rect class="basic label-container" style="fill:#2e532c !important;stroke:#82b366 !important" x="-78.3046875" y="-24.5" width="156.609375" height="49"></rect><g class="label" style="color:#000 !important" transform="translate(0, -9.5)"><rect></rect><g><rect class="background" style="stroke: none"></rect><text y="-10.1" style="fill:#000 !important"><tspan class="text-outer-tspan row" x="0" y="-0.1em" dy="1.1em"><tspan font-style="normal" class="text-inner-tspan" font-weight="normal">Work</tspan><tspan font-style="normal" class="text-inner-tspan" font-weight="normal"> stealing</tspan></tspan></text></g></g></g></g></g></g><defs><filter id="g2979287a-6211-4528-9590-1133263b277d-dark-drop-shadow" height="130%" width="130%"><feDropShadow dx="4" dy="4" stdDeviation="0" flood-opacity="0.06" flood-color="#000000"></feDropShadow></filter></defs><defs><filter id="g2979287a-6211-4528-9590-1133263b277d-dark-drop-shadow-small" height="150%" width="150%"><feDropShadow dx="2" dy="2" stdDeviation="0" flood-opacity="0.06" flood-color="#000000"></feDropShadow></filter></defs><linearGradient id="g2979287a-6211-4528-9590-1133263b277d-dark-gradient" gradientUnits="objectBoundingBox" x1="0%" y1="0%" x2="100%" y2="0%"><stop offset="0%" stop-color="#555555" stop-opacity="1"></stop><stop offset="100%" stop-color="#555555" stop-opacity="1"></stop></linearGradient></svg>