<svg id="g4fdc2472-9493-4a5b-a0ca-e9e58ddd89fc-light" width="100%" xmlns="http://www.w3.org/2000/svg" xmlns:xlink="http://www.w3.org/1999/xlink" class="flowchart" style="max-width: 772.5252075195312px;" viewBox="0 0 772.5252075195312 961.0308227539062" role="graphics-document document" aria-roledescription="flowchart-v2"><style>#g4fdc2472-9493-4a5b-a0ca-e9e58ddd89fc-light{font-family:"trebuchet ms",verdana,arial,sans-serif;font-size:16px;fill:#333;}@keyframes edge-animation-frame{from{stroke-dashoffset:0;}}@keyframes dash{to{stroke-dashoffset:0;}}#g4fdc2472-9493-4a5b-a0ca-e9e58ddd89fc-light .edge-animation-slow{stroke-dasharray:9,5!important;stroke-dashoffset:900;animation:dash 50s linear infinite;stroke-linecap:round;}#g4fdc2472-9493-4a5b-a0ca-e9e58ddd89fc-light .edge-animation-fast{stroke-dasharray:9,5!important;stroke-dashoffset:900;animation:dash 20s linear infinite;stroke-linecap:round;}#g4fdc2472-9493-4a5b-a0ca-e9e58ddd89fc-light .error-icon{fill:#552222;}#g4fdc2472-9493-4a5b-a0ca-e9e58ddd89fc-light .error-text{fill:#552222;stroke:#552222;}#g4fdc2472-9493-4a5b-a0ca-e9e58ddd89fc-light .edge-thickness-normal{stroke-width:1px;}#g4fdc2472-9493-4a5b-a0ca-e9e58ddd89fc-light .edge-thickness-thick{stroke-width:3.5px;}#g4fdc2472-9493-4a5b-a0ca-e9e58ddd89fc-light .edge-pattern-solid{stroke-dasharray:0;}#g4fdc2472-9493-4a5b-a0ca-e9e58ddd89fc-light .edge-thickness-invisible{stroke-width:0;fill:none;}#g4fdc2472-9493-4a5b-a0ca-e9e58ddd89fc-light .edge-pattern-dashed{stroke-dasharray:3;}#g4fdc2472-9493-4a5b-a0ca-e9e58ddd89fc-light .edge-pattern-dotted{stroke-dasharray:2;}#g4fdc2472-9493-4a5b-a0ca-e9e58ddd89fc-light .marker{fill:#333333;stroke:#333333;}#g4fdc2472-9493-4a5b-a0ca-e9e58ddd89fc-light .marker.cross{stroke:#333333;}#g4fdc2472-9493-4a5b-a0ca-e9e58ddd89fc-light svg{font-family:"trebuchet ms",verdana,arial,sans-serif;font-size:16px;}#g4fdc2472-9493-4a5b-a0ca-e9e58ddd89fc-light p{margin:0;}#g4fdc2472-9493-4a5b-a0ca-e9e58ddd89fc-light .label{font-family:"trebuchet ms",verdana,arial,sans-serif;color:#333;}#g4fdc2472-9493-4a5b-a0ca-e9e58ddd89fc-light .cluster-label text{fill:#333;}#g4fdc2472-9493-4a5b-a0ca-e9e58ddd89fc-light .cluster-label span{color:#333;}#g4fdc2472-9493-4a5b-a0ca-e9e58ddd89fc-light .cluster-label span p{background-color:transparent;}#g4fdc2472-9493-4a5b-a0ca-e9e58ddd89fc-light .label text,#g4fdc2472-9493-4a5b-a0ca-e9e58ddd89fc-light span{fill:#333;color:#333;}#g4fdc2472-9493-4a5b-a0ca-e9e58ddd89fc-light .node rect,#g4fdc2472-9493-4a5b-a0ca-e9e58ddd89fc-light .node circle,#g4fdc2472-9493-4a5b-a0ca-e9e58ddd89fc-light .node ellipse,#g4fdc2472-9493-4a5b-a0ca-e9e58ddd89fc-light .node polygon,#g4fdc2472-9493-4a5b-a0ca-e9e58ddd89fc-light .node path{fill:#ECECFF;stroke:#9370DB;stroke-width:1px;}#g4fdc2472-9493-4a5b-a0ca-e9e58ddd89fc-light .rough-node .label text,#g4fdc2472-9493-4a5b-a0ca-e9e58ddd89fc-light .node .label text,#g4fdc2472-9493-4a5b-a0ca-e9e58ddd89fc-light .image-shape .label,#g4fdc2472-9493-4a5b-a0ca-e9e58ddd89fc-light .icon-shape .label{text-anchor:middle;}#g4fdc2472-9493-4a5b-a0ca-e9e58ddd89fc-light .node .katex path{fill:#000;stroke:#000;stroke-width:1px;}#g4fdc2472-9493-4a5b-a0ca-e9e58ddd89fc-light .rough-node .label,#g4fdc2472-9493-4a5b-a0ca-e9e58ddd89fc-light .node .label,#g4fdc2472-9493-4a5b-a0ca-e9e58ddd89fc-light .image-shape .label,#g4fdc2472-9493-4a5b-a0ca-e9e58ddd89fc-light .icon-shape .label{text-align:center;}#g4fdc2472-9493-4a5b-a0ca-e9e58ddd89fc-light .node.clickable{cursor:pointer;}#g4fdc2472-9493-4a5b-a0ca-e9e58ddd89fc-light .root .anchor path{fill:#333333!important;stroke-width:0;stroke:#333333;}#g4fdc2472-9493-4a5b-a0ca-e9e58ddd89fc-light .arrowheadPath{fill:#333333;}#g4fdc2472-9493-4a5b-a0ca-e9e58ddd89fc-light .edgePath .path{stroke:#333333;stroke-width:1px;}#g4fdc2472-9493-4a5b-a0ca-e9e58ddd89fc-light .flowchart-link{stroke:#333333;fill:none;}#g4fdc2472-9493-4a5b-a0ca-e9e58ddd89fc-light .edgeLabel{background-color:rgba(232,232,232, 0.8);text-align:center;}#g4fdc2472-9493-4a5b-a0ca-e9e58ddd89fc-light .edgeLabel p{background-color:rgba(232,232,232, 0.8);}#g4fdc2472-9493-4a5b-a0ca-e9e58ddd89fc-light .edgeLabel rect{opacity:0.5;background-color:rgba(232,232,232, 0.8);fill:rgba(232,232,232, 0.8);}#g4fdc2472-9493-4a5b-a0ca-e9e58ddd89fc-light .labelBkg{background-color:rgba(232, 232, 232, 0.5);}#g4fdc2472-9493-4a5b-a0ca-e9e58ddd89fc-light .cluster rect{fill:#ffffde;stroke:#aaaa33;stroke-width:1px;}#g4fdc2472-9493-4a5b-a0ca-e9e58ddd89fc-light .cluster text{fill:#333;}#g4fdc2472-9493-4a5b-a0ca-e9e58ddd89fc-light .cluster span{color:#333;}#g4fdc2472-9493-4a5b-a0ca-e9e58ddd89fc-light div.mermaidTooltip{position:absolute;text-align:center;max-width:200px;padding:2px;font-family:"trebuchet ms",verdana,arial,sans-serif;font-size:12px;background:hsl(80, 100%, 96.2745098039%);border:1px solid #aaaa33;border-radius:2px;pointer-events:none;z-index:100;}#g4fdc2472-9493-4a5b-a0ca-e9e58ddd89fc-light .flowchartTitleText{text-anchor:middle;font-size:18px;fill:#333;}#g4fdc2472-9493-4a5b-a0ca-e9e58ddd89fc-light rect.text{fill:none;stroke-width:0;}#g4fdc2472-9493-4a5b-a0ca-e9e58ddd89fc-light .icon-shape,#g4fdc2472-9493-4a5b-a0ca-e9e58ddd89fc-light .image-shape{background-color:rgba(232,232,232, 0.8);text-align:center;}#g4fdc2472-9493-4a5b-a0ca-e9e58ddd89fc-light .icon-shape p,#g4fdc2472-9493-4a5b-a0ca-e9e58ddd89fc-light .image-shape p{background-color:rgba(232,232,232, 0.8);padding:2px;}#g4fdc2472-9493-4a5b-a0ca-e9e58ddd89fc-light .icon-shape .label rect,#g4fdc2472-9493-4a5b-a0ca-e9e58ddd89fc-light .image-shape .label rect{opacity:0.5;background-color:rgba(232,232,232, 0.8);fill:rgba(232,232,232, 0.8);}#g4fdc2472-9493-4a5b-a0ca-e9e58ddd89fc-light .label-icon{display:inline-block;height:1em;overflow:visible;vertical-align:-0.125em;}#g4fdc2472-9493-4a5b-a0ca-e9e58ddd89fc-light .node .label-icon path{fill:currentColor;stroke:revert;stroke-width:revert;}#g4fdc2472-9493-4a5b-a0ca-e9e58ddd89fc-light .node .neo-node{stroke:#9370DB;}#g4fdc2472-9493-4a5b-a0ca-e9e58ddd89fc-light [data-look="neo"].node rect,#g4fdc2472-9493-4a5b-a0ca-e9e58ddd89fc-light [data-look="neo"].cluster rect,#g4fdc2472-9493-4a5b-a0ca-e9e58ddd89fc-light [data-look="neo"].node polygon{stroke:#9370DB;filter:drop-shadow(1px 2px 2px rgba(185, 185, 185, 1));}#g4fdc2472-9493-4a5b-a0ca-e9e58ddd89fc-light [data-look="neo"].node path{stroke:#9370DB;stroke-width:1px;}#g4fdc2472-9493-4a5b-a0ca-e9e58ddd89fc-light [data-look="neo"].node .outer-path{filter:drop-shadow(1px 2px 2px rgba(185, 185, 185, 1));}#g4fdc2472-9493-4a5b-a0ca-e9e58ddd89fc-light [data-look="neo"].node .neo-line path{stroke:#9370DB;filter:none;}#g4fdc2472-9493-4a5b-a0ca-e9e58ddd89fc-light [data-look="neo"].node circle{stroke:#9370DB;filter:drop-shadow(1px 2px 2px rgba(185, 185, 185, 1));}#g4fdc2472-9493-4a5b-a0ca-e9e58ddd89fc-light [data-look="neo"].node circle .state-start{fill:#000000;}#g4fdc2472-9493-4a5b-a0ca-e9e58ddd89fc-light [data-look="neo"].icon-shape .icon{fill:#9370DB;filter:drop-shadow(1px 2px 2px rgba(185, 185, 185, 1));}#g4fdc2472-9493-4a5b-a0ca-e9e58ddd89fc-light [data-look="neo"].icon-shape .icon-neo path{stroke:#9370DB;filter:drop-shadow(1px 2px 2px rgba(185, 185, 185, 1));}#g4fdc2472-9493-4a5b-a0ca-e9e58ddd89fc-light :root{--mermaid-font-family:"trebuchet ms",verdana,arial,sans-serif;}#g4fdc2472-9493-4a5b-a0ca-e9e58ddd89fc-light .producer rect{fill:#2E5A88!important;stroke:#1F4870!important;color:#fff!important;}#g4fdc2472-9493-4a5b-a0ca-e9e58ddd89fc-light .producer polygon{fill:#2E5A88!important;stroke:#1F4870!important;color:#fff!important;}#g4fdc2472-9493-4a5b-a0ca-e9e58ddd89fc-light .producer ellipse{fill:#2E5A88!important;stroke:#1F4870!important;color:#fff!important;}#g4fdc2472-9493-4a5b-a0ca-e9e58ddd89fc-light .producer circle{fill:#2E5A88!important;stroke:#1F4870!important;color:#fff!important;}#g4fdc2472-9493-4a5b-a0ca-e9e58ddd89fc-light .producer path{fill:#2E5A88!important;stroke:#1F4870!important;color:#fff!important;}#g4fdc2472-9493-4a5b-a0ca-e9e58ddd89fc-light .producer tspan{fill:#fff!important;}#g4fdc2472-9493-4a5b-a0ca-e9e58ddd89fc-light .broker rect{fill:#8B5E15!important;stroke:#6E4810!important;color:#fff!important;}#g4fdc2472-9493-4a5b-a0ca-e9e58ddd89fc-light .broker polygon{fill:#8B5E15!important;stroke:#6E4810!important;color:#fff!important;}#g4fdc2472-9493-4a5b-a0ca-e9e58ddd89fc-light .broker ellipse{fill:#8B5E15!important;stroke:#6E4810!important;color:#fff!important;}#g4fdc2472-9493-4a5b-a0ca-e9e58ddd89fc-light .broker circle{fill:#8B5E15!important;stroke:#6E4810!important;color:#fff!important;}#g4fdc2472-9493-4a5b-a0ca-e9e58ddd89fc-light .broker path{fill:#8B5E15!important;stroke:#6E4810!important;color:#fff!important;}#g4fdc2472-9493-4a5b-a0ca-e9e58ddd89fc-light .broker tspan{fill:#fff!important;}#g4fdc2472-9493-4a5b-a0ca-e9e58ddd89fc-light .consumer rect{fill:#1F6E68!important;stroke:#155752!important;color:#fff!important;}#g4fdc2472-9493-4a5b-a0ca-e9e58ddd89fc-light .consumer polygon{fill:#1F6E68!important;stroke:#155752!important;color:#fff!important;}#g4fdc2472-9493-4a5b-a0ca-e9e58ddd89fc-light .consumer ellipse{fill:#1F6E68!important;stroke:#155752!important;color:#fff!important;}#g4fdc2472-9493-4a5b-a0ca-e9e58ddd89fc-light .consumer circle{fill:#1F6E68!important;stroke:#155752!important;color:#fff!important;}#g4fdc2472-9493-4a5b-a0ca-e9e58ddd89fc-light .consumer path{fill:#1F6E68!important;stroke:#155752!important;color:#fff!important;}#g4fdc2472-9493-4a5b-a0ca-e9e58ddd89fc-light .consumer tspan{fill:#fff!important;}#g4fdc2472-9493-4a5b-a0ca-e9e58ddd89fc-light .storage rect{fill:#8B5E15!important;stroke:#6E4810!important;color:#fff!important;}#g4fdc2472-9493-4a5b-a0ca-e9e58ddd89fc-light .storage polygon{fill:#8B5E15!important;stroke:#6E4810!important;color:#fff!important;}#g4fdc2472-9493-4a5b-a0ca-e9e58ddd89fc-light .storage ellipse{fill:#8B5E15!important;stroke:#6E4810!important;color:#fff!important;}#g4fdc2472-9493-4a5b-a0ca-e9e58ddd89fc-light .storage circle{fill:#8B5E15!important;stroke:#6E4810!important;color:#fff!important;}#g4fdc2472-9493-4a5b-a0ca-e9e58ddd89fc-light .storage path{fill:#8B5E15!important;stroke:#6E4810!important;color:#fff!important;}#g4fdc2472-9493-4a5b-a0ca-e9e58ddd89fc-light .storage tspan{fill:#fff!important;}#g4fdc2472-9493-4a5b-a0ca-e9e58ddd89fc-light .decision rect{fill:#2E5A88!important;stroke:#1F4870!important;color:#fff!important;}#g4fdc2472-9493-4a5b-a0ca-e9e58ddd89fc-light .decision polygon{fill:#2E5A88!important;stroke:#1F4870!important;color:#fff!important;}#g4fdc2472-9493-4a5b-a0ca-e9e58ddd89fc-light .decision ellipse{fill:#2E5A88!important;stroke:#1F4870!important;color:#fff!important;}#g4fdc2472-9493-4a5b-a0ca-e9e58ddd89fc-light .decision circle{fill:#2E5A88!important;stroke:#1F4870!important;color:#fff!important;}#g4fdc2472-9493-4a5b-a0ca-e9e58ddd89fc-light .decision path{fill:#2E5A88!important;stroke:#1F4870!important;color:#fff!important;}#g4fdc2472-9493-4a5b-a0ca-e9e58ddd89fc-light .decision tspan{fill:#fff!important;}#g4fdc2472-9493-4a5b-a0ca-e9e58ddd89fc-light .ok rect{fill:#2D7A2D!important;stroke:#1E5A1E!important;color:#fff!important;}#g4fdc2472-9493-4a5b-a0ca-e9e58ddd89fc-light .ok polygon{fill:#2D7A2D!important;stroke:#1E5A1E!important;color:#fff!important;}#g4fdc2472-9493-4a5b-a0ca-e9e58ddd89fc-light .ok ellipse{fill:#2D7A2D!important;stroke:#1E5A1E!important;color:#fff!important;}#g4fdc2472-9493-4a5b-a0ca-e9e58ddd89fc-light .ok circle{fill:#2D7A2D!important;stroke:#1E5A1E!important;color:#fff!important;}#g4fdc2472-9493-4a5b-a0ca-e9e58ddd89fc-light .ok path{fill:#2D7A2D!important;stroke:#1E5A1E!important;color:#fff!important;}#g4fdc2472-9493-4a5b-a0ca-e9e58ddd89fc-light .ok tspan{fill:#fff!important;}#g4fdc2472-9493-4a5b-a0ca-e9e58ddd89fc-light .retry rect{fill:#5A5A5A!important;stroke:#3D3D3D!important;color:#fff!important;}#g4fdc2472-9493-4a5b-a0ca-e9e58ddd89fc-light .retry polygon{fill:#5A5A5A!important;stroke:#3D3D3D!important;color:#fff!important;}#g4fdc2472-9493-4a5b-a0ca-e9e58ddd89fc-light .retry ellipse{fill:#5A5A5A!important;stroke:#3D3D3D!important;color:#fff!important;}#g4fdc2472-9493-4a5b-a0ca-e9e58ddd89fc-light .retry circle{fill:#5A5A5A!important;stroke:#3D3D3D!important;color:#fff!important;}#g4fdc2472-9493-4a5b-a0ca-e9e58ddd89fc-light .retry path{fill:#5A5A5A!important;stroke:#3D3D3D!important;color:#fff!important;}#g4fdc2472-9493-4a5b-a0ca-e9e58ddd89fc-light .retry tspan{fill:#fff!important;}#g4fdc2472-9493-4a5b-a0ca-e9e58ddd89fc-light .neutral rect{fill:#5A5A5A!important;stroke:#3D3D3D!important;color:#fff!important;}#g4fdc2472-9493-4a5b-a0ca-e9e58ddd89fc-light .neutral polygon{fill:#5A5A5A!important;stroke:#3D3D3D!important;color:#fff!important;}#g4fdc2472-9493-4a5b-a0ca-e9e58ddd89fc-light .neutral ellipse{fill:#5A5A5A!important;stroke:#3D3D3D!important;color:#fff!important;}#g4fdc2472-9493-4a5b-a0ca-e9e58ddd89fc-light .neutral circle{fill:#5A5A5A!important;stroke:#3D3D3D!important;color:#fff!important;}#g4fdc2472-9493-4a5b-a0ca-e9e58ddd89fc-light .neutral path{fill:#5A5A5A!important;stroke:#3D3D3D!important;color:#fff!important;}#g4fdc2472-9493-4a5b-a0ca-e9e58ddd89fc-light .neutral tspan{fill:#fff!important;}</style><g><marker id="g4fdc2472-9493-4a5b-a0ca-e9e58ddd89fc-light_flowchart-v2-pointEnd" class="marker flowchart-v2" viewBox="0 0 10 10" refX="5" refY="5" markerUnits="userSpaceOnUse" markerWidth="8" markerHeight="8" orient="auto"><path d="M 0 0 L 10 5 L 0 10 z" class="arrowMarkerPath" style="stroke-width: 1; stroke-dasharray: 1, 0;"></path></marker><marker id="g4fdc2472-9493-4a5b-a0ca-e9e58ddd89fc-light_flowchart-v2-pointStart" class="marker flowchart-v2" viewBox="0 0 10 10" refX="4.5" refY="5" markerUnits="userSpaceOnUse" markerWidth="8" markerHeight="8" orient="auto"><path d="M 0 5 L 10 10 L 10 0 z" class="arrowMarkerPath" style="stroke-width: 1; stroke-dasharray: 1, 0;"></path></marker><marker id="g4fdc2472-9493-4a5b-a0ca-e9e58ddd89fc-light_flowchart-v2-pointEnd-margin" class="marker flowchart-v2" viewBox="0 0 11.5 14" refX="11.5" refY="7" markerUnits="userSpaceOnUse" markerWidth="10.5" markerHeight="14" orient="auto"><path d="M 0 0 L 11.5 7 L 0 14 z" class="arrowMarkerPath" style="stroke-width: 0; stroke-dasharray: 1, 0;"></path></marker><marker id="g4fdc2472-9493-4a5b-a0ca-e9e58ddd89fc-light_flowchart-v2-pointStart-margin" class="marker flowchart-v2" viewBox="0 0 11.5 14" refX="1" refY="7" markerUnits="userSpaceOnUse" markerWidth="11.5" markerHeight="14" orient="auto"><polygon points="0,7 11.5,14 11.5,0" class="arrowMarkerPath" style="stroke-width: 0; stroke-dasharray: 1, 0;"></polygon></marker><marker id="g4fdc2472-9493-4a5b-a0ca-e9e58ddd89fc-light_flowchart-v2-circleEnd" class="marker flowchart-v2" viewBox="0 0 10 10" refX="11" refY="5" markerUnits="userSpaceOnUse" markerWidth="11" markerHeight="11" orient="auto"><circle cx="5" cy="5" r="5" class="arrowMarkerPath" style="stroke-width: 1; stroke-dasharray: 1, 0;"></circle></marker><marker id="g4fdc2472-9493-4a5b-a0ca-e9e58ddd89fc-light_flowchart-v2-circleStart" class="marker flowchart-v2" viewBox="0 0 10 10" refX="-1" refY="5" markerUnits="userSpaceOnUse" markerWidth="11" markerHeight="11" orient="auto"><circle cx="5" cy="5" r="5" class="arrowMarkerPath" style="stroke-width: 1; stroke-dasharray: 1, 0;"></circle></marker><marker id="g4fdc2472-9493-4a5b-a0ca-e9e58ddd89fc-light_flowchart-v2-circleEnd-margin" class="marker flowchart-v2" viewBox="0 0 10 10" refY="5" refX="12.25" markerUnits="userSpaceOnUse" markerWidth="14" markerHeight="14" orient="auto"><circle cx="5" cy="5" r="5" class="arrowMarkerPath" style="stroke-width: 0; stroke-dasharray: 1, 0;"></circle></marker><marker id="g4fdc2472-9493-4a5b-a0ca-e9e58ddd89fc-light_flowchart-v2-circleStart-margin" class="marker flowchart-v2" viewBox="0 0 10 10" refX="-2" refY="5" markerUnits="userSpaceOnUse" markerWidth="14" markerHeight="14" orient="auto"><circle cx="5" cy="5" r="5" class="arrowMarkerPath" style="stroke-width: 0; stroke-dasharray: 1, 0;"></circle></marker><marker id="g4fdc2472-9493-4a5b-a0ca-e9e58ddd89fc-light_flowchart-v2-crossEnd" class="marker cross flowchart-v2" viewBox="0 0 11 11" refX="12" refY="5.2" markerUnits="userSpaceOnUse" markerWidth="11" markerHeight="11" orient="auto"><path d="M 1,1 l 9,9 M 10,1 l -9,9" class="arrowMarkerPath" style="stroke-width: 2; stroke-dasharray: 1, 0;"></path></marker><marker id="g4fdc2472-9493-4a5b-a0ca-e9e58ddd89fc-light_flowchart-v2-crossStart" class="marker cross flowchart-v2" viewBox="0 0 11 11" refX="-1" refY="5.2" markerUnits="userSpaceOnUse" markerWidth="11" markerHeight="11" orient="auto"><path d="M 1,1 l 9,9 M 10,1 l -9,9" class="arrowMarkerPath" style="stroke-width: 2; stroke-dasharray: 1, 0;"></path></marker><marker id="g4fdc2472-9493-4a5b-a0ca-e9e58ddd89fc-light_flowchart-v2-crossEnd-margin" class="marker cross flowchart-v2" viewBox="0 0 15 15" refX="17.7" refY="7.5" markerUnits="userSpaceOnUse" markerWidth="12" markerHeight="12" orient="auto"><path d="M 1,1 L 14,14 M 1,14 L 14,1" class="arrowMarkerPath" style="stroke-width: 2.5;"></path></marker><marker id="g4fdc2472-9493-4a5b-a0ca-e9e58ddd89fc-light_flowchart-v2-crossStart-margin" class="marker cross flowchart-v2" viewBox="0 0 15 15" refX="-3.5" refY="7.5" markerUnits="userSpaceOnUse" markerWidth="12" markerHeight="12" orient="auto"><path d="M 1,1 L 14,14 M 1,14 L 14,1" class="arrowMarkerPath" style="stroke-width: 2.5; stroke-dasharray: 1, 0;"></path></marker><g class="root"><g class="clusters"></g><g class="edgePaths"><path d="M594.92,57L594.92,61.167C594.92,65.333,594.92,73.667,594.99,81.417C595.06,89.167,595.201,96.334,595.271,99.917L595.341,103.501" id="g4fdc2472-9493-4a5b-a0ca-e9e58ddd89fc-light-L_P_Q_0" class="edge-thickness-normal edge-pattern-solid edge-thickness-normal edge-pattern-solid flowchart-link" style=";" data-edge="true" data-et="edge" data-id="L_P_Q_0" data-points="W3sieCI6NTk0LjkxOTcxMjA2NjY1MDQsInkiOjU3fSx7IngiOjU5NC45MTk3MTIwNjY2NTA0LCJ5Ijo4Mn0seyJ4Ijo1OTUuNDE5NzEyMDY2NjUwNCwieSI6MTA3LjV9XQ==" data-look="classic" marker-end="url(#g4fdc2472-9493-4a5b-a0ca-e9e58ddd89fc-light_flowchart-v2-pointEnd)"></path><path d="M518.051,137.872L490.361,142.56C462.67,147.248,407.289,156.624,379.599,164.812C351.909,173,351.909,180,351.909,183.5L351.909,187" id="g4fdc2472-9493-4a5b-a0ca-e9e58ddd89fc-light-L_Q_C_0" class="edge-thickness-normal edge-pattern-solid edge-thickness-normal edge-pattern-solid flowchart-link" style=";" data-edge="true" data-et="edge" data-id="L_Q_C_0" data-points="W3sieCI6NTE4LjA1MDkxNTgxNzI1OTEsInkiOjEzNy44NzE3ODI1MDEyMTc2fSx7IngiOjM1MS45MDg3NzE1MTQ4OTI2LCJ5IjoxNjZ9LHsieCI6MzUxLjkwODc3MTUxNDg5MjYsInkiOjE5MX1d" data-look="classic" marker-end="url(#g4fdc2472-9493-4a5b-a0ca-e9e58ddd89fc-light_flowchart-v2-pointEnd)"></path><path d="M301.967,240L293.473,244.167C284.98,248.333,267.993,256.667,259.499,264.333C251.006,272,251.006,279,251.006,282.5L251.006,286" id="g4fdc2472-9493-4a5b-a0ca-e9e58ddd89fc-light-L_C_transient_0" class="edge-thickness-normal edge-pattern-solid edge-thickness-normal edge-pattern-solid flowchart-link" style=";" data-edge="true" data-et="edge" data-id="L_C_transient_0" data-points="W3sieCI6MzAxLjk2Njk3ODk3ODYyOTEsInkiOjI0MH0seyJ4IjoyNTEuMDA1OTY2MTg2NTIzNDQsInkiOjI2NX0seyJ4IjoyNTEuMDA1OTY2MTg2NTIzNDQsInkiOjI5MH1d" data-look="classic" marker-end="url(#g4fdc2472-9493-4a5b-a0ca-e9e58ddd89fc-light_flowchart-v2-pointEnd)"></path><path d="M208.811,380.155L183.151,394.737C157.491,409.32,106.171,438.485,80.591,471.88C55.012,505.274,55.173,542.899,55.253,561.711L55.334,580.523" id="g4fdc2472-9493-4a5b-a0ca-e9e58ddd89fc-light-L_transient_OK_0" class="edge-thickness-normal edge-pattern-solid edge-thickness-normal edge-pattern-solid flowchart-link" style=";" data-edge="true" data-et="edge" data-id="L_transient_OK_0" data-points="W3sieCI6MjA4LjgxMDU4NzY3OTg4Mzk1LCJ5IjozODAuMTU0NjEyMzM4MDg3MX0seyJ4Ijo1NC44NTA2MzkzNDMyNjE3MiwieSI6NDY3LjY0OTk5MDA4MTc4NzF9LHsieCI6NTUuMzUwNjM5MzQzMjYxNzIsInkiOjU4NC41MjM0Mjk4NzA2MDU1fV0=" data-look="classic" marker-end="url(#g4fdc2472-9493-4a5b-a0ca-e9e58ddd89fc-light_flowchart-v2-pointEnd)"></path><path d="M231.339,402.683L226.76,413.511C222.181,424.339,213.023,445.994,208.444,479.051C203.865,512.108,203.865,556.566,203.865,599.557C203.865,642.548,203.865,684.072,233.118,712.853C262.371,741.633,320.876,757.67,350.129,765.688L379.382,773.706" id="g4fdc2472-9493-4a5b-a0ca-e9e58ddd89fc-light-L_transient_backoff_0" class="edge-thickness-normal edge-pattern-solid edge-thickness-normal edge-pattern-solid flowchart-link" style=";" data-edge="true" data-et="edge" data-id="L_transient_backoff_0" data-points="W3sieCI6MjMxLjMzODczMTMzMTA4NzgsInkiOjQwMi42ODI3NTU5ODkyOTA5fSx7IngiOjIwMy44NjUzNDExODY1MjM0NCwieSI6NDY3LjY0OTk5MDA4MTc4NzF9LHsieCI6MjAzLjg2NTM0MTE4NjUyMzQ0LCJ5Ijo2MDEuMDIzNDI5ODcwNjA1NX0seyJ4IjoyMDMuODY1MzQxMTg2NTIzNDQsInkiOjcyNS41OTY4NzA0MjIzNjMzfSx7IngiOjM4My4yMzkyMzIwNzE4MTkzLCJ5Ijo3NzQuNzYzODQzNTM2Mzc3fV0=" data-look="classic" marker-end="url(#g4fdc2472-9493-4a5b-a0ca-e9e58ddd89fc-light_flowchart-v2-pointEnd)"></path><path d="M559.928,774.764L573.512,766.569C587.096,758.375,614.263,741.986,627.847,713.029C641.431,684.072,641.431,642.548,641.431,599.557C641.431,556.566,641.431,512.108,641.431,471.3C641.431,430.492,641.431,393.333,641.431,359.558C641.431,325.783,641.431,295.392,641.431,271.946C641.431,248.5,641.431,232,641.431,215.5C641.431,199,641.431,182.5,637.396,170.613C633.36,158.726,625.289,151.452,621.253,147.815L617.217,144.178" id="g4fdc2472-9493-4a5b-a0ca-e9e58ddd89fc-light-L_backoff_Q_0" class="edge-thickness-normal edge-pattern-solid edge-thickness-normal edge-pattern-solid flowchart-link" style=";" data-edge="true" data-et="edge" data-id="L_backoff_Q_0" data-points="W3sieCI6NTU5LjkyNzU0NzgzNTU2NjIsInkiOjc3NC43NjM4NDM1MzYzNzd9LHsieCI6NjQxLjQzMTQzMDgxNjY1MDQsInkiOjcyNS41OTY4NzA0MjIzNjMzfSx7IngiOjY0MS40MzE0MzA4MTY2NTA0LCJ5Ijo2MDEuMDIzNDI5ODcwNjA1NX0seyJ4Ijo2NDEuNDMxNDMwODE2NjUwNCwieSI6NDY3LjY0OTk5MDA4MTc4NzF9LHsieCI6NjQxLjQzMTQzMDgxNjY1MDQsInkiOjM1Ni4xNzQ5OTU0MjIzNjMzfSx7IngiOjY0MS40MzE0MzA4MTY2NTA0LCJ5IjoyNjV9LHsieCI6NjQxLjQzMTQzMDgxNjY1MDQsInkiOjIxNS41fSx7IngiOjY0MS40MzE0MzA4MTY2NTA0LCJ5IjoxNjZ9LHsieCI6NjE0LjI0NTg4Mzk0MTY1MDQsInkiOjE0MS41fV0=" data-look="classic" marker-end="url(#g4fdc2472-9493-4a5b-a0ca-e9e58ddd89fc-light_flowchart-v2-pointEnd)"></path><path d="M281.837,391.519L292.906,404.207C303.975,416.896,326.112,442.273,346.514,468.072C366.915,493.872,385.581,520.093,394.913,533.204L404.246,546.315" id="g4fdc2472-9493-4a5b-a0ca-e9e58ddd89fc-light-L_transient_poison_0" class="edge-thickness-normal edge-pattern-solid edge-thickness-normal edge-pattern-solid flowchart-link" style=";" data-edge="true" data-et="edge" data-id="L_transient_poison_0" data-points="W3sieCI6MjgxLjgzNzQzMTYzNzk1NTk0LCJ5IjozOTEuNTE4NTI1MzkzMjk0MDZ9LHsieCI6MzQ4LjI0OTcxNzcxMjQwMjM0LCJ5Ijo0NjcuNjQ5OTkwMDgxNzg3MX0seyJ4Ijo0MDYuNTY1ODUzNzg4NTU4MywieSI6NTQ5LjU3MzY5NTQ2NjgxMjl9XQ==" data-look="classic" marker-end="url(#g4fdc2472-9493-4a5b-a0ca-e9e58ddd89fc-light_flowchart-v2-pointEnd)"></path><path d="M417.081,232.399L438.035,237.833C458.989,243.266,500.897,254.133,521.851,274.762C542.805,295.392,542.805,325.783,542.805,359.558C542.805,393.333,542.805,430.492,532.877,462.363C522.95,494.234,503.095,520.818,493.167,534.109L483.239,547.401" id="g4fdc2472-9493-4a5b-a0ca-e9e58ddd89fc-light-L_C_poison_0" class="edge-thickness-normal edge-pattern-dotted edge-thickness-normal edge-pattern-solid flowchart-link" style=";" data-edge="true" data-et="edge" data-id="L_C_poison_0" data-points="W3sieCI6NDE3LjA4MDY0NjUxNDg5MjYsInkiOjIzMi4zOTkyODY1MzUxMDYxNH0seyJ4Ijo1NDIuODA0ODY2NzkwNzcxNSwieSI6MjY1fSx7IngiOjU0Mi44MDQ4NjY3OTA3NzE1LCJ5IjozNTYuMTc0OTk1NDIyMzYzM30seyJ4Ijo1NDIuODA0ODY2NzkwNzcxNSwieSI6NDY3LjY0OTk5MDA4MTc4NzF9LHsieCI6NDgwLjg0NTcyNTQ0OTU4NzYzLCJ5Ijo1NTAuNjA2MTU0ODMxOTExOX1d" data-look="classic" marker-end="url(#g4fdc2472-9493-4a5b-a0ca-e9e58ddd89fc-light_flowchart-v2-pointEnd)"></path><path d="M398.653,644.561L384.837,658.067C371.021,671.573,343.389,698.585,324.085,718.157C304.78,737.729,293.803,749.861,288.314,755.927L282.825,761.993" id="g4fdc2472-9493-4a5b-a0ca-e9e58ddd89fc-light-L_poison_DLQ_0" class="edge-thickness-normal edge-pattern-solid edge-thickness-normal edge-pattern-solid flowchart-link" style=";" data-edge="true" data-et="edge" data-id="L_poison_DLQ_0" data-points="W3sieCI6Mzk4LjY1MzMxNTIxOTI1MzYsInkiOjY0NC41NjA2MjU3MDUwOTM1fSx7IngiOjMxNS43NTc1MzAyMTI0MDIzNCwieSI6NzI1LjU5Njg3MDQyMjM2MzN9LHsieCI6MjgwLjE0MTI1NDA0NTAwOTksInkiOjc2NC45NTkxMjk4Njg2MDI4fV0=" data-look="classic" marker-end="url(#g4fdc2472-9493-4a5b-a0ca-e9e58ddd89fc-light_flowchart-v2-pointEnd)"></path><path d="M486.653,645.633L499.638,658.96C512.623,672.288,538.593,698.942,546.024,719.924C553.454,740.907,542.346,756.216,536.791,763.871L531.237,771.526" id="g4fdc2472-9493-4a5b-a0ca-e9e58ddd89fc-light-L_poison_backoff_0" class="edge-thickness-normal edge-pattern-solid edge-thickness-normal edge-pattern-solid flowchart-link" style=";" data-edge="true" data-et="edge" data-id="L_poison_backoff_0" data-points="W3sieCI6NDg2LjY1MzI2Mjg0ODcwNTMsInkiOjY0NS42MzMxNjc1MTAxODE0fSx7IngiOjU2NC41NjI2NzkyOTA3NzE1LCJ5Ijo3MjUuNTk2ODcwNDIyMzYzM30seyJ4Ijo1MjguODg4MDk5MDIxMjE2NSwieSI6Nzc0Ljc2Mzg0MzUzNjM3N31d" data-look="classic" marker-end="url(#g4fdc2472-9493-4a5b-a0ca-e9e58ddd89fc-light_flowchart-v2-pointEnd)"></path><path d="M235.287,854.031L235.287,858.197C235.287,862.364,235.287,870.697,268.02,880.195C300.754,889.693,366.22,900.356,398.953,905.687L431.686,911.018" id="g4fdc2472-9493-4a5b-a0ca-e9e58ddd89fc-light-L_DLQ_OPS_0" class="edge-thickness-normal edge-pattern-solid edge-thickness-normal edge-pattern-solid flowchart-link" style=";" data-edge="true" data-et="edge" data-id="L_DLQ_OPS_0" data-points="W3sieCI6MjM1LjI4NzIxNjE4NjUyMzQ0LCJ5Ijo4NTQuMDMwODE1MTI0NTExN30seyJ4IjoyMzUuMjg3MjE2MTg2NTIzNDQsInkiOjg3OS4wMzA4MTUxMjQ1MTE3fSx7IngiOjQzNS42MzQwOTQyMzgyODEyNSwieSI6OTExLjY2MTEzNjMwMjM3NTJ9XQ==" data-look="classic" marker-end="url(#g4fdc2472-9493-4a5b-a0ca-e9e58ddd89fc-light_flowchart-v2-pointEnd)"></path><path d="M625.218,904.031L639.844,899.864C654.471,895.697,683.725,887.364,698.352,871.37C712.978,855.375,712.978,831.72,712.978,806.147C712.978,780.575,712.978,753.086,712.978,718.579C712.978,684.072,712.978,642.548,712.978,599.557C712.978,556.566,712.978,512.108,712.978,471.3C712.978,430.492,712.978,393.333,712.978,359.558C712.978,325.783,712.978,295.392,712.978,271.946C712.978,248.5,712.978,232,712.978,215.5C712.978,199,712.978,182.5,701.978,170.388C690.979,158.275,668.979,150.55,657.979,146.688L646.979,142.825" id="g4fdc2472-9493-4a5b-a0ca-e9e58ddd89fc-light-L_OPS_Q_0" class="edge-thickness-normal edge-pattern-dotted edge-thickness-normal edge-pattern-solid flowchart-link" style=";" data-edge="true" data-et="edge" data-id="L_OPS_Q_0" data-points="W3sieCI6NjI1LjIxNzY1NjAyOTU5NTIsInkiOjkwNC4wMzA4MTUxMjQ1MTE3fSx7IngiOjcxMi45NzgzMDU4MTY2NTA0LCJ5Ijo4NzkuMDMwODE1MTI0NTExN30seyJ4Ijo3MTIuOTc4MzA1ODE2NjUwNCwieSI6ODA4LjA2Mzg0Mjc3MzQzNzV9LHsieCI6NzEyLjk3ODMwNTgxNjY1MDQsInkiOjcyNS41OTY4NzA0MjIzNjMzfSx7IngiOjcxMi45NzgzMDU4MTY2NTA0LCJ5Ijo2MDEuMDIzNDI5ODcwNjA1NX0seyJ4Ijo3MTIuOTc4MzA1ODE2NjUwNCwieSI6NDY3LjY0OTk5MDA4MTc4NzF9LHsieCI6NzEyLjk3ODMwNTgxNjY1MDQsInkiOjM1Ni4xNzQ5OTU0MjIzNjMzfSx7IngiOjcxMi45NzgzMDU4MTY2NTA0LCJ5IjoyNjV9LHsieCI6NzEyLjk3ODMwNTgxNjY1MDQsInkiOjIxNS41fSx7IngiOjcxMi45NzgzMDU4MTY2NTA0LCJ5IjoxNjZ9LHsieCI6NjQzLjIwNTMzMzM0NjQxMjMsInkiOjE0MS41fV0=" data-look="classic" marker-end="url(#g4fdc2472-9493-4a5b-a0ca-e9e58ddd89fc-light_flowchart-v2-pointEnd)"></path></g><g class="edgeLabels"><g class="edgeLabel"><g class="label" data-id="L_P_Q_0" transform="translate(0, 0)"><text y="-10.1" text-anchor="middle"><tspan class="text-outer-tspan row" x="0" y="-0.1em" dy="1.1em" text-anchor="middle"></tspan></text></g></g><g><rect class="background" style="stroke: none"></rect></g><g class="edgeLabel"><g class="label" data-id="L_Q_C_0" transform="translate(0, 0)"><text y="-10.1" text-anchor="middle"><tspan class="text-outer-tspan row" x="0" y="-0.1em" dy="1.1em" text-anchor="middle"></tspan></text></g></g><g><rect class="background" style="stroke: none"></rect></g><g class="edgeLabel"><g class="label" data-id="L_C_transient_0" transform="translate(0, 0)"><text y="-10.1" text-anchor="middle"><tspan class="text-outer-tspan row" x="0" y="-0.1em" dy="1.1em" text-anchor="middle"></tspan></text></g></g><g><rect class="background" style="stroke: none"></rect></g><g class="edgeLabel" transform="translate(54.85063934326172, 467.6499900817871)"><g class="label" data-id="L_transient_OK_0" transform="translate(0, -10.5)"><g><rect class="background" style="" x="-44.796875" y="-1" width="89.59375" height="23"></rect><text y="-10.1" text-anchor="middle" style=""><tspan class="text-outer-tspan row" x="0" y="-0.1em" dy="1.1em" text-anchor="middle"><tspan font-style="normal" class="text-inner-tspan" font-weight="normal">no</tspan><tspan font-style="normal" class="text-inner-tspan" font-weight="normal"> -</tspan><tspan font-style="normal" class="text-inner-tspan" font-weight="normal"> success</tspan></tspan></text></g></g></g><g class="edgeLabel" transform="translate(203.86534118652344, 601.0234298706055)"><g class="label" data-id="L_transient_backoff_0" transform="translate(0, -10.5)"><g><rect class="background" style="" x="-67.1640625" y="-1" width="134.328125" height="23"></rect><text y="-10.1" text-anchor="middle" style=""><tspan class="text-outer-tspan row" x="0" y="-0.1em" dy="1.1em" text-anchor="middle"><tspan font-style="normal" class="text-inner-tspan" font-weight="normal">yes</tspan><tspan font-style="normal" class="text-inner-tspan" font-weight="normal"> -</tspan><tspan font-style="normal" class="text-inner-tspan" font-weight="normal"> timeout,</tspan><tspan font-style="normal" class="text-inner-tspan" font-weight="normal"> 5xx</tspan></tspan></text></g></g></g><g class="edgeLabel"><g class="label" data-id="L_backoff_Q_0" transform="translate(0, 0)"><text y="-10.1" text-anchor="middle"><tspan class="text-outer-tspan row" x="0" y="-0.1em" dy="1.1em" text-anchor="middle"></tspan></text></g></g><g><rect class="background" style="stroke: none"></rect></g><g class="edgeLabel" transform="translate(348.24971771240234, 467.6499900817871)"><g class="label" data-id="L_transient_poison_0" transform="translate(0, -19.299999237060547)"><g><rect class="background" style="" x="-78.53125" y="-1" width="157.0625" height="40.599998474121094"></rect><text y="-10.1" text-anchor="middle" style=""><tspan class="text-outer-tspan row" x="0" y="-0.1em" dy="1.1em" text-anchor="middle"><tspan font-style="normal" class="text-inner-tspan" font-weight="normal">permanent</tspan><tspan font-style="normal" class="text-inner-tspan" font-weight="normal"> -</tspan><tspan font-style="normal" class="text-inner-tspan" font-weight="normal"> schema,</tspan></tspan><tspan class="text-outer-tspan row" x="0" y="1em" dy="1.1em" text-anchor="middle"><tspan font-style="normal" class="text-inner-tspan" font-weight="normal">validation</tspan></tspan></text></g></g></g><g class="edgeLabel" transform="translate(542.8048667907715, 356.1749954223633)"><g class="label" data-id="L_C_poison_0" transform="translate(0, -10.5)"><g><rect class="background" style="" x="-54.1796875" y="-1" width="108.359375" height="23"></rect><text y="-10.1" text-anchor="middle" style=""><tspan class="text-outer-tspan row" x="0" y="-0.1em" dy="1.1em" text-anchor="middle"><tspan font-style="normal" class="text-inner-tspan" font-weight="normal">redelivery</tspan><tspan font-style="normal" class="text-inner-tspan" font-weight="normal"> N+1</tspan></tspan></text></g></g></g><g class="edgeLabel" transform="translate(338.22574, 703.63268)"><g class="label" data-id="L_poison_DLQ_0" transform="translate(0, -10.5)"><g><rect class="background" style="" x="-13.546875" y="-1" width="27.09375" height="23"></rect><text y="-10.1" text-anchor="middle" style=""><tspan class="text-outer-tspan row" x="0" y="-0.1em" dy="1.1em" text-anchor="middle"><tspan font-style="normal" class="text-inner-tspan" font-weight="normal">yes</tspan></tspan></text></g></g></g><g class="edgeLabel" transform="translate(546.80364, 707.36957)"><g class="label" data-id="L_poison_backoff_0" transform="translate(0, -10.5)"><g><rect class="background" style="" x="-10.6640625" y="-1" width="21.328125" height="23"></rect><text y="-10.1" text-anchor="middle" style=""><tspan class="text-outer-tspan row" x="0" y="-0.1em" dy="1.1em" text-anchor="middle"><tspan font-style="normal" class="text-inner-tspan" font-weight="normal">no</tspan></tspan></text></g></g></g><g class="edgeLabel"><g class="label" data-id="L_DLQ_OPS_0" transform="translate(0, 0)"><text y="-10.1" text-anchor="middle"><tspan class="text-outer-tspan row" x="0" y="-0.1em" dy="1.1em" text-anchor="middle"></tspan></text></g></g><g><rect class="background" style="stroke: none"></rect></g><g class="edgeLabel" transform="translate(712.9783058166504, 467.6499900817871)"><g class="label" data-id="L_OPS_Q_0" transform="translate(0, -10.5)"><g><rect class="background" style="" x="-51.546875" y="-1" width="103.09375" height="23"></rect><text y="-10.1" text-anchor="middle" style=""><tspan class="text-outer-tspan row" x="0" y="-0.1em" dy="1.1em" text-anchor="middle"><tspan font-style="normal" class="text-inner-tspan" font-weight="normal">fix</tspan><tspan font-style="normal" class="text-inner-tspan" font-weight="normal"> and</tspan><tspan font-style="normal" class="text-inner-tspan" font-weight="normal"> replay</tspan></tspan></text></g></g></g></g><g class="nodes"><g class="node default producer" id="g4fdc2472-9493-4a5b-a0ca-e9e58ddd89fc-light-flowchart-P-0" data-look="classic" transform="translate(594.9197120666504, 32.5)"><rect class="basic label-container" style="fill:#2E5A88 !important;stroke:#1F4870 !important" x="-61.75" y="-24.5" width="123.5" height="49"></rect><g class="label" style="color:#fff !important" transform="translate(0, -9.5)"><rect></rect><g><rect class="background" style="stroke: none"></rect><text y="-10.1" style="fill:#fff !important"><tspan class="text-outer-tspan row" x="0" y="-0.1em" dy="1.1em"><tspan font-style="normal" class="text-inner-tspan" font-weight="normal">Producer</tspan></tspan></text></g></g></g><g class="node default broker" id="g4fdc2472-9493-4a5b-a0ca-e9e58ddd89fc-light-flowchart-Q-1" data-look="classic" transform="translate(594.9197120666504, 124)"><polygon points="8.5,0 159.609375,0 168.109375,-17 159.609375,-34 8.5,-34 0,-17" class="label-container" transform="translate(-84.0546875,17)" style="fill:#8B5E15 !important;stroke:#6E4810 !important"></polygon><g class="label" style="color:#fff !important" transform="translate(0, -9.5)"><rect></rect><g><rect class="background" style="stroke: none"></rect><text y="-10.1" style="fill:#fff !important"><tspan class="text-outer-tspan row" x="0" y="-0.1em" dy="1.1em"><tspan font-style="normal" class="text-inner-tspan" font-weight="normal">Main</tspan><tspan font-style="normal" class="text-inner-tspan" font-weight="normal"> queue</tspan><tspan font-style="normal" class="text-inner-tspan" font-weight="normal"> /</tspan><tspan font-style="normal" class="text-inner-tspan" font-weight="normal"> topic</tspan></tspan></text></g></g></g><g class="node default consumer" id="g4fdc2472-9493-4a5b-a0ca-e9e58ddd89fc-light-flowchart-C-2" data-look="classic" transform="translate(351.9087715148926, 215.5)"><rect class="basic label-container" style="fill:#1F6E68 !important;stroke:#155752 !important" x="-65.171875" y="-24.5" width="130.34375" height="49"></rect><g class="label" style="color:#fff !important" transform="translate(0, -9.5)"><rect></rect><g><rect class="background" style="stroke: none"></rect><text y="-10.1" style="fill:#fff !important"><tspan class="text-outer-tspan row" x="0" y="-0.1em" dy="1.1em"><tspan font-style="normal" class="text-inner-tspan" font-weight="normal">Consumer</tspan></tspan></text></g></g></g><g class="node default ok" id="g4fdc2472-9493-4a5b-a0ca-e9e58ddd89fc-light-flowchart-OK-3" data-look="classic" transform="translate(54.85063934326172, 601.0234298706055)"><g class="basic label-container outer-path"><path d="M-29.859375 -17 C-15.159842797374324 -17, -0.4603105947486483 -17, 29.859375 -17 C29.859375 -17, 29.859375 -17, 29.859375 -17 C30.196233089408512 -16.989197616727164, 30.53309117881702 -16.97839523345433, 30.94856873967212 -16.965071676755716 C31.255366319927226 -16.935475283166582, 31.562163900182334 -16.905878889577444, 32.0332867486366 -16.860430234995185 C32.26212968360403 -16.823432683973117, 32.49097261857146 -16.78643513295105, 33.109071687923326 -16.686505668848113 C33.337233486586626 -16.634429227198094, 33.56539528524993 -16.58235278554808, 34.17150292646162 -16.4440126716635 C34.57263597281301 -16.324958489096733, 34.97376901916441 -16.20590430652997, 35.21621470640155 -16.133947699181366 C35.43422292780636 -16.05371865845849, 35.65223114921117 -15.973489617735613, 36.23891408294936 -15.757584874882369 C36.56600775907359 -15.612790207351331, 36.89310143519782 -15.467995539820292, 37.23539856499849 -15.316470754341125 C37.50402603458641 -15.176327975521213, 37.77265350417433 -15.0361851967013, 38.20157338406694 -14.812417970097622 C38.413872808149385 -14.683720811608945, 38.62617223223183 -14.555023653120267, 39.133468320579325 -14.247497783161291 C39.33432074923528 -14.107391823692401, 39.53517317789123 -13.96728586422351, 40.027254018350675 -13.624031571755262 C40.316137487278425 -13.393654692797345, 40.605020956206175 -13.163277813839427, 40.8792577202324 -12.944581292275288 C41.126341200520116 -12.720186612948632, 41.37342468080783 -12.495791933621975, 41.68597836025927 -12.21193895166137 C41.856242395029284 -12.0361273568241, 42.026506429799305 -11.860315761986827, 42.44410095028036 -11.42911513444239 C42.63567197766995 -11.204084904970312, 42.82724300505954 -10.979054675498237, 43.15051020195651 -10.59932663159847 C43.284720736503054 -10.419496742137328, 43.418931271049594 -10.239666852676187, 43.80230332814825 -9.725983222076888 C43.92865870311518 -9.53186743495869, 44.05501407808211 -9.337751647840491, 44.39680197109088 -8.812673661278927 C44.52490987076309 -8.585205113079413, 44.65301777043529 -8.3577365648799, 44.931563208341004 -7.863150934094199 C45.02815826922862 -7.662569223357864, 45.12475333011623 -7.461987512621528, 45.40438959126881 -6.881316833080699 C45.53825530479538 -6.550665932552577, 45.672121018321945 -6.220015032024455, 45.813338174845924 -5.871205925162238 C45.926184004520785 -5.531332265722853, 46.039029834195645 -5.191458606283469, 46.156728501623235 -4.836968972727556 C46.26425266421117 -4.426932739512889, 46.37177682679911 -4.016896506298222, 46.433149507091 -3.7828558772573464 C46.48624086309218 -3.510242985053368, 46.53933221909335 -3.2376300928493897, 46.64146531804565 -2.713198215567453 C46.6791524835114 -2.4209040023876365, 46.71683964897716 -2.1286097892078204, 46.780819920136366 -1.632391440430593 C46.805098468523845 -1.2542334520041374, 46.82937701691132 -0.8760754635776815, 46.8506406754117 -0.5448768187181379 C46.8506406754117 -0.13311408739677338, 46.8506406754117 0.2786486439245911, 46.8506406754117 0.5448768187181336 C46.83050240922695 0.8585465698613695, 46.81036414304221 1.1722163210046053, 46.780819920136366 1.6323914404305815 C46.73748580825034 1.9684822549303027, 46.69415169636432 2.304573069430024, 46.641465318045654 2.7131982155674415 C46.58789710673305 2.9882596590121935, 46.534328895420444 3.2633211024569455, 46.433149507091 3.782855877257343 C46.363367826800896 4.048963667775076, 46.29358614651078 4.315071458292809, 46.156728501623235 4.836968972727545 C46.06196342906639 5.122386272504903, 45.96719835650954 5.40780357228226, 45.813338174845924 5.871205925162227 C45.65019331939522 6.274176872316664, 45.48704846394452 6.677147819471101, 45.40438959126881 6.881316833080694 C45.25103999872253 7.1997505431586895, 45.097690406176255 7.518184253236685, 44.931563208341004 7.863150934094196 C44.77612757003711 8.139142649467875, 44.62069193173322 8.415134364841554, 44.39680197109089 8.812673661278923 C44.21063758213556 9.0986721548523, 44.024473193180235 9.384670648425676, 43.802303328148255 9.725983222076879 C43.64816998652003 9.932507858022406, 43.49403664489181 10.139032493967933, 43.15051020195651 10.599326631598467 C42.87416239461235 10.923940490740614, 42.597814587268196 11.248554349882761, 42.44410095028037 11.42911513444238 C42.21366866528148 11.66705538754617, 41.9832363802826 11.904995640649961, 41.68597836025927 12.211938951661365 C41.52251579673195 12.360391326874446, 41.359053233204634 12.508843702087528, 40.87925772023242 12.944581292275275 C40.58268056204712 13.181093683678414, 40.28610340386183 13.417606075081551, 40.027254018350675 13.62403157175526 C39.708871325988156 13.846121555382739, 39.39048863362564 14.068211539010216, 39.13346832057934 14.247497783161286 C38.94618347777079 14.361030955479734, 38.75889863496223 14.474564127798182, 38.20157338406695 14.81241797009762 C37.86735069648455 14.986781732129508, 37.53312800890215 15.161145494161394, 37.23539856499849 15.316470754341124 C36.934912772060365 15.449486901280485, 36.63442697912224 15.582503048219847, 36.238914082949364 15.757584874882367 C36.0302677788957 15.83436864347941, 35.821621474842026 15.91115241207645, 35.21621470640156 16.133947699181363 C34.92588826269712 16.22011506371824, 34.635561818992684 16.306282428255116, 34.17150292646164 16.444012671663497 C33.79649908322481 16.52960485175353, 33.421495239987976 16.615197031843564, 33.10907168792333 16.68650566884811 C32.77493208721647 16.740526768199093, 32.4407924865096 16.794547867550072, 32.03328674863661 16.86043023499518 C31.6810300333738 16.894412016665903, 31.32877331811099 16.928393798336625, 30.94856873967212 16.965071676755716 C30.643237024588558 16.974863070566318, 30.337905309504997 16.984654464376916, 29.859375000000004 17 C29.859375000000004 17, 29.859375 17, 29.859375 17 C14.025253949406263 17, -1.8088671011874737 17, -29.859374999999996 17 C-30.210686806306246 16.988734114158706, -30.5619986126125 16.977468228317413, -30.948568739672112 16.965071676755716 C-31.21873163237187 16.939009387415386, -31.488894525071633 16.912947098075055, -32.033286748636606 16.86043023499518 C-32.35660699522775 16.808158324912284, -32.679927241818895 16.75588641482939, -33.109071687923326 16.68650566884811 C-33.34591753477952 16.632447149866774, -33.58276338163571 16.578388630885442, -34.17150292646162 16.4440126716635 C-34.53900781942131 16.334939148505615, -34.906512712380994 16.225865625347726, -35.216214706401544 16.13394769918137 C-35.47296821682936 16.039460033940504, -35.729721727257164 15.944972368699634, -36.238914082949364 15.757584874882369 C-36.46914139415231 15.65567007366336, -36.699368705355255 15.553755272444354, -37.23539856499848 15.316470754341127 C-37.52722043316298 15.164227472640535, -37.819042301327485 15.011984190939941, -38.20157338406693 14.812417970097624 C-38.458513107158346 14.656659600014196, -38.71545283024976 14.500901229930767, -39.13346832057932 14.247497783161299 C-39.41863743362873 14.048576154669968, -39.703806546678145 13.849654526178638, -40.02725401835067 13.624031571755264 C-40.27686659254239 13.424972186306935, -40.526479166734106 13.225912800858605, -40.8792577202324 12.94458129227529 C-41.182382340044065 12.669291532800283, -41.48550695985573 12.394001773325275, -41.68597836025926 12.211938951661377 C-41.98220591323797 11.906059682476457, -42.27843346621668 11.600180413291534, -42.444100950280365 11.429115134442386 C-42.62557669413409 11.215943399449447, -42.807052437987814 11.002771664456507, -43.15051020195651 10.599326631598473 C-43.36634814326016 10.31012345349254, -43.582186084563816 10.020920275386608, -43.80230332814825 9.72598322207689 C-44.03652849400745 9.366150469053533, -44.27075365986666 9.006317716030178, -44.39680197109088 8.812673661278936 C-44.56793354883309 8.508812216046312, -44.7390651265753 8.204950770813689, -44.931563208341004 7.863150934094201 C-45.04800543390041 7.621356161255593, -45.16444765945981 7.3795613884169855, -45.40438959126881 6.881316833080701 C-45.529279172069536 6.572837153927127, -45.65416875287026 6.2643574747735515, -45.813338174845924 5.87120592516224 C-45.94221143085874 5.483060211216535, -46.07108468687155 5.09491449727083, -46.156728501623235 4.8369689727275516 C-46.245165549195356 4.499720181476169, -46.333602596767484 4.162471390224787, -46.433149507091 3.782855877257349 C-46.51081880710136 3.3840404371165227, -46.588488107111715 2.9852249969756963, -46.64146531804565 2.713198215567455 C-46.678045413256385 2.4294902206698166, -46.71462550846712 2.1457822257721784, -46.780819920136366 1.6323914404306026 C-46.80570059872703 1.2448547880588208, -46.830581277317684 0.857318135687039, -46.8506406754117 0.54487681871814 C-46.8506406754117 0.11901992091459718, -46.8506406754117 -0.3068369768889456, -46.8506406754117 -0.5448768187181317 C-46.83058593712445 -0.857245555435435, -46.81053119883719 -1.1696142921527384, -46.780819920136366 -1.6323914404305793 C-46.745377713049805 -1.9072741997385383, -46.709935505963244 -2.1821569590464973, -46.641465318045654 -2.713198215567447 C-46.57406018333869 -3.059309336207467, -46.506655048631714 -3.4054204568474877, -46.433149507091 -3.782855877257341 C-46.3699955738845 -4.02368919566152, -46.306841640678 -4.2645225140657, -46.156728501623235 -4.836968972727544 C-46.046429313758686 -5.169172552786534, -45.936130125894145 -5.501376132845525, -45.81333817484593 -5.871205925162218 C-45.67252733228383 -6.219011428683052, -45.531716489721724 -6.566816932203886, -45.40438959126881 -6.881316833080692 C-45.219152812041656 -7.265964968578027, -45.0339160328145 -7.6506131040753615, -44.931563208341004 -7.863150934094194 C-44.736022435909575 -8.210353376196506, -44.540481663478154 -8.557555818298818, -44.39680197109088 -8.812673661278929 C-44.16443621315384 -9.169649864412902, -43.9320704552168 -9.526626067546875, -43.80230332814825 -9.725983222076884 C-43.570720405623916 -10.036283240621232, -43.33913748309958 -10.34658325916558, -43.15051020195651 -10.599326631598467 C-42.93457356091721 -10.852978097306185, -42.71863691987791 -11.1066295630139, -42.44410095028037 -11.42911513444238 C-42.2732854399267 -11.605496173096755, -42.10246992957304 -11.781877211751132, -41.68597836025928 -12.21193895166136 C-41.48132083092932 -12.39780350485733, -41.27666330159936 -12.583668058053302, -40.87925772023242 -12.944581292275274 C-40.62188034042637 -13.149832903570873, -40.36450296062033 -13.355084514866473, -40.027254018350675 -13.624031571755259 C-39.83485991247184 -13.758237371409722, -39.642465806593016 -13.892443171064185, -39.13346832057934 -14.247497783161284 C-38.79685084414782 -14.451557275557938, -38.4602333677163 -14.655616767954593, -38.20157338406695 -14.812417970097618 C-37.82445049597578 -15.00916273925604, -37.447327607884624 -15.205907508414459, -37.23539856499849 -15.316470754341124 C-36.83735495213105 -15.492672854213286, -36.43931133926361 -15.668874954085448, -36.23891408294937 -15.757584874882365 C-35.931265006925635 -15.870802578735983, -35.623615930901906 -15.984020282589603, -35.216214706401566 -16.133947699181363 C-34.83621463626486 -16.246729725336863, -34.45621456612816 -16.359511751492366, -34.17150292646164 -16.444012671663494 C-33.80701468377007 -16.52720473454978, -33.4425264410785 -16.610396797436064, -33.10907168792333 -16.68650566884811 C-32.758925616555985 -16.743114570243442, -32.408779545188644 -16.799723471638778, -32.03328674863661 -16.86043023499518 C-31.734414707472876 -16.88926206136003, -31.435542666309143 -16.918093887724876, -30.94856873967212 -16.965071676755716 C-30.669448599767417 -16.974022516368066, -30.39032845986272 -16.982973355980416, -29.859375000000004 -17 C-29.859375000000004 -17, -29.859375000000004 -17, -29.859375 -17" stroke="none" stroke-width="0" fill="#2D7A2D" style="fill:#2D7A2D !important;stroke:#1E5A1E !important"></path><path d="M-29.859375 -17 C-12.903432869338825 -17, 4.052509261322349 -17, 29.859375 -17 M-29.859375 -17 C-12.699542050261037 -17, 4.460290899477926 -17, 29.859375 -17 M29.859375 -17 C29.859375 -17, 29.859375 -17, 29.859375 -17 M29.859375 -17 C29.859375 -17, 29.859375 -17, 29.859375 -17 M29.859375 -17 C30.104296290034366 -16.992145850938968, 30.34921758006873 -16.984291701877936, 30.94856873967212 -16.965071676755716 M29.859375 -17 C30.29431076102615 -16.986052456694992, 30.7292465220523 -16.972104913389984, 30.94856873967212 -16.965071676755716 M30.94856873967212 -16.965071676755716 C31.372549566853802 -16.924170756269046, 31.796530394035486 -16.88326983578238, 32.0332867486366 -16.860430234995185 M30.94856873967212 -16.965071676755716 C31.25792388947356 -16.935228557508374, 31.567279039275004 -16.90538543826103, 32.0332867486366 -16.860430234995185 M32.0332867486366 -16.860430234995185 C32.44403601653399 -16.79402347876968, 32.85478528443139 -16.727616722544177, 33.109071687923326 -16.686505668848113 M32.0332867486366 -16.860430234995185 C32.394800035776704 -16.801983570307787, 32.75631332291681 -16.743536905620388, 33.109071687923326 -16.686505668848113 M33.109071687923326 -16.686505668848113 C33.524339291636096 -16.591723548175036, 33.939606895348874 -16.496941427501962, 34.17150292646162 -16.4440126716635 M33.109071687923326 -16.686505668848113 C33.45536851504026 -16.60746567785666, 33.80166534215719 -16.528425686865205, 34.17150292646162 -16.4440126716635 M34.17150292646162 -16.4440126716635 C34.572862063876606 -16.32489138645584, 34.974221201291584 -16.205770101248174, 35.21621470640155 -16.133947699181366 M34.17150292646162 -16.4440126716635 C34.490542151544524 -16.349323504329963, 34.80958137662742 -16.254634336996425, 35.21621470640155 -16.133947699181366 M35.21621470640155 -16.133947699181366 C35.46707241927985 -16.041629741938873, 35.71793013215816 -15.949311784696379, 36.23891408294936 -15.757584874882369 M35.21621470640155 -16.133947699181366 C35.618645820929274 -15.985849329002722, 36.02107693545699 -15.837750958824078, 36.23891408294936 -15.757584874882369 M36.23891408294936 -15.757584874882369 C36.581235667711574 -15.606049263917155, 36.92355725247379 -15.45451365295194, 37.23539856499849 -15.316470754341125 M36.23891408294936 -15.757584874882369 C36.52132101454379 -15.632571703569495, 36.80372794613822 -15.50755853225662, 37.23539856499849 -15.316470754341125 M37.23539856499849 -15.316470754341125 C37.61554606129034 -15.11814804902176, 37.995693557582186 -14.919825343702394, 38.20157338406694 -14.812417970097622 M37.23539856499849 -15.316470754341125 C37.504527892814245 -15.17606615640521, 37.77365722062999 -15.035661558469293, 38.20157338406694 -14.812417970097622 M38.20157338406694 -14.812417970097622 C38.408344819786095 -14.687071910640839, 38.61511625550524 -14.561725851184054, 39.133468320579325 -14.247497783161291 M38.20157338406694 -14.812417970097622 C38.4211619219956 -14.679302107959785, 38.64075045992425 -14.546186245821946, 39.133468320579325 -14.247497783161291 M39.133468320579325 -14.247497783161291 C39.4734803002715 -14.010320145009407, 39.81349227996367 -13.773142506857523, 40.027254018350675 -13.624031571755262 M39.133468320579325 -14.247497783161291 C39.48072845507179 -14.005264145988285, 39.827988589564264 -13.76303050881528, 40.027254018350675 -13.624031571755262 M40.027254018350675 -13.624031571755262 C40.27823882279689 -13.423877869195554, 40.5292236272431 -13.223724166635845, 40.8792577202324 -12.944581292275288 M40.027254018350675 -13.624031571755262 C40.329962785578516 -13.382629385309663, 40.63267155280635 -13.141227198864064, 40.8792577202324 -12.944581292275288 M40.8792577202324 -12.944581292275288 C41.142805006478305 -12.705234619985838, 41.406352292724215 -12.46588794769639, 41.68597836025927 -12.21193895166137 M40.8792577202324 -12.944581292275288 C41.052485648694145 -12.787260271006161, 41.22571357715589 -12.629939249737035, 41.68597836025927 -12.21193895166137 M41.68597836025927 -12.21193895166137 C41.84164034016857 -12.051205177318794, 41.99730232007786 -11.89047140297622, 42.44410095028036 -11.42911513444239 M41.68597836025927 -12.21193895166137 C41.98634977495076 -11.901780805040627, 42.28672118964225 -11.591622658419885, 42.44410095028036 -11.42911513444239 M42.44410095028036 -11.42911513444239 C42.65327731324147 -11.183404676036037, 42.86245367620258 -10.937694217629685, 43.15051020195651 -10.59932663159847 M42.44410095028036 -11.42911513444239 C42.721356854141256 -11.10343457345953, 42.998612758002146 -10.777754012476672, 43.15051020195651 -10.59932663159847 M43.15051020195651 -10.59932663159847 C43.32376621699789 -10.367179355390693, 43.49702223203928 -10.135032079182917, 43.80230332814825 -9.725983222076888 M43.15051020195651 -10.59932663159847 C43.40324029285862 -10.260691333974577, 43.655970383760724 -9.922056036350682, 43.80230332814825 -9.725983222076888 M43.80230332814825 -9.725983222076888 C44.02575838413359 -9.38269624999923, 44.24921344011892 -9.039409277921571, 44.39680197109088 -8.812673661278927 M43.80230332814825 -9.725983222076888 C43.98016168441701 -9.452745025192138, 44.158020040685784 -9.179506828307389, 44.39680197109088 -8.812673661278927 M44.39680197109088 -8.812673661278927 C44.52196356226302 -8.590436582167378, 44.64712515343515 -8.368199503055829, 44.931563208341004 -7.863150934094199 M44.39680197109088 -8.812673661278927 C44.601223643712 -8.449702281601164, 44.80564531633311 -8.086730901923401, 44.931563208341004 -7.863150934094199 M44.931563208341004 -7.863150934094199 C45.05958222216588 -7.597316712718749, 45.18760123599076 -7.331482491343298, 45.40438959126881 -6.881316833080699 M44.931563208341004 -7.863150934094199 C45.11527880894529 -7.481661558555252, 45.298994409549586 -7.100172183016305, 45.40438959126881 -6.881316833080699 M45.40438959126881 -6.881316833080699 C45.540539864436845 -6.5450230260692, 45.67669013760487 -6.208729219057701, 45.813338174845924 -5.871205925162238 M45.40438959126881 -6.881316833080699 C45.55111065043245 -6.518912980287804, 45.697831709596095 -6.15650912749491, 45.813338174845924 -5.871205925162238 M45.813338174845924 -5.871205925162238 C45.92912531564655 -5.522473505246336, 46.04491245644717 -5.173741085330433, 46.156728501623235 -4.836968972727556 M45.813338174845924 -5.871205925162238 C45.92133231293138 -5.5459447877780415, 46.02932645101685 -5.220683650393845, 46.156728501623235 -4.836968972727556 M46.156728501623235 -4.836968972727556 C46.26641764659808 -4.418676723362308, 46.37610679157293 -4.000384473997061, 46.433149507091 -3.7828558772573464 M46.156728501623235 -4.836968972727556 C46.21256034954149 -4.624057938939285, 46.26839219745975 -4.411146905151014, 46.433149507091 -3.7828558772573464 M46.433149507091 -3.7828558772573464 C46.49360805351133 -3.4724140193072555, 46.55406659993166 -3.1619721613571645, 46.64146531804565 -2.713198215567453 M46.433149507091 -3.7828558772573464 C46.48917355621527 -3.4951842256912085, 46.54519760533953 -3.2075125741250705, 46.64146531804565 -2.713198215567453 M46.64146531804565 -2.713198215567453 C46.68139547422885 -2.403507809311748, 46.721325630412046 -2.0938174030560432, 46.780819920136366 -1.632391440430593 M46.64146531804565 -2.713198215567453 C46.68501369830366 -2.3754455778866252, 46.72856207856169 -2.037692940205798, 46.780819920136366 -1.632391440430593 M46.780819920136366 -1.632391440430593 C46.79551877574465 -1.4034448996289357, 46.81021763135293 -1.1744983588272784, 46.8506406754117 -0.5448768187181379 M46.780819920136366 -1.632391440430593 C46.80047903897953 -1.32618479589319, 46.8201381578227 -1.0199781513557873, 46.8506406754117 -0.5448768187181379 M46.8506406754117 -0.5448768187181379 C46.8506406754117 -0.19486594138239205, 46.8506406754117 0.15514493595335377, 46.8506406754117 0.5448768187181336 M46.8506406754117 -0.5448768187181379 C46.8506406754117 -0.28912137734290505, 46.8506406754117 -0.03336593596767223, 46.8506406754117 0.5448768187181336 M46.8506406754117 0.5448768187181336 C46.828516508981416 0.8894785691754334, 46.806392342551135 1.2340803196327332, 46.780819920136366 1.6323914404305815 M46.8506406754117 0.5448768187181336 C46.83220652989907 0.8320035148516998, 46.813772384386446 1.1191302109852659, 46.780819920136366 1.6323914404305815 M46.780819920136366 1.6323914404305815 C46.74045094608736 1.945485231399131, 46.70008197203835 2.2585790223676807, 46.641465318045654 2.7131982155674415 M46.780819920136366 1.6323914404305815 C46.733719350137356 1.997694160283354, 46.686618780138346 2.3629968801361265, 46.641465318045654 2.7131982155674415 M46.641465318045654 2.7131982155674415 C46.561093098071716 3.125892578458926, 46.48072087809777 3.5385869413504105, 46.433149507091 3.782855877257343 M46.641465318045654 2.7131982155674415 C46.563453440130246 3.113772720846828, 46.48544156221484 3.5143472261262145, 46.433149507091 3.782855877257343 M46.433149507091 3.782855877257343 C46.353592592652106 4.086240872197699, 46.2740356782132 4.389625867138054, 46.156728501623235 4.836968972727545 M46.433149507091 3.782855877257343 C46.34193873150178 4.130682095579262, 46.25072795591255 4.478508313901182, 46.156728501623235 4.836968972727545 M46.156728501623235 4.836968972727545 C46.072395069192524 5.090967834501123, 45.98806163676181 5.344966696274701, 45.813338174845924 5.871205925162227 M46.156728501623235 4.836968972727545 C46.08490061427986 5.053303125186087, 46.01307272693649 5.269637277644629, 45.813338174845924 5.871205925162227 M45.813338174845924 5.871205925162227 C45.720695802671166 6.100034375552305, 45.6280534304964 6.328862825942382, 45.40438959126881 6.881316833080694 M45.813338174845924 5.871205925162227 C45.651955422615266 6.2698244432951995, 45.490572670384616 6.6684429614281715, 45.40438959126881 6.881316833080694 M45.40438959126881 6.881316833080694 C45.2956598321843 7.107096504263836, 45.18693007309979 7.332876175446979, 44.931563208341004 7.863150934094196 M45.40438959126881 6.881316833080694 C45.21576798497016 7.272993634415701, 45.027146378671496 7.6646704357507085, 44.931563208341004 7.863150934094196 M44.931563208341004 7.863150934094196 C44.76763327734344 8.154225126285892, 44.60370334634588 8.44529931847759, 44.39680197109089 8.812673661278923 M44.931563208341004 7.863150934094196 C44.78546706751868 8.12255942596268, 44.63937092669636 8.381967917831162, 44.39680197109089 8.812673661278923 M44.39680197109089 8.812673661278923 C44.212347459934435 9.096045323386754, 44.02789294877798 9.379416985494583, 43.802303328148255 9.725983222076879 M44.39680197109089 8.812673661278923 C44.25808256435576 9.025783921400471, 44.11936315762063 9.23889418152202, 43.802303328148255 9.725983222076879 M43.802303328148255 9.725983222076879 C43.57607613621936 10.029107049540425, 43.34984894429047 10.33223087700397, 43.15051020195651 10.599326631598467 M43.802303328148255 9.725983222076879 C43.65650415131575 9.921340836454178, 43.51070497448324 10.116698450831478, 43.15051020195651 10.599326631598467 M43.15051020195651 10.599326631598467 C42.93518701741075 10.852257496402213, 42.71986383286498 11.105188361205958, 42.44410095028037 11.42911513444238 M43.15051020195651 10.599326631598467 C42.90974970819913 10.88213760722608, 42.668989214441744 11.16494858285369, 42.44410095028037 11.42911513444238 M42.44410095028037 11.42911513444238 C42.18527606083867 11.69637308270956, 41.926451171396955 11.963631030976737, 41.68597836025927 12.211938951661365 M42.44410095028037 11.42911513444238 C42.26494266742203 11.614110770662194, 42.08578438456369 11.799106406882007, 41.68597836025927 12.211938951661365 M41.68597836025927 12.211938951661365 C41.37859732369427 12.491094276213136, 41.071216287129275 12.770249600764908, 40.87925772023242 12.944581292275275 M41.68597836025927 12.211938951661365 C41.387872431333165 12.482670868861398, 41.08976650240706 12.753402786061429, 40.87925772023242 12.944581292275275 M40.87925772023242 12.944581292275275 C40.63499869662173 13.139371363599198, 40.39073967301104 13.334161434923118, 40.027254018350675 13.62403157175526 M40.87925772023242 12.944581292275275 C40.65165726311941 13.126086600120367, 40.42405680600641 13.307591907965458, 40.027254018350675 13.62403157175526 M40.027254018350675 13.62403157175526 C39.69287879550852 13.857277252339845, 39.35850357266637 14.090522932924427, 39.13346832057934 14.247497783161286 M40.027254018350675 13.62403157175526 C39.8129669690283 13.773508941025689, 39.59867991970594 13.922986310296118, 39.13346832057934 14.247497783161286 M39.13346832057934 14.247497783161286 C38.77433554961397 14.465206179418914, 38.41520277864861 14.682914575676541, 38.20157338406695 14.81241797009762 M39.13346832057934 14.247497783161286 C38.78470907587189 14.458917686839763, 38.43594983116443 14.670337590518239, 38.20157338406695 14.81241797009762 M38.20157338406695 14.81241797009762 C37.91200989621368 14.963483056236402, 37.62244640836041 15.114548142375185, 37.23539856499849 15.316470754341124 M38.20157338406695 14.81241797009762 C37.92071114369885 14.958943620996806, 37.63984890333075 15.10546927189599, 37.23539856499849 15.316470754341124 M37.23539856499849 15.316470754341124 C36.99207117660572 15.424184571132084, 36.74874378821295 15.531898387923045, 36.238914082949364 15.757584874882367 M37.23539856499849 15.316470754341124 C36.917784346221104 15.457069147302827, 36.60017012744371 15.59766754026453, 36.238914082949364 15.757584874882367 M36.238914082949364 15.757584874882367 C35.95587657072603 15.861745295750636, 35.6728390585027 15.965905716618902, 35.21621470640156 16.133947699181363 M36.238914082949364 15.757584874882367 C35.90886015824045 15.87904777016028, 35.578806233531544 16.000510665438195, 35.21621470640156 16.133947699181363 M35.21621470640156 16.133947699181363 C34.953364469670056 16.211960269714226, 34.69051423293856 16.28997284024709, 34.17150292646164 16.444012671663497 M35.21621470640156 16.133947699181363 C34.99800061458593 16.198712496203097, 34.779786522770316 16.263477293224835, 34.17150292646164 16.444012671663497 M34.17150292646164 16.444012671663497 C33.806930905550026 16.527223856381802, 33.44235888463841 16.610435041100107, 33.10907168792333 16.68650566884811 M34.17150292646164 16.444012671663497 C33.94544877205675 16.495608057265198, 33.71939461765186 16.5472034428669, 33.10907168792333 16.68650566884811 M33.10907168792333 16.68650566884811 C32.831788426896786 16.731334676127076, 32.554505165870246 16.776163683406043, 32.03328674863661 16.86043023499518 M33.10907168792333 16.68650566884811 C32.813688889107745 16.7342608690328, 32.51830609029215 16.782016069217484, 32.03328674863661 16.86043023499518 M32.03328674863661 16.86043023499518 C31.808783175422242 16.88208782469812, 31.584279602207868 16.90374541440106, 30.94856873967212 16.965071676755716 M32.03328674863661 16.86043023499518 C31.731383151000827 16.889554511966907, 31.429479553365038 16.918678788938635, 30.94856873967212 16.965071676755716 M30.94856873967212 16.965071676755716 C30.52870901685974 16.978535760858936, 30.10884929404736 16.991999844962155, 29.859375000000004 17 M30.94856873967212 16.965071676755716 C30.586949685550017 16.976668095972624, 30.225330631427916 16.98826451518953, 29.859375000000004 17 M29.859375000000004 17 C29.859375000000004 17, 29.859375000000004 17, 29.859375 17 M29.859375000000004 17 C29.859375000000004 17, 29.859375000000004 17, 29.859375 17 M29.859375 17 C11.879410131917137 17, -6.100554736165726 17, -29.859374999999996 17 M29.859375 17 C13.403609274833695 17, -3.0521564503326104 17, -29.859374999999996 17 M-29.859374999999996 17 C-30.242327819027388 16.987719448466233, -30.62528063805478 16.97543889693247, -30.948568739672112 16.965071676755716 M-29.859374999999996 17 C-30.10597210882644 16.99209211069209, -30.352569217652878 16.98418422138418, -30.948568739672112 16.965071676755716 M-30.948568739672112 16.965071676755716 C-31.220643806870964 16.938824922241185, -31.492718874069816 16.912578167726654, -32.033286748636606 16.86043023499518 M-30.948568739672112 16.965071676755716 C-31.18204309624698 16.942548686370934, -31.415517452821845 16.92002569598615, -32.033286748636606 16.86043023499518 M-32.033286748636606 16.86043023499518 C-32.26110789364744 16.823597879049196, -32.488929038658284 16.78676552310321, -33.109071687923326 16.68650566884811 M-32.033286748636606 16.86043023499518 C-32.348293878340414 16.809502325181445, -32.66330100804422 16.75857441536771, -33.109071687923326 16.68650566884811 M-33.109071687923326 16.68650566884811 C-33.49358377960592 16.598743293097453, -33.87809587128851 16.510980917346792, -34.17150292646162 16.4440126716635 M-33.109071687923326 16.68650566884811 C-33.477404057339335 16.602436209122242, -33.84573642675535 16.518366749396378, -34.17150292646162 16.4440126716635 M-34.17150292646162 16.4440126716635 C-34.499419539338426 16.34668874223109, -34.82733615221523 16.24936481279868, -35.216214706401544 16.13394769918137 M-34.17150292646162 16.4440126716635 C-34.53134462223885 16.337213545204424, -34.89118631801608 16.230414418745347, -35.216214706401544 16.13394769918137 M-35.216214706401544 16.13394769918137 C-35.562044470893085 16.006679149033182, -35.90787423538463 15.879410598884997, -36.238914082949364 15.757584874882369 M-35.216214706401544 16.13394769918137 C-35.54867622012409 16.011598788890932, -35.88113773384663 15.889249878600493, -36.238914082949364 15.757584874882369 M-36.238914082949364 15.757584874882369 C-36.628971406583084 15.584918068349122, -37.0190287302168 15.412251261815875, -37.23539856499848 15.316470754341127 M-36.238914082949364 15.757584874882369 C-36.56269839244711 15.614255165788, -36.886482701944864 15.470925456693632, -37.23539856499848 15.316470754341127 M-37.23539856499848 15.316470754341127 C-37.4564340965791 15.201156659095533, -37.67746962815972 15.085842563849939, -38.20157338406693 14.812417970097624 M-37.23539856499848 15.316470754341127 C-37.61167816148101 15.120165929874776, -37.987957757963535 14.923861105408426, -38.20157338406693 14.812417970097624 M-38.20157338406693 14.812417970097624 C-38.38826980836611 14.699241500537491, -38.57496623266529 14.586065030977357, -39.13346832057932 14.247497783161299 M-38.20157338406693 14.812417970097624 C-38.38896199252601 14.698821894432031, -38.5763506009851 14.585225818766439, -39.13346832057932 14.247497783161299 M-39.13346832057932 14.247497783161299 C-39.472347450587925 14.011110371908398, -39.811226580596525 13.774722960655495, -40.02725401835067 13.624031571755264 M-39.13346832057932 14.247497783161299 C-39.46711390924471 14.01476106379307, -39.80075949791009 13.782024344424844, -40.02725401835067 13.624031571755264 M-40.02725401835067 13.624031571755264 C-40.33759968543004 13.376539160904507, -40.64794535250942 13.129046750053748, -40.8792577202324 12.94458129227529 M-40.02725401835067 13.624031571755264 C-40.362091727452814 13.35700740915196, -40.69692943655495 13.089983246548655, -40.8792577202324 12.94458129227529 M-40.8792577202324 12.94458129227529 C-41.09664461431584 12.747156266810743, -41.314031508399275 12.549731241346198, -41.68597836025926 12.211938951661377 M-40.8792577202324 12.94458129227529 C-41.11080063471399 12.734300143632916, -41.34234354919558 12.524018994990545, -41.68597836025926 12.211938951661377 M-41.68597836025926 12.211938951661377 C-41.863616474275325 12.0285130145794, -42.04125458829139 11.845087077497421, -42.444100950280365 11.429115134442386 M-41.68597836025926 12.211938951661377 C-41.89251887357882 11.998668914367428, -42.099059386898375 11.78539887707348, -42.444100950280365 11.429115134442386 M-42.444100950280365 11.429115134442386 C-42.64533586258052 11.192733155863733, -42.846570774880675 10.956351177285082, -43.15051020195651 10.599326631598473 M-42.444100950280365 11.429115134442386 C-42.65880619712549 11.176910134423458, -42.87351144397062 10.924705134404531, -43.15051020195651 10.599326631598473 M-43.15051020195651 10.599326631598473 C-43.37654523270631 10.296460282608653, -43.602580263456126 9.993593933618834, -43.80230332814825 9.72598322207689 M-43.15051020195651 10.599326631598473 C-43.32264744683384 10.368678405488463, -43.494784691711175 10.138030179378454, -43.80230332814825 9.72598322207689 M-43.80230332814825 9.72598322207689 C-44.02262121932011 9.387515777599448, -44.24293911049196 9.049048333122006, -44.39680197109088 8.812673661278936 M-43.80230332814825 9.72598322207689 C-43.98805203036626 9.44062333495955, -44.17380073258427 9.155263447842211, -44.39680197109088 8.812673661278936 M-44.39680197109088 8.812673661278936 C-44.56708456242502 8.510319677383025, -44.73736715375917 8.207965693487115, -44.931563208341004 7.863150934094201 M-44.39680197109088 8.812673661278936 C-44.59589432359439 8.459165029122158, -44.7949866760979 8.10565639696538, -44.931563208341004 7.863150934094201 M-44.931563208341004 7.863150934094201 C-45.10072882427073 7.511874913051785, -45.26989444020045 7.160598892009368, -45.40438959126881 6.881316833080701 M-44.931563208341004 7.863150934094201 C-45.09001867842343 7.534114760064123, -45.24847414850585 7.205078586034046, -45.40438959126881 6.881316833080701 M-45.40438959126881 6.881316833080701 C-45.54872881971932 6.524796148198799, -45.693068048169835 6.168275463316897, -45.813338174845924 5.87120592516224 M-45.40438959126881 6.881316833080701 C-45.54193265384111 6.541582809312912, -45.67947571641341 6.201848785545123, -45.813338174845924 5.87120592516224 M-45.813338174845924 5.87120592516224 C-45.93593492973236 5.5019640325845325, -46.0585316846188 5.132722140006825, -46.156728501623235 4.8369689727275516 M-45.813338174845924 5.87120592516224 C-45.94222495507128 5.483019478443144, -46.07111173529664 5.094833031724049, -46.156728501623235 4.8369689727275516 M-46.156728501623235 4.8369689727275516 C-46.22655004106445 4.570709181991583, -46.296371580505664 4.304449391255614, -46.433149507091 3.782855877257349 M-46.156728501623235 4.8369689727275516 C-46.256568502626415 4.456235777972259, -46.3564085036296 4.0755025832169665, -46.433149507091 3.782855877257349 M-46.433149507091 3.782855877257349 C-46.49530888817521 3.4636805927797627, -46.557468269259424 3.1445053083021763, -46.64146531804565 2.713198215567455 M-46.433149507091 3.782855877257349 C-46.49787488136675 3.450504760064089, -46.562600255642494 3.1181536428708294, -46.64146531804565 2.713198215567455 M-46.64146531804565 2.713198215567455 C-46.696977543123545 2.2826563599920253, -46.75248976820144 1.8521145044165952, -46.780819920136366 1.6323914404306026 M-46.64146531804565 2.713198215567455 C-46.69700382162872 2.28245254909519, -46.752542325211785 1.8517068826229246, -46.780819920136366 1.6323914404306026 M-46.780819920136366 1.6323914404306026 C-46.79575166969779 1.3998173883200764, -46.81068341925922 1.1672433362095505, -46.8506406754117 0.54487681871814 M-46.780819920136366 1.6323914404306026 C-46.80251897859993 1.2944110896959737, -46.82421803706348 0.9564307389613448, -46.8506406754117 0.54487681871814 M-46.8506406754117 0.54487681871814 C-46.8506406754117 0.12462725763736726, -46.8506406754117 -0.29562230344340545, -46.8506406754117 -0.5448768187181317 M-46.8506406754117 0.54487681871814 C-46.8506406754117 0.21779984159122645, -46.8506406754117 -0.10927713553568708, -46.8506406754117 -0.5448768187181317 M-46.8506406754117 -0.5448768187181317 C-46.82622513804595 -0.9251685210566867, -46.8018096006802 -1.3054602233952417, -46.780819920136366 -1.6323914404305793 M-46.8506406754117 -0.5448768187181317 C-46.83376621590516 -0.8077101463510367, -46.81689175639862 -1.0705434739839417, -46.780819920136366 -1.6323914404305793 M-46.780819920136366 -1.6323914404305793 C-46.74588086509974 -1.903371851797862, -46.71094181006311 -2.1743522631651446, -46.641465318045654 -2.713198215567447 M-46.780819920136366 -1.6323914404305793 C-46.741388948368254 -1.938210270937994, -46.70195797660014 -2.244029101445409, -46.641465318045654 -2.713198215567447 M-46.641465318045654 -2.713198215567447 C-46.56852406201866 -3.0877361491261426, -46.49558280599167 -3.4622740826848384, -46.433149507091 -3.782855877257341 M-46.641465318045654 -2.713198215567447 C-46.58354883393557 -3.0105871208194634, -46.52563234982549 -3.30797602607148, -46.433149507091 -3.782855877257341 M-46.433149507091 -3.782855877257341 C-46.3693380196711 -4.026196734863044, -46.305526532251186 -4.2695375924687475, -46.156728501623235 -4.836968972727544 M-46.433149507091 -3.782855877257341 C-46.35073856433862 -4.097124519100692, -46.268327621586245 -4.411393160944043, -46.156728501623235 -4.836968972727544 M-46.156728501623235 -4.836968972727544 C-46.059095920747765 -5.131022750685192, -45.961463339872296 -5.4250765286428395, -45.81333817484593 -5.871205925162218 M-46.156728501623235 -4.836968972727544 C-46.06413010275573 -5.115860596565179, -45.971531703888225 -5.394752220402814, -45.81333817484593 -5.871205925162218 M-45.81333817484593 -5.871205925162218 C-45.717753496468404 -6.107301928758754, -45.62216881809087 -6.34339793235529, -45.40438959126881 -6.881316833080692 M-45.81333817484593 -5.871205925162218 C-45.683851652307816 -6.191040139282963, -45.5543651297697 -6.510874353403709, -45.40438959126881 -6.881316833080692 M-45.40438959126881 -6.881316833080692 C-45.2734051046829 -7.153308922095384, -45.142420618096985 -7.425301011110076, -44.931563208341004 -7.863150934094194 M-45.40438959126881 -6.881316833080692 C-45.2987869177762 -7.100603044123352, -45.19318424428358 -7.319889255166011, -44.931563208341004 -7.863150934094194 M-44.931563208341004 -7.863150934094194 C-44.810693807400874 -8.077766794817428, -44.689824406460744 -8.292382655540663, -44.39680197109088 -8.812673661278929 M-44.931563208341004 -7.863150934094194 C-44.779855465124 -8.132523394250784, -44.628147721907006 -8.401895854407373, -44.39680197109088 -8.812673661278929 M-44.39680197109088 -8.812673661278929 C-44.250888149430295 -9.036836474696894, -44.1049743277697 -9.260999288114862, -43.80230332814825 -9.725983222076884 M-44.39680197109088 -8.812673661278929 C-44.20338558803753 -9.109813165219952, -44.00996920498418 -9.406952669160976, -43.80230332814825 -9.725983222076884 M-43.80230332814825 -9.725983222076884 C-43.60969267255103 -9.984063953385458, -43.4170820169538 -10.242144684694033, -43.15051020195651 -10.599326631598467 M-43.80230332814825 -9.725983222076884 C-43.6468781405728 -9.934238813902107, -43.491452952997356 -10.142494405727328, -43.15051020195651 -10.599326631598467 M-43.15051020195651 -10.599326631598467 C-42.89547722919017 -10.898902873197057, -42.64044425642384 -11.198479114795646, -42.44410095028037 -11.42911513444238 M-43.15051020195651 -10.599326631598467 C-42.93242078818246 -10.85550686665666, -42.71433137440841 -11.111687101714852, -42.44410095028037 -11.42911513444238 M-42.44410095028037 -11.42911513444238 C-42.14274714122012 -11.740287683904947, -41.84139333215986 -12.051460233367512, -41.68597836025928 -12.21193895166136 M-42.44410095028037 -11.42911513444238 C-42.20404173201777 -11.676995986526876, -41.96398251375517 -11.924876838611372, -41.68597836025928 -12.21193895166136 M-41.68597836025928 -12.21193895166136 C-41.45562177059661 -12.421142711491626, -41.22526518093393 -12.630346471321895, -40.87925772023242 -12.944581292275274 M-41.68597836025928 -12.21193895166136 C-41.4123305166348 -12.460458682915926, -41.13868267301032 -12.70897841417049, -40.87925772023242 -12.944581292275274 M-40.87925772023242 -12.944581292275274 C-40.61483940140623 -13.155447865072178, -40.35042108258005 -13.366314437869084, -40.027254018350675 -13.624031571755259 M-40.87925772023242 -12.944581292275274 C-40.54775125981097 -13.208948872703973, -40.21624479938953 -13.473316453132671, -40.027254018350675 -13.624031571755259 M-40.027254018350675 -13.624031571755259 C-39.81093076917211 -13.774929305899697, -39.59460751999355 -13.925827040044133, -39.13346832057934 -14.247497783161284 M-40.027254018350675 -13.624031571755259 C-39.68157290855616 -13.865163749653853, -39.335891798761644 -14.106295927552447, -39.13346832057934 -14.247497783161284 M-39.13346832057934 -14.247497783161284 C-38.86190822456076 -14.412119109232012, -38.59034812854217 -14.576740435302742, -38.20157338406695 -14.812417970097618 M-39.13346832057934 -14.247497783161284 C-38.789711940651664 -14.45588492081016, -38.445955560723995 -14.664272058459037, -38.20157338406695 -14.812417970097618 M-38.20157338406695 -14.812417970097618 C-37.87599847746083 -14.982270190333347, -37.550423570854726 -15.152122410569074, -37.23539856499849 -15.316470754341124 M-38.20157338406695 -14.812417970097618 C-37.86856422251271 -14.986148636377914, -37.53555506095848 -15.15987930265821, -37.23539856499849 -15.316470754341124 M-37.23539856499849 -15.316470754341124 C-36.869178811345726 -15.478585375760193, -36.502959057692955 -15.640699997179263, -36.23891408294937 -15.757584874882365 M-37.23539856499849 -15.316470754341124 C-36.89839124619835 -15.465653897407027, -36.56138392739821 -15.61483704047293, -36.23891408294937 -15.757584874882365 M-36.23891408294937 -15.757584874882365 C-35.916305203015575 -15.876307924861798, -35.59369632308177 -15.995030974841232, -35.216214706401566 -16.133947699181363 M-36.23891408294937 -15.757584874882365 C-35.998637205063545 -15.84600898703946, -35.758360327177726 -15.934433099196555, -35.216214706401566 -16.133947699181363 M-35.216214706401566 -16.133947699181363 C-34.87877187362291 -16.23409896067649, -34.54132904084426 -16.334250222171622, -34.17150292646164 -16.444012671663494 M-35.216214706401566 -16.133947699181363 C-34.86206601041208 -16.239057173186602, -34.5079173144226 -16.34416664719184, -34.17150292646164 -16.444012671663494 M-34.17150292646164 -16.444012671663494 C-33.906553373720946 -16.504485678119146, -33.64160382098025 -16.564958684574798, -33.10907168792333 -16.68650566884811 M-34.17150292646164 -16.444012671663494 C-33.84761724948023 -16.517937463882937, -33.52373157249882 -16.59186225610238, -33.10907168792333 -16.68650566884811 M-33.10907168792333 -16.68650566884811 C-32.75732779361114 -16.743372893865864, -32.405583899298954 -16.800240118883618, -32.03328674863661 -16.86043023499518 M-33.10907168792333 -16.68650566884811 C-32.839790187681075 -16.730041013498056, -32.57050868743882 -16.773576358148, -32.03328674863661 -16.86043023499518 M-32.03328674863661 -16.86043023499518 C-31.69916710598726 -16.892662355083903, -31.36504746333791 -16.924894475172625, -30.94856873967212 -16.965071676755716 M-32.03328674863661 -16.86043023499518 C-31.743226735505473 -16.88841197561374, -31.453166722374334 -16.916393716232296, -30.94856873967212 -16.965071676755716 M-30.94856873967212 -16.965071676755716 C-30.61322636588824 -16.975825453978633, -30.27788399210436 -16.98657923120155, -29.859375000000004 -17 M-30.94856873967212 -16.965071676755716 C-30.522470991983603 -16.978735802175134, -30.096373244295087 -16.992399927594555, -29.859375000000004 -17 M-29.859375000000004 -17 C-29.859375000000004 -17, -29.859375 -17, -29.859375 -17 M-29.859375000000004 -17 C-29.859375000000004 -17, -29.859375000000004 -17, -29.859375 -17" stroke="#1E5A1E" stroke-width="1.3" fill="none" stroke-dasharray="0 0" style="fill:#2D7A2D !important;stroke:#1E5A1E !important"></path></g><g class="label" style="color:#fff !important" transform="translate(0, -9.5)"><rect></rect><g><rect class="background" style="stroke: none"></rect><text y="-10.1" style="fill:#fff !important"><tspan class="text-outer-tspan row" x="0" y="-0.1em" dy="1.1em"><tspan font-style="normal" class="text-inner-tspan" font-weight="normal">Processed</tspan></tspan></text></g></g></g><g class="node default decision" id="g4fdc2472-9493-4a5b-a0ca-e9e58ddd89fc-light-flowchart-transient-4" data-look="classic" transform="translate(251.00596618652344, 356.1749954223633)"><polygon points="66.17499923706055,0 132.3499984741211,-66.17499923706055 66.17499923706055,-132.3499984741211 0,-66.17499923706055" class="label-container" transform="translate(-65.67499923706055, 66.17499923706055)" style="fill:#2E5A88 !important;stroke:#1F4870 !important"></polygon><g class="label" style="color:#fff !important" transform="translate(0, -18.299999237060547)"><rect></rect><g><rect class="background" style="stroke: none"></rect><text y="-10.1" style="fill:#fff !important"><tspan class="text-outer-tspan row" x="0" y="-0.1em" dy="1.1em"><tspan font-style="normal" class="text-inner-tspan" font-weight="normal">Transient</tspan></tspan><tspan class="text-outer-tspan row" x="0" y="1em" dy="1.1em"><tspan font-style="normal" class="text-inner-tspan" font-weight="normal">failure?</tspan></tspan></text></g></g></g><g class="node default decision" id="g4fdc2472-9493-4a5b-a0ca-e9e58ddd89fc-light-flowchart-poison-5" data-look="classic" transform="translate(443.18955993652344, 601.0234298706055)"><polygon points="88.07343673706055,0 176.1468734741211,-88.07343673706055 88.07343673706055,-176.1468734741211 0,-88.07343673706055" class="label-container" transform="translate(-87.57343673706055, 88.07343673706055)" style="fill:#2E5A88 !important;stroke:#1F4870 !important"></polygon><g class="label" style="color:#fff !important" transform="translate(0, -18.299999237060547)"><rect></rect><g><rect class="background" style="stroke: none"></rect><text y="-10.1" style="fill:#fff !important"><tspan class="text-outer-tspan row" x="0" y="-0.1em" dy="1.1em"><tspan font-style="normal" class="text-inner-tspan" font-weight="normal">Delivery</tspan><tspan font-style="normal" class="text-inner-tspan" font-weight="normal"> count</tspan></tspan><tspan class="text-outer-tspan row" x="0" y="1em" dy="1.1em"><tspan font-style="normal" class="text-inner-tspan" font-weight="normal">over</tspan><tspan font-style="normal" class="text-inner-tspan" font-weight="normal"> threshold?</tspan></tspan></text></g></g></g><g class="node default storage" id="g4fdc2472-9493-4a5b-a0ca-e9e58ddd89fc-light-flowchart-DLQ-6" data-look="classic" transform="translate(235.28721618652344, 808.0638427734375)"><path d="M0,13.44464987289115 a72.71875,13.44464987289115 0,0,0 145.4375,0 a72.71875,13.44464987289115 0,0,0 -145.4375,0 l0,65.04464834701224 a72.71875,13.44464987289115 0,0,0 145.4375,0 l0,-65.04464834701224" class="basic label-container outer-path" style="fill:#8B5E15 !important;stroke:#6E4810 !important" transform="translate(-72.71875, -45.96697404639727)"></path><g class="label" style="color:#fff !important" transform="translate(0, -9.299999237060547)"><rect></rect><g><rect class="background" style="stroke: none"></rect><text y="-10.1" style="fill:#fff !important"><tspan class="text-outer-tspan row" x="0" y="-0.1em" dy="1.1em"><tspan font-style="normal" class="text-inner-tspan" font-weight="normal">Dead</tspan><tspan font-style="normal" class="text-inner-tspan" font-weight="normal"> letter</tspan><tspan font-style="normal" class="text-inner-tspan" font-weight="normal"> queue</tspan></tspan><tspan class="text-outer-tspan row" x="0" y="1em" dy="1.1em"><tspan font-style="normal" class="text-inner-tspan" font-weight="normal">(audited,</tspan><tspan font-style="normal" class="text-inner-tspan" font-weight="normal"> alerted)</tspan></tspan></text></g></g></g><g class="node default neutral" id="g4fdc2472-9493-4a5b-a0ca-e9e58ddd89fc-light-flowchart-OPS-7" data-look="classic" transform="translate(539.2122192382812, 928.5308151245117)"><rect class="basic label-container" style="fill:#5A5A5A !important;stroke:#3D3D3D !important" x="-103.578125" y="-24.5" width="207.15625" height="49"></rect><g class="label" style="color:#fff !important" transform="translate(0, -9.5)"><rect></rect><g><rect class="background" style="stroke: none"></rect><text y="-10.1" style="fill:#fff !important"><tspan class="text-outer-tspan row" x="0" y="-0.1em" dy="1.1em"><tspan font-style="normal" class="text-inner-tspan" font-weight="normal">On-call</tspan><tspan font-style="normal" class="text-inner-tspan" font-weight="normal"> /</tspan><tspan font-style="normal" class="text-inner-tspan" font-weight="normal"> replay</tspan><tspan font-style="normal" class="text-inner-tspan" font-weight="normal"> tool</tspan></tspan></text></g></g></g><g class="node default retry" id="g4fdc2472-9493-4a5b-a0ca-e9e58ddd89fc-light-flowchart-backoff-16" data-look="classic" transform="translate(504.72628021240234, 808.0638427734375)"><rect class="basic label-container" style="fill:#5A5A5A !important;stroke:#3D3D3D !important" x="-129.5703125" y="-33.29999923706055" width="259.140625" height="66.5999984741211"></rect><g class="label" style="color:#fff !important" transform="translate(0, -18.299999237060547)"><rect></rect><g><rect class="background" style="stroke: none"></rect><text y="-10.1" style="fill:#fff !important"><tspan class="text-outer-tspan row" x="0" y="-0.1em" dy="1.1em"><tspan font-style="normal" class="text-inner-tspan" font-weight="normal">Requeue</tspan></tspan><tspan class="text-outer-tspan row" x="0" y="1em" dy="1.1em"><tspan font-style="normal" class="text-inner-tspan" font-weight="normal">exponential</tspan><tspan font-style="normal" class="text-inner-tspan" font-weight="normal"> backoff</tspan><tspan font-style="normal" class="text-inner-tspan" font-weight="normal"> +</tspan><tspan font-style="normal" class="text-inner-tspan" font-weight="normal"> jitter</tspan></tspan></text></g></g></g></g></g></g><defs><filter id="g4fdc2472-9493-4a5b-a0ca-e9e58ddd89fc-light-drop-shadow" height="130%" width="130%"><feDropShadow dx="4" dy="4" stdDeviation="0" flood-opacity="0.06" flood-color="#000000"></feDropShadow></filter></defs><defs><filter id="g4fdc2472-9493-4a5b-a0ca-e9e58ddd89fc-light-drop-shadow-small" height="150%" width="150%"><feDropShadow dx="2" dy="2" stdDeviation="0" flood-opacity="0.06" flood-color="#000000"></feDropShadow></filter></defs></svg>