<svg id="gb18f39eb-f56a-4b41-ab3e-20046c527fb5-dark" width="100%" xmlns="http://www.w3.org/2000/svg" xmlns:xlink="http://www.w3.org/1999/xlink" class="flowchart" style="max-width: 487.484375px;" viewBox="0 0 487.484375 850.1499633789062" role="graphics-document document" aria-roledescription="flowchart-v2"><style>#gb18f39eb-f56a-4b41-ab3e-20046c527fb5-dark{font-family:"trebuchet ms",verdana,arial,sans-serif;font-size:16px;fill:#e5e5e5;}@keyframes edge-animation-frame{from{stroke-dashoffset:0;}}@keyframes dash{to{stroke-dashoffset:0;}}#gb18f39eb-f56a-4b41-ab3e-20046c527fb5-dark .edge-animation-slow{stroke-dasharray:9,5!important;stroke-dashoffset:900;animation:dash 50s linear infinite;stroke-linecap:round;}#gb18f39eb-f56a-4b41-ab3e-20046c527fb5-dark .edge-animation-fast{stroke-dasharray:9,5!important;stroke-dashoffset:900;animation:dash 20s linear infinite;stroke-linecap:round;}#gb18f39eb-f56a-4b41-ab3e-20046c527fb5-dark .error-icon{fill:#252525;}#gb18f39eb-f56a-4b41-ab3e-20046c527fb5-dark .error-text{fill:#cccccc;stroke:#cccccc;}#gb18f39eb-f56a-4b41-ab3e-20046c527fb5-dark .edge-thickness-normal{stroke-width:1px;}#gb18f39eb-f56a-4b41-ab3e-20046c527fb5-dark .edge-thickness-thick{stroke-width:3.5px;}#gb18f39eb-f56a-4b41-ab3e-20046c527fb5-dark .edge-pattern-solid{stroke-dasharray:0;}#gb18f39eb-f56a-4b41-ab3e-20046c527fb5-dark .edge-thickness-invisible{stroke-width:0;fill:none;}#gb18f39eb-f56a-4b41-ab3e-20046c527fb5-dark .edge-pattern-dashed{stroke-dasharray:3;}#gb18f39eb-f56a-4b41-ab3e-20046c527fb5-dark .edge-pattern-dotted{stroke-dasharray:2;}#gb18f39eb-f56a-4b41-ab3e-20046c527fb5-dark .marker{fill:#cccccc;stroke:#cccccc;}#gb18f39eb-f56a-4b41-ab3e-20046c527fb5-dark .marker.cross{stroke:#cccccc;}#gb18f39eb-f56a-4b41-ab3e-20046c527fb5-dark svg{font-family:"trebuchet ms",verdana,arial,sans-serif;font-size:16px;}#gb18f39eb-f56a-4b41-ab3e-20046c527fb5-dark p{margin:0;}#gb18f39eb-f56a-4b41-ab3e-20046c527fb5-dark .label{font-family:"trebuchet ms",verdana,arial,sans-serif;color:#e5e5e5;}#gb18f39eb-f56a-4b41-ab3e-20046c527fb5-dark .cluster-label text{fill:#e5e5e5;}#gb18f39eb-f56a-4b41-ab3e-20046c527fb5-dark .cluster-label span{color:#e5e5e5;}#gb18f39eb-f56a-4b41-ab3e-20046c527fb5-dark .cluster-label span p{background-color:transparent;}#gb18f39eb-f56a-4b41-ab3e-20046c527fb5-dark .label text,#gb18f39eb-f56a-4b41-ab3e-20046c527fb5-dark span{fill:#e5e5e5;color:#e5e5e5;}#gb18f39eb-f56a-4b41-ab3e-20046c527fb5-dark .node rect,#gb18f39eb-f56a-4b41-ab3e-20046c527fb5-dark .node circle,#gb18f39eb-f56a-4b41-ab3e-20046c527fb5-dark .node ellipse,#gb18f39eb-f56a-4b41-ab3e-20046c527fb5-dark .node polygon,#gb18f39eb-f56a-4b41-ab3e-20046c527fb5-dark .node path{fill:#2d2d2d;stroke:#555555;stroke-width:1px;}#gb18f39eb-f56a-4b41-ab3e-20046c527fb5-dark .rough-node .label text,#gb18f39eb-f56a-4b41-ab3e-20046c527fb5-dark .node .label text,#gb18f39eb-f56a-4b41-ab3e-20046c527fb5-dark .image-shape .label,#gb18f39eb-f56a-4b41-ab3e-20046c527fb5-dark .icon-shape .label{text-anchor:middle;}#gb18f39eb-f56a-4b41-ab3e-20046c527fb5-dark .node .katex path{fill:#000;stroke:#000;stroke-width:1px;}#gb18f39eb-f56a-4b41-ab3e-20046c527fb5-dark .rough-node .label,#gb18f39eb-f56a-4b41-ab3e-20046c527fb5-dark .node .label,#gb18f39eb-f56a-4b41-ab3e-20046c527fb5-dark .image-shape .label,#gb18f39eb-f56a-4b41-ab3e-20046c527fb5-dark .icon-shape .label{text-align:center;}#gb18f39eb-f56a-4b41-ab3e-20046c527fb5-dark .node.clickable{cursor:pointer;}#gb18f39eb-f56a-4b41-ab3e-20046c527fb5-dark .root .anchor path{fill:#cccccc!important;stroke-width:0;stroke:#cccccc;}#gb18f39eb-f56a-4b41-ab3e-20046c527fb5-dark .arrowheadPath{fill:#cccccc;}#gb18f39eb-f56a-4b41-ab3e-20046c527fb5-dark .edgePath .path{stroke:#cccccc;stroke-width:1px;}#gb18f39eb-f56a-4b41-ab3e-20046c527fb5-dark .flowchart-link{stroke:#cccccc;fill:none;}#gb18f39eb-f56a-4b41-ab3e-20046c527fb5-dark .edgeLabel{background-color:#1e1e1e;text-align:center;}#gb18f39eb-f56a-4b41-ab3e-20046c527fb5-dark .edgeLabel p{background-color:#1e1e1e;}#gb18f39eb-f56a-4b41-ab3e-20046c527fb5-dark .edgeLabel rect{opacity:0.5;background-color:#1e1e1e;fill:#1e1e1e;}#gb18f39eb-f56a-4b41-ab3e-20046c527fb5-dark .labelBkg{background-color:rgba(30, 30, 30, 0.5);}#gb18f39eb-f56a-4b41-ab3e-20046c527fb5-dark .cluster rect{fill:#1e1e1e;stroke:#555555;stroke-width:1px;}#gb18f39eb-f56a-4b41-ab3e-20046c527fb5-dark .cluster text{fill:#e5e5e5;}#gb18f39eb-f56a-4b41-ab3e-20046c527fb5-dark .cluster span{color:#e5e5e5;}#gb18f39eb-f56a-4b41-ab3e-20046c527fb5-dark div.mermaidTooltip{position:absolute;text-align:center;max-width:200px;padding:2px;font-family:"trebuchet ms",verdana,arial,sans-serif;font-size:12px;background:#252525;border:1px solid #555555;border-radius:2px;pointer-events:none;z-index:100;}#gb18f39eb-f56a-4b41-ab3e-20046c527fb5-dark .flowchartTitleText{text-anchor:middle;font-size:18px;fill:#e5e5e5;}#gb18f39eb-f56a-4b41-ab3e-20046c527fb5-dark rect.text{fill:none;stroke-width:0;}#gb18f39eb-f56a-4b41-ab3e-20046c527fb5-dark .icon-shape,#gb18f39eb-f56a-4b41-ab3e-20046c527fb5-dark .image-shape{background-color:#1e1e1e;text-align:center;}#gb18f39eb-f56a-4b41-ab3e-20046c527fb5-dark .icon-shape p,#gb18f39eb-f56a-4b41-ab3e-20046c527fb5-dark .image-shape p{background-color:#1e1e1e;padding:2px;}#gb18f39eb-f56a-4b41-ab3e-20046c527fb5-dark .icon-shape .label rect,#gb18f39eb-f56a-4b41-ab3e-20046c527fb5-dark .image-shape .label rect{opacity:0.5;background-color:#1e1e1e;fill:#1e1e1e;}#gb18f39eb-f56a-4b41-ab3e-20046c527fb5-dark .label-icon{display:inline-block;height:1em;overflow:visible;vertical-align:-0.125em;}#gb18f39eb-f56a-4b41-ab3e-20046c527fb5-dark .node .label-icon path{fill:currentColor;stroke:revert;stroke-width:revert;}#gb18f39eb-f56a-4b41-ab3e-20046c527fb5-dark .node .neo-node{stroke:#555555;}#gb18f39eb-f56a-4b41-ab3e-20046c527fb5-dark [data-look="neo"].node rect,#gb18f39eb-f56a-4b41-ab3e-20046c527fb5-dark [data-look="neo"].cluster rect,#gb18f39eb-f56a-4b41-ab3e-20046c527fb5-dark [data-look="neo"].node polygon{stroke:url(#gb18f39eb-f56a-4b41-ab3e-20046c527fb5-dark-gradient);filter:drop-shadow( 1px 2px 2px rgba(185,185,185,1));}#gb18f39eb-f56a-4b41-ab3e-20046c527fb5-dark [data-look="neo"].node path{stroke:url(#gb18f39eb-f56a-4b41-ab3e-20046c527fb5-dark-gradient);stroke-width:1px;}#gb18f39eb-f56a-4b41-ab3e-20046c527fb5-dark [data-look="neo"].node .outer-path{filter:drop-shadow( 1px 2px 2px rgba(185,185,185,1));}#gb18f39eb-f56a-4b41-ab3e-20046c527fb5-dark [data-look="neo"].node .neo-line path{stroke:#555555;filter:none;}#gb18f39eb-f56a-4b41-ab3e-20046c527fb5-dark [data-look="neo"].node circle{stroke:url(#gb18f39eb-f56a-4b41-ab3e-20046c527fb5-dark-gradient);filter:drop-shadow( 1px 2px 2px rgba(185,185,185,1));}#gb18f39eb-f56a-4b41-ab3e-20046c527fb5-dark [data-look="neo"].node circle .state-start{fill:#000000;}#gb18f39eb-f56a-4b41-ab3e-20046c527fb5-dark [data-look="neo"].icon-shape .icon{fill:url(#gb18f39eb-f56a-4b41-ab3e-20046c527fb5-dark-gradient);filter:drop-shadow( 1px 2px 2px rgba(185,185,185,1));}#gb18f39eb-f56a-4b41-ab3e-20046c527fb5-dark [data-look="neo"].icon-shape .icon-neo path{stroke:url(#gb18f39eb-f56a-4b41-ab3e-20046c527fb5-dark-gradient);filter:drop-shadow( 1px 2px 2px rgba(185,185,185,1));}#gb18f39eb-f56a-4b41-ab3e-20046c527fb5-dark :root{--mermaid-font-family:"trebuchet ms",verdana,arial,sans-serif;}#gb18f39eb-f56a-4b41-ab3e-20046c527fb5-dark .primaryC rect{fill:#2E5A88!important;stroke:#1F4870!important;color:#ffffff!important;}#gb18f39eb-f56a-4b41-ab3e-20046c527fb5-dark .primaryC polygon{fill:#2E5A88!important;stroke:#1F4870!important;color:#ffffff!important;}#gb18f39eb-f56a-4b41-ab3e-20046c527fb5-dark .primaryC ellipse{fill:#2E5A88!important;stroke:#1F4870!important;color:#ffffff!important;}#gb18f39eb-f56a-4b41-ab3e-20046c527fb5-dark .primaryC circle{fill:#2E5A88!important;stroke:#1F4870!important;color:#ffffff!important;}#gb18f39eb-f56a-4b41-ab3e-20046c527fb5-dark .primaryC path{fill:#2E5A88!important;stroke:#1F4870!important;color:#ffffff!important;}#gb18f39eb-f56a-4b41-ab3e-20046c527fb5-dark .primaryC tspan{fill:#ffffff!important;}#gb18f39eb-f56a-4b41-ab3e-20046c527fb5-dark .accentC rect{fill:#1F6E68!important;stroke:#155752!important;color:#ffffff!important;}#gb18f39eb-f56a-4b41-ab3e-20046c527fb5-dark .accentC polygon{fill:#1F6E68!important;stroke:#155752!important;color:#ffffff!important;}#gb18f39eb-f56a-4b41-ab3e-20046c527fb5-dark .accentC ellipse{fill:#1F6E68!important;stroke:#155752!important;color:#ffffff!important;}#gb18f39eb-f56a-4b41-ab3e-20046c527fb5-dark .accentC circle{fill:#1F6E68!important;stroke:#155752!important;color:#ffffff!important;}#gb18f39eb-f56a-4b41-ab3e-20046c527fb5-dark .accentC path{fill:#1F6E68!important;stroke:#155752!important;color:#ffffff!important;}#gb18f39eb-f56a-4b41-ab3e-20046c527fb5-dark .accentC tspan{fill:#ffffff!important;}#gb18f39eb-f56a-4b41-ab3e-20046c527fb5-dark .neutralC rect{fill:#5A5A5A!important;stroke:#3D3D3D!important;color:#ffffff!important;}#gb18f39eb-f56a-4b41-ab3e-20046c527fb5-dark .neutralC polygon{fill:#5A5A5A!important;stroke:#3D3D3D!important;color:#ffffff!important;}#gb18f39eb-f56a-4b41-ab3e-20046c527fb5-dark .neutralC ellipse{fill:#5A5A5A!important;stroke:#3D3D3D!important;color:#ffffff!important;}#gb18f39eb-f56a-4b41-ab3e-20046c527fb5-dark .neutralC circle{fill:#5A5A5A!important;stroke:#3D3D3D!important;color:#ffffff!important;}#gb18f39eb-f56a-4b41-ab3e-20046c527fb5-dark .neutralC path{fill:#5A5A5A!important;stroke:#3D3D3D!important;color:#ffffff!important;}#gb18f39eb-f56a-4b41-ab3e-20046c527fb5-dark .neutralC tspan{fill:#ffffff!important;}</style><g><marker id="gb18f39eb-f56a-4b41-ab3e-20046c527fb5-dark_flowchart-v2-pointEnd" class="marker flowchart-v2" viewBox="0 0 10 10" refX="5" refY="5" markerUnits="userSpaceOnUse" markerWidth="8" markerHeight="8" orient="auto"><path d="M 0 0 L 10 5 L 0 10 z" class="arrowMarkerPath" style="stroke-width: 1; stroke-dasharray: 1, 0;"></path></marker><marker id="gb18f39eb-f56a-4b41-ab3e-20046c527fb5-dark_flowchart-v2-pointStart" class="marker flowchart-v2" viewBox="0 0 10 10" refX="4.5" refY="5" markerUnits="userSpaceOnUse" markerWidth="8" markerHeight="8" orient="auto"><path d="M 0 5 L 10 10 L 10 0 z" class="arrowMarkerPath" style="stroke-width: 1; stroke-dasharray: 1, 0;"></path></marker><marker id="gb18f39eb-f56a-4b41-ab3e-20046c527fb5-dark_flowchart-v2-pointEnd-margin" class="marker flowchart-v2" viewBox="0 0 11.5 14" refX="11.5" refY="7" markerUnits="userSpaceOnUse" markerWidth="10.5" markerHeight="14" orient="auto"><path d="M 0 0 L 11.5 7 L 0 14 z" class="arrowMarkerPath" style="stroke-width: 0; stroke-dasharray: 1, 0;"></path></marker><marker id="gb18f39eb-f56a-4b41-ab3e-20046c527fb5-dark_flowchart-v2-pointStart-margin" class="marker flowchart-v2" viewBox="0 0 11.5 14" refX="1" refY="7" markerUnits="userSpaceOnUse" markerWidth="11.5" markerHeight="14" orient="auto"><polygon points="0,7 11.5,14 11.5,0" class="arrowMarkerPath" style="stroke-width: 0; stroke-dasharray: 1, 0;"></polygon></marker><marker id="gb18f39eb-f56a-4b41-ab3e-20046c527fb5-dark_flowchart-v2-circleEnd" class="marker flowchart-v2" viewBox="0 0 10 10" refX="11" refY="5" markerUnits="userSpaceOnUse" markerWidth="11" markerHeight="11" orient="auto"><circle cx="5" cy="5" r="5" class="arrowMarkerPath" style="stroke-width: 1; stroke-dasharray: 1, 0;"></circle></marker><marker id="gb18f39eb-f56a-4b41-ab3e-20046c527fb5-dark_flowchart-v2-circleStart" class="marker flowchart-v2" viewBox="0 0 10 10" refX="-1" refY="5" markerUnits="userSpaceOnUse" markerWidth="11" markerHeight="11" orient="auto"><circle cx="5" cy="5" r="5" class="arrowMarkerPath" style="stroke-width: 1; stroke-dasharray: 1, 0;"></circle></marker><marker id="gb18f39eb-f56a-4b41-ab3e-20046c527fb5-dark_flowchart-v2-circleEnd-margin" class="marker flowchart-v2" viewBox="0 0 10 10" refY="5" refX="12.25" markerUnits="userSpaceOnUse" markerWidth="14" markerHeight="14" orient="auto"><circle cx="5" cy="5" r="5" class="arrowMarkerPath" style="stroke-width: 0; stroke-dasharray: 1, 0;"></circle></marker><marker id="gb18f39eb-f56a-4b41-ab3e-20046c527fb5-dark_flowchart-v2-circleStart-margin" class="marker flowchart-v2" viewBox="0 0 10 10" refX="-2" refY="5" markerUnits="userSpaceOnUse" markerWidth="14" markerHeight="14" orient="auto"><circle cx="5" cy="5" r="5" class="arrowMarkerPath" style="stroke-width: 0; stroke-dasharray: 1, 0;"></circle></marker><marker id="gb18f39eb-f56a-4b41-ab3e-20046c527fb5-dark_flowchart-v2-crossEnd" class="marker cross flowchart-v2" viewBox="0 0 11 11" refX="12" refY="5.2" markerUnits="userSpaceOnUse" markerWidth="11" markerHeight="11" orient="auto"><path d="M 1,1 l 9,9 M 10,1 l -9,9" class="arrowMarkerPath" style="stroke-width: 2; stroke-dasharray: 1, 0;"></path></marker><marker id="gb18f39eb-f56a-4b41-ab3e-20046c527fb5-dark_flowchart-v2-crossStart" class="marker cross flowchart-v2" viewBox="0 0 11 11" refX="-1" refY="5.2" markerUnits="userSpaceOnUse" markerWidth="11" markerHeight="11" orient="auto"><path d="M 1,1 l 9,9 M 10,1 l -9,9" class="arrowMarkerPath" style="stroke-width: 2; stroke-dasharray: 1, 0;"></path></marker><marker id="gb18f39eb-f56a-4b41-ab3e-20046c527fb5-dark_flowchart-v2-crossEnd-margin" class="marker cross flowchart-v2" viewBox="0 0 15 15" refX="17.7" refY="7.5" markerUnits="userSpaceOnUse" markerWidth="12" markerHeight="12" orient="auto"><path d="M 1,1 L 14,14 M 1,14 L 14,1" class="arrowMarkerPath" style="stroke-width: 2.5;"></path></marker><marker id="gb18f39eb-f56a-4b41-ab3e-20046c527fb5-dark_flowchart-v2-crossStart-margin" class="marker cross flowchart-v2" viewBox="0 0 15 15" refX="-3.5" refY="7.5" markerUnits="userSpaceOnUse" markerWidth="12" markerHeight="12" orient="auto"><path d="M 1,1 L 14,14 M 1,14 L 14,1" class="arrowMarkerPath" style="stroke-width: 2.5; stroke-dasharray: 1, 0;"></path></marker><g class="root"><g class="clusters"></g><g class="edgePaths"><path d="M223.176,42.5L223.092,46.583C223.009,50.667,222.842,58.833,222.759,66.417C222.676,74,222.676,81,222.676,84.5L222.676,88" id="gb18f39eb-f56a-4b41-ab3e-20046c527fb5-dark-L_entry_q1_0" class="edge-thickness-normal edge-pattern-solid edge-thickness-normal edge-pattern-solid flowchart-link" style=";" data-edge="true" data-et="edge" data-id="L_entry_q1_0" data-points="W3sieCI6MjIzLjE3NTc4MTI1LCJ5Ijo0Mi41fSx7IngiOjIyMi42NzU3ODEyNSwieSI6Njd9LHsieCI6MjIyLjY3NTc4MTI1LCJ5Ijo5Mn1d" data-look="classic" marker-end="url(#gb18f39eb-f56a-4b41-ab3e-20046c527fb5-dark_flowchart-v2-pointEnd)"></path><path d="M176.933,211.944L160.032,225.652C143.132,239.359,109.332,266.773,92.431,298.557C75.531,330.341,75.531,366.495,75.531,402.648C75.531,438.802,75.531,474.956,75.531,509.094C75.531,543.233,75.531,575.356,75.531,607.48C75.531,639.603,75.531,671.727,77.627,693.249C79.723,714.772,83.916,725.694,86.012,731.155L88.108,736.616" id="gb18f39eb-f56a-4b41-ab3e-20046c527fb5-dark-L_q1_le_0" class="edge-thickness-normal edge-pattern-solid edge-thickness-normal edge-pattern-solid flowchart-link" style=";" data-edge="true" data-et="edge" data-id="L_q1_le_0" data-points="W3sieCI6MTc2LjkzMjY2Mzc1MzE4ODE3LCJ5IjoyMTEuOTQ0MzgyNTAzMTg4MTd9LHsieCI6NzUuNTMxMjUsInkiOjI5NC4xODc1fSx7IngiOjc1LjUzMTI1LCJ5Ijo0MDIuNjQ4NDM3NX0seyJ4Ijo3NS41MzEyNSwieSI6NTExLjEwOTM3NX0seyJ4Ijo3NS41MzEyNSwieSI6NjA3LjQ3OTY4NjczNzA2MDV9LHsieCI6NzUuNTMxMjUsInkiOjcwMy44NDk5OTg0NzQxMjExfSx7IngiOjg5LjU0MTEwMDI5ODg4NjMzLCJ5Ijo3NDAuMzQ5OTk4NDc0MTIxMX1d" data-look="classic" marker-end="url(#gb18f39eb-f56a-4b41-ab3e-20046c527fb5-dark_flowchart-v2-pointEnd)"></path><path d="M248.502,231.861L253.207,242.249C257.912,252.637,267.323,273.412,272.028,289.216C276.733,305.021,276.733,315.854,276.733,321.271L276.733,326.688" id="gb18f39eb-f56a-4b41-ab3e-20046c527fb5-dark-L_q1_q2_0" class="edge-thickness-normal edge-pattern-solid edge-thickness-normal edge-pattern-solid flowchart-link" style=";" data-edge="true" data-et="edge" data-id="L_q1_q2_0" data-points="W3sieCI6MjQ4LjUwMjAwNDAxNjAzODcsInkiOjIzMS44NjEyNzcyMzM5NjEzfSx7IngiOjI3Ni43MzI4MTI4ODE0Njk3LCJ5IjoyOTQuMTg3NX0seyJ4IjoyNzYuNzMyODEyODgxNDY5NywieSI6MzMwLjY4NzV9XQ==" data-look="classic" marker-end="url(#gb18f39eb-f56a-4b41-ab3e-20046c527fb5-dark_flowchart-v2-pointEnd)"></path><path d="M237.373,435.249L222.108,447.893C206.844,460.536,176.314,485.823,161.05,514.528C145.785,543.233,145.785,575.356,145.785,607.48C145.785,639.603,145.785,671.727,143.488,693.257C141.192,714.787,136.598,725.725,134.301,731.193L132.004,736.662" id="gb18f39eb-f56a-4b41-ab3e-20046c527fb5-dark-L_q2_le_0" class="edge-thickness-normal edge-pattern-solid edge-thickness-normal edge-pattern-solid flowchart-link" style=";" data-edge="true" data-et="edge" data-id="L_q2_le_0" data-points="W3sieCI6MjM3LjM3MjgzODQ4Nzg0MzcsInkiOjQzNS4yNDk0MDA2MDYzNzR9LHsieCI6MTQ1Ljc4NTE1NjI1LCJ5Ijo1MTEuMTA5Mzc1fSx7IngiOjE0NS43ODUxNTYyNSwieSI6NjA3LjQ3OTY4NjczNzA2MDV9LHsieCI6MTQ1Ljc4NTE1NjI1LCJ5Ijo3MDMuODQ5OTk4NDc0MTIxMX0seyJ4IjoxMzAuNDU1NTYxMDg3MTQwOCwieSI6NzQwLjM0OTk5ODQ3NDEyMTF9XQ==" data-look="classic" marker-end="url(#gb18f39eb-f56a-4b41-ab3e-20046c527fb5-dark_flowchart-v2-pointEnd)"></path><path d="M309.969,441.373L319.944,452.996C329.919,464.619,349.87,487.864,359.845,504.903C369.82,521.943,369.82,532.776,369.82,538.193L369.82,543.609" id="gb18f39eb-f56a-4b41-ab3e-20046c527fb5-dark-L_q2_q3_0" class="edge-thickness-normal edge-pattern-solid edge-thickness-normal edge-pattern-solid flowchart-link" style=";" data-edge="true" data-et="edge" data-id="L_q2_q3_0" data-points="W3sieCI6MzA5Ljk2ODgxMjMxNTg5MjgsInkiOjQ0MS4zNzMzNzU1NjU1NzY5Nn0seyJ4IjozNjkuODIwMzEyNSwieSI6NTExLjEwOTM3NX0seyJ4IjozNjkuODIwMzEyNTAwMDAwMDYsInkiOjU0Ny42MDkzNzQ5OTk5OTk5fV0=" data-look="classic" marker-end="url(#gb18f39eb-f56a-4b41-ab3e-20046c527fb5-dark_flowchart-v2-pointEnd)"></path><path d="M333.136,630.666L313.837,642.863C294.538,655.06,255.941,679.455,229.626,697.317C203.31,715.179,189.276,726.508,182.259,732.173L175.242,737.837" id="gb18f39eb-f56a-4b41-ab3e-20046c527fb5-dark-L_q3_le_0" class="edge-thickness-normal edge-pattern-solid edge-thickness-normal edge-pattern-solid flowchart-link" style=";" data-edge="true" data-et="edge" data-id="L_q3_le_0" data-points="W3sieCI6MzMzLjEzNTgyNzg4NDg3ODk1LCJ5Ijo2MzAuNjY1NTEzODU5fSx7IngiOjIxNy4zNDM3NSwieSI6NzAzLjg0OTk5ODQ3NDEyMTF9LHsieCI6MTcyLjEyOTg0NTYxMjAyNDUyLCJ5Ijo3NDAuMzQ5OTk4NDc0MTIxMX1d" data-look="classic" marker-end="url(#gb18f39eb-f56a-4b41-ab3e-20046c527fb5-dark_flowchart-v2-pointEnd)"></path><path d="M369.82,667.35L369.82,673.433C369.82,679.517,369.82,691.683,369.82,704.65C369.82,717.617,369.82,731.383,369.82,738.267L369.82,745.15" id="gb18f39eb-f56a-4b41-ab3e-20046c527fb5-dark-L_q3_cff_0" class="edge-thickness-normal edge-pattern-solid edge-thickness-normal edge-pattern-solid flowchart-link" style=";" data-edge="true" data-et="edge" data-id="L_q3_cff_0" data-points="W3sieCI6MzY5LjgyMDMxMjUwMDAwMDA2LCJ5Ijo2NjcuMzQ5OTk4NDc0MTIxMn0seyJ4IjozNjkuODIwMzEyNSwieSI6NzAzLjg0OTk5ODQ3NDEyMTF9LHsieCI6MzY5LjgyMDMxMjUsInkiOjc0OS4xNTAwMDE1MjU4Nzg5fV0=" data-look="classic" marker-end="url(#gb18f39eb-f56a-4b41-ab3e-20046c527fb5-dark_flowchart-v2-pointEnd)"></path></g><g class="edgeLabels"><g class="edgeLabel"><g class="label" data-id="L_entry_q1_0" transform="translate(0, 0)"><text y="-10.1" text-anchor="middle"><tspan class="text-outer-tspan row" x="0" y="-0.1em" dy="1.1em" text-anchor="middle"></tspan></text></g></g><g><rect class="background" style="stroke: none"></rect></g><g class="edgeLabel" transform="translate(75.53125, 511.109375)"><g class="label" data-id="L_q1_le_0" transform="translate(0, -10.5)"><g><rect class="background" style="" x="-13.546875" y="-1" width="27.09375" height="23"></rect><text y="-10.1" text-anchor="middle" style=""><tspan class="text-outer-tspan row" x="0" y="-0.1em" dy="1.1em" text-anchor="middle"><tspan font-style="normal" class="text-inner-tspan" font-weight="normal">yes</tspan></tspan></text></g></g></g><g class="edgeLabel" transform="translate(276.7328128814697, 294.1875)"><g class="label" data-id="L_q1_q2_0" transform="translate(0, -10.5)"><g><rect class="background" style="" x="-10.6640625" y="-1" width="21.328125" height="23"></rect><text y="-10.1" text-anchor="middle" style=""><tspan class="text-outer-tspan row" x="0" y="-0.1em" dy="1.1em" text-anchor="middle"><tspan font-style="normal" class="text-inner-tspan" font-weight="normal">no</tspan></tspan></text></g></g></g><g class="edgeLabel" transform="translate(145.78515625, 607.4796867370605)"><g class="label" data-id="L_q2_le_0" transform="translate(0, -10.5)"><g><rect class="background" style="" x="-13.546875" y="-1" width="27.09375" height="23"></rect><text y="-10.1" text-anchor="middle" style=""><tspan class="text-outer-tspan row" x="0" y="-0.1em" dy="1.1em" text-anchor="middle"><tspan font-style="normal" class="text-inner-tspan" font-weight="normal">yes</tspan></tspan></text></g></g></g><g class="edgeLabel" transform="translate(369.8203125, 511.109375)"><g class="label" data-id="L_q2_q3_0" transform="translate(0, -10.5)"><g><rect class="background" style="" x="-10.6640625" y="-1" width="21.328125" height="23"></rect><text y="-10.1" text-anchor="middle" style=""><tspan class="text-outer-tspan row" x="0" y="-0.1em" dy="1.1em" text-anchor="middle"><tspan font-style="normal" class="text-inner-tspan" font-weight="normal">no</tspan></tspan></text></g></g></g><g class="edgeLabel" transform="translate(250.67997, 682.78039)"><g class="label" data-id="L_q3_le_0" transform="translate(0, -10.5)"><g><rect class="background" style="" x="-13.546875" y="-1" width="27.09375" height="23"></rect><text y="-10.1" text-anchor="middle" style=""><tspan class="text-outer-tspan row" x="0" y="-0.1em" dy="1.1em" text-anchor="middle"><tspan font-style="normal" class="text-inner-tspan" font-weight="normal">yes</tspan></tspan></text></g></g></g><g class="edgeLabel" transform="translate(369.8203125, 703.8499984741211)"><g class="label" data-id="L_q3_cff_0" transform="translate(0, -10.5)"><g><rect class="background" style="" x="-10.6640625" y="-1" width="21.328125" height="23"></rect><text y="-10.1" text-anchor="middle" style=""><tspan class="text-outer-tspan row" x="0" y="-0.1em" dy="1.1em" text-anchor="middle"><tspan font-style="normal" class="text-inner-tspan" font-weight="normal">no</tspan></tspan></text></g></g></g></g><g class="nodes"><g class="node default neutralC" id="gb18f39eb-f56a-4b41-ab3e-20046c527fb5-dark-flowchart-entry-0" data-look="classic" transform="translate(222.67578125, 25)"><g class="basic label-container outer-path"><path d="M-31.1953125 -17 C-12.994276782820108 -17, 5.206758934359783 -17, 31.1953125 -17 C31.1953125 -17, 31.1953125 -17, 31.1953125 -17 C31.600242413170296 -16.98701468583289, 32.00517232634059 -16.97402937166578, 32.28450623967212 -16.965071676755716 C32.67765935983455 -16.927144668089454, 33.070812479996974 -16.88921765942319, 33.3692242486366 -16.860430234995185 C33.68880775689821 -16.80876245178657, 34.00839126515981 -16.757094668577956, 34.445009187923326 -16.686505668848113 C34.779552017315176 -16.610148451135405, 35.114094846707026 -16.533791233422697, 35.50744042646162 -16.4440126716635 C35.912371349130474 -16.323831299341172, 36.31730227179933 -16.203649927018844, 36.55215220640155 -16.133947699181366 C36.947432160908306 -15.988481021995035, 37.34271211541506 -15.843014344808704, 37.57485158294936 -15.757584874882369 C37.913718940380086 -15.60757834789079, 38.252586297810815 -15.457571820899213, 38.57133606499849 -15.316470754341125 C38.897046456362766 -15.146547851793846, 39.22275684772704 -14.976624949246567, 39.53751088406694 -14.812417970097622 C39.72833649565959 -14.696738362934388, 39.91916210725224 -14.581058755771155, 40.469405820579325 -14.247497783161291 C40.79324086716836 -14.021604473254012, 41.11707591375738 -13.795711163346734, 41.363191518350675 -13.624031571755262 C41.5766333387186 -13.45381739993722, 41.790075159086534 -13.283603228119178, 42.2151952202324 -12.944581292275288 C42.472283648253665 -12.711100384133438, 42.72937207627492 -12.477619475991586, 43.02191586025927 -12.21193895166137 C43.215095689452276 -12.012464917660648, 43.40827551864529 -11.812990883659925, 43.78003845028036 -11.42911513444239 C44.061006777493546 -11.099073749747056, 44.341975104706734 -10.769032365051723, 44.48644770195651 -10.59932663159847 C44.6578505534908 -10.369662425663522, 44.8292534050251 -10.139998219728573, 45.13824082814825 -9.725983222076888 C45.308309131961586 -9.46471263768566, 45.478377435774924 -9.203442053294431, 45.73273947109088 -8.812673661278927 C45.90211871421252 -8.511923663608252, 46.07149795733415 -8.211173665937576, 46.267500708341004 -7.863150934094199 C46.40611760010876 -7.575309992412108, 46.54473449187651 -7.287469050730017, 46.74032709126881 -6.881316833080699 C46.86693446291187 -6.568594177335331, 46.99354183455493 -6.255871521589964, 47.149275674845924 -5.871205925162238 C47.27951386484742 -5.478949247515326, 47.409752054848916 -5.086692569868413, 47.492666001623235 -4.836968972727556 C47.5614731318901 -4.574577563821115, 47.63028026215696 -4.312186154914674, 47.769087007091 -3.7828558772573464 C47.830554872512224 -3.4672313795573197, 47.892022737933445 -3.151606881857293, 47.97740281804565 -2.713198215567453 C48.022750626954725 -2.3614895646063827, 48.0680984358638 -2.0097809136453124, 48.116757420136366 -1.632391440430593 C48.13455012894477 -1.355255638723712, 48.15234283775317 -1.078119837016831, 48.1865781754117 -0.5448768187181379 C48.1865781754117 -0.15828560393861163, 48.1865781754117 0.2283056108409146, 48.1865781754117 0.5448768187181336 C48.160047783392564 0.9581090893630915, 48.13351739137343 1.3713413600080493, 48.116757420136366 1.6323914404305815 C48.062399345062566 2.053981936486938, 48.008041269988766 2.475572432543294, 47.977402818045654 2.7131982155674415 C47.92987886821807 2.9572236537417385, 47.88235491839048 3.2012490919160355, 47.769087007091 3.782855877257343 C47.703776711161176 4.031912341299095, 47.63846641523134 4.280968805340847, 47.492666001623235 4.836968972727545 C47.364268110702874 5.223682962753921, 47.23587021978251 5.610396952780298, 47.149275674845924 5.871205925162227 C47.06166485104987 6.087606353778533, 46.974054027253814 6.30400678239484, 46.74032709126881 6.881316833080694 C46.61863287764787 7.134017471503619, 46.496938664026935 7.386718109926544, 46.267500708341004 7.863150934094196 C46.14636413417623 8.078241187932003, 46.025227560011466 8.29333144176981, 45.73273947109089 8.812673661278923 C45.583940267237004 9.041269196579396, 45.43514106338312 9.269864731879867, 45.138240828148255 9.725983222076879 C44.89232215529843 10.055491840043656, 44.64640348244861 10.385000458010433, 44.48644770195651 10.599326631598467 C44.247981396884015 10.879442722653776, 44.009515091811515 11.159558813709086, 43.78003845028037 11.42911513444238 C43.53759167616713 11.679461333964639, 43.2951449020539 11.929807533486896, 43.02191586025927 12.211938951661365 C42.7532471846429 12.455936734272536, 42.484578509026534 12.699934516883706, 42.21519522023242 12.944581292275275 C42.019614772198054 13.100551494968377, 41.8240343241637 13.256521697661476, 41.363191518350675 13.62403157175526 C41.01028324140509 13.870205108599418, 40.6573749644595 14.116378645443575, 40.46940582057934 14.247497783161286 C40.122019361296104 14.458085496248216, 39.774632902012875 14.668673209335148, 39.53751088406695 14.81241797009762 C39.34028727472361 14.91530940076429, 39.14306366538027 15.01820083143096, 38.57133606499849 15.316470754341124 C38.28098489346837 15.445000605016023, 37.990633721938245 15.573530455690925, 37.574851582949364 15.757584874882367 C37.16690193340312 15.907714116960607, 36.75895228385688 16.057843359038845, 36.55215220640156 16.133947699181363 C36.25023560379094 16.223554962043607, 35.94831900118032 16.313162224905856, 35.50744042646164 16.444012671663497 C35.18296170759603 16.51807282182305, 34.858482988730415 16.5921329719826, 34.44500918792333 16.68650566884811 C34.05843507386719 16.749003973681678, 33.67186095981104 16.81150227851525, 33.36922424863661 16.86043023499518 C33.00110885357814 16.895941884432936, 32.632993458519664 16.931453533870695, 32.28450623967212 16.965071676755716 C31.95094928198226 16.9757681991596, 31.617392324292403 16.986464721563483, 31.195312500000004 17 C31.195312500000004 17, 31.1953125 17, 31.1953125 17 C11.783435427990646 17, -7.628441644018707 17, -31.195312499999996 17 C-31.516395241982703 16.989703501414258, -31.837477983965414 16.979407002828516, -32.28450623967211 16.965071676755716 C-32.51147233184234 16.943176530810717, -32.73843842401257 16.92128138486572, -33.369224248636606 16.86043023499518 C-33.73072315523315 16.80198589524254, -34.09222206182969 16.743541555489905, -34.445009187923326 16.68650566884811 C-34.85772986260106 16.592304868107018, -35.27045053727879 16.498104067365926, -35.50744042646162 16.4440126716635 C-35.74056030482433 16.37482391543666, -35.973680183187035 16.30563515920982, -36.552152206401544 16.13394769918137 C-36.90364568192956 16.00459485101699, -37.255139157457585 15.875242002852609, -37.574851582949364 15.757584874882369 C-37.893963239888315 15.616323610466466, -38.21307489682727 15.475062346050564, -38.57133606499848 15.316470754341127 C-38.831372214773836 15.180810061564431, -39.09140836454918 15.045149368787733, -39.53751088406693 14.812417970097624 C-39.7477407457397 14.684975392503793, -39.95797060741246 14.557532814909964, -40.46940582057932 14.247497783161299 C-40.81082401256388 14.009339232188191, -41.15224220454844 13.771180681215084, -41.36319151835067 13.624031571755264 C-41.588800916129266 13.444114080745047, -41.814410313907864 13.264196589734832, -42.2151952202324 12.94458129227529 C-42.38276028294207 12.792403135850979, -42.550325345651736 12.640224979426668, -43.02191586025926 12.211938951661377 C-43.25958374670923 11.966527346005414, -43.4972516331592 11.721115740349452, -43.780038450280365 11.429115134442386 C-43.96781606091133 11.208540868146518, -44.155593671542306 10.987966601850648, -44.48644770195651 10.599326631598473 C-44.74134954745164 10.257781380670846, -44.99625139294677 9.916236129743217, -45.13824082814825 9.72598322207689 C-45.257709938845935 9.54244658609712, -45.37717904954363 9.35890995011735, -45.73273947109088 8.812673661278936 C-45.8702232434373 8.568557301736293, -46.00770701578372 8.32444094219365, -46.267500708341004 7.863150934094201 C-46.43552084475246 7.514253525780806, -46.60354098116392 7.16535611746741, -46.74032709126881 6.881316833080701 C-46.838966611492786 6.63767531106209, -46.93760613171676 6.394033789043478, -47.149275674845924 5.87120592516224 C-47.25698528812753 5.5468017311543765, -47.364694901409145 5.222397537146513, -47.492666001623235 4.8369689727275516 C-47.56112995045139 4.575886263382692, -47.629593899279534 4.314803554037832, -47.769087007091 3.782855877257349 C-47.82843634234123 3.4781095842338745, -47.88778567759145 3.1733632912103995, -47.97740281804565 2.713198215567455 C-48.009273604887845 2.466014686418059, -48.04114439173005 2.2188311572686636, -48.116757420136366 1.6323914404306026 C-48.14216411844261 1.236661606393127, -48.16757081674886 0.8409317723556515, -48.1865781754117 0.54487681871814 C-48.1865781754117 0.1823897654497989, -48.1865781754117 -0.18009728781854217, -48.1865781754117 -0.5448768187181317 C-48.166916887532935 -0.8511172477357462, -48.14725559965417 -1.1573576767533607, -48.116757420136366 -1.6323914404305793 C-48.078129549858275 -1.9319815743717077, -48.039501679580184 -2.231571708312836, -47.977402818045654 -2.713198215567447 C-47.91957537955776 -3.0101298903693205, -47.86174794106987 -3.307061565171194, -47.769087007091 -3.782855877257341 C-47.69264650787576 -4.07435663028701, -47.616206008660505 -4.36585738331668, -47.492666001623235 -4.836968972727544 C-47.38669275773041 -5.156143498789288, -47.28071951383758 -5.475318024851032, -47.14927567484593 -5.871205925162218 C-47.01400333129411 -6.205331229048047, -46.8787309877423 -6.539456532933876, -46.74032709126881 -6.881316833080692 C-46.593662535486516 -7.185868921281406, -46.44699797970422 -7.4904210094821195, -46.267500708341004 -7.863150934094194 C-46.14653724901897 -8.07793380499894, -46.02557378969694 -8.292716675903687, -45.73273947109088 -8.812673661278929 C-45.51977098428839 -9.139850447053623, -45.3068024974859 -9.467027232828318, -45.13824082814825 -9.725983222076884 C-44.88701653477345 -10.062600888195155, -44.635792241398654 -10.399218554313423, -44.48644770195651 -10.599326631598467 C-44.25762677974555 -10.868112707106782, -44.02880585753459 -11.136898782615097, -43.78003845028037 -11.42911513444238 C-43.52411092355904 -11.693381317822865, -43.26818339683771 -11.95764750120335, -43.02191586025928 -12.21193895166136 C-42.72828464420982 -12.478607053021232, -42.43465342816037 -12.745275154381103, -42.21519522023242 -12.944581292275274 C-41.98591149015249 -13.127428965517709, -41.75662776007257 -13.310276638760145, -41.363191518350675 -13.624031571755259 C-41.02931026810904 -13.856932678437449, -40.69542901786741 -14.089833785119641, -40.46940582057934 -14.247497783161284 C-40.17835788590612 -14.423932751547706, -39.88730995123289 -14.600367719934129, -39.53751088406695 -14.812417970097618 C-39.33709465367877 -14.916974989118408, -39.13667842329059 -15.0215320081392, -38.57133606499849 -15.316470754341124 C-38.2561056734529 -15.45601389770103, -37.94087528190732 -15.595557041060937, -37.57485158294937 -15.757584874882365 C-37.34038209899134 -15.843871812391072, -37.10591261503331 -15.930158749899777, -36.552152206401566 -16.133947699181363 C-36.20422384984499 -16.23721100909414, -35.85629549328842 -16.34047431900692, -35.50744042646164 -16.444012671663494 C-35.210524624149045 -16.51178176598466, -34.91360882183645 -16.579550860305826, -34.44500918792333 -16.68650566884811 C-34.1266935626639 -16.737968470565512, -33.80837793740447 -16.789431272282915, -33.36922424863661 -16.86043023499518 C-33.05624166084622 -16.890623288822688, -32.743259073055825 -16.920816342650195, -32.28450623967212 -16.965071676755716 C-31.912771869194636 -16.97699247447987, -31.54103749871715 -16.988913272204027, -31.195312500000004 -17 C-31.195312500000004 -17, -31.1953125 -17, -31.1953125 -17" stroke="none" stroke-width="0" fill="#5A5A5A" style="fill:#5A5A5A !important;stroke:#3D3D3D !important"></path><path d="M-31.1953125 -17 C-15.547103499295991 -17, 0.10110550140801777 -17, 31.1953125 -17 M-31.1953125 -17 C-14.25817418728295 -17, 2.6789641254340992 -17, 31.1953125 -17 M31.1953125 -17 C31.1953125 -17, 31.1953125 -17, 31.1953125 -17 M31.1953125 -17 C31.1953125 -17, 31.1953125 -17, 31.1953125 -17 M31.1953125 -17 C31.58820391158684 -16.98740073714715, 31.981095323173683 -16.9748014742943, 32.28450623967212 -16.965071676755716 M31.1953125 -17 C31.610883884995573 -16.98667343454382, 32.026455269991146 -16.973346869087642, 32.28450623967212 -16.965071676755716 M32.28450623967212 -16.965071676755716 C32.664122046798504 -16.928450596397038, 33.04373785392488 -16.891829516038364, 33.3692242486366 -16.860430234995185 M32.28450623967212 -16.965071676755716 C32.64810507424861 -16.9299957344757, 33.011703908825105 -16.894919792195683, 33.3692242486366 -16.860430234995185 M33.3692242486366 -16.860430234995185 C33.61193626795528 -16.821190437971563, 33.85464828727396 -16.78195064094794, 34.445009187923326 -16.686505668848113 M33.3692242486366 -16.860430234995185 C33.633188853992976 -16.817754484677256, 33.89715345934935 -16.775078734359322, 34.445009187923326 -16.686505668848113 M34.445009187923326 -16.686505668848113 C34.828621104206654 -16.598948752258142, 35.212233020489975 -16.51139183566817, 35.50744042646162 -16.4440126716635 M34.445009187923326 -16.686505668848113 C34.831991212396815 -16.59817954705575, 35.2189732368703 -16.509853425263387, 35.50744042646162 -16.4440126716635 M35.50744042646162 -16.4440126716635 C35.74147839536187 -16.374551430984276, 35.97551636426212 -16.305090190305048, 36.55215220640155 -16.133947699181366 M35.50744042646162 -16.4440126716635 C35.78742304875708 -16.360915299024985, 36.06740567105253 -16.27781792638647, 36.55215220640155 -16.133947699181366 M36.55215220640155 -16.133947699181366 C36.93575741725814 -15.992777435578443, 37.31936262811473 -15.85160717197552, 37.57485158294936 -15.757584874882369 M36.55215220640155 -16.133947699181366 C36.94411291600288 -15.989702534802996, 37.336073625604214 -15.845457370424624, 37.57485158294936 -15.757584874882369 M37.57485158294936 -15.757584874882369 C37.87423405009657 -15.625057137541651, 38.17361651724377 -15.492529400200933, 38.57133606499849 -15.316470754341125 M37.57485158294936 -15.757584874882369 C37.82944776535065 -15.644882697260735, 38.08404394775194 -15.5321805196391, 38.57133606499849 -15.316470754341125 M38.57133606499849 -15.316470754341125 C38.81377416177774 -15.189990954540404, 39.05621225855698 -15.063511154739682, 39.53751088406694 -14.812417970097622 M38.57133606499849 -15.316470754341125 C38.81990137645875 -15.186794390565986, 39.06846668791902 -15.057118026790846, 39.53751088406694 -14.812417970097622 M39.53751088406694 -14.812417970097622 C39.821526071102724 -14.640246294658029, 40.1055412581385 -14.468074619218436, 40.469405820579325 -14.247497783161291 M39.53751088406694 -14.812417970097622 C39.908646683291366 -14.587433267571726, 40.27978248251579 -14.36244856504583, 40.469405820579325 -14.247497783161291 M40.469405820579325 -14.247497783161291 C40.713386500081896 -14.07730742289369, 40.957367179584466 -13.907117062626085, 41.363191518350675 -13.624031571755262 M40.469405820579325 -14.247497783161291 C40.75899364874633 -14.045493850287025, 41.04858147691334 -13.843489917412757, 41.363191518350675 -13.624031571755262 M41.363191518350675 -13.624031571755262 C41.62923632512732 -13.411867918100523, 41.89528113190397 -13.199704264445783, 42.2151952202324 -12.944581292275288 M41.363191518350675 -13.624031571755262 C41.59136729465182 -13.442067462167518, 41.81954307095295 -13.260103352579774, 42.2151952202324 -12.944581292275288 M42.2151952202324 -12.944581292275288 C42.471771660286656 -12.71156535805861, 42.72834810034091 -12.478549423841935, 43.02191586025927 -12.21193895166137 M42.2151952202324 -12.944581292275288 C42.38328975297173 -12.791922285179051, 42.55138428571105 -12.639263278082815, 43.02191586025927 -12.21193895166137 M43.02191586025927 -12.21193895166137 C43.201783529605166 -12.026210815651444, 43.38165119895106 -11.840482679641518, 43.78003845028036 -11.42911513444239 M43.02191586025927 -12.21193895166137 C43.31756303964751 -11.906658965858163, 43.61321021903576 -11.601378980054955, 43.78003845028036 -11.42911513444239 M43.78003845028036 -11.42911513444239 C43.951225724680185 -11.228028821100494, 44.12241299908001 -11.0269425077586, 44.48644770195651 -10.59932663159847 M43.78003845028036 -11.42911513444239 C44.00813288080337 -11.161182437409286, 44.23622731132638 -10.893249740376183, 44.48644770195651 -10.59932663159847 M44.48644770195651 -10.59932663159847 C44.64069319893973 -10.392651717694806, 44.79493869592295 -10.18597680379114, 45.13824082814825 -9.725983222076888 M44.48644770195651 -10.59932663159847 C44.663394691380006 -10.36223378597334, 44.84034168080351 -10.12514094034821, 45.13824082814825 -9.725983222076888 M45.13824082814825 -9.725983222076888 C45.26719764437416 -9.527870922600114, 45.396154460600066 -9.329758623123338, 45.73273947109088 -8.812673661278927 M45.13824082814825 -9.725983222076888 C45.37507182932208 -9.362147206245496, 45.61190283049592 -8.998311190414103, 45.73273947109088 -8.812673661278927 M45.73273947109088 -8.812673661278927 C45.846945199951826 -8.609889825102247, 45.96115092881278 -8.407105988925569, 46.267500708341004 -7.863150934094199 M45.73273947109088 -8.812673661278927 C45.90691099222456 -8.5034144887271, 46.08108251335824 -8.194155316175273, 46.267500708341004 -7.863150934094199 M46.267500708341004 -7.863150934094199 C46.363150615530095 -7.664531855235889, 46.45880052271919 -7.4659127763775786, 46.74032709126881 -6.881316833080699 M46.267500708341004 -7.863150934094199 C46.37820528573888 -7.63327051042901, 46.488909863136755 -7.403390086763821, 46.74032709126881 -6.881316833080699 M46.74032709126881 -6.881316833080699 C46.88325309441223 -6.5282868420301545, 47.02617909755566 -6.17525685097961, 47.149275674845924 -5.871205925162238 M46.74032709126881 -6.881316833080699 C46.838923998279874 -6.637780566521849, 46.937520905290945 -6.394244299962999, 47.149275674845924 -5.871205925162238 M47.149275674845924 -5.871205925162238 C47.26965625251046 -5.508638805277019, 47.39003683017499 -5.1460716853917985, 47.492666001623235 -4.836968972727556 M47.149275674845924 -5.871205925162238 C47.22833679125978 -5.633086439201948, 47.30739790767363 -5.394966953241657, 47.492666001623235 -4.836968972727556 M47.492666001623235 -4.836968972727556 C47.54851299239867 -4.624000192661916, 47.6043599831741 -4.411031412596276, 47.769087007091 -3.7828558772573464 M47.492666001623235 -4.836968972727556 C47.583421116767575 -4.490880385166457, 47.67417623191192 -4.144791797605358, 47.769087007091 -3.7828558772573464 M47.769087007091 -3.7828558772573464 C47.831493111096535 -3.462413722723666, 47.893899215102074 -3.1419715681899856, 47.97740281804565 -2.713198215567453 M47.769087007091 -3.7828558772573464 C47.82627267705264 -3.4892195481999555, 47.883458347014276 -3.1955832191425646, 47.97740281804565 -2.713198215567453 M47.97740281804565 -2.713198215567453 C48.02768035493794 -2.3232555678534728, 48.07795789183023 -1.9333129201394927, 48.116757420136366 -1.632391440430593 M47.97740281804565 -2.713198215567453 C48.02667675245233 -2.3310393105480953, 48.075950686859024 -1.9488804055287376, 48.116757420136366 -1.632391440430593 M48.116757420136366 -1.632391440430593 C48.133020659638014 -1.379078357741809, 48.14928389913966 -1.1257652750530251, 48.1865781754117 -0.5448768187181379 M48.116757420136366 -1.632391440430593 C48.13825634735185 -1.2975282954278244, 48.159755274567324 -0.962665150425056, 48.1865781754117 -0.5448768187181379 M48.1865781754117 -0.5448768187181379 C48.1865781754117 -0.15600045485412728, 48.1865781754117 0.2328759090098833, 48.1865781754117 0.5448768187181336 M48.1865781754117 -0.5448768187181379 C48.1865781754117 -0.14415310007949483, 48.1865781754117 0.2565706185591482, 48.1865781754117 0.5448768187181336 M48.1865781754117 0.5448768187181336 C48.16603018808033 0.8649283074410006, 48.14548220074896 1.1849797961638675, 48.116757420136366 1.6323914404305815 M48.1865781754117 0.5448768187181336 C48.17199245755721 0.7720611476813004, 48.15740673970272 0.9992454766444672, 48.116757420136366 1.6323914404305815 M48.116757420136366 1.6323914404305815 C48.08386808513521 1.887474627965774, 48.05097875013405 2.1425578155009664, 47.977402818045654 2.7131982155674415 M48.116757420136366 1.6323914404305815 C48.07459908321348 1.9593631764992772, 48.03244074629058 2.2863349125679733, 47.977402818045654 2.7131982155674415 M47.977402818045654 2.7131982155674415 C47.931625306052474 2.9482560645718214, 47.8858477940593 3.1833139135762014, 47.769087007091 3.782855877257343 M47.977402818045654 2.7131982155674415 C47.926885066718135 2.972596191703726, 47.87636731539062 3.2319941678400106, 47.769087007091 3.782855877257343 M47.769087007091 3.782855877257343 C47.69691141028462 4.058092708981619, 47.62473581347823 4.333329540705894, 47.492666001623235 4.836968972727545 M47.769087007091 3.782855877257343 C47.68766100732324 4.09336850462334, 47.60623500755548 4.403881131989339, 47.492666001623235 4.836968972727545 M47.492666001623235 4.836968972727545 C47.37693103019046 5.185544266819532, 47.26119605875769 5.534119560911519, 47.149275674845924 5.871205925162227 M47.492666001623235 4.836968972727545 C47.401738282931134 5.110828774063602, 47.31081056423903 5.38468857539966, 47.149275674845924 5.871205925162227 M47.149275674845924 5.871205925162227 C47.003683524119126 6.230821352290167, 46.85809137339233 6.590436779418108, 46.74032709126881 6.881316833080694 M47.149275674845924 5.871205925162227 C46.992098166074165 6.259437410648883, 46.8349206573024 6.647668896135539, 46.74032709126881 6.881316833080694 M46.74032709126881 6.881316833080694 C46.60746154741452 7.157214977761345, 46.47459600356024 7.433113122441997, 46.267500708341004 7.863150934094196 M46.74032709126881 6.881316833080694 C46.60548600292741 7.161317238158726, 46.470644914585996 7.441317643236758, 46.267500708341004 7.863150934094196 M46.267500708341004 7.863150934094196 C46.11594883468192 8.132246632067194, 45.96439696102285 8.40134233004019, 45.73273947109089 8.812673661278923 M46.267500708341004 7.863150934094196 C46.13966003970743 8.090144986524544, 46.011819371073855 8.317139038954892, 45.73273947109089 8.812673661278923 M45.73273947109089 8.812673661278923 C45.51359887386934 9.149332466101002, 45.29445827664779 9.485991270923082, 45.138240828148255 9.725983222076879 M45.73273947109089 8.812673661278923 C45.52028318677309 9.139063566491506, 45.30782690245529 9.465453471704087, 45.138240828148255 9.725983222076879 M45.138240828148255 9.725983222076879 C44.97158191990529 9.949290976183566, 44.804923011662325 10.172598730290252, 44.48644770195651 10.599326631598467 M45.138240828148255 9.725983222076879 C44.94609264042188 9.983444288570201, 44.753944452695514 10.240905355063525, 44.48644770195651 10.599326631598467 M44.48644770195651 10.599326631598467 C44.24284455109602 10.88547675401116, 43.999241400235526 11.171626876423854, 43.78003845028037 11.42911513444238 M44.48644770195651 10.599326631598467 C44.32424824531531 10.789855342779761, 44.162048788674106 10.980384053961057, 43.78003845028037 11.42911513444238 M43.78003845028037 11.42911513444238 C43.485849573083186 11.73288930350448, 43.191660695886 12.03666347256658, 43.02191586025927 12.211938951661365 M43.78003845028037 11.42911513444238 C43.5889655293984 11.626413612631564, 43.39789260851643 11.82371209082075, 43.02191586025927 12.211938951661365 M43.02191586025927 12.211938951661365 C42.84938436364764 12.368627491950798, 42.67685286703601 12.525316032240232, 42.21519522023242 12.944581292275275 M43.02191586025927 12.211938951661365 C42.711312490863065 12.494020713632189, 42.40070912146685 12.776102475603011, 42.21519522023242 12.944581292275275 M42.21519522023242 12.944581292275275 C41.87483168104914 13.216012157319774, 41.53446814186586 13.487443022364271, 41.363191518350675 13.62403157175526 M42.21519522023242 12.944581292275275 C42.03804962928406 13.085850187014438, 41.860904038335704 13.2271190817536, 41.363191518350675 13.62403157175526 M41.363191518350675 13.62403157175526 C41.10798773962678 13.802050680199528, 40.852783960902876 13.980069788643796, 40.46940582057934 14.247497783161286 M41.363191518350675 13.62403157175526 C41.16068373108591 13.76529223773034, 40.95817594382114 13.906552903705423, 40.46940582057934 14.247497783161286 M40.46940582057934 14.247497783161286 C40.20810782972251 14.405898160776134, 39.94680983886568 14.564298538390982, 39.53751088406695 14.81241797009762 M40.46940582057934 14.247497783161286 C40.11234603686211 14.463949522366873, 39.75528625314487 14.680401261572461, 39.53751088406695 14.81241797009762 M39.53751088406695 14.81241797009762 C39.28976327716453 14.941667737928693, 39.042015670262124 15.070917505759764, 38.57133606499849 15.316470754341124 M39.53751088406695 14.81241797009762 C39.266964385583314 14.953561905063228, 38.996417887099675 15.094705840028837, 38.57133606499849 15.316470754341124 M38.57133606499849 15.316470754341124 C38.235675168239574 15.465057876309567, 37.90001427148066 15.61364499827801, 37.574851582949364 15.757584874882367 M38.57133606499849 15.316470754341124 C38.36165296894163 15.40929124093745, 38.15196987288477 15.502111727533775, 37.574851582949364 15.757584874882367 M37.574851582949364 15.757584874882367 C37.25100947658511 15.876761763588027, 36.92716737022086 15.995938652293686, 36.55215220640156 16.133947699181363 M37.574851582949364 15.757584874882367 C37.22250306269293 15.88725238741075, 36.870154542436495 16.016919899939136, 36.55215220640156 16.133947699181363 M36.55215220640156 16.133947699181363 C36.26465468525168 16.219275454353365, 35.9771571641018 16.304603209525368, 35.50744042646164 16.444012671663497 M36.55215220640156 16.133947699181363 C36.26892242431013 16.218008811802637, 35.985692642218694 16.30206992442391, 35.50744042646164 16.444012671663497 M35.50744042646164 16.444012671663497 C35.215790929962125 16.510579766048686, 34.9241414334626 16.577146860433874, 34.44500918792333 16.68650566884811 M35.50744042646164 16.444012671663497 C35.116464537345635 16.53325036699811, 34.72548864822963 16.622488062332728, 34.44500918792333 16.68650566884811 M34.44500918792333 16.68650566884811 C34.11408359283216 16.74000715269613, 33.78315799774099 16.793508636544153, 33.36922424863661 16.86043023499518 M34.44500918792333 16.68650566884811 C34.15152539205844 16.733953852962717, 33.85804159619354 16.781402037077324, 33.36922424863661 16.86043023499518 M33.36922424863661 16.86043023499518 C32.938613815944244 16.901970705552202, 32.50800338325187 16.94351117610922, 32.28450623967212 16.965071676755716 M33.36922424863661 16.86043023499518 C33.00266440694922 16.895791822070056, 32.63610456526184 16.93115340914493, 32.28450623967212 16.965071676755716 M32.28450623967212 16.965071676755716 C31.97464021149857 16.97500847716161, 31.66477418332502 16.984945277567498, 31.195312500000004 17 M32.28450623967212 16.965071676755716 C31.913782402149323 16.976960068654897, 31.543058564626524 16.98884846055408, 31.195312500000004 17 M31.195312500000004 17 C31.195312500000004 17, 31.195312500000004 17, 31.1953125 17 M31.195312500000004 17 C31.195312500000004 17, 31.1953125 17, 31.1953125 17 M31.1953125 17 C12.387288284656897 17, -6.420735930686206 17, -31.195312499999996 17 M31.1953125 17 C10.999576605733647 17, -9.196159288532705 17, -31.195312499999996 17 M-31.195312499999996 17 C-31.414757863971946 16.992962814301908, -31.634203227943896 16.985925628603816, -32.28450623967211 16.965071676755716 M-31.195312499999996 17 C-31.519412067227783 16.989606757700543, -31.84351163445557 16.979213515401085, -32.28450623967211 16.965071676755716 M-32.28450623967211 16.965071676755716 C-32.6522625680054 16.9295946660531, -33.020018896338684 16.89411765535048, -33.369224248636606 16.86043023499518 M-32.28450623967211 16.965071676755716 C-32.71827012742545 16.92322699618155, -33.152034015178785 16.881382315607386, -33.369224248636606 16.86043023499518 M-33.369224248636606 16.86043023499518 C-33.708544833904455 16.805571514239517, -34.0478654191723 16.75071279348385, -34.445009187923326 16.68650566884811 M-33.369224248636606 16.86043023499518 C-33.6691104957791 16.811946952209762, -33.96899674292159 16.763463669424347, -34.445009187923326 16.68650566884811 M-34.445009187923326 16.68650566884811 C-34.8011461511843 16.60521973099467, -35.15728311444526 16.52393379314123, -35.50744042646162 16.4440126716635 M-34.445009187923326 16.68650566884811 C-34.83612958629438 16.59723499021904, -35.22724998466544 16.507964311589973, -35.50744042646162 16.4440126716635 M-35.50744042646162 16.4440126716635 C-35.796978149001326 16.358079395428238, -36.08651587154103 16.27214611919297, -36.552152206401544 16.13394769918137 M-35.50744042646162 16.4440126716635 C-35.84303609667863 16.344409638320712, -36.17863176689564 16.244806604977924, -36.552152206401544 16.13394769918137 M-36.552152206401544 16.13394769918137 C-36.78325672386862 16.048899100446747, -37.01436124133569 15.963850501712121, -37.574851582949364 15.757584874882369 M-36.552152206401544 16.13394769918137 C-36.869085445864194 16.017313337360367, -37.18601868532684 15.90067897553936, -37.574851582949364 15.757584874882369 M-37.574851582949364 15.757584874882369 C-37.9679673154554 15.583564201465824, -38.36108304796143 15.40954352804928, -38.57133606499848 15.316470754341127 M-37.574851582949364 15.757584874882369 C-37.94532980356307 15.593585156462627, -38.315808024176775 15.429585438042885, -38.57133606499848 15.316470754341127 M-38.57133606499848 15.316470754341127 C-38.8099581192002 15.191981781508808, -39.04858017340193 15.067492808676489, -39.53751088406693 14.812417970097624 M-38.57133606499848 15.316470754341127 C-38.916866343121015 15.13620782956731, -39.262396621243546 14.95594490479349, -39.53751088406693 14.812417970097624 M-39.53751088406693 14.812417970097624 C-39.843599134122776 14.626865474139553, -40.14968738417863 14.44131297818148, -40.46940582057932 14.247497783161299 M-39.53751088406693 14.812417970097624 C-39.90803880390312 14.587801767629175, -40.27856672373931 14.363185565160729, -40.46940582057932 14.247497783161299 M-40.46940582057932 14.247497783161299 C-40.749678858858054 14.051991444482335, -41.02995189713678 13.856485105803369, -41.36319151835067 13.624031571755264 M-40.46940582057932 14.247497783161299 C-40.76441619962967 14.041711313529252, -41.059426578680025 13.835924843897205, -41.36319151835067 13.624031571755264 M-41.36319151835067 13.624031571755264 C-41.65105079204247 13.394471461243036, -41.93891006573428 13.164911350730806, -42.2151952202324 12.94458129227529 M-41.36319151835067 13.624031571755264 C-41.648444226567506 13.396550127845702, -41.933696934784344 13.169068683936137, -42.2151952202324 12.94458129227529 M-42.2151952202324 12.94458129227529 C-42.44357981072775 12.737168449912547, -42.6719644012231 12.529755607549806, -43.02191586025926 12.211938951661377 M-42.2151952202324 12.94458129227529 C-42.47880777360825 12.705175346105298, -42.7424203269841 12.465769399935306, -43.02191586025926 12.211938951661377 M-43.02191586025926 12.211938951661377 C-43.174250160725265 12.054641279551564, -43.32658446119127 11.897343607441751, -43.780038450280365 11.429115134442386 M-43.02191586025926 12.211938951661377 C-43.199216179151506 12.028861815778235, -43.376516498043756 11.845784679895093, -43.780038450280365 11.429115134442386 M-43.780038450280365 11.429115134442386 C-44.06026312413541 11.099947287296597, -44.340487797990455 10.770779440150811, -44.48644770195651 10.599326631598473 M-43.780038450280365 11.429115134442386 C-43.930393084728465 11.252500025398584, -44.080747719176564 11.075884916354784, -44.48644770195651 10.599326631598473 M-44.48644770195651 10.599326631598473 C-44.696250422904335 10.318210098949459, -44.90605314385217 10.037093566300445, -45.13824082814825 9.72598322207689 M-44.48644770195651 10.599326631598473 C-44.672967241984345 10.349407440240833, -44.85948678201218 10.099488248883192, -45.13824082814825 9.72598322207689 M-45.13824082814825 9.72598322207689 C-45.33184742475439 9.42855149903929, -45.52545402136053 9.13111977600169, -45.73273947109088 8.812673661278936 M-45.13824082814825 9.72598322207689 C-45.31104142520991 9.460515101532778, -45.48384202227156 9.195046980988666, -45.73273947109088 8.812673661278936 M-45.73273947109088 8.812673661278936 C-45.89886552711381 8.51770002672292, -46.06499158313675 8.222726392166905, -46.267500708341004 7.863150934094201 M-45.73273947109088 8.812673661278936 C-45.892067520368975 8.529770576071211, -46.05139556964707 8.246867490863488, -46.267500708341004 7.863150934094201 M-46.267500708341004 7.863150934094201 C-46.44789580288889 7.488556660428826, -46.62829089743677 7.113962386763452, -46.74032709126881 6.881316833080701 M-46.267500708341004 7.863150934094201 C-46.38158978418488 7.626242526989215, -46.49567886002877 7.38933411988423, -46.74032709126881 6.881316833080701 M-46.74032709126881 6.881316833080701 C-46.83274745902253 6.653036737902767, -46.925167826776246 6.424756642724833, -47.149275674845924 5.87120592516224 M-46.74032709126881 6.881316833080701 C-46.88136845457778 6.532941938858282, -47.02240981788676 6.1845670446358625, -47.149275674845924 5.87120592516224 M-47.149275674845924 5.87120592516224 C-47.25515696855588 5.552308338401036, -47.361038262265836 5.233410751639832, -47.492666001623235 4.8369689727275516 M-47.149275674845924 5.87120592516224 C-47.280342852246214 5.47645246955137, -47.4114100296465 5.081699013940501, -47.492666001623235 4.8369689727275516 M-47.492666001623235 4.8369689727275516 C-47.58979276961759 4.466582511357544, -47.68691953761194 4.096196049987536, -47.769087007091 3.782855877257349 M-47.492666001623235 4.8369689727275516 C-47.56819320342101 4.548951018576301, -47.64372040521879 4.260933064425051, -47.769087007091 3.782855877257349 M-47.769087007091 3.782855877257349 C-47.829261470401555 3.4738727260349824, -47.88943593371211 3.164889574812616, -47.97740281804565 2.713198215567455 M-47.769087007091 3.782855877257349 C-47.82868696871785 3.4768226707598546, -47.888286930344684 3.1707894642623606, -47.97740281804565 2.713198215567455 M-47.97740281804565 2.713198215567455 C-48.01038017440378 2.4574323517693872, -48.04335753076191 2.2016664879713193, -48.116757420136366 1.6323914404306026 M-47.97740281804565 2.713198215567455 C-48.02925341683375 2.3110552104258244, -48.08110401562184 1.9089122052841931, -48.116757420136366 1.6323914404306026 M-48.116757420136366 1.6323914404306026 C-48.1439541523151 1.2087803839397957, -48.17115088449383 0.7851693274489887, -48.1865781754117 0.54487681871814 M-48.116757420136366 1.6323914404306026 C-48.131638112399465 1.4006126469542477, -48.14651880466256 1.1688338534778926, -48.1865781754117 0.54487681871814 M-48.1865781754117 0.54487681871814 C-48.1865781754117 0.12923240432620386, -48.1865781754117 -0.28641201006573225, -48.1865781754117 -0.5448768187181317 M-48.1865781754117 0.54487681871814 C-48.1865781754117 0.22161510252159256, -48.1865781754117 -0.10164661367495487, -48.1865781754117 -0.5448768187181317 M-48.1865781754117 -0.5448768187181317 C-48.17192787049654 -0.7730671432849532, -48.15727756558138 -1.0012574678517747, -48.116757420136366 -1.6323914404305793 M-48.1865781754117 -0.5448768187181317 C-48.15879603505537 -0.9776060801079918, -48.13101389469904 -1.410335341497852, -48.116757420136366 -1.6323914404305793 M-48.116757420136366 -1.6323914404305793 C-48.06583999451231 -2.0272969387878, -48.01492256888826 -2.422202437145021, -47.977402818045654 -2.713198215567447 M-48.116757420136366 -1.6323914404305793 C-48.07617906300365 -1.9471091652489978, -48.035600705870934 -2.2618268900674163, -47.977402818045654 -2.713198215567447 M-47.977402818045654 -2.713198215567447 C-47.8959760695267 -3.131307359662902, -47.81454932100774 -3.549416503758357, -47.769087007091 -3.782855877257341 M-47.977402818045654 -2.713198215567447 C-47.89699535916278 -3.126073522808544, -47.816587900279906 -3.5389488300496406, -47.769087007091 -3.782855877257341 M-47.769087007091 -3.782855877257341 C-47.659640809370295 -4.200221663448542, -47.55019461164959 -4.6175874496397435, -47.492666001623235 -4.836968972727544 M-47.769087007091 -3.782855877257341 C-47.665663942344224 -4.17725284697661, -47.562240877597446 -4.571649816695879, -47.492666001623235 -4.836968972727544 M-47.492666001623235 -4.836968972727544 C-47.4229368909501 -5.046981944249989, -47.35320778027696 -5.256994915772435, -47.14927567484593 -5.871205925162218 M-47.492666001623235 -4.836968972727544 C-47.36866653541083 -5.210435608327361, -47.24466706919843 -5.583902243927178, -47.14927567484593 -5.871205925162218 M-47.14927567484593 -5.871205925162218 C-47.04596538798681 -6.1263843310727655, -46.942655101127684 -6.381562736983314, -46.74032709126881 -6.881316833080692 M-47.14927567484593 -5.871205925162218 C-47.066312134158764 -6.076127474650459, -46.9833485934716 -6.2810490241387, -46.74032709126881 -6.881316833080692 M-46.74032709126881 -6.881316833080692 C-46.58520099536092 -7.2034394904001555, -46.43007489945303 -7.525562147719619, -46.267500708341004 -7.863150934094194 M-46.74032709126881 -6.881316833080692 C-46.61106048762744 -7.1497417014042295, -46.48179388398608 -7.418166569727766, -46.267500708341004 -7.863150934094194 M-46.267500708341004 -7.863150934094194 C-46.14448815077716 -8.081572186420974, -46.02147559321332 -8.299993438747753, -45.73273947109088 -8.812673661278929 M-46.267500708341004 -7.863150934094194 C-46.056351823464894 -8.238067160334806, -45.84520293858879 -8.612983386575419, -45.73273947109088 -8.812673661278929 M-45.73273947109088 -8.812673661278929 C-45.548774920803844 -9.095292611918419, -45.36481037051681 -9.377911562557907, -45.13824082814825 -9.725983222076884 M-45.73273947109088 -8.812673661278929 C-45.54141681300148 -9.106596641431445, -45.350094154912085 -9.400519621583962, -45.13824082814825 -9.725983222076884 M-45.13824082814825 -9.725983222076884 C-44.89371704461445 -10.053622815437228, -44.64919326108064 -10.38126240879757, -44.48644770195651 -10.599326631598467 M-45.13824082814825 -9.725983222076884 C-44.99109377893336 -9.923146862652871, -44.84394672971848 -10.12031050322886, -44.48644770195651 -10.599326631598467 M-44.48644770195651 -10.599326631598467 C-44.333122393782254 -10.779431263037132, -44.17979708560801 -10.959535894475795, -43.78003845028037 -11.42911513444238 M-44.48644770195651 -10.599326631598467 C-44.29805215406297 -10.820626762164574, -44.10965660616944 -11.041926892730682, -43.78003845028037 -11.42911513444238 M-43.78003845028037 -11.42911513444238 C-43.59072486354164 -11.624596955684652, -43.401411276802904 -11.820078776926923, -43.02191586025928 -12.21193895166136 M-43.78003845028037 -11.42911513444238 C-43.52454289704053 -11.692935269737543, -43.2690473438007 -11.956755405032705, -43.02191586025928 -12.21193895166136 M-43.02191586025928 -12.21193895166136 C-42.791376207960006 -12.421308964134614, -42.560836555660735 -12.630678976607868, -42.21519522023242 -12.944581292275274 M-43.02191586025928 -12.21193895166136 C-42.76854248766583 -12.442045944758647, -42.515169115072396 -12.672152937855934, -42.21519522023242 -12.944581292275274 M-42.21519522023242 -12.944581292275274 C-42.02277819723157 -13.098028747686426, -41.83036117423071 -13.25147620309758, -41.363191518350675 -13.624031571755259 M-42.21519522023242 -12.944581292275274 C-41.95092236205541 -13.155331864075333, -41.6866495038784 -13.366082435875391, -41.363191518350675 -13.624031571755259 M-41.363191518350675 -13.624031571755259 C-41.01422634803374 -13.867454568109608, -40.66526117771679 -14.110877564463959, -40.46940582057934 -14.247497783161284 M-41.363191518350675 -13.624031571755259 C-41.093225281568195 -13.812348331884683, -40.823259044785715 -14.000665092014106, -40.46940582057934 -14.247497783161284 M-40.46940582057934 -14.247497783161284 C-40.13364474007879 -14.451038123311841, -39.79788365957825 -14.6545784634624, -39.53751088406695 -14.812417970097618 M-40.46940582057934 -14.247497783161284 C-40.19137539860197 -14.416041458852083, -39.9133449766246 -14.584585134542882, -39.53751088406695 -14.812417970097618 M-39.53751088406695 -14.812417970097618 C-39.187561485124185 -14.99498634737277, -38.83761208618142 -15.177554724647921, -38.57133606499849 -15.316470754341124 M-39.53751088406695 -14.812417970097618 C-39.1920480038673 -14.992645733418238, -38.84658512366766 -15.172873496738855, -38.57133606499849 -15.316470754341124 M-38.57133606499849 -15.316470754341124 C-38.20627364807928 -15.47807305711942, -37.841211231160074 -15.639675359897717, -37.57485158294937 -15.757584874882365 M-38.57133606499849 -15.316470754341124 C-38.29529258758807 -15.438667013251898, -38.019249110177654 -15.560863272162672, -37.57485158294937 -15.757584874882365 M-37.57485158294937 -15.757584874882365 C-37.24061333856266 -15.880587638481138, -36.90637509417594 -16.00359040207991, -36.552152206401566 -16.133947699181363 M-37.57485158294937 -15.757584874882365 C-37.220343289231266 -15.888047204009371, -36.86583499551316 -16.018509533136378, -36.552152206401566 -16.133947699181363 M-36.552152206401566 -16.133947699181363 C-36.18150020906815 -16.243955266397883, -35.810848211734736 -16.353962833614403, -35.50744042646164 -16.444012671663494 M-36.552152206401566 -16.133947699181363 C-36.3349616636262 -16.198408712220665, -36.11777112085084 -16.26286972525997, -35.50744042646164 -16.444012671663494 M-35.50744042646164 -16.444012671663494 C-35.16730134640494 -16.521647197071506, -34.82716226634824 -16.599281722479517, -34.44500918792333 -16.68650566884811 M-35.50744042646164 -16.444012671663494 C-35.149380319041825 -16.525737554621504, -34.79132021162201 -16.607462437579514, -34.44500918792333 -16.68650566884811 M-34.44500918792333 -16.68650566884811 C-34.0525856649723 -16.74994966074896, -33.66016214202127 -16.81339365264981, -33.36922424863661 -16.86043023499518 M-34.44500918792333 -16.68650566884811 C-34.11918416657543 -16.73918253148886, -33.79335914522753 -16.79185939412961, -33.36922424863661 -16.86043023499518 M-33.36922424863661 -16.86043023499518 C-33.14714637905969 -16.88185381998555, -32.92506850948277 -16.903277404975924, -32.28450623967212 -16.965071676755716 M-33.36922424863661 -16.86043023499518 C-33.05042961409296 -16.891183969982965, -32.731634979549305 -16.92193770497075, -32.28450623967212 -16.965071676755716 M-32.28450623967212 -16.965071676755716 C-32.00440545416004 -16.974053963763986, -31.724304668647964 -16.98303625077225, -31.195312500000004 -17 M-32.28450623967212 -16.965071676755716 C-31.851056833384323 -16.97897155555728, -31.417607427096524 -16.99287143435884, -31.195312500000004 -17 M-31.195312500000004 -17 C-31.195312500000004 -17, -31.1953125 -17, -31.1953125 -17 M-31.195312500000004 -17 C-31.195312500000004 -17, -31.1953125 -17, -31.1953125 -17" stroke="#3D3D3D" stroke-width="1.3" fill="none" stroke-dasharray="0 0" style="fill:#5A5A5A !important;stroke:#3D3D3D !important"></path></g><g class="label" style="color:#ffffff !important" transform="translate(0, -9.5)"><rect></rect><g><rect class="background" style="stroke: none"></rect><text y="-10.1" style="fill:#404040 !important"><tspan class="text-outer-tspan row" x="0" y="-0.1em" dy="1.1em"><tspan font-style="normal" class="text-inner-tspan" font-weight="normal">Edge</tspan><tspan font-style="normal" class="text-inner-tspan" font-weight="normal"> logic</tspan></tspan></text></g></g></g><g class="node default accentC" id="gb18f39eb-f56a-4b41-ab3e-20046c527fb5-dark-flowchart-q1-1" data-look="classic" transform="translate(222.67578125, 174.84375)"><polygon points="82.84375,0 165.6875,-82.84375 82.84375,-165.6875 0,-82.84375" class="label-container" transform="translate(-82.34375, 82.84375)" style="fill:#1F6E68 !important;stroke:#155752 !important"></polygon><g class="label" style="color:#ffffff !important" transform="translate(0, -9.5)"><rect></rect><g><rect class="background" style="stroke: none"></rect><text y="-10.1" style="fill:#404040 !important"><tspan class="text-outer-tspan row" x="0" y="-0.1em" dy="1.1em"><tspan font-style="normal" class="text-inner-tspan" font-weight="normal">Network</tspan><tspan font-style="normal" class="text-inner-tspan" font-weight="normal"> access?</tspan></tspan></text></g></g></g><g class="node default accentC" id="gb18f39eb-f56a-4b41-ab3e-20046c527fb5-dark-flowchart-q2-2" data-look="classic" transform="translate(276.7328128814697, 402.6484375)"><polygon points="71.9609375,0 143.921875,-71.9609375 71.9609375,-143.921875 0,-71.9609375" class="label-container" transform="translate(-71.4609375, 71.9609375)" style="fill:#1F6E68 !important;stroke:#155752 !important"></polygon><g class="label" style="color:#ffffff !important" transform="translate(0, -9.5)"><rect></rect><g><rect class="background" style="stroke: none"></rect><text y="-10.1" style="fill:#404040 !important"><tspan class="text-outer-tspan row" x="0" y="-0.1em" dy="1.1em"><tspan font-style="normal" class="text-inner-tspan" font-weight="normal">Mutate</tspan><tspan font-style="normal" class="text-inner-tspan" font-weight="normal"> body?</tspan></tspan></text></g></g></g><g class="node default accentC" id="gb18f39eb-f56a-4b41-ab3e-20046c527fb5-dark-flowchart-q3-3" data-look="classic" transform="translate(369.8203125, 607.4796867370605)"><polygon points="59.87031173706055,0 119.7406234741211,-59.87031173706055 59.87031173706055,-119.7406234741211 0,-59.87031173706055" class="label-container" transform="translate(-59.37031173706055, 59.87031173706055)" style="fill:#1F6E68 !important;stroke:#155752 !important"></polygon><g class="label" style="color:#ffffff !important" transform="translate(0, -18.299999237060547)"><rect></rect><g><rect class="background" style="stroke: none"></rect><text y="-10.1" style="fill:#404040 !important"><tspan class="text-outer-tspan row" x="0" y="-0.1em" dy="1.1em"><tspan font-style="normal" class="text-inner-tspan" font-weight="normal">1</tspan><tspan font-style="normal" class="text-inner-tspan" font-weight="normal"> ms</tspan><tspan font-style="normal" class="text-inner-tspan" font-weight="normal"> or</tspan></tspan><tspan class="text-outer-tspan row" x="0" y="1em" dy="1.1em"><tspan font-style="normal" class="text-inner-tspan" font-weight="normal">non-JS?</tspan></tspan></text></g></g></g><g class="node default primaryC" id="gb18f39eb-f56a-4b41-ab3e-20046c527fb5-dark-flowchart-cff-4" data-look="classic" transform="translate(369.8203125, 791.25)"><rect class="basic label-container" style="fill:#2E5A88 !important;stroke:#1F4870 !important" x="-109.6640625" y="-42.099998474121094" width="219.328125" height="84.19999694824219"></rect><g class="label" style="color:#ffffff !important" transform="translate(0, -27.099998474121094)"><rect></rect><g><rect class="background" style="stroke: none"></rect><text y="-10.1" style="fill:#404040 !important"><tspan class="text-outer-tspan row" x="0" y="-0.1em" dy="1.1em"><tspan font-style="normal" class="text-inner-tspan" font-weight="normal">CloudFront</tspan><tspan font-style="normal" class="text-inner-tspan" font-weight="normal"> Functions</tspan></tspan><tspan class="text-outer-tspan row" x="0" y="1em" dy="1.1em"><tspan font-style="normal" class="text-inner-tspan" font-weight="normal">0.10</tspan><tspan font-style="normal" class="text-inner-tspan" font-weight="normal"> USD/1M</tspan></tspan><tspan class="text-outer-tspan row" x="0" y="2.1em" dy="1.1em"><tspan font-style="normal" class="text-inner-tspan" font-weight="normal">sub-ms,</tspan><tspan font-style="normal" class="text-inner-tspan" font-weight="normal"> JS,</tspan><tspan font-style="normal" class="text-inner-tspan" font-weight="normal"> every</tspan><tspan font-style="normal" class="text-inner-tspan" font-weight="normal"> POP</tspan></tspan></text></g></g></g><g class="node default primaryC" id="gb18f39eb-f56a-4b41-ab3e-20046c527fb5-dark-flowchart-le-5" data-look="classic" transform="translate(109.078125, 791.25)"><rect class="basic label-container" style="fill:#2E5A88 !important;stroke:#1F4870 !important" x="-101.078125" y="-50.900001525878906" width="202.15625" height="101.80000305175781"></rect><g class="label" style="color:#ffffff !important" transform="translate(0, -35.900001525878906)"><rect></rect><g><rect class="background" style="stroke: none"></rect><text y="-10.1" style="fill:#404040 !important"><tspan class="text-outer-tspan row" x="0" y="-0.1em" dy="1.1em"><tspan font-style="normal" class="text-inner-tspan" font-weight="normal">Lambda@Edge</tspan></tspan><tspan class="text-outer-tspan row" x="0" y="1em" dy="1.1em"><tspan font-style="normal" class="text-inner-tspan" font-weight="normal">0.60</tspan><tspan font-style="normal" class="text-inner-tspan" font-weight="normal"> USD/1M</tspan><tspan font-style="normal" class="text-inner-tspan" font-weight="normal"> +</tspan><tspan font-style="normal" class="text-inner-tspan" font-weight="normal"> GB-s</tspan></tspan><tspan class="text-outer-tspan row" x="0" y="2.1em" dy="1.1em"><tspan font-style="normal" class="text-inner-tspan" font-weight="normal">Node</tspan><tspan font-style="normal" class="text-inner-tspan" font-weight="normal"> or</tspan><tspan font-style="normal" class="text-inner-tspan" font-weight="normal"> Python</tspan></tspan><tspan class="text-outer-tspan row" x="0" y="3.2em" dy="1.1em"><tspan font-style="normal" class="text-inner-tspan" font-weight="normal">15</tspan><tspan font-style="normal" class="text-inner-tspan" font-weight="normal"> regional</tspan><tspan font-style="normal" class="text-inner-tspan" font-weight="normal"> caches</tspan></tspan></text></g></g></g></g></g></g><defs><filter id="gb18f39eb-f56a-4b41-ab3e-20046c527fb5-dark-drop-shadow" height="130%" width="130%"><feDropShadow dx="4" dy="4" stdDeviation="0" flood-opacity="0.06" flood-color="#000000"></feDropShadow></filter></defs><defs><filter id="gb18f39eb-f56a-4b41-ab3e-20046c527fb5-dark-drop-shadow-small" height="150%" width="150%"><feDropShadow dx="2" dy="2" stdDeviation="0" flood-opacity="0.06" flood-color="#000000"></feDropShadow></filter></defs><linearGradient id="gb18f39eb-f56a-4b41-ab3e-20046c527fb5-dark-gradient" gradientUnits="objectBoundingBox" x1="0%" y1="0%" x2="100%" y2="0%"><stop offset="0%" stop-color="#555555" stop-opacity="1"></stop><stop offset="100%" stop-color="#555555" stop-opacity="1"></stop></linearGradient></svg>