<svg id="gb18f39eb-f56a-4b41-ab3e-20046c527fb5-light" width="100%" xmlns="http://www.w3.org/2000/svg" xmlns:xlink="http://www.w3.org/1999/xlink" class="flowchart" style="max-width: 487.484375px;" viewBox="0 0 487.484375 850.1499633789062" role="graphics-document document" aria-roledescription="flowchart-v2"><style>#gb18f39eb-f56a-4b41-ab3e-20046c527fb5-light{font-family:"trebuchet ms",verdana,arial,sans-serif;font-size:16px;fill:#333;}@keyframes edge-animation-frame{from{stroke-dashoffset:0;}}@keyframes dash{to{stroke-dashoffset:0;}}#gb18f39eb-f56a-4b41-ab3e-20046c527fb5-light .edge-animation-slow{stroke-dasharray:9,5!important;stroke-dashoffset:900;animation:dash 50s linear infinite;stroke-linecap:round;}#gb18f39eb-f56a-4b41-ab3e-20046c527fb5-light .edge-animation-fast{stroke-dasharray:9,5!important;stroke-dashoffset:900;animation:dash 20s linear infinite;stroke-linecap:round;}#gb18f39eb-f56a-4b41-ab3e-20046c527fb5-light .error-icon{fill:#552222;}#gb18f39eb-f56a-4b41-ab3e-20046c527fb5-light .error-text{fill:#552222;stroke:#552222;}#gb18f39eb-f56a-4b41-ab3e-20046c527fb5-light .edge-thickness-normal{stroke-width:1px;}#gb18f39eb-f56a-4b41-ab3e-20046c527fb5-light .edge-thickness-thick{stroke-width:3.5px;}#gb18f39eb-f56a-4b41-ab3e-20046c527fb5-light .edge-pattern-solid{stroke-dasharray:0;}#gb18f39eb-f56a-4b41-ab3e-20046c527fb5-light .edge-thickness-invisible{stroke-width:0;fill:none;}#gb18f39eb-f56a-4b41-ab3e-20046c527fb5-light .edge-pattern-dashed{stroke-dasharray:3;}#gb18f39eb-f56a-4b41-ab3e-20046c527fb5-light .edge-pattern-dotted{stroke-dasharray:2;}#gb18f39eb-f56a-4b41-ab3e-20046c527fb5-light .marker{fill:#333333;stroke:#333333;}#gb18f39eb-f56a-4b41-ab3e-20046c527fb5-light .marker.cross{stroke:#333333;}#gb18f39eb-f56a-4b41-ab3e-20046c527fb5-light svg{font-family:"trebuchet ms",verdana,arial,sans-serif;font-size:16px;}#gb18f39eb-f56a-4b41-ab3e-20046c527fb5-light p{margin:0;}#gb18f39eb-f56a-4b41-ab3e-20046c527fb5-light .label{font-family:"trebuchet ms",verdana,arial,sans-serif;color:#333;}#gb18f39eb-f56a-4b41-ab3e-20046c527fb5-light .cluster-label text{fill:#333;}#gb18f39eb-f56a-4b41-ab3e-20046c527fb5-light .cluster-label span{color:#333;}#gb18f39eb-f56a-4b41-ab3e-20046c527fb5-light .cluster-label span p{background-color:transparent;}#gb18f39eb-f56a-4b41-ab3e-20046c527fb5-light .label text,#gb18f39eb-f56a-4b41-ab3e-20046c527fb5-light span{fill:#333;color:#333;}#gb18f39eb-f56a-4b41-ab3e-20046c527fb5-light .node rect,#gb18f39eb-f56a-4b41-ab3e-20046c527fb5-light .node circle,#gb18f39eb-f56a-4b41-ab3e-20046c527fb5-light .node ellipse,#gb18f39eb-f56a-4b41-ab3e-20046c527fb5-light .node polygon,#gb18f39eb-f56a-4b41-ab3e-20046c527fb5-light .node path{fill:#ECECFF;stroke:#9370DB;stroke-width:1px;}#gb18f39eb-f56a-4b41-ab3e-20046c527fb5-light .rough-node .label text,#gb18f39eb-f56a-4b41-ab3e-20046c527fb5-light .node .label text,#gb18f39eb-f56a-4b41-ab3e-20046c527fb5-light .image-shape .label,#gb18f39eb-f56a-4b41-ab3e-20046c527fb5-light .icon-shape .label{text-anchor:middle;}#gb18f39eb-f56a-4b41-ab3e-20046c527fb5-light .node .katex path{fill:#000;stroke:#000;stroke-width:1px;}#gb18f39eb-f56a-4b41-ab3e-20046c527fb5-light .rough-node .label,#gb18f39eb-f56a-4b41-ab3e-20046c527fb5-light .node .label,#gb18f39eb-f56a-4b41-ab3e-20046c527fb5-light .image-shape .label,#gb18f39eb-f56a-4b41-ab3e-20046c527fb5-light .icon-shape .label{text-align:center;}#gb18f39eb-f56a-4b41-ab3e-20046c527fb5-light .node.clickable{cursor:pointer;}#gb18f39eb-f56a-4b41-ab3e-20046c527fb5-light .root .anchor path{fill:#333333!important;stroke-width:0;stroke:#333333;}#gb18f39eb-f56a-4b41-ab3e-20046c527fb5-light .arrowheadPath{fill:#333333;}#gb18f39eb-f56a-4b41-ab3e-20046c527fb5-light .edgePath .path{stroke:#333333;stroke-width:1px;}#gb18f39eb-f56a-4b41-ab3e-20046c527fb5-light .flowchart-link{stroke:#333333;fill:none;}#gb18f39eb-f56a-4b41-ab3e-20046c527fb5-light .edgeLabel{background-color:rgba(232,232,232, 0.8);text-align:center;}#gb18f39eb-f56a-4b41-ab3e-20046c527fb5-light .edgeLabel p{background-color:rgba(232,232,232, 0.8);}#gb18f39eb-f56a-4b41-ab3e-20046c527fb5-light .edgeLabel rect{opacity:0.5;background-color:rgba(232,232,232, 0.8);fill:rgba(232,232,232, 0.8);}#gb18f39eb-f56a-4b41-ab3e-20046c527fb5-light .labelBkg{background-color:rgba(232, 232, 232, 0.5);}#gb18f39eb-f56a-4b41-ab3e-20046c527fb5-light .cluster rect{fill:#ffffde;stroke:#aaaa33;stroke-width:1px;}#gb18f39eb-f56a-4b41-ab3e-20046c527fb5-light .cluster text{fill:#333;}#gb18f39eb-f56a-4b41-ab3e-20046c527fb5-light .cluster span{color:#333;}#gb18f39eb-f56a-4b41-ab3e-20046c527fb5-light div.mermaidTooltip{position:absolute;text-align:center;max-width:200px;padding:2px;font-family:"trebuchet ms",verdana,arial,sans-serif;font-size:12px;background:hsl(80, 100%, 96.2745098039%);border:1px solid #aaaa33;border-radius:2px;pointer-events:none;z-index:100;}#gb18f39eb-f56a-4b41-ab3e-20046c527fb5-light .flowchartTitleText{text-anchor:middle;font-size:18px;fill:#333;}#gb18f39eb-f56a-4b41-ab3e-20046c527fb5-light rect.text{fill:none;stroke-width:0;}#gb18f39eb-f56a-4b41-ab3e-20046c527fb5-light .icon-shape,#gb18f39eb-f56a-4b41-ab3e-20046c527fb5-light .image-shape{background-color:rgba(232,232,232, 0.8);text-align:center;}#gb18f39eb-f56a-4b41-ab3e-20046c527fb5-light .icon-shape p,#gb18f39eb-f56a-4b41-ab3e-20046c527fb5-light .image-shape p{background-color:rgba(232,232,232, 0.8);padding:2px;}#gb18f39eb-f56a-4b41-ab3e-20046c527fb5-light .icon-shape .label rect,#gb18f39eb-f56a-4b41-ab3e-20046c527fb5-light .image-shape .label rect{opacity:0.5;background-color:rgba(232,232,232, 0.8);fill:rgba(232,232,232, 0.8);}#gb18f39eb-f56a-4b41-ab3e-20046c527fb5-light .label-icon{display:inline-block;height:1em;overflow:visible;vertical-align:-0.125em;}#gb18f39eb-f56a-4b41-ab3e-20046c527fb5-light .node .label-icon path{fill:currentColor;stroke:revert;stroke-width:revert;}#gb18f39eb-f56a-4b41-ab3e-20046c527fb5-light .node .neo-node{stroke:#9370DB;}#gb18f39eb-f56a-4b41-ab3e-20046c527fb5-light [data-look="neo"].node rect,#gb18f39eb-f56a-4b41-ab3e-20046c527fb5-light [data-look="neo"].cluster rect,#gb18f39eb-f56a-4b41-ab3e-20046c527fb5-light [data-look="neo"].node polygon{stroke:#9370DB;filter:drop-shadow(1px 2px 2px rgba(185, 185, 185, 1));}#gb18f39eb-f56a-4b41-ab3e-20046c527fb5-light [data-look="neo"].node path{stroke:#9370DB;stroke-width:1px;}#gb18f39eb-f56a-4b41-ab3e-20046c527fb5-light [data-look="neo"].node .outer-path{filter:drop-shadow(1px 2px 2px rgba(185, 185, 185, 1));}#gb18f39eb-f56a-4b41-ab3e-20046c527fb5-light [data-look="neo"].node .neo-line path{stroke:#9370DB;filter:none;}#gb18f39eb-f56a-4b41-ab3e-20046c527fb5-light [data-look="neo"].node circle{stroke:#9370DB;filter:drop-shadow(1px 2px 2px rgba(185, 185, 185, 1));}#gb18f39eb-f56a-4b41-ab3e-20046c527fb5-light [data-look="neo"].node circle .state-start{fill:#000000;}#gb18f39eb-f56a-4b41-ab3e-20046c527fb5-light [data-look="neo"].icon-shape .icon{fill:#9370DB;filter:drop-shadow(1px 2px 2px rgba(185, 185, 185, 1));}#gb18f39eb-f56a-4b41-ab3e-20046c527fb5-light [data-look="neo"].icon-shape .icon-neo path{stroke:#9370DB;filter:drop-shadow(1px 2px 2px rgba(185, 185, 185, 1));}#gb18f39eb-f56a-4b41-ab3e-20046c527fb5-light :root{--mermaid-font-family:"trebuchet ms",verdana,arial,sans-serif;}#gb18f39eb-f56a-4b41-ab3e-20046c527fb5-light .primaryC rect{fill:#2E5A88!important;stroke:#1F4870!important;color:#ffffff!important;}#gb18f39eb-f56a-4b41-ab3e-20046c527fb5-light .primaryC polygon{fill:#2E5A88!important;stroke:#1F4870!important;color:#ffffff!important;}#gb18f39eb-f56a-4b41-ab3e-20046c527fb5-light .primaryC ellipse{fill:#2E5A88!important;stroke:#1F4870!important;color:#ffffff!important;}#gb18f39eb-f56a-4b41-ab3e-20046c527fb5-light .primaryC circle{fill:#2E5A88!important;stroke:#1F4870!important;color:#ffffff!important;}#gb18f39eb-f56a-4b41-ab3e-20046c527fb5-light .primaryC path{fill:#2E5A88!important;stroke:#1F4870!important;color:#ffffff!important;}#gb18f39eb-f56a-4b41-ab3e-20046c527fb5-light .primaryC tspan{fill:#ffffff!important;}#gb18f39eb-f56a-4b41-ab3e-20046c527fb5-light .accentC rect{fill:#1F6E68!important;stroke:#155752!important;color:#ffffff!important;}#gb18f39eb-f56a-4b41-ab3e-20046c527fb5-light .accentC polygon{fill:#1F6E68!important;stroke:#155752!important;color:#ffffff!important;}#gb18f39eb-f56a-4b41-ab3e-20046c527fb5-light .accentC ellipse{fill:#1F6E68!important;stroke:#155752!important;color:#ffffff!important;}#gb18f39eb-f56a-4b41-ab3e-20046c527fb5-light .accentC circle{fill:#1F6E68!important;stroke:#155752!important;color:#ffffff!important;}#gb18f39eb-f56a-4b41-ab3e-20046c527fb5-light .accentC path{fill:#1F6E68!important;stroke:#155752!important;color:#ffffff!important;}#gb18f39eb-f56a-4b41-ab3e-20046c527fb5-light .accentC tspan{fill:#ffffff!important;}#gb18f39eb-f56a-4b41-ab3e-20046c527fb5-light .neutralC rect{fill:#5A5A5A!important;stroke:#3D3D3D!important;color:#ffffff!important;}#gb18f39eb-f56a-4b41-ab3e-20046c527fb5-light .neutralC polygon{fill:#5A5A5A!important;stroke:#3D3D3D!important;color:#ffffff!important;}#gb18f39eb-f56a-4b41-ab3e-20046c527fb5-light .neutralC ellipse{fill:#5A5A5A!important;stroke:#3D3D3D!important;color:#ffffff!important;}#gb18f39eb-f56a-4b41-ab3e-20046c527fb5-light .neutralC circle{fill:#5A5A5A!important;stroke:#3D3D3D!important;color:#ffffff!important;}#gb18f39eb-f56a-4b41-ab3e-20046c527fb5-light .neutralC path{fill:#5A5A5A!important;stroke:#3D3D3D!important;color:#ffffff!important;}#gb18f39eb-f56a-4b41-ab3e-20046c527fb5-light .neutralC tspan{fill:#ffffff!important;}</style><g><marker id="gb18f39eb-f56a-4b41-ab3e-20046c527fb5-light_flowchart-v2-pointEnd" class="marker flowchart-v2" viewBox="0 0 10 10" refX="5" refY="5" markerUnits="userSpaceOnUse" markerWidth="8" markerHeight="8" orient="auto"><path d="M 0 0 L 10 5 L 0 10 z" class="arrowMarkerPath" style="stroke-width: 1; stroke-dasharray: 1, 0;"></path></marker><marker id="gb18f39eb-f56a-4b41-ab3e-20046c527fb5-light_flowchart-v2-pointStart" class="marker flowchart-v2" viewBox="0 0 10 10" refX="4.5" refY="5" markerUnits="userSpaceOnUse" markerWidth="8" markerHeight="8" orient="auto"><path d="M 0 5 L 10 10 L 10 0 z" class="arrowMarkerPath" style="stroke-width: 1; stroke-dasharray: 1, 0;"></path></marker><marker id="gb18f39eb-f56a-4b41-ab3e-20046c527fb5-light_flowchart-v2-pointEnd-margin" class="marker flowchart-v2" viewBox="0 0 11.5 14" refX="11.5" refY="7" markerUnits="userSpaceOnUse" markerWidth="10.5" markerHeight="14" orient="auto"><path d="M 0 0 L 11.5 7 L 0 14 z" class="arrowMarkerPath" style="stroke-width: 0; stroke-dasharray: 1, 0;"></path></marker><marker id="gb18f39eb-f56a-4b41-ab3e-20046c527fb5-light_flowchart-v2-pointStart-margin" class="marker flowchart-v2" viewBox="0 0 11.5 14" refX="1" refY="7" markerUnits="userSpaceOnUse" markerWidth="11.5" markerHeight="14" orient="auto"><polygon points="0,7 11.5,14 11.5,0" class="arrowMarkerPath" style="stroke-width: 0; stroke-dasharray: 1, 0;"></polygon></marker><marker id="gb18f39eb-f56a-4b41-ab3e-20046c527fb5-light_flowchart-v2-circleEnd" class="marker flowchart-v2" viewBox="0 0 10 10" refX="11" refY="5" markerUnits="userSpaceOnUse" markerWidth="11" markerHeight="11" orient="auto"><circle cx="5" cy="5" r="5" class="arrowMarkerPath" style="stroke-width: 1; stroke-dasharray: 1, 0;"></circle></marker><marker id="gb18f39eb-f56a-4b41-ab3e-20046c527fb5-light_flowchart-v2-circleStart" class="marker flowchart-v2" viewBox="0 0 10 10" refX="-1" refY="5" markerUnits="userSpaceOnUse" markerWidth="11" markerHeight="11" orient="auto"><circle cx="5" cy="5" r="5" class="arrowMarkerPath" style="stroke-width: 1; stroke-dasharray: 1, 0;"></circle></marker><marker id="gb18f39eb-f56a-4b41-ab3e-20046c527fb5-light_flowchart-v2-circleEnd-margin" class="marker flowchart-v2" viewBox="0 0 10 10" refY="5" refX="12.25" markerUnits="userSpaceOnUse" markerWidth="14" markerHeight="14" orient="auto"><circle cx="5" cy="5" r="5" class="arrowMarkerPath" style="stroke-width: 0; stroke-dasharray: 1, 0;"></circle></marker><marker id="gb18f39eb-f56a-4b41-ab3e-20046c527fb5-light_flowchart-v2-circleStart-margin" class="marker flowchart-v2" viewBox="0 0 10 10" refX="-2" refY="5" markerUnits="userSpaceOnUse" markerWidth="14" markerHeight="14" orient="auto"><circle cx="5" cy="5" r="5" class="arrowMarkerPath" style="stroke-width: 0; stroke-dasharray: 1, 0;"></circle></marker><marker id="gb18f39eb-f56a-4b41-ab3e-20046c527fb5-light_flowchart-v2-crossEnd" class="marker cross flowchart-v2" viewBox="0 0 11 11" refX="12" refY="5.2" markerUnits="userSpaceOnUse" markerWidth="11" markerHeight="11" orient="auto"><path d="M 1,1 l 9,9 M 10,1 l -9,9" class="arrowMarkerPath" style="stroke-width: 2; stroke-dasharray: 1, 0;"></path></marker><marker id="gb18f39eb-f56a-4b41-ab3e-20046c527fb5-light_flowchart-v2-crossStart" class="marker cross flowchart-v2" viewBox="0 0 11 11" refX="-1" refY="5.2" markerUnits="userSpaceOnUse" markerWidth="11" markerHeight="11" orient="auto"><path d="M 1,1 l 9,9 M 10,1 l -9,9" class="arrowMarkerPath" style="stroke-width: 2; stroke-dasharray: 1, 0;"></path></marker><marker id="gb18f39eb-f56a-4b41-ab3e-20046c527fb5-light_flowchart-v2-crossEnd-margin" class="marker cross flowchart-v2" viewBox="0 0 15 15" refX="17.7" refY="7.5" markerUnits="userSpaceOnUse" markerWidth="12" markerHeight="12" orient="auto"><path d="M 1,1 L 14,14 M 1,14 L 14,1" class="arrowMarkerPath" style="stroke-width: 2.5;"></path></marker><marker id="gb18f39eb-f56a-4b41-ab3e-20046c527fb5-light_flowchart-v2-crossStart-margin" class="marker cross flowchart-v2" viewBox="0 0 15 15" refX="-3.5" refY="7.5" markerUnits="userSpaceOnUse" markerWidth="12" markerHeight="12" orient="auto"><path d="M 1,1 L 14,14 M 1,14 L 14,1" class="arrowMarkerPath" style="stroke-width: 2.5; stroke-dasharray: 1, 0;"></path></marker><g class="root"><g class="clusters"></g><g class="edgePaths"><path d="M223.176,42.5L223.092,46.583C223.009,50.667,222.842,58.833,222.759,66.417C222.676,74,222.676,81,222.676,84.5L222.676,88" id="gb18f39eb-f56a-4b41-ab3e-20046c527fb5-light-L_entry_q1_0" class="edge-thickness-normal edge-pattern-solid edge-thickness-normal edge-pattern-solid flowchart-link" style=";" data-edge="true" data-et="edge" data-id="L_entry_q1_0" data-points="W3sieCI6MjIzLjE3NTc4MTI1LCJ5Ijo0Mi41fSx7IngiOjIyMi42NzU3ODEyNSwieSI6Njd9LHsieCI6MjIyLjY3NTc4MTI1LCJ5Ijo5Mn1d" data-look="classic" marker-end="url(#gb18f39eb-f56a-4b41-ab3e-20046c527fb5-light_flowchart-v2-pointEnd)"></path><path d="M176.933,211.944L160.032,225.652C143.132,239.359,109.332,266.773,92.431,298.557C75.531,330.341,75.531,366.495,75.531,402.648C75.531,438.802,75.531,474.956,75.531,509.094C75.531,543.233,75.531,575.356,75.531,607.48C75.531,639.603,75.531,671.727,77.627,693.249C79.723,714.772,83.916,725.694,86.012,731.155L88.108,736.616" id="gb18f39eb-f56a-4b41-ab3e-20046c527fb5-light-L_q1_le_0" class="edge-thickness-normal edge-pattern-solid edge-thickness-normal edge-pattern-solid flowchart-link" style=";" data-edge="true" data-et="edge" data-id="L_q1_le_0" data-points="W3sieCI6MTc2LjkzMjY2Mzc1MzE4ODE3LCJ5IjoyMTEuOTQ0MzgyNTAzMTg4MTd9LHsieCI6NzUuNTMxMjUsInkiOjI5NC4xODc1fSx7IngiOjc1LjUzMTI1LCJ5Ijo0MDIuNjQ4NDM3NX0seyJ4Ijo3NS41MzEyNSwieSI6NTExLjEwOTM3NX0seyJ4Ijo3NS41MzEyNSwieSI6NjA3LjQ3OTY4NjczNzA2MDV9LHsieCI6NzUuNTMxMjUsInkiOjcwMy44NDk5OTg0NzQxMjExfSx7IngiOjg5LjU0MTEwMDI5ODg4NjMzLCJ5Ijo3NDAuMzQ5OTk4NDc0MTIxMX1d" data-look="classic" marker-end="url(#gb18f39eb-f56a-4b41-ab3e-20046c527fb5-light_flowchart-v2-pointEnd)"></path><path d="M248.502,231.861L253.207,242.249C257.912,252.637,267.323,273.412,272.028,289.216C276.733,305.021,276.733,315.854,276.733,321.271L276.733,326.688" id="gb18f39eb-f56a-4b41-ab3e-20046c527fb5-light-L_q1_q2_0" class="edge-thickness-normal edge-pattern-solid edge-thickness-normal edge-pattern-solid flowchart-link" style=";" data-edge="true" data-et="edge" data-id="L_q1_q2_0" data-points="W3sieCI6MjQ4LjUwMjAwNDAxNjAzODcsInkiOjIzMS44NjEyNzcyMzM5NjEzfSx7IngiOjI3Ni43MzI4MTI4ODE0Njk3LCJ5IjoyOTQuMTg3NX0seyJ4IjoyNzYuNzMyODEyODgxNDY5NywieSI6MzMwLjY4NzV9XQ==" data-look="classic" marker-end="url(#gb18f39eb-f56a-4b41-ab3e-20046c527fb5-light_flowchart-v2-pointEnd)"></path><path d="M237.373,435.249L222.108,447.893C206.844,460.536,176.314,485.823,161.05,514.528C145.785,543.233,145.785,575.356,145.785,607.48C145.785,639.603,145.785,671.727,143.488,693.257C141.192,714.787,136.598,725.725,134.301,731.193L132.004,736.662" id="gb18f39eb-f56a-4b41-ab3e-20046c527fb5-light-L_q2_le_0" class="edge-thickness-normal edge-pattern-solid edge-thickness-normal edge-pattern-solid flowchart-link" style=";" data-edge="true" data-et="edge" data-id="L_q2_le_0" data-points="W3sieCI6MjM3LjM3MjgzODQ4Nzg0MzcsInkiOjQzNS4yNDk0MDA2MDYzNzR9LHsieCI6MTQ1Ljc4NTE1NjI1LCJ5Ijo1MTEuMTA5Mzc1fSx7IngiOjE0NS43ODUxNTYyNSwieSI6NjA3LjQ3OTY4NjczNzA2MDV9LHsieCI6MTQ1Ljc4NTE1NjI1LCJ5Ijo3MDMuODQ5OTk4NDc0MTIxMX0seyJ4IjoxMzAuNDU1NTYxMDg3MTQwOCwieSI6NzQwLjM0OTk5ODQ3NDEyMTF9XQ==" data-look="classic" marker-end="url(#gb18f39eb-f56a-4b41-ab3e-20046c527fb5-light_flowchart-v2-pointEnd)"></path><path d="M309.969,441.373L319.944,452.996C329.919,464.619,349.87,487.864,359.845,504.903C369.82,521.943,369.82,532.776,369.82,538.193L369.82,543.609" id="gb18f39eb-f56a-4b41-ab3e-20046c527fb5-light-L_q2_q3_0" class="edge-thickness-normal edge-pattern-solid edge-thickness-normal edge-pattern-solid flowchart-link" style=";" data-edge="true" data-et="edge" data-id="L_q2_q3_0" data-points="W3sieCI6MzA5Ljk2ODgxMjMxNTg5MjgsInkiOjQ0MS4zNzMzNzU1NjU1NzY5Nn0seyJ4IjozNjkuODIwMzEyNSwieSI6NTExLjEwOTM3NX0seyJ4IjozNjkuODIwMzEyNTAwMDAwMDYsInkiOjU0Ny42MDkzNzQ5OTk5OTk5fV0=" data-look="classic" marker-end="url(#gb18f39eb-f56a-4b41-ab3e-20046c527fb5-light_flowchart-v2-pointEnd)"></path><path d="M333.136,630.666L313.837,642.863C294.538,655.06,255.941,679.455,229.626,697.317C203.31,715.179,189.276,726.508,182.259,732.173L175.242,737.837" id="gb18f39eb-f56a-4b41-ab3e-20046c527fb5-light-L_q3_le_0" class="edge-thickness-normal edge-pattern-solid edge-thickness-normal edge-pattern-solid flowchart-link" style=";" data-edge="true" data-et="edge" data-id="L_q3_le_0" data-points="W3sieCI6MzMzLjEzNTgyNzg4NDg3ODk1LCJ5Ijo2MzAuNjY1NTEzODU5fSx7IngiOjIxNy4zNDM3NSwieSI6NzAzLjg0OTk5ODQ3NDEyMTF9LHsieCI6MTcyLjEyOTg0NTYxMjAyNDUyLCJ5Ijo3NDAuMzQ5OTk4NDc0MTIxMX1d" data-look="classic" marker-end="url(#gb18f39eb-f56a-4b41-ab3e-20046c527fb5-light_flowchart-v2-pointEnd)"></path><path d="M369.82,667.35L369.82,673.433C369.82,679.517,369.82,691.683,369.82,704.65C369.82,717.617,369.82,731.383,369.82,738.267L369.82,745.15" id="gb18f39eb-f56a-4b41-ab3e-20046c527fb5-light-L_q3_cff_0" class="edge-thickness-normal edge-pattern-solid edge-thickness-normal edge-pattern-solid flowchart-link" style=";" data-edge="true" data-et="edge" data-id="L_q3_cff_0" data-points="W3sieCI6MzY5LjgyMDMxMjUwMDAwMDA2LCJ5Ijo2NjcuMzQ5OTk4NDc0MTIxMn0seyJ4IjozNjkuODIwMzEyNSwieSI6NzAzLjg0OTk5ODQ3NDEyMTF9LHsieCI6MzY5LjgyMDMxMjUsInkiOjc0OS4xNTAwMDE1MjU4Nzg5fV0=" data-look="classic" marker-end="url(#gb18f39eb-f56a-4b41-ab3e-20046c527fb5-light_flowchart-v2-pointEnd)"></path></g><g class="edgeLabels"><g class="edgeLabel"><g class="label" data-id="L_entry_q1_0" transform="translate(0, 0)"><text y="-10.1" text-anchor="middle"><tspan class="text-outer-tspan row" x="0" y="-0.1em" dy="1.1em" text-anchor="middle"></tspan></text></g></g><g><rect class="background" style="stroke: none"></rect></g><g class="edgeLabel" transform="translate(75.53125, 511.109375)"><g class="label" data-id="L_q1_le_0" transform="translate(0, -10.5)"><g><rect class="background" style="" x="-13.546875" y="-1" width="27.09375" height="23"></rect><text y="-10.1" text-anchor="middle" style=""><tspan class="text-outer-tspan row" x="0" y="-0.1em" dy="1.1em" text-anchor="middle"><tspan font-style="normal" class="text-inner-tspan" font-weight="normal">yes</tspan></tspan></text></g></g></g><g class="edgeLabel" transform="translate(276.7328128814697, 294.1875)"><g class="label" data-id="L_q1_q2_0" transform="translate(0, -10.5)"><g><rect class="background" style="" x="-10.6640625" y="-1" width="21.328125" height="23"></rect><text y="-10.1" text-anchor="middle" style=""><tspan class="text-outer-tspan row" x="0" y="-0.1em" dy="1.1em" text-anchor="middle"><tspan font-style="normal" class="text-inner-tspan" font-weight="normal">no</tspan></tspan></text></g></g></g><g class="edgeLabel" transform="translate(145.78515625, 607.4796867370605)"><g class="label" data-id="L_q2_le_0" transform="translate(0, -10.5)"><g><rect class="background" style="" x="-13.546875" y="-1" width="27.09375" height="23"></rect><text y="-10.1" text-anchor="middle" style=""><tspan class="text-outer-tspan row" x="0" y="-0.1em" dy="1.1em" text-anchor="middle"><tspan font-style="normal" class="text-inner-tspan" font-weight="normal">yes</tspan></tspan></text></g></g></g><g class="edgeLabel" transform="translate(369.8203125, 511.109375)"><g class="label" data-id="L_q2_q3_0" transform="translate(0, -10.5)"><g><rect class="background" style="" x="-10.6640625" y="-1" width="21.328125" height="23"></rect><text y="-10.1" text-anchor="middle" style=""><tspan class="text-outer-tspan row" x="0" y="-0.1em" dy="1.1em" text-anchor="middle"><tspan font-style="normal" class="text-inner-tspan" font-weight="normal">no</tspan></tspan></text></g></g></g><g class="edgeLabel" transform="translate(250.67997, 682.78039)"><g class="label" data-id="L_q3_le_0" transform="translate(0, -10.5)"><g><rect class="background" style="" x="-13.546875" y="-1" width="27.09375" height="23"></rect><text y="-10.1" text-anchor="middle" style=""><tspan class="text-outer-tspan row" x="0" y="-0.1em" dy="1.1em" text-anchor="middle"><tspan font-style="normal" class="text-inner-tspan" font-weight="normal">yes</tspan></tspan></text></g></g></g><g class="edgeLabel" transform="translate(369.8203125, 703.8499984741211)"><g class="label" data-id="L_q3_cff_0" transform="translate(0, -10.5)"><g><rect class="background" style="" x="-10.6640625" y="-1" width="21.328125" height="23"></rect><text y="-10.1" text-anchor="middle" style=""><tspan class="text-outer-tspan row" x="0" y="-0.1em" dy="1.1em" text-anchor="middle"><tspan font-style="normal" class="text-inner-tspan" font-weight="normal">no</tspan></tspan></text></g></g></g></g><g class="nodes"><g class="node default neutralC" id="gb18f39eb-f56a-4b41-ab3e-20046c527fb5-light-flowchart-entry-0" data-look="classic" transform="translate(222.67578125, 25)"><g class="basic label-container outer-path"><path d="M-31.1953125 -17 C-16.435829238952387 -17, -1.6763459779047736 -17, 31.1953125 -17 C31.1953125 -17, 31.1953125 -17, 31.1953125 -17 C31.57034965832816 -16.987973288297958, 31.94538681665632 -16.97594657659592, 32.28450623967212 -16.965071676755716 C32.70162916112102 -16.92483233018725, 33.11875208256993 -16.884592983618784, 33.3692242486366 -16.860430234995185 C33.744839282554835 -16.79970370924938, 34.12045431647308 -16.73897718350357, 34.445009187923326 -16.686505668848113 C34.724984918798135 -16.622603035288325, 35.004960649672945 -16.558700401728537, 35.50744042646162 -16.4440126716635 C35.77524318031276 -16.364530220045822, 36.04304593416391 -16.285047768428143, 36.55215220640155 -16.133947699181366 C36.887327789569795 -16.010599986246323, 37.222503372738046 -15.887252273311283, 37.57485158294936 -15.757584874882369 C37.94899303293151 -15.591963553487055, 38.32313448291366 -15.426342232091741, 38.57133606499849 -15.316470754341125 C38.899392357073175 -15.145323996895845, 39.22744864914787 -14.974177239450563, 39.53751088406694 -14.812417970097622 C39.89023898516743 -14.5985921223501, 40.24296708626792 -14.384766274602576, 40.469405820579325 -14.247497783161291 C40.77162940362372 -14.036679694677568, 41.07385298666812 -13.825861606193847, 41.363191518350675 -13.624031571755262 C41.68166902682865 -13.370054233786508, 42.00014653530663 -13.116076895817752, 42.2151952202324 -12.944581292275288 C42.52498303453857 -12.663240195858833, 42.83477084884475 -12.381899099442377, 43.02191586025927 -12.21193895166137 C43.283991711295904 -11.94132411863852, 43.54606756233253 -11.670709285615667, 43.78003845028036 -11.42911513444239 C43.98342526306863 -11.190205411103785, 44.186812075856906 -10.95129568776518, 44.48644770195651 -10.59932663159847 C44.66687829162497 -10.357566079007606, 44.84730888129343 -10.115805526416743, 45.13824082814825 -9.725983222076888 C45.369293411154096 -9.371024408274069, 45.60034599415994 -9.01606559447125, 45.73273947109088 -8.812673661278927 C45.93978990073934 -8.445034657308595, 46.1468403303878 -8.077395653338264, 46.267500708341004 -7.863150934094199 C46.4276821026074 -7.53053084156724, 46.587863496873794 -7.19791074904028, 46.74032709126881 -6.881316833080699 C46.87496235733121 -6.548765122910775, 47.00959762339362 -6.216213412740852, 47.149275674845924 -5.871205925162238 C47.28030678097199 -5.476561110482143, 47.41133788709806 -5.0819162958020465, 47.492666001623235 -4.836968972727556 C47.58739509340068 -4.475725889932075, 47.682124185178125 -4.114482807136594, 47.769087007091 -3.7828558772573464 C47.85105632647854 -3.3619607464241237, 47.933025645866074 -2.9410656155909005, 47.97740281804565 -2.713198215567453 C48.007550964970456 -2.4793751414436023, 48.03769911189527 -2.245552067319751, 48.116757420136366 -1.632391440430593 C48.13902532554429 -1.2855508393725552, 48.161293230952204 -0.9387102383145174, 48.1865781754117 -0.5448768187181379 C48.1865781754117 -0.18984115826106723, 48.1865781754117 0.1651945021960034, 48.1865781754117 0.5448768187181336 C48.162179272736495 0.9249094223241232, 48.13778037006129 1.3049420259301128, 48.116757420136366 1.6323914404305815 C48.06669226802786 2.020686873701688, 48.01662711591935 2.4089823069727943, 47.977402818045654 2.7131982155674415 C47.92704036057833 2.9717987905529917, 47.87667790311101 3.2303993655385423, 47.769087007091 3.782855877257343 C47.68004509188989 4.1224112909293575, 47.59100317668877 4.461966704601372, 47.492666001623235 4.836968972727545 C47.38908683231111 5.148932927596212, 47.285507662998974 5.460896882464878, 47.149275674845924 5.871205925162227 C47.01065059394538 6.21361255512018, 46.87202551304484 6.556019185078135, 46.74032709126881 6.881316833080694 C46.62290668620036 7.125142816599518, 46.505486281131915 7.368968800118342, 46.267500708341004 7.863150934094196 C46.10448145926097 8.152608118324784, 45.94146221018093 8.44206530255537, 45.73273947109089 8.812673661278923 C45.57280732369403 9.058372387475334, 45.41287517629717 9.304071113671744, 45.138240828148255 9.725983222076879 C44.94668748744584 9.982647247749776, 44.75513414674343 10.239311273422672, 44.48644770195651 10.599326631598467 C44.260825929686845 10.864354803548947, 44.03520415741718 11.129382975499428, 43.78003845028037 11.42911513444238 C43.60563944942717 11.609196421247562, 43.43124044857397 11.789277708052744, 43.02191586025927 12.211938951661365 C42.80215424689793 12.41152063434248, 42.58239263353658 12.611102317023596, 42.21519522023242 12.944581292275275 C41.94218698353861 13.162298095984296, 41.6691787468448 13.380014899693316, 41.363191518350675 13.62403157175526 C41.14422547144187 13.776772807191445, 40.92525942453307 13.929514042627632, 40.46940582057934 14.247497783161286 C40.177454684249355 14.424480277699839, 39.88550354791937 14.601462772238392, 39.53751088406695 14.81241797009762 C39.15140594823763 15.013848667807759, 38.765301012408315 15.215279365517898, 38.57133606499849 15.316470754341124 C38.2587095272086 15.454861248883958, 37.94608298941872 15.593251743426794, 37.574851582949364 15.757584874882367 C37.18890565563333 15.899616543779713, 36.80295972831728 16.041648212677057, 36.55215220640156 16.133947699181363 C36.19063742479911 16.24124338873116, 35.82912264319666 16.348539078280954, 35.50744042646164 16.444012671663497 C35.12887782108649 16.53041711598851, 34.750315215711346 16.616821560313518, 34.44500918792333 16.68650566884811 C34.09540272482552 16.74302733056315, 33.745796261727705 16.79954899227819, 33.36922424863661 16.86043023499518 C33.0832840676355 16.888014540362978, 32.797343886634394 16.915598845730774, 32.28450623967212 16.965071676755716 C32.06279350735044 16.97218157254362, 31.841080775028765 16.97929146833152, 31.195312500000004 17 C31.195312500000004 17, 31.1953125 17, 31.1953125 17 C6.807103036880385 17, -17.58110642623923 17, -31.195312499999996 17 C-31.548413134947307 16.98867674990593, -31.90151376989462 16.977353499811862, -32.28450623967211 16.965071676755716 C-32.66988684900148 16.927894472861706, -33.055267458330846 16.890717268967695, -33.369224248636606 16.86043023499518 C-33.63906199219169 16.81680496124015, -33.908899735746786 16.77317968748512, -34.445009187923326 16.68650566884811 C-34.71762933120103 16.624281900157666, -34.99024947447874 16.56205813146722, -35.50744042646162 16.4440126716635 C-35.869228454328535 16.33663588405671, -36.23101648219546 16.229259096449923, -36.552152206401544 16.13394769918137 C-36.93758557535106 15.992104656500944, -37.32301894430057 15.850261613820516, -37.574851582949364 15.757584874882369 C-37.97115662615095 15.582152388228442, -38.367461669352544 15.406719901574515, -38.57133606499848 15.316470754341127 C-38.92200918596859 15.133524811747877, -39.27268230693869 14.950578869154626, -39.53751088406693 14.812417970097624 C-39.763966385350024 14.675139314419573, -39.990421886633115 14.537860658741522, -40.46940582057932 14.247497783161299 C-40.703587416962876 14.084142839082046, -40.93776901334643 13.920787895002794, -41.36319151835067 13.624031571755264 C-41.55956945681302 13.467425391667952, -41.75594739527538 13.31081921158064, -42.2151952202324 12.94458129227529 C-42.46836048721086 12.71466329519136, -42.721525754189315 12.484745298107429, -43.02191586025926 12.211938951661377 C-43.21556609173096 12.01197918868716, -43.40921632320267 11.812019425712942, -43.780038450280365 11.429115134442386 C-43.95735670804106 11.220827019181977, -44.13467496580176 11.012538903921566, -44.48644770195651 10.599326631598473 C-44.62490298612824 10.413809164344219, -44.76335827029998 10.228291697089965, -45.13824082814825 9.72598322207689 C-45.30812677285828 9.464992790238615, -45.47801271756831 9.20400235840034, -45.73273947109088 8.812673661278936 C-45.93883987021909 8.446721532698335, -46.144940269347295 8.080769404117737, -46.267500708341004 7.863150934094201 C-46.38142061747029 7.62659380529166, -46.49534052659958 7.390036676489119, -46.74032709126881 6.881316833080701 C-46.900070694672344 6.48674704424151, -47.05981429807587 6.092177255402318, -47.149275674845924 5.87120592516224 C-47.225985329746365 5.64016866662584, -47.302694984646806 5.40913140808944, -47.492666001623235 4.8369689727275516 C-47.59259566647551 4.455893850855101, -47.69252533132779 4.074818728982651, -47.769087007091 3.782855877257349 C-47.81675121913331 3.53811022225487, -47.86441543117562 3.2933645672523912, -47.97740281804565 2.713198215567455 C-48.01697463677703 2.406287003826333, -48.05654645550841 2.099375792085211, -48.116757420136366 1.6323914404306026 C-48.14131376810208 1.2499064993373288, -48.165870116067794 0.867421558244055, -48.1865781754117 0.54487681871814 C-48.1865781754117 0.21214351619761018, -48.1865781754117 -0.12058978632291961, -48.1865781754117 -0.5448768187181317 C-48.163082695312944 -0.9108378864664055, -48.139587215214185 -1.2767989542146791, -48.116757420136366 -1.6323914404305793 C-48.06637652083752 -2.023135746558567, -48.01599562153868 -2.413880052686554, -47.977402818045654 -2.713198215567447 C-47.894935600408765 -3.1366499486802426, -47.812468382771875 -3.5601016817930384, -47.769087007091 -3.782855877257341 C-47.69241945368016 -4.0752224863407385, -47.61575190026931 -4.367589095424136, -47.492666001623235 -4.836968972727544 C-47.41059568103821 -5.084151702199822, -47.328525360453185 -5.331334431672101, -47.14927567484593 -5.871205925162218 C-47.03724349821496 -6.147927567435501, -46.92521132158399 -6.424649209708784, -46.74032709126881 -6.881316833080692 C-46.6349340451268 -7.100167748444523, -46.52954099898478 -7.319018663808353, -46.267500708341004 -7.863150934094194 C-46.09260766872718 -8.173691235769185, -45.917714629113355 -8.484231537444176, -45.73273947109088 -8.812673661278929 C-45.5074362390484 -9.158799928085106, -45.28213300700593 -9.504926194891285, -45.13824082814825 -9.725983222076884 C-44.95003663243268 -9.978159698580795, -44.761832436717114 -10.230336175084703, -44.48644770195651 -10.599326631598467 C-44.26966284553866 -10.853974459354644, -44.05287798912082 -11.108622287110821, -43.78003845028037 -11.42911513444238 C-43.58512436167018 -11.630379933676688, -43.39021027305999 -11.831644732910995, -43.02191586025928 -12.21193895166136 C-42.743395293219926 -12.46488396139612, -42.46487472618057 -12.71782897113088, -42.21519522023242 -12.944581292275274 C-41.904121447222195 -13.192654348230171, -41.593047674211974 -13.440727404185067, -41.363191518350675 -13.624031571755259 C-41.13272678420576 -13.78479379363721, -40.90226205006084 -13.94555601551916, -40.46940582057934 -14.247497783161284 C-40.28069508221987 -14.361895341742189, -40.0919843438604 -14.476292900323093, -39.53751088406695 -14.812417970097618 C-39.2123771234512 -14.982040044752742, -38.88724336283545 -15.151662119407867, -38.57133606499849 -15.316470754341124 C-38.3256159290335 -15.425243769503972, -38.07989579306851 -15.534016784666818, -37.57485158294937 -15.757584874882365 C-37.36730376197849 -15.833964391550674, -37.15975594100762 -15.910343908218984, -36.552152206401566 -16.133947699181363 C-36.26510276779223 -16.219142465807362, -35.97805332918289 -16.30433723243336, -35.50744042646164 -16.444012671663494 C-35.26970044391865 -16.49827527128056, -35.03196046137566 -16.552537870897627, -34.44500918792333 -16.68650566884811 C-34.040234091729396 -16.751946567322992, -33.63545899553545 -16.817387465797875, -33.36922424863661 -16.86043023499518 C-32.94204169845074 -16.90164002184943, -32.51485914826486 -16.94284980870368, -32.28450623967212 -16.965071676755716 C-32.028175407742395 -16.973291707618007, -31.771844575812676 -16.981511738480297, -31.195312500000004 -17 C-31.195312500000004 -17, -31.1953125 -17, -31.1953125 -17" stroke="none" stroke-width="0" fill="#5A5A5A" style="fill:#5A5A5A !important;stroke:#3D3D3D !important"></path><path d="M-31.1953125 -17 C-12.494218201704356 -17, 6.206876096591287 -17, 31.1953125 -17 M-31.1953125 -17 C-10.30514502406022 -17, 10.58502245187956 -17, 31.1953125 -17 M31.1953125 -17 C31.1953125 -17, 31.1953125 -17, 31.1953125 -17 M31.1953125 -17 C31.1953125 -17, 31.1953125 -17, 31.1953125 -17 M31.1953125 -17 C31.626868617190492 -16.986160835294726, 32.058424734380985 -16.972321670589448, 32.28450623967212 -16.965071676755716 M31.1953125 -17 C31.579688128185882 -16.98767382174585, 31.964063756371765 -16.975347643491702, 32.28450623967212 -16.965071676755716 M32.28450623967212 -16.965071676755716 C32.6948369427717 -16.925487567322573, 33.10516764587128 -16.885903457889427, 33.3692242486366 -16.860430234995185 M32.28450623967212 -16.965071676755716 C32.59459514051155 -16.9351577734282, 32.90468404135098 -16.90524387010069, 33.3692242486366 -16.860430234995185 M33.3692242486366 -16.860430234995185 C33.612754679449125 -16.821058123548113, 33.856285110261645 -16.781686012101044, 34.445009187923326 -16.686505668848113 M33.3692242486366 -16.860430234995185 C33.594953049403266 -16.823936153040226, 33.82068185016993 -16.787442071085266, 34.445009187923326 -16.686505668848113 M34.445009187923326 -16.686505668848113 C34.741348361107256 -16.618868186362707, 35.03768753429118 -16.551230703877305, 35.50744042646162 -16.4440126716635 M34.445009187923326 -16.686505668848113 C34.79845578778722 -16.605833788883793, 35.151902387651106 -16.525161908919472, 35.50744042646162 -16.4440126716635 M35.50744042646162 -16.4440126716635 C35.824159796763276 -16.350012025051868, 36.14087916706493 -16.25601137844024, 36.55215220640155 -16.133947699181366 M35.50744042646162 -16.4440126716635 C35.91471732953508 -16.323135024671387, 36.321994232608546 -16.202257377679274, 36.55215220640155 -16.133947699181366 M36.55215220640155 -16.133947699181366 C36.8004565615228 -16.04256940119645, 37.04876091664405 -15.951191103211531, 37.57485158294936 -15.757584874882369 M36.55215220640155 -16.133947699181366 C36.76287788922833 -16.056398699974253, 36.97360357205511 -15.978849700767139, 37.57485158294936 -15.757584874882369 M37.57485158294936 -15.757584874882369 C37.87379958463211 -15.625249462514805, 38.17274758631486 -15.492914050147244, 38.57133606499849 -15.316470754341125 M37.57485158294936 -15.757584874882369 C37.83425479437173 -15.642754768108551, 38.093658005794104 -15.527924661334733, 38.57133606499849 -15.316470754341125 M38.57133606499849 -15.316470754341125 C38.94134611489595 -15.123436748312367, 39.311356164793416 -14.930402742283608, 39.53751088406694 -14.812417970097622 M38.57133606499849 -15.316470754341125 C38.82411016813777 -15.184598666642902, 39.07688427127706 -15.052726578944677, 39.53751088406694 -14.812417970097622 M39.53751088406694 -14.812417970097622 C39.8245357057935 -14.638421836421902, 40.11156052752006 -14.46442570274618, 40.469405820579325 -14.247497783161291 M39.53751088406694 -14.812417970097622 C39.75642095266785 -14.67971340005339, 39.975331021268765 -14.547008830009162, 40.469405820579325 -14.247497783161291 M40.469405820579325 -14.247497783161291 C40.7058553615625 -14.082560819107087, 40.94230490254568 -13.917623855052883, 41.363191518350675 -13.624031571755262 M40.469405820579325 -14.247497783161291 C40.66796575090532 -14.108990971286728, 40.866525681231316 -13.970484159412162, 41.363191518350675 -13.624031571755262 M41.363191518350675 -13.624031571755262 C41.62674781135573 -13.41385244161124, 41.89030410436078 -13.203673311467218, 42.2151952202324 -12.944581292275288 M41.363191518350675 -13.624031571755262 C41.58008785342596 -13.4510625163866, 41.79698418850125 -13.278093461017939, 42.2151952202324 -12.944581292275288 M42.2151952202324 -12.944581292275288 C42.38328541046019 -12.791926228933137, 42.55137560068797 -12.639271165590985, 43.02191586025927 -12.21193895166137 M42.2151952202324 -12.944581292275288 C42.447262458458326 -12.73382396668116, 42.67932969668425 -12.523066641087029, 43.02191586025927 -12.21193895166137 M43.02191586025927 -12.21193895166137 C43.32492211819559 -11.899060113065692, 43.6279283761319 -11.586181274470013, 43.78003845028036 -11.42911513444239 M43.02191586025927 -12.21193895166137 C43.26281501477813 -11.963190796432237, 43.503714169296984 -11.714442641203105, 43.78003845028036 -11.42911513444239 M43.78003845028036 -11.42911513444239 C44.02012734421284 -11.147093058184224, 44.26021623814532 -10.865070981926056, 44.48644770195651 -10.59932663159847 M43.78003845028036 -11.42911513444239 C43.94854737927475 -11.231174958015892, 44.117056308269134 -11.033234781589394, 44.48644770195651 -10.59932663159847 M44.48644770195651 -10.59932663159847 C44.730920882523364 -10.271754841603814, 44.975394063090214 -9.944183051609155, 45.13824082814825 -9.725983222076888 M44.48644770195651 -10.59932663159847 C44.678919197655915 -10.341432361875242, 44.87139069335532 -10.083538092152013, 45.13824082814825 -9.725983222076888 M45.13824082814825 -9.725983222076888 C45.29652617424847 -9.482814424900182, 45.454811520348684 -9.239645627723474, 45.73273947109088 -8.812673661278927 M45.13824082814825 -9.725983222076888 C45.3510437341959 -9.399060812806285, 45.56384664024355 -9.072138403535682, 45.73273947109088 -8.812673661278927 M45.73273947109088 -8.812673661278927 C45.87082787823288 -8.567483711430821, 46.00891628537488 -8.322293761582717, 46.267500708341004 -7.863150934094199 M45.73273947109088 -8.812673661278927 C45.94549419792035 -8.434906100041, 46.15824892474981 -8.057138538803073, 46.267500708341004 -7.863150934094199 M46.267500708341004 -7.863150934094199 C46.405519089984516 -7.576552811491163, 46.54353747162802 -7.289954688888126, 46.74032709126881 -6.881316833080699 M46.267500708341004 -7.863150934094199 C46.41919115789828 -7.5481624699328345, 46.57088160745556 -7.233174005771469, 46.74032709126881 -6.881316833080699 M46.74032709126881 -6.881316833080699 C46.82243278719663 -6.678514176733342, 46.904538483124455 -6.4757115203859845, 47.149275674845924 -5.871205925162238 M46.74032709126881 -6.881316833080699 C46.89942660331584 -6.48833796234473, 47.05852611536287 -6.095359091608762, 47.149275674845924 -5.871205925162238 M47.149275674845924 -5.871205925162238 C47.27849631223357 -5.482013953863251, 47.40771694962121 -5.092821982564264, 47.492666001623235 -4.836968972727556 M47.149275674845924 -5.871205925162238 C47.251946314454976 -5.561978317004689, 47.35461695406403 -5.252750708847139, 47.492666001623235 -4.836968972727556 M47.492666001623235 -4.836968972727556 C47.56383599548773 -4.5655669408517765, 47.63500598935222 -4.294164908975997, 47.769087007091 -3.7828558772573464 M47.492666001623235 -4.836968972727556 C47.5787686656167 -4.508622197789829, 47.66487132961017 -4.180275422852103, 47.769087007091 -3.7828558772573464 M47.769087007091 -3.7828558772573464 C47.83720177310188 -3.433100949852357, 47.90531653911277 -3.083346022447367, 47.97740281804565 -2.713198215567453 M47.769087007091 -3.7828558772573464 C47.82282484674528 -3.5069234281290838, 47.876562686399545 -3.230990979000821, 47.97740281804565 -2.713198215567453 M47.97740281804565 -2.713198215567453 C48.01539425269705 -2.418544150668506, 48.05338568734845 -2.123890085769559, 48.116757420136366 -1.632391440430593 M47.97740281804565 -2.713198215567453 C48.012120918547616 -2.44393148393858, 48.046839019049585 -2.174664752309707, 48.116757420136366 -1.632391440430593 M48.116757420136366 -1.632391440430593 C48.141252502811675 -1.250860755687879, 48.165747585486976 -0.8693300709451649, 48.1865781754117 -0.5448768187181379 M48.116757420136366 -1.632391440430593 C48.137530895973086 -1.3088277862257784, 48.15830437180981 -0.9852641320209637, 48.1865781754117 -0.5448768187181379 M48.1865781754117 -0.5448768187181379 C48.1865781754117 -0.2138961096110899, 48.1865781754117 0.11708459949595806, 48.1865781754117 0.5448768187181336 M48.1865781754117 -0.5448768187181379 C48.1865781754117 -0.1175067551636122, 48.1865781754117 0.30986330839091347, 48.1865781754117 0.5448768187181336 M48.1865781754117 0.5448768187181336 C48.1710068662027 0.7874125285827485, 48.15543555699371 1.0299482384473633, 48.116757420136366 1.6323914404305815 M48.1865781754117 0.5448768187181336 C48.16782360029787 0.8369944645364829, 48.14906902518405 1.129112110354832, 48.116757420136366 1.6323914404305815 M48.116757420136366 1.6323914404305815 C48.0638858643426 2.0424527864974307, 48.01101430854884 2.45251413256428, 47.977402818045654 2.7131982155674415 M48.116757420136366 1.6323914404305815 C48.077759014885444 1.934855370450578, 48.03876060963452 2.237319300470574, 47.977402818045654 2.7131982155674415 M47.977402818045654 2.7131982155674415 C47.92690708408159 2.972483137195745, 47.87641135011753 3.231768058824048, 47.769087007091 3.782855877257343 M47.977402818045654 2.7131982155674415 C47.92107359989719 3.002436845575332, 47.86474438174873 3.2916754755832223, 47.769087007091 3.782855877257343 M47.769087007091 3.782855877257343 C47.70061567461173 4.043966743664014, 47.63214434213246 4.305077610070685, 47.492666001623235 4.836968972727545 M47.769087007091 3.782855877257343 C47.711977864828434 4.000637787963331, 47.65486872256587 4.2184196986693205, 47.492666001623235 4.836968972727545 M47.492666001623235 4.836968972727545 C47.37538885816441 5.190189043250249, 47.25811171470559 5.5434091137729515, 47.149275674845924 5.871205925162227 M47.492666001623235 4.836968972727545 C47.38695606147541 5.155350469861103, 47.28124612132758 5.473731966994661, 47.149275674845924 5.871205925162227 M47.149275674845924 5.871205925162227 C47.04052484037224 6.139822588866576, 46.93177400589856 6.408439252570925, 46.74032709126881 6.881316833080694 M47.149275674845924 5.871205925162227 C47.025148558370994 6.1778023026898525, 46.901021441896056 6.484398680217479, 46.74032709126881 6.881316833080694 M46.74032709126881 6.881316833080694 C46.61255369250131 7.146641029534188, 46.4847802937338 7.411965225987682, 46.267500708341004 7.863150934094196 M46.74032709126881 6.881316833080694 C46.614375733451766 7.142857522515119, 46.48842437563473 7.404398211949545, 46.267500708341004 7.863150934094196 M46.267500708341004 7.863150934094196 C46.10242365267095 8.156261962300864, 45.937346597000904 8.44937299050753, 45.73273947109089 8.812673661278923 M46.267500708341004 7.863150934094196 C46.09558136332518 8.168411139891212, 45.92366201830936 8.47367134568823, 45.73273947109089 8.812673661278923 M45.73273947109089 8.812673661278923 C45.5287601987468 9.126040599703444, 45.32478092640271 9.439407538127966, 45.138240828148255 9.725983222076879 M45.73273947109089 8.812673661278923 C45.60485280755975 9.009141918840294, 45.476966144028616 9.205610176401667, 45.138240828148255 9.725983222076879 M45.138240828148255 9.725983222076879 C44.956028255128295 9.970131470016733, 44.77381568210833 10.214279717956588, 44.48644770195651 10.599326631598467 M45.138240828148255 9.725983222076879 C44.87821212022935 10.074398001585585, 44.61818341231045 10.42281278109429, 44.48644770195651 10.599326631598467 M44.48644770195651 10.599326631598467 C44.30727041533234 10.809798467943647, 44.12809312870818 11.020270304288827, 43.78003845028037 11.42911513444238 M44.48644770195651 10.599326631598467 C44.23773366626443 10.89148029015193, 43.98901963057235 11.183633948705394, 43.78003845028037 11.42911513444238 M43.78003845028037 11.42911513444238 C43.62116709130936 11.593162856161095, 43.462295732338355 11.75721057787981, 43.02191586025927 12.211938951661365 M43.78003845028037 11.42911513444238 C43.60018329664016 11.61483034695863, 43.42032814299994 11.80054555947488, 43.02191586025927 12.211938951661365 M43.02191586025927 12.211938951661365 C42.80893347143441 12.4053639219869, 42.59595108260954 12.598788892312436, 42.21519522023242 12.944581292275275 M43.02191586025927 12.211938951661365 C42.827521692388636 12.388482591533643, 42.633127524518 12.565026231405922, 42.21519522023242 12.944581292275275 M42.21519522023242 12.944581292275275 C41.95634178437319 13.15101001899379, 41.69748834851396 13.357438745712304, 41.363191518350675 13.62403157175526 M42.21519522023242 12.944581292275275 C41.922250899971516 13.178196592107586, 41.62930657971062 13.411811891939896, 41.363191518350675 13.62403157175526 M41.363191518350675 13.62403157175526 C41.116776216270246 13.795920219340067, 40.87036091418982 13.967808866924873, 40.46940582057934 14.247497783161286 M41.363191518350675 13.62403157175526 C41.01124099619064 13.869537020321557, 40.6592904740306 14.115042468887852, 40.46940582057934 14.247497783161286 M40.46940582057934 14.247497783161286 C40.18196465043059 14.421746309697275, 39.89452348028183 14.595994836233263, 39.53751088406695 14.81241797009762 M40.46940582057934 14.247497783161286 C40.19195050569913 14.415692825550082, 39.914495190818926 14.583887867938877, 39.53751088406695 14.81241797009762 M39.53751088406695 14.81241797009762 C39.16606374522156 15.00620170451001, 38.794616606376174 15.1999854389224, 38.57133606499849 15.316470754341124 M39.53751088406695 14.81241797009762 C39.19434029634485 14.991449845900986, 38.85116970862275 15.170481721704354, 38.57133606499849 15.316470754341124 M38.57133606499849 15.316470754341124 C38.28974817663273 15.44112135951272, 38.008160288266964 15.56577196468432, 37.574851582949364 15.757584874882367 M38.57133606499849 15.316470754341124 C38.318061356880456 15.428587954497704, 38.064786648762414 15.540705154654285, 37.574851582949364 15.757584874882367 M37.574851582949364 15.757584874882367 C37.178248587958386 15.903538443196943, 36.781645592967415 16.049492011511518, 36.55215220640156 16.133947699181363 M37.574851582949364 15.757584874882367 C37.27449726957507 15.868118038648944, 36.97414295620078 15.97865120241552, 36.55215220640156 16.133947699181363 M36.55215220640156 16.133947699181363 C36.16313535779191 16.2494058578576, 35.774118509182266 16.364864016533836, 35.50744042646164 16.444012671663497 M36.55215220640156 16.133947699181363 C36.15645056832134 16.25138986828329, 35.76074893024113 16.368832037385214, 35.50744042646164 16.444012671663497 M35.50744042646164 16.444012671663497 C35.08846756368211 16.539640493539483, 34.66949470090258 16.63526831541547, 34.44500918792333 16.68650566884811 M35.50744042646164 16.444012671663497 C35.10590950486968 16.535659484282725, 34.704378583277716 16.627306296901953, 34.44500918792333 16.68650566884811 M34.44500918792333 16.68650566884811 C34.09287766486307 16.743435562675746, 33.7407461418028 16.800365456503386, 33.36922424863661 16.86043023499518 M34.44500918792333 16.68650566884811 C34.09131727228709 16.743687834846405, 33.73762535665085 16.8008700008447, 33.36922424863661 16.86043023499518 M33.36922424863661 16.86043023499518 C32.97294271166578 16.89865903826848, 32.57666117469495 16.93688784154178, 32.28450623967212 16.965071676755716 M33.36922424863661 16.86043023499518 C33.11734878649429 16.88472835790349, 32.86547332435197 16.909026480811796, 32.28450623967212 16.965071676755716 M32.28450623967212 16.965071676755716 C31.87560007818546 16.978184501467034, 31.466693916698798 16.99129732617835, 31.195312500000004 17 M32.28450623967212 16.965071676755716 C31.987264270905882 16.974603648147657, 31.690022302139642 16.984135619539597, 31.195312500000004 17 M31.195312500000004 17 C31.195312500000004 17, 31.1953125 17, 31.1953125 17 M31.195312500000004 17 C31.195312500000004 17, 31.1953125 17, 31.1953125 17 M31.1953125 17 C10.93849127020638 17, -9.318329959587238 17, -31.195312499999996 17 M31.1953125 17 C11.869799795332902 17, -7.455712909334196 17, -31.195312499999996 17 M-31.195312499999996 17 C-31.42552766734582 16.992617447669858, -31.655742834691637 16.98523489533972, -32.28450623967211 16.965071676755716 M-31.195312499999996 17 C-31.572576234545085 16.987901886332452, -31.949839969090174 16.9758037726649, -32.28450623967211 16.965071676755716 M-32.28450623967211 16.965071676755716 C-32.61422210363188 16.93326438390086, -32.943937967591644 16.901457091046005, -33.369224248636606 16.86043023499518 M-32.28450623967211 16.965071676755716 C-32.50572506964125 16.943730962283162, -32.72694389961039 16.922390247810608, -33.369224248636606 16.86043023499518 M-33.369224248636606 16.86043023499518 C-33.59627696218198 16.823722113089257, -33.82332967572736 16.787013991183333, -34.445009187923326 16.68650566884811 M-33.369224248636606 16.86043023499518 C-33.753421690085865 16.798316172157325, -34.13761913153512 16.736202109319464, -34.445009187923326 16.68650566884811 M-34.445009187923326 16.68650566884811 C-34.68490977321876 16.63174992575205, -34.9248103585142 16.576994182655987, -35.50744042646162 16.4440126716635 M-34.445009187923326 16.68650566884811 C-34.72054926831078 16.623615443566734, -34.99608934869825 16.56072521828536, -35.50744042646162 16.4440126716635 M-35.50744042646162 16.4440126716635 C-35.719997828780386 16.380926750391865, -35.932555231099144 16.31784082912023, -36.552152206401544 16.13394769918137 M-35.50744042646162 16.4440126716635 C-35.85561012005486 16.340677734185043, -36.203779813648104 16.237342796706585, -36.552152206401544 16.13394769918137 M-36.552152206401544 16.13394769918137 C-36.88899388366687 16.009986848217398, -37.22583556093219 15.886025997253428, -37.574851582949364 15.757584874882369 M-36.552152206401544 16.13394769918137 C-36.84973010861197 16.02443628038796, -37.14730801082239 15.91492486159455, -37.574851582949364 15.757584874882369 M-37.574851582949364 15.757584874882369 C-37.790950291176614 15.661924387090584, -38.007048999403864 15.566263899298802, -38.57133606499848 15.316470754341127 M-37.574851582949364 15.757584874882369 C-37.8800122243652 15.622499311196377, -38.18517286578104 15.487413747510386, -38.57133606499848 15.316470754341127 M-38.57133606499848 15.316470754341127 C-38.909161292015 15.140227549793995, -39.24698651903152 14.96398434524686, -39.53751088406693 14.812417970097624 M-38.57133606499848 15.316470754341127 C-38.86622462865804 15.162627579565076, -39.1611131923176 15.008784404789024, -39.53751088406693 14.812417970097624 M-39.53751088406693 14.812417970097624 C-39.828499915797394 14.636018709021258, -40.119488947527856 14.459619447944892, -40.46940582057932 14.247497783161299 M-39.53751088406693 14.812417970097624 C-39.81608707241994 14.643543447622635, -40.09466326077294 14.474668925147649, -40.46940582057932 14.247497783161299 M-40.46940582057932 14.247497783161299 C-40.76909273280324 14.038449166431231, -41.068779645027156 13.829400549701164, -41.36319151835067 13.624031571755264 M-40.46940582057932 14.247497783161299 C-40.81518371195936 14.006298094618252, -41.16096160333939 13.765098406075207, -41.36319151835067 13.624031571755264 M-41.36319151835067 13.624031571755264 C-41.60326638943505 13.432578250726097, -41.84334126051943 13.241124929696932, -42.2151952202324 12.94458129227529 M-41.36319151835067 13.624031571755264 C-41.668564562010765 13.380504695754313, -41.97393760567086 13.136977819753362, -42.2151952202324 12.94458129227529 M-42.2151952202324 12.94458129227529 C-42.51459647790863 12.672672991776917, -42.81399773558486 12.400764691278543, -43.02191586025926 12.211938951661377 M-42.2151952202324 12.94458129227529 C-42.49868685788703 12.687121687735061, -42.78217849554165 12.429662083194833, -43.02191586025926 12.211938951661377 M-43.02191586025926 12.211938951661377 C-43.18987900787533 12.038503211716915, -43.35784215549139 11.86506747177245, -43.780038450280365 11.429115134442386 M-43.02191586025926 12.211938951661377 C-43.24355122794172 11.98308223792714, -43.46518659562418 11.754225524192904, -43.780038450280365 11.429115134442386 M-43.780038450280365 11.429115134442386 C-43.98256543620912 11.191215412658506, -44.18509242213788 10.953315690874625, -44.48644770195651 10.599326631598473 M-43.780038450280365 11.429115134442386 C-43.941734981313154 11.239177188298006, -44.10343151234595 11.049239242153627, -44.48644770195651 10.599326631598473 M-44.48644770195651 10.599326631598473 C-44.67436427471018 10.347535543660513, -44.86228084746385 10.095744455722553, -45.13824082814825 9.72598322207689 M-44.48644770195651 10.599326631598473 C-44.69179970484898 10.324173655674878, -44.89715170774146 10.049020679751283, -45.13824082814825 9.72598322207689 M-45.13824082814825 9.72598322207689 C-45.32171716256514 9.444114302118258, -45.50519349698204 9.162245382159629, -45.73273947109088 8.812673661278936 M-45.13824082814825 9.72598322207689 C-45.2756033887631 9.514957441960282, -45.412965949377956 9.303931661843675, -45.73273947109088 8.812673661278936 M-45.73273947109088 8.812673661278936 C-45.89233379293029 8.529297782175583, -46.051928114769694 8.24592190307223, -46.267500708341004 7.863150934094201 M-45.73273947109088 8.812673661278936 C-45.92922699843157 8.463790159965898, -46.12571452577225 8.114906658652862, -46.267500708341004 7.863150934094201 M-46.267500708341004 7.863150934094201 C-46.388578795526826 7.611729695396783, -46.509656882712655 7.360308456699365, -46.74032709126881 6.881316833080701 M-46.267500708341004 7.863150934094201 C-46.37502883510889 7.639866478127339, -46.48255696187678 7.416582022160476, -46.74032709126881 6.881316833080701 M-46.74032709126881 6.881316833080701 C-46.89880432085749 6.489875012047875, -47.05728155044616 6.098433191015048, -47.149275674845924 5.87120592516224 M-46.74032709126881 6.881316833080701 C-46.856542117890044 6.594263470461561, -46.972757144511284 6.30721010784242, -47.149275674845924 5.87120592516224 M-47.149275674845924 5.87120592516224 C-47.23381208875766 5.616595715508517, -47.318348502669394 5.361985505854794, -47.492666001623235 4.8369689727275516 M-47.149275674845924 5.87120592516224 C-47.24258809867373 5.590163771908606, -47.33590052250154 5.309121618654972, -47.492666001623235 4.8369689727275516 M-47.492666001623235 4.8369689727275516 C-47.58858622286855 4.471183597032295, -47.68450644411387 4.105398221337037, -47.769087007091 3.782855877257349 M-47.492666001623235 4.8369689727275516 C-47.55893996276974 4.584237635559472, -47.62521392391624 4.331506298391393, -47.769087007091 3.782855877257349 M-47.769087007091 3.782855877257349 C-47.81605898297035 3.5416647086475423, -47.863030958849684 3.300473540037736, -47.97740281804565 2.713198215567455 M-47.769087007091 3.782855877257349 C-47.839833916732616 3.4195854486123016, -47.91058082637423 3.0563150199672546, -47.97740281804565 2.713198215567455 M-47.97740281804565 2.713198215567455 C-48.00931578190447 2.465687569805933, -48.04122874576329 2.2181769240444105, -48.116757420136366 1.6323914404306026 M-47.97740281804565 2.713198215567455 C-48.0291427677333 2.3119133829987337, -48.080882717420955 1.9106285504300122, -48.116757420136366 1.6323914404306026 M-48.116757420136366 1.6323914404306026 C-48.137133506724396 1.3150174445409473, -48.15750959331243 0.9976434486512922, -48.1865781754117 0.54487681871814 M-48.116757420136366 1.6323914404306026 C-48.1332557369563 1.3754168387584813, -48.149754053776235 1.1184422370863598, -48.1865781754117 0.54487681871814 M-48.1865781754117 0.54487681871814 C-48.1865781754117 0.2785458952103399, -48.1865781754117 0.012214971702539823, -48.1865781754117 -0.5448768187181317 M-48.1865781754117 0.54487681871814 C-48.1865781754117 0.31314891477399026, -48.1865781754117 0.08142101082984055, -48.1865781754117 -0.5448768187181317 M-48.1865781754117 -0.5448768187181317 C-48.15960170154865 -0.9650571741528335, -48.1326252276856 -1.3852375295875357, -48.116757420136366 -1.6323914404305793 M-48.1865781754117 -0.5448768187181317 C-48.16601821074021 -0.8651148641813086, -48.14545824606872 -1.1853529096444855, -48.116757420136366 -1.6323914404305793 M-48.116757420136366 -1.6323914404305793 C-48.07923279197774 -1.9234250463529663, -48.0417081638191 -2.2144586522753533, -47.977402818045654 -2.713198215567447 M-48.116757420136366 -1.6323914404305793 C-48.081317813483565 -1.9072540312877933, -48.04587820683077 -2.1821166221450072, -47.977402818045654 -2.713198215567447 M-47.977402818045654 -2.713198215567447 C-47.90158501578603 -3.102506606072417, -47.82576721352641 -3.4918149965773875, -47.769087007091 -3.782855877257341 M-47.977402818045654 -2.713198215567447 C-47.9071678816472 -3.073839769814445, -47.83693294524875 -3.4344813240614434, -47.769087007091 -3.782855877257341 M-47.769087007091 -3.782855877257341 C-47.70933739605493 -4.010707039783139, -47.649587785018845 -4.238558202308937, -47.492666001623235 -4.836968972727544 M-47.769087007091 -3.782855877257341 C-47.6860819455154 -4.099390151666374, -47.60307688393979 -4.415924426075408, -47.492666001623235 -4.836968972727544 M-47.492666001623235 -4.836968972727544 C-47.41521802859703 -5.070229927823715, -47.337770055570836 -5.303490882919887, -47.14927567484593 -5.871205925162218 M-47.492666001623235 -4.836968972727544 C-47.39893795490205 -5.119262915915504, -47.30520990818088 -5.401556859103465, -47.14927567484593 -5.871205925162218 M-47.14927567484593 -5.871205925162218 C-47.0369339688694 -6.148692110903386, -46.92459226289286 -6.426178296644554, -46.74032709126881 -6.881316833080692 M-47.14927567484593 -5.871205925162218 C-47.04519987251688 -6.128275169083714, -46.94112407018784 -6.38534441300521, -46.74032709126881 -6.881316833080692 M-46.74032709126881 -6.881316833080692 C-46.57585719939156 -7.222842082655752, -46.4113873075143 -7.564367332230811, -46.267500708341004 -7.863150934094194 M-46.74032709126881 -6.881316833080692 C-46.64373986642176 -7.081882272111128, -46.54715264157472 -7.282447711141563, -46.267500708341004 -7.863150934094194 M-46.267500708341004 -7.863150934094194 C-46.1259171756683 -8.1145468332419, -45.9843336429956 -8.365942732389604, -45.73273947109088 -8.812673661278929 M-46.267500708341004 -7.863150934094194 C-46.15710998499779 -8.059160841662939, -46.04671926165457 -8.255170749231683, -45.73273947109088 -8.812673661278929 M-45.73273947109088 -8.812673661278929 C-45.563727309314636 -9.072321727887337, -45.394715147538385 -9.331969794495746, -45.13824082814825 -9.725983222076884 M-45.73273947109088 -8.812673661278929 C-45.54750468915454 -9.097244028836698, -45.362269907218206 -9.381814396394468, -45.13824082814825 -9.725983222076884 M-45.13824082814825 -9.725983222076884 C-44.988531182763644 -9.926580508062987, -44.83882153737903 -10.12717779404909, -44.48644770195651 -10.599326631598467 M-45.13824082814825 -9.725983222076884 C-44.89128631631351 -10.056879769916572, -44.64433180447878 -10.38777631775626, -44.48644770195651 -10.599326631598467 M-44.48644770195651 -10.599326631598467 C-44.30305050267301 -10.814755417473128, -44.11965330338952 -11.030184203347789, -43.78003845028037 -11.42911513444238 M-44.48644770195651 -10.599326631598467 C-44.287487764333505 -10.833036295471612, -44.088527826710504 -11.066745959344757, -43.78003845028037 -11.42911513444238 M-43.78003845028037 -11.42911513444238 C-43.6100511090262 -11.604641020507575, -43.44006376777204 -11.780166906572768, -43.02191586025928 -12.21193895166136 M-43.78003845028037 -11.42911513444238 C-43.56511569472273 -11.651040525042042, -43.350192939165076 -11.872965915641704, -43.02191586025928 -12.21193895166136 M-43.02191586025928 -12.21193895166136 C-42.83229766674752 -12.384145177986259, -42.64267947323577 -12.556351404311158, -42.21519522023242 -12.944581292275274 M-43.02191586025928 -12.21193895166136 C-42.83110042496919 -12.385232481292059, -42.6402849896791 -12.558526010922758, -42.21519522023242 -12.944581292275274 M-42.21519522023242 -12.944581292275274 C-42.030115519866634 -13.092177428139316, -41.84503581950084 -13.23977356400336, -41.363191518350675 -13.624031571755259 M-42.21519522023242 -12.944581292275274 C-42.01757203893715 -13.102180520384527, -41.81994885764189 -13.259779748493782, -41.363191518350675 -13.624031571755259 M-41.363191518350675 -13.624031571755259 C-41.03109526752728 -13.855687540114669, -40.69899901670387 -14.08734350847408, -40.46940582057934 -14.247497783161284 M-41.363191518350675 -13.624031571755259 C-41.16367453567796 -13.763205981916768, -40.96415755300525 -13.902380392078276, -40.46940582057934 -14.247497783161284 M-40.46940582057934 -14.247497783161284 C-40.224938679435446 -14.395695200771101, -39.98047153829155 -14.543892618380916, -39.53751088406695 -14.812417970097618 M-40.46940582057934 -14.247497783161284 C-40.23418212366835 -14.390091770556609, -39.99895842675735 -14.532685757951935, -39.53751088406695 -14.812417970097618 M-39.53751088406695 -14.812417970097618 C-39.15767676039402 -15.010577189122417, -38.77784263672109 -15.208736408147214, -38.57133606499849 -15.316470754341124 M-39.53751088406695 -14.812417970097618 C-39.341978875569446 -14.914426893686535, -39.14644686707195 -15.01643581727545, -38.57133606499849 -15.316470754341124 M-38.57133606499849 -15.316470754341124 C-38.321621169555556 -15.427012131024528, -38.07190627411262 -15.537553507707932, -37.57485158294937 -15.757584874882365 M-38.57133606499849 -15.316470754341124 C-38.265401604420724 -15.451898864815572, -37.95946714384295 -15.58732697529002, -37.57485158294937 -15.757584874882365 M-37.57485158294937 -15.757584874882365 C-37.171481205233526 -15.906028902596693, -36.76811082751768 -16.05447293031102, -36.552152206401566 -16.133947699181363 M-37.57485158294937 -15.757584874882365 C-37.208138377934326 -15.89253872418761, -36.84142517291928 -16.027492573492854, -36.552152206401566 -16.133947699181363 M-36.552152206401566 -16.133947699181363 C-36.317358663470465 -16.203633190266856, -36.08256512053937 -16.273318681352347, -35.50744042646164 -16.444012671663494 M-36.552152206401566 -16.133947699181363 C-36.22243038187234 -16.23180740595646, -35.89270855734313 -16.329667112731556, -35.50744042646164 -16.444012671663494 M-35.50744042646164 -16.444012671663494 C-35.16389741166288 -16.52242412296363, -34.82035439686412 -16.600835574263765, -34.44500918792333 -16.68650566884811 M-35.50744042646164 -16.444012671663494 C-35.292314531276205 -16.49311375341191, -35.07718863609076 -16.542214835160326, -34.44500918792333 -16.68650566884811 M-34.44500918792333 -16.68650566884811 C-34.22300513979772 -16.72239756168195, -34.00100109167211 -16.758289454515793, -33.36922424863661 -16.86043023499518 M-34.44500918792333 -16.68650566884811 C-34.08982196060511 -16.743929585242835, -33.73463473328688 -16.801353501637557, -33.36922424863661 -16.86043023499518 M-33.36922424863661 -16.86043023499518 C-33.07751787002059 -16.88857079851202, -32.78581149140458 -16.91671136202886, -32.28450623967212 -16.965071676755716 M-33.36922424863661 -16.86043023499518 C-33.001849303999784 -16.895870454071282, -32.63447435936296 -16.931310673147383, -32.28450623967212 -16.965071676755716 M-32.28450623967212 -16.965071676755716 C-32.013950025541995 -16.973747887937147, -31.743393811411863 -16.982424099118575, -31.195312500000004 -17 M-32.28450623967212 -16.965071676755716 C-31.970967259843206 -16.97512626157223, -31.657428280014297 -16.98518084638874, -31.195312500000004 -17 M-31.195312500000004 -17 C-31.195312500000004 -17, -31.1953125 -17, -31.1953125 -17 M-31.195312500000004 -17 C-31.195312500000004 -17, -31.1953125 -17, -31.1953125 -17" stroke="#3D3D3D" stroke-width="1.3" fill="none" stroke-dasharray="0 0" style="fill:#5A5A5A !important;stroke:#3D3D3D !important"></path></g><g class="label" style="color:#ffffff !important" transform="translate(0, -9.5)"><rect></rect><g><rect class="background" style="stroke: none"></rect><text y="-10.1" style="fill:#ffffff !important"><tspan class="text-outer-tspan row" x="0" y="-0.1em" dy="1.1em"><tspan font-style="normal" class="text-inner-tspan" font-weight="normal">Edge</tspan><tspan font-style="normal" class="text-inner-tspan" font-weight="normal"> logic</tspan></tspan></text></g></g></g><g class="node default accentC" id="gb18f39eb-f56a-4b41-ab3e-20046c527fb5-light-flowchart-q1-1" data-look="classic" transform="translate(222.67578125, 174.84375)"><polygon points="82.84375,0 165.6875,-82.84375 82.84375,-165.6875 0,-82.84375" class="label-container" transform="translate(-82.34375, 82.84375)" style="fill:#1F6E68 !important;stroke:#155752 !important"></polygon><g class="label" style="color:#ffffff !important" transform="translate(0, -9.5)"><rect></rect><g><rect class="background" style="stroke: none"></rect><text y="-10.1" style="fill:#ffffff !important"><tspan class="text-outer-tspan row" x="0" y="-0.1em" dy="1.1em"><tspan font-style="normal" class="text-inner-tspan" font-weight="normal">Network</tspan><tspan font-style="normal" class="text-inner-tspan" font-weight="normal"> access?</tspan></tspan></text></g></g></g><g class="node default accentC" id="gb18f39eb-f56a-4b41-ab3e-20046c527fb5-light-flowchart-q2-2" data-look="classic" transform="translate(276.7328128814697, 402.6484375)"><polygon points="71.9609375,0 143.921875,-71.9609375 71.9609375,-143.921875 0,-71.9609375" class="label-container" transform="translate(-71.4609375, 71.9609375)" style="fill:#1F6E68 !important;stroke:#155752 !important"></polygon><g class="label" style="color:#ffffff !important" transform="translate(0, -9.5)"><rect></rect><g><rect class="background" style="stroke: none"></rect><text y="-10.1" style="fill:#ffffff !important"><tspan class="text-outer-tspan row" x="0" y="-0.1em" dy="1.1em"><tspan font-style="normal" class="text-inner-tspan" font-weight="normal">Mutate</tspan><tspan font-style="normal" class="text-inner-tspan" font-weight="normal"> body?</tspan></tspan></text></g></g></g><g class="node default accentC" id="gb18f39eb-f56a-4b41-ab3e-20046c527fb5-light-flowchart-q3-3" data-look="classic" transform="translate(369.8203125, 607.4796867370605)"><polygon points="59.87031173706055,0 119.7406234741211,-59.87031173706055 59.87031173706055,-119.7406234741211 0,-59.87031173706055" class="label-container" transform="translate(-59.37031173706055, 59.87031173706055)" style="fill:#1F6E68 !important;stroke:#155752 !important"></polygon><g class="label" style="color:#ffffff !important" transform="translate(0, -18.299999237060547)"><rect></rect><g><rect class="background" style="stroke: none"></rect><text y="-10.1" style="fill:#ffffff !important"><tspan class="text-outer-tspan row" x="0" y="-0.1em" dy="1.1em"><tspan font-style="normal" class="text-inner-tspan" font-weight="normal">1</tspan><tspan font-style="normal" class="text-inner-tspan" font-weight="normal"> ms</tspan><tspan font-style="normal" class="text-inner-tspan" font-weight="normal"> or</tspan></tspan><tspan class="text-outer-tspan row" x="0" y="1em" dy="1.1em"><tspan font-style="normal" class="text-inner-tspan" font-weight="normal">non-JS?</tspan></tspan></text></g></g></g><g class="node default primaryC" id="gb18f39eb-f56a-4b41-ab3e-20046c527fb5-light-flowchart-cff-4" data-look="classic" transform="translate(369.8203125, 791.25)"><rect class="basic label-container" style="fill:#2E5A88 !important;stroke:#1F4870 !important" x="-109.6640625" y="-42.099998474121094" width="219.328125" height="84.19999694824219"></rect><g class="label" style="color:#ffffff !important" transform="translate(0, -27.099998474121094)"><rect></rect><g><rect class="background" style="stroke: none"></rect><text y="-10.1" style="fill:#ffffff !important"><tspan class="text-outer-tspan row" x="0" y="-0.1em" dy="1.1em"><tspan font-style="normal" class="text-inner-tspan" font-weight="normal">CloudFront</tspan><tspan font-style="normal" class="text-inner-tspan" font-weight="normal"> Functions</tspan></tspan><tspan class="text-outer-tspan row" x="0" y="1em" dy="1.1em"><tspan font-style="normal" class="text-inner-tspan" font-weight="normal">0.10</tspan><tspan font-style="normal" class="text-inner-tspan" font-weight="normal"> USD/1M</tspan></tspan><tspan class="text-outer-tspan row" x="0" y="2.1em" dy="1.1em"><tspan font-style="normal" class="text-inner-tspan" font-weight="normal">sub-ms,</tspan><tspan font-style="normal" class="text-inner-tspan" font-weight="normal"> JS,</tspan><tspan font-style="normal" class="text-inner-tspan" font-weight="normal"> every</tspan><tspan font-style="normal" class="text-inner-tspan" font-weight="normal"> POP</tspan></tspan></text></g></g></g><g class="node default primaryC" id="gb18f39eb-f56a-4b41-ab3e-20046c527fb5-light-flowchart-le-5" data-look="classic" transform="translate(109.078125, 791.25)"><rect class="basic label-container" style="fill:#2E5A88 !important;stroke:#1F4870 !important" x="-101.078125" y="-50.900001525878906" width="202.15625" height="101.80000305175781"></rect><g class="label" style="color:#ffffff !important" transform="translate(0, -35.900001525878906)"><rect></rect><g><rect class="background" style="stroke: none"></rect><text y="-10.1" style="fill:#ffffff !important"><tspan class="text-outer-tspan row" x="0" y="-0.1em" dy="1.1em"><tspan font-style="normal" class="text-inner-tspan" font-weight="normal">Lambda@Edge</tspan></tspan><tspan class="text-outer-tspan row" x="0" y="1em" dy="1.1em"><tspan font-style="normal" class="text-inner-tspan" font-weight="normal">0.60</tspan><tspan font-style="normal" class="text-inner-tspan" font-weight="normal"> USD/1M</tspan><tspan font-style="normal" class="text-inner-tspan" font-weight="normal"> +</tspan><tspan font-style="normal" class="text-inner-tspan" font-weight="normal"> GB-s</tspan></tspan><tspan class="text-outer-tspan row" x="0" y="2.1em" dy="1.1em"><tspan font-style="normal" class="text-inner-tspan" font-weight="normal">Node</tspan><tspan font-style="normal" class="text-inner-tspan" font-weight="normal"> or</tspan><tspan font-style="normal" class="text-inner-tspan" font-weight="normal"> Python</tspan></tspan><tspan class="text-outer-tspan row" x="0" y="3.2em" dy="1.1em"><tspan font-style="normal" class="text-inner-tspan" font-weight="normal">15</tspan><tspan font-style="normal" class="text-inner-tspan" font-weight="normal"> regional</tspan><tspan font-style="normal" class="text-inner-tspan" font-weight="normal"> caches</tspan></tspan></text></g></g></g></g></g></g><defs><filter id="gb18f39eb-f56a-4b41-ab3e-20046c527fb5-light-drop-shadow" height="130%" width="130%"><feDropShadow dx="4" dy="4" stdDeviation="0" flood-opacity="0.06" flood-color="#000000"></feDropShadow></filter></defs><defs><filter id="gb18f39eb-f56a-4b41-ab3e-20046c527fb5-light-drop-shadow-small" height="150%" width="150%"><feDropShadow dx="2" dy="2" stdDeviation="0" flood-opacity="0.06" flood-color="#000000"></feDropShadow></filter></defs></svg>