<svg id="gc9b36cb9-bde8-446a-a089-d74ee0b88460-dark" width="100%" xmlns="http://www.w3.org/2000/svg" xmlns:xlink="http://www.w3.org/1999/xlink" class="flowchart" style="max-width: 1604.1844482421875px;" viewBox="0 0 1604.1844482421875 414.60858154296875" role="graphics-document document" aria-roledescription="flowchart-v2"><style>#gc9b36cb9-bde8-446a-a089-d74ee0b88460-dark{font-family:"trebuchet ms",verdana,arial,sans-serif;font-size:16px;fill:#e5e5e5;}@keyframes edge-animation-frame{from{stroke-dashoffset:0;}}@keyframes dash{to{stroke-dashoffset:0;}}#gc9b36cb9-bde8-446a-a089-d74ee0b88460-dark .edge-animation-slow{stroke-dasharray:9,5!important;stroke-dashoffset:900;animation:dash 50s linear infinite;stroke-linecap:round;}#gc9b36cb9-bde8-446a-a089-d74ee0b88460-dark .edge-animation-fast{stroke-dasharray:9,5!important;stroke-dashoffset:900;animation:dash 20s linear infinite;stroke-linecap:round;}#gc9b36cb9-bde8-446a-a089-d74ee0b88460-dark .error-icon{fill:#252525;}#gc9b36cb9-bde8-446a-a089-d74ee0b88460-dark .error-text{fill:#cccccc;stroke:#cccccc;}#gc9b36cb9-bde8-446a-a089-d74ee0b88460-dark .edge-thickness-normal{stroke-width:1px;}#gc9b36cb9-bde8-446a-a089-d74ee0b88460-dark .edge-thickness-thick{stroke-width:3.5px;}#gc9b36cb9-bde8-446a-a089-d74ee0b88460-dark .edge-pattern-solid{stroke-dasharray:0;}#gc9b36cb9-bde8-446a-a089-d74ee0b88460-dark .edge-thickness-invisible{stroke-width:0;fill:none;}#gc9b36cb9-bde8-446a-a089-d74ee0b88460-dark .edge-pattern-dashed{stroke-dasharray:3;}#gc9b36cb9-bde8-446a-a089-d74ee0b88460-dark .edge-pattern-dotted{stroke-dasharray:2;}#gc9b36cb9-bde8-446a-a089-d74ee0b88460-dark .marker{fill:#cccccc;stroke:#cccccc;}#gc9b36cb9-bde8-446a-a089-d74ee0b88460-dark .marker.cross{stroke:#cccccc;}#gc9b36cb9-bde8-446a-a089-d74ee0b88460-dark svg{font-family:"trebuchet ms",verdana,arial,sans-serif;font-size:16px;}#gc9b36cb9-bde8-446a-a089-d74ee0b88460-dark p{margin:0;}#gc9b36cb9-bde8-446a-a089-d74ee0b88460-dark .label{font-family:"trebuchet ms",verdana,arial,sans-serif;color:#e5e5e5;}#gc9b36cb9-bde8-446a-a089-d74ee0b88460-dark .cluster-label text{fill:#e5e5e5;}#gc9b36cb9-bde8-446a-a089-d74ee0b88460-dark .cluster-label span{color:#e5e5e5;}#gc9b36cb9-bde8-446a-a089-d74ee0b88460-dark .cluster-label span p{background-color:transparent;}#gc9b36cb9-bde8-446a-a089-d74ee0b88460-dark .label text,#gc9b36cb9-bde8-446a-a089-d74ee0b88460-dark span{fill:#e5e5e5;color:#e5e5e5;}#gc9b36cb9-bde8-446a-a089-d74ee0b88460-dark .node rect,#gc9b36cb9-bde8-446a-a089-d74ee0b88460-dark .node circle,#gc9b36cb9-bde8-446a-a089-d74ee0b88460-dark .node ellipse,#gc9b36cb9-bde8-446a-a089-d74ee0b88460-dark .node polygon,#gc9b36cb9-bde8-446a-a089-d74ee0b88460-dark .node path{fill:#2d2d2d;stroke:#555555;stroke-width:1px;}#gc9b36cb9-bde8-446a-a089-d74ee0b88460-dark .rough-node .label text,#gc9b36cb9-bde8-446a-a089-d74ee0b88460-dark .node .label text,#gc9b36cb9-bde8-446a-a089-d74ee0b88460-dark .image-shape .label,#gc9b36cb9-bde8-446a-a089-d74ee0b88460-dark .icon-shape .label{text-anchor:middle;}#gc9b36cb9-bde8-446a-a089-d74ee0b88460-dark .node .katex path{fill:#000;stroke:#000;stroke-width:1px;}#gc9b36cb9-bde8-446a-a089-d74ee0b88460-dark .rough-node .label,#gc9b36cb9-bde8-446a-a089-d74ee0b88460-dark .node .label,#gc9b36cb9-bde8-446a-a089-d74ee0b88460-dark .image-shape .label,#gc9b36cb9-bde8-446a-a089-d74ee0b88460-dark .icon-shape .label{text-align:center;}#gc9b36cb9-bde8-446a-a089-d74ee0b88460-dark .node.clickable{cursor:pointer;}#gc9b36cb9-bde8-446a-a089-d74ee0b88460-dark .root .anchor path{fill:#cccccc!important;stroke-width:0;stroke:#cccccc;}#gc9b36cb9-bde8-446a-a089-d74ee0b88460-dark .arrowheadPath{fill:#cccccc;}#gc9b36cb9-bde8-446a-a089-d74ee0b88460-dark .edgePath .path{stroke:#cccccc;stroke-width:1px;}#gc9b36cb9-bde8-446a-a089-d74ee0b88460-dark .flowchart-link{stroke:#cccccc;fill:none;}#gc9b36cb9-bde8-446a-a089-d74ee0b88460-dark .edgeLabel{background-color:#1e1e1e;text-align:center;}#gc9b36cb9-bde8-446a-a089-d74ee0b88460-dark .edgeLabel p{background-color:#1e1e1e;}#gc9b36cb9-bde8-446a-a089-d74ee0b88460-dark .edgeLabel rect{opacity:0.5;background-color:#1e1e1e;fill:#1e1e1e;}#gc9b36cb9-bde8-446a-a089-d74ee0b88460-dark .labelBkg{background-color:rgba(30, 30, 30, 0.5);}#gc9b36cb9-bde8-446a-a089-d74ee0b88460-dark .cluster rect{fill:#1e1e1e;stroke:#555555;stroke-width:1px;}#gc9b36cb9-bde8-446a-a089-d74ee0b88460-dark .cluster text{fill:#e5e5e5;}#gc9b36cb9-bde8-446a-a089-d74ee0b88460-dark .cluster span{color:#e5e5e5;}#gc9b36cb9-bde8-446a-a089-d74ee0b88460-dark div.mermaidTooltip{position:absolute;text-align:center;max-width:200px;padding:2px;font-family:"trebuchet ms",verdana,arial,sans-serif;font-size:12px;background:#252525;border:1px solid #555555;border-radius:2px;pointer-events:none;z-index:100;}#gc9b36cb9-bde8-446a-a089-d74ee0b88460-dark .flowchartTitleText{text-anchor:middle;font-size:18px;fill:#e5e5e5;}#gc9b36cb9-bde8-446a-a089-d74ee0b88460-dark rect.text{fill:none;stroke-width:0;}#gc9b36cb9-bde8-446a-a089-d74ee0b88460-dark .icon-shape,#gc9b36cb9-bde8-446a-a089-d74ee0b88460-dark .image-shape{background-color:#1e1e1e;text-align:center;}#gc9b36cb9-bde8-446a-a089-d74ee0b88460-dark .icon-shape p,#gc9b36cb9-bde8-446a-a089-d74ee0b88460-dark .image-shape p{background-color:#1e1e1e;padding:2px;}#gc9b36cb9-bde8-446a-a089-d74ee0b88460-dark .icon-shape .label rect,#gc9b36cb9-bde8-446a-a089-d74ee0b88460-dark .image-shape .label rect{opacity:0.5;background-color:#1e1e1e;fill:#1e1e1e;}#gc9b36cb9-bde8-446a-a089-d74ee0b88460-dark .label-icon{display:inline-block;height:1em;overflow:visible;vertical-align:-0.125em;}#gc9b36cb9-bde8-446a-a089-d74ee0b88460-dark .node .label-icon path{fill:currentColor;stroke:revert;stroke-width:revert;}#gc9b36cb9-bde8-446a-a089-d74ee0b88460-dark .node .neo-node{stroke:#555555;}#gc9b36cb9-bde8-446a-a089-d74ee0b88460-dark [data-look="neo"].node rect,#gc9b36cb9-bde8-446a-a089-d74ee0b88460-dark [data-look="neo"].cluster rect,#gc9b36cb9-bde8-446a-a089-d74ee0b88460-dark [data-look="neo"].node polygon{stroke:url(#gc9b36cb9-bde8-446a-a089-d74ee0b88460-dark-gradient);filter:drop-shadow( 1px 2px 2px rgba(185,185,185,1));}#gc9b36cb9-bde8-446a-a089-d74ee0b88460-dark [data-look="neo"].node path{stroke:url(#gc9b36cb9-bde8-446a-a089-d74ee0b88460-dark-gradient);stroke-width:1px;}#gc9b36cb9-bde8-446a-a089-d74ee0b88460-dark [data-look="neo"].node .outer-path{filter:drop-shadow( 1px 2px 2px rgba(185,185,185,1));}#gc9b36cb9-bde8-446a-a089-d74ee0b88460-dark [data-look="neo"].node .neo-line path{stroke:#555555;filter:none;}#gc9b36cb9-bde8-446a-a089-d74ee0b88460-dark [data-look="neo"].node circle{stroke:url(#gc9b36cb9-bde8-446a-a089-d74ee0b88460-dark-gradient);filter:drop-shadow( 1px 2px 2px rgba(185,185,185,1));}#gc9b36cb9-bde8-446a-a089-d74ee0b88460-dark [data-look="neo"].node circle .state-start{fill:#000000;}#gc9b36cb9-bde8-446a-a089-d74ee0b88460-dark [data-look="neo"].icon-shape .icon{fill:url(#gc9b36cb9-bde8-446a-a089-d74ee0b88460-dark-gradient);filter:drop-shadow( 1px 2px 2px rgba(185,185,185,1));}#gc9b36cb9-bde8-446a-a089-d74ee0b88460-dark [data-look="neo"].icon-shape .icon-neo path{stroke:url(#gc9b36cb9-bde8-446a-a089-d74ee0b88460-dark-gradient);filter:drop-shadow( 1px 2px 2px rgba(185,185,185,1));}#gc9b36cb9-bde8-446a-a089-d74ee0b88460-dark :root{--mermaid-font-family:"trebuchet ms",verdana,arial,sans-serif;}#gc9b36cb9-bde8-446a-a089-d74ee0b88460-dark .edge rect{fill:#bae6fd!important;stroke:#0369a1!important;color:#0f172a!important;}#gc9b36cb9-bde8-446a-a089-d74ee0b88460-dark .edge polygon{fill:#bae6fd!important;stroke:#0369a1!important;color:#0f172a!important;}#gc9b36cb9-bde8-446a-a089-d74ee0b88460-dark .edge ellipse{fill:#bae6fd!important;stroke:#0369a1!important;color:#0f172a!important;}#gc9b36cb9-bde8-446a-a089-d74ee0b88460-dark .edge circle{fill:#bae6fd!important;stroke:#0369a1!important;color:#0f172a!important;}#gc9b36cb9-bde8-446a-a089-d74ee0b88460-dark .edge path{fill:#bae6fd!important;stroke:#0369a1!important;color:#0f172a!important;}#gc9b36cb9-bde8-446a-a089-d74ee0b88460-dark .edge tspan{fill:#0f172a!important;}#gc9b36cb9-bde8-446a-a089-d74ee0b88460-dark .bff rect{fill:#e0e7ff!important;stroke:#4338ca!important;color:#0f172a!important;}#gc9b36cb9-bde8-446a-a089-d74ee0b88460-dark .bff polygon{fill:#e0e7ff!important;stroke:#4338ca!important;color:#0f172a!important;}#gc9b36cb9-bde8-446a-a089-d74ee0b88460-dark .bff ellipse{fill:#e0e7ff!important;stroke:#4338ca!important;color:#0f172a!important;}#gc9b36cb9-bde8-446a-a089-d74ee0b88460-dark .bff circle{fill:#e0e7ff!important;stroke:#4338ca!important;color:#0f172a!important;}#gc9b36cb9-bde8-446a-a089-d74ee0b88460-dark .bff path{fill:#e0e7ff!important;stroke:#4338ca!important;color:#0f172a!important;}#gc9b36cb9-bde8-446a-a089-d74ee0b88460-dark .bff tspan{fill:#0f172a!important;}#gc9b36cb9-bde8-446a-a089-d74ee0b88460-dark .origin rect{fill:#fde68a!important;stroke:#a16207!important;color:#0f172a!important;}#gc9b36cb9-bde8-446a-a089-d74ee0b88460-dark .origin polygon{fill:#fde68a!important;stroke:#a16207!important;color:#0f172a!important;}#gc9b36cb9-bde8-446a-a089-d74ee0b88460-dark .origin ellipse{fill:#fde68a!important;stroke:#a16207!important;color:#0f172a!important;}#gc9b36cb9-bde8-446a-a089-d74ee0b88460-dark .origin circle{fill:#fde68a!important;stroke:#a16207!important;color:#0f172a!important;}#gc9b36cb9-bde8-446a-a089-d74ee0b88460-dark .origin path{fill:#fde68a!important;stroke:#a16207!important;color:#0f172a!important;}#gc9b36cb9-bde8-446a-a089-d74ee0b88460-dark .origin tspan{fill:#0f172a!important;}</style><g><marker id="gc9b36cb9-bde8-446a-a089-d74ee0b88460-dark_flowchart-v2-pointEnd" class="marker flowchart-v2" viewBox="0 0 10 10" refX="5" refY="5" markerUnits="userSpaceOnUse" markerWidth="8" markerHeight="8" orient="auto"><path d="M 0 0 L 10 5 L 0 10 z" class="arrowMarkerPath" style="stroke-width: 1; stroke-dasharray: 1, 0;"></path></marker><marker id="gc9b36cb9-bde8-446a-a089-d74ee0b88460-dark_flowchart-v2-pointStart" class="marker flowchart-v2" viewBox="0 0 10 10" refX="4.5" refY="5" markerUnits="userSpaceOnUse" markerWidth="8" markerHeight="8" orient="auto"><path d="M 0 5 L 10 10 L 10 0 z" class="arrowMarkerPath" style="stroke-width: 1; stroke-dasharray: 1, 0;"></path></marker><marker id="gc9b36cb9-bde8-446a-a089-d74ee0b88460-dark_flowchart-v2-pointEnd-margin" class="marker flowchart-v2" viewBox="0 0 11.5 14" refX="11.5" refY="7" markerUnits="userSpaceOnUse" markerWidth="10.5" markerHeight="14" orient="auto"><path d="M 0 0 L 11.5 7 L 0 14 z" class="arrowMarkerPath" style="stroke-width: 0; stroke-dasharray: 1, 0;"></path></marker><marker id="gc9b36cb9-bde8-446a-a089-d74ee0b88460-dark_flowchart-v2-pointStart-margin" class="marker flowchart-v2" viewBox="0 0 11.5 14" refX="1" refY="7" markerUnits="userSpaceOnUse" markerWidth="11.5" markerHeight="14" orient="auto"><polygon points="0,7 11.5,14 11.5,0" class="arrowMarkerPath" style="stroke-width: 0; stroke-dasharray: 1, 0;"></polygon></marker><marker id="gc9b36cb9-bde8-446a-a089-d74ee0b88460-dark_flowchart-v2-circleEnd" class="marker flowchart-v2" viewBox="0 0 10 10" refX="11" refY="5" markerUnits="userSpaceOnUse" markerWidth="11" markerHeight="11" orient="auto"><circle cx="5" cy="5" r="5" class="arrowMarkerPath" style="stroke-width: 1; stroke-dasharray: 1, 0;"></circle></marker><marker id="gc9b36cb9-bde8-446a-a089-d74ee0b88460-dark_flowchart-v2-circleStart" class="marker flowchart-v2" viewBox="0 0 10 10" refX="-1" refY="5" markerUnits="userSpaceOnUse" markerWidth="11" markerHeight="11" orient="auto"><circle cx="5" cy="5" r="5" class="arrowMarkerPath" style="stroke-width: 1; stroke-dasharray: 1, 0;"></circle></marker><marker id="gc9b36cb9-bde8-446a-a089-d74ee0b88460-dark_flowchart-v2-circleEnd-margin" class="marker flowchart-v2" viewBox="0 0 10 10" refY="5" refX="12.25" markerUnits="userSpaceOnUse" markerWidth="14" markerHeight="14" orient="auto"><circle cx="5" cy="5" r="5" class="arrowMarkerPath" style="stroke-width: 0; stroke-dasharray: 1, 0;"></circle></marker><marker id="gc9b36cb9-bde8-446a-a089-d74ee0b88460-dark_flowchart-v2-circleStart-margin" class="marker flowchart-v2" viewBox="0 0 10 10" refX="-2" refY="5" markerUnits="userSpaceOnUse" markerWidth="14" markerHeight="14" orient="auto"><circle cx="5" cy="5" r="5" class="arrowMarkerPath" style="stroke-width: 0; stroke-dasharray: 1, 0;"></circle></marker><marker id="gc9b36cb9-bde8-446a-a089-d74ee0b88460-dark_flowchart-v2-crossEnd" class="marker cross flowchart-v2" viewBox="0 0 11 11" refX="12" refY="5.2" markerUnits="userSpaceOnUse" markerWidth="11" markerHeight="11" orient="auto"><path d="M 1,1 l 9,9 M 10,1 l -9,9" class="arrowMarkerPath" style="stroke-width: 2; stroke-dasharray: 1, 0;"></path></marker><marker id="gc9b36cb9-bde8-446a-a089-d74ee0b88460-dark_flowchart-v2-crossStart" class="marker cross flowchart-v2" viewBox="0 0 11 11" refX="-1" refY="5.2" markerUnits="userSpaceOnUse" markerWidth="11" markerHeight="11" orient="auto"><path d="M 1,1 l 9,9 M 10,1 l -9,9" class="arrowMarkerPath" style="stroke-width: 2; stroke-dasharray: 1, 0;"></path></marker><marker id="gc9b36cb9-bde8-446a-a089-d74ee0b88460-dark_flowchart-v2-crossEnd-margin" class="marker cross flowchart-v2" viewBox="0 0 15 15" refX="17.7" refY="7.5" markerUnits="userSpaceOnUse" markerWidth="12" markerHeight="12" orient="auto"><path d="M 1,1 L 14,14 M 1,14 L 14,1" class="arrowMarkerPath" style="stroke-width: 2.5;"></path></marker><marker id="gc9b36cb9-bde8-446a-a089-d74ee0b88460-dark_flowchart-v2-crossStart-margin" class="marker cross flowchart-v2" viewBox="0 0 15 15" refX="-3.5" refY="7.5" markerUnits="userSpaceOnUse" markerWidth="12" markerHeight="12" orient="auto"><path d="M 1,1 L 14,14 M 1,14 L 14,1" class="arrowMarkerPath" style="stroke-width: 2.5; stroke-dasharray: 1, 0;"></path></marker><g class="root"><g class="clusters"></g><g class="edgePaths"><path d="M218.272,134.475L222.355,134.392C226.439,134.308,234.605,134.142,242.189,134.058C249.772,133.975,256.772,133.975,260.272,133.975L263.772,133.975" id="gc9b36cb9-bde8-446a-a089-d74ee0b88460-dark-L_START_Q1_0" class="edge-thickness-normal edge-pattern-solid edge-thickness-normal edge-pattern-solid flowchart-link" style=";" data-edge="true" data-et="edge" data-id="L_START_Q1_0" data-points="W3sieCI6MjE4LjI3MTkyNTg3NTI2ODEyLCJ5IjoxMzQuNDc1MDAwMzgxNDY5N30seyJ4IjoyNDIuNzcxOTI2ODc5ODgyOCwieSI6MTMzLjk3NTAwMDM4MTQ2OTczfSx7IngiOjI2Ny43NzE5MjY4Nzk4ODI4LCJ5IjoxMzMuOTc1MDAwMzgxNDY5NzN9XQ==" data-look="classic" marker-end="url(#gc9b36cb9-bde8-446a-a089-d74ee0b88460-dark_flowchart-v2-pointEnd)"></path><path d="M427.553,89.525L441.386,78.863C455.219,68.2,482.884,46.875,520.932,36.213C558.979,25.55,607.408,25.55,655.838,25.55C704.267,25.55,752.696,25.55,782.672,26.192C812.649,26.835,824.173,28.119,829.935,28.762L835.697,29.404" id="gc9b36cb9-bde8-446a-a089-d74ee0b88460-dark-L_Q1_ORIGIN_0" class="edge-thickness-normal edge-pattern-solid edge-thickness-normal edge-pattern-solid flowchart-link" style=";" data-edge="true" data-et="edge" data-id="L_Q1_ORIGIN_0" data-points="W3sieCI6NDI3LjU1MzM4NTY2NTMzMTMsInkiOjg5LjUyNTIxMjIxODY3Nn0seyJ4Ijo1MTAuNTUwMDQ4ODI4MTI1LCJ5IjoyNS41NDk5OTkyMzcwNjA1NDd9LHsieCI6NjU1LjgzNzU0NzMwMjI0NjEsInkiOjI1LjU0OTk5OTIzNzA2MDU0N30seyJ4Ijo4MDEuMTI1MDQ1Nzc2MzY3MiwieSI6MjUuNTQ5OTk5MjM3MDYwNTQ3fSx7IngiOjgzOS42NzE5MjA3NzYzNjcyLCJ5IjoyOS44NDcxOTU2NTM3ODI1MTR9XQ==" data-look="classic" marker-end="url(#gc9b36cb9-bde8-446a-a089-d74ee0b88460-dark_flowchart-v2-pointEnd)"></path><path d="M435.994,169.984L448.42,176.753C460.846,183.521,485.698,197.058,503.882,203.827C522.066,210.595,533.581,210.595,539.339,210.595L545.097,210.595" id="gc9b36cb9-bde8-446a-a089-d74ee0b88460-dark-L_Q1_Q2_0" class="edge-thickness-normal edge-pattern-solid edge-thickness-normal edge-pattern-solid flowchart-link" style=";" data-edge="true" data-et="edge" data-id="L_Q1_Q2_0" data-points="W3sieCI6NDM1Ljk5NDIwMDU2MzI0OTUsInkiOjE2OS45ODM5NzM2NDYzNDUyMn0seyJ4Ijo1MTAuNTUwMDQ4ODI4MTI1LCJ5IjoyMTAuNTk1MzEyMTE4NTMwMjd9LHsieCI6NTQ5LjA5NjkyMzgyODEyNSwieSI6MjEwLjU5NTMxMjExODUzMDJ9XQ==" data-look="classic" marker-end="url(#gc9b36cb9-bde8-446a-a089-d74ee0b88460-dark_flowchart-v2-pointEnd)"></path><path d="M721.008,169.025L734.361,160.508C747.714,151.99,774.419,134.955,800.499,119.536C826.579,104.116,852.034,90.311,864.761,83.409L877.488,76.507" id="gc9b36cb9-bde8-446a-a089-d74ee0b88460-dark-L_Q2_ORIGIN_0" class="edge-thickness-normal edge-pattern-solid edge-thickness-normal edge-pattern-solid flowchart-link" style=";" data-edge="true" data-et="edge" data-id="L_Q2_ORIGIN_0" data-points="W3sieCI6NzIxLjAwNzgwODE0MTU5NSwieSI6MTY5LjAyNDk0OTQ4Mzc1ODE4fSx7IngiOjgwMS4xMjUwNDU3NzYzNjcyLCJ5IjoxMTcuOTIwMzEwOTc0MTIxMX0seyJ4Ijo4ODEuMDAzOTY3NzE4MDMxMywieSI6NzQuNTk5OTk4NDc0MTIxMX1d" data-look="classic" marker-end="url(#gc9b36cb9-bde8-446a-a089-d74ee0b88460-dark_flowchart-v2-pointEnd)"></path><path d="M748.819,224.355L757.536,225.645C766.254,226.935,783.69,229.515,798.279,230.805C812.869,232.095,824.613,232.095,830.484,232.095L836.356,232.095" id="gc9b36cb9-bde8-446a-a089-d74ee0b88460-dark-L_Q2_Q3_0" class="edge-thickness-normal edge-pattern-solid edge-thickness-normal edge-pattern-solid flowchart-link" style=";" data-edge="true" data-et="edge" data-id="L_Q2_Q3_0" data-points="W3sieCI6NzQ4LjgxODYwNTkwNjc2MzQsInkiOjIyNC4zNTQ4NzY5ODgxMzQxNX0seyJ4Ijo4MDEuMTI1MDQ1Nzc2MzY3MiwieSI6MjMyLjA5NTMxMjExODUzMDI3fSx7IngiOjg0MC4zNTYyOTI3MjQ2MDk0LCJ5IjoyMzIuMDk1MzEyMTE4NTMwMjd9XQ==" data-look="classic" marker-end="url(#gc9b36cb9-bde8-446a-a089-d74ee0b88460-dark_flowchart-v2-pointEnd)"></path><path d="M1008.886,196.525L1020.873,190.112C1032.859,183.699,1056.832,170.872,1091.569,164.459C1126.307,158.045,1171.809,158.045,1217.791,158.045C1263.774,158.045,1310.237,158.045,1341.796,158.989C1373.354,159.932,1390.009,161.819,1398.336,162.763L1406.663,163.706" id="gc9b36cb9-bde8-446a-a089-d74ee0b88460-dark-L_Q3_BFF_0" class="edge-thickness-normal edge-pattern-solid edge-thickness-normal edge-pattern-solid flowchart-link" style=";" data-edge="true" data-et="edge" data-id="L_Q3_BFF_0" data-points="W3sieCI6MTAwOC44ODYyNDM1MDQ2NDIyLCJ5IjoxOTYuNTI1MjU2Nzk1MDQ3NDV9LHsieCI6MTA4MC44MDQ3MzMyNzYzNjcyLCJ5IjoxNTguMDQ1MzEyODgxNDY5NzN9LHsieCI6MTIxNy4zMTA5ODE3NTA0ODgzLCJ5IjoxNTguMDQ1MzEyODgxNDY5NzN9LHsieCI6MTM1Ni43MDAwNDI3MjQ2MDk0LCJ5IjoxNTguMDQ1MzEyODgxNDY5NzN9LHsieCI6MTQxMC42Mzc1NDI3MjQ2MDk0LCJ5IjoxNjQuMTU2MjQ5MTUyMTIyNzd9XQ==" data-look="classic" marker-end="url(#gc9b36cb9-bde8-446a-a089-d74ee0b88460-dark_flowchart-v2-pointEnd)"></path><path d="M1009.005,267.547L1020.972,273.917C1032.938,280.287,1056.871,293.026,1074.115,299.396C1091.359,305.766,1101.914,305.766,1107.191,305.766L1112.469,305.766" id="gc9b36cb9-bde8-446a-a089-d74ee0b88460-dark-L_Q3_Q4_0" class="edge-thickness-normal edge-pattern-solid edge-thickness-normal edge-pattern-solid flowchart-link" style=";" data-edge="true" data-et="edge" data-id="L_Q3_Q4_0" data-points="W3sieCI6MTAwOS4wMDUwMjM3MzUwNTA5LCJ5IjoyNjcuNTQ2NTg3MjExNjA0MzN9LHsieCI6MTA4MC44MDQ3MzMyNzYzNjcyLCJ5IjozMDUuNzY2NDA1MTA1NTkwOH0seyJ4IjoxMTE2LjQ2ODc5NTc3NjM2NzYsInkiOjMwNS43NjY0MDUxMDU1OTA1fV0=" data-look="classic" marker-end="url(#gc9b36cb9-bde8-446a-a089-d74ee0b88460-dark_flowchart-v2-pointEnd)"></path><path d="M1304.677,319.242L1313.348,320.58C1322.018,321.917,1339.359,324.592,1353.787,325.929C1368.216,327.266,1379.731,327.266,1385.489,327.266L1391.247,327.266" id="gc9b36cb9-bde8-446a-a089-d74ee0b88460-dark-L_Q4_EDGE_0" class="edge-thickness-normal edge-pattern-solid edge-thickness-normal edge-pattern-solid flowchart-link" style=";" data-edge="true" data-et="edge" data-id="L_Q4_EDGE_0" data-points="W3sieCI6MTMwNC42NzczNzg5NzEwNjQsInkiOjMxOS4yNDIxOTM4NTkxMzY4fSx7IngiOjEzNTYuNzAwMDQyNzI0NjA5NCwieSI6MzI3LjI2NjQwNTEwNTU5MDh9LHsieCI6MTM5NS4yNDY5MTc3MjQ2MDk0LCJ5IjozMjcuMjY2NDA1MTA1NTkwOH1d" data-look="classic" marker-end="url(#gc9b36cb9-bde8-446a-a089-d74ee0b88460-dark_flowchart-v2-pointEnd)"></path><path d="M1288.414,276.027L1299.795,271.267C1311.176,266.507,1333.938,256.987,1357.427,245.81C1380.915,234.634,1405.13,221.801,1417.237,215.385L1429.345,208.968" id="gc9b36cb9-bde8-446a-a089-d74ee0b88460-dark-L_Q4_BFF_0" class="edge-thickness-normal edge-pattern-solid edge-thickness-normal edge-pattern-solid flowchart-link" style=";" data-edge="true" data-et="edge" data-id="L_Q4_BFF_0" data-points="W3sieCI6MTI4OC40MTQwNDQyNzk1NjY1LCJ5IjoyNzYuMDI3MjgxNjYwNTQ4M30seyJ4IjoxMzU2LjcwMDA0MjcyNDYwOTQsInkiOjI0Ny40NjY0MDU4Njg1MzAyN30seyJ4IjoxNDMyLjg3OTM0OTk5NDc2OTcsInkiOjIwNy4wOTUzMTIxMTg1MzAyN31d" data-look="classic" marker-end="url(#gc9b36cb9-bde8-446a-a089-d74ee0b88460-dark_flowchart-v2-pointEnd)"></path></g><g class="edgeLabels"><g class="edgeLabel"><g class="label" data-id="L_START_Q1_0" transform="translate(0, 0)"><text y="-10.1" text-anchor="middle"><tspan class="text-outer-tspan row" x="0" y="-0.1em" dy="1.1em" text-anchor="middle"></tspan></text></g></g><g><rect class="background" style="stroke: none"></rect></g><g class="edgeLabel" transform="translate(655.8375473022461, 25.549999237060547)"><g class="label" data-id="L_Q1_ORIGIN_0" transform="translate(0, -10.5)"><g><rect class="background" style="" x="-10.6640625" y="-1" width="21.328125" height="23"></rect><text y="-10.1" text-anchor="middle" style=""><tspan class="text-outer-tspan row" x="0" y="-0.1em" dy="1.1em" text-anchor="middle"><tspan font-style="normal" class="text-inner-tspan" font-weight="normal">no</tspan></tspan></text></g></g></g><g class="edgeLabel" transform="translate(510.550048828125, 210.59531211853027)"><g class="label" data-id="L_Q1_Q2_0" transform="translate(0, -10.5)"><g><rect class="background" style="" x="-13.546875" y="-1" width="27.09375" height="23"></rect><text y="-10.1" text-anchor="middle" style=""><tspan class="text-outer-tspan row" x="0" y="-0.1em" dy="1.1em" text-anchor="middle"><tspan font-style="normal" class="text-inner-tspan" font-weight="normal">yes</tspan></tspan></text></g></g></g><g class="edgeLabel" transform="translate(799.37182, 119.03865)"><g class="label" data-id="L_Q2_ORIGIN_0" transform="translate(0, -10.5)"><g><rect class="background" style="" x="-13.546875" y="-1" width="27.09375" height="23"></rect><text y="-10.1" text-anchor="middle" style=""><tspan class="text-outer-tspan row" x="0" y="-0.1em" dy="1.1em" text-anchor="middle"><tspan font-style="normal" class="text-inner-tspan" font-weight="normal">yes</tspan></tspan></text></g></g></g><g class="edgeLabel" transform="translate(801.1250457763672, 232.09531211853027)"><g class="label" data-id="L_Q2_Q3_0" transform="translate(0, -10.5)"><g><rect class="background" style="" x="-10.6640625" y="-1" width="21.328125" height="23"></rect><text y="-10.1" text-anchor="middle" style=""><tspan class="text-outer-tspan row" x="0" y="-0.1em" dy="1.1em" text-anchor="middle"><tspan font-style="normal" class="text-inner-tspan" font-weight="normal">no</tspan></tspan></text></g></g></g><g class="edgeLabel" transform="translate(1217.3109817504883, 158.04531288146973)"><g class="label" data-id="L_Q3_BFF_0" transform="translate(0, -10.5)"><g><rect class="background" style="" x="-13.546875" y="-1" width="27.09375" height="23"></rect><text y="-10.1" text-anchor="middle" style=""><tspan class="text-outer-tspan row" x="0" y="-0.1em" dy="1.1em" text-anchor="middle"><tspan font-style="normal" class="text-inner-tspan" font-weight="normal">yes</tspan></tspan></text></g></g></g><g class="edgeLabel" transform="translate(1080.8047332763672, 305.7664051055908)"><g class="label" data-id="L_Q3_Q4_0" transform="translate(0, -10.5)"><g><rect class="background" style="" x="-10.6640625" y="-1" width="21.328125" height="23"></rect><text y="-10.1" text-anchor="middle" style=""><tspan class="text-outer-tspan row" x="0" y="-0.1em" dy="1.1em" text-anchor="middle"><tspan font-style="normal" class="text-inner-tspan" font-weight="normal">no</tspan></tspan></text></g></g></g><g class="edgeLabel" transform="translate(1356.7000427246094, 327.2664051055908)"><g class="label" data-id="L_Q4_EDGE_0" transform="translate(0, -10.5)"><g><rect class="background" style="" x="-13.546875" y="-1" width="27.09375" height="23"></rect><text y="-10.1" text-anchor="middle" style=""><tspan class="text-outer-tspan row" x="0" y="-0.1em" dy="1.1em" text-anchor="middle"><tspan font-style="normal" class="text-inner-tspan" font-weight="normal">yes</tspan></tspan></text></g></g></g><g class="edgeLabel" transform="translate(1356.7000427246094, 247.46640586853027)"><g class="label" data-id="L_Q4_BFF_0" transform="translate(0, -10.5)"><g><rect class="background" style="" x="-10.6640625" y="-1" width="21.328125" height="23"></rect><text y="-10.1" text-anchor="middle" style=""><tspan class="text-outer-tspan row" x="0" y="-0.1em" dy="1.1em" text-anchor="middle"><tspan font-style="normal" class="text-inner-tspan" font-weight="normal">no</tspan></tspan></text></g></g></g></g><g class="nodes"><g class="node default" id="gc9b36cb9-bde8-446a-a089-d74ee0b88460-dark-flowchart-START-0" data-look="classic" transform="translate(112.8859634399414, 133.97500038146973)"><g class="basic label-container outer-path"><path d="M-79.09921932220459 -25.799999237060547 C-20.64089787422767 -25.799999237060547, 37.81742357374925 -25.799999237060547, 79.09921932220459 -25.799999237060547 C79.09921932220459 -25.799999237060547, 79.09921932220459 -25.799999237060547, 79.09921932220459 -25.799999237060547 C79.4853312280153 -25.78761737976243, 79.87144313382599 -25.775235522464314, 80.75223094882529 -25.746990371586765 C81.38488277941153 -25.685959210365258, 82.01753460999775 -25.62492804914375, 82.39844999610231 -25.58818159996402 C82.9063342089003 -25.506070819139737, 83.41421842169828 -25.423960038315453, 84.03111179685753 -25.32422550149928 C84.65659364340596 -25.181463351675102, 85.28207548995438 -25.038701201850923, 85.64350739354678 -24.956206728419545 C86.14674492088908 -24.80684847185204, 86.64998244823137 -24.657490215284533, 87.22901110680552 -24.48563754880318 C87.81157993357996 -24.27124683534298, 88.39414876035441 -24.05685612188278, 88.78110776178644 -23.914451632345997 C89.2030043729057 -23.727690517721808, 89.62490098402495 -23.54092940309762, 90.29341946041056 -23.24499610449772 C90.84538296913713 -22.957037095544568, 91.3973464778637 -22.669078086591416, 91.7597317895184 -22.480021901620034 C92.29881029923841 -22.153229341050796, 92.83788880895844 -21.826436780481558, 93.17401935722664 -21.62267246679901 C93.59858860684177 -21.326511337574086, 94.02315785645692 -21.030350208349162, 94.53047055255584 -20.67647083276321 C94.85336925727289 -20.418967708446775, 95.17626796198992 -20.161464584130336, 95.8235114265865 -19.64530514498651 C96.23379250333338 -19.272698726527434, 96.64407358008025 -18.90009230806836, 97.04782859701088 -18.533412684464313 C97.41644085301424 -18.1527902665118, 97.7850531090176 -17.772167848559288, 98.19839108196044 -17.345362455817106 C98.4524545243425 -17.04692507977573, 98.70651796672456 -16.748487703734355, 99.27047097338968 -16.086036412270357 C99.60750670919842 -15.634439230873834, 99.94454244500714 -15.182842049477314, 100.25966286506427 -14.76060939466161 C100.46908687034092 -14.438877884337176, 100.67851087561756 -14.117146374012739, 101.16190195532036 -13.374527866909407 C101.35063070314487 -13.039420864288973, 101.53935945096937 -12.704313861668538, 101.9734807502064 -11.93348753532484 C102.122269081926 -11.624525380948791, 102.27105741364561 -11.315563226572744, 102.69106429837109 -10.443409943732584 C102.87576160766034 -9.987204018908582, 103.06045891694959 -9.530998094084577, 103.31170389509381 -8.910418140577123 C103.41647539577868 -8.594863073586007, 103.52124689646352 -8.27930800659489, 103.8328491991449 -7.340811518003323 C103.94127463681347 -6.927338332291118, 104.04970007448205 -6.513865146578912, 104.25235871268467 -5.741039926302914 C104.35687229966113 -5.204384746133217, 104.4613858866376 -4.667729565963519, 104.56850858113748 -4.117677170096137 C104.62119287196269 -3.7090682141457934, 104.67387716278789 -3.30045925819545, 104.77999967687991 -2.4773939951584394 C104.80418135042285 -2.100744910631472, 104.8283630239658 -1.7240958261045047, 104.88596293763487 -0.8269306768952902 C104.88596293763487 -0.4411025013346663, 104.88596293763487 -0.05527432577404234, 104.88596293763487 0.826930676895284 C104.84466178592042 1.4702294525375048, 104.80336063420597 2.1135282281797254, 104.77999967687991 2.4773939951584216 C104.70382378542264 3.0681991666697943, 104.62764789396537 3.659004338181167, 104.56850858113748 4.117677170096119 C104.50527596761779 4.442363276302143, 104.44204335409809 4.7670493825081675, 104.25235871268467 5.741039926302909 C104.14555380135111 6.148333342759147, 104.03874889001756 6.555626759215386, 103.8328491991449 7.340811518003306 C103.67267542912379 7.823229393082384, 103.51250165910267 8.305647268161461, 103.31170389509383 8.910418140577105 C103.15295202940153 9.3025383180956, 102.99420016370924 9.694658495614096, 102.69106429837109 10.443409943732577 C102.49224315907765 10.856266293566302, 102.2934220197842 11.269122643400026, 101.9734807502064 11.933487535324835 C101.77087536047421 12.293233920814739, 101.56826997074202 12.652980306304642, 101.16190195532037 13.374527866909402 C100.95003472100166 13.700012833141319, 100.73816748668294 14.025497799373237, 100.25966286506429 14.760609394661596 C99.99013704576082 15.121749438220972, 99.72061122645735 15.482889481780346, 99.27047097338968 16.086036412270353 C98.95438432988556 16.45732976956983, 98.63829768638142 16.82862312686931, 98.19839108196045 17.345362455817092 C97.74135773053456 17.817286914300308, 97.28432437910867 18.289211372783523, 97.04782859701088 18.533412684464306 C96.56788145732556 18.969287978021068, 96.08793431764023 19.40516327157783, 95.82351142658653 19.64530514498649 C95.47795597717979 19.920876420271664, 95.13240052777306 20.196447695556838, 94.53047055255584 20.676470832763208 C94.15284050206074 20.93988920864718, 93.77521045156563 21.203307584531153, 93.17401935722665 21.622672466799003 C92.63090239035894 21.951913163823782, 92.08778542349123 22.281153860848566, 91.75973178951841 22.48002190162003 C91.45951695514691 22.63664378841487, 91.1593021207754 22.793265675209703, 90.29341946041058 23.244996104497716 C89.8067822522278 23.460415960980345, 89.32014504404502 23.675835817462975, 88.78110776178644 23.914451632345994 C88.34598792766941 24.074579753504718, 87.91086809355237 24.234707874663442, 87.22901110680553 24.485637548803172 C86.6316382763809 24.66293466919923, 86.03426544595627 24.840231789595286, 85.64350739354681 24.95620672841954 C85.10703273784193 25.078653567759883, 84.57055808213705 25.201100407100224, 84.03111179685754 25.324225501499278 C83.47470323946656 25.414181322045444, 82.91829468207557 25.504137142591613, 82.39844999610233 25.588181599964017 C81.85760731552558 25.640356042900766, 81.31676463494884 25.692530485837516, 80.75223094882529 25.746990371586765 C80.24472518337625 25.76326509368467, 79.7372194179272 25.779539815782574, 79.09921932220459 25.799999237060547 C79.09921932220459 25.799999237060547, 79.09921932220459 25.799999237060547, 79.09921932220459 25.799999237060547 C43.33548142875047 25.799999237060547, 7.571743535296349 25.799999237060547, -79.09921932220459 25.799999237060547 C-79.60051150763097 25.783923772379968, -80.10180369305736 25.767848307699392, -80.75223094882527 25.746990371586765 C-81.28983048586028 25.695128790807036, -81.82743002289529 25.643267210027307, -82.39844999610231 25.588181599964017 C-82.99112802462453 25.4923620125993, -83.58380605314674 25.39654242523459, -84.03111179685753 25.324225501499278 C-84.47410590397702 25.223114987355963, -84.91710001109651 25.12200447321265, -85.64350739354678 24.956206728419545 C-85.97488907575394 24.857854384598408, -86.30627075796109 24.75950204077727, -87.2290111068055 24.485637548803183 C-87.71644269766801 24.306258217597545, -88.20387428853053 24.126878886391907, -88.78110776178644 23.914451632345997 C-89.11886357625252 23.76493715245212, -89.4566193907186 23.61542267255824, -90.29341946041056 23.244996104497723 C-90.63229611900535 23.068204368769685, -90.97117277760013 22.891412633041647, -91.7597317895184 22.480021901620038 C-92.25670830251208 22.178751818885093, -92.75368481550578 21.877481736150152, -93.17401935722663 21.622672466799017 C-93.69462736645991 21.259518856315374, -94.21523537569318 20.89636524583173, -94.53047055255584 20.67647083276321 C-94.91552815320763 20.369397643056505, -95.30058575385941 20.0623244533498, -95.8235114265865 19.645305144986512 C-96.2162369181565 19.288642244489743, -96.6089624097265 18.931979343992975, -97.04782859701086 18.533412684464324 C-97.4487479135162 18.11943057408452, -97.84966723002154 17.70544846370472, -98.19839108196044 17.3453624558171 C-98.57873143108179 16.89859303976021, -98.95907178020313 16.451823623703326, -99.27047097338968 16.08603641227036 C-99.60077614264218 15.643457576891961, -99.93108131189469 15.200878741513563, -100.25966286506427 14.760609394661614 C-100.48475401029734 14.414808950147977, -100.7098451555304 14.069008505634342, -101.16190195532036 13.374527866909418 C-101.39744132682586 12.956303861853739, -101.63298069833135 12.53807985679806, -101.97348075020639 11.933487535324842 C-102.15990822565678 11.546366893643153, -102.34633570110717 11.159246251961465, -102.69106429837109 10.443409943732586 C-102.87107800252929 9.998772614133633, -103.05109170668747 9.55413528453468, -103.31170389509381 8.910418140577127 C-103.44804838646952 8.499770256098063, -103.58439287784525 8.089122371619, -103.8328491991449 7.340811518003316 C-103.9670483635603 6.829051941801649, -104.10124752797569 6.3172923655999815, -104.25235871268467 5.741039926302918 C-104.3478450227764 5.250737905020721, -104.44333133286811 4.760435883738523, -104.56850858113748 4.117677170096139 C-104.63196954830977 3.625486440493301, -104.69543051548204 3.133295710890462, -104.77999967687991 2.477393995158454 C-104.8082839583564 2.0368434805010587, -104.83656823983289 1.5962929658436633, -104.88596293763487 0.8269306768952934 C-104.88596293763487 0.17979369007653456, -104.88596293763487 -0.4673432967422243, -104.88596293763487 -0.8269306768952809 C-104.84394349366244 -1.4814174342507234, -104.80192404968999 -2.1359041916061656, -104.77999967687991 -2.4773939951584185 C-104.71983845761217 -2.9439925316224973, -104.65967723834444 -3.4105910680865765, -104.56850858113748 -4.117677170096128 C-104.47688048085386 -4.588168099446638, -104.38525238057025 -5.058659028797149, -104.25235871268467 -5.741039926302906 C-104.11792461668641 -6.2536953984500325, -103.98349052068815 -6.766350870597159, -103.8328491991449 -7.340811518003303 C-103.69561465952584 -7.754140085981391, -103.55838011990679 -8.16746865395948, -103.31170389509383 -8.910418140577093 C-103.07615942776549 -9.492217528820568, -102.84061496043715 -10.074016917064043, -102.69106429837109 -10.443409943732574 C-102.49925582935896 -10.841704333680031, -102.30744736034684 -11.23999872362749, -101.9734807502064 -11.933487535324831 C-101.6825239720131 -12.45011075757564, -101.3915671938198 -12.96673397982645, -101.16190195532036 -13.374527866909409 C-100.97771407029973 -13.65748991967349, -100.79352618527908 -13.94045197243757, -100.25966286506429 -14.760609394661605 C-99.96376803492204 -15.15708151047863, -99.66787320477981 -15.553553626295654, -99.27047097338968 -16.086036412270353 C-98.98836021902719 -16.417419756901204, -98.70624946466471 -16.748803101532054, -98.19839108196045 -17.345362455817092 C-97.77968692794168 -17.77770887109182, -97.36098277392293 -18.21005528636655, -97.04782859701089 -18.5334126844643 C-96.80071160173077 -18.757837801220298, -96.55359460645066 -18.982262917976296, -95.82351142658653 -19.645305144986487 C-95.44037854454143 -19.95084342282328, -95.05724566249633 -20.25638170066007, -94.53047055255585 -20.676470832763204 C-94.0592918889034 -21.005144671531543, -93.58811322525096 -21.33381851029988, -93.17401935722665 -21.622672466799 C-92.65881887223514 -21.934990028454965, -92.14361838724365 -22.247307590110932, -91.75973178951841 -22.480021901620027 C-91.32153934446077 -22.70862661953094, -90.88334689940314 -22.93723133744185, -90.29341946041058 -23.244996104497716 C-89.73244677863715 -23.493322070055445, -89.17147409686375 -23.741648035613174, -88.78110776178646 -23.91445163234599 C-88.31755530160879 -24.085043222723343, -87.85400284143113 -24.25563481310069, -87.22901110680553 -24.485637548803172 C-86.82456319819238 -24.605675565089157, -86.42011528957924 -24.725713581375146, -85.64350739354681 -24.956206728419538 C-85.20718656611461 -25.05579411002145, -84.7708657386824 -25.15538149162336, -84.03111179685754 -25.324225501499278 C-83.66010685338557 -25.38420670357352, -83.2891019099136 -25.44418790564776, -82.39844999610233 -25.588181599964017 C-81.90357150057508 -25.63592193324906, -81.40869300504784 -25.683662266534107, -80.75223094882529 -25.746990371586765 C-80.24997634520864 -25.76309669914547, -79.747721741592 -25.779203026704177, -79.0992193222046 -25.799999237060547 C-79.0992193222046 -25.799999237060547, -79.09921932220459 -25.799999237060547, -79.09921932220459 -25.799999237060547" stroke="none" stroke-width="0" fill="#2d2d2d" style=""></path><path d="M-79.09921932220459 -25.799999237060547 C-39.08904559272122 -25.799999237060547, 0.9211281367621496 -25.799999237060547, 79.09921932220459 -25.799999237060547 M-79.09921932220459 -25.799999237060547 C-30.583306721108123 -25.799999237060547, 17.932605879988344 -25.799999237060547, 79.09921932220459 -25.799999237060547 M79.09921932220459 -25.799999237060547 C79.09921932220459 -25.799999237060547, 79.09921932220459 -25.799999237060547, 79.09921932220459 -25.799999237060547 M79.09921932220459 -25.799999237060547 C79.09921932220459 -25.799999237060547, 79.09921932220459 -25.799999237060547, 79.09921932220459 -25.799999237060547 M79.09921932220459 -25.799999237060547 C79.57804233149933 -25.78464431512491, 80.05686534079406 -25.76928939318928, 80.75223094882529 -25.746990371586765 M79.09921932220459 -25.799999237060547 C79.56496548426581 -25.785063664163154, 80.03071164632702 -25.770128091265757, 80.75223094882529 -25.746990371586765 M80.75223094882529 -25.746990371586765 C81.3019633188925 -25.693958350996287, 81.85169568895974 -25.640926330405804, 82.39844999610231 -25.58818159996402 M80.75223094882529 -25.746990371586765 C81.33317328818754 -25.690947562793873, 81.91411562754979 -25.63490475400098, 82.39844999610231 -25.58818159996402 M82.39844999610231 -25.58818159996402 C82.98542541691438 -25.493283965989498, 83.57240083772645 -25.398386332014976, 84.03111179685753 -25.32422550149928 M82.39844999610231 -25.58818159996402 C82.76795307437284 -25.52844320780841, 83.13745615264335 -25.468704815652803, 84.03111179685753 -25.32422550149928 M84.03111179685753 -25.32422550149928 C84.62734780003878 -25.188138524576697, 85.22358380322001 -25.052051547654113, 85.64350739354678 -24.956206728419545 M84.03111179685753 -25.32422550149928 C84.60497806339585 -25.193244270989272, 85.17884432993418 -25.06226304047926, 85.64350739354678 -24.956206728419545 M85.64350739354678 -24.956206728419545 C86.13885569403891 -24.80918995296977, 86.63420399453105 -24.662173177519996, 87.22901110680552 -24.48563754880318 M85.64350739354678 -24.956206728419545 C85.97324165041047 -24.858343331792835, 86.30297590727417 -24.760479935166124, 87.22901110680552 -24.48563754880318 M87.22901110680552 -24.48563754880318 C87.60405473307767 -24.34761802746975, 87.97909835934983 -24.209598506136317, 88.78110776178644 -23.914451632345997 M87.22901110680552 -24.48563754880318 C87.62488807241644 -24.339951166011804, 88.02076503802735 -24.194264783220433, 88.78110776178644 -23.914451632345997 M88.78110776178644 -23.914451632345997 C89.38191836628842 -23.64849060014632, 89.9827289707904 -23.382529567946644, 90.29341946041056 -23.24499610449772 M88.78110776178644 -23.914451632345997 C89.13421549331258 -23.758141314168068, 89.48732322483873 -23.601830995990138, 90.29341946041056 -23.24499610449772 M90.29341946041056 -23.24499610449772 C90.59917300361705 -23.085484676851383, 90.90492654682355 -22.925973249205047, 91.7597317895184 -22.480021901620034 M90.29341946041056 -23.24499610449772 C90.68390802350811 -23.041278471249587, 91.07439658660567 -22.837560838001455, 91.7597317895184 -22.480021901620034 M91.7597317895184 -22.480021901620034 C92.16756699725624 -22.232789801983643, 92.57540220499409 -21.98555770234725, 93.17401935722664 -21.62267246679901 M91.7597317895184 -22.480021901620034 C92.1572820178956 -22.23902461691331, 92.55483224627281 -21.998027332206586, 93.17401935722664 -21.62267246679901 M93.17401935722664 -21.62267246679901 C93.69059177931625 -21.262333907209033, 94.20716420140587 -20.90199534761906, 94.53047055255584 -20.67647083276321 M93.17401935722664 -21.62267246679901 C93.6255336089287 -21.307715670548586, 94.07704786063077 -20.99275887429816, 94.53047055255584 -20.67647083276321 M94.53047055255584 -20.67647083276321 C94.89332910764986 -20.387100791147404, 95.2561876627439 -20.0977307495316, 95.8235114265865 -19.64530514498651 M94.53047055255584 -20.67647083276321 C94.99590802121821 -20.305296837316174, 95.4613454898806 -19.93412284186914, 95.8235114265865 -19.64530514498651 M95.8235114265865 -19.64530514498651 C96.26908027398372 -19.240651306886047, 96.71464912138092 -18.835997468785582, 97.04782859701088 -18.533412684464313 M95.8235114265865 -19.64530514498651 C96.24455032151289 -19.26292876069307, 96.66558921643927 -18.880552376399635, 97.04782859701088 -18.533412684464313 M97.04782859701088 -18.533412684464313 C97.38047369197085 -18.189929313247937, 97.71311878693082 -17.84644594203156, 98.19839108196044 -17.345362455817106 M97.04782859701088 -18.533412684464313 C97.35767028941414 -18.213475698581906, 97.6675119818174 -17.893538712699502, 98.19839108196044 -17.345362455817106 M98.19839108196044 -17.345362455817106 C98.57851489784265 -16.898847392023995, 98.95863871372487 -16.45233232823088, 99.27047097338968 -16.086036412270357 M98.19839108196044 -17.345362455817106 C98.50249029553075 -16.988150215821975, 98.80658950910106 -16.630937975826843, 99.27047097338968 -16.086036412270357 M99.27047097338968 -16.086036412270357 C99.6236395333524 -15.612822716238009, 99.97680809331511 -15.139609020205661, 100.25966286506427 -14.76060939466161 M99.27047097338968 -16.086036412270357 C99.52771473478559 -15.741353207388615, 99.78495849618149 -15.396670002506873, 100.25966286506427 -14.76060939466161 M100.25966286506427 -14.76060939466161 C100.46079078594606 -14.451622897778257, 100.66191870682785 -14.142636400894906, 101.16190195532036 -13.374527866909407 M100.25966286506427 -14.76060939466161 C100.55567371829078 -14.305857234061959, 100.85168457151727 -13.851105073462305, 101.16190195532036 -13.374527866909407 M101.16190195532036 -13.374527866909407 C101.47322228564246 -12.821747095820651, 101.78454261596458 -12.268966324731894, 101.9734807502064 -11.93348753532484 M101.16190195532036 -13.374527866909407 C101.44226702377094 -12.876711297833719, 101.72263209222152 -12.378894728758032, 101.9734807502064 -11.93348753532484 M101.9734807502064 -11.93348753532484 C102.15792151762383 -11.55049233538232, 102.34236228504128 -11.1674971354398, 102.69106429837109 -10.443409943732584 M101.9734807502064 -11.93348753532484 C102.13859361399423 -11.590627140820077, 102.30370647778207 -11.247766746315314, 102.69106429837109 -10.443409943732584 M102.69106429837109 -10.443409943732584 C102.82310075266902 -10.117277348865493, 102.95513720696697 -9.791144753998399, 103.31170389509381 -8.910418140577123 M102.69106429837109 -10.443409943732584 C102.90997674643022 -9.902691964642262, 103.12888919448935 -9.361973985551941, 103.31170389509381 -8.910418140577123 M103.31170389509381 -8.910418140577123 C103.43104029114221 -8.550995929351943, 103.55037668719062 -8.191573718126762, 103.8328491991449 -7.340811518003323 M103.31170389509381 -8.910418140577123 C103.45423775244605 -8.481128871918353, 103.59677160979827 -8.051839603259582, 103.8328491991449 -7.340811518003323 M103.8328491991449 -7.340811518003323 C103.98785138741684 -6.749720995749067, 104.14285357568879 -6.158630473494811, 104.25235871268467 -5.741039926302914 M103.8328491991449 -7.340811518003323 C103.96545925752636 -6.835111891831979, 104.09806931590781 -6.329412265660634, 104.25235871268467 -5.741039926302914 M104.25235871268467 -5.741039926302914 C104.33617145371223 -5.3106792149554884, 104.4199841947398 -4.880318503608063, 104.56850858113748 -4.117677170096137 M104.25235871268467 -5.741039926302914 C104.35408774953713 -5.218682822505099, 104.45581678638959 -4.696325718707285, 104.56850858113748 -4.117677170096137 M104.56850858113748 -4.117677170096137 C104.64499445961343 -3.5244678004817236, 104.72148033808938 -2.9312584308673104, 104.77999967687991 -2.4773939951584394 M104.56850858113748 -4.117677170096137 C104.65107092339237 -3.4773399473457456, 104.73363326564726 -2.837002724595354, 104.77999967687991 -2.4773939951584394 M104.77999967687991 -2.4773939951584394 C104.82097791973574 -1.8391247856365474, 104.86195616259158 -1.200855576114655, 104.88596293763487 -0.8269306768952902 M104.77999967687991 -2.4773939951584394 C104.81050510128996 -2.002247386436576, 104.8410105257 -1.5271007777147132, 104.88596293763487 -0.8269306768952902 M104.88596293763487 -0.8269306768952902 C104.88596293763487 -0.231708463692736, 104.88596293763487 0.3635137495098182, 104.88596293763487 0.826930676895284 M104.88596293763487 -0.8269306768952902 C104.88596293763487 -0.44772539683109525, 104.88596293763487 -0.06852011676690029, 104.88596293763487 0.826930676895284 M104.88596293763487 0.826930676895284 C104.86221351423298 1.1968471165693342, 104.83846409083108 1.5667635562433846, 104.77999967687991 2.4773939951584216 M104.88596293763487 0.826930676895284 C104.85908952406119 1.2455057851343527, 104.83221611048751 1.6640808933734215, 104.77999967687991 2.4773939951584216 M104.77999967687991 2.4773939951584216 C104.70643247614336 3.0479666765840916, 104.63286527540683 3.6185393580097616, 104.56850858113748 4.117677170096119 M104.77999967687991 2.4773939951584216 C104.71668602979591 2.96844213924819, 104.65337238271191 3.459490283337958, 104.56850858113748 4.117677170096119 M104.56850858113748 4.117677170096119 C104.48711446244825 4.535618766912209, 104.40572034375903 4.9535603637282986, 104.25235871268467 5.741039926302909 M104.56850858113748 4.117677170096119 C104.49137193468302 4.513757546803749, 104.41423528822857 4.909837923511379, 104.25235871268467 5.741039926302909 M104.25235871268467 5.741039926302909 C104.12580207214589 6.223655246672234, 103.99924543160712 6.706270567041558, 103.8328491991449 7.340811518003306 M104.25235871268467 5.741039926302909 C104.09007873697912 6.359883806254516, 103.92779876127358 6.978727686206124, 103.8328491991449 7.340811518003306 M103.8328491991449 7.340811518003306 C103.68882010309055 7.774604207398956, 103.5447910070362 8.208396896794607, 103.31170389509383 8.910418140577105 M103.8328491991449 7.340811518003306 C103.64184773416957 7.916077498558323, 103.45084626919423 8.491343479113342, 103.31170389509383 8.910418140577105 M103.31170389509383 8.910418140577105 C103.0982684419081 9.43760783643961, 102.88483298872238 9.964797532302114, 102.69106429837109 10.443409943732577 M103.31170389509383 8.910418140577105 C103.09736693154395 9.439834584468608, 102.88302996799405 9.969251028360112, 102.69106429837109 10.443409943732577 M102.69106429837109 10.443409943732577 C102.49728587740323 10.845794981066327, 102.30350745643538 11.248180018400078, 101.9734807502064 11.933487535324835 M102.69106429837109 10.443409943732577 C102.48436325606991 10.872629080764773, 102.27766221376874 11.30184821779697, 101.9734807502064 11.933487535324835 M101.9734807502064 11.933487535324835 C101.65735364138165 12.494803228384153, 101.34122653255689 13.05611892144347, 101.16190195532037 13.374527866909402 M101.9734807502064 11.933487535324835 C101.80592166057784 12.231005666158048, 101.63836257094927 12.52852379699126, 101.16190195532037 13.374527866909402 M101.16190195532037 13.374527866909402 C100.87248991501288 13.819142478836092, 100.58307787470537 14.26375709076278, 100.25966286506429 14.760609394661596 M101.16190195532037 13.374527866909402 C100.85067398528831 13.852657605290409, 100.53944601525625 14.330787343671416, 100.25966286506429 14.760609394661596 M100.25966286506429 14.760609394661596 C99.92071371871992 15.214770371860565, 99.58176457237556 15.668931349059536, 99.27047097338968 16.086036412270353 M100.25966286506429 14.760609394661596 C100.05324739757532 15.037187316260864, 99.84683193008637 15.313765237860132, 99.27047097338968 16.086036412270353 M99.27047097338968 16.086036412270353 C98.9246435421728 16.492264991115984, 98.57881611095594 16.898493569961616, 98.19839108196045 17.345362455817092 M99.27047097338968 16.086036412270353 C98.92498271365872 16.49186658098922, 98.57949445392778 16.897696749708086, 98.19839108196045 17.345362455817092 M98.19839108196045 17.345362455817092 C97.88777960601779 17.666094306404332, 97.57716813007512 17.986826156991572, 97.04782859701088 18.533412684464306 M98.19839108196045 17.345362455817092 C97.76563601552671 17.79221759176164, 97.33288094909298 18.23907272770619, 97.04782859701088 18.533412684464306 M97.04782859701088 18.533412684464306 C96.73975649945663 18.81319561232204, 96.43168440190239 19.092978540179775, 95.82351142658653 19.64530514498649 M97.04782859701088 18.533412684464306 C96.75773985478955 18.796863604822196, 96.46765111256822 19.06031452518009, 95.82351142658653 19.64530514498649 M95.82351142658653 19.64530514498649 C95.46249761467533 19.933204053004673, 95.10148380276412 20.22110296102285, 94.53047055255584 20.676470832763208 M95.82351142658653 19.64530514498649 C95.46779366197373 19.92898059621794, 95.11207589736091 20.21265604744939, 94.53047055255584 20.676470832763208 M94.53047055255584 20.676470832763208 C94.2004419067812 20.906684529345792, 93.87041326100653 21.136898225928373, 93.17401935722665 21.622672466799003 M94.53047055255584 20.676470832763208 C94.13357118449103 20.953330650428498, 93.73667181642621 21.230190468093785, 93.17401935722665 21.622672466799003 M93.17401935722665 21.622672466799003 C92.83778497110966 21.826499727595706, 92.50155058499266 22.030326988392407, 91.75973178951841 22.48002190162003 M93.17401935722665 21.622672466799003 C92.75451798370699 21.87697666469034, 92.33501661018731 22.131280862581676, 91.75973178951841 22.48002190162003 M91.75973178951841 22.48002190162003 C91.2626497832345 22.73934926590213, 90.76556777695058 22.998676630184228, 90.29341946041058 23.244996104497716 M91.75973178951841 22.48002190162003 C91.37075326794036 22.68295174717467, 90.9817747463623 22.885881592729305, 90.29341946041058 23.244996104497716 M90.29341946041058 23.244996104497716 C89.82072206464798 23.454245219531774, 89.34802466888539 23.663494334565833, 88.78110776178644 23.914451632345994 M90.29341946041058 23.244996104497716 C89.68999119336554 23.512115898254997, 89.08656292632051 23.779235692012282, 88.78110776178644 23.914451632345994 M88.78110776178644 23.914451632345994 C88.31939741547298 24.084365307793007, 87.85768706915951 24.25427898324002, 87.22901110680553 24.485637548803172 M88.78110776178644 23.914451632345994 C88.34244274014094 24.07588441528655, 87.90377771849545 24.2373171982271, 87.22901110680553 24.485637548803172 M87.22901110680553 24.485637548803172 C86.75500735445274 24.62631937440501, 86.28100360209997 24.76700120000685, 85.64350739354681 24.95620672841954 M87.22901110680553 24.485637548803172 C86.80760774810881 24.61070785367299, 86.38620438941209 24.735778158542814, 85.64350739354681 24.95620672841954 M85.64350739354681 24.95620672841954 C85.14769546705323 25.06937256516651, 84.65188354055964 25.18253840191348, 84.03111179685754 25.324225501499278 M85.64350739354681 24.95620672841954 C85.28464685769387 25.038114303944127, 84.92578632184095 25.12002187946871, 84.03111179685754 25.324225501499278 M84.03111179685754 25.324225501499278 C83.67929385168117 25.38110469848648, 83.32747590650479 25.437983895473685, 82.39844999610233 25.588181599964017 M84.03111179685754 25.324225501499278 C83.46846716024841 25.415189522971918, 82.90582252363929 25.506153544444558, 82.39844999610233 25.588181599964017 M82.39844999610233 25.588181599964017 C81.98399187728471 25.62816387622754, 81.56953375846707 25.66814615249106, 80.75223094882529 25.746990371586765 M82.39844999610233 25.588181599964017 C81.84677361179611 25.641401157270113, 81.2950972274899 25.69462071457621, 80.75223094882529 25.746990371586765 M80.75223094882529 25.746990371586765 C80.15469648199165 25.766152138907838, 79.557162015158 25.785313906228907, 79.09921932220459 25.799999237060547 M80.75223094882529 25.746990371586765 C80.37544267722174 25.75907323808321, 79.9986544056182 25.771156104579656, 79.09921932220459 25.799999237060547 M79.09921932220459 25.799999237060547 C79.09921932220459 25.799999237060547, 79.09921932220459 25.799999237060547, 79.09921932220459 25.799999237060547 M79.09921932220459 25.799999237060547 C79.09921932220459 25.799999237060547, 79.09921932220459 25.799999237060547, 79.09921932220459 25.799999237060547 M79.09921932220459 25.799999237060547 C17.232416295661025 25.799999237060547, -44.63438673088254 25.799999237060547, -79.09921932220459 25.799999237060547 M79.09921932220459 25.799999237060547 C28.156624704874226 25.799999237060547, -22.78596991245614 25.799999237060547, -79.09921932220459 25.799999237060547 M-79.09921932220459 25.799999237060547 C-79.59107601194101 25.784226350361667, -80.08293270167744 25.768453463662787, -80.75223094882527 25.746990371586765 M-79.09921932220459 25.799999237060547 C-79.56291685656265 25.785129359666183, -80.0266143909207 25.770259482271815, -80.75223094882527 25.746990371586765 M-80.75223094882527 25.746990371586765 C-81.27383334458264 25.69667201578671, -81.79543574034003 25.64635365998666, -82.39844999610231 25.588181599964017 M-80.75223094882527 25.746990371586765 C-81.09868661650619 25.71356820999949, -81.44514228418709 25.680146048412215, -82.39844999610231 25.588181599964017 M-82.39844999610231 25.588181599964017 C-82.77845319927323 25.526745629044196, -83.15845640244413 25.46530965812438, -84.03111179685753 25.324225501499278 M-82.39844999610231 25.588181599964017 C-82.81994425235648 25.52003767734962, -83.24143850861066 25.45189375473522, -84.03111179685753 25.324225501499278 M-84.03111179685753 25.324225501499278 C-84.45381459774528 25.227746345590212, -84.87651739863303 25.131267189681143, -85.64350739354678 24.956206728419545 M-84.03111179685753 25.324225501499278 C-84.40807042263425 25.238187155050664, -84.78502904841096 25.15214880860205, -85.64350739354678 24.956206728419545 M-85.64350739354678 24.956206728419545 C-85.99981556534881 24.850456333328463, -86.35612373715084 24.74470593823738, -87.2290111068055 24.485637548803183 M-85.64350739354678 24.956206728419545 C-86.1994133563654 24.791216756664927, -86.75531931918401 24.62622678491031, -87.2290111068055 24.485637548803183 M-87.2290111068055 24.485637548803183 C-87.65532748624177 24.328749180345223, -88.08164386567805 24.171860811887264, -88.78110776178644 23.914451632345997 M-87.2290111068055 24.485637548803183 C-87.67978415011726 24.319748901964125, -88.130557193429 24.153860255125068, -88.78110776178644 23.914451632345997 M-88.78110776178644 23.914451632345997 C-89.37622358066932 23.65101151281009, -89.97133939955218 23.387571393274182, -90.29341946041056 23.244996104497723 M-88.78110776178644 23.914451632345997 C-89.25693862628958 23.703815423651545, -89.73276949079273 23.49317921495709, -90.29341946041056 23.244996104497723 M-90.29341946041056 23.244996104497723 C-90.6102113892246 23.07972595815035, -90.92700331803864 22.914455811802984, -91.7597317895184 22.480021901620038 M-90.29341946041056 23.244996104497723 C-90.78299368492381 22.989585545156416, -91.27256790943707 22.73417498581511, -91.7597317895184 22.480021901620038 M-91.7597317895184 22.480021901620038 C-92.19441134791751 22.21651659885787, -92.62909090631662 21.9530112960957, -93.17401935722663 21.622672466799017 M-91.7597317895184 22.480021901620038 C-92.14651821096713 22.245549699928503, -92.53330463241586 22.011077498236965, -93.17401935722663 21.622672466799017 M-93.17401935722663 21.622672466799017 C-93.4510992455764 21.429393531281264, -93.72817913392618 21.23611459576351, -94.53047055255584 20.67647083276321 M-93.17401935722663 21.622672466799017 C-93.57195446261522 21.345090163613005, -93.96988956800382 21.067507860426996, -94.53047055255584 20.67647083276321 M-94.53047055255584 20.67647083276321 C-94.91489700321873 20.369900968377046, -95.29932345388161 20.06333110399088, -95.8235114265865 19.645305144986512 M-94.53047055255584 20.67647083276321 C-94.79689060335632 20.464007931985133, -95.0633106541568 20.25154503120705, -95.8235114265865 19.645305144986512 M-95.8235114265865 19.645305144986512 C-96.20410732186402 19.299658022911053, -96.58470321714151 18.954010900835595, -97.04782859701086 18.533412684464324 M-95.8235114265865 19.645305144986512 C-96.21815883979556 19.286896806108405, -96.61280625300462 18.9284884672303, -97.04782859701086 18.533412684464324 M-97.04782859701086 18.533412684464324 C-97.50140666035043 18.065056094614658, -97.95498472369 17.596699504764988, -98.19839108196044 17.3453624558171 M-97.04782859701086 18.533412684464324 C-97.38293319459476 18.18738967485983, -97.71803779217865 17.841366665255336, -98.19839108196044 17.3453624558171 M-98.19839108196044 17.3453624558171 C-98.56241075660472 16.917764232673665, -98.92643043124899 16.490166009530228, -99.27047097338968 16.08603641227036 M-98.19839108196044 17.3453624558171 C-98.60492247319182 16.867827551385254, -99.0114538644232 16.39029264695341, -99.27047097338968 16.08603641227036 M-99.27047097338968 16.08603641227036 C-99.47744824650017 15.808705722319779, -99.68442551961067 15.5313750323692, -100.25966286506427 14.760609394661614 M-99.27047097338968 16.08603641227036 C-99.53271529487307 15.734652912431777, -99.79495961635646 15.383269412593194, -100.25966286506427 14.760609394661614 M-100.25966286506427 14.760609394661614 C-100.54418121956013 14.323512798280252, -100.82869957405597 13.886416201898887, -101.16190195532036 13.374527866909418 M-100.25966286506427 14.760609394661614 C-100.55239963230731 14.310887109347743, -100.84513639955036 13.861164824033871, -101.16190195532036 13.374527866909418 M-101.16190195532036 13.374527866909418 C-101.34234923275709 13.054125453552297, -101.5227965101938 12.733723040195175, -101.97348075020639 11.933487535324842 M-101.16190195532036 13.374527866909418 C-101.46479550741078 12.83670969387483, -101.76768905950121 12.298891520840245, -101.97348075020639 11.933487535324842 M-101.97348075020639 11.933487535324842 C-102.16647417991213 11.53273254914302, -102.35946760961785 11.1319775629612, -102.69106429837109 10.443409943732586 M-101.97348075020639 11.933487535324842 C-102.22552387568875 11.410114592401776, -102.47756700117111 10.886741649478708, -102.69106429837109 10.443409943732586 M-102.69106429837109 10.443409943732586 C-102.89428090970138 9.941460984820868, -103.09749752103167 9.43951202590915, -103.31170389509381 8.910418140577127 M-102.69106429837109 10.443409943732586 C-102.85863930030129 10.029496449122737, -103.02621430223148 9.615582954512886, -103.31170389509381 8.910418140577127 M-103.31170389509381 8.910418140577127 C-103.51904527333551 8.285938944675463, -103.72638665157722 7.661459748773801, -103.8328491991449 7.340811518003316 M-103.31170389509381 8.910418140577127 C-103.50477034767907 8.328932746352129, -103.69783680026433 7.747447352127129, -103.8328491991449 7.340811518003316 M-103.8328491991449 7.340811518003316 C-103.91839575018918 7.014585442761763, -104.00394230123344 6.688359367520208, -104.25235871268467 5.741039926302918 M-103.8328491991449 7.340811518003316 C-103.9920746529116 6.733615854042739, -104.15130010667828 6.126420190082161, -104.25235871268467 5.741039926302918 M-104.25235871268467 5.741039926302918 C-104.33354042627553 5.324188984775084, -104.4147221398664 4.90733804324725, -104.56850858113748 4.117677170096139 M-104.25235871268467 5.741039926302918 C-104.36253390842118 5.175313581731774, -104.4727091041577 4.60958723716063, -104.56850858113748 4.117677170096139 M-104.56850858113748 4.117677170096139 C-104.62990137693726 3.641526769251898, -104.69129417273702 3.1653763684076566, -104.77999967687991 2.477393995158454 M-104.56850858113748 4.117677170096139 C-104.64913485565604 3.4923557063889, -104.72976113017461 2.8670342426816613, -104.77999967687991 2.477393995158454 M-104.77999967687991 2.477393995158454 C-104.80823914706346 2.037541452559536, -104.83647861724702 1.5976889099606184, -104.88596293763487 0.8269306768952934 M-104.77999967687991 2.477393995158454 C-104.80981083958415 2.0130610729024596, -104.8396220022884 1.5487281506464656, -104.88596293763487 0.8269306768952934 M-104.88596293763487 0.8269306768952934 C-104.88596293763487 0.4764249967751414, -104.88596293763487 0.12591931665498934, -104.88596293763487 -0.8269306768952809 M-104.88596293763487 0.8269306768952934 C-104.88596293763487 0.49247848384534954, -104.88596293763487 0.15802629079540564, -104.88596293763487 -0.8269306768952809 M-104.88596293763487 -0.8269306768952809 C-104.85634965532434 -1.2881814522930986, -104.8267363730138 -1.7494322276909164, -104.77999967687991 -2.4773939951584185 M-104.88596293763487 -0.8269306768952809 C-104.85584357673103 -1.2960640348830696, -104.8257242158272 -1.7651973928708582, -104.77999967687991 -2.4773939951584185 M-104.77999967687991 -2.4773939951584185 C-104.7299646714516 -2.8654556167310243, -104.67992966602328 -3.2535172383036297, -104.56850858113748 -4.117677170096128 M-104.77999967687991 -2.4773939951584185 C-104.70779301866547 -3.0374145774521906, -104.63558636045103 -3.5974351597459626, -104.56850858113748 -4.117677170096128 M-104.56850858113748 -4.117677170096128 C-104.4597588414376 -4.67608409918931, -104.35100910173774 -5.23449102828249, -104.25235871268467 -5.741039926302906 M-104.56850858113748 -4.117677170096128 C-104.464434164542 -4.652077303178134, -104.36035974794653 -5.186477436260142, -104.25235871268467 -5.741039926302906 M-104.25235871268467 -5.741039926302906 C-104.1492552603735 -6.134218075284318, -104.04615180806232 -6.52739622426573, -103.8328491991449 -7.340811518003303 M-104.25235871268467 -5.741039926302906 C-104.14955077977693 -6.133091131720083, -104.0467428468692 -6.52514233713726, -103.8328491991449 -7.340811518003303 M-103.8328491991449 -7.340811518003303 C-103.67197880627484 -7.825327510111617, -103.51110841340478 -8.30984350221993, -103.31170389509383 -8.910418140577093 M-103.8328491991449 -7.340811518003303 C-103.67616813501407 -7.812709919427979, -103.51948707088322 -8.284608320852655, -103.31170389509383 -8.910418140577093 M-103.31170389509383 -8.910418140577093 C-103.12782871575746 -9.364593388522664, -102.9439535364211 -9.818768636468235, -102.69106429837109 -10.443409943732574 M-103.31170389509383 -8.910418140577093 C-103.11377882110969 -9.399296899938891, -102.91585374712555 -9.88817565930069, -102.69106429837109 -10.443409943732574 M-102.69106429837109 -10.443409943732574 C-102.54324346800722 -10.750363060842227, -102.39542263764336 -11.057316177951881, -101.9734807502064 -11.933487535324831 M-102.69106429837109 -10.443409943732574 C-102.4060286043259 -11.03529266120427, -102.12099291028069 -11.627175378675968, -101.9734807502064 -11.933487535324831 M-101.9734807502064 -11.933487535324831 C-101.74398502113208 -12.340980441258825, -101.51448929205773 -12.74847334719282, -101.16190195532036 -13.374527866909409 M-101.9734807502064 -11.933487535324831 C-101.69427219912568 -12.429250590700281, -101.41506364804494 -12.925013646075733, -101.16190195532036 -13.374527866909409 M-101.16190195532036 -13.374527866909409 C-100.85247689124382 -13.8498878575947, -100.54305182716728 -14.32524784827999, -100.25966286506429 -14.760609394661605 M-101.16190195532036 -13.374527866909409 C-100.93357051301078 -13.725306277874171, -100.70523907070121 -14.076084688838932, -100.25966286506429 -14.760609394661605 M-100.25966286506429 -14.760609394661605 C-99.9880494949947 -15.12454656606779, -99.71643612492511 -15.488483737473976, -99.27047097338968 -16.086036412270353 M-100.25966286506429 -14.760609394661605 C-99.97973578433803 -15.135686180953108, -99.69980870361178 -15.510762967244611, -99.27047097338968 -16.086036412270353 M-99.27047097338968 -16.086036412270353 C-99.05303265747378 -16.34145183073585, -98.83559434155787 -16.596867249201345, -98.19839108196045 -17.345362455817092 M-99.27047097338968 -16.086036412270353 C-99.02547435132433 -16.373823385251026, -98.78047772925899 -16.661610358231695, -98.19839108196045 -17.345362455817092 M-98.19839108196045 -17.345362455817092 C-97.90118068916136 -17.652256587809205, -97.60397029636228 -17.95915071980132, -97.04782859701089 -18.5334126844643 M-98.19839108196045 -17.345362455817092 C-97.878771438526 -17.675395978923916, -97.55915179509154 -18.00542950203074, -97.04782859701089 -18.5334126844643 M-97.04782859701089 -18.5334126844643 C-96.56252970877156 -18.9741482944583, -96.07723082053224 -19.414883904452303, -95.82351142658653 -19.645305144986487 M-97.04782859701089 -18.5334126844643 C-96.77108823115414 -18.784740962586568, -96.49434786529737 -19.036069240708834, -95.82351142658653 -19.645305144986487 M-95.82351142658653 -19.645305144986487 C-95.39084676867675 -19.990343695979444, -94.95818211076698 -20.335382246972404, -94.53047055255585 -20.676470832763204 M-95.82351142658653 -19.645305144986487 C-95.46989341032891 -19.927306102781326, -95.1162753940713 -20.20930706057617, -94.53047055255585 -20.676470832763204 M-94.53047055255585 -20.676470832763204 C-94.24696455234074 -20.874232345736317, -93.96345855212563 -21.07199385870943, -93.17401935722665 -21.622672466799 M-94.53047055255585 -20.676470832763204 C-94.09902269744728 -20.977430179410316, -93.66757484233871 -21.278389526057428, -93.17401935722665 -21.622672466799 M-93.17401935722665 -21.622672466799 C-92.72236102181803 -21.896470403962706, -92.27070268640941 -22.170268341126413, -91.75973178951841 -22.480021901620027 M-93.17401935722665 -21.622672466799 C-92.62451652460517 -21.955784313171232, -92.07501369198367 -22.28889615954347, -91.75973178951841 -22.480021901620027 M-91.75973178951841 -22.480021901620027 C-91.28914838333093 -22.725524963204982, -90.81856497714344 -22.971028024789938, -90.29341946041058 -23.244996104497716 M-91.75973178951841 -22.480021901620027 C-91.27737747185748 -22.731665840181055, -90.79502315419653 -22.983309778742083, -90.29341946041058 -23.244996104497716 M-90.29341946041058 -23.244996104497716 C-89.86416216101745 -23.43501557747369, -89.43490486162432 -23.62503505044966, -88.78110776178646 -23.91445163234599 M-90.29341946041058 -23.244996104497716 C-89.83588582197493 -23.447532673980017, -89.37835218353926 -23.65006924346232, -88.78110776178646 -23.91445163234599 M-88.78110776178646 -23.91445163234599 C-88.4075165010676 -24.05193666973029, -88.03392524034874 -24.189421707114583, -87.22901110680553 -24.485637548803172 M-88.78110776178646 -23.91445163234599 C-88.17924320104568 -24.135943354273607, -87.5773786403049 -24.357435076201224, -87.22901110680553 -24.485637548803172 M-87.22901110680553 -24.485637548803172 C-86.72697807571231 -24.634638317206484, -86.22494504461909 -24.7836390856098, -85.64350739354681 -24.956206728419538 M-87.22901110680553 -24.485637548803172 C-86.81262665666317 -24.609218267958845, -86.39624220652081 -24.73279898711452, -85.64350739354681 -24.956206728419538 M-85.64350739354681 -24.956206728419538 C-85.24227759493401 -25.047784811683783, -84.8410477963212 -25.139362894948032, -84.03111179685754 -25.324225501499278 M-85.64350739354681 -24.956206728419538 C-85.23747012793343 -25.048882084655013, -84.83143286232006 -25.141557440890487, -84.03111179685754 -25.324225501499278 M-84.03111179685754 -25.324225501499278 C-83.57514865572547 -25.39794208611054, -83.1191855145934 -25.471658670721805, -82.39844999610233 -25.588181599964017 M-84.03111179685754 -25.324225501499278 C-83.4100067813241 -25.42464094366939, -82.78890176579065 -25.525056385839505, -82.39844999610233 -25.588181599964017 M-82.39844999610233 -25.588181599964017 C-81.81076798506719 -25.644874576777553, -81.22308597403205 -25.701567553591087, -80.75223094882529 -25.746990371586765 M-82.39844999610233 -25.588181599964017 C-81.91284331029951 -25.63502749291593, -81.42723662449669 -25.681873385867842, -80.75223094882529 -25.746990371586765 M-80.75223094882529 -25.746990371586765 C-80.21024396733765 -25.764370839169413, -79.66825698585 -25.78175130675206, -79.0992193222046 -25.799999237060547 M-80.75223094882529 -25.746990371586765 C-80.19228649955359 -25.764946700209155, -79.63234205028189 -25.782903028831548, -79.0992193222046 -25.799999237060547 M-79.0992193222046 -25.799999237060547 C-79.0992193222046 -25.799999237060547, -79.09921932220459 -25.799999237060547, -79.09921932220459 -25.799999237060547 M-79.0992193222046 -25.799999237060547 C-79.0992193222046 -25.799999237060547, -79.09921932220459 -25.799999237060547, -79.09921932220459 -25.799999237060547" stroke="#555555" stroke-width="1.3" fill="none" stroke-dasharray="0 0" style=""></path></g><g class="label" style="" transform="translate(0, -18.299999237060547)"><rect></rect><g><rect class="background" style="stroke: none"></rect><text y="-10.1" style=""><tspan class="text-outer-tspan row" x="0" y="-0.1em" dy="1.1em"><tspan font-style="normal" class="text-inner-tspan" font-weight="normal">New</tspan><tspan font-style="normal" class="text-inner-tspan" font-weight="normal"> endpoint</tspan><tspan font-style="normal" class="text-inner-tspan" font-weight="normal"> or</tspan><tspan font-style="normal" class="text-inner-tspan" font-weight="normal"> piece</tspan><tspan font-style="normal" class="text-inner-tspan" font-weight="normal"> of</tspan></tspan><tspan class="text-outer-tspan row" x="0" y="1em" dy="1.1em"><tspan font-style="normal" class="text-inner-tspan" font-weight="normal">logic</tspan></tspan></text></g></g></g><g class="node default" id="gc9b36cb9-bde8-446a-a089-d74ee0b88460-dark-flowchart-Q1-1" data-look="classic" transform="translate(369.8875503540039, 133.97500038146973)"><polygon points="102.1156234741211,0 204.2312469482422,-102.1156234741211 102.1156234741211,-204.2312469482422 0,-102.1156234741211" class="label-container" transform="translate(-101.6156234741211, 102.1156234741211)"></polygon><g class="label" style="" transform="translate(0, -27.099998474121094)"><rect></rect><g><rect class="background" style="stroke: none"></rect><text y="-10.1" style=""><tspan class="text-outer-tspan row" x="0" y="-0.1em" dy="1.1em"><tspan font-style="normal" class="text-inner-tspan" font-weight="normal">Per-request</tspan><tspan font-style="normal" class="text-inner-tspan" font-weight="normal"> data</tspan></tspan><tspan class="text-outer-tspan row" x="0" y="1em" dy="1.1em"><tspan font-style="normal" class="text-inner-tspan" font-weight="normal">fits</tspan><tspan font-style="normal" class="text-inner-tspan" font-weight="normal"> &lt;</tspan><tspan font-style="normal" class="text-inner-tspan" font-weight="normal"> 128</tspan><tspan font-style="normal" class="text-inner-tspan" font-weight="normal"> MB</tspan><tspan font-style="normal" class="text-inner-tspan" font-weight="normal"> +</tspan></tspan><tspan class="text-outer-tspan row" x="0" y="2.1em" dy="1.1em"><tspan font-style="normal" class="text-inner-tspan" font-weight="normal">&lt;</tspan><tspan font-style="normal" class="text-inner-tspan" font-weight="normal"> 30</tspan><tspan font-style="normal" class="text-inner-tspan" font-weight="normal"> ms</tspan><tspan font-style="normal" class="text-inner-tspan" font-weight="normal"> CPU?</tspan></tspan></text></g></g></g><g class="node default origin" id="gc9b36cb9-bde8-446a-a089-d74ee0b88460-dark-flowchart-ORIGIN-3" data-look="classic" transform="translate(942.4062957763672, 41.29999923706055)"><rect class="basic label-container" style="fill:#665719 !important;stroke:#a16207 !important" x="-102.734375" y="-33.29999923706055" width="205.46875" height="66.5999984741211"></rect><g class="label" style="color:#0f172a !important" transform="translate(0, -18.299999237060547)"><rect></rect><g><rect class="background" style="stroke: none"></rect><text y="-10.1" style="fill:#0f172a !important"><tspan class="text-outer-tspan row" x="0" y="-0.1em" dy="1.1em"><tspan font-style="normal" class="text-inner-tspan" font-weight="normal">Origin</tspan><tspan font-style="normal" class="text-inner-tspan" font-weight="normal"> service</tspan></tspan><tspan class="text-outer-tspan row" x="0" y="1em" dy="1.1em"><tspan font-style="normal" class="text-inner-tspan" font-weight="normal">(no</tspan><tspan font-style="normal" class="text-inner-tspan" font-weight="normal"> edge</tspan><tspan font-style="normal" class="text-inner-tspan" font-weight="normal"> constraint)</tspan></tspan></text></g></g></g><g class="node default" id="gc9b36cb9-bde8-446a-a089-d74ee0b88460-dark-flowchart-Q2-5" data-look="classic" transform="translate(655.8375473022461, 210.59531211853027)"><polygon points="106.7406234741211,0 213.4812469482422,-106.7406234741211 106.7406234741211,-213.4812469482422 0,-106.7406234741211" class="label-container" transform="translate(-106.2406234741211, 106.7406234741211)"></polygon><g class="label" style="" transform="translate(0, -27.099998474121094)"><rect></rect><g><rect class="background" style="stroke: none"></rect><text y="-10.1" style=""><tspan class="text-outer-tspan row" x="0" y="-0.1em" dy="1.1em"><tspan font-style="normal" class="text-inner-tspan" font-weight="normal">Needs</tspan><tspan font-style="normal" class="text-inner-tspan" font-weight="normal"> filesystem,</tspan></tspan><tspan class="text-outer-tspan row" x="0" y="1em" dy="1.1em"><tspan font-style="normal" class="text-inner-tspan" font-weight="normal">raw</tspan><tspan font-style="normal" class="text-inner-tspan" font-weight="normal"> TCP,</tspan><tspan font-style="normal" class="text-inner-tspan" font-weight="normal"> or</tspan></tspan><tspan class="text-outer-tspan row" x="0" y="2.1em" dy="1.1em"><tspan font-style="normal" class="text-inner-tspan" font-weight="normal">large</tspan><tspan font-style="normal" class="text-inner-tspan" font-weight="normal"> native</tspan><tspan font-style="normal" class="text-inner-tspan" font-weight="normal"> deps?</tspan></tspan></text></g></g></g><g class="node default" id="gc9b36cb9-bde8-446a-a089-d74ee0b88460-dark-flowchart-Q3-9" data-look="classic" transform="translate(942.4062957763672, 232.09531211853027)"><polygon points="102.04999923706055,0 204.0999984741211,-102.04999923706055 102.04999923706055,-204.0999984741211 0,-102.04999923706055" class="label-container" transform="translate(-101.54999923706055, 102.04999923706055)"></polygon><g class="label" style="" transform="translate(0, -18.299999237060547)"><rect></rect><g><rect class="background" style="stroke: none"></rect><text y="-10.1" style=""><tspan class="text-outer-tspan row" x="0" y="-0.1em" dy="1.1em"><tspan font-style="normal" class="text-inner-tspan" font-weight="normal">Stateful</tspan><tspan font-style="normal" class="text-inner-tspan" font-weight="normal"> with</tspan></tspan><tspan class="text-outer-tspan row" x="0" y="1em" dy="1.1em"><tspan font-style="normal" class="text-inner-tspan" font-weight="normal">strong</tspan><tspan font-style="normal" class="text-inner-tspan" font-weight="normal"> consistency?</tspan></tspan></text></g></g></g><g class="node default bff" id="gc9b36cb9-bde8-446a-a089-d74ee0b88460-dark-flowchart-BFF-11" data-look="classic" transform="translate(1495.7156677246094, 173.79531288146973)"><rect class="basic label-container" style="fill:#192b66 !important;stroke:#4338ca !important" x="-85.078125" y="-33.29999923706055" width="170.15625" height="66.5999984741211"></rect><g class="label" style="color:#0f172a !important" transform="translate(0, -18.299999237060547)"><rect></rect><g><rect class="background" style="stroke: none"></rect><text y="-10.1" style="fill:#0f172a !important"><tspan class="text-outer-tspan row" x="0" y="-0.1em" dy="1.1em"><tspan font-style="normal" class="text-inner-tspan" font-weight="normal">BFF</tspan><tspan font-style="normal" class="text-inner-tspan" font-weight="normal"> in</tspan><tspan font-style="normal" class="text-inner-tspan" font-weight="normal"> VPC</tspan></tspan><tspan class="text-outer-tspan row" x="0" y="1em" dy="1.1em"><tspan font-style="normal" class="text-inner-tspan" font-weight="normal">near</tspan><tspan font-style="normal" class="text-inner-tspan" font-weight="normal"> data</tspan><tspan font-style="normal" class="text-inner-tspan" font-weight="normal"> store</tspan></tspan></text></g></g></g><g class="node default" id="gc9b36cb9-bde8-446a-a089-d74ee0b88460-dark-flowchart-Q4-13" data-look="classic" transform="translate(1217.3109817504883, 305.7664051055908)"><polygon points="100.8421859741211,0 201.6843719482422,-100.8421859741211 100.8421859741211,-201.6843719482422 0,-100.8421859741211" class="label-container" transform="translate(-100.3421859741211, 100.8421859741211)"></polygon><g class="label" style="" transform="translate(0, -27.099998474121094)"><rect></rect><g><rect class="background" style="stroke: none"></rect><text y="-10.1" style=""><tspan class="text-outer-tspan row" x="0" y="-0.1em" dy="1.1em"><tspan font-style="normal" class="text-inner-tspan" font-weight="normal">Needs</tspan><tspan font-style="normal" class="text-inner-tspan" font-weight="normal"> low</tspan></tspan><tspan class="text-outer-tspan row" x="0" y="1em" dy="1.1em"><tspan font-style="normal" class="text-inner-tspan" font-weight="normal">per-user</tspan><tspan font-style="normal" class="text-inner-tspan" font-weight="normal"> latency</tspan></tspan><tspan class="text-outer-tspan row" x="0" y="2.1em" dy="1.1em"><tspan font-style="normal" class="text-inner-tspan" font-weight="normal">worldwide?</tspan></tspan></text></g></g></g><g class="node default edge" id="gc9b36cb9-bde8-446a-a089-d74ee0b88460-dark-flowchart-EDGE-15" data-look="classic" transform="translate(1495.7156677246094, 327.2664051055908)"><rect class="basic label-container" style="fill:#194c66 !important;stroke:#0369a1 !important" x="-100.46875" y="-33.29999923706055" width="200.9375" height="66.5999984741211"></rect><g class="label" style="color:#0f172a !important" transform="translate(0, -18.299999237060547)"><rect></rect><g><rect class="background" style="stroke: none"></rect><text y="-10.1" style="fill:#0f172a !important"><tspan class="text-outer-tspan row" x="0" y="-0.1em" dy="1.1em"><tspan font-style="normal" class="text-inner-tspan" font-weight="normal">Edge</tspan><tspan font-style="normal" class="text-inner-tspan" font-weight="normal"> worker</tspan></tspan><tspan class="text-outer-tspan row" x="0" y="1em" dy="1.1em"><tspan font-style="normal" class="text-inner-tspan" font-weight="normal">(V8</tspan><tspan font-style="normal" class="text-inner-tspan" font-weight="normal"> isolate</tspan><tspan font-style="normal" class="text-inner-tspan" font-weight="normal"> /</tspan><tspan font-style="normal" class="text-inner-tspan" font-weight="normal"> WASM)</tspan></tspan></text></g></g></g></g></g></g><defs><filter id="gc9b36cb9-bde8-446a-a089-d74ee0b88460-dark-drop-shadow" height="130%" width="130%"><feDropShadow dx="4" dy="4" stdDeviation="0" flood-opacity="0.06" flood-color="#000000"></feDropShadow></filter></defs><defs><filter id="gc9b36cb9-bde8-446a-a089-d74ee0b88460-dark-drop-shadow-small" height="150%" width="150%"><feDropShadow dx="2" dy="2" stdDeviation="0" flood-opacity="0.06" flood-color="#000000"></feDropShadow></filter></defs><linearGradient id="gc9b36cb9-bde8-446a-a089-d74ee0b88460-dark-gradient" gradientUnits="objectBoundingBox" x1="0%" y1="0%" x2="100%" y2="0%"><stop offset="0%" stop-color="#555555" stop-opacity="1"></stop><stop offset="100%" stop-color="#555555" stop-opacity="1"></stop></linearGradient></svg>