<svg id="g422192eb-d3d6-4f36-ae2f-5e45d1c09dd3-dark" width="100%" xmlns="http://www.w3.org/2000/svg" xmlns:xlink="http://www.w3.org/1999/xlink" class="flowchart" style="max-width: 856.1038818359375px;" viewBox="0 0 856.1038818359375 1121.4593505859375" role="graphics-document document" aria-roledescription="flowchart-v2"><style>#g422192eb-d3d6-4f36-ae2f-5e45d1c09dd3-dark{font-family:"trebuchet ms",verdana,arial,sans-serif;font-size:16px;fill:#e5e5e5;}@keyframes edge-animation-frame{from{stroke-dashoffset:0;}}@keyframes dash{to{stroke-dashoffset:0;}}#g422192eb-d3d6-4f36-ae2f-5e45d1c09dd3-dark .edge-animation-slow{stroke-dasharray:9,5!important;stroke-dashoffset:900;animation:dash 50s linear infinite;stroke-linecap:round;}#g422192eb-d3d6-4f36-ae2f-5e45d1c09dd3-dark .edge-animation-fast{stroke-dasharray:9,5!important;stroke-dashoffset:900;animation:dash 20s linear infinite;stroke-linecap:round;}#g422192eb-d3d6-4f36-ae2f-5e45d1c09dd3-dark .error-icon{fill:#252525;}#g422192eb-d3d6-4f36-ae2f-5e45d1c09dd3-dark .error-text{fill:#cccccc;stroke:#cccccc;}#g422192eb-d3d6-4f36-ae2f-5e45d1c09dd3-dark .edge-thickness-normal{stroke-width:1px;}#g422192eb-d3d6-4f36-ae2f-5e45d1c09dd3-dark .edge-thickness-thick{stroke-width:3.5px;}#g422192eb-d3d6-4f36-ae2f-5e45d1c09dd3-dark .edge-pattern-solid{stroke-dasharray:0;}#g422192eb-d3d6-4f36-ae2f-5e45d1c09dd3-dark .edge-thickness-invisible{stroke-width:0;fill:none;}#g422192eb-d3d6-4f36-ae2f-5e45d1c09dd3-dark .edge-pattern-dashed{stroke-dasharray:3;}#g422192eb-d3d6-4f36-ae2f-5e45d1c09dd3-dark .edge-pattern-dotted{stroke-dasharray:2;}#g422192eb-d3d6-4f36-ae2f-5e45d1c09dd3-dark .marker{fill:#cccccc;stroke:#cccccc;}#g422192eb-d3d6-4f36-ae2f-5e45d1c09dd3-dark .marker.cross{stroke:#cccccc;}#g422192eb-d3d6-4f36-ae2f-5e45d1c09dd3-dark svg{font-family:"trebuchet ms",verdana,arial,sans-serif;font-size:16px;}#g422192eb-d3d6-4f36-ae2f-5e45d1c09dd3-dark p{margin:0;}#g422192eb-d3d6-4f36-ae2f-5e45d1c09dd3-dark .label{font-family:"trebuchet ms",verdana,arial,sans-serif;color:#e5e5e5;}#g422192eb-d3d6-4f36-ae2f-5e45d1c09dd3-dark .cluster-label text{fill:#e5e5e5;}#g422192eb-d3d6-4f36-ae2f-5e45d1c09dd3-dark .cluster-label span{color:#e5e5e5;}#g422192eb-d3d6-4f36-ae2f-5e45d1c09dd3-dark .cluster-label span p{background-color:transparent;}#g422192eb-d3d6-4f36-ae2f-5e45d1c09dd3-dark .label text,#g422192eb-d3d6-4f36-ae2f-5e45d1c09dd3-dark span{fill:#e5e5e5;color:#e5e5e5;}#g422192eb-d3d6-4f36-ae2f-5e45d1c09dd3-dark .node rect,#g422192eb-d3d6-4f36-ae2f-5e45d1c09dd3-dark .node circle,#g422192eb-d3d6-4f36-ae2f-5e45d1c09dd3-dark .node ellipse,#g422192eb-d3d6-4f36-ae2f-5e45d1c09dd3-dark .node polygon,#g422192eb-d3d6-4f36-ae2f-5e45d1c09dd3-dark .node path{fill:#2d2d2d;stroke:#555555;stroke-width:1px;}#g422192eb-d3d6-4f36-ae2f-5e45d1c09dd3-dark .rough-node .label text,#g422192eb-d3d6-4f36-ae2f-5e45d1c09dd3-dark .node .label text,#g422192eb-d3d6-4f36-ae2f-5e45d1c09dd3-dark .image-shape .label,#g422192eb-d3d6-4f36-ae2f-5e45d1c09dd3-dark .icon-shape .label{text-anchor:middle;}#g422192eb-d3d6-4f36-ae2f-5e45d1c09dd3-dark .node .katex path{fill:#000;stroke:#000;stroke-width:1px;}#g422192eb-d3d6-4f36-ae2f-5e45d1c09dd3-dark .rough-node .label,#g422192eb-d3d6-4f36-ae2f-5e45d1c09dd3-dark .node .label,#g422192eb-d3d6-4f36-ae2f-5e45d1c09dd3-dark .image-shape .label,#g422192eb-d3d6-4f36-ae2f-5e45d1c09dd3-dark .icon-shape .label{text-align:center;}#g422192eb-d3d6-4f36-ae2f-5e45d1c09dd3-dark .node.clickable{cursor:pointer;}#g422192eb-d3d6-4f36-ae2f-5e45d1c09dd3-dark .root .anchor path{fill:#cccccc!important;stroke-width:0;stroke:#cccccc;}#g422192eb-d3d6-4f36-ae2f-5e45d1c09dd3-dark .arrowheadPath{fill:#cccccc;}#g422192eb-d3d6-4f36-ae2f-5e45d1c09dd3-dark .edgePath .path{stroke:#cccccc;stroke-width:1px;}#g422192eb-d3d6-4f36-ae2f-5e45d1c09dd3-dark .flowchart-link{stroke:#cccccc;fill:none;}#g422192eb-d3d6-4f36-ae2f-5e45d1c09dd3-dark .edgeLabel{background-color:#1e1e1e;text-align:center;}#g422192eb-d3d6-4f36-ae2f-5e45d1c09dd3-dark .edgeLabel p{background-color:#1e1e1e;}#g422192eb-d3d6-4f36-ae2f-5e45d1c09dd3-dark .edgeLabel rect{opacity:0.5;background-color:#1e1e1e;fill:#1e1e1e;}#g422192eb-d3d6-4f36-ae2f-5e45d1c09dd3-dark .labelBkg{background-color:rgba(30, 30, 30, 0.5);}#g422192eb-d3d6-4f36-ae2f-5e45d1c09dd3-dark .cluster rect{fill:#1e1e1e;stroke:#555555;stroke-width:1px;}#g422192eb-d3d6-4f36-ae2f-5e45d1c09dd3-dark .cluster text{fill:#e5e5e5;}#g422192eb-d3d6-4f36-ae2f-5e45d1c09dd3-dark .cluster span{color:#e5e5e5;}#g422192eb-d3d6-4f36-ae2f-5e45d1c09dd3-dark div.mermaidTooltip{position:absolute;text-align:center;max-width:200px;padding:2px;font-family:"trebuchet ms",verdana,arial,sans-serif;font-size:12px;background:#252525;border:1px solid #555555;border-radius:2px;pointer-events:none;z-index:100;}#g422192eb-d3d6-4f36-ae2f-5e45d1c09dd3-dark .flowchartTitleText{text-anchor:middle;font-size:18px;fill:#e5e5e5;}#g422192eb-d3d6-4f36-ae2f-5e45d1c09dd3-dark rect.text{fill:none;stroke-width:0;}#g422192eb-d3d6-4f36-ae2f-5e45d1c09dd3-dark .icon-shape,#g422192eb-d3d6-4f36-ae2f-5e45d1c09dd3-dark .image-shape{background-color:#1e1e1e;text-align:center;}#g422192eb-d3d6-4f36-ae2f-5e45d1c09dd3-dark .icon-shape p,#g422192eb-d3d6-4f36-ae2f-5e45d1c09dd3-dark .image-shape p{background-color:#1e1e1e;padding:2px;}#g422192eb-d3d6-4f36-ae2f-5e45d1c09dd3-dark .icon-shape .label rect,#g422192eb-d3d6-4f36-ae2f-5e45d1c09dd3-dark .image-shape .label rect{opacity:0.5;background-color:#1e1e1e;fill:#1e1e1e;}#g422192eb-d3d6-4f36-ae2f-5e45d1c09dd3-dark .label-icon{display:inline-block;height:1em;overflow:visible;vertical-align:-0.125em;}#g422192eb-d3d6-4f36-ae2f-5e45d1c09dd3-dark .node .label-icon path{fill:currentColor;stroke:revert;stroke-width:revert;}#g422192eb-d3d6-4f36-ae2f-5e45d1c09dd3-dark .node .neo-node{stroke:#555555;}#g422192eb-d3d6-4f36-ae2f-5e45d1c09dd3-dark [data-look="neo"].node rect,#g422192eb-d3d6-4f36-ae2f-5e45d1c09dd3-dark [data-look="neo"].cluster rect,#g422192eb-d3d6-4f36-ae2f-5e45d1c09dd3-dark [data-look="neo"].node polygon{stroke:url(#g422192eb-d3d6-4f36-ae2f-5e45d1c09dd3-dark-gradient);filter:drop-shadow( 1px 2px 2px rgba(185,185,185,1));}#g422192eb-d3d6-4f36-ae2f-5e45d1c09dd3-dark [data-look="neo"].node path{stroke:url(#g422192eb-d3d6-4f36-ae2f-5e45d1c09dd3-dark-gradient);stroke-width:1px;}#g422192eb-d3d6-4f36-ae2f-5e45d1c09dd3-dark [data-look="neo"].node .outer-path{filter:drop-shadow( 1px 2px 2px rgba(185,185,185,1));}#g422192eb-d3d6-4f36-ae2f-5e45d1c09dd3-dark [data-look="neo"].node .neo-line path{stroke:#555555;filter:none;}#g422192eb-d3d6-4f36-ae2f-5e45d1c09dd3-dark [data-look="neo"].node circle{stroke:url(#g422192eb-d3d6-4f36-ae2f-5e45d1c09dd3-dark-gradient);filter:drop-shadow( 1px 2px 2px rgba(185,185,185,1));}#g422192eb-d3d6-4f36-ae2f-5e45d1c09dd3-dark [data-look="neo"].node circle .state-start{fill:#000000;}#g422192eb-d3d6-4f36-ae2f-5e45d1c09dd3-dark [data-look="neo"].icon-shape .icon{fill:url(#g422192eb-d3d6-4f36-ae2f-5e45d1c09dd3-dark-gradient);filter:drop-shadow( 1px 2px 2px rgba(185,185,185,1));}#g422192eb-d3d6-4f36-ae2f-5e45d1c09dd3-dark [data-look="neo"].icon-shape .icon-neo path{stroke:url(#g422192eb-d3d6-4f36-ae2f-5e45d1c09dd3-dark-gradient);filter:drop-shadow( 1px 2px 2px rgba(185,185,185,1));}#g422192eb-d3d6-4f36-ae2f-5e45d1c09dd3-dark :root{--mermaid-font-family:"trebuchet ms",verdana,arial,sans-serif;}</style><g><marker id="g422192eb-d3d6-4f36-ae2f-5e45d1c09dd3-dark_flowchart-v2-pointEnd" class="marker flowchart-v2" viewBox="0 0 10 10" refX="5" refY="5" markerUnits="userSpaceOnUse" markerWidth="8" markerHeight="8" orient="auto"><path d="M 0 0 L 10 5 L 0 10 z" class="arrowMarkerPath" style="stroke-width: 1; stroke-dasharray: 1, 0;"></path></marker><marker id="g422192eb-d3d6-4f36-ae2f-5e45d1c09dd3-dark_flowchart-v2-pointStart" class="marker flowchart-v2" viewBox="0 0 10 10" refX="4.5" refY="5" markerUnits="userSpaceOnUse" markerWidth="8" markerHeight="8" orient="auto"><path d="M 0 5 L 10 10 L 10 0 z" class="arrowMarkerPath" style="stroke-width: 1; stroke-dasharray: 1, 0;"></path></marker><marker id="g422192eb-d3d6-4f36-ae2f-5e45d1c09dd3-dark_flowchart-v2-pointEnd-margin" class="marker flowchart-v2" viewBox="0 0 11.5 14" refX="11.5" refY="7" markerUnits="userSpaceOnUse" markerWidth="10.5" markerHeight="14" orient="auto"><path d="M 0 0 L 11.5 7 L 0 14 z" class="arrowMarkerPath" style="stroke-width: 0; stroke-dasharray: 1, 0;"></path></marker><marker id="g422192eb-d3d6-4f36-ae2f-5e45d1c09dd3-dark_flowchart-v2-pointStart-margin" class="marker flowchart-v2" viewBox="0 0 11.5 14" refX="1" refY="7" markerUnits="userSpaceOnUse" markerWidth="11.5" markerHeight="14" orient="auto"><polygon points="0,7 11.5,14 11.5,0" class="arrowMarkerPath" style="stroke-width: 0; stroke-dasharray: 1, 0;"></polygon></marker><marker id="g422192eb-d3d6-4f36-ae2f-5e45d1c09dd3-dark_flowchart-v2-circleEnd" class="marker flowchart-v2" viewBox="0 0 10 10" refX="11" refY="5" markerUnits="userSpaceOnUse" markerWidth="11" markerHeight="11" orient="auto"><circle cx="5" cy="5" r="5" class="arrowMarkerPath" style="stroke-width: 1; stroke-dasharray: 1, 0;"></circle></marker><marker id="g422192eb-d3d6-4f36-ae2f-5e45d1c09dd3-dark_flowchart-v2-circleStart" class="marker flowchart-v2" viewBox="0 0 10 10" refX="-1" refY="5" markerUnits="userSpaceOnUse" markerWidth="11" markerHeight="11" orient="auto"><circle cx="5" cy="5" r="5" class="arrowMarkerPath" style="stroke-width: 1; stroke-dasharray: 1, 0;"></circle></marker><marker id="g422192eb-d3d6-4f36-ae2f-5e45d1c09dd3-dark_flowchart-v2-circleEnd-margin" class="marker flowchart-v2" viewBox="0 0 10 10" refY="5" refX="12.25" markerUnits="userSpaceOnUse" markerWidth="14" markerHeight="14" orient="auto"><circle cx="5" cy="5" r="5" class="arrowMarkerPath" style="stroke-width: 0; stroke-dasharray: 1, 0;"></circle></marker><marker id="g422192eb-d3d6-4f36-ae2f-5e45d1c09dd3-dark_flowchart-v2-circleStart-margin" class="marker flowchart-v2" viewBox="0 0 10 10" refX="-2" refY="5" markerUnits="userSpaceOnUse" markerWidth="14" markerHeight="14" orient="auto"><circle cx="5" cy="5" r="5" class="arrowMarkerPath" style="stroke-width: 0; stroke-dasharray: 1, 0;"></circle></marker><marker id="g422192eb-d3d6-4f36-ae2f-5e45d1c09dd3-dark_flowchart-v2-crossEnd" class="marker cross flowchart-v2" viewBox="0 0 11 11" refX="12" refY="5.2" markerUnits="userSpaceOnUse" markerWidth="11" markerHeight="11" orient="auto"><path d="M 1,1 l 9,9 M 10,1 l -9,9" class="arrowMarkerPath" style="stroke-width: 2; stroke-dasharray: 1, 0;"></path></marker><marker id="g422192eb-d3d6-4f36-ae2f-5e45d1c09dd3-dark_flowchart-v2-crossStart" class="marker cross flowchart-v2" viewBox="0 0 11 11" refX="-1" refY="5.2" markerUnits="userSpaceOnUse" markerWidth="11" markerHeight="11" orient="auto"><path d="M 1,1 l 9,9 M 10,1 l -9,9" class="arrowMarkerPath" style="stroke-width: 2; stroke-dasharray: 1, 0;"></path></marker><marker id="g422192eb-d3d6-4f36-ae2f-5e45d1c09dd3-dark_flowchart-v2-crossEnd-margin" class="marker cross flowchart-v2" viewBox="0 0 15 15" refX="17.7" refY="7.5" markerUnits="userSpaceOnUse" markerWidth="12" markerHeight="12" orient="auto"><path d="M 1,1 L 14,14 M 1,14 L 14,1" class="arrowMarkerPath" style="stroke-width: 2.5;"></path></marker><marker id="g422192eb-d3d6-4f36-ae2f-5e45d1c09dd3-dark_flowchart-v2-crossStart-margin" class="marker cross flowchart-v2" viewBox="0 0 15 15" refX="-3.5" refY="7.5" markerUnits="userSpaceOnUse" markerWidth="12" markerHeight="12" orient="auto"><path d="M 1,1 L 14,14 M 1,14 L 14,1" class="arrowMarkerPath" style="stroke-width: 2.5; stroke-dasharray: 1, 0;"></path></marker><g class="root"><g class="clusters"></g><g class="edgePaths"><path d="M174.24,60.1L174.157,64.183C174.073,68.267,173.907,76.433,173.823,84.017C173.74,91.6,173.74,98.6,173.74,102.1L173.74,105.6" id="g422192eb-d3d6-4f36-ae2f-5e45d1c09dd3-dark-L_START_Q1_0" class="edge-thickness-normal edge-pattern-solid edge-thickness-normal edge-pattern-solid flowchart-link" style=";" data-edge="true" data-et="edge" data-id="L_START_Q1_0" data-points="W3sieCI6MTc0LjIzOTg0NTI3NTg3ODksInkiOjYwLjA5OTk5ODQ3NDEyMTExfSx7IngiOjE3My43Mzk4NDUyNzU4Nzg5LCJ5Ijo4NC41OTk5OTg0NzQxMjExfSx7IngiOjE3My43Mzk4NDUyNzU4Nzg5MywieSI6MTA5LjU5OTk5ODQ3NDEyMTA3fV0=" data-look="classic" marker-end="url(#g422192eb-d3d6-4f36-ae2f-5e45d1c09dd3-dark_flowchart-v2-pointEnd)"></path><path d="M143.967,320.496L140.336,331.542C136.705,342.587,129.442,364.678,125.811,400.302C122.18,435.926,122.18,485.083,122.18,534.241C122.18,583.398,122.18,632.555,122.18,676.838C122.18,721.12,122.18,760.528,122.18,780.232L122.18,799.936" id="g422192eb-d3d6-4f36-ae2f-5e45d1c09dd3-dark-L_Q1_BND_0" class="edge-thickness-normal edge-pattern-solid edge-thickness-normal edge-pattern-solid flowchart-link" style=";" data-edge="true" data-et="edge" data-id="L_Q1_BND_0" data-points="W3sieCI6MTQzLjk2NzE4NjQzOTkxMzMyLCJ5IjozMjAuNDk2MDg2NTg2Mzk3Njd9LHsieCI6MTIyLjE3OTY4NzUsInkiOjM4Ni43Njg3NDU0MjIzNjMzfSx7IngiOjEyMi4xNzk2ODc1LCJ5Ijo1MzQuMjQwNjIzNDc0MTIxMX0seyJ4IjoxMjIuMTc5Njg3NSwieSI6NjgxLjcxMjUwMTUyNTg3ODl9LHsieCI6MTIyLjE3OTY4NzUsInkiOjgwMy45MzU5NDM2MDM1MTU2fV0=" data-look="classic" marker-end="url(#g422192eb-d3d6-4f36-ae2f-5e45d1c09dd3-dark_flowchart-v2-pointEnd)"></path><path d="M246.569,277.439L274.505,295.661C302.441,313.882,358.312,350.326,386.247,373.964C414.183,397.602,414.183,408.435,414.183,413.852L414.183,419.269" id="g422192eb-d3d6-4f36-ae2f-5e45d1c09dd3-dark-L_Q1_Q2_0" class="edge-thickness-normal edge-pattern-solid edge-thickness-normal edge-pattern-solid flowchart-link" style=";" data-edge="true" data-et="edge" data-id="L_Q1_Q2_0" data-points="W3sieCI6MjQ2LjU2OTQ1NTcyMjA1NjMsInkiOjI3Ny40MzkxMzQ5NzYxODU4N30seyJ4Ijo0MTQuMTgyODE1NTUxNzU3OCwieSI6Mzg2Ljc2ODc0NTQyMjM2MzN9LHsieCI6NDE0LjE4MjgxNTU1MTc1NzgsInkiOjQyMy4yNjg3NDU0MjIzNjMyfV0=" data-look="classic" marker-end="url(#g422192eb-d3d6-4f36-ae2f-5e45d1c09dd3-dark_flowchart-v2-pointEnd)"></path><path d="M414.183,645.213L414.183,651.296C414.183,657.379,414.183,669.546,414.183,681.046C414.183,692.546,414.183,703.379,414.183,708.796L414.183,714.213" id="g422192eb-d3d6-4f36-ae2f-5e45d1c09dd3-dark-L_Q2_Q3_0" class="edge-thickness-normal edge-pattern-solid edge-thickness-normal edge-pattern-solid flowchart-link" style=";" data-edge="true" data-et="edge" data-id="L_Q2_Q3_0" data-points="W3sieCI6NDE0LjE4MjgxNTU1MTc1NzgsInkiOjY0NS4yMTI1MDE1MjU4Nzg5fSx7IngiOjQxNC4xODI4MTU1NTE3NTc4LCJ5Ijo2ODEuNzEyNTAxNTI1ODc4OX0seyJ4Ijo0MTQuMTgyODE1NTUxNzU3ODcsInkiOjcxOC4yMTI1MDE1MjU4Nzg5fV0=" data-look="classic" marker-end="url(#g422192eb-d3d6-4f36-ae2f-5e45d1c09dd3-dark_flowchart-v2-pointEnd)"></path><path d="M490.23,569.165L531.074,587.923C571.919,606.681,653.607,644.197,694.452,670.957C735.296,697.718,735.296,713.723,735.296,721.726L735.296,729.728" id="g422192eb-d3d6-4f36-ae2f-5e45d1c09dd3-dark-L_Q2_Q4_0" class="edge-thickness-normal edge-pattern-solid edge-thickness-normal edge-pattern-solid flowchart-link" style=";" data-edge="true" data-et="edge" data-id="L_Q2_Q4_0" data-points="W3sieCI6NDkwLjIyOTkxODU4MTU5NzksInkiOjU2OS4xNjUzOTg0OTYwMzg3fSx7IngiOjczNS4yOTYwOTY4MDE3NTc4LCJ5Ijo2ODEuNzEyNTAxNTI1ODc4OX0seyJ4Ijo3MzUuMjk2MDk2ODAxNzU3OSwieSI6NzMzLjcyODEyNjUyNTg3ODh9XQ==" data-look="classic" marker-end="url(#g422192eb-d3d6-4f36-ae2f-5e45d1c09dd3-dark_flowchart-v2-pointEnd)"></path><path d="M361.074,920.751L350.458,935.685C339.842,950.62,318.61,980.49,300.299,1001.112C281.989,1021.734,266.599,1033.108,258.904,1038.795L251.209,1044.482" id="g422192eb-d3d6-4f36-ae2f-5e45d1c09dd3-dark-L_Q3_RES_0" class="edge-thickness-normal edge-pattern-solid edge-thickness-normal edge-pattern-solid flowchart-link" style=";" data-edge="true" data-et="edge" data-id="L_Q3_RES_0" data-points="W3sieCI6MzYxLjA3NDAxNzMyNDA4OTU0LCJ5Ijo5MjAuNzUwNTg0NDAxNzI2M30seyJ4IjoyOTcuMzc4MTI4MDUxNzU3OCwieSI6MTAxMC4zNTkzODI2MjkzOTQ1fSx7IngiOjI0Ny45OTI1NzgzOTg0MTcwNywieSI6MTA0Ni44NTkzODI2MjkzOTQ1fV0=" data-look="classic" marker-end="url(#g422192eb-d3d6-4f36-ae2f-5e45d1c09dd3-dark_flowchart-v2-pointEnd)"></path><path d="M441.531,946.511L444.427,957.153C447.324,967.794,453.117,989.077,457.759,1005.167C462.401,1021.256,465.892,1032.153,467.638,1037.602L469.383,1043.05" id="g422192eb-d3d6-4f36-ae2f-5e45d1c09dd3-dark-L_Q3_TUPLE_0" class="edge-thickness-normal edge-pattern-solid edge-thickness-normal edge-pattern-solid flowchart-link" style=";" data-edge="true" data-et="edge" data-id="L_Q3_TUPLE_0" data-points="W3sieCI6NDQxLjUzMDgzMjg2NTA0OTksInkiOjk0Ni41MTEzNjUzMTYxMDI2fSx7IngiOjQ1OC45MDkzNzgwNTE3NTc4LCJ5IjoxMDEwLjM1OTM4MjYyOTM5NDV9LHsieCI6NDcwLjYwMzY0NDE2Mjc0NjYsInkiOjEwNDYuODU5MzgyNjI5Mzk0NX1d" data-look="classic" marker-end="url(#g422192eb-d3d6-4f36-ae2f-5e45d1c09dd3-dark_flowchart-v2-pointEnd)"></path><path d="M721.843,944.89L720.358,955.802C718.873,966.713,715.903,988.536,716.163,1004.896C716.424,1021.256,719.915,1032.153,721.661,1037.602L723.407,1043.05" id="g422192eb-d3d6-4f36-ae2f-5e45d1c09dd3-dark-L_Q4_THROW_0" class="edge-thickness-normal edge-pattern-solid edge-thickness-normal edge-pattern-solid flowchart-link" style=";" data-edge="true" data-et="edge" data-id="L_Q4_THROW_0" data-points="W3sieCI6NzIxLjg0MjY5NjE0NDY3MTQsInkiOjk0NC44OTAzNTY5NzIzMDh9LHsieCI6NzEyLjkzMjgxNTU1MTc1NzgsInkiOjEwMTAuMzU5MzgyNjI5Mzk0NX0seyJ4Ijo3MjQuNjI3MDgxNjYyNzQ2NiwieSI6MTA0Ni44NTkzODI2MjkzOTQ1fV0=" data-look="classic" marker-end="url(#g422192eb-d3d6-4f36-ae2f-5e45d1c09dd3-dark_flowchart-v2-pointEnd)"></path><path d="M748.749,944.89L750.234,955.802C751.719,966.713,754.689,988.536,685.24,1008.373C615.791,1028.211,473.922,1046.062,402.988,1054.987L332.054,1063.913" id="g422192eb-d3d6-4f36-ae2f-5e45d1c09dd3-dark-L_Q4_RES_0" class="edge-thickness-normal edge-pattern-solid edge-thickness-normal edge-pattern-solid flowchart-link" style=";" data-edge="true" data-et="edge" data-id="L_Q4_RES_0" data-points="W3sieCI6NzQ4Ljc0OTQ5NzQ1ODg0NDMsInkiOjk0NC44OTAzNTY5NzIzMDgzfSx7IngiOjc1Ny42NTkzNzgwNTE3NTc4LCJ5IjoxMDEwLjM1OTM4MjYyOTM5NDV9LHsieCI6MzI4LjA4NTE1OTMwMTc1NzgsInkiOjEwNjQuNDEyMTIzNzY2MjE1Mn1d" data-look="classic" marker-end="url(#g422192eb-d3d6-4f36-ae2f-5e45d1c09dd3-dark_flowchart-v2-pointEnd)"></path><path d="M122.18,888.136L122.18,908.507C122.18,928.877,122.18,969.618,128.714,995.636C135.247,1021.654,148.315,1032.949,154.849,1038.596L161.383,1044.244" id="g422192eb-d3d6-4f36-ae2f-5e45d1c09dd3-dark-L_BND_RES_0" class="edge-thickness-normal edge-pattern-solid edge-thickness-normal edge-pattern-solid flowchart-link" style=";" data-edge="true" data-et="edge" data-id="L_BND_RES_0" data-points="W3sieCI6MTIyLjE3OTY4NzUsInkiOjg4OC4xMzU5NDA1NTE3NTc4fSx7IngiOjEyMi4xNzk2ODc1LCJ5IjoxMDEwLjM1OTM4MjYyOTM5NDV9LHsieCI6MTY0LjQwOTM2OTIyMjUzMzY4LCJ5IjoxMDQ2Ljg1OTM4MjYyOTM5NDV9XQ==" data-look="classic" marker-end="url(#g422192eb-d3d6-4f36-ae2f-5e45d1c09dd3-dark_flowchart-v2-pointEnd)"></path></g><g class="edgeLabels"><g class="edgeLabel"><g class="label" data-id="L_START_Q1_0" transform="translate(0, 0)"><text y="-10.1" text-anchor="middle"><tspan class="text-outer-tspan row" x="0" y="-0.1em" dy="1.1em" text-anchor="middle"></tspan></text></g></g><g><rect class="background" style="stroke: none"></rect></g><g class="edgeLabel" transform="translate(122.1796875, 534.2406234741211)"><g class="label" data-id="L_Q1_BND_0" transform="translate(0, -10.5)"><g><rect class="background" style="" x="-13.328125" y="-1" width="26.65625" height="23"></rect><text y="-10.1" text-anchor="middle" style=""><tspan class="text-outer-tspan row" x="0" y="-0.1em" dy="1.1em" text-anchor="middle"><tspan font-style="normal" class="text-inner-tspan" font-weight="normal">Yes</tspan></tspan></text></g></g></g><g class="edgeLabel" transform="translate(414.1828155517578, 386.7687454223633)"><g class="label" data-id="L_Q1_Q2_0" transform="translate(0, -10.5)"><g><rect class="background" style="" x="-11.3984375" y="-1" width="22.796875" height="23"></rect><text y="-10.1" text-anchor="middle" style=""><tspan class="text-outer-tspan row" x="0" y="-0.1em" dy="1.1em" text-anchor="middle"><tspan font-style="normal" class="text-inner-tspan" font-weight="normal">No</tspan></tspan></text></g></g></g><g class="edgeLabel" transform="translate(414.1828155517578, 681.7125015258789)"><g class="label" data-id="L_Q2_Q3_0" transform="translate(0, -10.5)"><g><rect class="background" style="" x="-13.328125" y="-1" width="26.65625" height="23"></rect><text y="-10.1" text-anchor="middle" style=""><tspan class="text-outer-tspan row" x="0" y="-0.1em" dy="1.1em" text-anchor="middle"><tspan font-style="normal" class="text-inner-tspan" font-weight="normal">Yes</tspan></tspan></text></g></g></g><g class="edgeLabel" transform="translate(735.2960968017578, 681.7125015258789)"><g class="label" data-id="L_Q2_Q4_0" transform="translate(0, -10.5)"><g><rect class="background" style="" x="-11.3984375" y="-1" width="22.796875" height="23"></rect><text y="-10.1" text-anchor="middle" style=""><tspan class="text-outer-tspan row" x="0" y="-0.1em" dy="1.1em" text-anchor="middle"><tspan font-style="normal" class="text-inner-tspan" font-weight="normal">No</tspan></tspan></text></g></g></g><g class="edgeLabel" transform="translate(311.43662, 990.58159)"><g class="label" data-id="L_Q3_RES_0" transform="translate(0, -10.5)"><g><rect class="background" style="" x="-13.328125" y="-1" width="26.65625" height="23"></rect><text y="-10.1" text-anchor="middle" style=""><tspan class="text-outer-tspan row" x="0" y="-0.1em" dy="1.1em" text-anchor="middle"><tspan font-style="normal" class="text-inner-tspan" font-weight="normal">Yes</tspan></tspan></text></g></g></g><g class="edgeLabel" transform="translate(455.25312, 996.92646)"><g class="label" data-id="L_Q3_TUPLE_0" transform="translate(0, -10.5)"><g><rect class="background" style="" x="-11.3984375" y="-1" width="22.796875" height="23"></rect><text y="-10.1" text-anchor="middle" style=""><tspan class="text-outer-tspan row" x="0" y="-0.1em" dy="1.1em" text-anchor="middle"><tspan font-style="normal" class="text-inner-tspan" font-weight="normal">No</tspan></tspan></text></g></g></g><g class="edgeLabel" transform="translate(714.80352, 996.61363)"><g class="label" data-id="L_Q4_THROW_0" transform="translate(0, -10.5)"><g><rect class="background" style="" x="-13.328125" y="-1" width="26.65625" height="23"></rect><text y="-10.1" text-anchor="middle" style=""><tspan class="text-outer-tspan row" x="0" y="-0.1em" dy="1.1em" text-anchor="middle"><tspan font-style="normal" class="text-inner-tspan" font-weight="normal">Yes</tspan></tspan></text></g></g></g><g class="edgeLabel" transform="translate(575.65007, 1033.26137)"><g class="label" data-id="L_Q4_RES_0" transform="translate(0, -10.5)"><g><rect class="background" style="" x="-11.3984375" y="-1" width="22.796875" height="23"></rect><text y="-10.1" text-anchor="middle" style=""><tspan class="text-outer-tspan row" x="0" y="-0.1em" dy="1.1em" text-anchor="middle"><tspan font-style="normal" class="text-inner-tspan" font-weight="normal">No</tspan></tspan></text></g></g></g><g class="edgeLabel"><g class="label" data-id="L_BND_RES_0" transform="translate(0, 0)"><text y="-10.1" text-anchor="middle"><tspan class="text-outer-tspan row" x="0" y="-0.1em" dy="1.1em" text-anchor="middle"></tspan></text></g></g><g><rect class="background" style="stroke: none"></rect></g></g><g class="nodes"><g class="node default" id="g422192eb-d3d6-4f36-ae2f-5e45d1c09dd3-dark-flowchart-START-0" data-look="classic" transform="translate(173.7398452758789, 33.79999923706055)"><g class="basic label-container outer-path"><path d="M-41.67343807220459 -25.799999237060547 C-9.341726554956033 -25.799999237060547, 22.989984962292525 -25.799999237060547, 41.67343807220459 -25.799999237060547 C41.67343807220459 -25.799999237060547, 41.67343807220459 -25.799999237060547, 41.67343807220459 -25.799999237060547 C42.233357220763935 -25.782043719782756, 42.79327636932328 -25.764088202504965, 43.326449698825286 -25.746990371586765 C43.87627207700808 -25.693949668021627, 44.42609445519088 -25.640908964456486, 44.97266874610231 -25.58818159996402 C45.53635340886623 -25.497049435128197, 46.10003807163015 -25.405917270292374, 46.60533054685753 -25.32422550149928 C47.04574694490147 -25.223703332631338, 47.48616334294541 -25.12318116376339, 48.217726143546784 -24.956206728419545 C48.73803458167849 -24.80178191513678, 49.258343019810205 -24.647357101854013, 49.803229856805515 -24.48563754880318 C50.34772928702288 -24.285256725185633, 50.89222871724024 -24.084875901568083, 51.35532651178644 -23.914451632345997 C51.73832462413681 -23.744909729243826, 52.12132273648719 -23.57536782614165, 52.86763821041056 -23.24499610449772 C53.39173701550774 -22.971574093579825, 53.915835820604926 -22.69815208266193, 54.3339505395184 -22.480021901620034 C54.61896404154148 -22.30724504176839, 54.90397754356456 -22.134468181916745, 55.74823810722664 -21.62267246679901 C56.058128562064 -21.406506300446047, 56.36801901690136 -21.190340134093084, 57.10468930255584 -20.67647083276321 C57.61317273436275 -20.2709688272096, 58.12165616616966 -19.86546682165599, 58.397730176586506 -19.64530514498651 C58.64435321655032 -19.421328625379434, 58.89097625651414 -19.197352105772357, 59.62204734701088 -18.533412684464313 C59.9952359892224 -18.14806477202357, 60.36842463143393 -17.76271685958283, 60.77260983196044 -17.345362455817106 C61.00987963182818 -17.066651847858378, 61.247149431695924 -16.78794123989965, 61.84468972338968 -16.086036412270357 C62.20965794696864 -15.59701224196371, 62.57462617054761 -15.107988071657065, 62.83388161506427 -14.76060939466161 C63.1821462313753 -14.22558142186406, 63.530410847686326 -13.69055344906651, 63.73612070532037 -13.374527866909407 C63.92441267312813 -13.040196411437467, 64.1127046409359 -12.705864955965525, 64.5476995002064 -11.93348753532484 C64.78242572715104 -11.446073502737612, 65.01715195409568 -10.958659470150383, 65.26528304837109 -10.443409943732584 C65.49445266718718 -9.87735655456366, 65.72362228600328 -9.311303165394735, 65.88592264509381 -8.910418140577123 C66.0645690996824 -8.372363482803413, 66.243215554271 -7.834308825029703, 66.4070679491449 -7.340811518003323 C66.49481279736237 -7.006202382892347, 66.58255764557984 -6.67159324778137, 66.82657746268467 -5.741039926302914 C66.94783181801918 -5.1184244387772635, 67.0690861733537 -4.495808951251613, 67.14272733113748 -4.117677170096137 C67.2161210960182 -3.548449622919392, 67.28951486089893 -2.979222075742647, 67.35421842687991 -2.4773939951584394 C67.37698799046126 -2.1227396631180264, 67.39975755404261 -1.7680853310776137, 67.46018168763487 -0.8269306768952902 C67.46018168763487 -0.3934317447685017, 67.46018168763487 0.04006718735828685, 67.46018168763487 0.826930676895284 C67.42437398143502 1.384664604418059, 67.38856627523519 1.9423985319408341, 67.35421842687991 2.4773939951584216 C67.2969293927079 2.9217164311972024, 67.23964035853588 3.366038867235983, 67.14272733113748 4.117677170096119 C67.03015827902728 4.695695461204435, 66.91758922691706 5.273713752312751, 66.82657746268467 5.741039926302909 C66.68786421263744 6.270013667435856, 66.5491509625902 6.798987408568804, 66.4070679491449 7.340811518003306 C66.25559577875008 7.797021561419631, 66.10412360835524 8.253231604835957, 65.88592264509383 8.910418140577105 C65.6889397627521 9.396969668366125, 65.49195688041037 9.883521196155147, 65.26528304837109 10.443409943732577 C65.02074614578771 10.951196054198473, 64.77620924320435 11.45898216466437, 64.5476995002064 11.933487535324835 C64.27515743093012 12.417413577202012, 64.00261536165382 12.90133961907919, 63.736120705320374 13.374527866909402 C63.451741424276534 13.811410809122021, 63.167362143232694 14.24829375133464, 62.833881615064286 14.760609394661596 C62.44901382341662 15.276297173292349, 62.064146031768956 15.791984951923101, 61.84468972338968 16.086036412270353 C61.48109022037952 16.513141077903914, 61.117490717369364 16.94024574353747, 60.77260983196045 17.345362455817092 C60.43303062477518 17.69600586720729, 60.09345141758991 18.04664927859749, 59.62204734701088 18.533412684464306 C59.31804779994261 18.809497029724454, 59.01404825287435 19.085581374984603, 58.397730176586535 19.64530514498649 C58.00462439288859 19.958796546501368, 57.61151860919064 20.272287948016245, 57.10468930255585 20.676470832763208 C56.789051522418674 20.896646084447617, 56.4734137422815 21.116821336132027, 55.748238107226655 21.622672466799003 C55.31013077228818 21.88825570784318, 54.87202343734972 22.15383894888736, 54.333950539518405 22.48002190162003 C53.76984136349678 22.77431729742134, 53.20573218747516 23.06861269322265, 52.86763821041057 23.244996104497716 C52.36773253956316 23.466289515807023, 51.86782686871574 23.68758292711633, 51.35532651178645 23.914451632345994 C51.03751336265292 24.031409809059678, 50.719700213519396 24.148367985773362, 49.80322985680553 24.485637548803172 C49.456454830977826 24.58855855620958, 49.10967980515012 24.69147956361599, 48.21772614354681 24.95620672841954 C47.76008043754492 25.060661374397146, 47.30243473154303 25.16511602037475, 46.605330546857545 25.324225501499278 C45.97618385356297 25.42594105976567, 45.3470371602684 25.527656618032058, 44.97266874610233 25.588181599964017 C44.62680372643996 25.621546782447304, 44.28093870677758 25.654911964930587, 43.326449698825286 25.746990371586765 C42.91537853135982 25.760172623825895, 42.50430736389435 25.773354876065024, 41.6734380722046 25.799999237060547 C41.6734380722046 25.799999237060547, 41.67343807220459 25.799999237060547, 41.67343807220459 25.799999237060547 C18.741465392851456 25.799999237060547, -4.190507286501678 25.799999237060547, -41.67343807220458 25.799999237060547 C-42.10875347052731 25.78603951952636, -42.54406886885004 25.77207980199217, -43.32644969882527 25.746990371586765 C-43.681715802774775 25.712718277808758, -44.03698190672428 25.67844618403075, -44.972668746102315 25.588181599964017 C-45.321530314496904 25.531780367047848, -45.670391882891494 25.475379134131682, -46.60533054685753 25.324225501499278 C-47.17490981583045 25.194222750208297, -47.744489084803384 25.064219998917313, -48.217726143546784 24.956206728419545 C-48.60171045472565 24.842242200436438, -48.98569476590452 24.72827767245333, -49.8032298568055 24.485637548803183 C-50.19665549370053 24.34085327763909, -50.590081130595564 24.196069006475, -51.355326511786444 23.914451632345997 C-51.91804012071838 23.665355009977958, -52.48075372965032 23.416258387609922, -52.86763821041056 23.244996104497723 C-53.226434988849256 23.05781205500656, -53.58523176728795 22.8706280055154, -54.3339505395184 22.480021901620038 C-54.676279439973605 22.272500110416168, -55.01860834042881 22.0649783192123, -55.748238107226626 21.622672466799017 C-56.11257640461691 21.36852584249025, -56.4769147020072 21.114379218181483, -57.10468930255584 20.67647083276321 C-57.55916973945964 20.314034778564785, -58.013650176363434 19.95159872436636, -58.397730176586506 19.645305144986512 C-58.83447626814944 19.24866390029741, -59.27122235971237 18.852022655608305, -59.62204734701086 18.533412684464324 C-59.909288001063636 18.236813126258557, -60.19652865511641 17.940213568052787, -60.77260983196044 17.3453624558171 C-61.089782454868164 16.972793445316174, -61.40695507777589 16.600224434815253, -61.84468972338967 16.08603641227036 C-62.077536143572665 15.774043421970413, -62.31038256375566 15.462050431670466, -62.83388161506427 14.760609394661614 C-63.17313344563128 14.239427481038724, -63.51238527619828 13.718245567415835, -63.73612070532036 13.374527866909418 C-64.02842127450508 12.855518607679743, -64.3207218436898 12.336509348450068, -64.54769950020639 11.933487535324842 C-64.76101927978435 11.490524448719128, -64.97433905936231 11.047561362113415, -65.26528304837109 10.443409943732586 C-65.41745500209369 10.067542275993183, -65.56962695581629 9.691674608253782, -65.88592264509381 8.910418140577127 C-66.06472445968909 8.371895563216523, -66.24352627428438 7.8333729858559185, -66.4070679491449 7.340811518003316 C-66.5411288345647 6.82957925954234, -66.6751897199845 6.3183470010813645, -66.82657746268467 5.741039926302918 C-66.91303531608742 5.297097121953588, -66.99949316949017 4.853154317604257, -67.14272733113748 4.117677170096139 C-67.21696268592835 3.5419224177670663, -67.29119804071921 2.966167665437993, -67.35421842687991 2.477393995158454 C-67.39208458576118 1.8875980055693449, -67.42995074464245 1.2978020159802357, -67.46018168763487 0.8269306768952934 C-67.46018168763487 0.451078439676197, -67.46018168763487 0.07522620245710054, -67.46018168763487 -0.8269306768952809 C-67.43729732704433 -1.1833730650162146, -67.41441296645381 -1.5398154531371482, -67.35421842687991 -2.4773939951584185 C-67.2754232548622 -3.0885137894610932, -67.1966280828445 -3.699633583763768, -67.14272733113748 -4.117677170096128 C-67.02904238793683 -4.701425326110231, -66.91535744473616 -5.285173482124334, -66.82657746268467 -5.741039926302906 C-66.66016650951902 -6.375637013686874, -66.49375555635336 -7.010234101070841, -66.4070679491449 -7.340811518003303 C-66.23979000375203 -7.844626037405471, -66.07251205835915 -8.348440556807638, -65.88592264509383 -8.910418140577093 C-65.75197764129634 -9.241264889607386, -65.61803263749884 -9.57211163863768, -65.26528304837109 -10.443409943732574 C-65.01390368697331 -10.965404566331765, -64.76252432557551 -11.487399188930958, -64.5476995002064 -11.933487535324831 C-64.26823114011744 -12.429711907902913, -63.98876278002847 -12.925936280480993, -63.73612070532037 -13.374527866909409 C-63.387476364708036 -13.910139198204016, -63.038832024095704 -14.445750529498625, -62.83388161506428 -14.760609394661605 C-62.49053380544267 -15.22066417992563, -62.147185995821054 -15.680718965189651, -61.84468972338968 -16.086036412270353 C-61.58753260095589 -16.38810780093587, -61.33037547852211 -16.69017918960139, -60.77260983196045 -17.345362455817092 C-60.441965684701486 -17.686779684251313, -60.11132153744253 -18.028196912685537, -59.62204734701089 -18.5334126844643 C-59.319854114694536 -18.807856582459234, -59.01766088237817 -19.08230048045417, -58.397730176586535 -19.645305144986487 C-57.93954237392757 -20.01069772471751, -57.48135457126862 -20.37609030444853, -57.10468930255585 -20.676470832763204 C-56.806971979072074 -20.88414554965027, -56.5092546555883 -21.091820266537336, -55.74823810722666 -21.622672466799 C-55.43364032877137 -21.813383488880355, -55.11904255031608 -22.00409451096171, -54.333950539518405 -22.480021901620027 C-53.87435441027722 -22.719792907859784, -53.41475828103604 -22.95956391409954, -52.867638210410576 -23.244996104497716 C-52.356377544414755 -23.471316035325255, -51.84511687841894 -23.697635966152795, -51.35532651178645 -23.91445163234599 C-51.03546594637614 -24.032163277175638, -50.71560538096583 -24.14987492200529, -49.80322985680553 -24.485637548803172 C-49.2160899422185 -24.6598975934923, -48.628950027631475 -24.834157638181427, -48.21772614354682 -24.956206728419538 C-47.76732557405531 -25.05900771926758, -47.316925004563814 -25.161808710115626, -46.605330546857545 -25.324225501499278 C-45.97476506247111 -25.426170438906514, -45.34419957808466 -25.528115376313746, -44.97266874610233 -25.588181599964017 C-44.54321897134291 -25.62961010324614, -44.1137691965835 -25.67103860652826, -43.326449698825286 -25.746990371586765 C-42.92508938831765 -25.759861215544294, -42.52372907781001 -25.77273205950182, -41.6734380722046 -25.799999237060547 C-41.6734380722046 -25.799999237060547, -41.67343807220459 -25.799999237060547, -41.67343807220459 -25.799999237060547" stroke="none" stroke-width="0" fill="#2d2d2d" style=""></path><path d="M-41.67343807220459 -25.799999237060547 C-23.926373978309826 -25.799999237060547, -6.179309884415062 -25.799999237060547, 41.67343807220459 -25.799999237060547 M-41.67343807220459 -25.799999237060547 C-15.681608939034128 -25.799999237060547, 10.310220194136335 -25.799999237060547, 41.67343807220459 -25.799999237060547 M41.67343807220459 -25.799999237060547 C41.67343807220459 -25.799999237060547, 41.67343807220459 -25.799999237060547, 41.67343807220459 -25.799999237060547 M41.67343807220459 -25.799999237060547 C41.67343807220459 -25.799999237060547, 41.67343807220459 -25.799999237060547, 41.67343807220459 -25.799999237060547 M41.67343807220459 -25.799999237060547 C42.08616520441759 -25.786763881255105, 42.49889233663059 -25.773528525449663, 43.326449698825286 -25.746990371586765 M41.67343807220459 -25.799999237060547 C42.29136608473441 -25.780183488422626, 42.90929409726424 -25.76036773978471, 43.326449698825286 -25.746990371586765 M43.326449698825286 -25.746990371586765 C43.68998124458713 -25.71192092057777, 44.053512790348975 -25.676851469568774, 44.97266874610231 -25.58818159996402 M43.326449698825286 -25.746990371586765 C43.784635349554755 -25.70278975290976, 44.24282100028422 -25.658589134232756, 44.97266874610231 -25.58818159996402 M44.97266874610231 -25.58818159996402 C45.47011751416268 -25.507757940916832, 45.96756628222306 -25.42733428186964, 46.60533054685753 -25.32422550149928 M44.97266874610231 -25.58818159996402 C45.580620155652014 -25.48989273080162, 46.18857156520172 -25.39160386163922, 46.60533054685753 -25.32422550149928 M46.60533054685753 -25.32422550149928 C47.09528458520805 -25.212396689494675, 47.585238623558574 -25.100567877490064, 48.217726143546784 -24.956206728419545 M46.60533054685753 -25.32422550149928 C47.18102356806332 -25.19282732615711, 47.756716589269104 -25.061429150814938, 48.217726143546784 -24.956206728419545 M48.217726143546784 -24.956206728419545 C48.663674912042936 -24.82385147476274, 49.10962368053909 -24.691496221105936, 49.803229856805515 -24.48563754880318 M48.217726143546784 -24.956206728419545 C48.7752472691011 -24.790737384843133, 49.33276839465542 -24.62526804126672, 49.803229856805515 -24.48563754880318 M49.803229856805515 -24.48563754880318 C50.18027897762052 -24.346879986939392, 50.55732809843552 -24.208122425075608, 51.35532651178644 -23.914451632345997 M49.803229856805515 -24.48563754880318 C50.148206528226865 -24.35868294479073, 50.493183199648215 -24.23172834077828, 51.35532651178644 -23.914451632345997 M51.35532651178644 -23.914451632345997 C51.93074126872078 -23.65973258852346, 52.50615602565513 -23.405013544700928, 52.86763821041056 -23.24499610449772 M51.35532651178644 -23.914451632345997 C51.66586203133247 -23.77698676955186, 51.9763975508785 -23.63952190675773, 52.86763821041056 -23.24499610449772 M52.86763821041056 -23.24499610449772 C53.27847068062707 -23.03066506793652, 53.689303150843585 -22.816334031375323, 54.3339505395184 -22.480021901620034 M52.86763821041056 -23.24499610449772 C53.42432149042185 -22.954574793888487, 53.981004770433145 -22.664153483279257, 54.3339505395184 -22.480021901620034 M54.3339505395184 -22.480021901620034 C54.85655582706882 -22.163215505137405, 55.379161114619244 -21.846409108654772, 55.74823810722664 -21.62267246679901 M54.3339505395184 -22.480021901620034 C54.70728079263294 -22.253706908249907, 55.08061104574748 -22.027391914879782, 55.74823810722664 -21.62267246679901 M55.74823810722664 -21.62267246679901 C56.257580860571096 -21.267377011158345, 56.766923613915544 -20.91208155551768, 57.10468930255584 -20.67647083276321 M55.74823810722664 -21.62267246679901 C56.088616831057344 -21.38523900381218, 56.428995554888054 -21.147805540825352, 57.10468930255584 -20.67647083276321 M57.10468930255584 -20.67647083276321 C57.39787502598228 -20.44266302033039, 57.69106074940871 -20.20885520789757, 58.397730176586506 -19.64530514498651 M57.10468930255584 -20.67647083276321 C57.59521578480824 -20.285289016624827, 58.08574226706064 -19.894107200486438, 58.397730176586506 -19.64530514498651 M58.397730176586506 -19.64530514498651 C58.70536117995253 -19.36592280719981, 59.01299218331855 -19.08654046941311, 59.62204734701088 -18.533412684464313 M58.397730176586506 -19.64530514498651 C58.84818687719203 -19.23621228792776, 59.298643577797556 -18.827119430869015, 59.62204734701088 -18.533412684464313 M59.62204734701088 -18.533412684464313 C59.90775390246897 -18.23839720900939, 60.19346045792707 -17.943381733554464, 60.77260983196044 -17.345362455817106 M59.62204734701088 -18.533412684464313 C60.04474639819837 -18.096941209875716, 60.46744544938586 -17.660469735287116, 60.77260983196044 -17.345362455817106 M60.77260983196044 -17.345362455817106 C61.15154373070451 -16.90024513640266, 61.530477629448576 -16.45512781698821, 61.84468972338968 -16.086036412270357 M60.77260983196044 -17.345362455817106 C61.024044513661416 -17.05001297165245, 61.275479195362394 -16.754663487487793, 61.84468972338968 -16.086036412270357 M61.84468972338968 -16.086036412270357 C62.11463075378328 -15.724340023676701, 62.384571784176885 -15.362643635083046, 62.83388161506427 -14.76060939466161 M61.84468972338968 -16.086036412270357 C62.08403858435731 -15.76533074370354, 62.32338744532493 -15.444625075136724, 62.83388161506427 -14.76060939466161 M62.83388161506427 -14.76060939466161 C63.11221601163931 -14.333013018271826, 63.39055040821436 -13.90541664188204, 63.73612070532037 -13.374527866909407 M62.83388161506427 -14.76060939466161 C63.10943808586592 -14.337280658237283, 63.38499455666756 -13.913951921812956, 63.73612070532037 -13.374527866909407 M63.73612070532037 -13.374527866909407 C64.03917887680664 -12.836417395467965, 64.34223704829293 -12.298306924026523, 64.5476995002064 -11.93348753532484 M63.73612070532037 -13.374527866909407 C64.0453422811331 -12.825473646973974, 64.35456385694584 -12.276419427038539, 64.5476995002064 -11.93348753532484 M64.5476995002064 -11.93348753532484 C64.71645672667624 -11.583059543734018, 64.88521395314608 -11.232631552143197, 65.26528304837109 -10.443409943732584 M64.5476995002064 -11.93348753532484 C64.80925573082214 -11.390360426044438, 65.0708119614379 -10.847233316764036, 65.26528304837109 -10.443409943732584 M65.26528304837109 -10.443409943732584 C65.46939238185617 -9.93925594383891, 65.67350171534126 -9.435101943945236, 65.88592264509381 -8.910418140577123 M65.26528304837109 -10.443409943732584 C65.47081568187032 -9.935740365286323, 65.67634831536957 -9.428070786840062, 65.88592264509381 -8.910418140577123 M65.88592264509381 -8.910418140577123 C66.05669578285364 -8.396076658648976, 66.22746892061346 -7.881735176720827, 66.4070679491449 -7.340811518003323 M65.88592264509381 -8.910418140577123 C65.99034207726153 -8.595923447865117, 66.09476150942926 -8.281428755153112, 66.4070679491449 -7.340811518003323 M66.4070679491449 -7.340811518003323 C66.56748602168891 -6.72906788176059, 66.72790409423291 -6.117324245517856, 66.82657746268467 -5.741039926302914 M66.4070679491449 -7.340811518003323 C66.57403945622544 -6.704076795596323, 66.74101096330597 -6.067342073189322, 66.82657746268467 -5.741039926302914 M66.82657746268467 -5.741039926302914 C66.93662392737752 -5.175974588433647, 67.04667039207038 -4.6109092505643785, 67.14272733113748 -4.117677170096137 M66.82657746268467 -5.741039926302914 C66.89695343821617 -5.3796741659163665, 66.96732941374766 -5.018308405529819, 67.14272733113748 -4.117677170096137 M67.14272733113748 -4.117677170096137 C67.2160743226461 -3.5488123879570135, 67.28942131415471 -2.97994760581789, 67.35421842687991 -2.4773939951584394 M67.14272733113748 -4.117677170096137 C67.18986843365228 -3.7520600880549275, 67.2370095361671 -3.386443006013718, 67.35421842687991 -2.4773939951584394 M67.35421842687991 -2.4773939951584394 C67.37754927073104 -2.1139972698588836, 67.40088011458216 -1.7506005445593278, 67.46018168763487 -0.8269306768952902 M67.35421842687991 -2.4773939951584394 C67.37672928585363 -2.126769196204507, 67.39924014482735 -1.7761443972505746, 67.46018168763487 -0.8269306768952902 M67.46018168763487 -0.8269306768952902 C67.46018168763487 -0.29630699620835454, 67.46018168763487 0.23431668447858112, 67.46018168763487 0.826930676895284 M67.46018168763487 -0.8269306768952902 C67.46018168763487 -0.2462482204741877, 67.46018168763487 0.3344342359469148, 67.46018168763487 0.826930676895284 M67.46018168763487 0.826930676895284 C67.43746035652978 1.1808337491854526, 67.4147390254247 1.5347368214756214, 67.35421842687991 2.4773939951584216 M67.46018168763487 0.826930676895284 C67.42996912899306 1.2975156648798427, 67.39975657035126 1.7681006528644012, 67.35421842687991 2.4773939951584216 M67.35421842687991 2.4773939951584216 C67.27129439330179 3.1205364243877542, 67.18837035972366 3.763678853617087, 67.14272733113748 4.117677170096119 M67.35421842687991 2.4773939951584216 C67.28184484430356 3.0387092098402055, 67.20947126172722 3.600024424521989, 67.14272733113748 4.117677170096119 M67.14272733113748 4.117677170096119 C67.0486443241091 4.600773526736208, 66.95456131708075 5.083869883376297, 66.82657746268467 5.741039926302909 M67.14272733113748 4.117677170096119 C67.02118189505455 4.741787295744918, 66.89963645897163 5.365897421393717, 66.82657746268467 5.741039926302909 M66.82657746268467 5.741039926302909 C66.72170170644715 6.1409766382768165, 66.61682595020964 6.540913350250724, 66.4070679491449 7.340811518003306 M66.82657746268467 5.741039926302909 C66.71156190715992 6.17964408757584, 66.59654635163518 6.61824824884877, 66.4070679491449 7.340811518003306 M66.4070679491449 7.340811518003306 C66.2496818469458 7.814833381756998, 66.09229574474672 8.28885524551069, 65.88592264509383 8.910418140577105 M66.4070679491449 7.340811518003306 C66.20349926048803 7.95392797397192, 65.99993057183117 8.567044429940534, 65.88592264509383 8.910418140577105 M65.88592264509383 8.910418140577105 C65.75205045596081 9.241085035978369, 65.61817826682778 9.571751931379632, 65.26528304837109 10.443409943732577 M65.88592264509383 8.910418140577105 C65.68969899771542 9.395094343327884, 65.49347535033704 9.879770546078664, 65.26528304837109 10.443409943732577 M65.26528304837109 10.443409943732577 C64.97836981897595 11.039191403531264, 64.6914565895808 11.63497286332995, 64.5476995002064 11.933487535324835 M65.26528304837109 10.443409943732577 C65.08175011844268 10.824519999704533, 64.89821718851427 11.205630055676487, 64.5476995002064 11.933487535324835 M64.5476995002064 11.933487535324835 C64.2484626869694 12.46481279824021, 63.949225873732395 12.996138061155584, 63.736120705320374 13.374527866909402 M64.5476995002064 11.933487535324835 C64.24104109228887 12.47799059111346, 63.934382684371315 13.022493646902086, 63.736120705320374 13.374527866909402 M63.736120705320374 13.374527866909402 C63.54583687829575 13.666854923581216, 63.35555305127114 13.95918198025303, 62.833881615064286 14.760609394661596 M63.736120705320374 13.374527866909402 C63.45339261705972 13.808874133599698, 63.17066452879907 14.243220400289992, 62.833881615064286 14.760609394661596 M62.833881615064286 14.760609394661596 C62.4446573572588 15.282134441061602, 62.05543309945331 15.80365948746161, 61.84468972338968 16.086036412270353 M62.833881615064286 14.760609394661596 C62.604748916587 15.067626336202899, 62.37561621810972 15.374643277744202, 61.84468972338968 16.086036412270353 M61.84468972338968 16.086036412270353 C61.59545339631831 16.37880358399715, 61.34621706924695 16.671570755723945, 60.77260983196045 17.345362455817092 M61.84468972338968 16.086036412270353 C61.42595016977121 16.577911718906197, 61.00721061615274 17.069787025542045, 60.77260983196045 17.345362455817092 M60.77260983196045 17.345362455817092 C60.5176734250465 17.60860522662401, 60.26273701813255 17.87184799743093, 59.62204734701088 18.533412684464306 M60.77260983196045 17.345362455817092 C60.47830007097646 17.649261447313815, 60.18399030999247 17.953160438810535, 59.62204734701088 18.533412684464306 M59.62204734701088 18.533412684464306 C59.277705384916835 18.846134943649055, 58.9333634228228 19.1588572028338, 58.397730176586535 19.64530514498649 M59.62204734701088 18.533412684464306 C59.15114098786629 18.961077380339916, 58.68023462872171 19.388742076215525, 58.397730176586535 19.64530514498649 M58.397730176586535 19.64530514498649 C58.10511600200056 19.8786571624286, 57.81250182741457 20.11200917987071, 57.10468930255585 20.676470832763208 M58.397730176586535 19.64530514498649 C57.96605100957118 19.989557793216157, 57.534371842555835 20.33381044144582, 57.10468930255585 20.676470832763208 M57.10468930255585 20.676470832763208 C56.74561868522864 20.926942951494166, 56.386548067901444 21.17741507022512, 55.748238107226655 21.622672466799003 M57.10468930255585 20.676470832763208 C56.64277665275119 20.998681101390602, 56.180864002946535 21.320891370017996, 55.748238107226655 21.622672466799003 M55.748238107226655 21.622672466799003 C55.284699700457544 21.90367217303648, 54.82116129368844 22.184671879273957, 54.333950539518405 22.48002190162003 M55.748238107226655 21.622672466799003 C55.444098344538716 21.807043778264067, 55.13995858185078 21.99141508972913, 54.333950539518405 22.48002190162003 M54.333950539518405 22.48002190162003 C53.9582642838902 22.676017180542733, 53.58257802826199 22.872012459465438, 52.86763821041057 23.244996104497716 M54.333950539518405 22.48002190162003 C53.78868916309226 22.764484412444972, 53.24342778666611 23.04894692326991, 52.86763821041057 23.244996104497716 M52.86763821041057 23.244996104497716 C52.307989118430946 23.492736156116628, 51.74834002645133 23.740476207735544, 51.35532651178645 23.914451632345994 M52.86763821041057 23.244996104497716 C52.481720281370855 23.415830523834977, 52.095802352331134 23.586664943172238, 51.35532651178645 23.914451632345994 M51.35532651178645 23.914451632345994 C50.92642449480479 24.072291539322027, 50.49752247782314 24.23013144629806, 49.80322985680553 24.485637548803172 M51.35532651178645 23.914451632345994 C50.77114049843773 24.12943748541463, 50.18695448508901 24.34442333848327, 49.80322985680553 24.485637548803172 M49.80322985680553 24.485637548803172 C49.225332678493096 24.657154397882113, 48.64743550018066 24.828671246961054, 48.21772614354681 24.95620672841954 M49.80322985680553 24.485637548803172 C49.385611959402894 24.6095843486312, 48.96799406200026 24.733531148459225, 48.21772614354681 24.95620672841954 M48.21772614354681 24.95620672841954 C47.673958540642076 25.08031813536732, 47.13019093773734 25.2044295423151, 46.605330546857545 25.324225501499278 M48.21772614354681 24.95620672841954 C47.58208887129828 25.101286787889425, 46.946451599049745 25.246366847359308, 46.605330546857545 25.324225501499278 M46.605330546857545 25.324225501499278 C46.10855846834613 25.404539758627998, 45.61178638983472 25.484854015756717, 44.97266874610233 25.588181599964017 M46.605330546857545 25.324225501499278 C46.22287625203408 25.386057745908982, 45.84042195721061 25.44788999031869, 44.97266874610233 25.588181599964017 M44.97266874610233 25.588181599964017 C44.53910987890421 25.630006502451792, 44.105551011706105 25.67183140493957, 43.326449698825286 25.746990371586765 M44.97266874610233 25.588181599964017 C44.527773872547066 25.631100073351526, 44.08287899899181 25.674018546739035, 43.326449698825286 25.746990371586765 M43.326449698825286 25.746990371586765 C42.74967552822385 25.765486396615135, 42.1729013576224 25.783982421643508, 41.6734380722046 25.799999237060547 M43.326449698825286 25.746990371586765 C42.89836142649647 25.760718329257077, 42.47027315416765 25.77444628692739, 41.6734380722046 25.799999237060547 M41.6734380722046 25.799999237060547 C41.6734380722046 25.799999237060547, 41.67343807220459 25.799999237060547, 41.67343807220459 25.799999237060547 M41.6734380722046 25.799999237060547 C41.6734380722046 25.799999237060547, 41.67343807220459 25.799999237060547, 41.67343807220459 25.799999237060547 M41.67343807220459 25.799999237060547 C22.741020063946426 25.799999237060547, 3.8086020556882616 25.799999237060547, -41.67343807220458 25.799999237060547 M41.67343807220459 25.799999237060547 C13.327577290244864 25.799999237060547, -15.018283491714861 25.799999237060547, -41.67343807220458 25.799999237060547 M-41.67343807220458 25.799999237060547 C-42.050290928462104 25.787914299459953, -42.427143784719625 25.775829361859362, -43.32644969882527 25.746990371586765 M-41.67343807220458 25.799999237060547 C-42.07605055397967 25.787088238407676, -42.47866303575476 25.774177239754803, -43.32644969882527 25.746990371586765 M-43.32644969882527 25.746990371586765 C-43.75437566982447 25.70570886782075, -44.18230164082367 25.664427364054735, -44.972668746102315 25.588181599964017 M-43.32644969882527 25.746990371586765 C-43.76618815313232 25.70456933176263, -44.205926607439366 25.662148291938497, -44.972668746102315 25.588181599964017 M-44.972668746102315 25.588181599964017 C-45.49137574833667 25.504321074475648, -46.01008275057103 25.420460548987275, -46.60533054685753 25.324225501499278 M-44.972668746102315 25.588181599964017 C-45.467121720477465 25.508242277607128, -45.96157469485261 25.42830295525024, -46.60533054685753 25.324225501499278 M-46.60533054685753 25.324225501499278 C-47.17886769674243 25.193319389717725, -47.752404846627336 25.06241327793617, -48.217726143546784 24.956206728419545 M-46.60533054685753 25.324225501499278 C-47.234244523694095 25.180679990333577, -47.86315850053065 25.03713447916787, -48.217726143546784 24.956206728419545 M-48.217726143546784 24.956206728419545 C-48.73130969139076 24.80377782727451, -49.24489323923474 24.651348926129472, -49.8032298568055 24.485637548803183 M-48.217726143546784 24.956206728419545 C-48.54641565222735 24.85865340756959, -48.87510516090792 24.761100086719637, -49.8032298568055 24.485637548803183 M-49.8032298568055 24.485637548803183 C-50.3573575035386 24.281713452505585, -50.91148515027171 24.07778935620799, -51.355326511786444 23.914451632345997 M-49.8032298568055 24.485637548803183 C-50.32242848538044 24.294567654068093, -50.84162711395539 24.103497759333006, -51.355326511786444 23.914451632345997 M-51.355326511786444 23.914451632345997 C-51.82108309511312 23.708275009085433, -52.28683967843979 23.502098385824873, -52.86763821041056 23.244996104497723 M-51.355326511786444 23.914451632345997 C-51.83887287339441 23.70040000195533, -52.32241923500237 23.486348371564663, -52.86763821041056 23.244996104497723 M-52.86763821041056 23.244996104497723 C-53.311399263177236 23.013486247511867, -53.75516031594392 22.78197639052601, -54.3339505395184 22.480021901620038 M-52.86763821041056 23.244996104497723 C-53.371721019745934 22.98201642574791, -53.8758038290813 22.719036746998096, -54.3339505395184 22.480021901620038 M-54.3339505395184 22.480021901620038 C-54.70937392643702 22.25243803823726, -55.084797313355644 22.02485417485448, -55.748238107226626 21.622672466799017 M-54.3339505395184 22.480021901620038 C-54.858010170174495 22.16233387380008, -55.382069800830585 21.844645845980118, -55.748238107226626 21.622672466799017 M-55.748238107226626 21.622672466799017 C-56.019671943488255 21.433331972804297, -56.29110577974989 21.243991478809573, -57.10468930255584 20.67647083276321 M-55.748238107226626 21.622672466799017 C-56.11746953782162 21.36511260458697, -56.48670096841661 21.10755274237492, -57.10468930255584 20.67647083276321 M-57.10468930255584 20.67647083276321 C-57.478465547328796 20.378394224160385, -57.85224179210175 20.080317615557554, -58.397730176586506 19.645305144986512 M-57.10468930255584 20.67647083276321 C-57.49769677586606 20.3630578311664, -57.890704249176274 20.04964482956959, -58.397730176586506 19.645305144986512 M-58.397730176586506 19.645305144986512 C-58.88393163658833 19.203749843198555, -59.370133096590145 18.7621945414106, -59.62204734701086 18.533412684464324 M-58.397730176586506 19.645305144986512 C-58.77207171093637 19.305338068024213, -59.14641324528623 18.965370991061913, -59.62204734701086 18.533412684464324 M-59.62204734701086 18.533412684464324 C-59.898119521193415 18.248345498673807, -60.17419169537597 17.96327831288329, -60.77260983196044 17.3453624558171 M-59.62204734701086 18.533412684464324 C-60.0312679409862 18.110858823549194, -60.44048853496153 17.688304962634064, -60.77260983196044 17.3453624558171 M-60.77260983196044 17.3453624558171 C-61.00532857135818 17.07199778244911, -61.238047310755924 16.79863310908112, -61.84468972338967 16.08603641227036 M-60.77260983196044 17.3453624558171 C-61.077953600550174 16.986688290678966, -61.3832973691399 16.628014125540833, -61.84468972338967 16.08603641227036 M-61.84468972338967 16.08603641227036 C-62.13586485585989 15.69588826136053, -62.42703998833012 15.3057401104507, -62.83388161506427 14.760609394661614 M-61.84468972338967 16.08603641227036 C-62.127533053249685 15.707052117815376, -62.41037638310971 15.328067823360394, -62.83388161506427 14.760609394661614 M-62.83388161506427 14.760609394661614 C-63.17542945924072 14.235900187568639, -63.516977303417164 13.711190980475665, -63.73612070532036 13.374527866909418 M-62.83388161506427 14.760609394661614 C-63.13775943770152 14.293771456469981, -63.441637260338766 13.826933518278347, -63.73612070532036 13.374527866909418 M-63.73612070532036 13.374527866909418 C-63.93573446267612 13.020093427639491, -64.13534822003189 12.665658988369566, -64.54769950020639 11.933487535324842 M-63.73612070532036 13.374527866909418 C-63.93973971825089 13.012981690790383, -64.14335873118142 12.651435514671348, -64.54769950020639 11.933487535324842 M-64.54769950020639 11.933487535324842 C-64.8260869112885 11.355410119676478, -65.1044743223706 10.777332704028113, -65.26528304837109 10.443409943732586 M-64.54769950020639 11.933487535324842 C-64.7170012982003 11.581928729312327, -64.88630309619421 11.230369923299811, -65.26528304837109 10.443409943732586 M-65.26528304837109 10.443409943732586 C-65.45320384681693 9.979241938369867, -65.64112464526278 9.51507393300715, -65.88592264509381 8.910418140577127 M-65.26528304837109 10.443409943732586 C-65.49527101881304 9.875335210226048, -65.72525898925498 9.307260476719511, -65.88592264509381 8.910418140577127 M-65.88592264509381 8.910418140577127 C-66.02346430296906 8.496164581344052, -66.1610059608443 8.081911022110978, -66.4070679491449 7.340811518003316 M-65.88592264509381 8.910418140577127 C-66.04502869681312 8.431216062905303, -66.20413474853243 7.95201398523348, -66.4070679491449 7.340811518003316 M-66.4070679491449 7.340811518003316 C-66.54166698754923 6.827527048975351, -66.67626602595357 6.314242579947385, -66.82657746268467 5.741039926302918 M-66.4070679491449 7.340811518003316 C-66.52706275326474 6.883219323817284, -66.64705755738458 6.425627129631252, -66.82657746268467 5.741039926302918 M-66.82657746268467 5.741039926302918 C-66.90138616649104 5.356913043082408, -66.97619487029739 4.9727861598619, -67.14272733113748 4.117677170096139 M-66.82657746268467 5.741039926302918 C-66.91286125471541 5.297990890311004, -66.99914504674614 4.85494185431909, -67.14272733113748 4.117677170096139 M-67.14272733113748 4.117677170096139 C-67.20165299035159 3.6606613934190158, -67.2605786495657 3.2036456167418916, -67.35421842687991 2.477393995158454 M-67.14272733113748 4.117677170096139 C-67.21942690434318 3.5228104263565774, -67.29612647754888 2.9279436826170153, -67.35421842687991 2.477393995158454 M-67.35421842687991 2.477393995158454 C-67.37898781499341 2.091590781800428, -67.40375720310692 1.705787568442402, -67.46018168763487 0.8269306768952934 M-67.35421842687991 2.477393995158454 C-67.38870612669824 1.9402202325178386, -67.42319382651655 1.4030464698772231, -67.46018168763487 0.8269306768952934 M-67.46018168763487 0.8269306768952934 C-67.46018168763487 0.286454146790592, -67.46018168763487 -0.2540223833141094, -67.46018168763487 -0.8269306768952809 M-67.46018168763487 0.8269306768952934 C-67.46018168763487 0.24403685880787662, -67.46018168763487 -0.3388569592795402, -67.46018168763487 -0.8269306768952809 M-67.46018168763487 -0.8269306768952809 C-67.42627393623845 -1.3550712747388471, -67.39236618484203 -1.8832118725824134, -67.35421842687991 -2.4773939951584185 M-67.46018168763487 -0.8269306768952809 C-67.43347006178594 -1.2429858107288096, -67.406758435937 -1.6590409445623384, -67.35421842687991 -2.4773939951584185 M-67.35421842687991 -2.4773939951584185 C-67.30818184110882 -2.8344446634469476, -67.26214525533771 -3.191495331735476, -67.14272733113748 -4.117677170096128 M-67.35421842687991 -2.4773939951584185 C-67.31124380464195 -2.8106966789370156, -67.268269182404 -3.143999362715612, -67.14272733113748 -4.117677170096128 M-67.14272733113748 -4.117677170096128 C-67.02285025934239 -4.733220597735816, -66.90297318754729 -5.3487640253755036, -66.82657746268467 -5.741039926302906 M-67.14272733113748 -4.117677170096128 C-67.06617363583591 -4.510764215840476, -66.98961994053433 -4.903851261584825, -66.82657746268467 -5.741039926302906 M-66.82657746268467 -5.741039926302906 C-66.68127331298655 -6.295147624318673, -66.53596916328843 -6.849255322334441, -66.4070679491449 -7.340811518003303 M-66.82657746268467 -5.741039926302906 C-66.68472848657201 -6.2819715499555695, -66.54287951045937 -6.822903173608233, -66.4070679491449 -7.340811518003303 M-66.4070679491449 -7.340811518003303 C-66.22786193620313 -7.88055147638331, -66.04865592326134 -8.420291434763318, -65.88592264509383 -8.910418140577093 M-66.4070679491449 -7.340811518003303 C-66.24491375783147 -7.829194106477541, -66.08275956651804 -8.317576694951779, -65.88592264509383 -8.910418140577093 M-65.88592264509383 -8.910418140577093 C-65.68795144807844 -9.399410824717812, -65.48998025106306 -9.88840350885853, -65.26528304837109 -10.443409943732574 M-65.88592264509383 -8.910418140577093 C-65.72191134728654 -9.315529217103839, -65.55790004947924 -9.720640293630582, -65.26528304837109 -10.443409943732574 M-65.26528304837109 -10.443409943732574 C-65.04265070854422 -10.90571076095205, -64.82001836871733 -11.368011578171528, -64.5476995002064 -11.933487535324831 M-65.26528304837109 -10.443409943732574 C-65.07262465990547 -10.843469209610571, -64.87996627143986 -11.243528475488567, -64.5476995002064 -11.933487535324831 M-64.5476995002064 -11.933487535324831 C-64.2982169107676 -12.376469135725046, -64.04873432132877 -12.819450736125258, -63.73612070532037 -13.374527866909409 M-64.5476995002064 -11.933487535324831 C-64.23846986332467 -12.482556068504548, -63.92924022644293 -13.031624601684266, -63.73612070532037 -13.374527866909409 M-63.73612070532037 -13.374527866909409 C-63.526391044319006 -13.696728946507063, -63.316661383317644 -14.01893002610472, -62.83388161506428 -14.760609394661605 M-63.73612070532037 -13.374527866909409 C-63.39903550276856 -13.892381258079869, -63.06195030021675 -14.410234649250329, -62.83388161506428 -14.760609394661605 M-62.83388161506428 -14.760609394661605 C-62.53997710510492 -15.154414662755475, -62.246072595145556 -15.548219930849344, -61.84468972338968 -16.086036412270353 M-62.83388161506428 -14.760609394661605 C-62.54773680516483 -15.144017371598409, -62.261591995265384 -15.527425348535212, -61.84468972338968 -16.086036412270353 M-61.84468972338968 -16.086036412270353 C-61.42592474948142 -16.57794157902504, -61.007159775573164 -17.069846745779728, -60.77260983196045 -17.345362455817092 M-61.84468972338968 -16.086036412270353 C-61.48998685112065 -16.50269058920275, -61.135283978851625 -16.91934476613515, -60.77260983196045 -17.345362455817092 M-60.77260983196045 -17.345362455817092 C-60.32563160923012 -17.806904168380726, -59.87865338649979 -18.268445880944356, -59.62204734701089 -18.5334126844643 M-60.77260983196045 -17.345362455817092 C-60.42685194920387 -17.70238585701336, -60.0810940664473 -18.059409258209634, -59.62204734701089 -18.5334126844643 M-59.62204734701089 -18.5334126844643 C-59.16787699853958 -18.945878178257015, -58.713706650068275 -19.35834367204973, -58.397730176586535 -19.645305144986487 M-59.62204734701089 -18.5334126844643 C-59.259080726811256 -18.863049365359096, -58.89611410661162 -19.192686046253897, -58.397730176586535 -19.645305144986487 M-58.397730176586535 -19.645305144986487 C-58.105740505399254 -19.878159137586866, -57.81375083421197 -20.111013130187246, -57.10468930255585 -20.676470832763204 M-58.397730176586535 -19.645305144986487 C-58.13603562173351 -19.8539995884972, -57.87434106688048 -20.062694032007915, -57.10468930255585 -20.676470832763204 M-57.10468930255585 -20.676470832763204 C-56.611408241857895 -21.02056234691314, -56.11812718115994 -21.36465386106308, -55.74823810722666 -21.622672466799 M-57.10468930255585 -20.676470832763204 C-56.655486389112056 -20.98981533950088, -56.206283475668265 -21.303159846238557, -55.74823810722666 -21.622672466799 M-55.74823810722666 -21.622672466799 C-55.27693859755143 -21.90837699922747, -54.805639087876195 -22.194081531655943, -54.333950539518405 -22.480021901620027 M-55.74823810722666 -21.622672466799 C-55.28563068975482 -21.903107801853373, -54.823023272282974 -22.183543136907748, -54.333950539518405 -22.480021901620027 M-54.333950539518405 -22.480021901620027 C-53.82745622813912 -22.744259659441514, -53.32096191675983 -23.008497417263, -52.867638210410576 -23.244996104497716 M-54.333950539518405 -22.480021901620027 C-53.9994769110612 -22.654516579345568, -53.665003282604 -22.82901125707111, -52.867638210410576 -23.244996104497716 M-52.867638210410576 -23.244996104497716 C-52.29997067150667 -23.496285684711232, -51.73230313260276 -23.74757526492475, -51.35532651178645 -23.91445163234599 M-52.867638210410576 -23.244996104497716 C-52.350193393576504 -23.474053575455034, -51.832748576742425 -23.703111046412353, -51.35532651178645 -23.91445163234599 M-51.35532651178645 -23.91445163234599 C-50.82952739772081 -24.107950566755875, -50.303728283655175 -24.301449501165763, -49.80322985680553 -24.485637548803172 M-51.35532651178645 -23.91445163234599 C-50.978615164664866 -24.053084890368254, -50.60190381754328 -24.191718148390517, -49.80322985680553 -24.485637548803172 M-49.80322985680553 -24.485637548803172 C-49.41248765326636 -24.601607783765918, -49.0217454497272 -24.717578018728663, -48.21772614354682 -24.956206728419538 M-49.80322985680553 -24.485637548803172 C-49.17220460804981 -24.672922530314747, -48.5411793592941 -24.86020751182632, -48.21772614354682 -24.956206728419538 M-48.21772614354682 -24.956206728419538 C-47.86482003896932 -25.0367552438618, -47.51191393439181 -25.117303759304065, -46.605330546857545 -25.324225501499278 M-48.21772614354682 -24.956206728419538 C-47.65560688531066 -25.084506780940973, -47.0934876270745 -25.21280683346241, -46.605330546857545 -25.324225501499278 M-46.605330546857545 -25.324225501499278 C-46.23839797456618 -25.383548314182747, -45.871465402274815 -25.44287112686622, -44.97266874610233 -25.588181599964017 M-46.605330546857545 -25.324225501499278 C-46.109466071344904 -25.40439302441372, -45.61360159583226 -25.484560547328165, -44.97266874610233 -25.588181599964017 M-44.97266874610233 -25.588181599964017 C-44.50383476716864 -25.633409450056394, -44.035000788234946 -25.678637300148775, -43.326449698825286 -25.746990371586765 M-44.97266874610233 -25.588181599964017 C-44.63750093681599 -25.620514835427606, -44.30233312752964 -25.652848070891192, -43.326449698825286 -25.746990371586765 M-43.326449698825286 -25.746990371586765 C-42.922110672654306 -25.7599567371579, -42.517771646483325 -25.77292310272903, -41.6734380722046 -25.799999237060547 M-43.326449698825286 -25.746990371586765 C-42.89844872410833 -25.76071552979258, -42.47044774939137 -25.774440687998393, -41.6734380722046 -25.799999237060547 M-41.6734380722046 -25.799999237060547 C-41.6734380722046 -25.799999237060547, -41.67343807220459 -25.799999237060547, -41.67343807220459 -25.799999237060547 M-41.6734380722046 -25.799999237060547 C-41.6734380722046 -25.799999237060547, -41.67343807220459 -25.799999237060547, -41.67343807220459 -25.799999237060547" stroke="#555555" stroke-width="1.3" fill="none" stroke-dasharray="0 0" style=""></path></g><g class="label" style="" transform="translate(0, -18.299999237060547)"><rect></rect><g><rect class="background" style="stroke: none"></rect><text y="-10.1" style=""><tspan class="text-outer-tspan row" x="0" y="-0.1em" dy="1.1em"><tspan font-style="normal" class="text-inner-tspan" font-weight="normal">New</tspan><tspan font-style="normal" class="text-inner-tspan" font-weight="normal"> code</tspan><tspan font-style="normal" class="text-inner-tspan" font-weight="normal"> path</tspan></tspan><tspan class="text-outer-tspan row" x="0" y="1em" dy="1.1em"><tspan font-style="normal" class="text-inner-tspan" font-weight="normal">that</tspan><tspan font-style="normal" class="text-inner-tspan" font-weight="normal"> can</tspan><tspan font-style="normal" class="text-inner-tspan" font-weight="normal"> fail</tspan></tspan></text></g></g></g><g class="node default" id="g422192eb-d3d6-4f36-ae2f-5e45d1c09dd3-dark-flowchart-Q1-1" data-look="classic" transform="translate(173.7398452758789, 229.9343719482422)"><polygon points="120.3343734741211,0 240.6687469482422,-120.3343734741211 120.3343734741211,-240.6687469482422 0,-120.3343734741211" class="label-container" transform="translate(-119.8343734741211, 120.3343734741211)"></polygon><g class="label" style="" transform="translate(0, -27.099998474121094)"><rect></rect><g><rect class="background" style="stroke: none"></rect><text y="-10.1" style=""><tspan class="text-outer-tspan row" x="0" y="-0.1em" dy="1.1em"><tspan font-style="normal" class="text-inner-tspan" font-weight="normal">Boundary</tspan><tspan font-style="normal" class="text-inner-tspan" font-weight="normal"> with</tspan></tspan><tspan class="text-outer-tspan row" x="0" y="1em" dy="1.1em"><tspan font-style="normal" class="text-inner-tspan" font-weight="normal">throwing</tspan><tspan font-style="normal" class="text-inner-tspan" font-weight="normal"> API?</tspan></tspan><tspan class="text-outer-tspan row" x="0" y="2.1em" dy="1.1em"><tspan font-style="normal" class="text-inner-tspan" font-weight="normal">(parse,</tspan><tspan font-style="normal" class="text-inner-tspan" font-weight="normal"> fetch,</tspan><tspan font-style="normal" class="text-inner-tspan" font-weight="normal"> library)</tspan></tspan></text></g></g></g><g class="node default" id="g422192eb-d3d6-4f36-ae2f-5e45d1c09dd3-dark-flowchart-BND-3" data-look="classic" transform="translate(122.1796875, 846.0359420776367)"><rect class="basic label-container" style="" x="-114.1796875" y="-42.099998474121094" width="228.359375" height="84.19999694824219"></rect><g class="label" style="" transform="translate(0, -27.099998474121094)"><rect></rect><g><rect class="background" style="stroke: none"></rect><text y="-10.1" style=""><tspan class="text-outer-tspan row" x="0" y="-0.1em" dy="1.1em"><tspan font-style="normal" class="text-inner-tspan" font-weight="normal">try</tspan><tspan font-style="normal" class="text-inner-tspan" font-weight="normal"> /</tspan><tspan font-style="normal" class="text-inner-tspan" font-weight="normal"> catch</tspan><tspan font-style="normal" class="text-inner-tspan" font-weight="normal"> at</tspan><tspan font-style="normal" class="text-inner-tspan" font-weight="normal"> the</tspan><tspan font-style="normal" class="text-inner-tspan" font-weight="normal"> seam</tspan></tspan><tspan class="text-outer-tspan row" x="0" y="1em" dy="1.1em"><tspan font-style="normal" class="text-inner-tspan" font-weight="normal">convert</tspan><tspan font-style="normal" class="text-inner-tspan" font-weight="normal"> immediately</tspan><tspan font-style="normal" class="text-inner-tspan" font-weight="normal"> to</tspan></tspan><tspan class="text-outer-tspan row" x="0" y="2.1em" dy="1.1em"><tspan font-style="normal" class="text-inner-tspan" font-weight="normal">Result</tspan></tspan></text></g></g></g><g class="node default" id="g422192eb-d3d6-4f36-ae2f-5e45d1c09dd3-dark-flowchart-Q2-5" data-look="classic" transform="translate(414.1828155517578, 534.2406234741211)"><polygon points="110.97187423706055,0 221.9437484741211,-110.97187423706055 110.97187423706055,-221.9437484741211 0,-110.97187423706055" class="label-container" transform="translate(-110.47187423706055, 110.97187423706055)"></polygon><g class="label" style="" transform="translate(0, -18.299999237060547)"><rect></rect><g><rect class="background" style="stroke: none"></rect><text y="-10.1" style=""><tspan class="text-outer-tspan row" x="0" y="-0.1em" dy="1.1em"><tspan font-style="normal" class="text-inner-tspan" font-weight="normal">Multiple</tspan><tspan font-style="normal" class="text-inner-tspan" font-weight="normal"> fallible</tspan><tspan font-style="normal" class="text-inner-tspan" font-weight="normal"> steps</tspan></tspan><tspan class="text-outer-tspan row" x="0" y="1em" dy="1.1em"><tspan font-style="normal" class="text-inner-tspan" font-weight="normal">chained</tspan><tspan font-style="normal" class="text-inner-tspan" font-weight="normal"> together?</tspan></tspan></text></g></g></g><g class="node default" id="g422192eb-d3d6-4f36-ae2f-5e45d1c09dd3-dark-flowchart-Q3-7" data-look="classic" transform="translate(414.1828155517578, 846.0359420776367)"><polygon points="127.82343673706055,0 255.6468734741211,-127.82343673706055 127.82343673706055,-255.6468734741211 0,-127.82343673706055" class="label-container" transform="translate(-127.32343673706055, 127.82343673706055)"></polygon><g class="label" style="" transform="translate(0, -18.299999237060547)"><rect></rect><g><rect class="background" style="stroke: none"></rect><text y="-10.1" style=""><tspan class="text-outer-tspan row" x="0" y="-0.1em" dy="1.1em"><tspan font-style="normal" class="text-inner-tspan" font-weight="normal">Type</tspan><tspan font-style="normal" class="text-inner-tspan" font-weight="normal"> safety</tspan><tspan font-style="normal" class="text-inner-tspan" font-weight="normal"> +</tspan><tspan font-style="normal" class="text-inner-tspan" font-weight="normal"> lint</tspan></tspan><tspan class="text-outer-tspan row" x="0" y="1em" dy="1.1em"><tspan font-style="normal" class="text-inner-tspan" font-weight="normal">enforcement</tspan><tspan font-style="normal" class="text-inner-tspan" font-weight="normal"> worth</tspan><tspan font-style="normal" class="text-inner-tspan" font-weight="normal"> a</tspan><tspan font-style="normal" class="text-inner-tspan" font-weight="normal"> dep?</tspan></tspan></text></g></g></g><g class="node default" id="g422192eb-d3d6-4f36-ae2f-5e45d1c09dd3-dark-flowchart-Q4-9" data-look="classic" transform="translate(735.2960968017578, 846.0359420776367)"><polygon points="112.30781173706055,0 224.6156234741211,-112.30781173706055 112.30781173706055,-224.6156234741211 0,-112.30781173706055" class="label-container" transform="translate(-111.80781173706055, 112.30781173706055)"></polygon><g class="label" style="" transform="translate(0, -18.299999237060547)"><rect></rect><g><rect class="background" style="stroke: none"></rect><text y="-10.1" style=""><tspan class="text-outer-tspan row" x="0" y="-0.1em" dy="1.1em"><tspan font-style="normal" class="text-inner-tspan" font-weight="normal">Single</tspan><tspan font-style="normal" class="text-inner-tspan" font-weight="normal"> call,</tspan><tspan font-style="normal" class="text-inner-tspan" font-weight="normal"> no</tspan></tspan><tspan class="text-outer-tspan row" x="0" y="1em" dy="1.1em"><tspan font-style="normal" class="text-inner-tspan" font-weight="normal">downstream</tspan><tspan font-style="normal" class="text-inner-tspan" font-weight="normal"> chaining?</tspan></tspan></text></g></g></g><g class="node default" id="g422192eb-d3d6-4f36-ae2f-5e45d1c09dd3-dark-flowchart-RES-11" data-look="classic" transform="translate(202.9367218017578, 1080.159381866455)"><rect class="basic label-container" style="" x="-125.1484375" y="-33.29999923706055" width="250.296875" height="66.5999984741211"></rect><g class="label" style="" transform="translate(0, -18.299999237060547)"><rect></rect><g><rect class="background" style="stroke: none"></rect><text y="-10.1" style=""><tspan class="text-outer-tspan row" x="0" y="-0.1em" dy="1.1em"><tspan font-style="normal" class="text-inner-tspan" font-weight="normal">Result&lt;T,</tspan><tspan font-style="normal" class="text-inner-tspan" font-weight="normal"> E&gt;</tspan><tspan font-style="normal" class="text-inner-tspan" font-weight="normal"> (neverthrow)</tspan></tspan><tspan class="text-outer-tspan row" x="0" y="1em" dy="1.1em"><tspan font-style="normal" class="text-inner-tspan" font-weight="normal">+</tspan><tspan font-style="normal" class="text-inner-tspan" font-weight="normal"> eslint-plugin-neverthrow</tspan></tspan></text></g></g></g><g class="node default" id="g422192eb-d3d6-4f36-ae2f-5e45d1c09dd3-dark-flowchart-TUPLE-13" data-look="classic" transform="translate(481.2726593017578, 1080.159381866455)"><rect class="basic label-container" style="" x="-103.1875" y="-33.29999923706055" width="206.375" height="66.5999984741211"></rect><g class="label" style="" transform="translate(0, -18.299999237060547)"><rect></rect><g><rect class="background" style="stroke: none"></rect><text y="-10.1" style=""><tspan class="text-outer-tspan row" x="0" y="-0.1em" dy="1.1em"><tspan font-style="normal" class="text-inner-tspan" font-weight="normal">[data,</tspan><tspan font-style="normal" class="text-inner-tspan" font-weight="normal"> error]</tspan><tspan font-style="normal" class="text-inner-tspan" font-weight="normal"> helper</tspan></tspan><tspan class="text-outer-tspan row" x="0" y="1em" dy="1.1em"><tspan font-style="normal" class="text-inner-tspan" font-weight="normal">(scripts,</tspan><tspan font-style="normal" class="text-inner-tspan" font-weight="normal"> prototypes)</tspan></tspan></text></g></g></g><g class="node default" id="g422192eb-d3d6-4f36-ae2f-5e45d1c09dd3-dark-flowchart-THROW-15" data-look="classic" transform="translate(735.2960968017578, 1080.159381866455)"><rect class="basic label-container" style="" x="-100.8359375" y="-33.29999923706055" width="201.671875" height="66.5999984741211"></rect><g class="label" style="" transform="translate(0, -18.299999237060547)"><rect></rect><g><rect class="background" style="stroke: none"></rect><text y="-10.1" style=""><tspan class="text-outer-tspan row" x="0" y="-0.1em" dy="1.1em"><tspan font-style="normal" class="text-inner-tspan" font-weight="normal">Let</tspan><tspan font-style="normal" class="text-inner-tspan" font-weight="normal"> it</tspan><tspan font-style="normal" class="text-inner-tspan" font-weight="normal"> throw</tspan><tspan font-style="normal" class="text-inner-tspan" font-weight="normal"> to</tspan><tspan font-style="normal" class="text-inner-tspan" font-weight="normal"> a</tspan></tspan><tspan class="text-outer-tspan row" x="0" y="1em" dy="1.1em"><tspan font-style="normal" class="text-inner-tspan" font-weight="normal">top-level</tspan><tspan font-style="normal" class="text-inner-tspan" font-weight="normal"> safety</tspan><tspan font-style="normal" class="text-inner-tspan" font-weight="normal"> net</tspan></tspan></text></g></g></g></g></g></g><defs><filter id="g422192eb-d3d6-4f36-ae2f-5e45d1c09dd3-dark-drop-shadow" height="130%" width="130%"><feDropShadow dx="4" dy="4" stdDeviation="0" flood-opacity="0.06" flood-color="#000000"></feDropShadow></filter></defs><defs><filter id="g422192eb-d3d6-4f36-ae2f-5e45d1c09dd3-dark-drop-shadow-small" height="150%" width="150%"><feDropShadow dx="2" dy="2" stdDeviation="0" flood-opacity="0.06" flood-color="#000000"></feDropShadow></filter></defs><linearGradient id="g422192eb-d3d6-4f36-ae2f-5e45d1c09dd3-dark-gradient" gradientUnits="objectBoundingBox" x1="0%" y1="0%" x2="100%" y2="0%"><stop offset="0%" stop-color="#555555" stop-opacity="1"></stop><stop offset="100%" stop-color="#555555" stop-opacity="1"></stop></linearGradient></svg>