<svg id="g59002776-9489-4adf-abb8-8d82f2806a34-light" width="100%" xmlns="http://www.w3.org/2000/svg" xmlns:xlink="http://www.w3.org/1999/xlink" class="erDiagram" style="max-width: 881.3125px;" viewBox="0 0 881.3125 1090.25" role="graphics-document document" aria-roledescription="er"><style>#g59002776-9489-4adf-abb8-8d82f2806a34-light{font-family:"trebuchet ms",verdana,arial,sans-serif;font-size:16px;fill:#333;}@keyframes edge-animation-frame{from{stroke-dashoffset:0;}}@keyframes dash{to{stroke-dashoffset:0;}}#g59002776-9489-4adf-abb8-8d82f2806a34-light .edge-animation-slow{stroke-dasharray:9,5!important;stroke-dashoffset:900;animation:dash 50s linear infinite;stroke-linecap:round;}#g59002776-9489-4adf-abb8-8d82f2806a34-light .edge-animation-fast{stroke-dasharray:9,5!important;stroke-dashoffset:900;animation:dash 20s linear infinite;stroke-linecap:round;}#g59002776-9489-4adf-abb8-8d82f2806a34-light .error-icon{fill:#552222;}#g59002776-9489-4adf-abb8-8d82f2806a34-light .error-text{fill:#552222;stroke:#552222;}#g59002776-9489-4adf-abb8-8d82f2806a34-light .edge-thickness-normal{stroke-width:1px;}#g59002776-9489-4adf-abb8-8d82f2806a34-light .edge-thickness-thick{stroke-width:3.5px;}#g59002776-9489-4adf-abb8-8d82f2806a34-light .edge-pattern-solid{stroke-dasharray:0;}#g59002776-9489-4adf-abb8-8d82f2806a34-light .edge-thickness-invisible{stroke-width:0;fill:none;}#g59002776-9489-4adf-abb8-8d82f2806a34-light .edge-pattern-dashed{stroke-dasharray:3;}#g59002776-9489-4adf-abb8-8d82f2806a34-light .edge-pattern-dotted{stroke-dasharray:2;}#g59002776-9489-4adf-abb8-8d82f2806a34-light .marker{fill:#333333;stroke:#333333;}#g59002776-9489-4adf-abb8-8d82f2806a34-light .marker.cross{stroke:#333333;}#g59002776-9489-4adf-abb8-8d82f2806a34-light svg{font-family:"trebuchet ms",verdana,arial,sans-serif;font-size:16px;}#g59002776-9489-4adf-abb8-8d82f2806a34-light p{margin:0;}#g59002776-9489-4adf-abb8-8d82f2806a34-light .entityBox{fill:#ECECFF;stroke:#9370DB;}#g59002776-9489-4adf-abb8-8d82f2806a34-light .relationshipLabelBox{fill:hsl(80, 100%, 96.2745098039%);opacity:0.7;background-color:hsl(80, 100%, 96.2745098039%);}#g59002776-9489-4adf-abb8-8d82f2806a34-light .relationshipLabelBox rect{opacity:0.5;}#g59002776-9489-4adf-abb8-8d82f2806a34-light .labelBkg{background-color:rgba(248.6666666666, 255, 235.9999999999, 0.5);}#g59002776-9489-4adf-abb8-8d82f2806a34-light .edgeLabel{background-color:rgba(232,232,232, 0.8);}#g59002776-9489-4adf-abb8-8d82f2806a34-light .edgeLabel .label rect{fill:rgba(232,232,232, 0.8);}#g59002776-9489-4adf-abb8-8d82f2806a34-light .edgeLabel .label text{fill:#333;}#g59002776-9489-4adf-abb8-8d82f2806a34-light .edgeLabel .label{fill:#9370DB;font-size:14px;}#g59002776-9489-4adf-abb8-8d82f2806a34-light .label{font-family:"trebuchet ms",verdana,arial,sans-serif;color:#333;}#g59002776-9489-4adf-abb8-8d82f2806a34-light .edge-pattern-dashed{stroke-dasharray:8,8;}#g59002776-9489-4adf-abb8-8d82f2806a34-light .node rect,#g59002776-9489-4adf-abb8-8d82f2806a34-light .node circle,#g59002776-9489-4adf-abb8-8d82f2806a34-light .node ellipse,#g59002776-9489-4adf-abb8-8d82f2806a34-light .node polygon{fill:#ECECFF;stroke:#9370DB;stroke-width:1px;}#g59002776-9489-4adf-abb8-8d82f2806a34-light .relationshipLine{stroke:#333333;stroke-width:1px;fill:none;}#g59002776-9489-4adf-abb8-8d82f2806a34-light .marker{fill:none!important;stroke:#333333!important;stroke-width:1;}#g59002776-9489-4adf-abb8-8d82f2806a34-light [data-look=neo].labelBkg{background-color:rgba(248.6666666666, 255, 235.9999999999, 0.5);}#g59002776-9489-4adf-abb8-8d82f2806a34-light .node .neo-node{stroke:#9370DB;}#g59002776-9489-4adf-abb8-8d82f2806a34-light [data-look="neo"].node rect,#g59002776-9489-4adf-abb8-8d82f2806a34-light [data-look="neo"].cluster rect,#g59002776-9489-4adf-abb8-8d82f2806a34-light [data-look="neo"].node polygon{stroke:#9370DB;filter:drop-shadow(1px 2px 2px rgba(185, 185, 185, 1));}#g59002776-9489-4adf-abb8-8d82f2806a34-light [data-look="neo"].node path{stroke:#9370DB;stroke-width:1px;}#g59002776-9489-4adf-abb8-8d82f2806a34-light [data-look="neo"].node .outer-path{filter:drop-shadow(1px 2px 2px rgba(185, 185, 185, 1));}#g59002776-9489-4adf-abb8-8d82f2806a34-light [data-look="neo"].node .neo-line path{stroke:#9370DB;filter:none;}#g59002776-9489-4adf-abb8-8d82f2806a34-light [data-look="neo"].node circle{stroke:#9370DB;filter:drop-shadow(1px 2px 2px rgba(185, 185, 185, 1));}#g59002776-9489-4adf-abb8-8d82f2806a34-light [data-look="neo"].node circle .state-start{fill:#000000;}#g59002776-9489-4adf-abb8-8d82f2806a34-light [data-look="neo"].icon-shape .icon{fill:#9370DB;filter:drop-shadow(1px 2px 2px rgba(185, 185, 185, 1));}#g59002776-9489-4adf-abb8-8d82f2806a34-light [data-look="neo"].icon-shape .icon-neo path{stroke:#9370DB;filter:drop-shadow(1px 2px 2px rgba(185, 185, 185, 1));}#g59002776-9489-4adf-abb8-8d82f2806a34-light :root{--mermaid-font-family:"trebuchet ms",verdana,arial,sans-serif;}</style><g><defs><marker id="g59002776-9489-4adf-abb8-8d82f2806a34-light_er-onlyOneStart" class="marker onlyOne er" refX="0" refY="9" markerWidth="18" markerHeight="18" orient="auto"><path d="M9,0 L9,18 M15,0 L15,18"></path></marker></defs><defs><marker id="g59002776-9489-4adf-abb8-8d82f2806a34-light_er-onlyOneEnd" class="marker onlyOne er" refX="18" refY="9" markerWidth="18" markerHeight="18" orient="auto"><path d="M3,0 L3,18 M9,0 L9,18"></path></marker></defs><defs><marker id="g59002776-9489-4adf-abb8-8d82f2806a34-light_er-zeroOrOneStart" class="marker zeroOrOne er" refX="0" refY="9" markerWidth="30" markerHeight="18" orient="auto"><circle fill="white" cx="21" cy="9" r="6"></circle><path d="M9,0 L9,18"></path></marker></defs><defs><marker id="g59002776-9489-4adf-abb8-8d82f2806a34-light_er-zeroOrOneEnd" class="marker zeroOrOne er" refX="30" refY="9" markerWidth="30" markerHeight="18" orient="auto"><circle fill="white" cx="9" cy="9" r="6"></circle><path d="M21,0 L21,18"></path></marker></defs><defs><marker id="g59002776-9489-4adf-abb8-8d82f2806a34-light_er-oneOrMoreStart" class="marker oneOrMore er" refX="18" refY="18" markerWidth="45" markerHeight="36" orient="auto"><path d="M0,18 Q 18,0 36,18 Q 18,36 0,18 M42,9 L42,27"></path></marker></defs><defs><marker id="g59002776-9489-4adf-abb8-8d82f2806a34-light_er-oneOrMoreEnd" class="marker oneOrMore er" refX="27" refY="18" markerWidth="45" markerHeight="36" orient="auto"><path d="M3,9 L3,27 M9,18 Q27,0 45,18 Q27,36 9,18"></path></marker></defs><defs><marker id="g59002776-9489-4adf-abb8-8d82f2806a34-light_er-zeroOrMoreStart" class="marker zeroOrMore er" refX="18" refY="18" markerWidth="57" markerHeight="36" orient="auto"><circle fill="white" cx="48" cy="18" r="6"></circle><path d="M0,18 Q18,0 36,18 Q18,36 0,18"></path></marker></defs><defs><marker id="g59002776-9489-4adf-abb8-8d82f2806a34-light_er-zeroOrMoreEnd" class="marker zeroOrMore er" refX="39" refY="18" markerWidth="57" markerHeight="36" orient="auto"><circle fill="white" cx="9" cy="18" r="6"></circle><path d="M21,18 Q39,0 57,18 Q39,36 21,18"></path></marker></defs><g class="root"><g class="clusters"></g><g class="edgePaths"><path d="M455.504,196.75L455.504,205.333C455.504,213.917,455.504,231.083,455.504,248.25C455.504,265.417,455.504,282.583,455.504,291.167L455.504,299.75" id="g59002776-9489-4adf-abb8-8d82f2806a34-light-id_entity-CALENDARS-0_entity-EVENTS-1_0" class="edge-thickness-normal edge-pattern-solid relationshipLine" style="undefined;;;undefined" data-edge="true" data-et="edge" data-id="id_entity-CALENDARS-0_entity-EVENTS-1_0" data-points="W3sieCI6NDU1LjUwMzkwNjI1LCJ5IjoxOTYuNzV9LHsieCI6NDU1LjUwMzkwNjI1LCJ5IjoyNDguMjV9LHsieCI6NDU1LjUwMzkwNjI1LCJ5IjoyOTkuNzV9XQ==" data-look="classic" marker-start="url(#g59002776-9489-4adf-abb8-8d82f2806a34-light_er-onlyOneStart)" marker-end="url(#g59002776-9489-4adf-abb8-8d82f2806a34-light_er-zeroOrMoreEnd)"></path><path d="M287.457,646.283L272.818,660.027C258.18,673.772,228.902,701.261,217.099,723.589C205.296,745.917,210.967,763.083,213.803,771.667L216.639,780.25" id="g59002776-9489-4adf-abb8-8d82f2806a34-light-id_entity-EVENTS-1_entity-EVENT_INSTANCES-2_1" class="edge-thickness-normal edge-pattern-solid relationshipLine" style="undefined;;;undefined" data-edge="true" data-et="edge" data-id="id_entity-EVENTS-1_entity-EVENT_INSTANCES-2_1" data-points="W3sieCI6Mjg3LjQ1NzAzMTI1LCJ5Ijo2NDYuMjgyNjg4MzQ0NDAxMn0seyJ4IjoxOTkuNjI1LCJ5Ijo3MjguNzV9LHsieCI6MjE2LjYzODY3NjY5NzUzMDg1LCJ5Ijo3ODAuMjV9XQ==" data-look="classic" marker-start="url(#g59002776-9489-4adf-abb8-8d82f2806a34-light_er-onlyOneStart)" marker-end="url(#g59002776-9489-4adf-abb8-8d82f2806a34-light_er-zeroOrMoreEnd)"></path><path d="M623.551,619.827L646.781,637.981C670.01,656.135,716.47,692.442,739.7,728.617C762.93,764.792,762.93,800.833,762.93,818.854L762.93,836.875" id="g59002776-9489-4adf-abb8-8d82f2806a34-light-id_entity-EVENTS-1_entity-EVENT_ATTENDEES-3_2" class="edge-thickness-normal edge-pattern-solid relationshipLine" style="undefined;;;undefined" data-edge="true" data-et="edge" data-id="id_entity-EVENTS-1_entity-EVENT_ATTENDEES-3_2" data-points="W3sieCI6NjIzLjU1MDc4MTI1LCJ5Ijo2MTkuODI2ODU3MzQ2MTU4Mn0seyJ4Ijo3NjIuOTI5Njg3NSwieSI6NzI4Ljc1fSx7IngiOjc2Mi45Mjk2ODc1LCJ5Ijo4MzYuODc1fV0=" data-look="classic" marker-start="url(#g59002776-9489-4adf-abb8-8d82f2806a34-light_er-onlyOneStart)" marker-end="url(#g59002776-9489-4adf-abb8-8d82f2806a34-light_er-zeroOrMoreEnd)"></path><path d="M407.442,780.25L415.452,771.667C423.463,763.083,439.483,745.917,447.494,728.75C455.504,711.583,455.504,694.417,455.504,685.833L455.504,677.25" id="g59002776-9489-4adf-abb8-8d82f2806a34-light-id_entity-EVENT_INSTANCES-2_entity-EVENTS-1_3" class="edge-thickness-normal edge-pattern-solid relationshipLine" style="undefined;;;undefined" data-edge="true" data-et="edge" data-id="id_entity-EVENT_INSTANCES-2_entity-EVENTS-1_3" data-points="W3sieCI6NDA3LjQ0MjIwNjc5MDEyMzQ2LCJ5Ijo3ODAuMjV9LHsieCI6NDU1LjUwMzkwNjI1LCJ5Ijo3MjguNzV9LHsieCI6NDU1LjUwMzkwNjI1LCJ5Ijo2NzcuMjV9XQ==" data-look="classic" marker-start="url(#g59002776-9489-4adf-abb8-8d82f2806a34-light_er-zeroOrMoreStart)" marker-end="url(#g59002776-9489-4adf-abb8-8d82f2806a34-light_er-onlyOneEnd)"></path></g><g class="edgeLabels"><g class="edgeLabel" transform="translate(455.50390625, 248.25)"><g class="label" data-id="id_entity-CALENDARS-0_entity-EVENTS-1_0" transform="translate(0, -9.000000476837158)"><g><rect class="background" style="" x="-19.859375" y="-1" width="39.71875" height="23"></rect><text y="-10.1" text-anchor="middle" style=""><tspan class="text-outer-tspan row" x="0" y="-0.1em" dy="1.1em" text-anchor="middle"><tspan font-style="normal" class="text-inner-tspan" font-weight="normal">owns</tspan></tspan></text></g></g></g><g class="edgeLabel" transform="translate(223.77087, 706.07894)"><g class="label" data-id="id_entity-EVENTS-1_entity-EVENT_INSTANCES-2_1" transform="translate(0, -9.000000476837158)"><g><rect class="background" style="" x="-40.9765625" y="-1" width="81.953125" height="23"></rect><text y="-10.1" text-anchor="middle" style=""><tspan class="text-outer-tspan row" x="0" y="-0.1em" dy="1.1em" text-anchor="middle"><tspan font-style="normal" class="text-inner-tspan" font-weight="normal">expands</tspan><tspan font-style="normal" class="text-inner-tspan" font-weight="normal"> to</tspan></tspan></text></g></g></g><g class="edgeLabel" transform="translate(762.9296875, 728.75)"><g class="label" data-id="id_entity-EVENTS-1_entity-EVENT_ATTENDEES-3_2" transform="translate(0, -9.000000476837158)"><g><rect class="background" style="" x="-25.625" y="-1" width="51.25" height="23"></rect><text y="-10.1" text-anchor="middle" style=""><tspan class="text-outer-tspan row" x="0" y="-0.1em" dy="1.1em" text-anchor="middle"><tspan font-style="normal" class="text-inner-tspan" font-weight="normal">invites</tspan></tspan></text></g></g></g><g class="edgeLabel" transform="translate(455.50390625, 728.75)"><g class="label" data-id="id_entity-EVENT_INSTANCES-2_entity-EVENTS-1_3" transform="translate(0, -9.000000476837158)"><g><rect class="background" style="" x="-72.8203125" y="-1" width="145.640625" height="23"></rect><text y="-10.1" text-anchor="middle" style=""><tspan class="text-outer-tspan row" x="0" y="-0.1em" dy="1.1em" text-anchor="middle"><tspan font-style="normal" class="text-inner-tspan" font-weight="normal">exception</tspan><tspan font-style="normal" class="text-inner-tspan" font-weight="normal"> overrides</tspan></tspan></text></g></g></g></g><g class="nodes"><g class="node default" id="g59002776-9489-4adf-abb8-8d82f2806a34-light-entity-CALENDARS-0" data-look="classic" transform="translate(455.50390625, 102.375)"><g class="outer-path" style=""><path d="M-107.09375 -94.375 L107.09375 -94.375 L107.09375 94.375 L-107.09375 94.375" stroke="none" stroke-width="0" fill="#ECECFF"></path><path d="M-107.09375 -94.375 C-30.251667550312135 -94.375, 46.59041489937573 -94.375, 107.09375 -94.375 M-107.09375 -94.375 C-37.679152471171534 -94.375, 31.735445057656932 -94.375, 107.09375 -94.375 M107.09375 -94.375 C107.09375 -24.756325026381916, 107.09375 44.86234994723617, 107.09375 94.375 M107.09375 -94.375 C107.09375 -25.30870827293353, 107.09375 43.75758345413294, 107.09375 94.375 M107.09375 94.375 C28.13012170176725 94.375, -50.8335065964655 94.375, -107.09375 94.375 M107.09375 94.375 C59.9343879700513 94.375, 12.775025940102594 94.375, -107.09375 94.375 M-107.09375 94.375 C-107.09375 48.02504485714905, -107.09375 1.675089714298096, -107.09375 -94.375 M-107.09375 94.375 C-107.09375 21.729624371311573, -107.09375 -50.915751257376854, -107.09375 -94.375" stroke="#9370DB" stroke-width="1.3" fill="none" stroke-dasharray="0 0"></path></g><g style="" class="row-rect-odd"><path d="M-107.09375 -56.625 L107.09375 -56.625 L107.09375 -18.875 L-107.09375 -18.875" stroke="none" stroke-width="0" fill="hsl(240, 100%, 100%)"></path><path d="M-107.09375 -56.625 C-30.0240391391214 -56.625, 47.0456717217572 -56.625, 107.09375 -56.625 M-107.09375 -56.625 C-25.573534199199045 -56.625, 55.94668160160191 -56.625, 107.09375 -56.625 M107.09375 -56.625 C107.09375 -47.68809670784232, 107.09375 -38.75119341568464, 107.09375 -18.875 M107.09375 -56.625 C107.09375 -41.77544968241903, 107.09375 -26.92589936483806, 107.09375 -18.875 M107.09375 -18.875 C55.09617918757035 -18.875, 3.0986083751406994 -18.875, -107.09375 -18.875 M107.09375 -18.875 C22.762201147081356 -18.875, -61.56934770583729 -18.875, -107.09375 -18.875 M-107.09375 -18.875 C-107.09375 -31.96397344585609, -107.09375 -45.05294689171218, -107.09375 -56.625 M-107.09375 -18.875 C-107.09375 -32.24142101472985, -107.09375 -45.607842029459704, -107.09375 -56.625" stroke="#9370DB" stroke-width="1.3" fill="none" stroke-dasharray="0 0"></path></g><g style="" class="row-rect-even"><path d="M-107.09375 -18.875 L107.09375 -18.875 L107.09375 18.875 L-107.09375 18.875" stroke="none" stroke-width="0" fill="hsl(240, 100%, 97.2745098039%)"></path><path d="M-107.09375 -18.875 C-40.08096568878554 -18.875, 26.93181862242892 -18.875, 107.09375 -18.875 M-107.09375 -18.875 C-63.73094934927584 -18.875, -20.36814869855168 -18.875, 107.09375 -18.875 M107.09375 -18.875 C107.09375 -6.796884782666039, 107.09375 5.281230434667922, 107.09375 18.875 M107.09375 -18.875 C107.09375 -9.595347933775983, 107.09375 -0.3156958675519661, 107.09375 18.875 M107.09375 18.875 C53.650323615377644 18.875, 0.20689723075528832 18.875, -107.09375 18.875 M107.09375 18.875 C50.65267653301093 18.875, -5.7883969339781345 18.875, -107.09375 18.875 M-107.09375 18.875 C-107.09375 5.652440760101447, -107.09375 -7.570118479797106, -107.09375 -18.875 M-107.09375 18.875 C-107.09375 7.9161185411247565, -107.09375 -3.042762917750487, -107.09375 -18.875" stroke="#9370DB" stroke-width="1.3" fill="none" stroke-dasharray="0 0"></path></g><g style="" class="row-rect-odd"><path d="M-107.09375 18.875 L107.09375 18.875 L107.09375 56.625 L-107.09375 56.625" stroke="none" stroke-width="0" fill="hsl(240, 100%, 100%)"></path><path d="M-107.09375 18.875 C-38.14022890661826 18.875, 30.813292186763476 18.875, 107.09375 18.875 M-107.09375 18.875 C-63.0623864118267 18.875, -19.0310228236534 18.875, 107.09375 18.875 M107.09375 18.875 C107.09375 26.81125132366003, 107.09375 34.74750264732006, 107.09375 56.625 M107.09375 18.875 C107.09375 29.92607991876158, 107.09375 40.97715983752316, 107.09375 56.625 M107.09375 56.625 C30.943590970462296 56.625, -45.20656805907541 56.625, -107.09375 56.625 M107.09375 56.625 C34.2605610824142 56.625, -38.5726278351716 56.625, -107.09375 56.625 M-107.09375 56.625 C-107.09375 48.72829000160812, -107.09375 40.831580003216246, -107.09375 18.875 M-107.09375 56.625 C-107.09375 48.604921927234045, -107.09375 40.58484385446809, -107.09375 18.875" stroke="#9370DB" stroke-width="1.3" fill="none" stroke-dasharray="0 0"></path></g><g style="" class="row-rect-even"><path d="M-107.09375 56.625 L107.09375 56.625 L107.09375 94.375 L-107.09375 94.375" stroke="none" stroke-width="0" fill="hsl(240, 100%, 97.2745098039%)"></path><path d="M-107.09375 56.625 C-41.03979970693304 56.625, 25.014150586133923 56.625, 107.09375 56.625 M-107.09375 56.625 C-31.291789556462618 56.625, 44.510170887074764 56.625, 107.09375 56.625 M107.09375 56.625 C107.09375 70.03047229527596, 107.09375 83.43594459055191, 107.09375 94.375 M107.09375 56.625 C107.09375 65.03434849517292, 107.09375 73.44369699034584, 107.09375 94.375 M107.09375 94.375 C60.808538690930874 94.375, 14.523327381861748 94.375, -107.09375 94.375 M107.09375 94.375 C58.18002257047311 94.375, 9.266295140946227 94.375, -107.09375 94.375 M-107.09375 94.375 C-107.09375 79.68133691439778, -107.09375 64.98767382879555, -107.09375 56.625 M-107.09375 94.375 C-107.09375 81.18626004789952, -107.09375 67.99752009579905, -107.09375 56.625" stroke="#9370DB" stroke-width="1.3" fill="none" stroke-dasharray="0 0"></path></g><g class="label name" transform="translate(-41.078125, -85)" style=""><g><rect class="background" style="stroke: none"></rect></g><text y="-10.1" style=""><tspan class="text-outer-tspan row" x="0" y="-0.1em" dy="1.1em"><tspan font-style="normal" class="text-inner-tspan" font-weight="normal">CALENDARS</tspan></tspan></text></g><g class="label attribute-type" transform="translate(-94.59375, -47.25)" style=""><g><rect class="background" style="stroke: none"></rect></g><text y="-10.1" style=""><tspan class="text-outer-tspan row" x="0" y="-0.1em" dy="1.1em"><tspan font-style="normal" class="text-inner-tspan" font-weight="normal">uuid</tspan></tspan></text></g><g class="label attribute-name" transform="translate(-28.4375, -47.25)" style=""><g><rect class="background" style="stroke: none"></rect></g><text y="-10.1" style=""><tspan class="text-outer-tspan row" x="0" y="-0.1em" dy="1.1em"><tspan font-style="normal" class="text-inner-tspan" font-weight="normal">id</tspan></tspan></text></g><g class="label attribute-keys" transform="translate(76.453125, -47.25)" style=""><g><rect class="background" style="stroke: none"></rect></g><text y="-10.1" style=""><tspan class="text-outer-tspan row" x="0" y="-0.1em" dy="1.1em"><tspan font-style="normal" class="text-inner-tspan" font-weight="normal">PK</tspan></tspan></text></g><g class="label attribute-comment" transform="translate(119.59375, -47.25)" style=""><g><rect class="background" style="stroke: none"></rect></g><text y="-10.1" style=""><tspan class="text-outer-tspan row" x="0" y="-0.1em" dy="1.1em"></tspan></text></g><g class="label attribute-type" transform="translate(-94.59375, -9.5)" style=""><g><rect class="background" style="stroke: none"></rect></g><text y="-10.1" style=""><tspan class="text-outer-tspan row" x="0" y="-0.1em" dy="1.1em"><tspan font-style="normal" class="text-inner-tspan" font-weight="normal">uuid</tspan></tspan></text></g><g class="label attribute-name" transform="translate(-28.4375, -9.5)" style=""><g><rect class="background" style="stroke: none"></rect></g><text y="-10.1" style=""><tspan class="text-outer-tspan row" x="0" y="-0.1em" dy="1.1em"><tspan font-style="normal" class="text-inner-tspan" font-weight="normal">owner_id</tspan></tspan></text></g><g class="label attribute-keys" transform="translate(76.453125, -9.5)" style=""><g><rect class="background" style="stroke: none"></rect></g><text y="-10.1" style=""><tspan class="text-outer-tspan row" x="0" y="-0.1em" dy="1.1em"><tspan font-style="normal" class="text-inner-tspan" font-weight="normal">FK</tspan></tspan></text></g><g class="label attribute-comment" transform="translate(119.59375, -9.5)" style=""><g><rect class="background" style="stroke: none"></rect></g><text y="-10.1" style=""><tspan class="text-outer-tspan row" x="0" y="-0.1em" dy="1.1em"></tspan></text></g><g class="label attribute-type" transform="translate(-94.59375, 28.25)" style=""><g><rect class="background" style="stroke: none"></rect></g><text y="-10.1" style=""><tspan class="text-outer-tspan row" x="0" y="-0.1em" dy="1.1em"><tspan font-style="normal" class="text-inner-tspan" font-weight="normal">string</tspan></tspan></text></g><g class="label attribute-name" transform="translate(-28.4375, 28.25)" style=""><g><rect class="background" style="stroke: none"></rect></g><text y="-10.1" style=""><tspan class="text-outer-tspan row" x="0" y="-0.1em" dy="1.1em"><tspan font-style="normal" class="text-inner-tspan" font-weight="normal">tzid</tspan></tspan></text></g><g class="label attribute-keys" transform="translate(76.453125, 28.25)" style=""><g><rect class="background" style="stroke: none"></rect></g><text y="-10.1" style=""><tspan class="text-outer-tspan row" x="0" y="-0.1em" dy="1.1em"></tspan></text></g><g class="label attribute-comment" transform="translate(119.59375, 28.25)" style=""><g><rect class="background" style="stroke: none"></rect></g><text y="-10.1" style=""><tspan class="text-outer-tspan row" x="0" y="-0.1em" dy="1.1em"></tspan></text></g><g class="label attribute-type" transform="translate(-94.59375, 66)" style=""><g><rect class="background" style="stroke: none"></rect></g><text y="-10.1" style=""><tspan class="text-outer-tspan row" x="0" y="-0.1em" dy="1.1em"><tspan font-style="normal" class="text-inner-tspan" font-weight="normal">bigint</tspan></tspan></text></g><g class="label attribute-name" transform="translate(-28.4375, 66)" style=""><g><rect class="background" style="stroke: none"></rect></g><text y="-10.1" style=""><tspan class="text-outer-tspan row" x="0" y="-0.1em" dy="1.1em"><tspan font-style="normal" class="text-inner-tspan" font-weight="normal">sync_token</tspan></tspan></text></g><g class="label attribute-keys" transform="translate(76.453125, 66)" style=""><g><rect class="background" style="stroke: none"></rect></g><text y="-10.1" style=""><tspan class="text-outer-tspan row" x="0" y="-0.1em" dy="1.1em"></tspan></text></g><g class="label attribute-comment" transform="translate(119.59375, 66)" style=""><g><rect class="background" style="stroke: none"></rect></g><text y="-10.1" style=""><tspan class="text-outer-tspan row" x="0" y="-0.1em" dy="1.1em"></tspan></text></g><g class="divider"><path d="M-107.09375 -56.62505 L-107.09375 -56.62495 L107.09375 -56.62495 L107.09375 -56.62505" stroke="none" stroke-width="0" fill="#ECECFF" fill-rule="evenodd"></path><path d="M-107.09375 -56.62505 C-107.09375 -56.62502469002476, -107.09375 -56.62499938004952, -107.09375 -56.62495 M-107.09375 -56.62505 C-107.09375 -56.62502036218692, -107.09375 -56.62499072437384, -107.09375 -56.62495 M-107.09375 -56.62495 C-26.600953748599025 -56.62495, 53.89184250280195 -56.62495, 107.09375 -56.62495 M-107.09375 -56.62495 C-28.254514278669802 -56.62495, 50.584721442660395 -56.62495, 107.09375 -56.62495 M107.09375 -56.62495 C107.09375 -56.624978541828895, 107.09375 -56.625007083657785, 107.09375 -56.62505 M107.09375 -56.62495 C107.09375 -56.624986454214024, 107.09375 -56.62502290842805, 107.09375 -56.62505 M107.09375 -56.62505 C21.817809083292417 -56.62505, -63.458131833415166 -56.62505, -107.09375 -56.62505 M107.09375 -56.62505 C59.30321333098619 -56.62505, 11.512676661972378 -56.62505, -107.09375 -56.62505" stroke="#9370DB" stroke-width="1.3" fill="none" stroke-dasharray="0 0"></path></g><g class="divider"><path d="M-40.93755 -56.625 L-40.93745 -56.625 L-40.93745 94.375 L-40.93755 94.375" stroke="none" stroke-width="0" fill="#ECECFF" fill-rule="evenodd"></path><path d="M-40.93755 -56.625 C-40.93752225554636 -56.625, -40.93749451109273 -56.625, -40.93745 -56.625 M-40.93755 -56.625 C-40.937528031950535 -56.625, -40.93750606390106 -56.625, -40.93745 -56.625 M-40.93745 -56.625 C-40.93745 -6.53063056988745, -40.93745 43.5637388602251, -40.93745 94.375 M-40.93745 -56.625 C-40.93745 -22.688140005227773, -40.93745 11.248719989544455, -40.93745 94.375 M-40.93745 94.375 C-40.937474020604576 94.375, -40.93749804120915 94.375, -40.93755 94.375 M-40.93745 94.375 C-40.93748679555857 94.375, -40.93752359111715 94.375, -40.93755 94.375 M-40.93755 94.375 C-40.93755 58.55032483747101, -40.93755 22.72564967494202, -40.93755 -56.625 M-40.93755 94.375 C-40.93755 38.54054581237941, -40.93755 -17.293908375241173, -40.93755 -56.625" stroke="#9370DB" stroke-width="1.3" fill="none" stroke-dasharray="0 0"></path></g><g class="divider"><path d="M63.953075 -56.625 L63.953175 -56.625 L63.953175 94.375 L63.953075 94.375" stroke="none" stroke-width="0" fill="#ECECFF" fill-rule="evenodd"></path><path d="M63.953075 -56.625 C63.953096923798554 -56.625, 63.95311884759711 -56.625, 63.953175 -56.625 M63.953075 -56.625 C63.953102692389685 -56.625, 63.95313038477937 -56.625, 63.953175 -56.625 M63.953175 -56.625 C63.953175 -3.7066952924799352, 63.953175 49.21160941504013, 63.953175 94.375 M63.953175 -56.625 C63.953175 -7.331493538955975, 63.953175 41.96201292208805, 63.953175 94.375 M63.953175 94.375 C63.95315187439 94.375, 63.953128748779996 94.375, 63.953075 94.375 M63.953175 94.375 C63.95315155532702 94.375, 63.953128110654035 94.375, 63.953075 94.375 M63.953075 94.375 C63.953075 59.472964233893805, 63.953075 24.57092846778761, 63.953075 -56.625 M63.953075 94.375 C63.953075 43.58110915949253, 63.953075 -7.212781681014945, 63.953075 -56.625" stroke="#9370DB" stroke-width="1.3" fill="none" stroke-dasharray="0 0"></path></g><g class="divider"><path d="M-107.09375 -56.62505 L-107.09375 -56.62495 L107.09375 -56.62495 L107.09375 -56.62505" stroke="none" stroke-width="0" fill="#ECECFF" fill-rule="evenodd"></path><path d="M-107.09375 -56.62505 C-107.09375 -56.62502495041195, -107.09375 -56.6249999008239, -107.09375 -56.62495 M-107.09375 -56.62505 C-107.09375 -56.625019888936386, -107.09375 -56.62498977787276, -107.09375 -56.62495 M-107.09375 -56.62495 C-60.53501993740726 -56.62495, -13.976289874814526 -56.62495, 107.09375 -56.62495 M-107.09375 -56.62495 C-29.79899327836904 -56.62495, 47.49576344326192 -56.62495, 107.09375 -56.62495 M107.09375 -56.62495 C107.09375 -56.624984376020365, 107.09375 -56.62501875204073, 107.09375 -56.62505 M107.09375 -56.62495 C107.09375 -56.62498909671366, 107.09375 -56.625028193427326, 107.09375 -56.62505 M107.09375 -56.62505 C39.341094268983284 -56.62505, -28.411561462033433 -56.62505, -107.09375 -56.62505 M107.09375 -56.62505 C33.10911044453441 -56.62505, -40.87552911093118 -56.62505, -107.09375 -56.62505" stroke="#9370DB" stroke-width="1.3" fill="none" stroke-dasharray="0 0"></path></g></g><g class="node default" id="g59002776-9489-4adf-abb8-8d82f2806a34-light-entity-EVENTS-1" data-look="classic" transform="translate(455.50390625, 488.5)"><g class="outer-path" style=""><path d="M-168.046875 -188.75 L168.046875 -188.75 L168.046875 188.75 L-168.046875 188.75" stroke="none" stroke-width="0" fill="#ECECFF"></path><path d="M-168.046875 -188.75 C-92.13592848475582 -188.75, -16.224981969511646 -188.75, 168.046875 -188.75 M-168.046875 -188.75 C-64.63934855969164 -188.75, 38.76817788061672 -188.75, 168.046875 -188.75 M168.046875 -188.75 C168.046875 -84.02649593381454, 168.046875 20.69700813237091, 168.046875 188.75 M168.046875 -188.75 C168.046875 -79.08063043860747, 168.046875 30.588739122785057, 168.046875 188.75 M168.046875 188.75 C35.24000356784438 188.75, -97.56686786431123 188.75, -168.046875 188.75 M168.046875 188.75 C44.110665670605286 188.75, -79.82554365878943 188.75, -168.046875 188.75 M-168.046875 188.75 C-168.046875 82.11941560307713, -168.046875 -24.51116879384574, -168.046875 -188.75 M-168.046875 188.75 C-168.046875 70.730756843721, -168.046875 -47.28848631255801, -168.046875 -188.75" stroke="#9370DB" stroke-width="1.3" fill="none" stroke-dasharray="0 0"></path></g><g style="" class="row-rect-odd"><path d="M-168.046875 -151 L168.046875 -151 L168.046875 -113.25 L-168.046875 -113.25" stroke="none" stroke-width="0" fill="hsl(240, 100%, 100%)"></path><path d="M-168.046875 -151 C-94.0771729243884 -151, -20.107470848776813 -151, 168.046875 -151 M-168.046875 -151 C-45.306894041260534 -151, 77.43308691747893 -151, 168.046875 -151 M168.046875 -151 C168.046875 -140.0803775297487, 168.046875 -129.16075505949738, 168.046875 -113.25 M168.046875 -151 C168.046875 -137.6551124368805, 168.046875 -124.31022487376099, 168.046875 -113.25 M168.046875 -113.25 C70.82995416290453 -113.25, -26.386966674190944 -113.25, -168.046875 -113.25 M168.046875 -113.25 C82.7454325343065 -113.25, -2.5560099313869955 -113.25, -168.046875 -113.25 M-168.046875 -113.25 C-168.046875 -122.33297252454157, -168.046875 -131.41594504908315, -168.046875 -151 M-168.046875 -113.25 C-168.046875 -121.29276201737224, -168.046875 -129.33552403474448, -168.046875 -151" stroke="#9370DB" stroke-width="1.3" fill="none" stroke-dasharray="0 0"></path></g><g style="" class="row-rect-even"><path d="M-168.046875 -113.25 L168.046875 -113.25 L168.046875 -75.5 L-168.046875 -75.5" stroke="none" stroke-width="0" fill="hsl(240, 100%, 97.2745098039%)"></path><path d="M-168.046875 -113.25 C-60.22693045798468 -113.25, 47.59301408403064 -113.25, 168.046875 -113.25 M-168.046875 -113.25 C-66.77892136370028 -113.25, 34.489032272599445 -113.25, 168.046875 -113.25 M168.046875 -113.25 C168.046875 -105.4551290674091, 168.046875 -97.66025813481822, 168.046875 -75.5 M168.046875 -113.25 C168.046875 -100.8215673291848, 168.046875 -88.39313465836959, 168.046875 -75.5 M168.046875 -75.5 C74.60768806564619 -75.5, -18.831498868707627 -75.5, -168.046875 -75.5 M168.046875 -75.5 C95.05579968620229 -75.5, 22.064724372404584 -75.5, -168.046875 -75.5 M-168.046875 -75.5 C-168.046875 -85.50716150150134, -168.046875 -95.5143230030027, -168.046875 -113.25 M-168.046875 -75.5 C-168.046875 -84.10573169056534, -168.046875 -92.71146338113066, -168.046875 -113.25" stroke="#9370DB" stroke-width="1.3" fill="none" stroke-dasharray="0 0"></path></g><g style="" class="row-rect-odd"><path d="M-168.046875 -75.5 L168.046875 -75.5 L168.046875 -37.75 L-168.046875 -37.75" stroke="none" stroke-width="0" fill="hsl(240, 100%, 100%)"></path><path d="M-168.046875 -75.5 C-93.59949260282224 -75.5, -19.152110205644476 -75.5, 168.046875 -75.5 M-168.046875 -75.5 C-96.80875930603345 -75.5, -25.570643612066903 -75.5, 168.046875 -75.5 M168.046875 -75.5 C168.046875 -64.14459514008014, 168.046875 -52.78919028016027, 168.046875 -37.75 M168.046875 -75.5 C168.046875 -60.59000523183077, 168.046875 -45.680010463661546, 168.046875 -37.75 M168.046875 -37.75 C45.553883607436745 -37.75, -76.93910778512651 -37.75, -168.046875 -37.75 M168.046875 -37.75 C34.50448348463968 -37.75, -99.03790803072064 -37.75, -168.046875 -37.75 M-168.046875 -37.75 C-168.046875 -49.31111901690939, -168.046875 -60.872238033818775, -168.046875 -75.5 M-168.046875 -37.75 C-168.046875 -45.493091346349274, -168.046875 -53.23618269269855, -168.046875 -75.5" stroke="#9370DB" stroke-width="1.3" fill="none" stroke-dasharray="0 0"></path></g><g style="" class="row-rect-even"><path d="M-168.046875 -37.75 L168.046875 -37.75 L168.046875 0 L-168.046875 0" stroke="none" stroke-width="0" fill="hsl(240, 100%, 97.2745098039%)"></path><path d="M-168.046875 -37.75 C-67.54027582238388 -37.75, 32.96632335523225 -37.75, 168.046875 -37.75 M-168.046875 -37.75 C-48.49944304659168 -37.75, 71.04798890681664 -37.75, 168.046875 -37.75 M168.046875 -37.75 C168.046875 -28.45895571405849, 168.046875 -19.16791142811698, 168.046875 0 M168.046875 -37.75 C168.046875 -27.68395461309367, 168.046875 -17.61790922618734, 168.046875 0 M168.046875 0 C67.31954364071844 0, -33.40778771856313 0, -168.046875 0 M168.046875 0 C51.9287903273688 0, -64.1892943452624 0, -168.046875 0 M-168.046875 0 C-168.046875 -9.562210768886617, -168.046875 -19.124421537773234, -168.046875 -37.75 M-168.046875 0 C-168.046875 -11.633673787414303, -168.046875 -23.267347574828605, -168.046875 -37.75" stroke="#9370DB" stroke-width="1.3" fill="none" stroke-dasharray="0 0"></path></g><g style="" class="row-rect-odd"><path d="M-168.046875 0 L168.046875 0 L168.046875 37.75 L-168.046875 37.75" stroke="none" stroke-width="0" fill="hsl(240, 100%, 100%)"></path><path d="M-168.046875 0 C-82.31260560227079 0, 3.4216637954584144 0, 168.046875 0 M-168.046875 0 C-55.71048009547523 0, 56.62591480904953 0, 168.046875 0 M168.046875 0 C168.046875 8.593823281534243, 168.046875 17.187646563068487, 168.046875 37.75 M168.046875 0 C168.046875 14.0344933453079, 168.046875 28.0689866906158, 168.046875 37.75 M168.046875 37.75 C40.87781895373929 37.75, -86.29123709252141 37.75, -168.046875 37.75 M168.046875 37.75 C83.74902764174843 37.75, -0.5488197165031465 37.75, -168.046875 37.75 M-168.046875 37.75 C-168.046875 26.83194405003734, -168.046875 15.91388810007468, -168.046875 0 M-168.046875 37.75 C-168.046875 23.13509328605162, -168.046875 8.520186572103238, -168.046875 0" stroke="#9370DB" stroke-width="1.3" fill="none" stroke-dasharray="0 0"></path></g><g style="" class="row-rect-even"><path d="M-168.046875 37.75 L168.046875 37.75 L168.046875 75.5 L-168.046875 75.5" stroke="none" stroke-width="0" fill="hsl(240, 100%, 97.2745098039%)"></path><path d="M-168.046875 37.75 C-66.38897599134968 37.75, 35.26892301730064 37.75, 168.046875 37.75 M-168.046875 37.75 C-37.309048526419815 37.75, 93.42877794716037 37.75, 168.046875 37.75 M168.046875 37.75 C168.046875 46.59896854874992, 168.046875 55.447937097499846, 168.046875 75.5 M168.046875 37.75 C168.046875 51.27448729465511, 168.046875 64.79897458931022, 168.046875 75.5 M168.046875 75.5 C35.19229930602185 75.5, -97.6622763879563 75.5, -168.046875 75.5 M168.046875 75.5 C89.844665671814 75.5, 11.642456343627998 75.5, -168.046875 75.5 M-168.046875 75.5 C-168.046875 63.32523933751248, -168.046875 51.15047867502496, -168.046875 37.75 M-168.046875 75.5 C-168.046875 64.70226310115623, -168.046875 53.90452620231248, -168.046875 37.75" stroke="#9370DB" stroke-width="1.3" fill="none" stroke-dasharray="0 0"></path></g><g style="" class="row-rect-odd"><path d="M-168.046875 75.5 L168.046875 75.5 L168.046875 113.25 L-168.046875 113.25" stroke="none" stroke-width="0" fill="hsl(240, 100%, 100%)"></path><path d="M-168.046875 75.5 C-33.91677802529745 75.5, 100.2133189494051 75.5, 168.046875 75.5 M-168.046875 75.5 C-34.26810228325368 75.5, 99.51067043349263 75.5, 168.046875 75.5 M168.046875 75.5 C168.046875 88.63538585925157, 168.046875 101.77077171850314, 168.046875 113.25 M168.046875 75.5 C168.046875 83.34422388630318, 168.046875 91.18844777260638, 168.046875 113.25 M168.046875 113.25 C92.54282914767842 113.25, 17.038783295356836 113.25, -168.046875 113.25 M168.046875 113.25 C62.76647816489154 113.25, -42.513918670216924 113.25, -168.046875 113.25 M-168.046875 113.25 C-168.046875 102.98505749039053, -168.046875 92.72011498078106, -168.046875 75.5 M-168.046875 113.25 C-168.046875 100.20407272580591, -168.046875 87.15814545161182, -168.046875 75.5" stroke="#9370DB" stroke-width="1.3" fill="none" stroke-dasharray="0 0"></path></g><g style="" class="row-rect-even"><path d="M-168.046875 113.25 L168.046875 113.25 L168.046875 151 L-168.046875 151" stroke="none" stroke-width="0" fill="hsl(240, 100%, 97.2745098039%)"></path><path d="M-168.046875 113.25 C-41.5682130812378 113.25, 84.9104488375244 113.25, 168.046875 113.25 M-168.046875 113.25 C-67.82932965505441 113.25, 32.38821568989118 113.25, 168.046875 113.25 M168.046875 113.25 C168.046875 127.72111719740263, 168.046875 142.19223439480527, 168.046875 151 M168.046875 113.25 C168.046875 123.50530654714005, 168.046875 133.7606130942801, 168.046875 151 M168.046875 151 C73.68003831659578 151, -20.686798366808432 151, -168.046875 151 M168.046875 151 C59.201666696959705 151, -49.64354160608059 151, -168.046875 151 M-168.046875 151 C-168.046875 137.12045083455757, -168.046875 123.24090166911515, -168.046875 113.25 M-168.046875 151 C-168.046875 136.0338531394487, -168.046875 121.06770627889739, -168.046875 113.25" stroke="#9370DB" stroke-width="1.3" fill="none" stroke-dasharray="0 0"></path></g><g style="" class="row-rect-odd"><path d="M-168.046875 151 L168.046875 151 L168.046875 188.75 L-168.046875 188.75" stroke="none" stroke-width="0" fill="hsl(240, 100%, 100%)"></path><path d="M-168.046875 151 C-86.30863029723649 151, -4.570385594472981 151, 168.046875 151 M-168.046875 151 C-40.70139337418156 151, 86.64408825163687 151, 168.046875 151 M168.046875 151 C168.046875 160.8156122338388, 168.046875 170.63122446767764, 168.046875 188.75 M168.046875 151 C168.046875 165.18955226321643, 168.046875 179.37910452643283, 168.046875 188.75 M168.046875 188.75 C50.968060781029024 188.75, -66.11075343794195 188.75, -168.046875 188.75 M168.046875 188.75 C59.34486726815493 188.75, -49.35714046369014 188.75, -168.046875 188.75 M-168.046875 188.75 C-168.046875 181.08352005004986, -168.046875 173.4170401000997, -168.046875 151 M-168.046875 188.75 C-168.046875 176.88182914701767, -168.046875 165.01365829403537, -168.046875 151" stroke="#9370DB" stroke-width="1.3" fill="none" stroke-dasharray="0 0"></path></g><g class="label name" transform="translate(-26.8671875, -179.375)" style=""><g><rect class="background" style="stroke: none"></rect></g><text y="-10.1" style=""><tspan class="text-outer-tspan row" x="0" y="-0.1em" dy="1.1em"><tspan font-style="normal" class="text-inner-tspan" font-weight="normal">EVENTS</tspan></tspan></text></g><g class="label attribute-type" transform="translate(-155.546875, -141.625)" style=""><g><rect class="background" style="stroke: none"></rect></g><text y="-10.1" style=""><tspan class="text-outer-tspan row" x="0" y="-0.1em" dy="1.1em"><tspan font-style="normal" class="text-inner-tspan" font-weight="normal">uuid</tspan></tspan></text></g><g class="label attribute-name" transform="translate(-54.203125, -141.625)" style=""><g><rect class="background" style="stroke: none"></rect></g><text y="-10.1" style=""><tspan class="text-outer-tspan row" x="0" y="-0.1em" dy="1.1em"><tspan font-style="normal" class="text-inner-tspan" font-weight="normal">id</tspan></tspan></text></g><g class="label attribute-keys" transform="translate(54.71875, -141.625)" style=""><g><rect class="background" style="stroke: none"></rect></g><text y="-10.1" style=""><tspan class="text-outer-tspan row" x="0" y="-0.1em" dy="1.1em"><tspan font-style="normal" class="text-inner-tspan" font-weight="normal">PK</tspan></tspan></text></g><g class="label attribute-comment" transform="translate(97.859375, -141.625)" style=""><g><rect class="background" style="stroke: none"></rect></g><text y="-10.1" style=""><tspan class="text-outer-tspan row" x="0" y="-0.1em" dy="1.1em"></tspan></text></g><g class="label attribute-type" transform="translate(-155.546875, -103.875)" style=""><g><rect class="background" style="stroke: none"></rect></g><text y="-10.1" style=""><tspan class="text-outer-tspan row" x="0" y="-0.1em" dy="1.1em"><tspan font-style="normal" class="text-inner-tspan" font-weight="normal">uuid</tspan></tspan></text></g><g class="label attribute-name" transform="translate(-54.203125, -103.875)" style=""><g><rect class="background" style="stroke: none"></rect></g><text y="-10.1" style=""><tspan class="text-outer-tspan row" x="0" y="-0.1em" dy="1.1em"><tspan font-style="normal" class="text-inner-tspan" font-weight="normal">calendar_id</tspan></tspan></text></g><g class="label attribute-keys" transform="translate(54.71875, -103.875)" style=""><g><rect class="background" style="stroke: none"></rect></g><text y="-10.1" style=""><tspan class="text-outer-tspan row" x="0" y="-0.1em" dy="1.1em"><tspan font-style="normal" class="text-inner-tspan" font-weight="normal">FK</tspan></tspan></text></g><g class="label attribute-comment" transform="translate(97.859375, -103.875)" style=""><g><rect class="background" style="stroke: none"></rect></g><text y="-10.1" style=""><tspan class="text-outer-tspan row" x="0" y="-0.1em" dy="1.1em"></tspan></text></g><g class="label attribute-type" transform="translate(-155.546875, -66.125)" style=""><g><rect class="background" style="stroke: none"></rect></g><text y="-10.1" style=""><tspan class="text-outer-tspan row" x="0" y="-0.1em" dy="1.1em"><tspan font-style="normal" class="text-inner-tspan" font-weight="normal">string</tspan></tspan></text></g><g class="label attribute-name" transform="translate(-54.203125, -66.125)" style=""><g><rect class="background" style="stroke: none"></rect></g><text y="-10.1" style=""><tspan class="text-outer-tspan row" x="0" y="-0.1em" dy="1.1em"><tspan font-style="normal" class="text-inner-tspan" font-weight="normal">ical_uid</tspan></tspan></text></g><g class="label attribute-keys" transform="translate(54.71875, -66.125)" style=""><g><rect class="background" style="stroke: none"></rect></g><text y="-10.1" style=""><tspan class="text-outer-tspan row" x="0" y="-0.1em" dy="1.1em"></tspan></text></g><g class="label attribute-comment" transform="translate(97.859375, -66.125)" style=""><g><rect class="background" style="stroke: none"></rect></g><text y="-10.1" style=""><tspan class="text-outer-tspan row" x="0" y="-0.1em" dy="1.1em"></tspan></text></g><g class="label attribute-type" transform="translate(-155.546875, -28.375)" style=""><g><rect class="background" style="stroke: none"></rect></g><text y="-10.1" style=""><tspan class="text-outer-tspan row" x="0" y="-0.1em" dy="1.1em"><tspan font-style="normal" class="text-inner-tspan" font-weight="normal">timestamp</tspan></tspan></text></g><g class="label attribute-name" transform="translate(-54.203125, -28.375)" style=""><g><rect class="background" style="stroke: none"></rect></g><text y="-10.1" style=""><tspan class="text-outer-tspan row" x="0" y="-0.1em" dy="1.1em"><tspan font-style="normal" class="text-inner-tspan" font-weight="normal">start_local</tspan></tspan></text></g><g class="label attribute-keys" transform="translate(54.71875, -28.375)" style=""><g><rect class="background" style="stroke: none"></rect></g><text y="-10.1" style=""><tspan class="text-outer-tspan row" x="0" y="-0.1em" dy="1.1em"></tspan></text></g><g class="label attribute-comment" transform="translate(97.859375, -28.375)" style=""><g><rect class="background" style="stroke: none"></rect></g><text y="-10.1" style=""><tspan class="text-outer-tspan row" x="0" y="-0.1em" dy="1.1em"></tspan></text></g><g class="label attribute-type" transform="translate(-155.546875, 9.375)" style=""><g><rect class="background" style="stroke: none"></rect></g><text y="-10.1" style=""><tspan class="text-outer-tspan row" x="0" y="-0.1em" dy="1.1em"><tspan font-style="normal" class="text-inner-tspan" font-weight="normal">string</tspan></tspan></text></g><g class="label attribute-name" transform="translate(-54.203125, 9.375)" style=""><g><rect class="background" style="stroke: none"></rect></g><text y="-10.1" style=""><tspan class="text-outer-tspan row" x="0" y="-0.1em" dy="1.1em"><tspan font-style="normal" class="text-inner-tspan" font-weight="normal">tzid</tspan></tspan></text></g><g class="label attribute-keys" transform="translate(54.71875, 9.375)" style=""><g><rect class="background" style="stroke: none"></rect></g><text y="-10.1" style=""><tspan class="text-outer-tspan row" x="0" y="-0.1em" dy="1.1em"></tspan></text></g><g class="label attribute-comment" transform="translate(97.859375, 9.375)" style=""><g><rect class="background" style="stroke: none"></rect></g><text y="-10.1" style=""><tspan class="text-outer-tspan row" x="0" y="-0.1em" dy="1.1em"></tspan></text></g><g class="label attribute-type" transform="translate(-155.546875, 47.125)" style=""><g><rect class="background" style="stroke: none"></rect></g><text y="-10.1" style=""><tspan class="text-outer-tspan row" x="0" y="-0.1em" dy="1.1em"><tspan font-style="normal" class="text-inner-tspan" font-weight="normal">string</tspan></tspan></text></g><g class="label attribute-name" transform="translate(-54.203125, 47.125)" style=""><g><rect class="background" style="stroke: none"></rect></g><text y="-10.1" style=""><tspan class="text-outer-tspan row" x="0" y="-0.1em" dy="1.1em"><tspan font-style="normal" class="text-inner-tspan" font-weight="normal">rrule</tspan></tspan></text></g><g class="label attribute-keys" transform="translate(54.71875, 47.125)" style=""><g><rect class="background" style="stroke: none"></rect></g><text y="-10.1" style=""><tspan class="text-outer-tspan row" x="0" y="-0.1em" dy="1.1em"></tspan></text></g><g class="label attribute-comment" transform="translate(97.859375, 47.125)" style=""><g><rect class="background" style="stroke: none"></rect></g><text y="-10.1" style=""><tspan class="text-outer-tspan row" x="0" y="-0.1em" dy="1.1em"><tspan font-style="normal" class="text-inner-tspan" font-weight="normal">nullable</tspan></tspan></text></g><g class="label attribute-type" transform="translate(-155.546875, 84.875)" style=""><g><rect class="background" style="stroke: none"></rect></g><text y="-10.1" style=""><tspan class="text-outer-tspan row" x="0" y="-0.1em" dy="1.1em"><tspan font-style="normal" class="text-inner-tspan" font-weight="normal">text_array</tspan></tspan></text></g><g class="label attribute-name" transform="translate(-54.203125, 84.875)" style=""><g><rect class="background" style="stroke: none"></rect></g><text y="-10.1" style=""><tspan class="text-outer-tspan row" x="0" y="-0.1em" dy="1.1em"><tspan font-style="normal" class="text-inner-tspan" font-weight="normal">exdate</tspan></tspan></text></g><g class="label attribute-keys" transform="translate(54.71875, 84.875)" style=""><g><rect class="background" style="stroke: none"></rect></g><text y="-10.1" style=""><tspan class="text-outer-tspan row" x="0" y="-0.1em" dy="1.1em"></tspan></text></g><g class="label attribute-comment" transform="translate(97.859375, 84.875)" style=""><g><rect class="background" style="stroke: none"></rect></g><text y="-10.1" style=""><tspan class="text-outer-tspan row" x="0" y="-0.1em" dy="1.1em"></tspan></text></g><g class="label attribute-type" transform="translate(-155.546875, 122.625)" style=""><g><rect class="background" style="stroke: none"></rect></g><text y="-10.1" style=""><tspan class="text-outer-tspan row" x="0" y="-0.1em" dy="1.1em"><tspan font-style="normal" class="text-inner-tspan" font-weight="normal">text_array</tspan></tspan></text></g><g class="label attribute-name" transform="translate(-54.203125, 122.625)" style=""><g><rect class="background" style="stroke: none"></rect></g><text y="-10.1" style=""><tspan class="text-outer-tspan row" x="0" y="-0.1em" dy="1.1em"><tspan font-style="normal" class="text-inner-tspan" font-weight="normal">rdate</tspan></tspan></text></g><g class="label attribute-keys" transform="translate(54.71875, 122.625)" style=""><g><rect class="background" style="stroke: none"></rect></g><text y="-10.1" style=""><tspan class="text-outer-tspan row" x="0" y="-0.1em" dy="1.1em"></tspan></text></g><g class="label attribute-comment" transform="translate(97.859375, 122.625)" style=""><g><rect class="background" style="stroke: none"></rect></g><text y="-10.1" style=""><tspan class="text-outer-tspan row" x="0" y="-0.1em" dy="1.1em"></tspan></text></g><g class="label attribute-type" transform="translate(-155.546875, 160.375)" style=""><g><rect class="background" style="stroke: none"></rect></g><text y="-10.1" style=""><tspan class="text-outer-tspan row" x="0" y="-0.1em" dy="1.1em"><tspan font-style="normal" class="text-inner-tspan" font-weight="normal">int</tspan></tspan></text></g><g class="label attribute-name" transform="translate(-54.203125, 160.375)" style=""><g><rect class="background" style="stroke: none"></rect></g><text y="-10.1" style=""><tspan class="text-outer-tspan row" x="0" y="-0.1em" dy="1.1em"><tspan font-style="normal" class="text-inner-tspan" font-weight="normal">sequence</tspan></tspan></text></g><g class="label attribute-keys" transform="translate(54.71875, 160.375)" style=""><g><rect class="background" style="stroke: none"></rect></g><text y="-10.1" style=""><tspan class="text-outer-tspan row" x="0" y="-0.1em" dy="1.1em"></tspan></text></g><g class="label attribute-comment" transform="translate(97.859375, 160.375)" style=""><g><rect class="background" style="stroke: none"></rect></g><text y="-10.1" style=""><tspan class="text-outer-tspan row" x="0" y="-0.1em" dy="1.1em"></tspan></text></g><g class="divider"><path d="M-168.046875 -151.00005 L-168.046875 -150.99995 L168.046875 -150.99995 L168.046875 -151.00005" stroke="none" stroke-width="0" fill="#ECECFF" fill-rule="evenodd"></path><path d="M-168.046875 -151.00005 C-168.046875 -151.00002813088807, -168.046875 -151.00000626177612, -168.046875 -150.99995 M-168.046875 -151.00005 C-168.046875 -151.00002221212384, -168.046875 -150.9999944242477, -168.046875 -150.99995 M-168.046875 -150.99995 C-42.97607986821848 -150.99995, 82.09471526356305 -150.99995, 168.046875 -150.99995 M-168.046875 -150.99995 C-36.76010085192664 -150.99995, 94.52667329614673 -150.99995, 168.046875 -150.99995 M168.046875 -150.99995 C168.046875 -150.9999773521433, 168.046875 -151.0000047042866, 168.046875 -151.00005 M168.046875 -150.99995 C168.046875 -150.99998439531683, 168.046875 -151.00001879063365, 168.046875 -151.00005 M168.046875 -151.00005 C46.15623248173263 -151.00005, -75.73441003653474 -151.00005, -168.046875 -151.00005 M168.046875 -151.00005 C71.24339963011855 -151.00005, -25.560075739762908 -151.00005, -168.046875 -151.00005" stroke="#9370DB" stroke-width="1.3" fill="none" stroke-dasharray="0 0"></path></g><g class="divider"><path d="M-66.703175 -151 L-66.703075 -151 L-66.703075 188.75 L-66.703175 188.75" stroke="none" stroke-width="0" fill="#ECECFF" fill-rule="evenodd"></path><path d="M-66.703175 -151 C-66.70314332721965 -151, -66.70311165443931 -151, -66.703075 -151 M-66.703175 -151 C-66.70313967974461 -151, -66.70310435948922 -151, -66.703075 -151 M-66.703075 -151 C-66.703075 -61.4744920467777, -66.703075 28.051015906444604, -66.703075 188.75 M-66.703075 -151 C-66.703075 -18.046522632923427, -66.703075 114.90695473415315, -66.703075 188.75 M-66.703075 188.75 C-66.70310113591614 188.75, -66.70312727183227 188.75, -66.703175 188.75 M-66.703075 188.75 C-66.70311206683708 188.75, -66.70314913367416 188.75, -66.703175 188.75 M-66.703175 188.75 C-66.703175 102.83160599437129, -66.703175 16.913211988742574, -66.703175 -151 M-66.703175 188.75 C-66.703175 105.08603440421793, -66.703175 21.422068808435853, -66.703175 -151" stroke="#9370DB" stroke-width="1.3" fill="none" stroke-dasharray="0 0"></path></g><g class="divider"><path d="M42.2187 -151 L42.2188 -151 L42.2188 188.75 L42.2187 188.75" stroke="none" stroke-width="0" fill="#ECECFF" fill-rule="evenodd"></path><path d="M42.2187 -151 C42.218738768961295 -151, 42.21877753792259 -151, 42.2188 -151 M42.2187 -151 C42.218722798667024 -151, 42.21874559733404 -151, 42.2188 -151 M42.2188 -151 C42.2188 -46.73966901483645, 42.2188 57.5206619703271, 42.2188 188.75 M42.2188 -151 C42.2188 -25.729022937867313, 42.2188 99.54195412426537, 42.2188 188.75 M42.2188 188.75 C42.218765073455025 188.75, 42.21873014691004 188.75, 42.2187 188.75 M42.2188 188.75 C42.21877781418342 188.75, 42.218755628366836 188.75, 42.2187 188.75 M42.2187 188.75 C42.2187 64.61313876946089, 42.2187 -59.52372246107822, 42.2187 -151 M42.2187 188.75 C42.2187 117.40706358322787, 42.2187 46.064127166455734, 42.2187 -151" stroke="#9370DB" stroke-width="1.3" fill="none" stroke-dasharray="0 0"></path></g><g class="divider"><path d="M85.359325 -151 L85.359425 -151 L85.359425 188.75 L85.359325 188.75" stroke="none" stroke-width="0" fill="#ECECFF" fill-rule="evenodd"></path><path d="M85.359325 -151 C85.35935408482347 -151, 85.35938316964693 -151, 85.359425 -151 M85.359325 -151 C85.35936305543757 -151, 85.35940111087514 -151, 85.359425 -151 M85.359425 -151 C85.359425 -56.80591557137649, 85.359425 37.388168857247024, 85.359425 188.75 M85.359425 -151 C85.359425 -57.83522221652855, 85.359425 35.3295555669429, 85.359425 188.75 M85.359425 188.75 C85.35938811898494 188.75, 85.35935123796986 188.75, 85.359325 188.75 M85.359425 188.75 C85.35940490239417 188.75, 85.35938480478836 188.75, 85.359325 188.75 M85.359325 188.75 C85.359325 108.4699658471818, 85.359325 28.189931694363594, 85.359325 -151 M85.359325 188.75 C85.359325 65.77276953768032, 85.359325 -57.20446092463936, 85.359325 -151" stroke="#9370DB" stroke-width="1.3" fill="none" stroke-dasharray="0 0"></path></g><g class="divider"><path d="M-168.046875 -151.00005 L-168.046875 -150.99995 L168.046875 -150.99995 L168.046875 -151.00005" stroke="none" stroke-width="0" fill="#ECECFF" fill-rule="evenodd"></path><path d="M-168.046875 -151.00005 C-168.046875 -151.0000217233791, -168.046875 -150.99999344675817, -168.046875 -150.99995 M-168.046875 -151.00005 C-168.046875 -151.00001098123312, -168.046875 -150.99997196246622, -168.046875 -150.99995 M-168.046875 -150.99995 C-51.90197183430466 -150.99995, 64.24293133139068 -150.99995, 168.046875 -150.99995 M-168.046875 -150.99995 C-62.67338747768345 -150.99995, 42.7001000446331 -150.99995, 168.046875 -150.99995 M168.046875 -150.99995 C168.046875 -150.99997231003678, 168.046875 -150.99999462007355, 168.046875 -151.00005 M168.046875 -150.99995 C168.046875 -150.9999778674113, 168.046875 -151.0000057348226, 168.046875 -151.00005 M168.046875 -151.00005 C94.51460872264619 -151.00005, 20.982342445292375 -151.00005, -168.046875 -151.00005 M168.046875 -151.00005 C80.27906181197068 -151.00005, -7.488751376058644 -151.00005, -168.046875 -151.00005" stroke="#9370DB" stroke-width="1.3" fill="none" stroke-dasharray="0 0"></path></g></g><g class="node default" id="g59002776-9489-4adf-abb8-8d82f2806a34-light-entity-EVENT_INSTANCES-2" data-look="classic" transform="translate(266.5234375, 931.25)"><g class="outer-path" style=""><path d="M-258.5234375 -151 L258.5234375 -151 L258.5234375 151 L-258.5234375 151" stroke="none" stroke-width="0" fill="#ECECFF"></path><path d="M-258.5234375 -151 C-104.582807109259 -151, 49.35782328148201 -151, 258.5234375 -151 M-258.5234375 -151 C-66.80755382607234 -151, 124.90832984785533 -151, 258.5234375 -151 M258.5234375 -151 C258.5234375 -72.2586368615639, 258.5234375 6.482726276872199, 258.5234375 151 M258.5234375 -151 C258.5234375 -78.11901723348639, 258.5234375 -5.238034466972778, 258.5234375 151 M258.5234375 151 C134.2591983478912 151, 9.994959195782428 151, -258.5234375 151 M258.5234375 151 C87.12631763574069 151, -84.27080222851862 151, -258.5234375 151 M-258.5234375 151 C-258.5234375 40.980021598356785, -258.5234375 -69.03995680328643, -258.5234375 -151 M-258.5234375 151 C-258.5234375 86.8538849573509, -258.5234375 22.7077699147018, -258.5234375 -151" stroke="#9370DB" stroke-width="1.3" fill="none" stroke-dasharray="0 0"></path></g><g style="" class="row-rect-odd"><path d="M-258.5234375 -113.25 L258.5234375 -113.25 L258.5234375 -75.5 L-258.5234375 -75.5" stroke="none" stroke-width="0" fill="hsl(240, 100%, 100%)"></path><path d="M-258.5234375 -113.25 C-150.564179643567 -113.25, -42.604921787133975 -113.25, 258.5234375 -113.25 M-258.5234375 -113.25 C-85.93946312887155 -113.25, 86.6445112422569 -113.25, 258.5234375 -113.25 M258.5234375 -113.25 C258.5234375 -103.15483204475267, 258.5234375 -93.05966408950533, 258.5234375 -75.5 M258.5234375 -113.25 C258.5234375 -103.97089152988458, 258.5234375 -94.69178305976918, 258.5234375 -75.5 M258.5234375 -75.5 C72.68932703373216 -75.5, -113.14478343253569 -75.5, -258.5234375 -75.5 M258.5234375 -75.5 C101.2414484233349 -75.5, -56.0405406533302 -75.5, -258.5234375 -75.5 M-258.5234375 -75.5 C-258.5234375 -83.5579258544843, -258.5234375 -91.61585170896859, -258.5234375 -113.25 M-258.5234375 -75.5 C-258.5234375 -87.61861262631308, -258.5234375 -99.73722525262615, -258.5234375 -113.25" stroke="#9370DB" stroke-width="1.3" fill="none" stroke-dasharray="0 0"></path></g><g style="" class="row-rect-even"><path d="M-258.5234375 -75.5 L258.5234375 -75.5 L258.5234375 -37.75 L-258.5234375 -37.75" stroke="none" stroke-width="0" fill="hsl(240, 100%, 97.2745098039%)"></path><path d="M-258.5234375 -75.5 C-127.483967772641 -75.5, 3.555501954718011 -75.5, 258.5234375 -75.5 M-258.5234375 -75.5 C-98.15355279842677 -75.5, 62.216331903146454 -75.5, 258.5234375 -75.5 M258.5234375 -75.5 C258.5234375 -67.3427927767957, 258.5234375 -59.185585553591416, 258.5234375 -37.75 M258.5234375 -75.5 C258.5234375 -62.79860993244935, 258.5234375 -50.097219864898705, 258.5234375 -37.75 M258.5234375 -37.75 C65.92832386012634 -37.75, -126.66678977974732 -37.75, -258.5234375 -37.75 M258.5234375 -37.75 C56.27570796802121 -37.75, -145.97202156395758 -37.75, -258.5234375 -37.75 M-258.5234375 -37.75 C-258.5234375 -50.8689080598168, -258.5234375 -63.98781611963361, -258.5234375 -75.5 M-258.5234375 -37.75 C-258.5234375 -48.73069334799817, -258.5234375 -59.711386695996346, -258.5234375 -75.5" stroke="#9370DB" stroke-width="1.3" fill="none" stroke-dasharray="0 0"></path></g><g style="" class="row-rect-odd"><path d="M-258.5234375 -37.75 L258.5234375 -37.75 L258.5234375 0 L-258.5234375 0" stroke="none" stroke-width="0" fill="hsl(240, 100%, 100%)"></path><path d="M-258.5234375 -37.75 C-96.43200238235787 -37.75, 65.65943273528427 -37.75, 258.5234375 -37.75 M-258.5234375 -37.75 C-64.05897650169277 -37.75, 130.40548449661446 -37.75, 258.5234375 -37.75 M258.5234375 -37.75 C258.5234375 -23.78505670261456, 258.5234375 -9.820113405229122, 258.5234375 0 M258.5234375 -37.75 C258.5234375 -24.39407092537533, 258.5234375 -11.038141850750666, 258.5234375 0 M258.5234375 0 C128.9438201877496 0, -0.6357971245008116 0, -258.5234375 0 M258.5234375 0 C60.97411292592693 0, -136.57521164814614 0, -258.5234375 0 M-258.5234375 0 C-258.5234375 -10.91871833895133, -258.5234375 -21.83743667790266, -258.5234375 -37.75 M-258.5234375 0 C-258.5234375 -13.376072570739359, -258.5234375 -26.752145141478717, -258.5234375 -37.75" stroke="#9370DB" stroke-width="1.3" fill="none" stroke-dasharray="0 0"></path></g><g style="" class="row-rect-even"><path d="M-258.5234375 0 L258.5234375 0 L258.5234375 37.75 L-258.5234375 37.75" stroke="none" stroke-width="0" fill="hsl(240, 100%, 97.2745098039%)"></path><path d="M-258.5234375 0 C-141.62465121378978 0, -24.72586492757955 0, 258.5234375 0 M-258.5234375 0 C-119.45084311125606 0, 19.621751277487874 0, 258.5234375 0 M258.5234375 0 C258.5234375 11.342282055846782, 258.5234375 22.684564111693565, 258.5234375 37.75 M258.5234375 0 C258.5234375 14.525108229090113, 258.5234375 29.050216458180227, 258.5234375 37.75 M258.5234375 37.75 C103.32713592639178 37.75, -51.86916564721645 37.75, -258.5234375 37.75 M258.5234375 37.75 C124.0306266155317 37.75, -10.462184268936596 37.75, -258.5234375 37.75 M-258.5234375 37.75 C-258.5234375 28.59473998710415, -258.5234375 19.439479974208293, -258.5234375 0 M-258.5234375 37.75 C-258.5234375 29.80723997880607, -258.5234375 21.86447995761214, -258.5234375 0" stroke="#9370DB" stroke-width="1.3" fill="none" stroke-dasharray="0 0"></path></g><g style="" class="row-rect-odd"><path d="M-258.5234375 37.75 L258.5234375 37.75 L258.5234375 75.5 L-258.5234375 75.5" stroke="none" stroke-width="0" fill="hsl(240, 100%, 100%)"></path><path d="M-258.5234375 37.75 C-90.66300249792474 37.75, 77.19743250415053 37.75, 258.5234375 37.75 M-258.5234375 37.75 C-130.2731327884057 37.75, -2.022828076811379 37.75, 258.5234375 37.75 M258.5234375 37.75 C258.5234375 46.25934293930278, 258.5234375 54.76868587860556, 258.5234375 75.5 M258.5234375 37.75 C258.5234375 49.83636332615414, 258.5234375 61.922726652308285, 258.5234375 75.5 M258.5234375 75.5 C85.6937193543005 75.5, -87.135998791399 75.5, -258.5234375 75.5 M258.5234375 75.5 C124.25871876352079 75.5, -10.00599997295842 75.5, -258.5234375 75.5 M-258.5234375 75.5 C-258.5234375 62.94557906754702, -258.5234375 50.391158135094045, -258.5234375 37.75 M-258.5234375 75.5 C-258.5234375 65.73308886480672, -258.5234375 55.96617772961342, -258.5234375 37.75" stroke="#9370DB" stroke-width="1.3" fill="none" stroke-dasharray="0 0"></path></g><g style="" class="row-rect-even"><path d="M-258.5234375 75.5 L258.5234375 75.5 L258.5234375 113.25 L-258.5234375 113.25" stroke="none" stroke-width="0" fill="hsl(240, 100%, 97.2745098039%)"></path><path d="M-258.5234375 75.5 C-82.56933011985154 75.5, 93.38477726029691 75.5, 258.5234375 75.5 M-258.5234375 75.5 C-139.40984721729535 75.5, -20.2962569345907 75.5, 258.5234375 75.5 M258.5234375 75.5 C258.5234375 85.04962299728118, 258.5234375 94.59924599456235, 258.5234375 113.25 M258.5234375 75.5 C258.5234375 86.79141577964407, 258.5234375 98.08283155928812, 258.5234375 113.25 M258.5234375 113.25 C119.88218985965423 113.25, -18.759057780691535 113.25, -258.5234375 113.25 M258.5234375 113.25 C64.47392794091022 113.25, -129.57558161817957 113.25, -258.5234375 113.25 M-258.5234375 113.25 C-258.5234375 99.33795829468238, -258.5234375 85.42591658936475, -258.5234375 75.5 M-258.5234375 113.25 C-258.5234375 99.86903480210779, -258.5234375 86.48806960421557, -258.5234375 75.5" stroke="#9370DB" stroke-width="1.3" fill="none" stroke-dasharray="0 0"></path></g><g style="" class="row-rect-odd"><path d="M-258.5234375 113.25 L258.5234375 113.25 L258.5234375 151 L-258.5234375 151" stroke="none" stroke-width="0" fill="hsl(240, 100%, 100%)"></path><path d="M-258.5234375 113.25 C-105.73180376864181 113.25, 47.05982996271638 113.25, 258.5234375 113.25 M-258.5234375 113.25 C-98.37055064328186 113.25, 61.78233621343628 113.25, 258.5234375 113.25 M258.5234375 113.25 C258.5234375 124.10183811034156, 258.5234375 134.95367622068312, 258.5234375 151 M258.5234375 113.25 C258.5234375 126.75753485329851, 258.5234375 140.26506970659702, 258.5234375 151 M258.5234375 151 C84.85023490941887 151, -88.82296768116225 151, -258.5234375 151 M258.5234375 151 C154.14683762751724 151, 49.77023775503446 151, -258.5234375 151 M-258.5234375 151 C-258.5234375 140.1784147657501, -258.5234375 129.35682953150018, -258.5234375 113.25 M-258.5234375 151 C-258.5234375 137.0174960662794, -258.5234375 123.03499213255877, -258.5234375 113.25" stroke="#9370DB" stroke-width="1.3" fill="none" stroke-dasharray="0 0"></path></g><g class="label name" transform="translate(-65.0078125, -141.625)" style=""><g><rect class="background" style="stroke: none"></rect></g><text y="-10.1" style=""><tspan class="text-outer-tspan row" x="0" y="-0.1em" dy="1.1em"><tspan font-style="normal" class="text-inner-tspan" font-weight="normal">EVENT_INSTANCES</tspan></tspan></text></g><g class="label attribute-type" transform="translate(-246.0234375, -103.875)" style=""><g><rect class="background" style="stroke: none"></rect></g><text y="-10.1" style=""><tspan class="text-outer-tspan row" x="0" y="-0.1em" dy="1.1em"><tspan font-style="normal" class="text-inner-tspan" font-weight="normal">uuid</tspan></tspan></text></g><g class="label attribute-name" transform="translate(-130.7421875, -103.875)" style=""><g><rect class="background" style="stroke: none"></rect></g><text y="-10.1" style=""><tspan class="text-outer-tspan row" x="0" y="-0.1em" dy="1.1em"><tspan font-style="normal" class="text-inner-tspan" font-weight="normal">id</tspan></tspan></text></g><g class="label attribute-keys" transform="translate(27.7578125, -103.875)" style=""><g><rect class="background" style="stroke: none"></rect></g><text y="-10.1" style=""><tspan class="text-outer-tspan row" x="0" y="-0.1em" dy="1.1em"><tspan font-style="normal" class="text-inner-tspan" font-weight="normal">PK</tspan></tspan></text></g><g class="label attribute-comment" transform="translate(70.8984375, -103.875)" style=""><g><rect class="background" style="stroke: none"></rect></g><text y="-10.1" style=""><tspan class="text-outer-tspan row" x="0" y="-0.1em" dy="1.1em"></tspan></text></g><g class="label attribute-type" transform="translate(-246.0234375, -66.125)" style=""><g><rect class="background" style="stroke: none"></rect></g><text y="-10.1" style=""><tspan class="text-outer-tspan row" x="0" y="-0.1em" dy="1.1em"><tspan font-style="normal" class="text-inner-tspan" font-weight="normal">uuid</tspan></tspan></text></g><g class="label attribute-name" transform="translate(-130.7421875, -66.125)" style=""><g><rect class="background" style="stroke: none"></rect></g><text y="-10.1" style=""><tspan class="text-outer-tspan row" x="0" y="-0.1em" dy="1.1em"><tspan font-style="normal" class="text-inner-tspan" font-weight="normal">event_id</tspan></tspan></text></g><g class="label attribute-keys" transform="translate(27.7578125, -66.125)" style=""><g><rect class="background" style="stroke: none"></rect></g><text y="-10.1" style=""><tspan class="text-outer-tspan row" x="0" y="-0.1em" dy="1.1em"><tspan font-style="normal" class="text-inner-tspan" font-weight="normal">FK</tspan></tspan></text></g><g class="label attribute-comment" transform="translate(70.8984375, -66.125)" style=""><g><rect class="background" style="stroke: none"></rect></g><text y="-10.1" style=""><tspan class="text-outer-tspan row" x="0" y="-0.1em" dy="1.1em"></tspan></text></g><g class="label attribute-type" transform="translate(-246.0234375, -28.375)" style=""><g><rect class="background" style="stroke: none"></rect></g><text y="-10.1" style=""><tspan class="text-outer-tspan row" x="0" y="-0.1em" dy="1.1em"><tspan font-style="normal" class="text-inner-tspan" font-weight="normal">timestamptz</tspan></tspan></text></g><g class="label attribute-name" transform="translate(-130.7421875, -28.375)" style=""><g><rect class="background" style="stroke: none"></rect></g><text y="-10.1" style=""><tspan class="text-outer-tspan row" x="0" y="-0.1em" dy="1.1em"><tspan font-style="normal" class="text-inner-tspan" font-weight="normal">instance_start_utc</tspan></tspan></text></g><g class="label attribute-keys" transform="translate(27.7578125, -28.375)" style=""><g><rect class="background" style="stroke: none"></rect></g><text y="-10.1" style=""><tspan class="text-outer-tspan row" x="0" y="-0.1em" dy="1.1em"></tspan></text></g><g class="label attribute-comment" transform="translate(70.8984375, -28.375)" style=""><g><rect class="background" style="stroke: none"></rect></g><text y="-10.1" style=""><tspan class="text-outer-tspan row" x="0" y="-0.1em" dy="1.1em"></tspan></text></g><g class="label attribute-type" transform="translate(-246.0234375, 9.375)" style=""><g><rect class="background" style="stroke: none"></rect></g><text y="-10.1" style=""><tspan class="text-outer-tspan row" x="0" y="-0.1em" dy="1.1em"><tspan font-style="normal" class="text-inner-tspan" font-weight="normal">timestamptz</tspan></tspan></text></g><g class="label attribute-name" transform="translate(-130.7421875, 9.375)" style=""><g><rect class="background" style="stroke: none"></rect></g><text y="-10.1" style=""><tspan class="text-outer-tspan row" x="0" y="-0.1em" dy="1.1em"><tspan font-style="normal" class="text-inner-tspan" font-weight="normal">original_start_utc</tspan></tspan></text></g><g class="label attribute-keys" transform="translate(27.7578125, 9.375)" style=""><g><rect class="background" style="stroke: none"></rect></g><text y="-10.1" style=""><tspan class="text-outer-tspan row" x="0" y="-0.1em" dy="1.1em"></tspan></text></g><g class="label attribute-comment" transform="translate(70.8984375, 9.375)" style=""><g><rect class="background" style="stroke: none"></rect></g><text y="-10.1" style=""><tspan class="text-outer-tspan row" x="0" y="-0.1em" dy="1.1em"><tspan font-style="normal" class="text-inner-tspan" font-weight="normal">match</tspan><tspan font-style="normal" class="text-inner-tspan" font-weight="normal"> key</tspan><tspan font-style="normal" class="text-inner-tspan" font-weight="normal"> for</tspan><tspan font-style="normal" class="text-inner-tspan" font-weight="normal"> exception</tspan></tspan></text></g><g class="label attribute-type" transform="translate(-246.0234375, 47.125)" style=""><g><rect class="background" style="stroke: none"></rect></g><text y="-10.1" style=""><tspan class="text-outer-tspan row" x="0" y="-0.1em" dy="1.1em"><tspan font-style="normal" class="text-inner-tspan" font-weight="normal">bool</tspan></tspan></text></g><g class="label attribute-name" transform="translate(-130.7421875, 47.125)" style=""><g><rect class="background" style="stroke: none"></rect></g><text y="-10.1" style=""><tspan class="text-outer-tspan row" x="0" y="-0.1em" dy="1.1em"><tspan font-style="normal" class="text-inner-tspan" font-weight="normal">is_exception</tspan></tspan></text></g><g class="label attribute-keys" transform="translate(27.7578125, 47.125)" style=""><g><rect class="background" style="stroke: none"></rect></g><text y="-10.1" style=""><tspan class="text-outer-tspan row" x="0" y="-0.1em" dy="1.1em"></tspan></text></g><g class="label attribute-comment" transform="translate(70.8984375, 47.125)" style=""><g><rect class="background" style="stroke: none"></rect></g><text y="-10.1" style=""><tspan class="text-outer-tspan row" x="0" y="-0.1em" dy="1.1em"></tspan></text></g><g class="label attribute-type" transform="translate(-246.0234375, 84.875)" style=""><g><rect class="background" style="stroke: none"></rect></g><text y="-10.1" style=""><tspan class="text-outer-tspan row" x="0" y="-0.1em" dy="1.1em"><tspan font-style="normal" class="text-inner-tspan" font-weight="normal">string</tspan></tspan></text></g><g class="label attribute-name" transform="translate(-130.7421875, 84.875)" style=""><g><rect class="background" style="stroke: none"></rect></g><text y="-10.1" style=""><tspan class="text-outer-tspan row" x="0" y="-0.1em" dy="1.1em"><tspan font-style="normal" class="text-inner-tspan" font-weight="normal">status</tspan></tspan></text></g><g class="label attribute-keys" transform="translate(27.7578125, 84.875)" style=""><g><rect class="background" style="stroke: none"></rect></g><text y="-10.1" style=""><tspan class="text-outer-tspan row" x="0" y="-0.1em" dy="1.1em"></tspan></text></g><g class="label attribute-comment" transform="translate(70.8984375, 84.875)" style=""><g><rect class="background" style="stroke: none"></rect></g><text y="-10.1" style=""><tspan class="text-outer-tspan row" x="0" y="-0.1em" dy="1.1em"><tspan font-style="normal" class="text-inner-tspan" font-weight="normal">confirmed</tspan><tspan font-style="normal" class="text-inner-tspan" font-weight="normal"> |</tspan><tspan font-style="normal" class="text-inner-tspan" font-weight="normal"> cancelled</tspan></tspan></text></g><g class="label attribute-type" transform="translate(-246.0234375, 122.625)" style=""><g><rect class="background" style="stroke: none"></rect></g><text y="-10.1" style=""><tspan class="text-outer-tspan row" x="0" y="-0.1em" dy="1.1em"><tspan font-style="normal" class="text-inner-tspan" font-weight="normal">string</tspan></tspan></text></g><g class="label attribute-name" transform="translate(-130.7421875, 122.625)" style=""><g><rect class="background" style="stroke: none"></rect></g><text y="-10.1" style=""><tspan class="text-outer-tspan row" x="0" y="-0.1em" dy="1.1em"><tspan font-style="normal" class="text-inner-tspan" font-weight="normal">summary_override</tspan></tspan></text></g><g class="label attribute-keys" transform="translate(27.7578125, 122.625)" style=""><g><rect class="background" style="stroke: none"></rect></g><text y="-10.1" style=""><tspan class="text-outer-tspan row" x="0" y="-0.1em" dy="1.1em"></tspan></text></g><g class="label attribute-comment" transform="translate(70.8984375, 122.625)" style=""><g><rect class="background" style="stroke: none"></rect></g><text y="-10.1" style=""><tspan class="text-outer-tspan row" x="0" y="-0.1em" dy="1.1em"><tspan font-style="normal" class="text-inner-tspan" font-weight="normal">nullable</tspan></tspan></text></g><g class="divider"><path d="M-258.5234375 -113.25005 L-258.5234375 -113.24995 L258.5234375 -113.24995 L258.5234375 -113.25005" stroke="none" stroke-width="0" fill="#ECECFF" fill-rule="evenodd"></path><path d="M-258.5234375 -113.25005 C-258.5234375 -113.25002146030236, -258.5234375 -113.24999292060473, -258.5234375 -113.24995 M-258.5234375 -113.25005 C-258.5234375 -113.25001456435797, -258.5234375 -113.24997912871595, -258.5234375 -113.24995 M-258.5234375 -113.24995 C-140.97295094426048 -113.24995, -23.42246438852095 -113.24995, 258.5234375 -113.24995 M-258.5234375 -113.24995 C-59.02664497637244 -113.24995, 140.47014754725512 -113.24995, 258.5234375 -113.24995 M258.5234375 -113.24995 C258.5234375 -113.24998134042127, 258.5234375 -113.25001268084253, 258.5234375 -113.25005 M258.5234375 -113.24995 C258.5234375 -113.24997418258259, 258.5234375 -113.24999836516518, 258.5234375 -113.25005 M258.5234375 -113.25005 C86.54640469681627 -113.25005, -85.43062810636746 -113.25005, -258.5234375 -113.25005 M258.5234375 -113.25005 C150.12371508885792 -113.25005, 41.72399267771584 -113.25005, -258.5234375 -113.25005" stroke="#9370DB" stroke-width="1.3" fill="none" stroke-dasharray="0 0"></path></g><g class="divider"><path d="M-143.2422375 -113.25 L-143.2421375 -113.25 L-143.2421375 151 L-143.2422375 151" stroke="none" stroke-width="0" fill="#ECECFF" fill-rule="evenodd"></path><path d="M-143.2422375 -113.25 C-143.24220723815424 -113.25, -143.24217697630849 -113.25, -143.2421375 -113.25 M-143.2422375 -113.25 C-143.2422045182076 -113.25, -143.24217153641516 -113.25, -143.2421375 -113.25 M-143.2421375 -113.25 C-143.2421375 -54.751099520718505, -143.2421375 3.7478009585629906, -143.2421375 151 M-143.2421375 -113.25 C-143.2421375 -33.53407677830988, -143.2421375 46.18184644338024, -143.2421375 151 M-143.2421375 151 C-143.2421604873576 151, -143.2421834747152 151, -143.2422375 151 M-143.2421375 151 C-143.2421595349323 151, -143.2421815698646 151, -143.2422375 151 M-143.2422375 151 C-143.2422375 70.9466636601528, -143.2422375 -9.106672679694412, -143.2422375 -113.25 M-143.2422375 151 C-143.2422375 92.18710317903589, -143.2422375 33.37420635807179, -143.2422375 -113.25" stroke="#9370DB" stroke-width="1.3" fill="none" stroke-dasharray="0 0"></path></g><g class="divider"><path d="M15.2577625 -113.25 L15.2578625 -113.25 L15.2578625 151 L15.2577625 151" stroke="none" stroke-width="0" fill="#ECECFF" fill-rule="evenodd"></path><path d="M15.2577625 -113.25 C15.257795375466149 -113.25, 15.257828250932297 -113.25, 15.2578625 -113.25 M15.2577625 -113.25 C15.257795207062928 -113.25, 15.257827914125855 -113.25, 15.2578625 -113.25 M15.2578625 -113.25 C15.2578625 -29.08653385796238, 15.2578625 55.07693228407524, 15.2578625 151 M15.2578625 -113.25 C15.2578625 -9.964281947101, 15.2578625 93.321436105798, 15.2578625 151 M15.2578625 151 C15.257835004869719 151, 15.257807509739436 151, 15.2577625 151 M15.2578625 151 C15.257833300768679 151, 15.257804101537358 151, 15.2577625 151 M15.2577625 151 C15.2577625 69.75968732763906, 15.2577625 -11.480625344721886, 15.2577625 -113.25 M15.2577625 151 C15.2577625 71.82005686002582, 15.2577625 -7.35988627994837, 15.2577625 -113.25" stroke="#9370DB" stroke-width="1.3" fill="none" stroke-dasharray="0 0"></path></g><g class="divider"><path d="M58.3983875 -113.25 L58.3984875 -113.25 L58.3984875 151 L58.3983875 151" stroke="none" stroke-width="0" fill="#ECECFF" fill-rule="evenodd"></path><path d="M58.3983875 -113.25 C58.398427070368406 -113.25, 58.398466640736814 -113.25, 58.3984875 -113.25 M58.3983875 -113.25 C58.39842178901602 -113.25, 58.39845607803204 -113.25, 58.3984875 -113.25 M58.3984875 -113.25 C58.3984875 -20.125385055110158, 58.3984875 72.99922988977968, 58.3984875 151 M58.3984875 -113.25 C58.3984875 -15.28768268019381, 58.3984875 82.67463463961238, 58.3984875 151 M58.3984875 151 C58.398451126601564 151, 58.39841475320312 151, 58.3983875 151 M58.3984875 151 C58.3984652815067 151, 58.3984430630134 151, 58.3983875 151 M58.3983875 151 C58.3983875 72.96678895175674, 58.3983875 -5.066422096486519, 58.3983875 -113.25 M58.3983875 151 C58.3983875 57.5864107613497, 58.3983875 -35.827178477300606, 58.3983875 -113.25" stroke="#9370DB" stroke-width="1.3" fill="none" stroke-dasharray="0 0"></path></g><g class="divider"><path d="M-258.5234375 -113.25005 L-258.5234375 -113.24995 L258.5234375 -113.24995 L258.5234375 -113.25005" stroke="none" stroke-width="0" fill="#ECECFF" fill-rule="evenodd"></path><path d="M-258.5234375 -113.25005 C-258.5234375 -113.25001131317427, -258.5234375 -113.24997262634855, -258.5234375 -113.24995 M-258.5234375 -113.25005 C-258.5234375 -113.25002642671569, -258.5234375 -113.25000285343138, -258.5234375 -113.24995 M-258.5234375 -113.24995 C-62.164702874623515 -113.24995, 134.19403175075297 -113.24995, 258.5234375 -113.24995 M-258.5234375 -113.24995 C-122.88741372667829 -113.24995, 12.748610046643421 -113.24995, 258.5234375 -113.24995 M258.5234375 -113.24995 C258.5234375 -113.249979342331, 258.5234375 -113.250008684662, 258.5234375 -113.25005 M258.5234375 -113.24995 C258.5234375 -113.24998857082016, 258.5234375 -113.25002714164033, 258.5234375 -113.25005 M258.5234375 -113.25005 C143.09487170828191 -113.25005, 27.666305916563857 -113.25005, -258.5234375 -113.25005 M258.5234375 -113.25005 C120.71217969535567 -113.25005, -17.099078109288655 -113.25005, -258.5234375 -113.25005" stroke="#9370DB" stroke-width="1.3" fill="none" stroke-dasharray="0 0"></path></g></g><g class="node default" id="g59002776-9489-4adf-abb8-8d82f2806a34-light-entity-EVENT_ATTENDEES-3" data-look="classic" transform="translate(762.9296875, 931.25)"><g class="outer-path" style=""><path d="M-97.8828125 -94.375 L97.8828125 -94.375 L97.8828125 94.375 L-97.8828125 94.375" stroke="none" stroke-width="0" fill="#ECECFF"></path><path d="M-97.8828125 -94.375 C-42.434931573084306 -94.375, 13.012949353831388 -94.375, 97.8828125 -94.375 M-97.8828125 -94.375 C-43.00376184524703 -94.375, 11.875288809505946 -94.375, 97.8828125 -94.375 M97.8828125 -94.375 C97.8828125 -30.34201590712192, 97.8828125 33.69096818575616, 97.8828125 94.375 M97.8828125 -94.375 C97.8828125 -47.170409544374564, 97.8828125 0.034180911250871304, 97.8828125 94.375 M97.8828125 94.375 C51.563891578214125 94.375, 5.244970656428251 94.375, -97.8828125 94.375 M97.8828125 94.375 C55.096725138087386 94.375, 12.310637776174772 94.375, -97.8828125 94.375 M-97.8828125 94.375 C-97.8828125 50.61504340126097, -97.8828125 6.855086802521939, -97.8828125 -94.375 M-97.8828125 94.375 C-97.8828125 38.80471765068819, -97.8828125 -16.76556469862362, -97.8828125 -94.375" stroke="#9370DB" stroke-width="1.3" fill="none" stroke-dasharray="0 0"></path></g><g style="" class="row-rect-odd"><path d="M-97.8828125 -56.625 L97.8828125 -56.625 L97.8828125 -18.875 L-97.8828125 -18.875" stroke="none" stroke-width="0" fill="hsl(240, 100%, 100%)"></path><path d="M-97.8828125 -56.625 C-51.594798649000325 -56.625, -5.306784798000649 -56.625, 97.8828125 -56.625 M-97.8828125 -56.625 C-25.65113748611185 -56.625, 46.5805375277763 -56.625, 97.8828125 -56.625 M97.8828125 -56.625 C97.8828125 -42.77520669495597, 97.8828125 -28.925413389911938, 97.8828125 -18.875 M97.8828125 -56.625 C97.8828125 -42.664087053962696, 97.8828125 -28.703174107925392, 97.8828125 -18.875 M97.8828125 -18.875 C56.41636509399389 -18.875, 14.949917687987778 -18.875, -97.8828125 -18.875 M97.8828125 -18.875 C35.350522126785116 -18.875, -27.18176824642977 -18.875, -97.8828125 -18.875 M-97.8828125 -18.875 C-97.8828125 -29.926555656726634, -97.8828125 -40.97811131345327, -97.8828125 -56.625 M-97.8828125 -18.875 C-97.8828125 -27.213083998026114, -97.8828125 -35.55116799605223, -97.8828125 -56.625" stroke="#9370DB" stroke-width="1.3" fill="none" stroke-dasharray="0 0"></path></g><g style="" class="row-rect-even"><path d="M-97.8828125 -18.875 L97.8828125 -18.875 L97.8828125 18.875 L-97.8828125 18.875" stroke="none" stroke-width="0" fill="hsl(240, 100%, 97.2745098039%)"></path><path d="M-97.8828125 -18.875 C-20.99213555281709 -18.875, 55.89854139436582 -18.875, 97.8828125 -18.875 M-97.8828125 -18.875 C-20.230255518270155 -18.875, 57.42230146345969 -18.875, 97.8828125 -18.875 M97.8828125 -18.875 C97.8828125 -7.170270099175699, 97.8828125 4.534459801648602, 97.8828125 18.875 M97.8828125 -18.875 C97.8828125 -4.696396299773738, 97.8828125 9.482207400452523, 97.8828125 18.875 M97.8828125 18.875 C44.63257787983818 18.875, -8.617656740323639 18.875, -97.8828125 18.875 M97.8828125 18.875 C55.437483735638374 18.875, 12.992154971276747 18.875, -97.8828125 18.875 M-97.8828125 18.875 C-97.8828125 7.797713031293103, -97.8828125 -3.2795739374137938, -97.8828125 -18.875 M-97.8828125 18.875 C-97.8828125 8.249676052494236, -97.8828125 -2.3756478950115287, -97.8828125 -18.875" stroke="#9370DB" stroke-width="1.3" fill="none" stroke-dasharray="0 0"></path></g><g style="" class="row-rect-odd"><path d="M-97.8828125 18.875 L97.8828125 18.875 L97.8828125 56.625 L-97.8828125 56.625" stroke="none" stroke-width="0" fill="hsl(240, 100%, 100%)"></path><path d="M-97.8828125 18.875 C-35.41413538398369 18.875, 27.054541732032618 18.875, 97.8828125 18.875 M-97.8828125 18.875 C-24.804974824499865 18.875, 48.27286285100027 18.875, 97.8828125 18.875 M97.8828125 18.875 C97.8828125 29.038057315805972, 97.8828125 39.201114631611944, 97.8828125 56.625 M97.8828125 18.875 C97.8828125 33.925627345755295, 97.8828125 48.97625469151059, 97.8828125 56.625 M97.8828125 56.625 C24.422783663766822 56.625, -49.037245172466356 56.625, -97.8828125 56.625 M97.8828125 56.625 C38.78214254311724 56.625, -20.318527413765523 56.625, -97.8828125 56.625 M-97.8828125 56.625 C-97.8828125 42.78803052513491, -97.8828125 28.951061050269814, -97.8828125 18.875 M-97.8828125 56.625 C-97.8828125 42.263313598332104, -97.8828125 27.901627196664208, -97.8828125 18.875" stroke="#9370DB" stroke-width="1.3" fill="none" stroke-dasharray="0 0"></path></g><g style="" class="row-rect-even"><path d="M-97.8828125 56.625 L97.8828125 56.625 L97.8828125 94.375 L-97.8828125 94.375" stroke="none" stroke-width="0" fill="hsl(240, 100%, 97.2745098039%)"></path><path d="M-97.8828125 56.625 C-23.057842504435683 56.625, 51.76712749112863 56.625, 97.8828125 56.625 M-97.8828125 56.625 C-43.84829852126999 56.625, 10.186215457460023 56.625, 97.8828125 56.625 M97.8828125 56.625 C97.8828125 64.4079191938895, 97.8828125 72.190838387779, 97.8828125 94.375 M97.8828125 56.625 C97.8828125 64.41795142397967, 97.8828125 72.21090284795935, 97.8828125 94.375 M97.8828125 94.375 C48.822774612004 94.375, -0.23726327599200658 94.375, -97.8828125 94.375 M97.8828125 94.375 C23.100993540310142 94.375, -51.680825419379715 94.375, -97.8828125 94.375 M-97.8828125 94.375 C-97.8828125 82.01821908662052, -97.8828125 69.66143817324104, -97.8828125 56.625 M-97.8828125 94.375 C-97.8828125 83.68615706152411, -97.8828125 72.99731412304824, -97.8828125 56.625" stroke="#9370DB" stroke-width="1.3" fill="none" stroke-dasharray="0 0"></path></g><g class="label name" transform="translate(-67.1640625, -85)" style=""><g><rect class="background" style="stroke: none"></rect></g><text y="-10.1" style=""><tspan class="text-outer-tspan row" x="0" y="-0.1em" dy="1.1em"><tspan font-style="normal" class="text-inner-tspan" font-weight="normal">EVENT_ATTENDEES</tspan></tspan></text></g><g class="label attribute-type" transform="translate(-85.3828125, -47.25)" style=""><g><rect class="background" style="stroke: none"></rect></g><text y="-10.1" style=""><tspan class="text-outer-tspan row" x="0" y="-0.1em" dy="1.1em"><tspan font-style="normal" class="text-inner-tspan" font-weight="normal">uuid</tspan></tspan></text></g><g class="label attribute-name" transform="translate(-20.0078125, -47.25)" style=""><g><rect class="background" style="stroke: none"></rect></g><text y="-10.1" style=""><tspan class="text-outer-tspan row" x="0" y="-0.1em" dy="1.1em"><tspan font-style="normal" class="text-inner-tspan" font-weight="normal">id</tspan></tspan></text></g><g class="label attribute-keys" transform="translate(67.2421875, -47.25)" style=""><g><rect class="background" style="stroke: none"></rect></g><text y="-10.1" style=""><tspan class="text-outer-tspan row" x="0" y="-0.1em" dy="1.1em"><tspan font-style="normal" class="text-inner-tspan" font-weight="normal">PK</tspan></tspan></text></g><g class="label attribute-comment" transform="translate(110.3828125, -47.25)" style=""><g><rect class="background" style="stroke: none"></rect></g><text y="-10.1" style=""><tspan class="text-outer-tspan row" x="0" y="-0.1em" dy="1.1em"></tspan></text></g><g class="label attribute-type" transform="translate(-85.3828125, -9.5)" style=""><g><rect class="background" style="stroke: none"></rect></g><text y="-10.1" style=""><tspan class="text-outer-tspan row" x="0" y="-0.1em" dy="1.1em"><tspan font-style="normal" class="text-inner-tspan" font-weight="normal">uuid</tspan></tspan></text></g><g class="label attribute-name" transform="translate(-20.0078125, -9.5)" style=""><g><rect class="background" style="stroke: none"></rect></g><text y="-10.1" style=""><tspan class="text-outer-tspan row" x="0" y="-0.1em" dy="1.1em"><tspan font-style="normal" class="text-inner-tspan" font-weight="normal">event_id</tspan></tspan></text></g><g class="label attribute-keys" transform="translate(67.2421875, -9.5)" style=""><g><rect class="background" style="stroke: none"></rect></g><text y="-10.1" style=""><tspan class="text-outer-tspan row" x="0" y="-0.1em" dy="1.1em"><tspan font-style="normal" class="text-inner-tspan" font-weight="normal">FK</tspan></tspan></text></g><g class="label attribute-comment" transform="translate(110.3828125, -9.5)" style=""><g><rect class="background" style="stroke: none"></rect></g><text y="-10.1" style=""><tspan class="text-outer-tspan row" x="0" y="-0.1em" dy="1.1em"></tspan></text></g><g class="label attribute-type" transform="translate(-85.3828125, 28.25)" style=""><g><rect class="background" style="stroke: none"></rect></g><text y="-10.1" style=""><tspan class="text-outer-tspan row" x="0" y="-0.1em" dy="1.1em"><tspan font-style="normal" class="text-inner-tspan" font-weight="normal">string</tspan></tspan></text></g><g class="label attribute-name" transform="translate(-20.0078125, 28.25)" style=""><g><rect class="background" style="stroke: none"></rect></g><text y="-10.1" style=""><tspan class="text-outer-tspan row" x="0" y="-0.1em" dy="1.1em"><tspan font-style="normal" class="text-inner-tspan" font-weight="normal">email</tspan></tspan></text></g><g class="label attribute-keys" transform="translate(67.2421875, 28.25)" style=""><g><rect class="background" style="stroke: none"></rect></g><text y="-10.1" style=""><tspan class="text-outer-tspan row" x="0" y="-0.1em" dy="1.1em"></tspan></text></g><g class="label attribute-comment" transform="translate(110.3828125, 28.25)" style=""><g><rect class="background" style="stroke: none"></rect></g><text y="-10.1" style=""><tspan class="text-outer-tspan row" x="0" y="-0.1em" dy="1.1em"></tspan></text></g><g class="label attribute-type" transform="translate(-85.3828125, 66)" style=""><g><rect class="background" style="stroke: none"></rect></g><text y="-10.1" style=""><tspan class="text-outer-tspan row" x="0" y="-0.1em" dy="1.1em"><tspan font-style="normal" class="text-inner-tspan" font-weight="normal">string</tspan></tspan></text></g><g class="label attribute-name" transform="translate(-20.0078125, 66)" style=""><g><rect class="background" style="stroke: none"></rect></g><text y="-10.1" style=""><tspan class="text-outer-tspan row" x="0" y="-0.1em" dy="1.1em"><tspan font-style="normal" class="text-inner-tspan" font-weight="normal">partstat</tspan></tspan></text></g><g class="label attribute-keys" transform="translate(67.2421875, 66)" style=""><g><rect class="background" style="stroke: none"></rect></g><text y="-10.1" style=""><tspan class="text-outer-tspan row" x="0" y="-0.1em" dy="1.1em"></tspan></text></g><g class="label attribute-comment" transform="translate(110.3828125, 66)" style=""><g><rect class="background" style="stroke: none"></rect></g><text y="-10.1" style=""><tspan class="text-outer-tspan row" x="0" y="-0.1em" dy="1.1em"></tspan></text></g><g class="divider"><path d="M-97.8828125 -56.62505 L-97.8828125 -56.62495 L97.8828125 -56.62495 L97.8828125 -56.62505" stroke="none" stroke-width="0" fill="#ECECFF" fill-rule="evenodd"></path><path d="M-97.8828125 -56.62505 C-97.8828125 -56.625029427241415, -97.8828125 -56.62500885448283, -97.8828125 -56.62495 M-97.8828125 -56.62505 C-97.8828125 -56.62502386290292, -97.8828125 -56.62499772580584, -97.8828125 -56.62495 M-97.8828125 -56.62495 C-32.163783440915665 -56.62495, 33.55524561816867 -56.62495, 97.8828125 -56.62495 M-97.8828125 -56.62495 C-58.56217447802104 -56.62495, -19.241536456042084 -56.62495, 97.8828125 -56.62495 M97.8828125 -56.62495 C97.8828125 -56.62497779321346, 97.8828125 -56.62500558642692, 97.8828125 -56.62505 M97.8828125 -56.62495 C97.8828125 -56.624985788134076, 97.8828125 -56.625021576268146, 97.8828125 -56.62505 M97.8828125 -56.62505 C45.37233466712845 -56.62505, -7.138143165743102 -56.62505, -97.8828125 -56.62505 M97.8828125 -56.62505 C40.064058932615964 -56.62505, -17.75469463476807 -56.62505, -97.8828125 -56.62505" stroke="#9370DB" stroke-width="1.3" fill="none" stroke-dasharray="0 0"></path></g><g class="divider"><path d="M-32.5078625 -56.625 L-32.5077625 -56.625 L-32.5077625 94.375 L-32.5078625 94.375" stroke="none" stroke-width="0" fill="#ECECFF" fill-rule="evenodd"></path><path d="M-32.5078625 -56.625 C-32.507822928688235 -56.625, -32.50778335737647 -56.625, -32.5077625 -56.625 M-32.5078625 -56.625 C-32.5078378675865 -56.625, -32.507813235173 -56.625, -32.5077625 -56.625 M-32.5077625 -56.625 C-32.5077625 -1.4905794896555022, -32.5077625 53.643841020688996, -32.5077625 94.375 M-32.5077625 -56.625 C-32.5077625 -8.512687314196626, -32.5077625 39.59962537160675, -32.5077625 94.375 M-32.5077625 94.375 C-32.50779719140887 94.375, -32.50783188281773 94.375, -32.5078625 94.375 M-32.5077625 94.375 C-32.50780217134052 94.375, -32.507841842681046 94.375, -32.5078625 94.375 M-32.5078625 94.375 C-32.5078625 47.40544815981836, -32.5078625 0.4358963196367256, -32.5078625 -56.625 M-32.5078625 94.375 C-32.5078625 44.69610623822429, -32.5078625 -4.982787523551423, -32.5078625 -56.625" stroke="#9370DB" stroke-width="1.3" fill="none" stroke-dasharray="0 0"></path></g><g class="divider"><path d="M54.7421375 -56.625 L54.7422375 -56.625 L54.7422375 94.375 L54.7421375 94.375" stroke="none" stroke-width="0" fill="#ECECFF" fill-rule="evenodd"></path><path d="M54.7421375 -56.625 C54.74216594928628 -56.625, 54.742194398572565 -56.625, 54.7422375 -56.625 M54.7421375 -56.625 C54.74217383978468 -56.625, 54.74221017956936 -56.625, 54.7422375 -56.625 M54.7422375 -56.625 C54.7422375 -19.4121188572133, 54.7422375 17.8007622855734, 54.7422375 94.375 M54.7422375 -56.625 C54.7422375 -17.737828471758363, 54.7422375 21.149343056483275, 54.7422375 94.375 M54.7422375 94.375 C54.74221254106602 94.375, 54.742187582132026 94.375, 54.7421375 94.375 M54.7422375 94.375 C54.7422049756362 94.375, 54.742172451272396 94.375, 54.7421375 94.375 M54.7421375 94.375 C54.7421375 58.75730568156199, 54.7421375 23.139611363123976, 54.7421375 -56.625 M54.7421375 94.375 C54.7421375 46.48165777916312, 54.7421375 -1.4116844416737564, 54.7421375 -56.625" stroke="#9370DB" stroke-width="1.3" fill="none" stroke-dasharray="0 0"></path></g><g class="divider"><path d="M-97.8828125 -56.62505 L-97.8828125 -56.62495 L97.8828125 -56.62495 L97.8828125 -56.62505" stroke="none" stroke-width="0" fill="#ECECFF" fill-rule="evenodd"></path><path d="M-97.8828125 -56.62505 C-97.8828125 -56.625012256690816, -97.8828125 -56.62497451338164, -97.8828125 -56.62495 M-97.8828125 -56.62505 C-97.8828125 -56.6250174408176, -97.8828125 -56.62498488163519, -97.8828125 -56.62495 M-97.8828125 -56.62495 C-26.541814859448465 -56.62495, 44.79918278110307 -56.62495, 97.8828125 -56.62495 M-97.8828125 -56.62495 C-21.50986825571941 -56.62495, 54.86307598856118 -56.62495, 97.8828125 -56.62495 M97.8828125 -56.62495 C97.8828125 -56.62497708168776, 97.8828125 -56.625004163375515, 97.8828125 -56.62505 M97.8828125 -56.62495 C97.8828125 -56.624982847141595, 97.8828125 -56.625015694283185, 97.8828125 -56.62505 M97.8828125 -56.62505 C35.373308883413344 -56.62505, -27.136194733173312 -56.62505, -97.8828125 -56.62505 M97.8828125 -56.62505 C27.459444209549176 -56.62505, -42.96392408090165 -56.62505, -97.8828125 -56.62505" stroke="#9370DB" stroke-width="1.3" fill="none" stroke-dasharray="0 0"></path></g></g></g></g></g><defs><filter id="g59002776-9489-4adf-abb8-8d82f2806a34-light-drop-shadow" height="130%" width="130%"><feDropShadow dx="4" dy="4" stdDeviation="0" flood-opacity="0.06" flood-color="#000000"></feDropShadow></filter></defs><defs><filter id="g59002776-9489-4adf-abb8-8d82f2806a34-light-drop-shadow-small" height="150%" width="150%"><feDropShadow dx="2" dy="2" stdDeviation="0" flood-opacity="0.06" flood-color="#000000"></feDropShadow></filter></defs></svg>