<svg id="ge0e7fa81-087d-488b-a3dc-fd46100132e9-dark" width="100%" xmlns="http://www.w3.org/2000/svg" xmlns:xlink="http://www.w3.org/1999/xlink" class="flowchart" style="max-width: 1415.375px;" viewBox="0 0 1415.375 525.7999877929688" role="graphics-document document" aria-roledescription="flowchart-v2"><style>#ge0e7fa81-087d-488b-a3dc-fd46100132e9-dark{font-family:"trebuchet ms",verdana,arial,sans-serif;font-size:16px;fill:#e5e5e5;}@keyframes edge-animation-frame{from{stroke-dashoffset:0;}}@keyframes dash{to{stroke-dashoffset:0;}}#ge0e7fa81-087d-488b-a3dc-fd46100132e9-dark .edge-animation-slow{stroke-dasharray:9,5!important;stroke-dashoffset:900;animation:dash 50s linear infinite;stroke-linecap:round;}#ge0e7fa81-087d-488b-a3dc-fd46100132e9-dark .edge-animation-fast{stroke-dasharray:9,5!important;stroke-dashoffset:900;animation:dash 20s linear infinite;stroke-linecap:round;}#ge0e7fa81-087d-488b-a3dc-fd46100132e9-dark .error-icon{fill:#252525;}#ge0e7fa81-087d-488b-a3dc-fd46100132e9-dark .error-text{fill:#cccccc;stroke:#cccccc;}#ge0e7fa81-087d-488b-a3dc-fd46100132e9-dark .edge-thickness-normal{stroke-width:1px;}#ge0e7fa81-087d-488b-a3dc-fd46100132e9-dark .edge-thickness-thick{stroke-width:3.5px;}#ge0e7fa81-087d-488b-a3dc-fd46100132e9-dark .edge-pattern-solid{stroke-dasharray:0;}#ge0e7fa81-087d-488b-a3dc-fd46100132e9-dark .edge-thickness-invisible{stroke-width:0;fill:none;}#ge0e7fa81-087d-488b-a3dc-fd46100132e9-dark .edge-pattern-dashed{stroke-dasharray:3;}#ge0e7fa81-087d-488b-a3dc-fd46100132e9-dark .edge-pattern-dotted{stroke-dasharray:2;}#ge0e7fa81-087d-488b-a3dc-fd46100132e9-dark .marker{fill:#cccccc;stroke:#cccccc;}#ge0e7fa81-087d-488b-a3dc-fd46100132e9-dark .marker.cross{stroke:#cccccc;}#ge0e7fa81-087d-488b-a3dc-fd46100132e9-dark svg{font-family:"trebuchet ms",verdana,arial,sans-serif;font-size:16px;}#ge0e7fa81-087d-488b-a3dc-fd46100132e9-dark p{margin:0;}#ge0e7fa81-087d-488b-a3dc-fd46100132e9-dark .label{font-family:"trebuchet ms",verdana,arial,sans-serif;color:#e5e5e5;}#ge0e7fa81-087d-488b-a3dc-fd46100132e9-dark .cluster-label text{fill:#e5e5e5;}#ge0e7fa81-087d-488b-a3dc-fd46100132e9-dark .cluster-label span{color:#e5e5e5;}#ge0e7fa81-087d-488b-a3dc-fd46100132e9-dark .cluster-label span p{background-color:transparent;}#ge0e7fa81-087d-488b-a3dc-fd46100132e9-dark .label text,#ge0e7fa81-087d-488b-a3dc-fd46100132e9-dark span{fill:#e5e5e5;color:#e5e5e5;}#ge0e7fa81-087d-488b-a3dc-fd46100132e9-dark .node rect,#ge0e7fa81-087d-488b-a3dc-fd46100132e9-dark .node circle,#ge0e7fa81-087d-488b-a3dc-fd46100132e9-dark .node ellipse,#ge0e7fa81-087d-488b-a3dc-fd46100132e9-dark .node polygon,#ge0e7fa81-087d-488b-a3dc-fd46100132e9-dark .node path{fill:#2d2d2d;stroke:#555555;stroke-width:1px;}#ge0e7fa81-087d-488b-a3dc-fd46100132e9-dark .rough-node .label text,#ge0e7fa81-087d-488b-a3dc-fd46100132e9-dark .node .label text,#ge0e7fa81-087d-488b-a3dc-fd46100132e9-dark .image-shape .label,#ge0e7fa81-087d-488b-a3dc-fd46100132e9-dark .icon-shape .label{text-anchor:middle;}#ge0e7fa81-087d-488b-a3dc-fd46100132e9-dark .node .katex path{fill:#000;stroke:#000;stroke-width:1px;}#ge0e7fa81-087d-488b-a3dc-fd46100132e9-dark .rough-node .label,#ge0e7fa81-087d-488b-a3dc-fd46100132e9-dark .node .label,#ge0e7fa81-087d-488b-a3dc-fd46100132e9-dark .image-shape .label,#ge0e7fa81-087d-488b-a3dc-fd46100132e9-dark .icon-shape .label{text-align:center;}#ge0e7fa81-087d-488b-a3dc-fd46100132e9-dark .node.clickable{cursor:pointer;}#ge0e7fa81-087d-488b-a3dc-fd46100132e9-dark .root .anchor path{fill:#cccccc!important;stroke-width:0;stroke:#cccccc;}#ge0e7fa81-087d-488b-a3dc-fd46100132e9-dark .arrowheadPath{fill:#cccccc;}#ge0e7fa81-087d-488b-a3dc-fd46100132e9-dark .edgePath .path{stroke:#cccccc;stroke-width:1px;}#ge0e7fa81-087d-488b-a3dc-fd46100132e9-dark .flowchart-link{stroke:#cccccc;fill:none;}#ge0e7fa81-087d-488b-a3dc-fd46100132e9-dark .edgeLabel{background-color:#1e1e1e;text-align:center;}#ge0e7fa81-087d-488b-a3dc-fd46100132e9-dark .edgeLabel p{background-color:#1e1e1e;}#ge0e7fa81-087d-488b-a3dc-fd46100132e9-dark .edgeLabel rect{opacity:0.5;background-color:#1e1e1e;fill:#1e1e1e;}#ge0e7fa81-087d-488b-a3dc-fd46100132e9-dark .labelBkg{background-color:rgba(30, 30, 30, 0.5);}#ge0e7fa81-087d-488b-a3dc-fd46100132e9-dark .cluster rect{fill:#1e1e1e;stroke:#555555;stroke-width:1px;}#ge0e7fa81-087d-488b-a3dc-fd46100132e9-dark .cluster text{fill:#e5e5e5;}#ge0e7fa81-087d-488b-a3dc-fd46100132e9-dark .cluster span{color:#e5e5e5;}#ge0e7fa81-087d-488b-a3dc-fd46100132e9-dark div.mermaidTooltip{position:absolute;text-align:center;max-width:200px;padding:2px;font-family:"trebuchet ms",verdana,arial,sans-serif;font-size:12px;background:#252525;border:1px solid #555555;border-radius:2px;pointer-events:none;z-index:100;}#ge0e7fa81-087d-488b-a3dc-fd46100132e9-dark .flowchartTitleText{text-anchor:middle;font-size:18px;fill:#e5e5e5;}#ge0e7fa81-087d-488b-a3dc-fd46100132e9-dark rect.text{fill:none;stroke-width:0;}#ge0e7fa81-087d-488b-a3dc-fd46100132e9-dark .icon-shape,#ge0e7fa81-087d-488b-a3dc-fd46100132e9-dark .image-shape{background-color:#1e1e1e;text-align:center;}#ge0e7fa81-087d-488b-a3dc-fd46100132e9-dark .icon-shape p,#ge0e7fa81-087d-488b-a3dc-fd46100132e9-dark .image-shape p{background-color:#1e1e1e;padding:2px;}#ge0e7fa81-087d-488b-a3dc-fd46100132e9-dark .icon-shape .label rect,#ge0e7fa81-087d-488b-a3dc-fd46100132e9-dark .image-shape .label rect{opacity:0.5;background-color:#1e1e1e;fill:#1e1e1e;}#ge0e7fa81-087d-488b-a3dc-fd46100132e9-dark .label-icon{display:inline-block;height:1em;overflow:visible;vertical-align:-0.125em;}#ge0e7fa81-087d-488b-a3dc-fd46100132e9-dark .node .label-icon path{fill:currentColor;stroke:revert;stroke-width:revert;}#ge0e7fa81-087d-488b-a3dc-fd46100132e9-dark .node .neo-node{stroke:#555555;}#ge0e7fa81-087d-488b-a3dc-fd46100132e9-dark [data-look="neo"].node rect,#ge0e7fa81-087d-488b-a3dc-fd46100132e9-dark [data-look="neo"].cluster rect,#ge0e7fa81-087d-488b-a3dc-fd46100132e9-dark [data-look="neo"].node polygon{stroke:url(#ge0e7fa81-087d-488b-a3dc-fd46100132e9-dark-gradient);filter:drop-shadow( 1px 2px 2px rgba(185,185,185,1));}#ge0e7fa81-087d-488b-a3dc-fd46100132e9-dark [data-look="neo"].node path{stroke:url(#ge0e7fa81-087d-488b-a3dc-fd46100132e9-dark-gradient);stroke-width:1px;}#ge0e7fa81-087d-488b-a3dc-fd46100132e9-dark [data-look="neo"].node .outer-path{filter:drop-shadow( 1px 2px 2px rgba(185,185,185,1));}#ge0e7fa81-087d-488b-a3dc-fd46100132e9-dark [data-look="neo"].node .neo-line path{stroke:#555555;filter:none;}#ge0e7fa81-087d-488b-a3dc-fd46100132e9-dark [data-look="neo"].node circle{stroke:url(#ge0e7fa81-087d-488b-a3dc-fd46100132e9-dark-gradient);filter:drop-shadow( 1px 2px 2px rgba(185,185,185,1));}#ge0e7fa81-087d-488b-a3dc-fd46100132e9-dark [data-look="neo"].node circle .state-start{fill:#000000;}#ge0e7fa81-087d-488b-a3dc-fd46100132e9-dark [data-look="neo"].icon-shape .icon{fill:url(#ge0e7fa81-087d-488b-a3dc-fd46100132e9-dark-gradient);filter:drop-shadow( 1px 2px 2px rgba(185,185,185,1));}#ge0e7fa81-087d-488b-a3dc-fd46100132e9-dark [data-look="neo"].icon-shape .icon-neo path{stroke:url(#ge0e7fa81-087d-488b-a3dc-fd46100132e9-dark-gradient);filter:drop-shadow( 1px 2px 2px rgba(185,185,185,1));}#ge0e7fa81-087d-488b-a3dc-fd46100132e9-dark :root{--mermaid-font-family:"trebuchet ms",verdana,arial,sans-serif;}</style><g><marker id="ge0e7fa81-087d-488b-a3dc-fd46100132e9-dark_flowchart-v2-pointEnd" class="marker flowchart-v2" viewBox="0 0 10 10" refX="5" refY="5" markerUnits="userSpaceOnUse" markerWidth="8" markerHeight="8" orient="auto"><path d="M 0 0 L 10 5 L 0 10 z" class="arrowMarkerPath" style="stroke-width: 1; stroke-dasharray: 1, 0;"></path></marker><marker id="ge0e7fa81-087d-488b-a3dc-fd46100132e9-dark_flowchart-v2-pointStart" class="marker flowchart-v2" viewBox="0 0 10 10" refX="4.5" refY="5" markerUnits="userSpaceOnUse" markerWidth="8" markerHeight="8" orient="auto"><path d="M 0 5 L 10 10 L 10 0 z" class="arrowMarkerPath" style="stroke-width: 1; stroke-dasharray: 1, 0;"></path></marker><marker id="ge0e7fa81-087d-488b-a3dc-fd46100132e9-dark_flowchart-v2-pointEnd-margin" class="marker flowchart-v2" viewBox="0 0 11.5 14" refX="11.5" refY="7" markerUnits="userSpaceOnUse" markerWidth="10.5" markerHeight="14" orient="auto"><path d="M 0 0 L 11.5 7 L 0 14 z" class="arrowMarkerPath" style="stroke-width: 0; stroke-dasharray: 1, 0;"></path></marker><marker id="ge0e7fa81-087d-488b-a3dc-fd46100132e9-dark_flowchart-v2-pointStart-margin" class="marker flowchart-v2" viewBox="0 0 11.5 14" refX="1" refY="7" markerUnits="userSpaceOnUse" markerWidth="11.5" markerHeight="14" orient="auto"><polygon points="0,7 11.5,14 11.5,0" class="arrowMarkerPath" style="stroke-width: 0; stroke-dasharray: 1, 0;"></polygon></marker><marker id="ge0e7fa81-087d-488b-a3dc-fd46100132e9-dark_flowchart-v2-circleEnd" class="marker flowchart-v2" viewBox="0 0 10 10" refX="11" refY="5" markerUnits="userSpaceOnUse" markerWidth="11" markerHeight="11" orient="auto"><circle cx="5" cy="5" r="5" class="arrowMarkerPath" style="stroke-width: 1; stroke-dasharray: 1, 0;"></circle></marker><marker id="ge0e7fa81-087d-488b-a3dc-fd46100132e9-dark_flowchart-v2-circleStart" class="marker flowchart-v2" viewBox="0 0 10 10" refX="-1" refY="5" markerUnits="userSpaceOnUse" markerWidth="11" markerHeight="11" orient="auto"><circle cx="5" cy="5" r="5" class="arrowMarkerPath" style="stroke-width: 1; stroke-dasharray: 1, 0;"></circle></marker><marker id="ge0e7fa81-087d-488b-a3dc-fd46100132e9-dark_flowchart-v2-circleEnd-margin" class="marker flowchart-v2" viewBox="0 0 10 10" refY="5" refX="12.25" markerUnits="userSpaceOnUse" markerWidth="14" markerHeight="14" orient="auto"><circle cx="5" cy="5" r="5" class="arrowMarkerPath" style="stroke-width: 0; stroke-dasharray: 1, 0;"></circle></marker><marker id="ge0e7fa81-087d-488b-a3dc-fd46100132e9-dark_flowchart-v2-circleStart-margin" class="marker flowchart-v2" viewBox="0 0 10 10" refX="-2" refY="5" markerUnits="userSpaceOnUse" markerWidth="14" markerHeight="14" orient="auto"><circle cx="5" cy="5" r="5" class="arrowMarkerPath" style="stroke-width: 0; stroke-dasharray: 1, 0;"></circle></marker><marker id="ge0e7fa81-087d-488b-a3dc-fd46100132e9-dark_flowchart-v2-crossEnd" class="marker cross flowchart-v2" viewBox="0 0 11 11" refX="12" refY="5.2" markerUnits="userSpaceOnUse" markerWidth="11" markerHeight="11" orient="auto"><path d="M 1,1 l 9,9 M 10,1 l -9,9" class="arrowMarkerPath" style="stroke-width: 2; stroke-dasharray: 1, 0;"></path></marker><marker id="ge0e7fa81-087d-488b-a3dc-fd46100132e9-dark_flowchart-v2-crossStart" class="marker cross flowchart-v2" viewBox="0 0 11 11" refX="-1" refY="5.2" markerUnits="userSpaceOnUse" markerWidth="11" markerHeight="11" orient="auto"><path d="M 1,1 l 9,9 M 10,1 l -9,9" class="arrowMarkerPath" style="stroke-width: 2; stroke-dasharray: 1, 0;"></path></marker><marker id="ge0e7fa81-087d-488b-a3dc-fd46100132e9-dark_flowchart-v2-crossEnd-margin" class="marker cross flowchart-v2" viewBox="0 0 15 15" refX="17.7" refY="7.5" markerUnits="userSpaceOnUse" markerWidth="12" markerHeight="12" orient="auto"><path d="M 1,1 L 14,14 M 1,14 L 14,1" class="arrowMarkerPath" style="stroke-width: 2.5;"></path></marker><marker id="ge0e7fa81-087d-488b-a3dc-fd46100132e9-dark_flowchart-v2-crossStart-margin" class="marker cross flowchart-v2" viewBox="0 0 15 15" refX="-3.5" refY="7.5" markerUnits="userSpaceOnUse" markerWidth="12" markerHeight="12" orient="auto"><path d="M 1,1 L 14,14 M 1,14 L 14,1" class="arrowMarkerPath" style="stroke-width: 2.5; stroke-dasharray: 1, 0;"></path></marker><g class="root"><g class="clusters"><g class="cluster" id="ge0e7fa81-087d-488b-a3dc-fd46100132e9-dark-Future" data-look="classic"><rect style="" x="432.8125" y="8" width="654.015625" height="168.5999984741211"></rect><g class="cluster-label" transform="translate(704.140625, 8)"><g><rect class="background" style="stroke: none"></rect><text y="-10.1" style=""><tspan class="text-outer-tspan row" x="0" y="-0.1em" dy="1.1em"><tspan font-style="normal" class="text-inner-tspan" font-weight="normal">Beyond</tspan><tspan font-style="normal" class="text-inner-tspan" font-weight="normal"> window</tspan></tspan></text></g></g></g></g><g class="edgePaths"><path d="M230.094,90.734L246.987,85.97C263.88,81.206,297.667,71.678,331.453,66.914C365.24,62.15,399.026,62.15,450.958,63.838C502.89,65.525,572.967,68.9,608.005,70.588L643.044,72.276" id="ge0e7fa81-087d-488b-a3dc-fd46100132e9-dark-L_Master_Lazy_0" class="edge-thickness-normal edge-pattern-solid edge-thickness-normal edge-pattern-solid flowchart-link" style=";" data-edge="true" data-et="edge" data-id="L_Master_Lazy_0" data-points="W3sieCI6MjMwLjA5Mzc1LCJ5Ijo5MC43MzQwMjkxNTU0ODgxOX0seyJ4IjozMzEuNDUzMTI1LCJ5Ijo2Mi4xNDk5OTk2MTg1MzAyN30seyJ4Ijo0MzIuODEyNSwieSI6NjIuMTQ5OTk5NjE4NTMwMjd9LHsieCI6NjQ3LjAzOTA2MjUsInkiOjcyLjQ2ODAwNDk3MDA4NDM4fV0=" data-look="classic" marker-end="url(#ge0e7fa81-087d-488b-a3dc-fd46100132e9-dark_flowchart-v2-pointEnd)"></path><path d="M147.713,244.15L178.336,225.533C208.96,206.917,270.206,169.683,317.723,151.067C365.24,132.45,399.026,132.45,450.966,126.604C502.906,120.757,573,109.065,608.047,103.218L643.094,97.372" id="ge0e7fa81-087d-488b-a3dc-fd46100132e9-dark-L_Reader_Lazy_0" class="edge-thickness-normal edge-pattern-solid edge-thickness-normal edge-pattern-solid flowchart-link" style=";" data-edge="true" data-et="edge" data-id="L_Reader_Lazy_0" data-points="W3sieCI6MTQ3LjcxMzA3MTQ4NzM1Njk4LCJ5IjoyNDQuMTQ5OTkzODk2NDg0Mzh9LHsieCI6MzMxLjQ1MzEyNSwieSI6MTMyLjQ0OTk5ODg1NTU5MDgyfSx7IngiOjQzMi44MTI1LCJ5IjoxMzIuNDQ5OTk4ODU1NTkwODJ9LHsieCI6NjQ3LjAzOTA2MjUsInkiOjk2LjcxMzY2OTcwOTIyNDkzfV0=" data-look="classic" marker-end="url(#ge0e7fa81-087d-488b-a3dc-fd46100132e9-dark_flowchart-v2-pointEnd)"></path><path d="M175.43,164.15L201.434,183.567C227.437,202.983,279.445,241.817,322.342,261.233C365.24,280.65,399.026,280.65,419.44,281.555C439.854,282.46,446.896,284.27,450.417,285.175L453.938,286.08" id="ge0e7fa81-087d-488b-a3dc-fd46100132e9-dark-L_Master_Window_0" class="edge-thickness-normal edge-pattern-solid edge-thickness-normal edge-pattern-solid flowchart-link" style=";" data-edge="true" data-et="edge" data-id="L_Master_Window_0" data-points="W3sieCI6MTc1LjQyOTYxODM5MjI0NTQsInkiOjE2NC4xNDk5OTc3MTExODE2NH0seyJ4IjozMzEuNDUzMTI1LCJ5IjoyODAuNjQ5OTkzODk2NDg0NH0seyJ4Ijo0MzIuODEyNSwieSI6MjgwLjY0OTk5Mzg5NjQ4NDR9LHsieCI6NDU3LjgxMjUsInkiOjI4Ny4wNzU2ODEwMDYyMDQ2Nn1d" data-look="classic" marker-end="url(#ge0e7fa81-087d-488b-a3dc-fd46100132e9-dark_flowchart-v2-pointEnd)"></path><path d="M1061.828,364.7L1065.995,364.7C1070.161,364.7,1078.495,364.7,1092.544,364.7C1106.594,364.7,1126.359,364.7,1145.458,364.7C1164.557,364.7,1182.99,364.7,1192.206,364.7L1201.422,364.7" id="ge0e7fa81-087d-488b-a3dc-fd46100132e9-dark-L_Window_Past_0" class="edge-thickness-normal edge-pattern-solid edge-thickness-normal edge-pattern-solid flowchart-link" style=";" data-edge="true" data-et="edge" data-id="L_Window_Past_0" data-points="W3sieCI6MTA2MS44MjgxMjUsInkiOjM2NC42OTk5ODkzMTg4NDc2Nn0seyJ4IjoxMDg2LjgyODEyNSwieSI6MzY0LjY5OTk4OTMxODg0NzY2fSx7IngiOjExNDYuMTI1LCJ5IjozNjQuNjk5OTg5MzE4ODQ3NjZ9LHsieCI6MTIwNS40MjE4NzUsInkiOjM2NC42OTk5ODkzMTg4NDc2Nn1d" data-look="classic" marker-end="url(#ge0e7fa81-087d-488b-a3dc-fd46100132e9-dark_flowchart-v2-pointEnd)"></path><path d="M148.12,277.65L178.676,295.517C209.231,313.383,270.342,349.117,317.791,366.983C365.24,384.85,399.026,384.85,419.421,384.634C439.815,384.418,446.818,383.987,450.319,383.771L453.82,383.556" id="ge0e7fa81-087d-488b-a3dc-fd46100132e9-dark-L_Reader_Window_0" class="edge-thickness-normal edge-pattern-solid edge-thickness-normal edge-pattern-solid flowchart-link" style=";" data-edge="true" data-et="edge" data-id="L_Reader_Window_0" data-points="W3sieCI6MTQ4LjEyMDE5NTQwNDAwNzE4LCJ5IjoyNzcuNjQ5OTkzODk2NDg0NH0seyJ4IjozMzEuNDUzMTI1LCJ5IjozODQuODQ5OTg4OTM3Mzc3OTN9LHsieCI6NDMyLjgxMjUsInkiOjM4NC44NDk5ODg5MzczNzc5M30seyJ4Ijo0NTcuODEyNSwieSI6MzgzLjMwOTUwNTg5MzIyMDV9XQ==" data-look="classic" marker-end="url(#ge0e7fa81-087d-488b-a3dc-fd46100132e9-dark_flowchart-v2-pointEnd)"></path></g><g class="edgeLabels"><g class="edgeLabel" transform="translate(331.453125, 62.14999961853027)"><g class="label" data-id="L_Master_Lazy_0" transform="translate(0, -10.5)"><g><rect class="background" style="" x="-60.421875" y="-1" width="120.84375" height="23"></rect><text y="-10.1" text-anchor="middle" style=""><tspan class="text-outer-tspan row" x="0" y="-0.1em" dy="1.1em" text-anchor="middle"><tspan font-style="normal" class="text-inner-tspan" font-weight="normal">client</tspan><tspan font-style="normal" class="text-inner-tspan" font-weight="normal"> query</tspan><tspan font-style="normal" class="text-inner-tspan" font-weight="normal"> 90d</tspan></tspan></text></g></g></g><g class="edgeLabel"><g class="label" data-id="L_Reader_Lazy_0" transform="translate(0, 0)"><text y="-10.1" text-anchor="middle"><tspan class="text-outer-tspan row" x="0" y="-0.1em" dy="1.1em" text-anchor="middle"></tspan></text></g></g><g><rect class="background" style="stroke: none"></rect></g><g class="edgeLabel" transform="translate(331.453125, 280.6499938964844)"><g class="label" data-id="L_Master_Window_0" transform="translate(0, -19.299999237060547)"><g><rect class="background" style="" x="-76.359375" y="-1" width="152.71875" height="40.599998474121094"></rect><text y="-10.1" text-anchor="middle" style=""><tspan class="text-outer-tspan row" x="0" y="-0.1em" dy="1.1em" text-anchor="middle"><tspan font-style="normal" class="text-inner-tspan" font-weight="normal">nightly</tspan><tspan font-style="normal" class="text-inner-tspan" font-weight="normal"> job</tspan></tspan><tspan class="text-outer-tspan row" x="0" y="1em" dy="1.1em" text-anchor="middle"><tspan font-style="normal" class="text-inner-tspan" font-weight="normal">materialize</tspan><tspan font-style="normal" class="text-inner-tspan" font-weight="normal"> next</tspan><tspan font-style="normal" class="text-inner-tspan" font-weight="normal"> 90d</tspan></tspan></text></g></g></g><g class="edgeLabel" transform="translate(1146.125, 364.69998931884766)"><g class="label" data-id="L_Window_Past_0" transform="translate(0, -10.5)"><g><rect class="background" style="" x="-34.296875" y="-1" width="68.59375" height="23"></rect><text y="-10.1" text-anchor="middle" style=""><tspan class="text-outer-tspan row" x="0" y="-0.1em" dy="1.1em" text-anchor="middle"><tspan font-style="normal" class="text-inner-tspan" font-weight="normal">aged</tspan><tspan font-style="normal" class="text-inner-tspan" font-weight="normal"> 90d</tspan></tspan></text></g></g></g><g class="edgeLabel"><g class="label" data-id="L_Reader_Window_0" transform="translate(0, 0)"><text y="-10.1" text-anchor="middle"><tspan class="text-outer-tspan row" x="0" y="-0.1em" dy="1.1em" text-anchor="middle"></tspan></text></g></g><g><rect class="background" style="stroke: none"></rect></g></g><g class="nodes"><g class="root" transform="translate(449.8125, 203.5999984741211)"><g class="clusters"><g class="cluster" id="ge0e7fa81-087d-488b-a3dc-fd46100132e9-dark-Window" data-look="classic"><rect style="" x="8" y="8" width="604.015625" height="306.1999969482422"></rect><g class="cluster-label" transform="translate(189.6875, 8)"><g><rect class="background" style="stroke: none"></rect><text y="-10.1" style=""><tspan class="text-outer-tspan row" x="0" y="-0.1em" dy="1.1em"><tspan font-style="normal" class="text-inner-tspan" font-weight="normal">Materialized</tspan><tspan font-style="normal" class="text-inner-tspan" font-weight="normal"> window</tspan><tspan font-style="normal" class="text-inner-tspan" font-weight="normal"> (rolling</tspan><tspan font-style="normal" class="text-inner-tspan" font-weight="normal"> 90d)</tspan></tspan></text></g></g></g></g><g class="edgePaths"><path d="M301.617,129.7L301.617,137.867C301.617,146.033,301.617,162.367,301.617,178.033C301.617,193.7,301.617,208.7,301.617,216.2L301.617,223.7" id="ge0e7fa81-087d-488b-a3dc-fd46100132e9-dark-L_Iex_I2_0" class="edge-thickness-normal edge-pattern-solid edge-thickness-normal edge-pattern-solid flowchart-link" style=";" data-edge="true" data-et="edge" data-id="L_Iex_I2_0" data-points="W3sieCI6MzAxLjYxNzE4NzUsInkiOjEyOS42OTk5OTY5NDgyNDIyfSx7IngiOjMwMS42MTcxODc1LCJ5IjoxNzguNjk5OTk2OTQ4MjQyMn0seyJ4IjozMDEuNjE3MTg3NSwieSI6MjI3LjY5OTk5Njk0ODI0MjJ9XQ==" data-look="classic" marker-end="url(#ge0e7fa81-087d-488b-a3dc-fd46100132e9-dark_flowchart-v2-pointEnd)"></path></g><g class="edgeLabels"><g class="edgeLabel" transform="translate(301.6171875, 178.6999969482422)"><g class="label" data-id="L_Iex_I2_0" transform="translate(0, -10.5)"><g><rect class="background" style="" x="-76.15625" y="-1" width="152.3125" height="23"></rect><text y="-10.1" text-anchor="middle" style=""><tspan class="text-outer-tspan row" x="0" y="-0.1em" dy="1.1em" text-anchor="middle"><tspan font-style="normal" class="text-inner-tspan" font-weight="normal">merged</tspan><tspan font-style="normal" class="text-inner-tspan" font-weight="normal"> at</tspan><tspan font-style="normal" class="text-inner-tspan" font-weight="normal"> read</tspan><tspan font-style="normal" class="text-inner-tspan" font-weight="normal"> time</tspan></tspan></text></g></g></g></g><g class="nodes"><g class="node default" id="ge0e7fa81-087d-488b-a3dc-fd46100132e9-dark-flowchart-I1-1" data-look="classic" transform="translate(109.7421875, 252.1999969482422)"><rect class="basic label-container" style="" x="-66.7421875" y="-24.5" width="133.484375" height="49"></rect><g class="label" style="" transform="translate(0, -9.5)"><rect></rect><g><rect class="background" style="stroke: none"></rect><text y="-10.1" style=""><tspan class="text-outer-tspan row" x="0" y="-0.1em" dy="1.1em"><tspan font-style="normal" class="text-inner-tspan" font-weight="normal">instance</tspan><tspan font-style="normal" class="text-inner-tspan" font-weight="normal"> n</tspan></tspan></text></g></g></g><g class="node default" id="ge0e7fa81-087d-488b-a3dc-fd46100132e9-dark-flowchart-Iex-4" data-look="classic" transform="translate(301.6171875, 87.5999984741211)"><rect class="basic label-container" style="" x="-92.015625" y="-42.099998474121094" width="184.03125" height="84.19999694824219"></rect><g class="label" style="" transform="translate(0, -27.099998474121094)"><rect></rect><g><rect class="background" style="stroke: none"></rect><text y="-10.1" style=""><tspan class="text-outer-tspan row" x="0" y="-0.1em" dy="1.1em"><tspan font-style="normal" class="text-inner-tspan" font-weight="normal">exception</tspan></tspan><tspan class="text-outer-tspan row" x="0" y="1em" dy="1.1em"><tspan font-style="normal" class="text-inner-tspan" font-weight="normal">recurringEventId</tspan></tspan><tspan class="text-outer-tspan row" x="0" y="2.1em" dy="1.1em"><tspan font-style="normal" class="text-inner-tspan" font-weight="normal">originalStartTime</tspan></tspan></text></g></g></g><g class="node default" id="ge0e7fa81-087d-488b-a3dc-fd46100132e9-dark-flowchart-I2-2" data-look="classic" transform="translate(301.6171875, 252.1999969482422)"><rect class="basic label-container" style="" x="-75.1328125" y="-24.5" width="150.265625" height="49"></rect><g class="label" style="" transform="translate(0, -9.5)"><rect></rect><g><rect class="background" style="stroke: none"></rect><text y="-10.1" style=""><tspan class="text-outer-tspan row" x="0" y="-0.1em" dy="1.1em"><tspan font-style="normal" class="text-inner-tspan" font-weight="normal">instance</tspan><tspan font-style="normal" class="text-inner-tspan" font-weight="normal"> n+1</tspan></tspan></text></g></g></g><g class="node default" id="ge0e7fa81-087d-488b-a3dc-fd46100132e9-dark-flowchart-I3-3" data-look="classic" transform="translate(501.8828125, 252.1999969482422)"><rect class="basic label-container" style="" x="-75.1328125" y="-24.5" width="150.265625" height="49"></rect><g class="label" style="" transform="translate(0, -9.5)"><rect></rect><g><rect class="background" style="stroke: none"></rect><text y="-10.1" style=""><tspan class="text-outer-tspan row" x="0" y="-0.1em" dy="1.1em"><tspan font-style="normal" class="text-inner-tspan" font-weight="normal">instance</tspan><tspan font-style="normal" class="text-inner-tspan" font-weight="normal"> n+2</tspan></tspan></text></g></g></g></g></g><g class="node default" id="ge0e7fa81-087d-488b-a3dc-fd46100132e9-dark-flowchart-Master-0" data-look="classic" transform="translate(119.046875, 122.04999923706055)"><rect class="basic label-container" style="" x="-111.046875" y="-42.099998474121094" width="222.09375" height="84.19999694824219"></rect><g class="label" style="" transform="translate(0, -27.099998474121094)"><rect></rect><g><rect class="background" style="stroke: none"></rect><text y="-10.1" style=""><tspan class="text-outer-tspan row" x="0" y="-0.1em" dy="1.1em"><tspan font-style="normal" class="text-inner-tspan" font-weight="normal">events</tspan><tspan font-style="normal" class="text-inner-tspan" font-weight="normal"> row</tspan></tspan><tspan class="text-outer-tspan row" x="0" y="1em" dy="1.1em"><tspan font-style="normal" class="text-inner-tspan" font-weight="normal">RRULE</tspan><tspan font-style="normal" class="text-inner-tspan" font-weight="normal"> +</tspan><tspan font-style="normal" class="text-inner-tspan" font-weight="normal"> DTSTART;TZID</tspan></tspan><tspan class="text-outer-tspan row" x="0" y="2.1em" dy="1.1em"><tspan font-style="normal" class="text-inner-tspan" font-weight="normal">EXDATE</tspan><tspan font-style="normal" class="text-inner-tspan" font-weight="normal"> /</tspan><tspan font-style="normal" class="text-inner-tspan" font-weight="normal"> RDATE</tspan></tspan></text></g></g></g><g class="node default" id="ge0e7fa81-087d-488b-a3dc-fd46100132e9-dark-flowchart-Lazy-5" data-look="classic" transform="translate(759.8203125, 77.89999961853027)"><rect class="basic label-container" style="" x="-112.78125" y="-33.29999923706055" width="225.5625" height="66.5999984741211"></rect><g class="label" style="" transform="translate(0, -18.299999237060547)"><rect></rect><g><rect class="background" style="stroke: none"></rect><text y="-10.1" style=""><tspan class="text-outer-tspan row" x="0" y="-0.1em" dy="1.1em"><tspan font-style="normal" class="text-inner-tspan" font-weight="normal">expand</tspan><tspan font-style="normal" class="text-inner-tspan" font-weight="normal"> on</tspan><tspan font-style="normal" class="text-inner-tspan" font-weight="normal"> read</tspan></tspan><tspan class="text-outer-tspan row" x="0" y="1em" dy="1.1em"><tspan font-style="normal" class="text-inner-tspan" font-weight="normal">RRULE.between(t1,</tspan><tspan font-style="normal" class="text-inner-tspan" font-weight="normal"> t2)</tspan></tspan></text></g></g></g><g class="node default" id="ge0e7fa81-087d-488b-a3dc-fd46100132e9-dark-flowchart-Past-6" data-look="classic" transform="translate(1306.3984375, 364.69998931884766)"><rect class="basic label-container" style="" x="-100.9765625" y="-33.29999923706055" width="201.953125" height="66.5999984741211"></rect><g class="label" style="" transform="translate(0, -18.299999237060547)"><rect></rect><g><rect class="background" style="stroke: none"></rect><text y="-10.1" style=""><tspan class="text-outer-tspan row" x="0" y="-0.1em" dy="1.1em"><tspan font-style="normal" class="text-inner-tspan" font-weight="normal">Past</tspan><tspan font-style="normal" class="text-inner-tspan" font-weight="normal"> instances</tspan></tspan><tspan class="text-outer-tspan row" x="0" y="1em" dy="1.1em"><tspan font-style="normal" class="text-inner-tspan" font-weight="normal">aged</tspan><tspan font-style="normal" class="text-inner-tspan" font-weight="normal"> out</tspan><tspan font-style="normal" class="text-inner-tspan" font-weight="normal"> /</tspan><tspan font-style="normal" class="text-inner-tspan" font-weight="normal"> archived</tspan></tspan></text></g></g></g><g class="node default" id="ge0e7fa81-087d-488b-a3dc-fd46100132e9-dark-flowchart-Reader-15" data-look="classic" transform="translate(119.046875, 260.6499938964844)"><g class="basic label-container outer-path"><path d="M-68.1875 -17 C-27.68698525304022 -17, 12.81352949391956 -17, 68.1875 -17 C68.1875 -17, 68.1875 -17, 68.1875 -17 C68.45397276424362 -16.991454737108477, 68.72044552848723 -16.982909474216953, 69.27669373967211 -16.965071676755716 C69.6649882378153 -16.9276133735123, 70.05328273595848 -16.890155070268886, 70.3614117486366 -16.860430234995185 C70.71647429873575 -16.803026475446355, 71.07153684883488 -16.74562271589753, 71.43719668792333 -16.686505668848113 C71.80891007241173 -16.60166451449516, 72.18062345690012 -16.516823360142205, 72.49962792646163 -16.4440126716635 C72.79637749210355 -16.355938958251237, 73.09312705774546 -16.267865244838973, 73.54433970640156 -16.133947699181366 C73.82186315939283 -16.0318165030819, 74.09938661238411 -15.929685306982432, 74.56703908294936 -15.757584874882369 C74.89780314535201 -15.611165436224013, 75.22856720775466 -15.46474599756566, 75.56352356499849 -15.316470754341125 C75.84102918837306 -15.17169624837745, 76.11853481174762 -15.026921742413773, 76.52969838406693 -14.812417970097622 C76.76682700783032 -14.668669204849786, 77.0039556315937 -14.524920439601953, 77.46159332057933 -14.247497783161291 C77.81757950084312 -13.999177234202635, 78.17356568110694 -13.750856685243981, 78.35537901835067 -13.624031571755262 C78.55932762011247 -13.461387989150456, 78.76327622187426 -13.298744406545651, 79.2073827202324 -12.944581292275288 C79.51854550686603 -12.661991482370805, 79.82970829349968 -12.37940167246632, 80.01410336025927 -12.21193895166137 C80.259991916719 -11.958038829290771, 80.50588047317872 -11.704138706920174, 80.77222595028036 -11.42911513444239 C80.99523431286293 -11.167156822217589, 81.21824267544551 -10.905198509992786, 81.47863520195651 -10.59932663159847 C81.62269033160828 -10.406305881557383, 81.76674546126006 -10.213285131516296, 82.13042832814824 -9.725983222076888 C82.3173524662397 -9.438817549809219, 82.50427660433114 -9.15165187754155, 82.72492697109088 -8.812673661278927 C82.866132312366 -8.561949279253653, 83.00733765364113 -8.311224897228382, 83.259688208341 -7.863150934094199 C83.43063999650074 -7.508165888198202, 83.60159178466047 -7.153180842302205, 83.73251459126881 -6.881316833080699 C83.8791543767851 -6.519113727768088, 84.02579416230138 -6.156910622455479, 84.14146317484592 -5.871205925162238 C84.23338663661598 -5.59434710432552, 84.32531009838603 -5.317488283488802, 84.48485350162323 -4.836968972727556 C84.56321030540573 -4.538160519851316, 84.64156710918823 -4.239352066975077, 84.761274507091 -3.7828558772573464 C84.81290953933397 -3.5177208997576015, 84.86454457157694 -3.2525859222578566, 84.96959031804565 -2.713198215567453 C85.0217568581247 -2.308604832162816, 85.07392339820376 -1.9040114487581785, 85.10894492013637 -1.632391440430593 C85.1321527161969 -1.2709112837919987, 85.15536051225743 -0.9094311271534046, 85.1787656754117 -0.5448768187181379 C85.1787656754117 -0.29062040743008705, 85.1787656754117 -0.036363996142036226, 85.1787656754117 0.5448768187181336 C85.16421569923489 0.7715044422012131, 85.14966572305809 0.9981320656842925, 85.10894492013637 1.6323914404305815 C85.06270826622583 1.9909937977006589, 85.0164716123153 2.3495961549707367, 84.96959031804565 2.7131982155674415 C84.9012799371242 3.063957584194964, 84.83296955620276 3.4147169528224866, 84.761274507091 3.782855877257343 C84.65633357414747 4.183041136259098, 84.55139264120393 4.583226395260852, 84.48485350162323 4.836968972727545 C84.38955767484946 5.123984819642121, 84.29426184807566 5.411000666556698, 84.14146317484592 5.871205925162227 C84.0345489707172 6.135286076405704, 83.92763476658847 6.399366227649181, 83.73251459126881 6.881316833080694 C83.63358034948993 7.086755902988187, 83.53464610771107 7.29219497289568, 83.259688208341 7.863150934094196 C83.14268668867426 8.070898979951094, 83.0256851690075 8.278647025807992, 82.72492697109088 8.812673661278923 C82.49468524067596 9.166386787757665, 82.26444351026106 9.520099914236404, 82.13042832814826 9.725983222076879 C81.88489084900884 10.054981075199171, 81.63935336986943 10.383978928321463, 81.47863520195651 10.599326631598467 C81.32460675162396 10.780257213826195, 81.1705783012914 10.96118779605392, 80.77222595028037 11.42911513444238 C80.59547575675731 11.611624220715703, 80.41872556323425 11.794133306989027, 80.01410336025927 12.211938951661365 C79.71338436642054 12.485043985277137, 79.4126653725818 12.758149018892908, 79.20738272023242 12.944581292275275 C78.96651698934981 13.13666530294786, 78.72565125846721 13.328749313620444, 78.35537901835067 13.62403157175526 C78.1747869999255 13.750004746106187, 77.99419498150031 13.875977920457112, 77.46159332057934 14.247497783161286 C77.15869652245914 14.431115602200922, 76.85579972433892 14.614733421240556, 76.52969838406695 14.81241797009762 C76.24357693052423 14.961687349141316, 75.95745547698152 15.110956728185013, 75.56352356499849 15.316470754341124 C75.23503601289242 15.461882449421463, 74.90654846078634 15.6072941445018, 74.56703908294936 15.757584874882367 C74.34991215179356 15.837489592647053, 74.13278522063776 15.917394310411739, 73.54433970640156 16.133947699181363 C73.14403332094749 16.252756533133038, 72.74372693549341 16.371565367084713, 72.49962792646164 16.444012671663497 C72.1461389891464 16.52469421487481, 71.79265005183116 16.605375758086122, 71.43719668792333 16.68650566884811 C71.17933489511734 16.728194763760914, 70.92147310231134 16.769883858673715, 70.36141174863661 16.86043023499518 C70.0018263184606 16.89511900897951, 69.64224088828459 16.929807782963838, 69.27669373967211 16.965071676755716 C68.89534484654591 16.977300793507684, 68.51399595341971 16.98952991025965, 68.1875 17 C68.1875 17, 68.1875 17, 68.1875 17 C40.1962136203919 17, 12.204927240783803 17, -68.1875 17 C-68.44072138565014 16.991879683027726, -68.69394277130026 16.983759366055452, -69.27669373967211 16.965071676755716 C-69.59556914507266 16.934310149900508, -69.9144445504732 16.9035486230453, -70.3614117486366 16.86043023499518 C-70.61500907582136 16.819430585812594, -70.86860640300613 16.778430936630006, -71.43719668792333 16.68650566884811 C-71.6577318201584 16.636169964041684, -71.87826695239347 16.58583425923526, -72.49962792646161 16.4440126716635 C-72.7762383706259 16.36191614379339, -73.0528488147902 16.27981961592328, -73.54433970640154 16.13394769918137 C-73.77508052642897 16.04903294446652, -74.00582134645637 15.964118189751677, -74.56703908294936 15.757584874882369 C-74.95853199617844 15.584282575420515, -75.3500249094075 15.41098027595866, -75.56352356499849 15.316470754341127 C-75.85849433291851 15.162584693655043, -76.15346510083853 15.00869863296896, -76.52969838406693 14.812417970097624 C-76.76620109221784 14.669048638572363, -77.00270380036874 14.525679307047103, -77.46159332057931 14.247497783161299 C-77.68861748262245 14.089135555437592, -77.91564164466557 13.930773327713887, -78.35537901835067 13.624031571755264 C-78.66350164753517 13.378311974468152, -78.97162427671965 13.13259237718104, -79.2073827202324 12.94458129227529 C-79.39921237827252 12.770366672377866, -79.59104203631266 12.596152052480441, -80.01410336025926 12.211938951661377 C-80.27720373651663 11.940266212233034, -80.54030411277398 11.66859347280469, -80.77222595028036 11.429115134442386 C-80.99778875291489 11.164156231580801, -81.22335155554943 10.899197328719215, -81.47863520195651 10.599326631598473 C-81.73871434715555 10.250844270729312, -81.99879349235458 9.902361909860153, -82.13042832814824 9.72598322207689 C-82.29319529577134 9.475929450757159, -82.45596226339444 9.22587567943743, -82.72492697109088 8.812673661278936 C-82.86368677788346 8.566291573364637, -83.00244658467604 8.31990948545034, -83.259688208341 7.863150934094201 C-83.37743980384153 7.618637226556834, -83.49519139934205 7.374123519019468, -83.73251459126881 6.881316833080701 C-83.87443161177343 6.5307790486553605, -84.01634863227805 6.18024126423002, -84.14146317484592 5.87120592516224 C-84.25956896409396 5.5154901055491825, -84.377674753342 5.159774285936126, -84.48485350162323 4.8369689727275516 C-84.54995713855472 4.588700589013084, -84.6150607754862 4.340432205298616, -84.761274507091 3.782855877257349 C-84.82315621336365 3.465106394250543, -84.8850379196363 3.1473569112437367, -84.96959031804565 2.713198215567455 C-85.0053385400037 2.4359420653456865, -85.04108676196175 2.1586859151239173, -85.10894492013637 1.6323914404306026 C-85.13330770089314 1.25292146486111, -85.15767048164993 0.8734514892916175, -85.1787656754117 0.54487681871814 C-85.1787656754117 0.13948736523935157, -85.1787656754117 -0.26590208823943684, -85.1787656754117 -0.5448768187181317 C-85.16455547754009 -0.7662121208336998, -85.15034527966847 -0.987547422949268, -85.10894492013637 -1.6323914404305793 C-85.06483357167437 -1.9745103483307866, -85.02072222321237 -2.316629256230994, -84.96959031804565 -2.713198215567447 C-84.8989657362903 -3.0758405163705747, -84.82834115453494 -3.4384828171737025, -84.761274507091 -3.782855877257341 C-84.69072768262693 -4.051881494125977, -84.62018085816285 -4.320907110994613, -84.48485350162323 -4.836968972727544 C-84.37903150943978 -5.1556879527393615, -84.27320951725632 -5.4744069327511795, -84.14146317484594 -5.871205925162218 C-83.99323930454851 -6.237321750510454, -83.84501543425107 -6.603437575858691, -83.73251459126881 -6.881316833080692 C-83.55315471059617 -7.253761462984088, -83.37379482992354 -7.626206092887484, -83.259688208341 -7.863150934094194 C-83.05407433252418 -8.228239191269594, -82.84846045670737 -8.593327448444994, -82.72492697109088 -8.812673661278929 C-82.49575707749482 -9.164740158575437, -82.26658718389875 -9.516806655871946, -82.13042832814826 -9.725983222076884 C-81.99358679618247 -9.909338408391015, -81.85674526421668 -10.092693594705148, -81.47863520195651 -10.599326631598467 C-81.20611064352585 -10.919449485017791, -80.93358608509519 -11.239572338437116, -80.77222595028037 -11.42911513444238 C-80.56173521457087 -11.646464100673235, -80.35124447886136 -11.86381306690409, -80.01410336025927 -12.21193895166136 C-79.69598543461409 -12.500845234793244, -79.37786750896889 -12.789751517925128, -79.20738272023242 -12.944581292275274 C-78.93777905420106 -13.159583041480415, -78.66817538816971 -13.374584790685557, -78.35537901835067 -13.624031571755259 C-78.05315639956763 -13.834848987612004, -77.75093378078459 -14.045666403468749, -77.46159332057934 -14.247497783161284 C-77.21607190044239 -14.39633431089232, -76.97055048030545 -14.545170838623356, -76.52969838406695 -14.812417970097618 C-76.18177197908423 -14.993930952719598, -75.83384557410153 -15.17544393534158, -75.56352356499849 -15.316470754341124 C-75.16897493988726 -15.49112572680874, -74.77442631477604 -15.665780699276354, -74.56703908294936 -15.757584874882365 C-74.16820265609911 -15.90436036676677, -73.76936622924887 -16.05113585865118, -73.54433970640156 -16.133947699181363 C-73.27639042038591 -16.213473640776304, -73.00844113437026 -16.292999582371245, -72.49962792646164 -16.444012671663494 C-72.25514018431437 -16.49981540337699, -72.01065244216711 -16.555618135090484, -71.43719668792333 -16.68650566884811 C-71.17380870114597 -16.72908819594593, -70.9104207143686 -16.77167072304375, -70.36141174863661 -16.86043023499518 C-70.03821118084952 -16.89160900506405, -69.71501061306242 -16.92278777513292, -69.27669373967213 -16.965071676755716 C-69.04358075030876 -16.97254715659769, -68.8104677609454 -16.980022636439667, -68.1875 -17 C-68.1875 -17, -68.1875 -17, -68.1875 -17" stroke="none" stroke-width="0" fill="#2d2d2d" style=""></path><path d="M-68.1875 -17 C-24.595165351779315 -17, 18.99716929644137 -17, 68.1875 -17 M-68.1875 -17 C-15.619788177218247 -17, 36.947923645563506 -17, 68.1875 -17 M68.1875 -17 C68.1875 -17, 68.1875 -17, 68.1875 -17 M68.1875 -17 C68.1875 -17, 68.1875 -17, 68.1875 -17 M68.1875 -17 C68.61900342112946 -16.986162525154835, 69.05050684225893 -16.97232505030967, 69.27669373967211 -16.965071676755716 M68.1875 -17 C68.58432499797706 -16.987274594687875, 68.98114999595413 -16.974549189375754, 69.27669373967211 -16.965071676755716 M69.27669373967211 -16.965071676755716 C69.69875893032152 -16.924355555421428, 70.12082412097092 -16.883639434087137, 70.3614117486366 -16.860430234995185 M69.27669373967211 -16.965071676755716 C69.52789753202364 -16.940838349024325, 69.77910132437518 -16.916605021292938, 70.3614117486366 -16.860430234995185 M70.3614117486366 -16.860430234995185 C70.6037863413395 -16.82124499049002, 70.84616093404239 -16.782059745984856, 71.43719668792333 -16.686505668848113 M70.3614117486366 -16.860430234995185 C70.73293104092744 -16.800365876992743, 71.1044503332183 -16.740301518990304, 71.43719668792333 -16.686505668848113 M71.43719668792333 -16.686505668848113 C71.73394911518487 -16.61877386381623, 72.0307015424464 -16.551042058784347, 72.49962792646163 -16.4440126716635 M71.43719668792333 -16.686505668848113 C71.71211115226876 -16.623758236345807, 71.98702561661418 -16.561010803843498, 72.49962792646163 -16.4440126716635 M72.49962792646163 -16.4440126716635 C72.90241934870244 -16.324466291837748, 73.30521077094325 -16.204919912011995, 73.54433970640156 -16.133947699181366 M72.49962792646163 -16.4440126716635 C72.7974267861337 -16.355627533290946, 73.09522564580575 -16.267242394918387, 73.54433970640156 -16.133947699181366 M73.54433970640156 -16.133947699181366 C73.83677534616703 -16.026328680502253, 74.12921098593249 -15.91870966182314, 74.56703908294936 -15.757584874882369 M73.54433970640156 -16.133947699181366 C73.86470385286876 -16.01605073186773, 74.18506799933596 -15.898153764554092, 74.56703908294936 -15.757584874882369 M74.56703908294936 -15.757584874882369 C74.92441840070751 -15.599383652191639, 75.28179771846564 -15.441182429500909, 75.56352356499849 -15.316470754341125 M74.56703908294936 -15.757584874882369 C74.81244882427947 -15.648949262216854, 75.05785856560958 -15.540313649551342, 75.56352356499849 -15.316470754341125 M75.56352356499849 -15.316470754341125 C75.93175304069135 -15.124365672734397, 76.2999825163842 -14.932260591127669, 76.52969838406693 -14.812417970097622 M75.56352356499849 -15.316470754341125 C75.77348643792918 -15.206933258020822, 75.98344931085987 -15.097395761700518, 76.52969838406693 -14.812417970097622 M76.52969838406693 -14.812417970097622 C76.81178207299965 -14.641417180158854, 77.09386576193236 -14.470416390220084, 77.46159332057933 -14.247497783161291 M76.52969838406693 -14.812417970097622 C76.86909707186821 -14.60667249102441, 77.20849575966949 -14.400927011951197, 77.46159332057933 -14.247497783161291 M77.46159332057933 -14.247497783161291 C77.79769339965834 -14.013048917533693, 78.13379347873737 -13.778600051906096, 78.35537901835067 -13.624031571755262 M77.46159332057933 -14.247497783161291 C77.78673531164075 -14.020692805366778, 78.1118773027022 -13.793887827572263, 78.35537901835067 -13.624031571755262 M78.35537901835067 -13.624031571755262 C78.57175545421384 -13.451477122173172, 78.788131890077 -13.27892267259108, 79.2073827202324 -12.944581292275288 M78.35537901835067 -13.624031571755262 C78.62598184817283 -13.408233016015819, 78.896584677995 -13.192434460276376, 79.2073827202324 -12.944581292275288 M79.2073827202324 -12.944581292275288 C79.4320847334562 -12.740512869154912, 79.65678674668 -12.536444446034539, 80.01410336025927 -12.21193895166137 M79.2073827202324 -12.944581292275288 C79.37808462089043 -12.789554342622463, 79.54878652154845 -12.634527392969638, 80.01410336025927 -12.21193895166137 M80.01410336025927 -12.21193895166137 C80.27107063403912 -11.94659914407814, 80.52803790781897 -11.68125933649491, 80.77222595028036 -11.42911513444239 M80.01410336025927 -12.21193895166137 C80.30458842285837 -11.911989275260623, 80.59507348545748 -11.612039598859877, 80.77222595028036 -11.42911513444239 M80.77222595028036 -11.42911513444239 C81.01749208980306 -11.141011570920334, 81.26275822932575 -10.85290800739828, 81.47863520195651 -10.59932663159847 M80.77222595028036 -11.42911513444239 C81.04707096471549 -11.106266541362523, 81.32191597915063 -10.783417948282658, 81.47863520195651 -10.59932663159847 M81.47863520195651 -10.59932663159847 C81.65055320421617 -10.368972170622738, 81.82247120647581 -10.138617709647006, 82.13042832814824 -9.725983222076888 M81.47863520195651 -10.59932663159847 C81.68561970614442 -10.321986252662912, 81.89260421033234 -10.044645873727353, 82.13042832814824 -9.725983222076888 M82.13042832814824 -9.725983222076888 C82.3146820249246 -9.4429200647831, 82.49893572170096 -9.159856907489313, 82.72492697109088 -8.812673661278927 M82.13042832814824 -9.725983222076888 C82.27659371911957 -9.5014339306418, 82.42275911009091 -9.276884639206715, 82.72492697109088 -8.812673661278927 M82.72492697109088 -8.812673661278927 C82.89274562967125 -8.514694639487583, 83.06056428825163 -8.21671561769624, 83.259688208341 -7.863150934094199 M82.72492697109088 -8.812673661278927 C82.8699885739254 -8.555102096366138, 83.0150501767599 -8.29753053145335, 83.259688208341 -7.863150934094199 M83.259688208341 -7.863150934094199 C83.41632034290153 -7.537900955288458, 83.57295247746207 -7.212650976482716, 83.73251459126881 -6.881316833080699 M83.259688208341 -7.863150934094199 C83.4357523239726 -7.497550030816608, 83.61181643960418 -7.131949127539017, 83.73251459126881 -6.881316833080699 M83.73251459126881 -6.881316833080699 C83.86404388089046 -6.556436944769386, 83.99557317051213 -6.2315570564580725, 84.14146317484592 -5.871205925162238 M83.73251459126881 -6.881316833080699 C83.88078923508262 -6.515075596165389, 84.02906387889641 -6.148834359250078, 84.14146317484592 -5.871205925162238 M84.14146317484592 -5.871205925162238 C84.22162816981256 -5.62976173288012, 84.30179316477921 -5.388317540598003, 84.48485350162323 -4.836968972727556 M84.14146317484592 -5.871205925162238 C84.26079071410528 -5.5118103891744985, 84.38011825336466 -5.15241485318676, 84.48485350162323 -4.836968972727556 M84.48485350162323 -4.836968972727556 C84.56235579443737 -4.5414191405211115, 84.63985808725148 -4.245869308314668, 84.761274507091 -3.7828558772573464 M84.48485350162323 -4.836968972727556 C84.5487068987438 -4.593468295269476, 84.61256029586436 -4.349967617811396, 84.761274507091 -3.7828558772573464 M84.761274507091 -3.7828558772573464 C84.83939484899975 -3.3817244322960827, 84.91751519090847 -2.980592987334819, 84.96959031804565 -2.713198215567453 M84.761274507091 -3.7828558772573464 C84.82076861134578 -3.47736622599242, 84.88026271560057 -3.1718765747274933, 84.96959031804565 -2.713198215567453 M84.96959031804565 -2.713198215567453 C85.02012997031541 -2.3212226527463615, 85.07066962258517 -1.92924708992527, 85.10894492013637 -1.632391440430593 M84.96959031804565 -2.713198215567453 C85.01781466993503 -2.3391796652887864, 85.06603902182442 -1.9651611150101198, 85.10894492013637 -1.632391440430593 M85.10894492013637 -1.632391440430593 C85.13637034790187 -1.205218265576042, 85.16379577566738 -0.7780450907214908, 85.1787656754117 -0.5448768187181379 M85.10894492013637 -1.632391440430593 C85.13504095266896 -1.2259246693971901, 85.16113698520155 -0.8194578983637872, 85.1787656754117 -0.5448768187181379 M85.1787656754117 -0.5448768187181379 C85.1787656754117 -0.2474835204765981, 85.1787656754117 0.049909777764941654, 85.1787656754117 0.5448768187181336 M85.1787656754117 -0.5448768187181379 C85.1787656754117 -0.30632338167203776, 85.1787656754117 -0.0677699446259376, 85.1787656754117 0.5448768187181336 M85.1787656754117 0.5448768187181336 C85.1566413319009 0.889481327347493, 85.13451698839009 1.2340858359768523, 85.10894492013637 1.6323914404305815 M85.1787656754117 0.5448768187181336 C85.15585077605952 0.9017948727021485, 85.13293587670734 1.2587129266861634, 85.10894492013637 1.6323914404305815 M85.10894492013637 1.6323914404305815 C85.06055201823591 2.0077172313112044, 85.01215911633544 2.383043022191827, 84.96959031804565 2.7131982155674415 M85.10894492013637 1.6323914404305815 C85.07097552531846 1.9268745687332045, 85.03300613050055 2.2213576970358275, 84.96959031804565 2.7131982155674415 M84.96959031804565 2.7131982155674415 C84.92239335441228 2.955544648743029, 84.8751963907789 3.1978910819186166, 84.761274507091 3.782855877257343 M84.96959031804565 2.7131982155674415 C84.91070451142936 3.0155643870224886, 84.85181870481306 3.317930558477536, 84.761274507091 3.782855877257343 M84.761274507091 3.782855877257343 C84.67334252244504 4.118178644675591, 84.58541053779909 4.453501412093838, 84.48485350162323 4.836968972727545 M84.761274507091 3.782855877257343 C84.68340320946304 4.079812884746637, 84.60553191183509 4.376769892235931, 84.48485350162323 4.836968972727545 M84.48485350162323 4.836968972727545 C84.39506012860599 5.107412305624362, 84.30526675558875 5.377855638521179, 84.14146317484592 5.871205925162227 M84.48485350162323 4.836968972727545 C84.36045266500247 5.211644472047652, 84.2360518283817 5.586319971367759, 84.14146317484592 5.871205925162227 M84.14146317484592 5.871205925162227 C84.05642826026816 6.081243808207529, 83.9713933456904 6.2912816912528315, 83.73251459126881 6.881316833080694 M84.14146317484592 5.871205925162227 C84.03989412665648 6.122083437894132, 83.93832507846702 6.3729609506260365, 83.73251459126881 6.881316833080694 M83.73251459126881 6.881316833080694 C83.54343538817474 7.2739438439523605, 83.35435618508069 7.666570854824028, 83.259688208341 7.863150934094196 M83.73251459126881 6.881316833080694 C83.61435705229393 7.126673490928382, 83.49619951331903 7.372030148776069, 83.259688208341 7.863150934094196 M83.259688208341 7.863150934094196 C83.15163040613602 8.05501850394813, 83.04357260393104 8.246886073802063, 82.72492697109088 8.812673661278923 M83.259688208341 7.863150934094196 C83.11856849976074 8.1137232665985, 82.97744879118046 8.364295599102803, 82.72492697109088 8.812673661278923 M82.72492697109088 8.812673661278923 C82.5090810720513 9.144270924943166, 82.29323517301172 9.475868188607409, 82.13042832814826 9.725983222076879 M82.72492697109088 8.812673661278923 C82.60235630546026 9.000975118519788, 82.47978563982964 9.189276575760651, 82.13042832814826 9.725983222076879 M82.13042832814826 9.725983222076879 C81.88003708590566 10.061484675570515, 81.62964584366307 10.396986129064151, 81.47863520195651 10.599326631598467 M82.13042832814826 9.725983222076879 C81.96499739117037 9.947645606558838, 81.79956645419249 10.1693079910408, 81.47863520195651 10.599326631598467 M81.47863520195651 10.599326631598467 C81.21870363369241 10.904657042206702, 80.95877206542832 11.209987452814937, 80.77222595028037 11.42911513444238 M81.47863520195651 10.599326631598467 C81.32810531949266 10.77614759693346, 81.17757543702882 10.952968562268456, 80.77222595028037 11.42911513444238 M80.77222595028037 11.42911513444238 C80.59491095274102 11.612207427233795, 80.41759595520168 11.79529972002521, 80.01410336025927 12.211938951661365 M80.77222595028037 11.42911513444238 C80.61143206116672 11.595148026376028, 80.45063817205308 11.761180918309675, 80.01410336025927 12.211938951661365 M80.01410336025927 12.211938951661365 C79.8506496980612 12.360383242922738, 79.68719603586314 12.50882753418411, 79.20738272023242 12.944581292275275 M80.01410336025927 12.211938951661365 C79.80787922314775 12.399226256594384, 79.60165508603623 12.586513561527404, 79.20738272023242 12.944581292275275 M79.20738272023242 12.944581292275275 C78.87750303741846 13.207651560852367, 78.54762335460453 13.470721829429458, 78.35537901835067 13.62403157175526 M79.20738272023242 12.944581292275275 C78.992155250161 13.116219472213709, 78.7769277800896 13.287857652152143, 78.35537901835067 13.62403157175526 M78.35537901835067 13.62403157175526 C78.14151061098072 13.773216914522404, 77.92764220361076 13.922402257289548, 77.46159332057934 14.247497783161286 M78.35537901835067 13.62403157175526 C78.16994149215442 13.75338476256864, 77.98450396595817 13.88273795338202, 77.46159332057934 14.247497783161286 M77.46159332057934 14.247497783161286 C77.12088028124394 14.454040029858469, 76.78016724190854 14.660582276555651, 76.52969838406695 14.81241797009762 M77.46159332057934 14.247497783161286 C77.22473136076222 14.391084895157807, 76.98786940094509 14.53467200715433, 76.52969838406695 14.81241797009762 M76.52969838406695 14.81241797009762 C76.22771584264072 14.969962068530636, 75.92573330121448 15.127506166963652, 75.56352356499849 15.316470754341124 M76.52969838406695 14.81241797009762 C76.30661152348883 14.92880224236727, 76.0835246629107 15.04518651463692, 75.56352356499849 15.316470754341124 M75.56352356499849 15.316470754341124 C75.26733923574695 15.447582770904821, 74.9711549064954 15.578694787468518, 74.56703908294936 15.757584874882367 M75.56352356499849 15.316470754341124 C75.2992432446908 15.433459812544179, 75.0349629243831 15.550448870747234, 74.56703908294936 15.757584874882367 M74.56703908294936 15.757584874882367 C74.26598470368364 15.868375669368326, 73.96493032441792 15.979166463854288, 73.54433970640156 16.133947699181363 M74.56703908294936 15.757584874882367 C74.28422179786519 15.861664250127667, 74.00140451278101 15.96574362537297, 73.54433970640156 16.133947699181363 M73.54433970640156 16.133947699181363 C73.13202685569756 16.256319988995994, 72.71971400499355 16.378692278810625, 72.49962792646164 16.444012671663497 M73.54433970640156 16.133947699181363 C73.23503514350313 16.225747669876835, 72.92573058060471 16.317547640572307, 72.49962792646164 16.444012671663497 M72.49962792646164 16.444012671663497 C72.18940648894456 16.514818690392705, 71.87918505142746 16.585624709121912, 71.43719668792333 16.68650566884811 M72.49962792646164 16.444012671663497 C72.2314367328072 16.505225561504027, 71.96324553915277 16.56643845134456, 71.43719668792333 16.68650566884811 M71.43719668792333 16.68650566884811 C71.04316215136275 16.750210116935754, 70.64912761480217 16.813914565023403, 70.36141174863661 16.86043023499518 M71.43719668792333 16.68650566884811 C71.04152229292346 16.750475236530928, 70.64584789792357 16.814444804213746, 70.36141174863661 16.86043023499518 M70.36141174863661 16.86043023499518 C69.94142582551846 16.900945771891415, 69.52143990240033 16.94146130878765, 69.27669373967211 16.965071676755716 M70.36141174863661 16.86043023499518 C70.02331268580501 16.89304624496293, 69.68521362297341 16.925662254930682, 69.27669373967211 16.965071676755716 M69.27669373967211 16.965071676755716 C68.95874423710868 16.975267698451763, 68.64079473454524 16.98546372014781, 68.1875 17 M69.27669373967211 16.965071676755716 C68.98368665563902 16.97446784363697, 68.69067957160593 16.983864010518218, 68.1875 17 M68.1875 17 C68.1875 17, 68.1875 17, 68.1875 17 M68.1875 17 C68.1875 17, 68.1875 17, 68.1875 17 M68.1875 17 C24.883864145884942 17, -18.419771708230115 17, -68.1875 17 M68.1875 17 C34.851714638494464 17, 1.5159292769889277 17, -68.1875 17 M-68.1875 17 C-68.41725785908123 16.99263211265581, -68.64701571816245 16.985264225311614, -69.27669373967211 16.965071676755716 M-68.1875 17 C-68.42115734458794 16.992507063745496, -68.65481468917588 16.98501412749099, -69.27669373967211 16.965071676755716 M-69.27669373967211 16.965071676755716 C-69.65415373889982 16.928658564592283, -70.03161373812755 16.892245452428853, -70.3614117486366 16.86043023499518 M-69.27669373967211 16.965071676755716 C-69.49698760402046 16.943820192604164, -69.71728146836881 16.922568708452616, -70.3614117486366 16.86043023499518 M-70.3614117486366 16.86043023499518 C-70.58136256988169 16.82487029196037, -70.80131339112677 16.78931034892556, -71.43719668792333 16.68650566884811 M-70.3614117486366 16.86043023499518 C-70.73500463378771 16.800030634580047, -71.10859751893881 16.739631034164912, -71.43719668792333 16.68650566884811 M-71.43719668792333 16.68650566884811 C-71.68421116834642 16.630126225611665, -71.93122564876951 16.57374678237522, -72.49962792646161 16.4440126716635 M-71.43719668792333 16.68650566884811 C-71.74914516248407 16.615305465183656, -72.06109363704482 16.544105261519206, -72.49962792646161 16.4440126716635 M-72.49962792646161 16.4440126716635 C-72.8426950455936 16.342192151501184, -73.1857621647256 16.240371631338864, -73.54433970640154 16.13394769918137 M-72.49962792646161 16.4440126716635 C-72.73673701269749 16.373639939479684, -72.97384609893336 16.30326720729587, -73.54433970640154 16.13394769918137 M-73.54433970640154 16.13394769918137 C-73.76459526542355 16.052891617441205, -73.98485082444554 15.97183553570104, -74.56703908294936 15.757584874882369 M-73.54433970640154 16.13394769918137 C-73.92062608374516 15.995470833965774, -74.2969124610888 15.856993968750178, -74.56703908294936 15.757584874882369 M-74.56703908294936 15.757584874882369 C-74.93476724120092 15.594802527492652, -75.30249539945247 15.432020180102933, -75.56352356499849 15.316470754341127 M-74.56703908294936 15.757584874882369 C-74.84846381589804 15.63300649377408, -75.12988854884674 15.508428112665788, -75.56352356499849 15.316470754341127 M-75.56352356499849 15.316470754341127 C-75.92043426806946 15.130270669161217, -76.27734497114044 14.944070583981306, -76.52969838406693 14.812417970097624 M-75.56352356499849 15.316470754341127 C-75.76940103899449 15.20906460802823, -75.97527851299049 15.101658461715335, -76.52969838406693 14.812417970097624 M-76.52969838406693 14.812417970097624 C-76.75163056377578 14.67788137853987, -76.9735627434846 14.54334478698212, -77.46159332057931 14.247497783161299 M-76.52969838406693 14.812417970097624 C-76.89053739462118 14.593675241374243, -77.25137640517542 14.37493251265086, -77.46159332057931 14.247497783161299 M-77.46159332057931 14.247497783161299 C-77.68246239225545 14.093429080028043, -77.90333146393158 13.939360376894786, -78.35537901835067 13.624031571755264 M-77.46159332057931 14.247497783161299 C-77.73298485802208 14.058186794991533, -78.00437639546485 13.868875806821766, -78.35537901835067 13.624031571755264 M-78.35537901835067 13.624031571755264 C-78.60904128981227 13.421742660501181, -78.86270356127386 13.219453749247096, -79.2073827202324 12.94458129227529 M-78.35537901835067 13.624031571755264 C-78.63945286551775 13.397490238162073, -78.92352671268483 13.170948904568883, -79.2073827202324 12.94458129227529 M-79.2073827202324 12.94458129227529 C-79.44123526831989 12.732202595501604, -79.67508781640736 12.519823898727918, -80.01410336025926 12.211938951661377 M-79.2073827202324 12.94458129227529 C-79.42914682774746 12.74318099738687, -79.6509109352625 12.541780702498453, -80.01410336025926 12.211938951661377 M-80.01410336025926 12.211938951661377 C-80.28053954356375 11.93682171758203, -80.54697572686823 11.66170448350268, -80.77222595028036 11.429115134442386 M-80.01410336025926 12.211938951661377 C-80.2587359636623 11.95933570393747, -80.50336856706534 11.706732456213564, -80.77222595028036 11.429115134442386 M-80.77222595028036 11.429115134442386 C-81.04986261312106 11.10298731229604, -81.32749927596177 10.776859490149695, -81.47863520195651 10.599326631598473 M-80.77222595028036 11.429115134442386 C-81.03674551234997 11.118395405245952, -81.30126507441958 10.80767567604952, -81.47863520195651 10.599326631598473 M-81.47863520195651 10.599326631598473 C-81.60915103412559 10.424447306728815, -81.73966686629467 10.249567981859157, -82.13042832814824 9.72598322207689 M-81.47863520195651 10.599326631598473 C-81.68552068681045 10.322118929549589, -81.89240617166439 10.044911227500705, -82.13042832814824 9.72598322207689 M-82.13042832814824 9.72598322207689 C-82.32270600198603 9.43059308127721, -82.51498367582383 9.135202940477532, -82.72492697109088 8.812673661278936 M-82.13042832814824 9.72598322207689 C-82.2549051019093 9.53475347088597, -82.37938187567036 9.34352371969505, -82.72492697109088 8.812673661278936 M-82.72492697109088 8.812673661278936 C-82.85151886289025 8.5878969385701, -82.97811075468961 8.363120215861263, -83.259688208341 7.863150934094201 M-82.72492697109088 8.812673661278936 C-82.8659854815012 8.56220999232236, -83.00704399191152 8.311746323365785, -83.259688208341 7.863150934094201 M-83.259688208341 7.863150934094201 C-83.39703212434902 7.577953353814502, -83.53437604035706 7.292755773534803, -83.73251459126881 6.881316833080701 M-83.259688208341 7.863150934094201 C-83.41835357380913 7.5336789078046715, -83.57701893927725 7.204206881515141, -83.73251459126881 6.881316833080701 M-83.73251459126881 6.881316833080701 C-83.87260848104539 6.535282216801446, -84.01270237082197 6.189247600522191, -84.14146317484592 5.87120592516224 M-83.73251459126881 6.881316833080701 C-83.89432743191236 6.481635988252678, -84.05614027255592 6.081955143424653, -84.14146317484592 5.87120592516224 M-84.14146317484592 5.87120592516224 C-84.24851202257908 5.548791851707633, -84.35556087031223 5.226377778253026, -84.48485350162323 4.8369689727275516 M-84.14146317484592 5.87120592516224 C-84.25118297739462 5.540747361362056, -84.36090277994333 5.210288797561873, -84.48485350162323 4.8369689727275516 M-84.48485350162323 4.8369689727275516 C-84.54871550323921 4.59343548259924, -84.6125775048552 4.349901992470929, -84.761274507091 3.782855877257349 M-84.48485350162323 4.8369689727275516 C-84.58717817090762 4.446760660954, -84.689502840192 4.056552349180449, -84.761274507091 3.782855877257349 M-84.761274507091 3.782855877257349 C-84.8373516305032 3.3922159274413644, -84.91342875391543 3.0015759776253796, -84.96959031804565 2.713198215567455 M-84.761274507091 3.782855877257349 C-84.81881312196116 3.487407250689646, -84.87635173683131 3.191958624121943, -84.96959031804565 2.713198215567455 M-84.96959031804565 2.713198215567455 C-85.00221884571128 2.4601377982243275, -85.03484737337692 2.2070773808812003, -85.10894492013637 1.6323914404306026 M-84.96959031804565 2.713198215567455 C-85.00196954722328 2.4620713080677037, -85.03434877640092 2.2109444005679517, -85.10894492013637 1.6323914404306026 M-85.10894492013637 1.6323914404306026 C-85.13417137230897 1.2394690854165962, -85.15939782448157 0.8465467304025895, -85.1787656754117 0.54487681871814 M-85.10894492013637 1.6323914404306026 C-85.12344029773242 1.4066142339139676, -85.13793567532846 1.1808370273973328, -85.1787656754117 0.54487681871814 M-85.1787656754117 0.54487681871814 C-85.1787656754117 0.2542804747156488, -85.1787656754117 -0.036315869286842384, -85.1787656754117 -0.5448768187181317 M-85.1787656754117 0.54487681871814 C-85.1787656754117 0.2936561990762076, -85.1787656754117 0.04243557943427523, -85.1787656754117 -0.5448768187181317 M-85.1787656754117 -0.5448768187181317 C-85.15132829908264 -0.972236102094717, -85.12389092275359 -1.3995953854713024, -85.10894492013637 -1.6323914404305793 M-85.1787656754117 -0.5448768187181317 C-85.1568169043978 -0.8867466439885334, -85.13486813338392 -1.2286164692589352, -85.10894492013637 -1.6323914404305793 M-85.10894492013637 -1.6323914404305793 C-85.06254111914807 -1.9922901574289131, -85.01613731815975 -2.352188874427247, -84.96959031804565 -2.713198215567447 M-85.10894492013637 -1.6323914404305793 C-85.06579957369053 -1.9670182274522194, -85.02265422724467 -2.3016450144738596, -84.96959031804565 -2.713198215567447 M-84.96959031804565 -2.713198215567447 C-84.9004999416268 -3.0679626962219606, -84.83140956520798 -3.4227271768764744, -84.761274507091 -3.782855877257341 M-84.96959031804565 -2.713198215567447 C-84.90525553627937 -3.043543722776364, -84.84092075451309 -3.3738892299852816, -84.761274507091 -3.782855877257341 M-84.761274507091 -3.782855877257341 C-84.67641204963635 -4.106473207153634, -84.5915495921817 -4.430090537049926, -84.48485350162323 -4.836968972727544 M-84.761274507091 -3.782855877257341 C-84.70295757436296 -4.005243616467935, -84.6446406416349 -4.227631355678528, -84.48485350162323 -4.836968972727544 M-84.48485350162323 -4.836968972727544 C-84.40542820467039 -5.07618531244699, -84.32600290771755 -5.315401652166436, -84.14146317484594 -5.871205925162218 M-84.48485350162323 -4.836968972727544 C-84.35828172690152 -5.2181829917156906, -84.23170995217983 -5.599397010703838, -84.14146317484594 -5.871205925162218 M-84.14146317484594 -5.871205925162218 C-84.04243939463547 -6.115796576776618, -83.943415614425 -6.360387228391018, -83.73251459126881 -6.881316833080692 M-84.14146317484594 -5.871205925162218 C-84.05725998722671 -6.0791894265395925, -83.97305679960748 -6.287172927916967, -83.73251459126881 -6.881316833080692 M-83.73251459126881 -6.881316833080692 C-83.573568435821 -7.211371925770976, -83.4146222803732 -7.541427018461261, -83.259688208341 -7.863150934094194 M-83.73251459126881 -6.881316833080692 C-83.62697091214008 -7.100480541064469, -83.52142723301135 -7.319644249048245, -83.259688208341 -7.863150934094194 M-83.259688208341 -7.863150934094194 C-83.13015678263648 -8.093147096911744, -83.00062535693193 -8.323143259729294, -82.72492697109088 -8.812673661278929 M-83.259688208341 -7.863150934094194 C-83.05699632960392 -8.223050889570233, -82.85430445086683 -8.582950845046273, -82.72492697109088 -8.812673661278929 M-82.72492697109088 -8.812673661278929 C-82.5722615202575 -9.0472087901726, -82.4195960694241 -9.281743919066272, -82.13042832814826 -9.725983222076884 M-82.72492697109088 -8.812673661278929 C-82.49815495316476 -9.161056377626638, -82.27138293523862 -9.509439093974345, -82.13042832814826 -9.725983222076884 M-82.13042832814826 -9.725983222076884 C-81.98932029696874 -9.91505512865134, -81.84821226578921 -10.1041270352258, -81.47863520195651 -10.599326631598467 M-82.13042832814826 -9.725983222076884 C-81.87509643926325 -10.068104691969186, -81.61976455037824 -10.410226161861488, -81.47863520195651 -10.599326631598467 M-81.47863520195651 -10.599326631598467 C-81.2311162342107 -10.89007649534095, -80.9835972664649 -11.180826359083431, -80.77222595028037 -11.42911513444238 M-81.47863520195651 -10.599326631598467 C-81.30001048610647 -10.809149386870187, -81.12138577025644 -11.018972142141905, -80.77222595028037 -11.42911513444238 M-80.77222595028037 -11.42911513444238 C-80.60004054461645 -11.606910702475096, -80.42785513895251 -11.784706270507812, -80.01410336025927 -12.21193895166136 M-80.77222595028037 -11.42911513444238 C-80.57921334031752 -11.628416500859007, -80.38620073035467 -11.827717867275632, -80.01410336025927 -12.21193895166136 M-80.01410336025927 -12.21193895166136 C-79.6934154629317 -12.50317921507746, -79.37272756560412 -12.794419478493559, -79.20738272023242 -12.944581292275274 M-80.01410336025927 -12.21193895166136 C-79.76713289049913 -12.436230997816978, -79.52016242073897 -12.660523043972598, -79.20738272023242 -12.944581292275274 M-79.20738272023242 -12.944581292275274 C-79.0101725402898 -13.101851162796223, -78.81296236034719 -13.259121033317172, -78.35537901835067 -13.624031571755259 M-79.20738272023242 -12.944581292275274 C-78.99973889135069 -13.110171720174103, -78.79209506246896 -13.27576214807293, -78.35537901835067 -13.624031571755259 M-78.35537901835067 -13.624031571755259 C-78.11986984658833 -13.788312574948947, -77.88436067482597 -13.952593578142633, -77.46159332057934 -14.247497783161284 M-78.35537901835067 -13.624031571755259 C-78.03058084994765 -13.850596713747105, -77.70578268154465 -14.07716185573895, -77.46159332057934 -14.247497783161284 M-77.46159332057934 -14.247497783161284 C-77.21772081699379 -14.395334727988752, -76.97384831340824 -14.54317167281622, -76.52969838406695 -14.812417970097618 M-77.46159332057934 -14.247497783161284 C-77.16598911090973 -14.426694792226156, -76.87038490124013 -14.605891801291026, -76.52969838406695 -14.812417970097618 M-76.52969838406695 -14.812417970097618 C-76.3283659749145 -14.917452958992884, -76.12703356576206 -15.022487947888148, -75.56352356499849 -15.316470754341124 M-76.52969838406695 -14.812417970097618 C-76.18838372640852 -14.990481608375546, -75.84706906875009 -15.168545246653476, -75.56352356499849 -15.316470754341124 M-75.56352356499849 -15.316470754341124 C-75.29830718517309 -15.433874178325446, -75.0330908053477 -15.55127760230977, -74.56703908294936 -15.757584874882365 M-75.56352356499849 -15.316470754341124 C-75.18715110367451 -15.483079678276864, -74.81077864235054 -15.649688602212603, -74.56703908294936 -15.757584874882365 M-74.56703908294936 -15.757584874882365 C-74.32947743844319 -15.845009756056408, -74.09191579393702 -15.932434637230449, -73.54433970640156 -16.133947699181363 M-74.56703908294936 -15.757584874882365 C-74.28722513951081 -15.860558992639495, -74.00741119607224 -15.963533110396625, -73.54433970640156 -16.133947699181363 M-73.54433970640156 -16.133947699181363 C-73.22350079104098 -16.22917100514255, -72.90266187568041 -16.324394311103735, -72.49962792646164 -16.444012671663494 M-73.54433970640156 -16.133947699181363 C-73.32062972984431 -16.200343645945924, -73.09691975328707 -16.266739592710486, -72.49962792646164 -16.444012671663494 M-72.49962792646164 -16.444012671663494 C-72.22110804114165 -16.507583017975676, -71.94258815582164 -16.57115336428786, -71.43719668792333 -16.68650566884811 M-72.49962792646164 -16.444012671663494 C-72.16695307257874 -16.519943536155967, -71.83427821869581 -16.595874400648437, -71.43719668792333 -16.68650566884811 M-71.43719668792333 -16.68650566884811 C-71.07181206152474 -16.745578221644134, -70.70642743512616 -16.804650774440162, -70.36141174863661 -16.86043023499518 M-71.43719668792333 -16.68650566884811 C-71.16385415414358 -16.73069756990661, -70.89051162036382 -16.774889470965114, -70.36141174863661 -16.86043023499518 M-70.36141174863661 -16.86043023499518 C-70.1233845232983 -16.883392435153947, -69.88535729795998 -16.906354635312713, -69.27669373967213 -16.965071676755716 M-70.36141174863661 -16.86043023499518 C-69.95175875699117 -16.899948966419416, -69.54210576534571 -16.939467697843646, -69.27669373967213 -16.965071676755716 M-69.27669373967213 -16.965071676755716 C-68.96231311096801 -16.975153251613484, -68.64793248226388 -16.985234826471256, -68.1875 -17 M-69.27669373967213 -16.965071676755716 C-68.88987135556604 -16.977476317709904, -68.50304897145998 -16.98988095866409, -68.1875 -17 M-68.1875 -17 C-68.1875 -17, -68.1875 -17, -68.1875 -17 M-68.1875 -17 C-68.1875 -17, -68.1875 -17, -68.1875 -17" stroke="#555555" stroke-width="1.3" fill="none" stroke-dasharray="0 0" style=""></path></g><g class="label" style="" transform="translate(0, -9.5)"><rect></rect><g><rect class="background" style="stroke: none"></rect><text y="-10.1" style=""><tspan class="text-outer-tspan row" x="0" y="-0.1em" dy="1.1em"><tspan font-style="normal" class="text-inner-tspan" font-weight="normal">Calendar</tspan><tspan font-style="normal" class="text-inner-tspan" font-weight="normal"> view</tspan><tspan font-style="normal" class="text-inner-tspan" font-weight="normal"> query</tspan></tspan></text></g></g></g></g></g></g><defs><filter id="ge0e7fa81-087d-488b-a3dc-fd46100132e9-dark-drop-shadow" height="130%" width="130%"><feDropShadow dx="4" dy="4" stdDeviation="0" flood-opacity="0.06" flood-color="#000000"></feDropShadow></filter></defs><defs><filter id="ge0e7fa81-087d-488b-a3dc-fd46100132e9-dark-drop-shadow-small" height="150%" width="150%"><feDropShadow dx="2" dy="2" stdDeviation="0" flood-opacity="0.06" flood-color="#000000"></feDropShadow></filter></defs><linearGradient id="ge0e7fa81-087d-488b-a3dc-fd46100132e9-dark-gradient" gradientUnits="objectBoundingBox" x1="0%" y1="0%" x2="100%" y2="0%"><stop offset="0%" stop-color="#555555" stop-opacity="1"></stop><stop offset="100%" stop-color="#555555" stop-opacity="1"></stop></linearGradient></svg>