<svg id="g592fc527-63a1-4b21-a368-335d672a8b83-light" width="100%" xmlns="http://www.w3.org/2000/svg" xmlns:xlink="http://www.w3.org/1999/xlink" class="flowchart" style="max-width: 850.90625px;" viewBox="0 0 850.90625 890.2280883789062" role="graphics-document document" aria-roledescription="flowchart-v2"><style>#g592fc527-63a1-4b21-a368-335d672a8b83-light{font-family:"trebuchet ms",verdana,arial,sans-serif;font-size:16px;fill:#333;}@keyframes edge-animation-frame{from{stroke-dashoffset:0;}}@keyframes dash{to{stroke-dashoffset:0;}}#g592fc527-63a1-4b21-a368-335d672a8b83-light .edge-animation-slow{stroke-dasharray:9,5!important;stroke-dashoffset:900;animation:dash 50s linear infinite;stroke-linecap:round;}#g592fc527-63a1-4b21-a368-335d672a8b83-light .edge-animation-fast{stroke-dasharray:9,5!important;stroke-dashoffset:900;animation:dash 20s linear infinite;stroke-linecap:round;}#g592fc527-63a1-4b21-a368-335d672a8b83-light .error-icon{fill:#552222;}#g592fc527-63a1-4b21-a368-335d672a8b83-light .error-text{fill:#552222;stroke:#552222;}#g592fc527-63a1-4b21-a368-335d672a8b83-light .edge-thickness-normal{stroke-width:1px;}#g592fc527-63a1-4b21-a368-335d672a8b83-light .edge-thickness-thick{stroke-width:3.5px;}#g592fc527-63a1-4b21-a368-335d672a8b83-light .edge-pattern-solid{stroke-dasharray:0;}#g592fc527-63a1-4b21-a368-335d672a8b83-light .edge-thickness-invisible{stroke-width:0;fill:none;}#g592fc527-63a1-4b21-a368-335d672a8b83-light .edge-pattern-dashed{stroke-dasharray:3;}#g592fc527-63a1-4b21-a368-335d672a8b83-light .edge-pattern-dotted{stroke-dasharray:2;}#g592fc527-63a1-4b21-a368-335d672a8b83-light .marker{fill:#333333;stroke:#333333;}#g592fc527-63a1-4b21-a368-335d672a8b83-light .marker.cross{stroke:#333333;}#g592fc527-63a1-4b21-a368-335d672a8b83-light svg{font-family:"trebuchet ms",verdana,arial,sans-serif;font-size:16px;}#g592fc527-63a1-4b21-a368-335d672a8b83-light p{margin:0;}#g592fc527-63a1-4b21-a368-335d672a8b83-light .label{font-family:"trebuchet ms",verdana,arial,sans-serif;color:#333;}#g592fc527-63a1-4b21-a368-335d672a8b83-light .cluster-label text{fill:#333;}#g592fc527-63a1-4b21-a368-335d672a8b83-light .cluster-label span{color:#333;}#g592fc527-63a1-4b21-a368-335d672a8b83-light .cluster-label span p{background-color:transparent;}#g592fc527-63a1-4b21-a368-335d672a8b83-light .label text,#g592fc527-63a1-4b21-a368-335d672a8b83-light span{fill:#333;color:#333;}#g592fc527-63a1-4b21-a368-335d672a8b83-light .node rect,#g592fc527-63a1-4b21-a368-335d672a8b83-light .node circle,#g592fc527-63a1-4b21-a368-335d672a8b83-light .node ellipse,#g592fc527-63a1-4b21-a368-335d672a8b83-light .node polygon,#g592fc527-63a1-4b21-a368-335d672a8b83-light .node path{fill:#ECECFF;stroke:#9370DB;stroke-width:1px;}#g592fc527-63a1-4b21-a368-335d672a8b83-light .rough-node .label text,#g592fc527-63a1-4b21-a368-335d672a8b83-light .node .label text,#g592fc527-63a1-4b21-a368-335d672a8b83-light .image-shape .label,#g592fc527-63a1-4b21-a368-335d672a8b83-light .icon-shape .label{text-anchor:middle;}#g592fc527-63a1-4b21-a368-335d672a8b83-light .node .katex path{fill:#000;stroke:#000;stroke-width:1px;}#g592fc527-63a1-4b21-a368-335d672a8b83-light .rough-node .label,#g592fc527-63a1-4b21-a368-335d672a8b83-light .node .label,#g592fc527-63a1-4b21-a368-335d672a8b83-light .image-shape .label,#g592fc527-63a1-4b21-a368-335d672a8b83-light .icon-shape .label{text-align:center;}#g592fc527-63a1-4b21-a368-335d672a8b83-light .node.clickable{cursor:pointer;}#g592fc527-63a1-4b21-a368-335d672a8b83-light .root .anchor path{fill:#333333!important;stroke-width:0;stroke:#333333;}#g592fc527-63a1-4b21-a368-335d672a8b83-light .arrowheadPath{fill:#333333;}#g592fc527-63a1-4b21-a368-335d672a8b83-light .edgePath .path{stroke:#333333;stroke-width:1px;}#g592fc527-63a1-4b21-a368-335d672a8b83-light .flowchart-link{stroke:#333333;fill:none;}#g592fc527-63a1-4b21-a368-335d672a8b83-light .edgeLabel{background-color:rgba(232,232,232, 0.8);text-align:center;}#g592fc527-63a1-4b21-a368-335d672a8b83-light .edgeLabel p{background-color:rgba(232,232,232, 0.8);}#g592fc527-63a1-4b21-a368-335d672a8b83-light .edgeLabel rect{opacity:0.5;background-color:rgba(232,232,232, 0.8);fill:rgba(232,232,232, 0.8);}#g592fc527-63a1-4b21-a368-335d672a8b83-light .labelBkg{background-color:rgba(232, 232, 232, 0.5);}#g592fc527-63a1-4b21-a368-335d672a8b83-light .cluster rect{fill:#ffffde;stroke:#aaaa33;stroke-width:1px;}#g592fc527-63a1-4b21-a368-335d672a8b83-light .cluster text{fill:#333;}#g592fc527-63a1-4b21-a368-335d672a8b83-light .cluster span{color:#333;}#g592fc527-63a1-4b21-a368-335d672a8b83-light div.mermaidTooltip{position:absolute;text-align:center;max-width:200px;padding:2px;font-family:"trebuchet ms",verdana,arial,sans-serif;font-size:12px;background:hsl(80, 100%, 96.2745098039%);border:1px solid #aaaa33;border-radius:2px;pointer-events:none;z-index:100;}#g592fc527-63a1-4b21-a368-335d672a8b83-light .flowchartTitleText{text-anchor:middle;font-size:18px;fill:#333;}#g592fc527-63a1-4b21-a368-335d672a8b83-light rect.text{fill:none;stroke-width:0;}#g592fc527-63a1-4b21-a368-335d672a8b83-light .icon-shape,#g592fc527-63a1-4b21-a368-335d672a8b83-light .image-shape{background-color:rgba(232,232,232, 0.8);text-align:center;}#g592fc527-63a1-4b21-a368-335d672a8b83-light .icon-shape p,#g592fc527-63a1-4b21-a368-335d672a8b83-light .image-shape p{background-color:rgba(232,232,232, 0.8);padding:2px;}#g592fc527-63a1-4b21-a368-335d672a8b83-light .icon-shape .label rect,#g592fc527-63a1-4b21-a368-335d672a8b83-light .image-shape .label rect{opacity:0.5;background-color:rgba(232,232,232, 0.8);fill:rgba(232,232,232, 0.8);}#g592fc527-63a1-4b21-a368-335d672a8b83-light .label-icon{display:inline-block;height:1em;overflow:visible;vertical-align:-0.125em;}#g592fc527-63a1-4b21-a368-335d672a8b83-light .node .label-icon path{fill:currentColor;stroke:revert;stroke-width:revert;}#g592fc527-63a1-4b21-a368-335d672a8b83-light .node .neo-node{stroke:#9370DB;}#g592fc527-63a1-4b21-a368-335d672a8b83-light [data-look="neo"].node rect,#g592fc527-63a1-4b21-a368-335d672a8b83-light [data-look="neo"].cluster rect,#g592fc527-63a1-4b21-a368-335d672a8b83-light [data-look="neo"].node polygon{stroke:#9370DB;filter:drop-shadow(1px 2px 2px rgba(185, 185, 185, 1));}#g592fc527-63a1-4b21-a368-335d672a8b83-light [data-look="neo"].node path{stroke:#9370DB;stroke-width:1px;}#g592fc527-63a1-4b21-a368-335d672a8b83-light [data-look="neo"].node .outer-path{filter:drop-shadow(1px 2px 2px rgba(185, 185, 185, 1));}#g592fc527-63a1-4b21-a368-335d672a8b83-light [data-look="neo"].node .neo-line path{stroke:#9370DB;filter:none;}#g592fc527-63a1-4b21-a368-335d672a8b83-light [data-look="neo"].node circle{stroke:#9370DB;filter:drop-shadow(1px 2px 2px rgba(185, 185, 185, 1));}#g592fc527-63a1-4b21-a368-335d672a8b83-light [data-look="neo"].node circle .state-start{fill:#000000;}#g592fc527-63a1-4b21-a368-335d672a8b83-light [data-look="neo"].icon-shape .icon{fill:#9370DB;filter:drop-shadow(1px 2px 2px rgba(185, 185, 185, 1));}#g592fc527-63a1-4b21-a368-335d672a8b83-light [data-look="neo"].icon-shape .icon-neo path{stroke:#9370DB;filter:drop-shadow(1px 2px 2px rgba(185, 185, 185, 1));}#g592fc527-63a1-4b21-a368-335d672a8b83-light :root{--mermaid-font-family:"trebuchet ms",verdana,arial,sans-serif;}</style><g><marker id="g592fc527-63a1-4b21-a368-335d672a8b83-light_flowchart-v2-pointEnd" class="marker flowchart-v2" viewBox="0 0 10 10" refX="5" refY="5" markerUnits="userSpaceOnUse" markerWidth="8" markerHeight="8" orient="auto"><path d="M 0 0 L 10 5 L 0 10 z" class="arrowMarkerPath" style="stroke-width: 1; stroke-dasharray: 1, 0;"></path></marker><marker id="g592fc527-63a1-4b21-a368-335d672a8b83-light_flowchart-v2-pointStart" class="marker flowchart-v2" viewBox="0 0 10 10" refX="4.5" refY="5" markerUnits="userSpaceOnUse" markerWidth="8" markerHeight="8" orient="auto"><path d="M 0 5 L 10 10 L 10 0 z" class="arrowMarkerPath" style="stroke-width: 1; stroke-dasharray: 1, 0;"></path></marker><marker id="g592fc527-63a1-4b21-a368-335d672a8b83-light_flowchart-v2-pointEnd-margin" class="marker flowchart-v2" viewBox="0 0 11.5 14" refX="11.5" refY="7" markerUnits="userSpaceOnUse" markerWidth="10.5" markerHeight="14" orient="auto"><path d="M 0 0 L 11.5 7 L 0 14 z" class="arrowMarkerPath" style="stroke-width: 0; stroke-dasharray: 1, 0;"></path></marker><marker id="g592fc527-63a1-4b21-a368-335d672a8b83-light_flowchart-v2-pointStart-margin" class="marker flowchart-v2" viewBox="0 0 11.5 14" refX="1" refY="7" markerUnits="userSpaceOnUse" markerWidth="11.5" markerHeight="14" orient="auto"><polygon points="0,7 11.5,14 11.5,0" class="arrowMarkerPath" style="stroke-width: 0; stroke-dasharray: 1, 0;"></polygon></marker><marker id="g592fc527-63a1-4b21-a368-335d672a8b83-light_flowchart-v2-circleEnd" class="marker flowchart-v2" viewBox="0 0 10 10" refX="11" refY="5" markerUnits="userSpaceOnUse" markerWidth="11" markerHeight="11" orient="auto"><circle cx="5" cy="5" r="5" class="arrowMarkerPath" style="stroke-width: 1; stroke-dasharray: 1, 0;"></circle></marker><marker id="g592fc527-63a1-4b21-a368-335d672a8b83-light_flowchart-v2-circleStart" class="marker flowchart-v2" viewBox="0 0 10 10" refX="-1" refY="5" markerUnits="userSpaceOnUse" markerWidth="11" markerHeight="11" orient="auto"><circle cx="5" cy="5" r="5" class="arrowMarkerPath" style="stroke-width: 1; stroke-dasharray: 1, 0;"></circle></marker><marker id="g592fc527-63a1-4b21-a368-335d672a8b83-light_flowchart-v2-circleEnd-margin" class="marker flowchart-v2" viewBox="0 0 10 10" refY="5" refX="12.25" markerUnits="userSpaceOnUse" markerWidth="14" markerHeight="14" orient="auto"><circle cx="5" cy="5" r="5" class="arrowMarkerPath" style="stroke-width: 0; stroke-dasharray: 1, 0;"></circle></marker><marker id="g592fc527-63a1-4b21-a368-335d672a8b83-light_flowchart-v2-circleStart-margin" class="marker flowchart-v2" viewBox="0 0 10 10" refX="-2" refY="5" markerUnits="userSpaceOnUse" markerWidth="14" markerHeight="14" orient="auto"><circle cx="5" cy="5" r="5" class="arrowMarkerPath" style="stroke-width: 0; stroke-dasharray: 1, 0;"></circle></marker><marker id="g592fc527-63a1-4b21-a368-335d672a8b83-light_flowchart-v2-crossEnd" class="marker cross flowchart-v2" viewBox="0 0 11 11" refX="12" refY="5.2" markerUnits="userSpaceOnUse" markerWidth="11" markerHeight="11" orient="auto"><path d="M 1,1 l 9,9 M 10,1 l -9,9" class="arrowMarkerPath" style="stroke-width: 2; stroke-dasharray: 1, 0;"></path></marker><marker id="g592fc527-63a1-4b21-a368-335d672a8b83-light_flowchart-v2-crossStart" class="marker cross flowchart-v2" viewBox="0 0 11 11" refX="-1" refY="5.2" markerUnits="userSpaceOnUse" markerWidth="11" markerHeight="11" orient="auto"><path d="M 1,1 l 9,9 M 10,1 l -9,9" class="arrowMarkerPath" style="stroke-width: 2; stroke-dasharray: 1, 0;"></path></marker><marker id="g592fc527-63a1-4b21-a368-335d672a8b83-light_flowchart-v2-crossEnd-margin" class="marker cross flowchart-v2" viewBox="0 0 15 15" refX="17.7" refY="7.5" markerUnits="userSpaceOnUse" markerWidth="12" markerHeight="12" orient="auto"><path d="M 1,1 L 14,14 M 1,14 L 14,1" class="arrowMarkerPath" style="stroke-width: 2.5;"></path></marker><marker id="g592fc527-63a1-4b21-a368-335d672a8b83-light_flowchart-v2-crossStart-margin" class="marker cross flowchart-v2" viewBox="0 0 15 15" refX="-3.5" refY="7.5" markerUnits="userSpaceOnUse" markerWidth="12" markerHeight="12" orient="auto"><path d="M 1,1 L 14,14 M 1,14 L 14,1" class="arrowMarkerPath" style="stroke-width: 2.5; stroke-dasharray: 1, 0;"></path></marker><g class="root"><g class="clusters"></g><g class="edgePaths"><path d="M312.963,42.5L312.88,46.583C312.797,50.667,312.63,58.833,312.547,66.417C312.463,74,312.463,81,312.463,84.5L312.463,88" id="g592fc527-63a1-4b21-a368-335d672a8b83-light-L_Start_Q1_0" class="edge-thickness-normal edge-pattern-solid edge-thickness-normal edge-pattern-solid flowchart-link" style=";" data-edge="true" data-et="edge" data-id="L_Start_Q1_0" data-points="W3sieCI6MzEyLjk2MzI3OTcyNDEyMTEsInkiOjQyLjV9LHsieCI6MzEyLjQ2MzI3OTcyNDEyMTEsInkiOjY3fSx7IngiOjMxMi40NjMyNzk3MjQxMjExLCJ5Ijo5MS45OTk5OTk5OTk5OTk5N31d" data-look="classic" marker-end="url(#g592fc527-63a1-4b21-a368-335d672a8b83-light_flowchart-v2-pointEnd)"></path><path d="M273.561,219.807L262.564,232.374C251.566,244.941,229.57,270.075,218.573,295.644C207.575,321.212,207.575,347.215,207.575,360.216L207.575,373.217" id="g592fc527-63a1-4b21-a368-335d672a8b83-light-L_Q1_Versioned_0" class="edge-thickness-normal edge-pattern-solid edge-thickness-normal edge-pattern-solid flowchart-link" style=";" data-edge="true" data-et="edge" data-id="L_Q1_Versioned_0" data-points="W3sieCI6MjczLjU2MTM3NDQ5MjU1MzA2LCJ5IjoyMTkuODA3NDYwNjEzMTU4NX0seyJ4IjoyMDcuNTc0OTk2OTQ4MjQyMiwieSI6Mjk1LjIwOTM2NTg0NDcyNjU2fSx7IngiOjIwNy41NzQ5OTY5NDgyNDIyLCJ5IjozNzcuMjE3MTgyMTU5NDIzOH1d" data-look="classic" marker-end="url(#g592fc527-63a1-4b21-a368-335d672a8b83-light_flowchart-v2-pointEnd)"></path><path d="M351.365,219.807L362.363,232.374C373.361,244.941,395.356,270.075,406.354,288.059C417.352,306.043,417.352,316.876,417.352,322.293L417.352,327.709" id="g592fc527-63a1-4b21-a368-335d672a8b83-light-L_Q1_Q2_0" class="edge-thickness-normal edge-pattern-solid edge-thickness-normal edge-pattern-solid flowchart-link" style=";" data-edge="true" data-et="edge" data-id="L_Q1_Q2_0" data-points="W3sieCI6MzUxLjM2NTE4NDk1NTY4OTEzLCJ5IjoyMTkuODA3NDYwNjEzMTU4NTN9LHsieCI6NDE3LjM1MTU2MjUsInkiOjI5NS4yMDkzNjU4NDQ3MjY1Nn0seyJ4Ijo0MTcuMzUxNTYyNSwieSI6MzMxLjcwOTM2NTg0NDcyNjU2fV0=" data-look="classic" marker-end="url(#g592fc527-63a1-4b21-a368-335d672a8b83-light_flowchart-v2-pointEnd)"></path><path d="M365.405,437.378L336.897,452.12C308.39,466.861,251.375,496.343,222.867,519.333C194.359,542.322,194.359,558.82,194.359,567.068L194.359,575.317" id="g592fc527-63a1-4b21-a368-335d672a8b83-light-L_Q2_Q3_0" class="edge-thickness-normal edge-pattern-solid edge-thickness-normal edge-pattern-solid flowchart-link" style=";" data-edge="true" data-et="edge" data-id="L_Q2_Q3_0" data-points="W3sieCI6MzY1LjQwNDk4NTQyODAwODg0LCJ5Ijo0MzcuMzc4NDE5ODc2MjUxMDN9LHsieCI6MTk0LjM1OTM3NSwieSI6NTI1LjgyNDk5Njk0ODI0MjJ9LHsieCI6MTk0LjM1OTM3NSwieSI6NTc5LjMxNzE4NDQ0ODI0MjJ9XQ==" data-look="classic" marker-end="url(#g592fc527-63a1-4b21-a368-335d672a8b83-light_flowchart-v2-pointEnd)"></path><path d="M161.787,693.064L150.276,707.408C138.764,721.752,115.742,750.44,104.23,771.667C92.719,792.895,92.719,806.661,92.719,813.545L92.719,820.428" id="g592fc527-63a1-4b21-a368-335d672a8b83-light-L_Q3_SWR_0" class="edge-thickness-normal edge-pattern-solid edge-thickness-normal edge-pattern-solid flowchart-link" style=";" data-edge="true" data-et="edge" data-id="L_Q3_SWR_0" data-points="W3sieCI6MTYxLjc4NzIzODU0MjQ2NjA0LCJ5Ijo2OTMuMDYzNzg4ODM1NDM0OH0seyJ4Ijo5Mi43MTg3NSwieSI6Nzc5LjEyODExMjc5Mjk2ODh9LHsieCI6OTIuNzE4NzUsInkiOjgyNC40MjgxMTIwMzAwMjkzfV0=" data-look="classic" marker-end="url(#g592fc527-63a1-4b21-a368-335d672a8b83-light_flowchart-v2-pointEnd)"></path><path d="M226.932,693.064L238.443,707.408C249.954,721.752,272.977,750.44,284.489,770.201C296,789.961,296,800.795,296,806.211L296,811.628" id="g592fc527-63a1-4b21-a368-335d672a8b83-light-L_Q3_PathPurge_0" class="edge-thickness-normal edge-pattern-solid edge-thickness-normal edge-pattern-solid flowchart-link" style=";" data-edge="true" data-et="edge" data-id="L_Q3_PathPurge_0" data-points="W3sieCI6MjI2LjkzMTUxMTQ1NzUzMzk2LCJ5Ijo2OTMuMDYzNzg4ODM1NDM0OH0seyJ4IjoyOTYsInkiOjc3OS4xMjgxMTI3OTI5Njg4fSx7IngiOjI5NiwieSI6ODE1LjYyODExMjc5Mjk2ODh9XQ==" data-look="classic" marker-end="url(#g592fc527-63a1-4b21-a368-335d672a8b83-light_flowchart-v2-pointEnd)"></path><path d="M467.793,438.883L493.561,453.373C519.328,467.864,570.863,496.844,596.631,516.751C622.398,536.658,622.398,547.492,622.398,552.908L622.398,558.325" id="g592fc527-63a1-4b21-a368-335d672a8b83-light-L_Q2_Q4_0" class="edge-thickness-normal edge-pattern-solid edge-thickness-normal edge-pattern-solid flowchart-link" style=";" data-edge="true" data-et="edge" data-id="L_Q2_Q4_0" data-points="W3sieCI6NDY3Ljc5MzQ1MzI1NzQ5OTYsInkiOjQzOC44ODMxMDYxOTA3NDI2NH0seyJ4Ijo2MjIuMzk4NDM3NSwieSI6NTI1LjgyNDk5Njk0ODI0MjJ9LHsieCI6NjIyLjM5ODQzNzUwMDAwMDEsInkiOjU2Mi4zMjQ5OTY5NDgyNDIxfV0=" data-look="classic" marker-end="url(#g592fc527-63a1-4b21-a368-335d672a8b83-light_flowchart-v2-pointEnd)"></path><path d="M578.616,698.846L565.982,712.226C553.348,725.607,528.08,752.367,515.446,772.631C502.813,792.895,502.813,806.661,502.813,813.545L502.813,820.428" id="g592fc527-63a1-4b21-a368-335d672a8b83-light-L_Q4_TagPurge_0" class="edge-thickness-normal edge-pattern-solid edge-thickness-normal edge-pattern-solid flowchart-link" style=";" data-edge="true" data-et="edge" data-id="L_Q4_TagPurge_0" data-points="W3sieCI6NTc4LjYxNjA3NzkwMTQzNzIsInkiOjY5OC44NDU3NTMxOTQ0MDZ9LHsieCI6NTAyLjgxMjUsInkiOjc3OS4xMjgxMTI3OTI5Njg4fSx7IngiOjUwMi44MTI1LCJ5Ijo4MjQuNDI4MTEyMDMwMDI5M31d" data-look="classic" marker-end="url(#g592fc527-63a1-4b21-a368-335d672a8b83-light_flowchart-v2-pointEnd)"></path><path d="M666.181,698.846L678.815,712.226C691.449,725.607,716.717,752.367,729.35,771.164C741.984,789.961,741.984,800.795,741.984,806.211L741.984,811.628" id="g592fc527-63a1-4b21-a368-335d672a8b83-light-L_Q4_TagWorkaround_0" class="edge-thickness-normal edge-pattern-solid edge-thickness-normal edge-pattern-solid flowchart-link" style=";" data-edge="true" data-et="edge" data-id="L_Q4_TagWorkaround_0" data-points="W3sieCI6NjY2LjE4MDc5NzA5ODU2MjgsInkiOjY5OC44NDU3NTMxOTQ0MDZ9LHsieCI6NzQxLjk4NDM3NSwieSI6Nzc5LjEyODExMjc5Mjk2ODh9LHsieCI6NzQxLjk4NDM3NSwieSI6ODE1LjYyODExMjc5Mjk2ODh9XQ==" data-look="classic" marker-end="url(#g592fc527-63a1-4b21-a368-335d672a8b83-light_flowchart-v2-pointEnd)"></path></g><g class="edgeLabels"><g class="edgeLabel"><g class="label" data-id="L_Start_Q1_0" transform="translate(0, 0)"><text y="-10.1" text-anchor="middle"><tspan class="text-outer-tspan row" x="0" y="-0.1em" dy="1.1em" text-anchor="middle"></tspan></text></g></g><g><rect class="background" style="stroke: none"></rect></g><g class="edgeLabel" transform="translate(207.5749969482422, 295.20936584472656)"><g class="label" data-id="L_Q1_Versioned_0" transform="translate(0, -10.5)"><g><rect class="background" style="" x="-13.328125" y="-1" width="26.65625" height="23"></rect><text y="-10.1" text-anchor="middle" style=""><tspan class="text-outer-tspan row" x="0" y="-0.1em" dy="1.1em" text-anchor="middle"><tspan font-style="normal" class="text-inner-tspan" font-weight="normal">Yes</tspan></tspan></text></g></g></g><g class="edgeLabel" transform="translate(417.3515625, 295.20936584472656)"><g class="label" data-id="L_Q1_Q2_0" transform="translate(0, -10.5)"><g><rect class="background" style="" x="-11.3984375" y="-1" width="22.796875" height="23"></rect><text y="-10.1" text-anchor="middle" style=""><tspan class="text-outer-tspan row" x="0" y="-0.1em" dy="1.1em" text-anchor="middle"><tspan font-style="normal" class="text-inner-tspan" font-weight="normal">No</tspan></tspan></text></g></g></g><g class="edgeLabel" transform="translate(194.359375, 525.8249969482422)"><g class="label" data-id="L_Q2_Q3_0" transform="translate(0, -10.5)"><g><rect class="background" style="" x="-11.3984375" y="-1" width="22.796875" height="23"></rect><text y="-10.1" text-anchor="middle" style=""><tspan class="text-outer-tspan row" x="0" y="-0.1em" dy="1.1em" text-anchor="middle"><tspan font-style="normal" class="text-inner-tspan" font-weight="normal">No</tspan></tspan></text></g></g></g><g class="edgeLabel" transform="translate(92.71875, 779.1281127929688)"><g class="label" data-id="L_Q3_SWR_0" transform="translate(0, -10.5)"><g><rect class="background" style="" x="-13.328125" y="-1" width="26.65625" height="23"></rect><text y="-10.1" text-anchor="middle" style=""><tspan class="text-outer-tspan row" x="0" y="-0.1em" dy="1.1em" text-anchor="middle"><tspan font-style="normal" class="text-inner-tspan" font-weight="normal">Yes</tspan></tspan></text></g></g></g><g class="edgeLabel" transform="translate(296, 779.1281127929688)"><g class="label" data-id="L_Q3_PathPurge_0" transform="translate(0, -10.5)"><g><rect class="background" style="" x="-11.3984375" y="-1" width="22.796875" height="23"></rect><text y="-10.1" text-anchor="middle" style=""><tspan class="text-outer-tspan row" x="0" y="-0.1em" dy="1.1em" text-anchor="middle"><tspan font-style="normal" class="text-inner-tspan" font-weight="normal">No</tspan></tspan></text></g></g></g><g class="edgeLabel" transform="translate(622.3984375, 525.8249969482422)"><g class="label" data-id="L_Q2_Q4_0" transform="translate(0, -10.5)"><g><rect class="background" style="" x="-13.328125" y="-1" width="26.65625" height="23"></rect><text y="-10.1" text-anchor="middle" style=""><tspan class="text-outer-tspan row" x="0" y="-0.1em" dy="1.1em" text-anchor="middle"><tspan font-style="normal" class="text-inner-tspan" font-weight="normal">Yes</tspan></tspan></text></g></g></g><g class="edgeLabel" transform="translate(502.8125, 779.1281127929688)"><g class="label" data-id="L_Q4_TagPurge_0" transform="translate(0, -10.5)"><g><rect class="background" style="" x="-13.328125" y="-1" width="26.65625" height="23"></rect><text y="-10.1" text-anchor="middle" style=""><tspan class="text-outer-tspan row" x="0" y="-0.1em" dy="1.1em" text-anchor="middle"><tspan font-style="normal" class="text-inner-tspan" font-weight="normal">Yes</tspan></tspan></text></g></g></g><g class="edgeLabel" transform="translate(741.984375, 779.1281127929688)"><g class="label" data-id="L_Q4_TagWorkaround_0" transform="translate(0, -10.5)"><g><rect class="background" style="" x="-11.3984375" y="-1" width="22.796875" height="23"></rect><text y="-10.1" text-anchor="middle" style=""><tspan class="text-outer-tspan row" x="0" y="-0.1em" dy="1.1em" text-anchor="middle"><tspan font-style="normal" class="text-inner-tspan" font-weight="normal">No</tspan></tspan></text></g></g></g></g><g class="nodes"><g class="node default" id="g592fc527-63a1-4b21-a368-335d672a8b83-light-flowchart-Start-0" data-look="classic" transform="translate(312.4632797241211, 25)"><g class="basic label-container outer-path"><path d="M-60.9375 -17 C-18.298261562331206 -17, 24.34097687533759 -17, 60.9375 -17 C60.9375 -17, 60.9375 -17, 60.9375 -17 C61.27718328352366 -16.9891070182508, 61.61686656704732 -16.978214036501594, 62.02669373967212 -16.965071676755716 C62.26081083483691 -16.942486682152172, 62.4949279300017 -16.919901687548627, 63.1114117486366 -16.860430234995185 C63.53009115405525 -16.79274139563438, 63.9487705594739 -16.725052556273575, 64.18719668792333 -16.686505668848113 C64.47475077663482 -16.620873324565512, 64.7623048653463 -16.555240980282907, 65.24962792646163 -16.4440126716635 C65.4825756851428 -16.374874999654665, 65.71552344382398 -16.30573732764583, 66.29433970640156 -16.133947699181366 C66.67089767078137 -15.995370887425931, 67.04745563516119 -15.856794075670495, 67.31703908294936 -15.757584874882369 C67.52913287431598 -15.663697244983151, 67.74122666568259 -15.569809615083933, 68.31352356499849 -15.316470754341125 C68.69439199505435 -15.117771938338855, 69.0752604251102 -14.919073122336584, 69.27969838406693 -14.812417970097622 C69.48728568406986 -14.686577328917462, 69.69487298407279 -14.560736687737302, 70.21159332057933 -14.247497783161291 C70.47265061520481 -14.065395515418697, 70.7337079098303 -13.883293247676102, 71.10537901835067 -13.624031571755262 C71.36753371444519 -13.414970177849336, 71.6296884105397 -13.205908783943409, 71.9573827202324 -12.944581292275288 C72.16689003156557 -12.754312295382206, 72.37639734289873 -12.564043298489125, 72.76410336025927 -12.21193895166137 C73.06202626510543 -11.904309092482327, 73.35994916995159 -11.596679233303284, 73.52222595028036 -11.42911513444239 C73.76963368488258 -11.138495931479708, 74.01704141948481 -10.847876728517027, 74.22863520195651 -10.59932663159847 C74.37146220995592 -10.407951452687362, 74.51428921795534 -10.216576273776251, 74.88042832814824 -9.725983222076888 C75.08075236396982 -9.418231708519377, 75.2810763997914 -9.110480194961864, 75.47492697109088 -8.812673661278927 C75.68774831252257 -8.434787819069285, 75.90056965395426 -8.056901976859645, 76.009688208341 -7.863150934094199 C76.10828432219346 -7.658413994060704, 76.2068804360459 -7.453677054027209, 76.48251459126881 -6.881316833080699 C76.63056857230397 -6.515620637494871, 76.77862255333912 -6.149924441909043, 76.89146317484592 -5.871205925162238 C77.02000596022246 -5.484055536119631, 77.14854874559902 -5.096905147077024, 77.23485350162323 -4.836968972727556 C77.33891075361335 -4.440153572190958, 77.44296800560346 -4.04333817165436, 77.511274507091 -3.7828558772573464 C77.58511421112321 -3.4037046030789244, 77.65895391515542 -3.0245533289005024, 77.71959031804565 -2.713198215567453 C77.76494072840875 -2.361469388242693, 77.81029113877184 -2.0097405609179337, 77.85894492013637 -1.632391440430593 C77.87450270828269 -1.390066332031091, 77.89006049642902 -1.1477412236315891, 77.9287656754117 -0.5448768187181379 C77.9287656754117 -0.22708766450709128, 77.9287656754117 0.09070148970395531, 77.9287656754117 0.5448768187181336 C77.91459209524346 0.7656417705462578, 77.90041851507524 0.986406722374382, 77.85894492013637 1.6323914404305815 C77.82260887530258 1.9142066287978388, 77.78627283046877 2.196021817165096, 77.71959031804565 2.7131982155674415 C77.65854152101711 3.0266708856411846, 77.59749272398857 3.340143555714928, 77.511274507091 3.782855877257343 C77.41404385569709 4.153638491053228, 77.31681320430317 4.524421104849113, 77.23485350162323 4.836968972727545 C77.1171131514719 5.191584148006123, 76.99937280132058 5.5461993232847, 76.89146317484592 5.871205925162227 C76.80887486385706 6.0752006500410864, 76.7262865528682 6.279195374919946, 76.48251459126881 6.881316833080694 C76.33702820308739 7.183422431049448, 76.19154181490596 7.4855280290182025, 76.009688208341 7.863150934094196 C75.79581049919508 8.242912464149272, 75.58193279004917 8.622673994204348, 75.47492697109088 8.812673661278923 C75.35317794000379 8.999712867221165, 75.2314289089167 9.186752073163404, 74.88042832814826 9.725983222076879 C74.62122833856388 10.073287594515103, 74.36202834897952 10.420591966953326, 74.22863520195651 10.599326631598467 C74.0456820843624 10.814233773851807, 73.8627289667683 11.029140916105145, 73.52222595028037 11.42911513444238 C73.245929384389 11.714414023095143, 72.96963281849764 11.999712911747908, 72.76410336025927 12.211938951661365 C72.52476804145091 12.429296955737584, 72.28543272264257 12.646654959813803, 71.95738272023242 12.944581292275275 C71.64762130437812 13.191607778321615, 71.33785988852382 13.438634264367952, 71.10537901835067 13.62403157175526 C70.76739006623674 13.859798033444017, 70.42940111412281 14.095564495132775, 70.21159332057934 14.247497783161286 C69.99277358001503 14.380147595818904, 69.77395383945071 14.512797408476523, 69.27969838406695 14.81241797009762 C69.00042364209999 14.95811542409777, 68.72114890013304 15.103812878097918, 68.31352356499849 15.316470754341124 C67.9167671768073 15.492103038033274, 67.5200107886161 15.667735321725427, 67.31703908294936 15.757584874882367 C67.11000682686054 15.833774658908247, 66.90297457077173 15.909964442934129, 66.29433970640156 16.133947699181363 C66.03532129996252 16.21082300259711, 65.77630289352349 16.287698306012857, 65.24962792646164 16.444012671663497 C64.86172253266912 16.53254954647738, 64.47381713887661 16.621086421291263, 64.18719668792333 16.68650566884811 C63.94570953751805 16.725547438564814, 63.704222387112765 16.76458920828152, 63.11141174863661 16.86043023499518 C62.78581452121768 16.89184020793633, 62.460217293798756 16.923250180877474, 62.02669373967212 16.965071676755716 C61.62855130728023 16.977839329625294, 61.23040887488835 16.990606982494867, 60.9375 17 C60.9375 17, 60.9375 17, 60.9375 17 C18.19862811638498 17, -24.540243767230038 17, -60.9375 17 C-61.356940731782196 16.9865493521236, -61.7763814635644 16.973098704247203, -62.02669373967211 16.965071676755716 C-62.329590815967 16.93585156009258, -62.63248789226189 16.906631443429443, -63.111411748636606 16.86043023499518 C-63.376531624888386 16.81756770943814, -63.641651501140174 16.7747051838811, -64.18719668792333 16.68650566884811 C-64.5241245300562 16.609604087540927, -64.86105237218908 16.532702506233743, -65.24962792646161 16.4440126716635 C-65.57084317317774 16.348677672531394, -65.89205841989384 16.253342673399292, -66.29433970640154 16.13394769918137 C-66.61563435169192 16.015708299699366, -66.93692899698232 15.89746890021736, -67.31703908294936 15.757584874882369 C-67.71069716894488 15.583324117664377, -68.10435525494039 15.409063360446385, -68.31352356499849 15.316470754341127 C-68.56896986068763 15.183204585501262, -68.82441615637678 15.049938416661394, -69.27969838406693 14.812417970097624 C-69.62070035745292 14.605700569881012, -69.96170233083889 14.3989831696644, -70.21159332057931 14.247497783161299 C-70.50821893314715 14.040584596549794, -70.80484454571497 13.833671409938288, -71.10537901835067 13.624031571755264 C-71.32950229855234 13.445299219965396, -71.55362557875402 13.266566868175527, -71.9573827202324 12.94458129227529 C-72.23801364057924 12.689719715503562, -72.51864456092608 12.434858138731835, -72.76410336025926 12.211938951661377 C-72.9614939667401 12.008116944399724, -73.15888457322094 11.80429493713807, -73.52222595028036 11.429115134442386 C-73.6946714970295 11.226550782801253, -73.86711704377866 11.023986431160118, -74.22863520195651 10.599326631598473 C-74.38327356513311 10.392125312786522, -74.53791192830971 10.184923993974571, -74.88042832814824 9.72598322207689 C-75.00040732128228 9.541663269752291, -75.12038631441631 9.357343317427693, -75.47492697109088 8.812673661278936 C-75.61381175395717 8.566069665690575, -75.75269653682345 8.319465670102213, -76.009688208341 7.863150934094201 C-76.13963553843188 7.593312522733047, -76.26958286852276 7.323474111371893, -76.48251459126881 6.881316833080701 C-76.59928150358179 6.592900302132977, -76.71604841589476 6.304483771185252, -76.89146317484592 5.87120592516224 C-76.98408894963099 5.592231849422698, -77.07671472441604 5.313257773683157, -77.23485350162323 4.8369689727275516 C-77.30360761386409 4.574779744532417, -77.37236172610496 4.312590516337284, -77.511274507091 3.782855877257349 C-77.57979455552677 3.431019910257028, -77.64831460396255 3.079183943256707, -77.71959031804565 2.713198215567455 C-77.74836343118916 2.490039631920236, -77.77713654433268 2.266881048273017, -77.85894492013637 1.6323914404306026 C-77.87607053146954 1.3656462203718212, -77.89319614280271 1.09890100031304, -77.9287656754117 0.54487681871814 C-77.9287656754117 0.2538208688884798, -77.9287656754117 -0.03723508094118033, -77.9287656754117 -0.5448768187181317 C-77.90316228349614 -0.9436703144888231, -77.87755889158059 -1.3424638102595146, -77.85894492013637 -1.6323914404305793 C-77.82080847967734 -1.928170141738863, -77.7826720392183 -2.223948843047147, -77.71959031804565 -2.713198215567447 C-77.66196400770832 -3.009097139824611, -77.604337697371 -3.3049960640817755, -77.511274507091 -3.782855877257341 C-77.45275185057444 -4.006028130434737, -77.3942291940579 -4.229200383612135, -77.23485350162323 -4.836968972727544 C-77.13470558139477 -5.138598552051517, -77.0345576611663 -5.440228131375491, -76.89146317484594 -5.871205925162218 C-76.7561345535757 -6.205470236100584, -76.62080593230547 -6.539734547038949, -76.48251459126881 -6.881316833080692 C-76.33082763273252 -7.1962980480622925, -76.17914067419622 -7.511279263043893, -76.009688208341 -7.863150934094194 C-75.81577883366072 -8.207456664292415, -75.62186945898044 -8.551762394490638, -75.47492697109088 -8.812673661278929 C-75.30682740389175 -9.070919737550948, -75.1387278366926 -9.329165813822966, -74.88042832814826 -9.725983222076884 C-74.68636834308732 -9.986005922830188, -74.4923083580264 -10.246028623583493, -74.22863520195651 -10.599326631598467 C-74.04340617794449 -10.816907183033026, -73.85817715393249 -11.034487734467584, -73.52222595028037 -11.42911513444238 C-73.28657000874242 -11.67244924179294, -73.05091406720445 -11.9157833491435, -72.76410336025927 -12.21193895166136 C-72.49942709666979 -12.452310931303149, -72.2347508330803 -12.692682910944937, -71.95738272023242 -12.944581292275274 C-71.66766584057505 -13.17562279411207, -71.37794896091768 -13.406664295948865, -71.10537901835067 -13.624031571755259 C-70.8712933377526 -13.787319609134684, -70.63720765715453 -13.95060764651411, -70.21159332057934 -14.247497783161284 C-69.95176438850076 -14.405007608711605, -69.6919354564222 -14.562517434261926, -69.27969838406695 -14.812417970097618 C-69.02535614171208 -14.945108155020174, -68.7710138993572 -15.07779833994273, -68.31352356499849 -15.316470754341124 C-68.04424987576354 -15.43567022884525, -67.77497618652858 -15.554869703349379, -67.31703908294936 -15.757584874882365 C-66.97955873199692 -15.881780763667033, -66.64207838104447 -16.0059766524517, -66.29433970640156 -16.133947699181363 C-65.95859117978108 -16.233596099502343, -65.6228426531606 -16.33324449982332, -65.24962792646164 -16.444012671663494 C-64.90172046127444 -16.52342028028409, -64.55381299608725 -16.602827888904688, -64.18719668792333 -16.68650566884811 C-63.81399113193816 -16.74684264888748, -63.440785575952994 -16.80717962892685, -63.11141174863661 -16.86043023499518 C-62.87005328612403 -16.88371379559775, -62.628694823611454 -16.906997356200318, -62.02669373967212 -16.965071676755716 C-61.686032511680395 -16.975996019280558, -61.345371283688664 -16.986920361805396, -60.93750000000001 -17 C-60.93750000000001 -17, -60.9375 -17, -60.9375 -17" stroke="none" stroke-width="0" fill="#ECECFF" style=""></path><path d="M-60.9375 -17 C-34.204191305204375 -17, -7.470882610408744 -17, 60.9375 -17 M-60.9375 -17 C-33.385853477145915 -17, -5.83420695429183 -17, 60.9375 -17 M60.9375 -17 C60.9375 -17, 60.9375 -17, 60.9375 -17 M60.9375 -17 C60.9375 -17, 60.9375 -17, 60.9375 -17 M60.9375 -17 C61.327722655025305 -16.98748631897566, 61.71794531005061 -16.974972637951318, 62.02669373967212 -16.965071676755716 M60.9375 -17 C61.317156963901496 -16.98782514012513, 61.69681392780299 -16.975650280250257, 62.02669373967212 -16.965071676755716 M62.02669373967212 -16.965071676755716 C62.39593997464943 -16.929450936551024, 62.76518620962675 -16.893830196346332, 63.1114117486366 -16.860430234995185 M62.02669373967212 -16.965071676755716 C62.324766313789596 -16.936316974015323, 62.62283888790708 -16.907562271274927, 63.1114117486366 -16.860430234995185 M63.1114117486366 -16.860430234995185 C63.49186129913301 -16.798922102101255, 63.87231084962941 -16.737413969207328, 64.18719668792333 -16.686505668848113 M63.1114117486366 -16.860430234995185 C63.488167893585484 -16.799519223267392, 63.86492403853437 -16.7386082115396, 64.18719668792333 -16.686505668848113 M64.18719668792333 -16.686505668848113 C64.48215068402114 -16.619184343993492, 64.77710468011892 -16.55186301913887, 65.24962792646163 -16.4440126716635 M64.18719668792333 -16.686505668848113 C64.59817545443829 -16.59270244727816, 65.00915422095323 -16.49889922570821, 65.24962792646163 -16.4440126716635 M65.24962792646163 -16.4440126716635 C65.49714220927385 -16.370551731753817, 65.74465649208607 -16.297090791844134, 66.29433970640156 -16.133947699181366 M65.24962792646163 -16.4440126716635 C65.61913099304802 -16.334346101061836, 65.9886340596344 -16.224679530460172, 66.29433970640156 -16.133947699181366 M66.29433970640156 -16.133947699181366 C66.58900166653666 -16.02550937402635, 66.88366362667176 -15.91707104887133, 67.31703908294936 -15.757584874882369 M66.29433970640156 -16.133947699181366 C66.64582071584084 -16.00459943865288, 66.99730172528011 -15.875251178124387, 67.31703908294936 -15.757584874882369 M67.31703908294936 -15.757584874882369 C67.6766958684953 -15.59837548476066, 68.03635265404125 -15.439166094638951, 68.31352356499849 -15.316470754341125 M67.31703908294936 -15.757584874882369 C67.67987811586421 -15.596966798248458, 68.04271714877906 -15.436348721614548, 68.31352356499849 -15.316470754341125 M68.31352356499849 -15.316470754341125 C68.65115743234641 -15.140327382010529, 68.98879129969433 -14.964184009679933, 69.27969838406693 -14.812417970097622 M68.31352356499849 -15.316470754341125 C68.67600582566396 -15.127363991132919, 69.03848808632942 -14.938257227924712, 69.27969838406693 -14.812417970097622 M69.27969838406693 -14.812417970097622 C69.56743225153708 -14.637992008725325, 69.85516611900724 -14.463566047353028, 70.21159332057933 -14.247497783161291 M69.27969838406693 -14.812417970097622 C69.56899668541925 -14.637043639712322, 69.85829498677155 -14.461669309327025, 70.21159332057933 -14.247497783161291 M70.21159332057933 -14.247497783161291 C70.39494443072377 -14.119599985866161, 70.57829554086821 -13.99170218857103, 71.10537901835067 -13.624031571755262 M70.21159332057933 -14.247497783161291 C70.52894894241818 -14.026124239469954, 70.84630456425704 -13.804750695778617, 71.10537901835067 -13.624031571755262 M71.10537901835067 -13.624031571755262 C71.30846141700785 -13.46207876307576, 71.51154381566502 -13.300125954396261, 71.9573827202324 -12.944581292275288 M71.10537901835067 -13.624031571755262 C71.34290739325648 -13.434609013663405, 71.58043576816227 -13.245186455571545, 71.9573827202324 -12.944581292275288 M71.9573827202324 -12.944581292275288 C72.15843318860414 -12.761992576403973, 72.35948365697587 -12.579403860532656, 72.76410336025927 -12.21193895166137 M71.9573827202324 -12.944581292275288 C72.24427372622755 -12.684034471350556, 72.53116473222269 -12.423487650425823, 72.76410336025927 -12.21193895166137 M72.76410336025927 -12.21193895166137 C72.9987951189668 -11.969600442244104, 73.23348687767434 -11.727261932826838, 73.52222595028036 -11.42911513444239 M72.76410336025927 -12.21193895166137 C73.01403681685917 -11.953862137803569, 73.26397027345907 -11.695785323945767, 73.52222595028036 -11.42911513444239 M73.52222595028036 -11.42911513444239 C73.78669116977649 -11.118459239124942, 74.05115638927262 -10.807803343807493, 74.22863520195651 -10.59932663159847 M73.52222595028036 -11.42911513444239 C73.79840467218884 -11.104699892674235, 74.0745833940973 -10.780284650906081, 74.22863520195651 -10.59932663159847 M74.22863520195651 -10.59932663159847 C74.4613954596512 -10.287449091183289, 74.69415571734588 -9.975571550768107, 74.88042832814824 -9.725983222076888 M74.22863520195651 -10.59932663159847 C74.48174663215148 -10.260180374062863, 74.73485806234645 -9.921034116527252, 74.88042832814824 -9.725983222076888 M74.88042832814824 -9.725983222076888 C75.01531136902396 -9.51876665012387, 75.15019440989968 -9.311550078170852, 75.47492697109088 -8.812673661278927 M74.88042832814824 -9.725983222076888 C75.00524211068179 -9.534235734911885, 75.13005589321536 -9.342488247746882, 75.47492697109088 -8.812673661278927 M75.47492697109088 -8.812673661278927 C75.66781138955409 -8.4701878446322, 75.8606958080173 -8.127702027985471, 76.009688208341 -7.863150934094199 M75.47492697109088 -8.812673661278927 C75.67828088187983 -8.451598200856779, 75.88163479266879 -8.09052274043463, 76.009688208341 -7.863150934094199 M76.009688208341 -7.863150934094199 C76.10854702610668 -7.657868483763926, 76.20740584387235 -7.452586033433653, 76.48251459126881 -6.881316833080699 M76.009688208341 -7.863150934094199 C76.13981557683638 -7.5929386691338765, 76.26994294533178 -7.3227264041735545, 76.48251459126881 -6.881316833080699 M76.48251459126881 -6.881316833080699 C76.61457159650973 -6.555133476987109, 76.74662860175066 -6.228950120893519, 76.89146317484592 -5.871205925162238 M76.48251459126881 -6.881316833080699 C76.57741121076222 -6.646920348230648, 76.67230783025563 -6.412523863380597, 76.89146317484592 -5.871205925162238 M76.89146317484592 -5.871205925162238 C76.99905507158734 -5.547156274617857, 77.10664696832876 -5.223106624073475, 77.23485350162323 -4.836968972727556 M76.89146317484592 -5.871205925162238 C76.99845869900447 -5.548952453818393, 77.10545422316301 -5.22669898247455, 77.23485350162323 -4.836968972727556 M77.23485350162323 -4.836968972727556 C77.34499202724817 -4.4169630401807405, 77.45513055287309 -3.996957107633924, 77.511274507091 -3.7828558772573464 M77.23485350162323 -4.836968972727556 C77.31324594403692 -4.538024614304723, 77.3916383864506 -4.23908025588189, 77.511274507091 -3.7828558772573464 M77.511274507091 -3.7828558772573464 C77.57492784242014 -3.4560094534794406, 77.63858117774926 -3.1291630297015347, 77.71959031804565 -2.713198215567453 M77.511274507091 -3.7828558772573464 C77.59453554576545 -3.355328040890774, 77.6777965844399 -2.9278002045242015, 77.71959031804565 -2.713198215567453 M77.71959031804565 -2.713198215567453 C77.76405879057776 -2.3683095239014698, 77.80852726310988 -2.0234208322354865, 77.85894492013637 -1.632391440430593 M77.71959031804565 -2.713198215567453 C77.75716362755331 -2.4217870467152522, 77.79473693706096 -2.1303758778630515, 77.85894492013637 -1.632391440430593 M77.85894492013637 -1.632391440430593 C77.886172626253 -1.2082979398553333, 77.91340033236962 -0.7842044392800734, 77.9287656754117 -0.5448768187181379 M77.85894492013637 -1.632391440430593 C77.87885597620851 -1.3222606701916408, 77.89876703228067 -1.0121298999526886, 77.9287656754117 -0.5448768187181379 M77.9287656754117 -0.5448768187181379 C77.9287656754117 -0.2657813367077427, 77.9287656754117 0.013314145302652514, 77.9287656754117 0.5448768187181336 M77.9287656754117 -0.5448768187181379 C77.9287656754117 -0.17511402990172342, 77.9287656754117 0.19464875891469102, 77.9287656754117 0.5448768187181336 M77.9287656754117 0.5448768187181336 C77.91022438584112 0.8336723700393491, 77.89168309627055 1.1224679213605646, 77.85894492013637 1.6323914404305815 M77.9287656754117 0.5448768187181336 C77.91089353086593 0.8232498961538705, 77.89302138632016 1.1016229735896073, 77.85894492013637 1.6323914404305815 M77.85894492013637 1.6323914404305815 C77.82022142035974 1.932723257878088, 77.78149792058313 2.233055075325595, 77.71959031804565 2.7131982155674415 M77.85894492013637 1.6323914404305815 C77.80925770563155 2.017755664279671, 77.75957049112672 2.40311988812876, 77.71959031804565 2.7131982155674415 M77.71959031804565 2.7131982155674415 C77.64198394365226 3.111690545964454, 77.56437756925888 3.5101828763614664, 77.511274507091 3.782855877257343 M77.71959031804565 2.7131982155674415 C77.64756495556514 3.083033229339107, 77.57553959308463 3.4528682431107725, 77.511274507091 3.782855877257343 M77.511274507091 3.782855877257343 C77.41601938412998 4.1461049449391645, 77.32076426116896 4.509354012620987, 77.23485350162323 4.836968972727545 M77.511274507091 3.782855877257343 C77.41165195108002 4.162759860016111, 77.31202939506905 4.542663842774879, 77.23485350162323 4.836968972727545 M77.23485350162323 4.836968972727545 C77.11879284907211 5.18652516645779, 77.00273219652098 5.536081360188034, 76.89146317484592 5.871205925162227 M77.23485350162323 4.836968972727545 C77.11004400245886 5.2128752985174795, 76.98523450329448 5.588781624307413, 76.89146317484592 5.871205925162227 M76.89146317484592 5.871205925162227 C76.73884882720017 6.2481663144449175, 76.58623447955442 6.6251267037276085, 76.48251459126881 6.881316833080694 M76.89146317484592 5.871205925162227 C76.80717275234953 6.079404898372768, 76.72288232985315 6.28760387158331, 76.48251459126881 6.881316833080694 M76.48251459126881 6.881316833080694 C76.30042391311405 7.259432022385437, 76.11833323495928 7.637547211690179, 76.009688208341 7.863150934094196 M76.48251459126881 6.881316833080694 C76.34263274914304 7.1717844712468235, 76.20275090701726 7.462252109412954, 76.009688208341 7.863150934094196 M76.009688208341 7.863150934094196 C75.80630815378326 8.224272815425175, 75.60292809922552 8.585394696756154, 75.47492697109088 8.812673661278923 M76.009688208341 7.863150934094196 C75.81374543317294 8.211067172762586, 75.61780265800489 8.558983411430978, 75.47492697109088 8.812673661278923 M75.47492697109088 8.812673661278923 C75.26517489142523 9.134909181965178, 75.05542281175958 9.457144702651432, 74.88042832814826 9.725983222076879 M75.47492697109088 8.812673661278923 C75.2396430339372 9.174132971330495, 75.00435909678353 9.535592281382069, 74.88042832814826 9.725983222076879 M74.88042832814826 9.725983222076879 C74.6263356994324 10.066444196241433, 74.37224307071656 10.406905170405986, 74.22863520195651 10.599326631598467 M74.88042832814826 9.725983222076879 C74.70561479857612 9.960217425863362, 74.530801269004 10.194451629649846, 74.22863520195651 10.599326631598467 M74.22863520195651 10.599326631598467 C74.05951331657161 10.79798682147947, 73.8903914311867 10.996647011360471, 73.52222595028037 11.42911513444238 M74.22863520195651 10.599326631598467 C73.99150797098318 10.877869770021427, 73.75438074000984 11.156412908444384, 73.52222595028037 11.42911513444238 M73.52222595028037 11.42911513444238 C73.27001957410145 11.689538924375682, 73.01781319792254 11.949962714308985, 72.76410336025927 12.211938951661365 M73.52222595028037 11.42911513444238 C73.34383217910333 11.613321349583678, 73.16543840792627 11.797527564724977, 72.76410336025927 12.211938951661365 M72.76410336025927 12.211938951661365 C72.54997534069999 12.406404353508167, 72.3358473211407 12.600869755354971, 71.95738272023242 12.944581292275275 M72.76410336025927 12.211938951661365 C72.50217303072529 12.449817146647383, 72.24024270119129 12.687695341633404, 71.95738272023242 12.944581292275275 M71.95738272023242 12.944581292275275 C71.65237756936142 13.187814783566957, 71.34737241849042 13.431048274858638, 71.10537901835067 13.62403157175526 M71.95738272023242 12.944581292275275 C71.73640060216057 13.12080865085644, 71.51541848408873 13.297036009437605, 71.10537901835067 13.62403157175526 M71.10537901835067 13.62403157175526 C70.86435007808905 13.792162926507118, 70.62332113782742 13.960294281258973, 70.21159332057934 14.247497783161286 M71.10537901835067 13.62403157175526 C70.88599195133801 13.77706649259023, 70.66660488432535 13.930101413425199, 70.21159332057934 14.247497783161286 M70.21159332057934 14.247497783161286 C69.95534588824798 14.40283648251762, 69.69909845591661 14.558175181873954, 69.27969838406695 14.81241797009762 M70.21159332057934 14.247497783161286 C69.897851489694 14.43768992479563, 69.58410965880867 14.627882066429972, 69.27969838406695 14.81241797009762 M69.27969838406695 14.81241797009762 C69.01133248841752 14.952424285961365, 68.7429665927681 15.092430601825109, 68.31352356499849 15.316470754341124 M69.27969838406695 14.81241797009762 C69.04943932064438 14.932543975997202, 68.81918025722182 15.052669981896784, 68.31352356499849 15.316470754341124 M68.31352356499849 15.316470754341124 C67.98993483680945 15.459713885391837, 67.66634610862042 15.602957016442552, 67.31703908294936 15.757584874882367 M68.31352356499849 15.316470754341124 C68.03813308031843 15.438377952740506, 67.76274259563839 15.56028515113989, 67.31703908294936 15.757584874882367 M67.31703908294936 15.757584874882367 C66.93297804583744 15.898922886760865, 66.54891700872551 16.04026089863936, 66.29433970640156 16.133947699181363 M67.31703908294936 15.757584874882367 C66.98979211678271 15.878014783469492, 66.66254515061604 15.998444692056616, 66.29433970640156 16.133947699181363 M66.29433970640156 16.133947699181363 C65.94908634693668 16.236417083998674, 65.6038329874718 16.338886468815986, 65.24962792646164 16.444012671663497 M66.29433970640156 16.133947699181363 C66.04595826063972 16.20766600850266, 65.7975768148779 16.28138431782396, 65.24962792646164 16.444012671663497 M65.24962792646164 16.444012671663497 C64.98777842638209 16.503778111328977, 64.72592892630254 16.56354355099446, 64.18719668792333 16.68650566884811 M65.24962792646164 16.444012671663497 C65.02370645833683 16.495577772487625, 64.79778499021204 16.547142873311753, 64.18719668792333 16.68650566884811 M64.18719668792333 16.68650566884811 C63.91715857452321 16.730163336845795, 63.64712046112307 16.773821004843484, 63.11141174863661 16.86043023499518 M64.18719668792333 16.68650566884811 C63.88626956666212 16.73515723208894, 63.58534244540091 16.783808795329776, 63.11141174863661 16.86043023499518 M63.11141174863661 16.86043023499518 C62.80122525060368 16.890353553406577, 62.491038752570745 16.92027687181797, 62.02669373967212 16.965071676755716 M63.11141174863661 16.86043023499518 C62.710949535220124 16.899062343097196, 62.310487321803635 16.937694451199206, 62.02669373967212 16.965071676755716 M62.02669373967212 16.965071676755716 C61.593521789749595 16.97896265807168, 61.16034983982707 16.992853639387643, 60.9375 17 M62.02669373967212 16.965071676755716 C61.6739663525774 16.976382957517636, 61.32123896548268 16.987694238279555, 60.9375 17 M60.9375 17 C60.9375 17, 60.9375 17, 60.9375 17 M60.9375 17 C60.9375 17, 60.9375 17, 60.9375 17 M60.9375 17 C20.55802390107017 17, -19.821452197859657 17, -60.9375 17 M60.9375 17 C36.43040050734733 17, 11.923301014694651 17, -60.9375 17 M-60.9375 17 C-61.162065659148126 16.992798616401657, -61.386631318296246 16.98559723280332, -62.02669373967211 16.965071676755716 M-60.9375 17 C-61.33932170955346 16.987114359873132, -61.74114341910691 16.97422871974626, -62.02669373967211 16.965071676755716 M-62.02669373967211 16.965071676755716 C-62.27120357292864 16.941484107207557, -62.515713406185164 16.9178965376594, -63.111411748636606 16.86043023499518 M-62.02669373967211 16.965071676755716 C-62.3162638553654 16.937137195953802, -62.60583397105868 16.909202715151885, -63.111411748636606 16.86043023499518 M-63.111411748636606 16.86043023499518 C-63.540538343875625 16.791052375003385, -63.96966493911465 16.72167451501159, -64.18719668792333 16.68650566884811 M-63.111411748636606 16.86043023499518 C-63.35238767486745 16.8214711160384, -63.5933636010983 16.782511997081613, -64.18719668792333 16.68650566884811 M-64.18719668792333 16.68650566884811 C-64.45700179061458 16.624924414801665, -64.72680689330585 16.563343160755224, -65.24962792646161 16.4440126716635 M-64.18719668792333 16.68650566884811 C-64.44295846605162 16.628129711991907, -64.69872024417991 16.5697537551357, -65.24962792646161 16.4440126716635 M-65.24962792646161 16.4440126716635 C-65.58082613547685 16.345714781722656, -65.91202434449208 16.24741689178181, -66.29433970640154 16.13394769918137 M-65.24962792646161 16.4440126716635 C-65.56044082969535 16.35176503347395, -65.8712537329291 16.259517395284394, -66.29433970640154 16.13394769918137 M-66.29433970640154 16.13394769918137 C-66.55431283886986 16.038275183267736, -66.81428597133818 15.942602667354102, -67.31703908294936 15.757584874882369 M-66.29433970640154 16.13394769918137 C-66.63255604581889 16.009480959838218, -66.97077238523623 15.88501422049507, -67.31703908294936 15.757584874882369 M-67.31703908294936 15.757584874882369 C-67.65326601492431 15.608747185914625, -67.98949294689928 15.45990949694688, -68.31352356499849 15.316470754341127 M-67.31703908294936 15.757584874882369 C-67.62526793699244 15.621141104481595, -67.93349679103551 15.48469733408082, -68.31352356499849 15.316470754341127 M-68.31352356499849 15.316470754341127 C-68.53647106607524 15.200159185834076, -68.75941856715198 15.083847617327026, -69.27969838406693 14.812417970097624 M-68.31352356499849 15.316470754341127 C-68.55907529209823 15.18836657559658, -68.80462701919797 15.060262396852035, -69.27969838406693 14.812417970097624 M-69.27969838406693 14.812417970097624 C-69.49734622846168 14.680478567784819, -69.71499407285644 14.548539165472016, -70.21159332057931 14.247497783161299 M-69.27969838406693 14.812417970097624 C-69.5837812140404 14.628081171578645, -69.88786404401387 14.443744373059667, -70.21159332057931 14.247497783161299 M-70.21159332057931 14.247497783161299 C-70.56216942876868 14.002951066283522, -70.91274553695806 13.758404349405748, -71.10537901835067 13.624031571755264 M-70.21159332057931 14.247497783161299 C-70.43743267663261 14.089962024806674, -70.66327203268591 13.932426266452051, -71.10537901835067 13.624031571755264 M-71.10537901835067 13.624031571755264 C-71.353967743471 13.4257886786956, -71.60255646859133 13.227545785635934, -71.9573827202324 12.94458129227529 M-71.10537901835067 13.624031571755264 C-71.30661536625608 13.463550939424822, -71.50785171416149 13.303070307094382, -71.9573827202324 12.94458129227529 M-71.9573827202324 12.94458129227529 C-72.18774294411294 12.735374231944514, -72.41810316799348 12.526167171613737, -72.76410336025926 12.211938951661377 M-71.9573827202324 12.94458129227529 C-72.23225605521925 12.69494860219014, -72.5071293902061 12.445315912104991, -72.76410336025926 12.211938951661377 M-72.76410336025926 12.211938951661377 C-72.9260821525787 12.044682549885382, -73.08806094489813 11.877426148109388, -73.52222595028036 11.429115134442386 M-72.76410336025926 12.211938951661377 C-72.976282052295 11.992847031939878, -73.18846074433075 11.773755112218378, -73.52222595028036 11.429115134442386 M-73.52222595028036 11.429115134442386 C-73.7445432740554 11.167968555722126, -73.96686059783046 10.906821977001867, -74.22863520195651 10.599326631598473 M-73.52222595028036 11.429115134442386 C-73.78190478428729 11.124081599873602, -74.04158361829423 10.819048065304818, -74.22863520195651 10.599326631598473 M-74.22863520195651 10.599326631598473 C-74.38084639754373 10.395377496236772, -74.53305759313096 10.191428360875072, -74.88042832814824 9.72598322207689 M-74.22863520195651 10.599326631598473 C-74.41936604889355 10.343764672640448, -74.6100968958306 10.088202713682422, -74.88042832814824 9.72598322207689 M-74.88042832814824 9.72598322207689 C-75.10461295710456 9.381575429998032, -75.32879758606089 9.037167637919175, -75.47492697109088 8.812673661278936 M-74.88042832814824 9.72598322207689 C-75.07820428732602 9.422146238498646, -75.27598024650379 9.118309254920403, -75.47492697109088 8.812673661278936 M-75.47492697109088 8.812673661278936 C-75.6098532843659 8.573098329288374, -75.74477959764093 8.333522997297813, -76.009688208341 7.863150934094201 M-75.47492697109088 8.812673661278936 C-75.5947384814304 8.599936192440124, -75.71454999176991 8.387198723601314, -76.009688208341 7.863150934094201 M-76.009688208341 7.863150934094201 C-76.12936452213229 7.614640507843677, -76.2490408359236 7.366130081593153, -76.48251459126881 6.881316833080701 M-76.009688208341 7.863150934094201 C-76.16325554788443 7.54426506771757, -76.31682288742788 7.225379201340941, -76.48251459126881 6.881316833080701 M-76.48251459126881 6.881316833080701 C-76.58077137283962 6.638620682935161, -76.67902815441043 6.395924532789621, -76.89146317484592 5.87120592516224 M-76.48251459126881 6.881316833080701 C-76.63107240315382 6.514376165554818, -76.77963021503884 6.147435498028935, -76.89146317484592 5.87120592516224 M-76.89146317484592 5.87120592516224 C-76.99979877842622 5.544916348112731, -77.10813438200653 5.218626771063223, -77.23485350162323 4.8369689727275516 M-76.89146317484592 5.87120592516224 C-77.02116349947765 5.4805692123118614, -77.15086382410938 5.089932499461483, -77.23485350162323 4.8369689727275516 M-77.23485350162323 4.8369689727275516 C-77.31675981661137 4.52462469525636, -77.39866613159948 4.212280417785169, -77.511274507091 3.782855877257349 M-77.23485350162323 4.8369689727275516 C-77.29067232195216 4.624107618783609, -77.34649114228108 4.411246264839666, -77.511274507091 3.782855877257349 M-77.511274507091 3.782855877257349 C-77.59154806554028 3.3706681204429163, -77.67182162398954 2.9584803636284835, -77.71959031804565 2.713198215567455 M-77.511274507091 3.782855877257349 C-77.576786666245 3.446464786001293, -77.642298825399 3.1100736947452376, -77.71959031804565 2.713198215567455 M-77.71959031804565 2.713198215567455 C-77.7585720807874 2.4108633615620962, -77.79755384352917 2.108528507556737, -77.85894492013637 1.6323914404306026 M-77.71959031804565 2.713198215567455 C-77.76263024509663 2.3793890405549134, -77.80567017214763 2.045579865542372, -77.85894492013637 1.6323914404306026 M-77.85894492013637 1.6323914404306026 C-77.87954867304695 1.3114713577982557, -77.90015242595754 0.990551275165909, -77.9287656754117 0.54487681871814 M-77.85894492013637 1.6323914404306026 C-77.87751175220559 1.343198044075327, -77.89607858427482 1.0540046477200513, -77.9287656754117 0.54487681871814 M-77.9287656754117 0.54487681871814 C-77.9287656754117 0.16662457834690853, -77.9287656754117 -0.21162766202432293, -77.9287656754117 -0.5448768187181317 M-77.9287656754117 0.54487681871814 C-77.9287656754117 0.3268343446323402, -77.9287656754117 0.10879187054654033, -77.9287656754117 -0.5448768187181317 M-77.9287656754117 -0.5448768187181317 C-77.91423184028278 -0.7712530323516421, -77.89969800515385 -0.9976292459851526, -77.85894492013637 -1.6323914404305793 M-77.9287656754117 -0.5448768187181317 C-77.90603549019498 -0.8989178009437118, -77.88330530497826 -1.2529587831692917, -77.85894492013637 -1.6323914404305793 M-77.85894492013637 -1.6323914404305793 C-77.82030860093417 -1.9320471025585846, -77.78167228173199 -2.23170276468659, -77.71959031804565 -2.713198215567447 M-77.85894492013637 -1.6323914404305793 C-77.81644663717645 -1.9619997308324613, -77.77394835421654 -2.2916080212343433, -77.71959031804565 -2.713198215567447 M-77.71959031804565 -2.713198215567447 C-77.66725226394416 -2.9819430617269007, -77.61491420984268 -3.2506879078863546, -77.511274507091 -3.782855877257341 M-77.71959031804565 -2.713198215567447 C-77.6722606829959 -2.9562258884260024, -77.62493104794615 -3.1992535612845585, -77.511274507091 -3.782855877257341 M-77.511274507091 -3.782855877257341 C-77.44543190450617 -4.033942257277804, -77.37958930192133 -4.285028637298268, -77.23485350162323 -4.836968972727544 M-77.511274507091 -3.782855877257341 C-77.42033444267433 -4.129649756551326, -77.32939437825767 -4.476443635845312, -77.23485350162323 -4.836968972727544 M-77.23485350162323 -4.836968972727544 C-77.12718143466057 -5.161260083204939, -77.0195093676979 -5.485551193682335, -76.89146317484594 -5.871205925162218 M-77.23485350162323 -4.836968972727544 C-77.10990503980177 -5.213293831899938, -76.98495657798031 -5.589618691072332, -76.89146317484594 -5.871205925162218 M-76.89146317484594 -5.871205925162218 C-76.73902248184804 -6.247737384107335, -76.58658178885013 -6.624268843052453, -76.48251459126881 -6.881316833080692 M-76.89146317484594 -5.871205925162218 C-76.78880029329976 -6.1247852274330485, -76.68613741175359 -6.378364529703879, -76.48251459126881 -6.881316833080692 M-76.48251459126881 -6.881316833080692 C-76.31445021768603 -7.230306100826851, -76.14638584410326 -7.5792953685730104, -76.009688208341 -7.863150934094194 M-76.48251459126881 -6.881316833080692 C-76.32487649533631 -7.2086557121994455, -76.16723839940381 -7.535994591318199, -76.009688208341 -7.863150934094194 M-76.009688208341 -7.863150934094194 C-75.83879167080516 -8.166595041639996, -75.66789513326934 -8.470039149185796, -75.47492697109088 -8.812673661278929 M-76.009688208341 -7.863150934094194 C-75.80239618764803 -8.23121890742781, -75.59510416695505 -8.599286880761424, -75.47492697109088 -8.812673661278929 M-75.47492697109088 -8.812673661278929 C-75.30492284902127 -9.073845645276585, -75.13491872695165 -9.33501762927424, -74.88042832814826 -9.725983222076884 M-75.47492697109088 -8.812673661278929 C-75.29936186321603 -9.082388812807201, -75.12379675534119 -9.352103964335473, -74.88042832814826 -9.725983222076884 M-74.88042832814826 -9.725983222076884 C-74.72505165700551 -9.93417380630222, -74.56967498586278 -10.142364390527552, -74.22863520195651 -10.599326631598467 M-74.88042832814826 -9.725983222076884 C-74.64250709733297 -10.044775996299347, -74.40458586651768 -10.363568770521807, -74.22863520195651 -10.599326631598467 M-74.22863520195651 -10.599326631598467 C-73.98898730911472 -10.880830682881841, -73.74933941627293 -11.162334734165215, -73.52222595028037 -11.42911513444238 M-74.22863520195651 -10.599326631598467 C-73.97394262274487 -10.898503027558759, -73.71925004353325 -11.197679423519048, -73.52222595028037 -11.42911513444238 M-73.52222595028037 -11.42911513444238 C-73.32063222262943 -11.637277209394828, -73.11903849497848 -11.845439284347275, -72.76410336025927 -12.21193895166136 M-73.52222595028037 -11.42911513444238 C-73.30107909492989 -11.657467419086233, -73.07993223957942 -11.885819703730085, -72.76410336025927 -12.21193895166136 M-72.76410336025927 -12.21193895166136 C-72.54456391404378 -12.411318868018826, -72.3250244678283 -12.610698784376293, -71.95738272023242 -12.944581292275274 M-72.76410336025927 -12.21193895166136 C-72.48490278318106 -12.465501528521337, -72.20570220610284 -12.719064105381314, -71.95738272023242 -12.944581292275274 M-71.95738272023242 -12.944581292275274 C-71.70278189858742 -13.14761867232476, -71.4481810769424 -13.350656052374248, -71.10537901835067 -13.624031571755259 M-71.95738272023242 -12.944581292275274 C-71.74261828437537 -13.115850214749617, -71.5278538485183 -13.28711913722396, -71.10537901835067 -13.624031571755259 M-71.10537901835067 -13.624031571755259 C-70.92434362827497 -13.75031402297634, -70.74330823819928 -13.876596474197424, -70.21159332057934 -14.247497783161284 M-71.10537901835067 -13.624031571755259 C-70.8244733697534 -13.819979192007178, -70.54356772115612 -14.0159268122591, -70.21159332057934 -14.247497783161284 M-70.21159332057934 -14.247497783161284 C-69.91520818802532 -14.427168192267905, -69.6188230554713 -14.606838601374525, -69.27969838406695 -14.812417970097618 M-70.21159332057934 -14.247497783161284 C-69.91778397937006 -14.42560673241769, -69.62397463816079 -14.603715681674094, -69.27969838406695 -14.812417970097618 M-69.27969838406695 -14.812417970097618 C-69.0777402154386 -14.91777941731065, -68.87578204681024 -15.023140864523683, -68.31352356499849 -15.316470754341124 M-69.27969838406695 -14.812417970097618 C-68.95471520640999 -14.981961485719594, -68.62973202875303 -15.15150500134157, -68.31352356499849 -15.316470754341124 M-68.31352356499849 -15.316470754341124 C-67.93131183592308 -15.485664548894698, -67.54910010684767 -15.654858343448272, -67.31703908294936 -15.757584874882365 M-68.31352356499849 -15.316470754341124 C-68.11243267106755 -15.405487727934924, -67.91134177713661 -15.494504701528726, -67.31703908294936 -15.757584874882365 M-67.31703908294936 -15.757584874882365 C-66.98590547510712 -15.87944510353383, -66.65477186726486 -16.001305332185296, -66.29433970640156 -16.133947699181363 M-67.31703908294936 -15.757584874882365 C-66.97714238547803 -15.882670001522442, -66.63724568800671 -16.00775512816252, -66.29433970640156 -16.133947699181363 M-66.29433970640156 -16.133947699181363 C-66.05046536455555 -16.206328323718715, -65.80659102270954 -16.27870894825607, -65.24962792646164 -16.444012671663494 M-66.29433970640156 -16.133947699181363 C-66.04846658400938 -16.206921551293004, -65.8025934616172 -16.279895403404648, -65.24962792646164 -16.444012671663494 M-65.24962792646164 -16.444012671663494 C-64.8393151859215 -16.53766387715092, -64.42900244538136 -16.63131508263835, -64.18719668792333 -16.68650566884811 M-65.24962792646164 -16.444012671663494 C-64.91252319992279 -16.520954625682066, -64.57541847338392 -16.597896579700638, -64.18719668792333 -16.68650566884811 M-64.18719668792333 -16.68650566884811 C-63.877002808114135 -16.736655409746195, -63.56680892830493 -16.78680515064428, -63.11141174863661 -16.86043023499518 M-64.18719668792333 -16.68650566884811 C-63.805759467503314 -16.748173480555796, -63.42432224708329 -16.80984129226348, -63.11141174863661 -16.86043023499518 M-63.11141174863661 -16.86043023499518 C-62.83604825197187 -16.886994220345372, -62.56068475530713 -16.913558205695562, -62.02669373967212 -16.965071676755716 M-63.11141174863661 -16.86043023499518 C-62.83856257006426 -16.88675166710291, -62.56571339149191 -16.913073099210635, -62.02669373967212 -16.965071676755716 M-62.02669373967212 -16.965071676755716 C-61.60525257532294 -16.978586474610932, -61.18381141097377 -16.992101272466147, -60.93750000000001 -17 M-62.02669373967212 -16.965071676755716 C-61.748892186276024 -16.97398023186521, -61.47109063287992 -16.9828887869747, -60.93750000000001 -17 M-60.93750000000001 -17 C-60.93750000000001 -17, -60.9375 -17, -60.9375 -17 M-60.93750000000001 -17 C-60.93750000000001 -17, -60.93750000000001 -17, -60.9375 -17" stroke="#9370DB" stroke-width="1.3" fill="none" stroke-dasharray="0 0" style=""></path></g><g class="label" style="" transform="translate(0, -9.5)"><rect></rect><g><rect class="background" style="stroke: none"></rect><text y="-10.1" style=""><tspan class="text-outer-tspan row" x="0" y="-0.1em" dy="1.1em"><tspan font-style="normal" class="text-inner-tspan" font-weight="normal">Need</tspan><tspan font-style="normal" class="text-inner-tspan" font-weight="normal"> to</tspan><tspan font-style="normal" class="text-inner-tspan" font-weight="normal"> invalidate</tspan></tspan></text></g></g></g><g class="node default" id="g592fc527-63a1-4b21-a368-335d672a8b83-light-flowchart-Q1-2" data-look="classic" transform="translate(312.4632797241211, 175.35468292236328)"><polygon points="83.35468673706055,0 166.7093734741211,-83.35468673706055 83.35468673706055,-166.7093734741211 0,-83.35468673706055" class="label-container" transform="translate(-82.85468673706055, 83.35468673706055)"></polygon><g class="label" style="" transform="translate(0, -18.299999237060547)"><rect></rect><g><rect class="background" style="stroke: none"></rect><text y="-10.1" style=""><tspan class="text-outer-tspan row" x="0" y="-0.1em" dy="1.1em"><tspan font-style="normal" class="text-inner-tspan" font-weight="normal">URL</tspan><tspan font-style="normal" class="text-inner-tspan" font-weight="normal"> derived</tspan></tspan><tspan class="text-outer-tspan row" x="0" y="1em" dy="1.1em"><tspan font-style="normal" class="text-inner-tspan" font-weight="normal">from</tspan><tspan font-style="normal" class="text-inner-tspan" font-weight="normal"> content?</tspan></tspan></text></g></g></g><g class="node default" id="g592fc527-63a1-4b21-a368-335d672a8b83-light-flowchart-Versioned-4" data-look="classic" transform="translate(207.5749969482422, 410.5171813964844)"><rect class="basic label-container" style="" x="-80.96875" y="-33.29999923706055" width="161.9375" height="66.5999984741211"></rect><g class="label" style="" transform="translate(0, -18.299999237060547)"><rect></rect><g><rect class="background" style="stroke: none"></rect><text y="-10.1" style=""><tspan class="text-outer-tspan row" x="0" y="-0.1em" dy="1.1em"><tspan font-style="normal" class="text-inner-tspan" font-weight="normal">Versioned</tspan><tspan font-style="normal" class="text-inner-tspan" font-weight="normal"> URL</tspan></tspan><tspan class="text-outer-tspan row" x="0" y="1em" dy="1.1em"><tspan font-style="normal" class="text-inner-tspan" font-weight="normal">1y</tspan><tspan font-style="normal" class="text-inner-tspan" font-weight="normal"> immutable</tspan></tspan></text></g></g></g><g class="node default" id="g592fc527-63a1-4b21-a368-335d672a8b83-light-flowchart-Q2-6" data-look="classic" transform="translate(417.3515625, 410.5171813964844)"><polygon points="78.80781173706055,0 157.6156234741211,-78.80781173706055 78.80781173706055,-157.6156234741211 0,-78.80781173706055" class="label-container" transform="translate(-78.30781173706055, 78.80781173706055)"></polygon><g class="label" style="" transform="translate(0, -18.299999237060547)"><rect></rect><g><rect class="background" style="stroke: none"></rect><text y="-10.1" style=""><tspan class="text-outer-tspan row" x="0" y="-0.1em" dy="1.1em"><tspan font-style="normal" class="text-inner-tspan" font-weight="normal">Many</tspan><tspan font-style="normal" class="text-inner-tspan" font-weight="normal"> entries</tspan></tspan><tspan class="text-outer-tspan row" x="0" y="1em" dy="1.1em"><tspan font-style="normal" class="text-inner-tspan" font-weight="normal">per</tspan><tspan font-style="normal" class="text-inner-tspan" font-weight="normal"> source?</tspan></tspan></text></g></g></g><g class="node default" id="g592fc527-63a1-4b21-a368-335d672a8b83-light-flowchart-Q3-8" data-look="classic" transform="translate(194.359375, 652.4765548706055)"><polygon points="73.15937423706055,0 146.3187484741211,-73.15937423706055 73.15937423706055,-146.3187484741211 0,-73.15937423706055" class="label-container" transform="translate(-72.65937423706055, 73.15937423706055)"></polygon><g class="label" style="" transform="translate(0, -18.299999237060547)"><rect></rect><g><rect class="background" style="stroke: none"></rect><text y="-10.1" style=""><tspan class="text-outer-tspan row" x="0" y="-0.1em" dy="1.1em"><tspan font-style="normal" class="text-inner-tspan" font-weight="normal">Tolerate</tspan></tspan><tspan class="text-outer-tspan row" x="0" y="1em" dy="1.1em"><tspan font-style="normal" class="text-inner-tspan" font-weight="normal">brief</tspan><tspan font-style="normal" class="text-inner-tspan" font-weight="normal"> stale?</tspan></tspan></text></g></g></g><g class="node default" id="g592fc527-63a1-4b21-a368-335d672a8b83-light-flowchart-SWR-10" data-look="classic" transform="translate(92.71875, 848.9281120300293)"><rect class="basic label-container" style="" x="-84.71875" y="-24.5" width="169.4375" height="49"></rect><g class="label" style="" transform="translate(0, -9.5)"><rect></rect><g><rect class="background" style="stroke: none"></rect><text y="-10.1" style=""><tspan class="text-outer-tspan row" x="0" y="-0.1em" dy="1.1em"><tspan font-style="normal" class="text-inner-tspan" font-weight="normal">max-age</tspan><tspan font-style="normal" class="text-inner-tspan" font-weight="normal"> +</tspan><tspan font-style="normal" class="text-inner-tspan" font-weight="normal"> SWR</tspan></tspan></text></g></g></g><g class="node default" id="g592fc527-63a1-4b21-a368-335d672a8b83-light-flowchart-PathPurge-12" data-look="classic" transform="translate(296, 848.9281120300293)"><rect class="basic label-container" style="" x="-68.5625" y="-33.29999923706055" width="137.125" height="66.5999984741211"></rect><g class="label" style="" transform="translate(0, -18.299999237060547)"><rect></rect><g><rect class="background" style="stroke: none"></rect><text y="-10.1" style=""><tspan class="text-outer-tspan row" x="0" y="-0.1em" dy="1.1em"><tspan font-style="normal" class="text-inner-tspan" font-weight="normal">Path</tspan><tspan font-style="normal" class="text-inner-tspan" font-weight="normal"> purge</tspan></tspan><tspan class="text-outer-tspan row" x="0" y="1em" dy="1.1em"><tspan font-style="normal" class="text-inner-tspan" font-weight="normal">+</tspan><tspan font-style="normal" class="text-inner-tspan" font-weight="normal"> verify</tspan></tspan></text></g></g></g><g class="node default" id="g592fc527-63a1-4b21-a368-335d672a8b83-light-flowchart-Q4-14" data-look="classic" transform="translate(622.3984375, 652.4765548706055)"><polygon points="90.15156173706055,0 180.3031234741211,-90.15156173706055 90.15156173706055,-180.3031234741211 0,-90.15156173706055" class="label-container" transform="translate(-89.65156173706055, 90.15156173706055)"></polygon><g class="label" style="" transform="translate(0, -18.299999237060547)"><rect></rect><g><rect class="background" style="stroke: none"></rect><text y="-10.1" style=""><tspan class="text-outer-tspan row" x="0" y="-0.1em" dy="1.1em"><tspan font-style="normal" class="text-inner-tspan" font-weight="normal">Surrogate</tspan></tspan><tspan class="text-outer-tspan row" x="0" y="1em" dy="1.1em"><tspan font-style="normal" class="text-inner-tspan" font-weight="normal">keys</tspan><tspan font-style="normal" class="text-inner-tspan" font-weight="normal"> supported?</tspan></tspan></text></g></g></g><g class="node default" id="g592fc527-63a1-4b21-a368-335d672a8b83-light-flowchart-TagPurge-16" data-look="classic" transform="translate(502.8125, 848.9281120300293)"><rect class="basic label-container" style="" x="-88.25" y="-24.5" width="176.5" height="49"></rect><g class="label" style="" transform="translate(0, -9.5)"><rect></rect><g><rect class="background" style="stroke: none"></rect><text y="-10.1" style=""><tspan class="text-outer-tspan row" x="0" y="-0.1em" dy="1.1em"><tspan font-style="normal" class="text-inner-tspan" font-weight="normal">Tag-based</tspan><tspan font-style="normal" class="text-inner-tspan" font-weight="normal"> purge</tspan></tspan></text></g></g></g><g class="node default" id="g592fc527-63a1-4b21-a368-335d672a8b83-light-flowchart-TagWorkaround-18" data-look="classic" transform="translate(741.984375, 848.9281120300293)"><rect class="basic label-container" style="" x="-100.921875" y="-33.29999923706055" width="201.84375" height="66.5999984741211"></rect><g class="label" style="" transform="translate(0, -18.299999237060547)"><rect></rect><g><rect class="background" style="stroke: none"></rect><text y="-10.1" style=""><tspan class="text-outer-tspan row" x="0" y="-0.1em" dy="1.1em"><tspan font-style="normal" class="text-inner-tspan" font-weight="normal">App</tspan><tspan font-style="normal" class="text-inner-tspan" font-weight="normal"> tag→URL</tspan><tspan font-style="normal" class="text-inner-tspan" font-weight="normal"> index</tspan></tspan><tspan class="text-outer-tspan row" x="0" y="1em" dy="1.1em"><tspan font-style="normal" class="text-inner-tspan" font-weight="normal">then</tspan><tspan font-style="normal" class="text-inner-tspan" font-weight="normal"> path</tspan><tspan font-style="normal" class="text-inner-tspan" font-weight="normal"> purge</tspan></tspan></text></g></g></g></g></g></g><defs><filter id="g592fc527-63a1-4b21-a368-335d672a8b83-light-drop-shadow" height="130%" width="130%"><feDropShadow dx="4" dy="4" stdDeviation="0" flood-opacity="0.06" flood-color="#000000"></feDropShadow></filter></defs><defs><filter id="g592fc527-63a1-4b21-a368-335d672a8b83-light-drop-shadow-small" height="150%" width="150%"><feDropShadow dx="2" dy="2" stdDeviation="0" flood-opacity="0.06" flood-color="#000000"></feDropShadow></filter></defs></svg>