<svg id="g592fc527-63a1-4b21-a368-335d672a8b83-dark" width="100%" xmlns="http://www.w3.org/2000/svg" xmlns:xlink="http://www.w3.org/1999/xlink" class="flowchart" style="max-width: 850.90625px;" viewBox="0 0 850.90625 890.2280883789062" role="graphics-document document" aria-roledescription="flowchart-v2"><style>#g592fc527-63a1-4b21-a368-335d672a8b83-dark{font-family:"trebuchet ms",verdana,arial,sans-serif;font-size:16px;fill:#e5e5e5;}@keyframes edge-animation-frame{from{stroke-dashoffset:0;}}@keyframes dash{to{stroke-dashoffset:0;}}#g592fc527-63a1-4b21-a368-335d672a8b83-dark .edge-animation-slow{stroke-dasharray:9,5!important;stroke-dashoffset:900;animation:dash 50s linear infinite;stroke-linecap:round;}#g592fc527-63a1-4b21-a368-335d672a8b83-dark .edge-animation-fast{stroke-dasharray:9,5!important;stroke-dashoffset:900;animation:dash 20s linear infinite;stroke-linecap:round;}#g592fc527-63a1-4b21-a368-335d672a8b83-dark .error-icon{fill:#252525;}#g592fc527-63a1-4b21-a368-335d672a8b83-dark .error-text{fill:#cccccc;stroke:#cccccc;}#g592fc527-63a1-4b21-a368-335d672a8b83-dark .edge-thickness-normal{stroke-width:1px;}#g592fc527-63a1-4b21-a368-335d672a8b83-dark .edge-thickness-thick{stroke-width:3.5px;}#g592fc527-63a1-4b21-a368-335d672a8b83-dark .edge-pattern-solid{stroke-dasharray:0;}#g592fc527-63a1-4b21-a368-335d672a8b83-dark .edge-thickness-invisible{stroke-width:0;fill:none;}#g592fc527-63a1-4b21-a368-335d672a8b83-dark .edge-pattern-dashed{stroke-dasharray:3;}#g592fc527-63a1-4b21-a368-335d672a8b83-dark .edge-pattern-dotted{stroke-dasharray:2;}#g592fc527-63a1-4b21-a368-335d672a8b83-dark .marker{fill:#cccccc;stroke:#cccccc;}#g592fc527-63a1-4b21-a368-335d672a8b83-dark .marker.cross{stroke:#cccccc;}#g592fc527-63a1-4b21-a368-335d672a8b83-dark svg{font-family:"trebuchet ms",verdana,arial,sans-serif;font-size:16px;}#g592fc527-63a1-4b21-a368-335d672a8b83-dark p{margin:0;}#g592fc527-63a1-4b21-a368-335d672a8b83-dark .label{font-family:"trebuchet ms",verdana,arial,sans-serif;color:#e5e5e5;}#g592fc527-63a1-4b21-a368-335d672a8b83-dark .cluster-label text{fill:#e5e5e5;}#g592fc527-63a1-4b21-a368-335d672a8b83-dark .cluster-label span{color:#e5e5e5;}#g592fc527-63a1-4b21-a368-335d672a8b83-dark .cluster-label span p{background-color:transparent;}#g592fc527-63a1-4b21-a368-335d672a8b83-dark .label text,#g592fc527-63a1-4b21-a368-335d672a8b83-dark span{fill:#e5e5e5;color:#e5e5e5;}#g592fc527-63a1-4b21-a368-335d672a8b83-dark .node rect,#g592fc527-63a1-4b21-a368-335d672a8b83-dark .node circle,#g592fc527-63a1-4b21-a368-335d672a8b83-dark .node ellipse,#g592fc527-63a1-4b21-a368-335d672a8b83-dark .node polygon,#g592fc527-63a1-4b21-a368-335d672a8b83-dark .node path{fill:#2d2d2d;stroke:#555555;stroke-width:1px;}#g592fc527-63a1-4b21-a368-335d672a8b83-dark .rough-node .label text,#g592fc527-63a1-4b21-a368-335d672a8b83-dark .node .label text,#g592fc527-63a1-4b21-a368-335d672a8b83-dark .image-shape .label,#g592fc527-63a1-4b21-a368-335d672a8b83-dark .icon-shape .label{text-anchor:middle;}#g592fc527-63a1-4b21-a368-335d672a8b83-dark .node .katex path{fill:#000;stroke:#000;stroke-width:1px;}#g592fc527-63a1-4b21-a368-335d672a8b83-dark .rough-node .label,#g592fc527-63a1-4b21-a368-335d672a8b83-dark .node .label,#g592fc527-63a1-4b21-a368-335d672a8b83-dark .image-shape .label,#g592fc527-63a1-4b21-a368-335d672a8b83-dark .icon-shape .label{text-align:center;}#g592fc527-63a1-4b21-a368-335d672a8b83-dark .node.clickable{cursor:pointer;}#g592fc527-63a1-4b21-a368-335d672a8b83-dark .root .anchor path{fill:#cccccc!important;stroke-width:0;stroke:#cccccc;}#g592fc527-63a1-4b21-a368-335d672a8b83-dark .arrowheadPath{fill:#cccccc;}#g592fc527-63a1-4b21-a368-335d672a8b83-dark .edgePath .path{stroke:#cccccc;stroke-width:1px;}#g592fc527-63a1-4b21-a368-335d672a8b83-dark .flowchart-link{stroke:#cccccc;fill:none;}#g592fc527-63a1-4b21-a368-335d672a8b83-dark .edgeLabel{background-color:#1e1e1e;text-align:center;}#g592fc527-63a1-4b21-a368-335d672a8b83-dark .edgeLabel p{background-color:#1e1e1e;}#g592fc527-63a1-4b21-a368-335d672a8b83-dark .edgeLabel rect{opacity:0.5;background-color:#1e1e1e;fill:#1e1e1e;}#g592fc527-63a1-4b21-a368-335d672a8b83-dark .labelBkg{background-color:rgba(30, 30, 30, 0.5);}#g592fc527-63a1-4b21-a368-335d672a8b83-dark .cluster rect{fill:#1e1e1e;stroke:#555555;stroke-width:1px;}#g592fc527-63a1-4b21-a368-335d672a8b83-dark .cluster text{fill:#e5e5e5;}#g592fc527-63a1-4b21-a368-335d672a8b83-dark .cluster span{color:#e5e5e5;}#g592fc527-63a1-4b21-a368-335d672a8b83-dark div.mermaidTooltip{position:absolute;text-align:center;max-width:200px;padding:2px;font-family:"trebuchet ms",verdana,arial,sans-serif;font-size:12px;background:#252525;border:1px solid #555555;border-radius:2px;pointer-events:none;z-index:100;}#g592fc527-63a1-4b21-a368-335d672a8b83-dark .flowchartTitleText{text-anchor:middle;font-size:18px;fill:#e5e5e5;}#g592fc527-63a1-4b21-a368-335d672a8b83-dark rect.text{fill:none;stroke-width:0;}#g592fc527-63a1-4b21-a368-335d672a8b83-dark .icon-shape,#g592fc527-63a1-4b21-a368-335d672a8b83-dark .image-shape{background-color:#1e1e1e;text-align:center;}#g592fc527-63a1-4b21-a368-335d672a8b83-dark .icon-shape p,#g592fc527-63a1-4b21-a368-335d672a8b83-dark .image-shape p{background-color:#1e1e1e;padding:2px;}#g592fc527-63a1-4b21-a368-335d672a8b83-dark .icon-shape .label rect,#g592fc527-63a1-4b21-a368-335d672a8b83-dark .image-shape .label rect{opacity:0.5;background-color:#1e1e1e;fill:#1e1e1e;}#g592fc527-63a1-4b21-a368-335d672a8b83-dark .label-icon{display:inline-block;height:1em;overflow:visible;vertical-align:-0.125em;}#g592fc527-63a1-4b21-a368-335d672a8b83-dark .node .label-icon path{fill:currentColor;stroke:revert;stroke-width:revert;}#g592fc527-63a1-4b21-a368-335d672a8b83-dark .node .neo-node{stroke:#555555;}#g592fc527-63a1-4b21-a368-335d672a8b83-dark [data-look="neo"].node rect,#g592fc527-63a1-4b21-a368-335d672a8b83-dark [data-look="neo"].cluster rect,#g592fc527-63a1-4b21-a368-335d672a8b83-dark [data-look="neo"].node polygon{stroke:url(#g592fc527-63a1-4b21-a368-335d672a8b83-dark-gradient);filter:drop-shadow( 1px 2px 2px rgba(185,185,185,1));}#g592fc527-63a1-4b21-a368-335d672a8b83-dark [data-look="neo"].node path{stroke:url(#g592fc527-63a1-4b21-a368-335d672a8b83-dark-gradient);stroke-width:1px;}#g592fc527-63a1-4b21-a368-335d672a8b83-dark [data-look="neo"].node .outer-path{filter:drop-shadow( 1px 2px 2px rgba(185,185,185,1));}#g592fc527-63a1-4b21-a368-335d672a8b83-dark [data-look="neo"].node .neo-line path{stroke:#555555;filter:none;}#g592fc527-63a1-4b21-a368-335d672a8b83-dark [data-look="neo"].node circle{stroke:url(#g592fc527-63a1-4b21-a368-335d672a8b83-dark-gradient);filter:drop-shadow( 1px 2px 2px rgba(185,185,185,1));}#g592fc527-63a1-4b21-a368-335d672a8b83-dark [data-look="neo"].node circle .state-start{fill:#000000;}#g592fc527-63a1-4b21-a368-335d672a8b83-dark [data-look="neo"].icon-shape .icon{fill:url(#g592fc527-63a1-4b21-a368-335d672a8b83-dark-gradient);filter:drop-shadow( 1px 2px 2px rgba(185,185,185,1));}#g592fc527-63a1-4b21-a368-335d672a8b83-dark [data-look="neo"].icon-shape .icon-neo path{stroke:url(#g592fc527-63a1-4b21-a368-335d672a8b83-dark-gradient);filter:drop-shadow( 1px 2px 2px rgba(185,185,185,1));}#g592fc527-63a1-4b21-a368-335d672a8b83-dark :root{--mermaid-font-family:"trebuchet ms",verdana,arial,sans-serif;}</style><g><marker id="g592fc527-63a1-4b21-a368-335d672a8b83-dark_flowchart-v2-pointEnd" class="marker flowchart-v2" viewBox="0 0 10 10" refX="5" refY="5" markerUnits="userSpaceOnUse" markerWidth="8" markerHeight="8" orient="auto"><path d="M 0 0 L 10 5 L 0 10 z" class="arrowMarkerPath" style="stroke-width: 1; stroke-dasharray: 1, 0;"></path></marker><marker id="g592fc527-63a1-4b21-a368-335d672a8b83-dark_flowchart-v2-pointStart" class="marker flowchart-v2" viewBox="0 0 10 10" refX="4.5" refY="5" markerUnits="userSpaceOnUse" markerWidth="8" markerHeight="8" orient="auto"><path d="M 0 5 L 10 10 L 10 0 z" class="arrowMarkerPath" style="stroke-width: 1; stroke-dasharray: 1, 0;"></path></marker><marker id="g592fc527-63a1-4b21-a368-335d672a8b83-dark_flowchart-v2-pointEnd-margin" class="marker flowchart-v2" viewBox="0 0 11.5 14" refX="11.5" refY="7" markerUnits="userSpaceOnUse" markerWidth="10.5" markerHeight="14" orient="auto"><path d="M 0 0 L 11.5 7 L 0 14 z" class="arrowMarkerPath" style="stroke-width: 0; stroke-dasharray: 1, 0;"></path></marker><marker id="g592fc527-63a1-4b21-a368-335d672a8b83-dark_flowchart-v2-pointStart-margin" class="marker flowchart-v2" viewBox="0 0 11.5 14" refX="1" refY="7" markerUnits="userSpaceOnUse" markerWidth="11.5" markerHeight="14" orient="auto"><polygon points="0,7 11.5,14 11.5,0" class="arrowMarkerPath" style="stroke-width: 0; stroke-dasharray: 1, 0;"></polygon></marker><marker id="g592fc527-63a1-4b21-a368-335d672a8b83-dark_flowchart-v2-circleEnd" class="marker flowchart-v2" viewBox="0 0 10 10" refX="11" refY="5" markerUnits="userSpaceOnUse" markerWidth="11" markerHeight="11" orient="auto"><circle cx="5" cy="5" r="5" class="arrowMarkerPath" style="stroke-width: 1; stroke-dasharray: 1, 0;"></circle></marker><marker id="g592fc527-63a1-4b21-a368-335d672a8b83-dark_flowchart-v2-circleStart" class="marker flowchart-v2" viewBox="0 0 10 10" refX="-1" refY="5" markerUnits="userSpaceOnUse" markerWidth="11" markerHeight="11" orient="auto"><circle cx="5" cy="5" r="5" class="arrowMarkerPath" style="stroke-width: 1; stroke-dasharray: 1, 0;"></circle></marker><marker id="g592fc527-63a1-4b21-a368-335d672a8b83-dark_flowchart-v2-circleEnd-margin" class="marker flowchart-v2" viewBox="0 0 10 10" refY="5" refX="12.25" markerUnits="userSpaceOnUse" markerWidth="14" markerHeight="14" orient="auto"><circle cx="5" cy="5" r="5" class="arrowMarkerPath" style="stroke-width: 0; stroke-dasharray: 1, 0;"></circle></marker><marker id="g592fc527-63a1-4b21-a368-335d672a8b83-dark_flowchart-v2-circleStart-margin" class="marker flowchart-v2" viewBox="0 0 10 10" refX="-2" refY="5" markerUnits="userSpaceOnUse" markerWidth="14" markerHeight="14" orient="auto"><circle cx="5" cy="5" r="5" class="arrowMarkerPath" style="stroke-width: 0; stroke-dasharray: 1, 0;"></circle></marker><marker id="g592fc527-63a1-4b21-a368-335d672a8b83-dark_flowchart-v2-crossEnd" class="marker cross flowchart-v2" viewBox="0 0 11 11" refX="12" refY="5.2" markerUnits="userSpaceOnUse" markerWidth="11" markerHeight="11" orient="auto"><path d="M 1,1 l 9,9 M 10,1 l -9,9" class="arrowMarkerPath" style="stroke-width: 2; stroke-dasharray: 1, 0;"></path></marker><marker id="g592fc527-63a1-4b21-a368-335d672a8b83-dark_flowchart-v2-crossStart" class="marker cross flowchart-v2" viewBox="0 0 11 11" refX="-1" refY="5.2" markerUnits="userSpaceOnUse" markerWidth="11" markerHeight="11" orient="auto"><path d="M 1,1 l 9,9 M 10,1 l -9,9" class="arrowMarkerPath" style="stroke-width: 2; stroke-dasharray: 1, 0;"></path></marker><marker id="g592fc527-63a1-4b21-a368-335d672a8b83-dark_flowchart-v2-crossEnd-margin" class="marker cross flowchart-v2" viewBox="0 0 15 15" refX="17.7" refY="7.5" markerUnits="userSpaceOnUse" markerWidth="12" markerHeight="12" orient="auto"><path d="M 1,1 L 14,14 M 1,14 L 14,1" class="arrowMarkerPath" style="stroke-width: 2.5;"></path></marker><marker id="g592fc527-63a1-4b21-a368-335d672a8b83-dark_flowchart-v2-crossStart-margin" class="marker cross flowchart-v2" viewBox="0 0 15 15" refX="-3.5" refY="7.5" markerUnits="userSpaceOnUse" markerWidth="12" markerHeight="12" orient="auto"><path d="M 1,1 L 14,14 M 1,14 L 14,1" class="arrowMarkerPath" style="stroke-width: 2.5; stroke-dasharray: 1, 0;"></path></marker><g class="root"><g class="clusters"></g><g class="edgePaths"><path d="M312.963,42.5L312.88,46.583C312.797,50.667,312.63,58.833,312.547,66.417C312.463,74,312.463,81,312.463,84.5L312.463,88" id="g592fc527-63a1-4b21-a368-335d672a8b83-dark-L_Start_Q1_0" class="edge-thickness-normal edge-pattern-solid edge-thickness-normal edge-pattern-solid flowchart-link" style=";" data-edge="true" data-et="edge" data-id="L_Start_Q1_0" data-points="W3sieCI6MzEyLjk2MzI3OTcyNDEyMTEsInkiOjQyLjV9LHsieCI6MzEyLjQ2MzI3OTcyNDEyMTEsInkiOjY3fSx7IngiOjMxMi40NjMyNzk3MjQxMjExLCJ5Ijo5MS45OTk5OTk5OTk5OTk5N31d" data-look="classic" marker-end="url(#g592fc527-63a1-4b21-a368-335d672a8b83-dark_flowchart-v2-pointEnd)"></path><path d="M273.561,219.807L262.564,232.374C251.566,244.941,229.57,270.075,218.573,295.644C207.575,321.212,207.575,347.215,207.575,360.216L207.575,373.217" id="g592fc527-63a1-4b21-a368-335d672a8b83-dark-L_Q1_Versioned_0" class="edge-thickness-normal edge-pattern-solid edge-thickness-normal edge-pattern-solid flowchart-link" style=";" data-edge="true" data-et="edge" data-id="L_Q1_Versioned_0" data-points="W3sieCI6MjczLjU2MTM3NDQ5MjU1MzA2LCJ5IjoyMTkuODA3NDYwNjEzMTU4NX0seyJ4IjoyMDcuNTc0OTk2OTQ4MjQyMiwieSI6Mjk1LjIwOTM2NTg0NDcyNjU2fSx7IngiOjIwNy41NzQ5OTY5NDgyNDIyLCJ5IjozNzcuMjE3MTgyMTU5NDIzOH1d" data-look="classic" marker-end="url(#g592fc527-63a1-4b21-a368-335d672a8b83-dark_flowchart-v2-pointEnd)"></path><path d="M351.365,219.807L362.363,232.374C373.361,244.941,395.356,270.075,406.354,288.059C417.352,306.043,417.352,316.876,417.352,322.293L417.352,327.709" id="g592fc527-63a1-4b21-a368-335d672a8b83-dark-L_Q1_Q2_0" class="edge-thickness-normal edge-pattern-solid edge-thickness-normal edge-pattern-solid flowchart-link" style=";" data-edge="true" data-et="edge" data-id="L_Q1_Q2_0" data-points="W3sieCI6MzUxLjM2NTE4NDk1NTY4OTEzLCJ5IjoyMTkuODA3NDYwNjEzMTU4NTN9LHsieCI6NDE3LjM1MTU2MjUsInkiOjI5NS4yMDkzNjU4NDQ3MjY1Nn0seyJ4Ijo0MTcuMzUxNTYyNSwieSI6MzMxLjcwOTM2NTg0NDcyNjU2fV0=" data-look="classic" marker-end="url(#g592fc527-63a1-4b21-a368-335d672a8b83-dark_flowchart-v2-pointEnd)"></path><path d="M365.405,437.378L336.897,452.12C308.39,466.861,251.375,496.343,222.867,519.333C194.359,542.322,194.359,558.82,194.359,567.068L194.359,575.317" id="g592fc527-63a1-4b21-a368-335d672a8b83-dark-L_Q2_Q3_0" class="edge-thickness-normal edge-pattern-solid edge-thickness-normal edge-pattern-solid flowchart-link" style=";" data-edge="true" data-et="edge" data-id="L_Q2_Q3_0" data-points="W3sieCI6MzY1LjQwNDk4NTQyODAwODg0LCJ5Ijo0MzcuMzc4NDE5ODc2MjUxMDN9LHsieCI6MTk0LjM1OTM3NSwieSI6NTI1LjgyNDk5Njk0ODI0MjJ9LHsieCI6MTk0LjM1OTM3NSwieSI6NTc5LjMxNzE4NDQ0ODI0MjJ9XQ==" data-look="classic" marker-end="url(#g592fc527-63a1-4b21-a368-335d672a8b83-dark_flowchart-v2-pointEnd)"></path><path d="M161.787,693.064L150.276,707.408C138.764,721.752,115.742,750.44,104.23,771.667C92.719,792.895,92.719,806.661,92.719,813.545L92.719,820.428" id="g592fc527-63a1-4b21-a368-335d672a8b83-dark-L_Q3_SWR_0" class="edge-thickness-normal edge-pattern-solid edge-thickness-normal edge-pattern-solid flowchart-link" style=";" data-edge="true" data-et="edge" data-id="L_Q3_SWR_0" data-points="W3sieCI6MTYxLjc4NzIzODU0MjQ2NjA0LCJ5Ijo2OTMuMDYzNzg4ODM1NDM0OH0seyJ4Ijo5Mi43MTg3NSwieSI6Nzc5LjEyODExMjc5Mjk2ODh9LHsieCI6OTIuNzE4NzUsInkiOjgyNC40MjgxMTIwMzAwMjkzfV0=" data-look="classic" marker-end="url(#g592fc527-63a1-4b21-a368-335d672a8b83-dark_flowchart-v2-pointEnd)"></path><path d="M226.932,693.064L238.443,707.408C249.954,721.752,272.977,750.44,284.489,770.201C296,789.961,296,800.795,296,806.211L296,811.628" id="g592fc527-63a1-4b21-a368-335d672a8b83-dark-L_Q3_PathPurge_0" class="edge-thickness-normal edge-pattern-solid edge-thickness-normal edge-pattern-solid flowchart-link" style=";" data-edge="true" data-et="edge" data-id="L_Q3_PathPurge_0" data-points="W3sieCI6MjI2LjkzMTUxMTQ1NzUzMzk2LCJ5Ijo2OTMuMDYzNzg4ODM1NDM0OH0seyJ4IjoyOTYsInkiOjc3OS4xMjgxMTI3OTI5Njg4fSx7IngiOjI5NiwieSI6ODE1LjYyODExMjc5Mjk2ODh9XQ==" data-look="classic" marker-end="url(#g592fc527-63a1-4b21-a368-335d672a8b83-dark_flowchart-v2-pointEnd)"></path><path d="M467.793,438.883L493.561,453.373C519.328,467.864,570.863,496.844,596.631,516.751C622.398,536.658,622.398,547.492,622.398,552.908L622.398,558.325" id="g592fc527-63a1-4b21-a368-335d672a8b83-dark-L_Q2_Q4_0" class="edge-thickness-normal edge-pattern-solid edge-thickness-normal edge-pattern-solid flowchart-link" style=";" data-edge="true" data-et="edge" data-id="L_Q2_Q4_0" data-points="W3sieCI6NDY3Ljc5MzQ1MzI1NzQ5OTYsInkiOjQzOC44ODMxMDYxOTA3NDI2NH0seyJ4Ijo2MjIuMzk4NDM3NSwieSI6NTI1LjgyNDk5Njk0ODI0MjJ9LHsieCI6NjIyLjM5ODQzNzUwMDAwMDEsInkiOjU2Mi4zMjQ5OTY5NDgyNDIxfV0=" data-look="classic" marker-end="url(#g592fc527-63a1-4b21-a368-335d672a8b83-dark_flowchart-v2-pointEnd)"></path><path d="M578.616,698.846L565.982,712.226C553.348,725.607,528.08,752.367,515.446,772.631C502.813,792.895,502.813,806.661,502.813,813.545L502.813,820.428" id="g592fc527-63a1-4b21-a368-335d672a8b83-dark-L_Q4_TagPurge_0" class="edge-thickness-normal edge-pattern-solid edge-thickness-normal edge-pattern-solid flowchart-link" style=";" data-edge="true" data-et="edge" data-id="L_Q4_TagPurge_0" data-points="W3sieCI6NTc4LjYxNjA3NzkwMTQzNzIsInkiOjY5OC44NDU3NTMxOTQ0MDZ9LHsieCI6NTAyLjgxMjUsInkiOjc3OS4xMjgxMTI3OTI5Njg4fSx7IngiOjUwMi44MTI1LCJ5Ijo4MjQuNDI4MTEyMDMwMDI5M31d" data-look="classic" marker-end="url(#g592fc527-63a1-4b21-a368-335d672a8b83-dark_flowchart-v2-pointEnd)"></path><path d="M666.181,698.846L678.815,712.226C691.449,725.607,716.717,752.367,729.35,771.164C741.984,789.961,741.984,800.795,741.984,806.211L741.984,811.628" id="g592fc527-63a1-4b21-a368-335d672a8b83-dark-L_Q4_TagWorkaround_0" class="edge-thickness-normal edge-pattern-solid edge-thickness-normal edge-pattern-solid flowchart-link" style=";" data-edge="true" data-et="edge" data-id="L_Q4_TagWorkaround_0" data-points="W3sieCI6NjY2LjE4MDc5NzA5ODU2MjgsInkiOjY5OC44NDU3NTMxOTQ0MDZ9LHsieCI6NzQxLjk4NDM3NSwieSI6Nzc5LjEyODExMjc5Mjk2ODh9LHsieCI6NzQxLjk4NDM3NSwieSI6ODE1LjYyODExMjc5Mjk2ODh9XQ==" data-look="classic" marker-end="url(#g592fc527-63a1-4b21-a368-335d672a8b83-dark_flowchart-v2-pointEnd)"></path></g><g class="edgeLabels"><g class="edgeLabel"><g class="label" data-id="L_Start_Q1_0" transform="translate(0, 0)"><text y="-10.1" text-anchor="middle"><tspan class="text-outer-tspan row" x="0" y="-0.1em" dy="1.1em" text-anchor="middle"></tspan></text></g></g><g><rect class="background" style="stroke: none"></rect></g><g class="edgeLabel" transform="translate(207.5749969482422, 295.20936584472656)"><g class="label" data-id="L_Q1_Versioned_0" transform="translate(0, -10.5)"><g><rect class="background" style="" x="-13.328125" y="-1" width="26.65625" height="23"></rect><text y="-10.1" text-anchor="middle" style=""><tspan class="text-outer-tspan row" x="0" y="-0.1em" dy="1.1em" text-anchor="middle"><tspan font-style="normal" class="text-inner-tspan" font-weight="normal">Yes</tspan></tspan></text></g></g></g><g class="edgeLabel" transform="translate(417.3515625, 295.20936584472656)"><g class="label" data-id="L_Q1_Q2_0" transform="translate(0, -10.5)"><g><rect class="background" style="" x="-11.3984375" y="-1" width="22.796875" height="23"></rect><text y="-10.1" text-anchor="middle" style=""><tspan class="text-outer-tspan row" x="0" y="-0.1em" dy="1.1em" text-anchor="middle"><tspan font-style="normal" class="text-inner-tspan" font-weight="normal">No</tspan></tspan></text></g></g></g><g class="edgeLabel" transform="translate(194.359375, 525.8249969482422)"><g class="label" data-id="L_Q2_Q3_0" transform="translate(0, -10.5)"><g><rect class="background" style="" x="-11.3984375" y="-1" width="22.796875" height="23"></rect><text y="-10.1" text-anchor="middle" style=""><tspan class="text-outer-tspan row" x="0" y="-0.1em" dy="1.1em" text-anchor="middle"><tspan font-style="normal" class="text-inner-tspan" font-weight="normal">No</tspan></tspan></text></g></g></g><g class="edgeLabel" transform="translate(92.71875, 779.1281127929688)"><g class="label" data-id="L_Q3_SWR_0" transform="translate(0, -10.5)"><g><rect class="background" style="" x="-13.328125" y="-1" width="26.65625" height="23"></rect><text y="-10.1" text-anchor="middle" style=""><tspan class="text-outer-tspan row" x="0" y="-0.1em" dy="1.1em" text-anchor="middle"><tspan font-style="normal" class="text-inner-tspan" font-weight="normal">Yes</tspan></tspan></text></g></g></g><g class="edgeLabel" transform="translate(296, 779.1281127929688)"><g class="label" data-id="L_Q3_PathPurge_0" transform="translate(0, -10.5)"><g><rect class="background" style="" x="-11.3984375" y="-1" width="22.796875" height="23"></rect><text y="-10.1" text-anchor="middle" style=""><tspan class="text-outer-tspan row" x="0" y="-0.1em" dy="1.1em" text-anchor="middle"><tspan font-style="normal" class="text-inner-tspan" font-weight="normal">No</tspan></tspan></text></g></g></g><g class="edgeLabel" transform="translate(622.3984375, 525.8249969482422)"><g class="label" data-id="L_Q2_Q4_0" transform="translate(0, -10.5)"><g><rect class="background" style="" x="-13.328125" y="-1" width="26.65625" height="23"></rect><text y="-10.1" text-anchor="middle" style=""><tspan class="text-outer-tspan row" x="0" y="-0.1em" dy="1.1em" text-anchor="middle"><tspan font-style="normal" class="text-inner-tspan" font-weight="normal">Yes</tspan></tspan></text></g></g></g><g class="edgeLabel" transform="translate(502.8125, 779.1281127929688)"><g class="label" data-id="L_Q4_TagPurge_0" transform="translate(0, -10.5)"><g><rect class="background" style="" x="-13.328125" y="-1" width="26.65625" height="23"></rect><text y="-10.1" text-anchor="middle" style=""><tspan class="text-outer-tspan row" x="0" y="-0.1em" dy="1.1em" text-anchor="middle"><tspan font-style="normal" class="text-inner-tspan" font-weight="normal">Yes</tspan></tspan></text></g></g></g><g class="edgeLabel" transform="translate(741.984375, 779.1281127929688)"><g class="label" data-id="L_Q4_TagWorkaround_0" transform="translate(0, -10.5)"><g><rect class="background" style="" x="-11.3984375" y="-1" width="22.796875" height="23"></rect><text y="-10.1" text-anchor="middle" style=""><tspan class="text-outer-tspan row" x="0" y="-0.1em" dy="1.1em" text-anchor="middle"><tspan font-style="normal" class="text-inner-tspan" font-weight="normal">No</tspan></tspan></text></g></g></g></g><g class="nodes"><g class="node default" id="g592fc527-63a1-4b21-a368-335d672a8b83-dark-flowchart-Start-0" data-look="classic" transform="translate(312.4632797241211, 25)"><g class="basic label-container outer-path"><path d="M-60.9375 -17 C-13.941898248335761 -17, 33.05370350332848 -17, 60.9375 -17 C60.9375 -17, 60.9375 -17, 60.9375 -17 C61.226406017882695 -16.990735346327952, 61.51531203576538 -16.981470692655904, 62.02669373967212 -16.965071676755716 C62.297606529061994 -16.938937045783575, 62.56851931845187 -16.91280241481143, 63.1114117486366 -16.860430234995185 C63.461304975985854 -16.80386221145986, 63.8111982033351 -16.74729418792454, 64.18719668792333 -16.686505668848113 C64.60315636842427 -16.591565586164364, 65.0191160489252 -16.49662550348061, 65.24962792646163 -16.4440126716635 C65.61857802679357 -16.334510218543574, 65.98752812712551 -16.22500776542365, 66.29433970640156 -16.133947699181366 C66.5899037183589 -16.02517741061729, 66.88546773031625 -15.916407122053208, 67.31703908294936 -15.757584874882369 C67.68050639692763 -15.596688676858982, 68.04397371090589 -15.435792478835594, 68.31352356499849 -15.316470754341125 C68.50968885462048 -15.214131448395198, 68.70585414424247 -15.11179214244927, 69.27969838406693 -14.812417970097622 C69.61663762358388 -14.608163423027689, 69.95357686310084 -14.403908875957757, 70.21159332057933 -14.247497783161291 C70.56119418689838 -14.003631352794711, 70.91079505321743 -13.75976492242813, 71.10537901835067 -13.624031571755262 C71.3337045868253 -13.441948006895297, 71.56203015529994 -13.25986444203533, 71.9573827202324 -12.944581292275288 C72.27944641314174 -12.652091567713388, 72.60151010605108 -12.35960184315149, 72.76410336025927 -12.21193895166137 C73.02476652225529 -11.94278283605688, 73.28542968425131 -11.673626720452388, 73.52222595028036 -11.42911513444239 C73.73404169460066 -11.180304308506473, 73.94585743892097 -10.931493482570557, 74.22863520195651 -10.59932663159847 C74.39705966450936 -10.373653195561845, 74.56548412706219 -10.14797975952522, 74.88042832814824 -9.725983222076888 C75.07541307981255 -9.426434282783507, 75.27039783147684 -9.126885343490125, 75.47492697109088 -8.812673661278927 C75.62749085627841 -8.54178103435989, 75.78005474146595 -8.270888407440852, 76.009688208341 -7.863150934094199 C76.15288736245621 -7.565794826602897, 76.29608651657144 -7.268438719111593, 76.48251459126881 -6.881316833080699 C76.59553197138419 -6.602161719153322, 76.70854935149956 -6.323006605225946, 76.89146317484592 -5.871205925162238 C76.96320621949818 -5.655127305371502, 77.03494926415043 -5.439048685580764, 77.23485350162323 -4.836968972727556 C77.325336179193 -4.491919307713533, 77.41581885676275 -4.14686964269951, 77.511274507091 -3.7828558772573464 C77.57901541729545 -3.4350206204039258, 77.6467563274999 -3.0871853635505055, 77.71959031804565 -2.713198215567453 C77.7656458616578 -2.356000514007384, 77.81170140526994 -1.9988028124473156, 77.85894492013637 -1.632391440430593 C77.88149766963083 -1.2811141628025267, 77.9040504191253 -0.9298368851744602, 77.9287656754117 -0.5448768187181379 C77.9287656754117 -0.21428663598564845, 77.9287656754117 0.11630354674684096, 77.9287656754117 0.5448768187181336 C77.90860267146884 0.8589318804118624, 77.888439667526 1.1729869421055912, 77.85894492013637 1.6323914404305815 C77.80392638056848 2.059104368679533, 77.74890784100062 2.4858172969284844, 77.71959031804565 2.7131982155674415 C77.67216954890348 2.9566938427293725, 77.62474877976132 3.2001894698913036, 77.511274507091 3.782855877257343 C77.40836482073215 4.175295112683844, 77.3054551343733 4.567734348110345, 77.23485350162323 4.836968972727545 C77.11055903174734 5.211324112359326, 76.98626456187147 5.585679251991106, 76.89146317484592 5.871205925162227 C76.7991451957142 6.099233118464298, 76.70682721658247 6.327260311766368, 76.48251459126881 6.881316833080694 C76.30810982737128 7.243472056978067, 76.13370506347374 7.6056272808754395, 76.009688208341 7.863150934094196 C75.86849658021092 8.113850967041852, 75.72730495208083 8.36455099998951, 75.47492697109088 8.812673661278923 C75.27778925321553 9.115530134824857, 75.08065153534018 9.41838660837079, 74.88042832814826 9.725983222076879 C74.74333615078307 9.909674250391943, 74.60624397341788 10.093365278707006, 74.22863520195651 10.599326631598467 C73.95615094112269 10.919402149167546, 73.68366668028887 11.239477666736622, 73.52222595028037 11.42911513444238 C73.36386502946992 11.592635786852572, 73.20550410865945 11.756156439262764, 72.76410336025927 12.211938951661365 C72.59779624052113 12.362974677562274, 72.43148912078301 12.514010403463182, 71.95738272023242 12.944581292275275 C71.73864732344907 13.119016950416631, 71.51991192666571 13.293452608557985, 71.10537901835067 13.62403157175526 C70.80537777105293 13.83329945502548, 70.50537652375519 14.0425673382957, 70.21159332057934 14.247497783161286 C69.9701927640325 14.393836219167119, 69.72879220748565 14.54017465517295, 69.27969838406695 14.81241797009762 C68.95578208768259 14.981404894443044, 68.63186579129825 15.150391818788467, 68.31352356499849 15.316470754341124 C67.9594716656656 15.473199027599359, 67.6054197663327 15.629927300857593, 67.31703908294936 15.757584874882367 C66.95957996508552 15.889133134572123, 66.60212084722168 16.02068139426188, 66.29433970640156 16.133947699181363 C65.93974482838426 16.2391895976704, 65.58514995036697 16.344431496159437, 65.24962792646164 16.444012671663497 C64.91639737373744 16.52007037079022, 64.58316682101322 16.596128069916944, 64.18719668792333 16.68650566884811 C63.845850617561595 16.741691854325882, 63.504504547199865 16.79687803980366, 63.11141174863661 16.86043023499518 C62.887976720581555 16.881984743431715, 62.6645416925265 16.903539251868253, 62.02669373967212 16.965071676755716 C61.652057017091124 16.977085547262746, 61.27742029451013 16.989099417769776, 60.9375 17 C60.9375 17, 60.9375 17, 60.9375 17 C13.961888722151663 17, -33.013722555696674 17, -60.9375 17 C-61.26382628508272 16.989535351192977, -61.59015257016544 16.979070702385958, -62.02669373967211 16.965071676755716 C-62.31553929573432 16.93720709335, -62.60438485179653 16.909342509944285, -63.111411748636606 16.86043023499518 C-63.54111786226591 16.790958682964277, -63.970823975895215 16.721487130933372, -64.18719668792333 16.68650566884811 C-64.45175176401825 16.626122699112653, -64.71630684011318 16.565739729377196, -65.24962792646161 16.4440126716635 C-65.55479105884585 16.35344185580583, -65.85995419123007 16.262871039948163, -66.29433970640154 16.13394769918137 C-66.65082064506622 16.002759418479098, -67.00730158373088 15.871571137776828, -67.31703908294936 15.757584874882369 C-67.60036985781224 15.63216274555939, -67.88370063267513 15.506740616236408, -68.31352356499849 15.316470754341127 C-68.61962789762303 15.156776320080082, -68.92573223024758 14.99708188581904, -69.27969838406693 14.812417970097624 C-69.49373677029531 14.6826666425368, -69.70777515652371 14.552915314975976, -70.21159332057931 14.247497783161299 C-70.53977598780392 14.018571761304106, -70.86795865502853 13.789645739446913, -71.10537901835067 13.624031571755264 C-71.38803617144141 13.39862001398814, -71.67069332453215 13.173208456221017, -71.9573827202324 12.94458129227529 C-72.24111410499209 12.686903955757598, -72.52484548975178 12.429226619239909, -72.76410336025926 12.211938951661377 C-73.039358836111 11.9277150739496, -73.31461431196274 11.643491196237822, -73.52222595028036 11.429115134442386 C-73.7828722123137 11.122945203865566, -74.04351847434704 10.816775273288746, -74.22863520195651 10.599326631598473 C-74.43512165924159 10.322653590139703, -74.64160811652667 10.045980548680934, -74.88042832814824 9.72598322207689 C-75.0899073347927 9.404167214881555, -75.29938634143717 9.08235120768622, -75.47492697109088 8.812673661278936 C-75.60782602404184 8.576697935276115, -75.7407250769928 8.340722209273295, -76.009688208341 7.863150934094201 C-76.14996856196596 7.5718557782732505, -76.29024891559091 7.2805606224523, -76.48251459126881 6.881316833080701 C-76.6007725146165 6.589217476050515, -76.71903043796418 6.297118119020328, -76.89146317484592 5.87120592516224 C-77.00852403813158 5.518637256061535, -77.12558490141724 5.1660685869608285, -77.23485350162323 4.8369689727275516 C-77.33561743684851 4.452712416347784, -77.4363813720738 4.068455859968016, -77.511274507091 3.782855877257349 C-77.58994717831054 3.3788883380199355, -77.66861984953009 2.9749207987825224, -77.71959031804565 2.713198215567455 C-77.76058496754179 2.3952518093845496, -77.80157961703793 2.0773054032016436, -77.85894492013637 1.6323914404306026 C-77.88041342743574 1.2980021101757309, -77.90188193473512 0.963612779920859, -77.9287656754117 0.54487681871814 C-77.9287656754117 0.26537383745281046, -77.9287656754117 -0.014129143812519063, -77.9287656754117 -0.5448768187181317 C-77.91270092357415 -0.7950982958222235, -77.8966361717366 -1.045319772926315, -77.85894492013637 -1.6323914404305793 C-77.81856508559089 -1.9455694632650538, -77.77818525104541 -2.2587474860995282, -77.71959031804565 -2.713198215567447 C-77.67146441911557 -2.9603145351611078, -77.62333852018547 -3.2074308547547687, -77.511274507091 -3.782855877257341 C-77.4020364122039 -4.199428077151699, -77.29279831731678 -4.616000277046059, -77.23485350162323 -4.836968972727544 C-77.10983814055638 -5.21349532176813, -76.98482277948952 -5.590021670808717, -76.89146317484594 -5.871205925162218 C-76.78569078122868 -6.132465782366954, -76.67991838761142 -6.393725639571691, -76.48251459126881 -6.881316833080692 C-76.3742493449541 -7.1061319335583715, -76.26598409863938 -7.33094703403605, -76.009688208341 -7.863150934094194 C-75.87800330773135 -8.096970809668768, -75.74631840712169 -8.330790685243343, -75.47492697109088 -8.812673661278929 C-75.28823307179358 -9.09948562493101, -75.10153917249629 -9.38629758858309, -74.88042832814826 -9.725983222076884 C-74.68287173687989 -9.990691056600777, -74.48531514561152 -10.25539889112467, -74.22863520195651 -10.599326631598467 C-73.9935304505564 -10.87549405043237, -73.75842569915629 -11.15166146926627, -73.52222595028037 -11.42911513444238 C-73.25938145602957 -11.700523654690633, -72.99653696177879 -11.971932174938884, -72.76410336025927 -12.21193895166136 C-72.48045107202601 -12.469544454806526, -72.19679878379274 -12.727149957951692, -71.95738272023242 -12.944581292275274 C-71.7699897333331 -13.094022212590659, -71.58259674643381 -13.243463132906045, -71.10537901835067 -13.624031571755259 C-70.92393113876919 -13.750601757799195, -70.7424832591877 -13.877171943843132, -70.21159332057934 -14.247497783161284 C-69.91120226053182 -14.429596609055901, -69.61081120048432 -14.611695434950516, -69.27969838406695 -14.812417970097618 C-69.05116832672998 -14.931641954629823, -68.82263826939302 -15.050865939162028, -68.31352356499849 -15.316470754341124 C-68.02763276015317 -15.443026132996739, -67.74174195530786 -15.569581511652352, -67.31703908294936 -15.757584874882365 C-66.9538956045189 -15.891225031806291, -66.59075212608843 -16.024865188730217, -66.29433970640156 -16.133947699181363 C-66.04721979742517 -16.207291591006683, -65.80009988844878 -16.280635482832004, -65.24962792646164 -16.444012671663494 C-64.98432084615425 -16.50456728145316, -64.71901376584685 -16.565121891242825, -64.18719668792333 -16.68650566884811 C-63.78794945226699 -16.751052865700473, -63.38870221661066 -16.815600062552832, -63.11141174863661 -16.86043023499518 C-62.856291493799546 -16.885041379152316, -62.60117123896248 -16.90965252330945, -62.02669373967212 -16.965071676755716 C-61.72931839971574 -16.974607925102134, -61.431943059759355 -16.98414417344855, -60.93750000000001 -17 C-60.93750000000001 -17, -60.9375 -17, -60.9375 -17" stroke="none" stroke-width="0" fill="#2d2d2d" style=""></path><path d="M-60.9375 -17 C-13.158325626937746 -17, 34.62084874612451 -17, 60.9375 -17 M-60.9375 -17 C-32.96113922918818 -17, -4.984778458376361 -17, 60.9375 -17 M60.9375 -17 C60.9375 -17, 60.9375 -17, 60.9375 -17 M60.9375 -17 C60.9375 -17, 60.9375 -17, 60.9375 -17 M60.9375 -17 C61.33868033938181 -16.987134927366185, 61.73986067876363 -16.97426985473237, 62.02669373967212 -16.965071676755716 M60.9375 -17 C61.324659134194015 -16.987584560125935, 61.71181826838803 -16.975169120251874, 62.02669373967212 -16.965071676755716 M62.02669373967212 -16.965071676755716 C62.38760508827277 -16.930254993015613, 62.74851643687342 -16.895438309275512, 63.1114117486366 -16.860430234995185 M62.02669373967212 -16.965071676755716 C62.41429250745006 -16.9276804897839, 62.801891275228 -16.89028930281208, 63.1114117486366 -16.860430234995185 M63.1114117486366 -16.860430234995185 C63.46595490580411 -16.803110446867592, 63.82049806297162 -16.745790658739995, 64.18719668792333 -16.686505668848113 M63.1114117486366 -16.860430234995185 C63.366952295230604 -16.819116421168403, 63.62249284182461 -16.777802607341624, 64.18719668792333 -16.686505668848113 M64.18719668792333 -16.686505668848113 C64.46064287047237 -16.6240933620844, 64.7340890530214 -16.56168105532068, 65.24962792646163 -16.4440126716635 M64.18719668792333 -16.686505668848113 C64.49317873385775 -16.616667263583036, 64.79916077979216 -16.54682885831796, 65.24962792646163 -16.4440126716635 M65.24962792646163 -16.4440126716635 C65.5829421809506 -16.345086750533397, 65.91625643543958 -16.246160829403294, 66.29433970640156 -16.133947699181366 M65.24962792646163 -16.4440126716635 C65.48124431249786 -16.375270144067166, 65.71286069853409 -16.30652761647083, 66.29433970640156 -16.133947699181366 M66.29433970640156 -16.133947699181366 C66.53290301786112 -16.04615419530917, 66.77146632932067 -15.958360691436978, 67.31703908294936 -15.757584874882369 M66.29433970640156 -16.133947699181366 C66.60720689265885 -16.018809682526115, 66.92007407891614 -15.903671665870865, 67.31703908294936 -15.757584874882369 M67.31703908294936 -15.757584874882369 C67.54511686072502 -15.656621608347981, 67.77319463850067 -15.555658341813592, 68.31352356499849 -15.316470754341125 M67.31703908294936 -15.757584874882369 C67.66366367964696 -15.604144448177676, 68.01028827634455 -15.450704021472983, 68.31352356499849 -15.316470754341125 M68.31352356499849 -15.316470754341125 C68.50973930410603 -15.2141051289309, 68.70595504321356 -15.111739503520674, 69.27969838406693 -14.812417970097622 M68.31352356499849 -15.316470754341125 C68.55871913243375 -15.188552383865405, 68.80391469986901 -15.060634013389684, 69.27969838406693 -14.812417970097622 M69.27969838406693 -14.812417970097622 C69.49010948315095 -14.68486552532003, 69.70052058223494 -14.557313080542436, 70.21159332057933 -14.247497783161291 M69.27969838406693 -14.812417970097622 C69.58000694867819 -14.630369153421258, 69.88031551328946 -14.448320336744896, 70.21159332057933 -14.247497783161291 M70.21159332057933 -14.247497783161291 C70.46120041380131 -14.073382680246556, 70.71080750702328 -13.89926757733182, 71.10537901835067 -13.624031571755262 M70.21159332057933 -14.247497783161291 C70.51430408076067 -14.036339860996392, 70.81701484094202 -13.825181938831495, 71.10537901835067 -13.624031571755262 M71.10537901835067 -13.624031571755262 C71.35242975114 -13.427015186651886, 71.59948048392931 -13.22999880154851, 71.9573827202324 -12.944581292275288 M71.10537901835067 -13.624031571755262 C71.3006581813381 -13.468301635869567, 71.49593734432551 -13.312571699983874, 71.9573827202324 -12.944581292275288 M71.9573827202324 -12.944581292275288 C72.18223083593057 -12.740380182753357, 72.40707895162872 -12.536179073231425, 72.76410336025927 -12.21193895166137 M71.9573827202324 -12.944581292275288 C72.26586292265894 -12.664427734370403, 72.57434312508548 -12.384274176465516, 72.76410336025927 -12.21193895166137 M72.76410336025927 -12.21193895166137 C72.95134662342458 -12.018594909485385, 73.13858988658988 -11.825250867309398, 73.52222595028036 -11.42911513444239 M72.76410336025927 -12.21193895166137 C72.94512199986767 -12.025022344358998, 73.12614063947606 -11.838105737056624, 73.52222595028036 -11.42911513444239 M73.52222595028036 -11.42911513444239 C73.7709515576441 -11.136947883144954, 74.01967716500783 -10.84478063184752, 74.22863520195651 -10.59932663159847 M73.52222595028036 -11.42911513444239 C73.7938805600796 -11.110014172187007, 74.06553516987884 -10.790913209931626, 74.22863520195651 -10.59932663159847 M74.22863520195651 -10.59932663159847 C74.45681048430696 -10.29359254044472, 74.6849857666574 -9.987858449290968, 74.88042832814824 -9.725983222076888 M74.22863520195651 -10.59932663159847 C74.47841355027403 -10.264646400128642, 74.72819189859155 -9.929966168658815, 74.88042832814824 -9.725983222076888 M74.88042832814824 -9.725983222076888 C75.10569975982797 -9.379905809167484, 75.3309711915077 -9.03382839625808, 75.47492697109088 -8.812673661278927 M74.88042832814824 -9.725983222076888 C75.01015293528391 -9.526691389581993, 75.13987754241958 -9.327399557087098, 75.47492697109088 -8.812673661278927 M75.47492697109088 -8.812673661278927 C75.64972631367193 -8.502299728173464, 75.824525656253 -8.191925795068002, 76.009688208341 -7.863150934094199 M75.47492697109088 -8.812673661278927 C75.6754309993994 -8.456658455782685, 75.87593502770791 -8.100643250286444, 76.009688208341 -7.863150934094199 M76.009688208341 -7.863150934094199 C76.16580120317262 -7.538978960043372, 76.32191419800422 -7.214806985992545, 76.48251459126881 -6.881316833080699 M76.009688208341 -7.863150934094199 C76.19282733856895 -7.482858611626218, 76.3759664687969 -7.102566289158237, 76.48251459126881 -6.881316833080699 M76.48251459126881 -6.881316833080699 C76.62388557041137 -6.532127781376636, 76.76525654955392 -6.182938729672575, 76.89146317484592 -5.871205925162238 M76.48251459126881 -6.881316833080699 C76.56740913785285 -6.671625661693725, 76.65230368443689 -6.461934490306752, 76.89146317484592 -5.871205925162238 M76.89146317484592 -5.871205925162238 C76.96081466749868 -5.662330278951903, 77.03016616015145 -5.453454632741568, 77.23485350162323 -4.836968972727556 M76.89146317484592 -5.871205925162238 C77.0109881306132 -5.511215802106717, 77.13051308638047 -5.151225679051197, 77.23485350162323 -4.836968972727556 M77.23485350162323 -4.836968972727556 C77.33375918453365 -4.459798737795991, 77.43266486744407 -4.082628502864426, 77.511274507091 -3.7828558772573464 M77.23485350162323 -4.836968972727556 C77.29881463806439 -4.593057438545543, 77.36277577450555 -4.34914590436353, 77.511274507091 -3.7828558772573464 M77.511274507091 -3.7828558772573464 C77.58060871438661 -3.426839376584305, 77.64994292168221 -3.070822875911263, 77.71959031804565 -2.713198215567453 M77.511274507091 -3.7828558772573464 C77.58873448253402 -3.3851152745290003, 77.66619445797706 -2.9873746718006537, 77.71959031804565 -2.713198215567453 M77.71959031804565 -2.713198215567453 C77.7741457314038 -2.290077202746495, 77.82870114476196 -1.8669561899255371, 77.85894492013637 -1.632391440430593 M77.71959031804565 -2.713198215567453 C77.76745371008532 -2.3419791986035627, 77.815317102125 -1.970760181639672, 77.85894492013637 -1.632391440430593 M77.85894492013637 -1.632391440430593 C77.88590973647183 -1.2123926603976813, 77.91287455280731 -0.7923938803647694, 77.9287656754117 -0.5448768187181379 M77.85894492013637 -1.632391440430593 C77.8851791034683 -1.2237728591841421, 77.91141328680023 -0.8151542779376911, 77.9287656754117 -0.5448768187181379 M77.9287656754117 -0.5448768187181379 C77.9287656754117 -0.191924933757588, 77.9287656754117 0.16102695120296184, 77.9287656754117 0.5448768187181336 M77.9287656754117 -0.5448768187181379 C77.9287656754117 -0.1716780270453212, 77.9287656754117 0.20152076462749546, 77.9287656754117 0.5448768187181336 M77.9287656754117 0.5448768187181336 C77.91393221807068 0.7759198901557127, 77.89909876072966 1.0069629615932918, 77.85894492013637 1.6323914404305815 M77.9287656754117 0.5448768187181336 C77.90418436656235 0.9277505457221158, 77.879603057713 1.310624272726098, 77.85894492013637 1.6323914404305815 M77.85894492013637 1.6323914404305815 C77.81613395420236 1.9644248382332754, 77.77332298826836 2.296458236035969, 77.71959031804565 2.7131982155674415 M77.85894492013637 1.6323914404305815 C77.81556556467238 1.968833155186608, 77.7721862092084 2.3052748699426346, 77.71959031804565 2.7131982155674415 M77.71959031804565 2.7131982155674415 C77.64410079576403 3.10082095776733, 77.56861127348243 3.4884436999672186, 77.511274507091 3.782855877257343 M77.71959031804565 2.7131982155674415 C77.65280563434911 3.0561234514012545, 77.58602095065258 3.3990486872350676, 77.511274507091 3.782855877257343 M77.511274507091 3.782855877257343 C77.43619838048684 4.0691536861980975, 77.36112225388268 4.355451495138853, 77.23485350162323 4.836968972727545 M77.511274507091 3.782855877257343 C77.44025004347883 4.053702939207845, 77.36922557986664 4.324550001158347, 77.23485350162323 4.836968972727545 M77.23485350162323 4.836968972727545 C77.13853609699063 5.127061649386528, 77.04221869235805 5.417154326045511, 76.89146317484592 5.871205925162227 M77.23485350162323 4.836968972727545 C77.12903308257931 5.155683214693707, 77.0232126635354 5.474397456659869, 76.89146317484592 5.871205925162227 M76.89146317484592 5.871205925162227 C76.79463198755951 6.110380829863301, 76.69780080027311 6.349555734564374, 76.48251459126881 6.881316833080694 M76.89146317484592 5.871205925162227 C76.78794361856045 6.126901230601814, 76.68442406227497 6.382596536041402, 76.48251459126881 6.881316833080694 M76.48251459126881 6.881316833080694 C76.33257589416891 7.192667745782826, 76.182637197069 7.5040186584849575, 76.009688208341 7.863150934094196 M76.48251459126881 6.881316833080694 C76.3750897179434 7.104386881065003, 76.26766484461797 7.327456929049312, 76.009688208341 7.863150934094196 M76.009688208341 7.863150934094196 C75.86528036322682 8.11956168597441, 75.72087251811261 8.375972437854626, 75.47492697109088 8.812673661278923 M76.009688208341 7.863150934094196 C75.83560931687633 8.172245633288938, 75.66153042541166 8.481340332483681, 75.47492697109088 8.812673661278923 M75.47492697109088 8.812673661278923 C75.29540141719674 9.088473121421499, 75.11587586330259 9.364272581564077, 74.88042832814826 9.725983222076879 M75.47492697109088 8.812673661278923 C75.29676098041807 9.08638446721969, 75.11859498974526 9.360095273160454, 74.88042832814826 9.725983222076879 M74.88042832814826 9.725983222076879 C74.67982934857801 9.994767579758014, 74.47923036900777 10.263551937439148, 74.22863520195651 10.599326631598467 M74.88042832814826 9.725983222076879 C74.69997632809131 9.967772462637791, 74.51952432803435 10.209561703198704, 74.22863520195651 10.599326631598467 M74.22863520195651 10.599326631598467 C73.95056231348342 10.925966869194559, 73.67248942501033 11.252607106790652, 73.52222595028037 11.42911513444238 M74.22863520195651 10.599326631598467 C74.07966613872915 10.774314169845145, 73.93069707550181 10.94930170809182, 73.52222595028037 11.42911513444238 M73.52222595028037 11.42911513444238 C73.28392881522605 11.675176490944605, 73.04563168017172 11.921237847446829, 72.76410336025927 12.211938951661365 M73.52222595028037 11.42911513444238 C73.36544471966882 11.591004627027228, 73.20866348905726 11.752894119612076, 72.76410336025927 12.211938951661365 M72.76410336025927 12.211938951661365 C72.54932353646299 12.406996304870416, 72.33454371266672 12.60205365807947, 71.95738272023242 12.944581292275275 M72.76410336025927 12.211938951661365 C72.44182301354381 12.504625435477648, 72.11954266682834 12.797311919293929, 71.95738272023242 12.944581292275275 M71.95738272023242 12.944581292275275 C71.69657523308317 13.152568322898087, 71.43576774593393 13.3605553535209, 71.10537901835067 13.62403157175526 M71.95738272023242 12.944581292275275 C71.6925183911798 13.155803546358927, 71.42765406212719 13.36702580044258, 71.10537901835067 13.62403157175526 M71.10537901835067 13.62403157175526 C70.84977786407082 13.802327872185254, 70.59417670979096 13.980624172615247, 70.21159332057934 14.247497783161286 M71.10537901835067 13.62403157175526 C70.85188126826182 13.800860628476515, 70.59838351817295 13.97768968519777, 70.21159332057934 14.247497783161286 M70.21159332057934 14.247497783161286 C69.91504200685034 14.427268932272762, 69.61849069312134 14.607040081384238, 69.27969838406695 14.81241797009762 M70.21159332057934 14.247497783161286 C69.91298006448842 14.428518893849878, 69.6143668083975 14.60954000453847, 69.27969838406695 14.81241797009762 M69.27969838406695 14.81241797009762 C68.92933733667851 14.9952011041032, 68.5789762892901 15.177984238108781, 68.31352356499849 15.316470754341124 M69.27969838406695 14.81241797009762 C69.05437378330915 14.929969669985669, 68.82904918255134 15.047521369873715, 68.31352356499849 15.316470754341124 M68.31352356499849 15.316470754341124 C68.0285461336645 15.442621809637531, 67.74356870233053 15.568772864933939, 67.31703908294936 15.757584874882367 M68.31352356499849 15.316470754341124 C68.10972652008242 15.406685660700926, 67.90592947516635 15.49690056706073, 67.31703908294936 15.757584874882367 M67.31703908294936 15.757584874882367 C66.98786110925994 15.878725412087906, 66.65868313557053 15.999865949293445, 66.29433970640156 16.133947699181363 M67.31703908294936 15.757584874882367 C67.0374504169993 15.860476088441283, 66.75786175104926 15.963367302000197, 66.29433970640156 16.133947699181363 M66.29433970640156 16.133947699181363 C66.04627751330082 16.20757125598864, 65.79821532020009 16.281194812795917, 65.24962792646164 16.444012671663497 M66.29433970640156 16.133947699181363 C65.91756395683532 16.245772763916356, 65.54078820726909 16.357597828651347, 65.24962792646164 16.444012671663497 M65.24962792646164 16.444012671663497 C64.85684995566973 16.533661680380956, 64.4640719848778 16.623310689098417, 64.18719668792333 16.68650566884811 M65.24962792646164 16.444012671663497 C64.95538725080254 16.511171185782832, 64.66114657514346 16.57832969990217, 64.18719668792333 16.68650566884811 M64.18719668792333 16.68650566884811 C63.78063506457157 16.752235399179146, 63.37407344121981 16.817965129510178, 63.11141174863661 16.86043023499518 M64.18719668792333 16.68650566884811 C63.803653611120474 16.748513939084614, 63.420110534317615 16.810522209321114, 63.11141174863661 16.86043023499518 M63.11141174863661 16.86043023499518 C62.87387286409643 16.883345325504468, 62.63633397955625 16.906260416013755, 62.02669373967212 16.965071676755716 M63.11141174863661 16.86043023499518 C62.8792123354418 16.882830233125432, 62.64701292224699 16.905230231255686, 62.02669373967212 16.965071676755716 M62.02669373967212 16.965071676755716 C61.769356207396804 16.973323990538667, 61.51201867512148 16.981576304321614, 60.9375 17 M62.02669373967212 16.965071676755716 C61.73184925463469 16.97452676551089, 61.43700476959725 16.98398185426607, 60.9375 17 M60.9375 17 C60.9375 17, 60.9375 17, 60.9375 17 M60.9375 17 C60.9375 17, 60.9375 17, 60.9375 17 M60.9375 17 C22.700900832044105 17, -15.535698335911789 17, -60.9375 17 M60.9375 17 C24.51509331135103 17, -11.907313377297939 17, -60.9375 17 M-60.9375 17 C-61.29867590519383 16.988417791706684, -61.659851810387664 16.97683558341337, -62.02669373967211 16.965071676755716 M-60.9375 17 C-61.31535706943045 16.987882859237533, -61.6932141388609 16.975765718475067, -62.02669373967211 16.965071676755716 M-62.02669373967211 16.965071676755716 C-62.352372153365216 16.93365387187234, -62.67805056705833 16.902236066988966, -63.111411748636606 16.86043023499518 M-62.02669373967211 16.965071676755716 C-62.25933579395773 16.942628977571786, -62.49197784824335 16.92018627838786, -63.111411748636606 16.86043023499518 M-63.111411748636606 16.86043023499518 C-63.41795785713339 16.810870237474, -63.72450396563016 16.761310239952817, -64.18719668792333 16.68650566884811 M-63.111411748636606 16.86043023499518 C-63.34795606925452 16.82218758366628, -63.58450038987244 16.78394493233738, -64.18719668792333 16.68650566884811 M-64.18719668792333 16.68650566884811 C-64.43895917861796 16.62904252325085, -64.69072166931261 16.57157937765359, -65.24962792646161 16.4440126716635 M-64.18719668792333 16.68650566884811 C-64.56317536704759 16.60069098882817, -64.93915404617185 16.51487630880823, -65.24962792646161 16.4440126716635 M-65.24962792646161 16.4440126716635 C-65.53401533933963 16.3596079803013, -65.81840275221765 16.275203288939096, -66.29433970640154 16.13394769918137 M-65.24962792646161 16.4440126716635 C-65.58740162987024 16.34376320950217, -65.92517533327887 16.24351374734084, -66.29433970640154 16.13394769918137 M-66.29433970640154 16.13394769918137 C-66.62386667905109 16.012678727132393, -66.95339365170065 15.891409755083412, -67.31703908294936 15.757584874882369 M-66.29433970640154 16.13394769918137 C-66.53315503664435 16.046061450067306, -66.77197036688715 15.958175200953242, -67.31703908294936 15.757584874882369 M-67.31703908294936 15.757584874882369 C-67.7125383703886 15.582509072402539, -68.10803765782785 15.407433269922707, -68.31352356499849 15.316470754341127 M-67.31703908294936 15.757584874882369 C-67.67988683506381 15.596962938517441, -68.04273458717827 15.436341002152513, -68.31352356499849 15.316470754341127 M-68.31352356499849 15.316470754341127 C-68.64751764818635 15.142226255075437, -68.98151173137423 14.967981755809745, -69.27969838406693 14.812417970097624 M-68.31352356499849 15.316470754341127 C-68.56213617075456 15.186769717162164, -68.81074877651061 15.057068679983201, -69.27969838406693 14.812417970097624 M-69.27969838406693 14.812417970097624 C-69.5889913746327 14.624922741609291, -69.89828436519846 14.437427513120959, -70.21159332057931 14.247497783161299 M-69.27969838406693 14.812417970097624 C-69.47919345797173 14.691482883933347, -69.67868853187655 14.570547797769068, -70.21159332057931 14.247497783161299 M-70.21159332057931 14.247497783161299 C-70.52645233229298 14.027865766616788, -70.84131134400664 13.808233750072278, -71.10537901835067 13.624031571755264 M-70.21159332057931 14.247497783161299 C-70.44525618743079 14.084504682348191, -70.67891905428226 13.921511581535084, -71.10537901835067 13.624031571755264 M-71.10537901835067 13.624031571755264 C-71.31527449644764 13.456645513526178, -71.52516997454462 13.28925945529709, -71.9573827202324 12.94458129227529 M-71.10537901835067 13.624031571755264 C-71.42511665740484 13.369049313185483, -71.744854296459 13.114067054615703, -71.9573827202324 12.94458129227529 M-71.9573827202324 12.94458129227529 C-72.23064386199141 12.696412753423376, -72.5039050037504 12.44824421457146, -72.76410336025926 12.211938951661377 M-71.9573827202324 12.94458129227529 C-72.12904226474103 12.788684635815208, -72.30070180924967 12.632787979355129, -72.76410336025926 12.211938951661377 M-72.76410336025926 12.211938951661377 C-73.04813906669925 11.918648764996894, -73.33217477313924 11.625358578332408, -73.52222595028036 11.429115134442386 M-72.76410336025926 12.211938951661377 C-73.00105621069102 11.967265679399764, -73.23800906112278 11.722592407138153, -73.52222595028036 11.429115134442386 M-73.52222595028036 11.429115134442386 C-73.74281593894062 11.169997581836112, -73.96340592760087 10.910880029229839, -74.22863520195651 10.599326631598473 M-73.52222595028036 11.429115134442386 C-73.79311285385637 11.110915963600542, -74.06399975743237 10.792716792758698, -74.22863520195651 10.599326631598473 M-74.22863520195651 10.599326631598473 C-74.44958926139805 10.303268321275716, -74.6705433208396 10.007210010952962, -74.88042832814824 9.72598322207689 M-74.22863520195651 10.599326631598473 C-74.43637177845828 10.320978544277548, -74.64410835496004 10.042630456956623, -74.88042832814824 9.72598322207689 M-74.88042832814824 9.72598322207689 C-75.09869676962823 9.390664282680461, -75.31696521110821 9.055345343284035, -75.47492697109088 8.812673661278936 M-74.88042832814824 9.72598322207689 C-75.05674618237636 9.455111650009297, -75.23306403660449 9.184240077941704, -75.47492697109088 8.812673661278936 M-75.47492697109088 8.812673661278936 C-75.58509278855188 8.617063096878253, -75.69525860601289 8.42145253247757, -76.009688208341 7.863150934094201 M-75.47492697109088 8.812673661278936 C-75.63759852921217 8.523833837553141, -75.80027008733346 8.234994013827345, -76.009688208341 7.863150934094201 M-76.009688208341 7.863150934094201 C-76.14933826038742 7.5731646129873536, -76.28898831243386 7.283178291880506, -76.48251459126881 6.881316833080701 M-76.009688208341 7.863150934094201 C-76.15233888593906 7.566933749826307, -76.2949895635371 7.270716565558414, -76.48251459126881 6.881316833080701 M-76.48251459126881 6.881316833080701 C-76.61037514357803 6.565498796861336, -76.73823569588724 6.24968076064197, -76.89146317484592 5.87120592516224 M-76.48251459126881 6.881316833080701 C-76.63006287431634 6.516869721301334, -76.77761115736385 6.152422609521967, -76.89146317484592 5.87120592516224 M-76.89146317484592 5.87120592516224 C-76.97193981422356 5.628823109567988, -77.0524164536012 5.386440293973737, -77.23485350162323 4.8369689727275516 M-76.89146317484592 5.87120592516224 C-76.97029175263076 5.633786808502565, -77.04912033041559 5.39636769184289, -77.23485350162323 4.8369689727275516 M-77.23485350162323 4.8369689727275516 C-77.29120075809287 4.622092462753378, -77.34754801456252 4.407215952779206, -77.511274507091 3.782855877257349 M-77.23485350162323 4.8369689727275516 C-77.32521638089749 4.49237615053522, -77.41557926017174 4.147783328342888, -77.511274507091 3.782855877257349 M-77.511274507091 3.782855877257349 C-77.5568574540963 3.548797078344415, -77.60244040110159 3.3147382794314804, -77.71959031804565 2.713198215567455 M-77.511274507091 3.782855877257349 C-77.56527724208448 3.505563246547963, -77.61927997707794 3.2282706158385768, -77.71959031804565 2.713198215567455 M-77.71959031804565 2.713198215567455 C-77.7645506500095 2.3644947592775933, -77.80951098197335 2.015791302987732, -77.85894492013637 1.6323914404306026 M-77.71959031804565 2.713198215567455 C-77.77475165484036 2.2853777802256494, -77.82991299163508 1.8575573448838432, -77.85894492013637 1.6323914404306026 M-77.85894492013637 1.6323914404306026 C-77.88490600264407 1.2280266249645766, -77.91086708515176 0.8236618094985505, -77.9287656754117 0.54487681871814 M-77.85894492013637 1.6323914404306026 C-77.87814229657725 1.333376806520521, -77.89733967301814 1.0343621726104393, -77.9287656754117 0.54487681871814 M-77.9287656754117 0.54487681871814 C-77.9287656754117 0.1318963420788038, -77.9287656754117 -0.2810841345605324, -77.9287656754117 -0.5448768187181317 M-77.9287656754117 0.54487681871814 C-77.9287656754117 0.1416138234600432, -77.9287656754117 -0.2616491717980536, -77.9287656754117 -0.5448768187181317 M-77.9287656754117 -0.5448768187181317 C-77.90585799281547 -0.9016824659029626, -77.88295031021924 -1.2584881130877936, -77.85894492013637 -1.6323914404305793 M-77.9287656754117 -0.5448768187181317 C-77.91206868545798 -0.8049459148149429, -77.89537169550427 -1.0650150109117542, -77.85894492013637 -1.6323914404305793 M-77.85894492013637 -1.6323914404305793 C-77.81885756768204 -1.9433010299231321, -77.77877021522774 -2.254210619415685, -77.71959031804565 -2.713198215567447 M-77.85894492013637 -1.6323914404305793 C-77.80493548680009 -2.0512779400178287, -77.7509260534638 -2.470164439605078, -77.71959031804565 -2.713198215567447 M-77.71959031804565 -2.713198215567447 C-77.65045494483947 -3.0681937452148826, -77.58131957163329 -3.4231892748623185, -77.511274507091 -3.782855877257341 M-77.71959031804565 -2.713198215567447 C-77.65736962368392 -3.0326883307664816, -77.5951489293222 -3.3521784459655164, -77.511274507091 -3.782855877257341 M-77.511274507091 -3.782855877257341 C-77.40124866008878 -4.202432117380532, -77.29122281308656 -4.622008357503722, -77.23485350162323 -4.836968972727544 M-77.511274507091 -3.782855877257341 C-77.41342047578149 -4.156015708845956, -77.31556644447198 -4.52917554043457, -77.23485350162323 -4.836968972727544 M-77.23485350162323 -4.836968972727544 C-77.10920544359155 -5.2154009042195995, -76.98355738555988 -5.593832835711655, -76.89146317484594 -5.871205925162218 M-77.23485350162323 -4.836968972727544 C-77.1435042135397 -5.112098473902642, -77.05215492545616 -5.387227975077741, -76.89146317484594 -5.871205925162218 M-76.89146317484594 -5.871205925162218 C-76.74205503826825 -6.240246911118904, -76.59264690169057 -6.60928789707559, -76.48251459126881 -6.881316833080692 M-76.89146317484594 -5.871205925162218 C-76.73540462436043 -6.256673562048241, -76.57934607387492 -6.642141198934264, -76.48251459126881 -6.881316833080692 M-76.48251459126881 -6.881316833080692 C-76.31522570900744 -7.228695776505094, -76.14793682674608 -7.576074719929496, -76.009688208341 -7.863150934094194 M-76.48251459126881 -6.881316833080692 C-76.36865604601374 -7.117746538485443, -76.25479750075867 -7.354176243890194, -76.009688208341 -7.863150934094194 M-76.009688208341 -7.863150934094194 C-75.88709262604344 -8.080831804612382, -75.76449704374586 -8.298512675130569, -75.47492697109088 -8.812673661278929 M-76.009688208341 -7.863150934094194 C-75.87501483933384 -8.102277137923773, -75.7403414703267 -8.341403341753352, -75.47492697109088 -8.812673661278929 M-75.47492697109088 -8.812673661278929 C-75.34993769339988 -9.004690756132826, -75.22494841570887 -9.196707850986723, -74.88042832814826 -9.725983222076884 M-75.47492697109088 -8.812673661278929 C-75.28758810023773 -9.10047647443993, -75.10024922938456 -9.38827928760093, -74.88042832814826 -9.725983222076884 M-74.88042832814826 -9.725983222076884 C-74.6718478683655 -10.005462036114972, -74.46326740858275 -10.284940850153061, -74.22863520195651 -10.599326631598467 M-74.88042832814826 -9.725983222076884 C-74.73029898777256 -9.927142861116048, -74.58016964739686 -10.128302500155213, -74.22863520195651 -10.599326631598467 M-74.22863520195651 -10.599326631598467 C-74.00789615347686 -10.858619278350336, -73.78715710499722 -11.117911925102202, -73.52222595028037 -11.42911513444238 M-74.22863520195651 -10.599326631598467 C-74.07708097419142 -10.777350851211205, -73.92552674642633 -10.955375070823942, -73.52222595028037 -11.42911513444238 M-73.52222595028037 -11.42911513444238 C-73.30733569756129 -11.65100696319269, -73.0924454448422 -11.872898791943001, -72.76410336025927 -12.21193895166136 M-73.52222595028037 -11.42911513444238 C-73.2433341347168 -11.717093831455648, -72.96444231915325 -12.005072528468917, -72.76410336025927 -12.21193895166136 M-72.76410336025927 -12.21193895166136 C-72.53621354552325 -12.41890245177053, -72.30832373078724 -12.625865951879701, -71.95738272023242 -12.944581292275274 M-72.76410336025927 -12.21193895166136 C-72.56006540876214 -12.397240820662686, -72.35602745726501 -12.582542689664015, -71.95738272023242 -12.944581292275274 M-71.95738272023242 -12.944581292275274 C-71.7653702650136 -13.097706115646256, -71.57335780979479 -13.250830939017238, -71.10537901835067 -13.624031571755259 M-71.95738272023242 -12.944581292275274 C-71.69803063467145 -13.151407678861293, -71.43867854911049 -13.358234065447313, -71.10537901835067 -13.624031571755259 M-71.10537901835067 -13.624031571755259 C-70.87932432846561 -13.781717537669271, -70.65326963858055 -13.939403503583286, -70.21159332057934 -14.247497783161284 M-71.10537901835067 -13.624031571755259 C-70.89354220018127 -13.771799765842173, -70.68170538201187 -13.919567959929088, -70.21159332057934 -14.247497783161284 M-70.21159332057934 -14.247497783161284 C-69.97776568314605 -14.389245471097071, -69.74393804571275 -14.530993159032858, -69.27969838406695 -14.812417970097618 M-70.21159332057934 -14.247497783161284 C-69.89982249486364 -14.43649508987888, -69.58805166914794 -14.625492396596476, -69.27969838406695 -14.812417970097618 M-69.27969838406695 -14.812417970097618 C-69.0292617501877 -14.943070601580102, -68.77882511630845 -15.073723233062585, -68.31352356499849 -15.316470754341124 M-69.27969838406695 -14.812417970097618 C-69.05304584797045 -14.930662453001283, -68.82639331187396 -15.048906935904947, -68.31352356499849 -15.316470754341124 M-68.31352356499849 -15.316470754341124 C-68.09385915592337 -15.413709672125503, -67.87419474684825 -15.510948589909882, -67.31703908294936 -15.757584874882365 M-68.31352356499849 -15.316470754341124 C-68.0549792546516 -15.430920651087218, -67.79643494430472 -15.545370547833313, -67.31703908294936 -15.757584874882365 M-67.31703908294936 -15.757584874882365 C-66.9879197143845 -15.878703844860325, -66.65880034581966 -15.999822814838286, -66.29433970640156 -16.133947699181363 M-67.31703908294936 -15.757584874882365 C-66.9363358931222 -15.897687167920468, -66.55563270329505 -16.03778946095857, -66.29433970640156 -16.133947699181363 M-66.29433970640156 -16.133947699181363 C-66.0258557002696 -16.213632342900024, -65.75737169413763 -16.293316986618684, -65.24962792646164 -16.444012671663494 M-66.29433970640156 -16.133947699181363 C-66.06287779911754 -16.202644378294917, -65.83141589183352 -16.271341057408467, -65.24962792646164 -16.444012671663494 M-65.24962792646164 -16.444012671663494 C-64.93764772033012 -16.51522011785191, -64.62566751419858 -16.586427564040324, -64.18719668792333 -16.68650566884811 M-65.24962792646164 -16.444012671663494 C-64.96158984348222 -16.5097554844794, -64.67355176050279 -16.5754982972953, -64.18719668792333 -16.68650566884811 M-64.18719668792333 -16.68650566884811 C-63.8529519228973 -16.74054377035065, -63.51870715787126 -16.794581871853197, -63.11141174863661 -16.86043023499518 M-64.18719668792333 -16.68650566884811 C-63.76717950123666 -16.75441079030968, -63.34716231454998 -16.822315911771252, -63.11141174863661 -16.86043023499518 M-63.11141174863661 -16.86043023499518 C-62.74966215070111 -16.895327783640475, -62.38791255276562 -16.93022533228577, -62.02669373967212 -16.965071676755716 M-63.11141174863661 -16.86043023499518 C-62.7083820400083 -16.899310026272413, -62.30535233137999 -16.938189817549645, -62.02669373967212 -16.965071676755716 M-62.02669373967212 -16.965071676755716 C-61.63902250219396 -16.977503538785353, -61.2513512647158 -16.989935400814993, -60.93750000000001 -17 M-62.02669373967212 -16.965071676755716 C-61.680932820157956 -16.976159556461734, -61.33517190064379 -16.98724743616775, -60.93750000000001 -17 M-60.93750000000001 -17 C-60.93750000000001 -17, -60.9375 -17, -60.9375 -17 M-60.93750000000001 -17 C-60.93750000000001 -17, -60.9375 -17, -60.9375 -17" stroke="#555555" stroke-width="1.3" fill="none" stroke-dasharray="0 0" style=""></path></g><g class="label" style="" transform="translate(0, -9.5)"><rect></rect><g><rect class="background" style="stroke: none"></rect><text y="-10.1" style=""><tspan class="text-outer-tspan row" x="0" y="-0.1em" dy="1.1em"><tspan font-style="normal" class="text-inner-tspan" font-weight="normal">Need</tspan><tspan font-style="normal" class="text-inner-tspan" font-weight="normal"> to</tspan><tspan font-style="normal" class="text-inner-tspan" font-weight="normal"> invalidate</tspan></tspan></text></g></g></g><g class="node default" id="g592fc527-63a1-4b21-a368-335d672a8b83-dark-flowchart-Q1-2" data-look="classic" transform="translate(312.4632797241211, 175.35468292236328)"><polygon points="83.35468673706055,0 166.7093734741211,-83.35468673706055 83.35468673706055,-166.7093734741211 0,-83.35468673706055" class="label-container" transform="translate(-82.85468673706055, 83.35468673706055)"></polygon><g class="label" style="" transform="translate(0, -18.299999237060547)"><rect></rect><g><rect class="background" style="stroke: none"></rect><text y="-10.1" style=""><tspan class="text-outer-tspan row" x="0" y="-0.1em" dy="1.1em"><tspan font-style="normal" class="text-inner-tspan" font-weight="normal">URL</tspan><tspan font-style="normal" class="text-inner-tspan" font-weight="normal"> derived</tspan></tspan><tspan class="text-outer-tspan row" x="0" y="1em" dy="1.1em"><tspan font-style="normal" class="text-inner-tspan" font-weight="normal">from</tspan><tspan font-style="normal" class="text-inner-tspan" font-weight="normal"> content?</tspan></tspan></text></g></g></g><g class="node default" id="g592fc527-63a1-4b21-a368-335d672a8b83-dark-flowchart-Versioned-4" data-look="classic" transform="translate(207.5749969482422, 410.5171813964844)"><rect class="basic label-container" style="" x="-80.96875" y="-33.29999923706055" width="161.9375" height="66.5999984741211"></rect><g class="label" style="" transform="translate(0, -18.299999237060547)"><rect></rect><g><rect class="background" style="stroke: none"></rect><text y="-10.1" style=""><tspan class="text-outer-tspan row" x="0" y="-0.1em" dy="1.1em"><tspan font-style="normal" class="text-inner-tspan" font-weight="normal">Versioned</tspan><tspan font-style="normal" class="text-inner-tspan" font-weight="normal"> URL</tspan></tspan><tspan class="text-outer-tspan row" x="0" y="1em" dy="1.1em"><tspan font-style="normal" class="text-inner-tspan" font-weight="normal">1y</tspan><tspan font-style="normal" class="text-inner-tspan" font-weight="normal"> immutable</tspan></tspan></text></g></g></g><g class="node default" id="g592fc527-63a1-4b21-a368-335d672a8b83-dark-flowchart-Q2-6" data-look="classic" transform="translate(417.3515625, 410.5171813964844)"><polygon points="78.80781173706055,0 157.6156234741211,-78.80781173706055 78.80781173706055,-157.6156234741211 0,-78.80781173706055" class="label-container" transform="translate(-78.30781173706055, 78.80781173706055)"></polygon><g class="label" style="" transform="translate(0, -18.299999237060547)"><rect></rect><g><rect class="background" style="stroke: none"></rect><text y="-10.1" style=""><tspan class="text-outer-tspan row" x="0" y="-0.1em" dy="1.1em"><tspan font-style="normal" class="text-inner-tspan" font-weight="normal">Many</tspan><tspan font-style="normal" class="text-inner-tspan" font-weight="normal"> entries</tspan></tspan><tspan class="text-outer-tspan row" x="0" y="1em" dy="1.1em"><tspan font-style="normal" class="text-inner-tspan" font-weight="normal">per</tspan><tspan font-style="normal" class="text-inner-tspan" font-weight="normal"> source?</tspan></tspan></text></g></g></g><g class="node default" id="g592fc527-63a1-4b21-a368-335d672a8b83-dark-flowchart-Q3-8" data-look="classic" transform="translate(194.359375, 652.4765548706055)"><polygon points="73.15937423706055,0 146.3187484741211,-73.15937423706055 73.15937423706055,-146.3187484741211 0,-73.15937423706055" class="label-container" transform="translate(-72.65937423706055, 73.15937423706055)"></polygon><g class="label" style="" transform="translate(0, -18.299999237060547)"><rect></rect><g><rect class="background" style="stroke: none"></rect><text y="-10.1" style=""><tspan class="text-outer-tspan row" x="0" y="-0.1em" dy="1.1em"><tspan font-style="normal" class="text-inner-tspan" font-weight="normal">Tolerate</tspan></tspan><tspan class="text-outer-tspan row" x="0" y="1em" dy="1.1em"><tspan font-style="normal" class="text-inner-tspan" font-weight="normal">brief</tspan><tspan font-style="normal" class="text-inner-tspan" font-weight="normal"> stale?</tspan></tspan></text></g></g></g><g class="node default" id="g592fc527-63a1-4b21-a368-335d672a8b83-dark-flowchart-SWR-10" data-look="classic" transform="translate(92.71875, 848.9281120300293)"><rect class="basic label-container" style="" x="-84.71875" y="-24.5" width="169.4375" height="49"></rect><g class="label" style="" transform="translate(0, -9.5)"><rect></rect><g><rect class="background" style="stroke: none"></rect><text y="-10.1" style=""><tspan class="text-outer-tspan row" x="0" y="-0.1em" dy="1.1em"><tspan font-style="normal" class="text-inner-tspan" font-weight="normal">max-age</tspan><tspan font-style="normal" class="text-inner-tspan" font-weight="normal"> +</tspan><tspan font-style="normal" class="text-inner-tspan" font-weight="normal"> SWR</tspan></tspan></text></g></g></g><g class="node default" id="g592fc527-63a1-4b21-a368-335d672a8b83-dark-flowchart-PathPurge-12" data-look="classic" transform="translate(296, 848.9281120300293)"><rect class="basic label-container" style="" x="-68.5625" y="-33.29999923706055" width="137.125" height="66.5999984741211"></rect><g class="label" style="" transform="translate(0, -18.299999237060547)"><rect></rect><g><rect class="background" style="stroke: none"></rect><text y="-10.1" style=""><tspan class="text-outer-tspan row" x="0" y="-0.1em" dy="1.1em"><tspan font-style="normal" class="text-inner-tspan" font-weight="normal">Path</tspan><tspan font-style="normal" class="text-inner-tspan" font-weight="normal"> purge</tspan></tspan><tspan class="text-outer-tspan row" x="0" y="1em" dy="1.1em"><tspan font-style="normal" class="text-inner-tspan" font-weight="normal">+</tspan><tspan font-style="normal" class="text-inner-tspan" font-weight="normal"> verify</tspan></tspan></text></g></g></g><g class="node default" id="g592fc527-63a1-4b21-a368-335d672a8b83-dark-flowchart-Q4-14" data-look="classic" transform="translate(622.3984375, 652.4765548706055)"><polygon points="90.15156173706055,0 180.3031234741211,-90.15156173706055 90.15156173706055,-180.3031234741211 0,-90.15156173706055" class="label-container" transform="translate(-89.65156173706055, 90.15156173706055)"></polygon><g class="label" style="" transform="translate(0, -18.299999237060547)"><rect></rect><g><rect class="background" style="stroke: none"></rect><text y="-10.1" style=""><tspan class="text-outer-tspan row" x="0" y="-0.1em" dy="1.1em"><tspan font-style="normal" class="text-inner-tspan" font-weight="normal">Surrogate</tspan></tspan><tspan class="text-outer-tspan row" x="0" y="1em" dy="1.1em"><tspan font-style="normal" class="text-inner-tspan" font-weight="normal">keys</tspan><tspan font-style="normal" class="text-inner-tspan" font-weight="normal"> supported?</tspan></tspan></text></g></g></g><g class="node default" id="g592fc527-63a1-4b21-a368-335d672a8b83-dark-flowchart-TagPurge-16" data-look="classic" transform="translate(502.8125, 848.9281120300293)"><rect class="basic label-container" style="" x="-88.25" y="-24.5" width="176.5" height="49"></rect><g class="label" style="" transform="translate(0, -9.5)"><rect></rect><g><rect class="background" style="stroke: none"></rect><text y="-10.1" style=""><tspan class="text-outer-tspan row" x="0" y="-0.1em" dy="1.1em"><tspan font-style="normal" class="text-inner-tspan" font-weight="normal">Tag-based</tspan><tspan font-style="normal" class="text-inner-tspan" font-weight="normal"> purge</tspan></tspan></text></g></g></g><g class="node default" id="g592fc527-63a1-4b21-a368-335d672a8b83-dark-flowchart-TagWorkaround-18" data-look="classic" transform="translate(741.984375, 848.9281120300293)"><rect class="basic label-container" style="" x="-100.921875" y="-33.29999923706055" width="201.84375" height="66.5999984741211"></rect><g class="label" style="" transform="translate(0, -18.299999237060547)"><rect></rect><g><rect class="background" style="stroke: none"></rect><text y="-10.1" style=""><tspan class="text-outer-tspan row" x="0" y="-0.1em" dy="1.1em"><tspan font-style="normal" class="text-inner-tspan" font-weight="normal">App</tspan><tspan font-style="normal" class="text-inner-tspan" font-weight="normal"> tag→URL</tspan><tspan font-style="normal" class="text-inner-tspan" font-weight="normal"> index</tspan></tspan><tspan class="text-outer-tspan row" x="0" y="1em" dy="1.1em"><tspan font-style="normal" class="text-inner-tspan" font-weight="normal">then</tspan><tspan font-style="normal" class="text-inner-tspan" font-weight="normal"> path</tspan><tspan font-style="normal" class="text-inner-tspan" font-weight="normal"> purge</tspan></tspan></text></g></g></g></g></g></g><defs><filter id="g592fc527-63a1-4b21-a368-335d672a8b83-dark-drop-shadow" height="130%" width="130%"><feDropShadow dx="4" dy="4" stdDeviation="0" flood-opacity="0.06" flood-color="#000000"></feDropShadow></filter></defs><defs><filter id="g592fc527-63a1-4b21-a368-335d672a8b83-dark-drop-shadow-small" height="150%" width="150%"><feDropShadow dx="2" dy="2" stdDeviation="0" flood-opacity="0.06" flood-color="#000000"></feDropShadow></filter></defs><linearGradient id="g592fc527-63a1-4b21-a368-335d672a8b83-dark-gradient" gradientUnits="objectBoundingBox" x1="0%" y1="0%" x2="100%" y2="0%"><stop offset="0%" stop-color="#555555" stop-opacity="1"></stop><stop offset="100%" stop-color="#555555" stop-opacity="1"></stop></linearGradient></svg>