<svg id="gaa1df90b-6e48-4ccc-b6db-c35a81a40f7c-flip" width="100%" xmlns="http://www.w3.org/2000/svg" xmlns:xlink="http://www.w3.org/1999/xlink" class="flowchart" style="max-width: 452.64361572265625px;" viewBox="0 0 452.64361572265625 691.199951171875" role="graphics-document document" aria-roledescription="flowchart-v2"><style>#gaa1df90b-6e48-4ccc-b6db-c35a81a40f7c-flip{font-family:"trebuchet ms",verdana,arial,sans-serif;font-size:16px;fill:#333;}@keyframes edge-animation-frame{from{stroke-dashoffset:0;}}@keyframes dash{to{stroke-dashoffset:0;}}#gaa1df90b-6e48-4ccc-b6db-c35a81a40f7c-flip .edge-animation-slow{stroke-dasharray:9,5!important;stroke-dashoffset:900;animation:dash 50s linear infinite;stroke-linecap:round;}#gaa1df90b-6e48-4ccc-b6db-c35a81a40f7c-flip .edge-animation-fast{stroke-dasharray:9,5!important;stroke-dashoffset:900;animation:dash 20s linear infinite;stroke-linecap:round;}#gaa1df90b-6e48-4ccc-b6db-c35a81a40f7c-flip .error-icon{fill:#552222;}#gaa1df90b-6e48-4ccc-b6db-c35a81a40f7c-flip .error-text{fill:#552222;stroke:#552222;}#gaa1df90b-6e48-4ccc-b6db-c35a81a40f7c-flip .edge-thickness-normal{stroke-width:1px;}#gaa1df90b-6e48-4ccc-b6db-c35a81a40f7c-flip .edge-thickness-thick{stroke-width:3.5px;}#gaa1df90b-6e48-4ccc-b6db-c35a81a40f7c-flip .edge-pattern-solid{stroke-dasharray:0;}#gaa1df90b-6e48-4ccc-b6db-c35a81a40f7c-flip .edge-thickness-invisible{stroke-width:0;fill:none;}#gaa1df90b-6e48-4ccc-b6db-c35a81a40f7c-flip .edge-pattern-dashed{stroke-dasharray:3;}#gaa1df90b-6e48-4ccc-b6db-c35a81a40f7c-flip .edge-pattern-dotted{stroke-dasharray:2;}#gaa1df90b-6e48-4ccc-b6db-c35a81a40f7c-flip .marker{fill:#333333;stroke:#333333;}#gaa1df90b-6e48-4ccc-b6db-c35a81a40f7c-flip .marker.cross{stroke:#333333;}#gaa1df90b-6e48-4ccc-b6db-c35a81a40f7c-flip svg{font-family:"trebuchet ms",verdana,arial,sans-serif;font-size:16px;}#gaa1df90b-6e48-4ccc-b6db-c35a81a40f7c-flip p{margin:0;}#gaa1df90b-6e48-4ccc-b6db-c35a81a40f7c-flip .label{font-family:"trebuchet ms",verdana,arial,sans-serif;color:#333;}#gaa1df90b-6e48-4ccc-b6db-c35a81a40f7c-flip .cluster-label text{fill:#333;}#gaa1df90b-6e48-4ccc-b6db-c35a81a40f7c-flip .cluster-label span{color:#333;}#gaa1df90b-6e48-4ccc-b6db-c35a81a40f7c-flip .cluster-label span p{background-color:transparent;}#gaa1df90b-6e48-4ccc-b6db-c35a81a40f7c-flip .label text,#gaa1df90b-6e48-4ccc-b6db-c35a81a40f7c-flip span{fill:#333;color:#333;}#gaa1df90b-6e48-4ccc-b6db-c35a81a40f7c-flip .node rect,#gaa1df90b-6e48-4ccc-b6db-c35a81a40f7c-flip .node circle,#gaa1df90b-6e48-4ccc-b6db-c35a81a40f7c-flip .node ellipse,#gaa1df90b-6e48-4ccc-b6db-c35a81a40f7c-flip .node polygon,#gaa1df90b-6e48-4ccc-b6db-c35a81a40f7c-flip .node path{fill:#ECECFF;stroke:#9370DB;stroke-width:1px;}#gaa1df90b-6e48-4ccc-b6db-c35a81a40f7c-flip .rough-node .label text,#gaa1df90b-6e48-4ccc-b6db-c35a81a40f7c-flip .node .label text,#gaa1df90b-6e48-4ccc-b6db-c35a81a40f7c-flip .image-shape .label,#gaa1df90b-6e48-4ccc-b6db-c35a81a40f7c-flip .icon-shape .label{text-anchor:middle;}#gaa1df90b-6e48-4ccc-b6db-c35a81a40f7c-flip .node .katex path{fill:#000;stroke:#000;stroke-width:1px;}#gaa1df90b-6e48-4ccc-b6db-c35a81a40f7c-flip .rough-node .label,#gaa1df90b-6e48-4ccc-b6db-c35a81a40f7c-flip .node .label,#gaa1df90b-6e48-4ccc-b6db-c35a81a40f7c-flip .image-shape .label,#gaa1df90b-6e48-4ccc-b6db-c35a81a40f7c-flip .icon-shape .label{text-align:center;}#gaa1df90b-6e48-4ccc-b6db-c35a81a40f7c-flip .node.clickable{cursor:pointer;}#gaa1df90b-6e48-4ccc-b6db-c35a81a40f7c-flip .root .anchor path{fill:#333333!important;stroke-width:0;stroke:#333333;}#gaa1df90b-6e48-4ccc-b6db-c35a81a40f7c-flip .arrowheadPath{fill:#333333;}#gaa1df90b-6e48-4ccc-b6db-c35a81a40f7c-flip .edgePath .path{stroke:#333333;stroke-width:1px;}#gaa1df90b-6e48-4ccc-b6db-c35a81a40f7c-flip .flowchart-link{stroke:#333333;fill:none;}#gaa1df90b-6e48-4ccc-b6db-c35a81a40f7c-flip .edgeLabel{background-color:rgba(232,232,232, 0.8);text-align:center;}#gaa1df90b-6e48-4ccc-b6db-c35a81a40f7c-flip .edgeLabel p{background-color:rgba(232,232,232, 0.8);}#gaa1df90b-6e48-4ccc-b6db-c35a81a40f7c-flip .edgeLabel rect{opacity:0.5;background-color:rgba(232,232,232, 0.8);fill:rgba(232,232,232, 0.8);}#gaa1df90b-6e48-4ccc-b6db-c35a81a40f7c-flip .labelBkg{background-color:rgba(232, 232, 232, 0.5);}#gaa1df90b-6e48-4ccc-b6db-c35a81a40f7c-flip .cluster rect{fill:#ffffde;stroke:#aaaa33;stroke-width:1px;}#gaa1df90b-6e48-4ccc-b6db-c35a81a40f7c-flip .cluster text{fill:#333;}#gaa1df90b-6e48-4ccc-b6db-c35a81a40f7c-flip .cluster span{color:#333;}#gaa1df90b-6e48-4ccc-b6db-c35a81a40f7c-flip div.mermaidTooltip{position:absolute;text-align:center;max-width:200px;padding:2px;font-family:"trebuchet ms",verdana,arial,sans-serif;font-size:12px;background:hsl(80, 100%, 96.2745098039%);border:1px solid #aaaa33;border-radius:2px;pointer-events:none;z-index:100;}#gaa1df90b-6e48-4ccc-b6db-c35a81a40f7c-flip .flowchartTitleText{text-anchor:middle;font-size:18px;fill:#333;}#gaa1df90b-6e48-4ccc-b6db-c35a81a40f7c-flip rect.text{fill:none;stroke-width:0;}#gaa1df90b-6e48-4ccc-b6db-c35a81a40f7c-flip .icon-shape,#gaa1df90b-6e48-4ccc-b6db-c35a81a40f7c-flip .image-shape{background-color:rgba(232,232,232, 0.8);text-align:center;}#gaa1df90b-6e48-4ccc-b6db-c35a81a40f7c-flip .icon-shape p,#gaa1df90b-6e48-4ccc-b6db-c35a81a40f7c-flip .image-shape p{background-color:rgba(232,232,232, 0.8);padding:2px;}#gaa1df90b-6e48-4ccc-b6db-c35a81a40f7c-flip .icon-shape .label rect,#gaa1df90b-6e48-4ccc-b6db-c35a81a40f7c-flip .image-shape .label rect{opacity:0.5;background-color:rgba(232,232,232, 0.8);fill:rgba(232,232,232, 0.8);}#gaa1df90b-6e48-4ccc-b6db-c35a81a40f7c-flip .label-icon{display:inline-block;height:1em;overflow:visible;vertical-align:-0.125em;}#gaa1df90b-6e48-4ccc-b6db-c35a81a40f7c-flip .node .label-icon path{fill:currentColor;stroke:revert;stroke-width:revert;}#gaa1df90b-6e48-4ccc-b6db-c35a81a40f7c-flip .node .neo-node{stroke:#9370DB;}#gaa1df90b-6e48-4ccc-b6db-c35a81a40f7c-flip [data-look="neo"].node rect,#gaa1df90b-6e48-4ccc-b6db-c35a81a40f7c-flip [data-look="neo"].cluster rect,#gaa1df90b-6e48-4ccc-b6db-c35a81a40f7c-flip [data-look="neo"].node polygon{stroke:#9370DB;filter:drop-shadow(1px 2px 2px rgba(185, 185, 185, 1));}#gaa1df90b-6e48-4ccc-b6db-c35a81a40f7c-flip [data-look="neo"].node path{stroke:#9370DB;stroke-width:1px;}#gaa1df90b-6e48-4ccc-b6db-c35a81a40f7c-flip [data-look="neo"].node .outer-path{filter:drop-shadow(1px 2px 2px rgba(185, 185, 185, 1));}#gaa1df90b-6e48-4ccc-b6db-c35a81a40f7c-flip [data-look="neo"].node .neo-line path{stroke:#9370DB;filter:none;}#gaa1df90b-6e48-4ccc-b6db-c35a81a40f7c-flip [data-look="neo"].node circle{stroke:#9370DB;filter:drop-shadow(1px 2px 2px rgba(185, 185, 185, 1));}#gaa1df90b-6e48-4ccc-b6db-c35a81a40f7c-flip [data-look="neo"].node circle .state-start{fill:#000000;}#gaa1df90b-6e48-4ccc-b6db-c35a81a40f7c-flip [data-look="neo"].icon-shape .icon{fill:#9370DB;filter:drop-shadow(1px 2px 2px rgba(185, 185, 185, 1));}#gaa1df90b-6e48-4ccc-b6db-c35a81a40f7c-flip [data-look="neo"].icon-shape .icon-neo path{stroke:#9370DB;filter:drop-shadow(1px 2px 2px rgba(185, 185, 185, 1));}#gaa1df90b-6e48-4ccc-b6db-c35a81a40f7c-flip :root{--mermaid-font-family:"trebuchet ms",verdana,arial,sans-serif;}#gaa1df90b-6e48-4ccc-b6db-c35a81a40f7c-flip .layer rect{fill:#2E5A88!important;stroke:#1F4870!important;color:#fff!important;}#gaa1df90b-6e48-4ccc-b6db-c35a81a40f7c-flip .layer polygon{fill:#2E5A88!important;stroke:#1F4870!important;color:#fff!important;}#gaa1df90b-6e48-4ccc-b6db-c35a81a40f7c-flip .layer ellipse{fill:#2E5A88!important;stroke:#1F4870!important;color:#fff!important;}#gaa1df90b-6e48-4ccc-b6db-c35a81a40f7c-flip .layer circle{fill:#2E5A88!important;stroke:#1F4870!important;color:#fff!important;}#gaa1df90b-6e48-4ccc-b6db-c35a81a40f7c-flip .layer path{fill:#2E5A88!important;stroke:#1F4870!important;color:#fff!important;}#gaa1df90b-6e48-4ccc-b6db-c35a81a40f7c-flip .layer tspan{fill:#fff!important;}#gaa1df90b-6e48-4ccc-b6db-c35a81a40f7c-flip .sdk rect{fill:#8B5E15!important;stroke:#6E4810!important;color:#fff!important;}#gaa1df90b-6e48-4ccc-b6db-c35a81a40f7c-flip .sdk polygon{fill:#8B5E15!important;stroke:#6E4810!important;color:#fff!important;}#gaa1df90b-6e48-4ccc-b6db-c35a81a40f7c-flip .sdk ellipse{fill:#8B5E15!important;stroke:#6E4810!important;color:#fff!important;}#gaa1df90b-6e48-4ccc-b6db-c35a81a40f7c-flip .sdk circle{fill:#8B5E15!important;stroke:#6E4810!important;color:#fff!important;}#gaa1df90b-6e48-4ccc-b6db-c35a81a40f7c-flip .sdk path{fill:#8B5E15!important;stroke:#6E4810!important;color:#fff!important;}#gaa1df90b-6e48-4ccc-b6db-c35a81a40f7c-flip .sdk tspan{fill:#fff!important;}#gaa1df90b-6e48-4ccc-b6db-c35a81a40f7c-flip .shell rect{fill:#5A5A5A!important;stroke:#3D3D3D!important;color:#fff!important;}#gaa1df90b-6e48-4ccc-b6db-c35a81a40f7c-flip .shell polygon{fill:#5A5A5A!important;stroke:#3D3D3D!important;color:#fff!important;}#gaa1df90b-6e48-4ccc-b6db-c35a81a40f7c-flip .shell ellipse{fill:#5A5A5A!important;stroke:#3D3D3D!important;color:#fff!important;}#gaa1df90b-6e48-4ccc-b6db-c35a81a40f7c-flip .shell circle{fill:#5A5A5A!important;stroke:#3D3D3D!important;color:#fff!important;}#gaa1df90b-6e48-4ccc-b6db-c35a81a40f7c-flip .shell path{fill:#5A5A5A!important;stroke:#3D3D3D!important;color:#fff!important;}#gaa1df90b-6e48-4ccc-b6db-c35a81a40f7c-flip .shell tspan{fill:#fff!important;}</style><g><marker id="gaa1df90b-6e48-4ccc-b6db-c35a81a40f7c-flip_flowchart-v2-pointEnd" class="marker flowchart-v2" viewBox="0 0 10 10" refX="5" refY="5" markerUnits="userSpaceOnUse" markerWidth="8" markerHeight="8" orient="auto"><path d="M 0 0 L 10 5 L 0 10 z" class="arrowMarkerPath" style="stroke-width: 1; stroke-dasharray: 1, 0;"></path></marker><marker id="gaa1df90b-6e48-4ccc-b6db-c35a81a40f7c-flip_flowchart-v2-pointStart" class="marker flowchart-v2" viewBox="0 0 10 10" refX="4.5" refY="5" markerUnits="userSpaceOnUse" markerWidth="8" markerHeight="8" orient="auto"><path d="M 0 5 L 10 10 L 10 0 z" class="arrowMarkerPath" style="stroke-width: 1; stroke-dasharray: 1, 0;"></path></marker><marker id="gaa1df90b-6e48-4ccc-b6db-c35a81a40f7c-flip_flowchart-v2-pointEnd-margin" class="marker flowchart-v2" viewBox="0 0 11.5 14" refX="11.5" refY="7" markerUnits="userSpaceOnUse" markerWidth="10.5" markerHeight="14" orient="auto"><path d="M 0 0 L 11.5 7 L 0 14 z" class="arrowMarkerPath" style="stroke-width: 0; stroke-dasharray: 1, 0;"></path></marker><marker id="gaa1df90b-6e48-4ccc-b6db-c35a81a40f7c-flip_flowchart-v2-pointStart-margin" class="marker flowchart-v2" viewBox="0 0 11.5 14" refX="1" refY="7" markerUnits="userSpaceOnUse" markerWidth="11.5" markerHeight="14" orient="auto"><polygon points="0,7 11.5,14 11.5,0" class="arrowMarkerPath" style="stroke-width: 0; stroke-dasharray: 1, 0;"></polygon></marker><marker id="gaa1df90b-6e48-4ccc-b6db-c35a81a40f7c-flip_flowchart-v2-circleEnd" class="marker flowchart-v2" viewBox="0 0 10 10" refX="11" refY="5" markerUnits="userSpaceOnUse" markerWidth="11" markerHeight="11" orient="auto"><circle cx="5" cy="5" r="5" class="arrowMarkerPath" style="stroke-width: 1; stroke-dasharray: 1, 0;"></circle></marker><marker id="gaa1df90b-6e48-4ccc-b6db-c35a81a40f7c-flip_flowchart-v2-circleStart" class="marker flowchart-v2" viewBox="0 0 10 10" refX="-1" refY="5" markerUnits="userSpaceOnUse" markerWidth="11" markerHeight="11" orient="auto"><circle cx="5" cy="5" r="5" class="arrowMarkerPath" style="stroke-width: 1; stroke-dasharray: 1, 0;"></circle></marker><marker id="gaa1df90b-6e48-4ccc-b6db-c35a81a40f7c-flip_flowchart-v2-circleEnd-margin" class="marker flowchart-v2" viewBox="0 0 10 10" refY="5" refX="12.25" markerUnits="userSpaceOnUse" markerWidth="14" markerHeight="14" orient="auto"><circle cx="5" cy="5" r="5" class="arrowMarkerPath" style="stroke-width: 0; stroke-dasharray: 1, 0;"></circle></marker><marker id="gaa1df90b-6e48-4ccc-b6db-c35a81a40f7c-flip_flowchart-v2-circleStart-margin" class="marker flowchart-v2" viewBox="0 0 10 10" refX="-2" refY="5" markerUnits="userSpaceOnUse" markerWidth="14" markerHeight="14" orient="auto"><circle cx="5" cy="5" r="5" class="arrowMarkerPath" style="stroke-width: 0; stroke-dasharray: 1, 0;"></circle></marker><marker id="gaa1df90b-6e48-4ccc-b6db-c35a81a40f7c-flip_flowchart-v2-crossEnd" class="marker cross flowchart-v2" viewBox="0 0 11 11" refX="12" refY="5.2" markerUnits="userSpaceOnUse" markerWidth="11" markerHeight="11" orient="auto"><path d="M 1,1 l 9,9 M 10,1 l -9,9" class="arrowMarkerPath" style="stroke-width: 2; stroke-dasharray: 1, 0;"></path></marker><marker id="gaa1df90b-6e48-4ccc-b6db-c35a81a40f7c-flip_flowchart-v2-crossStart" class="marker cross flowchart-v2" viewBox="0 0 11 11" refX="-1" refY="5.2" markerUnits="userSpaceOnUse" markerWidth="11" markerHeight="11" orient="auto"><path d="M 1,1 l 9,9 M 10,1 l -9,9" class="arrowMarkerPath" style="stroke-width: 2; stroke-dasharray: 1, 0;"></path></marker><marker id="gaa1df90b-6e48-4ccc-b6db-c35a81a40f7c-flip_flowchart-v2-crossEnd-margin" class="marker cross flowchart-v2" viewBox="0 0 15 15" refX="17.7" refY="7.5" markerUnits="userSpaceOnUse" markerWidth="12" markerHeight="12" orient="auto"><path d="M 1,1 L 14,14 M 1,14 L 14,1" class="arrowMarkerPath" style="stroke-width: 2.5;"></path></marker><marker id="gaa1df90b-6e48-4ccc-b6db-c35a81a40f7c-flip_flowchart-v2-crossStart-margin" class="marker cross flowchart-v2" viewBox="0 0 15 15" refX="-3.5" refY="7.5" markerUnits="userSpaceOnUse" markerWidth="12" markerHeight="12" orient="auto"><path d="M 1,1 L 14,14 M 1,14 L 14,1" class="arrowMarkerPath" style="stroke-width: 2.5; stroke-dasharray: 1, 0;"></path></marker><g class="root"><g class="clusters"></g><g class="edgePaths"><path d="M100.305,75.9L100.305,82.2C100.305,88.5,100.305,101.1,101.306,112.828C102.308,124.555,104.311,135.411,105.312,140.839L106.314,146.266" id="gaa1df90b-6e48-4ccc-b6db-c35a81a40f7c-flip-L_PRIMITIVES_BLOCKS_0" class="edge-thickness-normal edge-pattern-solid edge-thickness-normal edge-pattern-solid flowchart-link" style=";" data-edge="true" data-et="edge" data-id="L_PRIMITIVES_BLOCKS_0" data-points="W3sieCI6MTAwLjMwNDY4NzUsInkiOjc1Ljg5OTk5NzcxMTE4MTY0fSx7IngiOjEwMC4zMDQ2ODc1LCJ5IjoxMTMuNjk5OTk2OTQ4MjQyMTl9LHsieCI6MTA3LjAzOTUxMjc3ODkzODgxLCJ5IjoxNTAuMTk5OTk2OTQ4MjQyMn1d" data-look="classic" marker-end="url(#gaa1df90b-6e48-4ccc-b6db-c35a81a40f7c-flip_flowchart-v2-pointEnd)"></path><path d="M113.184,216.8L113.184,220.967C113.184,225.133,113.184,233.467,117.854,241.383C122.523,249.299,131.863,256.797,136.533,260.546L141.202,264.296" id="gaa1df90b-6e48-4ccc-b6db-c35a81a40f7c-flip-L_BLOCKS_WIDGETS_0" class="edge-thickness-normal edge-pattern-solid edge-thickness-normal edge-pattern-solid flowchart-link" style=";" data-edge="true" data-et="edge" data-id="L_BLOCKS_WIDGETS_0" data-points="W3sieCI6MTEzLjE4Mzg4NzQ4MTY4OTQ1LCJ5IjoyMTYuNzk5OTk1NDIyMzYzMjh9LHsieCI6MTEzLjE4Mzg4NzQ4MTY4OTQ1LCJ5IjoyNDEuNzk5OTk1NDIyMzYzMjh9LHsieCI6MTQ0LjMyMTUzMjYyMjU3OTcsInkiOjI2Ni43OTk5OTU0MjIzNjMzfV0=" data-look="classic" marker-end="url(#gaa1df90b-6e48-4ccc-b6db-c35a81a40f7c-flip_flowchart-v2-pointEnd)"></path><path d="M185.797,333.4L185.797,337.567C185.797,341.733,185.797,350.067,185.797,357.733C185.797,365.4,185.797,372.4,185.797,375.9L185.797,379.4" id="gaa1df90b-6e48-4ccc-b6db-c35a81a40f7c-flip-L_WIDGETS_REGISTRIES_0" class="edge-thickness-normal edge-pattern-solid edge-thickness-normal edge-pattern-solid flowchart-link" style=";" data-edge="true" data-et="edge" data-id="L_WIDGETS_REGISTRIES_0" data-points="W3sieCI6MTg1Ljc5Njg3NSwieSI6MzMzLjM5OTk5Mzg5NjQ4NDR9LHsieCI6MTg1Ljc5Njg3NSwieSI6MzU4LjM5OTk5Mzg5NjQ4NDR9LHsieCI6MTg1Ljc5Njg3NSwieSI6MzgzLjM5OTk5Mzg5NjQ4NDR9XQ==" data-look="classic" marker-end="url(#gaa1df90b-6e48-4ccc-b6db-c35a81a40f7c-flip_flowchart-v2-pointEnd)"></path><path d="M185.797,450L185.797,454.167C185.797,458.333,185.797,466.667,190.079,474.562C194.36,482.458,202.924,489.915,207.206,493.644L211.488,497.373" id="gaa1df90b-6e48-4ccc-b6db-c35a81a40f7c-flip-L_REGISTRIES_LAYOUT_0" class="edge-thickness-normal edge-pattern-solid edge-thickness-normal edge-pattern-solid flowchart-link" style=";" data-edge="true" data-et="edge" data-id="L_REGISTRIES_LAYOUT_0" data-points="W3sieCI6MTg1Ljc5Njg3NSwieSI6NDQ5Ljk5OTk5MjM3MDYwNTQ3fSx7IngiOjE4NS43OTY4NzUsInkiOjQ3NC45OTk5OTIzNzA2MDU0N30seyJ4IjoyMTQuNTA0MTI3NzM0MTY2MywieSI6NDk5Ljk5OTk5MjM3MDYwNTQ3fV0=" data-look="classic" marker-end="url(#gaa1df90b-6e48-4ccc-b6db-c35a81a40f7c-flip_flowchart-v2-pointEnd)"></path><path d="M252.742,566.6L252.742,570.767C252.742,574.933,252.742,583.267,252.742,590.933C252.742,598.6,252.742,605.6,252.742,609.1L252.742,612.6" id="gaa1df90b-6e48-4ccc-b6db-c35a81a40f7c-flip-L_LAYOUT_PAGES_0" class="edge-thickness-normal edge-pattern-solid edge-thickness-normal edge-pattern-solid flowchart-link" style=";" data-edge="true" data-et="edge" data-id="L_LAYOUT_PAGES_0" data-points="W3sieCI6MjUyLjc0MjE4NzUsInkiOjU2Ni41OTk5OTA4NDQ3MjY2fSx7IngiOjI1Mi43NDIxODc1LCJ5Ijo1OTEuNTk5OTkwODQ0NzI2Nn0seyJ4IjoyNTIuNzQyMTg3NSwieSI6NjE2LjU5OTk5MDg0NDcyNjZ9XQ==" data-look="classic" marker-end="url(#gaa1df90b-6e48-4ccc-b6db-c35a81a40f7c-flip_flowchart-v2-pointEnd)"></path><path d="M287.028,77.501L275.648,83.534C264.267,89.567,241.507,101.634,221.482,113.382C201.458,125.131,184.17,136.563,175.526,142.278L166.882,147.994" id="gaa1df90b-6e48-4ccc-b6db-c35a81a40f7c-flip-L_SDKS_BLOCKS_0" class="edge-thickness-normal edge-pattern-dotted edge-thickness-normal edge-pattern-solid flowchart-link" style=";" data-edge="true" data-et="edge" data-id="L_SDKS_BLOCKS_0" data-points="W3sieCI6Mjg3LjAyODEyMzQyMzUzMjMsInkiOjc3LjUwMTAwNTAwMzAwNDEyfSx7IngiOjIxOC43NDU4MDAwMTgzMTA1NSwieSI6MTEzLjY5OTk5Njk0ODI0MjE5fSx7IngiOjE2My41NDUwODU4MzkyMDYzNywieSI6MTUwLjE5OTk5Njk0ODI0MjJ9XQ==" data-look="classic" marker-end="url(#gaa1df90b-6e48-4ccc-b6db-c35a81a40f7c-flip_flowchart-v2-pointEnd)"></path><path d="M328.264,77.7L324.26,83.7C320.256,89.7,312.247,101.7,308.242,119.333C304.238,136.967,304.238,160.233,304.238,181.583C304.238,202.933,304.238,222.367,296.371,235.956C288.504,249.544,272.771,257.289,264.904,261.161L257.037,265.033" id="gaa1df90b-6e48-4ccc-b6db-c35a81a40f7c-flip-L_SDKS_WIDGETS_0" class="edge-thickness-normal edge-pattern-dotted edge-thickness-normal edge-pattern-solid flowchart-link" style=";" data-edge="true" data-et="edge" data-id="L_SDKS_WIDGETS_0" data-points="W3sieCI6MzI4LjI2NDM4MTMwNzMxOCwieSI6NzcuNjk5OTk2OTQ4MjQyMTl9LHsieCI6MzA0LjIzNzk4NzUxODMxMDU1LCJ5IjoxMTMuNjk5OTk2OTQ4MjQyMTl9LHsieCI6MzA0LjIzNzk4NzUxODMxMDU1LCJ5IjoxODMuNDk5OTk2MTg1MzAyNzN9LHsieCI6MzA0LjIzNzk4NzUxODMxMDU1LCJ5IjoyNDEuNzk5OTk1NDIyMzYzMjh9LHsieCI6MjUzLjQ0ODQ4NzQ4OTAyOTYyLCJ5IjoyNjYuNzk5OTk1NDIyMzYzM31d" data-look="classic" marker-end="url(#gaa1df90b-6e48-4ccc-b6db-c35a81a40f7c-flip_flowchart-v2-pointEnd)"></path><path d="M371.119,77.7L374.649,83.7C378.179,89.7,385.24,101.7,388.77,119.333C392.3,136.967,392.3,160.233,392.3,181.583C392.3,202.933,392.3,222.367,392.3,241.8C392.3,261.233,392.3,280.667,392.3,300.1C392.3,319.533,392.3,338.967,392.3,358.4C392.3,377.833,392.3,397.267,392.3,416.7C392.3,436.133,392.3,455.567,382.941,469.193C373.582,482.819,354.864,490.639,345.505,494.548L336.146,498.458" id="gaa1df90b-6e48-4ccc-b6db-c35a81a40f7c-flip-L_SDKS_LAYOUT_0" class="edge-thickness-normal edge-pattern-dotted edge-thickness-normal edge-pattern-solid flowchart-link" style=";" data-edge="true" data-et="edge" data-id="L_SDKS_LAYOUT_0" data-points="W3sieCI6MzcxLjExODk4NjUyNTU3NzE2LCJ5Ijo3Ny42OTk5OTY5NDgyNDIxOX0seyJ4IjozOTIuMzAwNDg3NTE4MzEwNTUsInkiOjExMy42OTk5OTY5NDgyNDIxOX0seyJ4IjozOTIuMzAwNDg3NTE4MzEwNTUsInkiOjE4My40OTk5OTYxODUzMDI3M30seyJ4IjozOTIuMzAwNDg3NTE4MzEwNTUsInkiOjI0MS43OTk5OTU0MjIzNjMyOH0seyJ4IjozOTIuMzAwNDg3NTE4MzEwNTUsInkiOjMwMC4wOTk5OTQ2NTk0MjM4fSx7IngiOjM5Mi4zMDA0ODc1MTgzMTA1NSwieSI6MzU4LjM5OTk5Mzg5NjQ4NDR9LHsieCI6MzkyLjMwMDQ4NzUxODMxMDU1LCJ5Ijo0MTYuNjk5OTkzMTMzNTQ0OX0seyJ4IjozOTIuMzAwNDg3NTE4MzEwNTUsInkiOjQ3NC45OTk5OTIzNzA2MDU0N30seyJ4IjozMzIuNDU1NTg5NjQzMjU0LCJ5Ijo0OTkuOTk5OTkyMzcwNjA1NDd9XQ==" data-look="classic" marker-end="url(#gaa1df90b-6e48-4ccc-b6db-c35a81a40f7c-flip_flowchart-v2-pointEnd)"></path></g><g class="edgeLabels"><g class="edgeLabel"><g class="label" data-id="L_PRIMITIVES_BLOCKS_0" transform="translate(0, 0)"><text y="-10.1" text-anchor="middle"><tspan class="text-outer-tspan row" x="0" y="-0.1em" dy="1.1em" text-anchor="middle"></tspan></text></g></g><g><rect class="background" style="stroke: none"></rect></g><g class="edgeLabel"><g class="label" data-id="L_BLOCKS_WIDGETS_0" transform="translate(0, 0)"><text y="-10.1" text-anchor="middle"><tspan class="text-outer-tspan row" x="0" y="-0.1em" dy="1.1em" text-anchor="middle"></tspan></text></g></g><g><rect class="background" style="stroke: none"></rect></g><g class="edgeLabel"><g class="label" data-id="L_WIDGETS_REGISTRIES_0" transform="translate(0, 0)"><text y="-10.1" text-anchor="middle"><tspan class="text-outer-tspan row" x="0" y="-0.1em" dy="1.1em" text-anchor="middle"></tspan></text></g></g><g><rect class="background" style="stroke: none"></rect></g><g class="edgeLabel"><g class="label" data-id="L_REGISTRIES_LAYOUT_0" transform="translate(0, 0)"><text y="-10.1" text-anchor="middle"><tspan class="text-outer-tspan row" x="0" y="-0.1em" dy="1.1em" text-anchor="middle"></tspan></text></g></g><g><rect class="background" style="stroke: none"></rect></g><g class="edgeLabel"><g class="label" data-id="L_LAYOUT_PAGES_0" transform="translate(0, 0)"><text y="-10.1" text-anchor="middle"><tspan class="text-outer-tspan row" x="0" y="-0.1em" dy="1.1em" text-anchor="middle"></tspan></text></g></g><g><rect class="background" style="stroke: none"></rect></g><g class="edgeLabel" transform="translate(223.65261, 111.09872)"><g class="label" data-id="L_SDKS_BLOCKS_0" transform="translate(0, -10.5)"><g><rect class="background" style="" x="-22.234375" y="-1" width="44.46875" height="23"></rect><text y="-10.1" text-anchor="middle" style=""><tspan class="text-outer-tspan row" x="0" y="-0.1em" dy="1.1em" text-anchor="middle"><tspan font-style="normal" class="text-inner-tspan" font-weight="normal">hooks</tspan></tspan></text></g></g></g><g class="edgeLabel" transform="translate(304.23798751831055, 183.49999618530273)"><g class="label" data-id="L_SDKS_WIDGETS_0" transform="translate(0, -10.5)"><g><rect class="background" style="" x="-22.234375" y="-1" width="44.46875" height="23"></rect><text y="-10.1" text-anchor="middle" style=""><tspan class="text-outer-tspan row" x="0" y="-0.1em" dy="1.1em" text-anchor="middle"><tspan font-style="normal" class="text-inner-tspan" font-weight="normal">hooks</tspan></tspan></text></g></g></g><g class="edgeLabel" transform="translate(392.30048751831055, 300.0999946594238)"><g class="label" data-id="L_SDKS_LAYOUT_0" transform="translate(0, -10.5)"><g><rect class="background" style="" x="-22.234375" y="-1" width="44.46875" height="23"></rect><text y="-10.1" text-anchor="middle" style=""><tspan class="text-outer-tspan row" x="0" y="-0.1em" dy="1.1em" text-anchor="middle"><tspan font-style="normal" class="text-inner-tspan" font-weight="normal">hooks</tspan></tspan></text></g></g></g></g><g class="nodes"><g class="node default layer" id="gaa1df90b-6e48-4ccc-b6db-c35a81a40f7c-flip-flowchart-PRIMITIVES-0" data-look="classic" transform="translate(100.3046875, 42.599998474121094)"><rect class="basic label-container" style="fill:#2E5A88 !important;stroke:#1F4870 !important" x="-92.3046875" y="-33.29999923706055" width="184.609375" height="66.5999984741211"></rect><g class="label" style="color:#fff !important" transform="translate(0, -18.299999237060547)"><rect></rect><g><rect class="background" style="stroke: none"></rect><text y="-10.1" style="fill:#fff !important"><tspan class="text-outer-tspan row" x="0" y="-0.1em" dy="1.1em"><tspan font-style="normal" class="text-inner-tspan" font-weight="normal">Primitives</tspan></tspan><tspan class="text-outer-tspan row" x="0" y="1em" dy="1.1em"><tspan font-style="normal" class="text-inner-tspan" font-weight="normal">(@design-system)</tspan></tspan></text></g></g></g><g class="node default layer" id="gaa1df90b-6e48-4ccc-b6db-c35a81a40f7c-flip-flowchart-BLOCKS-1" data-look="classic" transform="translate(113.18388748168945, 183.49999618530273)"><rect class="basic label-container" style="fill:#2E5A88 !important;stroke:#1F4870 !important" x="-71.515625" y="-33.29999923706055" width="143.03125" height="66.5999984741211"></rect><g class="label" style="color:#fff !important" transform="translate(0, -18.299999237060547)"><rect></rect><g><rect class="background" style="stroke: none"></rect><text y="-10.1" style="fill:#fff !important"><tspan class="text-outer-tspan row" x="0" y="-0.1em" dy="1.1em"><tspan font-style="normal" class="text-inner-tspan" font-weight="normal">Blocks</tspan></tspan><tspan class="text-outer-tspan row" x="0" y="1em" dy="1.1em"><tspan font-style="normal" class="text-inner-tspan" font-weight="normal">(@blocks/*)</tspan></tspan></text></g></g></g><g class="node default layer" id="gaa1df90b-6e48-4ccc-b6db-c35a81a40f7c-flip-flowchart-WIDGETS-3" data-look="classic" transform="translate(185.796875, 300.0999946594238)"><rect class="basic label-container" style="fill:#2E5A88 !important;stroke:#1F4870 !important" x="-76.65625" y="-33.29999923706055" width="153.3125" height="66.5999984741211"></rect><g class="label" style="color:#fff !important" transform="translate(0, -18.299999237060547)"><rect></rect><g><rect class="background" style="stroke: none"></rect><text y="-10.1" style="fill:#fff !important"><tspan class="text-outer-tspan row" x="0" y="-0.1em" dy="1.1em"><tspan font-style="normal" class="text-inner-tspan" font-weight="normal">Widgets</tspan></tspan><tspan class="text-outer-tspan row" x="0" y="1em" dy="1.1em"><tspan font-style="normal" class="text-inner-tspan" font-weight="normal">(@widgets/*)</tspan></tspan></text></g></g></g><g class="node default layer" id="gaa1df90b-6e48-4ccc-b6db-c35a81a40f7c-flip-flowchart-REGISTRIES-5" data-look="classic" transform="translate(185.796875, 416.6999931335449)"><rect class="basic label-container" style="fill:#2E5A88 !important;stroke:#1F4870 !important" x="-82.34375" y="-33.29999923706055" width="164.6875" height="66.5999984741211"></rect><g class="label" style="color:#fff !important" transform="translate(0, -18.299999237060547)"><rect></rect><g><rect class="background" style="stroke: none"></rect><text y="-10.1" style="fill:#fff !important"><tspan class="text-outer-tspan row" x="0" y="-0.1em" dy="1.1em"><tspan font-style="normal" class="text-inner-tspan" font-weight="normal">Registries</tspan></tspan><tspan class="text-outer-tspan row" x="0" y="1em" dy="1.1em"><tspan font-style="normal" class="text-inner-tspan" font-weight="normal">(@registries/*)</tspan></tspan></text></g></g></g><g class="node default layer" id="gaa1df90b-6e48-4ccc-b6db-c35a81a40f7c-flip-flowchart-LAYOUT-7" data-look="classic" transform="translate(252.7421875, 533.299991607666)"><rect class="basic label-container" style="fill:#2E5A88 !important;stroke:#1F4870 !important" x="-80.140625" y="-33.29999923706055" width="160.28125" height="66.5999984741211"></rect><g class="label" style="color:#fff !important" transform="translate(0, -18.299999237060547)"><rect></rect><g><rect class="background" style="stroke: none"></rect><text y="-10.1" style="fill:#fff !important"><tspan class="text-outer-tspan row" x="0" y="-0.1em" dy="1.1em"><tspan font-style="normal" class="text-inner-tspan" font-weight="normal">Layout</tspan><tspan font-style="normal" class="text-inner-tspan" font-weight="normal"> Engine</tspan></tspan><tspan class="text-outer-tspan row" x="0" y="1em" dy="1.1em"><tspan font-style="normal" class="text-inner-tspan" font-weight="normal">(@layout/*)</tspan></tspan></text></g></g></g><g class="node default shell" id="gaa1df90b-6e48-4ccc-b6db-c35a81a40f7c-flip-flowchart-PAGES-9" data-look="classic" transform="translate(252.7421875, 649.8999900817871)"><rect class="basic label-container" style="fill:#5A5A5A !important;stroke:#3D3D3D !important" x="-99.5" y="-33.29999923706055" width="199" height="66.5999984741211"></rect><g class="label" style="color:#fff !important" transform="translate(0, -18.299999237060547)"><rect></rect><g><rect class="background" style="stroke: none"></rect><text y="-10.1" style="fill:#fff !important"><tspan class="text-outer-tspan row" x="0" y="-0.1em" dy="1.1em"><tspan font-style="normal" class="text-inner-tspan" font-weight="normal">Pages</tspan></tspan><tspan class="text-outer-tspan row" x="0" y="1em" dy="1.1em"><tspan font-style="normal" class="text-inner-tspan" font-weight="normal">(framework</tspan><tspan font-style="normal" class="text-inner-tspan" font-weight="normal"> routes)</tspan></tspan></text></g></g></g><g class="node default sdk" id="gaa1df90b-6e48-4ccc-b6db-c35a81a40f7c-flip-flowchart-SDKS-10" data-look="classic" transform="translate(350.06611251831055, 42.599998474121094)"><g class="basic label-container outer-path"><path d="M-59.99531364440918 -34.599998474121094 C-20.031336203993618 -34.599998474121094, 19.932641236421944 -34.599998474121094, 59.99531364440918 -34.599998474121094 C59.99531364440918 -34.599998474121094, 59.99531364440918 -34.599998474121094, 59.99531364440918 -34.599998474121094 C60.80332308546327 -34.57408718404145, 61.61133252651736 -34.54817589396182, 62.212143157978446 -34.52890906641781 C63.085304409845754 -34.444676250580216, 63.958465661713056 -34.36044343474262, 64.41986324356802 -34.315932964932855 C64.97160003343514 -34.22673243952985, 65.52333682330226 -34.137531914126846, 66.60940190579174 -33.96194533415045 C67.18591707059623 -33.830359509896866, 67.76243223540072 -33.698773685643275, 68.77176186063195 -33.46840078517559 C69.19929952508086 -33.34150985055815, 69.62683718952978 -33.21461891594071, 70.89805750720947 -32.83732739842499 C71.31502288541182 -32.68388028486082, 71.73198826361418 -32.53043317129665, 72.97955144062351 -32.071318389809626 C73.66294664537669 -31.768799604863872, 74.34634185012986 -31.466280819918122, 75.00769035582265 -31.173521454654313 C75.62921910200401 -30.849270305879656, 76.25074784818537 -30.525019157105, 76.97414019496986 -30.147625833142445 C77.472224328601 -29.84568430426798, 77.97030846223214 -29.54374277539352, 78.87082039387397 -28.997847150436726 C79.55353413499506 -28.52161559883217, 80.23624787611615 -28.045384047227618, 80.689937086761 -27.72891009377116 C81.35456513175887 -27.198886914380417, 82.01919317675674 -26.668863734989678, 82.42401513294061 -26.34602899769773 C82.8097256325982 -25.99573692724929, 83.19543613225581 -25.645444856800847, 84.06592883376248 -24.854886417267256 C84.66621420701557 -24.235042485037734, 85.26649958026867 -23.61519855280821, 85.60893121364052 -23.261609777191822 C86.01167353541257 -22.78852572935106, 86.41441585718462 -22.3154416815103, 87.04668174482285 -21.572746192942244 C87.31537466793752 -21.212722154397447, 87.58406759105219 -20.85269811585265, 88.3732724019803 -19.795235567246333 C88.810702850087 -19.123224932432272, 89.2481332981937 -18.451214297618215, 89.58325193954985 -17.936382072539885 C89.80743539851746 -17.538321640106073, 90.03161885748506 -17.140261207672257, 90.67164829207181 -16.00382413655548 C91.04169206933388 -15.23542031540234, 91.41173584659595 -14.467016494249203, 91.63398900547335 -14.00550305438447 C91.9112027979026 -13.320779627520151, 92.18841659033185 -12.636056200655831, 92.46631961534172 -11.949630355992008 C92.73021463288764 -11.154820609104757, 92.99410965043357 -10.360010862217507, 93.16521989666657 -9.844654063279089 C93.37485081165954 -9.04524052979763, 93.58448172665251 -8.24582699631617, 93.72781791827833 -7.699223975348483 C93.87514049626648 -6.9427536740171965, 94.02246307425465 -6.18628337268591, 94.15180184422928 -5.5221561246248205 C94.22653947394102 -4.942505827194987, 94.30127710365274 -4.362855529765153, 94.43542943362345 -3.3223965498862853 C94.47473381458774 -2.7101990904423583, 94.514038195552 -2.0980016309984313, 94.57753519985805 -1.1089845350724425 C94.57753519985805 -0.37564737452182506, 94.57753519985805 0.3576897860287924, 94.57753519985805 1.108984535072434 C94.54306418160337 1.6458984688941172, 94.5085931633487 2.1828124027158, 94.43542943362345 3.3223965498862618 C94.35480194274368 3.9477274474509025, 94.27417445186389 4.573058345015543, 94.1518018442293 5.5221561246247965 C94.05404031015914 6.024140940167476, 93.956278776089 6.526125755710156, 93.72781791827833 7.699223975348475 C93.59500820968725 8.205684954298063, 93.46219850109618 8.712145933247651, 93.16521989666658 9.844654063279066 C92.99407292076842 10.360121486116874, 92.82292594487025 10.875588908954681, 92.46631961534172 11.949630355991985 C92.17771721234233 12.662483871148359, 91.88911480934293 13.375337386304734, 91.63398900547335 14.00550305438446 C91.41102912134859 14.468484024346829, 91.18806923722383 14.931464994309197, 90.67164829207181 16.003824136555473 C90.40450118813175 16.478170871178687, 90.1373540841917 16.9525176058019, 89.58325193954985 17.936382072539878 C89.29291734291671 18.382413978723825, 89.00258274628355 18.828445884907772, 88.37327240198032 19.795235567246316 C87.9326595100987 20.385616701707463, 87.49204661821707 20.975997836168613, 87.04668174482285 21.572746192942237 C86.71029653798212 21.967883397757863, 86.3739113311414 22.36302060257349, 85.60893121364053 23.2616097771918 C85.12322393487165 23.763142419829876, 84.63751665610276 24.26467506246795, 84.06592883376248 24.854886417267245 C83.56997420629517 25.30529928769269, 83.07401957882786 25.75571215811814, 82.42401513294064 26.346028997697704 C81.80739980371672 26.837763313930747, 81.1907844744928 27.32949763016379, 80.68993708676102 27.728910093771155 C80.16488912635154 28.09516082199293, 79.63984116594206 28.461411550214706, 78.87082039387398 28.997847150436716 C78.24455109518009 29.37749527967187, 77.61828179648619 29.757143408907023, 76.97414019496986 30.147625833142442 C76.3023409879406 30.49810304914168, 75.63054178091133 30.848580265140917, 75.00769035582265 31.173521454654306 C74.46616161509125 31.413240164296752, 73.92463287435986 31.6529588739392, 72.97955144062354 32.07131838980962 C72.33316962441646 32.309192873261836, 71.68678780820939 32.547067356714045, 70.8980575072095 32.83732739842498 C70.05652136796239 33.08709090724019, 69.21498522871529 33.336854416055395, 68.77176186063198 33.46840078517558 C68.33224476950654 33.56871769310791, 67.8927276783811 33.66903460104023, 66.60940190579176 33.96194533415045 C65.83813389488921 34.08663796488042, 65.06686588398667 34.211330595610384, 64.41986324356805 34.31593296493285 C63.867519659026875 34.36921688624319, 63.31517607448571 34.422500807553526, 62.212143157978446 34.52890906641781 C61.68777147897206 34.54572464553599, 61.163399799965674 34.56254022465417, 59.99531364440919 34.599998474121094 C59.99531364440919 34.599998474121094, 59.99531364440918 34.599998474121094, 59.99531364440918 34.599998474121094 C25.51399384335585 34.599998474121094, -8.967325957697483 34.599998474121094, -59.99531364440917 34.599998474121094 C-60.82298792355251 34.573456570959216, -61.65066220269584 34.546914667797346, -62.21214315797843 34.52890906641781 C-62.70673053415331 34.48119681706657, -63.201317910328186 34.43348456771532, -64.41986324356803 34.31593296493285 C-65.001247697982 34.22193923504698, -65.58263215239595 34.127945505161115, -66.60940190579174 33.96194533415045 C-67.31939273091098 33.799894561440105, -68.0293835560302 33.63784378872976, -68.77176186063194 33.46840078517559 C-69.35100865533218 33.296483377037035, -69.9302554500324 33.12456596889848, -70.89805750720946 32.837327398424996 C-71.39512396695434 32.65440234640689, -71.89219042669924 32.47147729438879, -72.97955144062352 32.071318389809626 C-73.44876064307304 31.86361339448169, -73.91796984552255 31.65590839915375, -75.00769035582263 31.173521454654317 C-75.47797608044357 30.928173693351955, -75.94826180506452 30.682825932049596, -76.97414019496986 30.14762583314245 C-77.58187322523497 29.779214498760034, -78.18960625550007 29.41080316437762, -78.87082039387394 28.99784715043674 C-79.43132428542847 28.606863899510703, -79.991828176983 28.215880648584665, -80.689937086761 27.728910093771162 C-81.26352833803708 27.27148633478274, -81.83711958931313 26.814062575794313, -82.42401513294061 26.346028997697733 C-82.77713206808092 26.025337540165435, -83.13024900322121 25.704646082633136, -84.06592883376246 24.85488641726727 C-84.54838893843231 24.35670674848439, -85.03084904310218 23.858527079701513, -85.60893121364052 23.261609777191815 C-85.93045382069822 22.883931027787224, -86.25197642775592 22.50625227838263, -87.04668174482285 21.57274619294225 C-87.34135228412119 21.177914515320854, -87.63602282341954 20.783082837699457, -88.3732724019803 19.795235567246337 C-88.7927686334148 19.150776705252248, -89.2122648648493 18.50631784325816, -89.58325193954984 17.9363820725399 C-89.85641542693652 17.451352639882312, -90.1295789143232 16.966323207224725, -90.67164829207181 16.003824136555483 C-91.00484813441165 15.311927534602265, -91.3380479767515 14.620030932649046, -91.63398900547335 14.005503054384473 C-91.89624718363702 13.357720283903296, -92.15850536180068 12.709937513422119, -92.46631961534172 11.949630355992014 C-92.71542055376656 11.199378018301065, -92.9645214921914 10.449125680610114, -93.16521989666657 9.84465406327908 C-93.29794074159516 9.338531959988337, -93.43066158652374 8.832409856697593, -93.72781791827833 7.699223975348487 C-93.82111364121884 7.220170156107002, -93.91440936415935 6.741116336865517, -94.15180184422928 5.522156124624825 C-94.23501309926182 4.8767860625133554, -94.31822435429436 4.231416000401887, -94.43542943362344 3.3223965498863053 C-94.48986956092459 2.474447623891104, -94.54430968822574 1.6264986978959033, -94.57753519985805 1.108984535072447 C-94.57753519985805 0.3308823081710962, -94.57753519985805 -0.4472199187302546, -94.57753519985805 -1.10898453507243 C-94.54288533728847 -1.6486841134593901, -94.50823547471887 -2.18838369184635, -94.43542943362345 -3.3223965498862578 C-94.32431647131344 -4.1841667438266015, -94.2132035090034 -5.045936937766946, -94.1518018442293 -5.522156124624808 C-94.04322178286776 -6.079691791312197, -93.93464172150622 -6.637227457999584, -93.72781791827833 -7.699223975348471 C-93.5738874436464 -8.286227589009737, -93.41995696901448 -8.873231202671004, -93.16521989666658 -9.844654063279062 C-92.89477348383126 -10.659195568954893, -92.62432707099593 -11.473737074630723, -92.46631961534173 -11.94963035599197 C-92.1857641843985 -12.642607694592012, -91.90520875345526 -13.335585033192055, -91.63398900547335 -14.005503054384455 C-91.3312492889588 -14.63414855331916, -91.02850957244426 -15.262794052253868, -90.67164829207181 -16.00382413655547 C-90.29188702366638 -16.678128723607664, -89.91212575526094 -17.352433310659862, -89.58325193954985 -17.93638207253989 C-89.25389282286987 -18.442366121066666, -88.9245337061899 -18.948350169593443, -88.3732724019803 -19.795235567246326 C-87.87657811803558 -20.460760657952118, -87.37988383409085 -21.126285748657914, -87.04668174482285 -21.572746192942237 C-86.51553269802352 -22.19666408654968, -85.98438365122419 -22.820581980157126, -85.60893121364053 -23.2616097771918 C-85.08203325119607 -23.805675182542934, -84.5551352887516 -24.34974058789407, -84.0659288337625 -24.854886417267235 C-83.57832629183207 -25.297714144592153, -83.09072374990166 -25.740541871917074, -82.42401513294065 -26.3460289976977 C-81.74403997994494 -26.88829108731302, -81.06406482694923 -27.430553176928345, -80.68993708676102 -27.72891009377115 C-80.02765970128416 -28.190886128353856, -79.36538231580732 -28.652862162936565, -78.87082039387398 -28.997847150436712 C-78.41593367603619 -29.273602152001054, -77.96104695819841 -29.549357153565396, -76.97414019496986 -30.14762583314244 C-76.31686632093178 -30.4905251922241, -75.65959244689368 -30.833424551305765, -75.00769035582266 -31.173521454654306 C-74.26881619837137 -31.500599126234853, -73.52994204092009 -31.827676797815403, -72.97955144062354 -32.07131838980962 C-72.47629117886883 -32.256522818222216, -71.97303091711413 -32.441727246634805, -70.8980575072095 -32.83732739842498 C-70.1293571404282 -33.06547363229511, -69.3606567736469 -33.29361986616524, -68.771761860632 -33.46840078517558 C-68.3154251160635 -33.57255666924779, -67.85908837149498 -33.676712553319994, -66.60940190579176 -33.96194533415044 C-65.73436297931276 -34.10341484175534, -64.85932405283378 -34.24488434936024, -64.41986324356805 -34.31593296493285 C-63.86727953582199 -34.369240050639974, -63.31469582807593 -34.42254713634709, -62.21214315797845 -34.52890906641781 C-61.66577412251107 -34.54643005794244, -61.119405087043674 -34.563951049467065, -59.99531364440919 -34.599998474121094 C-59.99531364440919 -34.599998474121094, -59.99531364440918 -34.599998474121094, -59.99531364440918 -34.599998474121094" stroke="none" stroke-width="0" fill="#8B5E15" style="fill:#8B5E15 !important;stroke:#6E4810 !important"></path><path d="M-59.99531364440918 -34.599998474121094 C-12.345668908281468 -34.599998474121094, 35.303975827846244 -34.599998474121094, 59.99531364440918 -34.599998474121094 M-59.99531364440918 -34.599998474121094 C-17.370840389931907 -34.599998474121094, 25.253632864545366 -34.599998474121094, 59.99531364440918 -34.599998474121094 M59.99531364440918 -34.599998474121094 C59.99531364440918 -34.599998474121094, 59.99531364440918 -34.599998474121094, 59.99531364440918 -34.599998474121094 M59.99531364440918 -34.599998474121094 C59.99531364440918 -34.599998474121094, 59.99531364440918 -34.599998474121094, 59.99531364440918 -34.599998474121094 M59.99531364440918 -34.599998474121094 C60.77300440094374 -34.57505944524226, 61.5506951574783 -34.55012041636342, 62.212143157978446 -34.52890906641781 M59.99531364440918 -34.599998474121094 C60.68341692068693 -34.57793234136264, 61.37152019696469 -34.555866208604186, 62.212143157978446 -34.52890906641781 M62.212143157978446 -34.52890906641781 C63.0136150067731 -34.451592041075514, 63.815086855567756 -34.37427501573322, 64.41986324356802 -34.315932964932855 M62.212143157978446 -34.52890906641781 C62.697808580136844 -34.48205750724032, 63.18347400229524 -34.43520594806282, 64.41986324356802 -34.315932964932855 M64.41986324356802 -34.315932964932855 C64.91599337265258 -34.23572249320908, 65.41212350173713 -34.1555120214853, 66.60940190579174 -33.96194533415045 M64.41986324356802 -34.315932964932855 C65.15782392351753 -34.19662520516916, 65.89578460346704 -34.07731744540548, 66.60940190579174 -33.96194533415045 M66.60940190579174 -33.96194533415045 C67.08111092790983 -33.854280828041034, 67.55281995002791 -33.746616321931626, 68.77176186063195 -33.46840078517559 M66.60940190579174 -33.96194533415045 C67.3611008936451 -33.79037494546724, 68.11279988149846 -33.61880455678403, 68.77176186063195 -33.46840078517559 M68.77176186063195 -33.46840078517559 C69.41488948770827 -33.27752388130514, 70.05801711478458 -33.0866469774347, 70.89805750720947 -32.83732739842499 M68.77176186063195 -33.46840078517559 C69.46450861758579 -33.26279718401362, 70.15725537453963 -33.05719358285165, 70.89805750720947 -32.83732739842499 M70.89805750720947 -32.83732739842499 C71.71121759454445 -32.53807696951627, 72.52437768187943 -32.238826540607555, 72.97955144062351 -32.071318389809626 M70.89805750720947 -32.83732739842499 C71.48209070968002 -32.62239778117208, 72.06612391215059 -32.40746816391918, 72.97955144062351 -32.071318389809626 M72.97955144062351 -32.071318389809626 C73.61703159627821 -31.789124835078233, 74.2545117519329 -31.506931280346837, 75.00769035582265 -31.173521454654313 M72.97955144062351 -32.071318389809626 C73.66451501066287 -31.768105336075585, 74.34947858070221 -31.46489228234155, 75.00769035582265 -31.173521454654313 M75.00769035582265 -31.173521454654313 C75.45883573815814 -30.938159197662294, 75.90998112049364 -30.702796940670275, 76.97414019496986 -30.147625833142445 M75.00769035582265 -31.173521454654313 C75.42542636847519 -30.955588844426167, 75.84316238112773 -30.737656234198024, 76.97414019496986 -30.147625833142445 M76.97414019496986 -30.147625833142445 C77.73192745006064 -29.6882507458542, 78.48971470515141 -29.228875658565958, 78.87082039387397 -28.997847150436726 M76.97414019496986 -30.147625833142445 C77.45492994495484 -29.856168261267367, 77.9357196949398 -29.564710689392285, 78.87082039387397 -28.997847150436726 M78.87082039387397 -28.997847150436726 C79.38853947402534 -28.636708731820903, 79.90625855417669 -28.275570313205076, 80.689937086761 -27.72891009377116 M78.87082039387397 -28.997847150436726 C79.57618456011951 -28.505815642786455, 80.28154872636506 -28.013784135136184, 80.689937086761 -27.72891009377116 M80.689937086761 -27.72891009377116 C81.06827130365518 -27.42719862369439, 81.44660552054935 -27.125487153617627, 82.42401513294061 -26.34602899769773 M80.689937086761 -27.72891009377116 C81.29200824986073 -27.248774362985657, 81.89407941296044 -26.76863863220015, 82.42401513294061 -26.34602899769773 M82.42401513294061 -26.34602899769773 C82.99686339744936 -25.825783360605403, 83.56971166195811 -25.305537723513076, 84.06592883376248 -24.854886417267256 M82.42401513294061 -26.34602899769773 C82.96870596650685 -25.851355194382595, 83.51339680007308 -25.356681391067465, 84.06592883376248 -24.854886417267256 M84.06592883376248 -24.854886417267256 C84.67401619067286 -24.226986296356813, 85.28210354758325 -23.59908617544637, 85.60893121364052 -23.261609777191822 M84.06592883376248 -24.854886417267256 C84.58357867604175 -24.32037045527147, 85.10122851832102 -23.78585449327568, 85.60893121364052 -23.261609777191822 M85.60893121364052 -23.261609777191822 C86.05605497233337 -22.73639276816859, 86.50317873102621 -22.211175759145355, 87.04668174482285 -21.572746192942244 M85.60893121364052 -23.261609777191822 C86.05997487057483 -22.731788232645638, 86.51101852750914 -22.201966688099454, 87.04668174482285 -21.572746192942244 M87.04668174482285 -21.572746192942244 C87.45518577643045 -21.02538800607093, 87.86368980803805 -20.47802981919962, 88.3732724019803 -19.795235567246333 M87.04668174482285 -21.572746192942244 C87.37220876583828 -21.136569640903254, 87.69773578685373 -20.700393088864264, 88.3732724019803 -19.795235567246333 M88.3732724019803 -19.795235567246333 C88.74917929100697 -19.217741640568025, 89.12508618003363 -18.640247713889718, 89.58325193954985 -17.936382072539885 M88.3732724019803 -19.795235567246333 C88.84372414699332 -19.07249535292437, 89.31417589200635 -18.34975513860241, 89.58325193954985 -17.936382072539885 M89.58325193954985 -17.936382072539885 C89.90641999946082 -17.362564457853388, 90.22958805937179 -16.78874684316689, 90.67164829207181 -16.00382413655548 M89.58325193954985 -17.936382072539885 C89.94311337126193 -17.297411660613722, 90.302974802974 -16.65844124868756, 90.67164829207181 -16.00382413655548 M90.67164829207181 -16.00382413655548 C90.94697846763593 -15.432095135874558, 91.22230864320005 -14.860366135193637, 91.63398900547335 -14.00550305438447 M90.67164829207181 -16.00382413655548 C90.95183608121881 -15.422008197333406, 91.23202387036584 -14.840192258111333, 91.63398900547335 -14.00550305438447 M91.63398900547335 -14.00550305438447 C91.94472908994719 -13.237969037983257, 92.25546917442104 -12.470435021582045, 92.46631961534172 -11.949630355992008 M91.63398900547335 -14.00550305438447 C91.81477749490713 -13.55895199017539, 91.9955659843409 -13.112400925966309, 92.46631961534172 -11.949630355992008 M92.46631961534172 -11.949630355992008 C92.65520209596997 -11.38074641867612, 92.8440845765982 -10.811862481360231, 93.16521989666657 -9.844654063279089 M92.46631961534172 -11.949630355992008 C92.63641293608441 -11.43733637460533, 92.8065062568271 -10.92504239321865, 93.16521989666657 -9.844654063279089 M93.16521989666657 -9.844654063279089 C93.30405179768633 -9.315227854564267, 93.44288369870607 -8.785801645849443, 93.72781791827833 -7.699223975348483 M93.16521989666657 -9.844654063279089 C93.37346532585681 -9.050523987636783, 93.58171075504706 -8.256393911994476, 93.72781791827833 -7.699223975348483 M93.72781791827833 -7.699223975348483 C93.88262569697754 -6.904318750363679, 94.03743347567674 -6.109413525378875, 94.15180184422928 -5.5221561246248205 M93.72781791827833 -7.699223975348483 C93.89682637274018 -6.831401281636417, 94.06583482720201 -5.963578587924351, 94.15180184422928 -5.5221561246248205 M94.15180184422928 -5.5221561246248205 C94.21735375126669 -5.013748478330996, 94.28290565830407 -4.505340832037171, 94.43542943362345 -3.3223965498862853 M94.15180184422928 -5.5221561246248205 C94.25056937674101 -4.75613464631917, 94.34933690925276 -3.9901131680135187, 94.43542943362345 -3.3223965498862853 M94.43542943362345 -3.3223965498862853 C94.46498587666218 -2.862031092026707, 94.4945423197009 -2.401665634167129, 94.57753519985805 -1.1089845350724425 M94.43542943362345 -3.3223965498862853 C94.48039592206202 -2.6220071961595455, 94.52536241050056 -1.9216178424328054, 94.57753519985805 -1.1089845350724425 M94.57753519985805 -1.1089845350724425 C94.57753519985805 -0.2710863130144847, 94.57753519985805 0.5668119090434731, 94.57753519985805 1.108984535072434 M94.57753519985805 -1.1089845350724425 C94.57753519985805 -0.5206440649404726, 94.57753519985805 0.06769640519149744, 94.57753519985805 1.108984535072434 M94.57753519985805 1.108984535072434 C94.52574618055702 1.9156403140298695, 94.473957161256 2.722296092987305, 94.43542943362345 3.3223965498862618 M94.57753519985805 1.108984535072434 C94.54404303176388 1.6306520875305712, 94.51055086366972 2.152319639988708, 94.43542943362345 3.3223965498862618 M94.43542943362345 3.3223965498862618 C94.32771280094948 4.157825481850519, 94.21999616827551 4.993254413814777, 94.1518018442293 5.5221561246247965 M94.43542943362345 3.3223965498862618 C94.3680442402315 3.8450228031227005, 94.30065904683956 4.36764905635914, 94.1518018442293 5.5221561246247965 M94.1518018442293 5.5221561246247965 C94.04080331321276 6.092110121846862, 93.92980478219623 6.662064119068929, 93.72781791827833 7.699223975348475 M94.1518018442293 5.5221561246247965 C94.00846714286534 6.258149522328833, 93.86513244150139 6.9941429200328695, 93.72781791827833 7.699223975348475 M93.72781791827833 7.699223975348475 C93.55544204961754 8.356567870726169, 93.38306618095673 9.013911766103861, 93.16521989666658 9.844654063279066 M93.72781791827833 7.699223975348475 C93.53669212057443 8.428069476438203, 93.34556632287051 9.156914977527933, 93.16521989666658 9.844654063279066 M93.16521989666658 9.844654063279066 C93.01627954550224 10.293238670563778, 92.86733919433789 10.74182327784849, 92.46631961534172 11.949630355991985 M93.16521989666658 9.844654063279066 C92.90452189759857 10.629834899886545, 92.64382389853056 11.415015736494023, 92.46631961534172 11.949630355991985 M92.46631961534172 11.949630355991985 C92.20101170024209 12.604946035667641, 91.93570378514248 13.260261715343297, 91.63398900547335 14.00550305438446 M92.46631961534172 11.949630355991985 C92.20706112649111 12.59000383587488, 91.9478026376405 13.230377315757773, 91.63398900547335 14.00550305438446 M91.63398900547335 14.00550305438446 C91.39400736340833 14.503830068917042, 91.15402572134332 15.002157083449623, 90.67164829207181 16.003824136555473 M91.63398900547335 14.00550305438446 C91.30846657862428 14.681457338800715, 90.98294415177521 15.357411623216969, 90.67164829207181 16.003824136555473 M90.67164829207181 16.003824136555473 C90.40989632533078 16.468591258764945, 90.14814435858973 16.933358380974422, 89.58325193954985 17.936382072539878 M90.67164829207181 16.003824136555473 C90.25384319723047 16.745679389799765, 89.83603810238914 17.48753464304406, 89.58325193954985 17.936382072539878 M89.58325193954985 17.936382072539878 C89.22691116738457 18.48381718948107, 88.87057039521929 19.03125230642226, 88.37327240198032 19.795235567246316 M89.58325193954985 17.936382072539878 C89.18092496534263 18.55446434484177, 88.7785979911354 19.172546617143656, 88.37327240198032 19.795235567246316 M88.37327240198032 19.795235567246316 C87.97357113383738 20.330798853023214, 87.57386986569446 20.866362138800113, 87.04668174482285 21.572746192942237 M88.37327240198032 19.795235567246316 C87.93315298929829 20.384955484536885, 87.49303357661627 20.974675401827454, 87.04668174482285 21.572746192942237 M87.04668174482285 21.572746192942237 C86.68764749360557 21.994488254049692, 86.32861324238829 22.416230315157147, 85.60893121364053 23.2616097771918 M87.04668174482285 21.572746192942237 C86.58317258070093 22.11721043153843, 86.11966341657902 22.66167467013463, 85.60893121364053 23.2616097771918 M85.60893121364053 23.2616097771918 C85.12784207599746 23.758373809961036, 84.6467529383544 24.255137842730267, 84.06592883376248 24.854886417267245 M85.60893121364053 23.2616097771918 C85.29214490586912 23.588717648605336, 84.97535859809773 23.915825520018874, 84.06592883376248 24.854886417267245 M84.06592883376248 24.854886417267245 C83.59284516068207 25.284528492050796, 83.11976148760168 25.714170566834344, 82.42401513294064 26.346028997697704 M84.06592883376248 24.854886417267245 C83.48322812990656 25.38407977909341, 82.90052742605066 25.913273140919575, 82.42401513294064 26.346028997697704 M82.42401513294064 26.346028997697704 C81.83343442667356 26.81700139493308, 81.24285372040649 27.287973792168454, 80.68993708676102 27.728910093771155 M82.42401513294064 26.346028997697704 C81.9828481323897 26.69784794069015, 81.54168113183876 27.049666883682598, 80.68993708676102 27.728910093771155 M80.68993708676102 27.728910093771155 C80.29356993976826 28.005398657056055, 79.8972027927755 28.281887220340952, 78.87082039387398 28.997847150436716 M80.68993708676102 27.728910093771155 C80.01954486711608 28.196546685384007, 79.34915264747116 28.66418327699686, 78.87082039387398 28.997847150436716 M78.87082039387398 28.997847150436716 C78.14764508623303 29.436240271778495, 77.42446977859207 29.874633393120277, 76.97414019496986 30.147625833142442 M78.87082039387398 28.997847150436716 C78.3739138121053 29.2990748404521, 77.8770072303366 29.600302530467484, 76.97414019496986 30.147625833142442 M76.97414019496986 30.147625833142442 C76.3766929926622 30.459313655903152, 75.77924579035454 30.771001478663866, 75.00769035582265 31.173521454654306 M76.97414019496986 30.147625833142442 C76.53170000398532 30.37844659738261, 76.08925981300078 30.609267361622774, 75.00769035582265 31.173521454654306 M75.00769035582265 31.173521454654306 C74.21202392226796 31.525739382182817, 73.41635748871329 31.877957309711327, 72.97955144062354 32.07131838980962 M75.00769035582265 31.173521454654306 C74.22881935487085 31.51830454238833, 73.44994835391904 31.863087630122347, 72.97955144062354 32.07131838980962 M72.97955144062354 32.07131838980962 C72.37219034479901 32.29483288745747, 71.76482924897448 32.51834738510532, 70.8980575072095 32.83732739842498 M72.97955144062354 32.07131838980962 C72.3117727082138 32.317067136215336, 71.64399397580407 32.56281588262105, 70.8980575072095 32.83732739842498 M70.8980575072095 32.83732739842498 C70.31171654116626 33.01135031938008, 69.72537557512301 33.185373240335174, 68.77176186063198 33.46840078517558 M70.8980575072095 32.83732739842498 C70.1639116261708 33.0552180423069, 69.42976574513212 33.27310868618881, 68.77176186063198 33.46840078517558 M68.77176186063198 33.46840078517558 C68.29351855759144 33.57755669826538, 67.81527525455088 33.686712611355176, 66.60940190579176 33.96194533415045 M68.77176186063198 33.46840078517558 C68.22543034042297 33.59309738951694, 67.67909882021397 33.717793993858294, 66.60940190579176 33.96194533415045 M66.60940190579176 33.96194533415045 C66.13846013881543 34.03808354682723, 65.66751837183911 34.11422175950401, 64.41986324356805 34.31593296493285 M66.60940190579176 33.96194533415045 C65.84953972152778 34.084793959283, 65.08967753726381 34.207642584415545, 64.41986324356805 34.31593296493285 M64.41986324356805 34.31593296493285 C63.59477831091882 34.39552791607571, 62.769693378269594 34.475122867218566, 62.212143157978446 34.52890906641781 M64.41986324356805 34.31593296493285 C63.774485984782366 34.37819173290819, 63.12910872599669 34.440450500883536, 62.212143157978446 34.52890906641781 M62.212143157978446 34.52890906641781 C61.43678924998871 34.55377315711221, 60.66143534199899 34.57863724780662, 59.99531364440919 34.599998474121094 M62.212143157978446 34.52890906641781 C61.574602090667184 34.54935376754808, 60.93706102335592 34.56979846867834, 59.99531364440919 34.599998474121094 M59.99531364440919 34.599998474121094 C59.99531364440919 34.599998474121094, 59.99531364440919 34.599998474121094, 59.99531364440918 34.599998474121094 M59.99531364440919 34.599998474121094 C59.99531364440919 34.599998474121094, 59.99531364440919 34.599998474121094, 59.99531364440918 34.599998474121094 M59.99531364440918 34.599998474121094 C30.749348162700056 34.599998474121094, 1.5033826809909314 34.599998474121094, -59.99531364440917 34.599998474121094 M59.99531364440918 34.599998474121094 C34.671413471175676 34.599998474121094, 9.347513297942172 34.599998474121094, -59.99531364440917 34.599998474121094 M-59.99531364440917 34.599998474121094 C-60.76633404968564 34.575273350424055, -61.5373544549621 34.55054822672702, -62.21214315797843 34.52890906641781 M-59.99531364440917 34.599998474121094 C-60.76065086038781 34.57545559924318, -61.52598807636646 34.55091272436526, -62.21214315797843 34.52890906641781 M-62.21214315797843 34.52890906641781 C-62.71227859210564 34.48066160258842, -63.21241402623284 34.43241413875903, -64.41986324356803 34.31593296493285 M-62.21214315797843 34.52890906641781 C-62.74661313921164 34.47734939012244, -63.28108312044485 34.425789713827065, -64.41986324356803 34.31593296493285 M-64.41986324356803 34.31593296493285 C-64.89438449728796 34.23921604859869, -65.36890575100789 34.16249913226454, -66.60940190579174 33.96194533415045 M-64.41986324356803 34.31593296493285 C-65.09568151264244 34.20667190823785, -65.77149978171686 34.097410851542854, -66.60940190579174 33.96194533415045 M-66.60940190579174 33.96194533415045 C-67.3023002363476 33.80379581178524, -67.99519856690347 33.645646289420036, -68.77176186063194 33.46840078517559 M-66.60940190579174 33.96194533415045 C-67.06434857404531 33.85810672592603, -67.5192952422989 33.75426811770161, -68.77176186063194 33.46840078517559 M-68.77176186063194 33.46840078517559 C-69.2992614622735 33.31184167231029, -69.82676106391507 33.155282559444984, -70.89805750720946 32.837327398424996 M-68.77176186063194 33.46840078517559 C-69.50389190193142 33.25110843194691, -70.23602194323092 33.03381607871823, -70.89805750720946 32.837327398424996 M-70.89805750720946 32.837327398424996 C-71.45519135313562 32.632296993035354, -72.01232519906179 32.42726658764571, -72.97955144062352 32.071318389809626 M-70.89805750720946 32.837327398424996 C-71.341175767464 32.67425578251103, -71.78429402771853 32.51118416659707, -72.97955144062352 32.071318389809626 M-72.97955144062352 32.071318389809626 C-73.74886183105573 31.730767500747195, -74.51817222148793 31.390216611684767, -75.00769035582263 31.173521454654317 M-72.97955144062352 32.071318389809626 C-73.54899826689496 31.81924117185919, -74.11844509316637 31.567163953908757, -75.00769035582263 31.173521454654317 M-75.00769035582263 31.173521454654317 C-75.52308978966576 30.904637900147453, -76.03848922350888 30.63575434564059, -76.97414019496986 30.14762583314245 M-75.00769035582263 31.173521454654317 C-75.53796107506595 30.896879560079686, -76.06823179430927 30.62023766550505, -76.97414019496986 30.14762583314245 M-76.97414019496986 30.14762583314245 C-77.40584765602499 29.88592223325619, -77.83755511708011 29.624218633369928, -78.87082039387394 28.99784715043674 M-76.97414019496986 30.14762583314245 C-77.6580362935535 29.733043999161467, -78.34193239213714 29.318462165180488, -78.87082039387394 28.99784715043674 M-78.87082039387394 28.99784715043674 C-79.3286592511672 28.678478583113662, -79.78649810846045 28.359110015790588, -80.689937086761 27.728910093771162 M-78.87082039387394 28.99784715043674 C-79.29854101392036 28.699487761619583, -79.72626163396677 28.40112837280242, -80.689937086761 27.728910093771162 M-80.689937086761 27.728910093771162 C-81.12929763770344 27.378531746269857, -81.56865818864588 27.02815339876855, -82.42401513294061 26.346028997697733 M-80.689937086761 27.728910093771162 C-81.25183880294817 27.28080842794454, -81.81374051913535 26.83270676211792, -82.42401513294061 26.346028997697733 M-82.42401513294061 26.346028997697733 C-82.95368500362474 25.864996835439225, -83.48335487430887 25.383964673180717, -84.06592883376246 24.85488641726727 M-82.42401513294061 26.346028997697733 C-82.7757729858557 26.026571822683028, -83.1275308387708 25.707114647668323, -84.06592883376246 24.85488641726727 M-84.06592883376246 24.85488641726727 C-84.45815710088084 24.449878528927925, -84.85038536799922 24.04487064058858, -85.60893121364052 23.261609777191815 M-84.06592883376246 24.85488641726727 C-84.44773374187744 24.460641502872626, -84.82953864999243 24.066396588477982, -85.60893121364052 23.261609777191815 M-85.60893121364052 23.261609777191815 C-85.97505760490523 22.831536884830435, -86.34118399616996 22.401463992469054, -87.04668174482285 21.57274619294225 M-85.60893121364052 23.261609777191815 C-86.07220957943846 22.717416647439745, -86.53548794523643 22.173223517687674, -87.04668174482285 21.57274619294225 M-87.04668174482285 21.57274619294225 C-87.47302710351133 21.00148225316089, -87.8993724621998 20.43021831337953, -88.3732724019803 19.795235567246337 M-87.04668174482285 21.57274619294225 C-87.33836212288725 21.181921058965045, -87.63004250095165 20.791095924987843, -88.3732724019803 19.795235567246337 M-88.3732724019803 19.795235567246337 C-88.8374310926887 19.082163174257957, -89.3015897833971 18.36909078126958, -89.58325193954984 17.9363820725399 M-88.3732724019803 19.795235567246337 C-88.67274065095229 19.335171918340865, -88.97220889992428 18.87510826943539, -89.58325193954984 17.9363820725399 M-89.58325193954984 17.9363820725399 C-90.01738229639413 17.165539663497317, -90.45151265323844 16.39469725445473, -90.67164829207181 16.003824136555483 M-89.58325193954984 17.9363820725399 C-89.91484141739583 17.347611377548727, -90.24643089524184 16.75884068255755, -90.67164829207181 16.003824136555483 M-90.67164829207181 16.003824136555483 C-90.87970902552703 15.57178157174916, -91.08776975898228 15.139739006942836, -91.63398900547335 14.005503054384473 M-90.67164829207181 16.003824136555483 C-91.02842601740005 15.262967556090977, -91.3852037427283 14.522110975626472, -91.63398900547335 14.005503054384473 M-91.63398900547335 14.005503054384473 C-91.9477700353918 13.230457843942398, -92.26155106531026 12.455412633500323, -92.46631961534172 11.949630355992014 M-91.63398900547335 14.005503054384473 C-91.82809317392683 13.526062005555602, -92.0221973423803 13.046620956726729, -92.46631961534172 11.949630355992014 M-92.46631961534172 11.949630355992014 C-92.61920187461466 11.489173349541957, -92.7720841338876 11.028716343091903, -93.16521989666657 9.84465406327908 M-92.46631961534172 11.949630355992014 C-92.63460465224354 11.442782637423127, -92.80288968914536 10.93593491885424, -93.16521989666657 9.84465406327908 M-93.16521989666657 9.84465406327908 C-93.27782100780948 9.415257224860877, -93.3904221189524 8.985860386442674, -93.72781791827833 7.699223975348487 M-93.16521989666657 9.84465406327908 C-93.29460182233844 9.351264706210992, -93.42398374801029 8.857875349142905, -93.72781791827833 7.699223975348487 M-93.72781791827833 7.699223975348487 C-93.83922369518984 7.127178856527155, -93.95062947210135 6.555133737705822, -94.15180184422928 5.522156124624825 M-93.72781791827833 7.699223975348487 C-93.85551806931527 7.043510689210329, -93.98321822035219 6.387797403072171, -94.15180184422928 5.522156124624825 M-94.15180184422928 5.522156124624825 C-94.21613683251428 5.02318665986677, -94.28047182079928 4.524217195108715, -94.43542943362344 3.3223965498863053 M-94.15180184422928 5.522156124624825 C-94.24200459181068 4.822561426930749, -94.33220733939208 4.122966729236674, -94.43542943362344 3.3223965498863053 M-94.43542943362344 3.3223965498863053 C-94.46813150284801 2.813035425078552, -94.50083357207257 2.3036743002707993, -94.57753519985805 1.108984535072447 M-94.43542943362344 3.3223965498863053 C-94.48468691756426 2.5551714775825762, -94.5339444015051 1.787946405278847, -94.57753519985805 1.108984535072447 M-94.57753519985805 1.108984535072447 C-94.57753519985805 0.6302960929371902, -94.57753519985805 0.1516076508019335, -94.57753519985805 -1.10898453507243 M-94.57753519985805 1.108984535072447 C-94.57753519985805 0.30625264525039386, -94.57753519985805 -0.49647924457165926, -94.57753519985805 -1.10898453507243 M-94.57753519985805 -1.10898453507243 C-94.53048427550549 -1.841840660686236, -94.48343335115291 -2.5746967863000423, -94.43542943362345 -3.3223965498862578 M-94.57753519985805 -1.10898453507243 C-94.54012597753234 -1.6916633689761014, -94.50271675520663 -2.274342202879773, -94.43542943362345 -3.3223965498862578 M-94.43542943362345 -3.3223965498862578 C-94.36551159120852 -3.864665528816878, -94.29559374879358 -4.406934507747499, -94.1518018442293 -5.522156124624808 M-94.43542943362345 -3.3223965498862578 C-94.37253817893787 -3.8101687019446473, -94.30964692425229 -4.297940854003037, -94.1518018442293 -5.522156124624808 M-94.1518018442293 -5.522156124624808 C-94.02501792567541 -6.173164750608326, -93.89823400712152 -6.824173376591843, -93.72781791827833 -7.699223975348471 M-94.1518018442293 -5.522156124624808 C-94.01857770313542 -6.206233932209621, -93.88535356204156 -6.890311739794433, -93.72781791827833 -7.699223975348471 M-93.72781791827833 -7.699223975348471 C-93.53791828876332 -8.42339356570929, -93.3480186592483 -9.147563156070106, -93.16521989666658 -9.844654063279062 M-93.72781791827833 -7.699223975348471 C-93.5320173937514 -8.445896235853784, -93.33621686922447 -9.192568496359097, -93.16521989666658 -9.844654063279062 M-93.16521989666658 -9.844654063279062 C-93.00427114743384 -10.329406052267386, -92.8433223982011 -10.814158041255709, -92.46631961534173 -11.94963035599197 M-93.16521989666658 -9.844654063279062 C-92.93670885230505 -10.53289292060544, -92.70819780794352 -11.221131777931815, -92.46631961534173 -11.94963035599197 M-92.46631961534173 -11.94963035599197 C-92.24677410621638 -12.49191200815523, -92.02722859709104 -13.034193660318493, -91.63398900547335 -14.005503054384455 M-92.46631961534173 -11.94963035599197 C-92.14269572241813 -12.748987628355579, -91.81907182949453 -13.54834490071919, -91.63398900547335 -14.005503054384455 M-91.63398900547335 -14.005503054384455 C-91.27924159895242 -14.742143634403725, -90.92449419243148 -15.478784214422996, -90.67164829207181 -16.00382413655547 M-91.63398900547335 -14.005503054384455 C-91.4080694857 -14.474629771097185, -91.18214996592664 -14.943756487809914, -90.67164829207181 -16.00382413655547 M-90.67164829207181 -16.00382413655547 C-90.38026680523366 -16.521201472011633, -90.0888853183955 -17.038578807467793, -89.58325193954985 -17.93638207253989 M-90.67164829207181 -16.00382413655547 C-90.42068636689457 -16.44943244735823, -90.16972444171734 -16.895040758160995, -89.58325193954985 -17.93638207253989 M-89.58325193954985 -17.93638207253989 C-89.1246197454949 -18.64096428259642, -88.66598755143994 -19.345546492652957, -88.3732724019803 -19.795235567246326 M-89.58325193954985 -17.93638207253989 C-89.16561222317495 -18.57798882885835, -88.74797250680002 -19.219595585176805, -88.3732724019803 -19.795235567246326 M-88.3732724019803 -19.795235567246326 C-87.84841842945421 -20.49849207525074, -87.32356445692812 -21.201748583255153, -87.04668174482285 -21.572746192942237 M-88.3732724019803 -19.795235567246326 C-87.90218012087601 -20.42645630653637, -87.43108783977173 -21.057677045826413, -87.04668174482285 -21.572746192942237 M-87.04668174482285 -21.572746192942237 C-86.75794056888522 -21.911918008036928, -86.46919939294759 -22.251089823131615, -85.60893121364053 -23.2616097771918 M-87.04668174482285 -21.572746192942237 C-86.74524179502878 -21.926834710389407, -86.4438018452347 -22.280923227836578, -85.60893121364053 -23.2616097771918 M-85.60893121364053 -23.2616097771918 C-85.12049471414372 -23.76596056430465, -84.63205821464692 -24.270311351417497, -84.0659288337625 -24.854886417267235 M-85.60893121364053 -23.2616097771918 C-85.23415874173511 -23.648593123826313, -84.85938626982971 -24.035576470460825, -84.0659288337625 -24.854886417267235 M-84.0659288337625 -24.854886417267235 C-83.44880813203609 -25.415339110456138, -82.8316874303097 -25.975791803645045, -82.42401513294065 -26.3460289976977 M-84.0659288337625 -24.854886417267235 C-83.52109915288756 -25.349686318034436, -82.97626947201263 -25.84448621880164, -82.42401513294065 -26.3460289976977 M-82.42401513294065 -26.3460289976977 C-81.99691597580293 -26.68662920992914, -81.5698168186652 -27.027229422160577, -80.68993708676102 -27.72891009377115 M-82.42401513294065 -26.3460289976977 C-81.74303991131359 -26.889088615433586, -81.06206468968652 -27.432148233169467, -80.68993708676102 -27.72891009377115 M-80.68993708676102 -27.72891009377115 C-80.1083286221953 -28.13461498122755, -79.5267201576296 -28.540319868683948, -78.87082039387398 -28.997847150436712 M-80.68993708676102 -27.72891009377115 C-80.09418401275111 -28.144481648465547, -79.4984309387412 -28.560053203159946, -78.87082039387398 -28.997847150436712 M-78.87082039387398 -28.997847150436712 C-78.3986976976656 -29.284050703379165, -77.9265750014572 -29.570254256321622, -76.97414019496986 -30.14762583314244 M-78.87082039387398 -28.997847150436712 C-78.41121436576046 -29.276463025623954, -77.95160833764693 -29.555078900811196, -76.97414019496986 -30.14762583314244 M-76.97414019496986 -30.14762583314244 C-76.33487361852194 -30.48113079660554, -75.695607042074 -30.814635760068644, -75.00769035582266 -31.173521454654306 M-76.97414019496986 -30.14762583314244 C-76.27414006525743 -30.512815452441934, -75.574139935545 -30.87800507174143, -75.00769035582266 -31.173521454654306 M-75.00769035582266 -31.173521454654306 C-74.22826182124 -31.51855134598806, -73.44883328665733 -31.863581237321814, -72.97955144062354 -32.07131838980962 M-75.00769035582266 -31.173521454654306 C-74.24054468384101 -31.51311408707277, -73.47339901185934 -31.85270671949123, -72.97955144062354 -32.07131838980962 M-72.97955144062354 -32.07131838980962 C-72.28566830241166 -32.326673798857, -71.5917851641998 -32.582029207904384, -70.8980575072095 -32.83732739842498 M-72.97955144062354 -32.07131838980962 C-72.54923789564452 -32.2296777521367, -72.11892435066552 -32.38803711446378, -70.8980575072095 -32.83732739842498 M-70.8980575072095 -32.83732739842498 C-70.442152469832 -32.97263762042425, -69.9862474324545 -33.10794784242351, -68.771761860632 -33.46840078517558 M-70.8980575072095 -32.83732739842498 C-70.30819710015697 -33.01239487099771, -69.71833669310445 -33.187462343570445, -68.771761860632 -33.46840078517558 M-68.771761860632 -33.46840078517558 C-68.18092042450006 -33.603256487372, -67.59007898836812 -33.73811218956842, -66.60940190579176 -33.96194533415044 M-68.771761860632 -33.46840078517558 C-68.06243594220183 -33.63029979727307, -67.35311002377168 -33.79219880937055, -66.60940190579176 -33.96194533415044 M-66.60940190579176 -33.96194533415044 C-65.94766374454848 -34.06893002820417, -65.2859255833052 -34.1759147222579, -64.41986324356805 -34.31593296493285 M-66.60940190579176 -33.96194533415044 C-66.07566486830021 -34.04823579917953, -65.54192783080865 -34.134526264208624, -64.41986324356805 -34.31593296493285 M-64.41986324356805 -34.31593296493285 C-63.59544396543367 -34.39546370118523, -62.771024687299295 -34.47499443743761, -62.21214315797845 -34.52890906641781 M-64.41986324356805 -34.31593296493285 C-63.973664181468806 -34.358977251820676, -63.527465119369566 -34.40202153870851, -62.21214315797845 -34.52890906641781 M-62.21214315797845 -34.52890906641781 C-61.40734779786995 -34.554717287177354, -60.60255243776145 -34.5805255079369, -59.99531364440919 -34.599998474121094 M-62.21214315797845 -34.52890906641781 C-61.60770983930593 -34.54829206648956, -61.00327652063341 -34.5676750665613, -59.99531364440919 -34.599998474121094 M-59.99531364440919 -34.599998474121094 C-59.99531364440919 -34.599998474121094, -59.99531364440918 -34.599998474121094, -59.99531364440918 -34.599998474121094 M-59.99531364440919 -34.599998474121094 C-59.99531364440919 -34.599998474121094, -59.99531364440918 -34.599998474121094, -59.99531364440918 -34.599998474121094" stroke="#6E4810" stroke-width="1.3" fill="none" stroke-dasharray="0 0" style="fill:#8B5E15 !important;stroke:#6E4810 !important"></path></g><g class="label" style="color:#fff !important" transform="translate(0, -27.099998474121094)"><rect></rect><g><rect class="background" style="stroke: none"></rect><text y="-10.1" style="fill:#fff !important"><tspan class="text-outer-tspan row" x="0" y="-0.1em" dy="1.1em"><tspan font-style="normal" class="text-inner-tspan" font-weight="normal">SDKs</tspan></tspan><tspan class="text-outer-tspan row" x="0" y="1em" dy="1.1em"><tspan font-style="normal" class="text-inner-tspan" font-weight="normal">(@sdk/*</tspan><tspan font-style="normal" class="text-inner-tspan" font-weight="normal"> -</tspan><tspan font-style="normal" class="text-inner-tspan" font-weight="normal"> injected</tspan><tspan font-style="normal" class="text-inner-tspan" font-weight="normal"> via</tspan></tspan><tspan class="text-outer-tspan row" x="0" y="2.1em" dy="1.1em"><tspan font-style="normal" class="text-inner-tspan" font-weight="normal">Context)</tspan></tspan></text></g></g></g></g></g></g><defs><filter id="gaa1df90b-6e48-4ccc-b6db-c35a81a40f7c-flip-drop-shadow" height="130%" width="130%"><feDropShadow dx="4" dy="4" stdDeviation="0" flood-opacity="0.06" flood-color="#000000"></feDropShadow></filter></defs><defs><filter id="gaa1df90b-6e48-4ccc-b6db-c35a81a40f7c-flip-drop-shadow-small" height="150%" width="150%"><feDropShadow dx="2" dy="2" stdDeviation="0" flood-opacity="0.06" flood-color="#000000"></feDropShadow></filter></defs></svg>