<svg id="gaa1df90b-6e48-4ccc-b6db-c35a81a40f7c-dark" width="100%" xmlns="http://www.w3.org/2000/svg" xmlns:xlink="http://www.w3.org/1999/xlink" class="flowchart" style="max-width: 452.64361572265625px;" viewBox="0 0 452.64361572265625 691.199951171875" role="graphics-document document" aria-roledescription="flowchart-v2"><style>#gaa1df90b-6e48-4ccc-b6db-c35a81a40f7c-dark{font-family:"trebuchet ms",verdana,arial,sans-serif;font-size:16px;fill:#e5e5e5;}@keyframes edge-animation-frame{from{stroke-dashoffset:0;}}@keyframes dash{to{stroke-dashoffset:0;}}#gaa1df90b-6e48-4ccc-b6db-c35a81a40f7c-dark .edge-animation-slow{stroke-dasharray:9,5!important;stroke-dashoffset:900;animation:dash 50s linear infinite;stroke-linecap:round;}#gaa1df90b-6e48-4ccc-b6db-c35a81a40f7c-dark .edge-animation-fast{stroke-dasharray:9,5!important;stroke-dashoffset:900;animation:dash 20s linear infinite;stroke-linecap:round;}#gaa1df90b-6e48-4ccc-b6db-c35a81a40f7c-dark .error-icon{fill:#252525;}#gaa1df90b-6e48-4ccc-b6db-c35a81a40f7c-dark .error-text{fill:#cccccc;stroke:#cccccc;}#gaa1df90b-6e48-4ccc-b6db-c35a81a40f7c-dark .edge-thickness-normal{stroke-width:1px;}#gaa1df90b-6e48-4ccc-b6db-c35a81a40f7c-dark .edge-thickness-thick{stroke-width:3.5px;}#gaa1df90b-6e48-4ccc-b6db-c35a81a40f7c-dark .edge-pattern-solid{stroke-dasharray:0;}#gaa1df90b-6e48-4ccc-b6db-c35a81a40f7c-dark .edge-thickness-invisible{stroke-width:0;fill:none;}#gaa1df90b-6e48-4ccc-b6db-c35a81a40f7c-dark .edge-pattern-dashed{stroke-dasharray:3;}#gaa1df90b-6e48-4ccc-b6db-c35a81a40f7c-dark .edge-pattern-dotted{stroke-dasharray:2;}#gaa1df90b-6e48-4ccc-b6db-c35a81a40f7c-dark .marker{fill:#cccccc;stroke:#cccccc;}#gaa1df90b-6e48-4ccc-b6db-c35a81a40f7c-dark .marker.cross{stroke:#cccccc;}#gaa1df90b-6e48-4ccc-b6db-c35a81a40f7c-dark svg{font-family:"trebuchet ms",verdana,arial,sans-serif;font-size:16px;}#gaa1df90b-6e48-4ccc-b6db-c35a81a40f7c-dark p{margin:0;}#gaa1df90b-6e48-4ccc-b6db-c35a81a40f7c-dark .label{font-family:"trebuchet ms",verdana,arial,sans-serif;color:#e5e5e5;}#gaa1df90b-6e48-4ccc-b6db-c35a81a40f7c-dark .cluster-label text{fill:#e5e5e5;}#gaa1df90b-6e48-4ccc-b6db-c35a81a40f7c-dark .cluster-label span{color:#e5e5e5;}#gaa1df90b-6e48-4ccc-b6db-c35a81a40f7c-dark .cluster-label span p{background-color:transparent;}#gaa1df90b-6e48-4ccc-b6db-c35a81a40f7c-dark .label text,#gaa1df90b-6e48-4ccc-b6db-c35a81a40f7c-dark span{fill:#e5e5e5;color:#e5e5e5;}#gaa1df90b-6e48-4ccc-b6db-c35a81a40f7c-dark .node rect,#gaa1df90b-6e48-4ccc-b6db-c35a81a40f7c-dark .node circle,#gaa1df90b-6e48-4ccc-b6db-c35a81a40f7c-dark .node ellipse,#gaa1df90b-6e48-4ccc-b6db-c35a81a40f7c-dark .node polygon,#gaa1df90b-6e48-4ccc-b6db-c35a81a40f7c-dark .node path{fill:#2d2d2d;stroke:#555555;stroke-width:1px;}#gaa1df90b-6e48-4ccc-b6db-c35a81a40f7c-dark .rough-node .label text,#gaa1df90b-6e48-4ccc-b6db-c35a81a40f7c-dark .node .label text,#gaa1df90b-6e48-4ccc-b6db-c35a81a40f7c-dark .image-shape .label,#gaa1df90b-6e48-4ccc-b6db-c35a81a40f7c-dark .icon-shape .label{text-anchor:middle;}#gaa1df90b-6e48-4ccc-b6db-c35a81a40f7c-dark .node .katex path{fill:#000;stroke:#000;stroke-width:1px;}#gaa1df90b-6e48-4ccc-b6db-c35a81a40f7c-dark .rough-node .label,#gaa1df90b-6e48-4ccc-b6db-c35a81a40f7c-dark .node .label,#gaa1df90b-6e48-4ccc-b6db-c35a81a40f7c-dark .image-shape .label,#gaa1df90b-6e48-4ccc-b6db-c35a81a40f7c-dark .icon-shape .label{text-align:center;}#gaa1df90b-6e48-4ccc-b6db-c35a81a40f7c-dark .node.clickable{cursor:pointer;}#gaa1df90b-6e48-4ccc-b6db-c35a81a40f7c-dark .root .anchor path{fill:#cccccc!important;stroke-width:0;stroke:#cccccc;}#gaa1df90b-6e48-4ccc-b6db-c35a81a40f7c-dark .arrowheadPath{fill:#cccccc;}#gaa1df90b-6e48-4ccc-b6db-c35a81a40f7c-dark .edgePath .path{stroke:#cccccc;stroke-width:1px;}#gaa1df90b-6e48-4ccc-b6db-c35a81a40f7c-dark .flowchart-link{stroke:#cccccc;fill:none;}#gaa1df90b-6e48-4ccc-b6db-c35a81a40f7c-dark .edgeLabel{background-color:#1e1e1e;text-align:center;}#gaa1df90b-6e48-4ccc-b6db-c35a81a40f7c-dark .edgeLabel p{background-color:#1e1e1e;}#gaa1df90b-6e48-4ccc-b6db-c35a81a40f7c-dark .edgeLabel rect{opacity:0.5;background-color:#1e1e1e;fill:#1e1e1e;}#gaa1df90b-6e48-4ccc-b6db-c35a81a40f7c-dark .labelBkg{background-color:rgba(30, 30, 30, 0.5);}#gaa1df90b-6e48-4ccc-b6db-c35a81a40f7c-dark .cluster rect{fill:#1e1e1e;stroke:#555555;stroke-width:1px;}#gaa1df90b-6e48-4ccc-b6db-c35a81a40f7c-dark .cluster text{fill:#e5e5e5;}#gaa1df90b-6e48-4ccc-b6db-c35a81a40f7c-dark .cluster span{color:#e5e5e5;}#gaa1df90b-6e48-4ccc-b6db-c35a81a40f7c-dark div.mermaidTooltip{position:absolute;text-align:center;max-width:200px;padding:2px;font-family:"trebuchet ms",verdana,arial,sans-serif;font-size:12px;background:#252525;border:1px solid #555555;border-radius:2px;pointer-events:none;z-index:100;}#gaa1df90b-6e48-4ccc-b6db-c35a81a40f7c-dark .flowchartTitleText{text-anchor:middle;font-size:18px;fill:#e5e5e5;}#gaa1df90b-6e48-4ccc-b6db-c35a81a40f7c-dark rect.text{fill:none;stroke-width:0;}#gaa1df90b-6e48-4ccc-b6db-c35a81a40f7c-dark .icon-shape,#gaa1df90b-6e48-4ccc-b6db-c35a81a40f7c-dark .image-shape{background-color:#1e1e1e;text-align:center;}#gaa1df90b-6e48-4ccc-b6db-c35a81a40f7c-dark .icon-shape p,#gaa1df90b-6e48-4ccc-b6db-c35a81a40f7c-dark .image-shape p{background-color:#1e1e1e;padding:2px;}#gaa1df90b-6e48-4ccc-b6db-c35a81a40f7c-dark .icon-shape .label rect,#gaa1df90b-6e48-4ccc-b6db-c35a81a40f7c-dark .image-shape .label rect{opacity:0.5;background-color:#1e1e1e;fill:#1e1e1e;}#gaa1df90b-6e48-4ccc-b6db-c35a81a40f7c-dark .label-icon{display:inline-block;height:1em;overflow:visible;vertical-align:-0.125em;}#gaa1df90b-6e48-4ccc-b6db-c35a81a40f7c-dark .node .label-icon path{fill:currentColor;stroke:revert;stroke-width:revert;}#gaa1df90b-6e48-4ccc-b6db-c35a81a40f7c-dark .node .neo-node{stroke:#555555;}#gaa1df90b-6e48-4ccc-b6db-c35a81a40f7c-dark [data-look="neo"].node rect,#gaa1df90b-6e48-4ccc-b6db-c35a81a40f7c-dark [data-look="neo"].cluster rect,#gaa1df90b-6e48-4ccc-b6db-c35a81a40f7c-dark [data-look="neo"].node polygon{stroke:url(#gaa1df90b-6e48-4ccc-b6db-c35a81a40f7c-dark-gradient);filter:drop-shadow( 1px 2px 2px rgba(185,185,185,1));}#gaa1df90b-6e48-4ccc-b6db-c35a81a40f7c-dark [data-look="neo"].node path{stroke:url(#gaa1df90b-6e48-4ccc-b6db-c35a81a40f7c-dark-gradient);stroke-width:1px;}#gaa1df90b-6e48-4ccc-b6db-c35a81a40f7c-dark [data-look="neo"].node .outer-path{filter:drop-shadow( 1px 2px 2px rgba(185,185,185,1));}#gaa1df90b-6e48-4ccc-b6db-c35a81a40f7c-dark [data-look="neo"].node .neo-line path{stroke:#555555;filter:none;}#gaa1df90b-6e48-4ccc-b6db-c35a81a40f7c-dark [data-look="neo"].node circle{stroke:url(#gaa1df90b-6e48-4ccc-b6db-c35a81a40f7c-dark-gradient);filter:drop-shadow( 1px 2px 2px rgba(185,185,185,1));}#gaa1df90b-6e48-4ccc-b6db-c35a81a40f7c-dark [data-look="neo"].node circle .state-start{fill:#000000;}#gaa1df90b-6e48-4ccc-b6db-c35a81a40f7c-dark [data-look="neo"].icon-shape .icon{fill:url(#gaa1df90b-6e48-4ccc-b6db-c35a81a40f7c-dark-gradient);filter:drop-shadow( 1px 2px 2px rgba(185,185,185,1));}#gaa1df90b-6e48-4ccc-b6db-c35a81a40f7c-dark [data-look="neo"].icon-shape .icon-neo path{stroke:url(#gaa1df90b-6e48-4ccc-b6db-c35a81a40f7c-dark-gradient);filter:drop-shadow( 1px 2px 2px rgba(185,185,185,1));}#gaa1df90b-6e48-4ccc-b6db-c35a81a40f7c-dark :root{--mermaid-font-family:"trebuchet ms",verdana,arial,sans-serif;}#gaa1df90b-6e48-4ccc-b6db-c35a81a40f7c-dark .layer rect{fill:#2E5A88!important;stroke:#1F4870!important;color:#fff!important;}#gaa1df90b-6e48-4ccc-b6db-c35a81a40f7c-dark .layer polygon{fill:#2E5A88!important;stroke:#1F4870!important;color:#fff!important;}#gaa1df90b-6e48-4ccc-b6db-c35a81a40f7c-dark .layer ellipse{fill:#2E5A88!important;stroke:#1F4870!important;color:#fff!important;}#gaa1df90b-6e48-4ccc-b6db-c35a81a40f7c-dark .layer circle{fill:#2E5A88!important;stroke:#1F4870!important;color:#fff!important;}#gaa1df90b-6e48-4ccc-b6db-c35a81a40f7c-dark .layer path{fill:#2E5A88!important;stroke:#1F4870!important;color:#fff!important;}#gaa1df90b-6e48-4ccc-b6db-c35a81a40f7c-dark .layer tspan{fill:#fff!important;}#gaa1df90b-6e48-4ccc-b6db-c35a81a40f7c-dark .sdk rect{fill:#8B5E15!important;stroke:#6E4810!important;color:#fff!important;}#gaa1df90b-6e48-4ccc-b6db-c35a81a40f7c-dark .sdk polygon{fill:#8B5E15!important;stroke:#6E4810!important;color:#fff!important;}#gaa1df90b-6e48-4ccc-b6db-c35a81a40f7c-dark .sdk ellipse{fill:#8B5E15!important;stroke:#6E4810!important;color:#fff!important;}#gaa1df90b-6e48-4ccc-b6db-c35a81a40f7c-dark .sdk circle{fill:#8B5E15!important;stroke:#6E4810!important;color:#fff!important;}#gaa1df90b-6e48-4ccc-b6db-c35a81a40f7c-dark .sdk path{fill:#8B5E15!important;stroke:#6E4810!important;color:#fff!important;}#gaa1df90b-6e48-4ccc-b6db-c35a81a40f7c-dark .sdk tspan{fill:#fff!important;}#gaa1df90b-6e48-4ccc-b6db-c35a81a40f7c-dark .shell rect{fill:#5A5A5A!important;stroke:#3D3D3D!important;color:#fff!important;}#gaa1df90b-6e48-4ccc-b6db-c35a81a40f7c-dark .shell polygon{fill:#5A5A5A!important;stroke:#3D3D3D!important;color:#fff!important;}#gaa1df90b-6e48-4ccc-b6db-c35a81a40f7c-dark .shell ellipse{fill:#5A5A5A!important;stroke:#3D3D3D!important;color:#fff!important;}#gaa1df90b-6e48-4ccc-b6db-c35a81a40f7c-dark .shell circle{fill:#5A5A5A!important;stroke:#3D3D3D!important;color:#fff!important;}#gaa1df90b-6e48-4ccc-b6db-c35a81a40f7c-dark .shell path{fill:#5A5A5A!important;stroke:#3D3D3D!important;color:#fff!important;}#gaa1df90b-6e48-4ccc-b6db-c35a81a40f7c-dark .shell tspan{fill:#fff!important;}</style><g><marker id="gaa1df90b-6e48-4ccc-b6db-c35a81a40f7c-dark_flowchart-v2-pointEnd" class="marker flowchart-v2" viewBox="0 0 10 10" refX="5" refY="5" markerUnits="userSpaceOnUse" markerWidth="8" markerHeight="8" orient="auto"><path d="M 0 0 L 10 5 L 0 10 z" class="arrowMarkerPath" style="stroke-width: 1; stroke-dasharray: 1, 0;"></path></marker><marker id="gaa1df90b-6e48-4ccc-b6db-c35a81a40f7c-dark_flowchart-v2-pointStart" class="marker flowchart-v2" viewBox="0 0 10 10" refX="4.5" refY="5" markerUnits="userSpaceOnUse" markerWidth="8" markerHeight="8" orient="auto"><path d="M 0 5 L 10 10 L 10 0 z" class="arrowMarkerPath" style="stroke-width: 1; stroke-dasharray: 1, 0;"></path></marker><marker id="gaa1df90b-6e48-4ccc-b6db-c35a81a40f7c-dark_flowchart-v2-pointEnd-margin" class="marker flowchart-v2" viewBox="0 0 11.5 14" refX="11.5" refY="7" markerUnits="userSpaceOnUse" markerWidth="10.5" markerHeight="14" orient="auto"><path d="M 0 0 L 11.5 7 L 0 14 z" class="arrowMarkerPath" style="stroke-width: 0; stroke-dasharray: 1, 0;"></path></marker><marker id="gaa1df90b-6e48-4ccc-b6db-c35a81a40f7c-dark_flowchart-v2-pointStart-margin" class="marker flowchart-v2" viewBox="0 0 11.5 14" refX="1" refY="7" markerUnits="userSpaceOnUse" markerWidth="11.5" markerHeight="14" orient="auto"><polygon points="0,7 11.5,14 11.5,0" class="arrowMarkerPath" style="stroke-width: 0; stroke-dasharray: 1, 0;"></polygon></marker><marker id="gaa1df90b-6e48-4ccc-b6db-c35a81a40f7c-dark_flowchart-v2-circleEnd" class="marker flowchart-v2" viewBox="0 0 10 10" refX="11" refY="5" markerUnits="userSpaceOnUse" markerWidth="11" markerHeight="11" orient="auto"><circle cx="5" cy="5" r="5" class="arrowMarkerPath" style="stroke-width: 1; stroke-dasharray: 1, 0;"></circle></marker><marker id="gaa1df90b-6e48-4ccc-b6db-c35a81a40f7c-dark_flowchart-v2-circleStart" class="marker flowchart-v2" viewBox="0 0 10 10" refX="-1" refY="5" markerUnits="userSpaceOnUse" markerWidth="11" markerHeight="11" orient="auto"><circle cx="5" cy="5" r="5" class="arrowMarkerPath" style="stroke-width: 1; stroke-dasharray: 1, 0;"></circle></marker><marker id="gaa1df90b-6e48-4ccc-b6db-c35a81a40f7c-dark_flowchart-v2-circleEnd-margin" class="marker flowchart-v2" viewBox="0 0 10 10" refY="5" refX="12.25" markerUnits="userSpaceOnUse" markerWidth="14" markerHeight="14" orient="auto"><circle cx="5" cy="5" r="5" class="arrowMarkerPath" style="stroke-width: 0; stroke-dasharray: 1, 0;"></circle></marker><marker id="gaa1df90b-6e48-4ccc-b6db-c35a81a40f7c-dark_flowchart-v2-circleStart-margin" class="marker flowchart-v2" viewBox="0 0 10 10" refX="-2" refY="5" markerUnits="userSpaceOnUse" markerWidth="14" markerHeight="14" orient="auto"><circle cx="5" cy="5" r="5" class="arrowMarkerPath" style="stroke-width: 0; stroke-dasharray: 1, 0;"></circle></marker><marker id="gaa1df90b-6e48-4ccc-b6db-c35a81a40f7c-dark_flowchart-v2-crossEnd" class="marker cross flowchart-v2" viewBox="0 0 11 11" refX="12" refY="5.2" markerUnits="userSpaceOnUse" markerWidth="11" markerHeight="11" orient="auto"><path d="M 1,1 l 9,9 M 10,1 l -9,9" class="arrowMarkerPath" style="stroke-width: 2; stroke-dasharray: 1, 0;"></path></marker><marker id="gaa1df90b-6e48-4ccc-b6db-c35a81a40f7c-dark_flowchart-v2-crossStart" class="marker cross flowchart-v2" viewBox="0 0 11 11" refX="-1" refY="5.2" markerUnits="userSpaceOnUse" markerWidth="11" markerHeight="11" orient="auto"><path d="M 1,1 l 9,9 M 10,1 l -9,9" class="arrowMarkerPath" style="stroke-width: 2; stroke-dasharray: 1, 0;"></path></marker><marker id="gaa1df90b-6e48-4ccc-b6db-c35a81a40f7c-dark_flowchart-v2-crossEnd-margin" class="marker cross flowchart-v2" viewBox="0 0 15 15" refX="17.7" refY="7.5" markerUnits="userSpaceOnUse" markerWidth="12" markerHeight="12" orient="auto"><path d="M 1,1 L 14,14 M 1,14 L 14,1" class="arrowMarkerPath" style="stroke-width: 2.5;"></path></marker><marker id="gaa1df90b-6e48-4ccc-b6db-c35a81a40f7c-dark_flowchart-v2-crossStart-margin" class="marker cross flowchart-v2" viewBox="0 0 15 15" refX="-3.5" refY="7.5" markerUnits="userSpaceOnUse" markerWidth="12" markerHeight="12" orient="auto"><path d="M 1,1 L 14,14 M 1,14 L 14,1" class="arrowMarkerPath" style="stroke-width: 2.5; stroke-dasharray: 1, 0;"></path></marker><g class="root"><g class="clusters"></g><g class="edgePaths"><path d="M100.305,75.9L100.305,82.2C100.305,88.5,100.305,101.1,101.306,112.828C102.308,124.555,104.311,135.411,105.312,140.839L106.314,146.266" id="gaa1df90b-6e48-4ccc-b6db-c35a81a40f7c-dark-L_PRIMITIVES_BLOCKS_0" class="edge-thickness-normal edge-pattern-solid edge-thickness-normal edge-pattern-solid flowchart-link" style=";" data-edge="true" data-et="edge" data-id="L_PRIMITIVES_BLOCKS_0" data-points="W3sieCI6MTAwLjMwNDY4NzUsInkiOjc1Ljg5OTk5NzcxMTE4MTY0fSx7IngiOjEwMC4zMDQ2ODc1LCJ5IjoxMTMuNjk5OTk2OTQ4MjQyMTl9LHsieCI6MTA3LjAzOTUxMjc3ODkzODgxLCJ5IjoxNTAuMTk5OTk2OTQ4MjQyMn1d" data-look="classic" marker-end="url(#gaa1df90b-6e48-4ccc-b6db-c35a81a40f7c-dark_flowchart-v2-pointEnd)"></path><path d="M113.184,216.8L113.184,220.967C113.184,225.133,113.184,233.467,117.854,241.383C122.523,249.299,131.863,256.797,136.533,260.546L141.202,264.296" id="gaa1df90b-6e48-4ccc-b6db-c35a81a40f7c-dark-L_BLOCKS_WIDGETS_0" class="edge-thickness-normal edge-pattern-solid edge-thickness-normal edge-pattern-solid flowchart-link" style=";" data-edge="true" data-et="edge" data-id="L_BLOCKS_WIDGETS_0" data-points="W3sieCI6MTEzLjE4Mzg4NzQ4MTY4OTQ1LCJ5IjoyMTYuNzk5OTk1NDIyMzYzMjh9LHsieCI6MTEzLjE4Mzg4NzQ4MTY4OTQ1LCJ5IjoyNDEuNzk5OTk1NDIyMzYzMjh9LHsieCI6MTQ0LjMyMTUzMjYyMjU3OTcsInkiOjI2Ni43OTk5OTU0MjIzNjMzfV0=" data-look="classic" marker-end="url(#gaa1df90b-6e48-4ccc-b6db-c35a81a40f7c-dark_flowchart-v2-pointEnd)"></path><path d="M185.797,333.4L185.797,337.567C185.797,341.733,185.797,350.067,185.797,357.733C185.797,365.4,185.797,372.4,185.797,375.9L185.797,379.4" id="gaa1df90b-6e48-4ccc-b6db-c35a81a40f7c-dark-L_WIDGETS_REGISTRIES_0" class="edge-thickness-normal edge-pattern-solid edge-thickness-normal edge-pattern-solid flowchart-link" style=";" data-edge="true" data-et="edge" data-id="L_WIDGETS_REGISTRIES_0" data-points="W3sieCI6MTg1Ljc5Njg3NSwieSI6MzMzLjM5OTk5Mzg5NjQ4NDR9LHsieCI6MTg1Ljc5Njg3NSwieSI6MzU4LjM5OTk5Mzg5NjQ4NDR9LHsieCI6MTg1Ljc5Njg3NSwieSI6MzgzLjM5OTk5Mzg5NjQ4NDR9XQ==" data-look="classic" marker-end="url(#gaa1df90b-6e48-4ccc-b6db-c35a81a40f7c-dark_flowchart-v2-pointEnd)"></path><path d="M185.797,450L185.797,454.167C185.797,458.333,185.797,466.667,190.079,474.562C194.36,482.458,202.924,489.915,207.206,493.644L211.488,497.373" id="gaa1df90b-6e48-4ccc-b6db-c35a81a40f7c-dark-L_REGISTRIES_LAYOUT_0" class="edge-thickness-normal edge-pattern-solid edge-thickness-normal edge-pattern-solid flowchart-link" style=";" data-edge="true" data-et="edge" data-id="L_REGISTRIES_LAYOUT_0" data-points="W3sieCI6MTg1Ljc5Njg3NSwieSI6NDQ5Ljk5OTk5MjM3MDYwNTQ3fSx7IngiOjE4NS43OTY4NzUsInkiOjQ3NC45OTk5OTIzNzA2MDU0N30seyJ4IjoyMTQuNTA0MTI3NzM0MTY2MywieSI6NDk5Ljk5OTk5MjM3MDYwNTQ3fV0=" data-look="classic" marker-end="url(#gaa1df90b-6e48-4ccc-b6db-c35a81a40f7c-dark_flowchart-v2-pointEnd)"></path><path d="M252.742,566.6L252.742,570.767C252.742,574.933,252.742,583.267,252.742,590.933C252.742,598.6,252.742,605.6,252.742,609.1L252.742,612.6" id="gaa1df90b-6e48-4ccc-b6db-c35a81a40f7c-dark-L_LAYOUT_PAGES_0" class="edge-thickness-normal edge-pattern-solid edge-thickness-normal edge-pattern-solid flowchart-link" style=";" data-edge="true" data-et="edge" data-id="L_LAYOUT_PAGES_0" data-points="W3sieCI6MjUyLjc0MjE4NzUsInkiOjU2Ni41OTk5OTA4NDQ3MjY2fSx7IngiOjI1Mi43NDIxODc1LCJ5Ijo1OTEuNTk5OTkwODQ0NzI2Nn0seyJ4IjoyNTIuNzQyMTg3NSwieSI6NjE2LjU5OTk5MDg0NDcyNjZ9XQ==" data-look="classic" marker-end="url(#gaa1df90b-6e48-4ccc-b6db-c35a81a40f7c-dark_flowchart-v2-pointEnd)"></path><path d="M287.028,77.501L275.648,83.534C264.267,89.567,241.507,101.634,221.482,113.382C201.458,125.131,184.17,136.563,175.526,142.278L166.882,147.994" id="gaa1df90b-6e48-4ccc-b6db-c35a81a40f7c-dark-L_SDKS_BLOCKS_0" class="edge-thickness-normal edge-pattern-dotted edge-thickness-normal edge-pattern-solid flowchart-link" style=";" data-edge="true" data-et="edge" data-id="L_SDKS_BLOCKS_0" data-points="W3sieCI6Mjg3LjAyODEyMzQyMzUzMjMsInkiOjc3LjUwMTAwNTAwMzAwNDEyfSx7IngiOjIxOC43NDU4MDAwMTgzMTA1NSwieSI6MTEzLjY5OTk5Njk0ODI0MjE5fSx7IngiOjE2My41NDUwODU4MzkyMDYzNywieSI6MTUwLjE5OTk5Njk0ODI0MjJ9XQ==" data-look="classic" marker-end="url(#gaa1df90b-6e48-4ccc-b6db-c35a81a40f7c-dark_flowchart-v2-pointEnd)"></path><path d="M328.264,77.7L324.26,83.7C320.256,89.7,312.247,101.7,308.242,119.333C304.238,136.967,304.238,160.233,304.238,181.583C304.238,202.933,304.238,222.367,296.371,235.956C288.504,249.544,272.771,257.289,264.904,261.161L257.037,265.033" id="gaa1df90b-6e48-4ccc-b6db-c35a81a40f7c-dark-L_SDKS_WIDGETS_0" class="edge-thickness-normal edge-pattern-dotted edge-thickness-normal edge-pattern-solid flowchart-link" style=";" data-edge="true" data-et="edge" data-id="L_SDKS_WIDGETS_0" data-points="W3sieCI6MzI4LjI2NDM4MTMwNzMxOCwieSI6NzcuNjk5OTk2OTQ4MjQyMTl9LHsieCI6MzA0LjIzNzk4NzUxODMxMDU1LCJ5IjoxMTMuNjk5OTk2OTQ4MjQyMTl9LHsieCI6MzA0LjIzNzk4NzUxODMxMDU1LCJ5IjoxODMuNDk5OTk2MTg1MzAyNzN9LHsieCI6MzA0LjIzNzk4NzUxODMxMDU1LCJ5IjoyNDEuNzk5OTk1NDIyMzYzMjh9LHsieCI6MjUzLjQ0ODQ4NzQ4OTAyOTYyLCJ5IjoyNjYuNzk5OTk1NDIyMzYzM31d" data-look="classic" marker-end="url(#gaa1df90b-6e48-4ccc-b6db-c35a81a40f7c-dark_flowchart-v2-pointEnd)"></path><path d="M371.119,77.7L374.649,83.7C378.179,89.7,385.24,101.7,388.77,119.333C392.3,136.967,392.3,160.233,392.3,181.583C392.3,202.933,392.3,222.367,392.3,241.8C392.3,261.233,392.3,280.667,392.3,300.1C392.3,319.533,392.3,338.967,392.3,358.4C392.3,377.833,392.3,397.267,392.3,416.7C392.3,436.133,392.3,455.567,382.941,469.193C373.582,482.819,354.864,490.639,345.505,494.548L336.146,498.458" id="gaa1df90b-6e48-4ccc-b6db-c35a81a40f7c-dark-L_SDKS_LAYOUT_0" class="edge-thickness-normal edge-pattern-dotted edge-thickness-normal edge-pattern-solid flowchart-link" style=";" data-edge="true" data-et="edge" data-id="L_SDKS_LAYOUT_0" data-points="W3sieCI6MzcxLjExODk4NjUyNTU3NzE2LCJ5Ijo3Ny42OTk5OTY5NDgyNDIxOX0seyJ4IjozOTIuMzAwNDg3NTE4MzEwNTUsInkiOjExMy42OTk5OTY5NDgyNDIxOX0seyJ4IjozOTIuMzAwNDg3NTE4MzEwNTUsInkiOjE4My40OTk5OTYxODUzMDI3M30seyJ4IjozOTIuMzAwNDg3NTE4MzEwNTUsInkiOjI0MS43OTk5OTU0MjIzNjMyOH0seyJ4IjozOTIuMzAwNDg3NTE4MzEwNTUsInkiOjMwMC4wOTk5OTQ2NTk0MjM4fSx7IngiOjM5Mi4zMDA0ODc1MTgzMTA1NSwieSI6MzU4LjM5OTk5Mzg5NjQ4NDR9LHsieCI6MzkyLjMwMDQ4NzUxODMxMDU1LCJ5Ijo0MTYuNjk5OTkzMTMzNTQ0OX0seyJ4IjozOTIuMzAwNDg3NTE4MzEwNTUsInkiOjQ3NC45OTk5OTIzNzA2MDU0N30seyJ4IjozMzIuNDU1NTg5NjQzMjU0LCJ5Ijo0OTkuOTk5OTkyMzcwNjA1NDd9XQ==" data-look="classic" marker-end="url(#gaa1df90b-6e48-4ccc-b6db-c35a81a40f7c-dark_flowchart-v2-pointEnd)"></path></g><g class="edgeLabels"><g class="edgeLabel"><g class="label" data-id="L_PRIMITIVES_BLOCKS_0" transform="translate(0, 0)"><text y="-10.1" text-anchor="middle"><tspan class="text-outer-tspan row" x="0" y="-0.1em" dy="1.1em" text-anchor="middle"></tspan></text></g></g><g><rect class="background" style="stroke: none"></rect></g><g class="edgeLabel"><g class="label" data-id="L_BLOCKS_WIDGETS_0" transform="translate(0, 0)"><text y="-10.1" text-anchor="middle"><tspan class="text-outer-tspan row" x="0" y="-0.1em" dy="1.1em" text-anchor="middle"></tspan></text></g></g><g><rect class="background" style="stroke: none"></rect></g><g class="edgeLabel"><g class="label" data-id="L_WIDGETS_REGISTRIES_0" transform="translate(0, 0)"><text y="-10.1" text-anchor="middle"><tspan class="text-outer-tspan row" x="0" y="-0.1em" dy="1.1em" text-anchor="middle"></tspan></text></g></g><g><rect class="background" style="stroke: none"></rect></g><g class="edgeLabel"><g class="label" data-id="L_REGISTRIES_LAYOUT_0" transform="translate(0, 0)"><text y="-10.1" text-anchor="middle"><tspan class="text-outer-tspan row" x="0" y="-0.1em" dy="1.1em" text-anchor="middle"></tspan></text></g></g><g><rect class="background" style="stroke: none"></rect></g><g class="edgeLabel"><g class="label" data-id="L_LAYOUT_PAGES_0" transform="translate(0, 0)"><text y="-10.1" text-anchor="middle"><tspan class="text-outer-tspan row" x="0" y="-0.1em" dy="1.1em" text-anchor="middle"></tspan></text></g></g><g><rect class="background" style="stroke: none"></rect></g><g class="edgeLabel" transform="translate(223.65261, 111.09872)"><g class="label" data-id="L_SDKS_BLOCKS_0" transform="translate(0, -10.5)"><g><rect class="background" style="" x="-22.234375" y="-1" width="44.46875" height="23"></rect><text y="-10.1" text-anchor="middle" style=""><tspan class="text-outer-tspan row" x="0" y="-0.1em" dy="1.1em" text-anchor="middle"><tspan font-style="normal" class="text-inner-tspan" font-weight="normal">hooks</tspan></tspan></text></g></g></g><g class="edgeLabel" transform="translate(304.23798751831055, 183.49999618530273)"><g class="label" data-id="L_SDKS_WIDGETS_0" transform="translate(0, -10.5)"><g><rect class="background" style="" x="-22.234375" y="-1" width="44.46875" height="23"></rect><text y="-10.1" text-anchor="middle" style=""><tspan class="text-outer-tspan row" x="0" y="-0.1em" dy="1.1em" text-anchor="middle"><tspan font-style="normal" class="text-inner-tspan" font-weight="normal">hooks</tspan></tspan></text></g></g></g><g class="edgeLabel" transform="translate(392.30048751831055, 300.0999946594238)"><g class="label" data-id="L_SDKS_LAYOUT_0" transform="translate(0, -10.5)"><g><rect class="background" style="" x="-22.234375" y="-1" width="44.46875" height="23"></rect><text y="-10.1" text-anchor="middle" style=""><tspan class="text-outer-tspan row" x="0" y="-0.1em" dy="1.1em" text-anchor="middle"><tspan font-style="normal" class="text-inner-tspan" font-weight="normal">hooks</tspan></tspan></text></g></g></g></g><g class="nodes"><g class="node default layer" id="gaa1df90b-6e48-4ccc-b6db-c35a81a40f7c-dark-flowchart-PRIMITIVES-0" data-look="classic" transform="translate(100.3046875, 42.599998474121094)"><rect class="basic label-container" style="fill:#2E5A88 !important;stroke:#1F4870 !important" x="-92.3046875" y="-33.29999923706055" width="184.609375" height="66.5999984741211"></rect><g class="label" style="color:#fff !important" transform="translate(0, -18.299999237060547)"><rect></rect><g><rect class="background" style="stroke: none"></rect><text y="-10.1" style="fill:#404040 !important"><tspan class="text-outer-tspan row" x="0" y="-0.1em" dy="1.1em"><tspan font-style="normal" class="text-inner-tspan" font-weight="normal">Primitives</tspan></tspan><tspan class="text-outer-tspan row" x="0" y="1em" dy="1.1em"><tspan font-style="normal" class="text-inner-tspan" font-weight="normal">(@design-system)</tspan></tspan></text></g></g></g><g class="node default layer" id="gaa1df90b-6e48-4ccc-b6db-c35a81a40f7c-dark-flowchart-BLOCKS-1" data-look="classic" transform="translate(113.18388748168945, 183.49999618530273)"><rect class="basic label-container" style="fill:#2E5A88 !important;stroke:#1F4870 !important" x="-71.515625" y="-33.29999923706055" width="143.03125" height="66.5999984741211"></rect><g class="label" style="color:#fff !important" transform="translate(0, -18.299999237060547)"><rect></rect><g><rect class="background" style="stroke: none"></rect><text y="-10.1" style="fill:#404040 !important"><tspan class="text-outer-tspan row" x="0" y="-0.1em" dy="1.1em"><tspan font-style="normal" class="text-inner-tspan" font-weight="normal">Blocks</tspan></tspan><tspan class="text-outer-tspan row" x="0" y="1em" dy="1.1em"><tspan font-style="normal" class="text-inner-tspan" font-weight="normal">(@blocks/*)</tspan></tspan></text></g></g></g><g class="node default layer" id="gaa1df90b-6e48-4ccc-b6db-c35a81a40f7c-dark-flowchart-WIDGETS-3" data-look="classic" transform="translate(185.796875, 300.0999946594238)"><rect class="basic label-container" style="fill:#2E5A88 !important;stroke:#1F4870 !important" x="-76.65625" y="-33.29999923706055" width="153.3125" height="66.5999984741211"></rect><g class="label" style="color:#fff !important" transform="translate(0, -18.299999237060547)"><rect></rect><g><rect class="background" style="stroke: none"></rect><text y="-10.1" style="fill:#404040 !important"><tspan class="text-outer-tspan row" x="0" y="-0.1em" dy="1.1em"><tspan font-style="normal" class="text-inner-tspan" font-weight="normal">Widgets</tspan></tspan><tspan class="text-outer-tspan row" x="0" y="1em" dy="1.1em"><tspan font-style="normal" class="text-inner-tspan" font-weight="normal">(@widgets/*)</tspan></tspan></text></g></g></g><g class="node default layer" id="gaa1df90b-6e48-4ccc-b6db-c35a81a40f7c-dark-flowchart-REGISTRIES-5" data-look="classic" transform="translate(185.796875, 416.6999931335449)"><rect class="basic label-container" style="fill:#2E5A88 !important;stroke:#1F4870 !important" x="-82.34375" y="-33.29999923706055" width="164.6875" height="66.5999984741211"></rect><g class="label" style="color:#fff !important" transform="translate(0, -18.299999237060547)"><rect></rect><g><rect class="background" style="stroke: none"></rect><text y="-10.1" style="fill:#404040 !important"><tspan class="text-outer-tspan row" x="0" y="-0.1em" dy="1.1em"><tspan font-style="normal" class="text-inner-tspan" font-weight="normal">Registries</tspan></tspan><tspan class="text-outer-tspan row" x="0" y="1em" dy="1.1em"><tspan font-style="normal" class="text-inner-tspan" font-weight="normal">(@registries/*)</tspan></tspan></text></g></g></g><g class="node default layer" id="gaa1df90b-6e48-4ccc-b6db-c35a81a40f7c-dark-flowchart-LAYOUT-7" data-look="classic" transform="translate(252.7421875, 533.299991607666)"><rect class="basic label-container" style="fill:#2E5A88 !important;stroke:#1F4870 !important" x="-80.140625" y="-33.29999923706055" width="160.28125" height="66.5999984741211"></rect><g class="label" style="color:#fff !important" transform="translate(0, -18.299999237060547)"><rect></rect><g><rect class="background" style="stroke: none"></rect><text y="-10.1" style="fill:#404040 !important"><tspan class="text-outer-tspan row" x="0" y="-0.1em" dy="1.1em"><tspan font-style="normal" class="text-inner-tspan" font-weight="normal">Layout</tspan><tspan font-style="normal" class="text-inner-tspan" font-weight="normal"> Engine</tspan></tspan><tspan class="text-outer-tspan row" x="0" y="1em" dy="1.1em"><tspan font-style="normal" class="text-inner-tspan" font-weight="normal">(@layout/*)</tspan></tspan></text></g></g></g><g class="node default shell" id="gaa1df90b-6e48-4ccc-b6db-c35a81a40f7c-dark-flowchart-PAGES-9" data-look="classic" transform="translate(252.7421875, 649.8999900817871)"><rect class="basic label-container" style="fill:#5A5A5A !important;stroke:#3D3D3D !important" x="-99.5" y="-33.29999923706055" width="199" height="66.5999984741211"></rect><g class="label" style="color:#fff !important" transform="translate(0, -18.299999237060547)"><rect></rect><g><rect class="background" style="stroke: none"></rect><text y="-10.1" style="fill:#404040 !important"><tspan class="text-outer-tspan row" x="0" y="-0.1em" dy="1.1em"><tspan font-style="normal" class="text-inner-tspan" font-weight="normal">Pages</tspan></tspan><tspan class="text-outer-tspan row" x="0" y="1em" dy="1.1em"><tspan font-style="normal" class="text-inner-tspan" font-weight="normal">(framework</tspan><tspan font-style="normal" class="text-inner-tspan" font-weight="normal"> routes)</tspan></tspan></text></g></g></g><g class="node default sdk" id="gaa1df90b-6e48-4ccc-b6db-c35a81a40f7c-dark-flowchart-SDKS-10" data-look="classic" transform="translate(350.06611251831055, 42.599998474121094)"><g class="basic label-container outer-path"><path d="M-59.99531364440918 -34.599998474121094 C-15.058922617621526 -34.599998474121094, 29.877468409166127 -34.599998474121094, 59.99531364440918 -34.599998474121094 C59.99531364440918 -34.599998474121094, 59.99531364440918 -34.599998474121094, 59.99531364440918 -34.599998474121094 C60.840928534596955 -34.572881250482304, 61.68654342478473 -34.545764026843514, 62.212143157978446 -34.52890906641781 C62.92319153762182 -34.46031508439441, 63.63423991726519 -34.391721102371, 64.41986324356802 -34.315932964932855 C65.20050735450286 -34.189724479062406, 65.9811514654377 -34.06351599319196, 66.60940190579174 -33.96194533415045 C67.12172590379852 -33.84501072483193, 67.6340499018053 -33.72807611551341, 68.77176186063195 -33.46840078517559 C69.257202669176 -33.32432450133052, 69.74264347772004 -33.18024821748545, 70.89805750720947 -32.83732739842499 C71.71945271235457 -32.53504637003755, 72.54084791749966 -32.232765341650115, 72.97955144062351 -32.071318389809626 C73.71304320337896 -31.74662334469786, 74.44653496613442 -31.421928299586092, 75.00769035582265 -31.173521454654313 C75.45864499227419 -30.93825870966777, 75.90959962872574 -30.70299596468123, 76.97414019496986 -30.147625833142445 C77.4297876184338 -29.871409687357122, 77.88543504189775 -29.5951935415718, 78.87082039387397 -28.997847150436726 C79.58592360221178 -28.499022108619233, 80.30102681054957 -28.00019706680174, 80.689937086761 -27.72891009377116 C81.09750779787248 -27.403883297571877, 81.50507850898396 -27.078856501372595, 82.42401513294061 -26.34602899769773 C83.03655609774472 -25.78973550040846, 83.64909706254882 -25.23344200311919, 84.06592883376248 -24.854886417267256 C84.40259586059423 -24.507250071186522, 84.73926288742598 -24.15961372510579, 85.60893121364052 -23.261609777191822 C85.92847135542519 -22.88625974430239, 86.24801149720987 -22.510909711412953, 87.04668174482285 -21.572746192942244 C87.47674130835861 -20.996505557036542, 87.90680087189439 -20.42026492113084, 88.3732724019803 -19.795235567246333 C88.66831809016958 -19.341966159326965, 88.96336377835885 -18.888696751407597, 89.58325193954985 -17.936382072539885 C89.96248409757034 -17.26301697455441, 90.34171625559082 -16.589651876568933, 90.67164829207181 -16.00382413655548 C90.88182628457065 -15.567385038042998, 91.0920042770695 -15.130945939530516, 91.63398900547335 -14.00550305438447 C91.8666071434371 -13.430931756248274, 92.09922528140085 -12.856360458112079, 92.46631961534172 -11.949630355992008 C92.64432558749074 -11.413504729279234, 92.82233155963978 -10.877379102566461, 93.16521989666657 -9.844654063279089 C93.34216704678947 -9.169877890480501, 93.51911419691237 -8.495101717681912, 93.72781791827833 -7.699223975348483 C93.85543453344629 -7.043939628242214, 93.98305114861424 -6.388655281135945, 94.15180184422928 -5.5221561246248205 C94.25756383584128 -4.701887002749681, 94.3633258274533 -3.8816178808745416, 94.43542943362345 -3.3223965498862853 C94.48743906495501 -2.5123045604785235, 94.53944869628656 -1.7022125710707612, 94.57753519985805 -1.1089845350724425 C94.57753519985805 -0.454309648246386, 94.57753519985805 0.2003652385796706, 94.57753519985805 1.108984535072434 C94.54279364469207 1.6501122996610744, 94.5080520895261 2.1912400642497145, 94.43542943362345 3.3223965498862618 C94.33257341599423 4.120127511400435, 94.22971739836501 4.917858472914609, 94.1518018442293 5.5221561246247965 C93.9835374146717 6.386158407703239, 93.8152729851141 7.250160690781682, 93.72781791827833 7.699223975348475 C93.59761366353474 8.195749229566733, 93.46740940879117 8.692274483784992, 93.16521989666658 9.844654063279066 C92.99382124187696 10.360879502838383, 92.82242258708732 10.8771049423977, 92.46631961534172 11.949630355991985 C92.13410923973129 12.770196406600414, 91.80189886412086 13.590762457208845, 91.63398900547335 14.00550305438446 C91.25729607882366 14.787713976510027, 90.88060315217395 15.569924898635593, 90.67164829207181 16.003824136555473 C90.32204535341882 16.624579555270163, 89.97244241476582 17.245334973984853, 89.58325193954985 17.936382072539878 C89.32933182554964 18.326471554741907, 89.07541171154944 18.716561036943936, 88.37327240198032 19.795235567246316 C87.93397347235918 20.383856111982844, 87.49467454273804 20.97247665671937, 87.04668174482285 21.572746192942237 C86.50979177206288 22.203407704850992, 85.9729017993029 22.834069216759747, 85.60893121364053 23.2616097771918 C85.2844187100405 23.596695580130877, 84.95990620644045 23.931781383069954, 84.06592883376248 24.854886417267245 C83.51824897850874 25.352274770993795, 82.970569123255 25.849663124720344, 82.42401513294064 26.346028997697704 C81.76242912769462 26.873626231338427, 81.1008431224486 27.401223464979154, 80.68993708676102 27.728910093771155 C80.3071230150737 27.995944618426154, 79.92430894338638 28.262979143081154, 78.87082039387398 28.997847150436716 C78.39126267477924 29.28855785794592, 77.9117049556845 29.579268565455127, 76.97414019496986 30.147625833142442 C76.36416124817164 30.465851458976914, 75.7541823013734 30.784077084811386, 75.00769035582265 31.173521454654306 C74.44023192657097 31.4247184682278, 73.8727734973193 31.67591548180129, 72.97955144062354 32.07131838980962 C72.33994396601969 32.30669985293052, 71.70033649141584 32.542081316051416, 70.8980575072095 32.83732739842498 C70.14947172690923 33.059503728611155, 69.40088594660897 33.28168005879733, 68.77176186063198 33.46840078517558 C68.03217110895217 33.63720754796581, 67.29258035727236 33.806014310756034, 66.60940190579176 33.96194533415045 C65.94333504032502 34.06962985953342, 65.2772681748583 34.17731438491639, 64.41986324356805 34.31593296493285 C63.83628580324148 34.372229978746596, 63.252708362914916 34.42852699256034, 62.212143157978446 34.52890906641781 C61.62642854545729 34.547691794017034, 61.04071393293612 34.56647452161626, 59.99531364440919 34.599998474121094 C59.99531364440919 34.599998474121094, 59.99531364440919 34.599998474121094, 59.99531364440918 34.599998474121094 C16.116796108809268 34.599998474121094, -27.761721426790643 34.599998474121094, -59.99531364440917 34.599998474121094 C-60.65745965231057 34.57876474043671, -61.31960566021196 34.557531006752335, -62.21214315797843 34.52890906641781 C-62.850408562326514 34.467336370486805, -63.4886739666746 34.4057636745558, -64.41986324356803 34.31593296493285 C-65.1272933202637 34.201561156334876, -65.83472339695939 34.0871893477369, -66.60940190579174 33.96194533415045 C-67.15822141618914 33.83668086228425, -67.70704092658654 33.71141639041804, -68.77176186063194 33.46840078517559 C-69.27821047296209 33.31808949543902, -69.78465908529222 33.16777820570245, -70.89805750720946 32.837327398424996 C-71.61893945135681 32.57203617921913, -72.33982139550415 32.30674496001327, -72.97955144062352 32.071318389809626 C-73.73593770149786 31.736488629521784, -74.4923239623722 31.401658869233938, -75.00769035582263 31.173521454654317 C-75.78809337448334 30.76638569969102, -76.56849639314404 30.359249944727726, -76.97414019496986 30.14762583314245 C-77.72169574529727 29.694453265409933, -78.46925129562466 29.241280697677418, -78.87082039387394 28.99784715043674 C-79.49684007605448 28.561162920102866, -80.12285975823501 28.124478689768992, -80.689937086761 27.728910093771162 C-81.04337748265237 27.44705078349173, -81.39681787854376 27.165191473212296, -82.42401513294061 26.346028997697733 C-82.99672567148535 25.82590843968189, -83.56943621003009 25.305787881666042, -84.06592883376246 24.85488641726727 C-84.43524575408767 24.473536375548417, -84.8045626744129 24.092186333829567, -85.60893121364052 23.261609777191815 C-86.16399061743944 22.609605417714807, -86.71905002123835 21.957601058237795, -87.04668174482285 21.57274619294225 C-87.37787180811908 21.128981680160756, -87.70906187141532 20.685217167379264, -88.3732724019803 19.795235567246337 C-88.62326543491919 19.41117913612342, -88.87325846785808 19.027122705000497, -89.58325193954984 17.9363820725399 C-89.80393460128506 17.54453766008633, -90.02461726302029 17.152693247632758, -90.67164829207181 16.003824136555483 C-90.99623082943901 15.329821552758728, -91.32081336680622 14.655818968961974, -91.63398900547335 14.005503054384473 C-91.90521199536593 13.335577025610009, -92.17643498525852 12.665650996835547, -92.46631961534172 11.949630355992014 C-92.73061061928856 11.153627961157078, -92.99490162323539 10.357625566322143, -93.16521989666657 9.84465406327908 C-93.31873635012833 9.259229291777588, -93.4722528035901 8.673804520276095, -93.72781791827833 7.699223975348487 C-93.88265547651204 6.904165838747896, -94.03749303474575 6.109107702147305, -94.15180184422928 5.522156124624825 C-94.22739895031935 4.935839898127347, -94.30299605640943 4.3495236716298695, -94.43542943362344 3.3223965498863053 C-94.48332161480036 2.5764371701829023, -94.5312137959773 1.8304777904794993, -94.57753519985805 1.108984535072447 C-94.57753519985805 0.22461192339459857, -94.57753519985805 -0.6597606882832499, -94.57753519985805 -1.10898453507243 C-94.53980152723082 -1.6967169443138517, -94.5020678546036 -2.2844493535552735, -94.43542943362345 -3.3223965498862578 C-94.35092694051616 -3.9777811995217416, -94.26642444740887 -4.633165849157225, -94.1518018442293 -5.522156124624808 C-93.98639832268096 -6.371468249728861, -93.82099480113261 -7.2207803748329145, -93.72781791827833 -7.699223975348471 C-93.5952454246292 -8.204780350914854, -93.46267293098005 -8.710336726481238, -93.16521989666658 -9.844654063279062 C-92.90877495362034 -10.617025372781445, -92.65233001057409 -11.389396682283829, -92.46631961534173 -11.94963035599197 C-92.27772012793106 -12.415474736219368, -92.08912064052038 -12.881319116446766, -91.63398900547335 -14.005503054384455 C-91.28075087442592 -14.739009591589694, -90.92751274337847 -15.472516128794934, -90.67164829207181 -16.00382413655547 C-90.36581015303999 -16.546870721876253, -90.05997201400817 -17.089917307197037, -89.58325193954985 -17.93638207253989 C-89.29308054730697 -18.382163252953855, -89.0029091550641 -18.827944433367826, -88.3732724019803 -19.795235567246326 C-87.84369667508685 -20.504818795942338, -87.31412094819339 -21.21440202463835, -87.04668174482285 -21.572746192942237 C-86.52558024484544 -22.184861666331045, -86.00447874486802 -22.79697713971985, -85.60893121364053 -23.2616097771918 C-85.19184177564908 -23.69228886559768, -84.77475233765763 -24.122967954003556, -84.0659288337625 -24.854886417267235 C-83.72601570136673 -25.16358653050042, -83.38610256897097 -25.472286643733607, -82.42401513294065 -26.3460289976977 C-81.97740766691282 -26.702186567131093, -81.530800200885 -27.05834413656449, -80.68993708676102 -27.72891009377115 C-80.22644607065999 -28.052221362400523, -79.76295505455896 -28.37553263102989, -78.87082039387398 -28.997847150436712 C-78.31131792291097 -29.337020836335974, -77.75181545194795 -29.676194522235235, -76.97414019496986 -30.14762583314244 C-76.27239718509742 -30.513724711905045, -75.57065417522499 -30.879823590667648, -75.00769035582266 -31.173521454654306 C-74.25067466717817 -31.508629843944682, -73.4936589785337 -31.843738233235054, -72.97955144062354 -32.07131838980962 C-72.36269727343304 -32.298326425473135, -71.74584310624255 -32.52533446113665, -70.8980575072095 -32.83732739842498 C-70.10368691235337 -33.07309242124194, -69.30931631749725 -33.3088574440589, -68.771761860632 -33.46840078517558 C-68.08819929808644 -33.624419479414016, -67.40463673554089 -33.78043817365244, -66.60940190579176 -33.96194533415044 C-65.92841793337156 -34.07204154170176, -65.24743396095138 -34.18213774925307, -64.41986324356805 -34.31593296493285 C-63.962672421059274 -34.36003761372786, -63.5054815985505 -34.404142262522875, -62.21214315797845 -34.52890906641781 C-61.36894288681766 -34.55594885792417, -60.52574261565687 -34.58298864943054, -59.99531364440919 -34.599998474121094 C-59.99531364440919 -34.599998474121094, -59.99531364440918 -34.599998474121094, -59.99531364440918 -34.599998474121094" stroke="none" stroke-width="0" fill="#8B5E15" style="fill:#8B5E15 !important;stroke:#6E4810 !important"></path><path d="M-59.99531364440918 -34.599998474121094 C-32.45795179235955 -34.599998474121094, -4.920589940309917 -34.599998474121094, 59.99531364440918 -34.599998474121094 M-59.99531364440918 -34.599998474121094 C-21.198631956549633 -34.599998474121094, 17.598049731309914 -34.599998474121094, 59.99531364440918 -34.599998474121094 M59.99531364440918 -34.599998474121094 C59.99531364440918 -34.599998474121094, 59.99531364440918 -34.599998474121094, 59.99531364440918 -34.599998474121094 M59.99531364440918 -34.599998474121094 C59.99531364440918 -34.599998474121094, 59.99531364440918 -34.599998474121094, 59.99531364440918 -34.599998474121094 M59.99531364440918 -34.599998474121094 C60.68898361640504 -34.57775382826588, 61.3826535884009 -34.55550918241066, 62.212143157978446 -34.52890906641781 M59.99531364440918 -34.599998474121094 C60.87456886237105 -34.57180247064751, 61.75382408033292 -34.54360646717394, 62.212143157978446 -34.52890906641781 M62.212143157978446 -34.52890906641781 C62.86987691186008 -34.46545828222142, 63.52761066574171 -34.402007498025036, 64.41986324356802 -34.315932964932855 M62.212143157978446 -34.52890906641781 C62.848874369723276 -34.46748437220211, 63.48560558146811 -34.406059677986406, 64.41986324356802 -34.315932964932855 M64.41986324356802 -34.315932964932855 C65.13754940781934 -34.19990303163603, 65.85523557207065 -34.08387309833921, 66.60940190579174 -33.96194533415045 M64.41986324356802 -34.315932964932855 C65.01665159968944 -34.21944885167797, 65.61343995581086 -34.12296473842308, 66.60940190579174 -33.96194533415045 M66.60940190579174 -33.96194533415045 C67.40841069028264 -33.779576793109996, 68.20741947477353 -33.59720825206954, 68.77176186063195 -33.46840078517559 M66.60940190579174 -33.96194533415045 C67.31803423781787 -33.80020462862361, 68.02666656984398 -33.63846392309678, 68.77176186063195 -33.46840078517559 M68.77176186063195 -33.46840078517559 C69.57885067460697 -33.22886106168344, 70.38593948858197 -32.989321338191296, 70.89805750720947 -32.83732739842499 M68.77176186063195 -33.46840078517559 C69.37767107032158 -33.288570112222054, 69.98358028001121 -33.10873943926851, 70.89805750720947 -32.83732739842499 M70.89805750720947 -32.83732739842499 C71.31624865827266 -32.68342918911711, 71.73443980933584 -32.52953097980924, 72.97955144062351 -32.071318389809626 M70.89805750720947 -32.83732739842499 C71.36111503772605 -32.666917946737996, 71.82417256824263 -32.496508495051, 72.97955144062351 -32.071318389809626 M72.97955144062351 -32.071318389809626 C73.68480969152965 -31.75912148287618, 74.39006794243578 -31.446924575942734, 75.00769035582265 -31.173521454654313 M72.97955144062351 -32.071318389809626 C73.47458261908984 -31.85218277168075, 73.96961379755618 -31.63304715355187, 75.00769035582265 -31.173521454654313 M75.00769035582265 -31.173521454654313 C75.5571948143792 -30.886845330599765, 76.10669927293574 -30.600169206545218, 76.97414019496986 -30.147625833142445 M75.00769035582265 -31.173521454654313 C75.47326361692417 -30.93063218255155, 75.93883687802571 -30.687742910448787, 76.97414019496986 -30.147625833142445 M76.97414019496986 -30.147625833142445 C77.35385879612352 -29.91743818564891, 77.73357739727719 -29.687250538155368, 78.87082039387397 -28.997847150436726 M76.97414019496986 -30.147625833142445 C77.51066803241913 -29.82237950509315, 78.0471958698684 -29.497133177043853, 78.87082039387397 -28.997847150436726 M78.87082039387397 -28.997847150436726 C79.36178019295318 -28.655374847906224, 79.8527399920324 -28.312902545375724, 80.689937086761 -27.72891009377116 M78.87082039387397 -28.997847150436726 C79.31722677956037 -28.686453380402867, 79.76363316524679 -28.375059610369004, 80.689937086761 -27.72891009377116 M80.689937086761 -27.72891009377116 C81.08509708645673 -27.413780509663038, 81.48025708615245 -27.09865092555492, 82.42401513294061 -26.34602899769773 M80.689937086761 -27.72891009377116 C81.07699416590376 -27.420242373176265, 81.4640512450465 -27.111574652581375, 82.42401513294061 -26.34602899769773 M82.42401513294061 -26.34602899769773 C82.77616256282506 -26.02621801918709, 83.12830999270952 -25.706407040676453, 84.06592883376248 -24.854886417267256 M82.42401513294061 -26.34602899769773 C83.0274064649834 -25.798044954796268, 83.6307977970262 -25.250060911894806, 84.06592883376248 -24.854886417267256 M84.06592883376248 -24.854886417267256 C84.55633563332024 -24.34850113357684, 85.04674243287799 -23.842115849886422, 85.60893121364052 -23.261609777191822 M84.06592883376248 -24.854886417267256 C84.45048596936675 -24.457799602027837, 84.83504310497104 -24.060712786788418, 85.60893121364052 -23.261609777191822 M85.60893121364052 -23.261609777191822 C85.98315971563541 -22.822019684543612, 86.35738821763032 -22.3824295918954, 87.04668174482285 -21.572746192942244 M85.60893121364052 -23.261609777191822 C86.02437349157533 -22.7736076381943, 86.43981576951015 -22.285605499196777, 87.04668174482285 -21.572746192942244 M87.04668174482285 -21.572746192942244 C87.35530752467184 -21.15921576433154, 87.66393330452084 -20.74568533572084, 88.3732724019803 -19.795235567246333 M87.04668174482285 -21.572746192942244 C87.4050782058859 -21.092527585707046, 87.76347466694894 -20.612308978471848, 88.3732724019803 -19.795235567246333 M88.3732724019803 -19.795235567246333 C88.75029094344663 -19.21603384390023, 89.12730948491296 -18.63683212055413, 89.58325193954985 -17.936382072539885 M88.3732724019803 -19.795235567246333 C88.62931203934644 -19.401889927982527, 88.88535167671259 -19.00854428871872, 89.58325193954985 -17.936382072539885 M89.58325193954985 -17.936382072539885 C89.81288200286946 -17.52865064255059, 90.04251206618906 -17.120919212561297, 90.67164829207181 -16.00382413655548 M89.58325193954985 -17.936382072539885 C89.8589230759439 -17.446900055142724, 90.13459421233794 -16.957418037745562, 90.67164829207181 -16.00382413655548 M90.67164829207181 -16.00382413655548 C90.95999105580267 -15.405074218121523, 91.24833381953354 -14.806324299687567, 91.63398900547335 -14.00550305438447 M90.67164829207181 -16.00382413655548 C90.92979327620505 -15.46778055358498, 91.18793826033829 -14.93173697061448, 91.63398900547335 -14.00550305438447 M91.63398900547335 -14.00550305438447 C91.85940372404804 -13.448724341407914, 92.0848184426227 -12.89194562843136, 92.46631961534172 -11.949630355992008 M91.63398900547335 -14.00550305438447 C91.94540755851291 -13.236293207508629, 92.25682611155247 -12.467083360632786, 92.46631961534172 -11.949630355992008 M92.46631961534172 -11.949630355992008 C92.73202629569013 -11.149364169392918, 92.99773297603855 -10.349097982793827, 93.16521989666657 -9.844654063279089 M92.46631961534172 -11.949630355992008 C92.72336053328075 -11.175464065068244, 92.98040145121979 -10.401297774144478, 93.16521989666657 -9.844654063279089 M93.16521989666657 -9.844654063279089 C93.3891906702224 -8.990556434163382, 93.61316144377825 -8.136458805047676, 93.72781791827833 -7.699223975348483 M93.16521989666657 -9.844654063279089 C93.31420290263186 -9.27651729189019, 93.46318590859715 -8.708380520501294, 93.72781791827833 -7.699223975348483 M93.72781791827833 -7.699223975348483 C93.87238886318615 -6.956882728326874, 94.01695980809396 -6.214541481305265, 94.15180184422928 -5.5221561246248205 M93.72781791827833 -7.699223975348483 C93.87854432207823 -6.925275747872762, 94.02927072587812 -6.15132752039704, 94.15180184422928 -5.5221561246248205 M94.15180184422928 -5.5221561246248205 C94.2559738455613 -4.714218653382101, 94.36014584689333 -3.906281182139381, 94.43542943362345 -3.3223965498862853 M94.15180184422928 -5.5221561246248205 C94.23909547267695 -4.845123980461396, 94.32638910112463 -4.16809183629797, 94.43542943362345 -3.3223965498862853 M94.43542943362345 -3.3223965498862853 C94.49044667332166 -2.465458632470111, 94.54546391301987 -1.6085207150539367, 94.57753519985805 -1.1089845350724425 M94.43542943362345 -3.3223965498862853 C94.47222612201324 -2.7492584264631508, 94.50902281040301 -2.1761203030400162, 94.57753519985805 -1.1089845350724425 M94.57753519985805 -1.1089845350724425 C94.57753519985805 -0.6620587165453373, 94.57753519985805 -0.2151328980182321, 94.57753519985805 1.108984535072434 M94.57753519985805 -1.1089845350724425 C94.57753519985805 -0.4127687750714556, 94.57753519985805 0.28344698492953135, 94.57753519985805 1.108984535072434 M94.57753519985805 1.108984535072434 C94.52925948294649 1.8609177934273005, 94.48098376603494 2.612851051782167, 94.43542943362345 3.3223965498862618 M94.57753519985805 1.108984535072434 C94.52394578639141 1.9436829064112582, 94.47035637292478 2.778381277750082, 94.43542943362345 3.3223965498862618 M94.43542943362345 3.3223965498862618 C94.35912111190449 3.9142288243560213, 94.28281279018553 4.50606109882578, 94.1518018442293 5.5221561246247965 M94.43542943362345 3.3223965498862618 C94.33369513026825 4.111427716998746, 94.23196082691304 4.900458884111229, 94.1518018442293 5.5221561246247965 M94.1518018442293 5.5221561246247965 C94.04804042270825 6.0549490941511, 93.94427900118723 6.587742063677404, 93.72781791827833 7.699223975348475 M94.1518018442293 5.5221561246247965 C94.059354112921 5.9968556860579705, 93.9669063816127 6.471555247491144, 93.72781791827833 7.699223975348475 M93.72781791827833 7.699223975348475 C93.5305550980916 8.451472602967604, 93.33329227790485 9.203721230586734, 93.16521989666658 9.844654063279066 M93.72781791827833 7.699223975348475 C93.52310742012479 8.47987382689906, 93.31839692197126 9.260523678449648, 93.16521989666658 9.844654063279066 M93.16521989666658 9.844654063279066 C92.9016525329234 10.638476969116965, 92.63808516918023 11.432299874954866, 92.46631961534172 11.949630355991985 M93.16521989666658 9.844654063279066 C93.01647019986945 10.292664449986376, 92.86772050307232 10.740674836693685, 92.46631961534172 11.949630355991985 M92.46631961534172 11.949630355991985 C92.22666763281592 12.541575386186599, 91.9870156502901 13.133520416381215, 91.63398900547335 14.00550305438446 M92.46631961534172 11.949630355991985 C92.22238090971902 12.552163675114063, 91.97844220409634 13.15469699423614, 91.63398900547335 14.00550305438446 M91.63398900547335 14.00550305438446 C91.31487587058393 14.668148306909629, 90.99576273569451 15.330793559434795, 90.67164829207181 16.003824136555473 M91.63398900547335 14.00550305438446 C91.36118359052631 14.571989335622808, 91.08837817557925 15.138475616861156, 90.67164829207181 16.003824136555473 M90.67164829207181 16.003824136555473 C90.42861045750969 16.435362422069893, 90.18557262294759 16.86690070758431, 89.58325193954985 17.936382072539878 M90.67164829207181 16.003824136555473 C90.37274901844162 16.534550063719337, 90.07384974481144 17.0652759908832, 89.58325193954985 17.936382072539878 M89.58325193954985 17.936382072539878 C89.1099099041573 18.663562549036424, 88.63656786876477 19.390743025532974, 88.37327240198032 19.795235567246316 M89.58325193954985 17.936382072539878 C89.21815203559262 18.497273568069726, 88.85305213163538 19.058165063599574, 88.37327240198032 19.795235567246316 M88.37327240198032 19.795235567246316 C87.88515047030215 20.44927448687227, 87.39702853862399 21.103313406498224, 87.04668174482285 21.572746192942237 M88.37327240198032 19.795235567246316 C87.99275356605557 20.30509614140638, 87.61223473013082 20.814956715566442, 87.04668174482285 21.572746192942237 M87.04668174482285 21.572746192942237 C86.49975423145877 22.21519837119682, 85.95282671809468 22.8576505494514, 85.60893121364053 23.2616097771918 M87.04668174482285 21.572746192942237 C86.70205936812016 21.977559246185972, 86.35743699141746 22.382372299429708, 85.60893121364053 23.2616097771918 M85.60893121364053 23.2616097771918 C85.09700623436169 23.790214348119658, 84.58508125508283 24.318818919047516, 84.06592883376248 24.854886417267245 M85.60893121364053 23.2616097771918 C85.19932087562066 23.684566080831498, 84.78971053760078 24.1075223844712, 84.06592883376248 24.854886417267245 M84.06592883376248 24.854886417267245 C83.58435404102985 25.292239902256235, 83.10277924829721 25.729593387245224, 82.42401513294064 26.346028997697704 M84.06592883376248 24.854886417267245 C83.73682916308557 25.15376603067589, 83.40772949240865 25.452645644084534, 82.42401513294064 26.346028997697704 M82.42401513294064 26.346028997697704 C81.94699205284185 26.726442209959213, 81.46996897274306 27.106855422220722, 80.68993708676102 27.728910093771155 M82.42401513294064 26.346028997697704 C81.97437805778793 26.704602599786913, 81.52474098263522 27.063176201876118, 80.68993708676102 27.728910093771155 M80.68993708676102 27.728910093771155 C80.00455421296164 28.207003516787193, 79.31917133916225 28.68509693980323, 78.87082039387398 28.997847150436716 M80.68993708676102 27.728910093771155 C80.13501905017144 28.115996894081412, 79.58010101358185 28.50308369439167, 78.87082039387398 28.997847150436716 M78.87082039387398 28.997847150436716 C78.46124153939479 29.246136258974516, 78.05166268491561 29.494425367512317, 76.97414019496986 30.147625833142442 M78.87082039387398 28.997847150436716 C78.43819605141883 29.260106569215868, 78.00557170896367 29.522365987995023, 76.97414019496986 30.147625833142442 M76.97414019496986 30.147625833142442 C76.53728051211485 30.37553524986592, 76.10042082925985 30.603444666589393, 75.00769035582265 31.173521454654306 M76.97414019496986 30.147625833142442 C76.23472767199749 30.533376872760805, 75.4953151490251 30.91912791237917, 75.00769035582265 31.173521454654306 M75.00769035582265 31.173521454654306 C74.26707624040728 31.50136935401154, 73.5264621249919 31.829217253368775, 72.97955144062354 32.07131838980962 M75.00769035582265 31.173521454654306 C74.22641704546298 31.51936797350121, 73.44514373510333 31.865214492348112, 72.97955144062354 32.07131838980962 M72.97955144062354 32.07131838980962 C72.41663230077536 32.27847783684123, 71.85371316092719 32.485637283872855, 70.8980575072095 32.83732739842498 M72.97955144062354 32.07131838980962 C72.52535225481328 32.23846788875904, 72.07115306900305 32.40561738770846, 70.8980575072095 32.83732739842498 M70.8980575072095 32.83732739842498 C70.1383379236053 33.06280818298924, 69.37861834000111 33.28828896755349, 68.77176186063198 33.46840078517558 M70.8980575072095 32.83732739842498 C70.1565232107597 33.05741088521833, 69.4149889143099 33.27749437201168, 68.77176186063198 33.46840078517558 M68.77176186063198 33.46840078517558 C68.09858089171121 33.62204994841539, 67.42539992279045 33.77569911165519, 66.60940190579176 33.96194533415045 M68.77176186063198 33.46840078517558 C67.94471955728825 33.657167793958386, 67.11767725394452 33.8459348027412, 66.60940190579176 33.96194533415045 M66.60940190579176 33.96194533415045 C66.01368127369504 34.058256826065346, 65.41796064159831 34.15456831798024, 64.41986324356805 34.31593296493285 M66.60940190579176 33.96194533415045 C65.78121863955657 34.0958395819782, 64.9530353733214 34.22973382980595, 64.41986324356805 34.31593296493285 M64.41986324356805 34.31593296493285 C63.5715562514271 34.39776812022626, 62.723249259286156 34.47960327551967, 62.212143157978446 34.52890906641781 M64.41986324356805 34.31593296493285 C63.91972102436559 34.364181083310285, 63.419578805163134 34.41242920168773, 62.212143157978446 34.52890906641781 M62.212143157978446 34.52890906641781 C61.48706337005964 34.55216096393418, 60.76198358214083 34.575412861450545, 59.99531364440919 34.599998474121094 M62.212143157978446 34.52890906641781 C61.386961809496135 34.55537102614558, 60.561780461013825 34.581832985873355, 59.99531364440919 34.599998474121094 M59.99531364440919 34.599998474121094 C59.99531364440919 34.599998474121094, 59.99531364440918 34.599998474121094, 59.99531364440918 34.599998474121094 M59.99531364440919 34.599998474121094 C59.99531364440919 34.599998474121094, 59.99531364440918 34.599998474121094, 59.99531364440918 34.599998474121094 M59.99531364440918 34.599998474121094 C31.7813850416612 34.599998474121094, 3.5674564389132186 34.599998474121094, -59.99531364440917 34.599998474121094 M59.99531364440918 34.599998474121094 C23.174334899861073 34.599998474121094, -13.646643844687034 34.599998474121094, -59.99531364440917 34.599998474121094 M-59.99531364440917 34.599998474121094 C-60.6655588246319 34.57850501574445, -61.33580400485464 34.55701155736781, -62.21214315797843 34.52890906641781 M-59.99531364440917 34.599998474121094 C-60.867930908239686 34.572015336916515, -61.7405481720702 34.544032199711936, -62.21214315797843 34.52890906641781 M-62.21214315797843 34.52890906641781 C-62.96259515747098 34.45651386457734, -63.713047156963526 34.384118662736874, -64.41986324356803 34.31593296493285 M-62.21214315797843 34.52890906641781 C-62.87427360083303 34.46503413892399, -63.53640404368763 34.40115921143017, -64.41986324356803 34.31593296493285 M-64.41986324356803 34.31593296493285 C-65.16298926315667 34.195790113114114, -65.90611528274533 34.07564726129537, -66.60940190579174 33.96194533415045 M-64.41986324356803 34.31593296493285 C-65.06301405905323 34.21195332879427, -65.70616487453842 34.10797369265569, -66.60940190579174 33.96194533415045 M-66.60940190579174 33.96194533415045 C-67.1485396900493 33.83889065309649, -67.68767747430688 33.71583597204254, -68.77176186063194 33.46840078517559 M-66.60940190579174 33.96194533415045 C-67.23555139030123 33.8190308003184, -67.86170087481071 33.67611626648635, -68.77176186063194 33.46840078517559 M-68.77176186063194 33.46840078517559 C-69.2972653492369 33.31243410818174, -69.82276883784186 33.15646743118789, -70.89805750720946 32.837327398424996 M-68.77176186063194 33.46840078517559 C-69.51928109600051 33.24654099992674, -70.26680033136907 33.024681214677884, -70.89805750720946 32.837327398424996 M-70.89805750720946 32.837327398424996 C-71.48016157922568 32.62310771901197, -72.06226565124192 32.40888803959894, -72.97955144062352 32.071318389809626 M-70.89805750720946 32.837327398424996 C-71.32143266718722 32.6815214259161, -71.74480782716498 32.52571545340721, -72.97955144062352 32.071318389809626 M-72.97955144062352 32.071318389809626 C-73.42470711721789 31.874261176855267, -73.86986279381226 31.677203963900908, -75.00769035582263 31.173521454654317 M-72.97955144062352 32.071318389809626 C-73.78876982021565 31.71310141777454, -74.59798819980777 31.354884445739447, -75.00769035582263 31.173521454654317 M-75.00769035582263 31.173521454654317 C-75.58561641609775 30.8720177991881, -76.16354247637287 30.57051414372188, -76.97414019496986 30.14762583314245 M-75.00769035582263 31.173521454654317 C-75.43461814532144 30.950793500333088, -75.86154593482026 30.72806554601186, -76.97414019496986 30.14762583314245 M-76.97414019496986 30.14762583314245 C-77.3567095217491 29.915710059021965, -77.73927884852831 29.68379428490148, -78.87082039387394 28.99784715043674 M-76.97414019496986 30.14762583314245 C-77.37330193116101 29.90565164292864, -77.77246366735216 29.66367745271483, -78.87082039387394 28.99784715043674 M-78.87082039387394 28.99784715043674 C-79.55897920873421 28.517817351105183, -80.24713802359447 28.03778755177363, -80.689937086761 27.728910093771162 M-78.87082039387394 28.99784715043674 C-79.32898257624389 28.678253045536685, -79.78714475861382 28.35865894063663, -80.689937086761 27.728910093771162 M-80.689937086761 27.728910093771162 C-81.0718551122173 27.424340631735245, -81.45377313767362 27.119771169699327, -82.42401513294061 26.346028997697733 M-80.689937086761 27.728910093771162 C-81.37819100920927 27.180045905824734, -82.06644493165754 26.631181717878302, -82.42401513294061 26.346028997697733 M-82.42401513294061 26.346028997697733 C-82.91872607609432 25.896745608459824, -83.41343701924801 25.447462219221915, -84.06592883376246 24.85488641726727 M-82.42401513294061 26.346028997697733 C-83.01100203880108 25.812943020617723, -83.59798894466154 25.279857043537714, -84.06592883376246 24.85488641726727 M-84.06592883376246 24.85488641726727 C-84.37738256766175 24.533284866189135, -84.68883630156107 24.211683315111, -85.60893121364052 23.261609777191815 M-84.06592883376246 24.85488641726727 C-84.63915383905027 24.26298453665943, -85.21237884433808 23.671082656051592, -85.60893121364052 23.261609777191815 M-85.60893121364052 23.261609777191815 C-85.95543021451589 22.854592334411926, -86.30192921539124 22.447574891632037, -87.04668174482285 21.57274619294225 M-85.60893121364052 23.261609777191815 C-86.09984897734381 22.684949837933846, -86.59076674104709 22.108289898675874, -87.04668174482285 21.57274619294225 M-87.04668174482285 21.57274619294225 C-87.47297078708044 21.001557712047756, -87.89925982933802 20.43036923115326, -88.3732724019803 19.795235567246337 M-87.04668174482285 21.57274619294225 C-87.52864817266399 20.92695508767996, -88.01061460050514 20.28116398241767, -88.3732724019803 19.795235567246337 M-88.3732724019803 19.795235567246337 C-88.75362850188172 19.210906457883986, -89.13398460178315 18.626577348521636, -89.58325193954984 17.9363820725399 M-88.3732724019803 19.795235567246337 C-88.6763996207118 19.329550758219305, -88.9795268394433 18.863865949192274, -89.58325193954984 17.9363820725399 M-89.58325193954984 17.9363820725399 C-89.86715582516484 17.43228197524469, -90.15105971077983 16.928181877949477, -90.67164829207181 16.003824136555483 M-89.58325193954984 17.9363820725399 C-89.95579467813803 17.274894716133634, -90.32833741672623 16.61340735972737, -90.67164829207181 16.003824136555483 M-90.67164829207181 16.003824136555483 C-90.94261080192334 15.441164687179834, -91.21357331177487 14.878505237804184, -91.63398900547335 14.005503054384473 M-90.67164829207181 16.003824136555483 C-90.86498245974748 15.602361600688452, -91.05831662742314 15.20089906482142, -91.63398900547335 14.005503054384473 M-91.63398900547335 14.005503054384473 C-91.82962922983303 13.522267917769637, -92.02526945419272 13.039032781154804, -92.46631961534172 11.949630355992014 M-91.63398900547335 14.005503054384473 C-91.95954431499389 13.201375145685041, -92.28509962451442 12.397247236985612, -92.46631961534172 11.949630355992014 M-92.46631961534172 11.949630355992014 C-92.63762232110984 11.433693899598055, -92.80892502687797 10.917757443204096, -93.16521989666657 9.84465406327908 M-92.46631961534172 11.949630355992014 C-92.72547778825691 11.169087230418826, -92.9846359611721 10.38854410484564, -93.16521989666657 9.84465406327908 M-93.16521989666657 9.84465406327908 C-93.37715996394336 9.036434731346477, -93.58910003122016 8.228215399413873, -93.72781791827833 7.699223975348487 M-93.16521989666657 9.84465406327908 C-93.30574926774501 9.308754665542283, -93.44627863882346 8.772855267805488, -93.72781791827833 7.699223975348487 M-93.72781791827833 7.699223975348487 C-93.81627972206535 7.244991309311031, -93.90474152585236 6.790758643273573, -94.15180184422928 5.522156124624825 M-93.72781791827833 7.699223975348487 C-93.89076215251039 6.862539770842962, -94.05370638674245 6.0258555663374365, -94.15180184422928 5.522156124624825 M-94.15180184422928 5.522156124624825 C-94.22832893944947 4.9286270860813595, -94.30485603466964 4.335098047537895, -94.43542943362344 3.3223965498863053 M-94.15180184422928 5.522156124624825 C-94.22368405084053 4.964651924895256, -94.29556625745177 4.4071477251656885, -94.43542943362344 3.3223965498863053 M-94.43542943362344 3.3223965498863053 C-94.46907971386425 2.7982662731184074, -94.50272999410505 2.274135996350509, -94.57753519985805 1.108984535072447 M-94.43542943362344 3.3223965498863053 C-94.47256783051505 2.743936040725182, -94.50970622740665 2.1654755315640584, -94.57753519985805 1.108984535072447 M-94.57753519985805 1.108984535072447 C-94.57753519985805 0.5575618277462413, -94.57753519985805 0.006139120420035615, -94.57753519985805 -1.10898453507243 M-94.57753519985805 1.108984535072447 C-94.57753519985805 0.6474687880470738, -94.57753519985805 0.1859530410217004, -94.57753519985805 -1.10898453507243 M-94.57753519985805 -1.10898453507243 C-94.52852078204816 -1.8724236561875047, -94.47950636423826 -2.6358627773025796, -94.43542943362345 -3.3223965498862578 M-94.57753519985805 -1.10898453507243 C-94.53032866271651 -1.844264455482813, -94.48312212557498 -2.579544375893196, -94.43542943362345 -3.3223965498862578 M-94.43542943362345 -3.3223965498862578 C-94.34382137496424 -4.032890562789896, -94.252213316305 -4.743384575693533, -94.1518018442293 -5.522156124624808 M-94.43542943362345 -3.3223965498862578 C-94.34119391769535 -4.053268602517176, -94.24695840176726 -4.784140655148093, -94.1518018442293 -5.522156124624808 M-94.1518018442293 -5.522156124624808 C-93.98775452689678 -6.364504427714484, -93.82370720956426 -7.20685273080416, -93.72781791827833 -7.699223975348471 M-94.1518018442293 -5.522156124624808 C-94.0506298296697 -6.041653036675461, -93.94945781511011 -6.561149948726115, -93.72781791827833 -7.699223975348471 M-93.72781791827833 -7.699223975348471 C-93.60053139176033 -8.184622667291206, -93.47324486524231 -8.670021359233942, -93.16521989666658 -9.844654063279062 M-93.72781791827833 -7.699223975348471 C-93.50359126518056 -8.554297384056456, -93.2793646120828 -9.409370792764442, -93.16521989666658 -9.844654063279062 M-93.16521989666658 -9.844654063279062 C-92.88920669924666 -10.675961837177061, -92.61319350182671 -11.50726961107506, -92.46631961534173 -11.94963035599197 M-93.16521989666658 -9.844654063279062 C-92.94995470313086 -10.492998528357814, -92.73468950959514 -11.141342993436567, -92.46631961534173 -11.94963035599197 M-92.46631961534173 -11.94963035599197 C-92.25159664087535 -12.480000254310237, -92.03687366640895 -13.010370152628505, -91.63398900547335 -14.005503054384455 M-92.46631961534173 -11.94963035599197 C-92.24996985685685 -12.484018442287658, -92.03362009837196 -13.018406528583347, -91.63398900547335 -14.005503054384455 M-91.63398900547335 -14.005503054384455 C-91.35588224282264 -14.582997697560108, -91.07777548017195 -15.16049234073576, -90.67164829207181 -16.00382413655547 M-91.63398900547335 -14.005503054384455 C-91.2857655158837 -14.72859658130646, -90.93754202629405 -15.451690108228465, -90.67164829207181 -16.00382413655547 M-90.67164829207181 -16.00382413655547 C-90.3336006541545 -16.604061948712886, -89.99555301623718 -17.204299760870303, -89.58325193954985 -17.93638207253989 M-90.67164829207181 -16.00382413655547 C-90.38154896720894 -16.518924863591526, -90.09144964234608 -17.034025590627582, -89.58325193954985 -17.93638207253989 M-89.58325193954985 -17.93638207253989 C-89.22867126657191 -18.481113204476507, -88.87409059359398 -19.025844336413126, -88.3732724019803 -19.795235567246326 M-89.58325193954985 -17.93638207253989 C-89.227141959155 -18.483462631345407, -88.87103197876017 -19.030543190150922, -88.3732724019803 -19.795235567246326 M-88.3732724019803 -19.795235567246326 C-88.09726900649599 -20.165054972768697, -87.8212656110117 -20.534874378291068, -87.04668174482285 -21.572746192942237 M-88.3732724019803 -19.795235567246326 C-87.98454480209737 -20.316095137276573, -87.59581720221445 -20.83695470730682, -87.04668174482285 -21.572746192942237 M-87.04668174482285 -21.572746192942237 C-86.52735456067893 -22.18277745399159, -86.00802737653501 -22.792808715040945, -85.60893121364053 -23.2616097771918 M-87.04668174482285 -21.572746192942237 C-86.5936250051641 -22.10493241900419, -86.14056826550537 -22.637118645066145, -85.60893121364053 -23.2616097771918 M-85.60893121364053 -23.2616097771918 C-85.08808422454234 -23.79942705576875, -84.56723723544417 -24.337244334345698, -84.0659288337625 -24.854886417267235 M-85.60893121364053 -23.2616097771918 C-85.29003531527025 -23.590895974099286, -84.97113941689997 -23.920182171006775, -84.0659288337625 -24.854886417267235 M-84.0659288337625 -24.854886417267235 C-83.58529587865121 -25.29138455024818, -83.10466292353992 -25.727882683229122, -82.42401513294065 -26.3460289976977 M-84.0659288337625 -24.854886417267235 C-83.64744329659504 -25.234943909602162, -83.22895775942759 -25.615001401937093, -82.42401513294065 -26.3460289976977 M-82.42401513294065 -26.3460289976977 C-81.96407160860187 -26.71282171874666, -81.5041280842631 -27.079614439795623, -80.68993708676102 -27.72891009377115 M-82.42401513294065 -26.3460289976977 C-81.74849307447339 -26.88473986292841, -81.07297101600612 -27.423450728159118, -80.68993708676102 -27.72891009377115 M-80.68993708676102 -27.72891009377115 C-80.01503585279933 -28.199691978579285, -79.34013461883765 -28.670473863387414, -78.87082039387398 -28.997847150436712 M-80.68993708676102 -27.72891009377115 C-80.26603119520219 -28.024608493132302, -79.84212530364337 -28.320306892493456, -78.87082039387398 -28.997847150436712 M-78.87082039387398 -28.997847150436712 C-78.1374622720152 -29.4424131535982, -77.40410415015641 -29.88697915675969, -76.97414019496986 -30.14762583314244 M-78.87082039387398 -28.997847150436712 C-78.33824642989131 -29.320696617155015, -77.80567246590864 -29.643546083873318, -76.97414019496986 -30.14762583314244 M-76.97414019496986 -30.14762583314244 C-76.47453391844176 -30.40827010759406, -75.97492764191365 -30.66891438204568, -75.00769035582266 -31.173521454654306 M-76.97414019496986 -30.14762583314244 C-76.28476553062463 -30.507272153965808, -75.59539086627937 -30.866918474789177, -75.00769035582266 -31.173521454654306 M-75.00769035582266 -31.173521454654306 C-74.59856018478816 -31.354631244955964, -74.18943001375365 -31.535741035257622, -72.97955144062354 -32.07131838980962 M-75.00769035582266 -31.173521454654306 C-74.38438145750393 -31.449441814138485, -73.7610725591852 -31.72536217362266, -72.97955144062354 -32.07131838980962 M-72.97955144062354 -32.07131838980962 C-72.37714762188578 -32.29300856366497, -71.77474380314803 -32.51469873752033, -70.8980575072095 -32.83732739842498 M-72.97955144062354 -32.07131838980962 C-72.1483334935417 -32.37721427803021, -71.31711554645986 -32.6831101662508, -70.8980575072095 -32.83732739842498 M-70.8980575072095 -32.83732739842498 C-70.3820864998137 -32.99046488503297, -69.86611549241789 -33.14360237164097, -68.771761860632 -33.46840078517558 M-70.8980575072095 -32.83732739842498 C-70.08790908704044 -33.077775196975324, -69.27776066687139 -33.318222995525666, -68.771761860632 -33.46840078517558 M-68.771761860632 -33.46840078517558 C-68.08813605036687 -33.624433915293274, -67.40451024010173 -33.78046704541097, -66.60940190579176 -33.96194533415044 M-68.771761860632 -33.46840078517558 C-68.11745052998572 -33.61774307661513, -67.46313919933942 -33.76708536805468, -66.60940190579176 -33.96194533415044 M-66.60940190579176 -33.96194533415044 C-65.94510703658459 -34.06934337692021, -65.28081216737742 -34.17674141968997, -64.41986324356805 -34.31593296493285 M-66.60940190579176 -33.96194533415044 C-66.11634186505552 -34.04165945779896, -65.62328182431926 -34.121373581447465, -64.41986324356805 -34.31593296493285 M-64.41986324356805 -34.31593296493285 C-63.88878477351981 -34.36716546622309, -63.35770630347157 -34.41839796751334, -62.21214315797845 -34.52890906641781 M-64.41986324356805 -34.31593296493285 C-63.5741364901556 -34.39751920769931, -62.72840973674317 -34.47910545046578, -62.21214315797845 -34.52890906641781 M-62.21214315797845 -34.52890906641781 C-61.65218095970534 -34.54686596421613, -61.09221876143223 -34.56482286201445, -59.99531364440919 -34.599998474121094 M-62.21214315797845 -34.52890906641781 C-61.37242264962006 -34.555837268704046, -60.53270214126167 -34.58276547099029, -59.99531364440919 -34.599998474121094 M-59.99531364440919 -34.599998474121094 C-59.99531364440919 -34.599998474121094, -59.99531364440918 -34.599998474121094, -59.99531364440918 -34.599998474121094 M-59.99531364440919 -34.599998474121094 C-59.99531364440919 -34.599998474121094, -59.99531364440918 -34.599998474121094, -59.99531364440918 -34.599998474121094" stroke="#6E4810" stroke-width="1.3" fill="none" stroke-dasharray="0 0" style="fill:#8B5E15 !important;stroke:#6E4810 !important"></path></g><g class="label" style="color:#fff !important" transform="translate(0, -27.099998474121094)"><rect></rect><g><rect class="background" style="stroke: none"></rect><text y="-10.1" style="fill:#404040 !important"><tspan class="text-outer-tspan row" x="0" y="-0.1em" dy="1.1em"><tspan font-style="normal" class="text-inner-tspan" font-weight="normal">SDKs</tspan></tspan><tspan class="text-outer-tspan row" x="0" y="1em" dy="1.1em"><tspan font-style="normal" class="text-inner-tspan" font-weight="normal">(@sdk/*</tspan><tspan font-style="normal" class="text-inner-tspan" font-weight="normal"> -</tspan><tspan font-style="normal" class="text-inner-tspan" font-weight="normal"> injected</tspan><tspan font-style="normal" class="text-inner-tspan" font-weight="normal"> via</tspan></tspan><tspan class="text-outer-tspan row" x="0" y="2.1em" dy="1.1em"><tspan font-style="normal" class="text-inner-tspan" font-weight="normal">Context)</tspan></tspan></text></g></g></g></g></g></g><defs><filter id="gaa1df90b-6e48-4ccc-b6db-c35a81a40f7c-dark-drop-shadow" height="130%" width="130%"><feDropShadow dx="4" dy="4" stdDeviation="0" flood-opacity="0.06" flood-color="#000000"></feDropShadow></filter></defs><defs><filter id="gaa1df90b-6e48-4ccc-b6db-c35a81a40f7c-dark-drop-shadow-small" height="150%" width="150%"><feDropShadow dx="2" dy="2" stdDeviation="0" flood-opacity="0.06" flood-color="#000000"></feDropShadow></filter></defs><linearGradient id="gaa1df90b-6e48-4ccc-b6db-c35a81a40f7c-dark-gradient" gradientUnits="objectBoundingBox" x1="0%" y1="0%" x2="100%" y2="0%"><stop offset="0%" stop-color="#555555" stop-opacity="1"></stop><stop offset="100%" stop-color="#555555" stop-opacity="1"></stop></linearGradient></svg>