<svg id="g24da008f-94fc-4527-9f25-e63f34f69eb1-dark" width="100%" xmlns="http://www.w3.org/2000/svg" xmlns:xlink="http://www.w3.org/1999/xlink" class="flowchart" style="max-width: 1277.8629150390625px;" viewBox="0.12540435791015625 0 1277.8629150390625 894.2437744140625" role="graphics-document document" aria-roledescription="flowchart-v2"><style>#g24da008f-94fc-4527-9f25-e63f34f69eb1-dark{font-family:"trebuchet ms",verdana,arial,sans-serif;font-size:16px;fill:#e5e5e5;}@keyframes edge-animation-frame{from{stroke-dashoffset:0;}}@keyframes dash{to{stroke-dashoffset:0;}}#g24da008f-94fc-4527-9f25-e63f34f69eb1-dark .edge-animation-slow{stroke-dasharray:9,5!important;stroke-dashoffset:900;animation:dash 50s linear infinite;stroke-linecap:round;}#g24da008f-94fc-4527-9f25-e63f34f69eb1-dark .edge-animation-fast{stroke-dasharray:9,5!important;stroke-dashoffset:900;animation:dash 20s linear infinite;stroke-linecap:round;}#g24da008f-94fc-4527-9f25-e63f34f69eb1-dark .error-icon{fill:#252525;}#g24da008f-94fc-4527-9f25-e63f34f69eb1-dark .error-text{fill:#cccccc;stroke:#cccccc;}#g24da008f-94fc-4527-9f25-e63f34f69eb1-dark .edge-thickness-normal{stroke-width:1px;}#g24da008f-94fc-4527-9f25-e63f34f69eb1-dark .edge-thickness-thick{stroke-width:3.5px;}#g24da008f-94fc-4527-9f25-e63f34f69eb1-dark .edge-pattern-solid{stroke-dasharray:0;}#g24da008f-94fc-4527-9f25-e63f34f69eb1-dark .edge-thickness-invisible{stroke-width:0;fill:none;}#g24da008f-94fc-4527-9f25-e63f34f69eb1-dark .edge-pattern-dashed{stroke-dasharray:3;}#g24da008f-94fc-4527-9f25-e63f34f69eb1-dark .edge-pattern-dotted{stroke-dasharray:2;}#g24da008f-94fc-4527-9f25-e63f34f69eb1-dark .marker{fill:#cccccc;stroke:#cccccc;}#g24da008f-94fc-4527-9f25-e63f34f69eb1-dark .marker.cross{stroke:#cccccc;}#g24da008f-94fc-4527-9f25-e63f34f69eb1-dark svg{font-family:"trebuchet ms",verdana,arial,sans-serif;font-size:16px;}#g24da008f-94fc-4527-9f25-e63f34f69eb1-dark p{margin:0;}#g24da008f-94fc-4527-9f25-e63f34f69eb1-dark .label{font-family:"trebuchet ms",verdana,arial,sans-serif;color:#e5e5e5;}#g24da008f-94fc-4527-9f25-e63f34f69eb1-dark .cluster-label text{fill:#e5e5e5;}#g24da008f-94fc-4527-9f25-e63f34f69eb1-dark .cluster-label span{color:#e5e5e5;}#g24da008f-94fc-4527-9f25-e63f34f69eb1-dark .cluster-label span p{background-color:transparent;}#g24da008f-94fc-4527-9f25-e63f34f69eb1-dark .label text,#g24da008f-94fc-4527-9f25-e63f34f69eb1-dark span{fill:#e5e5e5;color:#e5e5e5;}#g24da008f-94fc-4527-9f25-e63f34f69eb1-dark .node rect,#g24da008f-94fc-4527-9f25-e63f34f69eb1-dark .node circle,#g24da008f-94fc-4527-9f25-e63f34f69eb1-dark .node ellipse,#g24da008f-94fc-4527-9f25-e63f34f69eb1-dark .node polygon,#g24da008f-94fc-4527-9f25-e63f34f69eb1-dark .node path{fill:#2d2d2d;stroke:#555555;stroke-width:1px;}#g24da008f-94fc-4527-9f25-e63f34f69eb1-dark .rough-node .label text,#g24da008f-94fc-4527-9f25-e63f34f69eb1-dark .node .label text,#g24da008f-94fc-4527-9f25-e63f34f69eb1-dark .image-shape .label,#g24da008f-94fc-4527-9f25-e63f34f69eb1-dark .icon-shape .label{text-anchor:middle;}#g24da008f-94fc-4527-9f25-e63f34f69eb1-dark .node .katex path{fill:#000;stroke:#000;stroke-width:1px;}#g24da008f-94fc-4527-9f25-e63f34f69eb1-dark .rough-node .label,#g24da008f-94fc-4527-9f25-e63f34f69eb1-dark .node .label,#g24da008f-94fc-4527-9f25-e63f34f69eb1-dark .image-shape .label,#g24da008f-94fc-4527-9f25-e63f34f69eb1-dark .icon-shape .label{text-align:center;}#g24da008f-94fc-4527-9f25-e63f34f69eb1-dark .node.clickable{cursor:pointer;}#g24da008f-94fc-4527-9f25-e63f34f69eb1-dark .root .anchor path{fill:#cccccc!important;stroke-width:0;stroke:#cccccc;}#g24da008f-94fc-4527-9f25-e63f34f69eb1-dark .arrowheadPath{fill:#cccccc;}#g24da008f-94fc-4527-9f25-e63f34f69eb1-dark .edgePath .path{stroke:#cccccc;stroke-width:1px;}#g24da008f-94fc-4527-9f25-e63f34f69eb1-dark .flowchart-link{stroke:#cccccc;fill:none;}#g24da008f-94fc-4527-9f25-e63f34f69eb1-dark .edgeLabel{background-color:#1e1e1e;text-align:center;}#g24da008f-94fc-4527-9f25-e63f34f69eb1-dark .edgeLabel p{background-color:#1e1e1e;}#g24da008f-94fc-4527-9f25-e63f34f69eb1-dark .edgeLabel rect{opacity:0.5;background-color:#1e1e1e;fill:#1e1e1e;}#g24da008f-94fc-4527-9f25-e63f34f69eb1-dark .labelBkg{background-color:rgba(30, 30, 30, 0.5);}#g24da008f-94fc-4527-9f25-e63f34f69eb1-dark .cluster rect{fill:#1e1e1e;stroke:#555555;stroke-width:1px;}#g24da008f-94fc-4527-9f25-e63f34f69eb1-dark .cluster text{fill:#e5e5e5;}#g24da008f-94fc-4527-9f25-e63f34f69eb1-dark .cluster span{color:#e5e5e5;}#g24da008f-94fc-4527-9f25-e63f34f69eb1-dark div.mermaidTooltip{position:absolute;text-align:center;max-width:200px;padding:2px;font-family:"trebuchet ms",verdana,arial,sans-serif;font-size:12px;background:#252525;border:1px solid #555555;border-radius:2px;pointer-events:none;z-index:100;}#g24da008f-94fc-4527-9f25-e63f34f69eb1-dark .flowchartTitleText{text-anchor:middle;font-size:18px;fill:#e5e5e5;}#g24da008f-94fc-4527-9f25-e63f34f69eb1-dark rect.text{fill:none;stroke-width:0;}#g24da008f-94fc-4527-9f25-e63f34f69eb1-dark .icon-shape,#g24da008f-94fc-4527-9f25-e63f34f69eb1-dark .image-shape{background-color:#1e1e1e;text-align:center;}#g24da008f-94fc-4527-9f25-e63f34f69eb1-dark .icon-shape p,#g24da008f-94fc-4527-9f25-e63f34f69eb1-dark .image-shape p{background-color:#1e1e1e;padding:2px;}#g24da008f-94fc-4527-9f25-e63f34f69eb1-dark .icon-shape .label rect,#g24da008f-94fc-4527-9f25-e63f34f69eb1-dark .image-shape .label rect{opacity:0.5;background-color:#1e1e1e;fill:#1e1e1e;}#g24da008f-94fc-4527-9f25-e63f34f69eb1-dark .label-icon{display:inline-block;height:1em;overflow:visible;vertical-align:-0.125em;}#g24da008f-94fc-4527-9f25-e63f34f69eb1-dark .node .label-icon path{fill:currentColor;stroke:revert;stroke-width:revert;}#g24da008f-94fc-4527-9f25-e63f34f69eb1-dark .node .neo-node{stroke:#555555;}#g24da008f-94fc-4527-9f25-e63f34f69eb1-dark [data-look="neo"].node rect,#g24da008f-94fc-4527-9f25-e63f34f69eb1-dark [data-look="neo"].cluster rect,#g24da008f-94fc-4527-9f25-e63f34f69eb1-dark [data-look="neo"].node polygon{stroke:url(#g24da008f-94fc-4527-9f25-e63f34f69eb1-dark-gradient);filter:drop-shadow( 1px 2px 2px rgba(185,185,185,1));}#g24da008f-94fc-4527-9f25-e63f34f69eb1-dark [data-look="neo"].node path{stroke:url(#g24da008f-94fc-4527-9f25-e63f34f69eb1-dark-gradient);stroke-width:1px;}#g24da008f-94fc-4527-9f25-e63f34f69eb1-dark [data-look="neo"].node .outer-path{filter:drop-shadow( 1px 2px 2px rgba(185,185,185,1));}#g24da008f-94fc-4527-9f25-e63f34f69eb1-dark [data-look="neo"].node .neo-line path{stroke:#555555;filter:none;}#g24da008f-94fc-4527-9f25-e63f34f69eb1-dark [data-look="neo"].node circle{stroke:url(#g24da008f-94fc-4527-9f25-e63f34f69eb1-dark-gradient);filter:drop-shadow( 1px 2px 2px rgba(185,185,185,1));}#g24da008f-94fc-4527-9f25-e63f34f69eb1-dark [data-look="neo"].node circle .state-start{fill:#000000;}#g24da008f-94fc-4527-9f25-e63f34f69eb1-dark [data-look="neo"].icon-shape .icon{fill:url(#g24da008f-94fc-4527-9f25-e63f34f69eb1-dark-gradient);filter:drop-shadow( 1px 2px 2px rgba(185,185,185,1));}#g24da008f-94fc-4527-9f25-e63f34f69eb1-dark [data-look="neo"].icon-shape .icon-neo path{stroke:url(#g24da008f-94fc-4527-9f25-e63f34f69eb1-dark-gradient);filter:drop-shadow( 1px 2px 2px rgba(185,185,185,1));}#g24da008f-94fc-4527-9f25-e63f34f69eb1-dark :root{--mermaid-font-family:"trebuchet ms",verdana,arial,sans-serif;}#g24da008f-94fc-4527-9f25-e63f34f69eb1-dark .cb rect{fill:#2E5A88!important;stroke:#1F4870!important;color:#ffffff!important;}#g24da008f-94fc-4527-9f25-e63f34f69eb1-dark .cb polygon{fill:#2E5A88!important;stroke:#1F4870!important;color:#ffffff!important;}#g24da008f-94fc-4527-9f25-e63f34f69eb1-dark .cb ellipse{fill:#2E5A88!important;stroke:#1F4870!important;color:#ffffff!important;}#g24da008f-94fc-4527-9f25-e63f34f69eb1-dark .cb circle{fill:#2E5A88!important;stroke:#1F4870!important;color:#ffffff!important;}#g24da008f-94fc-4527-9f25-e63f34f69eb1-dark .cb path{fill:#2E5A88!important;stroke:#1F4870!important;color:#ffffff!important;}#g24da008f-94fc-4527-9f25-e63f34f69eb1-dark .cb tspan{fill:#ffffff!important;}#g24da008f-94fc-4527-9f25-e63f34f69eb1-dark .stop rect{fill:#2D7A2D!important;stroke:#1E5A1E!important;color:#ffffff!important;}#g24da008f-94fc-4527-9f25-e63f34f69eb1-dark .stop polygon{fill:#2D7A2D!important;stroke:#1E5A1E!important;color:#ffffff!important;}#g24da008f-94fc-4527-9f25-e63f34f69eb1-dark .stop ellipse{fill:#2D7A2D!important;stroke:#1E5A1E!important;color:#ffffff!important;}#g24da008f-94fc-4527-9f25-e63f34f69eb1-dark .stop circle{fill:#2D7A2D!important;stroke:#1E5A1E!important;color:#ffffff!important;}#g24da008f-94fc-4527-9f25-e63f34f69eb1-dark .stop path{fill:#2D7A2D!important;stroke:#1E5A1E!important;color:#ffffff!important;}#g24da008f-94fc-4527-9f25-e63f34f69eb1-dark .stop tspan{fill:#ffffff!important;}</style><g><marker id="g24da008f-94fc-4527-9f25-e63f34f69eb1-dark_flowchart-v2-pointEnd" class="marker flowchart-v2" viewBox="0 0 10 10" refX="5" refY="5" markerUnits="userSpaceOnUse" markerWidth="8" markerHeight="8" orient="auto"><path d="M 0 0 L 10 5 L 0 10 z" class="arrowMarkerPath" style="stroke-width: 1; stroke-dasharray: 1, 0;"></path></marker><marker id="g24da008f-94fc-4527-9f25-e63f34f69eb1-dark_flowchart-v2-pointStart" class="marker flowchart-v2" viewBox="0 0 10 10" refX="4.5" refY="5" markerUnits="userSpaceOnUse" markerWidth="8" markerHeight="8" orient="auto"><path d="M 0 5 L 10 10 L 10 0 z" class="arrowMarkerPath" style="stroke-width: 1; stroke-dasharray: 1, 0;"></path></marker><marker id="g24da008f-94fc-4527-9f25-e63f34f69eb1-dark_flowchart-v2-pointEnd-margin" class="marker flowchart-v2" viewBox="0 0 11.5 14" refX="11.5" refY="7" markerUnits="userSpaceOnUse" markerWidth="10.5" markerHeight="14" orient="auto"><path d="M 0 0 L 11.5 7 L 0 14 z" class="arrowMarkerPath" style="stroke-width: 0; stroke-dasharray: 1, 0;"></path></marker><marker id="g24da008f-94fc-4527-9f25-e63f34f69eb1-dark_flowchart-v2-pointStart-margin" class="marker flowchart-v2" viewBox="0 0 11.5 14" refX="1" refY="7" markerUnits="userSpaceOnUse" markerWidth="11.5" markerHeight="14" orient="auto"><polygon points="0,7 11.5,14 11.5,0" class="arrowMarkerPath" style="stroke-width: 0; stroke-dasharray: 1, 0;"></polygon></marker><marker id="g24da008f-94fc-4527-9f25-e63f34f69eb1-dark_flowchart-v2-circleEnd" class="marker flowchart-v2" viewBox="0 0 10 10" refX="11" refY="5" markerUnits="userSpaceOnUse" markerWidth="11" markerHeight="11" orient="auto"><circle cx="5" cy="5" r="5" class="arrowMarkerPath" style="stroke-width: 1; stroke-dasharray: 1, 0;"></circle></marker><marker id="g24da008f-94fc-4527-9f25-e63f34f69eb1-dark_flowchart-v2-circleStart" class="marker flowchart-v2" viewBox="0 0 10 10" refX="-1" refY="5" markerUnits="userSpaceOnUse" markerWidth="11" markerHeight="11" orient="auto"><circle cx="5" cy="5" r="5" class="arrowMarkerPath" style="stroke-width: 1; stroke-dasharray: 1, 0;"></circle></marker><marker id="g24da008f-94fc-4527-9f25-e63f34f69eb1-dark_flowchart-v2-circleEnd-margin" class="marker flowchart-v2" viewBox="0 0 10 10" refY="5" refX="12.25" markerUnits="userSpaceOnUse" markerWidth="14" markerHeight="14" orient="auto"><circle cx="5" cy="5" r="5" class="arrowMarkerPath" style="stroke-width: 0; stroke-dasharray: 1, 0;"></circle></marker><marker id="g24da008f-94fc-4527-9f25-e63f34f69eb1-dark_flowchart-v2-circleStart-margin" class="marker flowchart-v2" viewBox="0 0 10 10" refX="-2" refY="5" markerUnits="userSpaceOnUse" markerWidth="14" markerHeight="14" orient="auto"><circle cx="5" cy="5" r="5" class="arrowMarkerPath" style="stroke-width: 0; stroke-dasharray: 1, 0;"></circle></marker><marker id="g24da008f-94fc-4527-9f25-e63f34f69eb1-dark_flowchart-v2-crossEnd" class="marker cross flowchart-v2" viewBox="0 0 11 11" refX="12" refY="5.2" markerUnits="userSpaceOnUse" markerWidth="11" markerHeight="11" orient="auto"><path d="M 1,1 l 9,9 M 10,1 l -9,9" class="arrowMarkerPath" style="stroke-width: 2; stroke-dasharray: 1, 0;"></path></marker><marker id="g24da008f-94fc-4527-9f25-e63f34f69eb1-dark_flowchart-v2-crossStart" class="marker cross flowchart-v2" viewBox="0 0 11 11" refX="-1" refY="5.2" markerUnits="userSpaceOnUse" markerWidth="11" markerHeight="11" orient="auto"><path d="M 1,1 l 9,9 M 10,1 l -9,9" class="arrowMarkerPath" style="stroke-width: 2; stroke-dasharray: 1, 0;"></path></marker><marker id="g24da008f-94fc-4527-9f25-e63f34f69eb1-dark_flowchart-v2-crossEnd-margin" class="marker cross flowchart-v2" viewBox="0 0 15 15" refX="17.7" refY="7.5" markerUnits="userSpaceOnUse" markerWidth="12" markerHeight="12" orient="auto"><path d="M 1,1 L 14,14 M 1,14 L 14,1" class="arrowMarkerPath" style="stroke-width: 2.5;"></path></marker><marker id="g24da008f-94fc-4527-9f25-e63f34f69eb1-dark_flowchart-v2-crossStart-margin" class="marker cross flowchart-v2" viewBox="0 0 15 15" refX="-3.5" refY="7.5" markerUnits="userSpaceOnUse" markerWidth="12" markerHeight="12" orient="auto"><path d="M 1,1 L 14,14 M 1,14 L 14,1" class="arrowMarkerPath" style="stroke-width: 2.5; stroke-dasharray: 1, 0;"></path></marker><g class="root"><g class="clusters"></g><g class="edgePaths"><path d="M914.695,42.5L914.612,46.583C914.529,50.667,914.362,58.833,914.279,66.417C914.195,74,914.195,81,914.195,84.5L914.195,88" id="g24da008f-94fc-4527-9f25-e63f34f69eb1-dark-L_ctor_obs_0" class="edge-thickness-normal edge-pattern-solid edge-thickness-normal edge-pattern-solid flowchart-link" style=";" data-edge="true" data-et="edge" data-id="L_ctor_obs_0" data-points="W3sieCI6OTE0LjY5NTMxMjUsInkiOjQyLjV9LHsieCI6OTE0LjE5NTMxMjUsInkiOjY3fSx7IngiOjkxNC4xOTUzMTI1LCJ5Ijo5Mn1d" data-look="classic" marker-end="url(#g24da008f-94fc-4527-9f25-e63f34f69eb1-dark_flowchart-v2-pointEnd)"></path><path d="M797.086,130.981L710.663,141.668C624.241,152.354,451.396,173.727,364.973,192.764C278.551,211.8,278.551,228.5,278.551,236.85L278.551,245.2" id="g24da008f-94fc-4527-9f25-e63f34f69eb1-dark-L_obs_reg_0" class="edge-thickness-normal edge-pattern-solid edge-thickness-normal edge-pattern-solid flowchart-link" style=";" data-edge="true" data-et="edge" data-id="L_obs_reg_0" data-points="W3sieCI6Nzk3LjA4NTkzNzUsInkiOjEzMC45ODEwNDQ0MjYyMDQ2NX0seyJ4IjoyNzguNTUwNzgxMjUsInkiOjE5NS4wOTk5OTg0NzQxMjExfSx7IngiOjI3OC41NTA3ODEyNSwieSI6MjQ5LjE5OTk5Njk0ODI0MjJ9XQ==" data-look="classic" marker-end="url(#g24da008f-94fc-4527-9f25-e63f34f69eb1-dark_flowchart-v2-pointEnd)"></path><path d="M278.551,351L278.551,355.167C278.551,359.333,278.551,367.667,278.551,375.333C278.551,383,278.551,390,278.551,393.5L278.551,397" id="g24da008f-94fc-4527-9f25-e63f34f69eb1-dark-L_reg_wait_0" class="edge-thickness-normal edge-pattern-solid edge-thickness-normal edge-pattern-solid flowchart-link" style=";" data-edge="true" data-et="edge" data-id="L_reg_wait_0" data-points="W3sieCI6Mjc4LjU1MDc4MTI1LCJ5IjozNTF9LHsieCI6Mjc4LjU1MDc4MTI1LCJ5IjozNzZ9LHsieCI6Mjc4LjU1MDc4MTI1LCJ5Ijo0MDF9XQ==" data-look="classic" marker-end="url(#g24da008f-94fc-4527-9f25-e63f34f69eb1-dark_flowchart-v2-pointEnd)"></path><path d="M222.88,539.173L200.17,556.002C177.459,572.83,132.038,606.487,135.87,630.687C139.702,654.887,192.788,669.63,219.33,677.002L245.873,684.373" id="g24da008f-94fc-4527-9f25-e63f34f69eb1-dark-L_wait_cb_0" class="edge-thickness-normal edge-pattern-solid edge-thickness-normal edge-pattern-solid flowchart-link" style=";" data-edge="true" data-et="edge" data-id="L_wait_cb_0" data-points="W3sieCI6MjIyLjg4MDM5NTU2NDU2MDI1LCJ5Ijo1MzkuMTczMzY0MzE0NTYwM30seyJ4Ijo4Ni42MTcxODc1LCJ5Ijo2NDAuMTQzNzQ5MjM3MDYwNX0seyJ4IjoyNDkuNzI2OTk1MjkwNTg1MzYsInkiOjY4NS40NDM3NDg0NzQxMjExfV0=" data-look="classic" marker-end="url(#g24da008f-94fc-4527-9f25-e63f34f69eb1-dark_flowchart-v2-pointEnd)"></path><path d="M278.145,594.438L278.113,602.056C278.081,609.673,278.017,624.909,286.285,639.642C294.553,654.376,311.153,668.608,319.453,675.724L327.752,682.84" id="g24da008f-94fc-4527-9f25-e63f34f69eb1-dark-L_wait_cb_2" class="edge-thickness-normal edge-pattern-solid edge-thickness-normal edge-pattern-solid flowchart-link" style=";" data-edge="true" data-et="edge" data-id="L_wait_cb_2" data-points="W3sieCI6Mjc4LjE0NTE5MjcxMzQ4ODc3LCJ5Ijo1OTQuNDM4MTYxNDYzNDg4OH0seyJ4IjoyNzcuOTUzMTI1LCJ5Ijo2NDAuMTQzNzQ5MjM3MDYwNX0seyJ4IjozMzAuNzg5MTY3MDAxMzE0NjQsInkiOjY4NS40NDM3NDg0NzQxMjExfV0=" data-look="classic" marker-end="url(#g24da008f-94fc-4527-9f25-e63f34f69eb1-dark_flowchart-v2-pointEnd)"></path><path d="M334.221,539.173L356.932,556.002C379.642,572.83,425.063,606.487,438.612,630.456C452.161,654.424,433.837,668.705,424.675,675.845L415.513,682.985" id="g24da008f-94fc-4527-9f25-e63f34f69eb1-dark-L_wait_cb_3" class="edge-thickness-normal edge-pattern-solid edge-thickness-normal edge-pattern-solid flowchart-link" style=";" data-edge="true" data-et="edge" data-id="L_wait_cb_3" data-points="W3sieCI6MzM0LjIyMTE2NjkzNTQzOTgsInkiOjUzOS4xNzMzNjQzMTQ1NjAzfSx7IngiOjQ3MC40ODQzNzUsInkiOjY0MC4xNDM3NDkyMzcwNjA1fSx7IngiOjQxMi4zNTc3NDk3MzEyNjQ5NiwieSI6Njg1LjQ0Mzc0ODQ3NDEyMTF9XQ==" data-look="classic" marker-end="url(#g24da008f-94fc-4527-9f25-e63f34f69eb1-dark_flowchart-v2-pointEnd)"></path><path d="M348.775,524.62L399.419,543.874C450.063,563.128,551.352,601.636,575.454,628.261C599.555,654.887,546.47,669.63,519.928,677.002L493.385,684.373" id="g24da008f-94fc-4527-9f25-e63f34f69eb1-dark-L_wait_cb_4" class="edge-thickness-normal edge-pattern-solid edge-thickness-normal edge-pattern-solid flowchart-link" style=";" data-edge="true" data-et="edge" data-id="L_wait_cb_4" data-points="W3sieCI6MzQ4Ljc3NDgxMDI4NDM2NjYsInkiOjUyNC42MTk3MjA5NjU2MzM0fSx7IngiOjY1Mi42NDA2MjUsInkiOjY0MC4xNDM3NDkyMzcwNjA1fSx7IngiOjQ4OS41MzA4MTcyMDk0MTQ2NCwieSI6Njg1LjQ0Mzc0ODQ3NDEyMTF9XQ==" data-look="classic" marker-end="url(#g24da008f-94fc-4527-9f25-e63f34f69eb1-dark_flowchart-v2-pointEnd)"></path><path d="M369.629,752.044L369.629,756.21C369.629,760.377,369.629,768.71,369.868,776.379C370.108,784.047,370.587,791.05,370.826,794.552L371.066,798.053" id="g24da008f-94fc-4527-9f25-e63f34f69eb1-dark-L_cb_drain_0" class="edge-thickness-normal edge-pattern-solid edge-thickness-normal edge-pattern-solid flowchart-link" style=";" data-edge="true" data-et="edge" data-id="L_cb_drain_0" data-points="W3sieCI6MzY5LjYyODkwNjI1LCJ5Ijo3NTIuMDQzNzQ2OTQ4MjQyMn0seyJ4IjozNjkuNjI4OTA2MjUsInkiOjc3Ny4wNDM3NDY5NDgyNDIyfSx7IngiOjM3MS4zMzg5ODIyMDE3MDQ0LCJ5Ijo4MDIuMDQzNzQ2OTQ4MjQyMn1d" data-look="classic" marker-end="url(#g24da008f-94fc-4527-9f25-e63f34f69eb1-dark_flowchart-v2-pointEnd)"></path><path d="M497.188,824.039L545.094,816.206C593,808.374,688.813,792.709,736.719,775.16C784.625,757.61,784.625,738.177,784.625,715.36C784.625,692.544,784.625,666.344,713.531,633.264C642.437,600.185,500.249,560.226,429.155,540.246L358.061,520.267" id="g24da008f-94fc-4527-9f25-e63f34f69eb1-dark-L_drain_wait_0" class="edge-thickness-normal edge-pattern-solid edge-thickness-normal edge-pattern-solid flowchart-link" style=";" data-edge="true" data-et="edge" data-id="L_drain_wait_0" data-points="W3sieCI6NDk3LjE4NzUsInkiOjgyNC4wMzg3ODEyODY1NDc2fSx7IngiOjc4NC42MjUsInkiOjc3Ny4wNDM3NDY5NDgyNDIyfSx7IngiOjc4NC42MjUsInkiOjcxOC43NDM3NDc3MTExODE2fSx7IngiOjc4NC42MjUsInkiOjY0MC4xNDM3NDkyMzcwNjA1fSx7IngiOjM1NC4yMTAxMzMwNTA4Mjc4LCJ5Ijo1MTkuMTg0Mzk4MTk5MTcyM31d" data-look="classic" marker-end="url(#g24da008f-94fc-4527-9f25-e63f34f69eb1-dark_flowchart-v2-pointEnd)"></path><path d="M807.827,141L768.681,150.017C729.535,159.033,651.242,177.067,612.096,198.833C572.949,220.6,572.949,246.1,572.949,258.85L572.949,271.6" id="g24da008f-94fc-4527-9f25-e63f34f69eb1-dark-L_obs_stop1_0" class="edge-thickness-normal edge-pattern-dotted edge-thickness-normal edge-pattern-solid flowchart-link" style=";" data-edge="true" data-et="edge" data-id="L_obs_stop1_0" data-points="W3sieCI6ODA3LjgyNzI1MzIyMjkwMzYsInkiOjE0MX0seyJ4Ijo1NzIuOTQ5MjE4NzUsInkiOjE5NS4wOTk5OTg0NzQxMjExfSx7IngiOjU3Mi45NDkyMTg3NSwieSI6Mjc1LjU5OTk5ODQ3NDEyMTF9XQ==" data-look="classic" marker-end="url(#g24da008f-94fc-4527-9f25-e63f34f69eb1-dark_flowchart-v2-pointEnd)"></path><path d="M900.91,141L896.021,150.017C891.131,159.033,881.353,177.067,876.464,195.9C871.574,214.733,871.574,234.367,871.574,244.183L871.574,254" id="g24da008f-94fc-4527-9f25-e63f34f69eb1-dark-L_obs_stop2_0" class="edge-thickness-normal edge-pattern-dotted edge-thickness-normal edge-pattern-solid flowchart-link" style=";" data-edge="true" data-et="edge" data-id="L_obs_stop2_0" data-points="W3sieCI6OTAwLjkxMDExMTI2NDAzOCwieSI6MTQxfSx7IngiOjg3MS41NzQyMTg3NSwieSI6MTk1LjA5OTk5ODQ3NDEyMTF9LHsieCI6ODcxLjU3NDIxODc1LCJ5IjoyNTh9XQ==" data-look="classic" marker-end="url(#g24da008f-94fc-4527-9f25-e63f34f69eb1-dark_flowchart-v2-pointEnd)"></path><path d="M990.876,141L1019.096,150.017C1047.317,159.033,1103.758,177.067,1131.979,198.833C1160.199,220.6,1160.199,246.1,1160.199,258.85L1160.199,271.6" id="g24da008f-94fc-4527-9f25-e63f34f69eb1-dark-L_obs_stop3_0" class="edge-thickness-normal edge-pattern-dotted edge-thickness-normal edge-pattern-solid flowchart-link" style=";" data-edge="true" data-et="edge" data-id="L_obs_stop3_0" data-points="W3sieCI6OTkwLjg3NTkyMDg5ODYwNDYsInkiOjE0MX0seyJ4IjoxMTYwLjE5OTIxODc1LCJ5IjoxOTUuMDk5OTk4NDc0MTIxMX0seyJ4IjoxMTYwLjE5OTIxODc1LCJ5IjoyNzUuNTk5OTk4NDc0MTIxMX1d" data-look="classic" marker-end="url(#g24da008f-94fc-4527-9f25-e63f34f69eb1-dark_flowchart-v2-pointEnd)"></path></g><g class="edgeLabels"><g class="edgeLabel"><g class="label" data-id="L_ctor_obs_0" transform="translate(0, 0)"><text y="-10.1" text-anchor="middle"><tspan class="text-outer-tspan row" x="0" y="-0.1em" dy="1.1em" text-anchor="middle"></tspan></text></g></g><g><rect class="background" style="stroke: none"></rect></g><g class="edgeLabel"><g class="label" data-id="L_obs_reg_0" transform="translate(0, 0)"><text y="-10.1" text-anchor="middle"><tspan class="text-outer-tspan row" x="0" y="-0.1em" dy="1.1em" text-anchor="middle"></tspan></text></g></g><g><rect class="background" style="stroke: none"></rect></g><g class="edgeLabel"><g class="label" data-id="L_reg_wait_0" transform="translate(0, 0)"><text y="-10.1" text-anchor="middle"><tspan class="text-outer-tspan row" x="0" y="-0.1em" dy="1.1em" text-anchor="middle"></tspan></text></g></g><g><rect class="background" style="stroke: none"></rect></g><g class="edgeLabel" transform="translate(86.74259, 640.05083)"><g class="label" data-id="L_wait_cb_0" transform="translate(0, -19.299999237060547)"><g><rect class="background" style="" x="-78.6171875" y="-1" width="157.234375" height="40.599998474121094"></rect><text y="-10.1" text-anchor="middle" style=""><tspan class="text-outer-tspan row" x="0" y="-0.1em" dy="1.1em" text-anchor="middle"><tspan font-style="normal" class="text-inner-tspan" font-weight="normal">MutationObserver:</tspan></tspan><tspan class="text-outer-tspan row" x="0" y="1em" dy="1.1em" text-anchor="middle"><tspan font-style="normal" class="text-inner-tspan" font-weight="normal">microtask</tspan><tspan font-style="normal" class="text-inner-tspan" font-weight="normal"> checkpoint</tspan></tspan></text></g></g></g><g class="edgeLabel" transform="translate(277.953125, 640.1437492370605)"><g class="label" data-id="L_wait_cb_2" transform="translate(0, -19.299999237060547)"><g><rect class="background" style="" x="-92.71875" y="-1" width="185.4375" height="40.599998474121094"></rect><text y="-10.1" text-anchor="middle" style=""><tspan class="text-outer-tspan row" x="0" y="-0.1em" dy="1.1em" text-anchor="middle"><tspan font-style="normal" class="text-inner-tspan" font-weight="normal">ResizeObserver:</tspan><tspan font-style="normal" class="text-inner-tspan" font-weight="normal"> between</tspan></tspan><tspan class="text-outer-tspan row" x="0" y="1em" dy="1.1em" text-anchor="middle"><tspan font-style="normal" class="text-inner-tspan" font-weight="normal">layout</tspan><tspan font-style="normal" class="text-inner-tspan" font-weight="normal"> and</tspan><tspan font-style="normal" class="text-inner-tspan" font-weight="normal"> paint</tspan></tspan></text></g></g></g><g class="edgeLabel" transform="translate(431.95781, 611.59575)"><g class="label" data-id="L_wait_cb_3" transform="translate(0, -19.299999237060547)"><g><rect class="background" style="" x="-79.8125" y="-1" width="159.625" height="40.599998474121094"></rect><text y="-10.1" text-anchor="middle" style=""><tspan class="text-outer-tspan row" x="0" y="-0.1em" dy="1.1em" text-anchor="middle"><tspan font-style="normal" class="text-inner-tspan" font-weight="normal">IntersectionObserver:</tspan></tspan><tspan class="text-outer-tspan row" x="0" y="1em" dy="1.1em" text-anchor="middle"><tspan font-style="normal" class="text-inner-tspan" font-weight="normal">rendering</tspan><tspan font-style="normal" class="text-inner-tspan" font-weight="normal"> steps</tspan></tspan></text></g></g></g><g class="edgeLabel" transform="translate(579.82467, 612.4605)"><g class="label" data-id="L_wait_cb_4" transform="translate(0, -19.299999237060547)"><g><rect class="background" style="" x="-82.34375" y="-1" width="164.6875" height="40.599998474121094"></rect><text y="-10.1" text-anchor="middle" style=""><tspan class="text-outer-tspan row" x="0" y="-0.1em" dy="1.1em" text-anchor="middle"><tspan font-style="normal" class="text-inner-tspan" font-weight="normal">PerformanceObserver:</tspan></tspan><tspan class="text-outer-tspan row" x="0" y="1em" dy="1.1em" text-anchor="middle"><tspan font-style="normal" class="text-inner-tspan" font-weight="normal">queued</tspan><tspan font-style="normal" class="text-inner-tspan" font-weight="normal"> entries</tspan></tspan></text></g></g></g><g class="edgeLabel"><g class="label" data-id="L_cb_drain_0" transform="translate(0, 0)"><text y="-10.1" text-anchor="middle"><tspan class="text-outer-tspan row" x="0" y="-0.1em" dy="1.1em" text-anchor="middle"></tspan></text></g></g><g><rect class="background" style="stroke: none"></rect></g><g class="edgeLabel"><g class="label" data-id="L_drain_wait_0" transform="translate(0, 0)"><text y="-10.1" text-anchor="middle"><tspan class="text-outer-tspan row" x="0" y="-0.1em" dy="1.1em" text-anchor="middle"></tspan></text></g></g><g><rect class="background" style="stroke: none"></rect></g><g class="edgeLabel" transform="translate(572.94921875, 195.0999984741211)"><g class="label" data-id="L_obs_stop1_0" transform="translate(0, -10.5)"><g><rect class="background" style="" x="-80.2578125" y="-1" width="160.515625" height="23"></rect><text y="-10.1" text-anchor="middle" style=""><tspan class="text-outer-tspan row" x="0" y="-0.1em" dy="1.1em" text-anchor="middle"><tspan font-style="normal" class="text-inner-tspan" font-weight="normal">observer.unobserve(t)</tspan></tspan></text></g></g></g><g class="edgeLabel" transform="translate(871.57421875, 195.0999984741211)"><g class="label" data-id="L_obs_stop2_0" transform="translate(0, -10.5)"><g><rect class="background" style="" x="-79.0703125" y="-1" width="158.140625" height="23"></rect><text y="-10.1" text-anchor="middle" style=""><tspan class="text-outer-tspan row" x="0" y="-0.1em" dy="1.1em" text-anchor="middle"><tspan font-style="normal" class="text-inner-tspan" font-weight="normal">observer.disconnect()</tspan></tspan></text></g></g></g><g class="edgeLabel" transform="translate(1160.19921875, 195.0999984741211)"><g class="label" data-id="L_obs_stop3_0" transform="translate(0, -28.099998474121094)"><g><rect class="background" style="" x="-100.6328125" y="-1" width="201.265625" height="58.19999694824219"></rect><text y="-10.1" text-anchor="middle" style=""><tspan class="text-outer-tspan row" x="0" y="-0.1em" dy="1.1em" text-anchor="middle"><tspan font-style="normal" class="text-inner-tspan" font-weight="normal">AbortSignal.abort()&amp;&amp;#10;(</tspan></tspan><tspan class="text-outer-tspan row" x="0" y="1em" dy="1.1em" text-anchor="middle"><tspan font-style="normal" class="text-inner-tspan" font-weight="normal">addEventListener</tspan><tspan font-style="normal" class="text-inner-tspan" font-weight="normal"> pattern</tspan></tspan><tspan class="text-outer-tspan row" x="0" y="2.1em" dy="1.1em" text-anchor="middle"><tspan font-style="normal" class="text-inner-tspan" font-weight="normal">only)</tspan></tspan></text></g></g></g></g><g class="nodes"><g class="node default" id="g24da008f-94fc-4527-9f25-e63f34f69eb1-dark-flowchart-ctor-0" data-look="classic" transform="translate(914.1953125, 25)"><g class="basic label-container outer-path"><path d="M-79.2109375 -17 C-40.03975148875161 -17, -0.8685654775032248 -17, 79.2109375 -17 C79.2109375 -17, 79.2109375 -17, 79.2109375 -17 C79.50382928386621 -16.99060753057068, 79.79672106773242 -16.981215061141366, 80.30013123967211 -16.965071676755716 C80.62185593679911 -16.934035282154433, 80.9435806339261 -16.902998887553153, 81.3848492486366 -16.860430234995185 C81.65672643761415 -16.816475239520386, 81.92860362659171 -16.772520244045584, 82.46063418792333 -16.686505668848113 C82.80124134612845 -16.60876430765722, 83.14184850433358 -16.531022946466326, 83.52306542646163 -16.4440126716635 C83.9143144583836 -16.327892012697138, 84.30556349030557 -16.211771353730775, 84.56777720640156 -16.133947699181366 C84.81655358723113 -16.042395691372427, 85.06532996806071 -15.95084368356349, 85.59047658294936 -15.757584874882369 C85.88721469149995 -15.626227716650263, 86.18395280005055 -15.494870558418157, 86.58696106499849 -15.316470754341125 C86.79207558409648 -15.209462641109825, 86.99719010319447 -15.102454527878523, 87.55313588406693 -14.812417970097622 C87.89764040295074 -14.603577306216984, 88.24214492183455 -14.394736642336346, 88.48503082057933 -14.247497783161291 C88.7964493941023 -14.03026566736444, 89.10786796762527 -13.813033551567585, 89.37881651835067 -13.624031571755262 C89.66068715166075 -13.399247242583048, 89.94255778497082 -13.174462913410835, 90.2308202202324 -12.944581292275288 C90.53895923568014 -12.664737591357232, 90.84709825112789 -12.384893890439177, 91.03754086025927 -12.21193895166137 C91.21199884491357 -12.031796759238894, 91.38645682956786 -11.851654566816418, 91.79566345028036 -11.42911513444239 C91.99060219571912 -11.20012899172118, 92.18554094115787 -10.971142848999971, 92.50207270195651 -10.59932663159847 C92.6988896418562 -10.335609862524965, 92.8957065817559 -10.071893093451457, 93.15386582814824 -9.725983222076888 C93.33270522025897 -9.451237890693868, 93.51154461236972 -9.176492559310848, 93.74836447109088 -8.812673661278927 C93.88079243224303 -8.577534406468114, 94.01322039339517 -8.342395151657303, 94.283125708341 -7.863150934094199 C94.41212095549167 -7.595289543329703, 94.54111620264233 -7.327428152565208, 94.75595209126881 -6.881316833080699 C94.88135213420396 -6.571576302585955, 95.00675217713913 -6.26183577209121, 95.16490067484592 -5.871205925162238 C95.23712083769877 -5.653690301369779, 95.30934100055161 -5.43617467757732, 95.50829100162323 -4.836968972727556 C95.5976855118432 -4.496068961433014, 95.68708002206317 -4.1551689501384725, 95.784712007091 -3.7828558772573464 C95.8441680578645 -3.4775616225762307, 95.90362410863798 -3.1722673678951154, 95.99302781804565 -2.713198215567453 C96.02535253355309 -2.4624941053288256, 96.05767724906053 -2.2117899950901982, 96.13238242013637 -1.632391440430593 C96.15085415338072 -1.34467928503509, 96.16932588662507 -1.0569671296395866, 96.2022031754117 -0.5448768187181379 C96.2022031754117 -0.11051796542902964, 96.2022031754117 0.3238408878600786, 96.2022031754117 0.5448768187181336 C96.18507265848754 0.8116984473162608, 96.16794214156337 1.078520075914388, 96.13238242013637 1.6323914404305815 C96.08066842312316 2.033474989181271, 96.02895442610995 2.434558537931961, 95.99302781804565 2.7131982155674415 C95.94311648441534 2.969482364994953, 95.89320515078504 3.2257665144224648, 95.784712007091 3.782855877257343 C95.7208105592624 4.026539792890461, 95.6569091114338 4.270223708523581, 95.50829100162323 4.836968972727545 C95.39164405132053 5.188291001871681, 95.27499710101782 5.539613031015817, 95.16490067484592 5.871205925162227 C95.04630267364328 6.164145281069116, 94.92770467244064 6.457084636976006, 94.75595209126881 6.881316833080694 C94.63411266566705 7.134319007288826, 94.5122732400653 7.387321181496958, 94.283125708341 7.863150934094196 C94.09842079729498 8.191113207056771, 93.91371588624897 8.519075480019348, 93.74836447109088 8.812673661278923 C93.54312344379531 9.127978994137571, 93.33788241649974 9.44328432699622, 93.15386582814826 9.725983222076879 C92.91333104230017 10.048277921943512, 92.6727962564521 10.370572621810146, 92.50207270195651 10.599326631598467 C92.33635056352038 10.793993285262353, 92.17062842508426 10.988659938926238, 91.79566345028037 11.42911513444238 C91.6194043724961 11.611117103394047, 91.44314529471184 11.793119072345714, 91.03754086025927 12.211938951661365 C90.78125129104846 12.444694357368213, 90.52496172183766 12.677449763075062, 90.23082022023242 12.944581292275275 C89.90160074683804 13.207125061409164, 89.57238127344368 13.469668830543052, 89.37881651835067 13.62403157175526 C89.1713008387413 13.768785526641771, 88.96378515913193 13.91353948152828, 88.48503082057934 14.247497783161286 C88.28053203756521 14.371466147192699, 88.07603325455106 14.49543451122411, 87.55313588406695 14.81241797009762 C87.30566670638837 14.94152248158096, 87.05819752870978 15.0706269930643, 86.58696106499849 15.316470754341124 C86.28587380001771 15.449753155111734, 85.98478653503692 15.583035555882347, 85.59047658294936 15.757584874882367 C85.24371178458745 15.88519752613821, 84.89694698622553 16.01281017739405, 84.56777720640156 16.133947699181363 C84.30313265255187 16.212492813616343, 84.03848809870217 16.291037928051324, 83.52306542646164 16.444012671663497 C83.2261650973665 16.51177823432375, 82.92926476827137 16.579543796984005, 82.46063418792333 16.68650566884811 C82.21034695458425 16.726970167727888, 81.96005972124516 16.76743466660767, 81.38484924863661 16.86043023499518 C81.00749871280765 16.896832787356185, 80.6301481769787 16.933235339717186, 80.30013123967211 16.965071676755716 C79.95026397299031 16.97629123902288, 79.6003967063085 16.987510801290043, 79.2109375 17 C79.2109375 17, 79.2109375 17, 79.2109375 17 C28.730412549400633 17, -21.750112401198734 17, -79.2109375 17 C-79.5248109739134 16.989934688609253, -79.83868444782681 16.979869377218503, -80.30013123967211 16.965071676755716 C-80.60228336762282 16.935923424363413, -80.90443549557352 16.906775171971105, -81.3848492486366 16.86043023499518 C-81.72115930390552 16.806058233382736, -82.05746935917445 16.751686231770286, -82.46063418792333 16.68650566884811 C-82.84200813570392 16.59945955396478, -83.22338208348451 16.51241343908145, -83.52306542646161 16.4440126716635 C-83.77143840241193 16.370296876137804, -84.01981137836225 16.296581080612107, -84.56777720640154 16.13394769918137 C-84.91837823979326 16.004923277972797, -85.26897927318497 15.875898856764222, -85.59047658294936 15.757584874882369 C-85.83191293026027 15.650708165882607, -86.0733492775712 15.543831456882844, -86.58696106499849 15.316470754341127 C-86.90368397947759 15.151236612728091, -87.22040689395668 14.986002471115055, -87.55313588406693 14.812417970097624 C-87.79710778067054 14.664520772638504, -88.04107967727417 14.516623575179384, -88.48503082057931 14.247497783161299 C-88.67490116154532 14.115052452658, -88.86477150251133 13.9826071221547, -89.37881651835067 13.624031571755264 C-89.62024382799356 13.43149971696559, -89.86167113763645 13.238967862175915, -90.2308202202324 12.94458129227529 C-90.50344022105432 12.69699502065878, -90.77606022187622 12.44940874904227, -91.03754086025926 12.211938951661377 C-91.33215473609529 11.907725936611632, -91.62676861193131 11.603512921561887, -91.79566345028036 11.429115134442386 C-91.9733130671695 11.220437785894832, -92.15096268405865 11.011760437347279, -92.50207270195651 10.599326631598473 C-92.67716157572505 10.364723491673164, -92.8522504494936 10.130120351747854, -93.15386582814824 9.72598322207689 C-93.38472223812525 9.371325782726208, -93.61557864810226 9.016668343375526, -93.74836447109088 8.812673661278936 C-93.90388448946177 8.536532120551888, -94.05940450783267 8.260390579824838, -94.283125708341 7.863150934094201 C-94.46001588718404 7.495834692883124, -94.63690606602708 7.128518451672046, -94.75595209126881 6.881316833080701 C-94.88765467188122 6.556008912671856, -95.01935725249365 6.23070099226301, -95.16490067484592 5.87120592516224 C-95.2651962951647 5.569131496699062, -95.36549191548347 5.267057068235885, -95.50829100162323 4.8369689727275516 C-95.61820853975892 4.417805761253802, -95.7281260778946 3.9986425497800515, -95.784712007091 3.782855877257349 C-95.86079812318671 3.392169751912169, -95.93688423928243 3.001483626566989, -95.99302781804565 2.713198215567455 C-96.02282100836452 2.4821281147851844, -96.05261419868339 2.2510580140029135, -96.13238242013637 1.6323914404306026 C-96.14692420009277 1.4058914796960578, -96.16146598004919 1.1793915189615132, -96.2022031754117 0.54487681871814 C-96.2022031754117 0.20576848381052415, -96.2022031754117 -0.13333985109709168, -96.2022031754117 -0.5448768187181317 C-96.18822384269215 -0.7626162097393105, -96.17424450997261 -0.9803556007604893, -96.13238242013637 -1.6323914404305793 C-96.099919357313 -1.884168545131792, -96.06745629448963 -2.1359456498330047, -95.99302781804565 -2.713198215567447 C-95.94139514179923 -2.9783210955228165, -95.8897624655528 -3.2434439754781863, -95.784712007091 -3.782855877257341 C-95.6848675088255 -4.163606222022966, -95.58502301056001 -4.544356566788592, -95.50829100162323 -4.836968972727544 C-95.3865897995823 -5.20351360282157, -95.26488859754137 -5.570058232915596, -95.16490067484594 -5.871205925162218 C-95.00291330953158 -6.271317849301346, -94.8409259442172 -6.671429773440475, -94.75595209126881 -6.881316833080692 C-94.65159128814521 -7.098024273730313, -94.54723048502161 -7.314731714379934, -94.283125708341 -7.863150934094194 C-94.09295446253768 -8.200819237944796, -93.90278321673433 -8.538487541795396, -93.74836447109088 -8.812673661278929 C-93.61990613818793 -9.010020156510121, -93.49144780528499 -9.207366651741314, -93.15386582814826 -9.725983222076884 C-92.97039339313311 -9.971819570314493, -92.78692095811796 -10.2176559185521, -92.50207270195651 -10.599326631598467 C-92.32165666753801 -10.811253571589623, -92.1412406331195 -11.02318051158078, -91.79566345028037 -11.42911513444238 C-91.55800047993468 -11.67452166381705, -91.320337509589 -11.919928193191721, -91.03754086025927 -12.21193895166136 C-90.77212339709499 -12.452984069145916, -90.5067059339307 -12.694029186630475, -90.23082022023242 -12.944581292275274 C-89.92389895819181 -13.189342831234853, -89.61697769615122 -13.434104370194433, -89.37881651835067 -13.624031571755259 C-89.07939979094061 -13.832891719255294, -88.77998306353055 -14.041751866755327, -88.48503082057934 -14.247497783161284 C-88.20651198972507 -14.416337535183468, -87.9279931588708 -14.585177287205653, -87.55313588406695 -14.812417970097618 C-87.27553967849599 -14.95723973273513, -86.99794347292503 -15.102061495372642, -86.58696106499849 -15.316470754341124 C-86.22774570593522 -15.475484738053407, -85.86853034687194 -15.63449872176569, -85.59047658294936 -15.757584874882365 C-85.26946879101493 -15.87571870967774, -84.94846099908048 -15.993852544473112, -84.56777720640156 -16.133947699181363 C-84.29400002711034 -16.215203328909254, -84.02022284781913 -16.296458958637146, -83.52306542646164 -16.444012671663494 C-83.27425317919418 -16.50080244345064, -83.02544093192671 -16.55759221523779, -82.46063418792333 -16.68650566884811 C-82.16665579911913 -16.73403381491352, -81.87267741031492 -16.781561960978927, -81.38484924863661 -16.86043023499518 C-81.15507321783429 -16.882596452340575, -80.92529718703197 -16.904762669685965, -80.30013123967213 -16.965071676755716 C-79.99440327536104 -16.97487577750779, -79.68867531104996 -16.984679878259865, -79.2109375 -17 C-79.2109375 -17, -79.2109375 -17, -79.2109375 -17" stroke="none" stroke-width="0" fill="#2d2d2d" style=""></path><path d="M-79.2109375 -17 C-17.15292662918764 -17, 44.90508424162472 -17, 79.2109375 -17 M-79.2109375 -17 C-34.79591946819898 -17, 9.619098563602037 -17, 79.2109375 -17 M79.2109375 -17 C79.2109375 -17, 79.2109375 -17, 79.2109375 -17 M79.2109375 -17 C79.2109375 -17, 79.2109375 -17, 79.2109375 -17 M79.2109375 -17 C79.58382003574707 -16.988042382850416, 79.95670257149413 -16.976084765700833, 80.30013123967211 -16.965071676755716 M79.2109375 -17 C79.5866624693024 -16.98795123153876, 79.9623874386048 -16.975902463077517, 80.30013123967211 -16.965071676755716 M80.30013123967211 -16.965071676755716 C80.69844714443317 -16.92664662046838, 81.09676304919422 -16.888221564181045, 81.3848492486366 -16.860430234995185 M80.30013123967211 -16.965071676755716 C80.66843381098471 -16.92954197064984, 81.0367363822973 -16.89401226454396, 81.3848492486366 -16.860430234995185 M81.3848492486366 -16.860430234995185 C81.79830745814377 -16.793585518098368, 82.21176566765094 -16.726740801201554, 82.46063418792333 -16.686505668848113 M81.3848492486366 -16.860430234995185 C81.81502910883611 -16.79088209129277, 82.24520896903562 -16.721333947590356, 82.46063418792333 -16.686505668848113 M82.46063418792333 -16.686505668848113 C82.78469763881816 -16.612540300893016, 83.108761089713 -16.538574932937916, 83.52306542646163 -16.4440126716635 M82.46063418792333 -16.686505668848113 C82.70732230676805 -16.630200715512224, 82.95401042561276 -16.57389576217634, 83.52306542646163 -16.4440126716635 M83.52306542646163 -16.4440126716635 C83.7600011707389 -16.373691386463108, 83.99693691501616 -16.303370101262715, 84.56777720640156 -16.133947699181366 M83.52306542646163 -16.4440126716635 C83.73792018006259 -16.38024490859035, 83.95277493366356 -16.316477145517197, 84.56777720640156 -16.133947699181366 M84.56777720640156 -16.133947699181366 C84.97180002818092 -15.985263566020539, 85.37582284996027 -15.836579432859711, 85.59047658294936 -15.757584874882369 M84.56777720640156 -16.133947699181366 C84.92044958230073 -16.004161004782766, 85.2731219581999 -15.874374310384166, 85.59047658294936 -15.757584874882369 M85.59047658294936 -15.757584874882369 C85.94951825515382 -15.59864777719025, 86.30855992735826 -15.43971067949813, 86.58696106499849 -15.316470754341125 M85.59047658294936 -15.757584874882369 C85.8209097463185 -15.655578949015771, 86.05134290968766 -15.553573023149172, 86.58696106499849 -15.316470754341125 M86.58696106499849 -15.316470754341125 C86.86837525277512 -15.169657152832444, 87.14978944055176 -15.022843551323762, 87.55313588406693 -14.812417970097622 M86.58696106499849 -15.316470754341125 C86.86702320281925 -15.17036251642839, 87.14708534064002 -15.024254278515656, 87.55313588406693 -14.812417970097622 M87.55313588406693 -14.812417970097622 C87.90920608809901 -14.596566119912595, 88.26527629213109 -14.380714269727566, 88.48503082057933 -14.247497783161291 M87.55313588406693 -14.812417970097622 C87.83252917414804 -14.643048115753233, 88.11192246422915 -14.473678261408846, 88.48503082057933 -14.247497783161291 M88.48503082057933 -14.247497783161291 C88.82574535101747 -14.009830076021942, 89.16645988145564 -13.772162368882592, 89.37881651835067 -13.624031571755262 M88.48503082057933 -14.247497783161291 C88.6743564502146 -14.115432419702133, 88.8636820798499 -13.983367056242976, 89.37881651835067 -13.624031571755262 M89.37881651835067 -13.624031571755262 C89.67551254861482 -13.387424383032565, 89.97220857887895 -13.150817194309866, 90.2308202202324 -12.944581292275288 M89.37881651835067 -13.624031571755262 C89.71602253727478 -13.355118745092314, 90.05322855619887 -13.086205918429368, 90.2308202202324 -12.944581292275288 M90.2308202202324 -12.944581292275288 C90.53138365338356 -12.671617534760067, 90.83194708653471 -12.398653777244844, 91.03754086025927 -12.21193895166137 M90.2308202202324 -12.944581292275288 C90.4932750011238 -12.70622680444269, 90.75572978201521 -12.46787231661009, 91.03754086025927 -12.21193895166137 M91.03754086025927 -12.21193895166137 C91.33634878834242 -11.903395233328375, 91.63515671642557 -11.594851514995382, 91.79566345028036 -11.42911513444239 M91.03754086025927 -12.21193895166137 C91.32477079168731 -11.915350465445979, 91.61200072311536 -11.618761979230587, 91.79566345028036 -11.42911513444239 M91.79566345028036 -11.42911513444239 C92.06439420871575 -11.113448694370838, 92.33312496715115 -10.797782254299289, 92.50207270195651 -10.59932663159847 M91.79566345028036 -11.42911513444239 C91.9389940021315 -11.260750912498604, 92.08232455398263 -11.09238669055482, 92.50207270195651 -10.59932663159847 M92.50207270195651 -10.59932663159847 C92.75006225079082 -10.267043228473149, 92.99805179962515 -9.934759825347829, 93.15386582814824 -9.725983222076888 M92.50207270195651 -10.59932663159847 C92.7175388625014 -10.310621605839353, 92.93300502304629 -10.021916580080235, 93.15386582814824 -9.725983222076888 M93.15386582814824 -9.725983222076888 C93.36999746904124 -9.39394698219338, 93.58612910993422 -9.061910742309873, 93.74836447109088 -8.812673661278927 M93.15386582814824 -9.725983222076888 C93.32246748752561 -9.466965797388486, 93.49106914690297 -9.207948372700086, 93.74836447109088 -8.812673661278927 M93.74836447109088 -8.812673661278927 C93.93383723595097 -8.48334798611583, 94.11931000081107 -8.154022310952731, 94.283125708341 -7.863150934094199 M93.74836447109088 -8.812673661278927 C93.89842632043796 -8.546223652353195, 94.04848816978506 -8.279773643427465, 94.283125708341 -7.863150934094199 M94.283125708341 -7.863150934094199 C94.44114302855206 -7.535024587646917, 94.59916034876312 -7.206898241199634, 94.75595209126881 -6.881316833080699 M94.283125708341 -7.863150934094199 C94.42575916002447 -7.566969519806503, 94.56839261170795 -7.270788105518806, 94.75595209126881 -6.881316833080699 M94.75595209126881 -6.881316833080699 C94.90804528551215 -6.505643702777784, 95.0601384797555 -6.1299705724748685, 95.16490067484592 -5.871205925162238 M94.75595209126881 -6.881316833080699 C94.91065416186929 -6.499199727736463, 95.06535623246977 -6.1170826223922266, 95.16490067484592 -5.871205925162238 M95.16490067484592 -5.871205925162238 C95.26938281672682 -5.556522360785583, 95.37386495860773 -5.241838796408929, 95.50829100162323 -4.836968972727556 M95.16490067484592 -5.871205925162238 C95.28952619071404 -5.495853727746893, 95.41415170658215 -5.120501530331549, 95.50829100162323 -4.836968972727556 M95.50829100162323 -4.836968972727556 C95.60819070313491 -4.456008114059043, 95.70809040464657 -4.075047255390529, 95.784712007091 -3.7828558772573464 M95.50829100162323 -4.836968972727556 C95.59677403784045 -4.499544806840833, 95.68525707405766 -4.16212064095411, 95.784712007091 -3.7828558772573464 M95.784712007091 -3.7828558772573464 C95.83155415422583 -3.5423313518112813, 95.87839630136067 -3.3018068263652163, 95.99302781804565 -2.713198215567453 M95.784712007091 -3.7828558772573464 C95.84048284372555 -3.496484418309402, 95.8962536803601 -3.210112959361457, 95.99302781804565 -2.713198215567453 M95.99302781804565 -2.713198215567453 C96.02337413614764 -2.477838164926707, 96.05372045424963 -2.242478114285961, 96.13238242013637 -1.632391440430593 M95.99302781804565 -2.713198215567453 C96.0315877493747 -2.414135002699079, 96.07014768070374 -2.115071789830705, 96.13238242013637 -1.632391440430593 M96.13238242013637 -1.632391440430593 C96.1544022811378 -1.2894143312214195, 96.17642214213923 -0.9464372220122461, 96.2022031754117 -0.5448768187181379 M96.13238242013637 -1.632391440430593 C96.15486703076056 -1.2821754807079093, 96.17735164138473 -0.9319595209852255, 96.2022031754117 -0.5448768187181379 M96.2022031754117 -0.5448768187181379 C96.2022031754117 -0.20321705480343433, 96.2022031754117 0.1384427091112692, 96.2022031754117 0.5448768187181336 M96.2022031754117 -0.5448768187181379 C96.2022031754117 -0.28175560902672186, 96.2022031754117 -0.018634399335305862, 96.2022031754117 0.5448768187181336 M96.2022031754117 0.5448768187181336 C96.17865166617526 0.9117105855118377, 96.1551001569388 1.2785443523055418, 96.13238242013637 1.6323914404305815 M96.2022031754117 0.5448768187181336 C96.18727209116493 0.7774405080158103, 96.17234100691816 1.010004197313487, 96.13238242013637 1.6323914404305815 M96.13238242013637 1.6323914404305815 C96.08226650627851 2.0210805718055016, 96.03215059242066 2.409769703180422, 95.99302781804565 2.7131982155674415 M96.13238242013637 1.6323914404305815 C96.09678541047312 1.9084748179541413, 96.06118840080985 2.184558195477701, 95.99302781804565 2.7131982155674415 M95.99302781804565 2.7131982155674415 C95.91828901411934 3.096966177677258, 95.84355021019303 3.4807341397870744, 95.784712007091 3.782855877257343 M95.99302781804565 2.7131982155674415 C95.95036548973567 2.9322602547528756, 95.9077031614257 3.1513222939383096, 95.784712007091 3.782855877257343 M95.784712007091 3.782855877257343 C95.69710347692319 4.116945172564377, 95.60949494675538 4.451034467871412, 95.50829100162323 4.836968972727545 M95.784712007091 3.782855877257343 C95.68932789215984 4.1465968472267924, 95.59394377722867 4.510337817196243, 95.50829100162323 4.836968972727545 M95.50829100162323 4.836968972727545 C95.43377624118712 5.061395558846343, 95.359261480751 5.285822144965139, 95.16490067484592 5.871205925162227 M95.50829100162323 4.836968972727545 C95.37715445333106 5.231931362412025, 95.24601790503888 5.626893752096506, 95.16490067484592 5.871205925162227 M95.16490067484592 5.871205925162227 C95.04950062185145 6.156246287166812, 94.93410056885699 6.441286649171398, 94.75595209126881 6.881316833080694 M95.16490067484592 5.871205925162227 C95.07010072916017 6.105363623838295, 94.97530078347442 6.339521322514363, 94.75595209126881 6.881316833080694 M94.75595209126881 6.881316833080694 C94.62418107341107 7.154942171110417, 94.49241005555332 7.428567509140138, 94.283125708341 7.863150934094196 M94.75595209126881 6.881316833080694 C94.64567977649328 7.110299654161641, 94.53540746171775 7.339282475242588, 94.283125708341 7.863150934094196 M94.283125708341 7.863150934094196 C94.0975216543214 8.192709726454483, 93.91191760030178 8.52226851881477, 93.74836447109088 8.812673661278923 M94.283125708341 7.863150934094196 C94.11764868530233 8.15697214486494, 93.95217166226365 8.450793355635684, 93.74836447109088 8.812673661278923 M93.74836447109088 8.812673661278923 C93.55232237788809 9.113846961111394, 93.3562802846853 9.415020260943862, 93.15386582814826 9.725983222076879 M93.74836447109088 8.812673661278923 C93.5924177315589 9.052249730763029, 93.43647099202691 9.291825800247132, 93.15386582814826 9.725983222076879 M93.15386582814826 9.725983222076879 C92.97407755247791 9.966883132426284, 92.79428927680756 10.207783042775691, 92.50207270195651 10.599326631598467 M93.15386582814826 9.725983222076879 C92.92151760506066 10.037308673655676, 92.68916938197306 10.348634125234476, 92.50207270195651 10.599326631598467 M92.50207270195651 10.599326631598467 C92.33028575308086 10.801117356702115, 92.1584988042052 11.002908081805764, 91.79566345028037 11.42911513444238 M92.50207270195651 10.599326631598467 C92.28259441383173 10.857138317498206, 92.06311612570697 11.114950003397944, 91.79566345028037 11.42911513444238 M91.79566345028037 11.42911513444238 C91.51130590772297 11.722737643321315, 91.22694836516558 12.01636015220025, 91.03754086025927 12.211938951661365 M91.79566345028037 11.42911513444238 C91.64191260764255 11.587875502644867, 91.48816176500473 11.746635870847353, 91.03754086025927 12.211938951661365 M91.03754086025927 12.211938951661365 C90.76618175496222 12.458380111323658, 90.49482264966518 12.704821270985951, 90.23082022023242 12.944581292275275 M91.03754086025927 12.211938951661365 C90.8534348170672 12.379139188909443, 90.66932877387511 12.546339426157521, 90.23082022023242 12.944581292275275 M90.23082022023242 12.944581292275275 C89.96339512677223 13.15784568782916, 89.69597003331205 13.371110083383046, 89.37881651835067 13.62403157175526 M90.23082022023242 12.944581292275275 C89.93345685359499 13.181720663997101, 89.63609348695758 13.418860035718929, 89.37881651835067 13.62403157175526 M89.37881651835067 13.62403157175526 C89.13501155260789 13.794099361710566, 88.8912065868651 13.96416715166587, 88.48503082057934 14.247497783161286 M89.37881651835067 13.62403157175526 C89.13509846749892 13.794038733645065, 88.89138041664717 13.964045895534872, 88.48503082057934 14.247497783161286 M88.48503082057934 14.247497783161286 C88.1903096091885 14.426159513480497, 87.89558839779767 14.604821243799707, 87.55313588406695 14.81241797009762 M88.48503082057934 14.247497783161286 C88.11407343418253 14.472374330782609, 87.74311604778572 14.697250878403931, 87.55313588406695 14.81241797009762 M87.55313588406695 14.81241797009762 C87.18420454733301 15.004889212159915, 86.81527321059907 15.19736045422221, 86.58696106499849 15.316470754341124 M87.55313588406695 14.81241797009762 C87.21408632408449 14.98929990836886, 86.87503676410203 15.166181846640098, 86.58696106499849 15.316470754341124 M86.58696106499849 15.316470754341124 C86.1973829376122 15.488925434910481, 85.80780481022593 15.66138011547984, 85.59047658294936 15.757584874882367 M86.58696106499849 15.316470754341124 C86.34310705320426 15.424417691690179, 86.09925304141005 15.532364629039233, 85.59047658294936 15.757584874882367 M85.59047658294936 15.757584874882367 C85.35051135490923 15.84589429701539, 85.11054612686908 15.934203719148412, 84.56777720640156 16.133947699181363 M85.59047658294936 15.757584874882367 C85.31035299896756 15.860672943221696, 85.03022941498575 15.963761011561026, 84.56777720640156 16.133947699181363 M84.56777720640156 16.133947699181363 C84.2988699310747 16.21375796697528, 84.02996265574785 16.2935682347692, 83.52306542646164 16.444012671663497 M84.56777720640156 16.133947699181363 C84.266128128319 16.223475562167945, 83.96447905023643 16.31300342515453, 83.52306542646164 16.444012671663497 M83.52306542646164 16.444012671663497 C83.22332598736361 16.51242624265499, 82.92358654826556 16.580839813646477, 82.46063418792333 16.68650566884811 M83.52306542646164 16.444012671663497 C83.10463094176215 16.53951761225596, 82.68619645706265 16.635022552848426, 82.46063418792333 16.68650566884811 M82.46063418792333 16.68650566884811 C82.11334890121466 16.742652060765543, 81.766063614506 16.79879845268298, 81.38484924863661 16.86043023499518 M82.46063418792333 16.68650566884811 C82.16708763005666 16.733963999836437, 81.87354107219 16.781422330824764, 81.38484924863661 16.86043023499518 M81.38484924863661 16.86043023499518 C81.15996350874383 16.882124691857964, 80.93507776885104 16.90381914872075, 80.30013123967211 16.965071676755716 M81.38484924863661 16.86043023499518 C81.06685645060901 16.89110661777861, 80.74886365258142 16.92178300056204, 80.30013123967211 16.965071676755716 M80.30013123967211 16.965071676755716 C80.05336764034338 16.97298490508998, 79.80660404101465 16.980898133424244, 79.2109375 17 M80.30013123967211 16.965071676755716 C80.04575878797448 16.97322890617572, 79.79138633627684 16.98138613559572, 79.2109375 17 M79.2109375 17 C79.2109375 17, 79.2109375 17, 79.2109375 17 M79.2109375 17 C79.2109375 17, 79.2109375 17, 79.2109375 17 M79.2109375 17 C25.39090781941769 17, -28.429121861164617 17, -79.2109375 17 M79.2109375 17 C38.2352221928542 17, -2.7404931142915956 17, -79.2109375 17 M-79.2109375 17 C-79.60078361483598 16.98749839388664, -79.99062972967195 16.97499678777328, -80.30013123967211 16.965071676755716 M-79.2109375 17 C-79.50594429691698 16.99053970621877, -79.80095109383396 16.981079412437534, -80.30013123967211 16.965071676755716 M-80.30013123967211 16.965071676755716 C-80.52253843746139 16.943616321868774, -80.74494563525067 16.92216096698183, -81.3848492486366 16.86043023499518 M-80.30013123967211 16.965071676755716 C-80.62930849010267 16.933316343300245, -80.95848574053323 16.901561009844773, -81.3848492486366 16.86043023499518 M-81.3848492486366 16.86043023499518 C-81.7553563103261 16.8005295265864, -82.12586337201562 16.740628818177615, -82.46063418792333 16.68650566884811 M-81.3848492486366 16.86043023499518 C-81.68689556923954 16.8115977282843, -81.98894188984247 16.762765221573417, -82.46063418792333 16.68650566884811 M-82.46063418792333 16.68650566884811 C-82.85967302710374 16.59542765777696, -83.25871186628414 16.504349646705812, -83.52306542646161 16.4440126716635 M-82.46063418792333 16.68650566884811 C-82.75697065255287 16.61886880457257, -83.0533071171824 16.551231940297033, -83.52306542646161 16.4440126716635 M-83.52306542646161 16.4440126716635 C-83.82597442337722 16.35411087138072, -84.12888342029284 16.264209071097937, -84.56777720640154 16.13394769918137 M-83.52306542646161 16.4440126716635 C-83.80167863621527 16.361321733479198, -84.08029184596894 16.27863079529489, -84.56777720640154 16.13394769918137 M-84.56777720640154 16.13394769918137 C-84.95833571390773 15.990218558135824, -85.34889422141393 15.84648941709028, -85.59047658294936 15.757584874882369 M-84.56777720640154 16.13394769918137 C-84.92368764551777 16.002969367586566, -85.279598084634 15.87199103599176, -85.59047658294936 15.757584874882369 M-85.59047658294936 15.757584874882369 C-85.94967598028376 15.59857795695397, -86.30887537761816 15.439571039025575, -86.58696106499849 15.316470754341127 M-85.59047658294936 15.757584874882369 C-85.96285242177687 15.592745137170219, -86.3352282606044 15.42790539945807, -86.58696106499849 15.316470754341127 M-86.58696106499849 15.316470754341127 C-86.90143239482896 15.152411262997068, -87.21590372465943 14.988351771653011, -87.55313588406693 14.812417970097624 M-86.58696106499849 15.316470754341127 C-86.92628137597765 15.13944756544833, -87.26560168695681 14.962424376555534, -87.55313588406693 14.812417970097624 M-87.55313588406693 14.812417970097624 C-87.75013170454856 14.692997946045718, -87.9471275250302 14.573577921993813, -88.48503082057931 14.247497783161299 M-87.55313588406693 14.812417970097624 C-87.76552608191086 14.68366578402129, -87.9779162797548 14.554913597944957, -88.48503082057931 14.247497783161299 M-88.48503082057931 14.247497783161299 C-88.78191139446105 14.040406746574307, -89.0787919683428 13.833315709987314, -89.37881651835067 13.624031571755264 M-88.48503082057931 14.247497783161299 C-88.79030758833042 14.034549925196412, -89.09558435608153 13.821602067231527, -89.37881651835067 13.624031571755264 M-89.37881651835067 13.624031571755264 C-89.6116833061012 13.4383265053697, -89.84455009385171 13.252621438984136, -90.2308202202324 12.94458129227529 M-89.37881651835067 13.624031571755264 C-89.61692797232983 13.434144023618787, -89.85503942630899 13.244256475482308, -90.2308202202324 12.94458129227529 M-90.2308202202324 12.94458129227529 C-90.53269378370919 12.67042770906247, -90.834567347186 12.396274125849647, -91.03754086025926 12.211938951661377 M-90.2308202202324 12.94458129227529 C-90.50139041057741 12.698856604298893, -90.77196060092241 12.453131916322496, -91.03754086025926 12.211938951661377 M-91.03754086025926 12.211938951661377 C-91.1921458448992 12.052296611715336, -91.34675082953913 11.892654271769295, -91.79566345028036 11.429115134442386 M-91.03754086025926 12.211938951661377 C-91.21039089981892 12.03345709456385, -91.3832409393786 11.854975237466322, -91.79566345028036 11.429115134442386 M-91.79566345028036 11.429115134442386 C-92.05427104556527 11.125339937831688, -92.3128786408502 10.82156474122099, -92.50207270195651 10.599326631598473 M-91.79566345028036 11.429115134442386 C-92.07279921960907 11.10357569031689, -92.34993498893776 10.778036246191395, -92.50207270195651 10.599326631598473 M-92.50207270195651 10.599326631598473 C-92.68564479018869 10.353356757128626, -92.86921687842087 10.107386882658782, -93.15386582814824 9.72598322207689 M-92.50207270195651 10.599326631598473 C-92.74897133231848 10.268504959841385, -92.99586996268043 9.9376832880843, -93.15386582814824 9.72598322207689 M-93.15386582814824 9.72598322207689 C-93.30999328182024 9.486129527145188, -93.46612073549224 9.246275832213485, -93.74836447109088 8.812673661278936 M-93.15386582814824 9.72598322207689 C-93.28614053008425 9.52277375917233, -93.41841523202028 9.31956429626777, -93.74836447109088 8.812673661278936 M-93.74836447109088 8.812673661278936 C-93.8663473285813 8.60318315074489, -93.98433018607172 8.393692640210844, -94.283125708341 7.863150934094201 M-93.74836447109088 8.812673661278936 C-93.90540265230136 8.533836468699533, -94.06244083351186 8.254999276120131, -94.283125708341 7.863150934094201 M-94.283125708341 7.863150934094201 C-94.44821038238511 7.520349076195435, -94.61329505642922 7.177547218296668, -94.75595209126881 6.881316833080701 M-94.283125708341 7.863150934094201 C-94.39571064350596 7.629365907292453, -94.50829557867092 7.395580880490705, -94.75595209126881 6.881316833080701 M-94.75595209126881 6.881316833080701 C-94.84359042879024 6.664848445030788, -94.93122876631166 6.448380056980876, -95.16490067484592 5.87120592516224 M-94.75595209126881 6.881316833080701 C-94.86246397553151 6.618230419684631, -94.96897585979421 6.35514400628856, -95.16490067484592 5.87120592516224 M-95.16490067484592 5.87120592516224 C-95.29769327173092 5.471255780971664, -95.43048586861593 5.07130563678109, -95.50829100162323 4.8369689727275516 M-95.16490067484592 5.87120592516224 C-95.27474399729901 5.540375339090267, -95.3845873197521 5.209544753018294, -95.50829100162323 4.8369689727275516 M-95.50829100162323 4.8369689727275516 C-95.56444214424498 4.622840329851701, -95.62059328686671 4.408711686975851, -95.784712007091 3.782855877257349 M-95.50829100162323 4.8369689727275516 C-95.5726649973471 4.591483027166214, -95.63703899307097 4.345997081604877, -95.784712007091 3.782855877257349 M-95.784712007091 3.782855877257349 C-95.83355587595972 3.5320529337717965, -95.88239974482845 3.281249990286244, -95.99302781804565 2.713198215567455 M-95.784712007091 3.782855877257349 C-95.82802002560999 3.560478355315281, -95.87132804412899 3.3381008333732125, -95.99302781804565 2.713198215567455 M-95.99302781804565 2.713198215567455 C-96.0255027673173 2.4613289219205194, -96.05797771658898 2.2094596282735837, -96.13238242013637 1.6323914404306026 M-95.99302781804565 2.713198215567455 C-96.0271442943849 2.4485975621405265, -96.06126077072415 2.183996908713598, -96.13238242013637 1.6323914404306026 M-96.13238242013637 1.6323914404306026 C-96.15444979160574 1.2886743173334843, -96.17651716307512 0.9449571942363661, -96.2022031754117 0.54487681871814 M-96.13238242013637 1.6323914404306026 C-96.15601060492878 1.264363389961178, -96.17963878972121 0.8963353394917533, -96.2022031754117 0.54487681871814 M-96.2022031754117 0.54487681871814 C-96.2022031754117 0.2028347298852607, -96.2022031754117 -0.1392073589476186, -96.2022031754117 -0.5448768187181317 M-96.2022031754117 0.54487681871814 C-96.2022031754117 0.28367365543568135, -96.2022031754117 0.02247049215322272, -96.2022031754117 -0.5448768187181317 M-96.2022031754117 -0.5448768187181317 C-96.17713196769107 -0.9353811160816278, -96.15206075997042 -1.325885413445124, -96.13238242013637 -1.6323914404305793 M-96.2022031754117 -0.5448768187181317 C-96.1861354059898 -0.7951452971342392, -96.1700676365679 -1.0454137755503468, -96.13238242013637 -1.6323914404305793 M-96.13238242013637 -1.6323914404305793 C-96.09256975746366 -1.941170590220542, -96.05275709479098 -2.249949740010505, -95.99302781804565 -2.713198215567447 M-96.13238242013637 -1.6323914404305793 C-96.0767588242062 -2.0637970663436382, -96.02113522827601 -2.495202692256697, -95.99302781804565 -2.713198215567447 M-95.99302781804565 -2.713198215567447 C-95.92718709189543 -3.0512764289064105, -95.86134636574522 -3.3893546422453737, -95.784712007091 -3.782855877257341 M-95.99302781804565 -2.713198215567447 C-95.93946145108828 -2.9882501886378803, -95.88589508413091 -3.263302161708314, -95.784712007091 -3.782855877257341 M-95.784712007091 -3.782855877257341 C-95.71728482048992 -4.039984962894798, -95.64985763388884 -4.297114048532255, -95.50829100162323 -4.836968972727544 M-95.784712007091 -3.782855877257341 C-95.68062869167984 -4.17977066891435, -95.57654537626868 -4.576685460571358, -95.50829100162323 -4.836968972727544 M-95.50829100162323 -4.836968972727544 C-95.38912562819753 -5.195876091061904, -95.26996025477185 -5.554783209396264, -95.16490067484594 -5.871205925162218 M-95.50829100162323 -4.836968972727544 C-95.40076448950988 -5.160821695189834, -95.29323797739653 -5.4846744176521245, -95.16490067484594 -5.871205925162218 M-95.16490067484594 -5.871205925162218 C-95.01175740413471 -6.249472764642651, -94.85861413342349 -6.627739604123084, -94.75595209126881 -6.881316833080692 M-95.16490067484594 -5.871205925162218 C-95.05742022365415 -6.136684717599091, -94.94993977246236 -6.402163510035964, -94.75595209126881 -6.881316833080692 M-94.75595209126881 -6.881316833080692 C-94.62785248257448 -7.147318411427009, -94.49975287388015 -7.413319989773325, -94.283125708341 -7.863150934094194 M-94.75595209126881 -6.881316833080692 C-94.6098314018665 -7.184739571106503, -94.46371071246418 -7.488162309132314, -94.283125708341 -7.863150934094194 M-94.283125708341 -7.863150934094194 C-94.12966913690704 -8.135628615838058, -93.97621256547308 -8.408106297581922, -93.74836447109088 -8.812673661278929 M-94.283125708341 -7.863150934094194 C-94.13044298986718 -8.134254561546221, -93.97776027139336 -8.405358188998248, -93.74836447109088 -8.812673661278929 M-93.74836447109088 -8.812673661278929 C-93.58039583961548 -9.070718585118119, -93.41242720814007 -9.328763508957309, -93.15386582814826 -9.725983222076884 M-93.74836447109088 -8.812673661278929 C-93.52450872705256 -9.156576197805778, -93.30065298301425 -9.500478734332626, -93.15386582814826 -9.725983222076884 M-93.15386582814826 -9.725983222076884 C-93.00198547453523 -9.929489059333468, -92.85010512092222 -10.132994896590054, -92.50207270195651 -10.599326631598467 M-93.15386582814826 -9.725983222076884 C-92.9273851862785 -10.029446649371414, -92.70090454440876 -10.332910076665941, -92.50207270195651 -10.599326631598467 M-92.50207270195651 -10.599326631598467 C-92.282740855591 -10.85696629867501, -92.06340900922548 -11.114605965751553, -91.79566345028037 -11.42911513444238 M-92.50207270195651 -10.599326631598467 C-92.28113622172413 -10.858851192921295, -92.06019974149173 -11.118375754244122, -91.79566345028037 -11.42911513444238 M-91.79566345028037 -11.42911513444238 C-91.59299491004933 -11.638387041627531, -91.39032636981828 -11.847658948812683, -91.03754086025927 -12.21193895166136 M-91.79566345028037 -11.42911513444238 C-91.59653646798655 -11.63473009229004, -91.39740948569272 -11.8403450501377, -91.03754086025927 -12.21193895166136 M-91.03754086025927 -12.21193895166136 C-90.77815838601667 -12.447503251884298, -90.51877591177407 -12.683067552107234, -90.23082022023242 -12.944581292275274 M-91.03754086025927 -12.21193895166136 C-90.79341871410479 -12.433644225680819, -90.54929656795032 -12.655349499700277, -90.23082022023242 -12.944581292275274 M-90.23082022023242 -12.944581292275274 C-89.90812201356108 -13.201924524735738, -89.58542380688975 -13.459267757196203, -89.37881651835067 -13.624031571755259 M-90.23082022023242 -12.944581292275274 C-89.96101405157553 -13.159744531935452, -89.69120788291866 -13.37490777159563, -89.37881651835067 -13.624031571755259 M-89.37881651835067 -13.624031571755259 C-89.15447748864841 -13.78052076739548, -88.93013845894616 -13.9370099630357, -88.48503082057934 -14.247497783161284 M-89.37881651835067 -13.624031571755259 C-89.09029514386044 -13.825291592710645, -88.80177376937021 -14.026551613666031, -88.48503082057934 -14.247497783161284 M-88.48503082057934 -14.247497783161284 C-88.25170944199719 -14.388938574006398, -88.01838806341505 -14.530379364851509, -87.55313588406695 -14.812417970097618 M-88.48503082057934 -14.247497783161284 C-88.24756623031567 -14.391450213275956, -88.01010164005199 -14.535402643390627, -87.55313588406695 -14.812417970097618 M-87.55313588406695 -14.812417970097618 C-87.22331589947989 -14.984484844796903, -86.89349591489284 -15.156551719496186, -86.58696106499849 -15.316470754341124 M-87.55313588406695 -14.812417970097618 C-87.17738047672246 -15.00844932542641, -86.80162506937798 -15.204480680755202, -86.58696106499849 -15.316470754341124 M-86.58696106499849 -15.316470754341124 C-86.34888723531871 -15.421858976531123, -86.11081340563894 -15.52724719872112, -85.59047658294936 -15.757584874882365 M-86.58696106499849 -15.316470754341124 C-86.320198043614 -15.434558830664168, -86.05343502222951 -15.552646906987212, -85.59047658294936 -15.757584874882365 M-85.59047658294936 -15.757584874882365 C-85.3323000728613 -15.852596217152268, -85.07412356277325 -15.94760755942217, -84.56777720640156 -16.133947699181363 M-85.59047658294936 -15.757584874882365 C-85.27344883144055 -15.874254018010022, -84.95642107993172 -15.99092316113768, -84.56777720640156 -16.133947699181363 M-84.56777720640156 -16.133947699181363 C-84.16871913749604 -16.25238603933397, -83.76966106859052 -16.37082437948658, -83.52306542646164 -16.444012671663494 M-84.56777720640156 -16.133947699181363 C-84.2125096728401 -16.239389238305066, -83.85724213927864 -16.344830777428772, -83.52306542646164 -16.444012671663494 M-83.52306542646164 -16.444012671663494 C-83.17828991370519 -16.522705432579674, -82.83351440094874 -16.60139819349585, -82.46063418792333 -16.68650566884811 M-83.52306542646164 -16.444012671663494 C-83.166190066486 -16.52546714374857, -82.80931470651034 -16.606921615833652, -82.46063418792333 -16.68650566884811 M-82.46063418792333 -16.68650566884811 C-82.1815869422365 -16.731619863487044, -81.90253969654968 -16.77673405812598, -81.38484924863661 -16.86043023499518 M-82.46063418792333 -16.68650566884811 C-82.03443140902716 -16.755410828888127, -81.60822863013098 -16.82431598892815, -81.38484924863661 -16.86043023499518 M-81.38484924863661 -16.86043023499518 C-80.96097275227304 -16.901321090813305, -80.53709625590945 -16.942211946631428, -80.30013123967213 -16.965071676755716 M-81.38484924863661 -16.86043023499518 C-81.16551984954954 -16.881588678342915, -80.94619045046248 -16.902747121690652, -80.30013123967213 -16.965071676755716 M-80.30013123967213 -16.965071676755716 C-79.9624828420157 -16.97589940367582, -79.62483444435927 -16.986727130595927, -79.2109375 -17 M-80.30013123967213 -16.965071676755716 C-80.0090802482305 -16.974405115554863, -79.7180292567889 -16.98373855435401, -79.2109375 -17 M-79.2109375 -17 C-79.2109375 -17, -79.2109375 -17, -79.2109375 -17 M-79.2109375 -17 C-79.2109375 -17, -79.2109375 -17, -79.2109375 -17" stroke="#555555" stroke-width="1.3" fill="none" stroke-dasharray="0 0" style=""></path></g><g class="label" style="" transform="translate(0, -9.5)"><rect></rect><g><rect class="background" style="stroke: none"></rect><text y="-10.1" style=""><tspan class="text-outer-tspan row" x="0" y="-0.1em" dy="1.1em"><tspan font-style="normal" class="text-inner-tspan" font-weight="normal">new</tspan><tspan font-style="normal" class="text-inner-tspan" font-weight="normal"> Observer(callback)</tspan></tspan></text></g></g></g><g class="node default" id="g24da008f-94fc-4527-9f25-e63f34f69eb1-dark-flowchart-obs-1" data-look="classic" transform="translate(914.1953125, 116.5)"><rect class="basic label-container" style="" x="-117.109375" y="-24.5" width="234.21875" height="49"></rect><g class="label" style="" transform="translate(0, -9.5)"><rect></rect><g><rect class="background" style="stroke: none"></rect><text y="-10.1" style=""><tspan class="text-outer-tspan row" x="0" y="-0.1em" dy="1.1em"><tspan font-style="normal" class="text-inner-tspan" font-weight="normal">observe(target,</tspan><tspan font-style="normal" class="text-inner-tspan" font-weight="normal"> options)</tspan></tspan></text></g></g></g><g class="node default" id="g24da008f-94fc-4527-9f25-e63f34f69eb1-dark-flowchart-reg-3" data-look="classic" transform="translate(278.55078125, 300.0999984741211)"><rect class="basic label-container" style="" x="-124.609375" y="-50.900001525878906" width="249.21875" height="101.80000305175781"></rect><g class="label" style="" transform="translate(0, -35.900001525878906)"><rect></rect><g><rect class="background" style="stroke: none"></rect><text y="-10.1" style=""><tspan class="text-outer-tspan row" x="0" y="-0.1em" dy="1.1em"><tspan font-style="normal" class="text-inner-tspan" font-weight="normal">agent</tspan><tspan font-style="normal" class="text-inner-tspan" font-weight="normal"> registers</tspan><tspan font-style="normal" class="text-inner-tspan" font-weight="normal"> (target,</tspan></tspan><tspan class="text-outer-tspan row" x="0" y="1em" dy="1.1em"><tspan font-style="normal" class="text-inner-tspan" font-weight="normal">observer)&amp;&amp;#10;in</tspan><tspan font-style="normal" class="text-inner-tspan" font-weight="normal"> the</tspan></tspan><tspan class="text-outer-tspan row" x="0" y="2.1em" dy="1.1em"><tspan font-style="normal" class="text-inner-tspan" font-weight="normal">per-document</tspan><tspan font-style="normal" class="text-inner-tspan" font-weight="normal"> observation</tspan></tspan><tspan class="text-outer-tspan row" x="0" y="3.2em" dy="1.1em"><tspan font-style="normal" class="text-inner-tspan" font-weight="normal">list</tspan></tspan></text></g></g></g><g class="node default" id="g24da008f-94fc-4527-9f25-e63f34f69eb1-dark-flowchart-wait-5" data-look="classic" transform="translate(278.55078125, 497.921875)"><polygon points="96.921875,0 193.84375,-96.921875 96.921875,-193.84375 0,-96.921875" class="label-container" transform="translate(-96.421875, 96.921875)"></polygon><g class="label" style="" transform="translate(0, -9.5)"><rect></rect><g><rect class="background" style="stroke: none"></rect><text y="-10.1" style=""><tspan class="text-outer-tspan row" x="0" y="-0.1em" dy="1.1em"><tspan font-style="normal" class="text-inner-tspan" font-weight="normal">timing</tspan><tspan font-style="normal" class="text-inner-tspan" font-weight="normal"> slot</tspan><tspan font-style="normal" class="text-inner-tspan" font-weight="normal"> reached?</tspan></tspan></text></g></g></g><g class="node default cb" id="g24da008f-94fc-4527-9f25-e63f34f69eb1-dark-flowchart-cb-7" data-look="classic" transform="translate(369.62890625, 718.7437477111816)"><rect class="basic label-container" style="fill:#2E5A88 !important;stroke:#1F4870 !important" x="-126.625" y="-33.29999923706055" width="253.25" height="66.5999984741211"></rect><g class="label" style="color:#ffffff !important" transform="translate(0, -18.299999237060547)"><rect></rect><g><rect class="background" style="stroke: none"></rect><text y="-10.1" style="fill:#404040 !important"><tspan class="text-outer-tspan row" x="0" y="-0.1em" dy="1.1em"><tspan font-style="normal" class="text-inner-tspan" font-weight="normal">callback</tspan><tspan font-style="normal" class="text-inner-tspan" font-weight="normal"> runs</tspan><tspan font-style="normal" class="text-inner-tspan" font-weight="normal"> with</tspan><tspan font-style="normal" class="text-inner-tspan" font-weight="normal"> batched</tspan></tspan><tspan class="text-outer-tspan row" x="0" y="1em" dy="1.1em"><tspan font-style="normal" class="text-inner-tspan" font-weight="normal">records</tspan></tspan></text></g></g></g><g class="node default" id="g24da008f-94fc-4527-9f25-e63f34f69eb1-dark-flowchart-drain-15" data-look="classic" transform="translate(374.21875, 844.1437454223633)"><rect class="basic label-container" style="" x="-122.96875" y="-42.099998474121094" width="245.9375" height="84.19999694824219"></rect><g class="label" style="" transform="translate(0, -27.099998474121094)"><rect></rect><g><rect class="background" style="stroke: none"></rect><text y="-10.1" style=""><tspan class="text-outer-tspan row" x="0" y="-0.1em" dy="1.1em"><tspan font-style="normal" class="text-inner-tspan" font-weight="normal">entries</tspan></tspan><tspan class="text-outer-tspan row" x="0" y="1em" dy="1.1em"><tspan font-style="normal" class="text-inner-tspan" font-weight="normal">delivered;&amp;&amp;#10;callback</tspan></tspan><tspan class="text-outer-tspan row" x="0" y="2.1em" dy="1.1em"><tspan font-style="normal" class="text-inner-tspan" font-weight="normal">may</tspan><tspan font-style="normal" class="text-inner-tspan" font-weight="normal"> schedule</tspan><tspan font-style="normal" class="text-inner-tspan" font-weight="normal"> more</tspan><tspan font-style="normal" class="text-inner-tspan" font-weight="normal"> work</tspan></tspan></text></g></g></g><g class="node default stop" id="g24da008f-94fc-4527-9f25-e63f34f69eb1-dark-flowchart-stop1-19" data-look="classic" transform="translate(572.94921875, 300.0999984741211)"><rect class="basic label-container" style="fill:#2D7A2D !important;stroke:#1E5A1E !important" x="-119.7890625" y="-24.5" width="239.578125" height="49"></rect><g class="label" style="color:#ffffff !important" transform="translate(0, -9.5)"><rect></rect><g><rect class="background" style="stroke: none"></rect><text y="-10.1" style="fill:#404040 !important"><tspan class="text-outer-tspan row" x="0" y="-0.1em" dy="1.1em"><tspan font-style="normal" class="text-inner-tspan" font-weight="normal">stop</tspan><tspan font-style="normal" class="text-inner-tspan" font-weight="normal"> watching</tspan><tspan font-style="normal" class="text-inner-tspan" font-weight="normal"> one</tspan><tspan font-style="normal" class="text-inner-tspan" font-weight="normal"> target</tspan></tspan></text></g></g></g><g class="node default stop" id="g24da008f-94fc-4527-9f25-e63f34f69eb1-dark-flowchart-stop2-21" data-look="classic" transform="translate(871.57421875, 300.0999984741211)"><rect class="basic label-container" style="fill:#2D7A2D !important;stroke:#1E5A1E !important" x="-128.8359375" y="-42.099998474121094" width="257.671875" height="84.19999694824219"></rect><g class="label" style="color:#ffffff !important" transform="translate(0, -27.099998474121094)"><rect></rect><g><rect class="background" style="stroke: none"></rect><text y="-10.1" style="fill:#404040 !important"><tspan class="text-outer-tspan row" x="0" y="-0.1em" dy="1.1em"><tspan font-style="normal" class="text-inner-tspan" font-weight="normal">stop</tspan><tspan font-style="normal" class="text-inner-tspan" font-weight="normal"> watching</tspan><tspan font-style="normal" class="text-inner-tspan" font-weight="normal"> all</tspan></tspan><tspan class="text-outer-tspan row" x="0" y="1em" dy="1.1em"><tspan font-style="normal" class="text-inner-tspan" font-weight="normal">targets&amp;&amp;#10;callback</tspan><tspan font-style="normal" class="text-inner-tspan" font-weight="normal"> may</tspan></tspan><tspan class="text-outer-tspan row" x="0" y="2.1em" dy="1.1em"><tspan font-style="normal" class="text-inner-tspan" font-weight="normal">still</tspan><tspan font-style="normal" class="text-inner-tspan" font-weight="normal"> see</tspan><tspan font-style="normal" class="text-inner-tspan" font-weight="normal"> takeRecords()</tspan></tspan></text></g></g></g><g class="node default stop" id="g24da008f-94fc-4527-9f25-e63f34f69eb1-dark-flowchart-stop3-23" data-look="classic" transform="translate(1160.19921875, 300.0999984741211)"><rect class="basic label-container" style="fill:#2D7A2D !important;stroke:#1E5A1E !important" x="-109.7890625" y="-24.5" width="219.578125" height="49"></rect><g class="label" style="color:#ffffff !important" transform="translate(0, -9.5)"><rect></rect><g><rect class="background" style="stroke: none"></rect><text y="-10.1" style="fill:#404040 !important"><tspan class="text-outer-tspan row" x="0" y="-0.1em" dy="1.1em"><tspan font-style="normal" class="text-inner-tspan" font-weight="normal">listener</tspan><tspan font-style="normal" class="text-inner-tspan" font-weight="normal"> auto-removed</tspan></tspan></text></g></g></g></g></g></g><defs><filter id="g24da008f-94fc-4527-9f25-e63f34f69eb1-dark-drop-shadow" height="130%" width="130%"><feDropShadow dx="4" dy="4" stdDeviation="0" flood-opacity="0.06" flood-color="#000000"></feDropShadow></filter></defs><defs><filter id="g24da008f-94fc-4527-9f25-e63f34f69eb1-dark-drop-shadow-small" height="150%" width="150%"><feDropShadow dx="2" dy="2" stdDeviation="0" flood-opacity="0.06" flood-color="#000000"></feDropShadow></filter></defs><linearGradient id="g24da008f-94fc-4527-9f25-e63f34f69eb1-dark-gradient" gradientUnits="objectBoundingBox" x1="0%" y1="0%" x2="100%" y2="0%"><stop offset="0%" stop-color="#555555" stop-opacity="1"></stop><stop offset="100%" stop-color="#555555" stop-opacity="1"></stop></linearGradient></svg>