<svg id="g6ff065f8-b5ee-4bec-a05e-328913cdfaa9-light" width="100%" xmlns="http://www.w3.org/2000/svg" xmlns:xlink="http://www.w3.org/1999/xlink" class="flowchart" style="max-width: 1091.257080078125px;" viewBox="0 0 1091.257080078125 1270.8280029296875" role="graphics-document document" aria-roledescription="flowchart-v2"><style>#g6ff065f8-b5ee-4bec-a05e-328913cdfaa9-light{font-family:"trebuchet ms",verdana,arial,sans-serif;font-size:16px;fill:#333;}@keyframes edge-animation-frame{from{stroke-dashoffset:0;}}@keyframes dash{to{stroke-dashoffset:0;}}#g6ff065f8-b5ee-4bec-a05e-328913cdfaa9-light .edge-animation-slow{stroke-dasharray:9,5!important;stroke-dashoffset:900;animation:dash 50s linear infinite;stroke-linecap:round;}#g6ff065f8-b5ee-4bec-a05e-328913cdfaa9-light .edge-animation-fast{stroke-dasharray:9,5!important;stroke-dashoffset:900;animation:dash 20s linear infinite;stroke-linecap:round;}#g6ff065f8-b5ee-4bec-a05e-328913cdfaa9-light .error-icon{fill:#552222;}#g6ff065f8-b5ee-4bec-a05e-328913cdfaa9-light .error-text{fill:#552222;stroke:#552222;}#g6ff065f8-b5ee-4bec-a05e-328913cdfaa9-light .edge-thickness-normal{stroke-width:1px;}#g6ff065f8-b5ee-4bec-a05e-328913cdfaa9-light .edge-thickness-thick{stroke-width:3.5px;}#g6ff065f8-b5ee-4bec-a05e-328913cdfaa9-light .edge-pattern-solid{stroke-dasharray:0;}#g6ff065f8-b5ee-4bec-a05e-328913cdfaa9-light .edge-thickness-invisible{stroke-width:0;fill:none;}#g6ff065f8-b5ee-4bec-a05e-328913cdfaa9-light .edge-pattern-dashed{stroke-dasharray:3;}#g6ff065f8-b5ee-4bec-a05e-328913cdfaa9-light .edge-pattern-dotted{stroke-dasharray:2;}#g6ff065f8-b5ee-4bec-a05e-328913cdfaa9-light .marker{fill:#333333;stroke:#333333;}#g6ff065f8-b5ee-4bec-a05e-328913cdfaa9-light .marker.cross{stroke:#333333;}#g6ff065f8-b5ee-4bec-a05e-328913cdfaa9-light svg{font-family:"trebuchet ms",verdana,arial,sans-serif;font-size:16px;}#g6ff065f8-b5ee-4bec-a05e-328913cdfaa9-light p{margin:0;}#g6ff065f8-b5ee-4bec-a05e-328913cdfaa9-light .label{font-family:"trebuchet ms",verdana,arial,sans-serif;color:#333;}#g6ff065f8-b5ee-4bec-a05e-328913cdfaa9-light .cluster-label text{fill:#333;}#g6ff065f8-b5ee-4bec-a05e-328913cdfaa9-light .cluster-label span{color:#333;}#g6ff065f8-b5ee-4bec-a05e-328913cdfaa9-light .cluster-label span p{background-color:transparent;}#g6ff065f8-b5ee-4bec-a05e-328913cdfaa9-light .label text,#g6ff065f8-b5ee-4bec-a05e-328913cdfaa9-light span{fill:#333;color:#333;}#g6ff065f8-b5ee-4bec-a05e-328913cdfaa9-light .node rect,#g6ff065f8-b5ee-4bec-a05e-328913cdfaa9-light .node circle,#g6ff065f8-b5ee-4bec-a05e-328913cdfaa9-light .node ellipse,#g6ff065f8-b5ee-4bec-a05e-328913cdfaa9-light .node polygon,#g6ff065f8-b5ee-4bec-a05e-328913cdfaa9-light .node path{fill:#ECECFF;stroke:#9370DB;stroke-width:1px;}#g6ff065f8-b5ee-4bec-a05e-328913cdfaa9-light .rough-node .label text,#g6ff065f8-b5ee-4bec-a05e-328913cdfaa9-light .node .label text,#g6ff065f8-b5ee-4bec-a05e-328913cdfaa9-light .image-shape .label,#g6ff065f8-b5ee-4bec-a05e-328913cdfaa9-light .icon-shape .label{text-anchor:middle;}#g6ff065f8-b5ee-4bec-a05e-328913cdfaa9-light .node .katex path{fill:#000;stroke:#000;stroke-width:1px;}#g6ff065f8-b5ee-4bec-a05e-328913cdfaa9-light .rough-node .label,#g6ff065f8-b5ee-4bec-a05e-328913cdfaa9-light .node .label,#g6ff065f8-b5ee-4bec-a05e-328913cdfaa9-light .image-shape .label,#g6ff065f8-b5ee-4bec-a05e-328913cdfaa9-light .icon-shape .label{text-align:center;}#g6ff065f8-b5ee-4bec-a05e-328913cdfaa9-light .node.clickable{cursor:pointer;}#g6ff065f8-b5ee-4bec-a05e-328913cdfaa9-light .root .anchor path{fill:#333333!important;stroke-width:0;stroke:#333333;}#g6ff065f8-b5ee-4bec-a05e-328913cdfaa9-light .arrowheadPath{fill:#333333;}#g6ff065f8-b5ee-4bec-a05e-328913cdfaa9-light .edgePath .path{stroke:#333333;stroke-width:1px;}#g6ff065f8-b5ee-4bec-a05e-328913cdfaa9-light .flowchart-link{stroke:#333333;fill:none;}#g6ff065f8-b5ee-4bec-a05e-328913cdfaa9-light .edgeLabel{background-color:rgba(232,232,232, 0.8);text-align:center;}#g6ff065f8-b5ee-4bec-a05e-328913cdfaa9-light .edgeLabel p{background-color:rgba(232,232,232, 0.8);}#g6ff065f8-b5ee-4bec-a05e-328913cdfaa9-light .edgeLabel rect{opacity:0.5;background-color:rgba(232,232,232, 0.8);fill:rgba(232,232,232, 0.8);}#g6ff065f8-b5ee-4bec-a05e-328913cdfaa9-light .labelBkg{background-color:rgba(232, 232, 232, 0.5);}#g6ff065f8-b5ee-4bec-a05e-328913cdfaa9-light .cluster rect{fill:#ffffde;stroke:#aaaa33;stroke-width:1px;}#g6ff065f8-b5ee-4bec-a05e-328913cdfaa9-light .cluster text{fill:#333;}#g6ff065f8-b5ee-4bec-a05e-328913cdfaa9-light .cluster span{color:#333;}#g6ff065f8-b5ee-4bec-a05e-328913cdfaa9-light div.mermaidTooltip{position:absolute;text-align:center;max-width:200px;padding:2px;font-family:"trebuchet ms",verdana,arial,sans-serif;font-size:12px;background:hsl(80, 100%, 96.2745098039%);border:1px solid #aaaa33;border-radius:2px;pointer-events:none;z-index:100;}#g6ff065f8-b5ee-4bec-a05e-328913cdfaa9-light .flowchartTitleText{text-anchor:middle;font-size:18px;fill:#333;}#g6ff065f8-b5ee-4bec-a05e-328913cdfaa9-light rect.text{fill:none;stroke-width:0;}#g6ff065f8-b5ee-4bec-a05e-328913cdfaa9-light .icon-shape,#g6ff065f8-b5ee-4bec-a05e-328913cdfaa9-light .image-shape{background-color:rgba(232,232,232, 0.8);text-align:center;}#g6ff065f8-b5ee-4bec-a05e-328913cdfaa9-light .icon-shape p,#g6ff065f8-b5ee-4bec-a05e-328913cdfaa9-light .image-shape p{background-color:rgba(232,232,232, 0.8);padding:2px;}#g6ff065f8-b5ee-4bec-a05e-328913cdfaa9-light .icon-shape .label rect,#g6ff065f8-b5ee-4bec-a05e-328913cdfaa9-light .image-shape .label rect{opacity:0.5;background-color:rgba(232,232,232, 0.8);fill:rgba(232,232,232, 0.8);}#g6ff065f8-b5ee-4bec-a05e-328913cdfaa9-light .label-icon{display:inline-block;height:1em;overflow:visible;vertical-align:-0.125em;}#g6ff065f8-b5ee-4bec-a05e-328913cdfaa9-light .node .label-icon path{fill:currentColor;stroke:revert;stroke-width:revert;}#g6ff065f8-b5ee-4bec-a05e-328913cdfaa9-light .node .neo-node{stroke:#9370DB;}#g6ff065f8-b5ee-4bec-a05e-328913cdfaa9-light [data-look="neo"].node rect,#g6ff065f8-b5ee-4bec-a05e-328913cdfaa9-light [data-look="neo"].cluster rect,#g6ff065f8-b5ee-4bec-a05e-328913cdfaa9-light [data-look="neo"].node polygon{stroke:#9370DB;filter:drop-shadow(1px 2px 2px rgba(185, 185, 185, 1));}#g6ff065f8-b5ee-4bec-a05e-328913cdfaa9-light [data-look="neo"].node path{stroke:#9370DB;stroke-width:1px;}#g6ff065f8-b5ee-4bec-a05e-328913cdfaa9-light [data-look="neo"].node .outer-path{filter:drop-shadow(1px 2px 2px rgba(185, 185, 185, 1));}#g6ff065f8-b5ee-4bec-a05e-328913cdfaa9-light [data-look="neo"].node .neo-line path{stroke:#9370DB;filter:none;}#g6ff065f8-b5ee-4bec-a05e-328913cdfaa9-light [data-look="neo"].node circle{stroke:#9370DB;filter:drop-shadow(1px 2px 2px rgba(185, 185, 185, 1));}#g6ff065f8-b5ee-4bec-a05e-328913cdfaa9-light [data-look="neo"].node circle .state-start{fill:#000000;}#g6ff065f8-b5ee-4bec-a05e-328913cdfaa9-light [data-look="neo"].icon-shape .icon{fill:#9370DB;filter:drop-shadow(1px 2px 2px rgba(185, 185, 185, 1));}#g6ff065f8-b5ee-4bec-a05e-328913cdfaa9-light [data-look="neo"].icon-shape .icon-neo path{stroke:#9370DB;filter:drop-shadow(1px 2px 2px rgba(185, 185, 185, 1));}#g6ff065f8-b5ee-4bec-a05e-328913cdfaa9-light :root{--mermaid-font-family:"trebuchet ms",verdana,arial,sans-serif;}</style><g><marker id="g6ff065f8-b5ee-4bec-a05e-328913cdfaa9-light_flowchart-v2-pointEnd" class="marker flowchart-v2" viewBox="0 0 10 10" refX="5" refY="5" markerUnits="userSpaceOnUse" markerWidth="8" markerHeight="8" orient="auto"><path d="M 0 0 L 10 5 L 0 10 z" class="arrowMarkerPath" style="stroke-width: 1; stroke-dasharray: 1, 0;"></path></marker><marker id="g6ff065f8-b5ee-4bec-a05e-328913cdfaa9-light_flowchart-v2-pointStart" class="marker flowchart-v2" viewBox="0 0 10 10" refX="4.5" refY="5" markerUnits="userSpaceOnUse" markerWidth="8" markerHeight="8" orient="auto"><path d="M 0 5 L 10 10 L 10 0 z" class="arrowMarkerPath" style="stroke-width: 1; stroke-dasharray: 1, 0;"></path></marker><marker id="g6ff065f8-b5ee-4bec-a05e-328913cdfaa9-light_flowchart-v2-pointEnd-margin" class="marker flowchart-v2" viewBox="0 0 11.5 14" refX="11.5" refY="7" markerUnits="userSpaceOnUse" markerWidth="10.5" markerHeight="14" orient="auto"><path d="M 0 0 L 11.5 7 L 0 14 z" class="arrowMarkerPath" style="stroke-width: 0; stroke-dasharray: 1, 0;"></path></marker><marker id="g6ff065f8-b5ee-4bec-a05e-328913cdfaa9-light_flowchart-v2-pointStart-margin" class="marker flowchart-v2" viewBox="0 0 11.5 14" refX="1" refY="7" markerUnits="userSpaceOnUse" markerWidth="11.5" markerHeight="14" orient="auto"><polygon points="0,7 11.5,14 11.5,0" class="arrowMarkerPath" style="stroke-width: 0; stroke-dasharray: 1, 0;"></polygon></marker><marker id="g6ff065f8-b5ee-4bec-a05e-328913cdfaa9-light_flowchart-v2-circleEnd" class="marker flowchart-v2" viewBox="0 0 10 10" refX="11" refY="5" markerUnits="userSpaceOnUse" markerWidth="11" markerHeight="11" orient="auto"><circle cx="5" cy="5" r="5" class="arrowMarkerPath" style="stroke-width: 1; stroke-dasharray: 1, 0;"></circle></marker><marker id="g6ff065f8-b5ee-4bec-a05e-328913cdfaa9-light_flowchart-v2-circleStart" class="marker flowchart-v2" viewBox="0 0 10 10" refX="-1" refY="5" markerUnits="userSpaceOnUse" markerWidth="11" markerHeight="11" orient="auto"><circle cx="5" cy="5" r="5" class="arrowMarkerPath" style="stroke-width: 1; stroke-dasharray: 1, 0;"></circle></marker><marker id="g6ff065f8-b5ee-4bec-a05e-328913cdfaa9-light_flowchart-v2-circleEnd-margin" class="marker flowchart-v2" viewBox="0 0 10 10" refY="5" refX="12.25" markerUnits="userSpaceOnUse" markerWidth="14" markerHeight="14" orient="auto"><circle cx="5" cy="5" r="5" class="arrowMarkerPath" style="stroke-width: 0; stroke-dasharray: 1, 0;"></circle></marker><marker id="g6ff065f8-b5ee-4bec-a05e-328913cdfaa9-light_flowchart-v2-circleStart-margin" class="marker flowchart-v2" viewBox="0 0 10 10" refX="-2" refY="5" markerUnits="userSpaceOnUse" markerWidth="14" markerHeight="14" orient="auto"><circle cx="5" cy="5" r="5" class="arrowMarkerPath" style="stroke-width: 0; stroke-dasharray: 1, 0;"></circle></marker><marker id="g6ff065f8-b5ee-4bec-a05e-328913cdfaa9-light_flowchart-v2-crossEnd" class="marker cross flowchart-v2" viewBox="0 0 11 11" refX="12" refY="5.2" markerUnits="userSpaceOnUse" markerWidth="11" markerHeight="11" orient="auto"><path d="M 1,1 l 9,9 M 10,1 l -9,9" class="arrowMarkerPath" style="stroke-width: 2; stroke-dasharray: 1, 0;"></path></marker><marker id="g6ff065f8-b5ee-4bec-a05e-328913cdfaa9-light_flowchart-v2-crossStart" class="marker cross flowchart-v2" viewBox="0 0 11 11" refX="-1" refY="5.2" markerUnits="userSpaceOnUse" markerWidth="11" markerHeight="11" orient="auto"><path d="M 1,1 l 9,9 M 10,1 l -9,9" class="arrowMarkerPath" style="stroke-width: 2; stroke-dasharray: 1, 0;"></path></marker><marker id="g6ff065f8-b5ee-4bec-a05e-328913cdfaa9-light_flowchart-v2-crossEnd-margin" class="marker cross flowchart-v2" viewBox="0 0 15 15" refX="17.7" refY="7.5" markerUnits="userSpaceOnUse" markerWidth="12" markerHeight="12" orient="auto"><path d="M 1,1 L 14,14 M 1,14 L 14,1" class="arrowMarkerPath" style="stroke-width: 2.5;"></path></marker><marker id="g6ff065f8-b5ee-4bec-a05e-328913cdfaa9-light_flowchart-v2-crossStart-margin" class="marker cross flowchart-v2" viewBox="0 0 15 15" refX="-3.5" refY="7.5" markerUnits="userSpaceOnUse" markerWidth="12" markerHeight="12" orient="auto"><path d="M 1,1 L 14,14 M 1,14 L 14,1" class="arrowMarkerPath" style="stroke-width: 2.5; stroke-dasharray: 1, 0;"></path></marker><g class="root"><g class="clusters"></g><g class="edgePaths"><path d="M894.466,60.1L894.383,64.183C894.3,68.267,894.133,76.433,894.05,84.017C893.966,91.6,893.966,98.6,893.966,102.1L893.966,105.6" id="g6ff065f8-b5ee-4bec-a05e-328913cdfaa9-light-L_Start_Q1_0" class="edge-thickness-normal edge-pattern-solid edge-thickness-normal edge-pattern-solid flowchart-link" style=";" data-edge="true" data-et="edge" data-id="L_Start_Q1_0" data-points="W3sieCI6ODk0LjQ2NjQwNzc3NTg3ODksInkiOjYwLjA5OTk5ODQ3NDEyMTA5fSx7IngiOjg5My45NjY0MDc3NzU4Nzg5LCJ5Ijo4NC41OTk5OTg0NzQxMjExfSx7IngiOjg5My45NjY0MDc3NzU4NzksInkiOjEwOS41OTk5OTg0NzQxMjEwNH1d" data-look="classic" marker-end="url(#g6ff065f8-b5ee-4bec-a05e-328913cdfaa9-light_flowchart-v2-pointEnd)"></path><path d="M941.125,293.37L950.751,307.313C960.377,321.256,979.63,349.142,989.256,375.528C998.882,401.914,998.882,426.799,998.882,439.242L998.882,451.684" id="g6ff065f8-b5ee-4bec-a05e-328913cdfaa9-light-L_Q1_Stale_0" class="edge-thickness-normal edge-pattern-solid edge-thickness-normal edge-pattern-solid flowchart-link" style=";" data-edge="true" data-et="edge" data-id="L_Q1_Stale_0" data-points="W3sieCI6OTQxLjEyNDYxMTIxNTgyNDgsInkiOjI5My4zNjk5MjYxMzc2OTA5fSx7IngiOjk5OC44ODIwMzQzMDE3NTc4LCJ5IjozNzcuMDI4MTI5NTc3NjM2N30seyJ4Ijo5OTguODgyMDM0MzAxNzU3OCwieSI6NDU1LjY4NDM4MzM5MjMzNH1d" data-look="classic" marker-end="url(#g6ff065f8-b5ee-4bec-a05e-328913cdfaa9-light_flowchart-v2-pointEnd)"></path><path d="M846.808,293.37L837.182,307.313C827.556,321.256,808.303,349.142,798.677,368.502C789.051,387.861,789.051,398.695,789.051,404.111L789.051,409.528" id="g6ff065f8-b5ee-4bec-a05e-328913cdfaa9-light-L_Q1_Q2_0" class="edge-thickness-normal edge-pattern-solid edge-thickness-normal edge-pattern-solid flowchart-link" style=";" data-edge="true" data-et="edge" data-id="L_Q1_Q2_0" data-points="W3sieCI6ODQ2LjgwODIwNDMzNTkzMywieSI6MjkzLjM2OTkyNjEzNzY5MDg3fSx7IngiOjc4OS4wNTA3ODEyNSwieSI6Mzc3LjAyODEyOTU3NzYzNjd9LHsieCI6Nzg5LjA1MDc4MTI1LCJ5Ijo0MTMuNTI4MTI5NTc3NjM2NjZ9XQ==" data-look="classic" marker-end="url(#g6ff065f8-b5ee-4bec-a05e-328913cdfaa9-light_flowchart-v2-pointEnd)"></path><path d="M805.5,547.992L807.96,556.816C810.42,565.641,815.34,583.291,817.8,609.102C820.26,634.914,820.26,668.886,820.26,685.873L820.26,702.859" id="g6ff065f8-b5ee-4bec-a05e-328913cdfaa9-light-L_Q2_Seq_0" class="edge-thickness-normal edge-pattern-solid edge-thickness-normal edge-pattern-solid flowchart-link" style=";" data-edge="true" data-et="edge" data-id="L_Q2_Seq_0" data-points="W3sieCI6ODA1LjQ5OTg1ODAyNjI5MTgsInkiOjU0Ny45OTE1NTg5MDQ4NjA1fSx7IngiOjgyMC4yNjAxNTQ3MjQxMjExLCJ5Ijo2MDAuOTQwNjM1NjgxMTUyM30seyJ4Ijo4MjAuMjYwMTU0NzI0MTIxMSwieSI6NzA2Ljg1OTM4NjQ0NDA5MTh9XQ==" data-look="classic" marker-end="url(#g6ff065f8-b5ee-4bec-a05e-328913cdfaa9-light_flowchart-v2-pointEnd)"></path><path d="M737.526,512.916L705.94,527.587C674.354,542.258,611.182,571.599,579.596,591.687C548.01,611.774,548.01,622.607,548.01,628.024L548.01,633.441" id="g6ff065f8-b5ee-4bec-a05e-328913cdfaa9-light-L_Q2_Q3_0" class="edge-thickness-normal edge-pattern-solid edge-thickness-normal edge-pattern-solid flowchart-link" style=";" data-edge="true" data-et="edge" data-id="L_Q2_Q3_0" data-points="W3sieCI6NzM3LjUyNjE4MjY5NjQ1NzUsInkiOjUxMi45MTYwMzcxMjc2MDk3fSx7IngiOjU0OC4wMTAxNTQ3MjQxMjExLCJ5Ijo2MDAuOTQwNjM1NjgxMTUyM30seyJ4Ijo1NDguMDEwMTU0NzI0MTIxMSwieSI6NjM3LjQ0MDYzNTY4MTE1MjN9XQ==" data-look="classic" marker-end="url(#g6ff065f8-b5ee-4bec-a05e-328913cdfaa9-light_flowchart-v2-pointEnd)"></path><path d="M474.519,769.387L428.425,787.719C382.33,806.051,290.142,842.714,244.047,868.135C197.953,893.555,197.953,907.732,197.953,914.821L197.953,921.909" id="g6ff065f8-b5ee-4bec-a05e-328913cdfaa9-light-L_Q3_Q4_0" class="edge-thickness-normal edge-pattern-solid edge-thickness-normal edge-pattern-solid flowchart-link" style=";" data-edge="true" data-et="edge" data-id="L_Q3_Q4_0" data-points="W3sieCI6NDc0LjUxOTA0Mzk1OTg2MjEzLCJ5Ijo3NjkuMzg3MDI0OTE2ODkzNH0seyJ4IjoxOTcuOTUzMTI1LCJ5Ijo4NzkuMzc4MTM1NjgxMTUyM30seyJ4IjoxOTcuOTUzMTI1LCJ5Ijo5MjUuOTA5Mzg1NjgxMTUyM31d" data-look="classic" marker-end="url(#g6ff065f8-b5ee-4bec-a05e-328913cdfaa9-light_flowchart-v2-pointEnd)"></path><path d="M622.147,768.741L669.977,787.181C717.806,805.62,813.465,842.499,861.295,878.084C909.124,913.67,909.124,947.961,909.124,965.107L909.124,982.253" id="g6ff065f8-b5ee-4bec-a05e-328913cdfaa9-light-L_Q3_Bmp_0" class="edge-thickness-normal edge-pattern-solid edge-thickness-normal edge-pattern-solid flowchart-link" style=";" data-edge="true" data-et="edge" data-id="L_Q3_Bmp_0" data-points="W3sieCI6NjIyLjE0NzE3NzMwODg1NzMsInkiOjc2OC43NDExMTMwOTY0MTU2fSx7IngiOjkwOS4xMjQyMTQxNzIzNjMzLCJ5Ijo4NzkuMzc4MTM1NjgxMTUyM30seyJ4Ijo5MDkuMTI0MjE0MTcyMzYzMywieSI6OTg2LjI1MzEzMTg2NjQ1NTF9XQ==" data-look="classic" marker-end="url(#g6ff065f8-b5ee-4bec-a05e-328913cdfaa9-light_flowchart-v2-pointEnd)"></path><path d="M592.153,798.735L602.282,812.176C612.411,825.616,632.668,852.497,642.797,871.354C652.926,890.211,652.926,901.045,652.926,906.461L652.926,911.878" id="g6ff065f8-b5ee-4bec-a05e-328913cdfaa9-light-L_Q3_Q5_0" class="edge-thickness-normal edge-pattern-solid edge-thickness-normal edge-pattern-solid flowchart-link" style=";" data-edge="true" data-et="edge" data-id="L_Q3_Q5_0" data-points="W3sieCI6NTkyLjE1MzA2NTU0ODczNywieSI6Nzk4LjczNTIyNDg1NjUzNn0seyJ4Ijo2NTIuOTI1NzgxMjUsInkiOjg3OS4zNzgxMzU2ODExNTIzfSx7IngiOjY1Mi45MjU3ODEyNSwieSI6OTE1Ljg3ODEzNTY4MTE1MjV9XQ==" data-look="classic" marker-end="url(#g6ff065f8-b5ee-4bec-a05e-328913cdfaa9-light_flowchart-v2-pointEnd)"></path><path d="M158.35,1073.594L147.829,1087.949C137.309,1102.305,116.268,1131.017,105.747,1152.256C95.227,1173.495,95.227,1187.261,95.227,1194.145L95.227,1201.028" id="g6ff065f8-b5ee-4bec-a05e-328913cdfaa9-light-L_Q4_IOS_0" class="edge-thickness-normal edge-pattern-solid edge-thickness-normal edge-pattern-solid flowchart-link" style=";" data-edge="true" data-et="edge" data-id="L_Q4_IOS_0" data-points="W3sieCI6MTU4LjM0OTgzODE4MjMwNDIsInkiOjEwNzMuNTkzNTg5NzA4MTgzMX0seyJ4Ijo5NS4yMjY1NjI1LCJ5IjoxMTU5LjcyODEyNjUyNTg3OX0seyJ4Ijo5NS4yMjY1NjI1LCJ5IjoxMjA1LjAyODEyNTc2MjkzOTV9XQ==" data-look="classic" marker-end="url(#g6ff065f8-b5ee-4bec-a05e-328913cdfaa9-light_flowchart-v2-pointEnd)"></path><path d="M237.556,1073.594L248.077,1087.949C258.598,1102.305,279.639,1131.017,290.159,1152.256C300.68,1173.495,300.68,1187.261,300.68,1194.145L300.68,1201.028" id="g6ff065f8-b5ee-4bec-a05e-328913cdfaa9-light-L_Q4_Idx_0" class="edge-thickness-normal edge-pattern-solid edge-thickness-normal edge-pattern-solid flowchart-link" style=";" data-edge="true" data-et="edge" data-id="L_Q4_Idx_0" data-points="W3sieCI6MjM3LjU1NjQxMTgxNzY5NTc2LCJ5IjoxMDczLjU5MzU4OTcwODE4MzF9LHsieCI6MzAwLjY3OTY4NzUsInkiOjExNTkuNzI4MTI2NTI1ODc5fSx7IngiOjMwMC42Nzk2ODc1LCJ5IjoxMjA1LjAyODEyNTc2MjkzOTV9XQ==" data-look="classic" marker-end="url(#g6ff065f8-b5ee-4bec-a05e-328913cdfaa9-light_flowchart-v2-pointEnd)"></path><path d="M602.187,1072.489L588.251,1087.029C574.315,1101.569,546.443,1130.649,532.506,1150.605C518.57,1170.561,518.57,1181.395,518.57,1186.811L518.57,1192.228" id="g6ff065f8-b5ee-4bec-a05e-328913cdfaa9-light-L_Q5_SeqCorr_0" class="edge-thickness-normal edge-pattern-solid edge-thickness-normal edge-pattern-solid flowchart-link" style=";" data-edge="true" data-et="edge" data-id="L_Q5_SeqCorr_0" data-points="W3sieCI6NjAyLjE4NzE0MDQ1OTczNzIsInkiOjEwNzIuNDg5NDg1NzM1NjE1N30seyJ4Ijo1MTguNTcwMzEyNSwieSI6MTE1OS43MjgxMjY1MjU4Nzl9LHsieCI6NTE4LjU3MDMxMjUsInkiOjExOTYuMjI4MTI2NTI1ODc5fV0=" data-look="classic" marker-end="url(#g6ff065f8-b5ee-4bec-a05e-328913cdfaa9-light_flowchart-v2-pointEnd)"></path><path d="M703.664,1072.489L717.601,1087.029C731.537,1101.569,759.409,1130.649,773.345,1150.605C787.281,1170.561,787.281,1181.395,787.281,1186.811L787.281,1192.228" id="g6ff065f8-b5ee-4bec-a05e-328913cdfaa9-light-L_Q5_SeqHigh_0" class="edge-thickness-normal edge-pattern-solid edge-thickness-normal edge-pattern-solid flowchart-link" style=";" data-edge="true" data-et="edge" data-id="L_Q5_SeqHigh_0" data-points="W3sieCI6NzAzLjY2NDQyMjA0MDI2MjgsInkiOjEwNzIuNDg5NDg1NzM1NjE1N30seyJ4Ijo3ODcuMjgxMjUsInkiOjExNTkuNzI4MTI2NTI1ODc5fSx7IngiOjc4Ny4yODEyNSwieSI6MTE5Ni4yMjgxMjY1MjU4Nzl9XQ==" data-look="classic" marker-end="url(#g6ff065f8-b5ee-4bec-a05e-328913cdfaa9-light_flowchart-v2-pointEnd)"></path></g><g class="edgeLabels"><g class="edgeLabel"><g class="label" data-id="L_Start_Q1_0" transform="translate(0, 0)"><text y="-10.1" text-anchor="middle"><tspan class="text-outer-tspan row" x="0" y="-0.1em" dy="1.1em" text-anchor="middle"></tspan></text></g></g><g><rect class="background" style="stroke: none"></rect></g><g class="edgeLabel" transform="translate(998.8820343017578, 377.0281295776367)"><g class="label" data-id="L_Q1_Stale_0" transform="translate(0, -10.5)"><g><rect class="background" style="" x="-10.6640625" y="-1" width="21.328125" height="23"></rect><text y="-10.1" text-anchor="middle" style=""><tspan class="text-outer-tspan row" x="0" y="-0.1em" dy="1.1em" text-anchor="middle"><tspan font-style="normal" class="text-inner-tspan" font-weight="normal">no</tspan></tspan></text></g></g></g><g class="edgeLabel" transform="translate(789.05078125, 377.0281295776367)"><g class="label" data-id="L_Q1_Q2_0" transform="translate(0, -10.5)"><g><rect class="background" style="" x="-13.546875" y="-1" width="27.09375" height="23"></rect><text y="-10.1" text-anchor="middle" style=""><tspan class="text-outer-tspan row" x="0" y="-0.1em" dy="1.1em" text-anchor="middle"><tspan font-style="normal" class="text-inner-tspan" font-weight="normal">yes</tspan></tspan></text></g></g></g><g class="edgeLabel" transform="translate(820.2601547241211, 600.9406356811523)"><g class="label" data-id="L_Q2_Seq_0" transform="translate(0, -10.5)"><g><rect class="background" style="" x="-13.546875" y="-1" width="27.09375" height="23"></rect><text y="-10.1" text-anchor="middle" style=""><tspan class="text-outer-tspan row" x="0" y="-0.1em" dy="1.1em" text-anchor="middle"><tspan font-style="normal" class="text-inner-tspan" font-weight="normal">yes</tspan></tspan></text></g></g></g><g class="edgeLabel" transform="translate(548.0101547241211, 600.9406356811523)"><g class="label" data-id="L_Q2_Q3_0" transform="translate(0, -10.5)"><g><rect class="background" style="" x="-10.6640625" y="-1" width="21.328125" height="23"></rect><text y="-10.1" text-anchor="middle" style=""><tspan class="text-outer-tspan row" x="0" y="-0.1em" dy="1.1em" text-anchor="middle"><tspan font-style="normal" class="text-inner-tspan" font-weight="normal">no</tspan></tspan></text></g></g></g><g class="edgeLabel" transform="translate(197.953125, 879.3781356811523)"><g class="label" data-id="L_Q3_Q4_0" transform="translate(0, -10.5)"><g><rect class="background" style="" x="-21.796875" y="-1" width="43.59375" height="23"></rect><text y="-10.1" text-anchor="middle" style=""><tspan class="text-outer-tspan row" x="0" y="-0.1em" dy="1.1em" text-anchor="middle"><tspan font-style="normal" class="text-inner-tspan" font-weight="normal">&lt;</tspan><tspan font-style="normal" class="text-inner-tspan" font-weight="normal"> ~1%</tspan></tspan></text></g></g></g><g class="edgeLabel" transform="translate(909.1242141723633, 879.3781356811523)"><g class="label" data-id="L_Q3_Bmp_0" transform="translate(0, -10.5)"><g><rect class="background" style="" x="-26.5234375" y="-1" width="53.046875" height="23"></rect><text y="-10.1" text-anchor="middle" style=""><tspan class="text-outer-tspan row" x="0" y="-0.1em" dy="1.1em" text-anchor="middle"><tspan font-style="normal" class="text-inner-tspan" font-weight="normal">~1–10%</tspan></tspan></text></g></g></g><g class="edgeLabel" transform="translate(652.92578125, 879.3781356811523)"><g class="label" data-id="L_Q3_Q5_0" transform="translate(0, -10.5)"><g><rect class="background" style="" x="-19.390625" y="-1" width="38.78125" height="23"></rect><text y="-10.1" text-anchor="middle" style=""><tspan class="text-outer-tspan row" x="0" y="-0.1em" dy="1.1em" text-anchor="middle"><tspan font-style="normal" class="text-inner-tspan" font-weight="normal">~10%</tspan></tspan></text></g></g></g><g class="edgeLabel" transform="translate(95.2265625, 1159.728126525879)"><g class="label" data-id="L_Q4_IOS_0" transform="translate(0, -10.5)"><g><rect class="background" style="" x="-13.546875" y="-1" width="27.09375" height="23"></rect><text y="-10.1" text-anchor="middle" style=""><tspan class="text-outer-tspan row" x="0" y="-0.1em" dy="1.1em" text-anchor="middle"><tspan font-style="normal" class="text-inner-tspan" font-weight="normal">yes</tspan></tspan></text></g></g></g><g class="edgeLabel" transform="translate(300.6796875, 1159.728126525879)"><g class="label" data-id="L_Q4_Idx_0" transform="translate(0, -10.5)"><g><rect class="background" style="" x="-10.6640625" y="-1" width="21.328125" height="23"></rect><text y="-10.1" text-anchor="middle" style=""><tspan class="text-outer-tspan row" x="0" y="-0.1em" dy="1.1em" text-anchor="middle"><tspan font-style="normal" class="text-inner-tspan" font-weight="normal">no</tspan></tspan></text></g></g></g><g class="edgeLabel" transform="translate(518.5703125, 1159.728126525879)"><g class="label" data-id="L_Q5_SeqCorr_0" transform="translate(0, -10.5)"><g><rect class="background" style="" x="-13.546875" y="-1" width="27.09375" height="23"></rect><text y="-10.1" text-anchor="middle" style=""><tspan class="text-outer-tspan row" x="0" y="-0.1em" dy="1.1em" text-anchor="middle"><tspan font-style="normal" class="text-inner-tspan" font-weight="normal">yes</tspan></tspan></text></g></g></g><g class="edgeLabel" transform="translate(787.28125, 1159.728126525879)"><g class="label" data-id="L_Q5_SeqHigh_0" transform="translate(0, -10.5)"><g><rect class="background" style="" x="-10.6640625" y="-1" width="21.328125" height="23"></rect><text y="-10.1" text-anchor="middle" style=""><tspan class="text-outer-tspan row" x="0" y="-0.1em" dy="1.1em" text-anchor="middle"><tspan font-style="normal" class="text-inner-tspan" font-weight="normal">no</tspan></tspan></text></g></g></g></g><g class="nodes"><g class="node default" id="g6ff065f8-b5ee-4bec-a05e-328913cdfaa9-light-flowchart-Start-0" data-look="classic" transform="translate(893.9664077758789, 33.79999923706055)"><g class="basic label-container outer-path"><path d="M-55.22031307220459 -25.799999237060547 C-13.951935682555238 -25.799999237060547, 27.316441707094114 -25.799999237060547, 55.22031307220459 -25.799999237060547 C55.22031307220459 -25.799999237060547, 55.22031307220459 -25.799999237060547, 55.22031307220459 -25.799999237060547 C55.705409013656514 -25.784443154400154, 56.19050495510843 -25.768887071739762, 56.873324698825286 -25.746990371586765 C57.40269693831368 -25.695922468306584, 57.932069177802084 -25.644854565026403, 58.51954374610231 -25.58818159996402 C59.05896410274259 -25.500972299969764, 59.59838445938288 -25.413762999975503, 60.15220554685753 -25.32422550149928 C60.65240648276008 -25.21005790199568, 61.152607418662626 -25.095890302492077, 61.764601143546784 -24.956206728419545 C62.182530282563626 -24.832167553714164, 62.600459421580474 -24.708128379008784, 63.350104856805515 -24.48563754880318 C63.67660700234739 -24.365481741091024, 64.00310914788926 -24.245325933378865, 64.90220151178644 -23.914451632345997 C65.31294566720034 -23.732627379036728, 65.72368982261423 -23.550803125727455, 66.41451321041056 -23.24499610449772 C66.80076724364338 -23.043487622767675, 67.1870212768762 -22.84197914103763, 67.8808255395184 -22.480021901620034 C68.42877625763245 -22.147850956183444, 68.97672697574652 -21.815680010746856, 69.29511310722664 -21.62267246679901 C69.75043415795632 -21.305060212340592, 70.205755208686 -20.987447957882175, 70.65156430255584 -20.67647083276321 C70.93639193795329 -20.44932837311545, 71.22121957335072 -20.222185913467687, 71.9446051765865 -19.64530514498651 C72.25124801503715 -19.36682023243055, 72.55789085348778 -19.08833531987459, 73.16892234701088 -18.533412684464313 C73.56695150983568 -18.1224148950457, 73.96498067266047 -17.71141710562709, 74.31948483196044 -17.345362455817106 C74.64670726082255 -16.960988371392002, 74.97392968968467 -16.576614286966894, 75.39156472338968 -16.086036412270357 C75.69590272911584 -15.678251210359987, 76.00024073484201 -15.270466008449617, 76.38075661506427 -14.76060939466161 C76.66107064867926 -14.329971764171502, 76.94138468229423 -13.899334133681393, 77.28299570532036 -13.374527866909407 C77.49972412434592 -12.989704612797363, 77.71645254337146 -12.604881358685319, 78.0945745002064 -11.93348753532484 C78.26397324918759 -11.58172740851282, 78.43337199816878 -11.229967281700802, 78.81215804837109 -10.443409943732584 C78.99730681306846 -9.98608891532221, 79.18245557776584 -9.528767886911833, 79.43279764509381 -8.910418140577123 C79.56079704362516 -8.524904346135314, 79.68879644215652 -8.139390551693502, 79.9539429491449 -7.340811518003323 C80.05188479204224 -6.967316822772539, 80.14982663493959 -6.593822127541754, 80.37345246268467 -5.741039926302914 C80.44148293576445 -5.391717825283805, 80.50951340884424 -5.042395724264696, 80.68960233113748 -4.117677170096137 C80.75311153149727 -3.6251123534156866, 80.81662073185707 -3.1325475367352364, 80.90109342687991 -2.4773939951584394 C80.93300609454243 -1.9803284368728435, 80.96491876220497 -1.4832628785872477, 81.00705668763487 -0.8269306768952902 C81.00705668763487 -0.27934010718203006, 81.00705668763487 0.2682504625312301, 81.00705668763487 0.826930676895284 C80.98171402952535 1.221663033176619, 80.95637137141581 1.6163953894579537, 80.90109342687991 2.4773939951584216 C80.82945274184334 3.033025001248648, 80.75781205680677 3.5886560073388747, 80.68960233113748 4.117677170096119 C80.58572407031238 4.651070084754815, 80.48184580948727 5.184462999413512, 80.37345246268467 5.741039926302909 C80.22915273809554 6.291317316057531, 80.08485301350639 6.841594705812153, 79.9539429491449 7.340811518003306 C79.75507863927032 7.939759134620646, 79.55621432939574 8.538706751237985, 79.43279764509383 8.910418140577105 C79.273189135867 9.304654244187972, 79.11358062664017 9.698890347798839, 78.81215804837109 10.443409943732577 C78.5311245253768 11.026982067384338, 78.25009100238249 11.610554191036101, 78.0945745002064 11.933487535324835 C77.80512446702559 12.447435379231507, 77.51567443384477 12.96138322313818, 77.28299570532037 13.374527866909402 C77.06968628754828 13.702228414206195, 76.85637686977618 14.029928961502987, 76.38075661506429 14.760609394661596 C76.00852733247453 15.259362722546609, 75.63629804988479 15.758116050431621, 75.39156472338968 16.086036412270353 C75.00955866500665 16.53476246520755, 74.62755260662364 16.98348851814475, 74.31948483196045 17.345362455817092 C74.01730477293499 17.657388176205114, 73.71512471390953 17.969413896593135, 73.16892234701088 18.533412684464306 C72.80013169326776 18.86833859852781, 72.43134103952465 19.203264512591318, 71.94460517658653 19.64530514498649 C71.56816576025717 19.945505562035578, 71.19172634392781 20.24570597908466, 70.65156430255584 20.676470832763208 C70.25289447736736 20.954565644676116, 69.85422465217887 21.232660456589024, 69.29511310722665 21.622672466799003 C68.73450884920753 21.9625140624865, 68.17390459118842 22.302355658173994, 67.88082553951841 22.48002190162003 C67.50077270477642 22.678295222069465, 67.12071987003443 22.876568542518903, 66.41451321041058 23.244996104497716 C65.88834465657149 23.477915315046687, 65.3621761027324 23.71083452559566, 64.90220151178644 23.914451632345994 C64.54625569319073 24.045442983916296, 64.190309874595 24.1764343354866, 63.35010485680553 24.485637548803172 C62.770960484756145 24.657524558436588, 62.19181611270676 24.829411568070004, 61.76460114354681 24.95620672841954 C61.29435946459887 25.063536323025676, 60.82411778565093 25.17086591763181, 60.152205546857545 25.324225501499278 C59.72520487044164 25.3932596594225, 59.29820419402572 25.46229381734572, 58.51954374610233 25.588181599964017 C58.013964463280224 25.636954225329816, 57.50838518045811 25.68572685069562, 56.873324698825286 25.746990371586765 C56.28493095731317 25.765859013638117, 55.69653721580106 25.784727655689473, 55.2203130722046 25.799999237060547 C55.2203130722046 25.799999237060547, 55.22031307220459 25.799999237060547, 55.22031307220459 25.799999237060547 C11.700169583305787 25.799999237060547, -31.819973905593017 25.799999237060547, -55.22031307220458 25.799999237060547 C-55.65785120346445 25.78596824080735, -56.09538933472432 25.771937244554156, -56.87332469882527 25.746990371586765 C-57.31132005027179 25.704737486799196, -57.749315401718306 25.66248460201163, -58.519543746102315 25.588181599964017 C-59.05530639265975 25.501563650169988, -59.59106903921719 25.41494570037596, -60.15220554685753 25.324225501499278 C-60.77947100486567 25.181056253998573, -61.40673646287381 25.037887006497865, -61.764601143546784 24.956206728419545 C-62.25819715055253 24.80971002447855, -62.751793157558275 24.66321332053756, -63.3501048568055 24.485637548803183 C-63.86398809638324 24.296523766353985, -64.37787133596098 24.107409983904784, -64.90220151178644 23.914451632345997 C-65.43990034518868 23.67642830906801, -65.97759917859089 23.438404985790026, -66.41451321041056 23.244996104497723 C-66.99245039538826 22.943486645281297, -67.57038758036595 22.641977186064867, -67.8808255395184 22.480021901620038 C-68.3292467243855 22.208186344138216, -68.77766790925259 21.936350786656394, -69.29511310722663 21.622672466799017 C-69.67646312975756 21.35665919945784, -70.0578131522885 21.09064593211667, -70.65156430255584 20.67647083276321 C-71.04807948932421 20.360260523027705, -71.44459467609256 20.0440502132922, -71.9446051765865 19.645305144986512 C-72.37623046244482 19.25331448054924, -72.80785574830315 18.86132381611197, -73.16892234701086 18.533412684464324 C-73.52404888442452 18.166715378153764, -73.87917542183817 17.80001807184321, -74.31948483196044 17.3453624558171 C-74.6361330695884 16.973409418104165, -74.95278130721634 16.601456380391227, -75.39156472338968 16.08603641227036 C-75.68795276101827 15.688903443353746, -75.98434079864685 15.291770474437131, -76.38075661506427 14.760609394661614 C-76.664942188795 14.324024038899626, -76.94912776252573 13.88743868313764, -77.28299570532036 13.374527866909418 C-77.51208673931093 12.967753538076469, -77.74117777330149 12.560979209243522, -78.09457450020639 11.933487535324842 C-78.37397154940692 11.3533135845208, -78.65336859860743 10.773139633716758, -78.81215804837109 10.443409943732586 C-78.95787830801707 10.083478085097422, -79.10359856766307 9.723546226462258, -79.43279764509381 8.910418140577127 C-79.5811330848594 8.463655430045938, -79.72946852462499 8.016892719514749, -79.9539429491449 7.340811518003316 C-80.09575050890801 6.800037832841425, -80.2375580686711 6.259264147679533, -80.37345246268467 5.741039926302918 C-80.440967562696 5.39436415706615, -80.50848266270734 5.047688387829383, -80.68960233113748 4.117677170096139 C-80.73573439477173 3.759885994355241, -80.78186645840599 3.4020948186143425, -80.90109342687991 2.477393995158454 C-80.94330418820739 1.8199273155695197, -80.98551494953489 1.1624606359805856, -81.00705668763487 0.8269306768952934 C-81.00705668763487 0.3977008961767743, -81.00705668763487 -0.03152888454174485, -81.00705668763487 -0.8269306768952809 C-80.96790932945862 -1.436682379669127, -80.92876197128237 -2.0464340824429734, -80.90109342687991 -2.4773939951584185 C-80.81799555640991 -3.1218846689931286, -80.73489768593993 -3.766375342827839, -80.68960233113748 -4.117677170096128 C-80.58584219619358 -4.650463533320732, -80.48208206124968 -5.183249896545335, -80.37345246268467 -5.741039926302906 C-80.21403282432304 -6.348976100284085, -80.05461318596143 -6.956912274265266, -79.9539429491449 -7.340811518003303 C-79.84222677523732 -7.677282834257868, -79.73051060132973 -8.013754150512433, -79.43279764509383 -8.910418140577093 C-79.21550657053066 -9.447131295785232, -78.99821549596751 -9.98384445099337, -78.81215804837109 -10.443409943732574 C-78.57497537013293 -10.935924849990442, -78.33779269189478 -11.42843975624831, -78.0945745002064 -11.933487535324831 C-77.81149476031273 -12.43612427843804, -77.52841502041905 -12.93876102155125, -77.28299570532036 -13.374527866909409 C-77.0552710194314 -13.724374137075191, -76.82754633354244 -14.074220407240976, -76.38075661506429 -14.760609394661605 C-75.99003279120923 -15.284143722954745, -75.59930896735419 -15.807678051247883, -75.39156472338968 -16.086036412270353 C-74.99596865735116 -16.55072606149304, -74.60037259131263 -17.015415710715732, -74.31948483196045 -17.345362455817092 C-74.03830300952694 -17.635705772936642, -73.75712118709343 -17.926049090056196, -73.16892234701089 -18.5334126844643 C-72.76138037788425 -18.9035315178555, -72.3538384087576 -19.273650351246708, -71.94460517658653 -19.645305144986487 C-71.46251438557965 -20.029759721839746, -70.98042359457277 -20.414214298693004, -70.65156430255585 -20.676470832763204 C-70.36214125826503 -20.878359819538822, -70.07271821397421 -21.080248806314444, -69.29511310722665 -21.622672466799 C-69.00457749035125 -21.79879686512567, -68.71404187347585 -21.974921263452345, -67.88082553951841 -22.480021901620027 C-67.47710907411916 -22.69064052302608, -67.07339260871991 -22.90125914443213, -66.41451321041058 -23.244996104497716 C-65.82256979378002 -23.507031895662493, -65.23062637714946 -23.769067686827274, -64.90220151178646 -23.91445163234599 C-64.59107171689928 -24.02895027291677, -64.27994192201209 -24.14344891348755, -63.35010485680553 -24.485637548803172 C-62.83684225635229 -24.637971194447328, -62.32357965589905 -24.79030484009148, -61.76460114354682 -24.956206728419538 C-61.31228003178662 -25.0594460705077, -60.859958920026415 -25.162685412595867, -60.152205546857545 -25.324225501499278 C-59.72064542917142 -25.39399679452807, -59.2890853114853 -25.46376808755687, -58.51954374610233 -25.588181599964017 C-57.93881035297767 -25.644204251964663, -57.358076959853015 -25.70022690396531, -56.873324698825286 -25.746990371586765 C-56.30283850849923 -25.765284753326515, -55.73235231817317 -25.783579135066265, -55.2203130722046 -25.799999237060547 C-55.2203130722046 -25.799999237060547, -55.2203130722046 -25.799999237060547, -55.22031307220459 -25.799999237060547" stroke="none" stroke-width="0" fill="#ECECFF" style=""></path><path d="M-55.22031307220459 -25.799999237060547 C-23.364704004018026 -25.799999237060547, 8.490905064168537 -25.799999237060547, 55.22031307220459 -25.799999237060547 M-55.22031307220459 -25.799999237060547 C-22.280827368138702 -25.799999237060547, 10.658658335927186 -25.799999237060547, 55.22031307220459 -25.799999237060547 M55.22031307220459 -25.799999237060547 C55.22031307220459 -25.799999237060547, 55.22031307220459 -25.799999237060547, 55.22031307220459 -25.799999237060547 M55.22031307220459 -25.799999237060547 C55.22031307220459 -25.799999237060547, 55.22031307220459 -25.799999237060547, 55.22031307220459 -25.799999237060547 M55.22031307220459 -25.799999237060547 C55.778548871523945 -25.78209770151644, 56.3367846708433 -25.764196165972336, 56.873324698825286 -25.746990371586765 M55.22031307220459 -25.799999237060547 C55.56027382492671 -25.78909735741421, 55.90023457764884 -25.778195477767877, 56.873324698825286 -25.746990371586765 M56.873324698825286 -25.746990371586765 C57.50884360327354 -25.68568262719795, 58.144362507721794 -25.624374882809132, 58.51954374610231 -25.58818159996402 M56.873324698825286 -25.746990371586765 C57.21446283987419 -25.714081185398417, 57.55560098092309 -25.681171999210072, 58.51954374610231 -25.58818159996402 M58.51954374610231 -25.58818159996402 C58.96883504708846 -25.515543666726657, 59.41812634807461 -25.442905733489294, 60.15220554685753 -25.32422550149928 M58.51954374610231 -25.58818159996402 C59.046230415037705 -25.503030983846667, 59.5729170839731 -25.41788036772931, 60.15220554685753 -25.32422550149928 M60.15220554685753 -25.32422550149928 C60.59139983747772 -25.223982270675812, 61.03059412809791 -25.123739039852342, 61.764601143546784 -24.956206728419545 M60.15220554685753 -25.32422550149928 C60.78052621401453 -25.18081540939623, 61.408846881171534 -25.037405317293178, 61.764601143546784 -24.956206728419545 M61.764601143546784 -24.956206728419545 C62.34401547993416 -24.78423959478769, 62.92342981632153 -24.612272461155836, 63.350104856805515 -24.48563754880318 M61.764601143546784 -24.956206728419545 C62.316364811387146 -24.79244616807112, 62.868128479227515 -24.628685607722698, 63.350104856805515 -24.48563754880318 M63.350104856805515 -24.48563754880318 C63.73589601268082 -24.343662837226717, 64.12168716855612 -24.201688125650254, 64.90220151178644 -23.914451632345997 M63.350104856805515 -24.48563754880318 C63.82602299061131 -24.310495276223648, 64.3019411244171 -24.135353003644113, 64.90220151178644 -23.914451632345997 M64.90220151178644 -23.914451632345997 C65.47346098401593 -23.661572009800164, 66.04472045624541 -23.408692387254327, 66.41451321041056 -23.24499610449772 M64.90220151178644 -23.914451632345997 C65.49265988569294 -23.65307322554293, 66.08311825959944 -23.391694818739865, 66.41451321041056 -23.24499610449772 M66.41451321041056 -23.24499610449772 C66.87074807897588 -23.006978665799572, 67.3269829475412 -22.76896122710143, 67.8808255395184 -22.480021901620034 M66.41451321041056 -23.24499610449772 C66.915699532268 -22.983527521409858, 67.41688585412543 -22.722058938321997, 67.8808255395184 -22.480021901620034 M67.8808255395184 -22.480021901620034 C68.21776871236933 -22.275764970139925, 68.55471188522027 -22.071508038659815, 69.29511310722664 -21.62267246679901 M67.8808255395184 -22.480021901620034 C68.3386037659133 -22.202514050575978, 68.7963819923082 -21.92500619953192, 69.29511310722664 -21.62267246679901 M69.29511310722664 -21.62267246679901 C69.70201160734531 -21.3388376874684, 70.108910107464 -21.055002908137787, 70.65156430255584 -20.67647083276321 M69.29511310722664 -21.62267246679901 C69.81244245620147 -21.26180590778075, 70.32977180517628 -20.900939348762495, 70.65156430255584 -20.67647083276321 M70.65156430255584 -20.67647083276321 C70.98595094157128 -20.40980638655057, 71.32033758058672 -20.143141940337927, 71.9446051765865 -19.64530514498651 M70.65156430255584 -20.67647083276321 C71.10424537222345 -20.315469726052473, 71.55692644189105 -19.954468619341736, 71.9446051765865 -19.64530514498651 M71.9446051765865 -19.64530514498651 C72.42406865294333 -19.209869101667653, 72.90353212930017 -18.7744330583488, 73.16892234701088 -18.533412684464313 M71.9446051765865 -19.64530514498651 C72.19938693724922 -19.41391909110862, 72.45416869791192 -19.18253303723073, 73.16892234701088 -18.533412684464313 M73.16892234701088 -18.533412684464313 C73.40217355853305 -18.29256165828706, 73.63542477005521 -18.05171063210981, 74.31948483196044 -17.345362455817106 M73.16892234701088 -18.533412684464313 C73.48302570797291 -18.209075175905472, 73.79712906893496 -17.884737667346627, 74.31948483196044 -17.345362455817106 M74.31948483196044 -17.345362455817106 C74.55465864465577 -17.06911391365614, 74.7898324573511 -16.792865371495168, 75.39156472338968 -16.086036412270357 M74.31948483196044 -17.345362455817106 C74.72751310954821 -16.866069223495796, 75.13554138713597 -16.386775991174485, 75.39156472338968 -16.086036412270357 M75.39156472338968 -16.086036412270357 C75.61080186684356 -15.792278612956805, 75.83003901029744 -15.498520813643252, 76.38075661506427 -14.76060939466161 M75.39156472338968 -16.086036412270357 C75.77606482516973 -15.570841304564974, 76.16056492694976 -15.055646196859593, 76.38075661506427 -14.76060939466161 M76.38075661506427 -14.76060939466161 C76.58377921473915 -14.448712162359564, 76.78680181441405 -14.136814930057518, 77.28299570532036 -13.374527866909407 M76.38075661506427 -14.76060939466161 C76.69076933086802 -14.284346613116746, 77.00078204667177 -13.808083831571883, 77.28299570532036 -13.374527866909407 M77.28299570532036 -13.374527866909407 C77.53413038337271 -12.92861281588375, 77.78526506142508 -12.482697764858091, 78.0945745002064 -11.93348753532484 M77.28299570532036 -13.374527866909407 C77.4516629112811 -13.075042163319479, 77.62033011724185 -12.775556459729549, 78.0945745002064 -11.93348753532484 M78.0945745002064 -11.93348753532484 C78.25343354269546 -11.603613334557336, 78.4122925851845 -11.273739133789832, 78.81215804837109 -10.443409943732584 M78.0945745002064 -11.93348753532484 C78.371087220684 -11.359302954828697, 78.64759994116159 -10.785118374332555, 78.81215804837109 -10.443409943732584 M78.81215804837109 -10.443409943732584 C79.01684778527927 -9.937822336162533, 79.22153752218745 -9.43223472859248, 79.43279764509381 -8.910418140577123 M78.81215804837109 -10.443409943732584 C78.96019571404183 -10.077754047412279, 79.10823337971257 -9.712098151091974, 79.43279764509381 -8.910418140577123 M79.43279764509381 -8.910418140577123 C79.59935950898279 -8.408760344572615, 79.76592137287176 -7.9071025485681075, 79.9539429491449 -7.340811518003323 M79.43279764509381 -8.910418140577123 C79.57546969836635 -8.480712647824928, 79.71814175163887 -8.051007155072734, 79.9539429491449 -7.340811518003323 M79.9539429491449 -7.340811518003323 C80.0495754693083 -6.976123271223892, 80.14520798947169 -6.61143502444446, 80.37345246268467 -5.741039926302914 M79.9539429491449 -7.340811518003323 C80.07995822071412 -6.860260672145703, 80.20597349228335 -6.3797098262880825, 80.37345246268467 -5.741039926302914 M80.37345246268467 -5.741039926302914 C80.4936684483493 -5.123756247572635, 80.61388443401393 -4.506472568842354, 80.68960233113748 -4.117677170096137 M80.37345246268467 -5.741039926302914 C80.46831702425804 -5.2539304522558465, 80.56318158583142 -4.76682097820878, 80.68960233113748 -4.117677170096137 M80.68960233113748 -4.117677170096137 C80.74439453162792 -3.6927196830360987, 80.79918673211836 -3.2677621959760605, 80.90109342687991 -2.4773939951584394 M80.68960233113748 -4.117677170096137 C80.76049277088443 -3.567864918319528, 80.83138321063137 -3.018052666542919, 80.90109342687991 -2.4773939951584394 M80.90109342687991 -2.4773939951584394 C80.93581961354286 -1.9365056074095235, 80.97054580020583 -1.3956172196606076, 81.00705668763487 -0.8269306768952902 M80.90109342687991 -2.4773939951584394 C80.93195329242359 -1.9967266796805103, 80.96281315796728 -1.516059364202581, 81.00705668763487 -0.8269306768952902 M81.00705668763487 -0.8269306768952902 C81.00705668763487 -0.41662178906146363, 81.00705668763487 -0.006312901227637058, 81.00705668763487 0.826930676895284 M81.00705668763487 -0.8269306768952902 C81.00705668763487 -0.2441307014884846, 81.00705668763487 0.338669273918321, 81.00705668763487 0.826930676895284 M81.00705668763487 0.826930676895284 C80.97458404068594 1.332718364573696, 80.94211139373701 1.8385060522521077, 80.90109342687991 2.4773939951584216 M81.00705668763487 0.826930676895284 C80.97067602318546 1.3935888916386876, 80.93429535873605 1.9602471063820912, 80.90109342687991 2.4773939951584216 M80.90109342687991 2.4773939951584216 C80.82980490104352 3.0302937240338164, 80.75851637520712 3.583193452909211, 80.68960233113748 4.117677170096119 M80.90109342687991 2.4773939951584216 C80.85250388227423 2.8542449080291905, 80.80391433766856 3.2310958208999594, 80.68960233113748 4.117677170096119 M80.68960233113748 4.117677170096119 C80.60537492588898 4.550167094578742, 80.52114752064048 4.982657019061366, 80.37345246268467 5.741039926302909 M80.68960233113748 4.117677170096119 C80.60979352170723 4.527478538922582, 80.52998471227698 4.937279907749043, 80.37345246268467 5.741039926302909 M80.37345246268467 5.741039926302909 C80.23449985933526 6.270926425313455, 80.09554725598585 6.800812924324001, 79.9539429491449 7.340811518003306 M80.37345246268467 5.741039926302909 C80.28094881487824 6.093796426723374, 80.18844516707182 6.4465529271438395, 79.9539429491449 7.340811518003306 M79.9539429491449 7.340811518003306 C79.76977441942043 7.895497786263114, 79.58560588969596 8.450184054522923, 79.43279764509383 8.910418140577105 M79.9539429491449 7.340811518003306 C79.78379695705472 7.853264137096595, 79.61365096496453 8.365716756189885, 79.43279764509383 8.910418140577105 M79.43279764509383 8.910418140577105 C79.19467574613552 9.498583834777849, 78.95655384717722 10.086749528978592, 78.81215804837109 10.443409943732577 M79.43279764509383 8.910418140577105 C79.28900511285175 9.265588475254523, 79.14521258060968 9.620758809931939, 78.81215804837109 10.443409943732577 M78.81215804837109 10.443409943732577 C78.66784722110675 10.74307446430402, 78.52353639384242 11.042738984875461, 78.0945745002064 11.933487535324835 M78.81215804837109 10.443409943732577 C78.5472551703906 10.993486437872653, 78.28235229241011 11.543562932012728, 78.0945745002064 11.933487535324835 M78.0945745002064 11.933487535324835 C77.85356793791867 12.361419091227487, 77.61256137563093 12.78935064713014, 77.28299570532037 13.374527866909402 M78.0945745002064 11.933487535324835 C77.86213169631777 12.346213271015309, 77.62968889242913 12.758939006705782, 77.28299570532037 13.374527866909402 M77.28299570532037 13.374527866909402 C77.03533729934858 13.754997684075736, 76.78767889337679 14.135467501242072, 76.38075661506429 14.760609394661596 M77.28299570532037 13.374527866909402 C77.008727309842 13.795877773740534, 76.73445891436363 14.217227680571664, 76.38075661506429 14.760609394661596 M76.38075661506429 14.760609394661596 C76.10797243559598 15.126115343999144, 75.83518825612767 15.491621293336694, 75.39156472338968 16.086036412270353 M76.38075661506429 14.760609394661596 C76.15289269805227 15.065926284627807, 75.92502878104025 15.371243174594015, 75.39156472338968 16.086036412270353 M75.39156472338968 16.086036412270353 C74.97451675443708 16.57592468730378, 74.55746878548447 17.06581296233721, 74.31948483196045 17.345362455817092 M75.39156472338968 16.086036412270353 C75.04735768199116 16.490361589032556, 74.70315064059264 16.89468676579476, 74.31948483196045 17.345362455817092 M74.31948483196045 17.345362455817092 C73.9531988569735 17.723582797628932, 73.58691288198656 18.101803139440772, 73.16892234701088 18.533412684464306 M74.31948483196045 17.345362455817092 C73.99489387181612 17.68052927157955, 73.6703029116718 18.01569608734201, 73.16892234701088 18.533412684464306 M73.16892234701088 18.533412684464306 C72.69595661568901 18.962947647663324, 72.22299088436714 19.392482610862345, 71.94460517658653 19.64530514498649 M73.16892234701088 18.533412684464306 C72.78099316862442 18.885719700231284, 72.39306399023796 19.238026715998263, 71.94460517658653 19.64530514498649 M71.94460517658653 19.64530514498649 C71.63149589180537 19.895001467411472, 71.31838660702421 20.14469778983645, 70.65156430255584 20.676470832763208 M71.94460517658653 19.64530514498649 C71.57453834966265 19.940423591566443, 71.20447152273876 20.235542038146395, 70.65156430255584 20.676470832763208 M70.65156430255584 20.676470832763208 C70.31541155676206 20.91095643641112, 69.97925881096828 21.14544204005903, 69.29511310722665 21.622672466799003 M70.65156430255584 20.676470832763208 C70.18310838734786 21.003245400082577, 69.71465247213986 21.33001996740194, 69.29511310722665 21.622672466799003 M69.29511310722665 21.622672466799003 C68.75892059491643 21.947715518778423, 68.22272808260621 22.27275857075784, 67.88082553951841 22.48002190162003 M69.29511310722665 21.622672466799003 C68.84144459560339 21.897688984597128, 68.38777608398013 22.172705502395253, 67.88082553951841 22.48002190162003 M67.88082553951841 22.48002190162003 C67.43770287675704 22.711198710949024, 66.99458021399569 22.942375520278013, 66.41451321041058 23.244996104497716 M67.88082553951841 22.48002190162003 C67.42863524479965 22.715929288733097, 66.9764449500809 22.951836675846163, 66.41451321041058 23.244996104497716 M66.41451321041058 23.244996104497716 C66.10674505350133 23.38123593794344, 65.79897689659208 23.517475771389165, 64.90220151178644 23.914451632345994 M66.41451321041058 23.244996104497716 C66.00058211195534 23.42823112295408, 65.5866510135001 23.611466141410443, 64.90220151178644 23.914451632345994 M64.90220151178644 23.914451632345994 C64.42443778646582 24.09027309966345, 63.946674061145195 24.266094566980904, 63.35010485680553 24.485637548803172 M64.90220151178644 23.914451632345994 C64.54793669977109 24.04482435795567, 64.19367188775573 24.175197083565344, 63.35010485680553 24.485637548803172 M63.35010485680553 24.485637548803172 C62.90754050768062 24.616988324555773, 62.464976158555714 24.74833910030837, 61.76460114354681 24.95620672841954 M63.35010485680553 24.485637548803172 C62.81589633388547 24.64418783428809, 62.28168781096541 24.802738119773004, 61.76460114354681 24.95620672841954 M61.76460114354681 24.95620672841954 C61.23083719404162 25.078034866758816, 60.69707324453642 25.19986300509809, 60.152205546857545 25.324225501499278 M61.76460114354681 24.95620672841954 C61.226867461488354 25.078940932309173, 60.6891337794299 25.2016751361988, 60.152205546857545 25.324225501499278 M60.152205546857545 25.324225501499278 C59.63543587237256 25.40777281486133, 59.11866619788757 25.491320128223386, 58.51954374610233 25.588181599964017 M60.152205546857545 25.324225501499278 C59.636196867695965 25.407649783039048, 59.120188188534385 25.49107406457882, 58.51954374610233 25.588181599964017 M58.51954374610233 25.588181599964017 C58.08456801876281 25.63014318524561, 57.649592291423296 25.672104770527206, 56.873324698825286 25.746990371586765 M58.51954374610233 25.588181599964017 C58.014472977929444 25.636905169533186, 57.50940220975656 25.685628739102356, 56.873324698825286 25.746990371586765 M56.873324698825286 25.746990371586765 C56.53163184491551 25.75794779634686, 56.189938991005725 25.76890522110695, 55.2203130722046 25.799999237060547 M56.873324698825286 25.746990371586765 C56.4813752244425 25.75955942834685, 56.08942575005972 25.772128485106936, 55.2203130722046 25.799999237060547 M55.2203130722046 25.799999237060547 C55.2203130722046 25.799999237060547, 55.22031307220459 25.799999237060547, 55.22031307220459 25.799999237060547 M55.2203130722046 25.799999237060547 C55.2203130722046 25.799999237060547, 55.2203130722046 25.799999237060547, 55.22031307220459 25.799999237060547 M55.22031307220459 25.799999237060547 C16.65519700026755 25.799999237060547, -21.909919071669492 25.799999237060547, -55.22031307220458 25.799999237060547 M55.22031307220459 25.799999237060547 C13.667059032387655 25.799999237060547, -27.88619500742928 25.799999237060547, -55.22031307220458 25.799999237060547 M-55.22031307220458 25.799999237060547 C-55.602350582009215 25.787748037712014, -55.984388091813855 25.77549683836348, -56.87332469882527 25.746990371586765 M-55.22031307220458 25.799999237060547 C-55.62613662212388 25.786985265702256, -56.03196017204318 25.773971294343962, -56.87332469882527 25.746990371586765 M-56.87332469882527 25.746990371586765 C-57.282715688066425 25.70749691521937, -57.69210667730758 25.668003458851977, -58.519543746102315 25.588181599964017 M-56.87332469882527 25.746990371586765 C-57.3911660738779 25.69703483693081, -57.909007448930524 25.647079302274854, -58.519543746102315 25.588181599964017 M-58.519543746102315 25.588181599964017 C-59.08938101707986 25.496054729146405, -59.6592182880574 25.403927858328792, -60.15220554685753 25.324225501499278 M-58.519543746102315 25.588181599964017 C-58.878067101784005 25.53021832420755, -59.23659045746569 25.472255048451082, -60.15220554685753 25.324225501499278 M-60.15220554685753 25.324225501499278 C-60.53588192841061 25.236653871132162, -60.91955830996368 25.149082240765047, -61.764601143546784 24.956206728419545 M-60.15220554685753 25.324225501499278 C-60.62605318601443 25.216072870006535, -61.09990082517134 25.107920238513795, -61.764601143546784 24.956206728419545 M-61.764601143546784 24.956206728419545 C-62.14760421268753 24.842533427922707, -62.53060728182829 24.728860127425868, -63.3501048568055 24.485637548803183 M-61.764601143546784 24.956206728419545 C-62.2536253680335 24.811066905532424, -62.74264959252021 24.665927082645307, -63.3501048568055 24.485637548803183 M-63.3501048568055 24.485637548803183 C-63.67618723066129 24.36563622095183, -64.00226960451708 24.24563489310048, -64.90220151178644 23.914451632345997 M-63.3501048568055 24.485637548803183 C-63.667258835006685 24.36892195308591, -63.984412813207875 24.25220635736864, -64.90220151178644 23.914451632345997 M-64.90220151178644 23.914451632345997 C-65.30654837928832 23.735459268626578, -65.71089524679019 23.556466904907158, -66.41451321041056 23.244996104497723 M-64.90220151178644 23.914451632345997 C-65.26486504919744 23.753911242365753, -65.62752858660845 23.593370852385508, -66.41451321041056 23.244996104497723 M-66.41451321041056 23.244996104497723 C-66.73221148133347 23.0792531200527, -67.04990975225635 22.91351013560768, -67.8808255395184 22.480021901620038 M-66.41451321041056 23.244996104497723 C-66.8576286735826 23.01382305118987, -67.30074413675464 22.782649997882018, -67.8808255395184 22.480021901620038 M-67.8808255395184 22.480021901620038 C-68.22753073831916 22.269847172641107, -68.57423593711992 22.05967244366218, -69.29511310722663 21.622672466799017 M-67.8808255395184 22.480021901620038 C-68.249593038888 22.256472876383814, -68.61836053825759 22.032923851147586, -69.29511310722663 21.622672466799017 M-69.29511310722663 21.622672466799017 C-69.66768687209012 21.362781136888586, -70.0402606369536 21.102889806978155, -70.65156430255584 20.67647083276321 M-69.29511310722663 21.622672466799017 C-69.81485591593106 21.260122382750367, -70.3345987246355 20.89757229870172, -70.65156430255584 20.67647083276321 M-70.65156430255584 20.67647083276321 C-70.93307203492147 20.451975907436996, -71.21457976728709 20.227480982110777, -71.9446051765865 19.645305144986512 M-70.65156430255584 20.67647083276321 C-71.01654336220817 20.38540974519116, -71.38152242186048 20.09434865761911, -71.9446051765865 19.645305144986512 M-71.9446051765865 19.645305144986512 C-72.32795390324873 19.297157974283376, -72.71130262991096 18.94901080358024, -73.16892234701086 18.533412684464324 M-71.9446051765865 19.645305144986512 C-72.24740512299572 19.370310245305227, -72.55020506940492 19.095315345623938, -73.16892234701086 18.533412684464324 M-73.16892234701086 18.533412684464324 C-73.44222924532995 18.251200873036204, -73.71553614364905 17.968989061608085, -74.31948483196044 17.3453624558171 M-73.16892234701086 18.533412684464324 C-73.57596963998586 18.11310293526338, -73.98301693296084 17.69279318606244, -74.31948483196044 17.3453624558171 M-74.31948483196044 17.3453624558171 C-74.64606850172052 16.961738694179658, -74.9726521714806 16.578114932542217, -75.39156472338968 16.08603641227036 M-74.31948483196044 17.3453624558171 C-74.53580273952433 17.091263132754918, -74.75212064708822 16.837163809692736, -75.39156472338968 16.08603641227036 M-75.39156472338968 16.08603641227036 C-75.71516209355234 15.652445416579285, -76.038759463715 15.21885442088821, -76.38075661506427 14.760609394661614 M-75.39156472338968 16.08603641227036 C-75.77033349182238 15.578520769115192, -76.1491022602551 15.071005125960024, -76.38075661506427 14.760609394661614 M-76.38075661506427 14.760609394661614 C-76.56227759115374 14.481744430181127, -76.74379856724322 14.20287946570064, -77.28299570532036 13.374527866909418 M-76.38075661506427 14.760609394661614 C-76.72147508059986 14.237174335880356, -77.06219354613543 13.713739277099098, -77.28299570532036 13.374527866909418 M-77.28299570532036 13.374527866909418 C-77.49140978635384 13.004467561820302, -77.69982386738732 12.634407256731187, -78.09457450020639 11.933487535324842 M-77.28299570532036 13.374527866909418 C-77.50903519981108 12.973171855460334, -77.73507469430179 12.571815844011253, -78.09457450020639 11.933487535324842 M-78.09457450020639 11.933487535324842 C-78.26037607083262 11.589197026334174, -78.42617764145886 11.244906517343505, -78.81215804837109 10.443409943732586 M-78.09457450020639 11.933487535324842 C-78.27366950349436 11.561592928978202, -78.45276450678232 11.18969832263156, -78.81215804837109 10.443409943732586 M-78.81215804837109 10.443409943732586 C-78.96097287308599 10.075834449547873, -79.10978769780088 9.708258955363162, -79.43279764509381 8.910418140577127 M-78.81215804837109 10.443409943732586 C-78.99163870574446 10.000089249997894, -79.17111936311784 9.5567685562632, -79.43279764509381 8.910418140577127 M-79.43279764509381 8.910418140577127 C-79.58852459278543 8.441393385849592, -79.74425154047705 7.972368631122059, -79.9539429491449 7.340811518003316 M-79.43279764509381 8.910418140577127 C-79.54695719140277 8.56658777594818, -79.66111673771171 8.222757411319234, -79.9539429491449 7.340811518003316 M-79.9539429491449 7.340811518003316 C-80.04880493183997 6.979061664543653, -80.14366691453503 6.617311811083989, -80.37345246268467 5.741039926302918 M-79.9539429491449 7.340811518003316 C-80.09586881974371 6.79958666234862, -80.23779469034254 6.258361806693923, -80.37345246268467 5.741039926302918 M-80.37345246268467 5.741039926302918 C-80.48311772298948 5.177931992398744, -80.59278298329427 4.614824058494569, -80.68960233113748 4.117677170096139 M-80.37345246268467 5.741039926302918 C-80.44714451976073 5.362646788039157, -80.52083657683679 4.984253649775397, -80.68960233113748 4.117677170096139 M-80.68960233113748 4.117677170096139 C-80.74938197111844 3.654038087228892, -80.80916161109941 3.190399004361645, -80.90109342687991 2.477393995158454 M-80.68960233113748 4.117677170096139 C-80.75383327779454 3.6195146316589826, -80.81806422445162 3.121352093221826, -80.90109342687991 2.477393995158454 M-80.90109342687991 2.477393995158454 C-80.93816505948601 1.8999733936351402, -80.97523669209211 1.3225527921118263, -81.00705668763487 0.8269306768952934 M-80.90109342687991 2.477393995158454 C-80.92477930158505 2.108467377731981, -80.94846517629018 1.7395407603055075, -81.00705668763487 0.8269306768952934 M-81.00705668763487 0.8269306768952934 C-81.00705668763487 0.38144907075654017, -81.00705668763487 -0.0640325353822131, -81.00705668763487 -0.8269306768952809 M-81.00705668763487 0.8269306768952934 C-81.00705668763487 0.4841846867152535, -81.00705668763487 0.14143869653521357, -81.00705668763487 -0.8269306768952809 M-81.00705668763487 -0.8269306768952809 C-80.96631735753708 -1.4614786273637033, -80.9255780274393 -2.0960265778321254, -80.90109342687991 -2.4773939951584185 M-81.00705668763487 -0.8269306768952809 C-80.97938440703899 -1.257948783838893, -80.95171212644313 -1.688966890782505, -80.90109342687991 -2.4773939951584185 M-80.90109342687991 -2.4773939951584185 C-80.84689918271116 -2.8977138510673752, -80.79270493854239 -3.3180337069763324, -80.68960233113748 -4.117677170096128 M-80.90109342687991 -2.4773939951584185 C-80.85197981123267 -2.8583094995380858, -80.80286619558542 -3.239225003917753, -80.68960233113748 -4.117677170096128 M-80.68960233113748 -4.117677170096128 C-80.58900596255205 -4.634218261732242, -80.48840959396662 -5.150759353368356, -80.37345246268467 -5.741039926302906 M-80.68960233113748 -4.117677170096128 C-80.58681434481984 -4.645471755588599, -80.48402635850219 -5.173266341081071, -80.37345246268467 -5.741039926302906 M-80.37345246268467 -5.741039926302906 C-80.28177074914622 -6.090662035130995, -80.19008903560778 -6.440284143959085, -79.9539429491449 -7.340811518003303 M-80.37345246268467 -5.741039926302906 C-80.27132174488968 -6.1305086169882825, -80.1691910270947 -6.519977307673659, -79.9539429491449 -7.340811518003303 M-79.9539429491449 -7.340811518003303 C-79.82691797148509 -7.723390512032941, -79.69989299382527 -8.105969506062578, -79.43279764509383 -8.910418140577093 M-79.9539429491449 -7.340811518003303 C-79.77295653400967 -7.88591376412143, -79.59197011887443 -8.431016010239556, -79.43279764509383 -8.910418140577093 M-79.43279764509383 -8.910418140577093 C-79.22667590798845 -9.41954281632008, -79.02055417088306 -9.928667492063067, -78.81215804837109 -10.443409943732574 M-79.43279764509383 -8.910418140577093 C-79.20304479273625 -9.477912127869523, -78.97329194037867 -10.045406115161953, -78.81215804837109 -10.443409943732574 M-78.81215804837109 -10.443409943732574 C-78.58701976163883 -10.91091441331976, -78.36188147490655 -11.378418882906947, -78.0945745002064 -11.933487535324831 M-78.81215804837109 -10.443409943732574 C-78.60247699912313 -10.878817128951702, -78.39279594987516 -11.314224314170831, -78.0945745002064 -11.933487535324831 M-78.0945745002064 -11.933487535324831 C-77.78189626832507 -12.488679398134435, -77.46921803644373 -13.04387126094404, -77.28299570532036 -13.374527866909409 M-78.0945745002064 -11.933487535324831 C-77.90426513049945 -12.271401092152876, -77.7139557607925 -12.60931464898092, -77.28299570532036 -13.374527866909409 M-77.28299570532036 -13.374527866909409 C-77.05988459742726 -13.717286442354398, -76.83677348953415 -14.060045017799387, -76.38075661506429 -14.760609394661605 M-77.28299570532036 -13.374527866909409 C-76.97752175641101 -13.843817883674909, -76.67204780750167 -14.313107900440409, -76.38075661506429 -14.760609394661605 M-76.38075661506429 -14.760609394661605 C-76.06209109880767 -15.18759215541971, -75.74342558255105 -15.614574916177814, -75.39156472338968 -16.086036412270353 M-76.38075661506429 -14.760609394661605 C-76.14078556757114 -15.082148736490247, -75.900814520078 -15.40368807831889, -75.39156472338968 -16.086036412270353 M-75.39156472338968 -16.086036412270353 C-75.14370117237134 -16.3771910431321, -74.89583762135298 -16.668345673993848, -74.31948483196045 -17.345362455817092 M-75.39156472338968 -16.086036412270353 C-75.0708269254871 -16.462793280184435, -74.75008912758453 -16.83955014809852, -74.31948483196045 -17.345362455817092 M-74.31948483196045 -17.345362455817092 C-74.04879225333613 -17.62487476752072, -73.77809967471183 -17.904387079224346, -73.16892234701089 -18.5334126844643 M-74.31948483196045 -17.345362455817092 C-74.04402255228176 -17.629799875459096, -73.76856027260308 -17.9142372951011, -73.16892234701089 -18.5334126844643 M-73.16892234701089 -18.5334126844643 C-72.91561002785068 -18.76346423044892, -72.66229770869045 -18.99351577643354, -71.94460517658653 -19.645305144986487 M-73.16892234701089 -18.5334126844643 C-72.77196602480441 -18.89391791340348, -72.37500970259792 -19.254423142342663, -71.94460517658653 -19.645305144986487 M-71.94460517658653 -19.645305144986487 C-71.55145586400087 -19.95883125963097, -71.1583065514152 -20.272357374275455, -70.65156430255585 -20.676470832763204 M-71.94460517658653 -19.645305144986487 C-71.64078283807557 -19.88759537489701, -71.3369604995646 -20.12988560480753, -70.65156430255585 -20.676470832763204 M-70.65156430255585 -20.676470832763204 C-70.28492652036226 -20.93222147812767, -69.91828873816866 -21.187972123492134, -69.29511310722665 -21.622672466799 M-70.65156430255585 -20.676470832763204 C-70.30969782265718 -20.91494208997912, -69.96783134275852 -21.153413347195038, -69.29511310722665 -21.622672466799 M-69.29511310722665 -21.622672466799 C-68.88938179874827 -21.868629170340423, -68.48365049026988 -22.11458587388185, -67.88082553951841 -22.480021901620027 M-69.29511310722665 -21.622672466799 C-68.7881252529581 -21.930011483447938, -68.28113739868954 -22.23735050009688, -67.88082553951841 -22.480021901620027 M-67.88082553951841 -22.480021901620027 C-67.52283649888837 -22.6667845548138, -67.16484745825832 -22.85354720800757, -66.41451321041058 -23.244996104497716 M-67.88082553951841 -22.480021901620027 C-67.39137718788066 -22.73536679316281, -66.9019288362429 -22.990711684705595, -66.41451321041058 -23.244996104497716 M-66.41451321041058 -23.244996104497716 C-65.95164534113184 -23.449893979739915, -65.4887774718531 -23.65479185498212, -64.90220151178646 -23.91445163234599 M-66.41451321041058 -23.244996104497716 C-66.0025026963402 -23.427380937219016, -65.59049218226981 -23.609765769940317, -64.90220151178646 -23.91445163234599 M-64.90220151178646 -23.91445163234599 C-64.31323199094496 -24.131197860390234, -63.72426247010345 -24.347944088434478, -63.35010485680553 -24.485637548803172 M-64.90220151178646 -23.91445163234599 C-64.33950648456502 -24.12152860385929, -63.77681145734359 -24.32860557537259, -63.35010485680553 -24.485637548803172 M-63.35010485680553 -24.485637548803172 C-62.906592724274894 -24.617269621695577, -62.46308059174426 -24.74890169458798, -61.76460114354682 -24.956206728419538 M-63.35010485680553 -24.485637548803172 C-62.7947286404664 -24.65047029458338, -62.23935242412727 -24.815303040363585, -61.76460114354682 -24.956206728419538 M-61.76460114354682 -24.956206728419538 C-61.20320399841635 -25.08434196333683, -60.64180685328587 -25.21247719825412, -60.152205546857545 -25.324225501499278 M-61.76460114354682 -24.956206728419538 C-61.16032984841419 -25.094127708294845, -60.55605855328156 -25.232048688170153, -60.152205546857545 -25.324225501499278 M-60.152205546857545 -25.324225501499278 C-59.50216216037464 -25.429319475064084, -58.852118773891725 -25.534413448628886, -58.51954374610233 -25.588181599964017 M-60.152205546857545 -25.324225501499278 C-59.53166337253511 -25.424549947867295, -58.91112119821266 -25.52487439423531, -58.51954374610233 -25.588181599964017 M-58.51954374610233 -25.588181599964017 C-58.04379763622876 -25.634076255015113, -57.56805152635519 -25.679970910066206, -56.873324698825286 -25.746990371586765 M-58.51954374610233 -25.588181599964017 C-58.09137698522492 -25.629486332439992, -57.6632102243475 -25.670791064915967, -56.873324698825286 -25.746990371586765 M-56.873324698825286 -25.746990371586765 C-56.507463765515375 -25.75872281961291, -56.14160283220546 -25.77045526763905, -55.2203130722046 -25.799999237060547 M-56.873324698825286 -25.746990371586765 C-56.36254249733377 -25.763370162611356, -55.85176029584226 -25.779749953635946, -55.2203130722046 -25.799999237060547 M-55.2203130722046 -25.799999237060547 C-55.2203130722046 -25.799999237060547, -55.22031307220459 -25.799999237060547, -55.22031307220459 -25.799999237060547 M-55.2203130722046 -25.799999237060547 C-55.2203130722046 -25.799999237060547, -55.22031307220459 -25.799999237060547, -55.22031307220459 -25.799999237060547" stroke="#9370DB" stroke-width="1.3" fill="none" stroke-dasharray="0 0" style=""></path></g><g class="label" style="" transform="translate(0, -18.299999237060547)"><rect></rect><g><rect class="background" style="stroke: none"></rect><text y="-10.1" style=""><tspan class="text-outer-tspan row" x="0" y="-0.1em" dy="1.1em"><tspan font-style="normal" class="text-inner-tspan" font-weight="normal">Query</tspan><tspan font-style="normal" class="text-inner-tspan" font-weight="normal"> with</tspan><tspan font-style="normal" class="text-inner-tspan" font-weight="normal"> WHERE</tspan></tspan><tspan class="text-outer-tspan row" x="0" y="1em" dy="1.1em"><tspan font-style="normal" class="text-inner-tspan" font-weight="normal">predicate</tspan></tspan></text></g></g></g><g class="node default" id="g6ff065f8-b5ee-4bec-a05e-328913cdfaa9-light-flowchart-Q1-1" data-look="classic" transform="translate(893.9664077758789, 225.0640640258789)"><polygon points="115.46406173706055,0 230.9281234741211,-115.46406173706055 115.46406173706055,-230.9281234741211 0,-115.46406173706055" class="label-container" transform="translate(-114.96406173706055, 115.46406173706055)"></polygon><g class="label" style="" transform="translate(0, -18.299999237060547)"><rect></rect><g><rect class="background" style="stroke: none"></rect><text y="-10.1" style=""><tspan class="text-outer-tspan row" x="0" y="-0.1em" dy="1.1em"><tspan font-style="normal" class="text-inner-tspan" font-weight="normal">Stats</tspan><tspan font-style="normal" class="text-inner-tspan" font-weight="normal"> fresh?</tspan></tspan><tspan class="text-outer-tspan row" x="0" y="1em" dy="1.1em"><tspan font-style="normal" class="text-inner-tspan" font-weight="normal">(autovacuum</tspan><tspan font-style="normal" class="text-inner-tspan" font-weight="normal"> ANALYZE)</tspan></tspan></text></g></g></g><g class="node default" id="g6ff065f8-b5ee-4bec-a05e-328913cdfaa9-light-flowchart-Q2-2" data-look="classic" transform="translate(789.05078125, 488.98438262939453)"><polygon points="75.45624923706055,0 150.9124984741211,-75.45624923706055 75.45624923706055,-150.9124984741211 0,-75.45624923706055" class="label-container" transform="translate(-74.95624923706055, 75.45624923706055)"></polygon><g class="label" style="" transform="translate(0, -18.299999237060547)"><rect></rect><g><rect class="background" style="stroke: none"></rect><text y="-10.1" style=""><tspan class="text-outer-tspan row" x="0" y="-0.1em" dy="1.1em"><tspan font-style="normal" class="text-inner-tspan" font-weight="normal">Table</tspan><tspan font-style="normal" class="text-inner-tspan" font-weight="normal"> fits</tspan><tspan font-style="normal" class="text-inner-tspan" font-weight="normal"> in</tspan></tspan><tspan class="text-outer-tspan row" x="0" y="1em" dy="1.1em"><tspan font-style="normal" class="text-inner-tspan" font-weight="normal">~1–2</tspan><tspan font-style="normal" class="text-inner-tspan" font-weight="normal"> pages?</tspan></tspan></text></g></g></g><g class="node default" id="g6ff065f8-b5ee-4bec-a05e-328913cdfaa9-light-flowchart-Q3-3" data-look="classic" transform="translate(548.0101547241211, 740.1593856811523)"><polygon points="102.71875,0 205.4375,-102.71875 102.71875,-205.4375 0,-102.71875" class="label-container" transform="translate(-102.21875, 102.71875)"></polygon><g class="label" style="" transform="translate(0, -9.5)"><rect></rect><g><rect class="background" style="stroke: none"></rect><text y="-10.1" style=""><tspan class="text-outer-tspan row" x="0" y="-0.1em" dy="1.1em"><tspan font-style="normal" class="text-inner-tspan" font-weight="normal">Estimated</tspan><tspan font-style="normal" class="text-inner-tspan" font-weight="normal"> selectivity?</tspan></tspan></text></g></g></g><g class="node default" id="g6ff065f8-b5ee-4bec-a05e-328913cdfaa9-light-flowchart-Q4-4" data-look="classic" transform="translate(197.953125, 1019.5531311035156)"><polygon points="93.64374923706055,0 187.2874984741211,-93.64374923706055 93.64374923706055,-187.2874984741211 0,-93.64374923706055" class="label-container" transform="translate(-93.14374923706055, 93.64374923706055)"></polygon><g class="label" style="" transform="translate(0, -18.299999237060547)"><rect></rect><g><rect class="background" style="stroke: none"></rect><text y="-10.1" style=""><tspan class="text-outer-tspan row" x="0" y="-0.1em" dy="1.1em"><tspan font-style="normal" class="text-inner-tspan" font-weight="normal">Index</tspan><tspan font-style="normal" class="text-inner-tspan" font-weight="normal"> covers</tspan><tspan font-style="normal" class="text-inner-tspan" font-weight="normal"> all</tspan></tspan><tspan class="text-outer-tspan row" x="0" y="1em" dy="1.1em"><tspan font-style="normal" class="text-inner-tspan" font-weight="normal">SELECT</tspan><tspan font-style="normal" class="text-inner-tspan" font-weight="normal"> columns?</tspan></tspan></text></g></g></g><g class="node default" id="g6ff065f8-b5ee-4bec-a05e-328913cdfaa9-light-flowchart-Q5-5" data-look="classic" transform="translate(652.92578125, 1019.5531311035156)"><polygon points="103.67499923706055,0 207.3499984741211,-103.67499923706055 103.67499923706055,-207.3499984741211 0,-103.67499923706055" class="label-container" transform="translate(-103.17499923706055, 103.67499923706055)"></polygon><g class="label" style="" transform="translate(0, -18.299999237060547)"><rect></rect><g><rect class="background" style="stroke: none"></rect><text y="-10.1" style=""><tspan class="text-outer-tspan row" x="0" y="-0.1em" dy="1.1em"><tspan font-style="normal" class="text-inner-tspan" font-weight="normal">Physical</tspan><tspan font-style="normal" class="text-inner-tspan" font-weight="normal"> correlation</tspan></tspan><tspan class="text-outer-tspan row" x="0" y="1em" dy="1.1em"><tspan font-style="normal" class="text-inner-tspan" font-weight="normal">≈</tspan><tspan font-style="normal" class="text-inner-tspan" font-weight="normal"> ±1?</tspan></tspan></text></g></g></g><g class="node default" id="g6ff065f8-b5ee-4bec-a05e-328913cdfaa9-light-flowchart-Stale-6" data-look="classic" transform="translate(998.8820343017578, 488.98438262939453)"><rect class="basic label-container" style="" x="-84.375" y="-33.29999923706055" width="168.75" height="66.5999984741211"></rect><g class="label" style="" transform="translate(0, -18.299999237060547)"><rect></rect><g><rect class="background" style="stroke: none"></rect><text y="-10.1" style=""><tspan class="text-outer-tspan row" x="0" y="-0.1em" dy="1.1em"><tspan font-style="normal" class="text-inner-tspan" font-weight="normal">Likely</tspan><tspan font-style="normal" class="text-inner-tspan" font-weight="normal"> bad</tspan><tspan font-style="normal" class="text-inner-tspan" font-weight="normal"> plan</tspan></tspan><tspan class="text-outer-tspan row" x="0" y="1em" dy="1.1em"><tspan font-style="normal" class="text-inner-tspan" font-weight="normal">(run</tspan><tspan font-style="normal" class="text-inner-tspan" font-weight="normal"> ANALYZE)</tspan></tspan></text></g></g></g><g class="node default" id="g6ff065f8-b5ee-4bec-a05e-328913cdfaa9-light-flowchart-Seq-7" data-look="classic" transform="translate(820.2601547241211, 740.1593856811523)"><rect class="basic label-container" style="" x="-119.53125" y="-33.29999923706055" width="239.0625" height="66.5999984741211"></rect><g class="label" style="" transform="translate(0, -18.299999237060547)"><rect></rect><g><rect class="background" style="stroke: none"></rect><text y="-10.1" style=""><tspan class="text-outer-tspan row" x="0" y="-0.1em" dy="1.1em"><tspan font-style="normal" class="text-inner-tspan" font-weight="normal">Seq</tspan><tspan font-style="normal" class="text-inner-tspan" font-weight="normal"> Scan</tspan><tspan font-style="normal" class="text-inner-tspan" font-weight="normal"> —</tspan><tspan font-style="normal" class="text-inner-tspan" font-weight="normal"> cheaper</tspan><tspan font-style="normal" class="text-inner-tspan" font-weight="normal"> than</tspan></tspan><tspan class="text-outer-tspan row" x="0" y="1em" dy="1.1em"><tspan font-style="normal" class="text-inner-tspan" font-weight="normal">any</tspan><tspan font-style="normal" class="text-inner-tspan" font-weight="normal"> index</tspan><tspan font-style="normal" class="text-inner-tspan" font-weight="normal"> walk</tspan></tspan></text></g></g></g><g class="node default" id="g6ff065f8-b5ee-4bec-a05e-328913cdfaa9-light-flowchart-IOS-8" data-look="classic" transform="translate(95.2265625, 1229.5281257629395)"><rect class="basic label-container" style="" x="-87.2265625" y="-24.5" width="174.453125" height="49"></rect><g class="label" style="" transform="translate(0, -9.5)"><rect></rect><g><rect class="background" style="stroke: none"></rect><text y="-10.1" style=""><tspan class="text-outer-tspan row" x="0" y="-0.1em" dy="1.1em"><tspan font-style="normal" class="text-inner-tspan" font-weight="normal">Index-Only</tspan><tspan font-style="normal" class="text-inner-tspan" font-weight="normal"> Scan</tspan></tspan></text></g></g></g><g class="node default" id="g6ff065f8-b5ee-4bec-a05e-328913cdfaa9-light-flowchart-Idx-9" data-look="classic" transform="translate(300.6796875, 1229.5281257629395)"><rect class="basic label-container" style="" x="-68.2265625" y="-24.5" width="136.453125" height="49"></rect><g class="label" style="" transform="translate(0, -9.5)"><rect></rect><g><rect class="background" style="stroke: none"></rect><text y="-10.1" style=""><tspan class="text-outer-tspan row" x="0" y="-0.1em" dy="1.1em"><tspan font-style="normal" class="text-inner-tspan" font-weight="normal">Index</tspan><tspan font-style="normal" class="text-inner-tspan" font-weight="normal"> Scan</tspan></tspan></text></g></g></g><g class="node default" id="g6ff065f8-b5ee-4bec-a05e-328913cdfaa9-light-flowchart-Bmp-10" data-look="classic" transform="translate(909.1242141723633, 1019.5531311035156)"><rect class="basic label-container" style="" x="-102.5234375" y="-33.29999923706055" width="205.046875" height="66.5999984741211"></rect><g class="label" style="" transform="translate(0, -18.299999237060547)"><rect></rect><g><rect class="background" style="stroke: none"></rect><text y="-10.1" style=""><tspan class="text-outer-tspan row" x="0" y="-0.1em" dy="1.1em"><tspan font-style="normal" class="text-inner-tspan" font-weight="normal">Bitmap</tspan><tspan font-style="normal" class="text-inner-tspan" font-weight="normal"> Index</tspan><tspan font-style="normal" class="text-inner-tspan" font-weight="normal"> Scan</tspan><tspan font-style="normal" class="text-inner-tspan" font-weight="normal"> +</tspan></tspan><tspan class="text-outer-tspan row" x="0" y="1em" dy="1.1em"><tspan font-style="normal" class="text-inner-tspan" font-weight="normal">Bitmap</tspan><tspan font-style="normal" class="text-inner-tspan" font-weight="normal"> Heap</tspan><tspan font-style="normal" class="text-inner-tspan" font-weight="normal"> Scan</tspan></tspan></text></g></g></g><g class="node default" id="g6ff065f8-b5ee-4bec-a05e-328913cdfaa9-light-flowchart-SeqHigh-11" data-look="classic" transform="translate(787.28125, 1229.5281257629395)"><rect class="basic label-container" style="" x="-119.046875" y="-33.29999923706055" width="238.09375" height="66.5999984741211"></rect><g class="label" style="" transform="translate(0, -18.299999237060547)"><rect></rect><g><rect class="background" style="stroke: none"></rect><text y="-10.1" style=""><tspan class="text-outer-tspan row" x="0" y="-0.1em" dy="1.1em"><tspan font-style="normal" class="text-inner-tspan" font-weight="normal">Seq</tspan><tspan font-style="normal" class="text-inner-tspan" font-weight="normal"> Scan</tspan><tspan font-style="normal" class="text-inner-tspan" font-weight="normal"> —</tspan><tspan font-style="normal" class="text-inner-tspan" font-weight="normal"> random</tspan><tspan font-style="normal" class="text-inner-tspan" font-weight="normal"> heap</tspan></tspan><tspan class="text-outer-tspan row" x="0" y="1em" dy="1.1em"><tspan font-style="normal" class="text-inner-tspan" font-weight="normal">fetches</tspan><tspan font-style="normal" class="text-inner-tspan" font-weight="normal"> dominate</tspan></tspan></text></g></g></g><g class="node default" id="g6ff065f8-b5ee-4bec-a05e-328913cdfaa9-light-flowchart-SeqCorr-12" data-look="classic" transform="translate(518.5703125, 1229.5281257629395)"><rect class="basic label-container" style="" x="-99.6640625" y="-33.29999923706055" width="199.328125" height="66.5999984741211"></rect><g class="label" style="" transform="translate(0, -18.299999237060547)"><rect></rect><g><rect class="background" style="stroke: none"></rect><text y="-10.1" style=""><tspan class="text-outer-tspan row" x="0" y="-0.1em" dy="1.1em"><tspan font-style="normal" class="text-inner-tspan" font-weight="normal">Seq</tspan><tspan font-style="normal" class="text-inner-tspan" font-weight="normal"> Scan</tspan><tspan font-style="normal" class="text-inner-tspan" font-weight="normal"> +</tspan><tspan font-style="normal" class="text-inner-tspan" font-weight="normal"> filter</tspan><tspan font-style="normal" class="text-inner-tspan" font-weight="normal"> —</tspan></tspan><tspan class="text-outer-tspan row" x="0" y="1em" dy="1.1em"><tspan font-style="normal" class="text-inner-tspan" font-weight="normal">sequential</tspan><tspan font-style="normal" class="text-inner-tspan" font-weight="normal"> I/O</tspan><tspan font-style="normal" class="text-inner-tspan" font-weight="normal"> wins</tspan></tspan></text></g></g></g></g></g></g><defs><filter id="g6ff065f8-b5ee-4bec-a05e-328913cdfaa9-light-drop-shadow" height="130%" width="130%"><feDropShadow dx="4" dy="4" stdDeviation="0" flood-opacity="0.06" flood-color="#000000"></feDropShadow></filter></defs><defs><filter id="g6ff065f8-b5ee-4bec-a05e-328913cdfaa9-light-drop-shadow-small" height="150%" width="150%"><feDropShadow dx="2" dy="2" stdDeviation="0" flood-opacity="0.06" flood-color="#000000"></feDropShadow></filter></defs></svg>