<svg id="g33eeac9a-f89d-4e31-9b7a-1f89f5dc8c2d-flip" width="100%" xmlns="http://www.w3.org/2000/svg" xmlns:xlink="http://www.w3.org/1999/xlink" class="flowchart" style="max-width: 462.8984375px;" viewBox="0 0 462.8984375 1542.2874755859375" role="graphics-document document" aria-roledescription="flowchart-v2"><style>#g33eeac9a-f89d-4e31-9b7a-1f89f5dc8c2d-flip{font-family:"trebuchet ms",verdana,arial,sans-serif;font-size:16px;fill:#333;}@keyframes edge-animation-frame{from{stroke-dashoffset:0;}}@keyframes dash{to{stroke-dashoffset:0;}}#g33eeac9a-f89d-4e31-9b7a-1f89f5dc8c2d-flip .edge-animation-slow{stroke-dasharray:9,5!important;stroke-dashoffset:900;animation:dash 50s linear infinite;stroke-linecap:round;}#g33eeac9a-f89d-4e31-9b7a-1f89f5dc8c2d-flip .edge-animation-fast{stroke-dasharray:9,5!important;stroke-dashoffset:900;animation:dash 20s linear infinite;stroke-linecap:round;}#g33eeac9a-f89d-4e31-9b7a-1f89f5dc8c2d-flip .error-icon{fill:#552222;}#g33eeac9a-f89d-4e31-9b7a-1f89f5dc8c2d-flip .error-text{fill:#552222;stroke:#552222;}#g33eeac9a-f89d-4e31-9b7a-1f89f5dc8c2d-flip .edge-thickness-normal{stroke-width:1px;}#g33eeac9a-f89d-4e31-9b7a-1f89f5dc8c2d-flip .edge-thickness-thick{stroke-width:3.5px;}#g33eeac9a-f89d-4e31-9b7a-1f89f5dc8c2d-flip .edge-pattern-solid{stroke-dasharray:0;}#g33eeac9a-f89d-4e31-9b7a-1f89f5dc8c2d-flip .edge-thickness-invisible{stroke-width:0;fill:none;}#g33eeac9a-f89d-4e31-9b7a-1f89f5dc8c2d-flip .edge-pattern-dashed{stroke-dasharray:3;}#g33eeac9a-f89d-4e31-9b7a-1f89f5dc8c2d-flip .edge-pattern-dotted{stroke-dasharray:2;}#g33eeac9a-f89d-4e31-9b7a-1f89f5dc8c2d-flip .marker{fill:#333333;stroke:#333333;}#g33eeac9a-f89d-4e31-9b7a-1f89f5dc8c2d-flip .marker.cross{stroke:#333333;}#g33eeac9a-f89d-4e31-9b7a-1f89f5dc8c2d-flip svg{font-family:"trebuchet ms",verdana,arial,sans-serif;font-size:16px;}#g33eeac9a-f89d-4e31-9b7a-1f89f5dc8c2d-flip p{margin:0;}#g33eeac9a-f89d-4e31-9b7a-1f89f5dc8c2d-flip .label{font-family:"trebuchet ms",verdana,arial,sans-serif;color:#333;}#g33eeac9a-f89d-4e31-9b7a-1f89f5dc8c2d-flip .cluster-label text{fill:#333;}#g33eeac9a-f89d-4e31-9b7a-1f89f5dc8c2d-flip .cluster-label span{color:#333;}#g33eeac9a-f89d-4e31-9b7a-1f89f5dc8c2d-flip .cluster-label span p{background-color:transparent;}#g33eeac9a-f89d-4e31-9b7a-1f89f5dc8c2d-flip .label text,#g33eeac9a-f89d-4e31-9b7a-1f89f5dc8c2d-flip span{fill:#333;color:#333;}#g33eeac9a-f89d-4e31-9b7a-1f89f5dc8c2d-flip .node rect,#g33eeac9a-f89d-4e31-9b7a-1f89f5dc8c2d-flip .node circle,#g33eeac9a-f89d-4e31-9b7a-1f89f5dc8c2d-flip .node ellipse,#g33eeac9a-f89d-4e31-9b7a-1f89f5dc8c2d-flip .node polygon,#g33eeac9a-f89d-4e31-9b7a-1f89f5dc8c2d-flip .node path{fill:#ECECFF;stroke:#9370DB;stroke-width:1px;}#g33eeac9a-f89d-4e31-9b7a-1f89f5dc8c2d-flip .rough-node .label text,#g33eeac9a-f89d-4e31-9b7a-1f89f5dc8c2d-flip .node .label text,#g33eeac9a-f89d-4e31-9b7a-1f89f5dc8c2d-flip .image-shape .label,#g33eeac9a-f89d-4e31-9b7a-1f89f5dc8c2d-flip .icon-shape .label{text-anchor:middle;}#g33eeac9a-f89d-4e31-9b7a-1f89f5dc8c2d-flip .node .katex path{fill:#000;stroke:#000;stroke-width:1px;}#g33eeac9a-f89d-4e31-9b7a-1f89f5dc8c2d-flip .rough-node .label,#g33eeac9a-f89d-4e31-9b7a-1f89f5dc8c2d-flip .node .label,#g33eeac9a-f89d-4e31-9b7a-1f89f5dc8c2d-flip .image-shape .label,#g33eeac9a-f89d-4e31-9b7a-1f89f5dc8c2d-flip .icon-shape .label{text-align:center;}#g33eeac9a-f89d-4e31-9b7a-1f89f5dc8c2d-flip .node.clickable{cursor:pointer;}#g33eeac9a-f89d-4e31-9b7a-1f89f5dc8c2d-flip .root .anchor path{fill:#333333!important;stroke-width:0;stroke:#333333;}#g33eeac9a-f89d-4e31-9b7a-1f89f5dc8c2d-flip .arrowheadPath{fill:#333333;}#g33eeac9a-f89d-4e31-9b7a-1f89f5dc8c2d-flip .edgePath .path{stroke:#333333;stroke-width:1px;}#g33eeac9a-f89d-4e31-9b7a-1f89f5dc8c2d-flip .flowchart-link{stroke:#333333;fill:none;}#g33eeac9a-f89d-4e31-9b7a-1f89f5dc8c2d-flip .edgeLabel{background-color:rgba(232,232,232, 0.8);text-align:center;}#g33eeac9a-f89d-4e31-9b7a-1f89f5dc8c2d-flip .edgeLabel p{background-color:rgba(232,232,232, 0.8);}#g33eeac9a-f89d-4e31-9b7a-1f89f5dc8c2d-flip .edgeLabel rect{opacity:0.5;background-color:rgba(232,232,232, 0.8);fill:rgba(232,232,232, 0.8);}#g33eeac9a-f89d-4e31-9b7a-1f89f5dc8c2d-flip .labelBkg{background-color:rgba(232, 232, 232, 0.5);}#g33eeac9a-f89d-4e31-9b7a-1f89f5dc8c2d-flip .cluster rect{fill:#ffffde;stroke:#aaaa33;stroke-width:1px;}#g33eeac9a-f89d-4e31-9b7a-1f89f5dc8c2d-flip .cluster text{fill:#333;}#g33eeac9a-f89d-4e31-9b7a-1f89f5dc8c2d-flip .cluster span{color:#333;}#g33eeac9a-f89d-4e31-9b7a-1f89f5dc8c2d-flip div.mermaidTooltip{position:absolute;text-align:center;max-width:200px;padding:2px;font-family:"trebuchet ms",verdana,arial,sans-serif;font-size:12px;background:hsl(80, 100%, 96.2745098039%);border:1px solid #aaaa33;border-radius:2px;pointer-events:none;z-index:100;}#g33eeac9a-f89d-4e31-9b7a-1f89f5dc8c2d-flip .flowchartTitleText{text-anchor:middle;font-size:18px;fill:#333;}#g33eeac9a-f89d-4e31-9b7a-1f89f5dc8c2d-flip rect.text{fill:none;stroke-width:0;}#g33eeac9a-f89d-4e31-9b7a-1f89f5dc8c2d-flip .icon-shape,#g33eeac9a-f89d-4e31-9b7a-1f89f5dc8c2d-flip .image-shape{background-color:rgba(232,232,232, 0.8);text-align:center;}#g33eeac9a-f89d-4e31-9b7a-1f89f5dc8c2d-flip .icon-shape p,#g33eeac9a-f89d-4e31-9b7a-1f89f5dc8c2d-flip .image-shape p{background-color:rgba(232,232,232, 0.8);padding:2px;}#g33eeac9a-f89d-4e31-9b7a-1f89f5dc8c2d-flip .icon-shape .label rect,#g33eeac9a-f89d-4e31-9b7a-1f89f5dc8c2d-flip .image-shape .label rect{opacity:0.5;background-color:rgba(232,232,232, 0.8);fill:rgba(232,232,232, 0.8);}#g33eeac9a-f89d-4e31-9b7a-1f89f5dc8c2d-flip .label-icon{display:inline-block;height:1em;overflow:visible;vertical-align:-0.125em;}#g33eeac9a-f89d-4e31-9b7a-1f89f5dc8c2d-flip .node .label-icon path{fill:currentColor;stroke:revert;stroke-width:revert;}#g33eeac9a-f89d-4e31-9b7a-1f89f5dc8c2d-flip .node .neo-node{stroke:#9370DB;}#g33eeac9a-f89d-4e31-9b7a-1f89f5dc8c2d-flip [data-look="neo"].node rect,#g33eeac9a-f89d-4e31-9b7a-1f89f5dc8c2d-flip [data-look="neo"].cluster rect,#g33eeac9a-f89d-4e31-9b7a-1f89f5dc8c2d-flip [data-look="neo"].node polygon{stroke:#9370DB;filter:drop-shadow(1px 2px 2px rgba(185, 185, 185, 1));}#g33eeac9a-f89d-4e31-9b7a-1f89f5dc8c2d-flip [data-look="neo"].node path{stroke:#9370DB;stroke-width:1px;}#g33eeac9a-f89d-4e31-9b7a-1f89f5dc8c2d-flip [data-look="neo"].node .outer-path{filter:drop-shadow(1px 2px 2px rgba(185, 185, 185, 1));}#g33eeac9a-f89d-4e31-9b7a-1f89f5dc8c2d-flip [data-look="neo"].node .neo-line path{stroke:#9370DB;filter:none;}#g33eeac9a-f89d-4e31-9b7a-1f89f5dc8c2d-flip [data-look="neo"].node circle{stroke:#9370DB;filter:drop-shadow(1px 2px 2px rgba(185, 185, 185, 1));}#g33eeac9a-f89d-4e31-9b7a-1f89f5dc8c2d-flip [data-look="neo"].node circle .state-start{fill:#000000;}#g33eeac9a-f89d-4e31-9b7a-1f89f5dc8c2d-flip [data-look="neo"].icon-shape .icon{fill:#9370DB;filter:drop-shadow(1px 2px 2px rgba(185, 185, 185, 1));}#g33eeac9a-f89d-4e31-9b7a-1f89f5dc8c2d-flip [data-look="neo"].icon-shape .icon-neo path{stroke:#9370DB;filter:drop-shadow(1px 2px 2px rgba(185, 185, 185, 1));}#g33eeac9a-f89d-4e31-9b7a-1f89f5dc8c2d-flip :root{--mermaid-font-family:"trebuchet ms",verdana,arial,sans-serif;}#g33eeac9a-f89d-4e31-9b7a-1f89f5dc8c2d-flip .cb rect{fill:#2E5A88!important;stroke:#1F4870!important;color:#ffffff!important;}#g33eeac9a-f89d-4e31-9b7a-1f89f5dc8c2d-flip .cb polygon{fill:#2E5A88!important;stroke:#1F4870!important;color:#ffffff!important;}#g33eeac9a-f89d-4e31-9b7a-1f89f5dc8c2d-flip .cb ellipse{fill:#2E5A88!important;stroke:#1F4870!important;color:#ffffff!important;}#g33eeac9a-f89d-4e31-9b7a-1f89f5dc8c2d-flip .cb circle{fill:#2E5A88!important;stroke:#1F4870!important;color:#ffffff!important;}#g33eeac9a-f89d-4e31-9b7a-1f89f5dc8c2d-flip .cb path{fill:#2E5A88!important;stroke:#1F4870!important;color:#ffffff!important;}#g33eeac9a-f89d-4e31-9b7a-1f89f5dc8c2d-flip .cb tspan{fill:#ffffff!important;}#g33eeac9a-f89d-4e31-9b7a-1f89f5dc8c2d-flip .warn rect{fill:#B43A3A!important;stroke:#8E2828!important;color:#ffffff!important;}#g33eeac9a-f89d-4e31-9b7a-1f89f5dc8c2d-flip .warn polygon{fill:#B43A3A!important;stroke:#8E2828!important;color:#ffffff!important;}#g33eeac9a-f89d-4e31-9b7a-1f89f5dc8c2d-flip .warn ellipse{fill:#B43A3A!important;stroke:#8E2828!important;color:#ffffff!important;}#g33eeac9a-f89d-4e31-9b7a-1f89f5dc8c2d-flip .warn circle{fill:#B43A3A!important;stroke:#8E2828!important;color:#ffffff!important;}#g33eeac9a-f89d-4e31-9b7a-1f89f5dc8c2d-flip .warn path{fill:#B43A3A!important;stroke:#8E2828!important;color:#ffffff!important;}#g33eeac9a-f89d-4e31-9b7a-1f89f5dc8c2d-flip .warn tspan{fill:#ffffff!important;}</style><g><marker id="g33eeac9a-f89d-4e31-9b7a-1f89f5dc8c2d-flip_flowchart-v2-pointEnd" class="marker flowchart-v2" viewBox="0 0 10 10" refX="5" refY="5" markerUnits="userSpaceOnUse" markerWidth="8" markerHeight="8" orient="auto"><path d="M 0 0 L 10 5 L 0 10 z" class="arrowMarkerPath" style="stroke-width: 1; stroke-dasharray: 1, 0;"></path></marker><marker id="g33eeac9a-f89d-4e31-9b7a-1f89f5dc8c2d-flip_flowchart-v2-pointStart" class="marker flowchart-v2" viewBox="0 0 10 10" refX="4.5" refY="5" markerUnits="userSpaceOnUse" markerWidth="8" markerHeight="8" orient="auto"><path d="M 0 5 L 10 10 L 10 0 z" class="arrowMarkerPath" style="stroke-width: 1; stroke-dasharray: 1, 0;"></path></marker><marker id="g33eeac9a-f89d-4e31-9b7a-1f89f5dc8c2d-flip_flowchart-v2-pointEnd-margin" class="marker flowchart-v2" viewBox="0 0 11.5 14" refX="11.5" refY="7" markerUnits="userSpaceOnUse" markerWidth="10.5" markerHeight="14" orient="auto"><path d="M 0 0 L 11.5 7 L 0 14 z" class="arrowMarkerPath" style="stroke-width: 0; stroke-dasharray: 1, 0;"></path></marker><marker id="g33eeac9a-f89d-4e31-9b7a-1f89f5dc8c2d-flip_flowchart-v2-pointStart-margin" class="marker flowchart-v2" viewBox="0 0 11.5 14" refX="1" refY="7" markerUnits="userSpaceOnUse" markerWidth="11.5" markerHeight="14" orient="auto"><polygon points="0,7 11.5,14 11.5,0" class="arrowMarkerPath" style="stroke-width: 0; stroke-dasharray: 1, 0;"></polygon></marker><marker id="g33eeac9a-f89d-4e31-9b7a-1f89f5dc8c2d-flip_flowchart-v2-circleEnd" class="marker flowchart-v2" viewBox="0 0 10 10" refX="11" refY="5" markerUnits="userSpaceOnUse" markerWidth="11" markerHeight="11" orient="auto"><circle cx="5" cy="5" r="5" class="arrowMarkerPath" style="stroke-width: 1; stroke-dasharray: 1, 0;"></circle></marker><marker id="g33eeac9a-f89d-4e31-9b7a-1f89f5dc8c2d-flip_flowchart-v2-circleStart" class="marker flowchart-v2" viewBox="0 0 10 10" refX="-1" refY="5" markerUnits="userSpaceOnUse" markerWidth="11" markerHeight="11" orient="auto"><circle cx="5" cy="5" r="5" class="arrowMarkerPath" style="stroke-width: 1; stroke-dasharray: 1, 0;"></circle></marker><marker id="g33eeac9a-f89d-4e31-9b7a-1f89f5dc8c2d-flip_flowchart-v2-circleEnd-margin" class="marker flowchart-v2" viewBox="0 0 10 10" refY="5" refX="12.25" markerUnits="userSpaceOnUse" markerWidth="14" markerHeight="14" orient="auto"><circle cx="5" cy="5" r="5" class="arrowMarkerPath" style="stroke-width: 0; stroke-dasharray: 1, 0;"></circle></marker><marker id="g33eeac9a-f89d-4e31-9b7a-1f89f5dc8c2d-flip_flowchart-v2-circleStart-margin" class="marker flowchart-v2" viewBox="0 0 10 10" refX="-2" refY="5" markerUnits="userSpaceOnUse" markerWidth="14" markerHeight="14" orient="auto"><circle cx="5" cy="5" r="5" class="arrowMarkerPath" style="stroke-width: 0; stroke-dasharray: 1, 0;"></circle></marker><marker id="g33eeac9a-f89d-4e31-9b7a-1f89f5dc8c2d-flip_flowchart-v2-crossEnd" class="marker cross flowchart-v2" viewBox="0 0 11 11" refX="12" refY="5.2" markerUnits="userSpaceOnUse" markerWidth="11" markerHeight="11" orient="auto"><path d="M 1,1 l 9,9 M 10,1 l -9,9" class="arrowMarkerPath" style="stroke-width: 2; stroke-dasharray: 1, 0;"></path></marker><marker id="g33eeac9a-f89d-4e31-9b7a-1f89f5dc8c2d-flip_flowchart-v2-crossStart" class="marker cross flowchart-v2" viewBox="0 0 11 11" refX="-1" refY="5.2" markerUnits="userSpaceOnUse" markerWidth="11" markerHeight="11" orient="auto"><path d="M 1,1 l 9,9 M 10,1 l -9,9" class="arrowMarkerPath" style="stroke-width: 2; stroke-dasharray: 1, 0;"></path></marker><marker id="g33eeac9a-f89d-4e31-9b7a-1f89f5dc8c2d-flip_flowchart-v2-crossEnd-margin" class="marker cross flowchart-v2" viewBox="0 0 15 15" refX="17.7" refY="7.5" markerUnits="userSpaceOnUse" markerWidth="12" markerHeight="12" orient="auto"><path d="M 1,1 L 14,14 M 1,14 L 14,1" class="arrowMarkerPath" style="stroke-width: 2.5;"></path></marker><marker id="g33eeac9a-f89d-4e31-9b7a-1f89f5dc8c2d-flip_flowchart-v2-crossStart-margin" class="marker cross flowchart-v2" viewBox="0 0 15 15" refX="-3.5" refY="7.5" markerUnits="userSpaceOnUse" markerWidth="12" markerHeight="12" orient="auto"><path d="M 1,1 L 14,14 M 1,14 L 14,1" class="arrowMarkerPath" style="stroke-width: 2.5; stroke-dasharray: 1, 0;"></path></marker><g class="root"><g class="clusters"></g><g class="edgePaths"><path d="M167.945,42.5L167.862,46.583C167.779,50.667,167.612,58.833,167.529,66.417C167.445,74,167.445,81,167.445,84.5L167.445,88" id="g33eeac9a-f89d-4e31-9b7a-1f89f5dc8c2d-flip-L_start_rs_0" class="edge-thickness-normal edge-pattern-solid edge-thickness-normal edge-pattern-solid flowchart-link" style=";" data-edge="true" data-et="edge" data-id="L_start_rs_0" data-points="W3sieCI6MTY3Ljk0NTMxMjUsInkiOjQyLjV9LHsieCI6MTY3LjQ0NTMxMjUsInkiOjY3fSx7IngiOjE2Ny40NDUzMTI1LCJ5Ijo5Mn1d" data-look="classic" marker-end="url(#g33eeac9a-f89d-4e31-9b7a-1f89f5dc8c2d-flip_flowchart-v2-pointEnd)"></path><path d="M167.445,141L167.445,145.167C167.445,149.333,167.445,157.667,167.445,165.333C167.445,173,167.445,180,167.445,183.5L167.445,187" id="g33eeac9a-f89d-4e31-9b7a-1f89f5dc8c2d-flip-L_rs_ul_0" class="edge-thickness-normal edge-pattern-solid edge-thickness-normal edge-pattern-solid flowchart-link" style=";" data-edge="true" data-et="edge" data-id="L_rs_ul_0" data-points="W3sieCI6MTY3LjQ0NTMxMjUsInkiOjE0MX0seyJ4IjoxNjcuNDQ1MzEyNSwieSI6MTY2fSx7IngiOjE2Ny40NDUzMTI1LCJ5IjoxOTF9XQ==" data-look="classic" marker-end="url(#g33eeac9a-f89d-4e31-9b7a-1f89f5dc8c2d-flip_flowchart-v2-pointEnd)"></path><path d="M167.445,240L167.445,244.167C167.445,248.333,167.445,256.667,167.445,264.333C167.445,272,167.445,279,167.445,282.5L167.445,286" id="g33eeac9a-f89d-4e31-9b7a-1f89f5dc8c2d-flip-L_ul_gather_0" class="edge-thickness-normal edge-pattern-solid edge-thickness-normal edge-pattern-solid flowchart-link" style=";" data-edge="true" data-et="edge" data-id="L_ul_gather_0" data-points="W3sieCI6MTY3LjQ0NTMxMjUsInkiOjI0MH0seyJ4IjoxNjcuNDQ1MzEyNSwieSI6MjY1fSx7IngiOjE2Ny40NDUzMTI1LCJ5IjoyOTB9XQ==" data-look="classic" marker-end="url(#g33eeac9a-f89d-4e31-9b7a-1f89f5dc8c2d-flip_flowchart-v2-pointEnd)"></path><path d="M167.445,339L167.445,343.167C167.445,347.333,167.445,355.667,167.445,363.333C167.445,371,167.445,378,167.445,381.5L167.445,385" id="g33eeac9a-f89d-4e31-9b7a-1f89f5dc8c2d-flip-L_gather_any_0" class="edge-thickness-normal edge-pattern-solid edge-thickness-normal edge-pattern-solid flowchart-link" style=";" data-edge="true" data-et="edge" data-id="L_gather_any_0" data-points="W3sieCI6MTY3LjQ0NTMxMjUsInkiOjMzOX0seyJ4IjoxNjcuNDQ1MzEyNSwieSI6MzY0fSx7IngiOjE2Ny40NDUzMTI1LCJ5IjozODl9XQ==" data-look="classic" marker-end="url(#g33eeac9a-f89d-4e31-9b7a-1f89f5dc8c2d-flip_flowchart-v2-pointEnd)"></path><path d="M136.159,456.386L116.577,467.683C96.994,478.981,57.829,501.577,38.247,525.974C18.664,550.372,18.664,576.572,18.664,600.855C18.664,625.139,18.664,647.505,18.664,666.939C18.664,686.372,18.664,702.872,18.664,721.289C18.664,739.705,18.664,760.039,18.664,780.372C18.664,800.705,18.664,821.039,18.664,841.372C18.664,861.705,18.664,882.039,18.664,905.929C18.664,929.82,18.664,957.268,18.664,984.716C18.664,1012.164,18.664,1039.611,18.664,1071.029C18.664,1102.447,18.664,1137.835,18.664,1173.223C18.664,1208.611,18.664,1243.999,18.664,1277.727C18.664,1311.454,18.664,1343.521,18.664,1373.671C18.664,1403.821,18.664,1432.054,25.633,1450.015C32.601,1467.977,46.539,1475.666,53.508,1479.511L60.476,1483.355" id="g33eeac9a-f89d-4e31-9b7a-1f89f5dc8c2d-flip-L_any_paint_0" class="edge-thickness-normal edge-pattern-solid edge-thickness-normal edge-pattern-solid flowchart-link" style=";" data-edge="true" data-et="edge" data-id="L_any_paint_0" data-points="W3sieCI6MTM2LjE1OTE4ODM2OTkzNDQsInkiOjQ1Ni4zODU3NTA4Njk5MzQ0fSx7IngiOjE4LjY2NDA2MjUsInkiOjUyNC4xNzE4NzV9LHsieCI6MTguNjY0MDYyNSwieSI6NjAyLjc3MTg3MzQ3NDEyMTF9LHsieCI6MTguNjY0MDYyNSwieSI6NjY5Ljg3MTg3MTk0ODI0MjJ9LHsieCI6MTguNjY0MDYyNSwieSI6NzE5LjM3MTg3MTk0ODI0MjJ9LHsieCI6MTguNjY0MDYyNSwieSI6NzgwLjM3MTg3MTk0ODI0MjJ9LHsieCI6MTguNjY0MDYyNSwieSI6ODQxLjM3MTg3MTk0ODI0MjJ9LHsieCI6MTguNjY0MDYyNSwieSI6OTAyLjM3MTg3MTk0ODI0MjJ9LHsieCI6MTguNjY0MDYyNSwieSI6OTg0LjcxNTYyMTk0ODI0MjJ9LHsieCI6MTguNjY0MDYyNSwieSI6MTA2Ny4wNTkzNzE5NDgyNDIyfSx7IngiOjE4LjY2NDA2MjUsInkiOjExNzMuMjIzNDM0NDQ4MjQyMn0seyJ4IjoxOC42NjQwNjI1LCJ5IjoxMjc5LjM4NzQ5Njk0ODI0MjJ9LHsieCI6MTguNjY0MDYyNSwieSI6MTM3NS41ODc0OTc3MTExODE2fSx7IngiOjE4LjY2NDA2MjUsInkiOjE0NjAuMjg3NDk4NDc0MTIxfSx7IngiOjYzLjk3ODUzNTM1MzUzNTM2LCJ5IjoxNDg1LjI4NzQ5ODQ3NDEyMX1d" data-look="classic" marker-end="url(#g33eeac9a-f89d-4e31-9b7a-1f89f5dc8c2d-flip_flowchart-v2-pointEnd)"></path><path d="M190.351,464.766L198.932,474.667C207.513,484.568,224.674,504.37,233.255,519.688C241.836,535.005,241.836,545.839,241.836,551.255L241.836,556.672" id="g33eeac9a-f89d-4e31-9b7a-1f89f5dc8c2d-flip-L_any_bcast_0" class="edge-thickness-normal edge-pattern-solid edge-thickness-normal edge-pattern-solid flowchart-link" style=";" data-edge="true" data-et="edge" data-id="L_any_bcast_0" data-points="W3sieCI6MTkwLjM1MTE5NzU2ODc1MDMsInkiOjQ2NC43NjU5ODk5MzEyNDk3fSx7IngiOjI0MS44MzU5Mzc1LCJ5Ijo1MjQuMTcxODc1fSx7IngiOjI0MS44MzU5Mzc1LCJ5Ijo1NjAuNjcxODc1fV0=" data-look="classic" marker-end="url(#g33eeac9a-f89d-4e31-9b7a-1f89f5dc8c2d-flip_flowchart-v2-pointEnd)"></path><path d="M195.162,644.872L190.542,649.039C185.923,653.205,176.684,661.539,172.065,669.205C167.445,676.872,167.445,683.872,167.445,687.372L167.445,690.872" id="g33eeac9a-f89d-4e31-9b7a-1f89f5dc8c2d-flip-L_bcast_rs2_0" class="edge-thickness-normal edge-pattern-solid edge-thickness-normal edge-pattern-solid flowchart-link" style=";" data-edge="true" data-et="edge" data-id="L_bcast_rs2_0" data-points="W3sieCI6MTk1LjE2MTY0MTM3MTcxMDMyLCJ5Ijo2NDQuODcxODcxOTQ4MjQyMn0seyJ4IjoxNjcuNDQ1MzEyNSwieSI6NjY5Ljg3MTg3MTk0ODI0MjJ9LHsieCI6MTY3LjQ0NTMxMjUsInkiOjY5NC44NzE4NzE5NDgyNDIyfV0=" data-look="classic" marker-end="url(#g33eeac9a-f89d-4e31-9b7a-1f89f5dc8c2d-flip_flowchart-v2-pointEnd)"></path><path d="M167.445,743.872L167.445,749.955C167.445,756.039,167.445,768.205,167.445,779.705C167.445,791.205,167.445,802.039,167.445,807.455L167.445,812.872" id="g33eeac9a-f89d-4e31-9b7a-1f89f5dc8c2d-flip-L_rs2_gather2_0" class="edge-thickness-normal edge-pattern-solid edge-thickness-normal edge-pattern-solid flowchart-link" style=";" data-edge="true" data-et="edge" data-id="L_rs2_gather2_0" data-points="W3sieCI6MTY3LjQ0NTMxMjUsInkiOjc0My44NzE4NzE5NDgyNDIyfSx7IngiOjE2Ny40NDUzMTI1LCJ5Ijo3ODAuMzcxODcxOTQ4MjQyMn0seyJ4IjoxNjcuNDQ1MzEyNSwieSI6ODE2Ljg3MTg3MTk0ODI0MjJ9XQ==" data-look="classic" marker-end="url(#g33eeac9a-f89d-4e31-9b7a-1f89f5dc8c2d-flip_flowchart-v2-pointEnd)"></path><path d="M167.445,865.872L167.445,871.955C167.445,878.039,167.445,890.205,175.77,905.504C184.095,920.802,200.746,939.232,209.071,948.447L217.396,957.662" id="g33eeac9a-f89d-4e31-9b7a-1f89f5dc8c2d-flip-L_gather2_any2_0" class="edge-thickness-normal edge-pattern-solid edge-thickness-normal edge-pattern-solid flowchart-link" style=";" data-edge="true" data-et="edge" data-id="L_gather2_any2_0" data-points="W3sieCI6MTY3LjQ0NTMxMjUsInkiOjg2NS44NzE4NzE5NDgyNDIyfSx7IngiOjE2Ny40NDUzMTI1LCJ5Ijo5MDIuMzcxODcxOTQ4MjQyMn0seyJ4IjoyMjAuMDc3MTgwMjcyNDA1NTQsInkiOjk2MC42MzA2MjkxNzU4MzY2fV0=" data-look="classic" marker-end="url(#g33eeac9a-f89d-4e31-9b7a-1f89f5dc8c2d-flip_flowchart-v2-pointEnd)"></path><path d="M263.595,960.631L272.367,950.921C281.139,941.211,298.683,921.791,307.455,901.915C316.227,882.039,316.227,861.705,316.227,841.372C316.227,821.039,316.227,800.705,316.227,780.372C316.227,760.039,316.227,739.705,316.227,721.289C316.227,702.872,316.227,686.372,312.102,674.402C307.978,662.432,299.729,654.991,295.605,651.271L291.48,647.551" id="g33eeac9a-f89d-4e31-9b7a-1f89f5dc8c2d-flip-L_any2_bcast_0" class="edge-thickness-normal edge-pattern-solid edge-thickness-normal edge-pattern-solid flowchart-link" style=";" data-edge="true" data-et="edge" data-id="L_any2_bcast_0" data-points="W3sieCI6MjYzLjU5NDY5NDcyNzU5NDQ2LCJ5Ijo5NjAuNjMwNjI5MTc1ODM2Nn0seyJ4IjozMTYuMjI2NTYyNSwieSI6OTAyLjM3MTg3MTk0ODI0MjJ9LHsieCI6MzE2LjIyNjU2MjUsInkiOjg0MS4zNzE4NzE5NDgyNDIyfSx7IngiOjMxNi4yMjY1NjI1LCJ5Ijo3ODAuMzcxODcxOTQ4MjQyMn0seyJ4IjozMTYuMjI2NTYyNSwieSI6NzE5LjM3MTg3MTk0ODI0MjJ9LHsieCI6MzE2LjIyNjU2MjUsInkiOjY2OS44NzE4NzE5NDgyNDIyfSx7IngiOjI4OC41MTAyMzM2MjgyODk3LCJ5Ijo2NDQuODcxODcxOTQ4MjQyMn1d" data-look="classic" marker-end="url(#g33eeac9a-f89d-4e31-9b7a-1f89f5dc8c2d-flip_flowchart-v2-pointEnd)"></path><path d="M241.836,1030.559L241.836,1036.643C241.836,1042.726,241.836,1054.893,241.836,1066.393C241.836,1077.893,241.836,1088.726,241.836,1094.143L241.836,1099.559" id="g33eeac9a-f89d-4e31-9b7a-1f89f5dc8c2d-flip-L_any2_err_0" class="edge-thickness-normal edge-pattern-solid edge-thickness-normal edge-pattern-solid flowchart-link" style=";" data-edge="true" data-et="edge" data-id="L_any2_err_0" data-points="W3sieCI6MjQxLjgzNTkzNzUsInkiOjEwMzAuNTU5MzcxOTQ4MjQyMn0seyJ4IjoyNDEuODM1OTM3NSwieSI6MTA2Ny4wNTkzNzE5NDgyNDIyfSx7IngiOjI0MS44MzU5Mzc1LCJ5IjoxMTAzLjU1OTM3MTk0ODI0MjJ9XQ==" data-look="classic" marker-end="url(#g33eeac9a-f89d-4e31-9b7a-1f89f5dc8c2d-flip_flowchart-v2-pointEnd)"></path><path d="M273.061,1211.662L282.231,1222.95C291.4,1234.237,309.739,1256.812,318.909,1273.517C328.078,1290.221,328.078,1301.054,328.078,1306.471L328.078,1311.887" id="g33eeac9a-f89d-4e31-9b7a-1f89f5dc8c2d-flip-L_err_loop_0" class="edge-thickness-normal edge-pattern-solid edge-thickness-normal edge-pattern-solid flowchart-link" style=";" data-edge="true" data-et="edge" data-id="L_err_loop_0" data-points="W3sieCI6MjczLjA2MTQzNjM2MDU0NDg2LCJ5IjoxMjExLjY2MTk5ODA4NzY5NzR9LHsieCI6MzI4LjA3ODEyNSwieSI6MTI3OS4zODc0OTY5NDgyNDIyfSx7IngiOjMyOC4wNzgxMjUsInkiOjEzMTUuODg3NDk2OTQ4MjQyMn1d" data-look="classic" marker-end="url(#g33eeac9a-f89d-4e31-9b7a-1f89f5dc8c2d-flip_flowchart-v2-pointEnd)"></path><path d="M203.038,1204.089L187.262,1216.639C171.487,1229.189,139.937,1254.288,124.162,1282.871C108.387,1311.454,108.387,1343.521,108.387,1373.671C108.387,1403.821,108.387,1432.054,108.387,1449.671C108.387,1467.287,108.387,1474.287,108.387,1477.787L108.387,1481.287" id="g33eeac9a-f89d-4e31-9b7a-1f89f5dc8c2d-flip-L_err_paint_0" class="edge-thickness-normal edge-pattern-solid edge-thickness-normal edge-pattern-solid flowchart-link" style=";" data-edge="true" data-et="edge" data-id="L_err_paint_0" data-points="W3sieCI6MjAzLjAzNzUyNTg3OTkxNzE4LCJ5IjoxMjA0LjA4OTA4NTMyODE1OTR9LHsieCI6MTA4LjM4NjcxODc1LCJ5IjoxMjc5LjM4NzQ5Njk0ODI0MjJ9LHsieCI6MTA4LjM4NjcxODc1LCJ5IjoxMzc1LjU4NzQ5NzcxMTE4MTZ9LHsieCI6MTA4LjM4NjcxODc1LCJ5IjoxNDYwLjI4NzQ5ODQ3NDEyMX0seyJ4IjoxMDguMzg2NzE4NzUsInkiOjE0ODUuMjg3NDk4NDc0MTIxfV0=" data-look="classic" marker-end="url(#g33eeac9a-f89d-4e31-9b7a-1f89f5dc8c2d-flip_flowchart-v2-pointEnd)"></path><path d="M328.078,1435.287L328.078,1439.454C328.078,1443.621,328.078,1451.954,300.194,1462.404C272.31,1472.853,216.542,1485.418,188.657,1491.701L160.773,1497.984" id="g33eeac9a-f89d-4e31-9b7a-1f89f5dc8c2d-flip-L_loop_paint_0" class="edge-thickness-normal edge-pattern-solid edge-thickness-normal edge-pattern-solid flowchart-link" style=";" data-edge="true" data-et="edge" data-id="L_loop_paint_0" data-points="W3sieCI6MzI4LjA3ODEyNSwieSI6MTQzNS4yODc0OTg0NzQxMjF9LHsieCI6MzI4LjA3ODEyNSwieSI6MTQ2MC4yODc0OTg0NzQxMjF9LHsieCI6MTU2Ljg3MTA5Mzc1LCJ5IjoxNDk4Ljg2MzE5MDU4NDg1ODh9XQ==" data-look="classic" marker-end="url(#g33eeac9a-f89d-4e31-9b7a-1f89f5dc8c2d-flip_flowchart-v2-pointEnd)"></path></g><g class="edgeLabels"><g class="edgeLabel"><g class="label" data-id="L_start_rs_0" transform="translate(0, 0)"><text y="-10.1" text-anchor="middle"><tspan class="text-outer-tspan row" x="0" y="-0.1em" dy="1.1em" text-anchor="middle"></tspan></text></g></g><g><rect class="background" style="stroke: none"></rect></g><g class="edgeLabel"><g class="label" data-id="L_rs_ul_0" transform="translate(0, 0)"><text y="-10.1" text-anchor="middle"><tspan class="text-outer-tspan row" x="0" y="-0.1em" dy="1.1em" text-anchor="middle"></tspan></text></g></g><g><rect class="background" style="stroke: none"></rect></g><g class="edgeLabel"><g class="label" data-id="L_ul_gather_0" transform="translate(0, 0)"><text y="-10.1" text-anchor="middle"><tspan class="text-outer-tspan row" x="0" y="-0.1em" dy="1.1em" text-anchor="middle"></tspan></text></g></g><g><rect class="background" style="stroke: none"></rect></g><g class="edgeLabel"><g class="label" data-id="L_gather_any_0" transform="translate(0, 0)"><text y="-10.1" text-anchor="middle"><tspan class="text-outer-tspan row" x="0" y="-0.1em" dy="1.1em" text-anchor="middle"></tspan></text></g></g><g><rect class="background" style="stroke: none"></rect></g><g class="edgeLabel" transform="translate(18.6640625, 902.3718719482422)"><g class="label" data-id="L_any_paint_0" transform="translate(0, -10.5)"><g><rect class="background" style="" x="-10.6640625" y="-1" width="21.328125" height="23"></rect><text y="-10.1" text-anchor="middle" style=""><tspan class="text-outer-tspan row" x="0" y="-0.1em" dy="1.1em" text-anchor="middle"><tspan font-style="normal" class="text-inner-tspan" font-weight="normal">no</tspan></tspan></text></g></g></g><g class="edgeLabel" transform="translate(241.8359375, 524.171875)"><g class="label" data-id="L_any_bcast_0" transform="translate(0, -10.5)"><g><rect class="background" style="" x="-13.546875" y="-1" width="27.09375" height="23"></rect><text y="-10.1" text-anchor="middle" style=""><tspan class="text-outer-tspan row" x="0" y="-0.1em" dy="1.1em" text-anchor="middle"><tspan font-style="normal" class="text-inner-tspan" font-weight="normal">yes</tspan></tspan></text></g></g></g><g class="edgeLabel"><g class="label" data-id="L_bcast_rs2_0" transform="translate(0, 0)"><text y="-10.1" text-anchor="middle"><tspan class="text-outer-tspan row" x="0" y="-0.1em" dy="1.1em" text-anchor="middle"></tspan></text></g></g><g><rect class="background" style="stroke: none"></rect></g><g class="edgeLabel"><g class="label" data-id="L_rs2_gather2_0" transform="translate(0, 0)"><text y="-10.1" text-anchor="middle"><tspan class="text-outer-tspan row" x="0" y="-0.1em" dy="1.1em" text-anchor="middle"></tspan></text></g></g><g><rect class="background" style="stroke: none"></rect></g><g class="edgeLabel"><g class="label" data-id="L_gather2_any2_0" transform="translate(0, 0)"><text y="-10.1" text-anchor="middle"><tspan class="text-outer-tspan row" x="0" y="-0.1em" dy="1.1em" text-anchor="middle"></tspan></text></g></g><g><rect class="background" style="stroke: none"></rect></g><g class="edgeLabel" transform="translate(316.2265625, 780.3718719482422)"><g class="label" data-id="L_any2_bcast_0" transform="translate(0, -10.5)"><g><rect class="background" style="" x="-13.546875" y="-1" width="27.09375" height="23"></rect><text y="-10.1" text-anchor="middle" style=""><tspan class="text-outer-tspan row" x="0" y="-0.1em" dy="1.1em" text-anchor="middle"><tspan font-style="normal" class="text-inner-tspan" font-weight="normal">yes</tspan></tspan></text></g></g></g><g class="edgeLabel" transform="translate(241.8359375, 1067.0593719482422)"><g class="label" data-id="L_any2_err_0" transform="translate(0, -10.5)"><g><rect class="background" style="" x="-10.6640625" y="-1" width="21.328125" height="23"></rect><text y="-10.1" text-anchor="middle" style=""><tspan class="text-outer-tspan row" x="0" y="-0.1em" dy="1.1em" text-anchor="middle"><tspan font-style="normal" class="text-inner-tspan" font-weight="normal">no</tspan></tspan></text></g></g></g><g class="edgeLabel" transform="translate(328.078125, 1279.3874969482422)"><g class="label" data-id="L_err_loop_0" transform="translate(0, -10.5)"><g><rect class="background" style="" x="-13.546875" y="-1" width="27.09375" height="23"></rect><text y="-10.1" text-anchor="middle" style=""><tspan class="text-outer-tspan row" x="0" y="-0.1em" dy="1.1em" text-anchor="middle"><tspan font-style="normal" class="text-inner-tspan" font-weight="normal">yes</tspan></tspan></text></g></g></g><g class="edgeLabel" transform="translate(108.38671875, 1375.5874977111816)"><g class="label" data-id="L_err_paint_0" transform="translate(0, -10.5)"><g><rect class="background" style="" x="-10.6640625" y="-1" width="21.328125" height="23"></rect><text y="-10.1" text-anchor="middle" style=""><tspan class="text-outer-tspan row" x="0" y="-0.1em" dy="1.1em" text-anchor="middle"><tspan font-style="normal" class="text-inner-tspan" font-weight="normal">no</tspan></tspan></text></g></g></g><g class="edgeLabel"><g class="label" data-id="L_loop_paint_0" transform="translate(0, 0)"><text y="-10.1" text-anchor="middle"><tspan class="text-outer-tspan row" x="0" y="-0.1em" dy="1.1em" text-anchor="middle"></tspan></text></g></g><g><rect class="background" style="stroke: none"></rect></g></g><g class="nodes"><g class="node default" id="g33eeac9a-f89d-4e31-9b7a-1f89f5dc8c2d-flip-flowchart-start-0" data-look="classic" transform="translate(167.4453125, 25)"><g class="basic label-container outer-path"><path d="M-73.53125 -17 C-15.202194328388451 -17, 43.1268613432231 -17, 73.53125 -17 C73.53125 -17, 73.53125 -17, 73.53125 -17 C73.91163452865942 -16.987801808539462, 74.29201905731884 -16.97560361707892, 74.62044373967211 -16.965071676755716 C74.91147930608065 -16.936995825685763, 75.20251487248919 -16.90891997461581, 75.7051617486366 -16.860430234995185 C75.99181451037157 -16.814086439503246, 76.27846727210652 -16.767742644011303, 76.78094668792333 -16.686505668848113 C77.10467829177841 -16.61261604281433, 77.42840989563351 -16.538726416780552, 77.84337792646163 -16.4440126716635 C78.11727283184585 -16.362722101449158, 78.39116773723009 -16.281431531234816, 78.88808970640156 -16.133947699181366 C79.13038067168107 -16.044782384245377, 79.37267163696056 -15.95561706930939, 79.91078908294936 -15.757584874882369 C80.11060692771757 -15.669131442389247, 80.31042477248577 -15.580678009896127, 80.90727356499849 -15.316470754341125 C81.13665709447606 -15.196801513939834, 81.36604062395365 -15.077132273538544, 81.87344838406693 -14.812417970097622 C82.22762745192485 -14.59771253777492, 82.58180651978277 -14.383007105452217, 82.80534332057933 -14.247497783161291 C83.14701413651716 -14.009163012654296, 83.488684952455 -13.7708282421473, 83.69912901835067 -13.624031571755262 C83.97585038264673 -13.403353647593924, 84.25257174694279 -13.182675723432588, 84.5511327202324 -12.944581292275288 C84.77498969905906 -12.741280307036009, 84.99884667788572 -12.537979321796731, 85.35785336025927 -12.21193895166137 C85.57115935233458 -11.991683002095971, 85.78446534440988 -11.771427052530575, 86.11597595028036 -11.42911513444239 C86.37201692088807 -11.12835484122262, 86.62805789149579 -10.82759454800285, 86.82238520195651 -10.59932663159847 C87.03793941910997 -10.310503618005981, 87.25349363626344 -10.02168060441349, 87.47417832814824 -9.725983222076888 C87.65021076048986 -9.45555013467348, 87.82624319283147 -9.185117047270074, 88.06867697109088 -8.812673661278927 C88.25438948983411 -8.482922278818604, 88.44010200857736 -8.15317089635828, 88.603438208341 -7.863150934094199 C88.77402720556647 -7.508919231335695, 88.94461620279193 -7.154687528577192, 89.07626459126881 -6.881316833080699 C89.22528071495115 -6.51324412655454, 89.37429683863351 -6.145171420028381, 89.48521317484592 -5.871205925162238 C89.59164383400983 -5.550653737183216, 89.69807449317375 -5.2301015492041945, 89.82860350162323 -4.836968972727556 C89.90431898350987 -4.54823302499641, 89.98003446539649 -4.259497077265263, 90.105024507091 -3.7828558772573464 C90.175430256785 -3.4213372328390825, 90.24583600647901 -3.0598185884208187, 90.31334031804565 -2.713198215567453 C90.3490199776275 -2.4364738215962145, 90.38469963720938 -2.1597494276249756, 90.45269492013637 -1.632391440430593 C90.47316382741953 -1.3135716872907517, 90.4936327347027 -0.9947519341509103, 90.5225156754117 -0.5448768187181379 C90.5225156754117 -0.19492549589528485, 90.5225156754117 0.15502582692756817, 90.5225156754117 0.5448768187181336 C90.50277374625179 0.8523733007819663, 90.4830318170919 1.159869782845799, 90.45269492013637 1.6323914404305815 C90.41690652686933 1.9099591513921246, 90.38111813360229 2.1875268623536677, 90.31334031804565 2.7131982155674415 C90.24564082530226 3.060820802511874, 90.17794133255887 3.4084433894563064, 90.105024507091 3.782855877257343 C90.02908658540807 4.072440084337844, 89.95314866372512 4.3620242914183445, 89.82860350162323 4.836968972727545 C89.69429852162295 5.241474173895809, 89.55999354162267 5.645979375064073, 89.48521317484592 5.871205925162227 C89.36120200685438 6.177515907694159, 89.23719083886284 6.483825890226091, 89.07626459126881 6.881316833080694 C88.97138098111017 7.099109893724851, 88.86649737095154 7.316902954369008, 88.603438208341 7.863150934094196 C88.47121004096918 8.097935434816714, 88.33898187359736 8.332719935539233, 88.06867697109088 8.812673661278923 C87.9121231898186 9.05318230988965, 87.75556940854632 9.293690958500378, 87.47417832814826 9.725983222076879 C87.21351850343247 10.075243640597487, 86.95285867871668 10.424504059118096, 86.82238520195651 10.599326631598467 C86.55055138322588 10.91863810286194, 86.27871756449524 11.237949574125414, 86.11597595028037 11.42911513444238 C85.91904873391348 11.632458653366337, 85.7221215175466 11.835802172290292, 85.35785336025927 12.211938951661365 C85.13737475524475 12.412171787191333, 84.91689615023023 12.612404622721302, 84.55113272023242 12.944581292275275 C84.34466134037766 13.10923672327528, 84.1381899605229 13.273892154275284, 83.69912901835067 13.62403157175526 C83.48900262074957 13.77060665049664, 83.27887622314847 13.91718172923802, 82.80534332057934 14.247497783161286 C82.51850359675649 14.421381709400025, 82.23166387293362 14.595265635638764, 81.87344838406695 14.81241797009762 C81.50954265206477 15.00226735739041, 81.14563692006259 15.192116744683199, 80.90727356499849 15.316470754341124 C80.6119799934425 15.447188458896388, 80.3166864218865 15.577906163451654, 79.91078908294936 15.757584874882367 C79.67330534009821 15.844981087527245, 79.43582159724706 15.932377300172124, 78.88808970640156 16.133947699181363 C78.60481510942279 16.218022112625963, 78.321540512444 16.30209652607056, 77.84337792646164 16.444012671663497 C77.51272414132221 16.519482240403974, 77.18207035618279 16.59495180914445, 76.78094668792333 16.68650566884811 C76.43986151693676 16.741649674138213, 76.09877634595018 16.796793679428315, 75.70516174863661 16.86043023499518 C75.3381100656088 16.89583926941264, 74.971058382581 16.9312483038301, 74.62044373967211 16.965071676755716 C74.336635770318 16.974172845934202, 74.05282780096388 16.983274015112688, 73.53125 17 C73.53125 17, 73.53125 17, 73.53125 17 C43.75866635322677 17, 13.986082706453544 17, -73.53125 17 C-73.92560180803693 16.987353905075484, -74.31995361607386 16.97470781015097, -74.62044373967211 16.965071676755716 C-74.90924317512756 16.937211542549466, -75.198042610583 16.909351408343216, -75.7051617486366 16.86043023499518 C-75.92229494543741 16.825325823629516, -76.13942814223823 16.79022141226385, -76.78094668792333 16.68650566884811 C-77.0111476961188 16.63396379092946, -77.24134870431426 16.58142191301081, -77.84337792646161 16.4440126716635 C-78.19585709192872 16.339398705553762, -78.54833625739582 16.234784739444024, -78.88808970640154 16.13394769918137 C-79.16753214284327 16.031110299433248, -79.446974579285 15.928272899685128, -79.91078908294936 15.757584874882369 C-80.26180815918985 15.60219914244164, -80.61282723543036 15.446813410000908, -80.90727356499849 15.316470754341127 C-81.124376286724 15.203208403477861, -81.3414790084495 15.089946052614593, -81.87344838406693 14.812417970097624 C-82.13996239946239 14.650855607754698, -82.40647641485783 14.489293245411773, -82.80534332057931 14.247497783161299 C-83.00109192874571 14.110952027925094, -83.1968405369121 13.974406272688888, -83.69912901835067 13.624031571755264 C-83.94642223409816 13.42682181294548, -84.19371544984567 13.229612054135696, -84.5511327202324 12.94458129227529 C-84.78773309003783 12.729707096520736, -85.02433345984326 12.514832900766182, -85.35785336025926 12.211938951661377 C-85.5672987400092 11.995669401284076, -85.77674411975916 11.779399850906774, -86.11597595028036 11.429115134442386 C-86.28876559064524 11.226146590860726, -86.46155523101014 11.023178047279066, -86.82238520195651 10.599326631598473 C-86.99853907318622 10.363296492098465, -87.17469294441592 10.127266352598458, -87.47417832814824 9.72598322207689 C-87.69868183258592 9.38108555162861, -87.9231853370236 9.03618788118033, -88.06867697109088 8.812673661278936 C-88.21376934133764 8.555047465710176, -88.35886171158438 8.297421270141415, -88.603438208341 7.863150934094201 C-88.72332412652686 7.6142052598335574, -88.8432100447127 7.365259585572913, -89.07626459126881 6.881316833080701 C-89.17090429091598 6.647554945218066, -89.26554399056316 6.413793057355432, -89.48521317484592 5.87120592516224 C-89.59703891815705 5.534404603321734, -89.70886466146817 5.1976032814812285, -89.82860350162323 4.8369689727275516 C-89.90576585930584 4.542715460506398, -89.98292821698846 4.248461948285245, -90.105024507091 3.782855877257349 C-90.17739661191284 3.4112404148469966, -90.24976871673466 3.0396249524366437, -90.31334031804565 2.713198215567455 C-90.34581919906947 2.4612984280272308, -90.37829808009327 2.209398640487006, -90.45269492013637 1.6323914404306026 C-90.4772017761754 1.2506773760444694, -90.50170863221445 0.8689633116583362, -90.5225156754117 0.54487681871814 C-90.5225156754117 0.2861830206687778, -90.5225156754117 0.027489222619415665, -90.5225156754117 -0.5448768187181317 C-90.49576033402124 -0.961612857397355, -90.46900499263077 -1.3783488960765784, -90.45269492013637 -1.6323914404305793 C-90.40398928134994 -2.010142756841828, -90.35528364256352 -2.3878940732530767, -90.31334031804565 -2.713198215567447 C-90.27112788148028 -2.9299501557289456, -90.22891544491493 -3.1467020958904444, -90.105024507091 -3.782855877257341 C-90.04114008045116 -4.02647488372072, -89.97725565381131 -4.270093890184098, -89.82860350162323 -4.836968972727544 C-89.74830169420679 -5.078825222310379, -89.66799988679034 -5.320681471893215, -89.48521317484594 -5.871205925162218 C-89.3886086854807 -6.109820881615095, -89.29200419611546 -6.348435838067971, -89.07626459126881 -6.881316833080692 C-88.96068413671541 -7.121322119986387, -88.845103682162 -7.361327406892083, -88.603438208341 -7.863150934094194 C-88.45905759921048 -8.11951332572745, -88.31467699007997 -8.375875717360707, -88.06867697109088 -8.812673661278929 C-87.89605649469948 -9.077865068104353, -87.72343601830809 -9.343056474929778, -87.47417832814826 -9.725983222076884 C-87.27589700249493 -9.991662134651955, -87.07761567684162 -10.257341047227028, -86.82238520195651 -10.599326631598467 C-86.64577276067935 -10.80678565465522, -86.46916031940219 -11.014244677711973, -86.11597595028037 -11.42911513444238 C-85.8750452573426 -11.677895855678376, -85.63411456440485 -11.926676576914373, -85.35785336025927 -12.21193895166136 C-85.14402402477747 -12.406133096531748, -84.93019468929566 -12.600327241402137, -84.55113272023242 -12.944581292275274 C-84.26356791153053 -13.173906574794083, -83.97600310282866 -13.403231857312894, -83.69912901835067 -13.624031571755259 C-83.41151936930638 -13.824655612507522, -83.12390972026208 -14.025279653259785, -82.80534332057934 -14.247497783161284 C-82.51077566267841 -14.426066428452527, -82.2162080047775 -14.60463507374377, -81.87344838406695 -14.812417970097618 C-81.64436178349474 -14.931932302879163, -81.41527518292254 -15.05144663566071, -80.90727356499849 -15.316470754341124 C-80.52009103981511 -15.48786497287827, -80.13290851463174 -15.659259191415416, -79.91078908294936 -15.757584874882365 C-79.69030174727934 -15.838726252571526, -79.4698144116093 -15.919867630260685, -78.88808970640156 -16.133947699181363 C-78.54686409396481 -16.235221669822796, -78.20563848152808 -16.336495640464232, -77.84337792646164 -16.444012671663494 C-77.45223795690798 -16.533287817287277, -77.06109798735433 -16.622562962911065, -76.78094668792333 -16.68650566884811 C-76.38534453829722 -16.75046355645917, -75.98974238867109 -16.81442144407023, -75.70516174863661 -16.86043023499518 C-75.43179069007725 -16.886802012237602, -75.15841963151789 -16.913173789480027, -74.62044373967213 -16.965071676755716 C-74.33791807942453 -16.97413172477702, -74.05539241917693 -16.983191772798325, -73.53125 -17 C-73.53125 -17, -73.53125 -17, -73.53125 -17" stroke="none" stroke-width="0" fill="#ECECFF" style=""></path><path d="M-73.53125 -17 C-42.16097658515096 -17, -10.790703170301924 -17, 73.53125 -17 M-73.53125 -17 C-32.74830172929033 -17, 8.034646541419335 -17, 73.53125 -17 M73.53125 -17 C73.53125 -17, 73.53125 -17, 73.53125 -17 M73.53125 -17 C73.53125 -17, 73.53125 -17, 73.53125 -17 M73.53125 -17 C73.920233195049 -16.987526066044637, 74.309216390098 -16.97505213208927, 74.62044373967211 -16.965071676755716 M73.53125 -17 C73.88282606227229 -16.988725639984217, 74.23440212454459 -16.977451279968438, 74.62044373967211 -16.965071676755716 M74.62044373967211 -16.965071676755716 C75.00383360731082 -16.928086517318388, 75.38722347494955 -16.891101357881055, 75.7051617486366 -16.860430234995185 M74.62044373967211 -16.965071676755716 C75.01840995117055 -16.926680354956858, 75.41637616266898 -16.888289033158, 75.7051617486366 -16.860430234995185 M75.7051617486366 -16.860430234995185 C76.01847901505614 -16.809775529172164, 76.33179628147569 -16.759120823349143, 76.78094668792333 -16.686505668848113 M75.7051617486366 -16.860430234995185 C76.11586659148102 -16.794030661067726, 76.52657143432545 -16.727631087140264, 76.78094668792333 -16.686505668848113 M76.78094668792333 -16.686505668848113 C77.14484856626666 -16.60344743979793, 77.50875044460999 -16.520389210747744, 77.84337792646163 -16.4440126716635 M76.78094668792333 -16.686505668848113 C77.02003327035382 -16.63193571659411, 77.2591198527843 -16.57736576434011, 77.84337792646163 -16.4440126716635 M77.84337792646163 -16.4440126716635 C78.17792796102609 -16.34471997749374, 78.51247799559053 -16.245427283323973, 78.88808970640156 -16.133947699181366 M77.84337792646163 -16.4440126716635 C78.14158991363016 -16.355504919218546, 78.43980190079867 -16.266997166773592, 78.88808970640156 -16.133947699181366 M78.88808970640156 -16.133947699181366 C79.26701520617297 -15.994499612516565, 79.64594070594437 -15.855051525851765, 79.91078908294936 -15.757584874882369 M78.88808970640156 -16.133947699181366 C79.19529026212855 -16.020895054943022, 79.50249081785556 -15.90784241070468, 79.91078908294936 -15.757584874882369 M79.91078908294936 -15.757584874882369 C80.1764047827875 -15.640004683773812, 80.44202048262565 -15.522424492665253, 80.90727356499849 -15.316470754341125 M79.91078908294936 -15.757584874882369 C80.30750007141468 -15.581972688302127, 80.70421105988001 -15.406360501721885, 80.90727356499849 -15.316470754341125 M80.90727356499849 -15.316470754341125 C81.22788386901202 -15.149208564097966, 81.54849417302555 -14.981946373854807, 81.87344838406693 -14.812417970097622 M80.90727356499849 -15.316470754341125 C81.26202046878934 -15.131399521859668, 81.61676737258021 -14.946328289378213, 81.87344838406693 -14.812417970097622 M81.87344838406693 -14.812417970097622 C82.15174842873111 -14.643710847549599, 82.43004847339529 -14.475003725001576, 82.80534332057933 -14.247497783161291 M81.87344838406693 -14.812417970097622 C82.19013220140154 -14.620442378988704, 82.50681601873613 -14.428466787879787, 82.80534332057933 -14.247497783161291 M82.80534332057933 -14.247497783161291 C83.0785720545363 -14.05690524623417, 83.35180078849326 -13.866312709307048, 83.69912901835067 -13.624031571755262 M82.80534332057933 -14.247497783161291 C83.05584451649496 -14.072758992912547, 83.30634571241058 -13.898020202663805, 83.69912901835067 -13.624031571755262 M83.69912901835067 -13.624031571755262 C83.91609109395117 -13.451010090067179, 84.13305316955166 -13.277988608379097, 84.5511327202324 -12.944581292275288 M83.69912901835067 -13.624031571755262 C84.00482334627803 -13.380248480100903, 84.3105176742054 -13.136465388446542, 84.5511327202324 -12.944581292275288 M84.5511327202324 -12.944581292275288 C84.79621185130375 -12.722006909874754, 85.04129098237512 -12.499432527474218, 85.35785336025927 -12.21193895166137 M84.5511327202324 -12.944581292275288 C84.83135009221235 -12.69009528918848, 85.11156746419229 -12.435609286101675, 85.35785336025927 -12.21193895166137 M85.35785336025927 -12.21193895166137 C85.5129342036186 -12.051805248518829, 85.66801504697793 -11.891671545376289, 86.11597595028036 -11.42911513444239 M85.35785336025927 -12.21193895166137 C85.51985807245573 -12.04465578548428, 85.68186278465221 -11.877372619307192, 86.11597595028036 -11.42911513444239 M86.11597595028036 -11.42911513444239 C86.3200855939616 -11.189356332806666, 86.52419523764284 -10.94959753117094, 86.82238520195651 -10.59932663159847 M86.11597595028036 -11.42911513444239 C86.27976624133738 -11.236717738635221, 86.44355653239441 -11.044320342828053, 86.82238520195651 -10.59932663159847 M86.82238520195651 -10.59932663159847 C87.06931683759623 -10.268460735776024, 87.31624847323596 -9.93759483995358, 87.47417832814824 -9.725983222076888 M86.82238520195651 -10.59932663159847 C86.97758764970564 -10.391369490848486, 87.13279009745479 -10.1834123500985, 87.47417832814824 -9.725983222076888 M87.47417832814824 -9.725983222076888 C87.62731075179694 -9.490730697539133, 87.78044317544565 -9.255478173001379, 88.06867697109088 -8.812673661278927 M87.47417832814824 -9.725983222076888 C87.66279519285322 -9.436217067170102, 87.85141205755819 -9.146450912263317, 88.06867697109088 -8.812673661278927 M88.06867697109088 -8.812673661278927 C88.26754283731361 -8.4595671784479, 88.46640870353635 -8.106460695616871, 88.603438208341 -7.863150934094199 M88.06867697109088 -8.812673661278927 C88.18676598479368 -8.602994659640302, 88.3048549984965 -8.393315658001676, 88.603438208341 -7.863150934094199 M88.603438208341 -7.863150934094199 C88.70346999228023 -7.655432794407074, 88.80350177621948 -7.447714654719948, 89.07626459126881 -6.881316833080699 M88.603438208341 -7.863150934094199 C88.74829854657705 -7.562345342232343, 88.89315888481309 -7.261539750370485, 89.07626459126881 -6.881316833080699 M89.07626459126881 -6.881316833080699 C89.2387530998853 -6.479967075296374, 89.40124160850179 -6.07861731751205, 89.48521317484592 -5.871205925162238 M89.07626459126881 -6.881316833080699 C89.21213421857871 -6.545716226764714, 89.3480038458886 -6.21011562044873, 89.48521317484592 -5.871205925162238 M89.48521317484592 -5.871205925162238 C89.56164796719011 -5.640996508851875, 89.6380827595343 -5.410787092541511, 89.82860350162323 -4.836968972727556 M89.48521317484592 -5.871205925162238 C89.57138557474197 -5.611668386382767, 89.657557974638 -5.352130847603297, 89.82860350162323 -4.836968972727556 M89.82860350162323 -4.836968972727556 C89.90918928367974 -4.52966045964724, 89.98977506573624 -4.222351946566925, 90.105024507091 -3.7828558772573464 M89.82860350162323 -4.836968972727556 C89.90620575570586 -4.541037944880834, 89.98380800978849 -4.245106917034113, 90.105024507091 -3.7828558772573464 M90.105024507091 -3.7828558772573464 C90.18319492975546 -3.3814672782000144, 90.26136535241992 -2.9800786791426823, 90.31334031804565 -2.713198215567453 M90.105024507091 -3.7828558772573464 C90.17723773319963 -3.4120562234602434, 90.24945095930828 -3.041256569663141, 90.31334031804565 -2.713198215567453 M90.31334031804565 -2.713198215567453 C90.35045764093583 -2.425323588875648, 90.38757496382601 -2.1374489621838433, 90.45269492013637 -1.632391440430593 M90.31334031804565 -2.713198215567453 C90.34580856456739 -2.4613809071252946, 90.37827681108914 -2.209563598683136, 90.45269492013637 -1.632391440430593 M90.45269492013637 -1.632391440430593 C90.4733265775757 -1.3110367222388606, 90.49395823501503 -0.989682004047128, 90.5225156754117 -0.5448768187181379 M90.45269492013637 -1.632391440430593 C90.4725507918945 -1.3231202104265012, 90.49240666365263 -1.0138489804224093, 90.5225156754117 -0.5448768187181379 M90.5225156754117 -0.5448768187181379 C90.5225156754117 -0.27018374274359386, 90.5225156754117 0.004509333230950152, 90.5225156754117 0.5448768187181336 M90.5225156754117 -0.5448768187181379 C90.5225156754117 -0.2940622946808472, 90.5225156754117 -0.04324777064355656, 90.5225156754117 0.5448768187181336 M90.5225156754117 0.5448768187181336 C90.49700735513031 0.9421894970461782, 90.47149903484893 1.3395021753742227, 90.45269492013637 1.6323914404305815 M90.5225156754117 0.5448768187181336 C90.50443963111813 0.8264257993107937, 90.48636358682455 1.1079747799034538, 90.45269492013637 1.6323914404305815 M90.45269492013637 1.6323914404305815 C90.42008717043578 1.8852907079798324, 90.38747942073519 2.1381899755290834, 90.31334031804565 2.7131982155674415 M90.45269492013637 1.6323914404305815 C90.3980748630581 2.056013817179397, 90.34345480597983 2.4796361939282123, 90.31334031804565 2.7131982155674415 M90.31334031804565 2.7131982155674415 C90.24149941228355 3.082086083075032, 90.16965850652144 3.450973950582623, 90.105024507091 3.782855877257343 M90.31334031804565 2.7131982155674415 C90.24886202192032 3.0442806386782935, 90.18438372579499 3.3753630617891455, 90.105024507091 3.782855877257343 M90.105024507091 3.782855877257343 C90.04687639688665 4.004599823016923, 89.9887282866823 4.226343768776502, 89.82860350162323 4.836968972727545 M90.105024507091 3.782855877257343 C90.03515269575178 4.049307376528428, 89.96528088441254 4.315758875799514, 89.82860350162323 4.836968972727545 M89.82860350162323 4.836968972727545 C89.69482561567544 5.23988665059076, 89.56104772972763 5.642804328453974, 89.48521317484592 5.871205925162227 M89.82860350162323 4.836968972727545 C89.75663565864102 5.053724649271377, 89.6846678156588 5.270480325815209, 89.48521317484592 5.871205925162227 M89.48521317484592 5.871205925162227 C89.37501969728235 6.143385945190198, 89.26482621971878 6.415565965218169, 89.07626459126881 6.881316833080694 M89.48521317484592 5.871205925162227 C89.38936138735926 6.107961693422539, 89.29350959987259 6.344717461682853, 89.07626459126881 6.881316833080694 M89.07626459126881 6.881316833080694 C88.91923377730865 7.207394678190156, 88.76220296334847 7.533472523299619, 88.603438208341 7.863150934094196 M89.07626459126881 6.881316833080694 C88.9118891570667 7.222645939272248, 88.74751372286458 7.563975045463803, 88.603438208341 7.863150934094196 M88.603438208341 7.863150934094196 C88.45131543408368 8.133260323889328, 88.29919265982636 8.40336971368446, 88.06867697109088 8.812673661278923 M88.603438208341 7.863150934094196 C88.45702092944302 8.12312963913477, 88.31060365054503 8.383108344175346, 88.06867697109088 8.812673661278923 M88.06867697109088 8.812673661278923 C87.87570882549402 9.109124552118187, 87.68274067989714 9.405575442957451, 87.47417832814826 9.725983222076879 M88.06867697109088 8.812673661278923 C87.8519835161867 9.145572998351794, 87.63529006128253 9.478472335424662, 87.47417832814826 9.725983222076879 M87.47417832814826 9.725983222076879 C87.24492632493997 10.033160021088845, 87.01567432173167 10.340336820100813, 86.82238520195651 10.599326631598467 M87.47417832814826 9.725983222076879 C87.30316227207413 9.955129157332985, 87.13214621600001 10.184275092589091, 86.82238520195651 10.599326631598467 M86.82238520195651 10.599326631598467 C86.6355765766696 10.818762672572367, 86.4487679513827 11.038198713546267, 86.11597595028037 11.42911513444238 M86.82238520195651 10.599326631598467 C86.67760311086866 10.769395914124619, 86.53282101978081 10.93946519665077, 86.11597595028037 11.42911513444238 M86.11597595028037 11.42911513444238 C85.8928798949808 11.659480128065972, 85.66978383968122 11.889845121689564, 85.35785336025927 12.211938951661365 M86.11597595028037 11.42911513444238 C85.87301132381347 11.679996059036268, 85.63004669734656 11.930876983630156, 85.35785336025927 12.211938951661365 M85.35785336025927 12.211938951661365 C85.12631316873261 12.422217627388118, 84.89477297720595 12.632496303114873, 84.55113272023242 12.944581292275275 M85.35785336025927 12.211938951661365 C85.13833166099516 12.411302750707147, 84.91880996173106 12.61066654975293, 84.55113272023242 12.944581292275275 M84.55113272023242 12.944581292275275 C84.23706324788031 13.195043338736419, 83.9229937755282 13.445505385197563, 83.69912901835067 13.62403157175526 M84.55113272023242 12.944581292275275 C84.37102026974414 13.088216178546077, 84.19090781925586 13.231851064816876, 83.69912901835067 13.62403157175526 M83.69912901835067 13.62403157175526 C83.47177496792007 13.782623915337437, 83.24442091748945 13.941216258919614, 82.80534332057934 14.247497783161286 M83.69912901835067 13.62403157175526 C83.37909888369926 13.847270739806843, 83.05906874904785 14.070509907858424, 82.80534332057934 14.247497783161286 M82.80534332057934 14.247497783161286 C82.51230175607878 14.42514130166491, 82.21926019157821 14.602784820168536, 81.87344838406695 14.81241797009762 M82.80534332057934 14.247497783161286 C82.60011793677455 14.371906616861976, 82.39489255296975 14.496315450562665, 81.87344838406695 14.81241797009762 M81.87344838406695 14.81241797009762 C81.65293581397255 14.927459236670824, 81.43242324387816 15.042500503244026, 80.90727356499849 15.316470754341124 M81.87344838406695 14.81241797009762 C81.54907384724523 14.981643958185705, 81.2246993104235 15.150869946273792, 80.90727356499849 15.316470754341124 M80.90727356499849 15.316470754341124 C80.69633600897275 15.409846553153438, 80.48539845294702 15.50322235196575, 79.91078908294936 15.757584874882367 M80.90727356499849 15.316470754341124 C80.64150525455963 15.434118501635588, 80.37573694412076 15.551766248930054, 79.91078908294936 15.757584874882367 M79.91078908294936 15.757584874882367 C79.5569783372863 15.887790499877056, 79.20316759162323 16.017996124871747, 78.88808970640156 16.133947699181363 M79.91078908294936 15.757584874882367 C79.59735249000822 15.872932438460813, 79.28391589706706 15.988280002039259, 78.88808970640156 16.133947699181363 M78.88808970640156 16.133947699181363 C78.58181809972379 16.224847504390855, 78.27554649304604 16.315747309600347, 77.84337792646164 16.444012671663497 M78.88808970640156 16.133947699181363 C78.64187498636429 16.20702293568099, 78.395660266327 16.280098172180615, 77.84337792646164 16.444012671663497 M77.84337792646164 16.444012671663497 C77.58524997066651 16.502928693131405, 77.32712201487138 16.56184471459931, 76.78094668792333 16.68650566884811 M77.84337792646164 16.444012671663497 C77.60358143187769 16.49874465673392, 77.36378493729373 16.553476641804338, 76.78094668792333 16.68650566884811 M76.78094668792333 16.68650566884811 C76.54449297724736 16.72473367106429, 76.30803926657138 16.76296167328047, 75.70516174863661 16.86043023499518 M76.78094668792333 16.68650566884811 C76.35869139242754 16.754772630385144, 75.93643609693174 16.823039591922182, 75.70516174863661 16.86043023499518 M75.70516174863661 16.86043023499518 C75.327734407878 16.896840196635377, 74.95030706711938 16.933250158275573, 74.62044373967211 16.965071676755716 M75.70516174863661 16.86043023499518 C75.33864733174268 16.895787439994862, 74.97213291484874 16.931144644994543, 74.62044373967211 16.965071676755716 M74.62044373967211 16.965071676755716 C74.20423865630102 16.978418563685377, 73.78803357292992 16.99176545061504, 73.53125 17 M74.62044373967211 16.965071676755716 C74.38411868646595 16.97265016123323, 74.14779363325978 16.98022864571074, 73.53125 17 M73.53125 17 C73.53125 17, 73.53125 17, 73.53125 17 M73.53125 17 C73.53125 17, 73.53125 17, 73.53125 17 M73.53125 17 C16.262981718326664 17, -41.00528656334667 17, -73.53125 17 M73.53125 17 C21.8793626631005 17, -29.772524673798998 17, -73.53125 17 M-73.53125 17 C-73.8605817380934 16.989438972164685, -74.18991347618679 16.97887794432937, -74.62044373967211 16.965071676755716 M-73.53125 17 C-73.78062427812625 16.992003052278076, -74.02999855625252 16.984006104556155, -74.62044373967211 16.965071676755716 M-74.62044373967211 16.965071676755716 C-75.04605688314324 16.924013288679753, -75.47167002661438 16.882954900603785, -75.7051617486366 16.86043023499518 M-74.62044373967211 16.965071676755716 C-74.93768728074973 16.934467573889137, -75.25493082182733 16.90386347102256, -75.7051617486366 16.86043023499518 M-75.7051617486366 16.86043023499518 C-76.07003808941326 16.801439857876694, -76.43491443018992 16.74244948075821, -76.78094668792333 16.68650566884811 M-75.7051617486366 16.86043023499518 C-75.94150080085237 16.82222076986966, -76.17783985306814 16.78401130474414, -76.78094668792333 16.68650566884811 M-76.78094668792333 16.68650566884811 C-77.10568962199697 16.61238521329149, -77.43043255607061 16.538264757734872, -77.84337792646161 16.4440126716635 M-76.78094668792333 16.68650566884811 C-77.12094956555336 16.60890223075518, -77.4609524431834 16.531298792662252, -77.84337792646161 16.4440126716635 M-77.84337792646161 16.4440126716635 C-78.09668013422689 16.36883390600919, -78.34998234199216 16.29365514035488, -78.88808970640154 16.13394769918137 M-77.84337792646161 16.4440126716635 C-78.14881789584591 16.353359692037362, -78.45425786523019 16.26270671241122, -78.88808970640154 16.13394769918137 M-78.88808970640154 16.13394769918137 C-79.25003704208667 16.000747733844747, -79.61198437777182 15.867547768508121, -79.91078908294936 15.757584874882369 M-78.88808970640154 16.13394769918137 C-79.25119525538865 16.000321500643214, -79.61430080437576 15.86669530210506, -79.91078908294936 15.757584874882369 M-79.91078908294936 15.757584874882369 C-80.14089787050007 15.655722540568332, -80.37100665805076 15.553860206254294, -80.90727356499849 15.316470754341127 M-79.91078908294936 15.757584874882369 C-80.16751510470131 15.64393988055964, -80.42424112645324 15.530294886236915, -80.90727356499849 15.316470754341127 M-80.90727356499849 15.316470754341127 C-81.26514749806513 15.129768152689453, -81.62302143113178 14.943065551037778, -81.87344838406693 14.812417970097624 M-80.90727356499849 15.316470754341127 C-81.2036870729735 15.161832017092477, -81.50010058094851 15.007193279843827, -81.87344838406693 14.812417970097624 M-81.87344838406693 14.812417970097624 C-82.16360946778869 14.6365206159697, -82.45377055151043 14.460623261841773, -82.80534332057931 14.247497783161299 M-81.87344838406693 14.812417970097624 C-82.16621301311004 14.634942331495763, -82.45897764215314 14.457466692893902, -82.80534332057931 14.247497783161299 M-82.80534332057931 14.247497783161299 C-83.05264519455442 14.07499070140185, -83.29994706852952 13.902483619642402, -83.69912901835067 13.624031571755264 M-82.80534332057931 14.247497783161299 C-83.04294286895686 14.081758623731803, -83.2805424173344 13.916019464302307, -83.69912901835067 13.624031571755264 M-83.69912901835067 13.624031571755264 C-83.90700692802773 13.458254470651314, -84.11488483770478 13.292477369547363, -84.5511327202324 12.94458129227529 M-83.69912901835067 13.624031571755264 C-84.0219575336134 13.366584421660823, -84.34478604887613 13.109137271566384, -84.5511327202324 12.94458129227529 M-84.5511327202324 12.94458129227529 C-84.7506742089879 12.763362991766027, -84.95021569774339 12.582144691256765, -85.35785336025926 12.211938951661377 M-84.5511327202324 12.94458129227529 C-84.72331304290219 12.788211678868285, -84.89549336557198 12.63184206546128, -85.35785336025926 12.211938951661377 M-85.35785336025926 12.211938951661377 C-85.61869894569587 11.942594468877235, -85.87954453113247 11.673249986093092, -86.11597595028036 11.429115134442386 M-85.35785336025926 12.211938951661377 C-85.65575397981401 11.904332103875365, -85.95365459936878 11.596725256089353, -86.11597595028036 11.429115134442386 M-86.11597595028036 11.429115134442386 C-86.26631476563202 11.252518607409403, -86.41665358098366 11.07592208037642, -86.82238520195651 10.599326631598473 M-86.11597595028036 11.429115134442386 C-86.38067462816413 11.118185005618654, -86.6453733060479 10.807254876794923, -86.82238520195651 10.599326631598473 M-86.82238520195651 10.599326631598473 C-87.0603188277298 10.280517249261488, -87.2982524535031 9.9617078669245, -87.47417832814824 9.72598322207689 M-86.82238520195651 10.599326631598473 C-87.04454879498891 10.301647656454731, -87.26671238802133 10.003968681310988, -87.47417832814824 9.72598322207689 M-87.47417832814824 9.72598322207689 C-87.66676742072461 9.430114658467119, -87.85935651330097 9.134246094857348, -88.06867697109088 8.812673661278936 M-87.47417832814824 9.72598322207689 C-87.67889556685303 9.411482569150616, -87.88361280555783 9.096981916224342, -88.06867697109088 8.812673661278936 M-88.06867697109088 8.812673661278936 C-88.27817479014304 8.44068906959728, -88.4876726091952 8.068704477915622, -88.603438208341 7.863150934094201 M-88.06867697109088 8.812673661278936 C-88.28246362835476 8.433073803060408, -88.49625028561864 8.053473944841878, -88.603438208341 7.863150934094201 M-88.603438208341 7.863150934094201 C-88.72117970025282 7.618658206874964, -88.83892119216463 7.374165479655728, -89.07626459126881 6.881316833080701 M-88.603438208341 7.863150934094201 C-88.7850874807598 7.485952333244784, -88.96673675317858 7.108753732395366, -89.07626459126881 6.881316833080701 M-89.07626459126881 6.881316833080701 C-89.1740719537149 6.639730756862146, -89.27187931616099 6.3981446806435915, -89.48521317484592 5.87120592516224 M-89.07626459126881 6.881316833080701 C-89.15978735239803 6.675013998288808, -89.24331011352724 6.4687111634969146, -89.48521317484592 5.87120592516224 M-89.48521317484592 5.87120592516224 C-89.58730016809085 5.563736166862018, -89.68938716133577 5.256266408561797, -89.82860350162323 4.8369689727275516 M-89.48521317484592 5.87120592516224 C-89.56235424678765 5.638869307234467, -89.63949531872937 5.406532689306694, -89.82860350162323 4.8369689727275516 M-89.82860350162323 4.8369689727275516 C-89.88517799000549 4.621225928987662, -89.94175247838774 4.405482885247771, -90.105024507091 3.782855877257349 M-89.82860350162323 4.8369689727275516 C-89.93389883815456 4.435432219246094, -90.03919417468587 4.033895465764636, -90.105024507091 3.782855877257349 M-90.105024507091 3.782855877257349 C-90.15234261237109 3.539887407329169, -90.19966071765118 3.2969189374009886, -90.31334031804565 2.713198215567455 M-90.105024507091 3.782855877257349 C-90.16647282561112 3.4673317487632316, -90.22792114413124 3.151807620269114, -90.31334031804565 2.713198215567455 M-90.31334031804565 2.713198215567455 C-90.36651317130402 2.3008000658630303, -90.4196860245624 1.8884019161586059, -90.45269492013637 1.6323914404306026 M-90.31334031804565 2.713198215567455 C-90.36319748010726 2.3265159120278787, -90.41305464216886 1.9398336084883019, -90.45269492013637 1.6323914404306026 M-90.45269492013637 1.6323914404306026 C-90.472969275072 1.3166019971433538, -90.49324363000764 1.000812553856105, -90.5225156754117 0.54487681871814 M-90.45269492013637 1.6323914404306026 C-90.47491534227075 1.2862904296856739, -90.49713576440513 0.9401894189407454, -90.5225156754117 0.54487681871814 M-90.5225156754117 0.54487681871814 C-90.5225156754117 0.2011349516428803, -90.5225156754117 -0.14260691543237936, -90.5225156754117 -0.5448768187181317 M-90.5225156754117 0.54487681871814 C-90.5225156754117 0.2634513194240348, -90.5225156754117 -0.017974179870070328, -90.5225156754117 -0.5448768187181317 M-90.5225156754117 -0.5448768187181317 C-90.4977111195816 -0.93122779764905, -90.4729065637515 -1.3175787765799685, -90.45269492013637 -1.6323914404305793 M-90.5225156754117 -0.5448768187181317 C-90.49476477161932 -0.9771195454108774, -90.46701386782692 -1.4093622721036234, -90.45269492013637 -1.6323914404305793 M-90.45269492013637 -1.6323914404305793 C-90.40018912776374 -2.0396159976311865, -90.34768333539112 -2.446840554831794, -90.31334031804565 -2.713198215567447 M-90.45269492013637 -1.6323914404305793 C-90.40581624115518 -1.9959732173664286, -90.35893756217399 -2.359554994302278, -90.31334031804565 -2.713198215567447 M-90.31334031804565 -2.713198215567447 C-90.27077356728104 -2.9317694842577238, -90.22820681651645 -3.1503407529480008, -90.105024507091 -3.782855877257341 M-90.31334031804565 -2.713198215567447 C-90.26717303426162 -2.9502574603395706, -90.22100575047759 -3.187316705111695, -90.105024507091 -3.782855877257341 M-90.105024507091 -3.782855877257341 C-90.00837991156746 -4.151403606021253, -89.91173531604393 -4.519951334785165, -89.82860350162323 -4.836968972727544 M-90.105024507091 -3.782855877257341 C-90.03776757241967 -4.0393357184989975, -89.97051063774835 -4.295815559740654, -89.82860350162323 -4.836968972727544 M-89.82860350162323 -4.836968972727544 C-89.71042947408961 -5.1928903151845, -89.59225544655598 -5.548811657641457, -89.48521317484594 -5.871205925162218 M-89.82860350162323 -4.836968972727544 C-89.69916045663912 -5.226830800271277, -89.569717411655 -5.61669262781501, -89.48521317484594 -5.871205925162218 M-89.48521317484594 -5.871205925162218 C-89.40274239968747 -6.074910334267608, -89.320271624529 -6.278614743372998, -89.07626459126881 -6.881316833080692 M-89.48521317484594 -5.871205925162218 C-89.38575570493306 -6.116867798726398, -89.28629823502017 -6.362529672290578, -89.07626459126881 -6.881316833080692 M-89.07626459126881 -6.881316833080692 C-88.924637194726 -7.196174366308403, -88.77300979818318 -7.511031899536113, -88.603438208341 -7.863150934094194 M-89.07626459126881 -6.881316833080692 C-88.97751412005589 -7.086374299475923, -88.87876364884298 -7.291431765871153, -88.603438208341 -7.863150934094194 M-88.603438208341 -7.863150934094194 C-88.45915640503897 -8.119337885973808, -88.31487460173693 -8.375524837853423, -88.06867697109088 -8.812673661278929 M-88.603438208341 -7.863150934094194 C-88.40078555863829 -8.22298123444734, -88.19813290893558 -8.582811534800488, -88.06867697109088 -8.812673661278929 M-88.06867697109088 -8.812673661278929 C-87.85890489502737 -9.134939901802088, -87.64913281896386 -9.45720614232525, -87.47417832814826 -9.725983222076884 M-88.06867697109088 -8.812673661278929 C-87.87745652918414 -9.106439609926003, -87.6862360872774 -9.400205558573075, -87.47417832814826 -9.725983222076884 M-87.47417832814826 -9.725983222076884 C-87.22491818417515 -10.059969106934576, -86.97565804020205 -10.393954991792267, -86.82238520195651 -10.599326631598467 M-87.47417832814826 -9.725983222076884 C-87.23896454203621 -10.041148267050282, -87.00375075592416 -10.35631331202368, -86.82238520195651 -10.599326631598467 M-86.82238520195651 -10.599326631598467 C-86.6172045555723 -10.840343493950883, -86.4120239091881 -11.081360356303298, -86.11597595028037 -11.42911513444238 M-86.82238520195651 -10.599326631598467 C-86.58269291525066 -10.880882830440635, -86.34300062854483 -11.162439029282803, -86.11597595028037 -11.42911513444238 M-86.11597595028037 -11.42911513444238 C-85.9239748040947 -11.627372081466344, -85.73197365790904 -11.825629028490306, -85.35785336025927 -12.21193895166136 M-86.11597595028037 -11.42911513444238 C-85.9086857736633 -11.643159260639512, -85.70139559704623 -11.857203386836643, -85.35785336025927 -12.21193895166136 M-85.35785336025927 -12.21193895166136 C-85.18831114553322 -12.365912705234377, -85.01876893080717 -12.519886458807395, -84.55113272023242 -12.944581292275274 M-85.35785336025927 -12.21193895166136 C-85.09292875182116 -12.452536471523823, -84.82800414338305 -12.693133991386286, -84.55113272023242 -12.944581292275274 M-84.55113272023242 -12.944581292275274 C-84.35925172544444 -13.097601279450966, -84.16737073065647 -13.250621266626657, -83.69912901835067 -13.624031571755259 M-84.55113272023242 -12.944581292275274 C-84.35323789394684 -13.10239715003553, -84.15534306766125 -13.260213007795787, -83.69912901835067 -13.624031571755259 M-83.69912901835067 -13.624031571755259 C-83.51697038401593 -13.751097549546987, -83.3348117496812 -13.878163527338717, -82.80534332057934 -14.247497783161284 M-83.69912901835067 -13.624031571755259 C-83.50112458729986 -13.762150891382637, -83.30312015624904 -13.900270211010016, -82.80534332057934 -14.247497783161284 M-82.80534332057934 -14.247497783161284 C-82.6118610665834 -14.364787862561553, -82.41837881258748 -14.48207794196182, -81.87344838406695 -14.812417970097618 M-82.80534332057934 -14.247497783161284 C-82.56487838284663 -14.39326904154368, -82.32441344511392 -14.539040299926079, -81.87344838406695 -14.812417970097618 M-81.87344838406695 -14.812417970097618 C-81.59081610909263 -14.959867046917104, -81.30818383411832 -15.107316123736592, -80.90727356499849 -15.316470754341124 M-81.87344838406695 -14.812417970097618 C-81.52695772031073 -14.993181927441373, -81.18046705655452 -15.173945884785127, -80.90727356499849 -15.316470754341124 M-80.90727356499849 -15.316470754341124 C-80.51546369062184 -15.489913363100692, -80.1236538162452 -15.663355971860263, -79.91078908294936 -15.757584874882365 M-80.90727356499849 -15.316470754341124 C-80.56981296151814 -15.46585455308874, -80.2323523580378 -15.615238351836357, -79.91078908294936 -15.757584874882365 M-79.91078908294936 -15.757584874882365 C-79.54690340934798 -15.891498166489967, -79.1830177357466 -16.02541145809757, -78.88808970640156 -16.133947699181363 M-79.91078908294936 -15.757584874882365 C-79.70226775887652 -15.834322649691163, -79.49374643480367 -15.911060424499963, -78.88808970640156 -16.133947699181363 M-78.88808970640156 -16.133947699181363 C-78.58487466091401 -16.223940333073816, -78.28165961542646 -16.31393296696627, -77.84337792646164 -16.444012671663494 M-78.88808970640156 -16.133947699181363 C-78.53252593142463 -16.239477161202174, -78.1769621564477 -16.345006623222986, -77.84337792646164 -16.444012671663494 M-77.84337792646164 -16.444012671663494 C-77.60592642376666 -16.49820942763776, -77.36847492107168 -16.552406183612025, -76.78094668792333 -16.68650566884811 M-77.84337792646164 -16.444012671663494 C-77.61108811386532 -16.497031305555915, -77.37879830126901 -16.550049939448336, -76.78094668792333 -16.68650566884811 M-76.78094668792333 -16.68650566884811 C-76.52438399890045 -16.727984734735962, -76.26782130987755 -16.769463800623814, -75.70516174863661 -16.86043023499518 M-76.78094668792333 -16.68650566884811 C-76.38710507245588 -16.750178926949545, -75.99326345698843 -16.813852185050976, -75.70516174863661 -16.86043023499518 M-75.70516174863661 -16.86043023499518 C-75.3095879644044 -16.898590762212983, -74.91401418017219 -16.936751289430788, -74.62044373967213 -16.965071676755716 M-75.70516174863661 -16.86043023499518 C-75.3720919441136 -16.89256107846247, -75.03902213959061 -16.924691921929757, -74.62044373967213 -16.965071676755716 M-74.62044373967213 -16.965071676755716 C-74.32601318918783 -16.97451349143545, -74.03158263870355 -16.983955306115178, -73.53125 -17 M-74.62044373967213 -16.965071676755716 C-74.22391112797563 -16.977787705808918, -73.82737851627913 -16.990503734862116, -73.53125 -17 M-73.53125 -17 C-73.53125 -17, -73.53125 -17, -73.53125 -17 M-73.53125 -17 C-73.53125 -17, -73.53125 -17, -73.53125 -17" stroke="#9370DB" stroke-width="1.3" fill="none" stroke-dasharray="0 0" style=""></path></g><g class="label" style="" transform="translate(0, -9.5)"><rect></rect><g><rect class="background" style="stroke: none"></rect><text y="-10.1" style=""><tspan class="text-outer-tspan row" x="0" y="-0.1em" dy="1.1em"><tspan font-style="normal" class="text-inner-tspan" font-weight="normal">rendering</tspan><tspan font-style="normal" class="text-inner-tspan" font-weight="normal"> opportunity</tspan></tspan></text></g></g></g><g class="node default" id="g33eeac9a-f89d-4e31-9b7a-1f89f5dc8c2d-flip-flowchart-rs-1" data-look="classic" transform="translate(167.4453125, 116.5)"><rect class="basic label-container" style="" x="-74.6875" y="-24.5" width="149.375" height="49"></rect><g class="label" style="" transform="translate(0, -9.5)"><rect></rect><g><rect class="background" style="stroke: none"></rect><text y="-10.1" style=""><tspan class="text-outer-tspan row" x="0" y="-0.1em" dy="1.1em"><tspan font-style="normal" class="text-inner-tspan" font-weight="normal">recalc</tspan><tspan font-style="normal" class="text-inner-tspan" font-weight="normal"> styles</tspan></tspan></text></g></g></g><g class="node default" id="g33eeac9a-f89d-4e31-9b7a-1f89f5dc8c2d-flip-flowchart-ul-2" data-look="classic" transform="translate(167.4453125, 215.5)"><rect class="basic label-container" style="" x="-79.78125" y="-24.5" width="159.5625" height="49"></rect><g class="label" style="" transform="translate(0, -9.5)"><rect></rect><g><rect class="background" style="stroke: none"></rect><text y="-10.1" style=""><tspan class="text-outer-tspan row" x="0" y="-0.1em" dy="1.1em"><tspan font-style="normal" class="text-inner-tspan" font-weight="normal">update</tspan><tspan font-style="normal" class="text-inner-tspan" font-weight="normal"> layout</tspan></tspan></text></g></g></g><g class="node default" id="g33eeac9a-f89d-4e31-9b7a-1f89f5dc8c2d-flip-flowchart-gather-3" data-look="classic" transform="translate(167.4453125, 314.5)"><rect class="basic label-container" style="" x="-124.8984375" y="-24.5" width="249.796875" height="49"></rect><g class="label" style="" transform="translate(0, -9.5)"><rect></rect><g><rect class="background" style="stroke: none"></rect><text y="-10.1" style=""><tspan class="text-outer-tspan row" x="0" y="-0.1em" dy="1.1em"><tspan font-style="normal" class="text-inner-tspan" font-weight="normal">gather</tspan><tspan font-style="normal" class="text-inner-tspan" font-weight="normal"> active</tspan><tspan font-style="normal" class="text-inner-tspan" font-weight="normal"> observations</tspan></tspan></text></g></g></g><g class="node default" id="g33eeac9a-f89d-4e31-9b7a-1f89f5dc8c2d-flip-flowchart-any-5" data-look="classic" transform="translate(167.4453125, 438.3359375)"><polygon points="49.3359375,0 98.671875,-49.3359375 49.3359375,-98.671875 0,-49.3359375" class="label-container" transform="translate(-48.8359375, 49.3359375)"></polygon><g class="label" style="" transform="translate(0, -9.5)"><rect></rect><g><rect class="background" style="stroke: none"></rect><text y="-10.1" style=""><tspan class="text-outer-tspan row" x="0" y="-0.1em" dy="1.1em"><tspan font-style="normal" class="text-inner-tspan" font-weight="normal">active?</tspan></tspan></text></g></g></g><g class="node default" id="g33eeac9a-f89d-4e31-9b7a-1f89f5dc8c2d-flip-flowchart-paint-7" data-look="classic" transform="translate(108.38671875, 1509.787498474121)"><rect class="basic label-container" style="" x="-48.484375" y="-24.5" width="96.96875" height="49"></rect><g class="label" style="" transform="translate(0, -9.5)"><rect></rect><g><rect class="background" style="stroke: none"></rect><text y="-10.1" style=""><tspan class="text-outer-tspan row" x="0" y="-0.1em" dy="1.1em"><tspan font-style="normal" class="text-inner-tspan" font-weight="normal">paint</tspan></tspan></text></g></g></g><g class="node default cb" id="g33eeac9a-f89d-4e31-9b7a-1f89f5dc8c2d-flip-flowchart-bcast-9" data-look="classic" transform="translate(241.8359375, 602.7718734741211)"><rect class="basic label-container" style="fill:#2E5A88 !important;stroke:#1F4870 !important" x="-111.859375" y="-42.099998474121094" width="223.71875" height="84.19999694824219"></rect><g class="label" style="color:#ffffff !important" transform="translate(0, -27.099998474121094)"><rect></rect><g><rect class="background" style="stroke: none"></rect><text y="-10.1" style="fill:#ffffff !important"><tspan class="text-outer-tspan row" x="0" y="-0.1em" dy="1.1em"><tspan font-style="normal" class="text-inner-tspan" font-weight="normal">broadcast:</tspan><tspan font-style="normal" class="text-inner-tspan" font-weight="normal"> callbacks</tspan></tspan><tspan class="text-outer-tspan row" x="0" y="1em" dy="1.1em"><tspan font-style="normal" class="text-inner-tspan" font-weight="normal">run&amp;&amp;#10;(layout-only</tspan></tspan><tspan class="text-outer-tspan row" x="0" y="2.1em" dy="1.1em"><tspan font-style="normal" class="text-inner-tspan" font-weight="normal">edits</tspan><tspan font-style="normal" class="text-inner-tspan" font-weight="normal"> ideal</tspan><tspan font-style="normal" class="text-inner-tspan" font-weight="normal"> here)</tspan></tspan></text></g></g></g><g class="node default" id="g33eeac9a-f89d-4e31-9b7a-1f89f5dc8c2d-flip-flowchart-rs2-11" data-look="classic" transform="translate(167.4453125, 719.3718719482422)"><rect class="basic label-container" style="" x="-83.328125" y="-24.5" width="166.65625" height="49"></rect><g class="label" style="" transform="translate(0, -9.5)"><rect></rect><g><rect class="background" style="stroke: none"></rect><text y="-10.1" style=""><tspan class="text-outer-tspan row" x="0" y="-0.1em" dy="1.1em"><tspan font-style="normal" class="text-inner-tspan" font-weight="normal">recalc</tspan><tspan font-style="normal" class="text-inner-tspan" font-weight="normal"> +</tspan><tspan font-style="normal" class="text-inner-tspan" font-weight="normal"> layout</tspan></tspan></text></g></g></g><g class="node default" id="g33eeac9a-f89d-4e31-9b7a-1f89f5dc8c2d-flip-flowchart-gather2-12" data-look="classic" transform="translate(167.4453125, 841.3718719482422)"><rect class="basic label-container" style="" x="-113.78125" y="-24.5" width="227.5625" height="49"></rect><g class="label" style="" transform="translate(0, -9.5)"><rect></rect><g><rect class="background" style="stroke: none"></rect><text y="-10.1" style=""><tspan class="text-outer-tspan row" x="0" y="-0.1em" dy="1.1em"><tspan font-style="normal" class="text-inner-tspan" font-weight="normal">gather</tspan><tspan font-style="normal" class="text-inner-tspan" font-weight="normal"> at</tspan><tspan font-style="normal" class="text-inner-tspan" font-weight="normal"> deeper</tspan><tspan font-style="normal" class="text-inner-tspan" font-weight="normal"> depth</tspan></tspan></text></g></g></g><g class="node default" id="g33eeac9a-f89d-4e31-9b7a-1f89f5dc8c2d-flip-flowchart-any2-14" data-look="classic" transform="translate(241.8359375, 984.7156219482422)"><polygon points="45.84375,0 91.6875,-45.84375 45.84375,-91.6875 0,-45.84375" class="label-container" transform="translate(-45.34375, 45.84375)"></polygon><g class="label" style="" transform="translate(0, -9.5)"><rect></rect><g><rect class="background" style="stroke: none"></rect><text y="-10.1" style=""><tspan class="text-outer-tspan row" x="0" y="-0.1em" dy="1.1em"><tspan font-style="normal" class="text-inner-tspan" font-weight="normal">more?</tspan></tspan></text></g></g></g><g class="node default" id="g33eeac9a-f89d-4e31-9b7a-1f89f5dc8c2d-flip-flowchart-err-18" data-look="classic" transform="translate(241.8359375, 1173.2234344482422)"><polygon points="69.6640625,0 139.328125,-69.6640625 69.6640625,-139.328125 0,-69.6640625" class="label-container" transform="translate(-69.1640625, 69.6640625)"></polygon><g class="label" style="" transform="translate(0, -9.5)"><rect></rect><g><rect class="background" style="stroke: none"></rect><text y="-10.1" style=""><tspan class="text-outer-tspan row" x="0" y="-0.1em" dy="1.1em"><tspan font-style="normal" class="text-inner-tspan" font-weight="normal">any</tspan><tspan font-style="normal" class="text-inner-tspan" font-weight="normal"> skipped?</tspan></tspan></text></g></g></g><g class="node default warn" id="g33eeac9a-f89d-4e31-9b7a-1f89f5dc8c2d-flip-flowchart-loop-20" data-look="classic" transform="translate(328.078125, 1375.5874977111816)"><rect class="basic label-container" style="fill:#B43A3A !important;stroke:#8E2828 !important" x="-126.8203125" y="-59.70000076293945" width="253.640625" height="119.4000015258789"></rect><g class="label" style="color:#ffffff !important" transform="translate(0, -44.70000076293945)"><rect></rect><g><rect class="background" style="stroke: none"></rect><text y="-10.1" style="fill:#ffffff !important"><tspan class="text-outer-tspan row" x="0" y="-0.1em" dy="1.1em"><tspan font-style="normal" class="text-inner-tspan" font-weight="normal">fire</tspan></tspan><tspan class="text-outer-tspan row" x="0" y="1em" dy="1.1em"><tspan font-style="normal" class="text-inner-tspan" font-weight="normal">ErrorEvent:&amp;&amp;#10;'ResizeO</tspan></tspan><tspan class="text-outer-tspan row" x="0" y="2.1em" dy="1.1em"><tspan font-style="normal" class="text-inner-tspan" font-weight="normal">bserver</tspan><tspan font-style="normal" class="text-inner-tspan" font-weight="normal"> loop</tspan></tspan><tspan class="text-outer-tspan row" x="0" y="3.2em" dy="1.1em"><tspan font-style="normal" class="text-inner-tspan" font-weight="normal">completed&amp;&amp;#10;with</tspan></tspan><tspan class="text-outer-tspan row" x="0" y="4.300000000000001em" dy="1.1em"><tspan font-style="normal" class="text-inner-tspan" font-weight="normal">undelivered</tspan><tspan font-style="normal" class="text-inner-tspan" font-weight="normal"> notifications'</tspan></tspan></text></g></g></g></g></g></g><defs><filter id="g33eeac9a-f89d-4e31-9b7a-1f89f5dc8c2d-flip-drop-shadow" height="130%" width="130%"><feDropShadow dx="4" dy="4" stdDeviation="0" flood-opacity="0.06" flood-color="#000000"></feDropShadow></filter></defs><defs><filter id="g33eeac9a-f89d-4e31-9b7a-1f89f5dc8c2d-flip-drop-shadow-small" height="150%" width="150%"><feDropShadow dx="2" dy="2" stdDeviation="0" flood-opacity="0.06" flood-color="#000000"></feDropShadow></filter></defs></svg>