<svg id="g831ee753-56ab-4fb7-8e0b-13ad1f5e7302-dark" width="100%" xmlns="http://www.w3.org/2000/svg" xmlns:xlink="http://www.w3.org/1999/xlink" class="flowchart" style="max-width: 816.65234375px;" viewBox="0 0 816.65234375 1078.893798828125" role="graphics-document document" aria-roledescription="flowchart-v2"><style>#g831ee753-56ab-4fb7-8e0b-13ad1f5e7302-dark{font-family:"trebuchet ms",verdana,arial,sans-serif;font-size:16px;fill:#e5e5e5;}@keyframes edge-animation-frame{from{stroke-dashoffset:0;}}@keyframes dash{to{stroke-dashoffset:0;}}#g831ee753-56ab-4fb7-8e0b-13ad1f5e7302-dark .edge-animation-slow{stroke-dasharray:9,5!important;stroke-dashoffset:900;animation:dash 50s linear infinite;stroke-linecap:round;}#g831ee753-56ab-4fb7-8e0b-13ad1f5e7302-dark .edge-animation-fast{stroke-dasharray:9,5!important;stroke-dashoffset:900;animation:dash 20s linear infinite;stroke-linecap:round;}#g831ee753-56ab-4fb7-8e0b-13ad1f5e7302-dark .error-icon{fill:#252525;}#g831ee753-56ab-4fb7-8e0b-13ad1f5e7302-dark .error-text{fill:#cccccc;stroke:#cccccc;}#g831ee753-56ab-4fb7-8e0b-13ad1f5e7302-dark .edge-thickness-normal{stroke-width:1px;}#g831ee753-56ab-4fb7-8e0b-13ad1f5e7302-dark .edge-thickness-thick{stroke-width:3.5px;}#g831ee753-56ab-4fb7-8e0b-13ad1f5e7302-dark .edge-pattern-solid{stroke-dasharray:0;}#g831ee753-56ab-4fb7-8e0b-13ad1f5e7302-dark .edge-thickness-invisible{stroke-width:0;fill:none;}#g831ee753-56ab-4fb7-8e0b-13ad1f5e7302-dark .edge-pattern-dashed{stroke-dasharray:3;}#g831ee753-56ab-4fb7-8e0b-13ad1f5e7302-dark .edge-pattern-dotted{stroke-dasharray:2;}#g831ee753-56ab-4fb7-8e0b-13ad1f5e7302-dark .marker{fill:#cccccc;stroke:#cccccc;}#g831ee753-56ab-4fb7-8e0b-13ad1f5e7302-dark .marker.cross{stroke:#cccccc;}#g831ee753-56ab-4fb7-8e0b-13ad1f5e7302-dark svg{font-family:"trebuchet ms",verdana,arial,sans-serif;font-size:16px;}#g831ee753-56ab-4fb7-8e0b-13ad1f5e7302-dark p{margin:0;}#g831ee753-56ab-4fb7-8e0b-13ad1f5e7302-dark .label{font-family:"trebuchet ms",verdana,arial,sans-serif;color:#e5e5e5;}#g831ee753-56ab-4fb7-8e0b-13ad1f5e7302-dark .cluster-label text{fill:#e5e5e5;}#g831ee753-56ab-4fb7-8e0b-13ad1f5e7302-dark .cluster-label span{color:#e5e5e5;}#g831ee753-56ab-4fb7-8e0b-13ad1f5e7302-dark .cluster-label span p{background-color:transparent;}#g831ee753-56ab-4fb7-8e0b-13ad1f5e7302-dark .label text,#g831ee753-56ab-4fb7-8e0b-13ad1f5e7302-dark span{fill:#e5e5e5;color:#e5e5e5;}#g831ee753-56ab-4fb7-8e0b-13ad1f5e7302-dark .node rect,#g831ee753-56ab-4fb7-8e0b-13ad1f5e7302-dark .node circle,#g831ee753-56ab-4fb7-8e0b-13ad1f5e7302-dark .node ellipse,#g831ee753-56ab-4fb7-8e0b-13ad1f5e7302-dark .node polygon,#g831ee753-56ab-4fb7-8e0b-13ad1f5e7302-dark .node path{fill:#2d2d2d;stroke:#555555;stroke-width:1px;}#g831ee753-56ab-4fb7-8e0b-13ad1f5e7302-dark .rough-node .label text,#g831ee753-56ab-4fb7-8e0b-13ad1f5e7302-dark .node .label text,#g831ee753-56ab-4fb7-8e0b-13ad1f5e7302-dark .image-shape .label,#g831ee753-56ab-4fb7-8e0b-13ad1f5e7302-dark .icon-shape .label{text-anchor:middle;}#g831ee753-56ab-4fb7-8e0b-13ad1f5e7302-dark .node .katex path{fill:#000;stroke:#000;stroke-width:1px;}#g831ee753-56ab-4fb7-8e0b-13ad1f5e7302-dark .rough-node .label,#g831ee753-56ab-4fb7-8e0b-13ad1f5e7302-dark .node .label,#g831ee753-56ab-4fb7-8e0b-13ad1f5e7302-dark .image-shape .label,#g831ee753-56ab-4fb7-8e0b-13ad1f5e7302-dark .icon-shape .label{text-align:center;}#g831ee753-56ab-4fb7-8e0b-13ad1f5e7302-dark .node.clickable{cursor:pointer;}#g831ee753-56ab-4fb7-8e0b-13ad1f5e7302-dark .root .anchor path{fill:#cccccc!important;stroke-width:0;stroke:#cccccc;}#g831ee753-56ab-4fb7-8e0b-13ad1f5e7302-dark .arrowheadPath{fill:#cccccc;}#g831ee753-56ab-4fb7-8e0b-13ad1f5e7302-dark .edgePath .path{stroke:#cccccc;stroke-width:1px;}#g831ee753-56ab-4fb7-8e0b-13ad1f5e7302-dark .flowchart-link{stroke:#cccccc;fill:none;}#g831ee753-56ab-4fb7-8e0b-13ad1f5e7302-dark .edgeLabel{background-color:#1e1e1e;text-align:center;}#g831ee753-56ab-4fb7-8e0b-13ad1f5e7302-dark .edgeLabel p{background-color:#1e1e1e;}#g831ee753-56ab-4fb7-8e0b-13ad1f5e7302-dark .edgeLabel rect{opacity:0.5;background-color:#1e1e1e;fill:#1e1e1e;}#g831ee753-56ab-4fb7-8e0b-13ad1f5e7302-dark .labelBkg{background-color:rgba(30, 30, 30, 0.5);}#g831ee753-56ab-4fb7-8e0b-13ad1f5e7302-dark .cluster rect{fill:#1e1e1e;stroke:#555555;stroke-width:1px;}#g831ee753-56ab-4fb7-8e0b-13ad1f5e7302-dark .cluster text{fill:#e5e5e5;}#g831ee753-56ab-4fb7-8e0b-13ad1f5e7302-dark .cluster span{color:#e5e5e5;}#g831ee753-56ab-4fb7-8e0b-13ad1f5e7302-dark div.mermaidTooltip{position:absolute;text-align:center;max-width:200px;padding:2px;font-family:"trebuchet ms",verdana,arial,sans-serif;font-size:12px;background:#252525;border:1px solid #555555;border-radius:2px;pointer-events:none;z-index:100;}#g831ee753-56ab-4fb7-8e0b-13ad1f5e7302-dark .flowchartTitleText{text-anchor:middle;font-size:18px;fill:#e5e5e5;}#g831ee753-56ab-4fb7-8e0b-13ad1f5e7302-dark rect.text{fill:none;stroke-width:0;}#g831ee753-56ab-4fb7-8e0b-13ad1f5e7302-dark .icon-shape,#g831ee753-56ab-4fb7-8e0b-13ad1f5e7302-dark .image-shape{background-color:#1e1e1e;text-align:center;}#g831ee753-56ab-4fb7-8e0b-13ad1f5e7302-dark .icon-shape p,#g831ee753-56ab-4fb7-8e0b-13ad1f5e7302-dark .image-shape p{background-color:#1e1e1e;padding:2px;}#g831ee753-56ab-4fb7-8e0b-13ad1f5e7302-dark .icon-shape .label rect,#g831ee753-56ab-4fb7-8e0b-13ad1f5e7302-dark .image-shape .label rect{opacity:0.5;background-color:#1e1e1e;fill:#1e1e1e;}#g831ee753-56ab-4fb7-8e0b-13ad1f5e7302-dark .label-icon{display:inline-block;height:1em;overflow:visible;vertical-align:-0.125em;}#g831ee753-56ab-4fb7-8e0b-13ad1f5e7302-dark .node .label-icon path{fill:currentColor;stroke:revert;stroke-width:revert;}#g831ee753-56ab-4fb7-8e0b-13ad1f5e7302-dark .node .neo-node{stroke:#555555;}#g831ee753-56ab-4fb7-8e0b-13ad1f5e7302-dark [data-look="neo"].node rect,#g831ee753-56ab-4fb7-8e0b-13ad1f5e7302-dark [data-look="neo"].cluster rect,#g831ee753-56ab-4fb7-8e0b-13ad1f5e7302-dark [data-look="neo"].node polygon{stroke:url(#g831ee753-56ab-4fb7-8e0b-13ad1f5e7302-dark-gradient);filter:drop-shadow( 1px 2px 2px rgba(185,185,185,1));}#g831ee753-56ab-4fb7-8e0b-13ad1f5e7302-dark [data-look="neo"].node path{stroke:url(#g831ee753-56ab-4fb7-8e0b-13ad1f5e7302-dark-gradient);stroke-width:1px;}#g831ee753-56ab-4fb7-8e0b-13ad1f5e7302-dark [data-look="neo"].node .outer-path{filter:drop-shadow( 1px 2px 2px rgba(185,185,185,1));}#g831ee753-56ab-4fb7-8e0b-13ad1f5e7302-dark [data-look="neo"].node .neo-line path{stroke:#555555;filter:none;}#g831ee753-56ab-4fb7-8e0b-13ad1f5e7302-dark [data-look="neo"].node circle{stroke:url(#g831ee753-56ab-4fb7-8e0b-13ad1f5e7302-dark-gradient);filter:drop-shadow( 1px 2px 2px rgba(185,185,185,1));}#g831ee753-56ab-4fb7-8e0b-13ad1f5e7302-dark [data-look="neo"].node circle .state-start{fill:#000000;}#g831ee753-56ab-4fb7-8e0b-13ad1f5e7302-dark [data-look="neo"].icon-shape .icon{fill:url(#g831ee753-56ab-4fb7-8e0b-13ad1f5e7302-dark-gradient);filter:drop-shadow( 1px 2px 2px rgba(185,185,185,1));}#g831ee753-56ab-4fb7-8e0b-13ad1f5e7302-dark [data-look="neo"].icon-shape .icon-neo path{stroke:url(#g831ee753-56ab-4fb7-8e0b-13ad1f5e7302-dark-gradient);filter:drop-shadow( 1px 2px 2px rgba(185,185,185,1));}#g831ee753-56ab-4fb7-8e0b-13ad1f5e7302-dark :root{--mermaid-font-family:"trebuchet ms",verdana,arial,sans-serif;}</style><g><marker id="g831ee753-56ab-4fb7-8e0b-13ad1f5e7302-dark_flowchart-v2-pointEnd" class="marker flowchart-v2" viewBox="0 0 10 10" refX="5" refY="5" markerUnits="userSpaceOnUse" markerWidth="8" markerHeight="8" orient="auto"><path d="M 0 0 L 10 5 L 0 10 z" class="arrowMarkerPath" style="stroke-width: 1; stroke-dasharray: 1, 0;"></path></marker><marker id="g831ee753-56ab-4fb7-8e0b-13ad1f5e7302-dark_flowchart-v2-pointStart" class="marker flowchart-v2" viewBox="0 0 10 10" refX="4.5" refY="5" markerUnits="userSpaceOnUse" markerWidth="8" markerHeight="8" orient="auto"><path d="M 0 5 L 10 10 L 10 0 z" class="arrowMarkerPath" style="stroke-width: 1; stroke-dasharray: 1, 0;"></path></marker><marker id="g831ee753-56ab-4fb7-8e0b-13ad1f5e7302-dark_flowchart-v2-pointEnd-margin" class="marker flowchart-v2" viewBox="0 0 11.5 14" refX="11.5" refY="7" markerUnits="userSpaceOnUse" markerWidth="10.5" markerHeight="14" orient="auto"><path d="M 0 0 L 11.5 7 L 0 14 z" class="arrowMarkerPath" style="stroke-width: 0; stroke-dasharray: 1, 0;"></path></marker><marker id="g831ee753-56ab-4fb7-8e0b-13ad1f5e7302-dark_flowchart-v2-pointStart-margin" class="marker flowchart-v2" viewBox="0 0 11.5 14" refX="1" refY="7" markerUnits="userSpaceOnUse" markerWidth="11.5" markerHeight="14" orient="auto"><polygon points="0,7 11.5,14 11.5,0" class="arrowMarkerPath" style="stroke-width: 0; stroke-dasharray: 1, 0;"></polygon></marker><marker id="g831ee753-56ab-4fb7-8e0b-13ad1f5e7302-dark_flowchart-v2-circleEnd" class="marker flowchart-v2" viewBox="0 0 10 10" refX="11" refY="5" markerUnits="userSpaceOnUse" markerWidth="11" markerHeight="11" orient="auto"><circle cx="5" cy="5" r="5" class="arrowMarkerPath" style="stroke-width: 1; stroke-dasharray: 1, 0;"></circle></marker><marker id="g831ee753-56ab-4fb7-8e0b-13ad1f5e7302-dark_flowchart-v2-circleStart" class="marker flowchart-v2" viewBox="0 0 10 10" refX="-1" refY="5" markerUnits="userSpaceOnUse" markerWidth="11" markerHeight="11" orient="auto"><circle cx="5" cy="5" r="5" class="arrowMarkerPath" style="stroke-width: 1; stroke-dasharray: 1, 0;"></circle></marker><marker id="g831ee753-56ab-4fb7-8e0b-13ad1f5e7302-dark_flowchart-v2-circleEnd-margin" class="marker flowchart-v2" viewBox="0 0 10 10" refY="5" refX="12.25" markerUnits="userSpaceOnUse" markerWidth="14" markerHeight="14" orient="auto"><circle cx="5" cy="5" r="5" class="arrowMarkerPath" style="stroke-width: 0; stroke-dasharray: 1, 0;"></circle></marker><marker id="g831ee753-56ab-4fb7-8e0b-13ad1f5e7302-dark_flowchart-v2-circleStart-margin" class="marker flowchart-v2" viewBox="0 0 10 10" refX="-2" refY="5" markerUnits="userSpaceOnUse" markerWidth="14" markerHeight="14" orient="auto"><circle cx="5" cy="5" r="5" class="arrowMarkerPath" style="stroke-width: 0; stroke-dasharray: 1, 0;"></circle></marker><marker id="g831ee753-56ab-4fb7-8e0b-13ad1f5e7302-dark_flowchart-v2-crossEnd" class="marker cross flowchart-v2" viewBox="0 0 11 11" refX="12" refY="5.2" markerUnits="userSpaceOnUse" markerWidth="11" markerHeight="11" orient="auto"><path d="M 1,1 l 9,9 M 10,1 l -9,9" class="arrowMarkerPath" style="stroke-width: 2; stroke-dasharray: 1, 0;"></path></marker><marker id="g831ee753-56ab-4fb7-8e0b-13ad1f5e7302-dark_flowchart-v2-crossStart" class="marker cross flowchart-v2" viewBox="0 0 11 11" refX="-1" refY="5.2" markerUnits="userSpaceOnUse" markerWidth="11" markerHeight="11" orient="auto"><path d="M 1,1 l 9,9 M 10,1 l -9,9" class="arrowMarkerPath" style="stroke-width: 2; stroke-dasharray: 1, 0;"></path></marker><marker id="g831ee753-56ab-4fb7-8e0b-13ad1f5e7302-dark_flowchart-v2-crossEnd-margin" class="marker cross flowchart-v2" viewBox="0 0 15 15" refX="17.7" refY="7.5" markerUnits="userSpaceOnUse" markerWidth="12" markerHeight="12" orient="auto"><path d="M 1,1 L 14,14 M 1,14 L 14,1" class="arrowMarkerPath" style="stroke-width: 2.5;"></path></marker><marker id="g831ee753-56ab-4fb7-8e0b-13ad1f5e7302-dark_flowchart-v2-crossStart-margin" class="marker cross flowchart-v2" viewBox="0 0 15 15" refX="-3.5" refY="7.5" markerUnits="userSpaceOnUse" markerWidth="12" markerHeight="12" orient="auto"><path d="M 1,1 L 14,14 M 1,14 L 14,1" class="arrowMarkerPath" style="stroke-width: 2.5; stroke-dasharray: 1, 0;"></path></marker><g class="root"><g class="clusters"></g><g class="edgePaths"><path d="M389.301,42.5L389.217,46.583C389.134,50.667,388.967,58.833,388.884,66.417C388.801,74,388.801,81,388.801,84.5L388.801,88" id="g831ee753-56ab-4fb7-8e0b-13ad1f5e7302-dark-L_THROW_KIND_0" class="edge-thickness-normal edge-pattern-solid edge-thickness-normal edge-pattern-solid flowchart-link" style=";" data-edge="true" data-et="edge" data-id="L_THROW_KIND_0" data-points="W3sieCI6Mzg5LjMwMDc4MTI1LCJ5Ijo0Mi41fSx7IngiOjM4OC44MDA3ODEyNSwieSI6Njd9LHsieCI6Mzg4LjgwMDc4MTI1LCJ5Ijo5MS45OTk5OTk5OTk5OTk5Nn1d" data-look="classic" marker-end="url(#g831ee753-56ab-4fb7-8e0b-13ad1f5e7302-dark_flowchart-v2-pointEnd)"></path><path d="M353.548,174.004L335.514,185.963C317.479,197.921,281.409,221.839,263.375,241.567C245.34,261.295,245.34,276.834,245.34,284.604L245.34,292.373" id="g831ee753-56ab-4fb7-8e0b-13ad1f5e7302-dark-L_KIND_TRY_0" class="edge-thickness-normal edge-pattern-solid edge-thickness-normal edge-pattern-solid flowchart-link" style=";" data-edge="true" data-et="edge" data-id="L_KIND_TRY_0" data-points="W3sieCI6MzUzLjU0ODM0NTA5MTg2NDQ2LCJ5IjoxNzQuMDAzODEyMzE1OTg1NTh9LHsieCI6MjQ1LjMzOTg0Mzc1LCJ5IjoyNDUuNzU2MjQ4NDc0MTIxMX0seyJ4IjoyNDUuMzM5ODQzNzUwMDAwMDMsInkiOjI5Ni4zNzM0NDM2MDM1MTU2fV0=" data-look="classic" marker-end="url(#g831ee753-56ab-4fb7-8e0b-13ad1f5e7302-dark_flowchart-v2-pointEnd)"></path><path d="M421.038,177.019L435.032,188.475C449.027,199.931,477.015,222.844,491.01,239.717C505.004,256.59,505.004,267.423,505.004,272.84L505.004,278.256" id="g831ee753-56ab-4fb7-8e0b-13ad1f5e7302-dark-L_KIND_AW_0" class="edge-thickness-normal edge-pattern-solid edge-thickness-normal edge-pattern-solid flowchart-link" style=";" data-edge="true" data-et="edge" data-id="L_KIND_AW_0" data-points="W3sieCI6NDIxLjAzODE4NzA5NDI4NDA3LCJ5IjoxNzcuMDE4ODQyNjI5ODM3MDJ9LHsieCI6NTA1LjAwMzkwNjI1LCJ5IjoyNDUuNzU2MjQ4NDc0MTIxMX0seyJ4Ijo1MDUuMDAzOTA2MjQ5OTk5OTQsInkiOjI4Mi4yNTYyNDg0NzQxMjExfV0=" data-look="classic" marker-end="url(#g831ee753-56ab-4fb7-8e0b-13ad1f5e7302-dark_flowchart-v2-pointEnd)"></path><path d="M203.05,404.386L183.122,419.871C163.195,435.355,123.339,466.325,105.922,490.187C88.504,514.05,93.524,530.806,96.034,539.184L98.544,547.562" id="g831ee753-56ab-4fb7-8e0b-13ad1f5e7302-dark-L_TRY_LOCAL_0" class="edge-thickness-normal edge-pattern-solid edge-thickness-normal edge-pattern-solid flowchart-link" style=";" data-edge="true" data-et="edge" data-id="L_TRY_LOCAL_0" data-points="W3sieCI6MjAzLjA0OTYyNzE2NTk0NDAzLCJ5Ijo0MDQuMzg2MzQyODY0MTg2MjV9LHsieCI6ODMuNDg0Mzc1LCJ5Ijo0OTcuMjkzNzU0NTc3NjM2N30seyJ4Ijo5OS42OTE1NzUwODAxNTk2MSwieSI6NTUxLjM5Mzc1MzA1MTc1Nzh9XQ==" data-look="classic" marker-end="url(#g831ee753-56ab-4fb7-8e0b-13ad1f5e7302-dark_flowchart-v2-pointEnd)"></path><path d="M284.7,407.316L301.191,422.313C317.683,437.309,350.666,467.301,367.157,489.181C383.648,511.06,383.648,524.827,383.648,531.71L383.648,538.594" id="g831ee753-56ab-4fb7-8e0b-13ad1f5e7302-dark-L_TRY_GERR_0" class="edge-thickness-normal edge-pattern-solid edge-thickness-normal edge-pattern-solid flowchart-link" style=";" data-edge="true" data-et="edge" data-id="L_TRY_GERR_0" data-points="W3sieCI6Mjg0LjY5OTkyNjc3MjA2NDYsInkiOjQwNy4zMTY0NzY0MjYxNzc2fSx7IngiOjM4My42NDg0Mzc1LCJ5Ijo0OTcuMjkzNzU0NTc3NjM2N30seyJ4IjozODMuNjQ4NDM3NSwieSI6NTQyLjU5Mzc1MzgxNDY5NzN9XQ==" data-look="classic" marker-end="url(#g831ee753-56ab-4fb7-8e0b-13ad1f5e7302-dark_flowchart-v2-pointEnd)"></path><path d="M443.284,399.074L406.609,415.444C369.934,431.814,296.584,464.554,247.131,489.567C197.678,514.58,172.122,531.866,159.344,540.51L146.566,549.153" id="g831ee753-56ab-4fb7-8e0b-13ad1f5e7302-dark-L_AW_LOCAL_0" class="edge-thickness-normal edge-pattern-solid edge-thickness-normal edge-pattern-solid flowchart-link" style=";" data-edge="true" data-et="edge" data-id="L_AW_LOCAL_0" data-points="W3sieCI6NDQzLjI4NDAyNDUzMTk4ODU2LCJ5IjozOTkuMDczODcyODU5NjI1MzR9LHsieCI6MjIzLjIzNDM3NSwieSI6NDk3LjI5Mzc1NDU3NzYzNjd9LHsieCI6MTQzLjI1MjMyNjU2MTk0NjI2LCJ5Ijo1NTEuMzkzNzUzMDUxNzU3OH1d" data-look="classic" marker-end="url(#g831ee753-56ab-4fb7-8e0b-13ad1f5e7302-dark_flowchart-v2-pointEnd)"></path><path d="M555.736,410.062L574.875,424.601C594.014,439.139,632.292,468.217,651.431,488.172C670.57,508.127,670.57,518.96,670.57,524.377L670.57,529.794" id="g831ee753-56ab-4fb7-8e0b-13ad1f5e7302-dark-L_AW_URJ_0" class="edge-thickness-normal edge-pattern-solid edge-thickness-normal edge-pattern-solid flowchart-link" style=";" data-edge="true" data-et="edge" data-id="L_AW_URJ_0" data-points="W3sieCI6NTU1LjczNTUzMzI0ODMzODQsInkiOjQxMC4wNjIxMjc1NzkyOTg0fSx7IngiOjY3MC41NzAzMTI1LCJ5Ijo0OTcuMjkzNzU0NTc3NjM2N30seyJ4Ijo2NzAuNTcwMzEyNSwieSI6NTMzLjc5Mzc1NDU3NzYzNjd9XQ==" data-look="classic" marker-end="url(#g831ee753-56ab-4fb7-8e0b-13ad1f5e7302-dark_flowchart-v2-pointEnd)"></path><path d="M383.648,609.194L383.648,614.827C383.648,620.46,383.648,631.727,401.032,647.145C418.416,662.564,453.184,682.133,470.568,691.918L487.952,701.703" id="g831ee753-56ab-4fb7-8e0b-13ad1f5e7302-dark-L_GERR_BR_0" class="edge-thickness-normal edge-pattern-solid edge-thickness-normal edge-pattern-solid flowchart-link" style=";" data-edge="true" data-et="edge" data-id="L_GERR_BR_0" data-points="W3sieCI6MzgzLjY0ODQzNzUsInkiOjYwOS4xOTM3NTIyODg4MTg0fSx7IngiOjM4My42NDg0Mzc1LCJ5Ijo2NDIuOTkzNzUxNTI1ODc4OX0seyJ4Ijo0OTEuNDM3ODQ0NjMzMDg4MywieSI6NzAzLjY2NTI4MTg5Mjc5MDZ9XQ==" data-look="classic" marker-end="url(#g831ee753-56ab-4fb7-8e0b-13ad1f5e7302-dark_flowchart-v2-pointEnd)"></path><path d="M670.57,617.994L670.57,622.16C670.57,626.327,670.57,634.66,653.186,648.612C635.802,662.564,601.035,682.133,583.651,691.918L566.267,701.703" id="g831ee753-56ab-4fb7-8e0b-13ad1f5e7302-dark-L_URJ_BR_0" class="edge-thickness-normal edge-pattern-solid edge-thickness-normal edge-pattern-solid flowchart-link" style=";" data-edge="true" data-et="edge" data-id="L_URJ_BR_0" data-points="W3sieCI6NjcwLjU3MDMxMjUsInkiOjYxNy45OTM3NTE1MjU4Nzg5fSx7IngiOjY3MC41NzAzMTI1LCJ5Ijo2NDIuOTkzNzUxNTI1ODc4OX0seyJ4Ijo1NjIuNzgwOTA1MzY2OTExNywieSI6NzAzLjY2NTI4MTg5Mjc5MDZ9XQ==" data-look="classic" marker-end="url(#g831ee753-56ab-4fb7-8e0b-13ad1f5e7302-dark_flowchart-v2-pointEnd)"></path><path d="M492.307,744.692L472.564,756.575C452.821,768.459,413.334,792.226,393.591,810.993C373.848,829.76,373.848,843.527,373.848,850.41L373.848,857.294" id="g831ee753-56ab-4fb7-8e0b-13ad1f5e7302-dark-L_BR_BRWeb_0" class="edge-thickness-normal edge-pattern-solid edge-thickness-normal edge-pattern-solid flowchart-link" style=";" data-edge="true" data-et="edge" data-id="L_BR_BRWeb_0" data-points="W3sieCI6NDkyLjMwNzIwMzk5MjM3ODgsInkiOjc0NC42OTE1ODA1MTgyNTc4fSx7IngiOjM3My44NDc2NTYyNSwieSI6ODE1Ljk5Mzc1MTUyNTg3ODl9LHsieCI6MzczLjg0NzY1NjI1LCJ5Ijo4NjEuMjkzNzU0NTc3NjM2N31d" data-look="classic" marker-end="url(#g831ee753-56ab-4fb7-8e0b-13ad1f5e7302-dark_flowchart-v2-pointEnd)"></path><path d="M561.912,744.692L581.655,756.575C601.398,768.459,640.885,792.226,660.628,809.527C680.371,826.827,680.371,837.66,680.371,843.077L680.371,848.494" id="g831ee753-56ab-4fb7-8e0b-13ad1f5e7302-dark-L_BR_NODE_0" class="edge-thickness-normal edge-pattern-solid edge-thickness-normal edge-pattern-solid flowchart-link" style=";" data-edge="true" data-et="edge" data-id="L_BR_NODE_0" data-points="W3sieCI6NTYxLjkxMTU0NjAwNzYyMTIsInkiOjc0NC42OTE1ODA1MTgyNTc4fSx7IngiOjY4MC4zNzEwOTM3NSwieSI6ODE1Ljk5Mzc1MTUyNTg3ODl9LHsieCI6NjgwLjM3MTA5Mzc1LCJ5Ijo4NTIuNDkzNzUxNTI1ODc4OX1d" data-look="classic" marker-end="url(#g831ee753-56ab-4fb7-8e0b-13ad1f5e7302-dark_flowchart-v2-pointEnd)"></path><path d="M373.848,945.494L373.848,951.127C373.848,956.76,373.848,968.027,373.848,977.16C373.848,986.294,373.848,993.294,373.848,996.794L373.848,1000.294" id="g831ee753-56ab-4fb7-8e0b-13ad1f5e7302-dark-L_BRWeb_RUM_0" class="edge-thickness-normal edge-pattern-solid edge-thickness-normal edge-pattern-solid flowchart-link" style=";" data-edge="true" data-et="edge" data-id="L_BRWeb_RUM_0" data-points="W3sieCI6MzczLjg0NzY1NjI1LCJ5Ijo5NDUuNDkzNzUxNTI1ODc4OX0seyJ4IjozNzMuODQ3NjU2MjUsInkiOjk3OS4yOTM3NTQ1Nzc2MzY3fSx7IngiOjM3My44NDc2NTYyNSwieSI6MTAwNC4yOTM3NTQ1Nzc2MzY3fV0=" data-look="classic" marker-end="url(#g831ee753-56ab-4fb7-8e0b-13ad1f5e7302-dark_flowchart-v2-pointEnd)"></path><path d="M680.371,954.294L680.371,958.46C680.371,962.627,680.371,970.96,680.371,978.627C680.371,986.294,680.371,993.294,680.371,996.794L680.371,1000.294" id="g831ee753-56ab-4fb7-8e0b-13ad1f5e7302-dark-L_NODE_SUP_0" class="edge-thickness-normal edge-pattern-solid edge-thickness-normal edge-pattern-solid flowchart-link" style=";" data-edge="true" data-et="edge" data-id="L_NODE_SUP_0" data-points="W3sieCI6NjgwLjM3MTA5Mzc1LCJ5Ijo5NTQuMjkzNzU0NTc3NjM2N30seyJ4Ijo2ODAuMzcxMDkzNzUsInkiOjk3OS4yOTM3NTQ1Nzc2MzY3fSx7IngiOjY4MC4zNzEwOTM3NSwieSI6MTAwNC4yOTM3NTQ1Nzc2MzY3fV0=" data-look="classic" marker-end="url(#g831ee753-56ab-4fb7-8e0b-13ad1f5e7302-dark_flowchart-v2-pointEnd)"></path></g><g class="edgeLabels"><g class="edgeLabel"><g class="label" data-id="L_THROW_KIND_0" transform="translate(0, 0)"><text y="-10.1" text-anchor="middle"><tspan class="text-outer-tspan row" x="0" y="-0.1em" dy="1.1em" text-anchor="middle"></tspan></text></g></g><g><rect class="background" style="stroke: none"></rect></g><g class="edgeLabel" transform="translate(245.33984375, 245.7562484741211)"><g class="label" data-id="L_KIND_TRY_0" transform="translate(0, -10.5)"><g><rect class="background" style="" x="-40.828125" y="-1" width="81.65625" height="23"></rect><text y="-10.1" text-anchor="middle" style=""><tspan class="text-outer-tspan row" x="0" y="-0.1em" dy="1.1em" text-anchor="middle"><tspan font-style="normal" class="text-inner-tspan" font-weight="normal">sync</tspan><tspan font-style="normal" class="text-inner-tspan" font-weight="normal"> throw</tspan></tspan></text></g></g></g><g class="edgeLabel" transform="translate(505.00390625, 245.7562484741211)"><g class="label" data-id="L_KIND_AW_0" transform="translate(0, -10.5)"><g><rect class="background" style="" x="-54.6953125" y="-1" width="109.390625" height="23"></rect><text y="-10.1" text-anchor="middle" style=""><tspan class="text-outer-tspan row" x="0" y="-0.1em" dy="1.1em" text-anchor="middle"><tspan font-style="normal" class="text-inner-tspan" font-weight="normal">promise</tspan><tspan font-style="normal" class="text-inner-tspan" font-weight="normal"> reject</tspan></tspan></text></g></g></g><g class="edgeLabel" transform="translate(83.484375, 497.2937545776367)"><g class="label" data-id="L_TRY_LOCAL_0" transform="translate(0, -10.5)"><g><rect class="background" style="" x="-13.546875" y="-1" width="27.09375" height="23"></rect><text y="-10.1" text-anchor="middle" style=""><tspan class="text-outer-tspan row" x="0" y="-0.1em" dy="1.1em" text-anchor="middle"><tspan font-style="normal" class="text-inner-tspan" font-weight="normal">yes</tspan></tspan></text></g></g></g><g class="edgeLabel" transform="translate(383.6484375, 497.2937545776367)"><g class="label" data-id="L_TRY_GERR_0" transform="translate(0, -10.5)"><g><rect class="background" style="" x="-10.6640625" y="-1" width="21.328125" height="23"></rect><text y="-10.1" text-anchor="middle" style=""><tspan class="text-outer-tspan row" x="0" y="-0.1em" dy="1.1em" text-anchor="middle"><tspan font-style="normal" class="text-inner-tspan" font-weight="normal">no</tspan></tspan></text></g></g></g><g class="edgeLabel" transform="translate(289.17142, 467.86254)"><g class="label" data-id="L_AW_LOCAL_0" transform="translate(0, -10.5)"><g><rect class="background" style="" x="-13.546875" y="-1" width="27.09375" height="23"></rect><text y="-10.1" text-anchor="middle" style=""><tspan class="text-outer-tspan row" x="0" y="-0.1em" dy="1.1em" text-anchor="middle"><tspan font-style="normal" class="text-inner-tspan" font-weight="normal">yes</tspan></tspan></text></g></g></g><g class="edgeLabel" transform="translate(670.5703125, 497.2937545776367)"><g class="label" data-id="L_AW_URJ_0" transform="translate(0, -10.5)"><g><rect class="background" style="" x="-10.6640625" y="-1" width="21.328125" height="23"></rect><text y="-10.1" text-anchor="middle" style=""><tspan class="text-outer-tspan row" x="0" y="-0.1em" dy="1.1em" text-anchor="middle"><tspan font-style="normal" class="text-inner-tspan" font-weight="normal">no</tspan></tspan></text></g></g></g><g class="edgeLabel"><g class="label" data-id="L_GERR_BR_0" transform="translate(0, 0)"><text y="-10.1" text-anchor="middle"><tspan class="text-outer-tspan row" x="0" y="-0.1em" dy="1.1em" text-anchor="middle"></tspan></text></g></g><g><rect class="background" style="stroke: none"></rect></g><g class="edgeLabel"><g class="label" data-id="L_URJ_BR_0" transform="translate(0, 0)"><text y="-10.1" text-anchor="middle"><tspan class="text-outer-tspan row" x="0" y="-0.1em" dy="1.1em" text-anchor="middle"></tspan></text></g></g><g><rect class="background" style="stroke: none"></rect></g><g class="edgeLabel" transform="translate(373.84765625, 815.9937515258789)"><g class="label" data-id="L_BR_BRWeb_0" transform="translate(0, -10.5)"><g><rect class="background" style="" x="-30.5234375" y="-1" width="61.046875" height="23"></rect><text y="-10.1" text-anchor="middle" style=""><tspan class="text-outer-tspan row" x="0" y="-0.1em" dy="1.1em" text-anchor="middle"><tspan font-style="normal" class="text-inner-tspan" font-weight="normal">browser</tspan></tspan></text></g></g></g><g class="edgeLabel" transform="translate(680.37109375, 815.9937515258789)"><g class="label" data-id="L_BR_NODE_0" transform="translate(0, -10.5)"><g><rect class="background" style="" x="-44.328125" y="-1" width="88.65625" height="23"></rect><text y="-10.1" text-anchor="middle" style=""><tspan class="text-outer-tspan row" x="0" y="-0.1em" dy="1.1em" text-anchor="middle"><tspan font-style="normal" class="text-inner-tspan" font-weight="normal">Node.js</tspan><tspan font-style="normal" class="text-inner-tspan" font-weight="normal"> 15+</tspan></tspan></text></g></g></g><g class="edgeLabel"><g class="label" data-id="L_BRWeb_RUM_0" transform="translate(0, 0)"><text y="-10.1" text-anchor="middle"><tspan class="text-outer-tspan row" x="0" y="-0.1em" dy="1.1em" text-anchor="middle"></tspan></text></g></g><g><rect class="background" style="stroke: none"></rect></g><g class="edgeLabel"><g class="label" data-id="L_NODE_SUP_0" transform="translate(0, 0)"><text y="-10.1" text-anchor="middle"><tspan class="text-outer-tspan row" x="0" y="-0.1em" dy="1.1em" text-anchor="middle"></tspan></text></g></g><g><rect class="background" style="stroke: none"></rect></g></g><g class="nodes"><g class="node default" id="g831ee753-56ab-4fb7-8e0b-13ad1f5e7302-dark-flowchart-THROW-0" data-look="classic" transform="translate(388.80078125, 25)"><g class="basic label-container outer-path"><path d="M-76.9921875 -17 C-30.885426609412285 -17, 15.22133428117543 -17, 76.9921875 -17 C76.9921875 -17, 76.9921875 -17, 76.9921875 -17 C77.260090774975 -16.991408863413643, 77.52799404995 -16.982817726827285, 78.08138123967211 -16.965071676755716 C78.39195000651144 -16.935111481332317, 78.70251877335075 -16.905151285908918, 79.1660992486366 -16.860430234995185 C79.53168854165227 -16.80132459328772, 79.89727783466796 -16.74221895158026, 80.24188418792333 -16.686505668848113 C80.55646615901561 -16.61470438678551, 80.87104813010788 -16.542903104722907, 81.30431542646163 -16.4440126716635 C81.54684893811314 -16.37202999848971, 81.78938244976467 -16.30004732531592, 82.34902720640156 -16.133947699181366 C82.7073313474672 -16.002088463142034, 83.06563548853286 -15.870229227102703, 83.37172658294936 -15.757584874882369 C83.6003193820346 -15.656393623691791, 83.82891218111985 -15.555202372501213, 84.36821106499849 -15.316470754341125 C84.66044751213937 -15.164011187054104, 84.95268395928025 -15.011551619767083, 85.33438588406693 -14.812417970097622 C85.56536770159668 -14.672395434911259, 85.79634951912644 -14.532372899724896, 86.26628082057933 -14.247497783161291 C86.5828752433856 -14.026655218963313, 86.89946966619186 -13.805812654765335, 87.16006651835067 -13.624031571755262 C87.42623941342009 -13.411765771095617, 87.69241230848951 -13.19949997043597, 88.0120702202324 -12.944581292275288 C88.22743679892866 -12.748991063790758, 88.44280337762493 -12.553400835306228, 88.81879086025927 -12.21193895166137 C89.04732595594075 -11.975957702289932, 89.27586105162224 -11.739976452918496, 89.57691345028036 -11.42911513444239 C89.79029404142156 -11.178466150388344, 90.00367463256275 -10.9278171663343, 90.28332270195651 -10.59932663159847 C90.45177890244952 -10.373610669613406, 90.62023510294253 -10.14789470762834, 90.93511582814824 -9.725983222076888 C91.1055811550216 -9.464102703649866, 91.27604648189494 -9.202222185222844, 91.52961447109088 -8.812673661278927 C91.66015145163443 -8.58089203402123, 91.79068843217799 -8.349110406763533, 92.064375708341 -7.863150934094199 C92.24059145209894 -7.497235171767925, 92.41680719585689 -7.131319409441651, 92.53720209126881 -6.881316833080699 C92.68165874028176 -6.524506117139397, 92.82611538929471 -6.167695401198096, 92.94615067484592 -5.871205925162238 C93.06686061128866 -5.507646829113278, 93.18757054773138 -5.1440877330643175, 93.28954100162323 -4.836968972727556 C93.34488288359009 -4.625926391464565, 93.40022476555694 -4.414883810201575, 93.565962007091 -3.7828558772573464 C93.63668475082932 -3.41970953541829, 93.70740749456762 -3.0565631935792337, 93.77427781804565 -2.713198215567453 C93.82207706805832 -2.3424766714986758, 93.869876318071 -1.9717551274298981, 93.91363242013637 -1.632391440430593 C93.93528297492885 -1.2951665735243814, 93.95693352972134 -0.9579417066181699, 93.9834531754117 -0.5448768187181379 C93.9834531754117 -0.22691061761702658, 93.9834531754117 0.09105558348408471, 93.9834531754117 0.5448768187181336 C93.95971686474586 0.9145890169436324, 93.93598055408002 1.284301215169131, 93.91363242013637 1.6323914404305815 C93.87597804777519 1.9244313167670435, 93.838323675414 2.2164711931035055, 93.77427781804565 2.7131982155674415 C93.72150332958414 2.9841840599252314, 93.66872884112261 3.2551699042830218, 93.565962007091 3.782855877257343 C93.47791234033308 4.118627417572264, 93.38986267357517 4.454398957887184, 93.28954100162323 4.836968972727545 C93.18530790806085 5.150902443249292, 93.08107481449846 5.464835913771039, 92.94615067484592 5.871205925162227 C92.83194805587934 6.153288601967118, 92.71774543691276 6.43537127877201, 92.53720209126881 6.881316833080694 C92.39240857056875 7.181983676899406, 92.2476150498687 7.482650520718117, 92.064375708341 7.863150934094196 C91.85802343084114 8.229550298229107, 91.65167115334128 8.595949662364019, 91.52961447109088 8.812673661278923 C91.37566948208723 9.049174504406217, 91.2217244930836 9.285675347533513, 90.93511582814826 9.725983222076879 C90.68090112225742 10.066607768534444, 90.4266864163666 10.40723231499201, 90.28332270195651 10.599326631598467 C90.13143131574637 10.77774689670562, 89.97953992953622 10.956167161812772, 89.57691345028037 11.42911513444238 C89.38999827154007 11.622120402513323, 89.20308309279974 11.815125670584267, 88.81879086025927 12.211938951661365 C88.62473817918311 12.388172462262142, 88.43068549810697 12.564405972862918, 88.01207022023242 12.944581292275275 C87.80947331025358 13.106146936653204, 87.60687640027474 13.26771258103113, 87.16006651835067 13.62403157175526 C86.93160225510707 13.783398351735444, 86.70313799186347 13.942765131715628, 86.26628082057934 14.247497783161286 C86.07236899445482 14.365048271710348, 85.8784571683303 14.482598760259409, 85.33438588406695 14.81241797009762 C85.13887977539699 14.9144133817631, 84.94337366672701 15.016408793428582, 84.36821106499849 15.316470754341124 C84.14004941749907 15.417471147514314, 83.91188776999967 15.518471540687505, 83.37172658294936 15.757584874882367 C82.96511448872536 15.907221884237796, 82.55850239450136 16.056858893593223, 82.34902720640156 16.133947699181363 C82.01723206055894 16.232422756839192, 81.68543691471633 16.33089781449702, 81.30431542646164 16.444012671663497 C80.93651219411971 16.527961359305145, 80.56870896177779 16.611910046946797, 80.24188418792333 16.68650566884811 C79.97503348800521 16.729648020552787, 79.70818278808709 16.772790372257464, 79.16609924863661 16.86043023499518 C78.8116017713295 16.894628180285405, 78.4571042940224 16.92882612557563, 78.08138123967211 16.965071676755716 C77.78878509153077 16.974454665722757, 77.49618894338941 16.983837654689797, 76.9921875 17 C76.9921875 17, 76.9921875 17, 76.9921875 17 C41.737101433233526 17, 6.482015366467053 17, -76.9921875 17 C-77.34492924771087 16.988688258721073, -77.69767099542173 16.977376517442146, -78.08138123967211 16.965071676755716 C-78.4350489978358 16.930953773473373, -78.78871675599952 16.89683587019103, -79.1660992486366 16.86043023499518 C-79.4656517203723 16.812000914429067, -79.76520419210803 16.76357159386295, -80.24188418792333 16.68650566884811 C-80.64009180950809 16.595617377768967, -81.03829943109285 16.50472908668982, -81.30431542646161 16.4440126716635 C-81.55113858441327 16.370756853984645, -81.79796174236492 16.29750103630579, -82.34902720640154 16.13394769918137 C-82.60190882827945 16.040884924718213, -82.85479045015735 15.94782215025506, -83.37172658294936 15.757584874882369 C-83.6459041257169 15.636214609887015, -83.92008166848444 15.514844344891662, -84.36821106499849 15.316470754341127 C-84.62842152898006 15.180719121954697, -84.88863199296163 15.044967489568267, -85.33438588406693 14.812417970097624 C-85.61377389062451 14.643051318656244, -85.8931618971821 14.473684667214865, -86.26628082057931 14.247497783161299 C-86.60878910606824 14.008578830148933, -86.95129739155718 13.769659877136565, -87.16006651835067 13.624031571755264 C-87.46654286379282 13.379624841943219, -87.77301920923497 13.135218112131174, -88.0120702202324 12.94458129227529 C-88.28559548048615 12.696172887994639, -88.5591207407399 12.447764483713987, -88.81879086025926 12.211938951661377 C-89.07148799819383 11.951008409923066, -89.3241851361284 11.690077868184755, -89.57691345028036 11.429115134442386 C-89.78672877377501 11.182654116635458, -89.99654409726965 10.93619309882853, -90.28332270195651 10.599326631598473 C-90.53985943702467 10.255590777584477, -90.79639617209284 9.911854923570482, -90.93511582814824 9.72598322207689 C-91.16268438049279 9.376376814963063, -91.39025293283733 9.026770407849234, -91.52961447109088 8.812673661278936 C-91.69866086805465 8.512514665665886, -91.86770726501841 8.212355670052839, -92.064375708341 7.863150934094201 C-92.23523931437211 7.5083490002751, -92.40610292040321 7.153547066455999, -92.53720209126881 6.881316833080701 C-92.62620112521009 6.661487498566467, -92.71520015915138 6.4416581640522335, -92.94615067484592 5.87120592516224 C-93.0480869463583 5.564190116706208, -93.15002321787068 5.257174308250177, -93.28954100162323 4.8369689727275516 C-93.35566981145058 4.584791160448373, -93.42179862127794 4.332613348169194, -93.565962007091 3.782855877257349 C-93.61761968765248 3.517604605428835, -93.66927736821394 3.2523533336003214, -93.77427781804565 2.713198215567455 C-93.8273871406864 2.301292796787778, -93.88049646332715 1.8893873780081014, -93.91363242013637 1.6323914404306026 C-93.93060459026934 1.368036190920448, -93.94757676040231 1.1036809414102933, -93.9834531754117 0.54487681871814 C-93.9834531754117 0.250398933696836, -93.9834531754117 -0.04407895132446793, -93.9834531754117 -0.5448768187181317 C-93.959804117902 -0.9132299786073836, -93.93615506039228 -1.2815831384966354, -93.91363242013637 -1.6323914404305793 C-93.87262522175776 -1.9504351732677854, -93.83161802337916 -2.2684789061049915, -93.77427781804565 -2.713198215567447 C-93.72698844443656 -2.956019154437444, -93.67969907082748 -3.1988400933074415, -93.565962007091 -3.782855877257341 C-93.46220962262706 -4.178508685786247, -93.35845723816311 -4.574161494315154, -93.28954100162323 -4.836968972727544 C-93.2072783390362 -5.084731005664372, -93.12501567644915 -5.3324930386012, -92.94615067484594 -5.871205925162218 C-92.82027312940018 -6.182125896090025, -92.69439558395442 -6.493045867017833, -92.53720209126881 -6.881316833080692 C-92.40564633734218 -7.15449517095155, -92.27409058341554 -7.427673508822407, -92.064375708341 -7.863150934094194 C-91.93235163396459 -8.097573047036725, -91.80032755958817 -8.331995159979256, -91.52961447109088 -8.812673661278929 C-91.3508175646344 -9.087353723288034, -91.1720206581779 -9.362033785297138, -90.93511582814826 -9.725983222076884 C-90.68923522539099 -10.055440829587898, -90.4433546226337 -10.384898437098913, -90.28332270195651 -10.599326631598467 C-90.01244732896592 -10.917512257958574, -89.74157195597533 -11.235697884318679, -89.57691345028037 -11.42911513444238 C-89.2929378532267 -11.72234325323041, -89.00896225617302 -12.015571372018439, -88.81879086025927 -12.21193895166136 C-88.51594999845264 -12.486971009624028, -88.213109136646 -12.762003067586699, -88.01207022023242 -12.944581292275274 C-87.739207361178 -13.16218216118554, -87.46634450212359 -13.379783030095806, -87.16006651835067 -13.624031571755259 C-86.86890158225931 -13.827135626845656, -86.57773664616795 -14.030239681936054, -86.26628082057934 -14.247497783161284 C-85.9093427800073 -14.463875720956812, -85.55240473943526 -14.68025365875234, -85.33438588406695 -14.812417970097618 C-85.09196329714446 -14.938889678416004, -84.84954071022197 -15.065361386734388, -84.36821106499849 -15.316470754341124 C-84.1610766755673 -15.408163004118963, -83.9539422861361 -15.499855253896802, -83.37172658294936 -15.757584874882365 C-83.16409632430262 -15.833994729377439, -82.95646606565587 -15.910404583872515, -82.34902720640156 -16.133947699181363 C-81.99446296821782 -16.239180503928633, -81.63989873003408 -16.3444133086759, -81.30431542646164 -16.444012671663494 C-80.93648993118931 -16.527966440673726, -80.568664435917 -16.61192020968396, -80.24188418792333 -16.68650566884811 C-79.91637020437562 -16.73913224530946, -79.59085622082793 -16.791758821770806, -79.16609924863661 -16.86043023499518 C-78.77723225815444 -16.897943765886016, -78.38836526767228 -16.93545729677685, -78.08138123967213 -16.965071676755716 C-77.83668112373512 -16.972918733193936, -77.5919810077981 -16.980765789632155, -76.9921875 -17 C-76.9921875 -17, -76.9921875 -17, -76.9921875 -17" stroke="none" stroke-width="0" fill="#2d2d2d" style=""></path><path d="M-76.9921875 -17 C-45.060647115658654 -17, -13.1291067313173 -17, 76.9921875 -17 M-76.9921875 -17 C-34.679884625075424 -17, 7.632418249849152 -17, 76.9921875 -17 M76.9921875 -17 C76.9921875 -17, 76.9921875 -17, 76.9921875 -17 M76.9921875 -17 C76.9921875 -17, 76.9921875 -17, 76.9921875 -17 M76.9921875 -17 C77.27255810203482 -16.991009060501014, 77.55292870406964 -16.982018121002028, 78.08138123967211 -16.965071676755716 M76.9921875 -17 C77.39017021918559 -16.987237468822087, 77.78815293837118 -16.974474937644175, 78.08138123967211 -16.965071676755716 M78.08138123967211 -16.965071676755716 C78.50779622391138 -16.923935936065202, 78.93421120815067 -16.882800195374692, 79.1660992486366 -16.860430234995185 M78.08138123967211 -16.965071676755716 C78.40655969696249 -16.933702102065226, 78.73173815425288 -16.902332527374735, 79.1660992486366 -16.860430234995185 M79.1660992486366 -16.860430234995185 C79.59160003163309 -16.791638568208167, 80.01710081462957 -16.722846901421153, 80.24188418792333 -16.686505668848113 M79.1660992486366 -16.860430234995185 C79.59378925729276 -16.791284631181213, 80.02147926594891 -16.722139027367238, 80.24188418792333 -16.686505668848113 M80.24188418792333 -16.686505668848113 C80.6137068936563 -16.601639562634475, 80.98552959938927 -16.516773456420832, 81.30431542646163 -16.4440126716635 M80.24188418792333 -16.686505668848113 C80.58335074941543 -16.6085681544651, 80.92481731090751 -16.530630640082087, 81.30431542646163 -16.4440126716635 M81.30431542646163 -16.4440126716635 C81.65763658084197 -16.339148807664003, 82.0109577352223 -16.234284943664502, 82.34902720640156 -16.133947699181366 M81.30431542646163 -16.4440126716635 C81.69748498065385 -16.327322011768352, 82.09065453484608 -16.210631351873204, 82.34902720640156 -16.133947699181366 M82.34902720640156 -16.133947699181366 C82.67527782548451 -16.013884455531176, 83.00152844456747 -15.893821211880985, 83.37172658294936 -15.757584874882369 M82.34902720640156 -16.133947699181366 C82.67367631088877 -16.01447382770665, 82.99832541537597 -15.894999956231931, 83.37172658294936 -15.757584874882369 M83.37172658294936 -15.757584874882369 C83.67622816404388 -15.622791057650296, 83.9807297451384 -15.487997240418224, 84.36821106499849 -15.316470754341125 M83.37172658294936 -15.757584874882369 C83.74741817409102 -15.591277351979045, 84.12310976523267 -15.424969829075723, 84.36821106499849 -15.316470754341125 M84.36821106499849 -15.316470754341125 C84.64619533351144 -15.171446539515337, 84.92417960202441 -15.026422324689548, 85.33438588406693 -14.812417970097622 M84.36821106499849 -15.316470754341125 C84.71792211322698 -15.13402672448094, 85.06763316145546 -14.951582694620754, 85.33438588406693 -14.812417970097622 M85.33438588406693 -14.812417970097622 C85.59376108561746 -14.655183198659822, 85.85313628716797 -14.497948427222024, 86.26628082057933 -14.247497783161291 M85.33438588406693 -14.812417970097622 C85.6761393144556 -14.60524503222993, 86.01789274484426 -14.398072094362242, 86.26628082057933 -14.247497783161291 M86.26628082057933 -14.247497783161291 C86.46142256891224 -14.111375347074388, 86.65656431724516 -13.975252910987482, 87.16006651835067 -13.624031571755262 M86.26628082057933 -14.247497783161291 C86.47156626228794 -14.104299545688908, 86.67685170399655 -13.961101308216527, 87.16006651835067 -13.624031571755262 M87.16006651835067 -13.624031571755262 C87.4257372404205 -13.412166240699403, 87.69140796249033 -13.200300909643543, 88.0120702202324 -12.944581292275288 M87.16006651835067 -13.624031571755262 C87.39187336906055 -13.439171776953508, 87.6236802197704 -13.254311982151753, 88.0120702202324 -12.944581292275288 M88.0120702202324 -12.944581292275288 C88.18462741248209 -12.787869415887245, 88.35718460473177 -12.6311575394992, 88.81879086025927 -12.21193895166137 M88.0120702202324 -12.944581292275288 C88.18672962582995 -12.785960241346222, 88.36138903142752 -12.627339190417157, 88.81879086025927 -12.21193895166137 M88.81879086025927 -12.21193895166137 C88.97779625313429 -12.04775282893237, 89.13680164600932 -11.883566706203371, 89.57691345028036 -11.42911513444239 M88.81879086025927 -12.21193895166137 C89.000050249739 -12.024773750350901, 89.18130963921875 -11.837608549040432, 89.57691345028036 -11.42911513444239 M89.57691345028036 -11.42911513444239 C89.83649392198633 -11.124197141829287, 90.0960743936923 -10.819279149216184, 90.28332270195651 -10.59932663159847 M89.57691345028036 -11.42911513444239 C89.8554146409761 -11.101971788684507, 90.13391583167181 -10.774828442926626, 90.28332270195651 -10.59932663159847 M90.28332270195651 -10.59932663159847 C90.53697012973507 -10.25946218613124, 90.79061755751363 -9.91959774066401, 90.93511582814824 -9.725983222076888 M90.28332270195651 -10.59932663159847 C90.51747012115105 -10.2855904211465, 90.75161754034558 -9.97185421069453, 90.93511582814824 -9.725983222076888 M90.93511582814824 -9.725983222076888 C91.05902663127164 -9.535622953769828, 91.18293743439501 -9.345262685462766, 91.52961447109088 -8.812673661278927 M90.93511582814824 -9.725983222076888 C91.1026887487449 -9.468546216410697, 91.27026166934156 -9.211109210744507, 91.52961447109088 -8.812673661278927 M91.52961447109088 -8.812673661278927 C91.71978661657845 -8.475003759947857, 91.90995876206603 -8.137333858616785, 92.064375708341 -7.863150934094199 M91.52961447109088 -8.812673661278927 C91.66009353855453 -8.580994864558914, 91.7905726060182 -8.349316067838899, 92.064375708341 -7.863150934094199 M92.064375708341 -7.863150934094199 C92.22880363558573 -7.521712824976488, 92.39323156283045 -7.180274715858776, 92.53720209126881 -6.881316833080699 M92.064375708341 -7.863150934094199 C92.21520010552561 -7.549960846215241, 92.36602450271022 -7.2367707583362835, 92.53720209126881 -6.881316833080699 M92.53720209126881 -6.881316833080699 C92.63826569663527 -6.631687773893639, 92.73932930200175 -6.382058714706581, 92.94615067484592 -5.871205925162238 M92.53720209126881 -6.881316833080699 C92.64828877284148 -6.606930581881304, 92.75937545441417 -6.332544330681909, 92.94615067484592 -5.871205925162238 M92.94615067484592 -5.871205925162238 C93.01694392515138 -5.657987934614858, 93.08773717545685 -5.444769944067478, 93.28954100162323 -4.836968972727556 M92.94615067484592 -5.871205925162238 C93.0454414628147 -5.572157891638992, 93.14473225078346 -5.2731098581157445, 93.28954100162323 -4.836968972727556 M93.28954100162323 -4.836968972727556 C93.35098542955441 -4.6026547388424435, 93.41242985748559 -4.368340504957331, 93.565962007091 -3.7828558772573464 M93.28954100162323 -4.836968972727556 C93.37054220952096 -4.528076260867919, 93.4515434174187 -4.219183549008281, 93.565962007091 -3.7828558772573464 M93.565962007091 -3.7828558772573464 C93.6139646809921 -3.5363722921439247, 93.66196735489319 -3.289888707030503, 93.77427781804565 -2.713198215567453 M93.565962007091 -3.7828558772573464 C93.62538782422507 -3.4777168659247804, 93.68481364135914 -3.1725778545922143, 93.77427781804565 -2.713198215567453 M93.77427781804565 -2.713198215567453 C93.82981336714919 -2.282475463455007, 93.88534891625272 -1.8517527113425614, 93.91363242013637 -1.632391440430593 M93.77427781804565 -2.713198215567453 C93.81595490315237 -2.389958973551018, 93.8576319882591 -2.066719731534583, 93.91363242013637 -1.632391440430593 M93.91363242013637 -1.632391440430593 C93.93455852251797 -1.3064505045912043, 93.95548462489958 -0.9805095687518157, 93.9834531754117 -0.5448768187181379 M93.91363242013637 -1.632391440430593 C93.92952855960351 -1.384796237097035, 93.94542469907066 -1.1372010337634773, 93.9834531754117 -0.5448768187181379 M93.9834531754117 -0.5448768187181379 C93.9834531754117 -0.24535487629817998, 93.9834531754117 0.05416706612177791, 93.9834531754117 0.5448768187181336 M93.9834531754117 -0.5448768187181379 C93.9834531754117 -0.2777835083366467, 93.9834531754117 -0.010690197955155578, 93.9834531754117 0.5448768187181336 M93.9834531754117 0.5448768187181336 C93.9559324805506 0.973533855484719, 93.9284117856895 1.4021908922513044, 93.91363242013637 1.6323914404305815 M93.9834531754117 0.5448768187181336 C93.96667436869491 0.806220276941106, 93.94989556197812 1.0675637351640783, 93.91363242013637 1.6323914404305815 M93.91363242013637 1.6323914404305815 C93.88094245995678 1.8859283162206744, 93.84825249977719 2.1394651920107672, 93.77427781804565 2.7131982155674415 M93.91363242013637 1.6323914404305815 C93.86737049541908 1.991189793087499, 93.8211085707018 2.3499881457444167, 93.77427781804565 2.7131982155674415 M93.77427781804565 2.7131982155674415 C93.71600819822272 3.0124003980696483, 93.6577385783998 3.3116025805718547, 93.565962007091 3.782855877257343 M93.77427781804565 2.7131982155674415 C93.72888821342191 2.9462642422139824, 93.68349860879817 3.179330268860524, 93.565962007091 3.782855877257343 M93.565962007091 3.782855877257343 C93.47497518844055 4.1298280507081655, 93.3839883697901 4.476800224158987, 93.28954100162323 4.836968972727545 M93.565962007091 3.782855877257343 C93.48036650137853 4.109268637865876, 93.39477099566604 4.435681398474408, 93.28954100162323 4.836968972727545 M93.28954100162323 4.836968972727545 C93.15972303521077 5.227960003877818, 93.02990506879831 5.618951035028089, 92.94615067484592 5.871205925162227 M93.28954100162323 4.836968972727545 C93.15557014498147 5.240467847575283, 93.0215992883397 5.64396672242302, 92.94615067484592 5.871205925162227 M92.94615067484592 5.871205925162227 C92.82220670753343 6.177349920717683, 92.69826274022093 6.48349391627314, 92.53720209126881 6.881316833080694 M92.94615067484592 5.871205925162227 C92.80721120469543 6.214389102645866, 92.66827173454493 6.557572280129505, 92.53720209126881 6.881316833080694 M92.53720209126881 6.881316833080694 C92.41687035251489 7.131188263289974, 92.29653861376096 7.381059693499253, 92.064375708341 7.863150934094196 M92.53720209126881 6.881316833080694 C92.42108389612736 7.122438749823285, 92.3049657009859 7.363560666565876, 92.064375708341 7.863150934094196 M92.064375708341 7.863150934094196 C91.90633754888279 8.143763689311205, 91.74829938942459 8.424376444528214, 91.52961447109088 8.812673661278923 M92.064375708341 7.863150934094196 C91.85611726427939 8.232934889979802, 91.64785882021778 8.60271884586541, 91.52961447109088 8.812673661278923 M91.52961447109088 8.812673661278923 C91.39601040848278 9.017925379159127, 91.26240634587468 9.223177097039331, 90.93511582814826 9.725983222076879 M91.52961447109088 8.812673661278923 C91.32837125518182 9.12183728228523, 91.12712803927275 9.431000903291535, 90.93511582814826 9.725983222076879 M90.93511582814826 9.725983222076879 C90.7629849236651 9.956622952636314, 90.59085401918193 10.187262683195748, 90.28332270195651 10.599326631598467 M90.93511582814826 9.725983222076879 C90.75422758012468 9.968356995170073, 90.57333933210109 10.210730768263264, 90.28332270195651 10.599326631598467 M90.28332270195651 10.599326631598467 C90.06631739341445 10.854233414963824, 89.8493120848724 11.109140198329179, 89.57691345028037 11.42911513444238 M90.28332270195651 10.599326631598467 C90.03720089126423 10.88843531516537, 89.79107908057198 11.177543998732274, 89.57691345028037 11.42911513444238 M89.57691345028037 11.42911513444238 C89.37078364245932 11.641961084589571, 89.16465383463827 11.85480703473676, 88.81879086025927 12.211938951661365 M89.57691345028037 11.42911513444238 C89.2788409657444 11.736899446931876, 88.98076848120841 12.044683759421373, 88.81879086025927 12.211938951661365 M88.81879086025927 12.211938951661365 C88.62778093829854 12.385409108940507, 88.43677101633781 12.558879266219648, 88.01207022023242 12.944581292275275 M88.81879086025927 12.211938951661365 C88.49714205115431 12.504051889729354, 88.17549324204936 12.796164827797341, 88.01207022023242 12.944581292275275 M88.01207022023242 12.944581292275275 C87.69490063930883 13.197515592824821, 87.37773105838524 13.450449893374369, 87.16006651835067 13.62403157175526 M88.01207022023242 12.944581292275275 C87.81990507275167 13.09782788366184, 87.6277399252709 13.251074475048405, 87.16006651835067 13.62403157175526 M87.16006651835067 13.62403157175526 C86.88587823498676 13.81529344881044, 86.61168995162285 14.006555325865618, 86.26628082057934 14.247497783161286 M87.16006651835067 13.62403157175526 C86.8939431581054 13.809667707567776, 86.62781979786013 13.995303843380292, 86.26628082057934 14.247497783161286 M86.26628082057934 14.247497783161286 C85.91747910704629 14.458943431691411, 85.56867739351324 14.670389080221536, 85.33438588406695 14.81241797009762 M86.26628082057934 14.247497783161286 C85.91827207578136 14.45846272938421, 85.57026333098338 14.669427675607135, 85.33438588406695 14.81241797009762 M85.33438588406695 14.81241797009762 C85.0150808885103 14.978999181754915, 84.69577589295363 15.145580393412208, 84.36821106499849 15.316470754341124 M85.33438588406695 14.81241797009762 C85.04984952601333 14.96086040583995, 84.76531316795973 15.109302841582283, 84.36821106499849 15.316470754341124 M84.36821106499849 15.316470754341124 C83.9745733803298 15.490722480496913, 83.58093569566111 15.664974206652705, 83.37172658294936 15.757584874882367 M84.36821106499849 15.316470754341124 C84.02883578655695 15.466702122897248, 83.6894605081154 15.61693349145337, 83.37172658294936 15.757584874882367 M83.37172658294936 15.757584874882367 C83.10653847618153 15.85517654954492, 82.84135036941368 15.952768224207473, 82.34902720640156 16.133947699181363 M83.37172658294936 15.757584874882367 C83.02774071111712 15.884174855487172, 82.68375483928489 16.01076483609198, 82.34902720640156 16.133947699181363 M82.34902720640156 16.133947699181363 C82.12703219281805 16.19983465393734, 81.90503717923455 16.265721608693323, 81.30431542646164 16.444012671663497 M82.34902720640156 16.133947699181363 C82.03746685714808 16.22641717542615, 81.7259065078946 16.318886651670937, 81.30431542646164 16.444012671663497 M81.30431542646164 16.444012671663497 C81.07385346111833 16.496614111348237, 80.84339149577502 16.549215551032972, 80.24188418792333 16.68650566884811 M81.30431542646164 16.444012671663497 C81.05357736701032 16.50124199751451, 80.802839307559 16.558471323365524, 80.24188418792333 16.68650566884811 M80.24188418792333 16.68650566884811 C79.96164095483547 16.731813221455024, 79.6813977217476 16.777120774061938, 79.16609924863661 16.86043023499518 M80.24188418792333 16.68650566884811 C79.81172762843676 16.75605004547196, 79.38157106895017 16.825594422095808, 79.16609924863661 16.86043023499518 M79.16609924863661 16.86043023499518 C78.74872666748617 16.900693665934796, 78.33135408633572 16.94095709687441, 78.08138123967211 16.965071676755716 M79.16609924863661 16.86043023499518 C78.83988934118236 16.89189931244248, 78.5136794337281 16.92336838988978, 78.08138123967211 16.965071676755716 M78.08138123967211 16.965071676755716 C77.7497789470141 16.975705516856554, 77.41817665435606 16.986339356957387, 76.9921875 17 M78.08138123967211 16.965071676755716 C77.8329504817709 16.97303836762047, 77.58451972386968 16.98100505848523, 76.9921875 17 M76.9921875 17 C76.9921875 17, 76.9921875 17, 76.9921875 17 M76.9921875 17 C76.9921875 17, 76.9921875 17, 76.9921875 17 M76.9921875 17 C41.79828870556511 17, 6.604389911130227 17, -76.9921875 17 M76.9921875 17 C18.759047826467075 17, -39.47409184706585 17, -76.9921875 17 M-76.9921875 17 C-77.36201433191341 16.988140373324796, -77.73184116382684 16.97628074664959, -78.08138123967211 16.965071676755716 M-76.9921875 17 C-77.23847661938072 16.99210198731415, -77.48476573876145 16.984203974628297, -78.08138123967211 16.965071676755716 M-78.08138123967211 16.965071676755716 C-78.3655914139059 16.937654263060125, -78.64980158813971 16.910236849364534, -79.1660992486366 16.86043023499518 M-78.08138123967211 16.965071676755716 C-78.330997978854 16.94099145013489, -78.58061471803589 16.916911223514063, -79.1660992486366 16.86043023499518 M-79.1660992486366 16.86043023499518 C-79.41437450930188 16.82029101625422, -79.66264976996716 16.780151797513263, -80.24188418792333 16.68650566884811 M-79.1660992486366 16.86043023499518 C-79.53367891156599 16.80100280571562, -79.90125857449537 16.741575376436057, -80.24188418792333 16.68650566884811 M-80.24188418792333 16.68650566884811 C-80.57197027442876 16.611165673616263, -80.9020563609342 16.535825678384416, -81.30431542646161 16.4440126716635 M-80.24188418792333 16.68650566884811 C-80.56895330204709 16.611854277874794, -80.89602241617087 16.537202886901476, -81.30431542646161 16.4440126716635 M-81.30431542646161 16.4440126716635 C-81.6622333833605 16.337784500805604, -82.0201513402594 16.231556329947708, -82.34902720640154 16.13394769918137 M-81.30431542646161 16.4440126716635 C-81.70671993837573 16.324581124791777, -82.10912445028985 16.205149577920054, -82.34902720640154 16.13394769918137 M-82.34902720640154 16.13394769918137 C-82.59711838489768 16.042647852165075, -82.84520956339384 15.951348005148779, -83.37172658294936 15.757584874882369 M-82.34902720640154 16.13394769918137 C-82.57037464826526 16.0524897944622, -82.79172209012897 15.97103188974303, -83.37172658294936 15.757584874882369 M-83.37172658294936 15.757584874882369 C-83.61853448621926 15.648330337401108, -83.86534238948917 15.539075799919846, -84.36821106499849 15.316470754341127 M-83.37172658294936 15.757584874882369 C-83.64523456802293 15.636511003216416, -83.91874255309648 15.515437131550462, -84.36821106499849 15.316470754341127 M-84.36821106499849 15.316470754341127 C-84.57277661355444 15.209749038689974, -84.77734216211039 15.10302732303882, -85.33438588406693 14.812417970097624 M-84.36821106499849 15.316470754341127 C-84.66427591837518 15.162013909973098, -84.96034077175186 15.007557065605067, -85.33438588406693 14.812417970097624 M-85.33438588406693 14.812417970097624 C-85.58687417410812 14.659358084888767, -85.8393624641493 14.506298199679913, -86.26628082057931 14.247497783161299 M-85.33438588406693 14.812417970097624 C-85.66877074856586 14.60971190017479, -86.00315561306479 14.407005830251956, -86.26628082057931 14.247497783161299 M-86.26628082057931 14.247497783161299 C-86.50988513462745 14.077569959142107, -86.75348944867561 13.907642135122915, -87.16006651835067 13.624031571755264 M-86.26628082057931 14.247497783161299 C-86.53649979851394 14.059004721745122, -86.80671877644858 13.870511660328946, -87.16006651835067 13.624031571755264 M-87.16006651835067 13.624031571755264 C-87.38143411665268 13.447496802948601, -87.6028017149547 13.270962034141938, -88.0120702202324 12.94458129227529 M-87.16006651835067 13.624031571755264 C-87.47912969001598 13.36958718297977, -87.79819286168127 13.115142794204274, -88.0120702202324 12.94458129227529 M-88.0120702202324 12.94458129227529 C-88.33394867038731 12.6522598002817, -88.65582712054223 12.359938308288111, -88.81879086025926 12.211938951661377 M-88.0120702202324 12.94458129227529 C-88.20682190900813 12.767712961376493, -88.40157359778385 12.590844630477697, -88.81879086025926 12.211938951661377 M-88.81879086025926 12.211938951661377 C-89.0303845808083 11.993451063026958, -89.24197830135734 11.77496317439254, -89.57691345028036 11.429115134442386 M-88.81879086025926 12.211938951661377 C-89.04182212835289 11.98164085614705, -89.26485339644651 11.751342760632724, -89.57691345028036 11.429115134442386 M-89.57691345028036 11.429115134442386 C-89.81083797210087 11.154334080429642, -90.0447624939214 10.879553026416898, -90.28332270195651 10.599326631598473 M-89.57691345028036 11.429115134442386 C-89.84379017637187 11.115626546259396, -90.11066690246338 10.802137958076406, -90.28332270195651 10.599326631598473 M-90.28332270195651 10.599326631598473 C-90.48786711038859 10.325255758678423, -90.69241151882069 10.051184885758376, -90.93511582814824 9.72598322207689 M-90.28332270195651 10.599326631598473 C-90.4841015183288 10.330301308986051, -90.6848803347011 10.06127598637363, -90.93511582814824 9.72598322207689 M-90.93511582814824 9.72598322207689 C-91.08964323057803 9.488587635527134, -91.24417063300783 9.251192048977378, -91.52961447109088 8.812673661278936 M-90.93511582814824 9.72598322207689 C-91.08675662290723 9.49302224007218, -91.23839741766622 9.260061258067472, -91.52961447109088 8.812673661278936 M-91.52961447109088 8.812673661278936 C-91.65018255630594 8.598592817137106, -91.77075064152098 8.384511972995277, -92.064375708341 7.863150934094201 M-91.52961447109088 8.812673661278936 C-91.64476507775417 8.60821209888495, -91.75991568441745 8.403750536490962, -92.064375708341 7.863150934094201 M-92.064375708341 7.863150934094201 C-92.17671468030302 7.629876655146124, -92.28905365226504 7.3966023761980475, -92.53720209126881 6.881316833080701 M-92.064375708341 7.863150934094201 C-92.19181305888375 7.598524548969686, -92.3192504094265 7.33389816384517, -92.53720209126881 6.881316833080701 M-92.53720209126881 6.881316833080701 C-92.63428671032759 6.6415159470021035, -92.73137132938636 6.4017150609235065, -92.94615067484592 5.87120592516224 M-92.53720209126881 6.881316833080701 C-92.69777890437884 6.484689000157439, -92.85835571748888 6.088061167234177, -92.94615067484592 5.87120592516224 M-92.94615067484592 5.87120592516224 C-93.07049340264545 5.496705440353291, -93.194836130445 5.122204955544342, -93.28954100162323 4.8369689727275516 M-92.94615067484592 5.87120592516224 C-93.0583853908269 5.533172842801093, -93.17062010680787 5.195139760439948, -93.28954100162323 4.8369689727275516 M-93.28954100162323 4.8369689727275516 C-93.36082379573466 4.565136784622286, -93.43210658984609 4.293304596517022, -93.565962007091 3.782855877257349 M-93.28954100162323 4.8369689727275516 C-93.34832992704216 4.612781320823755, -93.40711885246108 4.388593668919959, -93.565962007091 3.782855877257349 M-93.565962007091 3.782855877257349 C-93.62991876277556 3.4544514540822115, -93.69387551846013 3.1260470309070745, -93.77427781804565 2.713198215567455 M-93.565962007091 3.782855877257349 C-93.60984878724115 3.557506536660637, -93.65373556739128 3.3321571960639242, -93.77427781804565 2.713198215567455 M-93.77427781804565 2.713198215567455 C-93.80452097136458 2.4786382906118676, -93.83476412468353 2.24407836565628, -93.91363242013637 1.6323914404306026 M-93.77427781804565 2.713198215567455 C-93.81227232795338 2.418520299587681, -93.85026683786111 2.123842383607907, -93.91363242013637 1.6323914404306026 M-93.91363242013637 1.6323914404306026 C-93.9406771392212 1.211148110580018, -93.96772185830604 0.7899047807294333, -93.9834531754117 0.54487681871814 M-93.91363242013637 1.6323914404306026 C-93.9396470966302 1.2271918553703403, -93.96566177312403 0.8219922703100779, -93.9834531754117 0.54487681871814 M-93.9834531754117 0.54487681871814 C-93.9834531754117 0.11862434298634777, -93.9834531754117 -0.3076281327454444, -93.9834531754117 -0.5448768187181317 M-93.9834531754117 0.54487681871814 C-93.9834531754117 0.25980570249295515, -93.9834531754117 -0.02526541373222968, -93.9834531754117 -0.5448768187181317 M-93.9834531754117 -0.5448768187181317 C-93.96497845024906 -0.8326355756559114, -93.94650372508643 -1.1203943325936911, -93.91363242013637 -1.6323914404305793 M-93.9834531754117 -0.5448768187181317 C-93.96270221520825 -0.8680897737603311, -93.94195125500481 -1.1913027288025306, -93.91363242013637 -1.6323914404305793 M-93.91363242013637 -1.6323914404305793 C-93.87888536131666 -1.9018827670533704, -93.84413830249696 -2.1713740936761616, -93.77427781804565 -2.713198215567447 M-93.91363242013637 -1.6323914404305793 C-93.86980881539903 -1.9722786648238462, -93.82598521066167 -2.312165889217113, -93.77427781804565 -2.713198215567447 M-93.77427781804565 -2.713198215567447 C-93.7201791468561 -2.990983458367554, -93.66608047566656 -3.2687687011676614, -93.565962007091 -3.782855877257341 M-93.77427781804565 -2.713198215567447 C-93.69790964762807 -3.1053326302432342, -93.62154147721047 -3.497467044919022, -93.565962007091 -3.782855877257341 M-93.565962007091 -3.782855877257341 C-93.47650807286287 -4.123982498049559, -93.38705413863474 -4.465109118841776, -93.28954100162323 -4.836968972727544 M-93.565962007091 -3.782855877257341 C-93.50557048036205 -4.0131549425280815, -93.4451789536331 -4.243454007798821, -93.28954100162323 -4.836968972727544 M-93.28954100162323 -4.836968972727544 C-93.1737455774623 -5.18572634080496, -93.05795015330135 -5.5344837088823775, -92.94615067484594 -5.871205925162218 M-93.28954100162323 -4.836968972727544 C-93.22031059121886 -5.045479938497572, -93.15108018081449 -5.2539909042676, -92.94615067484594 -5.871205925162218 M-92.94615067484594 -5.871205925162218 C-92.8328746780822 -6.150999827211057, -92.71959868131846 -6.430793729259896, -92.53720209126881 -6.881316833080692 M-92.94615067484594 -5.871205925162218 C-92.80247850577271 -6.226078960485504, -92.65880633669948 -6.580951995808789, -92.53720209126881 -6.881316833080692 M-92.53720209126881 -6.881316833080692 C-92.36661903343256 -7.235536202570405, -92.19603597559632 -7.589755572060117, -92.064375708341 -7.863150934094194 M-92.53720209126881 -6.881316833080692 C-92.36626636016038 -7.236268536166071, -92.19533062905197 -7.591220239251449, -92.064375708341 -7.863150934094194 M-92.064375708341 -7.863150934094194 C-91.95654995629967 -8.054606475384952, -91.84872420425832 -8.246062016675712, -91.52961447109088 -8.812673661278929 M-92.064375708341 -7.863150934094194 C-91.95661812896826 -8.054485427908627, -91.84886054959551 -8.24581992172306, -91.52961447109088 -8.812673661278929 M-91.52961447109088 -8.812673661278929 C-91.38359087601643 -9.037005116138879, -91.23756728094197 -9.261336570998829, -90.93511582814826 -9.725983222076884 M-91.52961447109088 -8.812673661278929 C-91.39172574275283 -9.024507776314191, -91.25383701441477 -9.236341891349452, -90.93511582814826 -9.725983222076884 M-90.93511582814826 -9.725983222076884 C-90.76882236456925 -9.948801313626566, -90.60252890099024 -10.171619405176248, -90.28332270195651 -10.599326631598467 M-90.93511582814826 -9.725983222076884 C-90.72250191008544 -10.010866502754643, -90.50988799202263 -10.295749783432404, -90.28332270195651 -10.599326631598467 M-90.28332270195651 -10.599326631598467 C-90.11330221232171 -10.799042373163418, -89.94328172268692 -10.998758114728371, -89.57691345028037 -11.42911513444238 M-90.28332270195651 -10.599326631598467 C-90.07315443370157 -10.84620223840395, -89.86298616544666 -11.093077845209436, -89.57691345028037 -11.42911513444238 M-89.57691345028037 -11.42911513444238 C-89.36306238177296 -11.649933920175528, -89.14921131326555 -11.870752705908677, -88.81879086025927 -12.21193895166136 M-89.57691345028037 -11.42911513444238 C-89.28412691209655 -11.731441273339009, -88.99134037391272 -12.033767412235637, -88.81879086025927 -12.21193895166136 M-88.81879086025927 -12.21193895166136 C-88.56301742177781 -12.444225621095878, -88.30724398329636 -12.676512290530395, -88.01207022023242 -12.944581292275274 M-88.81879086025927 -12.21193895166136 C-88.50992821963544 -12.492439829818274, -88.2010655790116 -12.772940707975186, -88.01207022023242 -12.944581292275274 M-88.01207022023242 -12.944581292275274 C-87.75540541940063 -13.14926464080142, -87.49874061856886 -13.353947989327565, -87.16006651835067 -13.624031571755259 M-88.01207022023242 -12.944581292275274 C-87.68493154675444 -13.205465678848249, -87.35779287327647 -13.466350065421224, -87.16006651835067 -13.624031571755259 M-87.16006651835067 -13.624031571755259 C-86.89825573650393 -13.806659439565468, -86.6364449546572 -13.989287307375676, -86.26628082057934 -14.247497783161284 M-87.16006651835067 -13.624031571755259 C-86.95459270073898 -13.767361212102973, -86.74911888312728 -13.910690852450687, -86.26628082057934 -14.247497783161284 M-86.26628082057934 -14.247497783161284 C-85.89503681695282 -14.472548079831606, -85.52379281332631 -14.697598376501928, -85.33438588406695 -14.812417970097618 M-86.26628082057934 -14.247497783161284 C-86.07215868006982 -14.365175765526477, -85.8780365395603 -14.48285374789167, -85.33438588406695 -14.812417970097618 M-85.33438588406695 -14.812417970097618 C-85.14077035808431 -14.913427065986097, -84.94715483210167 -15.014436161874574, -84.36821106499849 -15.316470754341124 M-85.33438588406695 -14.812417970097618 C-85.0879883068882 -14.940963428286585, -84.84159072970947 -15.069508886475552, -84.36821106499849 -15.316470754341124 M-84.36821106499849 -15.316470754341124 C-84.0592366762266 -15.453244550850842, -83.75026228745472 -15.59001834736056, -83.37172658294936 -15.757584874882365 M-84.36821106499849 -15.316470754341124 C-84.10451417750618 -15.433201544143731, -83.84081729001386 -15.549932333946337, -83.37172658294936 -15.757584874882365 M-83.37172658294936 -15.757584874882365 C-83.13802596985688 -15.843588860805186, -82.90432535676439 -15.929592846728008, -82.34902720640156 -16.133947699181363 M-83.37172658294936 -15.757584874882365 C-83.14955247535538 -15.839347000231891, -82.92737836776138 -15.921109125581417, -82.34902720640156 -16.133947699181363 M-82.34902720640156 -16.133947699181363 C-82.01167033307375 -16.234073448362693, -81.67431345974595 -16.33419919754402, -81.30431542646164 -16.444012671663494 M-82.34902720640156 -16.133947699181363 C-81.95315982205702 -16.25143906090452, -81.55729243771248 -16.368930422627678, -81.30431542646164 -16.444012671663494 M-81.30431542646164 -16.444012671663494 C-80.96974812958906 -16.520375473919014, -80.63518083271649 -16.59673827617453, -80.24188418792333 -16.68650566884811 M-81.30431542646164 -16.444012671663494 C-81.05512659406664 -16.500888396548557, -80.80593776167163 -16.557764121433618, -80.24188418792333 -16.68650566884811 M-80.24188418792333 -16.68650566884811 C-79.81823950391554 -16.7549972559449, -79.39459481990772 -16.823488843041687, -79.16609924863661 -16.86043023499518 M-80.24188418792333 -16.68650566884811 C-79.94629401766683 -16.734294395239175, -79.65070384741033 -16.78208312163024, -79.16609924863661 -16.86043023499518 M-79.16609924863661 -16.86043023499518 C-78.80948855853897 -16.894832039381797, -78.45287786844133 -16.929233843768415, -78.08138123967213 -16.965071676755716 M-79.16609924863661 -16.86043023499518 C-78.7626509453696 -16.899350407593776, -78.35920264210259 -16.93827058019237, -78.08138123967213 -16.965071676755716 M-78.08138123967213 -16.965071676755716 C-77.69435698376219 -16.977482791345732, -77.30733272785226 -16.98989390593575, -76.9921875 -17 M-78.08138123967213 -16.965071676755716 C-77.7505355109082 -16.975681255325032, -77.41968978214426 -16.986290833894348, -76.9921875 -17 M-76.9921875 -17 C-76.9921875 -17, -76.9921875 -17, -76.9921875 -17 M-76.9921875 -17 C-76.9921875 -17, -76.9921875 -17, -76.9921875 -17" stroke="#555555" stroke-width="1.3" fill="none" stroke-dasharray="0 0" style=""></path></g><g class="label" style="" transform="translate(0, -9.5)"><rect></rect><g><rect class="background" style="stroke: none"></rect><text y="-10.1" style=""><tspan class="text-outer-tspan row" x="0" y="-0.1em" dy="1.1em"><tspan font-style="normal" class="text-inner-tspan" font-weight="normal">throw</tspan><tspan font-style="normal" class="text-inner-tspan" font-weight="normal"> /</tspan><tspan font-style="normal" class="text-inner-tspan" font-weight="normal"> Promise</tspan><tspan font-style="normal" class="text-inner-tspan" font-weight="normal"> reject</tspan></tspan></text></g></g></g><g class="node default" id="g831ee753-56ab-4fb7-8e0b-13ad1f5e7302-dark-flowchart-KIND-1" data-look="classic" transform="translate(388.80078125, 150.62812423706055)"><polygon points="58.62812423706055,0 117.2562484741211,-58.62812423706055 58.62812423706055,-117.2562484741211 0,-58.62812423706055" class="label-container" transform="translate(-58.12812423706055, 58.62812423706055)"></polygon><g class="label" style="" transform="translate(0, -18.299999237060547)"><rect></rect><g><rect class="background" style="stroke: none"></rect><text y="-10.1" style=""><tspan class="text-outer-tspan row" x="0" y="-0.1em" dy="1.1em"><tspan font-style="normal" class="text-inner-tspan" font-weight="normal">sync</tspan><tspan font-style="normal" class="text-inner-tspan" font-weight="normal"> or</tspan></tspan><tspan class="text-outer-tspan row" x="0" y="1em" dy="1.1em"><tspan font-style="normal" class="text-inner-tspan" font-weight="normal">async?</tspan></tspan></text></g></g></g><g class="node default" id="g831ee753-56ab-4fb7-8e0b-13ad1f5e7302-dark-flowchart-TRY-3" data-look="classic" transform="translate(245.33984375, 371.5250015258789)"><polygon points="75.15156173706055,0 150.3031234741211,-75.15156173706055 75.15156173706055,-150.3031234741211 0,-75.15156173706055" class="label-container" transform="translate(-74.65156173706055, 75.15156173706055)"></polygon><g class="label" style="" transform="translate(0, -18.299999237060547)"><rect></rect><g><rect class="background" style="stroke: none"></rect><text y="-10.1" style=""><tspan class="text-outer-tspan row" x="0" y="-0.1em" dy="1.1em"><tspan font-style="normal" class="text-inner-tspan" font-weight="normal">in</tspan><tspan font-style="normal" class="text-inner-tspan" font-weight="normal"> a</tspan></tspan><tspan class="text-outer-tspan row" x="0" y="1em" dy="1.1em"><tspan font-style="normal" class="text-inner-tspan" font-weight="normal">try</tspan><tspan font-style="normal" class="text-inner-tspan" font-weight="normal"> /</tspan><tspan font-style="normal" class="text-inner-tspan" font-weight="normal"> catch?</tspan></tspan></text></g></g></g><g class="node default" id="g831ee753-56ab-4fb7-8e0b-13ad1f5e7302-dark-flowchart-AW-5" data-look="classic" transform="translate(505.00390625, 371.5250015258789)"><polygon points="89.26874923706055,0 178.5374984741211,-89.26874923706055 89.26874923706055,-178.5374984741211 0,-89.26874923706055" class="label-container" transform="translate(-88.76874923706055, 89.26874923706055)"></polygon><g class="label" style="" transform="translate(0, -18.299999237060547)"><rect></rect><g><rect class="background" style="stroke: none"></rect><text y="-10.1" style=""><tspan class="text-outer-tspan row" x="0" y="-0.1em" dy="1.1em"><tspan font-style="normal" class="text-inner-tspan" font-weight="normal">awaited</tspan><tspan font-style="normal" class="text-inner-tspan" font-weight="normal"> or</tspan></tspan><tspan class="text-outer-tspan row" x="0" y="1em" dy="1.1em"><tspan font-style="normal" class="text-inner-tspan" font-weight="normal">.catch</tspan><tspan font-style="normal" class="text-inner-tspan" font-weight="normal"> chained?</tspan></tspan></text></g></g></g><g class="node default" id="g831ee753-56ab-4fb7-8e0b-13ad1f5e7302-dark-flowchart-LOCAL-7" data-look="classic" transform="translate(107.03125, 575.8937530517578)"><rect class="basic label-container" style="" x="-99.03125" y="-24.5" width="198.0625" height="49"></rect><g class="label" style="" transform="translate(0, -9.5)"><rect></rect><g><rect class="background" style="stroke: none"></rect><text y="-10.1" style=""><tspan class="text-outer-tspan row" x="0" y="-0.1em" dy="1.1em"><tspan font-style="normal" class="text-inner-tspan" font-weight="normal">local</tspan><tspan font-style="normal" class="text-inner-tspan" font-weight="normal"> catch</tspan><tspan font-style="normal" class="text-inner-tspan" font-weight="normal"> handles</tspan></tspan></text></g></g></g><g class="node default" id="g831ee753-56ab-4fb7-8e0b-13ad1f5e7302-dark-flowchart-GERR-9" data-look="classic" transform="translate(383.6484375, 575.8937530517578)"><rect class="basic label-container" style="" x="-127.5859375" y="-33.29999923706055" width="255.171875" height="66.5999984741211"></rect><g class="label" style="" transform="translate(0, -18.299999237060547)"><rect></rect><g><rect class="background" style="stroke: none"></rect><text y="-10.1" style=""><tspan class="text-outer-tspan row" x="0" y="-0.1em" dy="1.1em"><tspan font-style="normal" class="text-inner-tspan" font-weight="normal">dispatch</tspan><tspan font-style="normal" class="text-inner-tspan" font-weight="normal"> global</tspan></tspan><tspan class="text-outer-tspan row" x="0" y="1em" dy="1.1em"><tspan font-style="normal" class="text-inner-tspan" font-weight="normal">'error'</tspan><tspan font-style="normal" class="text-inner-tspan" font-weight="normal"> /</tspan><tspan font-style="normal" class="text-inner-tspan" font-weight="normal"> uncaughtException</tspan></tspan></text></g></g></g><g class="node default" id="g831ee753-56ab-4fb7-8e0b-13ad1f5e7302-dark-flowchart-URJ-13" data-look="classic" transform="translate(670.5703125, 575.8937530517578)"><rect class="basic label-container" style="" x="-109.3359375" y="-42.099998474121094" width="218.671875" height="84.19999694824219"></rect><g class="label" style="" transform="translate(0, -27.099998474121094)"><rect></rect><g><rect class="background" style="stroke: none"></rect><text y="-10.1" style=""><tspan class="text-outer-tspan row" x="0" y="-0.1em" dy="1.1em"><tspan font-style="normal" class="text-inner-tspan" font-weight="normal">dispatch</tspan></tspan><tspan class="text-outer-tspan row" x="0" y="1em" dy="1.1em"><tspan font-style="normal" class="text-inner-tspan" font-weight="normal">'unhandledrejection'</tspan><tspan font-style="normal" class="text-inner-tspan" font-weight="normal"> /</tspan></tspan><tspan class="text-outer-tspan row" x="0" y="2.1em" dy="1.1em"><tspan font-style="normal" class="text-inner-tspan" font-weight="normal">'unhandledRejection'</tspan></tspan></text></g></g></g><g class="node default" id="g831ee753-56ab-4fb7-8e0b-13ad1f5e7302-dark-flowchart-BR-15" data-look="classic" transform="translate(527.109375, 723.7437515258789)"><polygon points="55.75,0 111.5,-55.75 55.75,-111.5 0,-55.75" class="label-container" transform="translate(-55.25, 55.75)"></polygon><g class="label" style="" transform="translate(0, -9.5)"><rect></rect><g><rect class="background" style="stroke: none"></rect><text y="-10.1" style=""><tspan class="text-outer-tspan row" x="0" y="-0.1em" dy="1.1em"><tspan font-style="normal" class="text-inner-tspan" font-weight="normal">runtime?</tspan></tspan></text></g></g></g><g class="node default" id="g831ee753-56ab-4fb7-8e0b-13ad1f5e7302-dark-flowchart-BRWeb-19" data-look="classic" transform="translate(373.84765625, 903.3937530517578)"><rect class="basic label-container" style="" x="-128.2421875" y="-42.099998474121094" width="256.484375" height="84.19999694824219"></rect><g class="label" style="" transform="translate(0, -27.099998474121094)"><rect></rect><g><rect class="background" style="stroke: none"></rect><text y="-10.1" style=""><tspan class="text-outer-tspan row" x="0" y="-0.1em" dy="1.1em"><tspan font-style="normal" class="text-inner-tspan" font-weight="normal">window.addEventListener</tspan></tspan><tspan class="text-outer-tspan row" x="0" y="1em" dy="1.1em"><tspan font-style="normal" class="text-inner-tspan" font-weight="normal">(error,</tspan><tspan font-style="normal" class="text-inner-tspan" font-weight="normal"> unhandledrejection)</tspan></tspan><tspan class="text-outer-tspan row" x="0" y="2.1em" dy="1.1em"><tspan font-style="normal" class="text-inner-tspan" font-weight="normal">preventDefault</tspan><tspan font-style="normal" class="text-inner-tspan" font-weight="normal"> to</tspan><tspan font-style="normal" class="text-inner-tspan" font-weight="normal"> silence</tspan></tspan></text></g></g></g><g class="node default" id="g831ee753-56ab-4fb7-8e0b-13ad1f5e7302-dark-flowchart-NODE-21" data-look="classic" transform="translate(680.37109375, 903.3937530517578)"><rect class="basic label-container" style="" x="-128.28125" y="-50.900001525878906" width="256.5625" height="101.80000305175781"></rect><g class="label" style="" transform="translate(0, -35.900001525878906)"><rect></rect><g><rect class="background" style="stroke: none"></rect><text y="-10.1" style=""><tspan class="text-outer-tspan row" x="0" y="-0.1em" dy="1.1em"><tspan font-style="normal" class="text-inner-tspan" font-weight="normal">process.on(uncaughtExcept</tspan></tspan><tspan class="text-outer-tspan row" x="0" y="1em" dy="1.1em"><tspan font-style="normal" class="text-inner-tspan" font-weight="normal">ion,</tspan></tspan><tspan class="text-outer-tspan row" x="0" y="2.1em" dy="1.1em"><tspan font-style="normal" class="text-inner-tspan" font-weight="normal">unhandledRejection)</tspan></tspan><tspan class="text-outer-tspan row" x="0" y="3.2em" dy="1.1em"><tspan font-style="normal" class="text-inner-tspan" font-weight="normal">default:</tspan><tspan font-style="normal" class="text-inner-tspan" font-weight="normal"> log</tspan><tspan font-style="normal" class="text-inner-tspan" font-weight="normal"> +</tspan><tspan font-style="normal" class="text-inner-tspan" font-weight="normal"> exit</tspan><tspan font-style="normal" class="text-inner-tspan" font-weight="normal"> 1</tspan></tspan></text></g></g></g><g class="node default" id="g831ee753-56ab-4fb7-8e0b-13ad1f5e7302-dark-flowchart-RUM-23" data-look="classic" transform="translate(373.84765625, 1037.5937538146973)"><rect class="basic label-container" style="" x="-80.375" y="-33.29999923706055" width="160.75" height="66.5999984741211"></rect><g class="label" style="" transform="translate(0, -18.299999237060547)"><rect></rect><g><rect class="background" style="stroke: none"></rect><text y="-10.1" style=""><tspan class="text-outer-tspan row" x="0" y="-0.1em" dy="1.1em"><tspan font-style="normal" class="text-inner-tspan" font-weight="normal">Sentry</tspan><tspan font-style="normal" class="text-inner-tspan" font-weight="normal"> /</tspan><tspan font-style="normal" class="text-inner-tspan" font-weight="normal"> RUM</tspan></tspan><tspan class="text-outer-tspan row" x="0" y="1em" dy="1.1em"><tspan font-style="normal" class="text-inner-tspan" font-weight="normal">error</tspan><tspan font-style="normal" class="text-inner-tspan" font-weight="normal"> reporter</tspan></tspan></text></g></g></g><g class="node default" id="g831ee753-56ab-4fb7-8e0b-13ad1f5e7302-dark-flowchart-SUP-25" data-look="classic" transform="translate(680.37109375, 1037.5937538146973)"><rect class="basic label-container" style="" x="-99.765625" y="-33.29999923706055" width="199.53125" height="66.5999984741211"></rect><g class="label" style="" transform="translate(0, -18.299999237060547)"><rect></rect><g><rect class="background" style="stroke: none"></rect><text y="-10.1" style=""><tspan class="text-outer-tspan row" x="0" y="-0.1em" dy="1.1em"><tspan font-style="normal" class="text-inner-tspan" font-weight="normal">graceful</tspan><tspan font-style="normal" class="text-inner-tspan" font-weight="normal"> shutdown</tspan></tspan><tspan class="text-outer-tspan row" x="0" y="1em" dy="1.1em"><tspan font-style="normal" class="text-inner-tspan" font-weight="normal">+</tspan><tspan font-style="normal" class="text-inner-tspan" font-weight="normal"> supervisor</tspan><tspan font-style="normal" class="text-inner-tspan" font-weight="normal"> restart</tspan></tspan></text></g></g></g></g></g></g><defs><filter id="g831ee753-56ab-4fb7-8e0b-13ad1f5e7302-dark-drop-shadow" height="130%" width="130%"><feDropShadow dx="4" dy="4" stdDeviation="0" flood-opacity="0.06" flood-color="#000000"></feDropShadow></filter></defs><defs><filter id="g831ee753-56ab-4fb7-8e0b-13ad1f5e7302-dark-drop-shadow-small" height="150%" width="150%"><feDropShadow dx="2" dy="2" stdDeviation="0" flood-opacity="0.06" flood-color="#000000"></feDropShadow></filter></defs><linearGradient id="g831ee753-56ab-4fb7-8e0b-13ad1f5e7302-dark-gradient" gradientUnits="objectBoundingBox" x1="0%" y1="0%" x2="100%" y2="0%"><stop offset="0%" stop-color="#555555" stop-opacity="1"></stop><stop offset="100%" stop-color="#555555" stop-opacity="1"></stop></linearGradient></svg>