<svg id="gf959918f-4f00-4d9f-8185-5bc5549be22b-light" width="100%" xmlns="http://www.w3.org/2000/svg" xmlns:xlink="http://www.w3.org/1999/xlink" class="flowchart" style="max-width: 561.4200439453125px;" viewBox="0 0 561.4200439453125 687.1187744140625" role="graphics-document document" aria-roledescription="flowchart-v2"><style>#gf959918f-4f00-4d9f-8185-5bc5549be22b-light{font-family:"trebuchet ms",verdana,arial,sans-serif;font-size:16px;fill:#333;}@keyframes edge-animation-frame{from{stroke-dashoffset:0;}}@keyframes dash{to{stroke-dashoffset:0;}}#gf959918f-4f00-4d9f-8185-5bc5549be22b-light .edge-animation-slow{stroke-dasharray:9,5!important;stroke-dashoffset:900;animation:dash 50s linear infinite;stroke-linecap:round;}#gf959918f-4f00-4d9f-8185-5bc5549be22b-light .edge-animation-fast{stroke-dasharray:9,5!important;stroke-dashoffset:900;animation:dash 20s linear infinite;stroke-linecap:round;}#gf959918f-4f00-4d9f-8185-5bc5549be22b-light .error-icon{fill:#552222;}#gf959918f-4f00-4d9f-8185-5bc5549be22b-light .error-text{fill:#552222;stroke:#552222;}#gf959918f-4f00-4d9f-8185-5bc5549be22b-light .edge-thickness-normal{stroke-width:1px;}#gf959918f-4f00-4d9f-8185-5bc5549be22b-light .edge-thickness-thick{stroke-width:3.5px;}#gf959918f-4f00-4d9f-8185-5bc5549be22b-light .edge-pattern-solid{stroke-dasharray:0;}#gf959918f-4f00-4d9f-8185-5bc5549be22b-light .edge-thickness-invisible{stroke-width:0;fill:none;}#gf959918f-4f00-4d9f-8185-5bc5549be22b-light .edge-pattern-dashed{stroke-dasharray:3;}#gf959918f-4f00-4d9f-8185-5bc5549be22b-light .edge-pattern-dotted{stroke-dasharray:2;}#gf959918f-4f00-4d9f-8185-5bc5549be22b-light .marker{fill:#333333;stroke:#333333;}#gf959918f-4f00-4d9f-8185-5bc5549be22b-light .marker.cross{stroke:#333333;}#gf959918f-4f00-4d9f-8185-5bc5549be22b-light svg{font-family:"trebuchet ms",verdana,arial,sans-serif;font-size:16px;}#gf959918f-4f00-4d9f-8185-5bc5549be22b-light p{margin:0;}#gf959918f-4f00-4d9f-8185-5bc5549be22b-light .label{font-family:"trebuchet ms",verdana,arial,sans-serif;color:#333;}#gf959918f-4f00-4d9f-8185-5bc5549be22b-light .cluster-label text{fill:#333;}#gf959918f-4f00-4d9f-8185-5bc5549be22b-light .cluster-label span{color:#333;}#gf959918f-4f00-4d9f-8185-5bc5549be22b-light .cluster-label span p{background-color:transparent;}#gf959918f-4f00-4d9f-8185-5bc5549be22b-light .label text,#gf959918f-4f00-4d9f-8185-5bc5549be22b-light span{fill:#333;color:#333;}#gf959918f-4f00-4d9f-8185-5bc5549be22b-light .node rect,#gf959918f-4f00-4d9f-8185-5bc5549be22b-light .node circle,#gf959918f-4f00-4d9f-8185-5bc5549be22b-light .node ellipse,#gf959918f-4f00-4d9f-8185-5bc5549be22b-light .node polygon,#gf959918f-4f00-4d9f-8185-5bc5549be22b-light .node path{fill:#ECECFF;stroke:#9370DB;stroke-width:1px;}#gf959918f-4f00-4d9f-8185-5bc5549be22b-light .rough-node .label text,#gf959918f-4f00-4d9f-8185-5bc5549be22b-light .node .label text,#gf959918f-4f00-4d9f-8185-5bc5549be22b-light .image-shape .label,#gf959918f-4f00-4d9f-8185-5bc5549be22b-light .icon-shape .label{text-anchor:middle;}#gf959918f-4f00-4d9f-8185-5bc5549be22b-light .node .katex path{fill:#000;stroke:#000;stroke-width:1px;}#gf959918f-4f00-4d9f-8185-5bc5549be22b-light .rough-node .label,#gf959918f-4f00-4d9f-8185-5bc5549be22b-light .node .label,#gf959918f-4f00-4d9f-8185-5bc5549be22b-light .image-shape .label,#gf959918f-4f00-4d9f-8185-5bc5549be22b-light .icon-shape .label{text-align:center;}#gf959918f-4f00-4d9f-8185-5bc5549be22b-light .node.clickable{cursor:pointer;}#gf959918f-4f00-4d9f-8185-5bc5549be22b-light .root .anchor path{fill:#333333!important;stroke-width:0;stroke:#333333;}#gf959918f-4f00-4d9f-8185-5bc5549be22b-light .arrowheadPath{fill:#333333;}#gf959918f-4f00-4d9f-8185-5bc5549be22b-light .edgePath .path{stroke:#333333;stroke-width:1px;}#gf959918f-4f00-4d9f-8185-5bc5549be22b-light .flowchart-link{stroke:#333333;fill:none;}#gf959918f-4f00-4d9f-8185-5bc5549be22b-light .edgeLabel{background-color:rgba(232,232,232, 0.8);text-align:center;}#gf959918f-4f00-4d9f-8185-5bc5549be22b-light .edgeLabel p{background-color:rgba(232,232,232, 0.8);}#gf959918f-4f00-4d9f-8185-5bc5549be22b-light .edgeLabel rect{opacity:0.5;background-color:rgba(232,232,232, 0.8);fill:rgba(232,232,232, 0.8);}#gf959918f-4f00-4d9f-8185-5bc5549be22b-light .labelBkg{background-color:rgba(232, 232, 232, 0.5);}#gf959918f-4f00-4d9f-8185-5bc5549be22b-light .cluster rect{fill:#ffffde;stroke:#aaaa33;stroke-width:1px;}#gf959918f-4f00-4d9f-8185-5bc5549be22b-light .cluster text{fill:#333;}#gf959918f-4f00-4d9f-8185-5bc5549be22b-light .cluster span{color:#333;}#gf959918f-4f00-4d9f-8185-5bc5549be22b-light div.mermaidTooltip{position:absolute;text-align:center;max-width:200px;padding:2px;font-family:"trebuchet ms",verdana,arial,sans-serif;font-size:12px;background:hsl(80, 100%, 96.2745098039%);border:1px solid #aaaa33;border-radius:2px;pointer-events:none;z-index:100;}#gf959918f-4f00-4d9f-8185-5bc5549be22b-light .flowchartTitleText{text-anchor:middle;font-size:18px;fill:#333;}#gf959918f-4f00-4d9f-8185-5bc5549be22b-light rect.text{fill:none;stroke-width:0;}#gf959918f-4f00-4d9f-8185-5bc5549be22b-light .icon-shape,#gf959918f-4f00-4d9f-8185-5bc5549be22b-light .image-shape{background-color:rgba(232,232,232, 0.8);text-align:center;}#gf959918f-4f00-4d9f-8185-5bc5549be22b-light .icon-shape p,#gf959918f-4f00-4d9f-8185-5bc5549be22b-light .image-shape p{background-color:rgba(232,232,232, 0.8);padding:2px;}#gf959918f-4f00-4d9f-8185-5bc5549be22b-light .icon-shape .label rect,#gf959918f-4f00-4d9f-8185-5bc5549be22b-light .image-shape .label rect{opacity:0.5;background-color:rgba(232,232,232, 0.8);fill:rgba(232,232,232, 0.8);}#gf959918f-4f00-4d9f-8185-5bc5549be22b-light .label-icon{display:inline-block;height:1em;overflow:visible;vertical-align:-0.125em;}#gf959918f-4f00-4d9f-8185-5bc5549be22b-light .node .label-icon path{fill:currentColor;stroke:revert;stroke-width:revert;}#gf959918f-4f00-4d9f-8185-5bc5549be22b-light .node .neo-node{stroke:#9370DB;}#gf959918f-4f00-4d9f-8185-5bc5549be22b-light [data-look="neo"].node rect,#gf959918f-4f00-4d9f-8185-5bc5549be22b-light [data-look="neo"].cluster rect,#gf959918f-4f00-4d9f-8185-5bc5549be22b-light [data-look="neo"].node polygon{stroke:#9370DB;filter:drop-shadow(1px 2px 2px rgba(185, 185, 185, 1));}#gf959918f-4f00-4d9f-8185-5bc5549be22b-light [data-look="neo"].node path{stroke:#9370DB;stroke-width:1px;}#gf959918f-4f00-4d9f-8185-5bc5549be22b-light [data-look="neo"].node .outer-path{filter:drop-shadow(1px 2px 2px rgba(185, 185, 185, 1));}#gf959918f-4f00-4d9f-8185-5bc5549be22b-light [data-look="neo"].node .neo-line path{stroke:#9370DB;filter:none;}#gf959918f-4f00-4d9f-8185-5bc5549be22b-light [data-look="neo"].node circle{stroke:#9370DB;filter:drop-shadow(1px 2px 2px rgba(185, 185, 185, 1));}#gf959918f-4f00-4d9f-8185-5bc5549be22b-light [data-look="neo"].node circle .state-start{fill:#000000;}#gf959918f-4f00-4d9f-8185-5bc5549be22b-light [data-look="neo"].icon-shape .icon{fill:#9370DB;filter:drop-shadow(1px 2px 2px rgba(185, 185, 185, 1));}#gf959918f-4f00-4d9f-8185-5bc5549be22b-light [data-look="neo"].icon-shape .icon-neo path{stroke:#9370DB;filter:drop-shadow(1px 2px 2px rgba(185, 185, 185, 1));}#gf959918f-4f00-4d9f-8185-5bc5549be22b-light :root{--mermaid-font-family:"trebuchet ms",verdana,arial,sans-serif;}#gf959918f-4f00-4d9f-8185-5bc5549be22b-light .primary rect{fill:#2E5A88!important;stroke:#1F4870!important;color:#ffffff!important;}#gf959918f-4f00-4d9f-8185-5bc5549be22b-light .primary polygon{fill:#2E5A88!important;stroke:#1F4870!important;color:#ffffff!important;}#gf959918f-4f00-4d9f-8185-5bc5549be22b-light .primary ellipse{fill:#2E5A88!important;stroke:#1F4870!important;color:#ffffff!important;}#gf959918f-4f00-4d9f-8185-5bc5549be22b-light .primary circle{fill:#2E5A88!important;stroke:#1F4870!important;color:#ffffff!important;}#gf959918f-4f00-4d9f-8185-5bc5549be22b-light .primary path{fill:#2E5A88!important;stroke:#1F4870!important;color:#ffffff!important;}#gf959918f-4f00-4d9f-8185-5bc5549be22b-light .primary tspan{fill:#ffffff!important;}#gf959918f-4f00-4d9f-8185-5bc5549be22b-light .storage rect{fill:#8B5E15!important;stroke:#6E4810!important;color:#ffffff!important;}#gf959918f-4f00-4d9f-8185-5bc5549be22b-light .storage polygon{fill:#8B5E15!important;stroke:#6E4810!important;color:#ffffff!important;}#gf959918f-4f00-4d9f-8185-5bc5549be22b-light .storage ellipse{fill:#8B5E15!important;stroke:#6E4810!important;color:#ffffff!important;}#gf959918f-4f00-4d9f-8185-5bc5549be22b-light .storage circle{fill:#8B5E15!important;stroke:#6E4810!important;color:#ffffff!important;}#gf959918f-4f00-4d9f-8185-5bc5549be22b-light .storage path{fill:#8B5E15!important;stroke:#6E4810!important;color:#ffffff!important;}#gf959918f-4f00-4d9f-8185-5bc5549be22b-light .storage tspan{fill:#ffffff!important;}#gf959918f-4f00-4d9f-8185-5bc5549be22b-light .alert rect{fill:#B43A3A!important;stroke:#8E2828!important;color:#ffffff!important;}#gf959918f-4f00-4d9f-8185-5bc5549be22b-light .alert polygon{fill:#B43A3A!important;stroke:#8E2828!important;color:#ffffff!important;}#gf959918f-4f00-4d9f-8185-5bc5549be22b-light .alert ellipse{fill:#B43A3A!important;stroke:#8E2828!important;color:#ffffff!important;}#gf959918f-4f00-4d9f-8185-5bc5549be22b-light .alert circle{fill:#B43A3A!important;stroke:#8E2828!important;color:#ffffff!important;}#gf959918f-4f00-4d9f-8185-5bc5549be22b-light .alert path{fill:#B43A3A!important;stroke:#8E2828!important;color:#ffffff!important;}#gf959918f-4f00-4d9f-8185-5bc5549be22b-light .alert tspan{fill:#ffffff!important;}#gf959918f-4f00-4d9f-8185-5bc5549be22b-light .neutral rect{fill:#5A5A5A!important;stroke:#3D3D3D!important;color:#ffffff!important;}#gf959918f-4f00-4d9f-8185-5bc5549be22b-light .neutral polygon{fill:#5A5A5A!important;stroke:#3D3D3D!important;color:#ffffff!important;}#gf959918f-4f00-4d9f-8185-5bc5549be22b-light .neutral ellipse{fill:#5A5A5A!important;stroke:#3D3D3D!important;color:#ffffff!important;}#gf959918f-4f00-4d9f-8185-5bc5549be22b-light .neutral circle{fill:#5A5A5A!important;stroke:#3D3D3D!important;color:#ffffff!important;}#gf959918f-4f00-4d9f-8185-5bc5549be22b-light .neutral path{fill:#5A5A5A!important;stroke:#3D3D3D!important;color:#ffffff!important;}#gf959918f-4f00-4d9f-8185-5bc5549be22b-light .neutral tspan{fill:#ffffff!important;}</style><g><marker id="gf959918f-4f00-4d9f-8185-5bc5549be22b-light_flowchart-v2-pointEnd" class="marker flowchart-v2" viewBox="0 0 10 10" refX="5" refY="5" markerUnits="userSpaceOnUse" markerWidth="8" markerHeight="8" orient="auto"><path d="M 0 0 L 10 5 L 0 10 z" class="arrowMarkerPath" style="stroke-width: 1; stroke-dasharray: 1, 0;"></path></marker><marker id="gf959918f-4f00-4d9f-8185-5bc5549be22b-light_flowchart-v2-pointStart" class="marker flowchart-v2" viewBox="0 0 10 10" refX="4.5" refY="5" markerUnits="userSpaceOnUse" markerWidth="8" markerHeight="8" orient="auto"><path d="M 0 5 L 10 10 L 10 0 z" class="arrowMarkerPath" style="stroke-width: 1; stroke-dasharray: 1, 0;"></path></marker><marker id="gf959918f-4f00-4d9f-8185-5bc5549be22b-light_flowchart-v2-pointEnd-margin" class="marker flowchart-v2" viewBox="0 0 11.5 14" refX="11.5" refY="7" markerUnits="userSpaceOnUse" markerWidth="10.5" markerHeight="14" orient="auto"><path d="M 0 0 L 11.5 7 L 0 14 z" class="arrowMarkerPath" style="stroke-width: 0; stroke-dasharray: 1, 0;"></path></marker><marker id="gf959918f-4f00-4d9f-8185-5bc5549be22b-light_flowchart-v2-pointStart-margin" class="marker flowchart-v2" viewBox="0 0 11.5 14" refX="1" refY="7" markerUnits="userSpaceOnUse" markerWidth="11.5" markerHeight="14" orient="auto"><polygon points="0,7 11.5,14 11.5,0" class="arrowMarkerPath" style="stroke-width: 0; stroke-dasharray: 1, 0;"></polygon></marker><marker id="gf959918f-4f00-4d9f-8185-5bc5549be22b-light_flowchart-v2-circleEnd" class="marker flowchart-v2" viewBox="0 0 10 10" refX="11" refY="5" markerUnits="userSpaceOnUse" markerWidth="11" markerHeight="11" orient="auto"><circle cx="5" cy="5" r="5" class="arrowMarkerPath" style="stroke-width: 1; stroke-dasharray: 1, 0;"></circle></marker><marker id="gf959918f-4f00-4d9f-8185-5bc5549be22b-light_flowchart-v2-circleStart" class="marker flowchart-v2" viewBox="0 0 10 10" refX="-1" refY="5" markerUnits="userSpaceOnUse" markerWidth="11" markerHeight="11" orient="auto"><circle cx="5" cy="5" r="5" class="arrowMarkerPath" style="stroke-width: 1; stroke-dasharray: 1, 0;"></circle></marker><marker id="gf959918f-4f00-4d9f-8185-5bc5549be22b-light_flowchart-v2-circleEnd-margin" class="marker flowchart-v2" viewBox="0 0 10 10" refY="5" refX="12.25" markerUnits="userSpaceOnUse" markerWidth="14" markerHeight="14" orient="auto"><circle cx="5" cy="5" r="5" class="arrowMarkerPath" style="stroke-width: 0; stroke-dasharray: 1, 0;"></circle></marker><marker id="gf959918f-4f00-4d9f-8185-5bc5549be22b-light_flowchart-v2-circleStart-margin" class="marker flowchart-v2" viewBox="0 0 10 10" refX="-2" refY="5" markerUnits="userSpaceOnUse" markerWidth="14" markerHeight="14" orient="auto"><circle cx="5" cy="5" r="5" class="arrowMarkerPath" style="stroke-width: 0; stroke-dasharray: 1, 0;"></circle></marker><marker id="gf959918f-4f00-4d9f-8185-5bc5549be22b-light_flowchart-v2-crossEnd" class="marker cross flowchart-v2" viewBox="0 0 11 11" refX="12" refY="5.2" markerUnits="userSpaceOnUse" markerWidth="11" markerHeight="11" orient="auto"><path d="M 1,1 l 9,9 M 10,1 l -9,9" class="arrowMarkerPath" style="stroke-width: 2; stroke-dasharray: 1, 0;"></path></marker><marker id="gf959918f-4f00-4d9f-8185-5bc5549be22b-light_flowchart-v2-crossStart" class="marker cross flowchart-v2" viewBox="0 0 11 11" refX="-1" refY="5.2" markerUnits="userSpaceOnUse" markerWidth="11" markerHeight="11" orient="auto"><path d="M 1,1 l 9,9 M 10,1 l -9,9" class="arrowMarkerPath" style="stroke-width: 2; stroke-dasharray: 1, 0;"></path></marker><marker id="gf959918f-4f00-4d9f-8185-5bc5549be22b-light_flowchart-v2-crossEnd-margin" class="marker cross flowchart-v2" viewBox="0 0 15 15" refX="17.7" refY="7.5" markerUnits="userSpaceOnUse" markerWidth="12" markerHeight="12" orient="auto"><path d="M 1,1 L 14,14 M 1,14 L 14,1" class="arrowMarkerPath" style="stroke-width: 2.5;"></path></marker><marker id="gf959918f-4f00-4d9f-8185-5bc5549be22b-light_flowchart-v2-crossStart-margin" class="marker cross flowchart-v2" viewBox="0 0 15 15" refX="-3.5" refY="7.5" markerUnits="userSpaceOnUse" markerWidth="12" markerHeight="12" orient="auto"><path d="M 1,1 L 14,14 M 1,14 L 14,1" class="arrowMarkerPath" style="stroke-width: 2.5; stroke-dasharray: 1, 0;"></path></marker><g class="root"><g class="clusters"></g><g class="edgePaths"><path d="M118.39,152.1L118.306,174.45C118.223,196.8,118.056,241.5,127.991,267.774C137.925,294.047,157.961,301.894,167.979,305.818L177.997,309.741" id="gf959918f-4f00-4d9f-8185-5bc5549be22b-light-L_Now_Calc_0" class="edge-thickness-normal edge-pattern-solid edge-thickness-normal edge-pattern-solid flowchart-link" style=";" data-edge="true" data-et="edge" data-id="L_Now_Calc_0" data-points="W3sieCI6MTE4LjM4OTcwMTg0MzI2MTcyLCJ5IjoxNTIuMTAwMDA2MTAzNTE1Nn0seyJ4IjoxMTcuODg5NzAxODQzMjYxNzIsInkiOjI4Ni4yMDAwMTIyMDcwMzEyNX0seyJ4IjoxODEuNzIxMTgwODgyNTQ2OSwieSI6MzExLjIwMDAxMjIwNzAzMTI1fV0=" data-look="classic" marker-end="url(#gf959918f-4f00-4d9f-8185-5bc5549be22b-light_flowchart-v2-pointEnd)"></path><path d="M266.745,377.8L266.745,381.967C266.745,386.133,266.745,394.467,266.745,402.133C266.745,409.8,266.745,416.8,266.745,420.3L266.745,423.8" id="gf959918f-4f00-4d9f-8185-5bc5549be22b-light-L_Calc_Cmp_0" class="edge-thickness-normal edge-pattern-solid edge-thickness-normal edge-pattern-solid flowchart-link" style=";" data-edge="true" data-et="edge" data-id="L_Calc_Cmp_0" data-points="W3sieCI6MjY2Ljc0NDcwOTAxNDg5MjYsInkiOjM3Ny44MDAwMTA2ODExNTIzNH0seyJ4IjoyNjYuNzQ0NzA5MDE0ODkyNiwieSI6NDAyLjgwMDAxMDY4MTE1MjM0fSx7IngiOjI2Ni43NDQ3MDkwMTQ4OTI2LCJ5Ijo0MjcuODAwMDEwNjgxMTUyMzR9XQ==" data-look="classic" marker-end="url(#gf959918f-4f00-4d9f-8185-5bc5549be22b-light_flowchart-v2-pointEnd)"></path><path d="M232.989,523.363L220.2,535.073C207.41,546.782,181.831,570.2,169.042,587.326C156.253,604.452,156.253,615.285,156.253,620.702L156.253,626.119" id="gf959918f-4f00-4d9f-8185-5bc5549be22b-light-L_Cmp_Allow_0" class="edge-thickness-normal edge-pattern-solid edge-thickness-normal edge-pattern-solid flowchart-link" style=";" data-edge="true" data-et="edge" data-id="L_Cmp_Allow_0" data-points="W3sieCI6MjMyLjk4OTQzOTk3NTE5ODY4LCJ5Ijo1MjMuMzYzNDgyNDg2MTg1fSx7IngiOjE1Ni4yNTI1MjE1MTQ4OTI1OCwieSI6NTkzLjYxODc1MTUyNTg3ODl9LHsieCI6MTU2LjI1MjUyMTUxNDg5MjU4LCJ5Ijo2MzAuMTE4NzUxNTI1ODc4OX1d" data-look="classic" marker-end="url(#gf959918f-4f00-4d9f-8185-5bc5549be22b-light_flowchart-v2-pointEnd)"></path><path d="M300.5,523.363L313.289,535.073C326.079,546.782,351.658,570.2,364.447,587.326C377.237,604.452,377.237,615.285,377.237,620.702L377.237,626.119" id="gf959918f-4f00-4d9f-8185-5bc5549be22b-light-L_Cmp_Reject_0" class="edge-thickness-normal edge-pattern-solid edge-thickness-normal edge-pattern-solid flowchart-link" style=";" data-edge="true" data-et="edge" data-id="L_Cmp_Reject_0" data-points="W3sieCI6MzAwLjQ5OTk3ODA1NDU4NjQsInkiOjUyMy4zNjM0ODI0ODYxODV9LHsieCI6Mzc3LjIzNjg5NjUxNDg5MjYsInkiOjU5My42MTg3NTE1MjU4Nzg5fSx7IngiOjM3Ny4yMzY4OTY1MTQ4OTI2LCJ5Ijo2MzAuMTE4NzUxNTI1ODc4OX1d" data-look="classic" marker-end="url(#gf959918f-4f00-4d9f-8185-5bc5549be22b-light_flowchart-v2-pointEnd)"></path><path d="M415.6,261.2L415.6,265.367C415.6,269.533,415.6,277.867,405.582,285.957C395.564,294.047,375.528,301.894,365.511,305.818L355.493,309.741" id="gf959918f-4f00-4d9f-8185-5bc5549be22b-light-L_Windows_Calc_0" class="edge-thickness-normal edge-pattern-solid edge-thickness-normal edge-pattern-solid flowchart-link" style=";" data-edge="true" data-et="edge" data-id="L_Windows_Calc_0" data-points="W3sieCI6NDE1LjU5OTcxNjE4NjUyMzQ0LCJ5IjoyNjEuMjAwMDEyMjA3MDMxMjV9LHsieCI6NDE1LjU5OTcxNjE4NjUyMzQ0LCJ5IjoyODYuMjAwMDEyMjA3MDMxMjV9LHsieCI6MzUxLjc2ODIzNzE0NzIzODI3LCJ5IjozMTEuMjAwMDEyMjA3MDMxMjV9XQ==" data-look="classic" marker-end="url(#gf959918f-4f00-4d9f-8185-5bc5549be22b-light_flowchart-v2-pointEnd)"></path></g><g class="edgeLabels"><g class="edgeLabel"><g class="label" data-id="L_Now_Calc_0" transform="translate(0, 0)"><text y="-10.1" text-anchor="middle"><tspan class="text-outer-tspan row" x="0" y="-0.1em" dy="1.1em" text-anchor="middle"></tspan></text></g></g><g><rect class="background" style="stroke: none"></rect></g><g class="edgeLabel"><g class="label" data-id="L_Calc_Cmp_0" transform="translate(0, 0)"><text y="-10.1" text-anchor="middle"><tspan class="text-outer-tspan row" x="0" y="-0.1em" dy="1.1em" text-anchor="middle"></tspan></text></g></g><g><rect class="background" style="stroke: none"></rect></g><g class="edgeLabel" transform="translate(156.25252151489258, 593.6187515258789)"><g class="label" data-id="L_Cmp_Allow_0" transform="translate(0, -10.5)"><g><rect class="background" style="" x="-13.328125" y="-1" width="26.65625" height="23"></rect><text y="-10.1" text-anchor="middle" style=""><tspan class="text-outer-tspan row" x="0" y="-0.1em" dy="1.1em" text-anchor="middle"><tspan font-style="normal" class="text-inner-tspan" font-weight="normal">Yes</tspan></tspan></text></g></g></g><g class="edgeLabel" transform="translate(377.2368965148926, 593.6187515258789)"><g class="label" data-id="L_Cmp_Reject_0" transform="translate(0, -10.5)"><g><rect class="background" style="" x="-11.3984375" y="-1" width="22.796875" height="23"></rect><text y="-10.1" text-anchor="middle" style=""><tspan class="text-outer-tspan row" x="0" y="-0.1em" dy="1.1em" text-anchor="middle"><tspan font-style="normal" class="text-inner-tspan" font-weight="normal">No</tspan></tspan></text></g></g></g><g class="edgeLabel"><g class="label" data-id="L_Windows_Calc_0" transform="translate(0, 0)"><text y="-10.1" text-anchor="middle"><tspan class="text-outer-tspan row" x="0" y="-0.1em" dy="1.1em" text-anchor="middle"></tspan></text></g></g><g><rect class="background" style="stroke: none"></rect></g></g><g class="nodes"><g class="root" transform="translate(269.77940368652344, 0)"><g class="clusters"><g class="cluster" id="gf959918f-4f00-4d9f-8185-5bc5549be22b-light-Windows" data-look="classic"><rect style="" x="8" y="8" width="275.640625" height="253.1999969482422"></rect><g class="cluster-label" transform="translate(44.515625, 8)"><g><rect class="background" style="stroke: none"></rect><text y="-10.1" style=""><tspan class="text-outer-tspan row" x="0" y="-0.1em" dy="1.1em"><tspan font-style="normal" class="text-inner-tspan" font-weight="normal">Two</tspan><tspan font-style="normal" class="text-inner-tspan" font-weight="normal"> adjacent</tspan><tspan font-style="normal" class="text-inner-tspan" font-weight="normal"> fixed</tspan><tspan font-style="normal" class="text-inner-tspan" font-weight="normal"> windows</tspan></tspan></text></g></g></g></g><g class="edgePaths"></g><g class="edgeLabels"></g><g class="nodes"><g class="node default storage" id="gf959918f-4f00-4d9f-8185-5bc5549be22b-light-flowchart-PrevCount-0" data-look="classic" transform="translate(145.8203125, 76.29999923706055)"><rect class="basic label-container" style="fill:#8B5E15 !important;stroke:#6E4810 !important" x="-72.7109375" y="-33.29999923706055" width="145.421875" height="66.5999984741211"></rect><g class="label" style="color:#ffffff !important" transform="translate(0, -18.299999237060547)"><rect></rect><g><rect class="background" style="stroke: none"></rect><text y="-10.1" style="fill:#ffffff !important"><tspan class="text-outer-tspan row" x="0" y="-0.1em" dy="1.1em"><tspan font-style="normal" class="text-inner-tspan" font-weight="normal">Window</tspan><tspan font-style="normal" class="text-inner-tspan" font-weight="normal"> N-1</tspan></tspan><tspan class="text-outer-tspan row" x="0" y="1em" dy="1.1em"><tspan font-style="normal" class="text-inner-tspan" font-weight="normal">count</tspan><tspan font-style="normal" class="text-inner-tspan" font-weight="normal"> =</tspan><tspan font-style="normal" class="text-inner-tspan" font-weight="normal"> 80</tspan></tspan></text></g></g></g><g class="node default storage" id="gf959918f-4f00-4d9f-8185-5bc5549be22b-light-flowchart-CurrCount-1" data-look="classic" transform="translate(145.8203125, 192.89999771118164)"><rect class="basic label-container" style="fill:#8B5E15 !important;stroke:#6E4810 !important" x="-100.3203125" y="-33.29999923706055" width="200.640625" height="66.5999984741211"></rect><g class="label" style="color:#ffffff !important" transform="translate(0, -18.299999237060547)"><rect></rect><g><rect class="background" style="stroke: none"></rect><text y="-10.1" style="fill:#ffffff !important"><tspan class="text-outer-tspan row" x="0" y="-0.1em" dy="1.1em"><tspan font-style="normal" class="text-inner-tspan" font-weight="normal">Window</tspan><tspan font-style="normal" class="text-inner-tspan" font-weight="normal"> N</tspan><tspan font-style="normal" class="text-inner-tspan" font-weight="normal"> (current)</tspan></tspan><tspan class="text-outer-tspan row" x="0" y="1em" dy="1.1em"><tspan font-style="normal" class="text-inner-tspan" font-weight="normal">count</tspan><tspan font-style="normal" class="text-inner-tspan" font-weight="normal"> =</tspan><tspan font-style="normal" class="text-inner-tspan" font-weight="normal"> 30</tspan></tspan></text></g></g></g></g></g><g class="node default neutral" id="gf959918f-4f00-4d9f-8185-5bc5549be22b-light-flowchart-Now-2" data-look="classic" transform="translate(117.88970184326172, 134.60000610351562)"><g class="basic label-container outer-path"><path d="M-92.8984375 -17 C-39.960176721336296 -17, 12.978084057327408 -17, 92.8984375 -17 C92.8984375 -17, 92.8984375 -17, 92.8984375 -17 C93.20531604682917 -16.990159002306044, 93.51219459365834 -16.980318004612087, 93.98763123967211 -16.965071676755716 C94.37397775645476 -16.927801292931363, 94.7603242732374 -16.89053090910701, 95.0723492486366 -16.860430234995185 C95.40114557711362 -16.80727299446063, 95.72994190559065 -16.754115753926076, 96.14813418792333 -16.686505668848113 C96.37113242923623 -16.635607775467964, 96.59413067054912 -16.584709882087818, 97.21056542646163 -16.4440126716635 C97.5223718907453 -16.351470149769632, 97.834178355029 -16.258927627875767, 98.25527720640156 -16.133947699181366 C98.62526245430973 -15.997789707845019, 98.9952477022179 -15.861631716508672, 99.27797658294936 -15.757584874882369 C99.62969596499185 -15.601889137836928, 99.98141534703436 -15.446193400791485, 100.27446106499849 -15.316470754341125 C100.5196370439817 -15.188562603148291, 100.76481302296492 -15.06065445195546, 101.24063588406693 -14.812417970097622 C101.55676508073446 -14.620778593296391, 101.87289427740201 -14.42913921649516, 102.17253082057933 -14.247497783161291 C102.50150907185444 -14.01801679631074, 102.83048732312956 -13.788535809460189, 103.06631651835067 -13.624031571755262 C103.4031760430009 -13.355395065055136, 103.7400355676511 -13.086758558355012, 103.9183202202324 -12.944581292275288 C104.23661235811694 -12.655516794197036, 104.55490449600147 -12.366452296118783, 104.72504086025927 -12.21193895166137 C104.90547932980333 -12.02562141758327, 105.08591779934738 -11.83930388350517, 105.48316345028036 -11.42911513444239 C105.67048225363746 -11.209079809277277, 105.85780105699456 -10.989044484112167, 106.18957270195651 -10.59932663159847 C106.39521329545845 -10.323786970549339, 106.60085388896039 -10.048247309500207, 106.84136582814824 -9.725983222076888 C107.0028998997483 -9.47782351012749, 107.16443397134836 -9.229663798178091, 107.43586447109088 -8.812673661278927 C107.59561477455028 -8.529020821014424, 107.75536507800967 -8.245367980749922, 107.970625708341 -7.863150934094199 C108.06538536595053 -7.66638047753615, 108.16014502356005 -7.469610020978101, 108.44345209126881 -6.881316833080699 C108.58527671170782 -6.531007278603831, 108.72710133214684 -6.180697724126964, 108.85240067484592 -5.871205925162238 C108.93372137702761 -5.626280926885347, 109.0150420792093 -5.381355928608455, 109.19579100162323 -4.836968972727556 C109.28836287491004 -4.483952298981325, 109.38093474819682 -4.130935625235095, 109.472212007091 -3.7828558772573464 C109.55382519188159 -3.36378942231039, 109.63543837667217 -2.9447229673634334, 109.68052781804565 -2.713198215567453 C109.71341148859787 -2.45815896037964, 109.7462951591501 -2.2031197051918268, 109.81988242013637 -1.632391440430593 C109.84606428878543 -1.224587702597509, 109.87224615743449 -0.8167839647644249, 109.8897031754117 -0.5448768187181379 C109.8897031754117 -0.12497092829415662, 109.8897031754117 0.2949349621298246, 109.8897031754117 0.5448768187181336 C109.86466722786498 0.9348319104111746, 109.83963128031829 1.3247870021042156, 109.81988242013637 1.6323914404305815 C109.78470343963083 1.9052326663561088, 109.74952445912528 2.178073892281636, 109.68052781804565 2.7131982155674415 C109.61294393376839 3.060227177472157, 109.54536004949114 3.407256139376872, 109.472212007091 3.782855877257343 C109.3762751102149 4.1487048443600445, 109.2803382133388 4.514553811462746, 109.19579100162323 4.836968972727545 C109.08164163882437 5.180768666246664, 108.96749227602548 5.524568359765782, 108.85240067484592 5.871205925162227 C108.70733717546649 6.229515573241404, 108.56227367608705 6.587825221320581, 108.44345209126881 6.881316833080694 C108.2887428291616 7.202573926094224, 108.1340335670544 7.523831019107753, 107.970625708341 7.863150934094196 C107.76738828255812 8.224019563592693, 107.56415085677523 8.58488819309119, 107.43586447109088 8.812673661278923 C107.28733351106568 9.040857102024988, 107.13880255104048 9.269040542771052, 106.84136582814826 9.725983222076879 C106.65004644997833 9.98233375927066, 106.45872707180841 10.23868429646444, 106.18957270195651 10.599326631598467 C105.93845777506446 10.894300513569993, 105.6873428481724 11.18927439554152, 105.48316345028037 11.42911513444238 C105.2914750947297 11.627049099455125, 105.09978673917902 11.824983064467867, 104.72504086025927 12.211938951661365 C104.42080327985077 12.488239472503098, 104.11656569944228 12.76453999334483, 103.91832022023242 12.944581292275275 C103.71376897434801 13.107705467530826, 103.50921772846361 13.270829642786376, 103.06631651835067 13.62403157175526 C102.82706835335225 13.790920734772028, 102.58782018835382 13.957809897788794, 102.17253082057934 14.247497783161286 C101.82033846335788 14.460998859820954, 101.46814610613644 14.674499936480622, 101.24063588406695 14.81241797009762 C100.9885813835583 14.943914641564367, 100.73652688304966 15.075411313031113, 100.27446106499849 15.316470754341124 C99.98910043536819 15.442791440156139, 99.70373980573788 15.569112125971156, 99.27797658294936 15.757584874882367 C98.90656580707726 15.89426747368688, 98.53515503120514 16.030950072491393, 98.25527720640156 16.133947699181363 C97.87848986179924 16.245776205262203, 97.50170251719692 16.357604711343043, 97.21056542646164 16.444012671663497 C96.82423899170621 16.532189159380838, 96.43791255695076 16.62036564709818, 96.14813418792333 16.68650566884811 C95.85397839720686 16.734062495878923, 95.55982260649037 16.781619322909737, 95.07234924863661 16.86043023499518 C94.71389196109929 16.895010178415944, 94.35543467356199 16.929590121836707, 93.98763123967211 16.965071676755716 C93.55448248349133 16.978961914293528, 93.12133372731054 16.992852151831336, 92.8984375 17 C92.8984375 17, 92.8984375 17, 92.8984375 17 C20.49492653335666 17, -51.90858443328668 17, -92.8984375 17 C-93.30152349302328 16.987073816763033, -93.70460948604658 16.974147633526062, -93.98763123967211 16.965071676755716 C-94.2482954001237 16.93992571869147, -94.50895956057526 16.914779760627226, -95.0723492486366 16.86043023499518 C-95.45468543146106 16.798617086017504, -95.83702161428552 16.736803937039827, -96.14813418792333 16.68650566884811 C-96.4176764143633 16.624984414590593, -96.68721864080327 16.56346316033308, -97.21056542646161 16.4440126716635 C-97.55280299835158 16.34243835676823, -97.89504057024156 16.24086404187296, -98.25527720640154 16.13394769918137 C-98.59626011106634 16.008462838253305, -98.93724301573114 15.88297797732524, -99.27797658294936 15.757584874882369 C-99.67650711442226 15.581167230587496, -100.07503764589516 15.404749586292624, -100.27446106499849 15.316470754341127 C-100.57128410532911 15.161618364324873, -100.86810714565974 15.006765974308617, -101.24063588406693 14.812417970097624 C-101.531950920236 14.635821083214758, -101.82326595640507 14.459224196331892, -102.17253082057931 14.247497783161299 C-102.47893952396888 14.033760335895732, -102.78534822735843 13.820022888630167, -103.06631651835067 13.624031571755264 C-103.25780711038173 13.471322920389156, -103.44929770241279 13.318614269023046, -103.9183202202324 12.94458129227529 C-104.22019032143446 12.670430853408778, -104.52206042263653 12.396280414542264, -104.72504086025926 12.211938951661377 C-104.92652236542901 12.003892755634402, -105.12800387059875 11.795846559607424, -105.48316345028036 11.429115134442386 C-105.64757526407838 11.235987662658003, -105.8119870778764 11.04286019087362, -106.18957270195651 10.599326631598473 C-106.4193044595655 10.291507005396086, -106.6490362171745 9.9836873791937, -106.84136582814824 9.72598322207689 C-107.02079365947112 9.450333890045961, -107.20022149079401 9.17468455801503, -107.43586447109088 8.812673661278936 C-107.57753693662681 8.561119852827149, -107.71920940216273 8.309566044375362, -107.970625708341 7.863150934094201 C-108.07874621160377 7.638636395660896, -108.18686671486654 7.414121857227591, -108.44345209126881 6.881316833080701 C-108.53430307542065 6.65691314574136, -108.6251540595725 6.432509458402018, -108.85240067484592 5.87120592516224 C-108.97730786400184 5.495005372682548, -109.10221505315778 5.118804820202856, -109.19579100162323 4.8369689727275516 C-109.25868500946423 4.59712686239439, -109.32157901730524 4.357284752061228, -109.472212007091 3.782855877257349 C-109.53112529952497 3.4803485719376686, -109.59003859195894 3.177841266617988, -109.68052781804565 2.713198215567455 C-109.7201293173742 2.4060568069757426, -109.75973081670276 2.09891539838403, -109.81988242013637 1.6323914404306026 C-109.84646483439437 1.218348881423645, -109.87304724865237 0.8043063224166873, -109.8897031754117 0.54487681871814 C-109.8897031754117 0.24131169118463003, -109.8897031754117 -0.06225343634887992, -109.8897031754117 -0.5448768187181317 C-109.87067762785686 -0.8412150790301882, -109.85165208030203 -1.137553339342245, -109.81988242013637 -1.6323914404305793 C-109.78481700205391 -1.9043518986280625, -109.74975158397146 -2.176312356825546, -109.68052781804565 -2.713198215567447 C-109.62393244746876 -3.0038034820439874, -109.56733707689186 -3.294408748520528, -109.472212007091 -3.782855877257341 C-109.39159991476029 -4.090264722816181, -109.31098782242957 -4.39767356837502, -109.19579100162323 -4.836968972727544 C-109.1269990649586 -5.044159325454805, -109.05820712829396 -5.251349678182066, -108.85240067484594 -5.871205925162218 C-108.72008330112564 -6.198032396433748, -108.58776592740533 -6.524858867705277, -108.44345209126881 -6.881316833080692 C-108.25950759537466 -7.263281514586624, -108.07556309948049 -7.645246196092555, -107.970625708341 -7.863150934094194 C-107.79887765349656 -8.168106996846907, -107.62712959865212 -8.47306305959962, -107.43586447109088 -8.812673661278929 C-107.31453089807296 -8.999074612060815, -107.19319732505504 -9.1854755628427, -106.84136582814826 -9.725983222076884 C-106.67001683784636 -9.95557525886727, -106.49866784754447 -10.185167295657656, -106.18957270195651 -10.599326631598467 C-105.94770267796261 -10.883440924575954, -105.7058326539687 -11.16755521755344, -105.48316345028037 -11.42911513444238 C-105.28655417567519 -11.632130352393867, -105.08994490107001 -11.835145570345352, -104.72504086025927 -12.21193895166136 C-104.52327882814076 -12.395173890900548, -104.32151679602227 -12.578408830139736, -103.91832022023242 -12.944581292275274 C-103.7112891388027 -13.109683070387016, -103.504258057373 -13.274784848498758, -103.06631651835067 -13.624031571755259 C-102.81904365428211 -13.796518417459723, -102.57177079021356 -13.969005263164187, -102.17253082057934 -14.247497783161284 C-101.94085458228852 -14.387941280293878, -101.70917834399769 -14.528384777426472, -101.24063588406695 -14.812417970097618 C-101.0264395713805 -14.924164049226851, -100.81224325869405 -15.035910128356084, -100.27446106499849 -15.316470754341124 C-99.89743242333213 -15.483370149849538, -99.52040378166578 -15.65026954535795, -99.27797658294936 -15.757584874882365 C-99.00591725591849 -15.857705222118577, -98.73385792888762 -15.957825569354789, -98.25527720640156 -16.133947699181363 C-97.93197093251113 -16.22990330420278, -97.6086646586207 -16.3258589092242, -97.21056542646164 -16.444012671663494 C-96.82066980044634 -16.533003803994752, -96.43077417443102 -16.621994936326008, -96.14813418792333 -16.68650566884811 C-95.76367443741466 -16.748662139780457, -95.379214686906 -16.810818610712804, -95.07234924863661 -16.86043023499518 C-94.83435097845472 -16.883389641884833, -94.59635270827283 -16.90634904877448, -93.98763123967213 -16.965071676755716 C-93.64993150098418 -16.975901050082772, -93.31223176229624 -16.98673042340983, -92.8984375 -17 C-92.8984375 -17, -92.8984375 -17, -92.8984375 -17" stroke="none" stroke-width="0" fill="#5A5A5A" style="fill:#5A5A5A !important;stroke:#3D3D3D !important"></path><path d="M-92.8984375 -17 C-44.974817423118886 -17, 2.948802653762229 -17, 92.8984375 -17 M-92.8984375 -17 C-52.19833422565251 -17, -11.498230951305018 -17, 92.8984375 -17 M92.8984375 -17 C92.8984375 -17, 92.8984375 -17, 92.8984375 -17 M92.8984375 -17 C92.8984375 -17, 92.8984375 -17, 92.8984375 -17 M92.8984375 -17 C93.13899328176579 -16.992285844292194, 93.37954906353158 -16.984571688584392, 93.98763123967211 -16.965071676755716 M92.8984375 -17 C93.17161178724919 -16.99123983230941, 93.44478607449837 -16.982479664618825, 93.98763123967211 -16.965071676755716 M93.98763123967211 -16.965071676755716 C94.2687461082522 -16.93795286347389, 94.54986097683229 -16.91083405019206, 95.0723492486366 -16.860430234995185 M93.98763123967211 -16.965071676755716 C94.26799877989603 -16.938024957341614, 94.54836632011997 -16.910978237927512, 95.0723492486366 -16.860430234995185 M95.0723492486366 -16.860430234995185 C95.33482952989341 -16.817994458686567, 95.59730981115021 -16.775558682377948, 96.14813418792333 -16.686505668848113 M95.0723492486366 -16.860430234995185 C95.38208315444099 -16.810354859127045, 95.69181706024537 -16.76027948325891, 96.14813418792333 -16.686505668848113 M96.14813418792333 -16.686505668848113 C96.49275461491027 -16.607848305246797, 96.8373750418972 -16.52919094164548, 97.21056542646163 -16.4440126716635 M96.14813418792333 -16.686505668848113 C96.46762948519827 -16.613582952146764, 96.78712478247323 -16.540660235445415, 97.21056542646163 -16.4440126716635 M97.21056542646163 -16.4440126716635 C97.56806176346986 -16.337909635376022, 97.9255581004781 -16.231806599088543, 98.25527720640156 -16.133947699181366 M97.21056542646163 -16.4440126716635 C97.53182533619874 -16.348664416781205, 97.85308524593584 -16.25331616189891, 98.25527720640156 -16.133947699181366 M98.25527720640156 -16.133947699181366 C98.6335814148797 -15.994728253455639, 99.01188562335786 -15.855508807729914, 99.27797658294936 -15.757584874882369 M98.25527720640156 -16.133947699181366 C98.53186018763736 -16.03216260538154, 98.80844316887315 -15.930377511581714, 99.27797658294936 -15.757584874882369 M99.27797658294936 -15.757584874882369 C99.65689446497481 -15.58984916870931, 100.03581234700026 -15.422113462536252, 100.27446106499849 -15.316470754341125 M99.27797658294936 -15.757584874882369 C99.59710890744955 -15.616314461550191, 99.91624123194974 -15.475044048218011, 100.27446106499849 -15.316470754341125 M100.27446106499849 -15.316470754341125 C100.65827978467368 -15.116232774134202, 101.04209850434886 -14.915994793927279, 101.24063588406693 -14.812417970097622 M100.27446106499849 -15.316470754341125 C100.49429460606304 -15.201783736777854, 100.71412814712758 -15.087096719214584, 101.24063588406693 -14.812417970097622 M101.24063588406693 -14.812417970097622 C101.57769248450006 -14.608092278150618, 101.91474908493318 -14.403766586203613, 102.17253082057933 -14.247497783161291 M101.24063588406693 -14.812417970097622 C101.42771481415518 -14.699009623280304, 101.61479374424343 -14.585601276462985, 102.17253082057933 -14.247497783161291 M102.17253082057933 -14.247497783161291 C102.38217697345195 -14.101257702353042, 102.59182312632456 -13.955017621544794, 103.06631651835067 -13.624031571755262 M102.17253082057933 -14.247497783161291 C102.46808167805465 -14.041334299176922, 102.76363253552996 -13.835170815192551, 103.06631651835067 -13.624031571755262 M103.06631651835067 -13.624031571755262 C103.37018784234422 -13.381702277225948, 103.67405916633776 -13.139372982696633, 103.9183202202324 -12.944581292275288 M103.06631651835067 -13.624031571755262 C103.34497947704585 -13.401805277728627, 103.62364243574102 -13.17957898370199, 103.9183202202324 -12.944581292275288 M103.9183202202324 -12.944581292275288 C104.18862693734036 -12.699095883721661, 104.45893365444832 -12.453610475168036, 104.72504086025927 -12.21193895166137 M103.9183202202324 -12.944581292275288 C104.1978360569393 -12.690732404961865, 104.47735189364617 -12.436883517648445, 104.72504086025927 -12.21193895166137 M104.72504086025927 -12.21193895166137 C104.95136798679411 -11.97823761171148, 105.17769511332895 -11.744536271761591, 105.48316345028036 -11.42911513444239 M104.72504086025927 -12.21193895166137 C105.02769461767286 -11.899424098796239, 105.33034837508644 -11.586909245931109, 105.48316345028036 -11.42911513444239 M105.48316345028036 -11.42911513444239 C105.7315575572751 -11.137337282341292, 105.97995166426982 -10.845559430240195, 106.18957270195651 -10.59932663159847 M105.48316345028036 -11.42911513444239 C105.68720738239003 -11.189433521357733, 105.89125131449968 -10.949751908273077, 106.18957270195651 -10.59932663159847 M106.18957270195651 -10.59932663159847 C106.33801942625063 -10.400421544819151, 106.48646615054473 -10.201516458039832, 106.84136582814824 -9.725983222076888 M106.18957270195651 -10.59932663159847 C106.40133477615034 -10.315584744100564, 106.61309685034418 -10.031842856602658, 106.84136582814824 -9.725983222076888 M106.84136582814824 -9.725983222076888 C107.01322471970411 -9.461961814073002, 107.18508361125998 -9.197940406069117, 107.43586447109088 -8.812673661278927 M106.84136582814824 -9.725983222076888 C107.06640580686778 -9.380261383068163, 107.29144578558731 -9.034539544059438, 107.43586447109088 -8.812673661278927 M107.43586447109088 -8.812673661278927 C107.57263746265015 -8.56981936499824, 107.70941045420942 -8.326965068717554, 107.970625708341 -7.863150934094199 M107.43586447109088 -8.812673661278927 C107.59543692062721 -8.529336618664507, 107.75500937016353 -8.245999576050087, 107.970625708341 -7.863150934094199 M107.970625708341 -7.863150934094199 C108.13876369581922 -7.514008805519079, 108.30690168329743 -7.164866676943957, 108.44345209126881 -6.881316833080699 M107.970625708341 -7.863150934094199 C108.13340623107287 -7.525133695696251, 108.29618675380473 -7.187116457298303, 108.44345209126881 -6.881316833080699 M108.44345209126881 -6.881316833080699 C108.55917563353836 -6.595477446312426, 108.67489917580791 -6.309638059544153, 108.85240067484592 -5.871205925162238 M108.44345209126881 -6.881316833080699 C108.60542677173163 -6.481236240770131, 108.76740145219445 -6.081155648459564, 108.85240067484592 -5.871205925162238 M108.85240067484592 -5.871205925162238 C108.93778551648647 -5.614040386367958, 109.023170358127 -5.356874847573678, 109.19579100162323 -4.836968972727556 M108.85240067484592 -5.871205925162238 C108.94843628726592 -5.5819619617501255, 109.0444718996859 -5.292717998338012, 109.19579100162323 -4.836968972727556 M109.19579100162323 -4.836968972727556 C109.28608929727585 -4.492622435875256, 109.37638759292845 -4.148275899022955, 109.472212007091 -3.7828558772573464 M109.19579100162323 -4.836968972727556 C109.26260543449867 -4.582176582615167, 109.32941986737409 -4.3273841925027785, 109.472212007091 -3.7828558772573464 M109.472212007091 -3.7828558772573464 C109.52286714665617 -3.5227524415577607, 109.57352228622133 -3.2626490058581754, 109.68052781804565 -2.713198215567453 M109.472212007091 -3.7828558772573464 C109.53128908615828 -3.4795075621919347, 109.59036616522556 -3.176159247126523, 109.68052781804565 -2.713198215567453 M109.68052781804565 -2.713198215567453 C109.7147457547261 -2.447810655769821, 109.74896369140653 -2.1824230959721898, 109.81988242013637 -1.632391440430593 M109.68052781804565 -2.713198215567453 C109.73495192038777 -2.2910956250565806, 109.78937602272988 -1.8689930345457086, 109.81988242013637 -1.632391440430593 M109.81988242013637 -1.632391440430593 C109.8374275338553 -1.3591121320973176, 109.85497264757423 -1.085832823764042, 109.8897031754117 -0.5448768187181379 M109.81988242013637 -1.632391440430593 C109.84766709703666 -1.1996226703210426, 109.87545177393694 -0.7668539002114924, 109.8897031754117 -0.5448768187181379 M109.8897031754117 -0.5448768187181379 C109.8897031754117 -0.1883814353777068, 109.8897031754117 0.16811394796272427, 109.8897031754117 0.5448768187181336 M109.8897031754117 -0.5448768187181379 C109.8897031754117 -0.12765691028325182, 109.8897031754117 0.2895629981516342, 109.8897031754117 0.5448768187181336 M109.8897031754117 0.5448768187181336 C109.86364097448377 0.9508166352005618, 109.83757877355583 1.35675645168299, 109.81988242013637 1.6323914404305815 M109.8897031754117 0.5448768187181336 C109.86927699968386 0.8630309933915004, 109.84885082395601 1.181185168064867, 109.81988242013637 1.6323914404305815 M109.81988242013637 1.6323914404305815 C109.7863957755833 1.8921072428982628, 109.75290913103024 2.151823045365944, 109.68052781804565 2.7131982155674415 M109.81988242013637 1.6323914404305815 C109.77018331717842 2.0178478687744525, 109.72048421422048 2.4033042971183236, 109.68052781804565 2.7131982155674415 M109.68052781804565 2.7131982155674415 C109.6158367792763 3.0453730271922232, 109.55114574050693 3.3775478388170055, 109.472212007091 3.782855877257343 M109.68052781804565 2.7131982155674415 C109.60838530012862 3.0836347977448635, 109.53624278221157 3.4540713799222855, 109.472212007091 3.782855877257343 M109.472212007091 3.782855877257343 C109.37172874243515 4.16604211511249, 109.2712454777793 4.549228352967638, 109.19579100162323 4.836968972727545 M109.472212007091 3.782855877257343 C109.40799447663159 4.0277451529528605, 109.34377694617217 4.272634428648378, 109.19579100162323 4.836968972727545 M109.19579100162323 4.836968972727545 C109.08622576653309 5.166962003969529, 108.97666053144295 5.4969550352115135, 108.85240067484592 5.871205925162227 M109.19579100162323 4.836968972727545 C109.07354755186525 5.205146766549904, 108.95130410210724 5.573324560372263, 108.85240067484592 5.871205925162227 M108.85240067484592 5.871205925162227 C108.71936199494432 6.199814036647074, 108.58632331504272 6.528422148131921, 108.44345209126881 6.881316833080694 M108.85240067484592 5.871205925162227 C108.71085429886084 6.220828210458393, 108.56930792287575 6.57045049575456, 108.44345209126881 6.881316833080694 M108.44345209126881 6.881316833080694 C108.26761112814901 7.246454355392846, 108.09177016502922 7.611591877704998, 107.970625708341 7.863150934094196 M108.44345209126881 6.881316833080694 C108.27371069027531 7.233788484127863, 108.1039692892818 7.586260135175031, 107.970625708341 7.863150934094196 M107.970625708341 7.863150934094196 C107.84537630761075 8.085543927967858, 107.72012690688051 8.30793692184152, 107.43586447109088 8.812673661278923 M107.970625708341 7.863150934094196 C107.78652133397748 8.190046893366072, 107.60241695961395 8.516942852637948, 107.43586447109088 8.812673661278923 M107.43586447109088 8.812673661278923 C107.26076051992645 9.081680352262076, 107.08565656876202 9.35068704324523, 106.84136582814826 9.725983222076879 M107.43586447109088 8.812673661278923 C107.24343434994248 9.10829800208554, 107.05100422879408 9.403922342892159, 106.84136582814826 9.725983222076879 M106.84136582814826 9.725983222076879 C106.69144132403999 9.926868399178652, 106.54151681993172 10.127753576280426, 106.18957270195651 10.599326631598467 M106.84136582814826 9.725983222076879 C106.60740681592684 10.039466984349096, 106.37344780370542 10.352950746621312, 106.18957270195651 10.599326631598467 M106.18957270195651 10.599326631598467 C105.91694961262857 10.919565225016294, 105.64432652330065 11.239803818434122, 105.48316345028037 11.42911513444238 M106.18957270195651 10.599326631598467 C105.96885000581369 10.858600069965025, 105.74812730967088 11.117873508331584, 105.48316345028037 11.42911513444238 M105.48316345028037 11.42911513444238 C105.31114213846904 11.606741262099936, 105.1391208266577 11.78436738975749, 104.72504086025927 12.211938951661365 M105.48316345028037 11.42911513444238 C105.3048255355717 11.61326367319418, 105.12648762086303 11.79741221194598, 104.72504086025927 12.211938951661365 M104.72504086025927 12.211938951661365 C104.45496725379074 12.45721265530003, 104.18489364732223 12.702486358938692, 103.91832022023242 12.944581292275275 M104.72504086025927 12.211938951661365 C104.45513779142051 12.457057777536848, 104.18523472258177 12.702176603412331, 103.91832022023242 12.944581292275275 M103.91832022023242 12.944581292275275 C103.62568608310002 13.177949229316924, 103.33305194596763 13.411317166358574, 103.06631651835067 13.62403157175526 M103.91832022023242 12.944581292275275 C103.60611727053247 13.193554836591575, 103.29391432083251 13.442528380907875, 103.06631651835067 13.62403157175526 M103.06631651835067 13.62403157175526 C102.7119035992402 13.871254681838732, 102.35749068012973 14.118477791922203, 102.17253082057934 14.247497783161286 M103.06631651835067 13.62403157175526 C102.81744216709515 13.797635545594092, 102.56856781583961 13.971239519432922, 102.17253082057934 14.247497783161286 M102.17253082057934 14.247497783161286 C101.95587983987949 14.378832880844017, 101.73922885917965 14.510167978526747, 101.24063588406695 14.81241797009762 M102.17253082057934 14.247497783161286 C101.91653578657859 14.40268347716634, 101.66054075257786 14.557869171171395, 101.24063588406695 14.81241797009762 M101.24063588406695 14.81241797009762 C101.0283611697078 14.923161552610347, 100.81608645534864 15.033905135123073, 100.27446106499849 15.316470754341124 M101.24063588406695 14.81241797009762 C100.90469285520138 14.987679233075008, 100.5687498263358 15.162940496052398, 100.27446106499849 15.316470754341124 M100.27446106499849 15.316470754341124 C99.88995855503522 15.486678609640153, 99.50545604507197 15.65688646493918, 99.27797658294936 15.757584874882367 M100.27446106499849 15.316470754341124 C100.05109789675487 15.415347003089606, 99.82773472851125 15.514223251838086, 99.27797658294936 15.757584874882367 M99.27797658294936 15.757584874882367 C98.94969298089751 15.8783962750578, 98.62140937884567 15.999207675233231, 98.25527720640156 16.133947699181363 M99.27797658294936 15.757584874882367 C99.00551848748933 15.857851972586689, 98.73306039202927 15.95811907029101, 98.25527720640156 16.133947699181363 M98.25527720640156 16.133947699181363 C97.88198722897558 16.24473820504232, 97.50869725154959 16.35552871090328, 97.21056542646164 16.444012671663497 M98.25527720640156 16.133947699181363 C97.97518485955051 16.217077637492025, 97.69509251269945 16.30020757580269, 97.21056542646164 16.444012671663497 M97.21056542646164 16.444012671663497 C96.9284645993195 16.508400344578753, 96.64636377217735 16.572788017494013, 96.14813418792333 16.68650566884811 M97.21056542646164 16.444012671663497 C96.98897256083167 16.494589797214953, 96.76737969520168 16.54516692276641, 96.14813418792333 16.68650566884811 M96.14813418792333 16.68650566884811 C95.77271972971512 16.747199767068608, 95.39730527150692 16.807893865289106, 95.07234924863661 16.86043023499518 M96.14813418792333 16.68650566884811 C95.72874879894223 16.754308646156307, 95.30936340996114 16.822111623464505, 95.07234924863661 16.86043023499518 M95.07234924863661 16.86043023499518 C94.77751430976622 16.888872606957115, 94.48267937089584 16.91731497891905, 93.98763123967211 16.965071676755716 M95.07234924863661 16.86043023499518 C94.81737158189642 16.8850276238501, 94.56239391515624 16.909625012705014, 93.98763123967211 16.965071676755716 M93.98763123967211 16.965071676755716 C93.72157591894359 16.973603553046214, 93.45552059821507 16.98213542933671, 92.8984375 17 M93.98763123967211 16.965071676755716 C93.76010012403057 16.972368156771893, 93.53256900838903 16.979664636788065, 92.8984375 17 M92.8984375 17 C92.8984375 17, 92.8984375 17, 92.8984375 17 M92.8984375 17 C92.8984375 17, 92.8984375 17, 92.8984375 17 M92.8984375 17 C39.57373594614675 17, -13.750965607706505 17, -92.8984375 17 M92.8984375 17 C33.57537492917245 17, -25.747687641655105 17, -92.8984375 17 M-92.8984375 17 C-93.2051751633598 16.990163520164693, -93.5119128267196 16.980327040329385, -93.98763123967211 16.965071676755716 M-92.8984375 17 C-93.30396195883156 16.986995619910747, -93.70948641766311 16.973991239821494, -93.98763123967211 16.965071676755716 M-93.98763123967211 16.965071676755716 C-94.29429460185567 16.93548823102252, -94.60095796403922 16.905904785289326, -95.0723492486366 16.86043023499518 M-93.98763123967211 16.965071676755716 C-94.28626072564323 16.936263249398586, -94.58489021161435 16.907454822041455, -95.0723492486366 16.86043023499518 M-95.0723492486366 16.86043023499518 C-95.35345337072263 16.814983500531337, -95.63455749280867 16.769536766067493, -96.14813418792333 16.68650566884811 M-95.0723492486366 16.86043023499518 C-95.4892091909831 16.793035552313732, -95.90606913332962 16.725640869632286, -96.14813418792333 16.68650566884811 M-96.14813418792333 16.68650566884811 C-96.47808214174086 16.611197201500875, -96.8080300955584 16.53588873415364, -97.21056542646161 16.4440126716635 M-96.14813418792333 16.68650566884811 C-96.36853733812643 16.63620008807922, -96.58894048832953 16.585894507310332, -97.21056542646161 16.4440126716635 M-97.21056542646161 16.4440126716635 C-97.45158284254973 16.372479967694783, -97.69260025863784 16.300947263726066, -98.25527720640154 16.13394769918137 M-97.21056542646161 16.4440126716635 C-97.54287989933886 16.345383480467802, -97.87519437221609 16.2467542892721, -98.25527720640154 16.13394769918137 M-98.25527720640154 16.13394769918137 C-98.52894627845947 16.033234950894883, -98.8026153505174 15.932522202608393, -99.27797658294936 15.757584874882369 M-98.25527720640154 16.13394769918137 C-98.57749626228934 16.015368108054357, -98.89971531817716 15.896788516927344, -99.27797658294936 15.757584874882369 M-99.27797658294936 15.757584874882369 C-99.65640063926402 15.590067770702658, -100.03482469557868 15.422550666522948, -100.27446106499849 15.316470754341127 M-99.27797658294936 15.757584874882369 C-99.66742540515327 15.585187433881547, -100.05687422735718 15.412789992880725, -100.27446106499849 15.316470754341127 M-100.27446106499849 15.316470754341127 C-100.65340456862563 15.118776171223747, -101.03234807225276 14.921081588106368, -101.24063588406693 14.812417970097624 M-100.27446106499849 15.316470754341127 C-100.58173255187337 15.156167416455283, -100.88900403874825 14.995864078569436, -101.24063588406693 14.812417970097624 M-101.24063588406693 14.812417970097624 C-101.5854199859224 14.603407821376553, -101.93020408777787 14.394397672655483, -102.17253082057931 14.247497783161299 M-101.24063588406693 14.812417970097624 C-101.51925369279074 14.643518217109266, -101.79787150151455 14.474618464120908, -102.17253082057931 14.247497783161299 M-102.17253082057931 14.247497783161299 C-102.4852875730837 14.02933221163585, -102.79804432558808 13.8111666401104, -103.06631651835067 13.624031571755264 M-102.17253082057931 14.247497783161299 C-102.42406818042348 14.072036209810822, -102.67560554026764 13.896574636460345, -103.06631651835067 13.624031571755264 M-103.06631651835067 13.624031571755264 C-103.3975411295926 13.359888758546912, -103.72876574083452 13.095745945338559, -103.9183202202324 12.94458129227529 M-103.06631651835067 13.624031571755264 C-103.39644190403817 13.360765361674943, -103.72656728972568 13.097499151594624, -103.9183202202324 12.94458129227529 M-103.9183202202324 12.94458129227529 C-104.13154855441465 12.750932960883539, -104.3447768885969 12.557284629491788, -104.72504086025926 12.211938951661377 M-103.9183202202324 12.94458129227529 C-104.23521854661553 12.656782616924389, -104.55211687299864 12.368983941573488, -104.72504086025926 12.211938951661377 M-104.72504086025926 12.211938951661377 C-104.9839631053308 11.94458047571334, -105.24288535040236 11.6772219997653, -105.48316345028036 11.429115134442386 M-104.72504086025926 12.211938951661377 C-104.91189500640118 12.018996704759136, -105.0987491525431 11.826054457856896, -105.48316345028036 11.429115134442386 M-105.48316345028036 11.429115134442386 C-105.75974372686034 11.104228203707969, -106.03632400344033 10.779341272973552, -106.18957270195651 10.599326631598473 M-105.48316345028036 11.429115134442386 C-105.7359277853253 11.132203763800488, -105.98869212037025 10.835292393158591, -106.18957270195651 10.599326631598473 M-106.18957270195651 10.599326631598473 C-106.42648104994954 10.28189102808231, -106.66338939794257 9.964455424566147, -106.84136582814824 9.72598322207689 M-106.18957270195651 10.599326631598473 C-106.35421079080945 10.37872659137399, -106.51884887966237 10.158126551149506, -106.84136582814824 9.72598322207689 M-106.84136582814824 9.72598322207689 C-107.07652358278926 9.36471776224951, -107.31168133743029 9.003452302422131, -107.43586447109088 8.812673661278936 M-106.84136582814824 9.72598322207689 C-107.03927015647184 9.421949029018728, -107.23717448479543 9.117914835960566, -107.43586447109088 8.812673661278936 M-107.43586447109088 8.812673661278936 C-107.63560830507038 8.4580082577919, -107.83535213904986 8.103342854304861, -107.970625708341 7.863150934094201 M-107.43586447109088 8.812673661278936 C-107.56838768184802 8.577365281149396, -107.70091089260515 8.342056901019857, -107.970625708341 7.863150934094201 M-107.970625708341 7.863150934094201 C-108.13266272520222 7.52667760154512, -108.29469974206344 7.190204268996038, -108.44345209126881 6.881316833080701 M-107.970625708341 7.863150934094201 C-108.10815311286757 7.577572335979735, -108.24568051739413 7.291993737865267, -108.44345209126881 6.881316833080701 M-108.44345209126881 6.881316833080701 C-108.60242077442781 6.488661112227559, -108.76138945758682 6.096005391374418, -108.85240067484592 5.87120592516224 M-108.44345209126881 6.881316833080701 C-108.5460663300788 6.627857679308674, -108.64868056888879 6.374398525536647, -108.85240067484592 5.87120592516224 M-108.85240067484592 5.87120592516224 C-108.92247515204116 5.660152764701905, -108.99254962923641 5.449099604241571, -109.19579100162323 4.8369689727275516 M-108.85240067484592 5.87120592516224 C-108.94747129008573 5.584868379505425, -109.04254190532554 5.298530833848609, -109.19579100162323 4.8369689727275516 M-109.19579100162323 4.8369689727275516 C-109.28255761025488 4.506090289129004, -109.36932421888653 4.175211605530455, -109.472212007091 3.782855877257349 M-109.19579100162323 4.8369689727275516 C-109.25953156709527 4.593898571246859, -109.3232721325673 4.3508281697661655, -109.472212007091 3.782855877257349 M-109.472212007091 3.782855877257349 C-109.53249089715855 3.4733365167084096, -109.5927697872261 3.1638171561594697, -109.68052781804565 2.713198215567455 M-109.472212007091 3.782855877257349 C-109.52384370812828 3.51773800479479, -109.57547540916556 3.2526201323322312, -109.68052781804565 2.713198215567455 M-109.68052781804565 2.713198215567455 C-109.71241348654732 2.465899267205887, -109.744299155049 2.2186003188443184, -109.81988242013637 1.6323914404306026 M-109.68052781804565 2.713198215567455 C-109.71940550084459 2.4116705850456968, -109.75828318364353 2.1101429545239387, -109.81988242013637 1.6323914404306026 M-109.81988242013637 1.6323914404306026 C-109.83916661318159 1.3320245678307157, -109.85845080622683 1.0316576952308285, -109.8897031754117 0.54487681871814 M-109.81988242013637 1.6323914404306026 C-109.84583062353023 1.228227227558375, -109.8717788269241 0.8240630146861473, -109.8897031754117 0.54487681871814 M-109.8897031754117 0.54487681871814 C-109.8897031754117 0.1637534167496867, -109.8897031754117 -0.2173699852187666, -109.8897031754117 -0.5448768187181317 M-109.8897031754117 0.54487681871814 C-109.8897031754117 0.19423216315305214, -109.8897031754117 -0.1564124924120357, -109.8897031754117 -0.5448768187181317 M-109.8897031754117 -0.5448768187181317 C-109.87266160709812 -0.8103130009083781, -109.85562003878455 -1.0757491830986246, -109.81988242013637 -1.6323914404305793 M-109.8897031754117 -0.5448768187181317 C-109.86891874785654 -0.8686110547776216, -109.84813432030138 -1.1923452908371117, -109.81988242013637 -1.6323914404305793 M-109.81988242013637 -1.6323914404305793 C-109.76703253665004 -2.0422847003606317, -109.7141826531637 -2.4521779602906837, -109.68052781804565 -2.713198215567447 M-109.81988242013637 -1.6323914404305793 C-109.76698658406242 -2.04264109955579, -109.71409074798848 -2.4528907586810007, -109.68052781804565 -2.713198215567447 M-109.68052781804565 -2.713198215567447 C-109.6144351563239 -3.0525700648195615, -109.54834249460218 -3.3919419140716762, -109.472212007091 -3.782855877257341 M-109.68052781804565 -2.713198215567447 C-109.60980935877521 -3.0763225575695095, -109.53909089950477 -3.439446899571572, -109.472212007091 -3.782855877257341 M-109.472212007091 -3.782855877257341 C-109.3732664574928 -4.160178141147729, -109.2743209078946 -4.537500405038118, -109.19579100162323 -4.836968972727544 M-109.472212007091 -3.782855877257341 C-109.39546207384353 -4.075536636361412, -109.31871214059608 -4.368217395465484, -109.19579100162323 -4.836968972727544 M-109.19579100162323 -4.836968972727544 C-109.09396767705061 -5.143644602996702, -108.99214435247798 -5.45032023326586, -108.85240067484594 -5.871205925162218 M-109.19579100162323 -4.836968972727544 C-109.10572202568157 -5.108242377721342, -109.01565304973992 -5.37951578271514, -108.85240067484594 -5.871205925162218 M-108.85240067484594 -5.871205925162218 C-108.70579283470441 -6.233330124781551, -108.55918499456288 -6.595454324400883, -108.44345209126881 -6.881316833080692 M-108.85240067484594 -5.871205925162218 C-108.70603506351252 -6.232731814942366, -108.55966945217908 -6.594257704722515, -108.44345209126881 -6.881316833080692 M-108.44345209126881 -6.881316833080692 C-108.33440342695974 -7.107758717786128, -108.22535476265065 -7.334200602491563, -107.970625708341 -7.863150934094194 M-108.44345209126881 -6.881316833080692 C-108.27439475256932 -7.232368014137754, -108.10533741386983 -7.583419195194817, -107.970625708341 -7.863150934094194 M-107.970625708341 -7.863150934094194 C-107.85660389777561 -8.065608204713362, -107.74258208721022 -8.268065475332529, -107.43586447109088 -8.812673661278929 M-107.970625708341 -7.863150934094194 C-107.79908653746335 -8.16773610221208, -107.6275473665857 -8.472321270329966, -107.43586447109088 -8.812673661278929 M-107.43586447109088 -8.812673661278929 C-107.27222837292373 -9.06406265050855, -107.10859227475659 -9.315451639738173, -106.84136582814826 -9.725983222076884 M-107.43586447109088 -8.812673661278929 C-107.25129571498378 -9.096220834310019, -107.06672695887669 -9.37976800734111, -106.84136582814826 -9.725983222076884 M-106.84136582814826 -9.725983222076884 C-106.71037236678055 -9.90150252655977, -106.57937890541285 -10.077021831042659, -106.18957270195651 -10.599326631598467 M-106.84136582814826 -9.725983222076884 C-106.59959693820329 -10.049931509004155, -106.35782804825831 -10.373879795931428, -106.18957270195651 -10.599326631598467 M-106.18957270195651 -10.599326631598467 C-105.92068312915166 -10.915179624065175, -105.6517935563468 -11.231032616531882, -105.48316345028037 -11.42911513444238 M-106.18957270195651 -10.599326631598467 C-105.9644618960793 -10.863754593349567, -105.73935109020208 -11.128182555100665, -105.48316345028037 -11.42911513444238 M-105.48316345028037 -11.42911513444238 C-105.18708175290887 -11.73484379573789, -104.89100005553736 -12.040572457033399, -104.72504086025927 -12.21193895166136 M-105.48316345028037 -11.42911513444238 C-105.31860076410771 -11.599039618763454, -105.15403807793504 -11.768964103084528, -104.72504086025927 -12.21193895166136 M-104.72504086025927 -12.21193895166136 C-104.46861618143365 -12.444817060345578, -104.21219150260802 -12.677695169029795, -103.91832022023242 -12.944581292275274 M-104.72504086025927 -12.21193895166136 C-104.53469495234616 -12.38480606895131, -104.34434904443305 -12.557673186241258, -103.91832022023242 -12.944581292275274 M-103.91832022023242 -12.944581292275274 C-103.59794929823401 -13.200068577140723, -103.27757837623561 -13.455555862006172, -103.06631651835067 -13.624031571755259 M-103.91832022023242 -12.944581292275274 C-103.72395882643629 -13.099579331653779, -103.52959743264016 -13.254577371032283, -103.06631651835067 -13.624031571755259 M-103.06631651835067 -13.624031571755259 C-102.81877710480569 -13.796704350835737, -102.5712376912607 -13.969377129916216, -102.17253082057934 -14.247497783161284 M-103.06631651835067 -13.624031571755259 C-102.81698622503563 -13.797953591037395, -102.5676559317206 -13.97187561031953, -102.17253082057934 -14.247497783161284 M-102.17253082057934 -14.247497783161284 C-101.97747582605238 -14.365741267113902, -101.78242083152544 -14.483984751066522, -101.24063588406695 -14.812417970097618 M-102.17253082057934 -14.247497783161284 C-101.9602004110202 -14.376213725228023, -101.74787000146107 -14.504929667294762, -101.24063588406695 -14.812417970097618 M-101.24063588406695 -14.812417970097618 C-100.9396146638804 -14.969460547855643, -100.63859344369386 -15.12650312561367, -100.27446106499849 -15.316470754341124 M-101.24063588406695 -14.812417970097618 C-101.02873873165464 -14.92296457878451, -100.81684157924235 -15.033511187471403, -100.27446106499849 -15.316470754341124 M-100.27446106499849 -15.316470754341124 C-99.87951996291001 -15.491299464724152, -99.48457886082153 -15.666128175107179, -99.27797658294936 -15.757584874882365 M-100.27446106499849 -15.316470754341124 C-100.0047477895122 -15.435864820638855, -99.7350345140259 -15.555258886936587, -99.27797658294936 -15.757584874882365 M-99.27797658294936 -15.757584874882365 C-99.02493418895148 -15.850706814971838, -98.77189179495359 -15.94382875506131, -98.25527720640156 -16.133947699181363 M-99.27797658294936 -15.757584874882365 C-99.02763061391613 -15.849714505659366, -98.7772846448829 -15.941844136436364, -98.25527720640156 -16.133947699181363 M-98.25527720640156 -16.133947699181363 C-97.9957934466277 -16.210961117024194, -97.73630968685384 -16.287974534867026, -97.21056542646164 -16.444012671663494 M-98.25527720640156 -16.133947699181363 C-98.0295831102367 -16.200932522230605, -97.80388901407184 -16.26791734527985, -97.21056542646164 -16.444012671663494 M-97.21056542646164 -16.444012671663494 C-96.99576835368599 -16.493038701842643, -96.78097128091032 -16.542064732021796, -96.14813418792333 -16.68650566884811 M-97.21056542646164 -16.444012671663494 C-96.85886965083698 -16.524284937420408, -96.5071738752123 -16.604557203177322, -96.14813418792333 -16.68650566884811 M-96.14813418792333 -16.68650566884811 C-95.75550750609297 -16.749982505901052, -95.36288082426259 -16.813459342953994, -95.07234924863661 -16.86043023499518 M-96.14813418792333 -16.68650566884811 C-95.73275646143857 -16.75366071836379, -95.31737873495379 -16.820815767879466, -95.07234924863661 -16.86043023499518 M-95.07234924863661 -16.86043023499518 C-94.7459914624474 -16.891913578126193, -94.4196336762582 -16.9233969212572, -93.98763123967213 -16.965071676755716 M-95.07234924863661 -16.86043023499518 C-94.76070074852996 -16.890494590988315, -94.4490522484233 -16.920558946981444, -93.98763123967213 -16.965071676755716 M-93.98763123967213 -16.965071676755716 C-93.75940411054653 -16.97239047656962, -93.53117698142094 -16.979709276383517, -92.8984375 -17 M-93.98763123967213 -16.965071676755716 C-93.63037414825178 -16.976528216318822, -93.27311705683142 -16.987984755881932, -92.8984375 -17 M-92.8984375 -17 C-92.8984375 -17, -92.8984375 -17, -92.8984375 -17 M-92.8984375 -17 C-92.8984375 -17, -92.8984375 -17, -92.8984375 -17" stroke="#3D3D3D" stroke-width="1.3" fill="none" stroke-dasharray="0 0" style="fill:#5A5A5A !important;stroke:#3D3D3D !important"></path></g><g class="label" style="color:#ffffff !important" transform="translate(0, -9.5)"><rect></rect><g><rect class="background" style="stroke: none"></rect><text y="-10.1" style="fill:#ffffff !important"><tspan class="text-outer-tspan row" x="0" y="-0.1em" dy="1.1em"><tspan font-style="normal" class="text-inner-tspan" font-weight="normal">now()</tspan><tspan font-style="normal" class="text-inner-tspan" font-weight="normal"> —</tspan><tspan font-style="normal" class="text-inner-tspan" font-weight="normal"> 70%</tspan><tspan font-style="normal" class="text-inner-tspan" font-weight="normal"> into</tspan><tspan font-style="normal" class="text-inner-tspan" font-weight="normal"> window</tspan><tspan font-style="normal" class="text-inner-tspan" font-weight="normal"> N</tspan></tspan></text></g></g></g><g class="node default primary" id="gf959918f-4f00-4d9f-8185-5bc5549be22b-light-flowchart-Calc-3" data-look="classic" transform="translate(266.7447090148926, 344.5000114440918)"><rect class="basic label-container" style="fill:#2E5A88 !important;stroke:#1F4870 !important" x="-97.3203125" y="-33.29999923706055" width="194.640625" height="66.5999984741211"></rect><g class="label" style="color:#ffffff !important" transform="translate(0, -18.299999237060547)"><rect></rect><g><rect class="background" style="stroke: none"></rect><text y="-10.1" style="fill:#ffffff !important"><tspan class="text-outer-tspan row" x="0" y="-0.1em" dy="1.1em"><tspan font-style="normal" class="text-inner-tspan" font-weight="normal">Weighted</tspan><tspan font-style="normal" class="text-inner-tspan" font-weight="normal"> estimate</tspan></tspan><tspan class="text-outer-tspan row" x="0" y="1em" dy="1.1em"><tspan font-style="normal" class="text-inner-tspan" font-weight="normal">0.30</tspan><tspan font-style="normal" class="text-inner-tspan" font-weight="normal"> *</tspan><tspan font-style="normal" class="text-inner-tspan" font-weight="normal"> 80</tspan><tspan font-style="normal" class="text-inner-tspan" font-weight="normal"> +</tspan><tspan font-style="normal" class="text-inner-tspan" font-weight="normal"> 30</tspan><tspan font-style="normal" class="text-inner-tspan" font-weight="normal"> =</tspan><tspan font-style="normal" class="text-inner-tspan" font-weight="normal"> 54</tspan></tspan></text></g></g></g><g class="node default neutral" id="gf959918f-4f00-4d9f-8185-5bc5549be22b-light-flowchart-Cmp-7" data-look="classic" transform="translate(266.7447090148926, 492.4593811035156)"><polygon points="64.65937423706055,0 129.3187484741211,-64.65937423706055 64.65937423706055,-129.3187484741211 0,-64.65937423706055" class="label-container" transform="translate(-64.15937423706055, 64.65937423706055)" style="fill:#5A5A5A !important;stroke:#3D3D3D !important"></polygon><g class="label" style="color:#ffffff !important" transform="translate(0, -18.299999237060547)"><rect></rect><g><rect class="background" style="stroke: none"></rect><text y="-10.1" style="fill:#ffffff !important"><tspan class="text-outer-tspan row" x="0" y="-0.1em" dy="1.1em"><tspan font-style="normal" class="text-inner-tspan" font-weight="normal">Estimate</tspan></tspan><tspan class="text-outer-tspan row" x="0" y="1em" dy="1.1em"><tspan font-style="normal" class="text-inner-tspan" font-weight="normal">&lt;</tspan><tspan font-style="normal" class="text-inner-tspan" font-weight="normal"> limit?</tspan></tspan></text></g></g></g><g class="node default primary" id="gf959918f-4f00-4d9f-8185-5bc5549be22b-light-flowchart-Allow-9" data-look="classic" transform="translate(156.25252151489258, 654.6187515258789)"><rect class="basic label-container" style="fill:#2E5A88 !important;stroke:#1F4870 !important" x="-102.859375" y="-24.5" width="205.71875" height="49"></rect><g class="label" style="color:#ffffff !important" transform="translate(0, -9.5)"><rect></rect><g><rect class="background" style="stroke: none"></rect><text y="-10.1" style="fill:#ffffff !important"><tspan class="text-outer-tspan row" x="0" y="-0.1em" dy="1.1em"><tspan font-style="normal" class="text-inner-tspan" font-weight="normal">Allow</tspan><tspan font-style="normal" class="text-inner-tspan" font-weight="normal"> +</tspan><tspan font-style="normal" class="text-inner-tspan" font-weight="normal"> increment</tspan><tspan font-style="normal" class="text-inner-tspan" font-weight="normal"> N</tspan></tspan></text></g></g></g><g class="node default alert" id="gf959918f-4f00-4d9f-8185-5bc5549be22b-light-flowchart-Reject-11" data-look="classic" transform="translate(377.2368965148926, 654.6187515258789)"><rect class="basic label-container" style="fill:#B43A3A !important;stroke:#8E2828 !important" x="-68.125" y="-24.5" width="136.25" height="49"></rect><g class="label" style="color:#ffffff !important" transform="translate(0, -9.5)"><rect></rect><g><rect class="background" style="stroke: none"></rect><text y="-10.1" style="fill:#ffffff !important"><tspan class="text-outer-tspan row" x="0" y="-0.1em" dy="1.1em"><tspan font-style="normal" class="text-inner-tspan" font-weight="normal">Reject</tspan><tspan font-style="normal" class="text-inner-tspan" font-weight="normal"> 429</tspan></tspan></text></g></g></g></g></g></g><defs><filter id="gf959918f-4f00-4d9f-8185-5bc5549be22b-light-drop-shadow" height="130%" width="130%"><feDropShadow dx="4" dy="4" stdDeviation="0" flood-opacity="0.06" flood-color="#000000"></feDropShadow></filter></defs><defs><filter id="gf959918f-4f00-4d9f-8185-5bc5549be22b-light-drop-shadow-small" height="150%" width="150%"><feDropShadow dx="2" dy="2" stdDeviation="0" flood-opacity="0.06" flood-color="#000000"></feDropShadow></filter></defs></svg>