<svg id="g140ae78d-382c-4be2-81d2-c7f71de23f27-dark" width="100%" xmlns="http://www.w3.org/2000/svg" xmlns:xlink="http://www.w3.org/1999/xlink" class="flowchart" style="max-width: 2149.538818359375px;" viewBox="0 0 2149.538818359375 499.72186279296875" role="graphics-document document" aria-roledescription="flowchart-v2"><style>#g140ae78d-382c-4be2-81d2-c7f71de23f27-dark{font-family:"trebuchet ms",verdana,arial,sans-serif;font-size:16px;fill:#e5e5e5;}@keyframes edge-animation-frame{from{stroke-dashoffset:0;}}@keyframes dash{to{stroke-dashoffset:0;}}#g140ae78d-382c-4be2-81d2-c7f71de23f27-dark .edge-animation-slow{stroke-dasharray:9,5!important;stroke-dashoffset:900;animation:dash 50s linear infinite;stroke-linecap:round;}#g140ae78d-382c-4be2-81d2-c7f71de23f27-dark .edge-animation-fast{stroke-dasharray:9,5!important;stroke-dashoffset:900;animation:dash 20s linear infinite;stroke-linecap:round;}#g140ae78d-382c-4be2-81d2-c7f71de23f27-dark .error-icon{fill:#252525;}#g140ae78d-382c-4be2-81d2-c7f71de23f27-dark .error-text{fill:#cccccc;stroke:#cccccc;}#g140ae78d-382c-4be2-81d2-c7f71de23f27-dark .edge-thickness-normal{stroke-width:1px;}#g140ae78d-382c-4be2-81d2-c7f71de23f27-dark .edge-thickness-thick{stroke-width:3.5px;}#g140ae78d-382c-4be2-81d2-c7f71de23f27-dark .edge-pattern-solid{stroke-dasharray:0;}#g140ae78d-382c-4be2-81d2-c7f71de23f27-dark .edge-thickness-invisible{stroke-width:0;fill:none;}#g140ae78d-382c-4be2-81d2-c7f71de23f27-dark .edge-pattern-dashed{stroke-dasharray:3;}#g140ae78d-382c-4be2-81d2-c7f71de23f27-dark .edge-pattern-dotted{stroke-dasharray:2;}#g140ae78d-382c-4be2-81d2-c7f71de23f27-dark .marker{fill:#cccccc;stroke:#cccccc;}#g140ae78d-382c-4be2-81d2-c7f71de23f27-dark .marker.cross{stroke:#cccccc;}#g140ae78d-382c-4be2-81d2-c7f71de23f27-dark svg{font-family:"trebuchet ms",verdana,arial,sans-serif;font-size:16px;}#g140ae78d-382c-4be2-81d2-c7f71de23f27-dark p{margin:0;}#g140ae78d-382c-4be2-81d2-c7f71de23f27-dark .label{font-family:"trebuchet ms",verdana,arial,sans-serif;color:#e5e5e5;}#g140ae78d-382c-4be2-81d2-c7f71de23f27-dark .cluster-label text{fill:#e5e5e5;}#g140ae78d-382c-4be2-81d2-c7f71de23f27-dark .cluster-label span{color:#e5e5e5;}#g140ae78d-382c-4be2-81d2-c7f71de23f27-dark .cluster-label span p{background-color:transparent;}#g140ae78d-382c-4be2-81d2-c7f71de23f27-dark .label text,#g140ae78d-382c-4be2-81d2-c7f71de23f27-dark span{fill:#e5e5e5;color:#e5e5e5;}#g140ae78d-382c-4be2-81d2-c7f71de23f27-dark .node rect,#g140ae78d-382c-4be2-81d2-c7f71de23f27-dark .node circle,#g140ae78d-382c-4be2-81d2-c7f71de23f27-dark .node ellipse,#g140ae78d-382c-4be2-81d2-c7f71de23f27-dark .node polygon,#g140ae78d-382c-4be2-81d2-c7f71de23f27-dark .node path{fill:#2d2d2d;stroke:#555555;stroke-width:1px;}#g140ae78d-382c-4be2-81d2-c7f71de23f27-dark .rough-node .label text,#g140ae78d-382c-4be2-81d2-c7f71de23f27-dark .node .label text,#g140ae78d-382c-4be2-81d2-c7f71de23f27-dark .image-shape .label,#g140ae78d-382c-4be2-81d2-c7f71de23f27-dark .icon-shape .label{text-anchor:middle;}#g140ae78d-382c-4be2-81d2-c7f71de23f27-dark .node .katex path{fill:#000;stroke:#000;stroke-width:1px;}#g140ae78d-382c-4be2-81d2-c7f71de23f27-dark .rough-node .label,#g140ae78d-382c-4be2-81d2-c7f71de23f27-dark .node .label,#g140ae78d-382c-4be2-81d2-c7f71de23f27-dark .image-shape .label,#g140ae78d-382c-4be2-81d2-c7f71de23f27-dark .icon-shape .label{text-align:center;}#g140ae78d-382c-4be2-81d2-c7f71de23f27-dark .node.clickable{cursor:pointer;}#g140ae78d-382c-4be2-81d2-c7f71de23f27-dark .root .anchor path{fill:#cccccc!important;stroke-width:0;stroke:#cccccc;}#g140ae78d-382c-4be2-81d2-c7f71de23f27-dark .arrowheadPath{fill:#cccccc;}#g140ae78d-382c-4be2-81d2-c7f71de23f27-dark .edgePath .path{stroke:#cccccc;stroke-width:1px;}#g140ae78d-382c-4be2-81d2-c7f71de23f27-dark .flowchart-link{stroke:#cccccc;fill:none;}#g140ae78d-382c-4be2-81d2-c7f71de23f27-dark .edgeLabel{background-color:#1e1e1e;text-align:center;}#g140ae78d-382c-4be2-81d2-c7f71de23f27-dark .edgeLabel p{background-color:#1e1e1e;}#g140ae78d-382c-4be2-81d2-c7f71de23f27-dark .edgeLabel rect{opacity:0.5;background-color:#1e1e1e;fill:#1e1e1e;}#g140ae78d-382c-4be2-81d2-c7f71de23f27-dark .labelBkg{background-color:rgba(30, 30, 30, 0.5);}#g140ae78d-382c-4be2-81d2-c7f71de23f27-dark .cluster rect{fill:#1e1e1e;stroke:#555555;stroke-width:1px;}#g140ae78d-382c-4be2-81d2-c7f71de23f27-dark .cluster text{fill:#e5e5e5;}#g140ae78d-382c-4be2-81d2-c7f71de23f27-dark .cluster span{color:#e5e5e5;}#g140ae78d-382c-4be2-81d2-c7f71de23f27-dark div.mermaidTooltip{position:absolute;text-align:center;max-width:200px;padding:2px;font-family:"trebuchet ms",verdana,arial,sans-serif;font-size:12px;background:#252525;border:1px solid #555555;border-radius:2px;pointer-events:none;z-index:100;}#g140ae78d-382c-4be2-81d2-c7f71de23f27-dark .flowchartTitleText{text-anchor:middle;font-size:18px;fill:#e5e5e5;}#g140ae78d-382c-4be2-81d2-c7f71de23f27-dark rect.text{fill:none;stroke-width:0;}#g140ae78d-382c-4be2-81d2-c7f71de23f27-dark .icon-shape,#g140ae78d-382c-4be2-81d2-c7f71de23f27-dark .image-shape{background-color:#1e1e1e;text-align:center;}#g140ae78d-382c-4be2-81d2-c7f71de23f27-dark .icon-shape p,#g140ae78d-382c-4be2-81d2-c7f71de23f27-dark .image-shape p{background-color:#1e1e1e;padding:2px;}#g140ae78d-382c-4be2-81d2-c7f71de23f27-dark .icon-shape .label rect,#g140ae78d-382c-4be2-81d2-c7f71de23f27-dark .image-shape .label rect{opacity:0.5;background-color:#1e1e1e;fill:#1e1e1e;}#g140ae78d-382c-4be2-81d2-c7f71de23f27-dark .label-icon{display:inline-block;height:1em;overflow:visible;vertical-align:-0.125em;}#g140ae78d-382c-4be2-81d2-c7f71de23f27-dark .node .label-icon path{fill:currentColor;stroke:revert;stroke-width:revert;}#g140ae78d-382c-4be2-81d2-c7f71de23f27-dark .node .neo-node{stroke:#555555;}#g140ae78d-382c-4be2-81d2-c7f71de23f27-dark [data-look="neo"].node rect,#g140ae78d-382c-4be2-81d2-c7f71de23f27-dark [data-look="neo"].cluster rect,#g140ae78d-382c-4be2-81d2-c7f71de23f27-dark [data-look="neo"].node polygon{stroke:url(#g140ae78d-382c-4be2-81d2-c7f71de23f27-dark-gradient);filter:drop-shadow( 1px 2px 2px rgba(185,185,185,1));}#g140ae78d-382c-4be2-81d2-c7f71de23f27-dark [data-look="neo"].node path{stroke:url(#g140ae78d-382c-4be2-81d2-c7f71de23f27-dark-gradient);stroke-width:1px;}#g140ae78d-382c-4be2-81d2-c7f71de23f27-dark [data-look="neo"].node .outer-path{filter:drop-shadow( 1px 2px 2px rgba(185,185,185,1));}#g140ae78d-382c-4be2-81d2-c7f71de23f27-dark [data-look="neo"].node .neo-line path{stroke:#555555;filter:none;}#g140ae78d-382c-4be2-81d2-c7f71de23f27-dark [data-look="neo"].node circle{stroke:url(#g140ae78d-382c-4be2-81d2-c7f71de23f27-dark-gradient);filter:drop-shadow( 1px 2px 2px rgba(185,185,185,1));}#g140ae78d-382c-4be2-81d2-c7f71de23f27-dark [data-look="neo"].node circle .state-start{fill:#000000;}#g140ae78d-382c-4be2-81d2-c7f71de23f27-dark [data-look="neo"].icon-shape .icon{fill:url(#g140ae78d-382c-4be2-81d2-c7f71de23f27-dark-gradient);filter:drop-shadow( 1px 2px 2px rgba(185,185,185,1));}#g140ae78d-382c-4be2-81d2-c7f71de23f27-dark [data-look="neo"].icon-shape .icon-neo path{stroke:url(#g140ae78d-382c-4be2-81d2-c7f71de23f27-dark-gradient);filter:drop-shadow( 1px 2px 2px rgba(185,185,185,1));}#g140ae78d-382c-4be2-81d2-c7f71de23f27-dark :root{--mermaid-font-family:"trebuchet ms",verdana,arial,sans-serif;}#g140ae78d-382c-4be2-81d2-c7f71de23f27-dark .reject rect{fill:#B43A3A!important;stroke:#8E2828!important;color:#fff!important;}#g140ae78d-382c-4be2-81d2-c7f71de23f27-dark .reject polygon{fill:#B43A3A!important;stroke:#8E2828!important;color:#fff!important;}#g140ae78d-382c-4be2-81d2-c7f71de23f27-dark .reject ellipse{fill:#B43A3A!important;stroke:#8E2828!important;color:#fff!important;}#g140ae78d-382c-4be2-81d2-c7f71de23f27-dark .reject circle{fill:#B43A3A!important;stroke:#8E2828!important;color:#fff!important;}#g140ae78d-382c-4be2-81d2-c7f71de23f27-dark .reject path{fill:#B43A3A!important;stroke:#8E2828!important;color:#fff!important;}#g140ae78d-382c-4be2-81d2-c7f71de23f27-dark .reject tspan{fill:#fff!important;}#g140ae78d-382c-4be2-81d2-c7f71de23f27-dark .allow rect{fill:#2D7A2D!important;stroke:#1E5A1E!important;color:#fff!important;}#g140ae78d-382c-4be2-81d2-c7f71de23f27-dark .allow polygon{fill:#2D7A2D!important;stroke:#1E5A1E!important;color:#fff!important;}#g140ae78d-382c-4be2-81d2-c7f71de23f27-dark .allow ellipse{fill:#2D7A2D!important;stroke:#1E5A1E!important;color:#fff!important;}#g140ae78d-382c-4be2-81d2-c7f71de23f27-dark .allow circle{fill:#2D7A2D!important;stroke:#1E5A1E!important;color:#fff!important;}#g140ae78d-382c-4be2-81d2-c7f71de23f27-dark .allow path{fill:#2D7A2D!important;stroke:#1E5A1E!important;color:#fff!important;}#g140ae78d-382c-4be2-81d2-c7f71de23f27-dark .allow tspan{fill:#fff!important;}</style><g><marker id="g140ae78d-382c-4be2-81d2-c7f71de23f27-dark_flowchart-v2-pointEnd" class="marker flowchart-v2" viewBox="0 0 10 10" refX="5" refY="5" markerUnits="userSpaceOnUse" markerWidth="8" markerHeight="8" orient="auto"><path d="M 0 0 L 10 5 L 0 10 z" class="arrowMarkerPath" style="stroke-width: 1; stroke-dasharray: 1, 0;"></path></marker><marker id="g140ae78d-382c-4be2-81d2-c7f71de23f27-dark_flowchart-v2-pointStart" class="marker flowchart-v2" viewBox="0 0 10 10" refX="4.5" refY="5" markerUnits="userSpaceOnUse" markerWidth="8" markerHeight="8" orient="auto"><path d="M 0 5 L 10 10 L 10 0 z" class="arrowMarkerPath" style="stroke-width: 1; stroke-dasharray: 1, 0;"></path></marker><marker id="g140ae78d-382c-4be2-81d2-c7f71de23f27-dark_flowchart-v2-pointEnd-margin" class="marker flowchart-v2" viewBox="0 0 11.5 14" refX="11.5" refY="7" markerUnits="userSpaceOnUse" markerWidth="10.5" markerHeight="14" orient="auto"><path d="M 0 0 L 11.5 7 L 0 14 z" class="arrowMarkerPath" style="stroke-width: 0; stroke-dasharray: 1, 0;"></path></marker><marker id="g140ae78d-382c-4be2-81d2-c7f71de23f27-dark_flowchart-v2-pointStart-margin" class="marker flowchart-v2" viewBox="0 0 11.5 14" refX="1" refY="7" markerUnits="userSpaceOnUse" markerWidth="11.5" markerHeight="14" orient="auto"><polygon points="0,7 11.5,14 11.5,0" class="arrowMarkerPath" style="stroke-width: 0; stroke-dasharray: 1, 0;"></polygon></marker><marker id="g140ae78d-382c-4be2-81d2-c7f71de23f27-dark_flowchart-v2-circleEnd" class="marker flowchart-v2" viewBox="0 0 10 10" refX="11" refY="5" markerUnits="userSpaceOnUse" markerWidth="11" markerHeight="11" orient="auto"><circle cx="5" cy="5" r="5" class="arrowMarkerPath" style="stroke-width: 1; stroke-dasharray: 1, 0;"></circle></marker><marker id="g140ae78d-382c-4be2-81d2-c7f71de23f27-dark_flowchart-v2-circleStart" class="marker flowchart-v2" viewBox="0 0 10 10" refX="-1" refY="5" markerUnits="userSpaceOnUse" markerWidth="11" markerHeight="11" orient="auto"><circle cx="5" cy="5" r="5" class="arrowMarkerPath" style="stroke-width: 1; stroke-dasharray: 1, 0;"></circle></marker><marker id="g140ae78d-382c-4be2-81d2-c7f71de23f27-dark_flowchart-v2-circleEnd-margin" class="marker flowchart-v2" viewBox="0 0 10 10" refY="5" refX="12.25" markerUnits="userSpaceOnUse" markerWidth="14" markerHeight="14" orient="auto"><circle cx="5" cy="5" r="5" class="arrowMarkerPath" style="stroke-width: 0; stroke-dasharray: 1, 0;"></circle></marker><marker id="g140ae78d-382c-4be2-81d2-c7f71de23f27-dark_flowchart-v2-circleStart-margin" class="marker flowchart-v2" viewBox="0 0 10 10" refX="-2" refY="5" markerUnits="userSpaceOnUse" markerWidth="14" markerHeight="14" orient="auto"><circle cx="5" cy="5" r="5" class="arrowMarkerPath" style="stroke-width: 0; stroke-dasharray: 1, 0;"></circle></marker><marker id="g140ae78d-382c-4be2-81d2-c7f71de23f27-dark_flowchart-v2-crossEnd" class="marker cross flowchart-v2" viewBox="0 0 11 11" refX="12" refY="5.2" markerUnits="userSpaceOnUse" markerWidth="11" markerHeight="11" orient="auto"><path d="M 1,1 l 9,9 M 10,1 l -9,9" class="arrowMarkerPath" style="stroke-width: 2; stroke-dasharray: 1, 0;"></path></marker><marker id="g140ae78d-382c-4be2-81d2-c7f71de23f27-dark_flowchart-v2-crossStart" class="marker cross flowchart-v2" viewBox="0 0 11 11" refX="-1" refY="5.2" markerUnits="userSpaceOnUse" markerWidth="11" markerHeight="11" orient="auto"><path d="M 1,1 l 9,9 M 10,1 l -9,9" class="arrowMarkerPath" style="stroke-width: 2; stroke-dasharray: 1, 0;"></path></marker><marker id="g140ae78d-382c-4be2-81d2-c7f71de23f27-dark_flowchart-v2-crossEnd-margin" class="marker cross flowchart-v2" viewBox="0 0 15 15" refX="17.7" refY="7.5" markerUnits="userSpaceOnUse" markerWidth="12" markerHeight="12" orient="auto"><path d="M 1,1 L 14,14 M 1,14 L 14,1" class="arrowMarkerPath" style="stroke-width: 2.5;"></path></marker><marker id="g140ae78d-382c-4be2-81d2-c7f71de23f27-dark_flowchart-v2-crossStart-margin" class="marker cross flowchart-v2" viewBox="0 0 15 15" refX="-3.5" refY="7.5" markerUnits="userSpaceOnUse" markerWidth="12" markerHeight="12" orient="auto"><path d="M 1,1 L 14,14 M 1,14 L 14,1" class="arrowMarkerPath" style="stroke-width: 2.5; stroke-dasharray: 1, 0;"></path></marker><g class="root"><g class="clusters"></g><g class="edgePaths"><path d="M134.358,133.017L138.441,132.934C142.524,132.851,150.691,132.684,158.274,132.601C165.858,132.517,172.858,132.517,176.358,132.517L179.858,132.517" id="g140ae78d-382c-4be2-81d2-c7f71de23f27-dark-L_Start_Parse_0" class="edge-thickness-normal edge-pattern-solid edge-thickness-normal edge-pattern-solid flowchart-link" style=";" data-edge="true" data-et="edge" data-id="L_Start_Parse_0" data-points="W3sieCI6MTM0LjM1NzUzMTM1MDgyMjcsInkiOjEzMy4wMTcxODkwMjU4Nzg5fSx7IngiOjE1OC44NTc1Mjg2ODY1MjM0NCwieSI6MTMyLjUxNzE4OTAyNTg3ODl9LHsieCI6MTgzLjg1NzUyODY4NjUyMzQ0LCJ5IjoxMzIuNTE3MTg5MDI1ODc4OX1d" data-look="classic" marker-end="url(#g140ae78d-382c-4be2-81d2-c7f71de23f27-dark_flowchart-v2-pointEnd)"></path><path d="M270.995,100.046L282.295,86.621C293.595,73.197,316.195,46.349,345.59,32.924C374.985,19.5,411.175,19.5,447.902,19.5C484.628,19.5,521.891,19.5,561.747,19.5C601.602,19.5,644.05,19.5,686.018,19.5C727.985,19.5,769.472,19.5,811.255,19.5C853.037,19.5,895.115,19.5,937.717,19.5C980.318,19.5,1023.443,19.5,1072.601,19.5C1121.759,19.5,1176.95,19.5,1232.097,19.5C1287.245,19.5,1342.35,19.5,1391.76,19.5C1441.171,19.5,1484.887,19.5,1528.122,19.5C1571.358,19.5,1614.113,19.5,1657.524,19.5C1700.935,19.5,1745.001,19.5,1791.256,19.5C1837.511,19.5,1885.954,19.5,1925.439,30.771C1964.923,42.041,1995.447,64.583,2010.71,75.853L2025.972,87.124" id="g140ae78d-382c-4be2-81d2-c7f71de23f27-dark-L_Parse_Reject_0" class="edge-thickness-normal edge-pattern-solid edge-thickness-normal edge-pattern-solid flowchart-link" style=";" data-edge="true" data-et="edge" data-id="L_Parse_Reject_0" data-points="W3sieCI6MjcwLjk5NTMzMjExNjYyOTQ3LCJ5IjoxMDAuMDQ1NjE3NDU1OTg0OTJ9LHsieCI6MzM4Ljc5NTAyODY4NjUyMzQ0LCJ5IjoxOS41fSx7IngiOjQ0Ny4zNjUzNDExODY1MjM0NCwieSI6MTkuNX0seyJ4Ijo1NTkuMTU0NDAzNjg2NTIzNCwieSI6MTkuNX0seyJ4Ijo2ODYuNDk4MTUzNjg2NTIzNCwieSI6MTkuNX0seyJ4Ijo4MTAuOTU5MDkxMTg2NTIzNCwieSI6MTkuNX0seyJ4Ijo5MzcuMTkzNDY2MTg2NTIzNCwieSI6MTkuNX0seyJ4IjoxMDY2LjU2ODQ2NjE4NjUyMzQsInkiOjE5LjV9LHsieCI6MTIzMi4xNDAzNDI3MTI0MDIzLCJ5IjoxOS41fSx7IngiOjEzOTcuNDU0NDA2NzM4MjgxMiwieSI6MTkuNX0seyJ4IjoxNTI4LjYwMjg0NDIzODI4MTIsInkiOjE5LjV9LHsieCI6MTY1Ni44Njg0NjkyMzgyODEyLCJ5IjoxOS41fSx7IngiOjE3ODkuMDY2OTA5NzkwMDM5LCJ5IjoxOS41fSx7IngiOjE5MzQuMzk4MTYyODQxNzk2OSwieSI6MTkuNX0seyJ4IjoyMDI5LjE4OTgyOTUwODQ2MzYsInkiOjg5LjV9XQ==" data-look="classic" marker-end="url(#g140ae78d-382c-4be2-81d2-c7f71de23f27-dark_flowchart-v2-pointEnd)"></path><path d="M281.781,154.203L291.283,159.609C300.786,165.015,319.79,175.827,334.514,181.232C349.238,186.638,359.68,186.638,364.902,186.638L370.123,186.638" id="g140ae78d-382c-4be2-81d2-c7f71de23f27-dark-L_Parse_Scheme_0" class="edge-thickness-normal edge-pattern-solid edge-thickness-normal edge-pattern-solid flowchart-link" style=";" data-edge="true" data-et="edge" data-id="L_Parse_Scheme_0" data-points="W3sieCI6MjgxLjc4MTA3MTkzNzEzMTksInkiOjE1NC4yMDMwMjA3NzUyNzA0fSx7IngiOjMzOC43OTUwMjg2ODY1MjM0NCwieSI6MTg2LjYzODI4Mjc3NTg3ODl9LHsieCI6Mzc0LjEyMzE1MzY4NjUyMzQsInkiOjE4Ni42MzgyODI3NzU4Nzg5fV0=" data-look="classic" marker-end="url(#g140ae78d-382c-4be2-81d2-c7f71de23f27-dark_flowchart-v2-pointEnd)"></path><path d="M486.53,152.561L498.634,142.029C510.738,131.498,534.946,110.434,568.274,99.903C601.602,89.371,644.05,89.371,686.018,89.371C727.985,89.371,769.472,89.371,811.255,89.371C853.037,89.371,895.115,89.371,937.717,89.371C980.318,89.371,1023.443,89.371,1072.601,89.371C1121.759,89.371,1176.95,89.371,1232.097,89.371C1287.245,89.371,1342.35,89.371,1391.76,89.371C1441.171,89.371,1484.887,89.371,1528.122,89.371C1571.358,89.371,1614.113,89.371,1657.524,89.371C1700.935,89.371,1745.001,89.371,1791.256,89.371C1837.511,89.371,1885.954,89.371,1921.996,91.646C1958.037,93.921,1981.675,98.47,1993.495,100.745L2005.314,103.02" id="g140ae78d-382c-4be2-81d2-c7f71de23f27-dark-L_Scheme_Reject_0" class="edge-thickness-normal edge-pattern-solid edge-thickness-normal edge-pattern-solid flowchart-link" style=";" data-edge="true" data-et="edge" data-id="L_Scheme_Reject_0" data-points="W3sieCI6NDg2LjUzMDI4MDg0NDIxNDksInkiOjE1Mi41NjEwMzQ5MzM1NzAzN30seyJ4Ijo1NTkuMTU0NDAzNjg2NTIzNCwieSI6ODkuMzcxMDkzNzV9LHsieCI6Njg2LjQ5ODE1MzY4NjUyMzQsInkiOjg5LjM3MTA5Mzc1fSx7IngiOjgxMC45NTkwOTExODY1MjM0LCJ5Ijo4OS4zNzEwOTM3NX0seyJ4Ijo5MzcuMTkzNDY2MTg2NTIzNCwieSI6ODkuMzcxMDkzNzV9LHsieCI6MTA2Ni41Njg0NjYxODY1MjM0LCJ5Ijo4OS4zNzEwOTM3NX0seyJ4IjoxMjMyLjE0MDM0MjcxMjQwMjMsInkiOjg5LjM3MTA5Mzc1fSx7IngiOjEzOTcuNDU0NDA2NzM4MjgxMiwieSI6ODkuMzcxMDkzNzV9LHsieCI6MTUyOC42MDI4NDQyMzgyODEyLCJ5Ijo4OS4zNzEwOTM3NX0seyJ4IjoxNjU2Ljg2ODQ2OTIzODI4MTIsInkiOjg5LjM3MTA5Mzc1fSx7IngiOjE3ODkuMDY2OTA5NzkwMDM5LCJ5Ijo4OS4zNzEwOTM3NX0seyJ4IjoxOTM0LjM5ODE2Mjg0MTc5NjksInkiOjg5LjM3MTA5Mzc1fSx7IngiOjIwMDkuMjQxOTEyODQxNzk2OSwieSI6MTAzLjc3NTU0NTYzNDkyMDYzfV0=" data-look="classic" marker-end="url(#g140ae78d-382c-4be2-81d2-c7f71de23f27-dark_flowchart-v2-pointEnd)"></path><path d="M494.506,212.74L505.28,218.706C516.055,224.672,537.605,236.605,554.137,242.571C570.67,248.537,582.186,248.537,587.943,248.537L593.701,248.537" id="g140ae78d-382c-4be2-81d2-c7f71de23f27-dark-L_Scheme_HostList_0" class="edge-thickness-normal edge-pattern-solid edge-thickness-normal edge-pattern-solid flowchart-link" style=";" data-edge="true" data-et="edge" data-id="L_Scheme_HostList_0" data-points="W3sieCI6NDk0LjUwNTYxMDIxMDM0MDUsInkiOjIxMi43NDAyMDEyNTIwNjE5fSx7IngiOjU1OS4xNTQ0MDM2ODY1MjM0LCJ5IjoyNDguNTM2NzIwMjc1ODc4OX0seyJ4Ijo1OTcuNzAxMjc4Njg2NTIzNCwieSI6MjQ4LjUzNjcyMDI3NTg3ODl9XQ==" data-look="classic" marker-end="url(#g140ae78d-382c-4be2-81d2-c7f71de23f27-dark_flowchart-v2-pointEnd)"></path><path d="M740.153,213.395L751.954,205.666C763.755,197.936,787.357,182.478,820.197,174.749C853.037,167.02,895.115,167.02,937.717,167.02C980.318,167.02,1023.443,167.02,1072.601,167.02C1121.759,167.02,1176.95,167.02,1232.097,167.02C1287.245,167.02,1342.35,167.02,1391.76,167.02C1441.171,167.02,1484.887,167.02,1528.122,167.02C1571.358,167.02,1614.113,167.02,1657.524,167.02C1700.935,167.02,1745.001,167.02,1791.256,167.02C1837.511,167.02,1885.954,167.02,1922.034,162.107C1958.114,157.194,1981.83,147.368,1993.688,142.455L2005.547,137.542" id="g140ae78d-382c-4be2-81d2-c7f71de23f27-dark-L_HostList_Reject_0" class="edge-thickness-normal edge-pattern-solid edge-thickness-normal edge-pattern-solid flowchart-link" style=";" data-edge="true" data-et="edge" data-id="L_HostList_Reject_0" data-points="W3sieCI6NzQwLjE1MzA4NTM4MjMwMTIsInkiOjIxMy4zOTQ3NzY5NzE2NTY3fSx7IngiOjgxMC45NTkwOTExODY1MjM0LCJ5IjoxNjcuMDE5NTMxMjV9LHsieCI6OTM3LjE5MzQ2NjE4NjUyMzQsInkiOjE2Ny4wMTk1MzEyNX0seyJ4IjoxMDY2LjU2ODQ2NjE4NjUyMzQsInkiOjE2Ny4wMTk1MzEyNX0seyJ4IjoxMjMyLjE0MDM0MjcxMjQwMjMsInkiOjE2Ny4wMTk1MzEyNX0seyJ4IjoxMzk3LjQ1NDQwNjczODI4MTIsInkiOjE2Ny4wMTk1MzEyNX0seyJ4IjoxNTI4LjYwMjg0NDIzODI4MTIsInkiOjE2Ny4wMTk1MzEyNX0seyJ4IjoxNjU2Ljg2ODQ2OTIzODI4MTIsInkiOjE2Ny4wMTk1MzEyNX0seyJ4IjoxNzg5LjA2NjkwOTc5MDAzOSwieSI6MTY3LjAxOTUzMTI1fSx7IngiOjE5MzQuMzk4MTYyODQxNzk2OSwieSI6MTY3LjAxOTUzMTI1fSx7IngiOjIwMDkuMjQxOTEyODQxNzk2OSwieSI6MTM2LjAxMDU1MDIxMzY3NTJ9XQ==" data-look="classic" marker-end="url(#g140ae78d-382c-4be2-81d2-c7f71de23f27-dark_flowchart-v2-pointEnd)"></path><path d="M740.319,283.513L752.092,291.164C763.865,298.816,787.412,314.118,804.463,321.769C821.514,329.42,832.068,329.42,837.346,329.42L842.623,329.42" id="g140ae78d-382c-4be2-81d2-c7f71de23f27-dark-L_HostList_Resolve_0" class="edge-thickness-normal edge-pattern-solid edge-thickness-normal edge-pattern-solid flowchart-link" style=";" data-edge="true" data-et="edge" data-id="L_HostList_Resolve_0" data-points="W3sieCI6NzQwLjMxODYzODcwODYxMjYsInkiOjI4My41MTMxMTAyNTM3ODk3Nn0seyJ4Ijo4MTAuOTU5MDkxMTg2NTIzNCwieSI6MzI5LjQyMDMxNDc4ODgxODM2fSx7IngiOjg0Ni42MjMxNTM2ODY1MjM0LCJ5IjozMjkuNDIwMzE0Nzg4ODE4MzZ9XQ==" data-look="classic" marker-end="url(#g140ae78d-382c-4be2-81d2-c7f71de23f27-dark_flowchart-v2-pointEnd)"></path><path d="M1027.764,329.42L1034.231,329.42C1040.699,329.42,1053.634,329.42,1065.902,329.42C1078.17,329.42,1089.772,329.42,1095.572,329.42L1101.373,329.42" id="g140ae78d-382c-4be2-81d2-c7f71de23f27-dark-L_Resolve_AllResolved_0" class="edge-thickness-normal edge-pattern-solid edge-thickness-normal edge-pattern-solid flowchart-link" style=";" data-edge="true" data-et="edge" data-id="L_Resolve_AllResolved_0" data-points="W3sieCI6MTAyNy43NjM3Nzg2ODY1MjM0LCJ5IjozMjkuNDIwMzE0Nzg4ODE4MzZ9LHsieCI6MTA2Ni41Njg0NjYxODY1MjM0LCJ5IjozMjkuNDIwMzE0Nzg4ODE4MzZ9LHsieCI6MTEwNS4zNzMxNTM2ODY1MjMyLCJ5IjozMjkuNDIwMzE0Nzg4ODE4Mn1d" data-look="classic" marker-end="url(#g140ae78d-382c-4be2-81d2-c7f71de23f27-dark_flowchart-v2-pointEnd)"></path><path d="M1322.829,293.342L1335.266,288.393C1347.704,283.445,1372.579,273.549,1406.875,268.601C1441.171,263.653,1484.887,263.653,1528.122,263.653C1571.358,263.653,1614.113,263.653,1657.524,263.653C1700.935,263.653,1745.001,263.653,1791.256,263.653C1837.511,263.653,1885.954,263.653,1927.579,243.301C1969.205,222.949,2004.011,182.244,2021.414,161.892L2038.817,141.54" id="g140ae78d-382c-4be2-81d2-c7f71de23f27-dark-L_AllResolved_Reject_0" class="edge-thickness-normal edge-pattern-solid edge-thickness-normal edge-pattern-solid flowchart-link" style=";" data-edge="true" data-et="edge" data-id="L_AllResolved_Reject_0" data-points="W3sieCI6MTMyMi44Mjg3ODYzOTI5MDY3LCJ5IjoyOTMuMzQxNTY5NDQzNDQ0Mzd9LHsieCI6MTM5Ny40NTQ0MDY3MzgyODEyLCJ5IjoyNjMuNjUzMTI1NzYyOTM5NDV9LHsieCI6MTUyOC42MDI4NDQyMzgyODEyLCJ5IjoyNjMuNjUzMTI1NzYyOTM5NDV9LHsieCI6MTY1Ni44Njg0NjkyMzgyODEyLCJ5IjoyNjMuNjUzMTI1NzYyOTM5NDV9LHsieCI6MTc4OS4wNjY5MDk3OTAwMzksInkiOjI2My42NTMxMjU3NjI5Mzk0NX0seyJ4IjoxOTM0LjM5ODE2Mjg0MTc5NjksInkiOjI2My42NTMxMjU3NjI5Mzk0NX0seyJ4IjoyMDQxLjQxNjkwMzU1MTg3MTIsInkiOjEzOC41fV0=" data-look="classic" marker-end="url(#g140ae78d-382c-4be2-81d2-c7f71de23f27-dark_flowchart-v2-pointEnd)"></path><path d="M1322.829,365.499L1335.266,370.447C1347.704,375.395,1372.579,385.291,1390.775,390.239C1408.97,395.188,1420.486,395.188,1426.243,395.188L1432.001,395.188" id="g140ae78d-382c-4be2-81d2-c7f71de23f27-dark-L_AllResolved_Connect_0" class="edge-thickness-normal edge-pattern-solid edge-thickness-normal edge-pattern-solid flowchart-link" style=";" data-edge="true" data-et="edge" data-id="L_AllResolved_Connect_0" data-points="W3sieCI6MTMyMi44Mjg3ODYzOTI5MDc0LCJ5IjozNjUuNDk5MDYwMTM0MTkyM30seyJ4IjoxMzk3LjQ1NDQwNjczODI4MTIsInkiOjM5NS4xODc1MDM4MTQ2OTcyN30seyJ4IjoxNDM2LjAwMTI4MTczODI4MTIsInkiOjM5NS4xODc1MDM4MTQ2OTcyN31d" data-look="classic" marker-end="url(#g140ae78d-382c-4be2-81d2-c7f71de23f27-dark_flowchart-v2-pointEnd)"></path><path d="M1621.204,395.188L1627.148,395.188C1633.092,395.188,1644.98,395.188,1656.202,395.188C1667.423,395.188,1677.978,395.188,1683.255,395.188L1688.533,395.188" id="g140ae78d-382c-4be2-81d2-c7f71de23f27-dark-L_Connect_Recheck_0" class="edge-thickness-normal edge-pattern-solid edge-thickness-normal edge-pattern-solid flowchart-link" style=";" data-edge="true" data-et="edge" data-id="L_Connect_Recheck_0" data-points="W3sieCI6MTYyMS4yMDQ0MDY3MzgyODEyLCJ5IjozOTUuMTg3NTAzODE0Njk3Mjd9LHsieCI6MTY1Ni44Njg0NjkyMzgyODEyLCJ5IjozOTUuMTg3NTAzODE0Njk3Mjd9LHsieCI6MTY5Mi41MzI1MzE3MzgyODEsInkiOjM5NS4xODc1MDM4MTQ2OTY4fV0=" data-look="classic" marker-end="url(#g140ae78d-382c-4be2-81d2-c7f71de23f27-dark_flowchart-v2-pointEnd)"></path><path d="M1860.885,370.471L1873.137,366.254C1885.389,362.037,1909.894,353.604,1940.891,315.525C1971.888,277.447,2009.378,209.723,2028.122,175.861L2046.867,142" id="g140ae78d-382c-4be2-81d2-c7f71de23f27-dark-L_Recheck_Reject_0" class="edge-thickness-normal edge-pattern-solid edge-thickness-normal edge-pattern-solid flowchart-link" style=";" data-edge="true" data-et="edge" data-id="L_Recheck_Reject_0" data-points="W3sieCI6MTg2MC44ODQ1Mzk3NDIwNTIsInkiOjM3MC40NzA3NTU3MTQ5NTI5M30seyJ4IjoxOTM0LjM5ODE2Mjg0MTc5NjksInkiOjM0NS4xNzAzMTQ3ODg4MTgzNn0seyJ4IjoyMDQ4LjgwNDQ2OTE2MDk4MDMsInkiOjEzOC41fV0=" data-look="classic" marker-end="url(#g140ae78d-382c-4be2-81d2-c7f71de23f27-dark_flowchart-v2-pointEnd)"></path><path d="M1873.161,407.628L1883.367,409.138C1893.573,410.648,1913.986,413.668,1931.658,415.178C1949.33,416.688,1964.263,416.688,1971.729,416.688L1979.195,416.688" id="g140ae78d-382c-4be2-81d2-c7f71de23f27-dark-L_Recheck_Allow_0" class="edge-thickness-normal edge-pattern-solid edge-thickness-normal edge-pattern-solid flowchart-link" style=";" data-edge="true" data-et="edge" data-id="L_Recheck_Allow_0" data-points="W3sieCI6MTg3My4xNjA2Mzg0NDIxOTczLCJ5Ijo0MDcuNjI4MTUzMjE0Mjk3MjR9LHsieCI6MTkzNC4zOTgxNjI4NDE3OTY5LCJ5Ijo0MTYuNjg3NTAzODE0Njk3Mjd9LHsieCI6MTk4My4xOTUwMzc4NDE3OTY5LCJ5Ijo0MTYuNjg3NTAzODE0Njk3Mjd9XQ==" data-look="classic" marker-end="url(#g140ae78d-382c-4be2-81d2-c7f71de23f27-dark_flowchart-v2-pointEnd)"></path></g><g class="edgeLabels"><g class="edgeLabel"><g class="label" data-id="L_Start_Parse_0" transform="translate(0, 0)"><text y="-10.1" text-anchor="middle"><tspan class="text-outer-tspan row" x="0" y="-0.1em" dy="1.1em" text-anchor="middle"></tspan></text></g></g><g><rect class="background" style="stroke: none"></rect></g><g class="edgeLabel" transform="translate(1066.5684661865234, 19.5)"><g class="label" data-id="L_Parse_Reject_0" transform="translate(0, -10.5)"><g><rect class="background" style="" x="-13.8046875" y="-1" width="27.609375" height="23"></rect><text y="-10.1" text-anchor="middle" style=""><tspan class="text-outer-tspan row" x="0" y="-0.1em" dy="1.1em" text-anchor="middle"><tspan font-style="normal" class="text-inner-tspan" font-weight="normal">fail</tspan></tspan></text></g></g></g><g class="edgeLabel" transform="translate(338.79502868652344, 186.6382827758789)"><g class="label" data-id="L_Parse_Scheme_0" transform="translate(0, -10.5)"><g><rect class="background" style="" x="-10.328125" y="-1" width="20.65625" height="23"></rect><text y="-10.1" text-anchor="middle" style=""><tspan class="text-outer-tspan row" x="0" y="-0.1em" dy="1.1em" text-anchor="middle"><tspan font-style="normal" class="text-inner-tspan" font-weight="normal">ok</tspan></tspan></text></g></g></g><g class="edgeLabel" transform="translate(1232.1403427124023, 89.37109375)"><g class="label" data-id="L_Scheme_Reject_0" transform="translate(0, -10.5)"><g><rect class="background" style="" x="-10.6640625" y="-1" width="21.328125" height="23"></rect><text y="-10.1" text-anchor="middle" style=""><tspan class="text-outer-tspan row" x="0" y="-0.1em" dy="1.1em" text-anchor="middle"><tspan font-style="normal" class="text-inner-tspan" font-weight="normal">no</tspan></tspan></text></g></g></g><g class="edgeLabel" transform="translate(559.1544036865234, 248.5367202758789)"><g class="label" data-id="L_Scheme_HostList_0" transform="translate(0, -10.5)"><g><rect class="background" style="" x="-13.546875" y="-1" width="27.09375" height="23"></rect><text y="-10.1" text-anchor="middle" style=""><tspan class="text-outer-tspan row" x="0" y="-0.1em" dy="1.1em" text-anchor="middle"><tspan font-style="normal" class="text-inner-tspan" font-weight="normal">yes</tspan></tspan></text></g></g></g><g class="edgeLabel" transform="translate(1397.4544067382812, 167.01953125)"><g class="label" data-id="L_HostList_Reject_0" transform="translate(0, -10.5)"><g><rect class="background" style="" x="-13.546875" y="-1" width="27.09375" height="23"></rect><text y="-10.1" text-anchor="middle" style=""><tspan class="text-outer-tspan row" x="0" y="-0.1em" dy="1.1em" text-anchor="middle"><tspan font-style="normal" class="text-inner-tspan" font-weight="normal">yes</tspan></tspan></text></g></g></g><g class="edgeLabel" transform="translate(810.9590911865234, 329.42031478881836)"><g class="label" data-id="L_HostList_Resolve_0" transform="translate(0, -10.5)"><g><rect class="background" style="" x="-10.6640625" y="-1" width="21.328125" height="23"></rect><text y="-10.1" text-anchor="middle" style=""><tspan class="text-outer-tspan row" x="0" y="-0.1em" dy="1.1em" text-anchor="middle"><tspan font-style="normal" class="text-inner-tspan" font-weight="normal">no</tspan></tspan></text></g></g></g><g class="edgeLabel"><g class="label" data-id="L_Resolve_AllResolved_0" transform="translate(0, 0)"><text y="-10.1" text-anchor="middle"><tspan class="text-outer-tspan row" x="0" y="-0.1em" dy="1.1em" text-anchor="middle"></tspan></text></g></g><g><rect class="background" style="stroke: none"></rect></g><g class="edgeLabel" transform="translate(1656.8684692382812, 263.65312576293945)"><g class="label" data-id="L_AllResolved_Reject_0" transform="translate(0, -10.5)"><g><rect class="background" style="" x="-10.6640625" y="-1" width="21.328125" height="23"></rect><text y="-10.1" text-anchor="middle" style=""><tspan class="text-outer-tspan row" x="0" y="-0.1em" dy="1.1em" text-anchor="middle"><tspan font-style="normal" class="text-inner-tspan" font-weight="normal">no</tspan></tspan></text></g></g></g><g class="edgeLabel" transform="translate(1397.4544067382812, 395.18750381469727)"><g class="label" data-id="L_AllResolved_Connect_0" transform="translate(0, -10.5)"><g><rect class="background" style="" x="-13.546875" y="-1" width="27.09375" height="23"></rect><text y="-10.1" text-anchor="middle" style=""><tspan class="text-outer-tspan row" x="0" y="-0.1em" dy="1.1em" text-anchor="middle"><tspan font-style="normal" class="text-inner-tspan" font-weight="normal">yes</tspan></tspan></text></g></g></g><g class="edgeLabel"><g class="label" data-id="L_Connect_Recheck_0" transform="translate(0, 0)"><text y="-10.1" text-anchor="middle"><tspan class="text-outer-tspan row" x="0" y="-0.1em" dy="1.1em" text-anchor="middle"></tspan></text></g></g><g><rect class="background" style="stroke: none"></rect></g><g class="edgeLabel" transform="translate(1972.77468, 275.8447)"><g class="label" data-id="L_Recheck_Reject_0" transform="translate(0, -10.5)"><g><rect class="background" style="" x="-17.9765625" y="-1" width="35.953125" height="23"></rect><text y="-10.1" text-anchor="middle" style=""><tspan class="text-outer-tspan row" x="0" y="-0.1em" dy="1.1em" text-anchor="middle"><tspan font-style="normal" class="text-inner-tspan" font-weight="normal">drift</tspan></tspan></text></g></g></g><g class="edgeLabel" transform="translate(1934.3981628417969, 416.68750381469727)"><g class="label" data-id="L_Recheck_Allow_0" transform="translate(0, -10.5)"><g><rect class="background" style="" x="-23.796875" y="-1" width="47.59375" height="23"></rect><text y="-10.1" text-anchor="middle" style=""><tspan class="text-outer-tspan row" x="0" y="-0.1em" dy="1.1em" text-anchor="middle"><tspan font-style="normal" class="text-inner-tspan" font-weight="normal">stable</tspan></tspan></text></g></g></g></g><g class="nodes"><g class="node default" id="g140ae78d-382c-4be2-81d2-c7f71de23f27-dark-flowchart-Start-0" data-look="classic" transform="translate(70.92876434326172, 132.5171890258789)"><g class="basic label-container outer-path"><path d="M-45.9375 -17 C-22.00397524776532 -17, 1.9295495044693567 -17, 45.9375 -17 C45.9375 -17, 45.9375 -17, 45.9375 -17 C46.22792987904755 -16.99068647906641, 46.51835975809511 -16.98137295813282, 47.02669373967212 -16.965071676755716 C47.45846468022501 -16.923419253401107, 47.89023562077791 -16.8817668300465, 48.1114117486366 -16.860430234995185 C48.415824104130245 -16.81121520611205, 48.72023645962389 -16.76200017722891, 49.187196687923326 -16.686505668848113 C49.45612444624653 -16.62512466292847, 49.72505220456972 -16.56374365700883, 50.24962792646162 -16.4440126716635 C50.636429872910384 -16.329211884322355, 51.023231819359154 -16.214411096981213, 51.29433970640155 -16.133947699181366 C51.688975697236394 -15.988718006579033, 52.08361168807124 -15.843488313976701, 52.31703908294936 -15.757584874882369 C52.568247051973906 -15.64638255881484, 52.819455020998454 -15.53518024274731, 53.31352356499849 -15.316470754341125 C53.68821701669746 -15.120993420592383, 54.06291046839643 -14.92551608684364, 54.27969838406694 -14.812417970097622 C54.48670253179963 -14.686930839250662, 54.693706679532326 -14.561443708403704, 55.211593320579325 -14.247497783161291 C55.42004557951545 -14.1020905110803, 55.62849783845159 -13.956683238999307, 56.105379018350675 -13.624031571755262 C56.44060981646264 -13.35669393112716, 56.775840614574605 -13.089356290499058, 56.9573827202324 -12.944581292275288 C57.25938039979774 -12.67031499011479, 57.561378079363074 -12.396048687954291, 57.76410336025927 -12.21193895166137 C58.04318114251719 -11.923768228768022, 58.32225892477511 -11.635597505874673, 58.52222595028036 -11.42911513444239 C58.72874418193171 -11.186527068324432, 58.93526241358306 -10.943939002206477, 59.22863520195651 -10.59932663159847 C59.40755560227852 -10.35958959515076, 59.58647600260054 -10.119852558703052, 59.88042832814825 -9.725983222076888 C60.08840384530412 -9.406476978479477, 60.296379362459994 -9.086970734882065, 60.47492697109088 -8.812673661278927 C60.62131102246262 -8.55275395507586, 60.76769507383435 -8.292834248872794, 61.009688208341004 -7.863150934094199 C61.13922364162949 -7.594167835256386, 61.26875907491798 -7.325184736418573, 61.48251459126881 -6.881316833080699 C61.61892702407546 -6.544375486693303, 61.75533945688211 -6.207434140305908, 61.891463174845924 -5.871205925162238 C62.018364810255825 -5.488998418337429, 62.145266445665726 -5.106790911512621, 62.234853501623235 -4.836968972727556 C62.33242302733467 -4.464894084289899, 62.42999255304611 -4.092819195852241, 62.511274507091 -3.7828558772573464 C62.5539309937383 -3.5638238337751127, 62.596587480385594 -3.344791790292879, 62.71959031804565 -2.713198215567453 C62.755514419653466 -2.434577977513458, 62.791438521261284 -2.1559577394594633, 62.858944920136366 -1.632391440430593 C62.87555709881057 -1.3736433484706008, 62.892169277484776 -1.1148952565106087, 62.9287656754117 -0.5448768187181379 C62.9287656754117 -0.2520070215539816, 62.9287656754117 0.040862775610174706, 62.9287656754117 0.5448768187181336 C62.90769415000304 0.8730828355871502, 62.88662262459438 1.2012888524561667, 62.858944920136366 1.6323914404305815 C62.818960809962626 1.9425003031824781, 62.77897669978889 2.2526091659343748, 62.719590318045654 2.7131982155674415 C62.666555844767636 2.985519027010163, 62.61352137148962 3.257839838452884, 62.511274507091 3.782855877257343 C62.44875137996262 4.021283658692559, 62.38622825283424 4.259711440127775, 62.234853501623235 4.836968972727545 C62.15213714822684 5.086097450096313, 62.06942079483045 5.33522592746508, 61.891463174845924 5.871205925162227 C61.7481892940022 6.22509518085827, 61.60491541315848 6.578984436554313, 61.48251459126881 6.881316833080694 C61.36428477717353 7.126823571762311, 61.24605496307825 7.372330310443927, 61.009688208341004 7.863150934094196 C60.85169659020173 8.143681050486618, 60.693704972062456 8.424211166879042, 60.47492697109089 8.812673661278923 C60.32679759912235 9.040240154928457, 60.178668227153814 9.26780664857799, 59.880428328148255 9.725983222076879 C59.67958082440657 9.995100579506726, 59.47873332066489 10.264217936936573, 59.22863520195651 10.599326631598467 C58.96492642558745 10.909093965776028, 58.70121764921839 11.218861299953588, 58.52222595028037 11.42911513444238 C58.239512349077756 11.72104013890241, 57.95679874787513 12.012965143362438, 57.76410336025927 12.211938951661365 C57.50919805115376 12.443437208966097, 57.25429274204824 12.67493546627083, 56.95738272023242 12.944581292275275 C56.701079947475876 13.14897593304539, 56.444777174719334 13.353370573815505, 56.105379018350675 13.62403157175526 C55.80963465338634 13.830330038187164, 55.513890288422004 14.036628504619065, 55.21159332057934 14.247497783161286 C54.932365843074926 14.41676712094726, 54.65313836557051 14.586036458733233, 54.27969838406695 14.81241797009762 C53.99747196500546 14.95965531214735, 53.715245545943965 15.106892654197079, 53.31352356499849 15.316470754341124 C53.11266065965266 15.405386804151338, 52.91179775430683 15.494302853961551, 52.317039082949364 15.757584874882367 C52.03982799480404 15.859601117831053, 51.76261690665872 15.96161736077974, 51.29433970640156 16.133947699181363 C51.01126188029933 16.217963712062673, 50.7281840541971 16.301979724943987, 50.24962792646164 16.444012671663497 C50.002916629379655 16.50032291528079, 49.756205332297675 16.55663315889808, 49.18719668792333 16.68650566884811 C48.76247654316387 16.755171128098905, 48.337756398404416 16.8238365873497, 48.11141174863661 16.86043023499518 C47.71450460537916 16.89871938975455, 47.31759746212171 16.93700854451392, 47.02669373967212 16.965071676755716 C46.7929776995223 16.972566495262647, 46.55926165937248 16.980061313769575, 45.9375 17 C45.9375 17, 45.9375 17, 45.9375 17 C16.603082759874905 17, -12.73133448025019 17, -45.9375 17 C-46.21448220514262 16.991117719794232, -46.491464410285246 16.982235439588464, -47.02669373967211 16.965071676755716 C-47.410124933352314 16.928082530644865, -47.79355612703252 16.891093384534013, -48.111411748636606 16.86043023499518 C-48.52329617935078 16.79383995444878, -48.935180610064954 16.727249673902378, -49.187196687923326 16.68650566884811 C-49.59495716793821 16.593437000170518, -50.0027176479531 16.500368331492925, -50.24962792646162 16.4440126716635 C-50.569193756182784 16.349167210837532, -50.88875958590394 16.25432175001156, -51.294339706401544 16.13394769918137 C-51.58516175948526 16.026922495316974, -51.87598381256898 15.919897291452576, -52.317039082949364 15.757584874882369 C-52.64484935399898 15.612472992034897, -52.972659625048585 15.467361109187426, -53.31352356499848 15.316470754341127 C-53.625744277763395 15.153585408478582, -53.937964990528315 14.990700062616037, -54.27969838406693 14.812417970097624 C-54.57966155748573 14.630578531591878, -54.879624730904524 14.448739093086134, -55.21159332057932 14.247497783161299 C-55.41482531008137 14.105731945055696, -55.61805729958343 13.963966106950094, -56.10537901835067 13.624031571755264 C-56.405647033996104 13.384575819745503, -56.70591504964155 13.145120067735743, -56.9573827202324 12.94458129227529 C-57.27206012437321 12.658799599742476, -57.586737528514014 12.373017907209665, -57.76410336025926 12.211938951661377 C-57.98623231263377 11.982572571208545, -58.20836126500828 11.753206190755712, -58.522225950280365 11.429115134442386 C-58.74175315367986 11.171245989877601, -58.96128035707935 10.913376845312817, -59.22863520195651 10.599326631598473 C-59.40845425899452 10.358385477020642, -59.58827331603253 10.11744432244281, -59.88042832814825 9.72598322207689 C-60.09955339439135 9.389348277008354, -60.31867846063446 9.052713331939817, -60.47492697109088 8.812673661278936 C-60.61590630069468 8.562350585862262, -60.756885630298484 8.312027510445587, -61.009688208341004 7.863150934094201 C-61.171441669581206 7.527266410859283, -61.33319513082141 7.191381887624365, -61.48251459126881 6.881316833080701 C-61.64471238551239 6.48068514541803, -61.80691017975598 6.0800534577553575, -61.891463174845924 5.87120592516224 C-61.96655648731607 5.645036832496707, -62.04164979978621 5.418867739831175, -62.234853501623235 4.8369689727275516 C-62.29270438114271 4.616358496389998, -62.35055526066219 4.395748020052445, -62.511274507091 3.782855877257349 C-62.59235627166587 3.3665181528023975, -62.67343803624074 2.9501804283474455, -62.71959031804565 2.713198215567455 C-62.764877615484295 2.3619588796217097, -62.81016491292294 2.0107195436759637, -62.858944920136366 1.6323914404306026 C-62.88361264230356 1.2481717562496706, -62.90828036447075 0.8639520720687388, -62.9287656754117 0.54487681871814 C-62.9287656754117 0.1261026254460058, -62.9287656754117 -0.29267156782612835, -62.9287656754117 -0.5448768187181317 C-62.909720738803166 -0.841517079192122, -62.890675802194636 -1.1381573396661124, -62.858944920136366 -1.6323914404305793 C-62.82014165302247 -1.9333419175942081, -62.78133838590857 -2.234292394757837, -62.719590318045654 -2.713198215567447 C-62.64516117190171 -3.0953761504109907, -62.57073202575776 -3.4775540852545346, -62.511274507091 -3.782855877257341 C-62.43805489530864 -4.062073990563987, -62.36483528352627 -4.341292103870633, -62.234853501623235 -4.836968972727544 C-62.13573343239377 -5.135502828608347, -62.0366133631643 -5.434036684489151, -61.89146317484593 -5.871205925162218 C-61.78590709154714 -6.131931491698279, -61.68035100824834 -6.39265705823434, -61.48251459126881 -6.881316833080692 C-61.33377964626542 -7.190168128798242, -61.18504470126203 -7.499019424515792, -61.009688208341004 -7.863150934094194 C-60.81109749909778 -8.215768847845457, -60.61250678985454 -8.56838676159672, -60.47492697109088 -8.812673661278929 C-60.34403668683055 -9.01375628686544, -60.21314640257022 -9.214838912451953, -59.88042832814825 -9.725983222076884 C-59.6978120027175 -9.970672461464595, -59.51519567728675 -10.215361700852306, -59.22863520195651 -10.599326631598467 C-59.02363085097792 -10.84013640733594, -58.81862649999934 -11.080946183073413, -58.52222595028037 -11.42911513444238 C-58.23757295802968 -11.72304271938651, -57.95291996577899 -12.016970304330641, -57.76410336025928 -12.21193895166136 C-57.51237059286658 -12.440555990523368, -57.26063782547388 -12.669173029385377, -56.95738272023242 -12.944581292275274 C-56.73622395141 -13.12094952512915, -56.51506518258757 -13.297317757983027, -56.105379018350675 -13.624031571755259 C-55.859682801356065 -13.79541861671289, -55.61398658436145 -13.966805661670522, -55.21159332057934 -14.247497783161284 C-54.909828025767084 -14.430429678246188, -54.60806273095483 -14.613361573331092, -54.27969838406695 -14.812417970097618 C-53.92411492870681 -14.997925630996932, -53.56853147334666 -15.183433291896243, -53.31352356499849 -15.316470754341124 C-53.111562858120124 -15.405872768324667, -52.90960215124176 -15.495274782308208, -52.31703908294937 -15.757584874882365 C-52.00648832396967 -15.871870424886643, -51.69593756498997 -15.986155974890922, -51.294339706401566 -16.133947699181363 C-50.942505912113006 -16.238370122512933, -50.590672117824454 -16.342792545844503, -50.24962792646164 -16.444012671663494 C-50.02243488208983 -16.495868001468192, -49.795241837718024 -16.547723331272888, -49.18719668792333 -16.68650566884811 C-48.757380067190624 -16.755995086810497, -48.327563446457916 -16.825484504772884, -48.11141174863661 -16.86043023499518 C-47.72535408266852 -16.897672753728852, -47.33929641670042 -16.93491527246252, -47.02669373967212 -16.965071676755716 C-46.73386706822557 -16.97446205815647, -46.44104039677903 -16.98385243955722, -45.93750000000001 -17 C-45.93750000000001 -17, -45.9375 -17, -45.9375 -17" stroke="none" stroke-width="0" fill="#2d2d2d" style=""></path><path d="M-45.9375 -17 C-15.95884568298693 -17, 14.019808634026141 -17, 45.9375 -17 M-45.9375 -17 C-25.871605628379882 -17, -5.805711256759764 -17, 45.9375 -17 M45.9375 -17 C45.9375 -17, 45.9375 -17, 45.9375 -17 M45.9375 -17 C45.9375 -17, 45.9375 -17, 45.9375 -17 M45.9375 -17 C46.28202415641664 -16.988951780879308, 46.626548312833286 -16.977903561758612, 47.02669373967212 -16.965071676755716 M45.9375 -17 C46.16235439127215 -16.992789357324423, 46.387208782544306 -16.98557871464885, 47.02669373967212 -16.965071676755716 M47.02669373967212 -16.965071676755716 C47.27641580344953 -16.940981289597833, 47.52613786722694 -16.91689090243995, 48.1114117486366 -16.860430234995185 M47.02669373967212 -16.965071676755716 C47.28696441352227 -16.939963677870676, 47.54723508737242 -16.91485567898563, 48.1114117486366 -16.860430234995185 M48.1114117486366 -16.860430234995185 C48.475673728099586 -16.80153918304945, 48.839935707562574 -16.742648131103717, 49.187196687923326 -16.686505668848113 M48.1114117486366 -16.860430234995185 C48.51089986757364 -16.795844094002078, 48.910387986510685 -16.731257953008967, 49.187196687923326 -16.686505668848113 M49.187196687923326 -16.686505668848113 C49.49678386240882 -16.615844416516914, 49.80637103689432 -16.545183164185715, 50.24962792646162 -16.4440126716635 M49.187196687923326 -16.686505668848113 C49.47686703955959 -16.620390301362836, 49.76653739119586 -16.554274933877554, 50.24962792646162 -16.4440126716635 M50.24962792646162 -16.4440126716635 C50.56189726832312 -16.35133277013423, 50.87416661018462 -16.258652868604962, 51.29433970640155 -16.133947699181366 M50.24962792646162 -16.4440126716635 C50.64933609166768 -16.325381386341316, 51.049044256873735 -16.206750101019132, 51.29433970640155 -16.133947699181366 M51.29433970640155 -16.133947699181366 C51.64866841674579 -16.00355145839599, 52.00299712709004 -15.873155217610615, 52.31703908294936 -15.757584874882369 M51.29433970640155 -16.133947699181366 C51.62647919578753 -16.01171729682354, 51.95861868517352 -15.889486894465715, 52.31703908294936 -15.757584874882369 M52.31703908294936 -15.757584874882369 C52.60633340886444 -15.629522858411036, 52.89562773477952 -15.501460841939705, 53.31352356499849 -15.316470754341125 M52.31703908294936 -15.757584874882369 C52.551450725170746 -15.653817794445265, 52.78586236739214 -15.550050714008162, 53.31352356499849 -15.316470754341125 M53.31352356499849 -15.316470754341125 C53.629834720136685 -15.151451427312495, 53.94614587527487 -14.986432100283864, 54.27969838406694 -14.812417970097622 M53.31352356499849 -15.316470754341125 C53.606288853339606 -15.16373529093868, 53.89905414168073 -15.010999827536235, 54.27969838406694 -14.812417970097622 M54.27969838406694 -14.812417970097622 C54.49043236077386 -14.684669795007578, 54.70116633748078 -14.556921619917533, 55.211593320579325 -14.247497783161291 M54.27969838406694 -14.812417970097622 C54.629510355624824 -14.600359897215906, 54.97932232718271 -14.388301824334189, 55.211593320579325 -14.247497783161291 M55.211593320579325 -14.247497783161291 C55.55953992085544 -14.004785297174235, 55.90748652113156 -13.762072811187181, 56.105379018350675 -13.624031571755262 M55.211593320579325 -14.247497783161291 C55.493006801348045 -14.05119592117027, 55.77442028211677 -13.854894059179252, 56.105379018350675 -13.624031571755262 M56.105379018350675 -13.624031571755262 C56.439506078724285 -13.357574132601801, 56.7736331390979 -13.09111669344834, 56.9573827202324 -12.944581292275288 M56.105379018350675 -13.624031571755262 C56.40361681869538 -13.386194862421531, 56.7018546190401 -13.148358153087802, 56.9573827202324 -12.944581292275288 M56.9573827202324 -12.944581292275288 C57.24707943176904 -12.681486403812679, 57.536776143305666 -12.418391515350068, 57.76410336025927 -12.21193895166137 M56.9573827202324 -12.944581292275288 C57.20832089538261 -12.716685881064151, 57.45925907053282 -12.488790469853013, 57.76410336025927 -12.21193895166137 M57.76410336025927 -12.21193895166137 C58.01989576184377 -11.947812296078638, 58.27568816342827 -11.683685640495904, 58.52222595028036 -11.42911513444239 M57.76410336025927 -12.21193895166137 C58.066944041085065 -11.899231085026436, 58.36978472191086 -11.586523218391502, 58.52222595028036 -11.42911513444239 M58.52222595028036 -11.42911513444239 C58.73241209626691 -11.182218527436065, 58.94259824225347 -10.935321920429741, 59.22863520195651 -10.59932663159847 M58.52222595028036 -11.42911513444239 C58.73054583307931 -11.18441074636961, 58.938865715878265 -10.939706358296828, 59.22863520195651 -10.59932663159847 M59.22863520195651 -10.59932663159847 C59.39882040862893 -10.371293958848709, 59.56900561530134 -10.143261286098946, 59.88042832814825 -9.725983222076888 M59.22863520195651 -10.59932663159847 C59.40024366343591 -10.369386927068529, 59.57185212491532 -10.139447222538587, 59.88042832814825 -9.725983222076888 M59.88042832814825 -9.725983222076888 C60.01284793859174 -9.522551140791462, 60.14526754903523 -9.319119059506034, 60.47492697109088 -8.812673661278927 M59.88042832814825 -9.725983222076888 C60.02439853313572 -9.504806325802987, 60.168368738123185 -9.283629429529084, 60.47492697109088 -8.812673661278927 M60.47492697109088 -8.812673661278927 C60.62018627302609 -8.554751061593633, 60.76544557496131 -8.29682846190834, 61.009688208341004 -7.863150934094199 M60.47492697109088 -8.812673661278927 C60.61373913833355 -8.566198602083434, 60.75255130557621 -8.31972354288794, 61.009688208341004 -7.863150934094199 M61.009688208341004 -7.863150934094199 C61.177443474831854 -7.514803533838251, 61.345198741322704 -7.166456133582301, 61.48251459126881 -6.881316833080699 M61.009688208341004 -7.863150934094199 C61.18100984936446 -7.507397880813103, 61.35233149038792 -7.1516448275320075, 61.48251459126881 -6.881316833080699 M61.48251459126881 -6.881316833080699 C61.64586630772651 -6.477834935239596, 61.809218024184204 -6.074353037398493, 61.891463174845924 -5.871205925162238 M61.48251459126881 -6.881316833080699 C61.634818594243846 -6.505123001134775, 61.78712259721889 -6.128929169188852, 61.891463174845924 -5.871205925162238 M61.891463174845924 -5.871205925162238 C61.96471273361226 -5.650589924890322, 62.03796229237859 -5.429973924618406, 62.234853501623235 -4.836968972727556 M61.891463174845924 -5.871205925162238 C62.01164226346585 -5.509245658176448, 62.13182135208578 -5.147285391190659, 62.234853501623235 -4.836968972727556 M62.234853501623235 -4.836968972727556 C62.34363131805801 -4.422152014057895, 62.45240913449278 -4.007335055388233, 62.511274507091 -3.7828558772573464 M62.234853501623235 -4.836968972727556 C62.32108579156108 -4.508127877883674, 62.40731808149893 -4.179286783039792, 62.511274507091 -3.7828558772573464 M62.511274507091 -3.7828558772573464 C62.55997677456323 -3.5327800270153293, 62.608679042035455 -3.2827041767733127, 62.71959031804565 -2.713198215567453 M62.511274507091 -3.7828558772573464 C62.57320261258494 -3.46486814405567, 62.63513071807889 -3.1468804108539943, 62.71959031804565 -2.713198215567453 M62.71959031804565 -2.713198215567453 C62.74777408951608 -2.494610449557947, 62.775957860986516 -2.276022683548441, 62.858944920136366 -1.632391440430593 M62.71959031804565 -2.713198215567453 C62.7752847032347 -2.281243562141446, 62.83097908842376 -1.849288908715439, 62.858944920136366 -1.632391440430593 M62.858944920136366 -1.632391440430593 C62.88596611608151 -1.211514502468174, 62.91298731202666 -0.790637564505755, 62.9287656754117 -0.5448768187181379 M62.858944920136366 -1.632391440430593 C62.88383524034632 -1.2447046120556648, 62.908725560556285 -0.8570177836807366, 62.9287656754117 -0.5448768187181379 M62.9287656754117 -0.5448768187181379 C62.9287656754117 -0.3099753538996727, 62.9287656754117 -0.07507388908120743, 62.9287656754117 0.5448768187181336 M62.9287656754117 -0.5448768187181379 C62.9287656754117 -0.2668447255986511, 62.9287656754117 0.011187367520835712, 62.9287656754117 0.5448768187181336 M62.9287656754117 0.5448768187181336 C62.90842647050471 0.8616763526551169, 62.888087265597726 1.1784758865921001, 62.858944920136366 1.6323914404305815 M62.9287656754117 0.5448768187181336 C62.90458239476955 0.9215509351124, 62.88039911412739 1.2982250515066664, 62.858944920136366 1.6323914404305815 M62.858944920136366 1.6323914404305815 C62.81742786469675 1.9543895239503577, 62.775910809257134 2.276387607470134, 62.719590318045654 2.7131982155674415 M62.858944920136366 1.6323914404305815 C62.82343574188993 1.9077936148295742, 62.787926563643495 2.183195789228567, 62.719590318045654 2.7131982155674415 M62.719590318045654 2.7131982155674415 C62.652571331144095 3.0573265488390495, 62.58555234424254 3.4014548821106576, 62.511274507091 3.782855877257343 M62.719590318045654 2.7131982155674415 C62.66454163122131 2.995861587866374, 62.60949294439696 3.2785249601653064, 62.511274507091 3.782855877257343 M62.511274507091 3.782855877257343 C62.446753806165496 4.028901273334978, 62.38223310523998 4.274946669412613, 62.234853501623235 4.836968972727545 M62.511274507091 3.782855877257343 C62.408445223278676 4.174988502927263, 62.30561593946635 4.567121128597183, 62.234853501623235 4.836968972727545 M62.234853501623235 4.836968972727545 C62.11717823423701 5.191388129087156, 61.999502966850784 5.545807285446767, 61.891463174845924 5.871205925162227 M62.234853501623235 4.836968972727545 C62.13497620787185 5.137783468221006, 62.035098914120475 5.438597963714467, 61.891463174845924 5.871205925162227 M61.891463174845924 5.871205925162227 C61.764655069386414 6.184424397315143, 61.63784696392691 6.497642869468061, 61.48251459126881 6.881316833080694 M61.891463174845924 5.871205925162227 C61.75262384830155 6.214141746002588, 61.61378452175719 6.557077566842951, 61.48251459126881 6.881316833080694 M61.48251459126881 6.881316833080694 C61.3136261542114 7.232017286264078, 61.14473771715398 7.582717739447462, 61.009688208341004 7.863150934094196 M61.48251459126881 6.881316833080694 C61.37983453109806 7.094534175026588, 61.277154470927314 7.307751516972482, 61.009688208341004 7.863150934094196 M61.009688208341004 7.863150934094196 C60.82868062788421 8.184548222200277, 60.647673047427425 8.50594551030636, 60.47492697109089 8.812673661278923 M61.009688208341004 7.863150934094196 C60.80922033211406 8.219101947908817, 60.608752455887114 8.575052961723438, 60.47492697109089 8.812673661278923 M60.47492697109089 8.812673661278923 C60.32483072493583 9.043261801858625, 60.17473447878077 9.273849942438327, 59.880428328148255 9.725983222076879 M60.47492697109089 8.812673661278923 C60.25460777146798 9.151143115888543, 60.03428857184508 9.489612570498162, 59.880428328148255 9.725983222076879 M59.880428328148255 9.725983222076879 C59.71397766330989 9.949011948992768, 59.547526998471525 10.172040675908656, 59.22863520195651 10.599326631598467 M59.880428328148255 9.725983222076879 C59.68889507816106 9.982620328021689, 59.49736182817386 10.239257433966499, 59.22863520195651 10.599326631598467 M59.22863520195651 10.599326631598467 C59.03664826131388 10.824845416443697, 58.84466132067125 11.050364201288927, 58.52222595028037 11.42911513444238 M59.22863520195651 10.599326631598467 C59.070971801163886 10.78452703347113, 58.913308400371264 10.969727435343795, 58.52222595028037 11.42911513444238 M58.52222595028037 11.42911513444238 C58.31062764203014 11.647607760254935, 58.09902933377991 11.86610038606749, 57.76410336025927 12.211938951661365 M58.52222595028037 11.42911513444238 C58.27454976817497 11.68486112705893, 58.02687358606956 11.94060711967548, 57.76410336025927 12.211938951661365 M57.76410336025927 12.211938951661365 C57.504774735138156 12.447454347536942, 57.245446110017035 12.682969743412517, 56.95738272023242 12.944581292275275 M57.76410336025927 12.211938951661365 C57.529947817642785 12.424592820049496, 57.29579227502631 12.637246688437626, 56.95738272023242 12.944581292275275 M56.95738272023242 12.944581292275275 C56.65314200765416 13.187205164371056, 56.348901295075905 13.429829036466835, 56.105379018350675 13.62403157175526 M56.95738272023242 12.944581292275275 C56.741237787159065 13.11695112454304, 56.52509285408572 13.289320956810803, 56.105379018350675 13.62403157175526 M56.105379018350675 13.62403157175526 C55.78241912348048 13.849314413708191, 55.459459228610285 14.07459725566112, 55.21159332057934 14.247497783161286 M56.105379018350675 13.62403157175526 C55.822385920927225 13.821435305944117, 55.539392823503775 14.018839040132976, 55.21159332057934 14.247497783161286 M55.21159332057934 14.247497783161286 C54.88962188901103 14.442678757092148, 54.567650457442724 14.63785973102301, 54.27969838406695 14.81241797009762 M55.21159332057934 14.247497783161286 C54.94707297096158 14.407851573593696, 54.68255262134381 14.568205364026104, 54.27969838406695 14.81241797009762 M54.27969838406695 14.81241797009762 C54.08430823404217 14.914352886212182, 53.88891808401739 15.016287802326744, 53.31352356499849 15.316470754341124 M54.27969838406695 14.81241797009762 C54.074879590794424 14.919271803355196, 53.8700607975219 15.026125636612774, 53.31352356499849 15.316470754341124 M53.31352356499849 15.316470754341124 C53.045545863325955 15.435096533595472, 52.77756816165343 15.55372231284982, 52.317039082949364 15.757584874882367 M53.31352356499849 15.316470754341124 C52.98117681697304 15.463590800975991, 52.64883006894758 15.61071084761086, 52.317039082949364 15.757584874882367 M52.317039082949364 15.757584874882367 C52.040261685729284 15.85944151556157, 51.7634842885092 15.961298156240774, 51.29433970640156 16.133947699181363 M52.317039082949364 15.757584874882367 C52.02533268549378 15.864935525650399, 51.7336262880382 15.972286176418432, 51.29433970640156 16.133947699181363 M51.29433970640156 16.133947699181363 C51.05226363241285 16.205794607257967, 50.810187558424154 16.277641515334572, 50.24962792646164 16.444012671663497 M51.29433970640156 16.133947699181363 C50.89484044132096 16.252516984042852, 50.49534117624035 16.371086268904342, 50.24962792646164 16.444012671663497 M50.24962792646164 16.444012671663497 C49.90132322424333 16.52351094704423, 49.55301852202502 16.603009222424966, 49.18719668792333 16.68650566884811 M50.24962792646164 16.444012671663497 C49.84481817306206 16.536407856246438, 49.440008419662476 16.628803040829375, 49.18719668792333 16.68650566884811 M49.18719668792333 16.68650566884811 C48.78576467909649 16.75140608288351, 48.38433267026965 16.81630649691891, 48.11141174863661 16.86043023499518 M49.18719668792333 16.68650566884811 C48.7712736319672 16.753748883003624, 48.35535057601106 16.82099209715914, 48.11141174863661 16.86043023499518 M48.11141174863661 16.86043023499518 C47.72975110408082 16.8972485783614, 47.348090459525025 16.934066921727613, 47.02669373967212 16.965071676755716 M48.11141174863661 16.86043023499518 C47.76712406477207 16.893643253791076, 47.42283638090752 16.926856272586967, 47.02669373967212 16.965071676755716 M47.02669373967212 16.965071676755716 C46.641675672144466 16.977418456789124, 46.25665760461682 16.989765236822528, 45.9375 17 M47.02669373967212 16.965071676755716 C46.677021348072635 16.97628498975829, 46.32734895647315 16.987498302760866, 45.9375 17 M45.9375 17 C45.9375 17, 45.9375 17, 45.9375 17 M45.9375 17 C45.9375 17, 45.9375 17, 45.9375 17 M45.9375 17 C12.684403320418639 17, -20.568693359162722 17, -45.9375 17 M45.9375 17 C14.720835649927054 17, -16.495828700145893 17, -45.9375 17 M-45.9375 17 C-46.31669185881795 16.987840055139888, -46.695883717635894 16.97568011027977, -47.02669373967211 16.965071676755716 M-45.9375 17 C-46.26589180957193 16.989469113842908, -46.594283619143866 16.978938227685816, -47.02669373967211 16.965071676755716 M-47.02669373967211 16.965071676755716 C-47.45792761980443 16.92347106297397, -47.88916149993674 16.881870449192228, -48.111411748636606 16.86043023499518 M-47.02669373967211 16.965071676755716 C-47.34663904723968 16.934206937725204, -47.666584354807235 16.903342198694688, -48.111411748636606 16.86043023499518 M-48.111411748636606 16.86043023499518 C-48.52095370947156 16.794218666812725, -48.93049567030653 16.728007098630272, -49.187196687923326 16.68650566884811 M-48.111411748636606 16.86043023499518 C-48.36490852090385 16.819446842751844, -48.618405293171094 16.778463450508504, -49.187196687923326 16.68650566884811 M-49.187196687923326 16.68650566884811 C-49.593630832820544 16.59373972750598, -50.00006497771776 16.50097378616385, -50.24962792646162 16.4440126716635 M-49.187196687923326 16.68650566884811 C-49.50662670449165 16.61359785204205, -49.826056721059985 16.540690035235993, -50.24962792646162 16.4440126716635 M-50.24962792646162 16.4440126716635 C-50.62241221489517 16.333372251641084, -50.99519650332873 16.222731831618667, -51.294339706401544 16.13394769918137 M-50.24962792646162 16.4440126716635 C-50.63551599268439 16.329483119176377, -51.02140405890716 16.214953566689253, -51.294339706401544 16.13394769918137 M-51.294339706401544 16.13394769918137 C-51.625915891534596 16.01192459799575, -51.957492076667656 15.889901496810129, -52.317039082949364 15.757584874882369 M-51.294339706401544 16.13394769918137 C-51.59926940693822 16.021730750644622, -51.9041991074749 15.90951380210787, -52.317039082949364 15.757584874882369 M-52.317039082949364 15.757584874882369 C-52.598834953149975 15.632842202322045, -52.88063082335059 15.50809952976172, -53.31352356499848 15.316470754341127 M-52.317039082949364 15.757584874882369 C-52.5375910629798 15.659953055764928, -52.75814304301024 15.562321236647486, -53.31352356499848 15.316470754341127 M-53.31352356499848 15.316470754341127 C-53.571705634861075 15.18177733386732, -53.829887704723674 15.047083913393513, -54.27969838406693 14.812417970097624 M-53.31352356499848 15.316470754341127 C-53.622683779704666 15.155182068355481, -53.93184399441084 14.993893382369835, -54.27969838406693 14.812417970097624 M-54.27969838406693 14.812417970097624 C-54.59885856245811 14.618941194363494, -54.9180187408493 14.425464418629366, -55.21159332057932 14.247497783161299 M-54.27969838406693 14.812417970097624 C-54.598243717361775 14.619313917074125, -54.916789050656625 14.426209864050627, -55.21159332057932 14.247497783161299 M-55.21159332057932 14.247497783161299 C-55.43907925578538 14.088813442468966, -55.66656519099144 13.930129101776634, -56.10537901835067 13.624031571755264 M-55.21159332057932 14.247497783161299 C-55.41501001610244 14.105603102131191, -55.618426711625574 13.963708421101082, -56.10537901835067 13.624031571755264 M-56.10537901835067 13.624031571755264 C-56.37769061402658 13.406870320719623, -56.650002209702485 13.189709069683984, -56.9573827202324 12.94458129227529 M-56.10537901835067 13.624031571755264 C-56.331433238919 13.443759346407468, -56.55748745948733 13.263487121059674, -56.9573827202324 12.94458129227529 M-56.9573827202324 12.94458129227529 C-57.24828887758953 12.680388017118686, -57.539195034946665 12.416194741962082, -57.76410336025926 12.211938951661377 M-56.9573827202324 12.94458129227529 C-57.1352221227224 12.783072252306617, -57.3130615252124 12.621563212337943, -57.76410336025926 12.211938951661377 M-57.76410336025926 12.211938951661377 C-58.064108146132064 11.90215937939672, -58.364112932004865 11.59237980713206, -58.522225950280365 11.429115134442386 M-57.76410336025926 12.211938951661377 C-58.02519375386973 11.942341684338599, -58.2862841474802 11.67274441701582, -58.522225950280365 11.429115134442386 M-58.522225950280365 11.429115134442386 C-58.79248060317862 11.111658641222713, -59.06273525607687 10.794202148003041, -59.22863520195651 10.599326631598473 M-58.522225950280365 11.429115134442386 C-58.775575583420306 11.131516239353695, -59.02892521656025 10.833917344265005, -59.22863520195651 10.599326631598473 M-59.22863520195651 10.599326631598473 C-59.47007538353346 10.275818783938385, -59.711515565110425 9.952310936278298, -59.88042832814825 9.72598322207689 M-59.22863520195651 10.599326631598473 C-59.4310996866553 10.328042666996096, -59.63356417135409 10.056758702393719, -59.88042832814825 9.72598322207689 M-59.88042832814825 9.72598322207689 C-60.05919917545742 9.451343193915928, -60.23797002276659 9.176703165754969, -60.47492697109088 8.812673661278936 M-59.88042832814825 9.72598322207689 C-60.015608558083066 9.518310087922652, -60.15078878801789 9.310636953768414, -60.47492697109088 8.812673661278936 M-60.47492697109088 8.812673661278936 C-60.6662377844117 8.472981939907308, -60.857548597732524 8.133290218535683, -61.009688208341004 7.863150934094201 M-60.47492697109088 8.812673661278936 C-60.68158725061663 8.44572740835846, -60.88824753014238 8.078781155437984, -61.009688208341004 7.863150934094201 M-61.009688208341004 7.863150934094201 C-61.18401603439914 7.5011554732665395, -61.358343860457275 7.139160012438877, -61.48251459126881 6.881316833080701 M-61.009688208341004 7.863150934094201 C-61.1738414098605 7.522283298823113, -61.33799461138 7.181415663552024, -61.48251459126881 6.881316833080701 M-61.48251459126881 6.881316833080701 C-61.594967725406136 6.60355541762807, -61.707420859543454 6.325794002175439, -61.891463174845924 5.87120592516224 M-61.48251459126881 6.881316833080701 C-61.56699739696251 6.672642669653322, -61.65148020265622 6.463968506225942, -61.891463174845924 5.87120592516224 M-61.891463174845924 5.87120592516224 C-62.00897165308482 5.517289111140136, -62.12648013132372 5.163372297118032, -62.234853501623235 4.8369689727275516 M-61.891463174845924 5.87120592516224 C-61.99393138072407 5.562588015148736, -62.096399586602224 5.253970105135234, -62.234853501623235 4.8369689727275516 M-62.234853501623235 4.8369689727275516 C-62.30951557256823 4.552250137468048, -62.384177643513226 4.267531302208544, -62.511274507091 3.782855877257349 M-62.234853501623235 4.8369689727275516 C-62.343152274940365 4.423978813084062, -62.451451048257496 4.010988653440573, -62.511274507091 3.782855877257349 M-62.511274507091 3.782855877257349 C-62.5817333796569 3.4210644581194405, -62.6521922522228 3.059273038981532, -62.71959031804565 2.713198215567455 M-62.511274507091 3.782855877257349 C-62.58466629256892 3.4060045701875987, -62.658058078046835 3.0291532631178484, -62.71959031804565 2.713198215567455 M-62.71959031804565 2.713198215567455 C-62.74846639615069 2.4892410560113447, -62.77734247425573 2.2652838964552338, -62.858944920136366 1.6323914404306026 M-62.71959031804565 2.713198215567455 C-62.74966061402964 2.4799789379671973, -62.77973091001363 2.2467596603669397, -62.858944920136366 1.6323914404306026 M-62.858944920136366 1.6323914404306026 C-62.883440566324396 1.2508519785224081, -62.90793621251242 0.8693125166142138, -62.9287656754117 0.54487681871814 M-62.858944920136366 1.6323914404306026 C-62.886557063588974 1.2023100180352173, -62.91416920704158 0.7722285956398319, -62.9287656754117 0.54487681871814 M-62.9287656754117 0.54487681871814 C-62.9287656754117 0.2785718294784066, -62.9287656754117 0.012266840238673193, -62.9287656754117 -0.5448768187181317 M-62.9287656754117 0.54487681871814 C-62.9287656754117 0.32023618471021653, -62.9287656754117 0.09559555070229314, -62.9287656754117 -0.5448768187181317 M-62.9287656754117 -0.5448768187181317 C-62.909967906679604 -0.8376672400063068, -62.891170137947505 -1.1304576612944819, -62.858944920136366 -1.6323914404305793 M-62.9287656754117 -0.5448768187181317 C-62.906360482332346 -0.8938557860753165, -62.883955289252995 -1.242834753432501, -62.858944920136366 -1.6323914404305793 M-62.858944920136366 -1.6323914404305793 C-62.81423956853461 -1.979117319383635, -62.769534216932854 -2.325843198336691, -62.719590318045654 -2.713198215567447 M-62.858944920136366 -1.6323914404305793 C-62.804312586050386 -2.056109035226862, -62.749680251964406 -2.479826630023145, -62.719590318045654 -2.713198215567447 M-62.719590318045654 -2.713198215567447 C-62.63687701735503 -3.137913533151509, -62.554163716664405 -3.5626288507355706, -62.511274507091 -3.782855877257341 M-62.719590318045654 -2.713198215567447 C-62.66325169064471 -3.0024851600981965, -62.60691306324376 -3.2917721046289463, -62.511274507091 -3.782855877257341 M-62.511274507091 -3.782855877257341 C-62.408960192326084 -4.17302470276051, -62.30664587756116 -4.563193528263678, -62.234853501623235 -4.836968972727544 M-62.511274507091 -3.782855877257341 C-62.42686761550787 -4.104735937042057, -62.34246072392473 -4.426615996826773, -62.234853501623235 -4.836968972727544 M-62.234853501623235 -4.836968972727544 C-62.13558636420872 -5.135945774549588, -62.0363192267942 -5.4349225763716325, -61.89146317484593 -5.871205925162218 M-62.234853501623235 -4.836968972727544 C-62.11035895824411 -5.211926701873693, -61.985864414864984 -5.586884431019842, -61.89146317484593 -5.871205925162218 M-61.89146317484593 -5.871205925162218 C-61.75851357226614 -6.199594013940014, -61.62556396968634 -6.52798210271781, -61.48251459126881 -6.881316833080692 M-61.89146317484593 -5.871205925162218 C-61.735329348323106 -6.256859495315776, -61.57919552180028 -6.642513065469335, -61.48251459126881 -6.881316833080692 M-61.48251459126881 -6.881316833080692 C-61.33600369224596 -7.185549849732692, -61.18949279322311 -7.489782866384691, -61.009688208341004 -7.863150934094194 M-61.48251459126881 -6.881316833080692 C-61.32788323561407 -7.202412151678749, -61.17325187995933 -7.523507470276807, -61.009688208341004 -7.863150934094194 M-61.009688208341004 -7.863150934094194 C-60.856209933837015 -8.135667151836566, -60.702731659333026 -8.40818336957894, -60.47492697109088 -8.812673661278929 M-61.009688208341004 -7.863150934094194 C-60.90105879948975 -8.056033449430027, -60.7924293906385 -8.24891596476586, -60.47492697109088 -8.812673661278929 M-60.47492697109088 -8.812673661278929 C-60.31627772507577 -9.056401506445715, -60.15762847906066 -9.300129351612503, -59.88042832814825 -9.725983222076884 M-60.47492697109088 -8.812673661278929 C-60.30556607434836 -9.072857478443982, -60.136205177605845 -9.333041295609036, -59.88042832814825 -9.725983222076884 M-59.88042832814825 -9.725983222076884 C-59.74591299142087 -9.906221518692286, -59.611397654693505 -10.08645981530769, -59.22863520195651 -10.599326631598467 M-59.88042832814825 -9.725983222076884 C-59.67477293916364 -10.001542707724902, -59.46911755017902 -10.277102193372917, -59.22863520195651 -10.599326631598467 M-59.22863520195651 -10.599326631598467 C-58.9566483323576 -10.918817885120658, -58.68466146275869 -11.238309138642848, -58.52222595028037 -11.42911513444238 M-59.22863520195651 -10.599326631598467 C-59.014789333432255 -10.850522156941684, -58.800943464908 -11.101717682284901, -58.52222595028037 -11.42911513444238 M-58.52222595028037 -11.42911513444238 C-58.31078508381019 -11.647445188690828, -58.099344217340004 -11.865775242939273, -57.76410336025928 -12.21193895166136 M-58.52222595028037 -11.42911513444238 C-58.282857545611485 -11.676282664774517, -58.04348914094259 -11.923450195106655, -57.76410336025928 -12.21193895166136 M-57.76410336025928 -12.21193895166136 C-57.5169178701149 -12.436426273640803, -57.26973237997053 -12.660913595620247, -56.95738272023242 -12.944581292275274 M-57.76410336025928 -12.21193895166136 C-57.47107992398745 -12.478055083508156, -57.17805648771563 -12.744171215354955, -56.95738272023242 -12.944581292275274 M-56.95738272023242 -12.944581292275274 C-56.76890617159251 -13.094886324243998, -56.58042962295261 -13.245191356212723, -56.105379018350675 -13.624031571755259 M-56.95738272023242 -12.944581292275274 C-56.64491340318213 -13.193767257465137, -56.332444086131844 -13.442953222655, -56.105379018350675 -13.624031571755259 M-56.105379018350675 -13.624031571755259 C-55.85122101334666 -13.801321193723352, -55.59706300834264 -13.978610815691445, -55.21159332057934 -14.247497783161284 M-56.105379018350675 -13.624031571755259 C-55.9059388318758 -13.763152412213607, -55.706498645400934 -13.902273252671955, -55.21159332057934 -14.247497783161284 M-55.21159332057934 -14.247497783161284 C-54.94120962460246 -14.411405968613439, -54.670825928625575 -14.575314154065593, -54.27969838406695 -14.812417970097618 M-55.21159332057934 -14.247497783161284 C-54.91327755620651 -14.428338552622115, -54.614961791833686 -14.609179322082946, -54.27969838406695 -14.812417970097618 M-54.27969838406695 -14.812417970097618 C-53.91306081646243 -15.003692554274322, -53.54642324885793 -15.194967138451023, -53.31352356499849 -15.316470754341124 M-54.27969838406695 -14.812417970097618 C-53.97616191235092 -14.970772752967482, -53.67262544063489 -15.129127535837345, -53.31352356499849 -15.316470754341124 M-53.31352356499849 -15.316470754341124 C-53.01275456822091 -15.449612267219267, -52.711985571443336 -15.582753780097411, -52.31703908294937 -15.757584874882365 M-53.31352356499849 -15.316470754341124 C-53.06089799845313 -15.428300598779582, -52.80827243190776 -15.540130443218041, -52.31703908294937 -15.757584874882365 M-52.31703908294937 -15.757584874882365 C-51.91347456637078 -15.906100347492783, -51.50991004979219 -16.0546158201032, -51.294339706401566 -16.133947699181363 M-52.31703908294937 -15.757584874882365 C-52.02342395378291 -15.865637956564125, -51.72980882461644 -15.973691038245887, -51.294339706401566 -16.133947699181363 M-51.294339706401566 -16.133947699181363 C-50.97313416700844 -16.22927981723096, -50.651928627615305 -16.324611935280558, -50.24962792646164 -16.444012671663494 M-51.294339706401566 -16.133947699181363 C-50.95242027384399 -16.235427591992725, -50.61050084128641 -16.336907484804087, -50.24962792646164 -16.444012671663494 M-50.24962792646164 -16.444012671663494 C-49.84016405132867 -16.537470129161097, -49.43070017619571 -16.6309275866587, -49.18719668792333 -16.68650566884811 M-50.24962792646164 -16.444012671663494 C-49.84969062896538 -16.53529574998225, -49.44975333146911 -16.626578828301003, -49.18719668792333 -16.68650566884811 M-49.18719668792333 -16.68650566884811 C-48.84748660649971 -16.741427360321655, -48.50777652507608 -16.796349051795197, -48.11141174863661 -16.86043023499518 M-49.18719668792333 -16.68650566884811 C-48.89571160231432 -16.733630716988774, -48.60422651670531 -16.78075576512944, -48.11141174863661 -16.86043023499518 M-48.11141174863661 -16.86043023499518 C-47.69500745032315 -16.90060025685404, -47.278603152009694 -16.940770278712904, -47.02669373967212 -16.965071676755716 M-48.11141174863661 -16.86043023499518 C-47.74928640164792 -16.89536403169973, -47.38716105465924 -16.93029782840428, -47.02669373967212 -16.965071676755716 M-47.02669373967212 -16.965071676755716 C-46.653176767739296 -16.97704963903892, -46.27965979580648 -16.989027601322125, -45.93750000000001 -17 M-47.02669373967212 -16.965071676755716 C-46.603910132691404 -16.97862952413322, -46.18112652571069 -16.992187371510724, -45.93750000000001 -17 M-45.93750000000001 -17 C-45.93750000000001 -17, -45.9375 -17, -45.9375 -17 M-45.93750000000001 -17 C-45.93750000000001 -17, -45.9375 -17, -45.9375 -17" stroke="#555555" stroke-width="1.3" fill="none" stroke-dasharray="0 0" style=""></path></g><g class="label" style="" transform="translate(0, -9.5)"><rect></rect><g><rect class="background" style="stroke: none"></rect><text y="-10.1" style=""><tspan class="text-outer-tspan row" x="0" y="-0.1em" dy="1.1em"><tspan font-style="normal" class="text-inner-tspan" font-weight="normal">Outbound</tspan><tspan font-style="normal" class="text-inner-tspan" font-weight="normal"> URL</tspan></tspan></text></g></g></g><g class="node default" id="g140ae78d-382c-4be2-81d2-c7f71de23f27-dark-flowchart-Parse-1" data-look="classic" transform="translate(243.66221618652344, 132.5171890258789)"><polygon points="59.8046875,0 119.609375,-59.8046875 59.8046875,-119.609375 0,-59.8046875" class="label-container" transform="translate(-59.3046875, 59.8046875)"></polygon><g class="label" style="" transform="translate(0, -9.5)"><rect></rect><g><rect class="background" style="stroke: none"></rect><text y="-10.1" style=""><tspan class="text-outer-tspan row" x="0" y="-0.1em" dy="1.1em"><tspan font-style="normal" class="text-inner-tspan" font-weight="normal">Parse</tspan><tspan font-style="normal" class="text-inner-tspan" font-weight="normal"> URL</tspan></tspan></text></g></g></g><g class="node default reject" id="g140ae78d-382c-4be2-81d2-c7f71de23f27-dark-flowchart-Reject-3" data-look="classic" transform="translate(2062.366912841797, 114)"><rect class="basic label-container" style="fill:#B43A3A !important;stroke:#8E2828 !important" x="-53.125" y="-24.5" width="106.25" height="49"></rect><g class="label" style="color:#fff !important" transform="translate(0, -9.5)"><rect></rect><g><rect class="background" style="stroke: none"></rect><text y="-10.1" style="fill:#404040 !important"><tspan class="text-outer-tspan row" x="0" y="-0.1em" dy="1.1em"><tspan font-style="normal" class="text-inner-tspan" font-weight="normal">Reject</tspan></tspan></text></g></g></g><g class="node default" id="g140ae78d-382c-4be2-81d2-c7f71de23f27-dark-flowchart-Scheme-5" data-look="classic" transform="translate(447.36534118652344, 186.6382827758789)"><polygon points="73.2421875,0 146.484375,-73.2421875 73.2421875,-146.484375 0,-73.2421875" class="label-container" transform="translate(-72.7421875, 73.2421875)"></polygon><g class="label" style="" transform="translate(0, -9.5)"><rect></rect><g><rect class="background" style="stroke: none"></rect><text y="-10.1" style=""><tspan class="text-outer-tspan row" x="0" y="-0.1em" dy="1.1em"><tspan font-style="normal" class="text-inner-tspan" font-weight="normal">http</tspan><tspan font-style="normal" class="text-inner-tspan" font-weight="normal"> or</tspan><tspan font-style="normal" class="text-inner-tspan" font-weight="normal"> https?</tspan></tspan></text></g></g></g><g class="node default" id="g140ae78d-382c-4be2-81d2-c7f71de23f27-dark-flowchart-HostList-9" data-look="classic" transform="translate(686.4981536865234, 248.5367202758789)"><polygon points="88.796875,0 177.59375,-88.796875 88.796875,-177.59375 0,-88.796875" class="label-container" transform="translate(-88.296875, 88.796875)"></polygon><g class="label" style="" transform="translate(0, -9.5)"><rect></rect><g><rect class="background" style="stroke: none"></rect><text y="-10.1" style=""><tspan class="text-outer-tspan row" x="0" y="-0.1em" dy="1.1em"><tspan font-style="normal" class="text-inner-tspan" font-weight="normal">hostname</tspan><tspan font-style="normal" class="text-inner-tspan" font-weight="normal"> denied?</tspan></tspan></text></g></g></g><g class="node default" id="g140ae78d-382c-4be2-81d2-c7f71de23f27-dark-flowchart-Resolve-13" data-look="classic" transform="translate(937.1934661865234, 329.42031478881836)"><rect class="basic label-container" style="" x="-90.5703125" y="-24.5" width="181.140625" height="49"></rect><g class="label" style="" transform="translate(0, -9.5)"><rect></rect><g><rect class="background" style="stroke: none"></rect><text y="-10.1" style=""><tspan class="text-outer-tspan row" x="0" y="-0.1em" dy="1.1em"><tspan font-style="normal" class="text-inner-tspan" font-weight="normal">Resolve</tspan><tspan font-style="normal" class="text-inner-tspan" font-weight="normal"> A</tspan><tspan font-style="normal" class="text-inner-tspan" font-weight="normal"> /</tspan><tspan font-style="normal" class="text-inner-tspan" font-weight="normal"> AAAA</tspan></tspan></text></g></g></g><g class="node default" id="g140ae78d-382c-4be2-81d2-c7f71de23f27-dark-flowchart-AllResolved-15" data-look="classic" transform="translate(1232.1403427124023, 329.42031478881836)"><polygon points="126.7671890258789,0 253.5343780517578,-126.7671890258789 126.7671890258789,-253.5343780517578 0,-126.7671890258789" class="label-container" transform="translate(-126.2671890258789, 126.7671890258789)"></polygon><g class="label" style="" transform="translate(0, -35.900001525878906)"><rect></rect><g><rect class="background" style="stroke: none"></rect><text y="-10.1" style=""><tspan class="text-outer-tspan row" x="0" y="-0.1em" dy="1.1em"><tspan font-style="normal" class="text-inner-tspan" font-weight="normal">all</tspan><tspan font-style="normal" class="text-inner-tspan" font-weight="normal"> IPs</tspan><tspan font-style="normal" class="text-inner-tspan" font-weight="normal"> public?</tspan></tspan><tspan class="text-outer-tspan row" x="0" y="1em" dy="1.1em"><tspan font-style="normal" class="text-inner-tspan" font-weight="normal">(no</tspan><tspan font-style="normal" class="text-inner-tspan" font-weight="normal"> RFC</tspan><tspan font-style="normal" class="text-inner-tspan" font-weight="normal"> 1918,</tspan></tspan><tspan class="text-outer-tspan row" x="0" y="2.1em" dy="1.1em"><tspan font-style="normal" class="text-inner-tspan" font-weight="normal">link-local,</tspan><tspan font-style="normal" class="text-inner-tspan" font-weight="normal"> metadata,</tspan></tspan><tspan class="text-outer-tspan row" x="0" y="3.2em" dy="1.1em"><tspan font-style="normal" class="text-inner-tspan" font-weight="normal">loopback)</tspan></tspan></text></g></g></g><g class="node default" id="g140ae78d-382c-4be2-81d2-c7f71de23f27-dark-flowchart-Connect-19" data-look="classic" transform="translate(1528.6028442382812, 395.18750381469727)"><rect class="basic label-container" style="" x="-92.6015625" y="-33.29999923706055" width="185.203125" height="66.5999984741211"></rect><g class="label" style="" transform="translate(0, -18.299999237060547)"><rect></rect><g><rect class="background" style="stroke: none"></rect><text y="-10.1" style=""><tspan class="text-outer-tspan row" x="0" y="-0.1em" dy="1.1em"><tspan font-style="normal" class="text-inner-tspan" font-weight="normal">Open</tspan><tspan font-style="normal" class="text-inner-tspan" font-weight="normal"> TCP</tspan><tspan font-style="normal" class="text-inner-tspan" font-weight="normal"> socket</tspan></tspan><tspan class="text-outer-tspan row" x="0" y="1em" dy="1.1em"><tspan font-style="normal" class="text-inner-tspan" font-weight="normal">pin</tspan><tspan font-style="normal" class="text-inner-tspan" font-weight="normal"> to</tspan><tspan font-style="normal" class="text-inner-tspan" font-weight="normal"> resolved</tspan><tspan font-style="normal" class="text-inner-tspan" font-weight="normal"> IP</tspan></tspan></text></g></g></g><g class="node default" id="g140ae78d-382c-4be2-81d2-c7f71de23f27-dark-flowchart-Recheck-21" data-look="classic" transform="translate(1789.066909790039, 395.18750381469727)"><polygon points="96.53437423706055,0 193.0687484741211,-96.53437423706055 96.53437423706055,-193.0687484741211 0,-96.53437423706055" class="label-container" transform="translate(-96.03437423706055, 96.53437423706055)"></polygon><g class="label" style="" transform="translate(0, -18.299999237060547)"><rect></rect><g><rect class="background" style="stroke: none"></rect><text y="-10.1" style=""><tspan class="text-outer-tspan row" x="0" y="-0.1em" dy="1.1em"><tspan font-style="normal" class="text-inner-tspan" font-weight="normal">Re-resolve</tspan><tspan font-style="normal" class="text-inner-tspan" font-weight="normal"> before</tspan></tspan><tspan class="text-outer-tspan row" x="0" y="1em" dy="1.1em"><tspan font-style="normal" class="text-inner-tspan" font-weight="normal">reconnect?</tspan></tspan></text></g></g></g><g class="node default allow" id="g140ae78d-382c-4be2-81d2-c7f71de23f27-dark-flowchart-Allow-25" data-look="classic" transform="translate(2062.366912841797, 416.68750381469727)"><rect class="basic label-container" style="fill:#2D7A2D !important;stroke:#1E5A1E !important" x="-79.171875" y="-24.5" width="158.34375" height="49"></rect><g class="label" style="color:#fff !important" transform="translate(0, -9.5)"><rect></rect><g><rect class="background" style="stroke: none"></rect><text y="-10.1" style="fill:#404040 !important"><tspan class="text-outer-tspan row" x="0" y="-0.1em" dy="1.1em"><tspan font-style="normal" class="text-inner-tspan" font-weight="normal">Allow</tspan><tspan font-style="normal" class="text-inner-tspan" font-weight="normal"> request</tspan></tspan></text></g></g></g></g></g></g><defs><filter id="g140ae78d-382c-4be2-81d2-c7f71de23f27-dark-drop-shadow" height="130%" width="130%"><feDropShadow dx="4" dy="4" stdDeviation="0" flood-opacity="0.06" flood-color="#000000"></feDropShadow></filter></defs><defs><filter id="g140ae78d-382c-4be2-81d2-c7f71de23f27-dark-drop-shadow-small" height="150%" width="150%"><feDropShadow dx="2" dy="2" stdDeviation="0" flood-opacity="0.06" flood-color="#000000"></feDropShadow></filter></defs><linearGradient id="g140ae78d-382c-4be2-81d2-c7f71de23f27-dark-gradient" gradientUnits="objectBoundingBox" x1="0%" y1="0%" x2="100%" y2="0%"><stop offset="0%" stop-color="#555555" stop-opacity="1"></stop><stop offset="100%" stop-color="#555555" stop-opacity="1"></stop></linearGradient></svg>