<svg id="ga37760d0-8e0e-4042-9082-0ad9c603210f-dark" width="100%" xmlns="http://www.w3.org/2000/svg" xmlns:xlink="http://www.w3.org/1999/xlink" class="flowchart" style="max-width: 680.703125px;" viewBox="0 0 680.703125 965.3999633789062" role="graphics-document document" aria-roledescription="flowchart-v2"><style>#ga37760d0-8e0e-4042-9082-0ad9c603210f-dark{font-family:"trebuchet ms",verdana,arial,sans-serif;font-size:16px;fill:#e5e5e5;}@keyframes edge-animation-frame{from{stroke-dashoffset:0;}}@keyframes dash{to{stroke-dashoffset:0;}}#ga37760d0-8e0e-4042-9082-0ad9c603210f-dark .edge-animation-slow{stroke-dasharray:9,5!important;stroke-dashoffset:900;animation:dash 50s linear infinite;stroke-linecap:round;}#ga37760d0-8e0e-4042-9082-0ad9c603210f-dark .edge-animation-fast{stroke-dasharray:9,5!important;stroke-dashoffset:900;animation:dash 20s linear infinite;stroke-linecap:round;}#ga37760d0-8e0e-4042-9082-0ad9c603210f-dark .error-icon{fill:#252525;}#ga37760d0-8e0e-4042-9082-0ad9c603210f-dark .error-text{fill:#cccccc;stroke:#cccccc;}#ga37760d0-8e0e-4042-9082-0ad9c603210f-dark .edge-thickness-normal{stroke-width:1px;}#ga37760d0-8e0e-4042-9082-0ad9c603210f-dark .edge-thickness-thick{stroke-width:3.5px;}#ga37760d0-8e0e-4042-9082-0ad9c603210f-dark .edge-pattern-solid{stroke-dasharray:0;}#ga37760d0-8e0e-4042-9082-0ad9c603210f-dark .edge-thickness-invisible{stroke-width:0;fill:none;}#ga37760d0-8e0e-4042-9082-0ad9c603210f-dark .edge-pattern-dashed{stroke-dasharray:3;}#ga37760d0-8e0e-4042-9082-0ad9c603210f-dark .edge-pattern-dotted{stroke-dasharray:2;}#ga37760d0-8e0e-4042-9082-0ad9c603210f-dark .marker{fill:#cccccc;stroke:#cccccc;}#ga37760d0-8e0e-4042-9082-0ad9c603210f-dark .marker.cross{stroke:#cccccc;}#ga37760d0-8e0e-4042-9082-0ad9c603210f-dark svg{font-family:"trebuchet ms",verdana,arial,sans-serif;font-size:16px;}#ga37760d0-8e0e-4042-9082-0ad9c603210f-dark p{margin:0;}#ga37760d0-8e0e-4042-9082-0ad9c603210f-dark .label{font-family:"trebuchet ms",verdana,arial,sans-serif;color:#e5e5e5;}#ga37760d0-8e0e-4042-9082-0ad9c603210f-dark .cluster-label text{fill:#e5e5e5;}#ga37760d0-8e0e-4042-9082-0ad9c603210f-dark .cluster-label span{color:#e5e5e5;}#ga37760d0-8e0e-4042-9082-0ad9c603210f-dark .cluster-label span p{background-color:transparent;}#ga37760d0-8e0e-4042-9082-0ad9c603210f-dark .label text,#ga37760d0-8e0e-4042-9082-0ad9c603210f-dark span{fill:#e5e5e5;color:#e5e5e5;}#ga37760d0-8e0e-4042-9082-0ad9c603210f-dark .node rect,#ga37760d0-8e0e-4042-9082-0ad9c603210f-dark .node circle,#ga37760d0-8e0e-4042-9082-0ad9c603210f-dark .node ellipse,#ga37760d0-8e0e-4042-9082-0ad9c603210f-dark .node polygon,#ga37760d0-8e0e-4042-9082-0ad9c603210f-dark .node path{fill:#2d2d2d;stroke:#555555;stroke-width:1px;}#ga37760d0-8e0e-4042-9082-0ad9c603210f-dark .rough-node .label text,#ga37760d0-8e0e-4042-9082-0ad9c603210f-dark .node .label text,#ga37760d0-8e0e-4042-9082-0ad9c603210f-dark .image-shape .label,#ga37760d0-8e0e-4042-9082-0ad9c603210f-dark .icon-shape .label{text-anchor:middle;}#ga37760d0-8e0e-4042-9082-0ad9c603210f-dark .node .katex path{fill:#000;stroke:#000;stroke-width:1px;}#ga37760d0-8e0e-4042-9082-0ad9c603210f-dark .rough-node .label,#ga37760d0-8e0e-4042-9082-0ad9c603210f-dark .node .label,#ga37760d0-8e0e-4042-9082-0ad9c603210f-dark .image-shape .label,#ga37760d0-8e0e-4042-9082-0ad9c603210f-dark .icon-shape .label{text-align:center;}#ga37760d0-8e0e-4042-9082-0ad9c603210f-dark .node.clickable{cursor:pointer;}#ga37760d0-8e0e-4042-9082-0ad9c603210f-dark .root .anchor path{fill:#cccccc!important;stroke-width:0;stroke:#cccccc;}#ga37760d0-8e0e-4042-9082-0ad9c603210f-dark .arrowheadPath{fill:#cccccc;}#ga37760d0-8e0e-4042-9082-0ad9c603210f-dark .edgePath .path{stroke:#cccccc;stroke-width:1px;}#ga37760d0-8e0e-4042-9082-0ad9c603210f-dark .flowchart-link{stroke:#cccccc;fill:none;}#ga37760d0-8e0e-4042-9082-0ad9c603210f-dark .edgeLabel{background-color:#1e1e1e;text-align:center;}#ga37760d0-8e0e-4042-9082-0ad9c603210f-dark .edgeLabel p{background-color:#1e1e1e;}#ga37760d0-8e0e-4042-9082-0ad9c603210f-dark .edgeLabel rect{opacity:0.5;background-color:#1e1e1e;fill:#1e1e1e;}#ga37760d0-8e0e-4042-9082-0ad9c603210f-dark .labelBkg{background-color:rgba(30, 30, 30, 0.5);}#ga37760d0-8e0e-4042-9082-0ad9c603210f-dark .cluster rect{fill:#1e1e1e;stroke:#555555;stroke-width:1px;}#ga37760d0-8e0e-4042-9082-0ad9c603210f-dark .cluster text{fill:#e5e5e5;}#ga37760d0-8e0e-4042-9082-0ad9c603210f-dark .cluster span{color:#e5e5e5;}#ga37760d0-8e0e-4042-9082-0ad9c603210f-dark div.mermaidTooltip{position:absolute;text-align:center;max-width:200px;padding:2px;font-family:"trebuchet ms",verdana,arial,sans-serif;font-size:12px;background:#252525;border:1px solid #555555;border-radius:2px;pointer-events:none;z-index:100;}#ga37760d0-8e0e-4042-9082-0ad9c603210f-dark .flowchartTitleText{text-anchor:middle;font-size:18px;fill:#e5e5e5;}#ga37760d0-8e0e-4042-9082-0ad9c603210f-dark rect.text{fill:none;stroke-width:0;}#ga37760d0-8e0e-4042-9082-0ad9c603210f-dark .icon-shape,#ga37760d0-8e0e-4042-9082-0ad9c603210f-dark .image-shape{background-color:#1e1e1e;text-align:center;}#ga37760d0-8e0e-4042-9082-0ad9c603210f-dark .icon-shape p,#ga37760d0-8e0e-4042-9082-0ad9c603210f-dark .image-shape p{background-color:#1e1e1e;padding:2px;}#ga37760d0-8e0e-4042-9082-0ad9c603210f-dark .icon-shape .label rect,#ga37760d0-8e0e-4042-9082-0ad9c603210f-dark .image-shape .label rect{opacity:0.5;background-color:#1e1e1e;fill:#1e1e1e;}#ga37760d0-8e0e-4042-9082-0ad9c603210f-dark .label-icon{display:inline-block;height:1em;overflow:visible;vertical-align:-0.125em;}#ga37760d0-8e0e-4042-9082-0ad9c603210f-dark .node .label-icon path{fill:currentColor;stroke:revert;stroke-width:revert;}#ga37760d0-8e0e-4042-9082-0ad9c603210f-dark .node .neo-node{stroke:#555555;}#ga37760d0-8e0e-4042-9082-0ad9c603210f-dark [data-look="neo"].node rect,#ga37760d0-8e0e-4042-9082-0ad9c603210f-dark [data-look="neo"].cluster rect,#ga37760d0-8e0e-4042-9082-0ad9c603210f-dark [data-look="neo"].node polygon{stroke:url(#ga37760d0-8e0e-4042-9082-0ad9c603210f-dark-gradient);filter:drop-shadow( 1px 2px 2px rgba(185,185,185,1));}#ga37760d0-8e0e-4042-9082-0ad9c603210f-dark [data-look="neo"].node path{stroke:url(#ga37760d0-8e0e-4042-9082-0ad9c603210f-dark-gradient);stroke-width:1px;}#ga37760d0-8e0e-4042-9082-0ad9c603210f-dark [data-look="neo"].node .outer-path{filter:drop-shadow( 1px 2px 2px rgba(185,185,185,1));}#ga37760d0-8e0e-4042-9082-0ad9c603210f-dark [data-look="neo"].node .neo-line path{stroke:#555555;filter:none;}#ga37760d0-8e0e-4042-9082-0ad9c603210f-dark [data-look="neo"].node circle{stroke:url(#ga37760d0-8e0e-4042-9082-0ad9c603210f-dark-gradient);filter:drop-shadow( 1px 2px 2px rgba(185,185,185,1));}#ga37760d0-8e0e-4042-9082-0ad9c603210f-dark [data-look="neo"].node circle .state-start{fill:#000000;}#ga37760d0-8e0e-4042-9082-0ad9c603210f-dark [data-look="neo"].icon-shape .icon{fill:url(#ga37760d0-8e0e-4042-9082-0ad9c603210f-dark-gradient);filter:drop-shadow( 1px 2px 2px rgba(185,185,185,1));}#ga37760d0-8e0e-4042-9082-0ad9c603210f-dark [data-look="neo"].icon-shape .icon-neo path{stroke:url(#ga37760d0-8e0e-4042-9082-0ad9c603210f-dark-gradient);filter:drop-shadow( 1px 2px 2px rgba(185,185,185,1));}#ga37760d0-8e0e-4042-9082-0ad9c603210f-dark :root{--mermaid-font-family:"trebuchet ms",verdana,arial,sans-serif;}</style><g><marker id="ga37760d0-8e0e-4042-9082-0ad9c603210f-dark_flowchart-v2-pointEnd" class="marker flowchart-v2" viewBox="0 0 10 10" refX="5" refY="5" markerUnits="userSpaceOnUse" markerWidth="8" markerHeight="8" orient="auto"><path d="M 0 0 L 10 5 L 0 10 z" class="arrowMarkerPath" style="stroke-width: 1; stroke-dasharray: 1, 0;"></path></marker><marker id="ga37760d0-8e0e-4042-9082-0ad9c603210f-dark_flowchart-v2-pointStart" class="marker flowchart-v2" viewBox="0 0 10 10" refX="4.5" refY="5" markerUnits="userSpaceOnUse" markerWidth="8" markerHeight="8" orient="auto"><path d="M 0 5 L 10 10 L 10 0 z" class="arrowMarkerPath" style="stroke-width: 1; stroke-dasharray: 1, 0;"></path></marker><marker id="ga37760d0-8e0e-4042-9082-0ad9c603210f-dark_flowchart-v2-pointEnd-margin" class="marker flowchart-v2" viewBox="0 0 11.5 14" refX="11.5" refY="7" markerUnits="userSpaceOnUse" markerWidth="10.5" markerHeight="14" orient="auto"><path d="M 0 0 L 11.5 7 L 0 14 z" class="arrowMarkerPath" style="stroke-width: 0; stroke-dasharray: 1, 0;"></path></marker><marker id="ga37760d0-8e0e-4042-9082-0ad9c603210f-dark_flowchart-v2-pointStart-margin" class="marker flowchart-v2" viewBox="0 0 11.5 14" refX="1" refY="7" markerUnits="userSpaceOnUse" markerWidth="11.5" markerHeight="14" orient="auto"><polygon points="0,7 11.5,14 11.5,0" class="arrowMarkerPath" style="stroke-width: 0; stroke-dasharray: 1, 0;"></polygon></marker><marker id="ga37760d0-8e0e-4042-9082-0ad9c603210f-dark_flowchart-v2-circleEnd" class="marker flowchart-v2" viewBox="0 0 10 10" refX="11" refY="5" markerUnits="userSpaceOnUse" markerWidth="11" markerHeight="11" orient="auto"><circle cx="5" cy="5" r="5" class="arrowMarkerPath" style="stroke-width: 1; stroke-dasharray: 1, 0;"></circle></marker><marker id="ga37760d0-8e0e-4042-9082-0ad9c603210f-dark_flowchart-v2-circleStart" class="marker flowchart-v2" viewBox="0 0 10 10" refX="-1" refY="5" markerUnits="userSpaceOnUse" markerWidth="11" markerHeight="11" orient="auto"><circle cx="5" cy="5" r="5" class="arrowMarkerPath" style="stroke-width: 1; stroke-dasharray: 1, 0;"></circle></marker><marker id="ga37760d0-8e0e-4042-9082-0ad9c603210f-dark_flowchart-v2-circleEnd-margin" class="marker flowchart-v2" viewBox="0 0 10 10" refY="5" refX="12.25" markerUnits="userSpaceOnUse" markerWidth="14" markerHeight="14" orient="auto"><circle cx="5" cy="5" r="5" class="arrowMarkerPath" style="stroke-width: 0; stroke-dasharray: 1, 0;"></circle></marker><marker id="ga37760d0-8e0e-4042-9082-0ad9c603210f-dark_flowchart-v2-circleStart-margin" class="marker flowchart-v2" viewBox="0 0 10 10" refX="-2" refY="5" markerUnits="userSpaceOnUse" markerWidth="14" markerHeight="14" orient="auto"><circle cx="5" cy="5" r="5" class="arrowMarkerPath" style="stroke-width: 0; stroke-dasharray: 1, 0;"></circle></marker><marker id="ga37760d0-8e0e-4042-9082-0ad9c603210f-dark_flowchart-v2-crossEnd" class="marker cross flowchart-v2" viewBox="0 0 11 11" refX="12" refY="5.2" markerUnits="userSpaceOnUse" markerWidth="11" markerHeight="11" orient="auto"><path d="M 1,1 l 9,9 M 10,1 l -9,9" class="arrowMarkerPath" style="stroke-width: 2; stroke-dasharray: 1, 0;"></path></marker><marker id="ga37760d0-8e0e-4042-9082-0ad9c603210f-dark_flowchart-v2-crossStart" class="marker cross flowchart-v2" viewBox="0 0 11 11" refX="-1" refY="5.2" markerUnits="userSpaceOnUse" markerWidth="11" markerHeight="11" orient="auto"><path d="M 1,1 l 9,9 M 10,1 l -9,9" class="arrowMarkerPath" style="stroke-width: 2; stroke-dasharray: 1, 0;"></path></marker><marker id="ga37760d0-8e0e-4042-9082-0ad9c603210f-dark_flowchart-v2-crossEnd-margin" class="marker cross flowchart-v2" viewBox="0 0 15 15" refX="17.7" refY="7.5" markerUnits="userSpaceOnUse" markerWidth="12" markerHeight="12" orient="auto"><path d="M 1,1 L 14,14 M 1,14 L 14,1" class="arrowMarkerPath" style="stroke-width: 2.5;"></path></marker><marker id="ga37760d0-8e0e-4042-9082-0ad9c603210f-dark_flowchart-v2-crossStart-margin" class="marker cross flowchart-v2" viewBox="0 0 15 15" refX="-3.5" refY="7.5" markerUnits="userSpaceOnUse" markerWidth="12" markerHeight="12" orient="auto"><path d="M 1,1 L 14,14 M 1,14 L 14,1" class="arrowMarkerPath" style="stroke-width: 2.5; stroke-dasharray: 1, 0;"></path></marker><g class="root"><g class="clusters"></g><g class="edgePaths"><path d="M340.352,42L340.352,46.167C340.352,50.333,340.352,58.667,340.352,66.333C340.352,74,340.352,81,340.352,84.5L340.352,88" id="ga37760d0-8e0e-4042-9082-0ad9c603210f-dark-L_Start_Background_0" class="edge-thickness-normal edge-pattern-solid edge-thickness-normal edge-pattern-solid flowchart-link" style=";" data-edge="true" data-et="edge" data-id="L_Start_Background_0" data-points="W3sieCI6MzQwLjM1MTU2MjUsInkiOjQyfSx7IngiOjM0MC4zNTE1NjI1LCJ5Ijo2N30seyJ4IjozNDAuMzUxNTYyNSwieSI6OTJ9XQ==" data-look="classic" marker-end="url(#ga37760d0-8e0e-4042-9082-0ad9c603210f-dark_flowchart-v2-pointEnd)"></path><path d="M340.352,228.6L340.352,232.767C340.352,236.933,340.352,245.267,340.352,252.933C340.352,260.6,340.352,267.6,340.352,271.1L340.352,274.6" id="ga37760d0-8e0e-4042-9082-0ad9c603210f-dark-L_Background_BehindFlow_0" class="edge-thickness-normal edge-pattern-solid edge-thickness-normal edge-pattern-solid flowchart-link" style=";" data-edge="true" data-et="edge" data-id="L_Background_BehindFlow_0" data-points="W3sieCI6MzQwLjM1MTU2MjUsInkiOjIyOC41OTk5OTA4NDQ3MjY1Nn0seyJ4IjozNDAuMzUxNTYyNSwieSI6MjUzLjU5OTk5MDg0NDcyNjU2fSx7IngiOjM0MC4zNTE1NjI1LCJ5IjoyNzguNTk5OTkwODQ0NzI2NTZ9XQ==" data-look="classic" marker-end="url(#ga37760d0-8e0e-4042-9082-0ad9c603210f-dark_flowchart-v2-pointEnd)"></path><path d="M340.352,415.2L340.352,419.367C340.352,423.533,340.352,431.867,340.352,439.533C340.352,447.2,340.352,454.2,340.352,457.7L340.352,461.2" id="ga37760d0-8e0e-4042-9082-0ad9c603210f-dark-L_BehindFlow_InFlow_0" class="edge-thickness-normal edge-pattern-solid edge-thickness-normal edge-pattern-solid flowchart-link" style=";" data-edge="true" data-et="edge" data-id="L_BehindFlow_InFlow_0" data-points="W3sieCI6MzQwLjM1MTU2MjUsInkiOjQxNS4xOTk5ODE2ODk0NTMxfSx7IngiOjM0MC4zNTE1NjI1LCJ5Ijo0NDAuMTk5OTgxNjg5NDUzMX0seyJ4IjozNDAuMzUxNTYyNSwieSI6NDY1LjE5OTk4MTY4OTQ1MzF9XQ==" data-look="classic" marker-end="url(#ga37760d0-8e0e-4042-9082-0ad9c603210f-dark_flowchart-v2-pointEnd)"></path><path d="M340.352,601.8L340.352,605.967C340.352,610.133,340.352,618.467,340.352,626.133C340.352,633.8,340.352,640.8,340.352,644.3L340.352,647.8" id="ga37760d0-8e0e-4042-9082-0ad9c603210f-dark-L_InFlow_Above_0" class="edge-thickness-normal edge-pattern-solid edge-thickness-normal edge-pattern-solid flowchart-link" style=";" data-edge="true" data-et="edge" data-id="L_InFlow_Above_0" data-points="W3sieCI6MzQwLjM1MTU2MjUsInkiOjYwMS43OTk5NzI1MzQxNzk3fSx7IngiOjM0MC4zNTE1NjI1LCJ5Ijo2MjYuNzk5OTcyNTM0MTc5N30seyJ4IjozNDAuMzUxNTYyNSwieSI6NjUxLjc5OTk3MjUzNDE3OTd9XQ==" data-look="classic" marker-end="url(#ga37760d0-8e0e-4042-9082-0ad9c603210f-dark_flowchart-v2-pointEnd)"></path><path d="M340.352,788.4L340.352,792.567C340.352,796.733,340.352,805.067,340.352,812.733C340.352,820.4,340.352,827.4,340.352,830.9L340.352,834.4" id="ga37760d0-8e0e-4042-9082-0ad9c603210f-dark-L_Above_Final_0" class="edge-thickness-normal edge-pattern-solid edge-thickness-normal edge-pattern-solid flowchart-link" style=";" data-edge="true" data-et="edge" data-id="L_Above_Final_0" data-points="W3sieCI6MzQwLjM1MTU2MjUsInkiOjc4OC4zOTk5NjMzNzg5MDYyfSx7IngiOjM0MC4zNTE1NjI1LCJ5Ijo4MTMuMzk5OTYzMzc4OTA2Mn0seyJ4IjozNDAuMzUxNTYyNSwieSI6ODM4LjM5OTk2MzM3ODkwNjJ9XQ==" data-look="classic" marker-end="url(#ga37760d0-8e0e-4042-9082-0ad9c603210f-dark_flowchart-v2-pointEnd)"></path></g><g class="edgeLabels"><g class="edgeLabel"><g class="label" data-id="L_Start_Background_0" transform="translate(0, 0)"><text y="-10.1" text-anchor="middle"><tspan class="text-outer-tspan row" x="0" y="-0.1em" dy="1.1em" text-anchor="middle"></tspan></text></g></g><g><rect class="background" style="stroke: none"></rect></g><g class="edgeLabel"><g class="label" data-id="L_Background_BehindFlow_0" transform="translate(0, 0)"><text y="-10.1" text-anchor="middle"><tspan class="text-outer-tspan row" x="0" y="-0.1em" dy="1.1em" text-anchor="middle"></tspan></text></g></g><g><rect class="background" style="stroke: none"></rect></g><g class="edgeLabel"><g class="label" data-id="L_BehindFlow_InFlow_0" transform="translate(0, 0)"><text y="-10.1" text-anchor="middle"><tspan class="text-outer-tspan row" x="0" y="-0.1em" dy="1.1em" text-anchor="middle"></tspan></text></g></g><g><rect class="background" style="stroke: none"></rect></g><g class="edgeLabel"><g class="label" data-id="L_InFlow_Above_0" transform="translate(0, 0)"><text y="-10.1" text-anchor="middle"><tspan class="text-outer-tspan row" x="0" y="-0.1em" dy="1.1em" text-anchor="middle"></tspan></text></g></g><g><rect class="background" style="stroke: none"></rect></g><g class="edgeLabel"><g class="label" data-id="L_Above_Final_0" transform="translate(0, 0)"><text y="-10.1" text-anchor="middle"><tspan class="text-outer-tspan row" x="0" y="-0.1em" dy="1.1em" text-anchor="middle"></tspan></text></g></g><g><rect class="background" style="stroke: none"></rect></g></g><g class="nodes"><g class="root" transform="translate(225.7578125, 830.3999633789062)"><g class="clusters"><g class="cluster" id="ga37760d0-8e0e-4042-9082-0ad9c603210f-dark-Final" data-look="classic"><rect style="" x="8" y="8" width="213.1875" height="119"></rect><g class="cluster-label" transform="translate(58.09375, 8)"><g><rect class="background" style="stroke: none"></rect><text y="-10.1" style=""><tspan class="text-outer-tspan row" x="0" y="-0.1em" dy="1.1em"><tspan font-style="normal" class="text-inner-tspan" font-weight="normal">Decoration</tspan><tspan font-style="normal" class="text-inner-tspan" font-weight="normal"> pass</tspan></tspan></text></g></g></g></g><g class="edgePaths"></g><g class="edgeLabels"></g><g class="nodes"><g class="node default" id="ga37760d0-8e0e-4042-9082-0ad9c603210f-dark-flowchart-S8-8" data-look="classic" transform="translate(114.59375, 67.5)"><rect class="basic label-container" style="" x="-69.09375" y="-24.5" width="138.1875" height="49"></rect><g class="label" style="" transform="translate(0, -9.5)"><rect></rect><g><rect class="background" style="stroke: none"></rect><text y="-10.1" style=""><tspan class="text-outer-tspan row" x="0" y="-0.1em" dy="1.1em"><tspan font-style="normal" class="text-inner-tspan" font-weight="normal">8.</tspan><tspan font-style="normal" class="text-inner-tspan" font-weight="normal"> Outlines</tspan></tspan></text></g></g></g></g></g><g class="root" transform="translate(66.9765625, 643.7999725341797)"><g class="clusters"><g class="cluster" id="ga37760d0-8e0e-4042-9082-0ad9c603210f-dark-Above" data-look="classic"><rect style="fill:#665419 !important;stroke:#ef6c00 !important" x="8" y="8" width="530.75" height="136.5999984741211"></rect><g class="cluster-label" transform="translate(197.4453125, 8)"><g><rect class="background" style="stroke: none"></rect><text y="-10.1" style=""><tspan class="text-outer-tspan row" x="0" y="-0.1em" dy="1.1em"><tspan font-style="normal" class="text-inner-tspan" font-weight="normal">Positioned</tspan><tspan font-style="normal" class="text-inner-tspan" font-weight="normal"> and</tspan><tspan font-style="normal" class="text-inner-tspan" font-weight="normal"> above</tspan></tspan></text></g></g></g></g><g class="edgePaths"><path d="M234.641,76.3L240.891,76.3C247.141,76.3,259.641,76.3,271.474,76.3C283.307,76.3,294.474,76.3,300.057,76.3L305.641,76.3" id="ga37760d0-8e0e-4042-9082-0ad9c603210f-dark-L_S6_S7_0" class="edge-thickness-normal edge-pattern-solid edge-thickness-normal edge-pattern-solid flowchart-link" style=";" data-edge="true" data-et="edge" data-id="L_S6_S7_0" data-points="W3sieCI6MjM0LjY0MDYyNSwieSI6NzYuMjk5OTk5MjM3MDYwNTV9LHsieCI6MjcyLjE0MDYyNSwieSI6NzYuMjk5OTk5MjM3MDYwNTV9LHsieCI6MzA5LjY0MDYyNSwieSI6NzYuMjk5OTk5MjM3MDYwNTV9XQ==" data-look="classic" marker-end="url(#ga37760d0-8e0e-4042-9082-0ad9c603210f-dark_flowchart-v2-pointEnd)"></path></g><g class="edgeLabels"><g class="edgeLabel"><g class="label" data-id="L_S6_S7_0" transform="translate(0, 0)"><text y="-10.1" text-anchor="middle"><tspan class="text-outer-tspan row" x="0" y="-0.1em" dy="1.1em" text-anchor="middle"></tspan></text></g></g><g><rect class="background" style="stroke: none"></rect></g></g><g class="nodes"><g class="node default" id="ga37760d0-8e0e-4042-9082-0ad9c603210f-dark-flowchart-S6-6" data-look="classic" transform="translate(140.0703125, 76.29999923706055)"><rect class="basic label-container" style="" x="-94.5703125" y="-33.29999923706055" width="189.140625" height="66.5999984741211"></rect><g class="label" style="" transform="translate(0, -18.299999237060547)"><rect></rect><g><rect class="background" style="stroke: none"></rect><text y="-10.1" style=""><tspan class="text-outer-tspan row" x="0" y="-0.1em" dy="1.1em"><tspan font-style="normal" class="text-inner-tspan" font-weight="normal">6.</tspan><tspan font-style="normal" class="text-inner-tspan" font-weight="normal"> Positioned</tspan><tspan font-style="normal" class="text-inner-tspan" font-weight="normal"> with</tspan></tspan><tspan class="text-outer-tspan row" x="0" y="1em" dy="1.1em"><tspan font-style="normal" class="text-inner-tspan" font-weight="normal">z-index</tspan><tspan font-style="normal" class="text-inner-tspan" font-weight="normal"> auto</tspan><tspan font-style="normal" class="text-inner-tspan" font-weight="normal"> /</tspan><tspan font-style="normal" class="text-inner-tspan" font-weight="normal"> 0</tspan></tspan></text></g></g></g><g class="node default" id="ga37760d0-8e0e-4042-9082-0ad9c603210f-dark-flowchart-S7-7" data-look="classic" transform="translate(405.4453125, 76.29999923706055)"><rect class="basic label-container" style="" x="-95.8046875" y="-33.29999923706055" width="191.609375" height="66.5999984741211"></rect><g class="label" style="" transform="translate(0, -18.299999237060547)"><rect></rect><g><rect class="background" style="stroke: none"></rect><text y="-10.1" style=""><tspan class="text-outer-tspan row" x="0" y="-0.1em" dy="1.1em"><tspan font-style="normal" class="text-inner-tspan" font-weight="normal">7.</tspan><tspan font-style="normal" class="text-inner-tspan" font-weight="normal"> Positive</tspan><tspan font-style="normal" class="text-inner-tspan" font-weight="normal"> z-index</tspan></tspan><tspan class="text-outer-tspan row" x="0" y="1em" dy="1.1em"><tspan font-style="normal" class="text-inner-tspan" font-weight="normal">child</tspan><tspan font-style="normal" class="text-inner-tspan" font-weight="normal"> contexts</tspan></tspan></text></g></g></g></g></g><g class="root" transform="translate(0, 457.1999816894531)"><g class="clusters"><g class="cluster" id="ga37760d0-8e0e-4042-9082-0ad9c603210f-dark-InFlow" data-look="classic"><rect style="" x="8" y="8" width="664.703125" height="136.5999984741211"></rect><g class="cluster-label" transform="translate(285.1328125, 8)"><g><rect class="background" style="stroke: none"></rect><text y="-10.1" style=""><tspan class="text-outer-tspan row" x="0" y="-0.1em" dy="1.1em"><tspan font-style="normal" class="text-inner-tspan" font-weight="normal">In-flow</tspan><tspan font-style="normal" class="text-inner-tspan" font-weight="normal"> content</tspan></tspan></text></g></g></g></g><g class="edgePaths"><path d="M203.547,76.3L209.797,76.3C216.047,76.3,228.547,76.3,240.38,76.3C252.214,76.3,263.38,76.3,268.964,76.3L274.547,76.3" id="ga37760d0-8e0e-4042-9082-0ad9c603210f-dark-L_S3_S4_0" class="edge-thickness-normal edge-pattern-solid edge-thickness-normal edge-pattern-solid flowchart-link" style=";" data-edge="true" data-et="edge" data-id="L_S3_S4_0" data-points="W3sieCI6MjAzLjU0Njg3NSwieSI6NzYuMjk5OTk5MjM3MDYwNTV9LHsieCI6MjQxLjA0Njg3NSwieSI6NzYuMjk5OTk5MjM3MDYwNTV9LHsieCI6Mjc4LjU0Njg3NSwieSI6NzYuMjk5OTk5MjM3MDYwNTV9XQ==" data-look="classic" marker-end="url(#ga37760d0-8e0e-4042-9082-0ad9c603210f-dark_flowchart-v2-pointEnd)"></path><path d="M400.563,76.3L406.813,76.3C413.063,76.3,425.563,76.3,437.396,76.3C449.229,76.3,460.396,76.3,465.979,76.3L471.563,76.3" id="ga37760d0-8e0e-4042-9082-0ad9c603210f-dark-L_S4_S5_0" class="edge-thickness-normal edge-pattern-solid edge-thickness-normal edge-pattern-solid flowchart-link" style=";" data-edge="true" data-et="edge" data-id="L_S4_S5_0" data-points="W3sieCI6NDAwLjU2MjUsInkiOjc2LjI5OTk5OTIzNzA2MDU1fSx7IngiOjQzOC4wNjI1LCJ5Ijo3Ni4yOTk5OTkyMzcwNjA1NX0seyJ4Ijo0NzUuNTYyNSwieSI6NzYuMjk5OTk5MjM3MDYwNTV9XQ==" data-look="classic" marker-end="url(#ga37760d0-8e0e-4042-9082-0ad9c603210f-dark_flowchart-v2-pointEnd)"></path></g><g class="edgeLabels"><g class="edgeLabel"><g class="label" data-id="L_S3_S4_0" transform="translate(0, 0)"><text y="-10.1" text-anchor="middle"><tspan class="text-outer-tspan row" x="0" y="-0.1em" dy="1.1em" text-anchor="middle"></tspan></text></g></g><g><rect class="background" style="stroke: none"></rect></g><g class="edgeLabel"><g class="label" data-id="L_S4_S5_0" transform="translate(0, 0)"><text y="-10.1" text-anchor="middle"><tspan class="text-outer-tspan row" x="0" y="-0.1em" dy="1.1em" text-anchor="middle"></tspan></text></g></g><g><rect class="background" style="stroke: none"></rect></g></g><g class="nodes"><g class="node default" id="ga37760d0-8e0e-4042-9082-0ad9c603210f-dark-flowchart-S3-3" data-look="classic" transform="translate(124.5234375, 76.29999923706055)"><rect class="basic label-container" style="" x="-79.0234375" y="-33.29999923706055" width="158.046875" height="66.5999984741211"></rect><g class="label" style="" transform="translate(0, -18.299999237060547)"><rect></rect><g><rect class="background" style="stroke: none"></rect><text y="-10.1" style=""><tspan class="text-outer-tspan row" x="0" y="-0.1em" dy="1.1em"><tspan font-style="normal" class="text-inner-tspan" font-weight="normal">3.</tspan><tspan font-style="normal" class="text-inner-tspan" font-weight="normal"> Block-level</tspan></tspan><tspan class="text-outer-tspan row" x="0" y="1em" dy="1.1em"><tspan font-style="normal" class="text-inner-tspan" font-weight="normal">descendants</tspan></tspan></text></g></g></g><g class="node default" id="ga37760d0-8e0e-4042-9082-0ad9c603210f-dark-flowchart-S4-4" data-look="classic" transform="translate(339.5546875, 76.29999923706055)"><rect class="basic label-container" style="" x="-61.0078125" y="-24.5" width="122.015625" height="49"></rect><g class="label" style="" transform="translate(0, -9.5)"><rect></rect><g><rect class="background" style="stroke: none"></rect><text y="-10.1" style=""><tspan class="text-outer-tspan row" x="0" y="-0.1em" dy="1.1em"><tspan font-style="normal" class="text-inner-tspan" font-weight="normal">4.</tspan><tspan font-style="normal" class="text-inner-tspan" font-weight="normal"> Floats</tspan></tspan></text></g></g></g><g class="node default" id="ga37760d0-8e0e-4042-9082-0ad9c603210f-dark-flowchart-S5-5" data-look="classic" transform="translate(555.3828125, 76.29999923706055)"><rect class="basic label-container" style="" x="-79.8203125" y="-33.29999923706055" width="159.640625" height="66.5999984741211"></rect><g class="label" style="" transform="translate(0, -18.299999237060547)"><rect></rect><g><rect class="background" style="stroke: none"></rect><text y="-10.1" style=""><tspan class="text-outer-tspan row" x="0" y="-0.1em" dy="1.1em"><tspan font-style="normal" class="text-inner-tspan" font-weight="normal">5.</tspan><tspan font-style="normal" class="text-inner-tspan" font-weight="normal"> Inline-level</tspan></tspan><tspan class="text-outer-tspan row" x="0" y="1em" dy="1.1em"><tspan font-style="normal" class="text-inner-tspan" font-weight="normal">descendants</tspan></tspan></text></g></g></g></g></g><g class="root" transform="translate(195.2578125, 270.59999084472656)"><g class="clusters"><g class="cluster" id="ga37760d0-8e0e-4042-9082-0ad9c603210f-dark-BehindFlow" data-look="classic"><rect style="" x="8" y="8" width="274.1875" height="136.5999984741211"></rect><g class="cluster-label" transform="translate(63.0390625, 8)"><g><rect class="background" style="stroke: none"></rect><text y="-10.1" style=""><tspan class="text-outer-tspan row" x="0" y="-0.1em" dy="1.1em"><tspan font-style="normal" class="text-inner-tspan" font-weight="normal">Behind</tspan><tspan font-style="normal" class="text-inner-tspan" font-weight="normal"> in-flow</tspan><tspan font-style="normal" class="text-inner-tspan" font-weight="normal"> content</tspan></tspan></text></g></g></g></g><g class="edgePaths"></g><g class="edgeLabels"></g><g class="nodes"><g class="node default" id="ga37760d0-8e0e-4042-9082-0ad9c603210f-dark-flowchart-S2-2" data-look="classic" transform="translate(145.09375, 76.29999923706055)"><rect class="basic label-container" style="" x="-99.59375" y="-33.29999923706055" width="199.1875" height="66.5999984741211"></rect><g class="label" style="" transform="translate(0, -18.299999237060547)"><rect></rect><g><rect class="background" style="stroke: none"></rect><text y="-10.1" style=""><tspan class="text-outer-tspan row" x="0" y="-0.1em" dy="1.1em"><tspan font-style="normal" class="text-inner-tspan" font-weight="normal">2.</tspan><tspan font-style="normal" class="text-inner-tspan" font-weight="normal"> Negative</tspan><tspan font-style="normal" class="text-inner-tspan" font-weight="normal"> z-index</tspan></tspan><tspan class="text-outer-tspan row" x="0" y="1em" dy="1.1em"><tspan font-style="normal" class="text-inner-tspan" font-weight="normal">child</tspan><tspan font-style="normal" class="text-inner-tspan" font-weight="normal"> contexts</tspan></tspan></text></g></g></g></g></g><g class="root" transform="translate(182.0625, 84)"><g class="clusters"><g class="cluster" id="ga37760d0-8e0e-4042-9082-0ad9c603210f-dark-Background" data-look="classic"><rect style="fill:#194666 !important;stroke:#1565c0 !important" x="8" y="8" width="300.578125" height="136.5999984741211"></rect><g class="cluster-label" transform="translate(99.3984375, 8)"><g><rect class="background" style="stroke: none"></rect><text y="-10.1" style=""><tspan class="text-outer-tspan row" x="0" y="-0.1em" dy="1.1em"><tspan font-style="normal" class="text-inner-tspan" font-weight="normal">Background</tspan><tspan font-style="normal" class="text-inner-tspan" font-weight="normal"> pass</tspan></tspan></text></g></g></g></g><g class="edgePaths"></g><g class="edgeLabels"></g><g class="nodes"><g class="node default" id="ga37760d0-8e0e-4042-9082-0ad9c603210f-dark-flowchart-S1-1" data-look="classic" transform="translate(158.2890625, 76.29999923706055)"><rect class="basic label-container" style="" x="-112.7890625" y="-33.29999923706055" width="225.578125" height="66.5999984741211"></rect><g class="label" style="" transform="translate(0, -18.299999237060547)"><rect></rect><g><rect class="background" style="stroke: none"></rect><text y="-10.1" style=""><tspan class="text-outer-tspan row" x="0" y="-0.1em" dy="1.1em"><tspan font-style="normal" class="text-inner-tspan" font-weight="normal">1.</tspan><tspan font-style="normal" class="text-inner-tspan" font-weight="normal"> Element</tspan><tspan font-style="normal" class="text-inner-tspan" font-weight="normal"> background</tspan></tspan><tspan class="text-outer-tspan row" x="0" y="1em" dy="1.1em"><tspan font-style="normal" class="text-inner-tspan" font-weight="normal">and</tspan><tspan font-style="normal" class="text-inner-tspan" font-weight="normal"> borders</tspan></tspan></text></g></g></g></g></g><g class="node default" id="ga37760d0-8e0e-4042-9082-0ad9c603210f-dark-flowchart-Start-0" data-look="classic" transform="translate(340.3515625, 25)"><g class="basic label-container outer-path"><path d="M-71.671875 -17 C-18.366940074524628 -17, 34.937994850950744 -17, 71.671875 -17 C71.671875 -17, 71.671875 -17, 71.671875 -17 C71.95637060841561 -16.99087677957522, 72.24086621683122 -16.98175355915044, 72.76106873967211 -16.965071676755716 C73.16530780748721 -16.9260752200522, 73.56954687530231 -16.88707876334869, 73.8457867486366 -16.860430234995185 C74.10236342742775 -16.818948907350094, 74.3589401062189 -16.777467579705004, 74.92157168792333 -16.686505668848113 C75.15131521971128 -16.634068206934167, 75.38105875149924 -16.58163074502022, 75.98400292646163 -16.4440126716635 C76.27454964860982 -16.357779929640785, 76.56509637075801 -16.271547187618065, 77.02871470640156 -16.133947699181366 C77.31646355361514 -16.028053463485584, 77.6042124008287 -15.922159227789804, 78.05141408294936 -15.757584874882369 C78.3906579417155 -15.607411681918121, 78.72990180048163 -15.457238488953875, 79.04789856499849 -15.316470754341125 C79.42341902123854 -15.120561972853018, 79.7989394774786 -14.924653191364909, 80.01407338406693 -14.812417970097622 C80.37894215243871 -14.591232378503767, 80.74381092081049 -14.370046786909912, 80.94596832057933 -14.247497783161291 C81.25388102854937 -14.032711207407681, 81.56179373651943 -13.81792463165407, 81.83975401835067 -13.624031571755262 C82.10784062741392 -13.410239635111598, 82.37592723647718 -13.196447698467933, 82.6917577202324 -12.944581292275288 C82.91506009073319 -12.741783987643432, 83.13836246123398 -12.538986683011576, 83.49847836025927 -12.21193895166137 C83.66938504260317 -12.035463770441721, 83.84029172494706 -11.858988589222072, 84.25660095028036 -11.42911513444239 C84.47454112528865 -11.173110203730376, 84.69248130029696 -10.917105273018363, 84.96301020195651 -10.59932663159847 C85.18483778684765 -10.302097876753054, 85.4066653717388 -10.004869121907635, 85.61480332814824 -9.725983222076888 C85.80034364863243 -9.440943465261014, 85.98588396911664 -9.155903708445143, 86.20930197109088 -8.812673661278927 C86.3853448568472 -8.500091691343403, 86.5613877426035 -8.187509721407878, 86.744063208341 -7.863150934094199 C86.90839837847048 -7.521905437110985, 87.07273354859996 -7.180659940127771, 87.21688959126881 -6.881316833080699 C87.33187044247757 -6.597311907591544, 87.44685129368632 -6.313306982102389, 87.62583817484592 -5.871205925162238 C87.7211134308719 -5.584252034062553, 87.81638868689788 -5.297298142962868, 87.96922850162323 -4.836968972727556 C88.06879053161836 -4.457295801899395, 88.16835256161347 -4.077622631071234, 88.245649507091 -3.7828558772573464 C88.31523972524758 -3.4255248149211046, 88.38482994340417 -3.068193752584863, 88.45396531804565 -2.713198215567453 C88.4823922851698 -2.4927242720921514, 88.51081925229394 -2.2722503286168503, 88.59331992013637 -1.632391440430593 C88.60784616972211 -1.4061333777551033, 88.62237241930785 -1.1798753150796133, 88.6631406754117 -0.5448768187181379 C88.6631406754117 -0.21864251620475156, 88.6631406754117 0.10759178630863475, 88.6631406754117 0.5448768187181336 C88.64155038584917 0.881163006022543, 88.61996009628665 1.2174491933269525, 88.59331992013637 1.6323914404305815 C88.55193408419629 1.9533718114241485, 88.51054824825621 2.2743521824177155, 88.45396531804565 2.7131982155674415 C88.39169936896636 3.032920704176636, 88.32943341988705 3.3526431927858305, 88.245649507091 3.782855877257343 C88.18640370646476 4.008785792337631, 88.12715790583852 4.234715707417918, 87.96922850162323 4.836968972727545 C87.84222820346149 5.219473636041128, 87.71522790529976 5.601978299354711, 87.62583817484592 5.871205925162227 C87.52027186637011 6.131956748083217, 87.4147055578943 6.392707571004209, 87.21688959126881 6.881316833080694 C87.02878881891417 7.271912111586904, 86.84068804655952 7.662507390093114, 86.744063208341 7.863150934094196 C86.60898999709397 8.102987098309079, 86.47391678584695 8.342823262523961, 86.20930197109088 8.812673661278923 C86.08300814157828 9.006694898052018, 85.95671431206566 9.200716134825113, 85.61480332814826 9.725983222076879 C85.37154914458733 10.05192166713649, 85.12829496102643 10.377860112196101, 84.96301020195651 10.599326631598467 C84.68885854256493 10.921360770391148, 84.41470688317337 11.243394909183829, 84.25660095028037 11.42911513444238 C84.00516401326146 11.688744415270838, 83.75372707624257 11.948373696099296, 83.49847836025927 12.211938951661365 C83.2162150397881 12.468283031035071, 82.93395171931694 12.724627110408777, 82.69175772023242 12.944581292275275 C82.42826989931507 13.154705817751475, 82.1647820783977 13.364830343227675, 81.83975401835067 13.62403157175526 C81.58858788959924 13.799234190365791, 81.3374217608478 13.97443680897632, 80.94596832057934 14.247497783161286 C80.69760885937767 14.398054748063938, 80.449249398176 14.548611712966588, 80.01407338406695 14.81241797009762 C79.79274245499106 14.927886174027288, 79.57141152591515 15.043354377956954, 79.04789856499849 15.316470754341124 C78.68734418758041 15.476077481758516, 78.32678981016231 15.635684209175908, 78.05141408294936 15.757584874882367 C77.73643759545507 15.873499133891, 77.42146110796077 15.989413392899634, 77.02871470640156 16.133947699181363 C76.67819411587413 16.23798037052978, 76.3276735253467 16.342013041878197, 75.98400292646164 16.444012671663497 C75.72838379913725 16.502356069404595, 75.47276467181285 16.560699467145692, 74.92157168792333 16.68650566884811 C74.52770379896108 16.75018317464443, 74.13383590999882 16.813860680440747, 73.84578674863661 16.86043023499518 C73.41871223986631 16.90162959922401, 72.99163773109602 16.942828963452836, 72.76106873967211 16.965071676755716 C72.4629491078042 16.97463179309506, 72.16482947593629 16.9841919094344, 71.671875 17 C71.671875 17, 71.671875 17, 71.671875 17 C33.951897228683045 17, -3.7680805426339106 17, -71.671875 17 C-71.91157344043995 16.9923133375598, -72.15127188087989 16.984626675119603, -72.76106873967211 16.965071676755716 C-73.16412780841252 16.92618905314378, -73.56718687715293 16.887306429531844, -73.8457867486366 16.86043023499518 C-74.16104309330417 16.809462034038795, -74.47629943797175 16.75849383308241, -74.92157168792333 16.68650566884811 C-75.19134586050986 16.624931474396234, -75.46112003309638 16.56335727994436, -75.98400292646161 16.4440126716635 C-76.34285890586558 16.33750610064988, -76.70171488526954 16.230999529636257, -77.02871470640154 16.13394769918137 C-77.43725338255264 15.983601689867644, -77.84579205870374 15.833255680553917, -78.05141408294936 15.757584874882369 C-78.2705391418851 15.660584711405445, -78.48966420082083 15.563584547928523, -79.04789856499849 15.316470754341127 C-79.38679909495899 15.139666564936883, -79.72569962491949 14.962862375532637, -80.01407338406693 14.812417970097624 C-80.22649026343784 14.683649609522838, -80.43890714280874 14.554881248948053, -80.94596832057931 14.247497783161299 C-81.21699057443121 14.058444391238496, -81.4880128282831 13.869390999315693, -81.83975401835067 13.624031571755264 C-82.02070059971159 13.47973148831069, -82.2016471810725 13.335431404866117, -82.6917577202324 12.94458129227529 C-82.88012101563407 12.773514731211186, -83.06848431103573 12.602448170147083, -83.49847836025926 12.211938951661377 C-83.7125850021681 11.990856265408288, -83.92669164407693 11.769773579155197, -84.25660095028036 11.429115134442386 C-84.52631521126308 11.11229341631587, -84.7960294722458 10.795471698189353, -84.96301020195651 10.599326631598473 C-85.2226542476566 10.251427264419506, -85.4822982933567 9.903527897240542, -85.61480332814824 9.72598322207689 C-85.80169946780786 9.438860562919139, -85.98859560746749 9.15173790376139, -86.20930197109088 8.812673661278936 C-86.34995930901152 8.562922314700904, -86.49061664693217 8.313170968122872, -86.744063208341 7.863150934094201 C-86.92923938065678 7.478628650145116, -87.11441555297256 7.094106366196032, -87.21688959126881 6.881316833080701 C-87.33764909651711 6.583038520391192, -87.45840860176541 6.284760207701682, -87.62583817484592 5.87120592516224 C-87.75861486643602 5.471303685185769, -87.89139155802611 5.071401445209299, -87.96922850162323 4.8369689727275516 C-88.05390176138158 4.514073135646029, -88.13857502113994 4.191177298564507, -88.245649507091 3.782855877257349 C-88.32362665455841 3.3824597054881376, -88.40160380202582 2.9820635337189256, -88.45396531804565 2.713198215567455 C-88.50831406983121 2.2916800290935053, -88.5626628216168 1.8701618426195559, -88.59331992013637 1.6323914404306026 C-88.60957440373994 1.379214737921996, -88.6258288873435 1.1260380354133892, -88.6631406754117 0.54487681871814 C-88.6631406754117 0.17040698314617475, -88.6631406754117 -0.20406285242579048, -88.6631406754117 -0.5448768187181317 C-88.64420525170334 -0.8398113273747391, -88.62526982799497 -1.1347458360313465, -88.59331992013637 -1.6323914404305793 C-88.54310785493264 -2.0218263026568146, -88.49289578972893 -2.41126116488305, -88.45396531804565 -2.713198215567447 C-88.38147658299444 -3.0854125495558287, -88.30898784794323 -3.4576268835442105, -88.245649507091 -3.782855877257341 C-88.15302040428438 -4.136090791966127, -88.06039130147775 -4.489325706674912, -87.96922850162323 -4.836968972727544 C-87.87785618525893 -5.112167831415246, -87.78648386889463 -5.387366690102949, -87.62583817484594 -5.871205925162218 C-87.50290446148038 -6.174854573936807, -87.37997074811481 -6.478503222711396, -87.21688959126881 -6.881316833080692 C-87.08536897115914 -7.154422214828889, -86.95384835104947 -7.427527596577085, -86.744063208341 -7.863150934094194 C-86.61092698524217 -8.099547779710646, -86.47779076214334 -8.335944625327096, -86.20930197109088 -8.812673661278929 C-86.04119604140955 -9.070929512032155, -85.87309011172822 -9.329185362785383, -85.61480332814826 -9.725983222076884 C-85.48170427391503 -9.904323829176112, -85.34860521968182 -10.08266443627534, -84.96301020195651 -10.599326631598467 C-84.73695169809623 -10.864867813326017, -84.51089319423595 -11.130408995053564, -84.25660095028037 -11.42911513444238 C-84.08901436900571 -11.602162038722673, -83.92142778773105 -11.775208943002966, -83.49847836025927 -12.21193895166136 C-83.26916349780461 -12.420196642403901, -83.03984863534995 -12.628454333146445, -82.69175772023242 -12.944581292275274 C-82.38981311824884 -13.185374077273872, -82.08786851626525 -13.42616686227247, -81.83975401835067 -13.624031571755259 C-81.50950478242467 -13.854399142478231, -81.17925554649867 -14.084766713201203, -80.94596832057934 -14.247497783161284 C-80.62694045295086 -14.44089435133352, -80.30791258532238 -14.634290919505757, -80.01407338406695 -14.812417970097618 C-79.63644754165672 -15.009425130202136, -79.2588216992465 -15.206432290306653, -79.04789856499849 -15.316470754341124 C-78.76806375800892 -15.440345322390792, -78.48822895101935 -15.564219890440462, -78.05141408294936 -15.757584874882365 C-77.6999245246559 -15.88693628146822, -77.34843496636245 -16.016287688054074, -77.02871470640156 -16.133947699181363 C-76.76037494930969 -16.213589530542098, -76.49203519221784 -16.293231361902837, -75.98400292646164 -16.444012671663494 C-75.71281675182512 -16.50590914636911, -75.44163057718859 -16.567805621074722, -74.92157168792333 -16.68650566884811 C-74.68741690132367 -16.724361998848053, -74.453262114724 -16.762218328847997, -73.84578674863661 -16.86043023499518 C-73.55284444818655 -16.888690026404937, -73.25990214773647 -16.916949817814697, -72.76106873967213 -16.965071676755716 C-72.45613641858246 -16.974850262778304, -72.15120409749281 -16.984628848800895, -71.671875 -17 C-71.671875 -17, -71.671875 -17, -71.671875 -17" stroke="none" stroke-width="0" fill="#2d2d2d" style=""></path><path d="M-71.671875 -17 C-39.67903495580505 -17, -7.6861949116100945 -17, 71.671875 -17 M-71.671875 -17 C-31.76748278556301 -17, 8.136909428873977 -17, 71.671875 -17 M71.671875 -17 C71.671875 -17, 71.671875 -17, 71.671875 -17 M71.671875 -17 C71.671875 -17, 71.671875 -17, 71.671875 -17 M71.671875 -17 C72.05325190234758 -16.98776998504682, 72.43462880469515 -16.97553997009364, 72.76106873967211 -16.965071676755716 M71.671875 -17 C71.96866956542779 -16.990482375962305, 72.26546413085559 -16.980964751924613, 72.76106873967211 -16.965071676755716 M72.76106873967211 -16.965071676755716 C73.05314350695657 -16.936895575227084, 73.34521827424103 -16.908719473698454, 73.8457867486366 -16.860430234995185 M72.76106873967211 -16.965071676755716 C73.13095684729942 -16.929389015868445, 73.50084495492672 -16.893706354981173, 73.8457867486366 -16.860430234995185 M73.8457867486366 -16.860430234995185 C74.08288497580511 -16.822098032350794, 74.31998320297363 -16.7837658297064, 74.92157168792333 -16.686505668848113 M73.8457867486366 -16.860430234995185 C74.15117362957017 -16.811057652396478, 74.45656051050375 -16.76168506979777, 74.92157168792333 -16.686505668848113 M74.92157168792333 -16.686505668848113 C75.25845948012015 -16.609613228677485, 75.59534727231697 -16.532720788506854, 75.98400292646163 -16.4440126716635 M74.92157168792333 -16.686505668848113 C75.19658221499469 -16.62373631065548, 75.47159274206605 -16.560966952462845, 75.98400292646163 -16.4440126716635 M75.98400292646163 -16.4440126716635 C76.39447370237451 -16.32218709997763, 76.80494447828738 -16.200361528291758, 77.02871470640156 -16.133947699181366 M75.98400292646163 -16.4440126716635 C76.36613564617407 -16.330597686308426, 76.7482683658865 -16.21718270095335, 77.02871470640156 -16.133947699181366 M77.02871470640156 -16.133947699181366 C77.25591385995894 -16.050336310466296, 77.48311301351632 -15.966724921751227, 78.05141408294936 -15.757584874882369 M77.02871470640156 -16.133947699181366 C77.33724664377579 -16.020405094189684, 77.64577858115003 -15.906862489198003, 78.05141408294936 -15.757584874882369 M78.05141408294936 -15.757584874882369 C78.41300207558538 -15.597520596669108, 78.77459006822139 -15.437456318455848, 79.04789856499849 -15.316470754341125 M78.05141408294936 -15.757584874882369 C78.40237780358709 -15.602223646724921, 78.75334152422481 -15.446862418567473, 79.04789856499849 -15.316470754341125 M79.04789856499849 -15.316470754341125 C79.32452614504042 -15.172154323021667, 79.60115372508237 -15.027837891702207, 80.01407338406693 -14.812417970097622 M79.04789856499849 -15.316470754341125 C79.3028299514444 -15.18347321332364, 79.5577613378903 -15.050475672306156, 80.01407338406693 -14.812417970097622 M80.01407338406693 -14.812417970097622 C80.25750949990936 -14.664845566084535, 80.50094561575177 -14.517273162071449, 80.94596832057933 -14.247497783161291 M80.01407338406693 -14.812417970097622 C80.30188029885346 -14.637947727012861, 80.58968721363999 -14.463477483928099, 80.94596832057933 -14.247497783161291 M80.94596832057933 -14.247497783161291 C81.2172366934824 -14.0582727092427, 81.48850506638549 -13.86904763532411, 81.83975401835067 -13.624031571755262 M80.94596832057933 -14.247497783161291 C81.19959641343391 -14.070577804969123, 81.45322450628848 -13.893657826776952, 81.83975401835067 -13.624031571755262 M81.83975401835067 -13.624031571755262 C82.16226679858939 -13.366836211940416, 82.48477957882808 -13.109640852125573, 82.6917577202324 -12.944581292275288 M81.83975401835067 -13.624031571755262 C82.12341748489192 -13.397817505790485, 82.40708095143317 -13.171603439825706, 82.6917577202324 -12.944581292275288 M82.6917577202324 -12.944581292275288 C82.953703341211 -12.70668921000387, 83.21564896218959 -12.468797127732453, 83.49847836025927 -12.21193895166137 M82.6917577202324 -12.944581292275288 C82.97419258970932 -12.688081416633496, 83.25662745918625 -12.431581540991706, 83.49847836025927 -12.21193895166137 M83.49847836025927 -12.21193895166137 C83.76043543543886 -11.941446764462585, 84.02239251061846 -11.6709545772638, 84.25660095028036 -11.42911513444239 M83.49847836025927 -12.21193895166137 C83.76711148180883 -11.934553198471997, 84.0357446033584 -11.657167445282623, 84.25660095028036 -11.42911513444239 M84.25660095028036 -11.42911513444239 C84.4735393736346 -11.174286918224528, 84.69047779698882 -10.919458702006667, 84.96301020195651 -10.59932663159847 M84.25660095028036 -11.42911513444239 C84.50457178268279 -11.137834484762415, 84.75254261508522 -10.846553835082439, 84.96301020195651 -10.59932663159847 M84.96301020195651 -10.59932663159847 C85.21084491004454 -10.267250700966892, 85.45867961813256 -9.935174770335312, 85.61480332814824 -9.725983222076888 M84.96301020195651 -10.59932663159847 C85.20524991099444 -10.274747489979124, 85.44748962003237 -9.950168348359778, 85.61480332814824 -9.725983222076888 M85.61480332814824 -9.725983222076888 C85.8353612806677 -9.387146978904042, 86.05591923318714 -9.048310735731198, 86.20930197109088 -8.812673661278927 M85.61480332814824 -9.725983222076888 C85.78310881658818 -9.467420795481397, 85.95141430502814 -9.208858368885906, 86.20930197109088 -8.812673661278927 M86.20930197109088 -8.812673661278927 C86.34475077878936 -8.572170587531208, 86.48019958648786 -8.331667513783488, 86.744063208341 -7.863150934094199 M86.20930197109088 -8.812673661278927 C86.41860144957478 -8.441041243360386, 86.62790092805868 -8.069408825441846, 86.744063208341 -7.863150934094199 M86.744063208341 -7.863150934094199 C86.92394386735884 -7.48962489681411, 87.1038245263767 -7.116098859534021, 87.21688959126881 -6.881316833080699 M86.744063208341 -7.863150934094199 C86.91297533650027 -7.51240128583091, 87.08188746465954 -7.161651637567621, 87.21688959126881 -6.881316833080699 M87.21688959126881 -6.881316833080699 C87.32268361987948 -6.620003537023929, 87.42847764849016 -6.358690240967158, 87.62583817484592 -5.871205925162238 M87.21688959126881 -6.881316833080699 C87.35183461566037 -6.548000013849001, 87.48677964005192 -6.214683194617304, 87.62583817484592 -5.871205925162238 M87.62583817484592 -5.871205925162238 C87.72024809923744 -5.586858275073669, 87.81465802362897 -5.3025106249851, 87.96922850162323 -4.836968972727556 M87.62583817484592 -5.871205925162238 C87.72771096187313 -5.564381321860684, 87.82958374890032 -5.2575567185591305, 87.96922850162323 -4.836968972727556 M87.96922850162323 -4.836968972727556 C88.04694254071383 -4.5406116601975395, 88.12465657980441 -4.244254347667524, 88.245649507091 -3.7828558772573464 M87.96922850162323 -4.836968972727556 C88.0418338924166 -4.560093150256989, 88.11443928320999 -4.283217327786422, 88.245649507091 -3.7828558772573464 M88.245649507091 -3.7828558772573464 C88.29604842338654 -3.5240680938945306, 88.34644733968206 -3.2652803105317143, 88.45396531804565 -2.713198215567453 M88.245649507091 -3.7828558772573464 C88.29790472431537 -3.514536380954261, 88.35015994153974 -3.246216884651176, 88.45396531804565 -2.713198215567453 M88.45396531804565 -2.713198215567453 C88.49015068244871 -2.4325516748657297, 88.52633604685177 -2.1519051341640063, 88.59331992013637 -1.632391440430593 M88.45396531804565 -2.713198215567453 C88.50430097212715 -2.3228048224104914, 88.55463662620865 -1.9324114292535302, 88.59331992013637 -1.632391440430593 M88.59331992013637 -1.632391440430593 C88.61394344909566 -1.3111633298767569, 88.63456697805495 -0.9899352193229206, 88.6631406754117 -0.5448768187181379 M88.59331992013637 -1.632391440430593 C88.61893658174243 -1.2333912585191888, 88.64455324334848 -0.8343910766077844, 88.6631406754117 -0.5448768187181379 M88.6631406754117 -0.5448768187181379 C88.6631406754117 -0.27233978609373805, 88.6631406754117 0.00019724653066177655, 88.6631406754117 0.5448768187181336 M88.6631406754117 -0.5448768187181379 C88.6631406754117 -0.20141479758843256, 88.6631406754117 0.14204722354127275, 88.6631406754117 0.5448768187181336 M88.6631406754117 0.5448768187181336 C88.64288017171438 0.8604505177880428, 88.62261966801707 1.176024216857952, 88.59331992013637 1.6323914404305815 M88.6631406754117 0.5448768187181336 C88.64530812401763 0.8226332008570476, 88.62747557262357 1.1003895829959616, 88.59331992013637 1.6323914404305815 M88.59331992013637 1.6323914404305815 C88.5395863916172 2.049138076739805, 88.48585286309805 2.4658847130490282, 88.45396531804565 2.7131982155674415 M88.59331992013637 1.6323914404305815 C88.55645806342399 1.9182847218947874, 88.51959620671163 2.204178003358993, 88.45396531804565 2.7131982155674415 M88.45396531804565 2.7131982155674415 C88.38614324462252 3.061450228394907, 88.3183211711994 3.409702241222373, 88.245649507091 3.782855877257343 M88.45396531804565 2.7131982155674415 C88.37266762522057 3.1306446859507386, 88.2913699323955 3.548091156334036, 88.245649507091 3.782855877257343 M88.245649507091 3.782855877257343 C88.16916578734232 4.074521448912905, 88.09268206759363 4.366187020568466, 87.96922850162323 4.836968972727545 M88.245649507091 3.782855877257343 C88.17460824691814 4.053766991773391, 88.10356698674528 4.324678106289439, 87.96922850162323 4.836968972727545 M87.96922850162323 4.836968972727545 C87.88293278798042 5.096877912864942, 87.7966370743376 5.356786853002339, 87.62583817484592 5.871205925162227 M87.96922850162323 4.836968972727545 C87.89079279491853 5.073204824289376, 87.81235708821383 5.309440675851207, 87.62583817484592 5.871205925162227 M87.62583817484592 5.871205925162227 C87.48975595483925 6.207331639549432, 87.3536737348326 6.543457353936638, 87.21688959126881 6.881316833080694 M87.62583817484592 5.871205925162227 C87.50843379750832 6.161197007045328, 87.39102942017071 6.451188088928429, 87.21688959126881 6.881316833080694 M87.21688959126881 6.881316833080694 C87.11997408224575 7.0825639612267945, 87.02305857322267 7.283811089372896, 86.744063208341 7.863150934094196 M87.21688959126881 6.881316833080694 C87.09568091368534 7.133009245533006, 86.97447223610187 7.3847016579853175, 86.744063208341 7.863150934094196 M86.744063208341 7.863150934094196 C86.54389427602894 8.218571142716604, 86.34372534371686 8.573991351339012, 86.20930197109088 8.812673661278923 M86.744063208341 7.863150934094196 C86.62998330582323 8.065711352857257, 86.51590340330547 8.268271771620318, 86.20930197109088 8.812673661278923 M86.20930197109088 8.812673661278923 C86.06095083107753 9.040580850198355, 85.91259969106417 9.268488039117786, 85.61480332814826 9.725983222076879 M86.20930197109088 8.812673661278923 C85.97154314849456 9.177935059970201, 85.73378432589823 9.543196458661479, 85.61480332814826 9.725983222076879 M85.61480332814826 9.725983222076879 C85.37559847325277 10.046495935626256, 85.13639361835726 10.367008649175633, 84.96301020195651 10.599326631598467 M85.61480332814826 9.725983222076879 C85.47990179082866 9.906738992302248, 85.34500025350908 10.08749476252762, 84.96301020195651 10.599326631598467 M84.96301020195651 10.599326631598467 C84.77272552870122 10.822845836308781, 84.58244085544591 11.046365041019094, 84.25660095028037 11.42911513444238 M84.96301020195651 10.599326631598467 C84.77922891969263 10.815206583196836, 84.59544763742873 11.031086534795206, 84.25660095028037 11.42911513444238 M84.25660095028037 11.42911513444238 C83.99503494853026 11.699203506217495, 83.73346894678014 11.969291877992612, 83.49847836025927 12.211938951661365 M84.25660095028037 11.42911513444238 C83.9829286762342 11.711704226306626, 83.709256402188 11.994293318170872, 83.49847836025927 12.211938951661365 M83.49847836025927 12.211938951661365 C83.19715502890826 12.485592828615895, 82.89583169755724 12.759246705570424, 82.69175772023242 12.944581292275275 M83.49847836025927 12.211938951661365 C83.32556197481692 12.368977037803258, 83.15264558937457 12.526015123945152, 82.69175772023242 12.944581292275275 M82.69175772023242 12.944581292275275 C82.42609295786106 13.156441870630196, 82.16042819548971 13.368302448985116, 81.83975401835067 13.62403157175526 M82.69175772023242 12.944581292275275 C82.37368106057774 13.198238963974482, 82.05560440092307 13.451896635673691, 81.83975401835067 13.62403157175526 M81.83975401835067 13.62403157175526 C81.55785783903573 13.820670143356443, 81.27596165972079 14.017308714957627, 80.94596832057934 14.247497783161286 M81.83975401835067 13.62403157175526 C81.6041068155552 13.788408859422386, 81.36845961275972 13.952786147089514, 80.94596832057934 14.247497783161286 M80.94596832057934 14.247497783161286 C80.5989058630599 14.45788908447496, 80.25184340554046 14.668280385788632, 80.01407338406695 14.81241797009762 M80.94596832057934 14.247497783161286 C80.73815754035694 14.373473899363809, 80.53034676013452 14.499450015566332, 80.01407338406695 14.81241797009762 M80.01407338406695 14.81241797009762 C79.81632623860261 14.91558252922327, 79.61857909313828 15.018747088348922, 79.04789856499849 15.316470754341124 M80.01407338406695 14.81241797009762 C79.68779098505335 14.98263928866916, 79.36150858603976 15.152860607240703, 79.04789856499849 15.316470754341124 M79.04789856499849 15.316470754341124 C78.66278378876729 15.486949641754736, 78.27766901253608 15.657428529168348, 78.05141408294936 15.757584874882367 M79.04789856499849 15.316470754341124 C78.65212556982817 15.491667719114249, 78.25635257465787 15.666864683887372, 78.05141408294936 15.757584874882367 M78.05141408294936 15.757584874882367 C77.79128125101063 15.853316161677359, 77.5311484190719 15.949047448472353, 77.02871470640156 16.133947699181363 M78.05141408294936 15.757584874882367 C77.73416822414852 15.87433428350965, 77.41692236534766 15.991083692136934, 77.02871470640156 16.133947699181363 M77.02871470640156 16.133947699181363 C76.77624798755392 16.208878496110493, 76.52378126870627 16.283809293039624, 75.98400292646164 16.444012671663497 M77.02871470640156 16.133947699181363 C76.7111088585279 16.228211447683154, 76.39350301065423 16.322475196184943, 75.98400292646164 16.444012671663497 M75.98400292646164 16.444012671663497 C75.56478759718809 16.539695834934502, 75.14557226791453 16.63537899820551, 74.92157168792333 16.68650566884811 M75.98400292646164 16.444012671663497 C75.58300263558213 16.5355383712853, 75.18200234470262 16.627064070907096, 74.92157168792333 16.68650566884811 M74.92157168792333 16.68650566884811 C74.60243339591497 16.738101472945605, 74.28329510390661 16.789697277043096, 73.84578674863661 16.86043023499518 M74.92157168792333 16.68650566884811 C74.66173529524076 16.72851400175571, 74.40189890255819 16.770522334663305, 73.84578674863661 16.86043023499518 M73.84578674863661 16.86043023499518 C73.56330046588555 16.887681346952714, 73.28081418313448 16.91493245891025, 72.76106873967211 16.965071676755716 M73.84578674863661 16.86043023499518 C73.45448974209428 16.898178186612817, 73.06319273555194 16.935926138230457, 72.76106873967211 16.965071676755716 M72.76106873967211 16.965071676755716 C72.35804496754429 16.977995864689674, 71.95502119541646 16.99092005262363, 71.671875 17 M72.76106873967211 16.965071676755716 C72.50542322074034 16.97326973096404, 72.24977770180855 16.98146778517237, 71.671875 17 M71.671875 17 C71.671875 17, 71.671875 17, 71.671875 17 M71.671875 17 C71.671875 17, 71.671875 17, 71.671875 17 M71.671875 17 C34.18937642355473 17, -3.2931221528905468 17, -71.671875 17 M71.671875 17 C23.28777442364793 17, -25.096326152704137 17, -71.671875 17 M-71.671875 17 C-72.02694333488083 16.98861364959896, -72.38201166976165 16.977227299197917, -72.76106873967211 16.965071676755716 M-71.671875 17 C-71.94919794917924 16.991106792796195, -72.22652089835849 16.98221358559239, -72.76106873967211 16.965071676755716 M-72.76106873967211 16.965071676755716 C-73.06027592957258 16.93620751899531, -73.35948311947305 16.907343361234904, -73.8457867486366 16.86043023499518 M-72.76106873967211 16.965071676755716 C-73.1030641559917 16.93207979025303, -73.4450595723113 16.899087903750345, -73.8457867486366 16.86043023499518 M-73.8457867486366 16.86043023499518 C-74.20013081692439 16.803142634013703, -74.55447488521216 16.745855033032228, -74.92157168792333 16.68650566884811 M-73.8457867486366 16.86043023499518 C-74.10616257243628 16.818334691047923, -74.36653839623595 16.77623914710066, -74.92157168792333 16.68650566884811 M-74.92157168792333 16.68650566884811 C-75.27998061879529 16.604701169213435, -75.63838954966727 16.522896669578756, -75.98400292646161 16.4440126716635 M-74.92157168792333 16.68650566884811 C-75.31696657192163 16.596259366768248, -75.71236145591992 16.50601306468839, -75.98400292646161 16.4440126716635 M-75.98400292646161 16.4440126716635 C-76.28127579129877 16.355783645796944, -76.57854865613594 16.267554619930383, -77.02871470640154 16.13394769918137 M-75.98400292646161 16.4440126716635 C-76.32538020681683 16.342693686779985, -76.66675748717205 16.24137470189647, -77.02871470640154 16.13394769918137 M-77.02871470640154 16.13394769918137 C-77.39464682484284 15.999281296955552, -77.76057894328413 15.864614894729733, -78.05141408294936 15.757584874882369 M-77.02871470640154 16.13394769918137 C-77.38751835136482 16.00190464109035, -77.74632199632809 15.86986158299933, -78.05141408294936 15.757584874882369 M-78.05141408294936 15.757584874882369 C-78.3370561675118 15.631139597317961, -78.62269825207423 15.504694319753556, -79.04789856499849 15.316470754341127 M-78.05141408294936 15.757584874882369 C-78.36452951729258 15.618977960337974, -78.6776449516358 15.48037104579358, -79.04789856499849 15.316470754341127 M-79.04789856499849 15.316470754341127 C-79.32776847283797 15.1704628026865, -79.60763838067746 15.024454851031871, -80.01407338406693 14.812417970097624 M-79.04789856499849 15.316470754341127 C-79.31106903032155 15.179174891150813, -79.5742394956446 15.041879027960501, -80.01407338406693 14.812417970097624 M-80.01407338406693 14.812417970097624 C-80.28161435407286 14.650233061834776, -80.54915532407878 14.488048153571928, -80.94596832057931 14.247497783161299 M-80.01407338406693 14.812417970097624 C-80.30119950747019 14.638360426750179, -80.58832563087344 14.464302883402734, -80.94596832057931 14.247497783161299 M-80.94596832057931 14.247497783161299 C-81.2814346734368 14.013490977512275, -81.6169010262943 13.77948417186325, -81.83975401835067 13.624031571755264 M-80.94596832057931 14.247497783161299 C-81.21712996298652 14.058347159816346, -81.48829160539371 13.869196536471396, -81.83975401835067 13.624031571755264 M-81.83975401835067 13.624031571755264 C-82.17240605432423 13.358750425308804, -82.50505809029778 13.093469278862344, -82.6917577202324 12.94458129227529 M-81.83975401835067 13.624031571755264 C-82.05960516426886 13.448706133370214, -82.27945631018703 13.273380694985164, -82.6917577202324 12.94458129227529 M-82.6917577202324 12.94458129227529 C-82.9178252786067 12.73927271717958, -83.14389283698098 12.533964142083871, -83.49847836025926 12.211938951661377 M-82.6917577202324 12.94458129227529 C-82.85628757032137 12.795159635645774, -83.02081742041034 12.645737979016259, -83.49847836025926 12.211938951661377 M-83.49847836025926 12.211938951661377 C-83.79962622099944 11.900979060747947, -84.10077408173964 11.590019169834514, -84.25660095028036 11.429115134442386 M-83.49847836025926 12.211938951661377 C-83.6828743610088 12.021534941694256, -83.86727036175836 11.831130931727134, -84.25660095028036 11.429115134442386 M-84.25660095028036 11.429115134442386 C-84.51620222787086 11.124172702053425, -84.77580350546137 10.819230269664464, -84.96301020195651 10.599326631598473 M-84.25660095028036 11.429115134442386 C-84.45041869140698 11.201445787173157, -84.64423643253362 10.97377643990393, -84.96301020195651 10.599326631598473 M-84.96301020195651 10.599326631598473 C-85.12466068552045 10.3827297102848, -85.28631116908439 10.166132788971126, -85.61480332814824 9.72598322207689 M-84.96301020195651 10.599326631598473 C-85.11068598714655 10.401454532984603, -85.2583617723366 10.203582434370734, -85.61480332814824 9.72598322207689 M-85.61480332814824 9.72598322207689 C-85.74648159966219 9.523690036464625, -85.87815987117612 9.321396850852363, -86.20930197109088 8.812673661278936 M-85.61480332814824 9.72598322207689 C-85.81374952901886 9.420348433004536, -86.0126957298895 9.11471364393218, -86.20930197109088 8.812673661278936 M-86.20930197109088 8.812673661278936 C-86.39957927688961 8.474817037166762, -86.58985658268834 8.136960413054588, -86.744063208341 7.863150934094201 M-86.20930197109088 8.812673661278936 C-86.37416401554573 8.519944407257109, -86.53902606000058 8.22721515323528, -86.744063208341 7.863150934094201 M-86.744063208341 7.863150934094201 C-86.89376508321534 7.552291787810648, -87.04346695808967 7.241432641527095, -87.21688959126881 6.881316833080701 M-86.744063208341 7.863150934094201 C-86.88192412049419 7.576879800257126, -87.01978503264738 7.290608666420052, -87.21688959126881 6.881316833080701 M-87.21688959126881 6.881316833080701 C-87.3581812624632 6.532323673541915, -87.4994729336576 6.183330514003129, -87.62583817484592 5.87120592516224 M-87.21688959126881 6.881316833080701 C-87.33424126770434 6.5914559234446095, -87.45159294413989 6.301595013808518, -87.62583817484592 5.87120592516224 M-87.62583817484592 5.87120592516224 C-87.74670212528176 5.507182963504845, -87.8675660757176 5.143160001847451, -87.96922850162323 4.8369689727275516 M-87.62583817484592 5.87120592516224 C-87.74878408150218 5.500912443083633, -87.87172998815842 5.130618961005026, -87.96922850162323 4.8369689727275516 M-87.96922850162323 4.8369689727275516 C-88.04384660096352 4.552417820254204, -88.11846470030382 4.267866667780856, -88.245649507091 3.782855877257349 M-87.96922850162323 4.8369689727275516 C-88.03857076949832 4.572536852190857, -88.1079130373734 4.308104731654162, -88.245649507091 3.782855877257349 M-88.245649507091 3.782855877257349 C-88.32553474894084 3.3726620441103012, -88.40541999079066 2.962468210963254, -88.45396531804565 2.713198215567455 M-88.245649507091 3.782855877257349 C-88.3134975753635 3.4344703863724093, -88.38134564363598 3.0860848954874696, -88.45396531804565 2.713198215567455 M-88.45396531804565 2.713198215567455 C-88.50451751177994 2.3211253836241243, -88.55506970551421 1.9290525516807933, -88.59331992013637 1.6323914404306026 M-88.45396531804565 2.713198215567455 C-88.50523214433254 2.315582834666237, -88.55649897061943 1.9179674537650189, -88.59331992013637 1.6323914404306026 M-88.59331992013637 1.6323914404306026 C-88.61956148920333 1.2236578203992168, -88.64580305827032 0.8149242003678312, -88.6631406754117 0.54487681871814 M-88.59331992013637 1.6323914404306026 C-88.6115960294464 1.347726285716826, -88.62987213875645 1.0630611310030493, -88.6631406754117 0.54487681871814 M-88.6631406754117 0.54487681871814 C-88.6631406754117 0.2642075916453701, -88.6631406754117 -0.016461635427399757, -88.6631406754117 -0.5448768187181317 M-88.6631406754117 0.54487681871814 C-88.6631406754117 0.32626040037878823, -88.6631406754117 0.10764398203943643, -88.6631406754117 -0.5448768187181317 M-88.6631406754117 -0.5448768187181317 C-88.63769410649574 -0.9412276696848669, -88.61224753757978 -1.337578520651602, -88.59331992013637 -1.6323914404305793 M-88.6631406754117 -0.5448768187181317 C-88.63566260776359 -0.9728699022342329, -88.6081845401155 -1.4008629857503339, -88.59331992013637 -1.6323914404305793 M-88.59331992013637 -1.6323914404305793 C-88.55806117948559 -1.905851270292077, -88.52280243883483 -2.1793111001535745, -88.45396531804565 -2.713198215567447 M-88.59331992013637 -1.6323914404305793 C-88.54625251911175 -1.9974369082678842, -88.49918511808714 -2.362482376105189, -88.45396531804565 -2.713198215567447 M-88.45396531804565 -2.713198215567447 C-88.4084311469542 -2.947006560471563, -88.36289697586275 -3.1808149053756787, -88.245649507091 -3.782855877257341 M-88.45396531804565 -2.713198215567447 C-88.38827747790452 -3.050491391562204, -88.3225896377634 -3.387784567556962, -88.245649507091 -3.782855877257341 M-88.245649507091 -3.782855877257341 C-88.17477760784959 -4.053121145140281, -88.10390570860818 -4.323386413023221, -87.96922850162323 -4.836968972727544 M-88.245649507091 -3.782855877257341 C-88.17053874382391 -4.069285770805493, -88.09542798055682 -4.355715664353644, -87.96922850162323 -4.836968972727544 M-87.96922850162323 -4.836968972727544 C-87.85221805628514 -5.1893857910031995, -87.73520761094704 -5.541802609278856, -87.62583817484594 -5.871205925162218 M-87.96922850162323 -4.836968972727544 C-87.85746399291688 -5.1735858656949265, -87.7456994842105 -5.5102027586623095, -87.62583817484594 -5.871205925162218 M-87.62583817484594 -5.871205925162218 C-87.53262434964527 -6.101445875574561, -87.43941052444461 -6.331685825986905, -87.21688959126881 -6.881316833080692 M-87.62583817484594 -5.871205925162218 C-87.50931293589078 -6.159025518243702, -87.39278769693561 -6.446845111325187, -87.21688959126881 -6.881316833080692 M-87.21688959126881 -6.881316833080692 C-87.11247872878226 -7.098128223068584, -87.00806786629572 -7.314939613056476, -86.744063208341 -7.863150934094194 M-87.21688959126881 -6.881316833080692 C-87.10410251971092 -7.115521600427399, -86.99131544815302 -7.349726367774105, -86.744063208341 -7.863150934094194 M-86.744063208341 -7.863150934094194 C-86.63019959470635 -8.065327310043658, -86.5163359810717 -8.267503685993121, -86.20930197109088 -8.812673661278929 M-86.744063208341 -7.863150934094194 C-86.54763479916625 -8.211929465117269, -86.35120638999148 -8.560707996140344, -86.20930197109088 -8.812673661278929 M-86.20930197109088 -8.812673661278929 C-85.99423072400526 -9.143080851518706, -85.77915947691965 -9.47348804175848, -85.61480332814826 -9.725983222076884 M-86.20930197109088 -8.812673661278929 C-86.05936895300476 -9.043011039711873, -85.90943593491863 -9.273348418144817, -85.61480332814826 -9.725983222076884 M-85.61480332814826 -9.725983222076884 C-85.46415447124852 -9.92783896592933, -85.31350561434877 -10.129694709781779, -84.96301020195651 -10.599326631598467 M-85.61480332814826 -9.725983222076884 C-85.45554288012288 -9.939377713505595, -85.2962824320975 -10.152772204934307, -84.96301020195651 -10.599326631598467 M-84.96301020195651 -10.599326631598467 C-84.81121461918194 -10.777634360538817, -84.65941903640739 -10.955942089479167, -84.25660095028037 -11.42911513444238 M-84.96301020195651 -10.599326631598467 C-84.71889537535223 -10.886077797454993, -84.47478054874794 -11.172828963311519, -84.25660095028037 -11.42911513444238 M-84.25660095028037 -11.42911513444238 C-83.96944902344246 -11.725623074514155, -83.68229709660456 -12.022131014585932, -83.49847836025927 -12.21193895166136 M-84.25660095028037 -11.42911513444238 C-84.06252582712071 -11.629513632968672, -83.86845070396105 -11.829912131494966, -83.49847836025927 -12.21193895166136 M-83.49847836025927 -12.21193895166136 C-83.29061064842486 -12.400718907671104, -83.08274293659045 -12.589498863680847, -82.69175772023242 -12.944581292275274 M-83.49847836025927 -12.21193895166136 C-83.2389296062619 -12.447654262758054, -82.97938085226454 -12.68336957385475, -82.69175772023242 -12.944581292275274 M-82.69175772023242 -12.944581292275274 C-82.4098201014715 -13.16941904056198, -82.12788248271058 -13.394256788848686, -81.83975401835067 -13.624031571755259 M-82.69175772023242 -12.944581292275274 C-82.42177710273847 -13.159883650240728, -82.15179648524455 -13.375186008206184, -81.83975401835067 -13.624031571755259 M-81.83975401835067 -13.624031571755259 C-81.52555542474173 -13.843202909218967, -81.21135683113276 -14.062374246682674, -80.94596832057934 -14.247497783161284 M-81.83975401835067 -13.624031571755259 C-81.65134152887194 -13.755459968170413, -81.4629290393932 -13.88688836458557, -80.94596832057934 -14.247497783161284 M-80.94596832057934 -14.247497783161284 C-80.57496337359228 -14.47240316229191, -80.20395842660524 -14.697308541422537, -80.01407338406695 -14.812417970097618 M-80.94596832057934 -14.247497783161284 C-80.6541310900229 -14.424411227350529, -80.36229385946646 -14.601324671539773, -80.01407338406695 -14.812417970097618 M-80.01407338406695 -14.812417970097618 C-79.65448431431258 -15.000015357460681, -79.2948952445582 -15.187612744823742, -79.04789856499849 -15.316470754341124 M-80.01407338406695 -14.812417970097618 C-79.65609811398471 -14.999173439205416, -79.29812284390248 -15.185928908313214, -79.04789856499849 -15.316470754341124 M-79.04789856499849 -15.316470754341124 C-78.74765720829143 -15.449378696611937, -78.44741585158435 -15.582286638882753, -78.05141408294936 -15.757584874882365 M-79.04789856499849 -15.316470754341124 C-78.66310018702191 -15.486809581633034, -78.27830180904533 -15.657148408924945, -78.05141408294936 -15.757584874882365 M-78.05141408294936 -15.757584874882365 C-77.71524857759388 -15.881296888333052, -77.37908307223839 -16.00500890178374, -77.02871470640156 -16.133947699181363 M-78.05141408294936 -15.757584874882365 C-77.77225923189299 -15.860316440550266, -77.49310438083661 -15.963048006218168, -77.02871470640156 -16.133947699181363 M-77.02871470640156 -16.133947699181363 C-76.71371726188877 -16.22743728725743, -76.39871981737598 -16.3209268753335, -75.98400292646164 -16.444012671663494 M-77.02871470640156 -16.133947699181363 C-76.68411568582033 -16.236222879652704, -76.33951666523909 -16.338498060124042, -75.98400292646164 -16.444012671663494 M-75.98400292646164 -16.444012671663494 C-75.63957670322984 -16.522625709525, -75.29515047999804 -16.601238747386503, -74.92157168792333 -16.68650566884811 M-75.98400292646164 -16.444012671663494 C-75.59936382147718 -16.531804037371465, -75.21472471649271 -16.619595403079437, -74.92157168792333 -16.68650566884811 M-74.92157168792333 -16.68650566884811 C-74.69411759220158 -16.723278683111545, -74.46666349647984 -16.76005169737498, -73.84578674863661 -16.86043023499518 M-74.92157168792333 -16.68650566884811 C-74.63591220280584 -16.73268887907951, -74.35025271768835 -16.778872089310916, -73.84578674863661 -16.86043023499518 M-73.84578674863661 -16.86043023499518 C-73.6138796082877 -16.8828020379155, -73.38197246793878 -16.90517384083582, -72.76106873967213 -16.965071676755716 M-73.84578674863661 -16.86043023499518 C-73.62047041650537 -16.882166230573347, -73.39515408437414 -16.903902226151512, -72.76106873967213 -16.965071676755716 M-72.76106873967213 -16.965071676755716 C-72.49957992667086 -16.973457114031568, -72.2380911136696 -16.981842551307423, -71.671875 -17 M-72.76106873967213 -16.965071676755716 C-72.350009537811 -16.978253545281206, -71.9389503359499 -16.99143541380669, -71.671875 -17 M-71.671875 -17 C-71.671875 -17, -71.671875 -17, -71.671875 -17 M-71.671875 -17 C-71.671875 -17, -71.671875 -17, -71.671875 -17" stroke="#555555" stroke-width="1.3" fill="none" stroke-dasharray="0 0" style=""></path></g><g class="label" style="" transform="translate(0, -9.5)"><rect></rect><g><rect class="background" style="stroke: none"></rect><text y="-10.1" style=""><tspan class="text-outer-tspan row" x="0" y="-0.1em" dy="1.1em"><tspan font-style="normal" class="text-inner-tspan" font-weight="normal">Stacking</tspan><tspan font-style="normal" class="text-inner-tspan" font-weight="normal"> context</tspan><tspan font-style="normal" class="text-inner-tspan" font-weight="normal"> root</tspan></tspan></text></g></g></g></g></g></g><defs><filter id="ga37760d0-8e0e-4042-9082-0ad9c603210f-dark-drop-shadow" height="130%" width="130%"><feDropShadow dx="4" dy="4" stdDeviation="0" flood-opacity="0.06" flood-color="#000000"></feDropShadow></filter></defs><defs><filter id="ga37760d0-8e0e-4042-9082-0ad9c603210f-dark-drop-shadow-small" height="150%" width="150%"><feDropShadow dx="2" dy="2" stdDeviation="0" flood-opacity="0.06" flood-color="#000000"></feDropShadow></filter></defs><linearGradient id="ga37760d0-8e0e-4042-9082-0ad9c603210f-dark-gradient" gradientUnits="objectBoundingBox" x1="0%" y1="0%" x2="100%" y2="0%"><stop offset="0%" stop-color="#555555" stop-opacity="1"></stop><stop offset="100%" stop-color="#555555" stop-opacity="1"></stop></linearGradient></svg>