<svg id="gfc43907c-6290-416f-9348-27cb42744b64-light" width="100%" xmlns="http://www.w3.org/2000/svg" xmlns:xlink="http://www.w3.org/1999/xlink" class="flowchart" style="max-width: 1783.2874755859375px;" viewBox="0 0 1783.2874755859375 1224.96240234375" role="graphics-document document" aria-roledescription="flowchart-v2"><style>#gfc43907c-6290-416f-9348-27cb42744b64-light{font-family:"trebuchet ms",verdana,arial,sans-serif;font-size:16px;fill:#333;}@keyframes edge-animation-frame{from{stroke-dashoffset:0;}}@keyframes dash{to{stroke-dashoffset:0;}}#gfc43907c-6290-416f-9348-27cb42744b64-light .edge-animation-slow{stroke-dasharray:9,5!important;stroke-dashoffset:900;animation:dash 50s linear infinite;stroke-linecap:round;}#gfc43907c-6290-416f-9348-27cb42744b64-light .edge-animation-fast{stroke-dasharray:9,5!important;stroke-dashoffset:900;animation:dash 20s linear infinite;stroke-linecap:round;}#gfc43907c-6290-416f-9348-27cb42744b64-light .error-icon{fill:#552222;}#gfc43907c-6290-416f-9348-27cb42744b64-light .error-text{fill:#552222;stroke:#552222;}#gfc43907c-6290-416f-9348-27cb42744b64-light .edge-thickness-normal{stroke-width:1px;}#gfc43907c-6290-416f-9348-27cb42744b64-light .edge-thickness-thick{stroke-width:3.5px;}#gfc43907c-6290-416f-9348-27cb42744b64-light .edge-pattern-solid{stroke-dasharray:0;}#gfc43907c-6290-416f-9348-27cb42744b64-light .edge-thickness-invisible{stroke-width:0;fill:none;}#gfc43907c-6290-416f-9348-27cb42744b64-light .edge-pattern-dashed{stroke-dasharray:3;}#gfc43907c-6290-416f-9348-27cb42744b64-light .edge-pattern-dotted{stroke-dasharray:2;}#gfc43907c-6290-416f-9348-27cb42744b64-light .marker{fill:#333333;stroke:#333333;}#gfc43907c-6290-416f-9348-27cb42744b64-light .marker.cross{stroke:#333333;}#gfc43907c-6290-416f-9348-27cb42744b64-light svg{font-family:"trebuchet ms",verdana,arial,sans-serif;font-size:16px;}#gfc43907c-6290-416f-9348-27cb42744b64-light p{margin:0;}#gfc43907c-6290-416f-9348-27cb42744b64-light .label{font-family:"trebuchet ms",verdana,arial,sans-serif;color:#333;}#gfc43907c-6290-416f-9348-27cb42744b64-light .cluster-label text{fill:#333;}#gfc43907c-6290-416f-9348-27cb42744b64-light .cluster-label span{color:#333;}#gfc43907c-6290-416f-9348-27cb42744b64-light .cluster-label span p{background-color:transparent;}#gfc43907c-6290-416f-9348-27cb42744b64-light .label text,#gfc43907c-6290-416f-9348-27cb42744b64-light span{fill:#333;color:#333;}#gfc43907c-6290-416f-9348-27cb42744b64-light .node rect,#gfc43907c-6290-416f-9348-27cb42744b64-light .node circle,#gfc43907c-6290-416f-9348-27cb42744b64-light .node ellipse,#gfc43907c-6290-416f-9348-27cb42744b64-light .node polygon,#gfc43907c-6290-416f-9348-27cb42744b64-light .node path{fill:#ECECFF;stroke:#9370DB;stroke-width:1px;}#gfc43907c-6290-416f-9348-27cb42744b64-light .rough-node .label text,#gfc43907c-6290-416f-9348-27cb42744b64-light .node .label text,#gfc43907c-6290-416f-9348-27cb42744b64-light .image-shape .label,#gfc43907c-6290-416f-9348-27cb42744b64-light .icon-shape .label{text-anchor:middle;}#gfc43907c-6290-416f-9348-27cb42744b64-light .node .katex path{fill:#000;stroke:#000;stroke-width:1px;}#gfc43907c-6290-416f-9348-27cb42744b64-light .rough-node .label,#gfc43907c-6290-416f-9348-27cb42744b64-light .node .label,#gfc43907c-6290-416f-9348-27cb42744b64-light .image-shape .label,#gfc43907c-6290-416f-9348-27cb42744b64-light .icon-shape .label{text-align:center;}#gfc43907c-6290-416f-9348-27cb42744b64-light .node.clickable{cursor:pointer;}#gfc43907c-6290-416f-9348-27cb42744b64-light .root .anchor path{fill:#333333!important;stroke-width:0;stroke:#333333;}#gfc43907c-6290-416f-9348-27cb42744b64-light .arrowheadPath{fill:#333333;}#gfc43907c-6290-416f-9348-27cb42744b64-light .edgePath .path{stroke:#333333;stroke-width:1px;}#gfc43907c-6290-416f-9348-27cb42744b64-light .flowchart-link{stroke:#333333;fill:none;}#gfc43907c-6290-416f-9348-27cb42744b64-light .edgeLabel{background-color:rgba(232,232,232, 0.8);text-align:center;}#gfc43907c-6290-416f-9348-27cb42744b64-light .edgeLabel p{background-color:rgba(232,232,232, 0.8);}#gfc43907c-6290-416f-9348-27cb42744b64-light .edgeLabel rect{opacity:0.5;background-color:rgba(232,232,232, 0.8);fill:rgba(232,232,232, 0.8);}#gfc43907c-6290-416f-9348-27cb42744b64-light .labelBkg{background-color:rgba(232, 232, 232, 0.5);}#gfc43907c-6290-416f-9348-27cb42744b64-light .cluster rect{fill:#ffffde;stroke:#aaaa33;stroke-width:1px;}#gfc43907c-6290-416f-9348-27cb42744b64-light .cluster text{fill:#333;}#gfc43907c-6290-416f-9348-27cb42744b64-light .cluster span{color:#333;}#gfc43907c-6290-416f-9348-27cb42744b64-light div.mermaidTooltip{position:absolute;text-align:center;max-width:200px;padding:2px;font-family:"trebuchet ms",verdana,arial,sans-serif;font-size:12px;background:hsl(80, 100%, 96.2745098039%);border:1px solid #aaaa33;border-radius:2px;pointer-events:none;z-index:100;}#gfc43907c-6290-416f-9348-27cb42744b64-light .flowchartTitleText{text-anchor:middle;font-size:18px;fill:#333;}#gfc43907c-6290-416f-9348-27cb42744b64-light rect.text{fill:none;stroke-width:0;}#gfc43907c-6290-416f-9348-27cb42744b64-light .icon-shape,#gfc43907c-6290-416f-9348-27cb42744b64-light .image-shape{background-color:rgba(232,232,232, 0.8);text-align:center;}#gfc43907c-6290-416f-9348-27cb42744b64-light .icon-shape p,#gfc43907c-6290-416f-9348-27cb42744b64-light .image-shape p{background-color:rgba(232,232,232, 0.8);padding:2px;}#gfc43907c-6290-416f-9348-27cb42744b64-light .icon-shape .label rect,#gfc43907c-6290-416f-9348-27cb42744b64-light .image-shape .label rect{opacity:0.5;background-color:rgba(232,232,232, 0.8);fill:rgba(232,232,232, 0.8);}#gfc43907c-6290-416f-9348-27cb42744b64-light .label-icon{display:inline-block;height:1em;overflow:visible;vertical-align:-0.125em;}#gfc43907c-6290-416f-9348-27cb42744b64-light .node .label-icon path{fill:currentColor;stroke:revert;stroke-width:revert;}#gfc43907c-6290-416f-9348-27cb42744b64-light .node .neo-node{stroke:#9370DB;}#gfc43907c-6290-416f-9348-27cb42744b64-light [data-look="neo"].node rect,#gfc43907c-6290-416f-9348-27cb42744b64-light [data-look="neo"].cluster rect,#gfc43907c-6290-416f-9348-27cb42744b64-light [data-look="neo"].node polygon{stroke:#9370DB;filter:drop-shadow(1px 2px 2px rgba(185, 185, 185, 1));}#gfc43907c-6290-416f-9348-27cb42744b64-light [data-look="neo"].node path{stroke:#9370DB;stroke-width:1px;}#gfc43907c-6290-416f-9348-27cb42744b64-light [data-look="neo"].node .outer-path{filter:drop-shadow(1px 2px 2px rgba(185, 185, 185, 1));}#gfc43907c-6290-416f-9348-27cb42744b64-light [data-look="neo"].node .neo-line path{stroke:#9370DB;filter:none;}#gfc43907c-6290-416f-9348-27cb42744b64-light [data-look="neo"].node circle{stroke:#9370DB;filter:drop-shadow(1px 2px 2px rgba(185, 185, 185, 1));}#gfc43907c-6290-416f-9348-27cb42744b64-light [data-look="neo"].node circle .state-start{fill:#000000;}#gfc43907c-6290-416f-9348-27cb42744b64-light [data-look="neo"].icon-shape .icon{fill:#9370DB;filter:drop-shadow(1px 2px 2px rgba(185, 185, 185, 1));}#gfc43907c-6290-416f-9348-27cb42744b64-light [data-look="neo"].icon-shape .icon-neo path{stroke:#9370DB;filter:drop-shadow(1px 2px 2px rgba(185, 185, 185, 1));}#gfc43907c-6290-416f-9348-27cb42744b64-light :root{--mermaid-font-family:"trebuchet ms",verdana,arial,sans-serif;}</style><g><marker id="gfc43907c-6290-416f-9348-27cb42744b64-light_flowchart-v2-pointEnd" class="marker flowchart-v2" viewBox="0 0 10 10" refX="5" refY="5" markerUnits="userSpaceOnUse" markerWidth="8" markerHeight="8" orient="auto"><path d="M 0 0 L 10 5 L 0 10 z" class="arrowMarkerPath" style="stroke-width: 1; stroke-dasharray: 1, 0;"></path></marker><marker id="gfc43907c-6290-416f-9348-27cb42744b64-light_flowchart-v2-pointStart" class="marker flowchart-v2" viewBox="0 0 10 10" refX="4.5" refY="5" markerUnits="userSpaceOnUse" markerWidth="8" markerHeight="8" orient="auto"><path d="M 0 5 L 10 10 L 10 0 z" class="arrowMarkerPath" style="stroke-width: 1; stroke-dasharray: 1, 0;"></path></marker><marker id="gfc43907c-6290-416f-9348-27cb42744b64-light_flowchart-v2-pointEnd-margin" class="marker flowchart-v2" viewBox="0 0 11.5 14" refX="11.5" refY="7" markerUnits="userSpaceOnUse" markerWidth="10.5" markerHeight="14" orient="auto"><path d="M 0 0 L 11.5 7 L 0 14 z" class="arrowMarkerPath" style="stroke-width: 0; stroke-dasharray: 1, 0;"></path></marker><marker id="gfc43907c-6290-416f-9348-27cb42744b64-light_flowchart-v2-pointStart-margin" class="marker flowchart-v2" viewBox="0 0 11.5 14" refX="1" refY="7" markerUnits="userSpaceOnUse" markerWidth="11.5" markerHeight="14" orient="auto"><polygon points="0,7 11.5,14 11.5,0" class="arrowMarkerPath" style="stroke-width: 0; stroke-dasharray: 1, 0;"></polygon></marker><marker id="gfc43907c-6290-416f-9348-27cb42744b64-light_flowchart-v2-circleEnd" class="marker flowchart-v2" viewBox="0 0 10 10" refX="11" refY="5" markerUnits="userSpaceOnUse" markerWidth="11" markerHeight="11" orient="auto"><circle cx="5" cy="5" r="5" class="arrowMarkerPath" style="stroke-width: 1; stroke-dasharray: 1, 0;"></circle></marker><marker id="gfc43907c-6290-416f-9348-27cb42744b64-light_flowchart-v2-circleStart" class="marker flowchart-v2" viewBox="0 0 10 10" refX="-1" refY="5" markerUnits="userSpaceOnUse" markerWidth="11" markerHeight="11" orient="auto"><circle cx="5" cy="5" r="5" class="arrowMarkerPath" style="stroke-width: 1; stroke-dasharray: 1, 0;"></circle></marker><marker id="gfc43907c-6290-416f-9348-27cb42744b64-light_flowchart-v2-circleEnd-margin" class="marker flowchart-v2" viewBox="0 0 10 10" refY="5" refX="12.25" markerUnits="userSpaceOnUse" markerWidth="14" markerHeight="14" orient="auto"><circle cx="5" cy="5" r="5" class="arrowMarkerPath" style="stroke-width: 0; stroke-dasharray: 1, 0;"></circle></marker><marker id="gfc43907c-6290-416f-9348-27cb42744b64-light_flowchart-v2-circleStart-margin" class="marker flowchart-v2" viewBox="0 0 10 10" refX="-2" refY="5" markerUnits="userSpaceOnUse" markerWidth="14" markerHeight="14" orient="auto"><circle cx="5" cy="5" r="5" class="arrowMarkerPath" style="stroke-width: 0; stroke-dasharray: 1, 0;"></circle></marker><marker id="gfc43907c-6290-416f-9348-27cb42744b64-light_flowchart-v2-crossEnd" class="marker cross flowchart-v2" viewBox="0 0 11 11" refX="12" refY="5.2" markerUnits="userSpaceOnUse" markerWidth="11" markerHeight="11" orient="auto"><path d="M 1,1 l 9,9 M 10,1 l -9,9" class="arrowMarkerPath" style="stroke-width: 2; stroke-dasharray: 1, 0;"></path></marker><marker id="gfc43907c-6290-416f-9348-27cb42744b64-light_flowchart-v2-crossStart" class="marker cross flowchart-v2" viewBox="0 0 11 11" refX="-1" refY="5.2" markerUnits="userSpaceOnUse" markerWidth="11" markerHeight="11" orient="auto"><path d="M 1,1 l 9,9 M 10,1 l -9,9" class="arrowMarkerPath" style="stroke-width: 2; stroke-dasharray: 1, 0;"></path></marker><marker id="gfc43907c-6290-416f-9348-27cb42744b64-light_flowchart-v2-crossEnd-margin" class="marker cross flowchart-v2" viewBox="0 0 15 15" refX="17.7" refY="7.5" markerUnits="userSpaceOnUse" markerWidth="12" markerHeight="12" orient="auto"><path d="M 1,1 L 14,14 M 1,14 L 14,1" class="arrowMarkerPath" style="stroke-width: 2.5;"></path></marker><marker id="gfc43907c-6290-416f-9348-27cb42744b64-light_flowchart-v2-crossStart-margin" class="marker cross flowchart-v2" viewBox="0 0 15 15" refX="-3.5" refY="7.5" markerUnits="userSpaceOnUse" markerWidth="12" markerHeight="12" orient="auto"><path d="M 1,1 L 14,14 M 1,14 L 14,1" class="arrowMarkerPath" style="stroke-width: 2.5; stroke-dasharray: 1, 0;"></path></marker><g class="root"><g class="clusters"><g class="cluster" id="gfc43907c-6290-416f-9348-27cb42744b64-light-Data" data-look="classic"><rect style="" x="739.296875" y="1072.3999938964844" width="1035.9906311035156" height="144.5624008178711"></rect><g class="cluster-label" transform="translate(1195.4171905517578, 1072.3999938964844)"><g><rect class="background" style="stroke: none"></rect><text y="-10.1" style=""><tspan class="text-outer-tspan row" x="0" y="-0.1em" dy="1.1em"><tspan font-style="normal" class="text-inner-tspan" font-weight="normal">Data</tspan><tspan font-style="normal" class="text-inner-tspan" font-weight="normal"> +</tspan><tspan font-style="normal" class="text-inner-tspan" font-weight="normal"> messaging</tspan></tspan></text></g></g></g><g class="cluster" id="gfc43907c-6290-416f-9348-27cb42744b64-light-Core" data-look="classic"><rect style="" x="8" y="628.5999984741211" width="711.296875" height="588.3623962402344"></rect><g class="cluster-label" transform="translate(297.2890625, 628.5999984741211)"><g><rect class="background" style="stroke: none"></rect><text y="-10.1" style=""><tspan class="text-outer-tspan row" x="0" y="-0.1em" dy="1.1em"><tspan font-style="normal" class="text-inner-tspan" font-weight="normal">Flash-sale</tspan><tspan font-style="normal" class="text-inner-tspan" font-weight="normal"> services</tspan></tspan></text></g></g></g><g class="cluster" id="gfc43907c-6290-416f-9348-27cb42744b64-light-Gateway" data-look="classic"><rect style="" x="268.921875" y="380.5999984741211" width="290.09375" height="198"></rect><g class="cluster-label" transform="translate(370.296875, 380.5999984741211)"><g><rect class="background" style="stroke: none"></rect><text y="-10.1" style=""><tspan class="text-outer-tspan row" x="0" y="-0.1em" dy="1.1em"><tspan font-style="normal" class="text-inner-tspan" font-weight="normal">API</tspan><tspan font-style="normal" class="text-inner-tspan" font-weight="normal"> gateway</tspan></tspan></text></g></g></g><g class="cluster" id="gfc43907c-6290-416f-9348-27cb42744b64-light-Edge" data-look="classic"><rect style="" x="250.1015625" y="115" width="327.734375" height="215.5999984741211"></rect><g class="cluster-label" transform="translate(379.5625, 115)"><g><rect class="background" style="stroke: none"></rect><text y="-10.1" style=""><tspan class="text-outer-tspan row" x="0" y="-0.1em" dy="1.1em"><tspan font-style="normal" class="text-inner-tspan" font-weight="normal">CDN</tspan><tspan font-style="normal" class="text-inner-tspan" font-weight="normal"> edge</tspan></tspan></text></g></g></g></g><g class="edgePaths"><path d="M414.469,42.5L414.385,48.5C414.302,54.5,414.135,66.5,414.052,78.583C413.969,90.667,413.969,102.833,413.969,112.417C413.969,122,413.969,129,413.969,132.5L413.969,136" id="gfc43907c-6290-416f-9348-27cb42744b64-light-L_Users_WR_0" class="edge-thickness-normal edge-pattern-solid edge-thickness-normal edge-pattern-solid flowchart-link" style=";" data-edge="true" data-et="edge" data-id="L_Users_WR_0" data-points="W3sieCI6NDE0LjQ2ODc1LCJ5Ijo0Mi41fSx7IngiOjQxMy45Njg3NSwieSI6NzguNX0seyJ4Ijo0MTMuOTY4NzUsInkiOjExNX0seyJ4Ijo0MTMuOTY4NzUsInkiOjE0MH1d" data-look="classic" marker-end="url(#gfc43907c-6290-416f-9348-27cb42744b64-light_flowchart-v2-pointEnd)"></path><path d="M413.969,206.6L413.969,210.767C413.969,214.933,413.969,223.267,413.969,230.933C413.969,238.6,413.969,245.6,413.969,249.1L413.969,252.6" id="gfc43907c-6290-416f-9348-27cb42744b64-light-L_WR_CDN_0" class="edge-thickness-normal edge-pattern-solid edge-thickness-normal edge-pattern-solid flowchart-link" style=";" data-edge="true" data-et="edge" data-id="L_WR_CDN_0" data-points="W3sieCI6NDEzLjk2ODc1LCJ5IjoyMDYuNTk5OTk4NDc0MTIxMX0seyJ4Ijo0MTMuOTY4NzUsInkiOjIzMS41OTk5OTg0NzQxMjExfSx7IngiOjQxMy45Njg3NSwieSI6MjU2LjU5OTk5ODQ3NDEyMTF9XQ==" data-look="classic" marker-end="url(#gfc43907c-6290-416f-9348-27cb42744b64-light_flowchart-v2-pointEnd)"></path><path d="M413.969,305.6L413.969,309.767C413.969,313.933,413.969,322.267,413.969,330.6C413.969,338.933,413.969,347.267,413.969,355.6C413.969,363.933,413.969,372.267,413.969,379.933C413.969,387.6,413.969,394.6,413.969,398.1L413.969,401.6" id="gfc43907c-6290-416f-9348-27cb42744b64-light-L_CDN_RL_0" class="edge-thickness-normal edge-pattern-solid edge-thickness-normal edge-pattern-solid flowchart-link" style=";" data-edge="true" data-et="edge" data-id="L_CDN_RL_0" data-points="W3sieCI6NDEzLjk2ODc1LCJ5IjozMDUuNTk5OTk4NDc0MTIxMX0seyJ4Ijo0MTMuOTY4NzUsInkiOjMzMC41OTk5OTg0NzQxMjExfSx7IngiOjQxMy45Njg3NSwieSI6MzU1LjU5OTk5ODQ3NDEyMTF9LHsieCI6NDEzLjk2ODc1LCJ5IjozODAuNTk5OTk4NDc0MTIxMX0seyJ4Ijo0MTMuOTY4NzUsInkiOjQwNS41OTk5OTg0NzQxMjExfV0=" data-look="classic" marker-end="url(#gfc43907c-6290-416f-9348-27cb42744b64-light_flowchart-v2-pointEnd)"></path><path d="M413.969,454.6L413.969,458.767C413.969,462.933,413.969,471.267,413.969,478.933C413.969,486.6,413.969,493.6,413.969,497.1L413.969,500.6" id="gfc43907c-6290-416f-9348-27cb42744b64-light-L_RL_Auth_0" class="edge-thickness-normal edge-pattern-solid edge-thickness-normal edge-pattern-solid flowchart-link" style=";" data-edge="true" data-et="edge" data-id="L_RL_Auth_0" data-points="W3sieCI6NDEzLjk2ODc1LCJ5Ijo0NTQuNTk5OTk4NDc0MTIxMX0seyJ4Ijo0MTMuOTY4NzUsInkiOjQ3OS41OTk5OTg0NzQxMjExfSx7IngiOjQxMy45Njg3NSwieSI6NTA0LjU5OTk5ODQ3NDEyMTF9XQ==" data-look="classic" marker-end="url(#gfc43907c-6290-416f-9348-27cb42744b64-light_flowchart-v2-pointEnd)"></path><path d="M413.969,553.6L413.969,557.767C413.969,561.933,413.969,570.267,413.969,578.6C413.969,586.933,413.969,595.267,413.969,603.6C413.969,611.933,413.969,620.267,413.969,627.933C413.969,635.6,413.969,642.6,413.969,646.1L413.969,649.6" id="gfc43907c-6290-416f-9348-27cb42744b64-light-L_Auth_QS_0" class="edge-thickness-normal edge-pattern-solid edge-thickness-normal edge-pattern-solid flowchart-link" style=";" data-edge="true" data-et="edge" data-id="L_Auth_QS_0" data-points="W3sieCI6NDEzLjk2ODc1LCJ5Ijo1NTMuNTk5OTk4NDc0MTIxMX0seyJ4Ijo0MTMuOTY4NzUsInkiOjU3OC41OTk5OTg0NzQxMjExfSx7IngiOjQxMy45Njg3NSwieSI6NjAzLjU5OTk5ODQ3NDEyMTF9LHsieCI6NDEzLjk2ODc1LCJ5Ijo2MjguNTk5OTk4NDc0MTIxMX0seyJ4Ijo0MTMuOTY4NzUsInkiOjY1My41OTk5OTg0NzQxMjExfV0=" data-look="classic" marker-end="url(#gfc43907c-6290-416f-9348-27cb42744b64-light_flowchart-v2-pointEnd)"></path><path d="M358.4,720.2L348.249,726.283C338.098,732.367,317.795,744.533,307.644,756.033C297.492,767.533,297.492,778.367,297.492,783.783L297.492,789.2" id="gfc43907c-6290-416f-9348-27cb42744b64-light-L_QS_IS_0" class="edge-thickness-normal edge-pattern-solid edge-thickness-normal edge-pattern-solid flowchart-link" style=";" data-edge="true" data-et="edge" data-id="L_QS_IS_0" data-points="W3sieCI6MzU4LjQwMDQxOTI3MjQ4Mjc0LCJ5Ijo3MjAuMTk5OTk2OTQ4MjQyMn0seyJ4IjoyOTcuNDkyMTg3NSwieSI6NzU2LjY5OTk5Njk0ODI0MjJ9LHsieCI6Mjk3LjQ5MjE4NzUsInkiOjc5My4xOTk5OTY5NDgyNDIyfV0=" data-look="classic" marker-end="url(#gfc43907c-6290-416f-9348-27cb42744b64-light_flowchart-v2-pointEnd)"></path><path d="M249.348,859.8L240.553,865.883C231.758,871.967,214.168,884.133,205.373,901.85C196.578,919.567,196.578,942.833,196.578,966.1C196.578,989.367,196.578,1012.633,196.578,1030.35C196.578,1048.067,196.578,1060.233,292.202,1076.765C387.826,1093.296,579.073,1114.193,674.697,1124.641L770.321,1135.089" id="gfc43907c-6290-416f-9348-27cb42744b64-light-L_IS_Redis_0" class="edge-thickness-normal edge-pattern-solid edge-thickness-normal edge-pattern-solid flowchart-link" style=";" data-edge="true" data-et="edge" data-id="L_IS_Redis_0" data-points="W3sieCI6MjQ5LjM0ODM3MzE1OTE3NjI4LCJ5Ijo4NTkuNzk5OTk1NDIyMzYzM30seyJ4IjoxOTYuNTc4MTI1LCJ5Ijo4OTYuMjk5OTk1NDIyMzYzM30seyJ4IjoxOTYuNTc4MTI1LCJ5Ijo5NjYuMDk5OTk0NjU5NDIzOH0seyJ4IjoxOTYuNTc4MTI1LCJ5IjoxMDM1Ljg5OTk5Mzg5NjQ4NDR9LHsieCI6MTk2LjU3ODEyNSwieSI6MTA3Mi4zOTk5OTM4OTY0ODQ0fSx7IngiOjc3NC4yOTY4NzUsInkiOjExMzUuNTIzNTQ5NjYwMTAwNn1d" data-look="classic" marker-end="url(#gfc43907c-6290-416f-9348-27cb42744b64-light_flowchart-v2-pointEnd)"></path><path d="M362.127,859.8L373.934,865.883C385.742,871.967,409.357,884.133,421.165,895.633C432.973,907.133,432.973,917.967,432.973,923.383L432.973,928.8" id="gfc43907c-6290-416f-9348-27cb42744b64-light-L_IS_OS_0" class="edge-thickness-normal edge-pattern-solid edge-thickness-normal edge-pattern-solid flowchart-link" style=";" data-edge="true" data-et="edge" data-id="L_IS_OS_0" data-points="W3sieCI6MzYyLjEyNjg1MTYxNjM4ODgsInkiOjg1OS43OTk5OTU0MjIzNjMzfSx7IngiOjQzMi45NzI2NTYyNSwieSI6ODk2LjI5OTk5NTQyMjM2MzN9LHsieCI6NDMyLjk3MjY1NjI1LCJ5Ijo5MzIuNzk5OTk1NDIyMzYzM31d" data-look="classic" marker-end="url(#gfc43907c-6290-416f-9348-27cb42744b64-light_flowchart-v2-pointEnd)"></path><path d="M416.482,999.4L413.469,1005.483C410.457,1011.567,404.431,1023.733,401.419,1035.9C398.406,1048.067,398.406,1060.233,496.746,1076.527C595.085,1092.821,791.764,1113.242,890.104,1123.452L988.443,1133.663" id="gfc43907c-6290-416f-9348-27cb42744b64-light-L_OS_MQ_0" class="edge-thickness-normal edge-pattern-solid edge-thickness-normal edge-pattern-solid flowchart-link" style=";" data-edge="true" data-et="edge" data-id="L_OS_MQ_0" data-points="W3sieCI6NDE2LjQ4MTgwNjQ3NDQzNDksInkiOjk5OS4zOTk5OTM4OTY0ODQ0fSx7IngiOjM5OC40MDYyNSwieSI6MTAzNS44OTk5OTM4OTY0ODQ0fSx7IngiOjM5OC40MDYyNSwieSI6MTA3Mi4zOTk5OTM4OTY0ODQ0fSx7IngiOjk5Mi40MjE4NzUsInkiOjExMzQuMDc1ODE0MDc1MjU3M31d" data-look="classic" marker-end="url(#gfc43907c-6290-416f-9348-27cb42744b64-light_flowchart-v2-pointEnd)"></path><path d="M992.422,1132.395L908.781,1122.396C825.141,1112.397,657.859,1092.398,574.219,1076.316C490.578,1060.233,490.578,1048.067,485.982,1036.414C481.386,1024.762,472.193,1013.623,467.597,1008.054L463.001,1002.485" id="gfc43907c-6290-416f-9348-27cb42744b64-light-L_MQ_OS_0" class="edge-thickness-normal edge-pattern-solid edge-thickness-normal edge-pattern-solid flowchart-link" style=";" data-edge="true" data-et="edge" data-id="L_MQ_OS_0" data-points="W3sieCI6OTkyLjQyMTg3NSwieSI6MTEzMi4zOTUyNTY5Mzk3NTF9LHsieCI6NDkwLjU3ODEyNSwieSI6MTA3Mi4zOTk5OTM4OTY0ODQ0fSx7IngiOjQ5MC41NzgxMjUsInkiOjEwMzUuODk5OTkzODk2NDg0NH0seyJ4Ijo0NjAuNDU0OTIxMDk4MDM0NywieSI6OTk5LjM5OTk5Mzg5NjQ4NDR9XQ==" data-look="classic" marker-end="url(#gfc43907c-6290-416f-9348-27cb42744b64-light_flowchart-v2-pointEnd)"></path><path d="M307.973,995.984L280.145,1002.636C252.318,1009.289,196.663,1022.595,168.835,1035.331C141.008,1048.067,141.008,1060.233,141.008,1072.147C141.008,1084.06,141.008,1095.721,141.008,1101.551L141.008,1107.381" id="gfc43907c-6290-416f-9348-27cb42744b64-light-L_OS_PS_0" class="edge-thickness-normal edge-pattern-solid edge-thickness-normal edge-pattern-solid flowchart-link" style=";" data-edge="true" data-et="edge" data-id="L_OS_PS_0" data-points="W3sieCI6MzA3Ljk3MjY1NjI1LCJ5Ijo5OTUuOTgzNzI5MjY0NDgzfSx7IngiOjE0MS4wMDc4MTI1LCJ5IjoxMDM1Ljg5OTk5Mzg5NjQ4NDR9LHsieCI6MTQxLjAwNzgxMjUsInkiOjEwNzIuMzk5OTkzODk2NDg0NH0seyJ4IjoxNDEuMDA3ODEyNSwieSI6MTExMS4zODExOTUwNjgzNTk0fV0=" data-look="classic" marker-end="url(#gfc43907c-6290-416f-9348-27cb42744b64-light_flowchart-v2-pointEnd)"></path><path d="M501.185,999.4L513.647,1005.483C526.108,1011.567,551.031,1023.733,563.492,1035.9C575.953,1048.067,575.953,1060.233,688.865,1076.729C801.776,1093.225,1027.6,1114.05,1140.511,1124.463L1253.423,1134.875" id="gfc43907c-6290-416f-9348-27cb42744b64-light-L_OS_DB_0" class="edge-thickness-normal edge-pattern-solid edge-thickness-normal edge-pattern-solid flowchart-link" style=";" data-edge="true" data-et="edge" data-id="L_OS_DB_0" data-points="W3sieCI6NTAxLjE4NTQwMDU1Mjc0NzIsInkiOjk5OS4zOTk5OTM4OTY0ODQ0fSx7IngiOjU3NS45NTMxMjUsInkiOjEwMzUuODk5OTkzODk2NDg0NH0seyJ4Ijo1NzUuOTUzMTI1LCJ5IjoxMDcyLjM5OTk5Mzg5NjQ4NDR9LHsieCI6MTI1Ny40MDYyNSwieSI6MTEzNS4yNDI0OTg3NzQyMzIyfV0=" data-look="classic" marker-end="url(#gfc43907c-6290-416f-9348-27cb42744b64-light_flowchart-v2-pointEnd)"></path><path d="M358.271,999.4L344.624,1005.483C330.977,1011.567,303.684,1023.733,290.037,1035.9C276.391,1048.067,276.391,1060.233,358.713,1076.546C441.036,1092.858,605.682,1113.316,688.005,1123.545L770.327,1133.774" id="gfc43907c-6290-416f-9348-27cb42744b64-light-L_OS_Redis_0" class="edge-thickness-normal edge-pattern-dotted edge-thickness-normal edge-pattern-solid flowchart-link" style=";" data-edge="true" data-et="edge" data-id="L_OS_Redis_0" data-points="W3sieCI6MzU4LjI3MDkxNDQ0MjYxNzU0LCJ5Ijo5OTkuMzk5OTkzODk2NDg0NH0seyJ4IjoyNzYuMzkwNjI1LCJ5IjoxMDM1Ljg5OTk5Mzg5NjQ4NDR9LHsieCI6Mjc2LjM5MDYyNSwieSI6MTA3Mi4zOTk5OTM4OTY0ODQ0fSx7IngiOjc3NC4yOTY4NzUsInkiOjExMzQuMjY3MTA5OTkxODY4Mn1d" data-look="classic" marker-end="url(#gfc43907c-6290-416f-9348-27cb42744b64-light_flowchart-v2-pointEnd)"></path><path d="M719.297,1131.652L1525.057,1138.055" id="gfc43907c-6290-416f-9348-27cb42744b64-light-L_Core_OBS_0" class="edge-thickness-normal edge-pattern-solid edge-thickness-normal edge-pattern-solid flowchart-link" style=";" data-edge="true" data-et="edge" data-id="L_Core_OBS_0" data-points="W3sieCI6NTE3LjY4MDg5NTA2ODM0MSwieSI6NzIwLjE5OTk5Njk0ODI0MjJ9LHsieCI6NjMxLjM1OTM3NSwieSI6NzU2LjY5OTk5Njk0ODI0MjJ9LHsieCI6NjMxLjM1OTM3NSwieSI6ODI2LjQ5OTk5NjE4NTMwMjd9LHsieCI6NjMxLjM1OTM3NSwieSI6ODk2LjI5OTk5NTQyMjM2MzN9LHsieCI6NjMxLjM1OTM3NSwieSI6OTY2LjA5OTk5NDY1OTQyMzh9LHsieCI6NjMxLjM1OTM3NSwieSI6MTAzNS44OTk5OTM4OTY0ODQ0fSx7IngiOjYzMS4zNTkzNzUsInkiOjEwNzIuMzk5OTkzODk2NDg0NH0seyJ4IjoxNTI5LjA1NjUxODg1MjcyNCwieSI6MTEzOC4wODY5MDU4MzcwMzZ9XQ==" data-look="classic" marker-end="url(#gfc43907c-6290-416f-9348-27cb42744b64-light_flowchart-v2-pointEnd)"></path></g><g class="edgeLabels"><g class="edgeLabel" transform="translate(413.96875, 78.5)"><g class="label" data-id="L_Users_WR_0" transform="translate(0, -10.5)"><g><rect class="background" style="" x="-49.7578125" y="-1" width="99.515625" height="23"></rect><text y="-10.1" text-anchor="middle" style=""><tspan class="text-outer-tspan row" x="0" y="-0.1em" dy="1.1em" text-anchor="middle"><tspan font-style="normal" class="text-inner-tspan" font-weight="normal">1.</tspan><tspan font-style="normal" class="text-inner-tspan" font-weight="normal"> join</tspan><tspan font-style="normal" class="text-inner-tspan" font-weight="normal"> queue</tspan></tspan></text></g></g></g><g class="edgeLabel"><g class="label" data-id="L_WR_CDN_0" transform="translate(0, 0)"><text y="-10.1" text-anchor="middle"><tspan class="text-outer-tspan row" x="0" y="-0.1em" dy="1.1em" text-anchor="middle"></tspan></text></g></g><g><rect class="background" style="stroke: none"></rect></g><g class="edgeLabel"><g class="label" data-id="L_CDN_RL_0" transform="translate(0, 0)"><text y="-10.1" text-anchor="middle"><tspan class="text-outer-tspan row" x="0" y="-0.1em" dy="1.1em" text-anchor="middle"></tspan></text></g></g><g><rect class="background" style="stroke: none"></rect></g><g class="edgeLabel"><g class="label" data-id="L_RL_Auth_0" transform="translate(0, 0)"><text y="-10.1" text-anchor="middle"><tspan class="text-outer-tspan row" x="0" y="-0.1em" dy="1.1em" text-anchor="middle"></tspan></text></g></g><g><rect class="background" style="stroke: none"></rect></g><g class="edgeLabel"><g class="label" data-id="L_Auth_QS_0" transform="translate(0, 0)"><text y="-10.1" text-anchor="middle"><tspan class="text-outer-tspan row" x="0" y="-0.1em" dy="1.1em" text-anchor="middle"></tspan></text></g></g><g><rect class="background" style="stroke: none"></rect></g><g class="edgeLabel" transform="translate(297.4921875, 756.6999969482422)"><g class="label" data-id="L_QS_IS_0" transform="translate(0, -10.5)"><g><rect class="background" style="" x="-32.296875" y="-1" width="64.59375" height="23"></rect><text y="-10.1" text-anchor="middle" style=""><tspan class="text-outer-tspan row" x="0" y="-0.1em" dy="1.1em" text-anchor="middle"><tspan font-style="normal" class="text-inner-tspan" font-weight="normal">2.</tspan><tspan font-style="normal" class="text-inner-tspan" font-weight="normal"> admit</tspan></tspan></text></g></g></g><g class="edgeLabel" transform="translate(196.578125, 966.0999946594238)"><g class="label" data-id="L_IS_Redis_0" transform="translate(0, -10.5)"><g><rect class="background" style="" x="-38.0078125" y="-1" width="76.015625" height="23"></rect><text y="-10.1" text-anchor="middle" style=""><tspan class="text-outer-tspan row" x="0" y="-0.1em" dy="1.1em" text-anchor="middle"><tspan font-style="normal" class="text-inner-tspan" font-weight="normal">3.</tspan><tspan font-style="normal" class="text-inner-tspan" font-weight="normal"> reserve</tspan></tspan></text></g></g></g><g class="edgeLabel" transform="translate(432.97265625, 896.2999954223633)"><g class="label" data-id="L_IS_OS_0" transform="translate(0, -10.5)"><g><rect class="background" style="" x="-54.8125" y="-1" width="109.625" height="23"></rect><text y="-10.1" text-anchor="middle" style=""><tspan class="text-outer-tspan row" x="0" y="-0.1em" dy="1.1em" text-anchor="middle"><tspan font-style="normal" class="text-inner-tspan" font-weight="normal">4.</tspan><tspan font-style="normal" class="text-inner-tspan" font-weight="normal"> checkout</tspan><tspan font-style="normal" class="text-inner-tspan" font-weight="normal"> ok</tspan></tspan></text></g></g></g><g class="edgeLabel" transform="translate(398.40625, 1035.8999938964844)"><g class="label" data-id="L_OS_MQ_0" transform="translate(0, -10.5)"><g><rect class="background" style="" x="-42.203125" y="-1" width="84.40625" height="23"></rect><text y="-10.1" text-anchor="middle" style=""><tspan class="text-outer-tspan row" x="0" y="-0.1em" dy="1.1em" text-anchor="middle"><tspan font-style="normal" class="text-inner-tspan" font-weight="normal">5.</tspan><tspan font-style="normal" class="text-inner-tspan" font-weight="normal"> enqueue</tspan></tspan></text></g></g></g><g class="edgeLabel" transform="translate(490.578125, 1035.8999938964844)"><g class="label" data-id="L_MQ_OS_0" transform="translate(0, -10.5)"><g><rect class="background" style="" x="-29.96875" y="-1" width="59.9375" height="23"></rect><text y="-10.1" text-anchor="middle" style=""><tspan class="text-outer-tspan row" x="0" y="-0.1em" dy="1.1em" text-anchor="middle"><tspan font-style="normal" class="text-inner-tspan" font-weight="normal">6.</tspan><tspan font-style="normal" class="text-inner-tspan" font-weight="normal"> drain</tspan></tspan></text></g></g></g><g class="edgeLabel" transform="translate(141.0078125, 1035.8999938964844)"><g class="label" data-id="L_OS_PS_0" transform="translate(0, -10.5)"><g><rect class="background" style="" x="-35.5703125" y="-1" width="71.140625" height="23"></rect><text y="-10.1" text-anchor="middle" style=""><tspan class="text-outer-tspan row" x="0" y="-0.1em" dy="1.1em" text-anchor="middle"><tspan font-style="normal" class="text-inner-tspan" font-weight="normal">7.</tspan><tspan font-style="normal" class="text-inner-tspan" font-weight="normal"> charge</tspan></tspan></text></g></g></g><g class="edgeLabel" transform="translate(575.953125, 1035.8999938964844)"><g class="label" data-id="L_OS_DB_0" transform="translate(0, -10.5)"><g><rect class="background" style="" x="-35.40625" y="-1" width="70.8125" height="23"></rect><text y="-10.1" text-anchor="middle" style=""><tspan class="text-outer-tspan row" x="0" y="-0.1em" dy="1.1em" text-anchor="middle"><tspan font-style="normal" class="text-inner-tspan" font-weight="normal">8.</tspan><tspan font-style="normal" class="text-inner-tspan" font-weight="normal"> persist</tspan></tspan></text></g></g></g><g class="edgeLabel" transform="translate(276.390625, 1035.8999938964844)"><g class="label" data-id="L_OS_Redis_0" transform="translate(0, -10.5)"><g><rect class="background" style="" x="-59.8125" y="-1" width="119.625" height="23"></rect><text y="-10.1" text-anchor="middle" style=""><tspan class="text-outer-tspan row" x="0" y="-0.1em" dy="1.1em" text-anchor="middle"><tspan font-style="normal" class="text-inner-tspan" font-weight="normal">confirm/release</tspan></tspan></text></g></g></g><g class="edgeLabel"><g class="label" data-id="L_Core_OBS_0" transform="translate(0, 0)"><text y="-10.1" text-anchor="middle"><tspan class="text-outer-tspan row" x="0" y="-0.1em" dy="1.1em" text-anchor="middle"></tspan></text></g></g><g><rect class="background" style="stroke: none"></rect></g></g><g class="nodes"><g class="node default" id="gfc43907c-6290-416f-9348-27cb42744b64-light-flowchart-Users-0" data-look="classic" transform="translate(413.96875, 25)"><g class="basic label-container outer-path"><path d="M-77.734375 -17 C-20.405743322782747 -17, 36.922888354434505 -17, 77.734375 -17 C77.734375 -17, 77.734375 -17, 77.734375 -17 C78.07208183603707 -16.98917039907477, 78.40978867207414 -16.978340798149542, 78.82356873967211 -16.965071676755716 C79.24960276157141 -16.923972687043968, 79.67563678347072 -16.88287369733222, 79.9082867486366 -16.860430234995185 C80.1990993430021 -16.813413910023524, 80.48991193736761 -16.766397585051863, 80.98407168792333 -16.686505668848113 C81.2834234786828 -16.618180576060258, 81.58277526944228 -16.549855483272403, 82.04650292646163 -16.4440126716635 C82.39645032082684 -16.340150121927262, 82.74639771519206 -16.236287572191024, 83.09121470640156 -16.133947699181366 C83.35334267330224 -16.03748218427755, 83.61547064020293 -15.941016669373736, 84.11391408294936 -15.757584874882369 C84.35719701450452 -15.649890737814657, 84.60047994605966 -15.542196600746944, 85.11039856499849 -15.316470754341125 C85.39702611546895 -15.166937344854391, 85.68365366593942 -15.017403935367659, 86.07657338406693 -14.812417970097622 C86.36423384627489 -14.638036507426646, 86.65189430848284 -14.463655044755669, 87.00846832057933 -14.247497783161291 C87.2954987515345 -14.047277779874063, 87.58252918248965 -13.847057776586835, 87.90225401835067 -13.624031571755262 C88.1483867770906 -13.427747246527968, 88.39451953583051 -13.231462921300672, 88.7542577202324 -12.944581292275288 C88.9740142120068 -12.745004260883942, 89.19377070378117 -12.545427229492596, 89.56097836025927 -12.21193895166137 C89.85103217598956 -11.912434573058697, 90.14108599171985 -11.612930194456023, 90.31910095028036 -11.42911513444239 C90.54220402721569 -11.167045565349435, 90.76530710415103 -10.904975996256479, 91.02551020195651 -10.59932663159847 C91.2710947464863 -10.270265715140818, 91.51667929101609 -9.941204798683167, 91.67730332814824 -9.725983222076888 C91.8895112004531 -9.39997494442415, 92.10171907275796 -9.073966666771414, 92.27180197109088 -8.812673661278927 C92.46336082788285 -8.47254151360716, 92.65491968467481 -8.132409365935393, 92.806563208341 -7.863150934094199 C92.90836826029671 -7.651750565429009, 93.01017331225242 -7.440350196763819, 93.27938959126881 -6.881316833080699 C93.43894456370866 -6.487212966368748, 93.5984995361485 -6.093109099656798, 93.68833817484592 -5.871205925162238 C93.77314042871193 -5.6157950479221155, 93.85794268257793 -5.360384170681993, 94.03172850162323 -4.836968972727556 C94.10492932053847 -4.557822524768158, 94.1781301394537 -4.27867607680876, 94.308149507091 -3.7828558772573464 C94.37277903021567 -3.4509969354667485, 94.43740855334032 -3.119137993676151, 94.51646531804565 -2.713198215567453 C94.57054145599194 -2.2937943681971933, 94.62461759393825 -1.874390520826934, 94.65581992013637 -1.632391440430593 C94.68051027110768 -1.2478192943598572, 94.70520062207899 -0.8632471482891214, 94.7256406754117 -0.5448768187181379 C94.7256406754117 -0.11899032364406731, 94.7256406754117 0.30689617143000325, 94.7256406754117 0.5448768187181336 C94.70357246211194 0.8886070540029702, 94.68150424881219 1.2323372892878068, 94.65581992013637 1.6323914404305815 C94.61149829674005 1.976141199197866, 94.56717667334375 2.3198909579651503, 94.51646531804565 2.7131982155674415 C94.460675321252 2.999668057882821, 94.40488532445836 3.2861379001982005, 94.308149507091 3.782855877257343 C94.24100980314962 4.03888866691759, 94.17387009920824 4.294921456577837, 94.03172850162323 4.836968972727545 C93.92127613893416 5.169633890952915, 93.81082377624509 5.502298809178285, 93.68833817484592 5.871205925162227 C93.55336664349187 6.204588217103794, 93.4183951121378 6.53797050904536, 93.27938959126881 6.881316833080694 C93.12869268577398 7.194242181737934, 92.97799578027916 7.507167530395174, 92.806563208341 7.863150934094196 C92.63030721187113 8.17611130368146, 92.45405121540125 8.489071673268723, 92.27180197109088 8.812673661278923 C92.14305192998988 9.010468298636953, 92.01430188888887 9.208262935994982, 91.67730332814826 9.725983222076879 C91.4940472224966 9.971529708675416, 91.31079111684495 10.217076195273954, 91.02551020195651 10.599326631598467 C90.74434035682349 10.929604730709137, 90.46317051169046 11.259882829819807, 90.31910095028037 11.42911513444238 C90.15509520703793 11.598464529462133, 89.99108946379549 11.767813924481887, 89.56097836025927 12.211938951661365 C89.24857425660183 12.495656092843424, 88.93617015294438 12.779373234025481, 88.75425772023242 12.944581292275275 C88.56385138932494 13.09642527424873, 88.37344505841745 13.248269256222184, 87.90225401835067 13.62403157175526 C87.71805753784986 13.7525190628155, 87.53386105734906 13.88100655387574, 87.00846832057934 14.247497783161286 C86.80442059737055 14.371192712087971, 86.60037287416178 14.494887641014659, 86.07657338406695 14.81241797009762 C85.70282971703925 15.007399801791728, 85.32908605001154 15.202381633485835, 85.11039856499849 15.316470754341124 C84.88486686903481 15.416306945984184, 84.65933517307114 15.516143137627244, 84.11391408294936 15.757584874882367 C83.76950049499543 15.884332258973721, 83.4250869070415 16.011079643065074, 83.09121470640156 16.133947699181363 C82.87335517641343 16.198607264113832, 82.65549564642528 16.263266829046305, 82.04650292646164 16.444012671663497 C81.68119132976909 16.527392659727617, 81.31587973307654 16.610772647791737, 80.98407168792333 16.68650566884811 C80.7560816195098 16.72336533501982, 80.52809155109627 16.760225001191536, 79.90828674863661 16.86043023499518 C79.64504885448025 16.88582447805456, 79.38181096032389 16.911218721113936, 78.82356873967211 16.965071676755716 C78.42002258263895 16.978012616556825, 78.01647642560579 16.990953556357937, 77.734375 17 C77.734375 17, 77.734375 17, 77.734375 17 C44.26185950810732 17, 10.789344016214642 17, -77.734375 17 C-78.1090554951296 16.987984725792536, -78.48373599025918 16.97596945158507, -78.82356873967211 16.965071676755716 C-79.15973331549411 16.93264228442322, -79.4958978913161 16.900212892090728, -79.9082867486366 16.86043023499518 C-80.12357820573698 16.82562358182138, -80.33886966283735 16.790816928647576, -80.98407168792333 16.68650566884811 C-81.30519905365196 16.61321044317245, -81.6263264193806 16.53991521749679, -82.04650292646161 16.4440126716635 C-82.28184086298091 16.374165607418607, -82.51717879950021 16.304318543173718, -83.09121470640154 16.13394769918137 C-83.321070228495 16.049358742289822, -83.55092575058846 15.964769785398277, -84.11391408294936 15.757584874882369 C-84.34056971679952 15.6572511492774, -84.56722535064966 15.556917423672429, -85.11039856499849 15.316470754341127 C-85.47076508197944 15.128467773257935, -85.83113159896038 14.940464792174742, -86.07657338406693 14.812417970097624 C-86.4471287910822 14.587785104739682, -86.81768419809747 14.36315223938174, -87.00846832057931 14.247497783161299 C-87.3643052379131 13.999281353561136, -87.72014215524688 13.751064923960973, -87.90225401835067 13.624031571755264 C-88.21839214835664 13.371919825864454, -88.53453027836262 13.119808079973645, -88.7542577202324 12.94458129227529 C-89.03843793695849 12.68649633844116, -89.32261815368459 12.428411384607028, -89.56097836025926 12.211938951661377 C-89.84399659779325 11.919699385178093, -90.12701483532724 11.62745981869481, -90.31910095028036 11.429115134442386 C-90.53965556820961 11.170039130309405, -90.76021018613886 10.910963126176425, -91.02551020195651 10.599326631598473 C-91.220811170162 10.33764112648735, -91.41611213836747 10.075955621376227, -91.67730332814824 9.72598322207689 C-91.87753723541407 9.418370170183925, -92.0777711426799 9.11075711829096, -92.27180197109088 8.812673661278936 C-92.39346320377358 8.596651823115119, -92.51512443645628 8.380629984951302, -92.806563208341 7.863150934094201 C-92.9865668477307 7.489369525440595, -93.16657048712041 7.115588116786988, -93.27938959126881 6.881316833080701 C-93.42480589812249 6.522135743719094, -93.57022220497616 6.162954654357487, -93.68833817484592 5.87120592516224 C-93.80672877056014 5.514632313850799, -93.92511936627436 5.15805870253936, -94.03172850162323 4.8369689727275516 C-94.10600074965123 4.553736701200881, -94.18027299767922 4.270504429674212, -94.308149507091 3.782855877257349 C-94.3788967150649 3.4195839167390742, -94.44964392303879 3.056311956220799, -94.51646531804565 2.713198215567455 C-94.55759588237751 2.3941976807581042, -94.59872644670938 2.075197145948753, -94.65581992013637 1.6323914404306026 C-94.67722647138288 1.2989671257090847, -94.69863302262938 0.9655428109875668, -94.7256406754117 0.54487681871814 C-94.7256406754117 0.3171068534318173, -94.7256406754117 0.08933688814549462, -94.7256406754117 -0.5448768187181317 C-94.70428794239972 -0.8774628709955258, -94.68293520938774 -1.21004892327292, -94.65581992013637 -1.6323914404305793 C-94.60087764983658 -2.0585128392973644, -94.54593537953677 -2.4846342381641495, -94.51646531804565 -2.713198215567447 C-94.43872888895991 -3.1123583493225633, -94.3609924598742 -3.5115184830776798, -94.308149507091 -3.782855877257341 C-94.20918471450672 -4.160251522993619, -94.11021992192245 -4.5376471687298965, -94.03172850162323 -4.836968972727544 C-93.93405073828718 -5.131158833057609, -93.83637297495115 -5.425348693387673, -93.68833817484594 -5.871205925162218 C-93.53550781543194 -6.248699867688758, -93.38267745601796 -6.6261938102153, -93.27938959126881 -6.881316833080692 C-93.15676082706582 -7.135958085783421, -93.03413206286284 -7.390599338486148, -92.806563208341 -7.863150934094194 C-92.6556429729873 -8.131125094295687, -92.50472273763359 -8.39909925449718, -92.27180197109088 -8.812673661278929 C-92.10056759187606 -9.075735650621926, -91.92933321266123 -9.338797639964923, -91.67730332814826 -9.725983222076884 C-91.45217527170384 -10.02763430812454, -91.22704721525942 -10.329285394172194, -91.02551020195651 -10.599326631598467 C-90.77218113245796 -10.896901371463878, -90.5188520629594 -11.194476111329289, -90.31910095028037 -11.42911513444238 C-90.0783175080944 -11.677743807187648, -89.83753406590841 -11.926372479932917, -89.56097836025927 -12.21193895166136 C-89.35578952834011 -12.398286019811344, -89.15060069642097 -12.58463308796133, -88.75425772023242 -12.944581292275274 C-88.43362551956903 -13.200276939923121, -88.11299331890567 -13.455972587570967, -87.90225401835067 -13.624031571755259 C-87.6523666737618 -13.798342165891656, -87.40247932917293 -13.972652760028055, -87.00846832057934 -14.247497783161284 C-86.73632397850416 -14.412473282624935, -86.46417963642897 -14.577448782088588, -86.07657338406695 -14.812417970097618 C-85.7010286608977 -15.008339411627139, -85.32548393772845 -15.20426085315666, -85.11039856499849 -15.316470754341124 C-84.82648679238564 -15.442150074133329, -84.54257501977278 -15.567829393925534, -84.11391408294936 -15.757584874882365 C-83.75965679371117 -15.887954832040505, -83.40539950447298 -16.018324789198644, -83.09121470640156 -16.133947699181363 C-82.73185117214709 -16.240604909810404, -82.37248763789262 -16.347262120439446, -82.04650292646164 -16.444012671663494 C-81.77914143469377 -16.50503618746273, -81.5117799429259 -16.56605970326196, -80.98407168792333 -16.68650566884811 C-80.61131930894982 -16.746769382742677, -80.2385669299763 -16.80703309663724, -79.90828674863661 -16.86043023499518 C-79.5984115833162 -16.89032351951423, -79.2885364179958 -16.920216804033277, -78.82356873967213 -16.965071676755716 C-78.43155346485928 -16.977642843607523, -78.03953819004643 -16.990214010459326, -77.734375 -17 C-77.734375 -17, -77.734375 -17, -77.734375 -17" stroke="none" stroke-width="0" fill="#ECECFF" style=""></path><path d="M-77.734375 -17 C-32.83826445039142 -17, 12.057846099217159 -17, 77.734375 -17 M-77.734375 -17 C-22.6452527728619 -17, 32.4438694542762 -17, 77.734375 -17 M77.734375 -17 C77.734375 -17, 77.734375 -17, 77.734375 -17 M77.734375 -17 C77.734375 -17, 77.734375 -17, 77.734375 -17 M77.734375 -17 C78.16046745681719 -16.986336044248528, 78.58655991363436 -16.972672088497053, 78.82356873967211 -16.965071676755716 M77.734375 -17 C78.05886085051853 -16.989594370347262, 78.38334670103707 -16.979188740694525, 78.82356873967211 -16.965071676755716 M78.82356873967211 -16.965071676755716 C79.14779193356252 -16.93379425517655, 79.47201512745292 -16.902516833597385, 79.9082867486366 -16.860430234995185 M78.82356873967211 -16.965071676755716 C79.19986399443964 -16.928770926089552, 79.57615924920717 -16.892470175423384, 79.9082867486366 -16.860430234995185 M79.9082867486366 -16.860430234995185 C80.18082099697911 -16.81636901125783, 80.4533552453216 -16.77230778752048, 80.98407168792333 -16.686505668848113 M79.9082867486366 -16.860430234995185 C80.13688946044901 -16.823471521389862, 80.36549217226141 -16.78651280778454, 80.98407168792333 -16.686505668848113 M80.98407168792333 -16.686505668848113 C81.33721967287356 -16.605901945789192, 81.69036765782378 -16.52529822273027, 82.04650292646163 -16.4440126716635 M80.98407168792333 -16.686505668848113 C81.3678157645296 -16.598918587526857, 81.75155984113587 -16.511331506205604, 82.04650292646163 -16.4440126716635 M82.04650292646163 -16.4440126716635 C82.41147028295326 -16.335692276009535, 82.77643763944488 -16.227371880355566, 83.09121470640156 -16.133947699181366 M82.04650292646163 -16.4440126716635 C82.43841942441111 -16.327693912283774, 82.83033592236059 -16.211375152904047, 83.09121470640156 -16.133947699181366 M83.09121470640156 -16.133947699181366 C83.45930934662829 -15.998485468948374, 83.82740398685502 -15.863023238715382, 84.11391408294936 -15.757584874882369 M83.09121470640156 -16.133947699181366 C83.46383269574594 -15.9968208346597, 83.83645068509033 -15.85969397013803, 84.11391408294936 -15.757584874882369 M84.11391408294936 -15.757584874882369 C84.47318458096268 -15.59854648279254, 84.832455078976 -15.439508090702711, 85.11039856499849 -15.316470754341125 M84.11391408294936 -15.757584874882369 C84.43998278965097 -15.613243930910087, 84.76605149635259 -15.468902986937804, 85.11039856499849 -15.316470754341125 M85.11039856499849 -15.316470754341125 C85.40787576772703 -15.161277088220887, 85.70535297045556 -15.006083422100648, 86.07657338406693 -14.812417970097622 M85.11039856499849 -15.316470754341125 C85.33360373834262 -15.20002475837723, 85.55680891168674 -15.083578762413335, 86.07657338406693 -14.812417970097622 M86.07657338406693 -14.812417970097622 C86.29379415118731 -14.680737464538332, 86.51101491830768 -14.54905695897904, 87.00846832057933 -14.247497783161291 M86.07657338406693 -14.812417970097622 C86.2813636983321 -14.688272878108611, 86.48615401259725 -14.5641277861196, 87.00846832057933 -14.247497783161291 M87.00846832057933 -14.247497783161291 C87.20856675341693 -14.107917778535324, 87.40866518625455 -13.968337773909356, 87.90225401835067 -13.624031571755262 M87.00846832057933 -14.247497783161291 C87.36231651522381 -14.000668600418761, 87.71616470986831 -13.75383941767623, 87.90225401835067 -13.624031571755262 M87.90225401835067 -13.624031571755262 C88.20497637909912 -13.382618544838717, 88.50769873984757 -13.141205517922174, 88.7542577202324 -12.944581292275288 M87.90225401835067 -13.624031571755262 C88.1243881390557 -13.446885521730215, 88.34652225976072 -13.269739471705165, 88.7542577202324 -12.944581292275288 M88.7542577202324 -12.944581292275288 C88.97501943078497 -12.744091347786227, 89.19578114133753 -12.543601403297169, 89.56097836025927 -12.21193895166137 M88.7542577202324 -12.944581292275288 C88.93279287375645 -12.782440389626055, 89.11132802728049 -12.62029948697682, 89.56097836025927 -12.21193895166137 M89.56097836025927 -12.21193895166137 C89.8352231779264 -11.928758661501789, 90.10946799559353 -11.645578371342207, 90.31910095028036 -11.42911513444239 M89.56097836025927 -12.21193895166137 C89.73855325023531 -12.028578298591505, 89.91612814021136 -11.84521764552164, 90.31910095028036 -11.42911513444239 M90.31910095028036 -11.42911513444239 C90.48341853147411 -11.23609835363696, 90.64773611266787 -11.043081572831529, 91.02551020195651 -10.59932663159847 M90.31910095028036 -11.42911513444239 C90.47912934870754 -11.241136671775987, 90.63915774713473 -11.053158209109583, 91.02551020195651 -10.59932663159847 M91.02551020195651 -10.59932663159847 C91.2498059629813 -10.298790745589438, 91.47410172400609 -9.998254859580406, 91.67730332814824 -9.725983222076888 M91.02551020195651 -10.59932663159847 C91.2258835025832 -10.330844663141914, 91.4262568032099 -10.062362694685357, 91.67730332814824 -9.725983222076888 M91.67730332814824 -9.725983222076888 C91.83062920990366 -9.490433493936447, 91.98395509165907 -9.254883765796006, 92.27180197109088 -8.812673661278927 M91.67730332814824 -9.725983222076888 C91.86051871341279 -9.444515190090925, 92.04373409867733 -9.163047158104964, 92.27180197109088 -8.812673661278927 M92.27180197109088 -8.812673661278927 C92.38808369962666 -8.606203677461815, 92.50436542816244 -8.399733693644702, 92.806563208341 -7.863150934094199 M92.27180197109088 -8.812673661278927 C92.46371203513706 -8.471917909563711, 92.65562209918325 -8.131162157848495, 92.806563208341 -7.863150934094199 M92.806563208341 -7.863150934094199 C92.95536705043496 -7.554156572093921, 93.10417089252893 -7.245162210093643, 93.27938959126881 -6.881316833080699 M92.806563208341 -7.863150934094199 C92.9520949046874 -7.56095125275145, 93.09762660103378 -7.258751571408702, 93.27938959126881 -6.881316833080699 M93.27938959126881 -6.881316833080699 C93.41506405227996 -6.546198291295912, 93.55073851329111 -6.211079749511126, 93.68833817484592 -5.871205925162238 M93.27938959126881 -6.881316833080699 C93.43414808980019 -6.499060349656157, 93.58890658833158 -6.116803866231617, 93.68833817484592 -5.871205925162238 M93.68833817484592 -5.871205925162238 C93.80622483806897 -5.516150078223485, 93.924111501292 -5.161094231284732, 94.03172850162323 -4.836968972727556 M93.68833817484592 -5.871205925162238 C93.77138780762562 -5.621073663391852, 93.85443744040529 -5.370941401621466, 94.03172850162323 -4.836968972727556 M94.03172850162323 -4.836968972727556 C94.13317728137628 -4.450100807349933, 94.23462606112932 -4.063232641972309, 94.308149507091 -3.7828558772573464 M94.03172850162323 -4.836968972727556 C94.09310368730983 -4.602918789530813, 94.15447887299644 -4.368868606334071, 94.308149507091 -3.7828558772573464 M94.308149507091 -3.7828558772573464 C94.35389785622084 -3.547947773392607, 94.39964620535069 -3.3130396695278677, 94.51646531804565 -2.713198215567453 M94.308149507091 -3.7828558772573464 C94.37517247181044 -3.438707118731621, 94.44219543652989 -3.094558360205895, 94.51646531804565 -2.713198215567453 M94.51646531804565 -2.713198215567453 C94.55301197579497 -2.4297495550175143, 94.58955863354431 -2.1463008944675757, 94.65581992013637 -1.632391440430593 M94.51646531804565 -2.713198215567453 C94.56900285071282 -2.305727486910171, 94.62154038337998 -1.8982567582528884, 94.65581992013637 -1.632391440430593 M94.65581992013637 -1.632391440430593 C94.67208020218476 -1.379124422463366, 94.68834048423317 -1.1258574044961391, 94.7256406754117 -0.5448768187181379 M94.65581992013637 -1.632391440430593 C94.67720207779169 -1.299347075581978, 94.69858423544702 -0.9663027107333633, 94.7256406754117 -0.5448768187181379 M94.7256406754117 -0.5448768187181379 C94.7256406754117 -0.2210335793046253, 94.7256406754117 0.10280966010888726, 94.7256406754117 0.5448768187181336 M94.7256406754117 -0.5448768187181379 C94.7256406754117 -0.17977650561481417, 94.7256406754117 0.18532380748850952, 94.7256406754117 0.5448768187181336 M94.7256406754117 0.5448768187181336 C94.70860575246829 0.8102094939040361, 94.69157082952488 1.0755421690899385, 94.65581992013637 1.6323914404305815 M94.7256406754117 0.5448768187181336 C94.70510475832478 0.8647403036407821, 94.68456884123786 1.1846037885634306, 94.65581992013637 1.6323914404305815 M94.65581992013637 1.6323914404305815 C94.6228150908215 1.8883703790559312, 94.58981026150664 2.1443493176812813, 94.51646531804565 2.7131982155674415 M94.65581992013637 1.6323914404305815 C94.61452109483524 1.9526969740905784, 94.57322226953413 2.273002507750575, 94.51646531804565 2.7131982155674415 M94.51646531804565 2.7131982155674415 C94.43808190368208 3.115680481983937, 94.35969848931849 3.5181627484004325, 94.308149507091 3.782855877257343 M94.51646531804565 2.7131982155674415 C94.43741973649763 3.1190805705269082, 94.35837415494963 3.524962925486375, 94.308149507091 3.782855877257343 M94.308149507091 3.782855877257343 C94.2077699761881 4.165646533354007, 94.10739044528519 4.548437189450671, 94.03172850162323 4.836968972727545 M94.308149507091 3.782855877257343 C94.24035367687756 4.0413907607599, 94.1725578466641 4.299925644262458, 94.03172850162323 4.836968972727545 M94.03172850162323 4.836968972727545 C93.95903171411882 5.055920114030711, 93.8863349266144 5.274871255333876, 93.68833817484592 5.871205925162227 M94.03172850162323 4.836968972727545 C93.95506364068373 5.067871318990561, 93.87839877974422 5.298773665253577, 93.68833817484592 5.871205925162227 M93.68833817484592 5.871205925162227 C93.59416809222938 6.103807849879763, 93.49999800961285 6.336409774597299, 93.27938959126881 6.881316833080694 M93.68833817484592 5.871205925162227 C93.55887985480827 6.190970478561587, 93.42942153477061 6.510735031960946, 93.27938959126881 6.881316833080694 M93.27938959126881 6.881316833080694 C93.09689633744333 7.260267979379426, 92.91440308361784 7.639219125678158, 92.806563208341 7.863150934094196 M93.27938959126881 6.881316833080694 C93.15177954247541 7.14630182981783, 93.02416949368201 7.411286826554965, 92.806563208341 7.863150934094196 M92.806563208341 7.863150934094196 C92.66459789178167 8.115224729192434, 92.52263257522232 8.367298524290671, 92.27180197109088 8.812673661278923 M92.806563208341 7.863150934094196 C92.6633481798339 8.117443719302749, 92.52013315132679 8.3717365045113, 92.27180197109088 8.812673661278923 M92.27180197109088 8.812673661278923 C92.0393089729391 9.16984533955154, 91.8068159747873 9.527017017824155, 91.67730332814826 9.725983222076879 M92.27180197109088 8.812673661278923 C92.14384029650857 9.009257155958185, 92.01587862192626 9.205840650637448, 91.67730332814826 9.725983222076879 M91.67730332814826 9.725983222076879 C91.47070234016577 10.002809724236197, 91.26410135218329 10.279636226395517, 91.02551020195651 10.599326631598467 M91.67730332814826 9.725983222076879 C91.5425833021177 9.906495783710966, 91.40786327608714 10.087008345345051, 91.02551020195651 10.599326631598467 M91.02551020195651 10.599326631598467 C90.77039468240206 10.89899983735143, 90.51527916284759 11.198673043104394, 90.31910095028037 11.42911513444238 M91.02551020195651 10.599326631598467 C90.76166667802396 10.909252247931466, 90.49782315409139 11.219177864264463, 90.31910095028037 11.42911513444238 M90.31910095028037 11.42911513444238 C90.13178436800301 11.622534884621171, 89.94446778572565 11.81595463479996, 89.56097836025927 12.211938951661365 M90.31910095028037 11.42911513444238 C90.1359506772818 11.618232828230465, 89.95280040428322 11.80735052201855, 89.56097836025927 12.211938951661365 M89.56097836025927 12.211938951661365 C89.37304138602016 12.382618339125477, 89.18510441178104 12.55329772658959, 88.75425772023242 12.944581292275275 M89.56097836025927 12.211938951661365 C89.30093868955724 12.448100100320284, 89.04089901885523 12.684261248979203, 88.75425772023242 12.944581292275275 M88.75425772023242 12.944581292275275 C88.41610235284779 13.214251199072272, 88.07794698546314 13.483921105869271, 87.90225401835067 13.62403157175526 M88.75425772023242 12.944581292275275 C88.57808479589757 13.085074511273909, 88.40191187156272 13.225567730272543, 87.90225401835067 13.62403157175526 M87.90225401835067 13.62403157175526 C87.69307286210368 13.769947291046854, 87.48389170585669 13.91586301033845, 87.00846832057934 14.247497783161286 M87.90225401835067 13.62403157175526 C87.70183703245006 13.763833785208043, 87.50142004654944 13.903635998660825, 87.00846832057934 14.247497783161286 M87.00846832057934 14.247497783161286 C86.77337141363758 14.39001490973216, 86.53827450669581 14.532532036303035, 86.07657338406695 14.81241797009762 M87.00846832057934 14.247497783161286 C86.69807770943555 14.435658395694352, 86.38768709829175 14.62381900822742, 86.07657338406695 14.81241797009762 M86.07657338406695 14.81241797009762 C85.84650301787833 14.932445532771117, 85.6164326516897 15.052473095444617, 85.11039856499849 15.316470754341124 M86.07657338406695 14.81241797009762 C85.81466272272584 14.949056594357488, 85.55275206138474 15.085695218617358, 85.11039856499849 15.316470754341124 M85.11039856499849 15.316470754341124 C84.78099473118553 15.462288060152574, 84.45159089737255 15.608105365964022, 84.11391408294936 15.757584874882367 M85.11039856499849 15.316470754341124 C84.7895419769771 15.45850444798568, 84.4686853889557 15.600538141630237, 84.11391408294936 15.757584874882367 M84.11391408294936 15.757584874882367 C83.87734560374034 15.844644262046337, 83.64077712453131 15.93170364921031, 83.09121470640156 16.133947699181363 M84.11391408294936 15.757584874882367 C83.90718764254413 15.833662115909759, 83.7004612021389 15.909739356937152, 83.09121470640156 16.133947699181363 M83.09121470640156 16.133947699181363 C82.70751904157 16.247826558443727, 82.32382337673845 16.36170541770609, 82.04650292646164 16.444012671663497 M83.09121470640156 16.133947699181363 C82.84149102309829 16.208064377559413, 82.59176733979501 16.28218105593746, 82.04650292646164 16.444012671663497 M82.04650292646164 16.444012671663497 C81.7745686683974 16.50607989152979, 81.50263441033313 16.568147111396083, 80.98407168792333 16.68650566884811 M82.04650292646164 16.444012671663497 C81.66169430613915 16.531842728141182, 81.27688568581665 16.619672784618867, 80.98407168792333 16.68650566884811 M80.98407168792333 16.68650566884811 C80.57077560144171 16.753324174951437, 80.15747951496009 16.820142681054765, 79.90828674863661 16.86043023499518 M80.98407168792333 16.68650566884811 C80.70428259767664 16.731739799162394, 80.42449350742993 16.776973929476682, 79.90828674863661 16.86043023499518 M79.90828674863661 16.86043023499518 C79.4815377884481 16.901598193943855, 79.05478882825959 16.942766152892524, 78.82356873967211 16.965071676755716 M79.90828674863661 16.86043023499518 C79.53567562474294 16.896375581986764, 79.16306450084927 16.932320928978346, 78.82356873967211 16.965071676755716 M78.82356873967211 16.965071676755716 C78.403301894709 16.978548816473896, 77.9830350497459 16.992025956192073, 77.734375 17 M78.82356873967211 16.965071676755716 C78.51553392147825 16.974949753821793, 78.2074991032844 16.98482783088787, 77.734375 17 M77.734375 17 C77.734375 17, 77.734375 17, 77.734375 17 M77.734375 17 C77.734375 17, 77.734375 17, 77.734375 17 M77.734375 17 C17.553801141024586 17, -42.62677271795083 17, -77.734375 17 M77.734375 17 C34.246927495667975 17, -9.240520008664049 17, -77.734375 17 M-77.734375 17 C-78.15273180043908 16.986584111692032, -78.57108860087817 16.97316822338406, -78.82356873967211 16.965071676755716 M-77.734375 17 C-78.02649430263818 16.99063230254012, -78.31861360527638 16.981264605080245, -78.82356873967211 16.965071676755716 M-78.82356873967211 16.965071676755716 C-79.25090354655597 16.92384720188093, -79.67823835343982 16.88262272700614, -79.9082867486366 16.86043023499518 M-78.82356873967211 16.965071676755716 C-79.24336786899093 16.924574159632648, -79.66316699830973 16.884076642509584, -79.9082867486366 16.86043023499518 M-79.9082867486366 16.86043023499518 C-80.31215005623342 16.795136747429655, -80.71601336383024 16.72984325986413, -80.98407168792333 16.68650566884811 M-79.9082867486366 16.86043023499518 C-80.24302455586374 16.806312422253164, -80.57776236309088 16.752194609511143, -80.98407168792333 16.68650566884811 M-80.98407168792333 16.68650566884811 C-81.23336638556873 16.62960578091048, -81.48266108321413 16.572705892972852, -82.04650292646161 16.4440126716635 M-80.98407168792333 16.68650566884811 C-81.20138516226864 16.63690528643174, -81.41869863661394 16.587304904015376, -82.04650292646161 16.4440126716635 M-82.04650292646161 16.4440126716635 C-82.44916419820946 16.32450491982089, -82.8518254699573 16.204997167978274, -83.09121470640154 16.13394769918137 M-82.04650292646161 16.4440126716635 C-82.3652435462449 16.34941212881548, -82.68398416602817 16.25481158596746, -83.09121470640154 16.13394769918137 M-83.09121470640154 16.13394769918137 C-83.38822979171344 16.02464340220924, -83.68524487702534 15.91533910523711, -84.11391408294936 15.757584874882369 M-83.09121470640154 16.13394769918137 C-83.4714290780313 15.994025295758496, -83.85164344966107 15.854102892335622, -84.11391408294936 15.757584874882369 M-84.11391408294936 15.757584874882369 C-84.34570108627237 15.65497964422843, -84.57748808959539 15.552374413574492, -85.11039856499849 15.316470754341127 M-84.11391408294936 15.757584874882369 C-84.4241266134353 15.620262989764006, -84.73433914392125 15.482941104645645, -85.11039856499849 15.316470754341127 M-85.11039856499849 15.316470754341127 C-85.34514288109305 15.194004794995502, -85.57988719718762 15.071538835649875, -86.07657338406693 14.812417970097624 M-85.11039856499849 15.316470754341127 C-85.41047706846793 15.159919991290574, -85.71055557193738 15.003369228240018, -86.07657338406693 14.812417970097624 M-86.07657338406693 14.812417970097624 C-86.32729797631266 14.66042724885701, -86.5780225685584 14.508436527616396, -87.00846832057931 14.247497783161299 M-86.07657338406693 14.812417970097624 C-86.44444362272395 14.589412869578254, -86.81231386138097 14.366407769058887, -87.00846832057931 14.247497783161299 M-87.00846832057931 14.247497783161299 C-87.33691798181488 14.018385517840045, -87.66536764305044 13.789273252518791, -87.90225401835067 13.624031571755264 M-87.00846832057931 14.247497783161299 C-87.22529567271903 14.096248408613425, -87.44212302485876 13.944999034065551, -87.90225401835067 13.624031571755264 M-87.90225401835067 13.624031571755264 C-88.19298463023378 13.392181645444992, -88.48371524211689 13.160331719134719, -88.7542577202324 12.94458129227529 M-87.90225401835067 13.624031571755264 C-88.21702918490057 13.373006752950698, -88.53180435145046 13.121981934146131, -88.7542577202324 12.94458129227529 M-88.7542577202324 12.94458129227529 C-88.9816341861949 12.738084001939773, -89.20901065215737 12.531586711604259, -89.56097836025926 12.211938951661377 M-88.7542577202324 12.94458129227529 C-88.99925039857797 12.7220854239529, -89.24424307692354 12.499589555630509, -89.56097836025926 12.211938951661377 M-89.56097836025926 12.211938951661377 C-89.71268597228912 12.055288386813952, -89.86439358431899 11.898637821966528, -90.31910095028036 11.429115134442386 M-89.56097836025926 12.211938951661377 C-89.74347282774967 12.023498430903102, -89.92596729524007 11.835057910144828, -90.31910095028036 11.429115134442386 M-90.31910095028036 11.429115134442386 C-90.60008898305925 11.099050602468301, -90.88107701583814 10.768986070494217, -91.02551020195651 10.599326631598473 M-90.31910095028036 11.429115134442386 C-90.48153836122174 11.238306908600117, -90.64397577216312 11.04749868275785, -91.02551020195651 10.599326631598473 M-91.02551020195651 10.599326631598473 C-91.26299904053343 10.281113223583674, -91.50048787911035 9.962899815568875, -91.67730332814824 9.72598322207689 M-91.02551020195651 10.599326631598473 C-91.27089045296327 10.270539449850148, -91.51627070397004 9.941752268101824, -91.67730332814824 9.72598322207689 M-91.67730332814824 9.72598322207689 C-91.87230506746812 9.426408185182721, -92.067306806788 9.126833148288553, -92.27180197109088 8.812673661278936 M-91.67730332814824 9.72598322207689 C-91.80130481150877 9.535483644574523, -91.9253062948693 9.344984067072156, -92.27180197109088 8.812673661278936 M-92.27180197109088 8.812673661278936 C-92.39240349688595 8.598533440001061, -92.51300502268101 8.384393218723188, -92.806563208341 7.863150934094201 M-92.27180197109088 8.812673661278936 C-92.38439348727638 8.612756023164255, -92.4969850034619 8.412838385049577, -92.806563208341 7.863150934094201 M-92.806563208341 7.863150934094201 C-92.98683307224842 7.4888167045332645, -93.16710293615584 7.114482474972328, -93.27938959126881 6.881316833080701 M-92.806563208341 7.863150934094201 C-92.96669577068207 7.53063224210504, -93.12682833302311 7.198113550115878, -93.27938959126881 6.881316833080701 M-93.27938959126881 6.881316833080701 C-93.39246729546068 6.6020127175181, -93.50554499965254 6.3227086019555, -93.68833817484592 5.87120592516224 M-93.27938959126881 6.881316833080701 C-93.43245754646243 6.503236024384872, -93.58552550165605 6.125155215689042, -93.68833817484592 5.87120592516224 M-93.68833817484592 5.87120592516224 C-93.79954502694278 5.536268605052189, -93.91075187903964 5.201331284942138, -94.03172850162323 4.8369689727275516 M-93.68833817484592 5.87120592516224 C-93.79044421544074 5.563678799278934, -93.89255025603556 5.256151673395628, -94.03172850162323 4.8369689727275516 M-94.03172850162323 4.8369689727275516 C-94.08851257071426 4.6204267069122436, -94.1452966398053 4.403884441096935, -94.308149507091 3.782855877257349 M-94.03172850162323 4.8369689727275516 C-94.1350808160853 4.442841804507235, -94.23843313054738 4.048714636286919, -94.308149507091 3.782855877257349 M-94.308149507091 3.782855877257349 C-94.37242411416817 3.45281935435911, -94.43669872124534 3.1227828314608703, -94.51646531804565 2.713198215567455 M-94.308149507091 3.782855877257349 C-94.37385137814667 3.445490655481884, -94.43955324920232 3.1081254337064186, -94.51646531804565 2.713198215567455 M-94.51646531804565 2.713198215567455 C-94.54502385647282 2.4917038310475994, -94.57358239489999 2.2702094465277436, -94.65581992013637 1.6323914404306026 M-94.51646531804565 2.713198215567455 C-94.55487458462818 2.4153035287208637, -94.59328385121073 2.1174088418742727, -94.65581992013637 1.6323914404306026 M-94.65581992013637 1.6323914404306026 C-94.68246083632252 1.2174376666709072, -94.70910175250866 0.8024838929112119, -94.7256406754117 0.54487681871814 M-94.65581992013637 1.6323914404306026 C-94.67382388805251 1.3519651075952819, -94.69182785596867 1.071538774759961, -94.7256406754117 0.54487681871814 M-94.7256406754117 0.54487681871814 C-94.7256406754117 0.15153530353889055, -94.7256406754117 -0.24180621164035887, -94.7256406754117 -0.5448768187181317 M-94.7256406754117 0.54487681871814 C-94.7256406754117 0.1278354412409775, -94.7256406754117 -0.28920593623618496, -94.7256406754117 -0.5448768187181317 M-94.7256406754117 -0.5448768187181317 C-94.71036252032825 -0.7828464164476907, -94.6950843652448 -1.02081601417725, -94.65581992013637 -1.6323914404305793 M-94.7256406754117 -0.5448768187181317 C-94.71130991448035 -0.768089987805864, -94.69697915354901 -0.9913031568935965, -94.65581992013637 -1.6323914404305793 M-94.65581992013637 -1.6323914404305793 C-94.62404235452689 -1.8788519641075783, -94.59226478891742 -2.1253124877845773, -94.51646531804565 -2.713198215567447 M-94.65581992013637 -1.6323914404305793 C-94.60483208850864 -2.0278429938489504, -94.55384425688094 -2.423294547267322, -94.51646531804565 -2.713198215567447 M-94.51646531804565 -2.713198215567447 C-94.43640604316555 -3.124285671543037, -94.35634676828545 -3.5353731275186275, -94.308149507091 -3.782855877257341 M-94.51646531804565 -2.713198215567447 C-94.43991029395642 -3.1062920843556103, -94.36335526986717 -3.499385953143774, -94.308149507091 -3.782855877257341 M-94.308149507091 -3.782855877257341 C-94.22197046484351 -4.111493915580226, -94.13579142259601 -4.44013195390311, -94.03172850162323 -4.836968972727544 M-94.308149507091 -3.782855877257341 C-94.23436365602178 -4.064233306374422, -94.16057780495257 -4.345610735491503, -94.03172850162323 -4.836968972727544 M-94.03172850162323 -4.836968972727544 C-93.93542826351205 -5.127009946559143, -93.83912802540088 -5.417050920390744, -93.68833817484594 -5.871205925162218 M-94.03172850162323 -4.836968972727544 C-93.95481171440288 -5.068630080809478, -93.87789492718252 -5.3002911888914115, -93.68833817484594 -5.871205925162218 M-93.68833817484594 -5.871205925162218 C-93.54207123524225 -6.232488093862209, -93.39580429563857 -6.5937702625622, -93.27938959126881 -6.881316833080692 M-93.68833817484594 -5.871205925162218 C-93.60557479571146 -6.075633071745436, -93.522811416577 -6.2800602183286545, -93.27938959126881 -6.881316833080692 M-93.27938959126881 -6.881316833080692 C-93.09165182637777 -7.271158318821618, -92.90391406148672 -7.660999804562543, -92.806563208341 -7.863150934094194 M-93.27938959126881 -6.881316833080692 C-93.15209599923351 -7.145644700588545, -93.02480240719821 -7.409972568096398, -92.806563208341 -7.863150934094194 M-92.806563208341 -7.863150934094194 C-92.61521717623707 -8.202905189981541, -92.42387114413312 -8.542659445868887, -92.27180197109088 -8.812673661278929 M-92.806563208341 -7.863150934094194 C-92.60061004408166 -8.228841632255984, -92.3946568798223 -8.594532330417774, -92.27180197109088 -8.812673661278929 M-92.27180197109088 -8.812673661278929 C-92.09479321585222 -9.084606642831604, -91.91778446061357 -9.356539624384279, -91.67730332814826 -9.725983222076884 M-92.27180197109088 -8.812673661278929 C-92.05225976252693 -9.14994944897069, -91.83271755396298 -9.48722523666245, -91.67730332814826 -9.725983222076884 M-91.67730332814826 -9.725983222076884 C-91.46730317611258 -10.007364294397272, -91.25730302407689 -10.28874536671766, -91.02551020195651 -10.599326631598467 M-91.67730332814826 -9.725983222076884 C-91.50696043105819 -9.954227185620404, -91.33661753396811 -10.182471149163923, -91.02551020195651 -10.599326631598467 M-91.02551020195651 -10.599326631598467 C-90.86058548342704 -10.793056590465506, -90.6956607648976 -10.986786549332543, -90.31910095028037 -11.42911513444238 M-91.02551020195651 -10.599326631598467 C-90.77625266492682 -10.89211871774919, -90.52699512789712 -11.184910803899914, -90.31910095028037 -11.42911513444238 M-90.31910095028037 -11.42911513444238 C-90.02988414927711 -11.72775522661921, -89.74066734827383 -12.026395318796043, -89.56097836025927 -12.21193895166136 M-90.31910095028037 -11.42911513444238 C-90.12624180016603 -11.628258040966134, -89.93338265005168 -11.82740094748989, -89.56097836025927 -12.21193895166136 M-89.56097836025927 -12.21193895166136 C-89.2712103423147 -12.475098598716999, -88.98144232437012 -12.738258245772638, -88.75425772023242 -12.944581292275274 M-89.56097836025927 -12.21193895166136 C-89.2553236874875 -12.489526438293206, -88.94966901471574 -12.76711392492505, -88.75425772023242 -12.944581292275274 M-88.75425772023242 -12.944581292275274 C-88.48661375171403 -13.158020234863569, -88.21896978319563 -13.371459177451866, -87.90225401835067 -13.624031571755259 M-88.75425772023242 -12.944581292275274 C-88.4626299270522 -13.177146696794992, -88.171002133872 -13.40971210131471, -87.90225401835067 -13.624031571755259 M-87.90225401835067 -13.624031571755259 C-87.62001686626195 -13.820907991202963, -87.33777971417321 -14.017784410650666, -87.00846832057934 -14.247497783161284 M-87.90225401835067 -13.624031571755259 C-87.5578249065471 -13.864290410053494, -87.21339579474352 -14.104549248351729, -87.00846832057934 -14.247497783161284 M-87.00846832057934 -14.247497783161284 C-86.77714505849951 -14.387727304040459, -86.54582179641967 -14.527956824919633, -86.07657338406695 -14.812417970097618 M-87.00846832057934 -14.247497783161284 C-86.6666689415482 -14.45469857536607, -86.32486956251705 -14.661899367570856, -86.07657338406695 -14.812417970097618 M-86.07657338406695 -14.812417970097618 C-85.79944341266278 -14.95699649866895, -85.52231344125863 -15.10157502724028, -85.11039856499849 -15.316470754341124 M-86.07657338406695 -14.812417970097618 C-85.85341752786462 -14.928838237340225, -85.6302616716623 -15.04525850458283, -85.11039856499849 -15.316470754341124 M-85.11039856499849 -15.316470754341124 C-84.74402087696386 -15.47865528862609, -84.37764318892921 -15.640839822911055, -84.11391408294936 -15.757584874882365 M-85.11039856499849 -15.316470754341124 C-84.73305744576592 -15.483508474398779, -84.35571632653337 -15.650546194456433, -84.11391408294936 -15.757584874882365 M-84.11391408294936 -15.757584874882365 C-83.7489434265343 -15.891897450194875, -83.38397277011923 -16.026210025507385, -83.09121470640156 -16.133947699181363 M-84.11391408294936 -15.757584874882365 C-83.83009474162742 -15.862033016086071, -83.54627540030548 -15.96648115728978, -83.09121470640156 -16.133947699181363 M-83.09121470640156 -16.133947699181363 C-82.83816120419317 -16.209052650331873, -82.58510770198477 -16.284157601482388, -82.04650292646164 -16.444012671663494 M-83.09121470640156 -16.133947699181363 C-82.7011234548231 -16.249724735019086, -82.31103220324464 -16.36550177085681, -82.04650292646164 -16.444012671663494 M-82.04650292646164 -16.444012671663494 C-81.65902277375183 -16.53245248797521, -81.271542621042 -16.620892304286926, -80.98407168792333 -16.68650566884811 M-82.04650292646164 -16.444012671663494 C-81.62781963961602 -16.539574399722227, -81.20913635277039 -16.635136127780964, -80.98407168792333 -16.68650566884811 M-80.98407168792333 -16.68650566884811 C-80.5885825784109 -16.75044528101023, -80.19309346889845 -16.81438489317235, -79.90828674863661 -16.86043023499518 M-80.98407168792333 -16.68650566884811 C-80.62555913894428 -16.7444671974607, -80.26704658996525 -16.80242872607329, -79.90828674863661 -16.86043023499518 M-79.90828674863661 -16.86043023499518 C-79.59807091946648 -16.890356382946106, -79.28785509029633 -16.92028253089703, -78.82356873967213 -16.965071676755716 M-79.90828674863661 -16.86043023499518 C-79.67053114950255 -16.883366231700702, -79.4327755503685 -16.906302228406222, -78.82356873967213 -16.965071676755716 M-78.82356873967213 -16.965071676755716 C-78.5972236304495 -16.97233012385446, -78.37087852122687 -16.9795885709532, -77.734375 -17 M-78.82356873967213 -16.965071676755716 C-78.54294760196476 -16.974070650446084, -78.26232646425738 -16.98306962413645, -77.734375 -17 M-77.734375 -17 C-77.734375 -17, -77.734375 -17, -77.734375 -17 M-77.734375 -17 C-77.734375 -17, -77.734375 -17, -77.734375 -17" stroke="#9370DB" stroke-width="1.3" fill="none" stroke-dasharray="0 0" style=""></path></g><g class="label" style="" transform="translate(0, -9.5)"><rect></rect><g><rect class="background" style="stroke: none"></rect><text y="-10.1" style=""><tspan class="text-outer-tspan row" x="0" y="-0.1em" dy="1.1em"><tspan font-style="normal" class="text-inner-tspan" font-weight="normal">Users</tspan><tspan font-style="normal" class="text-inner-tspan" font-weight="normal"> (10M</tspan><tspan font-style="normal" class="text-inner-tspan" font-weight="normal"> concurrent)</tspan></tspan></text></g></g></g><g class="node default" id="gfc43907c-6290-416f-9348-27cb42744b64-light-flowchart-WR-1" data-look="classic" transform="translate(413.96875, 173.29999923706055)"><rect class="basic label-container" style="" x="-128.8671875" y="-33.29999923706055" width="257.734375" height="66.5999984741211"></rect><g class="label" style="" transform="translate(0, -18.299999237060547)"><rect></rect><g><rect class="background" style="stroke: none"></rect><text y="-10.1" style=""><tspan class="text-outer-tspan row" x="0" y="-0.1em" dy="1.1em"><tspan font-style="normal" class="text-inner-tspan" font-weight="normal">Virtual</tspan><tspan font-style="normal" class="text-inner-tspan" font-weight="normal"> waiting</tspan><tspan font-style="normal" class="text-inner-tspan" font-weight="normal"> room:</tspan><tspan font-style="normal" class="text-inner-tspan" font-weight="normal"> static</tspan></tspan><tspan class="text-outer-tspan row" x="0" y="1em" dy="1.1em"><tspan font-style="normal" class="text-inner-tspan" font-weight="normal">HTML</tspan><tspan font-style="normal" class="text-inner-tspan" font-weight="normal"> +</tspan><tspan font-style="normal" class="text-inner-tspan" font-weight="normal"> JS</tspan></tspan></text></g></g></g><g class="node default" id="gfc43907c-6290-416f-9348-27cb42744b64-light-flowchart-CDN-2" data-look="classic" transform="translate(413.96875, 281.0999984741211)"><rect class="basic label-container" style="" x="-92.125" y="-24.5" width="184.25" height="49"></rect><g class="label" style="" transform="translate(0, -9.5)"><rect></rect><g><rect class="background" style="stroke: none"></rect><text y="-10.1" style=""><tspan class="text-outer-tspan row" x="0" y="-0.1em" dy="1.1em"><tspan font-style="normal" class="text-inner-tspan" font-weight="normal">CDN</tspan><tspan font-style="normal" class="text-inner-tspan" font-weight="normal"> cache</tspan><tspan font-style="normal" class="text-inner-tspan" font-weight="normal"> +</tspan><tspan font-style="normal" class="text-inner-tspan" font-weight="normal"> WAF</tspan></tspan></text></g></g></g><g class="node default" id="gfc43907c-6290-416f-9348-27cb42744b64-light-flowchart-RL-3" data-look="classic" transform="translate(413.96875, 430.0999984741211)"><rect class="basic label-container" style="" x="-110.046875" y="-24.5" width="220.09375" height="49"></rect><g class="label" style="" transform="translate(0, -9.5)"><rect></rect><g><rect class="background" style="stroke: none"></rect><text y="-10.1" style=""><tspan class="text-outer-tspan row" x="0" y="-0.1em" dy="1.1em"><tspan font-style="normal" class="text-inner-tspan" font-weight="normal">Rate</tspan><tspan font-style="normal" class="text-inner-tspan" font-weight="normal"> limiter</tspan><tspan font-style="normal" class="text-inner-tspan" font-weight="normal"> /</tspan><tspan font-style="normal" class="text-inner-tspan" font-weight="normal"> throttle</tspan></tspan></text></g></g></g><g class="node default" id="gfc43907c-6290-416f-9348-27cb42744b64-light-flowchart-Auth-4" data-look="classic" transform="translate(413.96875, 529.0999984741211)"><rect class="basic label-container" style="" x="-95.2578125" y="-24.5" width="190.515625" height="49"></rect><g class="label" style="" transform="translate(0, -9.5)"><rect></rect><g><rect class="background" style="stroke: none"></rect><text y="-10.1" style=""><tspan class="text-outer-tspan row" x="0" y="-0.1em" dy="1.1em"><tspan font-style="normal" class="text-inner-tspan" font-weight="normal">Auth</tspan><tspan font-style="normal" class="text-inner-tspan" font-weight="normal"> +</tspan><tspan font-style="normal" class="text-inner-tspan" font-weight="normal"> bot</tspan><tspan font-style="normal" class="text-inner-tspan" font-weight="normal"> scoring</tspan></tspan></text></g></g></g><g class="node default" id="gfc43907c-6290-416f-9348-27cb42744b64-light-flowchart-QS-5" data-look="classic" transform="translate(413.96875, 686.8999977111816)"><rect class="basic label-container" style="" x="-120.875" y="-33.29999923706055" width="241.75" height="66.5999984741211"></rect><g class="label" style="" transform="translate(0, -18.299999237060547)"><rect></rect><g><rect class="background" style="stroke: none"></rect><text y="-10.1" style=""><tspan class="text-outer-tspan row" x="0" y="-0.1em" dy="1.1em"><tspan font-style="normal" class="text-inner-tspan" font-weight="normal">Queue</tspan><tspan font-style="normal" class="text-inner-tspan" font-weight="normal"> service:</tspan><tspan font-style="normal" class="text-inner-tspan" font-weight="normal"> admission</tspan></tspan><tspan class="text-outer-tspan row" x="0" y="1em" dy="1.1em"><tspan font-style="normal" class="text-inner-tspan" font-weight="normal">tokens</tspan></tspan></text></g></g></g><g class="node default" id="gfc43907c-6290-416f-9348-27cb42744b64-light-flowchart-IS-6" data-look="classic" transform="translate(297.4921875, 826.4999961853027)"><rect class="basic label-container" style="" x="-121.3203125" y="-33.29999923706055" width="242.640625" height="66.5999984741211"></rect><g class="label" style="" transform="translate(0, -18.299999237060547)"><rect></rect><g><rect class="background" style="stroke: none"></rect><text y="-10.1" style=""><tspan class="text-outer-tspan row" x="0" y="-0.1em" dy="1.1em"><tspan font-style="normal" class="text-inner-tspan" font-weight="normal">Inventory</tspan><tspan font-style="normal" class="text-inner-tspan" font-weight="normal"> service:</tspan><tspan font-style="normal" class="text-inner-tspan" font-weight="normal"> atomic</tspan></tspan><tspan class="text-outer-tspan row" x="0" y="1em" dy="1.1em"><tspan font-style="normal" class="text-inner-tspan" font-weight="normal">reserve</tspan></tspan></text></g></g></g><g class="node default" id="gfc43907c-6290-416f-9348-27cb42744b64-light-flowchart-OS-7" data-look="classic" transform="translate(432.97265625, 966.0999946594238)"><rect class="basic label-container" style="" x="-125" y="-33.29999923706055" width="250" height="66.5999984741211"></rect><g class="label" style="" transform="translate(0, -18.299999237060547)"><rect></rect><g><rect class="background" style="stroke: none"></rect><text y="-10.1" style=""><tspan class="text-outer-tspan row" x="0" y="-0.1em" dy="1.1em"><tspan font-style="normal" class="text-inner-tspan" font-weight="normal">Order</tspan><tspan font-style="normal" class="text-inner-tspan" font-weight="normal"> service:</tspan><tspan font-style="normal" class="text-inner-tspan" font-weight="normal"> idempotent</tspan></tspan><tspan class="text-outer-tspan row" x="0" y="1em" dy="1.1em"><tspan font-style="normal" class="text-inner-tspan" font-weight="normal">enqueue</tspan></tspan></text></g></g></g><g class="node default" id="gfc43907c-6290-416f-9348-27cb42744b64-light-flowchart-PS-8" data-look="classic" transform="translate(141.0078125, 1144.68119430542)"><rect class="basic label-container" style="" x="-98.0078125" y="-33.29999923706055" width="196.015625" height="66.5999984741211"></rect><g class="label" style="" transform="translate(0, -18.299999237060547)"><rect></rect><g><rect class="background" style="stroke: none"></rect><text y="-10.1" style=""><tspan class="text-outer-tspan row" x="0" y="-0.1em" dy="1.1em"><tspan font-style="normal" class="text-inner-tspan" font-weight="normal">Payment</tspan><tspan font-style="normal" class="text-inner-tspan" font-weight="normal"> service:</tspan></tspan><tspan class="text-outer-tspan row" x="0" y="1em" dy="1.1em"><tspan font-style="normal" class="text-inner-tspan" font-weight="normal">idempotent</tspan><tspan font-style="normal" class="text-inner-tspan" font-weight="normal"> charge</tspan></tspan></text></g></g></g><g class="node default" id="gfc43907c-6290-416f-9348-27cb42744b64-light-flowchart-Redis-9" data-look="classic" transform="translate(858.109375, 1144.68119430542)"><path d="M0,14.320803075608714 a83.8125,14.320803075608714 0,0,0 167.625,0 a83.8125,14.320803075608714 0,0,0 -167.625,0 l0,65.9208015497298 a83.8125,14.320803075608714 0,0,0 167.625,0 l0,-65.9208015497298" class="basic label-container outer-path" style="" transform="translate(-83.8125, -47.28120385047362)"></path><g class="label" style="" transform="translate(0, -9.299999237060547)"><rect></rect><g><rect class="background" style="stroke: none"></rect><text y="-10.1" style=""><tspan class="text-outer-tspan row" x="0" y="-0.1em" dy="1.1em"><tspan font-style="normal" class="text-inner-tspan" font-weight="normal">Redis</tspan><tspan font-style="normal" class="text-inner-tspan" font-weight="normal"> cluster:</tspan><tspan font-style="normal" class="text-inner-tspan" font-weight="normal"> stock</tspan><tspan font-style="normal" class="text-inner-tspan" font-weight="normal"> +</tspan></tspan><tspan class="text-outer-tspan row" x="0" y="1em" dy="1.1em"><tspan font-style="normal" class="text-inner-tspan" font-weight="normal">tokens</tspan></tspan></text></g></g></g><g class="node default" id="gfc43907c-6290-416f-9348-27cb42744b64-light-flowchart-MQ-10" data-look="classic" transform="translate(1099.6640625, 1144.68119430542)"><polygon points="0,0 199.484375,0 199.484375,-34 0,-34 0,0 -8,0 207.484375,0 207.484375,-34 -8,-34 -8,0" class="label-container" transform="translate(-99.7421875,17)"></polygon><g class="label" style="" transform="translate(0, -9.5)"><rect></rect><g><rect class="background" style="stroke: none"></rect><text y="-10.1" style=""><tspan class="text-outer-tspan row" x="0" y="-0.1em" dy="1.1em"><tspan font-style="normal" class="text-inner-tspan" font-weight="normal">Order</tspan><tspan font-style="normal" class="text-inner-tspan" font-weight="normal"> queue:</tspan><tspan font-style="normal" class="text-inner-tspan" font-weight="normal"> SQS</tspan><tspan font-style="normal" class="text-inner-tspan" font-weight="normal"> /</tspan><tspan font-style="normal" class="text-inner-tspan" font-weight="normal"> Kafka</tspan></tspan></text></g></g></g><g class="node default" id="gfc43907c-6290-416f-9348-27cb42744b64-light-flowchart-DB-11" data-look="classic" transform="translate(1359.7578125, 1144.68119430542)"><path d="M0,15.521776219136534 a102.3515625,15.521776219136534 0,0,0 204.703125,0 a102.3515625,15.521776219136534 0,0,0 -204.703125,0 l0,49.521776219136534 a102.3515625,15.521776219136534 0,0,0 204.703125,0 l0,-49.521776219136534" class="basic label-container outer-path" style="" transform="translate(-102.3515625, -40.2826643287048)"></path><g class="label" style="" transform="translate(0, -0.5)"><rect></rect><g><rect class="background" style="stroke: none"></rect><text y="-10.1" style=""><tspan class="text-outer-tspan row" x="0" y="-0.1em" dy="1.1em"><tspan font-style="normal" class="text-inner-tspan" font-weight="normal">PostgreSQL:</tspan><tspan font-style="normal" class="text-inner-tspan" font-weight="normal"> orders</tspan><tspan font-style="normal" class="text-inner-tspan" font-weight="normal"> /</tspan><tspan font-style="normal" class="text-inner-tspan" font-weight="normal"> users</tspan></tspan></text></g></g></g><g class="node default" id="gfc43907c-6290-416f-9348-27cb42744b64-light-flowchart-OBS-12" data-look="classic" transform="translate(1626.1984405517578, 1144.68119430542)"><polygon points="-25.799999237060547,0 176.578125,0 202.37812423706055,-51.599998474121094 0,-51.599998474121094" class="label-container" transform="translate(-88.2890625,25.799999237060547)"></polygon><g class="label" style="" transform="translate(0, -18.299999237060547)"><rect></rect><g><rect class="background" style="stroke: none"></rect><text y="-10.1" style=""><tspan class="text-outer-tspan row" x="0" y="-0.1em" dy="1.1em"><tspan font-style="normal" class="text-inner-tspan" font-weight="normal">Metrics</tspan><tspan font-style="normal" class="text-inner-tspan" font-weight="normal"> +</tspan><tspan font-style="normal" class="text-inner-tspan" font-weight="normal"> traces</tspan><tspan font-style="normal" class="text-inner-tspan" font-weight="normal"> +</tspan><tspan font-style="normal" class="text-inner-tspan" font-weight="normal"> DLQ</tspan></tspan><tspan class="text-outer-tspan row" x="0" y="1em" dy="1.1em"><tspan font-style="normal" class="text-inner-tspan" font-weight="normal">alerts</tspan></tspan></text></g></g></g></g></g></g><defs><filter id="gfc43907c-6290-416f-9348-27cb42744b64-light-drop-shadow" height="130%" width="130%"><feDropShadow dx="4" dy="4" stdDeviation="0" flood-opacity="0.06" flood-color="#000000"></feDropShadow></filter></defs><defs><filter id="gfc43907c-6290-416f-9348-27cb42744b64-light-drop-shadow-small" height="150%" width="150%"><feDropShadow dx="2" dy="2" stdDeviation="0" flood-opacity="0.06" flood-color="#000000"></feDropShadow></filter></defs></svg>