<svg id="g9b25111d-596f-4e83-873b-e0b2041fe722-flip" width="100%" xmlns="http://www.w3.org/2000/svg" xmlns:xlink="http://www.w3.org/1999/xlink" class="flowchart" style="max-width: 920.1856689453125px;" viewBox="0 0 920.1856689453125 641" role="graphics-document document" aria-roledescription="flowchart-v2"><style>#g9b25111d-596f-4e83-873b-e0b2041fe722-flip{font-family:"trebuchet ms",verdana,arial,sans-serif;font-size:16px;fill:#333;}@keyframes edge-animation-frame{from{stroke-dashoffset:0;}}@keyframes dash{to{stroke-dashoffset:0;}}#g9b25111d-596f-4e83-873b-e0b2041fe722-flip .edge-animation-slow{stroke-dasharray:9,5!important;stroke-dashoffset:900;animation:dash 50s linear infinite;stroke-linecap:round;}#g9b25111d-596f-4e83-873b-e0b2041fe722-flip .edge-animation-fast{stroke-dasharray:9,5!important;stroke-dashoffset:900;animation:dash 20s linear infinite;stroke-linecap:round;}#g9b25111d-596f-4e83-873b-e0b2041fe722-flip .error-icon{fill:#552222;}#g9b25111d-596f-4e83-873b-e0b2041fe722-flip .error-text{fill:#552222;stroke:#552222;}#g9b25111d-596f-4e83-873b-e0b2041fe722-flip .edge-thickness-normal{stroke-width:1px;}#g9b25111d-596f-4e83-873b-e0b2041fe722-flip .edge-thickness-thick{stroke-width:3.5px;}#g9b25111d-596f-4e83-873b-e0b2041fe722-flip .edge-pattern-solid{stroke-dasharray:0;}#g9b25111d-596f-4e83-873b-e0b2041fe722-flip .edge-thickness-invisible{stroke-width:0;fill:none;}#g9b25111d-596f-4e83-873b-e0b2041fe722-flip .edge-pattern-dashed{stroke-dasharray:3;}#g9b25111d-596f-4e83-873b-e0b2041fe722-flip .edge-pattern-dotted{stroke-dasharray:2;}#g9b25111d-596f-4e83-873b-e0b2041fe722-flip .marker{fill:#333333;stroke:#333333;}#g9b25111d-596f-4e83-873b-e0b2041fe722-flip .marker.cross{stroke:#333333;}#g9b25111d-596f-4e83-873b-e0b2041fe722-flip svg{font-family:"trebuchet ms",verdana,arial,sans-serif;font-size:16px;}#g9b25111d-596f-4e83-873b-e0b2041fe722-flip p{margin:0;}#g9b25111d-596f-4e83-873b-e0b2041fe722-flip .label{font-family:"trebuchet ms",verdana,arial,sans-serif;color:#333;}#g9b25111d-596f-4e83-873b-e0b2041fe722-flip .cluster-label text{fill:#333;}#g9b25111d-596f-4e83-873b-e0b2041fe722-flip .cluster-label span{color:#333;}#g9b25111d-596f-4e83-873b-e0b2041fe722-flip .cluster-label span p{background-color:transparent;}#g9b25111d-596f-4e83-873b-e0b2041fe722-flip .label text,#g9b25111d-596f-4e83-873b-e0b2041fe722-flip span{fill:#333;color:#333;}#g9b25111d-596f-4e83-873b-e0b2041fe722-flip .node rect,#g9b25111d-596f-4e83-873b-e0b2041fe722-flip .node circle,#g9b25111d-596f-4e83-873b-e0b2041fe722-flip .node ellipse,#g9b25111d-596f-4e83-873b-e0b2041fe722-flip .node polygon,#g9b25111d-596f-4e83-873b-e0b2041fe722-flip .node path{fill:#ECECFF;stroke:#9370DB;stroke-width:1px;}#g9b25111d-596f-4e83-873b-e0b2041fe722-flip .rough-node .label text,#g9b25111d-596f-4e83-873b-e0b2041fe722-flip .node .label text,#g9b25111d-596f-4e83-873b-e0b2041fe722-flip .image-shape .label,#g9b25111d-596f-4e83-873b-e0b2041fe722-flip .icon-shape .label{text-anchor:middle;}#g9b25111d-596f-4e83-873b-e0b2041fe722-flip .node .katex path{fill:#000;stroke:#000;stroke-width:1px;}#g9b25111d-596f-4e83-873b-e0b2041fe722-flip .rough-node .label,#g9b25111d-596f-4e83-873b-e0b2041fe722-flip .node .label,#g9b25111d-596f-4e83-873b-e0b2041fe722-flip .image-shape .label,#g9b25111d-596f-4e83-873b-e0b2041fe722-flip .icon-shape .label{text-align:center;}#g9b25111d-596f-4e83-873b-e0b2041fe722-flip .node.clickable{cursor:pointer;}#g9b25111d-596f-4e83-873b-e0b2041fe722-flip .root .anchor path{fill:#333333!important;stroke-width:0;stroke:#333333;}#g9b25111d-596f-4e83-873b-e0b2041fe722-flip .arrowheadPath{fill:#333333;}#g9b25111d-596f-4e83-873b-e0b2041fe722-flip .edgePath .path{stroke:#333333;stroke-width:1px;}#g9b25111d-596f-4e83-873b-e0b2041fe722-flip .flowchart-link{stroke:#333333;fill:none;}#g9b25111d-596f-4e83-873b-e0b2041fe722-flip .edgeLabel{background-color:rgba(232,232,232, 0.8);text-align:center;}#g9b25111d-596f-4e83-873b-e0b2041fe722-flip .edgeLabel p{background-color:rgba(232,232,232, 0.8);}#g9b25111d-596f-4e83-873b-e0b2041fe722-flip .edgeLabel rect{opacity:0.5;background-color:rgba(232,232,232, 0.8);fill:rgba(232,232,232, 0.8);}#g9b25111d-596f-4e83-873b-e0b2041fe722-flip .labelBkg{background-color:rgba(232, 232, 232, 0.5);}#g9b25111d-596f-4e83-873b-e0b2041fe722-flip .cluster rect{fill:#ffffde;stroke:#aaaa33;stroke-width:1px;}#g9b25111d-596f-4e83-873b-e0b2041fe722-flip .cluster text{fill:#333;}#g9b25111d-596f-4e83-873b-e0b2041fe722-flip .cluster span{color:#333;}#g9b25111d-596f-4e83-873b-e0b2041fe722-flip div.mermaidTooltip{position:absolute;text-align:center;max-width:200px;padding:2px;font-family:"trebuchet ms",verdana,arial,sans-serif;font-size:12px;background:hsl(80, 100%, 96.2745098039%);border:1px solid #aaaa33;border-radius:2px;pointer-events:none;z-index:100;}#g9b25111d-596f-4e83-873b-e0b2041fe722-flip .flowchartTitleText{text-anchor:middle;font-size:18px;fill:#333;}#g9b25111d-596f-4e83-873b-e0b2041fe722-flip rect.text{fill:none;stroke-width:0;}#g9b25111d-596f-4e83-873b-e0b2041fe722-flip .icon-shape,#g9b25111d-596f-4e83-873b-e0b2041fe722-flip .image-shape{background-color:rgba(232,232,232, 0.8);text-align:center;}#g9b25111d-596f-4e83-873b-e0b2041fe722-flip .icon-shape p,#g9b25111d-596f-4e83-873b-e0b2041fe722-flip .image-shape p{background-color:rgba(232,232,232, 0.8);padding:2px;}#g9b25111d-596f-4e83-873b-e0b2041fe722-flip .icon-shape .label rect,#g9b25111d-596f-4e83-873b-e0b2041fe722-flip .image-shape .label rect{opacity:0.5;background-color:rgba(232,232,232, 0.8);fill:rgba(232,232,232, 0.8);}#g9b25111d-596f-4e83-873b-e0b2041fe722-flip .label-icon{display:inline-block;height:1em;overflow:visible;vertical-align:-0.125em;}#g9b25111d-596f-4e83-873b-e0b2041fe722-flip .node .label-icon path{fill:currentColor;stroke:revert;stroke-width:revert;}#g9b25111d-596f-4e83-873b-e0b2041fe722-flip .node .neo-node{stroke:#9370DB;}#g9b25111d-596f-4e83-873b-e0b2041fe722-flip [data-look="neo"].node rect,#g9b25111d-596f-4e83-873b-e0b2041fe722-flip [data-look="neo"].cluster rect,#g9b25111d-596f-4e83-873b-e0b2041fe722-flip [data-look="neo"].node polygon{stroke:#9370DB;filter:drop-shadow(1px 2px 2px rgba(185, 185, 185, 1));}#g9b25111d-596f-4e83-873b-e0b2041fe722-flip [data-look="neo"].node path{stroke:#9370DB;stroke-width:1px;}#g9b25111d-596f-4e83-873b-e0b2041fe722-flip [data-look="neo"].node .outer-path{filter:drop-shadow(1px 2px 2px rgba(185, 185, 185, 1));}#g9b25111d-596f-4e83-873b-e0b2041fe722-flip [data-look="neo"].node .neo-line path{stroke:#9370DB;filter:none;}#g9b25111d-596f-4e83-873b-e0b2041fe722-flip [data-look="neo"].node circle{stroke:#9370DB;filter:drop-shadow(1px 2px 2px rgba(185, 185, 185, 1));}#g9b25111d-596f-4e83-873b-e0b2041fe722-flip [data-look="neo"].node circle .state-start{fill:#000000;}#g9b25111d-596f-4e83-873b-e0b2041fe722-flip [data-look="neo"].icon-shape .icon{fill:#9370DB;filter:drop-shadow(1px 2px 2px rgba(185, 185, 185, 1));}#g9b25111d-596f-4e83-873b-e0b2041fe722-flip [data-look="neo"].icon-shape .icon-neo path{stroke:#9370DB;filter:drop-shadow(1px 2px 2px rgba(185, 185, 185, 1));}#g9b25111d-596f-4e83-873b-e0b2041fe722-flip :root{--mermaid-font-family:"trebuchet ms",verdana,arial,sans-serif;}#g9b25111d-596f-4e83-873b-e0b2041fe722-flip .fail rect{fill:#fee!important;stroke:#c33!important;stroke-width:1px!important;color:#900!important;}#g9b25111d-596f-4e83-873b-e0b2041fe722-flip .fail polygon{fill:#fee!important;stroke:#c33!important;stroke-width:1px!important;color:#900!important;}#g9b25111d-596f-4e83-873b-e0b2041fe722-flip .fail ellipse{fill:#fee!important;stroke:#c33!important;stroke-width:1px!important;color:#900!important;}#g9b25111d-596f-4e83-873b-e0b2041fe722-flip .fail circle{fill:#fee!important;stroke:#c33!important;stroke-width:1px!important;color:#900!important;}#g9b25111d-596f-4e83-873b-e0b2041fe722-flip .fail path{fill:#fee!important;stroke:#c33!important;stroke-width:1px!important;color:#900!important;}#g9b25111d-596f-4e83-873b-e0b2041fe722-flip .fail tspan{fill:#900!important;}</style><g><marker id="g9b25111d-596f-4e83-873b-e0b2041fe722-flip_flowchart-v2-pointEnd" class="marker flowchart-v2" viewBox="0 0 10 10" refX="5" refY="5" markerUnits="userSpaceOnUse" markerWidth="8" markerHeight="8" orient="auto"><path d="M 0 0 L 10 5 L 0 10 z" class="arrowMarkerPath" style="stroke-width: 1; stroke-dasharray: 1, 0;"></path></marker><marker id="g9b25111d-596f-4e83-873b-e0b2041fe722-flip_flowchart-v2-pointStart" class="marker flowchart-v2" viewBox="0 0 10 10" refX="4.5" refY="5" markerUnits="userSpaceOnUse" markerWidth="8" markerHeight="8" orient="auto"><path d="M 0 5 L 10 10 L 10 0 z" class="arrowMarkerPath" style="stroke-width: 1; stroke-dasharray: 1, 0;"></path></marker><marker id="g9b25111d-596f-4e83-873b-e0b2041fe722-flip_flowchart-v2-pointEnd-margin" class="marker flowchart-v2" viewBox="0 0 11.5 14" refX="11.5" refY="7" markerUnits="userSpaceOnUse" markerWidth="10.5" markerHeight="14" orient="auto"><path d="M 0 0 L 11.5 7 L 0 14 z" class="arrowMarkerPath" style="stroke-width: 0; stroke-dasharray: 1, 0;"></path></marker><marker id="g9b25111d-596f-4e83-873b-e0b2041fe722-flip_flowchart-v2-pointStart-margin" class="marker flowchart-v2" viewBox="0 0 11.5 14" refX="1" refY="7" markerUnits="userSpaceOnUse" markerWidth="11.5" markerHeight="14" orient="auto"><polygon points="0,7 11.5,14 11.5,0" class="arrowMarkerPath" style="stroke-width: 0; stroke-dasharray: 1, 0;"></polygon></marker><marker id="g9b25111d-596f-4e83-873b-e0b2041fe722-flip_flowchart-v2-circleEnd" class="marker flowchart-v2" viewBox="0 0 10 10" refX="11" refY="5" markerUnits="userSpaceOnUse" markerWidth="11" markerHeight="11" orient="auto"><circle cx="5" cy="5" r="5" class="arrowMarkerPath" style="stroke-width: 1; stroke-dasharray: 1, 0;"></circle></marker><marker id="g9b25111d-596f-4e83-873b-e0b2041fe722-flip_flowchart-v2-circleStart" class="marker flowchart-v2" viewBox="0 0 10 10" refX="-1" refY="5" markerUnits="userSpaceOnUse" markerWidth="11" markerHeight="11" orient="auto"><circle cx="5" cy="5" r="5" class="arrowMarkerPath" style="stroke-width: 1; stroke-dasharray: 1, 0;"></circle></marker><marker id="g9b25111d-596f-4e83-873b-e0b2041fe722-flip_flowchart-v2-circleEnd-margin" class="marker flowchart-v2" viewBox="0 0 10 10" refY="5" refX="12.25" markerUnits="userSpaceOnUse" markerWidth="14" markerHeight="14" orient="auto"><circle cx="5" cy="5" r="5" class="arrowMarkerPath" style="stroke-width: 0; stroke-dasharray: 1, 0;"></circle></marker><marker id="g9b25111d-596f-4e83-873b-e0b2041fe722-flip_flowchart-v2-circleStart-margin" class="marker flowchart-v2" viewBox="0 0 10 10" refX="-2" refY="5" markerUnits="userSpaceOnUse" markerWidth="14" markerHeight="14" orient="auto"><circle cx="5" cy="5" r="5" class="arrowMarkerPath" style="stroke-width: 0; stroke-dasharray: 1, 0;"></circle></marker><marker id="g9b25111d-596f-4e83-873b-e0b2041fe722-flip_flowchart-v2-crossEnd" class="marker cross flowchart-v2" viewBox="0 0 11 11" refX="12" refY="5.2" markerUnits="userSpaceOnUse" markerWidth="11" markerHeight="11" orient="auto"><path d="M 1,1 l 9,9 M 10,1 l -9,9" class="arrowMarkerPath" style="stroke-width: 2; stroke-dasharray: 1, 0;"></path></marker><marker id="g9b25111d-596f-4e83-873b-e0b2041fe722-flip_flowchart-v2-crossStart" class="marker cross flowchart-v2" viewBox="0 0 11 11" refX="-1" refY="5.2" markerUnits="userSpaceOnUse" markerWidth="11" markerHeight="11" orient="auto"><path d="M 1,1 l 9,9 M 10,1 l -9,9" class="arrowMarkerPath" style="stroke-width: 2; stroke-dasharray: 1, 0;"></path></marker><marker id="g9b25111d-596f-4e83-873b-e0b2041fe722-flip_flowchart-v2-crossEnd-margin" class="marker cross flowchart-v2" viewBox="0 0 15 15" refX="17.7" refY="7.5" markerUnits="userSpaceOnUse" markerWidth="12" markerHeight="12" orient="auto"><path d="M 1,1 L 14,14 M 1,14 L 14,1" class="arrowMarkerPath" style="stroke-width: 2.5;"></path></marker><marker id="g9b25111d-596f-4e83-873b-e0b2041fe722-flip_flowchart-v2-crossStart-margin" class="marker cross flowchart-v2" viewBox="0 0 15 15" refX="-3.5" refY="7.5" markerUnits="userSpaceOnUse" markerWidth="12" markerHeight="12" orient="auto"><path d="M 1,1 L 14,14 M 1,14 L 14,1" class="arrowMarkerPath" style="stroke-width: 2.5; stroke-dasharray: 1, 0;"></path></marker><g class="root"><g class="clusters"></g><g class="edgePaths"><path d="M640.036,74.6L628.5,80.683C616.964,86.767,593.891,98.933,582.355,110.433C570.818,121.933,570.818,132.767,570.818,138.183L570.818,143.6" id="g9b25111d-596f-4e83-873b-e0b2041fe722-flip-L_Stub_Root_0" class="edge-thickness-normal edge-pattern-solid edge-thickness-normal edge-pattern-solid flowchart-link" style=";" data-edge="true" data-et="edge" data-id="L_Stub_Root_0" data-points="W3sieCI6NjQwLjAzNjI2NTU2NDE1OTQsInkiOjc0LjU5OTk5ODQ3NDEyMTF9LHsieCI6NTcwLjgxODQ2NjE4NjUyMzQsInkiOjExMS4wOTk5OTg0NzQxMjExfSx7IngiOjU3MC44MTg0NjYxODY1MjM0LCJ5IjoxNDcuNTk5OTk4NDc0MTIxMX1d" data-look="classic" marker-end="url(#g9b25111d-596f-4e83-873b-e0b2041fe722-flip_flowchart-v2-pointEnd)"></path><path d="M460.233,212.773L438.301,219.094C416.369,225.415,372.506,238.058,350.575,249.796C328.643,261.533,328.643,272.367,328.643,277.783L328.643,283.2" id="g9b25111d-596f-4e83-873b-e0b2041fe722-flip-L_Root_TLD_0" class="edge-thickness-normal edge-pattern-solid edge-thickness-normal edge-pattern-solid flowchart-link" style=";" data-edge="true" data-et="edge" data-id="L_Root_TLD_0" data-points="W3sieCI6NDYwLjIzMjUyODY4NjUyMzQ0LCJ5IjoyMTIuNzczMTgxMDA0OTg2M30seyJ4IjozMjguNjQzMTQ2NTE0ODkyNiwieSI6MjUwLjY5OTk5Njk0ODI0MjJ9LHsieCI6MzI4LjY0MzE0NjUxNDg5MjYsInkiOjI4Ny4xOTk5OTY5NDgyNDIyfV0=" data-look="classic" marker-end="url(#g9b25111d-596f-4e83-873b-e0b2041fe722-flip_flowchart-v2-pointEnd)"></path><path d="M270.046,353.8L259.342,359.883C248.637,365.967,227.228,378.133,216.524,389.633C205.819,401.133,205.819,411.967,205.819,417.383L205.819,422.8" id="g9b25111d-596f-4e83-873b-e0b2041fe722-flip-L_TLD_Auth_0" class="edge-thickness-normal edge-pattern-solid edge-thickness-normal edge-pattern-solid flowchart-link" style=";" data-edge="true" data-et="edge" data-id="L_TLD_Auth_0" data-points="W3sieCI6MjcwLjA0NjQ5MjcxMjk4MzUsInkiOjM1My43OTk5OTU0MjIzNjMzfSx7IngiOjIwNS44MTg5Mjc3NjQ4OTI1OCwieSI6MzkwLjI5OTk5NTQyMjM2MzN9LHsieCI6MjA1LjgxODkyNzc2NDg5MjU4LCJ5Ijo0MjYuNzk5OTk1NDIyMzYzM31d" data-look="classic" marker-end="url(#g9b25111d-596f-4e83-873b-e0b2041fe722-flip_flowchart-v2-pointEnd)"></path><path d="M150.851,493.4L140.809,499.483C130.767,505.567,110.684,517.733,100.719,532.033C90.755,546.333,90.909,562.767,90.986,570.983L91.063,579.2" id="g9b25111d-596f-4e83-873b-e0b2041fe722-flip-L_Auth_Answer_0" class="edge-thickness-normal edge-pattern-solid edge-thickness-normal edge-pattern-solid flowchart-link" style=";" data-edge="true" data-et="edge" data-id="L_Auth_Answer_0" data-points="W3sieCI6MTUwLjg1MDg5MTExMDU1MTQsInkiOjQ5My4zOTk5OTM4OTY0ODQ0fSx7IngiOjkwLjYwMDYzOTM0MzI2MTcyLCJ5Ijo1MjkuODk5OTkzODk2NDg0NH0seyJ4Ijo5MS4xMDA2MzkzNDMyNjE3MiwieSI6NTgzLjE5OTk5MzEzMzU0NDh9XQ==" data-look="classic" marker-end="url(#g9b25111d-596f-4e83-873b-e0b2041fe722-flip_flowchart-v2-pointEnd)"></path><path d="M759.772,74.6L770.109,80.683C780.446,86.767,801.121,98.933,811.458,110.433C821.795,121.933,821.795,132.767,821.795,138.183L821.795,143.6" id="g9b25111d-596f-4e83-873b-e0b2041fe722-flip-L_Stub_F1_0" class="edge-thickness-normal edge-pattern-dotted edge-thickness-normal edge-pattern-solid flowchart-link" style=";" data-edge="true" data-et="edge" data-id="L_Stub_F1_0" data-points="W3sieCI6NzU5Ljc3MTUwMDk2NzAzNjMsInkiOjc0LjU5OTk5ODQ3NDEyMTF9LHsieCI6ODIxLjc5NTAyODY4NjUyMzQsInkiOjExMS4wOTk5OTg0NzQxMjExfSx7IngiOjgyMS43OTUwMjg2ODY1MjM0LCJ5IjoxNDcuNTk5OTk4NDc0MTIxMX1d" data-look="classic" marker-end="url(#g9b25111d-596f-4e83-873b-e0b2041fe722-flip_flowchart-v2-pointEnd)"></path><path d="M582.982,214.2L585.204,220.283C587.427,226.367,591.871,238.533,594.093,250.033C596.315,261.533,596.315,272.367,596.315,277.783L596.315,283.2" id="g9b25111d-596f-4e83-873b-e0b2041fe722-flip-L_Root_F2_0" class="edge-thickness-normal edge-pattern-dotted edge-thickness-normal edge-pattern-solid flowchart-link" style=";" data-edge="true" data-et="edge" data-id="L_Root_F2_0" data-points="W3sieCI6NTgyLjk4MjI5NTQ0NTMwMDMsInkiOjIxNC4xOTk5OTY5NDgyNDIyfSx7IngiOjU5Ni4zMTUwMjE1MTQ4OTI2LCJ5IjoyNTAuNjk5OTk2OTQ4MjQyMn0seyJ4Ijo1OTYuMzE1MDIxNTE0ODkyNiwieSI6Mjg3LjE5OTk5Njk0ODI0MjJ9XQ==" data-look="classic" marker-end="url(#g9b25111d-596f-4e83-873b-e0b2041fe722-flip_flowchart-v2-pointEnd)"></path><path d="M387.24,353.8L397.944,359.883C408.649,365.967,430.058,378.133,440.763,389.633C451.467,401.133,451.467,411.967,451.467,417.383L451.467,422.8" id="g9b25111d-596f-4e83-873b-e0b2041fe722-flip-L_TLD_F3_0" class="edge-thickness-normal edge-pattern-dotted edge-thickness-normal edge-pattern-solid flowchart-link" style=";" data-edge="true" data-et="edge" data-id="L_TLD_F3_0" data-points="W3sieCI6Mzg3LjIzOTgwMDMxNjgwMTcsInkiOjM1My43OTk5OTU0MjIzNjMzfSx7IngiOjQ1MS40NjczNjUyNjQ4OTI2LCJ5IjozOTAuMjk5OTk1NDIyMzYzM30seyJ4Ijo0NTEuNDY3MzY1MjY0ODkyNiwieSI6NDI2Ljc5OTk5NTQyMjM2MzN9XQ==" data-look="classic" marker-end="url(#g9b25111d-596f-4e83-873b-e0b2041fe722-flip_flowchart-v2-pointEnd)"></path><path d="M260.787,493.4L270.829,499.483C280.87,505.567,300.954,517.733,310.996,529.233C321.037,540.733,321.037,551.567,321.037,556.983L321.037,562.4" id="g9b25111d-596f-4e83-873b-e0b2041fe722-flip-L_Auth_F4_0" class="edge-thickness-normal edge-pattern-dotted edge-thickness-normal edge-pattern-solid flowchart-link" style=";" data-edge="true" data-et="edge" data-id="L_Auth_F4_0" data-points="W3sieCI6MjYwLjc4Njk2NDQxOTIzMzc1LCJ5Ijo0OTMuMzk5OTkzODk2NDg0NH0seyJ4IjozMjEuMDM3MjE2MTg2NTIzNDQsInkiOjUyOS44OTk5OTM4OTY0ODQ0fSx7IngiOjMyMS4wMzcyMTYxODY1MjM0NCwieSI6NTY2LjM5OTk5Mzg5NjQ4NDR9XQ==" data-look="classic" marker-end="url(#g9b25111d-596f-4e83-873b-e0b2041fe722-flip_flowchart-v2-pointEnd)"></path><path d="M304.663,479.676L346.928,488.047C389.194,496.417,473.725,513.159,515.99,526.946C558.256,540.733,558.256,551.567,558.256,556.983L558.256,562.4" id="g9b25111d-596f-4e83-873b-e0b2041fe722-flip-L_Auth_F5_0" class="edge-thickness-normal edge-pattern-dotted edge-thickness-normal edge-pattern-solid flowchart-link" style=";" data-edge="true" data-et="edge" data-id="L_Auth_F5_0" data-points="W3sieCI6MzA0LjY2MjY3Nzc2NDg5MjYsInkiOjQ3OS42NzU5NTU1MzMxMzQyfSx7IngiOjU1OC4yNTU5NjYxODY1MjM0LCJ5Ijo1MjkuODk5OTkzODk2NDg0NH0seyJ4Ijo1NTguMjU1OTY2MTg2NTIzNCwieSI6NTY2LjM5OTk5Mzg5NjQ4NDR9XQ==" data-look="classic" marker-end="url(#g9b25111d-596f-4e83-873b-e0b2041fe722-flip_flowchart-v2-pointEnd)"></path></g><g class="edgeLabels"><g class="edgeLabel" transform="translate(570.8184661865234, 111.0999984741211)"><g class="label" data-id="L_Stub_Root_0" transform="translate(0, -10.5)"><g><rect class="background" style="" x="-16.3046875" y="-1" width="32.609375" height="23"></rect><text y="-10.1" text-anchor="middle" style=""><tspan class="text-outer-tspan row" x="0" y="-0.1em" dy="1.1em" text-anchor="middle"><tspan font-style="normal" class="text-inner-tspan" font-weight="normal">NS</tspan><tspan font-style="normal" class="text-inner-tspan" font-weight="normal"> .</tspan></tspan></text></g></g></g><g class="edgeLabel" transform="translate(328.6431465148926, 250.6999969482422)"><g class="label" data-id="L_Root_TLD_0" transform="translate(0, -10.5)"><g><rect class="background" style="" x="-31.1953125" y="-1" width="62.390625" height="23"></rect><text y="-10.1" text-anchor="middle" style=""><tspan class="text-outer-tspan row" x="0" y="-0.1em" dy="1.1em" text-anchor="middle"><tspan font-style="normal" class="text-inner-tspan" font-weight="normal">NS</tspan><tspan font-style="normal" class="text-inner-tspan" font-weight="normal"> com.</tspan></tspan></text></g></g></g><g class="edgeLabel" transform="translate(205.81892776489258, 390.2999954223633)"><g class="label" data-id="L_TLD_Auth_0" transform="translate(0, -10.5)"><g><rect class="background" style="" x="-64.53125" y="-1" width="129.0625" height="23"></rect><text y="-10.1" text-anchor="middle" style=""><tspan class="text-outer-tspan row" x="0" y="-0.1em" dy="1.1em" text-anchor="middle"><tspan font-style="normal" class="text-inner-tspan" font-weight="normal">NS</tspan><tspan font-style="normal" class="text-inner-tspan" font-weight="normal"> example.com.</tspan></tspan></text></g></g></g><g class="edgeLabel" transform="translate(90.60063934326172, 529.8999938964844)"><g class="label" data-id="L_Auth_Answer_0" transform="translate(0, -10.5)"><g><rect class="background" style="" x="-59.859375" y="-1" width="119.71875" height="23"></rect><text y="-10.1" text-anchor="middle" style=""><tspan class="text-outer-tspan row" x="0" y="-0.1em" dy="1.1em" text-anchor="middle"><tspan font-style="normal" class="text-inner-tspan" font-weight="normal">A</tspan><tspan font-style="normal" class="text-inner-tspan" font-weight="normal"> example.com.</tspan></tspan></text></g></g></g><g class="edgeLabel" transform="translate(821.7950286865234, 111.0999984741211)"><g class="label" data-id="L_Stub_F1_0" transform="translate(0, -10.5)"><g><rect class="background" style="" x="-59.9609375" y="-1" width="119.921875" height="23"></rect><text y="-10.1" text-anchor="middle" style=""><tspan class="text-outer-tspan row" x="0" y="-0.1em" dy="1.1em" text-anchor="middle"><tspan font-style="normal" class="text-inner-tspan" font-weight="normal">no</tspan><tspan font-style="normal" class="text-inner-tspan" font-weight="normal"> root</tspan><tspan font-style="normal" class="text-inner-tspan" font-weight="normal"> NS</tspan><tspan font-style="normal" class="text-inner-tspan" font-weight="normal"> reply</tspan></tspan></text></g></g></g><g class="edgeLabel" transform="translate(596.3150215148926, 250.6999969482422)"><g class="label" data-id="L_Root_F2_0" transform="translate(0, -10.5)"><g><rect class="background" style="" x="-59.0234375" y="-1" width="118.046875" height="23"></rect><text y="-10.1" text-anchor="middle" style=""><tspan class="text-outer-tspan row" x="0" y="-0.1em" dy="1.1em" text-anchor="middle"><tspan font-style="normal" class="text-inner-tspan" font-weight="normal">REFUSED</tspan><tspan font-style="normal" class="text-inner-tspan" font-weight="normal"> at</tspan><tspan font-style="normal" class="text-inner-tspan" font-weight="normal"> TLD</tspan></tspan></text></g></g></g><g class="edgeLabel" transform="translate(451.4673652648926, 390.2999954223633)"><g class="label" data-id="L_TLD_F3_0" transform="translate(0, -10.5)"><g><rect class="background" style="" x="-54.0390625" y="-1" width="108.078125" height="23"></rect><text y="-10.1" text-anchor="middle" style=""><tspan class="text-outer-tspan row" x="0" y="-0.1em" dy="1.1em" text-anchor="middle"><tspan font-style="normal" class="text-inner-tspan" font-weight="normal">no</tspan><tspan font-style="normal" class="text-inner-tspan" font-weight="normal"> NS</tspan><tspan font-style="normal" class="text-inner-tspan" font-weight="normal"> for</tspan><tspan font-style="normal" class="text-inner-tspan" font-weight="normal"> zone</tspan></tspan></text></g></g></g><g class="edgeLabel" transform="translate(321.03721618652344, 529.8999938964844)"><g class="label" data-id="L_Auth_F4_0" transform="translate(0, -10.5)"><g><rect class="background" style="" x="-37.578125" y="-1" width="75.15625" height="23"></rect><text y="-10.1" text-anchor="middle" style=""><tspan class="text-outer-tspan row" x="0" y="-0.1em" dy="1.1em" text-anchor="middle"><tspan font-style="normal" class="text-inner-tspan" font-weight="normal">no</tspan><tspan font-style="normal" class="text-inner-tspan" font-weight="normal"> AA</tspan><tspan font-style="normal" class="text-inner-tspan" font-weight="normal"> flag</tspan></tspan></text></g></g></g><g class="edgeLabel" transform="translate(558.2559661865234, 529.8999938964844)"><g class="label" data-id="L_Auth_F5_0" transform="translate(0, -10.5)"><g><rect class="background" style="" x="-33.46875" y="-1" width="66.9375" height="23"></rect><text y="-10.1" text-anchor="middle" style=""><tspan class="text-outer-tspan row" x="0" y="-0.1em" dy="1.1em" text-anchor="middle"><tspan font-style="normal" class="text-inner-tspan" font-weight="normal">SERVFAIL</tspan></tspan></text></g></g></g></g><g class="nodes"><g class="node default" id="g9b25111d-596f-4e83-873b-e0b2041fe722-flip-flowchart-Stub-0" data-look="classic" transform="translate(703.1856536865234, 41.29999923706055)"><rect class="basic label-container" style="" x="-84.1953125" y="-33.29999923706055" width="168.390625" height="66.5999984741211"></rect><g class="label" style="" transform="translate(0, -18.299999237060547)"><rect></rect><g><rect class="background" style="stroke: none"></rect><text y="-10.1" style=""><tspan class="text-outer-tspan row" x="0" y="-0.1em" dy="1.1em"><tspan font-style="normal" class="text-inner-tspan" font-weight="normal">Stub</tspan><tspan font-style="normal" class="text-inner-tspan" font-weight="normal"> resolver</tspan></tspan><tspan class="text-outer-tspan row" x="0" y="1em" dy="1.1em"><tspan font-style="normal" class="text-inner-tspan" font-weight="normal">(your</tspan><tspan font-style="normal" class="text-inner-tspan" font-weight="normal"> machine)</tspan></tspan></text></g></g></g><g class="node default" id="g9b25111d-596f-4e83-873b-e0b2041fe722-flip-flowchart-Root-1" data-look="classic" transform="translate(570.8184661865234, 180.89999771118164)"><rect class="basic label-container" style="" x="-110.5859375" y="-33.29999923706055" width="221.171875" height="66.5999984741211"></rect><g class="label" style="" transform="translate(0, -18.299999237060547)"><rect></rect><g><rect class="background" style="stroke: none"></rect><text y="-10.1" style=""><tspan class="text-outer-tspan row" x="0" y="-0.1em" dy="1.1em"><tspan font-style="normal" class="text-inner-tspan" font-weight="normal">Root</tspan><tspan font-style="normal" class="text-inner-tspan" font-weight="normal"> NS</tspan></tspan><tspan class="text-outer-tspan row" x="0" y="1em" dy="1.1em"><tspan font-style="normal" class="text-inner-tspan" font-weight="normal">(a-m.root-servers.net)</tspan></tspan></text></g></g></g><g class="node default" id="g9b25111d-596f-4e83-873b-e0b2041fe722-flip-flowchart-TLD-2" data-look="classic" transform="translate(328.6431465148926, 320.49999618530273)"><rect class="basic label-container" style="" x="-116.8125" y="-33.29999923706055" width="233.625" height="66.5999984741211"></rect><g class="label" style="" transform="translate(0, -18.299999237060547)"><rect></rect><g><rect class="background" style="stroke: none"></rect><text y="-10.1" style=""><tspan class="text-outer-tspan row" x="0" y="-0.1em" dy="1.1em"><tspan font-style="normal" class="text-inner-tspan" font-weight="normal">TLD</tspan><tspan font-style="normal" class="text-inner-tspan" font-weight="normal"> NS</tspan></tspan><tspan class="text-outer-tspan row" x="0" y="1em" dy="1.1em"><tspan font-style="normal" class="text-inner-tspan" font-weight="normal">(e.g.</tspan><tspan font-style="normal" class="text-inner-tspan" font-weight="normal"> a.gtld-servers.net)</tspan></tspan></text></g></g></g><g class="node default" id="g9b25111d-596f-4e83-873b-e0b2041fe722-flip-flowchart-Auth-3" data-look="classic" transform="translate(205.81892776489258, 460.0999946594238)"><rect class="basic label-container" style="" x="-98.84375" y="-33.29999923706055" width="197.6875" height="66.5999984741211"></rect><g class="label" style="" transform="translate(0, -18.299999237060547)"><rect></rect><g><rect class="background" style="stroke: none"></rect><text y="-10.1" style=""><tspan class="text-outer-tspan row" x="0" y="-0.1em" dy="1.1em"><tspan font-style="normal" class="text-inner-tspan" font-weight="normal">Zone</tspan><tspan font-style="normal" class="text-inner-tspan" font-weight="normal"> NS</tspan></tspan><tspan class="text-outer-tspan row" x="0" y="1em" dy="1.1em"><tspan font-style="normal" class="text-inner-tspan" font-weight="normal">(ns1.example.com)</tspan></tspan></text></g></g></g><g class="node default" id="g9b25111d-596f-4e83-873b-e0b2041fe722-flip-flowchart-Answer-4" data-look="classic" transform="translate(90.60063934326172, 599.6999931335449)"><g class="basic label-container outer-path"><path d="M-65.609375 -17 C-24.416545216322746 -17, 16.77628456735451 -17, 65.609375 -17 C65.609375 -17, 65.609375 -17, 65.609375 -17 C65.84101430255393 -16.992571778425646, 66.07265360510786 -16.98514355685129, 66.69856873967211 -16.965071676755716 C67.08791058130979 -16.927512337545004, 67.47725242294747 -16.889952998334287, 67.7832867486366 -16.860430234995185 C68.16063021224035 -16.799424270141998, 68.53797367584409 -16.73841830528881, 68.85907168792333 -16.686505668848113 C69.08697545141844 -16.634488122041397, 69.31487921491355 -16.582470575234684, 69.92150292646163 -16.4440126716635 C70.33691849661446 -16.320719511002967, 70.75233406676728 -16.197426350342432, 70.96621470640156 -16.133947699181366 C71.30657181293302 -16.008693137751187, 71.64692891946447 -15.883438576321009, 71.98891408294936 -15.757584874882369 C72.21245003941256 -15.65863213791466, 72.43598599587577 -15.559679400946951, 72.98539856499849 -15.316470754341125 C73.31502292985097 -15.144505934332068, 73.64464729470345 -14.972541114323013, 73.95157338406693 -14.812417970097622 C74.23176880321786 -14.642561860397276, 74.51196422236879 -14.47270575069693, 74.88346832057933 -14.247497783161291 C75.1377900441411 -14.070093958214567, 75.39211176770289 -13.892690133267843, 75.77725401835067 -13.624031571755262 C75.95222649226497 -13.48449568002169, 76.12719896617926 -13.344959788288117, 76.6292577202324 -12.944581292275288 C76.84708403332478 -12.746757198093215, 77.06491034641715 -12.548933103911144, 77.43597836025927 -12.21193895166137 C77.69398262689126 -11.94552836381961, 77.95198689352324 -11.67911777597785, 78.19410095028036 -11.42911513444239 C78.35491837923338 -11.24020983162323, 78.5157358081864 -11.05130452880407, 78.90051020195651 -10.59932663159847 C79.14419277355852 -10.272814185590745, 79.38787534516052 -9.94630173958302, 79.55230332814824 -9.725983222076888 C79.7804105306352 -9.375549303696497, 80.00851773312215 -9.025115385316107, 80.14680197109088 -8.812673661278927 C80.30212543163805 -8.53688112887155, 80.45744889218521 -8.261088596464171, 80.681563208341 -7.863150934094199 C80.81739897864122 -7.581085050645909, 80.95323474894144 -7.299019167197618, 81.15438959126881 -6.881316833080699 C81.29976678064844 -6.522232364636274, 81.44514397002807 -6.163147896191848, 81.56333817484592 -5.871205925162238 C81.65701229491653 -5.589074400453772, 81.75068641498713 -5.306942875745305, 81.90672850162323 -4.836968972727556 C81.9744477426592 -4.578726156952707, 82.04216698369515 -4.320483341177859, 82.183149507091 -3.7828558772573464 C82.2501858980158 -3.438638178004719, 82.3172222889406 -3.094420478752092, 82.39146531804565 -2.713198215567453 C82.44129062310779 -2.326762988624825, 82.49111592816993 -1.9403277616821977, 82.53081992013637 -1.632391440430593 C82.55116868294598 -1.3154430344452022, 82.57151744575559 -0.9984946284598113, 82.6006406754117 -0.5448768187181379 C82.6006406754117 -0.15694968045263769, 82.6006406754117 0.2309774578128625, 82.6006406754117 0.5448768187181336 C82.58133507467365 0.8455771334136548, 82.5620294739356 1.146277448109176, 82.53081992013637 1.6323914404305815 C82.49028817633884 1.9467476414260734, 82.44975643254132 2.2611038424215653, 82.39146531804565 2.7131982155674415 C82.3228528829747 3.0655085684135104, 82.25424044790374 3.4178189212595798, 82.183149507091 3.782855877257343 C82.12193996430838 4.016274392271119, 82.06073042152576 4.249692907284896, 81.90672850162323 4.836968972727545 C81.7917773368259 5.18318356611623, 81.67682617202856 5.529398159504915, 81.56333817484592 5.871205925162227 C81.43647239531995 6.1845668533743625, 81.30960661579398 6.4979277815864975, 81.15438959126881 6.881316833080694 C81.0242662973837 7.151520637025577, 80.89414300349861 7.42172444097046, 80.681563208341 7.863150934094196 C80.5605082025177 8.078096355082039, 80.43945319669439 8.293041776069883, 80.14680197109088 8.812673661278923 C79.91723224764874 9.165354404588356, 79.68766252420659 9.51803514789779, 79.55230332814826 9.725983222076879 C79.35318765891452 9.992780079039434, 79.1540719896808 10.259576936001988, 78.90051020195651 10.599326631598467 C78.65522885896338 10.88744805398199, 78.40994751597026 11.175569476365512, 78.19410095028037 11.42911513444238 C77.89515501059786 11.737801361082667, 77.59620907091536 12.046487587722952, 77.43597836025927 12.211938951661365 C77.26412896108167 12.368008029108527, 77.09227956190406 12.524077106555689, 76.62925772023242 12.944581292275275 C76.35611947440029 13.162401774812418, 76.08298122856816 13.380222257349558, 75.77725401835067 13.62403157175526 C75.4325551470499 13.864478582601041, 75.08785627574912 14.10492559344682, 74.88346832057934 14.247497783161286 C74.60875774823593 14.41402894649438, 74.33404717589251 14.580560109827474, 73.95157338406695 14.81241797009762 C73.7004627434924 14.943422230441323, 73.44935210291783 15.074426490785028, 72.98539856499849 15.316470754341124 C72.69386625687933 15.445523459146816, 72.40233394876017 15.57457616395251, 71.98891408294936 15.757584874882367 C71.68347546515623 15.869989109673872, 71.37803684736309 15.982393344465379, 70.96621470640156 16.133947699181363 C70.6385012270251 16.23121133965714, 70.31078774764863 16.32847498013292, 69.92150292646164 16.444012671663497 C69.54584334564919 16.529754519576077, 69.17018376483675 16.615496367488657, 68.85907168792333 16.68650566884811 C68.52721309883695 16.7401579919298, 68.19535450975059 16.793810315011488, 67.78328674863661 16.86043023499518 C67.54789579328563 16.883138117358847, 67.31250483793464 16.905845999722516, 66.69856873967211 16.965071676755716 C66.30553140879304 16.977675618956255, 65.91249407791399 16.99027956115679, 65.609375 17 C65.609375 17, 65.609375 17, 65.609375 17 C31.911657006890593 17, -1.7860609862188142 17, -65.609375 17 C-65.8763138750063 16.991439789843547, -66.14325275001259 16.982879579687097, -66.69856873967211 16.965071676755716 C-67.09745984548982 16.926591131514225, -67.49635095130753 16.88811058627273, -67.7832867486366 16.86043023499518 C-68.09788901526971 16.809567780302956, -68.41249128190282 16.75870532561073, -68.85907168792333 16.68650566884811 C-69.22970253881473 16.601911595724477, -69.60033338970614 16.517317522600848, -69.92150292646161 16.4440126716635 C-70.13214117286375 16.381496345794062, -70.34277941926591 16.318980019924624, -70.96621470640154 16.13394769918137 C-71.18108962651026 16.054871742299373, -71.39596454661898 15.975795785417379, -71.98891408294936 15.757584874882369 C-72.30963084534567 15.615613077894258, -72.63034760774198 15.473641280906149, -72.98539856499849 15.316470754341127 C-73.31834654580896 15.142772006015663, -73.65129452661942 14.969073257690201, -73.95157338406693 14.812417970097624 C-74.25243471054951 14.630034065926482, -74.55329603703207 14.447650161755343, -74.88346832057931 14.247497783161299 C-75.14729407673072 14.063464356502998, -75.41111983288211 13.879430929844697, -75.77725401835067 13.624031571755264 C-76.02290696360986 13.428129885010478, -76.26855990886905 13.232228198265691, -76.6292577202324 12.94458129227529 C-76.80397216693764 12.785910254468531, -76.97868661364289 12.62723921666177, -77.43597836025926 12.211938951661377 C-77.68695120862932 11.952788880465226, -77.93792405699939 11.693638809269073, -78.19410095028036 11.429115134442386 C-78.41908974475525 11.164830494227102, -78.64407853923015 10.90054585401182, -78.90051020195651 10.599326631598473 C-79.05561392052665 10.391501778953932, -79.21071763909679 10.183676926309392, -79.55230332814824 9.72598322207689 C-79.78299474402657 9.371579257968909, -80.01368615990488 9.017175293860928, -80.14680197109088 8.812673661278936 C-80.29661583680839 8.54666397239859, -80.44642970252589 8.280654283518246, -80.681563208341 7.863150934094201 C-80.79656661822166 7.624343892798229, -80.91157002810233 7.385536851502256, -81.15438959126881 6.881316833080701 C-81.26671276263689 6.6038764281807785, -81.37903593400496 6.326436023280855, -81.56333817484592 5.87120592516224 C-81.65260540632912 5.602347246736693, -81.74187263781232 5.333488568311147, -81.90672850162323 4.8369689727275516 C-81.98595931946213 4.534827525454205, -82.065190137301 4.232686078180858, -82.183149507091 3.782855877257349 C-82.24148544808565 3.4833131495552854, -82.29982138908031 3.183770421853222, -82.39146531804565 2.713198215567455 C-82.43256006450771 2.394475477083201, -82.47365481096979 2.075752738598947, -82.53081992013637 1.6323914404306026 C-82.55552492177775 1.2475910983478398, -82.58022992341911 0.8627907562650768, -82.6006406754117 0.54487681871814 C-82.6006406754117 0.15618301868646295, -82.6006406754117 -0.23251078134521408, -82.6006406754117 -0.5448768187181317 C-82.57671159586234 -0.9175915479048724, -82.55278251631296 -1.2903062770916132, -82.53081992013637 -1.6323914404305793 C-82.47966806276628 -2.0291151451162026, -82.42851620539619 -2.425838849801826, -82.39146531804565 -2.713198215567447 C-82.3403593315761 -2.9756166548345457, -82.28925334510654 -3.2380350941016447, -82.183149507091 -3.782855877257341 C-82.08160835904438 -4.170076282971034, -81.98006721099777 -4.557296688684726, -81.90672850162323 -4.836968972727544 C-81.83428072285899 -5.055170139379471, -81.76183294409475 -5.2733713060313985, -81.56333817484594 -5.871205925162218 C-81.40387039616147 -6.265094421612617, -81.244402617477 -6.658982918063016, -81.15438959126881 -6.881316833080692 C-80.98105573424183 -7.241248295947621, -80.80772187721486 -7.601179758814549, -80.681563208341 -7.863150934094194 C-80.52849953333586 -8.134930988443605, -80.37543585833073 -8.406711042793015, -80.14680197109088 -8.812673661278929 C-79.96859843938431 -9.086442140328735, -79.79039490767774 -9.360210619378543, -79.55230332814826 -9.725983222076884 C-79.33905065953418 -10.011722370301957, -79.12579799092012 -10.297461518527031, -78.90051020195651 -10.599326631598467 C-78.72469729933617 -10.80584647105387, -78.54888439671585 -11.012366310509275, -78.19410095028037 -11.42911513444238 C-77.96766393518726 -11.662929943350703, -77.74122692009414 -11.896744752259025, -77.43597836025927 -12.21193895166136 C-77.22156895699077 -12.40665989874787, -77.00715955372227 -12.601380845834381, -76.62925772023242 -12.944581292275274 C-76.40922601364824 -13.120050722986539, -76.18919430706406 -13.295520153697804, -75.77725401835067 -13.624031571755259 C-75.42458439666554 -13.870038633020943, -75.07191477498041 -14.116045694286628, -74.88346832057934 -14.247497783161284 C-74.56482105393279 -14.440663628781612, -74.24617378728625 -14.633829474401939, -73.95157338406695 -14.812417970097618 C-73.63731834939819 -14.976364620394357, -73.32306331472941 -15.140311270691095, -72.98539856499849 -15.316470754341124 C-72.60120019053134 -15.486543977877881, -72.21700181606418 -15.65661720141464, -71.98891408294936 -15.757584874882365 C-71.59476617992779 -15.902634946657582, -71.20061827690621 -16.047685018432798, -70.96621470640156 -16.133947699181363 C-70.6479141667263 -16.228417628563353, -70.32961362705103 -16.322887557945343, -69.92150292646164 -16.444012671663494 C-69.51078374020413 -16.537756645733605, -69.10006455394661 -16.631500619803717, -68.85907168792333 -16.68650566884811 C-68.56855314521361 -16.73347445382847, -68.2780346025039 -16.78044323880883, -67.78328674863661 -16.86043023499518 C-67.36865191414815 -16.900429558806938, -66.95401707965966 -16.940428882618694, -66.69856873967213 -16.965071676755716 C-66.35137055610984 -16.976205646722292, -66.00417237254756 -16.987339616688867, -65.609375 -17 C-65.609375 -17, -65.609375 -17, -65.609375 -17" stroke="none" stroke-width="0" fill="#ECECFF" style=""></path><path d="M-65.609375 -17 C-38.41348883578838 -17, -11.217602671576756 -17, 65.609375 -17 M-65.609375 -17 C-28.632358345328356 -17, 8.344658309343288 -17, 65.609375 -17 M65.609375 -17 C65.609375 -17, 65.609375 -17, 65.609375 -17 M65.609375 -17 C65.609375 -17, 65.609375 -17, 65.609375 -17 M65.609375 -17 C65.96099629904607 -16.98872418932893, 66.31261759809215 -16.97744837865786, 66.69856873967211 -16.965071676755716 M65.609375 -17 C65.94328094805256 -16.989292286154456, 66.27718689610512 -16.978584572308907, 66.69856873967211 -16.965071676755716 M66.69856873967211 -16.965071676755716 C67.03917789939425 -16.93221352075977, 67.37978705911638 -16.899355364763824, 67.7832867486366 -16.860430234995185 M66.69856873967211 -16.965071676755716 C67.08935732913262 -16.927372771522503, 67.48014591859315 -16.88967386628929, 67.7832867486366 -16.860430234995185 M67.7832867486366 -16.860430234995185 C68.14622256226298 -16.801753587257345, 68.50915837588937 -16.7430769395195, 68.85907168792333 -16.686505668848113 M67.7832867486366 -16.860430234995185 C68.09180640340017 -16.81055116981867, 68.40032605816374 -16.76067210464215, 68.85907168792333 -16.686505668848113 M68.85907168792333 -16.686505668848113 C69.10092959467352 -16.63130317990272, 69.34278750142371 -16.57610069095733, 69.92150292646163 -16.4440126716635 M68.85907168792333 -16.686505668848113 C69.26549911160086 -16.593741261580515, 69.67192653527839 -16.50097685431292, 69.92150292646163 -16.4440126716635 M69.92150292646163 -16.4440126716635 C70.15210352077796 -16.375571625717633, 70.3827041150943 -16.307130579771766, 70.96621470640156 -16.133947699181366 M69.92150292646163 -16.4440126716635 C70.30215184257715 -16.331038071427347, 70.68280075869268 -16.218063471191194, 70.96621470640156 -16.133947699181366 M70.96621470640156 -16.133947699181366 C71.2899553958231 -16.014808132848113, 71.61369608524464 -15.895668566514859, 71.98891408294936 -15.757584874882369 M70.96621470640156 -16.133947699181366 C71.31977431803918 -16.003834493829498, 71.67333392967682 -15.873721288477627, 71.98891408294936 -15.757584874882369 M71.98891408294936 -15.757584874882369 C72.22212500173909 -15.65434931909027, 72.45533592052881 -15.551113763298172, 72.98539856499849 -15.316470754341125 M71.98891408294936 -15.757584874882369 C72.26176502506556 -15.636801856643155, 72.53461596718175 -15.516018838403939, 72.98539856499849 -15.316470754341125 M72.98539856499849 -15.316470754341125 C73.35660674013 -15.122811687145195, 73.72781491526153 -14.929152619949264, 73.95157338406693 -14.812417970097622 M72.98539856499849 -15.316470754341125 C73.34523755518302 -15.128742983649726, 73.70507654536756 -14.941015212958327, 73.95157338406693 -14.812417970097622 M73.95157338406693 -14.812417970097622 C74.21268483007546 -14.654130677066071, 74.473796276084 -14.49584338403452, 74.88346832057933 -14.247497783161291 M73.95157338406693 -14.812417970097622 C74.17127705294253 -14.679232314903164, 74.39098072181812 -14.546046659708706, 74.88346832057933 -14.247497783161291 M74.88346832057933 -14.247497783161291 C75.18706486615645 -14.035721975449333, 75.49066141173357 -13.823946167737375, 75.77725401835067 -13.624031571755262 M74.88346832057933 -14.247497783161291 C75.15677147838437 -14.056853331379509, 75.43007463618942 -13.866208879597725, 75.77725401835067 -13.624031571755262 M75.77725401835067 -13.624031571755262 C76.08201590677601 -13.380992075790516, 76.38677779520133 -13.137952579825772, 76.6292577202324 -12.944581292275288 M75.77725401835067 -13.624031571755262 C76.07955682971969 -13.382953124304137, 76.3818596410887 -13.141874676853012, 76.6292577202324 -12.944581292275288 M76.6292577202324 -12.944581292275288 C76.8706330667645 -12.725370588996544, 77.11200841329659 -12.5061598857178, 77.43597836025927 -12.21193895166137 M76.6292577202324 -12.944581292275288 C76.83414173455162 -12.758511051404529, 77.03902574887086 -12.572440810533768, 77.43597836025927 -12.21193895166137 M77.43597836025927 -12.21193895166137 C77.62574042915125 -12.015994035774796, 77.81550249804324 -11.820049119888221, 78.19410095028036 -11.42911513444239 M77.43597836025927 -12.21193895166137 C77.66301583188543 -11.977504122084273, 77.8900533035116 -11.743069292507176, 78.19410095028036 -11.42911513444239 M78.19410095028036 -11.42911513444239 C78.41184839198928 -11.17333659923065, 78.62959583369822 -10.91755806401891, 78.90051020195651 -10.59932663159847 M78.19410095028036 -11.42911513444239 C78.4635591844714 -11.11259415995371, 78.73301741866244 -10.796073185465032, 78.90051020195651 -10.59932663159847 M78.90051020195651 -10.59932663159847 C79.09739035150737 -10.335525167350918, 79.29427050105824 -10.071723703103364, 79.55230332814824 -9.725983222076888 M78.90051020195651 -10.59932663159847 C79.0350947266154 -10.418995629457976, 79.1696792512743 -10.238664627317482, 79.55230332814824 -9.725983222076888 M79.55230332814824 -9.725983222076888 C79.77352402980048 -9.386128818263023, 79.99474473145271 -9.046274414449158, 80.14680197109088 -8.812673661278927 M79.55230332814824 -9.725983222076888 C79.73747793109966 -9.44150530560026, 79.9226525340511 -9.157027389123632, 80.14680197109088 -8.812673661278927 M80.14680197109088 -8.812673661278927 C80.35622299096248 -8.440825434319121, 80.56564401083408 -8.068977207359314, 80.681563208341 -7.863150934094199 M80.14680197109088 -8.812673661278927 C80.26526921142576 -8.602323079955463, 80.38373645176063 -8.391972498631999, 80.681563208341 -7.863150934094199 M80.681563208341 -7.863150934094199 C80.81183178302753 -7.592645451456645, 80.94210035771405 -7.32213996881909, 81.15438959126881 -6.881316833080699 M80.681563208341 -7.863150934094199 C80.84382063580466 -7.526219914213141, 81.0060780632683 -7.1892888943320825, 81.15438959126881 -6.881316833080699 M81.15438959126881 -6.881316833080699 C81.25830952088462 -6.624632597774493, 81.36222945050042 -6.367948362468287, 81.56333817484592 -5.871205925162238 M81.15438959126881 -6.881316833080699 C81.29652035197657 -6.530251106221216, 81.43865111268433 -6.179185379361732, 81.56333817484592 -5.871205925162238 M81.56333817484592 -5.871205925162238 C81.63243921735948 -5.6630845948674065, 81.70154025987301 -5.454963264572575, 81.90672850162323 -4.836968972727556 M81.56333817484592 -5.871205925162238 C81.66056444181447 -5.578375899954924, 81.757790708783 -5.28554587474761, 81.90672850162323 -4.836968972727556 M81.90672850162323 -4.836968972727556 C81.99886518318388 -4.485611873646422, 82.09100186474453 -4.13425477456529, 82.183149507091 -3.7828558772573464 M81.90672850162323 -4.836968972727556 C82.00410934271669 -4.465613620514703, 82.10149018381014 -4.094258268301851, 82.183149507091 -3.7828558772573464 M82.183149507091 -3.7828558772573464 C82.25674435648237 -3.404961879909564, 82.33033920587374 -3.027067882561782, 82.39146531804565 -2.713198215567453 M82.183149507091 -3.7828558772573464 C82.24978091777037 -3.440717665972446, 82.31641232844973 -3.0985794546875454, 82.39146531804565 -2.713198215567453 M82.39146531804565 -2.713198215567453 C82.4468933378021 -2.2833094398369917, 82.50232135755853 -1.853420664106531, 82.53081992013637 -1.632391440430593 M82.39146531804565 -2.713198215567453 C82.43620213018733 -2.36622833487936, 82.480938942329 -2.019258454191267, 82.53081992013637 -1.632391440430593 M82.53081992013637 -1.632391440430593 C82.5451482358047 -1.4092163582880084, 82.55947655147304 -1.1860412761454235, 82.6006406754117 -0.5448768187181379 M82.53081992013637 -1.632391440430593 C82.5506054013601 -1.3242165998179005, 82.57039088258384 -1.0160417592052078, 82.6006406754117 -0.5448768187181379 M82.6006406754117 -0.5448768187181379 C82.6006406754117 -0.23651064621797013, 82.6006406754117 0.0718555262821976, 82.6006406754117 0.5448768187181336 M82.6006406754117 -0.5448768187181379 C82.6006406754117 -0.16483445403574887, 82.6006406754117 0.21520791064664013, 82.6006406754117 0.5448768187181336 M82.6006406754117 0.5448768187181336 C82.5729272245756 0.9765361853853745, 82.54521377373948 1.4081955520526153, 82.53081992013637 1.6323914404305815 M82.6006406754117 0.5448768187181336 C82.58287516212937 0.8215890281545901, 82.56510964884704 1.0983012375910466, 82.53081992013637 1.6323914404305815 M82.53081992013637 1.6323914404305815 C82.48754051141412 1.9680579879944147, 82.44426110269187 2.3037245355582474, 82.39146531804565 2.7131982155674415 M82.53081992013637 1.6323914404305815 C82.49982827487362 1.8727565210958594, 82.46883662961088 2.1131216017611374, 82.39146531804565 2.7131982155674415 M82.39146531804565 2.7131982155674415 C82.34324918982372 2.9607778435047534, 82.29503306160179 3.2083574714420657, 82.183149507091 3.782855877257343 M82.39146531804565 2.7131982155674415 C82.3248101514129 3.0554584086520933, 82.25815498478018 3.3977186017367456, 82.183149507091 3.782855877257343 M82.183149507091 3.782855877257343 C82.09375953226264 4.123738593138066, 82.00436955743427 4.464621309018789, 81.90672850162323 4.836968972727545 M82.183149507091 3.782855877257343 C82.11217727935643 4.053503741167369, 82.04120505162184 4.324151605077395, 81.90672850162323 4.836968972727545 M81.90672850162323 4.836968972727545 C81.82225949941537 5.091376149069832, 81.73779049720748 5.345783325412119, 81.56333817484592 5.871205925162227 M81.90672850162323 4.836968972727545 C81.82870289336533 5.071969673107919, 81.75067728510743 5.3069703734882925, 81.56333817484592 5.871205925162227 M81.56333817484592 5.871205925162227 C81.42754234972308 6.206624238649305, 81.29174652460026 6.542042552136384, 81.15438959126881 6.881316833080694 M81.56333817484592 5.871205925162227 C81.45599664027365 6.13634159086311, 81.3486551057014 6.401477256563993, 81.15438959126881 6.881316833080694 M81.15438959126881 6.881316833080694 C81.04443020510317 7.109649851207598, 80.93447081893754 7.337982869334502, 80.681563208341 7.863150934094196 M81.15438959126881 6.881316833080694 C81.02692786223544 7.1459938406625945, 80.89946613320207 7.410670848244495, 80.681563208341 7.863150934094196 M80.681563208341 7.863150934094196 C80.50804884288351 8.171243260198723, 80.33453447742602 8.47933558630325, 80.14680197109088 8.812673661278923 M80.681563208341 7.863150934094196 C80.50408919069787 8.178274023612596, 80.32661517305473 8.493397113130998, 80.14680197109088 8.812673661278923 M80.14680197109088 8.812673661278923 C79.9877229160384 9.05706180854701, 79.8286438609859 9.301449955815096, 79.55230332814826 9.725983222076879 M80.14680197109088 8.812673661278923 C79.94659469454608 9.120245801233052, 79.74638741800128 9.427817941187179, 79.55230332814826 9.725983222076879 M79.55230332814826 9.725983222076879 C79.29663095276908 10.068560912852417, 79.04095857738989 10.411138603627956, 78.90051020195651 10.599326631598467 M79.55230332814826 9.725983222076879 C79.37347685005126 9.965594411299548, 79.19465037195427 10.205205600522218, 78.90051020195651 10.599326631598467 M78.90051020195651 10.599326631598467 C78.75583235780807 10.76927345973776, 78.61115451365964 10.939220287877054, 78.19410095028037 11.42911513444238 M78.90051020195651 10.599326631598467 C78.72780542893608 10.802195485168243, 78.55510065591565 11.005064338738018, 78.19410095028037 11.42911513444238 M78.19410095028037 11.42911513444238 C77.89280964026443 11.740223148510417, 77.5915183302485 12.051331162578455, 77.43597836025927 12.211938951661365 M78.19410095028037 11.42911513444238 C78.0406497476498 11.587566099736486, 77.88719854501922 11.746017065030593, 77.43597836025927 12.211938951661365 M77.43597836025927 12.211938951661365 C77.17432693461267 12.449563853516258, 76.91267550896606 12.68718875537115, 76.62925772023242 12.944581292275275 M77.43597836025927 12.211938951661365 C77.14475510426071 12.47642020741414, 76.85353184826216 12.740901463166916, 76.62925772023242 12.944581292275275 M76.62925772023242 12.944581292275275 C76.36967415597603 13.151592276960985, 76.11009059171965 13.358603261646694, 75.77725401835067 13.62403157175526 M76.62925772023242 12.944581292275275 C76.36436372079113 13.15582720770433, 76.09946972134985 13.367073123133387, 75.77725401835067 13.62403157175526 M75.77725401835067 13.62403157175526 C75.5831867999667 13.759404462265442, 75.38911958158272 13.894777352775623, 74.88346832057934 14.247497783161286 M75.77725401835067 13.62403157175526 C75.54862826502568 13.783511000225428, 75.3200025117007 13.942990428695595, 74.88346832057934 14.247497783161286 M74.88346832057934 14.247497783161286 C74.61155454596586 14.41233351127469, 74.33964077135236 14.577169239388096, 73.95157338406695 14.81241797009762 M74.88346832057934 14.247497783161286 C74.5731583720363 14.43560949755175, 74.26284842349325 14.623721211942216, 73.95157338406695 14.81241797009762 M73.95157338406695 14.81241797009762 C73.71278223085501 14.936995161775256, 73.47399107764306 15.061572353452892, 72.98539856499849 15.316470754341124 M73.95157338406695 14.81241797009762 C73.57589576855003 15.0084087414798, 73.2002181530331 15.204399512861979, 72.98539856499849 15.316470754341124 M72.98539856499849 15.316470754341124 C72.76492483934983 15.414067932565082, 72.54445111370117 15.511665110789043, 71.98891408294936 15.757584874882367 M72.98539856499849 15.316470754341124 C72.70448304033589 15.440823724046295, 72.42356751567327 15.565176693751468, 71.98891408294936 15.757584874882367 M71.98891408294936 15.757584874882367 C71.66431814552185 15.877039180387648, 71.33972220809432 15.99649348589293, 70.96621470640156 16.133947699181363 M71.98891408294936 15.757584874882367 C71.70931332992309 15.860480536597064, 71.4297125768968 15.963376198311762, 70.96621470640156 16.133947699181363 M70.96621470640156 16.133947699181363 C70.69876691868916 16.213324798712318, 70.43131913097676 16.292701898243276, 69.92150292646164 16.444012671663497 M70.96621470640156 16.133947699181363 C70.61145975443308 16.239237106778866, 70.2567048024646 16.34452651437637, 69.92150292646164 16.444012671663497 M69.92150292646164 16.444012671663497 C69.51544640654483 16.536692422568084, 69.10938988662802 16.629372173472667, 68.85907168792333 16.68650566884811 M69.92150292646164 16.444012671663497 C69.56480550687758 16.525426530015366, 69.20810808729351 16.60684038836723, 68.85907168792333 16.68650566884811 M68.85907168792333 16.68650566884811 C68.44702270818938 16.753122552403934, 68.03497372845543 16.819739435959754, 67.78328674863661 16.86043023499518 M68.85907168792333 16.68650566884811 C68.51008492245404 16.7429271426564, 68.16109815698474 16.799348616464687, 67.78328674863661 16.86043023499518 M67.78328674863661 16.86043023499518 C67.50489021420137 16.88728681385133, 67.22649367976614 16.91414339270748, 66.69856873967211 16.965071676755716 M67.78328674863661 16.86043023499518 C67.51560676816504 16.886253000778996, 67.24792678769349 16.91207576656281, 66.69856873967211 16.965071676755716 M66.69856873967211 16.965071676755716 C66.44358021927702 16.973248662299742, 66.18859169888192 16.981425647843768, 65.609375 17 M66.69856873967211 16.965071676755716 C66.45818123451852 16.9727804361601, 66.21779372936493 16.98048919556448, 65.609375 17 M65.609375 17 C65.609375 17, 65.609375 17, 65.609375 17 M65.609375 17 C65.609375 17, 65.609375 17, 65.609375 17 M65.609375 17 C32.75964910790017 17, -0.0900767841996668 17, -65.609375 17 M65.609375 17 C29.698333177936412 17, -6.212708644127176 17, -65.609375 17 M-65.609375 17 C-66.03826866147132 16.98624621506748, -66.46716232294264 16.972492430134967, -66.69856873967211 16.965071676755716 M-65.609375 17 C-65.97277952955196 16.988346324061276, -66.33618405910393 16.976692648122548, -66.69856873967211 16.965071676755716 M-66.69856873967211 16.965071676755716 C-66.96287894161243 16.939573989454058, -67.22718914355276 16.9140763021524, -67.7832867486366 16.86043023499518 M-66.69856873967211 16.965071676755716 C-67.04625843015087 16.931530470473263, -67.39394812062963 16.897989264190805, -67.7832867486366 16.86043023499518 M-67.7832867486366 16.86043023499518 C-68.00673929085252 16.824304160870057, -68.23019183306845 16.78817808674493, -68.85907168792333 16.68650566884811 M-67.7832867486366 16.86043023499518 C-68.05848143576304 16.81593889214725, -68.33367612288949 16.77144754929932, -68.85907168792333 16.68650566884811 M-68.85907168792333 16.68650566884811 C-69.13540364912788 16.62343470193774, -69.41173561033241 16.560363735027373, -69.92150292646161 16.4440126716635 M-68.85907168792333 16.68650566884811 C-69.10315256252531 16.63079580199677, -69.34723343712729 16.575085935145424, -69.92150292646161 16.4440126716635 M-69.92150292646161 16.4440126716635 C-70.13505445536913 16.3806316988386, -70.34860598427666 16.317250726013697, -70.96621470640154 16.13394769918137 M-69.92150292646161 16.4440126716635 C-70.21439324536732 16.357084362424942, -70.50728356427304 16.270156053186387, -70.96621470640154 16.13394769918137 M-70.96621470640154 16.13394769918137 C-71.33780738947458 15.997198156845384, -71.70940007254762 15.860448614509398, -71.98891408294936 15.757584874882369 M-70.96621470640154 16.13394769918137 C-71.24096267553524 16.032837906797784, -71.51571064466893 15.931728114414199, -71.98891408294936 15.757584874882369 M-71.98891408294936 15.757584874882369 C-72.336351118647 15.603784805532502, -72.68378815434465 15.449984736182634, -72.98539856499849 15.316470754341127 M-71.98891408294936 15.757584874882369 C-72.29907721126618 15.620284858638817, -72.609240339583 15.482984842395263, -72.98539856499849 15.316470754341127 M-72.98539856499849 15.316470754341127 C-73.35545094251661 15.123414666019784, -73.72550332003473 14.930358577698438, -73.95157338406693 14.812417970097624 M-72.98539856499849 15.316470754341127 C-73.2360658809796 15.185697776153866, -73.48673319696069 15.054924797966605, -73.95157338406693 14.812417970097624 M-73.95157338406693 14.812417970097624 C-74.19128140879499 14.667105556826758, -74.43098943352305 14.521793143555895, -74.88346832057931 14.247497783161299 M-73.95157338406693 14.812417970097624 C-74.14661259151599 14.694184056364401, -74.34165179896503 14.575950142631179, -74.88346832057931 14.247497783161299 M-74.88346832057931 14.247497783161299 C-75.07285585151281 14.115389240036166, -75.26224338244631 13.983280696911033, -75.77725401835067 13.624031571755264 M-74.88346832057931 14.247497783161299 C-75.13200055164405 14.074132457557415, -75.3805327827088 13.90076713195353, -75.77725401835067 13.624031571755264 M-75.77725401835067 13.624031571755264 C-75.97886335387105 13.463253491727505, -76.18047268939142 13.302475411699746, -76.6292577202324 12.94458129227529 M-75.77725401835067 13.624031571755264 C-75.9993803016616 13.446891771843445, -76.22150658497253 13.269751971931628, -76.6292577202324 12.94458129227529 M-76.6292577202324 12.94458129227529 C-76.81669066339707 12.774359652497058, -77.00412360656173 12.604138012718824, -77.43597836025926 12.211938951661377 M-76.6292577202324 12.94458129227529 C-76.91264824521286 12.687213515590441, -77.19603877019333 12.429845738905593, -77.43597836025926 12.211938951661377 M-77.43597836025926 12.211938951661377 C-77.73079121722952 11.90752047225388, -78.02560407419978 11.603101992846382, -78.19410095028036 11.429115134442386 M-77.43597836025926 12.211938951661377 C-77.66591078343662 11.974514846927734, -77.89584320661396 11.737090742194093, -78.19410095028036 11.429115134442386 M-78.19410095028036 11.429115134442386 C-78.35166977590885 11.244025825939, -78.50923860153732 11.058936517435614, -78.90051020195651 10.599326631598473 M-78.19410095028036 11.429115134442386 C-78.35983965578235 11.234429020160237, -78.52557836128435 11.039742905878088, -78.90051020195651 10.599326631598473 M-78.90051020195651 10.599326631598473 C-79.03292631965324 10.421901097241335, -79.16534243734998 10.244475562884197, -79.55230332814824 9.72598322207689 M-78.90051020195651 10.599326631598473 C-79.04255398416709 10.409000903891068, -79.18459776637766 10.218675176183663, -79.55230332814824 9.72598322207689 M-79.55230332814824 9.72598322207689 C-79.7254292959826 9.460015244651645, -79.89855526381693 9.1940472672264, -80.14680197109088 8.812673661278936 M-79.55230332814824 9.72598322207689 C-79.78531617229852 9.368012920752411, -80.01832901644879 9.010042619427935, -80.14680197109088 8.812673661278936 M-80.14680197109088 8.812673661278936 C-80.26477526982514 8.603200123284385, -80.38274856855938 8.393726585289834, -80.681563208341 7.863150934094201 M-80.14680197109088 8.812673661278936 C-80.3054798646203 8.53092499343839, -80.46415775814972 8.249176325597842, -80.681563208341 7.863150934094201 M-80.681563208341 7.863150934094201 C-80.82160248420557 7.572356381400921, -80.96164176007015 7.281561828707639, -81.15438959126881 6.881316833080701 M-80.681563208341 7.863150934094201 C-80.80466427096457 7.607528943615586, -80.92776533358813 7.351906953136971, -81.15438959126881 6.881316833080701 M-81.15438959126881 6.881316833080701 C-81.31727468702762 6.478987497387339, -81.48015978278644 6.076658161693977, -81.56333817484592 5.87120592516224 M-81.15438959126881 6.881316833080701 C-81.25686487795531 6.628200893740158, -81.35934016464181 6.375084954399615, -81.56333817484592 5.87120592516224 M-81.56333817484592 5.87120592516224 C-81.67330815418995 5.539993868714772, -81.783278133534 5.208781812267303, -81.90672850162323 4.8369689727275516 M-81.56333817484592 5.87120592516224 C-81.64113038426905 5.636908184885176, -81.71892259369216 5.402610444608112, -81.90672850162323 4.8369689727275516 M-81.90672850162323 4.8369689727275516 C-82.010190506441 4.442423507640871, -82.11365251125876 4.047878042554191, -82.183149507091 3.782855877257349 M-81.90672850162323 4.8369689727275516 C-81.99135436154182 4.51425389177828, -82.07598022146041 4.191538810829008, -82.183149507091 3.782855877257349 M-82.183149507091 3.782855877257349 C-82.23783201161795 3.5020727736628814, -82.2925145161449 3.2212896700684137, -82.39146531804565 2.713198215567455 M-82.183149507091 3.782855877257349 C-82.24749612764211 3.452449580390462, -82.31184274819321 3.122043283523575, -82.39146531804565 2.713198215567455 M-82.39146531804565 2.713198215567455 C-82.42435871803724 2.4580835007692134, -82.45725211802882 2.202968785970972, -82.53081992013637 1.6323914404306026 M-82.39146531804565 2.713198215567455 C-82.42532531449785 2.450586769496719, -82.45918531095006 2.187975323425983, -82.53081992013637 1.6323914404306026 M-82.53081992013637 1.6323914404306026 C-82.54711218566479 1.3786262539453966, -82.56340445119321 1.1248610674601907, -82.6006406754117 0.54487681871814 M-82.53081992013637 1.6323914404306026 C-82.54989510482234 1.3352800417346853, -82.56897028950831 1.0381686430387682, -82.6006406754117 0.54487681871814 M-82.6006406754117 0.54487681871814 C-82.6006406754117 0.28694815980093563, -82.6006406754117 0.029019500883731286, -82.6006406754117 -0.5448768187181317 M-82.6006406754117 0.54487681871814 C-82.6006406754117 0.3004893663134901, -82.6006406754117 0.05610191390884023, -82.6006406754117 -0.5448768187181317 M-82.6006406754117 -0.5448768187181317 C-82.57803774187288 -0.8969357533448042, -82.55543480833406 -1.2489946879714768, -82.53081992013637 -1.6323914404305793 M-82.6006406754117 -0.5448768187181317 C-82.57540900045873 -0.9378805227518541, -82.55017732550579 -1.3308842267855767, -82.53081992013637 -1.6323914404305793 M-82.53081992013637 -1.6323914404305793 C-82.4982969235065 -1.884633379899747, -82.46577392687662 -2.1368753193689147, -82.39146531804565 -2.713198215567447 M-82.53081992013637 -1.6323914404305793 C-82.49398067827518 -1.9181093255748691, -82.45714143641398 -2.203827210719159, -82.39146531804565 -2.713198215567447 M-82.39146531804565 -2.713198215567447 C-82.31373602119615 -3.1123217267969365, -82.23600672434665 -3.5114452380264267, -82.183149507091 -3.782855877257341 M-82.39146531804565 -2.713198215567447 C-82.32001140555035 -3.0800989544410826, -82.24855749305505 -3.446999693314718, -82.183149507091 -3.782855877257341 M-82.183149507091 -3.782855877257341 C-82.10486643066704 -4.081383175761852, -82.02658335424307 -4.379910474266363, -81.90672850162323 -4.836968972727544 M-82.183149507091 -3.782855877257341 C-82.07741888053525 -4.186052580257838, -81.97168825397951 -4.589249283258336, -81.90672850162323 -4.836968972727544 M-81.90672850162323 -4.836968972727544 C-81.7937517947667 -5.177236813385692, -81.68077508791016 -5.51750465404384, -81.56333817484594 -5.871205925162218 M-81.90672850162323 -4.836968972727544 C-81.7954300288411 -5.172182239743885, -81.68413155605897 -5.507395506760226, -81.56333817484594 -5.871205925162218 M-81.56333817484594 -5.871205925162218 C-81.45172871823817 -6.146883440805437, -81.3401192616304 -6.422560956448658, -81.15438959126881 -6.881316833080692 M-81.56333817484594 -5.871205925162218 C-81.41410732239862 -6.239809015889335, -81.2648764699513 -6.608412106616454, -81.15438959126881 -6.881316833080692 M-81.15438959126881 -6.881316833080692 C-80.98859756741788 -7.225587517988181, -80.82280554356696 -7.569858202895669, -80.681563208341 -7.863150934094194 M-81.15438959126881 -6.881316833080692 C-81.04056014150231 -7.117686121080872, -80.92673069173583 -7.354055409081053, -80.681563208341 -7.863150934094194 M-80.681563208341 -7.863150934094194 C-80.50186633823112 -8.182220923255526, -80.32216946812123 -8.50129091241686, -80.14680197109088 -8.812673661278929 M-80.681563208341 -7.863150934094194 C-80.54605025571416 -8.103767903657587, -80.41053730308732 -8.34438487322098, -80.14680197109088 -8.812673661278929 M-80.14680197109088 -8.812673661278929 C-80.00615004912208 -9.028752783752388, -79.8654981271533 -9.244831906225848, -79.55230332814826 -9.725983222076884 M-80.14680197109088 -8.812673661278929 C-80.009490931024 -9.023620291998636, -79.87217989095714 -9.234566922718342, -79.55230332814826 -9.725983222076884 M-79.55230332814826 -9.725983222076884 C-79.38068439926327 -9.955936951976689, -79.2090654703783 -10.185890681876494, -78.90051020195651 -10.599326631598467 M-79.55230332814826 -9.725983222076884 C-79.42087924017218 -9.902079526984103, -79.2894551521961 -10.078175831891324, -78.90051020195651 -10.599326631598467 M-78.90051020195651 -10.599326631598467 C-78.6843889111424 -10.853194997438537, -78.4682676203283 -11.107063363278606, -78.19410095028037 -11.42911513444238 M-78.90051020195651 -10.599326631598467 C-78.73472861591837 -10.794063115798338, -78.56894702988025 -10.988799599998206, -78.19410095028037 -11.42911513444238 M-78.19410095028037 -11.42911513444238 C-78.03406707949226 -11.59436324505625, -77.87403320870415 -11.759611355670119, -77.43597836025927 -12.21193895166136 M-78.19410095028037 -11.42911513444238 C-77.95433308757913 -11.67669513798904, -77.71456522487787 -11.924275141535698, -77.43597836025927 -12.21193895166136 M-77.43597836025927 -12.21193895166136 C-77.25161917404984 -12.379369086700008, -77.06725998784039 -12.546799221738656, -76.62925772023242 -12.944581292275274 M-77.43597836025927 -12.21193895166136 C-77.27298576987555 -12.359964509700232, -77.10999317949184 -12.507990067739104, -76.62925772023242 -12.944581292275274 M-76.62925772023242 -12.944581292275274 C-76.42666222291069 -13.106145810096747, -76.22406672558897 -13.267710327918218, -75.77725401835067 -13.624031571755259 M-76.62925772023242 -12.944581292275274 C-76.30707860531962 -13.201510562871922, -75.9848994904068 -13.45843983346857, -75.77725401835067 -13.624031571755259 M-75.77725401835067 -13.624031571755259 C-75.45063248692769 -13.851868612857723, -75.1240109555047 -14.079705653960188, -74.88346832057934 -14.247497783161284 M-75.77725401835067 -13.624031571755259 C-75.43073618606032 -13.865747411045819, -75.08421835376997 -14.107463250336377, -74.88346832057934 -14.247497783161284 M-74.88346832057934 -14.247497783161284 C-74.53543950980334 -14.458474893498005, -74.18741069902735 -14.669452003834724, -73.95157338406695 -14.812417970097618 M-74.88346832057934 -14.247497783161284 C-74.52378189755085 -14.4655418065532, -74.16409547452236 -14.683585829945116, -73.95157338406695 -14.812417970097618 M-73.95157338406695 -14.812417970097618 C-73.72093981656151 -14.932739354537354, -73.49030624905608 -15.05306073897709, -72.98539856499849 -15.316470754341124 M-73.95157338406695 -14.812417970097618 C-73.67112483120624 -14.958727800489173, -73.39067627834555 -15.105037630880728, -72.98539856499849 -15.316470754341124 M-72.98539856499849 -15.316470754341124 C-72.59820543623403 -15.487869666769072, -72.21101230746957 -15.659268579197018, -71.98891408294936 -15.757584874882365 M-72.98539856499849 -15.316470754341124 C-72.686942361676 -15.44858846216328, -72.3884861583535 -15.580706169985435, -71.98891408294936 -15.757584874882365 M-71.98891408294936 -15.757584874882365 C-71.73587505758748 -15.850705575282651, -71.48283603222558 -15.943826275682937, -70.96621470640156 -16.133947699181363 M-71.98891408294936 -15.757584874882365 C-71.65366263169922 -15.880960507972862, -71.31841118044908 -16.00433614106336, -70.96621470640156 -16.133947699181363 M-70.96621470640156 -16.133947699181363 C-70.5547159045179 -16.256078383579144, -70.14321710263424 -16.378209067976925, -69.92150292646164 -16.444012671663494 M-70.96621470640156 -16.133947699181363 C-70.73570764837517 -16.202360984047356, -70.50520059034878 -16.27077426891335, -69.92150292646164 -16.444012671663494 M-69.92150292646164 -16.444012671663494 C-69.50600678378001 -16.538846954864855, -69.09051064109838 -16.633681238066217, -68.85907168792333 -16.68650566884811 M-69.92150292646164 -16.444012671663494 C-69.55655160348573 -16.5273104296028, -69.19160028050982 -16.610608187542105, -68.85907168792333 -16.68650566884811 M-68.85907168792333 -16.68650566884811 C-68.55058304026997 -16.73637972103551, -68.24209439261662 -16.786253773222914, -67.78328674863661 -16.86043023499518 M-68.85907168792333 -16.68650566884811 C-68.63313581954122 -16.7230332278893, -68.40719995115911 -16.759560786930493, -67.78328674863661 -16.86043023499518 M-67.78328674863661 -16.86043023499518 C-67.4182664823246 -16.895643301085205, -67.05324621601258 -16.930856367175227, -66.69856873967213 -16.965071676755716 M-67.78328674863661 -16.86043023499518 C-67.35833056801579 -16.90142524665509, -66.93337438739496 -16.942420258315, -66.69856873967213 -16.965071676755716 M-66.69856873967213 -16.965071676755716 C-66.38141035413426 -16.975242328868568, -66.0642519685964 -16.985412980981422, -65.609375 -17 M-66.69856873967213 -16.965071676755716 C-66.3025638047985 -16.977770784240267, -65.90655886992488 -16.99046989172482, -65.609375 -17 M-65.609375 -17 C-65.609375 -17, -65.609375 -17, -65.609375 -17 M-65.609375 -17 C-65.609375 -17, -65.609375 -17, -65.609375 -17" stroke="#9370DB" stroke-width="1.3" fill="none" stroke-dasharray="0 0" style=""></path></g><g class="label" style="" transform="translate(0, -9.5)"><rect></rect><g><rect class="background" style="stroke: none"></rect><text y="-10.1" style=""><tspan class="text-outer-tspan row" x="0" y="-0.1em" dy="1.1em"><tspan font-style="normal" class="text-inner-tspan" font-weight="normal">Answer</tspan><tspan font-style="normal" class="text-inner-tspan" font-weight="normal"> with</tspan><tspan font-style="normal" class="text-inner-tspan" font-weight="normal"> AA</tspan><tspan font-style="normal" class="text-inner-tspan" font-weight="normal"> flag</tspan></tspan></text></g></g></g><g class="node default fail" id="g9b25111d-596f-4e83-873b-e0b2041fe722-flip-flowchart-F1-14" data-look="classic" transform="translate(821.7950286865234, 180.89999771118164)"><rect class="basic label-container" style="fill:#fee !important;stroke:#c33 !important;stroke-width:1px !important" x="-90.390625" y="-33.29999923706055" width="180.78125" height="66.5999984741211"></rect><g class="label" style="color:#900 !important" transform="translate(0, -18.299999237060547)"><rect></rect><g><rect class="background" style="stroke: none"></rect><text y="-10.1" style="fill:#900 !important"><tspan class="text-outer-tspan row" x="0" y="-0.1em" dy="1.1em"><tspan font-style="normal" class="text-inner-tspan" font-weight="normal">Local</tspan><tspan font-style="normal" class="text-inner-tspan" font-weight="normal"> network</tspan><tspan font-style="normal" class="text-inner-tspan" font-weight="normal"> or</tspan></tspan><tspan class="text-outer-tspan row" x="0" y="1em" dy="1.1em"><tspan font-style="normal" class="text-inner-tspan" font-weight="normal">port</tspan><tspan font-style="normal" class="text-inner-tspan" font-weight="normal"> 53</tspan><tspan font-style="normal" class="text-inner-tspan" font-weight="normal"> blocked</tspan></tspan></text></g></g></g><g class="node default fail" id="g9b25111d-596f-4e83-873b-e0b2041fe722-flip-flowchart-F2-16" data-look="classic" transform="translate(596.3150215148926, 320.49999618530273)"><rect class="basic label-container" style="fill:#fee !important;stroke:#c33 !important;stroke-width:1px !important" x="-100.859375" y="-33.29999923706055" width="201.71875" height="66.5999984741211"></rect><g class="label" style="color:#900 !important" transform="translate(0, -18.299999237060547)"><rect></rect><g><rect class="background" style="stroke: none"></rect><text y="-10.1" style="fill:#900 !important"><tspan class="text-outer-tspan row" x="0" y="-0.1em" dy="1.1em"><tspan font-style="normal" class="text-inner-tspan" font-weight="normal">Cold-cache</tspan><tspan font-style="normal" class="text-inner-tspan" font-weight="normal"> resolver</tspan></tspan><tspan class="text-outer-tspan row" x="0" y="1em" dy="1.1em"><tspan font-style="normal" class="text-inner-tspan" font-weight="normal">or</tspan><tspan font-style="normal" class="text-inner-tspan" font-weight="normal"> anycast</tspan><tspan font-style="normal" class="text-inner-tspan" font-weight="normal"> loss</tspan></tspan></text></g></g></g><g class="node default fail" id="g9b25111d-596f-4e83-873b-e0b2041fe722-flip-flowchart-F3-18" data-look="classic" transform="translate(451.4673652648926, 460.0999946594238)"><rect class="basic label-container" style="fill:#fee !important;stroke:#c33 !important;stroke-width:1px !important" x="-96.8046875" y="-33.29999923706055" width="193.609375" height="66.5999984741211"></rect><g class="label" style="color:#900 !important" transform="translate(0, -18.299999237060547)"><rect></rect><g><rect class="background" style="stroke: none"></rect><text y="-10.1" style="fill:#900 !important"><tspan class="text-outer-tspan row" x="0" y="-0.1em" dy="1.1em"><tspan font-style="normal" class="text-inner-tspan" font-weight="normal">Delegation</tspan><tspan font-style="normal" class="text-inner-tspan" font-weight="normal"> missing</tspan></tspan><tspan class="text-outer-tspan row" x="0" y="1em" dy="1.1em"><tspan font-style="normal" class="text-inner-tspan" font-weight="normal">at</tspan><tspan font-style="normal" class="text-inner-tspan" font-weight="normal"> registry</tspan></tspan></text></g></g></g><g class="node default fail" id="g9b25111d-596f-4e83-873b-e0b2041fe722-flip-flowchart-F4-20" data-look="classic" transform="translate(321.03721618652344, 599.6999931335449)"><rect class="basic label-container" style="fill:#fee !important;stroke:#c33 !important;stroke-width:1px !important" x="-97.8359375" y="-33.29999923706055" width="195.671875" height="66.5999984741211"></rect><g class="label" style="color:#900 !important" transform="translate(0, -18.299999237060547)"><rect></rect><g><rect class="background" style="stroke: none"></rect><text y="-10.1" style="fill:#900 !important"><tspan class="text-outer-tspan row" x="0" y="-0.1em" dy="1.1em"><tspan font-style="normal" class="text-inner-tspan" font-weight="normal">Lame</tspan><tspan font-style="normal" class="text-inner-tspan" font-weight="normal"> delegation</tspan><tspan font-style="normal" class="text-inner-tspan" font-weight="normal"> —</tspan></tspan><tspan class="text-outer-tspan row" x="0" y="1em" dy="1.1em"><tspan font-style="normal" class="text-inner-tspan" font-weight="normal">NS</tspan><tspan font-style="normal" class="text-inner-tspan" font-weight="normal"> not</tspan><tspan font-style="normal" class="text-inner-tspan" font-weight="normal"> loaded</tspan></tspan></text></g></g></g><g class="node default fail" id="g9b25111d-596f-4e83-873b-e0b2041fe722-flip-flowchart-F5-22" data-look="classic" transform="translate(558.2559661865234, 599.6999931335449)"><rect class="basic label-container" style="fill:#fee !important;stroke:#c33 !important;stroke-width:1px !important" x="-89.3828125" y="-33.29999923706055" width="178.765625" height="66.5999984741211"></rect><g class="label" style="color:#900 !important" transform="translate(0, -18.299999237060547)"><rect></rect><g><rect class="background" style="stroke: none"></rect><text y="-10.1" style="fill:#900 !important"><tspan class="text-outer-tspan row" x="0" y="-0.1em" dy="1.1em"><tspan font-style="normal" class="text-inner-tspan" font-weight="normal">Zone</tspan><tspan font-style="normal" class="text-inner-tspan" font-weight="normal"> load</tspan><tspan font-style="normal" class="text-inner-tspan" font-weight="normal"> error</tspan></tspan><tspan class="text-outer-tspan row" x="0" y="1em" dy="1.1em"><tspan font-style="normal" class="text-inner-tspan" font-weight="normal">or</tspan><tspan font-style="normal" class="text-inner-tspan" font-weight="normal"> DNSSEC</tspan><tspan font-style="normal" class="text-inner-tspan" font-weight="normal"> bogus</tspan></tspan></text></g></g></g></g></g></g><defs><filter id="g9b25111d-596f-4e83-873b-e0b2041fe722-flip-drop-shadow" height="130%" width="130%"><feDropShadow dx="4" dy="4" stdDeviation="0" flood-opacity="0.06" flood-color="#000000"></feDropShadow></filter></defs><defs><filter id="g9b25111d-596f-4e83-873b-e0b2041fe722-flip-drop-shadow-small" height="150%" width="150%"><feDropShadow dx="2" dy="2" stdDeviation="0" flood-opacity="0.06" flood-color="#000000"></feDropShadow></filter></defs></svg>