<svg id="gd396f58a-a6e7-4efa-9505-8ffae75a32fc-light" width="100%" xmlns="http://www.w3.org/2000/svg" xmlns:xlink="http://www.w3.org/1999/xlink" class="flowchart" style="max-width: 513.90234375px;" viewBox="28.19921875 0 513.90234375 691" role="graphics-document document" aria-roledescription="flowchart-v2"><style>#gd396f58a-a6e7-4efa-9505-8ffae75a32fc-light{font-family:"trebuchet ms",verdana,arial,sans-serif;font-size:16px;fill:#333;}@keyframes edge-animation-frame{from{stroke-dashoffset:0;}}@keyframes dash{to{stroke-dashoffset:0;}}#gd396f58a-a6e7-4efa-9505-8ffae75a32fc-light .edge-animation-slow{stroke-dasharray:9,5!important;stroke-dashoffset:900;animation:dash 50s linear infinite;stroke-linecap:round;}#gd396f58a-a6e7-4efa-9505-8ffae75a32fc-light .edge-animation-fast{stroke-dasharray:9,5!important;stroke-dashoffset:900;animation:dash 20s linear infinite;stroke-linecap:round;}#gd396f58a-a6e7-4efa-9505-8ffae75a32fc-light .error-icon{fill:#552222;}#gd396f58a-a6e7-4efa-9505-8ffae75a32fc-light .error-text{fill:#552222;stroke:#552222;}#gd396f58a-a6e7-4efa-9505-8ffae75a32fc-light .edge-thickness-normal{stroke-width:1px;}#gd396f58a-a6e7-4efa-9505-8ffae75a32fc-light .edge-thickness-thick{stroke-width:3.5px;}#gd396f58a-a6e7-4efa-9505-8ffae75a32fc-light .edge-pattern-solid{stroke-dasharray:0;}#gd396f58a-a6e7-4efa-9505-8ffae75a32fc-light .edge-thickness-invisible{stroke-width:0;fill:none;}#gd396f58a-a6e7-4efa-9505-8ffae75a32fc-light .edge-pattern-dashed{stroke-dasharray:3;}#gd396f58a-a6e7-4efa-9505-8ffae75a32fc-light .edge-pattern-dotted{stroke-dasharray:2;}#gd396f58a-a6e7-4efa-9505-8ffae75a32fc-light .marker{fill:#333333;stroke:#333333;}#gd396f58a-a6e7-4efa-9505-8ffae75a32fc-light .marker.cross{stroke:#333333;}#gd396f58a-a6e7-4efa-9505-8ffae75a32fc-light svg{font-family:"trebuchet ms",verdana,arial,sans-serif;font-size:16px;}#gd396f58a-a6e7-4efa-9505-8ffae75a32fc-light p{margin:0;}#gd396f58a-a6e7-4efa-9505-8ffae75a32fc-light .label{font-family:"trebuchet ms",verdana,arial,sans-serif;color:#333;}#gd396f58a-a6e7-4efa-9505-8ffae75a32fc-light .cluster-label text{fill:#333;}#gd396f58a-a6e7-4efa-9505-8ffae75a32fc-light .cluster-label span{color:#333;}#gd396f58a-a6e7-4efa-9505-8ffae75a32fc-light .cluster-label span p{background-color:transparent;}#gd396f58a-a6e7-4efa-9505-8ffae75a32fc-light .label text,#gd396f58a-a6e7-4efa-9505-8ffae75a32fc-light span{fill:#333;color:#333;}#gd396f58a-a6e7-4efa-9505-8ffae75a32fc-light .node rect,#gd396f58a-a6e7-4efa-9505-8ffae75a32fc-light .node circle,#gd396f58a-a6e7-4efa-9505-8ffae75a32fc-light .node ellipse,#gd396f58a-a6e7-4efa-9505-8ffae75a32fc-light .node polygon,#gd396f58a-a6e7-4efa-9505-8ffae75a32fc-light .node path{fill:#ECECFF;stroke:#9370DB;stroke-width:1px;}#gd396f58a-a6e7-4efa-9505-8ffae75a32fc-light .rough-node .label text,#gd396f58a-a6e7-4efa-9505-8ffae75a32fc-light .node .label text,#gd396f58a-a6e7-4efa-9505-8ffae75a32fc-light .image-shape .label,#gd396f58a-a6e7-4efa-9505-8ffae75a32fc-light .icon-shape .label{text-anchor:middle;}#gd396f58a-a6e7-4efa-9505-8ffae75a32fc-light .node .katex path{fill:#000;stroke:#000;stroke-width:1px;}#gd396f58a-a6e7-4efa-9505-8ffae75a32fc-light .rough-node .label,#gd396f58a-a6e7-4efa-9505-8ffae75a32fc-light .node .label,#gd396f58a-a6e7-4efa-9505-8ffae75a32fc-light .image-shape .label,#gd396f58a-a6e7-4efa-9505-8ffae75a32fc-light .icon-shape .label{text-align:center;}#gd396f58a-a6e7-4efa-9505-8ffae75a32fc-light .node.clickable{cursor:pointer;}#gd396f58a-a6e7-4efa-9505-8ffae75a32fc-light .root .anchor path{fill:#333333!important;stroke-width:0;stroke:#333333;}#gd396f58a-a6e7-4efa-9505-8ffae75a32fc-light .arrowheadPath{fill:#333333;}#gd396f58a-a6e7-4efa-9505-8ffae75a32fc-light .edgePath .path{stroke:#333333;stroke-width:1px;}#gd396f58a-a6e7-4efa-9505-8ffae75a32fc-light .flowchart-link{stroke:#333333;fill:none;}#gd396f58a-a6e7-4efa-9505-8ffae75a32fc-light .edgeLabel{background-color:rgba(232,232,232, 0.8);text-align:center;}#gd396f58a-a6e7-4efa-9505-8ffae75a32fc-light .edgeLabel p{background-color:rgba(232,232,232, 0.8);}#gd396f58a-a6e7-4efa-9505-8ffae75a32fc-light .edgeLabel rect{opacity:0.5;background-color:rgba(232,232,232, 0.8);fill:rgba(232,232,232, 0.8);}#gd396f58a-a6e7-4efa-9505-8ffae75a32fc-light .labelBkg{background-color:rgba(232, 232, 232, 0.5);}#gd396f58a-a6e7-4efa-9505-8ffae75a32fc-light .cluster rect{fill:#ffffde;stroke:#aaaa33;stroke-width:1px;}#gd396f58a-a6e7-4efa-9505-8ffae75a32fc-light .cluster text{fill:#333;}#gd396f58a-a6e7-4efa-9505-8ffae75a32fc-light .cluster span{color:#333;}#gd396f58a-a6e7-4efa-9505-8ffae75a32fc-light div.mermaidTooltip{position:absolute;text-align:center;max-width:200px;padding:2px;font-family:"trebuchet ms",verdana,arial,sans-serif;font-size:12px;background:hsl(80, 100%, 96.2745098039%);border:1px solid #aaaa33;border-radius:2px;pointer-events:none;z-index:100;}#gd396f58a-a6e7-4efa-9505-8ffae75a32fc-light .flowchartTitleText{text-anchor:middle;font-size:18px;fill:#333;}#gd396f58a-a6e7-4efa-9505-8ffae75a32fc-light rect.text{fill:none;stroke-width:0;}#gd396f58a-a6e7-4efa-9505-8ffae75a32fc-light .icon-shape,#gd396f58a-a6e7-4efa-9505-8ffae75a32fc-light .image-shape{background-color:rgba(232,232,232, 0.8);text-align:center;}#gd396f58a-a6e7-4efa-9505-8ffae75a32fc-light .icon-shape p,#gd396f58a-a6e7-4efa-9505-8ffae75a32fc-light .image-shape p{background-color:rgba(232,232,232, 0.8);padding:2px;}#gd396f58a-a6e7-4efa-9505-8ffae75a32fc-light .icon-shape .label rect,#gd396f58a-a6e7-4efa-9505-8ffae75a32fc-light .image-shape .label rect{opacity:0.5;background-color:rgba(232,232,232, 0.8);fill:rgba(232,232,232, 0.8);}#gd396f58a-a6e7-4efa-9505-8ffae75a32fc-light .label-icon{display:inline-block;height:1em;overflow:visible;vertical-align:-0.125em;}#gd396f58a-a6e7-4efa-9505-8ffae75a32fc-light .node .label-icon path{fill:currentColor;stroke:revert;stroke-width:revert;}#gd396f58a-a6e7-4efa-9505-8ffae75a32fc-light .node .neo-node{stroke:#9370DB;}#gd396f58a-a6e7-4efa-9505-8ffae75a32fc-light [data-look="neo"].node rect,#gd396f58a-a6e7-4efa-9505-8ffae75a32fc-light [data-look="neo"].cluster rect,#gd396f58a-a6e7-4efa-9505-8ffae75a32fc-light [data-look="neo"].node polygon{stroke:#9370DB;filter:drop-shadow(1px 2px 2px rgba(185, 185, 185, 1));}#gd396f58a-a6e7-4efa-9505-8ffae75a32fc-light [data-look="neo"].node path{stroke:#9370DB;stroke-width:1px;}#gd396f58a-a6e7-4efa-9505-8ffae75a32fc-light [data-look="neo"].node .outer-path{filter:drop-shadow(1px 2px 2px rgba(185, 185, 185, 1));}#gd396f58a-a6e7-4efa-9505-8ffae75a32fc-light [data-look="neo"].node .neo-line path{stroke:#9370DB;filter:none;}#gd396f58a-a6e7-4efa-9505-8ffae75a32fc-light [data-look="neo"].node circle{stroke:#9370DB;filter:drop-shadow(1px 2px 2px rgba(185, 185, 185, 1));}#gd396f58a-a6e7-4efa-9505-8ffae75a32fc-light [data-look="neo"].node circle .state-start{fill:#000000;}#gd396f58a-a6e7-4efa-9505-8ffae75a32fc-light [data-look="neo"].icon-shape .icon{fill:#9370DB;filter:drop-shadow(1px 2px 2px rgba(185, 185, 185, 1));}#gd396f58a-a6e7-4efa-9505-8ffae75a32fc-light [data-look="neo"].icon-shape .icon-neo path{stroke:#9370DB;filter:drop-shadow(1px 2px 2px rgba(185, 185, 185, 1));}#gd396f58a-a6e7-4efa-9505-8ffae75a32fc-light :root{--mermaid-font-family:"trebuchet ms",verdana,arial,sans-serif;}#gd396f58a-a6e7-4efa-9505-8ffae75a32fc-light .tier rect{fill:#2E5A88!important;stroke:#1F4870!important;color:#ffffff!important;}#gd396f58a-a6e7-4efa-9505-8ffae75a32fc-light .tier polygon{fill:#2E5A88!important;stroke:#1F4870!important;color:#ffffff!important;}#gd396f58a-a6e7-4efa-9505-8ffae75a32fc-light .tier ellipse{fill:#2E5A88!important;stroke:#1F4870!important;color:#ffffff!important;}#gd396f58a-a6e7-4efa-9505-8ffae75a32fc-light .tier circle{fill:#2E5A88!important;stroke:#1F4870!important;color:#ffffff!important;}#gd396f58a-a6e7-4efa-9505-8ffae75a32fc-light .tier path{fill:#2E5A88!important;stroke:#1F4870!important;color:#ffffff!important;}#gd396f58a-a6e7-4efa-9505-8ffae75a32fc-light .tier tspan{fill:#ffffff!important;}#gd396f58a-a6e7-4efa-9505-8ffae75a32fc-light .hot rect{fill:#B43A3A!important;stroke:#8E2828!important;color:#ffffff!important;}#gd396f58a-a6e7-4efa-9505-8ffae75a32fc-light .hot polygon{fill:#B43A3A!important;stroke:#8E2828!important;color:#ffffff!important;}#gd396f58a-a6e7-4efa-9505-8ffae75a32fc-light .hot ellipse{fill:#B43A3A!important;stroke:#8E2828!important;color:#ffffff!important;}#gd396f58a-a6e7-4efa-9505-8ffae75a32fc-light .hot circle{fill:#B43A3A!important;stroke:#8E2828!important;color:#ffffff!important;}#gd396f58a-a6e7-4efa-9505-8ffae75a32fc-light .hot path{fill:#B43A3A!important;stroke:#8E2828!important;color:#ffffff!important;}#gd396f58a-a6e7-4efa-9505-8ffae75a32fc-light .hot tspan{fill:#ffffff!important;}#gd396f58a-a6e7-4efa-9505-8ffae75a32fc-light .entry rect{fill:#5A5A5A!important;stroke:#3D3D3D!important;color:#ffffff!important;}#gd396f58a-a6e7-4efa-9505-8ffae75a32fc-light .entry polygon{fill:#5A5A5A!important;stroke:#3D3D3D!important;color:#ffffff!important;}#gd396f58a-a6e7-4efa-9505-8ffae75a32fc-light .entry ellipse{fill:#5A5A5A!important;stroke:#3D3D3D!important;color:#ffffff!important;}#gd396f58a-a6e7-4efa-9505-8ffae75a32fc-light .entry circle{fill:#5A5A5A!important;stroke:#3D3D3D!important;color:#ffffff!important;}#gd396f58a-a6e7-4efa-9505-8ffae75a32fc-light .entry path{fill:#5A5A5A!important;stroke:#3D3D3D!important;color:#ffffff!important;}#gd396f58a-a6e7-4efa-9505-8ffae75a32fc-light .entry tspan{fill:#ffffff!important;}</style><g><marker id="gd396f58a-a6e7-4efa-9505-8ffae75a32fc-light_flowchart-v2-pointEnd" class="marker flowchart-v2" viewBox="0 0 10 10" refX="5" refY="5" markerUnits="userSpaceOnUse" markerWidth="8" markerHeight="8" orient="auto"><path d="M 0 0 L 10 5 L 0 10 z" class="arrowMarkerPath" style="stroke-width: 1; stroke-dasharray: 1, 0;"></path></marker><marker id="gd396f58a-a6e7-4efa-9505-8ffae75a32fc-light_flowchart-v2-pointStart" class="marker flowchart-v2" viewBox="0 0 10 10" refX="4.5" refY="5" markerUnits="userSpaceOnUse" markerWidth="8" markerHeight="8" orient="auto"><path d="M 0 5 L 10 10 L 10 0 z" class="arrowMarkerPath" style="stroke-width: 1; stroke-dasharray: 1, 0;"></path></marker><marker id="gd396f58a-a6e7-4efa-9505-8ffae75a32fc-light_flowchart-v2-pointEnd-margin" class="marker flowchart-v2" viewBox="0 0 11.5 14" refX="11.5" refY="7" markerUnits="userSpaceOnUse" markerWidth="10.5" markerHeight="14" orient="auto"><path d="M 0 0 L 11.5 7 L 0 14 z" class="arrowMarkerPath" style="stroke-width: 0; stroke-dasharray: 1, 0;"></path></marker><marker id="gd396f58a-a6e7-4efa-9505-8ffae75a32fc-light_flowchart-v2-pointStart-margin" class="marker flowchart-v2" viewBox="0 0 11.5 14" refX="1" refY="7" markerUnits="userSpaceOnUse" markerWidth="11.5" markerHeight="14" orient="auto"><polygon points="0,7 11.5,14 11.5,0" class="arrowMarkerPath" style="stroke-width: 0; stroke-dasharray: 1, 0;"></polygon></marker><marker id="gd396f58a-a6e7-4efa-9505-8ffae75a32fc-light_flowchart-v2-circleEnd" class="marker flowchart-v2" viewBox="0 0 10 10" refX="11" refY="5" markerUnits="userSpaceOnUse" markerWidth="11" markerHeight="11" orient="auto"><circle cx="5" cy="5" r="5" class="arrowMarkerPath" style="stroke-width: 1; stroke-dasharray: 1, 0;"></circle></marker><marker id="gd396f58a-a6e7-4efa-9505-8ffae75a32fc-light_flowchart-v2-circleStart" class="marker flowchart-v2" viewBox="0 0 10 10" refX="-1" refY="5" markerUnits="userSpaceOnUse" markerWidth="11" markerHeight="11" orient="auto"><circle cx="5" cy="5" r="5" class="arrowMarkerPath" style="stroke-width: 1; stroke-dasharray: 1, 0;"></circle></marker><marker id="gd396f58a-a6e7-4efa-9505-8ffae75a32fc-light_flowchart-v2-circleEnd-margin" class="marker flowchart-v2" viewBox="0 0 10 10" refY="5" refX="12.25" markerUnits="userSpaceOnUse" markerWidth="14" markerHeight="14" orient="auto"><circle cx="5" cy="5" r="5" class="arrowMarkerPath" style="stroke-width: 0; stroke-dasharray: 1, 0;"></circle></marker><marker id="gd396f58a-a6e7-4efa-9505-8ffae75a32fc-light_flowchart-v2-circleStart-margin" class="marker flowchart-v2" viewBox="0 0 10 10" refX="-2" refY="5" markerUnits="userSpaceOnUse" markerWidth="14" markerHeight="14" orient="auto"><circle cx="5" cy="5" r="5" class="arrowMarkerPath" style="stroke-width: 0; stroke-dasharray: 1, 0;"></circle></marker><marker id="gd396f58a-a6e7-4efa-9505-8ffae75a32fc-light_flowchart-v2-crossEnd" class="marker cross flowchart-v2" viewBox="0 0 11 11" refX="12" refY="5.2" markerUnits="userSpaceOnUse" markerWidth="11" markerHeight="11" orient="auto"><path d="M 1,1 l 9,9 M 10,1 l -9,9" class="arrowMarkerPath" style="stroke-width: 2; stroke-dasharray: 1, 0;"></path></marker><marker id="gd396f58a-a6e7-4efa-9505-8ffae75a32fc-light_flowchart-v2-crossStart" class="marker cross flowchart-v2" viewBox="0 0 11 11" refX="-1" refY="5.2" markerUnits="userSpaceOnUse" markerWidth="11" markerHeight="11" orient="auto"><path d="M 1,1 l 9,9 M 10,1 l -9,9" class="arrowMarkerPath" style="stroke-width: 2; stroke-dasharray: 1, 0;"></path></marker><marker id="gd396f58a-a6e7-4efa-9505-8ffae75a32fc-light_flowchart-v2-crossEnd-margin" class="marker cross flowchart-v2" viewBox="0 0 15 15" refX="17.7" refY="7.5" markerUnits="userSpaceOnUse" markerWidth="12" markerHeight="12" orient="auto"><path d="M 1,1 L 14,14 M 1,14 L 14,1" class="arrowMarkerPath" style="stroke-width: 2.5;"></path></marker><marker id="gd396f58a-a6e7-4efa-9505-8ffae75a32fc-light_flowchart-v2-crossStart-margin" class="marker cross flowchart-v2" viewBox="0 0 15 15" refX="-3.5" refY="7.5" markerUnits="userSpaceOnUse" markerWidth="12" markerHeight="12" orient="auto"><path d="M 1,1 L 14,14 M 1,14 L 14,1" class="arrowMarkerPath" style="stroke-width: 2.5; stroke-dasharray: 1, 0;"></path></marker><g class="root"><g class="clusters"></g><g class="edgePaths"><path d="M327.02,42.5L326.936,46.583C326.853,50.667,326.686,58.833,326.603,66.417C326.52,74,326.52,81,326.52,84.5L326.52,88" id="gd396f58a-a6e7-4efa-9505-8ffae75a32fc-light-L_start_ig_0" class="edge-thickness-normal edge-pattern-solid edge-thickness-normal edge-pattern-solid flowchart-link" style=";" data-edge="true" data-et="edge" data-id="L_start_ig_0" data-points="W3sieCI6MzI3LjAxOTUzMTI1LCJ5Ijo0Mi41fSx7IngiOjMyNi41MTk1MzEyNSwieSI6Njd9LHsieCI6MzI2LjUxOTUzMTI1LCJ5Ijo5Mn1d" data-look="classic" marker-end="url(#gd396f58a-a6e7-4efa-9505-8ffae75a32fc-light_flowchart-v2-pointEnd)"></path><path d="M256.645,148.378L228.627,157.632C200.609,166.886,144.574,185.393,122.45,201.685C100.326,217.978,112.112,232.055,118.005,239.094L123.899,246.133" id="gd396f58a-a6e7-4efa-9505-8ffae75a32fc-light-L_ig_sp_0" class="edge-thickness-normal edge-pattern-solid edge-thickness-normal edge-pattern-solid flowchart-link" style=";" data-edge="true" data-et="edge" data-id="L_ig_sp_0" data-points="W3sieCI6MjU2LjY0NDUzMTI1LCJ5IjoxNDguMzc4MjU4MjMxMjg0MDR9LHsieCI6ODguNTM5MDYyNSwieSI6MjAzLjg5OTk5NzcxMTE4MTY0fSx7IngiOjEyNi40NjY1NTU4ODIyMTM0MSwieSI6MjQ5LjE5OTk5Njk0ODI0MjJ9XQ==" data-look="classic" marker-end="url(#gd396f58a-a6e7-4efa-9505-8ffae75a32fc-light_flowchart-v2-pointEnd)"></path><path d="M161.715,333.4L161.715,340.95C161.715,348.5,161.715,363.6,169.148,378.24C176.581,392.88,191.446,407.059,198.879,414.149L206.312,421.239" id="gd396f58a-a6e7-4efa-9505-8ffae75a32fc-light-L_sp_mg_0" class="edge-thickness-normal edge-pattern-solid edge-thickness-normal edge-pattern-solid flowchart-link" style=";" data-edge="true" data-et="edge" data-id="L_sp_mg_0" data-points="W3sieCI6MTYxLjcxNDg0Mzc1LCJ5IjozMzMuMzk5OTkzODk2NDg0NH0seyJ4IjoxNjEuNzE0ODQzNzUsInkiOjM3OC42OTk5OTMxMzM1NDQ5fSx7IngiOjIwOS4yMDY3MTQzNjY5MTAyNiwieSI6NDIzLjk5OTk5MjM3MDYwNTQ3fV0=" data-look="classic" marker-end="url(#gd396f58a-a6e7-4efa-9505-8ffae75a32fc-light_flowchart-v2-pointEnd)"></path><path d="M253.344,508.2L253.344,515.75C253.344,523.3,253.344,538.4,258.604,552.967C263.864,567.533,274.385,581.566,279.645,588.583L284.906,595.6" id="gd396f58a-a6e7-4efa-9505-8ffae75a32fc-light-L_mg_tf_0" class="edge-thickness-normal edge-pattern-solid edge-thickness-normal edge-pattern-solid flowchart-link" style=";" data-edge="true" data-et="edge" data-id="L_mg_tf_0" data-points="W3sieCI6MjUzLjM0Mzc1LCJ5Ijo1MDguMTk5OTg5MzE4ODQ3NjZ9LHsieCI6MjUzLjM0Mzc1LCJ5Ijo1NTMuNDk5OTg4NTU1OTA4Mn0seyJ4IjoyODcuMzA0OTgyNzk3Mzc2MTcsInkiOjU5OC43OTk5ODc3OTI5Njg4fV0=" data-look="classic" marker-end="url(#gd396f58a-a6e7-4efa-9505-8ffae75a32fc-light_flowchart-v2-pointEnd)"></path><path d="M390.703,598.8L403.586,591.25C416.469,583.7,442.234,568.6,455.117,546.483C468,524.367,468,495.233,468,466.1C468,436.967,468,407.833,468,378.7C468,349.567,468,320.433,468,291.3C468,262.167,468,233.033,454.993,211.24C441.985,189.448,415.971,174.995,402.964,167.769L389.956,160.543" id="gd396f58a-a6e7-4efa-9505-8ffae75a32fc-light-L_tf_ig_0" class="edge-thickness-normal edge-pattern-dotted edge-thickness-normal edge-pattern-solid flowchart-link" style=";" data-edge="true" data-et="edge" data-id="L_tf_ig_0" data-points="W3sieCI6MzkwLjcwMzQ3Mjg5MDI5Mjg2LCJ5Ijo1OTguNzk5OTg3NzkyOTY4OH0seyJ4Ijo0NjgsInkiOjU1My40OTk5ODg1NTU5MDgyfSx7IngiOjQ2OCwieSI6NDY2LjA5OTk5MDg0NDcyNjU2fSx7IngiOjQ2OCwieSI6Mzc4LjY5OTk5MzEzMzU0NDl9LHsieCI6NDY4LCJ5IjoyOTEuMjk5OTk1NDIyMzYzM30seyJ4Ijo0NjgsInkiOjIwMy44OTk5OTc3MTExODE2NH0seyJ4IjozODYuNDU5NzI5NjMyODkzOCwieSI6MTU4LjU5OTk5ODQ3NDEyMTF9XQ==" data-look="classic" marker-end="url(#gd396f58a-a6e7-4efa-9505-8ffae75a32fc-light_flowchart-v2-pointEnd)"></path><path d="M304.443,424L313.607,416.45C322.77,408.9,341.098,393.8,350.262,371.683C359.426,349.567,359.426,320.433,359.426,291.3C359.426,262.167,359.426,233.033,356.522,211.532C353.619,190.03,347.812,176.16,344.909,169.225L342.005,162.29" id="gd396f58a-a6e7-4efa-9505-8ffae75a32fc-light-L_mg_ig_0" class="edge-thickness-normal edge-pattern-dotted edge-thickness-normal edge-pattern-solid flowchart-link" style=";" data-edge="true" data-et="edge" data-id="L_mg_ig_0" data-points="W3sieCI6MzA0LjQ0Mjc1OTk2MjM5MTUsInkiOjQyMy45OTk5OTIzNzA2MDU0N30seyJ4IjozNTkuNDI1NzgxMjUsInkiOjM3OC42OTk5OTMxMzM1NDQ5fSx7IngiOjM1OS40MjU3ODEyNSwieSI6MjkxLjI5OTk5NTQyMjM2MzN9LHsieCI6MzU5LjQyNTc4MTI1LCJ5IjoyMDMuODk5OTk3NzExMTgxNjR9LHsieCI6MzQwLjQ2MDcyODcyMDMxOTM3LCJ5IjoxNTguNTk5OTk4NDc0MTIxMX1d" data-look="classic" marker-end="url(#gd396f58a-a6e7-4efa-9505-8ffae75a32fc-light_flowchart-v2-pointEnd)"></path><path d="M196.963,249.2L203.284,241.65C209.606,234.1,222.248,219,236.865,204.334C251.482,189.668,268.073,175.436,276.368,168.32L284.664,161.204" id="gd396f58a-a6e7-4efa-9505-8ffae75a32fc-light-L_sp_ig_0" class="edge-thickness-normal edge-pattern-dotted edge-thickness-normal edge-pattern-solid flowchart-link" style=";" data-edge="true" data-et="edge" data-id="L_sp_ig_0" data-points="W3sieCI6MTk2Ljk2MzEzMTYxNzc4NjYsInkiOjI0OS4xOTk5OTY5NDgyNDIyfSx7IngiOjIzNC44OTA2MjUsInkiOjIwMy44OTk5OTc3MTExODE2NH0seyJ4IjoyODcuNjk5NjUxMjU2OTcwMzYsInkiOjE1OC41OTk5OTg0NzQxMjExfV0=" data-look="classic" marker-end="url(#gd396f58a-a6e7-4efa-9505-8ffae75a32fc-light_flowchart-v2-pointEnd)"></path></g><g class="edgeLabels"><g class="edgeLabel"><g class="label" data-id="L_start_ig_0" transform="translate(0, 0)"><text y="-10.1" text-anchor="middle"><tspan class="text-outer-tspan row" x="0" y="-0.1em" dy="1.1em" text-anchor="middle"></tspan></text></g></g><g><rect class="background" style="stroke: none"></rect></g><g class="edgeLabel" transform="translate(144.54154, 185.40354)"><g class="label" data-id="L_ig_sp_0" transform="translate(0, -19.299999237060547)"><g><rect class="background" style="" x="-80.5390625" y="-1" width="161.078125" height="40.599998474121094"></rect><text y="-10.1" text-anchor="middle" style=""><tspan class="text-outer-tspan row" x="0" y="-0.1em" dy="1.1em" text-anchor="middle"><tspan font-style="normal" class="text-inner-tspan" font-weight="normal">~8</tspan><tspan font-style="normal" class="text-inner-tspan" font-weight="normal"> invocations</tspan></tspan><tspan class="text-outer-tspan row" x="0" y="1em" dy="1.1em" text-anchor="middle"><tspan font-style="normal" class="text-inner-tspan" font-weight="normal">(no</tspan><tspan font-style="normal" class="text-inner-tspan" font-weight="normal"> feedback</tspan><tspan font-style="normal" class="text-inner-tspan" font-weight="normal"> needed)</tspan></tspan></text></g></g></g><g class="edgeLabel" transform="translate(161.71484375, 378.6999931335449)"><g class="label" data-id="L_sp_mg_0" transform="translate(0, -19.299999237060547)"><g><rect class="background" style="" x="-65.609375" y="-1" width="131.21875" height="40.599998474121094"></rect><text y="-10.1" text-anchor="middle" style=""><tspan class="text-outer-tspan row" x="0" y="-0.1em" dy="1.1em" text-anchor="middle"><tspan font-style="normal" class="text-inner-tspan" font-weight="normal">~500</tspan><tspan font-style="normal" class="text-inner-tspan" font-weight="normal"> invocations</tspan></tspan><tspan class="text-outer-tspan row" x="0" y="1em" dy="1.1em" text-anchor="middle"><tspan font-style="normal" class="text-inner-tspan" font-weight="normal">+</tspan><tspan font-style="normal" class="text-inner-tspan" font-weight="normal"> stable</tspan><tspan font-style="normal" class="text-inner-tspan" font-weight="normal"> feedback</tspan></tspan></text></g></g></g><g class="edgeLabel" transform="translate(253.34375, 553.4999885559082)"><g class="label" data-id="L_mg_tf_0" transform="translate(0, -19.299999237060547)"><g><rect class="background" style="" x="-65.7734375" y="-1" width="131.546875" height="40.599998474121094"></rect><text y="-10.1" text-anchor="middle" style=""><tspan class="text-outer-tspan row" x="0" y="-0.1em" dy="1.1em" text-anchor="middle"><tspan font-style="normal" class="text-inner-tspan" font-weight="normal">~6000</tspan><tspan font-style="normal" class="text-inner-tspan" font-weight="normal"> invocations</tspan></tspan><tspan class="text-outer-tspan row" x="0" y="1em" dy="1.1em" text-anchor="middle"><tspan font-style="normal" class="text-inner-tspan" font-weight="normal">+</tspan><tspan font-style="normal" class="text-inner-tspan" font-weight="normal"> stable</tspan><tspan font-style="normal" class="text-inner-tspan" font-weight="normal"> feedback</tspan></tspan></text></g></g></g><g class="edgeLabel" transform="translate(468, 378.6999931335449)"><g class="label" data-id="L_tf_ig_0" transform="translate(0, -19.299999237060547)"><g><rect class="background" style="" x="-66.1015625" y="-1" width="132.203125" height="40.599998474121094"></rect><text y="-10.1" text-anchor="middle" style=""><tspan class="text-outer-tspan row" x="0" y="-0.1em" dy="1.1em" text-anchor="middle"><tspan font-style="normal" class="text-inner-tspan" font-weight="normal">deopt</tspan></tspan><tspan class="text-outer-tspan row" x="0" y="1em" dy="1.1em" text-anchor="middle"><tspan font-style="normal" class="text-inner-tspan" font-weight="normal">speculation</tspan><tspan font-style="normal" class="text-inner-tspan" font-weight="normal"> failed</tspan></tspan></text></g></g></g><g class="edgeLabel" transform="translate(359.42578125, 291.2999954223633)"><g class="label" data-id="L_mg_ig_0" transform="translate(0, -10.5)"><g><rect class="background" style="" x="-22.7421875" y="-1" width="45.484375" height="23"></rect><text y="-10.1" text-anchor="middle" style=""><tspan class="text-outer-tspan row" x="0" y="-0.1em" dy="1.1em" text-anchor="middle"><tspan font-style="normal" class="text-inner-tspan" font-weight="normal">deopt</tspan></tspan></text></g></g></g><g class="edgeLabel" transform="translate(234.890625, 203.89999771118164)"><g class="label" data-id="L_sp_ig_0" transform="translate(0, -10.5)"><g><rect class="background" style="" x="-45.8125" y="-1" width="91.625" height="23"></rect><text y="-10.1" text-anchor="middle" style=""><tspan class="text-outer-tspan row" x="0" y="-0.1em" dy="1.1em" text-anchor="middle"><tspan font-style="normal" class="text-inner-tspan" font-weight="normal">deopt</tspan><tspan font-style="normal" class="text-inner-tspan" font-weight="normal"> (rare)</tspan></tspan></text></g></g></g></g><g class="nodes"><g class="node default entry" id="gd396f58a-a6e7-4efa-9505-8ffae75a32fc-light-flowchart-start-0" data-look="classic" transform="translate(326.51953125, 25)"><g class="basic label-container outer-path"><path d="M-55.4375 -17 C-19.09821699249536 -17, 17.24106601500928 -17, 55.4375 -17 C55.4375 -17, 55.4375 -17, 55.4375 -17 C55.79606976721442 -16.988501365479145, 56.15463953442884 -16.97700273095829, 56.52669373967212 -16.965071676755716 C56.88849586740577 -16.93016906062397, 57.25029799513943 -16.89526644449223, 57.6114117486366 -16.860430234995185 C57.85011711093449 -16.821838203206593, 58.08882247323238 -16.783246171418003, 58.687196687923326 -16.686505668848113 C58.99495930919678 -16.61626085888124, 59.30272193047024 -16.546016048914364, 59.74962792646162 -16.4440126716635 C59.99456971544274 -16.37131523441959, 60.23951150442387 -16.29861779717568, 60.79433970640155 -16.133947699181366 C61.16331323507481 -15.998162029875697, 61.53228676374806 -15.86237636057003, 61.81703908294936 -15.757584874882369 C62.091742685725976 -15.635981738726011, 62.36644628850259 -15.514378602569655, 62.81352356499849 -15.316470754341125 C63.14994219086541 -15.140961372712766, 63.486360816732336 -14.965451991084407, 63.77969838406694 -14.812417970097622 C64.09390880426953 -14.621941766865417, 64.40811922447213 -14.431465563633214, 64.71159332057933 -14.247497783161291 C64.99068978857535 -14.052812168978635, 65.2697862565714 -13.858126554795978, 65.60537901835067 -13.624031571755262 C65.86330399544835 -13.418343266191766, 66.12122897254602 -13.212654960628269, 66.4573827202324 -12.944581292275288 C66.65187672498563 -12.767946983187777, 66.84637072973887 -12.591312674100264, 67.26410336025927 -12.21193895166137 C67.4399813608004 -12.030330476250253, 67.61585936134155 -11.848722000839137, 68.02222595028036 -11.42911513444239 C68.2002696671372 -11.219974853647841, 68.37831338399407 -11.010834572853295, 68.72863520195651 -10.59932663159847 C68.8900838946715 -10.383000091638845, 69.05153258738652 -10.16667355167922, 69.38042832814824 -9.725983222076888 C69.51859782746315 -9.513717767423618, 69.65676732677805 -9.301452312770346, 69.97492697109088 -8.812673661278927 C70.1533340105055 -8.495893897126548, 70.33174104992013 -8.179114132974167, 70.509688208341 -7.863150934094199 C70.61080003538588 -7.653190061789007, 70.71191186243074 -7.443229189483816, 70.98251459126881 -6.881316833080699 C71.08997558765657 -6.615886094385901, 71.19743658404434 -6.3504553556911025, 71.39146317484592 -5.871205925162238 C71.51769099950413 -5.4910278289643975, 71.64391882416231 -5.110849732766557, 71.73485350162323 -4.836968972727556 C71.82013063083875 -4.51177031968721, 71.90540776005426 -4.1865716666468655, 72.011274507091 -3.7828558772573464 C72.08604552815079 -3.3989224869762142, 72.16081654921058 -3.014989096695082, 72.21959031804565 -2.713198215567453 C72.27020353989342 -2.320652061627305, 72.32081676174118 -1.9281059076871574, 72.35894492013637 -1.632391440430593 C72.3773415581159 -1.3458489544005, 72.39573819609544 -1.0593064683704068, 72.4287656754117 -0.5448768187181379 C72.4287656754117 -0.13709028278444158, 72.4287656754117 0.2706962531492547, 72.4287656754117 0.5448768187181336 C72.41165822398017 0.8113391836505051, 72.39455077254863 1.0778015485828765, 72.35894492013637 1.6323914404305815 C72.318757295044 1.9440787247027882, 72.27856966995164 2.2557660089749954, 72.21959031804565 2.7131982155674415 C72.16299591643842 3.0037985065895665, 72.10640151483119 3.294398797611691, 72.011274507091 3.782855877257343 C71.9475195812538 4.025981041034224, 71.88376465541661 4.269106204811105, 71.73485350162323 4.836968972727545 C71.66533725608933 5.0463408283660645, 71.59582101055543 5.255712684004584, 71.39146317484592 5.871205925162227 C71.27832659534133 6.150655463885555, 71.16519001583671 6.430105002608884, 70.98251459126881 6.881316833080694 C70.82830142375376 7.201543775058886, 70.67408825623872 7.521770717037079, 70.509688208341 7.863150934094196 C70.34141087137597 8.161944385803732, 70.17313353441092 8.460737837513268, 69.97492697109088 8.812673661278923 C69.76208815760144 9.139651234022619, 69.549249344112 9.466628806766312, 69.38042832814826 9.725983222076879 C69.1420767809494 10.045352581050699, 68.90372523375054 10.36472194002452, 68.72863520195651 10.599326631598467 C68.54811278919263 10.8113785296472, 68.36759037642875 11.023430427695933, 68.02222595028037 11.42911513444238 C67.80616981199967 11.65221083575606, 67.59011367371895 11.875306537069738, 67.26410336025927 12.211938951661365 C66.96651789644513 12.482198196217462, 66.66893243263098 12.752457440773558, 66.45738272023242 12.944581292275275 C66.13456405298422 13.2020205888402, 65.811745385736 13.459459885405126, 65.60537901835067 13.62403157175526 C65.4022137013775 13.765750901990923, 65.19904838440434 13.907470232226585, 64.71159332057934 14.247497783161286 C64.49319862318492 14.379889932151482, 64.27480392579051 14.512282081141677, 63.77969838406695 14.81241797009762 C63.499764633993 14.958459228205074, 63.21983088391905 15.104500486312526, 62.81352356499849 15.316470754341124 C62.60109350656478 15.410507239695937, 62.38866344813107 15.50454372505075, 61.817039082949364 15.757584874882367 C61.46478938438473 15.887216020114671, 61.112539685820096 16.016847165346977, 60.79433970640156 16.133947699181363 C60.56026303358059 16.203420426981097, 60.32618636075962 16.272893154780835, 59.74962792646164 16.444012671663497 C59.46851271508735 16.508175384211487, 59.187397503713065 16.572338096759474, 58.68719668792333 16.68650566884811 C58.46811777159227 16.721924649058145, 58.2490388552612 16.75734362926818, 57.61141174863661 16.86043023499518 C57.36995450955716 16.88372332445436, 57.128497270477716 16.90701641391354, 56.52669373967212 16.965071676755716 C56.158642544216995 16.97687436222577, 55.79059134876188 16.988677047695823, 55.4375 17 C55.4375 17, 55.4375 17, 55.4375 17 C22.894362054039654 17, -9.648775891920693 17, -55.4375 17 C-55.673335404582765 16.9924372176008, -55.90917080916553 16.984874435201597, -56.52669373967211 16.965071676755716 C-56.86069484239733 16.93285099207091, -57.194695945122554 16.900630307386105, -57.611411748636606 16.86043023499518 C-57.868825447436855 16.818813584446207, -58.1262391462371 16.77719693389723, -58.687196687923326 16.68650566884811 C-59.04478546582264 16.60488836377744, -59.40237424372196 16.523271058706776, -59.74962792646162 16.4440126716635 C-60.01428154271515 16.365464867554632, -60.27893515896869 16.286917063445763, -60.794339706401544 16.13394769918137 C-61.023087002683766 16.049766579632685, -61.251834298965996 15.965585460083998, -61.817039082949364 15.757584874882369 C-62.11227408133438 15.626893098932385, -62.40750907971939 15.4962013229824, -62.81352356499848 15.316470754341127 C-63.05622328899747 15.189854463787446, -63.29892301299646 15.063238173233767, -63.77969838406693 14.812417970097624 C-64.14773707484055 14.589310752915237, -64.51577576561417 14.36620353573285, -64.71159332057931 14.247497783161299 C-64.94489346238771 14.084757703636122, -65.17819360419612 13.922017624110946, -65.60537901835067 13.624031571755264 C-65.84909872820076 13.42967158880368, -66.09281843805084 13.235311605852097, -66.4573827202324 12.94458129227529 C-66.62401020283754 12.793254621294901, -66.79063768544268 12.641927950314512, -67.26410336025926 12.211938951661377 C-67.53994740089298 11.927107332490136, -67.81579144152671 11.642275713318895, -68.02222595028036 11.429115134442386 C-68.28057858704547 11.125639426616605, -68.53893122381058 10.822163718790824, -68.72863520195651 10.599326631598473 C-68.96966154373024 10.276373291573119, -69.21068788550397 9.953419951547765, -69.38042832814824 9.72598322207689 C-69.55049010740296 9.464722661159778, -69.7205518866577 9.203462100242668, -69.97492697109088 8.812673661278936 C-70.17859783372606 8.451035420758965, -70.38226869636122 8.089397180238992, -70.509688208341 7.863150934094201 C-70.664888164007 7.54087490540669, -70.82008811967299 7.218598876719177, -70.98251459126881 6.881316833080701 C-71.09631355068737 6.600231203163652, -71.21011251010593 6.319145573246603, -71.39146317484592 5.87120592516224 C-71.51751038016087 5.491571825648477, -71.64355758547582 5.111937726134714, -71.73485350162323 4.8369689727275516 C-71.82646337628874 4.487620816657148, -71.91807325095424 4.138272660586744, -72.011274507091 3.782855877257349 C-72.0708162663977 3.47712152737275, -72.1303580257044 3.17138717748815, -72.21959031804565 2.713198215567455 C-72.25434824113317 2.443622627828879, -72.2891061642207 2.1740470400903034, -72.35894492013637 1.6323914404306026 C-72.3860364095934 1.2104196242807022, -72.41312789905042 0.788447808130802, -72.4287656754117 0.54487681871814 C-72.4287656754117 0.2729657692986244, -72.4287656754117 0.0010547198791088785, -72.4287656754117 -0.5448768187181317 C-72.4052057535249 -0.911841619331677, -72.3816458316381 -1.278806419945222, -72.35894492013637 -1.6323914404305793 C-72.3087930862541 -2.0213591604216568, -72.25864125237183 -2.4103268804127342, -72.21959031804565 -2.713198215567447 C-72.16359468785444 -3.000723941918632, -72.10759905766325 -3.288249668269817, -72.011274507091 -3.782855877257341 C-71.92361462808655 -4.117140987933166, -71.83595474908212 -4.451426098608991, -71.73485350162323 -4.836968972727544 C-71.64747221805962 -5.100147476504331, -71.56009093449599 -5.363325980281118, -71.39146317484594 -5.871205925162218 C-71.24788343278931 -6.2258506639675675, -71.10430369073266 -6.580495402772916, -70.98251459126881 -6.881316833080692 C-70.87948166649856 -7.0952669059175335, -70.77644874172832 -7.3092169787543755, -70.509688208341 -7.863150934094194 C-70.31521548424888 -8.208456948218439, -70.12074276015677 -8.553762962342685, -69.97492697109088 -8.812673661278929 C-69.75494613729693 -9.150623295111345, -69.53496530350296 -9.48857292894376, -69.38042832814826 -9.725983222076884 C-69.19042997726727 -9.980563703051557, -69.00043162638627 -10.23514418402623, -68.72863520195651 -10.599326631598467 C-68.48759595659028 -10.882465044727239, -68.24655671122406 -11.16560345785601, -68.02222595028037 -11.42911513444238 C-67.822130490978 -11.635730124314813, -67.62203503167561 -11.842345114187246, -67.26410336025927 -12.21193895166136 C-66.96025002818728 -12.487890508330537, -66.65639669611528 -12.763842064999713, -66.45738272023242 -12.944581292275274 C-66.19014117674222 -13.157699311612571, -65.922899633252 -13.37081733094987, -65.60537901835067 -13.624031571755259 C-65.38119794283953 -13.780410585389482, -65.1570168673284 -13.936789599023708, -64.71159332057934 -14.247497783161284 C-64.42663412361104 -14.420241722969585, -64.14167492664275 -14.592985662777888, -63.77969838406695 -14.812417970097618 C-63.47605560656843 -14.970828212626111, -63.17241282906992 -15.129238455154605, -62.81352356499849 -15.316470754341124 C-62.57664410955507 -15.421330262486542, -62.33976465411165 -15.52618977063196, -61.81703908294937 -15.757584874882365 C-61.50569783885157 -15.872161330717269, -61.19435659475376 -15.986737786552172, -60.794339706401566 -16.133947699181363 C-60.522911614777925 -16.214506132020134, -60.251483523154285 -16.2950645648589, -59.74962792646164 -16.444012671663494 C-59.39722074912008 -16.52444731021996, -59.04481357177851 -16.604881948776423, -58.68719668792333 -16.68650566884811 C-58.34624140467384 -16.741628674896177, -58.00528612142434 -16.796751680944244, -57.61141174863661 -16.86043023499518 C-57.1824947618652 -16.901807340860874, -56.75357777509379 -16.943184446726562, -56.52669373967212 -16.965071676755716 C-56.231321655172025 -16.97454368459875, -55.93594957067193 -16.984015692441783, -55.43750000000001 -17 C-55.43750000000001 -17, -55.4375 -17, -55.4375 -17" stroke="none" stroke-width="0" fill="#5A5A5A" style="fill:#5A5A5A !important;stroke:#3D3D3D !important"></path><path d="M-55.4375 -17 C-20.46643965006009 -17, 14.504620699879823 -17, 55.4375 -17 M-55.4375 -17 C-31.77389467238772 -17, -8.110289344775438 -17, 55.4375 -17 M55.4375 -17 C55.4375 -17, 55.4375 -17, 55.4375 -17 M55.4375 -17 C55.4375 -17, 55.4375 -17, 55.4375 -17 M55.4375 -17 C55.75050293801079 -16.989962605001253, 56.06350587602159 -16.979925210002506, 56.52669373967212 -16.965071676755716 M55.4375 -17 C55.81925804547175 -16.987757762528677, 56.20101609094349 -16.975515525057357, 56.52669373967212 -16.965071676755716 M56.52669373967212 -16.965071676755716 C56.833850032806076 -16.93544067856657, 57.14100632594003 -16.90580968037743, 57.6114117486366 -16.860430234995185 M56.52669373967212 -16.965071676755716 C56.94982236509549 -16.924252967147748, 57.37295099051887 -16.883434257539783, 57.6114117486366 -16.860430234995185 M57.6114117486366 -16.860430234995185 C57.979417265984914 -16.80093395687572, 58.34742278333323 -16.741437678756256, 58.687196687923326 -16.686505668848113 M57.6114117486366 -16.860430234995185 C57.913267601951866 -16.811628521558276, 58.21512345526713 -16.762826808121368, 58.687196687923326 -16.686505668848113 M58.687196687923326 -16.686505668848113 C59.0256052136158 -16.609266131180814, 59.36401373930826 -16.532026593513518, 59.74962792646162 -16.4440126716635 M58.687196687923326 -16.686505668848113 C58.94797795862322 -16.626984045567692, 59.208759229323114 -16.567462422287267, 59.74962792646162 -16.4440126716635 M59.74962792646162 -16.4440126716635 C60.079234524590014 -16.346187163479332, 60.40884112271841 -16.248361655295163, 60.79433970640155 -16.133947699181366 M59.74962792646162 -16.4440126716635 C59.97437019594758 -16.377310345776312, 60.19911246543354 -16.310608019889127, 60.79433970640155 -16.133947699181366 M60.79433970640155 -16.133947699181366 C61.09975947740787 -16.021550400181628, 61.405179248414186 -15.909153101181888, 61.81703908294936 -15.757584874882369 M60.79433970640155 -16.133947699181366 C61.1857647721766 -15.989899656682505, 61.57718983795164 -15.845851614183644, 61.81703908294936 -15.757584874882369 M61.81703908294936 -15.757584874882369 C62.08277375949929 -15.63995201631282, 62.34850843604922 -15.52231915774327, 62.81352356499849 -15.316470754341125 M61.81703908294936 -15.757584874882369 C62.125505849935585 -15.621035787479096, 62.433972616921814 -15.484486700075825, 62.81352356499849 -15.316470754341125 M62.81352356499849 -15.316470754341125 C63.12027415064585 -15.156439170292026, 63.427024736293205 -14.996407586242926, 63.77969838406694 -14.812417970097622 M62.81352356499849 -15.316470754341125 C63.075376027119944 -15.179862492576872, 63.33722848924139 -15.043254230812616, 63.77969838406694 -14.812417970097622 M63.77969838406694 -14.812417970097622 C64.14329928020743 -14.592000970101214, 64.50690017634791 -14.371583970104808, 64.71159332057933 -14.247497783161291 M63.77969838406694 -14.812417970097622 C64.01575507941361 -14.669319014155349, 64.25181177476028 -14.526220058213076, 64.71159332057933 -14.247497783161291 M64.71159332057933 -14.247497783161291 C64.9071738256265 -14.111069289383993, 65.10275433067366 -13.974640795606694, 65.60537901835067 -13.624031571755262 M64.71159332057933 -14.247497783161291 C65.00018335541057 -14.04618986772427, 65.28877339024183 -13.844881952287247, 65.60537901835067 -13.624031571755262 M65.60537901835067 -13.624031571755262 C65.87811092051184 -13.40653513748245, 66.15084282267301 -13.189038703209638, 66.4573827202324 -12.944581292275288 M65.60537901835067 -13.624031571755262 C65.82047703958912 -13.452496623816334, 66.03557506082758 -13.280961675877405, 66.4573827202324 -12.944581292275288 M66.4573827202324 -12.944581292275288 C66.77694150798997 -12.654366456296058, 67.09650029574756 -12.364151620316829, 67.26410336025927 -12.21193895166137 M66.4573827202324 -12.944581292275288 C66.74482059644033 -12.683537818292702, 67.03225847264825 -12.422494344310117, 67.26410336025927 -12.21193895166137 M67.26410336025927 -12.21193895166137 C67.44922042758245 -12.020790381256315, 67.63433749490561 -11.829641810851259, 68.02222595028036 -11.42911513444239 M67.26410336025927 -12.21193895166137 C67.56500107054008 -11.901237361634987, 67.86589878082088 -11.590535771608604, 68.02222595028036 -11.42911513444239 M68.02222595028036 -11.42911513444239 C68.22600787998947 -11.189741284285777, 68.42978980969859 -10.950367434129165, 68.72863520195651 -10.59932663159847 M68.02222595028036 -11.42911513444239 C68.16950068925559 -11.256117845872044, 68.31677542823081 -11.0831205573017, 68.72863520195651 -10.59932663159847 M68.72863520195651 -10.59932663159847 C68.98773750387551 -10.252153151732298, 69.24683980579452 -9.904979671866124, 69.38042832814824 -9.725983222076888 M68.72863520195651 -10.59932663159847 C68.88662161627869 -10.38763922926517, 69.04460803060088 -10.175951826931872, 69.38042832814824 -9.725983222076888 M69.38042832814824 -9.725983222076888 C69.60177565968222 -9.385934280759791, 69.8231229912162 -9.045885339442693, 69.97492697109088 -8.812673661278927 M69.38042832814824 -9.725983222076888 C69.61659673966808 -9.363165121884267, 69.85276515118792 -9.000347021691647, 69.97492697109088 -8.812673661278927 M69.97492697109088 -8.812673661278927 C70.15529931683811 -8.492404296724157, 70.33567166258536 -8.172134932169385, 70.509688208341 -7.863150934094199 M69.97492697109088 -8.812673661278927 C70.18132048925492 -8.44620107016869, 70.38771400741896 -8.079728479058453, 70.509688208341 -7.863150934094199 M70.509688208341 -7.863150934094199 C70.6694801423559 -7.531339564112599, 70.82927207637078 -7.199528194131, 70.98251459126881 -6.881316833080699 M70.509688208341 -7.863150934094199 C70.69593002098607 -7.476415825200295, 70.88217183363115 -7.089680716306391, 70.98251459126881 -6.881316833080699 M70.98251459126881 -6.881316833080699 C71.13207886694686 -6.51189018052738, 71.2816431426249 -6.142463527974062, 71.39146317484592 -5.871205925162238 M70.98251459126881 -6.881316833080699 C71.09312844195686 -6.608098483307892, 71.20374229264492 -6.334880133535086, 71.39146317484592 -5.871205925162238 M71.39146317484592 -5.871205925162238 C71.49008239619532 -5.574180543296933, 71.58870161754471 -5.277155161431628, 71.73485350162323 -4.836968972727556 M71.39146317484592 -5.871205925162238 C71.51098866462515 -5.511214193747811, 71.63051415440438 -5.1512224623333855, 71.73485350162323 -4.836968972727556 M71.73485350162323 -4.836968972727556 C71.81857464943171 -4.517703951158866, 71.90229579724017 -4.198438929590177, 72.011274507091 -3.7828558772573464 M71.73485350162323 -4.836968972727556 C71.81527017437531 -4.53030534671744, 71.8956868471274 -4.223641720707325, 72.011274507091 -3.7828558772573464 M72.011274507091 -3.7828558772573464 C72.08409061434608 -3.408960556192254, 72.15690672160115 -3.0350652351271616, 72.21959031804565 -2.713198215567453 M72.011274507091 -3.7828558772573464 C72.08705519958428 -3.3937380375593635, 72.16283589207757 -3.004620197861381, 72.21959031804565 -2.713198215567453 M72.21959031804565 -2.713198215567453 C72.27229108304361 -2.3044614891863473, 72.32499184804159 -1.8957247628052412, 72.35894492013637 -1.632391440430593 M72.21959031804565 -2.713198215567453 C72.25865872242132 -2.4101913861588247, 72.29772712679699 -2.107184556750196, 72.35894492013637 -1.632391440430593 M72.35894492013637 -1.632391440430593 C72.37688147085026 -1.3530151849386076, 72.39481802156415 -1.0736389294466222, 72.4287656754117 -0.5448768187181379 M72.35894492013637 -1.632391440430593 C72.37309265284098 -1.412029083712015, 72.38724038554558 -1.1916667269934371, 72.4287656754117 -0.5448768187181379 M72.4287656754117 -0.5448768187181379 C72.4287656754117 -0.29507708212376194, 72.4287656754117 -0.04527734552938606, 72.4287656754117 0.5448768187181336 M72.4287656754117 -0.5448768187181379 C72.4287656754117 -0.11350156183766258, 72.4287656754117 0.3178736950428127, 72.4287656754117 0.5448768187181336 M72.4287656754117 0.5448768187181336 C72.40146730509255 0.9700709712867144, 72.37416893477341 1.395265123855295, 72.35894492013637 1.6323914404305815 M72.4287656754117 0.5448768187181336 C72.41477576538628 0.7627809598161245, 72.40078585536087 0.9806851009141153, 72.35894492013637 1.6323914404305815 M72.35894492013637 1.6323914404305815 C72.31141541645034 2.0010208852573084, 72.26388591276431 2.3696503300840357, 72.21959031804565 2.7131982155674415 M72.35894492013637 1.6323914404305815 C72.32818298052466 1.8709749694269366, 72.29742104091295 2.109558498423292, 72.21959031804565 2.7131982155674415 M72.21959031804565 2.7131982155674415 C72.15768129924305 3.031087942643007, 72.09577228044046 3.3489776697185727, 72.011274507091 3.782855877257343 M72.21959031804565 2.7131982155674415 C72.15349193377321 3.0525994489079604, 72.08739354950077 3.392000682248479, 72.011274507091 3.782855877257343 M72.011274507091 3.782855877257343 C71.90324806046931 4.194807537183972, 71.79522161384763 4.6067591971106, 71.73485350162323 4.836968972727545 M72.011274507091 3.782855877257343 C71.92892820162082 4.096878029129714, 71.84658189615062 4.410900181002084, 71.73485350162323 4.836968972727545 M71.73485350162323 4.836968972727545 C71.63879239290466 5.126289726928713, 71.54273128418608 5.41561048112988, 71.39146317484592 5.871205925162227 M71.73485350162323 4.836968972727545 C71.64582508169026 5.105108388813275, 71.55679666175729 5.373247804899004, 71.39146317484592 5.871205925162227 M71.39146317484592 5.871205925162227 C71.30163824622113 6.0930752355123206, 71.21181331759634 6.3149445458624145, 70.98251459126881 6.881316833080694 M71.39146317484592 5.871205925162227 C71.23054276692076 6.268682443921805, 71.0696223589956 6.666158962681383, 70.98251459126881 6.881316833080694 M70.98251459126881 6.881316833080694 C70.81537608322695 7.228383521220794, 70.64823757518509 7.575450209360893, 70.509688208341 7.863150934094196 M70.98251459126881 6.881316833080694 C70.84952066382031 7.157481569041693, 70.71652673637182 7.433646305002691, 70.509688208341 7.863150934094196 M70.509688208341 7.863150934094196 C70.31396169129415 8.210683184569884, 70.11823517424729 8.558215435045573, 69.97492697109088 8.812673661278923 M70.509688208341 7.863150934094196 C70.35533977483861 8.137212207251373, 70.20099134133623 8.41127348040855, 69.97492697109088 8.812673661278923 M69.97492697109088 8.812673661278923 C69.84901112768115 9.006114209894509, 69.72309528427142 9.199554758510093, 69.38042832814826 9.725983222076879 M69.97492697109088 8.812673661278923 C69.78378607571078 9.106317405099853, 69.59264518033066 9.399961148920783, 69.38042832814826 9.725983222076879 M69.38042832814826 9.725983222076879 C69.24297282188206 9.910161078019335, 69.10551731561588 10.094338933961794, 68.72863520195651 10.599326631598467 M69.38042832814826 9.725983222076879 C69.17418573590466 10.002329506596611, 68.96794314366107 10.278675791116342, 68.72863520195651 10.599326631598467 M68.72863520195651 10.599326631598467 C68.51270845952267 10.852966469840954, 68.29678171708885 11.106606308083443, 68.02222595028037 11.42911513444238 M68.72863520195651 10.599326631598467 C68.45025839486608 10.926323869295942, 68.17188158777564 11.253321106993416, 68.02222595028037 11.42911513444238 M68.02222595028037 11.42911513444238 C67.85496234176921 11.601828542827803, 67.68769873325805 11.774541951213227, 67.26410336025927 12.211938951661365 M68.02222595028037 11.42911513444238 C67.73794267409804 11.722660957191685, 67.45365939791569 12.01620677994099, 67.26410336025927 12.211938951661365 M67.26410336025927 12.211938951661365 C67.01247917092358 12.44045738280481, 66.7608549815879 12.668975813948256, 66.45738272023242 12.944581292275275 M67.26410336025927 12.211938951661365 C66.97575186351972 12.473812151637699, 66.68740036678017 12.735685351614034, 66.45738272023242 12.944581292275275 M66.45738272023242 12.944581292275275 C66.24557394488208 13.113493154148937, 66.03376516953175 13.2824050160226, 65.60537901835067 13.62403157175526 M66.45738272023242 12.944581292275275 C66.28535166660912 13.081771479601265, 66.1133206129858 13.218961666927253, 65.60537901835067 13.62403157175526 M65.60537901835067 13.62403157175526 C65.35948995376718 13.795553138842658, 65.11360088918369 13.967074705930056, 64.71159332057934 14.247497783161286 M65.60537901835067 13.62403157175526 C65.34517262920943 13.80554028466716, 65.08496624006817 13.987048997579057, 64.71159332057934 14.247497783161286 M64.71159332057934 14.247497783161286 C64.48585926950707 14.384339091481824, 64.26012521843481 14.521180399802361, 63.77969838406695 14.81241797009762 M64.71159332057934 14.247497783161286 C64.35238860705064 14.46524979142359, 63.99318389352194 14.683001799685895, 63.77969838406695 14.81241797009762 M63.77969838406695 14.81241797009762 C63.413843111229845 15.00328443159525, 63.04798783839274 15.194150893092877, 62.81352356499849 15.316470754341124 M63.77969838406695 14.81241797009762 C63.473200643990324 14.97231764477442, 63.1667029039137 15.132217319451222, 62.81352356499849 15.316470754341124 M62.81352356499849 15.316470754341124 C62.45864764325837 15.473563797875283, 62.10377172151824 15.630656841409442, 61.817039082949364 15.757584874882367 M62.81352356499849 15.316470754341124 C62.57607667297507 15.4215814498281, 62.33862978095165 15.526692145315076, 61.817039082949364 15.757584874882367 M61.817039082949364 15.757584874882367 C61.59845179329327 15.838027018074564, 61.37986450363718 15.918469161266762, 60.79433970640156 16.133947699181363 M61.817039082949364 15.757584874882367 C61.484443822304186 15.87998300527668, 61.15184856165901 16.00238113567099, 60.79433970640156 16.133947699181363 M60.79433970640156 16.133947699181363 C60.470272362877935 16.230129185674976, 60.14620501935431 16.32631067216859, 59.74962792646164 16.444012671663497 M60.79433970640156 16.133947699181363 C60.55548209529837 16.204839384367602, 60.31662448419519 16.275731069553842, 59.74962792646164 16.444012671663497 M59.74962792646164 16.444012671663497 C59.39986407401141 16.52384398856282, 59.05010022156117 16.603675305462147, 58.68719668792333 16.68650566884811 M59.74962792646164 16.444012671663497 C59.35441434253548 16.534217593184987, 58.95920075860931 16.624422514706477, 58.68719668792333 16.68650566884811 M58.68719668792333 16.68650566884811 C58.37303009299584 16.737297687517653, 58.05886349806835 16.7880897061872, 57.61141174863661 16.86043023499518 M58.68719668792333 16.68650566884811 C58.40148070948551 16.732698012481432, 58.11576473104769 16.778890356114754, 57.61141174863661 16.86043023499518 M57.61141174863661 16.86043023499518 C57.2318151177881 16.897049465441395, 56.8522184869396 16.93366869588761, 56.52669373967212 16.965071676755716 M57.61141174863661 16.86043023499518 C57.30061561027352 16.890412364676028, 56.98981947191042 16.92039449435687, 56.52669373967212 16.965071676755716 M56.52669373967212 16.965071676755716 C56.217776631341295 16.97497804714921, 55.90885952301046 16.98488441754271, 55.4375 17 M56.52669373967212 16.965071676755716 C56.26048547401715 16.973608457692315, 55.994277208362185 16.982145238628917, 55.4375 17 M55.4375 17 C55.4375 17, 55.4375 17, 55.4375 17 M55.4375 17 C55.4375 17, 55.4375 17, 55.4375 17 M55.4375 17 C19.06688448173825 17, -17.3037310365235 17, -55.4375 17 M55.4375 17 C29.4639123687018 17, 3.490324737403597 17, -55.4375 17 M-55.4375 17 C-55.73934493308022 16.990320420501636, -56.04118986616044 16.980640841003275, -56.52669373967211 16.965071676755716 M-55.4375 17 C-55.65634138629423 16.99298218269046, -55.87518277258846 16.985964365380923, -56.52669373967211 16.965071676755716 M-56.52669373967211 16.965071676755716 C-56.79784472254123 16.9389140675451, -57.06899570541035 16.912756458334485, -57.611411748636606 16.86043023499518 M-56.52669373967211 16.965071676755716 C-56.92842772175154 16.926316882660316, -57.330161703830974 16.887562088564913, -57.611411748636606 16.86043023499518 M-57.611411748636606 16.86043023499518 C-58.036046214019116 16.791778627721598, -58.46068067940163 16.723127020448015, -58.687196687923326 16.68650566884811 M-57.611411748636606 16.86043023499518 C-57.86237569802411 16.819856329912707, -58.11333964741161 16.779282424830228, -58.687196687923326 16.68650566884811 M-58.687196687923326 16.68650566884811 C-58.92950461355738 16.631200466029124, -59.171812539191436 16.57589526321014, -59.74962792646162 16.4440126716635 M-58.687196687923326 16.68650566884811 C-58.96173505800637 16.623844077406947, -59.23627342808941 16.561182485965784, -59.74962792646162 16.4440126716635 M-59.74962792646162 16.4440126716635 C-60.14185657451182 16.32760126777239, -60.53408522256202 16.211189863881277, -60.794339706401544 16.13394769918137 M-59.74962792646162 16.4440126716635 C-60.05893804909505 16.352211050867865, -60.368248171728474 16.26040943007223, -60.794339706401544 16.13394769918137 M-60.794339706401544 16.13394769918137 C-61.09894264267231 16.02185100291505, -61.40354557894308 15.909754306648733, -61.817039082949364 15.757584874882369 M-60.794339706401544 16.13394769918137 C-61.164711722063075 15.997647373736545, -61.53508373772461 15.86134704829172, -61.817039082949364 15.757584874882369 M-61.817039082949364 15.757584874882369 C-62.1156492510355 15.62539901142655, -62.414259419121635 15.49321314797073, -62.81352356499848 15.316470754341127 M-61.817039082949364 15.757584874882369 C-62.1555978070418 15.607714970714369, -62.49415653113424 15.45784506654637, -62.81352356499848 15.316470754341127 M-62.81352356499848 15.316470754341127 C-63.09054163196481 15.171950606243335, -63.36755969893113 15.027430458145544, -63.77969838406693 14.812417970097624 M-62.81352356499848 15.316470754341127 C-63.19145630359241 15.119303486694147, -63.56938904218634 14.922136219047166, -63.77969838406693 14.812417970097624 M-63.77969838406693 14.812417970097624 C-64.11148749808135 14.611285459372825, -64.44327661209577 14.410152948648024, -64.71159332057931 14.247497783161299 M-63.77969838406693 14.812417970097624 C-64.08489188192246 14.627407878181534, -64.39008537977797 14.442397786265447, -64.71159332057931 14.247497783161299 M-64.71159332057931 14.247497783161299 C-64.93644361529381 14.090651951180849, -65.1612939100083 13.9338061192004, -65.60537901835067 13.624031571755264 M-64.71159332057931 14.247497783161299 C-64.97812521841398 14.061576669211737, -65.24465711624863 13.875655555262178, -65.60537901835067 13.624031571755264 M-65.60537901835067 13.624031571755264 C-65.88573390668117 13.400456008868593, -66.16608879501167 13.176880445981922, -66.4573827202324 12.94458129227529 M-65.60537901835067 13.624031571755264 C-65.91090411837534 13.380383434849954, -66.21642921840002 13.136735297944643, -66.4573827202324 12.94458129227529 M-66.4573827202324 12.94458129227529 C-66.64196230230776 12.776950999542565, -66.82654188438313 12.609320706809843, -67.26410336025926 12.211938951661377 M-66.4573827202324 12.94458129227529 C-66.72528065489092 12.701283476209353, -66.99317858954943 12.457985660143414, -67.26410336025926 12.211938951661377 M-67.26410336025926 12.211938951661377 C-67.52467814432079 11.942874093530207, -67.78525292838232 11.673809235399037, -68.02222595028036 11.429115134442386 M-67.26410336025926 12.211938951661377 C-67.5057643245182 11.962404165329865, -67.74742528877714 11.712869378998354, -68.02222595028036 11.429115134442386 M-68.02222595028036 11.429115134442386 C-68.2768512593547 11.130017757813143, -68.53147656842903 10.8309203811839, -68.72863520195651 10.599326631598473 M-68.02222595028036 11.429115134442386 C-68.29250860139756 11.111625752921597, -68.56279125251476 10.79413637140081, -68.72863520195651 10.599326631598473 M-68.72863520195651 10.599326631598473 C-68.95788249642756 10.292156141865432, -69.18712979089861 9.984985652132389, -69.38042832814824 9.72598322207689 M-68.72863520195651 10.599326631598473 C-68.98848681262255 10.251149146274697, -69.2483384232886 9.902971660950922, -69.38042832814824 9.72598322207689 M-69.38042832814824 9.72598322207689 C-69.56744296283004 9.438678522744711, -69.75445759751184 9.15137382341253, -69.97492697109088 8.812673661278936 M-69.38042832814824 9.72598322207689 C-69.56062484068589 9.449152989280273, -69.74082135322354 9.17232275648366, -69.97492697109088 8.812673661278936 M-69.97492697109088 8.812673661278936 C-70.15106113073155 8.499929625319254, -70.32719529037222 8.18718558935957, -70.509688208341 7.863150934094201 M-69.97492697109088 8.812673661278936 C-70.12055187482325 8.554101898581605, -70.2661767785556 8.295530135884276, -70.509688208341 7.863150934094201 M-70.509688208341 7.863150934094201 C-70.68489618618176 7.499327819257707, -70.8601041640225 7.135504704421214, -70.98251459126881 6.881316833080701 M-70.509688208341 7.863150934094201 C-70.62730812748316 7.61891065533241, -70.7449280466253 7.374670376570618, -70.98251459126881 6.881316833080701 M-70.98251459126881 6.881316833080701 C-71.12308155143283 6.53411372379826, -71.26364851159687 6.186910614515819, -71.39146317484592 5.87120592516224 M-70.98251459126881 6.881316833080701 C-71.07029669901236 6.664493329802543, -71.15807880675591 6.447669826524384, -71.39146317484592 5.87120592516224 M-71.39146317484592 5.87120592516224 C-71.5161411104947 5.495695847719501, -71.64081904614348 5.120185770276763, -71.73485350162323 4.8369689727275516 M-71.39146317484592 5.87120592516224 C-71.49900196091237 5.547316235508829, -71.60654074697881 5.2234265458554185, -71.73485350162323 4.8369689727275516 M-71.73485350162323 4.8369689727275516 C-71.82184803987786 4.505221094691285, -71.90884257813248 4.173473216655018, -72.011274507091 3.782855877257349 M-71.73485350162323 4.8369689727275516 C-71.80805886746676 4.557805185359955, -71.88126423331028 4.278641397992358, -72.011274507091 3.782855877257349 M-72.011274507091 3.782855877257349 C-72.0939022064284 3.3585801045302355, -72.1765299057658 2.934304331803122, -72.21959031804565 2.713198215567455 M-72.011274507091 3.782855877257349 C-72.08383010799064 3.410298201269386, -72.15638570889027 3.037740525281423, -72.21959031804565 2.713198215567455 M-72.21959031804565 2.713198215567455 C-72.26717459887598 2.344143930026482, -72.3147588797063 1.9750896444855082, -72.35894492013637 1.6323914404306026 M-72.21959031804565 2.713198215567455 C-72.25115655556641 2.4683767108150123, -72.28272279308719 2.22355520606257, -72.35894492013637 1.6323914404306026 M-72.35894492013637 1.6323914404306026 C-72.37522209657676 1.378861278670989, -72.39149927301717 1.1253311169113756, -72.4287656754117 0.54487681871814 M-72.35894492013637 1.6323914404306026 C-72.38420156470002 1.2389988145551283, -72.40945820926368 0.845606188679654, -72.4287656754117 0.54487681871814 M-72.4287656754117 0.54487681871814 C-72.4287656754117 0.17122953816833447, -72.4287656754117 -0.20241774238147103, -72.4287656754117 -0.5448768187181317 M-72.4287656754117 0.54487681871814 C-72.4287656754117 0.25716370166644886, -72.4287656754117 -0.03054941538524225, -72.4287656754117 -0.5448768187181317 M-72.4287656754117 -0.5448768187181317 C-72.4068235595762 -0.8866429842130545, -72.38488144374071 -1.2284091497079777, -72.35894492013637 -1.6323914404305793 M-72.4287656754117 -0.5448768187181317 C-72.41289791624693 -0.7920299759340033, -72.39703015708217 -1.0391831331498749, -72.35894492013637 -1.6323914404305793 M-72.35894492013637 -1.6323914404305793 C-72.30709136829233 -2.0345573488909348, -72.2552378164483 -2.4367232573512907, -72.21959031804565 -2.713198215567447 M-72.35894492013637 -1.6323914404305793 C-72.31156587532806 -1.9998539559132222, -72.26418683051973 -2.367316471395865, -72.21959031804565 -2.713198215567447 M-72.21959031804565 -2.713198215567447 C-72.16964107826318 -2.9696770050748245, -72.11969183848072 -3.226155794582202, -72.011274507091 -3.782855877257341 M-72.21959031804565 -2.713198215567447 C-72.13632486219034 -3.140748733224184, -72.05305940633501 -3.5682992508809215, -72.011274507091 -3.782855877257341 M-72.011274507091 -3.782855877257341 C-71.92257506144075 -4.121105306104678, -71.8338756157905 -4.459354734952014, -71.73485350162323 -4.836968972727544 M-72.011274507091 -3.782855877257341 C-71.94386785422662 -4.03990665885739, -71.87646120136223 -4.296957440457439, -71.73485350162323 -4.836968972727544 M-71.73485350162323 -4.836968972727544 C-71.63777234445813 -5.129361950327031, -71.54069118729302 -5.421754927926518, -71.39146317484594 -5.871205925162218 M-71.73485350162323 -4.836968972727544 C-71.6017304556617 -5.237914376886726, -71.46860740970017 -5.638859781045909, -71.39146317484594 -5.871205925162218 M-71.39146317484594 -5.871205925162218 C-71.28758677156002 -6.12778264959209, -71.18371036827408 -6.3843593740219635, -70.98251459126881 -6.881316833080692 M-71.39146317484594 -5.871205925162218 C-71.23486010647099 -6.258018531762703, -71.07825703809603 -6.644831138363189, -70.98251459126881 -6.881316833080692 M-70.98251459126881 -6.881316833080692 C-70.85143887955145 -7.15349835303275, -70.72036316783408 -7.425679872984807, -70.509688208341 -7.863150934094194 M-70.98251459126881 -6.881316833080692 C-70.81371577797063 -7.231831180610382, -70.64491696467245 -7.582345528140072, -70.509688208341 -7.863150934094194 M-70.509688208341 -7.863150934094194 C-70.36093483233103 -8.127277616112607, -70.21218145632103 -8.391404298131022, -69.97492697109088 -8.812673661278929 M-70.509688208341 -7.863150934094194 C-70.30175832373547 -8.232351499395282, -70.09382843912994 -8.601552064696369, -69.97492697109088 -8.812673661278929 M-69.97492697109088 -8.812673661278929 C-69.80149938280218 -9.079105008718498, -69.62807179451349 -9.345536356158068, -69.38042832814826 -9.725983222076884 M-69.97492697109088 -8.812673661278929 C-69.76421081724345 -9.136390258798558, -69.55349466339604 -9.460106856318188, -69.38042832814826 -9.725983222076884 M-69.38042832814826 -9.725983222076884 C-69.1388580464266 -10.049665392078486, -68.89728776470496 -10.373347562080088, -68.72863520195651 -10.599326631598467 M-69.38042832814826 -9.725983222076884 C-69.23341255367833 -9.922970966453986, -69.08639677920843 -10.119958710831089, -68.72863520195651 -10.599326631598467 M-68.72863520195651 -10.599326631598467 C-68.45235530753637 -10.923860716355708, -68.17607541311622 -11.24839480111295, -68.02222595028037 -11.42911513444238 M-68.72863520195651 -10.599326631598467 C-68.5266774491655 -10.836557699748454, -68.32471969637452 -11.07378876789844, -68.02222595028037 -11.42911513444238 M-68.02222595028037 -11.42911513444238 C-67.75657752951436 -11.703418939024248, -67.49092910874833 -11.977722743606117, -67.26410336025927 -12.21193895166136 M-68.02222595028037 -11.42911513444238 C-67.79508128733676 -11.663660647855307, -67.56793662439314 -11.898206161268236, -67.26410336025927 -12.21193895166136 M-67.26410336025927 -12.21193895166136 C-66.97919480954711 -12.470685359150979, -66.69428625883495 -12.729431766640598, -66.45738272023242 -12.944581292275274 M-67.26410336025927 -12.21193895166136 C-66.97764251496704 -12.472095112017133, -66.69118166967482 -12.732251272372906, -66.45738272023242 -12.944581292275274 M-66.45738272023242 -12.944581292275274 C-66.26415720913971 -13.098673495424913, -66.07093169804699 -13.252765698574553, -65.60537901835067 -13.624031571755259 M-66.45738272023242 -12.944581292275274 C-66.28515518448016 -13.081928168870492, -66.1129276487279 -13.219275045465713, -65.60537901835067 -13.624031571755259 M-65.60537901835067 -13.624031571755259 C-65.37530767878746 -13.784519378606781, -65.14523633922427 -13.945007185458305, -64.71159332057934 -14.247497783161284 M-65.60537901835067 -13.624031571755259 C-65.36769992074483 -13.78982622128279, -65.13002082313899 -13.95562087081032, -64.71159332057934 -14.247497783161284 M-64.71159332057934 -14.247497783161284 C-64.44842502131664 -14.407031952722921, -64.18525672205395 -14.566566122284557, -63.77969838406695 -14.812417970097618 M-64.71159332057934 -14.247497783161284 C-64.44698290841306 -14.407906170039873, -64.18237249624677 -14.56831455691846, -63.77969838406695 -14.812417970097618 M-63.77969838406695 -14.812417970097618 C-63.472148784749024 -14.97286639906686, -63.1645991854311 -15.1333148280361, -62.81352356499849 -15.316470754341124 M-63.77969838406695 -14.812417970097618 C-63.52259301459842 -14.9465496766655, -63.26548764512989 -15.080681383233383, -62.81352356499849 -15.316470754341124 M-62.81352356499849 -15.316470754341124 C-62.47525490792263 -15.466212254445415, -62.13698625084678 -15.615953754549706, -61.81703908294937 -15.757584874882365 M-62.81352356499849 -15.316470754341124 C-62.55179242786901 -15.432331364770016, -62.29006129073953 -15.54819197519891, -61.81703908294937 -15.757584874882365 M-61.81703908294937 -15.757584874882365 C-61.45912605482869 -15.88930017774254, -61.10121302670801 -16.021015480602713, -60.794339706401566 -16.133947699181363 M-61.81703908294937 -15.757584874882365 C-61.5937046180931 -15.839774022430635, -61.37037015323683 -15.921963169978907, -60.794339706401566 -16.133947699181363 M-60.794339706401566 -16.133947699181363 C-60.51255241126498 -16.217580689246205, -60.23076511612839 -16.301213679311047, -59.74962792646164 -16.444012671663494 M-60.794339706401566 -16.133947699181363 C-60.440229202883735 -16.239045837861493, -60.0861186993659 -16.34414397654162, -59.74962792646164 -16.444012671663494 M-59.74962792646164 -16.444012671663494 C-59.35404817698336 -16.534301168082802, -58.95846842750509 -16.62458966450211, -58.68719668792333 -16.68650566884811 M-59.74962792646164 -16.444012671663494 C-59.43531005286711 -16.515753675195633, -59.120992179272584 -16.587494678727776, -58.68719668792333 -16.68650566884811 M-58.68719668792333 -16.68650566884811 C-58.31023923177871 -16.74744922700884, -57.933281775634086 -16.80839278516957, -57.61141174863661 -16.86043023499518 M-58.68719668792333 -16.68650566884811 C-58.42101337820187 -16.729540122081477, -58.1548300684804 -16.77257457531485, -57.61141174863661 -16.86043023499518 M-57.61141174863661 -16.86043023499518 C-57.323903629080036 -16.8881657975097, -57.036395509523466 -16.915901360024222, -56.52669373967212 -16.965071676755716 M-57.61141174863661 -16.86043023499518 C-57.31643035936401 -16.888886734851283, -57.02144897009141 -16.91734323470739, -56.52669373967212 -16.965071676755716 M-56.52669373967212 -16.965071676755716 C-56.24724625728405 -16.974033013604373, -55.967798774895975 -16.982994350453033, -55.43750000000001 -17 M-56.52669373967212 -16.965071676755716 C-56.1015813520465 -16.978704203595804, -55.676468964420884 -16.992336730435895, -55.43750000000001 -17 M-55.43750000000001 -17 C-55.43750000000001 -17, -55.4375 -17, -55.4375 -17 M-55.43750000000001 -17 C-55.43750000000001 -17, -55.4375 -17, -55.4375 -17" stroke="#3D3D3D" stroke-width="1.3" fill="none" stroke-dasharray="0 0" style="fill:#5A5A5A !important;stroke:#3D3D3D !important"></path></g><g class="label" style="color:#ffffff !important" transform="translate(0, -9.5)"><rect></rect><g><rect class="background" style="stroke: none"></rect><text y="-10.1" style="fill:#ffffff !important"><tspan class="text-outer-tspan row" x="0" y="-0.1em" dy="1.1em"><tspan font-style="normal" class="text-inner-tspan" font-weight="normal">Function</tspan><tspan font-style="normal" class="text-inner-tspan" font-weight="normal"> defined</tspan></tspan></text></g></g></g><g class="node default tier" id="gd396f58a-a6e7-4efa-9505-8ffae75a32fc-light-flowchart-ig-1" data-look="classic" transform="translate(326.51953125, 125.29999923706055)"><rect class="basic label-container" style="fill:#2E5A88 !important;stroke:#1F4870 !important" x="-69.875" y="-33.29999923706055" width="139.75" height="66.5999984741211"></rect><g class="label" style="color:#ffffff !important" transform="translate(0, -18.299999237060547)"><rect></rect><g><rect class="background" style="stroke: none"></rect><text y="-10.1" style="fill:#ffffff !important"><tspan class="text-outer-tspan row" x="0" y="-0.1em" dy="1.1em"><tspan font-style="normal" class="text-inner-tspan" font-weight="normal">Ignition</tspan></tspan><tspan class="text-outer-tspan row" x="0" y="1em" dy="1.1em"><tspan font-style="normal" class="text-inner-tspan" font-weight="normal">interpreter</tspan></tspan></text></g></g></g><g class="node default tier" id="gd396f58a-a6e7-4efa-9505-8ffae75a32fc-light-flowchart-sp-2" data-look="classic" transform="translate(161.71484375, 291.2999954223633)"><rect class="basic label-container" style="fill:#2E5A88 !important;stroke:#1F4870 !important" x="-125.515625" y="-42.099998474121094" width="251.03125" height="84.19999694824219"></rect><g class="label" style="color:#ffffff !important" transform="translate(0, -27.099998474121094)"><rect></rect><g><rect class="background" style="stroke: none"></rect><text y="-10.1" style="fill:#ffffff !important"><tspan class="text-outer-tspan row" x="0" y="-0.1em" dy="1.1em"><tspan font-style="normal" class="text-inner-tspan" font-weight="normal">Sparkplug</tspan></tspan><tspan class="text-outer-tspan row" x="0" y="1em" dy="1.1em"><tspan font-style="normal" class="text-inner-tspan" font-weight="normal">baseline</tspan><tspan font-style="normal" class="text-inner-tspan" font-weight="normal"> JIT</tspan></tspan><tspan class="text-outer-tspan row" x="0" y="2.1em" dy="1.1em"><tspan font-style="normal" class="text-inner-tspan" font-weight="normal">bytecode</tspan><tspan font-style="normal" class="text-inner-tspan" font-weight="normal"> →</tspan><tspan font-style="normal" class="text-inner-tspan" font-weight="normal"> machine</tspan><tspan font-style="normal" class="text-inner-tspan" font-weight="normal"> code</tspan></tspan></text></g></g></g><g class="node default hot" id="gd396f58a-a6e7-4efa-9505-8ffae75a32fc-light-flowchart-mg-3" data-look="classic" transform="translate(253.34375, 466.09999084472656)"><rect class="basic label-container" style="fill:#B43A3A !important;stroke:#8E2828 !important" x="-96.046875" y="-42.099998474121094" width="192.09375" height="84.19999694824219"></rect><g class="label" style="color:#ffffff !important" transform="translate(0, -27.099998474121094)"><rect></rect><g><rect class="background" style="stroke: none"></rect><text y="-10.1" style="fill:#ffffff !important"><tspan class="text-outer-tspan row" x="0" y="-0.1em" dy="1.1em"><tspan font-style="normal" class="text-inner-tspan" font-weight="normal">Maglev</tspan></tspan><tspan class="text-outer-tspan row" x="0" y="1em" dy="1.1em"><tspan font-style="normal" class="text-inner-tspan" font-weight="normal">mid-tier</tspan><tspan font-style="normal" class="text-inner-tspan" font-weight="normal"> optimizer</tspan></tspan><tspan class="text-outer-tspan row" x="0" y="2.1em" dy="1.1em"><tspan font-style="normal" class="text-inner-tspan" font-weight="normal">SSA-based</tspan><tspan font-style="normal" class="text-inner-tspan" font-weight="normal"> CFG</tspan></tspan></text></g></g></g><g class="node default hot" id="gd396f58a-a6e7-4efa-9505-8ffae75a32fc-light-flowchart-tf-4" data-look="classic" transform="translate(318.8671875, 640.8999862670898)"><rect class="basic label-container" style="fill:#B43A3A !important;stroke:#8E2828 !important" x="-107.4921875" y="-42.099998474121094" width="214.984375" height="84.19999694824219"></rect><g class="label" style="color:#ffffff !important" transform="translate(0, -27.099998474121094)"><rect></rect><g><rect class="background" style="stroke: none"></rect><text y="-10.1" style="fill:#ffffff !important"><tspan class="text-outer-tspan row" x="0" y="-0.1em" dy="1.1em"><tspan font-style="normal" class="text-inner-tspan" font-weight="normal">TurboFan</tspan></tspan><tspan class="text-outer-tspan row" x="0" y="1em" dy="1.1em"><tspan font-style="normal" class="text-inner-tspan" font-weight="normal">speculative</tspan><tspan font-style="normal" class="text-inner-tspan" font-weight="normal"> optimizer</tspan></tspan><tspan class="text-outer-tspan row" x="0" y="2.1em" dy="1.1em"><tspan font-style="normal" class="text-inner-tspan" font-weight="normal">peak</tspan><tspan font-style="normal" class="text-inner-tspan" font-weight="normal"> throughput</tspan></tspan></text></g></g></g></g></g></g><defs><filter id="gd396f58a-a6e7-4efa-9505-8ffae75a32fc-light-drop-shadow" height="130%" width="130%"><feDropShadow dx="4" dy="4" stdDeviation="0" flood-opacity="0.06" flood-color="#000000"></feDropShadow></filter></defs><defs><filter id="gd396f58a-a6e7-4efa-9505-8ffae75a32fc-light-drop-shadow-small" height="150%" width="150%"><feDropShadow dx="2" dy="2" stdDeviation="0" flood-opacity="0.06" flood-color="#000000"></feDropShadow></filter></defs></svg>