<svg id="gbb4601e8-7838-420b-b6b8-4387bc280f61-light" width="100%" xmlns="http://www.w3.org/2000/svg" xmlns:xlink="http://www.w3.org/1999/xlink" class="flowchart" style="max-width: 995.1515502929688px;" viewBox="0 0 995.1515502929688 1623.5687255859375" role="graphics-document document" aria-roledescription="flowchart-v2"><style>#gbb4601e8-7838-420b-b6b8-4387bc280f61-light{font-family:"trebuchet ms",verdana,arial,sans-serif;font-size:16px;fill:#333;}@keyframes edge-animation-frame{from{stroke-dashoffset:0;}}@keyframes dash{to{stroke-dashoffset:0;}}#gbb4601e8-7838-420b-b6b8-4387bc280f61-light .edge-animation-slow{stroke-dasharray:9,5!important;stroke-dashoffset:900;animation:dash 50s linear infinite;stroke-linecap:round;}#gbb4601e8-7838-420b-b6b8-4387bc280f61-light .edge-animation-fast{stroke-dasharray:9,5!important;stroke-dashoffset:900;animation:dash 20s linear infinite;stroke-linecap:round;}#gbb4601e8-7838-420b-b6b8-4387bc280f61-light .error-icon{fill:#552222;}#gbb4601e8-7838-420b-b6b8-4387bc280f61-light .error-text{fill:#552222;stroke:#552222;}#gbb4601e8-7838-420b-b6b8-4387bc280f61-light .edge-thickness-normal{stroke-width:1px;}#gbb4601e8-7838-420b-b6b8-4387bc280f61-light .edge-thickness-thick{stroke-width:3.5px;}#gbb4601e8-7838-420b-b6b8-4387bc280f61-light .edge-pattern-solid{stroke-dasharray:0;}#gbb4601e8-7838-420b-b6b8-4387bc280f61-light .edge-thickness-invisible{stroke-width:0;fill:none;}#gbb4601e8-7838-420b-b6b8-4387bc280f61-light .edge-pattern-dashed{stroke-dasharray:3;}#gbb4601e8-7838-420b-b6b8-4387bc280f61-light .edge-pattern-dotted{stroke-dasharray:2;}#gbb4601e8-7838-420b-b6b8-4387bc280f61-light .marker{fill:#333333;stroke:#333333;}#gbb4601e8-7838-420b-b6b8-4387bc280f61-light .marker.cross{stroke:#333333;}#gbb4601e8-7838-420b-b6b8-4387bc280f61-light svg{font-family:"trebuchet ms",verdana,arial,sans-serif;font-size:16px;}#gbb4601e8-7838-420b-b6b8-4387bc280f61-light p{margin:0;}#gbb4601e8-7838-420b-b6b8-4387bc280f61-light .label{font-family:"trebuchet ms",verdana,arial,sans-serif;color:#333;}#gbb4601e8-7838-420b-b6b8-4387bc280f61-light .cluster-label text{fill:#333;}#gbb4601e8-7838-420b-b6b8-4387bc280f61-light .cluster-label span{color:#333;}#gbb4601e8-7838-420b-b6b8-4387bc280f61-light .cluster-label span p{background-color:transparent;}#gbb4601e8-7838-420b-b6b8-4387bc280f61-light .label text,#gbb4601e8-7838-420b-b6b8-4387bc280f61-light span{fill:#333;color:#333;}#gbb4601e8-7838-420b-b6b8-4387bc280f61-light .node rect,#gbb4601e8-7838-420b-b6b8-4387bc280f61-light .node circle,#gbb4601e8-7838-420b-b6b8-4387bc280f61-light .node ellipse,#gbb4601e8-7838-420b-b6b8-4387bc280f61-light .node polygon,#gbb4601e8-7838-420b-b6b8-4387bc280f61-light .node path{fill:#ECECFF;stroke:#9370DB;stroke-width:1px;}#gbb4601e8-7838-420b-b6b8-4387bc280f61-light .rough-node .label text,#gbb4601e8-7838-420b-b6b8-4387bc280f61-light .node .label text,#gbb4601e8-7838-420b-b6b8-4387bc280f61-light .image-shape .label,#gbb4601e8-7838-420b-b6b8-4387bc280f61-light .icon-shape .label{text-anchor:middle;}#gbb4601e8-7838-420b-b6b8-4387bc280f61-light .node .katex path{fill:#000;stroke:#000;stroke-width:1px;}#gbb4601e8-7838-420b-b6b8-4387bc280f61-light .rough-node .label,#gbb4601e8-7838-420b-b6b8-4387bc280f61-light .node .label,#gbb4601e8-7838-420b-b6b8-4387bc280f61-light .image-shape .label,#gbb4601e8-7838-420b-b6b8-4387bc280f61-light .icon-shape .label{text-align:center;}#gbb4601e8-7838-420b-b6b8-4387bc280f61-light .node.clickable{cursor:pointer;}#gbb4601e8-7838-420b-b6b8-4387bc280f61-light .root .anchor path{fill:#333333!important;stroke-width:0;stroke:#333333;}#gbb4601e8-7838-420b-b6b8-4387bc280f61-light .arrowheadPath{fill:#333333;}#gbb4601e8-7838-420b-b6b8-4387bc280f61-light .edgePath .path{stroke:#333333;stroke-width:1px;}#gbb4601e8-7838-420b-b6b8-4387bc280f61-light .flowchart-link{stroke:#333333;fill:none;}#gbb4601e8-7838-420b-b6b8-4387bc280f61-light .edgeLabel{background-color:rgba(232,232,232, 0.8);text-align:center;}#gbb4601e8-7838-420b-b6b8-4387bc280f61-light .edgeLabel p{background-color:rgba(232,232,232, 0.8);}#gbb4601e8-7838-420b-b6b8-4387bc280f61-light .edgeLabel rect{opacity:0.5;background-color:rgba(232,232,232, 0.8);fill:rgba(232,232,232, 0.8);}#gbb4601e8-7838-420b-b6b8-4387bc280f61-light .labelBkg{background-color:rgba(232, 232, 232, 0.5);}#gbb4601e8-7838-420b-b6b8-4387bc280f61-light .cluster rect{fill:#ffffde;stroke:#aaaa33;stroke-width:1px;}#gbb4601e8-7838-420b-b6b8-4387bc280f61-light .cluster text{fill:#333;}#gbb4601e8-7838-420b-b6b8-4387bc280f61-light .cluster span{color:#333;}#gbb4601e8-7838-420b-b6b8-4387bc280f61-light div.mermaidTooltip{position:absolute;text-align:center;max-width:200px;padding:2px;font-family:"trebuchet ms",verdana,arial,sans-serif;font-size:12px;background:hsl(80, 100%, 96.2745098039%);border:1px solid #aaaa33;border-radius:2px;pointer-events:none;z-index:100;}#gbb4601e8-7838-420b-b6b8-4387bc280f61-light .flowchartTitleText{text-anchor:middle;font-size:18px;fill:#333;}#gbb4601e8-7838-420b-b6b8-4387bc280f61-light rect.text{fill:none;stroke-width:0;}#gbb4601e8-7838-420b-b6b8-4387bc280f61-light .icon-shape,#gbb4601e8-7838-420b-b6b8-4387bc280f61-light .image-shape{background-color:rgba(232,232,232, 0.8);text-align:center;}#gbb4601e8-7838-420b-b6b8-4387bc280f61-light .icon-shape p,#gbb4601e8-7838-420b-b6b8-4387bc280f61-light .image-shape p{background-color:rgba(232,232,232, 0.8);padding:2px;}#gbb4601e8-7838-420b-b6b8-4387bc280f61-light .icon-shape .label rect,#gbb4601e8-7838-420b-b6b8-4387bc280f61-light .image-shape .label rect{opacity:0.5;background-color:rgba(232,232,232, 0.8);fill:rgba(232,232,232, 0.8);}#gbb4601e8-7838-420b-b6b8-4387bc280f61-light .label-icon{display:inline-block;height:1em;overflow:visible;vertical-align:-0.125em;}#gbb4601e8-7838-420b-b6b8-4387bc280f61-light .node .label-icon path{fill:currentColor;stroke:revert;stroke-width:revert;}#gbb4601e8-7838-420b-b6b8-4387bc280f61-light .node .neo-node{stroke:#9370DB;}#gbb4601e8-7838-420b-b6b8-4387bc280f61-light [data-look="neo"].node rect,#gbb4601e8-7838-420b-b6b8-4387bc280f61-light [data-look="neo"].cluster rect,#gbb4601e8-7838-420b-b6b8-4387bc280f61-light [data-look="neo"].node polygon{stroke:#9370DB;filter:drop-shadow(1px 2px 2px rgba(185, 185, 185, 1));}#gbb4601e8-7838-420b-b6b8-4387bc280f61-light [data-look="neo"].node path{stroke:#9370DB;stroke-width:1px;}#gbb4601e8-7838-420b-b6b8-4387bc280f61-light [data-look="neo"].node .outer-path{filter:drop-shadow(1px 2px 2px rgba(185, 185, 185, 1));}#gbb4601e8-7838-420b-b6b8-4387bc280f61-light [data-look="neo"].node .neo-line path{stroke:#9370DB;filter:none;}#gbb4601e8-7838-420b-b6b8-4387bc280f61-light [data-look="neo"].node circle{stroke:#9370DB;filter:drop-shadow(1px 2px 2px rgba(185, 185, 185, 1));}#gbb4601e8-7838-420b-b6b8-4387bc280f61-light [data-look="neo"].node circle .state-start{fill:#000000;}#gbb4601e8-7838-420b-b6b8-4387bc280f61-light [data-look="neo"].icon-shape .icon{fill:#9370DB;filter:drop-shadow(1px 2px 2px rgba(185, 185, 185, 1));}#gbb4601e8-7838-420b-b6b8-4387bc280f61-light [data-look="neo"].icon-shape .icon-neo path{stroke:#9370DB;filter:drop-shadow(1px 2px 2px rgba(185, 185, 185, 1));}#gbb4601e8-7838-420b-b6b8-4387bc280f61-light :root{--mermaid-font-family:"trebuchet ms",verdana,arial,sans-serif;}#gbb4601e8-7838-420b-b6b8-4387bc280f61-light .pick rect{fill:#0d47a1!important;stroke:#0d47a1!important;color:#ffffff!important;}#gbb4601e8-7838-420b-b6b8-4387bc280f61-light .pick polygon{fill:#0d47a1!important;stroke:#0d47a1!important;color:#ffffff!important;}#gbb4601e8-7838-420b-b6b8-4387bc280f61-light .pick ellipse{fill:#0d47a1!important;stroke:#0d47a1!important;color:#ffffff!important;}#gbb4601e8-7838-420b-b6b8-4387bc280f61-light .pick circle{fill:#0d47a1!important;stroke:#0d47a1!important;color:#ffffff!important;}#gbb4601e8-7838-420b-b6b8-4387bc280f61-light .pick path{fill:#0d47a1!important;stroke:#0d47a1!important;color:#ffffff!important;}#gbb4601e8-7838-420b-b6b8-4387bc280f61-light .pick tspan{fill:#ffffff!important;}</style><g><marker id="gbb4601e8-7838-420b-b6b8-4387bc280f61-light_flowchart-v2-pointEnd" class="marker flowchart-v2" viewBox="0 0 10 10" refX="5" refY="5" markerUnits="userSpaceOnUse" markerWidth="8" markerHeight="8" orient="auto"><path d="M 0 0 L 10 5 L 0 10 z" class="arrowMarkerPath" style="stroke-width: 1; stroke-dasharray: 1, 0;"></path></marker><marker id="gbb4601e8-7838-420b-b6b8-4387bc280f61-light_flowchart-v2-pointStart" class="marker flowchart-v2" viewBox="0 0 10 10" refX="4.5" refY="5" markerUnits="userSpaceOnUse" markerWidth="8" markerHeight="8" orient="auto"><path d="M 0 5 L 10 10 L 10 0 z" class="arrowMarkerPath" style="stroke-width: 1; stroke-dasharray: 1, 0;"></path></marker><marker id="gbb4601e8-7838-420b-b6b8-4387bc280f61-light_flowchart-v2-pointEnd-margin" class="marker flowchart-v2" viewBox="0 0 11.5 14" refX="11.5" refY="7" markerUnits="userSpaceOnUse" markerWidth="10.5" markerHeight="14" orient="auto"><path d="M 0 0 L 11.5 7 L 0 14 z" class="arrowMarkerPath" style="stroke-width: 0; stroke-dasharray: 1, 0;"></path></marker><marker id="gbb4601e8-7838-420b-b6b8-4387bc280f61-light_flowchart-v2-pointStart-margin" class="marker flowchart-v2" viewBox="0 0 11.5 14" refX="1" refY="7" markerUnits="userSpaceOnUse" markerWidth="11.5" markerHeight="14" orient="auto"><polygon points="0,7 11.5,14 11.5,0" class="arrowMarkerPath" style="stroke-width: 0; stroke-dasharray: 1, 0;"></polygon></marker><marker id="gbb4601e8-7838-420b-b6b8-4387bc280f61-light_flowchart-v2-circleEnd" class="marker flowchart-v2" viewBox="0 0 10 10" refX="11" refY="5" markerUnits="userSpaceOnUse" markerWidth="11" markerHeight="11" orient="auto"><circle cx="5" cy="5" r="5" class="arrowMarkerPath" style="stroke-width: 1; stroke-dasharray: 1, 0;"></circle></marker><marker id="gbb4601e8-7838-420b-b6b8-4387bc280f61-light_flowchart-v2-circleStart" class="marker flowchart-v2" viewBox="0 0 10 10" refX="-1" refY="5" markerUnits="userSpaceOnUse" markerWidth="11" markerHeight="11" orient="auto"><circle cx="5" cy="5" r="5" class="arrowMarkerPath" style="stroke-width: 1; stroke-dasharray: 1, 0;"></circle></marker><marker id="gbb4601e8-7838-420b-b6b8-4387bc280f61-light_flowchart-v2-circleEnd-margin" class="marker flowchart-v2" viewBox="0 0 10 10" refY="5" refX="12.25" markerUnits="userSpaceOnUse" markerWidth="14" markerHeight="14" orient="auto"><circle cx="5" cy="5" r="5" class="arrowMarkerPath" style="stroke-width: 0; stroke-dasharray: 1, 0;"></circle></marker><marker id="gbb4601e8-7838-420b-b6b8-4387bc280f61-light_flowchart-v2-circleStart-margin" class="marker flowchart-v2" viewBox="0 0 10 10" refX="-2" refY="5" markerUnits="userSpaceOnUse" markerWidth="14" markerHeight="14" orient="auto"><circle cx="5" cy="5" r="5" class="arrowMarkerPath" style="stroke-width: 0; stroke-dasharray: 1, 0;"></circle></marker><marker id="gbb4601e8-7838-420b-b6b8-4387bc280f61-light_flowchart-v2-crossEnd" class="marker cross flowchart-v2" viewBox="0 0 11 11" refX="12" refY="5.2" markerUnits="userSpaceOnUse" markerWidth="11" markerHeight="11" orient="auto"><path d="M 1,1 l 9,9 M 10,1 l -9,9" class="arrowMarkerPath" style="stroke-width: 2; stroke-dasharray: 1, 0;"></path></marker><marker id="gbb4601e8-7838-420b-b6b8-4387bc280f61-light_flowchart-v2-crossStart" class="marker cross flowchart-v2" viewBox="0 0 11 11" refX="-1" refY="5.2" markerUnits="userSpaceOnUse" markerWidth="11" markerHeight="11" orient="auto"><path d="M 1,1 l 9,9 M 10,1 l -9,9" class="arrowMarkerPath" style="stroke-width: 2; stroke-dasharray: 1, 0;"></path></marker><marker id="gbb4601e8-7838-420b-b6b8-4387bc280f61-light_flowchart-v2-crossEnd-margin" class="marker cross flowchart-v2" viewBox="0 0 15 15" refX="17.7" refY="7.5" markerUnits="userSpaceOnUse" markerWidth="12" markerHeight="12" orient="auto"><path d="M 1,1 L 14,14 M 1,14 L 14,1" class="arrowMarkerPath" style="stroke-width: 2.5;"></path></marker><marker id="gbb4601e8-7838-420b-b6b8-4387bc280f61-light_flowchart-v2-crossStart-margin" class="marker cross flowchart-v2" viewBox="0 0 15 15" refX="-3.5" refY="7.5" markerUnits="userSpaceOnUse" markerWidth="12" markerHeight="12" orient="auto"><path d="M 1,1 L 14,14 M 1,14 L 14,1" class="arrowMarkerPath" style="stroke-width: 2.5; stroke-dasharray: 1, 0;"></path></marker><g class="root"><g class="clusters"></g><g class="edgePaths"><path d="M271.757,60.1L271.674,64.183C271.59,68.267,271.424,76.433,271.34,84.017C271.257,91.6,271.257,98.6,271.257,102.1L271.257,105.6" id="gbb4601e8-7838-420b-b6b8-4387bc280f61-light-L_Start_Q1_0" class="edge-thickness-normal edge-pattern-solid edge-thickness-normal edge-pattern-solid flowchart-link" style=";" data-edge="true" data-et="edge" data-id="L_Start_Q1_0" data-points="W3sieCI6MjcxLjc1NzAzMDQ4NzA2MDU1LCJ5Ijo2MC4wOTk5OTg0NzQxMjEwN30seyJ4IjoyNzEuMjU3MDMwNDg3MDYwNTUsInkiOjg0LjU5OTk5ODQ3NDEyMTF9LHsieCI6MjcxLjI1NzAzMDQ4NzA2MDU1LCJ5IjoxMDkuNTk5OTk4NDc0MTIxMDV9XQ==" data-look="classic" marker-end="url(#gbb4601e8-7838-420b-b6b8-4387bc280f61-light_flowchart-v2-pointEnd)"></path><path d="M208.723,326.694L195.367,343.2C182.011,359.705,155.298,392.717,141.942,425.282C128.586,457.847,128.586,489.966,128.586,506.025L128.586,522.084" id="gbb4601e8-7838-420b-b6b8-4387bc280f61-light-L_Q1_Rtree_0" class="edge-thickness-normal edge-pattern-solid edge-thickness-normal edge-pattern-solid flowchart-link" style=";" data-edge="true" data-et="edge" data-id="L_Q1_Rtree_0" data-points="W3sieCI6MjA4LjcyMzAwNDk5MjgxNzQsInkiOjMyNi42OTQxMTYyOTA0MjQ4fSx7IngiOjEyOC41ODU5Mzc1LCJ5Ijo0MjUuNzI4MTQxNzg0NjY3OTd9LHsieCI6MTI4LjU4NTkzNzUsInkiOjUyNi4wODQzODg3MzI5MTAyfV0=" data-look="classic" marker-end="url(#gbb4601e8-7838-420b-b6b8-4387bc280f61-light_flowchart-v2-pointEnd)"></path><path d="M333.791,326.694L347.147,343.2C360.503,359.705,387.216,392.717,400.572,414.639C413.928,436.561,413.928,447.395,413.928,452.811L413.928,458.228" id="gbb4601e8-7838-420b-b6b8-4387bc280f61-light-L_Q1_Q2_0" class="edge-thickness-normal edge-pattern-solid edge-thickness-normal edge-pattern-solid flowchart-link" style=";" data-edge="true" data-et="edge" data-id="L_Q1_Q2_0" data-points="W3sieCI6MzMzLjc5MTA1NTk4MTMwMzY2LCJ5IjozMjYuNjk0MTE2MjkwNDI0OH0seyJ4Ijo0MTMuOTI4MTIzNDc0MTIxMSwieSI6NDI1LjcyODE0MTc4NDY2Nzk3fSx7IngiOjQxMy45MjgxMjM0NzQxMjEwNCwieSI6NDYyLjIyODE0MTc4NDY2Nzl9XQ==" data-look="classic" marker-end="url(#gbb4601e8-7838-420b-b6b8-4387bc280f61-light_flowchart-v2-pointEnd)"></path><path d="M357.099,634.911L341.839,650.466C326.579,666.021,296.058,697.131,280.798,731.836C265.538,766.542,265.538,804.843,265.538,823.993L265.538,843.144" id="gbb4601e8-7838-420b-b6b8-4387bc280f61-light-L_Q2_Quad_0" class="edge-thickness-normal edge-pattern-solid edge-thickness-normal edge-pattern-solid flowchart-link" style=";" data-edge="true" data-et="edge" data-id="L_Q2_Quad_0" data-points="W3sieCI6MzU3LjA5ODg3NTkwODExNzI0LCJ5Ijo2MzQuOTExMzkxMTY2OTA2NH0seyJ4IjoyNjUuNTM4Mjc2NjcyMzYzMywieSI6NzI4LjI0MDYzODczMjkxMDJ9LHsieCI6MjY1LjUzODI3NjY3MjM2MzMsInkiOjg0Ny4xNDM3NjgzMTA1NDY5fV0=" data-look="classic" marker-end="url(#gbb4601e8-7838-420b-b6b8-4387bc280f61-light_flowchart-v2-pointEnd)"></path><path d="M470.757,634.911L486.017,650.466C501.278,666.021,531.798,697.131,547.058,718.102C562.318,739.074,562.318,749.907,562.318,755.324L562.318,760.741" id="gbb4601e8-7838-420b-b6b8-4387bc280f61-light-L_Q2_Q3_0" class="edge-thickness-normal edge-pattern-solid edge-thickness-normal edge-pattern-solid flowchart-link" style=";" data-edge="true" data-et="edge" data-id="L_Q2_Q3_0" data-points="W3sieCI6NDcwLjc1NzM3MTA0MDEyNDg0LCJ5Ijo2MzQuOTExMzkxMTY2OTA2NH0seyJ4Ijo1NjIuMzE3OTcwMjc1ODc4OSwieSI6NzI4LjI0MDYzODczMjkxMDJ9LHsieCI6NTYyLjMxNzk3MDI3NTg3ODksInkiOjc2NC43NDA2Mzg3MzI5MDk3fV0=" data-look="classic" marker-end="url(#gbb4601e8-7838-420b-b6b8-4387bc280f61-light_flowchart-v2-pointEnd)"></path><path d="M480.05,949.079L448.141,968.873C416.232,988.668,352.413,1028.257,320.504,1057.349C288.595,1086.441,288.595,1105.034,288.595,1114.331L288.595,1123.628" id="gbb4601e8-7838-420b-b6b8-4387bc280f61-light-L_Q3_Q3a_0" class="edge-thickness-normal edge-pattern-solid edge-thickness-normal edge-pattern-solid flowchart-link" style=";" data-edge="true" data-et="edge" data-id="L_Q3_Q3a_0" data-points="W3sieCI6NDgwLjA0OTcyNzU0MzQzNzI2LCJ5Ijo5NDkuMDc4NjU4MjA3NDk5OH0seyJ4IjoyODguNTk1MzE0MDI1ODc4OSwieSI6MTA2Ny44NDY5MDA5Mzk5NDE0fSx7IngiOjI4OC41OTUzMTQwMjU4Nzg5LCJ5IjoxMTI3LjYyODE0MzMxMDU0Njl9XQ==" data-look="classic" marker-end="url(#gbb4601e8-7838-420b-b6b8-4387bc280f61-light_flowchart-v2-pointEnd)"></path><path d="M275.142,1368.834L273.7,1381.04C272.258,1393.246,269.374,1417.657,267.932,1436.746C266.49,1455.835,266.49,1469.602,266.49,1476.485L266.49,1483.369" id="gbb4601e8-7838-420b-b6b8-4387bc280f61-light-L_Q3a_Geohash_0" class="edge-thickness-normal edge-pattern-solid edge-thickness-normal edge-pattern-solid flowchart-link" style=";" data-edge="true" data-et="edge" data-id="L_Q3a_Geohash_0" data-points="W3sieCI6Mjc1LjE0MTg2MzYyODQwNDk2LCJ5IjoxMzY4LjgzNDA3MDk2NDgzMDV9LHsieCI6MjY2LjQ4OTg0NTI3NTg3ODksInkiOjE0NDIuMDY4NzYzNzMyOTEwMn0seyJ4IjoyNjYuNDg5ODQ1Mjc1ODc4OSwieSI6MTQ4Ny4zNjg3NjI5Njk5NzA3fV0=" data-look="classic" marker-end="url(#gbb4601e8-7838-420b-b6b8-4387bc280f61-light_flowchart-v2-pointEnd)"></path><path d="M343.714,1327.169L358.331,1346.319C372.948,1365.469,402.182,1403.769,423.289,1428.565C444.397,1453.36,457.379,1464.652,463.87,1470.298L470.36,1475.944" id="gbb4601e8-7838-420b-b6b8-4387bc280f61-light-L_Q3a_S2_0" class="edge-thickness-normal edge-pattern-solid edge-thickness-normal edge-pattern-solid flowchart-link" style=";" data-edge="true" data-et="edge" data-id="L_Q3a_S2_0" data-points="W3sieCI6MzQzLjcxMzY2NDYzMjYxNzgsInkiOjEzMjcuMTY5MTcwNzU1NTY1OH0seyJ4Ijo0MzEuNDE1NjI2NTI1ODc4OSwieSI6MTQ0Mi4wNjg3NjM3MzI5MTAyfSx7IngiOjQ3My4zNzg0MDU1NDM3MzYwNSwieSI6MTQ3OC41Njg3NjM3MzI5MTAyfV0=" data-look="classic" marker-end="url(#gbb4601e8-7838-420b-b6b8-4387bc280f61-light_flowchart-v2-pointEnd)"></path><path d="M644.586,949.079L676.495,968.873C708.404,988.668,772.222,1028.257,804.132,1053.469C836.041,1078.68,836.041,1089.514,836.041,1094.93L836.041,1100.347" id="gbb4601e8-7838-420b-b6b8-4387bc280f61-light-L_Q3_Q4_0" class="edge-thickness-normal edge-pattern-solid edge-thickness-normal edge-pattern-solid flowchart-link" style=";" data-edge="true" data-et="edge" data-id="L_Q3_Q4_0" data-points="W3sieCI6NjQ0LjU4NjIxMzAwODMyMDMsInkiOjk0OS4wNzg2NTgyMDc0OTk4fSx7IngiOjgzNi4wNDA2MjY1MjU4Nzg5LCJ5IjoxMDY3Ljg0NjkwMDkzOTk0MTR9LHsieCI6ODM2LjA0MDYyNjUyNTg3ODksInkiOjExMDQuMzQ2OTAwOTM5OTQxNH1d" data-look="classic" marker-end="url(#gbb4601e8-7838-420b-b6b8-4387bc280f61-light_flowchart-v2-pointEnd)"></path><path d="M851.954,1389.655L852.986,1398.391C854.018,1407.127,856.082,1424.598,857.114,1441.683C858.146,1458.769,858.146,1475.469,858.146,1483.819L858.146,1492.169" id="gbb4601e8-7838-420b-b6b8-4387bc280f61-light-L_Q4_H3_0" class="edge-thickness-normal edge-pattern-solid edge-thickness-normal edge-pattern-solid flowchart-link" style=";" data-edge="true" data-et="edge" data-id="L_Q4_H3_0" data-points="W3sieCI6ODUxLjk1MzkzNTU5Mjc3MDEsInkiOjEzODkuNjU1NDU0NjY2MDE5fSx7IngiOjg1OC4xNDYwOTUyNzU4Nzg5LCJ5IjoxNDQyLjA2ODc2MzczMjkxMDJ9LHsieCI6ODU4LjE0NjA5NTI3NTg3ODksInkiOjE0OTYuMTY4NzYyMjA3MDMxMn1d" data-look="classic" marker-end="url(#gbb4601e8-7838-420b-b6b8-4387bc280f61-light_flowchart-v2-pointEnd)"></path><path d="M768.286,1337.814L754.077,1355.19C739.868,1372.566,711.451,1407.317,690.178,1430.359C668.905,1453.401,654.777,1464.734,647.713,1470.4L640.649,1476.066" id="gbb4601e8-7838-420b-b6b8-4387bc280f61-light-L_Q4_S2_0" class="edge-thickness-normal edge-pattern-solid edge-thickness-normal edge-pattern-solid flowchart-link" style=";" data-edge="true" data-et="edge" data-id="L_Q4_S2_0" data-points="W3sieCI6NzY4LjI4NTkwOTc4MzI1NDIsInkiOjEzMzcuODE0MDQ2OTkwMjg1M30seyJ4Ijo2ODMuMDMyODE0MDI1ODc4OSwieSI6MTQ0Mi4wNjg3NjM3MzI5MTAyfSx7IngiOjYzNy41Mjg2NjU5NjA0MDI3LCJ5IjoxNDc4LjU2ODc2MzczMjkxMDJ9XQ==" data-look="classic" marker-end="url(#gbb4601e8-7838-420b-b6b8-4387bc280f61-light_flowchart-v2-pointEnd)"></path></g><g class="edgeLabels"><g class="edgeLabel"><g class="label" data-id="L_Start_Q1_0" transform="translate(0, 0)"><text y="-10.1" text-anchor="middle"><tspan class="text-outer-tspan row" x="0" y="-0.1em" dy="1.1em" text-anchor="middle"></tspan></text></g></g><g><rect class="background" style="stroke: none"></rect></g><g class="edgeLabel" transform="translate(128.5859375, 425.72814178466797)"><g class="label" data-id="L_Q1_Rtree_0" transform="translate(0, -10.5)"><g><rect class="background" style="" x="-13.546875" y="-1" width="27.09375" height="23"></rect><text y="-10.1" text-anchor="middle" style=""><tspan class="text-outer-tspan row" x="0" y="-0.1em" dy="1.1em" text-anchor="middle"><tspan font-style="normal" class="text-inner-tspan" font-weight="normal">yes</tspan></tspan></text></g></g></g><g class="edgeLabel" transform="translate(413.9281234741211, 425.72814178466797)"><g class="label" data-id="L_Q1_Q2_0" transform="translate(0, -10.5)"><g><rect class="background" style="" x="-10.6640625" y="-1" width="21.328125" height="23"></rect><text y="-10.1" text-anchor="middle" style=""><tspan class="text-outer-tspan row" x="0" y="-0.1em" dy="1.1em" text-anchor="middle"><tspan font-style="normal" class="text-inner-tspan" font-weight="normal">no</tspan></tspan></text></g></g></g><g class="edgeLabel" transform="translate(265.5382766723633, 728.2406387329102)"><g class="label" data-id="L_Q2_Quad_0" transform="translate(0, -10.5)"><g><rect class="background" style="" x="-13.546875" y="-1" width="27.09375" height="23"></rect><text y="-10.1" text-anchor="middle" style=""><tspan class="text-outer-tspan row" x="0" y="-0.1em" dy="1.1em" text-anchor="middle"><tspan font-style="normal" class="text-inner-tspan" font-weight="normal">yes</tspan></tspan></text></g></g></g><g class="edgeLabel" transform="translate(562.3179702758789, 728.2406387329102)"><g class="label" data-id="L_Q2_Q3_0" transform="translate(0, -10.5)"><g><rect class="background" style="" x="-10.6640625" y="-1" width="21.328125" height="23"></rect><text y="-10.1" text-anchor="middle" style=""><tspan class="text-outer-tspan row" x="0" y="-0.1em" dy="1.1em" text-anchor="middle"><tspan font-style="normal" class="text-inner-tspan" font-weight="normal">no</tspan></tspan></text></g></g></g><g class="edgeLabel" transform="translate(288.5953140258789, 1067.8469009399414)"><g class="label" data-id="L_Q3_Q3a_0" transform="translate(0, -10.5)"><g><rect class="background" style="" x="-13.546875" y="-1" width="27.09375" height="23"></rect><text y="-10.1" text-anchor="middle" style=""><tspan class="text-outer-tspan row" x="0" y="-0.1em" dy="1.1em" text-anchor="middle"><tspan font-style="normal" class="text-inner-tspan" font-weight="normal">yes</tspan></tspan></text></g></g></g><g class="edgeLabel" transform="translate(266.4898452758789, 1442.0687637329102)"><g class="label" data-id="L_Q3a_Geohash_0" transform="translate(0, -10.5)"><g><rect class="background" style="" x="-13.546875" y="-1" width="27.09375" height="23"></rect><text y="-10.1" text-anchor="middle" style=""><tspan class="text-outer-tspan row" x="0" y="-0.1em" dy="1.1em" text-anchor="middle"><tspan font-style="normal" class="text-inner-tspan" font-weight="normal">yes</tspan></tspan></text></g></g></g><g class="edgeLabel" transform="translate(404.43685, 1406.72349)"><g class="label" data-id="L_Q3a_S2_0" transform="translate(0, -10.5)"><g><rect class="background" style="" x="-10.6640625" y="-1" width="21.328125" height="23"></rect><text y="-10.1" text-anchor="middle" style=""><tspan class="text-outer-tspan row" x="0" y="-0.1em" dy="1.1em" text-anchor="middle"><tspan font-style="normal" class="text-inner-tspan" font-weight="normal">no</tspan></tspan></text></g></g></g><g class="edgeLabel" transform="translate(836.0406265258789, 1067.8469009399414)"><g class="label" data-id="L_Q3_Q4_0" transform="translate(0, -10.5)"><g><rect class="background" style="" x="-10.6640625" y="-1" width="21.328125" height="23"></rect><text y="-10.1" text-anchor="middle" style=""><tspan class="text-outer-tspan row" x="0" y="-0.1em" dy="1.1em" text-anchor="middle"><tspan font-style="normal" class="text-inner-tspan" font-weight="normal">no</tspan></tspan></text></g></g></g><g class="edgeLabel" transform="translate(858.1460952758789, 1442.0687637329102)"><g class="label" data-id="L_Q4_H3_0" transform="translate(0, -10.5)"><g><rect class="background" style="" x="-13.546875" y="-1" width="27.09375" height="23"></rect><text y="-10.1" text-anchor="middle" style=""><tspan class="text-outer-tspan row" x="0" y="-0.1em" dy="1.1em" text-anchor="middle"><tspan font-style="normal" class="text-inner-tspan" font-weight="normal">yes</tspan></tspan></text></g></g></g><g class="edgeLabel" transform="translate(707.19565, 1412.5204)"><g class="label" data-id="L_Q4_S2_0" transform="translate(0, -10.5)"><g><rect class="background" style="" x="-10.6640625" y="-1" width="21.328125" height="23"></rect><text y="-10.1" text-anchor="middle" style=""><tspan class="text-outer-tspan row" x="0" y="-0.1em" dy="1.1em" text-anchor="middle"><tspan font-style="normal" class="text-inner-tspan" font-weight="normal">no</tspan></tspan></text></g></g></g></g><g class="nodes"><g class="node default" id="gbb4601e8-7838-420b-b6b8-4387bc280f61-light-flowchart-Start-0" data-look="classic" transform="translate(271.25703048706055, 33.79999923706055)"><g class="basic label-container outer-path"><path d="M-65.16562557220459 -25.799999237060547 C-28.568462875521433 -25.799999237060547, 8.028699821161723 -25.799999237060547, 65.16562557220459 -25.799999237060547 C65.16562557220459 -25.799999237060547, 65.16562557220459 -25.799999237060547, 65.16562557220459 -25.799999237060547 C65.82640399513024 -25.778809359164498, 66.48718241805588 -25.757619481268446, 66.81863719882529 -25.746990371586765 C67.25676343960433 -25.704724860062708, 67.69488968038337 -25.66245934853865, 68.46485624610231 -25.58818159996402 C68.94625217544288 -25.510353239389428, 69.42764810478344 -25.43252487881483, 70.09751804685753 -25.32422550149928 C70.59861342398364 -25.209853751623175, 71.09970880110974 -25.09548200174707, 71.70991364354678 -24.956206728419545 C72.02994843044708 -24.861222083564414, 72.34998321734737 -24.766237438709286, 73.29541735680552 -24.48563754880318 C73.65140034455783 -24.35463251863966, 74.00738333231014 -24.223627488476144, 74.84751401178644 -23.914451632345997 C75.2916331424461 -23.71785326752889, 75.73575227310576 -23.52125490271179, 76.35982571041056 -23.24499610449772 C76.70233732773768 -23.06630801312732, 77.04484894506481 -22.88761992175692, 77.8261380395184 -22.480021901620034 C78.36221456434383 -22.15504916193552, 78.89829108916925 -21.830076422251, 79.24042560722664 -21.62267246679901 C79.73333380046998 -21.278841048844246, 80.2262419937133 -20.935009630889482, 80.59687680255584 -20.67647083276321 C80.93422818077126 -20.407442085933614, 81.27157955898667 -20.138413339104016, 81.8899176765865 -19.64530514498651 C82.32763306818362 -19.247783607652636, 82.76534845978074 -18.850262070318767, 83.11423484701088 -18.533412684464313 C83.4927760772435 -18.14253778543613, 83.87131730747615 -17.751662886407946, 84.26479733196044 -17.345362455817106 C84.48419739086343 -17.087642662412634, 84.70359744976643 -16.82992286900816, 85.33687722338968 -16.086036412270357 C85.5954283283975 -15.739601486050095, 85.85397943340533 -15.393166559829833, 86.32606911506427 -14.76060939466161 C86.66021703283613 -14.247268461684552, 86.99436495060799 -13.733927528707493, 87.22830820532036 -13.374527866909407 C87.52038818176983 -12.855910292418612, 87.8124681582193 -12.337292717927816, 88.0398870002064 -11.93348753532484 C88.23584260073933 -11.526581538040032, 88.43179820127226 -11.119675540755226, 88.75747054837109 -10.443409943732584 C88.96331671234752 -9.934965938945965, 89.16916287632394 -9.426521934159346, 89.37811014509381 -8.910418140577123 C89.58430903280365 -8.289379944126308, 89.79050792051348 -7.668341747675491, 89.8992554491449 -7.340811518003323 C90.02244170842779 -6.871048922095159, 90.14562796771068 -6.4012863261869954, 90.31876496268467 -5.741039926302914 C90.39662964180876 -5.341221255706513, 90.47449432093283 -4.9414025851101115, 90.63491483113748 -4.117677170096137 C90.71198858632918 -3.5199083447637647, 90.78906234152088 -2.9221395194313926, 90.84640592687991 -2.4773939951584394 C90.88839819473962 -1.8233305276948197, 90.93039046259935 -1.1692670602311999, 90.95236918763487 -0.8269306768952902 C90.95236918763487 -0.2748450017653631, 90.95236918763487 0.27724067336456404, 90.95236918763487 0.826930676895284 C90.91696406665743 1.3783940146183196, 90.88155894567997 1.9298573523413554, 90.84640592687991 2.4773939951584216 C90.77216572867034 3.053186312086443, 90.6979255304608 3.6289786290144646, 90.63491483113748 4.117677170096119 C90.51356605460731 4.7407774905055335, 90.39221727807714 5.363877810914948, 90.31876496268467 5.741039926302909 C90.19649997921827 6.207289298239301, 90.07423499575188 6.673538670175693, 89.8992554491449 7.340811518003306 C89.76857786426305 7.734391583021797, 89.6379002793812 8.127971648040289, 89.37811014509383 8.910418140577105 C89.23702603032157 9.258898631740383, 89.0959419155493 9.60737912290366, 88.75747054837109 10.443409943732577 C88.51832966163597 10.939991111833319, 88.27918877490086 11.436572279934058, 88.0398870002064 11.933487535324835 C87.72110723970796 12.499513280040881, 87.40232747920953 13.065539024756928, 87.22830820532037 13.374527866909402 C87.00278894363716 13.720986013255843, 86.77726968195394 14.067444159602282, 86.32606911506429 14.760609394661596 C86.06013988371168 15.116930338022717, 85.79421065235908 15.47325128138384, 85.33687722338968 16.086036412270353 C85.07145511310252 16.39781632595957, 84.80603300281537 16.70959623964879, 84.26479733196045 17.345362455817092 C83.92588174367845 17.69532062620555, 83.58696615539642 18.04527879659401, 83.11423484701088 18.533412684464306 C82.68165465989061 18.92627056496237, 82.24907447277036 19.319128445460436, 81.88991767658653 19.64530514498649 C81.37933098072605 20.05248444765262, 80.86874428486556 20.45966375031875, 80.59687680255584 20.676470832763208 C80.17278147002821 20.972301377943435, 79.74868613750057 21.268131923123658, 79.24042560722665 21.622672466799003 C78.68701823946677 21.958151265317728, 78.13361087170689 22.29363006383645, 77.82613803951841 22.48002190162003 C77.31532233270254 22.746514128672796, 76.80450662588666 23.01300635572556, 76.35982571041058 23.244996104497716 C75.84656793925511 23.47220009453741, 75.33331016809966 23.699404084577104, 74.84751401178644 23.914451632345994 C74.31467589616659 24.110540984395648, 73.78183778054674 24.3066303364453, 73.29541735680553 24.485637548803172 C72.83434467668576 24.622481500042838, 72.37327199656598 24.7593254512825, 71.70991364354681 24.95620672841954 C71.09772227983939 25.09593541226377, 70.48553091613195 25.235664096107996, 70.09751804685754 25.324225501499278 C69.54028997018852 25.414313815566853, 68.98306189351949 25.504402129634425, 68.46485624610233 25.588181599964017 C68.02688785190927 25.630431884217764, 67.58891945771622 25.67268216847151, 66.81863719882529 25.746990371586765 C66.23266431698428 25.765781381380382, 65.64669143514327 25.784572391174002, 65.16562557220459 25.799999237060547 C65.16562557220459 25.799999237060547, 65.16562557220459 25.799999237060547, 65.16562557220459 25.799999237060547 C34.57424001772142 25.799999237060547, 3.9828544632382474 25.799999237060547, -65.16562557220459 25.799999237060547 C-65.80586464990984 25.779468015988304, -66.44610372761508 25.758936794916064, -66.81863719882527 25.746990371586765 C-67.32806848812699 25.697846147788592, -67.83749977742869 25.64870192399042, -68.46485624610231 25.588181599964017 C-69.05304307764702 25.493088114496874, -69.64122990919172 25.397994629029732, -70.09751804685753 25.324225501499278 C-70.73310727954497 25.17915640674573, -71.3686965122324 25.034087311992177, -71.70991364354678 24.956206728419545 C-72.3005678282779 24.780903666798434, -72.89122201300901 24.605600605177326, -73.2954173568055 24.485637548803183 C-73.87419201306578 24.27264312516513, -74.45296666932606 24.059648701527074, -74.84751401178644 23.914451632345997 C-75.23710102726919 23.74199301727999, -75.62668804275192 23.56953440221399, -76.35982571041056 23.244996104497723 C-76.70396246967415 23.06546017762002, -77.04809922893774 22.88592425074232, -77.8261380395184 22.480021901620038 C-78.13928783237881 22.2901886569156, -78.45243762523923 22.100355412211165, -79.24042560722663 21.622672466799017 C-79.54655141673915 21.40913235405579, -79.85267722625169 21.19559224131256, -80.59687680255584 20.67647083276321 C-80.86383469065035 20.46357902105559, -81.13079257874487 20.25068720934797, -81.8899176765865 19.645305144986512 C-82.29513480194814 19.277297673190695, -82.70035192730977 18.90929020139488, -83.11423484701086 18.533412684464324 C-83.52524502219404 18.10901093402474, -83.93625519737722 17.68460918358516, -84.26479733196044 17.3453624558171 C-84.68663791319517 16.849844505689727, -85.1084784944299 16.354326555562352, -85.33687722338968 16.08603641227036 C-85.71469189582308 15.579799170834331, -86.09250656825648 15.073561929398304, -86.32606911506427 14.760609394661614 C-86.57095046824084 14.384405876331826, -86.81583182141742 14.00820235800204, -87.22830820532036 13.374527866909418 C-87.487176225023 12.914881484697908, -87.74604424472565 12.455235102486398, -88.03988700020639 11.933487535324842 C-88.2003847520939 11.600210519428702, -88.36088250398139 11.266933503532563, -88.75747054837109 10.443409943732586 C-88.98427940899141 9.883187672949354, -89.21108826961175 9.322965402166123, -89.37811014509381 8.910418140577127 C-89.57258743657712 8.32468352437783, -89.76706472806045 7.738948908178534, -89.8992554491449 7.340811518003316 C-89.99266062083167 6.984617116304191, -90.08606579251844 6.628422714605066, -90.31876496268467 5.741039926302918 C-90.4425992051105 5.105177263822687, -90.56643344753634 4.4693146013424565, -90.63491483113748 4.117677170096139 C-90.69628631595243 3.641692053041749, -90.7576578007674 3.165706935987359, -90.84640592687991 2.477393995158454 C-90.87021106146447 2.106609808845005, -90.89401619604905 1.7358256225315558, -90.95236918763487 0.8269306768952934 C-90.95236918763487 0.32948819223203374, -90.95236918763487 -0.16795429243122595, -90.95236918763487 -0.8269306768952809 C-90.92888301723261 -1.192746738606039, -90.90539684683034 -1.5585628003167975, -90.84640592687991 -2.4773939951584185 C-90.76919038904073 -3.07626245870654, -90.69197485120155 -3.6751309222546618, -90.63491483113748 -4.117677170096128 C-90.51404245973859 -4.73833125084464, -90.39317008833972 -5.358985331593153, -90.31876496268467 -5.741039926302906 C-90.17317199595865 -6.296249008820139, -90.02757902923263 -6.8514580913373715, -89.8992554491449 -7.340811518003303 C-89.70630396414788 -7.921950648170137, -89.51335247915085 -8.503089778336971, -89.37811014509383 -8.910418140577093 C-89.15341942146591 -9.465408572037676, -88.92872869783798 -10.020399003498259, -88.75747054837109 -10.443409943732574 C-88.54527888024788 -10.884030482764791, -88.33308721212467 -11.32465102179701, -88.0398870002064 -11.933487535324831 C-87.81529041969705 -12.332281506889117, -87.5906938391877 -12.731075478453404, -87.22830820532036 -13.374527866909409 C-86.8972013854343 -13.883196856884755, -86.56609456554825 -14.391865846860103, -86.32606911506429 -14.760609394661605 C-86.03433106230983 -15.15151180746921, -85.74259300955536 -15.542414220276818, -85.33687722338968 -16.086036412270353 C-85.12103314370438 -16.33957915014477, -84.90518906401908 -16.593121888019187, -84.26479733196045 -17.345362455817092 C-83.96349354402116 -17.65648335436545, -83.66218975608189 -17.9676042529138, -83.11423484701089 -18.5334126844643 C-82.73718414420495 -18.87584015653774, -82.360133441399 -19.21826762861118, -81.88991767658653 -19.645305144986487 C-81.38049465250658 -20.051556450374257, -80.87107162842662 -20.457807755762023, -80.59687680255585 -20.676470832763204 C-80.29922791667292 -20.884097810542542, -80.00157903078997 -21.091724788321883, -79.24042560722665 -21.622672466799 C-78.74782045289875 -21.921292606221787, -78.25521529857086 -22.219912745644574, -77.82613803951841 -22.480021901620027 C-77.37071944885264 -22.717613488660835, -76.91530085818685 -22.95520507570164, -76.35982571041058 -23.244996104497716 C-76.05077166941727 -23.381805160683058, -75.74171762842396 -23.5186142168684, -74.84751401178646 -23.91445163234599 C-74.29706272663914 -24.117022793596103, -73.74661144149182 -24.319593954846216, -73.29541735680553 -24.485637548803172 C-72.69943996677844 -24.66252050981405, -72.10346257675135 -24.839403470824934, -71.70991364354681 -24.956206728419538 C-71.26663229939098 -25.057382802542, -70.82335095523514 -25.15855887666447, -70.09751804685754 -25.324225501499278 C-69.52005847227572 -25.417584687251782, -68.9425988976939 -25.510943873004287, -68.46485624610233 -25.588181599964017 C-68.11617971117471 -25.6218180059436, -67.76750317624708 -25.65545441192318, -66.81863719882529 -25.746990371586765 C-66.32677353137971 -25.762763482047195, -65.83490986393413 -25.778536592507624, -65.1656255722046 -25.799999237060547 C-65.1656255722046 -25.799999237060547, -65.16562557220459 -25.799999237060547, -65.16562557220459 -25.799999237060547" stroke="none" stroke-width="0" fill="#ECECFF" style=""></path><path d="M-65.16562557220459 -25.799999237060547 C-33.141696594129286 -25.799999237060547, -1.1177676160539818 -25.799999237060547, 65.16562557220459 -25.799999237060547 M-65.16562557220459 -25.799999237060547 C-19.051201833339483 -25.799999237060547, 27.063221905525623 -25.799999237060547, 65.16562557220459 -25.799999237060547 M65.16562557220459 -25.799999237060547 C65.16562557220459 -25.799999237060547, 65.16562557220459 -25.799999237060547, 65.16562557220459 -25.799999237060547 M65.16562557220459 -25.799999237060547 C65.16562557220459 -25.799999237060547, 65.16562557220459 -25.799999237060547, 65.16562557220459 -25.799999237060547 M65.16562557220459 -25.799999237060547 C65.6848849598187 -25.783347599176846, 66.20414434743282 -25.766695961293145, 66.81863719882529 -25.746990371586765 M65.16562557220459 -25.799999237060547 C65.7403994035385 -25.78156735901906, 66.31517323487242 -25.763135480977578, 66.81863719882529 -25.746990371586765 M66.81863719882529 -25.746990371586765 C67.226340610885 -25.707659713760457, 67.6340440229447 -25.668329055934148, 68.46485624610231 -25.58818159996402 M66.81863719882529 -25.746990371586765 C67.31002108785388 -25.699587158787768, 67.80140497688247 -25.652183945988767, 68.46485624610231 -25.58818159996402 M68.46485624610231 -25.58818159996402 C68.95856769200928 -25.50836216217923, 69.45227913791626 -25.428542724394433, 70.09751804685753 -25.32422550149928 M68.46485624610231 -25.58818159996402 C68.9795581172916 -25.50496859300276, 69.49425998848088 -25.421755586041506, 70.09751804685753 -25.32422550149928 M70.09751804685753 -25.32422550149928 C70.59259884754371 -25.21122653944681, 71.0876796482299 -25.09822757739434, 71.70991364354678 -24.956206728419545 M70.09751804685753 -25.32422550149928 C70.66061612213748 -25.19570204037498, 71.22371419741744 -25.067178579250676, 71.70991364354678 -24.956206728419545 M71.70991364354678 -24.956206728419545 C72.16084487010569 -24.822372707363176, 72.61177609666458 -24.688538686306803, 73.29541735680552 -24.48563754880318 M71.70991364354678 -24.956206728419545 C72.28163113975324 -24.786523976551848, 72.8533486359597 -24.616841224684148, 73.29541735680552 -24.48563754880318 M73.29541735680552 -24.48563754880318 C73.83829890742423 -24.285852119833446, 74.38118045804296 -24.086066690863717, 74.84751401178644 -23.914451632345997 M73.29541735680552 -24.48563754880318 C73.8062248918123 -24.297655654067587, 74.3170324268191 -24.109673759331997, 74.84751401178644 -23.914451632345997 M74.84751401178644 -23.914451632345997 C75.37404412919875 -23.68137236832856, 75.90057424661104 -23.448293104311126, 76.35982571041056 -23.24499610449772 M74.84751401178644 -23.914451632345997 C75.15933741504954 -23.776416661634034, 75.47116081831263 -23.63838169092207, 76.35982571041056 -23.24499610449772 M76.35982571041056 -23.24499610449772 C76.6913163078342 -23.07205767215167, 77.02280690525785 -22.899119239805614, 77.8261380395184 -22.480021901620034 M76.35982571041056 -23.24499610449772 C76.78270131918828 -23.024382170263145, 77.20557692796598 -22.803768236028567, 77.8261380395184 -22.480021901620034 M77.8261380395184 -22.480021901620034 C78.35216829049172 -22.16113927218312, 78.87819854146504 -21.842256642746207, 79.24042560722664 -21.62267246679901 M77.8261380395184 -22.480021901620034 C78.29752342934201 -22.19426530814093, 78.7689088191656 -21.908508714661828, 79.24042560722664 -21.62267246679901 M79.24042560722664 -21.62267246679901 C79.7211643055204 -21.28732996171212, 80.20190300381417 -20.95198745662523, 80.59687680255584 -20.67647083276321 M79.24042560722664 -21.62267246679901 C79.5261826450385 -21.423340727444245, 79.81193968285038 -21.224008988089484, 80.59687680255584 -20.67647083276321 M80.59687680255584 -20.67647083276321 C81.01018676387973 -20.346867137247397, 81.4234967252036 -20.017263441731583, 81.8899176765865 -19.64530514498651 M80.59687680255584 -20.67647083276321 C80.97380530617563 -20.375880381615158, 81.35073380979543 -20.075289930467108, 81.8899176765865 -19.64530514498651 M81.8899176765865 -19.64530514498651 C82.22571501663427 -19.34034288546588, 82.56151235668204 -19.03538062594525, 83.11423484701088 -18.533412684464313 M81.8899176765865 -19.64530514498651 C82.17801895158047 -19.383659189779017, 82.46612022657443 -19.122013234571526, 83.11423484701088 -18.533412684464313 M83.11423484701088 -18.533412684464313 C83.35501858480112 -18.28478370648337, 83.59580232259135 -18.03615472850243, 84.26479733196044 -17.345362455817106 M83.11423484701088 -18.533412684464313 C83.44269225801735 -18.194253440745182, 83.7711496690238 -17.85509419702605, 84.26479733196044 -17.345362455817106 M84.26479733196044 -17.345362455817106 C84.52433674226474 -17.040492696262866, 84.78387615256904 -16.735622936708626, 85.33687722338968 -16.086036412270357 M84.26479733196044 -17.345362455817106 C84.67376275794594 -16.86496839566256, 85.08272818393145 -16.384574335508013, 85.33687722338968 -16.086036412270357 M85.33687722338968 -16.086036412270357 C85.70025177420342 -15.599147618282533, 86.06362632501717 -15.112258824294708, 86.32606911506427 -14.76060939466161 M85.33687722338968 -16.086036412270357 C85.70322226950073 -15.59516742520183, 86.06956731561178 -15.1042984381333, 86.32606911506427 -14.76060939466161 M86.32606911506427 -14.76060939466161 C86.64041552298737 -14.277688898262149, 86.95476193091048 -13.794768401862687, 87.22830820532036 -13.374527866909407 M86.32606911506427 -14.76060939466161 C86.55582889260938 -14.407636677213361, 86.78558867015448 -14.054663959765112, 87.22830820532036 -13.374527866909407 M87.22830820532036 -13.374527866909407 C87.4800945961392 -12.9274556338738, 87.73188098695802 -12.480383400838193, 88.0398870002064 -11.93348753532484 M87.22830820532036 -13.374527866909407 C87.48667603938067 -12.915769614955165, 87.74504387344098 -12.457011363000923, 88.0398870002064 -11.93348753532484 M88.0398870002064 -11.93348753532484 C88.32103233930417 -11.349683223141763, 88.60217767840192 -10.765878910958687, 88.75747054837109 -10.443409943732584 M88.0398870002064 -11.93348753532484 C88.26238442436654 -11.47146687337409, 88.48488184852667 -11.009446211423343, 88.75747054837109 -10.443409943732584 M88.75747054837109 -10.443409943732584 C88.9143553908992 -10.055901349526042, 89.07124023342732 -9.668392755319502, 89.37811014509381 -8.910418140577123 M88.75747054837109 -10.443409943732584 C88.95210453550465 -9.96266023252055, 89.1467385226382 -9.481910521308517, 89.37811014509381 -8.910418140577123 M89.37811014509381 -8.910418140577123 C89.57861414508677 -8.306532038572385, 89.77911814507974 -7.702645936567646, 89.8992554491449 -7.340811518003323 M89.37811014509381 -8.910418140577123 C89.5071672260464 -8.521718775201318, 89.63622430699901 -8.133019409825513, 89.8992554491449 -7.340811518003323 M89.8992554491449 -7.340811518003323 C90.05538949544118 -6.745404730551917, 90.21152354173745 -6.149997943100511, 90.31876496268467 -5.741039926302914 M89.8992554491449 -7.340811518003323 C90.04965835826154 -6.767260040508413, 90.20006126737819 -6.193708563013502, 90.31876496268467 -5.741039926302914 M90.31876496268467 -5.741039926302914 C90.43098926725595 -5.164791840944568, 90.54321357182724 -4.5885437555862225, 90.63491483113748 -4.117677170096137 M90.31876496268467 -5.741039926302914 C90.44480475777736 -5.093852217022099, 90.57084455287004 -4.446664507741283, 90.63491483113748 -4.117677170096137 M90.63491483113748 -4.117677170096137 C90.71196004577952 -3.5201296996308997, 90.78900526042158 -2.9225822291656627, 90.84640592687991 -2.4773939951584394 M90.63491483113748 -4.117677170096137 C90.69189880619894 -3.675720712278074, 90.7488827812604 -3.233764254460011, 90.84640592687991 -2.4773939951584394 M90.84640592687991 -2.4773939951584394 C90.8878836869022 -1.8313444025660988, 90.92936144692447 -1.1852948099737584, 90.95236918763487 -0.8269306768952902 M90.84640592687991 -2.4773939951584394 C90.87899186735605 -1.9698416693448775, 90.91157780783219 -1.4622893435313158, 90.95236918763487 -0.8269306768952902 M90.95236918763487 -0.8269306768952902 C90.95236918763487 -0.2834778720495287, 90.95236918763487 0.25997493279623285, 90.95236918763487 0.826930676895284 M90.95236918763487 -0.8269306768952902 C90.95236918763487 -0.28924364992729257, 90.95236918763487 0.24844337704070507, 90.95236918763487 0.826930676895284 M90.95236918763487 0.826930676895284 C90.9256736727265 1.2427348698248308, 90.89897815781815 1.658539062754378, 90.84640592687991 2.4773939951584216 M90.95236918763487 0.826930676895284 C90.92995730469205 1.1760138442758978, 90.90754542174925 1.525097011656512, 90.84640592687991 2.4773939951584216 M90.84640592687991 2.4773939951584216 C90.77883121174679 3.001490141594038, 90.71125649661369 3.525586288029654, 90.63491483113748 4.117677170096119 M90.84640592687991 2.4773939951584216 C90.77411723703014 3.0380507986168825, 90.70182854718036 3.5987076020753435, 90.63491483113748 4.117677170096119 M90.63491483113748 4.117677170096119 C90.54574651464982 4.5755376295298404, 90.45657819816218 5.033398088963563, 90.31876496268467 5.741039926302909 M90.63491483113748 4.117677170096119 C90.524844894427 4.682863031815009, 90.41477495771655 5.248048893533899, 90.31876496268467 5.741039926302909 M90.31876496268467 5.741039926302909 C90.23127848111996 6.074663797390111, 90.14379199955525 6.408287668477313, 89.8992554491449 7.340811518003306 M90.31876496268467 5.741039926302909 C90.18634027590159 6.246032650229126, 90.05391558911849 6.751025374155343, 89.8992554491449 7.340811518003306 M89.8992554491449 7.340811518003306 C89.763047604337 7.751047844791795, 89.6268397595291 8.161284171580284, 89.37811014509383 8.910418140577105 M89.8992554491449 7.340811518003306 C89.7013802624112 7.936780053315666, 89.50350507567751 8.532748588628028, 89.37811014509383 8.910418140577105 M89.37811014509383 8.910418140577105 C89.19246859518606 9.368956357984496, 89.00682704527829 9.827494575391887, 88.75747054837109 10.443409943732577 M89.37811014509383 8.910418140577105 C89.13442412378957 9.512327324547327, 88.89073810248532 10.114236508517548, 88.75747054837109 10.443409943732577 M88.75747054837109 10.443409943732577 C88.5171527343926 10.942435026436405, 88.2768349204141 11.441460109140232, 88.0398870002064 11.933487535324835 M88.75747054837109 10.443409943732577 C88.50981571483233 10.957670504540369, 88.26216088129357 11.471931065348159, 88.0398870002064 11.933487535324835 M88.0398870002064 11.933487535324835 C87.80356635706333 12.35309876728538, 87.56724571392024 12.772709999245924, 87.22830820532037 13.374527866909402 M88.0398870002064 11.933487535324835 C87.7983615279896 12.362340468351887, 87.55683605577278 12.791193401378939, 87.22830820532037 13.374527866909402 M87.22830820532037 13.374527866909402 C86.88733598705386 13.898352758027528, 86.54636376878733 14.422177649145652, 86.32606911506429 14.760609394661596 M87.22830820532037 13.374527866909402 C86.90426756255249 13.87234131129699, 86.58022691978461 14.370154755684577, 86.32606911506429 14.760609394661596 M86.32606911506429 14.760609394661596 C85.97646168749255 15.229051497715858, 85.6268542599208 15.697493600770121, 85.33687722338968 16.086036412270353 M86.32606911506429 14.760609394661596 C86.02090757536693 15.169498057067857, 85.7157460356696 15.57838671947412, 85.33687722338968 16.086036412270353 M85.33687722338968 16.086036412270353 C85.0054046591578 16.475402947540328, 84.67393209492595 16.864769482810306, 84.26479733196045 17.345362455817092 M85.33687722338968 16.086036412270353 C85.04223353333686 16.43214165630731, 84.74758984328405 16.778246900344264, 84.26479733196045 17.345362455817092 M84.26479733196045 17.345362455817092 C83.90605747115404 17.715790815190033, 83.54731761034763 18.08621917456297, 83.11423484701088 18.533412684464306 M84.26479733196045 17.345362455817092 C83.9134624705043 17.708144545399136, 83.56212760904815 18.070926634981177, 83.11423484701088 18.533412684464306 M83.11423484701088 18.533412684464306 C82.72744682661768 18.884683330735182, 82.3406588062245 19.235953977006062, 81.88991767658653 19.64530514498649 M83.11423484701088 18.533412684464306 C82.62715682432876 18.975764057285936, 82.14007880164664 19.418115430107566, 81.88991767658653 19.64530514498649 M81.88991767658653 19.64530514498649 C81.3780186102546 20.053531028179954, 80.86611954392266 20.46175691137342, 80.59687680255584 20.676470832763208 M81.88991767658653 19.64530514498649 C81.4352636878095 20.00787960218542, 80.98060969903246 20.370454059384347, 80.59687680255584 20.676470832763208 M80.59687680255584 20.676470832763208 C80.29446454112404 20.887420535122228, 79.99205227969223 21.09837023748125, 79.24042560722665 21.622672466799003 M80.59687680255584 20.676470832763208 C80.09293843814966 21.027996420632768, 79.58900007374346 21.379522008502327, 79.24042560722665 21.622672466799003 M79.24042560722665 21.622672466799003 C78.86676385763604 21.849188415281017, 78.49310210804542 22.075704363763027, 77.82613803951841 22.48002190162003 M79.24042560722665 21.622672466799003 C78.70050149763289 21.949977634981007, 78.16057738803912 22.27728280316301, 77.82613803951841 22.48002190162003 M77.82613803951841 22.48002190162003 C77.33277863338299 22.7374071877891, 76.83941922724757 22.994792473958167, 76.35982571041058 23.244996104497716 M77.82613803951841 22.48002190162003 C77.5205505744225 22.639446686422453, 77.2149631093266 22.798871471224874, 76.35982571041058 23.244996104497716 M76.35982571041058 23.244996104497716 C75.77802528014068 23.50254189648163, 75.19622484987077 23.760087688465543, 74.84751401178644 23.914451632345994 M76.35982571041058 23.244996104497716 C75.92465891617275 23.437631535542497, 75.48949212193492 23.630266966587282, 74.84751401178644 23.914451632345994 M74.84751401178644 23.914451632345994 C74.30038097854369 24.115801646221648, 73.75324794530093 24.3171516600973, 73.29541735680553 24.485637548803172 M74.84751401178644 23.914451632345994 C74.25786109940157 24.1314493547954, 73.66820818701669 24.348447077244806, 73.29541735680553 24.485637548803172 M73.29541735680553 24.485637548803172 C72.88911584321167 24.606225705317666, 72.48281432961781 24.726813861832156, 71.70991364354681 24.95620672841954 M73.29541735680553 24.485637548803172 C72.8364434496063 24.6218585952567, 72.3774695424071 24.758079641710225, 71.70991364354681 24.95620672841954 M71.70991364354681 24.95620672841954 C71.38225454245476 25.030992780068345, 71.0545954413627 25.10577883171715, 70.09751804685754 25.324225501499278 M71.70991364354681 24.95620672841954 C71.21007619371174 25.07029136460021, 70.71023874387669 25.184376000780876, 70.09751804685754 25.324225501499278 M70.09751804685754 25.324225501499278 C69.60962075453112 25.403104952022602, 69.1217234622047 25.481984402545926, 68.46485624610233 25.588181599964017 M70.09751804685754 25.324225501499278 C69.4930178595518 25.421956403813905, 68.88851767224605 25.51968730612853, 68.46485624610233 25.588181599964017 M68.46485624610233 25.588181599964017 C68.12657344116475 25.620815335311747, 67.78829063622719 25.65344907065948, 66.81863719882529 25.746990371586765 M68.46485624610233 25.588181599964017 C67.83872003323025 25.648584207380818, 67.21258382035816 25.70898681479762, 66.81863719882529 25.746990371586765 M66.81863719882529 25.746990371586765 C66.21094983053965 25.766477722695978, 65.60326246225401 25.785965073805194, 65.16562557220459 25.799999237060547 M66.81863719882529 25.746990371586765 C66.25918188421836 25.7649310146125, 65.69972656961143 25.782871657638236, 65.16562557220459 25.799999237060547 M65.16562557220459 25.799999237060547 C65.16562557220459 25.799999237060547, 65.16562557220459 25.799999237060547, 65.16562557220459 25.799999237060547 M65.16562557220459 25.799999237060547 C65.16562557220459 25.799999237060547, 65.16562557220459 25.799999237060547, 65.16562557220459 25.799999237060547 M65.16562557220459 25.799999237060547 C33.40684118153723 25.799999237060547, 1.6480567908698731 25.799999237060547, -65.16562557220459 25.799999237060547 M65.16562557220459 25.799999237060547 C33.0644189539981 25.799999237060547, 0.96321233579161 25.799999237060547, -65.16562557220459 25.799999237060547 M-65.16562557220459 25.799999237060547 C-65.751260153166 25.781219075917676, -66.33689473412741 25.7624389147748, -66.81863719882527 25.746990371586765 M-65.16562557220459 25.799999237060547 C-65.56430295788451 25.787214429280247, -65.96298034356442 25.774429621499948, -66.81863719882527 25.746990371586765 M-66.81863719882527 25.746990371586765 C-67.22436084004535 25.70785069987233, -67.63008448126543 25.6687110281579, -68.46485624610231 25.588181599964017 M-66.81863719882527 25.746990371586765 C-67.44766156972368 25.68630914703868, -68.07668594062208 25.6256279224906, -68.46485624610231 25.588181599964017 M-68.46485624610231 25.588181599964017 C-68.95661231087536 25.508678293036752, -69.4483683756484 25.429174986109484, -70.09751804685753 25.324225501499278 M-68.46485624610231 25.588181599964017 C-69.04049604350098 25.4951166216739, -69.61613584089964 25.402051643383786, -70.09751804685753 25.324225501499278 M-70.09751804685753 25.324225501499278 C-70.54629005623893 25.22179621886902, -70.99506206562033 25.11936693623876, -71.70991364354678 24.956206728419545 M-70.09751804685753 25.324225501499278 C-70.63629395442088 25.201253416439314, -71.17506986198421 25.07828133137935, -71.70991364354678 24.956206728419545 M-71.70991364354678 24.956206728419545 C-72.19022288384211 24.813653467094543, -72.67053212413744 24.671100205769545, -73.2954173568055 24.485637548803183 M-71.70991364354678 24.956206728419545 C-72.32612758597888 24.77331766487869, -72.94234152841096 24.590428601337837, -73.2954173568055 24.485637548803183 M-73.2954173568055 24.485637548803183 C-73.73551112727776 24.323678973087173, -74.17560489775003 24.16172039737116, -74.84751401178644 23.914451632345997 M-73.2954173568055 24.485637548803183 C-73.9018498525004 24.26246478458692, -74.50828234819531 24.03929202037066, -74.84751401178644 23.914451632345997 M-74.84751401178644 23.914451632345997 C-75.22713959066526 23.74640264976903, -75.60676516954409 23.578353667192065, -76.35982571041056 23.244996104497723 M-74.84751401178644 23.914451632345997 C-75.25133607827576 23.735691582467165, -75.65515814476508 23.556931532588337, -76.35982571041056 23.244996104497723 M-76.35982571041056 23.244996104497723 C-76.77899321971992 23.026316683380635, -77.19816072902927 22.807637262263547, -77.8261380395184 22.480021901620038 M-76.35982571041056 23.244996104497723 C-76.75702051478892 23.037779829468946, -77.15421531916729 22.830563554440168, -77.8261380395184 22.480021901620038 M-77.8261380395184 22.480021901620038 C-78.34284055630684 22.166793799461846, -78.85954307309528 21.853565697303655, -79.24042560722663 21.622672466799017 M-77.8261380395184 22.480021901620038 C-78.35196656955729 22.161261556599015, -78.8777950995962 21.842501211577993, -79.24042560722663 21.622672466799017 M-79.24042560722663 21.622672466799017 C-79.74128769894672 21.273292753585576, -80.24214979066683 20.923913040372135, -80.59687680255584 20.67647083276321 M-79.24042560722663 21.622672466799017 C-79.55684953174556 21.401948834825536, -79.87327345626449 21.18122520285205, -80.59687680255584 20.67647083276321 M-80.59687680255584 20.67647083276321 C-81.02916789807931 20.331730187832427, -81.46145899360278 19.986989542901643, -81.8899176765865 19.645305144986512 M-80.59687680255584 20.67647083276321 C-80.89291265471026 20.44039011851494, -81.18894850686466 20.20430940426667, -81.8899176765865 19.645305144986512 M-81.8899176765865 19.645305144986512 C-82.24336926463018 19.32430976454181, -82.59682085267384 19.003314384097106, -83.11423484701086 18.533412684464324 M-81.8899176765865 19.645305144986512 C-82.2766596214179 19.29407634332177, -82.66340156624929 18.942847541657027, -83.11423484701086 18.533412684464324 M-83.11423484701086 18.533412684464324 C-83.4523595873194 18.184271129538295, -83.79048432762795 17.835129574612267, -84.26479733196044 17.3453624558171 M-83.11423484701086 18.533412684464324 C-83.3679539256935 18.271426905000748, -83.62167300437612 18.00944112553717, -84.26479733196044 17.3453624558171 M-84.26479733196044 17.3453624558171 C-84.4904710781649 17.08027323232541, -84.71614482436935 16.815184008833725, -85.33687722338968 16.08603641227036 M-84.26479733196044 17.3453624558171 C-84.54385544602623 17.017564916178905, -84.82291356009202 16.68976737654071, -85.33687722338968 16.08603641227036 M-85.33687722338968 16.08603641227036 C-85.71320704319233 15.581788738086695, -86.08953686299496 15.077541063903032, -86.32606911506427 14.760609394661614 M-85.33687722338968 16.08603641227036 C-85.5499265852999 15.800569676506807, -85.76297594721014 15.515102940743255, -86.32606911506427 14.760609394661614 M-86.32606911506427 14.760609394661614 C-86.5494351423433 14.417459194584419, -86.77280116962231 14.074308994507224, -87.22830820532036 13.374527866909418 M-86.32606911506427 14.760609394661614 C-86.61715946009954 14.313416455985152, -86.9082498051348 13.866223517308688, -87.22830820532036 13.374527866909418 M-87.22830820532036 13.374527866909418 C-87.44714640974492 12.985958475182494, -87.66598461416947 12.59738908345557, -88.03988700020639 11.933487535324842 M-87.22830820532036 13.374527866909418 C-87.48261149635022 12.922986622685338, -87.73691478738009 12.471445378461256, -88.03988700020639 11.933487535324842 M-88.03988700020639 11.933487535324842 C-88.31186365247812 11.368722197514487, -88.58384030474986 10.803956859704131, -88.75747054837109 10.443409943732586 M-88.03988700020639 11.933487535324842 C-88.30766125847349 11.37744855858195, -88.57543551674058 10.821409581839058, -88.75747054837109 10.443409943732586 M-88.75747054837109 10.443409943732586 C-88.89199378166981 10.111134956654952, -89.02651701496853 9.778859969577319, -89.37811014509381 8.910418140577127 M-88.75747054837109 10.443409943732586 C-88.9101717438511 10.066235038620205, -89.06287293933109 9.689060133507825, -89.37811014509381 8.910418140577127 M-89.37811014509381 8.910418140577127 C-89.54691458152793 8.402006073372046, -89.71571901796206 7.893594006166964, -89.8992554491449 7.340811518003316 M-89.37811014509381 8.910418140577127 C-89.50711628876759 8.521872190169363, -89.63612243244137 8.133326239761601, -89.8992554491449 7.340811518003316 M-89.8992554491449 7.340811518003316 C-89.99984157736438 6.957233016798719, -90.10042770558385 6.573654515594122, -90.31876496268467 5.741039926302918 M-89.8992554491449 7.340811518003316 C-90.03659460445215 6.817077795650338, -90.17393375975941 6.293344073297359, -90.31876496268467 5.741039926302918 M-90.31876496268467 5.741039926302918 C-90.39272679718378 5.36126153798923, -90.4666886316829 4.981483149675542, -90.63491483113748 4.117677170096139 M-90.31876496268467 5.741039926302918 C-90.43240508625732 5.157521909605986, -90.54604520982997 4.574003892909054, -90.63491483113748 4.117677170096139 M-90.63491483113748 4.117677170096139 C-90.69769205633715 3.630789408212767, -90.76046928153681 3.143901646329395, -90.84640592687991 2.477393995158454 M-90.63491483113748 4.117677170096139 C-90.70652728482784 3.5622651207521985, -90.77813973851819 3.006853071408257, -90.84640592687991 2.477393995158454 M-90.84640592687991 2.477393995158454 C-90.87190772116332 2.0801829645163754, -90.89740951544674 1.6829719338742972, -90.95236918763487 0.8269306768952934 M-90.84640592687991 2.477393995158454 C-90.88371114691367 1.896335080901057, -90.92101636694743 1.31527616664366, -90.95236918763487 0.8269306768952934 M-90.95236918763487 0.8269306768952934 C-90.95236918763487 0.22773757970692565, -90.95236918763487 -0.3714555174814421, -90.95236918763487 -0.8269306768952809 M-90.95236918763487 0.8269306768952934 C-90.95236918763487 0.243863178198798, -90.95236918763487 -0.33920432049769744, -90.95236918763487 -0.8269306768952809 M-90.95236918763487 -0.8269306768952809 C-90.91066124697747 -1.476565518678177, -90.86895330632005 -2.1262003604610733, -90.84640592687991 -2.4773939951584185 M-90.95236918763487 -0.8269306768952809 C-90.91415746890512 -1.4221090400555163, -90.87594575017535 -2.017287403215752, -90.84640592687991 -2.4773939951584185 M-90.84640592687991 -2.4773939951584185 C-90.78633522907484 -2.9432904650335647, -90.72626453126976 -3.4091869349087114, -90.63491483113748 -4.117677170096128 M-90.84640592687991 -2.4773939951584185 C-90.7947636705585 -2.8779211372703175, -90.7431214142371 -3.278448279382217, -90.63491483113748 -4.117677170096128 M-90.63491483113748 -4.117677170096128 C-90.56160291521792 -4.494118363864132, -90.48829099929836 -4.870559557632137, -90.31876496268467 -5.741039926302906 M-90.63491483113748 -4.117677170096128 C-90.51219106737402 -4.747837759344801, -90.38946730361057 -5.377998348593474, -90.31876496268467 -5.741039926302906 M-90.31876496268467 -5.741039926302906 C-90.16016370583868 -6.345855256876159, -90.0015624489927 -6.950670587449411, -89.8992554491449 -7.340811518003303 M-90.31876496268467 -5.741039926302906 C-90.18451099747458 -6.25300848168555, -90.0502570322645 -6.764977037068192, -89.8992554491449 -7.340811518003303 M-89.8992554491449 -7.340811518003303 C-89.73889307203795 -7.8237974475744565, -89.57853069493099 -8.30678337714561, -89.37811014509383 -8.910418140577093 M-89.8992554491449 -7.340811518003303 C-89.76187441028706 -7.754581318347105, -89.62449337142924 -8.168351118690907, -89.37811014509383 -8.910418140577093 M-89.37811014509383 -8.910418140577093 C-89.1312658554942 -9.52012830829784, -88.88442156589458 -10.129838476018588, -88.75747054837109 -10.443409943732574 M-89.37811014509383 -8.910418140577093 C-89.170070747204 -9.424279475533119, -88.96203134931416 -9.938140810489143, -88.75747054837109 -10.443409943732574 M-88.75747054837109 -10.443409943732574 C-88.56533539065289 -10.842382709768204, -88.3732002329347 -11.241355475803834, -88.0398870002064 -11.933487535324831 M-88.75747054837109 -10.443409943732574 C-88.56865050766145 -10.835498798367803, -88.3798304669518 -11.227587653003033, -88.0398870002064 -11.933487535324831 M-88.0398870002064 -11.933487535324831 C-87.87214984657162 -12.23132183683201, -87.70441269293684 -12.529156138339188, -87.22830820532036 -13.374527866909409 M-88.0398870002064 -11.933487535324831 C-87.8545096940686 -12.262643713860275, -87.66913238793077 -12.591799892395718, -87.22830820532036 -13.374527866909409 M-87.22830820532036 -13.374527866909409 C-86.9882785825974 -13.743277824390397, -86.74824895987446 -14.112027781871383, -86.32606911506429 -14.760609394661605 M-87.22830820532036 -13.374527866909409 C-86.93287137841132 -13.828398168937802, -86.63743455150227 -14.282268470966198, -86.32606911506429 -14.760609394661605 M-86.32606911506429 -14.760609394661605 C-86.03770760164129 -15.146987552374108, -85.7493460882183 -15.533365710086612, -85.33687722338968 -16.086036412270353 M-86.32606911506429 -14.760609394661605 C-86.04913345660808 -15.131677947635415, -85.77219779815188 -15.502746500609225, -85.33687722338968 -16.086036412270353 M-85.33687722338968 -16.086036412270353 C-85.04599981905058 -16.427717562800254, -84.75512241471147 -16.769398713330155, -84.26479733196045 -17.345362455817092 M-85.33687722338968 -16.086036412270353 C-84.95602893359619 -16.533402484343384, -84.5751806438027 -16.980768556416418, -84.26479733196045 -17.345362455817092 M-84.26479733196045 -17.345362455817092 C-83.92768275814556 -17.693460930902212, -83.59056818433066 -18.041559405987332, -83.11423484701089 -18.5334126844643 M-84.26479733196045 -17.345362455817092 C-83.82072925243403 -17.803899206595485, -83.37666117290762 -18.26243595737388, -83.11423484701089 -18.5334126844643 M-83.11423484701089 -18.5334126844643 C-82.70761295414442 -18.902695928939888, -82.30099106127797 -19.27197917341548, -81.88991767658653 -19.645305144986487 M-83.11423484701089 -18.5334126844643 C-82.84065501415337 -18.781870650139787, -82.56707518129583 -19.030328615815275, -81.88991767658653 -19.645305144986487 M-81.88991767658653 -19.645305144986487 C-81.37952128675151 -20.05233268366157, -80.86912489691649 -20.459360222336652, -80.59687680255585 -20.676470832763204 M-81.88991767658653 -19.645305144986487 C-81.47129098118063 -19.979148794448474, -81.05266428577474 -20.31299244391046, -80.59687680255585 -20.676470832763204 M-80.59687680255585 -20.676470832763204 C-80.25412851183283 -20.91555720303721, -79.91138022110982 -21.154643573311215, -79.24042560722665 -21.622672466799 M-80.59687680255585 -20.676470832763204 C-80.31224044465014 -20.87502083432888, -80.02760408674445 -21.073570835894557, -79.24042560722665 -21.622672466799 M-79.24042560722665 -21.622672466799 C-78.88396427598757 -21.838761420595443, -78.52750294474846 -22.054850374391883, -77.82613803951841 -22.480021901620027 M-79.24042560722665 -21.622672466799 C-78.92449400626907 -21.81419205991966, -78.60856240531147 -22.00571165304032, -77.82613803951841 -22.480021901620027 M-77.82613803951841 -22.480021901620027 C-77.46736044418878 -22.667195943295475, -77.10858284885916 -22.854369984970926, -76.35982571041058 -23.244996104497716 M-77.82613803951841 -22.480021901620027 C-77.4356283535533 -22.683750554654637, -77.04511866758818 -22.887479207689246, -76.35982571041058 -23.244996104497716 M-76.35982571041058 -23.244996104497716 C-75.96306174538411 -23.420631742230086, -75.56629778035764 -23.596267379962455, -74.84751401178646 -23.91445163234599 M-76.35982571041058 -23.244996104497716 C-75.86505018367572 -23.464018553188712, -75.37027465694085 -23.683041001879708, -74.84751401178646 -23.91445163234599 M-74.84751401178646 -23.91445163234599 C-74.40207185234462 -24.07837846464277, -73.95662969290278 -24.242305296939552, -73.29541735680553 -24.485637548803172 M-74.84751401178646 -23.91445163234599 C-74.45400650443679 -24.059266032594188, -74.06049899708714 -24.20408043284239, -73.29541735680553 -24.485637548803172 M-73.29541735680553 -24.485637548803172 C-72.68607388233188 -24.66648749351778, -72.07673040785825 -24.847337438232394, -71.70991364354681 -24.956206728419538 M-73.29541735680553 -24.485637548803172 C-72.66328186850996 -24.67325204358241, -72.03114638021438 -24.860866538361645, -71.70991364354681 -24.956206728419538 M-71.70991364354681 -24.956206728419538 C-71.14970831690133 -25.084069938544975, -70.58950299025584 -25.21193314867041, -70.09751804685754 -25.324225501499278 M-71.70991364354681 -24.956206728419538 C-71.24415997032334 -25.06251196500604, -70.77840629709985 -25.168817201592542, -70.09751804685754 -25.324225501499278 M-70.09751804685754 -25.324225501499278 C-69.44830889663214 -25.429184602215567, -68.79909974640674 -25.534143702931857, -68.46485624610233 -25.588181599964017 M-70.09751804685754 -25.324225501499278 C-69.72780194305713 -25.38399833397052, -69.35808583925672 -25.443771166441767, -68.46485624610233 -25.588181599964017 M-68.46485624610233 -25.588181599964017 C-67.95868816033818 -25.6370110264415, -67.45252007457402 -25.685840452918978, -66.81863719882529 -25.746990371586765 M-68.46485624610233 -25.588181599964017 C-67.85181689073362 -25.647320769288743, -67.23877753536492 -25.70645993861347, -66.81863719882529 -25.746990371586765 M-66.81863719882529 -25.746990371586765 C-66.29701306181941 -25.763717842380753, -65.77538892481354 -25.780445313174745, -65.1656255722046 -25.799999237060547 M-66.81863719882529 -25.746990371586765 C-66.30374955620324 -25.763501816117657, -65.78886191358121 -25.780013260648545, -65.1656255722046 -25.799999237060547 M-65.1656255722046 -25.799999237060547 C-65.1656255722046 -25.799999237060547, -65.16562557220459 -25.799999237060547, -65.16562557220459 -25.799999237060547 M-65.1656255722046 -25.799999237060547 C-65.1656255722046 -25.799999237060547, -65.16562557220459 -25.799999237060547, -65.16562557220459 -25.799999237060547" stroke="#9370DB" stroke-width="1.3" fill="none" stroke-dasharray="0 0" style=""></path></g><g class="label" style="" transform="translate(0, -18.299999237060547)"><rect></rect><g><rect class="background" style="stroke: none"></rect><text y="-10.1" style=""><tspan class="text-outer-tspan row" x="0" y="-0.1em" dy="1.1em"><tspan font-style="normal" class="text-inner-tspan" font-weight="normal">What</tspan><tspan font-style="normal" class="text-inner-tspan" font-weight="normal"> is</tspan><tspan font-style="normal" class="text-inner-tspan" font-weight="normal"> the</tspan><tspan font-style="normal" class="text-inner-tspan" font-weight="normal"> dominant</tspan></tspan><tspan class="text-outer-tspan row" x="0" y="1em" dy="1.1em"><tspan font-style="normal" class="text-inner-tspan" font-weight="normal">query?</tspan></tspan></text></g></g></g><g class="node default" id="gbb4601e8-7838-420b-b6b8-4387bc280f61-light-flowchart-Q1-1" data-look="classic" transform="translate(271.25703048706055, 249.41407012939453)"><polygon points="139.8140640258789,0 279.6281280517578,-139.8140640258789 139.8140640258789,-279.6281280517578 0,-139.8140640258789" class="label-container" transform="translate(-139.3140640258789, 139.8140640258789)"></polygon><g class="label" style="" transform="translate(0, -35.900001525878906)"><rect></rect><g><rect class="background" style="stroke: none"></rect><text y="-10.1" style=""><tspan class="text-outer-tspan row" x="0" y="-0.1em" dy="1.1em"><tspan font-style="normal" class="text-inner-tspan" font-weight="normal">Range</tspan><tspan font-style="normal" class="text-inner-tspan" font-weight="normal"> /</tspan><tspan font-style="normal" class="text-inner-tspan" font-weight="normal"> window</tspan><tspan font-style="normal" class="text-inner-tspan" font-weight="normal"> query</tspan></tspan><tspan class="text-outer-tspan row" x="0" y="1em" dy="1.1em"><tspan font-style="normal" class="text-inner-tspan" font-weight="normal">over</tspan><tspan font-style="normal" class="text-inner-tspan" font-weight="normal"> heterogeneous</tspan></tspan><tspan class="text-outer-tspan row" x="0" y="2.1em" dy="1.1em"><tspan font-style="normal" class="text-inner-tspan" font-weight="normal">geometries</tspan></tspan><tspan class="text-outer-tspan row" x="0" y="3.2em" dy="1.1em"><tspan font-style="normal" class="text-inner-tspan" font-weight="normal">(polygons,</tspan><tspan font-style="normal" class="text-inner-tspan" font-weight="normal"> lines,</tspan><tspan font-style="normal" class="text-inner-tspan" font-weight="normal"> points)?</tspan></tspan></text></g></g></g><g class="node default pick" id="gbb4601e8-7838-420b-b6b8-4387bc280f61-light-flowchart-Rtree-3" data-look="classic" transform="translate(128.5859375, 576.9843902587891)"><rect class="basic label-container" style="fill:#0d47a1 !important;stroke:#0d47a1 !important" x="-120.5859375" y="-50.900001525878906" width="241.171875" height="101.80000305175781"></rect><g class="label" style="color:#ffffff !important" transform="translate(0, -35.900001525878906)"><rect></rect><g><rect class="background" style="stroke: none"></rect><text y="-10.1" style="fill:#ffffff !important"><tspan class="text-outer-tspan row" x="0" y="-0.1em" dy="1.1em"><tspan font-style="normal" class="text-inner-tspan" font-weight="normal">R-tree</tspan></tspan><tspan class="text-outer-tspan row" x="0" y="1em" dy="1.1em"><tspan font-style="normal" class="text-inner-tspan" font-weight="normal">(PostGIS</tspan><tspan font-style="normal" class="text-inner-tspan" font-weight="normal"> GIST)</tspan></tspan><tspan class="text-outer-tspan row" x="0" y="2.1em" dy="1.1em"><tspan font-style="normal" class="text-inner-tspan" font-weight="normal">bounding-box</tspan><tspan font-style="normal" class="text-inner-tspan" font-weight="normal"> index;</tspan></tspan><tspan class="text-outer-tspan row" x="0" y="3.2em" dy="1.1em"><tspan font-style="normal" class="text-inner-tspan" font-weight="normal">handles</tspan><tspan font-style="normal" class="text-inner-tspan" font-weight="normal"> arbitrary</tspan><tspan font-style="normal" class="text-inner-tspan" font-weight="normal"> shapes.</tspan></tspan></text></g></g></g><g class="node default" id="gbb4601e8-7838-420b-b6b8-4387bc280f61-light-flowchart-Q2-5" data-look="classic" transform="translate(413.9281234741211, 576.9843902587891)"><polygon points="114.7562484741211,0 229.5124969482422,-114.7562484741211 114.7562484741211,-229.5124969482422 0,-114.7562484741211" class="label-container" transform="translate(-114.2562484741211, 114.7562484741211)"></polygon><g class="label" style="" transform="translate(0, -27.099998474121094)"><rect></rect><g><rect class="background" style="stroke: none"></rect><text y="-10.1" style=""><tspan class="text-outer-tspan row" x="0" y="-0.1em" dy="1.1em"><tspan font-style="normal" class="text-inner-tspan" font-weight="normal">Tile-aligned</tspan><tspan font-style="normal" class="text-inner-tspan" font-weight="normal"> lookup</tspan></tspan><tspan class="text-outer-tspan row" x="0" y="1em" dy="1.1em"><tspan font-style="normal" class="text-inner-tspan" font-weight="normal">or</tspan><tspan font-style="normal" class="text-inner-tspan" font-weight="normal"> 4-way</tspan><tspan font-style="normal" class="text-inner-tspan" font-weight="normal"> subdivision</tspan></tspan><tspan class="text-outer-tspan row" x="0" y="2.1em" dy="1.1em"><tspan font-style="normal" class="text-inner-tspan" font-weight="normal">tied</tspan><tspan font-style="normal" class="text-inner-tspan" font-weight="normal"> to</tspan><tspan font-style="normal" class="text-inner-tspan" font-weight="normal"> map</tspan><tspan font-style="normal" class="text-inner-tspan" font-weight="normal"> tiles?</tspan></tspan></text></g></g></g><g class="node default pick" id="gbb4601e8-7838-420b-b6b8-4387bc280f61-light-flowchart-Quad-7" data-look="classic" transform="translate(265.5382766723633, 898.0437698364258)"><rect class="basic label-container" style="fill:#0d47a1 !important;stroke:#0d47a1 !important" x="-113.4765625" y="-50.900001525878906" width="226.953125" height="101.80000305175781"></rect><g class="label" style="color:#ffffff !important" transform="translate(0, -35.900001525878906)"><rect></rect><g><rect class="background" style="stroke: none"></rect><text y="-10.1" style="fill:#ffffff !important"><tspan class="text-outer-tspan row" x="0" y="-0.1em" dy="1.1em"><tspan font-style="normal" class="text-inner-tspan" font-weight="normal">Quadtree</tspan></tspan><tspan class="text-outer-tspan row" x="0" y="1em" dy="1.1em"><tspan font-style="normal" class="text-inner-tspan" font-weight="normal">same</tspan><tspan font-style="normal" class="text-inner-tspan" font-weight="normal"> scheme</tspan><tspan font-style="normal" class="text-inner-tspan" font-weight="normal"> as</tspan><tspan font-style="normal" class="text-inner-tspan" font-weight="normal"> the</tspan></tspan><tspan class="text-outer-tspan row" x="0" y="2.1em" dy="1.1em"><tspan font-style="normal" class="text-inner-tspan" font-weight="normal">rendering</tspan><tspan font-style="normal" class="text-inner-tspan" font-weight="normal"> tile</tspan><tspan font-style="normal" class="text-inner-tspan" font-weight="normal"> pyramid;</tspan></tspan><tspan class="text-outer-tspan row" x="0" y="3.2em" dy="1.1em"><tspan font-style="normal" class="text-inner-tspan" font-weight="normal">cheap</tspan><tspan font-style="normal" class="text-inner-tspan" font-weight="normal"> (x,</tspan><tspan font-style="normal" class="text-inner-tspan" font-weight="normal"> y,</tspan><tspan font-style="normal" class="text-inner-tspan" font-weight="normal"> z)</tspan><tspan font-style="normal" class="text-inner-tspan" font-weight="normal"> keys.</tspan></tspan></text></g></g></g><g class="node default" id="gbb4601e8-7838-420b-b6b8-4387bc280f61-light-flowchart-Q3-9" data-look="classic" transform="translate(562.3179702758789, 898.0437698364258)"><polygon points="133.3031234741211,0 266.6062469482422,-133.3031234741211 133.3031234741211,-266.6062469482422 0,-133.3031234741211" class="label-container" transform="translate(-132.8031234741211, 133.3031234741211)"></polygon><g class="label" style="" transform="translate(0, -27.099998474121094)"><rect></rect><g><rect class="background" style="stroke: none"></rect><text y="-10.1" style=""><tspan class="text-outer-tspan row" x="0" y="-0.1em" dy="1.1em"><tspan font-style="normal" class="text-inner-tspan" font-weight="normal">Need</tspan><tspan font-style="normal" class="text-inner-tspan" font-weight="normal"> a</tspan><tspan font-style="normal" class="text-inner-tspan" font-weight="normal"> strict</tspan><tspan font-style="normal" class="text-inner-tspan" font-weight="normal"> hierarchy</tspan></tspan><tspan class="text-outer-tspan row" x="0" y="1em" dy="1.1em"><tspan font-style="normal" class="text-inner-tspan" font-weight="normal">(child</tspan><tspan font-style="normal" class="text-inner-tspan" font-weight="normal"> fully</tspan><tspan font-style="normal" class="text-inner-tspan" font-weight="normal"> inside</tspan><tspan font-style="normal" class="text-inner-tspan" font-weight="normal"> parent)</tspan></tspan><tspan class="text-outer-tspan row" x="0" y="2.1em" dy="1.1em"><tspan font-style="normal" class="text-inner-tspan" font-weight="normal">and</tspan><tspan font-style="normal" class="text-inner-tspan" font-weight="normal"> locality</tspan><tspan font-style="normal" class="text-inner-tspan" font-weight="normal"> on</tspan><tspan font-style="normal" class="text-inner-tspan" font-weight="normal"> a</tspan><tspan font-style="normal" class="text-inner-tspan" font-weight="normal"> B-tree?</tspan></tspan></text></g></g></g><g class="node default" id="gbb4601e8-7838-420b-b6b8-4387bc280f61-light-flowchart-Q3a-11" data-look="classic" transform="translate(288.5953140258789, 1254.9578323364258)"><polygon points="127.3296890258789,0 254.6593780517578,-127.3296890258789 127.3296890258789,-254.6593780517578 0,-127.3296890258789" class="label-container" transform="translate(-126.8296890258789, 127.3296890258789)"></polygon><g class="label" style="" transform="translate(0, -35.900001525878906)"><rect></rect><g><rect class="background" style="stroke: none"></rect><text y="-10.1" style=""><tspan class="text-outer-tspan row" x="0" y="-0.1em" dy="1.1em"><tspan font-style="normal" class="text-inner-tspan" font-weight="normal">Plain</tspan><tspan font-style="normal" class="text-inner-tspan" font-weight="normal"> key/value</tspan><tspan font-style="normal" class="text-inner-tspan" font-weight="normal"> store</tspan></tspan><tspan class="text-outer-tspan row" x="0" y="1em" dy="1.1em"><tspan font-style="normal" class="text-inner-tspan" font-weight="normal">only</tspan><tspan font-style="normal" class="text-inner-tspan" font-weight="normal"> (Redis,</tspan><tspan font-style="normal" class="text-inner-tspan" font-weight="normal"> ES,</tspan><tspan font-style="normal" class="text-inner-tspan" font-weight="normal"> etc.)</tspan></tspan><tspan class="text-outer-tspan row" x="0" y="2.1em" dy="1.1em"><tspan font-style="normal" class="text-inner-tspan" font-weight="normal">and</tspan><tspan font-style="normal" class="text-inner-tspan" font-weight="normal"> accept</tspan><tspan font-style="normal" class="text-inner-tspan" font-weight="normal"> latitude</tspan></tspan><tspan class="text-outer-tspan row" x="0" y="3.2em" dy="1.1em"><tspan font-style="normal" class="text-inner-tspan" font-weight="normal">area</tspan><tspan font-style="normal" class="text-inner-tspan" font-weight="normal"> distortion?</tspan></tspan></text></g></g></g><g class="node default pick" id="gbb4601e8-7838-420b-b6b8-4387bc280f61-light-flowchart-Geohash-13" data-look="classic" transform="translate(266.4898452758789, 1547.0687637329102)"><rect class="basic label-container" style="fill:#0d47a1 !important;stroke:#0d47a1 !important" x="-106.71875" y="-59.70000076293945" width="213.4375" height="119.4000015258789"></rect><g class="label" style="color:#ffffff !important" transform="translate(0, -44.70000076293945)"><rect></rect><g><rect class="background" style="stroke: none"></rect><text y="-10.1" style="fill:#ffffff !important"><tspan class="text-outer-tspan row" x="0" y="-0.1em" dy="1.1em"><tspan font-style="normal" class="text-inner-tspan" font-weight="normal">Geohash</tspan></tspan><tspan class="text-outer-tspan row" x="0" y="1em" dy="1.1em"><tspan font-style="normal" class="text-inner-tspan" font-weight="normal">base-32</tspan><tspan font-style="normal" class="text-inner-tspan" font-weight="normal"> prefix</tspan><tspan font-style="normal" class="text-inner-tspan" font-weight="normal"> string,</tspan></tspan><tspan class="text-outer-tspan row" x="0" y="2.1em" dy="1.1em"><tspan font-style="normal" class="text-inner-tspan" font-weight="normal">Z-order</tspan><tspan font-style="normal" class="text-inner-tspan" font-weight="normal"> curve;</tspan></tspan><tspan class="text-outer-tspan row" x="0" y="3.2em" dy="1.1em"><tspan font-style="normal" class="text-inner-tspan" font-weight="normal">supported</tspan><tspan font-style="normal" class="text-inner-tspan" font-weight="normal"> almost</tspan></tspan><tspan class="text-outer-tspan row" x="0" y="4.300000000000001em" dy="1.1em"><tspan font-style="normal" class="text-inner-tspan" font-weight="normal">everywhere.</tspan></tspan></text></g></g></g><g class="node default pick" id="gbb4601e8-7838-420b-b6b8-4387bc280f61-light-flowchart-S2-15" data-look="classic" transform="translate(552.1304702758789, 1547.0687637329102)"><rect class="basic label-container" style="fill:#0d47a1 !important;stroke:#0d47a1 !important" x="-128.921875" y="-68.5" width="257.84375" height="137"></rect><g class="label" style="color:#ffffff !important" transform="translate(0, -53.5)"><rect></rect><g><rect class="background" style="stroke: none"></rect><text y="-10.1" style="fill:#ffffff !important"><tspan class="text-outer-tspan row" x="0" y="-0.1em" dy="1.1em"><tspan font-style="normal" class="text-inner-tspan" font-weight="normal">S2</tspan></tspan><tspan class="text-outer-tspan row" x="0" y="1em" dy="1.1em"><tspan font-style="normal" class="text-inner-tspan" font-weight="normal">quadrilateral</tspan><tspan font-style="normal" class="text-inner-tspan" font-weight="normal"> cells</tspan><tspan font-style="normal" class="text-inner-tspan" font-weight="normal"> on</tspan><tspan font-style="normal" class="text-inner-tspan" font-weight="normal"> cube,</tspan></tspan><tspan class="text-outer-tspan row" x="0" y="2.1em" dy="1.1em"><tspan font-style="normal" class="text-inner-tspan" font-weight="normal">Hilbert</tspan><tspan font-style="normal" class="text-inner-tspan" font-weight="normal"> curve,</tspan><tspan font-style="normal" class="text-inner-tspan" font-weight="normal"> 64-bit</tspan><tspan font-style="normal" class="text-inner-tspan" font-weight="normal"> ID;</tspan></tspan><tspan class="text-outer-tspan row" x="0" y="3.2em" dy="1.1em"><tspan font-style="normal" class="text-inner-tspan" font-weight="normal">used</tspan><tspan font-style="normal" class="text-inner-tspan" font-weight="normal"> by</tspan><tspan font-style="normal" class="text-inner-tspan" font-weight="normal"> Google</tspan><tspan font-style="normal" class="text-inner-tspan" font-weight="normal"> Maps,</tspan></tspan><tspan class="text-outer-tspan row" x="0" y="4.300000000000001em" dy="1.1em"><tspan font-style="normal" class="text-inner-tspan" font-weight="normal">MongoDB</tspan><tspan font-style="normal" class="text-inner-tspan" font-weight="normal"> 2dsphere,</tspan></tspan><tspan class="text-outer-tspan row" x="0" y="5.4em" dy="1.1em"><tspan font-style="normal" class="text-inner-tspan" font-weight="normal">CockroachDB.</tspan></tspan></text></g></g></g><g class="node default" id="gbb4601e8-7838-420b-b6b8-4387bc280f61-light-flowchart-Q4-17" data-look="classic" transform="translate(836.0406265258789, 1254.9578323364258)"><polygon points="150.6109390258789,0 301.2218780517578,-150.6109390258789 150.6109390258789,-301.2218780517578 0,-150.6109390258789" class="label-container" transform="translate(-150.1109390258789, 150.6109390258789)"></polygon><g class="label" style="" transform="translate(0, -35.900001525878906)"><rect></rect><g><rect class="background" style="stroke: none"></rect><text y="-10.1" style=""><tspan class="text-outer-tspan row" x="0" y="-0.1em" dy="1.1em"><tspan font-style="normal" class="text-inner-tspan" font-weight="normal">Aggregations</tspan><tspan font-style="normal" class="text-inner-tspan" font-weight="normal"> /</tspan><tspan font-style="normal" class="text-inner-tspan" font-weight="normal"> heatmaps</tspan></tspan><tspan class="text-outer-tspan row" x="0" y="1em" dy="1.1em"><tspan font-style="normal" class="text-inner-tspan" font-weight="normal">where</tspan><tspan font-style="normal" class="text-inner-tspan" font-weight="normal"> uniform</tspan><tspan font-style="normal" class="text-inner-tspan" font-weight="normal"> neighbor</tspan></tspan><tspan class="text-outer-tspan row" x="0" y="2.1em" dy="1.1em"><tspan font-style="normal" class="text-inner-tspan" font-weight="normal">distance</tspan><tspan font-style="normal" class="text-inner-tspan" font-weight="normal"> matters</tspan><tspan font-style="normal" class="text-inner-tspan" font-weight="normal"> more</tspan><tspan font-style="normal" class="text-inner-tspan" font-weight="normal"> than</tspan></tspan><tspan class="text-outer-tspan row" x="0" y="3.2em" dy="1.1em"><tspan font-style="normal" class="text-inner-tspan" font-weight="normal">strict</tspan><tspan font-style="normal" class="text-inner-tspan" font-weight="normal"> containment?</tspan></tspan></text></g></g></g><g class="node default pick" id="gbb4601e8-7838-420b-b6b8-4387bc280f61-light-flowchart-H3-19" data-look="classic" transform="translate(858.1460952758789, 1547.0687637329102)"><rect class="basic label-container" style="fill:#0d47a1 !important;stroke:#0d47a1 !important" x="-127.09375" y="-50.900001525878906" width="254.1875" height="101.80000305175781"></rect><g class="label" style="color:#ffffff !important" transform="translate(0, -35.900001525878906)"><rect></rect><g><rect class="background" style="stroke: none"></rect><text y="-10.1" style="fill:#ffffff !important"><tspan class="text-outer-tspan row" x="0" y="-0.1em" dy="1.1em"><tspan font-style="normal" class="text-inner-tspan" font-weight="normal">H3</tspan></tspan><tspan class="text-outer-tspan row" x="0" y="1em" dy="1.1em"><tspan font-style="normal" class="text-inner-tspan" font-weight="normal">hexagons</tspan><tspan font-style="normal" class="text-inner-tspan" font-weight="normal"> on</tspan><tspan font-style="normal" class="text-inner-tspan" font-weight="normal"> icosahedron,</tspan></tspan><tspan class="text-outer-tspan row" x="0" y="2.1em" dy="1.1em"><tspan font-style="normal" class="text-inner-tspan" font-weight="normal">uniform</tspan><tspan font-style="normal" class="text-inner-tspan" font-weight="normal"> neighbor</tspan><tspan font-style="normal" class="text-inner-tspan" font-weight="normal"> distance;</tspan></tspan><tspan class="text-outer-tspan row" x="0" y="3.2em" dy="1.1em"><tspan font-style="normal" class="text-inner-tspan" font-weight="normal">Uber</tspan><tspan font-style="normal" class="text-inner-tspan" font-weight="normal"> default.</tspan></tspan></text></g></g></g></g></g></g><defs><filter id="gbb4601e8-7838-420b-b6b8-4387bc280f61-light-drop-shadow" height="130%" width="130%"><feDropShadow dx="4" dy="4" stdDeviation="0" flood-opacity="0.06" flood-color="#000000"></feDropShadow></filter></defs><defs><filter id="gbb4601e8-7838-420b-b6b8-4387bc280f61-light-drop-shadow-small" height="150%" width="150%"><feDropShadow dx="2" dy="2" stdDeviation="0" flood-opacity="0.06" flood-color="#000000"></feDropShadow></filter></defs></svg>