<svg id="gbd0a4a64-5eea-43f2-826f-c27555b4562a-light" width="100%" xmlns="http://www.w3.org/2000/svg" xmlns:xlink="http://www.w3.org/1999/xlink" class="flowchart" style="max-width: 792.9812622070312px;" viewBox="0 0 792.9812622070312 1458.934326171875" role="graphics-document document" aria-roledescription="flowchart-v2"><style>#gbd0a4a64-5eea-43f2-826f-c27555b4562a-light{font-family:"trebuchet ms",verdana,arial,sans-serif;font-size:16px;fill:#333;}@keyframes edge-animation-frame{from{stroke-dashoffset:0;}}@keyframes dash{to{stroke-dashoffset:0;}}#gbd0a4a64-5eea-43f2-826f-c27555b4562a-light .edge-animation-slow{stroke-dasharray:9,5!important;stroke-dashoffset:900;animation:dash 50s linear infinite;stroke-linecap:round;}#gbd0a4a64-5eea-43f2-826f-c27555b4562a-light .edge-animation-fast{stroke-dasharray:9,5!important;stroke-dashoffset:900;animation:dash 20s linear infinite;stroke-linecap:round;}#gbd0a4a64-5eea-43f2-826f-c27555b4562a-light .error-icon{fill:#552222;}#gbd0a4a64-5eea-43f2-826f-c27555b4562a-light .error-text{fill:#552222;stroke:#552222;}#gbd0a4a64-5eea-43f2-826f-c27555b4562a-light .edge-thickness-normal{stroke-width:1px;}#gbd0a4a64-5eea-43f2-826f-c27555b4562a-light .edge-thickness-thick{stroke-width:3.5px;}#gbd0a4a64-5eea-43f2-826f-c27555b4562a-light .edge-pattern-solid{stroke-dasharray:0;}#gbd0a4a64-5eea-43f2-826f-c27555b4562a-light .edge-thickness-invisible{stroke-width:0;fill:none;}#gbd0a4a64-5eea-43f2-826f-c27555b4562a-light .edge-pattern-dashed{stroke-dasharray:3;}#gbd0a4a64-5eea-43f2-826f-c27555b4562a-light .edge-pattern-dotted{stroke-dasharray:2;}#gbd0a4a64-5eea-43f2-826f-c27555b4562a-light .marker{fill:#333333;stroke:#333333;}#gbd0a4a64-5eea-43f2-826f-c27555b4562a-light .marker.cross{stroke:#333333;}#gbd0a4a64-5eea-43f2-826f-c27555b4562a-light svg{font-family:"trebuchet ms",verdana,arial,sans-serif;font-size:16px;}#gbd0a4a64-5eea-43f2-826f-c27555b4562a-light p{margin:0;}#gbd0a4a64-5eea-43f2-826f-c27555b4562a-light .label{font-family:"trebuchet ms",verdana,arial,sans-serif;color:#333;}#gbd0a4a64-5eea-43f2-826f-c27555b4562a-light .cluster-label text{fill:#333;}#gbd0a4a64-5eea-43f2-826f-c27555b4562a-light .cluster-label span{color:#333;}#gbd0a4a64-5eea-43f2-826f-c27555b4562a-light .cluster-label span p{background-color:transparent;}#gbd0a4a64-5eea-43f2-826f-c27555b4562a-light .label text,#gbd0a4a64-5eea-43f2-826f-c27555b4562a-light span{fill:#333;color:#333;}#gbd0a4a64-5eea-43f2-826f-c27555b4562a-light .node rect,#gbd0a4a64-5eea-43f2-826f-c27555b4562a-light .node circle,#gbd0a4a64-5eea-43f2-826f-c27555b4562a-light .node ellipse,#gbd0a4a64-5eea-43f2-826f-c27555b4562a-light .node polygon,#gbd0a4a64-5eea-43f2-826f-c27555b4562a-light .node path{fill:#ECECFF;stroke:#9370DB;stroke-width:1px;}#gbd0a4a64-5eea-43f2-826f-c27555b4562a-light .rough-node .label text,#gbd0a4a64-5eea-43f2-826f-c27555b4562a-light .node .label text,#gbd0a4a64-5eea-43f2-826f-c27555b4562a-light .image-shape .label,#gbd0a4a64-5eea-43f2-826f-c27555b4562a-light .icon-shape .label{text-anchor:middle;}#gbd0a4a64-5eea-43f2-826f-c27555b4562a-light .node .katex path{fill:#000;stroke:#000;stroke-width:1px;}#gbd0a4a64-5eea-43f2-826f-c27555b4562a-light .rough-node .label,#gbd0a4a64-5eea-43f2-826f-c27555b4562a-light .node .label,#gbd0a4a64-5eea-43f2-826f-c27555b4562a-light .image-shape .label,#gbd0a4a64-5eea-43f2-826f-c27555b4562a-light .icon-shape .label{text-align:center;}#gbd0a4a64-5eea-43f2-826f-c27555b4562a-light .node.clickable{cursor:pointer;}#gbd0a4a64-5eea-43f2-826f-c27555b4562a-light .root .anchor path{fill:#333333!important;stroke-width:0;stroke:#333333;}#gbd0a4a64-5eea-43f2-826f-c27555b4562a-light .arrowheadPath{fill:#333333;}#gbd0a4a64-5eea-43f2-826f-c27555b4562a-light .edgePath .path{stroke:#333333;stroke-width:1px;}#gbd0a4a64-5eea-43f2-826f-c27555b4562a-light .flowchart-link{stroke:#333333;fill:none;}#gbd0a4a64-5eea-43f2-826f-c27555b4562a-light .edgeLabel{background-color:rgba(232,232,232, 0.8);text-align:center;}#gbd0a4a64-5eea-43f2-826f-c27555b4562a-light .edgeLabel p{background-color:rgba(232,232,232, 0.8);}#gbd0a4a64-5eea-43f2-826f-c27555b4562a-light .edgeLabel rect{opacity:0.5;background-color:rgba(232,232,232, 0.8);fill:rgba(232,232,232, 0.8);}#gbd0a4a64-5eea-43f2-826f-c27555b4562a-light .labelBkg{background-color:rgba(232, 232, 232, 0.5);}#gbd0a4a64-5eea-43f2-826f-c27555b4562a-light .cluster rect{fill:#ffffde;stroke:#aaaa33;stroke-width:1px;}#gbd0a4a64-5eea-43f2-826f-c27555b4562a-light .cluster text{fill:#333;}#gbd0a4a64-5eea-43f2-826f-c27555b4562a-light .cluster span{color:#333;}#gbd0a4a64-5eea-43f2-826f-c27555b4562a-light div.mermaidTooltip{position:absolute;text-align:center;max-width:200px;padding:2px;font-family:"trebuchet ms",verdana,arial,sans-serif;font-size:12px;background:hsl(80, 100%, 96.2745098039%);border:1px solid #aaaa33;border-radius:2px;pointer-events:none;z-index:100;}#gbd0a4a64-5eea-43f2-826f-c27555b4562a-light .flowchartTitleText{text-anchor:middle;font-size:18px;fill:#333;}#gbd0a4a64-5eea-43f2-826f-c27555b4562a-light rect.text{fill:none;stroke-width:0;}#gbd0a4a64-5eea-43f2-826f-c27555b4562a-light .icon-shape,#gbd0a4a64-5eea-43f2-826f-c27555b4562a-light .image-shape{background-color:rgba(232,232,232, 0.8);text-align:center;}#gbd0a4a64-5eea-43f2-826f-c27555b4562a-light .icon-shape p,#gbd0a4a64-5eea-43f2-826f-c27555b4562a-light .image-shape p{background-color:rgba(232,232,232, 0.8);padding:2px;}#gbd0a4a64-5eea-43f2-826f-c27555b4562a-light .icon-shape .label rect,#gbd0a4a64-5eea-43f2-826f-c27555b4562a-light .image-shape .label rect{opacity:0.5;background-color:rgba(232,232,232, 0.8);fill:rgba(232,232,232, 0.8);}#gbd0a4a64-5eea-43f2-826f-c27555b4562a-light .label-icon{display:inline-block;height:1em;overflow:visible;vertical-align:-0.125em;}#gbd0a4a64-5eea-43f2-826f-c27555b4562a-light .node .label-icon path{fill:currentColor;stroke:revert;stroke-width:revert;}#gbd0a4a64-5eea-43f2-826f-c27555b4562a-light .node .neo-node{stroke:#9370DB;}#gbd0a4a64-5eea-43f2-826f-c27555b4562a-light [data-look="neo"].node rect,#gbd0a4a64-5eea-43f2-826f-c27555b4562a-light [data-look="neo"].cluster rect,#gbd0a4a64-5eea-43f2-826f-c27555b4562a-light [data-look="neo"].node polygon{stroke:#9370DB;filter:drop-shadow(1px 2px 2px rgba(185, 185, 185, 1));}#gbd0a4a64-5eea-43f2-826f-c27555b4562a-light [data-look="neo"].node path{stroke:#9370DB;stroke-width:1px;}#gbd0a4a64-5eea-43f2-826f-c27555b4562a-light [data-look="neo"].node .outer-path{filter:drop-shadow(1px 2px 2px rgba(185, 185, 185, 1));}#gbd0a4a64-5eea-43f2-826f-c27555b4562a-light [data-look="neo"].node .neo-line path{stroke:#9370DB;filter:none;}#gbd0a4a64-5eea-43f2-826f-c27555b4562a-light [data-look="neo"].node circle{stroke:#9370DB;filter:drop-shadow(1px 2px 2px rgba(185, 185, 185, 1));}#gbd0a4a64-5eea-43f2-826f-c27555b4562a-light [data-look="neo"].node circle .state-start{fill:#000000;}#gbd0a4a64-5eea-43f2-826f-c27555b4562a-light [data-look="neo"].icon-shape .icon{fill:#9370DB;filter:drop-shadow(1px 2px 2px rgba(185, 185, 185, 1));}#gbd0a4a64-5eea-43f2-826f-c27555b4562a-light [data-look="neo"].icon-shape .icon-neo path{stroke:#9370DB;filter:drop-shadow(1px 2px 2px rgba(185, 185, 185, 1));}#gbd0a4a64-5eea-43f2-826f-c27555b4562a-light :root{--mermaid-font-family:"trebuchet ms",verdana,arial,sans-serif;}#gbd0a4a64-5eea-43f2-826f-c27555b4562a-light .ok rect{fill:#1F6E68!important;stroke:#155752!important;color:#ffffff!important;}#gbd0a4a64-5eea-43f2-826f-c27555b4562a-light .ok polygon{fill:#1F6E68!important;stroke:#155752!important;color:#ffffff!important;}#gbd0a4a64-5eea-43f2-826f-c27555b4562a-light .ok ellipse{fill:#1F6E68!important;stroke:#155752!important;color:#ffffff!important;}#gbd0a4a64-5eea-43f2-826f-c27555b4562a-light .ok circle{fill:#1F6E68!important;stroke:#155752!important;color:#ffffff!important;}#gbd0a4a64-5eea-43f2-826f-c27555b4562a-light .ok path{fill:#1F6E68!important;stroke:#155752!important;color:#ffffff!important;}#gbd0a4a64-5eea-43f2-826f-c27555b4562a-light .ok tspan{fill:#ffffff!important;}#gbd0a4a64-5eea-43f2-826f-c27555b4562a-light .warn rect{fill:#B43A3A!important;stroke:#8E2828!important;color:#ffffff!important;}#gbd0a4a64-5eea-43f2-826f-c27555b4562a-light .warn polygon{fill:#B43A3A!important;stroke:#8E2828!important;color:#ffffff!important;}#gbd0a4a64-5eea-43f2-826f-c27555b4562a-light .warn ellipse{fill:#B43A3A!important;stroke:#8E2828!important;color:#ffffff!important;}#gbd0a4a64-5eea-43f2-826f-c27555b4562a-light .warn circle{fill:#B43A3A!important;stroke:#8E2828!important;color:#ffffff!important;}#gbd0a4a64-5eea-43f2-826f-c27555b4562a-light .warn path{fill:#B43A3A!important;stroke:#8E2828!important;color:#ffffff!important;}#gbd0a4a64-5eea-43f2-826f-c27555b4562a-light .warn tspan{fill:#ffffff!important;}#gbd0a4a64-5eea-43f2-826f-c27555b4562a-light .neutral rect{fill:#5A5A5A!important;stroke:#3D3D3D!important;color:#ffffff!important;}#gbd0a4a64-5eea-43f2-826f-c27555b4562a-light .neutral polygon{fill:#5A5A5A!important;stroke:#3D3D3D!important;color:#ffffff!important;}#gbd0a4a64-5eea-43f2-826f-c27555b4562a-light .neutral ellipse{fill:#5A5A5A!important;stroke:#3D3D3D!important;color:#ffffff!important;}#gbd0a4a64-5eea-43f2-826f-c27555b4562a-light .neutral circle{fill:#5A5A5A!important;stroke:#3D3D3D!important;color:#ffffff!important;}#gbd0a4a64-5eea-43f2-826f-c27555b4562a-light .neutral path{fill:#5A5A5A!important;stroke:#3D3D3D!important;color:#ffffff!important;}#gbd0a4a64-5eea-43f2-826f-c27555b4562a-light .neutral tspan{fill:#ffffff!important;}</style><g><marker id="gbd0a4a64-5eea-43f2-826f-c27555b4562a-light_flowchart-v2-pointEnd" class="marker flowchart-v2" viewBox="0 0 10 10" refX="5" refY="5" markerUnits="userSpaceOnUse" markerWidth="8" markerHeight="8" orient="auto"><path d="M 0 0 L 10 5 L 0 10 z" class="arrowMarkerPath" style="stroke-width: 1; stroke-dasharray: 1, 0;"></path></marker><marker id="gbd0a4a64-5eea-43f2-826f-c27555b4562a-light_flowchart-v2-pointStart" class="marker flowchart-v2" viewBox="0 0 10 10" refX="4.5" refY="5" markerUnits="userSpaceOnUse" markerWidth="8" markerHeight="8" orient="auto"><path d="M 0 5 L 10 10 L 10 0 z" class="arrowMarkerPath" style="stroke-width: 1; stroke-dasharray: 1, 0;"></path></marker><marker id="gbd0a4a64-5eea-43f2-826f-c27555b4562a-light_flowchart-v2-pointEnd-margin" class="marker flowchart-v2" viewBox="0 0 11.5 14" refX="11.5" refY="7" markerUnits="userSpaceOnUse" markerWidth="10.5" markerHeight="14" orient="auto"><path d="M 0 0 L 11.5 7 L 0 14 z" class="arrowMarkerPath" style="stroke-width: 0; stroke-dasharray: 1, 0;"></path></marker><marker id="gbd0a4a64-5eea-43f2-826f-c27555b4562a-light_flowchart-v2-pointStart-margin" class="marker flowchart-v2" viewBox="0 0 11.5 14" refX="1" refY="7" markerUnits="userSpaceOnUse" markerWidth="11.5" markerHeight="14" orient="auto"><polygon points="0,7 11.5,14 11.5,0" class="arrowMarkerPath" style="stroke-width: 0; stroke-dasharray: 1, 0;"></polygon></marker><marker id="gbd0a4a64-5eea-43f2-826f-c27555b4562a-light_flowchart-v2-circleEnd" class="marker flowchart-v2" viewBox="0 0 10 10" refX="11" refY="5" markerUnits="userSpaceOnUse" markerWidth="11" markerHeight="11" orient="auto"><circle cx="5" cy="5" r="5" class="arrowMarkerPath" style="stroke-width: 1; stroke-dasharray: 1, 0;"></circle></marker><marker id="gbd0a4a64-5eea-43f2-826f-c27555b4562a-light_flowchart-v2-circleStart" class="marker flowchart-v2" viewBox="0 0 10 10" refX="-1" refY="5" markerUnits="userSpaceOnUse" markerWidth="11" markerHeight="11" orient="auto"><circle cx="5" cy="5" r="5" class="arrowMarkerPath" style="stroke-width: 1; stroke-dasharray: 1, 0;"></circle></marker><marker id="gbd0a4a64-5eea-43f2-826f-c27555b4562a-light_flowchart-v2-circleEnd-margin" class="marker flowchart-v2" viewBox="0 0 10 10" refY="5" refX="12.25" markerUnits="userSpaceOnUse" markerWidth="14" markerHeight="14" orient="auto"><circle cx="5" cy="5" r="5" class="arrowMarkerPath" style="stroke-width: 0; stroke-dasharray: 1, 0;"></circle></marker><marker id="gbd0a4a64-5eea-43f2-826f-c27555b4562a-light_flowchart-v2-circleStart-margin" class="marker flowchart-v2" viewBox="0 0 10 10" refX="-2" refY="5" markerUnits="userSpaceOnUse" markerWidth="14" markerHeight="14" orient="auto"><circle cx="5" cy="5" r="5" class="arrowMarkerPath" style="stroke-width: 0; stroke-dasharray: 1, 0;"></circle></marker><marker id="gbd0a4a64-5eea-43f2-826f-c27555b4562a-light_flowchart-v2-crossEnd" class="marker cross flowchart-v2" viewBox="0 0 11 11" refX="12" refY="5.2" markerUnits="userSpaceOnUse" markerWidth="11" markerHeight="11" orient="auto"><path d="M 1,1 l 9,9 M 10,1 l -9,9" class="arrowMarkerPath" style="stroke-width: 2; stroke-dasharray: 1, 0;"></path></marker><marker id="gbd0a4a64-5eea-43f2-826f-c27555b4562a-light_flowchart-v2-crossStart" class="marker cross flowchart-v2" viewBox="0 0 11 11" refX="-1" refY="5.2" markerUnits="userSpaceOnUse" markerWidth="11" markerHeight="11" orient="auto"><path d="M 1,1 l 9,9 M 10,1 l -9,9" class="arrowMarkerPath" style="stroke-width: 2; stroke-dasharray: 1, 0;"></path></marker><marker id="gbd0a4a64-5eea-43f2-826f-c27555b4562a-light_flowchart-v2-crossEnd-margin" class="marker cross flowchart-v2" viewBox="0 0 15 15" refX="17.7" refY="7.5" markerUnits="userSpaceOnUse" markerWidth="12" markerHeight="12" orient="auto"><path d="M 1,1 L 14,14 M 1,14 L 14,1" class="arrowMarkerPath" style="stroke-width: 2.5;"></path></marker><marker id="gbd0a4a64-5eea-43f2-826f-c27555b4562a-light_flowchart-v2-crossStart-margin" class="marker cross flowchart-v2" viewBox="0 0 15 15" refX="-3.5" refY="7.5" markerUnits="userSpaceOnUse" markerWidth="12" markerHeight="12" orient="auto"><path d="M 1,1 L 14,14 M 1,14 L 14,1" class="arrowMarkerPath" style="stroke-width: 2.5; stroke-dasharray: 1, 0;"></path></marker><g class="root"><g class="clusters"></g><g class="edgePaths"><path d="M269.455,60.1L269.371,64.183C269.288,68.267,269.121,76.433,269.038,84.017C268.955,91.6,268.955,98.6,268.955,102.1L268.955,105.6" id="gbd0a4a64-5eea-43f2-826f-c27555b4562a-light-L_start_staticHit_0" class="edge-thickness-normal edge-pattern-solid edge-thickness-normal edge-pattern-solid flowchart-link" style=";" data-edge="true" data-et="edge" data-id="L_start_staticHit_0" data-points="W3sieCI6MjY5LjQ1NDY4OTAyNTg3ODksInkiOjYwLjA5OTk5ODQ3NDEyMTA4fSx7IngiOjI2OC45NTQ2ODkwMjU4Nzg5LCJ5Ijo4NC41OTk5OTg0NzQxMjExfSx7IngiOjI2OC45NTQ2ODkwMjU4Nzg5LCJ5IjoxMDkuNTk5OTk4NDc0MTIxMDd9XQ==" data-look="classic" marker-end="url(#gbd0a4a64-5eea-43f2-826f-c27555b4562a-light_flowchart-v2-pointEnd)"></path><path d="M207.151,290.256L190.112,306.64C173.072,323.024,138.993,355.791,121.954,392.77C104.914,429.748,104.914,470.936,104.914,512.125C104.914,553.314,104.914,594.502,107.074,636.829C109.234,679.156,113.553,722.62,115.713,744.353L117.873,766.085" id="gbd0a4a64-5eea-43f2-826f-c27555b4562a-light-L_staticHit_idx_0" class="edge-thickness-normal edge-pattern-solid edge-thickness-normal edge-pattern-solid flowchart-link" style=";" data-edge="true" data-et="edge" data-id="L_staticHit_idx_0" data-points="W3sieCI6MjA3LjE1MDk5NDQ3NjczMDgzLCJ5IjoyOTAuMjU1Njg1MDI4NDg4NjR9LHsieCI6MTA0LjkxNDA2MjUsInkiOjM4OC41NTkzNzk1Nzc2MzY3fSx7IngiOjEwNC45MTQwNjI1LCJ5Ijo1MTIuMTI1MDA3NjI5Mzk0NX0seyJ4IjoxMDQuOTE0MDYyNSwieSI6NjM1LjY5MDYzNTY4MTE1MjN9LHsieCI6MTE4LjI2ODY2NzY2NjI0OTE5LCJ5Ijo3NzAuMDY1NjM5NDk1ODQ5Nn1d" data-look="classic" marker-end="url(#gbd0a4a64-5eea-43f2-826f-c27555b4562a-light_flowchart-v2-pointEnd)"></path><path d="M322.556,298.458L334.458,313.475C346.36,328.492,370.164,358.526,382.066,378.959C393.968,399.393,393.968,410.226,393.968,415.643L393.968,421.059" id="gbd0a4a64-5eea-43f2-826f-c27555b4562a-light-L_staticHit_dynHit_0" class="edge-thickness-normal edge-pattern-solid edge-thickness-normal edge-pattern-solid flowchart-link" style=";" data-edge="true" data-et="edge" data-id="L_staticHit_dynHit_0" data-points="W3sieCI6MzIyLjU1NTc0Mzc0ODUyODEsInkiOjI5OC40NTgzMjQ4NTQ5ODc1NX0seyJ4IjozOTMuOTY3OTcxODAxNzU3OCwieSI6Mzg4LjU1OTM3OTU3NzYzNjd9LHsieCI6MzkzLjk2Nzk3MTgwMTc1NzgsInkiOjQyNS4wNTkzNzk1Nzc2MzY4fV0=" data-look="classic" marker-end="url(#gbd0a4a64-5eea-43f2-826f-c27555b4562a-light_flowchart-v2-pointEnd)"></path><path d="M346.609,551.832L329.94,565.808C313.27,579.785,279.931,607.738,246.962,643.576C213.993,679.413,181.395,723.136,165.096,744.997L148.796,766.859" id="gbd0a4a64-5eea-43f2-826f-c27555b4562a-light-L_dynHit_idx_0" class="edge-thickness-normal edge-pattern-solid edge-thickness-normal edge-pattern-solid flowchart-link" style=";" data-edge="true" data-et="edge" data-id="L_dynHit_idx_0" data-points="W3sieCI6MzQ2LjYwOTQwNzkzNzUyNzgsInkiOjU1MS44MzIwNzE4MTY5MjIzfSx7IngiOjI0Ni41OTE0MDc3NzU4Nzg5LCJ5Ijo2MzUuNjkwNjM1NjgxMTUyM30seyJ4IjoxNDYuNDA1NTcxODE4NDk5MTcsInkiOjc3MC4wNjU2Mzk0OTU4NDk2fV0=" data-look="classic" marker-end="url(#gbd0a4a64-5eea-43f2-826f-c27555b4562a-light_flowchart-v2-pointEnd)"></path><path d="M407.311,585.848L408.814,594.155C410.317,602.462,413.324,619.076,414.828,632.8C416.331,646.524,416.331,657.357,416.331,662.774L416.331,668.191" id="gbd0a4a64-5eea-43f2-826f-c27555b4562a-light-L_dynHit_sensitive_0" class="edge-thickness-normal edge-pattern-solid edge-thickness-normal edge-pattern-solid flowchart-link" style=";" data-edge="true" data-et="edge" data-id="L_dynHit_sensitive_0" data-points="W3sieCI6NDA3LjMxMDU4NTkzMjQ3MiwieSI6NTg1Ljg0ODAyMTU1MDQzODF9LHsieCI6NDE2LjMzMTI1MzA1MTc1NzgsInkiOjYzNS42OTA2MzU2ODExNTIzfSx7IngiOjQxNi4zMzEyNTMwNTE3NTc4NywieSI6NjcyLjE5MDYzNTY4MTE1MjN9XQ==" data-look="classic" marker-end="url(#gbd0a4a64-5eea-43f2-826f-c27555b4562a-light_flowchart-v2-pointEnd)"></path><path d="M358.692,876.902L346.394,892.591C334.096,908.281,309.5,939.661,297.202,969.35C284.904,999.04,284.904,1027.039,284.904,1041.038L284.904,1055.038" id="gbd0a4a64-5eea-43f2-826f-c27555b4562a-light-L_sensitive_neverIdx_0" class="edge-thickness-normal edge-pattern-solid edge-thickness-normal edge-pattern-solid flowchart-link" style=";" data-edge="true" data-et="edge" data-id="L_sensitive_neverIdx_0" data-points="W3sieCI6MzU4LjY5MjE3ODk1NTQxMTUsInkiOjg3Ni45MDE1Njc2ODgzMjE2fSx7IngiOjI4NC45MDM5MDc3NzU4Nzg5LCJ5Ijo5NzEuMDQwNjQxNzg0NjY4fSx7IngiOjI4NC45MDM5MDc3NzU4Nzg5LCJ5IjoxMDU5LjAzNzUyMTM2MjMwNDd9XQ==" data-look="classic" marker-end="url(#gbd0a4a64-5eea-43f2-826f-c27555b4562a-light_flowchart-v2-pointEnd)"></path><path d="M473.97,876.902L486.268,892.591C498.566,908.281,523.163,939.661,535.461,960.767C547.759,981.874,547.759,992.707,547.759,998.124L547.759,1003.541" id="gbd0a4a64-5eea-43f2-826f-c27555b4562a-light-L_sensitive_nameHit_0" class="edge-thickness-normal edge-pattern-solid edge-thickness-normal edge-pattern-solid flowchart-link" style=";" data-edge="true" data-et="edge" data-id="L_sensitive_nameHit_0" data-points="W3sieCI6NDczLjk3MDMyNzE0ODEwNDEsInkiOjg3Ni45MDE1Njc2ODgzMjE2fSx7IngiOjU0Ny43NTg1OTgzMjc2MzY3LCJ5Ijo5NzEuMDQwNjQxNzg0NjY4fSx7IngiOjU0Ny43NTg1OTgzMjc2Mzc2LCJ5IjoxMDA3LjU0MDY0MTc4NDY2ODl9XQ==" data-look="classic" marker-end="url(#gbd0a4a64-5eea-43f2-826f-c27555b4562a-light_flowchart-v2-pointEnd)"></path><path d="M500.81,1147.786L486.813,1161.694C472.815,1175.602,444.82,1203.418,430.823,1222.743C416.825,1242.068,416.825,1252.901,416.825,1258.318L416.825,1263.734" id="gbd0a4a64-5eea-43f2-826f-c27555b4562a-light-L_nameHit_litWith_0" class="edge-thickness-normal edge-pattern-solid edge-thickness-normal edge-pattern-solid flowchart-link" style=";" data-edge="true" data-et="edge" data-id="L_nameHit_litWith_0" data-points="W3sieCI6NTAwLjgxMDE1MDAzOTE3NjU2LCJ5IjoxMTQ3Ljc4NTk0OTU5OTcyMzR9LHsieCI6NDE2LjgyNTAwNDU3NzYzNjcsInkiOjEyMzEuMjM0Mzk3ODg4MTgzNn0seyJ4Ijo0MTYuODI1MDA0NTc3NjM2NywieSI6MTI2Ny43MzQzOTc4ODgxODM2fV0=" data-look="classic" marker-end="url(#gbd0a4a64-5eea-43f2-826f-c27555b4562a-light_flowchart-v2-pointEnd)"></path><path d="M594.707,1147.786L608.705,1161.694C622.702,1175.602,650.697,1203.418,664.695,1222.743C678.692,1242.068,678.692,1252.901,678.692,1258.318L678.692,1263.734" id="gbd0a4a64-5eea-43f2-826f-c27555b4562a-light-L_nameHit_litWithName_0" class="edge-thickness-normal edge-pattern-solid edge-thickness-normal edge-pattern-solid flowchart-link" style=";" data-edge="true" data-et="edge" data-id="L_nameHit_litWithName_0" data-points="W3sieCI6NTk0LjcwNzA0NjYxNjA5NjIsInkiOjExNDcuNzg1OTQ5NTk5NzI0fSx7IngiOjY3OC42OTIxOTIwNzc2MzY3LCJ5IjoxMjMxLjIzNDM5Nzg4ODE4MzZ9LHsieCI6Njc4LjY5MjE5MjA3NzYzNjcsInkiOjEyNjcuNzM0Mzk3ODg4MTgzNn1d" data-look="classic" marker-end="url(#gbd0a4a64-5eea-43f2-826f-c27555b4562a-light_flowchart-v2-pointEnd)"></path><path d="M416.825,1334.334L416.825,1338.501C416.825,1342.668,416.825,1351.001,425.574,1359.063C434.322,1367.125,451.82,1374.916,460.569,1378.812L469.317,1382.707" id="gbd0a4a64-5eea-43f2-826f-c27555b4562a-light-L_litWith_addDyn_0" class="edge-thickness-normal edge-pattern-solid edge-thickness-normal edge-pattern-solid flowchart-link" style=";" data-edge="true" data-et="edge" data-id="L_litWith_addDyn_0" data-points="W3sieCI6NDE2LjgyNTAwNDU3NzYzNjcsInkiOjEzMzQuMzM0Mzk2MzYyMzA0N30seyJ4Ijo0MTYuODI1MDA0NTc3NjM2NywieSI6MTM1OS4zMzQzOTYzNjIzMDQ3fSx7IngiOjQ3Mi45NzE0ODYzMzcyNjU3LCJ5IjoxMzg0LjMzNDM5NjM2MjMwNDd9XQ==" data-look="classic" marker-end="url(#gbd0a4a64-5eea-43f2-826f-c27555b4562a-light_flowchart-v2-pointEnd)"></path><path d="M678.692,1334.334L678.692,1338.501C678.692,1342.668,678.692,1351.001,669.943,1359.063C661.195,1367.125,643.697,1374.916,634.949,1378.812L626.2,1382.707" id="gbd0a4a64-5eea-43f2-826f-c27555b4562a-light-L_litWithName_addDyn_0" class="edge-thickness-normal edge-pattern-solid edge-thickness-normal edge-pattern-solid flowchart-link" style=";" data-edge="true" data-et="edge" data-id="L_litWithName_addDyn_0" data-points="W3sieCI6Njc4LjY5MjE5MjA3NzYzNjcsInkiOjEzMzQuMzM0Mzk2MzYyMzA0N30seyJ4Ijo2NzguNjkyMTkyMDc3NjM2NywieSI6MTM1OS4zMzQzOTYzNjIzMDQ3fSx7IngiOjYyMi41NDU3MTAzMTgwMDc4LCJ5IjoxMzg0LjMzNDM5NjM2MjMwNDd9XQ==" data-look="classic" marker-end="url(#gbd0a4a64-5eea-43f2-826f-c27555b4562a-light_flowchart-v2-pointEnd)"></path></g><g class="edgeLabels"><g class="edgeLabel"><g class="label" data-id="L_start_staticHit_0" transform="translate(0, 0)"><text y="-10.1" text-anchor="middle"><tspan class="text-outer-tspan row" x="0" y="-0.1em" dy="1.1em" text-anchor="middle"></tspan></text></g></g><g><rect class="background" style="stroke: none"></rect></g><g class="edgeLabel" transform="translate(104.9140625, 512.1250076293945)"><g class="label" data-id="L_staticHit_idx_0" transform="translate(0, -10.5)"><g><rect class="background" style="" x="-13.328125" y="-1" width="26.65625" height="23"></rect><text y="-10.1" text-anchor="middle" style=""><tspan class="text-outer-tspan row" x="0" y="-0.1em" dy="1.1em" text-anchor="middle"><tspan font-style="normal" class="text-inner-tspan" font-weight="normal">Yes</tspan></tspan></text></g></g></g><g class="edgeLabel" transform="translate(393.9679718017578, 388.5593795776367)"><g class="label" data-id="L_staticHit_dynHit_0" transform="translate(0, -10.5)"><g><rect class="background" style="" x="-11.3984375" y="-1" width="22.796875" height="23"></rect><text y="-10.1" text-anchor="middle" style=""><tspan class="text-outer-tspan row" x="0" y="-0.1em" dy="1.1em" text-anchor="middle"><tspan font-style="normal" class="text-inner-tspan" font-weight="normal">No</tspan></tspan></text></g></g></g><g class="edgeLabel" transform="translate(246.5914077758789, 635.6906356811523)"><g class="label" data-id="L_dynHit_idx_0" transform="translate(0, -10.5)"><g><rect class="background" style="" x="-13.328125" y="-1" width="26.65625" height="23"></rect><text y="-10.1" text-anchor="middle" style=""><tspan class="text-outer-tspan row" x="0" y="-0.1em" dy="1.1em" text-anchor="middle"><tspan font-style="normal" class="text-inner-tspan" font-weight="normal">Yes</tspan></tspan></text></g></g></g><g class="edgeLabel" transform="translate(416.3312530517578, 635.6906356811523)"><g class="label" data-id="L_dynHit_sensitive_0" transform="translate(0, -10.5)"><g><rect class="background" style="" x="-11.3984375" y="-1" width="22.796875" height="23"></rect><text y="-10.1" text-anchor="middle" style=""><tspan class="text-outer-tspan row" x="0" y="-0.1em" dy="1.1em" text-anchor="middle"><tspan font-style="normal" class="text-inner-tspan" font-weight="normal">No</tspan></tspan></text></g></g></g><g class="edgeLabel" transform="translate(284.9039077758789, 971.040641784668)"><g class="label" data-id="L_sensitive_neverIdx_0" transform="translate(0, -10.5)"><g><rect class="background" style="" x="-13.328125" y="-1" width="26.65625" height="23"></rect><text y="-10.1" text-anchor="middle" style=""><tspan class="text-outer-tspan row" x="0" y="-0.1em" dy="1.1em" text-anchor="middle"><tspan font-style="normal" class="text-inner-tspan" font-weight="normal">Yes</tspan></tspan></text></g></g></g><g class="edgeLabel" transform="translate(547.7585983276367, 971.040641784668)"><g class="label" data-id="L_sensitive_nameHit_0" transform="translate(0, -10.5)"><g><rect class="background" style="" x="-11.3984375" y="-1" width="22.796875" height="23"></rect><text y="-10.1" text-anchor="middle" style=""><tspan class="text-outer-tspan row" x="0" y="-0.1em" dy="1.1em" text-anchor="middle"><tspan font-style="normal" class="text-inner-tspan" font-weight="normal">No</tspan></tspan></text></g></g></g><g class="edgeLabel" transform="translate(416.8250045776367, 1231.2343978881836)"><g class="label" data-id="L_nameHit_litWith_0" transform="translate(0, -10.5)"><g><rect class="background" style="" x="-13.328125" y="-1" width="26.65625" height="23"></rect><text y="-10.1" text-anchor="middle" style=""><tspan class="text-outer-tspan row" x="0" y="-0.1em" dy="1.1em" text-anchor="middle"><tspan font-style="normal" class="text-inner-tspan" font-weight="normal">Yes</tspan></tspan></text></g></g></g><g class="edgeLabel" transform="translate(678.6921920776367, 1231.2343978881836)"><g class="label" data-id="L_nameHit_litWithName_0" transform="translate(0, -10.5)"><g><rect class="background" style="" x="-11.3984375" y="-1" width="22.796875" height="23"></rect><text y="-10.1" text-anchor="middle" style=""><tspan class="text-outer-tspan row" x="0" y="-0.1em" dy="1.1em" text-anchor="middle"><tspan font-style="normal" class="text-inner-tspan" font-weight="normal">No</tspan></tspan></text></g></g></g><g class="edgeLabel"><g class="label" data-id="L_litWith_addDyn_0" transform="translate(0, 0)"><text y="-10.1" text-anchor="middle"><tspan class="text-outer-tspan row" x="0" y="-0.1em" dy="1.1em" text-anchor="middle"></tspan></text></g></g><g><rect class="background" style="stroke: none"></rect></g><g class="edgeLabel"><g class="label" data-id="L_litWithName_addDyn_0" transform="translate(0, 0)"><text y="-10.1" text-anchor="middle"><tspan class="text-outer-tspan row" x="0" y="-0.1em" dy="1.1em" text-anchor="middle"></tspan></text></g></g><g><rect class="background" style="stroke: none"></rect></g></g><g class="nodes"><g class="node default" id="gbd0a4a64-5eea-43f2-826f-c27555b4562a-light-flowchart-start-0" data-look="classic" transform="translate(268.9546890258789, 33.79999923706055)"><g class="basic label-container outer-path"><path d="M-69.03281307220459 -25.799999237060547 C-36.103457986138295 -25.799999237060547, -3.1741029000720005 -25.799999237060547, 69.03281307220459 -25.799999237060547 C69.03281307220459 -25.799999237060547, 69.03281307220459 -25.799999237060547, 69.03281307220459 -25.799999237060547 C69.40799871464465 -25.787967763762044, 69.7831843570847 -25.775936290463545, 70.68582469882529 -25.746990371586765 C71.13328250430945 -25.703824655238453, 71.5807403097936 -25.66065893889014, 72.33204374610231 -25.58818159996402 C72.72191095314359 -25.525150893394933, 73.11177816018488 -25.462120186825842, 73.96470554685753 -25.32422550149928 C74.30719688115235 -25.246054089411313, 74.64968821544718 -25.16788267732334, 75.57710114354678 -24.956206728419545 C76.15281859110328 -24.785336811987328, 76.72853603865977 -24.61446689555511, 77.16260485680552 -24.48563754880318 C77.5927291321656 -24.327347839445455, 78.02285340752567 -24.16905813008773, 78.71470151178644 -23.914451632345997 C79.27590000413186 -23.666025707146478, 79.83709849647727 -23.417599781946954, 80.22701321041056 -23.24499610449772 C80.80899927074243 -22.941374349602444, 81.3909853310743 -22.637752594707173, 81.6933255395184 -22.480021901620034 C82.18294306093368 -22.183212882826155, 82.67256058234896 -21.886403864032275, 83.10761310722664 -21.62267246679901 C83.55837077146799 -21.30824343320904, 84.00912843570933 -20.99381439961907, 84.46406430255584 -20.67647083276321 C84.72813555461339 -20.465881036478464, 84.99220680667092 -20.255291240193714, 85.7571051765865 -19.64530514498651 C86.13684907320915 -19.300431785546742, 86.5165929698318 -18.955558426106975, 86.98142234701088 -18.533412684464313 C87.42883123044669 -18.07142627936437, 87.8762401138825 -17.609439874264428, 88.13198483196044 -17.345362455817106 C88.48526498737573 -16.930379483055987, 88.83854514279102 -16.51539651029487, 89.20406472338968 -16.086036412270357 C89.52990658306678 -15.64943800510714, 89.85574844274386 -15.212839597943923, 90.19325661506427 -14.76060939466161 C90.46506087744959 -14.343045057973805, 90.73686513983489 -13.925480721286, 91.09549570532036 -13.374527866909407 C91.38374234217497 -12.862716775037015, 91.67198897902959 -12.350905683164621, 91.9070745002064 -11.93348753532484 C92.15414797570658 -11.420434176923235, 92.40122145120675 -10.90738081852163, 92.62465804837109 -10.443409943732584 C92.86959635116996 -9.838407600259432, 93.11453465396883 -9.23340525678628, 93.24529764509381 -8.910418140577123 C93.35101410435178 -8.592017008922523, 93.45673056360974 -8.273615877267924, 93.7664429491449 -7.340811518003323 C93.9002958294638 -6.8303724731420505, 94.03414870978271 -6.319933428280779, 94.18595246268467 -5.741039926302914 C94.27139061451965 -5.302333073990118, 94.35682876635461 -4.863626221677322, 94.50210233113748 -4.117677170096137 C94.5458476346548 -3.7783972345030326, 94.58959293817212 -3.4391172989099283, 94.71359342687991 -2.4773939951584394 C94.75130016328163 -1.8900811393717996, 94.78900689968336 -1.3027682835851597, 94.81955668763487 -0.8269306768952902 C94.81955668763487 -0.2654556897985424, 94.81955668763487 0.2960192972982054, 94.81955668763487 0.826930676895284 C94.78852812817196 1.3102255363324968, 94.75749956870905 1.7935203957697095, 94.71359342687991 2.4773939951584216 C94.66626046381907 2.844499109707565, 94.61892750075822 3.2116042242567087, 94.50210233113748 4.117677170096119 C94.37730774927218 4.758470972630216, 94.25251316740687 5.399264775164313, 94.18595246268467 5.741039926302909 C94.05631153865187 6.235416956371877, 93.92667061461906 6.729793986440845, 93.7664429491449 7.340811518003306 C93.60407600947313 7.829834870636014, 93.44170906980136 8.318858223268723, 93.24529764509383 8.910418140577105 C93.00003314827092 9.516226189596164, 92.754768651448 10.122034238615221, 92.62465804837109 10.443409943732577 C92.38319034289422 10.944822800736514, 92.14172263741736 11.446235657740448, 91.9070745002064 11.933487535324835 C91.71209831022979 12.279687504108452, 91.51712212025319 12.62588747289207, 91.09549570532037 13.374527866909402 C90.86534378072156 13.72810302753838, 90.63519185612273 14.081678188167357, 90.19325661506429 14.760609394661596 C89.96286947496063 15.069307173700262, 89.73248233485697 15.378004952738927, 89.20406472338968 16.086036412270353 C88.98381571615435 16.344753428692506, 88.76356670891903 16.603470445114663, 88.13198483196045 17.345362455817092 C87.88144703492793 17.604063300788845, 87.63090923789541 17.862764145760593, 86.98142234701088 18.533412684464306 C86.68545934694713 18.802198450370334, 86.38949634688338 19.07098421627636, 85.75710517658653 19.64530514498649 C85.30776383125084 20.003642910416325, 84.85842248591514 20.361980675846162, 84.46406430255584 20.676470832763208 C84.12682751305809 20.91171261837151, 83.78959072356034 21.146954403979816, 83.10761310722665 21.622672466799003 C82.81035322226585 21.802873155955236, 82.51309333730502 21.983073845111466, 81.69332553951841 22.48002190162003 C81.24333726389789 22.714780496780012, 80.79334898827736 22.94953909193999, 80.22701321041058 23.244996104497716 C79.78064644896148 23.442589428791706, 79.33427968751238 23.640182753085696, 78.71470151178644 23.914451632345994 C78.3274324678999 24.056970220372044, 77.94016342401335 24.199488808398094, 77.16260485680553 24.485637548803172 C76.69292044661562 24.62503741632376, 76.2232360364257 24.76443728384435, 75.57710114354681 24.95620672841954 C75.16642872981024 25.049940026966965, 74.75575631607366 25.143673325514392, 73.96470554685754 25.324225501499278 C73.6373222324101 25.377154296883617, 73.30993891796265 25.43008309226796, 72.33204374610233 25.588181599964017 C71.93015237043889 25.626951577629175, 71.52826099477545 25.66572155529433, 70.68582469882529 25.746990371586765 C70.1608737994925 25.763824525173426, 69.63592290015974 25.78065867876009, 69.03281307220459 25.799999237060547 C69.03281307220459 25.799999237060547, 69.03281307220459 25.799999237060547, 69.03281307220459 25.799999237060547 C25.204442890155732 25.799999237060547, -18.623927291893125 25.799999237060547, -69.03281307220459 25.799999237060547 C-69.6890417358786 25.77895526108813, -70.3452703995526 25.757911285115707, -70.68582469882527 25.746990371586765 C-71.11791783324736 25.70530686657709, -71.55001096766945 25.663623361567414, -72.33204374610231 25.588181599964017 C-72.67721986143994 25.532376202516982, -73.02239597677757 25.47657080506995, -73.96470554685753 25.324225501499278 C-74.36923221469601 25.231894929348353, -74.77375888253451 25.139564357197425, -75.57710114354678 24.956206728419545 C-75.93154511554708 24.851009618044234, -76.28598908754736 24.745812507668923, -77.1626048568055 24.485637548803183 C-77.66900690208101 24.299276915012605, -78.17540894735652 24.112916281222027, -78.71470151178644 23.914451632345997 C-79.16990799831048 23.71294522398246, -79.62511448483451 23.511438815618924, -80.22701321041056 23.244996104497723 C-80.65226335925273 23.023143374232486, -81.0775135080949 22.801290643967246, -81.6933255395184 22.480021901620038 C-82.12983742615872 22.215405830710093, -82.56634931279903 21.950789759800152, -83.10761310722663 21.622672466799017 C-83.63552035527793 21.254427223294872, -84.16342760332924 20.886181979790727, -84.46406430255584 20.67647083276321 C-84.9107980033464 20.320212594465787, -85.35753170413696 19.963954356168365, -85.7571051765865 19.645305144986512 C-86.08355983175758 19.34882766467699, -86.41001448692867 19.052350184367466, -86.98142234701086 18.533412684464324 C-87.33346792353447 18.169896723224337, -87.68551350005808 17.80638076198435, -88.13198483196044 17.3453624558171 C-88.49689255102226 16.916721085169662, -88.86180027008407 16.48807971452222, -89.20406472338968 16.08603641227036 C-89.51406420816696 15.670665344202854, -89.82406369294424 15.255294276135347, -90.19325661506427 14.760609394661614 C-90.54557065775533 14.219360415521082, -90.89788470044641 13.678111436380549, -91.09549570532036 13.374527866909418 C-91.39864915904265 12.836248212209554, -91.70180261276495 12.297968557509693, -91.90707450020639 11.933487535324842 C-92.08455383288555 11.564947903567212, -92.26203316556469 11.196408271809585, -92.62465804837109 10.443409943732586 C-92.78766019700123 10.04079148518396, -92.95066234563139 9.638173026635334, -93.24529764509381 8.910418140577127 C-93.39894158777241 8.44766706506704, -93.552585530451 7.9849159895569555, -93.7664429491449 7.340811518003316 C-93.91804906065158 6.76267170832397, -94.06965517215826 6.184531898644623, -94.18595246268467 5.741039926302918 C-94.26338136092575 5.343458898438448, -94.34081025916682 4.9458778705739785, -94.50210233113748 4.117677170096139 C-94.56070324189588 3.6631800783126582, -94.6193041526543 3.2086829865291766, -94.71359342687991 2.477393995158454 C-94.75025090784897 1.9064241396794532, -94.786908388818 1.3354542842004526, -94.81955668763487 0.8269306768952934 C-94.81955668763487 0.28012224098998006, -94.81955668763487 -0.2666861949153333, -94.81955668763487 -0.8269306768952809 C-94.79782336174385 -1.1654447704728348, -94.77609003585283 -1.503958864050389, -94.71359342687991 -2.4773939951584185 C-94.6625580558663 -2.8732142546661428, -94.61152268485267 -3.2690345141738675, -94.50210233113748 -4.117677170096128 C-94.39347883721256 -4.675435853817035, -94.28485534328763 -5.233194537537942, -94.18595246268467 -5.741039926302906 C-94.0207084033572 -6.371187141746846, -93.85546434402976 -7.001334357190785, -93.7664429491449 -7.340811518003303 C-93.60153890358372 -7.837476229342011, -93.43663485802253 -8.334140940680719, -93.24529764509383 -8.910418140577093 C-93.00922772781527 -9.4935154003565, -92.7731578105367 -10.076612660135908, -92.62465804837109 -10.443409943732574 C-92.3676407169994 -10.977111931615788, -92.11062338562773 -11.510813919499002, -91.9070745002064 -11.933487535324831 C-91.58642772030437 -12.502828362048183, -91.26578094040232 -13.072169188771534, -91.09549570532036 -13.374527866909409 C-90.80789308047004 -13.816362730797788, -90.52029045561973 -14.258197594686168, -90.19325661506429 -14.760609394661605 C-89.89946317071382 -15.154265844957836, -89.60566972636336 -15.547922295254065, -89.20406472338968 -16.086036412270353 C-88.77820698498512 -16.586273143792134, -88.35234924658056 -17.08650987531391, -88.13198483196045 -17.345362455817092 C-87.84021716705217 -17.646636524405668, -87.54844950214391 -17.94791059299424, -86.98142234701089 -18.5334126844643 C-86.49261769801441 -18.977332133620592, -86.00381304901795 -19.42125158277689, -85.75710517658653 -19.645305144986487 C-85.46081128912417 -19.881591635526245, -85.1645174016618 -20.117878126066003, -84.46406430255585 -20.676470832763204 C-83.96764900660382 -21.022748653747524, -83.4712337106518 -21.369026474731843, -83.10761310722665 -21.622672466799 C-82.54740038966935 -21.962276708357596, -81.98718767211204 -22.301880949916193, -81.69332553951841 -22.480021901620027 C-81.2022931706958 -22.736193173913545, -80.71126080187318 -22.992364446207063, -80.22701321041058 -23.244996104497716 C-79.81777029403405 -23.426155803817817, -79.40852737765752 -23.607315503137915, -78.71470151178646 -23.91445163234599 C-78.2293086138341 -24.093080705715217, -77.74391571588177 -24.271709779084443, -77.16260485680553 -24.485637548803172 C-76.67552361434907 -24.630200704822634, -76.18844237189262 -24.774763860842093, -75.57710114354681 -24.956206728419538 C-75.12745618414354 -25.05883525619576, -74.67781122474025 -25.161463783971982, -73.96470554685754 -25.324225501499278 C-73.52995892315101 -25.39451196410973, -73.09521229944448 -25.464798426720183, -72.33204374610233 -25.588181599964017 C-71.79150386386502 -25.64032683230913, -71.2509639816277 -25.692472064654243, -70.68582469882529 -25.746990371586765 C-70.17993173736875 -25.76321337419976, -69.6740387759122 -25.77943637681276, -69.0328130722046 -25.799999237060547 C-69.0328130722046 -25.799999237060547, -69.0328130722046 -25.799999237060547, -69.03281307220459 -25.799999237060547" stroke="none" stroke-width="0" fill="#ECECFF" style=""></path><path d="M-69.03281307220459 -25.799999237060547 C-39.463325013611495 -25.799999237060547, -9.893836955018394 -25.799999237060547, 69.03281307220459 -25.799999237060547 M-69.03281307220459 -25.799999237060547 C-17.83038512087274 -25.799999237060547, 33.37204283045911 -25.799999237060547, 69.03281307220459 -25.799999237060547 M69.03281307220459 -25.799999237060547 C69.03281307220459 -25.799999237060547, 69.03281307220459 -25.799999237060547, 69.03281307220459 -25.799999237060547 M69.03281307220459 -25.799999237060547 C69.03281307220459 -25.799999237060547, 69.03281307220459 -25.799999237060547, 69.03281307220459 -25.799999237060547 M69.03281307220459 -25.799999237060547 C69.57888004687472 -25.782487932037764, 70.12494702154484 -25.764976627014978, 70.68582469882529 -25.746990371586765 M69.03281307220459 -25.799999237060547 C69.66023330650668 -25.77987909134588, 70.28765354080879 -25.759758945631212, 70.68582469882529 -25.746990371586765 M70.68582469882529 -25.746990371586765 C71.19506115097991 -25.697864943493848, 71.70429760313455 -25.648739515400926, 72.33204374610231 -25.58818159996402 M70.68582469882529 -25.746990371586765 C71.12254200538403 -25.70486077825245, 71.55925931194278 -25.66273118491813, 72.33204374610231 -25.58818159996402 M72.33204374610231 -25.58818159996402 C72.77942935562018 -25.515851764144394, 73.22681496513803 -25.443521928324763, 73.96470554685753 -25.32422550149928 M72.33204374610231 -25.58818159996402 C72.81311176467972 -25.51040625345863, 73.29417978325712 -25.432630906953236, 73.96470554685753 -25.32422550149928 M73.96470554685753 -25.32422550149928 C74.53428205783459 -25.19422337970286, 75.10385856881163 -25.064221257906436, 75.57710114354678 -24.956206728419545 M73.96470554685753 -25.32422550149928 C74.28922735210527 -25.250155517154173, 74.613749157353 -25.176085532809065, 75.57710114354678 -24.956206728419545 M75.57710114354678 -24.956206728419545 C76.0926696022431 -24.803188716152544, 76.60823806093943 -24.650170703885543, 77.16260485680552 -24.48563754880318 M75.57710114354678 -24.956206728419545 C76.10713885576311 -24.79889431765847, 76.63717656797944 -24.64158190689739, 77.16260485680552 -24.48563754880318 M77.16260485680552 -24.48563754880318 C77.66514041040867 -24.300699819689484, 78.16767596401183 -24.115762090575785, 78.71470151178644 -23.914451632345997 M77.16260485680552 -24.48563754880318 C77.68086322612484 -24.29491367816582, 78.19912159544415 -24.10418980752846, 78.71470151178644 -23.914451632345997 M78.71470151178644 -23.914451632345997 C79.27133139951204 -23.66804809288883, 79.82796128723761 -23.42164455343167, 80.22701321041056 -23.24499610449772 M78.71470151178644 -23.914451632345997 C79.10481836905923 -23.74175847203674, 79.494935226332 -23.56906531172748, 80.22701321041056 -23.24499610449772 M80.22701321041056 -23.24499610449772 C80.5959822449737 -23.05250519550208, 80.96495127953683 -22.860014286506434, 81.6933255395184 -22.480021901620034 M80.22701321041056 -23.24499610449772 C80.64629402861812 -23.026257570201018, 81.06557484682568 -22.807519035904313, 81.6933255395184 -22.480021901620034 M81.6933255395184 -22.480021901620034 C82.03734229004773 -22.271476925782324, 82.38135904057707 -22.062931949944616, 83.10761310722664 -21.62267246679901 M81.6933255395184 -22.480021901620034 C82.04862748791014 -22.26463577251895, 82.40392943630188 -22.049249643417866, 83.10761310722664 -21.62267246679901 M83.10761310722664 -21.62267246679901 C83.63947569664874 -21.251668148378563, 84.17133828607086 -20.880663829958113, 84.46406430255584 -20.67647083276321 M83.10761310722664 -21.62267246679901 C83.39408574433737 -21.422841556351145, 83.68055838144812 -21.223010645903283, 84.46406430255584 -20.67647083276321 M84.46406430255584 -20.67647083276321 C84.94543490542085 -20.292590586788087, 85.42680550828585 -19.908710340812966, 85.7571051765865 -19.64530514498651 M84.46406430255584 -20.67647083276321 C84.85956777907164 -20.36106733503138, 85.25507125558745 -20.045663837299546, 85.7571051765865 -19.64530514498651 M85.7571051765865 -19.64530514498651 C86.08439215156467 -19.348071773850172, 86.41167912654284 -19.05083840271384, 86.98142234701088 -18.533412684464313 M85.7571051765865 -19.64530514498651 C86.1607293979856 -19.278744306423533, 86.56435361938472 -18.912183467860558, 86.98142234701088 -18.533412684464313 M86.98142234701088 -18.533412684464313 C87.28454823545022 -18.220410317552425, 87.58767412388954 -17.907407950640533, 88.13198483196044 -17.345362455817106 M86.98142234701088 -18.533412684464313 C87.21641967991322 -18.290758644602807, 87.45141701281555 -18.0481046047413, 88.13198483196044 -17.345362455817106 M88.13198483196044 -17.345362455817106 C88.50841555456579 -16.903185509529955, 88.88484627717114 -16.461008563242803, 89.20406472338968 -16.086036412270357 M88.13198483196044 -17.345362455817106 C88.53439440469647 -16.872669273928004, 88.9368039774325 -16.399976092038905, 89.20406472338968 -16.086036412270357 M89.20406472338968 -16.086036412270357 C89.51510021215174 -15.669277193245145, 89.8261357009138 -15.252517974219936, 90.19325661506427 -14.76060939466161 M89.20406472338968 -16.086036412270357 C89.40678099511943 -15.81441507598476, 89.60949726684919 -15.542793739699164, 90.19325661506427 -14.76060939466161 M90.19325661506427 -14.76060939466161 C90.45649313423213 -14.356207412316987, 90.71972965340001 -13.951805429972364, 91.09549570532036 -13.374527866909407 M90.19325661506427 -14.76060939466161 C90.47849916588117 -14.322400238257167, 90.76374171669809 -13.884191081852721, 91.09549570532036 -13.374527866909407 M91.09549570532036 -13.374527866909407 C91.3416322681387 -12.937487475595795, 91.58776883095705 -12.500447084282184, 91.9070745002064 -11.93348753532484 M91.09549570532036 -13.374527866909407 C91.35151164622683 -12.919945639404819, 91.60752758713329 -12.465363411900231, 91.9070745002064 -11.93348753532484 M91.9070745002064 -11.93348753532484 C92.08580772630567 -11.5623441670513, 92.26454095240496 -11.19120079877776, 92.62465804837109 -10.443409943732584 M91.9070745002064 -11.93348753532484 C92.12663950780713 -11.477556099103385, 92.34620451540783 -11.021624662881928, 92.62465804837109 -10.443409943732584 M92.62465804837109 -10.443409943732584 C92.7774823367091 -10.065930996881093, 92.9303066250471 -9.6884520500296, 93.24529764509381 -8.910418140577123 M92.62465804837109 -10.443409943732584 C92.82299398110158 -9.953516355323893, 93.02132991383205 -9.463622766915202, 93.24529764509381 -8.910418140577123 M93.24529764509381 -8.910418140577123 C93.44610777023294 -8.305610038406542, 93.64691789537207 -7.700801936235961, 93.7664429491449 -7.340811518003323 M93.24529764509381 -8.910418140577123 C93.35669741522248 -8.574899782092572, 93.46809718535114 -8.239381423608021, 93.7664429491449 -7.340811518003323 M93.7664429491449 -7.340811518003323 C93.86384378550258 -6.969379915181964, 93.96124462186027 -6.5979483123606055, 94.18595246268467 -5.741039926302914 M93.7664429491449 -7.340811518003323 C93.87915783714186 -6.910980799129458, 93.99187272513882 -6.481150080255594, 94.18595246268467 -5.741039926302914 M94.18595246268467 -5.741039926302914 C94.30455115528822 -5.132060705626223, 94.42314984789178 -4.523081484949532, 94.50210233113748 -4.117677170096137 M94.18595246268467 -5.741039926302914 C94.2654516447673 -5.332828428466712, 94.34495082684992 -4.92461693063051, 94.50210233113748 -4.117677170096137 M94.50210233113748 -4.117677170096137 C94.56029285938254 -3.6663629240468874, 94.61848338762762 -3.215048677997638, 94.71359342687991 -2.4773939951584394 M94.50210233113748 -4.117677170096137 C94.55675362173291 -3.693812552355948, 94.61140491232834 -3.2699479346157587, 94.71359342687991 -2.4773939951584394 M94.71359342687991 -2.4773939951584394 C94.74236868741406 -2.029196085366926, 94.77114394794819 -1.580998175575413, 94.81955668763487 -0.8269306768952902 M94.71359342687991 -2.4773939951584394 C94.73606555893792 -2.127372399176338, 94.75853769099594 -1.7773508031942367, 94.81955668763487 -0.8269306768952902 M94.81955668763487 -0.8269306768952902 C94.81955668763487 -0.46185483925573184, 94.81955668763487 -0.09677900161617348, 94.81955668763487 0.826930676895284 M94.81955668763487 -0.8269306768952902 C94.81955668763487 -0.4927811477167852, 94.81955668763487 -0.15863161853828023, 94.81955668763487 0.826930676895284 M94.81955668763487 0.826930676895284 C94.77961091479915 1.449118332459219, 94.73966514196341 2.0713059880231537, 94.71359342687991 2.4773939951584216 M94.81955668763487 0.826930676895284 C94.78637556523464 1.3437534415988952, 94.7531944428344 1.8605762063025066, 94.71359342687991 2.4773939951584216 M94.71359342687991 2.4773939951584216 C94.66913740199786 2.8221861453085673, 94.6246813771158 3.166978295458713, 94.50210233113748 4.117677170096119 M94.71359342687991 2.4773939951584216 C94.63065317295283 3.12066222621115, 94.54771291902577 3.7639304572638785, 94.50210233113748 4.117677170096119 M94.50210233113748 4.117677170096119 C94.38231720363154 4.732748483243404, 94.26253207612561 5.34781979639069, 94.18595246268467 5.741039926302909 M94.50210233113748 4.117677170096119 C94.40629095389751 4.609648342481601, 94.31047957665754 5.101619514867083, 94.18595246268467 5.741039926302909 M94.18595246268467 5.741039926302909 C94.10197740629417 6.061273211339536, 94.01800234990367 6.381506496376164, 93.7664429491449 7.340811518003306 M94.18595246268467 5.741039926302909 C94.02448948011865 6.356768257326445, 93.86302649755262 6.972496588349982, 93.7664429491449 7.340811518003306 M93.7664429491449 7.340811518003306 C93.58020230945866 7.901738651322107, 93.3939616697724 8.462665784640908, 93.24529764509383 8.910418140577105 M93.7664429491449 7.340811518003306 C93.61235014362755 7.804914496867148, 93.4582573381102 8.269017475730992, 93.24529764509383 8.910418140577105 M93.24529764509383 8.910418140577105 C93.08245348597873 9.312646361969044, 92.91960932686362 9.714874583360984, 92.62465804837109 10.443409943732577 M93.24529764509383 8.910418140577105 C93.0990931036366 9.271546184648946, 92.9528885621794 9.632674228720786, 92.62465804837109 10.443409943732577 M92.62465804837109 10.443409943732577 C92.42849367613924 10.850749459917203, 92.23232930390738 11.258088976101828, 91.9070745002064 11.933487535324835 M92.62465804837109 10.443409943732577 C92.42146604818898 10.865342479723052, 92.21827404800688 11.287275015713528, 91.9070745002064 11.933487535324835 M91.9070745002064 11.933487535324835 C91.72718508607296 12.252899405897203, 91.54729567193951 12.572311276469573, 91.09549570532037 13.374527866909402 M91.9070745002064 11.933487535324835 C91.60697578110609 12.466343199377944, 91.30687706200578 12.999198863431053, 91.09549570532037 13.374527866909402 M91.09549570532037 13.374527866909402 C90.87456916878635 13.713930354107296, 90.65364263225233 14.053332841305192, 90.19325661506429 14.760609394661596 M91.09549570532037 13.374527866909402 C90.7818203161687 13.856417498282168, 90.46814492701704 14.338307129654936, 90.19325661506429 14.760609394661596 M90.19325661506429 14.760609394661596 C89.98188282781156 15.043831013032078, 89.77050904055885 15.327052631402559, 89.20406472338968 16.086036412270353 M90.19325661506429 14.760609394661596 C89.95693320694217 15.07726123203985, 89.72060979882005 15.393913069418105, 89.20406472338968 16.086036412270353 M89.20406472338968 16.086036412270353 C88.86789443230313 16.48092116481207, 88.53172414121659 16.875805917353784, 88.13198483196045 17.345362455817092 M89.20406472338968 16.086036412270353 C88.79099108098178 16.571256217198783, 88.37791743857387 17.056476022127214, 88.13198483196045 17.345362455817092 M88.13198483196045 17.345362455817092 C87.72678453778308 17.76376502711807, 87.32158424360571 18.182167598419046, 86.98142234701088 18.533412684464306 M88.13198483196045 17.345362455817092 C87.846376208282 17.640276808669196, 87.56076758460352 17.9351911615213, 86.98142234701088 18.533412684464306 M86.98142234701088 18.533412684464306 C86.50089907690187 18.96981120442829, 86.02037580679286 19.40620972439227, 85.75710517658653 19.64530514498649 M86.98142234701088 18.533412684464306 C86.6836078280548 18.80387995083984, 86.38579330909873 19.07434721721537, 85.75710517658653 19.64530514498649 M85.75710517658653 19.64530514498649 C85.26806797357452 20.035299300562052, 84.7790307705625 20.425293456137613, 84.46406430255584 20.676470832763208 M85.75710517658653 19.64530514498649 C85.25470519769759 20.045955758725498, 84.75230521880866 20.446606372464505, 84.46406430255584 20.676470832763208 M84.46406430255584 20.676470832763208 C84.10318999015311 20.928201131098156, 83.74231567775037 21.179931429433104, 83.10761310722665 21.622672466799003 M84.46406430255584 20.676470832763208 C83.93937527291214 21.04247118642063, 83.41468624326846 21.40847154007805, 83.10761310722665 21.622672466799003 M83.10761310722665 21.622672466799003 C82.55205327358358 21.959456102785406, 81.99649343994052 22.296239738771806, 81.69332553951841 22.48002190162003 M83.10761310722665 21.622672466799003 C82.77147925650432 21.826438782448655, 82.43534540578197 22.030205098098303, 81.69332553951841 22.48002190162003 M81.69332553951841 22.48002190162003 C81.29821624962354 22.68615016507861, 80.90310695972865 22.892278428537193, 80.22701321041058 23.244996104497716 M81.69332553951841 22.48002190162003 C81.37797144739041 22.644541929489275, 81.0626173552624 22.80906195735852, 80.22701321041058 23.244996104497716 M80.22701321041058 23.244996104497716 C79.64480953503565 23.502720401127785, 79.06260585966072 23.760444697757855, 78.71470151178644 23.914451632345994 M80.22701321041058 23.244996104497716 C79.68268798176614 23.485952736384398, 79.1383627531217 23.72690936827108, 78.71470151178644 23.914451632345994 M78.71470151178644 23.914451632345994 C78.37712388190715 24.038683320674977, 78.03954625202786 24.16291500900396, 77.16260485680553 24.485637548803172 M78.71470151178644 23.914451632345994 C78.36574097243965 24.042872336581475, 78.01678043309288 24.17129304081696, 77.16260485680553 24.485637548803172 M77.16260485680553 24.485637548803172 C76.77298430697688 24.601274882832314, 76.38336375714823 24.71691221686146, 75.57710114354681 24.95620672841954 M77.16260485680553 24.485637548803172 C76.77506205869521 24.60065821702866, 76.3875192605849 24.715678885254142, 75.57710114354681 24.95620672841954 M75.57710114354681 24.95620672841954 C75.16967182173734 25.04919981239776, 74.76224249992786 25.142192896375974, 73.96470554685754 25.324225501499278 M75.57710114354681 24.95620672841954 C75.16681364982445 25.04985217148556, 74.75652615610207 25.14349761455158, 73.96470554685754 25.324225501499278 M73.96470554685754 25.324225501499278 C73.326827047053 25.42735275052603, 72.68894854724846 25.53047999955278, 72.33204374610233 25.588181599964017 M73.96470554685754 25.324225501499278 C73.3772579952451 25.419199465920176, 72.78981044363266 25.51417343034107, 72.33204374610233 25.588181599964017 M72.33204374610233 25.588181599964017 C71.71768241029669 25.647448299151577, 71.10332107449106 25.70671499833914, 70.68582469882529 25.746990371586765 M72.33204374610233 25.588181599964017 C71.90033340923861 25.629828176953616, 71.4686230723749 25.671474753943215, 70.68582469882529 25.746990371586765 M70.68582469882529 25.746990371586765 C70.25029553293761 25.76095694423069, 69.81476636704996 25.774923516874612, 69.03281307220459 25.799999237060547 M70.68582469882529 25.746990371586765 C70.2050616671622 25.762407506263727, 69.72429863549911 25.77782464094069, 69.03281307220459 25.799999237060547 M69.03281307220459 25.799999237060547 C69.03281307220459 25.799999237060547, 69.03281307220459 25.799999237060547, 69.03281307220459 25.799999237060547 M69.03281307220459 25.799999237060547 C69.03281307220459 25.799999237060547, 69.03281307220459 25.799999237060547, 69.03281307220459 25.799999237060547 M69.03281307220459 25.799999237060547 C32.036448083346706 25.799999237060547, -4.959916905511179 25.799999237060547, -69.03281307220459 25.799999237060547 M69.03281307220459 25.799999237060547 C17.100194124536657 25.799999237060547, -34.83242482313128 25.799999237060547, -69.03281307220459 25.799999237060547 M-69.03281307220459 25.799999237060547 C-69.59494166167042 25.7819728673133, -70.15707025113623 25.763946497566057, -70.68582469882527 25.746990371586765 M-69.03281307220459 25.799999237060547 C-69.66235573646354 25.779811029148224, -70.29189840072247 25.759622821235897, -70.68582469882527 25.746990371586765 M-70.68582469882527 25.746990371586765 C-71.09954376798316 25.70707939055508, -71.51326283714107 25.667168409523395, -72.33204374610231 25.588181599964017 M-70.68582469882527 25.746990371586765 C-71.20511631625818 25.696894933792557, -71.7244079336911 25.646799495998344, -72.33204374610231 25.588181599964017 M-72.33204374610231 25.588181599964017 C-72.92280260401084 25.49267228922073, -73.51356146191937 25.39716297847745, -73.96470554685753 25.324225501499278 M-72.33204374610231 25.588181599964017 C-72.93708572656833 25.49036310473291, -73.54212770703433 25.3925446095018, -73.96470554685753 25.324225501499278 M-73.96470554685753 25.324225501499278 C-74.60638758099931 25.17776576457302, -75.24806961514108 25.031306027646764, -75.57710114354678 24.956206728419545 M-73.96470554685753 25.324225501499278 C-74.30292188884393 25.247029828508776, -74.64113823083032 25.169834155518274, -75.57710114354678 24.956206728419545 M-75.57710114354678 24.956206728419545 C-76.06848266558129 24.81036727199395, -76.55986418761579 24.664527815568356, -77.1626048568055 24.485637548803183 M-75.57710114354678 24.956206728419545 C-76.14203035299447 24.788538704429406, -76.70695956244215 24.620870680439268, -77.1626048568055 24.485637548803183 M-77.1626048568055 24.485637548803183 C-77.77647052421473 24.259729308684562, -78.39033619162397 24.03382106856594, -78.71470151178644 23.914451632345997 M-77.1626048568055 24.485637548803183 C-77.59020364300642 24.328277242801395, -78.01780242920734 24.170916936799607, -78.71470151178644 23.914451632345997 M-78.71470151178644 23.914451632345997 C-79.31544742069687 23.64851923896558, -79.91619332960728 23.38258684558516, -80.22701321041056 23.244996104497723 M-78.71470151178644 23.914451632345997 C-79.23562080155745 23.683856115286076, -79.75654009132845 23.45326059822616, -80.22701321041056 23.244996104497723 M-80.22701321041056 23.244996104497723 C-80.67641959515431 23.010541081435438, -81.12582597989805 22.776086058373156, -81.6933255395184 22.480021901620038 M-80.22701321041056 23.244996104497723 C-80.75383481206734 22.970153612358725, -81.2806564137241 22.69531112021973, -81.6933255395184 22.480021901620038 M-81.6933255395184 22.480021901620038 C-82.24969983797544 22.142744532277074, -82.80607413643249 21.805467162934114, -83.10761310722663 21.622672466799017 M-81.6933255395184 22.480021901620038 C-82.21402360283564 22.16437167567565, -82.7347216661529 21.84872144973126, -83.10761310722663 21.622672466799017 M-83.10761310722663 21.622672466799017 C-83.56025455009505 21.30692939078626, -84.01289599296348 20.991186314773497, -84.46406430255584 20.67647083276321 M-83.10761310722663 21.622672466799017 C-83.39534724261146 21.42196158976452, -83.6830813779963 21.22125071273003, -84.46406430255584 20.67647083276321 M-84.46406430255584 20.67647083276321 C-84.97530687139154 20.26876848885286, -85.48654944022725 19.861066144942505, -85.7571051765865 19.645305144986512 M-84.46406430255584 20.67647083276321 C-84.82904665976511 20.385407115477246, -85.19402901697438 20.09434339819128, -85.7571051765865 19.645305144986512 M-85.7571051765865 19.645305144986512 C-86.22476690365326 19.220587138115736, -86.69242863072 18.795869131244956, -86.98142234701086 18.533412684464324 M-85.7571051765865 19.645305144986512 C-86.05910689450548 19.371035175300086, -86.36110861242446 19.096765205613664, -86.98142234701086 18.533412684464324 M-86.98142234701086 18.533412684464324 C-87.32941834104287 18.17407824962382, -87.67741433507487 17.814743814783313, -88.13198483196044 17.3453624558171 M-86.98142234701086 18.533412684464324 C-87.29285161059484 18.211836400995814, -87.60428087417881 17.890260117527305, -88.13198483196044 17.3453624558171 M-88.13198483196044 17.3453624558171 C-88.51670532855323 16.893447869302804, -88.90142582514602 16.441533282788512, -89.20406472338968 16.08603641227036 M-88.13198483196044 17.3453624558171 C-88.44641380848691 16.97601628847349, -88.7608427850134 16.606670121129888, -89.20406472338968 16.08603641227036 M-89.20406472338968 16.08603641227036 C-89.46999035751068 15.729720288871862, -89.73591599163169 15.373404165473364, -90.19325661506427 14.760609394661614 M-89.20406472338968 16.08603641227036 C-89.41002704924182 15.810065659182378, -89.61598937509396 15.534094906094396, -90.19325661506427 14.760609394661614 M-90.19325661506427 14.760609394661614 C-90.46914022078334 14.336778091156088, -90.74502382650242 13.91294678765056, -91.09549570532036 13.374527866909418 M-90.19325661506427 14.760609394661614 C-90.37972231071832 14.474148013086833, -90.56618800637236 14.187686631512051, -91.09549570532036 13.374527866909418 M-91.09549570532036 13.374527866909418 C-91.40354717198841 12.827551294246767, -91.71159863865647 12.280574721584115, -91.90707450020639 11.933487535324842 M-91.09549570532036 13.374527866909418 C-91.303472082287 13.005244749713311, -91.51144845925364 12.635961632517207, -91.90707450020639 11.933487535324842 M-91.90707450020639 11.933487535324842 C-92.08750928272939 11.558810848729966, -92.2679440652524 11.184134162135091, -92.62465804837109 10.443409943732586 M-91.90707450020639 11.933487535324842 C-92.15192079784804 11.425058959400474, -92.39676709548966 10.916630383476107, -92.62465804837109 10.443409943732586 M-92.62465804837109 10.443409943732586 C-92.80662244593948 9.99395436369634, -92.98858684350789 9.544498783660092, -93.24529764509381 8.910418140577127 M-92.62465804837109 10.443409943732586 C-92.81812863482827 9.965533854684017, -93.01159922128545 9.487657765635445, -93.24529764509381 8.910418140577127 M-93.24529764509381 8.910418140577127 C-93.36293095384359 8.55612535694532, -93.48056426259335 8.201832573313512, -93.7664429491449 7.340811518003316 M-93.24529764509381 8.910418140577127 C-93.41638008298463 8.395145095934705, -93.58746252087546 7.879872051292282, -93.7664429491449 7.340811518003316 M-93.7664429491449 7.340811518003316 C-93.87452008454652 6.928666559790198, -93.98259721994812 6.51652160157708, -94.18595246268467 5.741039926302918 M-93.7664429491449 7.340811518003316 C-93.86620165105383 6.960388351929676, -93.96596035296275 6.579965185856035, -94.18595246268467 5.741039926302918 M-94.18595246268467 5.741039926302918 C-94.25693814968479 5.376543426387605, -94.32792383668489 5.012046926472293, -94.50210233113748 4.117677170096139 M-94.18595246268467 5.741039926302918 C-94.29297751573006 5.191488898667807, -94.40000256877545 4.641937871032697, -94.50210233113748 4.117677170096139 M-94.50210233113748 4.117677170096139 C-94.55548578679496 3.7036456297724007, -94.60886924245244 3.289614089448662, -94.71359342687991 2.477393995158454 M-94.50210233113748 4.117677170096139 C-94.57823340634418 3.5272195845741545, -94.65436448155089 2.9367619990521696, -94.71359342687991 2.477393995158454 M-94.71359342687991 2.477393995158454 C-94.73850411322908 2.0893899477259867, -94.76341479957826 1.701385900293519, -94.81955668763487 0.8269306768952934 M-94.71359342687991 2.477393995158454 C-94.7353530542823 2.138470234311196, -94.75711268168467 1.7995464734639386, -94.81955668763487 0.8269306768952934 M-94.81955668763487 0.8269306768952934 C-94.81955668763487 0.35633099232641074, -94.81955668763487 -0.11426869224247194, -94.81955668763487 -0.8269306768952809 M-94.81955668763487 0.8269306768952934 C-94.81955668763487 0.4868135910584386, -94.81955668763487 0.14669650522158373, -94.81955668763487 -0.8269306768952809 M-94.81955668763487 -0.8269306768952809 C-94.79588562243319 -1.1956266243513265, -94.77221455723152 -1.5643225718073719, -94.71359342687991 -2.4773939951584185 M-94.81955668763487 -0.8269306768952809 C-94.79620022154951 -1.190726489174771, -94.77284375546417 -1.554522301454261, -94.71359342687991 -2.4773939951584185 M-94.71359342687991 -2.4773939951584185 C-94.64918864427163 -2.976904770905367, -94.58478386166335 -3.4764155466523157, -94.50210233113748 -4.117677170096128 M-94.71359342687991 -2.4773939951584185 C-94.63080436350822 -3.119489622119559, -94.54801530013653 -3.7615852490806994, -94.50210233113748 -4.117677170096128 M-94.50210233113748 -4.117677170096128 C-94.43444739841294 -4.465070950761529, -94.3667924656884 -4.81246473142693, -94.18595246268467 -5.741039926302906 M-94.50210233113748 -4.117677170096128 C-94.39340513717224 -4.6758142879475715, -94.28470794320698 -5.233951405799016, -94.18595246268467 -5.741039926302906 M-94.18595246268467 -5.741039926302906 C-94.07682672071279 -6.157183675837412, -93.96770097874092 -6.573327425371917, -93.7664429491449 -7.340811518003303 M-94.18595246268467 -5.741039926302906 C-94.05805530354841 -6.228767225068824, -93.93015814441218 -6.7164945238347435, -93.7664429491449 -7.340811518003303 M-93.7664429491449 -7.340811518003303 C-93.66067167610953 -7.659377740022068, -93.55490040307417 -7.9779439620408334, -93.24529764509383 -8.910418140577093 M-93.7664429491449 -7.340811518003303 C-93.64571980029596 -7.704410407714675, -93.52499665144701 -8.068009297426046, -93.24529764509383 -8.910418140577093 M-93.24529764509383 -8.910418140577093 C-93.03215047055889 -9.43689578259868, -92.81900329602394 -9.963373424620269, -92.62465804837109 -10.443409943732574 M-93.24529764509383 -8.910418140577093 C-93.08770581263015 -9.299673013593177, -92.93011398016648 -9.68892788660926, -92.62465804837109 -10.443409943732574 M-92.62465804837109 -10.443409943732574 C-92.42603460393171 -10.855855775971841, -92.22741115949233 -11.26830160821111, -91.9070745002064 -11.933487535324831 M-92.62465804837109 -10.443409943732574 C-92.34395605650609 -11.026293635900736, -92.06325406464107 -11.609177328068897, -91.9070745002064 -11.933487535324831 M-91.9070745002064 -11.933487535324831 C-91.60422683269275 -12.47122423564704, -91.30137916517909 -13.008960935969249, -91.09549570532036 -13.374527866909409 M-91.9070745002064 -11.933487535324831 C-91.70356802551055 -12.294833888412457, -91.50006155081469 -12.656180241500083, -91.09549570532036 -13.374527866909409 M-91.09549570532036 -13.374527866909409 C-90.89810699235115 -13.677769936321141, -90.70071827938193 -13.981012005732874, -90.19325661506429 -14.760609394661605 M-91.09549570532036 -13.374527866909409 C-90.78743223268664 -13.847796087500031, -90.47936876005292 -14.321064308090653, -90.19325661506429 -14.760609394661605 M-90.19325661506429 -14.760609394661605 C-89.90851127910841 -15.142142204008723, -89.62376594315252 -15.523675013355838, -89.20406472338968 -16.086036412270353 M-90.19325661506429 -14.760609394661605 C-89.94429308452841 -15.094197844535444, -89.69532955399255 -15.427786294409282, -89.20406472338968 -16.086036412270353 M-89.20406472338968 -16.086036412270353 C-88.95001119903792 -16.384462138028997, -88.69595767468614 -16.682887863787645, -88.13198483196045 -17.345362455817092 M-89.20406472338968 -16.086036412270353 C-88.96425780114954 -16.36772726853405, -88.72445087890941 -16.649418124797744, -88.13198483196045 -17.345362455817092 M-88.13198483196045 -17.345362455817092 C-87.86792551331672 -17.61802538198999, -87.60386619467299 -17.890688308162886, -86.98142234701089 -18.5334126844643 M-88.13198483196045 -17.345362455817092 C-87.7416305841312 -17.748435265380568, -87.35127633630194 -18.151508074944047, -86.98142234701089 -18.5334126844643 M-86.98142234701089 -18.5334126844643 C-86.64274052594155 -18.84099455332954, -86.3040587048722 -19.148576422194783, -85.75710517658653 -19.645305144986487 M-86.98142234701089 -18.5334126844643 C-86.55108919399478 -18.924229868042236, -86.12075604097868 -19.31504705162017, -85.75710517658653 -19.645305144986487 M-85.75710517658653 -19.645305144986487 C-85.42158135779374 -19.91287646180994, -85.08605753900096 -20.180447778633393, -84.46406430255585 -20.676470832763204 M-85.75710517658653 -19.645305144986487 C-85.24079873005103 -20.057045796607, -84.7244922835155 -20.46878644822751, -84.46406430255585 -20.676470832763204 M-84.46406430255585 -20.676470832763204 C-84.00888882884257 -20.99398153899691, -83.55371335512929 -21.31149224523061, -83.10761310722665 -21.622672466799 M-84.46406430255585 -20.676470832763204 C-84.02597609589445 -20.982062201197387, -83.58788788923304 -21.28765356963157, -83.10761310722665 -21.622672466799 M-83.10761310722665 -21.622672466799 C-82.62441390595961 -21.91559066220078, -82.14121470469256 -22.208508857602563, -81.69332553951841 -22.480021901620027 M-83.10761310722665 -21.622672466799 C-82.70513966009975 -21.866654235643843, -82.30266621297284 -22.110636004488683, -81.69332553951841 -22.480021901620027 M-81.69332553951841 -22.480021901620027 C-81.21484810701465 -22.72964327167782, -80.73637067451088 -22.979264641735615, -80.22701321041058 -23.244996104497716 M-81.69332553951841 -22.480021901620027 C-81.25496258239818 -22.708715575564774, -80.81659962527796 -22.937409249509525, -80.22701321041058 -23.244996104497716 M-80.22701321041058 -23.244996104497716 C-79.86549597516752 -23.40502906051206, -79.50397873992445 -23.565062016526404, -78.71470151178646 -23.91445163234599 M-80.22701321041058 -23.244996104497716 C-79.693712548396 -23.48107248776951, -79.16041188638143 -23.7171488710413, -78.71470151178646 -23.91445163234599 M-78.71470151178646 -23.91445163234599 C-78.39368059798728 -24.032590296108882, -78.07265968418812 -24.150728959871774, -77.16260485680553 -24.485637548803172 M-78.71470151178646 -23.91445163234599 C-78.27719321867426 -24.07545872849361, -77.83968492556204 -24.23646582464123, -77.16260485680553 -24.485637548803172 M-77.16260485680553 -24.485637548803172 C-76.56255704896108 -24.663728588456188, -75.96250924111662 -24.841819628109207, -75.57710114354681 -24.956206728419538 M-77.16260485680553 -24.485637548803172 C-76.54945405455729 -24.667617488416212, -75.93630325230905 -24.849597428029252, -75.57710114354681 -24.956206728419538 M-75.57710114354681 -24.956206728419538 C-74.93679318992254 -25.102352840434392, -74.29648523629825 -25.248498952449243, -73.96470554685754 -25.324225501499278 M-75.57710114354681 -24.956206728419538 C-75.16034780685371 -25.05132795795006, -74.74359447016059 -25.146449187480588, -73.96470554685754 -25.324225501499278 M-73.96470554685754 -25.324225501499278 C-73.36550978369966 -25.421098825654102, -72.76631402054177 -25.517972149808923, -72.33204374610233 -25.588181599964017 M-73.96470554685754 -25.324225501499278 C-73.39793277280481 -25.41585692821962, -72.83115999875206 -25.507488354939955, -72.33204374610233 -25.588181599964017 M-72.33204374610233 -25.588181599964017 C-71.90276820768632 -25.62959329487564, -71.47349266927033 -25.671004989787264, -70.68582469882529 -25.746990371586765 M-72.33204374610233 -25.588181599964017 C-71.87156522372139 -25.632603409211658, -71.41108670134045 -25.6770252184593, -70.68582469882529 -25.746990371586765 M-70.68582469882529 -25.746990371586765 C-70.21649391606776 -25.76204089629285, -69.74716313331022 -25.777091420998932, -69.0328130722046 -25.799999237060547 M-70.68582469882529 -25.746990371586765 C-70.14862903242135 -25.764217191020407, -69.61143336601741 -25.78144401045405, -69.0328130722046 -25.799999237060547 M-69.0328130722046 -25.799999237060547 C-69.0328130722046 -25.799999237060547, -69.03281307220459 -25.799999237060547, -69.03281307220459 -25.799999237060547 M-69.0328130722046 -25.799999237060547 C-69.0328130722046 -25.799999237060547, -69.03281307220459 -25.799999237060547, -69.03281307220459 -25.799999237060547" stroke="#9370DB" stroke-width="1.3" fill="none" stroke-dasharray="0 0" style=""></path></g><g class="label" style="" transform="translate(0, -18.299999237060547)"><rect></rect><g><rect class="background" style="stroke: none"></rect><text y="-10.1" style=""><tspan class="text-outer-tspan row" x="0" y="-0.1em" dy="1.1em"><tspan font-style="normal" class="text-inner-tspan" font-weight="normal">Encode</tspan><tspan font-style="normal" class="text-inner-tspan" font-weight="normal"> header</tspan><tspan font-style="normal" class="text-inner-tspan" font-weight="normal"> (name,</tspan></tspan><tspan class="text-outer-tspan row" x="0" y="1em" dy="1.1em"><tspan font-style="normal" class="text-inner-tspan" font-weight="normal">value)</tspan></tspan></text></g></g></g><g class="node default" id="gbd0a4a64-5eea-43f2-826f-c27555b4562a-light-flowchart-staticHit-1" data-look="classic" transform="translate(268.9546890258789, 230.8296890258789)"><polygon points="121.22968673706055,0 242.4593734741211,-121.22968673706055 121.22968673706055,-242.4593734741211 0,-121.22968673706055" class="label-container" transform="translate(-120.72968673706055, 121.22968673706055)"></polygon><g class="label" style="" transform="translate(0, -18.299999237060547)"><rect></rect><g><rect class="background" style="stroke: none"></rect><text y="-10.1" style=""><tspan class="text-outer-tspan row" x="0" y="-0.1em" dy="1.1em"><tspan font-style="normal" class="text-inner-tspan" font-weight="normal">Exact</tspan><tspan font-style="normal" class="text-inner-tspan" font-weight="normal"> match</tspan><tspan font-style="normal" class="text-inner-tspan" font-weight="normal"> in</tspan></tspan><tspan class="text-outer-tspan row" x="0" y="1em" dy="1.1em"><tspan font-style="normal" class="text-inner-tspan" font-weight="normal">static</tspan><tspan font-style="normal" class="text-inner-tspan" font-weight="normal"> table</tspan><tspan font-style="normal" class="text-inner-tspan" font-weight="normal"> (61</tspan><tspan font-style="normal" class="text-inner-tspan" font-weight="normal"> entries)?</tspan></tspan></text></g></g></g><g class="node default ok" id="gbd0a4a64-5eea-43f2-826f-c27555b4562a-light-flowchart-idx-3" data-look="classic" transform="translate(121.578125, 803.3656387329102)"><rect class="basic label-container" style="fill:#1F6E68 !important;stroke:#155752 !important" x="-113.578125" y="-33.29999923706055" width="227.15625" height="66.5999984741211"></rect><g class="label" style="color:#ffffff !important" transform="translate(0, -18.299999237060547)"><rect></rect><g><rect class="background" style="stroke: none"></rect><text y="-10.1" style="fill:#ffffff !important"><tspan class="text-outer-tspan row" x="0" y="-0.1em" dy="1.1em"><tspan font-style="normal" class="text-inner-tspan" font-weight="normal">Indexed</tspan><tspan font-style="normal" class="text-inner-tspan" font-weight="normal"> Header</tspan><tspan font-style="normal" class="text-inner-tspan" font-weight="normal"> Field</tspan></tspan><tspan class="text-outer-tspan row" x="0" y="1em" dy="1.1em"><tspan font-style="normal" class="text-inner-tspan" font-weight="normal">(1</tspan><tspan font-style="normal" class="text-inner-tspan" font-weight="normal"> byte</tspan><tspan font-style="normal" class="text-inner-tspan" font-weight="normal"> for</tspan><tspan font-style="normal" class="text-inner-tspan" font-weight="normal"> low</tspan><tspan font-style="normal" class="text-inner-tspan" font-weight="normal"> indices)</tspan></tspan></text></g></g></g><g class="node default" id="gbd0a4a64-5eea-43f2-826f-c27555b4562a-light-flowchart-dynHit-5" data-look="classic" transform="translate(393.9679718017578, 512.1250076293945)"><polygon points="87.06562423706055,0 174.1312484741211,-87.06562423706055 87.06562423706055,-174.1312484741211 0,-87.06562423706055" class="label-container" transform="translate(-86.56562423706055, 87.06562423706055)"></polygon><g class="label" style="" transform="translate(0, -18.299999237060547)"><rect></rect><g><rect class="background" style="stroke: none"></rect><text y="-10.1" style=""><tspan class="text-outer-tspan row" x="0" y="-0.1em" dy="1.1em"><tspan font-style="normal" class="text-inner-tspan" font-weight="normal">Exact</tspan><tspan font-style="normal" class="text-inner-tspan" font-weight="normal"> match</tspan><tspan font-style="normal" class="text-inner-tspan" font-weight="normal"> in</tspan></tspan><tspan class="text-outer-tspan row" x="0" y="1em" dy="1.1em"><tspan font-style="normal" class="text-inner-tspan" font-weight="normal">dynamic</tspan><tspan font-style="normal" class="text-inner-tspan" font-weight="normal"> table?</tspan></tspan></text></g></g></g><g class="node default" id="gbd0a4a64-5eea-43f2-826f-c27555b4562a-light-flowchart-sensitive-9" data-look="classic" transform="translate(416.3312530517578, 803.3656387329102)"><polygon points="131.17499923706055,0 262.3499984741211,-131.17499923706055 131.17499923706055,-262.3499984741211 0,-131.17499923706055" class="label-container" transform="translate(-130.67499923706055, 131.17499923706055)"></polygon><g class="label" style="" transform="translate(0, -18.299999237060547)"><rect></rect><g><rect class="background" style="stroke: none"></rect><text y="-10.1" style=""><tspan class="text-outer-tspan row" x="0" y="-0.1em" dy="1.1em"><tspan font-style="normal" class="text-inner-tspan" font-weight="normal">Sensitive</tspan><tspan font-style="normal" class="text-inner-tspan" font-weight="normal"> header?</tspan></tspan><tspan class="text-outer-tspan row" x="0" y="1em" dy="1.1em"><tspan font-style="normal" class="text-inner-tspan" font-weight="normal">(Authorization,</tspan><tspan font-style="normal" class="text-inner-tspan" font-weight="normal"> Cookie,</tspan><tspan font-style="normal" class="text-inner-tspan" font-weight="normal"> ...)</tspan></tspan></text></g></g></g><g class="node default warn" id="gbd0a4a64-5eea-43f2-826f-c27555b4562a-light-flowchart-neverIdx-11" data-look="classic" transform="translate(284.9039077758789, 1101.1375198364258)"><rect class="basic label-container" style="fill:#B43A3A !important;stroke:#8E2828 !important" x="-119.2578125" y="-42.099998474121094" width="238.515625" height="84.19999694824219"></rect><g class="label" style="color:#ffffff !important" transform="translate(0, -27.099998474121094)"><rect></rect><g><rect class="background" style="stroke: none"></rect><text y="-10.1" style="fill:#ffffff !important"><tspan class="text-outer-tspan row" x="0" y="-0.1em" dy="1.1em"><tspan font-style="normal" class="text-inner-tspan" font-weight="normal">Literal</tspan><tspan font-style="normal" class="text-inner-tspan" font-weight="normal"> Never</tspan><tspan font-style="normal" class="text-inner-tspan" font-weight="normal"> Indexed</tspan></tspan><tspan class="text-outer-tspan row" x="0" y="1em" dy="1.1em"><tspan font-style="normal" class="text-inner-tspan" font-weight="normal">(intermediaries</tspan><tspan font-style="normal" class="text-inner-tspan" font-weight="normal"> must</tspan><tspan font-style="normal" class="text-inner-tspan" font-weight="normal"> not</tspan></tspan><tspan class="text-outer-tspan row" x="0" y="2.1em" dy="1.1em"><tspan font-style="normal" class="text-inner-tspan" font-weight="normal">store)</tspan></tspan></text></g></g></g><g class="node default" id="gbd0a4a64-5eea-43f2-826f-c27555b4562a-light-flowchart-nameHit-13" data-look="classic" transform="translate(547.7585983276367, 1101.1375198364258)"><polygon points="93.59687423706055,0 187.1937484741211,-93.59687423706055 93.59687423706055,-187.1937484741211 0,-93.59687423706055" class="label-container" transform="translate(-93.09687423706055, 93.59687423706055)"></polygon><g class="label" style="" transform="translate(0, -18.299999237060547)"><rect></rect><g><rect class="background" style="stroke: none"></rect><text y="-10.1" style=""><tspan class="text-outer-tspan row" x="0" y="-0.1em" dy="1.1em"><tspan font-style="normal" class="text-inner-tspan" font-weight="normal">Header</tspan><tspan font-style="normal" class="text-inner-tspan" font-weight="normal"> name</tspan></tspan><tspan class="text-outer-tspan row" x="0" y="1em" dy="1.1em"><tspan font-style="normal" class="text-inner-tspan" font-weight="normal">indexed</tspan><tspan font-style="normal" class="text-inner-tspan" font-weight="normal"> already?</tspan></tspan></text></g></g></g><g class="node default" id="gbd0a4a64-5eea-43f2-826f-c27555b4562a-light-flowchart-litWith-15" data-look="classic" transform="translate(416.8250045776367, 1301.0343971252441)"><rect class="basic label-container" style="" x="-105.578125" y="-33.29999923706055" width="211.15625" height="66.5999984741211"></rect><g class="label" style="" transform="translate(0, -18.299999237060547)"><rect></rect><g><rect class="background" style="stroke: none"></rect><text y="-10.1" style=""><tspan class="text-outer-tspan row" x="0" y="-0.1em" dy="1.1em"><tspan font-style="normal" class="text-inner-tspan" font-weight="normal">Literal</tspan><tspan font-style="normal" class="text-inner-tspan" font-weight="normal"> w/</tspan><tspan font-style="normal" class="text-inner-tspan" font-weight="normal"> Indexing</tspan></tspan><tspan class="text-outer-tspan row" x="0" y="1em" dy="1.1em"><tspan font-style="normal" class="text-inner-tspan" font-weight="normal">(name</tspan><tspan font-style="normal" class="text-inner-tspan" font-weight="normal"> index</tspan><tspan font-style="normal" class="text-inner-tspan" font-weight="normal"> +</tspan><tspan font-style="normal" class="text-inner-tspan" font-weight="normal"> value)</tspan></tspan></text></g></g></g><g class="node default" id="gbd0a4a64-5eea-43f2-826f-c27555b4562a-light-flowchart-litWithName-17" data-look="classic" transform="translate(678.6921920776367, 1301.0343971252441)"><rect class="basic label-container" style="" x="-106.2890625" y="-33.29999923706055" width="212.578125" height="66.5999984741211"></rect><g class="label" style="" transform="translate(0, -18.299999237060547)"><rect></rect><g><rect class="background" style="stroke: none"></rect><text y="-10.1" style=""><tspan class="text-outer-tspan row" x="0" y="-0.1em" dy="1.1em"><tspan font-style="normal" class="text-inner-tspan" font-weight="normal">Literal</tspan><tspan font-style="normal" class="text-inner-tspan" font-weight="normal"> w/</tspan><tspan font-style="normal" class="text-inner-tspan" font-weight="normal"> Indexing</tspan></tspan><tspan class="text-outer-tspan row" x="0" y="1em" dy="1.1em"><tspan font-style="normal" class="text-inner-tspan" font-weight="normal">(name</tspan><tspan font-style="normal" class="text-inner-tspan" font-weight="normal"> string</tspan><tspan font-style="normal" class="text-inner-tspan" font-weight="normal"> +</tspan><tspan font-style="normal" class="text-inner-tspan" font-weight="normal"> value)</tspan></tspan></text></g></g></g><g class="node default neutral" id="gbd0a4a64-5eea-43f2-826f-c27555b4562a-light-flowchart-addDyn-19" data-look="classic" transform="translate(547.7585983276367, 1417.6343955993652)"><rect class="basic label-container" style="fill:#5A5A5A !important;stroke:#3D3D3D !important" x="-121.2265625" y="-33.29999923706055" width="242.453125" height="66.5999984741211"></rect><g class="label" style="color:#ffffff !important" transform="translate(0, -18.299999237060547)"><rect></rect><g><rect class="background" style="stroke: none"></rect><text y="-10.1" style="fill:#ffffff !important"><tspan class="text-outer-tspan row" x="0" y="-0.1em" dy="1.1em"><tspan font-style="normal" class="text-inner-tspan" font-weight="normal">Append</tspan><tspan font-style="normal" class="text-inner-tspan" font-weight="normal"> to</tspan><tspan font-style="normal" class="text-inner-tspan" font-weight="normal"> dynamic</tspan><tspan font-style="normal" class="text-inner-tspan" font-weight="normal"> table</tspan></tspan><tspan class="text-outer-tspan row" x="0" y="1em" dy="1.1em"><tspan font-style="normal" class="text-inner-tspan" font-weight="normal">(FIFO</tspan><tspan font-style="normal" class="text-inner-tspan" font-weight="normal"> eviction</tspan><tspan font-style="normal" class="text-inner-tspan" font-weight="normal"> over</tspan><tspan font-style="normal" class="text-inner-tspan" font-weight="normal"> 4</tspan><tspan font-style="normal" class="text-inner-tspan" font-weight="normal"> KiB)</tspan></tspan></text></g></g></g></g></g></g><defs><filter id="gbd0a4a64-5eea-43f2-826f-c27555b4562a-light-drop-shadow" height="130%" width="130%"><feDropShadow dx="4" dy="4" stdDeviation="0" flood-opacity="0.06" flood-color="#000000"></feDropShadow></filter></defs><defs><filter id="gbd0a4a64-5eea-43f2-826f-c27555b4562a-light-drop-shadow-small" height="150%" width="150%"><feDropShadow dx="2" dy="2" stdDeviation="0" flood-opacity="0.06" flood-color="#000000"></feDropShadow></filter></defs></svg>