<svg id="my-svg" width="100%" xmlns="http://www.w3.org/2000/svg" xmlns:xlink="http://www.w3.org/1999/xlink" class="erDiagram" style="max-width: 327.91px; background-color: white;" viewBox="0 0 327.91015625 944.75" role="graphics-document document" aria-roledescription="er"><style>#my-svg{font-family:"trebuchet ms",verdana,arial,sans-serif;font-size:16px;fill:#333;}@keyframes edge-animation-frame{from{stroke-dashoffset:0;}}@keyframes dash{to{stroke-dashoffset:0;}}#my-svg .edge-animation-slow{stroke-dasharray:9,5!important;stroke-dashoffset:900;animation:dash 50s linear infinite;stroke-linecap:round;}#my-svg .edge-animation-fast{stroke-dasharray:9,5!important;stroke-dashoffset:900;animation:dash 20s linear infinite;stroke-linecap:round;}#my-svg .error-icon{fill:#552222;}#my-svg .error-text{fill:#552222;stroke:#552222;}#my-svg .edge-thickness-normal{stroke-width:1px;}#my-svg .edge-thickness-thick{stroke-width:3.5px;}#my-svg .edge-pattern-solid{stroke-dasharray:0;}#my-svg .edge-thickness-invisible{stroke-width:0;fill:none;}#my-svg .edge-pattern-dashed{stroke-dasharray:3;}#my-svg .edge-pattern-dotted{stroke-dasharray:2;}#my-svg .marker{fill:#333333;stroke:#333333;}#my-svg .marker.cross{stroke:#333333;}#my-svg svg{font-family:"trebuchet ms",verdana,arial,sans-serif;font-size:16px;}#my-svg p{margin:0;}#my-svg .entityBox{fill:#ECECFF;stroke:#9370DB;}#my-svg .relationshipLabelBox{fill:hsl(80, 100%, 96.2745098039%);opacity:0.7;background-color:hsl(80, 100%, 96.2745098039%);}#my-svg .relationshipLabelBox rect{opacity:0.5;}#my-svg .labelBkg{background-color:rgba(248.6666666666, 255, 235.9999999999, 0.5);}#my-svg .edgeLabel .label{fill:#9370DB;font-size:14px;}#my-svg .label{font-family:"trebuchet ms",verdana,arial,sans-serif;color:#333;}#my-svg .edge-pattern-dashed{stroke-dasharray:8,8;}#my-svg .node rect,#my-svg .node circle,#my-svg .node ellipse,#my-svg .node polygon{fill:#ECECFF;stroke:#9370DB;stroke-width:1px;}#my-svg .relationshipLine{stroke:#333333;stroke-width:1;fill:none;}#my-svg .marker{fill:none!important;stroke:#333333!important;stroke-width:1;}#my-svg .edgeLabel{background-color:rgba(232,232,232, 0.8);}#my-svg .edgeLabel .label rect{fill:rgba(232,232,232, 0.8);}#my-svg .edgeLabel .label text{fill:#333;}#my-svg :root{--mermaid-font-family:"trebuchet ms",verdana,arial,sans-serif;}</style><g><defs><marker id="my-svg_er-onlyOneStart" class="marker onlyOne er" refX="0" refY="9" markerWidth="18" markerHeight="18" orient="auto"><path d="M9,0 L9,18 M15,0 L15,18"/></marker></defs><defs><marker id="my-svg_er-onlyOneEnd" class="marker onlyOne er" refX="18" refY="9" markerWidth="18" markerHeight="18" orient="auto"><path d="M3,0 L3,18 M9,0 L9,18"/></marker></defs><defs><marker id="my-svg_er-zeroOrOneStart" class="marker zeroOrOne er" refX="0" refY="9" markerWidth="30" markerHeight="18" orient="auto"><circle fill="white" cx="21" cy="9" r="6"/><path d="M9,0 L9,18"/></marker></defs><defs><marker id="my-svg_er-zeroOrOneEnd" class="marker zeroOrOne er" refX="30" refY="9" markerWidth="30" markerHeight="18" orient="auto"><circle fill="white" cx="9" cy="9" r="6"/><path d="M21,0 L21,18"/></marker></defs><defs><marker id="my-svg_er-oneOrMoreStart" class="marker oneOrMore er" refX="18" refY="18" markerWidth="45" markerHeight="36" orient="auto"><path d="M0,18 Q 18,0 36,18 Q 18,36 0,18 M42,9 L42,27"/></marker></defs><defs><marker id="my-svg_er-oneOrMoreEnd" class="marker oneOrMore er" refX="27" refY="18" markerWidth="45" markerHeight="36" orient="auto"><path d="M3,9 L3,27 M9,18 Q27,0 45,18 Q27,36 9,18"/></marker></defs><defs><marker id="my-svg_er-zeroOrMoreStart" class="marker zeroOrMore er" refX="18" refY="18" markerWidth="57" markerHeight="36" orient="auto"><circle fill="white" cx="48" cy="18" r="6"/><path d="M0,18 Q18,0 36,18 Q18,36 0,18"/></marker></defs><defs><marker id="my-svg_er-zeroOrMoreEnd" class="marker zeroOrMore er" refX="39" refY="18" markerWidth="57" markerHeight="36" orient="auto"><circle fill="white" cx="9" cy="18" r="6"/><path d="M21,18 Q39,0 57,18 Q39,36 21,18"/></marker></defs><g class="root"><g class="clusters"/><g class="edgePaths"><path d="M179.848,179L185.861,187.417C191.874,195.833,203.9,212.667,209.913,229.5C215.926,246.333,215.926,263.167,215.926,271.583L215.926,280" id="id_entity-PROJECT-0_entity-STATUS-1_0" class="edge-thickness-normal edge-pattern-solid relationshipLine" style="undefined;;;undefined" data-edge="true" data-et="edge" data-id="id_entity-PROJECT-0_entity-STATUS-1_0" data-points="W3sieCI6MTc5Ljg0NzkyOTExMzA1MTQ2LCJ5IjoxNzl9LHsieCI6MjE1LjkyNTc4MTI1LCJ5IjoyMjkuNX0seyJ4IjoyMTUuOTI1NzgxMjUsInkiOjI4MH1d" marker-start="url(#my-svg_er-onlyOneStart)" marker-end="url(#my-svg_er-zeroOrMoreEnd)"/><path d="M57.683,179L51.67,187.417C45.657,195.833,33.631,212.667,27.618,250.875C21.605,289.083,21.605,348.667,21.605,408.25C21.605,467.833,21.605,527.417,26.425,565.625C31.245,603.833,40.884,620.667,45.704,629.083L50.523,637.5" id="id_entity-PROJECT-0_entity-WORKFLOW_TRANSITION-2_1" class="edge-thickness-normal edge-pattern-solid relationshipLine" style="undefined;;;undefined" data-edge="true" data-et="edge" data-id="id_entity-PROJECT-0_entity-WORKFLOW_TRANSITION-2_1" data-points="W3sieCI6NTcuNjgzMzIwODg2OTQ4NTMsInkiOjE3OX0seyJ4IjoyMS42MDU0Njg3NSwieSI6MjI5LjV9LHsieCI6MjEuNjA1NDY4NzUsInkiOjQwOC4yNX0seyJ4IjoyMS42MDU0Njg3NSwieSI6NTg3fSx7IngiOjUwLjUyMzMwMzMwNjUyNzE3LCJ5Ijo2MzcuNX1d" marker-start="url(#my-svg_er-onlyOneStart)" marker-end="url(#my-svg_er-zeroOrMoreEnd)"/><path d="M158.726,536.5L154.972,544.917C151.218,553.333,143.711,570.167,139.957,587C136.203,603.833,136.203,620.667,136.203,629.083L136.203,637.5" id="id_entity-STATUS-1_entity-WORKFLOW_TRANSITION-2_2" class="edge-thickness-normal edge-pattern-solid relationshipLine" style="undefined;;;undefined" data-edge="true" data-et="edge" data-id="id_entity-STATUS-1_entity-WORKFLOW_TRANSITION-2_2" data-points="W3sieCI6MTU4LjcyNjE2OTE0MzM1NjYzLCJ5Ijo1MzYuNX0seyJ4IjoxMzYuMjAzMTI1LCJ5Ijo1ODd9LHsieCI6MTM2LjIwMzEyNSwieSI6NjM3LjV9XQ==" marker-start="url(#my-svg_er-onlyOneStart)" marker-end="url(#my-svg_er-zeroOrMoreEnd)"/><path d="M230.783,536.5L231.758,544.917C232.733,553.333,234.683,570.167,231.434,587C228.185,603.833,219.738,620.667,215.514,629.083L211.29,637.5" id="id_entity-STATUS-1_entity-WORKFLOW_TRANSITION-2_3" class="edge-thickness-normal edge-pattern-solid relationshipLine" style="undefined;;;undefined" data-edge="true" data-et="edge" data-id="id_entity-STATUS-1_entity-WORKFLOW_TRANSITION-2_3" data-points="W3sieCI6MjMwLjc4MjcxNDE2MDgzOTE2LCJ5Ijo1MzYuNX0seyJ4IjoyMzYuNjMyODEyNSwieSI6NTg3fSx7IngiOjIxMS4yOTAxNTU1NjY4MzMyMiwieSI6NjM3LjV9XQ==" marker-start="url(#my-svg_er-onlyOneStart)" marker-end="url(#my-svg_er-zeroOrMoreEnd)"/></g><g class="edgeLabels"><g class="edgeLabel" transform="translate(215.92578125, 229.5)"><g class="label" data-id="id_entity-PROJECT-0_entity-STATUS-1_0" transform="translate(-10.3359375, -10.5)"><foreignObject width="20.671875" height="21"><div xmlns="http://www.w3.org/1999/xhtml" class="labelBkg" style="display: table-cell; white-space: nowrap; line-height: 1.5; max-width: 200px; text-align: center;"><span class="edgeLabel"><p>has</p></span></div></foreignObject></g></g><g class="edgeLabel" transform="translate(21.60546875, 408.25)"><g class="label" data-id="id_entity-PROJECT-0_entity-WORKFLOW_TRANSITION-2_1" transform="translate(-10.3359375, -10.5)"><foreignObject width="20.671875" height="21"><div xmlns="http://www.w3.org/1999/xhtml" class="labelBkg" style="display: table-cell; white-space: nowrap; line-height: 1.5; max-width: 200px; text-align: center;"><span class="edgeLabel"><p>has</p></span></div></foreignObject></g></g><g class="edgeLabel" transform="translate(136.203125, 587)"><g class="label" data-id="id_entity-STATUS-1_entity-WORKFLOW_TRANSITION-2_2" transform="translate(-14.875, -10.5)"><foreignObject width="29.75" height="21"><div xmlns="http://www.w3.org/1999/xhtml" class="labelBkg" style="display: table-cell; white-space: nowrap; line-height: 1.5; max-width: 200px; text-align: center;"><span class="edgeLabel"><p>from</p></span></div></foreignObject></g></g><g class="edgeLabel" transform="translate(236.6328125, 587)"><g class="label" data-id="id_entity-STATUS-1_entity-WORKFLOW_TRANSITION-2_3" transform="translate(-6.5390625, -10.5)"><foreignObject width="13.078125" height="21"><div xmlns="http://www.w3.org/1999/xhtml" class="labelBkg" style="display: table-cell; white-space: nowrap; line-height: 1.5; max-width: 200px; text-align: center;"><span class="edgeLabel"><p>to</p></span></div></foreignObject></g></g></g><g class="nodes"><g class="node default" id="entity-PROJECT-0" transform="translate(118.765625, 93.5)"><g style=""><path d="M-86.3359375 -85.5 L86.3359375 -85.5 L86.3359375 85.5 L-86.3359375 85.5" stroke="none" stroke-width="0" fill="#ECECFF"/><path d="M-86.3359375 -85.5 C-37.72168514513783 -85.5, 10.892567209724334 -85.5, 86.3359375 -85.5 M-86.3359375 -85.5 C-19.158456072427057 -85.5, 48.019025355145885 -85.5, 86.3359375 -85.5 M86.3359375 -85.5 C86.3359375 -49.77648985239967, 86.3359375 -14.052979704799341, 86.3359375 85.5 M86.3359375 -85.5 C86.3359375 -18.837788627607182, 86.3359375 47.824422744785636, 86.3359375 85.5 M86.3359375 85.5 C48.275567992303806 85.5, 10.215198484607612 85.5, -86.3359375 85.5 M86.3359375 85.5 C49.99820492502659 85.5, 13.660472350053183 85.5, -86.3359375 85.5 M-86.3359375 85.5 C-86.3359375 21.375534214939407, -86.3359375 -42.74893157012119, -86.3359375 -85.5 M-86.3359375 85.5 C-86.3359375 44.70803624747956, -86.3359375 3.916072494959124, -86.3359375 -85.5" stroke="#9370DB" stroke-width="1.3" fill="none" stroke-dasharray="0 0"/></g><g style="" class="row-rect-odd"><path d="M-86.3359375 -42.75 L86.3359375 -42.75 L86.3359375 0 L-86.3359375 0" stroke="none" stroke-width="0" fill="hsl(240, 100%, 100%)"/><path d="M-86.3359375 -42.75 C-23.20449860592923 -42.75, 39.92694028814154 -42.75, 86.3359375 -42.75 M-86.3359375 -42.75 C-48.45245634944474 -42.75, -10.568975198889476 -42.75, 86.3359375 -42.75 M86.3359375 -42.75 C86.3359375 -34.15994583181139, 86.3359375 -25.569891663622787, 86.3359375 0 M86.3359375 -42.75 C86.3359375 -34.113490061740194, 86.3359375 -25.47698012348039, 86.3359375 0 M86.3359375 0 C51.592976620285 0, 16.85001574057 0, -86.3359375 0 M86.3359375 0 C51.03938237415537 0, 15.742827248310746 0, -86.3359375 0 M-86.3359375 0 C-86.3359375 -12.45860252649834, -86.3359375 -24.91720505299668, -86.3359375 -42.75 M-86.3359375 0 C-86.3359375 -13.17506785711617, -86.3359375 -26.35013571423234, -86.3359375 -42.75" stroke="#9370DB" stroke-width="1.3" fill="none" stroke-dasharray="0 0"/></g><g style="" class="row-rect-even"><path d="M-86.3359375 0 L86.3359375 0 L86.3359375 42.75 L-86.3359375 42.75" stroke="none" stroke-width="0" fill="hsl(240, 100%, 97.2745098039%)"/><path d="M-86.3359375 0 C-33.422049354766216 0, 19.49183879046757 0, 86.3359375 0 M-86.3359375 0 C-39.61775224456818 0, 7.1004330108636395 0, 86.3359375 0 M86.3359375 0 C86.3359375 16.906835977931184, 86.3359375 33.81367195586237, 86.3359375 42.75 M86.3359375 0 C86.3359375 11.346990273021813, 86.3359375 22.693980546043626, 86.3359375 42.75 M86.3359375 42.75 C24.061319227711508 42.75, -38.213299044576985 42.75, -86.3359375 42.75 M86.3359375 42.75 C48.85804865305547 42.75, 11.380159806110939 42.75, -86.3359375 42.75 M-86.3359375 42.75 C-86.3359375 32.63043043411558, -86.3359375 22.510860868231156, -86.3359375 0 M-86.3359375 42.75 C-86.3359375 31.252499943046544, -86.3359375 19.754999886093085, -86.3359375 0" stroke="#9370DB" stroke-width="1.3" fill="none" stroke-dasharray="0 0"/></g><g style="" class="row-rect-odd"><path d="M-86.3359375 42.75 L86.3359375 42.75 L86.3359375 85.5 L-86.3359375 85.5" stroke="none" stroke-width="0" fill="hsl(240, 100%, 100%)"/><path d="M-86.3359375 42.75 C-23.024611013193407 42.75, 40.286715473613185 42.75, 86.3359375 42.75 M-86.3359375 42.75 C-32.76713187078096 42.75, 20.801673758438085 42.75, 86.3359375 42.75 M86.3359375 42.75 C86.3359375 55.432529740939856, 86.3359375 68.11505948187971, 86.3359375 85.5 M86.3359375 42.75 C86.3359375 58.136161558271795, 86.3359375 73.52232311654359, 86.3359375 85.5 M86.3359375 85.5 C25.70227255876282 85.5, -34.93139238247436 85.5, -86.3359375 85.5 M86.3359375 85.5 C31.300470798531343 85.5, -23.734995902937314 85.5, -86.3359375 85.5 M-86.3359375 85.5 C-86.3359375 74.7477869286324, -86.3359375 63.99557385726477, -86.3359375 42.75 M-86.3359375 85.5 C-86.3359375 70.0757291992451, -86.3359375 54.65145839849021, -86.3359375 42.75" stroke="#9370DB" stroke-width="1.3" fill="none" stroke-dasharray="0 0"/></g><g class="label name" transform="translate(-32.0390625, -76.125)" style=""><foreignObject width="64.078125" height="24"><div xmlns="http://www.w3.org/1999/xhtml" style="display: table-cell; white-space: nowrap; line-height: 1.5; max-width: 168px; text-align: start;"><span class="nodeLabel"><p>PROJECT</p></span></div></foreignObject></g><g class="label attribute-type" transform="translate(-73.8359375, -33.375)" style=""><foreignObject width="30.96875" height="24"><div xmlns="http://www.w3.org/1999/xhtml" style="display: table-cell; white-space: nowrap; line-height: 1.5; max-width: 128px; text-align: start;"><span class="nodeLabel"><p>uuid</p></span></div></foreignObject></g><g class="label attribute-name" transform="translate(-8.4609375, -33.375)" style=""><foreignObject width="13.484375" height="24"><div xmlns="http://www.w3.org/1999/xhtml" style="display: table-cell; white-space: nowrap; line-height: 1.5; max-width: 112px; text-align: start;"><span class="nodeLabel"><p>id</p></span></div></foreignObject></g><g class="label attribute-keys" transform="translate(55.6953125, -33.375)" style=""><foreignObject width="18.140625" height="24"><div xmlns="http://www.w3.org/1999/xhtml" style="display: table-cell; white-space: nowrap; line-height: 1.5; max-width: 121px; text-align: start;"><span class="nodeLabel"><p>PK</p></span></div></foreignObject></g><g class="label attribute-comment" transform="translate(98.8359375, -33.375)" style=""><foreignObject width="0" height="0"><div xmlns="http://www.w3.org/1999/xhtml" style="display: table-cell; white-space: nowrap; line-height: 1.5; max-width: 100px; text-align: start;"><span class="nodeLabel"></span></div></foreignObject></g><g class="label attribute-type" transform="translate(-73.8359375, 9.375)" style=""><foreignObject width="40.375" height="24"><div xmlns="http://www.w3.org/1999/xhtml" style="display: table-cell; white-space: nowrap; line-height: 1.5; max-width: 136px; text-align: start;"><span class="nodeLabel"><p>string</p></span></div></foreignObject></g><g class="label attribute-name" transform="translate(-8.4609375, 9.375)" style=""><foreignObject width="24.6875" height="24"><div xmlns="http://www.w3.org/1999/xhtml" style="display: table-cell; white-space: nowrap; line-height: 1.5; max-width: 123px; text-align: start;"><span class="nodeLabel"><p>key</p></span></div></foreignObject></g><g class="label attribute-keys" transform="translate(55.6953125, 9.375)" style=""><foreignObject width="0" height="0"><div xmlns="http://www.w3.org/1999/xhtml" style="display: table-cell; white-space: nowrap; line-height: 1.5; max-width: 100px; text-align: start;"><span class="nodeLabel"></span></div></foreignObject></g><g class="label attribute-comment" transform="translate(98.8359375, 9.375)" style=""><foreignObject width="0" height="0"><div xmlns="http://www.w3.org/1999/xhtml" style="display: table-cell; white-space: nowrap; line-height: 1.5; max-width: 100px; text-align: start;"><span class="nodeLabel"></span></div></foreignObject></g><g class="label attribute-type" transform="translate(-73.8359375, 52.125)" style=""><foreignObject width="40.375" height="24"><div xmlns="http://www.w3.org/1999/xhtml" style="display: table-cell; white-space: nowrap; line-height: 1.5; max-width: 136px; text-align: start;"><span class="nodeLabel"><p>string</p></span></div></foreignObject></g><g class="label attribute-name" transform="translate(-8.4609375, 52.125)" style=""><foreignObject width="39.15625" height="24"><div xmlns="http://www.w3.org/1999/xhtml" style="display: table-cell; white-space: nowrap; line-height: 1.5; max-width: 135px; text-align: start;"><span class="nodeLabel"><p>name</p></span></div></foreignObject></g><g class="label attribute-keys" transform="translate(55.6953125, 52.125)" style=""><foreignObject width="0" height="0"><div xmlns="http://www.w3.org/1999/xhtml" style="display: table-cell; white-space: nowrap; line-height: 1.5; max-width: 100px; text-align: start;"><span class="nodeLabel"></span></div></foreignObject></g><g class="label attribute-comment" transform="translate(98.8359375, 52.125)" style=""><foreignObject width="0" height="0"><div xmlns="http://www.w3.org/1999/xhtml" style="display: table-cell; white-space: nowrap; line-height: 1.5; max-width: 100px; text-align: start;"><span class="nodeLabel"></span></div></foreignObject></g><g class="divider"><path d="M-86.3359375 -42.75 C-48.180585851820204 -42.75, -10.025234203640409 -42.75, 86.3359375 -42.75 M-86.3359375 -42.75 C-32.5208601961819 -42.75, 21.2942171076362 -42.75, 86.3359375 -42.75" stroke="#9370DB" stroke-width="1.3" fill="none" stroke-dasharray="0 0"/></g><g class="divider"><path d="M-20.9609375 -42.75 C-20.9609375 -2.8049455567390353, -20.9609375 37.14010888652193, -20.9609375 85.5 M-20.9609375 -42.75 C-20.9609375 5.834046962042606, -20.9609375 54.41809392408521, -20.9609375 85.5" stroke="#9370DB" stroke-width="1.3" fill="none" stroke-dasharray="0 0"/></g><g class="divider"><path d="M43.1953125 -42.75 C43.1953125 -8.86262444815624, 43.1953125 25.02475110368752, 43.1953125 85.5 M43.1953125 -42.75 C43.1953125 -6.786612722089863, 43.1953125 29.176774555820273, 43.1953125 85.5" stroke="#9370DB" stroke-width="1.3" fill="none" stroke-dasharray="0 0"/></g><g class="divider"><path d="M-86.3359375 -42.75 C-47.07853175792495 -42.75, -7.821126015849899 -42.75, 86.3359375 -42.75 M-86.3359375 -42.75 C-49.3991958136129 -42.75, -12.462454127225797 -42.75, 86.3359375 -42.75" stroke="#9370DB" stroke-width="1.3" fill="none" stroke-dasharray="0 0"/></g></g><g class="node default" id="entity-STATUS-1" transform="translate(215.92578125, 408.25)"><g style=""><path d="M-103.984375 -128.25 L103.984375 -128.25 L103.984375 128.25 L-103.984375 128.25" stroke="none" stroke-width="0" fill="#ECECFF"/><path d="M-103.984375 -128.25 C-41.12463483903406 -128.25, 21.735105321931883 -128.25, 103.984375 -128.25 M-103.984375 -128.25 C-32.85306901500185 -128.25, 38.2782369699963 -128.25, 103.984375 -128.25 M103.984375 -128.25 C103.984375 -39.55752152047111, 103.984375 49.134956959057774, 103.984375 128.25 M103.984375 -128.25 C103.984375 -58.68111651642836, 103.984375 10.887766967143278, 103.984375 128.25 M103.984375 128.25 C57.66949101939402 128.25, 11.354607038788046 128.25, -103.984375 128.25 M103.984375 128.25 C55.63794190524381 128.25, 7.291508810487613 128.25, -103.984375 128.25 M-103.984375 128.25 C-103.984375 40.47230281595377, -103.984375 -47.305394368092465, -103.984375 -128.25 M-103.984375 128.25 C-103.984375 62.366510072475506, -103.984375 -3.5169798550489872, -103.984375 -128.25" stroke="#9370DB" stroke-width="1.3" fill="none" stroke-dasharray="0 0"/></g><g style="" class="row-rect-odd"><path d="M-103.984375 -85.5 L103.984375 -85.5 L103.984375 -42.75 L-103.984375 -42.75" stroke="none" stroke-width="0" fill="hsl(240, 100%, 100%)"/><path d="M-103.984375 -85.5 C-51.680625479148446 -85.5, 0.6231240417031074 -85.5, 103.984375 -85.5 M-103.984375 -85.5 C-51.497282094097365 -85.5, 0.9898108118052704 -85.5, 103.984375 -85.5 M103.984375 -85.5 C103.984375 -74.84233799048204, 103.984375 -64.18467598096409, 103.984375 -42.75 M103.984375 -85.5 C103.984375 -76.12731395741477, 103.984375 -66.75462791482954, 103.984375 -42.75 M103.984375 -42.75 C31.032869142727847 -42.75, -41.918636714544306 -42.75, -103.984375 -42.75 M103.984375 -42.75 C40.09738883978038 -42.75, -23.789597320439242 -42.75, -103.984375 -42.75 M-103.984375 -42.75 C-103.984375 -56.343950526704035, -103.984375 -69.93790105340807, -103.984375 -85.5 M-103.984375 -42.75 C-103.984375 -55.17034509318543, -103.984375 -67.59069018637086, -103.984375 -85.5" stroke="#9370DB" stroke-width="1.3" fill="none" stroke-dasharray="0 0"/></g><g style="" class="row-rect-even"><path d="M-103.984375 -42.75 L103.984375 -42.75 L103.984375 0 L-103.984375 0" stroke="none" stroke-width="0" fill="hsl(240, 100%, 97.2745098039%)"/><path d="M-103.984375 -42.75 C-24.02233282292633 -42.75, 55.93970935414734 -42.75, 103.984375 -42.75 M-103.984375 -42.75 C-60.56069338072309 -42.75, -17.137011761446175 -42.75, 103.984375 -42.75 M103.984375 -42.75 C103.984375 -26.94964498039925, 103.984375 -11.149289960798498, 103.984375 0 M103.984375 -42.75 C103.984375 -33.907505250135735, 103.984375 -25.065010500271473, 103.984375 0 M103.984375 0 C35.56031957550438 0, -32.86373584899124 0, -103.984375 0 M103.984375 0 C30.67393839230813 0, -42.63649821538374 0, -103.984375 0 M-103.984375 0 C-103.984375 -15.986941930854833, -103.984375 -31.973883861709666, -103.984375 -42.75 M-103.984375 0 C-103.984375 -11.434174381438101, -103.984375 -22.868348762876202, -103.984375 -42.75" stroke="#9370DB" stroke-width="1.3" fill="none" stroke-dasharray="0 0"/></g><g style="" class="row-rect-odd"><path d="M-103.984375 0 L103.984375 0 L103.984375 42.75 L-103.984375 42.75" stroke="none" stroke-width="0" fill="hsl(240, 100%, 100%)"/><path d="M-103.984375 0 C-34.20615343078849 0, 35.57206813842302 0, 103.984375 0 M-103.984375 0 C-35.97350508094965 0, 32.0373648381007 0, 103.984375 0 M103.984375 0 C103.984375 11.002336454736666, 103.984375 22.00467290947333, 103.984375 42.75 M103.984375 0 C103.984375 9.034469807215121, 103.984375 18.068939614430242, 103.984375 42.75 M103.984375 42.75 C28.91004954599522 42.75, -46.16427590800956 42.75, -103.984375 42.75 M103.984375 42.75 C29.292470343832193 42.75, -45.399434312335615 42.75, -103.984375 42.75 M-103.984375 42.75 C-103.984375 30.24014887244129, -103.984375 17.730297744882574, -103.984375 0 M-103.984375 42.75 C-103.984375 28.21683962119913, -103.984375 13.683679242398263, -103.984375 0" stroke="#9370DB" stroke-width="1.3" fill="none" stroke-dasharray="0 0"/></g><g style="" class="row-rect-even"><path d="M-103.984375 42.75 L103.984375 42.75 L103.984375 85.5 L-103.984375 85.5" stroke="none" stroke-width="0" fill="hsl(240, 100%, 97.2745098039%)"/><path d="M-103.984375 42.75 C-31.21425525661799 42.75, 41.55586448676402 42.75, 103.984375 42.75 M-103.984375 42.75 C-60.407676042776544 42.75, -16.830977085553087 42.75, 103.984375 42.75 M103.984375 42.75 C103.984375 57.237308104792874, 103.984375 71.72461620958575, 103.984375 85.5 M103.984375 42.75 C103.984375 59.01136463270679, 103.984375 75.27272926541357, 103.984375 85.5 M103.984375 85.5 C45.412961049236756 85.5, -13.158452901526488 85.5, -103.984375 85.5 M103.984375 85.5 C27.1142339536715 85.5, -49.755907092657 85.5, -103.984375 85.5 M-103.984375 85.5 C-103.984375 69.20937063088928, -103.984375 52.918741261778564, -103.984375 42.75 M-103.984375 85.5 C-103.984375 75.33365776971651, -103.984375 65.16731553943302, -103.984375 42.75" stroke="#9370DB" stroke-width="1.3" fill="none" stroke-dasharray="0 0"/></g><g style="" class="row-rect-odd"><path d="M-103.984375 85.5 L103.984375 85.5 L103.984375 128.25 L-103.984375 128.25" stroke="none" stroke-width="0" fill="hsl(240, 100%, 100%)"/><path d="M-103.984375 85.5 C-62.15115392148077 85.5, -20.31793284296154 85.5, 103.984375 85.5 M-103.984375 85.5 C-49.49857708720532 85.5, 4.987220825589361 85.5, 103.984375 85.5 M103.984375 85.5 C103.984375 100.29374380744966, 103.984375 115.08748761489932, 103.984375 128.25 M103.984375 85.5 C103.984375 98.57474347451299, 103.984375 111.64948694902597, 103.984375 128.25 M103.984375 128.25 C21.074536181993963 128.25, -61.835302636012074 128.25, -103.984375 128.25 M103.984375 128.25 C31.337815887752782 128.25, -41.308743224494435 128.25, -103.984375 128.25 M-103.984375 128.25 C-103.984375 114.88600382573675, -103.984375 101.5220076514735, -103.984375 85.5 M-103.984375 128.25 C-103.984375 116.91619997393192, -103.984375 105.58239994786385, -103.984375 85.5" stroke="#9370DB" stroke-width="1.3" fill="none" stroke-dasharray="0 0"/></g><g class="label name" transform="translate(-25.3359375, -118.875)" style=""><foreignObject width="50.671875" height="24"><div xmlns="http://www.w3.org/1999/xhtml" style="display: table-cell; white-space: nowrap; line-height: 1.5; max-width: 157px; text-align: start;"><span class="nodeLabel"><p>STATUS</p></span></div></foreignObject></g><g class="label attribute-type" transform="translate(-91.484375, -76.125)" style=""><foreignObject width="30.96875" height="24"><div xmlns="http://www.w3.org/1999/xhtml" style="display: table-cell; white-space: nowrap; line-height: 1.5; max-width: 128px; text-align: start;"><span class="nodeLabel"><p>uuid</p></span></div></foreignObject></g><g class="label attribute-name" transform="translate(-26.109375, -76.125)" style=""><foreignObject width="13.484375" height="24"><div xmlns="http://www.w3.org/1999/xhtml" style="display: table-cell; white-space: nowrap; line-height: 1.5; max-width: 112px; text-align: start;"><span class="nodeLabel"><p>id</p></span></div></foreignObject></g><g class="label attribute-keys" transform="translate(73.34375, -76.125)" style=""><foreignObject width="18.140625" height="24"><div xmlns="http://www.w3.org/1999/xhtml" style="display: table-cell; white-space: nowrap; line-height: 1.5; max-width: 121px; text-align: start;"><span class="nodeLabel"><p>PK</p></span></div></foreignObject></g><g class="label attribute-comment" transform="translate(116.484375, -76.125)" style=""><foreignObject width="0" height="0"><div xmlns="http://www.w3.org/1999/xhtml" style="display: table-cell; white-space: nowrap; line-height: 1.5; max-width: 100px; text-align: start;"><span class="nodeLabel"></span></div></foreignObject></g><g class="label attribute-type" transform="translate(-91.484375, -33.375)" style=""><foreignObject width="30.96875" height="24"><div xmlns="http://www.w3.org/1999/xhtml" style="display: table-cell; white-space: nowrap; line-height: 1.5; max-width: 128px; text-align: start;"><span class="nodeLabel"><p>uuid</p></span></div></foreignObject></g><g class="label attribute-name" transform="translate(-26.109375, -33.375)" style=""><foreignObject width="74.453125" height="24"><div xmlns="http://www.w3.org/1999/xhtml" style="display: table-cell; white-space: nowrap; line-height: 1.5; max-width: 165px; text-align: start;"><span class="nodeLabel"><p>project_id</p></span></div></foreignObject></g><g class="label attribute-keys" transform="translate(73.34375, -33.375)" style=""><foreignObject width="17.609375" height="24"><div xmlns="http://www.w3.org/1999/xhtml" style="display: table-cell; white-space: nowrap; line-height: 1.5; max-width: 121px; text-align: start;"><span class="nodeLabel"><p>FK</p></span></div></foreignObject></g><g class="label attribute-comment" transform="translate(116.484375, -33.375)" style=""><foreignObject width="0" height="0"><div xmlns="http://www.w3.org/1999/xhtml" style="display: table-cell; white-space: nowrap; line-height: 1.5; max-width: 100px; text-align: start;"><span class="nodeLabel"></span></div></foreignObject></g><g class="label attribute-type" transform="translate(-91.484375, 9.375)" style=""><foreignObject width="40.375" height="24"><div xmlns="http://www.w3.org/1999/xhtml" style="display: table-cell; white-space: nowrap; line-height: 1.5; max-width: 136px; text-align: start;"><span class="nodeLabel"><p>string</p></span></div></foreignObject></g><g class="label attribute-name" transform="translate(-26.109375, 9.375)" style=""><foreignObject width="39.15625" height="24"><div xmlns="http://www.w3.org/1999/xhtml" style="display: table-cell; white-space: nowrap; line-height: 1.5; max-width: 135px; text-align: start;"><span class="nodeLabel"><p>name</p></span></div></foreignObject></g><g class="label attribute-keys" transform="translate(73.34375, 9.375)" style=""><foreignObject width="0" height="0"><div xmlns="http://www.w3.org/1999/xhtml" style="display: table-cell; white-space: nowrap; line-height: 1.5; max-width: 100px; text-align: start;"><span class="nodeLabel"></span></div></foreignObject></g><g class="label attribute-comment" transform="translate(116.484375, 9.375)" style=""><foreignObject width="0" height="0"><div xmlns="http://www.w3.org/1999/xhtml" style="display: table-cell; white-space: nowrap; line-height: 1.5; max-width: 100px; text-align: start;"><span class="nodeLabel"></span></div></foreignObject></g><g class="label attribute-type" transform="translate(-91.484375, 52.125)" style=""><foreignObject width="40.375" height="24"><div xmlns="http://www.w3.org/1999/xhtml" style="display: table-cell; white-space: nowrap; line-height: 1.5; max-width: 136px; text-align: start;"><span class="nodeLabel"><p>string</p></span></div></foreignObject></g><g class="label attribute-name" transform="translate(-26.109375, 52.125)" style=""><foreignObject width="62.125" height="24"><div xmlns="http://www.w3.org/1999/xhtml" style="display: table-cell; white-space: nowrap; line-height: 1.5; max-width: 155px; text-align: start;"><span class="nodeLabel"><p>category</p></span></div></foreignObject></g><g class="label attribute-keys" transform="translate(73.34375, 52.125)" style=""><foreignObject width="0" height="0"><div xmlns="http://www.w3.org/1999/xhtml" style="display: table-cell; white-space: nowrap; line-height: 1.5; max-width: 100px; text-align: start;"><span class="nodeLabel"></span></div></foreignObject></g><g class="label attribute-comment" transform="translate(116.484375, 52.125)" style=""><foreignObject width="0" height="0"><div xmlns="http://www.w3.org/1999/xhtml" style="display: table-cell; white-space: nowrap; line-height: 1.5; max-width: 100px; text-align: start;"><span class="nodeLabel"></span></div></foreignObject></g><g class="label attribute-type" transform="translate(-91.484375, 94.875)" style=""><foreignObject width="19.65625" height="24"><div xmlns="http://www.w3.org/1999/xhtml" style="display: table-cell; white-space: nowrap; line-height: 1.5; max-width: 117px; text-align: start;"><span class="nodeLabel"><p>int</p></span></div></foreignObject></g><g class="label attribute-name" transform="translate(-26.109375, 94.875)" style=""><foreignObject width="56.78125" height="24"><div xmlns="http://www.w3.org/1999/xhtml" style="display: table-cell; white-space: nowrap; line-height: 1.5; max-width: 152px; text-align: start;"><span class="nodeLabel"><p>position</p></span></div></foreignObject></g><g class="label attribute-keys" transform="translate(73.34375, 94.875)" style=""><foreignObject width="0" height="0"><div xmlns="http://www.w3.org/1999/xhtml" style="display: table-cell; white-space: nowrap; line-height: 1.5; max-width: 100px; text-align: start;"><span class="nodeLabel"></span></div></foreignObject></g><g class="label attribute-comment" transform="translate(116.484375, 94.875)" style=""><foreignObject width="0" height="0"><div xmlns="http://www.w3.org/1999/xhtml" style="display: table-cell; white-space: nowrap; line-height: 1.5; max-width: 100px; text-align: start;"><span class="nodeLabel"></span></div></foreignObject></g><g class="divider"><path d="M-103.984375 -85.5 C-45.60454745798056 -85.5, 12.775280084038883 -85.5, 103.984375 -85.5 M-103.984375 -85.5 C-43.78372204471154 -85.5, 16.416930910576923 -85.5, 103.984375 -85.5" stroke="#9370DB" stroke-width="1.3" fill="none" stroke-dasharray="0 0"/></g><g class="divider"><path d="M-38.609375 -85.5 C-38.609375 -2.8094374090554766, -38.609375 79.88112518188905, -38.609375 128.25 M-38.609375 -85.5 C-38.609375 -21.147489723813067, -38.609375 43.20502055237387, -38.609375 128.25" stroke="#9370DB" stroke-width="1.3" fill="none" stroke-dasharray="0 0"/></g><g class="divider"><path d="M60.84375 -85.5 C60.84375 -32.99405422360595, 60.84375 19.5118915527881, 60.84375 128.25 M60.84375 -85.5 C60.84375 -13.80828517562378, 60.84375 57.88342964875244, 60.84375 128.25" stroke="#9370DB" stroke-width="1.3" fill="none" stroke-dasharray="0 0"/></g><g class="divider"><path d="M-103.984375 -85.5 C-29.85994942451495 -85.5, 44.2644761509701 -85.5, 103.984375 -85.5 M-103.984375 -85.5 C-48.24994504545965 -85.5, 7.484484909080706 -85.5, 103.984375 -85.5" stroke="#9370DB" stroke-width="1.3" fill="none" stroke-dasharray="0 0"/></g></g><g class="node default" id="entity-WORKFLOW_TRANSITION-2" transform="translate(136.203125, 787.125)"><g style=""><path d="M-128.203125 -149.625 L128.203125 -149.625 L128.203125 149.625 L-128.203125 149.625" stroke="none" stroke-width="0" fill="#ECECFF"/><path d="M-128.203125 -149.625 C-66.58497546431556 -149.625, -4.966825928631124 -149.625, 128.203125 -149.625 M-128.203125 -149.625 C-44.03557115893112 -149.625, 40.13198268213776 -149.625, 128.203125 -149.625 M128.203125 -149.625 C128.203125 -75.05490880051079, 128.203125 -0.48481760102157523, 128.203125 149.625 M128.203125 -149.625 C128.203125 -33.76833131941406, 128.203125 82.08833736117188, 128.203125 149.625 M128.203125 149.625 C72.33213599036364 149.625, 16.461146980727264 149.625, -128.203125 149.625 M128.203125 149.625 C39.924889122751964 149.625, -48.35334675449607 149.625, -128.203125 149.625 M-128.203125 149.625 C-128.203125 71.00563995803672, -128.203125 -7.613720083926552, -128.203125 -149.625 M-128.203125 149.625 C-128.203125 31.562654492058897, -128.203125 -86.4996910158822, -128.203125 -149.625" stroke="#9370DB" stroke-width="1.3" fill="none" stroke-dasharray="0 0"/></g><g style="" class="row-rect-odd"><path d="M-128.203125 -106.875 L128.203125 -106.875 L128.203125 -64.125 L-128.203125 -64.125" stroke="none" stroke-width="0" fill="hsl(240, 100%, 100%)"/><path d="M-128.203125 -106.875 C-72.51932079207933 -106.875, -16.835516584158654 -106.875, 128.203125 -106.875 M-128.203125 -106.875 C-40.19546012227555 -106.875, 47.8122047554489 -106.875, 128.203125 -106.875 M128.203125 -106.875 C128.203125 -90.31391899614141, 128.203125 -73.75283799228283, 128.203125 -64.125 M128.203125 -106.875 C128.203125 -91.48167325873025, 128.203125 -76.08834651746051, 128.203125 -64.125 M128.203125 -64.125 C40.643246115893774 -64.125, -46.91663276821245 -64.125, -128.203125 -64.125 M128.203125 -64.125 C31.5956165675707 -64.125, -65.0118918648586 -64.125, -128.203125 -64.125 M-128.203125 -64.125 C-128.203125 -73.83269411077903, -128.203125 -83.54038822155806, -128.203125 -106.875 M-128.203125 -64.125 C-128.203125 -77.50809659912872, -128.203125 -90.89119319825743, -128.203125 -106.875" stroke="#9370DB" stroke-width="1.3" fill="none" stroke-dasharray="0 0"/></g><g style="" class="row-rect-even"><path d="M-128.203125 -64.125 L128.203125 -64.125 L128.203125 -21.375 L-128.203125 -21.375" stroke="none" stroke-width="0" fill="hsl(240, 100%, 97.2745098039%)"/><path d="M-128.203125 -64.125 C-76.73488670652036 -64.125, -25.266648413040713 -64.125, 128.203125 -64.125 M-128.203125 -64.125 C-25.838857543945338 -64.125, 76.52540991210932 -64.125, 128.203125 -64.125 M128.203125 -64.125 C128.203125 -50.786472181092726, 128.203125 -37.44794436218545, 128.203125 -21.375 M128.203125 -64.125 C128.203125 -50.0636528449357, 128.203125 -36.00230568987141, 128.203125 -21.375 M128.203125 -21.375 C39.654138027252884 -21.375, -48.89484894549423 -21.375, -128.203125 -21.375 M128.203125 -21.375 C37.14342494059517 -21.375, -53.916275118809665 -21.375, -128.203125 -21.375 M-128.203125 -21.375 C-128.203125 -37.26124026443357, -128.203125 -53.147480528867135, -128.203125 -64.125 M-128.203125 -21.375 C-128.203125 -37.99549832463185, -128.203125 -54.61599664926371, -128.203125 -64.125" stroke="#9370DB" stroke-width="1.3" fill="none" stroke-dasharray="0 0"/></g><g style="" class="row-rect-odd"><path d="M-128.203125 -21.375 L128.203125 -21.375 L128.203125 21.375 L-128.203125 21.375" stroke="none" stroke-width="0" fill="hsl(240, 100%, 100%)"/><path d="M-128.203125 -21.375 C-60.56692050278507 -21.375, 7.069283994429867 -21.375, 128.203125 -21.375 M-128.203125 -21.375 C-31.869484689678146 -21.375, 64.46415562064371 -21.375, 128.203125 -21.375 M128.203125 -21.375 C128.203125 -11.570596078243183, 128.203125 -1.7661921564863654, 128.203125 21.375 M128.203125 -21.375 C128.203125 -12.41351809217077, 128.203125 -3.452036184341541, 128.203125 21.375 M128.203125 21.375 C58.724255987348286 21.375, -10.754613025303428 21.375, -128.203125 21.375 M128.203125 21.375 C54.118908241214385 21.375, -19.96530851757123 21.375, -128.203125 21.375 M-128.203125 21.375 C-128.203125 9.51667709441228, -128.203125 -2.3416458111754395, -128.203125 -21.375 M-128.203125 21.375 C-128.203125 7.387216074877758, -128.203125 -6.6005678502444844, -128.203125 -21.375" stroke="#9370DB" stroke-width="1.3" fill="none" stroke-dasharray="0 0"/></g><g style="" class="row-rect-even"><path d="M-128.203125 21.375 L128.203125 21.375 L128.203125 64.125 L-128.203125 64.125" stroke="none" stroke-width="0" fill="hsl(240, 100%, 97.2745098039%)"/><path d="M-128.203125 21.375 C-26.87822005051467 21.375, 74.44668489897066 21.375, 128.203125 21.375 M-128.203125 21.375 C-47.77786501745835 21.375, 32.64739496508329 21.375, 128.203125 21.375 M128.203125 21.375 C128.203125 31.972081038634265, 128.203125 42.56916207726853, 128.203125 64.125 M128.203125 21.375 C128.203125 33.48707360466794, 128.203125 45.59914720933588, 128.203125 64.125 M128.203125 64.125 C32.47962783707854 64.125, -63.24386932584292 64.125, -128.203125 64.125 M128.203125 64.125 C54.29215300894626 64.125, -19.618818982107484 64.125, -128.203125 64.125 M-128.203125 64.125 C-128.203125 54.28350008844377, -128.203125 44.44200017688755, -128.203125 21.375 M-128.203125 64.125 C-128.203125 51.33321007422356, -128.203125 38.54142014844712, -128.203125 21.375" stroke="#9370DB" stroke-width="1.3" fill="none" stroke-dasharray="0 0"/></g><g style="" class="row-rect-odd"><path d="M-128.203125 64.125 L128.203125 64.125 L128.203125 106.875 L-128.203125 106.875" stroke="none" stroke-width="0" fill="hsl(240, 100%, 100%)"/><path d="M-128.203125 64.125 C-38.32802796590791 64.125, 51.547069068184186 64.125, 128.203125 64.125 M-128.203125 64.125 C-59.182585352840036 64.125, 9.837954294319928 64.125, 128.203125 64.125 M128.203125 64.125 C128.203125 77.62504865364254, 128.203125 91.12509730728507, 128.203125 106.875 M128.203125 64.125 C128.203125 75.96210616007052, 128.203125 87.79921232014104, 128.203125 106.875 M128.203125 106.875 C65.26909666296184 106.875, 2.335068325923686 106.875, -128.203125 106.875 M128.203125 106.875 C51.05757676762849 106.875, -26.08797146474302 106.875, -128.203125 106.875 M-128.203125 106.875 C-128.203125 92.90781102590361, -128.203125 78.94062205180722, -128.203125 64.125 M-128.203125 106.875 C-128.203125 98.01703646133214, -128.203125 89.15907292266427, -128.203125 64.125" stroke="#9370DB" stroke-width="1.3" fill="none" stroke-dasharray="0 0"/></g><g style="" class="row-rect-even"><path d="M-128.203125 106.875 L128.203125 106.875 L128.203125 149.625 L-128.203125 149.625" stroke="none" stroke-width="0" fill="hsl(240, 100%, 97.2745098039%)"/><path d="M-128.203125 106.875 C-58.51295588942605 106.875, 11.177213221147895 106.875, 128.203125 106.875 M-128.203125 106.875 C-28.406637176466987 106.875, 71.38985064706603 106.875, 128.203125 106.875 M128.203125 106.875 C128.203125 122.55842560152476, 128.203125 138.24185120304952, 128.203125 149.625 M128.203125 106.875 C128.203125 121.6539074994222, 128.203125 136.4328149988444, 128.203125 149.625 M128.203125 149.625 C43.516593954860426 149.625, -41.16993709027915 149.625, -128.203125 149.625 M128.203125 149.625 C32.26305114368766 149.625, -63.67702271262468 149.625, -128.203125 149.625 M-128.203125 149.625 C-128.203125 137.2979529547311, -128.203125 124.9709059094622, -128.203125 106.875 M-128.203125 149.625 C-128.203125 132.9232588508233, -128.203125 116.2215177016466, -128.203125 106.875" stroke="#9370DB" stroke-width="1.3" fill="none" stroke-dasharray="0 0"/></g><g class="label name" transform="translate(-88.6875, -140.25)" style=""><foreignObject width="177.375" height="24"><div xmlns="http://www.w3.org/1999/xhtml" style="display: table-cell; white-space: nowrap; line-height: 1.5; max-width: 298px; text-align: start;"><span class="nodeLabel"><p>WORKFLOW_TRANSITION</p></span></div></foreignObject></g><g class="label attribute-type" transform="translate(-115.703125, -97.5)" style=""><foreignObject width="30.96875" height="24"><div xmlns="http://www.w3.org/1999/xhtml" style="display: table-cell; white-space: nowrap; line-height: 1.5; max-width: 128px; text-align: start;"><span class="nodeLabel"><p>uuid</p></span></div></foreignObject></g><g class="label attribute-name" transform="translate(-50.328125, -97.5)" style=""><foreignObject width="13.484375" height="24"><div xmlns="http://www.w3.org/1999/xhtml" style="display: table-cell; white-space: nowrap; line-height: 1.5; max-width: 112px; text-align: start;"><span class="nodeLabel"><p>id</p></span></div></foreignObject></g><g class="label attribute-keys" transform="translate(97.5625, -97.5)" style=""><foreignObject width="18.140625" height="24"><div xmlns="http://www.w3.org/1999/xhtml" style="display: table-cell; white-space: nowrap; line-height: 1.5; max-width: 121px; text-align: start;"><span class="nodeLabel"><p>PK</p></span></div></foreignObject></g><g class="label attribute-comment" transform="translate(140.703125, -97.5)" style=""><foreignObject width="0" height="0"><div xmlns="http://www.w3.org/1999/xhtml" style="display: table-cell; white-space: nowrap; line-height: 1.5; max-width: 100px; text-align: start;"><span class="nodeLabel"></span></div></foreignObject></g><g class="label attribute-type" transform="translate(-115.703125, -54.75)" style=""><foreignObject width="30.96875" height="24"><div xmlns="http://www.w3.org/1999/xhtml" style="display: table-cell; white-space: nowrap; line-height: 1.5; max-width: 128px; text-align: start;"><span class="nodeLabel"><p>uuid</p></span></div></foreignObject></g><g class="label attribute-name" transform="translate(-50.328125, -54.75)" style=""><foreignObject width="74.453125" height="24"><div xmlns="http://www.w3.org/1999/xhtml" style="display: table-cell; white-space: nowrap; line-height: 1.5; max-width: 165px; text-align: start;"><span class="nodeLabel"><p>project_id</p></span></div></foreignObject></g><g class="label attribute-keys" transform="translate(97.5625, -54.75)" style=""><foreignObject width="17.609375" height="24"><div xmlns="http://www.w3.org/1999/xhtml" style="display: table-cell; white-space: nowrap; line-height: 1.5; max-width: 121px; text-align: start;"><span class="nodeLabel"><p>FK</p></span></div></foreignObject></g><g class="label attribute-comment" transform="translate(140.703125, -54.75)" style=""><foreignObject width="0" height="0"><div xmlns="http://www.w3.org/1999/xhtml" style="display: table-cell; white-space: nowrap; line-height: 1.5; max-width: 100px; text-align: start;"><span class="nodeLabel"></span></div></foreignObject></g><g class="label attribute-type" transform="translate(-115.703125, -12)" style=""><foreignObject width="30.96875" height="24"><div xmlns="http://www.w3.org/1999/xhtml" style="display: table-cell; white-space: nowrap; line-height: 1.5; max-width: 128px; text-align: start;"><span class="nodeLabel"><p>uuid</p></span></div></foreignObject></g><g class="label attribute-name" transform="translate(-50.328125, -12)" style=""><foreignObject width="107.046875" height="24"><div xmlns="http://www.w3.org/1999/xhtml" style="display: table-cell; white-space: nowrap; line-height: 1.5; max-width: 196px; text-align: start;"><span class="nodeLabel"><p>from_status_id</p></span></div></foreignObject></g><g class="label attribute-keys" transform="translate(97.5625, -12)" style=""><foreignObject width="17.609375" height="24"><div xmlns="http://www.w3.org/1999/xhtml" style="display: table-cell; white-space: nowrap; line-height: 1.5; max-width: 121px; text-align: start;"><span class="nodeLabel"><p>FK</p></span></div></foreignObject></g><g class="label attribute-comment" transform="translate(140.703125, -12)" style=""><foreignObject width="0" height="0"><div xmlns="http://www.w3.org/1999/xhtml" style="display: table-cell; white-space: nowrap; line-height: 1.5; max-width: 100px; text-align: start;"><span class="nodeLabel"></span></div></foreignObject></g><g class="label attribute-type" transform="translate(-115.703125, 30.75)" style=""><foreignObject width="30.96875" height="24"><div xmlns="http://www.w3.org/1999/xhtml" style="display: table-cell; white-space: nowrap; line-height: 1.5; max-width: 128px; text-align: start;"><span class="nodeLabel"><p>uuid</p></span></div></foreignObject></g><g class="label attribute-name" transform="translate(-50.328125, 30.75)" style=""><foreignObject width="87.984375" height="24"><div xmlns="http://www.w3.org/1999/xhtml" style="display: table-cell; white-space: nowrap; line-height: 1.5; max-width: 177px; text-align: start;"><span class="nodeLabel"><p>to_status_id</p></span></div></foreignObject></g><g class="label attribute-keys" transform="translate(97.5625, 30.75)" style=""><foreignObject width="17.609375" height="24"><div xmlns="http://www.w3.org/1999/xhtml" style="display: table-cell; white-space: nowrap; line-height: 1.5; max-width: 121px; text-align: start;"><span class="nodeLabel"><p>FK</p></span></div></foreignObject></g><g class="label attribute-comment" transform="translate(140.703125, 30.75)" style=""><foreignObject width="0" height="0"><div xmlns="http://www.w3.org/1999/xhtml" style="display: table-cell; white-space: nowrap; line-height: 1.5; max-width: 100px; text-align: start;"><span class="nodeLabel"></span></div></foreignObject></g><g class="label attribute-type" transform="translate(-115.703125, 73.5)" style=""><foreignObject width="40.375" height="24"><div xmlns="http://www.w3.org/1999/xhtml" style="display: table-cell; white-space: nowrap; line-height: 1.5; max-width: 136px; text-align: start;"><span class="nodeLabel"><p>string</p></span></div></foreignObject></g><g class="label attribute-name" transform="translate(-50.328125, 73.5)" style=""><foreignObject width="39.15625" height="24"><div xmlns="http://www.w3.org/1999/xhtml" style="display: table-cell; white-space: nowrap; line-height: 1.5; max-width: 135px; text-align: start;"><span class="nodeLabel"><p>name</p></span></div></foreignObject></g><g class="label attribute-keys" transform="translate(97.5625, 73.5)" style=""><foreignObject width="0" height="0"><div xmlns="http://www.w3.org/1999/xhtml" style="display: table-cell; white-space: nowrap; line-height: 1.5; max-width: 100px; text-align: start;"><span class="nodeLabel"></span></div></foreignObject></g><g class="label attribute-comment" transform="translate(140.703125, 73.5)" style=""><foreignObject width="0" height="0"><div xmlns="http://www.w3.org/1999/xhtml" style="display: table-cell; white-space: nowrap; line-height: 1.5; max-width: 100px; text-align: start;"><span class="nodeLabel"></span></div></foreignObject></g><g class="label attribute-type" transform="translate(-115.703125, 116.25)" style=""><foreignObject width="19.65625" height="24"><div xmlns="http://www.w3.org/1999/xhtml" style="display: table-cell; white-space: nowrap; line-height: 1.5; max-width: 117px; text-align: start;"><span class="nodeLabel"><p>int</p></span></div></foreignObject></g><g class="label attribute-name" transform="translate(-50.328125, 116.25)" style=""><foreignObject width="122.890625" height="24"><div xmlns="http://www.w3.org/1999/xhtml" style="display: table-cell; white-space: nowrap; line-height: 1.5; max-width: 209px; text-align: start;"><span class="nodeLabel"><p>opsbar_sequence</p></span></div></foreignObject></g><g class="label attribute-keys" transform="translate(97.5625, 116.25)" style=""><foreignObject width="0" height="0"><div xmlns="http://www.w3.org/1999/xhtml" style="display: table-cell; white-space: nowrap; line-height: 1.5; max-width: 100px; text-align: start;"><span class="nodeLabel"></span></div></foreignObject></g><g class="label attribute-comment" transform="translate(140.703125, 116.25)" style=""><foreignObject width="0" height="0"><div xmlns="http://www.w3.org/1999/xhtml" style="display: table-cell; white-space: nowrap; line-height: 1.5; max-width: 100px; text-align: start;"><span class="nodeLabel"></span></div></foreignObject></g><g class="divider"><path d="M-128.203125 -106.875 C-38.32480881995265 -106.875, 51.5535073600947 -106.875, 128.203125 -106.875 M-128.203125 -106.875 C-46.85115933653336 -106.875, 34.50080632693329 -106.875, 128.203125 -106.875" stroke="#9370DB" stroke-width="1.3" fill="none" stroke-dasharray="0 0"/></g><g class="divider"><path d="M-62.828125 -106.875 C-62.828125 -28.816657106595727, -62.828125 49.241685786808546, -62.828125 149.625 M-62.828125 -106.875 C-62.828125 -46.30519969122299, -62.828125 14.264600617554024, -62.828125 149.625" stroke="#9370DB" stroke-width="1.3" fill="none" stroke-dasharray="0 0"/></g><g class="divider"><path d="M85.0625 -106.875 C85.0625 -54.436368475193774, 85.0625 -1.997736950387548, 85.0625 149.625 M85.0625 -106.875 C85.0625 -40.96484766131928, 85.0625 24.945304677361435, 85.0625 149.625" stroke="#9370DB" stroke-width="1.3" fill="none" stroke-dasharray="0 0"/></g><g class="divider"><path d="M-128.203125 -106.875 C-65.25953498328454 -106.875, -2.3159449665690914 -106.875, 128.203125 -106.875 M-128.203125 -106.875 C-30.354647151813253 -106.875, 67.4938306963735 -106.875, 128.203125 -106.875" stroke="#9370DB" stroke-width="1.3" fill="none" stroke-dasharray="0 0"/></g></g></g></g></g></svg>