<svg id="g2d7f5b32-73eb-4eea-8246-1727525e04e6-dark" width="100%" xmlns="http://www.w3.org/2000/svg" xmlns:xlink="http://www.w3.org/1999/xlink" class="flowchart" style="max-width: 979.0570068359375px;" viewBox="0 0 979.0570068359375 1367.9000244140625" role="graphics-document document" aria-roledescription="flowchart-v2"><style>#g2d7f5b32-73eb-4eea-8246-1727525e04e6-dark{font-family:"trebuchet ms",verdana,arial,sans-serif;font-size:16px;fill:#e5e5e5;}@keyframes edge-animation-frame{from{stroke-dashoffset:0;}}@keyframes dash{to{stroke-dashoffset:0;}}#g2d7f5b32-73eb-4eea-8246-1727525e04e6-dark .edge-animation-slow{stroke-dasharray:9,5!important;stroke-dashoffset:900;animation:dash 50s linear infinite;stroke-linecap:round;}#g2d7f5b32-73eb-4eea-8246-1727525e04e6-dark .edge-animation-fast{stroke-dasharray:9,5!important;stroke-dashoffset:900;animation:dash 20s linear infinite;stroke-linecap:round;}#g2d7f5b32-73eb-4eea-8246-1727525e04e6-dark .error-icon{fill:#252525;}#g2d7f5b32-73eb-4eea-8246-1727525e04e6-dark .error-text{fill:#cccccc;stroke:#cccccc;}#g2d7f5b32-73eb-4eea-8246-1727525e04e6-dark .edge-thickness-normal{stroke-width:1px;}#g2d7f5b32-73eb-4eea-8246-1727525e04e6-dark .edge-thickness-thick{stroke-width:3.5px;}#g2d7f5b32-73eb-4eea-8246-1727525e04e6-dark .edge-pattern-solid{stroke-dasharray:0;}#g2d7f5b32-73eb-4eea-8246-1727525e04e6-dark .edge-thickness-invisible{stroke-width:0;fill:none;}#g2d7f5b32-73eb-4eea-8246-1727525e04e6-dark .edge-pattern-dashed{stroke-dasharray:3;}#g2d7f5b32-73eb-4eea-8246-1727525e04e6-dark .edge-pattern-dotted{stroke-dasharray:2;}#g2d7f5b32-73eb-4eea-8246-1727525e04e6-dark .marker{fill:#cccccc;stroke:#cccccc;}#g2d7f5b32-73eb-4eea-8246-1727525e04e6-dark .marker.cross{stroke:#cccccc;}#g2d7f5b32-73eb-4eea-8246-1727525e04e6-dark svg{font-family:"trebuchet ms",verdana,arial,sans-serif;font-size:16px;}#g2d7f5b32-73eb-4eea-8246-1727525e04e6-dark p{margin:0;}#g2d7f5b32-73eb-4eea-8246-1727525e04e6-dark .label{font-family:"trebuchet ms",verdana,arial,sans-serif;color:#e5e5e5;}#g2d7f5b32-73eb-4eea-8246-1727525e04e6-dark .cluster-label text{fill:#e5e5e5;}#g2d7f5b32-73eb-4eea-8246-1727525e04e6-dark .cluster-label span{color:#e5e5e5;}#g2d7f5b32-73eb-4eea-8246-1727525e04e6-dark .cluster-label span p{background-color:transparent;}#g2d7f5b32-73eb-4eea-8246-1727525e04e6-dark .label text,#g2d7f5b32-73eb-4eea-8246-1727525e04e6-dark span{fill:#e5e5e5;color:#e5e5e5;}#g2d7f5b32-73eb-4eea-8246-1727525e04e6-dark .node rect,#g2d7f5b32-73eb-4eea-8246-1727525e04e6-dark .node circle,#g2d7f5b32-73eb-4eea-8246-1727525e04e6-dark .node ellipse,#g2d7f5b32-73eb-4eea-8246-1727525e04e6-dark .node polygon,#g2d7f5b32-73eb-4eea-8246-1727525e04e6-dark .node path{fill:#2d2d2d;stroke:#555555;stroke-width:1px;}#g2d7f5b32-73eb-4eea-8246-1727525e04e6-dark .rough-node .label text,#g2d7f5b32-73eb-4eea-8246-1727525e04e6-dark .node .label text,#g2d7f5b32-73eb-4eea-8246-1727525e04e6-dark .image-shape .label,#g2d7f5b32-73eb-4eea-8246-1727525e04e6-dark .icon-shape .label{text-anchor:middle;}#g2d7f5b32-73eb-4eea-8246-1727525e04e6-dark .node .katex path{fill:#000;stroke:#000;stroke-width:1px;}#g2d7f5b32-73eb-4eea-8246-1727525e04e6-dark .rough-node .label,#g2d7f5b32-73eb-4eea-8246-1727525e04e6-dark .node .label,#g2d7f5b32-73eb-4eea-8246-1727525e04e6-dark .image-shape .label,#g2d7f5b32-73eb-4eea-8246-1727525e04e6-dark .icon-shape .label{text-align:center;}#g2d7f5b32-73eb-4eea-8246-1727525e04e6-dark .node.clickable{cursor:pointer;}#g2d7f5b32-73eb-4eea-8246-1727525e04e6-dark .root .anchor path{fill:#cccccc!important;stroke-width:0;stroke:#cccccc;}#g2d7f5b32-73eb-4eea-8246-1727525e04e6-dark .arrowheadPath{fill:#cccccc;}#g2d7f5b32-73eb-4eea-8246-1727525e04e6-dark .edgePath .path{stroke:#cccccc;stroke-width:1px;}#g2d7f5b32-73eb-4eea-8246-1727525e04e6-dark .flowchart-link{stroke:#cccccc;fill:none;}#g2d7f5b32-73eb-4eea-8246-1727525e04e6-dark .edgeLabel{background-color:#1e1e1e;text-align:center;}#g2d7f5b32-73eb-4eea-8246-1727525e04e6-dark .edgeLabel p{background-color:#1e1e1e;}#g2d7f5b32-73eb-4eea-8246-1727525e04e6-dark .edgeLabel rect{opacity:0.5;background-color:#1e1e1e;fill:#1e1e1e;}#g2d7f5b32-73eb-4eea-8246-1727525e04e6-dark .labelBkg{background-color:rgba(30, 30, 30, 0.5);}#g2d7f5b32-73eb-4eea-8246-1727525e04e6-dark .cluster rect{fill:#1e1e1e;stroke:#555555;stroke-width:1px;}#g2d7f5b32-73eb-4eea-8246-1727525e04e6-dark .cluster text{fill:#e5e5e5;}#g2d7f5b32-73eb-4eea-8246-1727525e04e6-dark .cluster span{color:#e5e5e5;}#g2d7f5b32-73eb-4eea-8246-1727525e04e6-dark div.mermaidTooltip{position:absolute;text-align:center;max-width:200px;padding:2px;font-family:"trebuchet ms",verdana,arial,sans-serif;font-size:12px;background:#252525;border:1px solid #555555;border-radius:2px;pointer-events:none;z-index:100;}#g2d7f5b32-73eb-4eea-8246-1727525e04e6-dark .flowchartTitleText{text-anchor:middle;font-size:18px;fill:#e5e5e5;}#g2d7f5b32-73eb-4eea-8246-1727525e04e6-dark rect.text{fill:none;stroke-width:0;}#g2d7f5b32-73eb-4eea-8246-1727525e04e6-dark .icon-shape,#g2d7f5b32-73eb-4eea-8246-1727525e04e6-dark .image-shape{background-color:#1e1e1e;text-align:center;}#g2d7f5b32-73eb-4eea-8246-1727525e04e6-dark .icon-shape p,#g2d7f5b32-73eb-4eea-8246-1727525e04e6-dark .image-shape p{background-color:#1e1e1e;padding:2px;}#g2d7f5b32-73eb-4eea-8246-1727525e04e6-dark .icon-shape .label rect,#g2d7f5b32-73eb-4eea-8246-1727525e04e6-dark .image-shape .label rect{opacity:0.5;background-color:#1e1e1e;fill:#1e1e1e;}#g2d7f5b32-73eb-4eea-8246-1727525e04e6-dark .label-icon{display:inline-block;height:1em;overflow:visible;vertical-align:-0.125em;}#g2d7f5b32-73eb-4eea-8246-1727525e04e6-dark .node .label-icon path{fill:currentColor;stroke:revert;stroke-width:revert;}#g2d7f5b32-73eb-4eea-8246-1727525e04e6-dark .node .neo-node{stroke:#555555;}#g2d7f5b32-73eb-4eea-8246-1727525e04e6-dark [data-look="neo"].node rect,#g2d7f5b32-73eb-4eea-8246-1727525e04e6-dark [data-look="neo"].cluster rect,#g2d7f5b32-73eb-4eea-8246-1727525e04e6-dark [data-look="neo"].node polygon{stroke:url(#g2d7f5b32-73eb-4eea-8246-1727525e04e6-dark-gradient);filter:drop-shadow( 1px 2px 2px rgba(185,185,185,1));}#g2d7f5b32-73eb-4eea-8246-1727525e04e6-dark [data-look="neo"].node path{stroke:url(#g2d7f5b32-73eb-4eea-8246-1727525e04e6-dark-gradient);stroke-width:1px;}#g2d7f5b32-73eb-4eea-8246-1727525e04e6-dark [data-look="neo"].node .outer-path{filter:drop-shadow( 1px 2px 2px rgba(185,185,185,1));}#g2d7f5b32-73eb-4eea-8246-1727525e04e6-dark [data-look="neo"].node .neo-line path{stroke:#555555;filter:none;}#g2d7f5b32-73eb-4eea-8246-1727525e04e6-dark [data-look="neo"].node circle{stroke:url(#g2d7f5b32-73eb-4eea-8246-1727525e04e6-dark-gradient);filter:drop-shadow( 1px 2px 2px rgba(185,185,185,1));}#g2d7f5b32-73eb-4eea-8246-1727525e04e6-dark [data-look="neo"].node circle .state-start{fill:#000000;}#g2d7f5b32-73eb-4eea-8246-1727525e04e6-dark [data-look="neo"].icon-shape .icon{fill:url(#g2d7f5b32-73eb-4eea-8246-1727525e04e6-dark-gradient);filter:drop-shadow( 1px 2px 2px rgba(185,185,185,1));}#g2d7f5b32-73eb-4eea-8246-1727525e04e6-dark [data-look="neo"].icon-shape .icon-neo path{stroke:url(#g2d7f5b32-73eb-4eea-8246-1727525e04e6-dark-gradient);filter:drop-shadow( 1px 2px 2px rgba(185,185,185,1));}#g2d7f5b32-73eb-4eea-8246-1727525e04e6-dark :root{--mermaid-font-family:"trebuchet ms",verdana,arial,sans-serif;}#g2d7f5b32-73eb-4eea-8246-1727525e04e6-dark .note rect{fill:#fff8e1!important;stroke:#b08900!important;color:#5f4b00!important;}#g2d7f5b32-73eb-4eea-8246-1727525e04e6-dark .note polygon{fill:#fff8e1!important;stroke:#b08900!important;color:#5f4b00!important;}#g2d7f5b32-73eb-4eea-8246-1727525e04e6-dark .note ellipse{fill:#fff8e1!important;stroke:#b08900!important;color:#5f4b00!important;}#g2d7f5b32-73eb-4eea-8246-1727525e04e6-dark .note circle{fill:#fff8e1!important;stroke:#b08900!important;color:#5f4b00!important;}#g2d7f5b32-73eb-4eea-8246-1727525e04e6-dark .note path{fill:#fff8e1!important;stroke:#b08900!important;color:#5f4b00!important;}#g2d7f5b32-73eb-4eea-8246-1727525e04e6-dark .note tspan{fill:#5f4b00!important;}</style><g><marker id="g2d7f5b32-73eb-4eea-8246-1727525e04e6-dark_flowchart-v2-pointEnd" class="marker flowchart-v2" viewBox="0 0 10 10" refX="5" refY="5" markerUnits="userSpaceOnUse" markerWidth="8" markerHeight="8" orient="auto"><path d="M 0 0 L 10 5 L 0 10 z" class="arrowMarkerPath" style="stroke-width: 1; stroke-dasharray: 1, 0;"></path></marker><marker id="g2d7f5b32-73eb-4eea-8246-1727525e04e6-dark_flowchart-v2-pointStart" class="marker flowchart-v2" viewBox="0 0 10 10" refX="4.5" refY="5" markerUnits="userSpaceOnUse" markerWidth="8" markerHeight="8" orient="auto"><path d="M 0 5 L 10 10 L 10 0 z" class="arrowMarkerPath" style="stroke-width: 1; stroke-dasharray: 1, 0;"></path></marker><marker id="g2d7f5b32-73eb-4eea-8246-1727525e04e6-dark_flowchart-v2-pointEnd-margin" class="marker flowchart-v2" viewBox="0 0 11.5 14" refX="11.5" refY="7" markerUnits="userSpaceOnUse" markerWidth="10.5" markerHeight="14" orient="auto"><path d="M 0 0 L 11.5 7 L 0 14 z" class="arrowMarkerPath" style="stroke-width: 0; stroke-dasharray: 1, 0;"></path></marker><marker id="g2d7f5b32-73eb-4eea-8246-1727525e04e6-dark_flowchart-v2-pointStart-margin" class="marker flowchart-v2" viewBox="0 0 11.5 14" refX="1" refY="7" markerUnits="userSpaceOnUse" markerWidth="11.5" markerHeight="14" orient="auto"><polygon points="0,7 11.5,14 11.5,0" class="arrowMarkerPath" style="stroke-width: 0; stroke-dasharray: 1, 0;"></polygon></marker><marker id="g2d7f5b32-73eb-4eea-8246-1727525e04e6-dark_flowchart-v2-circleEnd" class="marker flowchart-v2" viewBox="0 0 10 10" refX="11" refY="5" markerUnits="userSpaceOnUse" markerWidth="11" markerHeight="11" orient="auto"><circle cx="5" cy="5" r="5" class="arrowMarkerPath" style="stroke-width: 1; stroke-dasharray: 1, 0;"></circle></marker><marker id="g2d7f5b32-73eb-4eea-8246-1727525e04e6-dark_flowchart-v2-circleStart" class="marker flowchart-v2" viewBox="0 0 10 10" refX="-1" refY="5" markerUnits="userSpaceOnUse" markerWidth="11" markerHeight="11" orient="auto"><circle cx="5" cy="5" r="5" class="arrowMarkerPath" style="stroke-width: 1; stroke-dasharray: 1, 0;"></circle></marker><marker id="g2d7f5b32-73eb-4eea-8246-1727525e04e6-dark_flowchart-v2-circleEnd-margin" class="marker flowchart-v2" viewBox="0 0 10 10" refY="5" refX="12.25" markerUnits="userSpaceOnUse" markerWidth="14" markerHeight="14" orient="auto"><circle cx="5" cy="5" r="5" class="arrowMarkerPath" style="stroke-width: 0; stroke-dasharray: 1, 0;"></circle></marker><marker id="g2d7f5b32-73eb-4eea-8246-1727525e04e6-dark_flowchart-v2-circleStart-margin" class="marker flowchart-v2" viewBox="0 0 10 10" refX="-2" refY="5" markerUnits="userSpaceOnUse" markerWidth="14" markerHeight="14" orient="auto"><circle cx="5" cy="5" r="5" class="arrowMarkerPath" style="stroke-width: 0; stroke-dasharray: 1, 0;"></circle></marker><marker id="g2d7f5b32-73eb-4eea-8246-1727525e04e6-dark_flowchart-v2-crossEnd" class="marker cross flowchart-v2" viewBox="0 0 11 11" refX="12" refY="5.2" markerUnits="userSpaceOnUse" markerWidth="11" markerHeight="11" orient="auto"><path d="M 1,1 l 9,9 M 10,1 l -9,9" class="arrowMarkerPath" style="stroke-width: 2; stroke-dasharray: 1, 0;"></path></marker><marker id="g2d7f5b32-73eb-4eea-8246-1727525e04e6-dark_flowchart-v2-crossStart" class="marker cross flowchart-v2" viewBox="0 0 11 11" refX="-1" refY="5.2" markerUnits="userSpaceOnUse" markerWidth="11" markerHeight="11" orient="auto"><path d="M 1,1 l 9,9 M 10,1 l -9,9" class="arrowMarkerPath" style="stroke-width: 2; stroke-dasharray: 1, 0;"></path></marker><marker id="g2d7f5b32-73eb-4eea-8246-1727525e04e6-dark_flowchart-v2-crossEnd-margin" class="marker cross flowchart-v2" viewBox="0 0 15 15" refX="17.7" refY="7.5" markerUnits="userSpaceOnUse" markerWidth="12" markerHeight="12" orient="auto"><path d="M 1,1 L 14,14 M 1,14 L 14,1" class="arrowMarkerPath" style="stroke-width: 2.5;"></path></marker><marker id="g2d7f5b32-73eb-4eea-8246-1727525e04e6-dark_flowchart-v2-crossStart-margin" class="marker cross flowchart-v2" viewBox="0 0 15 15" refX="-3.5" refY="7.5" markerUnits="userSpaceOnUse" markerWidth="12" markerHeight="12" orient="auto"><path d="M 1,1 L 14,14 M 1,14 L 14,1" class="arrowMarkerPath" style="stroke-width: 2.5; stroke-dasharray: 1, 0;"></path></marker><g class="root"><g class="clusters"></g><g class="edgePaths"><path d="M469.066,60.1L468.983,64.183C468.9,68.267,468.733,76.433,468.65,84.017C468.566,91.6,468.566,98.6,468.566,102.1L468.566,105.6" id="g2d7f5b32-73eb-4eea-8246-1727525e04e6-dark-L_start_qCoupling_0" class="edge-thickness-normal edge-pattern-solid edge-thickness-normal edge-pattern-solid flowchart-link" style=";" data-edge="true" data-et="edge" data-id="L_start_qCoupling_0" data-points="W3sieCI6NDY5LjA2NjQwNjI1LCJ5Ijo2MC4wOTk5OTg0NzQxMjEwOTR9LHsieCI6NDY4LjU2NjQwNjI1LCJ5Ijo4NC41OTk5OTg0NzQxMjExfSx7IngiOjQ2OC41NjY0MDYyNSwieSI6MTA5LjU5OTk5ODQ3NDEyMTExfV0=" data-look="classic" marker-end="url(#g2d7f5b32-73eb-4eea-8246-1727525e04e6-dark_flowchart-v2-pointEnd)"></path><path d="M380.165,286.368L338.515,307.185C296.865,328.001,213.566,369.635,171.916,410.027C130.266,450.42,130.266,489.571,130.266,509.146L130.266,528.722" id="g2d7f5b32-73eb-4eea-8246-1727525e04e6-dark-L_qCoupling_trainRel_0" class="edge-thickness-normal edge-pattern-solid edge-thickness-normal edge-pattern-solid flowchart-link" style=";" data-edge="true" data-et="edge" data-id="L_qCoupling_trainRel_0" data-points="W3sieCI6MzgwLjE2NTMxOTU4NjczNjY0LCJ5IjoyODYuMzY3Njc0MDE3ODg5fSx7IngiOjEzMC4yNjU2MjUsInkiOjQxMS4yNjg3NjA2ODExNTIzNH0seyJ4IjoxMzAuMjY1NjI1LCJ5Ijo1MzIuNzIxODg1NjgxMTUyM31d" data-look="classic" marker-end="url(#g2d7f5b32-73eb-4eea-8246-1727525e04e6-dark_flowchart-v2-pointEnd)"></path><path d="M528.895,314.44L542.37,330.578C555.844,346.716,582.793,378.992,596.267,400.547C609.741,422.102,609.741,432.935,609.741,438.352L609.741,443.769" id="g2d7f5b32-73eb-4eea-8246-1727525e04e6-dark-L_qCoupling_qOrg_0" class="edge-thickness-normal edge-pattern-solid edge-thickness-normal edge-pattern-solid flowchart-link" style=";" data-edge="true" data-et="edge" data-id="L_qCoupling_qOrg_0" data-points="W3sieCI6NTI4Ljg5NTI4Mjk0ODU0OTQsInkiOjMxNC40Mzk4ODM5ODI2MDI5Nn0seyJ4Ijo2MDkuNzQxNDA1NDg3MDYwNSwieSI6NDExLjI2ODc2MDY4MTE1MjM0fSx7IngiOjYwOS43NDE0MDU0ODcwNjA1LCJ5Ijo0NDcuNzY4NzYwNjgxMTUyMzR9XQ==" data-look="classic" marker-end="url(#g2d7f5b32-73eb-4eea-8246-1727525e04e6-dark_flowchart-v2-pointEnd)"></path><path d="M539.916,632.05L516.505,651.237C493.094,670.425,446.271,708.8,422.86,755.606C399.448,802.413,399.448,857.65,399.448,912.888C399.448,968.125,399.448,1023.363,404.162,1057.978C408.875,1092.594,418.301,1106.588,423.014,1113.585L427.727,1120.582" id="g2d7f5b32-73eb-4eea-8246-1727525e04e6-dark-L_qOrg_trunkRel_0" class="edge-thickness-normal edge-pattern-solid edge-thickness-normal edge-pattern-solid flowchart-link" style=";" data-edge="true" data-et="edge" data-id="L_qOrg_trunkRel_0" data-points="W3sieCI6NTM5LjkxNjEwNDQ1Njc5MDMsInkiOjYzMi4wNDk3MDY1OTkxMjQ2fSx7IngiOjM5OS40NDg0MzY3MzcwNjA1NSwieSI6NzQ3LjE3NTAwNjg2NjQ1NTF9LHsieCI6Mzk5LjQ0ODQzNjczNzA2MDU1LCJ5Ijo5MTIuODg3NTA0NTc3NjM2N30seyJ4IjozOTkuNDQ4NDM2NzM3MDYwNTUsInkiOjEwNzguNjAwMDAyMjg4ODE4NH0seyJ4Ijo0MjkuOTYxNzE1NTkwNTk5MSwieSI6MTEyMy45MDAwMDE1MjU4Nzl9XQ==" data-look="classic" marker-end="url(#g2d7f5b32-73eb-4eea-8246-1727525e04e6-dark_flowchart-v2-pointEnd)"></path><path d="M663.663,647.953L675.857,664.49C688.05,681.027,712.436,714.101,724.629,737.521C736.823,760.942,736.823,774.708,736.823,781.592L736.823,788.475" id="g2d7f5b32-73eb-4eea-8246-1727525e04e6-dark-L_qOrg_qSkew_0" class="edge-thickness-normal edge-pattern-solid edge-thickness-normal edge-pattern-solid flowchart-link" style=";" data-edge="true" data-et="edge" data-id="L_qOrg_qSkew_0" data-points="W3sieCI6NjYzLjY2MzMwMzQ0OTIzOCwieSI6NjQ3Ljk1MzEwOTY2NzIxN30seyJ4Ijo3MzYuODIyNjU0NzI0MTIxMSwieSI6NzQ3LjE3NTAwNjg2NjQ1NTF9LHsieCI6NzM2LjgyMjY1NDcyNDEyMDUsInkiOjc5Mi40NzUwMDYxMDM1MTU3fV0=" data-look="classic" marker-end="url(#g2d7f5b32-73eb-4eea-8246-1727525e04e6-dark_flowchart-v2-pointEnd)"></path><path d="M679.329,975.807L663.675,992.939C648.02,1010.071,616.71,1044.336,590.627,1068.64C564.544,1092.944,543.687,1107.289,533.258,1114.461L522.83,1121.633" id="g2d7f5b32-73eb-4eea-8246-1727525e04e6-dark-L_qSkew_trunkRel_0" class="edge-thickness-normal edge-pattern-solid edge-thickness-normal edge-pattern-solid flowchart-link" style=";" data-edge="true" data-et="edge" data-id="L_qSkew_trunkRel_0" data-points="W3sieCI6Njc5LjMyOTQwMzA4OTEzOTYsInkiOjk3NS44MDY3NTE0MTY3NzZ9LHsieCI6NTg1LjQwMDc3OTcyNDEyMTEsInkiOjEwNzguNjAwMDAyMjg4ODE4NH0seyJ4Ijo1MTkuNTMzNzI0Mjk4MDE5NiwieSI6MTEyMy45MDAwMDE1MjU4Nzl9XQ==" data-look="classic" marker-end="url(#g2d7f5b32-73eb-4eea-8246-1727525e04e6-dark_flowchart-v2-pointEnd)"></path><path d="M784.107,986.016L794.084,1001.447C804.062,1016.877,824.016,1047.739,833.994,1070.053C843.971,1092.367,843.971,1106.133,843.971,1113.017L843.971,1119.9" id="g2d7f5b32-73eb-4eea-8246-1727525e04e6-dark-L_qSkew_indepRel_0" class="edge-thickness-normal edge-pattern-solid edge-thickness-normal edge-pattern-solid flowchart-link" style=";" data-edge="true" data-et="edge" data-id="L_qSkew_indepRel_0" data-points="W3sieCI6Nzg0LjEwNjg1NDg0OTY4MjEsInkiOjk4Ni4wMTU4MDI5MjYxOTcyfSx7IngiOjg0My45NzEwOTIyMjQxMjExLCJ5IjoxMDc4LjYwMDAwMjI4ODgxODR9LHsieCI6ODQzLjk3MTA5MjIyNDEyMTEsInkiOjExMjMuOTAwMDAxNTI1ODc5fV0=" data-look="classic" marker-end="url(#g2d7f5b32-73eb-4eea-8246-1727525e04e6-dark_flowchart-v2-pointEnd)"></path><path d="M130.266,616.922L130.266,638.631C130.266,660.34,130.266,703.757,130.266,743.135C130.266,782.513,130.266,817.85,130.266,835.519L130.266,853.188" id="g2d7f5b32-73eb-4eea-8246-1727525e04e6-dark-L_trainRel_trainNote_0" class="edge-thickness-normal edge-pattern-solid edge-thickness-normal edge-pattern-solid flowchart-link" style=";" data-edge="true" data-et="edge" data-id="L_trainRel_trainNote_0" data-points="W3sieCI6MTMwLjI2NTYyNSwieSI6NjE2LjkyMTg4MjYyOTM5NDV9LHsieCI6MTMwLjI2NTYyNSwieSI6NzQ3LjE3NTAwNjg2NjQ1NTF9LHsieCI6MTMwLjI2NTYyNSwieSI6ODUzLjE4NzUwMzgxNDY5NzN9XQ==" data-look="classic"></path><path d="M458.32,1208.1L458.32,1212.267C458.32,1216.433,458.32,1224.767,458.32,1233.1C458.32,1241.433,458.32,1249.767,458.32,1253.933L458.32,1258.1" id="g2d7f5b32-73eb-4eea-8246-1727525e04e6-dark-L_trunkRel_trunkNote_0" class="edge-thickness-normal edge-pattern-solid edge-thickness-normal edge-pattern-solid flowchart-link" style=";" data-edge="true" data-et="edge" data-id="L_trunkRel_trunkNote_0" data-points="W3sieCI6NDU4LjMxOTUzMDQ4NzA2MDU1LCJ5IjoxMjA4LjA5OTk5ODQ3NDEyMX0seyJ4Ijo0NTguMzE5NTMwNDg3MDYwNTUsInkiOjEyMzMuMDk5OTk4NDc0MTIxfSx7IngiOjQ1OC4zMTk1MzA0ODcwNjA1NSwieSI6MTI1OC4wOTk5OTg0NzQxMjF9XQ==" data-look="classic"></path><path d="M843.971,1208.1L843.971,1212.267C843.971,1216.433,843.971,1224.767,843.971,1233.1C843.971,1241.433,843.971,1249.767,843.971,1253.933L843.971,1258.1" id="g2d7f5b32-73eb-4eea-8246-1727525e04e6-dark-L_indepRel_indepNote_0" class="edge-thickness-normal edge-pattern-solid edge-thickness-normal edge-pattern-solid flowchart-link" style=";" data-edge="true" data-et="edge" data-id="L_indepRel_indepNote_0" data-points="W3sieCI6ODQzLjk3MTA5MjIyNDEyMTEsInkiOjEyMDguMDk5OTk4NDc0MTIxfSx7IngiOjg0My45NzEwOTIyMjQxMjExLCJ5IjoxMjMzLjA5OTk5ODQ3NDEyMX0seyJ4Ijo4NDMuOTcxMDkyMjI0MTIxMSwieSI6MTI1OC4wOTk5OTg0NzQxMjF9XQ==" data-look="classic"></path></g><g class="edgeLabels"><g class="edgeLabel"><g class="label" data-id="L_start_qCoupling_0" transform="translate(0, 0)"><text y="-10.1" text-anchor="middle"><tspan class="text-outer-tspan row" x="0" y="-0.1em" dy="1.1em" text-anchor="middle"></tspan></text></g></g><g><rect class="background" style="stroke: none"></rect></g><g class="edgeLabel" transform="translate(130.265625, 411.26876068115234)"><g class="label" data-id="L_qCoupling_trainRel_0" transform="translate(0, -10.5)"><g><rect class="background" style="" x="-75.8515625" y="-1" width="151.703125" height="23"></rect><text y="-10.1" text-anchor="middle" style=""><tspan class="text-outer-tspan row" x="0" y="-0.1em" dy="1.1em" text-anchor="middle"><tspan font-style="normal" class="text-inner-tspan" font-weight="normal">no</tspan><tspan font-style="normal" class="text-inner-tspan" font-weight="normal"> —</tspan><tspan font-style="normal" class="text-inner-tspan" font-weight="normal"> coupling</tspan><tspan font-style="normal" class="text-inner-tspan" font-weight="normal"> is</tspan><tspan font-style="normal" class="text-inner-tspan" font-weight="normal"> real</tspan></tspan></text></g></g></g><g class="edgeLabel" transform="translate(609.7414054870605, 411.26876068115234)"><g class="label" data-id="L_qCoupling_qOrg_0" transform="translate(0, -10.5)"><g><rect class="background" style="" x="-13.546875" y="-1" width="27.09375" height="23"></rect><text y="-10.1" text-anchor="middle" style=""><tspan class="text-outer-tspan row" x="0" y="-0.1em" dy="1.1em" text-anchor="middle"><tspan font-style="normal" class="text-inner-tspan" font-weight="normal">yes</tspan></tspan></text></g></g></g><g class="edgeLabel" transform="translate(399.44843673706055, 912.8875045776367)"><g class="label" data-id="L_qOrg_trunkRel_0" transform="translate(0, -19.299999237060547)"><g><rect class="background" style="" x="-98.75" y="-1" width="197.5" height="40.599998474121094"></rect><text y="-10.1" text-anchor="middle" style=""><tspan class="text-outer-tspan row" x="0" y="-0.1em" dy="1.1em" text-anchor="middle"><tspan font-style="normal" class="text-inner-tspan" font-weight="normal">no</tspan><tspan font-style="normal" class="text-inner-tspan" font-weight="normal"> —</tspan><tspan font-style="normal" class="text-inner-tspan" font-weight="normal"> single</tspan><tspan font-style="normal" class="text-inner-tspan" font-weight="normal"> team</tspan><tspan font-style="normal" class="text-inner-tspan" font-weight="normal"> or</tspan><tspan font-style="normal" class="text-inner-tspan" font-weight="normal"> shared</tspan></tspan><tspan class="text-outer-tspan row" x="0" y="1em" dy="1.1em" text-anchor="middle"><tspan font-style="normal" class="text-inner-tspan" font-weight="normal">cadence</tspan></tspan></text></g></g></g><g class="edgeLabel" transform="translate(736.8226547241211, 747.1750068664551)"><g class="label" data-id="L_qOrg_qSkew_0" transform="translate(0, -19.299999237060547)"><g><rect class="background" style="" x="-69.2734375" y="-1" width="138.546875" height="40.599998474121094"></rect><text y="-10.1" text-anchor="middle" style=""><tspan class="text-outer-tspan row" x="0" y="-0.1em" dy="1.1em" text-anchor="middle"><tspan font-style="normal" class="text-inner-tspan" font-weight="normal">yes</tspan><tspan font-style="normal" class="text-inner-tspan" font-weight="normal"> —</tspan><tspan font-style="normal" class="text-inner-tspan" font-weight="normal"> independent</tspan></tspan><tspan class="text-outer-tspan row" x="0" y="1em" dy="1.1em" text-anchor="middle"><tspan font-style="normal" class="text-inner-tspan" font-weight="normal">cadences</tspan></tspan></text></g></g></g><g class="edgeLabel" transform="translate(605.40265, 1056.71043)"><g class="label" data-id="L_qSkew_trunkRel_0" transform="translate(0, -10.5)"><g><rect class="background" style="" x="-97.7421875" y="-1" width="195.484375" height="23"></rect><text y="-10.1" text-anchor="middle" style=""><tspan class="text-outer-tspan row" x="0" y="-0.1em" dy="1.1em" text-anchor="middle"><tspan font-style="normal" class="text-inner-tspan" font-weight="normal">no</tspan><tspan font-style="normal" class="text-inner-tspan" font-weight="normal"> —</tspan><tspan font-style="normal" class="text-inner-tspan" font-weight="normal"> keep</tspan><tspan font-style="normal" class="text-inner-tspan" font-weight="normal"> it</tspan><tspan font-style="normal" class="text-inner-tspan" font-weight="normal"> in</tspan><tspan font-style="normal" class="text-inner-tspan" font-weight="normal"> one</tspan><tspan font-style="normal" class="text-inner-tspan" font-weight="normal"> bundle</tspan></tspan></text></g></g></g><g class="edgeLabel" transform="translate(843.9710922241211, 1078.6000022888184)"><g class="label" data-id="L_qSkew_indepRel_0" transform="translate(0, -19.299999237060547)"><g><rect class="background" style="" x="-96.5546875" y="-1" width="193.109375" height="40.599998474121094"></rect><text y="-10.1" text-anchor="middle" style=""><tspan class="text-outer-tspan row" x="0" y="-0.1em" dy="1.1em" text-anchor="middle"><tspan font-style="normal" class="text-inner-tspan" font-weight="normal">yes</tspan><tspan font-style="normal" class="text-inner-tspan" font-weight="normal"> —</tspan><tspan font-style="normal" class="text-inner-tspan" font-weight="normal"> platform</tspan><tspan font-style="normal" class="text-inner-tspan" font-weight="normal"> can</tspan><tspan font-style="normal" class="text-inner-tspan" font-weight="normal"> absorb</tspan></tspan><tspan class="text-outer-tspan row" x="0" y="1em" dy="1.1em" text-anchor="middle"><tspan font-style="normal" class="text-inner-tspan" font-weight="normal">the</tspan><tspan font-style="normal" class="text-inner-tspan" font-weight="normal"> cost</tspan></tspan></text></g></g></g><g class="edgeLabel"><g class="label" data-id="L_trainRel_trainNote_0" transform="translate(0, 0)"><text y="-10.1" text-anchor="middle"><tspan class="text-outer-tspan row" x="0" y="-0.1em" dy="1.1em" text-anchor="middle"></tspan></text></g></g><g><rect class="background" style="stroke: none"></rect></g><g class="edgeLabel"><g class="label" data-id="L_trunkRel_trunkNote_0" transform="translate(0, 0)"><text y="-10.1" text-anchor="middle"><tspan class="text-outer-tspan row" x="0" y="-0.1em" dy="1.1em" text-anchor="middle"></tspan></text></g></g><g><rect class="background" style="stroke: none"></rect></g><g class="edgeLabel"><g class="label" data-id="L_indepRel_indepNote_0" transform="translate(0, 0)"><text y="-10.1" text-anchor="middle"><tspan class="text-outer-tspan row" x="0" y="-0.1em" dy="1.1em" text-anchor="middle"></tspan></text></g></g><g><rect class="background" style="stroke: none"></rect></g></g><g class="nodes"><g class="node default" id="g2d7f5b32-73eb-4eea-8246-1727525e04e6-dark-flowchart-start-0" data-look="classic" transform="translate(468.56640625, 33.79999923706055)"><g class="basic label-container outer-path"><path d="M-65.84531307220459 -25.799999237060547 C-14.632886404192881 -25.799999237060547, 36.57954026381883 -25.799999237060547, 65.84531307220459 -25.799999237060547 C65.84531307220459 -25.799999237060547, 65.84531307220459 -25.799999237060547, 65.84531307220459 -25.799999237060547 C66.38435879007221 -25.782713090077372, 66.92340450793984 -25.765426943094198, 67.49832469882529 -25.746990371586765 C68.0472450430719 -25.694036686150596, 68.59616538731852 -25.641083000714424, 69.14454374610231 -25.58818159996402 C69.70427505105206 -25.497688583360844, 70.2640063560018 -25.40719556675767, 70.77720554685753 -25.32422550149928 C71.26660922411027 -25.2125223058238, 71.75601290136301 -25.10081911014832, 72.38960114354678 -24.956206728419545 C72.72568007387581 -24.856460266012196, 73.06175900420483 -24.75671380360485, 73.97510485680552 -24.48563754880318 C74.56500282823148 -24.26854964236135, 75.15490079965747 -24.051461735919517, 75.52720151178644 -23.914451632345997 C75.97741102103502 -23.71515723759224, 76.42762053028359 -23.515862842838484, 77.03951321041056 -23.24499610449772 C77.33786518248219 -23.08934607177151, 77.63621715455382 -22.933696039045298, 78.5058255395184 -22.480021901620034 C79.01041613304494 -22.174136118520774, 79.51500672657149 -21.86825033542151, 79.92011310722664 -21.62267246679901 C80.29747822168554 -21.359438898824997, 80.67484333614445 -21.09620533085098, 81.27656430255584 -20.67647083276321 C81.70053690150914 -20.338363967482646, 82.12450950046242 -20.00025710220208, 82.5696051765865 -19.64530514498651 C82.8709349005921 -19.371645462392237, 83.17226462459769 -19.097985779797966, 83.79392234701088 -18.533412684464313 C84.03491350759111 -18.284569525422974, 84.27590466817134 -18.035726366381635, 84.94448483196044 -17.345362455817106 C85.19964577691212 -17.045635890807787, 85.4548067218638 -16.74590932579847, 86.01656472338968 -16.086036412270357 C86.37096944818678 -15.611166367976857, 86.7253741729839 -15.136296323683359, 87.00575661506427 -14.76060939466161 C87.27453638583322 -14.347691489286271, 87.54331615660215 -13.934773583910932, 87.90799570532036 -13.374527866909407 C88.12153168025637 -12.995373120548356, 88.33506765519239 -12.616218374187303, 88.7195745002064 -11.93348753532484 C88.93625812408573 -11.483539354052613, 89.15294174796503 -11.033591172780389, 89.43715804837109 -10.443409943732584 C89.61246380417089 -10.01040133760086, 89.78776955997068 -9.577392731469136, 90.05779764509381 -8.910418140577123 C90.16308557046553 -8.593307684710286, 90.26837349583725 -8.276197228843449, 90.5789429491449 -7.340811518003323 C90.71647236610289 -6.816352245516146, 90.85400178306088 -6.29189297302897, 90.99845246268467 -5.741039926302914 C91.06750643364468 -5.3864623799851685, 91.13656040460471 -5.031884833667423, 91.31460233113748 -4.117677170096137 C91.3984544911771 -3.4673363753106954, 91.48230665121673 -2.816995580525254, 91.52609342687991 -2.4773939951584394 C91.5585255947785 -1.972236801363123, 91.59095776267709 -1.4670796075678068, 91.63205668763487 -0.8269306768952902 C91.63205668763487 -0.49442757708884083, 91.63205668763487 -0.16192447728239145, 91.63205668763487 0.826930676895284 C91.59539987768488 1.3978900807108938, 91.55874306773488 1.9688494845265034, 91.52609342687991 2.4773939951584216 C91.45549813013596 3.024917176086376, 91.384902833392 3.572440357014331, 91.31460233113748 4.117677170096119 C91.19742260460009 4.719370299921631, 91.0802428780627 5.321063429747143, 90.99845246268467 5.741039926302909 C90.89115247588862 6.150221280064688, 90.78385248909257 6.559402633826467, 90.5789429491449 7.340811518003306 C90.47291004395996 7.6601657343712, 90.366877138775 7.979519950739095, 90.05779764509383 8.910418140577105 C89.85778691180093 9.40444851875504, 89.65777617850802 9.898478896932975, 89.43715804837109 10.443409943732577 C89.29112687107123 10.746646807962385, 89.14509569377137 11.049883672192193, 88.7195745002064 11.933487535324835 C88.4166448547747 12.471369795741714, 88.11371520934298 13.00925205615859, 87.90799570532037 13.374527866909402 C87.6672219474731 13.744421015769616, 87.4264481896258 14.11431416462983, 87.00575661506429 14.760609394661596 C86.65470225973797 15.230990249089164, 86.30364790441165 15.701371103516731, 86.01656472338968 16.086036412270353 C85.7493757642326 16.399891767178737, 85.48218680507551 16.71374712208712, 84.94448483196045 17.345362455817092 C84.5646685391824 17.73755396160799, 84.18485224640436 18.129745467398887, 83.79392234701088 18.533412684464306 C83.40671677550095 18.885062539611596, 83.01951120399104 19.23671239475889, 82.56960517658653 19.64530514498649 C82.26417143856361 19.888880423126654, 81.95873770054068 20.132455701266814, 81.27656430255584 20.676470832763208 C80.77029578091675 21.029621837447564, 80.26402725927765 21.382772842131917, 79.92011310722665 21.622672466799003 C79.6203379927368 21.804397902876875, 79.32056287824692 21.98612333895475, 78.50582553951841 22.48002190162003 C78.09252639667781 22.695639799709234, 77.67922725383721 22.91125769779844, 77.03951321041058 23.244996104497716 C76.56512578393547 23.454993345995227, 76.09073835746035 23.664990587492735, 75.52720151178644 23.914451632345994 C74.94887549936956 24.127280950902463, 74.37054948695268 24.34011026945893, 73.97510485680553 24.485637548803172 C73.37668632767547 24.663245027086017, 72.7782677985454 24.84085250536886, 72.38960114354681 24.95620672841954 C71.91896806205622 25.063625658101895, 71.44833498056565 25.171044587784248, 70.77720554685754 25.324225501499278 C70.17149917295859 25.422151410708178, 69.56579279905962 25.52007731991708, 69.14454374610233 25.588181599964017 C68.50735183950373 25.6496507368582, 67.87015993290514 25.711119873752377, 67.49832469882529 25.746990371586765 C66.87505662208122 25.76697736569023, 66.25178854533715 25.786964359793696, 65.84531307220459 25.799999237060547 C65.84531307220459 25.799999237060547, 65.84531307220459 25.799999237060547, 65.84531307220459 25.799999237060547 C13.433942370642463 25.799999237060547, -38.977428330919665 25.799999237060547, -65.84531307220459 25.799999237060547 C-66.31751210509233 25.784856733155497, -66.78971113798008 25.769714229250447, -67.49832469882527 25.746990371586765 C-68.08819120262159 25.690086659383795, -68.67805770641792 25.633182947180828, -69.14454374610231 25.588181599964017 C-69.56405027625614 25.520359037490476, -69.98355680640996 25.452536475016938, -70.77720554685753 25.324225501499278 C-71.3780520992547 25.187086196804806, -71.97889865165186 25.049946892110334, -72.38960114354678 24.956206728419545 C-73.02088359699944 24.768845409904014, -73.6521660504521 24.581484091388486, -73.9751048568055 24.485637548803183 C-74.29044972548374 24.36958772211358, -74.60579459416199 24.253537895423975, -75.52720151178644 23.914451632345997 C-76.01514555394924 23.698453279226264, -76.50308959611203 23.48245492610653, -77.03951321041056 23.244996104497723 C-77.59219370617551 22.956663043865902, -78.14487420194047 22.66832998323408, -78.5058255395184 22.480021901620038 C-78.860126137733 22.265242796880912, -79.21442673594763 22.05046369214179, -79.92011310722663 21.622672466799017 C-80.25306297396733 21.390421052928133, -80.58601284070805 21.158169639057245, -81.27656430255584 20.67647083276321 C-81.60629284701223 20.413521093004316, -81.93602139146861 20.15057135324542, -82.5696051765865 19.645305144986512 C-83.00793388023918 19.247226613871128, -83.44626258389185 18.849148082755743, -83.79392234701086 18.533412684464324 C-84.15916358526134 18.156271119107362, -84.52440482351182 17.779129553750405, -84.94448483196044 17.3453624558171 C-85.16830281134686 17.082453121626, -85.39212079073329 16.8195437874349, -86.01656472338968 16.08603641227036 C-86.28581584305844 15.725264441195828, -86.55506696272721 15.364492470121295, -87.00575661506427 14.760609394661614 C-87.23272126032644 14.411930750998076, -87.4596859055886 14.063252107334536, -87.90799570532036 13.374527866909418 C-88.17242168014437 12.90501277257594, -88.43684765496837 12.435497678242463, -88.71957450020639 11.933487535324842 C-88.87945357190605 11.601495222076377, -89.03933264360572 11.26950290882791, -89.43715804837109 10.443409943732586 C-89.61835112429652 9.995859543066963, -89.79954420022194 9.548309142401338, -90.05779764509381 8.910418140577127 C-90.19258972789378 8.50444586338551, -90.32738181069374 8.09847358619389, -90.5789429491449 7.340811518003316 C-90.67703047580501 6.966761267445334, -90.77511800246513 6.592711016887353, -90.99845246268467 5.741039926302918 C-91.09104079331622 5.265618417060466, -91.1836291239478 4.790196907818014, -91.31460233113748 4.117677170096139 C-91.37312458940805 3.6637900914765886, -91.43164684767862 3.209903012857038, -91.52609342687991 2.477393995158454 C-91.55010030700927 2.1034674591388143, -91.57410718713862 1.7295409231191743, -91.63205668763487 0.8269306768952934 C-91.63205668763487 0.257032763690181, -91.63205668763487 -0.3128651495149314, -91.63205668763487 -0.8269306768952809 C-91.59000516367998 -1.4819171058720104, -91.54795363972508 -2.1369035348487397, -91.52609342687991 -2.4773939951584185 C-91.47630407917495 -2.8635503439392576, -91.42651473147001 -3.2497066927200966, -91.31460233113748 -4.117677170096128 C-91.24293220325784 -4.485688129271205, -91.1712620753782 -4.853699088446282, -90.99845246268467 -5.741039926302906 C-90.87041570667351 -6.229299568454539, -90.74237895066234 -6.717559210606171, -90.5789429491449 -7.340811518003303 C-90.39978448190348 -7.880408276309229, -90.22062601466205 -8.420005034615155, -90.05779764509383 -8.910418140577093 C-89.8672314175437 -9.381120406973249, -89.6766651899936 -9.851822673369405, -89.43715804837109 -10.443409943732574 C-89.16608079880552 -11.006307652579434, -88.89500354923997 -11.569205361426292, -88.7195745002064 -11.933487535324831 C-88.51089777557037 -12.304014190725832, -88.30222105093432 -12.674540846126833, -87.90799570532036 -13.374527866909409 C-87.72449828457532 -13.656429181130555, -87.54100086383028 -13.938330495351702, -87.00575661506429 -14.760609394661605 C-86.78938293993633 -15.050530407285743, -86.57300926480838 -15.340451419909883, -86.01656472338968 -16.086036412270353 C-85.6865526935902 -16.47368732068928, -85.35654066379072 -16.861338229108206, -84.94448483196045 -17.345362455817092 C-84.68405258342816 -17.614280134311944, -84.42362033489586 -17.8831978128068, -83.79392234701089 -18.5334126844643 C-83.5343213202175 -18.769175468331277, -83.27472029342411 -19.00493825219825, -82.56960517658653 -19.645305144986487 C-82.07040497576321 -20.043404020867843, -81.57120477493989 -20.441502896749196, -81.27656430255585 -20.676470832763204 C-80.8601851456004 -20.96691890789213, -80.44380598864495 -21.257366983021054, -79.92011310722665 -21.622672466799 C-79.62621643929523 -21.800834354027558, -79.33231977136381 -21.978996241256112, -78.50582553951841 -22.480021901620027 C-78.17336284096653 -22.653467478502023, -77.84090014241464 -22.82691305538402, -77.03951321041058 -23.244996104497716 C-76.55185327288706 -23.46086869292131, -76.06419333536353 -23.6767412813449, -75.52720151178646 -23.91445163234599 C-75.08594789591046 -24.07683704189207, -74.64469428003447 -24.239222451438145, -73.97510485680553 -24.485637548803172 C-73.52269129640764 -24.619911518762024, -73.07027773600977 -24.75418548872088, -72.38960114354681 -24.956206728419538 C-71.8384605050092 -25.08200098263697, -71.28731986647159 -25.207795236854402, -70.77720554685754 -25.324225501499278 C-70.40189009837069 -25.384903592595858, -70.02657464988384 -25.445581683692442, -69.14454374610233 -25.588181599964017 C-68.74119797096826 -25.627091881796932, -68.3378521958342 -25.66600216362985, -67.49832469882529 -25.746990371586765 C-66.97562878073424 -25.76375221231406, -66.45293286264321 -25.780514053041355, -65.8453130722046 -25.799999237060547 C-65.8453130722046 -25.799999237060547, -65.8453130722046 -25.799999237060547, -65.84531307220459 -25.799999237060547" stroke="none" stroke-width="0" fill="#2d2d2d" style=""></path><path d="M-65.84531307220459 -25.799999237060547 C-33.306298450164306 -25.799999237060547, -0.7672838281240217 -25.799999237060547, 65.84531307220459 -25.799999237060547 M-65.84531307220459 -25.799999237060547 C-38.47596814555846 -25.799999237060547, -11.106623218912333 -25.799999237060547, 65.84531307220459 -25.799999237060547 M65.84531307220459 -25.799999237060547 C65.84531307220459 -25.799999237060547, 65.84531307220459 -25.799999237060547, 65.84531307220459 -25.799999237060547 M65.84531307220459 -25.799999237060547 C65.84531307220459 -25.799999237060547, 65.84531307220459 -25.799999237060547, 65.84531307220459 -25.799999237060547 M65.84531307220459 -25.799999237060547 C66.40113775405402 -25.782175021360747, 66.95696243590346 -25.764350805660946, 67.49832469882529 -25.746990371586765 M65.84531307220459 -25.799999237060547 C66.48767072538894 -25.779400077396247, 67.13002837857327 -25.758800917731946, 67.49832469882529 -25.746990371586765 M67.49832469882529 -25.746990371586765 C68.0337117345434 -25.695342228148153, 68.56909877026152 -25.643694084709544, 69.14454374610231 -25.58818159996402 M67.49832469882529 -25.746990371586765 C68.02714362172085 -25.695975846092836, 68.5559625446164 -25.644961320598906, 69.14454374610231 -25.58818159996402 M69.14454374610231 -25.58818159996402 C69.53188298910777 -25.52555959501559, 69.91922223211321 -25.462937590067163, 70.77720554685753 -25.32422550149928 M69.14454374610231 -25.58818159996402 C69.65352311569026 -25.505893762683005, 70.16250248527821 -25.423605925401986, 70.77720554685753 -25.32422550149928 M70.77720554685753 -25.32422550149928 C71.18914879420555 -25.230202143473008, 71.60109204155357 -25.136178785446734, 72.38960114354678 -24.956206728419545 M70.77720554685753 -25.32422550149928 C71.22154111090609 -25.22280880856573, 71.66587667495463 -25.121392115632183, 72.38960114354678 -24.956206728419545 M72.38960114354678 -24.956206728419545 C72.80542310632185 -24.83279295256193, 73.22124506909691 -24.709379176704317, 73.97510485680552 -24.48563754880318 M72.38960114354678 -24.956206728419545 C72.87811687956834 -24.811217822239772, 73.36663261558991 -24.66622891606, 73.97510485680552 -24.48563754880318 M73.97510485680552 -24.48563754880318 C74.33700035073987 -24.35245666171006, 74.69889584467424 -24.219275774616943, 75.52720151178644 -23.914451632345997 M73.97510485680552 -24.48563754880318 C74.31609166339847 -24.360151251929487, 74.65707846999142 -24.23466495505579, 75.52720151178644 -23.914451632345997 M75.52720151178644 -23.914451632345997 C75.90168923265213 -23.748677027102303, 76.2761769535178 -23.58290242185861, 77.03951321041056 -23.24499610449772 M75.52720151178644 -23.914451632345997 C76.10864445809621 -23.657064087906846, 76.69008740440599 -23.39967654346769, 77.03951321041056 -23.24499610449772 M77.03951321041056 -23.24499610449772 C77.5682427038496 -22.969158266437976, 78.09697219728865 -22.69332042837823, 78.5058255395184 -22.480021901620034 M77.03951321041056 -23.24499610449772 C77.60668492581308 -22.949102983863042, 78.17385664121562 -22.653209863228366, 78.5058255395184 -22.480021901620034 M78.5058255395184 -22.480021901620034 C78.84991163731382 -22.271434887062092, 79.19399773510924 -22.06284787250415, 79.92011310722664 -21.62267246679901 M78.5058255395184 -22.480021901620034 C79.04779140777387 -22.151479007338597, 79.58975727602936 -21.822936113057157, 79.92011310722664 -21.62267246679901 M79.92011310722664 -21.62267246679901 C80.21060591994706 -21.42003725587643, 80.50109873266749 -21.21740204495385, 81.27656430255584 -20.67647083276321 M79.92011310722664 -21.62267246679901 C80.21374625632211 -21.417846693164165, 80.50737940541758 -21.21302091952932, 81.27656430255584 -20.67647083276321 M81.27656430255584 -20.67647083276321 C81.55199023097076 -20.45682598424408, 81.82741615938568 -20.237181135724953, 82.5696051765865 -19.64530514498651 M81.27656430255584 -20.67647083276321 C81.69897387212043 -20.339610441826174, 82.12138344168504 -20.002750050889134, 82.5696051765865 -19.64530514498651 M82.5696051765865 -19.64530514498651 C83.03730688679758 -19.220550826481947, 83.50500859700867 -18.79579650797739, 83.79392234701088 -18.533412684464313 M82.5696051765865 -19.64530514498651 C82.9176442887838 -19.329225231899215, 83.2656834009811 -19.013145318811922, 83.79392234701088 -18.533412684464313 M83.79392234701088 -18.533412684464313 C84.19161755361533 -18.122759732261525, 84.58931276021977 -17.712106780058736, 84.94448483196044 -17.345362455817106 M83.79392234701088 -18.533412684464313 C84.23233184213352 -18.08071888666123, 84.67074133725617 -17.62802508885815, 84.94448483196044 -17.345362455817106 M84.94448483196044 -17.345362455817106 C85.21126732662273 -17.031984557232782, 85.47804982128504 -16.718606658648454, 86.01656472338968 -16.086036412270357 M84.94448483196044 -17.345362455817106 C85.24015464377175 -16.998051870774642, 85.53582445558305 -16.65074128573218, 86.01656472338968 -16.086036412270357 M86.01656472338968 -16.086036412270357 C86.2950204989849 -15.712931040815775, 86.57347627458013 -15.339825669361195, 87.00575661506427 -14.76060939466161 M86.01656472338968 -16.086036412270357 C86.275959691451 -15.738470786435899, 86.53535465951235 -15.390905160601443, 87.00575661506427 -14.76060939466161 M87.00575661506427 -14.76060939466161 C87.19840649804726 -14.464647440662747, 87.39105638103025 -14.168685486663883, 87.90799570532036 -13.374527866909407 M87.00575661506427 -14.76060939466161 C87.19734430932733 -14.466279247774155, 87.38893200359041 -14.1719491008867, 87.90799570532036 -13.374527866909407 M87.90799570532036 -13.374527866909407 C88.1529772797635 -12.939538274411204, 88.39795885420666 -12.504548681913, 88.7195745002064 -11.93348753532484 M87.90799570532036 -13.374527866909407 C88.1273071496074 -12.98511818988591, 88.34661859389445 -12.595708512862412, 88.7195745002064 -11.93348753532484 M88.7195745002064 -11.93348753532484 C88.88968204489281 -11.580255579065156, 89.0597895895792 -11.22702362280547, 89.43715804837109 -10.443409943732584 M88.7195745002064 -11.93348753532484 C88.93046957576104 -11.495559398503897, 89.14136465131568 -11.057631261682953, 89.43715804837109 -10.443409943732584 M89.43715804837109 -10.443409943732584 C89.64266960278113 -9.935792431044181, 89.84818115719116 -9.428174918355777, 90.05779764509381 -8.910418140577123 M89.43715804837109 -10.443409943732584 C89.57107079235277 -10.112642877071057, 89.70498353633445 -9.78187581040953, 90.05779764509381 -8.910418140577123 M90.05779764509381 -8.910418140577123 C90.2119207824004 -8.446223807196848, 90.36604391970697 -7.982029473816571, 90.5789429491449 -7.340811518003323 M90.05779764509381 -8.910418140577123 C90.2060070825609 -8.4640349288933, 90.35421652002798 -8.017651717209477, 90.5789429491449 -7.340811518003323 M90.5789429491449 -7.340811518003323 C90.71691777543734 -6.81465370668229, 90.85489260172977 -6.288495895361256, 90.99845246268467 -5.741039926302914 M90.5789429491449 -7.340811518003323 C90.73805648656959 -6.734042639559624, 90.89717002399429 -6.127273761115924, 90.99845246268467 -5.741039926302914 M90.99845246268467 -5.741039926302914 C91.06806849727185 -5.383576302051831, 91.13768453185905 -5.026112677800747, 91.31460233113748 -4.117677170096137 M90.99845246268467 -5.741039926302914 C91.07004371317221 -5.373433985865521, 91.14163496365975 -5.005828045428129, 91.31460233113748 -4.117677170096137 M91.31460233113748 -4.117677170096137 C91.37049056823994 -3.6842190395101277, 91.42637880534241 -3.250760908924119, 91.52609342687991 -2.4773939951584394 M91.31460233113748 -4.117677170096137 C91.39237050096537 -3.5145226019731863, 91.47013867079325 -2.911368033850236, 91.52609342687991 -2.4773939951584394 M91.52609342687991 -2.4773939951584394 C91.56786717446805 -1.826734157311091, 91.60964092205617 -1.1760743194637422, 91.63205668763487 -0.8269306768952902 M91.52609342687991 -2.4773939951584394 C91.56629575736277 -1.8512102471507856, 91.60649808784564 -1.225026499143132, 91.63205668763487 -0.8269306768952902 M91.63205668763487 -0.8269306768952902 C91.63205668763487 -0.4681532619894119, 91.63205668763487 -0.10937584708353354, 91.63205668763487 0.826930676895284 M91.63205668763487 -0.8269306768952902 C91.63205668763487 -0.42932131639893983, 91.63205668763487 -0.03171195590258946, 91.63205668763487 0.826930676895284 M91.63205668763487 0.826930676895284 C91.60149034581558 1.303026123437936, 91.57092400399627 1.779121569980588, 91.52609342687991 2.4773939951584216 M91.63205668763487 0.826930676895284 C91.60940385485114 1.179766832539455, 91.5867510220674 1.5326029881836258, 91.52609342687991 2.4773939951584216 M91.52609342687991 2.4773939951584216 C91.47228178127705 2.8947464921428523, 91.4184701356742 3.312098989127283, 91.31460233113748 4.117677170096119 M91.52609342687991 2.4773939951584216 C91.44279398004903 3.1234480554424255, 91.35949453321815 3.769502115726429, 91.31460233113748 4.117677170096119 M91.31460233113748 4.117677170096119 C91.20911322720794 4.659341423644285, 91.1036241232784 5.201005677192451, 90.99845246268467 5.741039926302909 M91.31460233113748 4.117677170096119 C91.20528370150615 4.679005228752452, 91.09596507187482 5.240333287408785, 90.99845246268467 5.741039926302909 M90.99845246268467 5.741039926302909 C90.88973069188111 6.155643158690379, 90.78100892107757 6.570246391077849, 90.5789429491449 7.340811518003306 M90.99845246268467 5.741039926302909 C90.86990491332742 6.231247444862417, 90.74135736397017 6.721454963421924, 90.5789429491449 7.340811518003306 M90.5789429491449 7.340811518003306 C90.38884222093465 7.913364622934791, 90.19874149272441 8.485917727866278, 90.05779764509383 8.910418140577105 M90.5789429491449 7.340811518003306 C90.4591071332813 7.7017379021401435, 90.3392713174177 8.062664286276982, 90.05779764509383 8.910418140577105 M90.05779764509383 8.910418140577105 C89.92391499048603 9.241110885903408, 89.79003233587822 9.571803631229711, 89.43715804837109 10.443409943732577 M90.05779764509383 8.910418140577105 C89.91058506615543 9.274036056716518, 89.76337248721705 9.637653972855931, 89.43715804837109 10.443409943732577 M89.43715804837109 10.443409943732577 C89.28789358060588 10.753360804795019, 89.13862911284066 11.063311665857459, 88.7195745002064 11.933487535324835 M89.43715804837109 10.443409943732577 C89.25131474541283 10.829317538735076, 89.06547144245457 11.215225133737576, 88.7195745002064 11.933487535324835 M88.7195745002064 11.933487535324835 C88.47148361808608 12.373998018455417, 88.22339273596576 12.814508501586001, 87.90799570532037 13.374527866909402 M88.7195745002064 11.933487535324835 C88.55356362462939 12.228256655335835, 88.38755274905238 12.523025775346834, 87.90799570532037 13.374527866909402 M87.90799570532037 13.374527866909402 C87.57514669319823 13.885873332003495, 87.24229768107608 14.39721879709759, 87.00575661506429 14.760609394661596 M87.90799570532037 13.374527866909402 C87.55145442165663 13.922271023357105, 87.19491313799288 14.470014179804807, 87.00575661506429 14.760609394661596 M87.00575661506429 14.760609394661596 C86.75255533067988 15.099876048625163, 86.49935404629547 15.439142702588727, 86.01656472338968 16.086036412270353 M87.00575661506429 14.760609394661596 C86.69159837359949 15.18155281781985, 86.3774401321347 15.602496240978105, 86.01656472338968 16.086036412270353 M86.01656472338968 16.086036412270353 C85.7389631660237 16.41212299752853, 85.46136160865771 16.73820958278671, 84.94448483196045 17.345362455817092 M86.01656472338968 16.086036412270353 C85.7375018375732 16.413839557078425, 85.45843895175673 16.741642701886498, 84.94448483196045 17.345362455817092 M84.94448483196045 17.345362455817092 C84.69590140686195 17.60204525131005, 84.44731798176345 17.85872804680301, 83.79392234701088 18.533412684464306 M84.94448483196045 17.345362455817092 C84.53013788911231 17.773209692824466, 84.11579094626417 18.201056929831836, 83.79392234701088 18.533412684464306 M83.79392234701088 18.533412684464306 C83.4773128800989 18.820949025286318, 83.16070341318692 19.108485366108326, 82.56960517658653 19.64530514498649 M83.79392234701088 18.533412684464306 C83.34342516812214 18.942542302828883, 82.89292798923339 19.35167192119346, 82.56960517658653 19.64530514498649 M82.56960517658653 19.64530514498649 C82.26763244639702 19.886120361480796, 81.9656597162075 20.126935577975097, 81.27656430255584 20.676470832763208 M82.56960517658653 19.64530514498649 C82.25467283916346 19.89645530337992, 81.9397405017404 20.147605461773352, 81.27656430255584 20.676470832763208 M81.27656430255584 20.676470832763208 C80.83268789429313 20.98609980006725, 80.38881148603043 21.295728767371294, 79.92011310722665 21.622672466799003 M81.27656430255584 20.676470832763208 C80.87844986121094 20.954178232949015, 80.48033541986602 21.23188563313482, 79.92011310722665 21.622672466799003 M79.92011310722665 21.622672466799003 C79.56500074843954 21.83794366556761, 79.20988838965243 22.05321486433622, 78.50582553951841 22.48002190162003 M79.92011310722665 21.622672466799003 C79.49716742425423 21.879064625321607, 79.0742217412818 22.135456783844212, 78.50582553951841 22.48002190162003 M78.50582553951841 22.48002190162003 C78.1821486639901 22.64888392025821, 77.85847178846181 22.81774593889639, 77.03951321041058 23.244996104497716 M78.50582553951841 22.48002190162003 C78.14971026002542 22.6658070148288, 77.79359498053243 22.85159212803757, 77.03951321041058 23.244996104497716 M77.03951321041058 23.244996104497716 C76.4898122862277 23.488332397334922, 75.94011136204483 23.73166869017213, 75.52720151178644 23.914451632345994 M77.03951321041058 23.244996104497716 C76.55613797179916 23.458971983813992, 76.07276273318776 23.67294786313027, 75.52720151178644 23.914451632345994 M75.52720151178644 23.914451632345994 C75.1645195425607 24.047921949616445, 74.80183757333494 24.181392266886892, 73.97510485680553 24.485637548803172 M75.52720151178644 23.914451632345994 C75.19473902963533 24.0368008990271, 74.86227654748423 24.159150165708205, 73.97510485680553 24.485637548803172 M73.97510485680553 24.485637548803172 C73.61548338736222 24.59237131324233, 73.25586191791892 24.699105077681494, 72.38960114354681 24.95620672841954 M73.97510485680553 24.485637548803172 C73.40200294279842 24.65573118860715, 72.82890102879132 24.825824828411122, 72.38960114354681 24.95620672841954 M72.38960114354681 24.95620672841954 C72.01002861302835 25.042841681568138, 71.63045608250988 25.12947663471673, 70.77720554685754 25.324225501499278 M72.38960114354681 24.95620672841954 C71.8210081918687 25.0859843592243, 71.2524152401906 25.215761990029065, 70.77720554685754 25.324225501499278 M70.77720554685754 25.324225501499278 C70.2375205751281 25.41147758240903, 69.69783560339866 25.498729663318784, 69.14454374610233 25.588181599964017 M70.77720554685754 25.324225501499278 C70.14043173635446 25.427174152926764, 69.50365792585137 25.53012280435425, 69.14454374610233 25.588181599964017 M69.14454374610233 25.588181599964017 C68.61698354059901 25.63907469850495, 68.08942333509567 25.689967797045878, 67.49832469882529 25.746990371586765 M69.14454374610233 25.588181599964017 C68.74044378456004 25.627164637252694, 68.33634382301776 25.66614767454137, 67.49832469882529 25.746990371586765 M67.49832469882529 25.746990371586765 C66.91247124297887 25.765777551621184, 66.32661778713245 25.784564731655607, 65.84531307220459 25.799999237060547 M67.49832469882529 25.746990371586765 C67.08729094745797 25.760171423964454, 66.67625719609065 25.77335247634214, 65.84531307220459 25.799999237060547 M65.84531307220459 25.799999237060547 C65.84531307220459 25.799999237060547, 65.84531307220459 25.799999237060547, 65.84531307220459 25.799999237060547 M65.84531307220459 25.799999237060547 C65.84531307220459 25.799999237060547, 65.84531307220459 25.799999237060547, 65.84531307220459 25.799999237060547 M65.84531307220459 25.799999237060547 C37.80532080608833 25.799999237060547, 9.765328539972082 25.799999237060547, -65.84531307220459 25.799999237060547 M65.84531307220459 25.799999237060547 C28.81788730082731 25.799999237060547, -8.209538470549973 25.799999237060547, -65.84531307220459 25.799999237060547 M-65.84531307220459 25.799999237060547 C-66.38025991600769 25.782844532990648, -66.91520675981077 25.765689828920745, -67.49832469882527 25.746990371586765 M-65.84531307220459 25.799999237060547 C-66.2415413186666 25.787292968408003, -66.63776956512862 25.774586699755464, -67.49832469882527 25.746990371586765 M-67.49832469882527 25.746990371586765 C-67.97876023827983 25.700643332903855, -68.4591957777344 25.654296294220945, -69.14454374610231 25.588181599964017 M-67.49832469882527 25.746990371586765 C-68.0241223023566 25.696267309138236, -68.54991990588792 25.645544246689703, -69.14454374610231 25.588181599964017 M-69.14454374610231 25.588181599964017 C-69.77324087899204 25.48653872313749, -70.40193801188175 25.38489584631096, -70.77720554685753 25.324225501499278 M-69.14454374610231 25.588181599964017 C-69.47674089161768 25.53447454170443, -69.80893803713305 25.480767483444847, -70.77720554685753 25.324225501499278 M-70.77720554685753 25.324225501499278 C-71.19759486749177 25.228274382361203, -71.61798418812603 25.132323263223128, -72.38960114354678 24.956206728419545 M-70.77720554685753 25.324225501499278 C-71.33268724519611 25.19744042871034, -71.88816894353468 25.070655355921403, -72.38960114354678 24.956206728419545 M-72.38960114354678 24.956206728419545 C-72.78472575471294 24.83893581787684, -73.17985036587908 24.721664907334137, -73.9751048568055 24.485637548803183 M-72.38960114354678 24.956206728419545 C-72.84778580892377 24.82021992479604, -73.30597047430078 24.684233121172536, -73.9751048568055 24.485637548803183 M-73.9751048568055 24.485637548803183 C-74.51932097055769 24.28536098826377, -75.06353708430987 24.085084427724357, -75.52720151178644 23.914451632345997 M-73.9751048568055 24.485637548803183 C-74.5876371075703 24.26022001833568, -75.2001693583351 24.034802487868177, -75.52720151178644 23.914451632345997 M-75.52720151178644 23.914451632345997 C-76.09126920238104 23.664755598193306, -76.65533689297563 23.415059564040618, -77.03951321041056 23.244996104497723 M-75.52720151178644 23.914451632345997 C-76.12250709789916 23.650927508486678, -76.71781268401189 23.387403384627362, -77.03951321041056 23.244996104497723 M-77.03951321041056 23.244996104497723 C-77.46442024423058 23.023322377119765, -77.88932727805059 22.80164864974181, -78.5058255395184 22.480021901620038 M-77.03951321041056 23.244996104497723 C-77.62075618327228 22.94176201785966, -78.201999156134 22.638527931221592, -78.5058255395184 22.480021901620038 M-78.5058255395184 22.480021901620038 C-78.96978107914752 22.198769326991467, -79.43373661877666 21.917516752362896, -79.92011310722663 21.622672466799017 M-78.5058255395184 22.480021901620038 C-79.02529228934618 22.16511810514896, -79.54475903917398 21.85021430867788, -79.92011310722663 21.622672466799017 M-79.92011310722663 21.622672466799017 C-80.37528108947443 21.30516698628733, -80.83044907172224 20.98766150577564, -81.27656430255584 20.67647083276321 M-79.92011310722663 21.622672466799017 C-80.22165084201119 21.412332796371462, -80.52318857679576 21.201993125943904, -81.27656430255584 20.67647083276321 M-81.27656430255584 20.67647083276321 C-81.76341448322654 20.288220769305735, -82.25026466389725 19.899970705848258, -82.5696051765865 19.645305144986512 M-81.27656430255584 20.67647083276321 C-81.55916650257504 20.45110309860828, -81.84176870259424 20.22573536445335, -82.5696051765865 19.645305144986512 M-82.5696051765865 19.645305144986512 C-82.88211393322378 19.36149296073714, -83.19462268986105 19.07768077648777, -83.79392234701086 18.533412684464324 M-82.5696051765865 19.645305144986512 C-82.85095803498906 19.389787923174016, -83.13231089339162 19.13427070136152, -83.79392234701086 18.533412684464324 M-83.79392234701086 18.533412684464324 C-84.1956815760343 18.11856329545148, -84.59744080505774 17.70371390643864, -84.94448483196044 17.3453624558171 M-83.79392234701086 18.533412684464324 C-84.02434611166547 18.295481229315538, -84.25476987632007 18.05754977416675, -84.94448483196044 17.3453624558171 M-84.94448483196044 17.3453624558171 C-85.32453794919374 16.898930438679862, -85.70459106642706 16.452498421542625, -86.01656472338968 16.08603641227036 M-84.94448483196044 17.3453624558171 C-85.35399617732273 16.864327127698893, -85.76350752268502 16.383291799580682, -86.01656472338968 16.08603641227036 M-86.01656472338968 16.08603641227036 C-86.28746763124781 15.723051195503084, -86.55837053910594 15.360065978735808, -87.00575661506427 14.760609394661614 M-86.01656472338968 16.08603641227036 C-86.3803922524861 15.598540668650907, -86.74421978158254 15.111044925031452, -87.00575661506427 14.760609394661614 M-87.00575661506427 14.760609394661614 C-87.33280489495223 14.25817541199394, -87.65985317484018 13.755741429326267, -87.90799570532036 13.374527866909418 M-87.00575661506427 14.760609394661614 C-87.2116326060565 14.444328587053278, -87.41750859704872 14.128047779444943, -87.90799570532036 13.374527866909418 M-87.90799570532036 13.374527866909418 C-88.16774062115329 12.91332446682323, -88.42748553698621 12.452121066737044, -88.71957450020639 11.933487535324842 M-87.90799570532036 13.374527866909418 C-88.1203904534093 12.997399484377091, -88.33278520149824 12.620271101844764, -88.71957450020639 11.933487535324842 M-88.71957450020639 11.933487535324842 C-88.96281708115401 11.428389111429627, -89.20605966210165 10.923290687534413, -89.43715804837109 10.443409943732586 M-88.71957450020639 11.933487535324842 C-88.91150012693976 11.534949864862474, -89.10342575367311 11.136412194400105, -89.43715804837109 10.443409943732586 M-89.43715804837109 10.443409943732586 C-89.61641439786432 10.000643294798557, -89.79567074735755 9.557876645864528, -90.05779764509381 8.910418140577127 M-89.43715804837109 10.443409943732586 C-89.58816564762267 10.070418254047853, -89.73917324687426 9.697426564363118, -90.05779764509381 8.910418140577127 M-90.05779764509381 8.910418140577127 C-90.2304656157668 8.390369723815175, -90.40313358643978 7.870321307053222, -90.5789429491449 7.340811518003316 M-90.05779764509381 8.910418140577127 C-90.21021868538729 8.451350252207975, -90.36263972568076 7.992282363838823, -90.5789429491449 7.340811518003316 M-90.5789429491449 7.340811518003316 C-90.69786096316027 6.887325591169445, -90.81677897717563 6.433839664335573, -90.99845246268467 5.741039926302918 M-90.5789429491449 7.340811518003316 C-90.73703708456063 6.737930061231432, -90.89513121997636 6.135048604459547, -90.99845246268467 5.741039926302918 M-90.99845246268467 5.741039926302918 C-91.10626909751083 5.187424293524444, -91.21408573233698 4.63380866074597, -91.31460233113748 4.117677170096139 M-90.99845246268467 5.741039926302918 C-91.09388510190344 5.2510134936099515, -91.18931774112222 4.760987060916984, -91.31460233113748 4.117677170096139 M-91.31460233113748 4.117677170096139 C-91.36010043246708 3.7648028808000835, -91.40559853379668 3.4119285915040276, -91.52609342687991 2.477393995158454 M-91.31460233113748 4.117677170096139 C-91.39757394856329 3.4741656899405937, -91.4805455659891 2.830654209785048, -91.52609342687991 2.477393995158454 M-91.52609342687991 2.477393995158454 C-91.55997777280008 1.9496179564999334, -91.59386211872027 1.421841917841413, -91.63205668763487 0.8269306768952934 M-91.52609342687991 2.477393995158454 C-91.56200036988488 1.91811437429323, -91.59790731288986 1.358834753428006, -91.63205668763487 0.8269306768952934 M-91.63205668763487 0.8269306768952934 C-91.63205668763487 0.18004447487848396, -91.63205668763487 -0.4668417271383255, -91.63205668763487 -0.8269306768952809 M-91.63205668763487 0.8269306768952934 C-91.63205668763487 0.18301695396052498, -91.63205668763487 -0.4608967689742435, -91.63205668763487 -0.8269306768952809 M-91.63205668763487 -0.8269306768952809 C-91.59307737449303 -1.434064942614607, -91.5540980613512 -2.0411992083339334, -91.52609342687991 -2.4773939951584185 M-91.63205668763487 -0.8269306768952809 C-91.5980134819967 -1.35718108389083, -91.56397027635853 -1.887431490886379, -91.52609342687991 -2.4773939951584185 M-91.52609342687991 -2.4773939951584185 C-91.47817382345845 -2.849048976499261, -91.43025422003699 -3.2207039578401035, -91.31460233113748 -4.117677170096128 M-91.52609342687991 -2.4773939951584185 C-91.48211432382466 -2.8184872337987446, -91.43813522076941 -3.15958047243907, -91.31460233113748 -4.117677170096128 M-91.31460233113748 -4.117677170096128 C-91.24815633259857 -4.458863329226643, -91.18171033405966 -4.800049488357158, -90.99845246268467 -5.741039926302906 M-91.31460233113748 -4.117677170096128 C-91.23880578677489 -4.506876405792675, -91.1630092424123 -4.896075641489222, -90.99845246268467 -5.741039926302906 M-90.99845246268467 -5.741039926302906 C-90.86438472552655 -6.2522983134116785, -90.73031698836841 -6.76355670052045, -90.5789429491449 -7.340811518003303 M-90.99845246268467 -5.741039926302906 C-90.91270780533452 -6.068021466748609, -90.82696314798436 -6.395003007194312, -90.5789429491449 -7.340811518003303 M-90.5789429491449 -7.340811518003303 C-90.41050977342874 -7.848105407078254, -90.24207659771258 -8.355399296153205, -90.05779764509383 -8.910418140577093 M-90.5789429491449 -7.340811518003303 C-90.45184116678753 -7.723621835544802, -90.32473938443017 -8.1064321530863, -90.05779764509383 -8.910418140577093 M-90.05779764509383 -8.910418140577093 C-89.86684998723729 -9.382062547204564, -89.67590232938075 -9.853706953832033, -89.43715804837109 -10.443409943732574 M-90.05779764509383 -8.910418140577093 C-89.87701226225728 -9.356961531430976, -89.69622687942072 -9.803504922284857, -89.43715804837109 -10.443409943732574 M-89.43715804837109 -10.443409943732574 C-89.17592889999284 -10.98585785974837, -88.91469975161459 -11.528305775764164, -88.7195745002064 -11.933487535324831 M-89.43715804837109 -10.443409943732574 C-89.2916507777749 -10.745558904482385, -89.14614350717872 -11.047707865232196, -88.7195745002064 -11.933487535324831 M-88.7195745002064 -11.933487535324831 C-88.48453512880204 -12.350823739570467, -88.24949575739765 -12.768159943816102, -87.90799570532036 -13.374527866909409 M-88.7195745002064 -11.933487535324831 C-88.53285482324821 -12.265027229181637, -88.34613514629002 -12.596566923038441, -87.90799570532036 -13.374527866909409 M-87.90799570532036 -13.374527866909409 C-87.61139416538043 -13.830187480922477, -87.31479262544052 -14.285847094935544, -87.00575661506429 -14.760609394661605 M-87.90799570532036 -13.374527866909409 C-87.6754104729385 -13.731841241727784, -87.44282524055663 -14.089154616546157, -87.00575661506429 -14.760609394661605 M-87.00575661506429 -14.760609394661605 C-86.74848308219606 -15.105332490604019, -86.49120954932783 -15.45005558654643, -86.01656472338968 -16.086036412270353 M-87.00575661506429 -14.760609394661605 C-86.65755164315883 -15.227172334889389, -86.30934667125337 -15.69373527511717, -86.01656472338968 -16.086036412270353 M-86.01656472338968 -16.086036412270353 C-85.73527559117085 -16.416454632779637, -85.45398645895202 -16.746872853288924, -84.94448483196045 -17.345362455817092 M-86.01656472338968 -16.086036412270353 C-85.70605606856549 -16.450777546669837, -85.39554741374128 -16.81551868106932, -84.94448483196045 -17.345362455817092 M-84.94448483196045 -17.345362455817092 C-84.65672344295547 -17.642499715614154, -84.36896205395048 -17.93963697541121, -83.79392234701089 -18.5334126844643 M-84.94448483196045 -17.345362455817092 C-84.65075847592395 -17.6486590338071, -84.35703211988744 -17.951955611797107, -83.79392234701089 -18.5334126844643 M-83.79392234701089 -18.5334126844643 C-83.31810360507892 -18.965538676412887, -82.84228486314694 -19.397664668361475, -82.56960517658653 -19.645305144986487 M-83.79392234701089 -18.5334126844643 C-83.46068550792624 -18.83604956475737, -83.1274486688416 -19.138686445050443, -82.56960517658653 -19.645305144986487 M-82.56960517658653 -19.645305144986487 C-82.1344409458243 -19.992337038812856, -81.69927671506206 -20.339368932639225, -81.27656430255585 -20.676470832763204 M-82.56960517658653 -19.645305144986487 C-82.07508620724191 -20.03967086333638, -81.58056723789728 -20.43403658168627, -81.27656430255585 -20.676470832763204 M-81.27656430255585 -20.676470832763204 C-80.84266891814106 -20.9791374699025, -80.40877353372626 -21.2818041070418, -79.92011310722665 -21.622672466799 M-81.27656430255585 -20.676470832763204 C-80.78880604554266 -21.01670987814097, -80.30104778852946 -21.356948923518736, -79.92011310722665 -21.622672466799 M-79.92011310722665 -21.622672466799 C-79.62452372670298 -21.801860486348467, -79.3289343461793 -21.981048505897938, -78.50582553951841 -22.480021901620027 M-79.92011310722665 -21.622672466799 C-79.5106104554536 -21.870915380808523, -79.10110780368056 -22.119158294818046, -78.50582553951841 -22.480021901620027 M-78.50582553951841 -22.480021901620027 C-78.16525859976103 -22.657695455947916, -77.82469166000365 -22.83536901027581, -77.03951321041058 -23.244996104497716 M-78.50582553951841 -22.480021901620027 C-77.92920724743833 -22.780843295256563, -77.35258895535824 -23.0816646888931, -77.03951321041058 -23.244996104497716 M-77.03951321041058 -23.244996104497716 C-76.70536687557868 -23.39291277482895, -76.37122054074679 -23.540829445160185, -75.52720151178646 -23.91445163234599 M-77.03951321041058 -23.244996104497716 C-76.58625262778823 -23.445641118927167, -76.13299204516588 -23.646286133356618, -75.52720151178646 -23.91445163234599 M-75.52720151178646 -23.91445163234599 C-75.08773472505851 -24.07617947224832, -74.64826793833056 -24.237907312150647, -73.97510485680553 -24.485637548803172 M-75.52720151178646 -23.91445163234599 C-75.07510622959387 -24.08082687531584, -74.62301094740127 -24.247202118285692, -73.97510485680553 -24.485637548803172 M-73.97510485680553 -24.485637548803172 C-73.4747769949681 -24.634132231921985, -72.97444913313065 -24.782626915040797, -72.38960114354681 -24.956206728419538 M-73.97510485680553 -24.485637548803172 C-73.5273942432506 -24.61851570882531, -73.07968362969567 -24.751393868847448, -72.38960114354681 -24.956206728419538 M-72.38960114354681 -24.956206728419538 C-71.93144517953563 -25.06077783745802, -71.47328921552446 -25.1653489464965, -70.77720554685754 -25.324225501499278 M-72.38960114354681 -24.956206728419538 C-71.90948387171942 -25.06579036265614, -71.42936659989203 -25.17537399689275, -70.77720554685754 -25.324225501499278 M-70.77720554685754 -25.324225501499278 C-70.19348090028456 -25.418597575504958, -69.60975625371157 -25.512969649510634, -69.14454374610233 -25.588181599964017 M-70.77720554685754 -25.324225501499278 C-70.22089092243692 -25.414166135691257, -69.6645762980163 -25.504106769883236, -69.14454374610233 -25.588181599964017 M-69.14454374610233 -25.588181599964017 C-68.71410816024085 -25.629705203257544, -68.28367257437938 -25.67122880655107, -67.49832469882529 -25.746990371586765 M-69.14454374610233 -25.588181599964017 C-68.81061474002193 -25.620395329572204, -68.47668573394152 -25.652609059180396, -67.49832469882529 -25.746990371586765 M-67.49832469882529 -25.746990371586765 C-67.13203187185691 -25.758736669601905, -66.76573904488852 -25.770482967617045, -65.8453130722046 -25.799999237060547 M-67.49832469882529 -25.746990371586765 C-66.92953737772244 -25.765230273897174, -66.3607500566196 -25.783470176207587, -65.8453130722046 -25.799999237060547 M-65.8453130722046 -25.799999237060547 C-65.8453130722046 -25.799999237060547, -65.84531307220459 -25.799999237060547, -65.84531307220459 -25.799999237060547 M-65.8453130722046 -25.799999237060547 C-65.8453130722046 -25.799999237060547, -65.8453130722046 -25.799999237060547, -65.84531307220459 -25.799999237060547" stroke="#555555" stroke-width="1.3" fill="none" stroke-dasharray="0 0" style=""></path></g><g class="label" style="" transform="translate(0, -18.299999237060547)"><rect></rect><g><rect class="background" style="stroke: none"></rect><text y="-10.1" style=""><tspan class="text-outer-tspan row" x="0" y="-0.1em" dy="1.1em"><tspan font-style="normal" class="text-inner-tspan" font-weight="normal">Pick</tspan><tspan font-style="normal" class="text-inner-tspan" font-weight="normal"> a</tspan><tspan font-style="normal" class="text-inner-tspan" font-weight="normal"> default</tspan><tspan font-style="normal" class="text-inner-tspan" font-weight="normal"> release</tspan></tspan><tspan class="text-outer-tspan row" x="0" y="1em" dy="1.1em"><tspan font-style="normal" class="text-inner-tspan" font-weight="normal">model</tspan></tspan></text></g></g></g><g class="node default" id="g2d7f5b32-73eb-4eea-8246-1727525e04e6-dark-flowchart-qCoupling-1" data-look="classic" transform="translate(468.56640625, 242.18437957763672)"><polygon points="132.5843734741211,0 265.1687469482422,-132.5843734741211 132.5843734741211,-265.1687469482422 0,-132.5843734741211" class="label-container" transform="translate(-132.0843734741211, 132.5843734741211)"></polygon><g class="label" style="" transform="translate(0, -27.099998474121094)"><rect></rect><g><rect class="background" style="stroke: none"></rect><text y="-10.1" style=""><tspan class="text-outer-tspan row" x="0" y="-0.1em" dy="1.1em"><tspan font-style="normal" class="text-inner-tspan" font-weight="normal">Are</tspan><tspan font-style="normal" class="text-inner-tspan" font-weight="normal"> domain</tspan></tspan><tspan class="text-outer-tspan row" x="0" y="1em" dy="1.1em"><tspan font-style="normal" class="text-inner-tspan" font-weight="normal">boundaries</tspan><tspan font-style="normal" class="text-inner-tspan" font-weight="normal"> and</tspan><tspan font-style="normal" class="text-inner-tspan" font-weight="normal"> contracts</tspan></tspan><tspan class="text-outer-tspan row" x="0" y="2.1em" dy="1.1em"><tspan font-style="normal" class="text-inner-tspan" font-weight="normal">actually</tspan><tspan font-style="normal" class="text-inner-tspan" font-weight="normal"> stable?</tspan></tspan></text></g></g></g><g class="node default" id="g2d7f5b32-73eb-4eea-8246-1727525e04e6-dark-flowchart-qOrg-2" data-look="classic" transform="translate(609.7414054870605, 574.8218841552734)"><polygon points="127.0531234741211,0 254.1062469482422,-127.0531234741211 127.0531234741211,-254.1062469482422 0,-127.0531234741211" class="label-container" transform="translate(-126.5531234741211, 127.0531234741211)"></polygon><g class="label" style="" transform="translate(0, -27.099998474121094)"><rect></rect><g><rect class="background" style="stroke: none"></rect><text y="-10.1" style=""><tspan class="text-outer-tspan row" x="0" y="-0.1em" dy="1.1em"><tspan font-style="normal" class="text-inner-tspan" font-weight="normal">Multiple</tspan><tspan font-style="normal" class="text-inner-tspan" font-weight="normal"> teams</tspan><tspan font-style="normal" class="text-inner-tspan" font-weight="normal"> shipping</tspan></tspan><tspan class="text-outer-tspan row" x="0" y="1em" dy="1.1em"><tspan font-style="normal" class="text-inner-tspan" font-weight="normal">different</tspan><tspan font-style="normal" class="text-inner-tspan" font-weight="normal"> cadences</tspan></tspan><tspan class="text-outer-tspan row" x="0" y="2.1em" dy="1.1em"><tspan font-style="normal" class="text-inner-tspan" font-weight="normal">into</tspan><tspan font-style="normal" class="text-inner-tspan" font-weight="normal"> the</tspan><tspan font-style="normal" class="text-inner-tspan" font-weight="normal"> same</tspan><tspan font-style="normal" class="text-inner-tspan" font-weight="normal"> UI?</tspan></tspan></text></g></g></g><g class="node default" id="g2d7f5b32-73eb-4eea-8246-1727525e04e6-dark-flowchart-qSkew-3" data-look="classic" transform="translate(736.8226547241211, 912.8875045776367)"><polygon points="120.4124984741211,0 240.8249969482422,-120.4124984741211 120.4124984741211,-240.8249969482422 0,-120.4124984741211" class="label-container" transform="translate(-119.9124984741211, 120.4124984741211)"></polygon><g class="label" style="" transform="translate(0, -27.099998474121094)"><rect></rect><g><rect class="background" style="stroke: none"></rect><text y="-10.1" style=""><tspan class="text-outer-tspan row" x="0" y="-0.1em" dy="1.1em"><tspan font-style="normal" class="text-inner-tspan" font-weight="normal">Can</tspan><tspan font-style="normal" class="text-inner-tspan" font-weight="normal"> the</tspan><tspan font-style="normal" class="text-inner-tspan" font-weight="normal"> platform</tspan><tspan font-style="normal" class="text-inner-tspan" font-weight="normal"> own</tspan></tspan><tspan class="text-outer-tspan row" x="0" y="1em" dy="1.1em"><tspan font-style="normal" class="text-inner-tspan" font-weight="normal">routing,</tspan><tspan font-style="normal" class="text-inner-tspan" font-weight="normal"> caching,</tspan></tspan><tspan class="text-outer-tspan row" x="0" y="2.1em" dy="1.1em"><tspan font-style="normal" class="text-inner-tspan" font-weight="normal">and</tspan><tspan font-style="normal" class="text-inner-tspan" font-weight="normal"> version</tspan><tspan font-style="normal" class="text-inner-tspan" font-weight="normal"> skew?</tspan></tspan></text></g></g></g><g class="node default" id="g2d7f5b32-73eb-4eea-8246-1727525e04e6-dark-flowchart-trainRel-4" data-look="classic" transform="translate(130.265625, 574.8218841552734)"><rect class="basic label-container" style="" x="-105.296875" y="-42.099998474121094" width="210.59375" height="84.19999694824219"></rect><g class="label" style="" transform="translate(0, -27.099998474121094)"><rect></rect><g><rect class="background" style="stroke: none"></rect><text y="-10.1" style=""><tspan class="text-outer-tspan row" x="0" y="-0.1em" dy="1.1em"><tspan font-style="normal" class="text-inner-tspan" font-weight="normal">Single</tspan><tspan font-style="normal" class="text-inner-tspan" font-weight="normal"> release</tspan><tspan font-style="normal" class="text-inner-tspan" font-weight="normal"> train</tspan></tspan><tspan class="text-outer-tspan row" x="0" y="1em" dy="1.1em"><tspan font-style="normal" class="text-inner-tspan" font-weight="normal">(batched,</tspan><tspan font-style="normal" class="text-inner-tspan" font-weight="normal"> monolithic</tspan></tspan><tspan class="text-outer-tspan row" x="0" y="2.1em" dy="1.1em"><tspan font-style="normal" class="text-inner-tspan" font-weight="normal">deploy)</tspan></tspan></text></g></g></g><g class="node default" id="g2d7f5b32-73eb-4eea-8246-1727525e04e6-dark-flowchart-trunkRel-5" data-look="classic" transform="translate(458.31953048706055, 1166)"><rect class="basic label-container" style="" x="-114.4453125" y="-42.099998474121094" width="228.890625" height="84.19999694824219"></rect><g class="label" style="" transform="translate(0, -27.099998474121094)"><rect></rect><g><rect class="background" style="stroke: none"></rect><text y="-10.1" style=""><tspan class="text-outer-tspan row" x="0" y="-0.1em" dy="1.1em"><tspan font-style="normal" class="text-inner-tspan" font-weight="normal">Trunk-based</tspan><tspan font-style="normal" class="text-inner-tspan" font-weight="normal"> continuous</tspan></tspan><tspan class="text-outer-tspan row" x="0" y="1em" dy="1.1em"><tspan font-style="normal" class="text-inner-tspan" font-weight="normal">delivery</tspan></tspan><tspan class="text-outer-tspan row" x="0" y="2.1em" dy="1.1em"><tspan font-style="normal" class="text-inner-tspan" font-weight="normal">on</tspan><tspan font-style="normal" class="text-inner-tspan" font-weight="normal"> one</tspan><tspan font-style="normal" class="text-inner-tspan" font-weight="normal"> deployable</tspan></tspan></text></g></g></g><g class="node default" id="g2d7f5b32-73eb-4eea-8246-1727525e04e6-dark-flowchart-indepRel-6" data-look="classic" transform="translate(843.9710922241211, 1166)"><rect class="basic label-container" style="" x="-127.0859375" y="-42.099998474121094" width="254.171875" height="84.19999694824219"></rect><g class="label" style="" transform="translate(0, -27.099998474121094)"><rect></rect><g><rect class="background" style="stroke: none"></rect><text y="-10.1" style=""><tspan class="text-outer-tspan row" x="0" y="-0.1em" dy="1.1em"><tspan font-style="normal" class="text-inner-tspan" font-weight="normal">Independent</tspan><tspan font-style="normal" class="text-inner-tspan" font-weight="normal"> deployables</tspan></tspan><tspan class="text-outer-tspan row" x="0" y="1em" dy="1.1em"><tspan font-style="normal" class="text-inner-tspan" font-weight="normal">(module</tspan><tspan font-style="normal" class="text-inner-tspan" font-weight="normal"> federation,</tspan></tspan><tspan class="text-outer-tspan row" x="0" y="2.1em" dy="1.1em"><tspan font-style="normal" class="text-inner-tspan" font-weight="normal">server-included</tspan><tspan font-style="normal" class="text-inner-tspan" font-weight="normal"> fragments)</tspan></tspan></text></g></g></g><g class="node default note" id="g2d7f5b32-73eb-4eea-8246-1727525e04e6-dark-flowchart-trainNote-7" data-look="classic" transform="translate(130.265625, 912.8875045776367)"><rect class="basic label-container" style="fill:#665419 !important;stroke:#b08900 !important" x="-122.265625" y="-59.70000076293945" width="244.53125" height="119.4000015258789"></rect><g class="label" style="color:#5f4b00 !important" transform="translate(0, -44.70000076293945)"><rect></rect><g><rect class="background" style="stroke: none"></rect><text y="-10.1" style="fill:#5f4b00 !important"><tspan class="text-outer-tspan row" x="0" y="-0.1em" dy="1.1em"><tspan font-style="normal" class="text-inner-tspan" font-weight="normal">Best</tspan><tspan font-style="normal" class="text-inner-tspan" font-weight="normal"> when:</tspan></tspan><tspan class="text-outer-tspan row" x="0" y="1em" dy="1.1em"><tspan font-style="normal" class="text-inner-tspan" font-weight="normal">tight</tspan><tspan font-style="normal" class="text-inner-tspan" font-weight="normal"> regulatory</tspan><tspan font-style="normal" class="text-inner-tspan" font-weight="normal"> windows,</tspan></tspan><tspan class="text-outer-tspan row" x="0" y="2.1em" dy="1.1em"><tspan font-style="normal" class="text-inner-tspan" font-weight="normal">early</tspan><tspan font-style="normal" class="text-inner-tspan" font-weight="normal"> product,</tspan><tspan font-style="normal" class="text-inner-tspan" font-weight="normal"> or</tspan></tspan><tspan class="text-outer-tspan row" x="0" y="3.2em" dy="1.1em"><tspan font-style="normal" class="text-inner-tspan" font-weight="normal">genuinely</tspan><tspan font-style="normal" class="text-inner-tspan" font-weight="normal"> monolithic</tspan></tspan><tspan class="text-outer-tspan row" x="0" y="4.300000000000001em" dy="1.1em"><tspan font-style="normal" class="text-inner-tspan" font-weight="normal">runtime</tspan></tspan></text></g></g></g><g class="node default note" id="g2d7f5b32-73eb-4eea-8246-1727525e04e6-dark-flowchart-trunkNote-8" data-look="classic" transform="translate(458.31953048706055, 1309)"><rect class="basic label-container" style="fill:#665419 !important;stroke:#b08900 !important" x="-127.0703125" y="-50.900001525878906" width="254.140625" height="101.80000305175781"></rect><g class="label" style="color:#5f4b00 !important" transform="translate(0, -35.900001525878906)"><rect></rect><g><rect class="background" style="stroke: none"></rect><text y="-10.1" style="fill:#5f4b00 !important"><tspan class="text-outer-tspan row" x="0" y="-0.1em" dy="1.1em"><tspan font-style="normal" class="text-inner-tspan" font-weight="normal">Best</tspan><tspan font-style="normal" class="text-inner-tspan" font-weight="normal"> when:</tspan></tspan><tspan class="text-outer-tspan row" x="0" y="1em" dy="1.1em"><tspan font-style="normal" class="text-inner-tspan" font-weight="normal">contracts</tspan><tspan font-style="normal" class="text-inner-tspan" font-weight="normal"> and</tspan><tspan font-style="normal" class="text-inner-tspan" font-weight="normal"> feature</tspan><tspan font-style="normal" class="text-inner-tspan" font-weight="normal"> flags</tspan></tspan><tspan class="text-outer-tspan row" x="0" y="2.1em" dy="1.1em"><tspan font-style="normal" class="text-inner-tspan" font-weight="normal">are</tspan><tspan font-style="normal" class="text-inner-tspan" font-weight="normal"> mature,</tspan><tspan font-style="normal" class="text-inner-tspan" font-weight="normal"> observability</tspan></tspan><tspan class="text-outer-tspan row" x="0" y="3.2em" dy="1.1em"><tspan font-style="normal" class="text-inner-tspan" font-weight="normal">is</tspan><tspan font-style="normal" class="text-inner-tspan" font-weight="normal"> strong</tspan></tspan></text></g></g></g><g class="node default note" id="g2d7f5b32-73eb-4eea-8246-1727525e04e6-dark-flowchart-indepNote-9" data-look="classic" transform="translate(843.9710922241211, 1309)"><rect class="basic label-container" style="fill:#665419 !important;stroke:#b08900 !important" x="-125.7734375" y="-50.900001525878906" width="251.546875" height="101.80000305175781"></rect><g class="label" style="color:#5f4b00 !important" transform="translate(0, -35.900001525878906)"><rect></rect><g><rect class="background" style="stroke: none"></rect><text y="-10.1" style="fill:#5f4b00 !important"><tspan class="text-outer-tspan row" x="0" y="-0.1em" dy="1.1em"><tspan font-style="normal" class="text-inner-tspan" font-weight="normal">Best</tspan><tspan font-style="normal" class="text-inner-tspan" font-weight="normal"> when:</tspan></tspan><tspan class="text-outer-tspan row" x="0" y="1em" dy="1.1em"><tspan font-style="normal" class="text-inner-tspan" font-weight="normal">org</tspan><tspan font-style="normal" class="text-inner-tspan" font-weight="normal"> parallelism</tspan><tspan font-style="normal" class="text-inner-tspan" font-weight="normal"> dominates,</tspan></tspan><tspan class="text-outer-tspan row" x="0" y="2.1em" dy="1.1em"><tspan font-style="normal" class="text-inner-tspan" font-weight="normal">and</tspan><tspan font-style="normal" class="text-inner-tspan" font-weight="normal"> platform</tspan><tspan font-style="normal" class="text-inner-tspan" font-weight="normal"> owns</tspan><tspan font-style="normal" class="text-inner-tspan" font-weight="normal"> the</tspan></tspan><tspan class="text-outer-tspan row" x="0" y="3.2em" dy="1.1em"><tspan font-style="normal" class="text-inner-tspan" font-weight="normal">seams</tspan></tspan></text></g></g></g></g></g></g><defs><filter id="g2d7f5b32-73eb-4eea-8246-1727525e04e6-dark-drop-shadow" height="130%" width="130%"><feDropShadow dx="4" dy="4" stdDeviation="0" flood-opacity="0.06" flood-color="#000000"></feDropShadow></filter></defs><defs><filter id="g2d7f5b32-73eb-4eea-8246-1727525e04e6-dark-drop-shadow-small" height="150%" width="150%"><feDropShadow dx="2" dy="2" stdDeviation="0" flood-opacity="0.06" flood-color="#000000"></feDropShadow></filter></defs><linearGradient id="g2d7f5b32-73eb-4eea-8246-1727525e04e6-dark-gradient" gradientUnits="objectBoundingBox" x1="0%" y1="0%" x2="100%" y2="0%"><stop offset="0%" stop-color="#555555" stop-opacity="1"></stop><stop offset="100%" stop-color="#555555" stop-opacity="1"></stop></linearGradient></svg>