<svg id="gee564787-476e-4c68-872e-e5748e17a689-light" width="100%" xmlns="http://www.w3.org/2000/svg" xmlns:xlink="http://www.w3.org/1999/xlink" class="flowchart" style="max-width: 1079px;" viewBox="0 0 1079 1256.721923828125" role="graphics-document document" aria-roledescription="flowchart-v2"><style>#gee564787-476e-4c68-872e-e5748e17a689-light{font-family:"trebuchet ms",verdana,arial,sans-serif;font-size:16px;fill:#333;}@keyframes edge-animation-frame{from{stroke-dashoffset:0;}}@keyframes dash{to{stroke-dashoffset:0;}}#gee564787-476e-4c68-872e-e5748e17a689-light .edge-animation-slow{stroke-dasharray:9,5!important;stroke-dashoffset:900;animation:dash 50s linear infinite;stroke-linecap:round;}#gee564787-476e-4c68-872e-e5748e17a689-light .edge-animation-fast{stroke-dasharray:9,5!important;stroke-dashoffset:900;animation:dash 20s linear infinite;stroke-linecap:round;}#gee564787-476e-4c68-872e-e5748e17a689-light .error-icon{fill:#552222;}#gee564787-476e-4c68-872e-e5748e17a689-light .error-text{fill:#552222;stroke:#552222;}#gee564787-476e-4c68-872e-e5748e17a689-light .edge-thickness-normal{stroke-width:1px;}#gee564787-476e-4c68-872e-e5748e17a689-light .edge-thickness-thick{stroke-width:3.5px;}#gee564787-476e-4c68-872e-e5748e17a689-light .edge-pattern-solid{stroke-dasharray:0;}#gee564787-476e-4c68-872e-e5748e17a689-light .edge-thickness-invisible{stroke-width:0;fill:none;}#gee564787-476e-4c68-872e-e5748e17a689-light .edge-pattern-dashed{stroke-dasharray:3;}#gee564787-476e-4c68-872e-e5748e17a689-light .edge-pattern-dotted{stroke-dasharray:2;}#gee564787-476e-4c68-872e-e5748e17a689-light .marker{fill:#333333;stroke:#333333;}#gee564787-476e-4c68-872e-e5748e17a689-light .marker.cross{stroke:#333333;}#gee564787-476e-4c68-872e-e5748e17a689-light svg{font-family:"trebuchet ms",verdana,arial,sans-serif;font-size:16px;}#gee564787-476e-4c68-872e-e5748e17a689-light p{margin:0;}#gee564787-476e-4c68-872e-e5748e17a689-light .label{font-family:"trebuchet ms",verdana,arial,sans-serif;color:#333;}#gee564787-476e-4c68-872e-e5748e17a689-light .cluster-label text{fill:#333;}#gee564787-476e-4c68-872e-e5748e17a689-light .cluster-label span{color:#333;}#gee564787-476e-4c68-872e-e5748e17a689-light .cluster-label span p{background-color:transparent;}#gee564787-476e-4c68-872e-e5748e17a689-light .label text,#gee564787-476e-4c68-872e-e5748e17a689-light span{fill:#333;color:#333;}#gee564787-476e-4c68-872e-e5748e17a689-light .node rect,#gee564787-476e-4c68-872e-e5748e17a689-light .node circle,#gee564787-476e-4c68-872e-e5748e17a689-light .node ellipse,#gee564787-476e-4c68-872e-e5748e17a689-light .node polygon,#gee564787-476e-4c68-872e-e5748e17a689-light .node path{fill:#ECECFF;stroke:#9370DB;stroke-width:1px;}#gee564787-476e-4c68-872e-e5748e17a689-light .rough-node .label text,#gee564787-476e-4c68-872e-e5748e17a689-light .node .label text,#gee564787-476e-4c68-872e-e5748e17a689-light .image-shape .label,#gee564787-476e-4c68-872e-e5748e17a689-light .icon-shape .label{text-anchor:middle;}#gee564787-476e-4c68-872e-e5748e17a689-light .node .katex path{fill:#000;stroke:#000;stroke-width:1px;}#gee564787-476e-4c68-872e-e5748e17a689-light .rough-node .label,#gee564787-476e-4c68-872e-e5748e17a689-light .node .label,#gee564787-476e-4c68-872e-e5748e17a689-light .image-shape .label,#gee564787-476e-4c68-872e-e5748e17a689-light .icon-shape .label{text-align:center;}#gee564787-476e-4c68-872e-e5748e17a689-light .node.clickable{cursor:pointer;}#gee564787-476e-4c68-872e-e5748e17a689-light .root .anchor path{fill:#333333!important;stroke-width:0;stroke:#333333;}#gee564787-476e-4c68-872e-e5748e17a689-light .arrowheadPath{fill:#333333;}#gee564787-476e-4c68-872e-e5748e17a689-light .edgePath .path{stroke:#333333;stroke-width:1px;}#gee564787-476e-4c68-872e-e5748e17a689-light .flowchart-link{stroke:#333333;fill:none;}#gee564787-476e-4c68-872e-e5748e17a689-light .edgeLabel{background-color:rgba(232,232,232, 0.8);text-align:center;}#gee564787-476e-4c68-872e-e5748e17a689-light .edgeLabel p{background-color:rgba(232,232,232, 0.8);}#gee564787-476e-4c68-872e-e5748e17a689-light .edgeLabel rect{opacity:0.5;background-color:rgba(232,232,232, 0.8);fill:rgba(232,232,232, 0.8);}#gee564787-476e-4c68-872e-e5748e17a689-light .labelBkg{background-color:rgba(232, 232, 232, 0.5);}#gee564787-476e-4c68-872e-e5748e17a689-light .cluster rect{fill:#ffffde;stroke:#aaaa33;stroke-width:1px;}#gee564787-476e-4c68-872e-e5748e17a689-light .cluster text{fill:#333;}#gee564787-476e-4c68-872e-e5748e17a689-light .cluster span{color:#333;}#gee564787-476e-4c68-872e-e5748e17a689-light div.mermaidTooltip{position:absolute;text-align:center;max-width:200px;padding:2px;font-family:"trebuchet ms",verdana,arial,sans-serif;font-size:12px;background:hsl(80, 100%, 96.2745098039%);border:1px solid #aaaa33;border-radius:2px;pointer-events:none;z-index:100;}#gee564787-476e-4c68-872e-e5748e17a689-light .flowchartTitleText{text-anchor:middle;font-size:18px;fill:#333;}#gee564787-476e-4c68-872e-e5748e17a689-light rect.text{fill:none;stroke-width:0;}#gee564787-476e-4c68-872e-e5748e17a689-light .icon-shape,#gee564787-476e-4c68-872e-e5748e17a689-light .image-shape{background-color:rgba(232,232,232, 0.8);text-align:center;}#gee564787-476e-4c68-872e-e5748e17a689-light .icon-shape p,#gee564787-476e-4c68-872e-e5748e17a689-light .image-shape p{background-color:rgba(232,232,232, 0.8);padding:2px;}#gee564787-476e-4c68-872e-e5748e17a689-light .icon-shape .label rect,#gee564787-476e-4c68-872e-e5748e17a689-light .image-shape .label rect{opacity:0.5;background-color:rgba(232,232,232, 0.8);fill:rgba(232,232,232, 0.8);}#gee564787-476e-4c68-872e-e5748e17a689-light .label-icon{display:inline-block;height:1em;overflow:visible;vertical-align:-0.125em;}#gee564787-476e-4c68-872e-e5748e17a689-light .node .label-icon path{fill:currentColor;stroke:revert;stroke-width:revert;}#gee564787-476e-4c68-872e-e5748e17a689-light .node .neo-node{stroke:#9370DB;}#gee564787-476e-4c68-872e-e5748e17a689-light [data-look="neo"].node rect,#gee564787-476e-4c68-872e-e5748e17a689-light [data-look="neo"].cluster rect,#gee564787-476e-4c68-872e-e5748e17a689-light [data-look="neo"].node polygon{stroke:#9370DB;filter:drop-shadow(1px 2px 2px rgba(185, 185, 185, 1));}#gee564787-476e-4c68-872e-e5748e17a689-light [data-look="neo"].node path{stroke:#9370DB;stroke-width:1px;}#gee564787-476e-4c68-872e-e5748e17a689-light [data-look="neo"].node .outer-path{filter:drop-shadow(1px 2px 2px rgba(185, 185, 185, 1));}#gee564787-476e-4c68-872e-e5748e17a689-light [data-look="neo"].node .neo-line path{stroke:#9370DB;filter:none;}#gee564787-476e-4c68-872e-e5748e17a689-light [data-look="neo"].node circle{stroke:#9370DB;filter:drop-shadow(1px 2px 2px rgba(185, 185, 185, 1));}#gee564787-476e-4c68-872e-e5748e17a689-light [data-look="neo"].node circle .state-start{fill:#000000;}#gee564787-476e-4c68-872e-e5748e17a689-light [data-look="neo"].icon-shape .icon{fill:#9370DB;filter:drop-shadow(1px 2px 2px rgba(185, 185, 185, 1));}#gee564787-476e-4c68-872e-e5748e17a689-light [data-look="neo"].icon-shape .icon-neo path{stroke:#9370DB;filter:drop-shadow(1px 2px 2px rgba(185, 185, 185, 1));}#gee564787-476e-4c68-872e-e5748e17a689-light :root{--mermaid-font-family:"trebuchet ms",verdana,arial,sans-serif;}#gee564787-476e-4c68-872e-e5748e17a689-light .start rect{fill:#eef2ff!important;stroke:#4338ca!important;color:#312e81!important;}#gee564787-476e-4c68-872e-e5748e17a689-light .start polygon{fill:#eef2ff!important;stroke:#4338ca!important;color:#312e81!important;}#gee564787-476e-4c68-872e-e5748e17a689-light .start ellipse{fill:#eef2ff!important;stroke:#4338ca!important;color:#312e81!important;}#gee564787-476e-4c68-872e-e5748e17a689-light .start circle{fill:#eef2ff!important;stroke:#4338ca!important;color:#312e81!important;}#gee564787-476e-4c68-872e-e5748e17a689-light .start path{fill:#eef2ff!important;stroke:#4338ca!important;color:#312e81!important;}#gee564787-476e-4c68-872e-e5748e17a689-light .start tspan{fill:#312e81!important;}#gee564787-476e-4c68-872e-e5748e17a689-light .question rect{fill:#fffbeb!important;stroke:#b45309!important;color:#78350f!important;}#gee564787-476e-4c68-872e-e5748e17a689-light .question polygon{fill:#fffbeb!important;stroke:#b45309!important;color:#78350f!important;}#gee564787-476e-4c68-872e-e5748e17a689-light .question ellipse{fill:#fffbeb!important;stroke:#b45309!important;color:#78350f!important;}#gee564787-476e-4c68-872e-e5748e17a689-light .question circle{fill:#fffbeb!important;stroke:#b45309!important;color:#78350f!important;}#gee564787-476e-4c68-872e-e5748e17a689-light .question path{fill:#fffbeb!important;stroke:#b45309!important;color:#78350f!important;}#gee564787-476e-4c68-872e-e5748e17a689-light .question tspan{fill:#78350f!important;}#gee564787-476e-4c68-872e-e5748e17a689-light .halt rect{fill:#fef2f2!important;stroke:#b91c1c!important;color:#7f1d1d!important;}#gee564787-476e-4c68-872e-e5748e17a689-light .halt polygon{fill:#fef2f2!important;stroke:#b91c1c!important;color:#7f1d1d!important;}#gee564787-476e-4c68-872e-e5748e17a689-light .halt ellipse{fill:#fef2f2!important;stroke:#b91c1c!important;color:#7f1d1d!important;}#gee564787-476e-4c68-872e-e5748e17a689-light .halt circle{fill:#fef2f2!important;stroke:#b91c1c!important;color:#7f1d1d!important;}#gee564787-476e-4c68-872e-e5748e17a689-light .halt path{fill:#fef2f2!important;stroke:#b91c1c!important;color:#7f1d1d!important;}#gee564787-476e-4c68-872e-e5748e17a689-light .halt tspan{fill:#7f1d1d!important;}#gee564787-476e-4c68-872e-e5748e17a689-light .ok rect{fill:#ecfdf5!important;stroke:#047857!important;color:#064e3b!important;}#gee564787-476e-4c68-872e-e5748e17a689-light .ok polygon{fill:#ecfdf5!important;stroke:#047857!important;color:#064e3b!important;}#gee564787-476e-4c68-872e-e5748e17a689-light .ok ellipse{fill:#ecfdf5!important;stroke:#047857!important;color:#064e3b!important;}#gee564787-476e-4c68-872e-e5748e17a689-light .ok circle{fill:#ecfdf5!important;stroke:#047857!important;color:#064e3b!important;}#gee564787-476e-4c68-872e-e5748e17a689-light .ok path{fill:#ecfdf5!important;stroke:#047857!important;color:#064e3b!important;}#gee564787-476e-4c68-872e-e5748e17a689-light .ok tspan{fill:#064e3b!important;}#gee564787-476e-4c68-872e-e5748e17a689-light .warn rect{fill:#fff7ed!important;stroke:#c2410c!important;color:#7c2d12!important;}#gee564787-476e-4c68-872e-e5748e17a689-light .warn polygon{fill:#fff7ed!important;stroke:#c2410c!important;color:#7c2d12!important;}#gee564787-476e-4c68-872e-e5748e17a689-light .warn ellipse{fill:#fff7ed!important;stroke:#c2410c!important;color:#7c2d12!important;}#gee564787-476e-4c68-872e-e5748e17a689-light .warn circle{fill:#fff7ed!important;stroke:#c2410c!important;color:#7c2d12!important;}#gee564787-476e-4c68-872e-e5748e17a689-light .warn path{fill:#fff7ed!important;stroke:#c2410c!important;color:#7c2d12!important;}#gee564787-476e-4c68-872e-e5748e17a689-light .warn tspan{fill:#7c2d12!important;}</style><g><marker id="gee564787-476e-4c68-872e-e5748e17a689-light_flowchart-v2-pointEnd" class="marker flowchart-v2" viewBox="0 0 10 10" refX="5" refY="5" markerUnits="userSpaceOnUse" markerWidth="8" markerHeight="8" orient="auto"><path d="M 0 0 L 10 5 L 0 10 z" class="arrowMarkerPath" style="stroke-width: 1; stroke-dasharray: 1, 0;"></path></marker><marker id="gee564787-476e-4c68-872e-e5748e17a689-light_flowchart-v2-pointStart" class="marker flowchart-v2" viewBox="0 0 10 10" refX="4.5" refY="5" markerUnits="userSpaceOnUse" markerWidth="8" markerHeight="8" orient="auto"><path d="M 0 5 L 10 10 L 10 0 z" class="arrowMarkerPath" style="stroke-width: 1; stroke-dasharray: 1, 0;"></path></marker><marker id="gee564787-476e-4c68-872e-e5748e17a689-light_flowchart-v2-pointEnd-margin" class="marker flowchart-v2" viewBox="0 0 11.5 14" refX="11.5" refY="7" markerUnits="userSpaceOnUse" markerWidth="10.5" markerHeight="14" orient="auto"><path d="M 0 0 L 11.5 7 L 0 14 z" class="arrowMarkerPath" style="stroke-width: 0; stroke-dasharray: 1, 0;"></path></marker><marker id="gee564787-476e-4c68-872e-e5748e17a689-light_flowchart-v2-pointStart-margin" class="marker flowchart-v2" viewBox="0 0 11.5 14" refX="1" refY="7" markerUnits="userSpaceOnUse" markerWidth="11.5" markerHeight="14" orient="auto"><polygon points="0,7 11.5,14 11.5,0" class="arrowMarkerPath" style="stroke-width: 0; stroke-dasharray: 1, 0;"></polygon></marker><marker id="gee564787-476e-4c68-872e-e5748e17a689-light_flowchart-v2-circleEnd" class="marker flowchart-v2" viewBox="0 0 10 10" refX="11" refY="5" markerUnits="userSpaceOnUse" markerWidth="11" markerHeight="11" orient="auto"><circle cx="5" cy="5" r="5" class="arrowMarkerPath" style="stroke-width: 1; stroke-dasharray: 1, 0;"></circle></marker><marker id="gee564787-476e-4c68-872e-e5748e17a689-light_flowchart-v2-circleStart" class="marker flowchart-v2" viewBox="0 0 10 10" refX="-1" refY="5" markerUnits="userSpaceOnUse" markerWidth="11" markerHeight="11" orient="auto"><circle cx="5" cy="5" r="5" class="arrowMarkerPath" style="stroke-width: 1; stroke-dasharray: 1, 0;"></circle></marker><marker id="gee564787-476e-4c68-872e-e5748e17a689-light_flowchart-v2-circleEnd-margin" class="marker flowchart-v2" viewBox="0 0 10 10" refY="5" refX="12.25" markerUnits="userSpaceOnUse" markerWidth="14" markerHeight="14" orient="auto"><circle cx="5" cy="5" r="5" class="arrowMarkerPath" style="stroke-width: 0; stroke-dasharray: 1, 0;"></circle></marker><marker id="gee564787-476e-4c68-872e-e5748e17a689-light_flowchart-v2-circleStart-margin" class="marker flowchart-v2" viewBox="0 0 10 10" refX="-2" refY="5" markerUnits="userSpaceOnUse" markerWidth="14" markerHeight="14" orient="auto"><circle cx="5" cy="5" r="5" class="arrowMarkerPath" style="stroke-width: 0; stroke-dasharray: 1, 0;"></circle></marker><marker id="gee564787-476e-4c68-872e-e5748e17a689-light_flowchart-v2-crossEnd" class="marker cross flowchart-v2" viewBox="0 0 11 11" refX="12" refY="5.2" markerUnits="userSpaceOnUse" markerWidth="11" markerHeight="11" orient="auto"><path d="M 1,1 l 9,9 M 10,1 l -9,9" class="arrowMarkerPath" style="stroke-width: 2; stroke-dasharray: 1, 0;"></path></marker><marker id="gee564787-476e-4c68-872e-e5748e17a689-light_flowchart-v2-crossStart" class="marker cross flowchart-v2" viewBox="0 0 11 11" refX="-1" refY="5.2" markerUnits="userSpaceOnUse" markerWidth="11" markerHeight="11" orient="auto"><path d="M 1,1 l 9,9 M 10,1 l -9,9" class="arrowMarkerPath" style="stroke-width: 2; stroke-dasharray: 1, 0;"></path></marker><marker id="gee564787-476e-4c68-872e-e5748e17a689-light_flowchart-v2-crossEnd-margin" class="marker cross flowchart-v2" viewBox="0 0 15 15" refX="17.7" refY="7.5" markerUnits="userSpaceOnUse" markerWidth="12" markerHeight="12" orient="auto"><path d="M 1,1 L 14,14 M 1,14 L 14,1" class="arrowMarkerPath" style="stroke-width: 2.5;"></path></marker><marker id="gee564787-476e-4c68-872e-e5748e17a689-light_flowchart-v2-crossStart-margin" class="marker cross flowchart-v2" viewBox="0 0 15 15" refX="-3.5" refY="7.5" markerUnits="userSpaceOnUse" markerWidth="12" markerHeight="12" orient="auto"><path d="M 1,1 L 14,14 M 1,14 L 14,1" class="arrowMarkerPath" style="stroke-width: 2.5; stroke-dasharray: 1, 0;"></path></marker><g class="root"><g class="clusters"></g><g class="edgePaths"><path d="M520.09,60.1L520.007,64.183C519.923,68.267,519.757,76.433,519.673,84.017C519.59,91.6,519.59,98.6,519.59,102.1L519.59,105.6" id="gee564787-476e-4c68-872e-e5748e17a689-light-L_Start_Q1_0" class="edge-thickness-normal edge-pattern-solid edge-thickness-normal edge-pattern-solid flowchart-link" style=";" data-edge="true" data-et="edge" data-id="L_Start_Q1_0" data-points="W3sieCI6NTIwLjA4OTg0Mzc1LCJ5Ijo2MC4wOTk5OTg0NzQxMjExMn0seyJ4Ijo1MTkuNTg5ODQzNzUsInkiOjg0LjU5OTk5ODQ3NDEyMTF9LHsieCI6NTE5LjU4OTg0Mzc1LCJ5IjoxMDkuNTk5OTk4NDc0MTIxMDd9XQ==" data-look="classic" marker-end="url(#gee564787-476e-4c68-872e-e5748e17a689-light_flowchart-v2-pointEnd)"></path><path d="M452.045,262.208L424.506,279.549C396.968,296.89,341.89,331.572,314.351,354.329C286.813,377.086,286.813,387.92,286.813,393.336L286.813,398.753" id="gee564787-476e-4c68-872e-e5748e17a689-light-L_Q1_Q4_0" class="edge-thickness-normal edge-pattern-solid edge-thickness-normal edge-pattern-solid flowchart-link" style=";" data-edge="true" data-et="edge" data-id="L_Q1_Q4_0" data-points="W3sieCI6NDUyLjA0NTE4NjQ5NTY0ODA3LCJ5IjoyNjIuMjA4NDYzMTY4MDExNH0seyJ4IjoyODYuODEyNSwieSI6MzY2LjI1MzEyMDQyMjM2MzN9LHsieCI6Mjg2LjgxMjUsInkiOjQwMi43NTMxMjA0MjIzNjMzfV0=" data-look="classic" marker-end="url(#gee564787-476e-4c68-872e-e5748e17a689-light_flowchart-v2-pointEnd)"></path><path d="M593.688,255.655L631.65,274.088C669.612,292.521,745.536,329.387,783.499,357.053C821.461,384.719,821.461,403.185,821.461,412.418L821.461,421.652" id="gee564787-476e-4c68-872e-e5748e17a689-light-L_Q1_Q2_0" class="edge-thickness-normal edge-pattern-solid edge-thickness-normal edge-pattern-solid flowchart-link" style=";" data-edge="true" data-et="edge" data-id="L_Q1_Q2_0" data-points="W3sieCI6NTkzLjY4NzUyNjA3MTMzNjgsInkiOjI1NS42NTU0MzgxMDEwMjY0fSx7IngiOjgyMS40NjA5Mzc1LCJ5IjozNjYuMjUzMTIwNDIyMzYzM30seyJ4Ijo4MjEuNDYwOTM3NSwieSI6NDI1LjY1MTU1NzkyMjM2MzE3fV0=" data-look="classic" marker-end="url(#gee564787-476e-4c68-872e-e5748e17a689-light_flowchart-v2-pointEnd)"></path><path d="M228.254,580.019L212.623,595.863C196.992,611.706,165.73,643.392,150.1,666.118C134.469,688.845,134.469,702.611,134.469,709.495L134.469,716.378" id="gee564787-476e-4c68-872e-e5748e17a689-light-L_Q4_Exempt_0" class="edge-thickness-normal edge-pattern-solid edge-thickness-normal edge-pattern-solid flowchart-link" style=";" data-edge="true" data-et="edge" data-id="L_Q4_Exempt_0" data-points="W3sieCI6MjI4LjI1Mzg0ODY5Njk4NTYsInkiOjU4MC4wMTk0NjYwNjc1OTF9LHsieCI6MTM0LjQ2ODc1LCJ5Ijo2NzUuMDc4MTE3MzcwNjA1NX0seyJ4IjoxMzQuNDY4NzUsInkiOjcyMC4zNzgxMjA0MjIzNjMzfV0=" data-look="classic" marker-end="url(#gee564787-476e-4c68-872e-e5748e17a689-light_flowchart-v2-pointEnd)"></path><path d="M345.371,580.019L361.002,595.863C376.633,611.706,407.895,643.392,423.525,664.652C439.156,685.911,439.156,696.745,439.156,702.161L439.156,707.578" id="gee564787-476e-4c68-872e-e5748e17a689-light-L_Q4_HaltAll_0" class="edge-thickness-normal edge-pattern-solid edge-thickness-normal edge-pattern-solid flowchart-link" style=";" data-edge="true" data-et="edge" data-id="L_Q4_HaltAll_0" data-points="W3sieCI6MzQ1LjM3MTE1MTMwMzAxNDQsInkiOjU4MC4wMTk0NjYwNjc1OTExfSx7IngiOjQzOS4xNTYyNSwieSI6Njc1LjA3ODExNzM3MDYwNTV9LHsieCI6NDM5LjE1NjI1LCJ5Ijo3MTEuNTc4MTE3MzcwNjA1NX1d" data-look="classic" marker-end="url(#gee564787-476e-4c68-872e-e5748e17a689-light_flowchart-v2-pointEnd)"></path><path d="M788.179,582.398L779.851,597.844C771.523,613.291,754.867,644.185,746.539,666.515C738.211,688.845,738.211,702.611,738.211,709.495L738.211,716.378" id="gee564787-476e-4c68-872e-e5748e17a689-light-L_Q2_PostMortem_0" class="edge-thickness-normal edge-pattern-solid edge-thickness-normal edge-pattern-solid flowchart-link" style=";" data-edge="true" data-et="edge" data-id="L_Q2_PostMortem_0" data-points="W3sieCI6Nzg4LjE3ODc4MDU0Njg0MSwieSI6NTgyLjM5NzUyMjkxNzQ0NjZ9LHsieCI6NzM4LjIxMDkzNzUsInkiOjY3NS4wNzgxMTczNzA2MDU1fSx7IngiOjczOC4yMTA5Mzc1LCJ5Ijo3MjAuMzc4MTIwNDIyMzYzM31d" data-look="classic" marker-end="url(#gee564787-476e-4c68-872e-e5748e17a689-light_flowchart-v2-pointEnd)"></path><path d="M854.743,582.398L863.071,597.844C871.399,613.291,888.055,644.185,896.383,674.198C904.711,704.211,904.711,733.345,904.711,760.561C904.711,787.778,904.711,813.078,897.751,835.883C890.791,858.688,876.872,878.999,869.912,889.154L862.952,899.309" id="gee564787-476e-4c68-872e-e5748e17a689-light-L_Q2_Q3_0" class="edge-thickness-normal edge-pattern-solid edge-thickness-normal edge-pattern-solid flowchart-link" style=";" data-edge="true" data-et="edge" data-id="L_Q2_Q3_0" data-points="W3sieCI6ODU0Ljc0MzA5NDQ1MzE1ODcsInkiOjU4Mi4zOTc1MjI5MTc0NDYyfSx7IngiOjkwNC43MTA5Mzc1LCJ5Ijo2NzUuMDc4MTE3MzcwNjA1NX0seyJ4Ijo5MDQuNzEwOTM3NSwieSI6NzYyLjQ3ODExODg5NjQ4NDR9LHsieCI6OTA0LjcxMDkzNzUsInkiOjgzOC4zNzgxMjA0MjIzNjMzfSx7IngiOjg2MC42OTExNTUyMTg5Nzk1LCJ5Ijo5MDIuNjA4MzM4MTQxMzQyOH1d" data-look="classic" marker-end="url(#gee564787-476e-4c68-872e-e5748e17a689-light_flowchart-v2-pointEnd)"></path><path d="M772.076,1006.937L757.063,1021.251C742.051,1035.565,712.025,1064.194,697.013,1083.924C682,1103.655,682,1114.489,682,1119.905L682,1125.322" id="gee564787-476e-4c68-872e-e5748e17a689-light-L_Q3_Escalate_0" class="edge-thickness-normal edge-pattern-solid edge-thickness-normal edge-pattern-solid flowchart-link" style=";" data-edge="true" data-et="edge" data-id="L_Q3_Escalate_0" data-points="W3sieCI6NzcyLjA3NjA2OTc5MTQ3NzcsInkiOjEwMDYuOTM3MDA4ODE3MzU2NX0seyJ4Ijo2ODIsInkiOjEwOTIuODIxODc2NTI1ODc5fSx7IngiOjY4MiwieSI6MTEyOS4zMjE4NzY1MjU4Nzl9XQ==" data-look="classic" marker-end="url(#gee564787-476e-4c68-872e-e5748e17a689-light_flowchart-v2-pointEnd)"></path><path d="M870.846,1006.937L885.858,1021.251C900.871,1035.565,930.897,1064.194,945.909,1086.858C960.922,1109.522,960.922,1126.222,960.922,1134.572L960.922,1142.922" id="gee564787-476e-4c68-872e-e5748e17a689-light-L_Q3_Normal_0" class="edge-thickness-normal edge-pattern-solid edge-thickness-normal edge-pattern-solid flowchart-link" style=";" data-edge="true" data-et="edge" data-id="L_Q3_Normal_0" data-points="W3sieCI6ODcwLjg0NTgwNTIwODUyMjMsInkiOjEwMDYuOTM3MDA4ODE3MzU2NX0seyJ4Ijo5NjAuOTIxODc1LCJ5IjoxMDkyLjgyMTg3NjUyNTg3OX0seyJ4Ijo5NjAuOTIxODc1LCJ5IjoxMTQ2LjkyMTg3ODgxNDY5NzN9XQ==" data-look="classic" marker-end="url(#gee564787-476e-4c68-872e-e5748e17a689-light_flowchart-v2-pointEnd)"></path><path d="M738.211,804.578L738.211,810.211C738.211,815.845,738.211,827.111,745.171,842.9C752.13,858.688,766.05,878.999,773.01,889.154L779.969,899.309" id="gee564787-476e-4c68-872e-e5748e17a689-light-L_PostMortem_Q3_0" class="edge-thickness-normal edge-pattern-solid edge-thickness-normal edge-pattern-solid flowchart-link" style=";" data-edge="true" data-et="edge" data-id="L_PostMortem_Q3_0" data-points="W3sieCI6NzM4LjIxMDkzNzUsInkiOjgwNC41NzgxMTczNzA2MDU1fSx7IngiOjczOC4yMTA5Mzc1LCJ5Ijo4MzguMzc4MTIwNDIyMzYzM30seyJ4Ijo3ODIuMjMwNzE5NzgxMDIwNSwieSI6OTAyLjYwODMzODE0MTM0Mjh9XQ==" data-look="classic" marker-end="url(#gee564787-476e-4c68-872e-e5748e17a689-light_flowchart-v2-pointEnd)"></path></g><g class="edgeLabels"><g class="edgeLabel"><g class="label" data-id="L_Start_Q1_0" transform="translate(0, 0)"><text y="-10.1" text-anchor="middle"><tspan class="text-outer-tspan row" x="0" y="-0.1em" dy="1.1em" text-anchor="middle"></tspan></text></g></g><g><rect class="background" style="stroke: none"></rect></g><g class="edgeLabel" transform="translate(286.8125, 366.2531204223633)"><g class="label" data-id="L_Q1_Q4_0" transform="translate(0, -10.5)"><g><rect class="background" style="" x="-13.546875" y="-1" width="27.09375" height="23"></rect><text y="-10.1" text-anchor="middle" style=""><tspan class="text-outer-tspan row" x="0" y="-0.1em" dy="1.1em" text-anchor="middle"><tspan font-style="normal" class="text-inner-tspan" font-weight="normal">yes</tspan></tspan></text></g></g></g><g class="edgeLabel" transform="translate(821.4609375, 366.2531204223633)"><g class="label" data-id="L_Q1_Q2_0" transform="translate(0, -10.5)"><g><rect class="background" style="" x="-10.6640625" y="-1" width="21.328125" height="23"></rect><text y="-10.1" text-anchor="middle" style=""><tspan class="text-outer-tspan row" x="0" y="-0.1em" dy="1.1em" text-anchor="middle"><tspan font-style="normal" class="text-inner-tspan" font-weight="normal">no</tspan></tspan></text></g></g></g><g class="edgeLabel" transform="translate(134.46875, 675.0781173706055)"><g class="label" data-id="L_Q4_Exempt_0" transform="translate(0, -10.5)"><g><rect class="background" style="" x="-13.546875" y="-1" width="27.09375" height="23"></rect><text y="-10.1" text-anchor="middle" style=""><tspan class="text-outer-tspan row" x="0" y="-0.1em" dy="1.1em" text-anchor="middle"><tspan font-style="normal" class="text-inner-tspan" font-weight="normal">yes</tspan></tspan></text></g></g></g><g class="edgeLabel" transform="translate(439.15625, 675.0781173706055)"><g class="label" data-id="L_Q4_HaltAll_0" transform="translate(0, -10.5)"><g><rect class="background" style="" x="-10.6640625" y="-1" width="21.328125" height="23"></rect><text y="-10.1" text-anchor="middle" style=""><tspan class="text-outer-tspan row" x="0" y="-0.1em" dy="1.1em" text-anchor="middle"><tspan font-style="normal" class="text-inner-tspan" font-weight="normal">no</tspan></tspan></text></g></g></g><g class="edgeLabel" transform="translate(738.2109375, 675.0781173706055)"><g class="label" data-id="L_Q2_PostMortem_0" transform="translate(0, -10.5)"><g><rect class="background" style="" x="-13.546875" y="-1" width="27.09375" height="23"></rect><text y="-10.1" text-anchor="middle" style=""><tspan class="text-outer-tspan row" x="0" y="-0.1em" dy="1.1em" text-anchor="middle"><tspan font-style="normal" class="text-inner-tspan" font-weight="normal">yes</tspan></tspan></text></g></g></g><g class="edgeLabel" transform="translate(904.7109375, 762.4781188964844)"><g class="label" data-id="L_Q2_Q3_0" transform="translate(0, -10.5)"><g><rect class="background" style="" x="-10.6640625" y="-1" width="21.328125" height="23"></rect><text y="-10.1" text-anchor="middle" style=""><tspan class="text-outer-tspan row" x="0" y="-0.1em" dy="1.1em" text-anchor="middle"><tspan font-style="normal" class="text-inner-tspan" font-weight="normal">no</tspan></tspan></text></g></g></g><g class="edgeLabel" transform="translate(682, 1092.821876525879)"><g class="label" data-id="L_Q3_Escalate_0" transform="translate(0, -10.5)"><g><rect class="background" style="" x="-13.546875" y="-1" width="27.09375" height="23"></rect><text y="-10.1" text-anchor="middle" style=""><tspan class="text-outer-tspan row" x="0" y="-0.1em" dy="1.1em" text-anchor="middle"><tspan font-style="normal" class="text-inner-tspan" font-weight="normal">yes</tspan></tspan></text></g></g></g><g class="edgeLabel" transform="translate(960.921875, 1092.821876525879)"><g class="label" data-id="L_Q3_Normal_0" transform="translate(0, -10.5)"><g><rect class="background" style="" x="-10.6640625" y="-1" width="21.328125" height="23"></rect><text y="-10.1" text-anchor="middle" style=""><tspan class="text-outer-tspan row" x="0" y="-0.1em" dy="1.1em" text-anchor="middle"><tspan font-style="normal" class="text-inner-tspan" font-weight="normal">no</tspan></tspan></text></g></g></g><g class="edgeLabel"><g class="label" data-id="L_PostMortem_Q3_0" transform="translate(0, 0)"><text y="-10.1" text-anchor="middle"><tspan class="text-outer-tspan row" x="0" y="-0.1em" dy="1.1em" text-anchor="middle"></tspan></text></g></g><g><rect class="background" style="stroke: none"></rect></g></g><g class="nodes"><g class="node default start" id="gee564787-476e-4c68-872e-e5748e17a689-light-flowchart-Start-0" data-look="classic" transform="translate(519.58984375, 33.79999923706055)"><g class="basic label-container outer-path"><path d="M-60.75156307220459 -25.799999237060547 C-13.348059994038465 -25.799999237060547, 34.05544308412766 -25.799999237060547, 60.75156307220459 -25.799999237060547 C60.75156307220459 -25.799999237060547, 60.75156307220459 -25.799999237060547, 60.75156307220459 -25.799999237060547 C61.28634675997675 -25.782849765086993, 61.821130447748914 -25.765700293113444, 62.404574698825286 -25.746990371586765 C62.914660206984735 -25.6977830360822, 63.42474571514419 -25.648575700577634, 64.05079374610231 -25.58818159996402 C64.69460797579451 -25.484094708161308, 65.3384222054867 -25.380007816358592, 65.68345554685753 -25.32422550149928 C66.26415455527486 -25.191684742243194, 66.84485356369218 -25.05914398298711, 67.29585114354678 -24.956206728419545 C67.92451775078347 -24.769621779330063, 68.55318435802013 -24.58303683024058, 68.88135485680552 -24.48563754880318 C69.32970801973488 -24.32063944031397, 69.77806118266425 -24.155641331824757, 70.43345151178644 -23.914451632345997 C70.74703201798161 -23.77563884428861, 71.06061252417678 -23.636826056231225, 71.94576321041056 -23.24499610449772 C72.34492741392054 -23.036752395203436, 72.74409161743054 -22.82850868590915, 73.4120755395184 -22.480021901620034 C73.91332234364995 -22.176163143302304, 74.4145691477815 -21.87230438498457, 74.82636310722664 -21.62267246679901 C75.1897700110859 -21.369175542298112, 75.55317691494515 -21.11567861779721, 76.18281430255584 -20.67647083276321 C76.60884848971567 -20.336719905749103, 77.0348826768755 -19.996968978734998, 77.4758551765865 -19.64530514498651 C77.7778107644768 -19.3710770693716, 78.0797663523671 -19.09684899375669, 78.70017234701088 -18.533412684464313 C78.99611787311886 -18.227824631178255, 79.29206339922683 -17.9222365778922, 79.85073483196044 -17.345362455817106 C80.24571752056023 -16.881393314636117, 80.64070020916002 -16.41742417345513, 80.92281472338968 -16.086036412270357 C81.15153987289543 -15.779565549222427, 81.38026502240119 -15.473094686174498, 81.91200661506427 -14.76060939466161 C82.2657780702528 -14.21712143855494, 82.61954952544131 -13.67363348244827, 82.81424570532036 -13.374527866909407 C82.985127042135 -13.071110749783328, 83.15600837894964 -12.76769363265725, 83.6258245002064 -11.93348753532484 C83.80055270174324 -11.570660686248983, 83.9752809032801 -11.207833837173125, 84.34340804837109 -10.443409943732584 C84.50060192387187 -10.055138032108802, 84.65779579937266 -9.666866120485022, 84.96404764509381 -8.910418140577123 C85.09933179317065 -8.502963841171528, 85.23461594124748 -8.095509541765935, 85.4851929491449 -7.340811518003323 C85.60074115001349 -6.90017614918437, 85.71628935088208 -6.4595407803654155, 85.90470246268467 -5.741039926302914 C86.01317106811415 -5.184076562270398, 86.12163967354364 -4.6271131982378835, 86.22085233113748 -4.117677170096137 C86.27935175858038 -3.6639671628676385, 86.33785118602326 -3.21025715563914, 86.43234342687991 -2.4773939951584394 C86.45597267292416 -2.1093494148351954, 86.4796019189684 -1.7413048345119515, 86.53830668763487 -0.8269306768952902 C86.53830668763487 -0.27612844578674933, 86.53830668763487 0.27467378532179154, 86.53830668763487 0.826930676895284 C86.51056304442177 1.2590603142050174, 86.48281940120867 1.6911899515147506, 86.43234342687991 2.4773939951584216 C86.36901448809155 2.968560738687476, 86.30568554930319 3.4597274822165303, 86.22085233113748 4.117677170096119 C86.10302420993085 4.722699669509928, 85.98519608872421 5.327722168923737, 85.90470246268467 5.741039926302909 C85.77798662325668 6.224262341034039, 85.65127078382869 6.70748475576517, 85.4851929491449 7.340811518003306 C85.29831256160426 7.903665469929559, 85.11143217406361 8.466519421855814, 84.96404764509383 8.910418140577105 C84.81658178391564 9.274661668745697, 84.66911592273746 9.638905196914289, 84.34340804837109 10.443409943732577 C84.06047370727066 11.030929156852713, 83.77753936617023 11.618448369972848, 83.6258245002064 11.933487535324835 C83.36947809029085 12.38865654401868, 83.1131316803753 12.843825552712525, 82.81424570532037 13.374527866909402 C82.52579003044062 13.81767324471901, 82.23733435556085 14.26081862252862, 81.91200661506429 14.760609394661596 C81.63182635791466 15.13602541429557, 81.35164610076504 15.511441433929543, 80.92281472338968 16.086036412270353 C80.5898727602491 16.477128987109676, 80.25693079710851 16.868221561949, 79.85073483196045 17.345362455817092 C79.5217471470892 17.685069250837916, 79.19275946221794 18.02477604585874, 78.70017234701088 18.533412684464306 C78.38424512819516 18.820329425616585, 78.06831790937946 19.107246166768864, 77.47585517658653 19.64530514498649 C77.06778290556281 19.97073192186872, 76.65971063453908 20.29615869875095, 76.18281430255584 20.676470832763208 C75.74441851775082 20.982276754395535, 75.3060227329458 21.28808267602786, 74.82636310722665 21.622672466799003 C74.42430680907582 21.866401357483113, 74.02225051092498 22.11013024816722, 73.41207553951841 22.48002190162003 C72.84802548917422 22.77428645159329, 72.28397543883004 23.068551001566554, 71.94576321041058 23.244996104497716 C71.532631339518 23.42787732862033, 71.11949946862543 23.610758552742944, 70.43345151178644 23.914451632345994 C69.88867101542161 24.114935890903958, 69.34389051905679 24.315420149461918, 68.88135485680553 24.485637548803172 C68.25656104453698 24.671073072674833, 67.63176723226843 24.856508596546497, 67.29585114354681 24.95620672841954 C66.86347147170888 25.054894566975506, 66.43109179987094 25.15358240553147, 65.68345554685754 25.324225501499278 C65.26525363689339 25.391837143098034, 64.84705172692924 25.45944878469679, 64.05079374610233 25.588181599964017 C63.58640186331212 25.632980926383837, 63.12200998052191 25.677780252803657, 62.404574698825286 25.746990371586765 C61.81286846466168 25.765965238830077, 61.22116223049808 25.784940106073385, 60.7515630722046 25.799999237060547 C60.7515630722046 25.799999237060547, 60.75156307220459 25.799999237060547, 60.75156307220459 25.799999237060547 C31.3566585611276 25.799999237060547, 1.961754050050608 25.799999237060547, -60.75156307220458 25.799999237060547 C-61.391394894448624 25.77948107587827, -62.03122671669267 25.758962914695996, -62.40457469882527 25.746990371586765 C-63.04740815108743 25.684977001567372, -63.690241603349584 25.62296363154798, -64.05079374610231 25.588181599964017 C-64.52137580275146 25.512101542463334, -64.99195785940061 25.436021484962655, -65.68345554685753 25.324225501499278 C-66.08883751294003 25.231699713105495, -66.49421947902255 25.139173924711717, -67.29585114354678 24.956206728419545 C-67.76827407910696 24.815994080943877, -68.24069701466713 24.675781433468213, -68.8813548568055 24.485637548803183 C-69.48620279026515 24.263047918137026, -70.0910507237248 24.04045828747087, -70.43345151178644 23.914451632345997 C-71.00436104599045 23.6617269169835, -71.57527058019444 23.409002201621007, -71.94576321041056 23.244996104497723 C-72.51742667941521 22.946759638885926, -73.08909014841986 22.64852317327413, -73.4120755395184 22.480021901620038 C-73.87491277643603 22.199447248667052, -74.33775001335367 21.918872595714063, -74.82636310722663 21.622672466799017 C-75.31462950713531 21.282078962934513, -75.80289590704398 20.941485459070012, -76.18281430255584 20.67647083276321 C-76.49500889921418 20.42750394977531, -76.80720349587253 20.178537066787406, -77.4758551765865 19.645305144986512 C-77.8075409940601 19.344076861482808, -78.13922681153372 19.042848577979107, -78.70017234701086 18.533412684464324 C-79.05776976432561 18.164163991792876, -79.41536718164036 17.79491529912143, -79.85073483196044 17.3453624558171 C-80.14427029651762 17.000558996507138, -80.4378057610748 16.65575553719718, -80.92281472338968 16.08603641227036 C-81.26684491573911 15.6250672963174, -81.61087510808855 15.164098180364443, -81.91200661506427 14.760609394661614 C-82.19406885682045 14.327286047007004, -82.47613109857663 13.893962699352395, -82.81424570532036 13.374527866909418 C-83.03393176618066 12.984453020226063, -83.25361782704096 12.594378173542708, -83.62582450020639 11.933487535324842 C-83.90918427013725 11.345084910135615, -84.1925440400681 10.756682284946388, -84.34340804837109 10.443409943732586 C-84.46766953954622 10.136481658097509, -84.59193103072136 9.829553372462433, -84.96404764509381 8.910418140577127 C-85.16070256706055 8.318124848320073, -85.35735748902728 7.725831556063019, -85.4851929491449 7.340811518003316 C-85.63011615872249 6.788156509767617, -85.77503936830009 6.235501501531918, -85.90470246268467 5.741039926302918 C-86.02460034308149 5.125389650891247, -86.14449822347831 4.509739375479576, -86.22085233113748 4.117677170096139 C-86.30298009257731 3.480710470329584, -86.38510785401716 2.8437437705630284, -86.43234342687991 2.477393995158454 C-86.45427613299083 2.1357743937192577, -86.47620883910173 1.7941547922800614, -86.53830668763487 0.8269306768952934 C-86.53830668763487 0.41988766189481147, -86.53830668763487 0.012844646894329514, -86.53830668763487 -0.8269306768952809 C-86.50844736455791 -1.2920137358306583, -86.47858804148096 -1.7570967947660356, -86.43234342687991 -2.4773939951584185 C-86.36275100248635 -3.0171390961763533, -86.29315857809277 -3.5568841971942886, -86.22085233113748 -4.117677170096128 C-86.13250032624798 -4.571346042000838, -86.04414832135848 -5.025014913905548, -85.90470246268467 -5.741039926302906 C-85.81898343008719 -6.0679237484608395, -85.7332643974897 -6.394807570618773, -85.4851929491449 -7.340811518003303 C-85.36649630611029 -7.69830689508177, -85.24779966307567 -8.055802272160237, -84.96404764509383 -8.910418140577093 C-84.73429924075414 -9.477901141179357, -84.50455083641444 -10.045384141781621, -84.34340804837109 -10.443409943732574 C-84.07651238201818 -10.997624505566826, -83.80961671566527 -11.551839067401076, -83.6258245002064 -11.933487535324831 C-83.37047580736687 -12.386884996320392, -83.11512711452734 -12.840282457315954, -82.81424570532036 -13.374527866909409 C-82.61391619329221 -13.682287793390774, -82.41358668126406 -13.990047719872138, -81.91200661506429 -14.760609394661605 C-81.54187406306032 -15.25655329457775, -81.17174151105635 -15.752497194493891, -80.92281472338968 -16.086036412270353 C-80.65381532818719 -16.40201840837439, -80.38481593298472 -16.71800040447842, -79.85073483196045 -17.345362455817092 C-79.39157287595815 -17.81948487328714, -78.93241091995584 -18.29360729075719, -78.70017234701089 -18.5334126844643 C-78.31618378987974 -18.88214093227032, -77.9321952327486 -19.230869180076343, -77.47585517658653 -19.645305144986487 C-77.11753868525598 -19.93105301162032, -76.75922219392542 -20.216800878254155, -76.18281430255585 -20.676470832763204 C-75.8893919728016 -20.881149547951836, -75.59596964304735 -21.085828263140467, -74.82636310722665 -21.622672466799 C-74.37004354643359 -21.89929606618315, -73.91372398564053 -22.175919665567303, -73.41207553951841 -22.480021901620027 C-72.8626751091463 -22.76664375423739, -72.31327467877419 -23.053265606854747, -71.94576321041058 -23.244996104497716 C-71.55197542381816 -23.41931427632252, -71.15818763722577 -23.593632448147325, -70.43345151178646 -23.91445163234599 C-69.8794288583112 -24.118337090154153, -69.32540620483594 -24.322222547962316, -68.88135485680553 -24.485637548803172 C-68.54600645893883 -24.585167193010346, -68.21065806107214 -24.684696837217523, -67.29585114354681 -24.956206728419538 C-66.91352026254917 -25.043471257065086, -66.53118938155153 -25.130735785710634, -65.68345554685754 -25.324225501499278 C-65.21230864852373 -25.400396878223123, -64.74116175018992 -25.47656825494697, -64.05079374610233 -25.588181599964017 C-63.50050595344705 -25.641267201503574, -62.95021816079177 -25.69435280304313, -62.404574698825286 -25.746990371586765 C-61.747644850431996 -25.768056833188357, -61.09071500203871 -25.789123294789952, -60.7515630722046 -25.799999237060547 C-60.7515630722046 -25.799999237060547, -60.75156307220459 -25.799999237060547, -60.75156307220459 -25.799999237060547" stroke="none" stroke-width="0" fill="#eef2ff" style="fill:#eef2ff !important;stroke:#4338ca !important"></path><path d="M-60.75156307220459 -25.799999237060547 C-24.955984782523068 -25.799999237060547, 10.839593507158455 -25.799999237060547, 60.75156307220459 -25.799999237060547 M-60.75156307220459 -25.799999237060547 C-16.574951213982814 -25.799999237060547, 27.60166064423896 -25.799999237060547, 60.75156307220459 -25.799999237060547 M60.75156307220459 -25.799999237060547 C60.75156307220459 -25.799999237060547, 60.75156307220459 -25.799999237060547, 60.75156307220459 -25.799999237060547 M60.75156307220459 -25.799999237060547 C60.75156307220459 -25.799999237060547, 60.75156307220459 -25.799999237060547, 60.75156307220459 -25.799999237060547 M60.75156307220459 -25.799999237060547 C61.305038564646885 -25.782250355292614, 61.85851405708918 -25.764501473524682, 62.404574698825286 -25.746990371586765 M60.75156307220459 -25.799999237060547 C61.37900685955328 -25.779878336045517, 62.00645064690197 -25.75975743503049, 62.404574698825286 -25.746990371586765 M62.404574698825286 -25.746990371586765 C62.839570449869775 -25.705026854642437, 63.27456620091426 -25.663063337698105, 64.05079374610231 -25.58818159996402 M62.404574698825286 -25.746990371586765 C62.95818733583546 -25.693584026311, 63.511799972845644 -25.64017768103524, 64.05079374610231 -25.58818159996402 M64.05079374610231 -25.58818159996402 C64.38732389824325 -25.53377401479618, 64.72385405038419 -25.479366429628342, 65.68345554685753 -25.32422550149928 M64.05079374610231 -25.58818159996402 C64.69249183295706 -25.48443682972433, 65.3341899198118 -25.38069205948464, 65.68345554685753 -25.32422550149928 M65.68345554685753 -25.32422550149928 C66.20191430880362 -25.205890672344687, 66.72037307074973 -25.087555843190092, 67.29585114354678 -24.956206728419545 M65.68345554685753 -25.32422550149928 C66.24600904865659 -25.195826335718316, 66.80856255045566 -25.06742716993735, 67.29585114354678 -24.956206728419545 M67.29585114354678 -24.956206728419545 C67.69963387293346 -24.83636613383638, 68.10341660232012 -24.716525539253215, 68.88135485680552 -24.48563754880318 M67.29585114354678 -24.956206728419545 C67.82820814424554 -24.798205965011075, 68.3605651449443 -24.640205201602605, 68.88135485680552 -24.48563754880318 M68.88135485680552 -24.48563754880318 C69.42379128588549 -24.286015928674367, 69.96622771496546 -24.086394308545554, 70.43345151178644 -23.914451632345997 M68.88135485680552 -24.48563754880318 C69.41438761347527 -24.289476567047924, 69.94742037014501 -24.093315585292665, 70.43345151178644 -23.914451632345997 M70.43345151178644 -23.914451632345997 C70.9568856357342 -23.682742872795934, 71.48031975968195 -23.45103411324587, 71.94576321041056 -23.24499610449772 M70.43345151178644 -23.914451632345997 C71.0293902875801 -23.650647214197836, 71.62532906337375 -23.38684279604967, 71.94576321041056 -23.24499610449772 M71.94576321041056 -23.24499610449772 C72.39935031303787 -23.008360003593456, 72.85293741566518 -22.771723902689192, 73.4120755395184 -22.480021901620034 M71.94576321041056 -23.24499610449772 C72.27209666530074 -23.074748150108064, 72.59843012019093 -22.904500195718413, 73.4120755395184 -22.480021901620034 M73.4120755395184 -22.480021901620034 C73.73928171484722 -22.281667595258778, 74.06648789017605 -22.083313288897525, 74.82636310722664 -21.62267246679901 M73.4120755395184 -22.480021901620034 C73.93393914274571 -22.163665118532695, 74.45580274597302 -21.847308335445355, 74.82636310722664 -21.62267246679901 M74.82636310722664 -21.62267246679901 C75.33680327359863 -21.266611503336577, 75.84724343997063 -20.910550539874144, 76.18281430255584 -20.67647083276321 M74.82636310722664 -21.62267246679901 C75.33417271111549 -21.268446469849607, 75.84198231500433 -20.914220472900208, 76.18281430255584 -20.67647083276321 M76.18281430255584 -20.67647083276321 C76.67227189554562 -20.286141427367426, 77.1617294885354 -19.89581202197164, 77.4758551765865 -19.64530514498651 M76.18281430255584 -20.67647083276321 C76.67232125538736 -20.286102064207157, 77.16182820821889 -19.8957332956511, 77.4758551765865 -19.64530514498651 M77.4758551765865 -19.64530514498651 C77.94969930194497 -19.21497244756448, 78.42354342730346 -18.784639750142457, 78.70017234701088 -18.533412684464313 M77.4758551765865 -19.64530514498651 C77.8162379363537 -19.336178528600247, 78.15662069612091 -19.027051912213985, 78.70017234701088 -18.533412684464313 M78.70017234701088 -18.533412684464313 C78.98510979185224 -18.239191378866316, 79.27004723669361 -17.94497007326832, 79.85073483196044 -17.345362455817106 M78.70017234701088 -18.533412684464313 C79.1058145953587 -18.114553759197236, 79.51145684370651 -17.695694833930162, 79.85073483196044 -17.345362455817106 M79.85073483196044 -17.345362455817106 C80.24608480469996 -16.88096188178653, 80.64143477743949 -16.416561307755956, 80.92281472338968 -16.086036412270357 M79.85073483196044 -17.345362455817106 C80.22828141190409 -16.901874760006304, 80.60582799184775 -16.458387064195502, 80.92281472338968 -16.086036412270357 M80.92281472338968 -16.086036412270357 C81.12581435035496 -15.814035405783343, 81.32881397732024 -15.54203439929633, 81.91200661506427 -14.76060939466161 M80.92281472338968 -16.086036412270357 C81.2037556150834 -15.709601211642536, 81.4846965067771 -15.333166011014715, 81.91200661506427 -14.76060939466161 M81.91200661506427 -14.76060939466161 C82.21757779660467 -14.291170002464192, 82.52314897814509 -13.821730610266773, 82.81424570532036 -13.374527866909407 M81.91200661506427 -14.76060939466161 C82.2444823753426 -14.249837344631775, 82.57695813562093 -13.73906529460194, 82.81424570532036 -13.374527866909407 M82.81424570532036 -13.374527866909407 C83.06032882495256 -12.937582369384486, 83.30641194458477 -12.500636871859566, 83.6258245002064 -11.93348753532484 M82.81424570532036 -13.374527866909407 C83.10918913736252 -12.850825937057477, 83.40413256940468 -12.32712400720555, 83.6258245002064 -11.93348753532484 M83.6258245002064 -11.93348753532484 C83.90906171836656 -11.345339391509663, 84.19229893652671 -10.757191247694484, 84.34340804837109 -10.443409943732584 M83.6258245002064 -11.93348753532484 C83.79325552102736 -11.585813438140177, 83.96068654184832 -11.238139340955513, 84.34340804837109 -10.443409943732584 M84.34340804837109 -10.443409943732584 C84.48869946928482 -10.084537325057127, 84.63399089019856 -9.725664706381668, 84.96404764509381 -8.910418140577123 M84.34340804837109 -10.443409943732584 C84.5450544710743 -9.945339381087289, 84.7467008937775 -9.44726881844199, 84.96404764509381 -8.910418140577123 M84.96404764509381 -8.910418140577123 C85.16555163545863 -8.303520226899183, 85.36705562582344 -7.6966223132212415, 85.4851929491449 -7.340811518003323 M84.96404764509381 -8.910418140577123 C85.08552421608654 -8.544550063410217, 85.20700078707927 -8.178681986243312, 85.4851929491449 -7.340811518003323 M85.4851929491449 -7.340811518003323 C85.6242252184701 -6.810621218099657, 85.7632574877953 -6.28043091819599, 85.90470246268467 -5.741039926302914 M85.4851929491449 -7.340811518003323 C85.59043907938612 -6.939462409432197, 85.69568520962733 -6.538113300861072, 85.90470246268467 -5.741039926302914 M85.90470246268467 -5.741039926302914 C85.99089572876662 -5.298455721925328, 86.07708899484858 -4.855871517547743, 86.22085233113748 -4.117677170096137 M85.90470246268467 -5.741039926302914 C86.02651450143681 -5.1155608522942355, 86.14832654018893 -4.490081778285557, 86.22085233113748 -4.117677170096137 M86.22085233113748 -4.117677170096137 C86.28346205305554 -3.6320885305875823, 86.34607177497362 -3.1464998910790274, 86.43234342687991 -2.4773939951584394 M86.22085233113748 -4.117677170096137 C86.3024568710339 -3.48476847329856, 86.38406141093033 -2.8518597765009837, 86.43234342687991 -2.4773939951584394 M86.43234342687991 -2.4773939951584394 C86.46426980975262 -1.9801148114035207, 86.49619619262533 -1.482835627648602, 86.53830668763487 -0.8269306768952902 M86.43234342687991 -2.4773939951584394 C86.46628783547865 -1.9486824317996083, 86.5002322440774 -1.4199708684407772, 86.53830668763487 -0.8269306768952902 M86.53830668763487 -0.8269306768952902 C86.53830668763487 -0.37748133043460974, 86.53830668763487 0.07196801602607072, 86.53830668763487 0.826930676895284 M86.53830668763487 -0.8269306768952902 C86.53830668763487 -0.21188845603370787, 86.53830668763487 0.40315376482787446, 86.53830668763487 0.826930676895284 M86.53830668763487 0.826930676895284 C86.5163047999485 1.1696278372146676, 86.49430291226213 1.512324997534051, 86.43234342687991 2.4773939951584216 M86.53830668763487 0.826930676895284 C86.50002925025244 1.4231326611180801, 86.46175181287 2.0193346453408765, 86.43234342687991 2.4773939951584216 M86.43234342687991 2.4773939951584216 C86.37257924742516 2.9409131692372945, 86.31281506797043 3.4044323433161674, 86.22085233113748 4.117677170096119 M86.43234342687991 2.4773939951584216 C86.37991120147582 2.884047981478491, 86.32747897607175 3.2907019677985607, 86.22085233113748 4.117677170096119 M86.22085233113748 4.117677170096119 C86.13448499866433 4.561155168603497, 86.0481176661912 5.004633167110875, 85.90470246268467 5.741039926302909 M86.22085233113748 4.117677170096119 C86.13886560749633 4.538661668093219, 86.05687888385519 4.9596461660903195, 85.90470246268467 5.741039926302909 M85.90470246268467 5.741039926302909 C85.76694075265824 6.266385032936459, 85.62917904263182 6.79173013957001, 85.4851929491449 7.340811518003306 M85.90470246268467 5.741039926302909 C85.81048765864824 6.100321807048176, 85.71627285461182 6.459603687793443, 85.4851929491449 7.340811518003306 M85.4851929491449 7.340811518003306 C85.37133100595298 7.683745549460387, 85.25746906276106 8.026679580917468, 84.96404764509383 8.910418140577105 M85.4851929491449 7.340811518003306 C85.36214129179425 7.711423504324382, 85.23908963444359 8.08203549064546, 84.96404764509383 8.910418140577105 M84.96404764509383 8.910418140577105 C84.72852076921306 9.492174077604965, 84.4929938933323 10.073930014632825, 84.34340804837109 10.443409943732577 M84.96404764509383 8.910418140577105 C84.80176573439425 9.311257597512366, 84.63948382369468 9.712097054447627, 84.34340804837109 10.443409943732577 M84.34340804837109 10.443409943732577 C84.07448935176602 11.001825371171355, 83.80557065516095 11.560240798610131, 83.6258245002064 11.933487535324835 M84.34340804837109 10.443409943732577 C84.16374491204968 10.816484290479272, 83.98408177572827 11.189558637225964, 83.6258245002064 11.933487535324835 M83.6258245002064 11.933487535324835 C83.36061631246965 12.40439152789254, 83.09540812473288 12.875295520460249, 82.81424570532037 13.374527866909402 M83.6258245002064 11.933487535324835 C83.44869558584985 12.247997859012425, 83.27156667149329 12.562508182700018, 82.81424570532037 13.374527866909402 M82.81424570532037 13.374527866909402 C82.62297185681223 13.66837586243791, 82.43169800830408 13.962223857966421, 81.91200661506429 14.760609394661596 M82.81424570532037 13.374527866909402 C82.62217178217975 13.66960499192352, 82.43009785903912 13.96468211693764, 81.91200661506429 14.760609394661596 M81.91200661506429 14.760609394661596 C81.59883512690958 15.180230658279413, 81.28566363875485 15.599851921897228, 80.92281472338968 16.086036412270353 M81.91200661506429 14.760609394661596 C81.7067983353411 15.035569794631794, 81.50159005561791 15.310530194601991, 80.92281472338968 16.086036412270353 M80.92281472338968 16.086036412270353 C80.70389596981246 16.34319083705212, 80.48497721623524 16.600345261833887, 79.85073483196045 17.345362455817092 M80.92281472338968 16.086036412270353 C80.4968922913339 16.58634913663603, 80.07096985927811 17.08666186100171, 79.85073483196045 17.345362455817092 M79.85073483196045 17.345362455817092 C79.4177498325853 17.7924550164015, 78.98476483321015 18.239547576985906, 78.70017234701088 18.533412684464306 M79.85073483196045 17.345362455817092 C79.60220894421796 17.60198583926606, 79.35368305647548 17.858609222715028, 78.70017234701088 18.533412684464306 M78.70017234701088 18.533412684464306 C78.42249487214391 18.785592020195104, 78.14481739727694 19.037771355925898, 77.47585517658653 19.64530514498649 M78.70017234701088 18.533412684464306 C78.34045010984758 18.860102902527178, 77.98072787268427 19.186793120590053, 77.47585517658653 19.64530514498649 M77.47585517658653 19.64530514498649 C76.96837416356375 20.050007748235245, 76.46089315054095 20.454710351484003, 76.18281430255584 20.676470832763208 M77.47585517658653 19.64530514498649 C76.99398155594656 20.029586534251276, 76.5121079353066 20.41386792351606, 76.18281430255584 20.676470832763208 M76.18281430255584 20.676470832763208 C75.75239411680255 20.976713321755167, 75.32197393104926 21.27695581074713, 74.82636310722665 21.622672466799003 M76.18281430255584 20.676470832763208 C75.68970285747403 21.020444030401865, 75.19659141239222 21.364417228040526, 74.82636310722665 21.622672466799003 M74.82636310722665 21.622672466799003 C74.38624611819827 21.889473971962527, 73.94612912916989 22.156275477126048, 73.41207553951841 22.48002190162003 M74.82636310722665 21.622672466799003 C74.32783035654194 21.92488594996772, 73.8292976058572 22.227099433136434, 73.41207553951841 22.48002190162003 M73.41207553951841 22.48002190162003 C73.05471986025668 22.66645413059364, 72.69736418099495 22.852886359567247, 71.94576321041058 23.244996104497716 M73.41207553951841 22.48002190162003 C72.83963665717495 22.77866289987401, 72.2671977748315 23.077303898127987, 71.94576321041058 23.244996104497716 M71.94576321041058 23.244996104497716 C71.46342476872786 23.458513024569147, 70.98108632704515 23.672029944640578, 70.43345151178644 23.914451632345994 M71.94576321041058 23.244996104497716 C71.38860891429641 23.491631783992478, 70.83145461818225 23.738267463487244, 70.43345151178644 23.914451632345994 M70.43345151178644 23.914451632345994 C69.88118061423319 24.117692427781808, 69.32890971667993 24.320933223217622, 68.88135485680553 24.485637548803172 M70.43345151178644 23.914451632345994 C70.04042533258598 24.05908889938594, 69.6473991533855 24.203726166425884, 68.88135485680553 24.485637548803172 M68.88135485680553 24.485637548803172 C68.32977729745882 24.649342873127583, 67.77819973811212 24.813048197451998, 67.29585114354681 24.95620672841954 M68.88135485680553 24.485637548803172 C68.27683769645779 24.665055068819054, 67.67232053611005 24.84447258883494, 67.29585114354681 24.95620672841954 M67.29585114354681 24.95620672841954 C66.8806643801681 25.0509703978139, 66.4654776167894 25.145734067208256, 65.68345554685754 25.324225501499278 M67.29585114354681 24.95620672841954 C66.9289133835629 25.039957877643207, 66.56197562357899 25.123709026866873, 65.68345554685754 25.324225501499278 M65.68345554685754 25.324225501499278 C65.32453293207207 25.382253326371345, 64.9656103172866 25.440281151243408, 64.05079374610233 25.588181599964017 M65.68345554685754 25.324225501499278 C65.18628529025254 25.40460413297425, 64.68911503364755 25.48498276444922, 64.05079374610233 25.588181599964017 M64.05079374610233 25.588181599964017 C63.63332395883948 25.62845440826039, 63.21585417157663 25.66872721655676, 62.404574698825286 25.746990371586765 M64.05079374610233 25.588181599964017 C63.404156847983195 25.65056188383092, 62.75751994986406 25.712942167697822, 62.404574698825286 25.746990371586765 M62.404574698825286 25.746990371586765 C61.930517456818954 25.762192464641462, 61.456460214812616 25.777394557696162, 60.7515630722046 25.799999237060547 M62.404574698825286 25.746990371586765 C61.862657278936055 25.764368608464345, 61.320739859046824 25.781746845341925, 60.7515630722046 25.799999237060547 M60.7515630722046 25.799999237060547 C60.7515630722046 25.799999237060547, 60.75156307220459 25.799999237060547, 60.75156307220459 25.799999237060547 M60.7515630722046 25.799999237060547 C60.7515630722046 25.799999237060547, 60.7515630722046 25.799999237060547, 60.75156307220459 25.799999237060547 M60.75156307220459 25.799999237060547 C12.792712940360921 25.799999237060547, -35.16613719148275 25.799999237060547, -60.75156307220458 25.799999237060547 M60.75156307220459 25.799999237060547 C27.27162482913708 25.799999237060547, -6.208313413930426 25.799999237060547, -60.75156307220458 25.799999237060547 M-60.75156307220458 25.799999237060547 C-61.10800622549021 25.788568798909186, -61.46444937877584 25.777138360757824, -62.40457469882527 25.746990371586765 M-60.75156307220458 25.799999237060547 C-61.15957918856513 25.786914954364057, -61.56759530492568 25.773830671667564, -62.40457469882527 25.746990371586765 M-62.40457469882527 25.746990371586765 C-62.75625366945338 25.713064324246115, -63.107932640081486 25.679138276905462, -64.05079374610231 25.588181599964017 M-62.40457469882527 25.746990371586765 C-62.83147893093471 25.705807433742624, -63.258383163044144 25.664624495898483, -64.05079374610231 25.588181599964017 M-64.05079374610231 25.588181599964017 C-64.66501289624908 25.48887941110894, -65.27923204639585 25.38957722225386, -65.68345554685753 25.324225501499278 M-64.05079374610231 25.588181599964017 C-64.6570851899236 25.49016110118736, -65.26337663374488 25.392140602410706, -65.68345554685753 25.324225501499278 M-65.68345554685753 25.324225501499278 C-66.17708540128766 25.21155770846144, -66.67071525571778 25.098889915423605, -67.29585114354678 24.956206728419545 M-65.68345554685753 25.324225501499278 C-66.09812519362951 25.229579860595905, -66.5127948404015 25.134934219692532, -67.29585114354678 24.956206728419545 M-67.29585114354678 24.956206728419545 C-67.85108903357346 24.79141503716279, -68.40632692360013 24.62662334590603, -68.8813548568055 24.485637548803183 M-67.29585114354678 24.956206728419545 C-67.90965747347599 24.774032231631733, -68.52346380340519 24.591857734843916, -68.8813548568055 24.485637548803183 M-68.8813548568055 24.485637548803183 C-69.31515518184447 24.325995019182596, -69.74895550688345 24.16635248956201, -70.43345151178644 23.914451632345997 M-68.8813548568055 24.485637548803183 C-69.34417873131966 24.315314084684978, -69.80700260583382 24.144990620566773, -70.43345151178644 23.914451632345997 M-70.43345151178644 23.914451632345997 C-71.01936497841821 23.655085121173574, -71.60527844504996 23.395718610001154, -71.94576321041056 23.244996104497723 M-70.43345151178644 23.914451632345997 C-70.80187568615443 23.751361179268116, -71.17029986052242 23.58827072619024, -71.94576321041056 23.244996104497723 M-71.94576321041056 23.244996104497723 C-72.26562302499661 23.07812544410817, -72.58548283958265 22.91125478371862, -73.4120755395184 22.480021901620038 M-71.94576321041056 23.244996104497723 C-72.39567737440288 23.010276173326705, -72.8455915383952 22.775556242155687, -73.4120755395184 22.480021901620038 M-73.4120755395184 22.480021901620038 C-73.87700806343699 22.1981770733738, -74.3419405873556 21.91633224512756, -74.82636310722663 21.622672466799017 M-73.4120755395184 22.480021901620038 C-73.92513285647874 22.169003541019215, -74.43819017343908 21.857985180418396, -74.82636310722663 21.622672466799017 M-74.82636310722663 21.622672466799017 C-75.33201409272665 21.269952228592565, -75.83766507822669 20.917231990386114, -76.18281430255584 20.67647083276321 M-74.82636310722663 21.622672466799017 C-75.30329540901265 21.28998513913968, -75.78022771079867 20.957297811480345, -76.18281430255584 20.67647083276321 M-76.18281430255584 20.67647083276321 C-76.4839691825209 20.436307830059008, -76.78512406248595 20.196144827354807, -77.4758551765865 19.645305144986512 M-76.18281430255584 20.67647083276321 C-76.5023329871423 20.421663184554806, -76.82185167172874 20.1668555363464, -77.4758551765865 19.645305144986512 M-77.4758551765865 19.645305144986512 C-77.78759651502524 19.362189909640286, -78.09933785346396 19.079074674294056, -78.70017234701086 18.533412684464324 M-77.4758551765865 19.645305144986512 C-77.72418657382572 19.419777140502585, -77.97251797106492 19.19424913601866, -78.70017234701086 18.533412684464324 M-78.70017234701086 18.533412684464324 C-79.06562768496886 18.156050043581434, -79.43108302292687 17.778687402698544, -79.85073483196044 17.3453624558171 M-78.70017234701086 18.533412684464324 C-78.9756585554967 18.248950556364356, -79.25114476398252 17.96448842826439, -79.85073483196044 17.3453624558171 M-79.85073483196044 17.3453624558171 C-80.1948224304725 16.94117758346583, -80.53891002898456 16.536992711114557, -80.92281472338968 16.08603641227036 M-79.85073483196044 17.3453624558171 C-80.27380727108965 16.848397495312163, -80.69687971021888 16.351432534807227, -80.92281472338968 16.08603641227036 M-80.92281472338968 16.08603641227036 C-81.23660664276575 15.665583827338365, -81.55039856214182 15.24513124240637, -81.91200661506427 14.760609394661614 M-80.92281472338968 16.08603641227036 C-81.24892337925968 15.649080522514282, -81.57503203512968 15.212124632758204, -81.91200661506427 14.760609394661614 M-81.91200661506427 14.760609394661614 C-82.100523775897 14.47099641167684, -82.28904093672973 14.181383428692065, -82.81424570532036 13.374527866909418 M-81.91200661506427 14.760609394661614 C-82.11438731535293 14.449698292190941, -82.31676801564159 14.138787189720269, -82.81424570532036 13.374527866909418 M-82.81424570532036 13.374527866909418 C-83.12211311675205 12.827878102956557, -83.42998052818372 12.281228339003698, -83.62582450020639 11.933487535324842 M-82.81424570532036 13.374527866909418 C-83.0881547082245 12.888174695958972, -83.36206371112861 12.401821525008526, -83.62582450020639 11.933487535324842 M-83.62582450020639 11.933487535324842 C-83.77215715110758 11.629624654711392, -83.91848980200875 11.325761774097945, -84.34340804837109 10.443409943732586 M-83.62582450020639 11.933487535324842 C-83.85457935823433 11.458473178059965, -84.08333421626227 10.983458820795088, -84.34340804837109 10.443409943732586 M-84.34340804837109 10.443409943732586 C-84.57007080629377 9.883548549437261, -84.79673356421644 9.323687155141936, -84.96404764509381 8.910418140577127 M-84.34340804837109 10.443409943732586 C-84.47890788711119 10.108722722333361, -84.6144077258513 9.774035500934136, -84.96404764509381 8.910418140577127 M-84.96404764509381 8.910418140577127 C-85.16579928494964 8.302774346089837, -85.36755092480547 7.695130551602549, -85.4851929491449 7.340811518003316 M-84.96404764509381 8.910418140577127 C-85.10151211211101 8.496397067909799, -85.2389765791282 8.08237599524247, -85.4851929491449 7.340811518003316 M-85.4851929491449 7.340811518003316 C-85.57049545849569 7.015516079507343, -85.65579796784648 6.69022064101137, -85.90470246268467 5.741039926302918 M-85.4851929491449 7.340811518003316 C-85.58436814230527 6.962613523682246, -85.68354333546563 6.584415529361177, -85.90470246268467 5.741039926302918 M-85.90470246268467 5.741039926302918 C-85.99299998698217 5.287650800723621, -86.08129751127967 4.834261675144324, -86.22085233113748 4.117677170096139 M-85.90470246268467 5.741039926302918 C-86.03056995349449 5.094736963098127, -86.1564374443043 4.448433999893336, -86.22085233113748 4.117677170096139 M-86.22085233113748 4.117677170096139 C-86.29229539224123 3.5635788962035604, -86.36373845334498 3.0094806223109813, -86.43234342687991 2.477393995158454 M-86.22085233113748 4.117677170096139 C-86.27852498840174 3.6703794291088476, -86.336197645666 3.2230816881215563, -86.43234342687991 2.477393995158454 M-86.43234342687991 2.477393995158454 C-86.46878586583719 1.9097735925914159, -86.50522830479449 1.3421531900243775, -86.53830668763487 0.8269306768952934 M-86.43234342687991 2.477393995158454 C-86.45449938244921 2.1322971032011675, -86.4766553380185 1.787200211243881, -86.53830668763487 0.8269306768952934 M-86.53830668763487 0.8269306768952934 C-86.53830668763487 0.3196392761609218, -86.53830668763487 -0.18765212457344982, -86.53830668763487 -0.8269306768952809 M-86.53830668763487 0.8269306768952934 C-86.53830668763487 0.2108859650848588, -86.53830668763487 -0.40515874672557584, -86.53830668763487 -0.8269306768952809 M-86.53830668763487 -0.8269306768952809 C-86.51288641784981 -1.2228718976699413, -86.48746614806477 -1.6188131184446015, -86.43234342687991 -2.4773939951584185 M-86.53830668763487 -0.8269306768952809 C-86.50092301872866 -1.409211495663903, -86.46353934982245 -1.9914923144325252, -86.43234342687991 -2.4773939951584185 M-86.43234342687991 -2.4773939951584185 C-86.35011056208248 -3.1151758558114997, -86.26787769728503 -3.7529577164645813, -86.22085233113748 -4.117677170096128 M-86.43234342687991 -2.4773939951584185 C-86.38646209214578 -2.8332405670620493, -86.34058075741164 -3.18908713896568, -86.22085233113748 -4.117677170096128 M-86.22085233113748 -4.117677170096128 C-86.09939247248506 -4.741347873726026, -85.97793261383265 -5.365018577355923, -85.90470246268467 -5.741039926302906 M-86.22085233113748 -4.117677170096128 C-86.10963595673336 -4.688749747072219, -85.99841958232923 -5.25982232404831, -85.90470246268467 -5.741039926302906 M-85.90470246268467 -5.741039926302906 C-85.79120064087599 -6.17387156486016, -85.6776988190673 -6.606703203417413, -85.4851929491449 -7.340811518003303 M-85.90470246268467 -5.741039926302906 C-85.77365411613219 -6.240784068420166, -85.64260576957972 -6.740528210537426, -85.4851929491449 -7.340811518003303 M-85.4851929491449 -7.340811518003303 C-85.31699526741028 -7.847396136726754, -85.14879758567565 -8.353980755450205, -84.96404764509383 -8.910418140577093 M-85.4851929491449 -7.340811518003303 C-85.32265957571217 -7.830336142606434, -85.16012620227943 -8.319860767209565, -84.96404764509383 -8.910418140577093 M-84.96404764509383 -8.910418140577093 C-84.72299207543004 -9.505830058139052, -84.48193650576624 -10.101241975701013, -84.34340804837109 -10.443409943732574 M-84.96404764509383 -8.910418140577093 C-84.79406880354769 -9.330269165513386, -84.62408996200156 -9.75012019044968, -84.34340804837109 -10.443409943732574 M-84.34340804837109 -10.443409943732574 C-84.17868144907659 -10.78546825175218, -84.01395484978211 -11.127526559771788, -83.6258245002064 -11.933487535324831 M-84.34340804837109 -10.443409943732574 C-84.15618010989132 -10.83219276402192, -83.96895217141157 -11.220975584311267, -83.6258245002064 -11.933487535324831 M-83.6258245002064 -11.933487535324831 C-83.38407777832909 -12.362733319528056, -83.14233105645178 -12.791979103731279, -82.81424570532036 -13.374527866909409 M-83.6258245002064 -11.933487535324831 C-83.36501888262498 -12.396574318773174, -83.10421326504355 -12.859661102221517, -82.81424570532036 -13.374527866909409 M-82.81424570532036 -13.374527866909409 C-82.59680461597884 -13.708575771246002, -82.37936352663732 -14.042623675582597, -81.91200661506429 -14.760609394661605 M-82.81424570532036 -13.374527866909409 C-82.54001012765254 -13.795827356770715, -82.26577454998473 -14.217126846632024, -81.91200661506429 -14.760609394661605 M-81.91200661506429 -14.760609394661605 C-81.66094186589254 -15.09701328608256, -81.40987711672079 -15.433417177503518, -80.92281472338968 -16.086036412270353 M-81.91200661506429 -14.760609394661605 C-81.6435472855698 -15.120320439036163, -81.37508795607532 -15.480031483410723, -80.92281472338968 -16.086036412270353 M-80.92281472338968 -16.086036412270353 C-80.55002180693567 -16.523940184455093, -80.17722889048169 -16.961843956639832, -79.85073483196045 -17.345362455817092 M-80.92281472338968 -16.086036412270353 C-80.51366740475984 -16.56664413387491, -80.10452008613001 -17.04725185547947, -79.85073483196045 -17.345362455817092 M-79.85073483196045 -17.345362455817092 C-79.47226440800311 -17.73616424155273, -79.09379398404577 -18.126966027288365, -78.70017234701089 -18.5334126844643 M-79.85073483196045 -17.345362455817092 C-79.51034684741728 -17.696840996231185, -79.1699588628741 -18.048319536645277, -78.70017234701089 -18.5334126844643 M-78.70017234701089 -18.5334126844643 C-78.3683214212361 -18.834790914958614, -78.0364704954613 -19.136169145452932, -77.47585517658653 -19.645305144986487 M-78.70017234701089 -18.5334126844643 C-78.3077595396577 -18.889791613428546, -77.91534673230449 -19.246170542392793, -77.47585517658653 -19.645305144986487 M-77.47585517658653 -19.645305144986487 C-77.12439862641713 -19.925582391095002, -76.77294207624773 -20.20585963720352, -76.18281430255585 -20.676470832763204 M-77.47585517658653 -19.645305144986487 C-77.0700351337309 -19.96893582983898, -76.66421509087525 -20.292566514691472, -76.18281430255585 -20.676470832763204 M-76.18281430255585 -20.676470832763204 C-75.66792007578258 -21.0356387559484, -75.15302584900931 -21.3948066791336, -74.82636310722665 -21.622672466799 M-76.18281430255585 -20.676470832763204 C-75.79230879217018 -20.948870572097164, -75.4018032817845 -21.221270311431127, -74.82636310722665 -21.622672466799 M-74.82636310722665 -21.622672466799 C-74.4624523894725 -21.843277282478322, -74.09854167171835 -22.06388209815765, -73.41207553951841 -22.480021901620027 M-74.82636310722665 -21.622672466799 C-74.39491037340316 -21.8842216495405, -73.96345763957967 -22.145770832282, -73.41207553951841 -22.480021901620027 M-73.41207553951841 -22.480021901620027 C-72.94512596961707 -22.723629193142088, -72.47817639971572 -22.96723648466415, -71.94576321041058 -23.244996104497716 M-73.41207553951841 -22.480021901620027 C-73.00740173053873 -22.69113996855878, -72.60272792155905 -22.902258035497535, -71.94576321041058 -23.244996104497716 M-71.94576321041058 -23.244996104497716 C-71.40611395168081 -23.48388282321089, -70.86646469295104 -23.722769541924066, -70.43345151178646 -23.91445163234599 M-71.94576321041058 -23.244996104497716 C-71.55146015190338 -23.419542371914197, -71.1571570933962 -23.594088639330682, -70.43345151178646 -23.91445163234599 M-70.43345151178646 -23.91445163234599 C-69.94383929656102 -24.094633453474657, -69.45422708133559 -24.27481527460332, -68.88135485680553 -24.485637548803172 M-70.43345151178646 -23.91445163234599 C-69.86365274636705 -24.12414284518238, -69.29385398094765 -24.33383405801877, -68.88135485680553 -24.485637548803172 M-68.88135485680553 -24.485637548803172 C-68.50165983292707 -24.598329038830446, -68.1219648090486 -24.711020528857723, -67.29585114354681 -24.956206728419538 M-68.88135485680553 -24.485637548803172 C-68.50289934600642 -24.597961157854833, -68.12444383520732 -24.710284766906494, -67.29585114354681 -24.956206728419538 M-67.29585114354681 -24.956206728419538 C-66.8161510828555 -25.06569513693689, -66.33645102216418 -25.175183545454242, -65.68345554685754 -25.324225501499278 M-67.29585114354681 -24.956206728419538 C-66.87353135564138 -25.052598464114787, -66.45121156773594 -25.148990199810036, -65.68345554685754 -25.324225501499278 M-65.68345554685754 -25.324225501499278 C-65.32624532604879 -25.381976479793003, -64.96903510524004 -25.439727458086725, -64.05079374610233 -25.588181599964017 M-65.68345554685754 -25.324225501499278 C-65.25062402407605 -25.394202345444, -64.81779250129455 -25.464179189388723, -64.05079374610233 -25.588181599964017 M-64.05079374610233 -25.588181599964017 C-63.45564676295077 -25.64559471365968, -62.86049977979921 -25.703007827355343, -62.404574698825286 -25.746990371586765 M-64.05079374610233 -25.588181599964017 C-63.55454182048448 -25.63605442639811, -63.05828989486664 -25.683927252832206, -62.404574698825286 -25.746990371586765 M-62.404574698825286 -25.746990371586765 C-61.83067984735818 -25.765394062454753, -61.25678499589107 -25.78379775332274, -60.7515630722046 -25.799999237060547 M-62.404574698825286 -25.746990371586765 C-61.834636806974295 -25.76526717046162, -61.26469891512331 -25.78354396933647, -60.7515630722046 -25.799999237060547 M-60.7515630722046 -25.799999237060547 C-60.7515630722046 -25.799999237060547, -60.7515630722046 -25.799999237060547, -60.75156307220459 -25.799999237060547 M-60.7515630722046 -25.799999237060547 C-60.7515630722046 -25.799999237060547, -60.75156307220459 -25.799999237060547, -60.75156307220459 -25.799999237060547" stroke="#4338ca" stroke-width="1.3" fill="none" stroke-dasharray="0 0" style="fill:#eef2ff !important;stroke:#4338ca !important"></path></g><g class="label" style="color:#312e81 !important" transform="translate(0, -18.299999237060547)"><rect></rect><g><rect class="background" style="stroke: none"></rect><text y="-10.1" style="fill:#312e81 !important"><tspan class="text-outer-tspan row" x="0" y="-0.1em" dy="1.1em"><tspan font-style="normal" class="text-inner-tspan" font-weight="normal">New</tspan><tspan font-style="normal" class="text-inner-tspan" font-weight="normal"> change</tspan><tspan font-style="normal" class="text-inner-tspan" font-weight="normal"> request</tspan></tspan><tspan class="text-outer-tspan row" x="0" y="1em" dy="1.1em"><tspan font-style="normal" class="text-inner-tspan" font-weight="normal">or</tspan><tspan font-style="normal" class="text-inner-tspan" font-weight="normal"> incident</tspan><tspan font-style="normal" class="text-inner-tspan" font-weight="normal"> review</tspan></tspan></text></g></g></g><g class="node default question" id="gee564787-476e-4c68-872e-e5748e17a689-light-flowchart-Q1-1" data-look="classic" transform="translate(519.58984375, 219.6765594482422)"><polygon points="110.0765609741211,0 220.1531219482422,-110.0765609741211 110.0765609741211,-220.1531219482422 0,-110.0765609741211" class="label-container" transform="translate(-109.5765609741211, 110.0765609741211)" style="fill:#fffbeb !important;stroke:#b45309 !important"></polygon><g class="label" style="color:#78350f !important" transform="translate(0, -27.099998474121094)"><rect></rect><g><rect class="background" style="stroke: none"></rect><text y="-10.1" style="fill:#78350f !important"><tspan class="text-outer-tspan row" x="0" y="-0.1em" dy="1.1em"><tspan font-style="normal" class="text-inner-tspan" font-weight="normal">Budget</tspan></tspan><tspan class="text-outer-tspan row" x="0" y="1em" dy="1.1em"><tspan font-style="normal" class="text-inner-tspan" font-weight="normal">exhausted?</tspan></tspan><tspan class="text-outer-tspan row" x="0" y="2.1em" dy="1.1em"><tspan font-style="normal" class="text-inner-tspan" font-weight="normal">(consumed</tspan><tspan font-style="normal" class="text-inner-tspan" font-weight="normal"> &gt;</tspan><tspan font-style="normal" class="text-inner-tspan" font-weight="normal"> 100%)</tspan></tspan></text></g></g></g><g class="node default question" id="gee564787-476e-4c68-872e-e5748e17a689-light-flowchart-Q2-2" data-look="classic" transform="translate(821.4609375, 520.6656188964844)"><polygon points="95.0140609741211,0 190.0281219482422,-95.0140609741211 95.0140609741211,-190.0281219482422 0,-95.0140609741211" class="label-container" transform="translate(-94.5140609741211, 95.0140609741211)" style="fill:#fffbeb !important;stroke:#b45309 !important"></polygon><g class="label" style="color:#78350f !important" transform="translate(0, -27.099998474121094)"><rect></rect><g><rect class="background" style="stroke: none"></rect><text y="-10.1" style="fill:#78350f !important"><tspan class="text-outer-tspan row" x="0" y="-0.1em" dy="1.1em"><tspan font-style="normal" class="text-inner-tspan" font-weight="normal">Single</tspan><tspan font-style="normal" class="text-inner-tspan" font-weight="normal"> incident</tspan></tspan><tspan class="text-outer-tspan row" x="0" y="1em" dy="1.1em"><tspan font-style="normal" class="text-inner-tspan" font-weight="normal">burned</tspan><tspan font-style="normal" class="text-inner-tspan" font-weight="normal"> &gt;</tspan><tspan font-style="normal" class="text-inner-tspan" font-weight="normal"> 20%</tspan></tspan><tspan class="text-outer-tspan row" x="0" y="2.1em" dy="1.1em"><tspan font-style="normal" class="text-inner-tspan" font-weight="normal">of</tspan><tspan font-style="normal" class="text-inner-tspan" font-weight="normal"> budget?</tspan></tspan></text></g></g></g><g class="node default question" id="gee564787-476e-4c68-872e-e5748e17a689-light-flowchart-Q3-3" data-look="classic" transform="translate(821.4609375, 959.8499984741211)"><polygon points="96.47187423706055,0 192.9437484741211,-96.47187423706055 96.47187423706055,-192.9437484741211 0,-96.47187423706055" class="label-container" transform="translate(-95.97187423706055, 96.47187423706055)" style="fill:#fffbeb !important;stroke:#b45309 !important"></polygon><g class="label" style="color:#78350f !important" transform="translate(0, -18.299999237060547)"><rect></rect><g><rect class="background" style="stroke: none"></rect><text y="-10.1" style="fill:#78350f !important"><tspan class="text-outer-tspan row" x="0" y="-0.1em" dy="1.1em"><tspan font-style="normal" class="text-inner-tspan" font-weight="normal">Recurring</tspan><tspan font-style="normal" class="text-inner-tspan" font-weight="normal"> pattern</tspan></tspan><tspan class="text-outer-tspan row" x="0" y="1em" dy="1.1em"><tspan font-style="normal" class="text-inner-tspan" font-weight="normal">across</tspan><tspan font-style="normal" class="text-inner-tspan" font-weight="normal"> quarters?</tspan></tspan></text></g></g></g><g class="node default question" id="gee564787-476e-4c68-872e-e5748e17a689-light-flowchart-Q4-4" data-look="classic" transform="translate(286.8125, 520.6656188964844)"><polygon points="117.9124984741211,0 235.8249969482422,-117.9124984741211 117.9124984741211,-235.8249969482422 0,-117.9124984741211" class="label-container" transform="translate(-117.4124984741211, 117.9124984741211)" style="fill:#fffbeb !important;stroke:#b45309 !important"></polygon><g class="label" style="color:#78350f !important" transform="translate(0, -27.099998474121094)"><rect></rect><g><rect class="background" style="stroke: none"></rect><text y="-10.1" style="fill:#78350f !important"><tspan class="text-outer-tspan row" x="0" y="-0.1em" dy="1.1em"><tspan font-style="normal" class="text-inner-tspan" font-weight="normal">Cause</tspan></tspan><tspan class="text-outer-tspan row" x="0" y="1em" dy="1.1em"><tspan font-style="normal" class="text-inner-tspan" font-weight="normal">external?</tspan></tspan><tspan class="text-outer-tspan row" x="0" y="2.1em" dy="1.1em"><tspan font-style="normal" class="text-inner-tspan" font-weight="normal">(dependency</tspan><tspan font-style="normal" class="text-inner-tspan" font-weight="normal"> outage)</tspan></tspan></text></g></g></g><g class="node default halt" id="gee564787-476e-4c68-872e-e5748e17a689-light-flowchart-HaltAll-5" data-look="classic" transform="translate(439.15625, 762.4781188964844)"><rect class="basic label-container" style="fill:#fef2f2 !important;stroke:#b91c1c !important" x="-128.21875" y="-50.900001525878906" width="256.4375" height="101.80000305175781"></rect><g class="label" style="color:#7f1d1d !important" transform="translate(0, -35.900001525878906)"><rect></rect><g><rect class="background" style="stroke: none"></rect><text y="-10.1" style="fill:#7f1d1d !important"><tspan class="text-outer-tspan row" x="0" y="-0.1em" dy="1.1em"><tspan font-style="normal" class="text-inner-tspan" font-weight="normal">HALT</tspan><tspan font-style="normal" class="text-inner-tspan" font-weight="normal"> non-critical</tspan><tspan font-style="normal" class="text-inner-tspan" font-weight="normal"> changes</tspan></tspan><tspan class="text-outer-tspan row" x="0" y="1em" dy="1.1em"><tspan font-style="normal" class="text-inner-tspan" font-weight="normal">P0</tspan><tspan font-style="normal" class="text-inner-tspan" font-weight="normal"> /</tspan><tspan font-style="normal" class="text-inner-tspan" font-weight="normal"> security</tspan><tspan font-style="normal" class="text-inner-tspan" font-weight="normal"> /</tspan><tspan font-style="normal" class="text-inner-tspan" font-weight="normal"> reliability</tspan></tspan><tspan class="text-outer-tspan row" x="0" y="2.1em" dy="1.1em"><tspan font-style="normal" class="text-inner-tspan" font-weight="normal">only</tspan></tspan><tspan class="text-outer-tspan row" x="0" y="3.2em" dy="1.1em"><tspan font-style="normal" class="text-inner-tspan" font-weight="normal">Notify</tspan><tspan font-style="normal" class="text-inner-tspan" font-weight="normal"> product</tspan><tspan font-style="normal" class="text-inner-tspan" font-weight="normal"> +</tspan><tspan font-style="normal" class="text-inner-tspan" font-weight="normal"> leadership</tspan></tspan></text></g></g></g><g class="node default warn" id="gee564787-476e-4c68-872e-e5748e17a689-light-flowchart-PostMortem-6" data-look="classic" transform="translate(738.2109375, 762.4781188964844)"><rect class="basic label-container" style="fill:#fff7ed !important;stroke:#c2410c !important" x="-120.8359375" y="-42.099998474121094" width="241.671875" height="84.19999694824219"></rect><g class="label" style="color:#7c2d12 !important" transform="translate(0, -27.099998474121094)"><rect></rect><g><rect class="background" style="stroke: none"></rect><text y="-10.1" style="fill:#7c2d12 !important"><tspan class="text-outer-tspan row" x="0" y="-0.1em" dy="1.1em"><tspan font-style="normal" class="text-inner-tspan" font-weight="normal">Mandatory</tspan><tspan font-style="normal" class="text-inner-tspan" font-weight="normal"> postmortem</tspan></tspan><tspan class="text-outer-tspan row" x="0" y="1em" dy="1.1em"><tspan font-style="normal" class="text-inner-tspan" font-weight="normal">within</tspan><tspan font-style="normal" class="text-inner-tspan" font-weight="normal"> 5</tspan><tspan font-style="normal" class="text-inner-tspan" font-weight="normal"> business</tspan><tspan font-style="normal" class="text-inner-tspan" font-weight="normal"> days</tspan></tspan><tspan class="text-outer-tspan row" x="0" y="2.1em" dy="1.1em"><tspan font-style="normal" class="text-inner-tspan" font-weight="normal">Action</tspan><tspan font-style="normal" class="text-inner-tspan" font-weight="normal"> items</tspan><tspan font-style="normal" class="text-inner-tspan" font-weight="normal"> with</tspan><tspan font-style="normal" class="text-inner-tspan" font-weight="normal"> owners</tspan></tspan></text></g></g></g><g class="node default warn" id="gee564787-476e-4c68-872e-e5748e17a689-light-flowchart-Escalate-7" data-look="classic" transform="translate(682, 1189.0218772888184)"><rect class="basic label-container" style="fill:#fff7ed !important;stroke:#c2410c !important" x="-118.84375" y="-59.70000076293945" width="237.6875" height="119.4000015258789"></rect><g class="label" style="color:#7c2d12 !important" transform="translate(0, -44.70000076293945)"><rect></rect><g><rect class="background" style="stroke: none"></rect><text y="-10.1" style="fill:#7c2d12 !important"><tspan class="text-outer-tspan row" x="0" y="-0.1em" dy="1.1em"><tspan font-style="normal" class="text-inner-tspan" font-weight="normal">Escalate</tspan><tspan font-style="normal" class="text-inner-tspan" font-weight="normal"> to</tspan><tspan font-style="normal" class="text-inner-tspan" font-weight="normal"> quarterly</tspan></tspan><tspan class="text-outer-tspan row" x="0" y="1em" dy="1.1em"><tspan font-style="normal" class="text-inner-tspan" font-weight="normal">planning</tspan></tspan><tspan class="text-outer-tspan row" x="0" y="2.1em" dy="1.1em"><tspan font-style="normal" class="text-inner-tspan" font-weight="normal">P0</tspan><tspan font-style="normal" class="text-inner-tspan" font-weight="normal"> reliability</tspan><tspan font-style="normal" class="text-inner-tspan" font-weight="normal"> investment</tspan></tspan><tspan class="text-outer-tspan row" x="0" y="3.2em" dy="1.1em"><tspan font-style="normal" class="text-inner-tspan" font-weight="normal">Product</tspan><tspan font-style="normal" class="text-inner-tspan" font-weight="normal"> +</tspan><tspan font-style="normal" class="text-inner-tspan" font-weight="normal"> eng</tspan><tspan font-style="normal" class="text-inner-tspan" font-weight="normal"> leadership</tspan></tspan><tspan class="text-outer-tspan row" x="0" y="4.300000000000001em" dy="1.1em"><tspan font-style="normal" class="text-inner-tspan" font-weight="normal">review</tspan></tspan></text></g></g></g><g class="node default halt" id="gee564787-476e-4c68-872e-e5748e17a689-light-flowchart-Exempt-8" data-look="classic" transform="translate(134.46875, 762.4781188964844)"><rect class="basic label-container" style="fill:#fef2f2 !important;stroke:#b91c1c !important" x="-126.46875" y="-42.099998474121094" width="252.9375" height="84.19999694824219"></rect><g class="label" style="color:#7f1d1d !important" transform="translate(0, -27.099998474121094)"><rect></rect><g><rect class="background" style="stroke: none"></rect><text y="-10.1" style="fill:#7f1d1d !important"><tspan class="text-outer-tspan row" x="0" y="-0.1em" dy="1.1em"><tspan font-style="normal" class="text-inner-tspan" font-weight="normal">May</tspan><tspan font-style="normal" class="text-inner-tspan" font-weight="normal"> exempt</tspan><tspan font-style="normal" class="text-inner-tspan" font-weight="normal"> from</tspan><tspan font-style="normal" class="text-inner-tspan" font-weight="normal"> freeze</tspan></tspan><tspan class="text-outer-tspan row" x="0" y="1em" dy="1.1em"><tspan font-style="normal" class="text-inner-tspan" font-weight="normal">(still</tspan><tspan font-style="normal" class="text-inner-tspan" font-weight="normal"> counts</tspan><tspan font-style="normal" class="text-inner-tspan" font-weight="normal"> toward</tspan><tspan font-style="normal" class="text-inner-tspan" font-weight="normal"> SLO)</tspan></tspan><tspan class="text-outer-tspan row" x="0" y="2.1em" dy="1.1em"><tspan font-style="normal" class="text-inner-tspan" font-weight="normal">Document</tspan><tspan font-style="normal" class="text-inner-tspan" font-weight="normal"> for</tspan><tspan font-style="normal" class="text-inner-tspan" font-weight="normal"> stakeholders</tspan></tspan></text></g></g></g><g class="node default ok" id="gee564787-476e-4c68-872e-e5748e17a689-light-flowchart-Normal-9" data-look="classic" transform="translate(960.921875, 1189.0218772888184)"><rect class="basic label-container" style="fill:#ecfdf5 !important;stroke:#047857 !important" x="-110.078125" y="-42.099998474121094" width="220.15625" height="84.19999694824219"></rect><g class="label" style="color:#064e3b !important" transform="translate(0, -27.099998474121094)"><rect></rect><g><rect class="background" style="stroke: none"></rect><text y="-10.1" style="fill:#064e3b !important"><tspan class="text-outer-tspan row" x="0" y="-0.1em" dy="1.1em"><tspan font-style="normal" class="text-inner-tspan" font-weight="normal">Normal</tspan><tspan font-style="normal" class="text-inner-tspan" font-weight="normal"> operation</tspan></tspan><tspan class="text-outer-tspan row" x="0" y="1em" dy="1.1em"><tspan font-style="normal" class="text-inner-tspan" font-weight="normal">Ship</tspan><tspan font-style="normal" class="text-inner-tspan" font-weight="normal"> features</tspan></tspan><tspan class="text-outer-tspan row" x="0" y="2.1em" dy="1.1em"><tspan font-style="normal" class="text-inner-tspan" font-weight="normal">Continue</tspan><tspan font-style="normal" class="text-inner-tspan" font-weight="normal"> deployments</tspan></tspan></text></g></g></g></g></g></g><defs><filter id="gee564787-476e-4c68-872e-e5748e17a689-light-drop-shadow" height="130%" width="130%"><feDropShadow dx="4" dy="4" stdDeviation="0" flood-opacity="0.06" flood-color="#000000"></feDropShadow></filter></defs><defs><filter id="gee564787-476e-4c68-872e-e5748e17a689-light-drop-shadow-small" height="150%" width="150%"><feDropShadow dx="2" dy="2" stdDeviation="0" flood-opacity="0.06" flood-color="#000000"></feDropShadow></filter></defs></svg>