<svg id="g33eeac9a-f89d-4e31-9b7a-1f89f5dc8c2d-dark" width="100%" xmlns="http://www.w3.org/2000/svg" xmlns:xlink="http://www.w3.org/1999/xlink" class="flowchart" style="max-width: 462.8984375px;" viewBox="0 0 462.8984375 1542.2874755859375" role="graphics-document document" aria-roledescription="flowchart-v2"><style>#g33eeac9a-f89d-4e31-9b7a-1f89f5dc8c2d-dark{font-family:"trebuchet ms",verdana,arial,sans-serif;font-size:16px;fill:#e5e5e5;}@keyframes edge-animation-frame{from{stroke-dashoffset:0;}}@keyframes dash{to{stroke-dashoffset:0;}}#g33eeac9a-f89d-4e31-9b7a-1f89f5dc8c2d-dark .edge-animation-slow{stroke-dasharray:9,5!important;stroke-dashoffset:900;animation:dash 50s linear infinite;stroke-linecap:round;}#g33eeac9a-f89d-4e31-9b7a-1f89f5dc8c2d-dark .edge-animation-fast{stroke-dasharray:9,5!important;stroke-dashoffset:900;animation:dash 20s linear infinite;stroke-linecap:round;}#g33eeac9a-f89d-4e31-9b7a-1f89f5dc8c2d-dark .error-icon{fill:#252525;}#g33eeac9a-f89d-4e31-9b7a-1f89f5dc8c2d-dark .error-text{fill:#cccccc;stroke:#cccccc;}#g33eeac9a-f89d-4e31-9b7a-1f89f5dc8c2d-dark .edge-thickness-normal{stroke-width:1px;}#g33eeac9a-f89d-4e31-9b7a-1f89f5dc8c2d-dark .edge-thickness-thick{stroke-width:3.5px;}#g33eeac9a-f89d-4e31-9b7a-1f89f5dc8c2d-dark .edge-pattern-solid{stroke-dasharray:0;}#g33eeac9a-f89d-4e31-9b7a-1f89f5dc8c2d-dark .edge-thickness-invisible{stroke-width:0;fill:none;}#g33eeac9a-f89d-4e31-9b7a-1f89f5dc8c2d-dark .edge-pattern-dashed{stroke-dasharray:3;}#g33eeac9a-f89d-4e31-9b7a-1f89f5dc8c2d-dark .edge-pattern-dotted{stroke-dasharray:2;}#g33eeac9a-f89d-4e31-9b7a-1f89f5dc8c2d-dark .marker{fill:#cccccc;stroke:#cccccc;}#g33eeac9a-f89d-4e31-9b7a-1f89f5dc8c2d-dark .marker.cross{stroke:#cccccc;}#g33eeac9a-f89d-4e31-9b7a-1f89f5dc8c2d-dark svg{font-family:"trebuchet ms",verdana,arial,sans-serif;font-size:16px;}#g33eeac9a-f89d-4e31-9b7a-1f89f5dc8c2d-dark p{margin:0;}#g33eeac9a-f89d-4e31-9b7a-1f89f5dc8c2d-dark .label{font-family:"trebuchet ms",verdana,arial,sans-serif;color:#e5e5e5;}#g33eeac9a-f89d-4e31-9b7a-1f89f5dc8c2d-dark .cluster-label text{fill:#e5e5e5;}#g33eeac9a-f89d-4e31-9b7a-1f89f5dc8c2d-dark .cluster-label span{color:#e5e5e5;}#g33eeac9a-f89d-4e31-9b7a-1f89f5dc8c2d-dark .cluster-label span p{background-color:transparent;}#g33eeac9a-f89d-4e31-9b7a-1f89f5dc8c2d-dark .label text,#g33eeac9a-f89d-4e31-9b7a-1f89f5dc8c2d-dark span{fill:#e5e5e5;color:#e5e5e5;}#g33eeac9a-f89d-4e31-9b7a-1f89f5dc8c2d-dark .node rect,#g33eeac9a-f89d-4e31-9b7a-1f89f5dc8c2d-dark .node circle,#g33eeac9a-f89d-4e31-9b7a-1f89f5dc8c2d-dark .node ellipse,#g33eeac9a-f89d-4e31-9b7a-1f89f5dc8c2d-dark .node polygon,#g33eeac9a-f89d-4e31-9b7a-1f89f5dc8c2d-dark .node path{fill:#2d2d2d;stroke:#555555;stroke-width:1px;}#g33eeac9a-f89d-4e31-9b7a-1f89f5dc8c2d-dark .rough-node .label text,#g33eeac9a-f89d-4e31-9b7a-1f89f5dc8c2d-dark .node .label text,#g33eeac9a-f89d-4e31-9b7a-1f89f5dc8c2d-dark .image-shape .label,#g33eeac9a-f89d-4e31-9b7a-1f89f5dc8c2d-dark .icon-shape .label{text-anchor:middle;}#g33eeac9a-f89d-4e31-9b7a-1f89f5dc8c2d-dark .node .katex path{fill:#000;stroke:#000;stroke-width:1px;}#g33eeac9a-f89d-4e31-9b7a-1f89f5dc8c2d-dark .rough-node .label,#g33eeac9a-f89d-4e31-9b7a-1f89f5dc8c2d-dark .node .label,#g33eeac9a-f89d-4e31-9b7a-1f89f5dc8c2d-dark .image-shape .label,#g33eeac9a-f89d-4e31-9b7a-1f89f5dc8c2d-dark .icon-shape .label{text-align:center;}#g33eeac9a-f89d-4e31-9b7a-1f89f5dc8c2d-dark .node.clickable{cursor:pointer;}#g33eeac9a-f89d-4e31-9b7a-1f89f5dc8c2d-dark .root .anchor path{fill:#cccccc!important;stroke-width:0;stroke:#cccccc;}#g33eeac9a-f89d-4e31-9b7a-1f89f5dc8c2d-dark .arrowheadPath{fill:#cccccc;}#g33eeac9a-f89d-4e31-9b7a-1f89f5dc8c2d-dark .edgePath .path{stroke:#cccccc;stroke-width:1px;}#g33eeac9a-f89d-4e31-9b7a-1f89f5dc8c2d-dark .flowchart-link{stroke:#cccccc;fill:none;}#g33eeac9a-f89d-4e31-9b7a-1f89f5dc8c2d-dark .edgeLabel{background-color:#1e1e1e;text-align:center;}#g33eeac9a-f89d-4e31-9b7a-1f89f5dc8c2d-dark .edgeLabel p{background-color:#1e1e1e;}#g33eeac9a-f89d-4e31-9b7a-1f89f5dc8c2d-dark .edgeLabel rect{opacity:0.5;background-color:#1e1e1e;fill:#1e1e1e;}#g33eeac9a-f89d-4e31-9b7a-1f89f5dc8c2d-dark .labelBkg{background-color:rgba(30, 30, 30, 0.5);}#g33eeac9a-f89d-4e31-9b7a-1f89f5dc8c2d-dark .cluster rect{fill:#1e1e1e;stroke:#555555;stroke-width:1px;}#g33eeac9a-f89d-4e31-9b7a-1f89f5dc8c2d-dark .cluster text{fill:#e5e5e5;}#g33eeac9a-f89d-4e31-9b7a-1f89f5dc8c2d-dark .cluster span{color:#e5e5e5;}#g33eeac9a-f89d-4e31-9b7a-1f89f5dc8c2d-dark div.mermaidTooltip{position:absolute;text-align:center;max-width:200px;padding:2px;font-family:"trebuchet ms",verdana,arial,sans-serif;font-size:12px;background:#252525;border:1px solid #555555;border-radius:2px;pointer-events:none;z-index:100;}#g33eeac9a-f89d-4e31-9b7a-1f89f5dc8c2d-dark .flowchartTitleText{text-anchor:middle;font-size:18px;fill:#e5e5e5;}#g33eeac9a-f89d-4e31-9b7a-1f89f5dc8c2d-dark rect.text{fill:none;stroke-width:0;}#g33eeac9a-f89d-4e31-9b7a-1f89f5dc8c2d-dark .icon-shape,#g33eeac9a-f89d-4e31-9b7a-1f89f5dc8c2d-dark .image-shape{background-color:#1e1e1e;text-align:center;}#g33eeac9a-f89d-4e31-9b7a-1f89f5dc8c2d-dark .icon-shape p,#g33eeac9a-f89d-4e31-9b7a-1f89f5dc8c2d-dark .image-shape p{background-color:#1e1e1e;padding:2px;}#g33eeac9a-f89d-4e31-9b7a-1f89f5dc8c2d-dark .icon-shape .label rect,#g33eeac9a-f89d-4e31-9b7a-1f89f5dc8c2d-dark .image-shape .label rect{opacity:0.5;background-color:#1e1e1e;fill:#1e1e1e;}#g33eeac9a-f89d-4e31-9b7a-1f89f5dc8c2d-dark .label-icon{display:inline-block;height:1em;overflow:visible;vertical-align:-0.125em;}#g33eeac9a-f89d-4e31-9b7a-1f89f5dc8c2d-dark .node .label-icon path{fill:currentColor;stroke:revert;stroke-width:revert;}#g33eeac9a-f89d-4e31-9b7a-1f89f5dc8c2d-dark .node .neo-node{stroke:#555555;}#g33eeac9a-f89d-4e31-9b7a-1f89f5dc8c2d-dark [data-look="neo"].node rect,#g33eeac9a-f89d-4e31-9b7a-1f89f5dc8c2d-dark [data-look="neo"].cluster rect,#g33eeac9a-f89d-4e31-9b7a-1f89f5dc8c2d-dark [data-look="neo"].node polygon{stroke:url(#g33eeac9a-f89d-4e31-9b7a-1f89f5dc8c2d-dark-gradient);filter:drop-shadow( 1px 2px 2px rgba(185,185,185,1));}#g33eeac9a-f89d-4e31-9b7a-1f89f5dc8c2d-dark [data-look="neo"].node path{stroke:url(#g33eeac9a-f89d-4e31-9b7a-1f89f5dc8c2d-dark-gradient);stroke-width:1px;}#g33eeac9a-f89d-4e31-9b7a-1f89f5dc8c2d-dark [data-look="neo"].node .outer-path{filter:drop-shadow( 1px 2px 2px rgba(185,185,185,1));}#g33eeac9a-f89d-4e31-9b7a-1f89f5dc8c2d-dark [data-look="neo"].node .neo-line path{stroke:#555555;filter:none;}#g33eeac9a-f89d-4e31-9b7a-1f89f5dc8c2d-dark [data-look="neo"].node circle{stroke:url(#g33eeac9a-f89d-4e31-9b7a-1f89f5dc8c2d-dark-gradient);filter:drop-shadow( 1px 2px 2px rgba(185,185,185,1));}#g33eeac9a-f89d-4e31-9b7a-1f89f5dc8c2d-dark [data-look="neo"].node circle .state-start{fill:#000000;}#g33eeac9a-f89d-4e31-9b7a-1f89f5dc8c2d-dark [data-look="neo"].icon-shape .icon{fill:url(#g33eeac9a-f89d-4e31-9b7a-1f89f5dc8c2d-dark-gradient);filter:drop-shadow( 1px 2px 2px rgba(185,185,185,1));}#g33eeac9a-f89d-4e31-9b7a-1f89f5dc8c2d-dark [data-look="neo"].icon-shape .icon-neo path{stroke:url(#g33eeac9a-f89d-4e31-9b7a-1f89f5dc8c2d-dark-gradient);filter:drop-shadow( 1px 2px 2px rgba(185,185,185,1));}#g33eeac9a-f89d-4e31-9b7a-1f89f5dc8c2d-dark :root{--mermaid-font-family:"trebuchet ms",verdana,arial,sans-serif;}#g33eeac9a-f89d-4e31-9b7a-1f89f5dc8c2d-dark .cb rect{fill:#2E5A88!important;stroke:#1F4870!important;color:#ffffff!important;}#g33eeac9a-f89d-4e31-9b7a-1f89f5dc8c2d-dark .cb polygon{fill:#2E5A88!important;stroke:#1F4870!important;color:#ffffff!important;}#g33eeac9a-f89d-4e31-9b7a-1f89f5dc8c2d-dark .cb ellipse{fill:#2E5A88!important;stroke:#1F4870!important;color:#ffffff!important;}#g33eeac9a-f89d-4e31-9b7a-1f89f5dc8c2d-dark .cb circle{fill:#2E5A88!important;stroke:#1F4870!important;color:#ffffff!important;}#g33eeac9a-f89d-4e31-9b7a-1f89f5dc8c2d-dark .cb path{fill:#2E5A88!important;stroke:#1F4870!important;color:#ffffff!important;}#g33eeac9a-f89d-4e31-9b7a-1f89f5dc8c2d-dark .cb tspan{fill:#ffffff!important;}#g33eeac9a-f89d-4e31-9b7a-1f89f5dc8c2d-dark .warn rect{fill:#B43A3A!important;stroke:#8E2828!important;color:#ffffff!important;}#g33eeac9a-f89d-4e31-9b7a-1f89f5dc8c2d-dark .warn polygon{fill:#B43A3A!important;stroke:#8E2828!important;color:#ffffff!important;}#g33eeac9a-f89d-4e31-9b7a-1f89f5dc8c2d-dark .warn ellipse{fill:#B43A3A!important;stroke:#8E2828!important;color:#ffffff!important;}#g33eeac9a-f89d-4e31-9b7a-1f89f5dc8c2d-dark .warn circle{fill:#B43A3A!important;stroke:#8E2828!important;color:#ffffff!important;}#g33eeac9a-f89d-4e31-9b7a-1f89f5dc8c2d-dark .warn path{fill:#B43A3A!important;stroke:#8E2828!important;color:#ffffff!important;}#g33eeac9a-f89d-4e31-9b7a-1f89f5dc8c2d-dark .warn tspan{fill:#ffffff!important;}</style><g><marker id="g33eeac9a-f89d-4e31-9b7a-1f89f5dc8c2d-dark_flowchart-v2-pointEnd" class="marker flowchart-v2" viewBox="0 0 10 10" refX="5" refY="5" markerUnits="userSpaceOnUse" markerWidth="8" markerHeight="8" orient="auto"><path d="M 0 0 L 10 5 L 0 10 z" class="arrowMarkerPath" style="stroke-width: 1; stroke-dasharray: 1, 0;"></path></marker><marker id="g33eeac9a-f89d-4e31-9b7a-1f89f5dc8c2d-dark_flowchart-v2-pointStart" class="marker flowchart-v2" viewBox="0 0 10 10" refX="4.5" refY="5" markerUnits="userSpaceOnUse" markerWidth="8" markerHeight="8" orient="auto"><path d="M 0 5 L 10 10 L 10 0 z" class="arrowMarkerPath" style="stroke-width: 1; stroke-dasharray: 1, 0;"></path></marker><marker id="g33eeac9a-f89d-4e31-9b7a-1f89f5dc8c2d-dark_flowchart-v2-pointEnd-margin" class="marker flowchart-v2" viewBox="0 0 11.5 14" refX="11.5" refY="7" markerUnits="userSpaceOnUse" markerWidth="10.5" markerHeight="14" orient="auto"><path d="M 0 0 L 11.5 7 L 0 14 z" class="arrowMarkerPath" style="stroke-width: 0; stroke-dasharray: 1, 0;"></path></marker><marker id="g33eeac9a-f89d-4e31-9b7a-1f89f5dc8c2d-dark_flowchart-v2-pointStart-margin" class="marker flowchart-v2" viewBox="0 0 11.5 14" refX="1" refY="7" markerUnits="userSpaceOnUse" markerWidth="11.5" markerHeight="14" orient="auto"><polygon points="0,7 11.5,14 11.5,0" class="arrowMarkerPath" style="stroke-width: 0; stroke-dasharray: 1, 0;"></polygon></marker><marker id="g33eeac9a-f89d-4e31-9b7a-1f89f5dc8c2d-dark_flowchart-v2-circleEnd" class="marker flowchart-v2" viewBox="0 0 10 10" refX="11" refY="5" markerUnits="userSpaceOnUse" markerWidth="11" markerHeight="11" orient="auto"><circle cx="5" cy="5" r="5" class="arrowMarkerPath" style="stroke-width: 1; stroke-dasharray: 1, 0;"></circle></marker><marker id="g33eeac9a-f89d-4e31-9b7a-1f89f5dc8c2d-dark_flowchart-v2-circleStart" class="marker flowchart-v2" viewBox="0 0 10 10" refX="-1" refY="5" markerUnits="userSpaceOnUse" markerWidth="11" markerHeight="11" orient="auto"><circle cx="5" cy="5" r="5" class="arrowMarkerPath" style="stroke-width: 1; stroke-dasharray: 1, 0;"></circle></marker><marker id="g33eeac9a-f89d-4e31-9b7a-1f89f5dc8c2d-dark_flowchart-v2-circleEnd-margin" class="marker flowchart-v2" viewBox="0 0 10 10" refY="5" refX="12.25" markerUnits="userSpaceOnUse" markerWidth="14" markerHeight="14" orient="auto"><circle cx="5" cy="5" r="5" class="arrowMarkerPath" style="stroke-width: 0; stroke-dasharray: 1, 0;"></circle></marker><marker id="g33eeac9a-f89d-4e31-9b7a-1f89f5dc8c2d-dark_flowchart-v2-circleStart-margin" class="marker flowchart-v2" viewBox="0 0 10 10" refX="-2" refY="5" markerUnits="userSpaceOnUse" markerWidth="14" markerHeight="14" orient="auto"><circle cx="5" cy="5" r="5" class="arrowMarkerPath" style="stroke-width: 0; stroke-dasharray: 1, 0;"></circle></marker><marker id="g33eeac9a-f89d-4e31-9b7a-1f89f5dc8c2d-dark_flowchart-v2-crossEnd" class="marker cross flowchart-v2" viewBox="0 0 11 11" refX="12" refY="5.2" markerUnits="userSpaceOnUse" markerWidth="11" markerHeight="11" orient="auto"><path d="M 1,1 l 9,9 M 10,1 l -9,9" class="arrowMarkerPath" style="stroke-width: 2; stroke-dasharray: 1, 0;"></path></marker><marker id="g33eeac9a-f89d-4e31-9b7a-1f89f5dc8c2d-dark_flowchart-v2-crossStart" class="marker cross flowchart-v2" viewBox="0 0 11 11" refX="-1" refY="5.2" markerUnits="userSpaceOnUse" markerWidth="11" markerHeight="11" orient="auto"><path d="M 1,1 l 9,9 M 10,1 l -9,9" class="arrowMarkerPath" style="stroke-width: 2; stroke-dasharray: 1, 0;"></path></marker><marker id="g33eeac9a-f89d-4e31-9b7a-1f89f5dc8c2d-dark_flowchart-v2-crossEnd-margin" class="marker cross flowchart-v2" viewBox="0 0 15 15" refX="17.7" refY="7.5" markerUnits="userSpaceOnUse" markerWidth="12" markerHeight="12" orient="auto"><path d="M 1,1 L 14,14 M 1,14 L 14,1" class="arrowMarkerPath" style="stroke-width: 2.5;"></path></marker><marker id="g33eeac9a-f89d-4e31-9b7a-1f89f5dc8c2d-dark_flowchart-v2-crossStart-margin" class="marker cross flowchart-v2" viewBox="0 0 15 15" refX="-3.5" refY="7.5" markerUnits="userSpaceOnUse" markerWidth="12" markerHeight="12" orient="auto"><path d="M 1,1 L 14,14 M 1,14 L 14,1" class="arrowMarkerPath" style="stroke-width: 2.5; stroke-dasharray: 1, 0;"></path></marker><g class="root"><g class="clusters"></g><g class="edgePaths"><path d="M167.945,42.5L167.862,46.583C167.779,50.667,167.612,58.833,167.529,66.417C167.445,74,167.445,81,167.445,84.5L167.445,88" id="g33eeac9a-f89d-4e31-9b7a-1f89f5dc8c2d-dark-L_start_rs_0" class="edge-thickness-normal edge-pattern-solid edge-thickness-normal edge-pattern-solid flowchart-link" style=";" data-edge="true" data-et="edge" data-id="L_start_rs_0" data-points="W3sieCI6MTY3Ljk0NTMxMjUsInkiOjQyLjV9LHsieCI6MTY3LjQ0NTMxMjUsInkiOjY3fSx7IngiOjE2Ny40NDUzMTI1LCJ5Ijo5Mn1d" data-look="classic" marker-end="url(#g33eeac9a-f89d-4e31-9b7a-1f89f5dc8c2d-dark_flowchart-v2-pointEnd)"></path><path d="M167.445,141L167.445,145.167C167.445,149.333,167.445,157.667,167.445,165.333C167.445,173,167.445,180,167.445,183.5L167.445,187" id="g33eeac9a-f89d-4e31-9b7a-1f89f5dc8c2d-dark-L_rs_ul_0" class="edge-thickness-normal edge-pattern-solid edge-thickness-normal edge-pattern-solid flowchart-link" style=";" data-edge="true" data-et="edge" data-id="L_rs_ul_0" data-points="W3sieCI6MTY3LjQ0NTMxMjUsInkiOjE0MX0seyJ4IjoxNjcuNDQ1MzEyNSwieSI6MTY2fSx7IngiOjE2Ny40NDUzMTI1LCJ5IjoxOTF9XQ==" data-look="classic" marker-end="url(#g33eeac9a-f89d-4e31-9b7a-1f89f5dc8c2d-dark_flowchart-v2-pointEnd)"></path><path d="M167.445,240L167.445,244.167C167.445,248.333,167.445,256.667,167.445,264.333C167.445,272,167.445,279,167.445,282.5L167.445,286" id="g33eeac9a-f89d-4e31-9b7a-1f89f5dc8c2d-dark-L_ul_gather_0" class="edge-thickness-normal edge-pattern-solid edge-thickness-normal edge-pattern-solid flowchart-link" style=";" data-edge="true" data-et="edge" data-id="L_ul_gather_0" data-points="W3sieCI6MTY3LjQ0NTMxMjUsInkiOjI0MH0seyJ4IjoxNjcuNDQ1MzEyNSwieSI6MjY1fSx7IngiOjE2Ny40NDUzMTI1LCJ5IjoyOTB9XQ==" data-look="classic" marker-end="url(#g33eeac9a-f89d-4e31-9b7a-1f89f5dc8c2d-dark_flowchart-v2-pointEnd)"></path><path d="M167.445,339L167.445,343.167C167.445,347.333,167.445,355.667,167.445,363.333C167.445,371,167.445,378,167.445,381.5L167.445,385" id="g33eeac9a-f89d-4e31-9b7a-1f89f5dc8c2d-dark-L_gather_any_0" class="edge-thickness-normal edge-pattern-solid edge-thickness-normal edge-pattern-solid flowchart-link" style=";" data-edge="true" data-et="edge" data-id="L_gather_any_0" data-points="W3sieCI6MTY3LjQ0NTMxMjUsInkiOjMzOX0seyJ4IjoxNjcuNDQ1MzEyNSwieSI6MzY0fSx7IngiOjE2Ny40NDUzMTI1LCJ5IjozODl9XQ==" data-look="classic" marker-end="url(#g33eeac9a-f89d-4e31-9b7a-1f89f5dc8c2d-dark_flowchart-v2-pointEnd)"></path><path d="M136.159,456.386L116.577,467.683C96.994,478.981,57.829,501.577,38.247,525.974C18.664,550.372,18.664,576.572,18.664,600.855C18.664,625.139,18.664,647.505,18.664,666.939C18.664,686.372,18.664,702.872,18.664,721.289C18.664,739.705,18.664,760.039,18.664,780.372C18.664,800.705,18.664,821.039,18.664,841.372C18.664,861.705,18.664,882.039,18.664,905.929C18.664,929.82,18.664,957.268,18.664,984.716C18.664,1012.164,18.664,1039.611,18.664,1071.029C18.664,1102.447,18.664,1137.835,18.664,1173.223C18.664,1208.611,18.664,1243.999,18.664,1277.727C18.664,1311.454,18.664,1343.521,18.664,1373.671C18.664,1403.821,18.664,1432.054,25.633,1450.015C32.601,1467.977,46.539,1475.666,53.508,1479.511L60.476,1483.355" id="g33eeac9a-f89d-4e31-9b7a-1f89f5dc8c2d-dark-L_any_paint_0" class="edge-thickness-normal edge-pattern-solid edge-thickness-normal edge-pattern-solid flowchart-link" style=";" data-edge="true" data-et="edge" data-id="L_any_paint_0" data-points="W3sieCI6MTM2LjE1OTE4ODM2OTkzNDQsInkiOjQ1Ni4zODU3NTA4Njk5MzQ0fSx7IngiOjE4LjY2NDA2MjUsInkiOjUyNC4xNzE4NzV9LHsieCI6MTguNjY0MDYyNSwieSI6NjAyLjc3MTg3MzQ3NDEyMTF9LHsieCI6MTguNjY0MDYyNSwieSI6NjY5Ljg3MTg3MTk0ODI0MjJ9LHsieCI6MTguNjY0MDYyNSwieSI6NzE5LjM3MTg3MTk0ODI0MjJ9LHsieCI6MTguNjY0MDYyNSwieSI6NzgwLjM3MTg3MTk0ODI0MjJ9LHsieCI6MTguNjY0MDYyNSwieSI6ODQxLjM3MTg3MTk0ODI0MjJ9LHsieCI6MTguNjY0MDYyNSwieSI6OTAyLjM3MTg3MTk0ODI0MjJ9LHsieCI6MTguNjY0MDYyNSwieSI6OTg0LjcxNTYyMTk0ODI0MjJ9LHsieCI6MTguNjY0MDYyNSwieSI6MTA2Ny4wNTkzNzE5NDgyNDIyfSx7IngiOjE4LjY2NDA2MjUsInkiOjExNzMuMjIzNDM0NDQ4MjQyMn0seyJ4IjoxOC42NjQwNjI1LCJ5IjoxMjc5LjM4NzQ5Njk0ODI0MjJ9LHsieCI6MTguNjY0MDYyNSwieSI6MTM3NS41ODc0OTc3MTExODE2fSx7IngiOjE4LjY2NDA2MjUsInkiOjE0NjAuMjg3NDk4NDc0MTIxfSx7IngiOjYzLjk3ODUzNTM1MzUzNTM2LCJ5IjoxNDg1LjI4NzQ5ODQ3NDEyMX1d" data-look="classic" marker-end="url(#g33eeac9a-f89d-4e31-9b7a-1f89f5dc8c2d-dark_flowchart-v2-pointEnd)"></path><path d="M190.351,464.766L198.932,474.667C207.513,484.568,224.674,504.37,233.255,519.688C241.836,535.005,241.836,545.839,241.836,551.255L241.836,556.672" id="g33eeac9a-f89d-4e31-9b7a-1f89f5dc8c2d-dark-L_any_bcast_0" class="edge-thickness-normal edge-pattern-solid edge-thickness-normal edge-pattern-solid flowchart-link" style=";" data-edge="true" data-et="edge" data-id="L_any_bcast_0" data-points="W3sieCI6MTkwLjM1MTE5NzU2ODc1MDMsInkiOjQ2NC43NjU5ODk5MzEyNDk3fSx7IngiOjI0MS44MzU5Mzc1LCJ5Ijo1MjQuMTcxODc1fSx7IngiOjI0MS44MzU5Mzc1LCJ5Ijo1NjAuNjcxODc1fV0=" data-look="classic" marker-end="url(#g33eeac9a-f89d-4e31-9b7a-1f89f5dc8c2d-dark_flowchart-v2-pointEnd)"></path><path d="M195.162,644.872L190.542,649.039C185.923,653.205,176.684,661.539,172.065,669.205C167.445,676.872,167.445,683.872,167.445,687.372L167.445,690.872" id="g33eeac9a-f89d-4e31-9b7a-1f89f5dc8c2d-dark-L_bcast_rs2_0" class="edge-thickness-normal edge-pattern-solid edge-thickness-normal edge-pattern-solid flowchart-link" style=";" data-edge="true" data-et="edge" data-id="L_bcast_rs2_0" data-points="W3sieCI6MTk1LjE2MTY0MTM3MTcxMDMyLCJ5Ijo2NDQuODcxODcxOTQ4MjQyMn0seyJ4IjoxNjcuNDQ1MzEyNSwieSI6NjY5Ljg3MTg3MTk0ODI0MjJ9LHsieCI6MTY3LjQ0NTMxMjUsInkiOjY5NC44NzE4NzE5NDgyNDIyfV0=" data-look="classic" marker-end="url(#g33eeac9a-f89d-4e31-9b7a-1f89f5dc8c2d-dark_flowchart-v2-pointEnd)"></path><path d="M167.445,743.872L167.445,749.955C167.445,756.039,167.445,768.205,167.445,779.705C167.445,791.205,167.445,802.039,167.445,807.455L167.445,812.872" id="g33eeac9a-f89d-4e31-9b7a-1f89f5dc8c2d-dark-L_rs2_gather2_0" class="edge-thickness-normal edge-pattern-solid edge-thickness-normal edge-pattern-solid flowchart-link" style=";" data-edge="true" data-et="edge" data-id="L_rs2_gather2_0" data-points="W3sieCI6MTY3LjQ0NTMxMjUsInkiOjc0My44NzE4NzE5NDgyNDIyfSx7IngiOjE2Ny40NDUzMTI1LCJ5Ijo3ODAuMzcxODcxOTQ4MjQyMn0seyJ4IjoxNjcuNDQ1MzEyNSwieSI6ODE2Ljg3MTg3MTk0ODI0MjJ9XQ==" data-look="classic" marker-end="url(#g33eeac9a-f89d-4e31-9b7a-1f89f5dc8c2d-dark_flowchart-v2-pointEnd)"></path><path d="M167.445,865.872L167.445,871.955C167.445,878.039,167.445,890.205,175.77,905.504C184.095,920.802,200.746,939.232,209.071,948.447L217.396,957.662" id="g33eeac9a-f89d-4e31-9b7a-1f89f5dc8c2d-dark-L_gather2_any2_0" class="edge-thickness-normal edge-pattern-solid edge-thickness-normal edge-pattern-solid flowchart-link" style=";" data-edge="true" data-et="edge" data-id="L_gather2_any2_0" data-points="W3sieCI6MTY3LjQ0NTMxMjUsInkiOjg2NS44NzE4NzE5NDgyNDIyfSx7IngiOjE2Ny40NDUzMTI1LCJ5Ijo5MDIuMzcxODcxOTQ4MjQyMn0seyJ4IjoyMjAuMDc3MTgwMjcyNDA1NTQsInkiOjk2MC42MzA2MjkxNzU4MzY2fV0=" data-look="classic" marker-end="url(#g33eeac9a-f89d-4e31-9b7a-1f89f5dc8c2d-dark_flowchart-v2-pointEnd)"></path><path d="M263.595,960.631L272.367,950.921C281.139,941.211,298.683,921.791,307.455,901.915C316.227,882.039,316.227,861.705,316.227,841.372C316.227,821.039,316.227,800.705,316.227,780.372C316.227,760.039,316.227,739.705,316.227,721.289C316.227,702.872,316.227,686.372,312.102,674.402C307.978,662.432,299.729,654.991,295.605,651.271L291.48,647.551" id="g33eeac9a-f89d-4e31-9b7a-1f89f5dc8c2d-dark-L_any2_bcast_0" class="edge-thickness-normal edge-pattern-solid edge-thickness-normal edge-pattern-solid flowchart-link" style=";" data-edge="true" data-et="edge" data-id="L_any2_bcast_0" data-points="W3sieCI6MjYzLjU5NDY5NDcyNzU5NDQ2LCJ5Ijo5NjAuNjMwNjI5MTc1ODM2Nn0seyJ4IjozMTYuMjI2NTYyNSwieSI6OTAyLjM3MTg3MTk0ODI0MjJ9LHsieCI6MzE2LjIyNjU2MjUsInkiOjg0MS4zNzE4NzE5NDgyNDIyfSx7IngiOjMxNi4yMjY1NjI1LCJ5Ijo3ODAuMzcxODcxOTQ4MjQyMn0seyJ4IjozMTYuMjI2NTYyNSwieSI6NzE5LjM3MTg3MTk0ODI0MjJ9LHsieCI6MzE2LjIyNjU2MjUsInkiOjY2OS44NzE4NzE5NDgyNDIyfSx7IngiOjI4OC41MTAyMzM2MjgyODk3LCJ5Ijo2NDQuODcxODcxOTQ4MjQyMn1d" data-look="classic" marker-end="url(#g33eeac9a-f89d-4e31-9b7a-1f89f5dc8c2d-dark_flowchart-v2-pointEnd)"></path><path d="M241.836,1030.559L241.836,1036.643C241.836,1042.726,241.836,1054.893,241.836,1066.393C241.836,1077.893,241.836,1088.726,241.836,1094.143L241.836,1099.559" id="g33eeac9a-f89d-4e31-9b7a-1f89f5dc8c2d-dark-L_any2_err_0" class="edge-thickness-normal edge-pattern-solid edge-thickness-normal edge-pattern-solid flowchart-link" style=";" data-edge="true" data-et="edge" data-id="L_any2_err_0" data-points="W3sieCI6MjQxLjgzNTkzNzUsInkiOjEwMzAuNTU5MzcxOTQ4MjQyMn0seyJ4IjoyNDEuODM1OTM3NSwieSI6MTA2Ny4wNTkzNzE5NDgyNDIyfSx7IngiOjI0MS44MzU5Mzc1LCJ5IjoxMTAzLjU1OTM3MTk0ODI0MjJ9XQ==" data-look="classic" marker-end="url(#g33eeac9a-f89d-4e31-9b7a-1f89f5dc8c2d-dark_flowchart-v2-pointEnd)"></path><path d="M273.061,1211.662L282.231,1222.95C291.4,1234.237,309.739,1256.812,318.909,1273.517C328.078,1290.221,328.078,1301.054,328.078,1306.471L328.078,1311.887" id="g33eeac9a-f89d-4e31-9b7a-1f89f5dc8c2d-dark-L_err_loop_0" class="edge-thickness-normal edge-pattern-solid edge-thickness-normal edge-pattern-solid flowchart-link" style=";" data-edge="true" data-et="edge" data-id="L_err_loop_0" data-points="W3sieCI6MjczLjA2MTQzNjM2MDU0NDg2LCJ5IjoxMjExLjY2MTk5ODA4NzY5NzR9LHsieCI6MzI4LjA3ODEyNSwieSI6MTI3OS4zODc0OTY5NDgyNDIyfSx7IngiOjMyOC4wNzgxMjUsInkiOjEzMTUuODg3NDk2OTQ4MjQyMn1d" data-look="classic" marker-end="url(#g33eeac9a-f89d-4e31-9b7a-1f89f5dc8c2d-dark_flowchart-v2-pointEnd)"></path><path d="M203.038,1204.089L187.262,1216.639C171.487,1229.189,139.937,1254.288,124.162,1282.871C108.387,1311.454,108.387,1343.521,108.387,1373.671C108.387,1403.821,108.387,1432.054,108.387,1449.671C108.387,1467.287,108.387,1474.287,108.387,1477.787L108.387,1481.287" id="g33eeac9a-f89d-4e31-9b7a-1f89f5dc8c2d-dark-L_err_paint_0" class="edge-thickness-normal edge-pattern-solid edge-thickness-normal edge-pattern-solid flowchart-link" style=";" data-edge="true" data-et="edge" data-id="L_err_paint_0" data-points="W3sieCI6MjAzLjAzNzUyNTg3OTkxNzE4LCJ5IjoxMjA0LjA4OTA4NTMyODE1OTR9LHsieCI6MTA4LjM4NjcxODc1LCJ5IjoxMjc5LjM4NzQ5Njk0ODI0MjJ9LHsieCI6MTA4LjM4NjcxODc1LCJ5IjoxMzc1LjU4NzQ5NzcxMTE4MTZ9LHsieCI6MTA4LjM4NjcxODc1LCJ5IjoxNDYwLjI4NzQ5ODQ3NDEyMX0seyJ4IjoxMDguMzg2NzE4NzUsInkiOjE0ODUuMjg3NDk4NDc0MTIxfV0=" data-look="classic" marker-end="url(#g33eeac9a-f89d-4e31-9b7a-1f89f5dc8c2d-dark_flowchart-v2-pointEnd)"></path><path d="M328.078,1435.287L328.078,1439.454C328.078,1443.621,328.078,1451.954,300.194,1462.404C272.31,1472.853,216.542,1485.418,188.657,1491.701L160.773,1497.984" id="g33eeac9a-f89d-4e31-9b7a-1f89f5dc8c2d-dark-L_loop_paint_0" class="edge-thickness-normal edge-pattern-solid edge-thickness-normal edge-pattern-solid flowchart-link" style=";" data-edge="true" data-et="edge" data-id="L_loop_paint_0" data-points="W3sieCI6MzI4LjA3ODEyNSwieSI6MTQzNS4yODc0OTg0NzQxMjF9LHsieCI6MzI4LjA3ODEyNSwieSI6MTQ2MC4yODc0OTg0NzQxMjF9LHsieCI6MTU2Ljg3MTA5Mzc1LCJ5IjoxNDk4Ljg2MzE5MDU4NDg1ODh9XQ==" data-look="classic" marker-end="url(#g33eeac9a-f89d-4e31-9b7a-1f89f5dc8c2d-dark_flowchart-v2-pointEnd)"></path></g><g class="edgeLabels"><g class="edgeLabel"><g class="label" data-id="L_start_rs_0" transform="translate(0, 0)"><text y="-10.1" text-anchor="middle"><tspan class="text-outer-tspan row" x="0" y="-0.1em" dy="1.1em" text-anchor="middle"></tspan></text></g></g><g><rect class="background" style="stroke: none"></rect></g><g class="edgeLabel"><g class="label" data-id="L_rs_ul_0" transform="translate(0, 0)"><text y="-10.1" text-anchor="middle"><tspan class="text-outer-tspan row" x="0" y="-0.1em" dy="1.1em" text-anchor="middle"></tspan></text></g></g><g><rect class="background" style="stroke: none"></rect></g><g class="edgeLabel"><g class="label" data-id="L_ul_gather_0" transform="translate(0, 0)"><text y="-10.1" text-anchor="middle"><tspan class="text-outer-tspan row" x="0" y="-0.1em" dy="1.1em" text-anchor="middle"></tspan></text></g></g><g><rect class="background" style="stroke: none"></rect></g><g class="edgeLabel"><g class="label" data-id="L_gather_any_0" transform="translate(0, 0)"><text y="-10.1" text-anchor="middle"><tspan class="text-outer-tspan row" x="0" y="-0.1em" dy="1.1em" text-anchor="middle"></tspan></text></g></g><g><rect class="background" style="stroke: none"></rect></g><g class="edgeLabel" transform="translate(18.6640625, 902.3718719482422)"><g class="label" data-id="L_any_paint_0" transform="translate(0, -10.5)"><g><rect class="background" style="" x="-10.6640625" y="-1" width="21.328125" height="23"></rect><text y="-10.1" text-anchor="middle" style=""><tspan class="text-outer-tspan row" x="0" y="-0.1em" dy="1.1em" text-anchor="middle"><tspan font-style="normal" class="text-inner-tspan" font-weight="normal">no</tspan></tspan></text></g></g></g><g class="edgeLabel" transform="translate(241.8359375, 524.171875)"><g class="label" data-id="L_any_bcast_0" transform="translate(0, -10.5)"><g><rect class="background" style="" x="-13.546875" y="-1" width="27.09375" height="23"></rect><text y="-10.1" text-anchor="middle" style=""><tspan class="text-outer-tspan row" x="0" y="-0.1em" dy="1.1em" text-anchor="middle"><tspan font-style="normal" class="text-inner-tspan" font-weight="normal">yes</tspan></tspan></text></g></g></g><g class="edgeLabel"><g class="label" data-id="L_bcast_rs2_0" transform="translate(0, 0)"><text y="-10.1" text-anchor="middle"><tspan class="text-outer-tspan row" x="0" y="-0.1em" dy="1.1em" text-anchor="middle"></tspan></text></g></g><g><rect class="background" style="stroke: none"></rect></g><g class="edgeLabel"><g class="label" data-id="L_rs2_gather2_0" transform="translate(0, 0)"><text y="-10.1" text-anchor="middle"><tspan class="text-outer-tspan row" x="0" y="-0.1em" dy="1.1em" text-anchor="middle"></tspan></text></g></g><g><rect class="background" style="stroke: none"></rect></g><g class="edgeLabel"><g class="label" data-id="L_gather2_any2_0" transform="translate(0, 0)"><text y="-10.1" text-anchor="middle"><tspan class="text-outer-tspan row" x="0" y="-0.1em" dy="1.1em" text-anchor="middle"></tspan></text></g></g><g><rect class="background" style="stroke: none"></rect></g><g class="edgeLabel" transform="translate(316.2265625, 780.3718719482422)"><g class="label" data-id="L_any2_bcast_0" transform="translate(0, -10.5)"><g><rect class="background" style="" x="-13.546875" y="-1" width="27.09375" height="23"></rect><text y="-10.1" text-anchor="middle" style=""><tspan class="text-outer-tspan row" x="0" y="-0.1em" dy="1.1em" text-anchor="middle"><tspan font-style="normal" class="text-inner-tspan" font-weight="normal">yes</tspan></tspan></text></g></g></g><g class="edgeLabel" transform="translate(241.8359375, 1067.0593719482422)"><g class="label" data-id="L_any2_err_0" transform="translate(0, -10.5)"><g><rect class="background" style="" x="-10.6640625" y="-1" width="21.328125" height="23"></rect><text y="-10.1" text-anchor="middle" style=""><tspan class="text-outer-tspan row" x="0" y="-0.1em" dy="1.1em" text-anchor="middle"><tspan font-style="normal" class="text-inner-tspan" font-weight="normal">no</tspan></tspan></text></g></g></g><g class="edgeLabel" transform="translate(328.078125, 1279.3874969482422)"><g class="label" data-id="L_err_loop_0" transform="translate(0, -10.5)"><g><rect class="background" style="" x="-13.546875" y="-1" width="27.09375" height="23"></rect><text y="-10.1" text-anchor="middle" style=""><tspan class="text-outer-tspan row" x="0" y="-0.1em" dy="1.1em" text-anchor="middle"><tspan font-style="normal" class="text-inner-tspan" font-weight="normal">yes</tspan></tspan></text></g></g></g><g class="edgeLabel" transform="translate(108.38671875, 1375.5874977111816)"><g class="label" data-id="L_err_paint_0" transform="translate(0, -10.5)"><g><rect class="background" style="" x="-10.6640625" y="-1" width="21.328125" height="23"></rect><text y="-10.1" text-anchor="middle" style=""><tspan class="text-outer-tspan row" x="0" y="-0.1em" dy="1.1em" text-anchor="middle"><tspan font-style="normal" class="text-inner-tspan" font-weight="normal">no</tspan></tspan></text></g></g></g><g class="edgeLabel"><g class="label" data-id="L_loop_paint_0" transform="translate(0, 0)"><text y="-10.1" text-anchor="middle"><tspan class="text-outer-tspan row" x="0" y="-0.1em" dy="1.1em" text-anchor="middle"></tspan></text></g></g><g><rect class="background" style="stroke: none"></rect></g></g><g class="nodes"><g class="node default" id="g33eeac9a-f89d-4e31-9b7a-1f89f5dc8c2d-dark-flowchart-start-0" data-look="classic" transform="translate(167.4453125, 25)"><g class="basic label-container outer-path"><path d="M-73.53125 -17 C-20.361981351614148 -17, 32.807287296771705 -17, 73.53125 -17 C73.53125 -17, 73.53125 -17, 73.53125 -17 C73.82912483202973 -16.990447733914994, 74.12699966405947 -16.98089546782999, 74.62044373967211 -16.965071676755716 C75.04888144952042 -16.923740806158385, 75.47731915936873 -16.88240993556105, 75.7051617486366 -16.860430234995185 C76.11569809522364 -16.794057902235913, 76.52623444181067 -16.727685569476638, 76.78094668792333 -16.686505668848113 C76.9950292136626 -16.637642729367162, 77.20911173940188 -16.58877978988621, 77.84337792646163 -16.4440126716635 C78.18590603481476 -16.342352127071017, 78.52843414316791 -16.240691582478537, 78.88808970640156 -16.133947699181366 C79.20664943882645 -16.016714772915122, 79.52520917125133 -15.899481846648877, 79.91078908294936 -15.757584874882369 C80.27446085197586 -15.59659817067407, 80.63813262100236 -15.435611466465772, 80.90727356499849 -15.316470754341125 C81.1984128687661 -15.164583566049185, 81.4895521725337 -15.012696377757246, 81.87344838406693 -14.812417970097622 C82.10806387972009 -14.670192677878983, 82.34267937537327 -14.527967385660343, 82.80534332057933 -14.247497783161291 C83.10769770179127 -14.036588455538048, 83.41005208300322 -13.825679127914803, 83.69912901835067 -13.624031571755262 C83.93072749350051 -13.439337950917519, 84.16232596865036 -13.254644330079776, 84.5511327202324 -12.944581292275288 C84.82597065575952 -12.694980751042856, 85.10080859128662 -12.445380209810423, 85.35785336025927 -12.21193895166137 C85.64728964184576 -11.913072227762662, 85.93672592343225 -11.614205503863953, 86.11597595028036 -11.42911513444239 C86.2825404060009 -11.23345904696701, 86.44910486172145 -11.037802959491632, 86.82238520195651 -10.59932663159847 C87.0275233751234 -10.324460168026881, 87.23266154829027 -10.04959370445529, 87.47417832814824 -9.725983222076888 C87.60258042411432 -9.528723121882452, 87.7309825200804 -9.331463021688016, 88.06867697109088 -8.812673661278927 C88.24110916153103 -8.50650284649979, 88.41354135197119 -8.200332031720652, 88.603438208341 -7.863150934094199 C88.75724254871588 -7.543772930420085, 88.91104688909074 -7.22439492674597, 89.07626459126881 -6.881316833080699 C89.17861263568818 -6.62851518460003, 89.28096068010755 -6.37571353611936, 89.48521317484592 -5.871205925162238 C89.5955314403425 -5.538944886315178, 89.70584970583909 -5.206683847468117, 89.82860350162323 -4.836968972727556 C89.91693477656814 -4.500123538345871, 90.00526605151306 -4.163278103964186, 90.105024507091 -3.7828558772573464 C90.17631043609778 -3.4168176980940035, 90.24759636510454 -3.05077951893066, 90.31334031804565 -2.713198215567453 C90.34394732586098 -2.475816306989003, 90.37455433367633 -2.238434398410553, 90.45269492013637 -1.632391440430593 C90.47369225577657 -1.305340989090101, 90.49468959141679 -0.978290537749609, 90.5225156754117 -0.5448768187181379 C90.5225156754117 -0.21192692623391152, 90.5225156754117 0.12102296625031483, 90.5225156754117 0.5448768187181336 C90.49887453260034 0.9131067007919569, 90.47523338978898 1.2813365828657801, 90.45269492013637 1.6323914404305815 C90.4067532531565 1.9887059373181812, 90.36081158617662 2.3450204342057805, 90.31334031804565 2.7131982155674415 C90.25209194530963 3.027695664718725, 90.19084357257361 3.342193113870008, 90.105024507091 3.782855877257343 C89.99460929681096 4.203916928309998, 89.88419408653091 4.624977979362653, 89.82860350162323 4.836968972727545 C89.73032984581745 5.132953566233871, 89.63205619001167 5.428938159740197, 89.48521317484592 5.871205925162227 C89.33462809519695 6.243153983259666, 89.18404301554797 6.615102041357105, 89.07626459126881 6.881316833080694 C88.91782239001154 7.210325454111438, 88.75938018875426 7.5393340751421825, 88.603438208341 7.863150934094196 C88.45219605221138 8.131696697231346, 88.30095389608175 8.400242460368496, 88.06867697109088 8.812673661278923 C87.92836870180956 9.028224840940752, 87.78806043252825 9.243776020602581, 87.47417832814826 9.725983222076879 C87.33551877223472 9.911774394855604, 87.19685921632119 10.097565567634327, 86.82238520195651 10.599326631598467 C86.55450992694226 10.913988172165151, 86.28663465192801 11.228649712731837, 86.11597595028037 11.42911513444238 C85.90959286378283 11.642222615617614, 85.7032097772853 11.855330096792848, 85.35785336025927 12.211938951661365 C85.11487421996326 12.432606178002445, 84.87189507966724 12.653273404343526, 84.55113272023242 12.944581292275275 C84.22099002761198 13.207861304174061, 83.89084733499153 13.471141316072847, 83.69912901835067 13.62403157175526 C83.37085247181712 13.853023079754406, 83.04257592528357 14.082014587753553, 82.80534332057934 14.247497783161286 C82.4761944377877 14.447029770203116, 82.14704555499605 14.646561757244948, 81.87344838406695 14.81241797009762 C81.52804853371804 14.99261285078548, 81.18264868336914 15.172807731473343, 80.90727356499849 15.316470754341124 C80.61762021614778 15.444691699616024, 80.32796686729706 15.572912644890923, 79.91078908294936 15.757584874882367 C79.61615020716911 15.866014704781408, 79.32151133138888 15.97444453468045, 78.88808970640156 16.133947699181363 C78.50871881859656 16.246542987323462, 78.12934793079157 16.35913827546556, 77.84337792646164 16.444012671663497 C77.58660837900803 16.502618645291896, 77.32983883155441 16.561224618920296, 76.78094668792333 16.68650566884811 C76.40006007669966 16.74808446233097, 76.01917346547597 16.809663255813827, 75.70516174863661 16.86043023499518 C75.37323215809896 16.89245108339061, 75.0413025675613 16.92447193178604, 74.62044373967211 16.965071676755716 C74.38280327431848 16.9726923439405, 74.14516280896484 16.98031301112529, 73.53125 17 C73.53125 17, 73.53125 17, 73.53125 17 C16.43504567574027 17, -40.66115864851946 17, -73.53125 17 C-73.84643062098672 16.989892770946817, -74.16161124197345 16.979785541893634, -74.62044373967211 16.965071676755716 C-75.02089315684653 16.926440803091786, -75.42134257402093 16.887809929427856, -75.7051617486366 16.86043023499518 C-75.93857294134499 16.822694123488922, -76.17198413405337 16.784958011982667, -76.78094668792333 16.68650566884811 C-77.01274785084551 16.633598566055074, -77.24454901376768 16.580691463262042, -77.84337792646161 16.4440126716635 C-78.23045155154202 16.32913125153056, -78.61752517662242 16.214249831397616, -78.88808970640154 16.13394769918137 C-79.10934368203608 16.052524190898527, -79.33059765767062 15.971100682615686, -79.91078908294936 15.757584874882369 C-80.14227255513157 15.655114008460536, -80.37375602731377 15.552643142038704, -80.90727356499849 15.316470754341127 C-81.2907621370742 15.116405011925385, -81.67425070914989 14.916339269509646, -81.87344838406693 14.812417970097624 C-82.09799827172797 14.676294508595886, -82.32254815938902 14.540171047094148, -82.80534332057931 14.247497783161299 C-82.98995564994742 14.118720213933043, -83.17456797931553 13.98994264470479, -83.69912901835067 13.624031571755264 C-83.91212749981756 13.454170950913065, -84.12512598128443 13.284310330070868, -84.5511327202324 12.94458129227529 C-84.8579861198676 12.665905153622646, -85.16483951950282 12.38722901497, -85.35785336025926 12.211938951661377 C-85.58671480456782 11.975620720538767, -85.81557624887638 11.739302489416156, -86.11597595028036 11.429115134442386 C-86.38119838922461 11.117569766074174, -86.64642082816886 10.806024397705965, -86.82238520195651 10.599326631598473 C-86.96289782247032 10.411052521073028, -87.10341044298414 10.222778410547585, -87.47417832814824 9.72598322207689 C-87.64963417657798 9.456435922396585, -87.82509002500771 9.186888622716282, -88.06867697109088 8.812673661278936 C-88.23234432486625 8.52206570153407, -88.39601167864163 8.231457741789203, -88.603438208341 7.863150934094201 C-88.71242706466926 7.636833241940643, -88.8214159209975 7.410515549787085, -89.07626459126881 6.881316833080701 C-89.21513984288954 6.538292276607174, -89.35401509451026 6.195267720133646, -89.48521317484592 5.87120592516224 C-89.61656733335832 5.475588128165939, -89.74792149187071 5.07997033116964, -89.82860350162323 4.8369689727275516 C-89.91821963472272 4.495223817341454, -90.0078357678222 4.153478661955356, -90.105024507091 3.782855877257349 C-90.1471517256769 3.566541513409536, -90.18927894426281 3.3502271495617237, -90.31334031804565 2.713198215567455 C-90.36496006915314 2.3128456194505955, -90.41657982026062 1.9124930233337354, -90.45269492013637 1.6323914404306026 C-90.4705017622864 1.3550355005195485, -90.48830860443644 1.0776795606084946, -90.5225156754117 0.54487681871814 C-90.5225156754117 0.20166901767827977, -90.5225156754117 -0.14153878336158043, -90.5225156754117 -0.5448768187181317 C-90.49947834046203 -0.9037019059612814, -90.47644100551236 -1.2625269932044312, -90.45269492013637 -1.6323914404305793 C-90.42226029441301 -1.8684363875443675, -90.39182566868963 -2.1044813346581557, -90.31334031804565 -2.713198215567447 C-90.25729350105526 -3.0009867753141157, -90.20124668406488 -3.2887753350607847, -90.105024507091 -3.782855877257341 C-90.01162065156153 -4.1390452598782606, -89.91821679603207 -4.49523464249918, -89.82860350162323 -4.836968972727544 C-89.75661253648649 -5.053794289516842, -89.68462157134972 -5.27061960630614, -89.48521317484594 -5.871205925162218 C-89.3584200107288 -6.184387491910582, -89.23162684661168 -6.4975690586589465, -89.07626459126881 -6.881316833080692 C-88.96133285773637 -7.119975036905966, -88.84640112420392 -7.358633240731239, -88.603438208341 -7.863150934094194 C-88.47588977706063 -8.0896260895117, -88.34834134578024 -8.316101244929207, -88.06867697109088 -8.812673661278929 C-87.89813402525502 -9.074673423275984, -87.72759107941916 -9.33667318527304, -87.47417832814826 -9.725983222076884 C-87.21449854549172 -10.073930473521752, -86.9548187628352 -10.421877724966622, -86.82238520195651 -10.599326631598467 C-86.66713815985169 -10.781688641061733, -86.51189111774687 -10.964050650524996, -86.11597595028037 -11.42911513444238 C-85.82964137080069 -11.724779096261319, -85.54330679132102 -12.020443058080255, -85.35785336025927 -12.21193895166136 C-85.08580592221007 -12.459005236916875, -84.81375848416086 -12.706071522172392, -84.55113272023242 -12.944581292275274 C-84.24161614119018 -13.191412527479374, -83.93209956214794 -13.438243762683474, -83.69912901835067 -13.624031571755259 C-83.47701344696061 -13.778969779128849, -83.25489787557056 -13.933907986502437, -82.80534332057934 -14.247497783161284 C-82.57492587772282 -14.387178191104104, -82.3445084348663 -14.526858599046923, -81.87344838406695 -14.812417970097618 C-81.59275967670068 -14.958853088940902, -81.31207096933441 -15.105288207784186, -80.90727356499849 -15.316470754341124 C-80.68051366275346 -15.416850636471496, -80.45375376050842 -15.517230518601869, -79.91078908294936 -15.757584874882365 C-79.59568626909468 -15.873545623159368, -79.28058345524002 -15.989506371436368, -78.88808970640156 -16.133947699181363 C-78.59496795130417 -16.220944697466777, -78.30184619620678 -16.30794169575219, -77.84337792646164 -16.444012671663494 C-77.51843254205724 -16.518179335187, -77.19348715765284 -16.592345998710503, -76.78094668792333 -16.68650566884811 C-76.51609992538887 -16.729324039497364, -76.2512531628544 -16.772142410146618, -75.70516174863661 -16.86043023499518 C-75.38782654721051 -16.891043180225342, -75.07049134578439 -16.921656125455502, -74.62044373967213 -16.965071676755716 C-74.27957680413301 -16.976002615921214, -73.93870986859392 -16.986933555086715, -73.53125 -17 C-73.53125 -17, -73.53125 -17, -73.53125 -17" stroke="none" stroke-width="0" fill="#2d2d2d" style=""></path><path d="M-73.53125 -17 C-22.042853882321182 -17, 29.445542235357635 -17, 73.53125 -17 M-73.53125 -17 C-40.79709437192349 -17, -8.062938743846985 -17, 73.53125 -17 M73.53125 -17 C73.53125 -17, 73.53125 -17, 73.53125 -17 M73.53125 -17 C73.53125 -17, 73.53125 -17, 73.53125 -17 M73.53125 -17 C73.77387344301619 -16.992219538420354, 74.01649688603237 -16.984439076840708, 74.62044373967211 -16.965071676755716 M73.53125 -17 C73.95997362971637 -16.986251667654916, 74.38869725943273 -16.972503335309835, 74.62044373967211 -16.965071676755716 M74.62044373967211 -16.965071676755716 C74.94204110587958 -16.934047565615103, 75.26363847208705 -16.90302345447449, 75.7051617486366 -16.860430234995185 M74.62044373967211 -16.965071676755716 C74.88499317277265 -16.93955091111175, 75.14954260587321 -16.914030145467784, 75.7051617486366 -16.860430234995185 M75.7051617486366 -16.860430234995185 C76.07849312936554 -16.800072912587027, 76.4518245100945 -16.73971559017887, 76.78094668792333 -16.686505668848113 M75.7051617486366 -16.860430234995185 C76.04725065393731 -16.80512395372525, 76.38933955923804 -16.74981767245531, 76.78094668792333 -16.686505668848113 M76.78094668792333 -16.686505668848113 C77.10007587994312 -16.613666513282194, 77.4192050719629 -16.540827357716278, 77.84337792646163 -16.4440126716635 M76.78094668792333 -16.686505668848113 C77.04127881638797 -16.627086559351962, 77.3016109448526 -16.56766744985581, 77.84337792646163 -16.4440126716635 M77.84337792646163 -16.4440126716635 C78.09465197589498 -16.369435852756084, 78.34592602532832 -16.294859033848667, 78.88808970640156 -16.133947699181366 M77.84337792646163 -16.4440126716635 C78.18552240276746 -16.342465987048932, 78.5276668790733 -16.240919302434367, 78.88808970640156 -16.133947699181366 M78.88808970640156 -16.133947699181366 C79.15751921506754 -16.03479514941321, 79.42694872373352 -15.935642599645051, 79.91078908294936 -15.757584874882369 M78.88808970640156 -16.133947699181366 C79.26139004639936 -15.996569723311659, 79.63469038639717 -15.859191747441951, 79.91078908294936 -15.757584874882369 M79.91078908294936 -15.757584874882369 C80.16837992651926 -15.643557049594857, 80.42597077008917 -15.529529224307344, 80.90727356499849 -15.316470754341125 M79.91078908294936 -15.757584874882369 C80.17748014102541 -15.639528654581259, 80.44417119910146 -15.521472434280147, 80.90727356499849 -15.316470754341125 M80.90727356499849 -15.316470754341125 C81.18893489704745 -15.16952821782388, 81.4705962290964 -15.022585681306634, 81.87344838406693 -14.812417970097622 M80.90727356499849 -15.316470754341125 C81.22688944300803 -15.149727355507284, 81.54650532101758 -14.982983956673444, 81.87344838406693 -14.812417970097622 M81.87344838406693 -14.812417970097622 C82.07817586438685 -14.688310968415472, 82.28290334470677 -14.564203966733322, 82.80534332057933 -14.247497783161291 M81.87344838406693 -14.812417970097622 C82.23365152696519 -14.594060708084076, 82.59385466986343 -14.375703446070528, 82.80534332057933 -14.247497783161291 M82.80534332057933 -14.247497783161291 C83.03580165841215 -14.086740023069765, 83.26625999624498 -13.92598226297824, 83.69912901835067 -13.624031571755262 M82.80534332057933 -14.247497783161291 C83.03872686998581 -14.08469952210635, 83.27211041939229 -13.921901261051406, 83.69912901835067 -13.624031571755262 M83.69912901835067 -13.624031571755262 C84.00616208078385 -13.379180874957738, 84.31319514321702 -13.134330178160214, 84.5511327202324 -12.944581292275288 M83.69912901835067 -13.624031571755262 C83.94139392148621 -13.430831758444505, 84.18365882462173 -13.237631945133746, 84.5511327202324 -12.944581292275288 M84.5511327202324 -12.944581292275288 C84.7866620493712 -12.730679787315989, 85.02219137851 -12.516778282356688, 85.35785336025927 -12.21193895166137 M84.5511327202324 -12.944581292275288 C84.79532993649035 -12.722807841574106, 85.03952715274829 -12.501034390872922, 85.35785336025927 -12.21193895166137 M85.35785336025927 -12.21193895166137 C85.54483880950623 -12.018861123522989, 85.7318242587532 -11.825783295384607, 86.11597595028036 -11.42911513444239 M85.35785336025927 -12.21193895166137 C85.53911460788001 -12.024771831667765, 85.72037585550075 -11.83760471167416, 86.11597595028036 -11.42911513444239 M86.11597595028036 -11.42911513444239 C86.28137560652354 -11.234827286712099, 86.4467752627667 -11.040539438981808, 86.82238520195651 -10.59932663159847 M86.11597595028036 -11.42911513444239 C86.32817713934442 -11.179851543178023, 86.5403783284085 -10.930587951913656, 86.82238520195651 -10.59932663159847 M86.82238520195651 -10.59932663159847 C86.97348441053123 -10.39686745752943, 87.12458361910595 -10.19440828346039, 87.47417832814824 -9.725983222076888 M86.82238520195651 -10.59932663159847 C87.0366345487128 -10.312252025462062, 87.25088389546909 -10.025177419325654, 87.47417832814824 -9.725983222076888 M87.47417832814824 -9.725983222076888 C87.6077067406105 -9.520847723135603, 87.74123515307276 -9.31571222419432, 88.06867697109088 -8.812673661278927 M87.47417832814824 -9.725983222076888 C87.59898143564088 -9.53425213464138, 87.72378454313353 -9.342521047205869, 88.06867697109088 -8.812673661278927 M88.06867697109088 -8.812673661278927 C88.24297814957418 -8.503184268973618, 88.41727932805749 -8.193694876668308, 88.603438208341 -7.863150934094199 M88.06867697109088 -8.812673661278927 C88.26338261733514 -8.466954070287631, 88.4580882635794 -8.121234479296335, 88.603438208341 -7.863150934094199 M88.603438208341 -7.863150934094199 C88.74863367097768 -7.561649449243903, 88.89382913361437 -7.260147964393607, 89.07626459126881 -6.881316833080699 M88.603438208341 -7.863150934094199 C88.77890274943053 -7.498795060182046, 88.95436729052005 -7.134439186269892, 89.07626459126881 -6.881316833080699 M89.07626459126881 -6.881316833080699 C89.16700207168748 -6.657193502156737, 89.25773955210616 -6.433070171232775, 89.48521317484592 -5.871205925162238 M89.07626459126881 -6.881316833080699 C89.18816541638637 -6.604919631585052, 89.30006624150393 -6.328522430089404, 89.48521317484592 -5.871205925162238 M89.48521317484592 -5.871205925162238 C89.59781877778065 -5.532055790389223, 89.71042438071537 -5.192905655616207, 89.82860350162323 -4.836968972727556 M89.48521317484592 -5.871205925162238 C89.57294236953351 -5.60697956851219, 89.66067156422109 -5.342753211862143, 89.82860350162323 -4.836968972727556 M89.82860350162323 -4.836968972727556 C89.9230243624646 -4.476901308079478, 90.01744522330597 -4.1168336434313995, 90.105024507091 -3.7828558772573464 M89.82860350162323 -4.836968972727556 C89.93490118938047 -4.431609819599926, 90.0411988771377 -4.026250666472295, 90.105024507091 -3.7828558772573464 M90.105024507091 -3.7828558772573464 C90.14736354772346 -3.565453851969095, 90.18970258835591 -3.3480518266808437, 90.31334031804565 -2.713198215567453 M90.105024507091 -3.7828558772573464 C90.18543045585625 -3.3699883241510467, 90.26583640462151 -2.957120771044747, 90.31334031804565 -2.713198215567453 M90.31334031804565 -2.713198215567453 C90.36820922578059 -2.287645802266561, 90.42307813351555 -1.8620933889656697, 90.45269492013637 -1.632391440430593 M90.31334031804565 -2.713198215567453 C90.36051790450229 -2.347298171277888, 90.40769549095894 -1.9813981269883234, 90.45269492013637 -1.632391440430593 M90.45269492013637 -1.632391440430593 C90.47353020217078 -1.3078651048076204, 90.4943654842052 -0.9833387691846479, 90.5225156754117 -0.5448768187181379 M90.45269492013637 -1.632391440430593 C90.47193958035022 -1.3326403235897373, 90.49118424056407 -1.0328892067488815, 90.5225156754117 -0.5448768187181379 M90.5225156754117 -0.5448768187181379 C90.5225156754117 -0.28475449371863576, 90.5225156754117 -0.02463216871913365, 90.5225156754117 0.5448768187181336 M90.5225156754117 -0.5448768187181379 C90.5225156754117 -0.1881233861365842, 90.5225156754117 0.16863004644496948, 90.5225156754117 0.5448768187181336 M90.5225156754117 0.5448768187181336 C90.49486676753263 0.9755308767313393, 90.46721785965356 1.406184934744545, 90.45269492013637 1.6323914404305815 M90.5225156754117 0.5448768187181336 C90.50744448265576 0.7796228111396345, 90.49237328989983 1.0143688035611353, 90.45269492013637 1.6323914404305815 M90.45269492013637 1.6323914404305815 C90.42027238648066 1.8838542089107484, 90.38784985282497 2.1353169773909153, 90.31334031804565 2.7131982155674415 M90.45269492013637 1.6323914404305815 C90.40272657203312 2.0199360809530242, 90.35275822392985 2.4074807214754665, 90.31334031804565 2.7131982155674415 M90.31334031804565 2.7131982155674415 C90.23011264925235 3.1405547046470264, 90.14688498045905 3.5679111937266113, 90.105024507091 3.782855877257343 M90.31334031804565 2.7131982155674415 C90.23617115570659 3.1094455544703266, 90.15900199336751 3.505692893373211, 90.105024507091 3.782855877257343 M90.105024507091 3.782855877257343 C90.02439976152849 4.090312975072962, 89.94377501596598 4.39777007288858, 89.82860350162323 4.836968972727545 M90.105024507091 3.782855877257343 C90.02233232962764 4.098196988941532, 89.9396401521643 4.41353810062572, 89.82860350162323 4.836968972727545 M89.82860350162323 4.836968972727545 C89.7292624861657 5.136168283444288, 89.62992147070817 5.435367594161032, 89.48521317484592 5.871205925162227 M89.82860350162323 4.836968972727545 C89.74523043145898 5.088075376367526, 89.66185736129471 5.339181780007507, 89.48521317484592 5.871205925162227 M89.48521317484592 5.871205925162227 C89.35342683224216 6.196720739309134, 89.22164048963839 6.52223555345604, 89.07626459126881 6.881316833080694 M89.48521317484592 5.871205925162227 C89.39528250015675 6.0933364303358, 89.30535182546758 6.315466935509372, 89.07626459126881 6.881316833080694 M89.07626459126881 6.881316833080694 C88.97917703348476 7.082921224160234, 88.88208947570071 7.284525615239775, 88.603438208341 7.863150934094196 M89.07626459126881 6.881316833080694 C88.9800818948788 7.08104226011459, 88.88389919848878 7.280767687148487, 88.603438208341 7.863150934094196 M88.603438208341 7.863150934094196 C88.40594372331888 8.213822390736128, 88.20844923829677 8.564493847378062, 88.06867697109088 8.812673661278923 M88.603438208341 7.863150934094196 C88.45554685890438 8.12574700064194, 88.30765550946776 8.388343067189686, 88.06867697109088 8.812673661278923 M88.06867697109088 8.812673661278923 C87.84097728725982 9.162481521569779, 87.61327760342877 9.512289381860636, 87.47417832814826 9.725983222076879 M88.06867697109088 8.812673661278923 C87.90765319478238 9.06004942262703, 87.74662941847387 9.307425183975134, 87.47417832814826 9.725983222076879 M87.47417832814826 9.725983222076879 C87.2736626658695 9.99465594217778, 87.07314700359075 10.263328662278681, 86.82238520195651 10.599326631598467 M87.47417832814826 9.725983222076879 C87.31919899472649 9.933641409954305, 87.16421966130474 10.14129959783173, 86.82238520195651 10.599326631598467 M86.82238520195651 10.599326631598467 C86.66644608585517 10.782501590558164, 86.51050696975385 10.96567654951786, 86.11597595028037 11.42911513444238 M86.82238520195651 10.599326631598467 C86.6307797147647 10.82439733951504, 86.4391742275729 11.049468047431613, 86.11597595028037 11.42911513444238 M86.11597595028037 11.42911513444238 C85.89188331845855 11.660509175145647, 85.66779068663672 11.891903215848913, 85.35785336025927 12.211938951661365 M86.11597595028037 11.42911513444238 C85.92443092551517 11.626901098651446, 85.73288590074998 11.82468706286051, 85.35785336025927 12.211938951661365 M85.35785336025927 12.211938951661365 C85.14177305883268 12.408177364245505, 84.92569275740611 12.604415776829644, 84.55113272023242 12.944581292275275 M85.35785336025927 12.211938951661365 C85.10470458029309 12.441841975676965, 84.85155580032692 12.671744999692566, 84.55113272023242 12.944581292275275 M84.55113272023242 12.944581292275275 C84.24048028494967 13.192318342604784, 83.9298278496669 13.440055392934292, 83.69912901835067 13.62403157175526 M84.55113272023242 12.944581292275275 C84.3017123053972 13.143487435750366, 84.05229189056199 13.342393579225456, 83.69912901835067 13.62403157175526 M83.69912901835067 13.62403157175526 C83.42203549445209 13.817320018841594, 83.1449419705535 14.010608465927929, 82.80534332057934 14.247497783161286 M83.69912901835067 13.62403157175526 C83.38885216062985 13.840467276032618, 83.07857530290903 14.056902980309976, 82.80534332057934 14.247497783161286 M82.80534332057934 14.247497783161286 C82.52417912457855 14.41794117108118, 82.24301492857776 14.588384559001074, 81.87344838406695 14.81241797009762 M82.80534332057934 14.247497783161286 C82.48131969442083 14.443922809512761, 82.15729606826233 14.640347835864237, 81.87344838406695 14.81241797009762 M81.87344838406695 14.81241797009762 C81.56700811953881 14.97228765981759, 81.26056785501068 15.13215734953756, 80.90727356499849 15.316470754341124 M81.87344838406695 14.81241797009762 C81.5397103440986 14.98652889177969, 81.20597230413024 15.16063981346176, 80.90727356499849 15.316470754341124 M80.90727356499849 15.316470754341124 C80.60316805057073 15.45108924460872, 80.29906253614298 15.585707734876316, 79.91078908294936 15.757584874882367 M80.90727356499849 15.316470754341124 C80.65263091498315 15.429193501797089, 80.3979882649678 15.541916249253054, 79.91078908294936 15.757584874882367 M79.91078908294936 15.757584874882367 C79.70068506873585 15.834905094293157, 79.49058105452234 15.91222531370395, 78.88808970640156 16.133947699181363 M79.91078908294936 15.757584874882367 C79.56500111739028 15.884838042637021, 79.2192131518312 16.012091210391677, 78.88808970640156 16.133947699181363 M78.88808970640156 16.133947699181363 C78.58614116791126 16.223564440445063, 78.28419262942097 16.31318118170876, 77.84337792646164 16.444012671663497 M78.88808970640156 16.133947699181363 C78.55150815696703 16.233843336300925, 78.2149266075325 16.333738973420488, 77.84337792646164 16.444012671663497 M77.84337792646164 16.444012671663497 C77.4809599215991 16.52673221627487, 77.11854191673655 16.609451760886245, 76.78094668792333 16.68650566884811 M77.84337792646164 16.444012671663497 C77.62936327744507 16.49286011872543, 77.41534862842848 16.541707565787362, 76.78094668792333 16.68650566884811 M76.78094668792333 16.68650566884811 C76.371688646907 16.75267133507612, 75.96243060589067 16.818837001304132, 75.70516174863661 16.86043023499518 M76.78094668792333 16.68650566884811 C76.53914032731882 16.725599045994315, 76.2973339667143 16.764692423140517, 75.70516174863661 16.86043023499518 M75.70516174863661 16.86043023499518 C75.37460883134803 16.892318277377964, 75.04405591405944 16.92420631976075, 74.62044373967211 16.965071676755716 M75.70516174863661 16.86043023499518 C75.31829739234269 16.897750574174395, 74.93143303604877 16.93507091335361, 74.62044373967211 16.965071676755716 M74.62044373967211 16.965071676755716 C74.23237972186764 16.977516134485917, 73.84431570406319 16.989960592216118, 73.53125 17 M74.62044373967211 16.965071676755716 C74.40230621510112 16.972066922589775, 74.18416869053014 16.979062168423834, 73.53125 17 M73.53125 17 C73.53125 17, 73.53125 17, 73.53125 17 M73.53125 17 C73.53125 17, 73.53125 17, 73.53125 17 M73.53125 17 C36.281700301169295 17, -0.9678493976614106 17, -73.53125 17 M73.53125 17 C22.67073187332769 17, -28.18978625334462 17, -73.53125 17 M-73.53125 17 C-73.8073676893427 16.991145443133256, -74.08348537868541 16.982290886266515, -74.62044373967211 16.965071676755716 M-73.53125 17 C-73.81422328642934 16.9909255974783, -74.09719657285868 16.981851194956597, -74.62044373967211 16.965071676755716 M-74.62044373967211 16.965071676755716 C-74.88119741021994 16.939917083760136, -75.14195108076777 16.91476249076456, -75.7051617486366 16.86043023499518 M-74.62044373967211 16.965071676755716 C-74.94161210745317 16.93408895057735, -75.26278047523424 16.903106224398986, -75.7051617486366 16.86043023499518 M-75.7051617486366 16.86043023499518 C-76.0051736591878 16.81192663592438, -76.305185569739 16.763423036853574, -76.78094668792333 16.68650566884811 M-75.7051617486366 16.86043023499518 C-75.96626073276875 16.81821777609356, -76.22735971690089 16.776005317191938, -76.78094668792333 16.68650566884811 M-76.78094668792333 16.68650566884811 C-77.18522852042868 16.59423097876427, -77.58951035293404 16.501956288680432, -77.84337792646161 16.4440126716635 M-76.78094668792333 16.68650566884811 C-76.99980850407634 16.636551887518007, -77.21867032022936 16.586598106187903, -77.84337792646161 16.4440126716635 M-77.84337792646161 16.4440126716635 C-78.241594370811 16.325824121261373, -78.63981081516039 16.20763557085925, -78.88808970640154 16.13394769918137 M-77.84337792646161 16.4440126716635 C-78.1911949610681 16.340782401521164, -78.53901199567461 16.237552131378827, -78.88808970640154 16.13394769918137 M-78.88808970640154 16.13394769918137 C-79.09267634995017 16.058657923177275, -79.29726299349879 15.98336814717318, -79.91078908294936 15.757584874882369 M-78.88808970640154 16.13394769918137 C-79.28021342933144 15.98964254439121, -79.67233715226133 15.84533738960105, -79.91078908294936 15.757584874882369 M-79.91078908294936 15.757584874882369 C-80.24787983910329 15.608364796575025, -80.58497059525723 15.45914471826768, -80.90727356499849 15.316470754341127 M-79.91078908294936 15.757584874882369 C-80.25937806424032 15.603274873389593, -80.60796704553128 15.448964871896816, -80.90727356499849 15.316470754341127 M-80.90727356499849 15.316470754341127 C-81.20191846291542 15.16275469982693, -81.49656336083234 15.009038645312733, -81.87344838406693 14.812417970097624 M-80.90727356499849 15.316470754341127 C-81.28485691941081 15.1194857601979, -81.66244027382312 14.922500766054673, -81.87344838406693 14.812417970097624 M-81.87344838406693 14.812417970097624 C-82.15650687027936 14.640826252319352, -82.43956535649177 14.469234534541078, -82.80534332057931 14.247497783161299 M-81.87344838406693 14.812417970097624 C-82.1565075214315 14.640825857587092, -82.43956665879607 14.469233745076561, -82.80534332057931 14.247497783161299 M-82.80534332057931 14.247497783161299 C-83.01857821566593 14.09875435113871, -83.23181311075254 13.950010919116123, -83.69912901835067 13.624031571755264 M-82.80534332057931 14.247497783161299 C-83.15826552049211 14.001314534257933, -83.5111877204049 13.755131285354567, -83.69912901835067 13.624031571755264 M-83.69912901835067 13.624031571755264 C-83.9932624619556 13.389467977699997, -84.28739590556052 13.154904383644729, -84.5511327202324 12.94458129227529 M-83.69912901835067 13.624031571755264 C-84.0338665378783 13.357087307671478, -84.36860405740593 13.09014304358769, -84.5511327202324 12.94458129227529 M-84.5511327202324 12.94458129227529 C-84.75741019377335 12.757245548608275, -84.96368766731429 12.569909804941258, -85.35785336025926 12.211938951661377 M-84.5511327202324 12.94458129227529 C-84.86660082632952 12.658081505146582, -85.18206893242663 12.371581718017875, -85.35785336025926 12.211938951661377 M-85.35785336025926 12.211938951661377 C-85.60219036801472 11.959640930712446, -85.8465273757702 11.707342909763517, -86.11597595028036 11.429115134442386 M-85.35785336025926 12.211938951661377 C-85.57575301030182 11.986939673098442, -85.7936526603444 11.76194039453551, -86.11597595028036 11.429115134442386 M-86.11597595028036 11.429115134442386 C-86.37521439253565 11.124598909084071, -86.63445283479095 10.820082683725756, -86.82238520195651 10.599326631598473 M-86.11597595028036 11.429115134442386 C-86.31878665687047 11.190882138225517, -86.52159736346059 10.952649142008646, -86.82238520195651 10.599326631598473 M-86.82238520195651 10.599326631598473 C-87.07231200364241 10.264447486139398, -87.32223880532831 9.929568340680321, -87.47417832814824 9.72598322207689 M-86.82238520195651 10.599326631598473 C-86.98733718990273 10.37830599518578, -87.15228917784894 10.157285358773088, -87.47417832814824 9.72598322207689 M-87.47417832814824 9.72598322207689 C-87.61445147568693 9.510485998843242, -87.75472462322563 9.294988775609596, -88.06867697109088 8.812673661278936 M-87.47417832814824 9.72598322207689 C-87.60719498764612 9.521633913113792, -87.74021164714402 9.317284604150695, -88.06867697109088 8.812673661278936 M-88.06867697109088 8.812673661278936 C-88.27608495993057 8.444399774757779, -88.48349294877026 8.07612588823662, -88.603438208341 7.863150934094201 M-88.06867697109088 8.812673661278936 C-88.25382021941377 8.483933076094807, -88.43896346773667 8.155192490910679, -88.603438208341 7.863150934094201 M-88.603438208341 7.863150934094201 C-88.7474432429654 7.5641213984825, -88.8914482775898 7.2650918628708, -89.07626459126881 6.881316833080701 M-88.603438208341 7.863150934094201 C-88.698246897562 7.666278662345812, -88.79305558678301 7.469406390597424, -89.07626459126881 6.881316833080701 M-89.07626459126881 6.881316833080701 C-89.22225507398339 6.520717518241719, -89.36824555669797 6.160118203402736, -89.48521317484592 5.87120592516224 M-89.07626459126881 6.881316833080701 C-89.18622344038484 6.60971634985438, -89.29618228950088 6.338115866628058, -89.48521317484592 5.87120592516224 M-89.48521317484592 5.87120592516224 C-89.57145762926213 5.61145136964838, -89.65770208367832 5.35169681413452, -89.82860350162323 4.8369689727275516 M-89.48521317484592 5.87120592516224 C-89.62156021823974 5.460550354411256, -89.75790726163356 5.049894783660272, -89.82860350162323 4.8369689727275516 M-89.82860350162323 4.8369689727275516 C-89.939125311453 4.4155014113912925, -90.04964712128276 3.9940338500550334, -90.105024507091 3.782855877257349 M-89.82860350162323 4.8369689727275516 C-89.90629139732567 4.5407113562671375, -89.98397929302813 4.2444537398067235, -90.105024507091 3.782855877257349 M-90.105024507091 3.782855877257349 C-90.17077420447802 3.44524507737847, -90.23652390186504 3.1076342774995913, -90.31334031804565 2.713198215567455 M-90.105024507091 3.782855877257349 C-90.15217366145185 3.540754934591702, -90.19932281581269 3.298653991926055, -90.31334031804565 2.713198215567455 M-90.31334031804565 2.713198215567455 C-90.34300350565184 2.4831363901528287, -90.37266669325801 2.2530745647382022, -90.45269492013637 1.6323914404306026 M-90.31334031804565 2.713198215567455 C-90.3570610117763 2.37410914862011, -90.40078170550693 2.0350200816727644, -90.45269492013637 1.6323914404306026 M-90.45269492013637 1.6323914404306026 C-90.48043510494716 1.200315670528338, -90.50817528975796 0.7682399006260732, -90.5225156754117 0.54487681871814 M-90.45269492013637 1.6323914404306026 C-90.46915171856568 1.3760635212053702, -90.485608516995 1.1197356019801377, -90.5225156754117 0.54487681871814 M-90.5225156754117 0.54487681871814 C-90.5225156754117 0.12414205078923402, -90.5225156754117 -0.29659271713967195, -90.5225156754117 -0.5448768187181317 M-90.5225156754117 0.54487681871814 C-90.5225156754117 0.30703608525670845, -90.5225156754117 0.06919535179527697, -90.5225156754117 -0.5448768187181317 M-90.5225156754117 -0.5448768187181317 C-90.50280204003204 -0.8519326023163796, -90.48308840465238 -1.1589883859146275, -90.45269492013637 -1.6323914404305793 M-90.5225156754117 -0.5448768187181317 C-90.5038921587368 -0.8349531235617467, -90.4852686420619 -1.1250294284053617, -90.45269492013637 -1.6323914404305793 M-90.45269492013637 -1.6323914404305793 C-90.42053224525358 -1.8818387955829448, -90.3883695703708 -2.1312861507353102, -90.31334031804565 -2.713198215567447 M-90.45269492013637 -1.6323914404305793 C-90.41137088921616 -1.9528924638948193, -90.37004685829595 -2.2733934873590593, -90.31334031804565 -2.713198215567447 M-90.31334031804565 -2.713198215567447 C-90.24549330086393 -3.0615783093234628, -90.1776462836822 -3.409958403079479, -90.105024507091 -3.782855877257341 M-90.31334031804565 -2.713198215567447 C-90.27129547993106 -2.929089573106181, -90.22925064181646 -3.144980930644915, -90.105024507091 -3.782855877257341 M-90.105024507091 -3.782855877257341 C-90.00829240659563 -4.151737300403751, -89.91156030610026 -4.520618723550163, -89.82860350162323 -4.836968972727544 M-90.105024507091 -3.782855877257341 C-90.03676438615011 -4.043161302528527, -89.96850426520922 -4.303466727799713, -89.82860350162323 -4.836968972727544 M-89.82860350162323 -4.836968972727544 C-89.72532889121999 -5.148015644687544, -89.62205428081674 -5.459062316647544, -89.48521317484594 -5.871205925162218 M-89.82860350162323 -4.836968972727544 C-89.69448849833555 -5.24090199430618, -89.56037349504786 -5.644835015884817, -89.48521317484594 -5.871205925162218 M-89.48521317484594 -5.871205925162218 C-89.33883466577372 -6.232763672606532, -89.19245615670151 -6.594321420050846, -89.07626459126881 -6.881316833080692 M-89.48521317484594 -5.871205925162218 C-89.37473456574644 -6.144090225596567, -89.26425595664695 -6.4169745260309154, -89.07626459126881 -6.881316833080692 M-89.07626459126881 -6.881316833080692 C-88.94892089873665 -7.14574873534226, -88.82157720620448 -7.410180637603828, -88.603438208341 -7.863150934094194 M-89.07626459126881 -6.881316833080692 C-88.97013608641673 -7.101694944192284, -88.86400758156464 -7.322073055303874, -88.603438208341 -7.863150934094194 M-88.603438208341 -7.863150934094194 C-88.40814424661133 -8.209915138803257, -88.21285028488165 -8.55667934351232, -88.06867697109088 -8.812673661278929 M-88.603438208341 -7.863150934094194 C-88.3964201948276 -8.230732379934237, -88.18940218131421 -8.59831382577428, -88.06867697109088 -8.812673661278929 M-88.06867697109088 -8.812673661278929 C-87.8894749438693 -9.087976097573375, -87.71027291664771 -9.36327853386782, -87.47417832814826 -9.725983222076884 M-88.06867697109088 -8.812673661278929 C-87.86025417379177 -9.132867047287895, -87.65183137649265 -9.453060433296864, -87.47417832814826 -9.725983222076884 M-87.47417832814826 -9.725983222076884 C-87.25872421962484 -10.014672099225182, -87.04327011110142 -10.30336097637348, -86.82238520195651 -10.599326631598467 M-87.47417832814826 -9.725983222076884 C-87.21814709017545 -10.069041756034828, -86.96211585220263 -10.412100289992773, -86.82238520195651 -10.599326631598467 M-86.82238520195651 -10.599326631598467 C-86.60817746712114 -10.850947225701493, -86.39396973228578 -11.102567819804518, -86.11597595028037 -11.42911513444238 M-86.82238520195651 -10.599326631598467 C-86.60166940886226 -10.858591961251385, -86.38095361576801 -11.117857290904302, -86.11597595028037 -11.42911513444238 M-86.11597595028037 -11.42911513444238 C-85.95567286727217 -11.594641228776219, -85.79536978426398 -11.760167323110055, -85.35785336025927 -12.21193895166136 M-86.11597595028037 -11.42911513444238 C-85.95873757168673 -11.591476669851282, -85.80149919309308 -11.753838205260182, -85.35785336025927 -12.21193895166136 M-85.35785336025927 -12.21193895166136 C-85.12196501921048 -12.426166501738386, -84.88607667816167 -12.640394051815413, -84.55113272023242 -12.944581292275274 M-85.35785336025927 -12.21193895166136 C-85.12478717929926 -12.423603490616008, -84.89172099833927 -12.635268029570657, -84.55113272023242 -12.944581292275274 M-84.55113272023242 -12.944581292275274 C-84.34991352418876 -13.105048246452403, -84.1486943281451 -13.265515200629533, -83.69912901835067 -13.624031571755259 M-84.55113272023242 -12.944581292275274 C-84.27970271669179 -13.161039497043179, -84.00827271315116 -13.377497701811086, -83.69912901835067 -13.624031571755259 M-83.69912901835067 -13.624031571755259 C-83.51065077984691 -13.755505831844038, -83.32217254134315 -13.88698009193282, -82.80534332057934 -14.247497783161284 M-83.69912901835067 -13.624031571755259 C-83.5089577998435 -13.756686781406495, -83.31878658133634 -13.889341991057732, -82.80534332057934 -14.247497783161284 M-82.80534332057934 -14.247497783161284 C-82.5154085505964 -14.42325794457077, -82.22547378061347 -14.599018105980257, -81.87344838406695 -14.812417970097618 M-82.80534332057934 -14.247497783161284 C-82.60128901520889 -14.371196702233052, -82.39723470983844 -14.49489562130482, -81.87344838406695 -14.812417970097618 M-81.87344838406695 -14.812417970097618 C-81.6513051291928 -14.92830996387591, -81.42916187431868 -15.0442019576542, -80.90727356499849 -15.316470754341124 M-81.87344838406695 -14.812417970097618 C-81.53616251067062 -14.988379794206569, -81.1988766372743 -15.164341618315522, -80.90727356499849 -15.316470754341124 M-80.90727356499849 -15.316470754341124 C-80.54655925021002 -15.47614828128801, -80.18584493542154 -15.635825808234898, -79.91078908294936 -15.757584874882365 M-80.90727356499849 -15.316470754341124 C-80.5188746609432 -15.488403427722268, -80.1304757568879 -15.660336101103415, -79.91078908294936 -15.757584874882365 M-79.91078908294936 -15.757584874882365 C-79.68153783086998 -15.841951454822919, -79.45228657879062 -15.926318034763472, -78.88808970640156 -16.133947699181363 M-79.91078908294936 -15.757584874882365 C-79.67610866264324 -15.843949438917042, -79.44142824233712 -15.930314002951718, -78.88808970640156 -16.133947699181363 M-78.88808970640156 -16.133947699181363 C-78.63089888068558 -16.210280586231676, -78.37370805496958 -16.286613473281985, -77.84337792646164 -16.444012671663494 M-78.88808970640156 -16.133947699181363 C-78.6654393932558 -16.200029143407683, -78.44278908011003 -16.266110587634003, -77.84337792646164 -16.444012671663494 M-77.84337792646164 -16.444012671663494 C-77.51088596806129 -16.519901791455577, -77.17839400966092 -16.59579091124766, -76.78094668792333 -16.68650566884811 M-77.84337792646164 -16.444012671663494 C-77.44527002182669 -16.53487820299956, -77.04716211719172 -16.62574373433563, -76.78094668792333 -16.68650566884811 M-76.78094668792333 -16.68650566884811 C-76.49596566014795 -16.732579191357956, -76.21098463237256 -16.778652713867803, -75.70516174863661 -16.86043023499518 M-76.78094668792333 -16.68650566884811 C-76.3957200845372 -16.748786118606652, -76.01049348115109 -16.81106656836519, -75.70516174863661 -16.86043023499518 M-75.70516174863661 -16.86043023499518 C-75.34189594915446 -16.89547404978018, -74.97863014967231 -16.930517864565182, -74.62044373967213 -16.965071676755716 M-75.70516174863661 -16.86043023499518 C-75.32172984180318 -16.89741944990307, -74.93829793496974 -16.934408664810952, -74.62044373967213 -16.965071676755716 M-74.62044373967213 -16.965071676755716 C-74.29369532125408 -16.97554986255717, -73.96694690283603 -16.986028048358623, -73.53125 -17 M-74.62044373967213 -16.965071676755716 C-74.28991836832623 -16.97567098208617, -73.95939299698033 -16.98627028741663, -73.53125 -17 M-73.53125 -17 C-73.53125 -17, -73.53125 -17, -73.53125 -17 M-73.53125 -17 C-73.53125 -17, -73.53125 -17, -73.53125 -17" stroke="#555555" stroke-width="1.3" fill="none" stroke-dasharray="0 0" style=""></path></g><g class="label" style="" transform="translate(0, -9.5)"><rect></rect><g><rect class="background" style="stroke: none"></rect><text y="-10.1" style=""><tspan class="text-outer-tspan row" x="0" y="-0.1em" dy="1.1em"><tspan font-style="normal" class="text-inner-tspan" font-weight="normal">rendering</tspan><tspan font-style="normal" class="text-inner-tspan" font-weight="normal"> opportunity</tspan></tspan></text></g></g></g><g class="node default" id="g33eeac9a-f89d-4e31-9b7a-1f89f5dc8c2d-dark-flowchart-rs-1" data-look="classic" transform="translate(167.4453125, 116.5)"><rect class="basic label-container" style="" x="-74.6875" y="-24.5" width="149.375" height="49"></rect><g class="label" style="" transform="translate(0, -9.5)"><rect></rect><g><rect class="background" style="stroke: none"></rect><text y="-10.1" style=""><tspan class="text-outer-tspan row" x="0" y="-0.1em" dy="1.1em"><tspan font-style="normal" class="text-inner-tspan" font-weight="normal">recalc</tspan><tspan font-style="normal" class="text-inner-tspan" font-weight="normal"> styles</tspan></tspan></text></g></g></g><g class="node default" id="g33eeac9a-f89d-4e31-9b7a-1f89f5dc8c2d-dark-flowchart-ul-2" data-look="classic" transform="translate(167.4453125, 215.5)"><rect class="basic label-container" style="" x="-79.78125" y="-24.5" width="159.5625" height="49"></rect><g class="label" style="" transform="translate(0, -9.5)"><rect></rect><g><rect class="background" style="stroke: none"></rect><text y="-10.1" style=""><tspan class="text-outer-tspan row" x="0" y="-0.1em" dy="1.1em"><tspan font-style="normal" class="text-inner-tspan" font-weight="normal">update</tspan><tspan font-style="normal" class="text-inner-tspan" font-weight="normal"> layout</tspan></tspan></text></g></g></g><g class="node default" id="g33eeac9a-f89d-4e31-9b7a-1f89f5dc8c2d-dark-flowchart-gather-3" data-look="classic" transform="translate(167.4453125, 314.5)"><rect class="basic label-container" style="" x="-124.8984375" y="-24.5" width="249.796875" height="49"></rect><g class="label" style="" transform="translate(0, -9.5)"><rect></rect><g><rect class="background" style="stroke: none"></rect><text y="-10.1" style=""><tspan class="text-outer-tspan row" x="0" y="-0.1em" dy="1.1em"><tspan font-style="normal" class="text-inner-tspan" font-weight="normal">gather</tspan><tspan font-style="normal" class="text-inner-tspan" font-weight="normal"> active</tspan><tspan font-style="normal" class="text-inner-tspan" font-weight="normal"> observations</tspan></tspan></text></g></g></g><g class="node default" id="g33eeac9a-f89d-4e31-9b7a-1f89f5dc8c2d-dark-flowchart-any-5" data-look="classic" transform="translate(167.4453125, 438.3359375)"><polygon points="49.3359375,0 98.671875,-49.3359375 49.3359375,-98.671875 0,-49.3359375" class="label-container" transform="translate(-48.8359375, 49.3359375)"></polygon><g class="label" style="" transform="translate(0, -9.5)"><rect></rect><g><rect class="background" style="stroke: none"></rect><text y="-10.1" style=""><tspan class="text-outer-tspan row" x="0" y="-0.1em" dy="1.1em"><tspan font-style="normal" class="text-inner-tspan" font-weight="normal">active?</tspan></tspan></text></g></g></g><g class="node default" id="g33eeac9a-f89d-4e31-9b7a-1f89f5dc8c2d-dark-flowchart-paint-7" data-look="classic" transform="translate(108.38671875, 1509.787498474121)"><rect class="basic label-container" style="" x="-48.484375" y="-24.5" width="96.96875" height="49"></rect><g class="label" style="" transform="translate(0, -9.5)"><rect></rect><g><rect class="background" style="stroke: none"></rect><text y="-10.1" style=""><tspan class="text-outer-tspan row" x="0" y="-0.1em" dy="1.1em"><tspan font-style="normal" class="text-inner-tspan" font-weight="normal">paint</tspan></tspan></text></g></g></g><g class="node default cb" id="g33eeac9a-f89d-4e31-9b7a-1f89f5dc8c2d-dark-flowchart-bcast-9" data-look="classic" transform="translate(241.8359375, 602.7718734741211)"><rect class="basic label-container" style="fill:#2E5A88 !important;stroke:#1F4870 !important" x="-111.859375" y="-42.099998474121094" width="223.71875" height="84.19999694824219"></rect><g class="label" style="color:#ffffff !important" transform="translate(0, -27.099998474121094)"><rect></rect><g><rect class="background" style="stroke: none"></rect><text y="-10.1" style="fill:#404040 !important"><tspan class="text-outer-tspan row" x="0" y="-0.1em" dy="1.1em"><tspan font-style="normal" class="text-inner-tspan" font-weight="normal">broadcast:</tspan><tspan font-style="normal" class="text-inner-tspan" font-weight="normal"> callbacks</tspan></tspan><tspan class="text-outer-tspan row" x="0" y="1em" dy="1.1em"><tspan font-style="normal" class="text-inner-tspan" font-weight="normal">run&amp;&amp;#10;(layout-only</tspan></tspan><tspan class="text-outer-tspan row" x="0" y="2.1em" dy="1.1em"><tspan font-style="normal" class="text-inner-tspan" font-weight="normal">edits</tspan><tspan font-style="normal" class="text-inner-tspan" font-weight="normal"> ideal</tspan><tspan font-style="normal" class="text-inner-tspan" font-weight="normal"> here)</tspan></tspan></text></g></g></g><g class="node default" id="g33eeac9a-f89d-4e31-9b7a-1f89f5dc8c2d-dark-flowchart-rs2-11" data-look="classic" transform="translate(167.4453125, 719.3718719482422)"><rect class="basic label-container" style="" x="-83.328125" y="-24.5" width="166.65625" height="49"></rect><g class="label" style="" transform="translate(0, -9.5)"><rect></rect><g><rect class="background" style="stroke: none"></rect><text y="-10.1" style=""><tspan class="text-outer-tspan row" x="0" y="-0.1em" dy="1.1em"><tspan font-style="normal" class="text-inner-tspan" font-weight="normal">recalc</tspan><tspan font-style="normal" class="text-inner-tspan" font-weight="normal"> +</tspan><tspan font-style="normal" class="text-inner-tspan" font-weight="normal"> layout</tspan></tspan></text></g></g></g><g class="node default" id="g33eeac9a-f89d-4e31-9b7a-1f89f5dc8c2d-dark-flowchart-gather2-12" data-look="classic" transform="translate(167.4453125, 841.3718719482422)"><rect class="basic label-container" style="" x="-113.78125" y="-24.5" width="227.5625" height="49"></rect><g class="label" style="" transform="translate(0, -9.5)"><rect></rect><g><rect class="background" style="stroke: none"></rect><text y="-10.1" style=""><tspan class="text-outer-tspan row" x="0" y="-0.1em" dy="1.1em"><tspan font-style="normal" class="text-inner-tspan" font-weight="normal">gather</tspan><tspan font-style="normal" class="text-inner-tspan" font-weight="normal"> at</tspan><tspan font-style="normal" class="text-inner-tspan" font-weight="normal"> deeper</tspan><tspan font-style="normal" class="text-inner-tspan" font-weight="normal"> depth</tspan></tspan></text></g></g></g><g class="node default" id="g33eeac9a-f89d-4e31-9b7a-1f89f5dc8c2d-dark-flowchart-any2-14" data-look="classic" transform="translate(241.8359375, 984.7156219482422)"><polygon points="45.84375,0 91.6875,-45.84375 45.84375,-91.6875 0,-45.84375" class="label-container" transform="translate(-45.34375, 45.84375)"></polygon><g class="label" style="" transform="translate(0, -9.5)"><rect></rect><g><rect class="background" style="stroke: none"></rect><text y="-10.1" style=""><tspan class="text-outer-tspan row" x="0" y="-0.1em" dy="1.1em"><tspan font-style="normal" class="text-inner-tspan" font-weight="normal">more?</tspan></tspan></text></g></g></g><g class="node default" id="g33eeac9a-f89d-4e31-9b7a-1f89f5dc8c2d-dark-flowchart-err-18" data-look="classic" transform="translate(241.8359375, 1173.2234344482422)"><polygon points="69.6640625,0 139.328125,-69.6640625 69.6640625,-139.328125 0,-69.6640625" class="label-container" transform="translate(-69.1640625, 69.6640625)"></polygon><g class="label" style="" transform="translate(0, -9.5)"><rect></rect><g><rect class="background" style="stroke: none"></rect><text y="-10.1" style=""><tspan class="text-outer-tspan row" x="0" y="-0.1em" dy="1.1em"><tspan font-style="normal" class="text-inner-tspan" font-weight="normal">any</tspan><tspan font-style="normal" class="text-inner-tspan" font-weight="normal"> skipped?</tspan></tspan></text></g></g></g><g class="node default warn" id="g33eeac9a-f89d-4e31-9b7a-1f89f5dc8c2d-dark-flowchart-loop-20" data-look="classic" transform="translate(328.078125, 1375.5874977111816)"><rect class="basic label-container" style="fill:#B43A3A !important;stroke:#8E2828 !important" x="-126.8203125" y="-59.70000076293945" width="253.640625" height="119.4000015258789"></rect><g class="label" style="color:#ffffff !important" transform="translate(0, -44.70000076293945)"><rect></rect><g><rect class="background" style="stroke: none"></rect><text y="-10.1" style="fill:#404040 !important"><tspan class="text-outer-tspan row" x="0" y="-0.1em" dy="1.1em"><tspan font-style="normal" class="text-inner-tspan" font-weight="normal">fire</tspan></tspan><tspan class="text-outer-tspan row" x="0" y="1em" dy="1.1em"><tspan font-style="normal" class="text-inner-tspan" font-weight="normal">ErrorEvent:&amp;&amp;#10;'ResizeO</tspan></tspan><tspan class="text-outer-tspan row" x="0" y="2.1em" dy="1.1em"><tspan font-style="normal" class="text-inner-tspan" font-weight="normal">bserver</tspan><tspan font-style="normal" class="text-inner-tspan" font-weight="normal"> loop</tspan></tspan><tspan class="text-outer-tspan row" x="0" y="3.2em" dy="1.1em"><tspan font-style="normal" class="text-inner-tspan" font-weight="normal">completed&amp;&amp;#10;with</tspan></tspan><tspan class="text-outer-tspan row" x="0" y="4.300000000000001em" dy="1.1em"><tspan font-style="normal" class="text-inner-tspan" font-weight="normal">undelivered</tspan><tspan font-style="normal" class="text-inner-tspan" font-weight="normal"> notifications'</tspan></tspan></text></g></g></g></g></g></g><defs><filter id="g33eeac9a-f89d-4e31-9b7a-1f89f5dc8c2d-dark-drop-shadow" height="130%" width="130%"><feDropShadow dx="4" dy="4" stdDeviation="0" flood-opacity="0.06" flood-color="#000000"></feDropShadow></filter></defs><defs><filter id="g33eeac9a-f89d-4e31-9b7a-1f89f5dc8c2d-dark-drop-shadow-small" height="150%" width="150%"><feDropShadow dx="2" dy="2" stdDeviation="0" flood-opacity="0.06" flood-color="#000000"></feDropShadow></filter></defs><linearGradient id="g33eeac9a-f89d-4e31-9b7a-1f89f5dc8c2d-dark-gradient" gradientUnits="objectBoundingBox" x1="0%" y1="0%" x2="100%" y2="0%"><stop offset="0%" stop-color="#555555" stop-opacity="1"></stop><stop offset="100%" stop-color="#555555" stop-opacity="1"></stop></linearGradient></svg>