<svg id="g1e693881-b162-4a91-ab96-7071e856fb87-light" width="100%" xmlns="http://www.w3.org/2000/svg" xmlns:xlink="http://www.w3.org/1999/xlink" class="flowchart" style="max-width: 855.3234252929688px;" viewBox="0.5 0 855.3234252929688 817.2188110351562" role="graphics-document document" aria-roledescription="flowchart-v2"><style>#g1e693881-b162-4a91-ab96-7071e856fb87-light{font-family:"trebuchet ms",verdana,arial,sans-serif;font-size:16px;fill:#333;}@keyframes edge-animation-frame{from{stroke-dashoffset:0;}}@keyframes dash{to{stroke-dashoffset:0;}}#g1e693881-b162-4a91-ab96-7071e856fb87-light .edge-animation-slow{stroke-dasharray:9,5!important;stroke-dashoffset:900;animation:dash 50s linear infinite;stroke-linecap:round;}#g1e693881-b162-4a91-ab96-7071e856fb87-light .edge-animation-fast{stroke-dasharray:9,5!important;stroke-dashoffset:900;animation:dash 20s linear infinite;stroke-linecap:round;}#g1e693881-b162-4a91-ab96-7071e856fb87-light .error-icon{fill:#552222;}#g1e693881-b162-4a91-ab96-7071e856fb87-light .error-text{fill:#552222;stroke:#552222;}#g1e693881-b162-4a91-ab96-7071e856fb87-light .edge-thickness-normal{stroke-width:1px;}#g1e693881-b162-4a91-ab96-7071e856fb87-light .edge-thickness-thick{stroke-width:3.5px;}#g1e693881-b162-4a91-ab96-7071e856fb87-light .edge-pattern-solid{stroke-dasharray:0;}#g1e693881-b162-4a91-ab96-7071e856fb87-light .edge-thickness-invisible{stroke-width:0;fill:none;}#g1e693881-b162-4a91-ab96-7071e856fb87-light .edge-pattern-dashed{stroke-dasharray:3;}#g1e693881-b162-4a91-ab96-7071e856fb87-light .edge-pattern-dotted{stroke-dasharray:2;}#g1e693881-b162-4a91-ab96-7071e856fb87-light .marker{fill:#333333;stroke:#333333;}#g1e693881-b162-4a91-ab96-7071e856fb87-light .marker.cross{stroke:#333333;}#g1e693881-b162-4a91-ab96-7071e856fb87-light svg{font-family:"trebuchet ms",verdana,arial,sans-serif;font-size:16px;}#g1e693881-b162-4a91-ab96-7071e856fb87-light p{margin:0;}#g1e693881-b162-4a91-ab96-7071e856fb87-light .label{font-family:"trebuchet ms",verdana,arial,sans-serif;color:#333;}#g1e693881-b162-4a91-ab96-7071e856fb87-light .cluster-label text{fill:#333;}#g1e693881-b162-4a91-ab96-7071e856fb87-light .cluster-label span{color:#333;}#g1e693881-b162-4a91-ab96-7071e856fb87-light .cluster-label span p{background-color:transparent;}#g1e693881-b162-4a91-ab96-7071e856fb87-light .label text,#g1e693881-b162-4a91-ab96-7071e856fb87-light span{fill:#333;color:#333;}#g1e693881-b162-4a91-ab96-7071e856fb87-light .node rect,#g1e693881-b162-4a91-ab96-7071e856fb87-light .node circle,#g1e693881-b162-4a91-ab96-7071e856fb87-light .node ellipse,#g1e693881-b162-4a91-ab96-7071e856fb87-light .node polygon,#g1e693881-b162-4a91-ab96-7071e856fb87-light .node path{fill:#ECECFF;stroke:#9370DB;stroke-width:1px;}#g1e693881-b162-4a91-ab96-7071e856fb87-light .rough-node .label text,#g1e693881-b162-4a91-ab96-7071e856fb87-light .node .label text,#g1e693881-b162-4a91-ab96-7071e856fb87-light .image-shape .label,#g1e693881-b162-4a91-ab96-7071e856fb87-light .icon-shape .label{text-anchor:middle;}#g1e693881-b162-4a91-ab96-7071e856fb87-light .node .katex path{fill:#000;stroke:#000;stroke-width:1px;}#g1e693881-b162-4a91-ab96-7071e856fb87-light .rough-node .label,#g1e693881-b162-4a91-ab96-7071e856fb87-light .node .label,#g1e693881-b162-4a91-ab96-7071e856fb87-light .image-shape .label,#g1e693881-b162-4a91-ab96-7071e856fb87-light .icon-shape .label{text-align:center;}#g1e693881-b162-4a91-ab96-7071e856fb87-light .node.clickable{cursor:pointer;}#g1e693881-b162-4a91-ab96-7071e856fb87-light .root .anchor path{fill:#333333!important;stroke-width:0;stroke:#333333;}#g1e693881-b162-4a91-ab96-7071e856fb87-light .arrowheadPath{fill:#333333;}#g1e693881-b162-4a91-ab96-7071e856fb87-light .edgePath .path{stroke:#333333;stroke-width:1px;}#g1e693881-b162-4a91-ab96-7071e856fb87-light .flowchart-link{stroke:#333333;fill:none;}#g1e693881-b162-4a91-ab96-7071e856fb87-light .edgeLabel{background-color:rgba(232,232,232, 0.8);text-align:center;}#g1e693881-b162-4a91-ab96-7071e856fb87-light .edgeLabel p{background-color:rgba(232,232,232, 0.8);}#g1e693881-b162-4a91-ab96-7071e856fb87-light .edgeLabel rect{opacity:0.5;background-color:rgba(232,232,232, 0.8);fill:rgba(232,232,232, 0.8);}#g1e693881-b162-4a91-ab96-7071e856fb87-light .labelBkg{background-color:rgba(232, 232, 232, 0.5);}#g1e693881-b162-4a91-ab96-7071e856fb87-light .cluster rect{fill:#ffffde;stroke:#aaaa33;stroke-width:1px;}#g1e693881-b162-4a91-ab96-7071e856fb87-light .cluster text{fill:#333;}#g1e693881-b162-4a91-ab96-7071e856fb87-light .cluster span{color:#333;}#g1e693881-b162-4a91-ab96-7071e856fb87-light div.mermaidTooltip{position:absolute;text-align:center;max-width:200px;padding:2px;font-family:"trebuchet ms",verdana,arial,sans-serif;font-size:12px;background:hsl(80, 100%, 96.2745098039%);border:1px solid #aaaa33;border-radius:2px;pointer-events:none;z-index:100;}#g1e693881-b162-4a91-ab96-7071e856fb87-light .flowchartTitleText{text-anchor:middle;font-size:18px;fill:#333;}#g1e693881-b162-4a91-ab96-7071e856fb87-light rect.text{fill:none;stroke-width:0;}#g1e693881-b162-4a91-ab96-7071e856fb87-light .icon-shape,#g1e693881-b162-4a91-ab96-7071e856fb87-light .image-shape{background-color:rgba(232,232,232, 0.8);text-align:center;}#g1e693881-b162-4a91-ab96-7071e856fb87-light .icon-shape p,#g1e693881-b162-4a91-ab96-7071e856fb87-light .image-shape p{background-color:rgba(232,232,232, 0.8);padding:2px;}#g1e693881-b162-4a91-ab96-7071e856fb87-light .icon-shape .label rect,#g1e693881-b162-4a91-ab96-7071e856fb87-light .image-shape .label rect{opacity:0.5;background-color:rgba(232,232,232, 0.8);fill:rgba(232,232,232, 0.8);}#g1e693881-b162-4a91-ab96-7071e856fb87-light .label-icon{display:inline-block;height:1em;overflow:visible;vertical-align:-0.125em;}#g1e693881-b162-4a91-ab96-7071e856fb87-light .node .label-icon path{fill:currentColor;stroke:revert;stroke-width:revert;}#g1e693881-b162-4a91-ab96-7071e856fb87-light .node .neo-node{stroke:#9370DB;}#g1e693881-b162-4a91-ab96-7071e856fb87-light [data-look="neo"].node rect,#g1e693881-b162-4a91-ab96-7071e856fb87-light [data-look="neo"].cluster rect,#g1e693881-b162-4a91-ab96-7071e856fb87-light [data-look="neo"].node polygon{stroke:#9370DB;filter:drop-shadow(1px 2px 2px rgba(185, 185, 185, 1));}#g1e693881-b162-4a91-ab96-7071e856fb87-light [data-look="neo"].node path{stroke:#9370DB;stroke-width:1px;}#g1e693881-b162-4a91-ab96-7071e856fb87-light [data-look="neo"].node .outer-path{filter:drop-shadow(1px 2px 2px rgba(185, 185, 185, 1));}#g1e693881-b162-4a91-ab96-7071e856fb87-light [data-look="neo"].node .neo-line path{stroke:#9370DB;filter:none;}#g1e693881-b162-4a91-ab96-7071e856fb87-light [data-look="neo"].node circle{stroke:#9370DB;filter:drop-shadow(1px 2px 2px rgba(185, 185, 185, 1));}#g1e693881-b162-4a91-ab96-7071e856fb87-light [data-look="neo"].node circle .state-start{fill:#000000;}#g1e693881-b162-4a91-ab96-7071e856fb87-light [data-look="neo"].icon-shape .icon{fill:#9370DB;filter:drop-shadow(1px 2px 2px rgba(185, 185, 185, 1));}#g1e693881-b162-4a91-ab96-7071e856fb87-light [data-look="neo"].icon-shape .icon-neo path{stroke:#9370DB;filter:drop-shadow(1px 2px 2px rgba(185, 185, 185, 1));}#g1e693881-b162-4a91-ab96-7071e856fb87-light :root{--mermaid-font-family:"trebuchet ms",verdana,arial,sans-serif;}</style><g><marker id="g1e693881-b162-4a91-ab96-7071e856fb87-light_flowchart-v2-pointEnd" class="marker flowchart-v2" viewBox="0 0 10 10" refX="5" refY="5" markerUnits="userSpaceOnUse" markerWidth="8" markerHeight="8" orient="auto"><path d="M 0 0 L 10 5 L 0 10 z" class="arrowMarkerPath" style="stroke-width: 1; stroke-dasharray: 1, 0;"></path></marker><marker id="g1e693881-b162-4a91-ab96-7071e856fb87-light_flowchart-v2-pointStart" class="marker flowchart-v2" viewBox="0 0 10 10" refX="4.5" refY="5" markerUnits="userSpaceOnUse" markerWidth="8" markerHeight="8" orient="auto"><path d="M 0 5 L 10 10 L 10 0 z" class="arrowMarkerPath" style="stroke-width: 1; stroke-dasharray: 1, 0;"></path></marker><marker id="g1e693881-b162-4a91-ab96-7071e856fb87-light_flowchart-v2-pointEnd-margin" class="marker flowchart-v2" viewBox="0 0 11.5 14" refX="11.5" refY="7" markerUnits="userSpaceOnUse" markerWidth="10.5" markerHeight="14" orient="auto"><path d="M 0 0 L 11.5 7 L 0 14 z" class="arrowMarkerPath" style="stroke-width: 0; stroke-dasharray: 1, 0;"></path></marker><marker id="g1e693881-b162-4a91-ab96-7071e856fb87-light_flowchart-v2-pointStart-margin" class="marker flowchart-v2" viewBox="0 0 11.5 14" refX="1" refY="7" markerUnits="userSpaceOnUse" markerWidth="11.5" markerHeight="14" orient="auto"><polygon points="0,7 11.5,14 11.5,0" class="arrowMarkerPath" style="stroke-width: 0; stroke-dasharray: 1, 0;"></polygon></marker><marker id="g1e693881-b162-4a91-ab96-7071e856fb87-light_flowchart-v2-circleEnd" class="marker flowchart-v2" viewBox="0 0 10 10" refX="11" refY="5" markerUnits="userSpaceOnUse" markerWidth="11" markerHeight="11" orient="auto"><circle cx="5" cy="5" r="5" class="arrowMarkerPath" style="stroke-width: 1; stroke-dasharray: 1, 0;"></circle></marker><marker id="g1e693881-b162-4a91-ab96-7071e856fb87-light_flowchart-v2-circleStart" class="marker flowchart-v2" viewBox="0 0 10 10" refX="-1" refY="5" markerUnits="userSpaceOnUse" markerWidth="11" markerHeight="11" orient="auto"><circle cx="5" cy="5" r="5" class="arrowMarkerPath" style="stroke-width: 1; stroke-dasharray: 1, 0;"></circle></marker><marker id="g1e693881-b162-4a91-ab96-7071e856fb87-light_flowchart-v2-circleEnd-margin" class="marker flowchart-v2" viewBox="0 0 10 10" refY="5" refX="12.25" markerUnits="userSpaceOnUse" markerWidth="14" markerHeight="14" orient="auto"><circle cx="5" cy="5" r="5" class="arrowMarkerPath" style="stroke-width: 0; stroke-dasharray: 1, 0;"></circle></marker><marker id="g1e693881-b162-4a91-ab96-7071e856fb87-light_flowchart-v2-circleStart-margin" class="marker flowchart-v2" viewBox="0 0 10 10" refX="-2" refY="5" markerUnits="userSpaceOnUse" markerWidth="14" markerHeight="14" orient="auto"><circle cx="5" cy="5" r="5" class="arrowMarkerPath" style="stroke-width: 0; stroke-dasharray: 1, 0;"></circle></marker><marker id="g1e693881-b162-4a91-ab96-7071e856fb87-light_flowchart-v2-crossEnd" class="marker cross flowchart-v2" viewBox="0 0 11 11" refX="12" refY="5.2" markerUnits="userSpaceOnUse" markerWidth="11" markerHeight="11" orient="auto"><path d="M 1,1 l 9,9 M 10,1 l -9,9" class="arrowMarkerPath" style="stroke-width: 2; stroke-dasharray: 1, 0;"></path></marker><marker id="g1e693881-b162-4a91-ab96-7071e856fb87-light_flowchart-v2-crossStart" class="marker cross flowchart-v2" viewBox="0 0 11 11" refX="-1" refY="5.2" markerUnits="userSpaceOnUse" markerWidth="11" markerHeight="11" orient="auto"><path d="M 1,1 l 9,9 M 10,1 l -9,9" class="arrowMarkerPath" style="stroke-width: 2; stroke-dasharray: 1, 0;"></path></marker><marker id="g1e693881-b162-4a91-ab96-7071e856fb87-light_flowchart-v2-crossEnd-margin" class="marker cross flowchart-v2" viewBox="0 0 15 15" refX="17.7" refY="7.5" markerUnits="userSpaceOnUse" markerWidth="12" markerHeight="12" orient="auto"><path d="M 1,1 L 14,14 M 1,14 L 14,1" class="arrowMarkerPath" style="stroke-width: 2.5;"></path></marker><marker id="g1e693881-b162-4a91-ab96-7071e856fb87-light_flowchart-v2-crossStart-margin" class="marker cross flowchart-v2" viewBox="0 0 15 15" refX="-3.5" refY="7.5" markerUnits="userSpaceOnUse" markerWidth="12" markerHeight="12" orient="auto"><path d="M 1,1 L 14,14 M 1,14 L 14,1" class="arrowMarkerPath" style="stroke-width: 2.5; stroke-dasharray: 1, 0;"></path></marker><g class="root"><g class="clusters"></g><g class="edgePaths"><path d="M347.641,36.3L310.936,41.417C274.23,46.534,200.82,56.767,164.115,65.383C127.409,74,127.409,81,127.409,84.5L127.409,88" id="g1e693881-b162-4a91-ab96-7071e856fb87-light-L_Start_Resource_0" class="edge-thickness-normal edge-pattern-solid edge-thickness-normal edge-pattern-solid flowchart-link" style=";" data-edge="true" data-et="edge" data-id="L_Start_Resource_0" data-points="W3sieCI6MzQ3LjY0MTAyNjAxMTQ3NjcsInkiOjM2LjMwMDQ1MDU5ODcxNTF9LHsieCI6MTI3LjQwOTM3ODA1MTc1NzgxLCJ5Ijo2N30seyJ4IjoxMjcuNDA5Mzc4MDUxNzU3ODEsInkiOjkyfV0=" data-look="classic" marker-end="url(#g1e693881-b162-4a91-ab96-7071e856fb87-light_flowchart-v2-pointEnd)"></path><path d="M423.706,42.5L423.623,46.583C423.54,50.667,423.373,58.833,423.29,66.918C423.206,75.003,423.206,83.005,423.206,87.007L423.206,91.008" id="g1e693881-b162-4a91-ab96-7071e856fb87-light-L_Start_Service_0" class="edge-thickness-normal edge-pattern-solid edge-thickness-normal edge-pattern-solid flowchart-link" style=";" data-edge="true" data-et="edge" data-id="L_Start_Service_0" data-points="W3sieCI6NDIzLjcwNjI1MzA1MTc1NzgsInkiOjQyLjV9LHsieCI6NDIzLjIwNjI1MzA1MTc1NzgsInkiOjY3fSx7IngiOjQyMy4yMDYyNTMwNTE3NTc4LCJ5Ijo5NS4wMDc4MTI0OTk5OTk5NH1d" data-look="classic" marker-end="url(#g1e693881-b162-4a91-ab96-7071e856fb87-light_flowchart-v2-pointEnd)"></path><path d="M499.925,36.12L537.378,41.266C574.831,46.413,649.738,56.707,687.191,68.154C724.644,79.602,724.644,92.203,724.644,98.504L724.644,104.805" id="g1e693881-b162-4a91-ab96-7071e856fb87-light-L_Start_UserFacing_0" class="edge-thickness-normal edge-pattern-solid edge-thickness-normal edge-pattern-solid flowchart-link" style=";" data-edge="true" data-et="edge" data-id="L_Start_UserFacing_0" data-points="W3sieCI6NDk5LjkyNTI5MDg1NjUwNjcsInkiOjM2LjExOTc3ODg1MjMzMDc2fSx7IngiOjcyNC42NDM3NTMwNTE3NTc4LCJ5Ijo2N30seyJ4Ijo3MjQuNjQzNzUzMDUxNzU3OCwieSI6MTA4LjgwNDY4NzQ5OTk5OTk3fV0=" data-look="classic" marker-end="url(#g1e693881-b162-4a91-ab96-7071e856fb87-light_flowchart-v2-pointEnd)"></path><path d="M127.409,330.819L127.409,336.902C127.409,342.985,127.409,355.152,127.409,368.119C127.409,381.085,127.409,394.852,127.409,401.735L127.409,408.619" id="g1e693881-b162-4a91-ab96-7071e856fb87-light-L_Resource_USE_0" class="edge-thickness-normal edge-pattern-solid edge-thickness-normal edge-pattern-solid flowchart-link" style=";" data-edge="true" data-et="edge" data-id="L_Resource_USE_0" data-points="W3sieCI6MTI3LjQwOTM3ODA1MTc1NzgsInkiOjMzMC44MTg3NTYxMDM1MTU3fSx7IngiOjEyNy40MDkzNzgwNTE3NTc4MSwieSI6MzY3LjMxODc1NjEwMzUxNTZ9LHsieCI6MTI3LjQwOTM3ODA1MTc1NzgxLCJ5Ijo0MTIuNjE4NzU1MzQwNTc2Mn1d" data-look="classic" marker-end="url(#g1e693881-b162-4a91-ab96-7071e856fb87-light_flowchart-v2-pointEnd)"></path><path d="M423.206,327.811L423.206,334.396C423.206,340.98,423.206,354.149,423.206,370.551C423.206,386.952,423.206,406.585,423.206,416.402L423.206,426.219" id="g1e693881-b162-4a91-ab96-7071e856fb87-light-L_Service_RED_0" class="edge-thickness-normal edge-pattern-solid edge-thickness-normal edge-pattern-solid flowchart-link" style=";" data-edge="true" data-et="edge" data-id="L_Service_RED_0" data-points="W3sieCI6NDIzLjIwNjI1MzA1MTc1NzgsInkiOjMyNy44MTA5NDM2MDM1MTU2fSx7IngiOjQyMy4yMDYyNTMwNTE3NTc4LCJ5IjozNjcuMzE4NzU2MTAzNTE1Nn0seyJ4Ijo0MjMuMjA2MjUzMDUxNzU3OCwieSI6NDMwLjIxODc1NzYyOTM5NDUzfV0=" data-look="classic" marker-end="url(#g1e693881-b162-4a91-ab96-7071e856fb87-light_flowchart-v2-pointEnd)"></path><path d="M724.644,314.014L724.644,322.898C724.644,331.782,724.644,349.551,724.644,363.851C724.644,378.152,724.644,388.985,724.644,394.402L724.644,399.819" id="g1e693881-b162-4a91-ab96-7071e856fb87-light-L_UserFacing_Golden_0" class="edge-thickness-normal edge-pattern-solid edge-thickness-normal edge-pattern-solid flowchart-link" style=";" data-edge="true" data-et="edge" data-id="L_UserFacing_Golden_0" data-points="W3sieCI6NzI0LjY0Mzc1MzA1MTc1NzgsInkiOjMxNC4wMTQwNjg2MDM1MTU2fSx7IngiOjcyNC42NDM3NTMwNTE3NTc4LCJ5IjozNjcuMzE4NzU2MTAzNTE1Nn0seyJ4Ijo3MjQuNjQzNzUzMDUxNzU3OCwieSI6NDAzLjgxODc1NjEwMzUxNTZ9XQ==" data-look="classic" marker-end="url(#g1e693881-b162-4a91-ab96-7071e856fb87-light_flowchart-v2-pointEnd)"></path><path d="M423.206,514.419L423.206,522.985C423.206,531.552,423.206,548.685,431.956,561.148C440.706,573.61,458.206,581.401,466.957,585.296L475.707,589.192" id="g1e693881-b162-4a91-ab96-7071e856fb87-light-L_RED_Slo_0" class="edge-thickness-normal edge-pattern-solid edge-thickness-normal edge-pattern-solid flowchart-link" style=";" data-edge="true" data-et="edge" data-id="L_RED_Slo_0" data-points="W3sieCI6NDIzLjIwNjI1MzA1MTc1NzgsInkiOjUxNC40MTg3NTQ1Nzc2MzY3fSx7IngiOjQyMy4yMDYyNTMwNTE3NTc4LCJ5Ijo1NjUuODE4NzU2MTAzNTE1Nn0seyJ4Ijo0NzkuMzYwNzgxMTU0MzY2LCJ5Ijo1OTAuODE4NzU2MTAzNTE1Nn1d" data-look="classic" marker-end="url(#g1e693881-b162-4a91-ab96-7071e856fb87-light_flowchart-v2-pointEnd)"></path><path d="M724.644,540.819L724.644,544.985C724.644,549.152,724.644,557.485,715.894,565.548C707.144,573.61,689.644,581.401,680.893,585.296L672.143,589.192" id="g1e693881-b162-4a91-ab96-7071e856fb87-light-L_Golden_Slo_0" class="edge-thickness-normal edge-pattern-solid edge-thickness-normal edge-pattern-solid flowchart-link" style=";" data-edge="true" data-et="edge" data-id="L_Golden_Slo_0" data-points="W3sieCI6NzI0LjY0Mzc1MzA1MTc1NzgsInkiOjU0MC44MTg3NTYxMDM1MTU2fSx7IngiOjcyNC42NDM3NTMwNTE3NTc4LCJ5Ijo1NjUuODE4NzU2MTAzNTE1Nn0seyJ4Ijo2NjguNDg5MjI0OTQ5MTQ5NiwieSI6NTkwLjgxODc1NjEwMzUxNTZ9XQ==" data-look="classic" marker-end="url(#g1e693881-b162-4a91-ab96-7071e856fb87-light_flowchart-v2-pointEnd)"></path><path d="M573.925,675.019L573.925,679.185C573.925,683.352,573.925,691.685,573.925,699.352C573.925,707.019,573.925,714.019,573.925,717.519L573.925,721.019" id="g1e693881-b162-4a91-ab96-7071e856fb87-light-L_Slo_Alert_0" class="edge-thickness-normal edge-pattern-solid edge-thickness-normal edge-pattern-solid flowchart-link" style=";" data-edge="true" data-et="edge" data-id="L_Slo_Alert_0" data-points="W3sieCI6NTczLjkyNTAwMzA1MTc1NzgsInkiOjY3NS4wMTg3NTMwNTE3NTc4fSx7IngiOjU3My45MjUwMDMwNTE3NTc4LCJ5Ijo3MDAuMDE4NzUzMDUxNzU3OH0seyJ4Ijo1NzMuOTI1MDAzMDUxNzU3OCwieSI6NzI1LjAxODc1MzA1MTc1Nzh9XQ==" data-look="classic" marker-end="url(#g1e693881-b162-4a91-ab96-7071e856fb87-light_flowchart-v2-pointEnd)"></path></g><g class="edgeLabels"><g class="edgeLabel"><g class="label" data-id="L_Start_Resource_0" transform="translate(0, 0)"><text y="-10.1" text-anchor="middle"><tspan class="text-outer-tspan row" x="0" y="-0.1em" dy="1.1em" text-anchor="middle"></tspan></text></g></g><g><rect class="background" style="stroke: none"></rect></g><g class="edgeLabel"><g class="label" data-id="L_Start_Service_0" transform="translate(0, 0)"><text y="-10.1" text-anchor="middle"><tspan class="text-outer-tspan row" x="0" y="-0.1em" dy="1.1em" text-anchor="middle"></tspan></text></g></g><g><rect class="background" style="stroke: none"></rect></g><g class="edgeLabel"><g class="label" data-id="L_Start_UserFacing_0" transform="translate(0, 0)"><text y="-10.1" text-anchor="middle"><tspan class="text-outer-tspan row" x="0" y="-0.1em" dy="1.1em" text-anchor="middle"></tspan></text></g></g><g><rect class="background" style="stroke: none"></rect></g><g class="edgeLabel" transform="translate(127.40937805175781, 367.3187561035156)"><g class="label" data-id="L_Resource_USE_0" transform="translate(0, -10.5)"><g><rect class="background" style="" x="-13.546875" y="-1" width="27.09375" height="23"></rect><text y="-10.1" text-anchor="middle" style=""><tspan class="text-outer-tspan row" x="0" y="-0.1em" dy="1.1em" text-anchor="middle"><tspan font-style="normal" class="text-inner-tspan" font-weight="normal">yes</tspan></tspan></text></g></g></g><g class="edgeLabel" transform="translate(423.2062530517578, 367.3187561035156)"><g class="label" data-id="L_Service_RED_0" transform="translate(0, -10.5)"><g><rect class="background" style="" x="-13.546875" y="-1" width="27.09375" height="23"></rect><text y="-10.1" text-anchor="middle" style=""><tspan class="text-outer-tspan row" x="0" y="-0.1em" dy="1.1em" text-anchor="middle"><tspan font-style="normal" class="text-inner-tspan" font-weight="normal">yes</tspan></tspan></text></g></g></g><g class="edgeLabel" transform="translate(724.6437530517578, 367.3187561035156)"><g class="label" data-id="L_UserFacing_Golden_0" transform="translate(0, -10.5)"><g><rect class="background" style="" x="-13.546875" y="-1" width="27.09375" height="23"></rect><text y="-10.1" text-anchor="middle" style=""><tspan class="text-outer-tspan row" x="0" y="-0.1em" dy="1.1em" text-anchor="middle"><tspan font-style="normal" class="text-inner-tspan" font-weight="normal">yes</tspan></tspan></text></g></g></g><g class="edgeLabel"><g class="label" data-id="L_RED_Slo_0" transform="translate(0, 0)"><text y="-10.1" text-anchor="middle"><tspan class="text-outer-tspan row" x="0" y="-0.1em" dy="1.1em" text-anchor="middle"></tspan></text></g></g><g><rect class="background" style="stroke: none"></rect></g><g class="edgeLabel"><g class="label" data-id="L_Golden_Slo_0" transform="translate(0, 0)"><text y="-10.1" text-anchor="middle"><tspan class="text-outer-tspan row" x="0" y="-0.1em" dy="1.1em" text-anchor="middle"></tspan></text></g></g><g><rect class="background" style="stroke: none"></rect></g><g class="edgeLabel"><g class="label" data-id="L_Slo_Alert_0" transform="translate(0, 0)"><text y="-10.1" text-anchor="middle"><tspan class="text-outer-tspan row" x="0" y="-0.1em" dy="1.1em" text-anchor="middle"></tspan></text></g></g><g><rect class="background" style="stroke: none"></rect></g></g><g class="nodes"><g class="node default" id="g1e693881-b162-4a91-ab96-7071e856fb87-light-flowchart-Start-0" data-look="classic" transform="translate(423.2062530517578, 25)"><g class="basic label-container outer-path"><path d="M-62.9453125 -17 C-33.36985108577667 -17, -3.794389671553354 -17, 62.9453125 -17 C62.9453125 -17, 62.9453125 -17, 62.9453125 -17 C63.17364899776577 -16.992677692946682, 63.40198549553153 -16.985355385893364, 64.03450623967211 -16.965071676755716 C64.31679708299619 -16.937839418604653, 64.59908792632027 -16.91060716045359, 65.1192242486366 -16.860430234995185 C65.38530775851834 -16.817411916625943, 65.65139126840009 -16.7743935982567, 66.19500918792333 -16.686505668848113 C66.44660034006556 -16.62908163015735, 66.69819149220778 -16.57165759146659, 67.25744042646163 -16.4440126716635 C67.52367135682563 -16.364996729006137, 67.78990228718962 -16.285980786348773, 68.30215220640156 -16.133947699181366 C68.51181650486535 -16.056789299231163, 68.72148080332914 -15.979630899280957, 69.32485158294936 -15.757584874882369 C69.65227227043087 -15.612645449123912, 69.97969295791238 -15.467706023365453, 70.32133606499849 -15.316470754341125 C70.56748579984999 -15.188054595335524, 70.81363553470149 -15.059638436329925, 71.28751088406693 -14.812417970097622 C71.59891442937393 -14.623643310922155, 71.91031797468095 -14.434868651746688, 72.21940582057933 -14.247497783161291 C72.47630567450025 -14.068295566081494, 72.73320552842117 -13.889093349001698, 73.11319151835067 -13.624031571755262 C73.42447523748544 -13.375791089352942, 73.7357589566202 -13.127550606950624, 73.9651952202324 -12.944581292275288 C74.2774313140366 -12.661016733196645, 74.5896674078408 -12.377452174118002, 74.77191586025927 -12.21193895166137 C75.03196986035414 -11.943411845732939, 75.292023860449 -11.674884739804508, 75.53003845028036 -11.42911513444239 C75.78756207087791 -11.126613236179372, 76.04508569147548 -10.824111337916353, 76.23644770195651 -10.59932663159847 C76.4119429770492 -10.364178950922739, 76.58743825214187 -10.129031270247006, 76.88824082814824 -9.725983222076888 C77.08839707799652 -9.418489472831213, 77.2885533278448 -9.11099572358554, 77.48273947109088 -8.812673661278927 C77.63135227356263 -8.548796581812265, 77.77996507603439 -8.284919502345602, 78.017500708341 -7.863150934094199 C78.19894141765721 -7.486385418989828, 78.38038212697342 -7.109619903885457, 78.49032709126881 -6.881316833080699 C78.57651374861729 -6.668434123124298, 78.66270040596577 -6.455551413167897, 78.89927567484592 -5.871205925162238 C78.96961104872412 -5.659366985461097, 79.0399464226023 -5.447528045759956, 79.24266600162323 -4.836968972727556 C79.30643848607504 -4.593776850343229, 79.37021097052684 -4.3505847279589025, 79.519087007091 -3.7828558772573464 C79.59688563679067 -3.3833763564957273, 79.67468426649035 -2.983896835734108, 79.72740281804565 -2.713198215567453 C79.7814269831712 -2.2941974591317233, 79.83545114829676 -1.8751967026959935, 79.86675742013637 -1.632391440430593 C79.88591123392433 -1.3340553300029399, 79.90506504771228 -1.0357192195752867, 79.9365781754117 -0.5448768187181379 C79.9365781754117 -0.24776882968340996, 79.9365781754117 0.04933915935131794, 79.9365781754117 0.5448768187181336 C79.9189775008515 0.8190215320021061, 79.90137682629128 1.0931662452860786, 79.86675742013637 1.6323914404305815 C79.82982339244839 1.9188444657298334, 79.79288936476041 2.2052974910290852, 79.72740281804565 2.7131982155674415 C79.65329096364127 3.093746924387931, 79.5791791092369 3.4742956332084205, 79.519087007091 3.782855877257343 C79.42378506567064 4.1462834840158775, 79.32848312425028 4.509711090774411, 79.24266600162323 4.836968972727545 C79.15901827390532 5.088902601158382, 79.07537054618741 5.340836229589218, 78.89927567484592 5.871205925162227 C78.78348705805817 6.157206047248601, 78.66769844127042 6.443206169334976, 78.49032709126881 6.881316833080694 C78.32081764720799 7.233306820594076, 78.15130820314717 7.585296808107457, 78.017500708341 7.863150934094196 C77.82847362958547 8.198787653491957, 77.63944655082993 8.534424372889717, 77.48273947109088 8.812673661278923 C77.33111835559566 9.045604410649863, 77.17949724010045 9.278535160020805, 76.88824082814826 9.725983222076879 C76.69391504176963 9.986362072380905, 76.499589255391 10.24674092268493, 76.23644770195651 10.599326631598467 C76.00003078693649 10.877035392484537, 75.76361387191648 11.154744153370606, 75.53003845028037 11.42911513444238 C75.28519034825833 11.681940902183168, 75.04034224623628 11.934766669923956, 74.77191586025927 12.211938951661365 C74.5897761172595 12.377353447100232, 74.40763637425975 12.542767942539097, 73.96519522023242 12.944581292275275 C73.6701705126088 13.179855645667912, 73.37514580498521 13.415129999060548, 73.11319151835067 13.62403157175526 C72.87935333373072 13.787146966654277, 72.64551514911076 13.950262361553294, 72.21940582057934 14.247497783161286 C71.93454150972472 14.420184202449866, 71.6496771988701 14.592870621738445, 71.28751088406695 14.81241797009762 C71.03474927948696 14.944283537305463, 70.78198767490697 15.076149104513304, 70.32133606499849 15.316470754341124 C70.1088798297228 15.410518827407374, 69.8964235944471 15.504566900473625, 69.32485158294936 15.757584874882367 C68.95190750023004 15.894831744780392, 68.57896341751069 16.032078614678415, 68.30215220640156 16.133947699181363 C68.09043221335672 16.196785081776152, 67.87871222031187 16.25962246437094, 67.25744042646164 16.444012671663497 C66.90250790072852 16.525023704510897, 66.5475753749954 16.606034737358293, 66.19500918792333 16.68650566884811 C65.82435138777788 16.746430747481455, 65.45369358763243 16.8063558261148, 65.11922424863661 16.86043023499518 C64.70728231676426 16.900169777730248, 64.29534038489192 16.93990932046532, 64.03450623967211 16.965071676755716 C63.771664729820415 16.973500492386698, 63.50882321996872 16.98192930801768, 62.9453125 17 C62.9453125 17, 62.9453125 17, 62.9453125 17 C17.153108620723344 17, -28.63909525855331 17, -62.9453125 17 C-63.29554724136681 16.988768653534933, -63.64578198273363 16.97753730706987, -64.03450623967211 16.965071676755716 C-64.27364132388757 16.942002602783468, -64.51277640810304 16.918933528811216, -65.1192242486366 16.86043023499518 C-65.51544311499381 16.79637264140575, -65.91166198135102 16.732315047816314, -66.19500918792333 16.68650566884811 C-66.52523612295614 16.61113352585901, -66.85546305798896 16.53576138286991, -67.25744042646161 16.4440126716635 C-67.57457275453619 16.34988946135253, -67.89170508261076 16.255766251041557, -68.30215220640154 16.13394769918137 C-68.62150060484348 16.016424536530504, -68.94084900328541 15.898901373879639, -69.32485158294936 15.757584874882369 C-69.64114320529626 15.61757195612702, -69.95743482764314 15.47755903737167, -70.32133606499849 15.316470754341127 C-70.55656455195351 15.193752203367728, -70.79179303890854 15.071033652394327, -71.28751088406693 14.812417970097624 C-71.60153770945465 14.622053063121127, -71.91556453484236 14.431688156144629, -72.21940582057931 14.247497783161299 C-72.44314624078672 14.091426151591303, -72.66688666099412 13.935354520021306, -73.11319151835067 13.624031571755264 C-73.40653439649209 13.390098432619311, -73.69987727463351 13.156165293483358, -73.9651952202324 12.94458129227529 C-74.27822826004608 12.66029296791688, -74.59126129985975 12.376004643558469, -74.77191586025926 12.211938951661377 C-75.02891953545823 11.946561556624296, -75.28592321065719 11.681184161587215, -75.53003845028036 11.429115134442386 C-75.6845605729275 11.247604656623192, -75.83908269557465 11.066094178804, -76.23644770195651 10.599326631598473 C-76.38634824533409 10.398473559692945, -76.53624878871167 10.197620487787418, -76.88824082814824 9.72598322207689 C-77.05632274670302 9.467764258861953, -77.22440466525778 9.209545295647017, -77.48273947109088 8.812673661278936 C-77.60222464032753 8.600515644113873, -77.7217098095642 8.38835762694881, -78.017500708341 7.863150934094201 C-78.18502782099094 7.515277300170629, -78.35255493364087 7.167403666247058, -78.49032709126881 6.881316833080701 C-78.58300222709612 6.652407455835384, -78.67567736292344 6.423498078590066, -78.89927567484592 5.87120592516224 C-79.00986572949327 5.538126300696796, -79.1204557841406 5.205046676231351, -79.24266600162323 4.8369689727275516 C-79.29874066696541 4.6231319708641365, -79.3548153323076 4.409294969000721, -79.519087007091 3.782855877257349 C-79.59781370519909 3.378610921365857, -79.67654040330717 2.974365965474365, -79.72740281804565 2.713198215567455 C-79.77053982637024 2.378636097367687, -79.81367683469483 2.0440739791679183, -79.86675742013637 1.6323914404306026 C-79.88142883512421 1.403872309441856, -79.89610025011206 1.1753531784531093, -79.9365781754117 0.54487681871814 C-79.9365781754117 0.2157007149114611, -79.9365781754117 -0.1134753888952178, -79.9365781754117 -0.5448768187181317 C-79.91482516598123 -0.8836974993107513, -79.89307215655077 -1.2225181799033709, -79.86675742013637 -1.6323914404305793 C-79.83704659828199 -1.8628227076677397, -79.8073357764276 -2.0932539749049, -79.72740281804565 -2.713198215567447 C-79.6446369943568 -3.138183227646632, -79.56187117066796 -3.5631682397258166, -79.519087007091 -3.782855877257341 C-79.42226021807363 -4.152098388776408, -79.32543342905626 -4.521340900295474, -79.24266600162323 -4.836968972727544 C-79.12671609636256 -5.18619161326415, -79.01076619110188 -5.535414253800757, -78.89927567484594 -5.871205925162218 C-78.75537316520116 -6.226647906150572, -78.61147065555637 -6.5820898871389275, -78.49032709126881 -6.881316833080692 C-78.32233528722512 -7.23015540862622, -78.15434348318142 -7.578993984171747, -78.017500708341 -7.863150934094194 C-77.9024904823109 -8.06736323645889, -77.78748025628079 -8.271575538823587, -77.48273947109088 -8.812673661278929 C-77.31751604135269 -9.066501218059877, -77.15229261161451 -9.320328774840824, -76.88824082814826 -9.725983222076884 C-76.73795626738632 -9.927350842292723, -76.5876717066244 -10.128718462508562, -76.23644770195651 -10.599326631598467 C-76.06088607190318 -10.805551311998856, -75.88532444184985 -11.011775992399246, -75.53003845028037 -11.42911513444238 C-75.27756689821823 -11.689812740246468, -75.02509534615606 -11.950510346050557, -74.77191586025927 -12.21193895166136 C-74.58837511434584 -12.378625800877915, -74.4048343684324 -12.545312650094472, -73.96519522023242 -12.944581292275274 C-73.6689389468299 -13.180837786603254, -73.37268267342738 -13.417094280931234, -73.11319151835067 -13.624031571755259 C-72.82835280740652 -13.82272272604084, -72.54351409646236 -14.02141388032642, -72.21940582057934 -14.247497783161284 C-71.99506011576544 -14.383497467821174, -71.77071441095153 -14.519497152481065, -71.28751088406695 -14.812417970097618 C-70.93631175352695 -14.995638331546557, -70.58511262298694 -15.178858692995494, -70.32133606499849 -15.316470754341124 C-70.02232060819682 -15.448836027088847, -69.72330515139515 -15.581201299836568, -69.32485158294936 -15.757584874882365 C-68.95859641117697 -15.892370163720303, -68.59234123940456 -16.02715545255824, -68.30215220640156 -16.133947699181363 C-68.04414609114254 -16.210522559888506, -67.78613997588351 -16.287097420595646, -67.25744042646164 -16.444012671663494 C-66.85006795501464 -16.536992779917462, -66.44269548356763 -16.629972888171427, -66.19500918792333 -16.68650566884811 C-65.79568012618697 -16.75106609470652, -65.3963510644506 -16.81562652056493, -65.11922424863661 -16.86043023499518 C-64.85168834893949 -16.88623910147997, -64.58415244924238 -16.912047967964757, -64.03450623967213 -16.965071676755716 C-63.766358803949636 -16.973670643102015, -63.49821136822715 -16.982269609448316, -62.94531250000001 -17 C-62.94531250000001 -17, -62.9453125 -17, -62.9453125 -17" stroke="none" stroke-width="0" fill="#ECECFF" style=""></path><path d="M-62.9453125 -17 C-35.50575178679357 -17, -8.066191073587142 -17, 62.9453125 -17 M-62.9453125 -17 C-29.073519401121146 -17, 4.798273697757708 -17, 62.9453125 -17 M62.9453125 -17 C62.9453125 -17, 62.9453125 -17, 62.9453125 -17 M62.9453125 -17 C62.9453125 -17, 62.9453125 -17, 62.9453125 -17 M62.9453125 -17 C63.299756255184604 -16.988633678654146, 63.6542000103692 -16.977267357308293, 64.03450623967211 -16.965071676755716 M62.9453125 -17 C63.36122270565182 -16.98666256922485, 63.77713291130364 -16.9733251384497, 64.03450623967211 -16.965071676755716 M64.03450623967211 -16.965071676755716 C64.44830377404357 -16.92515312627925, 64.862101308415 -16.885234575802784, 65.1192242486366 -16.860430234995185 M64.03450623967211 -16.965071676755716 C64.32333422545977 -16.937208788333255, 64.61216221124744 -16.909345899910797, 65.1192242486366 -16.860430234995185 M65.1192242486366 -16.860430234995185 C65.4478985012294 -16.80729273074288, 65.7765727538222 -16.75415522649057, 66.19500918792333 -16.686505668848113 M65.1192242486366 -16.860430234995185 C65.39559294061476 -16.815749088147374, 65.67196163259291 -16.771067941299563, 66.19500918792333 -16.686505668848113 M66.19500918792333 -16.686505668848113 C66.4770396543749 -16.62213405530133, 66.75907012082646 -16.55776244175455, 67.25744042646163 -16.4440126716635 M66.19500918792333 -16.686505668848113 C66.52211034046576 -16.611846965314808, 66.84921149300817 -16.537188261781502, 67.25744042646163 -16.4440126716635 M67.25744042646163 -16.4440126716635 C67.63812795682838 -16.33102661092027, 68.01881548719516 -16.21804055017704, 68.30215220640156 -16.133947699181366 M67.25744042646163 -16.4440126716635 C67.60545532288258 -16.34072367717323, 67.95347021930353 -16.23743468268296, 68.30215220640156 -16.133947699181366 M68.30215220640156 -16.133947699181366 C68.51405523436226 -16.05596542608171, 68.72595826232296 -15.977983152982054, 69.32485158294936 -15.757584874882369 M68.30215220640156 -16.133947699181366 C68.69195235161496 -15.990497642469794, 69.08175249682834 -15.847047585758222, 69.32485158294936 -15.757584874882369 M69.32485158294936 -15.757584874882369 C69.5432832983784 -15.660891634008554, 69.76171501380745 -15.564198393134738, 70.32133606499849 -15.316470754341125 M69.32485158294936 -15.757584874882369 C69.64383862104484 -15.616378775531789, 69.96282565914031 -15.475172676181211, 70.32133606499849 -15.316470754341125 M70.32133606499849 -15.316470754341125 C70.66710578204957 -15.136082914431647, 71.01287549910066 -14.95569507452217, 71.28751088406693 -14.812417970097622 M70.32133606499849 -15.316470754341125 C70.56342787922183 -15.190171609928013, 70.80551969344518 -15.063872465514903, 71.28751088406693 -14.812417970097622 M71.28751088406693 -14.812417970097622 C71.53661447725139 -14.661409908014, 71.78571807043585 -14.510401845930378, 72.21940582057933 -14.247497783161291 M71.28751088406693 -14.812417970097622 C71.62997765610272 -14.60481260033138, 71.97244442813853 -14.397207230565138, 72.21940582057933 -14.247497783161291 M72.21940582057933 -14.247497783161291 C72.561927724831 -14.008569330289586, 72.90444962908266 -13.76964087741788, 73.11319151835067 -13.624031571755262 M72.21940582057933 -14.247497783161291 C72.43048545556314 -14.100257767286706, 72.64156509054696 -13.953017751412121, 73.11319151835067 -13.624031571755262 M73.11319151835067 -13.624031571755262 C73.34041174883535 -13.442829484528009, 73.56763197932003 -13.261627397300753, 73.9651952202324 -12.944581292275288 M73.11319151835067 -13.624031571755262 C73.43087890286542 -13.370684336621103, 73.74856628738016 -13.117337101486944, 73.9651952202324 -12.944581292275288 M73.9651952202324 -12.944581292275288 C74.27216083052204 -12.665803246875225, 74.57912644081168 -12.387025201475161, 74.77191586025927 -12.21193895166137 M73.9651952202324 -12.944581292275288 C74.16439576075999 -12.763672631925614, 74.36359630128759 -12.58276397157594, 74.77191586025927 -12.21193895166137 M74.77191586025927 -12.21193895166137 C74.98595064750734 -11.990930461244895, 75.19998543475542 -11.769921970828422, 75.53003845028036 -11.42911513444239 M74.77191586025927 -12.21193895166137 C74.94764455364228 -12.030484648149365, 75.1233732470253 -11.84903034463736, 75.53003845028036 -11.42911513444239 M75.53003845028036 -11.42911513444239 C75.77636841593582 -11.139761940211372, 76.02269838159127 -10.850408745980356, 76.23644770195651 -10.59932663159847 M75.53003845028036 -11.42911513444239 C75.79967657852548 -11.11238284616153, 76.0693147067706 -10.795650557880672, 76.23644770195651 -10.59932663159847 M76.23644770195651 -10.59932663159847 C76.38542180937749 -10.399714899474738, 76.53439591679847 -10.200103167351005, 76.88824082814824 -9.725983222076888 M76.23644770195651 -10.59932663159847 C76.4420472401459 -10.32384198092793, 76.6476467783353 -10.048357330257392, 76.88824082814824 -9.725983222076888 M76.88824082814824 -9.725983222076888 C77.0643638415705 -9.455410977809178, 77.24048685499277 -9.184838733541469, 77.48273947109088 -8.812673661278927 M76.88824082814824 -9.725983222076888 C77.03961029972372 -9.493439065342532, 77.19097977129918 -9.260894908608176, 77.48273947109088 -8.812673661278927 M77.48273947109088 -8.812673661278927 C77.62772229937688 -8.555241968553814, 77.77270512766287 -8.297810275828699, 78.017500708341 -7.863150934094199 M77.48273947109088 -8.812673661278927 C77.68009285419627 -8.462252745378258, 77.87744623730167 -8.11183182947759, 78.017500708341 -7.863150934094199 M78.017500708341 -7.863150934094199 C78.12747610834046 -7.634784662898716, 78.23745150833993 -7.406418391703234, 78.49032709126881 -6.881316833080699 M78.017500708341 -7.863150934094199 C78.20457433803361 -7.474688539303063, 78.3916479677262 -7.086226144511928, 78.49032709126881 -6.881316833080699 M78.49032709126881 -6.881316833080699 C78.58151250352014 -6.656087101869893, 78.67269791577148 -6.430857370659088, 78.89927567484592 -5.871205925162238 M78.49032709126881 -6.881316833080699 C78.59450409495001 -6.623997619862777, 78.69868109863121 -6.366678406644856, 78.89927567484592 -5.871205925162238 M78.89927567484592 -5.871205925162238 C79.01858331790812 -5.511870313350326, 79.13789096097032 -5.152534701538414, 79.24266600162323 -4.836968972727556 M78.89927567484592 -5.871205925162238 C78.97086778184239 -5.655581905542078, 79.04245988883886 -5.439957885921918, 79.24266600162323 -4.836968972727556 M79.24266600162323 -4.836968972727556 C79.30053678856139 -4.616282580774645, 79.35840757549956 -4.3955961888217345, 79.519087007091 -3.7828558772573464 M79.24266600162323 -4.836968972727556 C79.32519051910084 -4.522267221233292, 79.40771503657847 -4.207565469739029, 79.519087007091 -3.7828558772573464 M79.519087007091 -3.7828558772573464 C79.57251542460972 -3.5085122453987596, 79.62594384212844 -3.234168613540173, 79.72740281804565 -2.713198215567453 M79.519087007091 -3.7828558772573464 C79.57228362465962 -3.5097024891515733, 79.62548024222825 -3.2365491010458003, 79.72740281804565 -2.713198215567453 M79.72740281804565 -2.713198215567453 C79.7629945008309 -2.4371561522577236, 79.79858618361617 -2.161114088947994, 79.86675742013637 -1.632391440430593 M79.72740281804565 -2.713198215567453 C79.76031045125306 -2.4579731107579827, 79.79321808446046 -2.202748005948513, 79.86675742013637 -1.632391440430593 M79.86675742013637 -1.632391440430593 C79.8863201507145 -1.32768612092435, 79.90588288129263 -1.022980801418107, 79.9365781754117 -0.5448768187181379 M79.86675742013637 -1.632391440430593 C79.88715315862474 -1.3147113503304495, 79.9075488971131 -0.9970312602303057, 79.9365781754117 -0.5448768187181379 M79.9365781754117 -0.5448768187181379 C79.9365781754117 -0.21025026718768886, 79.9365781754117 0.12437628434276016, 79.9365781754117 0.5448768187181336 M79.9365781754117 -0.5448768187181379 C79.9365781754117 -0.32209696742600014, 79.9365781754117 -0.09931711613386246, 79.9365781754117 0.5448768187181336 M79.9365781754117 0.5448768187181336 C79.92099269287031 0.7876332896751964, 79.90540721032893 1.0303897606322592, 79.86675742013637 1.6323914404305815 M79.9365781754117 0.5448768187181336 C79.9153691820065 0.8752240105953181, 79.89416018860132 1.2055712024725025, 79.86675742013637 1.6323914404305815 M79.86675742013637 1.6323914404305815 C79.83523826264754 1.876847801752309, 79.8037191051587 2.1213041630740364, 79.72740281804565 2.7131982155674415 M79.86675742013637 1.6323914404305815 C79.82199649943543 1.9795483023435305, 79.77723557873448 2.3267051642564796, 79.72740281804565 2.7131982155674415 M79.72740281804565 2.7131982155674415 C79.65467359130005 3.0866474235785666, 79.58194436455446 3.4600966315896917, 79.519087007091 3.782855877257343 M79.72740281804565 2.7131982155674415 C79.6774718886441 2.969582985138723, 79.62754095924255 3.2259677547100045, 79.519087007091 3.782855877257343 M79.519087007091 3.782855877257343 C79.43688840596158 4.096314768462924, 79.35468980483215 4.409773659668505, 79.24266600162323 4.836968972727545 M79.519087007091 3.782855877257343 C79.41342844708514 4.185777759269296, 79.30776988707926 4.58869964128125, 79.24266600162323 4.836968972727545 M79.24266600162323 4.836968972727545 C79.16026362948 5.085151788587938, 79.07786125733675 5.333334604448331, 78.89927567484592 5.871205925162227 M79.24266600162323 4.836968972727545 C79.11525778627183 5.220702217623631, 78.98784957092042 5.604435462519717, 78.89927567484592 5.871205925162227 M78.89927567484592 5.871205925162227 C78.78705133537562 6.148402213363856, 78.67482699590533 6.425598501565487, 78.49032709126881 6.881316833080694 M78.89927567484592 5.871205925162227 C78.80481521648282 6.104525083587825, 78.7103547581197 6.337844242013423, 78.49032709126881 6.881316833080694 M78.49032709126881 6.881316833080694 C78.3193964216444 7.2362580258862215, 78.14846575201999 7.591199218691749, 78.017500708341 7.863150934094196 M78.49032709126881 6.881316833080694 C78.38923663183549 7.0912333350833086, 78.28814617240218 7.301149837085923, 78.017500708341 7.863150934094196 M78.017500708341 7.863150934094196 C77.89221425071122 8.085609726245409, 77.76692779308142 8.308068518396622, 77.48273947109088 8.812673661278923 M78.017500708341 7.863150934094196 C77.83278112021362 8.191139267700938, 77.64806153208625 8.519127601307682, 77.48273947109088 8.812673661278923 M77.48273947109088 8.812673661278923 C77.29194543160895 9.105784541296396, 77.10115139212702 9.398895421313867, 76.88824082814826 9.725983222076879 M77.48273947109088 8.812673661278923 C77.30093480958654 9.091974442736847, 77.11913014808219 9.371275224194772, 76.88824082814826 9.725983222076879 M76.88824082814826 9.725983222076879 C76.74677539897803 9.915534009399252, 76.6053099698078 10.105084796721625, 76.23644770195651 10.599326631598467 M76.88824082814826 9.725983222076879 C76.71272120385301 9.961163528465786, 76.53720157955776 10.196343834854693, 76.23644770195651 10.599326631598467 M76.23644770195651 10.599326631598467 C76.04872791000332 10.819832980785435, 75.86100811805014 11.040339329972403, 75.53003845028037 11.42911513444238 M76.23644770195651 10.599326631598467 C76.09430986405474 10.766289823869991, 75.95217202615295 10.933253016141515, 75.53003845028037 11.42911513444238 M75.53003845028037 11.42911513444238 C75.34428488308467 11.620920943223433, 75.15853131588896 11.812726752004489, 74.77191586025927 12.211938951661365 M75.53003845028037 11.42911513444238 C75.36676857964446 11.597704680579636, 75.20349870900854 11.766294226716889, 74.77191586025927 12.211938951661365 M74.77191586025927 12.211938951661365 C74.60064433379254 12.367483220402177, 74.42937280732583 12.523027489142986, 73.96519522023242 12.944581292275275 M74.77191586025927 12.211938951661365 C74.51791610574986 12.44261480824157, 74.26391635124047 12.673290664821778, 73.96519522023242 12.944581292275275 M73.96519522023242 12.944581292275275 C73.66112955023853 13.187065572568104, 73.35706388024462 13.429549852860932, 73.11319151835067 13.62403157175526 M73.96519522023242 12.944581292275275 C73.74669996540803 13.118825443594805, 73.52820471058364 13.293069594914334, 73.11319151835067 13.62403157175526 M73.11319151835067 13.62403157175526 C72.83328905247336 13.819279415168811, 72.55338658659606 14.014527258582364, 72.21940582057934 14.247497783161286 M73.11319151835067 13.62403157175526 C72.78262548134863 13.854620129194785, 72.45205944434657 14.08520868663431, 72.21940582057934 14.247497783161286 M72.21940582057934 14.247497783161286 C71.89895791424061 14.44175518714475, 71.57851000790188 14.636012591128216, 71.28751088406695 14.81241797009762 M72.21940582057934 14.247497783161286 C72.02336993133642 14.366335891255101, 71.82733404209351 14.485173999348918, 71.28751088406695 14.81241797009762 M71.28751088406695 14.81241797009762 C71.04221449274532 14.940388940330276, 70.79691810142369 15.068359910562933, 70.32133606499849 15.316470754341124 M71.28751088406695 14.81241797009762 C71.06149216465921 14.930331791240732, 70.8354734452515 15.048245612383843, 70.32133606499849 15.316470754341124 M70.32133606499849 15.316470754341124 C70.05842352684402 15.432854335958762, 69.79551098868956 15.549237917576399, 69.32485158294936 15.757584874882367 M70.32133606499849 15.316470754341124 C69.95643072016622 15.478003525965908, 69.59152537533396 15.639536297590695, 69.32485158294936 15.757584874882367 M69.32485158294936 15.757584874882367 C68.96053719865687 15.891655935987258, 68.59622281436437 16.025726997092146, 68.30215220640156 16.133947699181363 M69.32485158294936 15.757584874882367 C69.01957620736876 15.869929035030669, 68.71430083178814 15.982273195178971, 68.30215220640156 16.133947699181363 M68.30215220640156 16.133947699181363 C67.9572551598775 16.236311332188162, 67.61235811335344 16.338674965194965, 67.25744042646164 16.444012671663497 M68.30215220640156 16.133947699181363 C68.02241445534028 16.21697239532293, 67.742676704279 16.299997091464498, 67.25744042646164 16.444012671663497 M67.25744042646164 16.444012671663497 C66.86455801093639 16.533685519209772, 66.47167559541116 16.623358366756047, 66.19500918792333 16.68650566884811 M67.25744042646164 16.444012671663497 C66.8919304209968 16.527437945235153, 66.52642041553197 16.61086321880681, 66.19500918792333 16.68650566884811 M66.19500918792333 16.68650566884811 C65.889826035009 16.735845314280603, 65.58464288209464 16.785184959713096, 65.11922424863661 16.86043023499518 M66.19500918792333 16.68650566884811 C65.93009009318578 16.729335733607016, 65.66517099844822 16.77216579836592, 65.11922424863661 16.86043023499518 M65.11922424863661 16.86043023499518 C64.81408614963735 16.889866540423384, 64.50894805063808 16.91930284585159, 64.03450623967211 16.965071676755716 M65.11922424863661 16.86043023499518 C64.7360179722319 16.897397683606968, 64.3528116958272 16.934365132218755, 64.03450623967211 16.965071676755716 M64.03450623967211 16.965071676755716 C63.645427530343795 16.97754867366811, 63.25634882101547 16.990025670580504, 62.9453125 17 M64.03450623967211 16.965071676755716 C63.695662338870505 16.975937741134782, 63.35681843806889 16.986803805513848, 62.9453125 17 M62.9453125 17 C62.9453125 17, 62.9453125 17, 62.9453125 17 M62.9453125 17 C62.9453125 17, 62.9453125 17, 62.9453125 17 M62.9453125 17 C13.341639641049213 17, -36.262033217901575 17, -62.9453125 17 M62.9453125 17 C28.66101671100492 17, -5.623279077990162 17, -62.9453125 17 M-62.9453125 17 C-63.24453780653328 16.990404426826203, -63.54376311306656 16.98080885365241, -64.03450623967211 16.965071676755716 M-62.9453125 17 C-63.27875328607495 16.989307202993693, -63.612194072149904 16.978614405987386, -64.03450623967211 16.965071676755716 M-64.03450623967211 16.965071676755716 C-64.36785249251501 16.932914164651486, -64.70119874535791 16.900756652547255, -65.1192242486366 16.86043023499518 M-64.03450623967211 16.965071676755716 C-64.46808615546782 16.923244743735044, -64.9016660712635 16.881417810714375, -65.1192242486366 16.86043023499518 M-65.1192242486366 16.86043023499518 C-65.37705924147458 16.81874547289337, -65.63489423431255 16.77706071079156, -66.19500918792333 16.68650566884811 M-65.1192242486366 16.86043023499518 C-65.4577171660429 16.805705325160712, -65.79621008344918 16.750980415326243, -66.19500918792333 16.68650566884811 M-66.19500918792333 16.68650566884811 C-66.59949021937469 16.59418551290474, -67.00397125082604 16.50186535696137, -67.25744042646161 16.4440126716635 M-66.19500918792333 16.68650566884811 C-66.40767794501402 16.6379654128355, -66.62034670210468 16.589425156822887, -67.25744042646161 16.4440126716635 M-67.25744042646161 16.4440126716635 C-67.66957888309771 16.321692141092814, -68.08171733973381 16.199371610522125, -68.30215220640154 16.13394769918137 M-67.25744042646161 16.4440126716635 C-67.64090251537475 16.330203136507663, -68.0243646042879 16.21639360135182, -68.30215220640154 16.13394769918137 M-68.30215220640154 16.13394769918137 C-68.61443359818188 16.019025260308666, -68.92671498996222 15.90410282143596, -69.32485158294936 15.757584874882369 M-68.30215220640154 16.13394769918137 C-68.67349012379587 15.997291912970176, -69.0448280411902 15.860636126758985, -69.32485158294936 15.757584874882369 M-69.32485158294936 15.757584874882369 C-69.53726154137576 15.663557287204553, -69.74967149980213 15.569529699526738, -70.32133606499849 15.316470754341127 M-69.32485158294936 15.757584874882369 C-69.67592152409915 15.602176626055147, -70.02699146524894 15.446768377227926, -70.32133606499849 15.316470754341127 M-70.32133606499849 15.316470754341127 C-70.58481250553282 15.179015264079078, -70.84828894606716 15.041559773817028, -71.28751088406693 14.812417970097624 M-70.32133606499849 15.316470754341127 C-70.52167785755056 15.211952569491753, -70.72201965010264 15.10743438464238, -71.28751088406693 14.812417970097624 M-71.28751088406693 14.812417970097624 C-71.5499883128284 14.65330261029383, -71.81246574158989 14.494187250490038, -72.21940582057931 14.247497783161299 M-71.28751088406693 14.812417970097624 C-71.60844896816863 14.617863417473645, -71.92938705227033 14.423308864849664, -72.21940582057931 14.247497783161299 M-72.21940582057931 14.247497783161299 C-72.44092205455905 14.09297764762025, -72.6624382885388 13.938457512079202, -73.11319151835067 13.624031571755264 M-72.21940582057931 14.247497783161299 C-72.49504438840148 14.055224250449847, -72.77068295622364 13.862950717738395, -73.11319151835067 13.624031571755264 M-73.11319151835067 13.624031571755264 C-73.34055059650953 13.442718757202737, -73.5679096746684 13.261405942650212, -73.9651952202324 12.94458129227529 M-73.11319151835067 13.624031571755264 C-73.42750034038312 13.373378650293416, -73.74180916241556 13.122725728831567, -73.9651952202324 12.94458129227529 M-73.9651952202324 12.94458129227529 C-74.1868580364547 12.743272987458933, -74.40852085267699 12.541964682642577, -74.77191586025926 12.211938951661377 M-73.9651952202324 12.94458129227529 C-74.17095743963189 12.757713488786667, -74.37671965903138 12.570845685298046, -74.77191586025926 12.211938951661377 M-74.77191586025926 12.211938951661377 C-74.94811955573228 12.029994169493037, -75.12432325120531 11.848049387324696, -75.53003845028036 11.429115134442386 M-74.77191586025926 12.211938951661377 C-74.98680257676646 11.990050774340153, -75.20168929327367 11.76816259701893, -75.53003845028036 11.429115134442386 M-75.53003845028036 11.429115134442386 C-75.78865398577986 11.125330610803822, -76.04726952127938 10.821546087165258, -76.23644770195651 10.599326631598473 M-75.53003845028036 11.429115134442386 C-75.71160321672122 11.215838828453075, -75.89316798316207 11.002562522463764, -76.23644770195651 10.599326631598473 M-76.23644770195651 10.599326631598473 C-76.41070384581428 10.365839273890343, -76.58495998967204 10.132351916182213, -76.88824082814824 9.72598322207689 M-76.23644770195651 10.599326631598473 C-76.40920823165591 10.367843260609312, -76.5819687613553 10.13635988962015, -76.88824082814824 9.72598322207689 M-76.88824082814824 9.72598322207689 C-77.09956395714394 9.401334147733868, -77.31088708613964 9.076685073390847, -77.48273947109088 8.812673661278936 M-76.88824082814824 9.72598322207689 C-77.05703972810015 9.466662782899485, -77.22583862805206 9.207342343722079, -77.48273947109088 8.812673661278936 M-77.48273947109088 8.812673661278936 C-77.63686911560572 8.539000870123933, -77.79099876012056 8.26532807896893, -78.017500708341 7.863150934094201 M-77.48273947109088 8.812673661278936 C-77.59992430135878 8.60460012888749, -77.71710913162667 8.396526596496047, -78.017500708341 7.863150934094201 M-78.017500708341 7.863150934094201 C-78.13348041626035 7.622316589031446, -78.24946012417972 7.3814822439686925, -78.49032709126881 6.881316833080701 M-78.017500708341 7.863150934094201 C-78.16799273746099 7.550651015612969, -78.31848476658097 7.238151097131737, -78.49032709126881 6.881316833080701 M-78.49032709126881 6.881316833080701 C-78.57493899864423 6.672323786003466, -78.65955090601966 6.463330738926231, -78.89927567484592 5.87120592516224 M-78.49032709126881 6.881316833080701 C-78.58814726080807 6.639699123094391, -78.68596743034735 6.39808141310808, -78.89927567484592 5.87120592516224 M-78.89927567484592 5.87120592516224 C-78.97087827399123 5.655550304861479, -79.04248087313653 5.439894684560719, -79.24266600162323 4.8369689727275516 M-78.89927567484592 5.87120592516224 C-79.00323952240859 5.558083380693093, -79.10720336997127 5.244960836223947, -79.24266600162323 4.8369689727275516 M-79.24266600162323 4.8369689727275516 C-79.32780816364144 4.512285008105694, -79.41295032565964 4.187601043483836, -79.519087007091 3.782855877257349 M-79.24266600162323 4.8369689727275516 C-79.3294401798122 4.506061423126338, -79.41621435800114 4.175153873525126, -79.519087007091 3.782855877257349 M-79.519087007091 3.782855877257349 C-79.59035951594316 3.416886607751553, -79.66163202479534 3.0509173382457564, -79.72740281804565 2.713198215567455 M-79.519087007091 3.782855877257349 C-79.60181699515925 3.358054873516004, -79.68454698322752 2.933253869774659, -79.72740281804565 2.713198215567455 M-79.72740281804565 2.713198215567455 C-79.76614882069369 2.4126918702928593, -79.80489482334174 2.1121855250182633, -79.86675742013637 1.6323914404306026 M-79.72740281804565 2.713198215567455 C-79.77645227512721 2.3327803123537154, -79.82550173220876 1.9523624091399756, -79.86675742013637 1.6323914404306026 M-79.86675742013637 1.6323914404306026 C-79.88931618226918 1.2810205111069783, -79.911874944402 0.9296495817833539, -79.9365781754117 0.54487681871814 M-79.86675742013637 1.6323914404306026 C-79.88101537379058 1.41031230345323, -79.89527332744478 1.1882331664758579, -79.9365781754117 0.54487681871814 M-79.9365781754117 0.54487681871814 C-79.9365781754117 0.3025945677102537, -79.9365781754117 0.06031231670236742, -79.9365781754117 -0.5448768187181317 M-79.9365781754117 0.54487681871814 C-79.9365781754117 0.25131152617027624, -79.9365781754117 -0.04225376637758749, -79.9365781754117 -0.5448768187181317 M-79.9365781754117 -0.5448768187181317 C-79.91272285472115 -0.9164426941416821, -79.8888675340306 -1.2880085695652328, -79.86675742013637 -1.6323914404305793 M-79.9365781754117 -0.5448768187181317 C-79.92061780294395 -0.7934725028839951, -79.9046574304762 -1.0420681870498585, -79.86675742013637 -1.6323914404305793 M-79.86675742013637 -1.6323914404305793 C-79.82502445187673 -1.9560641011455895, -79.78329148361709 -2.2797367618605997, -79.72740281804565 -2.713198215567447 M-79.86675742013637 -1.6323914404305793 C-79.83483656977185 -1.879963252372855, -79.80291571940734 -2.127535064315131, -79.72740281804565 -2.713198215567447 M-79.72740281804565 -2.713198215567447 C-79.67033245028072 -3.006242492213837, -79.6132620825158 -3.2992867688602274, -79.519087007091 -3.782855877257341 M-79.72740281804565 -2.713198215567447 C-79.64450295994143 -3.1388714660413646, -79.56160310183722 -3.5645447165152824, -79.519087007091 -3.782855877257341 M-79.519087007091 -3.782855877257341 C-79.43000596531759 -4.12256049750711, -79.34092492354416 -4.462265117756879, -79.24266600162323 -4.836968972727544 M-79.519087007091 -3.782855877257341 C-79.42151024892115 -4.154958346193508, -79.32393349075129 -4.527060815129676, -79.24266600162323 -4.836968972727544 M-79.24266600162323 -4.836968972727544 C-79.16377728144501 -5.07456922869375, -79.08488856126678 -5.312169484659956, -78.89927567484594 -5.871205925162218 M-79.24266600162323 -4.836968972727544 C-79.12633307489973 -5.187345212883969, -79.01000014817625 -5.537721453040393, -78.89927567484594 -5.871205925162218 M-78.89927567484594 -5.871205925162218 C-78.80108596986486 -6.113736394834281, -78.70289626488378 -6.356266864506345, -78.49032709126881 -6.881316833080692 M-78.89927567484594 -5.871205925162218 C-78.79975358796118 -6.117027403896232, -78.70023150107642 -6.362848882630246, -78.49032709126881 -6.881316833080692 M-78.49032709126881 -6.881316833080692 C-78.3799573729373 -7.110501914729733, -78.2695876546058 -7.3396869963787745, -78.017500708341 -7.863150934094194 M-78.49032709126881 -6.881316833080692 C-78.38823309580965 -7.093317199113196, -78.2861391003505 -7.3053175651457, -78.017500708341 -7.863150934094194 M-78.017500708341 -7.863150934094194 C-77.86112713389198 -8.140808050069882, -77.70475355944296 -8.41846516604557, -77.48273947109088 -8.812673661278929 M-78.017500708341 -7.863150934094194 C-77.80447767466322 -8.241394901310334, -77.59145464098543 -8.619638868526476, -77.48273947109088 -8.812673661278929 M-77.48273947109088 -8.812673661278929 C-77.28458129323951 -9.11709783537989, -77.08642311538816 -9.421522009480855, -76.88824082814826 -9.725983222076884 M-77.48273947109088 -8.812673661278929 C-77.28815242406935 -9.111611619442364, -77.09356537704782 -9.410549577605797, -76.88824082814826 -9.725983222076884 M-76.88824082814826 -9.725983222076884 C-76.6503582244318 -10.044724239505909, -76.41247562071534 -10.363465256934933, -76.23644770195651 -10.599326631598467 M-76.88824082814826 -9.725983222076884 C-76.66519473021191 -10.024844673394051, -76.44214863227555 -10.323706124711217, -76.23644770195651 -10.599326631598467 M-76.23644770195651 -10.599326631598467 C-76.02222619549241 -10.850963402640234, -75.80800468902831 -11.102600173682003, -75.53003845028037 -11.42911513444238 M-76.23644770195651 -10.599326631598467 C-76.09496390789819 -10.765521546755314, -75.95348011383987 -10.931716461912163, -75.53003845028037 -11.42911513444238 M-75.53003845028037 -11.42911513444238 C-75.35885909934252 -11.605871868371784, -75.18767974840469 -11.782628602301186, -74.77191586025927 -12.21193895166136 M-75.53003845028037 -11.42911513444238 C-75.32466969852857 -11.641175231714211, -75.11930094677676 -11.853235328986042, -74.77191586025927 -12.21193895166136 M-74.77191586025927 -12.21193895166136 C-74.4844644753732 -12.472994693868014, -74.19701309048715 -12.734050436074668, -73.96519522023242 -12.944581292275274 M-74.77191586025927 -12.21193895166136 C-74.51771694796427 -12.442795678073013, -74.26351803566929 -12.673652404484667, -73.96519522023242 -12.944581292275274 M-73.96519522023242 -12.944581292275274 C-73.75311745812107 -13.113707663932807, -73.54103969600972 -13.28283403559034, -73.11319151835067 -13.624031571755259 M-73.96519522023242 -12.944581292275274 C-73.66882806193537 -13.180926214355864, -73.37246090363833 -13.417271136436453, -73.11319151835067 -13.624031571755259 M-73.11319151835067 -13.624031571755259 C-72.76872940949848 -13.864313427366197, -72.42426730064626 -14.104595282977137, -72.21940582057934 -14.247497783161284 M-73.11319151835067 -13.624031571755259 C-72.85565536448354 -13.803677644132554, -72.5981192106164 -13.983323716509851, -72.21940582057934 -14.247497783161284 M-72.21940582057934 -14.247497783161284 C-72.02363729219724 -14.36617381553009, -71.82786876381513 -14.484849847898895, -71.28751088406695 -14.812417970097618 M-72.21940582057934 -14.247497783161284 C-71.96323392433953 -14.402790692095016, -71.70706202809974 -14.558083601028747, -71.28751088406695 -14.812417970097618 M-71.28751088406695 -14.812417970097618 C-70.93623027841517 -14.995680837060185, -70.58494967276339 -15.178943704022752, -70.32133606499849 -15.316470754341124 M-71.28751088406695 -14.812417970097618 C-70.99140554066773 -14.96689593808447, -70.6953001972685 -15.121373906071321, -70.32133606499849 -15.316470754341124 M-70.32133606499849 -15.316470754341124 C-70.02353984397091 -15.448296307579001, -69.72574362294333 -15.58012186081688, -69.32485158294936 -15.757584874882365 M-70.32133606499849 -15.316470754341124 C-70.08123008321874 -15.42275854998413, -69.84112410143901 -15.529046345627133, -69.32485158294936 -15.757584874882365 M-69.32485158294936 -15.757584874882365 C-68.98699299240327 -15.881919959333903, -68.64913440185718 -16.00625504378544, -68.30215220640156 -16.133947699181363 M-69.32485158294936 -15.757584874882365 C-68.91923190604435 -15.906856665490604, -68.51361222913931 -16.056128456098843, -68.30215220640156 -16.133947699181363 M-68.30215220640156 -16.133947699181363 C-67.99840923387248 -16.224097019048596, -67.6946662613434 -16.314246338915826, -67.25744042646164 -16.444012671663494 M-68.30215220640156 -16.133947699181363 C-67.8845971074876 -16.25787586074759, -67.46704200857361 -16.381804022313815, -67.25744042646164 -16.444012671663494 M-67.25744042646164 -16.444012671663494 C-66.99665440278336 -16.503535379780214, -66.7358683791051 -16.563058087896938, -66.19500918792333 -16.68650566884811 M-67.25744042646164 -16.444012671663494 C-66.92453804578281 -16.519995467662383, -66.59163566510398 -16.595978263661273, -66.19500918792333 -16.68650566884811 M-66.19500918792333 -16.68650566884811 C-65.82330304886338 -16.746600234787163, -65.45159690980341 -16.806694800726216, -65.11922424863661 -16.86043023499518 M-66.19500918792333 -16.68650566884811 C-65.94061543230495 -16.72763407840345, -65.68622167668656 -16.768762487958792, -65.11922424863661 -16.86043023499518 M-65.11922424863661 -16.86043023499518 C-64.81815483663603 -16.889474039081936, -64.51708542463543 -16.91851784316869, -64.03450623967213 -16.965071676755716 M-65.11922424863661 -16.86043023499518 C-64.84556706601612 -16.886829614281666, -64.5719098833956 -16.913228993568154, -64.03450623967213 -16.965071676755716 M-64.03450623967213 -16.965071676755716 C-63.73213640030095 -16.97476808897716, -63.42976656092978 -16.98446450119861, -62.94531250000001 -17 M-64.03450623967213 -16.965071676755716 C-63.631286222148766 -16.97800215789754, -63.228066204625414 -16.99093263903936, -62.94531250000001 -17 M-62.94531250000001 -17 C-62.94531250000001 -17, -62.9453125 -17, -62.9453125 -17 M-62.94531250000001 -17 C-62.94531250000001 -17, -62.9453125 -17, -62.9453125 -17" stroke="#9370DB" stroke-width="1.3" fill="none" stroke-dasharray="0 0" style=""></path></g><g class="label" style="" transform="translate(0, -9.5)"><rect></rect><g><rect class="background" style="stroke: none"></rect><text y="-10.1" style=""><tspan class="text-outer-tspan row" x="0" y="-0.1em" dy="1.1em"><tspan font-style="normal" class="text-inner-tspan" font-weight="normal">What</tspan><tspan font-style="normal" class="text-inner-tspan" font-weight="normal"> is</tspan><tspan font-style="normal" class="text-inner-tspan" font-weight="normal"> the</tspan><tspan font-style="normal" class="text-inner-tspan" font-weight="normal"> target?</tspan></tspan></text></g></g></g><g class="node default" id="g1e693881-b162-4a91-ab96-7071e856fb87-light-flowchart-Resource-1" data-look="classic" transform="translate(127.40937805175781, 211.4093780517578)"><polygon points="119.40937423706055,0 238.8187484741211,-119.40937423706055 119.40937423706055,-238.8187484741211 0,-119.40937423706055" class="label-container" transform="translate(-118.90937423706055, 119.40937423706055)"></polygon><g class="label" style="" transform="translate(0, -18.299999237060547)"><rect></rect><g><rect class="background" style="stroke: none"></rect><text y="-10.1" style=""><tspan class="text-outer-tspan row" x="0" y="-0.1em" dy="1.1em"><tspan font-style="normal" class="text-inner-tspan" font-weight="normal">Hardware</tspan><tspan font-style="normal" class="text-inner-tspan" font-weight="normal"> /</tspan><tspan font-style="normal" class="text-inner-tspan" font-weight="normal"> OS</tspan><tspan font-style="normal" class="text-inner-tspan" font-weight="normal"> resource</tspan></tspan><tspan class="text-outer-tspan row" x="0" y="1em" dy="1.1em"><tspan font-style="normal" class="text-inner-tspan" font-weight="normal">CPU,</tspan><tspan font-style="normal" class="text-inner-tspan" font-weight="normal"> disk,</tspan><tspan font-style="normal" class="text-inner-tspan" font-weight="normal"> NIC,</tspan><tspan font-style="normal" class="text-inner-tspan" font-weight="normal"> queue?</tspan></tspan></text></g></g></g><g class="node default" id="g1e693881-b162-4a91-ab96-7071e856fb87-light-flowchart-Service-2" data-look="classic" transform="translate(423.2062530517578, 211.4093780517578)"><polygon points="116.40156173706055,0 232.8031234741211,-116.40156173706055 116.40156173706055,-232.8031234741211 0,-116.40156173706055" class="label-container" transform="translate(-115.90156173706055, 116.40156173706055)"></polygon><g class="label" style="" transform="translate(0, -18.299999237060547)"><rect></rect><g><rect class="background" style="stroke: none"></rect><text y="-10.1" style=""><tspan class="text-outer-tspan row" x="0" y="-0.1em" dy="1.1em"><tspan font-style="normal" class="text-inner-tspan" font-weight="normal">Internal</tspan><tspan font-style="normal" class="text-inner-tspan" font-weight="normal"> request-driven</tspan></tspan><tspan class="text-outer-tspan row" x="0" y="1em" dy="1.1em"><tspan font-style="normal" class="text-inner-tspan" font-weight="normal">microservice?</tspan></tspan></text></g></g></g><g class="node default" id="g1e693881-b162-4a91-ab96-7071e856fb87-light-flowchart-UserFacing-3" data-look="classic" transform="translate(724.6437530517578, 211.4093780517578)"><polygon points="102.60468673706055,0 205.2093734741211,-102.60468673706055 102.60468673706055,-205.2093734741211 0,-102.60468673706055" class="label-container" transform="translate(-102.10468673706055, 102.60468673706055)"></polygon><g class="label" style="" transform="translate(0, -18.299999237060547)"><rect></rect><g><rect class="background" style="stroke: none"></rect><text y="-10.1" style=""><tspan class="text-outer-tspan row" x="0" y="-0.1em" dy="1.1em"><tspan font-style="normal" class="text-inner-tspan" font-weight="normal">User-facing</tspan></tspan><tspan class="text-outer-tspan row" x="0" y="1em" dy="1.1em"><tspan font-style="normal" class="text-inner-tspan" font-weight="normal">distributed</tspan><tspan font-style="normal" class="text-inner-tspan" font-weight="normal"> system?</tspan></tspan></text></g></g></g><g class="node default" id="g1e693881-b162-4a91-ab96-7071e856fb87-light-flowchart-USE-4" data-look="classic" transform="translate(127.40937805175781, 472.3187561035156)"><rect class="basic label-container" style="" x="-117.5390625" y="-59.70000076293945" width="235.078125" height="119.4000015258789"></rect><g class="label" style="" transform="translate(0, -44.70000076293945)"><rect></rect><g><rect class="background" style="stroke: none"></rect><text y="-10.1" style=""><tspan class="text-outer-tspan row" x="0" y="-0.1em" dy="1.1em"><tspan font-style="normal" class="text-inner-tspan" font-weight="normal">USE</tspan><tspan font-style="normal" class="text-inner-tspan" font-weight="normal"> method</tspan><tspan font-style="normal" class="text-inner-tspan" font-weight="normal"> (Brendan</tspan></tspan><tspan class="text-outer-tspan row" x="0" y="1em" dy="1.1em"><tspan font-style="normal" class="text-inner-tspan" font-weight="normal">Gregg)</tspan></tspan><tspan class="text-outer-tspan row" x="0" y="2.1em" dy="1.1em"><tspan font-style="normal" class="text-inner-tspan" font-weight="normal">Utilization</tspan><tspan font-style="normal" class="text-inner-tspan" font-weight="normal"> ·</tspan><tspan font-style="normal" class="text-inner-tspan" font-weight="normal"> Saturation</tspan><tspan font-style="normal" class="text-inner-tspan" font-weight="normal"> ·</tspan></tspan><tspan class="text-outer-tspan row" x="0" y="3.2em" dy="1.1em"><tspan font-style="normal" class="text-inner-tspan" font-weight="normal">Errors</tspan></tspan><tspan class="text-outer-tspan row" x="0" y="4.300000000000001em" dy="1.1em"><tspan font-style="normal" class="text-inner-tspan" font-weight="normal">Check</tspan><tspan font-style="normal" class="text-inner-tspan" font-weight="normal"> per</tspan><tspan font-style="normal" class="text-inner-tspan" font-weight="normal"> resource.</tspan></tspan></text></g></g></g><g class="node default" id="g1e693881-b162-4a91-ab96-7071e856fb87-light-flowchart-RED-5" data-look="classic" transform="translate(423.2062530517578, 472.3187561035156)"><rect class="basic label-container" style="" x="-128.2578125" y="-42.099998474121094" width="256.515625" height="84.19999694824219"></rect><g class="label" style="" transform="translate(0, -27.099998474121094)"><rect></rect><g><rect class="background" style="stroke: none"></rect><text y="-10.1" style=""><tspan class="text-outer-tspan row" x="0" y="-0.1em" dy="1.1em"><tspan font-style="normal" class="text-inner-tspan" font-weight="normal">RED</tspan><tspan font-style="normal" class="text-inner-tspan" font-weight="normal"> method</tspan><tspan font-style="normal" class="text-inner-tspan" font-weight="normal"> (Tom</tspan><tspan font-style="normal" class="text-inner-tspan" font-weight="normal"> Wilkie)</tspan></tspan><tspan class="text-outer-tspan row" x="0" y="1em" dy="1.1em"><tspan font-style="normal" class="text-inner-tspan" font-weight="normal">Rate</tspan><tspan font-style="normal" class="text-inner-tspan" font-weight="normal"> ·</tspan><tspan font-style="normal" class="text-inner-tspan" font-weight="normal"> Errors</tspan><tspan font-style="normal" class="text-inner-tspan" font-weight="normal"> ·</tspan><tspan font-style="normal" class="text-inner-tspan" font-weight="normal"> Duration</tspan></tspan><tspan class="text-outer-tspan row" x="0" y="2.1em" dy="1.1em"><tspan font-style="normal" class="text-inner-tspan" font-weight="normal">One</tspan><tspan font-style="normal" class="text-inner-tspan" font-weight="normal"> dashboard</tspan><tspan font-style="normal" class="text-inner-tspan" font-weight="normal"> per</tspan><tspan font-style="normal" class="text-inner-tspan" font-weight="normal"> service.</tspan></tspan></text></g></g></g><g class="node default" id="g1e693881-b162-4a91-ab96-7071e856fb87-light-flowchart-Golden-6" data-look="classic" transform="translate(724.6437530517578, 472.3187561035156)"><rect class="basic label-container" style="" x="-123.1796875" y="-68.5" width="246.359375" height="137"></rect><g class="label" style="" transform="translate(0, -53.5)"><rect></rect><g><rect class="background" style="stroke: none"></rect><text y="-10.1" style=""><tspan class="text-outer-tspan row" x="0" y="-0.1em" dy="1.1em"><tspan font-style="normal" class="text-inner-tspan" font-weight="normal">Four</tspan><tspan font-style="normal" class="text-inner-tspan" font-weight="normal"> Golden</tspan><tspan font-style="normal" class="text-inner-tspan" font-weight="normal"> Signals</tspan></tspan><tspan class="text-outer-tspan row" x="0" y="1em" dy="1.1em"><tspan font-style="normal" class="text-inner-tspan" font-weight="normal">(Google</tspan><tspan font-style="normal" class="text-inner-tspan" font-weight="normal"> SRE)</tspan></tspan><tspan class="text-outer-tspan row" x="0" y="2.1em" dy="1.1em"><tspan font-style="normal" class="text-inner-tspan" font-weight="normal">Latency</tspan><tspan font-style="normal" class="text-inner-tspan" font-weight="normal"> ·</tspan><tspan font-style="normal" class="text-inner-tspan" font-weight="normal"> Traffic</tspan><tspan font-style="normal" class="text-inner-tspan" font-weight="normal"> ·</tspan><tspan font-style="normal" class="text-inner-tspan" font-weight="normal"> Errors</tspan><tspan font-style="normal" class="text-inner-tspan" font-weight="normal"> ·</tspan></tspan><tspan class="text-outer-tspan row" x="0" y="3.2em" dy="1.1em"><tspan font-style="normal" class="text-inner-tspan" font-weight="normal">Saturation</tspan></tspan><tspan class="text-outer-tspan row" x="0" y="4.300000000000001em" dy="1.1em"><tspan font-style="normal" class="text-inner-tspan" font-weight="normal">Latency:</tspan><tspan font-style="normal" class="text-inner-tspan" font-weight="normal"> split</tspan><tspan font-style="normal" class="text-inner-tspan" font-weight="normal"> success</tspan><tspan font-style="normal" class="text-inner-tspan" font-weight="normal"> vs</tspan></tspan><tspan class="text-outer-tspan row" x="0" y="5.4em" dy="1.1em"><tspan font-style="normal" class="text-inner-tspan" font-weight="normal">failure;</tspan><tspan font-style="normal" class="text-inner-tspan" font-weight="normal"> track</tspan><tspan font-style="normal" class="text-inner-tspan" font-weight="normal"> p99.</tspan></tspan></text></g></g></g><g class="node default" id="g1e693881-b162-4a91-ab96-7071e856fb87-light-flowchart-Slo-7" data-look="classic" transform="translate(573.9250030517578, 632.9187545776367)"><rect class="basic label-container" style="" x="-124.03125" y="-42.099998474121094" width="248.0625" height="84.19999694824219"></rect><g class="label" style="" transform="translate(0, -27.099998474121094)"><rect></rect><g><rect class="background" style="stroke: none"></rect><text y="-10.1" style=""><tspan class="text-outer-tspan row" x="0" y="-0.1em" dy="1.1em"><tspan font-style="normal" class="text-inner-tspan" font-weight="normal">SLO</tspan><tspan font-style="normal" class="text-inner-tspan" font-weight="normal"> +</tspan><tspan font-style="normal" class="text-inner-tspan" font-weight="normal"> error</tspan><tspan font-style="normal" class="text-inner-tspan" font-weight="normal"> budget</tspan></tspan><tspan class="text-outer-tspan row" x="0" y="1em" dy="1.1em"><tspan font-style="normal" class="text-inner-tspan" font-weight="normal">1</tspan><tspan font-style="normal" class="text-inner-tspan" font-weight="normal"> minus</tspan><tspan font-style="normal" class="text-inner-tspan" font-weight="normal"> availability</tspan><tspan font-style="normal" class="text-inner-tspan" font-weight="normal"> target</tspan></tspan><tspan class="text-outer-tspan row" x="0" y="2.1em" dy="1.1em"><tspan font-style="normal" class="text-inner-tspan" font-weight="normal">over</tspan><tspan font-style="normal" class="text-inner-tspan" font-weight="normal"> rolling</tspan><tspan font-style="normal" class="text-inner-tspan" font-weight="normal"> 28</tspan><tspan font-style="normal" class="text-inner-tspan" font-weight="normal"> to</tspan><tspan font-style="normal" class="text-inner-tspan" font-weight="normal"> 30</tspan><tspan font-style="normal" class="text-inner-tspan" font-weight="normal"> days.</tspan></tspan></text></g></g></g><g class="node default" id="g1e693881-b162-4a91-ab96-7071e856fb87-light-flowchart-Alert-8" data-look="classic" transform="translate(573.9250030517578, 767.1187515258789)"><rect class="basic label-container" style="" x="-105.4765625" y="-42.099998474121094" width="210.953125" height="84.19999694824219"></rect><g class="label" style="" transform="translate(0, -27.099998474121094)"><rect></rect><g><rect class="background" style="stroke: none"></rect><text y="-10.1" style=""><tspan class="text-outer-tspan row" x="0" y="-0.1em" dy="1.1em"><tspan font-style="normal" class="text-inner-tspan" font-weight="normal">Multi-window</tspan></tspan><tspan class="text-outer-tspan row" x="0" y="1em" dy="1.1em"><tspan font-style="normal" class="text-inner-tspan" font-weight="normal">multi-burn-rate</tspan><tspan font-style="normal" class="text-inner-tspan" font-weight="normal"> alert</tspan></tspan><tspan class="text-outer-tspan row" x="0" y="2.1em" dy="1.1em"><tspan font-style="normal" class="text-inner-tspan" font-weight="normal">(see</tspan><tspan font-style="normal" class="text-inner-tspan" font-weight="normal"> SLO</tspan><tspan font-style="normal" class="text-inner-tspan" font-weight="normal"> section).</tspan></tspan></text></g></g></g></g></g></g><defs><filter id="g1e693881-b162-4a91-ab96-7071e856fb87-light-drop-shadow" height="130%" width="130%"><feDropShadow dx="4" dy="4" stdDeviation="0" flood-opacity="0.06" flood-color="#000000"></feDropShadow></filter></defs><defs><filter id="g1e693881-b162-4a91-ab96-7071e856fb87-light-drop-shadow-small" height="150%" width="150%"><feDropShadow dx="2" dy="2" stdDeviation="0" flood-opacity="0.06" flood-color="#000000"></feDropShadow></filter></defs></svg>