<svg id="g54ea4802-63d3-4044-ab08-ea1c798cd1b9-dark" width="100%" xmlns="http://www.w3.org/2000/svg" xmlns:xlink="http://www.w3.org/1999/xlink" class="flowchart" style="max-width: 1192.05078125px;" viewBox="0 0 1192.05078125 1006.1531372070312" role="graphics-document document" aria-roledescription="flowchart-v2"><style>#g54ea4802-63d3-4044-ab08-ea1c798cd1b9-dark{font-family:"trebuchet ms",verdana,arial,sans-serif;font-size:16px;fill:#e5e5e5;}@keyframes edge-animation-frame{from{stroke-dashoffset:0;}}@keyframes dash{to{stroke-dashoffset:0;}}#g54ea4802-63d3-4044-ab08-ea1c798cd1b9-dark .edge-animation-slow{stroke-dasharray:9,5!important;stroke-dashoffset:900;animation:dash 50s linear infinite;stroke-linecap:round;}#g54ea4802-63d3-4044-ab08-ea1c798cd1b9-dark .edge-animation-fast{stroke-dasharray:9,5!important;stroke-dashoffset:900;animation:dash 20s linear infinite;stroke-linecap:round;}#g54ea4802-63d3-4044-ab08-ea1c798cd1b9-dark .error-icon{fill:#252525;}#g54ea4802-63d3-4044-ab08-ea1c798cd1b9-dark .error-text{fill:#cccccc;stroke:#cccccc;}#g54ea4802-63d3-4044-ab08-ea1c798cd1b9-dark .edge-thickness-normal{stroke-width:1px;}#g54ea4802-63d3-4044-ab08-ea1c798cd1b9-dark .edge-thickness-thick{stroke-width:3.5px;}#g54ea4802-63d3-4044-ab08-ea1c798cd1b9-dark .edge-pattern-solid{stroke-dasharray:0;}#g54ea4802-63d3-4044-ab08-ea1c798cd1b9-dark .edge-thickness-invisible{stroke-width:0;fill:none;}#g54ea4802-63d3-4044-ab08-ea1c798cd1b9-dark .edge-pattern-dashed{stroke-dasharray:3;}#g54ea4802-63d3-4044-ab08-ea1c798cd1b9-dark .edge-pattern-dotted{stroke-dasharray:2;}#g54ea4802-63d3-4044-ab08-ea1c798cd1b9-dark .marker{fill:#cccccc;stroke:#cccccc;}#g54ea4802-63d3-4044-ab08-ea1c798cd1b9-dark .marker.cross{stroke:#cccccc;}#g54ea4802-63d3-4044-ab08-ea1c798cd1b9-dark svg{font-family:"trebuchet ms",verdana,arial,sans-serif;font-size:16px;}#g54ea4802-63d3-4044-ab08-ea1c798cd1b9-dark p{margin:0;}#g54ea4802-63d3-4044-ab08-ea1c798cd1b9-dark .label{font-family:"trebuchet ms",verdana,arial,sans-serif;color:#e5e5e5;}#g54ea4802-63d3-4044-ab08-ea1c798cd1b9-dark .cluster-label text{fill:#e5e5e5;}#g54ea4802-63d3-4044-ab08-ea1c798cd1b9-dark .cluster-label span{color:#e5e5e5;}#g54ea4802-63d3-4044-ab08-ea1c798cd1b9-dark .cluster-label span p{background-color:transparent;}#g54ea4802-63d3-4044-ab08-ea1c798cd1b9-dark .label text,#g54ea4802-63d3-4044-ab08-ea1c798cd1b9-dark span{fill:#e5e5e5;color:#e5e5e5;}#g54ea4802-63d3-4044-ab08-ea1c798cd1b9-dark .node rect,#g54ea4802-63d3-4044-ab08-ea1c798cd1b9-dark .node circle,#g54ea4802-63d3-4044-ab08-ea1c798cd1b9-dark .node ellipse,#g54ea4802-63d3-4044-ab08-ea1c798cd1b9-dark .node polygon,#g54ea4802-63d3-4044-ab08-ea1c798cd1b9-dark .node path{fill:#2d2d2d;stroke:#555555;stroke-width:1px;}#g54ea4802-63d3-4044-ab08-ea1c798cd1b9-dark .rough-node .label text,#g54ea4802-63d3-4044-ab08-ea1c798cd1b9-dark .node .label text,#g54ea4802-63d3-4044-ab08-ea1c798cd1b9-dark .image-shape .label,#g54ea4802-63d3-4044-ab08-ea1c798cd1b9-dark .icon-shape .label{text-anchor:middle;}#g54ea4802-63d3-4044-ab08-ea1c798cd1b9-dark .node .katex path{fill:#000;stroke:#000;stroke-width:1px;}#g54ea4802-63d3-4044-ab08-ea1c798cd1b9-dark .rough-node .label,#g54ea4802-63d3-4044-ab08-ea1c798cd1b9-dark .node .label,#g54ea4802-63d3-4044-ab08-ea1c798cd1b9-dark .image-shape .label,#g54ea4802-63d3-4044-ab08-ea1c798cd1b9-dark .icon-shape .label{text-align:center;}#g54ea4802-63d3-4044-ab08-ea1c798cd1b9-dark .node.clickable{cursor:pointer;}#g54ea4802-63d3-4044-ab08-ea1c798cd1b9-dark .root .anchor path{fill:#cccccc!important;stroke-width:0;stroke:#cccccc;}#g54ea4802-63d3-4044-ab08-ea1c798cd1b9-dark .arrowheadPath{fill:#cccccc;}#g54ea4802-63d3-4044-ab08-ea1c798cd1b9-dark .edgePath .path{stroke:#cccccc;stroke-width:1px;}#g54ea4802-63d3-4044-ab08-ea1c798cd1b9-dark .flowchart-link{stroke:#cccccc;fill:none;}#g54ea4802-63d3-4044-ab08-ea1c798cd1b9-dark .edgeLabel{background-color:#1e1e1e;text-align:center;}#g54ea4802-63d3-4044-ab08-ea1c798cd1b9-dark .edgeLabel p{background-color:#1e1e1e;}#g54ea4802-63d3-4044-ab08-ea1c798cd1b9-dark .edgeLabel rect{opacity:0.5;background-color:#1e1e1e;fill:#1e1e1e;}#g54ea4802-63d3-4044-ab08-ea1c798cd1b9-dark .labelBkg{background-color:rgba(30, 30, 30, 0.5);}#g54ea4802-63d3-4044-ab08-ea1c798cd1b9-dark .cluster rect{fill:#1e1e1e;stroke:#555555;stroke-width:1px;}#g54ea4802-63d3-4044-ab08-ea1c798cd1b9-dark .cluster text{fill:#e5e5e5;}#g54ea4802-63d3-4044-ab08-ea1c798cd1b9-dark .cluster span{color:#e5e5e5;}#g54ea4802-63d3-4044-ab08-ea1c798cd1b9-dark div.mermaidTooltip{position:absolute;text-align:center;max-width:200px;padding:2px;font-family:"trebuchet ms",verdana,arial,sans-serif;font-size:12px;background:#252525;border:1px solid #555555;border-radius:2px;pointer-events:none;z-index:100;}#g54ea4802-63d3-4044-ab08-ea1c798cd1b9-dark .flowchartTitleText{text-anchor:middle;font-size:18px;fill:#e5e5e5;}#g54ea4802-63d3-4044-ab08-ea1c798cd1b9-dark rect.text{fill:none;stroke-width:0;}#g54ea4802-63d3-4044-ab08-ea1c798cd1b9-dark .icon-shape,#g54ea4802-63d3-4044-ab08-ea1c798cd1b9-dark .image-shape{background-color:#1e1e1e;text-align:center;}#g54ea4802-63d3-4044-ab08-ea1c798cd1b9-dark .icon-shape p,#g54ea4802-63d3-4044-ab08-ea1c798cd1b9-dark .image-shape p{background-color:#1e1e1e;padding:2px;}#g54ea4802-63d3-4044-ab08-ea1c798cd1b9-dark .icon-shape .label rect,#g54ea4802-63d3-4044-ab08-ea1c798cd1b9-dark .image-shape .label rect{opacity:0.5;background-color:#1e1e1e;fill:#1e1e1e;}#g54ea4802-63d3-4044-ab08-ea1c798cd1b9-dark .label-icon{display:inline-block;height:1em;overflow:visible;vertical-align:-0.125em;}#g54ea4802-63d3-4044-ab08-ea1c798cd1b9-dark .node .label-icon path{fill:currentColor;stroke:revert;stroke-width:revert;}#g54ea4802-63d3-4044-ab08-ea1c798cd1b9-dark .node .neo-node{stroke:#555555;}#g54ea4802-63d3-4044-ab08-ea1c798cd1b9-dark [data-look="neo"].node rect,#g54ea4802-63d3-4044-ab08-ea1c798cd1b9-dark [data-look="neo"].cluster rect,#g54ea4802-63d3-4044-ab08-ea1c798cd1b9-dark [data-look="neo"].node polygon{stroke:url(#g54ea4802-63d3-4044-ab08-ea1c798cd1b9-dark-gradient);filter:drop-shadow( 1px 2px 2px rgba(185,185,185,1));}#g54ea4802-63d3-4044-ab08-ea1c798cd1b9-dark [data-look="neo"].node path{stroke:url(#g54ea4802-63d3-4044-ab08-ea1c798cd1b9-dark-gradient);stroke-width:1px;}#g54ea4802-63d3-4044-ab08-ea1c798cd1b9-dark [data-look="neo"].node .outer-path{filter:drop-shadow( 1px 2px 2px rgba(185,185,185,1));}#g54ea4802-63d3-4044-ab08-ea1c798cd1b9-dark [data-look="neo"].node .neo-line path{stroke:#555555;filter:none;}#g54ea4802-63d3-4044-ab08-ea1c798cd1b9-dark [data-look="neo"].node circle{stroke:url(#g54ea4802-63d3-4044-ab08-ea1c798cd1b9-dark-gradient);filter:drop-shadow( 1px 2px 2px rgba(185,185,185,1));}#g54ea4802-63d3-4044-ab08-ea1c798cd1b9-dark [data-look="neo"].node circle .state-start{fill:#000000;}#g54ea4802-63d3-4044-ab08-ea1c798cd1b9-dark [data-look="neo"].icon-shape .icon{fill:url(#g54ea4802-63d3-4044-ab08-ea1c798cd1b9-dark-gradient);filter:drop-shadow( 1px 2px 2px rgba(185,185,185,1));}#g54ea4802-63d3-4044-ab08-ea1c798cd1b9-dark [data-look="neo"].icon-shape .icon-neo path{stroke:url(#g54ea4802-63d3-4044-ab08-ea1c798cd1b9-dark-gradient);filter:drop-shadow( 1px 2px 2px rgba(185,185,185,1));}#g54ea4802-63d3-4044-ab08-ea1c798cd1b9-dark :root{--mermaid-font-family:"trebuchet ms",verdana,arial,sans-serif;}</style><g><marker id="g54ea4802-63d3-4044-ab08-ea1c798cd1b9-dark_flowchart-v2-pointEnd" class="marker flowchart-v2" viewBox="0 0 10 10" refX="5" refY="5" markerUnits="userSpaceOnUse" markerWidth="8" markerHeight="8" orient="auto"><path d="M 0 0 L 10 5 L 0 10 z" class="arrowMarkerPath" style="stroke-width: 1; stroke-dasharray: 1, 0;"></path></marker><marker id="g54ea4802-63d3-4044-ab08-ea1c798cd1b9-dark_flowchart-v2-pointStart" class="marker flowchart-v2" viewBox="0 0 10 10" refX="4.5" refY="5" markerUnits="userSpaceOnUse" markerWidth="8" markerHeight="8" orient="auto"><path d="M 0 5 L 10 10 L 10 0 z" class="arrowMarkerPath" style="stroke-width: 1; stroke-dasharray: 1, 0;"></path></marker><marker id="g54ea4802-63d3-4044-ab08-ea1c798cd1b9-dark_flowchart-v2-pointEnd-margin" class="marker flowchart-v2" viewBox="0 0 11.5 14" refX="11.5" refY="7" markerUnits="userSpaceOnUse" markerWidth="10.5" markerHeight="14" orient="auto"><path d="M 0 0 L 11.5 7 L 0 14 z" class="arrowMarkerPath" style="stroke-width: 0; stroke-dasharray: 1, 0;"></path></marker><marker id="g54ea4802-63d3-4044-ab08-ea1c798cd1b9-dark_flowchart-v2-pointStart-margin" class="marker flowchart-v2" viewBox="0 0 11.5 14" refX="1" refY="7" markerUnits="userSpaceOnUse" markerWidth="11.5" markerHeight="14" orient="auto"><polygon points="0,7 11.5,14 11.5,0" class="arrowMarkerPath" style="stroke-width: 0; stroke-dasharray: 1, 0;"></polygon></marker><marker id="g54ea4802-63d3-4044-ab08-ea1c798cd1b9-dark_flowchart-v2-circleEnd" class="marker flowchart-v2" viewBox="0 0 10 10" refX="11" refY="5" markerUnits="userSpaceOnUse" markerWidth="11" markerHeight="11" orient="auto"><circle cx="5" cy="5" r="5" class="arrowMarkerPath" style="stroke-width: 1; stroke-dasharray: 1, 0;"></circle></marker><marker id="g54ea4802-63d3-4044-ab08-ea1c798cd1b9-dark_flowchart-v2-circleStart" class="marker flowchart-v2" viewBox="0 0 10 10" refX="-1" refY="5" markerUnits="userSpaceOnUse" markerWidth="11" markerHeight="11" orient="auto"><circle cx="5" cy="5" r="5" class="arrowMarkerPath" style="stroke-width: 1; stroke-dasharray: 1, 0;"></circle></marker><marker id="g54ea4802-63d3-4044-ab08-ea1c798cd1b9-dark_flowchart-v2-circleEnd-margin" class="marker flowchart-v2" viewBox="0 0 10 10" refY="5" refX="12.25" markerUnits="userSpaceOnUse" markerWidth="14" markerHeight="14" orient="auto"><circle cx="5" cy="5" r="5" class="arrowMarkerPath" style="stroke-width: 0; stroke-dasharray: 1, 0;"></circle></marker><marker id="g54ea4802-63d3-4044-ab08-ea1c798cd1b9-dark_flowchart-v2-circleStart-margin" class="marker flowchart-v2" viewBox="0 0 10 10" refX="-2" refY="5" markerUnits="userSpaceOnUse" markerWidth="14" markerHeight="14" orient="auto"><circle cx="5" cy="5" r="5" class="arrowMarkerPath" style="stroke-width: 0; stroke-dasharray: 1, 0;"></circle></marker><marker id="g54ea4802-63d3-4044-ab08-ea1c798cd1b9-dark_flowchart-v2-crossEnd" class="marker cross flowchart-v2" viewBox="0 0 11 11" refX="12" refY="5.2" markerUnits="userSpaceOnUse" markerWidth="11" markerHeight="11" orient="auto"><path d="M 1,1 l 9,9 M 10,1 l -9,9" class="arrowMarkerPath" style="stroke-width: 2; stroke-dasharray: 1, 0;"></path></marker><marker id="g54ea4802-63d3-4044-ab08-ea1c798cd1b9-dark_flowchart-v2-crossStart" class="marker cross flowchart-v2" viewBox="0 0 11 11" refX="-1" refY="5.2" markerUnits="userSpaceOnUse" markerWidth="11" markerHeight="11" orient="auto"><path d="M 1,1 l 9,9 M 10,1 l -9,9" class="arrowMarkerPath" style="stroke-width: 2; stroke-dasharray: 1, 0;"></path></marker><marker id="g54ea4802-63d3-4044-ab08-ea1c798cd1b9-dark_flowchart-v2-crossEnd-margin" class="marker cross flowchart-v2" viewBox="0 0 15 15" refX="17.7" refY="7.5" markerUnits="userSpaceOnUse" markerWidth="12" markerHeight="12" orient="auto"><path d="M 1,1 L 14,14 M 1,14 L 14,1" class="arrowMarkerPath" style="stroke-width: 2.5;"></path></marker><marker id="g54ea4802-63d3-4044-ab08-ea1c798cd1b9-dark_flowchart-v2-crossStart-margin" class="marker cross flowchart-v2" viewBox="0 0 15 15" refX="-3.5" refY="7.5" markerUnits="userSpaceOnUse" markerWidth="12" markerHeight="12" orient="auto"><path d="M 1,1 L 14,14 M 1,14 L 14,1" class="arrowMarkerPath" style="stroke-width: 2.5; stroke-dasharray: 1, 0;"></path></marker><g class="root"><g class="clusters"></g><g class="edgePaths"><path d="M514.117,42.5L514.034,46.583C513.951,50.667,513.784,58.833,513.701,66.417C513.617,74,513.617,81,513.617,84.5L513.617,88" id="g54ea4802-63d3-4044-ab08-ea1c798cd1b9-dark-L_Start_Q1_0" class="edge-thickness-normal edge-pattern-solid edge-thickness-normal edge-pattern-solid flowchart-link" style=";" data-edge="true" data-et="edge" data-id="L_Start_Q1_0" data-points="W3sieCI6NTE0LjExNzE4NzUsInkiOjQyLjV9LHsieCI6NTEzLjYxNzE4NzUsInkiOjY3fSx7IngiOjUxMy42MTcxODc1MDAwMDAxLCJ5Ijo5Mi4wMDAwMDAwMDAwMDAwMX1d" data-look="classic" marker-end="url(#g54ea4802-63d3-4044-ab08-ea1c798cd1b9-dark_flowchart-v2-pointEnd)"></path><path d="M440.964,252.156L410.755,270.349C380.545,288.541,320.126,324.925,289.917,350.585C259.707,376.245,259.707,391.181,259.707,398.649L259.707,406.117" id="g54ea4802-63d3-4044-ab08-ea1c798cd1b9-dark-L_Q1_Hash_0" class="edge-thickness-normal edge-pattern-solid edge-thickness-normal edge-pattern-solid flowchart-link" style=";" data-edge="true" data-et="edge" data-id="L_Q1_Hash_0" data-points="W3sieCI6NDQwLjk2NDE1NDg3NjI4MzIsInkiOjI1Mi4xNTYzMzkzMjQ1MjU0fSx7IngiOjI1OS43MDcwMzEyNSwieSI6MzYxLjMwOTM3MTk0ODI0MjJ9LHsieCI6MjU5LjcwNzAzMTI1LCJ5Ijo0MTAuMTE3MTg3NX1d" data-look="classic" marker-end="url(#g54ea4802-63d3-4044-ab08-ea1c798cd1b9-dark_flowchart-v2-pointEnd)"></path><path d="M214.271,557.884L199.02,575.058C183.769,592.232,153.267,626.58,138.017,653.381C122.766,680.182,122.766,699.436,122.766,709.064L122.766,718.691" id="g54ea4802-63d3-4044-ab08-ea1c798cd1b9-dark-L_Hash_Ring_0" class="edge-thickness-normal edge-pattern-solid edge-thickness-normal edge-pattern-solid flowchart-link" style=";" data-edge="true" data-et="edge" data-id="L_Hash_Ring_0" data-points="W3sieCI6MjE0LjI3MDkzOTE1Mzk4Mjk3LCJ5Ijo1NTcuODg0MjIwNDAzOTgyOX0seyJ4IjoxMjIuNzY1NjI1LCJ5Ijo2NjAuOTI4MTI3Mjg4ODE4NH0seyJ4IjoxMjIuNzY1NjI1LCJ5Ijo3MjIuNjkwNjI4MDUxNzU3OH1d" data-look="classic" marker-end="url(#g54ea4802-63d3-4044-ab08-ea1c798cd1b9-dark_flowchart-v2-pointEnd)"></path><path d="M305.143,557.884L320.394,575.058C335.645,592.232,366.147,626.58,381.398,653.381C396.648,680.182,396.648,699.436,396.648,709.064L396.648,718.691" id="g54ea4802-63d3-4044-ab08-ea1c798cd1b9-dark-L_Hash_Maglev_0" class="edge-thickness-normal edge-pattern-solid edge-thickness-normal edge-pattern-solid flowchart-link" style=";" data-edge="true" data-et="edge" data-id="L_Hash_Maglev_0" data-points="W3sieCI6MzA1LjE0MzEyMzM0NjAxNzAzLCJ5Ijo1NTcuODg0MjIwNDAzOTgyOX0seyJ4IjozOTYuNjQ4NDM3NSwieSI6NjYwLjkyODEyNzI4ODgxODR9LHsieCI6Mzk2LjY0ODQzNzUsInkiOjcyMi42OTA2MjgwNTE3NTc4fV0=" data-look="classic" marker-end="url(#g54ea4802-63d3-4044-ab08-ea1c798cd1b9-dark_flowchart-v2-pointEnd)"></path><path d="M588.575,249.851L622.171,268.428C655.768,287.004,722.96,324.157,756.556,348.15C790.152,372.143,790.152,382.976,790.152,388.393L790.152,393.809" id="g54ea4802-63d3-4044-ab08-ea1c798cd1b9-dark-L_Q1_Q2_0" class="edge-thickness-normal edge-pattern-solid edge-thickness-normal edge-pattern-solid flowchart-link" style=";" data-edge="true" data-et="edge" data-id="L_Q1_Q2_0" data-points="W3sieCI6NTg4LjU3NTI3MjEwMDA5MTksInkiOjI0OS44NTEyODczNDgxNTAzOH0seyJ4Ijo3OTAuMTUyMzQzNzUsInkiOjM2MS4zMDkzNzE5NDgyNDIyfSx7IngiOjc5MC4xNTIzNDM3NSwieSI6Mzk3LjgwOTM3MTk0ODI0MjJ9XQ==" data-look="classic" marker-end="url(#g54ea4802-63d3-4044-ab08-ea1c798cd1b9-dark_flowchart-v2-pointEnd)"></path><path d="M743.788,569.263L732.462,584.541C721.137,599.818,698.486,630.373,687.161,655.278C675.836,680.182,675.836,699.436,675.836,709.064L675.836,718.691" id="g54ea4802-63d3-4044-ab08-ea1c798cd1b9-dark-L_Q2_RR_0" class="edge-thickness-normal edge-pattern-solid edge-thickness-normal edge-pattern-solid flowchart-link" style=";" data-edge="true" data-et="edge" data-id="L_Q2_RR_0" data-points="W3sieCI6NzQzLjc4NzYwMTYzMjA0MzMsInkiOjU2OS4yNjMzODU5MzM4MDExfSx7IngiOjY3NS44MzU5Mzc1LCJ5Ijo2NjAuOTI4MTI3Mjg4ODE4NH0seyJ4Ijo2NzUuODM1OTM3NSwieSI6NzIyLjY5MDYyODA1MTc1Nzh9XQ==" data-look="classic" marker-end="url(#g54ea4802-63d3-4044-ab08-ea1c798cd1b9-dark_flowchart-v2-pointEnd)"></path><path d="M836.517,569.263L847.842,584.541C859.168,599.818,881.818,630.373,893.143,652.534C904.469,674.695,904.469,688.461,904.469,695.345L904.469,702.228" id="g54ea4802-63d3-4044-ab08-ea1c798cd1b9-dark-L_Q2_Q3_0" class="edge-thickness-normal edge-pattern-solid edge-thickness-normal edge-pattern-solid flowchart-link" style=";" data-edge="true" data-et="edge" data-id="L_Q2_Q3_0" data-points="W3sieCI6ODM2LjUxNzA4NTg2Nzk1NjcsInkiOjU2OS4yNjMzODU5MzM4MDF9LHsieCI6OTA0LjQ2ODc1LCJ5Ijo2NjAuOTI4MTI3Mjg4ODE4NH0seyJ4Ijo5MDQuNDY4NzUsInkiOjcwNi4yMjgxMjY1MjU4Nzg4fV0=" data-look="classic" marker-end="url(#g54ea4802-63d3-4044-ab08-ea1c798cd1b9-dark_flowchart-v2-pointEnd)"></path><path d="M869.864,788.748L850.628,802.066C831.392,815.383,792.921,842.018,773.685,862.219C754.449,882.42,754.449,896.186,754.449,903.07L754.449,909.953" id="g54ea4802-63d3-4044-ab08-ea1c798cd1b9-dark-L_Q3_LC_0" class="edge-thickness-normal edge-pattern-solid edge-thickness-normal edge-pattern-solid flowchart-link" style=";" data-edge="true" data-et="edge" data-id="L_Q3_LC_0" data-points="W3sieCI6ODY5Ljg2NDAyMTI1MjY2MiwieSI6Nzg4Ljc0ODM5Nzc3ODU0MDh9LHsieCI6NzU0LjQ0OTIxODc1LCJ5Ijo4NjguNjUzMTI1NzYyOTM5NX0seyJ4Ijo3NTQuNDQ5MjE4NzUsInkiOjkxMy45NTMxMjV9XQ==" data-look="classic" marker-end="url(#g54ea4802-63d3-4044-ab08-ea1c798cd1b9-dark_flowchart-v2-pointEnd)"></path><path d="M939.073,788.748L958.309,802.066C977.545,815.383,1016.017,842.018,1035.252,862.219C1054.488,882.42,1054.488,896.186,1054.488,903.07L1054.488,909.953" id="g54ea4802-63d3-4044-ab08-ea1c798cd1b9-dark-L_Q3_P2C_0" class="edge-thickness-normal edge-pattern-solid edge-thickness-normal edge-pattern-solid flowchart-link" style=";" data-edge="true" data-et="edge" data-id="L_Q3_P2C_0" data-points="W3sieCI6OTM5LjA3MzQ3ODc0NzMzOCwieSI6Nzg4Ljc0ODM5Nzc3ODU0MDh9LHsieCI6MTA1NC40ODgyODEyNSwieSI6ODY4LjY1MzEyNTc2MjkzOTV9LHsieCI6MTA1NC40ODgyODEyNSwieSI6OTEzLjk1MzEyNX1d" data-look="classic" marker-end="url(#g54ea4802-63d3-4044-ab08-ea1c798cd1b9-dark_flowchart-v2-pointEnd)"></path></g><g class="edgeLabels"><g class="edgeLabel"><g class="label" data-id="L_Start_Q1_0" transform="translate(0, 0)"><text y="-10.1" text-anchor="middle"><tspan class="text-outer-tspan row" x="0" y="-0.1em" dy="1.1em" text-anchor="middle"></tspan></text></g></g><g><rect class="background" style="stroke: none"></rect></g><g class="edgeLabel" transform="translate(259.70703125, 361.3093719482422)"><g class="label" data-id="L_Q1_Hash_0" transform="translate(0, -10.5)"><g><rect class="background" style="" x="-13.328125" y="-1" width="26.65625" height="23"></rect><text y="-10.1" text-anchor="middle" style=""><tspan class="text-outer-tspan row" x="0" y="-0.1em" dy="1.1em" text-anchor="middle"><tspan font-style="normal" class="text-inner-tspan" font-weight="normal">Yes</tspan></tspan></text></g></g></g><g class="edgeLabel" transform="translate(122.765625, 660.9281272888184)"><g class="label" data-id="L_Hash_Ring_0" transform="translate(0, -10.5)"><g><rect class="background" style="" x="-52.2265625" y="-1" width="104.453125" height="23"></rect><text y="-10.1" text-anchor="middle" style=""><tspan class="text-outer-tspan row" x="0" y="-0.1em" dy="1.1em" text-anchor="middle"><tspan font-style="normal" class="text-inner-tspan" font-weight="normal">Small</tspan><tspan font-style="normal" class="text-inner-tspan" font-weight="normal"> /</tspan><tspan font-style="normal" class="text-inner-tspan" font-weight="normal"> stable</tspan></tspan></text></g></g></g><g class="edgeLabel" transform="translate(396.6484375, 660.9281272888184)"><g class="label" data-id="L_Hash_Maglev_0" transform="translate(0, -19.299999237060547)"><g><rect class="background" style="" x="-74.7890625" y="-1" width="149.578125" height="40.599998474121094"></rect><text y="-10.1" text-anchor="middle" style=""><tspan class="text-outer-tspan row" x="0" y="-0.1em" dy="1.1em" text-anchor="middle"><tspan font-style="normal" class="text-inner-tspan" font-weight="normal">Large</tspan><tspan font-style="normal" class="text-inner-tspan" font-weight="normal"> /</tspan><tspan font-style="normal" class="text-inner-tspan" font-weight="normal"> churny</tspan></tspan><tspan class="text-outer-tspan row" x="0" y="1em" dy="1.1em" text-anchor="middle"><tspan font-style="normal" class="text-inner-tspan" font-weight="normal">connection-oriented</tspan></tspan></text></g></g></g><g class="edgeLabel" transform="translate(790.15234375, 361.3093719482422)"><g class="label" data-id="L_Q1_Q2_0" transform="translate(0, -10.5)"><g><rect class="background" style="" x="-11.3984375" y="-1" width="22.796875" height="23"></rect><text y="-10.1" text-anchor="middle" style=""><tspan class="text-outer-tspan row" x="0" y="-0.1em" dy="1.1em" text-anchor="middle"><tspan font-style="normal" class="text-inner-tspan" font-weight="normal">No</tspan></tspan></text></g></g></g><g class="edgeLabel" transform="translate(675.8359375, 660.9281272888184)"><g class="label" data-id="L_Q2_RR_0" transform="translate(0, -10.5)"><g><rect class="background" style="" x="-65.359375" y="-1" width="130.71875" height="23"></rect><text y="-10.1" text-anchor="middle" style=""><tspan class="text-outer-tspan row" x="0" y="-0.1em" dy="1.1em" text-anchor="middle"><tspan font-style="normal" class="text-inner-tspan" font-weight="normal">No,</tspan><tspan font-style="normal" class="text-inner-tspan" font-weight="normal"> homogeneous</tspan></tspan></text></g></g></g><g class="edgeLabel" transform="translate(904.46875, 660.9281272888184)"><g class="label" data-id="L_Q2_Q3_0" transform="translate(0, -10.5)"><g><rect class="background" style="" x="-13.328125" y="-1" width="26.65625" height="23"></rect><text y="-10.1" text-anchor="middle" style=""><tspan class="text-outer-tspan row" x="0" y="-0.1em" dy="1.1em" text-anchor="middle"><tspan font-style="normal" class="text-inner-tspan" font-weight="normal">Yes</tspan></tspan></text></g></g></g><g class="edgeLabel" transform="translate(754.44921875, 868.6531257629395)"><g class="label" data-id="L_Q3_LC_0" transform="translate(0, -10.5)"><g><rect class="background" style="" x="-62.7890625" y="-1" width="125.578125" height="23"></rect><text y="-10.1" text-anchor="middle" style=""><tspan class="text-outer-tspan row" x="0" y="-0.1em" dy="1.1em" text-anchor="middle"><tspan font-style="normal" class="text-inner-tspan" font-weight="normal">Tens</tspan><tspan font-style="normal" class="text-inner-tspan" font-weight="normal"> of</tspan><tspan font-style="normal" class="text-inner-tspan" font-weight="normal"> backends</tspan></tspan></text></g></g></g><g class="edgeLabel" transform="translate(1054.48828125, 868.6531257629395)"><g class="label" data-id="L_Q3_P2C_0" transform="translate(0, -19.299999237060547)"><g><rect class="background" style="" x="-50.15625" y="-1" width="100.3125" height="40.599998474121094"></rect><text y="-10.1" text-anchor="middle" style=""><tspan class="text-outer-tspan row" x="0" y="-0.1em" dy="1.1em" text-anchor="middle"><tspan font-style="normal" class="text-inner-tspan" font-weight="normal">Hundreds+</tspan><tspan font-style="normal" class="text-inner-tspan" font-weight="normal"> or</tspan></tspan><tspan class="text-outer-tspan row" x="0" y="1em" dy="1.1em" text-anchor="middle"><tspan font-style="normal" class="text-inner-tspan" font-weight="normal">multi-LB</tspan><tspan font-style="normal" class="text-inner-tspan" font-weight="normal"> pool</tspan></tspan></text></g></g></g></g><g class="nodes"><g class="node default" id="g54ea4802-63d3-4044-ab08-ea1c798cd1b9-dark-flowchart-Start-0" data-look="classic" transform="translate(513.6171875, 25)"><g class="basic label-container outer-path"><path d="M-56.9609375 -17 C-30.16724961830558 -17, -3.3735617366111583 -17, 56.9609375 -17 C56.9609375 -17, 56.9609375 -17, 56.9609375 -17 C57.30982492337825 -16.988811859400432, 57.658712346756495 -16.977623718800864, 58.05013123967212 -16.965071676755716 C58.45447658208663 -16.92606496786941, 58.85882192450114 -16.887058258983107, 59.1348492486366 -16.860430234995185 C59.39372958336292 -16.818576470123613, 59.65260991808924 -16.77672270525204, 60.210634187923326 -16.686505668848113 C60.43528366583876 -16.63523089148876, 60.6599331437542 -16.583956114129407, 61.27306542646162 -16.4440126716635 C61.58062129452264 -16.352731704416684, 61.888177162583666 -16.26145073716987, 62.31777720640155 -16.133947699181366 C62.66640474310583 -16.005649542996572, 63.0150322798101 -15.877351386811775, 63.34047658294936 -15.757584874882369 C63.567117445498035 -15.657257688094386, 63.79375830804671 -15.556930501306406, 64.33696106499849 -15.316470754341125 C64.69763570934339 -15.128307023409523, 65.0583103536883 -14.940143292477922, 65.30313588406693 -14.812417970097622 C65.60802597394787 -14.627591805878748, 65.91291606382882 -14.442765641659872, 66.23503082057933 -14.247497783161291 C66.45914529476217 -14.091165227730563, 66.683259768945 -13.934832672299837, 67.12881651835067 -13.624031571755262 C67.46352963961901 -13.357106764633993, 67.79824276088735 -13.090181957512723, 67.9808202202324 -12.944581292275288 C68.196993509916 -12.74825843021647, 68.41316679959958 -12.551935568157653, 68.78754086025927 -12.21193895166137 C69.06516441414135 -11.925269838960446, 69.34278796802343 -11.638600726259524, 69.54566345028036 -11.42911513444239 C69.75600256678237 -11.182038839564335, 69.9663416832844 -10.934962544686279, 70.25207270195651 -10.59932663159847 C70.47489425364635 -10.300766051795025, 70.69771580533622 -10.00220547199158, 70.90386582814824 -9.725983222076888 C71.13579197182862 -9.369682384494107, 71.36771811550899 -9.013381546911324, 71.49836447109088 -8.812673661278927 C71.65164386985136 -8.540510567557522, 71.80492326861183 -8.268347473836117, 72.033125708341 -7.863150934094199 C72.13207911171787 -7.65767207471847, 72.23103251509475 -7.452193215342742, 72.50595209126881 -6.881316833080699 C72.66298317566896 -6.493447018622863, 72.8200142600691 -6.105577204165027, 72.91490067484592 -5.871205925162238 C73.02202111072043 -5.548576239631909, 73.12914154659494 -5.22594655410158, 73.25829100162323 -4.836968972727556 C73.32254338680829 -4.591946780857027, 73.38679577199335 -4.346924588986498, 73.534712007091 -3.7828558772573464 C73.60019262284234 -3.4466267547072085, 73.6656732385937 -3.1103976321570705, 73.74302781804565 -2.713198215567453 C73.79845493396266 -2.2833164498371903, 73.85388204987966 -1.8534346841069274, 73.88238242013637 -1.632391440430593 C73.90061247443973 -1.3484436296207503, 73.9188425287431 -1.0644958188109077, 73.9522031754117 -0.5448768187181379 C73.9522031754117 -0.3024075891203863, 73.9522031754117 -0.05993835952263471, 73.9522031754117 0.5448768187181336 C73.93392041710625 0.829645536902212, 73.91563765880082 1.1144142550862903, 73.88238242013637 1.6323914404305815 C73.84874703259082 1.8932608641753055, 73.81511164504528 2.1541302879200295, 73.74302781804565 2.7131982155674415 C73.67811680058401 3.0465025712846097, 73.61320578312235 3.3798069270017783, 73.534712007091 3.782855877257343 C73.44440165790901 4.127248379441198, 73.35409130872702 4.471640881625054, 73.25829100162323 4.836968972727545 C73.15420867550732 5.150448355722047, 73.05012634939142 5.463927738716548, 72.91490067484592 5.871205925162227 C72.78648671026828 6.1883909003841175, 72.65807274569063 6.5055758756060085, 72.50595209126881 6.881316833080694 C72.39362335528544 7.11456985680009, 72.28129461930207 7.347822880519485, 72.033125708341 7.863150934094196 C71.86838345316642 8.155667490118951, 71.70364119799181 8.448184046143705, 71.49836447109088 8.812673661278923 C71.3274328393169 9.075270549253718, 71.15650120754292 9.337867437228512, 70.90386582814826 9.725983222076879 C70.70566233809451 9.991557842039485, 70.50745884804077 10.257132462002092, 70.25207270195651 10.599326631598467 C69.9780277539874 10.921235421082267, 69.7039828060183 11.243144210566069, 69.54566345028037 11.42911513444238 C69.38483609854345 11.595182579281904, 69.2240087468065 11.761250024121427, 68.78754086025927 12.211938951661365 C68.47708830710204 12.493883746314332, 68.1666357539448 12.775828540967296, 67.98082022023242 12.944581292275275 C67.708603464249 13.161666911179953, 67.43638670826556 13.378752530084629, 67.12881651835067 13.62403157175526 C66.92088460163987 13.769075875625122, 66.71295268492905 13.914120179494985, 66.23503082057934 14.247497783161286 C66.04078360453656 14.36525158704977, 65.84653638849377 14.483005390938255, 65.30313588406695 14.81241797009762 C64.95686321504354 14.993068199728903, 64.61059054602012 15.173718429360187, 64.33696106499849 15.316470754341124 C63.95265461833164 15.486591818234842, 63.56834817166479 15.656712882128561, 63.340476582949364 15.757584874882367 C63.00272346564912 15.88188114420445, 62.66497034834887 16.00617741352653, 62.31777720640156 16.133947699181363 C62.03339878595385 16.218349721637455, 61.74902036550614 16.302751744093545, 61.27306542646164 16.444012671663497 C60.905037906432234 16.528012551506198, 60.53701038640283 16.6120124313489, 60.21063418792333 16.68650566884811 C59.931885921974036 16.731571526761705, 59.65313765602475 16.776637384675297, 59.13484924863661 16.86043023499518 C58.842757327828586 16.8886079913036, 58.55066540702055 16.91678574761202, 58.05013123967212 16.965071676755716 C57.78094800497837 16.973703859158963, 57.51176477028462 16.98233604156221, 56.9609375 17 C56.9609375 17, 56.9609375 17, 56.9609375 17 C23.066038253076073 17, -10.828860993847854 17, -56.9609375 17 C-57.35110552777524 16.98748807076524, -57.74127355555048 16.974976141530487, -58.05013123967211 16.965071676755716 C-58.33370953409782 16.937715219745265, -58.61728782852353 16.910358762734813, -59.134849248636606 16.86043023499518 C-59.46413789768386 16.807193399888835, -59.79342654673111 16.753956564782488, -60.210634187923326 16.68650566884811 C-60.48573655324599 16.623715349173917, -60.760838918568666 16.56092502949972, -61.27306542646162 16.4440126716635 C-61.522560765030676 16.369963764803963, -61.77205610359973 16.295914857944425, -62.317777206401544 16.13394769918137 C-62.524737474004105 16.057784407583885, -62.731697741606666 15.981621115986401, -63.340476582949364 15.757584874882369 C-63.634066442595596 15.627621353050737, -63.92765630224183 15.497657831219104, -64.33696106499849 15.316470754341127 C-64.6000711467943 15.179206393198298, -64.86318122859012 15.041942032055468, -65.30313588406693 14.812417970097624 C-65.5766802198952 14.646593786193584, -65.85022455572344 14.480769602289543, -66.23503082057931 14.247497783161299 C-66.56380267371173 14.018160770720257, -66.89257452684416 13.788823758279218, -67.12881651835067 13.624031571755264 C-67.3685613440266 13.432841453156467, -67.60830616970252 13.241651334557668, -67.9808202202324 12.94458129227529 C-68.24818324176648 12.701769270155943, -68.51554626330056 12.458957248036596, -68.78754086025926 12.211938951661377 C-69.01302780786297 11.979105165437856, -69.23851475546668 11.746271379214335, -69.54566345028036 11.429115134442386 C-69.78359890931763 11.149622605346053, -70.02153436835489 10.87013007624972, -70.25207270195651 10.599326631598473 C-70.41143426319582 10.3857966576747, -70.57079582443511 10.172266683750927, -70.90386582814824 9.72598322207689 C-71.11004307201569 9.409239609154493, -71.31622031588314 9.092495996232097, -71.49836447109088 8.812673661278936 C-71.61066011770816 8.613281369542683, -71.72295576432545 8.413889077806429, -72.033125708341 7.863150934094201 C-72.21453953123496 7.486441249220898, -72.39595335412893 7.109731564347596, -72.50595209126881 6.881316833080701 C-72.66319571648556 6.492922038696648, -72.82043934170231 6.104527244312595, -72.91490067484592 5.87120592516224 C-73.04151990066833 5.489848991019098, -73.16813912649074 5.108492056875957, -73.25829100162323 4.8369689727275516 C-73.31956463349505 4.603306058240277, -73.38083826536686 4.369643143753003, -73.534712007091 3.782855877257349 C-73.60882707650887 3.4022906600220155, -73.68294214592676 3.0217254427866815, -73.74302781804565 2.713198215567455 C-73.7954684902091 2.306478717849717, -73.84790916237256 1.8997592201319788, -73.88238242013637 1.6323914404306026 C-73.90917294009144 1.2151074672120024, -73.9359634600465 0.797823493993402, -73.9522031754117 0.54487681871814 C-73.9522031754117 0.2916912646429256, -73.9522031754117 0.03850571056771124, -73.9522031754117 -0.5448768187181317 C-73.9261585065265 -0.9505435594833355, -73.90011383764131 -1.3562103002485393, -73.88238242013637 -1.6323914404305793 C-73.84181171445415 -1.9470498221097747, -73.80124100877195 -2.26170820378897, -73.74302781804565 -2.713198215567447 C-73.67101886130231 -3.0829489893460362, -73.599009904559 -3.452699763124626, -73.534712007091 -3.782855877257341 C-73.4630854800438 -4.055998868021516, -73.3914589529966 -4.32914185878569, -73.25829100162323 -4.836968972727544 C-73.17547710201482 -5.086391243745058, -73.0926632024064 -5.335813514762572, -72.91490067484594 -5.871205925162218 C-72.80467999461251 -6.143453136310654, -72.69445931437909 -6.415700347459091, -72.50595209126881 -6.881316833080692 C-72.3531991712973 -7.198511539790413, -72.20044625132581 -7.515706246500134, -72.033125708341 -7.863150934094194 C-71.87334809583825 -8.146852264330516, -71.71357048333549 -8.430553594566838, -71.49836447109088 -8.812673661278929 C-71.31226434327904 -9.098573432479375, -71.12616421546721 -9.384473203679821, -70.90386582814826 -9.725983222076884 C-70.77321909723727 -9.901037939335563, -70.64257236632629 -10.076092656594241, -70.25207270195651 -10.599326631598467 C-70.0750214302344 -10.807301129866017, -69.8979701585123 -11.015275628133567, -69.54566345028037 -11.42911513444238 C-69.33395216078209 -11.64772442266948, -69.12224087128381 -11.86633371089658, -68.78754086025927 -12.21193895166136 C-68.5971914720142 -12.3848092296967, -68.40684208376915 -12.55767950773204, -67.98082022023242 -12.944581292275274 C-67.79113436764175 -13.095850711963802, -67.60144851505108 -13.24712013165233, -67.12881651835067 -13.624031571755259 C-66.83042896061652 -13.832173815041418, -66.53204140288237 -14.040316058327576, -66.23503082057934 -14.247497783161284 C-65.90645568864223 -14.446681959063369, -65.57788055670511 -14.645866134965456, -65.30313588406695 -14.812417970097618 C-64.9619595648957 -14.9904094372754, -64.62078324572444 -15.168400904453181, -64.33696106499849 -15.316470754341124 C-64.08145456777058 -15.429575901332976, -63.82594807054266 -15.542681048324829, -63.34047658294937 -15.757584874882365 C-62.99791066528632 -15.883652299226998, -62.65534474762327 -16.00971972357163, -62.317777206401566 -16.133947699181363 C-61.996006274047026 -16.2294476228941, -61.67423534169249 -16.324947546606836, -61.27306542646164 -16.444012671663494 C-60.86681843309177 -16.536735896890786, -60.4605714397219 -16.629459122118078, -60.21063418792333 -16.68650566884811 C-59.9071212775771 -16.735575282415116, -59.60360836723086 -16.784644895982122, -59.13484924863661 -16.86043023499518 C-58.704141927857634 -16.90198005222939, -58.273434607078656 -16.9435298694636, -58.05013123967212 -16.965071676755716 C-57.68825382543768 -16.97667638107856, -57.326376411203235 -16.9882810854014, -56.96093750000001 -17 C-56.96093750000001 -17, -56.9609375 -17, -56.9609375 -17" stroke="none" stroke-width="0" fill="#2d2d2d" style=""></path><path d="M-56.9609375 -17 C-20.73641472811932 -17, 15.488108043761358 -17, 56.9609375 -17 M-56.9609375 -17 C-20.607342684910854 -17, 15.746252130178291 -17, 56.9609375 -17 M56.9609375 -17 C56.9609375 -17, 56.9609375 -17, 56.9609375 -17 M56.9609375 -17 C56.9609375 -17, 56.9609375 -17, 56.9609375 -17 M56.9609375 -17 C57.38605599640339 -16.986367277263298, 57.81117449280678 -16.972734554526596, 58.05013123967212 -16.965071676755716 M56.9609375 -17 C57.220468137859186 -16.991677357589598, 57.479998775718364 -16.983354715179193, 58.05013123967212 -16.965071676755716 M58.05013123967212 -16.965071676755716 C58.40427458851984 -16.93090789381207, 58.758417937367554 -16.896744110868422, 59.1348492486366 -16.860430234995185 M58.05013123967212 -16.965071676755716 C58.39223300748151 -16.932069530652715, 58.7343347752909 -16.899067384549717, 59.1348492486366 -16.860430234995185 M59.1348492486366 -16.860430234995185 C59.40641108867212 -16.816526222691763, 59.67797292870765 -16.77262221038834, 60.210634187923326 -16.686505668848113 M59.1348492486366 -16.860430234995185 C59.467537634287595 -16.806643756840096, 59.8002260199386 -16.752857278685006, 60.210634187923326 -16.686505668848113 M60.210634187923326 -16.686505668848113 C60.62199931418857 -16.59261426318639, 61.03336444045381 -16.49872285752467, 61.27306542646162 -16.4440126716635 M60.210634187923326 -16.686505668848113 C60.482254670530345 -16.624510066182356, 60.75387515313736 -16.562514463516603, 61.27306542646162 -16.4440126716635 M61.27306542646162 -16.4440126716635 C61.50792435667721 -16.374307773975197, 61.742783286892795 -16.30460287628689, 62.31777720640155 -16.133947699181366 M61.27306542646162 -16.4440126716635 C61.63108206539748 -16.337755212495026, 61.98909870433334 -16.23149775332655, 62.31777720640155 -16.133947699181366 M62.31777720640155 -16.133947699181366 C62.66608727919479 -16.005766372650434, 63.01439735198804 -15.877585046119504, 63.34047658294936 -15.757584874882369 M62.31777720640155 -16.133947699181366 C62.70067846223479 -15.993036497534325, 63.08357971806803 -15.852125295887285, 63.34047658294936 -15.757584874882369 M63.34047658294936 -15.757584874882369 C63.56864749559693 -15.65658038030293, 63.7968184082445 -15.555575885723494, 64.33696106499849 -15.316470754341125 M63.34047658294936 -15.757584874882369 C63.67040857107724 -15.611533770822849, 64.00034055920513 -15.465482666763329, 64.33696106499849 -15.316470754341125 M64.33696106499849 -15.316470754341125 C64.60300537670558 -15.177675607333052, 64.86904968841266 -15.038880460324979, 65.30313588406693 -14.812417970097622 M64.33696106499849 -15.316470754341125 C64.62325645057292 -15.16711063506789, 64.90955183614734 -15.017750515794656, 65.30313588406693 -14.812417970097622 M65.30313588406693 -14.812417970097622 C65.52251352668848 -14.679429953934314, 65.74189116931002 -14.546441937771005, 66.23503082057933 -14.247497783161291 M65.30313588406693 -14.812417970097622 C65.64334436653347 -14.60618158873945, 65.98355284899999 -14.399945207381279, 66.23503082057933 -14.247497783161291 M66.23503082057933 -14.247497783161291 C66.43573386077657 -14.107496030614275, 66.6364369009738 -13.967494278067258, 67.12881651835067 -13.624031571755262 M66.23503082057933 -14.247497783161291 C66.4464875033318 -14.099994755085433, 66.65794418608426 -13.952491727009576, 67.12881651835067 -13.624031571755262 M67.12881651835067 -13.624031571755262 C67.40009812937575 -13.40769170606962, 67.67137974040082 -13.19135184038398, 67.9808202202324 -12.944581292275288 M67.12881651835067 -13.624031571755262 C67.34158452693661 -13.454354746902471, 67.55435253552255 -13.28467792204968, 67.9808202202324 -12.944581292275288 M67.9808202202324 -12.944581292275288 C68.20520638931613 -12.74079971044614, 68.42959255839988 -12.537018128616992, 68.78754086025927 -12.21193895166137 M67.9808202202324 -12.944581292275288 C68.27596679283229 -12.676536984190456, 68.57111336543217 -12.408492676105622, 68.78754086025927 -12.21193895166137 M68.78754086025927 -12.21193895166137 C69.08934570864552 -11.900300667063684, 69.39115055703179 -11.588662382465998, 69.54566345028036 -11.42911513444239 M68.78754086025927 -12.21193895166137 C69.00609632083425 -11.986262494880679, 69.22465178140924 -11.760586038099987, 69.54566345028036 -11.42911513444239 M69.54566345028036 -11.42911513444239 C69.81626114024141 -11.11125569036939, 70.08685883020246 -10.793396246296389, 70.25207270195651 -10.59932663159847 M69.54566345028036 -11.42911513444239 C69.81538459450138 -11.11228533087249, 70.0851057387224 -10.795455527302591, 70.25207270195651 -10.59932663159847 M70.25207270195651 -10.59932663159847 C70.3843251193178 -10.422120440777434, 70.51657753667907 -10.244914249956398, 70.90386582814824 -9.725983222076888 M70.25207270195651 -10.59932663159847 C70.4033806483348 -10.396587767889038, 70.5546885947131 -10.193848904179603, 70.90386582814824 -9.725983222076888 M70.90386582814824 -9.725983222076888 C71.02472222407543 -9.540315343446366, 71.14557862000261 -9.354647464815844, 71.49836447109088 -8.812673661278927 M70.90386582814824 -9.725983222076888 C71.11254534095424 -9.405395452111575, 71.32122485376026 -9.084807682146264, 71.49836447109088 -8.812673661278927 M71.49836447109088 -8.812673661278927 C71.68839753696729 -8.475250709880807, 71.87843060284371 -8.13782775848269, 72.033125708341 -7.863150934094199 M71.49836447109088 -8.812673661278927 C71.71154577369995 -8.434148671548826, 71.92472707630903 -8.055623681818727, 72.033125708341 -7.863150934094199 M72.033125708341 -7.863150934094199 C72.13136198835221 -7.659161196731262, 72.22959826836342 -7.455171459368324, 72.50595209126881 -6.881316833080699 M72.033125708341 -7.863150934094199 C72.18088566006664 -7.556324232779414, 72.32864561179228 -7.249497531464629, 72.50595209126881 -6.881316833080699 M72.50595209126881 -6.881316833080699 C72.59892913816229 -6.651661729664896, 72.69190618505577 -6.422006626249093, 72.91490067484592 -5.871205925162238 M72.50595209126881 -6.881316833080699 C72.63820552397381 -6.554648297353176, 72.77045895667881 -6.227979761625654, 72.91490067484592 -5.871205925162238 M72.91490067484592 -5.871205925162238 C73.00739211891657 -5.592636432131821, 73.09988356298722 -5.314066939101402, 73.25829100162323 -4.836968972727556 M72.91490067484592 -5.871205925162238 C73.04181538630004 -5.488959035375637, 73.16873009775415 -5.106712145589036, 73.25829100162323 -4.836968972727556 M73.25829100162323 -4.836968972727556 C73.32176757213276 -4.59490529845504, 73.38524414264229 -4.352841624182524, 73.534712007091 -3.7828558772573464 M73.25829100162323 -4.836968972727556 C73.35149751026138 -4.48153215933393, 73.44470401889953 -4.1260953459403025, 73.534712007091 -3.7828558772573464 M73.534712007091 -3.7828558772573464 C73.59208803092713 -3.4882421212857593, 73.64946405476326 -3.1936283653141717, 73.74302781804565 -2.713198215567453 M73.534712007091 -3.7828558772573464 C73.60798615319102 -3.4066086235299986, 73.68126029929104 -3.030361369802651, 73.74302781804565 -2.713198215567453 M73.74302781804565 -2.713198215567453 C73.77151135530023 -2.49228552533149, 73.79999489255482 -2.271372835095528, 73.88238242013637 -1.632391440430593 M73.74302781804565 -2.713198215567453 C73.77947221139576 -2.4305426975035256, 73.81591660474585 -2.147887179439598, 73.88238242013637 -1.632391440430593 M73.88238242013637 -1.632391440430593 C73.9000275231955 -1.35755471741378, 73.91767262625463 -1.0827179943969671, 73.9522031754117 -0.5448768187181379 M73.88238242013637 -1.632391440430593 C73.90614157037471 -1.2623234974274202, 73.92990072061306 -0.8922555544242475, 73.9522031754117 -0.5448768187181379 M73.9522031754117 -0.5448768187181379 C73.9522031754117 -0.2865945753278814, 73.9522031754117 -0.028312331937624946, 73.9522031754117 0.5448768187181336 M73.9522031754117 -0.5448768187181379 C73.9522031754117 -0.16312529068066317, 73.9522031754117 0.21862623735681153, 73.9522031754117 0.5448768187181336 M73.9522031754117 0.5448768187181336 C73.93180887284583 0.8625345431661062, 73.91141457027997 1.1801922676140788, 73.88238242013637 1.6323914404305815 M73.9522031754117 0.5448768187181336 C73.93294486149252 0.8448406030406248, 73.91368654757332 1.144804387363116, 73.88238242013637 1.6323914404305815 M73.88238242013637 1.6323914404305815 C73.84607398480759 1.91399249492907, 73.80976554947881 2.1955935494275587, 73.74302781804565 2.7131982155674415 M73.88238242013637 1.6323914404305815 C73.84494845636392 1.9227218712774101, 73.80751449259148 2.2130523021242388, 73.74302781804565 2.7131982155674415 M73.74302781804565 2.7131982155674415 C73.69863780239207 2.941131564115401, 73.65424778673851 3.1690649126633605, 73.534712007091 3.782855877257343 M73.74302781804565 2.7131982155674415 C73.67259765623385 3.074842211051052, 73.60216749442206 3.436486206534662, 73.534712007091 3.782855877257343 M73.534712007091 3.782855877257343 C73.45951744173802 4.06960534447906, 73.38432287638503 4.356354811700776, 73.25829100162323 4.836968972727545 M73.534712007091 3.782855877257343 C73.4569411319816 4.079429930159981, 73.3791702568722 4.37600398306262, 73.25829100162323 4.836968972727545 M73.25829100162323 4.836968972727545 C73.1377840135423 5.199916820646216, 73.01727702546135 5.562864668564887, 72.91490067484592 5.871205925162227 M73.25829100162323 4.836968972727545 C73.14476788790205 5.178882503803914, 73.03124477418086 5.5207960348802825, 72.91490067484592 5.871205925162227 M72.91490067484592 5.871205925162227 C72.78924578037505 6.1815759438774, 72.66359088590418 6.491945962592573, 72.50595209126881 6.881316833080694 M72.91490067484592 5.871205925162227 C72.80135926095919 6.1516554126363525, 72.68781784707247 6.432104900110479, 72.50595209126881 6.881316833080694 M72.50595209126881 6.881316833080694 C72.40221580039048 7.096727460690596, 72.29847950951215 7.3121380883004985, 72.033125708341 7.863150934094196 M72.50595209126881 6.881316833080694 C72.37986977014751 7.143129470618582, 72.2537874490262 7.4049421081564715, 72.033125708341 7.863150934094196 M72.033125708341 7.863150934094196 C71.82596680586977 8.230982542545433, 71.61880790339852 8.598814150996672, 71.49836447109088 8.812673661278923 M72.033125708341 7.863150934094196 C71.91058983234461 8.080725790028712, 71.78805395634824 8.298300645963229, 71.49836447109088 8.812673661278923 M71.49836447109088 8.812673661278923 C71.33838220935058 9.058449376564445, 71.17839994761029 9.304225091849966, 70.90386582814826 9.725983222076879 M71.49836447109088 8.812673661278923 C71.31089203599647 9.100681664981495, 71.12341960090207 9.38868966868407, 70.90386582814826 9.725983222076879 M70.90386582814826 9.725983222076879 C70.72333613565567 9.967876563423607, 70.5428064431631 10.209769904770335, 70.25207270195651 10.599326631598467 M70.90386582814826 9.725983222076879 C70.70088357477228 9.99796094953699, 70.4979013213963 10.2699386769971, 70.25207270195651 10.599326631598467 M70.25207270195651 10.599326631598467 C70.01068890632655 10.882869773072487, 69.76930511069659 11.166412914546507, 69.54566345028037 11.42911513444238 M70.25207270195651 10.599326631598467 C70.08254730806753 10.79846080552863, 69.91302191417857 10.997594979458794, 69.54566345028037 11.42911513444238 M69.54566345028037 11.42911513444238 C69.27737510327502 11.706144879608335, 69.00908675626968 11.983174624774287, 68.78754086025927 12.211938951661365 M69.54566345028037 11.42911513444238 C69.28777384027815 11.695407329900423, 69.02988423027593 11.961699525358467, 68.78754086025927 12.211938951661365 M68.78754086025927 12.211938951661365 C68.47326650966343 12.49735460162885, 68.1589921590676 12.782770251596334, 67.98082022023242 12.944581292275275 M68.78754086025927 12.211938951661365 C68.47532508555494 12.495485057471114, 68.16310931085061 12.779031163280864, 67.98082022023242 12.944581292275275 M67.98082022023242 12.944581292275275 C67.75979470756411 13.120843256892343, 67.53876919489579 13.297105221509412, 67.12881651835067 13.62403157175526 M67.98082022023242 12.944581292275275 C67.78003874205771 13.104699178100073, 67.57925726388301 13.26481706392487, 67.12881651835067 13.62403157175526 M67.12881651835067 13.62403157175526 C66.94640501727898 13.751273938436263, 66.76399351620728 13.878516305117264, 66.23503082057934 14.247497783161286 M67.12881651835067 13.62403157175526 C66.8783426294824 13.798751313789877, 66.62786874061413 13.973471055824492, 66.23503082057934 14.247497783161286 M66.23503082057934 14.247497783161286 C65.94562307230657 14.422938460912949, 65.6562153240338 14.598379138664612, 65.30313588406695 14.81241797009762 M66.23503082057934 14.247497783161286 C65.89569142574031 14.45320731849234, 65.55635203090128 14.658916853823396, 65.30313588406695 14.81241797009762 M65.30313588406695 14.81241797009762 C65.05740578496543 14.940615205401238, 64.81167568586392 15.068812440704859, 64.33696106499849 15.316470754341124 M65.30313588406695 14.81241797009762 C65.00366261314106 14.96865298371787, 64.70418934221517 15.12488799733812, 64.33696106499849 15.316470754341124 M64.33696106499849 15.316470754341124 C64.00016034056846 15.465562444207784, 63.66335961613843 15.614654134074444, 63.340476582949364 15.757584874882367 M64.33696106499849 15.316470754341124 C64.02993194230308 15.452383439263057, 63.722902819607654 15.588296124184989, 63.340476582949364 15.757584874882367 M63.340476582949364 15.757584874882367 C63.03591129850349 15.869667714929074, 62.73134601405762 15.981750554975783, 62.31777720640156 16.133947699181363 M63.340476582949364 15.757584874882367 C63.073216796871435 15.855938946681425, 62.805957010793506 15.954293018480483, 62.31777720640156 16.133947699181363 M62.31777720640156 16.133947699181363 C62.040765742874235 16.21616324749343, 61.763754279346905 16.298378795805498, 61.27306542646164 16.444012671663497 M62.31777720640156 16.133947699181363 C61.9183194758031 16.25250465682657, 61.518861745204646 16.371061614471778, 61.27306542646164 16.444012671663497 M61.27306542646164 16.444012671663497 C60.933832741961574 16.52144031820049, 60.59460005746151 16.598867964737483, 60.21063418792333 16.68650566884811 M61.27306542646164 16.444012671663497 C61.02986634957623 16.4995212739403, 60.78666727269081 16.555029876217105, 60.21063418792333 16.68650566884811 M60.21063418792333 16.68650566884811 C59.833649709037616 16.747453595836056, 59.456665230151906 16.808401522824, 59.13484924863661 16.86043023499518 M60.21063418792333 16.68650566884811 C59.966901784186796 16.725910433711213, 59.72316938045026 16.765315198574314, 59.13484924863661 16.86043023499518 M59.13484924863661 16.86043023499518 C58.813378717867735 16.891442110473577, 58.49190818709885 16.92245398595197, 58.05013123967212 16.965071676755716 M59.13484924863661 16.86043023499518 C58.77552111616656 16.89509418777926, 58.41619298369651 16.929758140563344, 58.05013123967212 16.965071676755716 M58.05013123967212 16.965071676755716 C57.828362989114616 16.972183352905382, 57.60659473855711 16.97929502905505, 56.9609375 17 M58.05013123967212 16.965071676755716 C57.76886564373327 16.974091316967204, 57.48760004779443 16.983110957178692, 56.9609375 17 M56.9609375 17 C56.9609375 17, 56.9609375 17, 56.9609375 17 M56.9609375 17 C56.9609375 17, 56.9609375 17, 56.9609375 17 M56.9609375 17 C29.842073090430663 17, 2.723208680861326 17, -56.9609375 17 M56.9609375 17 C28.62912045746629 17, 0.2973034149325784 17, -56.9609375 17 M-56.9609375 17 C-57.305454279550254 16.988952017441054, -57.64997105910051 16.97790403488211, -58.05013123967211 16.965071676755716 M-56.9609375 17 C-57.19431089921164 16.992516169321046, -57.42768429842327 16.985032338642096, -58.05013123967211 16.965071676755716 M-58.05013123967211 16.965071676755716 C-58.43574720574423 16.92787176827979, -58.821363171816344 16.890671859803867, -59.134849248636606 16.86043023499518 M-58.05013123967211 16.965071676755716 C-58.32605676462943 16.93845347321208, -58.60198228958674 16.91183526966844, -59.134849248636606 16.86043023499518 M-59.134849248636606 16.86043023499518 C-59.45664432695047 16.8084049022915, -59.77843940526432 16.756379569587818, -60.210634187923326 16.68650566884811 M-59.134849248636606 16.86043023499518 C-59.47610574179756 16.80525853166455, -59.817362234958516 16.750086828333917, -60.210634187923326 16.68650566884811 M-60.210634187923326 16.68650566884811 C-60.58448470958748 16.601176726880915, -60.95833523125164 16.515847784913717, -61.27306542646162 16.4440126716635 M-60.210634187923326 16.68650566884811 C-60.444831972066545 16.63305155290079, -60.679029756209765 16.579597436953463, -61.27306542646162 16.4440126716635 M-61.27306542646162 16.4440126716635 C-61.50290523094504 16.375797424146576, -61.73274503542846 16.30758217662965, -62.317777206401544 16.13394769918137 M-61.27306542646162 16.4440126716635 C-61.577572747364236 16.35363649721115, -61.88208006826685 16.263260322758796, -62.317777206401544 16.13394769918137 M-62.317777206401544 16.13394769918137 C-62.61011277858457 16.02636550629761, -62.9024483507676 15.91878331341385, -63.340476582949364 15.757584874882369 M-62.317777206401544 16.13394769918137 C-62.61615301371384 16.024142643934717, -62.91452882102614 15.914337588688065, -63.340476582949364 15.757584874882369 M-63.340476582949364 15.757584874882369 C-63.66825216816994 15.612488346422493, -63.996027753390514 15.467391817962618, -64.33696106499849 15.316470754341127 M-63.340476582949364 15.757584874882369 C-63.7265168074483 15.58669631897308, -64.11255703194723 15.415807763063794, -64.33696106499849 15.316470754341127 M-64.33696106499849 15.316470754341127 C-64.59759109797213 15.180500233080283, -64.85822113094576 15.04452971181944, -65.30313588406693 14.812417970097624 M-64.33696106499849 15.316470754341127 C-64.67150117981018 15.14194139072704, -65.00604129462187 14.967412027112953, -65.30313588406693 14.812417970097624 M-65.30313588406693 14.812417970097624 C-65.6714383237265 14.589150866790613, -66.03974076338608 14.365883763483602, -66.23503082057931 14.247497783161299 M-65.30313588406693 14.812417970097624 C-65.61215704231115 14.625087527960073, -65.92117820055539 14.437757085822522, -66.23503082057931 14.247497783161299 M-66.23503082057931 14.247497783161299 C-66.5338763608138 14.03903607110865, -66.8327219010483 13.830574359056001, -67.12881651835067 13.624031571755264 M-66.23503082057931 14.247497783161299 C-66.41586919496068 14.12135276155991, -66.59670756934206 13.995207739958522, -67.12881651835067 13.624031571755264 M-67.12881651835067 13.624031571755264 C-67.34451577047297 13.4520171581859, -67.56021502259526 13.280002744616537, -67.9808202202324 12.94458129227529 M-67.12881651835067 13.624031571755264 C-67.45292907651948 13.365560431613046, -67.77704163468827 13.107089291470828, -67.9808202202324 12.94458129227529 M-67.9808202202324 12.94458129227529 C-68.22475576048397 12.72304548879953, -68.46869130073554 12.501509685323771, -68.78754086025926 12.211938951661377 M-67.9808202202324 12.94458129227529 C-68.28968799328833 12.664075752979349, -68.59855576634425 12.383570213683408, -68.78754086025926 12.211938951661377 M-68.78754086025926 12.211938951661377 C-68.95133151742318 12.042811650676583, -69.1151221745871 11.87368434969179, -69.54566345028036 11.429115134442386 M-68.78754086025926 12.211938951661377 C-68.99744101500393 11.995199808764307, -69.2073411697486 11.778460665867236, -69.54566345028036 11.429115134442386 M-69.54566345028036 11.429115134442386 C-69.75600271120986 11.182038669911599, -69.96634197213935 10.934962205380812, -70.25207270195651 10.599326631598473 M-69.54566345028036 11.429115134442386 C-69.73604534930236 11.205481722814204, -69.92642724832436 10.981848311186024, -70.25207270195651 10.599326631598473 M-70.25207270195651 10.599326631598473 C-70.39326335525021 10.41014401891803, -70.53445400854392 10.220961406237588, -70.90386582814824 9.72598322207689 M-70.25207270195651 10.599326631598473 C-70.49454320537252 10.274438246538285, -70.73701370878855 9.949549861478099, -70.90386582814824 9.72598322207689 M-70.90386582814824 9.72598322207689 C-71.05747572978073 9.48999716313525, -71.21108563141323 9.25401110419361, -71.49836447109088 8.812673661278936 M-70.90386582814824 9.72598322207689 C-71.02599256022283 9.538363765990947, -71.14811929229741 9.350744309905005, -71.49836447109088 8.812673661278936 M-71.49836447109088 8.812673661278936 C-71.70897972019641 8.438704959385477, -71.91959496930193 8.064736257492019, -72.033125708341 7.863150934094201 M-71.49836447109088 8.812673661278936 C-71.66433138563775 8.517982598528501, -71.83029830018461 8.223291535778067, -72.033125708341 7.863150934094201 M-72.033125708341 7.863150934094201 C-72.20036160703525 7.515882012180594, -72.36759750572949 7.168613090266986, -72.50595209126881 6.881316833080701 M-72.033125708341 7.863150934094201 C-72.21733035355747 7.480646046954196, -72.40153499877393 7.098141159814191, -72.50595209126881 6.881316833080701 M-72.50595209126881 6.881316833080701 C-72.5951263898297 6.661054591567533, -72.68430068839058 6.440792350054365, -72.91490067484592 5.87120592516224 M-72.50595209126881 6.881316833080701 C-72.64124026325432 6.5471524326576205, -72.77652843523984 6.212988032234539, -72.91490067484592 5.87120592516224 M-72.91490067484592 5.87120592516224 C-73.03294681699451 5.515669753109246, -73.15099295914311 5.160133581056253, -73.25829100162323 4.8369689727275516 M-72.91490067484592 5.87120592516224 C-73.01770662957185 5.561570769432226, -73.12051258429776 5.251935613702212, -73.25829100162323 4.8369689727275516 M-73.25829100162323 4.8369689727275516 C-73.3265288432973 4.5767485079567125, -73.39476668497134 4.3165280431858735, -73.534712007091 3.782855877257349 M-73.25829100162323 4.8369689727275516 C-73.31534159458444 4.619410335883087, -73.37239218754564 4.401851699038622, -73.534712007091 3.782855877257349 M-73.534712007091 3.782855877257349 C-73.59252006126344 3.486023736818466, -73.65032811543587 3.189191596379583, -73.74302781804565 2.713198215567455 M-73.534712007091 3.782855877257349 C-73.61451765824357 3.373070725519257, -73.69432330939614 2.9632855737811648, -73.74302781804565 2.713198215567455 M-73.74302781804565 2.713198215567455 C-73.77287966880183 2.481673156017201, -73.80273151955801 2.2501480964669476, -73.88238242013637 1.6323914404306026 M-73.74302781804565 2.713198215567455 C-73.7803219333399 2.423952421901287, -73.81761604863415 2.1347066282351186, -73.88238242013637 1.6323914404306026 M-73.88238242013637 1.6323914404306026 C-73.89692734925103 1.4058424290142293, -73.9114722783657 1.179293417597856, -73.9522031754117 0.54487681871814 M-73.88238242013637 1.6323914404306026 C-73.90023336869278 1.3543485076380462, -73.91808431724921 1.0763055748454897, -73.9522031754117 0.54487681871814 M-73.9522031754117 0.54487681871814 C-73.9522031754117 0.12975829349623602, -73.9522031754117 -0.28536023172566793, -73.9522031754117 -0.5448768187181317 M-73.9522031754117 0.54487681871814 C-73.9522031754117 0.1729765867026259, -73.9522031754117 -0.1989236453128882, -73.9522031754117 -0.5448768187181317 M-73.9522031754117 -0.5448768187181317 C-73.9296703390154 -0.8958439337684843, -73.90713750261912 -1.2468110488188366, -73.88238242013637 -1.6323914404305793 M-73.9522031754117 -0.5448768187181317 C-73.92831824775253 -0.9169038465763233, -73.90443332009335 -1.2889308744345147, -73.88238242013637 -1.6323914404305793 M-73.88238242013637 -1.6323914404305793 C-73.82687616999793 -2.062886955555469, -73.77136991985948 -2.493382470680359, -73.74302781804565 -2.713198215567447 M-73.88238242013637 -1.6323914404305793 C-73.85185686941915 -1.8691415838414758, -73.82133131870194 -2.1058917272523723, -73.74302781804565 -2.713198215567447 M-73.74302781804565 -2.713198215567447 C-73.70059996817515 -2.9310562575232035, -73.65817211830465 -3.1489142994789603, -73.534712007091 -3.782855877257341 M-73.74302781804565 -2.713198215567447 C-73.67517753391131 -3.0615950844346287, -73.60732724977699 -3.409991953301811, -73.534712007091 -3.782855877257341 M-73.534712007091 -3.782855877257341 C-73.44771529076675 -4.114612061217069, -73.3607185744425 -4.446368245176797, -73.25829100162323 -4.836968972727544 M-73.534712007091 -3.782855877257341 C-73.46347423573161 -4.054516374096101, -73.39223646437223 -4.326176870934862, -73.25829100162323 -4.836968972727544 M-73.25829100162323 -4.836968972727544 C-73.12678496204198 -5.233044211304314, -72.99527892246073 -5.6291194498810855, -72.91490067484594 -5.871205925162218 M-73.25829100162323 -4.836968972727544 C-73.18770620674181 -5.049559128750589, -73.11712141186038 -5.262149284773636, -72.91490067484594 -5.871205925162218 M-72.91490067484594 -5.871205925162218 C-72.7894452843977 -6.181083165084317, -72.66398989394948 -6.490960405006416, -72.50595209126881 -6.881316833080692 M-72.91490067484594 -5.871205925162218 C-72.76571818586078 -6.239689557202759, -72.61653569687563 -6.608173189243299, -72.50595209126881 -6.881316833080692 M-72.50595209126881 -6.881316833080692 C-72.34537501225554 -7.214758573450835, -72.18479793324227 -7.548200313820977, -72.033125708341 -7.863150934094194 M-72.50595209126881 -6.881316833080692 C-72.32694380048888 -7.253031379049067, -72.14793550970894 -7.62474592501744, -72.033125708341 -7.863150934094194 M-72.033125708341 -7.863150934094194 C-71.83192250240225 -8.220407600272331, -71.6307192964635 -8.577664266450467, -71.49836447109088 -8.812673661278929 M-72.033125708341 -7.863150934094194 C-71.910841147049 -8.080279555322711, -71.788556585757 -8.29740817655123, -71.49836447109088 -8.812673661278929 M-71.49836447109088 -8.812673661278929 C-71.28429596705934 -9.141540368913441, -71.07022746302779 -9.470407076547952, -70.90386582814826 -9.725983222076884 M-71.49836447109088 -8.812673661278929 C-71.33701367773881 -9.060551808622318, -71.17566288438675 -9.308429955965707, -70.90386582814826 -9.725983222076884 M-70.90386582814826 -9.725983222076884 C-70.66868613805724 -10.041102581488323, -70.43350644796621 -10.356221940899763, -70.25207270195651 -10.599326631598467 M-70.90386582814826 -9.725983222076884 C-70.76793586422524 -9.908116990259272, -70.6320059003022 -10.090250758441657, -70.25207270195651 -10.599326631598467 M-70.25207270195651 -10.599326631598467 C-70.03738036210297 -10.851516470330653, -69.82268802224942 -11.103706309062838, -69.54566345028037 -11.42911513444238 M-70.25207270195651 -10.599326631598467 C-70.07450810578248 -10.807904109976217, -69.89694350960848 -11.016481588353967, -69.54566345028037 -11.42911513444238 M-69.54566345028037 -11.42911513444238 C-69.36059699220753 -11.620211446641363, -69.1755305341347 -11.811307758840348, -68.78754086025927 -12.21193895166136 M-69.54566345028037 -11.42911513444238 C-69.28755817402974 -11.695630023008427, -69.02945289777911 -11.962144911574473, -68.78754086025927 -12.21193895166136 M-68.78754086025927 -12.21193895166136 C-68.48024658367477 -12.491015483094394, -68.17295230709026 -12.77009201452743, -67.98082022023242 -12.944581292275274 M-68.78754086025927 -12.21193895166136 C-68.52585445359597 -12.449595622350065, -68.26416804693267 -12.687252293038771, -67.98082022023242 -12.944581292275274 M-67.98082022023242 -12.944581292275274 C-67.80277552172706 -13.086567201364886, -67.62473082322171 -13.228553110454497, -67.12881651835067 -13.624031571755259 M-67.98082022023242 -12.944581292275274 C-67.76835580512487 -13.114016009408004, -67.55589139001732 -13.283450726540735, -67.12881651835067 -13.624031571755259 M-67.12881651835067 -13.624031571755259 C-66.90720299796602 -13.77861957008091, -66.68558947758139 -13.933207568406562, -66.23503082057934 -14.247497783161284 M-67.12881651835067 -13.624031571755259 C-66.81428610964988 -13.843434369062983, -66.49975570094911 -14.062837166370707, -66.23503082057934 -14.247497783161284 M-66.23503082057934 -14.247497783161284 C-65.88304177432948 -14.460875611515187, -65.53105272807963 -14.674253439869089, -65.30313588406695 -14.812417970097618 M-66.23503082057934 -14.247497783161284 C-65.97150307093804 -14.407249853654799, -65.70797532129673 -14.567001924148313, -65.30313588406695 -14.812417970097618 M-65.30313588406695 -14.812417970097618 C-64.91990136960985 -15.012351170816466, -64.53666685515275 -15.212284371535313, -64.33696106499849 -15.316470754341124 M-65.30313588406695 -14.812417970097618 C-65.06596087190617 -14.936152022024048, -64.8287858597454 -15.059886073950478, -64.33696106499849 -15.316470754341124 M-64.33696106499849 -15.316470754341124 C-64.06128284678162 -15.43850532384194, -63.78560462856476 -15.560539893342755, -63.34047658294937 -15.757584874882365 M-64.33696106499849 -15.316470754341124 C-63.952155222988466 -15.48681288573923, -63.567349380978435 -15.657155017137336, -63.34047658294937 -15.757584874882365 M-63.34047658294937 -15.757584874882365 C-63.03610248927965 -15.869597354956102, -62.73172839560993 -15.98160983502984, -62.317777206401566 -16.133947699181363 M-63.34047658294937 -15.757584874882365 C-62.98021833526915 -15.890163240219422, -62.61996008758893 -16.02274160555648, -62.317777206401566 -16.133947699181363 M-62.317777206401566 -16.133947699181363 C-61.93873024844284 -16.24644684664543, -61.55968329048411 -16.358945994109494, -61.27306542646164 -16.444012671663494 M-62.317777206401566 -16.133947699181363 C-62.09970378644743 -16.19867074553301, -61.88163036649329 -16.26339379188466, -61.27306542646164 -16.444012671663494 M-61.27306542646164 -16.444012671663494 C-60.96233714338739 -16.51493437458365, -60.651608860313125 -16.585856077503806, -60.21063418792333 -16.68650566884811 M-61.27306542646164 -16.444012671663494 C-61.010885575590734 -16.50385351174136, -60.74870572471983 -16.56369435181923, -60.21063418792333 -16.68650566884811 M-60.21063418792333 -16.68650566884811 C-59.8692260441381 -16.741701889875607, -59.52781790035287 -16.796898110903108, -59.13484924863661 -16.86043023499518 M-60.21063418792333 -16.68650566884811 C-59.88551023918381 -16.739069187506438, -59.56038629044428 -16.791632706164766, -59.13484924863661 -16.86043023499518 M-59.13484924863661 -16.86043023499518 C-58.88456975795893 -16.884574396455733, -58.63429026728125 -16.90871855791628, -58.05013123967212 -16.965071676755716 M-59.13484924863661 -16.86043023499518 C-58.875021288526575 -16.885495525818158, -58.61519332841653 -16.91056081664113, -58.05013123967212 -16.965071676755716 M-58.05013123967212 -16.965071676755716 C-57.772060295221976 -16.973988870711974, -57.49398935077183 -16.98290606466823, -56.96093750000001 -17 M-58.05013123967212 -16.965071676755716 C-57.75688407380004 -16.974475542594252, -57.463636907927956 -16.983879408432788, -56.96093750000001 -17 M-56.96093750000001 -17 C-56.96093750000001 -17, -56.9609375 -17, -56.9609375 -17 M-56.96093750000001 -17 C-56.96093750000001 -17, -56.9609375 -17, -56.9609375 -17" stroke="#555555" stroke-width="1.3" fill="none" stroke-dasharray="0 0" style=""></path></g><g class="label" style="" transform="translate(0, -9.5)"><rect></rect><g><rect class="background" style="stroke: none"></rect><text y="-10.1" style=""><tspan class="text-outer-tspan row" x="0" y="-0.1em" dy="1.1em"><tspan font-style="normal" class="text-inner-tspan" font-weight="normal">Pick</tspan><tspan font-style="normal" class="text-inner-tspan" font-weight="normal"> an</tspan><tspan font-style="normal" class="text-inner-tspan" font-weight="normal"> algorithm</tspan></tspan></text></g></g></g><g class="node default" id="g54ea4802-63d3-4044-ab08-ea1c798cd1b9-dark-flowchart-Q1-2" data-look="classic" transform="translate(513.6171875, 208.4046859741211)"><polygon points="116.4046859741211,0 232.8093719482422,-116.4046859741211 116.4046859741211,-232.8093719482422 0,-116.4046859741211" class="label-container" transform="translate(-115.9046859741211, 116.4046859741211)"></polygon><g class="label" style="" transform="translate(0, -27.099998474121094)"><rect></rect><g><rect class="background" style="stroke: none"></rect><text y="-10.1" style=""><tspan class="text-outer-tspan row" x="0" y="-0.1em" dy="1.1em"><tspan font-style="normal" class="text-inner-tspan" font-weight="normal">Need</tspan><tspan font-style="normal" class="text-inner-tspan" font-weight="normal"> session</tspan><tspan font-style="normal" class="text-inner-tspan" font-weight="normal"> affinity</tspan></tspan><tspan class="text-outer-tspan row" x="0" y="1em" dy="1.1em"><tspan font-style="normal" class="text-inner-tspan" font-weight="normal">by</tspan><tspan font-style="normal" class="text-inner-tspan" font-weight="normal"> key</tspan><tspan font-style="normal" class="text-inner-tspan" font-weight="normal"> —</tspan><tspan font-style="normal" class="text-inner-tspan" font-weight="normal"> user</tspan><tspan font-style="normal" class="text-inner-tspan" font-weight="normal"> id,</tspan></tspan><tspan class="text-outer-tspan row" x="0" y="2.1em" dy="1.1em"><tspan font-style="normal" class="text-inner-tspan" font-weight="normal">cache</tspan><tspan font-style="normal" class="text-inner-tspan" font-weight="normal"> key,</tspan><tspan font-style="normal" class="text-inner-tspan" font-weight="normal"> tenant?</tspan></tspan></text></g></g></g><g class="node default" id="g54ea4802-63d3-4044-ab08-ea1c798cd1b9-dark-flowchart-Hash-4" data-look="classic" transform="translate(259.70703125, 506.71875)"><polygon points="96.6015625,0 193.203125,-96.6015625 96.6015625,-193.203125 0,-96.6015625" class="label-container" transform="translate(-96.1015625, 96.6015625)"></polygon><g class="label" style="" transform="translate(0, -9.5)"><rect></rect><g><rect class="background" style="stroke: none"></rect><text y="-10.1" style=""><tspan class="text-outer-tspan row" x="0" y="-0.1em" dy="1.1em"><tspan font-style="normal" class="text-inner-tspan" font-weight="normal">Pool</tspan><tspan font-style="normal" class="text-inner-tspan" font-weight="normal"> size</tspan><tspan font-style="normal" class="text-inner-tspan" font-weight="normal"> and</tspan><tspan font-style="normal" class="text-inner-tspan" font-weight="normal"> churn?</tspan></tspan></text></g></g></g><g class="node default" id="g54ea4802-63d3-4044-ab08-ea1c798cd1b9-dark-flowchart-Ring-6" data-look="classic" transform="translate(122.765625, 764.7906265258789)"><rect class="basic label-container" style="" x="-114.765625" y="-42.099998474121094" width="229.53125" height="84.19999694824219"></rect><g class="label" style="" transform="translate(0, -27.099998474121094)"><rect></rect><g><rect class="background" style="stroke: none"></rect><text y="-10.1" style=""><tspan class="text-outer-tspan row" x="0" y="-0.1em" dy="1.1em"><tspan font-style="normal" class="text-inner-tspan" font-weight="normal">Ring</tspan><tspan font-style="normal" class="text-inner-tspan" font-weight="normal"> consistent</tspan><tspan font-style="normal" class="text-inner-tspan" font-weight="normal"> hash</tspan></tspan><tspan class="text-outer-tspan row" x="0" y="1em" dy="1.1em"><tspan font-style="normal" class="text-inner-tspan" font-weight="normal">e.g.</tspan><tspan font-style="normal" class="text-inner-tspan" font-weight="normal"> Ketama,</tspan><tspan font-style="normal" class="text-inner-tspan" font-weight="normal"> Cassandra</tspan></tspan><tspan class="text-outer-tspan row" x="0" y="2.1em" dy="1.1em"><tspan font-style="normal" class="text-inner-tspan" font-weight="normal">vnodes</tspan></tspan></text></g></g></g><g class="node default" id="g54ea4802-63d3-4044-ab08-ea1c798cd1b9-dark-flowchart-Maglev-8" data-look="classic" transform="translate(396.6484375, 764.7906265258789)"><rect class="basic label-container" style="" x="-109.1171875" y="-42.099998474121094" width="218.234375" height="84.19999694824219"></rect><g class="label" style="" transform="translate(0, -27.099998474121094)"><rect></rect><g><rect class="background" style="stroke: none"></rect><text y="-10.1" style=""><tspan class="text-outer-tspan row" x="0" y="-0.1em" dy="1.1em"><tspan font-style="normal" class="text-inner-tspan" font-weight="normal">Maglev</tspan><tspan font-style="normal" class="text-inner-tspan" font-weight="normal"> hash</tspan></tspan><tspan class="text-outer-tspan row" x="0" y="1em" dy="1.1em"><tspan font-style="normal" class="text-inner-tspan" font-weight="normal">e.g.</tspan><tspan font-style="normal" class="text-inner-tspan" font-weight="normal"> Envoy,</tspan><tspan font-style="normal" class="text-inner-tspan" font-weight="normal"> Cloudflare</tspan></tspan><tspan class="text-outer-tspan row" x="0" y="2.1em" dy="1.1em"><tspan font-style="normal" class="text-inner-tspan" font-weight="normal">Unimog</tspan></tspan></text></g></g></g><g class="node default" id="g54ea4802-63d3-4044-ab08-ea1c798cd1b9-dark-flowchart-Q2-10" data-look="classic" transform="translate(790.15234375, 506.71875)"><polygon points="108.90937423706055,0 217.8187484741211,-108.90937423706055 108.90937423706055,-217.8187484741211 0,-108.90937423706055" class="label-container" transform="translate(-108.40937423706055, 108.90937423706055)"></polygon><g class="label" style="" transform="translate(0, -18.299999237060547)"><rect></rect><g><rect class="background" style="stroke: none"></rect><text y="-10.1" style=""><tspan class="text-outer-tspan row" x="0" y="-0.1em" dy="1.1em"><tspan font-style="normal" class="text-inner-tspan" font-weight="normal">Variable</tspan><tspan font-style="normal" class="text-inner-tspan" font-weight="normal"> request</tspan><tspan font-style="normal" class="text-inner-tspan" font-weight="normal"> cost</tspan></tspan><tspan class="text-outer-tspan row" x="0" y="1em" dy="1.1em"><tspan font-style="normal" class="text-inner-tspan" font-weight="normal">or</tspan><tspan font-style="normal" class="text-inner-tspan" font-weight="normal"> backend</tspan><tspan font-style="normal" class="text-inner-tspan" font-weight="normal"> capacity?</tspan></tspan></text></g></g></g><g class="node default" id="g54ea4802-63d3-4044-ab08-ea1c798cd1b9-dark-flowchart-RR-12" data-look="classic" transform="translate(675.8359375, 764.7906265258789)"><rect class="basic label-container" style="" x="-120.0703125" y="-42.099998474121094" width="240.140625" height="84.19999694824219"></rect><g class="label" style="" transform="translate(0, -27.099998474121094)"><rect></rect><g><rect class="background" style="stroke: none"></rect><text y="-10.1" style=""><tspan class="text-outer-tspan row" x="0" y="-0.1em" dy="1.1em"><tspan font-style="normal" class="text-inner-tspan" font-weight="normal">Round</tspan><tspan font-style="normal" class="text-inner-tspan" font-weight="normal"> robin</tspan></tspan><tspan class="text-outer-tspan row" x="0" y="1em" dy="1.1em"><tspan font-style="normal" class="text-inner-tspan" font-weight="normal">weighted</tspan><tspan font-style="normal" class="text-inner-tspan" font-weight="normal"> RR</tspan><tspan font-style="normal" class="text-inner-tspan" font-weight="normal"> for</tspan><tspan font-style="normal" class="text-inner-tspan" font-weight="normal"> capacity</tspan></tspan><tspan class="text-outer-tspan row" x="0" y="2.1em" dy="1.1em"><tspan font-style="normal" class="text-inner-tspan" font-weight="normal">tiers</tspan></tspan></text></g></g></g><g class="node default" id="g54ea4802-63d3-4044-ab08-ea1c798cd1b9-dark-flowchart-Q3-14" data-look="classic" transform="translate(904.46875, 764.7906265258789)"><polygon points="58.5625,0 117.125,-58.5625 58.5625,-117.125 0,-58.5625" class="label-container" transform="translate(-58.0625, 58.5625)"></polygon><g class="label" style="" transform="translate(0, -9.5)"><rect></rect><g><rect class="background" style="stroke: none"></rect><text y="-10.1" style=""><tspan class="text-outer-tspan row" x="0" y="-0.1em" dy="1.1em"><tspan font-style="normal" class="text-inner-tspan" font-weight="normal">Pool</tspan><tspan font-style="normal" class="text-inner-tspan" font-weight="normal"> size?</tspan></tspan></text></g></g></g><g class="node default" id="g54ea4802-63d3-4044-ab08-ea1c798cd1b9-dark-flowchart-LC-16" data-look="classic" transform="translate(754.44921875, 956.0531234741211)"><rect class="basic label-container" style="" x="-120.4765625" y="-42.099998474121094" width="240.953125" height="84.19999694824219"></rect><g class="label" style="" transform="translate(0, -27.099998474121094)"><rect></rect><g><rect class="background" style="stroke: none"></rect><text y="-10.1" style=""><tspan class="text-outer-tspan row" x="0" y="-0.1em" dy="1.1em"><tspan font-style="normal" class="text-inner-tspan" font-weight="normal">Least</tspan><tspan font-style="normal" class="text-inner-tspan" font-weight="normal"> connections</tspan><tspan font-style="normal" class="text-inner-tspan" font-weight="normal"> /</tspan><tspan font-style="normal" class="text-inner-tspan" font-weight="normal"> least</tspan></tspan><tspan class="text-outer-tspan row" x="0" y="1em" dy="1.1em"><tspan font-style="normal" class="text-inner-tspan" font-weight="normal">requests</tspan></tspan><tspan class="text-outer-tspan row" x="0" y="2.1em" dy="1.1em"><tspan font-style="normal" class="text-inner-tspan" font-weight="normal">e.g.</tspan><tspan font-style="normal" class="text-inner-tspan" font-weight="normal"> HAProxy</tspan><tspan font-style="normal" class="text-inner-tspan" font-weight="normal"> leastconn</tspan></tspan></text></g></g></g><g class="node default" id="g54ea4802-63d3-4044-ab08-ea1c798cd1b9-dark-flowchart-P2C-18" data-look="classic" transform="translate(1054.48828125, 956.0531234741211)"><rect class="basic label-container" style="" x="-129.5625" y="-42.099998474121094" width="259.125" height="84.19999694824219"></rect><g class="label" style="" transform="translate(0, -27.099998474121094)"><rect></rect><g><rect class="background" style="stroke: none"></rect><text y="-10.1" style=""><tspan class="text-outer-tspan row" x="0" y="-0.1em" dy="1.1em"><tspan font-style="normal" class="text-inner-tspan" font-weight="normal">Power</tspan><tspan font-style="normal" class="text-inner-tspan" font-weight="normal"> of</tspan><tspan font-style="normal" class="text-inner-tspan" font-weight="normal"> two</tspan><tspan font-style="normal" class="text-inner-tspan" font-weight="normal"> choices</tspan></tspan><tspan class="text-outer-tspan row" x="0" y="1em" dy="1.1em"><tspan font-style="normal" class="text-inner-tspan" font-weight="normal">e.g.</tspan><tspan font-style="normal" class="text-inner-tspan" font-weight="normal"> Envoy</tspan><tspan font-style="normal" class="text-inner-tspan" font-weight="normal"> LEAST_REQUEST,</tspan></tspan><tspan class="text-outer-tspan row" x="0" y="2.1em" dy="1.1em"><tspan font-style="normal" class="text-inner-tspan" font-weight="normal">Netflix</tspan><tspan font-style="normal" class="text-inner-tspan" font-weight="normal"> Zuul</tspan><tspan font-style="normal" class="text-inner-tspan" font-weight="normal"> Choice-of-2</tspan></tspan></text></g></g></g></g></g></g><defs><filter id="g54ea4802-63d3-4044-ab08-ea1c798cd1b9-dark-drop-shadow" height="130%" width="130%"><feDropShadow dx="4" dy="4" stdDeviation="0" flood-opacity="0.06" flood-color="#000000"></feDropShadow></filter></defs><defs><filter id="g54ea4802-63d3-4044-ab08-ea1c798cd1b9-dark-drop-shadow-small" height="150%" width="150%"><feDropShadow dx="2" dy="2" stdDeviation="0" flood-opacity="0.06" flood-color="#000000"></feDropShadow></filter></defs><linearGradient id="g54ea4802-63d3-4044-ab08-ea1c798cd1b9-dark-gradient" gradientUnits="objectBoundingBox" x1="0%" y1="0%" x2="100%" y2="0%"><stop offset="0%" stop-color="#555555" stop-opacity="1"></stop><stop offset="100%" stop-color="#555555" stop-opacity="1"></stop></linearGradient></svg>