<svg id="g54ea4802-63d3-4044-ab08-ea1c798cd1b9-light" width="100%" xmlns="http://www.w3.org/2000/svg" xmlns:xlink="http://www.w3.org/1999/xlink" class="flowchart" style="max-width: 1192.05078125px;" viewBox="0 0 1192.05078125 1006.1531372070312" role="graphics-document document" aria-roledescription="flowchart-v2"><style>#g54ea4802-63d3-4044-ab08-ea1c798cd1b9-light{font-family:"trebuchet ms",verdana,arial,sans-serif;font-size:16px;fill:#333;}@keyframes edge-animation-frame{from{stroke-dashoffset:0;}}@keyframes dash{to{stroke-dashoffset:0;}}#g54ea4802-63d3-4044-ab08-ea1c798cd1b9-light .edge-animation-slow{stroke-dasharray:9,5!important;stroke-dashoffset:900;animation:dash 50s linear infinite;stroke-linecap:round;}#g54ea4802-63d3-4044-ab08-ea1c798cd1b9-light .edge-animation-fast{stroke-dasharray:9,5!important;stroke-dashoffset:900;animation:dash 20s linear infinite;stroke-linecap:round;}#g54ea4802-63d3-4044-ab08-ea1c798cd1b9-light .error-icon{fill:#552222;}#g54ea4802-63d3-4044-ab08-ea1c798cd1b9-light .error-text{fill:#552222;stroke:#552222;}#g54ea4802-63d3-4044-ab08-ea1c798cd1b9-light .edge-thickness-normal{stroke-width:1px;}#g54ea4802-63d3-4044-ab08-ea1c798cd1b9-light .edge-thickness-thick{stroke-width:3.5px;}#g54ea4802-63d3-4044-ab08-ea1c798cd1b9-light .edge-pattern-solid{stroke-dasharray:0;}#g54ea4802-63d3-4044-ab08-ea1c798cd1b9-light .edge-thickness-invisible{stroke-width:0;fill:none;}#g54ea4802-63d3-4044-ab08-ea1c798cd1b9-light .edge-pattern-dashed{stroke-dasharray:3;}#g54ea4802-63d3-4044-ab08-ea1c798cd1b9-light .edge-pattern-dotted{stroke-dasharray:2;}#g54ea4802-63d3-4044-ab08-ea1c798cd1b9-light .marker{fill:#333333;stroke:#333333;}#g54ea4802-63d3-4044-ab08-ea1c798cd1b9-light .marker.cross{stroke:#333333;}#g54ea4802-63d3-4044-ab08-ea1c798cd1b9-light svg{font-family:"trebuchet ms",verdana,arial,sans-serif;font-size:16px;}#g54ea4802-63d3-4044-ab08-ea1c798cd1b9-light p{margin:0;}#g54ea4802-63d3-4044-ab08-ea1c798cd1b9-light .label{font-family:"trebuchet ms",verdana,arial,sans-serif;color:#333;}#g54ea4802-63d3-4044-ab08-ea1c798cd1b9-light .cluster-label text{fill:#333;}#g54ea4802-63d3-4044-ab08-ea1c798cd1b9-light .cluster-label span{color:#333;}#g54ea4802-63d3-4044-ab08-ea1c798cd1b9-light .cluster-label span p{background-color:transparent;}#g54ea4802-63d3-4044-ab08-ea1c798cd1b9-light .label text,#g54ea4802-63d3-4044-ab08-ea1c798cd1b9-light span{fill:#333;color:#333;}#g54ea4802-63d3-4044-ab08-ea1c798cd1b9-light .node rect,#g54ea4802-63d3-4044-ab08-ea1c798cd1b9-light .node circle,#g54ea4802-63d3-4044-ab08-ea1c798cd1b9-light .node ellipse,#g54ea4802-63d3-4044-ab08-ea1c798cd1b9-light .node polygon,#g54ea4802-63d3-4044-ab08-ea1c798cd1b9-light .node path{fill:#ECECFF;stroke:#9370DB;stroke-width:1px;}#g54ea4802-63d3-4044-ab08-ea1c798cd1b9-light .rough-node .label text,#g54ea4802-63d3-4044-ab08-ea1c798cd1b9-light .node .label text,#g54ea4802-63d3-4044-ab08-ea1c798cd1b9-light .image-shape .label,#g54ea4802-63d3-4044-ab08-ea1c798cd1b9-light .icon-shape .label{text-anchor:middle;}#g54ea4802-63d3-4044-ab08-ea1c798cd1b9-light .node .katex path{fill:#000;stroke:#000;stroke-width:1px;}#g54ea4802-63d3-4044-ab08-ea1c798cd1b9-light .rough-node .label,#g54ea4802-63d3-4044-ab08-ea1c798cd1b9-light .node .label,#g54ea4802-63d3-4044-ab08-ea1c798cd1b9-light .image-shape .label,#g54ea4802-63d3-4044-ab08-ea1c798cd1b9-light .icon-shape .label{text-align:center;}#g54ea4802-63d3-4044-ab08-ea1c798cd1b9-light .node.clickable{cursor:pointer;}#g54ea4802-63d3-4044-ab08-ea1c798cd1b9-light .root .anchor path{fill:#333333!important;stroke-width:0;stroke:#333333;}#g54ea4802-63d3-4044-ab08-ea1c798cd1b9-light .arrowheadPath{fill:#333333;}#g54ea4802-63d3-4044-ab08-ea1c798cd1b9-light .edgePath .path{stroke:#333333;stroke-width:1px;}#g54ea4802-63d3-4044-ab08-ea1c798cd1b9-light .flowchart-link{stroke:#333333;fill:none;}#g54ea4802-63d3-4044-ab08-ea1c798cd1b9-light .edgeLabel{background-color:rgba(232,232,232, 0.8);text-align:center;}#g54ea4802-63d3-4044-ab08-ea1c798cd1b9-light .edgeLabel p{background-color:rgba(232,232,232, 0.8);}#g54ea4802-63d3-4044-ab08-ea1c798cd1b9-light .edgeLabel rect{opacity:0.5;background-color:rgba(232,232,232, 0.8);fill:rgba(232,232,232, 0.8);}#g54ea4802-63d3-4044-ab08-ea1c798cd1b9-light .labelBkg{background-color:rgba(232, 232, 232, 0.5);}#g54ea4802-63d3-4044-ab08-ea1c798cd1b9-light .cluster rect{fill:#ffffde;stroke:#aaaa33;stroke-width:1px;}#g54ea4802-63d3-4044-ab08-ea1c798cd1b9-light .cluster text{fill:#333;}#g54ea4802-63d3-4044-ab08-ea1c798cd1b9-light .cluster span{color:#333;}#g54ea4802-63d3-4044-ab08-ea1c798cd1b9-light div.mermaidTooltip{position:absolute;text-align:center;max-width:200px;padding:2px;font-family:"trebuchet ms",verdana,arial,sans-serif;font-size:12px;background:hsl(80, 100%, 96.2745098039%);border:1px solid #aaaa33;border-radius:2px;pointer-events:none;z-index:100;}#g54ea4802-63d3-4044-ab08-ea1c798cd1b9-light .flowchartTitleText{text-anchor:middle;font-size:18px;fill:#333;}#g54ea4802-63d3-4044-ab08-ea1c798cd1b9-light rect.text{fill:none;stroke-width:0;}#g54ea4802-63d3-4044-ab08-ea1c798cd1b9-light .icon-shape,#g54ea4802-63d3-4044-ab08-ea1c798cd1b9-light .image-shape{background-color:rgba(232,232,232, 0.8);text-align:center;}#g54ea4802-63d3-4044-ab08-ea1c798cd1b9-light .icon-shape p,#g54ea4802-63d3-4044-ab08-ea1c798cd1b9-light .image-shape p{background-color:rgba(232,232,232, 0.8);padding:2px;}#g54ea4802-63d3-4044-ab08-ea1c798cd1b9-light .icon-shape .label rect,#g54ea4802-63d3-4044-ab08-ea1c798cd1b9-light .image-shape .label rect{opacity:0.5;background-color:rgba(232,232,232, 0.8);fill:rgba(232,232,232, 0.8);}#g54ea4802-63d3-4044-ab08-ea1c798cd1b9-light .label-icon{display:inline-block;height:1em;overflow:visible;vertical-align:-0.125em;}#g54ea4802-63d3-4044-ab08-ea1c798cd1b9-light .node .label-icon path{fill:currentColor;stroke:revert;stroke-width:revert;}#g54ea4802-63d3-4044-ab08-ea1c798cd1b9-light .node .neo-node{stroke:#9370DB;}#g54ea4802-63d3-4044-ab08-ea1c798cd1b9-light [data-look="neo"].node rect,#g54ea4802-63d3-4044-ab08-ea1c798cd1b9-light [data-look="neo"].cluster rect,#g54ea4802-63d3-4044-ab08-ea1c798cd1b9-light [data-look="neo"].node polygon{stroke:#9370DB;filter:drop-shadow(1px 2px 2px rgba(185, 185, 185, 1));}#g54ea4802-63d3-4044-ab08-ea1c798cd1b9-light [data-look="neo"].node path{stroke:#9370DB;stroke-width:1px;}#g54ea4802-63d3-4044-ab08-ea1c798cd1b9-light [data-look="neo"].node .outer-path{filter:drop-shadow(1px 2px 2px rgba(185, 185, 185, 1));}#g54ea4802-63d3-4044-ab08-ea1c798cd1b9-light [data-look="neo"].node .neo-line path{stroke:#9370DB;filter:none;}#g54ea4802-63d3-4044-ab08-ea1c798cd1b9-light [data-look="neo"].node circle{stroke:#9370DB;filter:drop-shadow(1px 2px 2px rgba(185, 185, 185, 1));}#g54ea4802-63d3-4044-ab08-ea1c798cd1b9-light [data-look="neo"].node circle .state-start{fill:#000000;}#g54ea4802-63d3-4044-ab08-ea1c798cd1b9-light [data-look="neo"].icon-shape .icon{fill:#9370DB;filter:drop-shadow(1px 2px 2px rgba(185, 185, 185, 1));}#g54ea4802-63d3-4044-ab08-ea1c798cd1b9-light [data-look="neo"].icon-shape .icon-neo path{stroke:#9370DB;filter:drop-shadow(1px 2px 2px rgba(185, 185, 185, 1));}#g54ea4802-63d3-4044-ab08-ea1c798cd1b9-light :root{--mermaid-font-family:"trebuchet ms",verdana,arial,sans-serif;}</style><g><marker id="g54ea4802-63d3-4044-ab08-ea1c798cd1b9-light_flowchart-v2-pointEnd" class="marker flowchart-v2" viewBox="0 0 10 10" refX="5" refY="5" markerUnits="userSpaceOnUse" markerWidth="8" markerHeight="8" orient="auto"><path d="M 0 0 L 10 5 L 0 10 z" class="arrowMarkerPath" style="stroke-width: 1; stroke-dasharray: 1, 0;"></path></marker><marker id="g54ea4802-63d3-4044-ab08-ea1c798cd1b9-light_flowchart-v2-pointStart" class="marker flowchart-v2" viewBox="0 0 10 10" refX="4.5" refY="5" markerUnits="userSpaceOnUse" markerWidth="8" markerHeight="8" orient="auto"><path d="M 0 5 L 10 10 L 10 0 z" class="arrowMarkerPath" style="stroke-width: 1; stroke-dasharray: 1, 0;"></path></marker><marker id="g54ea4802-63d3-4044-ab08-ea1c798cd1b9-light_flowchart-v2-pointEnd-margin" class="marker flowchart-v2" viewBox="0 0 11.5 14" refX="11.5" refY="7" markerUnits="userSpaceOnUse" markerWidth="10.5" markerHeight="14" orient="auto"><path d="M 0 0 L 11.5 7 L 0 14 z" class="arrowMarkerPath" style="stroke-width: 0; stroke-dasharray: 1, 0;"></path></marker><marker id="g54ea4802-63d3-4044-ab08-ea1c798cd1b9-light_flowchart-v2-pointStart-margin" class="marker flowchart-v2" viewBox="0 0 11.5 14" refX="1" refY="7" markerUnits="userSpaceOnUse" markerWidth="11.5" markerHeight="14" orient="auto"><polygon points="0,7 11.5,14 11.5,0" class="arrowMarkerPath" style="stroke-width: 0; stroke-dasharray: 1, 0;"></polygon></marker><marker id="g54ea4802-63d3-4044-ab08-ea1c798cd1b9-light_flowchart-v2-circleEnd" class="marker flowchart-v2" viewBox="0 0 10 10" refX="11" refY="5" markerUnits="userSpaceOnUse" markerWidth="11" markerHeight="11" orient="auto"><circle cx="5" cy="5" r="5" class="arrowMarkerPath" style="stroke-width: 1; stroke-dasharray: 1, 0;"></circle></marker><marker id="g54ea4802-63d3-4044-ab08-ea1c798cd1b9-light_flowchart-v2-circleStart" class="marker flowchart-v2" viewBox="0 0 10 10" refX="-1" refY="5" markerUnits="userSpaceOnUse" markerWidth="11" markerHeight="11" orient="auto"><circle cx="5" cy="5" r="5" class="arrowMarkerPath" style="stroke-width: 1; stroke-dasharray: 1, 0;"></circle></marker><marker id="g54ea4802-63d3-4044-ab08-ea1c798cd1b9-light_flowchart-v2-circleEnd-margin" class="marker flowchart-v2" viewBox="0 0 10 10" refY="5" refX="12.25" markerUnits="userSpaceOnUse" markerWidth="14" markerHeight="14" orient="auto"><circle cx="5" cy="5" r="5" class="arrowMarkerPath" style="stroke-width: 0; stroke-dasharray: 1, 0;"></circle></marker><marker id="g54ea4802-63d3-4044-ab08-ea1c798cd1b9-light_flowchart-v2-circleStart-margin" class="marker flowchart-v2" viewBox="0 0 10 10" refX="-2" refY="5" markerUnits="userSpaceOnUse" markerWidth="14" markerHeight="14" orient="auto"><circle cx="5" cy="5" r="5" class="arrowMarkerPath" style="stroke-width: 0; stroke-dasharray: 1, 0;"></circle></marker><marker id="g54ea4802-63d3-4044-ab08-ea1c798cd1b9-light_flowchart-v2-crossEnd" class="marker cross flowchart-v2" viewBox="0 0 11 11" refX="12" refY="5.2" markerUnits="userSpaceOnUse" markerWidth="11" markerHeight="11" orient="auto"><path d="M 1,1 l 9,9 M 10,1 l -9,9" class="arrowMarkerPath" style="stroke-width: 2; stroke-dasharray: 1, 0;"></path></marker><marker id="g54ea4802-63d3-4044-ab08-ea1c798cd1b9-light_flowchart-v2-crossStart" class="marker cross flowchart-v2" viewBox="0 0 11 11" refX="-1" refY="5.2" markerUnits="userSpaceOnUse" markerWidth="11" markerHeight="11" orient="auto"><path d="M 1,1 l 9,9 M 10,1 l -9,9" class="arrowMarkerPath" style="stroke-width: 2; stroke-dasharray: 1, 0;"></path></marker><marker id="g54ea4802-63d3-4044-ab08-ea1c798cd1b9-light_flowchart-v2-crossEnd-margin" class="marker cross flowchart-v2" viewBox="0 0 15 15" refX="17.7" refY="7.5" markerUnits="userSpaceOnUse" markerWidth="12" markerHeight="12" orient="auto"><path d="M 1,1 L 14,14 M 1,14 L 14,1" class="arrowMarkerPath" style="stroke-width: 2.5;"></path></marker><marker id="g54ea4802-63d3-4044-ab08-ea1c798cd1b9-light_flowchart-v2-crossStart-margin" class="marker cross flowchart-v2" viewBox="0 0 15 15" refX="-3.5" refY="7.5" markerUnits="userSpaceOnUse" markerWidth="12" markerHeight="12" orient="auto"><path d="M 1,1 L 14,14 M 1,14 L 14,1" class="arrowMarkerPath" style="stroke-width: 2.5; stroke-dasharray: 1, 0;"></path></marker><g class="root"><g class="clusters"></g><g class="edgePaths"><path d="M514.117,42.5L514.034,46.583C513.951,50.667,513.784,58.833,513.701,66.417C513.617,74,513.617,81,513.617,84.5L513.617,88" id="g54ea4802-63d3-4044-ab08-ea1c798cd1b9-light-L_Start_Q1_0" class="edge-thickness-normal edge-pattern-solid edge-thickness-normal edge-pattern-solid flowchart-link" style=";" data-edge="true" data-et="edge" data-id="L_Start_Q1_0" data-points="W3sieCI6NTE0LjExNzE4NzUsInkiOjQyLjV9LHsieCI6NTEzLjYxNzE4NzUsInkiOjY3fSx7IngiOjUxMy42MTcxODc1MDAwMDAxLCJ5Ijo5Mi4wMDAwMDAwMDAwMDAwMX1d" data-look="classic" marker-end="url(#g54ea4802-63d3-4044-ab08-ea1c798cd1b9-light_flowchart-v2-pointEnd)"></path><path d="M440.964,252.156L410.755,270.349C380.545,288.541,320.126,324.925,289.917,350.585C259.707,376.245,259.707,391.181,259.707,398.649L259.707,406.117" id="g54ea4802-63d3-4044-ab08-ea1c798cd1b9-light-L_Q1_Hash_0" class="edge-thickness-normal edge-pattern-solid edge-thickness-normal edge-pattern-solid flowchart-link" style=";" data-edge="true" data-et="edge" data-id="L_Q1_Hash_0" data-points="W3sieCI6NDQwLjk2NDE1NDg3NjI4MzIsInkiOjI1Mi4xNTYzMzkzMjQ1MjU0fSx7IngiOjI1OS43MDcwMzEyNSwieSI6MzYxLjMwOTM3MTk0ODI0MjJ9LHsieCI6MjU5LjcwNzAzMTI1LCJ5Ijo0MTAuMTE3MTg3NX1d" data-look="classic" marker-end="url(#g54ea4802-63d3-4044-ab08-ea1c798cd1b9-light_flowchart-v2-pointEnd)"></path><path d="M214.271,557.884L199.02,575.058C183.769,592.232,153.267,626.58,138.017,653.381C122.766,680.182,122.766,699.436,122.766,709.064L122.766,718.691" id="g54ea4802-63d3-4044-ab08-ea1c798cd1b9-light-L_Hash_Ring_0" class="edge-thickness-normal edge-pattern-solid edge-thickness-normal edge-pattern-solid flowchart-link" style=";" data-edge="true" data-et="edge" data-id="L_Hash_Ring_0" data-points="W3sieCI6MjE0LjI3MDkzOTE1Mzk4Mjk3LCJ5Ijo1NTcuODg0MjIwNDAzOTgyOX0seyJ4IjoxMjIuNzY1NjI1LCJ5Ijo2NjAuOTI4MTI3Mjg4ODE4NH0seyJ4IjoxMjIuNzY1NjI1LCJ5Ijo3MjIuNjkwNjI4MDUxNzU3OH1d" data-look="classic" marker-end="url(#g54ea4802-63d3-4044-ab08-ea1c798cd1b9-light_flowchart-v2-pointEnd)"></path><path d="M305.143,557.884L320.394,575.058C335.645,592.232,366.147,626.58,381.398,653.381C396.648,680.182,396.648,699.436,396.648,709.064L396.648,718.691" id="g54ea4802-63d3-4044-ab08-ea1c798cd1b9-light-L_Hash_Maglev_0" class="edge-thickness-normal edge-pattern-solid edge-thickness-normal edge-pattern-solid flowchart-link" style=";" data-edge="true" data-et="edge" data-id="L_Hash_Maglev_0" data-points="W3sieCI6MzA1LjE0MzEyMzM0NjAxNzAzLCJ5Ijo1NTcuODg0MjIwNDAzOTgyOX0seyJ4IjozOTYuNjQ4NDM3NSwieSI6NjYwLjkyODEyNzI4ODgxODR9LHsieCI6Mzk2LjY0ODQzNzUsInkiOjcyMi42OTA2MjgwNTE3NTc4fV0=" data-look="classic" marker-end="url(#g54ea4802-63d3-4044-ab08-ea1c798cd1b9-light_flowchart-v2-pointEnd)"></path><path d="M588.575,249.851L622.171,268.428C655.768,287.004,722.96,324.157,756.556,348.15C790.152,372.143,790.152,382.976,790.152,388.393L790.152,393.809" id="g54ea4802-63d3-4044-ab08-ea1c798cd1b9-light-L_Q1_Q2_0" class="edge-thickness-normal edge-pattern-solid edge-thickness-normal edge-pattern-solid flowchart-link" style=";" data-edge="true" data-et="edge" data-id="L_Q1_Q2_0" data-points="W3sieCI6NTg4LjU3NTI3MjEwMDA5MTksInkiOjI0OS44NTEyODczNDgxNTAzOH0seyJ4Ijo3OTAuMTUyMzQzNzUsInkiOjM2MS4zMDkzNzE5NDgyNDIyfSx7IngiOjc5MC4xNTIzNDM3NSwieSI6Mzk3LjgwOTM3MTk0ODI0MjJ9XQ==" data-look="classic" marker-end="url(#g54ea4802-63d3-4044-ab08-ea1c798cd1b9-light_flowchart-v2-pointEnd)"></path><path d="M743.788,569.263L732.462,584.541C721.137,599.818,698.486,630.373,687.161,655.278C675.836,680.182,675.836,699.436,675.836,709.064L675.836,718.691" id="g54ea4802-63d3-4044-ab08-ea1c798cd1b9-light-L_Q2_RR_0" class="edge-thickness-normal edge-pattern-solid edge-thickness-normal edge-pattern-solid flowchart-link" style=";" data-edge="true" data-et="edge" data-id="L_Q2_RR_0" data-points="W3sieCI6NzQzLjc4NzYwMTYzMjA0MzMsInkiOjU2OS4yNjMzODU5MzM4MDExfSx7IngiOjY3NS44MzU5Mzc1LCJ5Ijo2NjAuOTI4MTI3Mjg4ODE4NH0seyJ4Ijo2NzUuODM1OTM3NSwieSI6NzIyLjY5MDYyODA1MTc1Nzh9XQ==" data-look="classic" marker-end="url(#g54ea4802-63d3-4044-ab08-ea1c798cd1b9-light_flowchart-v2-pointEnd)"></path><path d="M836.517,569.263L847.842,584.541C859.168,599.818,881.818,630.373,893.143,652.534C904.469,674.695,904.469,688.461,904.469,695.345L904.469,702.228" id="g54ea4802-63d3-4044-ab08-ea1c798cd1b9-light-L_Q2_Q3_0" class="edge-thickness-normal edge-pattern-solid edge-thickness-normal edge-pattern-solid flowchart-link" style=";" data-edge="true" data-et="edge" data-id="L_Q2_Q3_0" data-points="W3sieCI6ODM2LjUxNzA4NTg2Nzk1NjcsInkiOjU2OS4yNjMzODU5MzM4MDF9LHsieCI6OTA0LjQ2ODc1LCJ5Ijo2NjAuOTI4MTI3Mjg4ODE4NH0seyJ4Ijo5MDQuNDY4NzUsInkiOjcwNi4yMjgxMjY1MjU4Nzg4fV0=" data-look="classic" marker-end="url(#g54ea4802-63d3-4044-ab08-ea1c798cd1b9-light_flowchart-v2-pointEnd)"></path><path d="M869.864,788.748L850.628,802.066C831.392,815.383,792.921,842.018,773.685,862.219C754.449,882.42,754.449,896.186,754.449,903.07L754.449,909.953" id="g54ea4802-63d3-4044-ab08-ea1c798cd1b9-light-L_Q3_LC_0" class="edge-thickness-normal edge-pattern-solid edge-thickness-normal edge-pattern-solid flowchart-link" style=";" data-edge="true" data-et="edge" data-id="L_Q3_LC_0" data-points="W3sieCI6ODY5Ljg2NDAyMTI1MjY2MiwieSI6Nzg4Ljc0ODM5Nzc3ODU0MDh9LHsieCI6NzU0LjQ0OTIxODc1LCJ5Ijo4NjguNjUzMTI1NzYyOTM5NX0seyJ4Ijo3NTQuNDQ5MjE4NzUsInkiOjkxMy45NTMxMjV9XQ==" data-look="classic" marker-end="url(#g54ea4802-63d3-4044-ab08-ea1c798cd1b9-light_flowchart-v2-pointEnd)"></path><path d="M939.073,788.748L958.309,802.066C977.545,815.383,1016.017,842.018,1035.252,862.219C1054.488,882.42,1054.488,896.186,1054.488,903.07L1054.488,909.953" id="g54ea4802-63d3-4044-ab08-ea1c798cd1b9-light-L_Q3_P2C_0" class="edge-thickness-normal edge-pattern-solid edge-thickness-normal edge-pattern-solid flowchart-link" style=";" data-edge="true" data-et="edge" data-id="L_Q3_P2C_0" data-points="W3sieCI6OTM5LjA3MzQ3ODc0NzMzOCwieSI6Nzg4Ljc0ODM5Nzc3ODU0MDh9LHsieCI6MTA1NC40ODgyODEyNSwieSI6ODY4LjY1MzEyNTc2MjkzOTV9LHsieCI6MTA1NC40ODgyODEyNSwieSI6OTEzLjk1MzEyNX1d" data-look="classic" marker-end="url(#g54ea4802-63d3-4044-ab08-ea1c798cd1b9-light_flowchart-v2-pointEnd)"></path></g><g class="edgeLabels"><g class="edgeLabel"><g class="label" data-id="L_Start_Q1_0" transform="translate(0, 0)"><text y="-10.1" text-anchor="middle"><tspan class="text-outer-tspan row" x="0" y="-0.1em" dy="1.1em" text-anchor="middle"></tspan></text></g></g><g><rect class="background" style="stroke: none"></rect></g><g class="edgeLabel" transform="translate(259.70703125, 361.3093719482422)"><g class="label" data-id="L_Q1_Hash_0" transform="translate(0, -10.5)"><g><rect class="background" style="" x="-13.328125" y="-1" width="26.65625" height="23"></rect><text y="-10.1" text-anchor="middle" style=""><tspan class="text-outer-tspan row" x="0" y="-0.1em" dy="1.1em" text-anchor="middle"><tspan font-style="normal" class="text-inner-tspan" font-weight="normal">Yes</tspan></tspan></text></g></g></g><g class="edgeLabel" transform="translate(122.765625, 660.9281272888184)"><g class="label" data-id="L_Hash_Ring_0" transform="translate(0, -10.5)"><g><rect class="background" style="" x="-52.2265625" y="-1" width="104.453125" height="23"></rect><text y="-10.1" text-anchor="middle" style=""><tspan class="text-outer-tspan row" x="0" y="-0.1em" dy="1.1em" text-anchor="middle"><tspan font-style="normal" class="text-inner-tspan" font-weight="normal">Small</tspan><tspan font-style="normal" class="text-inner-tspan" font-weight="normal"> /</tspan><tspan font-style="normal" class="text-inner-tspan" font-weight="normal"> stable</tspan></tspan></text></g></g></g><g class="edgeLabel" transform="translate(396.6484375, 660.9281272888184)"><g class="label" data-id="L_Hash_Maglev_0" transform="translate(0, -19.299999237060547)"><g><rect class="background" style="" x="-74.7890625" y="-1" width="149.578125" height="40.599998474121094"></rect><text y="-10.1" text-anchor="middle" style=""><tspan class="text-outer-tspan row" x="0" y="-0.1em" dy="1.1em" text-anchor="middle"><tspan font-style="normal" class="text-inner-tspan" font-weight="normal">Large</tspan><tspan font-style="normal" class="text-inner-tspan" font-weight="normal"> /</tspan><tspan font-style="normal" class="text-inner-tspan" font-weight="normal"> churny</tspan></tspan><tspan class="text-outer-tspan row" x="0" y="1em" dy="1.1em" text-anchor="middle"><tspan font-style="normal" class="text-inner-tspan" font-weight="normal">connection-oriented</tspan></tspan></text></g></g></g><g class="edgeLabel" transform="translate(790.15234375, 361.3093719482422)"><g class="label" data-id="L_Q1_Q2_0" transform="translate(0, -10.5)"><g><rect class="background" style="" x="-11.3984375" y="-1" width="22.796875" height="23"></rect><text y="-10.1" text-anchor="middle" style=""><tspan class="text-outer-tspan row" x="0" y="-0.1em" dy="1.1em" text-anchor="middle"><tspan font-style="normal" class="text-inner-tspan" font-weight="normal">No</tspan></tspan></text></g></g></g><g class="edgeLabel" transform="translate(675.8359375, 660.9281272888184)"><g class="label" data-id="L_Q2_RR_0" transform="translate(0, -10.5)"><g><rect class="background" style="" x="-65.359375" y="-1" width="130.71875" height="23"></rect><text y="-10.1" text-anchor="middle" style=""><tspan class="text-outer-tspan row" x="0" y="-0.1em" dy="1.1em" text-anchor="middle"><tspan font-style="normal" class="text-inner-tspan" font-weight="normal">No,</tspan><tspan font-style="normal" class="text-inner-tspan" font-weight="normal"> homogeneous</tspan></tspan></text></g></g></g><g class="edgeLabel" transform="translate(904.46875, 660.9281272888184)"><g class="label" data-id="L_Q2_Q3_0" transform="translate(0, -10.5)"><g><rect class="background" style="" x="-13.328125" y="-1" width="26.65625" height="23"></rect><text y="-10.1" text-anchor="middle" style=""><tspan class="text-outer-tspan row" x="0" y="-0.1em" dy="1.1em" text-anchor="middle"><tspan font-style="normal" class="text-inner-tspan" font-weight="normal">Yes</tspan></tspan></text></g></g></g><g class="edgeLabel" transform="translate(754.44921875, 868.6531257629395)"><g class="label" data-id="L_Q3_LC_0" transform="translate(0, -10.5)"><g><rect class="background" style="" x="-62.7890625" y="-1" width="125.578125" height="23"></rect><text y="-10.1" text-anchor="middle" style=""><tspan class="text-outer-tspan row" x="0" y="-0.1em" dy="1.1em" text-anchor="middle"><tspan font-style="normal" class="text-inner-tspan" font-weight="normal">Tens</tspan><tspan font-style="normal" class="text-inner-tspan" font-weight="normal"> of</tspan><tspan font-style="normal" class="text-inner-tspan" font-weight="normal"> backends</tspan></tspan></text></g></g></g><g class="edgeLabel" transform="translate(1054.48828125, 868.6531257629395)"><g class="label" data-id="L_Q3_P2C_0" transform="translate(0, -19.299999237060547)"><g><rect class="background" style="" x="-50.15625" y="-1" width="100.3125" height="40.599998474121094"></rect><text y="-10.1" text-anchor="middle" style=""><tspan class="text-outer-tspan row" x="0" y="-0.1em" dy="1.1em" text-anchor="middle"><tspan font-style="normal" class="text-inner-tspan" font-weight="normal">Hundreds+</tspan><tspan font-style="normal" class="text-inner-tspan" font-weight="normal"> or</tspan></tspan><tspan class="text-outer-tspan row" x="0" y="1em" dy="1.1em" text-anchor="middle"><tspan font-style="normal" class="text-inner-tspan" font-weight="normal">multi-LB</tspan><tspan font-style="normal" class="text-inner-tspan" font-weight="normal"> pool</tspan></tspan></text></g></g></g></g><g class="nodes"><g class="node default" id="g54ea4802-63d3-4044-ab08-ea1c798cd1b9-light-flowchart-Start-0" data-look="classic" transform="translate(513.6171875, 25)"><g class="basic label-container outer-path"><path d="M-56.9609375 -17 C-16.29843143749953 -17, 24.36407462500094 -17, 56.9609375 -17 C56.9609375 -17, 56.9609375 -17, 56.9609375 -17 C57.279818582279255 -16.98977410435568, 57.59869966455851 -16.979548208711353, 58.05013123967212 -16.965071676755716 C58.30882504849887 -16.940115796143026, 58.56751885732561 -16.915159915530335, 59.1348492486366 -16.860430234995185 C59.439831992786864 -16.811122990097477, 59.74481473693712 -16.761815745199765, 60.210634187923326 -16.686505668848113 C60.6081208852966 -16.59578192401577, 61.00560758266987 -16.50505817918343, 61.27306542646162 -16.4440126716635 C61.513430126346954 -16.37267369043759, 61.75379482623229 -16.30133470921168, 62.31777720640155 -16.133947699181366 C62.69505953391007 -15.995104315098628, 63.072341861418586 -15.856260931015887, 63.34047658294936 -15.757584874882369 C63.70869727271876 -15.594584498400128, 64.07691796248817 -15.431584121917886, 64.33696106499849 -15.316470754341125 C64.54109361843926 -15.209974931964215, 64.74522617188003 -15.103479109587305, 65.30313588406693 -14.812417970097622 C65.49397746462735 -14.696728682452282, 65.68481904518778 -14.581039394806941, 66.23503082057933 -14.247497783161291 C66.52855569916223 -14.042747534349067, 66.82208057774511 -13.83799728553684, 67.12881651835067 -13.624031571755262 C67.30167446410285 -13.48618195996103, 67.47453240985502 -13.348332348166798, 67.9808202202324 -12.944581292275288 C68.18075696469057 -12.763004030994749, 68.38069370914874 -12.58142676971421, 68.78754086025927 -12.21193895166137 C69.01234190413822 -11.9798134173474, 69.23714294801718 -11.747687883033427, 69.54566345028036 -11.42911513444239 C69.71268398976324 -11.232923305027871, 69.87970452924613 -11.036731475613353, 70.25207270195651 -10.59932663159847 C70.46927152654328 -10.308299993872168, 70.68647035113005 -10.017273356145866, 70.90386582814824 -9.725983222076888 C71.10289314376033 -9.420223818979297, 71.30192045937241 -9.114464415881706, 71.49836447109088 -8.812673661278927 C71.63960106987116 -8.561893778388086, 71.78083766865144 -8.311113895497245, 72.033125708341 -7.863150934094199 C72.15569678700916 -7.608629466638816, 72.27826786567732 -7.354107999183432, 72.50595209126881 -6.881316833080699 C72.6263393134754 -6.583958066701818, 72.74672653568199 -6.286599300322938, 72.91490067484592 -5.871205925162238 C73.01500651218736 -5.569703092789008, 73.1151123495288 -5.268200260415779, 73.25829100162323 -4.836968972727556 C73.35271327674614 -4.476895914810988, 73.44713555186905 -4.11682285689442, 73.534712007091 -3.7828558772573464 C73.5841968015579 -3.5287619162848487, 73.63368159602479 -3.274667955312351, 73.74302781804565 -2.713198215567453 C73.78271393103455 -2.405400560134998, 73.82240004402344 -2.0976029047025437, 73.88238242013637 -1.632391440430593 C73.9065230141955 -1.2563822020228455, 73.93066360825463 -0.8803729636150981, 73.9522031754117 -0.5448768187181379 C73.9522031754117 -0.2205478314567621, 73.9522031754117 0.10378115580461367, 73.9522031754117 0.5448768187181336 C73.93128207412323 0.8707398584949337, 73.91036097283477 1.1966028982717338, 73.88238242013637 1.6323914404305815 C73.84077351778487 1.9551018704616918, 73.79916461543337 2.277812300492802, 73.74302781804565 2.7131982155674415 C73.66729877738437 3.1020508340247095, 73.59156973672309 3.4909034524819775, 73.534712007091 3.782855877257343 C73.44792373778682 4.113817162388008, 73.36113546848266 4.444778447518673, 73.25829100162323 4.836968972727545 C73.18096637158317 5.069858438401521, 73.1036417415431 5.302747904075496, 72.91490067484592 5.871205925162227 C72.76176480053967 6.249454495379402, 72.60862892623341 6.627703065596577, 72.50595209126881 6.881316833080694 C72.40024504074313 7.100819785265823, 72.29453799021745 7.320322737450951, 72.033125708341 7.863150934094196 C71.91665268786814 8.069960576116, 71.80017966739528 8.276770218137802, 71.49836447109088 8.812673661278923 C71.34432934794536 9.049312974652535, 71.19029422479986 9.285952288026147, 70.90386582814826 9.725983222076879 C70.76284862527366 9.914933426997358, 70.62183142239908 10.103883631917839, 70.25207270195651 10.599326631598467 C70.04766060559825 10.839440711358659, 69.84324850924 11.07955479111885, 69.54566345028037 11.42911513444238 C69.3179932751077 11.664203282377171, 69.09032309993502 11.899291430311964, 68.78754086025927 12.211938951661365 C68.51089990353493 12.46317694903979, 68.2342589468106 12.714414946418216, 67.98082022023242 12.944581292275275 C67.80331090589397 13.086140246738951, 67.62580159155551 13.227699201202626, 67.12881651835067 13.62403157175526 C66.89130288769799 13.789710798699215, 66.65378925704532 13.955390025643169, 66.23503082057934 14.247497783161286 C65.95549963682372 14.416951229461521, 65.67596845306808 14.586404675761758, 65.30313588406695 14.81241797009762 C64.9778312226622 14.982129203584897, 64.65252656125745 15.151840437072174, 64.33696106499849 15.316470754341124 C63.949636586818606 15.487927811258938, 63.562312108638714 15.659384868176755, 63.340476582949364 15.757584874882367 C63.020437146912485 15.875362345756054, 62.70039771087561 15.993139816629741, 62.31777720640156 16.133947699181363 C61.93580228470388 16.247315850913953, 61.553827363006214 16.360684002646547, 61.27306542646164 16.444012671663497 C60.90635043457495 16.52771297552267, 60.539635442688244 16.611413279381846, 60.21063418792333 16.68650566884811 C59.88540181283169 16.739086717038187, 59.56016943774005 16.791667765228265, 59.13484924863661 16.86043023499518 C58.85097770967154 16.887814980953667, 58.56710617070646 16.915199726912153, 58.05013123967212 16.965071676755716 C57.75265214369425 16.974611252355793, 57.45517304771638 16.98415082795587, 56.9609375 17 C56.9609375 17, 56.9609375 17, 56.9609375 17 C19.226686646204456 17, -18.507564207591088 17, -56.9609375 17 C-57.36847417476718 16.986931092062232, -57.77601084953436 16.973862184124464, -58.05013123967211 16.965071676755716 C-58.4555827045589 16.925958261564816, -58.861034169445695 16.886844846373915, -59.134849248636606 16.86043023499518 C-59.47633542145979 16.80522139883795, -59.81782159428297 16.750012562680723, -60.210634187923326 16.68650566884811 C-60.59443408492264 16.598905846886407, -60.978233981921946 16.511306024924703, -61.27306542646162 16.4440126716635 C-61.60555846808958 16.345330482199913, -61.938051509717546 16.246648292736324, -62.317777206401544 16.13394769918137 C-62.591527542470004 16.03320504498781, -62.86527787853846 15.932462390794251, -63.340476582949364 15.757584874882369 C-63.63510290915971 15.62716254004849, -63.92972923537006 15.496740205214612, -64.33696106499849 15.316470754341127 C-64.57250607048205 15.193587075854131, -64.80805107596561 15.070703397367133, -65.30313588406693 14.812417970097624 C-65.66528487093476 14.592881126034673, -66.02743385780258 14.373344281971722, -66.23503082057931 14.247497783161299 C-66.50080324351259 14.062106446025807, -66.76657566644586 13.876715108890314, -67.12881651835067 13.624031571755264 C-67.43311649803778 13.38136043571735, -67.73741647772486 13.138689299679436, -67.9808202202324 12.94458129227529 C-68.25712759167322 12.693646248225168, -68.53343496311405 12.442711204175046, -68.78754086025926 12.211938951661377 C-69.0510594148653 11.939834408754942, -69.31457796947134 11.667729865848505, -69.54566345028036 11.429115134442386 C-69.72077539844547 11.223418675975527, -69.89588734661058 11.017722217508668, -70.25207270195651 10.599326631598473 C-70.44471964708607 10.3411972756226, -70.63736659221564 10.083067919646727, -70.90386582814824 9.72598322207689 C-71.12000217299796 9.39393975565268, -71.33613851784766 9.06189628922847, -71.49836447109088 8.812673661278936 C-71.69292090002509 8.467219020731534, -71.88747732895928 8.121764380184132, -72.033125708341 7.863150934094201 C-72.1468783376177 7.6269411654848085, -72.26063096689437 7.390731396875416, -72.50595209126881 6.881316833080701 C-72.63677196728213 6.558189210097576, -72.76759184329543 6.23506158711445, -72.91490067484592 5.87120592516224 C-72.98761430736347 5.652204049363414, -73.06032793988102 5.433202173564587, -73.25829100162323 4.8369689727275516 C-73.31630267465944 4.615745321022336, -73.37431434769566 4.394521669317122, -73.534712007091 3.782855877257349 C-73.60644205369564 3.414537248093192, -73.6781721003003 3.0462186189290343, -73.74302781804565 2.713198215567455 C-73.77803850668441 2.4416622281276714, -73.81304919532317 2.1701262406878876, -73.88238242013637 1.6323914404306026 C-73.90944098409858 1.2109324654394948, -73.93649954806078 0.7894734904483872, -73.9522031754117 0.54487681871814 C-73.9522031754117 0.2606730150280433, -73.9522031754117 -0.02353078866205338, -73.9522031754117 -0.5448768187181317 C-73.93506293350356 -0.8118499217915015, -73.91792269159544 -1.0788230248648714, -73.88238242013637 -1.6323914404305793 C-73.84083495707605 -1.954625359451839, -73.79928749401573 -2.2768592784730988, -73.74302781804565 -2.713198215567447 C-73.67904708851907 -3.0417257393544275, -73.61506635899251 -3.370253263141408, -73.534712007091 -3.782855877257341 C-73.43067226291114 -4.179604512925518, -73.32663251873127 -4.576353148593695, -73.25829100162323 -4.836968972727544 C-73.1484317758385 -5.167847457100573, -73.03857255005377 -5.498725941473601, -72.91490067484594 -5.871205925162218 C-72.78062164624372 -6.2028777219180915, -72.64634261764151 -6.534549518673965, -72.50595209126881 -6.881316833080692 C-72.37436560717838 -7.154558982794214, -72.24277912308793 -7.427801132507735, -72.033125708341 -7.863150934094194 C-71.85224171172989 -8.184328786568061, -71.67135771511877 -8.505506639041927, -71.49836447109088 -8.812673661278929 C-71.26460347188676 -9.171793329673896, -71.03084247268262 -9.530912998068862, -70.90386582814826 -9.725983222076884 C-70.68472159880085 -10.019616524952413, -70.46557736945343 -10.313249827827942, -70.25207270195651 -10.599326631598467 C-70.04459449408392 -10.843042340410078, -69.83711628621134 -11.086758049221686, -69.54566345028037 -11.42911513444238 C-69.3773241731408 -11.602939259000669, -69.20898489600124 -11.776763383558956, -68.78754086025927 -12.21193895166136 C-68.56751453358149 -12.411761039972536, -68.3474882069037 -12.611583128283712, -67.98082022023242 -12.944581292275274 C-67.65800980701952 -13.202014006466687, -67.33519939380663 -13.459446720658098, -67.12881651835067 -13.624031571755259 C-66.91984149859395 -13.769803499154747, -66.71086647883722 -13.915575426554238, -66.23503082057934 -14.247497783161284 C-65.86474824547055 -14.471965256214176, -65.49446567036176 -14.69643272926707, -65.30313588406695 -14.812417970097618 C-64.92896316944095 -15.007623635648942, -64.55479045481493 -15.202829301200268, -64.33696106499849 -15.316470754341124 C-64.11243255997128 -15.415862863115212, -63.88790405494407 -15.515254971889298, -63.34047658294937 -15.757584874882365 C-63.00639680984404 -15.880529319584696, -62.67231703673871 -16.003473764287026, -62.317777206401566 -16.133947699181363 C-62.002970607139176 -16.22738064538888, -61.688164007876786 -16.320813591596398, -61.27306542646164 -16.444012671663494 C-61.04183703684067 -16.496789042688224, -60.810608647219695 -16.549565413712955, -60.21063418792333 -16.68650566884811 C-59.89820375598571 -16.7370169981496, -59.585773324048084 -16.78752832745109, -59.13484924863661 -16.86043023499518 C-58.7710837261503 -16.895522257457387, -58.40731820366399 -16.930614279919595, -58.05013123967212 -16.965071676755716 C-57.74173521353533 -16.974961337057476, -57.43333918739854 -16.98485099735923, -56.96093750000001 -17 C-56.96093750000001 -17, -56.9609375 -17, -56.9609375 -17" stroke="none" stroke-width="0" fill="#ECECFF" style=""></path><path d="M-56.9609375 -17 C-18.38390472061881 -17, 20.193128058762383 -17, 56.9609375 -17 M-56.9609375 -17 C-27.645293943047534 -17, 1.670349613904932 -17, 56.9609375 -17 M56.9609375 -17 C56.9609375 -17, 56.9609375 -17, 56.9609375 -17 M56.9609375 -17 C56.9609375 -17, 56.9609375 -17, 56.9609375 -17 M56.9609375 -17 C57.21385069026497 -16.991889566253864, 57.46676388052994 -16.983779132507728, 58.05013123967212 -16.965071676755716 M56.9609375 -17 C57.39654874815218 -16.986030795137616, 57.83215999630435 -16.972061590275235, 58.05013123967212 -16.965071676755716 M58.05013123967212 -16.965071676755716 C58.29096129391232 -16.94183909106368, 58.53179134815252 -16.918606505371645, 59.1348492486366 -16.860430234995185 M58.05013123967212 -16.965071676755716 C58.432227914050316 -16.928211270116936, 58.81432458842851 -16.891350863478156, 59.1348492486366 -16.860430234995185 M59.1348492486366 -16.860430234995185 C59.46967743026187 -16.80629781122134, 59.80450561188714 -16.752165387447498, 60.210634187923326 -16.686505668848113 M59.1348492486366 -16.860430234995185 C59.41535157864029 -16.815080793608246, 59.69585390864399 -16.769731352221307, 60.210634187923326 -16.686505668848113 M60.210634187923326 -16.686505668848113 C60.46044855065903 -16.629487170744753, 60.710262913394736 -16.572468672641396, 61.27306542646162 -16.4440126716635 M60.210634187923326 -16.686505668848113 C60.603620996669854 -16.596808994230308, 60.99660780541639 -16.5071123196125, 61.27306542646162 -16.4440126716635 M61.27306542646162 -16.4440126716635 C61.504841146750124 -16.375222854497455, 61.73661686703862 -16.30643303733141, 62.31777720640155 -16.133947699181366 M61.27306542646162 -16.4440126716635 C61.59612126844089 -16.348131393518774, 61.91917711042016 -16.252250115374046, 62.31777720640155 -16.133947699181366 M62.31777720640155 -16.133947699181366 C62.63225610632823 -16.018216556997267, 62.9467350062549 -15.902485414813166, 63.34047658294936 -15.757584874882369 M62.31777720640155 -16.133947699181366 C62.58917498262328 -16.03407080875823, 62.860572758845 -15.934193918335092, 63.34047658294936 -15.757584874882369 M63.34047658294936 -15.757584874882369 C63.68704787073508 -15.60416804645161, 64.0336191585208 -15.450751218020851, 64.33696106499849 -15.316470754341125 M63.34047658294936 -15.757584874882369 C63.57135617487026 -15.655381328338741, 63.80223576679117 -15.553177781795112, 64.33696106499849 -15.316470754341125 M64.33696106499849 -15.316470754341125 C64.62878863987905 -15.164224495450421, 64.9206162147596 -15.011978236559717, 65.30313588406693 -14.812417970097622 M64.33696106499849 -15.316470754341125 C64.5515490533105 -15.20452033828892, 64.7661370416225 -15.092569922236713, 65.30313588406693 -14.812417970097622 M65.30313588406693 -14.812417970097622 C65.66202459849512 -14.594857522347066, 66.02091331292331 -14.377297074596509, 66.23503082057933 -14.247497783161291 M65.30313588406693 -14.812417970097622 C65.64282922298717 -14.606493871784531, 65.98252256190742 -14.40056977347144, 66.23503082057933 -14.247497783161291 M66.23503082057933 -14.247497783161291 C66.55139639747597 -14.02681485196329, 66.86776197437261 -13.806131920765287, 67.12881651835067 -13.624031571755262 M66.23503082057933 -14.247497783161291 C66.56486705810912 -14.017418302241103, 66.89470329563892 -13.787338821320914, 67.12881651835067 -13.624031571755262 M67.12881651835067 -13.624031571755262 C67.33495221419473 -13.45964383982087, 67.54108791003878 -13.295256107886479, 67.9808202202324 -12.944581292275288 M67.12881651835067 -13.624031571755262 C67.33048275316438 -13.463208116055226, 67.53214898797808 -13.30238466035519, 67.9808202202324 -12.944581292275288 M67.9808202202324 -12.944581292275288 C68.16508641141749 -12.777235612857247, 68.34935260260258 -12.609889933439206, 68.78754086025927 -12.21193895166137 M67.9808202202324 -12.944581292275288 C68.19910322853137 -12.74634243959008, 68.41738623683034 -12.54810358690487, 68.78754086025927 -12.21193895166137 M68.78754086025927 -12.21193895166137 C69.0603869584413 -11.930202954207157, 69.33323305662333 -11.648466956752943, 69.54566345028036 -11.42911513444239 M68.78754086025927 -12.21193895166137 C68.959009444889 -12.03488356019855, 69.13047802951876 -11.857828168735729, 69.54566345028036 -11.42911513444239 M69.54566345028036 -11.42911513444239 C69.72517894597357 -11.218246018480066, 69.90469444166679 -11.007376902517741, 70.25207270195651 -10.59932663159847 M69.54566345028036 -11.42911513444239 C69.7990580315237 -11.131463440753826, 70.05245261276704 -10.833811747065262, 70.25207270195651 -10.59932663159847 M70.25207270195651 -10.59932663159847 C70.50125673420385 -10.26544272951938, 70.75044076645118 -9.931558827440288, 70.90386582814824 -9.725983222076888 M70.25207270195651 -10.59932663159847 C70.39848435104153 -10.403148360200165, 70.54489600012656 -10.206970088801857, 70.90386582814824 -9.725983222076888 M70.90386582814824 -9.725983222076888 C71.04435899214049 -9.510147994487884, 71.18485215613275 -9.29431276689888, 71.49836447109088 -8.812673661278927 M70.90386582814824 -9.725983222076888 C71.13867411169794 -9.36525464369191, 71.37348239524763 -9.004526065306935, 71.49836447109088 -8.812673661278927 M71.49836447109088 -8.812673661278927 C71.64946375271828 -8.544381586288111, 71.80056303434566 -8.276089511297297, 72.033125708341 -7.863150934094199 M71.49836447109088 -8.812673661278927 C71.63626772911832 -8.567812462432121, 71.77417098714574 -8.322951263585317, 72.033125708341 -7.863150934094199 M72.033125708341 -7.863150934094199 C72.14000707750982 -7.6412094841202025, 72.24688844667864 -7.4192680341462065, 72.50595209126881 -6.881316833080699 M72.033125708341 -7.863150934094199 C72.12970552710708 -7.662600873949372, 72.22628534587315 -7.462050813804544, 72.50595209126881 -6.881316833080699 M72.50595209126881 -6.881316833080699 C72.6609257469537 -6.498528907327246, 72.81589940263856 -6.115740981573793, 72.91490067484592 -5.871205925162238 M72.50595209126881 -6.881316833080699 C72.62864075966418 -6.5782734501201094, 72.75132942805953 -6.275230067159521, 72.91490067484592 -5.871205925162238 M72.91490067484592 -5.871205925162238 C73.01075406366525 -5.582510790201952, 73.10660745248457 -5.293815655241667, 73.25829100162323 -4.836968972727556 M72.91490067484592 -5.871205925162238 C72.98981720359723 -5.64556927689118, 73.06473373234853 -5.419932628620122, 73.25829100162323 -4.836968972727556 M73.25829100162323 -4.836968972727556 C73.32264454250596 -4.59156103034068, 73.38699808338868 -4.346153087953803, 73.534712007091 -3.7828558772573464 M73.25829100162323 -4.836968972727556 C73.34417201609186 -4.509467443491577, 73.43005303056047 -4.181965914255597, 73.534712007091 -3.7828558772573464 M73.534712007091 -3.7828558772573464 C73.60576205095207 -3.418028918462837, 73.67681209481314 -3.0532019596683275, 73.74302781804565 -2.713198215567453 M73.534712007091 -3.7828558772573464 C73.60773517049164 -3.407897366646135, 73.68075833389227 -3.032938856034923, 73.74302781804565 -2.713198215567453 M73.74302781804565 -2.713198215567453 C73.78424264833522 -2.393544130630345, 73.82545747862478 -2.073890045693237, 73.88238242013637 -1.632391440430593 M73.74302781804565 -2.713198215567453 C73.79418934720063 -2.3163994984280842, 73.84535087635561 -1.919600781288715, 73.88238242013637 -1.632391440430593 M73.88238242013637 -1.632391440430593 C73.9031785648983 -1.308474699417571, 73.92397470966023 -0.9845579584045492, 73.9522031754117 -0.5448768187181379 M73.88238242013637 -1.632391440430593 C73.91012449538319 -1.2002862254613869, 73.93786657062999 -0.7681810104921807, 73.9522031754117 -0.5448768187181379 M73.9522031754117 -0.5448768187181379 C73.9522031754117 -0.13819377655692539, 73.9522031754117 0.2684892656042871, 73.9522031754117 0.5448768187181336 M73.9522031754117 -0.5448768187181379 C73.9522031754117 -0.13539511746298616, 73.9522031754117 0.27408658379216555, 73.9522031754117 0.5448768187181336 M73.9522031754117 0.5448768187181336 C73.92712533180271 0.9354844753991332, 73.90204748819372 1.3260921320801327, 73.88238242013637 1.6323914404305815 M73.9522031754117 0.5448768187181336 C73.92500936864208 0.9684423096007084, 73.89781556187245 1.3920078004832832, 73.88238242013637 1.6323914404305815 M73.88238242013637 1.6323914404305815 C73.84975781493024 1.885421435952253, 73.81713320972413 2.1384514314739245, 73.74302781804565 2.7131982155674415 M73.88238242013637 1.6323914404305815 C73.84879241054892 1.8929089216930994, 73.8152024009615 2.153426402955618, 73.74302781804565 2.7131982155674415 M73.74302781804565 2.7131982155674415 C73.69056821921305 2.9825671682327255, 73.63810862038044 3.2519361208980095, 73.534712007091 3.782855877257343 M73.74302781804565 2.7131982155674415 C73.67433472801393 3.065922714590614, 73.6056416379822 3.418647213613786, 73.534712007091 3.782855877257343 M73.534712007091 3.782855877257343 C73.46687012535519 4.041566375173565, 73.39902824361936 4.300276873089786, 73.25829100162323 4.836968972727545 M73.534712007091 3.782855877257343 C73.43714278891495 4.154929592929269, 73.3395735707389 4.527003308601196, 73.25829100162323 4.836968972727545 M73.25829100162323 4.836968972727545 C73.16066500031378 5.131002934080645, 73.06303899900433 5.425036895433745, 72.91490067484592 5.871205925162227 M73.25829100162323 4.836968972727545 C73.1747681054027 5.088526628577447, 73.09124520918219 5.340084284427348, 72.91490067484592 5.871205925162227 M72.91490067484592 5.871205925162227 C72.75418703484787 6.268171723144264, 72.59347339484982 6.665137521126302, 72.50595209126881 6.881316833080694 M72.91490067484592 5.871205925162227 C72.78728183776478 6.186426920095021, 72.65966300068364 6.501647915027815, 72.50595209126881 6.881316833080694 M72.50595209126881 6.881316833080694 C72.38499636389469 7.132483989011043, 72.26404063652055 7.383651144941392, 72.033125708341 7.863150934094196 M72.50595209126881 6.881316833080694 C72.34646182310637 7.212501787465078, 72.18697155494391 7.543686741849461, 72.033125708341 7.863150934094196 M72.033125708341 7.863150934094196 C71.88405771207584 8.127836256234438, 71.73498971581067 8.392521578374682, 71.49836447109088 8.812673661278923 M72.033125708341 7.863150934094196 C71.88538172743323 8.125485332896307, 71.73763774652544 8.38781973169842, 71.49836447109088 8.812673661278923 M71.49836447109088 8.812673661278923 C71.32046334825769 9.085977559091056, 71.1425622254245 9.35928145690319, 70.90386582814826 9.725983222076879 M71.49836447109088 8.812673661278923 C71.28495667288594 9.14052534733941, 71.071548874681 9.468377033399898, 70.90386582814826 9.725983222076879 M70.90386582814826 9.725983222076879 C70.68884492611218 10.01409164199806, 70.47382402407611 10.302200061919242, 70.25207270195651 10.599326631598467 M70.90386582814826 9.725983222076879 C70.67628612160348 10.030919295909097, 70.4487064150587 10.335855369741315, 70.25207270195651 10.599326631598467 M70.25207270195651 10.599326631598467 C70.07200081052204 10.810849321658278, 69.89192891908759 11.022372011718087, 69.54566345028037 11.42911513444238 M70.25207270195651 10.599326631598467 C70.08258891740373 10.798411928834712, 69.91310513285093 10.997497226070958, 69.54566345028037 11.42911513444238 M69.54566345028037 11.42911513444238 C69.33437866996627 11.647284016919766, 69.12309388965215 11.865452899397152, 68.78754086025927 12.211938951661365 M69.54566345028037 11.42911513444238 C69.28699881590799 11.696207606193298, 69.0283341815356 11.963300077944215, 68.78754086025927 12.211938951661365 M68.78754086025927 12.211938951661365 C68.53354087207275 12.442615020460956, 68.27954088388621 12.673291089260545, 67.98082022023242 12.944581292275275 M68.78754086025927 12.211938951661365 C68.53346564012445 12.44268334412586, 68.27939041998964 12.673427736590359, 67.98082022023242 12.944581292275275 M67.98082022023242 12.944581292275275 C67.74428168086821 13.13321448286334, 67.50774314150401 13.321847673451401, 67.12881651835067 13.62403157175526 M67.98082022023242 12.944581292275275 C67.67338605978841 13.189751854062772, 67.36595189934441 13.434922415850268, 67.12881651835067 13.62403157175526 M67.12881651835067 13.62403157175526 C66.78565236958687 13.863408026596323, 66.44248822082305 14.102784481437384, 66.23503082057934 14.247497783161286 M67.12881651835067 13.62403157175526 C66.91518353742184 13.773052691228521, 66.70155055649302 13.922073810701782, 66.23503082057934 14.247497783161286 M66.23503082057934 14.247497783161286 C65.99756363101648 14.391451788986396, 65.76009644145363 14.535405794811508, 65.30313588406695 14.81241797009762 M66.23503082057934 14.247497783161286 C65.90123759720126 14.449845196759789, 65.5674443738232 14.65219261035829, 65.30313588406695 14.81241797009762 M65.30313588406695 14.81241797009762 C64.9581511808746 14.992396268779821, 64.61316647768224 15.172374567462022, 64.33696106499849 15.316470754341124 M65.30313588406695 14.81241797009762 C65.10007269168003 14.918355907497693, 64.8970094992931 15.024293844897766, 64.33696106499849 15.316470754341124 M64.33696106499849 15.316470754341124 C63.94365790399764 15.490574396792454, 63.550354742996795 15.664678039243785, 63.340476582949364 15.757584874882367 M64.33696106499849 15.316470754341124 C64.02574358781465 15.45423749955196, 63.714526110630814 15.592004244762796, 63.340476582949364 15.757584874882367 M63.340476582949364 15.757584874882367 C62.99329936862898 15.885349299023257, 62.6461221543086 16.013113723164146, 62.31777720640156 16.133947699181363 M63.340476582949364 15.757584874882367 C62.99713670434347 15.883937124008382, 62.65379682573758 16.010289373134395, 62.31777720640156 16.133947699181363 M62.31777720640156 16.133947699181363 C62.02319628061661 16.221377771667505, 61.72861535483165 16.308807844153645, 61.27306542646164 16.444012671663497 M62.31777720640156 16.133947699181363 C62.10839817349824 16.1960902970941, 61.89901914059491 16.258232895006834, 61.27306542646164 16.444012671663497 M61.27306542646164 16.444012671663497 C60.94472121489325 16.51895509530776, 60.616377003324864 16.593897518952023, 60.21063418792333 16.68650566884811 M61.27306542646164 16.444012671663497 C61.00110074689 16.506086835040332, 60.729136067318365 16.568160998417166, 60.21063418792333 16.68650566884811 M60.21063418792333 16.68650566884811 C59.84422830614192 16.745743330294477, 59.47782242436051 16.804980991740845, 59.13484924863661 16.86043023499518 M60.21063418792333 16.68650566884811 C59.84246853305732 16.746027836759552, 59.47430287819131 16.80555000467099, 59.13484924863661 16.86043023499518 M59.13484924863661 16.86043023499518 C58.86432566748303 16.886527319516862, 58.59380208632945 16.91262440403854, 58.05013123967212 16.965071676755716 M59.13484924863661 16.86043023499518 C58.748372718789376 16.897713161023514, 58.36189618894215 16.934996087051847, 58.05013123967212 16.965071676755716 M58.05013123967212 16.965071676755716 C57.815364184933344 16.97260019925484, 57.580597130194576 16.98012872175396, 56.9609375 17 M58.05013123967212 16.965071676755716 C57.638150184346735 16.978283107327524, 57.22616912902135 16.99149453789933, 56.9609375 17 M56.9609375 17 C56.9609375 17, 56.9609375 17, 56.9609375 17 M56.9609375 17 C56.9609375 17, 56.9609375 17, 56.9609375 17 M56.9609375 17 C11.69685110638354 17, -33.56723528723292 17, -56.9609375 17 M56.9609375 17 C23.35776736520907 17, -10.245402769581858 17, -56.9609375 17 M-56.9609375 17 C-57.396566654797255 16.98603022090636, -57.83219580959451 16.972060441812726, -58.05013123967211 16.965071676755716 M-56.9609375 17 C-57.37119314862075 16.986843899862908, -57.781448797241495 16.97368779972582, -58.05013123967211 16.965071676755716 M-58.05013123967211 16.965071676755716 C-58.46565830735322 16.924986280280933, -58.881185375034335 16.88490088380615, -59.134849248636606 16.86043023499518 M-58.05013123967211 16.965071676755716 C-58.315345933532065 16.939486734206383, -58.58056062739202 16.913901791657047, -59.134849248636606 16.86043023499518 M-59.134849248636606 16.86043023499518 C-59.4877438800151 16.803376967732646, -59.8406385113936 16.74632370047011, -60.210634187923326 16.68650566884811 M-59.134849248636606 16.86043023499518 C-59.37583579837141 16.82146939851266, -59.616822348106226 16.782508562030145, -60.210634187923326 16.68650566884811 M-60.210634187923326 16.68650566884811 C-60.564550910312995 16.605726486485118, -60.91846763270266 16.524947304122126, -61.27306542646162 16.4440126716635 M-60.210634187923326 16.68650566884811 C-60.4307758206963 16.636259777726085, -60.65091745346926 16.586013886604064, -61.27306542646162 16.4440126716635 M-61.27306542646162 16.4440126716635 C-61.48434409199235 16.381306272758327, -61.69562275752308 16.318599873853152, -62.317777206401544 16.13394769918137 M-61.27306542646162 16.4440126716635 C-61.62460378776006 16.339677931292638, -61.9761421490585 16.235343190921775, -62.317777206401544 16.13394769918137 M-62.317777206401544 16.13394769918137 C-62.635747716319756 16.016931612244296, -62.953718226237974 15.899915525307218, -63.340476582949364 15.757584874882369 M-62.317777206401544 16.13394769918137 C-62.534273291221105 16.0542751386999, -62.75076937604067 15.974602578218432, -63.340476582949364 15.757584874882369 M-63.340476582949364 15.757584874882369 C-63.724195286057785 15.587723987627173, -64.1079139891662 15.417863100371978, -64.33696106499849 15.316470754341127 M-63.340476582949364 15.757584874882369 C-63.72434884591653 15.5876560112329, -64.1082211088837 15.417727147583433, -64.33696106499849 15.316470754341127 M-64.33696106499849 15.316470754341127 C-64.66820808169179 15.143659397906072, -64.99945509838508 14.970848041471019, -65.30313588406693 14.812417970097624 M-64.33696106499849 15.316470754341127 C-64.54553057189115 15.207660176190373, -64.75410007878381 15.09884959803962, -65.30313588406693 14.812417970097624 M-65.30313588406693 14.812417970097624 C-65.59432693150059 14.635896245914802, -65.88551797893425 14.459374521731979, -66.23503082057931 14.247497783161299 M-65.30313588406693 14.812417970097624 C-65.50346126721492 14.690979545590693, -65.7037866503629 14.56954112108376, -66.23503082057931 14.247497783161299 M-66.23503082057931 14.247497783161299 C-66.44011071280683 14.104442928108835, -66.64519060503434 13.96138807305637, -67.12881651835067 13.624031571755264 M-66.23503082057931 14.247497783161299 C-66.41616043556124 14.121149604724565, -66.59729005054317 13.99480142628783, -67.12881651835067 13.624031571755264 M-67.12881651835067 13.624031571755264 C-67.46436968086594 13.356436854094007, -67.79992284338121 13.088842136432751, -67.9808202202324 12.94458129227529 M-67.12881651835067 13.624031571755264 C-67.40208859598872 13.406104361914318, -67.67536067362676 13.188177152073372, -67.9808202202324 12.94458129227529 M-67.9808202202324 12.94458129227529 C-68.15948414421355 12.782323443703993, -68.33814806819471 12.620065595132694, -68.78754086025926 12.211938951661377 M-67.9808202202324 12.94458129227529 C-68.28318257912667 12.669983797997135, -68.58554493802094 12.395386303718983, -68.78754086025926 12.211938951661377 M-68.78754086025926 12.211938951661377 C-69.04735573760618 11.943658759602542, -69.30717061495311 11.675378567543708, -69.54566345028036 11.429115134442386 M-68.78754086025926 12.211938951661377 C-69.00352910134987 11.988913359770933, -69.2195173424405 11.76588776788049, -69.54566345028036 11.429115134442386 M-69.54566345028036 11.429115134442386 C-69.72260776620791 11.22126627253708, -69.89955208213547 11.013417410631774, -70.25207270195651 10.599326631598473 M-69.54566345028036 11.429115134442386 C-69.78375778842378 11.14943597690748, -70.02185212656721 10.869756819372574, -70.25207270195651 10.599326631598473 M-70.25207270195651 10.599326631598473 C-70.46718703051538 10.311093028648067, -70.68230135907426 10.022859425697662, -70.90386582814824 9.72598322207689 M-70.25207270195651 10.599326631598473 C-70.44273535914431 10.343856040692208, -70.63339801633212 10.088385449785944, -70.90386582814824 9.72598322207689 M-70.90386582814824 9.72598322207689 C-71.08090225911835 9.45400772316873, -71.25793869008847 9.182032224260567, -71.49836447109088 8.812673661278936 M-70.90386582814824 9.72598322207689 C-71.13530971875012 9.370423254725761, -71.366753609352 9.014863287374633, -71.49836447109088 8.812673661278936 M-71.49836447109088 8.812673661278936 C-71.70330974069444 8.448772582138915, -71.90825501029798 8.084871502998894, -72.033125708341 7.863150934094201 M-71.49836447109088 8.812673661278936 C-71.6483085494789 8.546432766616645, -71.7982526278669 8.280191871954354, -72.033125708341 7.863150934094201 M-72.033125708341 7.863150934094201 C-72.17620268616699 7.566048528281632, -72.31927966399297 7.268946122469063, -72.50595209126881 6.881316833080701 M-72.033125708341 7.863150934094201 C-72.21726575327915 7.480780190814332, -72.40140579821731 7.098409447534462, -72.50595209126881 6.881316833080701 M-72.50595209126881 6.881316833080701 C-72.65771469057806 6.506460278656611, -72.8094772898873 6.131603724232521, -72.91490067484592 5.87120592516224 M-72.50595209126881 6.881316833080701 C-72.65359234994513 6.51664253971998, -72.80123260862145 6.151968246359259, -72.91490067484592 5.87120592516224 M-72.91490067484592 5.87120592516224 C-73.02896095736958 5.527674527239077, -73.14302123989323 5.184143129315912, -73.25829100162323 4.8369689727275516 M-72.91490067484592 5.87120592516224 C-73.03375513290537 5.513235234373397, -73.15260959096481 5.155264543584553, -73.25829100162323 4.8369689727275516 M-73.25829100162323 4.8369689727275516 C-73.3594348678903 4.451263574622275, -73.46057873415738 4.065558176516999, -73.534712007091 3.782855877257349 M-73.25829100162323 4.8369689727275516 C-73.3416350573863 4.519141966560722, -73.42497911314936 4.201314960393893, -73.534712007091 3.782855877257349 M-73.534712007091 3.782855877257349 C-73.60192903624743 3.4377106388632126, -73.66914606540387 3.092565400469076, -73.74302781804565 2.713198215567455 M-73.534712007091 3.782855877257349 C-73.59266808091687 3.4852636871820906, -73.65062415474273 3.1876714971068316, -73.74302781804565 2.713198215567455 M-73.74302781804565 2.713198215567455 C-73.78237998156769 2.4079906062541134, -73.82173214508974 2.1027829969407716, -73.88238242013637 1.6323914404306026 M-73.74302781804565 2.713198215567455 C-73.77681850057628 2.451124354584817, -73.81060918310693 2.1890504936021786, -73.88238242013637 1.6323914404306026 M-73.88238242013637 1.6323914404306026 C-73.90781133100887 1.2363156277438776, -73.93324024188139 0.8402398150571526, -73.9522031754117 0.54487681871814 M-73.88238242013637 1.6323914404306026 C-73.90697150198169 1.2493966427401215, -73.93156058382701 0.8664018450496405, -73.9522031754117 0.54487681871814 M-73.9522031754117 0.54487681871814 C-73.9522031754117 0.17766193303411448, -73.9522031754117 -0.189552952649911, -73.9522031754117 -0.5448768187181317 M-73.9522031754117 0.54487681871814 C-73.9522031754117 0.16071554446716074, -73.9522031754117 -0.2234457297838185, -73.9522031754117 -0.5448768187181317 M-73.9522031754117 -0.5448768187181317 C-73.93108966638232 -0.8737367643683382, -73.90997615735294 -1.2025967100185448, -73.88238242013637 -1.6323914404305793 M-73.9522031754117 -0.5448768187181317 C-73.9302797771252 -0.8863514432789288, -73.90835637883869 -1.2278260678397261, -73.88238242013637 -1.6323914404305793 M-73.88238242013637 -1.6323914404305793 C-73.83425419528766 -2.0056644483642487, -73.78612597043893 -2.378937456297918, -73.74302781804565 -2.713198215567447 M-73.88238242013637 -1.6323914404305793 C-73.84450388466529 -1.9261698815814472, -73.80662534919419 -2.219948322732315, -73.74302781804565 -2.713198215567447 M-73.74302781804565 -2.713198215567447 C-73.68769827879804 -2.997303705701663, -73.63236873955043 -3.2814091958358786, -73.534712007091 -3.782855877257341 M-73.74302781804565 -2.713198215567447 C-73.66141345665736 -3.132270712094962, -73.57979909526905 -3.5513432086224777, -73.534712007091 -3.782855877257341 M-73.534712007091 -3.782855877257341 C-73.44256903310935 -4.134236972066945, -73.35042605912768 -4.485618066876549, -73.25829100162323 -4.836968972727544 M-73.534712007091 -3.782855877257341 C-73.46357334713618 -4.054138419355332, -73.39243468718136 -4.3254209614533226, -73.25829100162323 -4.836968972727544 M-73.25829100162323 -4.836968972727544 C-73.18300740531834 -5.0637111699857735, -73.10772380901342 -5.2904533672440035, -72.91490067484594 -5.871205925162218 M-73.25829100162323 -4.836968972727544 C-73.12174783754644 -5.248215227728073, -72.98520467346965 -5.659461482728601, -72.91490067484594 -5.871205925162218 M-72.91490067484594 -5.871205925162218 C-72.81350547142091 -6.121654037964936, -72.71211026799588 -6.372102150767654, -72.50595209126881 -6.881316833080692 M-72.91490067484594 -5.871205925162218 C-72.80209491001573 -6.149838345243943, -72.6892891451855 -6.4284707653256685, -72.50595209126881 -6.881316833080692 M-72.50595209126881 -6.881316833080692 C-72.40013807607177 -7.10104189969458, -72.29432406087473 -7.320766966308467, -72.033125708341 -7.863150934094194 M-72.50595209126881 -6.881316833080692 C-72.36830542598992 -7.167143078699151, -72.23065876071102 -7.452969324317609, -72.033125708341 -7.863150934094194 M-72.033125708341 -7.863150934094194 C-71.89898801691366 -8.101325988137566, -71.76485032548634 -8.339501042180938, -71.49836447109088 -8.812673661278929 M-72.033125708341 -7.863150934094194 C-71.85923459682618 -8.171912210973183, -71.68534348531136 -8.48067348785217, -71.49836447109088 -8.812673661278929 M-71.49836447109088 -8.812673661278929 C-71.26077080870805 -9.177681329530554, -71.02317714632521 -9.54268899778218, -70.90386582814826 -9.725983222076884 M-71.49836447109088 -8.812673661278929 C-71.31709246564748 -9.091156139989085, -71.13582046020406 -9.36963861869924, -70.90386582814826 -9.725983222076884 M-70.90386582814826 -9.725983222076884 C-70.73185408150876 -9.956463291981308, -70.55984233486927 -10.186943361885731, -70.25207270195651 -10.599326631598467 M-70.90386582814826 -9.725983222076884 C-70.77242416958511 -9.902103069970075, -70.64098251102195 -10.078222917863263, -70.25207270195651 -10.599326631598467 M-70.25207270195651 -10.599326631598467 C-70.03152277827668 -10.85839712159897, -69.81097285459686 -11.117467611599473, -69.54566345028037 -11.42911513444238 M-70.25207270195651 -10.599326631598467 C-70.07422689079954 -10.808234441096788, -69.89638107964255 -11.017142250595109, -69.54566345028037 -11.42911513444238 M-69.54566345028037 -11.42911513444238 C-69.36116826940392 -11.619621556033369, -69.17667308852747 -11.810127977624358, -68.78754086025927 -12.21193895166136 M-69.54566345028037 -11.42911513444238 C-69.37688576097491 -11.603391955556251, -69.20810807166947 -11.777668776670124, -68.78754086025927 -12.21193895166136 M-68.78754086025927 -12.21193895166136 C-68.60199799246331 -12.38044407499838, -68.41645512466737 -12.548949198335402, -67.98082022023242 -12.944581292275274 M-68.78754086025927 -12.21193895166136 C-68.59433160649253 -12.387406483895592, -68.40112235272579 -12.562874016129824, -67.98082022023242 -12.944581292275274 M-67.98082022023242 -12.944581292275274 C-67.72184221813136 -13.151109357256797, -67.46286421603031 -13.357637422238318, -67.12881651835067 -13.624031571755259 M-67.98082022023242 -12.944581292275274 C-67.7645183142309 -13.117076306276031, -67.54821640822937 -13.289571320276787, -67.12881651835067 -13.624031571755259 M-67.12881651835067 -13.624031571755259 C-66.90372695189706 -13.781044309343015, -66.67863738544345 -13.938057046930771, -66.23503082057934 -14.247497783161284 M-67.12881651835067 -13.624031571755259 C-66.81024486898478 -13.84625336360847, -66.4916732196189 -14.068475155461682, -66.23503082057934 -14.247497783161284 M-66.23503082057934 -14.247497783161284 C-65.90093038199436 -14.450031432423609, -65.56682994340939 -14.652565081685934, -65.30313588406695 -14.812417970097618 M-66.23503082057934 -14.247497783161284 C-65.96071778222904 -14.413787959051584, -65.68640474387874 -14.580078134941886, -65.30313588406695 -14.812417970097618 M-65.30313588406695 -14.812417970097618 C-65.10770997524645 -14.914371541553006, -64.91228406642594 -15.016325113008394, -64.33696106499849 -15.316470754341124 M-65.30313588406695 -14.812417970097618 C-64.94320951208614 -15.000191327816161, -64.58328314010534 -15.187964685534702, -64.33696106499849 -15.316470754341124 M-64.33696106499849 -15.316470754341124 C-63.99911587571499 -15.466024797815466, -63.661270686431486 -15.615578841289807, -63.34047658294937 -15.757584874882365 M-64.33696106499849 -15.316470754341124 C-64.07361322524787 -15.43304703106262, -63.81026538549723 -15.549623307784115, -63.34047658294937 -15.757584874882365 M-63.34047658294937 -15.757584874882365 C-63.02509764504062 -15.873647239363732, -62.709718707131856 -15.989709603845098, -62.317777206401566 -16.133947699181363 M-63.34047658294937 -15.757584874882365 C-63.03987309890763 -15.868209735757874, -62.739269614865876 -15.978834596633382, -62.317777206401566 -16.133947699181363 M-62.317777206401566 -16.133947699181363 C-62.07219154965476 -16.206836232998395, -61.82660589290796 -16.279724766815427, -61.27306542646164 -16.444012671663494 M-62.317777206401566 -16.133947699181363 C-62.0495997451556 -16.213541361986948, -61.78142228390962 -16.29313502479253, -61.27306542646164 -16.444012671663494 M-61.27306542646164 -16.444012671663494 C-61.0576884092775 -16.49317107036939, -60.842311392093364 -16.542329469075284, -60.21063418792333 -16.68650566884811 M-61.27306542646164 -16.444012671663494 C-60.953608653664084 -16.516926595404275, -60.63415188086652 -16.589840519145056, -60.21063418792333 -16.68650566884811 M-60.21063418792333 -16.68650566884811 C-59.93908404022035 -16.73040779082588, -59.667533892517376 -16.774309912803652, -59.13484924863661 -16.86043023499518 M-60.21063418792333 -16.68650566884811 C-59.825570620283955 -16.748759760251478, -59.44050705264457 -16.81101385165485, -59.13484924863661 -16.86043023499518 M-59.13484924863661 -16.86043023499518 C-58.71883910016835 -16.90056223369251, -58.30282895170009 -16.94069423238984, -58.05013123967212 -16.965071676755716 M-59.13484924863661 -16.86043023499518 C-58.727793114780994 -16.899698450671607, -58.320736980925375 -16.938966666348033, -58.05013123967212 -16.965071676755716 M-58.05013123967212 -16.965071676755716 C-57.71746010008415 -16.975739792697212, -57.384788960496195 -16.986407908638707, -56.96093750000001 -17 M-58.05013123967212 -16.965071676755716 C-57.771108908425866 -16.974019379834765, -57.49208657717962 -16.98296708291381, -56.96093750000001 -17 M-56.96093750000001 -17 C-56.96093750000001 -17, -56.9609375 -17, -56.9609375 -17 M-56.96093750000001 -17 C-56.96093750000001 -17, -56.96093750000001 -17, -56.9609375 -17" stroke="#9370DB" stroke-width="1.3" fill="none" stroke-dasharray="0 0" style=""></path></g><g class="label" style="" transform="translate(0, -9.5)"><rect></rect><g><rect class="background" style="stroke: none"></rect><text y="-10.1" style=""><tspan class="text-outer-tspan row" x="0" y="-0.1em" dy="1.1em"><tspan font-style="normal" class="text-inner-tspan" font-weight="normal">Pick</tspan><tspan font-style="normal" class="text-inner-tspan" font-weight="normal"> an</tspan><tspan font-style="normal" class="text-inner-tspan" font-weight="normal"> algorithm</tspan></tspan></text></g></g></g><g class="node default" id="g54ea4802-63d3-4044-ab08-ea1c798cd1b9-light-flowchart-Q1-2" data-look="classic" transform="translate(513.6171875, 208.4046859741211)"><polygon points="116.4046859741211,0 232.8093719482422,-116.4046859741211 116.4046859741211,-232.8093719482422 0,-116.4046859741211" class="label-container" transform="translate(-115.9046859741211, 116.4046859741211)"></polygon><g class="label" style="" transform="translate(0, -27.099998474121094)"><rect></rect><g><rect class="background" style="stroke: none"></rect><text y="-10.1" style=""><tspan class="text-outer-tspan row" x="0" y="-0.1em" dy="1.1em"><tspan font-style="normal" class="text-inner-tspan" font-weight="normal">Need</tspan><tspan font-style="normal" class="text-inner-tspan" font-weight="normal"> session</tspan><tspan font-style="normal" class="text-inner-tspan" font-weight="normal"> affinity</tspan></tspan><tspan class="text-outer-tspan row" x="0" y="1em" dy="1.1em"><tspan font-style="normal" class="text-inner-tspan" font-weight="normal">by</tspan><tspan font-style="normal" class="text-inner-tspan" font-weight="normal"> key</tspan><tspan font-style="normal" class="text-inner-tspan" font-weight="normal"> —</tspan><tspan font-style="normal" class="text-inner-tspan" font-weight="normal"> user</tspan><tspan font-style="normal" class="text-inner-tspan" font-weight="normal"> id,</tspan></tspan><tspan class="text-outer-tspan row" x="0" y="2.1em" dy="1.1em"><tspan font-style="normal" class="text-inner-tspan" font-weight="normal">cache</tspan><tspan font-style="normal" class="text-inner-tspan" font-weight="normal"> key,</tspan><tspan font-style="normal" class="text-inner-tspan" font-weight="normal"> tenant?</tspan></tspan></text></g></g></g><g class="node default" id="g54ea4802-63d3-4044-ab08-ea1c798cd1b9-light-flowchart-Hash-4" data-look="classic" transform="translate(259.70703125, 506.71875)"><polygon points="96.6015625,0 193.203125,-96.6015625 96.6015625,-193.203125 0,-96.6015625" class="label-container" transform="translate(-96.1015625, 96.6015625)"></polygon><g class="label" style="" transform="translate(0, -9.5)"><rect></rect><g><rect class="background" style="stroke: none"></rect><text y="-10.1" style=""><tspan class="text-outer-tspan row" x="0" y="-0.1em" dy="1.1em"><tspan font-style="normal" class="text-inner-tspan" font-weight="normal">Pool</tspan><tspan font-style="normal" class="text-inner-tspan" font-weight="normal"> size</tspan><tspan font-style="normal" class="text-inner-tspan" font-weight="normal"> and</tspan><tspan font-style="normal" class="text-inner-tspan" font-weight="normal"> churn?</tspan></tspan></text></g></g></g><g class="node default" id="g54ea4802-63d3-4044-ab08-ea1c798cd1b9-light-flowchart-Ring-6" data-look="classic" transform="translate(122.765625, 764.7906265258789)"><rect class="basic label-container" style="" x="-114.765625" y="-42.099998474121094" width="229.53125" height="84.19999694824219"></rect><g class="label" style="" transform="translate(0, -27.099998474121094)"><rect></rect><g><rect class="background" style="stroke: none"></rect><text y="-10.1" style=""><tspan class="text-outer-tspan row" x="0" y="-0.1em" dy="1.1em"><tspan font-style="normal" class="text-inner-tspan" font-weight="normal">Ring</tspan><tspan font-style="normal" class="text-inner-tspan" font-weight="normal"> consistent</tspan><tspan font-style="normal" class="text-inner-tspan" font-weight="normal"> hash</tspan></tspan><tspan class="text-outer-tspan row" x="0" y="1em" dy="1.1em"><tspan font-style="normal" class="text-inner-tspan" font-weight="normal">e.g.</tspan><tspan font-style="normal" class="text-inner-tspan" font-weight="normal"> Ketama,</tspan><tspan font-style="normal" class="text-inner-tspan" font-weight="normal"> Cassandra</tspan></tspan><tspan class="text-outer-tspan row" x="0" y="2.1em" dy="1.1em"><tspan font-style="normal" class="text-inner-tspan" font-weight="normal">vnodes</tspan></tspan></text></g></g></g><g class="node default" id="g54ea4802-63d3-4044-ab08-ea1c798cd1b9-light-flowchart-Maglev-8" data-look="classic" transform="translate(396.6484375, 764.7906265258789)"><rect class="basic label-container" style="" x="-109.1171875" y="-42.099998474121094" width="218.234375" height="84.19999694824219"></rect><g class="label" style="" transform="translate(0, -27.099998474121094)"><rect></rect><g><rect class="background" style="stroke: none"></rect><text y="-10.1" style=""><tspan class="text-outer-tspan row" x="0" y="-0.1em" dy="1.1em"><tspan font-style="normal" class="text-inner-tspan" font-weight="normal">Maglev</tspan><tspan font-style="normal" class="text-inner-tspan" font-weight="normal"> hash</tspan></tspan><tspan class="text-outer-tspan row" x="0" y="1em" dy="1.1em"><tspan font-style="normal" class="text-inner-tspan" font-weight="normal">e.g.</tspan><tspan font-style="normal" class="text-inner-tspan" font-weight="normal"> Envoy,</tspan><tspan font-style="normal" class="text-inner-tspan" font-weight="normal"> Cloudflare</tspan></tspan><tspan class="text-outer-tspan row" x="0" y="2.1em" dy="1.1em"><tspan font-style="normal" class="text-inner-tspan" font-weight="normal">Unimog</tspan></tspan></text></g></g></g><g class="node default" id="g54ea4802-63d3-4044-ab08-ea1c798cd1b9-light-flowchart-Q2-10" data-look="classic" transform="translate(790.15234375, 506.71875)"><polygon points="108.90937423706055,0 217.8187484741211,-108.90937423706055 108.90937423706055,-217.8187484741211 0,-108.90937423706055" class="label-container" transform="translate(-108.40937423706055, 108.90937423706055)"></polygon><g class="label" style="" transform="translate(0, -18.299999237060547)"><rect></rect><g><rect class="background" style="stroke: none"></rect><text y="-10.1" style=""><tspan class="text-outer-tspan row" x="0" y="-0.1em" dy="1.1em"><tspan font-style="normal" class="text-inner-tspan" font-weight="normal">Variable</tspan><tspan font-style="normal" class="text-inner-tspan" font-weight="normal"> request</tspan><tspan font-style="normal" class="text-inner-tspan" font-weight="normal"> cost</tspan></tspan><tspan class="text-outer-tspan row" x="0" y="1em" dy="1.1em"><tspan font-style="normal" class="text-inner-tspan" font-weight="normal">or</tspan><tspan font-style="normal" class="text-inner-tspan" font-weight="normal"> backend</tspan><tspan font-style="normal" class="text-inner-tspan" font-weight="normal"> capacity?</tspan></tspan></text></g></g></g><g class="node default" id="g54ea4802-63d3-4044-ab08-ea1c798cd1b9-light-flowchart-RR-12" data-look="classic" transform="translate(675.8359375, 764.7906265258789)"><rect class="basic label-container" style="" x="-120.0703125" y="-42.099998474121094" width="240.140625" height="84.19999694824219"></rect><g class="label" style="" transform="translate(0, -27.099998474121094)"><rect></rect><g><rect class="background" style="stroke: none"></rect><text y="-10.1" style=""><tspan class="text-outer-tspan row" x="0" y="-0.1em" dy="1.1em"><tspan font-style="normal" class="text-inner-tspan" font-weight="normal">Round</tspan><tspan font-style="normal" class="text-inner-tspan" font-weight="normal"> robin</tspan></tspan><tspan class="text-outer-tspan row" x="0" y="1em" dy="1.1em"><tspan font-style="normal" class="text-inner-tspan" font-weight="normal">weighted</tspan><tspan font-style="normal" class="text-inner-tspan" font-weight="normal"> RR</tspan><tspan font-style="normal" class="text-inner-tspan" font-weight="normal"> for</tspan><tspan font-style="normal" class="text-inner-tspan" font-weight="normal"> capacity</tspan></tspan><tspan class="text-outer-tspan row" x="0" y="2.1em" dy="1.1em"><tspan font-style="normal" class="text-inner-tspan" font-weight="normal">tiers</tspan></tspan></text></g></g></g><g class="node default" id="g54ea4802-63d3-4044-ab08-ea1c798cd1b9-light-flowchart-Q3-14" data-look="classic" transform="translate(904.46875, 764.7906265258789)"><polygon points="58.5625,0 117.125,-58.5625 58.5625,-117.125 0,-58.5625" class="label-container" transform="translate(-58.0625, 58.5625)"></polygon><g class="label" style="" transform="translate(0, -9.5)"><rect></rect><g><rect class="background" style="stroke: none"></rect><text y="-10.1" style=""><tspan class="text-outer-tspan row" x="0" y="-0.1em" dy="1.1em"><tspan font-style="normal" class="text-inner-tspan" font-weight="normal">Pool</tspan><tspan font-style="normal" class="text-inner-tspan" font-weight="normal"> size?</tspan></tspan></text></g></g></g><g class="node default" id="g54ea4802-63d3-4044-ab08-ea1c798cd1b9-light-flowchart-LC-16" data-look="classic" transform="translate(754.44921875, 956.0531234741211)"><rect class="basic label-container" style="" x="-120.4765625" y="-42.099998474121094" width="240.953125" height="84.19999694824219"></rect><g class="label" style="" transform="translate(0, -27.099998474121094)"><rect></rect><g><rect class="background" style="stroke: none"></rect><text y="-10.1" style=""><tspan class="text-outer-tspan row" x="0" y="-0.1em" dy="1.1em"><tspan font-style="normal" class="text-inner-tspan" font-weight="normal">Least</tspan><tspan font-style="normal" class="text-inner-tspan" font-weight="normal"> connections</tspan><tspan font-style="normal" class="text-inner-tspan" font-weight="normal"> /</tspan><tspan font-style="normal" class="text-inner-tspan" font-weight="normal"> least</tspan></tspan><tspan class="text-outer-tspan row" x="0" y="1em" dy="1.1em"><tspan font-style="normal" class="text-inner-tspan" font-weight="normal">requests</tspan></tspan><tspan class="text-outer-tspan row" x="0" y="2.1em" dy="1.1em"><tspan font-style="normal" class="text-inner-tspan" font-weight="normal">e.g.</tspan><tspan font-style="normal" class="text-inner-tspan" font-weight="normal"> HAProxy</tspan><tspan font-style="normal" class="text-inner-tspan" font-weight="normal"> leastconn</tspan></tspan></text></g></g></g><g class="node default" id="g54ea4802-63d3-4044-ab08-ea1c798cd1b9-light-flowchart-P2C-18" data-look="classic" transform="translate(1054.48828125, 956.0531234741211)"><rect class="basic label-container" style="" x="-129.5625" y="-42.099998474121094" width="259.125" height="84.19999694824219"></rect><g class="label" style="" transform="translate(0, -27.099998474121094)"><rect></rect><g><rect class="background" style="stroke: none"></rect><text y="-10.1" style=""><tspan class="text-outer-tspan row" x="0" y="-0.1em" dy="1.1em"><tspan font-style="normal" class="text-inner-tspan" font-weight="normal">Power</tspan><tspan font-style="normal" class="text-inner-tspan" font-weight="normal"> of</tspan><tspan font-style="normal" class="text-inner-tspan" font-weight="normal"> two</tspan><tspan font-style="normal" class="text-inner-tspan" font-weight="normal"> choices</tspan></tspan><tspan class="text-outer-tspan row" x="0" y="1em" dy="1.1em"><tspan font-style="normal" class="text-inner-tspan" font-weight="normal">e.g.</tspan><tspan font-style="normal" class="text-inner-tspan" font-weight="normal"> Envoy</tspan><tspan font-style="normal" class="text-inner-tspan" font-weight="normal"> LEAST_REQUEST,</tspan></tspan><tspan class="text-outer-tspan row" x="0" y="2.1em" dy="1.1em"><tspan font-style="normal" class="text-inner-tspan" font-weight="normal">Netflix</tspan><tspan font-style="normal" class="text-inner-tspan" font-weight="normal"> Zuul</tspan><tspan font-style="normal" class="text-inner-tspan" font-weight="normal"> Choice-of-2</tspan></tspan></text></g></g></g></g></g></g><defs><filter id="g54ea4802-63d3-4044-ab08-ea1c798cd1b9-light-drop-shadow" height="130%" width="130%"><feDropShadow dx="4" dy="4" stdDeviation="0" flood-opacity="0.06" flood-color="#000000"></feDropShadow></filter></defs><defs><filter id="g54ea4802-63d3-4044-ab08-ea1c798cd1b9-light-drop-shadow-small" height="150%" width="150%"><feDropShadow dx="2" dy="2" stdDeviation="0" flood-opacity="0.06" flood-color="#000000"></feDropShadow></filter></defs></svg>