<svg id="gd836d08e-00be-4445-a494-6f03ed0e3267-dark" width="100%" xmlns="http://www.w3.org/2000/svg" xmlns:xlink="http://www.w3.org/1999/xlink" class="flowchart" style="max-width: 927.9710693359375px;" viewBox="0 0 927.9710693359375 1318.481201171875" role="graphics-document document" aria-roledescription="flowchart-v2"><style>#gd836d08e-00be-4445-a494-6f03ed0e3267-dark{font-family:"trebuchet ms",verdana,arial,sans-serif;font-size:16px;fill:#e5e5e5;}@keyframes edge-animation-frame{from{stroke-dashoffset:0;}}@keyframes dash{to{stroke-dashoffset:0;}}#gd836d08e-00be-4445-a494-6f03ed0e3267-dark .edge-animation-slow{stroke-dasharray:9,5!important;stroke-dashoffset:900;animation:dash 50s linear infinite;stroke-linecap:round;}#gd836d08e-00be-4445-a494-6f03ed0e3267-dark .edge-animation-fast{stroke-dasharray:9,5!important;stroke-dashoffset:900;animation:dash 20s linear infinite;stroke-linecap:round;}#gd836d08e-00be-4445-a494-6f03ed0e3267-dark .error-icon{fill:#252525;}#gd836d08e-00be-4445-a494-6f03ed0e3267-dark .error-text{fill:#cccccc;stroke:#cccccc;}#gd836d08e-00be-4445-a494-6f03ed0e3267-dark .edge-thickness-normal{stroke-width:1px;}#gd836d08e-00be-4445-a494-6f03ed0e3267-dark .edge-thickness-thick{stroke-width:3.5px;}#gd836d08e-00be-4445-a494-6f03ed0e3267-dark .edge-pattern-solid{stroke-dasharray:0;}#gd836d08e-00be-4445-a494-6f03ed0e3267-dark .edge-thickness-invisible{stroke-width:0;fill:none;}#gd836d08e-00be-4445-a494-6f03ed0e3267-dark .edge-pattern-dashed{stroke-dasharray:3;}#gd836d08e-00be-4445-a494-6f03ed0e3267-dark .edge-pattern-dotted{stroke-dasharray:2;}#gd836d08e-00be-4445-a494-6f03ed0e3267-dark .marker{fill:#cccccc;stroke:#cccccc;}#gd836d08e-00be-4445-a494-6f03ed0e3267-dark .marker.cross{stroke:#cccccc;}#gd836d08e-00be-4445-a494-6f03ed0e3267-dark svg{font-family:"trebuchet ms",verdana,arial,sans-serif;font-size:16px;}#gd836d08e-00be-4445-a494-6f03ed0e3267-dark p{margin:0;}#gd836d08e-00be-4445-a494-6f03ed0e3267-dark .label{font-family:"trebuchet ms",verdana,arial,sans-serif;color:#e5e5e5;}#gd836d08e-00be-4445-a494-6f03ed0e3267-dark .cluster-label text{fill:#e5e5e5;}#gd836d08e-00be-4445-a494-6f03ed0e3267-dark .cluster-label span{color:#e5e5e5;}#gd836d08e-00be-4445-a494-6f03ed0e3267-dark .cluster-label span p{background-color:transparent;}#gd836d08e-00be-4445-a494-6f03ed0e3267-dark .label text,#gd836d08e-00be-4445-a494-6f03ed0e3267-dark span{fill:#e5e5e5;color:#e5e5e5;}#gd836d08e-00be-4445-a494-6f03ed0e3267-dark .node rect,#gd836d08e-00be-4445-a494-6f03ed0e3267-dark .node circle,#gd836d08e-00be-4445-a494-6f03ed0e3267-dark .node ellipse,#gd836d08e-00be-4445-a494-6f03ed0e3267-dark .node polygon,#gd836d08e-00be-4445-a494-6f03ed0e3267-dark .node path{fill:#2d2d2d;stroke:#555555;stroke-width:1px;}#gd836d08e-00be-4445-a494-6f03ed0e3267-dark .rough-node .label text,#gd836d08e-00be-4445-a494-6f03ed0e3267-dark .node .label text,#gd836d08e-00be-4445-a494-6f03ed0e3267-dark .image-shape .label,#gd836d08e-00be-4445-a494-6f03ed0e3267-dark .icon-shape .label{text-anchor:middle;}#gd836d08e-00be-4445-a494-6f03ed0e3267-dark .node .katex path{fill:#000;stroke:#000;stroke-width:1px;}#gd836d08e-00be-4445-a494-6f03ed0e3267-dark .rough-node .label,#gd836d08e-00be-4445-a494-6f03ed0e3267-dark .node .label,#gd836d08e-00be-4445-a494-6f03ed0e3267-dark .image-shape .label,#gd836d08e-00be-4445-a494-6f03ed0e3267-dark .icon-shape .label{text-align:center;}#gd836d08e-00be-4445-a494-6f03ed0e3267-dark .node.clickable{cursor:pointer;}#gd836d08e-00be-4445-a494-6f03ed0e3267-dark .root .anchor path{fill:#cccccc!important;stroke-width:0;stroke:#cccccc;}#gd836d08e-00be-4445-a494-6f03ed0e3267-dark .arrowheadPath{fill:#cccccc;}#gd836d08e-00be-4445-a494-6f03ed0e3267-dark .edgePath .path{stroke:#cccccc;stroke-width:1px;}#gd836d08e-00be-4445-a494-6f03ed0e3267-dark .flowchart-link{stroke:#cccccc;fill:none;}#gd836d08e-00be-4445-a494-6f03ed0e3267-dark .edgeLabel{background-color:#1e1e1e;text-align:center;}#gd836d08e-00be-4445-a494-6f03ed0e3267-dark .edgeLabel p{background-color:#1e1e1e;}#gd836d08e-00be-4445-a494-6f03ed0e3267-dark .edgeLabel rect{opacity:0.5;background-color:#1e1e1e;fill:#1e1e1e;}#gd836d08e-00be-4445-a494-6f03ed0e3267-dark .labelBkg{background-color:rgba(30, 30, 30, 0.5);}#gd836d08e-00be-4445-a494-6f03ed0e3267-dark .cluster rect{fill:#1e1e1e;stroke:#555555;stroke-width:1px;}#gd836d08e-00be-4445-a494-6f03ed0e3267-dark .cluster text{fill:#e5e5e5;}#gd836d08e-00be-4445-a494-6f03ed0e3267-dark .cluster span{color:#e5e5e5;}#gd836d08e-00be-4445-a494-6f03ed0e3267-dark div.mermaidTooltip{position:absolute;text-align:center;max-width:200px;padding:2px;font-family:"trebuchet ms",verdana,arial,sans-serif;font-size:12px;background:#252525;border:1px solid #555555;border-radius:2px;pointer-events:none;z-index:100;}#gd836d08e-00be-4445-a494-6f03ed0e3267-dark .flowchartTitleText{text-anchor:middle;font-size:18px;fill:#e5e5e5;}#gd836d08e-00be-4445-a494-6f03ed0e3267-dark rect.text{fill:none;stroke-width:0;}#gd836d08e-00be-4445-a494-6f03ed0e3267-dark .icon-shape,#gd836d08e-00be-4445-a494-6f03ed0e3267-dark .image-shape{background-color:#1e1e1e;text-align:center;}#gd836d08e-00be-4445-a494-6f03ed0e3267-dark .icon-shape p,#gd836d08e-00be-4445-a494-6f03ed0e3267-dark .image-shape p{background-color:#1e1e1e;padding:2px;}#gd836d08e-00be-4445-a494-6f03ed0e3267-dark .icon-shape .label rect,#gd836d08e-00be-4445-a494-6f03ed0e3267-dark .image-shape .label rect{opacity:0.5;background-color:#1e1e1e;fill:#1e1e1e;}#gd836d08e-00be-4445-a494-6f03ed0e3267-dark .label-icon{display:inline-block;height:1em;overflow:visible;vertical-align:-0.125em;}#gd836d08e-00be-4445-a494-6f03ed0e3267-dark .node .label-icon path{fill:currentColor;stroke:revert;stroke-width:revert;}#gd836d08e-00be-4445-a494-6f03ed0e3267-dark .node .neo-node{stroke:#555555;}#gd836d08e-00be-4445-a494-6f03ed0e3267-dark [data-look="neo"].node rect,#gd836d08e-00be-4445-a494-6f03ed0e3267-dark [data-look="neo"].cluster rect,#gd836d08e-00be-4445-a494-6f03ed0e3267-dark [data-look="neo"].node polygon{stroke:url(#gd836d08e-00be-4445-a494-6f03ed0e3267-dark-gradient);filter:drop-shadow( 1px 2px 2px rgba(185,185,185,1));}#gd836d08e-00be-4445-a494-6f03ed0e3267-dark [data-look="neo"].node path{stroke:url(#gd836d08e-00be-4445-a494-6f03ed0e3267-dark-gradient);stroke-width:1px;}#gd836d08e-00be-4445-a494-6f03ed0e3267-dark [data-look="neo"].node .outer-path{filter:drop-shadow( 1px 2px 2px rgba(185,185,185,1));}#gd836d08e-00be-4445-a494-6f03ed0e3267-dark [data-look="neo"].node .neo-line path{stroke:#555555;filter:none;}#gd836d08e-00be-4445-a494-6f03ed0e3267-dark [data-look="neo"].node circle{stroke:url(#gd836d08e-00be-4445-a494-6f03ed0e3267-dark-gradient);filter:drop-shadow( 1px 2px 2px rgba(185,185,185,1));}#gd836d08e-00be-4445-a494-6f03ed0e3267-dark [data-look="neo"].node circle .state-start{fill:#000000;}#gd836d08e-00be-4445-a494-6f03ed0e3267-dark [data-look="neo"].icon-shape .icon{fill:url(#gd836d08e-00be-4445-a494-6f03ed0e3267-dark-gradient);filter:drop-shadow( 1px 2px 2px rgba(185,185,185,1));}#gd836d08e-00be-4445-a494-6f03ed0e3267-dark [data-look="neo"].icon-shape .icon-neo path{stroke:url(#gd836d08e-00be-4445-a494-6f03ed0e3267-dark-gradient);filter:drop-shadow( 1px 2px 2px rgba(185,185,185,1));}#gd836d08e-00be-4445-a494-6f03ed0e3267-dark :root{--mermaid-font-family:"trebuchet ms",verdana,arial,sans-serif;}</style><g><marker id="gd836d08e-00be-4445-a494-6f03ed0e3267-dark_flowchart-v2-pointEnd" class="marker flowchart-v2" viewBox="0 0 10 10" refX="5" refY="5" markerUnits="userSpaceOnUse" markerWidth="8" markerHeight="8" orient="auto"><path d="M 0 0 L 10 5 L 0 10 z" class="arrowMarkerPath" style="stroke-width: 1; stroke-dasharray: 1, 0;"></path></marker><marker id="gd836d08e-00be-4445-a494-6f03ed0e3267-dark_flowchart-v2-pointStart" class="marker flowchart-v2" viewBox="0 0 10 10" refX="4.5" refY="5" markerUnits="userSpaceOnUse" markerWidth="8" markerHeight="8" orient="auto"><path d="M 0 5 L 10 10 L 10 0 z" class="arrowMarkerPath" style="stroke-width: 1; stroke-dasharray: 1, 0;"></path></marker><marker id="gd836d08e-00be-4445-a494-6f03ed0e3267-dark_flowchart-v2-pointEnd-margin" class="marker flowchart-v2" viewBox="0 0 11.5 14" refX="11.5" refY="7" markerUnits="userSpaceOnUse" markerWidth="10.5" markerHeight="14" orient="auto"><path d="M 0 0 L 11.5 7 L 0 14 z" class="arrowMarkerPath" style="stroke-width: 0; stroke-dasharray: 1, 0;"></path></marker><marker id="gd836d08e-00be-4445-a494-6f03ed0e3267-dark_flowchart-v2-pointStart-margin" class="marker flowchart-v2" viewBox="0 0 11.5 14" refX="1" refY="7" markerUnits="userSpaceOnUse" markerWidth="11.5" markerHeight="14" orient="auto"><polygon points="0,7 11.5,14 11.5,0" class="arrowMarkerPath" style="stroke-width: 0; stroke-dasharray: 1, 0;"></polygon></marker><marker id="gd836d08e-00be-4445-a494-6f03ed0e3267-dark_flowchart-v2-circleEnd" class="marker flowchart-v2" viewBox="0 0 10 10" refX="11" refY="5" markerUnits="userSpaceOnUse" markerWidth="11" markerHeight="11" orient="auto"><circle cx="5" cy="5" r="5" class="arrowMarkerPath" style="stroke-width: 1; stroke-dasharray: 1, 0;"></circle></marker><marker id="gd836d08e-00be-4445-a494-6f03ed0e3267-dark_flowchart-v2-circleStart" class="marker flowchart-v2" viewBox="0 0 10 10" refX="-1" refY="5" markerUnits="userSpaceOnUse" markerWidth="11" markerHeight="11" orient="auto"><circle cx="5" cy="5" r="5" class="arrowMarkerPath" style="stroke-width: 1; stroke-dasharray: 1, 0;"></circle></marker><marker id="gd836d08e-00be-4445-a494-6f03ed0e3267-dark_flowchart-v2-circleEnd-margin" class="marker flowchart-v2" viewBox="0 0 10 10" refY="5" refX="12.25" markerUnits="userSpaceOnUse" markerWidth="14" markerHeight="14" orient="auto"><circle cx="5" cy="5" r="5" class="arrowMarkerPath" style="stroke-width: 0; stroke-dasharray: 1, 0;"></circle></marker><marker id="gd836d08e-00be-4445-a494-6f03ed0e3267-dark_flowchart-v2-circleStart-margin" class="marker flowchart-v2" viewBox="0 0 10 10" refX="-2" refY="5" markerUnits="userSpaceOnUse" markerWidth="14" markerHeight="14" orient="auto"><circle cx="5" cy="5" r="5" class="arrowMarkerPath" style="stroke-width: 0; stroke-dasharray: 1, 0;"></circle></marker><marker id="gd836d08e-00be-4445-a494-6f03ed0e3267-dark_flowchart-v2-crossEnd" class="marker cross flowchart-v2" viewBox="0 0 11 11" refX="12" refY="5.2" markerUnits="userSpaceOnUse" markerWidth="11" markerHeight="11" orient="auto"><path d="M 1,1 l 9,9 M 10,1 l -9,9" class="arrowMarkerPath" style="stroke-width: 2; stroke-dasharray: 1, 0;"></path></marker><marker id="gd836d08e-00be-4445-a494-6f03ed0e3267-dark_flowchart-v2-crossStart" class="marker cross flowchart-v2" viewBox="0 0 11 11" refX="-1" refY="5.2" markerUnits="userSpaceOnUse" markerWidth="11" markerHeight="11" orient="auto"><path d="M 1,1 l 9,9 M 10,1 l -9,9" class="arrowMarkerPath" style="stroke-width: 2; stroke-dasharray: 1, 0;"></path></marker><marker id="gd836d08e-00be-4445-a494-6f03ed0e3267-dark_flowchart-v2-crossEnd-margin" class="marker cross flowchart-v2" viewBox="0 0 15 15" refX="17.7" refY="7.5" markerUnits="userSpaceOnUse" markerWidth="12" markerHeight="12" orient="auto"><path d="M 1,1 L 14,14 M 1,14 L 14,1" class="arrowMarkerPath" style="stroke-width: 2.5;"></path></marker><marker id="gd836d08e-00be-4445-a494-6f03ed0e3267-dark_flowchart-v2-crossStart-margin" class="marker cross flowchart-v2" viewBox="0 0 15 15" refX="-3.5" refY="7.5" markerUnits="userSpaceOnUse" markerWidth="12" markerHeight="12" orient="auto"><path d="M 1,1 L 14,14 M 1,14 L 14,1" class="arrowMarkerPath" style="stroke-width: 2.5; stroke-dasharray: 1, 0;"></path></marker><g class="root"><g class="clusters"></g><g class="edgePaths"><path d="M276.584,60.1L276.5,64.183C276.417,68.267,276.25,76.433,276.167,84.017C276.084,91.6,276.084,98.6,276.084,102.1L276.084,105.6" id="gd836d08e-00be-4445-a494-6f03ed0e3267-dark-L_Start_Mut_0" class="edge-thickness-normal edge-pattern-solid edge-thickness-normal edge-pattern-solid flowchart-link" style=";" data-edge="true" data-et="edge" data-id="L_Start_Mut_0" data-points="W3sieCI6Mjc2LjU4MzU5NTI3NTg3ODksInkiOjYwLjA5OTk5ODQ3NDEyMTA3fSx7IngiOjI3Ni4wODM1OTUyNzU4Nzg5LCJ5Ijo4NC41OTk5OTg0NzQxMjExfSx7IngiOjI3Ni4wODM1OTUyNzU4Nzg5LCJ5IjoxMDkuNTk5OTk4NDc0MTIxMDh9XQ==" data-look="classic" marker-end="url(#gd836d08e-00be-4445-a494-6f03ed0e3267-dark_flowchart-v2-pointEnd)"></path><path d="M224.064,265.024L209.22,279.777C194.376,294.531,164.688,324.037,149.844,354.718C135,385.399,135,417.255,135,433.183L135,449.111" id="gd836d08e-00be-4445-a494-6f03ed0e3267-dark-L_Mut_NetOnly_0" class="edge-thickness-normal edge-pattern-solid edge-thickness-normal edge-pattern-solid flowchart-link" style=";" data-edge="true" data-et="edge" data-id="L_Mut_NetOnly_0" data-points="W3sieCI6MjI0LjA2Mzc5NDEyNjI1MTY1LCJ5IjoyNjUuMDIzOTM4MTY5MjIwNH0seyJ4IjoxMzUsInkiOjM1My41NDM3MzkzMTg4NDc2Nn0seyJ4IjoxMzUsInkiOjQ1My4xMTA5MzEzOTY0ODQ0fV0=" data-look="classic" marker-end="url(#gd836d08e-00be-4445-a494-6f03ed0e3267-dark_flowchart-v2-pointEnd)"></path><path d="M328.103,265.024L342.947,279.777C357.791,294.531,387.479,324.037,402.323,344.207C417.167,364.377,417.167,375.21,417.167,380.627L417.167,386.044" id="gd836d08e-00be-4445-a494-6f03ed0e3267-dark-L_Mut_Vers_0" class="edge-thickness-normal edge-pattern-solid edge-thickness-normal edge-pattern-solid flowchart-link" style=";" data-edge="true" data-et="edge" data-id="L_Mut_Vers_0" data-points="W3sieCI6MzI4LjEwMzM5NjQyNTUwNjIsInkiOjI2NS4wMjM5MzgxNjkyMjAzNH0seyJ4Ijo0MTcuMTY3MTkwNTUxNzU3OCwieSI6MzUzLjU0MzczOTMxODg0NzY2fSx7IngiOjQxNy4xNjcxOTA1NTE3NTc4LCJ5IjozOTAuMDQzNzM5MzE4ODQ3Nn1d" data-look="classic" marker-end="url(#gd836d08e-00be-4445-a494-6f03ed0e3267-dark_flowchart-v2-pointEnd)"></path><path d="M370.88,554.091L360.033,567.889C349.186,581.687,327.492,609.282,316.645,637.665C305.798,666.047,305.798,695.217,305.798,709.801L305.798,724.386" id="gd836d08e-00be-4445-a494-6f03ed0e3267-dark-L_Vers_CacheFirst_0" class="edge-thickness-normal edge-pattern-solid edge-thickness-normal edge-pattern-solid flowchart-link" style=";" data-edge="true" data-et="edge" data-id="L_Vers_CacheFirst_0" data-points="W3sieCI6MzcwLjg3OTkzNzM3NzEwODQzLCJ5Ijo1NTQuMDkwODY3MjQ3NzE0fSx7IngiOjMwNS43OTg0MzkwMjU4Nzg5LCJ5Ijo2MzYuODc4MTIwNDIyMzYzM30seyJ4IjozMDUuNzk4NDM5MDI1ODc4OSwieSI6NzI4LjM4NTkzNjczNzA2MDV9XQ==" data-look="classic" marker-end="url(#gd836d08e-00be-4445-a494-6f03ed0e3267-dark_flowchart-v2-pointEnd)"></path><path d="M463.454,554.091L474.301,567.889C485.148,581.687,506.842,609.282,517.689,628.497C528.536,647.711,528.536,658.545,528.536,663.961L528.536,669.378" id="gd836d08e-00be-4445-a494-6f03ed0e3267-dark-L_Vers_Stale_0" class="edge-thickness-normal edge-pattern-solid edge-thickness-normal edge-pattern-solid flowchart-link" style=";" data-edge="true" data-et="edge" data-id="L_Vers_Stale_0" data-points="W3sieCI6NDYzLjQ1NDQ0MzcyNjQwNzIsInkiOjU1NC4wOTA4NjcyNDc3MTR9LHsieCI6NTI4LjUzNTk0MjA3NzYzNjcsInkiOjYzNi44NzgxMjA0MjIzNjMzfSx7IngiOjUyOC41MzU5NDIwNzc2MzY3LCJ5Ijo2NzMuMzc4MTIwNDIyMzYzM31d" data-look="classic" marker-end="url(#gd836d08e-00be-4445-a494-6f03ed0e3267-dark_flowchart-v2-pointEnd)"></path><path d="M481.964,803.422L466.515,817.267C451.066,831.113,420.167,858.803,404.718,890.239C389.269,921.675,389.269,956.856,389.269,974.447L389.269,992.037" id="gd836d08e-00be-4445-a494-6f03ed0e3267-dark-L_Stale_SWR_0" class="edge-thickness-normal edge-pattern-solid edge-thickness-normal edge-pattern-solid flowchart-link" style=";" data-edge="true" data-et="edge" data-id="L_Stale_SWR_0" data-points="W3sieCI6NDgxLjk2NDM5NjYxMzI0MTEsInkiOjgwMy40MjIyMDYwNjE0ODMzfSx7IngiOjM4OS4yNjg3NTY4NjY0NTUxLCJ5Ijo4ODYuNDkzNzUxNTI1ODc4OX0seyJ4IjozODkuMjY4NzU2ODY2NDU1MSwieSI6OTk2LjAzNzQ5ODQ3NDEyMTF9XQ==" data-look="classic" marker-end="url(#gd836d08e-00be-4445-a494-6f03ed0e3267-dark_flowchart-v2-pointEnd)"></path><path d="M575.107,803.422L590.557,817.267C606.006,831.113,636.905,858.803,652.354,878.065C667.803,897.327,667.803,908.16,667.803,913.577L667.803,918.994" id="gd836d08e-00be-4445-a494-6f03ed0e3267-dark-L_Stale_Fresh_0" class="edge-thickness-normal edge-pattern-solid edge-thickness-normal edge-pattern-solid flowchart-link" style=";" data-edge="true" data-et="edge" data-id="L_Stale_Fresh_0" data-points="W3sieCI6NTc1LjEwNzQ4NzU0MjAzMjEsInkiOjgwMy40MjIyMDYwNjE0ODI5fSx7IngiOjY2Ny44MDMxMjcyODg4MTg0LCJ5Ijo4ODYuNDkzNzUxNTI1ODc4OX0seyJ4Ijo2NjcuODAzMTI3Mjg4ODE3OCwieSI6OTIyLjk5Mzc1MTUyNTg3OTR9XQ==" data-look="classic" marker-end="url(#gd836d08e-00be-4445-a494-6f03ed0e3267-dark_flowchart-v2-pointEnd)"></path><path d="M612.566,1098.044L598.468,1113.334C584.37,1128.623,556.175,1159.202,542.077,1179.908C527.979,1200.615,527.979,1211.448,527.979,1216.865L527.979,1222.281" id="gd836d08e-00be-4445-a494-6f03ed0e3267-dark-L_Fresh_NetFirst_0" class="edge-thickness-normal edge-pattern-solid edge-thickness-normal edge-pattern-solid flowchart-link" style=";" data-edge="true" data-et="edge" data-id="L_Fresh_NetFirst_0" data-points="W3sieCI6NjEyLjU2NTg5MjkyMTIzNjgsInkiOjEwOTguMDQ0MDA4MDAzMDIzfSx7IngiOjUyNy45Nzg5MDg1Mzg4MTg0LCJ5IjoxMTg5Ljc4MTI0MjM3MDYwNTV9LHsieCI6NTI3Ljk3ODkwODUzODgxODQsInkiOjEyMjYuMjgxMjQyMzcwNjA1NX1d" data-look="classic" marker-end="url(#gd836d08e-00be-4445-a494-6f03ed0e3267-dark_flowchart-v2-pointEnd)"></path><path d="M723.04,1098.044L737.138,1113.334C751.236,1128.623,779.432,1159.202,793.53,1181.375C807.627,1203.548,807.627,1217.315,807.627,1224.198L807.627,1231.081" id="gd836d08e-00be-4445-a494-6f03ed0e3267-dark-L_Fresh_CacheOnly_0" class="edge-thickness-normal edge-pattern-solid edge-thickness-normal edge-pattern-solid flowchart-link" style=";" data-edge="true" data-et="edge" data-id="L_Fresh_CacheOnly_0" data-points="W3sieCI6NzIzLjA0MDM2MTY1NjQwMDksInkiOjEwOTguMDQ0MDA4MDAzMDIzN30seyJ4Ijo4MDcuNjI3MzQ2MDM4ODE4NCwieSI6MTE4OS43ODEyNDIzNzA2MDU1fSx7IngiOjgwNy42MjczNDYwMzg4MTg0LCJ5IjoxMjM1LjA4MTI0MTYwNzY2Nn1d" data-look="classic" marker-end="url(#gd836d08e-00be-4445-a494-6f03ed0e3267-dark_flowchart-v2-pointEnd)"></path></g><g class="edgeLabels"><g class="edgeLabel"><g class="label" data-id="L_Start_Mut_0" transform="translate(0, 0)"><text y="-10.1" text-anchor="middle"><tspan class="text-outer-tspan row" x="0" y="-0.1em" dy="1.1em" text-anchor="middle"></tspan></text></g></g><g><rect class="background" style="stroke: none"></rect></g><g class="edgeLabel" transform="translate(135, 353.54373931884766)"><g class="label" data-id="L_Mut_NetOnly_0" transform="translate(0, -10.5)"><g><rect class="background" style="" x="-13.546875" y="-1" width="27.09375" height="23"></rect><text y="-10.1" text-anchor="middle" style=""><tspan class="text-outer-tspan row" x="0" y="-0.1em" dy="1.1em" text-anchor="middle"><tspan font-style="normal" class="text-inner-tspan" font-weight="normal">yes</tspan></tspan></text></g></g></g><g class="edgeLabel" transform="translate(417.1671905517578, 353.54373931884766)"><g class="label" data-id="L_Mut_Vers_0" transform="translate(0, -10.5)"><g><rect class="background" style="" x="-10.6640625" y="-1" width="21.328125" height="23"></rect><text y="-10.1" text-anchor="middle" style=""><tspan class="text-outer-tspan row" x="0" y="-0.1em" dy="1.1em" text-anchor="middle"><tspan font-style="normal" class="text-inner-tspan" font-weight="normal">no</tspan></tspan></text></g></g></g><g class="edgeLabel" transform="translate(305.7984390258789, 636.8781204223633)"><g class="label" data-id="L_Vers_CacheFirst_0" transform="translate(0, -10.5)"><g><rect class="background" style="" x="-13.546875" y="-1" width="27.09375" height="23"></rect><text y="-10.1" text-anchor="middle" style=""><tspan class="text-outer-tspan row" x="0" y="-0.1em" dy="1.1em" text-anchor="middle"><tspan font-style="normal" class="text-inner-tspan" font-weight="normal">yes</tspan></tspan></text></g></g></g><g class="edgeLabel" transform="translate(528.5359420776367, 636.8781204223633)"><g class="label" data-id="L_Vers_Stale_0" transform="translate(0, -10.5)"><g><rect class="background" style="" x="-10.6640625" y="-1" width="21.328125" height="23"></rect><text y="-10.1" text-anchor="middle" style=""><tspan class="text-outer-tspan row" x="0" y="-0.1em" dy="1.1em" text-anchor="middle"><tspan font-style="normal" class="text-inner-tspan" font-weight="normal">no</tspan></tspan></text></g></g></g><g class="edgeLabel" transform="translate(389.2687568664551, 886.4937515258789)"><g class="label" data-id="L_Stale_SWR_0" transform="translate(0, -10.5)"><g><rect class="background" style="" x="-13.546875" y="-1" width="27.09375" height="23"></rect><text y="-10.1" text-anchor="middle" style=""><tspan class="text-outer-tspan row" x="0" y="-0.1em" dy="1.1em" text-anchor="middle"><tspan font-style="normal" class="text-inner-tspan" font-weight="normal">yes</tspan></tspan></text></g></g></g><g class="edgeLabel" transform="translate(667.8031272888184, 886.4937515258789)"><g class="label" data-id="L_Stale_Fresh_0" transform="translate(0, -10.5)"><g><rect class="background" style="" x="-10.6640625" y="-1" width="21.328125" height="23"></rect><text y="-10.1" text-anchor="middle" style=""><tspan class="text-outer-tspan row" x="0" y="-0.1em" dy="1.1em" text-anchor="middle"><tspan font-style="normal" class="text-inner-tspan" font-weight="normal">no</tspan></tspan></text></g></g></g><g class="edgeLabel" transform="translate(527.9789085388184, 1189.7812423706055)"><g class="label" data-id="L_Fresh_NetFirst_0" transform="translate(0, -10.5)"><g><rect class="background" style="" x="-13.546875" y="-1" width="27.09375" height="23"></rect><text y="-10.1" text-anchor="middle" style=""><tspan class="text-outer-tspan row" x="0" y="-0.1em" dy="1.1em" text-anchor="middle"><tspan font-style="normal" class="text-inner-tspan" font-weight="normal">yes</tspan></tspan></text></g></g></g><g class="edgeLabel" transform="translate(807.6273460388184, 1189.7812423706055)"><g class="label" data-id="L_Fresh_CacheOnly_0" transform="translate(0, -10.5)"><g><rect class="background" style="" x="-10.6640625" y="-1" width="21.328125" height="23"></rect><text y="-10.1" text-anchor="middle" style=""><tspan class="text-outer-tspan row" x="0" y="-0.1em" dy="1.1em" text-anchor="middle"><tspan font-style="normal" class="text-inner-tspan" font-weight="normal">no</tspan></tspan></text></g></g></g></g><g class="nodes"><g class="node default" id="gd836d08e-00be-4445-a494-6f03ed0e3267-dark-flowchart-Start-0" data-look="classic" transform="translate(276.0835952758789, 33.79999923706055)"><g class="basic label-container outer-path"><path d="M-68.29062557220459 -25.799999237060547 C-30.82944719621525 -25.799999237060547, 6.631731179774093 -25.799999237060547, 68.29062557220459 -25.799999237060547 C68.29062557220459 -25.799999237060547, 68.29062557220459 -25.799999237060547, 68.29062557220459 -25.799999237060547 C68.92155132838977 -25.779766676082172, 69.55247708457495 -25.7595341151038, 69.94363719882529 -25.746990371586765 C70.33636811192756 -25.709104092727816, 70.72909902502981 -25.671217813868868, 71.58985624610231 -25.58818159996402 C72.05429169437761 -25.513095278437564, 72.5187271426529 -25.43800895691111, 73.22251804685753 -25.32422550149928 C73.79134731213254 -25.194393933658116, 74.36017657740754 -25.06456236581695, 74.83491364354678 -24.956206728419545 C75.27955858531558 -24.824238443691492, 75.7242035270844 -24.69227015896344, 76.42041735680552 -24.48563754880318 C76.90546916323105 -24.307134000268835, 77.39052096965658 -24.128630451734494, 77.97251401178644 -23.914451632345997 C78.30827468803973 -23.76582034095525, 78.64403536429302 -23.6171890495645, 79.48482571041056 -23.24499610449772 C79.86313857017403 -23.047630527880067, 80.24145142993751 -22.850264951262414, 80.9511380395184 -22.480021901620034 C81.46640009476125 -22.16766701571587, 81.98166215000411 -21.85531212981171, 82.36542560722664 -21.62267246679901 C82.84430577031571 -21.28862639541622, 83.32318593340479 -20.95458032403343, 83.72187680255584 -20.67647083276321 C84.16673788004283 -20.321705961717782, 84.61159895752982 -19.966941090672353, 85.0149176765865 -19.64530514498651 C85.32669559523818 -19.36215668845875, 85.63847351388983 -19.079008231930995, 86.23923484701088 -18.533412684464313 C86.69880130736462 -18.05887258304098, 87.15836776771836 -17.584332481617647, 87.38979733196044 -17.345362455817106 C87.6132202847862 -17.082917142301806, 87.83664323761195 -16.82047182878651, 88.46187722338968 -16.086036412270357 C88.71052142810099 -15.752875829910238, 88.9591656328123 -15.41971524755012, 89.45106911506427 -14.76060939466161 C89.64788421198364 -14.458248553539924, 89.844699308903 -14.155887712418236, 90.35330820532036 -13.374527866909407 C90.61072504252223 -12.917458206176198, 90.86814187972409 -12.460388545442989, 91.1648870002064 -11.93348753532484 C91.30985834356592 -11.63245143894897, 91.45482968692544 -11.3314153425731, 91.88247054837109 -10.443409943732584 C92.11440390373569 -9.870530071855645, 92.34633725910028 -9.297650199978705, 92.50311014509381 -8.910418140577123 C92.68920937986066 -8.349916896345785, 92.8753086146275 -7.789415652114448, 93.0242554491449 -7.340811518003323 C93.13345545362115 -6.924384573354043, 93.24265545809742 -6.507957628704762, 93.44376496268467 -5.741039926302914 C93.52689202351361 -5.314200037856822, 93.61001908434255 -4.88736014941073, 93.75991483113748 -4.117677170096137 C93.82097068244767 -3.6441400441758476, 93.88202653375787 -3.1706029182555584, 93.97140592687991 -2.4773939951584394 C93.99415949958855 -2.122988733867987, 94.0169130722972 -1.7685834725775351, 94.07736918763487 -0.8269306768952902 C94.07736918763487 -0.3534803442706507, 94.07736918763487 0.11996998835398875, 94.07736918763487 0.826930676895284 C94.0472275874708 1.2964104293125407, 94.01708598730671 1.7658901817297972, 93.97140592687991 2.4773939951584216 C93.92274180575464 2.8548233087883497, 93.87407768462937 3.2322526224182777, 93.75991483113748 4.117677170096119 C93.64248877654528 4.720635142421655, 93.52506272195306 5.323593114747189, 93.44376496268467 5.741039926302909 C93.32754136279341 6.184250884315106, 93.21131776290215 6.627461842327302, 93.0242554491449 7.340811518003306 C92.89862652979242 7.719185806842947, 92.77299761043994 8.097560095682589, 92.50311014509383 8.910418140577105 C92.36112788996918 9.261117055775149, 92.21914563484454 9.61181597097319, 91.88247054837109 10.443409943732577 C91.68686931949718 10.84958008068509, 91.49126809062327 11.255750217637605, 91.1648870002064 11.933487535324835 C90.86646426609954 12.463367318310201, 90.56804153199266 12.99324710129557, 90.35330820532037 13.374527866909402 C90.05371918258491 13.83477705674787, 89.75413015984944 14.295026246586339, 89.45106911506429 14.760609394661596 C89.24695292582062 15.034106492880717, 89.04283673657696 15.30760359109984, 88.46187722338968 16.086036412270353 C88.05982386066657 16.558311169609354, 87.65777049794345 17.030585926948355, 87.38979733196045 17.345362455817092 C87.01801902383754 17.729254082520754, 86.64624071571463 18.113145709224415, 86.23923484701088 18.533412684464306 C85.88817920960547 18.852232125932723, 85.53712357220006 19.171051567401143, 85.01491767658653 19.64530514498649 C84.70182131976951 19.894991157704094, 84.38872496295248 20.1446771704217, 83.72187680255584 20.676470832763208 C83.2597851380916 20.99880597426771, 82.79769347362735 21.321141115772217, 82.36542560722665 21.622672466799003 C81.93757699110593 21.88203681220894, 81.5097283749852 22.14140115761888, 80.95113803951841 22.48002190162003 C80.61402056184622 22.655895873787564, 80.27690308417402 22.831769845955098, 79.48482571041058 23.244996104497716 C79.0995518827607 23.41554539925629, 78.7142780551108 23.586094694014857, 77.97251401178644 23.914451632345994 C77.43453955759007 24.112431204471598, 76.89656510339371 24.3104107765972, 76.42041735680553 24.485637548803172 C75.95643064450518 24.623346369497963, 75.49244393220484 24.761055190192756, 74.83491364354681 24.95620672841954 C74.47767118592853 25.037744988146017, 74.12042872831023 25.119283247872488, 73.22251804685754 25.324225501499278 C72.89581651635159 25.377044071343274, 72.56911498584562 25.42986264118727, 71.58985624610233 25.588181599964017 C71.15026357245617 25.630588576503122, 70.71067089881 25.672995553042227, 69.94363719882529 25.746990371586765 C69.47127248771494 25.76213818846994, 68.99890777660461 25.777286005353115, 68.29062557220459 25.799999237060547 C68.29062557220459 25.799999237060547, 68.29062557220459 25.799999237060547, 68.29062557220459 25.799999237060547 C38.663819436890236 25.799999237060547, 9.037013301575882 25.799999237060547, -68.29062557220459 25.799999237060547 C-68.94836411819007 25.778906842101208, -69.60610266417554 25.757814447141868, -69.94363719882527 25.746990371586765 C-70.60139961851547 25.6835368220343, -71.25916203820566 25.620083272481835, -71.58985624610231 25.588181599964017 C-72.16514875797304 25.49517276810482, -72.74044126984377 25.40216393624562, -73.22251804685753 25.324225501499278 C-73.55002192409083 25.249474878683305, -73.87752580132411 25.174724255867336, -74.83491364354678 24.956206728419545 C-75.39528737167791 24.789890747371953, -75.95566109980903 24.62357476632436, -76.4204173568055 24.485637548803183 C-76.73835083246705 24.368635090814898, -77.05628430812861 24.251632632826617, -77.97251401178644 23.914451632345997 C-78.4042578203667 23.72333145551256, -78.83600162894695 23.532211278679124, -79.48482571041056 23.244996104497723 C-80.06999804785508 22.93971207087369, -80.6551703852996 22.634428037249656, -80.9511380395184 22.480021901620038 C-81.41419730818414 22.199312651716546, -81.87725657684987 21.91860340181306, -82.36542560722663 21.622672466799017 C-82.65785511451965 21.418686301580745, -82.95028462181268 21.214700136362474, -83.72187680255584 20.67647083276321 C-84.05601445735137 20.4100049448402, -84.39015211214691 20.14353905691719, -85.0149176765865 19.645305144986512 C-85.47730835461901 19.22537416538432, -85.93969903265152 18.805443185782124, -86.23923484701086 18.533412684464324 C-86.58882550960072 18.172431623413107, -86.93841617219059 17.81145056236189, -87.38979733196044 17.3453624558171 C-87.69719103942671 16.984280315829754, -88.00458474689299 16.623198175842408, -88.46187722338968 16.08603641227036 C-88.79613067019383 15.63816724466823, -89.13038411699799 15.1902980770661, -89.45106911506427 14.760609394661614 C-89.73297382441214 14.32752805908955, -90.01487853376001 13.894446723517486, -90.35330820532036 13.374527866909418 C-90.60260406993805 12.931877815337044, -90.85189993455575 12.48922776376467, -91.16488700020639 11.933487535324842 C-91.41668506722874 11.410623461537401, -91.66848313425108 10.887759387749961, -91.88247054837109 10.443409943732586 C-92.06500876204683 9.99253702681723, -92.24754697572257 9.541664109901873, -92.50311014509381 8.910418140577127 C-92.65347279196926 8.45754980522263, -92.80383543884471 8.004681469868133, -93.0242554491449 7.340811518003316 C-93.16330958915972 6.810537815681272, -93.30236372917456 6.280264113359227, -93.44376496268467 5.741039926302918 C-93.54599359671786 5.216117496571921, -93.64822223075106 4.691195066840924, -93.75991483113748 4.117677170096139 C-93.84448502347036 3.4617674586357237, -93.92905521580323 2.805857747175308, -93.97140592687991 2.477393995158454 C-93.9952271466246 2.106359269492331, -94.0190483663693 1.735324543826208, -94.07736918763487 0.8269306768952934 C-94.07736918763487 0.24673123087394766, -94.07736918763487 -0.3334682151473981, -94.07736918763487 -0.8269306768952809 C-94.05189244287665 -1.2237515409628648, -94.02641569811843 -1.6205724050304489, -93.97140592687991 -2.4773939951584185 C-93.90879677698564 -2.9629781981633245, -93.84618762709137 -3.44856240116823, -93.75991483113748 -4.117677170096128 C-93.66745424286316 -4.592442749332481, -93.57499365458885 -5.0672083285688325, -93.44376496268467 -5.741039926302906 C-93.2814688100836 -6.35994549576827, -93.11917265748252 -6.978851065233632, -93.0242554491449 -7.340811518003303 C-92.87633507839757 -7.78632410678378, -92.72841470765024 -8.231836695564256, -92.50311014509383 -8.910418140577093 C-92.29525145081197 -9.423833134127724, -92.08739275653014 -9.937248127678355, -91.88247054837109 -10.443409943732574 C-91.6036832692184 -11.02231769398532, -91.32489599006571 -11.601225444238064, -91.1648870002064 -11.933487535324831 C-90.89158171186958 -12.418768749928297, -90.61827642353275 -12.904049964531763, -90.35330820532036 -13.374527866909409 C-90.02284330033011 -13.882210703226516, -89.69237839533986 -14.389893539543623, -89.45106911506429 -14.760609394661605 C-89.19610170664829 -15.102242493930287, -88.94113429823229 -15.443875593198971, -88.46187722338968 -16.086036412270353 C-88.13667935848491 -16.468032328670205, -87.81148149358016 -16.850028245070057, -87.38979733196045 -17.345362455817092 C-86.98279948815271 -17.765621144692997, -86.57580164434498 -18.185879833568897, -86.23923484701089 -18.5334126844643 C-85.90671428263266 -18.83539906302058, -85.57419371825445 -19.137385441576868, -85.01491767658653 -19.645305144986487 C-84.52763061791507 -20.03390360702377, -84.04034355924358 -20.422502069061053, -83.72187680255585 -20.676470832763204 C-83.25970209114485 -20.99886390422272, -82.79752737973385 -21.32125697568224, -82.36542560722665 -21.622672466799 C-81.87889324026791 -21.91761124683094, -81.39236087330919 -22.212550026862882, -80.95113803951841 -22.480021901620027 C-80.46119807261053 -22.735623268534347, -79.97125810570265 -22.991224635448667, -79.48482571041058 -23.244996104497716 C-79.06906201168978 -23.42904236072949, -78.65329831296899 -23.61308861696126, -77.97251401178646 -23.91445163234599 C-77.54362655051574 -24.072286182685847, -77.11473908924502 -24.230120733025704, -76.42041735680553 -24.485637548803172 C-75.92721516161714 -24.632017371463935, -75.43401296642877 -24.778397194124693, -74.83491364354681 -24.956206728419538 C-74.32843031875085 -25.071808242191644, -73.82194699395488 -25.187409755963753, -73.22251804685754 -25.324225501499278 C-72.85183855584522 -25.384154086943767, -72.4811590648329 -25.44408267238825, -71.58985624610233 -25.588181599964017 C-71.20301292716704 -25.625499909694547, -70.81616960823173 -25.662818219425077, -69.94363719882529 -25.746990371586765 C-69.5849182300925 -25.75849379070991, -69.22619926135972 -25.769997209833054, -68.2906255722046 -25.799999237060547 C-68.2906255722046 -25.799999237060547, -68.2906255722046 -25.799999237060547, -68.29062557220459 -25.799999237060547" stroke="none" stroke-width="0" fill="#2d2d2d" style=""></path><path d="M-68.29062557220459 -25.799999237060547 C-19.76462734296276 -25.799999237060547, 28.761370886279067 -25.799999237060547, 68.29062557220459 -25.799999237060547 M-68.29062557220459 -25.799999237060547 C-29.8533688289154 -25.799999237060547, 8.58388791437379 -25.799999237060547, 68.29062557220459 -25.799999237060547 M68.29062557220459 -25.799999237060547 C68.29062557220459 -25.799999237060547, 68.29062557220459 -25.799999237060547, 68.29062557220459 -25.799999237060547 M68.29062557220459 -25.799999237060547 C68.29062557220459 -25.799999237060547, 68.29062557220459 -25.799999237060547, 68.29062557220459 -25.799999237060547 M68.29062557220459 -25.799999237060547 C68.84523021157324 -25.782214145748437, 69.39983485094189 -25.764429054436327, 69.94363719882529 -25.746990371586765 M68.29062557220459 -25.799999237060547 C68.77992772657946 -25.784308269338613, 69.26922988095434 -25.768617301616676, 69.94363719882529 -25.746990371586765 M69.94363719882529 -25.746990371586765 C70.42415590806331 -25.70063530961487, 70.90467461730134 -25.654280247642976, 71.58985624610231 -25.58818159996402 M69.94363719882529 -25.746990371586765 C70.40425655997377 -25.7025549757926, 70.86487592112228 -25.658119579998438, 71.58985624610231 -25.58818159996402 M71.58985624610231 -25.58818159996402 C72.18145628517513 -25.49253629357355, 72.77305632424795 -25.39689098718308, 73.22251804685753 -25.32422550149928 M71.58985624610231 -25.58818159996402 C72.16765880344107 -25.494766963419245, 72.74546136077981 -25.401352326874473, 73.22251804685753 -25.32422550149928 M73.22251804685753 -25.32422550149928 C73.78033572878766 -25.196907255699287, 74.3381534107178 -25.069589009899296, 74.83491364354678 -24.956206728419545 M73.22251804685753 -25.32422550149928 C73.6637907442256 -25.22350788789848, 74.10506344159364 -25.12279027429768, 74.83491364354678 -24.956206728419545 M74.83491364354678 -24.956206728419545 C75.26537859322755 -24.828446990910926, 75.6958435429083 -24.700687253402307, 76.42041735680552 -24.48563754880318 M74.83491364354678 -24.956206728419545 C75.41282973568832 -24.78468426581541, 75.99074582782985 -24.613161803211273, 76.42041735680552 -24.48563754880318 M76.42041735680552 -24.48563754880318 C77.00953453159352 -24.26883698274173, 77.59865170638152 -24.052036416680277, 77.97251401178644 -23.914451632345997 M76.42041735680552 -24.48563754880318 C76.95328865681128 -24.289535984592757, 77.48615995681705 -24.093434420382334, 77.97251401178644 -23.914451632345997 M77.97251401178644 -23.914451632345997 C78.31118225186827 -23.76453324869817, 78.6498504919501 -23.614614865050346, 79.48482571041056 -23.24499610449772 M77.97251401178644 -23.914451632345997 C78.34281800232895 -23.750529040410424, 78.71312199287146 -23.586606448474846, 79.48482571041056 -23.24499610449772 M79.48482571041056 -23.24499610449772 C79.85114786333065 -23.053886071959848, 80.21747001625073 -22.862776039421977, 80.9511380395184 -22.480021901620034 M79.48482571041056 -23.24499610449772 C79.95301630978481 -23.000741368694566, 80.42120690915905 -22.756486632891413, 80.9511380395184 -22.480021901620034 M80.9511380395184 -22.480021901620034 C81.33722186981736 -22.245975614812377, 81.72330570011631 -22.01192932800472, 82.36542560722664 -21.62267246679901 M80.9511380395184 -22.480021901620034 C81.40215228857957 -22.20661441338523, 81.85316653764075 -21.93320692515042, 82.36542560722664 -21.62267246679901 M82.36542560722664 -21.62267246679901 C82.8229194854621 -21.30354454193275, 83.28041336369755 -20.984416617066493, 83.72187680255584 -20.67647083276321 M82.36542560722664 -21.62267246679901 C82.80635594496847 -21.31509855075699, 83.2472862827103 -21.00752463471497, 83.72187680255584 -20.67647083276321 M83.72187680255584 -20.67647083276321 C84.20854554858153 -20.288365458606954, 84.69521429460721 -19.9002600844507, 85.0149176765865 -19.64530514498651 M83.72187680255584 -20.67647083276321 C84.04865692410995 -20.415872381808054, 84.37543704566406 -20.1552739308529, 85.0149176765865 -19.64530514498651 M85.0149176765865 -19.64530514498651 C85.45087490234528 -19.249380327348497, 85.88683212810406 -18.853455509710486, 86.23923484701088 -18.533412684464313 M85.0149176765865 -19.64530514498651 C85.46703319668012 -19.234705791958636, 85.91914871677375 -18.82410643893076, 86.23923484701088 -18.533412684464313 M86.23923484701088 -18.533412684464313 C86.58618513422209 -18.175158027770397, 86.93313542143332 -17.816903371076485, 87.38979733196044 -17.345362455817106 M86.23923484701088 -18.533412684464313 C86.51591996495588 -18.24771258391544, 86.7926050829009 -17.962012483366568, 87.38979733196044 -17.345362455817106 M87.38979733196044 -17.345362455817106 C87.74538502560311 -16.927668917351454, 88.1009727192458 -16.5099753788858, 88.46187722338968 -16.086036412270357 M87.38979733196044 -17.345362455817106 C87.74849561047999 -16.924015047357788, 88.10719388899955 -16.50266763889847, 88.46187722338968 -16.086036412270357 M88.46187722338968 -16.086036412270357 C88.67988507660564 -15.793925749884965, 88.89789292982161 -15.501815087499573, 89.45106911506427 -14.76060939466161 M88.46187722338968 -16.086036412270357 C88.72843847916288 -15.72886861376424, 88.99499973493609 -15.371700815258121, 89.45106911506427 -14.76060939466161 M89.45106911506427 -14.76060939466161 C89.7728980284934 -14.266193760470827, 90.09472694192253 -13.771778126280042, 90.35330820532036 -13.374527866909407 M89.45106911506427 -14.76060939466161 C89.64706297974801 -14.459510186785575, 89.84305684443176 -14.158410978909542, 90.35330820532036 -13.374527866909407 M90.35330820532036 -13.374527866909407 C90.51722061934076 -13.083484777884449, 90.68113303336116 -12.79244168885949, 91.1648870002064 -11.93348753532484 M90.35330820532036 -13.374527866909407 C90.58363107197104 -12.96556629445184, 90.81395393862174 -12.556604721994274, 91.1648870002064 -11.93348753532484 M91.1648870002064 -11.93348753532484 C91.31599760728494 -11.619703126477217, 91.46710821436349 -11.305918717629597, 91.88247054837109 -10.443409943732584 M91.1648870002064 -11.93348753532484 C91.38868373140393 -11.468768834510223, 91.61248046260147 -11.004050133695605, 91.88247054837109 -10.443409943732584 M91.88247054837109 -10.443409943732584 C92.12975457993161 -9.832613604866584, 92.37703861149213 -9.221817266000583, 92.50311014509381 -8.910418140577123 M91.88247054837109 -10.443409943732584 C92.0187247355758 -10.10685946704144, 92.15497892278051 -9.770308990350294, 92.50311014509381 -8.910418140577123 M92.50311014509381 -8.910418140577123 C92.70389739207361 -8.305678943777286, 92.90468463905343 -7.700939746977449, 93.0242554491449 -7.340811518003323 M92.50311014509381 -8.910418140577123 C92.65219198216307 -8.461407400289534, 92.80127381923234 -8.012396660001945, 93.0242554491449 -7.340811518003323 M93.0242554491449 -7.340811518003323 C93.18119421105543 -6.742336001148849, 93.33813297296594 -6.1438604842943745, 93.44376496268467 -5.741039926302914 M93.0242554491449 -7.340811518003323 C93.1295780108578 -6.939170943105066, 93.2349005725707 -6.537530368206809, 93.44376496268467 -5.741039926302914 M93.44376496268467 -5.741039926302914 C93.5113556511238 -5.393976026465042, 93.57894633956293 -5.04691212662717, 93.75991483113748 -4.117677170096137 M93.44376496268467 -5.741039926302914 C93.54052359008509 -5.244204824544925, 93.6372822174855 -4.747369722786936, 93.75991483113748 -4.117677170096137 M93.75991483113748 -4.117677170096137 C93.81957056327633 -3.6549990919839432, 93.87922629541518 -3.1923210138717493, 93.97140592687991 -2.4773939951584394 M93.75991483113748 -4.117677170096137 C93.80671262058586 -3.754722756403259, 93.85351041003425 -3.3917683427103813, 93.97140592687991 -2.4773939951584394 M93.97140592687991 -2.4773939951584394 C94.00239068994408 -1.994781299983442, 94.03337545300825 -1.5121686048084446, 94.07736918763487 -0.8269306768952902 M93.97140592687991 -2.4773939951584394 C93.99934535394914 -2.0422148662556787, 94.02728478101835 -1.6070357373529183, 94.07736918763487 -0.8269306768952902 M94.07736918763487 -0.8269306768952902 C94.07736918763487 -0.39163032954350663, 94.07736918763487 0.04367001780827695, 94.07736918763487 0.826930676895284 M94.07736918763487 -0.8269306768952902 C94.07736918763487 -0.3836540841206257, 94.07736918763487 0.05962250865403884, 94.07736918763487 0.826930676895284 M94.07736918763487 0.826930676895284 C94.05095466903543 1.2383581254971598, 94.024540150436 1.6497855740990357, 93.97140592687991 2.4773939951584216 M94.07736918763487 0.826930676895284 C94.0352832990279 1.4824523630668445, 93.99319741042092 2.137974049238405, 93.97140592687991 2.4773939951584216 M93.97140592687991 2.4773939951584216 C93.91733250006565 2.896776815523929, 93.8632590732514 3.316159635889436, 93.75991483113748 4.117677170096119 M93.97140592687991 2.4773939951584216 C93.92248414543195 2.856821671370305, 93.87356236398401 3.2362493475821883, 93.75991483113748 4.117677170096119 M93.75991483113748 4.117677170096119 C93.6652822167756 4.603595644234262, 93.57064960241371 5.0895141183724055, 93.44376496268467 5.741039926302909 M93.75991483113748 4.117677170096119 C93.63430137453071 4.762675721358396, 93.50868791792395 5.407674272620673, 93.44376496268467 5.741039926302909 M93.44376496268467 5.741039926302909 C93.29732401590243 6.29948272429138, 93.1508830691202 6.857925522279851, 93.0242554491449 7.340811518003306 M93.44376496268467 5.741039926302909 C93.31135275566906 6.245985059466924, 93.17894054865347 6.750930192630939, 93.0242554491449 7.340811518003306 M93.0242554491449 7.340811518003306 C92.90891576675234 7.688196264486921, 92.7935760843598 8.035581010970535, 92.50311014509383 8.910418140577105 M93.0242554491449 7.340811518003306 C92.89713782562053 7.723669546615889, 92.77002020209616 8.106527575228473, 92.50311014509383 8.910418140577105 M92.50311014509383 8.910418140577105 C92.3569707674991 9.271385228648736, 92.21083138990437 9.632352316720366, 91.88247054837109 10.443409943732577 M92.50311014509383 8.910418140577105 C92.3584696312596 9.26768300618177, 92.21382911742535 9.624947871786434, 91.88247054837109 10.443409943732577 M91.88247054837109 10.443409943732577 C91.63345526437782 10.960495509018138, 91.38443998038456 11.477581074303696, 91.1648870002064 11.933487535324835 M91.88247054837109 10.443409943732577 C91.6657249065841 10.893486906517046, 91.44897926479713 11.343563869301516, 91.1648870002064 11.933487535324835 M91.1648870002064 11.933487535324835 C90.9385289234063 12.335409221924197, 90.71217084660618 12.73733090852356, 90.35330820532037 13.374527866909402 M91.1648870002064 11.933487535324835 C90.91299877128466 12.380740592224386, 90.66111054236293 12.827993649123936, 90.35330820532037 13.374527866909402 M90.35330820532037 13.374527866909402 C89.9971753611006 13.92164355068982, 89.64104251688082 14.468759234470237, 89.45106911506429 14.760609394661596 M90.35330820532037 13.374527866909402 C90.08552391606774 13.785916445351475, 89.81773962681511 14.197305023793547, 89.45106911506429 14.760609394661596 M89.45106911506429 14.760609394661596 C89.18586406564435 15.11596000020727, 88.92065901622442 15.471310605752944, 88.46187722338968 16.086036412270353 M89.45106911506429 14.760609394661596 C89.07146716789764 15.269241421416094, 88.69186522073099 15.77787344817059, 88.46187722338968 16.086036412270353 M88.46187722338968 16.086036412270353 C88.17247771011505 16.425981547861543, 87.88307819684042 16.765926683452733, 87.38979733196045 17.345362455817092 M88.46187722338968 16.086036412270353 C88.18472379323859 16.411596601802753, 87.90757036308752 16.73715679133515, 87.38979733196045 17.345362455817092 M87.38979733196045 17.345362455817092 C86.9423862779143 17.80735110225042, 86.49497522386815 18.26933974868375, 86.23923484701088 18.533412684464306 M87.38979733196045 17.345362455817092 C87.00720497917905 17.74042047148022, 86.62461262639765 18.135478487143352, 86.23923484701088 18.533412684464306 M86.23923484701088 18.533412684464306 C85.78583677278345 18.945176819221988, 85.33243869855603 19.356940953979667, 85.01491767658653 19.64530514498649 M86.23923484701088 18.533412684464306 C85.83463421430271 18.900860273943753, 85.43003358159453 19.268307863423203, 85.01491767658653 19.64530514498649 M85.01491767658653 19.64530514498649 C84.62929468774205 19.95282921673126, 84.24367169889757 20.26035328847603, 83.72187680255584 20.676470832763208 M85.01491767658653 19.64530514498649 C84.53609746647037 20.027151520613213, 84.0572772563542 20.40899789623994, 83.72187680255584 20.676470832763208 M83.72187680255584 20.676470832763208 C83.34156565713828 20.941759424402367, 82.9612545117207 21.207048016041522, 82.36542560722665 21.622672466799003 M83.72187680255584 20.676470832763208 C83.41120169221708 20.893184340826764, 83.1005265818783 21.109897848890324, 82.36542560722665 21.622672466799003 M82.36542560722665 21.622672466799003 C81.80526791206327 21.96224335345905, 81.2451102168999 22.3018142401191, 80.95113803951841 22.48002190162003 M82.36542560722665 21.622672466799003 C81.96713942010524 21.864115894021445, 81.56885323298381 22.105559321243888, 80.95113803951841 22.48002190162003 M80.95113803951841 22.48002190162003 C80.50292972094175 22.713851894330347, 80.05472140236509 22.947681887040662, 79.48482571041058 23.244996104497716 M80.95113803951841 22.48002190162003 C80.58738373947006 22.66979228695951, 80.2236294394217 22.85956267229899, 79.48482571041058 23.244996104497716 M79.48482571041058 23.244996104497716 C79.17573498275316 23.38182140078099, 78.86664425509572 23.518646697064266, 77.97251401178644 23.914451632345994 M79.48482571041058 23.244996104497716 C79.00932384509461 23.455486675011414, 78.53382197977866 23.665977245525113, 77.97251401178644 23.914451632345994 M77.97251401178644 23.914451632345994 C77.60865927761776 24.048353537956363, 77.24480454344908 24.182255443566728, 76.42041735680553 24.485637548803172 M77.97251401178644 23.914451632345994 C77.63242549531518 24.039607350151204, 77.2923369788439 24.164763067956414, 76.42041735680553 24.485637548803172 M76.42041735680553 24.485637548803172 C76.09077207905169 24.58347453689714, 75.76112680129785 24.68131152499111, 74.83491364354681 24.95620672841954 M76.42041735680553 24.485637548803172 C75.83180094468796 24.660335810209073, 75.24318453257038 24.835034071614974, 74.83491364354681 24.95620672841954 M74.83491364354681 24.95620672841954 C74.27920512942383 25.08304357043116, 73.72349661530086 25.20988041244277, 73.22251804685754 25.324225501499278 M74.83491364354681 24.95620672841954 C74.50877582112881 25.030645558138264, 74.1826379987108 25.105084387856987, 73.22251804685754 25.324225501499278 M73.22251804685754 25.324225501499278 C72.74659141777242 25.40116962802363, 72.2706647886873 25.47811375454798, 71.58985624610233 25.588181599964017 M73.22251804685754 25.324225501499278 C72.86517672547679 25.381997675116782, 72.50783540409604 25.439769848734286, 71.58985624610233 25.588181599964017 M71.58985624610233 25.588181599964017 C70.97068140176745 25.647912652530305, 70.35150655743256 25.707643705096594, 69.94363719882529 25.746990371586765 M71.58985624610233 25.588181599964017 C70.96568233036459 25.648394906936275, 70.34150841462684 25.708608213908533, 69.94363719882529 25.746990371586765 M69.94363719882529 25.746990371586765 C69.53448499466221 25.76011108640782, 69.12533279049913 25.773231801228878, 68.29062557220459 25.799999237060547 M69.94363719882529 25.746990371586765 C69.58253032068731 25.75857036631675, 69.22142344254934 25.77015036104674, 68.29062557220459 25.799999237060547 M68.29062557220459 25.799999237060547 C68.29062557220459 25.799999237060547, 68.29062557220459 25.799999237060547, 68.29062557220459 25.799999237060547 M68.29062557220459 25.799999237060547 C68.29062557220459 25.799999237060547, 68.29062557220459 25.799999237060547, 68.29062557220459 25.799999237060547 M68.29062557220459 25.799999237060547 C28.401794833836618 25.799999237060547, -11.487035904531353 25.799999237060547, -68.29062557220459 25.799999237060547 M68.29062557220459 25.799999237060547 C16.800247034246702 25.799999237060547, -34.690131503711186 25.799999237060547, -68.29062557220459 25.799999237060547 M-68.29062557220459 25.799999237060547 C-68.65259610461432 25.788391546619067, -69.01456663702405 25.776783856177587, -69.94363719882527 25.746990371586765 M-68.29062557220459 25.799999237060547 C-68.83949838918682 25.782397954136055, -69.38837120616904 25.764796671211563, -69.94363719882527 25.746990371586765 M-69.94363719882527 25.746990371586765 C-70.48169794832694 25.695084298195066, -71.0197586978286 25.643178224803368, -71.58985624610231 25.588181599964017 M-69.94363719882527 25.746990371586765 C-70.5086062549945 25.69248848621282, -71.07357531116374 25.637986600838875, -71.58985624610231 25.588181599964017 M-71.58985624610231 25.588181599964017 C-72.1524663068141 25.49722316845432, -72.7150763675259 25.40626473694462, -73.22251804685753 25.324225501499278 M-71.58985624610231 25.588181599964017 C-72.16222805963402 25.49564496396192, -72.73459987316572 25.40310832795982, -73.22251804685753 25.324225501499278 M-73.22251804685753 25.324225501499278 C-73.58809027222394 25.24078602664111, -73.95366249759034 25.157346551782943, -74.83491364354678 24.956206728419545 M-73.22251804685753 25.324225501499278 C-73.74180874816444 25.205700787614493, -74.26109944947135 25.087176073729704, -74.83491364354678 24.956206728419545 M-74.83491364354678 24.956206728419545 C-75.40100003901549 24.788195257692564, -75.96708643448417 24.62018378696558, -76.4204173568055 24.485637548803183 M-74.83491364354678 24.956206728419545 C-75.37029963157293 24.797306977471784, -75.90568561959908 24.638407226524023, -76.4204173568055 24.485637548803183 M-76.4204173568055 24.485637548803183 C-77.03778148650983 24.258441842220535, -77.65514561621417 24.031246135637886, -77.97251401178644 23.914451632345997 M-76.4204173568055 24.485637548803183 C-76.76687406341509 24.358138278160165, -77.11333077002469 24.230639007517148, -77.97251401178644 23.914451632345997 M-77.97251401178644 23.914451632345997 C-78.29301055178333 23.77257732128145, -78.61350709178019 23.6307030102169, -79.48482571041056 23.244996104497723 M-77.97251401178644 23.914451632345997 C-78.49380825812649 23.683690133135652, -79.01510250446654 23.452928633925307, -79.48482571041056 23.244996104497723 M-79.48482571041056 23.244996104497723 C-80.01860962591056 22.966521377686288, -80.55239354141057 22.688046650874853, -80.9511380395184 22.480021901620038 M-79.48482571041056 23.244996104497723 C-80.0192980463337 22.966162229192495, -80.55377038225683 22.687328353887263, -80.9511380395184 22.480021901620038 M-80.9511380395184 22.480021901620038 C-81.32768330807991 22.251757946992424, -81.70422857664144 22.023493992364813, -82.36542560722663 21.622672466799017 M-80.9511380395184 22.480021901620038 C-81.24397128695699 22.302504666143587, -81.53680453439559 22.124987430667133, -82.36542560722663 21.622672466799017 M-82.36542560722663 21.622672466799017 C-82.6743051494843 21.407211469299945, -82.98318469174197 21.19175047180087, -83.72187680255584 20.67647083276321 M-82.36542560722663 21.622672466799017 C-82.88279527183617 21.26177778533921, -83.40016493644573 20.9008831038794, -83.72187680255584 20.67647083276321 M-83.72187680255584 20.67647083276321 C-84.07322916951226 20.396276669994624, -84.42458153646868 20.116082507226036, -85.0149176765865 19.645305144986512 M-83.72187680255584 20.67647083276321 C-83.98513916210905 20.46652610672514, -84.24840152166225 20.25658138068707, -85.0149176765865 19.645305144986512 M-85.0149176765865 19.645305144986512 C-85.32944894382943 19.35965617011778, -85.64398021107237 19.074007195249045, -86.23923484701086 18.533412684464324 M-85.0149176765865 19.645305144986512 C-85.30871415023714 19.378486961045738, -85.60251062388775 19.11166877710496, -86.23923484701086 18.533412684464324 M-86.23923484701086 18.533412684464324 C-86.68285126661503 18.075342309637627, -87.12646768621919 17.617271934810926, -87.38979733196044 17.3453624558171 M-86.23923484701086 18.533412684464324 C-86.48750576757463 18.277052575560575, -86.7357766881384 18.020692466656822, -87.38979733196044 17.3453624558171 M-87.38979733196044 17.3453624558171 C-87.61355755719661 17.08252096293718, -87.83731778243279 16.819679470057263, -88.46187722338968 16.08603641227036 M-87.38979733196044 17.3453624558171 C-87.81715494095162 16.843363890959225, -88.24451254994281 16.341365326101347, -88.46187722338968 16.08603641227036 M-88.46187722338968 16.08603641227036 C-88.71315345066762 15.749349159453141, -88.96442967794557 15.41266190663592, -89.45106911506427 14.760609394661614 M-88.46187722338968 16.08603641227036 C-88.7497328643719 15.700336077542559, -89.03758850535412 15.314635742814756, -89.45106911506427 14.760609394661614 M-89.45106911506427 14.760609394661614 C-89.64943703387937 14.45586300211703, -89.84780495269446 14.151116609572444, -90.35330820532036 13.374527866909418 M-89.45106911506427 14.760609394661614 C-89.77935508225369 14.256273991933325, -90.1076410494431 13.751938589205034, -90.35330820532036 13.374527866909418 M-90.35330820532036 13.374527866909418 C-90.51603142568939 13.085596311631383, -90.67875464605842 12.796664756353348, -91.16488700020639 11.933487535324842 M-90.35330820532036 13.374527866909418 C-90.67750319908272 12.798886827181432, -91.0016981928451 12.223245787453447, -91.16488700020639 11.933487535324842 M-91.16488700020639 11.933487535324842 C-91.44504476303894 11.351733946387245, -91.72520252587148 10.769980357449649, -91.88247054837109 10.443409943732586 M-91.16488700020639 11.933487535324842 C-91.363328562547 11.521419385155333, -91.56177012488762 11.109351234985825, -91.88247054837109 10.443409943732586 M-91.88247054837109 10.443409943732586 C-92.08741396666166 9.937195738243426, -92.29235738495223 9.430981532754265, -92.50311014509381 8.910418140577127 M-91.88247054837109 10.443409943732586 C-92.06953318717476 9.981361609277451, -92.25659582597841 9.519313274822315, -92.50311014509381 8.910418140577127 M-92.50311014509381 8.910418140577127 C-92.66030069049768 8.43698526273293, -92.81749123590154 7.963552384888735, -93.0242554491449 7.340811518003316 M-92.50311014509381 8.910418140577127 C-92.6239991010606 8.546319866244588, -92.7448880570274 8.18222159191205, -93.0242554491449 7.340811518003316 M-93.0242554491449 7.340811518003316 C-93.16810211642839 6.792261832111437, -93.31194878371187 6.2437121462195595, -93.44376496268467 5.741039926302918 M-93.0242554491449 7.340811518003316 C-93.11616634377062 6.990315442361745, -93.20807723839634 6.639819366720174, -93.44376496268467 5.741039926302918 M-93.44376496268467 5.741039926302918 C-93.51739301062321 5.36297546143193, -93.59102105856176 4.9849109965609415, -93.75991483113748 4.117677170096139 M-93.44376496268467 5.741039926302918 C-93.54965745131642 5.197304377564269, -93.65554993994817 4.653568828825619, -93.75991483113748 4.117677170096139 M-93.75991483113748 4.117677170096139 C-93.83451160008197 3.5391193609608593, -93.90910836902646 2.9605615518255792, -93.97140592687991 2.477393995158454 M-93.75991483113748 4.117677170096139 C-93.82467357815781 3.615421116267422, -93.88943232517815 3.1131650624387044, -93.97140592687991 2.477393995158454 M-93.97140592687991 2.477393995158454 C-93.99898577211736 2.047815643534667, -94.02656561735482 1.6182372919108792, -94.07736918763487 0.8269306768952934 M-93.97140592687991 2.477393995158454 C-94.0058728859788 1.9405432859645395, -94.0403398450777 1.403692576770625, -94.07736918763487 0.8269306768952934 M-94.07736918763487 0.8269306768952934 C-94.07736918763487 0.2032003513798618, -94.07736918763487 -0.4205299741355698, -94.07736918763487 -0.8269306768952809 M-94.07736918763487 0.8269306768952934 C-94.07736918763487 0.35357747291969455, -94.07736918763487 -0.11977573105590433, -94.07736918763487 -0.8269306768952809 M-94.07736918763487 -0.8269306768952809 C-94.05175658618579 -1.2258676185845037, -94.0261439847367 -1.6248045602737267, -93.97140592687991 -2.4773939951584185 M-94.07736918763487 -0.8269306768952809 C-94.03941820952019 -1.4180477945094712, -94.00146723140553 -2.009164912123661, -93.97140592687991 -2.4773939951584185 M-93.97140592687991 -2.4773939951584185 C-93.92608614542866 -2.828885270691263, -93.8807663639774 -3.180376546224107, -93.75991483113748 -4.117677170096128 M-93.97140592687991 -2.4773939951584185 C-93.89508469879148 -3.0693263688811263, -93.81876347070305 -3.661258742603834, -93.75991483113748 -4.117677170096128 M-93.75991483113748 -4.117677170096128 C-93.66786225721728 -4.590347681857947, -93.57580968329708 -5.063018193619766, -93.44376496268467 -5.741039926302906 M-93.75991483113748 -4.117677170096128 C-93.6412117926061 -4.727192185058685, -93.5225087540747 -5.336707200021243, -93.44376496268467 -5.741039926302906 M-93.44376496268467 -5.741039926302906 C-93.3089491716808 -6.255150966934119, -93.1741333806769 -6.769262007565333, -93.0242554491449 -7.340811518003303 M-93.44376496268467 -5.741039926302906 C-93.31052926022957 -6.249125404482879, -93.17729355777449 -6.757210882662852, -93.0242554491449 -7.340811518003303 M-93.0242554491449 -7.340811518003303 C-92.82932161874062 -7.9279211566929515, -92.63438778833634 -8.5150307953826, -92.50311014509383 -8.910418140577093 M-93.0242554491449 -7.340811518003303 C-92.8713499027528 -7.801338661545961, -92.71844435636069 -8.261865805088618, -92.50311014509383 -8.910418140577093 M-92.50311014509383 -8.910418140577093 C-92.33751213992868 -9.319448414954628, -92.17191413476354 -9.728478689332164, -91.88247054837109 -10.443409943732574 M-92.50311014509383 -8.910418140577093 C-92.30999428538487 -9.387418047699366, -92.11687842567592 -9.86441795482164, -91.88247054837109 -10.443409943732574 M-91.88247054837109 -10.443409943732574 C-91.7157823804585 -10.789541490958488, -91.54909421254592 -11.1356730381844, -91.1648870002064 -11.933487535324831 M-91.88247054837109 -10.443409943732574 C-91.60552864579148 -11.018485730046589, -91.32858674321186 -11.593561516360605, -91.1648870002064 -11.933487535324831 M-91.1648870002064 -11.933487535324831 C-90.87755363116 -12.443677027725371, -90.59022026211359 -12.953866520125912, -90.35330820532036 -13.374527866909409 M-91.1648870002064 -11.933487535324831 C-90.9028375673072 -12.398782838819852, -90.64078813440798 -12.864078142314872, -90.35330820532036 -13.374527866909409 M-90.35330820532036 -13.374527866909409 C-90.04966952995888 -13.840998410665431, -89.74603085459741 -14.307468954421454, -89.45106911506429 -14.760609394661605 M-90.35330820532036 -13.374527866909409 C-90.0791305081259 -13.795738436820546, -89.80495281093145 -14.216949006731683, -89.45106911506429 -14.760609394661605 M-89.45106911506429 -14.760609394661605 C-89.22251515627036 -15.066850877751467, -88.99396119747645 -15.373092360841328, -88.46187722338968 -16.086036412270353 M-89.45106911506429 -14.760609394661605 C-89.20309507543615 -15.09287201686356, -88.955121035808 -15.425134639065512, -88.46187722338968 -16.086036412270353 M-88.46187722338968 -16.086036412270353 C-88.17614024733828 -16.42167932323486, -87.89040327128689 -16.757322234199364, -87.38979733196045 -17.345362455817092 M-88.46187722338968 -16.086036412270353 C-88.18552487336933 -16.410655607498438, -87.90917252334899 -16.735274802726522, -87.38979733196045 -17.345362455817092 M-87.38979733196045 -17.345362455817092 C-87.13659719355324 -17.6068123868405, -86.88339705514605 -17.86826231786391, -86.23923484701089 -18.5334126844643 M-87.38979733196045 -17.345362455817092 C-86.93772584246784 -17.81216338447776, -86.48565435297523 -18.278964313138427, -86.23923484701089 -18.5334126844643 M-86.23923484701089 -18.5334126844643 C-85.95803157825506 -18.78879405291757, -85.67682830949921 -19.04417542137084, -85.01491767658653 -19.645305144986487 M-86.23923484701089 -18.5334126844643 C-85.9447009566077 -18.800900570788777, -85.6501670662045 -19.068388457113254, -85.01491767658653 -19.645305144986487 M-85.01491767658653 -19.645305144986487 C-84.62741836157545 -19.954325536917985, -84.23991904656437 -20.263345928849485, -83.72187680255585 -20.676470832763204 M-85.01491767658653 -19.645305144986487 C-84.62419941157722 -19.956892563881716, -84.23348114656791 -20.268479982776945, -83.72187680255585 -20.676470832763204 M-83.72187680255585 -20.676470832763204 C-83.25299779053012 -21.003540534107064, -82.78411877850438 -21.33061023545092, -82.36542560722665 -21.622672466799 M-83.72187680255585 -20.676470832763204 C-83.27422424129608 -20.988733880930976, -82.8265716800363 -21.300996929098744, -82.36542560722665 -21.622672466799 M-82.36542560722665 -21.622672466799 C-81.82819929613403 -21.948342213675588, -81.2909729850414 -22.274011960552176, -80.95113803951841 -22.480021901620027 M-82.36542560722665 -21.622672466799 C-82.05380660788407 -21.811577735476984, -81.74218760854149 -22.00048300415497, -80.95113803951841 -22.480021901620027 M-80.95113803951841 -22.480021901620027 C-80.57259485077553 -22.67750764071871, -80.19405166203263 -22.87499337981739, -79.48482571041058 -23.244996104497716 M-80.95113803951841 -22.480021901620027 C-80.45706253013456 -22.737780778395116, -79.9629870207507 -22.995539655170205, -79.48482571041058 -23.244996104497716 M-79.48482571041058 -23.244996104497716 C-78.93394383116438 -23.488855171109666, -78.3830619519182 -23.732714237721616, -77.97251401178646 -23.91445163234599 M-79.48482571041058 -23.244996104497716 C-78.88306782991253 -23.5113764676809, -78.2813099494145 -23.77775683086409, -77.97251401178646 -23.91445163234599 M-77.97251401178646 -23.91445163234599 C-77.46883783917946 -24.099809119796866, -76.96516166657247 -24.28516660724774, -76.42041735680553 -24.485637548803172 M-77.97251401178646 -23.91445163234599 C-77.61997453481142 -24.044189418712005, -77.2674350578364 -24.17392720507802, -76.42041735680553 -24.485637548803172 M-76.42041735680553 -24.485637548803172 C-75.97297569067977 -24.61843588664006, -75.52553402455403 -24.751234224476953, -74.83491364354681 -24.956206728419538 M-76.42041735680553 -24.485637548803172 C-75.96110716580519 -24.621958402523685, -75.50179697480483 -24.758279256244197, -74.83491364354681 -24.956206728419538 M-74.83491364354681 -24.956206728419538 C-74.3697422727801 -25.06237905827016, -73.9045709020134 -25.168551388120783, -73.22251804685754 -25.324225501499278 M-74.83491364354681 -24.956206728419538 C-74.46883598833547 -25.039761564341575, -74.10275833312413 -25.12331640026361, -73.22251804685754 -25.324225501499278 M-73.22251804685754 -25.324225501499278 C-72.67582753468561 -25.412610183858995, -72.12913702251366 -25.500994866218715, -71.58985624610233 -25.588181599964017 M-73.22251804685754 -25.324225501499278 C-72.62917360303344 -25.420152829721875, -72.03582915920931 -25.516080157944472, -71.58985624610233 -25.588181599964017 M-71.58985624610233 -25.588181599964017 C-71.13783851954597 -25.631787206414057, -70.68582079298959 -25.6753928128641, -69.94363719882529 -25.746990371586765 M-71.58985624610233 -25.588181599964017 C-71.20341196083123 -25.62546141539687, -70.81696767556012 -25.66274123082972, -69.94363719882529 -25.746990371586765 M-69.94363719882529 -25.746990371586765 C-69.5960369423143 -25.758137235250217, -69.24843668580333 -25.76928409891367, -68.2906255722046 -25.799999237060547 M-69.94363719882529 -25.746990371586765 C-69.43988332545689 -25.763144777808257, -68.9361294520885 -25.779299184029753, -68.2906255722046 -25.799999237060547 M-68.2906255722046 -25.799999237060547 C-68.2906255722046 -25.799999237060547, -68.29062557220459 -25.799999237060547, -68.29062557220459 -25.799999237060547 M-68.2906255722046 -25.799999237060547 C-68.2906255722046 -25.799999237060547, -68.29062557220459 -25.799999237060547, -68.29062557220459 -25.799999237060547" stroke="#555555" stroke-width="1.3" fill="none" stroke-dasharray="0 0" style=""></path></g><g class="label" style="" transform="translate(0, -18.299999237060547)"><rect></rect><g><rect class="background" style="stroke: none"></rect><text y="-10.1" style=""><tspan class="text-outer-tspan row" x="0" y="-0.1em" dy="1.1em"><tspan font-style="normal" class="text-inner-tspan" font-weight="normal">Request</tspan><tspan font-style="normal" class="text-inner-tspan" font-weight="normal"> entered</tspan><tspan font-style="normal" class="text-inner-tspan" font-weight="normal"> fetch</tspan></tspan><tspan class="text-outer-tspan row" x="0" y="1em" dy="1.1em"><tspan font-style="normal" class="text-inner-tspan" font-weight="normal">handler</tspan></tspan></text></g></g></g><g class="node default" id="gd836d08e-00be-4445-a494-6f03ed0e3267-dark-flowchart-Mut-1" data-look="classic" transform="translate(276.0835952758789, 213.32186889648438)"><polygon points="103.72187423706055,0 207.4437484741211,-103.72187423706055 103.72187423706055,-207.4437484741211 0,-103.72187423706055" class="label-container" transform="translate(-103.22187423706055, 103.72187423706055)"></polygon><g class="label" style="" transform="translate(0, -18.299999237060547)"><rect></rect><g><rect class="background" style="stroke: none"></rect><text y="-10.1" style=""><tspan class="text-outer-tspan row" x="0" y="-0.1em" dy="1.1em"><tspan font-style="normal" class="text-inner-tspan" font-weight="normal">Mutating</tspan><tspan font-style="normal" class="text-inner-tspan" font-weight="normal"> method</tspan></tspan><tspan class="text-outer-tspan row" x="0" y="1em" dy="1.1em"><tspan font-style="normal" class="text-inner-tspan" font-weight="normal">POST/PUT/DELETE?</tspan></tspan></text></g></g></g><g class="node default" id="gd836d08e-00be-4445-a494-6f03ed0e3267-dark-flowchart-NetOnly-3" data-look="classic" transform="translate(135, 495.21092987060547)"><rect class="basic label-container" style="" x="-127" y="-42.099998474121094" width="254" height="84.19999694824219"></rect><g class="label" style="" transform="translate(0, -27.099998474121094)"><rect></rect><g><rect class="background" style="stroke: none"></rect><text y="-10.1" style=""><tspan class="text-outer-tspan row" x="0" y="-0.1em" dy="1.1em"><tspan font-style="normal" class="text-inner-tspan" font-weight="normal">Network-only</tspan></tspan><tspan class="text-outer-tspan row" x="0" y="1em" dy="1.1em"><tspan font-style="normal" class="text-inner-tspan" font-weight="normal">queue</tspan><tspan font-style="normal" class="text-inner-tspan" font-weight="normal"> for</tspan><tspan font-style="normal" class="text-inner-tspan" font-weight="normal"> Background</tspan><tspan font-style="normal" class="text-inner-tspan" font-weight="normal"> Sync</tspan></tspan><tspan class="text-outer-tspan row" x="0" y="2.1em" dy="1.1em"><tspan font-style="normal" class="text-inner-tspan" font-weight="normal">if</tspan><tspan font-style="normal" class="text-inner-tspan" font-weight="normal"> a</tspan><tspan font-style="normal" class="text-inner-tspan" font-weight="normal"> write</tspan><tspan font-style="normal" class="text-inner-tspan" font-weight="normal"> may</tspan><tspan font-style="normal" class="text-inner-tspan" font-weight="normal"> retry</tspan></tspan></text></g></g></g><g class="node default" id="gd836d08e-00be-4445-a494-6f03ed0e3267-dark-flowchart-Vers-5" data-look="classic" transform="translate(417.1671905517578, 495.21092987060547)"><polygon points="105.16718673706055,0 210.3343734741211,-105.16718673706055 105.16718673706055,-210.3343734741211 0,-105.16718673706055" class="label-container" transform="translate(-104.66718673706055, 105.16718673706055)"></polygon><g class="label" style="" transform="translate(0, -18.299999237060547)"><rect></rect><g><rect class="background" style="stroke: none"></rect><text y="-10.1" style=""><tspan class="text-outer-tspan row" x="0" y="-0.1em" dy="1.1em"><tspan font-style="normal" class="text-inner-tspan" font-weight="normal">Versioned</tspan><tspan font-style="normal" class="text-inner-tspan" font-weight="normal"> URL</tspan></tspan><tspan class="text-outer-tspan row" x="0" y="1em" dy="1.1em"><tspan font-style="normal" class="text-inner-tspan" font-weight="normal">or</tspan><tspan font-style="normal" class="text-inner-tspan" font-weight="normal"> immutable</tspan><tspan font-style="normal" class="text-inner-tspan" font-weight="normal"> asset?</tspan></tspan></text></g></g></g><g class="node default" id="gd836d08e-00be-4445-a494-6f03ed0e3267-dark-flowchart-CacheFirst-7" data-look="classic" transform="translate(305.7984390258789, 761.6859359741211)"><rect class="basic label-container" style="" x="-84.4296875" y="-33.29999923706055" width="168.859375" height="66.5999984741211"></rect><g class="label" style="" transform="translate(0, -18.299999237060547)"><rect></rect><g><rect class="background" style="stroke: none"></rect><text y="-10.1" style=""><tspan class="text-outer-tspan row" x="0" y="-0.1em" dy="1.1em"><tspan font-style="normal" class="text-inner-tspan" font-weight="normal">Cache-first</tspan></tspan><tspan class="text-outer-tspan row" x="0" y="1em" dy="1.1em"><tspan font-style="normal" class="text-inner-tspan" font-weight="normal">+</tspan><tspan font-style="normal" class="text-inner-tspan" font-weight="normal"> long</tspan><tspan font-style="normal" class="text-inner-tspan" font-weight="normal"> max-age</tspan></tspan></text></g></g></g><g class="node default" id="gd836d08e-00be-4445-a494-6f03ed0e3267-dark-flowchart-Stale-9" data-look="classic" transform="translate(528.5359420776367, 761.6859359741211)"><polygon points="88.30781173706055,0 176.6156234741211,-88.30781173706055 88.30781173706055,-176.6156234741211 0,-88.30781173706055" class="label-container" transform="translate(-87.80781173706055, 88.30781173706055)"></polygon><g class="label" style="" transform="translate(0, -18.299999237060547)"><rect></rect><g><rect class="background" style="stroke: none"></rect><text y="-10.1" style=""><tspan class="text-outer-tspan row" x="0" y="-0.1em" dy="1.1em"><tspan font-style="normal" class="text-inner-tspan" font-weight="normal">Slight</tspan><tspan font-style="normal" class="text-inner-tspan" font-weight="normal"> staleness</tspan></tspan><tspan class="text-outer-tspan row" x="0" y="1em" dy="1.1em"><tspan font-style="normal" class="text-inner-tspan" font-weight="normal">acceptable?</tspan></tspan></text></g></g></g><g class="node default" id="gd836d08e-00be-4445-a494-6f03ed0e3267-dark-flowchart-SWR-11" data-look="classic" transform="translate(389.2687568664551, 1038.1374969482422)"><rect class="basic label-container" style="" x="-113.390625" y="-42.099998474121094" width="226.78125" height="84.19999694824219"></rect><g class="label" style="" transform="translate(0, -27.099998474121094)"><rect></rect><g><rect class="background" style="stroke: none"></rect><text y="-10.1" style=""><tspan class="text-outer-tspan row" x="0" y="-0.1em" dy="1.1em"><tspan font-style="normal" class="text-inner-tspan" font-weight="normal">Stale-while-revalidate</tspan></tspan><tspan class="text-outer-tspan row" x="0" y="1em" dy="1.1em"><tspan font-style="normal" class="text-inner-tspan" font-weight="normal">cache</tspan><tspan font-style="normal" class="text-inner-tspan" font-weight="normal"> hit</tspan><tspan font-style="normal" class="text-inner-tspan" font-weight="normal"> +</tspan><tspan font-style="normal" class="text-inner-tspan" font-weight="normal"> background</tspan></tspan><tspan class="text-outer-tspan row" x="0" y="2.1em" dy="1.1em"><tspan font-style="normal" class="text-inner-tspan" font-weight="normal">revalidate</tspan></tspan></text></g></g></g><g class="node default" id="gd836d08e-00be-4445-a494-6f03ed0e3267-dark-flowchart-Fresh-13" data-look="classic" transform="translate(667.8031272888184, 1038.1374969482422)"><polygon points="115.14374923706055,0 230.2874984741211,-115.14374923706055 115.14374923706055,-230.2874984741211 0,-115.14374923706055" class="label-container" transform="translate(-114.64374923706055, 115.14374923706055)"></polygon><g class="label" style="" transform="translate(0, -18.299999237060547)"><rect></rect><g><rect class="background" style="stroke: none"></rect><text y="-10.1" style=""><tspan class="text-outer-tspan row" x="0" y="-0.1em" dy="1.1em"><tspan font-style="normal" class="text-inner-tspan" font-weight="normal">Freshness</tspan><tspan font-style="normal" class="text-inner-tspan" font-weight="normal"> critical?</tspan></tspan><tspan class="text-outer-tspan row" x="0" y="1em" dy="1.1em"><tspan font-style="normal" class="text-inner-tspan" font-weight="normal">HTML</tspan><tspan font-style="normal" class="text-inner-tspan" font-weight="normal"> /</tspan><tspan font-style="normal" class="text-inner-tspan" font-weight="normal"> API</tspan><tspan font-style="normal" class="text-inner-tspan" font-weight="normal"> /</tspan><tspan font-style="normal" class="text-inner-tspan" font-weight="normal"> user</tspan><tspan font-style="normal" class="text-inner-tspan" font-weight="normal"> data</tspan></tspan></text></g></g></g><g class="node default" id="gd836d08e-00be-4445-a494-6f03ed0e3267-dark-flowchart-NetFirst-15" data-look="classic" transform="translate(527.9789085388184, 1268.3812408447266)"><rect class="basic label-container" style="" x="-117.3046875" y="-42.099998474121094" width="234.609375" height="84.19999694824219"></rect><g class="label" style="" transform="translate(0, -27.099998474121094)"><rect></rect><g><rect class="background" style="stroke: none"></rect><text y="-10.1" style=""><tspan class="text-outer-tspan row" x="0" y="-0.1em" dy="1.1em"><tspan font-style="normal" class="text-inner-tspan" font-weight="normal">Network-first</tspan></tspan><tspan class="text-outer-tspan row" x="0" y="1em" dy="1.1em"><tspan font-style="normal" class="text-inner-tspan" font-weight="normal">with</tspan><tspan font-style="normal" class="text-inner-tspan" font-weight="normal"> timeout</tspan><tspan font-style="normal" class="text-inner-tspan" font-weight="normal"> fallback</tspan><tspan font-style="normal" class="text-inner-tspan" font-weight="normal"> to</tspan></tspan><tspan class="text-outer-tspan row" x="0" y="2.1em" dy="1.1em"><tspan font-style="normal" class="text-inner-tspan" font-weight="normal">cache</tspan></tspan></text></g></g></g><g class="node default" id="gd836d08e-00be-4445-a494-6f03ed0e3267-dark-flowchart-CacheOnly-17" data-look="classic" transform="translate(807.6273460388184, 1268.3812408447266)"><rect class="basic label-container" style="" x="-112.34375" y="-33.29999923706055" width="224.6875" height="66.5999984741211"></rect><g class="label" style="" transform="translate(0, -18.299999237060547)"><rect></rect><g><rect class="background" style="stroke: none"></rect><text y="-10.1" style=""><tspan class="text-outer-tspan row" x="0" y="-0.1em" dy="1.1em"><tspan font-style="normal" class="text-inner-tspan" font-weight="normal">Cache-only</tspan></tspan><tspan class="text-outer-tspan row" x="0" y="1em" dy="1.1em"><tspan font-style="normal" class="text-inner-tspan" font-weight="normal">precached</tspan><tspan font-style="normal" class="text-inner-tspan" font-weight="normal"> offline</tspan><tspan font-style="normal" class="text-inner-tspan" font-weight="normal"> shell</tspan></tspan></text></g></g></g></g></g></g><defs><filter id="gd836d08e-00be-4445-a494-6f03ed0e3267-dark-drop-shadow" height="130%" width="130%"><feDropShadow dx="4" dy="4" stdDeviation="0" flood-opacity="0.06" flood-color="#000000"></feDropShadow></filter></defs><defs><filter id="gd836d08e-00be-4445-a494-6f03ed0e3267-dark-drop-shadow-small" height="150%" width="150%"><feDropShadow dx="2" dy="2" stdDeviation="0" flood-opacity="0.06" flood-color="#000000"></feDropShadow></filter></defs><linearGradient id="gd836d08e-00be-4445-a494-6f03ed0e3267-dark-gradient" gradientUnits="objectBoundingBox" x1="0%" y1="0%" x2="100%" y2="0%"><stop offset="0%" stop-color="#555555" stop-opacity="1"></stop><stop offset="100%" stop-color="#555555" stop-opacity="1"></stop></linearGradient></svg>