<svg id="g81fbcc03-b7d8-4c30-9354-085a24325077-dark" width="100%" xmlns="http://www.w3.org/2000/svg" xmlns:xlink="http://www.w3.org/1999/xlink" class="flowchart" style="max-width: 659.6007690429688px;" viewBox="0 0 659.6007690429688 996.3968505859375" role="graphics-document document" aria-roledescription="flowchart-v2"><style>#g81fbcc03-b7d8-4c30-9354-085a24325077-dark{font-family:"trebuchet ms",verdana,arial,sans-serif;font-size:16px;fill:#e5e5e5;}@keyframes edge-animation-frame{from{stroke-dashoffset:0;}}@keyframes dash{to{stroke-dashoffset:0;}}#g81fbcc03-b7d8-4c30-9354-085a24325077-dark .edge-animation-slow{stroke-dasharray:9,5!important;stroke-dashoffset:900;animation:dash 50s linear infinite;stroke-linecap:round;}#g81fbcc03-b7d8-4c30-9354-085a24325077-dark .edge-animation-fast{stroke-dasharray:9,5!important;stroke-dashoffset:900;animation:dash 20s linear infinite;stroke-linecap:round;}#g81fbcc03-b7d8-4c30-9354-085a24325077-dark .error-icon{fill:#252525;}#g81fbcc03-b7d8-4c30-9354-085a24325077-dark .error-text{fill:#cccccc;stroke:#cccccc;}#g81fbcc03-b7d8-4c30-9354-085a24325077-dark .edge-thickness-normal{stroke-width:1px;}#g81fbcc03-b7d8-4c30-9354-085a24325077-dark .edge-thickness-thick{stroke-width:3.5px;}#g81fbcc03-b7d8-4c30-9354-085a24325077-dark .edge-pattern-solid{stroke-dasharray:0;}#g81fbcc03-b7d8-4c30-9354-085a24325077-dark .edge-thickness-invisible{stroke-width:0;fill:none;}#g81fbcc03-b7d8-4c30-9354-085a24325077-dark .edge-pattern-dashed{stroke-dasharray:3;}#g81fbcc03-b7d8-4c30-9354-085a24325077-dark .edge-pattern-dotted{stroke-dasharray:2;}#g81fbcc03-b7d8-4c30-9354-085a24325077-dark .marker{fill:#cccccc;stroke:#cccccc;}#g81fbcc03-b7d8-4c30-9354-085a24325077-dark .marker.cross{stroke:#cccccc;}#g81fbcc03-b7d8-4c30-9354-085a24325077-dark svg{font-family:"trebuchet ms",verdana,arial,sans-serif;font-size:16px;}#g81fbcc03-b7d8-4c30-9354-085a24325077-dark p{margin:0;}#g81fbcc03-b7d8-4c30-9354-085a24325077-dark .label{font-family:"trebuchet ms",verdana,arial,sans-serif;color:#e5e5e5;}#g81fbcc03-b7d8-4c30-9354-085a24325077-dark .cluster-label text{fill:#e5e5e5;}#g81fbcc03-b7d8-4c30-9354-085a24325077-dark .cluster-label span{color:#e5e5e5;}#g81fbcc03-b7d8-4c30-9354-085a24325077-dark .cluster-label span p{background-color:transparent;}#g81fbcc03-b7d8-4c30-9354-085a24325077-dark .label text,#g81fbcc03-b7d8-4c30-9354-085a24325077-dark span{fill:#e5e5e5;color:#e5e5e5;}#g81fbcc03-b7d8-4c30-9354-085a24325077-dark .node rect,#g81fbcc03-b7d8-4c30-9354-085a24325077-dark .node circle,#g81fbcc03-b7d8-4c30-9354-085a24325077-dark .node ellipse,#g81fbcc03-b7d8-4c30-9354-085a24325077-dark .node polygon,#g81fbcc03-b7d8-4c30-9354-085a24325077-dark .node path{fill:#2d2d2d;stroke:#555555;stroke-width:1px;}#g81fbcc03-b7d8-4c30-9354-085a24325077-dark .rough-node .label text,#g81fbcc03-b7d8-4c30-9354-085a24325077-dark .node .label text,#g81fbcc03-b7d8-4c30-9354-085a24325077-dark .image-shape .label,#g81fbcc03-b7d8-4c30-9354-085a24325077-dark .icon-shape .label{text-anchor:middle;}#g81fbcc03-b7d8-4c30-9354-085a24325077-dark .node .katex path{fill:#000;stroke:#000;stroke-width:1px;}#g81fbcc03-b7d8-4c30-9354-085a24325077-dark .rough-node .label,#g81fbcc03-b7d8-4c30-9354-085a24325077-dark .node .label,#g81fbcc03-b7d8-4c30-9354-085a24325077-dark .image-shape .label,#g81fbcc03-b7d8-4c30-9354-085a24325077-dark .icon-shape .label{text-align:center;}#g81fbcc03-b7d8-4c30-9354-085a24325077-dark .node.clickable{cursor:pointer;}#g81fbcc03-b7d8-4c30-9354-085a24325077-dark .root .anchor path{fill:#cccccc!important;stroke-width:0;stroke:#cccccc;}#g81fbcc03-b7d8-4c30-9354-085a24325077-dark .arrowheadPath{fill:#cccccc;}#g81fbcc03-b7d8-4c30-9354-085a24325077-dark .edgePath .path{stroke:#cccccc;stroke-width:1px;}#g81fbcc03-b7d8-4c30-9354-085a24325077-dark .flowchart-link{stroke:#cccccc;fill:none;}#g81fbcc03-b7d8-4c30-9354-085a24325077-dark .edgeLabel{background-color:#1e1e1e;text-align:center;}#g81fbcc03-b7d8-4c30-9354-085a24325077-dark .edgeLabel p{background-color:#1e1e1e;}#g81fbcc03-b7d8-4c30-9354-085a24325077-dark .edgeLabel rect{opacity:0.5;background-color:#1e1e1e;fill:#1e1e1e;}#g81fbcc03-b7d8-4c30-9354-085a24325077-dark .labelBkg{background-color:rgba(30, 30, 30, 0.5);}#g81fbcc03-b7d8-4c30-9354-085a24325077-dark .cluster rect{fill:#1e1e1e;stroke:#555555;stroke-width:1px;}#g81fbcc03-b7d8-4c30-9354-085a24325077-dark .cluster text{fill:#e5e5e5;}#g81fbcc03-b7d8-4c30-9354-085a24325077-dark .cluster span{color:#e5e5e5;}#g81fbcc03-b7d8-4c30-9354-085a24325077-dark div.mermaidTooltip{position:absolute;text-align:center;max-width:200px;padding:2px;font-family:"trebuchet ms",verdana,arial,sans-serif;font-size:12px;background:#252525;border:1px solid #555555;border-radius:2px;pointer-events:none;z-index:100;}#g81fbcc03-b7d8-4c30-9354-085a24325077-dark .flowchartTitleText{text-anchor:middle;font-size:18px;fill:#e5e5e5;}#g81fbcc03-b7d8-4c30-9354-085a24325077-dark rect.text{fill:none;stroke-width:0;}#g81fbcc03-b7d8-4c30-9354-085a24325077-dark .icon-shape,#g81fbcc03-b7d8-4c30-9354-085a24325077-dark .image-shape{background-color:#1e1e1e;text-align:center;}#g81fbcc03-b7d8-4c30-9354-085a24325077-dark .icon-shape p,#g81fbcc03-b7d8-4c30-9354-085a24325077-dark .image-shape p{background-color:#1e1e1e;padding:2px;}#g81fbcc03-b7d8-4c30-9354-085a24325077-dark .icon-shape .label rect,#g81fbcc03-b7d8-4c30-9354-085a24325077-dark .image-shape .label rect{opacity:0.5;background-color:#1e1e1e;fill:#1e1e1e;}#g81fbcc03-b7d8-4c30-9354-085a24325077-dark .label-icon{display:inline-block;height:1em;overflow:visible;vertical-align:-0.125em;}#g81fbcc03-b7d8-4c30-9354-085a24325077-dark .node .label-icon path{fill:currentColor;stroke:revert;stroke-width:revert;}#g81fbcc03-b7d8-4c30-9354-085a24325077-dark .node .neo-node{stroke:#555555;}#g81fbcc03-b7d8-4c30-9354-085a24325077-dark [data-look="neo"].node rect,#g81fbcc03-b7d8-4c30-9354-085a24325077-dark [data-look="neo"].cluster rect,#g81fbcc03-b7d8-4c30-9354-085a24325077-dark [data-look="neo"].node polygon{stroke:url(#g81fbcc03-b7d8-4c30-9354-085a24325077-dark-gradient);filter:drop-shadow( 1px 2px 2px rgba(185,185,185,1));}#g81fbcc03-b7d8-4c30-9354-085a24325077-dark [data-look="neo"].node path{stroke:url(#g81fbcc03-b7d8-4c30-9354-085a24325077-dark-gradient);stroke-width:1px;}#g81fbcc03-b7d8-4c30-9354-085a24325077-dark [data-look="neo"].node .outer-path{filter:drop-shadow( 1px 2px 2px rgba(185,185,185,1));}#g81fbcc03-b7d8-4c30-9354-085a24325077-dark [data-look="neo"].node .neo-line path{stroke:#555555;filter:none;}#g81fbcc03-b7d8-4c30-9354-085a24325077-dark [data-look="neo"].node circle{stroke:url(#g81fbcc03-b7d8-4c30-9354-085a24325077-dark-gradient);filter:drop-shadow( 1px 2px 2px rgba(185,185,185,1));}#g81fbcc03-b7d8-4c30-9354-085a24325077-dark [data-look="neo"].node circle .state-start{fill:#000000;}#g81fbcc03-b7d8-4c30-9354-085a24325077-dark [data-look="neo"].icon-shape .icon{fill:url(#g81fbcc03-b7d8-4c30-9354-085a24325077-dark-gradient);filter:drop-shadow( 1px 2px 2px rgba(185,185,185,1));}#g81fbcc03-b7d8-4c30-9354-085a24325077-dark [data-look="neo"].icon-shape .icon-neo path{stroke:url(#g81fbcc03-b7d8-4c30-9354-085a24325077-dark-gradient);filter:drop-shadow( 1px 2px 2px rgba(185,185,185,1));}#g81fbcc03-b7d8-4c30-9354-085a24325077-dark :root{--mermaid-font-family:"trebuchet ms",verdana,arial,sans-serif;}#g81fbcc03-b7d8-4c30-9354-085a24325077-dark .hit rect{fill:#dcfce7!important;stroke:#15803d!important;color:#0f172a!important;}#g81fbcc03-b7d8-4c30-9354-085a24325077-dark .hit polygon{fill:#dcfce7!important;stroke:#15803d!important;color:#0f172a!important;}#g81fbcc03-b7d8-4c30-9354-085a24325077-dark .hit ellipse{fill:#dcfce7!important;stroke:#15803d!important;color:#0f172a!important;}#g81fbcc03-b7d8-4c30-9354-085a24325077-dark .hit circle{fill:#dcfce7!important;stroke:#15803d!important;color:#0f172a!important;}#g81fbcc03-b7d8-4c30-9354-085a24325077-dark .hit path{fill:#dcfce7!important;stroke:#15803d!important;color:#0f172a!important;}#g81fbcc03-b7d8-4c30-9354-085a24325077-dark .hit tspan{fill:#0f172a!important;}#g81fbcc03-b7d8-4c30-9354-085a24325077-dark .miss rect{fill:#fef3c7!important;stroke:#b45309!important;color:#0f172a!important;}#g81fbcc03-b7d8-4c30-9354-085a24325077-dark .miss polygon{fill:#fef3c7!important;stroke:#b45309!important;color:#0f172a!important;}#g81fbcc03-b7d8-4c30-9354-085a24325077-dark .miss ellipse{fill:#fef3c7!important;stroke:#b45309!important;color:#0f172a!important;}#g81fbcc03-b7d8-4c30-9354-085a24325077-dark .miss circle{fill:#fef3c7!important;stroke:#b45309!important;color:#0f172a!important;}#g81fbcc03-b7d8-4c30-9354-085a24325077-dark .miss path{fill:#fef3c7!important;stroke:#b45309!important;color:#0f172a!important;}#g81fbcc03-b7d8-4c30-9354-085a24325077-dark .miss tspan{fill:#0f172a!important;}#g81fbcc03-b7d8-4c30-9354-085a24325077-dark .bypass rect{fill:#fee2e2!important;stroke:#b91c1c!important;color:#0f172a!important;}#g81fbcc03-b7d8-4c30-9354-085a24325077-dark .bypass polygon{fill:#fee2e2!important;stroke:#b91c1c!important;color:#0f172a!important;}#g81fbcc03-b7d8-4c30-9354-085a24325077-dark .bypass ellipse{fill:#fee2e2!important;stroke:#b91c1c!important;color:#0f172a!important;}#g81fbcc03-b7d8-4c30-9354-085a24325077-dark .bypass circle{fill:#fee2e2!important;stroke:#b91c1c!important;color:#0f172a!important;}#g81fbcc03-b7d8-4c30-9354-085a24325077-dark .bypass path{fill:#fee2e2!important;stroke:#b91c1c!important;color:#0f172a!important;}#g81fbcc03-b7d8-4c30-9354-085a24325077-dark .bypass tspan{fill:#0f172a!important;}</style><g><marker id="g81fbcc03-b7d8-4c30-9354-085a24325077-dark_flowchart-v2-pointEnd" class="marker flowchart-v2" viewBox="0 0 10 10" refX="5" refY="5" markerUnits="userSpaceOnUse" markerWidth="8" markerHeight="8" orient="auto"><path d="M 0 0 L 10 5 L 0 10 z" class="arrowMarkerPath" style="stroke-width: 1; stroke-dasharray: 1, 0;"></path></marker><marker id="g81fbcc03-b7d8-4c30-9354-085a24325077-dark_flowchart-v2-pointStart" class="marker flowchart-v2" viewBox="0 0 10 10" refX="4.5" refY="5" markerUnits="userSpaceOnUse" markerWidth="8" markerHeight="8" orient="auto"><path d="M 0 5 L 10 10 L 10 0 z" class="arrowMarkerPath" style="stroke-width: 1; stroke-dasharray: 1, 0;"></path></marker><marker id="g81fbcc03-b7d8-4c30-9354-085a24325077-dark_flowchart-v2-pointEnd-margin" class="marker flowchart-v2" viewBox="0 0 11.5 14" refX="11.5" refY="7" markerUnits="userSpaceOnUse" markerWidth="10.5" markerHeight="14" orient="auto"><path d="M 0 0 L 11.5 7 L 0 14 z" class="arrowMarkerPath" style="stroke-width: 0; stroke-dasharray: 1, 0;"></path></marker><marker id="g81fbcc03-b7d8-4c30-9354-085a24325077-dark_flowchart-v2-pointStart-margin" class="marker flowchart-v2" viewBox="0 0 11.5 14" refX="1" refY="7" markerUnits="userSpaceOnUse" markerWidth="11.5" markerHeight="14" orient="auto"><polygon points="0,7 11.5,14 11.5,0" class="arrowMarkerPath" style="stroke-width: 0; stroke-dasharray: 1, 0;"></polygon></marker><marker id="g81fbcc03-b7d8-4c30-9354-085a24325077-dark_flowchart-v2-circleEnd" class="marker flowchart-v2" viewBox="0 0 10 10" refX="11" refY="5" markerUnits="userSpaceOnUse" markerWidth="11" markerHeight="11" orient="auto"><circle cx="5" cy="5" r="5" class="arrowMarkerPath" style="stroke-width: 1; stroke-dasharray: 1, 0;"></circle></marker><marker id="g81fbcc03-b7d8-4c30-9354-085a24325077-dark_flowchart-v2-circleStart" class="marker flowchart-v2" viewBox="0 0 10 10" refX="-1" refY="5" markerUnits="userSpaceOnUse" markerWidth="11" markerHeight="11" orient="auto"><circle cx="5" cy="5" r="5" class="arrowMarkerPath" style="stroke-width: 1; stroke-dasharray: 1, 0;"></circle></marker><marker id="g81fbcc03-b7d8-4c30-9354-085a24325077-dark_flowchart-v2-circleEnd-margin" class="marker flowchart-v2" viewBox="0 0 10 10" refY="5" refX="12.25" markerUnits="userSpaceOnUse" markerWidth="14" markerHeight="14" orient="auto"><circle cx="5" cy="5" r="5" class="arrowMarkerPath" style="stroke-width: 0; stroke-dasharray: 1, 0;"></circle></marker><marker id="g81fbcc03-b7d8-4c30-9354-085a24325077-dark_flowchart-v2-circleStart-margin" class="marker flowchart-v2" viewBox="0 0 10 10" refX="-2" refY="5" markerUnits="userSpaceOnUse" markerWidth="14" markerHeight="14" orient="auto"><circle cx="5" cy="5" r="5" class="arrowMarkerPath" style="stroke-width: 0; stroke-dasharray: 1, 0;"></circle></marker><marker id="g81fbcc03-b7d8-4c30-9354-085a24325077-dark_flowchart-v2-crossEnd" class="marker cross flowchart-v2" viewBox="0 0 11 11" refX="12" refY="5.2" markerUnits="userSpaceOnUse" markerWidth="11" markerHeight="11" orient="auto"><path d="M 1,1 l 9,9 M 10,1 l -9,9" class="arrowMarkerPath" style="stroke-width: 2; stroke-dasharray: 1, 0;"></path></marker><marker id="g81fbcc03-b7d8-4c30-9354-085a24325077-dark_flowchart-v2-crossStart" class="marker cross flowchart-v2" viewBox="0 0 11 11" refX="-1" refY="5.2" markerUnits="userSpaceOnUse" markerWidth="11" markerHeight="11" orient="auto"><path d="M 1,1 l 9,9 M 10,1 l -9,9" class="arrowMarkerPath" style="stroke-width: 2; stroke-dasharray: 1, 0;"></path></marker><marker id="g81fbcc03-b7d8-4c30-9354-085a24325077-dark_flowchart-v2-crossEnd-margin" class="marker cross flowchart-v2" viewBox="0 0 15 15" refX="17.7" refY="7.5" markerUnits="userSpaceOnUse" markerWidth="12" markerHeight="12" orient="auto"><path d="M 1,1 L 14,14 M 1,14 L 14,1" class="arrowMarkerPath" style="stroke-width: 2.5;"></path></marker><marker id="g81fbcc03-b7d8-4c30-9354-085a24325077-dark_flowchart-v2-crossStart-margin" class="marker cross flowchart-v2" viewBox="0 0 15 15" refX="-3.5" refY="7.5" markerUnits="userSpaceOnUse" markerWidth="12" markerHeight="12" orient="auto"><path d="M 1,1 L 14,14 M 1,14 L 14,1" class="arrowMarkerPath" style="stroke-width: 2.5; stroke-dasharray: 1, 0;"></path></marker><g class="root"><g class="clusters"></g><g class="edgePaths"><path d="M226.031,42.5L225.948,46.583C225.865,50.667,225.698,58.833,225.615,66.417C225.531,74,225.531,81,225.531,84.5L225.531,88" id="g81fbcc03-b7d8-4c30-9354-085a24325077-dark-L_REQ_KEY_0" class="edge-thickness-normal edge-pattern-solid edge-thickness-normal edge-pattern-solid flowchart-link" style=";" data-edge="true" data-et="edge" data-id="L_REQ_KEY_0" data-points="W3sieCI6MjI2LjAzMTI1LCJ5Ijo0Mi41fSx7IngiOjIyNS41MzEyNSwieSI6Njd9LHsieCI6MjI1LjUzMTI1LCJ5Ijo5Mn1d" data-look="classic" marker-end="url(#g81fbcc03-b7d8-4c30-9354-085a24325077-dark_flowchart-v2-pointEnd)"></path><path d="M225.531,158.6L225.531,162.767C225.531,166.933,225.531,175.267,225.531,182.933C225.531,190.6,225.531,197.6,225.531,201.1L225.531,204.6" id="g81fbcc03-b7d8-4c30-9354-085a24325077-dark-L_KEY_LOOK_0" class="edge-thickness-normal edge-pattern-solid edge-thickness-normal edge-pattern-solid flowchart-link" style=";" data-edge="true" data-et="edge" data-id="L_KEY_LOOK_0" data-points="W3sieCI6MjI1LjUzMTI1LCJ5IjoxNTguNTk5OTk4NDc0MTIxMX0seyJ4IjoyMjUuNTMxMjUsInkiOjE4My41OTk5OTg0NzQxMjExfSx7IngiOjIyNS41MzEyNSwieSI6MjA4LjU5OTk5ODQ3NDEyMTA3fV0=" data-look="classic" marker-end="url(#g81fbcc03-b7d8-4c30-9354-085a24325077-dark_flowchart-v2-pointEnd)"></path><path d="M178.301,314.798L155.946,328.753C133.591,342.708,88.882,370.618,66.527,396.206C44.172,421.795,44.172,445.061,44.172,466.411C44.172,487.761,44.172,507.195,44.172,537.592C44.172,567.99,44.172,609.351,44.172,652.629C44.172,695.907,44.172,741.102,44.172,773.866C44.172,806.63,44.172,826.964,44.172,845.38C44.172,863.797,44.172,880.297,61.784,893.729C79.395,907.161,114.619,917.526,132.231,922.708L149.842,927.89" id="g81fbcc03-b7d8-4c30-9354-085a24325077-dark-L_LOOK_SERVE_F_0" class="edge-thickness-normal edge-pattern-solid edge-thickness-normal edge-pattern-solid flowchart-link" style=";" data-edge="true" data-et="edge" data-id="L_LOOK_SERVE_F_0" data-points="W3sieCI6MTc4LjMwMDg3NTM1MTE3NTQ1LCJ5IjozMTQuNzk3NzM5NjcwMDIzMTN9LHsieCI6NDQuMTcxODc1LCJ5IjozOTguNTI4MTE0MzE4ODQ3NjZ9LHsieCI6NDQuMTcxODc1LCJ5Ijo0NjguMzI4MTEzNTU1OTA4Mn0seyJ4Ijo0NC4xNzE4NzUsInkiOjUyNi42MjgxMTI3OTI5Njg4fSx7IngiOjQ0LjE3MTg3NSwieSI6NjUwLjcxMjQ4NjI2NzA4OTh9LHsieCI6NDQuMTcxODc1LCJ5Ijo3ODYuMjk2ODU5NzQxMjEwOX0seyJ4Ijo0NC4xNzE4NzUsInkiOjg0Ny4yOTY4NTk3NDEyMTA5fSx7IngiOjQ0LjE3MTg3NSwieSI6ODk2Ljc5Njg1OTc0MTIxMDl9LHsieCI6MTUzLjY3OTY4NzUsInkiOjkyOS4wMTkyMTI1MzkwNDUzfV0=" data-look="classic" marker-end="url(#g81fbcc03-b7d8-4c30-9354-085a24325077-dark_flowchart-v2-pointEnd)"></path><path d="M225.531,362.028L225.531,368.111C225.531,374.195,225.531,386.361,225.531,399.328C225.531,412.295,225.531,426.061,225.531,432.945L225.531,439.828" id="g81fbcc03-b7d8-4c30-9354-085a24325077-dark-L_LOOK_SERVE_S_0" class="edge-thickness-normal edge-pattern-solid edge-thickness-normal edge-pattern-solid flowchart-link" style=";" data-edge="true" data-et="edge" data-id="L_LOOK_SERVE_S_0" data-points="W3sieCI6MjI1LjUzMTI1LCJ5IjozNjIuMDI4MTE0MzE4ODQ3N30seyJ4IjoyMjUuNTMxMjUsInkiOjM5OC41MjgxMTQzMTg4NDc2Nn0seyJ4IjoyMjUuNTMxMjUsInkiOjQ0My44MjgxMTM1NTU5MDgyfV0=" data-look="classic" marker-end="url(#g81fbcc03-b7d8-4c30-9354-085a24325077-dark_flowchart-v2-pointEnd)"></path><path d="M225.531,492.828L225.531,498.461C225.531,504.095,225.531,515.361,225.531,535.459C225.531,555.556,225.531,584.484,225.531,598.948L225.531,613.412" id="g81fbcc03-b7d8-4c30-9354-085a24325077-dark-L_SERVE_S_BG_0" class="edge-thickness-normal edge-pattern-solid edge-thickness-normal edge-pattern-solid flowchart-link" style=";" data-edge="true" data-et="edge" data-id="L_SERVE_S_BG_0" data-points="W3sieCI6MjI1LjUzMTI1LCJ5Ijo0OTIuODI4MTEzNTU1OTA4Mn0seyJ4IjoyMjUuNTMxMjUsInkiOjUyNi42MjgxMTI3OTI5Njg4fSx7IngiOjIyNS41MzEyNSwieSI6NjE3LjQxMjQ4NzAzMDAyOTN9XQ==" data-look="classic" marker-end="url(#g81fbcc03-b7d8-4c30-9354-085a24325077-dark_flowchart-v2-pointEnd)"></path><path d="M225.531,684.012L225.531,701.06C225.531,718.107,225.531,752.202,227.027,774.69C228.523,797.178,231.515,808.059,233.011,813.499L234.507,818.94" id="g81fbcc03-b7d8-4c30-9354-085a24325077-dark-L_BG_STORE_0" class="edge-thickness-normal edge-pattern-solid edge-thickness-normal edge-pattern-solid flowchart-link" style=";" data-edge="true" data-et="edge" data-id="L_BG_STORE_0" data-points="W3sieCI6MjI1LjUzMTI1LCJ5Ijo2ODQuMDEyNDg1NTA0MTUwNH0seyJ4IjoyMjUuNTMxMjUsInkiOjc4Ni4yOTY4NTk3NDEyMTA5fSx7IngiOjIzNS41Njc4MTUwNjE0NzU0MSwieSI6ODIyLjc5Njg1OTc0MTIxMDl9XQ==" data-look="classic" marker-end="url(#g81fbcc03-b7d8-4c30-9354-085a24325077-dark_flowchart-v2-pointEnd)"></path><path d="M280.433,307.126L318.777,322.36C357.121,337.593,433.808,368.061,472.152,388.711C510.495,409.361,510.495,420.195,510.495,425.611L510.495,431.028" id="g81fbcc03-b7d8-4c30-9354-085a24325077-dark-L_LOOK_ORIGIN_0" class="edge-thickness-normal edge-pattern-solid edge-thickness-normal edge-pattern-solid flowchart-link" style=";" data-edge="true" data-et="edge" data-id="L_LOOK_ORIGIN_0" data-points="W3sieCI6MjgwLjQzMzE4NTczODE3NDMsInkiOjMwNy4xMjYxNzg1ODA2NzM0fSx7IngiOjUxMC40OTUzMTE3MzcwNjA1NSwieSI6Mzk4LjUyODExNDMxODg0NzY2fSx7IngiOjUxMC40OTUzMTE3MzcwNjA1NSwieSI6NDM1LjAyODExNDMxODg0NzY2fV0=" data-look="classic" marker-end="url(#g81fbcc03-b7d8-4c30-9354-085a24325077-dark_flowchart-v2-pointEnd)"></path><path d="M510.495,501.628L510.495,505.795C510.495,509.961,510.495,518.295,510.495,525.961C510.495,533.628,510.495,540.628,510.495,544.128L510.495,547.628" id="g81fbcc03-b7d8-4c30-9354-085a24325077-dark-L_ORIGIN_CACHEABLE_0" class="edge-thickness-normal edge-pattern-solid edge-thickness-normal edge-pattern-solid flowchart-link" style=";" data-edge="true" data-et="edge" data-id="L_ORIGIN_CACHEABLE_0" data-points="W3sieCI6NTEwLjQ5NTMxMTczNzA2MDU1LCJ5Ijo1MDEuNjI4MTEyNzkyOTY4NzV9LHsieCI6NTEwLjQ5NTMxMTczNzA2MDU1LCJ5Ijo1MjYuNjI4MTEyNzkyOTY4OH0seyJ4Ijo1MTAuNDk1MzExNzM3MDYwMjYsInkiOjU1MS42MjgxMTI3OTI5Njg2fV0=" data-look="classic" marker-end="url(#g81fbcc03-b7d8-4c30-9354-085a24325077-dark_flowchart-v2-pointEnd)"></path><path d="M460.416,699.718L445.67,714.148C430.924,728.578,401.433,757.437,374.362,777.667C347.291,797.896,322.641,809.495,310.316,815.294L297.991,821.094" id="g81fbcc03-b7d8-4c30-9354-085a24325077-dark-L_CACHEABLE_STORE_0" class="edge-thickness-normal edge-pattern-solid edge-thickness-normal edge-pattern-solid flowchart-link" style=";" data-edge="true" data-et="edge" data-id="L_CACHEABLE_STORE_0" data-points="W3sieCI6NDYwLjQxNjMzMjI4MDIyMTgsInkiOjY5OS43MTc4ODAyODQzNzE5fSx7IngiOjM3MS45NDA2MjQyMzcwNjA1NSwieSI6Nzg2LjI5Njg1OTc0MTIxMDl9LHsieCI6Mjk0LjM3MTU4MDEyMzkwMTM3LCJ5Ijo4MjIuNzk2ODU5NzQxMjEwOX1d" data-look="classic" marker-end="url(#g81fbcc03-b7d8-4c30-9354-085a24325077-dark_flowchart-v2-pointEnd)"></path><path d="M524.385,735.907L525.755,744.305C527.124,752.704,529.862,769.5,531.232,783.315C532.601,797.13,532.601,807.964,532.601,813.38L532.601,818.797" id="g81fbcc03-b7d8-4c30-9354-085a24325077-dark-L_CACHEABLE_BYPASS_0" class="edge-thickness-normal edge-pattern-solid edge-thickness-normal edge-pattern-solid flowchart-link" style=";" data-edge="true" data-et="edge" data-id="L_CACHEABLE_BYPASS_0" data-points="W3sieCI6NTI0LjM4NTI3NzU3NDc2MTksInkiOjczNS45MDY4OTM5MDM1MX0seyJ4Ijo1MzIuNjAwNzgwNDg3MDYwNSwieSI6Nzg2LjI5Njg1OTc0MTIxMDl9LHsieCI6NTMyLjYwMDc4MDQ4NzA2MDUsInkiOjgyMi43OTY4NTk3NDEyMTA5fV0=" data-look="classic" marker-end="url(#g81fbcc03-b7d8-4c30-9354-085a24325077-dark_flowchart-v2-pointEnd)"></path><path d="M242.305,871.797L242.305,875.964C242.305,880.13,242.305,888.464,242.305,896.13C242.305,903.797,242.305,910.797,242.305,914.297L242.305,917.797" id="g81fbcc03-b7d8-4c30-9354-085a24325077-dark-L_STORE_SERVE_F_0" class="edge-thickness-normal edge-pattern-solid edge-thickness-normal edge-pattern-solid flowchart-link" style=";" data-edge="true" data-et="edge" data-id="L_STORE_SERVE_F_0" data-points="W3sieCI6MjQyLjMwNDY4NzUsInkiOjg3MS43OTY4NTk3NDEyMTA5fSx7IngiOjI0Mi4zMDQ2ODc1LCJ5Ijo4OTYuNzk2ODU5NzQxMjEwOX0seyJ4IjoyNDIuMzA0Njg3NSwieSI6OTIxLjc5Njg1OTc0MTIxMDl9XQ==" data-look="classic" marker-end="url(#g81fbcc03-b7d8-4c30-9354-085a24325077-dark_flowchart-v2-pointEnd)"></path><path d="M532.601,871.797L532.601,875.964C532.601,880.13,532.601,888.464,499.643,899.249C466.684,910.035,400.768,923.273,367.81,929.892L334.851,936.511" id="g81fbcc03-b7d8-4c30-9354-085a24325077-dark-L_BYPASS_SERVE_F_0" class="edge-thickness-normal edge-pattern-solid edge-thickness-normal edge-pattern-solid flowchart-link" style=";" data-edge="true" data-et="edge" data-id="L_BYPASS_SERVE_F_0" data-points="W3sieCI6NTMyLjYwMDc4MDQ4NzA2MDUsInkiOjg3MS43OTY4NTk3NDEyMTA5fSx7IngiOjUzMi42MDA3ODA0ODcwNjA1LCJ5Ijo4OTYuNzk2ODU5NzQxMjEwOX0seyJ4IjozMzAuOTI5Njg3NSwieSI6OTM3LjI5ODM1MDYzNzI5MDF9XQ==" data-look="classic" marker-end="url(#g81fbcc03-b7d8-4c30-9354-085a24325077-dark_flowchart-v2-pointEnd)"></path></g><g class="edgeLabels"><g class="edgeLabel"><g class="label" data-id="L_REQ_KEY_0" transform="translate(0, 0)"><text y="-10.1" text-anchor="middle"><tspan class="text-outer-tspan row" x="0" y="-0.1em" dy="1.1em" text-anchor="middle"></tspan></text></g></g><g><rect class="background" style="stroke: none"></rect></g><g class="edgeLabel"><g class="label" data-id="L_KEY_LOOK_0" transform="translate(0, 0)"><text y="-10.1" text-anchor="middle"><tspan class="text-outer-tspan row" x="0" y="-0.1em" dy="1.1em" text-anchor="middle"></tspan></text></g></g><g><rect class="background" style="stroke: none"></rect></g><g class="edgeLabel" transform="translate(44.171875, 650.7124862670898)"><g class="label" data-id="L_LOOK_SERVE_F_0" transform="translate(0, -10.5)"><g><rect class="background" style="" x="-36.171875" y="-1" width="72.34375" height="23"></rect><text y="-10.1" text-anchor="middle" style=""><tspan class="text-outer-tspan row" x="0" y="-0.1em" dy="1.1em" text-anchor="middle"><tspan font-style="normal" class="text-inner-tspan" font-weight="normal">HIT,</tspan><tspan font-style="normal" class="text-inner-tspan" font-weight="normal"> fresh</tspan></tspan></text></g></g></g><g class="edgeLabel" transform="translate(225.53125, 398.52811431884766)"><g class="label" data-id="L_LOOK_SERVE_S_0" transform="translate(0, -10.5)"><g><rect class="background" style="" x="-59.8125" y="-1" width="119.625" height="23"></rect><text y="-10.1" text-anchor="middle" style=""><tspan class="text-outer-tspan row" x="0" y="-0.1em" dy="1.1em" text-anchor="middle"><tspan font-style="normal" class="text-inner-tspan" font-weight="normal">HIT,</tspan><tspan font-style="normal" class="text-inner-tspan" font-weight="normal"> stale</tspan><tspan font-style="normal" class="text-inner-tspan" font-weight="normal"> +</tspan><tspan font-style="normal" class="text-inner-tspan" font-weight="normal"> SWR</tspan></tspan></text></g></g></g><g class="edgeLabel"><g class="label" data-id="L_SERVE_S_BG_0" transform="translate(0, 0)"><text y="-10.1" text-anchor="middle"><tspan class="text-outer-tspan row" x="0" y="-0.1em" dy="1.1em" text-anchor="middle"></tspan></text></g></g><g><rect class="background" style="stroke: none"></rect></g><g class="edgeLabel"><g class="label" data-id="L_BG_STORE_0" transform="translate(0, 0)"><text y="-10.1" text-anchor="middle"><tspan class="text-outer-tspan row" x="0" y="-0.1em" dy="1.1em" text-anchor="middle"></tspan></text></g></g><g><rect class="background" style="stroke: none"></rect></g><g class="edgeLabel" transform="translate(510.49531173706055, 398.52811431884766)"><g class="label" data-id="L_LOOK_ORIGIN_0" transform="translate(0, -10.5)"><g><rect class="background" style="" x="-17.6015625" y="-1" width="35.203125" height="23"></rect><text y="-10.1" text-anchor="middle" style=""><tspan class="text-outer-tspan row" x="0" y="-0.1em" dy="1.1em" text-anchor="middle"><tspan font-style="normal" class="text-inner-tspan" font-weight="normal">MISS</tspan></tspan></text></g></g></g><g class="edgeLabel"><g class="label" data-id="L_ORIGIN_CACHEABLE_0" transform="translate(0, 0)"><text y="-10.1" text-anchor="middle"><tspan class="text-outer-tspan row" x="0" y="-0.1em" dy="1.1em" text-anchor="middle"></tspan></text></g></g><g><rect class="background" style="stroke: none"></rect></g><g class="edgeLabel" transform="translate(385.54262, 772.98646)"><g class="label" data-id="L_CACHEABLE_STORE_0" transform="translate(0, -10.5)"><g><rect class="background" style="" x="-13.546875" y="-1" width="27.09375" height="23"></rect><text y="-10.1" text-anchor="middle" style=""><tspan class="text-outer-tspan row" x="0" y="-0.1em" dy="1.1em" text-anchor="middle"><tspan font-style="normal" class="text-inner-tspan" font-weight="normal">yes</tspan></tspan></text></g></g></g><g class="edgeLabel" transform="translate(532.6007804870605, 786.2968597412109)"><g class="label" data-id="L_CACHEABLE_BYPASS_0" transform="translate(0, -10.5)"><g><rect class="background" style="" x="-10.6640625" y="-1" width="21.328125" height="23"></rect><text y="-10.1" text-anchor="middle" style=""><tspan class="text-outer-tspan row" x="0" y="-0.1em" dy="1.1em" text-anchor="middle"><tspan font-style="normal" class="text-inner-tspan" font-weight="normal">no</tspan></tspan></text></g></g></g><g class="edgeLabel"><g class="label" data-id="L_STORE_SERVE_F_0" transform="translate(0, 0)"><text y="-10.1" text-anchor="middle"><tspan class="text-outer-tspan row" x="0" y="-0.1em" dy="1.1em" text-anchor="middle"></tspan></text></g></g><g><rect class="background" style="stroke: none"></rect></g><g class="edgeLabel"><g class="label" data-id="L_BYPASS_SERVE_F_0" transform="translate(0, 0)"><text y="-10.1" text-anchor="middle"><tspan class="text-outer-tspan row" x="0" y="-0.1em" dy="1.1em" text-anchor="middle"></tspan></text></g></g><g><rect class="background" style="stroke: none"></rect></g></g><g class="nodes"><g class="node default" id="g81fbcc03-b7d8-4c30-9354-085a24325077-dark-flowchart-REQ-0" data-look="classic" transform="translate(225.53125, 25)"><g class="basic label-container outer-path"><path d="M-73.3671875 -17 C-21.65598433247532 -17, 30.05521883504936 -17, 73.3671875 -17 C73.3671875 -17, 73.3671875 -17, 73.3671875 -17 C73.59048305338713 -16.992839346221302, 73.81377860677426 -16.985678692442605, 74.45638123967211 -16.965071676755716 C74.68497644455537 -16.943019372266587, 74.91357164943862 -16.920967067777458, 75.5410992486366 -16.860430234995185 C75.80225788944915 -16.81820813126412, 76.06341653026169 -16.775986027533058, 76.61688418792333 -16.686505668848113 C76.94630617328453 -16.61131725036877, 77.27572815864573 -16.53612883188943, 77.67931542646163 -16.4440126716635 C77.96760775701215 -16.35844902123343, 78.25590008756267 -16.272885370803362, 78.72402720640156 -16.133947699181366 C79.12707511282248 -15.985622343884463, 79.53012301924339 -15.83729698858756, 79.74672658294936 -15.757584874882369 C80.14303950966502 -15.58214889843062, 80.53935243638068 -15.406712921978873, 80.74321106499849 -15.316470754341125 C80.94071981260645 -15.213430567224448, 81.13822856021439 -15.110390380107768, 81.70938588406693 -14.812417970097622 C81.9623216954654 -14.65908679481205, 82.21525750686389 -14.505755619526475, 82.64128082057933 -14.247497783161291 C82.92510874418278 -14.049511710368312, 83.20893666778622 -13.851525637575332, 83.53506651835067 -13.624031571755262 C83.8241795617625 -13.393471613255528, 84.11329260517432 -13.162911654755796, 84.3870702202324 -12.944581292275288 C84.65052454109693 -12.705319048685473, 84.91397886196147 -12.466056805095658, 85.19379086025927 -12.21193895166137 C85.45001001820906 -11.947371635094127, 85.70622917615884 -11.682804318526884, 85.95191345028036 -11.42911513444239 C86.17667841907762 -11.165093412604092, 86.40144338787488 -10.901071690765795, 86.65832270195651 -10.59932663159847 C86.84123038440296 -10.354247000352887, 87.02413806684942 -10.1091673691073, 87.31011582814824 -9.725983222076888 C87.49084367885257 -9.44833671117197, 87.6715715295569 -9.170690200267051, 87.90461447109088 -8.812673661278927 C88.01411670314029 -8.618241359971838, 88.1236189351897 -8.42380905866475, 88.439375708341 -7.863150934094199 C88.55563521432411 -7.6217355823653286, 88.67189472030724 -7.380320230636458, 88.91220209126881 -6.881316833080699 C89.04572271472017 -6.551518311710199, 89.17924333817153 -6.221719790339699, 89.32115067484592 -5.871205925162238 C89.39032403380513 -5.662866789255157, 89.45949739276433 -5.4545276533480775, 89.66454100162323 -4.836968972727556 C89.76355226787715 -4.459396102747139, 89.86256353413106 -4.081823232766721, 89.940962007091 -3.7828558772573464 C90.01468441159058 -3.4043069113877418, 90.08840681609014 -3.025757945518137, 90.14927781804565 -2.713198215567453 C90.20102768575362 -2.311836460791738, 90.25277755346157 -1.9104747060160234, 90.28863242013637 -1.632391440430593 C90.3140378074916 -1.2366820255133324, 90.33944319484682 -0.8409726105960715, 90.3584531754117 -0.5448768187181379 C90.3584531754117 -0.21011664447802236, 90.3584531754117 0.12464352976209314, 90.3584531754117 0.5448768187181336 C90.33645999711739 0.8874383232259311, 90.31446681882308 1.2299998277337285, 90.28863242013637 1.6323914404305815 C90.25317633219817 1.907381856882748, 90.21772024425997 2.1823722733349147, 90.14927781804565 2.7131982155674415 C90.08190573966225 3.0591395989723793, 90.01453366127886 3.405080982377317, 89.940962007091 3.782855877257343 C89.83668821859938 4.180497025321704, 89.73241443010777 4.578138173386065, 89.66454100162323 4.836968972727545 C89.57244447192765 5.114349046581345, 89.48034794223207 5.391729120435143, 89.32115067484592 5.871205925162227 C89.17390489347683 6.234905851947399, 89.02665911210774 6.598605778732572, 88.91220209126881 6.881316833080694 C88.73336912949908 7.252667304607929, 88.55453616772937 7.6240177761351635, 88.439375708341 7.863150934094196 C88.26591156458477 8.171154086482645, 88.09244742082853 8.479157238871094, 87.90461447109088 8.812673661278923 C87.71259773779506 9.107662927333799, 87.52058100449923 9.402652193388674, 87.31011582814826 9.725983222076879 C87.08067766120175 10.033409463538183, 86.85123949425525 10.340835704999487, 86.65832270195651 10.599326631598467 C86.38710123627646 10.917918798124841, 86.11587977059642 11.236510964651213, 85.95191345028037 11.42911513444238 C85.76114704977695 11.626097105174914, 85.57038064927355 11.823079075907447, 85.19379086025927 12.211938951661365 C84.9365960286429 12.445516492733018, 84.67940119702652 12.679094033804672, 84.38707022023242 12.944581292275275 C84.06902076805571 13.198217266734826, 83.750971315879 13.451853241194375, 83.53506651835067 13.62403157175526 C83.29322828611066 13.792727453557555, 83.05139005387063 13.96142333535985, 82.64128082057934 14.247497783161286 C82.34807503598621 14.42524085285009, 82.05486925139309 14.602983922538893, 81.70938588406695 14.81241797009762 C81.451998796035 14.94669664905959, 81.19461170800305 15.080975328021557, 80.74321106499849 15.316470754341124 C80.39613512438285 15.470110977609691, 80.04905918376723 15.623751200878258, 79.74672658294936 15.757584874882367 C79.45957506728894 15.863259287044917, 79.17242355162851 15.968933699207469, 78.72402720640156 16.133947699181363 C78.37774489619922 16.236722471176478, 78.03146258599689 16.339497243171596, 77.67931542646164 16.444012671663497 C77.3383715793282 16.521830879905178, 76.99742773219475 16.599649088146858, 76.61688418792333 16.68650566884811 C76.30891027520853 16.736296502682475, 76.00093636249375 16.78608733651684, 75.54109924863661 16.86043023499518 C75.2048623447322 16.8928666047308, 74.86862544082778 16.92530297446642, 74.45638123967211 16.965071676755716 C74.09739101843023 16.976583794418868, 73.73840079718836 16.98809591208202, 73.3671875 17 C73.3671875 17, 73.3671875 17, 73.3671875 17 C21.131850228017925 17, -31.10348704396415 17, -73.3671875 17 C-73.6130371612032 16.99211607988255, -73.85888682240639 16.984232159765096, -74.45638123967211 16.965071676755716 C-74.82153377714735 16.929845850625657, -75.1866863146226 16.894620024495598, -75.5410992486366 16.86043023499518 C-75.8775553616394 16.806034619901016, -76.21401147464219 16.75163900480685, -76.61688418792333 16.68650566884811 C-76.8633761932208 16.630245477149618, -77.10986819851828 16.573985285451126, -77.67931542646161 16.4440126716635 C-78.00920456771097 16.34610330616413, -78.33909370896032 16.248193940664763, -78.72402720640154 16.13394769918137 C-79.08808681245876 15.999970398822212, -79.45214641851595 15.865993098463052, -79.74672658294936 15.757584874882369 C-80.00025462654582 15.645355530624423, -80.25378267014227 15.533126186366475, -80.74321106499849 15.316470754341127 C-80.965652914259 15.200422984062726, -81.1880947635195 15.084375213784325, -81.70938588406693 14.812417970097624 C-81.95124559284557 14.665801193310598, -82.19310530162421 14.519184416523572, -82.64128082057931 14.247497783161299 C-82.98136964996723 14.010266537988429, -83.32145847935516 13.773035292815557, -83.53506651835067 13.624031571755264 C-83.87228665842392 13.355107483851652, -84.20950679849717 13.086183395948042, -84.3870702202324 12.94458129227529 C-84.6495851357571 12.706172191759805, -84.9121000512818 12.46776309124432, -85.19379086025926 12.211938951661377 C-85.39655022668285 12.002573258975447, -85.59930959310644 11.793207566289517, -85.95191345028036 11.429115134442386 C-86.20580666495253 11.130877717555274, -86.45969987962471 10.832640300668162, -86.65832270195651 10.599326631598473 C-86.81097680792769 10.39478403667223, -86.96363091389888 10.190241441745986, -87.31011582814824 9.72598322207689 C-87.52034122120091 9.403020564925745, -87.73056661425356 9.080057907774599, -87.90461447109088 8.812673661278936 C-88.09198504449131 8.479978234878512, -88.27935561789175 8.147282808478089, -88.439375708341 7.863150934094201 C-88.62796953948684 7.471531808458304, -88.8165633706327 7.079912682822406, -88.91220209126881 6.881316833080701 C-89.0697620076804 6.492140793330344, -89.22732192409197 6.102964753579986, -89.32115067484592 5.87120592516224 C-89.39646441731992 5.644372932445866, -89.4717781597939 5.417539939729493, -89.66454100162323 4.8369689727275516 C-89.75471082853157 4.493112342875866, -89.84488065543991 4.14925571302418, -89.940962007091 3.782855877257349 C-90.0040771050798 3.458773188465532, -90.0671922030686 3.134690499673715, -90.14927781804565 2.713198215567455 C-90.18972475504064 2.399499759385351, -90.23017169203565 2.0858013032032474, -90.28863242013637 1.6323914404306026 C-90.30272661407443 1.4128629932166936, -90.3168208080125 1.1933345460027847, -90.3584531754117 0.54487681871814 C-90.3584531754117 0.1143380314743569, -90.3584531754117 -0.3162007557694262, -90.3584531754117 -0.5448768187181317 C-90.3313191960713 -0.9675104490985997, -90.30418521673091 -1.3901440794790678, -90.28863242013637 -1.6323914404305793 C-90.25398255604195 -1.9011289439573205, -90.21933269194753 -2.1698664474840617, -90.14927781804565 -2.713198215567447 C-90.08426709633409 -3.0470145315354373, -90.01925637462251 -3.380830847503428, -89.940962007091 -3.782855877257341 C-89.87798990256518 -4.0229958040970635, -89.81501779803935 -4.263135730936786, -89.66454100162323 -4.836968972727544 C-89.57468683831159 -5.10759539630547, -89.48483267499996 -5.378221819883397, -89.32115067484594 -5.871205925162218 C-89.20760024160948 -6.151677690604533, -89.09404980837303 -6.432149456046849, -88.91220209126881 -6.881316833080692 C-88.72478487519136 -7.270492692351546, -88.53736765911391 -7.659668551622399, -88.439375708341 -7.863150934094194 C-88.22784160382885 -8.238751156806332, -88.01630749931668 -8.614351379518471, -87.90461447109088 -8.812673661278929 C-87.74682950942152 -9.055073733597817, -87.58904454775214 -9.297473805916704, -87.31011582814826 -9.725983222076884 C-87.0860436191721 -10.026219568706745, -86.86197141019595 -10.326455915336608, -86.65832270195651 -10.599326631598467 C-86.40485267298664 -10.897066950479713, -86.15138264401676 -11.19480726936096, -85.95191345028037 -11.42911513444238 C-85.79611902178554 -11.589985672823742, -85.64032459329073 -11.750856211205106, -85.19379086025927 -12.21193895166136 C-85.01821379911038 -12.371393393082304, -84.84263673796151 -12.530847834503248, -84.38707022023242 -12.944581292275274 C-84.18665219902634 -13.104409330839587, -83.98623417782026 -13.2642373694039, -83.53506651835067 -13.624031571755259 C-83.22394977281553 -13.841053145413726, -82.9128330272804 -14.058074719072193, -82.64128082057934 -14.247497783161284 C-82.38618933371366 -14.40213574158323, -82.13109784684798 -14.556773700005177, -81.70938588406695 -14.812417970097618 C-81.44804568159896 -14.948758986328777, -81.18670547913098 -15.085100002559935, -80.74321106499849 -15.316470754341124 C-80.51856612733448 -15.41591440438967, -80.29392118967048 -15.515358054438215, -79.74672658294936 -15.757584874882365 C-79.48017930035547 -15.85567673881299, -79.21363201776157 -15.953768602743615, -78.72402720640156 -16.133947699181363 C-78.4118781028711 -16.226591914605123, -78.09972899934066 -16.31923613002888, -77.67931542646164 -16.444012671663494 C-77.32711752567869 -16.524399544211114, -76.97491962489573 -16.60478641675873, -76.61688418792333 -16.68650566884811 C-76.40115324647927 -16.721383374442347, -76.1854223050352 -16.756261080036587, -75.54109924863661 -16.86043023499518 C-75.12576203482857 -16.900497316495162, -74.71042482102052 -16.940564397995143, -74.45638123967213 -16.965071676755716 C-74.14017562873907 -16.975211775241455, -73.82397001780602 -16.985351873727193, -73.3671875 -17 C-73.3671875 -17, -73.3671875 -17, -73.3671875 -17" stroke="none" stroke-width="0" fill="#2d2d2d" style=""></path><path d="M-73.3671875 -17 C-33.10851081292011 -17, 7.150165874159782 -17, 73.3671875 -17 M-73.3671875 -17 C-19.349978984385466 -17, 34.66722953122907 -17, 73.3671875 -17 M73.3671875 -17 C73.3671875 -17, 73.3671875 -17, 73.3671875 -17 M73.3671875 -17 C73.3671875 -17, 73.3671875 -17, 73.3671875 -17 M73.3671875 -17 C73.68961322987802 -16.989660434406424, 74.01203895975604 -16.979320868812845, 74.45638123967211 -16.965071676755716 M73.3671875 -17 C73.62898494279824 -16.99160466556727, 73.89078238559647 -16.98320933113454, 74.45638123967211 -16.965071676755716 M74.45638123967211 -16.965071676755716 C74.76231980637226 -16.93555815117111, 75.06825837307242 -16.906044625586507, 75.5410992486366 -16.860430234995185 M74.45638123967211 -16.965071676755716 C74.71374395501537 -16.9402442051305, 74.97110667035864 -16.91541673350529, 75.5410992486366 -16.860430234995185 M75.5410992486366 -16.860430234995185 C75.94078232462847 -16.795812574857365, 76.34046540062035 -16.73119491471955, 76.61688418792333 -16.686505668848113 M75.5410992486366 -16.860430234995185 C75.81590940376242 -16.816001060299026, 76.09071955888822 -16.771571885602867, 76.61688418792333 -16.686505668848113 M76.61688418792333 -16.686505668848113 C76.85276391626317 -16.632667660113626, 77.088643644603 -16.578829651379134, 77.67931542646163 -16.4440126716635 M76.61688418792333 -16.686505668848113 C76.92152072838623 -16.616974366426668, 77.22615726884912 -16.54744306400522, 77.67931542646163 -16.4440126716635 M77.67931542646163 -16.4440126716635 C77.98510102301994 -16.353257111706345, 78.29088661957826 -16.262501551749185, 78.72402720640156 -16.133947699181366 M77.67931542646163 -16.4440126716635 C78.06822689958501 -16.32858578787846, 78.4571383727084 -16.21315890409342, 78.72402720640156 -16.133947699181366 M78.72402720640156 -16.133947699181366 C79.05434693798608 -16.012386984516134, 79.3846666695706 -15.890826269850901, 79.74672658294936 -15.757584874882369 M78.72402720640156 -16.133947699181366 C79.09109957413959 -15.998861674674, 79.45817194187761 -15.863775650166636, 79.74672658294936 -15.757584874882369 M79.74672658294936 -15.757584874882369 C80.1064318238876 -15.598354034995868, 80.46613706482584 -15.439123195109367, 80.74321106499849 -15.316470754341125 M79.74672658294936 -15.757584874882369 C79.94798892655105 -15.668492005605204, 80.14925127015273 -15.579399136328039, 80.74321106499849 -15.316470754341125 M80.74321106499849 -15.316470754341125 C80.9597674695153 -15.203493416815702, 81.17632387403211 -15.090516079290278, 81.70938588406693 -14.812417970097622 M80.74321106499849 -15.316470754341125 C81.09321336783943 -15.133874777136183, 81.44321567068036 -14.95127879993124, 81.70938588406693 -14.812417970097622 M81.70938588406693 -14.812417970097622 C81.931302942127 -14.677890545372215, 82.15322000018709 -14.543363120646807, 82.64128082057933 -14.247497783161291 M81.70938588406693 -14.812417970097622 C81.91051978924759 -14.69048941478308, 82.11165369442826 -14.568560859468539, 82.64128082057933 -14.247497783161291 M82.64128082057933 -14.247497783161291 C82.83884458714039 -14.10968585200591, 83.03640835370145 -13.971873920850529, 83.53506651835067 -13.624031571755262 M82.64128082057933 -14.247497783161291 C82.83571649587775 -14.111867873057834, 83.03015217117618 -13.976237962954375, 83.53506651835067 -13.624031571755262 M83.53506651835067 -13.624031571755262 C83.8107776962136 -13.404159244392158, 84.08648887407652 -13.184286917029052, 84.3870702202324 -12.944581292275288 M83.53506651835067 -13.624031571755262 C83.79941639361435 -13.413219580878103, 84.06376626887801 -13.202407590000943, 84.3870702202324 -12.944581292275288 M84.3870702202324 -12.944581292275288 C84.61211893450776 -12.740198004433084, 84.83716764878314 -12.535814716590881, 85.19379086025927 -12.21193895166137 M84.3870702202324 -12.944581292275288 C84.69613231959616 -12.66389927096817, 85.00519441895992 -12.383217249661053, 85.19379086025927 -12.21193895166137 M85.19379086025927 -12.21193895166137 C85.48687541173253 -11.909305089576044, 85.7799599632058 -11.606671227490718, 85.95191345028036 -11.42911513444239 M85.19379086025927 -12.21193895166137 C85.41019841778059 -11.988480381129708, 85.6266059753019 -11.765021810598046, 85.95191345028036 -11.42911513444239 M85.95191345028036 -11.42911513444239 C86.17962132473451 -11.161636508163427, 86.40732919918867 -10.894157881884466, 86.65832270195651 -10.59932663159847 M85.95191345028036 -11.42911513444239 C86.17173546253285 -11.170899690623768, 86.39155747478536 -10.912684246805147, 86.65832270195651 -10.59932663159847 M86.65832270195651 -10.59932663159847 C86.81104645473978 -10.394690716288983, 86.96377020752305 -10.190054800979492, 87.31011582814824 -9.725983222076888 M86.65832270195651 -10.59932663159847 C86.85715788366467 -10.332905602367239, 87.05599306537282 -10.066484573136007, 87.31011582814824 -9.725983222076888 M87.31011582814824 -9.725983222076888 C87.52390449832203 -9.397546414393807, 87.73769316849582 -9.069109606710725, 87.90461447109088 -8.812673661278927 M87.31011582814824 -9.725983222076888 C87.53169709594555 -9.38557489183864, 87.75327836374284 -9.045166561600395, 87.90461447109088 -8.812673661278927 M87.90461447109088 -8.812673661278927 C88.08088227604489 -8.499692324532358, 88.25715008099888 -8.18671098778579, 88.439375708341 -7.863150934094199 M87.90461447109088 -8.812673661278927 C88.08888267383735 -8.485486808123715, 88.27315087658381 -8.158299954968504, 88.439375708341 -7.863150934094199 M88.439375708341 -7.863150934094199 C88.60802014854838 -7.512957145590626, 88.77666458875575 -7.1627633570870515, 88.91220209126881 -6.881316833080699 M88.439375708341 -7.863150934094199 C88.53724364989766 -7.659926059413315, 88.63511159145432 -7.456701184732431, 88.91220209126881 -6.881316833080699 M88.91220209126881 -6.881316833080699 C89.04972601750285 -6.541630076438376, 89.1872499437369 -6.201943319796054, 89.32115067484592 -5.871205925162238 M88.91220209126881 -6.881316833080699 C88.99986603255891 -6.664785203227134, 89.08752997384902 -6.448253573373568, 89.32115067484592 -5.871205925162238 M89.32115067484592 -5.871205925162238 C89.40192988980637 -5.627911800121455, 89.48270910476681 -5.384617675080673, 89.66454100162323 -4.836968972727556 M89.32115067484592 -5.871205925162238 C89.42502116279434 -5.5583645649764, 89.52889165074275 -5.245523204790561, 89.66454100162323 -4.836968972727556 M89.66454100162323 -4.836968972727556 C89.75979315423896 -4.473731232259717, 89.85504530685468 -4.110493491791878, 89.940962007091 -3.7828558772573464 M89.66454100162323 -4.836968972727556 C89.77127911645182 -4.429930280294533, 89.87801723128042 -4.02289158786151, 89.940962007091 -3.7828558772573464 M89.940962007091 -3.7828558772573464 C90.00833515251713 -3.4369090148134496, 90.07570829794328 -3.0909621523695527, 90.14927781804565 -2.713198215567453 M89.940962007091 -3.7828558772573464 C90.0031979232079 -3.4632876015625604, 90.06543383932481 -3.1437193258677745, 90.14927781804565 -2.713198215567453 M90.14927781804565 -2.713198215567453 C90.19022574074094 -2.3956142132246474, 90.23117366343625 -2.078030210881842, 90.28863242013637 -1.632391440430593 M90.14927781804565 -2.713198215567453 C90.17953727066148 -2.4785118764837613, 90.20979672327734 -2.243825537400069, 90.28863242013637 -1.632391440430593 M90.28863242013637 -1.632391440430593 C90.30639014551654 -1.3558005338563777, 90.32414787089672 -1.0792096272821623, 90.3584531754117 -0.5448768187181379 M90.28863242013637 -1.632391440430593 C90.31114314265014 -1.281768766950354, 90.33365386516392 -0.931146093470115, 90.3584531754117 -0.5448768187181379 M90.3584531754117 -0.5448768187181379 C90.3584531754117 -0.1872693566278944, 90.3584531754117 0.17033810546234907, 90.3584531754117 0.5448768187181336 M90.3584531754117 -0.5448768187181379 C90.3584531754117 -0.176949229783886, 90.3584531754117 0.19097835915036587, 90.3584531754117 0.5448768187181336 M90.3584531754117 0.5448768187181336 C90.33944982403013 0.8408693557152389, 90.32044647264856 1.1368618927123442, 90.28863242013637 1.6323914404305815 M90.3584531754117 0.5448768187181336 C90.34397412056245 0.7703997852778852, 90.3294950657132 0.9959227518376368, 90.28863242013637 1.6323914404305815 M90.28863242013637 1.6323914404305815 C90.25924515755074 1.8603132458733798, 90.2298578949651 2.088235051316178, 90.14927781804565 2.7131982155674415 M90.28863242013637 1.6323914404305815 C90.23433521755993 2.053509821418047, 90.18003801498348 2.4746282024055124, 90.14927781804565 2.7131982155674415 M90.14927781804565 2.7131982155674415 C90.07796593599373 3.079369658132439, 90.00665405394182 3.4455411006974366, 89.940962007091 3.782855877257343 M90.14927781804565 2.7131982155674415 C90.06757375028292 3.1327313353682484, 89.98586968252019 3.552264455169055, 89.940962007091 3.782855877257343 M89.940962007091 3.782855877257343 C89.87667603588393 4.028006147186046, 89.81239006467688 4.27315641711475, 89.66454100162323 4.836968972727545 M89.940962007091 3.782855877257343 C89.83535976039364 4.185563012217583, 89.7297575136963 4.5882701471778224, 89.66454100162323 4.836968972727545 M89.66454100162323 4.836968972727545 C89.56648685956822 5.1322924257913245, 89.46843271751321 5.427615878855104, 89.32115067484592 5.871205925162227 M89.66454100162323 4.836968972727545 C89.58644029746345 5.072195849999475, 89.50833959330367 5.307422727271405, 89.32115067484592 5.871205925162227 M89.32115067484592 5.871205925162227 C89.23494128859748 6.084144775940988, 89.14873190234903 6.29708362671975, 88.91220209126881 6.881316833080694 M89.32115067484592 5.871205925162227 C89.23339104175501 6.08797391561385, 89.1456314086641 6.304741906065475, 88.91220209126881 6.881316833080694 M88.91220209126881 6.881316833080694 C88.79939953339732 7.115553758088934, 88.68659697552583 7.349790683097174, 88.439375708341 7.863150934094196 M88.91220209126881 6.881316833080694 C88.81657529103643 7.079887929848988, 88.72094849080405 7.278459026617282, 88.439375708341 7.863150934094196 M88.439375708341 7.863150934094196 C88.30563421568314 8.100622497102883, 88.17189272302528 8.33809406011157, 87.90461447109088 8.812673661278923 M88.439375708341 7.863150934094196 C88.24547449213964 8.207442178086962, 88.05157327593827 8.551733422079728, 87.90461447109088 8.812673661278923 M87.90461447109088 8.812673661278923 C87.73781211988357 9.068926865436227, 87.57100976867626 9.32518006959353, 87.31011582814826 9.725983222076879 M87.90461447109088 8.812673661278923 C87.74840337697967 9.052655850385879, 87.59219228286844 9.292638039492836, 87.31011582814826 9.725983222076879 M87.31011582814826 9.725983222076879 C87.13031501051175 9.966899937518338, 86.95051419287525 10.207816652959796, 86.65832270195651 10.599326631598467 M87.31011582814826 9.725983222076879 C87.17062946884928 9.912882236068741, 87.03114310955033 10.099781250060605, 86.65832270195651 10.599326631598467 M86.65832270195651 10.599326631598467 C86.38001808699404 10.926239068314585, 86.10171347203158 11.253151505030702, 85.95191345028037 11.42911513444238 M86.65832270195651 10.599326631598467 C86.41798474977443 10.881641265848419, 86.17764679759237 11.16395590009837, 85.95191345028037 11.42911513444238 M85.95191345028037 11.42911513444238 C85.7251359873578 11.663281483685903, 85.49835852443522 11.897447832929426, 85.19379086025927 12.211938951661365 M85.95191345028037 11.42911513444238 C85.67216270120731 11.717980750823951, 85.39241195213427 12.00684636720552, 85.19379086025927 12.211938951661365 M85.19379086025927 12.211938951661365 C85.0103096993421 12.378571687360852, 84.82682853842492 12.545204423060339, 84.38707022023242 12.944581292275275 M85.19379086025927 12.211938951661365 C85.03180037817506 12.359054421456959, 84.86980989609084 12.506169891252554, 84.38707022023242 12.944581292275275 M84.38707022023242 12.944581292275275 C84.09097488599896 13.180709441898696, 83.7948795517655 13.416837591522116, 83.53506651835067 13.62403157175526 M84.38707022023242 12.944581292275275 C84.1901887647002 13.101589013826652, 83.99330730916799 13.25859673537803, 83.53506651835067 13.62403157175526 M83.53506651835067 13.62403157175526 C83.21826163018822 13.84502094747481, 82.90145674202579 14.066010323194359, 82.64128082057934 14.247497783161286 M83.53506651835067 13.62403157175526 C83.22597092168508 13.839643279456459, 82.91687532501948 14.055254987157658, 82.64128082057934 14.247497783161286 M82.64128082057934 14.247497783161286 C82.3642614484738 14.415428554478199, 82.08724207636824 14.58335932579511, 81.70938588406695 14.81241797009762 M82.64128082057934 14.247497783161286 C82.26864318846383 14.473392905611512, 81.8960055563483 14.699288028061737, 81.70938588406695 14.81241797009762 M81.70938588406695 14.81241797009762 C81.43140042242078 14.957442807380238, 81.15341496077461 15.102467644662857, 80.74321106499849 15.316470754341124 M81.70938588406695 14.81241797009762 C81.45487507851492 14.945196094332164, 81.20036427296287 15.077974218566709, 80.74321106499849 15.316470754341124 M80.74321106499849 15.316470754341124 C80.43051506330805 15.454891998492164, 80.1178190616176 15.593313242643204, 79.74672658294936 15.757584874882367 M80.74321106499849 15.316470754341124 C80.41779649433134 15.460522131695207, 80.09238192366419 15.604573509049288, 79.74672658294936 15.757584874882367 M79.74672658294936 15.757584874882367 C79.45617704972308 15.864509788920083, 79.1656275164968 15.971434702957799, 78.72402720640156 16.133947699181363 M79.74672658294936 15.757584874882367 C79.49871876049518 15.848854046104687, 79.250710938041 15.940123217327006, 78.72402720640156 16.133947699181363 M78.72402720640156 16.133947699181363 C78.31050005597626 16.256680386779284, 77.89697290555097 16.379413074377208, 77.67931542646164 16.444012671663497 M78.72402720640156 16.133947699181363 C78.4904523444882 16.203271492137777, 78.25687748257486 16.27259528509419, 77.67931542646164 16.444012671663497 M77.67931542646164 16.444012671663497 C77.30417022142417 16.529637116662055, 76.9290250163867 16.61526156166061, 76.61688418792333 16.68650566884811 M77.67931542646164 16.444012671663497 C77.36942282759333 16.514743635116993, 77.05953022872501 16.585474598570492, 76.61688418792333 16.68650566884811 M76.61688418792333 16.68650566884811 C76.34729275702648 16.730091120682744, 76.07770132612961 16.773676572517374, 75.54109924863661 16.86043023499518 M76.61688418792333 16.68650566884811 C76.38493286024257 16.724005760698123, 76.15298153256182 16.761505852548137, 75.54109924863661 16.86043023499518 M75.54109924863661 16.86043023499518 C75.1516988409803 16.897995223999278, 74.762298433324 16.935560213003374, 74.45638123967211 16.965071676755716 M75.54109924863661 16.86043023499518 C75.31520125277619 16.882222342973748, 75.08930325691576 16.904014450952314, 74.45638123967211 16.965071676755716 M74.45638123967211 16.965071676755716 C74.03334314073288 16.97863768519499, 73.61030504179364 16.992203693634266, 73.3671875 17 M74.45638123967211 16.965071676755716 C74.23442514405406 16.972189376730856, 74.012469048436 16.979307076705997, 73.3671875 17 M73.3671875 17 C73.3671875 17, 73.3671875 17, 73.3671875 17 M73.3671875 17 C73.3671875 17, 73.3671875 17, 73.3671875 17 M73.3671875 17 C30.270099335643124 17, -12.826988828713752 17, -73.3671875 17 M73.3671875 17 C21.197183607880632 17, -30.972820284238736 17, -73.3671875 17 M-73.3671875 17 C-73.62618834455108 16.991694347029807, -73.88518918910216 16.983388694059617, -74.45638123967211 16.965071676755716 M-73.3671875 17 C-73.61867923804725 16.991935149459795, -73.8701709760945 16.98387029891959, -74.45638123967211 16.965071676755716 M-74.45638123967211 16.965071676755716 C-74.8354065249781 16.928507563326846, -75.21443181028408 16.891943449897973, -75.5410992486366 16.86043023499518 M-74.45638123967211 16.965071676755716 C-74.7734174621751 16.934487573662693, -75.0904536846781 16.903903470569674, -75.5410992486366 16.86043023499518 M-75.5410992486366 16.86043023499518 C-75.82920067097945 16.81385223129069, -76.11730209332228 16.7672742275862, -76.61688418792333 16.68650566884811 M-75.5410992486366 16.86043023499518 C-75.90371417459505 16.80180546588697, -76.26632910055349 16.74318069677876, -76.61688418792333 16.68650566884811 M-76.61688418792333 16.68650566884811 C-76.83604268677254 16.636484171628638, -77.05520118562174 16.586462674409162, -77.67931542646161 16.4440126716635 M-76.61688418792333 16.68650566884811 C-76.84233673445142 16.635047596318433, -77.0677892809795 16.583589523788756, -77.67931542646161 16.4440126716635 M-77.67931542646161 16.4440126716635 C-77.88840298096996 16.381956583008396, -78.0974905354783 16.31990049435329, -78.72402720640154 16.13394769918137 M-77.67931542646161 16.4440126716635 C-77.95837732953714 16.36118856365651, -78.23743923261266 16.278364455649513, -78.72402720640154 16.13394769918137 M-78.72402720640154 16.13394769918137 C-78.93995232953606 16.054485257877914, -79.15587745267055 15.975022816574457, -79.74672658294936 15.757584874882369 M-78.72402720640154 16.13394769918137 C-79.02535845354413 16.023055014757382, -79.32668970068673 15.912162330333395, -79.74672658294936 15.757584874882369 M-79.74672658294936 15.757584874882369 C-80.06961414475472 15.61465212939035, -80.39250170656007 15.471719383898332, -80.74321106499849 15.316470754341127 M-79.74672658294936 15.757584874882369 C-79.97459002202694 15.656716489731487, -80.20245346110453 15.555848104580603, -80.74321106499849 15.316470754341127 M-80.74321106499849 15.316470754341127 C-81.12153815016883 15.119097756337819, -81.49986523533919 14.921724758334513, -81.70938588406693 14.812417970097624 M-80.74321106499849 15.316470754341127 C-80.99601266512077 15.184584321484481, -81.24881426524307 15.052697888627836, -81.70938588406693 14.812417970097624 M-81.70938588406693 14.812417970097624 C-81.92967393529007 14.678878058889877, -82.1499619865132 14.54533814768213, -82.64128082057931 14.247497783161299 M-81.70938588406693 14.812417970097624 C-81.89738226227104 14.698453460840945, -82.08537864047514 14.584488951584266, -82.64128082057931 14.247497783161299 M-82.64128082057931 14.247497783161299 C-82.86744433183362 14.0897359081709, -83.09360784308794 13.931974033180499, -83.53506651835067 13.624031571755264 M-82.64128082057931 14.247497783161299 C-82.88867271914094 14.074927904147387, -83.13606461770259 13.902358025133474, -83.53506651835067 13.624031571755264 M-83.53506651835067 13.624031571755264 C-83.72207555300938 13.474896843134369, -83.90908458766806 13.325762114513473, -84.3870702202324 12.94458129227529 M-83.53506651835067 13.624031571755264 C-83.84199990391552 13.379260364607712, -84.14893328948038 13.134489157460159, -84.3870702202324 12.94458129227529 M-84.3870702202324 12.94458129227529 C-84.69107657258095 12.668490766639648, -84.99508292492949 12.392400241004005, -85.19379086025926 12.211938951661377 M-84.3870702202324 12.94458129227529 C-84.63082810408388 12.723206831641562, -84.87458598793536 12.501832371007835, -85.19379086025926 12.211938951661377 M-85.19379086025926 12.211938951661377 C-85.44123289154795 11.956434738987216, -85.68867492283665 11.700930526313053, -85.95191345028036 11.429115134442386 M-85.19379086025926 12.211938951661377 C-85.38754165034068 12.011875353666607, -85.5812924404221 11.811811755671837, -85.95191345028036 11.429115134442386 M-85.95191345028036 11.429115134442386 C-86.21417590803436 11.12104672840794, -86.47643836578835 10.812978322373494, -86.65832270195651 10.599326631598473 M-85.95191345028036 11.429115134442386 C-86.13705701120094 11.211634972818013, -86.32220057212152 10.99415481119364, -86.65832270195651 10.599326631598473 M-86.65832270195651 10.599326631598473 C-86.86233844797103 10.325964118155824, -87.06635419398556 10.052601604713177, -87.31011582814824 9.72598322207689 M-86.65832270195651 10.599326631598473 C-86.91133029766134 10.260319502820131, -87.16433789336618 9.921312374041788, -87.31011582814824 9.72598322207689 M-87.31011582814824 9.72598322207689 C-87.46125491039312 9.493793005222523, -87.612393992638 9.261602788368158, -87.90461447109088 8.812673661278936 M-87.31011582814824 9.72598322207689 C-87.4747909555939 9.472998004857054, -87.63946608303957 9.220012787637216, -87.90461447109088 8.812673661278936 M-87.90461447109088 8.812673661278936 C-88.09320305282222 8.47781553775027, -88.28179163455356 8.142957414221605, -88.439375708341 7.863150934094201 M-87.90461447109088 8.812673661278936 C-88.06805216110058 8.522473492805986, -88.2314898511103 8.232273324333036, -88.439375708341 7.863150934094201 M-88.439375708341 7.863150934094201 C-88.59475905967619 7.540494080375571, -88.75014241101137 7.21783722665694, -88.91220209126881 6.881316833080701 M-88.439375708341 7.863150934094201 C-88.55213088865523 7.629012389597335, -88.66488606896945 7.394873845100468, -88.91220209126881 6.881316833080701 M-88.91220209126881 6.881316833080701 C-89.0017574331898 6.660113407101123, -89.09131277511078 6.4389099811215464, -89.32115067484592 5.87120592516224 M-88.91220209126881 6.881316833080701 C-89.0094591846246 6.641089932153925, -89.10671627798038 6.400863031227147, -89.32115067484592 5.87120592516224 M-89.32115067484592 5.87120592516224 C-89.43718763423304 5.5217210914670005, -89.55322459362016 5.17223625777176, -89.66454100162323 4.8369689727275516 M-89.32115067484592 5.87120592516224 C-89.40849162223638 5.608148907512354, -89.49583256962683 5.345091889862467, -89.66454100162323 4.8369689727275516 M-89.66454100162323 4.8369689727275516 C-89.73468079434046 4.569495544318287, -89.8048205870577 4.302022115909023, -89.940962007091 3.782855877257349 M-89.66454100162323 4.8369689727275516 C-89.738513174146 4.554881019155906, -89.81248534666875 4.27279306558426, -89.940962007091 3.782855877257349 M-89.940962007091 3.782855877257349 C-89.98917617583373 3.535286310831579, -90.03739034457647 3.2877167444058086, -90.14927781804565 2.713198215567455 M-89.940962007091 3.782855877257349 C-89.99756461149474 3.492213466608842, -90.05416721589847 3.2015710559603345, -90.14927781804565 2.713198215567455 M-90.14927781804565 2.713198215567455 C-90.20109726649872 2.3112968062729684, -90.25291671495178 1.9093953969784816, -90.28863242013637 1.6323914404306026 M-90.14927781804565 2.713198215567455 C-90.20395962319694 2.289096932957779, -90.25864142834824 1.8649956503481024, -90.28863242013637 1.6323914404306026 M-90.28863242013637 1.6323914404306026 C-90.3066522615694 1.351717864756952, -90.32467210300243 1.0710442890833016, -90.3584531754117 0.54487681871814 M-90.28863242013637 1.6323914404306026 C-90.31185983492746 1.2706057062275145, -90.33508724971857 0.9088199720244262, -90.3584531754117 0.54487681871814 M-90.3584531754117 0.54487681871814 C-90.3584531754117 0.28364030017090425, -90.3584531754117 0.022403781623668517, -90.3584531754117 -0.5448768187181317 M-90.3584531754117 0.54487681871814 C-90.3584531754117 0.16833010938336057, -90.3584531754117 -0.20821659995141883, -90.3584531754117 -0.5448768187181317 M-90.3584531754117 -0.5448768187181317 C-90.33611796048855 -0.892765819807111, -90.3137827455654 -1.2406548208960904, -90.28863242013637 -1.6323914404305793 M-90.3584531754117 -0.5448768187181317 C-90.33195797357094 -0.9575609739299511, -90.30546277173018 -1.3702451291417703, -90.28863242013637 -1.6323914404305793 M-90.28863242013637 -1.6323914404305793 C-90.25479329372052 -1.8948410226205004, -90.22095416730468 -2.1572906048104215, -90.14927781804565 -2.713198215567447 M-90.28863242013637 -1.6323914404305793 C-90.25414122273051 -1.8998983564530545, -90.21965002532467 -2.1674052724755297, -90.14927781804565 -2.713198215567447 M-90.14927781804565 -2.713198215567447 C-90.09303766028997 -3.001979539281315, -90.03679750253428 -3.290760862995184, -89.940962007091 -3.782855877257341 M-90.14927781804565 -2.713198215567447 C-90.09699537186879 -2.9816575267867327, -90.04471292569193 -3.2501168380060186, -89.940962007091 -3.782855877257341 M-89.940962007091 -3.782855877257341 C-89.83293693250434 -4.194802305019783, -89.72491185791768 -4.606748732782224, -89.66454100162323 -4.836968972727544 M-89.940962007091 -3.782855877257341 C-89.84394667350468 -4.152817390933582, -89.74693133991833 -4.522778904609824, -89.66454100162323 -4.836968972727544 M-89.66454100162323 -4.836968972727544 C-89.53287502221349 -5.233525924584755, -89.40120904280376 -5.630082876441966, -89.32115067484594 -5.871205925162218 M-89.66454100162323 -4.836968972727544 C-89.57634363015013 -5.102605403261722, -89.48814625867703 -5.3682418337959, -89.32115067484594 -5.871205925162218 M-89.32115067484594 -5.871205925162218 C-89.19397990254777 -6.185320191418322, -89.0668091302496 -6.499434457674426, -88.91220209126881 -6.881316833080692 M-89.32115067484594 -5.871205925162218 C-89.23653757206307 -6.080201924918933, -89.15192446928022 -6.289197924675648, -88.91220209126881 -6.881316833080692 M-88.91220209126881 -6.881316833080692 C-88.7448518870429 -7.228823112876543, -88.57750168281699 -7.5763293926723945, -88.439375708341 -7.863150934094194 M-88.91220209126881 -6.881316833080692 C-88.7447878258204 -7.228956137375771, -88.57737356037198 -7.57659544167085, -88.439375708341 -7.863150934094194 M-88.439375708341 -7.863150934094194 C-88.30195400867609 -8.107157077305272, -88.16453230901118 -8.351163220516352, -87.90461447109088 -8.812673661278929 M-88.439375708341 -7.863150934094194 C-88.32269180046897 -8.070335028047882, -88.20600789259694 -8.277519122001571, -87.90461447109088 -8.812673661278929 M-87.90461447109088 -8.812673661278929 C-87.69221140432057 -9.138981810047644, -87.47980833755028 -9.46528995881636, -87.31011582814826 -9.725983222076884 M-87.90461447109088 -8.812673661278929 C-87.77634928610858 -9.009723429436523, -87.64808410112629 -9.206773197594117, -87.31011582814826 -9.725983222076884 M-87.31011582814826 -9.725983222076884 C-87.08859827156495 -10.022796567233957, -86.86708071498164 -10.31960991239103, -86.65832270195651 -10.599326631598467 M-87.31011582814826 -9.725983222076884 C-87.16801357503725 -9.916387295464045, -87.02591132192626 -10.106791368851205, -86.65832270195651 -10.599326631598467 M-86.65832270195651 -10.599326631598467 C-86.47336521334402 -10.816588222101938, -86.28840772473154 -11.033849812605409, -85.95191345028037 -11.42911513444238 M-86.65832270195651 -10.599326631598467 C-86.43153727093015 -10.865721703338618, -86.20475183990379 -11.13211677507877, -85.95191345028037 -11.42911513444238 M-85.95191345028037 -11.42911513444238 C-85.72174992877595 -11.666777867172234, -85.49158640727154 -11.904440599902088, -85.19379086025927 -12.21193895166136 M-85.95191345028037 -11.42911513444238 C-85.70104430007554 -11.688158128769144, -85.45017514987072 -11.947201123095907, -85.19379086025927 -12.21193895166136 M-85.19379086025927 -12.21193895166136 C-85.01649585501924 -12.372953584451578, -84.8392008497792 -12.533968217241796, -84.38707022023242 -12.944581292275274 M-85.19379086025927 -12.21193895166136 C-84.97185997528962 -12.413490709421357, -84.74992909031997 -12.615042467181352, -84.38707022023242 -12.944581292275274 M-84.38707022023242 -12.944581292275274 C-84.13559902946034 -13.14512287498658, -83.88412783868826 -13.345664457697884, -83.53506651835067 -13.624031571755259 M-84.38707022023242 -12.944581292275274 C-84.09293728394721 -13.179144481756568, -83.798804347662 -13.413707671237862, -83.53506651835067 -13.624031571755259 M-83.53506651835067 -13.624031571755259 C-83.22856689560862 -13.837832440425297, -82.92206727286656 -14.051633309095335, -82.64128082057934 -14.247497783161284 M-83.53506651835067 -13.624031571755259 C-83.22429012772987 -13.840815728559212, -82.91351373710907 -14.057599885363166, -82.64128082057934 -14.247497783161284 M-82.64128082057934 -14.247497783161284 C-82.44702646488332 -14.365255915149515, -82.2527721091873 -14.483014047137747, -81.70938588406695 -14.812417970097618 M-82.64128082057934 -14.247497783161284 C-82.30731396162493 -14.44995045566656, -81.97334710267052 -14.652403128171835, -81.70938588406695 -14.812417970097618 M-81.70938588406695 -14.812417970097618 C-81.50515927069918 -14.91896286347819, -81.30093265733142 -15.025507756858763, -80.74321106499849 -15.316470754341124 M-81.70938588406695 -14.812417970097618 C-81.45912083239085 -14.942981087254621, -81.20885578071476 -15.073544204411624, -80.74321106499849 -15.316470754341124 M-80.74321106499849 -15.316470754341124 C-80.52957417441831 -15.411041468487774, -80.31593728383814 -15.505612182634424, -79.74672658294936 -15.757584874882365 M-80.74321106499849 -15.316470754341124 C-80.35276072181087 -15.489311538972375, -79.96231037862323 -15.662152323603625, -79.74672658294936 -15.757584874882365 M-79.74672658294936 -15.757584874882365 C-79.42528568247492 -15.875878097624074, -79.10384478200046 -15.994171320365783, -78.72402720640156 -16.133947699181363 M-79.74672658294936 -15.757584874882365 C-79.49099975759519 -15.851694710525564, -79.235272932241 -15.94580454616876, -78.72402720640156 -16.133947699181363 M-78.72402720640156 -16.133947699181363 C-78.42968546906125 -16.221306781792656, -78.13534373172097 -16.30866586440395, -77.67931542646164 -16.444012671663494 M-78.72402720640156 -16.133947699181363 C-78.34964219991856 -16.245063203918516, -77.97525719343557 -16.35617870865567, -77.67931542646164 -16.444012671663494 M-77.67931542646164 -16.444012671663494 C-77.27271377332355 -16.53681684566851, -76.86611212018545 -16.62962101967353, -76.61688418792333 -16.68650566884811 M-77.67931542646164 -16.444012671663494 C-77.40329690744665 -16.5070120974395, -77.12727838843165 -16.57001152321551, -76.61688418792333 -16.68650566884811 M-76.61688418792333 -16.68650566884811 C-76.29419829887988 -16.738675020922212, -75.97151240983641 -16.790844372996315, -75.54109924863661 -16.86043023499518 M-76.61688418792333 -16.68650566884811 C-76.39716532419666 -16.722028110790202, -76.17744646047 -16.757550552732294, -75.54109924863661 -16.86043023499518 M-75.54109924863661 -16.86043023499518 C-75.30221005808869 -16.883475587901053, -75.06332086754077 -16.906520940806924, -74.45638123967213 -16.965071676755716 M-75.54109924863661 -16.86043023499518 C-75.26661368273099 -16.886909527420904, -74.99212811682538 -16.91338881984663, -74.45638123967213 -16.965071676755716 M-74.45638123967213 -16.965071676755716 C-74.17205294384335 -16.97418953179149, -73.8877246480146 -16.983307386827263, -73.3671875 -17 M-74.45638123967213 -16.965071676755716 C-74.0967263138444 -16.976605110201167, -73.73707138801667 -16.988138543646617, -73.3671875 -17 M-73.3671875 -17 C-73.3671875 -17, -73.3671875 -17, -73.3671875 -17 M-73.3671875 -17 C-73.3671875 -17, -73.3671875 -17, -73.3671875 -17" stroke="#555555" stroke-width="1.3" fill="none" stroke-dasharray="0 0" style=""></path></g><g class="label" style="" transform="translate(0, -9.5)"><rect></rect><g><rect class="background" style="stroke: none"></rect><text y="-10.1" style=""><tspan class="text-outer-tspan row" x="0" y="-0.1em" dy="1.1em"><tspan font-style="normal" class="text-inner-tspan" font-weight="normal">Edge</tspan><tspan font-style="normal" class="text-inner-tspan" font-weight="normal"> receives</tspan><tspan font-style="normal" class="text-inner-tspan" font-weight="normal"> request</tspan></tspan></text></g></g></g><g class="node default" id="g81fbcc03-b7d8-4c30-9354-085a24325077-dark-flowchart-KEY-1" data-look="classic" transform="translate(225.53125, 125.29999923706055)"><rect class="basic label-container" style="" x="-104.34375" y="-33.29999923706055" width="208.6875" height="66.5999984741211"></rect><g class="label" style="" transform="translate(0, -18.299999237060547)"><rect></rect><g><rect class="background" style="stroke: none"></rect><text y="-10.1" style=""><tspan class="text-outer-tspan row" x="0" y="-0.1em" dy="1.1em"><tspan font-style="normal" class="text-inner-tspan" font-weight="normal">Build</tspan><tspan font-style="normal" class="text-inner-tspan" font-weight="normal"> cache</tspan><tspan font-style="normal" class="text-inner-tspan" font-weight="normal"> key</tspan></tspan><tspan class="text-outer-tspan row" x="0" y="1em" dy="1.1em"><tspan font-style="normal" class="text-inner-tspan" font-weight="normal">(URL</tspan><tspan font-style="normal" class="text-inner-tspan" font-weight="normal"> +</tspan><tspan font-style="normal" class="text-inner-tspan" font-weight="normal"> Vary</tspan><tspan font-style="normal" class="text-inner-tspan" font-weight="normal"> headers)</tspan></tspan></text></g></g></g><g class="node default" id="g81fbcc03-b7d8-4c30-9354-085a24325077-dark-flowchart-LOOK-3" data-look="classic" transform="translate(225.53125, 285.3140563964844)"><polygon points="76.71406173706055,0 153.4281234741211,-76.71406173706055 76.71406173706055,-153.4281234741211 0,-76.71406173706055" class="label-container" transform="translate(-76.21406173706055, 76.71406173706055)"></polygon><g class="label" style="" transform="translate(0, -18.299999237060547)"><rect></rect><g><rect class="background" style="stroke: none"></rect><text y="-10.1" style=""><tspan class="text-outer-tspan row" x="0" y="-0.1em" dy="1.1em"><tspan font-style="normal" class="text-inner-tspan" font-weight="normal">Object</tspan><tspan font-style="normal" class="text-inner-tspan" font-weight="normal"> in</tspan></tspan><tspan class="text-outer-tspan row" x="0" y="1em" dy="1.1em"><tspan font-style="normal" class="text-inner-tspan" font-weight="normal">edge</tspan><tspan font-style="normal" class="text-inner-tspan" font-weight="normal"> cache?</tspan></tspan></text></g></g></g><g class="node default hit" id="g81fbcc03-b7d8-4c30-9354-085a24325077-dark-flowchart-SERVE_F-5" data-look="classic" transform="translate(242.3046875, 955.0968589782715)"><rect class="basic label-container" style="fill:#196634 !important;stroke:#15803d !important" x="-88.625" y="-33.29999923706055" width="177.25" height="66.5999984741211"></rect><g class="label" style="color:#0f172a !important" transform="translate(0, -18.299999237060547)"><rect></rect><g><rect class="background" style="stroke: none"></rect><text y="-10.1" style="fill:#0f172a !important"><tspan class="text-outer-tspan row" x="0" y="-0.1em" dy="1.1em"><tspan font-style="normal" class="text-inner-tspan" font-weight="normal">Serve</tspan><tspan font-style="normal" class="text-inner-tspan" font-weight="normal"> from</tspan><tspan font-style="normal" class="text-inner-tspan" font-weight="normal"> edge</tspan></tspan><tspan class="text-outer-tspan row" x="0" y="1em" dy="1.1em"><tspan font-style="normal" class="text-inner-tspan" font-weight="normal">(5-20</tspan><tspan font-style="normal" class="text-inner-tspan" font-weight="normal"> ms)</tspan></tspan></text></g></g></g><g class="node default hit" id="g81fbcc03-b7d8-4c30-9354-085a24325077-dark-flowchart-SERVE_S-7" data-look="classic" transform="translate(225.53125, 468.3281135559082)"><rect class="basic label-container" style="fill:#196634 !important;stroke:#15803d !important" x="-116.46875" y="-24.5" width="232.9375" height="49"></rect><g class="label" style="color:#0f172a !important" transform="translate(0, -9.5)"><rect></rect><g><rect class="background" style="stroke: none"></rect><text y="-10.1" style="fill:#0f172a !important"><tspan class="text-outer-tspan row" x="0" y="-0.1em" dy="1.1em"><tspan font-style="normal" class="text-inner-tspan" font-weight="normal">Serve</tspan><tspan font-style="normal" class="text-inner-tspan" font-weight="normal"> stale</tspan><tspan font-style="normal" class="text-inner-tspan" font-weight="normal"> immediately</tspan></tspan></text></g></g></g><g class="node default" id="g81fbcc03-b7d8-4c30-9354-085a24325077-dark-flowchart-BG-9" data-look="classic" transform="translate(225.53125, 650.7124862670898)"><rect class="basic label-container" style="" x="-110.1875" y="-33.29999923706055" width="220.375" height="66.5999984741211"></rect><g class="label" style="" transform="translate(0, -18.299999237060547)"><rect></rect><g><rect class="background" style="stroke: none"></rect><text y="-10.1" style=""><tspan class="text-outer-tspan row" x="0" y="-0.1em" dy="1.1em"><tspan font-style="normal" class="text-inner-tspan" font-weight="normal">Background</tspan><tspan font-style="normal" class="text-inner-tspan" font-weight="normal"> revalidate</tspan></tspan><tspan class="text-outer-tspan row" x="0" y="1em" dy="1.1em"><tspan font-style="normal" class="text-inner-tspan" font-weight="normal">to</tspan><tspan font-style="normal" class="text-inner-tspan" font-weight="normal"> origin</tspan></tspan></text></g></g></g><g class="node default" id="g81fbcc03-b7d8-4c30-9354-085a24325077-dark-flowchart-STORE-11" data-look="classic" transform="translate(242.3046875, 847.2968597412109)"><rect class="basic label-container" style="" x="-108.109375" y="-24.5" width="216.21875" height="49"></rect><g class="label" style="" transform="translate(0, -9.5)"><rect></rect><g><rect class="background" style="stroke: none"></rect><text y="-10.1" style=""><tspan class="text-outer-tspan row" x="0" y="-0.1em" dy="1.1em"><tspan font-style="normal" class="text-inner-tspan" font-weight="normal">Store</tspan><tspan font-style="normal" class="text-inner-tspan" font-weight="normal"> +</tspan><tspan font-style="normal" class="text-inner-tspan" font-weight="normal"> emit</tspan><tspan font-style="normal" class="text-inner-tspan" font-weight="normal"> response</tspan></tspan></text></g></g></g><g class="node default miss" id="g81fbcc03-b7d8-4c30-9354-085a24325077-dark-flowchart-ORIGIN-13" data-look="classic" transform="translate(510.49531173706055, 468.3281135559082)"><rect class="basic label-container" style="fill:#665719 !important;stroke:#b45309 !important" x="-92.25" y="-33.29999923706055" width="184.5" height="66.5999984741211"></rect><g class="label" style="color:#0f172a !important" transform="translate(0, -18.299999237060547)"><rect></rect><g><rect class="background" style="stroke: none"></rect><text y="-10.1" style="fill:#0f172a !important"><tspan class="text-outer-tspan row" x="0" y="-0.1em" dy="1.1em"><tspan font-style="normal" class="text-inner-tspan" font-weight="normal">Fetch</tspan><tspan font-style="normal" class="text-inner-tspan" font-weight="normal"> from</tspan><tspan font-style="normal" class="text-inner-tspan" font-weight="normal"> origin</tspan></tspan><tspan class="text-outer-tspan row" x="0" y="1em" dy="1.1em"><tspan font-style="normal" class="text-inner-tspan" font-weight="normal">(via</tspan><tspan font-style="normal" class="text-inner-tspan" font-weight="normal"> VPC)</tspan></tspan></text></g></g></g><g class="node default" id="g81fbcc03-b7d8-4c30-9354-085a24325077-dark-flowchart-CACHEABLE-15" data-look="classic" transform="translate(510.49531173706055, 650.7124862670898)"><polygon points="99.0843734741211,0 198.1687469482422,-99.0843734741211 99.0843734741211,-198.1687469482422 0,-99.0843734741211" class="label-container" transform="translate(-98.5843734741211, 99.0843734741211)"></polygon><g class="label" style="" transform="translate(0, -27.099998474121094)"><rect></rect><g><rect class="background" style="stroke: none"></rect><text y="-10.1" style=""><tspan class="text-outer-tspan row" x="0" y="-0.1em" dy="1.1em"><tspan font-style="normal" class="text-inner-tspan" font-weight="normal">Cacheable?</tspan></tspan><tspan class="text-outer-tspan row" x="0" y="1em" dy="1.1em"><tspan font-style="normal" class="text-inner-tspan" font-weight="normal">(Cache-Control,</tspan></tspan><tspan class="text-outer-tspan row" x="0" y="2.1em" dy="1.1em"><tspan font-style="normal" class="text-inner-tspan" font-weight="normal">status,</tspan><tspan font-style="normal" class="text-inner-tspan" font-weight="normal"> method)</tspan></tspan></text></g></g></g><g class="node default bypass" id="g81fbcc03-b7d8-4c30-9354-085a24325077-dark-flowchart-BYPASS-19" data-look="classic" transform="translate(532.6007804870605, 847.2968597412109)"><rect class="basic label-container" style="fill:#661919 !important;stroke:#b91c1c !important" x="-119" y="-24.5" width="238" height="49"></rect><g class="label" style="color:#0f172a !important" transform="translate(0, -9.5)"><rect></rect><g><rect class="background" style="stroke: none"></rect><text y="-10.1" style="fill:#0f172a !important"><tspan class="text-outer-tspan row" x="0" y="-0.1em" dy="1.1em"><tspan font-style="normal" class="text-inner-tspan" font-weight="normal">Pass-through;</tspan><tspan font-style="normal" class="text-inner-tspan" font-weight="normal"> no</tspan><tspan font-style="normal" class="text-inner-tspan" font-weight="normal"> caching</tspan></tspan></text></g></g></g></g></g></g><defs><filter id="g81fbcc03-b7d8-4c30-9354-085a24325077-dark-drop-shadow" height="130%" width="130%"><feDropShadow dx="4" dy="4" stdDeviation="0" flood-opacity="0.06" flood-color="#000000"></feDropShadow></filter></defs><defs><filter id="g81fbcc03-b7d8-4c30-9354-085a24325077-dark-drop-shadow-small" height="150%" width="150%"><feDropShadow dx="2" dy="2" stdDeviation="0" flood-opacity="0.06" flood-color="#000000"></feDropShadow></filter></defs><linearGradient id="g81fbcc03-b7d8-4c30-9354-085a24325077-dark-gradient" gradientUnits="objectBoundingBox" x1="0%" y1="0%" x2="100%" y2="0%"><stop offset="0%" stop-color="#555555" stop-opacity="1"></stop><stop offset="100%" stop-color="#555555" stop-opacity="1"></stop></linearGradient></svg>