<svg id="gb62277e5-48bd-47ee-bcba-8822dd5756c4-light" width="100%" xmlns="http://www.w3.org/2000/svg" xmlns:xlink="http://www.w3.org/1999/xlink" class="flowchart" style="max-width: 746.7867431640625px;" viewBox="0 0 746.7867431640625 849.4000244140625" role="graphics-document document" aria-roledescription="flowchart-v2"><style>#gb62277e5-48bd-47ee-bcba-8822dd5756c4-light{font-family:"trebuchet ms",verdana,arial,sans-serif;font-size:16px;fill:#333;}@keyframes edge-animation-frame{from{stroke-dashoffset:0;}}@keyframes dash{to{stroke-dashoffset:0;}}#gb62277e5-48bd-47ee-bcba-8822dd5756c4-light .edge-animation-slow{stroke-dasharray:9,5!important;stroke-dashoffset:900;animation:dash 50s linear infinite;stroke-linecap:round;}#gb62277e5-48bd-47ee-bcba-8822dd5756c4-light .edge-animation-fast{stroke-dasharray:9,5!important;stroke-dashoffset:900;animation:dash 20s linear infinite;stroke-linecap:round;}#gb62277e5-48bd-47ee-bcba-8822dd5756c4-light .error-icon{fill:#552222;}#gb62277e5-48bd-47ee-bcba-8822dd5756c4-light .error-text{fill:#552222;stroke:#552222;}#gb62277e5-48bd-47ee-bcba-8822dd5756c4-light .edge-thickness-normal{stroke-width:1px;}#gb62277e5-48bd-47ee-bcba-8822dd5756c4-light .edge-thickness-thick{stroke-width:3.5px;}#gb62277e5-48bd-47ee-bcba-8822dd5756c4-light .edge-pattern-solid{stroke-dasharray:0;}#gb62277e5-48bd-47ee-bcba-8822dd5756c4-light .edge-thickness-invisible{stroke-width:0;fill:none;}#gb62277e5-48bd-47ee-bcba-8822dd5756c4-light .edge-pattern-dashed{stroke-dasharray:3;}#gb62277e5-48bd-47ee-bcba-8822dd5756c4-light .edge-pattern-dotted{stroke-dasharray:2;}#gb62277e5-48bd-47ee-bcba-8822dd5756c4-light .marker{fill:#333333;stroke:#333333;}#gb62277e5-48bd-47ee-bcba-8822dd5756c4-light .marker.cross{stroke:#333333;}#gb62277e5-48bd-47ee-bcba-8822dd5756c4-light svg{font-family:"trebuchet ms",verdana,arial,sans-serif;font-size:16px;}#gb62277e5-48bd-47ee-bcba-8822dd5756c4-light p{margin:0;}#gb62277e5-48bd-47ee-bcba-8822dd5756c4-light .label{font-family:"trebuchet ms",verdana,arial,sans-serif;color:#333;}#gb62277e5-48bd-47ee-bcba-8822dd5756c4-light .cluster-label text{fill:#333;}#gb62277e5-48bd-47ee-bcba-8822dd5756c4-light .cluster-label span{color:#333;}#gb62277e5-48bd-47ee-bcba-8822dd5756c4-light .cluster-label span p{background-color:transparent;}#gb62277e5-48bd-47ee-bcba-8822dd5756c4-light .label text,#gb62277e5-48bd-47ee-bcba-8822dd5756c4-light span{fill:#333;color:#333;}#gb62277e5-48bd-47ee-bcba-8822dd5756c4-light .node rect,#gb62277e5-48bd-47ee-bcba-8822dd5756c4-light .node circle,#gb62277e5-48bd-47ee-bcba-8822dd5756c4-light .node ellipse,#gb62277e5-48bd-47ee-bcba-8822dd5756c4-light .node polygon,#gb62277e5-48bd-47ee-bcba-8822dd5756c4-light .node path{fill:#ECECFF;stroke:#9370DB;stroke-width:1px;}#gb62277e5-48bd-47ee-bcba-8822dd5756c4-light .rough-node .label text,#gb62277e5-48bd-47ee-bcba-8822dd5756c4-light .node .label text,#gb62277e5-48bd-47ee-bcba-8822dd5756c4-light .image-shape .label,#gb62277e5-48bd-47ee-bcba-8822dd5756c4-light .icon-shape .label{text-anchor:middle;}#gb62277e5-48bd-47ee-bcba-8822dd5756c4-light .node .katex path{fill:#000;stroke:#000;stroke-width:1px;}#gb62277e5-48bd-47ee-bcba-8822dd5756c4-light .rough-node .label,#gb62277e5-48bd-47ee-bcba-8822dd5756c4-light .node .label,#gb62277e5-48bd-47ee-bcba-8822dd5756c4-light .image-shape .label,#gb62277e5-48bd-47ee-bcba-8822dd5756c4-light .icon-shape .label{text-align:center;}#gb62277e5-48bd-47ee-bcba-8822dd5756c4-light .node.clickable{cursor:pointer;}#gb62277e5-48bd-47ee-bcba-8822dd5756c4-light .root .anchor path{fill:#333333!important;stroke-width:0;stroke:#333333;}#gb62277e5-48bd-47ee-bcba-8822dd5756c4-light .arrowheadPath{fill:#333333;}#gb62277e5-48bd-47ee-bcba-8822dd5756c4-light .edgePath .path{stroke:#333333;stroke-width:1px;}#gb62277e5-48bd-47ee-bcba-8822dd5756c4-light .flowchart-link{stroke:#333333;fill:none;}#gb62277e5-48bd-47ee-bcba-8822dd5756c4-light .edgeLabel{background-color:rgba(232,232,232, 0.8);text-align:center;}#gb62277e5-48bd-47ee-bcba-8822dd5756c4-light .edgeLabel p{background-color:rgba(232,232,232, 0.8);}#gb62277e5-48bd-47ee-bcba-8822dd5756c4-light .edgeLabel rect{opacity:0.5;background-color:rgba(232,232,232, 0.8);fill:rgba(232,232,232, 0.8);}#gb62277e5-48bd-47ee-bcba-8822dd5756c4-light .labelBkg{background-color:rgba(232, 232, 232, 0.5);}#gb62277e5-48bd-47ee-bcba-8822dd5756c4-light .cluster rect{fill:#ffffde;stroke:#aaaa33;stroke-width:1px;}#gb62277e5-48bd-47ee-bcba-8822dd5756c4-light .cluster text{fill:#333;}#gb62277e5-48bd-47ee-bcba-8822dd5756c4-light .cluster span{color:#333;}#gb62277e5-48bd-47ee-bcba-8822dd5756c4-light div.mermaidTooltip{position:absolute;text-align:center;max-width:200px;padding:2px;font-family:"trebuchet ms",verdana,arial,sans-serif;font-size:12px;background:hsl(80, 100%, 96.2745098039%);border:1px solid #aaaa33;border-radius:2px;pointer-events:none;z-index:100;}#gb62277e5-48bd-47ee-bcba-8822dd5756c4-light .flowchartTitleText{text-anchor:middle;font-size:18px;fill:#333;}#gb62277e5-48bd-47ee-bcba-8822dd5756c4-light rect.text{fill:none;stroke-width:0;}#gb62277e5-48bd-47ee-bcba-8822dd5756c4-light .icon-shape,#gb62277e5-48bd-47ee-bcba-8822dd5756c4-light .image-shape{background-color:rgba(232,232,232, 0.8);text-align:center;}#gb62277e5-48bd-47ee-bcba-8822dd5756c4-light .icon-shape p,#gb62277e5-48bd-47ee-bcba-8822dd5756c4-light .image-shape p{background-color:rgba(232,232,232, 0.8);padding:2px;}#gb62277e5-48bd-47ee-bcba-8822dd5756c4-light .icon-shape .label rect,#gb62277e5-48bd-47ee-bcba-8822dd5756c4-light .image-shape .label rect{opacity:0.5;background-color:rgba(232,232,232, 0.8);fill:rgba(232,232,232, 0.8);}#gb62277e5-48bd-47ee-bcba-8822dd5756c4-light .label-icon{display:inline-block;height:1em;overflow:visible;vertical-align:-0.125em;}#gb62277e5-48bd-47ee-bcba-8822dd5756c4-light .node .label-icon path{fill:currentColor;stroke:revert;stroke-width:revert;}#gb62277e5-48bd-47ee-bcba-8822dd5756c4-light .node .neo-node{stroke:#9370DB;}#gb62277e5-48bd-47ee-bcba-8822dd5756c4-light [data-look="neo"].node rect,#gb62277e5-48bd-47ee-bcba-8822dd5756c4-light [data-look="neo"].cluster rect,#gb62277e5-48bd-47ee-bcba-8822dd5756c4-light [data-look="neo"].node polygon{stroke:#9370DB;filter:drop-shadow(1px 2px 2px rgba(185, 185, 185, 1));}#gb62277e5-48bd-47ee-bcba-8822dd5756c4-light [data-look="neo"].node path{stroke:#9370DB;stroke-width:1px;}#gb62277e5-48bd-47ee-bcba-8822dd5756c4-light [data-look="neo"].node .outer-path{filter:drop-shadow(1px 2px 2px rgba(185, 185, 185, 1));}#gb62277e5-48bd-47ee-bcba-8822dd5756c4-light [data-look="neo"].node .neo-line path{stroke:#9370DB;filter:none;}#gb62277e5-48bd-47ee-bcba-8822dd5756c4-light [data-look="neo"].node circle{stroke:#9370DB;filter:drop-shadow(1px 2px 2px rgba(185, 185, 185, 1));}#gb62277e5-48bd-47ee-bcba-8822dd5756c4-light [data-look="neo"].node circle .state-start{fill:#000000;}#gb62277e5-48bd-47ee-bcba-8822dd5756c4-light [data-look="neo"].icon-shape .icon{fill:#9370DB;filter:drop-shadow(1px 2px 2px rgba(185, 185, 185, 1));}#gb62277e5-48bd-47ee-bcba-8822dd5756c4-light [data-look="neo"].icon-shape .icon-neo path{stroke:#9370DB;filter:drop-shadow(1px 2px 2px rgba(185, 185, 185, 1));}#gb62277e5-48bd-47ee-bcba-8822dd5756c4-light :root{--mermaid-font-family:"trebuchet ms",verdana,arial,sans-serif;}</style><g><marker id="gb62277e5-48bd-47ee-bcba-8822dd5756c4-light_flowchart-v2-pointEnd" class="marker flowchart-v2" viewBox="0 0 10 10" refX="5" refY="5" markerUnits="userSpaceOnUse" markerWidth="8" markerHeight="8" orient="auto"><path d="M 0 0 L 10 5 L 0 10 z" class="arrowMarkerPath" style="stroke-width: 1; stroke-dasharray: 1, 0;"></path></marker><marker id="gb62277e5-48bd-47ee-bcba-8822dd5756c4-light_flowchart-v2-pointStart" class="marker flowchart-v2" viewBox="0 0 10 10" refX="4.5" refY="5" markerUnits="userSpaceOnUse" markerWidth="8" markerHeight="8" orient="auto"><path d="M 0 5 L 10 10 L 10 0 z" class="arrowMarkerPath" style="stroke-width: 1; stroke-dasharray: 1, 0;"></path></marker><marker id="gb62277e5-48bd-47ee-bcba-8822dd5756c4-light_flowchart-v2-pointEnd-margin" class="marker flowchart-v2" viewBox="0 0 11.5 14" refX="11.5" refY="7" markerUnits="userSpaceOnUse" markerWidth="10.5" markerHeight="14" orient="auto"><path d="M 0 0 L 11.5 7 L 0 14 z" class="arrowMarkerPath" style="stroke-width: 0; stroke-dasharray: 1, 0;"></path></marker><marker id="gb62277e5-48bd-47ee-bcba-8822dd5756c4-light_flowchart-v2-pointStart-margin" class="marker flowchart-v2" viewBox="0 0 11.5 14" refX="1" refY="7" markerUnits="userSpaceOnUse" markerWidth="11.5" markerHeight="14" orient="auto"><polygon points="0,7 11.5,14 11.5,0" class="arrowMarkerPath" style="stroke-width: 0; stroke-dasharray: 1, 0;"></polygon></marker><marker id="gb62277e5-48bd-47ee-bcba-8822dd5756c4-light_flowchart-v2-circleEnd" class="marker flowchart-v2" viewBox="0 0 10 10" refX="11" refY="5" markerUnits="userSpaceOnUse" markerWidth="11" markerHeight="11" orient="auto"><circle cx="5" cy="5" r="5" class="arrowMarkerPath" style="stroke-width: 1; stroke-dasharray: 1, 0;"></circle></marker><marker id="gb62277e5-48bd-47ee-bcba-8822dd5756c4-light_flowchart-v2-circleStart" class="marker flowchart-v2" viewBox="0 0 10 10" refX="-1" refY="5" markerUnits="userSpaceOnUse" markerWidth="11" markerHeight="11" orient="auto"><circle cx="5" cy="5" r="5" class="arrowMarkerPath" style="stroke-width: 1; stroke-dasharray: 1, 0;"></circle></marker><marker id="gb62277e5-48bd-47ee-bcba-8822dd5756c4-light_flowchart-v2-circleEnd-margin" class="marker flowchart-v2" viewBox="0 0 10 10" refY="5" refX="12.25" markerUnits="userSpaceOnUse" markerWidth="14" markerHeight="14" orient="auto"><circle cx="5" cy="5" r="5" class="arrowMarkerPath" style="stroke-width: 0; stroke-dasharray: 1, 0;"></circle></marker><marker id="gb62277e5-48bd-47ee-bcba-8822dd5756c4-light_flowchart-v2-circleStart-margin" class="marker flowchart-v2" viewBox="0 0 10 10" refX="-2" refY="5" markerUnits="userSpaceOnUse" markerWidth="14" markerHeight="14" orient="auto"><circle cx="5" cy="5" r="5" class="arrowMarkerPath" style="stroke-width: 0; stroke-dasharray: 1, 0;"></circle></marker><marker id="gb62277e5-48bd-47ee-bcba-8822dd5756c4-light_flowchart-v2-crossEnd" class="marker cross flowchart-v2" viewBox="0 0 11 11" refX="12" refY="5.2" markerUnits="userSpaceOnUse" markerWidth="11" markerHeight="11" orient="auto"><path d="M 1,1 l 9,9 M 10,1 l -9,9" class="arrowMarkerPath" style="stroke-width: 2; stroke-dasharray: 1, 0;"></path></marker><marker id="gb62277e5-48bd-47ee-bcba-8822dd5756c4-light_flowchart-v2-crossStart" class="marker cross flowchart-v2" viewBox="0 0 11 11" refX="-1" refY="5.2" markerUnits="userSpaceOnUse" markerWidth="11" markerHeight="11" orient="auto"><path d="M 1,1 l 9,9 M 10,1 l -9,9" class="arrowMarkerPath" style="stroke-width: 2; stroke-dasharray: 1, 0;"></path></marker><marker id="gb62277e5-48bd-47ee-bcba-8822dd5756c4-light_flowchart-v2-crossEnd-margin" class="marker cross flowchart-v2" viewBox="0 0 15 15" refX="17.7" refY="7.5" markerUnits="userSpaceOnUse" markerWidth="12" markerHeight="12" orient="auto"><path d="M 1,1 L 14,14 M 1,14 L 14,1" class="arrowMarkerPath" style="stroke-width: 2.5;"></path></marker><marker id="gb62277e5-48bd-47ee-bcba-8822dd5756c4-light_flowchart-v2-crossStart-margin" class="marker cross flowchart-v2" viewBox="0 0 15 15" refX="-3.5" refY="7.5" markerUnits="userSpaceOnUse" markerWidth="12" markerHeight="12" orient="auto"><path d="M 1,1 L 14,14 M 1,14 L 14,1" class="arrowMarkerPath" style="stroke-width: 2.5; stroke-dasharray: 1, 0;"></path></marker><g class="root"><g class="clusters"></g><g class="edgePaths"><path d="M266.52,42.5L266.437,46.583C266.354,50.667,266.187,58.833,266.174,66.5C266.161,74.167,266.301,81.334,266.372,84.917L266.442,88.501" id="gb62277e5-48bd-47ee-bcba-8822dd5756c4-light-L_Asset_Vec_0" class="edge-thickness-normal edge-pattern-solid edge-thickness-normal edge-pattern-solid flowchart-link" style=";" data-edge="true" data-et="edge" data-id="L_Asset_Vec_0" data-points="W3sieCI6MjY2LjUyMDMxMzI2MjkzOTQ1LCJ5Ijo0Mi41fSx7IngiOjI2Ni4wMjAzMTMyNjI5Mzk0NSwieSI6Njd9LHsieCI6MjY2LjUyMDMxMzI2MjkzOTQ1LCJ5Ijo5Mi41fV0=" data-look="classic" marker-end="url(#gb62277e5-48bd-47ee-bcba-8822dd5756c4-light_flowchart-v2-pointEnd)"></path><path d="M212.627,144.1L199.836,150.1C187.046,156.1,161.464,168.1,148.674,179.517C135.883,190.933,135.883,201.767,135.883,207.183L135.883,212.6" id="gb62277e5-48bd-47ee-bcba-8822dd5756c4-light-L_Vec_SVG_0" class="edge-thickness-normal edge-pattern-solid edge-thickness-normal edge-pattern-solid flowchart-link" style=";" data-edge="true" data-et="edge" data-id="L_Vec_SVG_0" data-points="W3sieCI6MjEyLjYyNzA5NTU4MjEzNTgsInkiOjE0NC4wOTk5OTg0NzQxMjExfSx7IngiOjEzNS44ODI4MTI1LCJ5IjoxODAuMDk5OTk4NDc0MTIxMX0seyJ4IjoxMzUuODgyODEyNSwieSI6MjE2LjU5OTk5ODQ3NDEyMTF9XQ==" data-look="classic" marker-end="url(#gb62277e5-48bd-47ee-bcba-8822dd5756c4-light_flowchart-v2-pointEnd)"></path><path d="M320.414,144.1L333.038,150.1C345.662,156.1,370.91,168.1,383.61,180.85C396.31,193.6,396.461,207.1,396.537,213.85L396.613,220.6" id="gb62277e5-48bd-47ee-bcba-8822dd5756c4-light-L_Vec_Photo_0" class="edge-thickness-normal edge-pattern-solid edge-thickness-normal edge-pattern-solid flowchart-link" style=";" data-edge="true" data-et="edge" data-id="L_Vec_Photo_0" data-points="W3sieCI6MzIwLjQxMzUzMDk0Mzc0MzA3LCJ5IjoxNDQuMDk5OTk4NDc0MTIxMX0seyJ4IjozOTYuMTU3ODE0MDI1ODc4OSwieSI6MTgwLjA5OTk5ODQ3NDEyMTF9LHsieCI6Mzk2LjY1NzgxNDAyNTg3ODksInkiOjIyNC41OTk5OTg0NzQxMjExfV0=" data-look="classic" marker-end="url(#gb62277e5-48bd-47ee-bcba-8822dd5756c4-light_flowchart-v2-pointEnd)"></path><path d="M325.024,271.916L298.147,279.88C271.271,287.844,217.519,303.772,190.719,318.703C163.919,333.633,164.071,347.567,164.147,354.534L164.224,361.5" id="gb62277e5-48bd-47ee-bcba-8822dd5756c4-light-L_Photo_Anim_0" class="edge-thickness-normal edge-pattern-solid edge-thickness-normal edge-pattern-solid flowchart-link" style=";" data-edge="true" data-et="edge" data-id="L_Photo_Anim_0" data-points="W3sieCI6MzI1LjAyMzUzMDgxNzU5NzYsInkiOjI3MS45MTU4MDkzNDYzNzc0fSx7IngiOjE2My43NjcxODkwMjU4Nzg5LCJ5IjozMTkuNjk5OTk2OTQ4MjQyMn0seyJ4IjoxNjQuMjY3MTg5MDI1ODc4OSwieSI6MzY1LjQ5OTk5NjE4NTMwMjczfV0=" data-look="classic" marker-end="url(#gb62277e5-48bd-47ee-bcba-8822dd5756c4-light_flowchart-v2-pointEnd)"></path><path d="M158.165,399.5L155.371,406.967C152.578,414.433,146.991,429.367,144.197,443.717C141.404,458.067,141.404,471.833,141.404,478.717L141.404,485.6" id="gb62277e5-48bd-47ee-bcba-8822dd5756c4-light-L_Anim_AnimChoice_0" class="edge-thickness-normal edge-pattern-solid edge-thickness-normal edge-pattern-solid flowchart-link" style=";" data-edge="true" data-et="edge" data-id="L_Anim_AnimChoice_0" data-points="W3sieCI6MTU4LjE2NDg0ODk2MzE4NjgsInkiOjM5OS40OTk5OTYxODUzMDI4fSx7IngiOjE0MS40MDM5MDc3NzU4Nzg5LCJ5Ijo0NDQuMjk5OTk1NDIyMzYzM30seyJ4IjoxNDEuNDAzOTA3Nzc1ODc4OSwieSI6NDg5LjU5OTk5ODQ3NDEyMTF9XQ==" data-look="classic" marker-end="url(#gb62277e5-48bd-47ee-bcba-8822dd5756c4-light_flowchart-v2-pointEnd)"></path><path d="M199.643,399.5L215.27,406.967C230.898,414.433,262.153,429.367,284.73,442.496C307.308,455.624,321.208,466.949,328.158,472.611L335.108,478.273" id="gb62277e5-48bd-47ee-bcba-8822dd5756c4-light-L_Anim_Tier_0" class="edge-thickness-normal edge-pattern-solid edge-thickness-normal edge-pattern-solid flowchart-link" style=";" data-edge="true" data-et="edge" data-id="L_Anim_Tier_0" data-points="W3sieCI6MTk5LjY0MjY0MDkwMzcxNzIyLCJ5IjozOTkuNDk5OTk2MTg1MzAyOH0seyJ4IjoyOTMuNDA3ODE0MDI1ODc4OSwieSI6NDQ0LjI5OTk5NTQyMjM2MzN9LHsieCI6MzM4LjIwODk5MjI2OTc0NDIsInkiOjQ4MC43OTk5OTU0MjIzNjMzfV0=" data-look="classic" marker-end="url(#gb62277e5-48bd-47ee-bcba-8822dd5756c4-light_flowchart-v2-pointEnd)"></path><path d="M468.292,271.916L495.001,279.88C521.711,287.844,575.13,303.772,601.913,317.236C628.697,330.7,628.846,341.7,628.92,347.2L628.994,352.7" id="gb62277e5-48bd-47ee-bcba-8822dd5756c4-light-L_Photo_Alpha_0" class="edge-thickness-normal edge-pattern-solid edge-thickness-normal edge-pattern-solid flowchart-link" style=";" data-edge="true" data-et="edge" data-id="L_Photo_Alpha_0" data-points="W3sieCI6NDY4LjI5MjA5MzkxNzU0NTQ2LCJ5IjoyNzEuOTE1ODA4MzUwMjExMTR9LHsieCI6NjI4LjU0ODQzOTAyNTg3ODksInkiOjMxOS42OTk5OTY5NDgyNDIyfSx7IngiOjYyOS4wNDg0MzkwMjU4Nzg5LCJ5IjozNTYuNjk5OTk2OTQ4MjQyMn1d" data-look="classic" marker-end="url(#gb62277e5-48bd-47ee-bcba-8822dd5756c4-light_flowchart-v2-pointEnd)"></path><path d="M638.31,408.3L640.41,414.3C642.51,420.3,646.711,432.3,648.811,443.717C650.912,455.133,650.912,465.967,650.912,471.383L650.912,476.8" id="gb62277e5-48bd-47ee-bcba-8822dd5756c4-light-L_Alpha_Lossless_0" class="edge-thickness-normal edge-pattern-solid edge-thickness-normal edge-pattern-solid flowchart-link" style=";" data-edge="true" data-et="edge" data-id="L_Alpha_Lossless_0" data-points="W3sieCI6NjM4LjMwOTYzNzIwMDA5ODgsInkiOjQwOC4yOTk5OTU0MjIzNjMzfSx7IngiOjY1MC45MTE3MjAyNzU4Nzg5LCJ5Ijo0NDQuMjk5OTk1NDIyMzYzM30seyJ4Ijo2NTAuOTExNzIwMjc1ODc4OSwieSI6NDgwLjc5OTk5NTQyMjM2MzN9XQ==" data-look="classic" marker-end="url(#gb62277e5-48bd-47ee-bcba-8822dd5756c4-light_flowchart-v2-pointEnd)"></path><path d="M577.236,408.3L564.936,414.3C552.636,420.3,528.035,432.3,509.091,443.951C490.147,455.603,476.859,466.906,470.215,472.557L463.572,478.208" id="gb62277e5-48bd-47ee-bcba-8822dd5756c4-light-L_Alpha_Tier_0" class="edge-thickness-normal edge-pattern-solid edge-thickness-normal edge-pattern-solid flowchart-link" style=";" data-edge="true" data-et="edge" data-id="L_Alpha_Tier_0" data-points="W3sieCI6NTc3LjIzNTg3NzIyMjg5MzUsInkiOjQwOC4yOTk5OTU0MjIzNjMzfSx7IngiOjUwMy40MzUxNTc3NzU4Nzg5LCJ5Ijo0NDQuMjk5OTk1NDIyMzYzM30seyJ4Ijo0NjAuNTI0Njg5NDE3NDgyNzYsInkiOjQ4MC43OTk5OTU0MjIzNjMzfV0=" data-look="classic" marker-end="url(#gb62277e5-48bd-47ee-bcba-8822dd5756c4-light_flowchart-v2-pointEnd)"></path><path d="M400.685,582.6L400.685,586.767C400.685,590.933,400.685,599.267,400.755,607.017C400.826,614.767,400.966,621.934,401.036,625.517L401.107,629.101" id="gb62277e5-48bd-47ee-bcba-8822dd5756c4-light-L_Tier_CDN_0" class="edge-thickness-normal edge-pattern-solid edge-thickness-normal edge-pattern-solid flowchart-link" style=";" data-edge="true" data-et="edge" data-id="L_Tier_CDN_0" data-points="W3sieCI6NDAwLjY4NTE1Nzc3NTg3ODksInkiOjU4Mi41OTk5OTg0NzQxMjExfSx7IngiOjQwMC42ODUxNTc3NzU4Nzg5LCJ5Ijo2MDcuNTk5OTk4NDc0MTIxMX0seyJ4Ijo0MDEuMTg1MTU3Nzc1ODc4MzQsInkiOjYzMy4wOTk5OTg0NzQxMjExfV0=" data-look="classic" marker-end="url(#gb62277e5-48bd-47ee-bcba-8822dd5756c4-light_flowchart-v2-pointEnd)"></path><path d="M342.709,684.7L328.838,690.7C314.967,696.7,287.224,708.7,273.353,721.583C259.482,734.467,259.482,748.233,259.482,755.117L259.482,762" id="gb62277e5-48bd-47ee-bcba-8822dd5756c4-light-L_CDN_Auto_0" class="edge-thickness-normal edge-pattern-solid edge-thickness-normal edge-pattern-solid flowchart-link" style=";" data-edge="true" data-et="edge" data-id="L_CDN_Auto_0" data-points="W3sieCI6MzQyLjcwOTM4NjMxNzA2NjQsInkiOjY4NC42OTk5OTY5NDgyNDJ9LHsieCI6MjU5LjQ4MjAzMjc3NTg3ODksInkiOjcyMC42OTk5OTY5NDgyNDIyfSx7IngiOjI1OS40ODIwMzI3NzU4Nzg5LCJ5Ijo3NjUuOTk5OTk2MTg1MzAyN31d" data-look="classic" marker-end="url(#gb62277e5-48bd-47ee-bcba-8822dd5756c4-light_flowchart-v2-pointEnd)"></path><path d="M459.661,684.7L473.365,690.7C487.07,696.7,514.479,708.7,528.184,720.117C541.888,731.533,541.888,742.367,541.888,747.783L541.888,753.2" id="gb62277e5-48bd-47ee-bcba-8822dd5756c4-light-L_CDN_Markup_0" class="edge-thickness-normal edge-pattern-solid edge-thickness-normal edge-pattern-solid flowchart-link" style=";" data-edge="true" data-et="edge" data-id="L_CDN_Markup_0" data-points="W3sieCI6NDU5LjY2MDkyOTIzNDY5MTgsInkiOjY4NC42OTk5OTY5NDgyNDJ9LHsieCI6NTQxLjg4ODI4Mjc3NTg3ODksInkiOjcyMC42OTk5OTY5NDgyNDIyfSx7IngiOjU0MS44ODgyODI3NzU4Nzg5LCJ5Ijo3NTcuMTk5OTk2OTQ4MjQyMn1d" data-look="classic" marker-end="url(#gb62277e5-48bd-47ee-bcba-8822dd5756c4-light_flowchart-v2-pointEnd)"></path></g><g class="edgeLabels"><g class="edgeLabel"><g class="label" data-id="L_Asset_Vec_0" transform="translate(0, 0)"><text y="-10.1" text-anchor="middle"><tspan class="text-outer-tspan row" x="0" y="-0.1em" dy="1.1em" text-anchor="middle"></tspan></text></g></g><g><rect class="background" style="stroke: none"></rect></g><g class="edgeLabel" transform="translate(135.8828125, 180.0999984741211)"><g class="label" data-id="L_Vec_SVG_0" transform="translate(0, -10.5)"><g><rect class="background" style="" x="-13.328125" y="-1" width="26.65625" height="23"></rect><text y="-10.1" text-anchor="middle" style=""><tspan class="text-outer-tspan row" x="0" y="-0.1em" dy="1.1em" text-anchor="middle"><tspan font-style="normal" class="text-inner-tspan" font-weight="normal">Yes</tspan></tspan></text></g></g></g><g class="edgeLabel" transform="translate(396.1578140258789, 180.0999984741211)"><g class="label" data-id="L_Vec_Photo_0" transform="translate(0, -10.5)"><g><rect class="background" style="" x="-11.3984375" y="-1" width="22.796875" height="23"></rect><text y="-10.1" text-anchor="middle" style=""><tspan class="text-outer-tspan row" x="0" y="-0.1em" dy="1.1em" text-anchor="middle"><tspan font-style="normal" class="text-inner-tspan" font-weight="normal">No</tspan></tspan></text></g></g></g><g class="edgeLabel" transform="translate(163.7671890258789, 319.6999969482422)"><g class="label" data-id="L_Photo_Anim_0" transform="translate(0, -10.5)"><g><rect class="background" style="" x="-13.328125" y="-1" width="26.65625" height="23"></rect><text y="-10.1" text-anchor="middle" style=""><tspan class="text-outer-tspan row" x="0" y="-0.1em" dy="1.1em" text-anchor="middle"><tspan font-style="normal" class="text-inner-tspan" font-weight="normal">Yes</tspan></tspan></text></g></g></g><g class="edgeLabel" transform="translate(141.4039077758789, 444.2999954223633)"><g class="label" data-id="L_Anim_AnimChoice_0" transform="translate(0, -10.5)"><g><rect class="background" style="" x="-13.328125" y="-1" width="26.65625" height="23"></rect><text y="-10.1" text-anchor="middle" style=""><tspan class="text-outer-tspan row" x="0" y="-0.1em" dy="1.1em" text-anchor="middle"><tspan font-style="normal" class="text-inner-tspan" font-weight="normal">Yes</tspan></tspan></text></g></g></g><g class="edgeLabel" transform="translate(272.59605, 434.35636)"><g class="label" data-id="L_Anim_Tier_0" transform="translate(0, -10.5)"><g><rect class="background" style="" x="-11.3984375" y="-1" width="22.796875" height="23"></rect><text y="-10.1" text-anchor="middle" style=""><tspan class="text-outer-tspan row" x="0" y="-0.1em" dy="1.1em" text-anchor="middle"><tspan font-style="normal" class="text-inner-tspan" font-weight="normal">No</tspan></tspan></text></g></g></g><g class="edgeLabel" transform="translate(628.5484390258789, 319.6999969482422)"><g class="label" data-id="L_Photo_Alpha_0" transform="translate(0, -10.5)"><g><rect class="background" style="" x="-59.921875" y="-1" width="119.84375" height="23"></rect><text y="-10.1" text-anchor="middle" style=""><tspan class="text-outer-tspan row" x="0" y="-0.1em" dy="1.1em" text-anchor="middle"><tspan font-style="normal" class="text-inner-tspan" font-weight="normal">No,</tspan><tspan font-style="normal" class="text-inner-tspan" font-weight="normal"> UI</tspan><tspan font-style="normal" class="text-inner-tspan" font-weight="normal"> /</tspan><tspan font-style="normal" class="text-inner-tspan" font-weight="normal"> chrome</tspan></tspan></text></g></g></g><g class="edgeLabel" transform="translate(650.9117202758789, 444.2999954223633)"><g class="label" data-id="L_Alpha_Lossless_0" transform="translate(0, -10.5)"><g><rect class="background" style="" x="-13.328125" y="-1" width="26.65625" height="23"></rect><text y="-10.1" text-anchor="middle" style=""><tspan class="text-outer-tspan row" x="0" y="-0.1em" dy="1.1em" text-anchor="middle"><tspan font-style="normal" class="text-inner-tspan" font-weight="normal">Yes</tspan></tspan></text></g></g></g><g class="edgeLabel" transform="translate(503.4351577758789, 444.2999954223633)"><g class="label" data-id="L_Alpha_Tier_0" transform="translate(0, -10.5)"><g><rect class="background" style="" x="-11.3984375" y="-1" width="22.796875" height="23"></rect><text y="-10.1" text-anchor="middle" style=""><tspan class="text-outer-tspan row" x="0" y="-0.1em" dy="1.1em" text-anchor="middle"><tspan font-style="normal" class="text-inner-tspan" font-weight="normal">No</tspan></tspan></text></g></g></g><g class="edgeLabel"><g class="label" data-id="L_Tier_CDN_0" transform="translate(0, 0)"><text y="-10.1" text-anchor="middle"><tspan class="text-outer-tspan row" x="0" y="-0.1em" dy="1.1em" text-anchor="middle"></tspan></text></g></g><g><rect class="background" style="stroke: none"></rect></g><g class="edgeLabel" transform="translate(259.4820327758789, 720.6999969482422)"><g class="label" data-id="L_CDN_Auto_0" transform="translate(0, -10.5)"><g><rect class="background" style="" x="-13.328125" y="-1" width="26.65625" height="23"></rect><text y="-10.1" text-anchor="middle" style=""><tspan class="text-outer-tspan row" x="0" y="-0.1em" dy="1.1em" text-anchor="middle"><tspan font-style="normal" class="text-inner-tspan" font-weight="normal">Yes</tspan></tspan></text></g></g></g><g class="edgeLabel" transform="translate(541.8882827758789, 720.6999969482422)"><g class="label" data-id="L_CDN_Markup_0" transform="translate(0, -10.5)"><g><rect class="background" style="" x="-11.3984375" y="-1" width="22.796875" height="23"></rect><text y="-10.1" text-anchor="middle" style=""><tspan class="text-outer-tspan row" x="0" y="-0.1em" dy="1.1em" text-anchor="middle"><tspan font-style="normal" class="text-inner-tspan" font-weight="normal">No</tspan></tspan></text></g></g></g></g><g class="nodes"><g class="node default" id="gb62277e5-48bd-47ee-bcba-8822dd5756c4-light-flowchart-Asset-0" data-look="classic" transform="translate(266.02031326293945, 25)"><g class="basic label-container outer-path"><path d="M-39.3203125 -17 C-8.556845880528694 -17, 22.20662073894261 -17, 39.3203125 -17 C39.3203125 -17, 39.3203125 -17, 39.3203125 -17 C39.73977777930039 -16.986548564932473, 40.15924305860077 -16.973097129864943, 40.40950623967212 -16.965071676755716 C40.684105911739906 -16.93858137664576, 40.95870558380769 -16.912091076535805, 41.4942242486366 -16.860430234995185 C41.81581973994979 -16.808437169969952, 42.13741523126298 -16.75644410494472, 42.570009187923326 -16.686505668848113 C42.803393222620016 -16.63323728590175, 43.03677725731671 -16.579968902955386, 43.63244042646162 -16.4440126716635 C44.02879335862407 -16.326377201896683, 44.425146290786515 -16.208741732129866, 44.67715220640155 -16.133947699181366 C44.932005225398235 -16.040159432355104, 45.18685824439491 -15.946371165528843, 45.69985158294936 -15.757584874882369 C45.946531150816746 -15.648387147676866, 46.19321071868414 -15.539189420471363, 46.69633606499849 -15.316470754341125 C46.98178175323744 -15.167553921623554, 47.26722744147639 -15.018637088905983, 47.66251088406694 -14.812417970097622 C47.849092473394116 -14.699311114172362, 48.03567406272129 -14.586204258247102, 48.594405820579325 -14.247497783161291 C48.8591254993775 -14.062840794761886, 49.12384517817567 -13.878183806362482, 49.488191518350675 -13.624031571755262 C49.78427272337672 -13.387914689798752, 50.08035392840277 -13.151797807842243, 50.3401952202324 -12.944581292275288 C50.55124046057084 -12.752915588950987, 50.76228570090928 -12.561249885626685, 51.14691586025927 -12.21193895166137 C51.39948695261836 -11.951138562328278, 51.65205804497745 -11.690338172995189, 51.90503845028036 -11.42911513444239 C52.18713574991709 -11.097747594498006, 52.46923304955383 -10.766380054553624, 52.61144770195651 -10.59932663159847 C52.76997872316349 -10.386909505654257, 52.92850974437047 -10.174492379710045, 53.26324082814825 -9.725983222076888 C53.449254977871085 -9.440215536309493, 53.63526912759393 -9.1544478505421, 53.85773947109088 -8.812673661278927 C54.01535716070635 -8.53280749284489, 54.17297485032182 -8.252941324410854, 54.392500708341004 -7.863150934094199 C54.548741878894305 -7.538712800414766, 54.7049830494476 -7.214274666735332, 54.86532709126881 -6.881316833080699 C54.97481653240044 -6.610875796651234, 55.08430597353207 -6.340434760221769, 55.274275674845924 -5.871205925162238 C55.39237051642633 -5.515523078179818, 55.51046535800674 -5.159840231197398, 55.617666001623235 -4.836968972727556 C55.67461291061141 -4.619805727809174, 55.73155981959958 -4.402642482890792, 55.894087007091 -3.7828558772573464 C55.975709069871066 -3.36374383571079, 56.05733113265113 -2.9446317941642333, 56.10240281804565 -2.713198215567453 C56.13689071905731 -2.4457168657273147, 56.171378620068985 -2.178235515887177, 56.241757420136366 -1.632391440430593 C56.25644916028877 -1.403555728597771, 56.27114090044117 -1.1747200167649487, 56.3115781754117 -0.5448768187181379 C56.3115781754117 -0.30041227795707715, 56.3115781754117 -0.05594773719601648, 56.3115781754117 0.5448768187181336 C56.29366985363383 0.8238133857455291, 56.27576153185596 1.1027499527729245, 56.241757420136366 1.6323914404305815 C56.19008371486006 2.033162494426388, 56.138410009583744 2.4339335484221944, 56.102402818045654 2.7131982155674415 C56.026374582819116 3.103587134882522, 55.95034634759257 3.4939760541976033, 55.894087007091 3.782855877257343 C55.78813932303908 4.186880314564037, 55.68219163898717 4.590904751870731, 55.617666001623235 4.836968972727545 C55.531504503636725 5.096473676692509, 55.44534300565021 5.355978380657472, 55.274275674845924 5.871205925162227 C55.15224798486341 6.172616678663939, 55.030220294880884 6.474027432165651, 54.86532709126881 6.881316833080694 C54.757406784008204 7.1054156602319996, 54.649486476747605 7.329514487383306, 54.392500708341004 7.863150934094196 C54.196555787066224 8.211070983392394, 54.000610865791444 8.558991032690592, 53.85773947109089 8.812673661278923 C53.72598114483827 9.015089832467497, 53.594222818585656 9.217506003656073, 53.263240828148255 9.725983222076879 C53.12109647029637 9.916443711981001, 52.97895211244449 10.106904201885124, 52.61144770195651 10.599326631598467 C52.39359412283527 10.855229841854099, 52.17574054371403 11.11113305210973, 51.90503845028037 11.42911513444238 C51.61698170768078 11.726557371074854, 51.328924965081185 12.023999607707328, 51.14691586025927 12.211938951661365 C50.89848332427401 12.437558807678478, 50.650050788288745 12.66317866369559, 50.34019522023242 12.944581292275275 C50.03289943572411 13.189641502936388, 49.72560365121581 13.434701713597502, 49.488191518350675 13.62403157175526 C49.16540579037238 13.849192922423965, 48.84262006239408 14.074354273092668, 48.59440582057934 14.247497783161286 C48.30972400862618 14.420073570543314, 48.02504219667303 14.592649357925342, 47.66251088406695 14.81241797009762 C47.382631634245016 14.958430795458506, 47.10275238442308 15.104443620819394, 46.69633606499849 15.316470754341124 C46.30943165385177 15.487741860044201, 45.92252724270505 15.65901296574728, 45.699851582949364 15.757584874882367 C45.35614924702651 15.884070511651542, 45.01244691110366 16.010556148420715, 44.67715220640156 16.133947699181363 C44.38894915110155 16.219484853185698, 44.10074609580153 16.305022007190036, 43.63244042646164 16.444012671663497 C43.299256419145976 16.520059747104458, 42.96607241183031 16.59610682254542, 42.57000918792333 16.68650566884811 C42.335050379362215 16.724491986883496, 42.1000915708011 16.762478304918886, 41.49422424863661 16.86043023499518 C41.07352316691217 16.90101476238206, 40.65282208518773 16.94159928976894, 40.40950623967212 16.965071676755716 C40.092388247489936 16.975241033532274, 39.77527025530776 16.98541039030883, 39.3203125 17 C39.3203125 17, 39.3203125 17, 39.3203125 17 C10.025221960249468 17, -19.269868579501065 17, -39.3203125 17 C-39.693920063670824 16.988019132616085, -40.067527627341654 16.976038265232166, -40.40950623967211 16.965071676755716 C-40.7677843068128 16.93050902251107, -41.126062373953495 16.895946368266426, -41.494224248636606 16.86043023499518 C-41.79053836832793 16.812524466073807, -42.086852488019254 16.764618697152432, -42.570009187923326 16.68650566884811 C-42.87228078864158 16.617514148490702, -43.174552389359846 16.548522628133295, -43.63244042646162 16.4440126716635 C-43.94405686351357 16.35152654885454, -44.25567330056552 16.259040426045576, -44.677152206401544 16.13394769918137 C-45.02607719992571 16.005540076137194, -45.37500219344987 15.87713245309302, -45.699851582949364 15.757584874882369 C-46.01159147197821 15.619586873444545, -46.32333136100706 15.481588872006721, -46.69633606499848 15.316470754341127 C-47.03063902590036 15.142065113769883, -47.364941986802236 14.967659473198639, -47.66251088406693 14.812417970097624 C-47.91428871927262 14.659788766785145, -48.1660665544783 14.507159563472666, -48.59440582057932 14.247497783161299 C-48.790706645281375 14.110566825574884, -48.98700746998344 13.97363586798847, -49.48819151835067 13.624031571755264 C-49.78256167358292 13.389279206476361, -50.07693182881518 13.15452684119746, -50.3401952202324 12.94458129227529 C-50.52237921678984 12.779126606926232, -50.70456321334727 12.613671921577174, -51.14691586025926 12.211938951661377 C-51.3674142366985 11.984256274734486, -51.58791261313773 11.756573597807595, -51.905038450280365 11.429115134442386 C-52.05009264994273 11.258726217701197, -52.19514684960509 11.088337300960008, -52.61144770195651 10.599326631598473 C-52.74997192592263 10.413716791300288, -52.888496149888745 10.228106951002106, -53.26324082814825 9.72598322207689 C-53.41636738386615 9.490739712256604, -53.569493939584056 9.255496202436316, -53.85773947109088 8.812673661278936 C-54.027037968828694 8.5120670352136, -54.1963364665665 8.211460409148264, -54.392500708341004 7.863150934094201 C-54.57383562317062 7.486605103504876, -54.755170538000236 7.110059272915551, -54.86532709126881 6.881316833080701 C-54.94804684782987 6.676997435097176, -55.03076660439094 6.472678037113652, -55.274275674845924 5.87120592516224 C-55.38865639008284 5.526709434960732, -55.50303710531976 5.182212944759224, -55.617666001623235 4.8369689727275516 C-55.71346028663358 4.471663846477357, -55.809254571643926 4.106358720227162, -55.894087007091 3.782855877257349 C-55.9758855743881 3.3628375223200377, -56.05768414168521 2.9428191673827264, -56.10240281804565 2.713198215567455 C-56.14175492752511 2.4079910253976897, -56.18110703700458 2.1027838352279247, -56.241757420136366 1.6323914404306026 C-56.26161660548958 1.3230685985084611, -56.28147579084279 1.01374575658632, -56.3115781754117 0.54487681871814 C-56.3115781754117 0.28842540734542044, -56.3115781754117 0.0319739959727009, -56.3115781754117 -0.5448768187181317 C-56.29056722235464 -0.872139372317857, -56.269556269297574 -1.1994019259175825, -56.241757420136366 -1.6323914404305793 C-56.18766377644953 -2.0519310588675186, -56.1335701327627 -2.4714706773044584, -56.102402818045654 -2.713198215567447 C-56.031077159476 -3.0794403976393596, -55.959751500906336 -3.445682579711273, -55.894087007091 -3.782855877257341 C-55.82874664751456 -4.0320269870132845, -55.763406287938125 -4.281198096769228, -55.617666001623235 -4.836968972727544 C-55.506999360835266 -5.170279262446207, -55.396332720047305 -5.50358955216487, -55.27427567484593 -5.871205925162218 C-55.18877441249227 -6.082395696230204, -55.10327315013861 -6.293585467298191, -54.86532709126881 -6.881316833080692 C-54.71658895239865 -7.190174760930924, -54.567850813528494 -7.499032688781156, -54.392500708341004 -7.863150934094194 C-54.207018203292876 -8.19249390394745, -54.02153569824474 -8.521836873800705, -53.85773947109088 -8.812673661278929 C-53.70517333736953 -9.047056212418129, -53.552607203648186 -9.281438763557329, -53.26324082814825 -9.725983222076884 C-53.05816810543593 -10.000761988002008, -52.85309538272362 -10.275540753927132, -52.61144770195651 -10.599326631598467 C-52.355916364722006 -10.899488280459112, -52.1003850274875 -11.199649929319754, -51.90503845028037 -11.42911513444238 C-51.67047786811733 -11.671318193307663, -51.43591728595429 -11.913521252172943, -51.14691586025928 -12.21193895166136 C-50.90310302739146 -12.433363315537857, -50.65929019452364 -12.654787679414353, -50.34019522023242 -12.944581292275274 C-50.09832606935313 -13.137465503693091, -49.85645691847383 -13.33034971511091, -49.488191518350675 -13.624031571755259 C-49.162319169279286 -13.851346015680832, -48.83644682020789 -14.078660459606407, -48.59440582057934 -14.247497783161284 C-48.2477407060736 -14.457648212805008, -47.90107559156785 -14.66779864244873, -47.66251088406695 -14.812417970097618 C-47.43093035158389 -14.933233385559618, -47.19934981910084 -15.054048801021617, -46.69633606499849 -15.316470754341124 C-46.309591736018795 -15.48767099641753, -45.9228474070391 -15.658871238493935, -45.69985158294937 -15.757584874882365 C-45.29207310569855 -15.907651123973592, -44.884294628447726 -16.05771737306482, -44.677152206401566 -16.133947699181363 C-44.40491057143665 -16.214747587413445, -44.13266893647174 -16.29554747564553, -43.63244042646164 -16.444012671663494 C-43.216414577725025 -16.53896785681525, -42.80038872898841 -16.63392304196701, -42.57000918792333 -16.68650566884811 C-42.3478494067416 -16.722422739394737, -42.12568962555987 -16.758339809941365, -41.49422424863661 -16.86043023499518 C-41.20508641165858 -16.88832301438933, -40.91594857468054 -16.916215793783476, -40.40950623967212 -16.965071676755716 C-39.98076285966097 -16.978820642454313, -39.552019479649815 -16.992569608152905, -39.32031250000001 -17 C-39.32031250000001 -17, -39.3203125 -17, -39.3203125 -17" stroke="none" stroke-width="0" fill="#ECECFF" style=""></path><path d="M-39.3203125 -17 C-21.330929555170734 -17, -3.3415466103414673 -17, 39.3203125 -17 M-39.3203125 -17 C-19.935262810822294 -17, -0.5502131216445889 -17, 39.3203125 -17 M39.3203125 -17 C39.3203125 -17, 39.3203125 -17, 39.3203125 -17 M39.3203125 -17 C39.3203125 -17, 39.3203125 -17, 39.3203125 -17 M39.3203125 -17 C39.56303801350847 -16.992216265218335, 39.80576352701693 -16.984432530436667, 40.40950623967212 -16.965071676755716 M39.3203125 -17 C39.57144118201896 -16.99194679195998, 39.822569864037916 -16.983893583919954, 40.40950623967212 -16.965071676755716 M40.40950623967212 -16.965071676755716 C40.79520385311482 -16.927863891856145, 41.18090146655752 -16.890656106956577, 41.4942242486366 -16.860430234995185 M40.40950623967212 -16.965071676755716 C40.70523375194526 -16.936543199311096, 41.0009612642184 -16.908014721866476, 41.4942242486366 -16.860430234995185 M41.4942242486366 -16.860430234995185 C41.81845220619577 -16.808011573242382, 42.142680163754946 -16.75559291148958, 42.570009187923326 -16.686505668848113 M41.4942242486366 -16.860430234995185 C41.90279389559972 -16.794375862979123, 42.311363542562844 -16.728321490963058, 42.570009187923326 -16.686505668848113 M42.570009187923326 -16.686505668848113 C42.83940999351765 -16.62501669297576, 43.108810799111964 -16.563527717103405, 43.63244042646162 -16.4440126716635 M42.570009187923326 -16.686505668848113 C42.855064300093886 -16.621443699653632, 43.14011941226444 -16.556381730459147, 43.63244042646162 -16.4440126716635 M43.63244042646162 -16.4440126716635 C43.98479278691414 -16.339436340616476, 44.337145147366655 -16.23486000956945, 44.67715220640155 -16.133947699181366 M43.63244042646162 -16.4440126716635 C43.94300077899914 -16.35183998919492, 44.253561131536664 -16.25966730672634, 44.67715220640155 -16.133947699181366 M44.67715220640155 -16.133947699181366 C45.073794719879004 -15.987979587698462, 45.47043723335646 -15.842011476215555, 45.69985158294936 -15.757584874882369 M44.67715220640155 -16.133947699181366 C44.98809804826088 -16.01951675502528, 45.2990438901202 -15.905085810869194, 45.69985158294936 -15.757584874882369 M45.69985158294936 -15.757584874882369 C45.903981354114684 -15.667222680481995, 46.10811112528002 -15.576860486081621, 46.69633606499849 -15.316470754341125 M45.69985158294936 -15.757584874882369 C45.9257155107996 -15.657601614038434, 46.15157943864985 -15.5576183531945, 46.69633606499849 -15.316470754341125 M46.69633606499849 -15.316470754341125 C46.9775402682938 -15.16976670160185, 47.25874447158911 -15.023062648862576, 47.66251088406694 -14.812417970097622 M46.69633606499849 -15.316470754341125 C47.021346167902415 -15.146913191835052, 47.346356270806346 -14.97735562932898, 47.66251088406694 -14.812417970097622 M47.66251088406694 -14.812417970097622 C48.03345002219197 -14.58755248468589, 48.404389160317 -14.362686999274157, 48.594405820579325 -14.247497783161291 M47.66251088406694 -14.812417970097622 C47.99288653140308 -14.612142311179646, 48.32326217873922 -14.411866652261669, 48.594405820579325 -14.247497783161291 M48.594405820579325 -14.247497783161291 C48.939879885471576 -14.006510030823693, 49.28535395036382 -13.765522278486092, 49.488191518350675 -13.624031571755262 M48.594405820579325 -14.247497783161291 C48.814040932223264 -14.094289837129223, 49.03367604386721 -13.941081891097154, 49.488191518350675 -13.624031571755262 M49.488191518350675 -13.624031571755262 C49.74354599520035 -13.420393171735657, 49.998900472050025 -13.216754771716055, 50.3401952202324 -12.944581292275288 M49.488191518350675 -13.624031571755262 C49.79184530782841 -13.381875755213471, 50.09549909730614 -13.13971993867168, 50.3401952202324 -12.944581292275288 M50.3401952202324 -12.944581292275288 C50.655798656827564 -12.657958601568906, 50.971402093422725 -12.371335910862525, 51.14691586025927 -12.21193895166137 M50.3401952202324 -12.944581292275288 C50.61312846950077 -12.696710536707808, 50.88606171876914 -12.448839781140327, 51.14691586025927 -12.21193895166137 M51.14691586025927 -12.21193895166137 C51.300655364368765 -12.053190291420288, 51.45439486847825 -11.894441631179205, 51.90503845028036 -11.42911513444239 M51.14691586025927 -12.21193895166137 C51.34605232723192 -12.006314200104116, 51.54518879420456 -11.80068944854686, 51.90503845028036 -11.42911513444239 M51.90503845028036 -11.42911513444239 C52.122826581885604 -11.173288802563118, 52.34061471349085 -10.917462470683846, 52.61144770195651 -10.59932663159847 M51.90503845028036 -11.42911513444239 C52.165728806777686 -11.12289340799912, 52.42641916327502 -10.816671681555851, 52.61144770195651 -10.59932663159847 M52.61144770195651 -10.59932663159847 C52.7883215798682 -10.36233174873856, 52.965195457779906 -10.12533686587865, 53.26324082814825 -9.725983222076888 M52.61144770195651 -10.59932663159847 C52.82260938797139 -10.316389209563873, 53.03377107398627 -10.033451787529273, 53.26324082814825 -9.725983222076888 M53.26324082814825 -9.725983222076888 C53.41905007930867 -9.486618371652305, 53.57485933046908 -9.247253521227723, 53.85773947109088 -8.812673661278927 M53.26324082814825 -9.725983222076888 C53.423877328056115 -9.479202421278442, 53.584513827963974 -9.232421620479997, 53.85773947109088 -8.812673661278927 M53.85773947109088 -8.812673661278927 C54.01479521934786 -8.53380527662962, 54.17185096760484 -8.254936891980313, 54.392500708341004 -7.863150934094199 M53.85773947109088 -8.812673661278927 C53.9826572551588 -8.590869486369064, 54.10757503922672 -8.369065311459202, 54.392500708341004 -7.863150934094199 M54.392500708341004 -7.863150934094199 C54.50167919366857 -7.636439473266149, 54.61085767899613 -7.409728012438099, 54.86532709126881 -6.881316833080699 M54.392500708341004 -7.863150934094199 C54.53545149524684 -7.566310566427374, 54.678402282152675 -7.269470198760549, 54.86532709126881 -6.881316833080699 M54.86532709126881 -6.881316833080699 C54.95875343980132 -6.650551945929832, 55.05217978833383 -6.419787058778965, 55.274275674845924 -5.871205925162238 M54.86532709126881 -6.881316833080699 C54.97054932147651 -6.621415890134245, 55.07577155168422 -6.361514947187793, 55.274275674845924 -5.871205925162238 M55.274275674845924 -5.871205925162238 C55.389397740017564 -5.524476607075435, 55.5045198051892 -5.177747288988632, 55.617666001623235 -4.836968972727556 M55.274275674845924 -5.871205925162238 C55.3852304242011 -5.537027898343014, 55.49618517355628 -5.20284987152379, 55.617666001623235 -4.836968972727556 M55.617666001623235 -4.836968972727556 C55.684851596566844 -4.58076118078653, 55.75203719151045 -4.324553388845502, 55.894087007091 -3.7828558772573464 M55.617666001623235 -4.836968972727556 C55.68983426412374 -4.561760109890305, 55.762002526624244 -4.286551247053055, 55.894087007091 -3.7828558772573464 M55.894087007091 -3.7828558772573464 C55.93942732866492 -3.5500429086556364, 55.98476765023884 -3.3172299400539265, 56.10240281804565 -2.713198215567453 M55.894087007091 -3.7828558772573464 C55.9759331477183 -3.3625932433240857, 56.05777928834561 -2.942330609390825, 56.10240281804565 -2.713198215567453 M56.10240281804565 -2.713198215567453 C56.1390376186306 -2.42906593659016, 56.17567241921556 -2.144933657612867, 56.241757420136366 -1.632391440430593 M56.10240281804565 -2.713198215567453 C56.130876204388734 -2.4923642537965467, 56.15934959073183 -2.27153029202564, 56.241757420136366 -1.632391440430593 M56.241757420136366 -1.632391440430593 C56.26903261935974 -1.2075581963819615, 56.296307818583124 -0.7827249523333301, 56.3115781754117 -0.5448768187181379 M56.241757420136366 -1.632391440430593 C56.261879278675806 -1.3189772516069973, 56.28200113721524 -1.0055630627834016, 56.3115781754117 -0.5448768187181379 M56.3115781754117 -0.5448768187181379 C56.3115781754117 -0.2172348789569457, 56.3115781754117 0.11040706080424645, 56.3115781754117 0.5448768187181336 M56.3115781754117 -0.5448768187181379 C56.3115781754117 -0.2320544799750635, 56.3115781754117 0.08076785876801085, 56.3115781754117 0.5448768187181336 M56.3115781754117 0.5448768187181336 C56.29324875570117 0.8303723259508169, 56.274919335990646 1.1158678331835001, 56.241757420136366 1.6323914404305815 M56.3115781754117 0.5448768187181336 C56.291449739045085 0.8583934625094707, 56.27132130267847 1.1719101063008077, 56.241757420136366 1.6323914404305815 M56.241757420136366 1.6323914404305815 C56.2050399412397 1.917164956066859, 56.16832246234303 2.2019384717031367, 56.102402818045654 2.7131982155674415 M56.241757420136366 1.6323914404305815 C56.20938992332702 1.8834273539986783, 56.177022426517674 2.134463267566775, 56.102402818045654 2.7131982155674415 M56.102402818045654 2.7131982155674415 C56.05934240030468 2.9343043598448486, 56.0162819825637 3.1554105041222558, 55.894087007091 3.782855877257343 M56.102402818045654 2.7131982155674415 C56.05808219257245 2.940775260204827, 56.01376156709925 3.168352304842213, 55.894087007091 3.782855877257343 M55.894087007091 3.782855877257343 C55.83160540727344 4.021125297058347, 55.76912380745589 4.259394716859352, 55.617666001623235 4.836968972727545 M55.894087007091 3.782855877257343 C55.81049323502209 4.101635159926085, 55.726899462953185 4.420414442594827, 55.617666001623235 4.836968972727545 M55.617666001623235 4.836968972727545 C55.516662912545925 5.141174184371575, 55.415659823468616 5.445379396015604, 55.274275674845924 5.871205925162227 M55.617666001623235 4.836968972727545 C55.49486968528963 5.206811912588323, 55.37207336895602 5.576654852449101, 55.274275674845924 5.871205925162227 M55.274275674845924 5.871205925162227 C55.13812734482249 6.207494932568991, 55.00197901479906 6.543783939975755, 54.86532709126881 6.881316833080694 M55.274275674845924 5.871205925162227 C55.11429085370907 6.266371526466341, 54.95430603257223 6.661537127770456, 54.86532709126881 6.881316833080694 M54.86532709126881 6.881316833080694 C54.75215281659442 7.116325635983628, 54.638978541920025 7.351334438886562, 54.392500708341004 7.863150934094196 M54.86532709126881 6.881316833080694 C54.69677094291839 7.23132728165416, 54.52821479456797 7.581337730227626, 54.392500708341004 7.863150934094196 M54.392500708341004 7.863150934094196 C54.275820267879034 8.070328871310215, 54.159139827417064 8.277506808526235, 53.85773947109089 8.812673661278923 M54.392500708341004 7.863150934094196 C54.24497054394518 8.125105680028067, 54.09744037954935 8.387060425961938, 53.85773947109089 8.812673661278923 M53.85773947109089 8.812673661278923 C53.681250410902365 9.083808251676935, 53.50476135071384 9.354942842074946, 53.263240828148255 9.725983222076879 M53.85773947109089 8.812673661278923 C53.734193699972714 9.002473142401154, 53.61064792885455 9.192272623523383, 53.263240828148255 9.725983222076879 M53.263240828148255 9.725983222076879 C53.0945167620133 9.95205809961908, 52.92579269587834 10.17813297716128, 52.61144770195651 10.599326631598467 M53.263240828148255 9.725983222076879 C53.07182742992615 9.982459737575182, 52.88041403170405 10.238936253073485, 52.61144770195651 10.599326631598467 M52.61144770195651 10.599326631598467 C52.46057013042197 10.776556012299967, 52.30969255888743 10.953785393001466, 51.90503845028037 11.42911513444238 M52.61144770195651 10.599326631598467 C52.369507616322956 10.883523222964506, 52.12756753068941 11.167719814330543, 51.90503845028037 11.42911513444238 M51.90503845028037 11.42911513444238 C51.663653287355004 11.678365133253266, 51.422268124429635 11.927615132064151, 51.14691586025927 12.211938951661365 M51.90503845028037 11.42911513444238 C51.665162260365626 11.67680699473081, 51.42528607045087 11.924498855019241, 51.14691586025927 12.211938951661365 M51.14691586025927 12.211938951661365 C50.82695618416663 12.502517863819577, 50.50699650807399 12.79309677597779, 50.34019522023242 12.944581292275275 M51.14691586025927 12.211938951661365 C50.85369509745021 12.478234290248308, 50.56047433464115 12.744529628835249, 50.34019522023242 12.944581292275275 M50.34019522023242 12.944581292275275 C50.155317265548106 13.092016541327018, 49.9704393108638 13.23945179037876, 49.488191518350675 13.62403157175526 M50.34019522023242 12.944581292275275 C50.032877232504475 13.189659209413197, 49.725559244776534 13.434737126551118, 49.488191518350675 13.62403157175526 M49.488191518350675 13.62403157175526 C49.172385841322715 13.844323941042548, 48.85658016429475 14.064616310329836, 48.59440582057934 14.247497783161286 M49.488191518350675 13.62403157175526 C49.30356701165737 13.752817635358427, 49.11894250496407 13.881603698961595, 48.59440582057934 14.247497783161286 M48.59440582057934 14.247497783161286 C48.294846563144205 14.429092365424065, 47.99528730570907 14.610686947686844, 47.66251088406695 14.81241797009762 M48.59440582057934 14.247497783161286 C48.243950524184136 14.459945843339984, 47.893495227788925 14.672393903518682, 47.66251088406695 14.81241797009762 M47.66251088406695 14.81241797009762 C47.40335090941515 14.947621562873575, 47.14419093476336 15.082825155649529, 46.69633606499849 15.316470754341124 M47.66251088406695 14.81241797009762 C47.36806233551755 14.966031589272541, 47.07361378696816 15.119645208447462, 46.69633606499849 15.316470754341124 M46.69633606499849 15.316470754341124 C46.476494969199486 15.413787886096939, 46.25665387340049 15.511105017852753, 45.699851582949364 15.757584874882367 M46.69633606499849 15.316470754341124 C46.43742245741809 15.431084128017682, 46.17850884983769 15.545697501694242, 45.699851582949364 15.757584874882367 M45.699851582949364 15.757584874882367 C45.45439234225851 15.847916144456951, 45.20893310156765 15.938247414031533, 44.67715220640156 16.133947699181363 M45.699851582949364 15.757584874882367 C45.472812942420276 15.841137193319259, 45.24577430189118 15.924689511756151, 44.67715220640156 16.133947699181363 M44.67715220640156 16.133947699181363 C44.320299756914636 16.239859633032353, 43.963447307427714 16.34577156688334, 43.63244042646164 16.444012671663497 M44.67715220640156 16.133947699181363 C44.45402791486349 16.200169817706556, 44.23090362332542 16.266391936231752, 43.63244042646164 16.444012671663497 M43.63244042646164 16.444012671663497 C43.29718977628856 16.52053144485056, 42.96193912611548 16.59705021803762, 42.57000918792333 16.68650566884811 M43.63244042646164 16.444012671663497 C43.38833875660577 16.49972728489584, 43.14423708674989 16.55544189812818, 42.57000918792333 16.68650566884811 M42.57000918792333 16.68650566884811 C42.239383398869734 16.73995868238101, 41.908757609816135 16.793411695913903, 41.49422424863661 16.86043023499518 M42.57000918792333 16.68650566884811 C42.163379637586694 16.75224638108728, 41.75675008725006 16.817987093326444, 41.49422424863661 16.86043023499518 M41.49422424863661 16.86043023499518 C41.09174465989133 16.899256956868914, 40.68926507114606 16.938083678742647, 40.40950623967212 16.965071676755716 M41.49422424863661 16.86043023499518 C41.14051257537534 16.89455237471417, 40.78680090211407 16.928674514433162, 40.40950623967212 16.965071676755716 M40.40950623967212 16.965071676755716 C40.119968736835666 16.97435658092112, 39.83043123399922 16.983641485086526, 39.3203125 17 M40.40950623967212 16.965071676755716 C40.0508793503958 16.976572143069916, 39.692252461119494 16.988072609384112, 39.3203125 17 M39.3203125 17 C39.3203125 17, 39.3203125 17, 39.3203125 17 M39.3203125 17 C39.3203125 17, 39.3203125 17, 39.3203125 17 M39.3203125 17 C16.9914768531795 17, -5.337358793641002 17, -39.3203125 17 M39.3203125 17 C13.626258786258663 17, -12.067794927482673 17, -39.3203125 17 M-39.3203125 17 C-39.57521585334192 16.991825745597602, -39.83011920668385 16.983651491195204, -40.40950623967211 16.965071676755716 M-39.3203125 17 C-39.70576405939333 16.987639318726202, -40.09121561878666 16.975278637452405, -40.40950623967211 16.965071676755716 M-40.40950623967211 16.965071676755716 C-40.632955726830936 16.94351577346683, -40.85640521398976 16.921959870177943, -41.494224248636606 16.86043023499518 M-40.40950623967211 16.965071676755716 C-40.81171369128753 16.92627120762361, -41.21392114290295 16.8874707384915, -41.494224248636606 16.86043023499518 M-41.494224248636606 16.86043023499518 C-41.89244586317121 16.79604885261197, -42.29066747770582 16.73166747022876, -42.570009187923326 16.68650566884811 M-41.494224248636606 16.86043023499518 C-41.72264948373059 16.823500214449343, -41.95107471882457 16.7865701939035, -42.570009187923326 16.68650566884811 M-42.570009187923326 16.68650566884811 C-42.90718719281336 16.60954698952407, -43.24436519770339 16.53258831020003, -43.63244042646162 16.4440126716635 M-42.570009187923326 16.68650566884811 C-42.80806500499319 16.6321709820613, -43.046120822063045 16.577836295274487, -43.63244042646162 16.4440126716635 M-43.63244042646162 16.4440126716635 C-43.98069351126974 16.340652984110196, -44.32894659607786 16.237293296556892, -44.677152206401544 16.13394769918137 M-43.63244042646162 16.4440126716635 C-43.961665346347345 16.346300443578286, -44.29089026623308 16.248588215493072, -44.677152206401544 16.13394769918137 M-44.677152206401544 16.13394769918137 C-45.04687202357741 15.997887388808127, -45.41659184075326 15.861827078434887, -45.699851582949364 15.757584874882369 M-44.677152206401544 16.13394769918137 C-45.05180169659513 15.996073223568208, -45.42645118678872 15.858198747955045, -45.699851582949364 15.757584874882369 M-45.699851582949364 15.757584874882369 C-46.066212454059794 15.595407784950893, -46.432573325170225 15.433230695019416, -46.69633606499848 15.316470754341127 M-45.699851582949364 15.757584874882369 C-45.95472283423661 15.644760932424548, -46.20959408552386 15.531936989966729, -46.69633606499848 15.316470754341127 M-46.69633606499848 15.316470754341127 C-47.071585425836595 15.12070340315057, -47.446834786674714 14.924936051960012, -47.66251088406693 14.812417970097624 M-46.69633606499848 15.316470754341127 C-46.90838606798754 15.205844403606244, -47.1204360709766 15.09521805287136, -47.66251088406693 14.812417970097624 M-47.66251088406693 14.812417970097624 C-48.003201114837445 14.605889550086513, -48.34389134560796 14.399361130075402, -48.59440582057932 14.247497783161299 M-47.66251088406693 14.812417970097624 C-47.90911128245244 14.662927359411528, -48.15571168083796 14.513436748725434, -48.59440582057932 14.247497783161299 M-48.59440582057932 14.247497783161299 C-48.78268472778378 14.116162567957995, -48.970963634988244 13.984827352754692, -49.48819151835067 13.624031571755264 M-48.59440582057932 14.247497783161299 C-48.934902208890975 14.00998224252617, -49.27539859720263 13.772466701891043, -49.48819151835067 13.624031571755264 M-49.48819151835067 13.624031571755264 C-49.71713472862513 13.441455453996069, -49.946077938899606 13.258879336236873, -50.3401952202324 12.94458129227529 M-49.48819151835067 13.624031571755264 C-49.77137424049728 13.398200886652065, -50.054556962643886 13.172370201548866, -50.3401952202324 12.94458129227529 M-50.3401952202324 12.94458129227529 C-50.643853109318634 12.668807231754647, -50.94751099840487 12.393033171234004, -51.14691586025926 12.211938951661377 M-50.3401952202324 12.94458129227529 C-50.62611071886893 12.684920401323144, -50.91202621750546 12.425259510370996, -51.14691586025926 12.211938951661377 M-51.14691586025926 12.211938951661377 C-51.315392650228894 12.037972833816035, -51.483869440198525 11.864006715970692, -51.905038450280365 11.429115134442386 M-51.14691586025926 12.211938951661377 C-51.30480741628941 12.048902956922424, -51.462698972319544 11.885866962183472, -51.905038450280365 11.429115134442386 M-51.905038450280365 11.429115134442386 C-52.07847518201457 11.225386480517779, -52.25191191374878 11.021657826593174, -52.61144770195651 10.599326631598473 M-51.905038450280365 11.429115134442386 C-52.06708427639418 11.238766886420379, -52.229130102508 11.048418638398374, -52.61144770195651 10.599326631598473 M-52.61144770195651 10.599326631598473 C-52.78528158673098 10.366405062593369, -52.959115471505456 10.133483493588265, -53.26324082814825 9.72598322207689 M-52.61144770195651 10.599326631598473 C-52.83924311803458 10.294101526643175, -53.06703853411266 9.988876421687879, -53.26324082814825 9.72598322207689 M-53.26324082814825 9.72598322207689 C-53.498623409811835 9.364372367568345, -53.734005991475414 9.0027615130598, -53.85773947109088 8.812673661278936 M-53.26324082814825 9.72598322207689 C-53.45143513729733 9.436866225976015, -53.639629446446406 9.14774922987514, -53.85773947109088 8.812673661278936 M-53.85773947109088 8.812673661278936 C-53.99829542090332 8.563102339553684, -54.13885137071575 8.313531017828433, -54.392500708341004 7.863150934094201 M-53.85773947109088 8.812673661278936 C-54.0351690970289 8.497629393728122, -54.21259872296691 8.182585126177308, -54.392500708341004 7.863150934094201 M-54.392500708341004 7.863150934094201 C-54.495635261421754 7.648989827896097, -54.5987698145025 7.4348287216979925, -54.86532709126881 6.881316833080701 M-54.392500708341004 7.863150934094201 C-54.55367335075413 7.528472493581234, -54.71484599316726 7.193794053068268, -54.86532709126881 6.881316833080701 M-54.86532709126881 6.881316833080701 C-54.94797759049914 6.677168502043078, -55.03062808972948 6.473020171005455, -55.274275674845924 5.87120592516224 M-54.86532709126881 6.881316833080701 C-54.95723852809375 6.654293807136358, -55.04914996491869 6.427270781192015, -55.274275674845924 5.87120592516224 M-55.274275674845924 5.87120592516224 C-55.38916256151357 5.525184927258842, -55.50404944818122 5.179163929355442, -55.617666001623235 4.8369689727275516 M-55.274275674845924 5.87120592516224 C-55.37403627047504 5.5707429058197135, -55.47379686610416 5.270279886477187, -55.617666001623235 4.8369689727275516 M-55.617666001623235 4.8369689727275516 C-55.72652093209473 4.421857944814448, -55.83537586256622 4.006746916901346, -55.894087007091 3.782855877257349 M-55.617666001623235 4.8369689727275516 C-55.726208419862665 4.423049689398955, -55.834750838102096 4.009130406070357, -55.894087007091 3.782855877257349 M-55.894087007091 3.782855877257349 C-55.94431160350976 3.5249631896192244, -55.99453619992852 3.2670705019811, -56.10240281804565 2.713198215567455 M-55.894087007091 3.782855877257349 C-55.94381407078923 3.5275179149855824, -55.99354113448746 3.272179952713816, -56.10240281804565 2.713198215567455 M-56.10240281804565 2.713198215567455 C-56.153969677751206 2.313255834719385, -56.20553653745676 1.9133134538713148, -56.241757420136366 1.6323914404306026 M-56.10240281804565 2.713198215567455 C-56.15612129659293 2.2965683038681934, -56.2098397751402 1.8799383921689317, -56.241757420136366 1.6323914404306026 M-56.241757420136366 1.6323914404306026 C-56.26381401217802 1.2888422156212984, -56.28587060421967 0.9452929908119944, -56.3115781754117 0.54487681871814 M-56.241757420136366 1.6323914404306026 C-56.265207405900604 1.2671389836648395, -56.288657391664835 0.9018865268990763, -56.3115781754117 0.54487681871814 M-56.3115781754117 0.54487681871814 C-56.3115781754117 0.22675280195746816, -56.3115781754117 -0.09137121480320365, -56.3115781754117 -0.5448768187181317 M-56.3115781754117 0.54487681871814 C-56.3115781754117 0.23251317323149145, -56.3115781754117 -0.07985047225515707, -56.3115781754117 -0.5448768187181317 M-56.3115781754117 -0.5448768187181317 C-56.29339595243017 -0.828079618081659, -56.27521372944864 -1.1112824174451865, -56.241757420136366 -1.6323914404305793 M-56.3115781754117 -0.5448768187181317 C-56.29650423122181 -0.7796656669443058, -56.28143028703193 -1.0144545151704798, -56.241757420136366 -1.6323914404305793 M-56.241757420136366 -1.6323914404305793 C-56.18710446661503 -2.0562689554956615, -56.132451513093706 -2.480146470560744, -56.102402818045654 -2.713198215567447 M-56.241757420136366 -1.6323914404305793 C-56.18995167865538 -2.034186541156311, -56.13814593717441 -2.4359816418820426, -56.102402818045654 -2.713198215567447 M-56.102402818045654 -2.713198215567447 C-56.05250104443415 -2.969433276318939, -56.00259927082264 -3.2256683370704313, -55.894087007091 -3.782855877257341 M-56.102402818045654 -2.713198215567447 C-56.02934956960867 -3.0883112064818286, -55.956296321171685 -3.4634241973962103, -55.894087007091 -3.782855877257341 M-55.894087007091 -3.782855877257341 C-55.83262848346361 -4.0172238641412195, -55.77116995983622 -4.251591851025097, -55.617666001623235 -4.836968972727544 M-55.894087007091 -3.782855877257341 C-55.79238560955945 -4.170687383709665, -55.6906842120279 -4.55851889016199, -55.617666001623235 -4.836968972727544 M-55.617666001623235 -4.836968972727544 C-55.54115619176473 -5.0674043298386175, -55.46464638190623 -5.297839686949691, -55.27427567484593 -5.871205925162218 M-55.617666001623235 -4.836968972727544 C-55.51279003763854 -5.152838666533813, -55.40791407365384 -5.468708360340083, -55.27427567484593 -5.871205925162218 M-55.27427567484593 -5.871205925162218 C-55.14229297845893 -6.197205736949939, -55.01031028207194 -6.523205548737659, -54.86532709126881 -6.881316833080692 M-55.27427567484593 -5.871205925162218 C-55.176985763497214 -6.111513887166029, -55.07969585214849 -6.3518218491698395, -54.86532709126881 -6.881316833080692 M-54.86532709126881 -6.881316833080692 C-54.71352010497104 -7.196547288277181, -54.56171311867327 -7.511777743473669, -54.392500708341004 -7.863150934094194 M-54.86532709126881 -6.881316833080692 C-54.75932506728313 -7.10143230396693, -54.653323043297455 -7.321547774853167, -54.392500708341004 -7.863150934094194 M-54.392500708341004 -7.863150934094194 C-54.27530681282915 -8.071240562744237, -54.158112917317304 -8.27933019139428, -53.85773947109088 -8.812673661278929 M-54.392500708341004 -7.863150934094194 C-54.21022322169251 -8.186803069235594, -54.027945735044014 -8.510455204376994, -53.85773947109088 -8.812673661278929 M-53.85773947109088 -8.812673661278929 C-53.67251996010606 -9.097220568554347, -53.487300449121236 -9.381767475829763, -53.26324082814825 -9.725983222076884 M-53.85773947109088 -8.812673661278929 C-53.68521303638283 -9.077720594825008, -53.51268660167477 -9.342767528371088, -53.26324082814825 -9.725983222076884 M-53.26324082814825 -9.725983222076884 C-53.11718513115378 -9.921684550101741, -52.97112943415932 -10.117385878126598, -52.61144770195651 -10.599326631598467 M-53.26324082814825 -9.725983222076884 C-53.111312195587125 -9.929553748725631, -52.959383563025995 -10.13312427537438, -52.61144770195651 -10.599326631598467 M-52.61144770195651 -10.599326631598467 C-52.45450920989149 -10.783675514431216, -52.29757071782647 -10.968024397263964, -51.90503845028037 -11.42911513444238 M-52.61144770195651 -10.599326631598467 C-52.462363059731665 -10.774449935512227, -52.31327841750682 -10.949573239425986, -51.90503845028037 -11.42911513444238 M-51.90503845028037 -11.42911513444238 C-51.65128062682221 -11.691140921067694, -51.39752280336405 -11.953166707693008, -51.14691586025928 -12.21193895166136 M-51.90503845028037 -11.42911513444238 C-51.68160168702793 -11.659831936999954, -51.45816492377548 -11.890548739557527, -51.14691586025928 -12.21193895166136 M-51.14691586025928 -12.21193895166136 C-50.88848688324021 -12.446637310934037, -50.63005790622115 -12.681335670206714, -50.34019522023242 -12.944581292275274 M-51.14691586025928 -12.21193895166136 C-50.972113430614904 -12.370689893245535, -50.79731100097053 -12.52944083482971, -50.34019522023242 -12.944581292275274 M-50.34019522023242 -12.944581292275274 C-50.1506991141617 -13.095699394163507, -49.96120300809098 -13.246817496051742, -49.488191518350675 -13.624031571755259 M-50.34019522023242 -12.944581292275274 C-50.09130893710504 -13.143061479927207, -49.84242265397767 -13.341541667579138, -49.488191518350675 -13.624031571755259 M-49.488191518350675 -13.624031571755259 C-49.16863996430983 -13.846936902690327, -48.849088410269 -14.069842233625394, -48.59440582057934 -14.247497783161284 M-49.488191518350675 -13.624031571755259 C-49.208437063213864 -13.81917616928352, -48.92868260807706 -14.01432076681178, -48.59440582057934 -14.247497783161284 M-48.59440582057934 -14.247497783161284 C-48.37460262902871 -14.380743769586207, -48.15479943747808 -14.513989756011128, -47.66251088406695 -14.812417970097618 M-48.59440582057934 -14.247497783161284 C-48.25655932989387 -14.452302311221175, -47.91871283920839 -14.657106839281065, -47.66251088406695 -14.812417970097618 M-47.66251088406695 -14.812417970097618 C-47.447652549440946 -14.92450942564867, -47.232794214814945 -15.036600881199723, -46.69633606499849 -15.316470754341124 M-47.66251088406695 -14.812417970097618 C-47.44355860662926 -14.92664523299123, -47.22460632919158 -15.040872495884843, -46.69633606499849 -15.316470754341124 M-46.69633606499849 -15.316470754341124 C-46.46315799024527 -15.419691771052547, -46.22997991549205 -15.52291278776397, -45.69985158294937 -15.757584874882365 M-46.69633606499849 -15.316470754341124 C-46.3214275741357 -15.482431621980842, -45.9465190832729 -15.648392489620559, -45.69985158294937 -15.757584874882365 M-45.69985158294937 -15.757584874882365 C-45.35221959339611 -15.885516660512852, -45.00458760384284 -16.01344844614334, -44.677152206401566 -16.133947699181363 M-45.69985158294937 -15.757584874882365 C-45.35528280497205 -15.884389370336889, -45.01071402699472 -16.011193865791412, -44.677152206401566 -16.133947699181363 M-44.677152206401566 -16.133947699181363 C-44.39279057112326 -16.218344739887282, -44.10842893584495 -16.302741780593202, -43.63244042646164 -16.444012671663494 M-44.677152206401566 -16.133947699181363 C-44.34744309785292 -16.231803631920172, -44.01773398930427 -16.329659564658986, -43.63244042646164 -16.444012671663494 M-43.63244042646164 -16.444012671663494 C-43.377396139300984 -16.5022248658884, -43.12235185214032 -16.560437060113312, -42.57000918792333 -16.68650566884811 M-43.63244042646164 -16.444012671663494 C-43.40903506383143 -16.495003487827603, -43.18562970120123 -16.545994303991716, -42.57000918792333 -16.68650566884811 M-42.57000918792333 -16.68650566884811 C-42.244755501858954 -16.73909016243099, -41.91950181579458 -16.79167465601387, -41.49422424863661 -16.86043023499518 M-42.57000918792333 -16.68650566884811 C-42.24668400633883 -16.73877837678246, -41.92335882475433 -16.79105108471681, -41.49422424863661 -16.86043023499518 M-41.49422424863661 -16.86043023499518 C-41.08333651045844 -16.900068080932428, -40.67244877228026 -16.93970592686967, -40.40950623967212 -16.965071676755716 M-41.49422424863661 -16.86043023499518 C-41.259867840774604 -16.883038315806814, -41.02551143291259 -16.905646396618444, -40.40950623967212 -16.965071676755716 M-40.40950623967212 -16.965071676755716 C-39.99190313071642 -16.978463395644784, -39.57430002176072 -16.991855114533855, -39.32031250000001 -17 M-40.40950623967212 -16.965071676755716 C-40.09941041512097 -16.975015846284165, -39.78931459056982 -16.984960015812614, -39.32031250000001 -17 M-39.32031250000001 -17 C-39.32031250000001 -17, -39.32031250000001 -17, -39.3203125 -17 M-39.32031250000001 -17 C-39.32031250000001 -17, -39.3203125 -17, -39.3203125 -17" stroke="#9370DB" stroke-width="1.3" fill="none" stroke-dasharray="0 0" style=""></path></g><g class="label" style="" transform="translate(0, -9.5)"><rect></rect><g><rect class="background" style="stroke: none"></rect><text y="-10.1" style=""><tspan class="text-outer-tspan row" x="0" y="-0.1em" dy="1.1em"><tspan font-style="normal" class="text-inner-tspan" font-weight="normal">Source</tspan><tspan font-style="normal" class="text-inner-tspan" font-weight="normal"> asset</tspan></tspan></text></g></g></g><g class="node default" id="gb62277e5-48bd-47ee-bcba-8822dd5756c4-light-flowchart-Vec-1" data-look="classic" transform="translate(266.02031326293945, 117.79999923706055)"><polygon points="12.899999618530273,0 184.47812461853027,0 197.37812423706055,-25.799999237060547 184.47812461853027,-51.599998474121094 12.899999618530273,-51.599998474121094 0,-25.799999237060547" class="label-container" transform="translate(-98.68906211853027,25.799999237060547)"></polygon><g class="label" style="" transform="translate(0, -18.299999237060547)"><rect></rect><g><rect class="background" style="stroke: none"></rect><text y="-10.1" style=""><tspan class="text-outer-tspan row" x="0" y="-0.1em" dy="1.1em"><tspan font-style="normal" class="text-inner-tspan" font-weight="normal">Vector</tspan><tspan font-style="normal" class="text-inner-tspan" font-weight="normal"> geometry</tspan></tspan><tspan class="text-outer-tspan row" x="0" y="1em" dy="1.1em"><tspan font-style="normal" class="text-inner-tspan" font-weight="normal">(icon,</tspan><tspan font-style="normal" class="text-inner-tspan" font-weight="normal"> logo,</tspan><tspan font-style="normal" class="text-inner-tspan" font-weight="normal"> diagram)?</tspan></tspan></text></g></g></g><g class="node default" id="gb62277e5-48bd-47ee-bcba-8822dd5756c4-light-flowchart-SVG-3" data-look="classic" transform="translate(135.8828125, 249.89999771118164)"><rect class="basic label-container" style="" x="-127.8828125" y="-33.29999923706055" width="255.765625" height="66.5999984741211"></rect><g class="label" style="" transform="translate(0, -18.299999237060547)"><rect></rect><g><rect class="background" style="stroke: none"></rect><text y="-10.1" style=""><tspan class="text-outer-tspan row" x="0" y="-0.1em" dy="1.1em"><tspan font-style="normal" class="text-inner-tspan" font-weight="normal">SVG</tspan></tspan><tspan class="text-outer-tspan row" x="0" y="1em" dy="1.1em"><tspan font-style="normal" class="text-inner-tspan" font-weight="normal">(no</tspan><tspan font-style="normal" class="text-inner-tspan" font-weight="normal"> raster</tspan><tspan font-style="normal" class="text-inner-tspan" font-weight="normal"> fallback</tspan><tspan font-style="normal" class="text-inner-tspan" font-weight="normal"> needed)</tspan></tspan></text></g></g></g><g class="node default" id="gb62277e5-48bd-47ee-bcba-8822dd5756c4-light-flowchart-Photo-5" data-look="classic" transform="translate(396.1578140258789, 249.89999771118164)"><polygon points="12.899999618530273,0 151.88437461853027,0 164.78437423706055,-25.799999237060547 151.88437461853027,-51.599998474121094 12.899999618530273,-51.599998474121094 0,-25.799999237060547" class="label-container" transform="translate(-82.39218711853027,25.799999237060547)"></polygon><g class="label" style="" transform="translate(0, -18.299999237060547)"><rect></rect><g><rect class="background" style="stroke: none"></rect><text y="-10.1" style=""><tspan class="text-outer-tspan row" x="0" y="-0.1em" dy="1.1em"><tspan font-style="normal" class="text-inner-tspan" font-weight="normal">Photographic</tspan><tspan font-style="normal" class="text-inner-tspan" font-weight="normal"> /</tspan></tspan><tspan class="text-outer-tspan row" x="0" y="1em" dy="1.1em"><tspan font-style="normal" class="text-inner-tspan" font-weight="normal">complex</tspan><tspan font-style="normal" class="text-inner-tspan" font-weight="normal"> texture?</tspan></tspan></text></g></g></g><g class="node default" id="gb62277e5-48bd-47ee-bcba-8822dd5756c4-light-flowchart-Anim-7" data-look="classic" transform="translate(163.7671890258789, 381.99999618530273)"><polygon points="8.5,0 97.796875,0 106.296875,-17 97.796875,-34 8.5,-34 0,-17" class="label-container" transform="translate(-53.1484375,17)"></polygon><g class="label" style="" transform="translate(0, -9.5)"><rect></rect><g><rect class="background" style="stroke: none"></rect><text y="-10.1" style=""><tspan class="text-outer-tspan row" x="0" y="-0.1em" dy="1.1em"><tspan font-style="normal" class="text-inner-tspan" font-weight="normal">Animated?</tspan></tspan></text></g></g></g><g class="node default" id="gb62277e5-48bd-47ee-bcba-8822dd5756c4-light-flowchart-AnimChoice-9" data-look="classic" transform="translate(141.4039077758789, 531.6999969482422)"><rect class="basic label-container" style="" x="-96.9296875" y="-42.099998474121094" width="193.859375" height="84.19999694824219"></rect><g class="label" style="" transform="translate(0, -27.099998474121094)"><rect></rect><g><rect class="background" style="stroke: none"></rect><text y="-10.1" style=""><tspan class="text-outer-tspan row" x="0" y="-0.1em" dy="1.1em"><tspan font-style="normal" class="text-inner-tspan" font-weight="normal">AVIF</tspan><tspan font-style="normal" class="text-inner-tspan" font-weight="normal"> (animated)</tspan><tspan font-style="normal" class="text-inner-tspan" font-weight="normal"> or</tspan></tspan><tspan class="text-outer-tspan row" x="0" y="1em" dy="1.1em"><tspan font-style="normal" class="text-inner-tspan" font-weight="normal">MP4</tspan><tspan font-style="normal" class="text-inner-tspan" font-weight="normal"> /</tspan><tspan font-style="normal" class="text-inner-tspan" font-weight="normal"> WebM</tspan><tspan font-style="normal" class="text-inner-tspan" font-weight="normal"> video</tspan></tspan><tspan class="text-outer-tspan row" x="0" y="2.1em" dy="1.1em"><tspan font-style="normal" class="text-inner-tspan" font-weight="normal">with</tspan><tspan font-style="normal" class="text-inner-tspan" font-weight="normal"> poster</tspan></tspan></text></g></g></g><g class="node default" id="gb62277e5-48bd-47ee-bcba-8822dd5756c4-light-flowchart-Tier-11" data-look="classic" transform="translate(400.6851577758789, 531.6999969482422)"><rect class="basic label-container" style="" x="-112.3515625" y="-50.900001525878906" width="224.703125" height="101.80000305175781"></rect><g class="label" style="" transform="translate(0, -35.900001525878906)"><rect></rect><g><rect class="background" style="stroke: none"></rect><text y="-10.1" style=""><tspan class="text-outer-tspan row" x="0" y="-0.1em" dy="1.1em"><tspan font-style="normal" class="text-inner-tspan" font-weight="normal">picture</tspan><tspan font-style="normal" class="text-inner-tspan" font-weight="normal"> order:</tspan></tspan><tspan class="text-outer-tspan row" x="0" y="1em" dy="1.1em"><tspan font-style="normal" class="text-inner-tspan" font-weight="normal">1.</tspan><tspan font-style="normal" class="text-inner-tspan" font-weight="normal"> AVIF</tspan><tspan font-style="normal" class="text-inner-tspan" font-weight="normal"> (image/avif)</tspan></tspan><tspan class="text-outer-tspan row" x="0" y="2.1em" dy="1.1em"><tspan font-style="normal" class="text-inner-tspan" font-weight="normal">2.</tspan><tspan font-style="normal" class="text-inner-tspan" font-weight="normal"> WebP</tspan><tspan font-style="normal" class="text-inner-tspan" font-weight="normal"> (image/webp)</tspan></tspan><tspan class="text-outer-tspan row" x="0" y="3.2em" dy="1.1em"><tspan font-style="normal" class="text-inner-tspan" font-weight="normal">3.</tspan><tspan font-style="normal" class="text-inner-tspan" font-weight="normal"> JPEG</tspan><tspan font-style="normal" class="text-inner-tspan" font-weight="normal"> fallback</tspan></tspan></text></g></g></g><g class="node default" id="gb62277e5-48bd-47ee-bcba-8822dd5756c4-light-flowchart-Alpha-13" data-look="classic" transform="translate(628.5484390258789, 381.99999618530273)"><polygon points="12.899999618530273,0 173.05624961853027,0 185.95624923706055,-25.799999237060547 173.05624961853027,-51.599998474121094 12.899999618530273,-51.599998474121094 0,-25.799999237060547" class="label-container" transform="translate(-92.97812461853027,25.799999237060547)"></polygon><g class="label" style="" transform="translate(0, -18.299999237060547)"><rect></rect><g><rect class="background" style="stroke: none"></rect><text y="-10.1" style=""><tspan class="text-outer-tspan row" x="0" y="-0.1em" dy="1.1em"><tspan font-style="normal" class="text-inner-tspan" font-weight="normal">Needs</tspan><tspan font-style="normal" class="text-inner-tspan" font-weight="normal"> alpha</tspan><tspan font-style="normal" class="text-inner-tspan" font-weight="normal"> or</tspan></tspan><tspan class="text-outer-tspan row" x="0" y="1em" dy="1.1em"><tspan font-style="normal" class="text-inner-tspan" font-weight="normal">pixel-perfect</tspan><tspan font-style="normal" class="text-inner-tspan" font-weight="normal"> edges?</tspan></tspan></text></g></g></g><g class="node default" id="gb62277e5-48bd-47ee-bcba-8822dd5756c4-light-flowchart-Lossless-15" data-look="classic" transform="translate(650.9117202758789, 531.6999969482422)"><rect class="basic label-container" style="" x="-87.875" y="-50.900001525878906" width="175.75" height="101.80000305175781"></rect><g class="label" style="" transform="translate(0, -35.900001525878906)"><rect></rect><g><rect class="background" style="stroke: none"></rect><text y="-10.1" style=""><tspan class="text-outer-tspan row" x="0" y="-0.1em" dy="1.1em"><tspan font-style="normal" class="text-inner-tspan" font-weight="normal">picture</tspan><tspan font-style="normal" class="text-inner-tspan" font-weight="normal"> order:</tspan></tspan><tspan class="text-outer-tspan row" x="0" y="1em" dy="1.1em"><tspan font-style="normal" class="text-inner-tspan" font-weight="normal">1.</tspan><tspan font-style="normal" class="text-inner-tspan" font-weight="normal"> AVIF</tspan><tspan font-style="normal" class="text-inner-tspan" font-weight="normal"> lossless</tspan></tspan><tspan class="text-outer-tspan row" x="0" y="2.1em" dy="1.1em"><tspan font-style="normal" class="text-inner-tspan" font-weight="normal">2.</tspan><tspan font-style="normal" class="text-inner-tspan" font-weight="normal"> WebP</tspan><tspan font-style="normal" class="text-inner-tspan" font-weight="normal"> lossless</tspan></tspan><tspan class="text-outer-tspan row" x="0" y="3.2em" dy="1.1em"><tspan font-style="normal" class="text-inner-tspan" font-weight="normal">3.</tspan><tspan font-style="normal" class="text-inner-tspan" font-weight="normal"> PNG</tspan><tspan font-style="normal" class="text-inner-tspan" font-weight="normal"> fallback</tspan></tspan></text></g></g></g><g class="node default" id="gb62277e5-48bd-47ee-bcba-8822dd5756c4-light-flowchart-CDN-19" data-look="classic" transform="translate(400.6851577758789, 658.3999977111816)"><polygon points="12.899999618530273,0 169.49374961853027,0 182.39374923706055,-25.799999237060547 169.49374961853027,-51.599998474121094 12.899999618530273,-51.599998474121094 0,-25.799999237060547" class="label-container" transform="translate(-91.19687461853027,25.799999237060547)"></polygon><g class="label" style="" transform="translate(0, -18.299999237060547)"><rect></rect><g><rect class="background" style="stroke: none"></rect><text y="-10.1" style=""><tspan class="text-outer-tspan row" x="0" y="-0.1em" dy="1.1em"><tspan font-style="normal" class="text-inner-tspan" font-weight="normal">Image</tspan><tspan font-style="normal" class="text-inner-tspan" font-weight="normal"> CDN</tspan><tspan font-style="normal" class="text-inner-tspan" font-weight="normal"> with</tspan></tspan><tspan class="text-outer-tspan row" x="0" y="1em" dy="1.1em"><tspan font-style="normal" class="text-inner-tspan" font-weight="normal">Accept</tspan><tspan font-style="normal" class="text-inner-tspan" font-weight="normal"> negotiation?</tspan></tspan></text></g></g></g><g class="node default" id="gb62277e5-48bd-47ee-bcba-8822dd5756c4-light-flowchart-Auto-21" data-look="classic" transform="translate(259.4820327758789, 799.2999954223633)"><rect class="basic label-container" style="" x="-119.7890625" y="-33.29999923706055" width="239.578125" height="66.5999984741211"></rect><g class="label" style="" transform="translate(0, -18.299999237060547)"><rect></rect><g><rect class="background" style="stroke: none"></rect><text y="-10.1" style=""><tspan class="text-outer-tspan row" x="0" y="-0.1em" dy="1.1em"><tspan font-style="normal" class="text-inner-tspan" font-weight="normal">Single</tspan><tspan font-style="normal" class="text-inner-tspan" font-weight="normal"> URL</tspan><tspan font-style="normal" class="text-inner-tspan" font-weight="normal"> with</tspan><tspan font-style="normal" class="text-inner-tspan" font-weight="normal"> f=auto</tspan></tspan><tspan class="text-outer-tspan row" x="0" y="1em" dy="1.1em"><tspan font-style="normal" class="text-inner-tspan" font-weight="normal">Vary:</tspan><tspan font-style="normal" class="text-inner-tspan" font-weight="normal"> Accept</tspan><tspan font-style="normal" class="text-inner-tspan" font-weight="normal"> on</tspan><tspan font-style="normal" class="text-inner-tspan" font-weight="normal"> response</tspan></tspan></text></g></g></g><g class="node default" id="gb62277e5-48bd-47ee-bcba-8822dd5756c4-light-flowchart-Markup-23" data-look="classic" transform="translate(541.8882827758789, 799.2999954223633)"><rect class="basic label-container" style="" x="-112.6171875" y="-42.099998474121094" width="225.234375" height="84.19999694824219"></rect><g class="label" style="" transform="translate(0, -27.099998474121094)"><rect></rect><g><rect class="background" style="stroke: none"></rect><text y="-10.1" style=""><tspan class="text-outer-tspan row" x="0" y="-0.1em" dy="1.1em"><tspan font-style="normal" class="text-inner-tspan" font-weight="normal">picture</tspan><tspan font-style="normal" class="text-inner-tspan" font-weight="normal"> per</tspan><tspan font-style="normal" class="text-inner-tspan" font-weight="normal"> image</tspan></tspan><tspan class="text-outer-tspan row" x="0" y="1em" dy="1.1em"><tspan font-style="normal" class="text-inner-tspan" font-weight="normal">with</tspan><tspan font-style="normal" class="text-inner-tspan" font-weight="normal"> explicit</tspan></tspan><tspan class="text-outer-tspan row" x="0" y="2.1em" dy="1.1em"><tspan font-style="normal" class="text-inner-tspan" font-weight="normal">type=image/avif|webp</tspan></tspan></text></g></g></g></g></g></g><defs><filter id="gb62277e5-48bd-47ee-bcba-8822dd5756c4-light-drop-shadow" height="130%" width="130%"><feDropShadow dx="4" dy="4" stdDeviation="0" flood-opacity="0.06" flood-color="#000000"></feDropShadow></filter></defs><defs><filter id="gb62277e5-48bd-47ee-bcba-8822dd5756c4-light-drop-shadow-small" height="150%" width="150%"><feDropShadow dx="2" dy="2" stdDeviation="0" flood-opacity="0.06" flood-color="#000000"></feDropShadow></filter></defs></svg>