<svg id="g40df4b71-9888-458d-8c9a-098de0068664-dark" width="100%" xmlns="http://www.w3.org/2000/svg" xmlns:xlink="http://www.w3.org/1999/xlink" class="flowchart" style="max-width: 988.0797119140625px;" viewBox="0.5 0 988.0797119140625 1320.1468505859375" role="graphics-document document" aria-roledescription="flowchart-v2"><style>#g40df4b71-9888-458d-8c9a-098de0068664-dark{font-family:"trebuchet ms",verdana,arial,sans-serif;font-size:16px;fill:#e5e5e5;}@keyframes edge-animation-frame{from{stroke-dashoffset:0;}}@keyframes dash{to{stroke-dashoffset:0;}}#g40df4b71-9888-458d-8c9a-098de0068664-dark .edge-animation-slow{stroke-dasharray:9,5!important;stroke-dashoffset:900;animation:dash 50s linear infinite;stroke-linecap:round;}#g40df4b71-9888-458d-8c9a-098de0068664-dark .edge-animation-fast{stroke-dasharray:9,5!important;stroke-dashoffset:900;animation:dash 20s linear infinite;stroke-linecap:round;}#g40df4b71-9888-458d-8c9a-098de0068664-dark .error-icon{fill:#252525;}#g40df4b71-9888-458d-8c9a-098de0068664-dark .error-text{fill:#cccccc;stroke:#cccccc;}#g40df4b71-9888-458d-8c9a-098de0068664-dark .edge-thickness-normal{stroke-width:1px;}#g40df4b71-9888-458d-8c9a-098de0068664-dark .edge-thickness-thick{stroke-width:3.5px;}#g40df4b71-9888-458d-8c9a-098de0068664-dark .edge-pattern-solid{stroke-dasharray:0;}#g40df4b71-9888-458d-8c9a-098de0068664-dark .edge-thickness-invisible{stroke-width:0;fill:none;}#g40df4b71-9888-458d-8c9a-098de0068664-dark .edge-pattern-dashed{stroke-dasharray:3;}#g40df4b71-9888-458d-8c9a-098de0068664-dark .edge-pattern-dotted{stroke-dasharray:2;}#g40df4b71-9888-458d-8c9a-098de0068664-dark .marker{fill:#cccccc;stroke:#cccccc;}#g40df4b71-9888-458d-8c9a-098de0068664-dark .marker.cross{stroke:#cccccc;}#g40df4b71-9888-458d-8c9a-098de0068664-dark svg{font-family:"trebuchet ms",verdana,arial,sans-serif;font-size:16px;}#g40df4b71-9888-458d-8c9a-098de0068664-dark p{margin:0;}#g40df4b71-9888-458d-8c9a-098de0068664-dark .label{font-family:"trebuchet ms",verdana,arial,sans-serif;color:#e5e5e5;}#g40df4b71-9888-458d-8c9a-098de0068664-dark .cluster-label text{fill:#e5e5e5;}#g40df4b71-9888-458d-8c9a-098de0068664-dark .cluster-label span{color:#e5e5e5;}#g40df4b71-9888-458d-8c9a-098de0068664-dark .cluster-label span p{background-color:transparent;}#g40df4b71-9888-458d-8c9a-098de0068664-dark .label text,#g40df4b71-9888-458d-8c9a-098de0068664-dark span{fill:#e5e5e5;color:#e5e5e5;}#g40df4b71-9888-458d-8c9a-098de0068664-dark .node rect,#g40df4b71-9888-458d-8c9a-098de0068664-dark .node circle,#g40df4b71-9888-458d-8c9a-098de0068664-dark .node ellipse,#g40df4b71-9888-458d-8c9a-098de0068664-dark .node polygon,#g40df4b71-9888-458d-8c9a-098de0068664-dark .node path{fill:#2d2d2d;stroke:#555555;stroke-width:1px;}#g40df4b71-9888-458d-8c9a-098de0068664-dark .rough-node .label text,#g40df4b71-9888-458d-8c9a-098de0068664-dark .node .label text,#g40df4b71-9888-458d-8c9a-098de0068664-dark .image-shape .label,#g40df4b71-9888-458d-8c9a-098de0068664-dark .icon-shape .label{text-anchor:middle;}#g40df4b71-9888-458d-8c9a-098de0068664-dark .node .katex path{fill:#000;stroke:#000;stroke-width:1px;}#g40df4b71-9888-458d-8c9a-098de0068664-dark .rough-node .label,#g40df4b71-9888-458d-8c9a-098de0068664-dark .node .label,#g40df4b71-9888-458d-8c9a-098de0068664-dark .image-shape .label,#g40df4b71-9888-458d-8c9a-098de0068664-dark .icon-shape .label{text-align:center;}#g40df4b71-9888-458d-8c9a-098de0068664-dark .node.clickable{cursor:pointer;}#g40df4b71-9888-458d-8c9a-098de0068664-dark .root .anchor path{fill:#cccccc!important;stroke-width:0;stroke:#cccccc;}#g40df4b71-9888-458d-8c9a-098de0068664-dark .arrowheadPath{fill:#cccccc;}#g40df4b71-9888-458d-8c9a-098de0068664-dark .edgePath .path{stroke:#cccccc;stroke-width:1px;}#g40df4b71-9888-458d-8c9a-098de0068664-dark .flowchart-link{stroke:#cccccc;fill:none;}#g40df4b71-9888-458d-8c9a-098de0068664-dark .edgeLabel{background-color:#1e1e1e;text-align:center;}#g40df4b71-9888-458d-8c9a-098de0068664-dark .edgeLabel p{background-color:#1e1e1e;}#g40df4b71-9888-458d-8c9a-098de0068664-dark .edgeLabel rect{opacity:0.5;background-color:#1e1e1e;fill:#1e1e1e;}#g40df4b71-9888-458d-8c9a-098de0068664-dark .labelBkg{background-color:rgba(30, 30, 30, 0.5);}#g40df4b71-9888-458d-8c9a-098de0068664-dark .cluster rect{fill:#1e1e1e;stroke:#555555;stroke-width:1px;}#g40df4b71-9888-458d-8c9a-098de0068664-dark .cluster text{fill:#e5e5e5;}#g40df4b71-9888-458d-8c9a-098de0068664-dark .cluster span{color:#e5e5e5;}#g40df4b71-9888-458d-8c9a-098de0068664-dark div.mermaidTooltip{position:absolute;text-align:center;max-width:200px;padding:2px;font-family:"trebuchet ms",verdana,arial,sans-serif;font-size:12px;background:#252525;border:1px solid #555555;border-radius:2px;pointer-events:none;z-index:100;}#g40df4b71-9888-458d-8c9a-098de0068664-dark .flowchartTitleText{text-anchor:middle;font-size:18px;fill:#e5e5e5;}#g40df4b71-9888-458d-8c9a-098de0068664-dark rect.text{fill:none;stroke-width:0;}#g40df4b71-9888-458d-8c9a-098de0068664-dark .icon-shape,#g40df4b71-9888-458d-8c9a-098de0068664-dark .image-shape{background-color:#1e1e1e;text-align:center;}#g40df4b71-9888-458d-8c9a-098de0068664-dark .icon-shape p,#g40df4b71-9888-458d-8c9a-098de0068664-dark .image-shape p{background-color:#1e1e1e;padding:2px;}#g40df4b71-9888-458d-8c9a-098de0068664-dark .icon-shape .label rect,#g40df4b71-9888-458d-8c9a-098de0068664-dark .image-shape .label rect{opacity:0.5;background-color:#1e1e1e;fill:#1e1e1e;}#g40df4b71-9888-458d-8c9a-098de0068664-dark .label-icon{display:inline-block;height:1em;overflow:visible;vertical-align:-0.125em;}#g40df4b71-9888-458d-8c9a-098de0068664-dark .node .label-icon path{fill:currentColor;stroke:revert;stroke-width:revert;}#g40df4b71-9888-458d-8c9a-098de0068664-dark .node .neo-node{stroke:#555555;}#g40df4b71-9888-458d-8c9a-098de0068664-dark [data-look="neo"].node rect,#g40df4b71-9888-458d-8c9a-098de0068664-dark [data-look="neo"].cluster rect,#g40df4b71-9888-458d-8c9a-098de0068664-dark [data-look="neo"].node polygon{stroke:url(#g40df4b71-9888-458d-8c9a-098de0068664-dark-gradient);filter:drop-shadow( 1px 2px 2px rgba(185,185,185,1));}#g40df4b71-9888-458d-8c9a-098de0068664-dark [data-look="neo"].node path{stroke:url(#g40df4b71-9888-458d-8c9a-098de0068664-dark-gradient);stroke-width:1px;}#g40df4b71-9888-458d-8c9a-098de0068664-dark [data-look="neo"].node .outer-path{filter:drop-shadow( 1px 2px 2px rgba(185,185,185,1));}#g40df4b71-9888-458d-8c9a-098de0068664-dark [data-look="neo"].node .neo-line path{stroke:#555555;filter:none;}#g40df4b71-9888-458d-8c9a-098de0068664-dark [data-look="neo"].node circle{stroke:url(#g40df4b71-9888-458d-8c9a-098de0068664-dark-gradient);filter:drop-shadow( 1px 2px 2px rgba(185,185,185,1));}#g40df4b71-9888-458d-8c9a-098de0068664-dark [data-look="neo"].node circle .state-start{fill:#000000;}#g40df4b71-9888-458d-8c9a-098de0068664-dark [data-look="neo"].icon-shape .icon{fill:url(#g40df4b71-9888-458d-8c9a-098de0068664-dark-gradient);filter:drop-shadow( 1px 2px 2px rgba(185,185,185,1));}#g40df4b71-9888-458d-8c9a-098de0068664-dark [data-look="neo"].icon-shape .icon-neo path{stroke:url(#g40df4b71-9888-458d-8c9a-098de0068664-dark-gradient);filter:drop-shadow( 1px 2px 2px rgba(185,185,185,1));}#g40df4b71-9888-458d-8c9a-098de0068664-dark :root{--mermaid-font-family:"trebuchet ms",verdana,arial,sans-serif;}</style><g><marker id="g40df4b71-9888-458d-8c9a-098de0068664-dark_flowchart-v2-pointEnd" class="marker flowchart-v2" viewBox="0 0 10 10" refX="5" refY="5" markerUnits="userSpaceOnUse" markerWidth="8" markerHeight="8" orient="auto"><path d="M 0 0 L 10 5 L 0 10 z" class="arrowMarkerPath" style="stroke-width: 1; stroke-dasharray: 1, 0;"></path></marker><marker id="g40df4b71-9888-458d-8c9a-098de0068664-dark_flowchart-v2-pointStart" class="marker flowchart-v2" viewBox="0 0 10 10" refX="4.5" refY="5" markerUnits="userSpaceOnUse" markerWidth="8" markerHeight="8" orient="auto"><path d="M 0 5 L 10 10 L 10 0 z" class="arrowMarkerPath" style="stroke-width: 1; stroke-dasharray: 1, 0;"></path></marker><marker id="g40df4b71-9888-458d-8c9a-098de0068664-dark_flowchart-v2-pointEnd-margin" class="marker flowchart-v2" viewBox="0 0 11.5 14" refX="11.5" refY="7" markerUnits="userSpaceOnUse" markerWidth="10.5" markerHeight="14" orient="auto"><path d="M 0 0 L 11.5 7 L 0 14 z" class="arrowMarkerPath" style="stroke-width: 0; stroke-dasharray: 1, 0;"></path></marker><marker id="g40df4b71-9888-458d-8c9a-098de0068664-dark_flowchart-v2-pointStart-margin" class="marker flowchart-v2" viewBox="0 0 11.5 14" refX="1" refY="7" markerUnits="userSpaceOnUse" markerWidth="11.5" markerHeight="14" orient="auto"><polygon points="0,7 11.5,14 11.5,0" class="arrowMarkerPath" style="stroke-width: 0; stroke-dasharray: 1, 0;"></polygon></marker><marker id="g40df4b71-9888-458d-8c9a-098de0068664-dark_flowchart-v2-circleEnd" class="marker flowchart-v2" viewBox="0 0 10 10" refX="11" refY="5" markerUnits="userSpaceOnUse" markerWidth="11" markerHeight="11" orient="auto"><circle cx="5" cy="5" r="5" class="arrowMarkerPath" style="stroke-width: 1; stroke-dasharray: 1, 0;"></circle></marker><marker id="g40df4b71-9888-458d-8c9a-098de0068664-dark_flowchart-v2-circleStart" class="marker flowchart-v2" viewBox="0 0 10 10" refX="-1" refY="5" markerUnits="userSpaceOnUse" markerWidth="11" markerHeight="11" orient="auto"><circle cx="5" cy="5" r="5" class="arrowMarkerPath" style="stroke-width: 1; stroke-dasharray: 1, 0;"></circle></marker><marker id="g40df4b71-9888-458d-8c9a-098de0068664-dark_flowchart-v2-circleEnd-margin" class="marker flowchart-v2" viewBox="0 0 10 10" refY="5" refX="12.25" markerUnits="userSpaceOnUse" markerWidth="14" markerHeight="14" orient="auto"><circle cx="5" cy="5" r="5" class="arrowMarkerPath" style="stroke-width: 0; stroke-dasharray: 1, 0;"></circle></marker><marker id="g40df4b71-9888-458d-8c9a-098de0068664-dark_flowchart-v2-circleStart-margin" class="marker flowchart-v2" viewBox="0 0 10 10" refX="-2" refY="5" markerUnits="userSpaceOnUse" markerWidth="14" markerHeight="14" orient="auto"><circle cx="5" cy="5" r="5" class="arrowMarkerPath" style="stroke-width: 0; stroke-dasharray: 1, 0;"></circle></marker><marker id="g40df4b71-9888-458d-8c9a-098de0068664-dark_flowchart-v2-crossEnd" class="marker cross flowchart-v2" viewBox="0 0 11 11" refX="12" refY="5.2" markerUnits="userSpaceOnUse" markerWidth="11" markerHeight="11" orient="auto"><path d="M 1,1 l 9,9 M 10,1 l -9,9" class="arrowMarkerPath" style="stroke-width: 2; stroke-dasharray: 1, 0;"></path></marker><marker id="g40df4b71-9888-458d-8c9a-098de0068664-dark_flowchart-v2-crossStart" class="marker cross flowchart-v2" viewBox="0 0 11 11" refX="-1" refY="5.2" markerUnits="userSpaceOnUse" markerWidth="11" markerHeight="11" orient="auto"><path d="M 1,1 l 9,9 M 10,1 l -9,9" class="arrowMarkerPath" style="stroke-width: 2; stroke-dasharray: 1, 0;"></path></marker><marker id="g40df4b71-9888-458d-8c9a-098de0068664-dark_flowchart-v2-crossEnd-margin" class="marker cross flowchart-v2" viewBox="0 0 15 15" refX="17.7" refY="7.5" markerUnits="userSpaceOnUse" markerWidth="12" markerHeight="12" orient="auto"><path d="M 1,1 L 14,14 M 1,14 L 14,1" class="arrowMarkerPath" style="stroke-width: 2.5;"></path></marker><marker id="g40df4b71-9888-458d-8c9a-098de0068664-dark_flowchart-v2-crossStart-margin" class="marker cross flowchart-v2" viewBox="0 0 15 15" refX="-3.5" refY="7.5" markerUnits="userSpaceOnUse" markerWidth="12" markerHeight="12" orient="auto"><path d="M 1,1 L 14,14 M 1,14 L 14,1" class="arrowMarkerPath" style="stroke-width: 2.5; stroke-dasharray: 1, 0;"></path></marker><g class="root"><g class="clusters"></g><g class="edgePaths"><path d="M396.565,42.5L396.482,46.583C396.398,50.667,396.232,58.833,396.148,66.417C396.065,74,396.065,81,396.065,84.5L396.065,88" id="g40df4b71-9888-458d-8c9a-098de0068664-dark-L_Start_Q1_0" class="edge-thickness-normal edge-pattern-solid edge-thickness-normal edge-pattern-solid flowchart-link" style=";" data-edge="true" data-et="edge" data-id="L_Start_Q1_0" data-points="W3sieCI6Mzk2LjU2NDg0OTg1MzUxNTYsInkiOjQyLjV9LHsieCI6Mzk2LjA2NDg0OTg1MzUxNTYsInkiOjY3fSx7IngiOjM5Ni4wNjQ4NDk4NTM1MTU3LCJ5Ijo5MS45OTk5OTk5OTk5OTk5M31d" data-look="classic" marker-end="url(#g40df4b71-9888-458d-8c9a-098de0068664-dark_flowchart-v2-pointEnd)"></path><path d="M343.481,227.126L324.565,241.973C305.648,256.82,267.815,286.515,248.898,306.779C229.981,327.043,229.981,337.876,229.981,343.293L229.981,348.709" id="g40df4b71-9888-458d-8c9a-098de0068664-dark-L_Q1_Q2_0" class="edge-thickness-normal edge-pattern-solid edge-thickness-normal edge-pattern-solid flowchart-link" style=";" data-edge="true" data-et="edge" data-id="L_Q1_Q2_0" data-points="W3sieCI6MzQzLjQ4MTQ4MTUxMTMyMjMzLCJ5IjoyMjcuMTI1OTk3NTAyNTMzM30seyJ4IjoyMjkuOTgxMjU0NTc3NjM2NzIsInkiOjMxNi4yMDkzNjU4NDQ3MjY1Nn0seyJ4IjoyMjkuOTgxMjU0NTc3NjM2NzIsInkiOjM1Mi43MDkzNjU4NDQ3MjY1Nn1d" data-look="classic" marker-end="url(#g40df4b71-9888-458d-8c9a-098de0068664-dark_flowchart-v2-pointEnd)"></path><path d="M455.978,219.797L484.342,235.865C512.706,251.934,569.434,284.072,597.798,324.089C626.162,364.106,626.162,412.003,626.162,459.9C626.162,507.797,626.162,555.694,626.162,587.397C626.162,619.101,626.162,634.611,626.162,642.367L626.162,650.122" id="g40df4b71-9888-458d-8c9a-098de0068664-dark-L_Q1_Q3_0" class="edge-thickness-normal edge-pattern-solid edge-thickness-normal edge-pattern-solid flowchart-link" style=";" data-edge="true" data-et="edge" data-id="L_Q1_Q3_0" data-points="W3sieCI6NDU1Ljk3NzY2OTk2MzQxMDgsInkiOjIxOS43OTY1NDU3MzQ4MzE0M30seyJ4Ijo2MjYuMTYxNzI3OTA1MjczNCwieSI6MzE2LjIwOTM2NTg0NDcyNjU2fSx7IngiOjYyNi4xNjE3Mjc5MDUyNzM0LCJ5Ijo0NTkuODk5OTg2MjY3MDg5ODR9LHsieCI6NjI2LjE2MTcyNzkwNTI3MzQsInkiOjYwMy41OTA2MDY2ODk0NTMxfSx7IngiOjYyNi4xNjE3Mjc5MDUyNzM0LCJ5Ijo2NTQuMTIxODU2Njg5NDUzMX1d" data-look="classic" marker-end="url(#g40df4b71-9888-458d-8c9a-098de0068664-dark_flowchart-v2-pointEnd)"></path><path d="M278.44,518.632L290.123,532.792C301.806,546.952,325.172,575.271,336.855,605.068C348.538,634.866,348.538,666.141,348.538,681.778L348.538,697.416" id="g40df4b71-9888-458d-8c9a-098de0068664-dark-L_Q2_GQL_0" class="edge-thickness-normal edge-pattern-solid edge-thickness-normal edge-pattern-solid flowchart-link" style=";" data-edge="true" data-et="edge" data-id="L_Q2_GQL_0" data-points="W3sieCI6Mjc4LjQzOTg2MTc3MzIxNCwieSI6NTE4LjYzMTk5OTQ5Mzg3NTl9LHsieCI6MzQ4LjUzNzUwNjEwMzUxNTYsInkiOjYwMy41OTA2MDY2ODk0NTMxfSx7IngiOjM0OC41Mzc1MDYxMDM1MTU2LCJ5Ijo3MDEuNDE1NjExMjY3MDg5OH1d" data-look="classic" marker-end="url(#g40df4b71-9888-458d-8c9a-098de0068664-dark_flowchart-v2-pointEnd)"></path><path d="M181.523,518.632L169.84,532.792C158.157,546.952,134.791,575.271,123.108,594.848C111.425,614.424,111.425,625.257,111.425,630.674L111.425,636.091" id="g40df4b71-9888-458d-8c9a-098de0068664-dark-L_Q2_Q4_0" class="edge-thickness-normal edge-pattern-solid edge-thickness-normal edge-pattern-solid flowchart-link" style=";" data-edge="true" data-et="edge" data-id="L_Q2_Q4_0" data-points="W3sieCI6MTgxLjUyMjY0NzM4MjA1OTUsInkiOjUxOC42MzE5OTk0OTM4NzU5fSx7IngiOjExMS40MjUwMDMwNTE3NTc4MSwieSI6NjAzLjU5MDYwNjY4OTQ1MzF9LHsieCI6MTExLjQyNTAwMzA1MTc1NzgzLCJ5Ijo2NDAuMDkwNjA2Njg5NDUzMX1d" data-look="classic" marker-end="url(#g40df4b71-9888-458d-8c9a-098de0068664-dark_flowchart-v2-pointEnd)"></path><path d="M108.624,844.14L108.442,850.69C108.26,857.24,107.895,870.34,107.713,902.558C107.53,934.775,107.53,986.109,107.53,1037.444C107.53,1088.778,107.53,1140.112,115.744,1171.483C123.958,1202.853,140.386,1214.259,148.6,1219.962L156.814,1225.666" id="g40df4b71-9888-458d-8c9a-098de0068664-dark-L_Q4_REST_0" class="edge-thickness-normal edge-pattern-solid edge-thickness-normal edge-pattern-solid flowchart-link" style=";" data-edge="true" data-et="edge" data-id="L_Q4_REST_0" data-points="W3sieCI6MTA4LjYyNDMyNzEzMjY0ODcsInkiOjg0NC4xMzk5MzY4NzM4NTk4fSx7IngiOjEwNy41MzA0NzE4MDE3NTc4MSwieSI6ODgzLjQ0MDYxMjc5Mjk2ODh9LHsieCI6MTA3LjUzMDQ3MTgwMTc1NzgxLCJ5IjoxMDM3LjQ0Mzc0MDg0NDcyNjZ9LHsieCI6MTA3LjUzMDQ3MTgwMTc1NzgxLCJ5IjoxMTkxLjQ0Njg2ODg5NjQ4NDR9LHsieCI6MTYwLjA5OTM1NDAyNDU3OTA0LCJ5IjoxMjI3Ljk0Njg2ODg5NjQ4NDR9XQ==" data-look="classic" marker-end="url(#g40df4b71-9888-458d-8c9a-098de0068664-dark_flowchart-v2-pointEnd)"></path><path d="M171.493,786.872L193.792,802.967C216.09,819.062,260.687,851.251,282.986,872.763C305.284,894.274,305.284,905.107,305.284,910.524L305.284,915.941" id="g40df4b71-9888-458d-8c9a-098de0068664-dark-L_Q4_Q5_0" class="edge-thickness-normal edge-pattern-solid edge-thickness-normal edge-pattern-solid flowchart-link" style=";" data-edge="true" data-et="edge" data-id="L_Q4_Q5_0" data-points="W3sieCI6MTcxLjQ5MzQ0MTc0ODY2MzY4LCJ5Ijo3ODYuODcyMTc0MDk2MDYyOH0seyJ4IjozMDUuMjg0Mzc4MDUxNzU3OCwieSI6ODgzLjQ0MDYxMjc5Mjk2ODh9LHsieCI6MzA1LjI4NDM3ODA1MTc1NzgsInkiOjkxOS45NDA2MTI3OTI5Njg5fV0=" data-look="classic" marker-end="url(#g40df4b71-9888-458d-8c9a-098de0068664-dark_flowchart-v2-pointEnd)"></path><path d="M383.781,1076.451L422.35,1095.617C460.919,1114.783,538.058,1153.115,576.628,1179.164C615.197,1205.214,615.197,1218.98,615.197,1225.864L615.197,1232.747" id="g40df4b71-9888-458d-8c9a-098de0068664-dark-L_Q5_gRPCWeb_0" class="edge-thickness-normal edge-pattern-solid edge-thickness-normal edge-pattern-solid flowchart-link" style=";" data-edge="true" data-et="edge" data-id="L_Q5_gRPCWeb_0" data-points="W3sieCI6MzgzLjc4MDczODYxNDg4MTU2LCJ5IjoxMDc2LjQ1MDUwODMzMzM2MDR9LHsieCI6NjE1LjE5Njg4NDE1NTI3MzQsInkiOjExOTEuNDQ2ODY4ODk2NDg0NH0seyJ4Ijo2MTUuMTk2ODg0MTU1MjczNCwieSI6MTIzNi43NDY4NjgxMzM1NDV9XQ==" data-look="classic" marker-end="url(#g40df4b71-9888-458d-8c9a-098de0068664-dark_flowchart-v2-pointEnd)"></path><path d="M263.638,1113.3L256.487,1126.325C249.336,1139.349,235.035,1165.398,227.884,1183.839C220.734,1202.28,220.734,1213.114,220.734,1218.53L220.734,1223.947" id="g40df4b71-9888-458d-8c9a-098de0068664-dark-L_Q5_REST_0" class="edge-thickness-normal edge-pattern-solid edge-thickness-normal edge-pattern-solid flowchart-link" style=";" data-edge="true" data-et="edge" data-id="L_Q5_REST_0" data-points="W3sieCI6MjYzLjYzNzY4NTY3NDQ0ODIsInkiOjExMTMuMzAwMTc2NTE5MTc0OH0seyJ4IjoyMjAuNzMzNTk2ODAxNzU3OCwieSI6MTE5MS40NDY4Njg4OTY0ODQ0fSx7IngiOjIyMC43MzM1OTY4MDE3NTc4LCJ5IjoxMjI3Ljk0Njg2ODg5NjQ4NDR9XQ==" data-look="classic" marker-end="url(#g40df4b71-9888-458d-8c9a-098de0068664-dark_flowchart-v2-pointEnd)"></path><path d="M682.717,776.354L713.454,794.202C744.192,812.05,805.667,847.745,836.405,891.26C867.142,934.775,867.142,986.109,867.142,1037.444C867.142,1088.778,867.142,1140.112,868.294,1171.211C869.445,1202.309,871.748,1213.172,872.9,1218.603L874.051,1224.034" id="g40df4b71-9888-458d-8c9a-098de0068664-dark-L_Q3_gRPC_0" class="edge-thickness-normal edge-pattern-solid edge-thickness-normal edge-pattern-solid flowchart-link" style=";" data-edge="true" data-et="edge" data-id="L_Q3_gRPC_0" data-points="W3sieCI6NjgyLjcxNjgzMTc1MjUyMzgsInkiOjc3Ni4zNTQyNTg5NDU3MTg0fSx7IngiOjg2Ny4xNDIxOTY2NTUyNzM0LCJ5Ijo4ODMuNDQwNjEyNzkyOTY4OH0seyJ4Ijo4NjcuMTQyMTk2NjU1MjczNCwieSI6MTAzNy40NDM3NDA4NDQ3MjY2fSx7IngiOjg2Ny4xNDIxOTY2NTUyNzM0LCJ5IjoxMTkxLjQ0Njg2ODg5NjQ4NDR9LHsieCI6ODc0Ljg4MDU5NzMzMDMwOTksInkiOjEyMjcuOTQ2ODY4ODk2NDg0NH1d" data-look="classic" marker-end="url(#g40df4b71-9888-458d-8c9a-098de0068664-dark_flowchart-v2-pointEnd)"></path><path d="M600.712,807.459L595.671,820.123C590.631,832.786,580.551,858.113,575.511,879.497C570.47,900.881,570.47,918.321,570.47,927.041L570.47,935.761" id="g40df4b71-9888-458d-8c9a-098de0068664-dark-L_Q3_Q6_0" class="edge-thickness-normal edge-pattern-solid edge-thickness-normal edge-pattern-solid flowchart-link" style=";" data-edge="true" data-et="edge" data-id="L_Q3_Q6_0" data-points="W3sieCI6NjAwLjcxMTU5Mzk2NjE2MjgsInkiOjgwNy40NTkyMjg4NTM4NTgxfSx7IngiOjU3MC40NzAzMjE2NTUyNzM0LCJ5Ijo4ODMuNDQwNjEyNzkyOTY4OH0seyJ4Ijo1NzAuNDcwMzIxNjU1MjczNCwieSI6OTM5Ljc2MDkyNTI5Mjk2ODh9XQ==" data-look="classic" marker-end="url(#g40df4b71-9888-458d-8c9a-098de0068664-dark_flowchart-v2-pointEnd)"></path><path d="M637.072,1068.525L680.972,1089.012C724.871,1109.499,812.671,1150.473,855.419,1176.391C898.167,1202.309,895.864,1213.172,894.713,1218.603L893.562,1224.034" id="g40df4b71-9888-458d-8c9a-098de0068664-dark-L_Q6_gRPC_0" class="edge-thickness-normal edge-pattern-solid edge-thickness-normal edge-pattern-solid flowchart-link" style=";" data-edge="true" data-et="edge" data-id="L_Q6_gRPC_0" data-points="W3sieCI6NjM3LjA3MTgxMDkwOTc2NjMsInkiOjEwNjguNTI1MDY3MTQxOTkxNX0seyJ4Ijo5MDAuNDcwMzIxNjU1MjczNCwieSI6MTE5MS40NDY4Njg4OTY0ODQ0fSx7IngiOjg5Mi43MzE5MjA5ODAyMzcsInkiOjEyMjcuOTQ2ODY4ODk2NDg0NH1d" data-look="classic" marker-end="url(#g40df4b71-9888-458d-8c9a-098de0068664-dark_flowchart-v2-pointEnd)"></path><path d="M532.875,1097.531L523.082,1113.184C513.288,1128.837,493.702,1160.142,461.58,1182.72C429.459,1205.299,384.803,1219.152,362.476,1226.078L340.148,1233.004" id="g40df4b71-9888-458d-8c9a-098de0068664-dark-L_Q6_REST_0" class="edge-thickness-normal edge-pattern-solid edge-thickness-normal edge-pattern-solid flowchart-link" style=";" data-edge="true" data-et="edge" data-id="L_Q6_REST_0" data-points="W3sieCI6NTMyLjg3NTE1Mzc1NzkxNDEsInkiOjEwOTcuNTMxMzg4NDk5MTI1fSx7IngiOjQ3NC4xMTQ4NTI5MDUyNzM0NCwieSI6MTE5MS40NDY4Njg4OTY0ODQ0fSx7IngiOjMzNi4zMjczNDY4MDE3NTc4LCJ5IjoxMjM0LjE4OTE2OTMxNzczMDh9XQ==" data-look="classic" marker-end="url(#g40df4b71-9888-458d-8c9a-098de0068664-dark_flowchart-v2-pointEnd)"></path></g><g class="edgeLabels"><g class="edgeLabel"><g class="label" data-id="L_Start_Q1_0" transform="translate(0, 0)"><text y="-10.1" text-anchor="middle"><tspan class="text-outer-tspan row" x="0" y="-0.1em" dy="1.1em" text-anchor="middle"></tspan></text></g></g><g><rect class="background" style="stroke: none"></rect></g><g class="edgeLabel" transform="translate(229.98125457763672, 316.20936584472656)"><g class="label" data-id="L_Q1_Q2_0" transform="translate(0, -10.5)"><g><rect class="background" style="" x="-13.328125" y="-1" width="26.65625" height="23"></rect><text y="-10.1" text-anchor="middle" style=""><tspan class="text-outer-tspan row" x="0" y="-0.1em" dy="1.1em" text-anchor="middle"><tspan font-style="normal" class="text-inner-tspan" font-weight="normal">Yes</tspan></tspan></text></g></g></g><g class="edgeLabel" transform="translate(626.1617279052734, 459.89998626708984)"><g class="label" data-id="L_Q1_Q3_0" transform="translate(0, -10.5)"><g><rect class="background" style="" x="-11.3984375" y="-1" width="22.796875" height="23"></rect><text y="-10.1" text-anchor="middle" style=""><tspan class="text-outer-tspan row" x="0" y="-0.1em" dy="1.1em" text-anchor="middle"><tspan font-style="normal" class="text-inner-tspan" font-weight="normal">No</tspan></tspan></text></g></g></g><g class="edgeLabel" transform="translate(348.5375061035156, 603.5906066894531)"><g class="label" data-id="L_Q2_GQL_0" transform="translate(0, -10.5)"><g><rect class="background" style="" x="-13.328125" y="-1" width="26.65625" height="23"></rect><text y="-10.1" text-anchor="middle" style=""><tspan class="text-outer-tspan row" x="0" y="-0.1em" dy="1.1em" text-anchor="middle"><tspan font-style="normal" class="text-inner-tspan" font-weight="normal">Yes</tspan></tspan></text></g></g></g><g class="edgeLabel" transform="translate(111.42500305175781, 603.5906066894531)"><g class="label" data-id="L_Q2_Q4_0" transform="translate(0, -10.5)"><g><rect class="background" style="" x="-11.3984375" y="-1" width="22.796875" height="23"></rect><text y="-10.1" text-anchor="middle" style=""><tspan class="text-outer-tspan row" x="0" y="-0.1em" dy="1.1em" text-anchor="middle"><tspan font-style="normal" class="text-inner-tspan" font-weight="normal">No</tspan></tspan></text></g></g></g><g class="edgeLabel" transform="translate(107.53047180175781, 1037.4437408447266)"><g class="label" data-id="L_Q4_REST_0" transform="translate(0, -10.5)"><g><rect class="background" style="" x="-13.328125" y="-1" width="26.65625" height="23"></rect><text y="-10.1" text-anchor="middle" style=""><tspan class="text-outer-tspan row" x="0" y="-0.1em" dy="1.1em" text-anchor="middle"><tspan font-style="normal" class="text-inner-tspan" font-weight="normal">Yes</tspan></tspan></text></g></g></g><g class="edgeLabel" transform="translate(305.2843780517578, 883.4406127929688)"><g class="label" data-id="L_Q4_Q5_0" transform="translate(0, -10.5)"><g><rect class="background" style="" x="-11.3984375" y="-1" width="22.796875" height="23"></rect><text y="-10.1" text-anchor="middle" style=""><tspan class="text-outer-tspan row" x="0" y="-0.1em" dy="1.1em" text-anchor="middle"><tspan font-style="normal" class="text-inner-tspan" font-weight="normal">No</tspan></tspan></text></g></g></g><g class="edgeLabel" transform="translate(615.1968841552734, 1191.4468688964844)"><g class="label" data-id="L_Q5_gRPCWeb_0" transform="translate(0, -10.5)"><g><rect class="background" style="" x="-13.328125" y="-1" width="26.65625" height="23"></rect><text y="-10.1" text-anchor="middle" style=""><tspan class="text-outer-tspan row" x="0" y="-0.1em" dy="1.1em" text-anchor="middle"><tspan font-style="normal" class="text-inner-tspan" font-weight="normal">Yes</tspan></tspan></text></g></g></g><g class="edgeLabel" transform="translate(220.7335968017578, 1191.4468688964844)"><g class="label" data-id="L_Q5_REST_0" transform="translate(0, -10.5)"><g><rect class="background" style="" x="-11.3984375" y="-1" width="22.796875" height="23"></rect><text y="-10.1" text-anchor="middle" style=""><tspan class="text-outer-tspan row" x="0" y="-0.1em" dy="1.1em" text-anchor="middle"><tspan font-style="normal" class="text-inner-tspan" font-weight="normal">No</tspan></tspan></text></g></g></g><g class="edgeLabel" transform="translate(867.1421966552734, 1037.4437408447266)"><g class="label" data-id="L_Q3_gRPC_0" transform="translate(0, -10.5)"><g><rect class="background" style="" x="-13.328125" y="-1" width="26.65625" height="23"></rect><text y="-10.1" text-anchor="middle" style=""><tspan class="text-outer-tspan row" x="0" y="-0.1em" dy="1.1em" text-anchor="middle"><tspan font-style="normal" class="text-inner-tspan" font-weight="normal">Yes</tspan></tspan></text></g></g></g><g class="edgeLabel" transform="translate(570.4703216552734, 883.4406127929688)"><g class="label" data-id="L_Q3_Q6_0" transform="translate(0, -10.5)"><g><rect class="background" style="" x="-11.3984375" y="-1" width="22.796875" height="23"></rect><text y="-10.1" text-anchor="middle" style=""><tspan class="text-outer-tspan row" x="0" y="-0.1em" dy="1.1em" text-anchor="middle"><tspan font-style="normal" class="text-inner-tspan" font-weight="normal">No</tspan></tspan></text></g></g></g><g class="edgeLabel" transform="translate(785.67644, 1137.8753)"><g class="label" data-id="L_Q6_gRPC_0" transform="translate(0, -10.5)"><g><rect class="background" style="" x="-13.328125" y="-1" width="26.65625" height="23"></rect><text y="-10.1" text-anchor="middle" style=""><tspan class="text-outer-tspan row" x="0" y="-0.1em" dy="1.1em" text-anchor="middle"><tspan font-style="normal" class="text-inner-tspan" font-weight="normal">Yes</tspan></tspan></text></g></g></g><g class="edgeLabel" transform="translate(458.12567, 1196.40678)"><g class="label" data-id="L_Q6_REST_0" transform="translate(0, -10.5)"><g><rect class="background" style="" x="-11.3984375" y="-1" width="22.796875" height="23"></rect><text y="-10.1" text-anchor="middle" style=""><tspan class="text-outer-tspan row" x="0" y="-0.1em" dy="1.1em" text-anchor="middle"><tspan font-style="normal" class="text-inner-tspan" font-weight="normal">No</tspan></tspan></text></g></g></g></g><g class="nodes"><g class="node default" id="g40df4b71-9888-458d-8c9a-098de0068664-dark-flowchart-Start-0" data-look="classic" transform="translate(396.0648498535156, 25)"><g class="basic label-container outer-path"><path d="M-52.1640625 -17 C-15.955281772096733 -17, 20.253498955806535 -17, 52.1640625 -17 C52.1640625 -17, 52.1640625 -17, 52.1640625 -17 C52.42944081689657 -16.991489833904684, 52.69481913379314 -16.98297966780937, 53.25325623967212 -16.965071676755716 C53.658477245728115 -16.925980493651057, 54.06369825178412 -16.886889310546398, 54.3379742486366 -16.860430234995185 C54.74890646657693 -16.793993900825537, 55.159838684517275 -16.72755756665589, 55.413759187923326 -16.686505668848113 C55.65784039072932 -16.630795727086348, 55.90192159353531 -16.57508578532458, 56.47619042646162 -16.4440126716635 C56.78945083296141 -16.35103862735179, 57.1027112394612 -16.258064583040085, 57.52090220640155 -16.133947699181366 C57.83391918573975 -16.01875455728767, 58.14693616507795 -15.903561415393973, 58.54360158294936 -15.757584874882369 C58.83261139940972 -15.629648802306965, 59.12162121587009 -15.501712729731564, 59.54008606499849 -15.316470754341125 C59.79468080572237 -15.183648841181192, 60.049275546446246 -15.050826928021259, 60.50626088406694 -14.812417970097622 C60.699216216968125 -14.695447313361523, 60.89217154986931 -14.578476656625423, 61.438155820579325 -14.247497783161291 C61.76462260924071 -14.019768683910614, 62.091089397902095 -13.792039584659939, 62.331941518350675 -13.624031571755262 C62.6546182611223 -13.366705456183638, 62.97729500389393 -13.109379340612012, 63.1839452202324 -12.944581292275288 C63.35689738293758 -12.78751071416991, 63.52984954564276 -12.63044013606453, 63.99066586025927 -12.21193895166137 C64.2631395508396 -11.930587495631144, 64.53561324141994 -11.649236039600918, 64.74878845028036 -11.42911513444239 C64.9060093431091 -11.244434527603506, 65.06323023593785 -11.059753920764624, 65.45519770195651 -10.59932663159847 C65.6894526253846 -10.285446375267377, 65.92370754881269 -9.971566118936282, 66.10699082814824 -9.725983222076888 C66.29140126922618 -9.442679263444122, 66.47581171030413 -9.159375304811356, 66.70148947109088 -8.812673661278927 C66.87521660247644 -8.504203547724227, 67.048943733862 -8.195733434169526, 67.236250708341 -7.863150934094199 C67.38422997319223 -7.555868824381561, 67.53220923804348 -7.248586714668923, 67.70907709126881 -6.881316833080699 C67.84429583156927 -6.547323930262064, 67.97951457186973 -6.213331027443431, 68.11802567484592 -5.871205925162238 C68.23455836362838 -5.52022803351201, 68.35109105241084 -5.169250141861783, 68.46141600162323 -4.836968972727556 C68.56889157017615 -4.4271180496292395, 68.67636713872906 -4.017267126530922, 68.737837007091 -3.7828558772573464 C68.81211578351537 -3.401450059143157, 68.88639455993975 -3.020044241028968, 68.94615281804565 -2.713198215567453 C68.99065724580494 -2.3680306622596436, 69.03516167356425 -2.0228631089518343, 69.08550742013637 -1.632391440430593 C69.10399054552308 -1.3445018432223563, 69.12247367090978 -1.0566122460141196, 69.1553281754117 -0.5448768187181379 C69.1553281754117 -0.16935855449591714, 69.1553281754117 0.2061597097263036, 69.1553281754117 0.5448768187181336 C69.13898891123223 0.7993740471298593, 69.12264964705278 1.0538712755415849, 69.08550742013637 1.6323914404305815 C69.05105473252458 1.8995996820949461, 69.01660204491279 2.1668079237593103, 68.94615281804565 2.7131982155674415 C68.88036921866707 3.0509830950078123, 68.81458561928848 3.3887679744481827, 68.737837007091 3.782855877257343 C68.6740806402864 4.0259865360674265, 68.61032427348181 4.269117194877511, 68.46141600162323 4.836968972727545 C68.39017496201161 5.051535633319556, 68.31893392239998 5.266102293911568, 68.11802567484592 5.871205925162227 C68.01001390440197 6.137997086424319, 67.902002133958 6.404788247686411, 67.70907709126881 6.881316833080694 C67.53886512098994 7.234765631317518, 67.36865315071105 7.588214429554341, 67.236250708341 7.863150934094196 C67.03769465625875 8.215707310546726, 66.8391386041765 8.568263686999257, 66.70148947109088 8.812673661278923 C66.54333715703197 9.05563808551608, 66.38518484297306 9.298602509753236, 66.10699082814826 9.725983222076879 C65.93306079925739 9.959033615439036, 65.75913077036653 10.192084008801194, 65.45519770195651 10.599326631598467 C65.173325653566 10.93042957861188, 64.89145360517549 11.261532525625293, 64.74878845028037 11.42911513444238 C64.4935070534471 11.692714135665188, 64.23822565661385 11.956313136887996, 63.99066586025927 12.211938951661365 C63.72647664902368 12.45186860324204, 63.4622874377881 12.691798254822714, 63.18394522023242 12.944581292275275 C62.939673338309994 13.139381617760634, 62.695401456387565 13.334181943245992, 62.331941518350675 13.62403157175526 C61.99290724549391 13.860527203943011, 61.65387297263715 14.097022836130762, 61.43815582057934 14.247497783161286 C61.21922306771194 14.380216104541171, 61.000290314844534 14.512934425921054, 60.50626088406695 14.81241797009762 C60.2286730318948 14.957235374772322, 59.95108517972266 15.102052779447025, 59.54008606499849 15.316470754341124 C59.26103961584669 15.439996339761814, 58.9819931666949 15.563521925182505, 58.543601582949364 15.757584874882367 C58.21353750263214 15.879051507518016, 57.88347342231493 16.000518140153666, 57.52090220640156 16.133947699181363 C57.24819741743898 16.21488504908881, 56.975492628476395 16.295822398996258, 56.47619042646164 16.444012671663497 C56.18712110806706 16.50999085723347, 55.89805178967248 16.57596904280344, 55.41375918792333 16.68650566884811 C55.18166965619036 16.724028104457496, 54.949580124457384 16.761550540066885, 54.33797424863661 16.86043023499518 C54.04543498484826 16.888651145942905, 53.7528957210599 16.91687205689063, 53.25325623967212 16.965071676755716 C52.94820072718764 16.97485421328656, 52.64314521470317 16.984636749817405, 52.1640625 17 C52.1640625 17, 52.1640625 17, 52.1640625 17 C31.175827447738378 17, 10.187592395476756 17, -52.1640625 17 C-52.43648251889412 16.991264020227465, -52.708902537788234 16.98252804045493, -53.25325623967211 16.965071676755716 C-53.56116923365219 16.935367680546015, -53.869082227632255 16.90566368433631, -54.337974248636606 16.86043023499518 C-54.66129355975252 16.808158476152666, -54.984612870868446 16.755886717310148, -55.413759187923326 16.68650566884811 C-55.83717067909819 16.589864759005643, -56.26058217027306 16.49322384916318, -56.47619042646162 16.4440126716635 C-56.77089872744216 16.356544794887917, -57.065607028422704 16.269076918112333, -57.520902206401544 16.13394769918137 C-57.85040474660966 16.01268771849669, -58.17990728681779 15.891427737812009, -58.543601582949364 15.757584874882369 C-58.793385245777344 15.647013056917519, -59.04316890860532 15.536441238952667, -59.54008606499848 15.316470754341127 C-59.790673114982205 15.185739650873284, -60.041260164965934 15.05500854740544, -60.50626088406693 14.812417970097624 C-60.73188073381658 14.675645891289982, -60.95750058356622 14.538873812482338, -61.43815582057932 14.247497783161299 C-61.73232757432943 14.042296302235197, -62.02649932807954 13.837094821309096, -62.33194151835067 13.624031571755264 C-62.64255462821571 13.376325882399888, -62.95316773808075 13.128620193044512, -63.1839452202324 12.94458129227529 C-63.46593618623439 12.688484558024395, -63.747927152236365 12.4323878237735, -63.99066586025926 12.211938951661377 C-64.25916429991945 11.934692268580376, -64.52766273957963 11.657445585499374, -64.74878845028036 11.429115134442386 C-64.93809016514344 11.206750568591504, -65.1273918800065 10.98438600274062, -65.45519770195651 10.599326631598473 C-65.66329920704256 10.320489573220291, -65.8714007121286 10.04165251484211, -66.10699082814824 9.72598322207689 C-66.26396773336148 9.484824541468154, -66.42094463857472 9.243665860859418, -66.70148947109088 8.812673661278936 C-66.83991388460129 8.566887098099404, -66.97833829811168 8.321100534919871, -67.236250708341 7.863150934094201 C-67.41902249877377 7.4836214005707316, -67.60179428920652 7.104091867047261, -67.70907709126881 6.881316833080701 C-67.80223698535553 6.651210093562458, -67.89539687944227 6.421103354044214, -68.11802567484592 5.87120592516224 C-68.22666779022751 5.54399318340328, -68.3353099056091 5.216780441644319, -68.46141600162323 4.8369689727275516 C-68.51671754899898 4.6260802047416005, -68.57201909637472 4.4151914367556495, -68.737837007091 3.782855877257349 C-68.80577550216847 3.4340060638405383, -68.87371399724594 3.0851562504237275, -68.94615281804565 2.713198215567455 C-68.98659779724305 2.399514943676868, -69.02704277644047 2.0858316717862815, -69.08550742013637 1.6323914404306026 C-69.10992934228973 1.2520002898711597, -69.1343512644431 0.871609139311717, -69.1553281754117 0.54487681871814 C-69.1553281754117 0.11278695415453227, -69.1553281754117 -0.31930291040907544, -69.1553281754117 -0.5448768187181317 C-69.12839280534969 -0.9644169492732317, -69.10145743528768 -1.3839570798283316, -69.08550742013637 -1.6323914404305793 C-69.03068321681758 -2.0575971351076574, -68.97585901349878 -2.4828028297847355, -68.94615281804565 -2.713198215567447 C-68.90306655113916 -2.934437089846532, -68.85998028423268 -3.155675964125617, -68.737837007091 -3.782855877257341 C-68.62963505585064 -4.195476812359144, -68.52143310461028 -4.608097747460946, -68.46141600162323 -4.836968972727544 C-68.33222077844468 -5.226084400477974, -68.20302555526612 -5.615199828228405, -68.11802567484594 -5.871205925162218 C-67.9850464993959 -6.199667059501246, -67.85206732394587 -6.528128193840276, -67.70907709126881 -6.881316833080692 C-67.6056306239197 -7.09612563593095, -67.50218415657058 -7.310934438781208, -67.236250708341 -7.863150934094194 C-67.04375547308992 -8.20494571653873, -66.85126023783884 -8.546740498983263, -66.70148947109088 -8.812673661278929 C-66.51327148053481 -9.101827038380295, -66.32505348997874 -9.390980415481662, -66.10699082814826 -9.725983222076884 C-65.94120673643576 -9.94811880173016, -65.77542264472328 -10.170254381383437, -65.45519770195651 -10.599326631598467 C-65.28824367475359 -10.795440331904283, -65.12128964755068 -10.9915540322101, -64.74878845028037 -11.42911513444238 C-64.5585301045033 -11.625572496957895, -64.36827175872622 -11.82202985947341, -63.99066586025928 -12.21193895166136 C-63.71109517765627 -12.465837648566499, -63.43152449505325 -12.719736345471638, -63.18394522023242 -12.944581292275274 C-62.996010141324554 -13.09445451654181, -62.80807506241669 -13.244327740808346, -62.331941518350675 -13.624031571755259 C-62.12347232760153 -13.769450654736044, -61.915003136852384 -13.914869737716831, -61.43815582057934 -14.247497783161284 C-61.218852657990155 -14.380440649091282, -60.99954949540097 -14.51338351502128, -60.50626088406695 -14.812417970097618 C-60.223887545613174 -14.959731959900196, -59.9415142071594 -15.107045949702776, -59.54008606499849 -15.316470754341124 C-59.164926023402 -15.482542976028657, -58.789765981805516 -15.648615197716193, -58.54360158294937 -15.757584874882365 C-58.31445510781135 -15.841912895939954, -58.08530863267333 -15.926240916997541, -57.520902206401566 -16.133947699181363 C-57.21247335168558 -16.22548776428497, -56.904044496969604 -16.317027829388575, -56.47619042646164 -16.444012671663494 C-56.209148145506795 -16.504963329677697, -55.942105864551955 -16.565913987691903, -55.41375918792333 -16.68650566884811 C-55.07684688574095 -16.74097503707103, -54.739934583558565 -16.795444405293953, -54.33797424863661 -16.86043023499518 C-54.032448499360875 -16.889903936579337, -53.72692275008514 -16.919377638163496, -53.25325623967212 -16.965071676755716 C-53.017607515412955 -16.97262847268029, -52.78195879115379 -16.980185268604867, -52.16406250000001 -17 C-52.16406250000001 -17, -52.1640625 -17, -52.1640625 -17" stroke="none" stroke-width="0" fill="#2d2d2d" style=""></path><path d="M-52.1640625 -17 C-15.878408409389323 -17, 20.407245681221355 -17, 52.1640625 -17 M-52.1640625 -17 C-18.61032873742557 -17, 14.943405025148863 -17, 52.1640625 -17 M52.1640625 -17 C52.1640625 -17, 52.1640625 -17, 52.1640625 -17 M52.1640625 -17 C52.1640625 -17, 52.1640625 -17, 52.1640625 -17 M52.1640625 -17 C52.45250548108711 -16.99075019501674, 52.74094846217422 -16.981500390033478, 53.25325623967212 -16.965071676755716 M52.1640625 -17 C52.4249469989393 -16.991633941899888, 52.68583149787859 -16.983267883799776, 53.25325623967212 -16.965071676755716 M53.25325623967212 -16.965071676755716 C53.48607867649408 -16.94261157628545, 53.71890111331604 -16.92015147581518, 54.3379742486366 -16.860430234995185 M53.25325623967212 -16.965071676755716 C53.48773101217724 -16.94245217744932, 53.722205784682366 -16.91983267814292, 54.3379742486366 -16.860430234995185 M54.3379742486366 -16.860430234995185 C54.596412659612525 -16.81864791692841, 54.85485107058845 -16.77686559886163, 55.413759187923326 -16.686505668848113 M54.3379742486366 -16.860430234995185 C54.576057647980946 -16.82193875735353, 54.81414104732529 -16.783447279711872, 55.413759187923326 -16.686505668848113 M55.413759187923326 -16.686505668848113 C55.67802401820925 -16.62618894582453, 55.94228884849518 -16.565872222800945, 56.47619042646162 -16.4440126716635 M55.413759187923326 -16.686505668848113 C55.70335997086982 -16.6204061799623, 55.992960753816305 -16.554306691076484, 56.47619042646162 -16.4440126716635 M56.47619042646162 -16.4440126716635 C56.83671250675271 -16.337011610652123, 57.197234587043795 -16.230010549640745, 57.52090220640155 -16.133947699181366 M56.47619042646162 -16.4440126716635 C56.838821227128534 -16.336385753513476, 57.20145202779544 -16.228758835363454, 57.52090220640155 -16.133947699181366 M57.52090220640155 -16.133947699181366 C57.7292975423767 -16.057256289157145, 57.93769287835185 -15.98056487913292, 58.54360158294936 -15.757584874882369 M57.52090220640155 -16.133947699181366 C57.7302416495238 -16.05690884899978, 57.93958109264605 -15.979869998818192, 58.54360158294936 -15.757584874882369 M58.54360158294936 -15.757584874882369 C58.8384276647877 -15.627074114157516, 59.13325374662605 -15.496563353432663, 59.54008606499849 -15.316470754341125 M58.54360158294936 -15.757584874882369 C58.86376733502167 -15.615856993819548, 59.18393308709399 -15.47412911275673, 59.54008606499849 -15.316470754341125 M59.54008606499849 -15.316470754341125 C59.77084090004026 -15.19608610470536, 60.00159573508203 -15.075701455069595, 60.50626088406694 -14.812417970097622 M59.54008606499849 -15.316470754341125 C59.85070499325424 -15.15442105843102, 60.16132392150999 -14.992371362520915, 60.50626088406694 -14.812417970097622 M60.50626088406694 -14.812417970097622 C60.8017601244226 -14.633284594047732, 61.09725936477826 -14.45415121799784, 61.438155820579325 -14.247497783161291 M60.50626088406694 -14.812417970097622 C60.69846559088199 -14.695902347306106, 60.89067029769704 -14.57938672451459, 61.438155820579325 -14.247497783161291 M61.438155820579325 -14.247497783161291 C61.64879149649081 -14.10056745391689, 61.85942717240229 -13.95363712467249, 62.331941518350675 -13.624031571755262 M61.438155820579325 -14.247497783161291 C61.78986046830247 -14.002163845958439, 62.141565116025625 -13.756829908755588, 62.331941518350675 -13.624031571755262 M62.331941518350675 -13.624031571755262 C62.56462271911243 -13.438474506054558, 62.79730391987419 -13.252917440353853, 63.1839452202324 -12.944581292275288 M62.331941518350675 -13.624031571755262 C62.53382297024956 -13.463036486156959, 62.735704422148444 -13.302041400558656, 63.1839452202324 -12.944581292275288 M63.1839452202324 -12.944581292275288 C63.435225693545654 -12.716375014929188, 63.68650616685891 -12.488168737583088, 63.99066586025927 -12.21193895166137 M63.1839452202324 -12.944581292275288 C63.34850711039692 -12.79513053769689, 63.513069000561444 -12.64567978311849, 63.99066586025927 -12.21193895166137 M63.99066586025927 -12.21193895166137 C64.24366710862233 -11.95069439093771, 64.49666835698541 -11.689449830214048, 64.74878845028036 -11.42911513444239 M63.99066586025927 -12.21193895166137 C64.16844506888827 -12.02836732280744, 64.3462242775173 -11.844795693953511, 64.74878845028036 -11.42911513444239 M64.74878845028036 -11.42911513444239 C64.98857771308938 -11.147445021951329, 65.22836697589841 -10.865774909460267, 65.45519770195651 -10.59932663159847 M64.74878845028036 -11.42911513444239 C65.02196972728049 -11.108220862023016, 65.29515100428063 -10.787326589603643, 65.45519770195651 -10.59932663159847 M65.45519770195651 -10.59932663159847 C65.59257734107032 -10.415250430728552, 65.72995698018413 -10.231174229858631, 66.10699082814824 -9.725983222076888 M65.45519770195651 -10.59932663159847 C65.67723103464769 -10.301822193445016, 65.89926436733887 -10.00431775529156, 66.10699082814824 -9.725983222076888 M66.10699082814824 -9.725983222076888 C66.29686590292528 -9.434284118622708, 66.48674097770231 -9.14258501516853, 66.70148947109088 -8.812673661278927 M66.10699082814824 -9.725983222076888 C66.2527876080464 -9.502000216236132, 66.39858438794455 -9.278017210395376, 66.70148947109088 -8.812673661278927 M66.70148947109088 -8.812673661278927 C66.84504516595982 -8.557775988448727, 66.98860086082877 -8.302878315618527, 67.236250708341 -7.863150934094199 M66.70148947109088 -8.812673661278927 C66.90234390564146 -8.45603627401743, 67.10319834019204 -8.099398886755933, 67.236250708341 -7.863150934094199 M67.236250708341 -7.863150934094199 C67.35768464863239 -7.610990758809043, 67.47911858892378 -7.358830583523888, 67.70907709126881 -6.881316833080699 M67.236250708341 -7.863150934094199 C67.38962452290328 -7.544666926481724, 67.54299833746555 -7.226182918869248, 67.70907709126881 -6.881316833080699 M67.70907709126881 -6.881316833080699 C67.79514470467466 -6.66872816396416, 67.8812123180805 -6.456139494847621, 68.11802567484592 -5.871205925162238 M67.70907709126881 -6.881316833080699 C67.81041308739006 -6.631014963463024, 67.9117490835113 -6.38071309384535, 68.11802567484592 -5.871205925162238 M68.11802567484592 -5.871205925162238 C68.18699173384138 -5.663491143717188, 68.25595779283684 -5.455776362272138, 68.46141600162323 -4.836968972727556 M68.11802567484592 -5.871205925162238 C68.21952879028322 -5.565494713790315, 68.32103190572052 -5.259783502418392, 68.46141600162323 -4.836968972727556 M68.46141600162323 -4.836968972727556 C68.52699301837487 -4.586895386594709, 68.59257003512651 -4.336821800461863, 68.737837007091 -3.7828558772573464 M68.46141600162323 -4.836968972727556 C68.53596071163018 -4.552697685589396, 68.61050542163711 -4.268426398451236, 68.737837007091 -3.7828558772573464 M68.737837007091 -3.7828558772573464 C68.81947982570539 -3.3636372588883128, 68.90112264431977 -2.944418640519279, 68.94615281804565 -2.713198215567453 M68.737837007091 -3.7828558772573464 C68.79652937676693 -3.4814829636082236, 68.85522174644284 -3.180110049959101, 68.94615281804565 -2.713198215567453 M68.94615281804565 -2.713198215567453 C69.00179217094897 -2.281670381682242, 69.0574315238523 -1.8501425477970312, 69.08550742013637 -1.632391440430593 M68.94615281804565 -2.713198215567453 C68.98804272282734 -2.388308386177905, 69.02993262760906 -2.0634185567883567, 69.08550742013637 -1.632391440430593 M69.08550742013637 -1.632391440430593 C69.10016010498482 -1.404164046481581, 69.11481278983328 -1.175936652532569, 69.1553281754117 -0.5448768187181379 M69.08550742013637 -1.632391440430593 C69.10347514938746 -1.352529554054856, 69.12144287863855 -1.0726676676791191, 69.1553281754117 -0.5448768187181379 M69.1553281754117 -0.5448768187181379 C69.1553281754117 -0.20995801030884687, 69.1553281754117 0.12496079810044414, 69.1553281754117 0.5448768187181336 M69.1553281754117 -0.5448768187181379 C69.1553281754117 -0.2762180002134354, 69.1553281754117 -0.007559181708732932, 69.1553281754117 0.5448768187181336 M69.1553281754117 0.5448768187181336 C69.12747076717746 0.9787784380616065, 69.09961335894322 1.4126800574050793, 69.08550742013637 1.6323914404305815 M69.1553281754117 0.5448768187181336 C69.13117468158362 0.9210869814396656, 69.10702118775555 1.2972971441611976, 69.08550742013637 1.6323914404305815 M69.08550742013637 1.6323914404305815 C69.03566660514991 2.0189469592833675, 68.98582579016346 2.4055024781361536, 68.94615281804565 2.7131982155674415 M69.08550742013637 1.6323914404305815 C69.05594465792535 1.8616743863115102, 69.02638189571434 2.090957332192439, 68.94615281804565 2.7131982155674415 M68.94615281804565 2.7131982155674415 C68.87870093925622 3.059549357191524, 68.81124906046679 3.4059004988156065, 68.737837007091 3.782855877257343 M68.94615281804565 2.7131982155674415 C68.89543688171842 2.9736138297908146, 68.8447209453912 3.2340294440141877, 68.737837007091 3.782855877257343 M68.737837007091 3.782855877257343 C68.6390500221556 4.159573465366114, 68.54026303722021 4.536291053474884, 68.46141600162323 4.836968972727545 M68.737837007091 3.782855877257343 C68.65749261537603 4.089243864346161, 68.57714822366107 4.395631851434978, 68.46141600162323 4.836968972727545 M68.46141600162323 4.836968972727545 C68.36898805894852 5.115347209671004, 68.2765601162738 5.393725446614463, 68.11802567484592 5.871205925162227 M68.46141600162323 4.836968972727545 C68.36652707085618 5.1227593136999126, 68.27163814008914 5.408549654672281, 68.11802567484592 5.871205925162227 M68.11802567484592 5.871205925162227 C67.95575853668375 6.2720088936445, 67.79349139852157 6.672811862126774, 67.70907709126881 6.881316833080694 M68.11802567484592 5.871205925162227 C67.95956911827045 6.262596683452771, 67.80111256169496 6.653987441743315, 67.70907709126881 6.881316833080694 M67.70907709126881 6.881316833080694 C67.54726773549345 7.217317422513828, 67.38545837971807 7.553318011946961, 67.236250708341 7.863150934094196 M67.70907709126881 6.881316833080694 C67.59423810087289 7.119782453798595, 67.47939911047696 7.358248074516495, 67.236250708341 7.863150934094196 M67.236250708341 7.863150934094196 C67.02783335559351 8.233217048442826, 66.81941600284603 8.603283162791458, 66.70148947109088 8.812673661278923 M67.236250708341 7.863150934094196 C67.04905094482491 8.19554307024858, 66.86185118130884 8.527935206402962, 66.70148947109088 8.812673661278923 M66.70148947109088 8.812673661278923 C66.50928989111128 9.107943828941304, 66.31709031113166 9.403213996603686, 66.10699082814826 9.725983222076879 M66.70148947109088 8.812673661278923 C66.529994515337 9.07613596616052, 66.35849955958311 9.339598271042115, 66.10699082814826 9.725983222076879 M66.10699082814826 9.725983222076879 C65.8924180716206 10.013491167843679, 65.67784531509294 10.300999113610477, 65.45519770195651 10.599326631598467 M66.10699082814826 9.725983222076879 C65.94020634417521 9.949459236221701, 65.77342186020215 10.172935250366521, 65.45519770195651 10.599326631598467 M65.45519770195651 10.599326631598467 C65.25039143698426 10.839903724241486, 65.04558517201201 11.080480816884505, 64.74878845028037 11.42911513444238 M65.45519770195651 10.599326631598467 C65.26585379653312 10.821740756882207, 65.07650989110974 11.044154882165945, 64.74878845028037 11.42911513444238 M64.74878845028037 11.42911513444238 C64.54535405739183 11.639177847374066, 64.34191966450331 11.849240560305754, 63.99066586025927 12.211938951661365 M64.74878845028037 11.42911513444238 C64.51133287675776 11.674307509569623, 64.27387730323515 11.919499884696865, 63.99066586025927 12.211938951661365 M63.99066586025927 12.211938951661365 C63.68498258518725 12.489552414145523, 63.37929931011523 12.76716587662968, 63.18394522023242 12.944581292275275 M63.99066586025927 12.211938951661365 C63.66806969297108 12.504912255365644, 63.345473525682884 12.797885559069924, 63.18394522023242 12.944581292275275 M63.18394522023242 12.944581292275275 C62.9693860033452 13.115686558082277, 62.75482678645798 13.28679182388928, 62.331941518350675 13.62403157175526 M63.18394522023242 12.944581292275275 C62.88142482236047 13.18583325917227, 62.57890442448852 13.427085226069265, 62.331941518350675 13.62403157175526 M62.331941518350675 13.62403157175526 C62.12108217656255 13.771117920632866, 61.91022283477443 13.918204269510472, 61.43815582057934 14.247497783161286 M62.331941518350675 13.62403157175526 C62.14815420516003 13.752233645412492, 61.9643668919694 13.880435719069723, 61.43815582057934 14.247497783161286 M61.43815582057934 14.247497783161286 C61.08697561990137 14.460385284576207, 60.73579541922339 14.673272785991127, 60.50626088406695 14.81241797009762 M61.43815582057934 14.247497783161286 C61.20069964698245 14.391445111043089, 60.96324347338557 14.53539243892489, 60.50626088406695 14.81241797009762 M60.50626088406695 14.81241797009762 C60.26109725444895 14.94031967863453, 60.01593362483094 15.068221387171441, 59.54008606499849 15.316470754341124 M60.50626088406695 14.81241797009762 C60.31103618836571 14.914266568797567, 60.115811492664484 15.016115167497514, 59.54008606499849 15.316470754341124 M59.54008606499849 15.316470754341124 C59.18561705387199 15.47338367061721, 58.831148042745475 15.630296586893296, 58.543601582949364 15.757584874882367 M59.54008606499849 15.316470754341124 C59.303932119007044 15.421009100973626, 59.067778173015604 15.525547447606126, 58.543601582949364 15.757584874882367 M58.543601582949364 15.757584874882367 C58.244464149001274 15.86767021577139, 57.94532671505319 15.977755556660414, 57.52090220640156 16.133947699181363 M58.543601582949364 15.757584874882367 C58.31926479777618 15.84014288557261, 58.094928012602985 15.922700896262851, 57.52090220640156 16.133947699181363 M57.52090220640156 16.133947699181363 C57.11234383244519 16.255205680004945, 56.70378545848883 16.37646366082853, 56.47619042646164 16.444012671663497 M57.52090220640156 16.133947699181363 C57.30427991442925 16.19824005836513, 57.08765762245694 16.2625324175489, 56.47619042646164 16.444012671663497 M56.47619042646164 16.444012671663497 C56.13408245581674 16.52209658350005, 55.791974485171835 16.60018049533661, 55.41375918792333 16.68650566884811 M56.47619042646164 16.444012671663497 C56.20827614923956 16.50516235713539, 55.94036187201748 16.566312042607283, 55.41375918792333 16.68650566884811 M55.41375918792333 16.68650566884811 C55.1801608703945 16.724272033244162, 54.94656255286567 16.762038397640215, 54.33797424863661 16.86043023499518 M55.41375918792333 16.68650566884811 C55.00266709485284 16.752967850388952, 54.59157500178235 16.81943003192979, 54.33797424863661 16.86043023499518 M54.33797424863661 16.86043023499518 C54.075955431977036 16.8857068751146, 53.813936615317466 16.91098351523402, 53.25325623967212 16.965071676755716 M54.33797424863661 16.86043023499518 C53.98390275203524 16.89458708643904, 53.62983125543388 16.928743937882896, 53.25325623967212 16.965071676755716 M53.25325623967212 16.965071676755716 C52.91978458109216 16.97576546378317, 52.5863129225122 16.986459250810622, 52.1640625 17 M53.25325623967212 16.965071676755716 C52.97919562850836 16.97386026712912, 52.70513501734459 16.982648857502525, 52.1640625 17 M52.1640625 17 C52.1640625 17, 52.1640625 17, 52.1640625 17 M52.1640625 17 C52.1640625 17, 52.1640625 17, 52.1640625 17 M52.1640625 17 C27.146581965401875 17, 2.1291014308037504 17, -52.1640625 17 M52.1640625 17 C13.554013635263999 17, -25.056035229472002 17, -52.1640625 17 M-52.1640625 17 C-52.53324246414216 16.98816111711517, -52.90242242828433 16.976322234230334, -53.25325623967211 16.965071676755716 M-52.1640625 17 C-52.397100349716595 16.992526929740247, -52.63013819943319 16.98505385948049, -53.25325623967211 16.965071676755716 M-53.25325623967211 16.965071676755716 C-53.62725308951523 16.92899265044837, -54.00124993935834 16.892913624141023, -54.337974248636606 16.86043023499518 M-53.25325623967211 16.965071676755716 C-53.49538012237043 16.94171427698838, -53.73750400506874 16.918356877221047, -54.337974248636606 16.86043023499518 M-54.337974248636606 16.86043023499518 C-54.73465571646028 16.79629785158818, -55.13133718428395 16.732165468181176, -55.413759187923326 16.68650566884811 M-54.337974248636606 16.86043023499518 C-54.56977688421675 16.82295418253087, -54.801579519796896 16.78547813006656, -55.413759187923326 16.68650566884811 M-55.413759187923326 16.68650566884811 C-55.67946622024791 16.62585977262045, -55.945173252572495 16.565213876392793, -56.47619042646162 16.4440126716635 M-55.413759187923326 16.68650566884811 C-55.770985215172125 16.604971159246254, -56.128211242420925 16.5234366496444, -56.47619042646162 16.4440126716635 M-56.47619042646162 16.4440126716635 C-56.85585638907403 16.331329806867444, -57.23552235168643 16.21864694207139, -57.520902206401544 16.13394769918137 M-56.47619042646162 16.4440126716635 C-56.886326938360526 16.322286307782388, -57.296463450259424 16.20055994390128, -57.520902206401544 16.13394769918137 M-57.520902206401544 16.13394769918137 C-57.7948546626552 16.03313066289128, -58.06880711890885 15.932313626601191, -58.543601582949364 15.757584874882369 M-57.520902206401544 16.13394769918137 C-57.927108727069395 15.984459944643687, -58.33331524773724 15.834972190106004, -58.543601582949364 15.757584874882369 M-58.543601582949364 15.757584874882369 C-58.85660651010016 15.619026878593981, -59.16961143725095 15.480468882305594, -59.54008606499848 15.316470754341127 M-58.543601582949364 15.757584874882369 C-58.9350268339847 15.58431252746655, -59.326452085020044 15.411040180050728, -59.54008606499848 15.316470754341127 M-59.54008606499848 15.316470754341127 C-59.89646696218084 15.13054706855395, -60.25284785936319 14.944623382766775, -60.50626088406693 14.812417970097624 M-59.54008606499848 15.316470754341127 C-59.88764968860868 15.135147034528813, -60.235213312218875 14.9538233147165, -60.50626088406693 14.812417970097624 M-60.50626088406693 14.812417970097624 C-60.76546526055762 14.655286753814977, -61.0246696370483 14.49815553753233, -61.43815582057932 14.247497783161299 M-60.50626088406693 14.812417970097624 C-60.77019515087579 14.652419466508178, -61.03412941768465 14.49242096291873, -61.43815582057932 14.247497783161299 M-61.43815582057932 14.247497783161299 C-61.64640329889828 14.102233357174033, -61.85465077721724 13.956968931186768, -62.33194151835067 13.624031571755264 M-61.43815582057932 14.247497783161299 C-61.69608021650804 14.06758088992857, -61.954004612436755 13.88766399669584, -62.33194151835067 13.624031571755264 M-62.33194151835067 13.624031571755264 C-62.59599833383969 13.413453288249741, -62.86005514932871 13.202875004744218, -63.1839452202324 12.94458129227529 M-62.33194151835067 13.624031571755264 C-62.56258965727981 13.440095818764027, -62.79323779620894 13.256160065772788, -63.1839452202324 12.94458129227529 M-63.1839452202324 12.94458129227529 C-63.34790095478532 12.795681032185351, -63.51185668933823 12.646780772095411, -63.99066586025926 12.211938951661377 M-63.1839452202324 12.94458129227529 C-63.442938367662386 12.70937056836255, -63.70193151509237 12.474159844449812, -63.99066586025926 12.211938951661377 M-63.99066586025926 12.211938951661377 C-64.19195388267589 12.004092542462228, -64.39324190509251 11.796246133263077, -64.74878845028036 11.429115134442386 M-63.99066586025926 12.211938951661377 C-64.26930310602323 11.924223118866749, -64.5479403517872 11.63650728607212, -64.74878845028036 11.429115134442386 M-64.74878845028036 11.429115134442386 C-65.02416381227832 11.105643564937594, -65.29953917427628 10.782171995432801, -65.45519770195651 10.599326631598473 M-64.74878845028036 11.429115134442386 C-64.9369100059588 11.20813685072273, -65.12503156163724 10.987158567003075, -65.45519770195651 10.599326631598473 M-65.45519770195651 10.599326631598473 C-65.64379633706733 10.346621642239086, -65.83239497217815 10.093916652879699, -66.10699082814824 9.72598322207689 M-65.45519770195651 10.599326631598473 C-65.70889297952185 10.259398071776156, -65.96258825708719 9.91946951195384, -66.10699082814824 9.72598322207689 M-66.10699082814824 9.72598322207689 C-66.3125749801063 9.410150757594796, -66.51815913206435 9.094318293112703, -66.70148947109088 8.812673661278936 M-66.10699082814824 9.72598322207689 C-66.26886138844108 9.477306573135518, -66.43073194873391 9.228629924194147, -66.70148947109088 8.812673661278936 M-66.70148947109088 8.812673661278936 C-66.86483085348209 8.522644496734832, -67.0281722358733 8.232615332190731, -67.236250708341 7.863150934094201 M-66.70148947109088 8.812673661278936 C-66.82841766881471 8.587299793346546, -66.95534586653854 8.361925925414157, -67.236250708341 7.863150934094201 M-67.236250708341 7.863150934094201 C-67.39884311265548 7.525524327615029, -67.56143551696998 7.187897721135857, -67.70907709126881 6.881316833080701 M-67.236250708341 7.863150934094201 C-67.34299820912727 7.641487464680885, -67.44974570991354 7.419823995267569, -67.70907709126881 6.881316833080701 M-67.70907709126881 6.881316833080701 C-67.82403269300572 6.597374274275155, -67.93898829474264 6.3134317154696085, -68.11802567484592 5.87120592516224 M-67.70907709126881 6.881316833080701 C-67.8189908461144 6.609827733574205, -67.92890460096 6.338338634067708, -68.11802567484592 5.87120592516224 M-68.11802567484592 5.87120592516224 C-68.24469121618887 5.489709496050637, -68.3713567575318 5.108213066939035, -68.46141600162323 4.8369689727275516 M-68.11802567484592 5.87120592516224 C-68.24791020945901 5.480014401197908, -68.37779474407208 5.088822877233577, -68.46141600162323 4.8369689727275516 M-68.46141600162323 4.8369689727275516 C-68.53197217504984 4.567907704212888, -68.60252834847645 4.2988464356982234, -68.737837007091 3.782855877257349 M-68.46141600162323 4.8369689727275516 C-68.53668978513495 4.549917412333249, -68.61196356864666 4.262865851938947, -68.737837007091 3.782855877257349 M-68.737837007091 3.782855877257349 C-68.7998136969424 3.4646186736485003, -68.86179038679379 3.1463814700396515, -68.94615281804565 2.713198215567455 M-68.737837007091 3.782855877257349 C-68.78102452704033 3.561097090003105, -68.82421204698966 3.3393383027488617, -68.94615281804565 2.713198215567455 M-68.94615281804565 2.713198215567455 C-68.97531074956959 2.487055056552595, -69.00446868109353 2.260911897537735, -69.08550742013637 1.6323914404306026 M-68.94615281804565 2.713198215567455 C-68.98659129171769 2.399565399246906, -69.02702976538974 2.085932582926357, -69.08550742013637 1.6323914404306026 M-69.08550742013637 1.6323914404306026 C-69.1015860465757 1.3819538552042727, -69.11766467301504 1.131516269977943, -69.1553281754117 0.54487681871814 M-69.08550742013637 1.6323914404306026 C-69.10565817212063 1.318527212881573, -69.12580892410489 1.0046629853325435, -69.1553281754117 0.54487681871814 M-69.1553281754117 0.54487681871814 C-69.1553281754117 0.23376115083702853, -69.1553281754117 -0.07735451704408292, -69.1553281754117 -0.5448768187181317 M-69.1553281754117 0.54487681871814 C-69.1553281754117 0.18349875961992607, -69.1553281754117 -0.17787929947828784, -69.1553281754117 -0.5448768187181317 M-69.1553281754117 -0.5448768187181317 C-69.13394194746925 -0.8779845815741641, -69.11255571952681 -1.2110923444301966, -69.08550742013637 -1.6323914404305793 M-69.1553281754117 -0.5448768187181317 C-69.12938779663072 -0.9489191569287387, -69.10344741784974 -1.3529614951393458, -69.08550742013637 -1.6323914404305793 M-69.08550742013637 -1.6323914404305793 C-69.0323778417258 -2.044453958960978, -68.97924826331524 -2.4565164774913764, -68.94615281804565 -2.713198215567447 M-69.08550742013637 -1.6323914404305793 C-69.04151966152544 -1.973551809851503, -68.99753190291452 -2.314712179272427, -68.94615281804565 -2.713198215567447 M-68.94615281804565 -2.713198215567447 C-68.87466384343496 -3.080278990993174, -68.80317486882429 -3.4473597664189013, -68.737837007091 -3.782855877257341 M-68.94615281804565 -2.713198215567447 C-68.87607938524036 -3.0730104829973297, -68.80600595243507 -3.4328227504272126, -68.737837007091 -3.782855877257341 M-68.737837007091 -3.782855877257341 C-68.63929334650884 -4.158645564149825, -68.54074968592666 -4.534435251042307, -68.46141600162323 -4.836968972727544 M-68.737837007091 -3.782855877257341 C-68.62741004622715 -4.2039617383787595, -68.51698308536332 -4.625067599500178, -68.46141600162323 -4.836968972727544 M-68.46141600162323 -4.836968972727544 C-68.38171835367578 -5.077005590249519, -68.30202070572832 -5.317042207771495, -68.11802567484594 -5.871205925162218 M-68.46141600162323 -4.836968972727544 C-68.38182408488166 -5.076687144703383, -68.3022321681401 -5.316405316679222, -68.11802567484594 -5.871205925162218 M-68.11802567484594 -5.871205925162218 C-67.99514081642901 -6.1747339012691365, -67.87225595801208 -6.478261877376056, -67.70907709126881 -6.881316833080692 M-68.11802567484594 -5.871205925162218 C-67.9914928456773 -6.183744459554564, -67.86496001650868 -6.4962829939469104, -67.70907709126881 -6.881316833080692 M-67.70907709126881 -6.881316833080692 C-67.5375665169924 -7.237462210304064, -67.366055942716 -7.593607587527435, -67.236250708341 -7.863150934094194 M-67.70907709126881 -6.881316833080692 C-67.59225022469973 -7.123910321205891, -67.47542335813066 -7.36650380933109, -67.236250708341 -7.863150934094194 M-67.236250708341 -7.863150934094194 C-67.0800003511036 -8.140589265433551, -66.92374999386621 -8.418027596772909, -66.70148947109088 -8.812673661278929 M-67.236250708341 -7.863150934094194 C-67.11760755531594 -8.073813866212179, -66.99896440229088 -8.284476798330163, -66.70148947109088 -8.812673661278929 M-66.70148947109088 -8.812673661278929 C-66.56569827298281 -9.02128540661521, -66.42990707487473 -9.229897151951493, -66.10699082814826 -9.725983222076884 M-66.70148947109088 -8.812673661278929 C-66.56153148891622 -9.027686705879674, -66.42157350674157 -9.242699750480417, -66.10699082814826 -9.725983222076884 M-66.10699082814826 -9.725983222076884 C-65.89968809752074 -10.003749995450475, -65.69238536689323 -10.281516768824064, -65.45519770195651 -10.599326631598467 M-66.10699082814826 -9.725983222076884 C-65.95661603946708 -9.927471739484593, -65.80624125078589 -10.128960256892304, -65.45519770195651 -10.599326631598467 M-65.45519770195651 -10.599326631598467 C-65.2751748649105 -10.81079169958233, -65.09515202786449 -11.022256767566192, -64.74878845028037 -11.42911513444238 M-65.45519770195651 -10.599326631598467 C-65.19025932559565 -10.910538323892618, -64.92532094923479 -11.22175001618677, -64.74878845028037 -11.42911513444238 M-64.74878845028037 -11.42911513444238 C-64.49972484631209 -11.6862937540418, -64.25066124234382 -11.943472373641221, -63.99066586025928 -12.21193895166136 M-64.74878845028037 -11.42911513444238 C-64.46370156628602 -11.723490748235012, -64.17861468229168 -12.017866362027643, -63.99066586025928 -12.21193895166136 M-63.99066586025928 -12.21193895166136 C-63.73421494983234 -12.444840883191835, -63.477764039405415 -12.67774281472231, -63.18394522023242 -12.944581292275274 M-63.99066586025928 -12.21193895166136 C-63.67589862485697 -12.497802226569062, -63.36113138945466 -12.783665501476765, -63.18394522023242 -12.944581292275274 M-63.18394522023242 -12.944581292275274 C-62.84908759489866 -13.2116213375433, -62.5142299695649 -13.478661382811323, -62.331941518350675 -13.624031571755259 M-63.18394522023242 -12.944581292275274 C-62.99007465795031 -13.099187906582923, -62.7962040956682 -13.253794520890574, -62.331941518350675 -13.624031571755259 M-62.331941518350675 -13.624031571755259 C-62.036140060429986 -13.830369863762002, -61.74033860250929 -14.036708155768745, -61.43815582057934 -14.247497783161284 M-62.331941518350675 -13.624031571755259 C-62.131720858177 -13.763696836879733, -61.93150019800332 -13.903362102004207, -61.43815582057934 -14.247497783161284 M-61.43815582057934 -14.247497783161284 C-61.16415453243799 -14.41359897424287, -60.89015324429665 -14.579700165324454, -60.50626088406695 -14.812417970097618 M-61.43815582057934 -14.247497783161284 C-61.10495983318224 -14.44948314879837, -60.771763845785145 -14.651468514435457, -60.50626088406695 -14.812417970097618 M-60.50626088406695 -14.812417970097618 C-60.290879452910666 -14.92478232477346, -60.07549802175438 -15.037146679449304, -59.54008606499849 -15.316470754341124 M-60.50626088406695 -14.812417970097618 C-60.15827516652315 -14.993961896044729, -59.81028944897935 -15.175505821991838, -59.54008606499849 -15.316470754341124 M-59.54008606499849 -15.316470754341124 C-59.161620374069145 -15.484006288929711, -58.783154683139806 -15.651541823518297, -58.54360158294937 -15.757584874882365 M-59.54008606499849 -15.316470754341124 C-59.155957230790186 -15.48651319446813, -58.77182839658189 -15.656555634595135, -58.54360158294937 -15.757584874882365 M-58.54360158294937 -15.757584874882365 C-58.23435416586115 -15.871390783022619, -57.925106748772926 -15.985196691162871, -57.520902206401566 -16.133947699181363 M-58.54360158294937 -15.757584874882365 C-58.32562193314371 -15.837803400992643, -58.107642283338045 -15.918021927102922, -57.520902206401566 -16.133947699181363 M-57.520902206401566 -16.133947699181363 C-57.275575689745814 -16.206759321579625, -57.03024917309006 -16.279570943977888, -56.47619042646164 -16.444012671663494 M-57.520902206401566 -16.133947699181363 C-57.300336148012875 -16.19941054753626, -57.07977008962419 -16.264873395891154, -56.47619042646164 -16.444012671663494 M-56.47619042646164 -16.444012671663494 C-56.199533152614634 -16.50715788906164, -55.92287587876763 -16.57030310645979, -55.41375918792333 -16.68650566884811 M-56.47619042646164 -16.444012671663494 C-56.20478608011709 -16.505958942637765, -55.93338173377253 -16.567905213612033, -55.41375918792333 -16.68650566884811 M-55.41375918792333 -16.68650566884811 C-55.14767471234545 -16.729524143343614, -54.881590236767565 -16.77254261783912, -54.33797424863661 -16.86043023499518 M-55.41375918792333 -16.68650566884811 C-55.16414445928883 -16.726861442382607, -54.91452973065432 -16.7672172159171, -54.33797424863661 -16.86043023499518 M-54.33797424863661 -16.86043023499518 C-53.99450641231213 -16.893564164084896, -53.65103857598764 -16.92669809317461, -53.25325623967212 -16.965071676755716 M-54.33797424863661 -16.86043023499518 C-54.01581689784383 -16.891508367175263, -53.693659547051034 -16.92258649935534, -53.25325623967212 -16.965071676755716 M-53.25325623967212 -16.965071676755716 C-52.97536302560846 -16.97398317124441, -52.6974698115448 -16.982894665733106, -52.16406250000001 -17 M-53.25325623967212 -16.965071676755716 C-53.01682621175537 -16.972653527567875, -52.78039618383863 -16.980235378380033, -52.16406250000001 -17 M-52.16406250000001 -17 C-52.16406250000001 -17, -52.16406250000001 -17, -52.1640625 -17 M-52.16406250000001 -17 C-52.16406250000001 -17, -52.1640625 -17, -52.1640625 -17" stroke="#555555" stroke-width="1.3" fill="none" stroke-dasharray="0 0" style=""></path></g><g class="label" style="" transform="translate(0, -9.5)"><rect></rect><g><rect class="background" style="stroke: none"></rect><text y="-10.1" style=""><tspan class="text-outer-tspan row" x="0" y="-0.1em" dy="1.1em"><tspan font-style="normal" class="text-inner-tspan" font-weight="normal">New</tspan><tspan font-style="normal" class="text-inner-tspan" font-weight="normal"> API</tspan><tspan font-style="normal" class="text-inner-tspan" font-weight="normal"> surface</tspan></tspan></text></g></g></g><g class="node default" id="g40df4b71-9888-458d-8c9a-098de0068664-dark-flowchart-Q1-2" data-look="classic" transform="translate(396.0648498535156, 185.85468292236328)"><polygon points="93.85468673706055,0 187.7093734741211,-93.85468673706055 93.85468673706055,-187.7093734741211 0,-93.85468673706055" class="label-container" transform="translate(-93.35468673706055, 93.85468673706055)"></polygon><g class="label" style="" transform="translate(0, -18.299999237060547)"><rect></rect><g><rect class="background" style="stroke: none"></rect><text y="-10.1" style=""><tspan class="text-outer-tspan row" x="0" y="-0.1em" dy="1.1em"><tspan font-style="normal" class="text-inner-tspan" font-weight="normal">Browser</tspan><tspan font-style="normal" class="text-inner-tspan" font-weight="normal"> is</tspan><tspan font-style="normal" class="text-inner-tspan" font-weight="normal"> a</tspan></tspan><tspan class="text-outer-tspan row" x="0" y="1em" dy="1.1em"><tspan font-style="normal" class="text-inner-tspan" font-weight="normal">first-class</tspan><tspan font-style="normal" class="text-inner-tspan" font-weight="normal"> client?</tspan></tspan></text></g></g></g><g class="node default" id="g40df4b71-9888-458d-8c9a-098de0068664-dark-flowchart-Q2-4" data-look="classic" transform="translate(229.98125457763672, 459.89998626708984)"><polygon points="107.19062423706055,0 214.3812484741211,-107.19062423706055 107.19062423706055,-214.3812484741211 0,-107.19062423706055" class="label-container" transform="translate(-106.69062423706055, 107.19062423706055)"></polygon><g class="label" style="" transform="translate(0, -18.299999237060547)"><rect></rect><g><rect class="background" style="stroke: none"></rect><text y="-10.1" style=""><tspan class="text-outer-tspan row" x="0" y="-0.1em" dy="1.1em"><tspan font-style="normal" class="text-inner-tspan" font-weight="normal">Clients</tspan><tspan font-style="normal" class="text-inner-tspan" font-weight="normal"> fetch</tspan></tspan><tspan class="text-outer-tspan row" x="0" y="1em" dy="1.1em"><tspan font-style="normal" class="text-inner-tspan" font-weight="normal">varying</tspan><tspan font-style="normal" class="text-inner-tspan" font-weight="normal"> field</tspan><tspan font-style="normal" class="text-inner-tspan" font-weight="normal"> shapes?</tspan></tspan></text></g></g></g><g class="node default" id="g40df4b71-9888-458d-8c9a-098de0068664-dark-flowchart-Q3-6" data-look="classic" transform="translate(626.1617279052734, 743.5156097412109)"><polygon points="89.39374923706055,0 178.7874984741211,-89.39374923706055 89.39374923706055,-178.7874984741211 0,-89.39374923706055" class="label-container" transform="translate(-88.89374923706055, 89.39374923706055)"></polygon><g class="label" style="" transform="translate(0, -18.299999237060547)"><rect></rect><g><rect class="background" style="stroke: none"></rect><text y="-10.1" style=""><tspan class="text-outer-tspan row" x="0" y="-0.1em" dy="1.1em"><tspan font-style="normal" class="text-inner-tspan" font-weight="normal">Need</tspan><tspan font-style="normal" class="text-inner-tspan" font-weight="normal"> streaming</tspan></tspan><tspan class="text-outer-tspan row" x="0" y="1em" dy="1.1em"><tspan font-style="normal" class="text-inner-tspan" font-weight="normal">or</tspan><tspan font-style="normal" class="text-inner-tspan" font-weight="normal"> sub-ms</tspan><tspan font-style="normal" class="text-inner-tspan" font-weight="normal"> RPC?</tspan></tspan></text></g></g></g><g class="node default" id="g40df4b71-9888-458d-8c9a-098de0068664-dark-flowchart-GQL-8" data-look="classic" transform="translate(348.5375061035156, 743.5156097412109)"><rect class="basic label-container" style="" x="-83.6875" y="-42.099998474121094" width="167.375" height="84.19999694824219"></rect><g class="label" style="" transform="translate(0, -27.099998474121094)"><rect></rect><g><rect class="background" style="stroke: none"></rect><text y="-10.1" style=""><tspan class="text-outer-tspan row" x="0" y="-0.1em" dy="1.1em"><tspan font-style="normal" class="text-inner-tspan" font-weight="normal">Use</tspan><tspan font-style="normal" class="text-inner-tspan" font-weight="normal"> GraphQL</tspan></tspan><tspan class="text-outer-tspan row" x="0" y="1em" dy="1.1em"><tspan font-style="normal" class="text-inner-tspan" font-weight="normal">+</tspan><tspan font-style="normal" class="text-inner-tspan" font-weight="normal"> depth</tspan><tspan font-style="normal" class="text-inner-tspan" font-weight="normal"> limits</tspan></tspan><tspan class="text-outer-tspan row" x="0" y="2.1em" dy="1.1em"><tspan font-style="normal" class="text-inner-tspan" font-weight="normal">+</tspan><tspan font-style="normal" class="text-inner-tspan" font-weight="normal"> persisted</tspan><tspan font-style="normal" class="text-inner-tspan" font-weight="normal"> ops</tspan></tspan></text></g></g></g><g class="node default" id="g40df4b71-9888-458d-8c9a-098de0068664-dark-flowchart-Q4-10" data-look="classic" transform="translate(111.42500305175781, 743.5156097412109)"><polygon points="103.42499923706055,0 206.8499984741211,-103.42499923706055 103.42499923706055,-206.8499984741211 0,-103.42499923706055" class="label-container" transform="translate(-102.92499923706055, 103.42499923706055)"></polygon><g class="label" style="" transform="translate(0, -18.299999237060547)"><rect></rect><g><rect class="background" style="stroke: none"></rect><text y="-10.1" style=""><tspan class="text-outer-tspan row" x="0" y="-0.1em" dy="1.1em"><tspan font-style="normal" class="text-inner-tspan" font-weight="normal">Public</tspan><tspan font-style="normal" class="text-inner-tspan" font-weight="normal"> /</tspan><tspan font-style="normal" class="text-inner-tspan" font-weight="normal"> third-party</tspan></tspan><tspan class="text-outer-tspan row" x="0" y="1em" dy="1.1em"><tspan font-style="normal" class="text-inner-tspan" font-weight="normal">integrators?</tspan></tspan></text></g></g></g><g class="node default" id="g40df4b71-9888-458d-8c9a-098de0068664-dark-flowchart-REST-12" data-look="classic" transform="translate(220.7335968017578, 1270.0468673706055)"><rect class="basic label-container" style="" x="-115.59375" y="-42.099998474121094" width="231.1875" height="84.19999694824219"></rect><g class="label" style="" transform="translate(0, -27.099998474121094)"><rect></rect><g><rect class="background" style="stroke: none"></rect><text y="-10.1" style=""><tspan class="text-outer-tspan row" x="0" y="-0.1em" dy="1.1em"><tspan font-style="normal" class="text-inner-tspan" font-weight="normal">Use</tspan><tspan font-style="normal" class="text-inner-tspan" font-weight="normal"> REST</tspan></tspan><tspan class="text-outer-tspan row" x="0" y="1em" dy="1.1em"><tspan font-style="normal" class="text-inner-tspan" font-weight="normal">cacheable,</tspan><tspan font-style="normal" class="text-inner-tspan" font-weight="normal"> debuggable,</tspan></tspan><tspan class="text-outer-tspan row" x="0" y="2.1em" dy="1.1em"><tspan font-style="normal" class="text-inner-tspan" font-weight="normal">tooling-rich</tspan></tspan></text></g></g></g><g class="node default" id="g40df4b71-9888-458d-8c9a-098de0068664-dark-flowchart-Q5-14" data-look="classic" transform="translate(305.2843780517578, 1037.4437408447266)"><polygon points="117.50312423706055,0 235.0062484741211,-117.50312423706055 117.50312423706055,-235.0062484741211 0,-117.50312423706055" class="label-container" transform="translate(-117.00312423706055, 117.50312423706055)"></polygon><g class="label" style="" transform="translate(0, -18.299999237060547)"><rect></rect><g><rect class="background" style="stroke: none"></rect><text y="-10.1" style=""><tspan class="text-outer-tspan row" x="0" y="-0.1em" dy="1.1em"><tspan font-style="normal" class="text-inner-tspan" font-weight="normal">Server-to-server</tspan></tspan><tspan class="text-outer-tspan row" x="0" y="1em" dy="1.1em"><tspan font-style="normal" class="text-inner-tspan" font-weight="normal">but</tspan><tspan font-style="normal" class="text-inner-tspan" font-weight="normal"> browser-reachable?</tspan></tspan></text></g></g></g><g class="node default" id="g40df4b71-9888-458d-8c9a-098de0068664-dark-flowchart-gRPCWeb-16" data-look="classic" transform="translate(615.1968841552734, 1270.0468673706055)"><rect class="basic label-container" style="" x="-105.171875" y="-33.29999923706055" width="210.34375" height="66.5999984741211"></rect><g class="label" style="" transform="translate(0, -18.299999237060547)"><rect></rect><g><rect class="background" style="stroke: none"></rect><text y="-10.1" style=""><tspan class="text-outer-tspan row" x="0" y="-0.1em" dy="1.1em"><tspan font-style="normal" class="text-inner-tspan" font-weight="normal">Use</tspan><tspan font-style="normal" class="text-inner-tspan" font-weight="normal"> gRPC-Web</tspan></tspan><tspan class="text-outer-tspan row" x="0" y="1em" dy="1.1em"><tspan font-style="normal" class="text-inner-tspan" font-weight="normal">via</tspan><tspan font-style="normal" class="text-inner-tspan" font-weight="normal"> Envoy</tspan><tspan font-style="normal" class="text-inner-tspan" font-weight="normal"> or</tspan><tspan font-style="normal" class="text-inner-tspan" font-weight="normal"> Connect</tspan></tspan></text></g></g></g><g class="node default" id="g40df4b71-9888-458d-8c9a-098de0068664-dark-flowchart-gRPC-20" data-look="classic" transform="translate(883.8062591552734, 1270.0468673706055)"><rect class="basic label-container" style="" x="-96.7734375" y="-42.099998474121094" width="193.546875" height="84.19999694824219"></rect><g class="label" style="" transform="translate(0, -27.099998474121094)"><rect></rect><g><rect class="background" style="stroke: none"></rect><text y="-10.1" style=""><tspan class="text-outer-tspan row" x="0" y="-0.1em" dy="1.1em"><tspan font-style="normal" class="text-inner-tspan" font-weight="normal">Use</tspan><tspan font-style="normal" class="text-inner-tspan" font-weight="normal"> gRPC</tspan></tspan><tspan class="text-outer-tspan row" x="0" y="1em" dy="1.1em"><tspan font-style="normal" class="text-inner-tspan" font-weight="normal">HTTP/2,</tspan><tspan font-style="normal" class="text-inner-tspan" font-weight="normal"> protobuf,</tspan></tspan><tspan class="text-outer-tspan row" x="0" y="2.1em" dy="1.1em"><tspan font-style="normal" class="text-inner-tspan" font-weight="normal">code-gen</tspan></tspan></text></g></g></g><g class="node default" id="g40df4b71-9888-458d-8c9a-098de0068664-dark-flowchart-Q6-22" data-look="classic" transform="translate(570.4703216552734, 1037.4437408447266)"><polygon points="97.68281173706055,0 195.3656234741211,-97.68281173706055 97.68281173706055,-195.3656234741211 0,-97.68281173706055" class="label-container" transform="translate(-97.18281173706055, 97.68281173706055)"></polygon><g class="label" style="" transform="translate(0, -18.299999237060547)"><rect></rect><g><rect class="background" style="stroke: none"></rect><text y="-10.1" style=""><tspan class="text-outer-tspan row" x="0" y="-0.1em" dy="1.1em"><tspan font-style="normal" class="text-inner-tspan" font-weight="normal">Multilingual</tspan><tspan font-style="normal" class="text-inner-tspan" font-weight="normal"> fleet,</tspan></tspan><tspan class="text-outer-tspan row" x="0" y="1em" dy="1.1em"><tspan font-style="normal" class="text-inner-tspan" font-weight="normal">strict</tspan><tspan font-style="normal" class="text-inner-tspan" font-weight="normal"> contracts?</tspan></tspan></text></g></g></g></g></g></g><defs><filter id="g40df4b71-9888-458d-8c9a-098de0068664-dark-drop-shadow" height="130%" width="130%"><feDropShadow dx="4" dy="4" stdDeviation="0" flood-opacity="0.06" flood-color="#000000"></feDropShadow></filter></defs><defs><filter id="g40df4b71-9888-458d-8c9a-098de0068664-dark-drop-shadow-small" height="150%" width="150%"><feDropShadow dx="2" dy="2" stdDeviation="0" flood-opacity="0.06" flood-color="#000000"></feDropShadow></filter></defs><linearGradient id="g40df4b71-9888-458d-8c9a-098de0068664-dark-gradient" gradientUnits="objectBoundingBox" x1="0%" y1="0%" x2="100%" y2="0%"><stop offset="0%" stop-color="#555555" stop-opacity="1"></stop><stop offset="100%" stop-color="#555555" stop-opacity="1"></stop></linearGradient></svg>