<svg id="g2dd42e7e-1a07-46d4-ba90-dd1ddbce27a0-light" width="100%" xmlns="http://www.w3.org/2000/svg" xmlns:xlink="http://www.w3.org/1999/xlink" class="flowchart" style="max-width: 645.8468627929688px;" viewBox="0 0 645.8468627929688 1462.2218017578125" role="graphics-document document" aria-roledescription="flowchart-v2"><style>#g2dd42e7e-1a07-46d4-ba90-dd1ddbce27a0-light{font-family:"trebuchet ms",verdana,arial,sans-serif;font-size:16px;fill:#333;}@keyframes edge-animation-frame{from{stroke-dashoffset:0;}}@keyframes dash{to{stroke-dashoffset:0;}}#g2dd42e7e-1a07-46d4-ba90-dd1ddbce27a0-light .edge-animation-slow{stroke-dasharray:9,5!important;stroke-dashoffset:900;animation:dash 50s linear infinite;stroke-linecap:round;}#g2dd42e7e-1a07-46d4-ba90-dd1ddbce27a0-light .edge-animation-fast{stroke-dasharray:9,5!important;stroke-dashoffset:900;animation:dash 20s linear infinite;stroke-linecap:round;}#g2dd42e7e-1a07-46d4-ba90-dd1ddbce27a0-light .error-icon{fill:#552222;}#g2dd42e7e-1a07-46d4-ba90-dd1ddbce27a0-light .error-text{fill:#552222;stroke:#552222;}#g2dd42e7e-1a07-46d4-ba90-dd1ddbce27a0-light .edge-thickness-normal{stroke-width:1px;}#g2dd42e7e-1a07-46d4-ba90-dd1ddbce27a0-light .edge-thickness-thick{stroke-width:3.5px;}#g2dd42e7e-1a07-46d4-ba90-dd1ddbce27a0-light .edge-pattern-solid{stroke-dasharray:0;}#g2dd42e7e-1a07-46d4-ba90-dd1ddbce27a0-light .edge-thickness-invisible{stroke-width:0;fill:none;}#g2dd42e7e-1a07-46d4-ba90-dd1ddbce27a0-light .edge-pattern-dashed{stroke-dasharray:3;}#g2dd42e7e-1a07-46d4-ba90-dd1ddbce27a0-light .edge-pattern-dotted{stroke-dasharray:2;}#g2dd42e7e-1a07-46d4-ba90-dd1ddbce27a0-light .marker{fill:#333333;stroke:#333333;}#g2dd42e7e-1a07-46d4-ba90-dd1ddbce27a0-light .marker.cross{stroke:#333333;}#g2dd42e7e-1a07-46d4-ba90-dd1ddbce27a0-light svg{font-family:"trebuchet ms",verdana,arial,sans-serif;font-size:16px;}#g2dd42e7e-1a07-46d4-ba90-dd1ddbce27a0-light p{margin:0;}#g2dd42e7e-1a07-46d4-ba90-dd1ddbce27a0-light .label{font-family:"trebuchet ms",verdana,arial,sans-serif;color:#333;}#g2dd42e7e-1a07-46d4-ba90-dd1ddbce27a0-light .cluster-label text{fill:#333;}#g2dd42e7e-1a07-46d4-ba90-dd1ddbce27a0-light .cluster-label span{color:#333;}#g2dd42e7e-1a07-46d4-ba90-dd1ddbce27a0-light .cluster-label span p{background-color:transparent;}#g2dd42e7e-1a07-46d4-ba90-dd1ddbce27a0-light .label text,#g2dd42e7e-1a07-46d4-ba90-dd1ddbce27a0-light span{fill:#333;color:#333;}#g2dd42e7e-1a07-46d4-ba90-dd1ddbce27a0-light .node rect,#g2dd42e7e-1a07-46d4-ba90-dd1ddbce27a0-light .node circle,#g2dd42e7e-1a07-46d4-ba90-dd1ddbce27a0-light .node ellipse,#g2dd42e7e-1a07-46d4-ba90-dd1ddbce27a0-light .node polygon,#g2dd42e7e-1a07-46d4-ba90-dd1ddbce27a0-light .node path{fill:#ECECFF;stroke:#9370DB;stroke-width:1px;}#g2dd42e7e-1a07-46d4-ba90-dd1ddbce27a0-light .rough-node .label text,#g2dd42e7e-1a07-46d4-ba90-dd1ddbce27a0-light .node .label text,#g2dd42e7e-1a07-46d4-ba90-dd1ddbce27a0-light .image-shape .label,#g2dd42e7e-1a07-46d4-ba90-dd1ddbce27a0-light .icon-shape .label{text-anchor:middle;}#g2dd42e7e-1a07-46d4-ba90-dd1ddbce27a0-light .node .katex path{fill:#000;stroke:#000;stroke-width:1px;}#g2dd42e7e-1a07-46d4-ba90-dd1ddbce27a0-light .rough-node .label,#g2dd42e7e-1a07-46d4-ba90-dd1ddbce27a0-light .node .label,#g2dd42e7e-1a07-46d4-ba90-dd1ddbce27a0-light .image-shape .label,#g2dd42e7e-1a07-46d4-ba90-dd1ddbce27a0-light .icon-shape .label{text-align:center;}#g2dd42e7e-1a07-46d4-ba90-dd1ddbce27a0-light .node.clickable{cursor:pointer;}#g2dd42e7e-1a07-46d4-ba90-dd1ddbce27a0-light .root .anchor path{fill:#333333!important;stroke-width:0;stroke:#333333;}#g2dd42e7e-1a07-46d4-ba90-dd1ddbce27a0-light .arrowheadPath{fill:#333333;}#g2dd42e7e-1a07-46d4-ba90-dd1ddbce27a0-light .edgePath .path{stroke:#333333;stroke-width:1px;}#g2dd42e7e-1a07-46d4-ba90-dd1ddbce27a0-light .flowchart-link{stroke:#333333;fill:none;}#g2dd42e7e-1a07-46d4-ba90-dd1ddbce27a0-light .edgeLabel{background-color:rgba(232,232,232, 0.8);text-align:center;}#g2dd42e7e-1a07-46d4-ba90-dd1ddbce27a0-light .edgeLabel p{background-color:rgba(232,232,232, 0.8);}#g2dd42e7e-1a07-46d4-ba90-dd1ddbce27a0-light .edgeLabel rect{opacity:0.5;background-color:rgba(232,232,232, 0.8);fill:rgba(232,232,232, 0.8);}#g2dd42e7e-1a07-46d4-ba90-dd1ddbce27a0-light .labelBkg{background-color:rgba(232, 232, 232, 0.5);}#g2dd42e7e-1a07-46d4-ba90-dd1ddbce27a0-light .cluster rect{fill:#ffffde;stroke:#aaaa33;stroke-width:1px;}#g2dd42e7e-1a07-46d4-ba90-dd1ddbce27a0-light .cluster text{fill:#333;}#g2dd42e7e-1a07-46d4-ba90-dd1ddbce27a0-light .cluster span{color:#333;}#g2dd42e7e-1a07-46d4-ba90-dd1ddbce27a0-light div.mermaidTooltip{position:absolute;text-align:center;max-width:200px;padding:2px;font-family:"trebuchet ms",verdana,arial,sans-serif;font-size:12px;background:hsl(80, 100%, 96.2745098039%);border:1px solid #aaaa33;border-radius:2px;pointer-events:none;z-index:100;}#g2dd42e7e-1a07-46d4-ba90-dd1ddbce27a0-light .flowchartTitleText{text-anchor:middle;font-size:18px;fill:#333;}#g2dd42e7e-1a07-46d4-ba90-dd1ddbce27a0-light rect.text{fill:none;stroke-width:0;}#g2dd42e7e-1a07-46d4-ba90-dd1ddbce27a0-light .icon-shape,#g2dd42e7e-1a07-46d4-ba90-dd1ddbce27a0-light .image-shape{background-color:rgba(232,232,232, 0.8);text-align:center;}#g2dd42e7e-1a07-46d4-ba90-dd1ddbce27a0-light .icon-shape p,#g2dd42e7e-1a07-46d4-ba90-dd1ddbce27a0-light .image-shape p{background-color:rgba(232,232,232, 0.8);padding:2px;}#g2dd42e7e-1a07-46d4-ba90-dd1ddbce27a0-light .icon-shape .label rect,#g2dd42e7e-1a07-46d4-ba90-dd1ddbce27a0-light .image-shape .label rect{opacity:0.5;background-color:rgba(232,232,232, 0.8);fill:rgba(232,232,232, 0.8);}#g2dd42e7e-1a07-46d4-ba90-dd1ddbce27a0-light .label-icon{display:inline-block;height:1em;overflow:visible;vertical-align:-0.125em;}#g2dd42e7e-1a07-46d4-ba90-dd1ddbce27a0-light .node .label-icon path{fill:currentColor;stroke:revert;stroke-width:revert;}#g2dd42e7e-1a07-46d4-ba90-dd1ddbce27a0-light .node .neo-node{stroke:#9370DB;}#g2dd42e7e-1a07-46d4-ba90-dd1ddbce27a0-light [data-look="neo"].node rect,#g2dd42e7e-1a07-46d4-ba90-dd1ddbce27a0-light [data-look="neo"].cluster rect,#g2dd42e7e-1a07-46d4-ba90-dd1ddbce27a0-light [data-look="neo"].node polygon{stroke:#9370DB;filter:drop-shadow(1px 2px 2px rgba(185, 185, 185, 1));}#g2dd42e7e-1a07-46d4-ba90-dd1ddbce27a0-light [data-look="neo"].node path{stroke:#9370DB;stroke-width:1px;}#g2dd42e7e-1a07-46d4-ba90-dd1ddbce27a0-light [data-look="neo"].node .outer-path{filter:drop-shadow(1px 2px 2px rgba(185, 185, 185, 1));}#g2dd42e7e-1a07-46d4-ba90-dd1ddbce27a0-light [data-look="neo"].node .neo-line path{stroke:#9370DB;filter:none;}#g2dd42e7e-1a07-46d4-ba90-dd1ddbce27a0-light [data-look="neo"].node circle{stroke:#9370DB;filter:drop-shadow(1px 2px 2px rgba(185, 185, 185, 1));}#g2dd42e7e-1a07-46d4-ba90-dd1ddbce27a0-light [data-look="neo"].node circle .state-start{fill:#000000;}#g2dd42e7e-1a07-46d4-ba90-dd1ddbce27a0-light [data-look="neo"].icon-shape .icon{fill:#9370DB;filter:drop-shadow(1px 2px 2px rgba(185, 185, 185, 1));}#g2dd42e7e-1a07-46d4-ba90-dd1ddbce27a0-light [data-look="neo"].icon-shape .icon-neo path{stroke:#9370DB;filter:drop-shadow(1px 2px 2px rgba(185, 185, 185, 1));}#g2dd42e7e-1a07-46d4-ba90-dd1ddbce27a0-light :root{--mermaid-font-family:"trebuchet ms",verdana,arial,sans-serif;}</style><g><marker id="g2dd42e7e-1a07-46d4-ba90-dd1ddbce27a0-light_flowchart-v2-pointEnd" class="marker flowchart-v2" viewBox="0 0 10 10" refX="5" refY="5" markerUnits="userSpaceOnUse" markerWidth="8" markerHeight="8" orient="auto"><path d="M 0 0 L 10 5 L 0 10 z" class="arrowMarkerPath" style="stroke-width: 1; stroke-dasharray: 1, 0;"></path></marker><marker id="g2dd42e7e-1a07-46d4-ba90-dd1ddbce27a0-light_flowchart-v2-pointStart" class="marker flowchart-v2" viewBox="0 0 10 10" refX="4.5" refY="5" markerUnits="userSpaceOnUse" markerWidth="8" markerHeight="8" orient="auto"><path d="M 0 5 L 10 10 L 10 0 z" class="arrowMarkerPath" style="stroke-width: 1; stroke-dasharray: 1, 0;"></path></marker><marker id="g2dd42e7e-1a07-46d4-ba90-dd1ddbce27a0-light_flowchart-v2-pointEnd-margin" class="marker flowchart-v2" viewBox="0 0 11.5 14" refX="11.5" refY="7" markerUnits="userSpaceOnUse" markerWidth="10.5" markerHeight="14" orient="auto"><path d="M 0 0 L 11.5 7 L 0 14 z" class="arrowMarkerPath" style="stroke-width: 0; stroke-dasharray: 1, 0;"></path></marker><marker id="g2dd42e7e-1a07-46d4-ba90-dd1ddbce27a0-light_flowchart-v2-pointStart-margin" class="marker flowchart-v2" viewBox="0 0 11.5 14" refX="1" refY="7" markerUnits="userSpaceOnUse" markerWidth="11.5" markerHeight="14" orient="auto"><polygon points="0,7 11.5,14 11.5,0" class="arrowMarkerPath" style="stroke-width: 0; stroke-dasharray: 1, 0;"></polygon></marker><marker id="g2dd42e7e-1a07-46d4-ba90-dd1ddbce27a0-light_flowchart-v2-circleEnd" class="marker flowchart-v2" viewBox="0 0 10 10" refX="11" refY="5" markerUnits="userSpaceOnUse" markerWidth="11" markerHeight="11" orient="auto"><circle cx="5" cy="5" r="5" class="arrowMarkerPath" style="stroke-width: 1; stroke-dasharray: 1, 0;"></circle></marker><marker id="g2dd42e7e-1a07-46d4-ba90-dd1ddbce27a0-light_flowchart-v2-circleStart" class="marker flowchart-v2" viewBox="0 0 10 10" refX="-1" refY="5" markerUnits="userSpaceOnUse" markerWidth="11" markerHeight="11" orient="auto"><circle cx="5" cy="5" r="5" class="arrowMarkerPath" style="stroke-width: 1; stroke-dasharray: 1, 0;"></circle></marker><marker id="g2dd42e7e-1a07-46d4-ba90-dd1ddbce27a0-light_flowchart-v2-circleEnd-margin" class="marker flowchart-v2" viewBox="0 0 10 10" refY="5" refX="12.25" markerUnits="userSpaceOnUse" markerWidth="14" markerHeight="14" orient="auto"><circle cx="5" cy="5" r="5" class="arrowMarkerPath" style="stroke-width: 0; stroke-dasharray: 1, 0;"></circle></marker><marker id="g2dd42e7e-1a07-46d4-ba90-dd1ddbce27a0-light_flowchart-v2-circleStart-margin" class="marker flowchart-v2" viewBox="0 0 10 10" refX="-2" refY="5" markerUnits="userSpaceOnUse" markerWidth="14" markerHeight="14" orient="auto"><circle cx="5" cy="5" r="5" class="arrowMarkerPath" style="stroke-width: 0; stroke-dasharray: 1, 0;"></circle></marker><marker id="g2dd42e7e-1a07-46d4-ba90-dd1ddbce27a0-light_flowchart-v2-crossEnd" class="marker cross flowchart-v2" viewBox="0 0 11 11" refX="12" refY="5.2" markerUnits="userSpaceOnUse" markerWidth="11" markerHeight="11" orient="auto"><path d="M 1,1 l 9,9 M 10,1 l -9,9" class="arrowMarkerPath" style="stroke-width: 2; stroke-dasharray: 1, 0;"></path></marker><marker id="g2dd42e7e-1a07-46d4-ba90-dd1ddbce27a0-light_flowchart-v2-crossStart" class="marker cross flowchart-v2" viewBox="0 0 11 11" refX="-1" refY="5.2" markerUnits="userSpaceOnUse" markerWidth="11" markerHeight="11" orient="auto"><path d="M 1,1 l 9,9 M 10,1 l -9,9" class="arrowMarkerPath" style="stroke-width: 2; stroke-dasharray: 1, 0;"></path></marker><marker id="g2dd42e7e-1a07-46d4-ba90-dd1ddbce27a0-light_flowchart-v2-crossEnd-margin" class="marker cross flowchart-v2" viewBox="0 0 15 15" refX="17.7" refY="7.5" markerUnits="userSpaceOnUse" markerWidth="12" markerHeight="12" orient="auto"><path d="M 1,1 L 14,14 M 1,14 L 14,1" class="arrowMarkerPath" style="stroke-width: 2.5;"></path></marker><marker id="g2dd42e7e-1a07-46d4-ba90-dd1ddbce27a0-light_flowchart-v2-crossStart-margin" class="marker cross flowchart-v2" viewBox="0 0 15 15" refX="-3.5" refY="7.5" markerUnits="userSpaceOnUse" markerWidth="12" markerHeight="12" orient="auto"><path d="M 1,1 L 14,14 M 1,14 L 14,1" class="arrowMarkerPath" style="stroke-width: 2.5; stroke-dasharray: 1, 0;"></path></marker><g class="root"><g class="clusters"></g><g class="edgePaths"><path d="M405.888,57L405.888,61.167C405.888,65.333,405.888,73.667,405.888,81.333C405.888,89,405.888,96,405.888,99.5L405.888,103" id="g2dd42e7e-1a07-46d4-ba90-dd1ddbce27a0-light-L_App_BC_0" class="edge-thickness-normal edge-pattern-solid edge-thickness-normal edge-pattern-solid flowchart-link" style=";" data-edge="true" data-et="edge" data-id="L_App_BC_0" data-points="W3sieCI6NDA1Ljg4ODI4Mjc3NTg3ODksInkiOjU3fSx7IngiOjQwNS44ODgyODI3NzU4Nzg5LCJ5Ijo4Mn0seyJ4Ijo0MDUuODg4MjgyNzc1ODc4OSwieSI6MTA2Ljk5OTk5OTk5OTk5OTk5fV0=" data-look="classic" marker-end="url(#g2dd42e7e-1a07-46d4-ba90-dd1ddbce27a0-light_flowchart-v2-pointEnd)"></path><path d="M377.173,257.807L372.061,268.676C366.948,279.545,356.723,301.284,351.61,317.569C346.498,333.855,346.498,344.689,346.498,350.105L346.498,355.522" id="g2dd42e7e-1a07-46d4-ba90-dd1ddbce27a0-light-L_BC_Sys_0" class="edge-thickness-normal edge-pattern-solid edge-thickness-normal edge-pattern-solid flowchart-link" style=";" data-edge="true" data-et="edge" data-id="L_BC_Sys_0" data-points="W3sieCI6Mzc3LjE3MzQyNTk0MTM4MDYzLCJ5IjoyNTcuODA3MDA5MDEwMjI4M30seyJ4IjozNDYuNDk3NjU3Nzc1ODc4OSwieSI6MzIzLjAyMTg2NTg0NDcyNjU2fSx7IngiOjM0Ni40OTc2NTc3NzU4Nzg5LCJ5IjozNTkuNTIxODY1ODQ0NzI2NTZ9XQ==" data-look="classic" marker-end="url(#g2dd42e7e-1a07-46d4-ba90-dd1ddbce27a0-light_flowchart-v2-pointEnd)"></path><path d="M346.498,426.122L346.498,430.289C346.498,434.455,346.498,442.789,346.498,450.455C346.498,458.122,346.498,465.122,346.498,468.622L346.498,472.122" id="g2dd42e7e-1a07-46d4-ba90-dd1ddbce27a0-light-L_Sys_Hosts_0" class="edge-thickness-normal edge-pattern-solid edge-thickness-normal edge-pattern-solid flowchart-link" style=";" data-edge="true" data-et="edge" data-id="L_Sys_Hosts_0" data-points="W3sieCI6MzQ2LjQ5NzY1Nzc3NTg3ODksInkiOjQyNi4xMjE4NjQzMTg4NDc2Nn0seyJ4IjozNDYuNDk3NjU3Nzc1ODc4OSwieSI6NDUxLjEyMTg2NDMxODg0NzY2fSx7IngiOjM0Ni40OTc2NTc3NzU4Nzg4NSwieSI6NDc2LjEyMTg2NDMxODg0NzZ9XQ==" data-look="classic" marker-end="url(#g2dd42e7e-1a07-46d4-ba90-dd1ddbce27a0-light_flowchart-v2-pointEnd)"></path><path d="M317.182,592L309.752,602.969C302.322,613.939,287.463,635.877,280.033,652.263C272.603,668.649,272.603,679.482,272.603,684.899L272.603,690.316" id="g2dd42e7e-1a07-46d4-ba90-dd1ddbce27a0-light-L_Hosts_mDNS_0" class="edge-thickness-normal edge-pattern-solid edge-thickness-normal edge-pattern-solid flowchart-link" style=";" data-edge="true" data-et="edge" data-id="L_Hosts_mDNS_0" data-points="W3sieCI6MzE3LjE4MjAwNjg3MDA5MzM1LCJ5Ijo1OTEuOTk5OTY5NTE2NTc3N30seyJ4IjoyNzIuNjAzMTI2NTI1ODc4OSwieSI6NjU3LjgxNTYyMDQyMjM2MzN9LHsieCI6MjcyLjYwMzEyNjUyNTg3ODksInkiOjY5NC4zMTU2MjA0MjIzNjMyfV0=" data-look="classic" marker-end="url(#g2dd42e7e-1a07-46d4-ba90-dd1ddbce27a0-light_flowchart-v2-pointEnd)"></path><path d="M234.297,799.453L220.005,811.921C205.712,824.389,177.128,849.324,162.835,867.208C148.543,885.093,148.543,895.926,148.543,901.343L148.543,906.759" id="g2dd42e7e-1a07-46d4-ba90-dd1ddbce27a0-light-L_mDNS_OSCache_0" class="edge-thickness-normal edge-pattern-solid edge-thickness-normal edge-pattern-solid flowchart-link" style=";" data-edge="true" data-et="edge" data-id="L_mDNS_OSCache_0" data-points="W3sieCI6MjM0LjI5Njk5MjI1NjI2NzQ2LCJ5Ijo3OTkuNDUzMjI2OTk3NDc4NH0seyJ4IjoxNDguNTQyOTY4NzUsInkiOjg3NC4yNTkzNjEyNjcwODk4fSx7IngiOjE0OC41NDI5Njg3NDk5OTk5NywieSI6OTEwLjc1OTM2MTI2NzA4OTh9XQ==" data-look="classic" marker-end="url(#g2dd42e7e-1a07-46d4-ba90-dd1ddbce27a0-light_flowchart-v2-pointEnd)"></path><path d="M134.201,1067.08L132.489,1075.554C130.777,1084.027,127.354,1100.975,125.642,1114.865C123.93,1128.755,123.93,1139.589,123.93,1145.005L123.93,1150.422" id="g2dd42e7e-1a07-46d4-ba90-dd1ddbce27a0-light-L_OSCache_Stub_0" class="edge-thickness-normal edge-pattern-solid edge-thickness-normal edge-pattern-solid flowchart-link" style=";" data-edge="true" data-et="edge" data-id="L_OSCache_Stub_0" data-points="W3sieCI6MTM0LjIwMTE0MjA1OTE1MTQ0LCJ5IjoxMDY3LjA4MDA0MDY3OTc1Njh9LHsieCI6MTIzLjkyOTY4NzUsInkiOjExMTcuOTIxODY3MzcwNjA1NX0seyJ4IjoxMjMuOTI5Njg3NSwieSI6MTE1NC40MjE4NjczNzA2MDU1fV0=" data-look="classic" marker-end="url(#g2dd42e7e-1a07-46d4-ba90-dd1ddbce27a0-light_flowchart-v2-pointEnd)"></path><path d="M123.93,1221.022L123.93,1225.189C123.93,1229.355,123.93,1237.689,123.93,1245.355C123.93,1253.022,123.93,1260.022,123.93,1263.522L123.93,1267.022" id="g2dd42e7e-1a07-46d4-ba90-dd1ddbce27a0-light-L_Stub_Recursive_0" class="edge-thickness-normal edge-pattern-solid edge-thickness-normal edge-pattern-solid flowchart-link" style=";" data-edge="true" data-et="edge" data-id="L_Stub_Recursive_0" data-points="W3sieCI6MTIzLjkyOTY4NzUsInkiOjEyMjEuMDIxODY1ODQ0NzI2Nn0seyJ4IjoxMjMuOTI5Njg3NSwieSI6MTI0Ni4wMjE4NjU4NDQ3MjY2fSx7IngiOjEyMy45Mjk2ODc1LCJ5IjoxMjcxLjAyMTg2NTg0NDcyNjZ9XQ==" data-look="classic" marker-end="url(#g2dd42e7e-1a07-46d4-ba90-dd1ddbce27a0-light_flowchart-v2-pointEnd)"></path><path d="M123.93,1337.622L123.93,1341.789C123.93,1345.955,123.93,1354.289,123.93,1361.955C123.93,1369.622,123.93,1376.622,123.93,1380.122L123.93,1383.622" id="g2dd42e7e-1a07-46d4-ba90-dd1ddbce27a0-light-L_Recursive_Iter_0" class="edge-thickness-normal edge-pattern-solid edge-thickness-normal edge-pattern-solid flowchart-link" style=";" data-edge="true" data-et="edge" data-id="L_Recursive_Iter_0" data-points="W3sieCI6MTIzLjkyOTY4NzUsInkiOjEzMzcuNjIxODY0MzE4ODQ3N30seyJ4IjoxMjMuOTI5Njg3NSwieSI6MTM2Mi42MjE4NjQzMTg4NDc3fSx7IngiOjEyMy45Mjk2ODc1LCJ5IjoxMzg3LjYyMTg2NDMxODg0Nzd9XQ==" data-look="classic" marker-end="url(#g2dd42e7e-1a07-46d4-ba90-dd1ddbce27a0-light_flowchart-v2-pointEnd)"></path><path d="M462.931,229.479L490.112,245.07C517.294,260.66,571.656,291.841,598.837,319.065C626.019,346.289,626.019,369.555,626.019,390.905C626.019,412.255,626.019,431.689,626.019,457.671C626.019,483.654,626.019,516.186,626.019,550.635C626.019,585.084,626.019,621.45,626.019,657.67C626.019,693.89,626.019,729.964,626.019,766.037C626.019,802.111,626.019,838.185,626.019,876.528C626.019,914.87,626.019,955.48,626.019,996.091C626.019,1036.701,626.019,1077.311,620.2,1104.523C614.381,1131.736,602.744,1145.549,596.925,1152.456L591.106,1159.363" id="g2dd42e7e-1a07-46d4-ba90-dd1ddbce27a0-light-L_BC_Done_0" class="edge-thickness-normal edge-pattern-solid edge-thickness-normal edge-pattern-solid flowchart-link" style=";" data-edge="true" data-et="edge" data-id="L_BC_Done_0" data-points="W3sieCI6NDYyLjkzMTAyNzQ2OTIwODMsInkiOjIyOS40NzkxMjExNTEzOTcxNX0seyJ4Ijo2MjYuMDE4NzUzMDUxNzU3OCwieSI6MzIzLjAyMTg2NTg0NDcyNjU2fSx7IngiOjYyNi4wMTg3NTMwNTE3NTc4LCJ5IjozOTIuODIxODY1MDgxNzg3MX0seyJ4Ijo2MjYuMDE4NzUzMDUxNzU3OCwieSI6NDUxLjEyMTg2NDMxODg0NzY2fSx7IngiOjYyNi4wMTg3NTMwNTE3NTc4LCJ5Ijo1NDguNzE4NzQyMzcwNjA1NX0seyJ4Ijo2MjYuMDE4NzUzMDUxNzU3OCwieSI6NjU3LjgxNTYyMDQyMjM2MzN9LHsieCI6NjI2LjAxODc1MzA1MTc1NzgsInkiOjc2Ni4wMzc0OTA4NDQ3MjY2fSx7IngiOjYyNi4wMTg3NTMwNTE3NTc4LCJ5Ijo4NzQuMjU5MzYxMjY3MDg5OH0seyJ4Ijo2MjYuMDE4NzUzMDUxNzU3OCwieSI6OTk2LjA5MDYxNDMxODg0Nzd9LHsieCI6NjI2LjAxODc1MzA1MTc1NzgsInkiOjExMTcuOTIxODY3MzcwNjA1NX0seyJ4Ijo1ODguNTI4OTYwMzcyOTA0NCwieSI6MTE2Mi40MjE4NjczNzA2MDU1fV0=" data-look="classic" marker-end="url(#g2dd42e7e-1a07-46d4-ba90-dd1ddbce27a0-light_flowchart-v2-pointEnd)"></path><path d="M393.301,574.513L418.492,588.397C443.684,602.28,494.068,630.048,519.26,661.969C544.452,693.89,544.452,729.964,544.452,766.037C544.452,802.111,544.452,838.185,544.452,876.528C544.452,914.87,544.452,955.48,544.452,996.091C544.452,1036.701,544.452,1077.311,546.574,1104.397C548.697,1131.483,552.941,1145.044,555.063,1151.824L557.185,1158.604" id="g2dd42e7e-1a07-46d4-ba90-dd1ddbce27a0-light-L_Hosts_Done_0" class="edge-thickness-normal edge-pattern-solid edge-thickness-normal edge-pattern-solid flowchart-link" style=";" data-edge="true" data-et="edge" data-id="L_Hosts_Done_0" data-points="W3sieCI6MzkzLjMwMDUyMDc0Njk0Mzg1LCJ5Ijo1NzQuNTEyNzU3NDUxMjk4NH0seyJ4Ijo1NDQuNDUyMzQ2ODAxNzU3OCwieSI6NjU3LjgxNTYyMDQyMjM2MzN9LHsieCI6NTQ0LjQ1MjM0NjgwMTc1NzgsInkiOjc2Ni4wMzc0OTA4NDQ3MjY2fSx7IngiOjU0NC40NTIzNDY4MDE3NTc4LCJ5Ijo4NzQuMjU5MzYxMjY3MDg5OH0seyJ4Ijo1NDQuNDUyMzQ2ODAxNzU3OCwieSI6OTk2LjA5MDYxNDMxODg0Nzd9LHsieCI6NTQ0LjQ1MjM0NjgwMTc1NzgsInkiOjExMTcuOTIxODY3MzcwNjA1NX0seyJ4Ijo1NTguMzc5NzczNTI0NDU0OCwieSI6MTE2Mi40MjE4NjczNzA2MDU1fV0=" data-look="classic" marker-end="url(#g2dd42e7e-1a07-46d4-ba90-dd1ddbce27a0-light_flowchart-v2-pointEnd)"></path><path d="M199.662,1030.302L221.483,1044.906C243.303,1059.509,286.943,1088.715,337.82,1112C388.697,1135.285,446.811,1152.648,475.868,1161.33L504.925,1170.012" id="g2dd42e7e-1a07-46d4-ba90-dd1ddbce27a0-light-L_OSCache_Done_0" class="edge-thickness-normal edge-pattern-solid edge-thickness-normal edge-pattern-solid flowchart-link" style=";" data-edge="true" data-et="edge" data-id="L_OSCache_Done_0" data-points="W3sieCI6MTk5LjY2MjM5MDQ5MjM4NDY1LCJ5IjoxMDMwLjMwMjQ0NTYyODIyMDh9LHsieCI6MzMwLjU4MzU5NTI3NTg3ODksInkiOjExMTcuOTIxODY3MzcwNjA1NX0seyJ4Ijo1MDguNzU3NTUwNjA4MTY4NSwieSI6MTE3MS4xNTY3NjgwMTk3NH1d" data-look="classic" marker-end="url(#g2dd42e7e-1a07-46d4-ba90-dd1ddbce27a0-light_flowchart-v2-pointEnd)"></path><path d="M310.909,799.453L325.202,811.921C339.494,824.389,368.079,849.324,382.371,875.88C396.663,902.436,396.663,930.614,396.663,944.702L396.663,958.791" id="g2dd42e7e-1a07-46d4-ba90-dd1ddbce27a0-light-L_mDNS_Multicast_0" class="edge-thickness-normal edge-pattern-solid edge-thickness-normal edge-pattern-solid flowchart-link" style=";" data-edge="true" data-et="edge" data-id="L_mDNS_Multicast_0" data-points="W3sieCI6MzEwLjkwOTI2MDc5NTQ5MDM1LCJ5Ijo3OTkuNDUzMjI2OTk3NDc4NX0seyJ4IjozOTYuNjYzMjg0MzAxNzU3OCwieSI6ODc0LjI1OTM2MTI2NzA4OTh9LHsieCI6Mzk2LjY2MzI4NDMwMTc1NzgsInkiOjk2Mi43OTA2MTUwODE3ODcxfV0=" data-look="classic" marker-end="url(#g2dd42e7e-1a07-46d4-ba90-dd1ddbce27a0-light_flowchart-v2-pointEnd)"></path></g><g class="edgeLabels"><g class="edgeLabel"><g class="label" data-id="L_App_BC_0" transform="translate(0, 0)"><text y="-10.1" text-anchor="middle"><tspan class="text-outer-tspan row" x="0" y="-0.1em" dy="1.1em" text-anchor="middle"></tspan></text></g></g><g><rect class="background" style="stroke: none"></rect></g><g class="edgeLabel" transform="translate(346.4976577758789, 323.02186584472656)"><g class="label" data-id="L_BC_Sys_0" transform="translate(0, -10.5)"><g><rect class="background" style="" x="-17.3984375" y="-1" width="34.796875" height="23"></rect><text y="-10.1" text-anchor="middle" style=""><tspan class="text-outer-tspan row" x="0" y="-0.1em" dy="1.1em" text-anchor="middle"><tspan font-style="normal" class="text-inner-tspan" font-weight="normal">miss</tspan></tspan></text></g></g></g><g class="edgeLabel"><g class="label" data-id="L_Sys_Hosts_0" transform="translate(0, 0)"><text y="-10.1" text-anchor="middle"><tspan class="text-outer-tspan row" x="0" y="-0.1em" dy="1.1em" text-anchor="middle"></tspan></text></g></g><g><rect class="background" style="stroke: none"></rect></g><g class="edgeLabel" transform="translate(272.6031265258789, 657.8156204223633)"><g class="label" data-id="L_Hosts_mDNS_0" transform="translate(0, -10.5)"><g><rect class="background" style="" x="-35.421875" y="-1" width="70.84375" height="23"></rect><text y="-10.1" text-anchor="middle" style=""><tspan class="text-outer-tspan row" x="0" y="-0.1em" dy="1.1em" text-anchor="middle"><tspan font-style="normal" class="text-inner-tspan" font-weight="normal">no</tspan><tspan font-style="normal" class="text-inner-tspan" font-weight="normal"> match</tspan></tspan></text></g></g></g><g class="edgeLabel" transform="translate(148.54296875, 874.2593612670898)"><g class="label" data-id="L_mDNS_OSCache_0" transform="translate(0, -10.5)"><g><rect class="background" style="" x="-10.6640625" y="-1" width="21.328125" height="23"></rect><text y="-10.1" text-anchor="middle" style=""><tspan class="text-outer-tspan row" x="0" y="-0.1em" dy="1.1em" text-anchor="middle"><tspan font-style="normal" class="text-inner-tspan" font-weight="normal">no</tspan></tspan></text></g></g></g><g class="edgeLabel" transform="translate(123.9296875, 1117.9218673706055)"><g class="label" data-id="L_OSCache_Stub_0" transform="translate(0, -10.5)"><g><rect class="background" style="" x="-17.3984375" y="-1" width="34.796875" height="23"></rect><text y="-10.1" text-anchor="middle" style=""><tspan class="text-outer-tspan row" x="0" y="-0.1em" dy="1.1em" text-anchor="middle"><tspan font-style="normal" class="text-inner-tspan" font-weight="normal">miss</tspan></tspan></text></g></g></g><g class="edgeLabel"><g class="label" data-id="L_Stub_Recursive_0" transform="translate(0, 0)"><text y="-10.1" text-anchor="middle"><tspan class="text-outer-tspan row" x="0" y="-0.1em" dy="1.1em" text-anchor="middle"></tspan></text></g></g><g><rect class="background" style="stroke: none"></rect></g><g class="edgeLabel"><g class="label" data-id="L_Recursive_Iter_0" transform="translate(0, 0)"><text y="-10.1" text-anchor="middle"><tspan class="text-outer-tspan row" x="0" y="-0.1em" dy="1.1em" text-anchor="middle"></tspan></text></g></g><g><rect class="background" style="stroke: none"></rect></g><g class="edgeLabel" transform="translate(626.0187530517578, 657.8156204223633)"><g class="label" data-id="L_BC_Done_0" transform="translate(0, -10.5)"><g><rect class="background" style="" x="-11.828125" y="-1" width="23.65625" height="23"></rect><text y="-10.1" text-anchor="middle" style=""><tspan class="text-outer-tspan row" x="0" y="-0.1em" dy="1.1em" text-anchor="middle"><tspan font-style="normal" class="text-inner-tspan" font-weight="normal">hit</tspan></tspan></text></g></g></g><g class="edgeLabel" transform="translate(544.4523468017578, 874.2593612670898)"><g class="label" data-id="L_Hosts_Done_0" transform="translate(0, -10.5)"><g><rect class="background" style="" x="-24.3515625" y="-1" width="48.703125" height="23"></rect><text y="-10.1" text-anchor="middle" style=""><tspan class="text-outer-tspan row" x="0" y="-0.1em" dy="1.1em" text-anchor="middle"><tspan font-style="normal" class="text-inner-tspan" font-weight="normal">match</tspan></tspan></text></g></g></g><g class="edgeLabel" transform="translate(344.19933, 1121.98998)"><g class="label" data-id="L_OSCache_Done_0" transform="translate(0, -10.5)"><g><rect class="background" style="" x="-11.828125" y="-1" width="23.65625" height="23"></rect><text y="-10.1" text-anchor="middle" style=""><tspan class="text-outer-tspan row" x="0" y="-0.1em" dy="1.1em" text-anchor="middle"><tspan font-style="normal" class="text-inner-tspan" font-weight="normal">hit</tspan></tspan></text></g></g></g><g class="edgeLabel" transform="translate(396.6632843017578, 874.2593612670898)"><g class="label" data-id="L_mDNS_Multicast_0" transform="translate(0, -10.5)"><g><rect class="background" style="" x="-13.546875" y="-1" width="27.09375" height="23"></rect><text y="-10.1" text-anchor="middle" style=""><tspan class="text-outer-tspan row" x="0" y="-0.1em" dy="1.1em" text-anchor="middle"><tspan font-style="normal" class="text-inner-tspan" font-weight="normal">yes</tspan></tspan></text></g></g></g></g><g class="nodes"><g class="node default" id="g2dd42e7e-1a07-46d4-ba90-dd1ddbce27a0-light-flowchart-App-0" data-look="classic" transform="translate(405.8882827758789, 32.5)"><rect class="basic label-container" style="" x="-108.1015625" y="-24.5" width="216.203125" height="49"></rect><g class="label" style="" transform="translate(0, -9.5)"><rect></rect><g><rect class="background" style="stroke: none"></rect><text y="-10.1" style=""><tspan class="text-outer-tspan row" x="0" y="-0.1em" dy="1.1em"><tspan font-style="normal" class="text-inner-tspan" font-weight="normal">Application</tspan><tspan font-style="normal" class="text-inner-tspan" font-weight="normal"> /</tspan><tspan font-style="normal" class="text-inner-tspan" font-weight="normal"> browser</tspan></tspan></text></g></g></g><g class="node default" id="g2dd42e7e-1a07-46d4-ba90-dd1ddbce27a0-light-flowchart-BC-1" data-look="classic" transform="translate(405.8882827758789, 196.76093292236328)"><polygon points="89.76093673706055,0 179.5218734741211,-89.76093673706055 89.76093673706055,-179.5218734741211 0,-89.76093673706055" class="label-container" transform="translate(-89.26093673706055, 89.76093673706055)"></polygon><g class="label" style="" transform="translate(0, -18.299999237060547)"><rect></rect><g><rect class="background" style="stroke: none"></rect><text y="-10.1" style=""><tspan class="text-outer-tspan row" x="0" y="-0.1em" dy="1.1em"><tspan font-style="normal" class="text-inner-tspan" font-weight="normal">Browser</tspan><tspan font-style="normal" class="text-inner-tspan" font-weight="normal"> HTTP</tspan><tspan font-style="normal" class="text-inner-tspan" font-weight="normal"> /</tspan></tspan><tspan class="text-outer-tspan row" x="0" y="1em" dy="1.1em"><tspan font-style="normal" class="text-inner-tspan" font-weight="normal">host</tspan><tspan font-style="normal" class="text-inner-tspan" font-weight="normal"> cache</tspan></tspan></text></g></g></g><g class="node default" id="g2dd42e7e-1a07-46d4-ba90-dd1ddbce27a0-light-flowchart-Sys-3" data-look="classic" transform="translate(346.4976577758789, 392.8218650817871)"><rect class="basic label-container" style="" x="-83.78125" y="-33.29999923706055" width="167.5625" height="66.5999984741211"></rect><g class="label" style="" transform="translate(0, -18.299999237060547)"><rect></rect><g><rect class="background" style="stroke: none"></rect><text y="-10.1" style=""><tspan class="text-outer-tspan row" x="0" y="-0.1em" dy="1.1em"><tspan font-style="normal" class="text-inner-tspan" font-weight="normal">OS</tspan><tspan font-style="normal" class="text-inner-tspan" font-weight="normal"> resolver</tspan><tspan font-style="normal" class="text-inner-tspan" font-weight="normal"> API</tspan></tspan><tspan class="text-outer-tspan row" x="0" y="1em" dy="1.1em"><tspan font-style="normal" class="text-inner-tspan" font-weight="normal">getaddrinfo</tspan></tspan></text></g></g></g><g class="node default" id="g2dd42e7e-1a07-46d4-ba90-dd1ddbce27a0-light-flowchart-Hosts-5" data-look="classic" transform="translate(346.4976577758789, 548.7187423706055)"><polygon points="72.59687423706055,0 145.1937484741211,-72.59687423706055 72.59687423706055,-145.1937484741211 0,-72.59687423706055" class="label-container" transform="translate(-72.09687423706055, 72.59687423706055)"></polygon><g class="label" style="" transform="translate(0, -18.299999237060547)"><rect></rect><g><rect class="background" style="stroke: none"></rect><text y="-10.1" style=""><tspan class="text-outer-tspan row" x="0" y="-0.1em" dy="1.1em"><tspan font-style="normal" class="text-inner-tspan" font-weight="normal">hosts</tspan><tspan font-style="normal" class="text-inner-tspan" font-weight="normal"> file</tspan><tspan font-style="normal" class="text-inner-tspan" font-weight="normal"> /</tspan></tspan><tspan class="text-outer-tspan row" x="0" y="1em" dy="1.1em"><tspan font-style="normal" class="text-inner-tspan" font-weight="normal">NSS</tspan><tspan font-style="normal" class="text-inner-tspan" font-weight="normal"> first</tspan></tspan></text></g></g></g><g class="node default" id="g2dd42e7e-1a07-46d4-ba90-dd1ddbce27a0-light-flowchart-mDNS-7" data-look="classic" transform="translate(272.6031265258789, 766.0374908447266)"><polygon points="71.72187423706055,0 143.4437484741211,-71.72187423706055 71.72187423706055,-143.4437484741211 0,-71.72187423706055" class="label-container" transform="translate(-71.22187423706055, 71.72187423706055)"></polygon><g class="label" style="" transform="translate(0, -18.299999237060547)"><rect></rect><g><rect class="background" style="stroke: none"></rect><text y="-10.1" style=""><tspan class="text-outer-tspan row" x="0" y="-0.1em" dy="1.1em"><tspan font-style="normal" class="text-inner-tspan" font-weight="normal">name</tspan><tspan font-style="normal" class="text-inner-tspan" font-weight="normal"> ends</tspan></tspan><tspan class="text-outer-tspan row" x="0" y="1em" dy="1.1em"><tspan font-style="normal" class="text-inner-tspan" font-weight="normal">in</tspan><tspan font-style="normal" class="text-inner-tspan" font-weight="normal"> .local</tspan></tspan></text></g></g></g><g class="node default" id="g2dd42e7e-1a07-46d4-ba90-dd1ddbce27a0-light-flowchart-OSCache-9" data-look="classic" transform="translate(148.54296875, 996.0906143188477)"><polygon points="85.33124923706055,0 170.6624984741211,-85.33124923706055 85.33124923706055,-170.6624984741211 0,-85.33124923706055" class="label-container" transform="translate(-84.83124923706055, 85.33124923706055)"></polygon><g class="label" style="" transform="translate(0, -18.299999237060547)"><rect></rect><g><rect class="background" style="stroke: none"></rect><text y="-10.1" style=""><tspan class="text-outer-tspan row" x="0" y="-0.1em" dy="1.1em"><tspan font-style="normal" class="text-inner-tspan" font-weight="normal">OS</tspan><tspan font-style="normal" class="text-inner-tspan" font-weight="normal"> /</tspan><tspan font-style="normal" class="text-inner-tspan" font-weight="normal"> system</tspan></tspan><tspan class="text-outer-tspan row" x="0" y="1em" dy="1.1em"><tspan font-style="normal" class="text-inner-tspan" font-weight="normal">resolver</tspan><tspan font-style="normal" class="text-inner-tspan" font-weight="normal"> cache</tspan></tspan></text></g></g></g><g class="node default" id="g2dd42e7e-1a07-46d4-ba90-dd1ddbce27a0-light-flowchart-Stub-11" data-look="classic" transform="translate(123.9296875, 1187.721866607666)"><rect class="basic label-container" style="" x="-91.3125" y="-33.29999923706055" width="182.625" height="66.5999984741211"></rect><g class="label" style="" transform="translate(0, -18.299999237060547)"><rect></rect><g><rect class="background" style="stroke: none"></rect><text y="-10.1" style=""><tspan class="text-outer-tspan row" x="0" y="-0.1em" dy="1.1em"><tspan font-style="normal" class="text-inner-tspan" font-weight="normal">Stub</tspan><tspan font-style="normal" class="text-inner-tspan" font-weight="normal"> resolver</tspan></tspan><tspan class="text-outer-tspan row" x="0" y="1em" dy="1.1em"><tspan font-style="normal" class="text-inner-tspan" font-weight="normal">queries</tspan><tspan font-style="normal" class="text-inner-tspan" font-weight="normal"> recursive</tspan></tspan></text></g></g></g><g class="node default" id="g2dd42e7e-1a07-46d4-ba90-dd1ddbce27a0-light-flowchart-Recursive-13" data-look="classic" transform="translate(123.9296875, 1304.321865081787)"><rect class="basic label-container" style="" x="-95.1015625" y="-33.29999923706055" width="190.203125" height="66.5999984741211"></rect><g class="label" style="" transform="translate(0, -18.299999237060547)"><rect></rect><g><rect class="background" style="stroke: none"></rect><text y="-10.1" style=""><tspan class="text-outer-tspan row" x="0" y="-0.1em" dy="1.1em"><tspan font-style="normal" class="text-inner-tspan" font-weight="normal">Recursive</tspan><tspan font-style="normal" class="text-inner-tspan" font-weight="normal"> resolver</tspan></tspan><tspan class="text-outer-tspan row" x="0" y="1em" dy="1.1em"><tspan font-style="normal" class="text-inner-tspan" font-weight="normal">1.1.1.1</tspan><tspan font-style="normal" class="text-inner-tspan" font-weight="normal"> /</tspan><tspan font-style="normal" class="text-inner-tspan" font-weight="normal"> 8.8.8.8</tspan></tspan></text></g></g></g><g class="node default" id="g2dd42e7e-1a07-46d4-ba90-dd1ddbce27a0-light-flowchart-Iter-15" data-look="classic" transform="translate(123.9296875, 1420.9218635559082)"><rect class="basic label-container" style="" x="-115.9296875" y="-33.29999923706055" width="231.859375" height="66.5999984741211"></rect><g class="label" style="" transform="translate(0, -18.299999237060547)"><rect></rect><g><rect class="background" style="stroke: none"></rect><text y="-10.1" style=""><tspan class="text-outer-tspan row" x="0" y="-0.1em" dy="1.1em"><tspan font-style="normal" class="text-inner-tspan" font-weight="normal">Iterative</tspan><tspan font-style="normal" class="text-inner-tspan" font-weight="normal"> walk:</tspan></tspan><tspan class="text-outer-tspan row" x="0" y="1em" dy="1.1em"><tspan font-style="normal" class="text-inner-tspan" font-weight="normal">root,</tspan><tspan font-style="normal" class="text-inner-tspan" font-weight="normal"> TLD,</tspan><tspan font-style="normal" class="text-inner-tspan" font-weight="normal"> authoritative</tspan></tspan></text></g></g></g><g class="node default" id="g2dd42e7e-1a07-46d4-ba90-dd1ddbce27a0-light-flowchart-Done-17" data-look="classic" transform="translate(565.7531280517578, 1187.721866607666)"><g class="basic label-container outer-path"><path d="M-38.15781307220459 -25.799999237060547 C-20.294473571125245 -25.799999237060547, -2.4311340700459 -25.799999237060547, 38.15781307220459 -25.799999237060547 C38.15781307220459 -25.799999237060547, 38.15781307220459 -25.799999237060547, 38.15781307220459 -25.799999237060547 C38.58250741485044 -25.786380116109285, 39.00720175749628 -25.772760995158023, 39.810824698825286 -25.746990371586765 C40.44799386742134 -25.685523428200344, 41.085163036017384 -25.624056484813924, 41.45704374610231 -25.58818159996402 C41.86081171968648 -25.522903525262333, 42.26457969327066 -25.45762545056064, 43.08970554685753 -25.32422550149928 C43.65931343790164 -25.194216217407327, 44.228921328945745 -25.064206933315376, 44.702101143546784 -24.956206728419545 C45.20909255732183 -24.80573433806335, 45.71608397109688 -24.655261947707153, 46.287604856805515 -24.48563754880318 C46.67660888998002 -24.3424804686811, 47.06561292315451 -24.19932338855902, 47.83970151178644 -23.914451632345997 C48.34502442958093 -23.690760166510138, 48.85034734737543 -23.467068700674282, 49.35201321041056 -23.24499610449772 C49.79948921441511 -23.011548159830607, 50.24696521841966 -22.77810021516349, 50.8183255395184 -22.480021901620034 C51.216228167532705 -22.23881099018237, 51.614130795547005 -21.997600078744703, 52.23261310722664 -21.62267246679901 C52.524044986001485 -21.419382204048375, 52.815476864776336 -21.216091941297744, 53.58906430255584 -20.67647083276321 C53.94939957046356 -20.389113045530994, 54.30973483837128 -20.101755258298773, 54.882105176586506 -19.64530514498651 C55.19313188951142 -19.362838913623975, 55.50415860243634 -19.080372682261437, 56.10642234701088 -18.533412684464313 C56.4589609079499 -18.169387676340637, 56.81149946888892 -17.805362668216958, 57.25698483196044 -17.345362455817106 C57.61489391844586 -16.924942077227374, 57.97280300493128 -16.504521698637646, 58.32906472338968 -16.086036412270357 C58.60226688252853 -15.719970408253007, 58.87546904166739 -15.353904404235657, 59.31825661506427 -14.76060939466161 C59.59072471453595 -14.342025225943924, 59.86319281400763 -13.92344105722624, 60.22049570532037 -13.374527866909407 C60.47288477851363 -12.926385510289787, 60.725273851706895 -12.478243153670167, 61.032074500206406 -11.93348753532484 C61.2422289711319 -11.497097279862702, 61.4523834420574 -11.060707024400566, 61.74965804837108 -10.443409943732584 C61.900972243967686 -10.069660955148008, 62.0522864395643 -9.69591196656343, 62.370297645093814 -8.910418140577123 C62.56614074905699 -8.320569914801151, 62.76198385302017 -7.730721689025177, 62.8914429491449 -7.340811518003323 C63.0285529221993 -6.8179517669086875, 63.165662895253696 -6.295092015814053, 63.31095246268467 -5.741039926302914 C63.43520760573872 -5.103016028054151, 63.55946274879277 -4.464992129805389, 63.62710233113747 -4.117677170096137 C63.67478945226651 -3.7478252755065067, 63.72247657339555 -3.3779733809168766, 63.83859342687991 -2.4773939951584394 C63.86236345509302 -2.10715661891791, 63.88613348330612 -1.7369192426773803, 63.94455668763487 -0.8269306768952902 C63.94455668763487 -0.3679569645070303, 63.94455668763487 0.0910167478812296, 63.94455668763487 0.826930676895284 C63.92129623088917 1.1892310662123784, 63.898035774143466 1.5515314555294728, 63.83859342687991 2.4773939951584216 C63.76084478886136 3.080397078425165, 63.683096150842815 3.6834001616919085, 63.62710233113748 4.117677170096119 C63.5586448619079 4.46919180609875, 63.49018739267832 4.82070644210138, 63.31095246268467 5.741039926302909 C63.1817324541856 6.233811823015804, 63.05251244568653 6.726583719728699, 62.89144294914491 7.340811518003306 C62.71264133171858 7.879333501522445, 62.53383971429225 8.417855485041583, 62.37029764509383 8.910418140577105 C62.18629468838871 9.364909001093901, 62.0022917316836 9.819399861610696, 61.74965804837109 10.443409943732577 C61.476089310173364 11.011481282033444, 61.20252057197565 11.579552620334308, 61.032074500206406 11.933487535324835 C60.794415188000535 12.355475709761302, 60.556755875794664 12.777463884197772, 60.220495705320374 13.374527866909402 C59.961912288644825 13.771781434292851, 59.703328871969276 14.1690350016763, 59.318256615064286 14.760609394661596 C59.0805312777785 15.07913968940079, 58.84280594049272 15.397669984139984, 58.32906472338968 16.086036412270353 C58.0481454049433 16.41602022847952, 57.76722608649692 16.74600404468869, 57.25698483196045 17.345362455817092 C56.887020397596245 17.727381108943085, 56.51705596323204 18.109399762069078, 56.10642234701088 18.533412684464306 C55.64281803884952 18.95444585083863, 55.17921373068816 19.37547901721296, 54.882105176586535 19.64530514498649 C54.476743550765114 19.96857025445318, 54.071381924943694 20.29183536391987, 53.58906430255585 20.676470832763208 C53.313883583421855 20.868424990049743, 53.03870286428786 21.060379147336278, 52.232613107226655 21.622672466799003 C51.72679583416709 21.92930187023995, 51.22097856110753 22.235931273680897, 50.818325539518405 22.48002190162003 C50.3935042789285 22.701650881158777, 49.9686830183386 22.923279860697523, 49.35201321041057 23.244996104497716 C49.03954107224405 23.38331825090739, 48.72706893407752 23.521640397317064, 47.83970151178645 23.914451632345994 C47.383183036970436 24.082454651088806, 46.92666456215443 24.250457669831622, 46.28760485680553 24.485637548803172 C45.78506243758917 24.634789500927603, 45.2825200183728 24.78394145305203, 44.70210114354681 24.95620672841954 C44.08178059261351 25.09779084620017, 43.46146004168021 25.239374963980797, 43.089705546857545 25.324225501499278 C42.475593380717065 25.423510394009895, 41.86148121457658 25.522795286520513, 41.45704374610233 25.588181599964017 C40.90390301992131 25.641542420569646, 40.35076229374029 25.69490324117528, 39.810824698825286 25.746990371586765 C39.26775429827375 25.764405582310044, 38.724683897722215 25.781820793033322, 38.1578130722046 25.799999237060547 C38.1578130722046 25.799999237060547, 38.15781307220459 25.799999237060547, 38.15781307220459 25.799999237060547 C16.61329493050328 25.799999237060547, -4.931223211198031 25.799999237060547, -38.15781307220458 25.799999237060547 C-38.70065004348833 25.782591511959545, -39.24348701477208 25.76518378685854, -39.81082469882527 25.746990371586765 C-40.383826523077936 25.691713574736628, -40.9568283473306 25.63643677788649, -41.457043746102315 25.588181599964017 C-41.88769672374802 25.51855696630198, -42.31834970139373 25.44893233263994, -43.08970554685753 25.324225501499278 C-43.47278057614259 25.23679112586315, -43.85585560542765 25.149356750227017, -44.702101143546784 24.956206728419545 C-45.09873335981427 24.838488368596344, -45.49536557608175 24.720770008773144, -46.2876048568055 24.485637548803183 C-46.70623977127054 24.33157603046132, -47.12487468573558 24.17751451211946, -47.839701511786444 23.914451632345997 C-48.26331992772306 23.72692832580469, -48.68693834365967 23.539405019263384, -49.35201321041056 23.244996104497723 C-49.73021396723946 23.047689011909235, -50.108414724068346 22.85038191932075, -50.8183255395184 22.480021901620038 C-51.175334642112574 22.26360088560908, -51.53234374470676 22.047179869598125, -52.232613107226626 21.622672466799017 C-52.62825376187855 21.34669067312174, -53.023894416530474 21.07070887944446, -53.58906430255584 20.67647083276321 C-54.01140443418755 20.339665816729838, -54.43374456581925 20.00286080069646, -54.882105176586506 19.645305144986512 C-55.362923106863775 19.208639022454005, -55.84374103714104 18.771972899921494, -56.10642234701086 18.533412684464324 C-56.38789016228862 18.242774056252635, -56.66935797756638 17.952135428040947, -57.25698483196044 17.3453624558171 C-57.51697873520809 17.03995882299021, -57.77697263845575 16.73455519016332, -58.32906472338967 16.08603641227036 C-58.53109475634669 15.815334573422595, -58.7331247893037 15.54463273457483, -59.31825661506427 14.760609394661614 C-59.599868337642 14.327978165446444, -59.88148006021973 13.895346936231276, -60.22049570532036 13.374527866909418 C-60.46190998893195 12.945872360510002, -60.70332427254355 12.517216854110588, -61.0320745002064 11.933487535324842 C-61.23624889123105 11.509515043730032, -61.44042328225569 11.085542552135223, -61.74965804837108 10.443409943732586 C-61.91351384839238 10.038682949743595, -62.07736964841368 9.633955955754605, -62.370297645093814 8.910418140577127 C-62.49446051404285 8.53645936196926, -62.618623382991885 8.162500583361396, -62.8914429491449 7.340811518003316 C-62.99633657075934 6.940806677604282, -63.101230192373784 6.540801837205248, -63.31095246268467 5.741039926302918 C-63.432605620150575 5.116376674119417, -63.55425877761648 4.491713421935917, -63.62710233113747 4.117677170096139 C-63.69876602359539 3.561867722989245, -63.770429716053314 3.0060582758823506, -63.83859342687991 2.477393995158454 C-63.86013535278873 2.1418611107989793, -63.881677278697545 1.8063282264395046, -63.94455668763487 0.8269306768952934 C-63.94455668763487 0.4295972579749589, -63.94455668763487 0.03226383905462438, -63.94455668763487 -0.8269306768952809 C-63.91902750874418 -1.22456824490011, -63.893498329853486 -1.6222058129049393, -63.83859342687991 -2.4773939951584185 C-63.78301129661633 -2.9084780215496955, -63.72742916635274 -3.3395620479409724, -63.62710233113748 -4.117677170096128 C-63.513841291493264 -4.699248670939959, -63.40058025184904 -5.280820171783788, -63.31095246268467 -5.741039926302906 C-63.20049460693541 -6.1622636030123585, -63.09003675118614 -6.583487279721811, -62.89144294914491 -7.340811518003303 C-62.68586453881222 -7.959980935453833, -62.48028612847952 -8.579150352904364, -62.37029764509383 -8.910418140577093 C-62.154027128534096 -9.444610497785613, -61.93775661197437 -9.978802854994132, -61.74965804837109 -10.443409943732574 C-61.52788181450048 -10.90393303861612, -61.306105580629875 -11.364456133499667, -61.032074500206406 -11.933487535324831 C-60.77551409322936 -12.389036517470904, -60.518953686252324 -12.844585499616977, -60.22049570532037 -13.374527866909409 C-60.02710235539964 -13.671631985773459, -59.83370900547891 -13.968736104637511, -59.31825661506428 -14.760609394661605 C-59.053246288162484 -15.115699089772564, -58.78823596126069 -15.470788784883522, -58.32906472338968 -16.086036412270353 C-58.049982114467916 -16.413862724960172, -57.770899505546154 -16.741689037649987, -57.25698483196045 -17.345362455817092 C-56.98117353341427 -17.63016026609477, -56.70536223486808 -17.914958076372443, -56.10642234701089 -18.5334126844643 C-55.65676315971069 -18.941781261040195, -55.2071039724105 -19.35014983761609, -54.882105176586535 -19.645305144986487 C-54.50359647334316 -19.94715576328347, -54.125087770099775 -20.24900638158045, -53.58906430255585 -20.676470832763204 C-53.28230169621652 -20.890455147406318, -52.9755390898772 -21.10443946204943, -52.23261310722666 -21.622672466799 C-51.85697388375324 -21.850387171569693, -51.48133466027982 -22.078101876340387, -50.818325539518405 -22.480021901620027 C-50.37678108291544 -22.71037536180707, -49.93523662631248 -22.940728821994114, -49.352013210410576 -23.244996104497716 C-48.959082230165656 -23.418934993568744, -48.566151249920736 -23.592873882639775, -47.83970151178645 -23.91445163234599 C-47.29121918874858 -24.116298197338942, -46.74273686571071 -24.318144762331894, -46.28760485680553 -24.485637548803172 C-45.84474481367264 -24.61707608498521, -45.40188477053975 -24.74851462116725, -44.70210114354682 -24.956206728419538 C-44.3481055258767 -25.037003918115456, -43.994109908206575 -25.11780110781137, -43.089705546857545 -25.324225501499278 C-42.51189286657345 -25.41764177464335, -41.93408018628936 -25.511058047787422, -41.45704374610233 -25.588181599964017 C-40.87813031198492 -25.644028682708054, -40.2992168778675 -25.699875765452095, -39.810824698825286 -25.746990371586765 C-39.19141750964237 -25.76685355454091, -38.572010320459455 -25.78671673749505, -38.1578130722046 -25.799999237060547 C-38.1578130722046 -25.799999237060547, -38.15781307220459 -25.799999237060547, -38.15781307220459 -25.799999237060547" stroke="none" stroke-width="0" fill="#ECECFF" style=""></path><path d="M-38.15781307220459 -25.799999237060547 C-19.4654624413466 -25.799999237060547, -0.7731118104886079 -25.799999237060547, 38.15781307220459 -25.799999237060547 M-38.15781307220459 -25.799999237060547 C-21.299683517284365 -25.799999237060547, -4.441553962364139 -25.799999237060547, 38.15781307220459 -25.799999237060547 M38.15781307220459 -25.799999237060547 C38.15781307220459 -25.799999237060547, 38.15781307220459 -25.799999237060547, 38.15781307220459 -25.799999237060547 M38.15781307220459 -25.799999237060547 C38.15781307220459 -25.799999237060547, 38.15781307220459 -25.799999237060547, 38.15781307220459 -25.799999237060547 M38.15781307220459 -25.799999237060547 C38.62698861812977 -25.784953690497527, 39.09616416405495 -25.769908143934504, 39.810824698825286 -25.746990371586765 M38.15781307220459 -25.799999237060547 C38.54746206309182 -25.787503952328546, 38.93711105397905 -25.77500866759654, 39.810824698825286 -25.746990371586765 M39.810824698825286 -25.746990371586765 C40.33754197125811 -25.696178589785372, 40.86425924369094 -25.645366807983976, 41.45704374610231 -25.58818159996402 M39.810824698825286 -25.746990371586765 C40.17033717602564 -25.71230863528826, 40.52984965322599 -25.677626898989754, 41.45704374610231 -25.58818159996402 M41.45704374610231 -25.58818159996402 C41.98565188766993 -25.50272033505273, 42.514260029237555 -25.41725907014144, 43.08970554685753 -25.32422550149928 M41.45704374610231 -25.58818159996402 C41.80357196378807 -25.53215760509505, 42.150100181473846 -25.47613361022608, 43.08970554685753 -25.32422550149928 M43.08970554685753 -25.32422550149928 C43.52551181981124 -25.224755563599302, 43.961318092764955 -25.125285625699327, 44.702101143546784 -24.956206728419545 M43.08970554685753 -25.32422550149928 C43.719475883746014 -25.18048453174, 44.34924622063449 -25.036743561980714, 44.702101143546784 -24.956206728419545 M44.702101143546784 -24.956206728419545 C45.23318926819443 -24.79858256076258, 45.76427739284207 -24.640958393105613, 46.287604856805515 -24.48563754880318 M44.702101143546784 -24.956206728419545 C45.06438781032552 -24.848681947401136, 45.42667447710426 -24.74115716638273, 46.287604856805515 -24.48563754880318 M46.287604856805515 -24.48563754880318 C46.825460022049576 -24.287701876114717, 47.36331518729364 -24.089766203426258, 47.83970151178644 -23.914451632345997 M46.287604856805515 -24.48563754880318 C46.79668249936716 -24.298292270478353, 47.30576014192881 -24.110946992153522, 47.83970151178644 -23.914451632345997 M47.83970151178644 -23.914451632345997 C48.27739718100688 -23.72069674336282, 48.715092850227336 -23.52694185437964, 49.35201321041056 -23.24499610449772 M47.83970151178644 -23.914451632345997 C48.416055080143906 -23.659317004555298, 48.992408648501375 -23.4041823767646, 49.35201321041056 -23.24499610449772 M49.35201321041056 -23.24499610449772 C49.75423657413188 -23.03515643328067, 50.1564599378532 -22.82531676206362, 50.8183255395184 -22.480021901620034 M49.35201321041056 -23.24499610449772 C49.8889562504024 -22.96487326446241, 50.42589929039425 -22.684750424427094, 50.8183255395184 -22.480021901620034 M50.8183255395184 -22.480021901620034 C51.1185473004821 -22.298025705824937, 51.41876906144579 -22.116029510029843, 52.23261310722664 -21.62267246679901 M50.8183255395184 -22.480021901620034 C51.27523748487049 -22.20303919523496, 51.732149430222584 -21.926056488849888, 52.23261310722664 -21.62267246679901 M52.23261310722664 -21.62267246679901 C52.76745627621216 -21.24958902510234, 53.302299445197676 -20.876505583405667, 53.58906430255584 -20.67647083276321 M52.23261310722664 -21.62267246679901 C52.51125079189612 -21.428306880004545, 52.7898884765656 -21.23394129321008, 53.58906430255584 -20.67647083276321 M53.58906430255584 -20.67647083276321 C54.087518837618504 -20.27896660548298, 54.585973372681174 -19.881462378202755, 54.882105176586506 -19.64530514498651 M53.58906430255584 -20.67647083276321 C53.89510719265012 -20.43240977205636, 54.2011500827444 -20.18834871134951, 54.882105176586506 -19.64530514498651 M54.882105176586506 -19.64530514498651 C55.15150406629521 -19.40064420125709, 55.420902956003914 -19.155983257527673, 56.10642234701088 -18.533412684464313 M54.882105176586506 -19.64530514498651 C55.224411677572405 -19.33443143772483, 55.5667181785583 -19.023557730463153, 56.10642234701088 -18.533412684464313 M56.10642234701088 -18.533412684464313 C56.520535017935345 -18.10580735245222, 56.934647688859805 -17.678202020440125, 57.25698483196044 -17.345362455817106 M56.10642234701088 -18.533412684464313 C56.40162481122443 -18.228591903590765, 56.69682727543799 -17.92377112271722, 57.25698483196044 -17.345362455817106 M57.25698483196044 -17.345362455817106 C57.666080403433554 -16.864815519367326, 58.07517597490667 -16.384268582917542, 58.32906472338968 -16.086036412270357 M57.25698483196044 -17.345362455817106 C57.60672390618511 -16.93453903851572, 57.95646298040978 -16.523715621214333, 58.32906472338968 -16.086036412270357 M58.32906472338968 -16.086036412270357 C58.62084808106173 -15.695073295000531, 58.91263143873378 -15.304110177730706, 59.31825661506427 -14.76060939466161 M58.32906472338968 -16.086036412270357 C58.5700293957017 -15.76316570370549, 58.810994068013734 -15.44029499514062, 59.31825661506427 -14.76060939466161 M59.31825661506427 -14.76060939466161 C59.63843797727074 -14.268724841578289, 59.95861933947721 -13.776840288494967, 60.22049570532037 -13.374527866909407 M59.31825661506427 -14.76060939466161 C59.613133440328205 -14.307599405541609, 59.90801026559214 -13.854589416421609, 60.22049570532037 -13.374527866909407 M60.22049570532037 -13.374527866909407 C60.48501002651592 -12.904855904647215, 60.74952434771148 -12.435183942385024, 61.032074500206406 -11.93348753532484 M60.22049570532037 -13.374527866909407 C60.39877924393227 -13.057967390938074, 60.57706278254417 -12.741406914966742, 61.032074500206406 -11.93348753532484 M61.032074500206406 -11.93348753532484 C61.23321655893128 -11.51581174663202, 61.43435861765616 -11.0981359579392, 61.74965804837108 -10.443409943732584 M61.032074500206406 -11.93348753532484 C61.23159893021233 -11.519170787278643, 61.431123360218244 -11.104854039232448, 61.74965804837108 -10.443409943732584 M61.74965804837108 -10.443409943732584 C61.99163751532408 -9.845715982003941, 62.233616982277084 -9.248022020275299, 62.370297645093814 -8.910418140577123 M61.74965804837108 -10.443409943732584 C61.90279432198482 -10.065160387218212, 62.05593059559856 -9.68691083070384, 62.370297645093814 -8.910418140577123 M62.370297645093814 -8.910418140577123 C62.545213321976775 -8.383599990834083, 62.72012899885973 -7.856781841091042, 62.8914429491449 -7.340811518003323 M62.370297645093814 -8.910418140577123 C62.534011792202826 -8.417337213791804, 62.69772593931184 -7.924256287006483, 62.8914429491449 -7.340811518003323 M62.8914429491449 -7.340811518003323 C63.05908274868226 -6.701528306818664, 63.22672254821962 -6.0622450956340055, 63.31095246268467 -5.741039926302914 M62.8914429491449 -7.340811518003323 C63.01355777297019 -6.875134769858071, 63.13567259679548 -6.409458021712817, 63.31095246268467 -5.741039926302914 M63.31095246268467 -5.741039926302914 C63.384844006745574 -5.361622464533546, 63.45873555080647 -4.9822050027641795, 63.62710233113747 -4.117677170096137 M63.31095246268467 -5.741039926302914 C63.41131931318154 -5.225677361542873, 63.5116861636784 -4.710314796782832, 63.62710233113747 -4.117677170096137 M63.62710233113747 -4.117677170096137 C63.70375439730937 -3.5231788815294545, 63.78040646348126 -2.928680592962772, 63.83859342687991 -2.4773939951584394 M63.62710233113747 -4.117677170096137 C63.674019293801955 -3.753798472472618, 63.72093625646644 -3.3899197748490995, 63.83859342687991 -2.4773939951584394 M63.83859342687991 -2.4773939951584394 C63.861345532585304 -2.123011583627711, 63.884097638290704 -1.7686291720969831, 63.94455668763487 -0.8269306768952902 M63.83859342687991 -2.4773939951584394 C63.874956657224786 -1.9110073306657593, 63.91131988756966 -1.3446206661730795, 63.94455668763487 -0.8269306768952902 M63.94455668763487 -0.8269306768952902 C63.94455668763487 -0.17515372417447095, 63.94455668763487 0.4766232285463483, 63.94455668763487 0.826930676895284 M63.94455668763487 -0.8269306768952902 C63.94455668763487 -0.48175382286565405, 63.94455668763487 -0.1365769688360179, 63.94455668763487 0.826930676895284 M63.94455668763487 0.826930676895284 C63.9191099770898 1.2232837338498168, 63.89366326654473 1.6196367908043499, 63.83859342687991 2.4773939951584216 M63.94455668763487 0.826930676895284 C63.902834634024146 1.4767853393178765, 63.86111258041342 2.126640001740469, 63.83859342687991 2.4773939951584216 M63.83859342687991 2.4773939951584216 C63.77136762067403 2.9987840728542703, 63.70414181446815 3.520174150550119, 63.62710233113748 4.117677170096119 M63.83859342687991 2.4773939951584216 C63.78989766150892 2.855068735309358, 63.741201896137916 3.2327434754602944, 63.62710233113748 4.117677170096119 M63.62710233113748 4.117677170096119 C63.507345989665865 4.7326006730411, 63.38758964819426 5.347524175986081, 63.31095246268467 5.741039926302909 M63.62710233113748 4.117677170096119 C63.51619330004595 4.687171604119088, 63.40528426895442 5.256666038142058, 63.31095246268467 5.741039926302909 M63.31095246268467 5.741039926302909 C63.17136149056712 6.2733608020971205, 63.031770518449584 6.805681677891331, 62.89144294914491 7.340811518003306 M63.31095246268467 5.741039926302909 C63.17016894208563 6.27790850631083, 63.029385421486595 6.814777086318752, 62.89144294914491 7.340811518003306 M62.89144294914491 7.340811518003306 C62.75479210936316 7.752382075071371, 62.61814126958141 8.163952632139438, 62.37029764509383 8.910418140577105 M62.89144294914491 7.340811518003306 C62.78661751198311 7.656529033069373, 62.68179207482131 7.97224654813544, 62.37029764509383 8.910418140577105 M62.37029764509383 8.910418140577105 C62.24547825072495 9.218724457887046, 62.12065885635608 9.527030775196986, 61.74965804837109 10.443409943732577 M62.37029764509383 8.910418140577105 C62.23064149722334 9.255371525885147, 62.090985349352856 9.600324911193187, 61.74965804837109 10.443409943732577 M61.74965804837109 10.443409943732577 C61.53055254895307 10.89838720138077, 61.31144704953504 11.353364459028962, 61.032074500206406 11.933487535324835 M61.74965804837109 10.443409943732577 C61.47729514265198 11.008977345090916, 61.204932236932876 11.574544746449256, 61.032074500206406 11.933487535324835 M61.032074500206406 11.933487535324835 C60.77060908545622 12.39774585545801, 60.509143670706045 12.862004175591187, 60.220495705320374 13.374527866909402 M61.032074500206406 11.933487535324835 C60.7674947701601 12.403275637624908, 60.502915040113784 12.873063739924984, 60.220495705320374 13.374527866909402 M60.220495705320374 13.374527866909402 C59.859837600109614 13.92859556677469, 59.499179494898854 14.48266326663998, 59.318256615064286 14.760609394661596 M60.220495705320374 13.374527866909402 C59.97362443304237 13.753788435347095, 59.72675316076435 14.133049003784787, 59.318256615064286 14.760609394661596 M59.318256615064286 14.760609394661596 C59.09508184887572 15.05964324971481, 58.87190708268716 15.358677104768024, 58.32906472338968 16.086036412270353 M59.318256615064286 14.760609394661596 C59.104324713104894 15.04725865368997, 58.89039281114551 15.333907912718344, 58.32906472338968 16.086036412270353 M58.32906472338968 16.086036412270353 C57.9451838744232 16.536964700905486, 57.561303025456716 16.987892989540622, 57.25698483196045 17.345362455817092 M58.32906472338968 16.086036412270353 C58.00342539253394 16.468550899696346, 57.6777860616782 16.85106538712234, 57.25698483196045 17.345362455817092 M57.25698483196045 17.345362455817092 C56.98275045457576 17.628531965527895, 56.70851607719106 17.9117014752387, 56.10642234701088 18.533412684464306 M57.25698483196045 17.345362455817092 C56.878757290383874 17.735913445553578, 56.500529748807296 18.12646443529006, 56.10642234701088 18.533412684464306 M56.10642234701088 18.533412684464306 C55.6283780467793 18.967559869575556, 55.150333746547716 19.401707054686806, 54.882105176586535 19.64530514498649 M56.10642234701088 18.533412684464306 C55.652046973175246 18.946064376868232, 55.19767159933961 19.358716069272155, 54.882105176586535 19.64530514498649 M54.882105176586535 19.64530514498649 C54.60107948573079 19.86941565503624, 54.32005379487505 20.093526165085983, 53.58906430255585 20.676470832763208 M54.882105176586535 19.64530514498649 C54.594858731664466 19.874376540862915, 54.3076122867424 20.10344793673934, 53.58906430255585 20.676470832763208 M53.58906430255585 20.676470832763208 C53.16858713384927 20.969777503489652, 52.74810996514269 21.263084174216093, 52.232613107226655 21.622672466799003 M53.58906430255585 20.676470832763208 C53.16687485673754 20.97097191387951, 52.74468541091924 21.26547299499581, 52.232613107226655 21.622672466799003 M52.232613107226655 21.622672466799003 C51.72374949884044 21.93114857661722, 51.214885890454234 22.239624686435434, 50.818325539518405 22.48002190162003 M52.232613107226655 21.622672466799003 C51.67791845639602 21.95893162388013, 51.12322380556539 22.295190780961256, 50.818325539518405 22.48002190162003 M50.818325539518405 22.48002190162003 C50.28685367084078 22.75729043508517, 49.75538180216315 23.03455896855031, 49.35201321041057 23.244996104497716 M50.818325539518405 22.48002190162003 C50.33046825280689 22.73453673560992, 49.84261096609537 22.989051569599813, 49.35201321041057 23.244996104497716 M49.35201321041057 23.244996104497716 C48.8955859644826 23.447042906836835, 48.43915871855463 23.649089709175954, 47.83970151178645 23.914451632345994 M49.35201321041057 23.244996104497716 C48.85695260528075 23.46414474893761, 48.36189200015094 23.683293393377504, 47.83970151178645 23.914451632345994 M47.83970151178645 23.914451632345994 C47.29846191181322 24.11363280830016, 46.75722231183999 24.312813984254326, 46.28760485680553 24.485637548803172 M47.83970151178645 23.914451632345994 C47.26244515808529 24.12688730660726, 46.685188804384126 24.339322980868527, 46.28760485680553 24.485637548803172 M46.28760485680553 24.485637548803172 C45.865589447691605 24.610889507024098, 45.44357403857769 24.736141465245026, 44.70210114354681 24.95620672841954 M46.28760485680553 24.485637548803172 C45.88265713163293 24.605823908020415, 45.47770940646034 24.726010267237655, 44.70210114354681 24.95620672841954 M44.70210114354681 24.95620672841954 C44.09820857158191 25.094041267203213, 43.49431599961701 25.23187580598689, 43.089705546857545 25.324225501499278 M44.70210114354681 24.95620672841954 C44.102524896040855 25.09305609431211, 43.50294864853489 25.229905460204677, 43.089705546857545 25.324225501499278 M43.089705546857545 25.324225501499278 C42.74434234263278 25.380061146026687, 42.39897913840801 25.4358967905541, 41.45704374610233 25.588181599964017 M43.089705546857545 25.324225501499278 C42.469452936705075 25.424503133377897, 41.8492003265526 25.52478076525652, 41.45704374610233 25.588181599964017 M41.45704374610233 25.588181599964017 C40.98184438823735 25.63402351050641, 40.506645030372376 25.679865421048802, 39.810824698825286 25.746990371586765 M41.45704374610233 25.588181599964017 C41.10607862068324 25.622038783515876, 40.75511349526416 25.65589596706774, 39.810824698825286 25.746990371586765 M39.810824698825286 25.746990371586765 C39.40850214446245 25.759892072831835, 39.00617959009961 25.772793774076906, 38.1578130722046 25.799999237060547 M39.810824698825286 25.746990371586765 C39.46178627727806 25.758183354403712, 39.11274785573083 25.76937633722066, 38.1578130722046 25.799999237060547 M38.1578130722046 25.799999237060547 C38.1578130722046 25.799999237060547, 38.15781307220459 25.799999237060547, 38.15781307220459 25.799999237060547 M38.1578130722046 25.799999237060547 C38.1578130722046 25.799999237060547, 38.15781307220459 25.799999237060547, 38.15781307220459 25.799999237060547 M38.15781307220459 25.799999237060547 C9.4449298826611 25.799999237060547, -19.26795330688239 25.799999237060547, -38.15781307220458 25.799999237060547 M38.15781307220459 25.799999237060547 C10.466960326250263 25.799999237060547, -17.223892419704065 25.799999237060547, -38.15781307220458 25.799999237060547 M-38.15781307220458 25.799999237060547 C-38.578364708332856 25.786512964644015, -38.998916344461136 25.773026692227482, -39.81082469882527 25.746990371586765 M-38.15781307220458 25.799999237060547 C-38.514199736657886 25.78857061039609, -38.87058640111119 25.77714198373163, -39.81082469882527 25.746990371586765 M-39.81082469882527 25.746990371586765 C-40.322085344245906 25.697669672003922, -40.83334598966653 25.64834897242108, -41.457043746102315 25.588181599964017 M-39.81082469882527 25.746990371586765 C-40.41631882859092 25.688579081101505, -41.021812958356556 25.630167790616245, -41.457043746102315 25.588181599964017 M-41.457043746102315 25.588181599964017 C-41.83604235303814 25.52690804437273, -42.215040959973955 25.465634488781436, -43.08970554685753 25.324225501499278 M-41.457043746102315 25.588181599964017 C-41.84279818656984 25.525815813599593, -42.22855262703737 25.46345002723517, -43.08970554685753 25.324225501499278 M-43.08970554685753 25.324225501499278 C-43.625251535879535 25.201990624269186, -44.16079752490155 25.079755747039094, -44.702101143546784 24.956206728419545 M-43.08970554685753 25.324225501499278 C-43.55832981928384 25.21726506937714, -44.02695409171016 25.110304637255002, -44.702101143546784 24.956206728419545 M-44.702101143546784 24.956206728419545 C-45.32164620875542 24.772329005124035, -45.94119127396405 24.588451281828522, -46.2876048568055 24.485637548803183 M-44.702101143546784 24.956206728419545 C-45.310976406937165 24.77549574629676, -45.91985167032754 24.594784764173973, -46.2876048568055 24.485637548803183 M-46.2876048568055 24.485637548803183 C-46.73867849666243 24.319638279656818, -47.18975213651935 24.15363901051045, -47.839701511786444 23.914451632345997 M-46.2876048568055 24.485637548803183 C-46.758982375458565 24.312166264572838, -47.23035989411163 24.138694980342496, -47.839701511786444 23.914451632345997 M-47.839701511786444 23.914451632345997 C-48.434074661330165 23.651340270496025, -49.02844781087389 23.388228908646056, -49.35201321041056 23.244996104497723 M-47.839701511786444 23.914451632345997 C-48.329657555524896 23.697562625812626, -48.81961359926335 23.48067361927926, -49.35201321041056 23.244996104497723 M-49.35201321041056 23.244996104497723 C-49.8515884732882 22.984368009847685, -50.35116373616585 22.723739915197644, -50.8183255395184 22.480021901620038 M-49.35201321041056 23.244996104497723 C-49.86990518761697 22.974812191714783, -50.38779716482339 22.70462827893184, -50.8183255395184 22.480021901620038 M-50.8183255395184 22.480021901620038 C-51.383360473782474 22.137494403955305, -51.94839540804656 21.794966906290572, -52.232613107226626 21.622672466799017 M-50.8183255395184 22.480021901620038 C-51.31128201705609 22.18118878800287, -51.804238494593775 21.882355674385703, -52.232613107226626 21.622672466799017 M-52.232613107226626 21.622672466799017 C-52.73767857313171 21.27036066171527, -53.24274403903679 20.91804885663152, -53.58906430255584 20.67647083276321 M-52.232613107226626 21.622672466799017 C-52.64857176846013 21.332517711282758, -53.064530429693626 21.0423629557665, -53.58906430255584 20.67647083276321 M-53.58906430255584 20.67647083276321 C-53.88702812661117 20.438852612229446, -54.1849919506665 20.20123439169568, -54.882105176586506 19.645305144986512 M-53.58906430255584 20.67647083276321 C-54.061286207099506 20.29988643024227, -54.53350811164318 19.923302027721327, -54.882105176586506 19.645305144986512 M-54.882105176586506 19.645305144986512 C-55.28575699969587 19.27871923928058, -55.689408822805234 18.912133333574644, -56.10642234701086 18.533412684464324 M-54.882105176586506 19.645305144986512 C-55.19383761712296 19.362197990479707, -55.50557005765941 19.079090835972906, -56.10642234701086 18.533412684464324 M-56.10642234701086 18.533412684464324 C-56.398767005279865 18.231542822858756, -56.691111663548874 17.92967296125319, -57.25698483196044 17.3453624558171 M-56.10642234701086 18.533412684464324 C-56.35811005761136 18.27352445932397, -56.60979776821186 18.013636234183615, -57.25698483196044 17.3453624558171 M-57.25698483196044 17.3453624558171 C-57.538912518824475 17.01419415268677, -57.820840205688505 16.68302584955644, -58.32906472338967 16.08603641227036 M-57.25698483196044 17.3453624558171 C-57.65307175413517 16.88009621904631, -58.0491586763099 16.414829982275528, -58.32906472338967 16.08603641227036 M-58.32906472338967 16.08603641227036 C-58.62919868724262 15.683884243474012, -58.929332651095564 15.281732074677663, -59.31825661506427 14.760609394661614 M-58.32906472338967 16.08603641227036 C-58.54242295528451 15.800155818866067, -58.755781187179345 15.514275225461773, -59.31825661506427 14.760609394661614 M-59.31825661506427 14.760609394661614 C-59.501092553555836 14.479724294814673, -59.6839284920474 14.198839194967732, -60.22049570532036 13.374527866909418 M-59.31825661506427 14.760609394661614 C-59.63208056559267 14.278491533119869, -59.945904516121075 13.796373671578122, -60.22049570532036 13.374527866909418 M-60.22049570532036 13.374527866909418 C-60.40497725101858 13.046962201740056, -60.5894587967168 12.719396536570695, -61.0320745002064 11.933487535324842 M-60.22049570532036 13.374527866909418 C-60.51453902293549 12.852424181369143, -60.80858234055062 12.330320495828868, -61.0320745002064 11.933487535324842 M-61.0320745002064 11.933487535324842 C-61.29462104909257 11.388304008966486, -61.55716759797874 10.84312048260813, -61.74965804837108 10.443409943732586 M-61.0320745002064 11.933487535324842 C-61.27869794084806 11.421368683936139, -61.525321381489725 10.909249832547436, -61.74965804837108 10.443409943732586 M-61.74965804837108 10.443409943732586 C-61.913813095999515 10.037943802368412, -62.07796814362795 9.632477661004236, -62.370297645093814 8.910418140577127 M-61.74965804837108 10.443409943732586 C-61.914737542165376 10.035660402465785, -62.07981703595967 9.627910861198984, -62.370297645093814 8.910418140577127 M-62.370297645093814 8.910418140577127 C-62.519851763940856 8.45998496282273, -62.669405882787906 8.009551785068336, -62.8914429491449 7.340811518003316 M-62.370297645093814 8.910418140577127 C-62.52608441540058 8.441213209664204, -62.681871185707344 7.9720082787512805, -62.8914429491449 7.340811518003316 M-62.8914429491449 7.340811518003316 C-63.04302822397979 6.762751167584211, -63.19461349881467 6.184690817165105, -63.31095246268467 5.741039926302918 M-62.8914429491449 7.340811518003316 C-62.99232009972518 6.956123222407116, -63.09319725030545 6.571434926810914, -63.31095246268467 5.741039926302918 M-63.31095246268467 5.741039926302918 C-63.39428231809262 5.313158730554269, -63.47761217350057 4.8852775348056205, -63.62710233113747 4.117677170096139 M-63.31095246268467 5.741039926302918 C-63.410181021388276 5.231522249323198, -63.509409580091884 4.722004572343477, -63.62710233113747 4.117677170096139 M-63.62710233113747 4.117677170096139 C-63.684771026329194 3.6704101581610638, -63.742439721520924 3.223143146225988, -63.83859342687991 2.477393995158454 M-63.62710233113747 4.117677170096139 C-63.70518768504081 3.51206258491908, -63.783273038944145 2.9064479997420207, -63.83859342687991 2.477393995158454 M-63.83859342687991 2.477393995158454 C-63.86896507158306 2.0043311133564585, -63.89933671628622 1.5312682315544626, -63.94455668763487 0.8269306768952934 M-63.83859342687991 2.477393995158454 C-63.87940748294689 1.8416821274021822, -63.920221539013866 1.20597025964591, -63.94455668763487 0.8269306768952934 M-63.94455668763487 0.8269306768952934 C-63.94455668763487 0.48544304476300215, -63.94455668763487 0.14395541263071088, -63.94455668763487 -0.8269306768952809 M-63.94455668763487 0.8269306768952934 C-63.94455668763487 0.4332068295664841, -63.94455668763487 0.03948298223767477, -63.94455668763487 -0.8269306768952809 M-63.94455668763487 -0.8269306768952809 C-63.922158269013856 -1.1758041265957262, -63.89975985039284 -1.5246775762961713, -63.83859342687991 -2.4773939951584185 M-63.94455668763487 -0.8269306768952809 C-63.92307150435521 -1.1615797490038808, -63.90158632107554 -1.4962288211124808, -63.83859342687991 -2.4773939951584185 M-63.83859342687991 -2.4773939951584185 C-63.76990393662094 -3.0101361173328938, -63.70121444636198 -3.5428782395073686, -63.62710233113748 -4.117677170096128 M-63.83859342687991 -2.4773939951584185 C-63.79186752934873 -2.839790829338176, -63.74514163181754 -3.2021876635179334, -63.62710233113748 -4.117677170096128 M-63.62710233113748 -4.117677170096128 C-63.55522953520112 -4.486728786908531, -63.48335673926476 -4.855780403720934, -63.31095246268467 -5.741039926302906 M-63.62710233113748 -4.117677170096128 C-63.51546913504496 -4.690890038346833, -63.40383593895245 -5.264102906597539, -63.31095246268467 -5.741039926302906 M-63.31095246268467 -5.741039926302906 C-63.19965332365254 -6.1654717807844115, -63.08835418462041 -6.589903635265918, -62.89144294914491 -7.340811518003303 M-63.31095246268467 -5.741039926302906 C-63.161156815502515 -6.312275650852619, -63.01136116832036 -6.883511375402334, -62.89144294914491 -7.340811518003303 M-62.89144294914491 -7.340811518003303 C-62.696933191651375 -7.926643916652612, -62.50242343415785 -8.512476315301921, -62.37029764509383 -8.910418140577093 M-62.89144294914491 -7.340811518003303 C-62.75468152935182 -7.75271512444698, -62.61792010955873 -8.164618730890657, -62.37029764509383 -8.910418140577093 M-62.37029764509383 -8.910418140577093 C-62.20791201591745 -9.311513784155311, -62.045526386741074 -9.71260942773353, -61.74965804837109 -10.443409943732574 M-62.37029764509383 -8.910418140577093 C-62.188591129118144 -9.359236748093538, -62.006884613142454 -9.808055355609984, -61.74965804837109 -10.443409943732574 M-61.74965804837109 -10.443409943732574 C-61.56800836478426 -10.820609398381212, -61.386358681197436 -11.197808853029851, -61.032074500206406 -11.933487535324831 M-61.74965804837109 -10.443409943732574 C-61.6018542677389 -10.750327656709599, -61.45405048710671 -11.057245369686623, -61.032074500206406 -11.933487535324831 M-61.032074500206406 -11.933487535324831 C-60.711392291799044 -12.502891268946913, -60.39071008339168 -13.072295002568994, -60.22049570532037 -13.374527866909409 M-61.032074500206406 -11.933487535324831 C-60.745089175027424 -12.443059040595495, -60.45810384984844 -12.95263054586616, -60.22049570532037 -13.374527866909409 M-60.22049570532037 -13.374527866909409 C-59.94316774866905 -13.800578081309391, -59.665839792017735 -14.226628295709375, -59.31825661506428 -14.760609394661605 M-60.22049570532037 -13.374527866909409 C-59.86236137198105 -13.92471837545252, -59.50422703864174 -14.47490888399563, -59.31825661506428 -14.760609394661605 M-59.31825661506428 -14.760609394661605 C-58.968268713962836 -15.229561297583823, -58.61828081286139 -15.69851320050604, -58.32906472338968 -16.086036412270353 M-59.31825661506428 -14.760609394661605 C-59.05531911386883 -15.112921692164365, -58.79238161267338 -15.465233989667125, -58.32906472338968 -16.086036412270353 M-58.32906472338968 -16.086036412270353 C-58.0829010945643 -16.375194217795926, -57.83673746573893 -16.6643520233215, -57.25698483196045 -17.345362455817092 M-58.32906472338968 -16.086036412270353 C-58.064380965895275 -16.396949014755737, -57.79969720840087 -16.70786161724112, -57.25698483196045 -17.345362455817092 M-57.25698483196045 -17.345362455817092 C-56.95578993392352 -17.656370916601244, -56.65459503588658 -17.967379377385395, -56.10642234701089 -18.5334126844643 M-57.25698483196045 -17.345362455817092 C-56.86391243629486 -17.75124197618567, -56.47084004062928 -18.15712149655425, -56.10642234701089 -18.5334126844643 M-56.10642234701089 -18.5334126844643 C-55.62824552135881 -18.967680225656014, -55.15006869570672 -19.40194776684773, -54.882105176586535 -19.645305144986487 M-56.10642234701089 -18.5334126844643 C-55.69892073865626 -18.903494863270247, -55.291419130301634 -19.27357704207619, -54.882105176586535 -19.645305144986487 M-54.882105176586535 -19.645305144986487 C-54.41739461265416 -20.01589945325509, -53.952684048721785 -20.386493761523695, -53.58906430255585 -20.676470832763204 M-54.882105176586535 -19.645305144986487 C-54.46720186919871 -19.976179491587576, -54.05229856181088 -20.30705383818866, -53.58906430255585 -20.676470832763204 M-53.58906430255585 -20.676470832763204 C-53.138968399183916 -20.990438250617842, -52.688872495811985 -21.304405668472477, -52.23261310722666 -21.622672466799 M-53.58906430255585 -20.676470832763204 C-53.049547107180565 -21.052814672934037, -52.51002991180528 -21.42915851310487, -52.23261310722666 -21.622672466799 M-52.23261310722666 -21.622672466799 C-51.93433808502002 -21.803488538119257, -51.636063062813385 -21.984304609439516, -50.818325539518405 -22.480021901620027 M-52.23261310722666 -21.622672466799 C-51.779691642496566 -21.89723612038035, -51.32677017776647 -22.1717997739617, -50.818325539518405 -22.480021901620027 M-50.818325539518405 -22.480021901620027 C-50.46095705430388 -22.666460811451007, -50.10358856908936 -22.852899721281982, -49.352013210410576 -23.244996104497716 M-50.818325539518405 -22.480021901620027 C-50.2395844748176 -22.781950744373095, -49.6608434101168 -23.083879587126162, -49.352013210410576 -23.244996104497716 M-49.352013210410576 -23.244996104497716 C-48.87210621708379 -23.45743669450833, -48.392199223757 -23.669877284518943, -47.83970151178645 -23.91445163234599 M-49.352013210410576 -23.244996104497716 C-48.82952399917307 -23.47628657922079, -48.30703478793556 -23.70757705394387, -47.83970151178645 -23.91445163234599 M-47.83970151178645 -23.91445163234599 C-47.258076101958956 -24.12849515964886, -46.67645069213146 -24.34253868695173, -46.28760485680553 -24.485637548803172 M-47.83970151178645 -23.91445163234599 C-47.3241468035803 -24.104180530701335, -46.80859209537414 -24.293909429056683, -46.28760485680553 -24.485637548803172 M-46.28760485680553 -24.485637548803172 C-45.72187469079781 -24.653543292496025, -45.15614452479009 -24.821449036188877, -44.70210114354682 -24.956206728419538 M-46.28760485680553 -24.485637548803172 C-45.674013711124154 -24.66774818003576, -45.06042256544277 -24.849858811268344, -44.70210114354682 -24.956206728419538 M-44.70210114354682 -24.956206728419538 C-44.124269048459944 -25.088093133416304, -43.546436953373075 -25.219979538413074, -43.089705546857545 -25.324225501499278 M-44.70210114354682 -24.956206728419538 C-44.20386565819218 -25.069925726661346, -43.70563017283754 -25.18364472490315, -43.089705546857545 -25.324225501499278 M-43.089705546857545 -25.324225501499278 C-42.75912831248814 -25.377670665087383, -42.42855107811873 -25.431115828675487, -41.45704374610233 -25.588181599964017 M-43.089705546857545 -25.324225501499278 C-42.68673523322904 -25.38937461672528, -42.28376491960052 -25.454523731951284, -41.45704374610233 -25.588181599964017 M-41.45704374610233 -25.588181599964017 C-40.804965883029126 -25.65108676717632, -40.152888019955924 -25.713991934388623, -39.810824698825286 -25.746990371586765 M-41.45704374610233 -25.588181599964017 C-41.031447091672504 -25.629238397362, -40.60585043724267 -25.67029519475998, -39.810824698825286 -25.746990371586765 M-39.810824698825286 -25.746990371586765 C-39.409300149442316 -25.759866482365354, -39.00777560005935 -25.772742593143942, -38.1578130722046 -25.799999237060547 M-39.810824698825286 -25.746990371586765 C-39.37467719619623 -25.760976773086465, -38.938529693567176 -25.774963174586166, -38.1578130722046 -25.799999237060547 M-38.1578130722046 -25.799999237060547 C-38.1578130722046 -25.799999237060547, -38.15781307220459 -25.799999237060547, -38.15781307220459 -25.799999237060547 M-38.1578130722046 -25.799999237060547 C-38.1578130722046 -25.799999237060547, -38.15781307220459 -25.799999237060547, -38.15781307220459 -25.799999237060547" stroke="#9370DB" stroke-width="1.3" fill="none" stroke-dasharray="0 0" style=""></path></g><g class="label" style="" transform="translate(0, -18.299999237060547)"><rect></rect><g><rect class="background" style="stroke: none"></rect><text y="-10.1" style=""><tspan class="text-outer-tspan row" x="0" y="-0.1em" dy="1.1em"><tspan font-style="normal" class="text-inner-tspan" font-weight="normal">Connect</tspan><tspan font-style="normal" class="text-inner-tspan" font-weight="normal"> using</tspan></tspan><tspan class="text-outer-tspan row" x="0" y="1em" dy="1.1em"><tspan font-style="normal" class="text-inner-tspan" font-weight="normal">cached</tspan><tspan font-style="normal" class="text-inner-tspan" font-weight="normal"> IP</tspan></tspan></text></g></g></g><g class="node default" id="g2dd42e7e-1a07-46d4-ba90-dd1ddbce27a0-light-flowchart-Multicast-23" data-look="classic" transform="translate(396.6632843017578, 996.0906143188477)"><rect class="basic label-container" style="" x="-112.7890625" y="-33.29999923706055" width="225.578125" height="66.5999984741211"></rect><g class="label" style="" transform="translate(0, -18.299999237060547)"><rect></rect><g><rect class="background" style="stroke: none"></rect><text y="-10.1" style=""><tspan class="text-outer-tspan row" x="0" y="-0.1em" dy="1.1em"><tspan font-style="normal" class="text-inner-tspan" font-weight="normal">mDNS</tspan><tspan font-style="normal" class="text-inner-tspan" font-weight="normal"> multicast</tspan></tspan><tspan class="text-outer-tspan row" x="0" y="1em" dy="1.1em"><tspan font-style="normal" class="text-inner-tspan" font-weight="normal">224.0.0.251</tspan><tspan font-style="normal" class="text-inner-tspan" font-weight="normal"> /</tspan><tspan font-style="normal" class="text-inner-tspan" font-weight="normal"> FF02::FB</tspan></tspan></text></g></g></g></g></g></g><defs><filter id="g2dd42e7e-1a07-46d4-ba90-dd1ddbce27a0-light-drop-shadow" height="130%" width="130%"><feDropShadow dx="4" dy="4" stdDeviation="0" flood-opacity="0.06" flood-color="#000000"></feDropShadow></filter></defs><defs><filter id="g2dd42e7e-1a07-46d4-ba90-dd1ddbce27a0-light-drop-shadow-small" height="150%" width="150%"><feDropShadow dx="2" dy="2" stdDeviation="0" flood-opacity="0.06" flood-color="#000000"></feDropShadow></filter></defs></svg>